<svg id="logo_art" data-name="logo art" xmlns="http://www.w3.org/2000/svg" viewBox="0 0 586 559"><defs><style>.cls-1{fill:#d83b21;}.cls-2{fill:#f96d26;}.cls-3{fill:#f99f21;}.cls-4{fill:#14125b;}.cls-5{fill:#fff;}</style></defs><title>gitlab-heroes-icon</title><g id="g48"><path id="path50" class="cls-1" d="M293,428.2h0l59.44-182.88H233.6L293,428.2Z"/></g><g id="g56"><path id="path58" class="cls-2" d="M293,428.2,233.56,245.32H150.34L293,428.2Z"/></g><g id="g64"><path id="path66" class="cls-3" d="M150.31,245.38h0l-18.08,55.56a12.31,12.31,0,0,0,4.45,13.76L293,428.26,150.31,245.38Z"/></g><g id="g72"><path id="path74" class="cls-1" d="M150.33,245.38h83.29L197.77,135.23a6.17,6.17,0,0,0-11.72,0L150.33,245.38Z"/></g><g id="g76"><path id="path78" class="cls-2" d="M293,428.2l59.44-182.88h83.28L293,428.2Z"/></g><g id="g80"><path id="path82" class="cls-3" d="M435.69,245.38h0l18.08,55.56a12.31,12.31,0,0,1-4.45,13.76L293,428.2,435.69,245.38Z"/></g><g id="g84"><path id="path86" class="cls-1" d="M435.73,245.38H352.45l35.78-110.15a6.18,6.18,0,0,1,11.73,0l35.77,110.15Z"/></g><path class="cls-4" d="M460.12,298.88l-17.79-54.67a7,7,0,0,0-.41-1.4L406.28,133.1a12.7,12.7,0,0,0-12.21-8.77H394a12.62,12.62,0,0,0-12.12,8.84L347.62,238.64H238.44L204.12,133.16A12.62,12.62,0,0,0,192,124.33h-.07a12.72,12.72,0,0,0-12.23,8.84L144.08,243l-.12.28-18.08,55.57a18.92,18.92,0,0,0,6.88,21.22L289,433.66a6.52,6.52,0,0,0,6.84.57l.11-.05.08,0,.13-.08.24-.13.42-.27.1-.06L453.24,320.1A18.92,18.92,0,0,0,460.12,298.88ZM228.73,252.05l46.18,142.12L164.06,252.05ZM311.1,394.2l46.19-142.15H422L334.75,363.88Zm83-255.42,32.44,99.86H361.66ZM343.28,252,293,406.6,242.79,252ZM191.91,138.78l32.5,99.86H159.53Zm-51.3,170.53a5.63,5.63,0,0,1-2-6.3l14.2-43.63L258.57,395Zm304.79,0L327.43,395l8.82-11.3,97-124.28L447.43,303A5.62,5.62,0,0,1,445.4,309.3Z"/><path class="cls-5" d="M311.8,413a6.19,6.19,0,0,1-2.84-.68,6.27,6.27,0,0,1-3.44-5.6v-62.5H281.41v62.5a6.28,6.28,0,0,1-10,5.07l-28.06-20.53a6.29,6.29,0,0,1-2.57-5.07V251.82a6.28,6.28,0,0,1,6.28-6.28h28.06a6.28,6.28,0,0,1,6.28,6.28v55.9h24.11v-55.9a6.28,6.28,0,0,1,6.28-6.28h28.06a6.28,6.28,0,0,1,6.28,6.28V386.14a6.31,6.31,0,0,1-2.57,5.07L315.5,411.74A6.25,6.25,0,0,1,311.8,413Z"/><path class="cls-4" d="M339.86,251.82V386.14L311.8,406.67V337.89H275.13v68.78l-28.06-20.53V251.82h28.06V314H311.8V251.82h28.06m0-12.56H311.8a12.56,12.56,0,0,0-12.56,12.56v49.62H287.69V251.82a12.56,12.56,0,0,0-12.56-12.56H247.07a12.56,12.56,0,0,0-12.56,12.56V386.14a12.55,12.55,0,0,0,5.14,10.13l28.06,20.54a12.57,12.57,0,0,0,20-10.14V350.45h11.55v56.22a12.56,12.56,0,0,0,20,10.14l28.06-20.54a12.53,12.53,0,0,0,5.15-10.13V251.82a12.56,12.56,0,0,0-12.56-12.56Z"/></svg>