<svg height="134" viewBox="0 0 134 134" width="134" xmlns="http://www.w3.org/2000/svg"><g fill="none" fill-rule="evenodd" transform="translate(2 2)"><path d="m123.367347 65c0 32.2360204-26.1313266 58.367347-58.367347 58.367347s-58.36734694-26.1313266-58.36734694-58.367347 26.13132654-58.36734694 58.36734694-58.36734694 58.367347 26.13132654 58.367347 58.36734694" fill="#fff"/><path d="m123.367347 65c0 32.2360204-26.1313266 58.367347-58.367347 58.367347s-58.36734694-26.1313266-58.36734694-58.367347 26.13132654-58.36734694 58.36734694-58.36734694 58.367347 26.13132654 58.367347 58.36734694z" stroke="#333" stroke-linecap="round" stroke-linejoin="round" stroke-width="2.653061"/><path d="m65.0051735 88.3153673 9.4316326-28.7008163h-18.8632653z" fill="#e24329"/><path d="m64.9986735 88.3153673-9.4329592-28.7008163h-13.2069388z" fill="#fc6d26"/><path d="m42.354398 59.6239694-2.8706123 8.7206122c-.26.7919388.0212245 1.6661225.7070408 2.1595919l24.8021429 17.8206122z" fill="#fca326"/><path d="m42.357051 59.6239694h13.2188776l-5.6881633-17.2846939c-.2918367-.8847959-1.5613265-.8847959-1.862449 0z" fill="#e24329"/><path d="m65.0051735 88.3153673 9.4316326-28.7008163h13.2188776z" fill="#fc6d26"/><path d="m87.645602 59.6239694 2.8706123 8.7206122c.26.7919388-.0212245 1.6661225-.7070408 2.1595919l-24.8021429 17.81z" fill="#fca326"/><path d="m87.6532959 59.6239694h-13.2188775l5.677551-17.2846939c.2918367-.8847959 1.5613265-.8847959 1.862449 0z" fill="#e24329"/><g stroke="#333" stroke-linecap="round" stroke-linejoin="round" stroke-width="2.653061"><path d="m65.0051735 88.3153673 9.4316326-28.7008163h-18.8632653z"/><path d="m64.9986735 88.3153673-9.4329592-28.7008163h-13.2069388z"/><path d="m42.354398 59.6239694-2.8706123 8.7206122c-.26.7919388.0212245 1.6661225.7070408 2.1595919l24.8021429 17.8206122z"/><path d="m42.357051 59.6239694h13.2188776l-5.6881633-17.2846939c-.2918367-.8847959-1.5613265-.8847959-1.862449 0z"/><path d="m65.0051735 88.3153673 9.4316326-28.7008163h13.2188776z"/><path d="m87.645602 59.6239694 2.8706123 8.7206122c.26.7919388-.0212245 1.6661225-.7070408 2.1595919l-24.8021429 17.81z"/><path d="m87.6532959 59.6239694h-13.2188775l5.677551-17.2846939c.2918367-.8847959 1.5613265-.8847959 1.862449 0z"/></g><path d="m71.6326531 6.63265306c0 3.66387754-2.9687755 6.63265304-6.6326531 6.63265304s-6.6326531-2.9687755-6.6326531-6.63265304c0-3.66387755 2.9687755-6.63265306 6.6326531-6.63265306s6.6326531 2.96877551 6.6326531 6.63265306" fill="#fca326"/><path d="m71.6326531 6.63265306c0 3.66387754-2.9687755 6.63265304-6.6326531 6.63265304s-6.6326531-2.9687755-6.6326531-6.63265304c0-3.66387755 2.9687755-6.63265306 6.6326531-6.63265306s6.6326531 2.96877551 6.6326531 6.63265306z" stroke="#333" stroke-linecap="round" stroke-linejoin="round" stroke-width="2.653061"/><path d="m71.6326531 123.367347c0 3.663877-2.9687755 6.632653-6.6326531 6.632653s-6.6326531-2.968776-6.6326531-6.632653c0-3.663878 2.9687755-6.632653 6.6326531-6.632653s6.6326531 2.968775 6.6326531 6.632653" fill="#ccc"/><path d="m71.6326531 123.367347c0 3.663877-2.9687755 6.632653-6.6326531 6.632653s-6.6326531-2.968776-6.6326531-6.632653c0-3.663878 2.9687755-6.632653 6.6326531-6.632653s6.6326531 2.968775 6.6326531 6.632653z" stroke="#333" stroke-linecap="round" stroke-linejoin="round" stroke-width="2.653061"/><path d="m123.367347 71.6326531c-3.663878 0-6.632653-2.9687755-6.632653-6.6326531s2.968775-6.6326531 6.632653-6.6326531c3.663877 0 6.632653 2.9687755 6.632653 6.6326531s-2.968776 6.6326531-6.632653 6.6326531" fill="#fc6d26"/><path d="m123.367347 71.6326531c-3.663878 0-6.632653-2.9687755-6.632653-6.6326531s2.968775-6.6326531 6.632653-6.6326531c3.663877 0 6.632653 2.9687755 6.632653 6.6326531s-2.968776 6.6326531-6.632653 6.6326531z" stroke="#333" stroke-linecap="round" stroke-linejoin="round" stroke-width="2.653061"/><path d="m6.63265306 71.6326531c-3.66387755 0-6.63265306-2.9687755-6.63265306-6.6326531s2.96877551-6.6326531 6.63265306-6.6326531c3.66387754 0 6.63265304 2.9687755 6.63265304 6.6326531s-2.9687755 6.6326531-6.63265304 6.6326531" fill="#ccc"/><path d="m6.63265306 71.6326531c-3.66387755 0-6.63265306-2.9687755-6.63265306-6.6326531s2.96877551-6.6326531 6.63265306-6.6326531c3.66387754 0 6.63265304 2.9687755 6.63265304 6.6326531s-2.9687755 6.6326531-6.63265304 6.6326531z" stroke="#333" stroke-linecap="round" stroke-linejoin="round" stroke-width="2.653061"/><path d="m28.4181327 19.0378367c2.5893877 2.5907143 2.5893877 6.7891837 0 9.379898-2.5907143 2.5893877-6.7891837 2.5893877-9.379898 0-2.5893878-2.5907143-2.5893878-6.7891837 0-9.379898 2.5907143-2.5893877 6.7891837-2.5893877 9.379898 0" fill="#fc6d26"/><path d="m28.4181327 19.0378367c2.5893877 2.5907143 2.5893877 6.7891837 0 9.379898-2.5907143 2.5893877-6.7891837 2.5893877-9.379898 0-2.5893878-2.5907143-2.5893878-6.7891837 0-9.379898 2.5907143-2.5893877 6.7891837-2.5893877 9.379898 0z" stroke="#333" stroke-linecap="round" stroke-linejoin="round" stroke-width="2.653061"/><path d="m110.962163 101.581867c2.589388 2.590715 2.589388 6.789184 0 9.379898-2.590714 2.589388-6.789183 2.589388-9.379898 0-2.5893874-2.590714-2.5893874-6.789183 0-9.379898 2.590715-2.5893874 6.789184-2.5893874 9.379898 0" fill="#fca326"/><path d="m110.962163 101.581867c2.589388 2.590715 2.589388 6.789184 0 9.379898-2.590714 2.589388-6.789183 2.589388-9.379898 0-2.5893874-2.590714-2.5893874-6.789183 0-9.379898 2.590715-2.5893874 6.789184-2.5893874 9.379898 0z" stroke="#333" stroke-linecap="round" stroke-linejoin="round" stroke-width="2.653061"/><path d="m110.962163 28.4181327c-2.590714 2.5893877-6.789183 2.5893877-9.379898 0-2.5893874-2.5907143-2.5893874-6.7891837 0-9.379898 2.590715-2.5893878 6.789184-2.5893878 9.379898 0 2.589388 2.5907143 2.589388 6.7891837 0 9.379898" fill="#fff"/><path d="m110.962163 28.4181327c-2.590714 2.5893877-6.789183 2.5893877-9.379898 0-2.5893874-2.5907143-2.5893874-6.7891837 0-9.379898 2.590715-2.5893878 6.789184-2.5893878 9.379898 0 2.589388 2.5907143 2.589388 6.7891837 0 9.379898z" stroke="#333" stroke-linecap="round" stroke-linejoin="round" stroke-width="2.653061"/><path d="m28.4181327 110.962163c-2.5907143 2.589388-6.7891837 2.589388-9.379898 0-2.5893878-2.590714-2.5893878-6.789183 0-9.379898 2.5907143-2.5893874 6.7891837-2.5893874 9.379898 0 2.5893877 2.590715 2.5893877 6.789184 0 9.379898" fill="#fff"/><path d="m28.4181327 110.962163c-2.5907143 2.589388-6.7891837 2.589388-9.379898 0-2.5893878-2.590714-2.5893878-6.789183 0-9.379898 2.5907143-2.5893874 6.7891837-2.5893874 9.379898 0 2.5893877 2.590715 2.5893877 6.789184 0 9.379898z" stroke="#333" stroke-linecap="round" stroke-linejoin="round" stroke-width="2.653061"/></g></svg>