<svg height="134" viewBox="0 0 108 134" width="108" xmlns="http://www.w3.org/2000/svg"><g fill="none" fill-rule="evenodd" transform="translate(2 2)"><path d="m13.3333333 130h-5.3333333c-4.41733333 0-8-3.564388-8-7.959184v-114.08163233c0-4.39479591 3.58266667-7.95918367 8-7.95918367h5.3333333z" fill="#ccc"/><path d="m13.3333333 130h-5.3333333c-4.41733333 0-8-3.564388-8-7.959184v-114.08163233c0-4.39479591 3.58266667-7.95918367 8-7.95918367h5.3333333z" stroke="#333" stroke-linecap="round" stroke-linejoin="round" stroke-width="2.653061"/><path d="m96 130h-82.6666667v-130h82.6666667c4.417333 0 8 3.56438776 8 7.95918367v114.08163233c0 4.394796-3.582667 7.959184-8 7.959184" fill="#fff"/><path d="m96 130h-82.6666667v-130h82.6666667c4.417333 0 8 3.56438776 8 7.95918367v114.08163233c0 4.394796-3.582667 7.959184-8 7.959184z" stroke="#333" stroke-linecap="round" stroke-linejoin="round" stroke-width="2.653061"/><path d="m58.6705333 61.4387959 7.3653334-22.297653h-14.7306667z" fill="#e24329"/><path d="m58.6653333 61.4387959-7.3653333-22.297653h-10.3146667z" fill="#fc6d26"/><path d="m40.9830667 39.1495-2.2426667 6.7732653c-.2026667.6155102.0173333 1.2946939.5533333 1.6780612l19.368 13.8463266z" fill="#fca326"/><path d="m40.9857333 39.1495h10.3213334l-4.4426667-13.4297959c-.2266667-.6884694-1.2173333-.6884694-1.4533333 0z" fill="#e24329"/><path d="m58.6705333 61.4387959 7.3653334-22.297653h10.3226666z" fill="#fc6d26"/><path d="m76.3502667 39.1495 2.2426666 6.7732653c.2026667.6155102-.0173333 1.2946939-.5533333 1.6780612l-19.368 13.8383674z" fill="#fca326"/><path d="m76.3554667 39.1495h-10.3213334l4.4346667-13.4297959c.2266667-.6884694 1.2173333-.6884694 1.4533333 0z" fill="#e24329"/><g stroke-linecap="round" stroke-linejoin="round" stroke-width="2.653061"><path d="m58.6705333 61.4387959 7.3653334-22.297653h-14.7306667z" stroke="#333"/><path d="m58.6653333 61.4387959-7.3653333-22.297653h-10.3146667z" stroke="#333"/><path d="m40.9830667 39.1495-2.2426667 6.7732653c-.2026667.6155102.0173333 1.2946939.5533333 1.6780612l19.368 13.8463266z" stroke="#333"/><path d="m40.9857333 39.1495h10.3213334l-4.4426667-13.4297959c-.2266667-.6884694-1.2173333-.6884694-1.4533333 0z" stroke="#333"/><path d="m58.6705333 61.4387959 7.3653334-22.297653h10.3226666z" stroke="#333"/><path d="m76.3502667 39.1495 2.2426666 6.7732653c.2026667.6155102-.0173333 1.2946939-.5533333 1.6780612l-19.368 13.8383674z" stroke="#333"/><path d="m76.3554667 39.1495h-10.3213334l4.4346667-13.4297959c.2266667-.6884694 1.2173333-.6884694 1.4533333 0z" stroke="#333"/><path d="m28 104.795918h34.6666667" stroke="#ccc"/><path d="m28 83.5714286h61.3333333" stroke="#ccc"/><path d="m28 94.1836735h61.3333333" stroke="#ccc"/></g></g></svg>