<?xml version="1.0" encoding="UTF-8"?>
<svg width="134px" height="134px" viewBox="0 0 134 134" version="1.1" xmlns="http://www.w3.org/2000/svg" xmlns:xlink="http://www.w3.org/1999/xlink">
    <!-- Generator: Sketch 52.2 (67145) - http://www.bohemiancoding.com/sketch -->
    <title>Group 13</title>
    <desc>Created with Sketch.</desc>
    <g id="/company" stroke="none" stroke-width="1" fill="none" fill-rule="evenodd">
        <g id="company-page-v1" transform="translate(-393.000000, -4101.000000)">
            <g id="Group-13" transform="translate(395.000000, 4103.000000)">
                <path d="M93.0242857,6.33338776 C68.8615306,-5.20742857 39.0490816,-0.977122449 19.0357143,19.0349184 C-0.976326531,39.0482857 -5.20795918,68.8620612 6.33285714,93.0248163" id="Stroke-1" stroke="#333333" stroke-width="2.65306122" stroke-linecap="round" stroke-linejoin="round"></path>
                <path d="M36.9757143,123.666612 C61.1384694,135.207429 90.9509184,130.977122 110.964286,110.965082 C130.976327,90.9517143 135.207959,61.1379388 123.667143,36.9751837" id="Stroke-3" stroke="#333333" stroke-width="2.65306122" stroke-linecap="round" stroke-linejoin="round"></path>
                <path d="M107.700357,88.5485714 C117.930561,70.0182653 115.189949,46.2428571 99.4732143,30.527449 C83.7564796,14.8107143 59.9810714,12.070102 41.4520918,22.3003061" id="Stroke-5" stroke="#333333" stroke-width="2.65306122" stroke-linecap="round" stroke-linejoin="round"></path>
                <path d="M22.2996429,41.4514286 C12.0694388,59.9817347 14.810051,83.7571429 30.5267857,99.472551 C46.2435204,115.189286 70.0189286,117.929898 88.5479082,107.699694" id="Stroke-7" stroke="#333333" stroke-width="2.65306122" stroke-linecap="round" stroke-linejoin="round"></path>
                <path d="M65,84.8979592 L61.8746939,82.0777551 C50.7729592,71.8846939 43.4438776,65.2706122 43.4438776,57.0302041 C43.4438776,50.3073469 48.6173469,45.1020408 55.3004082,45.1020408 C59.0717347,45.1020408 62.6281633,46.8371429 65,49.6573469 C67.3718367,46.8371429 70.9282653,45.1020408 74.6995918,45.1020408 C81.3826531,45.1020408 86.5561224,50.3073469 86.5561224,57.0302041 C86.5561224,65.2706122 79.2270408,71.8846939 68.1253061,82.0777551 L65,84.8979592 Z" id="Fill-9" fill="#E24329"></path>
                <path d="M65,84.8979592 L61.8746939,82.0777551 C50.7729592,71.8846939 43.4438776,65.2706122 43.4438776,57.0302041 C43.4438776,50.3073469 48.6173469,45.1020408 55.3004082,45.1020408 C59.0717347,45.1020408 62.6281633,46.8371429 65,49.6573469 C67.3718367,46.8371429 70.9282653,45.1020408 74.6995918,45.1020408 C81.3826531,45.1020408 86.5561224,50.3073469 86.5561224,57.0302041 C86.5561224,65.2706122 79.2270408,71.8846939 68.1253061,82.0777551 L65,84.8979592 Z" id="Stroke-11" stroke="#333333" stroke-width="2.65306122" stroke-linecap="round" stroke-linejoin="round"></path>
            </g>
        </g>
    </g>
</svg>