<?xml version="1.0" encoding="UTF-8"?>
<svg width="130px" height="122px" viewBox="0 0 130 122" version="1.1" xmlns="http://www.w3.org/2000/svg" xmlns:xlink="http://www.w3.org/1999/xlink">
    <!-- Generator: Sketch 52.2 (67145) - http://www.bohemiancoding.com/sketch -->
    <title>Group 16</title>
    <desc>Created with Sketch.</desc>
    <defs>
        <polygon id="path-1" points="0 122 130 122 130 0 0 0"></polygon>
    </defs>
    <g id="/company" stroke="none" stroke-width="1" fill="none" fill-rule="evenodd">
        <g id="company-page-v1" transform="translate(-395.000000, -2049.000000)">
            <g id="Group-16" transform="translate(395.000000, 2049.000000)">
                <path d="M120.40236,120.702128 L9.59816,120.702128 C5.01436,120.702128 1.30026,116.994106 1.30026,112.417809 L1.30026,17.3694255 C1.30026,12.7931277 5.01436,9.08510638 9.59816,9.08510638 L120.40236,9.08510638 C124.98486,9.08510638 128.70026,12.7931277 128.70026,17.3694255 L128.70026,112.417809 C128.70026,116.994106 124.98486,120.702128 120.40236,120.702128" id="Fill-1" fill="#FFFFFF"></path>
                <path d="M120.40236,120.702128 L9.59816,120.702128 C5.01436,120.702128 1.30026,116.994106 1.30026,112.417809 L1.30026,17.3694255 C1.30026,12.7931277 5.01436,9.08510638 9.59816,9.08510638 L120.40236,9.08510638 C124.98486,9.08510638 128.70026,12.7931277 128.70026,17.3694255 L128.70026,112.417809 C128.70026,116.994106 124.98486,120.702128 120.40236,120.702128 Z" id="Stroke-3" stroke="#333333" stroke-width="2.6" stroke-linecap="round" stroke-linejoin="round"></path>
                <mask id="mask-2" fill="white">
                    <use xlink:href="#path-1"></use>
                </mask>
                <g id="Clip-6"></g>
                <polygon id="Fill-5" fill="#CCCCCC" mask="url(#mask-2)" points="11.7 110.319149 118.3 110.319149 118.3 19.4680851 11.7 19.4680851"></polygon>
                <polygon id="Stroke-7" stroke="#333333" stroke-width="2.6" stroke-linecap="round" stroke-linejoin="round" mask="url(#mask-2)" points="11.7 110.319149 118.3 110.319149 118.3 19.4680851 11.7 19.4680851"></polygon>
                <path d="M26.72358,83.4478702 C26.72358,65.6293809 47.61198,62.4573809 47.61198,55.5059766 C47.61198,52.1315085 44.90798,50.712934 42.40678,50.712934 C40.24358,50.712934 38.41838,51.8615511 37.26788,53.0763596 C35.57918,54.6961043 33.82028,55.3709979 31.99768,53.8862319 L29.35868,51.7927638 C27.46718,50.3092957 26.99268,48.6220617 28.41228,46.7998489 C30.77828,43.6940404 35.44268,39.5771894 43.48838,39.5771894 C51.39758,39.5771894 59.98278,44.1002745 59.98278,54.3586574 C59.98278,69.410083 40.44768,72.3108277 39.83798,78.5211468 L57.00968,78.5211468 C59.44198,78.5211468 60.72638,79.8021468 60.72638,82.2317638 L60.72638,84.9326362 C60.72638,87.3622532 59.44198,88.6445511 57.00968,88.6445511 L30.71198,88.6445511 C28.41228,88.6445511 26.72358,87.3622532 26.72358,84.9326362 L26.72358,83.4478702 Z" id="Fill-8" fill="#FCA326" mask="url(#mask-2)"></path>
                <path d="M26.72358,83.4478702 C26.72358,65.6293809 47.61198,62.4573809 47.61198,55.5059766 C47.61198,52.1315085 44.90798,50.712934 42.40678,50.712934 C40.24358,50.712934 38.41838,51.8615511 37.26788,53.0763596 C35.57918,54.6961043 33.82028,55.3709979 31.99768,53.8862319 L29.35868,51.7927638 C27.46718,50.3092957 26.99268,48.6220617 28.41228,46.7998489 C30.77828,43.6940404 35.44268,39.5771894 43.48838,39.5771894 C51.39758,39.5771894 59.98278,44.1002745 59.98278,54.3586574 C59.98278,69.410083 40.44768,72.3108277 39.83798,78.5211468 L57.00968,78.5211468 C59.44198,78.5211468 60.72638,79.8021468 60.72638,82.2317638 L60.72638,84.9326362 C60.72638,87.3622532 59.44198,88.6445511 57.00968,88.6445511 L30.71198,88.6445511 C28.41228,88.6445511 26.72358,87.3622532 26.72358,84.9326362 L26.72358,83.4478702 Z" id="Stroke-9" stroke="#333333" stroke-width="2.6" stroke-linecap="round" stroke-linejoin="round" mask="url(#mask-2)"></path>
                <path d="M66.20601,83.4478702 C66.20601,65.6293809 87.09441,62.4573809 87.09441,55.5059766 C87.09441,52.1315085 84.39041,50.712934 81.88921,50.712934 C79.72601,50.712934 77.90081,51.8615511 76.75291,53.0763596 C75.06161,54.6961043 73.30531,55.3709979 71.48011,53.8862319 L68.84371,51.7927638 C66.94961,50.3092957 66.47771,48.6220617 67.89731,46.7998489 C70.26331,43.6940404 74.92771,39.5771894 82.97081,39.5771894 C90.88001,39.5771894 99.46781,44.1002745 99.46781,54.3586574 C99.46781,69.410083 79.93011,72.3108277 79.32301,78.5211468 L96.49211,78.5211468 C98.92701,78.5211468 100.21141,79.8021468 100.21141,82.2317638 L100.21141,84.9326362 C100.21141,87.3622532 98.92701,88.6445511 96.49211,88.6445511 L70.19441,88.6445511 C67.89731,88.6445511 66.20601,87.3622532 66.20601,84.9326362 L66.20601,83.4478702 Z" id="Fill-10" fill="#FCA326" mask="url(#mask-2)"></path>
                <path d="M66.20601,83.4478702 C66.20601,65.6293809 87.09441,62.4573809 87.09441,55.5059766 C87.09441,52.1315085 84.39041,50.712934 81.88921,50.712934 C79.72601,50.712934 77.90081,51.8615511 76.75291,53.0763596 C75.06161,54.6961043 73.30531,55.3709979 71.48011,53.8862319 L68.84371,51.7927638 C66.94961,50.3092957 66.47771,48.6220617 67.89731,46.7998489 C70.26331,43.6940404 74.92771,39.5771894 82.97081,39.5771894 C90.88001,39.5771894 99.46781,44.1002745 99.46781,54.3586574 C99.46781,69.410083 79.93011,72.3108277 79.32301,78.5211468 L96.49211,78.5211468 C98.92701,78.5211468 100.21141,79.8021468 100.21141,82.2317638 L100.21141,84.9326362 C100.21141,87.3622532 98.92701,88.6445511 96.49211,88.6445511 L70.19441,88.6445511 C67.89731,88.6445511 66.20601,87.3622532 66.20601,84.9326362 L66.20601,83.4478702 Z" id="Stroke-11" stroke="#333333" stroke-width="2.6" stroke-linecap="round" stroke-linejoin="round" mask="url(#mask-2)"></path>
                <path d="M26,9.08510638 L26,3.89361702 C26,2.46076596 27.1648,1.29787234 28.6,1.29787234 L33.8,1.29787234 C35.2352,1.29787234 36.4,2.46076596 36.4,3.89361702 L36.4,9.08510638 L26,9.08510638 Z" id="Fill-12" fill="#CCCCCC" mask="url(#mask-2)"></path>
                <path d="M26,9.08510638 L26,3.89361702 C26,2.46076596 27.1648,1.29787234 28.6,1.29787234 L33.8,1.29787234 C35.2352,1.29787234 36.4,2.46076596 36.4,3.89361702 L36.4,9.08510638 L26,9.08510638 Z" id="Stroke-13" stroke="#333333" stroke-width="2.6" stroke-linecap="round" stroke-linejoin="round" mask="url(#mask-2)"></path>
                <path d="M93.6,9.08510638 L93.6,3.89361702 C93.6,2.46076596 94.7648,1.29787234 96.2,1.29787234 L101.4,1.29787234 C102.8352,1.29787234 104,2.46076596 104,3.89361702 L104,9.08510638 L93.6,9.08510638 Z" id="Fill-14" fill="#CCCCCC" mask="url(#mask-2)"></path>
                <path d="M93.6,9.08510638 L93.6,3.89361702 C93.6,2.46076596 94.7648,1.29787234 96.2,1.29787234 L101.4,1.29787234 C102.8352,1.29787234 104,2.46076596 104,3.89361702 L104,9.08510638 L93.6,9.08510638 Z" id="Stroke-15" stroke="#333333" stroke-width="2.6" stroke-linecap="round" stroke-linejoin="round" mask="url(#mask-2)"></path>
            </g>
        </g>
    </g>
</svg>