<svg height="138" viewBox="0 0 372 138" width="372" xmlns="http://www.w3.org/2000/svg"><g fill="none" fill-rule="evenodd" transform="translate(3 3)"><path d="m183.945949 95.733825 9.793626-29.83145h-19.586702z" fill="#e24329"/><path d="m183.938972 95.733825-9.793626-29.83145h-13.713054z" fill="#fc6d26"/><path d="m160.427897 65.91244-2.980502 9.06345c-.269756.8239.021427 1.73195.73455 2.2451l25.752082 18.5229z" fill="#fca326"/><path d="m160.431138 65.91244h13.723493l-5.906063-17.96685c-.302171-.9196-1.619635-.9196-1.932244 0z" fill="#e24329"/><path d="m183.945949 95.733825 9.793626-29.83145h13.724042z" fill="#fc6d26"/><path d="m207.453233 65.91244 2.980501 9.06345c.269756.8239-.021426 1.73195-.734549 2.2451l-25.752082 18.51245z" fill="#fca326"/><path d="m207.46076 65.91244h-13.723493l5.895075-17.96685c.30272-.9196 1.619635-.9196 1.932793 0z" fill="#e24329"/><g stroke-linecap="round" stroke-linejoin="round" stroke-width="4.4"><path d="m183.945949 95.733825 9.793626-29.83145h-19.586702z" stroke="#251b3f"/><path d="m183.938972 95.733825-9.793626-29.83145h-13.713054z" stroke="#251b3f"/><path d="m160.427897 65.91244-2.980502 9.06345c-.269756.8239.021427 1.73195.73455 2.2451l25.752082 18.5229z" stroke="#251b3f"/><path d="m160.431138 65.91244h13.723493l-5.906063-17.96685c-.302171-.9196-1.619635-.9196-1.932244 0z" stroke="#251b3f"/><path d="m183.945949 95.733825 9.793626-29.83145h13.724042z" stroke="#251b3f"/><path d="m207.453233 65.91244 2.980501 9.06345c.269756.8239-.021426 1.73195-.734549 2.2451l-25.752082 18.51245z" stroke="#251b3f"/><path d="m207.46076 65.91244h-13.723493l5.895075-17.96685c.30272-.9196 1.619635-.9196 1.932793 0z" stroke="#251b3f"/><path d="m36.1516427 105.05h8.1091616" stroke="#fc6d26"/><path d="m53.8644472 105.05h25.8729506" stroke="#000" stroke-opacity=".4"/><path d="m54.0839329 120.845835h50.2817471" stroke="#fc6d26"/><path d="m209.995807 16.89479c-22.465015-10.74205-50.183954-6.80405-68.790524 11.82335-18.60712 18.62685-22.540833 46.376-11.810478 68.8655" stroke="#251b3f"/><path d="m157.885323 126.10521c22.465015 10.74205 50.183953 6.80405 68.790524-11.82335 18.60712-18.62685 22.540832-46.376 11.810477-68.8655" stroke="#251b3f"/><path d="m223.641229 93.41783c9.511234-17.24635 6.963111-39.3767-7.649313-54.00395-14.611874-14.62835-36.71758-17.1798-53.945154-7.65765" stroke="#000" stroke-opacity=".3"/><path d="m144.2399 49.58217c-9.511233 17.24635-6.96311 39.3767 7.649313 54.00395 14.611874 14.62835 36.717581 17.1798 53.945154 7.65765" stroke="#000" stroke-opacity=".3"/><path d="m238.682735 11.429165h94.233294" stroke="#000" stroke-opacity=".4"/><path d="m276.547411 27.621385h8.966227" stroke="#251b3f"/><path d="m338.629746 27.621385h17.756647" stroke="#fc6d26"/><path d="m295.227052 27.621385h33.689281" stroke="#000" stroke-opacity=".3"/><path d="m363.228855 114.95h-57.504724c-1.93664 0-3.506828-1.57135-3.506828-3.51065v-49.65895c0-1.9382 1.570188-3.5101 3.506828-3.5101h57.504724c1.936639 0 3.506828 1.5719 3.506828 3.5101v49.65895c0 1.9393-1.570189 3.51065-3.506828 3.51065z" stroke="#251b3f"/><path d="m310.234769 107.327h48.483557v-41.43315h-48.483557z" stroke="#000" stroke-opacity=".4"/></g><path d="m317.474009 95.280515c0-7.8903 9.224996-9.29445 9.224996-12.3728 0-1.49435-1.194398-2.1219-2.299244-2.1219-.95486 0-1.76138.50765-2.268478 1.04555-.746087.71775-1.52294 1.01695-2.328362.3586l-1.164731-.9262c-.835089-.6578-1.044961-1.40415-.418643-2.21155 1.04551-1.375 3.105215-3.1977 6.658742-3.1977 3.492544 0 7.282862 2.002 7.282862 6.545 0 6.66435-8.626697 7.94915-8.895904 10.69915h7.583385c1.074079 0 1.641611.5676 1.641611 1.6434v1.1957c0 1.0758-.567532 1.64395-1.641611 1.64395h-11.612693c-1.016392 0-1.76193-.56815-1.76193-1.64395z" fill="#fca326"/><path d="m334.909971 95.280515c0-7.8903 9.224446-9.29445 9.224446-12.3728 0-1.49435-1.194399-2.1219-2.298695-2.1219-.955409 0-1.76193.50765-2.267928 1.04555-.747186.71775-1.52294 1.01695-2.329461.3586l-1.163632-.9262c-.836189-.6578-1.044961-1.40415-.418644-2.21155 1.045511-1.375 3.105216-3.1977 6.657644-3.1977 3.492543 0 7.284511 2.002 7.284511 6.545 0 6.66435-8.628346 7.94915-8.895905 10.69915h7.581737c1.075178 0 1.642709.5676 1.642709 1.6434v1.1957c0 1.0758-.567531 1.64395-1.642709 1.64395h-11.612693c-1.015294 0-1.76138-.56815-1.76138-1.64395z" fill="#fca326"/><path d="m314.725959 56.754225v-2.63615c0-.72765.589508-1.3178 1.316366-1.3178h2.63328c.727956 0 1.317464.59015 1.317464 1.3178v2.63615z" fill="#251b3f"/><path d="m348.959972 56.754225v-2.63615c0-.72765.589508-1.3178 1.316915-1.3178h2.63328c.727407 0 1.316914.59015 1.316914 1.3178v2.63615z" fill="#251b3f"/><path d="m41.839868 64.57825-13.7861243-4.48415 16.7973922-51.75445 13.7861243 4.48415z" fill="#fca326"/><path d="m41.839868 64.57825-13.7861243-4.48415 16.7973922-51.75445 13.7861243 4.48415z" stroke="#251b3f" stroke-linecap="round" stroke-linejoin="round" stroke-width="4.4"/><path d="m30.187618 77-2.1327755-16.90535 13.7839267 4.4836z" stroke="#251b3f" stroke-linecap="round" stroke-linejoin="round" stroke-width="4.4"/><path d="m31.5987 73.886395-.9021168-4.34115 3.6579132 1.1902z" fill="#251b3f"/><path d="m58.6373701 12.82402-13.7861243-4.48415 2.1399177-6.09345c.6510404-1.86835 3.0491766-2.7445 5.3561122-1.95745l5.221509 1.78035c2.3069357.7865 3.6496722 2.93865 2.9986318 4.80645z" stroke="#251b3f" stroke-linecap="round" stroke-linejoin="round" stroke-width="4.4"/><path d="m49.504674 17.482355-12.3164761 37.9478" stroke="#000" stroke-linecap="round" stroke-linejoin="round" stroke-opacity=".3" stroke-width="4.4"/><path d="m15.155287 21.82598-12.81258535 12.826-1.2812036 1.2826c-1.41525748 1.41735-1.41525748 3.7136 0 5.1304l1.2812036 1.28315 12.81258535 12.826c1.4147081 1.4168 3.7095569 1.4168 5.1248143 0 1.4147081-1.41625 1.4147081-3.7136 0-5.1304l-11.53138169-11.54395 11.53138169-11.5434c1.4147081-1.4168 1.4147081-3.71415 0-5.1304-1.4152574-1.4168-3.7101062-1.4168-5.1248143 0z" stroke="#000" stroke-linecap="round" stroke-linejoin="round" stroke-opacity=".3" stroke-width="4.4"/><path d="m73.6300343 55.17402 12.8125853-12.826 1.2812036-1.2826c1.4152575-1.41735 1.4152575-3.7136 0-5.1304l-1.2812036-1.28315-12.8125853-12.826c-1.4147081-1.4168-3.7095569-1.4168-5.1248144 0-1.4147081 1.41625-1.4147081 3.7136 0 5.1304l11.5313817 11.54395-11.5313817 11.5434c-1.4147081 1.4168-1.4147081 3.71415 0 5.1304 1.4152575 1.4168 3.7101063 1.4168 5.1248144 0z" stroke="#000" stroke-linecap="round" stroke-linejoin="round" stroke-opacity=".3" stroke-width="4.4"/></g></svg>