<svg xmlns="http://www.w3.org/2000/svg" viewBox="0 0 100 100" enable-background="new 0 0 100 100"><defs><linearGradient id="0" gradientUnits="userSpaceOnUse" x1="2" x2="98"><stop stop-color="#e14429"/><stop offset="1" stop-color="#f9a127"/></linearGradient></defs><switch><g><path fill="#333" d="m52.875 63.13l5.625-8.07-10.812-17.81-7.588 4.608z"/><g><path d="m77.18 83.76c-7.03-.055-13.733-4.077-17.506-10.497l-8.05-14.389c-.454-.772-.583-1.697-.352-2.585s.795-1.633 1.588-2.097c.526-.309 1.127-.472 1.736-.472 1.216 0 2.353.649 2.967 1.695l8.06 14.389c2.544 4.329 6.997 7.05 11.611 7.087l.125.001c8.146 0 14.779-6.623 14.779-14.764v-24.26c0-8.141-6.634-14.764-14.787-14.764-4.04.025-7.892 2.374-10.14 6.131l-26.25 43.851c-2.913 4.865-7.226 8.343-12.146 9.792-1.985.586-4.053.883-6.143.883-11.943 0-21.661-9.703-21.661-21.631v-24.26c0-11.928 9.718-21.631 21.662-21.631h.161c7.01.054 13.694 4.062 17.455 10.463l9.08 15.334c.467.793.596 1.717.364 2.604-.231.889-.795 1.634-1.588 2.099-.528.31-1.129.473-1.737.473-1.215 0-2.352-.649-2.967-1.695l-9.08-15.335c-2.545-4.33-6.979-7.04-11.573-7.07l-.124-.001c-8.146 0-14.779 6.623-14.779 14.764v24.26c0 8.141 6.634 14.764 14.787 14.764 1.428 0 2.841-.202 4.198-.602 3.257-.961 6.166-3.352 8.188-6.73l26.25-43.851c3.475-5.805 9.568-9.435 15.904-9.474h.137c11.945-.001 21.663 9.702 21.663 21.63v24.26c0 11.928-9.718 21.631-21.662 21.631h-.162" fill="#fff"/><path d="m77.34 17.238c11.394 0 20.663 9.255 20.663 20.631v24.26c0 11.375-9.269 20.63-20.662 20.63h-.162c-6.67-.051-13.05-3.884-16.644-10l-8.04-14.37c-.681-1.16-.292-2.651.869-3.331.387-.227.812-.335 1.231-.335.836 0 1.651.43 2.105 1.203l8.04 14.37c2.732 4.649 7.513 7.562 12.476 7.6h.124c8.705 0 15.788-7.07 15.788-15.763v-24.26c0-8.692-7.082-15.763-15.787-15.763h-.092c-4.303.026-8.479 2.562-10.906 6.617l-26.25 43.85c-2.782 4.648-6.891 7.968-11.569 9.347-1.895.559-3.867.842-5.86.842-11.394 0-20.663-9.255-20.663-20.631v-24.26c0-11.375 9.269-20.63 20.663-20.63h.161c6.651.051 13.01 3.871 16.593 9.969l9.08 15.337c.681 1.159.292 2.651-.869 3.331-.387.227-.812.335-1.231.335-.837 0-1.651-.43-2.105-1.203l-9.08-15.337c-2.72-4.629-7.481-7.528-12.426-7.565h-.124c-8.705 0-15.788 7.07-15.788 15.763v24.26c0 8.692 7.082 15.763 15.788 15.763 1.526 0 3.03-.216 4.479-.643 3.5-1.032 6.613-3.58 8.765-7.176l26.25-43.85c3.296-5.506 9.06-8.95 15.05-8.987h.131m0-2h-.13c-6.695.042-13.11 3.858-16.768 9.96l-10.01 16.724c-.061-.132-.129-.263-.204-.39l-9.09-15.343c-3.935-6.696-10.948-10.894-18.299-10.95h-.17c-12.502-.001-22.669 10.151-22.669 22.63v24.26c0 12.479 10.167 22.63 22.663 22.63 2.185 0 4.347-.311 6.426-.923 5.162-1.522 9.679-5.158 12.719-10.238l8.743-14.607c.063.139.134.275.212.408l8.02 14.334c3.971 6.758 11 10.97 18.373 11.03h.171c12.503 0 22.669-10.152 22.669-22.631v-24.26c0-12.479-10.167-22.631-22.663-22.631zm-23.04 37.493l13.757-22.981c2.071-3.459 5.597-5.622 9.202-5.644h.09c7.592 0 13.777 6.174 13.777 13.763v24.26c0 7.589-6.185 13.763-13.788 13.763h-.116c-4.256-.033-8.382-2.566-10.76-6.613l-8.02-14.333c-.815-1.387-2.282-2.226-3.85-2.226-.096-.001-.193.002-.289.008m-31.636 23.16c-7.603 0-13.788-6.174-13.788-13.763v-24.26c0-7.589 6.185-13.763 13.788-13.763h.116c4.237.032 8.344 2.553 10.709 6.579l9.09 15.343c.791 1.345 2.258 2.184 3.826 2.184.09 0 .18-.003.269-.008l-12.479 20.844c-1.893 3.164-4.597 5.396-7.614 6.285-1.264.373-2.58.562-3.914.562" fill="#333"/></g><path d="m77.34 82.76l-.162-.001c-6.67-.051-13.05-3.884-16.644-10l-8.04-14.37c-.681-1.159-.292-2.651.869-3.331 1.161-.68 2.654-.292 3.336.867l8.04 14.37c2.732 4.649 7.513 7.561 12.476 7.599l.124.001c8.705 0 15.788-7.07 15.788-15.763v-24.26c0-8.692-7.082-15.763-15.787-15.763h-.092c-4.303.027-8.479 2.562-10.906 6.617l-26.25 43.85c-2.782 4.648-6.891 7.968-11.569 9.347-1.895.559-3.867.842-5.86.842-11.394 0-20.663-9.255-20.663-20.631v-24.26c0-11.376 9.269-20.631 20.663-20.631l.161.001c6.651.051 13.01 3.871 16.593 9.969l9.08 15.337c.681 1.159.292 2.651-.869 3.331-1.161.68-2.655.292-3.336-.867l-9.08-15.337c-2.72-4.629-7.481-7.528-12.426-7.565l-.124-.001c-8.705 0-15.788 7.07-15.788 15.763v24.26c0 8.692 7.082 15.763 15.788 15.763 1.526 0 3.03-.216 4.48-.643 3.5-1.032 6.613-3.58 8.765-7.176l26.25-43.85c3.296-5.507 9.06-8.95 15.05-8.987h.13c11.394 0 20.663 9.255 20.663 20.631v24.26c0 11.376-9.269 20.631-20.662 20.631" fill="url(#0)"/></g></switch></svg>