<svg viewBox="0 0 1115 324" xmlns="http://www.w3.org/2000/svg" xmlns:xlink="http://www.w3.org/1999/xlink"><g fill="none" fill-rule="evenodd"><g stroke-width="2"><g fill="#fff" stroke="#e04733"><rect x="571" y="98" width="191" height="75" rx="4.03"/><rect x="344" y="41" width="191" height="239" rx="4.03"/><rect x="21" y="21" width="287" height="259" rx="4.03"/><path d="m798 24.03v144.93c0 1.68 1.353 3.033 3.03 3.033h289.94c1.671 0 3.03-1.359 3.03-3.033v-144.93c0-1.68-1.353-3.033-3.03-3.033h-289.94c-1.671 0-3.03 1.359-3.03 3.033"/></g><g transform="translate(929 55)" stroke="#e14329" stroke-linecap="round" stroke-linejoin="round"><path d="m7.118 15.201c.931-5.759 3.349-9.93 8.237-14.92.341-.348.909-.386 1.25-.039 6.287 6.418 8.729 12.468 8.749 21.65-.019 2.223-.152 4.64-.361 7.172l6.799 7.713c.17.213.246.522.189.812l-3.03 11.753c-.038.155-.114.271-.227.387-.151.154-.36.251-.606.27h-2.424c-.321-.019-.605-.193-.757-.464l-3.617-6.978h-10.642l-3.617 6.978c-.038.078-.095.136-.152.194-.151.154-.378.27-.605.27h-2.423c-.398-.019-.739-.29-.833-.657l-3.03-11.753c-.057-.291.019-.599.189-.812l6.798-7.713"/><path d="m9.495 16.728c1.563 1.583 1.563 4.15 0 5.732-1.562 1.584-4.095 1.584-5.656 0-1.563-1.582-1.563-4.149 0-5.732 1.561-1.584 4.094-1.584 5.656 0"/></g></g><g fill="#e04733"><g font-family="SourceSansPro-Bold, Source Sans Pro" font-weight="bold" font-size="10"><text><tspan x="853.61" y="122">REVIEW</tspan></text><text><tspan x="924.87" y="122">STAGING</tspan></text><text><tspan x="988.6" y="122">PRODUCTION</tspan></text><text><tspan x="595.88" y="156">BUILD</tspan></text><text><tspan x="629.49" y="122">UNIT TEST</tspan></text><text><tspan x="664.14" y="156">INTEGRATION TESTS</tspan></text></g><g transform="translate(615 77)"><text font-family="SourceSansPro-Bold, Source Sans Pro" font-size="10" font-weight="bold"><tspan x="38.3" y="10.452">TEST</tspan></text><g font-family="SourceSansPro-Semibold, Source Sans Pro" font-weight="500" font-size="20"><text><tspan x=".523" y="119.95">CI PIPELINE</tspan></text><text><tspan x="276.95" y="118.95">CD PIPELINE</tspan></text></g></g><g font-family="SourceSansPro-Bold, Source Sans Pro" font-weight="bold" font-size="10"><text transform="translate(459 248)"><tspan x="19.955" y="10">MERGE </tspan><tspan x="14.65" y="23">REQUEST</tspan></text><text><tspan x="475.26" y="122">COMMIT</tspan></text></g></g><g stroke-width="2"><g stroke="#e0513e" stroke-linecap="square"><path d="m422 136h67"/><path d="m497 136h72"/><path d="m77 136h285"/><path d="m764 136h34"/><g stroke-dasharray="2.68597 2.68597"><path d="m799 136h67"/><path d="m875 136h67"/></g></g><circle stroke="#e04733" fill="#fff" cx="871" cy="136" r="3"/><path d="m951 136h67" stroke="#e0513e" stroke-linecap="square" stroke-dasharray="2.68597 2.68597"/><circle stroke="#e04733" fill="#fff" cx="947" cy="136" r="3"/><path d="m1026 136h67" stroke="#e0513e" stroke-linecap="square" stroke-dasharray="2.68597 2.68597"/><circle stroke="#e04733" fill="#fff" cx="1022" cy="136" r="3"/><g stroke="#e0513e" stroke-linecap="square"><g stroke-dasharray="2.68597 2.68597"><path d="m572 136h34"/><path d="m613 136h34"/><path d="m656 136h34"/><path d="m728 136h34"/></g><path d="m691.33 136h27.674" stroke-dasharray="0.671493"/><path d="m493 140v34"/><path d="m73 140v34"/><path d="m257 113.5v19.5"/></g><g fill="#fff" stroke="#e04733"><circle cx="722" cy="136" r="3"/><circle cx="709" cy="136" r="3"/><circle cx="694" cy="136" r="3"/><circle cx="652" cy="136" r="3"/><circle cx="609" cy="136" r="3"/><circle cx="493" cy="136" r="3"/><circle cx="257" cy="136" r="3"/><circle cx="257" cy="113" r="3"/><circle cx="73" cy="136" r="3"/><circle cx="493" cy="177" r="3"/><circle cx="73" cy="177" r="3"/></g></g><g fill="#e04733" font-family="SourceSansPro-Bold, Source Sans Pro" font-weight="bold" font-size="10"><text transform="translate(349 165)"><tspan x="23.255" y="10.333">CODE</tspan></text><text><tspan x="240.59" y="217">ISSUES</tspan></text></g><g transform="translate(233 150)" stroke="#e24329" stroke-linecap="round" stroke-linejoin="round" stroke-width="2"><path d="m13.348 30.727c-.569-.878-1.031-1.837-1.372-2.846-.398-1.211-.62-2.509-.62-3.856 0-1.691.343-3.305.963-4.763l.016-.04c.637-1.5 1.575-2.863 2.735-3.999 1.174-1.147 2.569-2.077 4.113-2.703 1.483-.609 3.124-.946 4.845-.946 1.721 0 3.353.337 4.845.946 1.542.626 2.937 1.555 4.113 2.703 2.285 2.251 3.703 5.363 3.703 8.803.001 1.347-.218 2.645-.619 3.865-.416 1.258-1.037 2.427-1.811 3.47-1.443 1.939-2.594 3.191-3.492 4.168-1.786 1.947-2.659 3.175-2.797 5.805h-7.827"/><path d="m11.84 33.745c0 1.841 1.492 3.333 3.333 3.333 1.841 0 3.333-1.492 3.333-3.333 0-1.841-1.493-3.333-3.333-3.333-1.841 0-3.333 1.492-3.333 3.333"/><path d="m22.667 49.33h2.667"/><path d="m21.333 46.667h5.333"/><path d="m24 0v5.333"/><path d="m8.781 5.448l3.771 3.771"/><path d="m0 22h5.333"/><path d="m39.22 5.448l-3.771 3.771"/><path d="m48 22h-5.333"/><path d="m20.667 44h6.667"/></g><g font-family="SourceSansPro-Bold, Source Sans Pro" fill="#e04733" font-weight="bold" font-size="10"><text><tspan x="59.59" y="122">EPICS</tspan></text><text><tspan x="47.54" y="258">ROADMAPS</tspan></text><text><tspan x="228.03" y="102">MILESTONES</tspan></text></g><g stroke-width="2"><circle stroke="#e04733" fill="#fff" cx="418" cy="136" r="3"/><g transform="translate(467 55)" stroke="#e14329" stroke-linecap="round" stroke-linejoin="round"><path d="m31.757 25h8.911"/><g><path d="m31.757 25c0 3.731-3.03 6.757-6.757 6.757-3.731 0-6.757-3.03-6.757-6.757 0-3.731 3.03-6.757 6.757-6.757 3.731 0 6.757 3.03 6.757 6.757"/><path d="m48.18 15.624c1.172 2.895 1.818 6.06 1.818 9.376 0 13.807-11.193 25-25 25-13.807 0-25-11.193-25-25 0-13.807 11.193-25 25-25 5.616 0 10.8 1.852 14.974 4.978"/><path d="m44.956 5.04c1.32 1.32 1.32 3.459 0 4.778-1.319 1.32-3.458 1.32-4.777 0-1.32-1.319-1.32-3.458 0-4.778 1.319-1.32 3.458-1.32 4.777 0"/><path d="m9.06 25h8.911"/></g></g><g stroke-linejoin="round" stroke-linecap="round"><g stroke="#e14329"><g transform="translate(362 108)"><path d="m36.402 7h5.399c1.215 0 2.199.963 2.199 2.15v38.7c0 1.187-.985 2.15-2.199 2.15h-39.601c-1.215 0-2.2-.963-2.2-2.15v-38.7c0-1.187.985-2.15 2.2-2.15h10.1" id="0"/><path d="m11 20l9 9-9 9" id="1"/><path d="m25 38h8" id="2"/><path d="m36 7c0 3.866-3.135 7-7 7-3.865 0-7-3.134-7-7 0-3.866 3.135-7 7-7 3.865 0 7 3.134 7 7" id="3"/></g><g transform="translate(472 191)"><use xlink:href="#0"/><use xlink:href="#1"/><use xlink:href="#2"/><use xlink:href="#3"/></g></g><g transform="translate(639 21)"><g stroke="#e24329"><path d="m4.054 7.302l1.645 1.481"/><path d="m9.459 4.73l-3.761 4.054"/></g><g stroke="#e14329"><path d="m50 4h-29.73"/><path d="m36.486 8h-16.216"/></g><g><path d="m13.514 6.757c0 3.732-3.03 6.757-6.757 6.757-3.731 0-6.757-3.03-6.757-6.757 0-3.732 3.03-6.757 6.757-6.757 3.731 0 6.757 3.02 6.757 6.757" stroke="#e14329"/><g stroke="#e24329"><path d="m4.054 25.546l1.645 1.481"/><path d="m9.459 22.973l-3.761 4.054"/></g><g stroke="#e14329"><path d="m50 22h-29.73"/><path d="m36.486 27h-16.216"/><path d="m13.514 25c0 3.731-3.03 6.757-6.757 6.757-3.731 0-6.757-3.03-6.757-6.757 0-3.731 3.03-6.757 6.757-6.757 3.731 0 6.757 3.03 6.757 6.757"/></g><g stroke="#e24329"><path d="m4.054 43.789l1.645 1.481"/><path d="m9.459 41.22l-3.761 4.054"/></g><g stroke="#e14329"><path d="m13.514 43.24c0 3.731-3.03 6.757-6.757 6.757-3.731 0-6.757-3.03-6.757-6.757 0-3.731 3.03-6.757 6.757-6.757 3.731 0 6.757 3.03 6.757 6.757"/><path d="m50 41h-29.73"/><path d="m36.486 45h-16.216"/></g></g></g><g transform="translate(846 55)"><g stroke="#e14329"><path d="m48.18 15.624c1.172 2.895 1.818 6.06 1.818 9.376 0 13.807-11.193 25-25 25-13.807 0-25-11.193-25-25 0-13.807 11.193-25 25-25 5.616 0 10.8 1.852 14.974 4.978"/><path d="m44.956 5.04c1.32 1.32 1.32 3.459 0 4.778-1.319 1.32-3.458 1.32-4.777 0-1.32-1.319-1.32-3.458 0-4.778 1.319-1.32 3.458-1.32 4.777 0"/></g><g stroke="#e24329"><path d="m17.11 31.3l-8.547-4.949 8.547-4.95"/><path d="m32.887 21.401l8.553 4.95-8.553 4.949"/><path d="m21.18 37.578l7.644-22.453"/></g></g><g transform="translate(994 55)" stroke="#e14329"><path d="m18.229 11.435c.709-4.332 2.553-7.47 6.28-11.224.26-.262.693-.291.953-.029 4.793 4.828 6.655 9.379 6.67 16.286-.014 1.672-.116 3.49-.274 5.395l5.183 5.801c.13.16.187.393.145.611l-2.31 8.841c-.029.117-.086.204-.173.291-.116.116-.274.189-.462.204h-1.848c-.245-.015-.462-.146-.578-.349l-2.757-5.507h-8.113l-2.757 5.507c-.029.058-.072.101-.116.145-.116.116-.289.204-.462.204h-1.848c-.303-.015-.563-.219-.635-.495l-2.31-8.841c-.043-.218.015-.451.145-.611l5.183-5.801"/><path d="m20.632 12.476c1.32 1.32 1.32 3.459 0 4.778-1.319 1.32-3.458 1.32-4.777 0-1.32-1.319-1.32-3.458 0-4.778 1.319-1.32 3.458-1.32 4.777 0"/><path d="m0 50c0-2.612 2.118-4.73 4.73-4.73 1.336 0 2.541.556 3.401 1.447 1.26-2.841 4.102-4.826 7.41-4.826 2.173 0 4.142.859 5.597 2.251l1.835-12.386h4.054l1.835 12.386c1.455-1.392 3.424-2.251 5.597-2.251 3.308 0 6.15 1.984 7.41 4.826.86-.891 2.064-1.447 3.401-1.447 2.612 0 4.73 2.118 4.73 4.73h-23.649-2.703-23.649"/></g></g></g><g font-family="SourceSansPro-Semibold, Source Sans Pro" fill="#e04733" font-weight="500" font-size="20"><text><tspan x="421.34" y="304">SCM</tspan></text><text><tspan x="142.02" y="304">PLAN</tspan></text></g><g transform="translate(232 35)" stroke="#e14329" stroke-linejoin="round" stroke-width="2"><g stroke-linecap="round"><path d="m10 5c0-2.762-2.238-5-5-5-2.762 0-5 2.238-5 5 0 2.762 2.238 5 5 5 2.762 0 5-2.238 5-5"/><path d="m0 50l23.71-26.25c.712-.713 1.868-.713 2.58 0l23.71 26.25h-50"/></g><path d="m25 23.333v-10"/><g stroke-linecap="round"><path d="M46.667 13.333 25 13.333 25 0 46.667 0 40 6.667z"/><path d="m17.08 31.667h15.763"/></g></g><g stroke="#e14329" stroke-linejoin="round" stroke-linecap="round" stroke-width="2"><g transform="translate(48 55)"><path d="m5.959 14.671h35.757"/><path d="m13.574 26h7.284"/><path d="m28.15 26h7.284"/><path d="m13.574 39.34h7.284"/><path d="m28.15 39.34h7.284"/><path d="m13.246 26.01c0-1.841-1.482-3.333-3.311-3.333-1.828 0-3.311 1.492-3.311 3.333 0 1.841 1.483 3.333 3.311 3.333 1.829 0 3.311-1.493 3.311-3.333"/><path d="m27.811 26.01c0-1.841-1.482-3.333-3.311-3.333-1.828 0-3.311 1.492-3.311 3.333 0 1.841 1.483 3.333 3.311 3.333 1.829 0 3.311-1.493 3.311-3.333"/><path d="m29.14 4c0-2.209-1.779-4-3.973-4-2.194 0-3.973 1.791-3.973 4 0 2.209 1.779 4 3.973 4 2.194 0 3.973-1.791 3.973-4"/><path d="m42.39 26.01c0-1.841-1.483-3.333-3.311-3.333-1.829 0-3.311 1.492-3.311 3.333 0 1.841 1.482 3.333 3.311 3.333 1.828 0 3.311-1.493 3.311-3.333"/><path d="m13.246 39.34c0-1.841-1.482-3.333-3.311-3.333-1.828 0-3.311 1.493-3.311 3.333 0 1.841 1.483 3.333 3.311 3.333 1.829 0 3.311-1.492 3.311-3.333"/><path d="m27.811 39.34c0-1.841-1.482-3.333-3.311-3.333-1.828 0-3.311 1.493-3.311 3.333 0 1.841 1.483 3.333 3.311 3.333 1.829 0 3.311-1.492 3.311-3.333"/><path d="m42.39 39.34c0-1.841-1.483-3.333-3.311-3.333-1.829 0-3.311 1.493-3.311 3.333 0 1.841 1.482 3.333 3.311 3.333 1.828 0 3.311-1.492 3.311-3.333"/><path d="m33.77 4h12.6c1.453 0 2.63 1.185 2.63 2.647v40.04c0 1.462-1.177 2.648-2.63 2.648h-43.74c-1.452 0-2.629-1.186-2.629-2.648v-40.04c0-1.462 1.177-2.647 2.629-2.647h18.56"/></g><g transform="translate(46 191)"><path d="m7.162 3.571c0-1.972-1.603-3.571-3.581-3.571-1.978 0-3.581 1.599-3.581 3.571 0 1.972 1.603 3.571 3.581 3.571 1.978 0 3.581-1.599 3.581-3.571"/><path d="m53 1.429h-38.676"/><path d="m39.39 5.714h-25.07"/><path d="m53 15.714h-38.676"/><path d="m38.676 20h-24.351"/><path d="m53 30h-38.676"/><path d="m38.676 34.29h-24.351"/><path d="m53 44.29h-38.676"/><path d="m38.676 48.571h-24.351"/><path d="m7.162 17.857c0-1.973-1.603-3.571-3.581-3.571-1.978 0-3.581 1.599-3.581 3.571 0 1.973 1.603 3.571 3.581 3.571 1.978 0 3.581-1.599 3.581-3.571"/><path d="m7.162 32.14c0-1.973-1.603-3.571-3.581-3.571-1.978 0-3.581 1.599-3.581 3.571 0 1.973 1.603 3.571 3.581 3.571 1.978 0 3.581-1.599 3.581-3.571"/><path d="m7.162 46.43c0-1.973-1.603-3.571-3.581-3.571-1.978 0-3.581 1.599-3.581 3.571 0 1.973 1.603 3.571 3.581 3.571 1.978 0 3.581-1.599 3.581-3.571"/><path d="m3.581 35.714v7.143"/><path d="m3.581 21.429v7.143"/><path d="m3.581 7.143v7.143"/></g></g></g></svg>