<svg enable-background="new 0 0 360 360" viewBox="0 0 320 88" xmlns="http://www.w3.org/2000/svg"><g transform="translate(-19.4 -136.199997)"><g fill="#365362"><path d="m190.7 136.2h-9.8v19.2c-2.7-1.5-5.9-2.4-9.2-2.4-10.5 0-19 8.5-19 19s8.5 19 19 19h7.1v-9.8h-7.1c-5.1 0-9.2-4.1-9.2-9.2s4.1-9.2 9.2-9.2 9.2 4.1 9.2 9.2h9.8v-.1z"/><path d="m25.3 159c-3.3 3.2-5.9 7.9-5.9 13.9 0 6.4 2.9 10.9 5.5 13.5 3.2 3.2 7.8 5.3 13.7 5.3 3.2 0 6-.5 9-2.1v-10.3c-2.6 2.2-5.3 2.8-7.3 2.8-2.5 0-5.2-1-6.9-2.9-1.4-1.5-2.4-3.7-2.4-6.3 0-2.9 1.1-5.2 2.6-6.7.8-.8 2.9-2.5 6.5-2.5 1.8 0 4.7.4 7.4 2.7v-10.4c-3-1.4-5.9-2-9-2-4.6 0-9.3 1.3-13.2 5z"/><path d="m53.6 136.2h10.8v54.9h-10.8z"/><path d="m88.3 154c-6.3 0-11.3 2.5-14.2 5.7-3.3 3.6-4.9 8.6-4.9 13.2 0 4.5 1.6 9.6 4.9 13.2 2.9 3.2 7.9 5.7 14.2 5.7s11.3-2.5 14.2-5.7c3.3-3.6 4.9-8.6 4.9-13.2 0-4.5-1.6-9.6-4.9-13.2-2.9-3.1-7.8-5.7-14.2-5.7zm5.9 25.5c-1.5 1.7-3.5 2.5-5.8 2.5-2.8 0-4.7-1.1-6-2.5-1.2-1.3-2.4-3.4-2.4-6.7 0-2.9.9-5 2.4-6.7s3.5-2.5 5.9-2.5 4.4.9 5.9 2.5c1.5 1.7 2.4 3.8 2.4 6.7s-.8 5.1-2.4 6.7z"/><path d="m136.8 174.2c0 1.7-.2 4.1-1.9 5.7-1 1-2.7 1.7-4.8 1.7-2.5 0-4-1-4.8-1.7-1.8-1.7-2-4.1-2-5.7v-19.5h-11.4v21.3c0 3.9.6 7.4 3.9 10.6 4 4 9.9 5.1 14.3 5.1 4.2 0 10.1-1.1 14.2-5.1 3.6-3.5 4-7.3 4-11.3v-20.6h-11.4v19.5z"/></g><g fill="#0097b5"><g><path d="m199.9 224.1c-10.5 0-19-8.5-19-19v-31h9.8v31c0 5.1 4.1 9.2 9.2 9.2s9.2-4.1 9.2-9.2-4.1-9.2-9.2-9.2h-7.1v-9.8h7.1c10.5 0 19 8.5 19 19s-8.5 19-19 19z"/><path d="m260.4 206.8h-26.3c0 1.9.7 4.4 2.1 6 1.7 1.9 4.1 2.2 5.9 2.2 1.7 0 3.4-.3 4.6-1 .2-.1 1.5-.9 2.5-2.9l10.8 1.1c-1.6 5-4.7 7.6-6.8 8.9-3.4 2.1-7.2 3.1-11.1 3.1-5.3 0-10-1.5-14.1-5.6-3.1-3.1-5.3-7.7-5.3-13.6 0-5.1 1.8-10.3 5.4-13.9 4.3-4.3 9.6-5.1 13.5-5.1 4 0 9.6.7 14 5.3 4.2 4.4 5 10 5 14.3v1.2zm-10.5-6.8c-.1-.3-.6-2.5-2.3-4.1-1.3-1.2-3.1-2-5.4-2-2.9 0-4.7 1.2-5.8 2.3-.9.9-1.7 2.2-2 3.8z"/><path d="m301.9 206.8h-26.3c0 1.9.7 4.4 2.1 6 1.7 1.9 4.1 2.2 5.9 2.2 1.7 0 3.4-.3 4.6-1 .2-.1 1.5-.9 2.5-2.9l10.8 1.1c-1.6 5-4.7 8.1-6.8 9.4-3.4 2.1-7.2 2.6-11.1 2.6-5.3 0-10-1.5-14.1-5.6-3.1-3.1-5.3-7.7-5.3-13.6 0-5.1 1.8-10.3 5.4-13.9 4.3-4.3 9.6-5.1 13.5-5.1 4 0 9.6.7 14 5.3 4.2 4.4 5 10 5 14.3v1.2zm-10.5-6.8c-.1-.3-.6-2.5-2.3-4.1-1.3-1.2-3.1-2-5.4-2-2.9 0-4.7 1.2-5.8 2.3-.9.9-1.7 2.2-2 3.8z"/><path d="m327 196.7c-1.7-1-4-2-6.2-2-1.2 0-2.5.3-3.2 1-.4.4-.7 1-.7 1.6 0 .8.6 1.3 1.1 1.6.8.5 2 .7 3.4 1.2l3 .9c2 .6 4 1.4 5.9 3.1 2.1 1.9 2.8 4 2.8 6.7 0 4.7-2.1 7.7-3.6 9.3-3.5 3.5-7.7 4-11.5 4-4.7 0-9.9-1-14.5-5.1l4.8-7.7c1.1.9 2.7 2.1 3.9 2.6 1.6.8 3.2 1.1 4.7 1.1.7 0 2.5 0 3.6-.8.7-.6 1.2-1.4 1.2-2.3 0-.6-.2-1.4-1.3-2.1-.8-.5-1.8-.8-3.5-1.3l-2.8-.9c-2.1-.6-4.2-1.7-5.7-3.2-1.7-1.7-2.5-3.7-2.5-6.4 0-3.4 1.3-6.2 3.4-8.1 3.2-2.9 7.4-3.6 10.7-3.6 5.2 0 8.9 1.3 11.7 3z"/></g><path d="m333.4 220.9c0-.3 0-.6.1-.8.1-.3.2-.5.3-.7s.3-.4.5-.6.4-.3.6-.5c.2-.1.5-.2.7-.3s.5-.1.8-.1.6 0 .8.1c.3.1.5.2.7.3s.4.3.6.5.3.4.5.6c.1.2.2.5.3.7.1.3.1.5.1.8s0 .6-.1.8c-.1.3-.2.5-.3.7s-.3.4-.5.6-.4.3-.6.5c-.2.1-.5.2-.7.3-.3.1-.5.1-.8.1s-.6 0-.8-.1-.5-.2-.7-.3-.4-.3-.6-.5-.3-.4-.5-.6c-.1-.2-.2-.5-.3-.7-.1-.3-.1-.6-.1-.8zm.5 0c0 .4.1.7.2 1s.3.6.6.8c.2.2.5.4.8.6.3.1.7.2 1 .2.4 0 .7-.1 1-.2s.6-.3.8-.6c.2-.2.4-.5.6-.8.1-.3.2-.7.2-1 0-.4-.1-.7-.2-1s-.3-.6-.6-.9c-.2-.2-.5-.4-.8-.6-.3-.1-.7-.2-1-.2-.4 0-.7.1-1 .2s-.6.3-.8.6c-.2.2-.4.5-.6.9-.2.2-.2.6-.2 1zm2 .4v1.5h-.7v-3.8h1.2c.5 0 .9.1 1.1.3s.4.4.4.8c0 .3-.1.5-.2.7s-.4.3-.7.4c0 0 .1.1.1.1s.1.1.1.2l.9 1.4h-.7c-.1 0-.2 0-.2-.1l-.8-1.2s-.1-.1-.1-.1-.1 0-.2 0h-.2zm0-.6h.5.4c.1 0 .2-.1.3-.1.1-.1.1-.1.1-.2s0-.2 0-.3 0-.2 0-.3-.1-.1-.1-.2c-.1-.1-.1-.1-.2-.1s-.2 0-.4 0h-.5v1.2z"/></g></g></svg>