<svg xmlns="http://www.w3.org/2000/svg" viewBox="0 0 60 55" enable-background="new 0 0 60 55"><path d="m59.884 31.569l-3.362-10.279-6.65-20.389c-.341-1.042-1.827-1.042-2.181 0l-6.65 20.376h-22.1l-6.65-20.376c-.341-1.042-1.827-1.042-2.181 0l-6.638 20.377-3.361 10.29c-.304.934.025 1.964.829 2.546l29.05 21.01 29.05-21.01c.804-.582 1.145-1.612.84-2.546" fill="#fc6d26"/><path d="m30 55.11l11.05-33.829h-22.1l11.05 33.829" fill="#e24329"/><path d="m29.992 55.11l-11.05-33.828h-15.47l26.518 33.828" fill="#fc6d26"/><path d="m3.47 21.289l-3.361 10.278c-.304.933.025 1.964.829 2.546l29.05 21.01-26.518-33.83" fill="#fca326"/><path d="M3.474,21.289h15.482L12.294,0.913c-0.341-1.043-1.827-1.043-2.181,0L3.474,21.289" fill="#e24329"/><path d="M30,55.107l11.048-33.829h15.482L30,55.107z" fill="#fc6d26"/><path d="m56.52 21.289l3.362 10.279c.304.933-.024 1.964-.829 2.546l-29.05 20.993 26.518-33.818" fill="#fca326"/><path d="m56.53 21.289h-15.482l6.65-20.376c.341-1.043 1.827-1.043 2.181 0l6.651 20.376" fill="#e24329"/><g fill="#fff"><path d="m13.05 26.875h9.241v3.168h-5.457v2.244h4.665v3.169h-4.665v2.553h5.677v3.168h-9.461v-14.302"/><path d="M25.286,26.875h9.241v3.168H29.07v2.244h4.665v3.169H29.07v2.553h5.678v3.168h-9.462V26.875z"/><path d="m37.519 26.875h5.545c3.081 0 5.721 1.144 5.721 4.752 0 3.499-2.729 5.02-5.721 5.02h-1.76v4.532h-3.785v-14.302m5.369 6.776c1.496 0 2.2-.748 2.2-2.024 0-1.275-.792-1.76-2.2-1.76h-1.584v3.784h1.584"/></g></svg>