<svg xmlns="http://www.w3.org/2000/svg" viewBox="0 0 60 55" enable-background="new 0 0 60 55"><path d="m59.884 31.569l-3.362-10.279-6.65-20.389c-.341-1.042-1.827-1.042-2.181 0l-6.65 20.376h-22.1l-6.65-20.376c-.341-1.042-1.827-1.042-2.181 0l-6.638 20.377-3.361 10.29c-.304.934.025 1.964.829 2.546l29.05 21.01 29.05-21.01c.804-.582 1.145-1.612.84-2.546" fill="#fc6d26"/><path d="m30 55.11l11.05-33.829h-22.1l11.05 33.829" fill="#e24329"/><path d="m29.992 55.11l-11.05-33.828h-15.47l26.518 33.828" fill="#fc6d26"/><path d="m3.47 21.289l-3.361 10.278c-.304.933.025 1.964.829 2.546l29.05 21.01-26.518-33.83" fill="#fca326"/><path d="M3.474,21.289h15.482L12.294,0.913c-0.341-1.043-1.827-1.043-2.181,0L3.474,21.289" fill="#e24329"/><path d="M30,55.107l11.048-33.829h15.482L30,55.107z" fill="#fc6d26"/><path d="m56.52 21.289l3.362 10.279c.304.933-.024 1.964-.829 2.546l-29.05 20.993 26.518-33.818" fill="#fca326"/><path d="m56.53 21.289h-15.482l6.65-20.376c.341-1.043 1.827-1.043 2.181 0l6.651 20.376" fill="#e24329"/><g fill="#fff"><path d="m13.05 26.875h9.241v3.168h-5.457v2.244h4.665v3.169h-4.665v2.553h5.677v3.168h-9.461v-14.302"/><path d="m25.285 26.875h9.241v3.168h-5.457v2.244h4.665v3.169h-4.665v2.553h5.677v3.168h-9.461v-14.302"/><path d="m38.733 36.798c1.013.814 2.288 1.387 3.345 1.387 1.144 0 1.628-.374 1.628-1.013 0-.682-.726-.901-1.937-1.386l-1.782-.748c-1.54-.616-2.882-1.914-2.882-3.982 0-2.442 2.2-4.444 5.324-4.444 1.629 0 3.433.615 4.753 1.914l-1.893 2.376c-.968-.683-1.804-1.034-2.86-1.034-.924 0-1.496.33-1.496.968 0 .683.814.925 2.112 1.431l1.738.682c1.782.704 2.795 1.937 2.795 3.917 0 2.42-2.024 4.576-5.589 4.576-1.805 0-3.873-.66-5.413-2.046l2.157-2.598"/></g></svg>