<svg width="100" height="101" viewBox="0 0 100 101" fill="none" xmlns="http://www.w3.org/2000/svg">
<path d="M98.55 99.0701H1.35999" stroke="#1C1330" stroke-width="2" stroke-linecap="round" stroke-linejoin="round"/>
<path d="M82.74 84.5899C80.29 79.0669 74.768 75.2099 68.336 75.2099C64.112 75.2099 60.286 76.8809 57.456 79.5859L54.699 54.6499H45.199L42.442 79.5859C39.612 76.8809 35.785 75.2099 31.562 75.2099C25.131 75.2099 19.609 79.0669 17.158 84.5899L22.866 96.4369H74.498L82.74 84.5899Z" fill="#FCBA72" stroke="#333333" stroke-width="2" stroke-linecap="round" stroke-linejoin="round"/>
<path d="M74.7 98.8701C74.7 91.2661 80.139 85.1011 86.849 85.1011C93.559 85.1011 98.998 91.2651 98.998 98.8701H74.7Z" fill="#FCD3A7" stroke="#333333" stroke-width="2" stroke-linecap="round" stroke-linejoin="round"/>
<path d="M1 98.872C1 91.268 6.439 85.103 13.149 85.103C19.859 85.103 25.298 91.267 25.298 98.872H1Z" fill="#FCD3A7" stroke="#333333" stroke-width="2" stroke-linecap="round" stroke-linejoin="round"/>
<path d="M23.2729 98.8699C23.2729 92.1599 35.2389 86.7209 49.9999 86.7209C64.7609 86.7209 76.7269 92.1599 76.7269 98.8699H23.2769H23.2729Z" fill="#FCD3A7" stroke="#333333" stroke-width="2" stroke-linecap="round" stroke-linejoin="round"/>
<path d="M56.3999 55.31C59.3869 48.91 60.6669 39.097 60.6669 39.097L60.6579 39.306C60.8859 36.1199 60.9909 33.309 60.9719 30.869C60.8809 25.461 60.0049 20.819 58.3449 16.949C56.6849 13.078 53.9419 9.28295 50.1169 5.56395C49.9179 5.36995 49.6699 5.27895 49.3749 5.28995C49.0799 5.30195 48.8269 5.41495 48.6179 5.62995C44.7189 9.63995 42.0449 13.48 40.5979 17.152C39.1489 20.824 38.4569 25.5 38.5209 31.182C38.5699 33.621 38.7529 36.4289 39.0699 39.6059L39.0149 39.096C39.0149 39.096 40.2949 48.9089 43.2819 55.3089L43.7009 55.4059L44.4419 55.396L43.8819 58.194C43.7779 58.716 44.1769 59.2039 44.7079 59.2039H47.5449C47.5449 59.6649 47.9149 60.047 48.3829 60.047H51.6189C52.0879 60.047 52.4579 59.6649 52.4569 59.2039H55.2939C55.8259 59.2039 56.2249 58.7169 56.1199 58.194L55.5289 55.241L56.4699 55.228L56.4009 55.31H56.3999Z" fill="#CCCCCC" stroke="#333333" stroke-width="2" stroke-linecap="round" stroke-linejoin="round"/>
<path d="M39.0699 39.606L30.7999 49.34L34.7469 64.16H38.9069L43.5999 55.31L40.7729 48L39.0699 39.606Z" fill="#F05133"/>
<path d="M60.9309 39.606L69.1999 49.34L65.2499 64.16H61.0899L56.3999 55.31L59.2299 48L60.9309 39.606Z" fill="#F05133"/>
<path d="M45.7439 3.25097C46.5549 2.41497 48.0719 1.07297 49.2369 1.02597C49.3039 1.02297 49.3629 1.02197 49.4219 1.02197C50.5819 1.02197 52.0999 2.31597 52.9229 3.11697" stroke="#333333" stroke-width="2" stroke-linecap="round" stroke-linejoin="round"/>
<path fill-rule="evenodd" clip-rule="evenodd" d="M68.9419 48.2599L60.6569 39.3069C60.8849 36.1209 60.9899 33.3099 60.9709 30.8699C60.8799 25.4619 60.0039 20.8199 58.3439 16.9499C56.6839 13.0789 53.9409 9.28391 50.1159 5.56491C49.9179 5.37191 49.6699 5.28091 49.3749 5.29191C49.0799 5.30391 48.8269 5.41691 48.6179 5.63191C44.7189 9.64191 42.0449 13.4819 40.5979 17.1539C39.1489 20.8259 38.4569 25.5019 38.5209 31.1839C38.5699 33.6229 38.7529 36.4309 39.0699 39.6079L31.0399 48.7889C30.8319 49.0649 30.7599 49.3839 30.8259 49.7469L34.6549 63.5129C34.7829 63.9959 35.1199 64.2489 35.6649 64.2719L38.5729 64.2309C38.8459 64.2269 39.0869 64.1179 39.2959 63.9019C39.3849 63.8099 39.4459 63.7339 39.4749 63.6729L43.6999 55.4079L44.4409 55.3979L43.8809 58.1959C43.7769 58.7179 44.1759 59.2059 44.7069 59.2059H47.5439C47.5439 59.6669 47.9139 60.0489 48.3819 60.0489H51.6179C52.0869 60.0489 52.4569 59.6669 52.4559 59.2059H55.2929C55.8249 59.2059 56.2239 58.7189 56.1189 58.1959L55.5279 55.2429L56.4689 55.2299L60.9239 63.3729C61.1249 63.7189 61.4309 63.8959 61.8399 63.9059L64.7489 63.8659C65.0509 63.8309 65.2919 63.7219 65.4719 63.5369C65.6059 63.3989 65.6949 63.2459 65.7379 63.0789L69.1809 49.2119C69.2389 48.8469 69.1589 48.5299 68.9429 48.2599H68.9419Z" stroke="#333333" stroke-width="2" stroke-linecap="round" stroke-linejoin="round"/>
<path d="M28.7939 45.4109L26.9669 47.4999C26.7589 47.7759 26.6869 48.0949 26.7529 48.4579L27.9389 52.7229M29.4099 58.0099L29.7509 59.2349L29.4099 58.0099Z" stroke="#333333" stroke-width="2" stroke-linecap="round" stroke-linejoin="round"/>
<path d="M72.685 50.0439L73.2449 48.0339C73.3109 47.6719 73.2389 47.3529 73.0309 47.0759L71.8559 45.7329M71.2 54.9839L71.331 54.4569L71.2 54.9839Z" stroke="#333333" stroke-width="2" stroke-linecap="round" stroke-linejoin="round"/>
<path d="M60.6669 39.0999C60.6669 39.0999 59.3869 48.9129 56.3999 55.3129L60.6669 39.0999Z" fill="url(#paint0_linear)"/>
<path d="M60.6669 39.0999C60.6669 39.0999 59.3869 48.9129 56.3999 55.3129" stroke="#333333" stroke-width="2" stroke-linecap="round" stroke-linejoin="round"/>
<path d="M39.01 39.0999C39.01 39.0999 40.29 48.9129 43.277 55.3129L39.01 39.0999Z" fill="url(#paint1_linear)"/>
<path d="M39.01 39.0999C39.01 39.0999 40.29 48.9129 43.277 55.3129" stroke="#333333" stroke-width="2" stroke-linecap="round" stroke-linejoin="round"/>
<path d="M50 64.27V39.5229" stroke="#333333" stroke-width="2" stroke-linecap="round" stroke-linejoin="round"/>
<path d="M54.971 25.5639L54.444 23.9459C54.441 23.9309 54.437 23.9169 54.431 23.9029L53.375 20.6519C53.319 20.4849 53.169 20.3779 52.994 20.3779C52.993 20.3779 52.993 20.3779 52.992 20.3779C52.816 20.3789 52.668 20.4869 52.613 20.6539L51.603 23.7649H48.399L47.387 20.6539C47.333 20.4869 47.184 20.3789 47.008 20.3779C47.007 20.3779 47.006 20.3779 47.006 20.3779C46.83 20.3779 46.681 20.4849 46.624 20.6539L45.568 23.9099C45.567 23.9119 45.566 23.9139 45.566 23.9159C45.566 23.9159 45.566 23.9169 45.565 23.9169L45.029 25.5629C44.951 25.8039 45.036 26.0659 45.24 26.2149L49.87 29.5789C49.909 29.6069 49.954 29.6209 49.998 29.6209C50.031 29.6209 50.064 29.6129 50.094 29.5979C50.095 29.5979 50.095 29.5969 50.096 29.5969C50.097 29.5959 50.098 29.5959 50.099 29.5949C50.101 29.5939 50.103 29.5919 50.105 29.5909C50.112 29.5869 50.118 29.5839 50.125 29.5789C50.126 29.5779 50.127 29.5779 50.128 29.5769L54.758 26.2139C54.965 26.0669 55.049 25.8049 54.971 25.5639Z" fill="#FC6D26" stroke="#333333" stroke-width="2" stroke-linecap="round" stroke-linejoin="round"/>
<defs>
<linearGradient id="paint0_linear" x1="-0.000102549" y1="55.3099" x2="-0.000102549" y2="39.0999" gradientUnits="userSpaceOnUse">
<stop stop-color="#ED6265"/>
<stop offset="0.243" stop-color="#E38385"/>
<stop offset="0.574" stop-color="#D6ABAC"/>
<stop offset="0.838" stop-color="#CFC3C3"/>
<stop offset="1" stop-color="#CCCCCC"/>
</linearGradient>
<linearGradient id="paint1_linear" x1="4.95719e-06" y1="55.3099" x2="4.95719e-06" y2="39.0999" gradientUnits="userSpaceOnUse">
<stop stop-color="#ED6265"/>
<stop offset="0.243" stop-color="#E38385"/>
<stop offset="0.574" stop-color="#D6ABAC"/>
<stop offset="0.838" stop-color="#CFC3C3"/>
<stop offset="1" stop-color="#CCCCCC"/>
</linearGradient>
</defs>
</svg>
