<svg width="119" height="85" viewBox="0 0 119 85" fill="none" xmlns="http://www.w3.org/2000/svg">
<path d="M32 68.5H88" stroke="#CCCCCC" stroke-width="2" stroke-linecap="round" stroke-linejoin="round"/>
<path d="M16.5 84C25.0604 84 32 77.0604 32 68.5C32 59.9396 25.0604 53 16.5 53C7.93959 53 1 59.9396 1 68.5C1 77.0604 7.93959 84 16.5 84Z" fill="#A3CC6C" stroke="#333333" stroke-width="2" stroke-linecap="round" stroke-linejoin="round"/>
<path d="M24.0484 63.1347C23.035 62.1939 21.4492 62.2524 20.5085 63.267L14.0533 70.2241L12.3316 68.6729C11.3039 67.7477 9.71929 67.83 8.79406 68.8565C7.86764 69.8843 7.94991 71.4689 8.97768 72.3941L12.5331 75.5979C12.5999 75.6575 12.6726 75.7028 12.7442 75.754C12.7978 75.7934 12.8479 75.8387 12.9039 75.8733C12.9779 75.9186 13.0554 75.9496 13.1317 75.9865C13.1949 76.0175 13.2557 76.0533 13.3201 76.0784C13.4071 76.1117 13.4965 76.1308 13.5859 76.1535C13.6444 76.1678 13.7004 76.1904 13.76 76.2012C13.9091 76.2286 14.0593 76.2429 14.2107 76.2429C14.38 76.2429 14.5493 76.225 14.7163 76.1916C14.7771 76.1797 14.8343 76.1535 14.8951 76.1356C14.9988 76.1058 15.1038 76.0807 15.2039 76.0378C15.2766 76.0068 15.3422 75.9603 15.4126 75.9222C15.4948 75.8769 15.5783 75.8387 15.6558 75.7839C15.7273 75.7338 15.7893 75.667 15.8561 75.6086C15.9205 75.5525 15.9884 75.5049 16.0481 75.4417L16.0707 75.4166L16.0719 75.4154L16.0731 75.4142L24.182 66.6734C25.1227 65.6612 25.0631 64.0766 24.0484 63.1347Z" fill="white" stroke="#333333" stroke-width="2" stroke-linecap="round" stroke-linejoin="round"/>
<path d="M59.5 84C68.0604 84 75 77.0604 75 68.5C75 59.9396 68.0604 53 59.5 53C50.9396 53 44 59.9396 44 68.5C44 77.0604 50.9396 84 59.5 84Z" fill="#A3CC6C" stroke="#333333" stroke-width="2" stroke-linecap="round" stroke-linejoin="round"/>
<path d="M67.0473 63.1347C66.0339 62.1939 64.4481 62.2524 63.5074 63.267L57.0522 70.2241L55.3305 68.6729C54.3028 67.7477 52.7182 67.83 51.793 68.8565C50.8665 69.8843 50.9488 71.4689 51.9766 72.3941L55.532 75.5979C55.5988 75.6575 55.6715 75.7028 55.7431 75.754C55.7967 75.7934 55.8468 75.8387 55.9028 75.8733C55.9768 75.9186 56.0543 75.9496 56.1306 75.9865C56.1938 76.0175 56.2546 76.0533 56.319 76.0784C56.406 76.1117 56.4954 76.1308 56.5848 76.1535C56.6433 76.1678 56.6993 76.1904 56.7589 76.2012C56.908 76.2286 57.0582 76.2429 57.2096 76.2429C57.3789 76.2429 57.5482 76.225 57.7152 76.1916C57.776 76.1797 57.8332 76.1535 57.894 76.1356C57.9977 76.1058 58.1027 76.0807 58.2028 76.0378C58.2755 76.0068 58.3411 75.9603 58.4115 75.9222C58.4937 75.8769 58.5772 75.8387 58.6547 75.7839C58.7262 75.7338 58.7882 75.667 58.855 75.6086C58.9194 75.5525 58.9873 75.5049 59.047 75.4417L59.0696 75.4166L59.0708 75.4154L59.072 75.4142L67.1809 66.6734C68.1216 65.6612 68.062 64.0766 67.0473 63.1347Z" fill="white" stroke="#333333" stroke-width="2" stroke-linecap="round" stroke-linejoin="round"/>
<path d="M102.5 84C111.06 84 118 77.0604 118 68.5C118 59.9396 111.06 53 102.5 53C93.9396 53 87 59.9396 87 68.5C87 77.0604 93.9396 84 102.5 84Z" fill="#A3CC6C" stroke="#333333" stroke-width="2" stroke-linecap="round" stroke-linejoin="round"/>
<path d="M110.047 63.1347C109.034 62.1939 107.448 62.2524 106.507 63.267L100.052 70.2241L98.3305 68.6729C97.3028 67.7477 95.7182 67.83 94.793 68.8565C93.8665 69.8843 93.9488 71.4689 94.9766 72.3941L98.532 75.5979C98.5988 75.6575 98.6715 75.7028 98.7431 75.754C98.7967 75.7934 98.8468 75.8387 98.9028 75.8733C98.9768 75.9186 99.0543 75.9496 99.1306 75.9865C99.1938 76.0175 99.2546 76.0533 99.319 76.0784C99.406 76.1117 99.4954 76.1308 99.5848 76.1535C99.6433 76.1678 99.6993 76.1904 99.7589 76.2012C99.908 76.2286 100.058 76.2429 100.21 76.2429C100.379 76.2429 100.548 76.225 100.715 76.1916C100.776 76.1797 100.833 76.1535 100.894 76.1356C100.998 76.1058 101.103 76.0807 101.203 76.0378C101.276 76.0068 101.341 75.9603 101.411 75.9222C101.494 75.8769 101.577 75.8387 101.655 75.7839C101.726 75.7338 101.788 75.667 101.855 75.6086C101.919 75.5525 101.987 75.5049 102.047 75.4417L102.07 75.4166L102.071 75.4154L102.072 75.4142L110.181 66.6734C111.122 65.6612 111.062 64.0766 110.047 63.1347Z" fill="white" stroke="#333333" stroke-width="2" stroke-linecap="round" stroke-linejoin="round"/>
<path d="M59.3855 39.4562L67.2569 15.7844H51.514L59.3855 39.4562Z" fill="#E24329"/>
<path d="M59.3725 39.4575L51.501 15.7856H40.4781L59.3725 39.4575Z" fill="#FC6D26"/>
<path d="M40.4757 15.8034L38.0771 22.9947C37.8598 23.6471 38.095 24.368 38.6673 24.7757L59.3653 39.4716L40.4722 15.7998" fill="#FCA326"/>
<path d="M40.4781 15.8082H51.5082L46.7608 1.55543C46.5174 0.826249 45.4594 0.826249 45.2077 1.55543L40.4781 15.8082Z" fill="#E24329"/>
<path d="M59.3855 39.4575L67.257 15.7856H78.287L59.3855 39.4575Z" fill="#FC6D26"/>
<path d="M78.2775 15.8034L80.6761 22.9948C80.8934 23.6472 80.6583 24.3681 80.086 24.7758L59.3879 39.4622L78.2811 15.8022" fill="#FCA326"/>
<path d="M78.2774 15.8082H67.2474L71.9865 1.55543C72.2299 0.826249 73.2879 0.826249 73.5396 1.55543L78.2774 15.8082Z" fill="#E24329"/>
<path fill-rule="evenodd" clip-rule="evenodd" d="M59.3855 39.4562L67.2569 15.7844H51.514L59.3855 39.4562Z" stroke="#333333" stroke-width="2" stroke-linecap="round" stroke-linejoin="round"/>
<path fill-rule="evenodd" clip-rule="evenodd" d="M59.3725 39.4575L51.501 15.7856H40.4781L59.3725 39.4575Z" stroke="#333333" stroke-width="2" stroke-linecap="round" stroke-linejoin="round"/>
<path fill-rule="evenodd" clip-rule="evenodd" d="M40.4757 15.8034L38.0771 22.9947C37.8598 23.6471 38.095 24.368 38.6673 24.7757L59.3653 39.4716L40.4722 15.7998L40.4757 15.8034Z" stroke="#333333" stroke-width="2" stroke-linecap="round" stroke-linejoin="round"/>
<path fill-rule="evenodd" clip-rule="evenodd" d="M40.4781 15.8082H51.5082L46.7608 1.55543C46.5174 0.826249 45.4594 0.826249 45.2077 1.55543L40.4781 15.8082Z" stroke="#333333" stroke-width="2" stroke-linecap="round" stroke-linejoin="round"/>
<path fill-rule="evenodd" clip-rule="evenodd" d="M59.3855 39.4575L67.257 15.7856H78.287L59.3855 39.4575Z" stroke="#333333" stroke-width="2" stroke-linecap="round" stroke-linejoin="round"/>
<path fill-rule="evenodd" clip-rule="evenodd" d="M78.2775 15.8034L80.6761 22.9948C80.8934 23.6472 80.6583 24.3681 80.086 24.7758L59.3879 39.4622L78.2811 15.8022L78.2775 15.8034Z" stroke="#333333" stroke-width="2" stroke-linecap="round" stroke-linejoin="round"/>
<path fill-rule="evenodd" clip-rule="evenodd" d="M78.2774 15.8082H67.2474L71.9865 1.55543C72.2299 0.826249 73.2879 0.826249 73.5396 1.55543L78.2774 15.8082Z" stroke="#333333" stroke-width="2" stroke-linecap="round" stroke-linejoin="round"/>
</svg>
