<svg xmlns="http://www.w3.org/2000/svg" viewBox="0 0 72 80" enable-background="new 0 0 72 80"><g fill="#410099"><path d="M64.8,0H7.2C3.224,0,0,3.224,0,7.2v65.6C0,76.776,3.224,80,7.2,80h57.6c3.976,0,7.2-3.224,7.2-7.2V7.2
			C72,3.224,68.776,0,64.8,0z M68,72.8c0,1.764-1.435,3.2-3.2,3.2H7.2C5.436,76,4,74.564,4,72.8V7.2C4,5.435,5.436,4,7.2,4h57.6
			C66.565,4,68,5.435,68,7.2V72.8z"/><path d="m18 68l9-8-9-8z"/><path d="M50.517,35.575C48.905,33.944,45.945,32,41,32c-5.423,0-11.006,1.411-15,2.711V12h-8v34.692l5.651-2.56
			C23.742,44.091,32.866,40,41,40c4.062,0,4.961,2.243,5,4.11V68h8l0-24C54.005,43.488,53.958,39.055,50.517,35.575z"/><path d="m40 25h8c3.618-4.1 5.46-8.456 6-13h-8c-.882 4.534-2.856 8.875-6 13"/></g></svg>