<svg width="39" height="49" viewBox="0 0 39 49" fill="none" xmlns="http://www.w3.org/2000/svg">
<path d="M4.99716 48.2495C4.64085 48.4768 4.24146 48.6293 3.82356 48.6977C3.40565 48.766 2.97808 48.7488 2.56713 48.6471C2.15618 48.5453 1.77055 48.3612 1.43396 48.106C1.09737 47.8508 0.816947 47.53 0.609931 47.1632C0.29917 46.6347 0.136074 46.0334 0.13746 45.4214V4.20584C0.13746 2.37308 1.56451 0.889648 3.32905 0.889648C3.92122 0.891658 4.50029 1.06276 4.99716 1.38253L37.1878 21.9879C37.6542 22.3003 38.0361 22.7215 38.3002 23.2146C38.5643 23.7077 38.7023 24.2576 38.7023 24.816C38.7023 25.3744 38.5643 25.9243 38.3002 26.4174C38.0361 26.9105 37.6542 27.3317 37.1878 27.6441L4.99716 48.2495Z" fill="#F2F2F2"/>
</svg>
