<svg width="68" height="87" viewBox="0 0 68 87" fill="none" xmlns="http://www.w3.org/2000/svg">
<path d="M67 52C67 57.8553 65.4428 62.7061 58.0013 69C52.3418 73.7832 43.7144 79.9631 36.5163 84.4352C35.6748 84.9568 34.8374 85.4784 34 86C33.1564 85.4745 32.3108 84.9491 31.4652 84.4236C24.2733 79.9534 15.652 73.7793 9.99869 69C2.55719 62.7061 1 57.8553 1 52V12.334L34 1L67 12.334V52Z" fill="#E24329"/>
<path d="M67 52C67 57.8553 65.4428 62.7061 58.0013 69C52.3418 73.7832 43.7144 79.9631 36.5163 84.4352C35.6748 84.9568 34.8374 85.4784 34 86C33.1564 85.4745 32.3108 84.9491 31.4652 84.4236C24.2733 79.9534 15.652 73.7793 9.99869 69C2.55719 62.7061 1 57.8553 1 52V12.334L34 1L67 12.334V52Z" fill="url(#paint0_linear)" stroke="black" stroke-width="2" stroke-linecap="round" stroke-linejoin="round"/>
<path fill-rule="evenodd" clip-rule="evenodd" d="M24.0473 59H19.3159C18.5899 59 18 58.3655 18 57.5844V33.4156C18 32.6345 18.5899 32 19.3159 32H49.6862C50.4122 32 51 32.6345 51 33.4156V57.5844C51 58.3655 50.4122 59 49.6862 59H44.961" fill="white"/>
<path d="M24.0473 59H19.3159C18.5899 59 18 58.3655 18 57.5844V33.4156C18 32.6345 18.5899 32 19.3159 32H49.6862C50.4122 32 51 32.6345 51 33.4156V57.5844C51 58.3655 50.4122 59 49.6862 59H44.961" stroke="black" stroke-width="2" stroke-linecap="round" stroke-linejoin="round"/>
<path fill-rule="evenodd" clip-rule="evenodd" d="M45 32H24V26.06C24 23.266 26.5935 21 29.7981 21H39.2019C42.4065 21 45 23.266 45 26.06V32Z" fill="#FEFEFE" stroke="black" stroke-width="2" stroke-linecap="round" stroke-linejoin="round"/>
<path fill-rule="evenodd" clip-rule="evenodd" d="M34 59C34 61.208 32.208 63 30 63C27.792 63 26 61.208 26 59C26 56.792 27.792 55 30 55C32.208 55 34 56.792 34 59Z" fill="#FCA326" stroke="black" stroke-width="2" stroke-linecap="round" stroke-linejoin="round"/>
<path d="M30 47L32 49" stroke="black" stroke-width="2" stroke-linecap="round" stroke-linejoin="round"/>
<path d="M37 44L32 49" stroke="black" stroke-width="2" stroke-linecap="round" stroke-linejoin="round"/>
<defs>
<linearGradient id="paint0_linear" x1="1" y1="-21.3656" x2="67" y2="-21.3656" gradientUnits="userSpaceOnUse">
<stop stop-color="#E14429"/>
<stop offset="1" stop-color="#F9A127"/>
</linearGradient>
</defs>
</svg>
