<svg xmlns="http://www.w3.org/2000/svg" viewBox="0 0 40 40" enable-background="new 0 0 40 40"><defs><linearGradient id="0" gradientUnits="userSpaceOnUse" x1="17.245" y1="21.483" x2="6.893" y2="39.41"><stop stop-color="#0052cc"/><stop offset=".92" stop-color="#2684ff"/></linearGradient></defs><path d="m11.9 18.5c-.4-.5-1.1-.6-1.6-.2-.1.1-.3.3-.3.4l-9.9 19.6c-.3.6 0 1.3.6 1.6.2.1.3.1.5.1h13.7c.4 0 .9-.2 1-.6 2.9-6.1 1.1-15.4-4-20.9" fill="url(#0)"/><path d="m19.1.6c-5 7.7-5.5 17.4-1.5 25.5l6.6 13.2c.2.4.6.6 1.1.6h13.7c.6 0 1.2-.5 1.2-1.2 0-.2 0-.4-.1-.5 0 0-18.4-36.7-18.8-37.7-.3-.5-.9-.8-1.5-.5-.5.2-.6.4-.7.6" fill="#2684ff"/></svg>