<?xml version="1.0" encoding="utf-8"?>
<svg id="bc7ff287-21a1-4c77-a3e5-ac483f15298f" data-name="Logos" viewBox="0 0 164.114 163.99" xmlns="http://www.w3.org/2000/svg">
  <defs>
    <style>.bd6440af-5d60-49bf-9686-fda26cffc6fb{fill:url(#f0570350-9708-4304-b9d5-2ebeb2bfee04);}.b4a71970-6077-4b15-b4e8-c735015250d6{fill:#2684ff;}.b895d058-0999-4b40-97ae-b41e198e5b71{mask:url(#b9855226-000f-4a37-882a-ec79234e4cce);}.fde49114-4111-4dbb-896e-bed8b8cad942{fill:#0052cc;}</style>
    <linearGradient id="f0570350-9708-4304-b9d5-2ebeb2bfee04" x1="138.66" y1="485.85" x2="96.21" y2="412.32" gradientTransform="matrix(1, 0, 0, -1, 0, 642)" gradientUnits="userSpaceOnUse">
      <stop offset="0" stop-color="#fff"/>
      <stop offset="0.92"/>
    </linearGradient>
    <mask id="b9855226-000f-4a37-882a-ec79234e4cce" x="67.95" y="68.01" width="164.09" height="163.98" maskUnits="userSpaceOnUse">
      <path id="fb7a8266-edf3-4e16-991d-27e2d6106d7a" data-name="colorgroup1" class="bd6440af-5d60-49bf-9686-fda26cffc6fb" d="M116.62,143.74c-2.46-2.62-6.28-2.47-7.94.86L68.46,225a4.81,4.81,0,0,0,2.15,6.45,4.76,4.76,0,0,0,2.15.51h56a4.64,4.64,0,0,0,4.3-2.66C145.14,204.36,137.83,166.4,116.62,143.74Z"/>
    </mask>
  </defs>
  <title>PartnerLogos-Vector</title>
  <g id="b514fe84-3621-48bf-b918-8d523032cf88" data-name="Atlassian" transform="matrix(1, 0, 0, 1, -67.953285, -68.010002)">
    <path id="abeb44be-3504-4966-91c3-1e0db98e1523" data-name="colorgroup2" class="b4a71970-6077-4b15-b4e8-c735015250d6" d="M154.3,70.55C156.2,74.32,231.54,225,231.54,225a4.81,4.81,0,0,1-4.3,7h-56a4.79,4.79,0,0,1-4.29-2.66l-27-54c-14.81-29.63-16.3-69.1,6.19-104.74C148.3,67.13,152.61,67.18,154.3,70.55Zm-37.68,73.19c-2.46-2.62-6.28-2.47-7.94.86L68.46,225a4.81,4.81,0,0,0,2.15,6.45,4.76,4.76,0,0,0,2.15.51h56a4.64,4.64,0,0,0,4.3-2.66C145.14,204.36,137.83,166.4,116.62,143.74Z"/>
    <g class="b895d058-0999-4b40-97ae-b41e198e5b71">
      <path id="a525baf2-dbea-427c-86c8-17e72f970c6e" data-name="colorgroup1" class="fde49114-4111-4dbb-896e-bed8b8cad942" d="M154.3,70.55C156.2,74.32,231.54,225,231.54,225a4.81,4.81,0,0,1-4.3,7h-56a4.79,4.79,0,0,1-4.29-2.66l-27-54c-14.81-29.63-16.3-69.1,6.19-104.74C148.3,67.13,152.61,67.18,154.3,70.55Zm-37.68,73.19c-2.46-2.62-6.28-2.47-7.94.86L68.46,225a4.81,4.81,0,0,0,2.15,6.45,4.76,4.76,0,0,0,2.15.51h56a4.64,4.64,0,0,0,4.3-2.66C145.14,204.36,137.83,166.4,116.62,143.74Z"/>
    </g>
  </g>
</svg>