<svg xmlns="http://www.w3.org/2000/svg" viewBox="0 0 40 40" enable-background="new 0 0 40 40"><defs><linearGradient id="0" gradientUnits="userSpaceOnUse" x1="41.07" y1="17.418" x2="21.17" y2="32.951"><stop offset=".18" stop-color="#0052cc"/><stop offset="1" stop-color="#2684ff"/></linearGradient></defs><path d="m1.3 2c-.7 0-1.3.6-1.3 1.3 0 .1 0 .1 0 .2l5.4 33.1c.2.8.9 1.4 1.7 1.4h26.2c.6 0 1.2-.5 1.3-1.1l5.4-33.4c.1-.7-.4-1.4-1.1-1.5-.1 0-.1 0-.2 0h-37.4m22.9 23.9h-8.4l-2.2-11.8h12.6l-2 11.8" fill="#2684ff"/><path d="m38.3 14.1h-12l-2 11.8h-8.4l-9.9 11.7c.3.3.7.4 1.1.4h26.2c.6 0 1.2-.5 1.3-1.1l3.7-22.8" fill="url(#0)"/></svg>