<svg xmlns="http://www.w3.org/2000/svg" viewBox="0 0 40 40" enable-background="new 0 0 40 40"><defs><linearGradient id="0" gradientUnits="userSpaceOnUse" x1="30.13" y1="13.949" x2="33.6" y2="37.07"><stop stop-color="#2684ff"/><stop offset="1" stop-color="#0052cc"/></linearGradient></defs><path d="m39.2 7.4l-19.2-7.1-19.2 7.1c-.5.1-.8.6-.8 1.2l.4 10.9c.3 9 4.8 15.7 11.9 20.1.6.4 1.4.1 1.8-.5 0 0 0-.1.1-.1l4.1-9.7c.1-.3 0-.7-.4-.8-3.9-1.2-6.1-5.3-4.9-9.2s5.3-6.1 9.2-4.9 6.1 5.3 4.9 9.2c-.7 2.4-2.6 4.2-4.9 4.9-.3.1-.5.5-.4.8l4.1 9.7c.3.7 1.1.9 1.7.6 0 0 .1 0 .1-.1 7.1-4.4 11.6-11.1 11.9-20.1l.4-10.8c0-.6-.3-1.1-.8-1.2" fill="#2684ff"/><path d="m20 13.9c4.1 0 7.4 3.3 7.4 7.4 0 3.3-2.1 6.1-5.2 7.1-.3.1-.5.5-.4.8l4.1 9.7c.3.7 1.1.9 1.7.6 0 0 .1 0 .1-.1 7.1-4.4 11.6-11.1 11.9-20.1l.4-10.7c0-.5-.3-1.1-.8-1.2l-19.2-7.1v13.6" fill="url(#0)"/></svg>