<svg xmlns="http://www.w3.org/2000/svg" viewBox="0 0 40 40" enable-background="new 0 0 40 40" xmlns:xlink="http://www.w3.org/1999/xlink"><defs><linearGradient id="0" gradientUnits="userSpaceOnUse" x1="30.09" y1="9.63" x2="21.893" y2="18.08"><stop offset=".18" stop-color="#0052cc"/><stop offset="1" stop-color="#2684ff"/></linearGradient><linearGradient id="1" gradientUnits="userSpaceOnUse" x1="21.08" y1="19.272" x2="11.615" y2="28.489" xlink:href="#0"/></defs><path d="M38.4,0H19.1c0,4.8,3.9,8.7,8.7,8.7h3.5v3.4c0,4.8,3.9,8.7,8.7,8.7V1.7C40,0.8,39.3,0,38.4,0z" fill="#2684ff"/><path d="m28.8 9.6h-19.2c0 4.8 3.9 8.7 8.7 8.7h3.5v3.4c0 4.8 3.9 8.7 8.7 8.7v-19.1c0-1-.8-1.7-1.7-1.7" fill="url(#0)"/><path d="m19.3 19.2h-19.3c0 4.8 3.9 8.7 8.7 8.7h3.5v3.4c0 4.8 3.9 8.7 8.7 8.7v-19.1c.1-1-.7-1.7-1.6-1.7" fill="url(#1)"/></svg>