<svg xmlns="http://www.w3.org/2000/svg" viewBox="0 0 40 40" enable-background="new 0 0 40 40"><defs><linearGradient id="0" gradientUnits="userSpaceOnUse" y1="3.321" x2="0" y2="23.815"><stop stop-color="#2684ff"/><stop offset=".82" stop-color="#0052cc"/></linearGradient><linearGradient id="1" gradientUnits="userSpaceOnUse" x1="13.865" y1="23.23" x2="20.73" y2="37.603"><stop stop-color="#2684ff"/><stop offset=".62" stop-color="#0052cc"/></linearGradient></defs><circle cx="20" cy="10" r="10" fill="url(#0)"/><path d="m19.2 39.8c-6.5-4.2-11.9-9.8-15.8-16.5-.3-.5-.1-1.2.4-1.5h.1l7.6-3.7c.5-.3 1.2-.1 1.5.4 3.8 6.4 9.5 11.5 16.2 14.7-2.5 2.5-5.3 4.7-8.2 6.6-.7.3-1.3.3-1.8 0" fill="url(#1)"/><path d="m20.9 39.8c6.5-4.2 11.9-9.8 15.8-16.5.3-.5.1-1.2-.4-1.5l-7.7-3.8c-.5-.3-1.2-.1-1.5.4-3.8 6.4-9.5 11.5-16.2 14.7 2.5 2.5 5.3 4.7 8.2 6.6.6.4 1.2.4 1.8.1" fill="#2684ff"/></svg>