<svg xmlns="http://www.w3.org/2000/svg" viewBox="0 0 40 40" enable-background="new 0 0 40 40"><defs><linearGradient id="0" gradientUnits="userSpaceOnUse" y1="28.07" x2="0" y2="11.224"><stop offset=".18" stop-color="#0052cc"/><stop offset="1" stop-color="#2684ff"/></linearGradient></defs><path d="m35.8 15.9c0-8.8-7-15.9-15.8-15.9-8.8 0-15.9 7-15.9 15.8 0 6.9 4.4 13 11 15.1v7.9c0 .6.5 1.1 1.1 1.1h7.5c.6 0 1.1-.5 1.2-1.1v-7.9c6.5-2.1 11-8.2 10.9-15m-15.8 5.3c-3 0-5.4-2.4-5.4-5.4s2.4-5.4 5.4-5.4c3 0 5.4 2.4 5.4 5.4s-2.4 5.4-5.4 5.4" fill="#2684ff"/><path d="m20 0v10.5c3 0 5.4 2.4 5.4 5.4s-2.4 5.3-5.4 5.3c2.7 0 4.9 2.2 4.9 4.9v4.8c8.3-2.7 12.9-11.6 10.2-20-2.1-6.5-8.2-10.9-15.1-10.9" fill="url(#0)"/></svg>