<svg version="1.1" id="Layer_1" xmlns="http://www.w3.org/2000/svg" xmlns:xlink="http://www.w3.org/1999/xlink" x="0px" y="0px" viewBox="0 0 569.3 384" style="enable-background:new 0 0 569.3 384;" xml:space="preserve">
<style type="text/css">
	.st0{fill:#EF4B43;}
	.st1{fill:#FFFFFF;}
</style>
<g>
	<rect class="st0" width="569.3" height="384"></rect>
	<g>
		<g>
			<path class="st1" d="M66.3,63.3c0-1.2,0.9-2.2,2.1-2.2H97c22.6,0,41.1,18.4,41.1,40.9c0,22.7-18.5,41.1-41.1,41.1H68.4
				c-1.2,0-2.1-1.1-2.1-2.2C66.3,140.9,66.3,63.3,66.3,63.3z M95.8,125.7c13.2,0,22.9-10.4,22.9-23.8c0-13.2-9.6-23.7-22.9-23.7
				H84.5v47.5H95.8z"></path>
			<path class="st1" d="M147,63.3c0-1.2,0.9-2.2,2.2-2.2h48.5c1.3,0,2.2,1.1,2.2,2.2V76c0,1.2-0.9,2.2-2.2,2.2h-32.5v14.5h26.7
				c1.2,0,2.2,1.1,2.2,2.2v12.8c0,1.3-1.1,2.2-2.2,2.2h-26.7v15.8h32.5c1.3,0,2.2,1.1,2.2,2.2v12.8c0,1.2-0.9,2.2-2.2,2.2h-48.5
				c-1.3,0-2.2-1.1-2.2-2.2V63.3z"></path>
			<path class="st1" d="M210.5,64.1c-0.7-1.5,0.2-3,2-3h15.6c0.9,0,1.8,0.7,2,1.3l19.3,42.8h0.7l19.3-42.8c0.2-0.6,1.1-1.3,2-1.3
				H287c1.8,0,2.7,1.5,2,3L252.2,143c-0.4,0.7-1.1,1.3-2,1.3H249c-0.9,0-1.6-0.6-2-1.3L210.5,64.1z"></path>
			<path class="st1" d="M330.8,59.9c23.4,0,42.2,18.9,42.2,42.3s-18.8,42.1-42.2,42.1c-23.4,0-42.1-18.6-42.1-42.1
				S307.4,59.9,330.8,59.9z M330.8,125.5c12.9,0,23.4-10.5,23.4-23.3c0-12.9-10.5-23.6-23.4-23.6c-12.8,0-23.3,10.7-23.3,23.6
				C307.5,115,318,125.5,330.8,125.5z"></path>
			<path class="st1" d="M382.9,63.3c0-1.2,0.9-2.2,2.2-2.2h28.2c14.4,0,26.3,11.7,26.3,25.9c0,14.5-11.8,26.4-26.1,26.4h-12.3v27.5
				c0,1.2-1.1,2.2-2.2,2.2h-13.8c-1.3,0-2.2-1.1-2.2-2.2V63.3H382.9z M412.3,96.2c5,0,9.3-4,9.3-9.3c0-4.9-4.2-8.7-9.3-8.7h-11.1
				v17.9h11.1V96.2z"></path>
			<path class="st1" d="M448.3,131.9l5.5-9.7c0.9-1.5,3.2-1.3,4-0.7c0.5,0.2,8.9,6.4,16.6,6.4c4.7,0,8.1-2.9,8.1-7
				c0-4.9-4.1-8.7-12.1-11.8c-10.1-4-22.7-11.8-22.7-25.9c0-11.6,9-23.3,27.1-23.3c12.2,0,21.6,6.2,25.1,8.8
				c1.4,0.8,1.2,2.9,0.7,3.8l-6,9c-0.8,1.3-2.9,2.3-4,1.5c-1.1-0.6-9.6-7-16.8-7c-4.2,0-7.4,2.8-7.4,6c0,4.3,3.5,7.6,12.8,11.4
				c9.1,3.6,23.7,10.8,23.7,26.7c0,12.1-10.4,24.3-27.7,24.3c-15.2,0-23.7-6.3-26.4-9C447.7,134.1,447.3,133.6,448.3,131.9z"></path>
		</g>
		<g>
			<path class="st1" d="M65.9,168.9c0-0.8,0.6-1.5,1.5-1.5H99c0.8,0,1.5,0.7,1.5,1.5v8.3c0,0.8-0.6,1.5-1.5,1.5H77.9v9.5h17.4
				c0.8,0,1.5,0.7,1.5,1.5v8.3c0,0.8-0.7,1.5-1.5,1.5H77.9v10.3h21.2c0.8,0,1.5,0.7,1.5,1.5v8.3c0,0.8-0.6,1.5-1.5,1.5H67.4
				c-0.8,0-1.5-0.7-1.5-1.5V168.9z"></path>
			<path class="st1" d="M110.6,168c0-0.8,0.7-1.4,1.5-1.4h1.9l30.5,29.3h0.1v-27.1c0-0.8,0.6-1.5,1.5-1.5h9.2c0.8,0,1.5,0.7,1.5,1.5
				v51.4c0,0.8-0.7,1.4-1.5,1.4h-1.2c-0.2,0-0.8-0.2-1-0.4L122.8,191h-0.1v28.5c0,0.8-0.6,1.5-1.5,1.5h-9.1c-0.8,0-1.5-0.7-1.5-1.5
				L110.6,168z"></path>
			<path class="st1" d="M176.6,178.7h-10.9c-0.8,0-1.5-0.7-1.5-1.5v-8.3c0-0.8,0.6-1.5,1.5-1.5h33.9c0.8,0,1.5,0.7,1.5,1.5v8.3
				c0,0.8-0.6,1.5-1.5,1.5h-10.9v40.8c0,0.8-0.7,1.5-1.5,1.5H178c-0.8,0-1.5-0.7-1.5-1.5L176.6,178.7L176.6,178.7z"></path>
			<path class="st1" d="M208.7,168.9c0-0.8,0.6-1.5,1.5-1.5h31.6c0.8,0,1.5,0.7,1.5,1.5v8.3c0,0.8-0.6,1.5-1.5,1.5h-21.2v9.5H238
				c0.8,0,1.5,0.7,1.5,1.5v8.3c0,0.8-0.7,1.5-1.5,1.5h-17.4v10.3h21.2c0.8,0,1.5,0.7,1.5,1.5v8.3c0,0.8-0.6,1.5-1.5,1.5h-31.6
				c-0.8,0-1.5-0.7-1.5-1.5V168.9z"></path>
			<path class="st1" d="M253.5,168.9c0-0.8,0.6-1.5,1.5-1.5h22.8c9.2,0,16.7,7.4,16.7,16.5c0,7-4.7,12.7-11.3,15.4l10.5,19.4
				c0.5,1,0,2.2-1.3,2.2h-10.2c-0.6,0-1.1-0.4-1.2-0.7L270.7,200h-5.3v19.5c0,0.8-0.7,1.5-1.5,1.5h-9.1c-0.8,0-1.5-0.7-1.5-1.5
				v-50.6H253.5z M276.8,190.3c3.1,0,5.8-2.9,5.8-6.1s-2.7-5.8-5.8-5.8h-11.3v11.9H276.8z"></path>
			<path class="st1" d="M304.6,168.9c0-0.8,0.6-1.5,1.5-1.5h18.4c9.4,0,17.1,7.6,17.1,16.9c0,9.5-7.7,17.2-17,17.2h-8v18
				c0,0.8-0.7,1.5-1.5,1.5h-9c-0.8,0-1.5-0.7-1.5-1.5V168.9z M323.8,190.3c3.3,0,6-2.6,6-6c0-3.2-2.8-5.7-6-5.7h-7.2v11.7H323.8z"></path>
			<path class="st1" d="M349.4,168.9c0-0.8,0.6-1.5,1.5-1.5h22.8c9.2,0,16.7,7.4,16.7,16.5c0,7-4.7,12.7-11.3,15.4l10.5,19.4
				c0.5,1,0,2.2-1.3,2.2h-10.2c-0.6,0-1.1-0.4-1.2-0.7L366.7,200h-5.3v19.5c0,0.8-0.7,1.5-1.5,1.5h-9.1c-0.8,0-1.5-0.7-1.5-1.5
				L349.4,168.9L349.4,168.9z M372.7,190.3c3.1,0,5.8-2.9,5.8-6.1s-2.7-5.8-5.8-5.8h-11.3v11.9H372.7z"></path>
			<path class="st1" d="M400.6,168.9c0-0.8,0.7-1.5,1.5-1.5h9.2c0.8,0,1.5,0.7,1.5,1.5v50.6c0,0.8-0.7,1.5-1.5,1.5h-9.2
				c-0.8,0-1.5-0.7-1.5-1.5V168.9z"></path>
			<path class="st1" d="M422.7,213.6l3.6-6.3c0.6-1,2.1-0.8,2.6-0.5c0.3,0.2,5.8,4.2,10.8,4.2c3.1,0,5.3-1.9,5.3-4.6
				c0-3.2-2.7-5.7-7.9-7.7c-6.6-2.6-14.8-7.7-14.8-16.9c0-7.6,5.9-15.2,17.6-15.2c7.9,0,14.1,4,16.3,5.7c0.9,0.5,0.8,1.9,0.5,2.4
				l-3.9,5.9c-0.5,0.8-1.9,1.5-2.6,1c-0.7-0.4-6.3-4.6-10.9-4.6c-2.8,0-4.8,1.8-4.8,3.9c0,2.8,2.3,5,8.3,7.4s15.4,7,15.4,17.4
				c0,7.9-6.8,15.8-18,15.8c-9.9,0-15.4-4.1-17.2-5.9C422.3,215,422.1,214.7,422.7,213.6z"></path>
			<path class="st1" d="M467.6,168.9c0-0.8,0.6-1.5,1.5-1.5h31.6c0.8,0,1.5,0.7,1.5,1.5v8.3c0,0.8-0.6,1.5-1.5,1.5h-21.1v9.5H497
				c0.8,0,1.5,0.7,1.5,1.5v8.3c0,0.8-0.7,1.5-1.5,1.5h-17.4v10.3h21.2c0.8,0,1.5,0.7,1.5,1.5v8.3c0,0.8-0.6,1.5-1.5,1.5h-31.6
				c-0.8,0-1.5-0.7-1.5-1.5v-50.7H467.6z"></path>
		</g>
		<g>
			<path class="st1" d="M66.5,311.9l5.5-9.7c0.9-1.5,3.1-1.3,4-0.7c0.5,0.2,8.9,6.4,16.6,6.4c4.7,0,8-2.9,8-7c0-4.9-4.1-8.6-12-11.8
				c-10-4-22.6-11.8-22.6-25.8c0-11.5,9-23.2,26.9-23.2c12.1,0,21.5,6.2,24.9,8.7c1.4,0.8,1.2,2.9,0.7,3.7l-5.9,9
				c-0.8,1.3-2.9,2.3-4,1.5c-1-0.6-9.6-7-16.7-7c-4.2,0-7.3,2.8-7.3,5.9c0,4.3,3.5,7.6,12.7,11.3c9.1,3.6,23.5,10.7,23.5,26.6
				c0,12-10.4,24.1-27.5,24.1c-15.2,0-23.5-6.3-26.2-9C65.9,314,65.6,313.5,66.5,311.9z"></path>
			<path class="st1" d="M131.3,243.6c0-1.2,1-2.2,2.2-2.2h14.3c1.3,0,2.2,1,2.2,2.2v47.2c0,8.2,6.1,14.7,14.3,14.7
				c8.4,0,14.6-6.5,14.6-14.7v-47.2c0-1.2,0.9-2.2,2.2-2.2h14.5c1.2,0,2.2,1,2.2,2.2v48.1c0,17.7-14.9,32.4-33.3,32.4
				c-18.3,0-33.1-14.7-33.1-32.4L131.3,243.6L131.3,243.6z"></path>
			<path class="st1" d="M218.6,242.1c0.1-1,1.2-1.9,2.1-1.9h1.9c0.6,0,1.6,0.5,2,1.2l27,50.4h0.2l27-50.4c0.3-0.7,1.4-1.2,2-1.2h1.9
				c0.9,0,2,0.8,2.1,1.9l13.2,78.3c0.2,1.5-0.8,2.6-2.2,2.6H282c-1,0-2.1-0.9-2.2-1.9l-5.2-36h-0.2l-19.6,37.8
				c-0.3,0.7-1.4,1.3-2,1.3h-2.1c-0.7,0-1.6-0.6-2-1.3L229,285.1h-0.2l-5.1,36c-0.1,0.9-1,1.9-2.2,1.9h-13.8c-1.4,0-2.4-1-2.2-2.6
				L218.6,242.1z"></path>
			<path class="st1" d="M323.5,242.1c0.1-1,1.2-1.9,2.1-1.9h1.9c0.6,0,1.6,0.5,2,1.2l27,50.4h0.2l27-50.4c0.3-0.7,1.4-1.2,2-1.2h1.9
				c0.9,0,2,0.8,2.1,1.9l13.2,78.3c0.2,1.5-0.8,2.6-2.2,2.6h-13.8c-1,0-2.1-0.9-2.2-1.9l-5.2-36h-0.2l-19.6,37.8
				c-0.3,0.7-1.4,1.3-2,1.3h-2.1c-0.7,0-1.6-0.6-2-1.3l-19.7-37.8h-0.2l-5.1,36c-0.1,0.9-1,1.9-2.2,1.9h-13.8c-1.4,0-2.4-1-2.2-2.6
				L323.5,242.1z"></path>
			<path class="st1" d="M416.1,243.6c0-1.2,1-2.2,2.2-2.2h14c1.2,0,2.2,1,2.2,2.2v77.2c0,1.2-1,2.2-2.2,2.2h-14
				c-1.2,0-2.2-1-2.2-2.2V243.6z"></path>
			<path class="st1" d="M465.9,258.5h-16.7c-1.3,0-2.2-1-2.2-2.2v-12.7c0-1.2,0.9-2.2,2.2-2.2H501c1.3,0,2.2,1,2.2,2.2v12.7
				c0,1.2-0.9,2.2-2.2,2.2h-16.7v62.3c0,1.2-1,2.2-2.2,2.2h-14c-1.2,0-2.2-1-2.2-2.2L465.9,258.5L465.9,258.5z"></path>
		</g>
	</g>
</g>
</svg>
