<svg xmlns="http://www.w3.org/2000/svg" viewBox="0 0 70 70" enable-background="new 0 0 70 70"><switch><g><path d="M64.258,22H5.742C3.675,22,2,20.325,2,18.258v-6.517C2,9.675,3.675,8,5.742,8h58.517
				C66.325,8,68,9.675,68,11.742v6.517C68,20.325,66.325,22,64.258,22z" fill="#7d7c9e" stroke="#1c1330" stroke-linejoin="round" stroke-linecap="round" stroke-width="4" stroke-miterlimit="10"/><path fill="none" stroke="#1c1330" stroke-linejoin="round" stroke-linecap="round" stroke-width="4" stroke-miterlimit="10" d="m16 2v12"/><path fill="none" stroke="#1c1330" stroke-linejoin="round" stroke-linecap="round" stroke-width="4" stroke-miterlimit="10" d="m54 2v12"/><path d="M60.508,68H9.492C7.564,68,6,66.436,6,64.508V22h58v42.508C64,66.436,62.436,68,60.508,68z" fill="#5737a9" stroke="#1c1330" stroke-linejoin="round" stroke-linecap="round" stroke-width="4" stroke-miterlimit="10"/><circle cx="18" cy="35" r="5" fill="#433175" stroke="#1c1330" stroke-linejoin="round" stroke-linecap="round" stroke-width="4" stroke-miterlimit="10"/><circle cx="35" cy="35" r="5" fill="#433175" stroke="#1c1330" stroke-linejoin="round" stroke-linecap="round" stroke-width="4" stroke-miterlimit="10"/><circle cx="52" cy="35" r="5" fill="#433175" stroke="#1c1330" stroke-linejoin="round" stroke-linecap="round" stroke-width="4" stroke-miterlimit="10"/><circle cx="18" cy="54" r="5" fill="#433175" stroke="#1c1330" stroke-linejoin="round" stroke-linecap="round" stroke-width="4" stroke-miterlimit="10"/><circle cx="35" cy="54" r="5" fill="#433175" stroke="#1c1330" stroke-linejoin="round" stroke-linecap="round" stroke-width="4" stroke-miterlimit="10"/><circle cx="52" cy="54" r="5" fill="#433175" stroke="#1c1330" stroke-linejoin="round" stroke-linecap="round" stroke-width="4" stroke-miterlimit="10"/></g></switch></svg>