<svg xmlns="http://www.w3.org/2000/svg" viewBox="0 0 70 70" enable-background="new 0 0 70 70"><switch><g><path d="m62.58 68h-55.15c-3.581 0-6.178-3.124-5.226-6.286l7.851-26.07c.649-2.153 2.788-3.645 5.226-3.645h39.449c2.439 0 4.577 1.492 5.226 3.645l7.851 26.07c.953 3.162-1.644 6.286-5.225 6.286" fill="#5737a9"/><path fill="none" stroke="#433175" stroke-width="4" stroke-miterlimit="10" d="m5.903 50.17h57.15"/><path fill="none" stroke="#433175" stroke-width="4" stroke-miterlimit="10" d="m16.978 68.04l40.09-36.09"/><path d="m62.33 68h-55.15c-3.581 0-6.178-3.124-5.226-6.286l7.851-26.07c.649-2.153 2.788-3.645 5.226-3.645h39.449c2.439 0 4.577 1.492 5.226 3.645l7.851 26.07c.953 3.162-1.644 6.286-5.225 6.286z" fill="none" stroke="#1c1330" stroke-linejoin="round" stroke-linecap="round" stroke-width="4" stroke-miterlimit="10"/><path d="m21.807 26.436c-.187-.274-.374-.547-.468-.821l-.281-.365c-1.309-2.279-2.058-5.01-2.058-7.659 0-8.57 7.205-15.591 16-15.591s16 7.02 16 15.591c0 2.644-.749 5.288-2.058 7.659 0 0 0 .091-.094.091l-.281.456c-.094.182-.281.365-.374.638 0 0 0 .091-.094.091l-13.1 23.474-13.193-23.564z" fill="#7d7c9e" stroke="#1c1330" stroke-linejoin="round" stroke-linecap="round" stroke-width="4" stroke-miterlimit="10"/><path d="m42.954 19.17l-.842-2.588c-.004-.024-.011-.047-.02-.069l-1.69-5.202c-.09-.267-.329-.438-.61-.438-.001 0-.002 0-.004 0-.281.001-.519.175-.606.442l-1.617 4.977h-5.127l-1.62-4.977c-.087-.267-.325-.44-.606-.442-.001 0-.003 0-.004 0-.281 0-.52.172-.612.442l-1.689 5.209c-.001.003-.003.007-.004.01 0 .001-.001.001-.001.002l-.857 2.634c-.125.386.011.805.338 1.043l7.408 5.383c.062.045.134.067.205.067.053 0 .105-.013.153-.037.001-.001.002-.001.004-.002.002-.001.004-.001.005-.002.004-.002.007-.004.01-.006.011-.006.021-.012.031-.019.002-.001.004-.002.005-.003l7.409-5.38c.33-.238.466-.658.341-1.044" fill="#1c1330"/></g></switch></svg>