<svg xmlns="http://www.w3.org/2000/svg" viewBox="0 0 70 70" enable-background="new 0 0 70 70"><switch><g><path d="m60 68h-50c-2.209 0-4-1.791-4-4v-33h58v33c0 2.209-1.791 4-4 4z" fill="#5737a9" stroke="#1c1330" stroke-linejoin="round" stroke-linecap="round" stroke-width="4" stroke-miterlimit="10"/><path d="m64 31h-58c-2.209 0-4-1.791-4-4v-8c0-2.209 1.791-4 4-4h58c2.209 0 4 1.791 4 4v8c0 2.209-1.791 4-4 4z" fill="#433175" stroke="#1c1330" stroke-linejoin="round" stroke-linecap="round" stroke-width="4" stroke-miterlimit="10"/><path d="m47.906 15.464l-1.367-4.2c-.007-.038-.019-.076-.033-.113l-2.742-8.44c-.145-.432-.533-.711-.99-.711-.002 0-.004 0-.006 0-.456.002-.842.284-.983.717l-2.623 8.08h-8.32l-2.628-8.08c-.14-.433-.526-.715-.982-.717-.002 0-.004 0-.006 0-.456 0-.844.278-.992.717l-2.74 8.453c-.002.005-.005.011-.006.016 0 .001-.001.002-.001.003l-1.391 4.274c-.203.626.017 1.306.549 1.693l12.02 8.735c.1.073.217.108.333.108.086 0 .17-.022.249-.06.002-.001.004-.002.006-.003.003-.001.006-.002.009-.004.006-.003.011-.007.017-.01.017-.01.035-.019.051-.031.003-.002.006-.003.009-.005l12.02-8.73c.528-.386.749-1.066.545-1.692z" fill="#7d7c9e" stroke="#1c1330" stroke-linejoin="round" stroke-linecap="round" stroke-width="4" stroke-miterlimit="10"/><path fill="#7d7c9e" stroke="#1c1330" stroke-linejoin="round" stroke-linecap="round" stroke-width="4" stroke-miterlimit="10" d="m25 43h20v12h-20z"/></g></switch></svg>