<svg height="638" viewBox="0 0 1170 638" width="1170" xmlns="http://www.w3.org/2000/svg"><g fill="none" fill-rule="evenodd" transform="translate(22 43)"><path d="m163.545966 259h695.144466v-4h-695.144466z" fill="#e0513e"/><path d="m870.470919 266.702602c4.816643 0 8.720451-3.901752 8.720451-8.713754 0-4.812003-3.903808-8.713755-8.720451-8.713755s-8.72045 3.901752-8.72045 8.713755c0 4.812002 3.903807 8.713754 8.72045 8.713754zm0 4c-7.02531 0-12.72045-5.692142-12.72045-12.713754 0-7.021613 5.69514-12.713755 12.72045-12.713755 7.025311 0 12.720451 5.692142 12.720451 12.713755 0 7.021612-5.69514 12.713754-12.720451 12.713754z" fill="#e04733"/><path d="m991.315197 145.921933c4.816643 0 8.720453-3.901752 8.720453-8.713755 0-4.812002-3.90381-8.713754-8.720453-8.713754s-8.72045 3.901752-8.72045 8.713754c0 4.812003 3.903807 8.713755 8.72045 8.713755zm0 4c-7.025311 0-12.72045-5.692142-12.72045-12.713755 0-7.021612 5.695139-12.713754 12.72045-12.713754s12.720453 5.692142 12.720453 12.713754c0 7.021613-5.695142 12.713755-12.720453 12.713755z" fill="#e04733"/><g fill="#e04733" transform="translate(0 236.799257)"><path d="m151.765478 29.9033457c4.816643 0 8.720451-3.9017524 8.720451-8.7137546s-3.903808-8.7137547-8.720451-8.7137547-8.72045 3.9017525-8.72045 8.7137547 3.903807 8.7137546 8.72045 8.7137546zm0 4c-7.02531 0-12.72045-5.6921418-12.72045-12.7137546s5.69514-12.71375467 12.72045-12.71375467c7.025311 0 12.720451 5.69214187 12.720451 12.71375467s-5.69514 12.7137546-12.720451 12.7137546z"/><path d="m.18770565 10.1392011h3.11639983l4.03859978 11.1935994 1.52639992 4.2611998h.12719999l1.46279993-4.2611998 4.0067998-11.1935994h3.1163998v20.8607989h-2.5121999v-11.4797994c0-.9328046.0370997-1.9609943.1113-3.0845998.0742004-1.1236056.1536996-2.1517952.2385-3.0845998h-.1272l-1.6853999 4.6427997-4.00679976 10.9073994h-1.49459992l-4.03859978-10.9073994-1.65359991-4.6427997h-.1272c.06360032.9328046.13779957 1.9609942.22259999 3.0845998.08480042 1.1236055.1272 2.1517952.1272 3.0845998v11.4797994h-2.44859987zm31.99079825 12.3701994-.9857999-3.1799999c-.3816019-1.1660057-.7419983-2.3266941-1.0812-3.4820998-.3392016-1.1554057-.6783982-2.3372938-1.0175999-3.5456998h-.1272c-.3180016 1.208406-.6465983 2.3902941-.9858 3.5456998-.3392016 1.1554057-.699598 2.3160941-1.0811999 3.4820998l-.9857999 3.1799999zm.6678 2.1305998h-7.6001996l-2.0033999 6.3599997h-2.7029999l7.0595997-20.8607989h2.9891998l7.0595996 20.8607989h-2.8301998zm7.8227996 1.8125999c.7420036.7844039 1.6164948 1.4150976 2.6234998 1.8920999 1.007005.4770024 2.0510945.7155 3.1322999.7155 1.3780068 0 2.448596-.3126969 3.2117998-.9380999.7632038-.6254031 1.1447999-1.4468949 1.1447999-2.4644999 0-.5300026-.0900991-.9804981-.2703-1.3514999-.1802009-.3710019-.4239984-.6889987-.7313999-.954-.3074016-.2650013-.6730979-.5034989-1.0971-.7154999-.4240021-.2120011-.8797975-.4345989-1.3673999-.6678l-2.9891998-1.3037999c-.4876024-.2120011-.9857974-.4663985-1.4946-.7632-.5088025-.2968015-.9645979-.6571978-1.3673999-1.0811999s-.7313987-.9274971-.9857999-1.5105c-.2544013-.5830028-.3816-1.2560961-.3816-2.0192999 0-.7844038.1642983-1.5157965.4929-2.1941998.3286016-.6784034.784397-1.2666975 1.3673999-1.7648999.5830029-.4982025 1.2719959-.8850986 2.0669999-1.1607.7950039-.27560134 1.6694951-.41339995 2.6234998-.41339995 1.2508062 0 2.4061946.2384976 3.4661999.71549995 1.0600052.4770024 1.9609961 1.0970961 2.7029998 1.8602999l-1.4309999 1.7171999c-.6360032-.614803-1.3408961-1.0970982-2.1146999-1.4468999s-1.648295-.5247-2.6234999-.5247c-1.1660057 0-2.1040963.2702973-2.8142998.8109s-1.0653 1.2878951-1.0653 2.2418999c0 .5088025.100699.9380982.3021 1.2878999s.4716983.6571986.8109.9221999.7101979.498199 1.1129999.6996.8161979.3868991 1.2402.5565l2.9573998 1.2719999c.5936029.2544013 1.1553973.5458983 1.6853999.8745.5300026.3286016.985798.7101977 1.3673999 1.1447999.3816019.4346021.6836989.943397.9063 1.5263999s.3339 1.2560961.3339 2.0192999c0 .8268041-.1642984 1.6005963-.4929 2.3213999-.3286016.7208035-.8002969 1.3514972-1.4150999 1.8920999-.6148031.5406026-1.3567956.9645984-2.2259999 1.2719999s-1.8549944.4611-2.9573998.4611c-1.4628073 0-2.8195936-.2755972-4.0703998-.8268-1.2508062-.5512027-2.3319953-1.3037951-3.2435999-2.2577999zm21.2423988-14.0873992h-6.2963996v-2.2259999h15.2639991v2.2259999h-6.2963996v18.634799h-2.6711999zm12.7199993-2.2259999h12.0203994v2.2259999h-9.3809995v6.5507997h7.9181996v2.2577998h-7.9181996v7.5683996h9.6989995v2.2577999h-12.3383994zm19.397999 9.8897995h3.4979998c1.6324081 0 2.8831956-.3338967 3.7523996-1.0017s1.3038-1.6800931 1.3038-3.0368998c0-1.3780068-.434596-2.3425971-1.3038-2.8937998-.869204-.5512028-2.1199915-.8268-3.7523996-.8268h-3.4979998zm8.8085994 10.9709994-5.0243996-8.8085995h-3.7841998v8.8085995h-2.6393999v-20.8607989h6.5189997c1.0600052 0 2.0404954.100699 2.9414996.3021.901005.201401 1.674797.5352976 2.3214 1.0017.646603.4664023 1.150098 1.0705962 1.5105 1.8125999.360402.7420036.5406 1.6535945.5406 2.7347998 0 1.6324081-.423996 2.936195-1.272 3.9113998s-1.982193 1.6429981-3.4026 2.0033999l5.2788 9.0947995z"/></g><path d="m829.454852 142.471188c.742003.784403 1.616495 1.415097 2.623499 1.8921 1.007005.477002 2.051095.715499 3.1323.715499 1.378007 0 2.448596-.312696 3.2118-.938099.763204-.625404 1.1448-1.446895 1.1448-2.4645 0-.530003-.090099-.980498-.2703-1.3515s-.423998-.688999-.7314-.954c-.307401-.265002-.673098-.503499-1.0971-.7155s-.879797-.434599-1.3674-.6678l-2.9892-1.3038c-.487602-.212001-.985797-.466399-1.494599-.7632-.508803-.296802-.964598-.657198-1.3674-1.0812s-.731399-.927497-.9858-1.5105c-.254402-.583003-.3816-1.256096-.3816-2.0193 0-.784404.164298-1.515796.4929-2.1942.328601-.678403.784397-1.266697 1.3674-1.7649.583002-.498202 1.271996-.885098 2.066999-1.1607.795004-.275601 1.669496-.413399 2.6235-.413399 1.250806 0 2.406195.238497 3.4662.715499 1.060005.477003 1.960996 1.097097 2.703 1.8603l-1.431 1.7172c-.636003-.614803-1.340896-1.097098-2.1147-1.4469-.773804-.349801-1.648295-.5247-2.6235-.5247-1.166005 0-2.104096.270298-2.8143.8109-.710203.540603-1.065299 1.287895-1.065299 2.2419 0 .508803.100699.938098.3021 1.2879.2014.349802.471698.657199.810899.9222.339202.265001.710198.498199 1.113.6996s.816198.386899 1.2402.5565l2.9574 1.272c.593603.254401 1.155397.545898 1.6854.8745s.985798.710198 1.3674 1.1448.683699.943397.9063 1.5264.3339 1.256096.3339 2.0193c0 .826804-.164298 1.600596-.4929 2.3214-.328602.720803-.800297 1.351497-1.4151 1.892099-.614803.540603-1.356796.964599-2.226 1.272-.869204.307402-1.854994.4611-2.9574.4611-1.462807 0-2.819593-.275597-4.070399-.8268-1.250807-.551202-2.331996-1.303795-3.2436-2.257799zm21.242398-14.0874h-6.296399v-2.226h15.263999v2.226h-6.2964v18.634799h-2.6712zm21.592199 10.1442-.9858-3.18c-.381602-1.166006-.741998-2.326694-1.0812-3.4821-.339201-1.155406-.678398-2.337294-1.0176-3.5457h-.1272c-.318001 1.208406-.646598 2.390294-.985799 3.5457-.339202 1.155406-.699599 2.316094-1.0812 3.4821l-.9858 3.18zm.6678 2.1306h-7.600199l-2.0034 6.359999h-2.703l7.0596-20.860799h2.989199l7.0596 20.860799h-2.8302zm6.5508-4.0704c0-1.674808.238498-3.179993.7155-4.5156.477002-1.335606 1.144796-2.469795 2.0034-3.4026.858604-.932804 1.870894-1.648297 3.0369-2.1465 1.166005-.498202 2.448592-.747299 3.847799-.747299 1.441608 0 2.644695.270297 3.6093.810899.964605.540603 1.754297 1.128897 2.3691 1.7649l-1.4946 1.6854c-.530002-.551202-1.139496-1.012298-1.8285-1.3833-.689003-.371001-1.563494-.5565-2.6235-.5565-1.060005 0-2.013995.196098-2.861999.5883-.848005.392202-1.568797.953997-2.1624 1.6854-.593603.731404-1.054699 1.616495-1.3833 2.6553-.328602 1.038805-.4929 2.204794-.4929 3.498 0 1.314406.153698 2.496295.4611 3.5457.307401 1.049405.752597 1.945096 1.3356 2.6871.583003.742003 1.303795 1.314398 2.1624 1.717199.858604.402802 1.849694.6042 2.973299.6042.742004 0 1.446897-.111298 2.1147-.3339.667804-.222601 1.213698-.524698 1.6377-.906299v-5.4378h-4.4202v-2.1942h6.837v8.776799c-.678403.699604-1.574094 1.277298-2.6871 1.7331-1.113005.455803-2.369093.6837-3.7683.6837-1.378006 0-2.639394-.243797-3.784199-.7314-1.144806-.487602-2.130596-1.192495-2.9574-2.1147-.826804-.922204-1.473398-2.056393-1.9398-3.402599-.466402-1.346207-.6996-2.867292-.6996-4.5633zm20.828999-10.4304h2.6394v20.860799h-2.6394zm8.363399 0h2.7348l7.5366 13.1016 2.2578 4.3248h.1272c-.063601-1.060006-.1325-2.157095-.2067-3.2913-.074201-1.134206-.1113-2.252495-.1113-3.3549v-10.7802h2.5122v20.860799h-2.7348l-7.5684-13.133399-2.2578-4.293h-.1272c.084801 1.060006.1643 2.135895.2385 3.2277.074201 1.091806.1113 2.188894.1113 3.2913v10.907399h-2.5122zm19.366199 10.4304c0-1.674808.238498-3.179993.7155-4.5156.477003-1.335606 1.144796-2.469795 2.0034-3.4026.858604-.932804 1.870894-1.648297 3.0369-2.1465 1.166006-.498202 2.448593-.747299 3.8478-.747299 1.441607 0 2.644695.270297 3.6093.810899.964604.540603 1.754296 1.128897 2.369099 1.7649l-1.494599 1.6854c-.530003-.551202-1.139497-1.012298-1.8285-1.3833-.689004-.371001-1.563495-.5565-2.6235-.5565s-2.013996.196098-2.862.5883-1.568797.953997-2.1624 1.6854c-.593603.731404-1.054698 1.616495-1.3833 2.6553-.328601 1.038805-.4929 2.204794-.4929 3.498 0 1.314406.153699 2.496295.4611 3.5457.307402 1.049405.752597 1.945096 1.3356 2.6871.583003.742003 1.303796 1.314398 2.1624 1.717199.858604.402802 1.849694.6042 2.9733.6042.742003 0 1.446896-.111298 2.1147-.3339.667803-.222601 1.213697-.524698 1.6377-.906299v-5.4378h-4.4202v-2.1942h6.836999v8.776799c-.678403.699604-1.574094 1.277298-2.687099 1.7331-1.113006.455803-2.369093.6837-3.7683.6837-1.378007 0-2.639394-.243797-3.7842-.7314-1.144806-.487602-2.130596-1.192495-2.9574-2.1147-.826804-.922204-1.473397-2.056393-1.9398-3.402599-.466402-1.346207-.6996-2.867292-.6996-4.5633z" fill="#e04733"/><path d="m888.668416 1.13920113h6.3918c1.144805 0 2.194195.10599893 3.148199.31799998.954005.21200105 1.764897.55649758 2.4327 1.03349994.667804.47700236 1.187198 1.10769602 1.5582 1.8920999s.5565 1.74899418.5565 2.89379984c0 1.10240546-.185498 2.05639587-.5565 2.86199981-.371002.805604-.895696 1.4733973-1.5741 2.0033999-.678403.5300027-1.489295.9274987-2.4327 1.1925-.943404.2650013-1.987494.3974999-3.132299.3974999h-3.7524v8.2679996h-2.6394zm6.0738 10.43039947c1.823209 0 3.174695-.3444966 4.054499-1.0335.879805-.68900339 1.3197-1.77549247 1.3197-3.25949981 0-1.50520744-.445195-2.54929694-1.3356-3.13229983-.890404-.58300288-2.236591-.87449995-4.038599-.87449995h-3.4344v8.29979959zm14.882399-.5406h3.498c1.632408 0 2.883195-.3338967 3.752399-1.0017.869205-.66780326 1.3038-1.68009308 1.3038-3.03689979 0-1.37800682-.434595-2.34259712-1.3038-2.89379984-.869204-.55120273-2.119991-.82679996-3.752399-.82679996h-3.498zm8.808599 10.9709994-5.024399-8.8085995h-3.7842v8.8085995h-2.6394v-20.86079887h6.519c1.060005 0 2.040495.10069898 2.941499.30209998.901005.201401 1.674797.53529764 2.3214 1.00169995.646603.4664023 1.150098 1.07059623 1.5105 1.8125999s.5406 1.6535945.5406 2.73479985c0 1.63240807-.423996 2.93619497-1.272 3.91139979-.848004.9752048-1.982193 1.6429981-3.4026 2.0033999l5.2788 9.0947995zm14.723399.3816c-1.314406 0-2.517494-.2543975-3.609299-.7632-1.091806-.5088025-2.029896-1.2348952-2.8143-2.1782999-.784404-.9434046-1.393898-2.0881931-1.8285-3.4343998-.434602-1.3462066-.6519-2.8566914-.6519-4.5314997 0-1.67480832.217298-3.17469324.6519-4.49969979s1.044096-2.44859526 1.8285-3.37079982 1.722494-1.62709747 2.8143-2.11469988c1.091805-.48760241 2.294893-.73139996 3.609299-.73139996 1.314407 0 2.517495.24909749 3.6093.74729996 1.091806.49820246 2.035196 1.20839532 2.8302 2.13059988s1.409798 2.04579327 1.8444 3.37079982.6519 2.81429158.6519 4.46789979c0 1.6748083-.217298 3.1852931-.6519 4.5314997-.434602 1.3462067-1.049396 2.4909952-1.8444 3.4343998-.795004.9434047-1.738394 1.6694974-2.8302 2.1782999-1.091805.5088025-2.294893.7632-3.6093.7632zm0-2.3213999c.932805 0 1.775497-.201398 2.5281-.6042.752604-.402802 1.399198-.9804961 1.9398-1.7330999.540603-.7526037.959299-1.6535946 1.2561-2.7029998.296802-1.0494052.4452-2.2312933.4452-3.5456998 0-1.2932064-.148398-2.45919471-.4452-3.49799984-.296801-1.03880514-.715497-1.9185963-1.2561-2.63939986-.540602-.72080357-1.187196-1.27729797-1.9398-1.66949991-.752603-.39220194-1.595295-.58829997-2.5281-.58829997-.932804 0-1.775496.19609803-2.528099.58829997-.752604.39220194-1.399198.94869634-1.9398 1.66949991-.540603.72080356-.959299 1.60059472-1.2561 2.63939986-.296802 1.03880513-.4452 2.20479344-.4452 3.49799984 0 1.3144065.148398 2.4962946.4452 3.5456998.296801 1.0494052.715497 1.9503961 1.2561 2.7029998.540602.7526038 1.187196 1.3302979 1.9398 1.7330999.752603.402802 1.595295.6042 2.528099.6042zm13.4196-18.92099897h5.215199c3.222416 0 5.670992.89039104 7.3458 2.67119985s2.5122 4.33538313 2.5122 7.66379962c0 1.6536081-.211998 3.1322933-.636 4.4360997-.424002 1.3038065-1.049396 2.4061954-1.8762 3.3071999-.826804.9010044-1.844394 1.5899975-3.0528 2.0669998-1.208406.4770024-2.596992.7155-4.1658.7155h-5.342399zm5.024399 18.69839897c2.438013 0 4.266494-.7313926 5.4855-2.1941999 1.219006-1.4628072 1.8285-3.5191865 1.8285-6.1691996 0-2.65001314-.609494-4.67459278-1.8285-6.0737997s-3.047487-2.09879989-5.4855-2.09879989h-2.384999v16.53599909zm14.4372-18.69839897h2.6394v12.30659937c0 1.2508061.127198 2.3001956.3816 3.1481998.254401.8480042.598897 1.5263974 1.033499 2.0351999.434603.5088025.948697.8744988 1.5423 1.0970999s1.229597.3339 1.908.3339c.699604 0 1.346197-.1112989 1.9398-.3339s1.112998-.5882974 1.5582-1.0970999.794999-1.1871957 1.0494-2.0351999.3816-1.8973937.3816-3.1481998v-12.30659937h2.544v12.24299937c0 1.6748082-.190798 3.0845941-.5724 4.2293997-.381602 1.1448057-.906297 2.0722964-1.5741 2.7824999s-1.457495 1.2189984-2.3691 1.5263999c-.911604.3074015-1.897394.4611-2.9574.4611-1.060005 0-2.051095-.1536985-2.9733-.4611-.922204-.3074015-1.717196-.8161964-2.384999-1.5263999-.667804-.7102035-1.192498-1.6376942-1.5741-2.7824999-.381602-1.1448056-.5724-2.5545915-.5724-4.2293997zm19.397999 10.43039947c0-1.67480832.233197-3.17999319.6996-4.51559979.466402-1.33560661 1.112995-2.46979521 1.939799-3.40259982.826805-.93280461 1.807295-1.64829742 2.9415-2.14649988 1.134206-.49820247 2.369094-.74729996 3.7047-.74729996 1.272006 0 2.384995.25969739 3.339.77909995.954005.51940257 1.738397 1.11829655 2.3532 1.79669991l-1.4946 1.68539991c-.551203-.59360294-1.160697-1.0652982-1.8285-1.41509993s-1.446895-.52469997-2.3373-.52469997c-.996405 0-1.897396.19609803-2.703.58829997s-1.494597.95399629-2.067 1.68539991c-.572402.73140362-1.017598 1.61649472-1.3356 2.65529986-.318001 1.03880513-.477 2.20479344-.477 3.49799984 0 1.3144065.153699 2.4962946.4611 3.5456998.307402 1.0494052.736698 1.9450962 1.2879 2.6870998.551203.7420037 1.224296 1.3143979 2.0193 1.7171999s1.690695.6042 2.6871.6042c1.017605 0 1.902696-.201398 2.6553-.6042s1.468097-.9751962 2.1465-1.7171999l1.4946 1.6217999c-.8268.9540048-1.759595 1.6959973-2.7984 2.2259999s-2.225993.795-3.5616.795c-1.314406 0-2.528094-.2437976-3.6411-.7314-1.113005-.4876024-2.077595-1.1924953-2.8938-2.1146999-.816204-.9222045-1.452197-2.0563931-1.907999-3.4025998-.455803-1.3462066-.6837-2.8672913-.6837-4.5632997zm23.690999-8.20439959h-6.2964v-2.22599988h15.264v2.22599988h-6.2964v18.63479899h-2.6712zm12.72-2.22599988h2.6394v20.86079887h-2.6394zm16.059 21.24239887c-1.31441 0-2.5175-.2543975-3.6093-.7632-1.09181-.5088025-2.0299-1.2348952-2.8143-2.1782999-.78441-.9434046-1.3939-2.0881931-1.8285-3.4343998-.4346-1.3462066-.6519-2.8566914-.6519-4.5314997 0-1.67480832.2173-3.17469324.6519-4.49969979s1.04409-2.44859526 1.8285-3.37079982c.7844-.92220456 1.72249-1.62709747 2.8143-2.11469988 1.0918-.48760241 2.29489-.73139996 3.6093-.73139996 1.3144 0 2.51749.24909749 3.6093.74729996 1.0918.49820246 2.03519 1.20839532 2.8302 2.13059988.795.92220456 1.4098 2.04579327 1.8444 3.37079982s.6519 2.81429158.6519 4.46789979c0 1.6748083-.2173 3.1852931-.6519 4.5314997-.4346 1.3462067-1.0494 2.4909952-1.8444 3.4343998-.79501.9434047-1.7384 1.6694974-2.8302 2.1782999-1.09181.5088025-2.2949.7632-3.6093.7632zm0-2.3213999c.9328 0 1.77549-.201398 2.5281-.6042.7526-.402802 1.39919-.9804961 1.9398-1.7330999.5406-.7526037.9593-1.6535946 1.2561-2.7029998s.4452-2.2312933.4452-3.5456998c0-1.2932064-.1484-2.45919471-.4452-3.49799984-.2968-1.03880514-.7155-1.9185963-1.2561-2.63939986-.54061-.72080357-1.1872-1.27729797-1.9398-1.66949991-.75261-.39220194-1.5953-.58829997-2.5281-.58829997-.93281 0-1.7755.19609803-2.5281.58829997-.75261.39220194-1.3992.94869634-1.9398 1.66949991-.5406.72080356-.9593 1.60059472-1.2561 2.63939986-.2968 1.03880513-.4452 2.20479344-.4452 3.49799984 0 1.3144065.1484 2.4962946.4452 3.5456998s.7155 1.9503961 1.2561 2.7029998c.5406.7526038 1.18719 1.3302979 1.9398 1.7330999.7526.402802 1.59529.6042 2.5281.6042zm13.4196-18.92099897h2.7348l7.5366 13.10159927 2.2578 4.3247998h.1272c-.0636-1.0600053-.1325-2.1570942-.2067-3.2912998s-.1113-2.2524944-.1113-3.3548999v-10.78019937h2.5122v20.86079887h-2.7348l-7.5684-13.13339929-2.2578-4.29299977h-.1272c.0848 1.06000524.1643 2.13589443.2385 3.22769983s.1113 2.18889437.1113 3.29129983v10.9073994h-2.5122z" fill="#e04733"/><path d="m282.270169 382h216.007505v-4h-216.007505z" fill="#e0513e"/><path d="m277.201592 391.484016 5.828093 5.825026 2.827683-2.829172-5.828094-5.825026zm8.996765 8.99203 5.828093 5.825025 2.827683-2.829171-5.828094-5.825026zm8.996765 8.992029 5.828094 5.825026 2.827682-2.829172-5.828093-5.825025zm8.996766 8.99203 5.828093 5.825026 2.827682-2.829172-5.828093-5.825026zm8.996765 8.99203 5.828093 5.825025 2.827683-2.829171-5.828094-5.825026zm8.996765 8.992029 5.828093 5.825026 2.827683-2.829172-5.828094-5.825025zm8.996765 8.99203 5.828094 5.825026 2.827682-2.829172-5.828093-5.825026zm8.996766 8.99203 5.828093 5.825025 2.827682-2.829171-5.828093-5.825026zm8.996765 8.992029 5.828093 5.825026 2.827683-2.829172-5.828094-5.825025zm8.996765 8.99203 5.828093 5.825026 2.827683-2.829172-5.828093-5.825026zm8.996765 8.99203 5.828094 5.825025 2.827682-2.829171-5.828093-5.825026zm8.996766 8.992029 5.828093 5.825026 2.827682-2.829172-5.828093-5.825025z" fill="#e0513e"/><path d="m516.770072 391.484016 5.828093 5.825026 2.827683-2.829172-5.828094-5.825026zm8.996765 8.99203 5.828094 5.825025 2.827682-2.829171-5.828093-5.825026zm8.996766 8.992029 5.828093 5.825026 2.827682-2.829172-5.828093-5.825025zm8.996765 8.99203 5.828093 5.825026 2.827683-2.829172-5.828094-5.825026zm8.996765 8.99203 5.828093 5.825025 2.827683-2.829171-5.828093-5.825026zm8.996765 8.992029 5.828094 5.825026 2.827682-2.829172-5.828093-5.825025zm8.996766 8.99203 5.828093 5.825026 2.827682-2.829172-5.828093-5.825026zm8.996765 8.99203 5.828093 5.825025 2.827683-2.829171-5.828094-5.825026zm8.996765 8.992029 5.828094 5.825026 2.827682-2.829172-5.828093-5.825025zm8.996765 8.99203 5.828094 5.825026 2.827682-2.829172-5.828093-5.825026zm8.996766 8.99203 5.828093 5.825025 2.827682-2.829171-5.828093-5.825026zm8.996765 8.992029 5.828093 5.825026 2.827683-2.829172-5.828094-5.825025z" fill="#e0513e"/><path d="m756.338552 391.484016 5.828094 5.825026 2.827682-2.829172-5.828093-5.825026zm8.996766 8.99203 5.828093 5.825025 2.827682-2.829171-5.828093-5.825026zm8.996765 8.992029 5.828093 5.825026 2.827683-2.829172-5.828094-5.825025zm8.996765 8.99203 5.828093 5.825026 2.827683-2.829172-5.828093-5.825026zm8.996765 8.99203 5.828094 5.825025 2.827682-2.829171-5.828093-5.825026zm8.996766 8.992029 5.828093 5.825026 2.827682-2.829172-5.828093-5.825025zm8.996765 8.99203 5.828093 5.825026 2.827683-2.829172-5.828094-5.825026zm8.996765 8.99203 5.828094 5.825025 2.827682-2.829171-5.828093-5.825026zm8.996765 8.992029 5.828094 5.825026 2.827682-2.829172-5.828093-5.825025zm8.996766 8.99203 5.828093 5.825026 2.827683-2.829172-5.828094-5.825026zm8.996765 8.99203 5.828093 5.825025 2.827683-2.829171-5.828094-5.825026zm8.996765 8.992029 5.828094 5.825026 2.827682-2.829172-5.828093-5.825025z" fill="#e0513e"/><path d="m880.010512 252.341438 5.828094-5.825025-2.827683-2.829172-5.828093 5.825026zm8.996766-8.992029 5.828093-5.825026-2.827682-2.829172-5.828094 5.825026zm8.996765-8.99203 5.828093-5.825026-2.827682-2.829171-5.828093 5.825025zm8.996765-8.99203 5.828094-5.825025-2.827683-2.829172-5.828093 5.825026zm8.996765-8.992029 5.828094-5.825026-2.827683-2.829172-5.828093 5.825026zm8.996766-8.99203 5.828093-5.825026-2.827682-2.829171-5.828094 5.825025zm8.996765-8.99203 5.828093-5.825025-2.827682-2.829172-5.828093 5.825026zm8.996765-8.992029 5.828094-5.825026-2.827683-2.829172-5.828093 5.825026zm8.996766-8.99203 5.828093-5.825026-2.827683-2.829171-5.828093 5.825025zm8.996765-8.99203 5.828093-5.825025-2.827682-2.829172-5.828094 5.825026zm8.996765-8.992029 5.828093-5.825026-2.827682-2.829172-5.828093 5.825026zm8.996765-8.99203 5.828094-5.825026-2.827683-2.829171-5.828093 5.825025z" fill="#e0513e"/><path d="m1114.27955 23.0223048c4.81664 0 8.72045-3.9017524 8.72045-8.7137546 0-4.81200223-3.90381-8.71375466-8.72045-8.71375466s-8.72045 3.90175243-8.72045 8.71375466c0 4.8120022 3.90381 8.7137546 8.72045 8.7137546zm0 4c-7.02531 0-12.72045-5.6921418-12.72045-12.7137546 0-7.02161282 5.69514-12.71375466 12.72045-12.71375466s12.72045 5.69214184 12.72045 12.71375466c0 7.0216128-5.69514 12.7137546-12.72045 12.7137546z" fill="#e04733"/><path d="m758.424239 374.304508 106.375976-107.900391-2.848477-2.808234-106.375977 107.900391z" fill="#e04733"/><path d="m1000.57718 131.539201 108.95508-106.8603516-2.80085-2.8557456-108.955073 106.8603512z" fill="#e04733"/><path d="m510.058161 389.60223c4.816643 0 8.720451-3.901752 8.720451-8.713754s-3.903808-8.713755-8.720451-8.713755-8.72045 3.901753-8.72045 8.713755 3.903807 8.713754 8.72045 8.713754zm0 4c-7.02531 0-12.72045-5.692141-12.72045-12.713754s5.69514-12.713755 12.72045-12.713755c7.025311 0 12.720451 5.692142 12.720451 12.713755s-5.69514 12.713754-12.720451 12.713754z" fill="#e04733"/><path d="m521.838649 382h216.007505v-4h-216.007505z" fill="#e0513e"/><g fill="#e04733"><path d="m749.626642 389.60223c4.816643 0 8.72045-3.901752 8.72045-8.713754s-3.903807-8.713755-8.72045-8.713755-8.720451 3.901753-8.720451 8.713755 3.903808 8.713754 8.720451 8.713754zm0 4c-7.025311 0-12.720451-5.692141-12.720451-12.713754s5.69514-12.713755 12.720451-12.713755c7.02531 0 12.72045 5.692142 12.72045 12.713755s-5.69514 12.713754-12.72045 12.713754z"/><path d="m270.489681 389.60223c4.816643 0 8.72045-3.901752 8.72045-8.713754s-3.903807-8.713755-8.72045-8.713755-8.72045 3.901753-8.72045 8.713755 3.903807 8.713754 8.72045 8.713754zm0 4c-7.025311 0-12.72045-5.692141-12.72045-12.713754s5.695139-12.713755 12.72045-12.713755 12.72045 5.692142 12.72045 12.713755-5.695139 12.713754-12.72045 12.713754z"/><path d="m630.902439 510.3829c4.816643 0 8.72045-3.901753 8.72045-8.713755s-3.903807-8.713755-8.72045-8.713755-8.72045 3.901753-8.72045 8.713755 3.903807 8.713755 8.72045 8.713755zm0 4c-7.025311 0-12.72045-5.692142-12.72045-12.713755s5.695139-12.713755 12.72045-12.713755 12.72045 5.692142 12.72045 12.713755-5.695139 12.713755-12.72045 12.713755z"/><path d="m870.470919 510.3829c4.816643 0 8.720451-3.901753 8.720451-8.713755s-3.903808-8.713755-8.720451-8.713755-8.72045 3.901753-8.72045 8.713755 3.903807 8.713755 8.72045 8.713755zm0 4c-7.02531 0-12.72045-5.692142-12.72045-12.713755s5.69514-12.713755 12.72045-12.713755c7.025311 0 12.720451 5.692142 12.720451 12.713755s-5.69514 12.713755-12.720451 12.713755z"/><path d="m391.333959 510.3829c4.816643 0 8.72045-3.901753 8.72045-8.713755s-3.903807-8.713755-8.72045-8.713755-8.720451 3.901753-8.720451 8.713755 3.903808 8.713755 8.720451 8.713755zm0 4c-7.025311 0-12.720451-5.692142-12.720451-12.713755s5.69514-12.713755 12.720451-12.713755c7.02531 0 12.72045 5.692142 12.72045 12.713755s-5.69514 12.713755-12.72045 12.713755z"/><path d="m28.833894 372.064086h-6.2963997v-2.226h15.2639992v2.226h-6.2963997v18.634799h-2.6711998zm20.4155989 19.016399c-1.3144065 0-2.5174944-.254398-3.6092998-.7632-1.0918054-.508803-2.029896-1.234895-2.8142999-2.1783s-1.3938977-2.088193-1.8284999-3.4344c-.4346021-1.346207-.6518999-2.856691-.6518999-4.5315 0-1.674808.2172978-3.174693.6518999-4.499699.4346022-1.325007 1.044096-2.448596 1.8284999-3.3708.7844039-.922205 1.7224945-1.627098 2.8142999-2.1147 1.0918054-.487603 2.2948933-.7314 3.6092998-.7314s2.5174944.249097 3.6092998.7473c1.0918054.498202 2.0351959 1.208395 2.8301998 2.1306.795004.922204 1.4097978 2.045793 1.8443999 3.3708.4346022 1.325006.6519 2.814291.6519 4.467899 0 1.674809-.2172978 3.185293-.6519 4.5315-.4346021 1.346207-1.0493959 2.490995-1.8443999 3.4344-.7950039.943405-1.7383944 1.669497-2.8301998 2.1783-1.0918054.508802-2.2948933.7632-3.6092998.7632zm0-2.3214c.9328046 0 1.7754961-.201398 2.5280998-.6042.7526038-.402802 1.3991973-.980496 1.9397999-1.7331.5406027-.752604.9592985-1.653595 1.2561-2.703.2968014-1.049405.4451999-2.231293.4451999-3.5457 0-1.293206-.1483985-2.459194-.4451999-3.497999-.2968015-1.038806-.7154973-1.918597-1.2561-2.6394-.5406026-.720804-1.1871961-1.277298-1.9397999-1.6695-.7526037-.392202-1.5952952-.5883-2.5280998-.5883s-1.7754962.196098-2.5280999.5883-1.3991972.948696-1.9397999 1.6695c-.5406027.720803-.9592984 1.600594-1.2560999 2.6394-.2968015 1.038805-.4452 2.204793-.4452 3.497999 0 1.314407.1483985 2.496295.4452 3.5457s.7154972 1.950396 1.2560999 2.703 1.1871962 1.330298 1.9397999 1.7331 1.5952953.6042 2.5280999.6042zm13.4195993-18.920999h6.3917996c1.1448057 0 2.1941951.105999 3.1481998.318.9540048.212001 1.7648966.556497 2.4326999 1.0335.6678033.477002 1.1871981 1.107696 1.5581999 1.8921.3710019.784404.5565 1.748994.5565 2.8938 0 1.102405-.1854981 2.056395-.5565 2.861999-.3710018.805604-.8956965 1.473398-1.5740999 2.0034-.6784033.530003-1.4892952.927499-2.4326999 1.1925-.9434046.265002-1.9874941.3975-3.1322998.3975h-3.7523998v8.268h-2.6393998zm6.0737996 10.430399c1.823209 0 3.1746955-.344496 4.0544998-1.0335.8798044-.689003 1.3196999-1.775492 1.3196999-3.259499 0-1.505208-.4451955-2.549297-1.3355999-3.1323s-2.2365909-.8745-4.0385998-.8745h-3.4343998v8.299799zm12.2429994-10.430399h2.6393998v20.860799h-2.6393998zm7.1549996 10.430399c0-1.674808.2331976-3.179993.6995999-4.515599.4664023-1.335607 1.1129958-2.469796 1.9397999-3.4026.8268041-.932805 1.8072943-1.648298 2.9414999-2.1465 1.1342056-.498203 2.3690932-.7473 3.7046998-.7473 1.2720063 0 2.3849951.259697 3.3389997.7791.954005.519402 1.738397 1.118296 2.3532 1.7967l-1.4946 1.6854c-.551203-.593603-1.160697-1.065299-1.8284999-1.4151-.6678033-.349802-1.4468954-.5247-2.3372998-.5247-.996405 0-1.8973959.196098-2.7029999.5883s-1.494597.953996-2.0669999 1.6854c-.5724028.731403-1.0175983 1.616494-1.3355999 2.6553-.3180016 1.038805-.477 2.204793-.477 3.497999 0 1.314407.1536985 2.496295.4611 3.5457s.7366972 1.945096 1.2878999 2.6871c.5512028.742004 1.224296 1.314398 2.0192999 1.7172.795004.402802 1.690695.6042 2.6870999.6042 1.017605 0 1.9026961-.201398 2.6552998-.6042.7526039-.402802 1.4680969-.975196 2.1464999-1.7172l1.4946 1.6218c-.826804.954005-1.759595 1.695997-2.7984 2.226-1.038805.530002-2.2259931.795-3.5615997.795-1.3144065 0-2.5280943-.243798-3.6410998-.7314-1.1130055-.487603-2.0775958-1.192496-2.8937999-2.1147-.816204-.922205-1.4521976-2.056393-1.9079999-3.4026-.4558022-1.346207-.6836999-2.867291-.6836999-4.5633zm25.7897982-10.430399h6.201c1.060005 0 2.029896.095399 2.9097.2862s1.632397.487598 2.2578.8904 1.112998.927497 1.4628 1.5741c.349801.646603.5247 1.425695.5247 2.3373 0 1.038805-.296797 1.976895-.8904 2.814299-.593603.837405-1.505194 1.415099-2.7348 1.7331v.1272c1.526407.233202 2.713595.763196 3.5616 1.59.848004.826804 1.272 1.960993 1.272 3.4026 0 1.017605-.190798 1.907996-.5724 2.6712s-.922197 1.399197-1.6218 1.908c-.699604.508802-1.536995.890399-2.5122 1.1448s-2.045794.3816-3.2118.3816h-6.6462zm5.724 8.903999c1.802009 0 3.089896-.307397 3.8637-.9222s1.1607-1.505194 1.1607-2.671199c0-1.144806-.408096-1.966298-1.2243-2.4645-.816204-.498203-2.040492-.7473-3.6729-.7473h-3.2118v6.805199zm.5406 9.858c1.802009 0 3.201195-.333897 4.1976-1.0017s1.4946-1.711893 1.4946-3.1323c0-1.293206-.487595-2.241897-1.4628-2.8461s-2.384991-.9063-4.2294-.9063h-3.6252v7.8864zm15.073199-8.8722h3.498c1.632408 0 2.883196-.333896 3.7524-1.0017.869204-.667803 1.3038-1.680093 1.3038-3.036899 0-1.378007-.434596-2.342598-1.3038-2.8938-.869204-.551203-2.119992-.8268-3.7524-.8268h-3.498zm8.8086 10.971-5.0244-8.8086h-3.7842v8.8086h-2.6394v-20.860799h6.519c1.060005 0 2.040495.100699 2.9415.3021.901004.201401 1.674797.535298 2.3214 1.0017s1.150098 1.070596 1.5105 1.8126c.360401.742003.5406 1.653594.5406 2.7348 0 1.632408-.423996 2.936195-1.272 3.911399-.848004.975205-1.982193 1.642998-3.4026 2.0034l5.2788 9.0948zm15.899999-8.4906-.9858-3.18c-.381602-1.166005-.741998-2.326694-1.0812-3.482099-.339202-1.155406-.678398-2.337294-1.0176-3.5457h-.1272c-.318001 1.208406-.646598 2.390294-.9858 3.5457-.339202 1.155405-.699598 2.316094-1.0812 3.482099l-.9858 3.18zm.6678 2.1306h-7.6002l-2.0034 6.36h-2.702999l7.059599-20.860799h2.9892l7.0596 20.860799h-2.8302zm7.759199-14.500799h2.7348l7.5366 13.101599 2.2578 4.3248h.1272c-.063601-1.060005-.1325-2.157094-.2067-3.2913-.074201-1.134205-.1113-2.252494-.1113-3.3549v-10.780199h2.5122v20.860799h-2.7348l-7.5684-13.1334-2.2578-4.292999h-.1272c.084801 1.060005.1643 2.135894.2385 3.2277.074201 1.091805.1113 2.188894.1113 3.291299v10.9074h-2.5122zm19.366199 10.430399c0-1.674808.233198-3.179993.6996-4.515599.466403-1.335607 1.112996-2.469796 1.9398-3.4026.826804-.932805 1.807294-1.648298 2.9415-2.1465 1.134206-.498203 2.369093-.7473 3.7047-.7473 1.272006 0 2.384995.259697 3.339.7791.954004.519402 1.738397 1.118296 2.3532 1.7967l-1.4946 1.6854c-.551203-.593603-1.160697-1.065299-1.8285-1.4151-.667804-.349802-1.446896-.5247-2.3373-.5247-.996405 0-1.897396.196098-2.703.5883s-1.494597.953996-2.067 1.6854c-.572403.731403-1.017598 1.616494-1.3356 2.6553-.318001 1.038805-.477 2.204793-.477 3.497999 0 1.314407.153699 2.496295.4611 3.5457.307402 1.049405.736697 1.945096 1.2879 2.6871s1.224296 1.314398 2.0193 1.7172 1.690695.6042 2.6871.6042c1.017605 0 1.902696-.201398 2.6553-.6042.752603-.402802 1.468096-.975196 2.1465-1.7172l1.4946 1.6218c-.826805.954005-1.759595 1.695997-2.7984 2.226-1.038805.530002-2.225993.795-3.5616.795-1.314407 0-2.528094-.243798-3.6411-.7314-1.113005-.487603-2.077596-1.192496-2.8938-2.1147-.816204-.922205-1.452197-2.056393-1.908-3.4026-.455802-1.346207-.6837-2.867291-.6837-4.5633zm19.366199-10.430399h2.6394v8.744999h9.699v-8.744999h2.6712v20.860799h-2.6712v-9.8262h-9.699v9.8262h-2.6394z"/><path d="m687.15753 304.150354h3.116399l4.0386 11.193599 1.5264 4.2612h.1272l1.4628-4.2612 4.0068-11.193599h3.1164v20.860798h-2.5122v-11.479799c0-.932805.037099-1.960994.1113-3.0846.0742-1.123605.153699-2.151795.2385-3.0846h-.1272l-1.6854 4.6428-4.0068 10.9074h-1.4946l-4.0386-10.9074-1.6536-4.6428h-.1272c.063601.932805.1378 1.960995.2226 3.0846.084801 1.123606.1272 2.151795.1272 3.0846v11.479799h-2.448599zm23.118598 0h12.0204v2.225999h-9.381v6.5508h7.9182v2.2578h-7.9182v7.5684h9.699v2.257799h-12.3384zm19.397999 9.889799h3.498c1.632408 0 2.883196-.333897 3.7524-1.0017s1.3038-1.680093 1.3038-3.0369c0-1.378007-.434596-2.342597-1.3038-2.8938-.869204-.551202-2.119992-.8268-3.7524-.8268h-3.498zm8.8086 10.970999-5.0244-8.808599h-3.7842v8.808599h-2.6394v-20.860798h6.519c1.060005 0 2.040495.100699 2.9415.3021.901004.201401 1.674797.535297 2.3214 1.001699.646603.466403 1.150098 1.070597 1.5105 1.8126.360401.742004.5406 1.653595.5406 2.7348 0 1.632408-.423996 2.936195-1.272 3.9114s-1.982193 1.642998-3.4026 2.0034l5.2788 9.094799zm5.819399-10.430399c0-1.674808.238498-3.179993.7155-4.5156.477003-1.335606 1.144796-2.469795 2.0034-3.4026.858605-.932804 1.870894-1.648297 3.0369-2.146499 1.166006-.498203 2.448593-.7473 3.8478-.7473 1.441607 0 2.644695.270297 3.6093.8109.964605.540602 1.754297 1.128896 2.3691 1.764899l-1.4946 1.6854c-.530003-.551202-1.139497-1.012298-1.8285-1.3833-.689004-.371001-1.563495-.5565-2.6235-.5565s-2.013996.196098-2.862.5883-1.568797.953997-2.1624 1.6854c-.593603.731404-1.054698 1.616495-1.3833 2.6553-.328601 1.038805-.4929 2.204794-.4929 3.498 0 1.314406.153699 2.496295.4611 3.5457.307402 1.049405.752597 1.945096 1.3356 2.6871.583003.742003 1.303796 1.314398 2.1624 1.7172s1.849694.6042 2.9733.6042c.742004 0 1.446897-.111299 2.1147-.3339.667803-.222602 1.213698-.524699 1.6377-.9063v-5.4378h-4.4202v-2.1942h6.837v8.7768c-.678404.699603-1.574095 1.277297-2.6871 1.733099-1.113006.455803-2.369093.6837-3.7683.6837-1.378007 0-2.639394-.243797-3.7842-.7314-1.144805-.487602-2.130596-1.192495-2.9574-2.114699-.826804-.922205-1.473397-2.056394-1.9398-3.4026-.466402-1.346207-.6996-2.867292-.6996-4.5633zm20.828999-10.430399h12.0204v2.225999h-9.381v6.5508h7.9182v2.2578h-7.9182v7.5684h9.699v2.257799h-12.3384z"/><path d="m189.429182 500.508554h3.498c1.632408 0 2.883195-.333896 3.752399-1.001699.869205-.667804 1.3038-1.680094 1.3038-3.0369 0-1.378007-.434595-2.342597-1.3038-2.8938-.869204-.551203-2.119991-.8268-3.752399-.8268h-3.498zm8.808599 10.971-5.024399-8.8086h-3.7842v8.8086h-2.6394v-20.860799h6.519c1.060005 0 2.040495.100699 2.941499.3021.901005.201401 1.674797.535298 2.3214 1.0017s1.150098 1.070596 1.5105 1.8126.5406 1.653594.5406 2.7348c0 1.632408-.423996 2.936195-1.272 3.9114-.848004.975204-1.982193 1.642998-3.4026 2.003399l5.2788 9.0948zm7.0278-20.860799h12.020399v2.226h-9.380999v6.5508h7.918199v2.257799h-7.918199v7.5684h9.698999v2.2578h-12.338399zm13.896599 0h2.8302l3.339 11.257199c.381602 1.250807.715498 2.406195 1.0017 3.4662.286201 1.060005.630698 2.204794 1.0335 3.4344h.1272c.381602-1.229606.720798-2.374395 1.0176-3.4344.296801-1.060005.625398-2.215393.9858-3.4662l3.338999-11.257199h2.703l-6.614399 20.860799h-3.0846zm19.238999 0h2.6394v20.860799h-2.6394zm8.3634 0h12.020399v2.226h-9.381v6.5508h7.9182v2.257799h-7.9182v7.5684h9.699v2.2578h-12.338399zm14.627999 0h2.7348l2.1942 11.352599c.190801 1.144806.392198 2.268395.6042 3.3708.212001 1.102406.413399 2.225994.604199 3.3708h.1272c.233202-1.144806.476999-2.273694.7314-3.3867.254402-1.113005.498199-2.231294.7314-3.3549l2.8938-11.352599h2.4168l2.8938 11.352599c.254401 1.102406.508799 2.215395.7632 3.339.254401 1.123606.508799 2.257794.7632 3.4026h.1272c.190801-1.144806.381599-2.273694.5724-3.3867.190801-1.113005.392199-2.231294.6042-3.3549l2.1942-11.352599h2.544l-4.3248 20.860799h-3.18l-3.1482-12.560999c-.190801-.805604-.365699-1.595296-.5247-2.3691s-.323299-1.563496-.4929-2.3691h-.1272c-.169601.805604-.344499 1.595296-.5247 2.3691s-.355099 1.563496-.5247 2.3691l-3.0846 12.560999h-3.148199zm42.421198 12.370199-.9858-3.179999c-.381602-1.166006-.741999-2.326695-1.0812-3.4821-.339202-1.155406-.678399-2.337294-1.0176-3.5457h-.1272c-.318002 1.208406-.646599 2.390294-.9858 3.5457-.339202 1.155405-.699598 2.316094-1.0812 3.4821l-.9858 3.179999zm.6678 2.1306h-7.6002l-2.0034 6.36h-2.703l7.0596-20.860799h2.9892l7.059599 20.860799h-2.8302zm7.759199-14.500799h6.3918c1.144805 0 2.194195.105999 3.1482.318.954004.212001 1.764896.556498 2.432699 1.0335.667804.477002 1.187199 1.107696 1.5582 1.8921.371002.784404.5565 1.748994.5565 2.8938 0 1.102405-.185498 2.056396-.5565 2.862-.371001.805604-.895696 1.473397-1.5741 2.003399-.678403.530003-1.489295.927499-2.432699 1.1925-.943405.265002-1.987495.3975-3.1323.3975h-3.7524v8.268h-2.6394zm6.0738 10.430399c1.823209 0 3.174695-.344496 4.0545-1.033499.879804-.689004 1.319699-1.775493 1.319699-3.2595 0-1.505208-.445195-2.549297-1.335599-3.1323-.890405-.583003-2.236591-.8745-4.0386-.8745h-3.4344v8.299799zm12.242999-10.430399h6.3918c1.144805 0 2.194195.105999 3.1482.318.954004.212001 1.764896.556498 2.432699 1.0335.667804.477002 1.187199 1.107696 1.5582 1.8921.371002.784404.5565 1.748994.5565 2.8938 0 1.102405-.185498 2.056396-.5565 2.862-.371001.805604-.895696 1.473397-1.5741 2.003399-.678403.530003-1.489295.927499-2.432699 1.1925-.943405.265002-1.987495.3975-3.1323.3975h-3.7524v8.268h-2.6394zm6.0738 10.430399c1.823209 0 3.174695-.344496 4.0545-1.033499.879804-.689004 1.319699-1.775493 1.319699-3.2595 0-1.505208-.445195-2.549297-1.335599-3.1323-.890405-.583003-2.236591-.8745-4.0386-.8745h-3.4344v8.299799z"/><path d="m281.839315 443.148434c0-1.254024-.443634-2.324661-1.330915-3.211942s-1.957918-1.330915-3.211942-1.330915-2.324661.443634-3.211942 1.330915-1.330915 1.957918-1.330915 3.211942.443634 2.324661 1.330915 3.211942 1.957918 1.330915 3.211942 1.330915 2.324661-.443634 3.211942-1.330915 1.330915-1.957918 1.330915-3.211942zm13.628571 9.085714c0-.615182-.224775-1.147543-.674331-1.597098-.449556-.449556-.981916-.674331-1.597098-.674331s-1.147542.224775-1.597098.674331c-.449556.449555-.67433.981916-.67433 1.597098 0 .627012.221817 1.16233.665457 1.605971.443641.44364.978959.665457 1.605971.665457s1.16233-.221817 1.605971-.665457c.443641-.443641.665458-.978959.665458-1.605971zm0-18.171428c0-.615181-.224775-1.147542-.674331-1.597098s-.981916-.67433-1.597098-.67433-1.147542.224774-1.597098.67433-.67433.981917-.67433 1.597098c0 .627012.221817 1.16233.665457 1.605971.443641.443641.978959.665458 1.605971.665458s1.16233-.221817 1.605971-.665458.665458-.978959.665458-1.605971zm-6.814286 7.47087v3.282924c0 .118304-.041406.233649-.124219.346038-.082812.112389-.177454.174498-.283928.186328l-2.750558.425893c-.130135.414065-.319418.863614-.567857 1.348661.402234.56786.934595 1.248098 1.597098 2.040736.082813.118304.124219.236607.124219.354911 0 .141965-.041406.254352-.124219.337165-.2721.354913-.760097.884316-1.464007 1.588225-.703909.70391-1.168246 1.05586-1.393024 1.05586-.130135 0-.254352-.041406-.372656-.124219l-2.040737-1.597098c-.437725.224778-.893189.408146-1.366406.550111-.130135 1.277685-.266182 2.194529-.408147 2.750558-.082813.28393-.260267.425893-.532366.425893h-3.30067c-.130134 0-.248437-.044363-.354911-.133091-.106473-.088728-.165624-.192243-.177455-.310547l-.408147-2.715067c-.402234-.118304-.845868-.301673-1.330915-.550112l-2.093973 1.579353c-.082813.082813-.201116.124219-.354911.124219-.130135 0-.254352-.047321-.372656-.141964-1.70358-1.573446-2.555357-2.519865-2.555357-2.839286 0-.106474.041406-.218861.124218-.337165.118305-.165626.360824-.479127.727567-.940514.366743-.461386.644754-.822208.834041-1.082477-.2721-.520538-.479129-1.005578-.621094-1.455134l-2.697321-.425893c-.118305-.01183-.218862-.068024-.301675-.168582-.082812-.100559-.124218-.215904-.124218-.346038v-3.282924c0-.118304.041406-.233649.124218-.346038.082813-.112389.177455-.174498.283929-.186328l2.750558-.425893c.130134-.414065.319418-.863614.567857-1.348661-.402234-.56786-.934595-1.248098-1.597098-2.040736-.082813-.130135-.124219-.248437-.124219-.354911 0-.141965.041406-.260267.124219-.354911.260269-.354912.745309-.881358 1.455134-1.579352.709825-.697995 1.177119-1.046987 1.401897-1.046987.130135 0 .254352.041406.372656.124219l2.040737 1.597098c.402234-.212947.857698-.402231 1.366406-.567857.130134-1.277685.266182-2.188613.408147-2.732812.082813-.28393.260267-.425893.532366-.425893h3.30067c.130134 0 .248437.044363.35491.133091.106474.088728.165625.192243.177456.310547l.408147 2.715067c.402234.118304.845868.301673 1.330915.550111l2.093973-1.579352c.094644-.082813.212946-.124219.354911-.124219.130134 0 .254352.047321.372656.141964 1.70358 1.573446 2.555357 2.519865 2.555357 2.839286 0 .106474-.041406.218861-.124219.337165-.141965.189287-.3904.508703-.745312.958259-.354913.449556-.621093.804463-.798549 1.064732.272099.56786.473213 1.0529.603348 1.455134l2.697321.408147c.118304.023661.218862.08577.301674.186328.082813.100559.124219.215904.124219.346038zm11.357142 9.45837v2.484375c0 .189287-.881352.372656-2.644084.550112-.141965.319421-.319419.627007-.532366.922768.603351 1.336837.905022 2.153123.905022 2.448883 0 .047322-.023661.088728-.070982.124219-1.443311.83996-2.176786 1.259933-2.200446 1.259933-.094644 0-.366739-.278011-.816295-.83404-.449556-.55603-.757142-.958258-.922768-1.206696-.236608.02366-.414062.035491-.532366.035491s-.295758-.011831-.532366-.035491c-.165626.248438-.473212.650666-.922768 1.206696-.449556.556029-.721651.83404-.816294.83404-.023661 0-.757136-.419973-2.200447-1.259933-.047321-.035491-.070982-.076897-.070982-.124219 0-.29576.301671-1.112046.905022-2.448883-.212947-.295761-.390401-.603347-.532366-.922768-1.762732-.177456-2.644084-.360825-2.644084-.550112v-2.484375c0-.189286.881352-.372655 2.644084-.550111.153796-.343082.331249-.650668.532366-.922768-.603351-1.336837-.905022-2.153123-.905022-2.448884 0-.047322.023661-.088727.070982-.124219.047322-.02366.254351-.141963.621094-.35491.366743-.212948.715735-.414062 1.046987-.603348.331251-.189287.508705-.283929.532366-.283929.094643 0 .366738.275053.816294.825167.449556.550115.757142.949385.922768 1.197824.236608-.023661.414062-.035491.532366-.035491s.295758.01183.532366.035491c.603351-.83996 1.147542-1.502453 1.632589-1.9875l.106474-.035491c.047321 0 .780796.414058 2.200446 1.242187.047321.035492.070982.076897.070982.124219 0 .295761-.301671 1.112047-.905022 2.448884.201117.2721.37857.579686.532366.922768 1.762732.177456 2.644084.360825 2.644084.550111zm0-18.171427v2.484375c0 .189286-.881352.372655-2.644084.550111-.141965.319421-.319419.627008-.532366.922768.603351 1.336837.905022 2.153123.905022 2.448884 0 .047321-.023661.088727-.070982.124219-1.443311.839959-2.176786 1.259932-2.200446 1.259932-.094644 0-.366739-.27801-.816295-.83404-.449556-.556029-.757142-.958257-.922768-1.206696-.236608.023661-.414062.035491-.532366.035491s-.295758-.01183-.532366-.035491c-.165626.248439-.473212.650667-.922768 1.206696-.449556.55603-.721651.83404-.816294.83404-.023661 0-.757136-.419973-2.200447-1.259932-.047321-.035492-.070982-.076898-.070982-.124219 0-.295761.301671-1.112047.905022-2.448884-.212947-.29576-.390401-.603347-.532366-.922768-1.762732-.177456-2.644084-.360825-2.644084-.550111v-2.484375c0-.189287.881352-.372656 2.644084-.550112.153796-.343082.331249-.650668.532366-.922768-.603351-1.336837-.905022-2.153123-.905022-2.448883 0-.047322.023661-.088728.070982-.124219.047322-.023661.254351-.141963.621094-.354911.366743-.212947.715735-.414061 1.046987-.603348.331251-.189287.508705-.283929.532366-.283929.094643 0 .366738.275053.816294.825168.449556.550114.757142.949385.922768 1.197823.236608-.02366.414062-.035491.532366-.035491s.295758.011831.532366.035491c.603351-.839959 1.147542-1.502453 1.632589-1.9875l.106474-.035491c.047321 0 .780796.414059 2.200446 1.242188.047321.035491.070982.076897.070982.124219 0 .29576-.301671 1.112046-.905022 2.448883.201117.2721.37857.579686.532366.922768 1.762732.177456 2.644084.360825 2.644084.550112z"/><path d="m518.847717 443.148434c0-1.254024-.443634-2.324661-1.330915-3.211942s-1.957918-1.330915-3.211942-1.330915-2.32466.443634-3.211941 1.330915c-.887282.887281-1.330916 1.957918-1.330916 3.211942s.443634 2.324661 1.330916 3.211942c.887281.887281 1.957917 1.330915 3.211941 1.330915s2.324661-.443634 3.211942-1.330915 1.330915-1.957918 1.330915-3.211942zm13.628571 9.085714c0-.615182-.224775-1.147543-.67433-1.597098-.449556-.449556-.981917-.674331-1.597098-.674331-.615182 0-1.147543.224775-1.597099.674331-.449555.449555-.67433.981916-.67433 1.597098 0 .627012.221817 1.16233.665458 1.605971.44364.44364.978958.665457 1.605971.665457.627012 0 1.16233-.221817 1.60597-.665457.443641-.443641.665458-.978959.665458-1.605971zm0-18.171428c0-.615181-.224775-1.147542-.67433-1.597098-.449556-.449556-.981917-.67433-1.597098-.67433-.615182 0-1.147543.224774-1.597099.67433-.449555.449556-.67433.981917-.67433 1.597098 0 .627012.221817 1.16233.665458 1.605971.44364.443641.978958.665458 1.605971.665458.627012 0 1.16233-.221817 1.60597-.665458.443641-.443641.665458-.978959.665458-1.605971zm-6.814285 7.47087v3.282924c0 .118304-.041406.233649-.124219.346038s-.177455.174498-.283929.186328l-2.750558.425893c-.130134.414065-.319418.863614-.567857 1.348661.402234.56786.934595 1.248098 1.597098 2.040736.082813.118304.124219.236607.124219.354911 0 .141965-.041406.254352-.124219.337165-.272099.354913-.760096.884316-1.464006 1.588225-.70391.70391-1.168247 1.05586-1.393025 1.05586-.130134 0-.254352-.041406-.372656-.124219l-2.040736-1.597098c-.437726.224778-.89319.408146-1.366407.550111-.130134 1.277685-.266182 2.194529-.408147 2.750558-.082813.28393-.260266.425893-.532366.425893h-3.300669c-.130135 0-.248437-.044363-.354911-.133091s-.165625-.192243-.177455-.310547l-.408148-2.715067c-.402234-.118304-.845868-.301673-1.330915-.550112l-2.093973 1.579353c-.082813.082813-.201115.124219-.354911.124219-.130134 0-.254352-.047321-.372656-.141964-1.70358-1.573446-2.555357-2.519865-2.555357-2.839286 0-.106474.041406-.218861.124219-.337165.118304-.165626.360824-.479127.727567-.940514.366743-.461386.644753-.822208.83404-1.082477-.2721-.520538-.479129-1.005578-.621094-1.455134l-2.697321-.425893c-.118304-.01183-.218861-.068024-.301674-.168582-.082813-.100559-.124219-.215904-.124219-.346038v-3.282924c0-.118304.041406-.233649.124219-.346038s.177455-.174498.283928-.186328l2.750558-.425893c.130135-.414065.319419-.863614.567857-1.348661-.402234-.56786-.934594-1.248098-1.597098-2.040736-.082813-.130135-.124218-.248437-.124218-.354911 0-.141965.041405-.260267.124218-.354911.260269-.354912.745309-.881358 1.455134-1.579352.709825-.697995 1.17712-1.046987 1.401897-1.046987.130135 0 .254352.041406.372657.124219l2.040736 1.597098c.402234-.212947.857698-.402231 1.366406-.567857.130135-1.277685.266183-2.188613.408148-2.732812.082813-.28393.260266-.425893.532366-.425893h3.300669c.130135 0 .248437.044363.354911.133091s.165625.192243.177455.310547l.408147 2.715067c.402235.118304.845869.301673 1.330916.550111l2.093973-1.579352c.094643-.082813.212945-.124219.35491-.124219.130135 0 .254352.047321.372657.141964 1.703579 1.573446 2.555357 2.519865 2.555357 2.839286 0 .106474-.041406.218861-.124219.337165-.141965.189287-.3904.508703-.745313.958259-.354912.449556-.621092.804463-.798549 1.064732.2721.56786.473214 1.0529.603349 1.455134l2.697321.408147c.118304.023661.218861.08577.301674.186328.082813.100559.124219.215904.124219.346038zm11.357142 9.45837v2.484375c0 .189287-.881353.372656-2.644085.550112-.141965.319421-.319418.627007-.532366.922768.603351 1.336837.905022 2.153123.905022 2.448883 0 .047322-.02366.088728-.070982.124219-1.44331.83996-2.176785 1.259933-2.200446 1.259933-.094643 0-.366739-.278011-.816295-.83404-.449555-.55603-.757142-.958258-.922767-1.206696-.236609.02366-.414062.035491-.532366.035491-.118305 0-.295758-.011831-.532367-.035491-.165625.248438-.473212.650666-.922767 1.206696-.449556.556029-.721652.83404-.816295.83404-.023661 0-.757136-.419973-2.200446-1.259933-.047322-.035491-.070982-.076897-.070982-.124219 0-.29576.301671-1.112046.905022-2.448883-.212948-.295761-.390401-.603347-.532366-.922768-1.762732-.177456-2.644085-.360825-2.644085-.550112v-2.484375c0-.189286.881353-.372655 2.644085-.550111.153795-.343082.331249-.650668.532366-.922768-.603351-1.336837-.905022-2.153123-.905022-2.448884 0-.047322.02366-.088727.070982-.124219.047321-.02366.254351-.141963.621093-.35491.366743-.212948.715735-.414062 1.046987-.603348.331252-.189287.508705-.283929.532366-.283929.094643 0 .366739.275053.816295.825167.449555.550115.757142.949385.922767 1.197824.236609-.023661.414062-.035491.532367-.035491.118304 0 .295757.01183.532366.035491.603351-.83996 1.147542-1.502453 1.632589-1.9875l.106473-.035491c.047322 0 .780796.414058 2.200446 1.242187.047322.035492.070982.076897.070982.124219 0 .295761-.301671 1.112047-.905022 2.448884.201117.2721.378571.579686.532366.922768 1.762732.177456 2.644085.360825 2.644085.550111zm0-18.171427v2.484375c0 .189286-.881353.372655-2.644085.550111-.141965.319421-.319418.627008-.532366.922768.603351 1.336837.905022 2.153123.905022 2.448884 0 .047321-.02366.088727-.070982.124219-1.44331.839959-2.176785 1.259932-2.200446 1.259932-.094643 0-.366739-.27801-.816295-.83404-.449555-.556029-.757142-.958257-.922767-1.206696-.236609.023661-.414062.035491-.532366.035491-.118305 0-.295758-.01183-.532367-.035491-.165625.248439-.473212.650667-.922767 1.206696-.449556.55603-.721652.83404-.816295.83404-.023661 0-.757136-.419973-2.200446-1.259932-.047322-.035492-.070982-.076898-.070982-.124219 0-.295761.301671-1.112047.905022-2.448884-.212948-.29576-.390401-.603347-.532366-.922768-1.762732-.177456-2.644085-.360825-2.644085-.550111v-2.484375c0-.189287.881353-.372656 2.644085-.550112.153795-.343082.331249-.650668.532366-.922768-.603351-1.336837-.905022-2.153123-.905022-2.448883 0-.047322.02366-.088728.070982-.124219.047321-.023661.254351-.141963.621093-.354911.366743-.212947.715735-.414061 1.046987-.603348s.508705-.283929.532366-.283929c.094643 0 .366739.275053.816295.825168.449555.550114.757142.949385.922767 1.197823.236609-.02366.414062-.035491.532367-.035491.118304 0 .295757.011831.532366.035491.603351-.839959 1.147542-1.502453 1.632589-1.9875l.106473-.035491c.047322 0 .780796.414059 2.200446 1.242188.047322.035491.070982.076897.070982.124219 0 .29576-.301671 1.112046-.905022 2.448883.201117.2721.378571.579686.532366.922768 1.762732.177456 2.644085.360825 2.644085.550112z"/><path d="m859.734507 544.858471c-1.916527.059152-3.484033.816287-4.702566 2.271429h-2.377902c-.970094 0-1.78638-.239563-2.448884-.718695-.662503-.479131-.99375-1.180073-.99375-2.102845 0-4.176137.733475-6.264174 2.200447-6.264174.070982 0 .32829.124217.77193.372656.443641.248439 1.020365.499831 1.73019.754185s1.413724.381529 2.111719.381529c.792638 0 1.579348-.136047 2.360156-.408147-.059152.437725-.088728.828123-.088728 1.171205 0 1.644428.479125 3.158699 1.437388 4.542857zm19.005468 11.303906c0 1.41965-.431804 2.540565-1.295424 3.362779s-2.011153 1.233314-3.442634 1.233314h-15.509597c-1.43148 0-2.579013-.4111-3.442634-1.233314-.86362-.822214-1.295424-1.943129-1.295424-3.362779 0-.627012.020703-1.239227.06211-1.836663.041406-.597436.124218-1.242184.248437-1.934263.124219-.69208.28097-1.33387.470257-1.925391.189286-.591521.443637-1.168245.763058-1.73019.319421-.561944.686158-1.041069 1.100223-1.437388.414064-.396319.919807-.712778 1.517243-.949386s1.256972-.354911 1.978627-.354911c.118304 0 .372655.127175.763058.381529.390404.254354.822208.53828 1.295424.851786.473217.313506 1.106135.597432 1.898772.851786.792638.254354 1.591179.381529 2.395648.381529.804468 0 1.603009-.127175 2.395647-.381529s1.425555-.53828 1.898772-.851786.90502-.597432 1.295424-.851786.644754-.381529.763058-.381529c.721655 0 1.381191.118303 1.978627.354911s1.103179.553067 1.517243.949386c.414065.396319.780802.875444 1.100224 1.437388.319421.561945.573771 1.138669.763058 1.73019.189286.591521.346037 1.233311.470256 1.925391.12422.692079.207031 1.336827.248438 1.934263.041406.597436.062109 1.209651.062109 1.836663zm-18.171427-22.661048c0 1.254024-.443634 2.324661-1.330916 3.211942-.887281.887281-1.957917 1.330915-3.211941 1.330915s-2.324661-.443634-3.211942-1.330915-1.330915-1.957918-1.330915-3.211942.443634-2.324661 1.330915-3.211942 1.957918-1.330915 3.211942-1.330915 2.32466.443634 3.211941 1.330915c.887282.887281 1.330916 1.957918 1.330916 3.211942zm12.492856 6.814285c0 1.881036-.665451 3.486991-1.996373 4.817913-1.330921 1.330922-2.936876 1.996373-4.817912 1.996373s-3.486991-.665451-4.817913-1.996373-1.996373-2.936877-1.996373-4.817913.665451-3.486991 1.996373-4.817912c1.330922-1.330922 2.936877-1.996373 4.817913-1.996373s3.486991.665451 4.817912 1.996373c1.330922 1.330921 1.996373 2.936876 1.996373 4.817912zm10.221428 3.992746c0 .922772-.331247 1.623714-.99375 2.102845-.662503.479132-1.47879.718695-2.448884.718695h-2.377901c-1.218533-1.455142-2.78604-2.212277-4.702567-2.271429.958264-1.384158 1.437388-2.898429 1.437388-4.542857 0-.343082-.029575-.73348-.088727-1.171205.780807.2721 1.567518.408147 2.360156.408147.697994 0 1.401893-.127175 2.111718-.381529s1.286549-.505746 1.73019-.754185.700948-.372656.771931-.372656c1.466971 0 2.200446 2.088037 2.200446 6.264174zm-2.271428-10.807031c0 1.254024-.443634 2.324661-1.330915 3.211942-.887282.887281-1.957918 1.330915-3.211942 1.330915s-2.324661-.443634-3.211942-1.330915-1.330915-1.957918-1.330915-3.211942.443634-2.324661 1.330915-3.211942 1.957918-1.330915 3.211942-1.330915 2.32466.443634 3.211942 1.330915c.887281.887281 1.330915 1.957918 1.330915 3.211942zm39.874216 5.501116c0 .473216-.165623.875444-.496875 1.206696l-15.26116 15.26116c-.331251.331252-.733479.496875-1.206696.496875s-.875445-.165623-1.206696-.496875l-8.837277-8.837276c-.331251-.331252-.496875-.73348-.496875-1.206697 0-.473216.165624-.875444.496875-1.206696l2.413393-2.413393c.331252-.331251.73348-.496875 1.206696-.496875.473217 0 .875445.165624 1.206697.496875l5.217187 5.234933 11.641071-11.658816c.331251-.331252.73348-.496875 1.206696-.496875.473217 0 .875445.165623 1.206697.496875l2.413392 2.413392c.331252.331252.496875.73348.496875 1.206697z"/><path d="m1045.7411 135.899363c-1.91653.059152-3.48403.816288-4.70256 2.271429h-2.37791c-.97009 0-1.78638-.239563-2.44888-.718694-.6625-.479132-.99375-1.180074-.99375-2.102846 0-4.176137.73347-6.264174 2.20045-6.264174.07098 0 .32829.124217.77193.372656s1.02036.499832 1.73019.754185c.70982.254354 1.41372.381529 2.11172.381529.79263 0 1.57934-.136047 2.36015-.408147-.05915.437726-.08873.828123-.08873 1.171205 0 1.644428.47913 3.158699 1.43739 4.542857zm19.00547 11.303906c0 1.41965-.4318 2.540565-1.29542 3.362779s-2.01116 1.233314-3.44264 1.233314h-15.5096c-1.43148 0-2.57901-.4111-3.44263-1.233314s-1.29542-1.943129-1.29542-3.362779c0-.627012.0207-1.239227.06211-1.836663.0414-.597436.12421-1.242184.24843-1.934263s.28097-1.33387.47026-1.925391c.18929-.59152.44364-1.168245.76306-1.730189.31942-.561945.68616-1.04107 1.10022-1.437389.41407-.396319.91981-.712777 1.51724-.949386.59744-.236608 1.25698-.35491 1.97863-.35491.11831 0 .37266.127175.76306.381529.3904.254353.82221.538279 1.29542.851785.47322.313506 1.10614.597432 1.89878.851786.79263.254354 1.59117.381529 2.39564.381529s1.60301-.127175 2.39565-.381529 1.42556-.53828 1.89877-.851786c.47322-.313506.90502-.597432 1.29543-.851785.3904-.254354.64475-.381529.76305-.381529.72166 0 1.3812.118302 1.97863.35491.59744.236609 1.10318.553067 1.51724.949386.41407.396319.78081.875444 1.10023 1.437389.31942.561944.57377 1.138669.76306 1.730189.18928.591521.34603 1.233312.47025 1.925391s.20703 1.336827.24844 1.934263.06211 1.209651.06211 1.836663zm-18.17143-22.661048c0 1.254024-.44363 2.324661-1.33091 3.211942s-1.95792 1.330915-3.21194 1.330915c-1.25403 0-2.32467-.443634-3.21195-1.330915s-1.33091-1.957918-1.33091-3.211942.44363-2.324661 1.33091-3.211942 1.95792-1.330915 3.21195-1.330915c1.25402 0 2.32466.443634 3.21194 1.330915s1.33091 1.957918 1.33091 3.211942zm12.49286 6.814285c0 1.881037-.66545 3.486991-1.99637 4.817913-1.33093 1.330922-2.93688 1.996373-4.81792 1.996373-1.88103 0-3.48699-.665451-4.81791-1.996373s-1.99637-2.936876-1.99637-4.817913c0-1.881036.66545-3.48699 1.99637-4.817912s2.93688-1.996373 4.81791-1.996373c1.88104 0 3.48699.665451 4.81792 1.996373 1.33092 1.330922 1.99637 2.936876 1.99637 4.817912zm10.22143 3.992746c0 .922772-.33125 1.623714-.99375 2.102846-.66251.479131-1.47879.718694-2.44889.718694h-2.3779c-1.21853-1.455141-2.78604-2.212277-4.70257-2.271429.95827-1.384158 1.43739-2.898429 1.43739-4.542857 0-.343082-.02957-.733479-.08873-1.171205.78081.2721 1.56752.408147 2.36016.408147.698 0 1.40189-.127175 2.11172-.381529.70982-.254353 1.28655-.505746 1.73019-.754185s.70095-.372656.77193-.372656c1.46697 0 2.20045 2.088037 2.20045 6.264174zm-2.27143-10.807031c0 1.254024-.44364 2.324661-1.33092 3.211942s-1.95791 1.330915-3.21194 1.330915c-1.25402 0-2.32466-.443634-3.21194-1.330915s-1.33092-1.957918-1.33092-3.211942.44364-2.324661 1.33092-3.211942 1.95792-1.330915 3.21194-1.330915c1.25403 0 2.32466.443634 3.21194 1.330915s1.33092 1.957918 1.33092 3.211942zm39.87421 5.501116c0 .473216-.16562.875445-.49687 1.206696l-15.26116 15.26116c-.33125.331252-.73348.496875-1.2067.496875-.47321 0-.87544-.165623-1.20669-.496875l-8.83728-8.837276c-.33125-.331252-.49687-.73348-.49687-1.206697 0-.473216.16562-.875444.49687-1.206696l2.41339-2.413393c.33126-.331251.73348-.496875 1.2067-.496875s.87544.165624 1.2067.496875l5.21718 5.234933 11.64107-11.658816c.33126-.331252.73348-.496875 1.2067-.496875s.87545.165623 1.2067.496875l2.41339 2.413392c.33125.331252.49687.73348.49687 1.206697z"/><path d="m385.53174 544.858471c-1.916528.059152-3.484034.816287-4.702567 2.271429h-2.377902c-.970094 0-1.78638-.239563-2.448884-.718695-.662503-.479131-.993749-1.180073-.993749-2.102845 0-4.176137.733474-6.264174 2.200446-6.264174.070982 0 .32829.124217.771931.372656.44364.248439 1.020364.499831 1.730189.754185s1.413724.381529 2.111719.381529c.792638 0 1.579349-.136047 2.360156-.408147-.059152.437725-.088728.828123-.088728 1.171205 0 1.644428.479125 3.158699 1.437389 4.542857zm19.005467 11.303906c0 1.41965-.431803 2.540565-1.295424 3.362779-.86362.822214-2.011153 1.233314-3.442633 1.233314h-15.509598c-1.43148 0-2.579013-.4111-3.442634-1.233314-.86362-.822214-1.295424-1.943129-1.295424-3.362779 0-.627012.020703-1.239227.06211-1.836663.041406-.597436.124218-1.242184.248437-1.934263.12422-.69208.28097-1.33387.470257-1.925391s.443637-1.168245.763058-1.73019c.319421-.561944.686159-1.041069 1.100223-1.437388.414065-.396319.919807-.712778 1.517243-.949386s1.256972-.354911 1.978627-.354911c.118305 0 .372655.127175.763058.381529.390404.254354.822208.53828 1.295425.851786.473216.313506 1.106134.597432 1.898772.851786s1.591179.381529 2.395647.381529 1.603009-.127175 2.395647-.381529 1.425556-.53828 1.898772-.851786c.473217-.313506.905021-.597432 1.295424-.851786.390404-.254354.644754-.381529.763058-.381529.721656 0 1.381191.118303 1.978627.354911s1.103179.553067 1.517244.949386c.414064.396319.780802.875444 1.100223 1.437388.319421.561945.573771 1.138669.763058 1.73019s.346037 1.233311.470257 1.925391c.124219.692079.207031 1.336827.248437 1.934263s.062109 1.209651.062109 1.836663zm-18.171427-22.661048c0 1.254024-.443634 2.324661-1.330915 3.211942s-1.957918 1.330915-3.211942 1.330915-2.324661-.443634-3.211942-1.330915-1.330915-1.957918-1.330915-3.211942.443634-2.324661 1.330915-3.211942 1.957918-1.330915 3.211942-1.330915 2.324661.443634 3.211942 1.330915 1.330915 1.957918 1.330915 3.211942zm12.492856 6.814285c0 1.881036-.665451 3.486991-1.996372 4.817913-1.330922 1.330922-2.936877 1.996373-4.817913 1.996373s-3.486991-.665451-4.817913-1.996373-1.996372-2.936877-1.996372-4.817913.66545-3.486991 1.996372-4.817912c1.330922-1.330922 2.936877-1.996373 4.817913-1.996373s3.486991.665451 4.817913 1.996373c1.330921 1.330921 1.996372 2.936876 1.996372 4.817912zm10.221428 3.992746c0 .922772-.331246 1.623714-.99375 2.102845-.662503.479132-1.478789.718695-2.448883.718695h-2.377902c-1.218533-1.455142-2.786039-2.212277-4.702567-2.271429.958264-1.384158 1.437388-2.898429 1.437388-4.542857 0-.343082-.029575-.73348-.088727-1.171205.780807.2721 1.567518.408147 2.360156.408147.697994 0 1.401894-.127175 2.111719-.381529s1.286549-.505746 1.730189-.754185c.443641-.248439.700948-.372656.771931-.372656 1.466972 0 2.200446 2.088037 2.200446 6.264174zm-2.271428-10.807031c0 1.254024-.443634 2.324661-1.330915 3.211942s-1.957918 1.330915-3.211942 1.330915-2.324661-.443634-3.211942-1.330915-1.330915-1.957918-1.330915-3.211942.443634-2.324661 1.330915-3.211942 1.957918-1.330915 3.211942-1.330915 2.324661.443634 3.211942 1.330915 1.330915 1.957918 1.330915 3.211942zm33.255132 18.91674c0 .473217-.165623.875445-.496875 1.206696l-2.413393 2.413393c-.331251.331252-.733479.496875-1.206696.496875s-.875445-.165623-1.206696-.496875l-5.217188-5.217187-5.217187 5.217187c-.331252.331252-.73348.496875-1.206696.496875-.473217 0-.875445-.165623-1.206697-.496875l-2.413392-2.413393c-.331252-.331251-.496875-.733479-.496875-1.206696s.165623-.875445.496875-1.206696l5.217187-5.217188-5.217187-5.217187c-.331252-.331251-.496875-.73348-.496875-1.206696 0-.473217.165623-.875445.496875-1.206697l2.413392-2.413392c.331252-.331252.73348-.496875 1.206697-.496875.473216 0 .875444.165623 1.206696.496875l5.217187 5.217187 5.217188-5.217187c.331251-.331252.733479-.496875 1.206696-.496875s.875445.165623 1.206696.496875l2.413393 2.413392c.331252.331252.496875.73348.496875 1.206697 0 .473216-.165623.875445-.496875 1.206696l-5.217187 5.217187 5.217187 5.217188c.331252.331251.496875.733479.496875 1.206696z"/><path d="m622.540142 544.858471c-1.916527.059152-3.484034.816287-4.702567 2.271429h-2.377901c-.970094 0-1.786381-.239563-2.448884-.718695-.662503-.479131-.99375-1.180073-.99375-2.102845 0-4.176137.733475-6.264174 2.200446-6.264174.070983 0 .328291.124217.771931.372656.443641.248439 1.020365.499831 1.73019.754185s1.413724.381529 2.111718.381529c.792638 0 1.579349-.136047 2.360156-.408147-.059152.437725-.088727.828123-.088727 1.171205 0 1.644428.479124 3.158699 1.437388 4.542857zm19.005468 11.303906c0 1.41965-.431804 2.540565-1.295424 3.362779-.863621.822214-2.011154 1.233314-3.442634 1.233314h-15.509597c-1.431481 0-2.579014-.4111-3.442634-1.233314s-1.295424-1.943129-1.295424-3.362779c0-.627012.020703-1.239227.062109-1.836663.041407-.597436.124218-1.242184.248438-1.934263.124219-.69208.28097-1.33387.470256-1.925391.189287-.591521.443637-1.168245.763058-1.73019.319422-.561944.686159-1.041069 1.100224-1.437388.414064-.396319.919807-.712778 1.517243-.949386s1.256972-.354911 1.978627-.354911c.118304 0 .372654.127175.763058.381529s.822207.53828 1.295424.851786 1.106134.597432 1.898772.851786 1.591179.381529 2.395647.381529c.804469 0 1.60301-.127175 2.395648-.381529.792637-.254354 1.425555-.53828 1.898772-.851786.473216-.313506.90502-.597432 1.295424-.851786s.644754-.381529.763058-.381529c.721655 0 1.381191.118303 1.978627.354911s1.103179.553067 1.517243.949386c.414065.396319.780802.875444 1.100223 1.437388.319422.561945.573772 1.138669.763058 1.73019.189287.591521.346038 1.233311.470257 1.925391.124219.692079.207031 1.336827.248437 1.934263.041407.597436.06211 1.209651.06211 1.836663zm-18.171428-22.661048c0 1.254024-.443634 2.324661-1.330915 3.211942s-1.957918 1.330915-3.211942 1.330915-2.32466-.443634-3.211941-1.330915c-.887282-.887281-1.330916-1.957918-1.330916-3.211942s.443634-2.324661 1.330916-3.211942c.887281-.887281 1.957917-1.330915 3.211941-1.330915s2.324661.443634 3.211942 1.330915 1.330915 1.957918 1.330915 3.211942zm12.492857 6.814285c0 1.881036-.665451 3.486991-1.996373 4.817913s-2.936877 1.996373-4.817913 1.996373-3.486991-.665451-4.817912-1.996373c-1.330922-1.330922-1.996373-2.936877-1.996373-4.817913s.665451-3.486991 1.996373-4.817912c1.330921-1.330922 2.936876-1.996373 4.817912-1.996373s3.486991.665451 4.817913 1.996373c1.330922 1.330921 1.996373 2.936876 1.996373 4.817912zm10.221428 3.992746c0 .922772-.331247 1.623714-.99375 2.102845-.662503.479132-1.47879.718695-2.448884.718695h-2.377902c-1.218532-1.455142-2.786039-2.212277-4.702566-2.271429.958263-1.384158 1.437388-2.898429 1.437388-4.542857 0-.343082-.029576-.73348-.088728-1.171205.780808.2721 1.567519.408147 2.360156.408147.697995 0 1.401894-.127175 2.111719-.381529s1.286549-.505746 1.73019-.754185c.44364-.248439.700948-.372656.77193-.372656 1.466972 0 2.200447 2.088037 2.200447 6.264174zm-2.271429-10.807031c0 1.254024-.443634 2.324661-1.330915 3.211942s-1.957918 1.330915-3.211942 1.330915-2.32466-.443634-3.211941-1.330915c-.887282-.887281-1.330915-1.957918-1.330915-3.211942s.443633-2.324661 1.330915-3.211942c.887281-.887281 1.957917-1.330915 3.211941-1.330915s2.324661.443634 3.211942 1.330915 1.330915 1.957918 1.330915 3.211942zm33.255132 18.91674c0 .473217-.165623.875445-.496875 1.206696l-2.413392 2.413393c-.331252.331252-.73348.496875-1.206697.496875-.473216 0-.875444-.165623-1.206696-.496875l-5.217187-5.217187-5.217187 5.217187c-.331252.331252-.73348.496875-1.206697.496875-.473216 0-.875445-.165623-1.206696-.496875l-2.413393-2.413393c-.331252-.331251-.496875-.733479-.496875-1.206696s.165623-.875445.496875-1.206696l5.217187-5.217188-5.217187-5.217187c-.331252-.331251-.496875-.73348-.496875-1.206696 0-.473217.165623-.875445.496875-1.206697l2.413393-2.413392c.331251-.331252.73348-.496875 1.206696-.496875.473217 0 .875445.165623 1.206697.496875l5.217187 5.217187 5.217187-5.217187c.331252-.331252.73348-.496875 1.206696-.496875.473217 0 .875445.165623 1.206697.496875l2.413392 2.413392c.331252.331252.496875.73348.496875 1.206697 0 .473216-.165623.875445-.496875 1.206696l-5.217187 5.217187 5.217187 5.217188c.331252.331251.496875.733479.496875 1.206696z"/><path d="m756.856155 443.148434c0-1.254024-.443634-2.324661-1.330915-3.211942s-1.957918-1.330915-3.211942-1.330915-2.32466.443634-3.211941 1.330915c-.887282.887281-1.330916 1.957918-1.330916 3.211942s.443634 2.324661 1.330916 3.211942c.887281.887281 1.957917 1.330915 3.211941 1.330915s2.324661-.443634 3.211942-1.330915 1.330915-1.957918 1.330915-3.211942zm13.628571 9.085714c0-.615182-.224775-1.147543-.67433-1.597098-.449556-.449556-.981917-.674331-1.597099-.674331-.615181 0-1.147542.224775-1.597098.674331-.449555.449555-.67433.981916-.67433 1.597098 0 .627012.221817 1.16233.665458 1.605971.44364.44364.978958.665457 1.60597.665457s1.162331-.221817 1.605971-.665457c.443641-.443641.665458-.978959.665458-1.605971zm0-18.171428c0-.615181-.224775-1.147542-.67433-1.597098-.449556-.449556-.981917-.67433-1.597099-.67433-.615181 0-1.147542.224774-1.597098.67433-.449555.449556-.67433.981917-.67433 1.597098 0 .627012.221817 1.16233.665458 1.605971.44364.443641.978958.665458 1.60597.665458s1.162331-.221817 1.605971-.665458c.443641-.443641.665458-.978959.665458-1.605971zm-6.814285 7.47087v3.282924c0 .118304-.041406.233649-.124219.346038s-.177455.174498-.283929.186328l-2.750558.425893c-.130134.414065-.319418.863614-.567857 1.348661.402234.56786.934595 1.248098 1.597098 2.040736.082813.118304.124219.236607.124219.354911 0 .141965-.041406.254352-.124219.337165-.272099.354913-.760097.884316-1.464006 1.588225-.70391.70391-1.168247 1.05586-1.393025 1.05586-.130134 0-.254352-.041406-.372656-.124219l-2.040736-1.597098c-.437726.224778-.89319.408146-1.366407.550111-.130134 1.277685-.266182 2.194529-.408147 2.750558-.082813.28393-.260266.425893-.532366.425893h-3.300669c-.130135 0-.248437-.044363-.354911-.133091s-.165625-.192243-.177455-.310547l-.408148-2.715067c-.402234-.118304-.845868-.301673-1.330915-.550112l-2.093973 1.579353c-.082813.082813-.201115.124219-.354911.124219-.130134 0-.254352-.047321-.372656-.141964-1.70358-1.573446-2.555357-2.519865-2.555357-2.839286 0-.106474.041406-.218861.124219-.337165.118304-.165626.360824-.479127.727567-.940514.366743-.461386.644753-.822208.83404-1.082477-.2721-.520538-.479129-1.005578-.621094-1.455134l-2.697321-.425893c-.118304-.01183-.218861-.068024-.301674-.168582-.082813-.100559-.124219-.215904-.124219-.346038v-3.282924c0-.118304.041406-.233649.124219-.346038s.177455-.174498.283928-.186328l2.750558-.425893c.130135-.414065.319419-.863614.567857-1.348661-.402234-.56786-.934594-1.248098-1.597098-2.040736-.082813-.130135-.124219-.248437-.124219-.354911 0-.141965.041406-.260267.124219-.354911.260269-.354912.745309-.881358 1.455134-1.579352.709825-.697995 1.177119-1.046987 1.401897-1.046987.130135 0 .254352.041406.372657.124219l2.040736 1.597098c.402234-.212947.857698-.402231 1.366406-.567857.130135-1.277685.266183-2.188613.408148-2.732812.082812-.28393.260266-.425893.532366-.425893h3.300669c.130135 0 .248437.044363.354911.133091.106473.088728.165625.192243.177455.310547l.408147 2.715067c.402235.118304.845868.301673 1.330915.550111l2.093974-1.579352c.094643-.082813.212945-.124219.35491-.124219.130135 0 .254352.047321.372657.141964 1.703579 1.573446 2.555357 2.519865 2.555357 2.839286 0 .106474-.041406.218861-.124219.337165-.141965.189287-.3904.508703-.745313.958259-.354912.449556-.621093.804463-.798549 1.064732.2721.56786.473214 1.0529.603348 1.455134l2.697322.408147c.118304.023661.218861.08577.301674.186328.082813.100559.124219.215904.124219.346038zm11.357142 9.45837v2.484375c0 .189287-.881353.372656-2.644085.550112-.141965.319421-.319418.627007-.532366.922768.603351 1.336837.905022 2.153123.905022 2.448883 0 .047322-.02366.088728-.070982.124219-1.443311.83996-2.176785 1.259933-2.200446 1.259933-.094643 0-.366739-.278011-.816295-.83404-.449555-.55603-.757142-.958258-.922768-1.206696-.236608.02366-.414061.035491-.532366.035491-.118304 0-.295757-.011831-.532366-.035491-.165625.248438-.473212.650666-.922767 1.206696-.449556.556029-.721652.83404-.816295.83404-.023661 0-.757136-.419973-2.200446-1.259933-.047322-.035491-.070982-.076897-.070982-.124219 0-.29576.301671-1.112046.905022-2.448883-.212948-.295761-.390401-.603347-.532366-.922768-1.762732-.177456-2.644085-.360825-2.644085-.550112v-2.484375c0-.189286.881353-.372655 2.644085-.550111.153795-.343082.331249-.650668.532366-.922768-.603351-1.336837-.905022-2.153123-.905022-2.448884 0-.047322.02366-.088727.070982-.124219.047321-.02366.254351-.141963.621093-.35491.366743-.212948.715735-.414062 1.046987-.603348.331252-.189287.508705-.283929.532366-.283929.094643 0 .366739.275053.816295.825167.449555.550115.757142.949385.922767 1.197824.236609-.023661.414062-.035491.532366-.035491.118305 0 .295758.01183.532366.035491.603352-.83996 1.147543-1.502453 1.63259-1.9875l.106473-.035491c.047322 0 .780796.414058 2.200446 1.242187.047322.035492.070982.076897.070982.124219 0 .295761-.301671 1.112047-.905022 2.448884.201117.2721.378571.579686.532366.922768 1.762732.177456 2.644085.360825 2.644085.550111zm0-18.171427v2.484375c0 .189286-.881353.372655-2.644085.550111-.141965.319421-.319418.627008-.532366.922768.603351 1.336837.905022 2.153123.905022 2.448884 0 .047321-.02366.088727-.070982.124219-1.443311.839959-2.176785 1.259932-2.200446 1.259932-.094643 0-.366739-.27801-.816295-.83404-.449555-.556029-.757142-.958257-.922768-1.206696-.236608.023661-.414061.035491-.532366.035491-.118304 0-.295757-.01183-.532366-.035491-.165625.248439-.473212.650667-.922767 1.206696-.449556.55603-.721652.83404-.816295.83404-.023661 0-.757136-.419973-2.200446-1.259932-.047322-.035492-.070982-.076898-.070982-.124219 0-.295761.301671-1.112047.905022-2.448884-.212948-.29576-.390401-.603347-.532366-.922768-1.762732-.177456-2.644085-.360825-2.644085-.550111v-2.484375c0-.189287.881353-.372656 2.644085-.550112.153795-.343082.331249-.650668.532366-.922768-.603351-1.336837-.905022-2.153123-.905022-2.448883 0-.047322.02366-.088728.070982-.124219.047321-.023661.254351-.141963.621093-.354911.366743-.212947.715735-.414061 1.046987-.603348s.508705-.283929.532366-.283929c.094643 0 .366739.275053.816295.825168.449555.550114.757142.949385.922767 1.197823.236609-.02366.414062-.035491.532366-.035491.118305 0 .295758.011831.532366.035491.603352-.839959 1.147543-1.502453 1.63259-1.9875l.106473-.035491c.047322 0 .780796.414059 2.200446 1.242188.047322.035491.070982.076897.070982.124219 0 .29576-.301671 1.112046-.905022 2.448883.201117.2721.378571.579686.532366.922768 1.762732.177456 2.644085.360825 2.644085.550112z"/><path d="m885.860729 188.873341c0-1.254024-.443634-2.324661-1.330915-3.211942-.887282-.887281-1.957918-1.330915-3.211942-1.330915s-2.324661.443634-3.211942 1.330915-1.330915 1.957918-1.330915 3.211942.443634 2.324661 1.330915 3.211942 1.957918 1.330915 3.211942 1.330915 2.32466-.443634 3.211942-1.330915c.887281-.887281 1.330915-1.957918 1.330915-3.211942zm13.62857 9.085714c0-.615182-.224774-1.147543-.67433-1.597098-.449556-.449556-.981916-.674331-1.597098-.674331s-1.147542.224775-1.597098.674331c-.449556.449555-.674331.981916-.674331 1.597098 0 .627012.221817 1.16233.665458 1.605971.443641.44364.978959.665457 1.605971.665457s1.16233-.221817 1.605971-.665457c.44364-.443641.665457-.978959.665457-1.605971zm0-18.171428c0-.615181-.224774-1.147542-.67433-1.597098s-.981916-.67433-1.597098-.67433-1.147542.224774-1.597098.67433-.674331.981917-.674331 1.597098c0 .627012.221817 1.162331.665458 1.605971.443641.443641.978959.665458 1.605971.665458s1.16233-.221817 1.605971-.665458c.44364-.44364.665457-.978959.665457-1.605971zm-6.814285 7.47087v3.282924c0 .118304-.041406.233649-.124219.346038s-.177455.174498-.283928.186328l-2.750558.425893c-.130135.414065-.319419.863614-.567857 1.348661.402234.56786.934595 1.248098 1.597098 2.040736.082813.118304.124219.236607.124219.354911 0 .141965-.041406.254352-.124219.337165-.2721.354913-.760097.884316-1.464007 1.588226-.703909.703909-1.168246 1.055859-1.393024 1.055859-.130135 0-.254352-.041406-.372656-.124219l-2.040737-1.597098c-.437725.224778-.893189.408147-1.366406.550112-.130135 1.277684-.266182 2.194528-.408147 2.750557-.082813.28393-.260267.425893-.532366.425893h-3.30067c-.130134 0-.248437-.044363-.354911-.133091-.106473-.088728-.165625-.192243-.177455-.310547l-.408147-2.715067c-.402234-.118304-.845868-.301673-1.330915-.550111l-2.093973 1.579352c-.082813.082813-.201116.124219-.354911.124219-.130135 0-.254352-.047321-.372656-.141964-1.70358-1.573446-2.555357-2.519865-2.555357-2.839286 0-.106474.041405-.218861.124218-.337165.118304-.165626.360824-.479127.727567-.940513.366743-.461387.644754-.822209.83404-1.082478-.272099-.520538-.479128-1.005578-.621093-1.455134l-2.697322-.425893c-.118304-.01183-.218861-.068024-.301674-.168582-.082813-.100559-.124218-.215904-.124218-.346038v-3.282924c0-.118304.041405-.233649.124218-.346038s.177455-.174498.283929-.186328l2.750558-.425893c.130134-.414065.319418-.863614.567857-1.348661-.402234-.56786-.934595-1.248098-1.597098-2.040736-.082813-.130135-.124219-.248437-.124219-.354911 0-.141965.041406-.260267.124219-.354911.260269-.354912.745309-.881358 1.455134-1.579352.709825-.697995 1.177119-1.046987 1.401897-1.046987.130134 0 .254352.041406.372656.124219l2.040737 1.597098c.402234-.212947.857698-.402231 1.366406-.567857.130134-1.277685.266182-2.188613.408147-2.732812.082813-.28393.260267-.425893.532366-.425893h3.30067c.130134 0 .248436.044363.35491.133091s.165625.192243.177456.310547l.408147 2.715067c.402234.118304.845868.301673 1.330915.550112l2.093973-1.579353c.094643-.082813.212946-.124219.354911-.124219.130134 0 .254352.047321.372656.141964 1.70358 1.573446 2.555357 2.519865 2.555357 2.839286 0 .106474-.041406.218861-.124219.337165-.141965.189287-.3904.508703-.745312.958259-.354913.449556-.621093.804463-.798549 1.064732.272099.56786.473213 1.0529.603348 1.455134l2.697321.408147c.118304.023661.218861.08577.301674.186328.082813.100559.124219.215904.124219.346038zm11.357142 9.45837v2.484375c0 .189287-.881352.372656-2.644084.550112-.141965.319421-.319419.627007-.532366.922768.603351 1.336837.905022 2.153123.905022 2.448883 0 .047322-.023661.088728-.070982.124219-1.443311.83996-2.176786 1.259933-2.200447 1.259933-.094643 0-.366738-.27801-.816294-.83404s-.757142-.958258-.922768-1.206696c-.236608.02366-.414062.035491-.532366.035491s-.295758-.011831-.532366-.035491c-.165626.248438-.473212.650666-.922768 1.206696s-.721651.83404-.816295.83404c-.02366 0-.757135-.419973-2.200446-1.259933-.047321-.035491-.070982-.076897-.070982-.124219 0-.29576.301671-1.112046.905022-2.448883-.212947-.295761-.390401-.603347-.532366-.922768-1.762732-.177456-2.644084-.360825-2.644084-.550112v-2.484375c0-.189286.881352-.372655 2.644084-.550111.153796-.343082.331249-.650668.532366-.922768-.603351-1.336837-.905022-2.153123-.905022-2.448884 0-.047321.023661-.088727.070982-.124219.047322-.02366.254351-.141963.621094-.35491.366743-.212948.715735-.414062 1.046986-.603348.331252-.189287.508706-.283929.532366-.283929.094644 0 .366739.275053.816295.825167.449556.550115.757142.949385.922768 1.197824.236608-.023661.414062-.035491.532366-.035491s.295758.01183.532366.035491c.603351-.83996 1.147542-1.502453 1.632589-1.9875l.106473-.035491c.047322 0 .780797.414058 2.200447 1.242187.047321.035492.070982.076898.070982.124219 0 .295761-.301671 1.112047-.905022 2.448884.201117.2721.37857.579686.532366.922768 1.762732.177456 2.644084.360825 2.644084.550111zm0-18.171427v2.484375c0 .189286-.881352.372655-2.644084.550111-.141965.319421-.319419.627008-.532366.922768.603351 1.336837.905022 2.153123.905022 2.448884 0 .047322-.023661.088727-.070982.124219-1.443311.839959-2.176786 1.259933-2.200447 1.259933-.094643 0-.366738-.278011-.816294-.834041-.449556-.556029-.757142-.958257-.922768-1.206696-.236608.023661-.414062.035491-.532366.035491s-.295758-.01183-.532366-.035491c-.165626.248439-.473212.650667-.922768 1.206696-.449556.55603-.721651.834041-.816295.834041-.02366 0-.757135-.419974-2.200446-1.259933-.047321-.035492-.070982-.076897-.070982-.124219 0-.295761.301671-1.112047.905022-2.448884-.212947-.29576-.390401-.603347-.532366-.922768-1.762732-.177456-2.644084-.360825-2.644084-.550111v-2.484375c0-.189287.881352-.372656 2.644084-.550112.153796-.343082.331249-.650668.532366-.922768-.603351-1.336837-.905022-2.153123-.905022-2.448883 0-.047322.023661-.088728.070982-.124219.047322-.023661.254351-.141963.621094-.354911.366743-.212947.715735-.414061 1.046986-.603348.331252-.189287.508706-.283929.532366-.283929.094644 0 .366739.275053.816295.825168.449556.550114.757142.949385.922768 1.197823.236608-.02366.414062-.035491.532366-.035491s.295758.011831.532366.035491c.603351-.839959 1.147542-1.502452 1.632589-1.987499l.106473-.035492c.047322 0 .780797.414059 2.200447 1.242188.047321.035491.070982.076897.070982.124219 0 .29576-.301671 1.112046-.905022 2.448883.201117.2721.37857.579686.532366.922768 1.762732.177456 2.644084.360825 2.644084.550112z"/></g></g></svg>