<svg height="78" viewBox="0 0 100 78" width="100" xmlns="http://www.w3.org/2000/svg"><g fill="none" fill-rule="evenodd" transform="translate(1)"><path d="m29 1 2.122 6.552h6.878l-5.572 4.034 2.144 6.528-5.572-4.057-5.549 4.057 2.145-6.528-5.596-4.034h6.901z" fill="#fca326"/><path d="m29 1 2.122 6.552h6.878l-5.572 4.034 2.144 6.528-5.572-4.057-5.549 4.057 2.145-6.528-5.596-4.034h6.901z" stroke="#333" stroke-linecap="round" stroke-linejoin="round" stroke-width="2"/><path d="m59 1 2.122 6.552h6.878l-5.572 4.034 2.144 6.528-5.572-4.057-5.549 4.057 2.145-6.528-5.596-4.034h6.901z" fill="#fca326"/><path d="m59 1 2.122 6.552h6.878l-5.572 4.034 2.144 6.528-5.572-4.057-5.549 4.057 2.145-6.528-5.596-4.034h6.901z" stroke="#333" stroke-linecap="round" stroke-linejoin="round" stroke-width="2"/><path d="m89 1 2.122 6.552h6.878l-5.572 4.034 2.144 6.528-5.572-4.057-5.549 4.057 2.145-6.528-5.596-4.034h6.901z" fill="#fca326"/><g transform="translate(0 .114)"><path d="m89 .886 2.122 6.552h6.878l-5.572 4.034 2.144 6.528-5.572-4.057-5.549 4.057 2.145-6.528-5.596-4.034h6.901z" stroke="#333" stroke-linecap="round" stroke-linejoin="round" stroke-width="2"/><path d="m8 14.886h-6c-1.104 0-2-.896-2-2v-6c0-1.104.896-2 2-2h6c1.104 0 2 .896 2 2v6c0 1.104-.896 2-2 2" fill="#fff"/><path d="m8 14.886h-6c-1.104 0-2-.896-2-2v-6c0-1.104.896-2 2-2h6c1.104 0 2 .896 2 2v6c0 1.104-.896 2-2 2z" stroke="#333" stroke-linecap="round" stroke-linejoin="round" stroke-width="2"/><path d="m29 29.886 2.122 6.552h6.878l-5.572 4.034 2.144 6.528-5.572-4.057-5.549 4.057 2.145-6.528-5.596-4.034h6.901z" fill="#fca326"/><path d="m29 29.886 2.122 6.552h6.878l-5.572 4.034 2.144 6.528-5.572-4.057-5.549 4.057 2.145-6.528-5.596-4.034h6.901z" stroke="#333" stroke-linecap="round" stroke-linejoin="round" stroke-width="2"/><path d="m59 29.886 2.122 6.552h6.878l-5.572 4.034 2.144 6.528-5.572-4.057-5.549 4.057 2.145-6.528-5.596-4.034h6.901z" fill="#fff"/><path d="m59 29.886 2.122 6.552h6.878l-5.572 4.034 2.144 6.528-5.572-4.057-5.549 4.057 2.145-6.528-5.596-4.034h6.901z" stroke="#333" stroke-linecap="round" stroke-linejoin="round" stroke-width="2"/><path d="m89 29.886 2.122 6.552h6.878l-5.572 4.034 2.144 6.528-5.572-4.057-5.549 4.057 2.145-6.528-5.596-4.034h6.901z" fill="#fff"/><path d="m89 29.886 2.122 6.552h6.878l-5.572 4.034 2.144 6.528-5.572-4.057-5.549 4.057 2.145-6.528-5.596-4.034h6.901z" stroke="#333" stroke-linecap="round" stroke-linejoin="round" stroke-width="2"/><path d="m8 43.886h-6c-1.104 0-2-.896-2-2v-6c0-1.104.896-2 2-2h6c1.104 0 2 .896 2 2v6c0 1.104-.896 2-2 2" fill="#fff"/><path d="m8 43.886h-6c-1.104 0-2-.896-2-2v-6c0-1.104.896-2 2-2h6c1.104 0 2 .896 2 2v6c0 1.104-.896 2-2 2z" stroke="#333" stroke-linecap="round" stroke-linejoin="round" stroke-width="2"/><path d="m29 58.886 2.122 6.552h6.878l-5.572 4.034 2.144 6.528-5.572-4.057-5.549 4.057 2.145-6.528-5.596-4.034h6.901z" fill="#fca326"/><path d="m29 58.886 2.122 6.552h6.878l-5.572 4.034 2.144 6.528-5.572-4.057-5.549 4.057 2.145-6.528-5.596-4.034h6.901z" stroke="#333" stroke-linecap="round" stroke-linejoin="round" stroke-width="2"/><path d="m59 58.886 2.122 6.552h6.878l-5.572 4.034 2.144 6.528-5.572-4.057-5.549 4.057 2.145-6.528-5.596-4.034h6.901z" fill="#fca326"/><path d="m59 58.886 2.122 6.552h6.878l-5.572 4.034 2.144 6.528-5.572-4.057-5.549 4.057 2.145-6.528-5.596-4.034h6.901z" stroke="#333" stroke-linecap="round" stroke-linejoin="round" stroke-width="2"/><path d="m89 58.886 2.122 6.552h6.878l-5.572 4.034 2.144 6.528-5.572-4.057-5.549 4.057 2.145-6.528-5.596-4.034h6.901z" fill="#fff"/><path d="m89 58.886 2.122 6.552h6.878l-5.572 4.034 2.144 6.528-5.572-4.057-5.549 4.057 2.145-6.528-5.596-4.034h6.901z" stroke="#333" stroke-linecap="round" stroke-linejoin="round" stroke-width="2"/><path d="m8 72.886h-6c-1.104 0-2-.896-2-2v-6c0-1.104.896-2 2-2h6c1.104 0 2 .896 2 2v6c0 1.104-.896 2-2 2" fill="#fff"/><path d="m8 72.886h-6c-1.104 0-2-.896-2-2v-6c0-1.104.896-2 2-2h6c1.104 0 2 .896 2 2v6c0 1.104-.896 2-2 2z" stroke="#333" stroke-linecap="round" stroke-linejoin="round" stroke-width="2"/></g></g></svg>