<svg height="78" viewBox="0 0 100 78" width="100" xmlns="http://www.w3.org/2000/svg"><g fill="none" fill-rule="evenodd" transform="translate(1)"><path d="m22.6289 65.6807c13.651 0 22.483-8.614 22.483-20.513v-28.103c0-3.14-1.605-4.745-4.744-4.745h-5.84c-3.139 0-4.745 1.605-4.745 4.745v28.177c0 4.306-2.846 6.423-7.227 6.423-4.307 0-7.154-2.117-7.154-6.497v-28.103c0-3.14-1.678-4.745-4.745-4.745h-5.912c-3.066 0-4.745 1.605-4.745 4.745v28.103c0 11.899 8.833 20.513 22.629 20.513" fill="#fc6d26"/><path d="m93.8945 12.3193h-7.008c-2.555 0-4.306 1.021-5.619 3.431l-2.848 5.766c-1.898 3.651-3.212 7.008-3.212 7.008h-.145s-1.314-3.504-3.139-7.008l-2.775-5.766c-1.313-2.41-3.065-3.431-5.693-3.431h-6.936c-3.795 0-5.182 2.409-3.211 5.693l12.775 21.17-12.191 19.856c-1.971 3.357-.584 5.766 3.357 5.766h6.352c2.627 0 4.379-1.021 5.693-3.43l2.629-5.256c1.897-3.431 3.211-6.716 3.211-6.716h.147s1.314 3.285 3.211 6.789l2.554 5.183c1.315 2.409 3.067 3.43 5.621 3.43h6.571c3.869 0 5.256-2.409 3.213-5.766l-12.192-19.856 12.848-21.17c1.971-3.284.584-5.693-3.213-5.693" fill="#fc6d26"/><path d="m93.8945 12.3193h-7.008c-2.555 0-4.306 1.021-5.619 3.431l-2.848 5.766c-.572 1.101-1.089 2.172-1.536 3.135l12.355 6.327 7.869-12.966c1.971-3.284.584-5.693-3.213-5.693" fill="#e24329"/><path d="m71.9238 21.5166-2.775-5.767c-1.313-2.409-3.065-3.43-5.694-3.43h-6.935c-1.08 0-1.958.201-2.627.555l18.439 9.446c-.133-.268-.269-.535-.408-.804" fill="#e24329"/><path d="m22.6289 65.6807c7.305 0 13.209-2.482 17.139-6.599l-10.25-11.757c-.797 2.905-3.36 4.34-6.962 4.34-4.307 0-7.154-2.117-7.154-6.497v-14.033l-14.733-16.9c-.438.735-.669 1.677-.669 2.83v28.103c0 11.899 8.833 20.513 22.629 20.513" fill="#fca326"/><g stroke="#333" stroke-width="2"><path d="m0 17.0645c0-3.14 1.679-4.745 4.745-4.745h5.912c3.067 0 4.745 1.605 4.745 4.745v28.104c0 4.379 2.847 6.497 7.154 6.497 4.381 0 7.227-2.118 7.227-6.424v-28.177c0-3.14 1.606-4.745 4.745-4.745h5.84c3.139 0 4.744 1.605 4.744 4.745v28.104c0 11.898-8.832 20.512-22.483 20.512-13.796 0-22.629-8.614-22.629-20.512z"/><path d="m66.083 39.1826-12.775-21.17c-1.971-3.284-.584-5.693 3.212-5.693h6.934c2.629 0 4.381 1.021 5.694 3.43l2.775 5.767c1.824 3.504 3.139 7.008 3.139 7.008h.145s1.314-3.358 3.212-7.008l2.848-5.767c1.313-2.409 3.065-3.43 5.62-3.43h7.008c3.795 0 5.182 2.409 3.211 5.693l-12.847 21.17 12.191 19.855c2.043 3.358.656 5.767-3.213 5.767h-6.569c-2.555 0-4.307-1.021-5.621-3.431l-2.555-5.182c-1.897-3.504-3.212-6.789-3.212-6.789h-.146s-1.314 3.285-3.211 6.716l-2.629 5.255c-1.314 2.41-3.065 3.431-5.693 3.431h-6.351c-3.942 0-5.329-2.409-3.358-5.767z"/><path d="m0 77h68" stroke-linecap="round" stroke-linejoin="round"/><path d="m74 77h14" stroke-linecap="round" stroke-linejoin="round"/><path d="m94 77h4" stroke-linecap="round" stroke-linejoin="round"/><path d="m98 1h-68" stroke-linecap="round" stroke-linejoin="round"/><path d="m24 1h-14" stroke-linecap="round" stroke-linejoin="round"/><path d="m4 1h-4" stroke-linecap="round" stroke-linejoin="round"/></g></g></svg>