<svg height="100" viewBox="0 0 100 100" width="100" xmlns="http://www.w3.org/2000/svg"><g fill="none" fill-rule="evenodd" transform="translate(1 1)"><path d="m49 72v16" stroke="#333" stroke-linecap="round" stroke-linejoin="round" stroke-width="2"/><path d="m49 11v28" stroke="#333" stroke-linecap="round" stroke-linejoin="round" stroke-width="2"/><path d="m88 49h-15" stroke="#333" stroke-linecap="round" stroke-linejoin="round" stroke-width="2"/><path d="m63.417 63.417 13.16 13.16" stroke="#333" stroke-linecap="round" stroke-linejoin="round" stroke-width="2"/><path d="m34.5 63.5-13.077 13.077" stroke="#333" stroke-linecap="round" stroke-linejoin="round" stroke-width="2"/><path d="m49.0039 66.5762 7.11-21.636h-14.22z" fill="#e24329"/><path d="m48.999 66.5762-7.111-21.636h-9.956z" fill="#fc6d26"/><path d="m31.9287 44.9473-2.164 6.574c-.196.597.016 1.256.533 1.628l18.697 13.434z" fill="#fca326"/><path d="m31.9307 44.9473h9.965l-4.288-13.03c-.22-.667-1.177-.667-1.404 0z" fill="#e24329"/><path d="m49.0039 66.5762 7.11-21.636h9.965z" fill="#fc6d26"/><path d="m66.0713 44.9473 2.164 6.574c.196.597-.016 1.256-.533 1.628l-18.697 13.426z" fill="#fca326"/><path d="m66.0771 44.9473h-9.965l4.28-13.03c.22-.667 1.177-.667 1.404 0z" fill="#e24329"/><g stroke="#333" stroke-linecap="round" stroke-linejoin="round" stroke-width="2"><path d="m49.0039 66.5762 7.11-21.636h-14.22z"/><path d="m48.999 66.5762-7.111-21.636h-9.956z"/><path d="m31.9287 44.9473-2.164 6.574c-.196.597.016 1.256.533 1.628l18.697 13.434z"/><path d="m31.9307 44.9473h9.965l-4.288-13.03c-.22-.667-1.177-.667-1.404 0z"/><path d="m49.0039 66.5762 7.11-21.636h9.965z"/><path d="m66.0713 44.9473 2.164 6.574c.196.597-.016 1.256-.533 1.628l-18.697 13.426z"/><path d="m66.0771 44.9473h-9.965l4.28-13.03c.22-.667 1.177-.667 1.404 0z"/></g><path d="m54 5c0 2.762-2.238 5-5 5s-5-2.238-5-5 2.238-5 5-5 5 2.238 5 5" fill="#fc6d26"/><path d="m54 5c0 2.762-2.238 5-5 5s-5-2.238-5-5 2.238-5 5-5 5 2.238 5 5z" stroke="#333" stroke-linecap="round" stroke-linejoin="round" stroke-width="2"/><path d="m54 93c0 2.762-2.238 5-5 5s-5-2.238-5-5 2.238-5 5-5 5 2.238 5 5" fill="#ccc"/><path d="m54 93c0 2.762-2.238 5-5 5s-5-2.238-5-5 2.238-5 5-5 5 2.238 5 5z" stroke="#333" stroke-linecap="round" stroke-linejoin="round" stroke-width="2"/><path d="m93 54c-2.762 0-5-2.238-5-5s2.238-5 5-5 5 2.238 5 5-2.238 5-5 5" fill="#fc6d26"/><path d="m93 54c-2.762 0-5-2.238-5-5s2.238-5 5-5 5 2.238 5 5-2.238 5-5 5z" stroke="#333" stroke-linecap="round" stroke-linejoin="round" stroke-width="2"/><path d="m5 54c-2.762 0-5-2.238-5-5s2.238-5 5-5 5 2.238 5 5-2.238 5-5 5" fill="#fca326"/><path d="m5 54c-2.762 0-5-2.238-5-5s2.238-5 5-5 5 2.238 5 5-2.238 5-5 5z" stroke="#333" stroke-linecap="round" stroke-linejoin="round" stroke-width="2"/><path d="m21.4229 14.3516c1.952 1.953 1.952 5.118 0 7.071-1.953 1.952-5.118 1.952-7.071 0-1.952-1.953-1.952-5.118 0-7.071 1.953-1.952 5.118-1.952 7.071 0" fill="#ccc"/><path d="m21.4229 14.3516c1.952 1.953 1.952 5.118 0 7.071-1.953 1.952-5.118 1.952-7.071 0-1.952-1.953-1.952-5.118 0-7.071 1.953-1.952 5.118-1.952 7.071 0z" stroke="#333" stroke-linecap="round" stroke-linejoin="round" stroke-width="2"/><path d="m83.6484 76.5771c1.952 1.953 1.952 5.118 0 7.071-1.953 1.952-5.118 1.952-7.071 0-1.952-1.953-1.952-5.118 0-7.071 1.953-1.952 5.118-1.952 7.071 0" fill="#fca326"/><path d="m83.6484 76.5771c1.952 1.953 1.952 5.118 0 7.071-1.953 1.952-5.118 1.952-7.071 0-1.952-1.953-1.952-5.118 0-7.071 1.953-1.952 5.118-1.952 7.071 0z" stroke="#333" stroke-linecap="round" stroke-linejoin="round" stroke-width="2"/><path d="m83.6484 21.4229c-1.953 1.952-5.118 1.952-7.071 0-1.952-1.953-1.952-5.118 0-7.071 1.953-1.952 5.118-1.952 7.071 0 1.952 1.953 1.952 5.118 0 7.071" fill="#e24329"/><path d="m83.6484 21.4229c-1.953 1.952-5.118 1.952-7.071 0-1.952-1.953-1.952-5.118 0-7.071 1.953-1.952 5.118-1.952 7.071 0 1.952 1.953 1.952 5.118 0 7.071z" stroke="#333" stroke-linecap="round" stroke-linejoin="round" stroke-width="2"/><path d="m21.4229 83.6484c-1.953 1.952-5.118 1.952-7.071 0-1.952-1.953-1.952-5.118 0-7.071 1.953-1.952 5.118-1.952 7.071 0 1.952 1.953 1.952 5.118 0 7.071" fill="#e24329"/><path d="m21.4229 83.6484c-1.953 1.952-5.118 1.952-7.071 0-1.952-1.953-1.952-5.118 0-7.071 1.953-1.952 5.118-1.952 7.071 0 1.952 1.953 1.952 5.118 0 7.071z" stroke="#333" stroke-linecap="round" stroke-linejoin="round" stroke-width="2"/><path d="m25 49h-15" stroke="#333" stroke-linecap="round" stroke-linejoin="round" stroke-width="2"/><path d="m21.4229 21.4229 9.035 9.035" stroke="#333" stroke-linecap="round" stroke-linejoin="round" stroke-width="2"/><path d="m76.5771 21.4229-9.035 9.035" stroke="#333" stroke-linecap="round" stroke-linejoin="round" stroke-width="2"/></g></svg>