<svg height="82" viewBox="0 0 100 82" width="100" xmlns="http://www.w3.org/2000/svg"><g fill="none" fill-rule="evenodd" transform="translate(1 1)"><path d="m49 2.623c-7.722 0-13.981-1.175-13.981-2.623 0 5.795 6.259 10.492 13.981 10.492s13.981-4.697 13.981-10.492c0 1.448-6.259 2.623-13.981 2.623" fill="#6d65ba"/><path d="m49 2.623c-7.722 0-13.981-1.175-13.981-2.623 0 5.795 6.259 10.492 13.981 10.492s13.981-4.697 13.981-10.492c0 1.448-6.259 2.623-13.981 2.623z" stroke="#333" stroke-linecap="round" stroke-linejoin="round" stroke-width="2"/><path d="m74.5664 0h-11.651c0 5.795-6.259 10.492-13.981 10.492s-13.981-4.697-13.981-10.492h-11.652l-23.301 25.966 13.181 14.838 10.12-11.393v50.589h51.265v-50.736l10.252 11.54 13.182-14.838z" fill="#9795f9"/><path d="m74.5664 0h-11.651c0 5.795-6.259 10.492-13.981 10.492s-13.981-4.697-13.981-10.492h-11.652l-23.301 25.966 13.181 14.838 10.12-11.393v50.589h51.265v-50.736l10.252 11.54 13.182-14.838z" stroke="#333" stroke-linecap="round" stroke-linejoin="round" stroke-width="2"/><path d="m49.0029 47.5566 5.524-16.688h-11.048z" fill="#e24329"/><path d="m48.999 47.5566-5.524-16.688h-7.736z" fill="#fc6d26"/><path d="m35.7373 30.874-1.682 5.07c-.152.461.013.969.415 1.256l14.526 10.362z" fill="#fca326"/><path d="m35.7393 30.874h7.741l-3.332-10.051c-.17-.514-.913-.514-1.09 0z" fill="#e24329"/><path d="m49.0029 47.5566 5.524-16.688h7.742z" fill="#fc6d26"/><path d="m62.2627 30.874 1.682 5.07c.152.461-.013.969-.415 1.256l-14.526 10.357z" fill="#fca326"/><path d="m62.2666 30.874h-7.741l3.326-10.051c.17-.514.913-.514 1.09 0z" fill="#e24329"/><g stroke="#333" stroke-linecap="round" stroke-linejoin="round" stroke-width="2"><path d="m49.0029 47.5566 5.524-16.688h-11.048z"/><path d="m48.999 47.5566-5.524-16.688h-7.736z"/><path d="m35.7373 30.874-1.682 5.07c-.152.461.013.969.415 1.256l14.526 10.362z"/><path d="m35.7393 30.874h7.741l-3.332-10.051c-.17-.514-.913-.514-1.09 0z"/><path d="m49.0029 47.5566 5.524-16.688h7.742z"/><path d="m62.2627 30.874 1.682 5.07c.152.461-.013.969-.415 1.256l-14.526 10.357z"/><path d="m62.2666 30.874h-7.741l3.326-10.051c.17-.514.913-.514 1.09 0z"/></g></g></svg>