<svg height="101" viewBox="0 0 100 101" width="100" xmlns="http://www.w3.org/2000/svg"><g fill="none" fill-rule="evenodd" transform="translate(1)"><path d="m0 99.098h98v-56h-98z" fill="#fff"/><g transform="translate(0 .098)"><path d="m0 99h98v-56h-98z" stroke="#333" stroke-linecap="round" stroke-linejoin="round" stroke-width="2"/><path d="m0 42.9997h98l-45.096-40.652c-2.246-1.927-5.562-1.927-7.808 0z" fill="#fcf2eb"/><path d="m0 42.9997h98l-45.096-40.652c-2.246-1.927-5.562-1.927-7.808 0z" stroke="#333" stroke-linecap="round" stroke-linejoin="round" stroke-width="2"/><path d="m80 98.9997h-62c-3.313 0-6-2.686-6-6v-76c0-3.313 2.687-6 6-6h62c3.313 0 6 2.687 6 6v76c0 3.314-2.687 6-6 6" fill="#fff"/><path d="m80 98.9997h-62c-3.313 0-6-2.686-6-6v-76c0-3.313 2.687-6 6-6h62c3.313 0 6 2.687 6 6v76c0 3.314-2.687 6-6 6z" stroke="#333" stroke-linecap="round" stroke-linejoin="round" stroke-width="2"/><path d="m0 98.9997h96c1.104 0 2-.896 2-2v-54z" fill="#fcf2eb"/><path d="m0 98.9997h96c1.104 0 2-.896 2-2v-54z" stroke="#333" stroke-linecap="round" stroke-linejoin="round" stroke-width="2"/><path d="m98 98.9997h-96c-1.104 0-2-.896-2-2v-54z" fill="#fcf2eb"/><path d="m98 98.9997h-96c-1.104 0-2-.896-2-2v-54z" stroke="#333" stroke-linecap="round" stroke-linejoin="round" stroke-width="2"/><path d="m44 33.667h10v-4h-10z" fill="#fff"/><path d="m44 33.667h10v-4h-10z" stroke="#333" stroke-linecap="round" stroke-linejoin="round" stroke-width="2"/><path d="m49 18.6667c0 1.104-.896 2-2 2s-2-.896-2-2 .896-2 2-2 2 .896 2 2" fill="#fca326"/><path d="m49 18.6667c0 1.104-.896 2-2 2s-2-.896-2-2 .896-2 2-2 2 .896 2 2z" stroke="#333" stroke-linecap="round" stroke-linejoin="round" stroke-width="2"/><path d="m60 22.6667c0 1.657-1.343 3-3 3s-3-1.343-3-3 1.343-3 3-3 3 1.343 3 3" fill="#fc6d26"/><path d="m60 22.6667c0 1.657-1.343 3-3 3s-3-1.343-3-3 1.343-3 3-3 3 1.343 3 3z" stroke="#333" stroke-linecap="round" stroke-linejoin="round" stroke-width="2"/><path d="m41 25.6667c0 .553-.447 1-1 1s-1-.447-1-1 .447-1 1-1 1 .447 1 1" fill="#333"/><path d="m52.2725 42.1618v-8.495h-6.545v8.495c-4.477 1.394-7.727 5.569-7.727 10.505 0 6.075 4.924 11 11 11 6.075 0 11-4.925 11-11 0-4.936-3.25-9.111-7.728-10.505" fill="#fff"/><path d="m52.2725 42.1618v-8.495h-6.545v8.495c-4.477 1.394-7.727 5.569-7.727 10.505 0 6.075 4.924 11 11 11 6.075 0 11-4.925 11-11 0-4.936-3.25-9.111-7.728-10.505z" stroke="#333" stroke-linecap="round" stroke-linejoin="round" stroke-width="2"/><path d="m55 49.6667c0 .553-.447 1-1 1s-1-.447-1-1 .447-1 1-1 1 .447 1 1" fill="#333"/><path d="m54.084 55.0007c0-1.105-.896-2-2-2-1.105 0-2 .895-2 2h-11.83c1.07 4.953 5.473 8.666 10.746 8.666s9.676-3.713 10.746-8.666z" fill="#9795f9"/><path d="m54.084 55.0007c0-1.105-.896-2-2-2-1.105 0-2 .895-2 2h-11.83c1.07 4.953 5.473 8.666 10.746 8.666s9.676-3.713 10.746-8.666z" stroke="#333" stroke-linecap="round" stroke-linejoin="round" stroke-width="2"/><path d="m47 58.6667c0 .553-.447 1-1 1s-1-.447-1-1 .447-1 1-1 1 .447 1 1" fill="#333"/></g></g></svg>