<?xml version="1.0" encoding="UTF-8"?>
<svg width="100px" height="100px" viewBox="0 0 100 100" version="1.1" xmlns="http://www.w3.org/2000/svg" xmlns:xlink="http://www.w3.org/1999/xlink">
    <!-- Generator: Sketch 52.3 (67297) - http://www.bohemiancoding.com/sketch -->
    <title>improve-icon</title>
    <desc>Created with Sketch.</desc>
    <g id="Page-1" stroke="none" stroke-width="1" fill="none" fill-rule="evenodd">
        <g id="GitLab-First-Look" transform="translate(-1003.000000, -563.000000)">
            <g id="improve-icon" transform="translate(1004.000000, 564.000000)">
                <polygon id="Fill-1" fill="#FCD3A7" points="-0.0001 68.0004 4.9999 68.0004 4.9999 98.0004 24.9999 98.0004 24.9999 68.0004 29.9999 68.0004 14.9999 56.0004"></polygon>
                <polygon id="Stroke-2" stroke="#333333" stroke-width="2" stroke-linecap="round" stroke-linejoin="round" points="15 56.0005 0 68.0005 5 68.0005 5 98.0005 25 98.0005 25 68.0005 30 68.0005"></polygon>
                <polygon id="Fill-4" fill="#FCBA72" points="34.0001 40.0005 38.9991 40.0005 38.9991 98.0005 59.0001 98.0005 59.0001 40.0005 64.0001 40.0005 49.0001 28.0005"></polygon>
                <polygon id="Stroke-5" stroke="#333333" stroke-width="2" stroke-linecap="round" stroke-linejoin="round" points="49 28.0005 34 40.0005 39 40.0005 39 98.0005 59 98.0005 59 40.0005 64 40.0005"></polygon>
                <polygon id="Fill-7" fill="#FCA326" points="68.0003 12.0006 72.9993 12.0006 72.9993 98.0006 92.9993 98.0006 92.9993 12.0006 98.0003 12.0006 82.9993 0.0006"></polygon>
                <polygon id="Stroke-8" stroke="#333333" stroke-width="2" stroke-linecap="round" stroke-linejoin="round" points="83 0.0005 68 12.0005 73 12.0005 73 98.0005 93 98.0005 93 12.0005 98 12.0005"></polygon>
                <path d="M19,32.6665 L19,38.6665" id="Stroke-10" stroke="#333333" stroke-width="2" stroke-linecap="round" stroke-linejoin="round"></path>
                <path d="M22,35.6665 L16,35.6665" id="Stroke-11" stroke="#333333" stroke-width="2" stroke-linecap="round" stroke-linejoin="round"></path>
                <path d="M8,20.9995 L8,26.9995" id="Stroke-12" stroke="#333333" stroke-width="2" stroke-linecap="round" stroke-linejoin="round"></path>
                <path d="M11,23.9995 L5,23.9995" id="Stroke-13" stroke="#333333" stroke-width="2" stroke-linecap="round" stroke-linejoin="round"></path>
                <path d="M52,3.6665 L52,9.6665" id="Stroke-14" stroke="#333333" stroke-width="2" stroke-linecap="round" stroke-linejoin="round"></path>
                <path d="M55,6.6665 L49,6.6665" id="Stroke-15" stroke="#333333" stroke-width="2" stroke-linecap="round" stroke-linejoin="round"></path>
            </g>
        </g>
    </g>
</svg>