<svg height="69" viewBox="0 0 101 69" width="101" xmlns="http://www.w3.org/2000/svg"><g fill="none" fill-rule="evenodd" transform="translate(1)"><path d="m84.2504 55.501v4" stroke="#333" stroke-linecap="round" stroke-linejoin="round" stroke-width="2"/><path d="m86.2504 57.501h-4" stroke="#333" stroke-linecap="round" stroke-linejoin="round" stroke-width="2"/><path d="m49.2563 67.1436 11.049-33.617h-22.097z" fill="#e24329"/><path d="m49.2485 67.1436-11.049-33.617h-15.47z" fill="#fc6d26"/><g transform="translate(0 .1554)"><path d="m22.725 33.3828-3.362 10.214c-.305.928.024 1.951.828 2.529l29.053 20.874z" fill="#fca326"/><path d="m22.7289 33.3828h15.482l-6.663-20.248c-.341-1.036-1.827-1.036-2.18 0z" fill="#e24329"/><path d="m49.2563 66.9882 11.049-33.617h15.482z" fill="#fc6d26"/><path d="m75.7758 33.3828 3.362 10.214c.305.928-.024 1.951-.828 2.529l-29.053 20.862z" fill="#fca326"/><path d="m75.7846 33.3828h-15.482l6.65-20.248c.342-1.036 1.827-1.036 2.181 0z" fill="#e24329"/><g stroke="#333" stroke-linecap="round" stroke-linejoin="round" stroke-width="2"><path d="m49.2563 66.9882 11.049-33.617h-22.097z"/><path d="m49.2485 66.9882-11.049-33.617h-15.47z"/><path d="m22.725 33.3828-3.362 10.214c-.305.928.024 1.951.828 2.529l29.053 20.874z"/><path d="m22.7289 33.3828h15.482l-6.663-20.248c-.341-1.036-1.827-1.036-2.18 0z"/><path d="m49.2563 66.9882 11.049-33.617h15.482z"/><path d="m75.7758 33.3828 3.362 10.214c.305.928-.024 1.951-.828 2.529l-29.053 20.862z"/><path d="m75.7846 33.3828h-15.482l6.65-20.248c.342-1.036 1.827-1.036 2.181 0z"/></g><path d="m88.225 5.3701 4.524 2.475-4.524 2.474-2.476 4.526-2.474-4.526-4.526-2.474 4.526-2.475 2.474-4.525z" fill="#fca326"/><path d="m88.225 5.3701 4.524 2.475-4.524 2.474-2.476 4.526-2.474-4.526-4.526-2.474 4.526-2.475 2.474-4.525z" stroke="#333" stroke-linecap="round" stroke-linejoin="round" stroke-width="2"/><path d="m95.9877 31.1074 2.263 1.238-2.263 1.238-1.238 2.263-1.238-2.263-2.263-1.238 2.263-1.238 1.238-2.263z" fill="#fc6d26"/><path d="m95.9877 31.1074 2.263 1.238-2.263 1.238-1.238 2.263-1.238-2.263-2.263-1.238 2.263-1.238 1.238-2.263z" stroke="#333" stroke-linecap="round" stroke-linejoin="round" stroke-width="2"/><path d="m14.0004 55.3456v4" stroke="#333" stroke-linecap="round" stroke-linejoin="round" stroke-width="2"/><path d="m12.0004 57.3456h4" stroke="#333" stroke-linecap="round" stroke-linejoin="round" stroke-width="2"/><path d="m10.0258 5.3701-4.525 2.475 4.525 2.474 2.475 4.526 2.475-4.526 4.525-2.474-4.525-2.475-2.475-4.525z" fill="#fca326"/><path d="m10.0258 5.3701-4.525 2.475 4.525 2.474 2.475 4.526 2.475-4.526 4.525-2.474-4.525-2.475-2.475-4.525z" stroke="#333" stroke-linecap="round" stroke-linejoin="round" stroke-width="2"/><path d="m2.2631 31.1074-2.263 1.238 2.263 1.238 1.237 2.263 1.239-2.263 2.262-1.238-2.262-1.238-1.239-2.263z" fill="#fc6d26"/><path d="m2.2631 31.1074-2.263 1.238 2.263 1.238 1.237 2.263 1.239-2.263 2.262-1.238-2.262-1.238-1.239-2.263z" stroke="#333" stroke-linecap="round" stroke-linejoin="round" stroke-width="2"/></g></g></svg>