<?xml version="1.0" encoding="UTF-8"?>
<svg width="66px" height="100px" viewBox="0 0 66 100" version="1.1" xmlns="http://www.w3.org/2000/svg" xmlns:xlink="http://www.w3.org/1999/xlink">
    <!-- Generator: Sketch 52.3 (67297) - http://www.bohemiancoding.com/sketch -->
    <title>access-icon</title>
    <desc>Created with Sketch.</desc>
    <defs>
        <polygon id="path-1" points="0 100 66 100 66 0 0 0"></polygon>
    </defs>
    <g id="Page-1" stroke="none" stroke-width="1" fill="none" fill-rule="evenodd">
        <g id="GitLab-First-Look" transform="translate(-687.000000, -1252.000000)">
            <g id="access-icon" transform="translate(687.000000, 1252.000000)">
                <polygon id="Fill-1" fill="#E24329" points="38 22.9995 28 22.9995 18 0.9995 28 0.9995"></polygon>
                <g id="Group-16">
                    <polygon id="Stroke-2" stroke="#333333" stroke-width="2" stroke-linecap="round" stroke-linejoin="round" points="38 22.9995 28 22.9995 18 0.9995 28 0.9995"></polygon>
                    <path d="M40,23.0005 L26,23.0005 C24.896,23.0005 24,22.1045 24,21.0005 C24,19.8955 24.896,19.0005 26,19.0005 L40,19.0005 C41.104,19.0005 42,19.8955 42,21.0005 C42,22.1045 41.104,23.0005 40,23.0005 M63.673,20.1895 L35.018,11.3505 C33.713,10.8835 32.287,10.8835 30.982,11.3505 L2.327,20.1895 C1.531,20.4755 1,21.2305 1,22.0805 L1,92.9775 C1,96.3035 3.687,99.0005 7,99.0005 L59,99.0005 C62.313,99.0005 65,96.3035 65,92.9775 L65,22.0805 C65,21.2305 64.469,20.4755 63.673,20.1895" id="Fill-4" fill="#CCCCCC"></path>
                    <path d="M40,23.0005 L26,23.0005 C24.896,23.0005 24,22.1045 24,21.0005 C24,19.8955 24.896,19.0005 26,19.0005 L40,19.0005 C41.104,19.0005 42,19.8955 42,21.0005 C42,22.1045 41.104,23.0005 40,23.0005 Z M63.673,20.1895 L35.018,11.3505 C33.713,10.8835 32.287,10.8835 30.982,11.3505 L2.327,20.1895 C1.531,20.4755 1,21.2305 1,22.0805 L1,92.9775 C1,96.3035 3.687,99.0005 7,99.0005 L59,99.0005 C62.313,99.0005 65,96.3035 65,92.9775 L65,22.0805 C65,21.2305 64.469,20.4755 63.673,20.1895 Z" id="Stroke-6" stroke="#333333" stroke-width="2" stroke-linecap="round" stroke-linejoin="round"></path>
                    <mask id="mask-2" fill="white">
                        <use xlink:href="#path-1"></use>
                    </mask>
                    <g id="Clip-9"></g>
                    <polygon id="Fill-8" fill="#FFFFFF" mask="url(#mask-2)" points="11 89 55 89 55 29 11 29"></polygon>
                    <path d="M55,62.9995 L55,86.9995 C55,88.1035 54.104,88.9995 53,88.9995 L13,88.9995 C11.896,88.9995 11,88.1035 11,86.9995 L11,62.9995" id="Stroke-10" stroke="#333333" stroke-width="2" stroke-linecap="round" stroke-linejoin="round" mask="url(#mask-2)"></path>
                    <path d="M11,41.9995 L11,30.9995 C11,29.8955 11.896,28.9995 13,28.9995 L53,28.9995 C54.104,28.9995 55,29.8955 55,30.9995 L55,41.9995" id="Stroke-11" stroke="#333333" stroke-width="2" stroke-linecap="round" stroke-linejoin="round" mask="url(#mask-2)"></path>
                    <polygon id="Fill-12" fill="#FC6D26" mask="url(#mask-2)" points="28 22.9995 38 22.9995 48 0.9995 38 0.9995"></polygon>
                    <polygon id="Stroke-13" stroke="#333333" stroke-width="2" stroke-linecap="round" stroke-linejoin="round" mask="url(#mask-2)" points="28 22.9995 38 22.9995 48 0.9995 38 0.9995"></polygon>
                    <polygon id="Fill-14" fill="#FCA326" mask="url(#mask-2)" points="33 37.0825 38.187 53.0985 55 53.0985 41.378 62.9585 46.622 78.9165 33 68.9995 19.436 78.9165 24.679 62.9585 11 53.0985 27.87 53.0985"></polygon>
                    <polygon id="Stroke-15" stroke="#333333" stroke-width="2" stroke-linecap="round" stroke-linejoin="round" mask="url(#mask-2)" points="33 37.0825 38.187 53.0985 55 53.0985 41.378 62.9585 46.622 78.9165 33 68.9995 19.436 78.9165 24.679 62.9585 11 53.0985 27.87 53.0985"></polygon>
                </g>
            </g>
        </g>
    </g>
</svg>