<svg height="130" viewBox="0 0 353 130" width="353" xmlns="http://www.w3.org/2000/svg"><g fill="none" fill-rule="evenodd" transform="translate(2 2)"><g stroke-linecap="round" stroke-linejoin="round" stroke-width="4"><g transform="translate(.088757 13.094618)"><path d="m0 .29216064h61.3676923" stroke="#251b3f"/><path d="m23.2894361 15.6626506h31.7078595" stroke="#000" stroke-opacity=".3"/></g><path d="m64.7984093 28.7572691h8.5221302" stroke="#fc6d26"/><path d="m260.535813 111.247229h7.707515" stroke="#000" stroke-opacity=".3"/><path d="m206.87574 111.247229h44.260769" stroke="#fca326"/><path d="m3.45595355 3.46901606v-3.13253012 3.13253012h3.13313609zm0 0v3.13253012-3.13253012h-3.13313609z" stroke="#000" stroke-opacity=".3" transform="translate(218.363905 82.532369)"/></g><path d="m174.399531 98.1812369 13.081887-39.7956626h-26.163253z" fill="#e24329"/><path d="m174.39034 98.1812369-13.081887-39.7956626h-18.316836z" fill="#fc6d26"/><g transform="translate(7 .476145)"><path d="m135.985559 57.9234217-3.980649 12.0910442c-.360311 1.0979518.029243 2.3097188.981194 2.9946988l34.398179 24.7099196z" fill="#fca326"/><path d="m135.990677 57.9234217h18.330935l-7.889237-23.9685542c-.40313-1.2263856-2.162908-1.2263856-2.581182 0z" fill="#e24329"/><path d="m167.399531 97.7050924 13.081887-39.7956627h18.330935z" fill="#fc6d26"/><path d="m198.799246 57.9234217 3.98065 12.0910442c.36031 1.0979518-.028721 2.3097188-.980672 2.9946988l-34.398179 24.6953012z" fill="#fca326"/><path d="m198.808907 57.9234217h-18.330935l7.874615-23.9685542c.403653-1.2269077 2.163431-1.2269077 2.581704 0z" fill="#e24329"/><g stroke="#251b3f"><path d="m198.808907 57.9234217h-18.330935l7.874615-23.9685542c.403653-1.2269077 2.163431-1.2269077 2.581704 0z" stroke-linecap="round" stroke-linejoin="round" stroke-width="4"/><path d="m167.399531 97.7050924 13.081887-39.7956627h-26.163253z" stroke-linecap="round" stroke-linejoin="round" stroke-width="4"/><path d="m167.39034 97.7050924-13.081887-39.7956627h-18.316836z" stroke-linecap="round" stroke-linejoin="round" stroke-width="4"/><path d="m135.985559 57.9234217-3.980649 12.0910442c-.360311 1.0979518.029243 2.3097188.981194 2.9946988l34.398179 24.7099196z" stroke-linecap="round" stroke-linejoin="round" stroke-width="4"/><path d="m135.990677 57.9234217h18.330935l-7.889237-23.9685542c-.40313-1.2263856-2.162908-1.2263856-2.581182 0z" stroke-linecap="round" stroke-linejoin="round" stroke-width="4"/><path d="m167.399531 97.7050924 13.081887-39.7956627h18.330935z" stroke-linecap="round" stroke-linejoin="round" stroke-width="4"/><path d="m198.799246 57.9234217 3.98065 12.0910442c.36031 1.0979518-.028721 2.3097188-.980672 2.9946988l-34.398179 24.6953012z" stroke-linecap="round" stroke-linejoin="round" stroke-width="4"/></g><path d="m217.500675 16.6244056 6.751386 3.6911647-6.751386 3.6922088-3.692401 6.7495582-3.692923-6.7495582-6.750864-3.6922088 6.750864-3.6911647 3.692923-6.75060239z" fill="#fca326"/><path d="m217.500675 16.6244056 6.751386 3.6911647-6.751386 3.6922088-3.692401 6.7495582-3.692923-6.7495582-6.750864-3.6922088 6.750864-3.6911647 3.692923-6.75060239z" stroke="#251b3f" stroke-linecap="round" stroke-linejoin="round" stroke-width="4"/><path d="m228.765448 50.2399518 5.06367 2.7686345-5.06367 2.7686346-2.76917 5.0626907-2.769171-5.0626907-5.06367-2.7686346 5.06367-2.7686345 2.769171-5.0626908z" fill="#fc6d26"/><path d="m228.765448 50.2399518 5.06367 2.7686345-5.06367 2.7686346-2.76917 5.0626907-2.769171-5.0626907-5.06367-2.7686346 5.06367-2.7686345 2.769171-5.0626908z" stroke="#251b3f" stroke-linecap="round" stroke-linejoin="round" stroke-width="4"/><path d="m3.34373506 3.46901606v-3.13253012 3.13253012h-3.1331361zm0 0v3.13253012-3.13253012h3.13313609z" stroke="#000" stroke-linecap="round" stroke-linejoin="round" stroke-opacity=".3" stroke-width="4" transform="translate(116.325444 82.056225)"/><path d="m116.988363 16.6244056-6.751386 3.6911647 6.751386 3.6922088 3.692401 6.7495582 3.692401-6.7495582 6.751386-3.6922088-6.751386-3.6911647-3.692401-6.75060239z" fill="#fca326"/><path d="m116.988363 16.6244056-6.751386 3.6911647 6.751386 3.6922088 3.692401 6.7495582 3.692401-6.7495582 6.751386-3.6922088-6.751386-3.6911647-3.692401-6.75060239z" stroke="#251b3f" stroke-linecap="round" stroke-linejoin="round" stroke-width="4"/><path d="m105.723068 50.2399518-5.063148 2.7686345 5.063148 2.7686346 2.769692 5.0626907 2.76917-5.0626907 5.06367-2.7686346-5.06367-2.7686345-2.76917-5.0626908z" fill="#fc6d26"/><path d="m105.723068 50.2399518-5.063148 2.7686345 5.063148 2.7686346 2.769692 5.0626907 2.76917-5.0626907 5.06367-2.7686346-5.06367-2.7686345-2.76917-5.0626908z" stroke="#251b3f" stroke-linecap="round" stroke-linejoin="round" stroke-width="4"/><path d="m303.459308 82.6733333h14.24167v-5.6954618h-14.24167z" stroke="#251b3f" stroke-linecap="round" stroke-linejoin="round" stroke-width="4"/><path d="m311.149486 54.7653614c0 1.7296788-1.403123 3.1325302-3.133136 3.1325302-1.730014 0-3.133136-1.4028514-3.133136-3.1325302 0-1.7302008 1.403122-3.1325301 3.133136-3.1325301 1.730013 0 3.133136 1.4023293 3.133136 3.1325301" fill="#fca326"/><path d="m311.149486 54.7653614c0 1.7296788-1.403123 3.1325302-3.133136 3.1325302-1.730014 0-3.133136-1.4028514-3.133136-3.1325302 0-1.7302008 1.403122-3.1325301 3.133136-3.1325301 1.730013 0 3.133136 1.4023293 3.133136 3.1325301z" stroke="#251b3f" stroke-linecap="round" stroke-linejoin="round" stroke-width="4"/><path d="m327.100229 64.4948956c0 2.5953012-2.104423 4.6987952-4.699704 4.6987952-2.595803 0-4.699704-2.103494-4.699704-4.6987952 0-2.5947791 2.103901-4.6987952 4.699704-4.6987952 2.595281 0 4.699704 2.1040161 4.699704 4.6987952" fill="#fc6d26"/><path d="m327.100229 64.4948956c0 2.5953012-2.104423 4.6987952-4.699704 4.6987952-2.595803 0-4.699704-2.103494-4.699704-4.6987952 0-2.5947791 2.103901-4.6987952 4.699704-4.6987952 2.595281 0 4.699704 2.1040161 4.699704 4.6987952z" stroke="#251b3f" stroke-linecap="round" stroke-linejoin="round" stroke-width="4"/><path d="m299.471609 69.0514217c0 .8651004-.701823 1.566265-1.566568 1.566265-.865268 0-1.566568-.7011646-1.566568-1.566265s.7013-1.5662651 1.566568-1.5662651c.864745 0 1.566568.7011647 1.566568 1.5662651" fill="#000" fill-opacity=".3"/><path d="m315.240317 94.7693896v-12.0962651h-9.32108v12.0962651c-6.375932 1.9844578-11.00514 7.9294774-11.00514 14.9573094 0 8.650482 7.014047 15.66265 15.66568 15.66265 8.652156 0 15.665681-7.012168 15.665681-15.66265 0-7.027832-4.629209-12.9728516-11.005141-14.9573094z" stroke="#251b3f" stroke-linecap="round" stroke-linejoin="round" stroke-width="4"/><path d="m319.409686 105.31312c0 .864579-.7013 1.566266-1.566568 1.566266s-1.566568-.701687-1.566568-1.566266c0-.8651.7013-1.566265 1.566568-1.566265s1.566568.701165 1.566568 1.566265" fill="#000" fill-opacity=".3"/><path d="m317.819671 113.049635c0-1.573575-1.275186-2.847992-2.848542-2.847992-1.573879 0-2.848021 1.274417-2.848021 2.847992h-16.847917c1.524793 7.052891 7.793676 12.34008 15.304847 12.34008 7.511172 0 13.779533-5.287189 15.304326-12.34008z" fill="#9795f9"/><path d="m317.819671 113.049635c0-1.573575-1.275186-2.847992-2.848542-2.847992-1.573879 0-2.848021 1.274417-2.848021 2.847992h-16.847917c1.524793 7.052891 7.793676 12.34008 15.304847 12.34008 7.511172 0 13.779533-5.287189 15.304326-12.34008z" stroke="#251b3f" stroke-linecap="round" stroke-linejoin="round" stroke-width="4"/><path d="m308.01635 118.649815c0 .865101-.701301 1.566265-1.566568 1.566265-.865268 0-1.566568-.701164-1.566568-1.566265 0-.8651.7013-1.566265 1.566568-1.566265.865267 0 1.566568.701165 1.566568 1.566265" fill="#251b3f"/><path d="m291.79177.13424498 2.713296 8.37742972h8.796279l-7.126318 5.1571888 2.742539 8.3471485-7.125796-5.1869477-7.096553 5.1869477 2.74306-8.3471485-7.156082-5.1571888h8.826044z" fill="#fca326"/><path d="m291.79177.13424498 2.713296 8.37742972h8.796279l-7.126318 5.1571888 2.742539 8.3471485-7.125796-5.1869477-7.096553 5.1869477 2.74306-8.3471485-7.156082-5.1571888h8.826044z" stroke="#251b3f" stroke-linecap="round" stroke-linejoin="round" stroke-width="4"/><path d="m330.156865.13424498 2.712773 8.37742972h8.79628l-7.125796 5.1571888 2.742539 8.3471485-7.125796-5.1869477-7.097076 5.1869477 2.743583-8.3471485-7.156083-5.1571888h8.825523z" fill="#fca326"/><path d="m330.156865.13424498 2.712773 8.37742972h8.79628l-7.125796 5.1571888 2.742539 8.3471485-7.125796-5.1869477-7.097076 5.1869477 2.743583-8.3471485-7.156083-5.1571888h8.825523z" stroke="#251b3f" stroke-linecap="round" stroke-linejoin="round" stroke-width="4"/><path d="m266.449764 18.0346185h-10.69966c-.577019 0-1.044378-.4677912-1.044378-1.0441767v-10.69759039c0-.57690763.467359-1.04417671 1.044378-1.04417671h10.69966c.576497 0 1.044379.46726908 1.044379 1.04417671v10.69759039c0 .5763855-.467882 1.0441767-1.044379 1.0441767z" stroke="#000" stroke-linecap="round" stroke-linejoin="round" stroke-opacity=".3" stroke-width="4"/><path d="m86.0384615 118.080321h-83.55029582c-1.15351627 0-2.0887574-.93506-2.0887574-2.088353v-49.0763053c0-1.1532932.93524113-2.0883535 2.0887574-2.0883535h83.55029582c1.1535163 0 2.0887574.9350603 2.0887574 2.0883535v49.0763053c0 1.153293-.9352411 2.088353-2.0887574 2.088353z" stroke="#251b3f" stroke-linecap="round" stroke-linejoin="round" stroke-width="4"/><path d="m37.9730729 83.0183293c-1.3754467-1.2759839-3.5253003-1.1966265-4.801531.1806426l-8.7565932 9.4351807-2.3347086-2.103494c-1.3942456-1.2556225-3.5440991-1.1438955-4.7989201.2485141-1.2563876 1.394498-1.1446391 3.5423695.2490843 4.7990361l4.8224186 4.3448193c.0898166.0809239.1895548.1420079.2856376.2119679.0720621.053253.1404689.114859.2161864.161325.0997382.060563.2052204.103896.3096583.153494.085639.041767.1676228.091366.2558728.124257.1174926.0449.2391627.071004.3597884.101808.0793728.019839.1556124.05012.2355074.064738.2020873.037069.4067855.055864.6109616.055864.2302855 0 .4600488-.023494.6861568-.070482.0825059-.016185.1608343-.051687.2417736-.075181.1409912-.039678.2835488-.073614.4193181-.132088.0986938-.042811.1885103-.105984.2830266-.157671.1112263-.061084.2255858-.113293.3305459-.187429.0971272-.067872.1811997-.157671.2715384-.2375507.0866835-.0757028.1801553-.1404417.2600503-.2265863l.0308092-.0339358c.0005222-.0005221.0015666-.0010441.0020887-.0015662.0005222-.0005221.0010444-.0015663.0015666-.0020884l10.9999187-11.8529719c1.2762307-1.3746586 1.1958136-3.5246184-.1801554-4.8006024" fill="#fc6d26"/><path d="m37.9730729 83.0183293c-1.3754467-1.2759839-3.5253003-1.1966265-4.801531.1806426l-8.7565932 9.4351807-2.3347086-2.103494c-1.3942456-1.2556225-3.5440991-1.1438955-4.7989201.2485141-1.2563876 1.394498-1.1446391 3.5423695.2490843 4.7990361l4.8224186 4.3448193c.0898166.0809239.1895548.1420079.2856376.2119679.0720621.053253.1404689.114859.2161864.161325.0997382.060563.2052204.103896.3096583.153494.085639.041767.1676228.091366.2558728.124257.1174926.0449.2391627.071004.3597884.101808.0793728.019839.1556124.05012.2355074.064738.2020873.037069.4067855.055864.6109616.055864.2302855 0 .4600488-.023494.6861568-.070482.0825059-.016185.1608343-.051687.2417736-.075181.1409912-.039678.2835488-.073614.4193181-.132088.0986938-.042811.1885103-.105984.2830266-.157671.1112263-.061084.2255858-.113293.3305459-.187429.0971272-.067872.1811997-.157671.2715384-.2375507.0866835-.0757028.1801553-.1404417.2600503-.2265863l.0308092-.0339358c.0005222-.0005221.0015666-.0010441.0020887-.0015662.0005222-.0005221.0010444-.0015663.0015666-.0020884l10.9999187-11.8529719c1.2762307-1.3746586 1.1958136-3.5246184-.1801554-4.8006024z" stroke="#251b3f" stroke-linecap="round" stroke-linejoin="round" stroke-width="4"/><path d="m71.0321496 94.4797871-3.455327-3.2056224 3.2062426-3.4551808c1.276753-1.3746586 1.1958136-3.5246184-.1796331-4.8006024-1.3749246-1.2759839-3.5263447-1.1966265-4.8020533.1806426l-3.2057204 3.4546586-3.4558491-3.2061445c-1.3749245-1.275984-3.5253003-1.1966266-4.8020532.1801204-1.2762308 1.3746587-1.1958136 3.5246185.1806775 4.8006024l3.4553269 3.2056225-3.2062426 3.4551808c-1.276753 1.3746586-1.1963358 3.5246184.1796331 4.8006024.6537811.6066663 1.4824956.9068673 2.3096435.9068673.912787 0 1.822963-.365462 2.4924098-1.0869878l3.2057204-3.4551807 3.4558491 3.2061445c.6537811.607189 1.4824956.906868 2.3096435.906868.9122648 0 1.822963-.36494 2.4924098-1.0875105 1.2762307-1.3741366 1.1952914-3.5240964-.1806775-4.8000804z" stroke="#000" stroke-linecap="round" stroke-linejoin="round" stroke-opacity=".3" stroke-width="4"/></g></g></svg>