<svg height="100" viewBox="0 0 100 100" width="100" xmlns="http://www.w3.org/2000/svg"><g fill="none" fill-rule="evenodd" transform="translate(1 1)"><path d="m25 5.9997h-22c-1.657 0-3-1.343-3-3 0-1.656 1.343-3 3-3h22c1.657 0 3 1.344 3 3 0 1.657-1.343 3-3 3" fill="#fca326"/><path d="m25 5.9997h-22c-1.657 0-3-1.343-3-3 0-1.656 1.343-3 3-3h22c1.657 0 3 1.344 3 3 0 1.657-1.343 3-3 3z" stroke="#333" stroke-linecap="round" stroke-linejoin="round" stroke-width="2"/><path d="m60 5.9997h-22c-1.657 0-3-1.343-3-3 0-1.656 1.343-3 3-3h22c1.657 0 3 1.344 3 3 0 1.657-1.343 3-3 3" fill="#fc6d26"/><path d="m60 5.9997h-22c-1.657 0-3-1.343-3-3 0-1.656 1.343-3 3-3h22c1.657 0 3 1.344 3 3 0 1.657-1.343 3-3 3z" stroke="#333" stroke-linecap="round" stroke-linejoin="round" stroke-width="2"/><path d="m95 5.9997h-22c-1.657 0-3-1.343-3-3 0-1.656 1.343-3 3-3h22c1.657 0 3 1.344 3 3 0 1.657-1.343 3-3 3" fill="#e24329"/><path d="m95 5.9997h-22c-1.657 0-3-1.343-3-3 0-1.656 1.343-3 3-3h22c1.657 0 3 1.344 3 3 0 1.657-1.343 3-3 3z" stroke="#333" stroke-linecap="round" stroke-linejoin="round" stroke-width="2"/><path d="m22 37.6667h-16c-2.209 0-4-1.791-4-4v-16c0-2.209 1.791-4 4-4h16c2.209 0 4 1.791 4 4v16c0 2.209-1.791 4-4 4" fill="#ccc"/><path d="m22 37.6667h-16c-2.209 0-4-1.791-4-4v-16c0-2.209 1.791-4 4-4h16c2.209 0 4 1.791 4 4v16c0 2.209-1.791 4-4 4z" stroke="#333" stroke-linecap="round" stroke-linejoin="round" stroke-width="2"/><path d="m57 37.6667h-16c-2.209 0-4-1.791-4-4v-16c0-2.209 1.791-4 4-4h16c2.209 0 4 1.791 4 4v16c0 2.209-1.791 4-4 4" fill="#9795f9"/><path d="m57 37.6667h-16c-2.209 0-4-1.791-4-4v-16c0-2.209 1.791-4 4-4h16c2.209 0 4 1.791 4 4v16c0 2.209-1.791 4-4 4z" stroke="#333" stroke-linecap="round" stroke-linejoin="round" stroke-width="2"/><path d="m92 37.6667h-16c-2.209 0-4-1.791-4-4v-16c0-2.209 1.791-4 4-4h16c2.209 0 4 1.791 4 4v16c0 2.209-1.791 4-4 4" fill="#fcf2eb"/><path d="m92 37.6667h-16c-2.209 0-4-1.791-4-4v-16c0-2.209 1.791-4 4-4h16c2.209 0 4 1.791 4 4v16c0 2.209-1.791 4-4 4z" stroke="#333" stroke-linecap="round" stroke-linejoin="round" stroke-width="2"/><path d="m22 67.6667h-16c-2.209 0-4-1.791-4-4v-16c0-2.209 1.791-4 4-4h16c2.209 0 4 1.791 4 4v16c0 2.209-1.791 4-4 4" fill="#fff"/><path d="m22 67.6667h-16c-2.209 0-4-1.791-4-4v-16c0-2.209 1.791-4 4-4h16c2.209 0 4 1.791 4 4v16c0 2.209-1.791 4-4 4z" stroke="#333" stroke-linecap="round" stroke-linejoin="round" stroke-width="2"/><path d="m57 67.6667h-16c-2.209 0-4-1.791-4-4v-16c0-2.209 1.791-4 4-4h16c2.209 0 4 1.791 4 4v16c0 2.209-1.791 4-4 4" fill="#fcf2eb"/><path d="m57 67.6667h-16c-2.209 0-4-1.791-4-4v-16c0-2.209 1.791-4 4-4h16c2.209 0 4 1.791 4 4v16c0 2.209-1.791 4-4 4z" stroke="#333" stroke-linecap="round" stroke-linejoin="round" stroke-width="2"/><path d="m92 67.6667h-16c-2.209 0-4-1.791-4-4v-16c0-2.209 1.791-4 4-4h16c2.209 0 4 1.791 4 4v16c0 2.209-1.791 4-4 4" fill="#9795f9"/><path d="m92 67.6667h-16c-2.209 0-4-1.791-4-4v-16c0-2.209 1.791-4 4-4h16c2.209 0 4 1.791 4 4v16c0 2.209-1.791 4-4 4z" stroke="#333" stroke-linecap="round" stroke-linejoin="round" stroke-width="2"/><path d="m22 97.6667h-16c-2.209 0-4-1.791-4-4v-16c0-2.209 1.791-4 4-4h16c2.209 0 4 1.791 4 4v16c0 2.209-1.791 4-4 4" fill="#ccc"/><path d="m22 97.6667h-16c-2.209 0-4-1.791-4-4v-16c0-2.209 1.791-4 4-4h16c2.209 0 4 1.791 4 4v16c0 2.209-1.791 4-4 4z" stroke="#333" stroke-linecap="round" stroke-linejoin="round" stroke-width="2"/><path d="m92 97.6667h-16c-2.209 0-4-1.791-4-4v-16c0-2.209 1.791-4 4-4h16c2.209 0 4 1.791 4 4v16c0 2.209-1.791 4-4 4" fill="#fff"/><path d="m92 97.6667h-16c-2.209 0-4-1.791-4-4v-16c0-2.209 1.791-4 4-4h16c2.209 0 4 1.791 4 4v16c0 2.209-1.791 4-4 4z" stroke="#333" stroke-linecap="round" stroke-linejoin="round" stroke-width="2"/></g></svg>