<svg viewBox="0 0 76 76" width="76" height="76" xmlns="http://www.w3.org/2000/svg">;<path d="m7.5 5c.276 0 .5.224.5.5s-.224.5-.5.5-.5-.224-.5-.5.224-.5.5-.5m0-1c-.828 0-1.5.672-1.5 1.5s.672 1.5 1.5 1.5 1.5-.672 1.5-1.5-.672-1.5-1.5-1.5z"/><path d="m12.5 5c.276 0 .5.224.5.5s-.224.5-.5.5-.5-.224-.5-.5.224-.5.5-.5m0-1c-.828 0-1.5.672-1.5 1.5s.672 1.5 1.5 1.5 1.5-.672 1.5-1.5-.672-1.5-1.5-1.5z"/><path d="m17.5 5c.276 0 .5.224.5.5s-.224.5-.5.5-.5-.224-.5-.5.224-.5.5-.5m0-1c-.828 0-1.5.672-1.5 1.5s.672 1.5 1.5 1.5 1.5-.672 1.5-1.5-.672-1.5-1.5-1.5z"/><path d="m71 0h-66c-2.757 0-5 2.243-5 5v66c0 2.757 2.243 5 5 5h66c2.757 0 5-2.243 5-5v-66c0-2.757-2.243-5-5-5m-66 2h66c1.654 0 3 1.346 3 3v4h-72v-4c0-1.654 1.346-3 3-3m66 72h-66c-1.654 0-3-1.346-3-3v-27h14.05c.514 6.701 6.118 12 12.949 12 .552 0 1-.447 1-1v-24c0-.553-.448-1-1-1-6.831 0-12.435 5.299-12.949 12h-14.05v-31h72v31h-15c-.018 0-.033.009-.05.01-.509-6.706-6.116-12.01-12.95-12.01-.553 0-1 .447-1 1v6h-9c-.552 0-1 .447-1 1s.448 1 1 1h9v8h-9c-.552 0-1 .447-1 1s.448 1 1 1h9v6c0 .553.447 1 1 1 6.834 0 12.441-5.304 12.95-12.01.017.001.032.01.05.01h15v27c0 1.654-1.346 3-3 3m-53-31c0-5.729 4.401-10.448 10-10.955v21.91c-5.599-.507-10-5.226-10-10.955m29-10.955c5.599.507 10 5.226 10 10.955s-4.401 10.448-10 10.955v-21.91"/></svg>
