<svg viewBox="0 0 76 76" width="76" height="76" xmlns="http://www.w3.org/2000/svg">;<path d="m7.5 5c.276 0 .5.224.5.5s-.224.5-.5.5-.5-.224-.5-.5.224-.5.5-.5m0-1c-.828 0-1.5.672-1.5 1.5s.672 1.5 1.5 1.5 1.5-.672 1.5-1.5-.672-1.5-1.5-1.5z"/><path d="m12.5 5c.276 0 .5.224.5.5s-.224.5-.5.5-.5-.224-.5-.5.224-.5.5-.5m0-1c-.828 0-1.5.672-1.5 1.5s.672 1.5 1.5 1.5 1.5-.672 1.5-1.5-.672-1.5-1.5-1.5z"/><path d="m17.5 5c.276 0 .5.224.5.5s-.224.5-.5.5-.5-.224-.5-.5.224-.5.5-.5m0-1c-.828 0-1.5.672-1.5 1.5s.672 1.5 1.5 1.5 1.5-.672 1.5-1.5-.672-1.5-1.5-1.5z"/><path d="m55.758 38.677c-.002-.006 0-.012-.001-.019l-4.217-12.979c-.237-.706-.896-1.179-1.641-1.179-.003 0-.006 0-.01 0-.756.004-1.396.471-1.629 1.189l-3.984 12.271h-12.544l-3.993-12.271c-.233-.718-.873-1.185-1.629-1.188-.003 0-.006 0-.009 0-.745 0-1.403.473-1.645 1.189l-4.199 12.95c-.002.006-.006.011-.008.017l-2.13 6.544c-.329 1.01.028 2.111.888 2.737l18.401 13.37c.038.027.08.04.12.061.003.001.004.004.007.005.005.002.01.003.014.005.011.006.022.011.033.017.133.061.271.103.413.103.032 0 .062-.016.094-.019.06-.005.12-.013.18-.03.015-.004.03-.004.045-.009.008-.003.015-.008.023-.011.028-.01.054-.021.081-.034.012-.006.024-.011.036-.017.005-.002.01-.003.014-.006.015-.008.024-.021.038-.03.028-.016.059-.024.086-.044l18.402-13.364c.859-.626 1.216-1.727.887-2.737l-2.123-6.521m-25.481 1.29l5.01 15.428-12.04-15.428h7.02m10.435 15.429l5.02-15.429h7.03l-9.223 11.82-2.818 3.609m9.19-28.29l3.525 10.851h-7.05l3.524-10.851m-6.277 12.851l-2.082 6.405-3.54 10.891-5.62-17.296h11.242m-17.527-12.851l3.531 10.851h-7.05l3.518-10.851m-5.914 19.212c-.158-.114-.223-.316-.163-.502l1.547-4.754 11.275 14.455-12.659-9.199m35.633-.001l-12.66 9.193 11.274-14.447 1.547 4.753c.061.186-.004.388-.161.501"/><path d="m71 0h-66c-2.757 0-5 2.243-5 5v66c0 2.757 2.243 5 5 5h66c2.757 0 5-2.243 5-5v-66c0-2.757-2.243-5-5-5m-66 2h66c1.654 0 3 1.346 3 3v4h-72v-4c0-1.654 1.346-3 3-3m66 72h-66c-1.654 0-3-1.346-3-3v-60h72v60c0 1.654-1.346 3-3 3"/></svg>
