<svg viewBox="0 0 76 76" width="76" height="76" xmlns="http://www.w3.org/2000/svg">;<path d="m7.5 5c.276 0 .5.224.5.5s-.224.5-.5.5-.5-.224-.5-.5.224-.5.5-.5m0-1c-.828 0-1.5.672-1.5 1.5s.672 1.5 1.5 1.5 1.5-.672 1.5-1.5-.672-1.5-1.5-1.5z"/><path d="m12.5 5c.276 0 .5.224.5.5s-.224.5-.5.5-.5-.224-.5-.5.224-.5.5-.5m0-1c-.828 0-1.5.672-1.5 1.5s.672 1.5 1.5 1.5 1.5-.672 1.5-1.5-.672-1.5-1.5-1.5z"/><path d="m17.5 5c.276 0 .5.224.5.5s-.224.5-.5.5-.5-.224-.5-.5.224-.5.5-.5m0-1c-.828 0-1.5.672-1.5 1.5s.672 1.5 1.5 1.5 1.5-.672 1.5-1.5-.672-1.5-1.5-1.5z"/><path d="m58.14 39.46c-1.081-.199-2.163-.087-3.144.308v-11.768c0-.553-.447-1-1-1h-11.768c.394-.979.506-2.063.308-3.144-.406-2.215-2.154-4.01-4.349-4.461-1.698-.35-3.428.065-4.749 1.142s-2.079 2.67-2.079 4.372c0 .723.139 1.432.404 2.091h-11.767c-.552 0-1 .447-1 1v13.551c0 .395.232.752.592.913.36.161.781.095 1.075-.168.847-.761 1.983-1.08 3.115-.869 1.422.262 2.573 1.381 2.863 2.786.232 1.122-.028 2.217-.733 3.082-.695.853-1.723 1.342-2.822 1.342-.892 0-1.752-.331-2.423-.933-.295-.262-.715-.328-1.075-.168-.36.161-.592.519-.592.913v13.551c0 .553.448 1 1 1h13.551c.395 0 .752-.232.913-.593.161-.36.095-.781-.168-1.075-.76-.847-1.076-1.982-.869-3.114.261-1.422 1.381-2.573 2.786-2.863 1.121-.234 2.216.028 3.082.733.853.694 1.342 1.723 1.342 2.821 0 .893-.331 1.753-.932 2.423-.264.294-.33.716-.169 1.076.161.36.519.592.913.592h13.551c.553 0 1-.447 1-1v-11.768c.66.265 1.368.404 2.091.404 1.702 0 3.296-.758 4.372-2.079 1.076-1.32 1.492-3.052 1.142-4.749-.455-2.194-2.247-3.942-4.461-4.348m1.768 7.835c-.694.853-1.723 1.342-2.821 1.342-.893 0-1.753-.331-2.423-.932-.295-.265-.716-.33-1.076-.169-.36.161-.592.519-.592.913v12.551h-10.768c.265-.66.404-1.368.404-2.091 0-1.702-.758-3.296-2.079-4.372-1.32-1.076-3.05-1.492-4.749-1.142-2.194.454-3.941 2.246-4.348 4.461-.198 1.081-.086 2.164.307 3.144h-10.767v-10.768c.66.265 1.369.404 2.091.404 1.703 0 3.296-.758 4.373-2.079 1.076-1.321 1.492-3.052 1.141-4.749-.454-2.194-2.247-3.942-4.461-4.349-1.08-.198-2.164-.087-3.144.308v-10.767h12.551c.395 0 .752-.232.913-.593.161-.36.095-.781-.169-1.075-.601-.669-.932-1.529-.932-2.423 0-1.099.489-2.127 1.342-2.821.865-.706 1.959-.968 3.081-.733 1.406.29 2.525 1.441 2.787 2.863.208 1.132-.109 2.268-.869 3.115-.263.293-.329.715-.168 1.075.161.36.519.592.913.592h12.551v12.551c0 .395.232.752.592.913.36.162.782.094 1.075-.168.848-.761 1.983-1.078 3.115-.869 1.422.262 2.573 1.381 2.863 2.786.232 1.122-.028 2.217-.733 3.082"/><path d="m71 0h-66c-2.757 0-5 2.243-5 5v66c0 2.757 2.243 5 5 5h66c2.757 0 5-2.243 5-5v-66c0-2.757-2.243-5-5-5m-66 2h66c1.654 0 3 1.346 3 3v4h-72v-4c0-1.654 1.346-3 3-3m66 72h-66c-1.654 0-3-1.346-3-3v-60h72v60c0 1.654-1.346 3-3 3"/></svg>
