<svg viewBox="0 0 76 76" width="76" height="76" xmlns="http://www.w3.org/2000/svg">;<path d="M69.896,0H5C2.243,0,0,2.243,0,5v66c0,2.757,2.243,5,5,5h64.896C73.262,76,76,73.262,76,69.896V6.104
		C76,2.738,73.262,0,69.896,0z M5,2h64.896C72.159,2,74,3.841,74,6.104V9H2V5C2,3.346,3.346,2,5,2z M69.896,74H5
		c-1.654,0-3-1.346-3-3V11h72v58.896C74,72.159,72.159,74,69.896,74z"/><path d="m7.5 7c.828 0 1.5-.672 1.5-1.5s-.672-1.5-1.5-1.5-1.5.672-1.5 1.5.672 1.5 1.5 1.5m0-2c.276 0 .5.224.5.5s-.224.5-.5.5-.5-.224-.5-.5.224-.5.5-.5"/><path d="m12.5 7c.828 0 1.5-.672 1.5-1.5s-.672-1.5-1.5-1.5-1.5.672-1.5 1.5.672 1.5 1.5 1.5m0-2c.276 0 .5.224.5.5s-.224.5-.5.5-.5-.224-.5-.5.224-.5.5-.5"/><path d="m17.5 7c.828 0 1.5-.672 1.5-1.5s-.672-1.5-1.5-1.5-1.5.672-1.5 1.5.672 1.5 1.5 1.5m0-2c.276 0 .5.224.5.5s-.224.5-.5.5-.5-.224-.5-.5.224-.5.5-.5"/><path d="m29.626 34.27c-.265-.484-.874-.658-1.358-.395l-5 2.75c-.319.176-.518.512-.518.876s.199.7.518.876l5 2.75c.153.084.318.124.481.124.353 0 .695-.188.877-.519.267-.483.09-1.092-.394-1.357l-3.407-1.874 3.407-1.874c.484-.266.661-.874.394-1.357"/><path d="m42.731 36.624l-5-2.75c-.484-.265-1.092-.09-1.358.395-.267.483-.09 1.092.394 1.357l3.407 1.874-3.407 1.874c-.484.266-.661.874-.394 1.357.182.332.524.519.877.519.163 0 .328-.04.481-.124l5-2.75c.32-.176.519-.512.519-.876s-.198-.7-.519-.876"/><path d="m35.827 29.555c-.524-.18-1.091.098-1.272.618l-4.5 13c-.181.521.096 1.092.618 1.272.108.037.219.055.327.055.415 0 .802-.26.945-.673l4.5-13c.18-.521-.096-1.092-.618-1.272"/><path d="m58.1 60.18l-12.802-12.802c-.085-.085-.186-.144-.289-.192 5.285-5.973 5.088-15.13-.625-20.839-2.876-2.876-6.699-4.46-10.766-4.46s-7.89 1.584-10.766 4.46c-2.875 2.875-4.459 6.698-4.459 10.766 0 4.066 1.584 7.89 4.459 10.766 2.968 2.968 6.867 4.452 10.766 4.452 3.607 0 7.204-1.287 10.07-3.827.048.103.107.204.192.289l12.802 12.802c.195.195.451.293.707.293s.512-.098.707-.293c.39-.392.39-1.025 0-1.415m-33.833-13.716c-2.498-2.498-3.874-5.819-3.874-9.352 0-3.533 1.376-6.854 3.874-9.352 2.498-2.498 5.819-3.874 9.352-3.874s6.854 1.376 9.352 3.874c5.156 5.156 5.156 13.546 0 18.703-5.156 5.156-13.548 5.156-18.704.001"/></svg>