<svg viewBox="0 0 76 76" width="76" height="76" xmlns="http://www.w3.org/2000/svg">;<path d="m7.5 5c.276 0 .5.224.5.5s-.224.5-.5.5-.5-.224-.5-.5.224-.5.5-.5m0-1c-.828 0-1.5.672-1.5 1.5s.672 1.5 1.5 1.5 1.5-.672 1.5-1.5-.672-1.5-1.5-1.5z"/><path d="m12.5 5c.276 0 .5.224.5.5s-.224.5-.5.5-.5-.224-.5-.5.224-.5.5-.5m0-1c-.828 0-1.5.672-1.5 1.5s.672 1.5 1.5 1.5 1.5-.672 1.5-1.5-.672-1.5-1.5-1.5z"/><path d="m17.5 5c.276 0 .5.224.5.5s-.224.5-.5.5-.5-.224-.5-.5.224-.5.5-.5m0-1c-.828 0-1.5.672-1.5 1.5s.672 1.5 1.5 1.5 1.5-.672 1.5-1.5-.672-1.5-1.5-1.5z"/><path d="m37.5 28.09c.867 0 1.691-.25 2.41-.696l10.547 10.359c.206.203.475.304.743.304.274 0 .549-.105.757-.317.41-.418.404-1.09-.014-1.5l-10.537-10.349c.44-.715.687-1.533.687-2.395 0-1.228-.479-2.381-1.346-3.248-.867-.868-2.02-1.346-3.248-1.346s-2.381.478-3.249 1.346c-.868.867-1.345 2.02-1.345 3.248s.478 2.381 1.345 3.248c.869.868 2.023 1.346 3.25 1.346m-1.702-6.295c.455-.455 1.059-.705 1.702-.705s1.247.25 1.701.705c.455.454.705 1.059.705 1.701s-.25 1.247-.705 1.701c-.909.91-2.494.91-3.403 0-.455-.454-.705-1.059-.705-1.701s.251-1.247.705-1.701"/><path d="m57.5 37.906c-1.228 0-2.381.479-3.248 1.346s-1.346 2.02-1.346 3.248c0 .867.25 1.691.696 2.41l-10.359 10.547c-.41.418-.404 1.09.014 1.5.206.203.475.304.743.304.274 0 .549-.105.757-.317l10.349-10.537c.715.44 1.533.688 2.394.688 1.228 0 2.381-.478 3.248-1.346.868-.867 1.346-2.02 1.346-3.248s-.479-2.381-1.346-3.248-2.02-1.347-3.248-1.347m1.701 6.295c-.908.91-2.494.91-3.402 0-.455-.454-.705-1.059-.705-1.701s.25-1.247.705-1.701c.454-.455 1.059-.705 1.701-.705s1.247.25 1.701.705c.455.454.705 1.059.705 1.701s-.25 1.247-.705 1.701"/><path d="m37.5 57.906c-.851 0-1.66.244-2.37.674l-9.552-10.301c-.397-.43-1.069-.455-1.499-.057-.43.397-.455 1.069-.057 1.498l9.593 10.345c-.455.724-.708 1.558-.708 2.434 0 1.228.478 2.381 1.345 3.248.868.868 2.02 1.346 3.249 1.346 1.227 0 2.38-.478 3.248-1.346.868-.867 1.346-2.02 1.346-3.248s-.479-2.381-1.346-3.248c-.868-.867-2.02-1.345-3.249-1.345m1.701 6.295c-.909.91-2.494.91-3.403 0-.455-.454-.705-1.059-.705-1.701s.25-1.247.705-1.701c.455-.455 1.059-.705 1.702-.705s1.247.25 1.701.705c.455.454.705 1.059.705 1.701s-.25 1.247-.705 1.701"/><path d="m32.721 30.577c.43-.397.455-1.069.057-1.498-.397-.43-1.069-.456-1.499-.057l-10.344 9.592c-1.774-1.111-4.142-.904-5.683.637-.868.867-1.345 2.02-1.345 3.248s.478 2.381 1.345 3.248c.896.896 2.072 1.344 3.249 1.344s2.353-.448 3.249-1.344c.868-.867 1.345-2.02 1.345-3.248 0-.852-.244-1.661-.674-2.37l10.3-9.552m-12.519 13.624c-.938.938-2.465.938-3.403 0-.455-.454-.705-1.059-.705-1.701s.25-1.247.705-1.701c.469-.469 1.085-.704 1.702-.704s1.232.235 1.702.704c.455.454.705 1.059.705 1.701s-.252 1.247-.706 1.701"/><path d="m71 0h-66c-2.757 0-5 2.243-5 5v66c0 2.757 2.243 5 5 5h66c2.757 0 5-2.243 5-5v-66c0-2.757-2.243-5-5-5m-66 2h66c1.654 0 3 1.346 3 3v4h-72v-4c0-1.654 1.346-3 3-3m66 72h-66c-1.654 0-3-1.346-3-3v-60h72v60c0 1.654-1.346 3-3 3"/></svg>
