<svg viewBox="0 0 76 76" width="76" height="76" xmlns="http://www.w3.org/2000/svg">;<path d="m29 54c.552 0 1-.447 1-1s-.448-1-1-1h-1v-6c0-.553-.448-1-1-1s-1 .447-1 1v6h-17c-.552 0-1 .447-1 1s.448 1 1 1h20"/><path d="m27 34c-.552 0-1 .447-1 1v7h-5c-.552 0-1 .447-1 1s.448 1 1 1h10c.552 0 1-.447 1-1s-.448-1-1-1h-3v-7c0-.553-.448-1-1-1"/><path d="m60 23h-29c-2.757 0-5 2.243-5 5v3h-11c-.552 0-1 .447-1 1s.448 1 1 1h16c.552 0 1-.447 1-1s-.448-1-1-1h-3v-3c0-1.654 1.346-3 3-3h29c1.654 0 3 1.346 3 3v29c0 1.654-1.346 3-3 3h-29c-1.544 0-2.857-1.203-2.988-2.722-.009-.172-.012-1.171-.012-1.278 0-.553-.448-1-1-1s-1 .447-1 1c0 .124.008 1.31.018 1.431.22 2.562 2.408 4.569 4.982 4.569h29c2.757 0 5-2.243 5-5v-29c0-2.757-2.243-5-5-5"/><path d="m35.17 50.723c.195.195.451.293.707.293s.512-.098.707-.293l7.516-7.516c.391-.391.391-1.023 0-1.414l-7.516-7.516c-.391-.391-1.023-.391-1.414 0s-.391 1.023 0 1.414l6.809 6.809-6.809 6.809c-.391.39-.391 1.023 0 1.414"/><path d="m56 51c.553 0 1-.447 1-1s-.447-1-1-1h-10c-.553 0-1 .447-1 1s.447 1 1 1h10"/><path d="m71 0h-66c-2.757 0-5 2.243-5 5v66c0 2.757 2.243 5 5 5h66c2.757 0 5-2.243 5-5v-66c0-2.757-2.243-5-5-5m-66 2h66c1.654 0 3 1.346 3 3v4h-72v-4c0-1.654 1.346-3 3-3m66 72h-66c-1.654 0-3-1.346-3-3v-60h72v60c0 1.654-1.346 3-3 3"/><path d="m7.5 5c.276 0 .5.224.5.5s-.224.5-.5.5-.5-.224-.5-.5.224-.5.5-.5m0-1c-.828 0-1.5.672-1.5 1.5s.672 1.5 1.5 1.5 1.5-.672 1.5-1.5-.672-1.5-1.5-1.5z"/><path d="m12.5 5c.276 0 .5.224.5.5s-.224.5-.5.5-.5-.224-.5-.5.224-.5.5-.5m0-1c-.828 0-1.5.672-1.5 1.5s.672 1.5 1.5 1.5 1.5-.672 1.5-1.5-.672-1.5-1.5-1.5z"/><path d="m17.5 5c.276 0 .5.224.5.5s-.224.5-.5.5-.5-.224-.5-.5.224-.5.5-.5m0-1c-.828 0-1.5.672-1.5 1.5s.672 1.5 1.5 1.5 1.5-.672 1.5-1.5-.672-1.5-1.5-1.5z"/></svg>
