<svg viewBox="0 0 76 76" width="76" height="76" xmlns="http://www.w3.org/2000/svg">;<path d="m61.29 30h-1.294c-.553 0-1 .447-1 1s.447 1 1 1h1.294c.94 0 1.706.766 1.706 1.706v17.588c0 .94-.766 1.706-1.706 1.706h-1.294c-.553 0-1 .447-1 1s.447 1 1 1h1.294c2.044 0 3.706-1.662 3.706-3.706v-17.588c0-2.044-1.662-3.706-3.706-3.706"/><path d="m14.706 32h2.294c.552 0 1-.447 1-1s-.448-1-1-1h-2.294c-2.043 0-3.706 1.662-3.706 3.706v17.588c0 2.044 1.663 3.706 3.706 3.706h2.294c.552 0 1-.447 1-1s-.448-1-1-1h-2.294c-.941 0-1.706-.766-1.706-1.706v-17.588c0-.94.765-1.706 1.706-1.706"/><path d="M52.647,23H24.353C21.401,23,19,25.401,19,28.353v28.295C19,59.599,21.401,62,24.353,62h28.294
		C55.599,62,58,59.599,58,56.647V28.353C58,25.401,55.599,23,52.647,23z M56,56.647C56,58.496,54.496,60,52.647,60H24.353
		C22.504,60,21,58.496,21,56.647V28.353C21,26.504,22.504,25,24.353,25h28.294C54.496,25,56,26.504,56,28.353V56.647z"/><path d="m49 35c-1.859 0-3.411 1.279-3.858 3h-13.284c-.447-1.721-2-3-3.858-3-2.206 0-4 1.794-4 4s1.794 4 4 4c1.858 0 3.411-1.279 3.858-3h3.142c.589 0 1 1.017 1 1.929v3.643c0 1.89 1.538 3.428 3.429 3.428h2.713c.447 1.721 1.999 3 3.858 3 2.206 0 4-1.794 4-4s-1.794-4-4-4c-1.859 0-3.411 1.279-3.858 3h-2.713c-.788 0-1.429-.641-1.429-1.429v-3.643c0-.66-.134-1.329-.38-1.929h7.522c.447 1.721 1.999 3 3.858 3 2.206 0 4-1.794 4-4s-1.794-3.999-4-3.999m-3 11c1.103 0 2 .897 2 2s-.897 2-2 2-2-.897-2-2 .897-2 2-2m-18-5c-1.103 0-2-.897-2-2s.897-2 2-2c1.102 0 1.999.897 2 1.998 0 .001 0 .001 0 .002s0 .001 0 .002c-.001 1.101-.898 1.998-2 1.998m21 0c-1.103 0-2-.897-2-2s.897-2 2-2 2 .897 2 2-.897 2-2 2"/><path d="m71 0h-66c-2.757 0-5 2.243-5 5v66c0 2.757 2.243 5 5 5h66c2.757 0 5-2.243 5-5v-66c0-2.757-2.243-5-5-5m-66 2h66c1.654 0 3 1.346 3 3v4h-72v-4c0-1.654 1.346-3 3-3m66 72h-66c-1.654 0-3-1.346-3-3v-60h72v60c0 1.654-1.346 3-3 3"/><path d="m7.5 5c.276 0 .5.224.5.5s-.224.5-.5.5-.5-.224-.5-.5.224-.5.5-.5m0-1c-.828 0-1.5.672-1.5 1.5s.672 1.5 1.5 1.5 1.5-.672 1.5-1.5-.672-1.5-1.5-1.5z"/><path d="m12.5 5c.276 0 .5.224.5.5s-.224.5-.5.5-.5-.224-.5-.5.224-.5.5-.5m0-1c-.828 0-1.5.672-1.5 1.5s.672 1.5 1.5 1.5 1.5-.672 1.5-1.5-.672-1.5-1.5-1.5z"/><path d="m17.5 5c.276 0 .5.224.5.5s-.224.5-.5.5-.5-.224-.5-.5.224-.5.5-.5m0-1c-.828 0-1.5.672-1.5 1.5s.672 1.5 1.5 1.5 1.5-.672 1.5-1.5-.672-1.5-1.5-1.5z"/></svg>
