<svg viewBox="0 0 76 76" width="76" height="76" xmlns="http://www.w3.org/2000/svg"><path d="M71 0H5C2.243 0 0 2.243 0 5v66c0 2.757 2.243 5 5 5h66c2.757 0 5-2.243 5-5V5c0-2.757-2.243-5-5-5M5 2h66c1.654 0 3 1.346 3 3v4H2V5c0-1.654 1.346-3 3-3m66 72H5c-1.654 0-3-1.346-3-3V11h72v60c0 1.654-1.346 3-3 3"/><path d="M7.5 5a.5.5 0 1 1 0 1 .5.5 0 0 1 0-1zm0-1a1.5 1.5 0 1 0 .001 3.001A1.5 1.5 0 0 0 7.5 4zM12.5 5a.5.5 0 1 1 0 1 .5.5 0 0 1 0-1zm0-1a1.5 1.5 0 1 0 .001 3.001A1.5 1.5 0 0 0 12.5 4zM17.5 5a.5.5 0 1 1 0 1 .5.5 0 0 1 0-1zm0-1a1.5 1.5 0 1 0 .001 3.001A1.5 1.5 0 0 0 17.5 4zM36.63 56.374a2.947 2.947 0 0 1 2.74 0l10.568 5.551a.982.982 0 0 0 1.424-1.034l-2.018-11.757a2.94 2.94 0 0 1 .847-2.604l8.549-8.326a.98.98 0 0 0-.544-1.673L46.38 34.815a2.945 2.945 0 0 1-2.217-1.61L38.88 22.51a.981.981 0 0 0-1.76 0l-5.284 10.697a2.945 2.945 0 0 1-2.218 1.61L17.804 36.53a.982.982 0 0 0-.544 1.673l8.549 8.326a2.94 2.94 0 0 1 .847 2.604l-2.018 11.757a.98.98 0 0 0 1.424 1.034l10.567-5.55zm.913 1.737l-10.567 5.55a2.946 2.946 0 0 1-4.273-3.101l2.018-11.757a.98.98 0 0 0-.282-.868l-8.55-8.327a2.94 2.94 0 0 1 1.632-5.019l11.815-1.715a.982.982 0 0 0 .74-.536l5.283-10.697a2.946 2.946 0 0 1 5.282 0l5.283 10.697c.143.29.42.49.74.536l11.814 1.715a2.943 2.943 0 0 1 1.632 5.02l-8.549 8.326a.98.98 0 0 0-.282.868l2.018 11.757a2.943 2.943 0 0 1-4.273 3.101l-10.567-5.55a.982.982 0 0 0-.914 0z"/></svg>
