<svg viewBox="0 0 76 76" width="76" height="76" xmlns="http://www.w3.org/2000/svg">;<path d="m46 29h-16c-2.757 0-5 2.243-5 5v16c0 2.757 2.243 5 5 5h16c2.757 0 5-2.243 5-5v-16c0-2.757-2.243-5-5-5m3 21c0 1.654-1.346 3-3 3h-16c-1.654 0-3-1.346-3-3v-16c0-1.654 1.346-3 3-3h16c1.654 0 3 1.346 3 3v16"/><path d="m57 18h-16c-2.757 0-5 2.243-5 5v3c0 .552.448 1 1 1s1-.448 1-1v-3c0-1.654 1.346-3 3-3h16c1.654 0 3 1.346 3 3v16c0 1.654-1.346 3-3 3h-3c-.553 0-1 .447-1 1s.447 1 1 1h3c2.757 0 5-2.243 5-5v-16c0-2.757-2.243-5-5-5"/><path d="m38 57c-.552 0-1 .447-1 1v4c0 1.654-1.346 3-3 3h-16c-1.654 0-3-1.346-3-3v-16c0-1.654 1.346-3 3-3h4c.552 0 1-.447 1-1s-.448-1-1-1h-4c-2.757 0-5 2.243-5 5v16c0 2.757 2.243 5 5 5h16c2.757 0 5-2.243 5-5v-4c0-.553-.448-1-1-1"/><path d="m71 0h-66c-2.757 0-5 2.243-5 5v66c0 2.757 2.243 5 5 5h66c2.757 0 5-2.243 5-5v-66c0-2.757-2.243-5-5-5m-66 2h66c1.654 0 3 1.346 3 3v4h-72v-4c0-1.654 1.346-3 3-3m66 72h-66c-1.654 0-3-1.346-3-3v-60h72v60c0 1.654-1.346 3-3 3"/><path d="m7.5 5c.276 0 .5.224.5.5s-.224.5-.5.5-.5-.224-.5-.5.224-.5.5-.5m0-1c-.828 0-1.5.672-1.5 1.5s.672 1.5 1.5 1.5 1.5-.672 1.5-1.5-.672-1.5-1.5-1.5z"/><path d="m12.5 5c.276 0 .5.224.5.5s-.224.5-.5.5-.5-.224-.5-.5.224-.5.5-.5m0-1c-.828 0-1.5.672-1.5 1.5s.672 1.5 1.5 1.5 1.5-.672 1.5-1.5-.672-1.5-1.5-1.5z"/><path d="m17.5 5c.276 0 .5.224.5.5s-.224.5-.5.5-.5-.224-.5-.5.224-.5.5-.5m0-1c-.828 0-1.5.672-1.5 1.5s.672 1.5 1.5 1.5 1.5-.672 1.5-1.5-.672-1.5-1.5-1.5z"/></svg>
