<svg viewBox="0 0 76 76" width="76" height="76" xmlns="http://www.w3.org/2000/svg">;<path d="m58.34 23.585c-1.179-.628-2.532-.758-3.809-.365-1.277.392-2.325 1.257-2.95 2.437-.627 1.18-.756 2.532-.365 3.809.302.986.892 1.83 1.686 2.454l-5.599 10.265c-.902-.247-1.855-.245-2.771.036-.991.304-1.837.899-2.462 1.699l-7.254-3.627c.588-2.199-.382-4.596-2.475-5.707-1.181-.627-2.533-.757-3.81-.365s-2.325 1.257-2.951 2.437c-1.148 2.164-.535 4.793 1.323 6.26l-5.601 10.268c-.903-.247-1.856-.245-2.772.036-1.276.392-2.325 1.257-2.951 2.437-1.292 2.436-.362 5.468 2.072 6.759.733.39 1.532.587 2.338.587.492 0 .987-.073 1.471-.222 1.276-.392 2.325-1.257 2.951-2.437 1.148-2.164.535-4.793-1.323-6.259l5.598-10.263c.426.117.863.181 1.303.181.492 0 .987-.073 1.471-.222.99-.304 1.837-.899 2.462-1.699l7.254 3.627c-.243.898-.24 1.845.039 2.756.392 1.277 1.257 2.325 2.437 2.95.732.39 1.531.587 2.338.587.492 0 .987-.073 1.471-.222 1.277-.392 2.325-1.257 2.951-2.437s.755-2.532.364-3.809c-.302-.986-.892-1.83-1.686-2.453l5.597-10.261c.426.117.863.181 1.303.181.492 0 .987-.073 1.471-.222 1.277-.392 2.325-1.257 2.95-2.437.627-1.18.756-2.532.365-3.809-.391-1.277-1.257-2.325-2.436-2.95m-35.695 35.821c-.375.708-1 1.227-1.771 1.462s-1.578.157-2.285-.22c-1.46-.774-2.02-2.594-1.243-4.055.375-.708 1-1.227 1.771-1.462.29-.089.587-.133.882-.133.484 0 .964.118 1.403.353 1.461.775 2.02 2.594 1.243 4.055m10-19c-.375.708-1 1.227-1.771 1.462-.765.234-1.577.157-2.285-.219-1.46-.775-2.02-2.595-1.243-4.056.375-.708 1-1.227 1.771-1.462.29-.089.587-.133.882-.133.484 0 .964.118 1.403.353 1.461.775 2.02 2.594 1.243 4.055m16 8c-.376.708-1.01 1.227-1.771 1.462-.766.234-1.578.157-2.285-.22-.708-.375-1.227-1-1.462-1.77-.234-.766-.156-1.577.22-2.285.375-.708 1-1.227 1.77-1.462.29-.089.587-.133.882-.133.484 0 .964.118 1.403.353.708.375 1.227 1 1.462 1.77.235.766.156 1.577-.219 2.285m9.999-19c-.375.708-1 1.227-1.77 1.462-.767.234-1.578.156-2.285-.219v-.001c-.708-.375-1.227-1-1.462-1.77-.234-.766-.156-1.577.22-2.285.375-.708 1-1.227 1.77-1.462.29-.089.587-.133.882-.133.484 0 .964.118 1.403.353.708.375 1.227 1 1.462 1.77.235.766.156 1.577-.22 2.285"/><path d="m71 0h-66c-2.757 0-5 2.243-5 5v66c0 2.757 2.243 5 5 5h66c2.757 0 5-2.243 5-5v-66c0-2.757-2.243-5-5-5m-66 2h66c1.654 0 3 1.346 3 3v4h-72v-4c0-1.654 1.346-3 3-3m66 72h-66c-1.654 0-3-1.346-3-3v-60h72v60c0 1.654-1.346 3-3 3"/><path d="m7.5 5c.276 0 .5.224.5.5s-.224.5-.5.5-.5-.224-.5-.5.224-.5.5-.5m0-1c-.828 0-1.5.672-1.5 1.5s.672 1.5 1.5 1.5 1.5-.672 1.5-1.5-.672-1.5-1.5-1.5z"/><path d="m12.5 5c.276 0 .5.224.5.5s-.224.5-.5.5-.5-.224-.5-.5.224-.5.5-.5m0-1c-.828 0-1.5.672-1.5 1.5s.672 1.5 1.5 1.5 1.5-.672 1.5-1.5-.672-1.5-1.5-1.5z"/><path d="m17.5 5c.276 0 .5.224.5.5s-.224.5-.5.5-.5-.224-.5-.5.224-.5.5-.5m0-1c-.828 0-1.5.672-1.5 1.5s.672 1.5 1.5 1.5 1.5-.672 1.5-1.5-.672-1.5-1.5-1.5z"/></svg>
