<svg viewBox="0 0 76 76" width="76" height="76" xmlns="http://www.w3.org/2000/svg">;<path d="M69.896,0H5C2.243,0,0,2.243,0,5v66c0,2.757,2.243,5,5,5h64.896C73.262,76,76,73.262,76,69.896V6.104
		C76,2.738,73.262,0,69.896,0z M5,2h64.896C72.159,2,74,3.841,74,6.104V9H2V5C2,3.346,3.346,2,5,2z M69.896,74H5
		c-1.654,0-3-1.346-3-3V11h72v58.896C74,72.159,72.159,74,69.896,74z"/><path d="m7.5 7c.828 0 1.5-.672 1.5-1.5s-.672-1.5-1.5-1.5-1.5.672-1.5 1.5.672 1.5 1.5 1.5m0-2c.276 0 .5.224.5.5s-.224.5-.5.5-.5-.224-.5-.5.224-.5.5-.5"/><path d="m12.5 7c.828 0 1.5-.672 1.5-1.5s-.672-1.5-1.5-1.5-1.5.672-1.5 1.5.672 1.5 1.5 1.5m0-2c.276 0 .5.224.5.5s-.224.5-.5.5-.5-.224-.5-.5.224-.5.5-.5"/><path d="m17.5 7c.828 0 1.5-.672 1.5-1.5s-.672-1.5-1.5-1.5-1.5.672-1.5 1.5.672 1.5 1.5 1.5m0-2c.276 0 .5.224.5.5s-.224.5-.5.5-.5-.224-.5-.5.224-.5.5-.5"/><path d="m50.954 33.23h-27.636c-.552 0-1 .447-1 1s.448 1 1 1h27.636c.553 0 1-.447 1-1s-.447-1-1-1"/><path d="m49.23 39.27c-1.586 0-2.918 1.039-3.393 2.467h-4.441c-.475-1.428-1.808-2.467-3.393-2.467-1.585 0-2.918 1.039-3.393 2.467h-4.441c-.475-1.428-1.808-2.467-3.393-2.467-1.98 0-3.591 1.61-3.591 3.591s1.611 3.591 3.591 3.591c1.676 0 3.076-1.159 3.47-2.715h4.287c.394 1.556 1.794 2.715 3.47 2.715 1.677 0 3.077-1.159 3.47-2.715h4.287c.394 1.556 1.794 2.715 3.47 2.715 1.98 0 3.591-1.61 3.591-3.591s-1.611-3.591-3.591-3.591m-22.455 5.182c-.877 0-1.591-.714-1.591-1.591s.714-1.591 1.591-1.591c.877 0 1.591.714 1.591 1.591s-.714 1.591-1.591 1.591m11.227 0c-.877 0-1.591-.714-1.591-1.591 0-.025.006-.049.008-.074.001-.017.01-.032.01-.05 0-.006-.003-.011-.003-.017.073-.81.748-1.45 1.577-1.45.877 0 1.591.714 1.591 1.591s-.715 1.591-1.592 1.591m11.228 0c-.877 0-1.591-.714-1.591-1.591s.714-1.591 1.591-1.591 1.591.714 1.591 1.591-.715 1.591-1.591 1.591"/><path d="m49.23 49.637c-1.588 0-2.922 1.042-3.395 2.474h-4.437c-.473-1.431-1.807-2.474-3.395-2.474-1.631 0-2.995 1.099-3.432 2.591h-4.364c-.436-1.492-1.801-2.591-3.432-2.591-1.98 0-3.591 1.61-3.591 3.591s1.611 3.591 3.591 3.591c1.631 0 2.995-1.099 3.432-2.591h4.364c.436 1.492 1.801 2.591 3.432 2.591 1.674 0 3.072-1.156 3.468-2.708h4.292c.396 1.552 1.794 2.708 3.468 2.708 1.98 0 3.591-1.61 3.591-3.591s-1.612-3.591-3.592-3.591m-22.455 5.181c-.877 0-1.591-.714-1.591-1.591s.714-1.591 1.591-1.591c.877 0 1.591.714 1.591 1.591s-.714 1.591-1.591 1.591m11.227 0c-.877 0-1.591-.714-1.591-1.591s.714-1.591 1.591-1.591 1.591.714 1.591 1.591-.714 1.591-1.591 1.591m11.228 0c-.877 0-1.591-.714-1.591-1.591s.714-1.591 1.591-1.591 1.591.714 1.591 1.591-.715 1.591-1.591 1.591"/><path d="m54.961 24.59h-7.461c-.553 0-1 .447-1 1s.447 1 1 1h7.461c.573 0 1.039.456 1.039 1.018v31.375c0 .561-.466 1.017-1.039 1.017h-33.921c-.574 0-1.04-.456-1.04-1.018v-31.375c0-.562.466-1.018 1.04-1.018h13.529c.436 1.492 1.801 2.592 3.432 2.592 1.98 0 3.591-1.61 3.591-3.591s-1.612-3.59-3.592-3.59c-1.63 0-2.995 1.099-3.431 2.59h-13.529c-1.676 0-3.04 1.354-3.04 3.02v31.375c0 1.663 1.364 3.02 3.04 3.02h33.921c1.676 0 3.039-1.354 3.039-3.02v-31.375c0-1.664-1.363-3.02-3.039-3.02m-16.961-.59c.877 0 1.591.714 1.591 1.591s-.714 1.591-1.591 1.591c-.851 0-1.542-.673-1.583-1.514.002-.027.016-.05.016-.078 0-.027-.013-.05-.016-.077.042-.84.733-1.513 1.583-1.513"/></svg>
