<svg viewBox="0 0 76 76" width="76" height="76" xmlns="http://www.w3.org/2000/svg">;<path d="M69.896,0H5C2.243,0,0,2.243,0,5v66c0,2.757,2.243,5,5,5h64.896C73.262,76,76,73.262,76,69.896V6.104
		C76,2.738,73.262,0,69.896,0z M5,2h64.896C72.159,2,74,3.841,74,6.104V9H2V5C2,3.346,3.346,2,5,2z M69.896,74H5
		c-1.654,0-3-1.346-3-3V11h72v58.896C74,72.159,72.159,74,69.896,74z"/><path d="m7.5 7c.828 0 1.5-.672 1.5-1.5s-.672-1.5-1.5-1.5-1.5.672-1.5 1.5.672 1.5 1.5 1.5m0-2c.276 0 .5.224.5.5s-.224.5-.5.5-.5-.224-.5-.5.224-.5.5-.5"/><path d="m12.5 7c.828 0 1.5-.672 1.5-1.5s-.672-1.5-1.5-1.5-1.5.672-1.5 1.5.672 1.5 1.5 1.5m0-2c.276 0 .5.224.5.5s-.224.5-.5.5-.5-.224-.5-.5.224-.5.5-.5"/><path d="m17.5 7c.828 0 1.5-.672 1.5-1.5s-.672-1.5-1.5-1.5-1.5.672-1.5 1.5.672 1.5 1.5 1.5m0-2c.276 0 .5.224.5.5s-.224.5-.5.5-.5-.224-.5-.5.224-.5.5-.5"/><path d="m52.938 26.394l-14.594-5.333c-.222-.08-.465-.08-.687 0l-14.595 5.333c-.395.145-.657.52-.657.939v18.667c0 2.919.733 5.523 4.312 8.743 2.495 2.244 6.356 5.197 9.61 7.349l1.121.742c.167.11.36.166.552.166.193 0 .386-.056.553-.167l1.111-.735c3.256-2.152 7.121-5.107 9.619-7.354 3.578-3.22 4.312-5.823 4.312-8.743v-18.668c0-.42-.263-.795-.657-.939m-1.343 19.606c0 2.517-.597 4.511-3.649 7.257-2.432 2.187-6.203 5.069-9.384 7.173l-.562.371-.57-.377c-3.18-2.103-6.947-4.982-9.375-7.167-3.052-2.747-3.649-4.741-3.649-7.257v-17.968l13.594-4.968 13.595 4.968v17.968"/><path d="m34.05 36v2.05h-.05c-1.075 0-1.95.875-1.95 1.95v6c0 1.075.875 1.95 1.95 1.95h8c1.075 0 1.95-.875 1.95-1.95v-6c0-1.075-.875-1.95-1.95-1.95h-.05v-2.05c0-2.178-1.772-3.95-3.95-3.95-2.178 0-3.95 1.772-3.95 3.95m8 4v6c0 .028-.021.05-.05.05l-8.05-.05.05-6.05 8.05.05m-2-4v2.05h-4.1v-2.05c0-1.13.919-2.05 2.05-2.05 1.13 0 2.05.92 2.05 2.05"/></svg>
