<svg viewBox="0 0 76 76" width="76" height="76" xmlns="http://www.w3.org/2000/svg">;<path d="M69.896,0H5C2.243,0,0,2.243,0,5v66c0,2.757,2.243,5,5,5h64.896C73.262,76,76,73.262,76,69.896V6.104
		C76,2.738,73.262,0,69.896,0z M5,2h64.896C72.159,2,74,3.841,74,6.104V9H2V5C2,3.346,3.346,2,5,2z M69.896,74H5
		c-1.654,0-3-1.346-3-3V11h72v58.896C74,72.159,72.159,74,69.896,74z"/><path d="m7.5 7c.828 0 1.5-.672 1.5-1.5s-.672-1.5-1.5-1.5-1.5.672-1.5 1.5.672 1.5 1.5 1.5m0-2c.276 0 .5.224.5.5s-.224.5-.5.5-.5-.224-.5-.5.224-.5.5-.5"/><path d="m12.5 7c.828 0 1.5-.672 1.5-1.5s-.672-1.5-1.5-1.5-1.5.672-1.5 1.5.672 1.5 1.5 1.5m0-2c.276 0 .5.224.5.5s-.224.5-.5.5-.5-.224-.5-.5.224-.5.5-.5"/><path d="m17.5 7c.828 0 1.5-.672 1.5-1.5s-.672-1.5-1.5-1.5-1.5.672-1.5 1.5.672 1.5 1.5 1.5m0-2c.276 0 .5.224.5.5s-.224.5-.5.5-.5-.224-.5-.5.224-.5.5-.5"/><path d="m38 23c-11.03 0-20 8.972-20 20s8.972 20 20 20c11.03 0 20-8.972 20-20s-8.972-20-20-20m13.395 31.981l-1.375-1.375c-.391-.391-1.023-.391-1.414 0s-.391 1.023 0 1.414l1.375 1.375c-2.953 2.644-6.773 4.321-10.981 4.554v-1.949c0-.553-.448-1-1-1s-1 .447-1 1v1.949c-4.209-.233-8.03-1.911-10.981-4.554l1.375-1.375c.391-.391.391-1.023 0-1.414s-1.023-.391-1.414 0l-1.375 1.375c-2.644-2.953-4.321-6.772-4.554-10.981h1.949c.552 0 1-.447 1-1s-.448-1-1-1h-1.949c.233-4.208 1.91-8.03 4.554-10.981l1.375 1.375c.195.195.451.293.707.293s.512-.098.707-.293c.391-.391.391-1.023 0-1.414l-1.375-1.375c2.953-2.644 6.773-4.321 10.981-4.554v1.949c0 .553.448 1 1 1s1-.447 1-1v-1.949c4.208.233 8.03 1.91 10.981 4.554l-1.375 1.375c-.391.391-.391 1.023 0 1.414.195.195.451.293.707.293s.512-.098.707-.293l1.375-1.375c2.644 2.953 4.321 6.773 4.554 10.981h-1.949c-.553 0-1 .447-1 1s.447 1 1 1h1.949c-.233 4.208-1.91 8.03-4.554 10.981"/><path d="m41.1 39.06l-2.829 2.829-6.364-6.364c-.391-.391-1.023-.391-1.414 0s-.391 1.023 0 1.414l7.07 7.07c.188.188.442.293.707.293s.52-.105.707-.293l3.536-3.536c.391-.391.391-1.023 0-1.414s-1.024-.391-1.414 0"/></svg>
