<svg viewBox="0 0 76 76" width="76" height="76" xmlns="http://www.w3.org/2000/svg">;<path d="m7.5 7c.828 0 1.5-.672 1.5-1.5s-.672-1.5-1.5-1.5-1.5.672-1.5 1.5.672 1.5 1.5 1.5m0-2c.276 0 .5.224.5.5s-.224.5-.5.5-.5-.224-.5-.5.224-.5.5-.5"/><path d="m12.5 7c.828 0 1.5-.672 1.5-1.5s-.672-1.5-1.5-1.5-1.5.672-1.5 1.5.672 1.5 1.5 1.5m0-2c.276 0 .5.224.5.5s-.224.5-.5.5-.5-.224-.5-.5.224-.5.5-.5"/><path d="m17.5 7c.828 0 1.5-.672 1.5-1.5s-.672-1.5-1.5-1.5-1.5.672-1.5 1.5.672 1.5 1.5 1.5m0-2c.276 0 .5.224.5.5s-.224.5-.5.5-.5-.224-.5-.5.224-.5.5-.5"/><path d="m71 0h-66c-2.757 0-5 2.243-5 5v66c0 2.757 2.243 5 5 5h66c2.757 0 5-2.243 5-5v-66c0-2.757-2.243-5-5-5m-66 2h66c1.654 0 3 1.346 3 3v4h-72v-4c0-1.654 1.346-3 3-3m66 72h-66c-1.654 0-3-1.346-3-3v-60h72v60c0 1.654-1.346 3-3 3"/><path d="m43.5 53.17c-.553 0-1 .447-1 1v9.167c0 2.298-1.869 4.167-4.167 4.167h-20.666c-2.297 0-4.167-1.869-4.167-4.167v-20.666c0-2.298 1.869-4.167 4.167-4.167h9.167c.552 0 1-.447 1-1s-.448-1-1-1h-9.167c-3.4 0-6.167 2.767-6.167 6.167v20.666c0 3.4 2.766 6.167 6.167 6.167h20.667c3.4 0 6.167-2.767 6.167-6.167v-9.167c-.001-.553-.448-1-1-1"/><path d="m47.37 24.15l-5.112 15.695h2.832l1.224-4.248h5.28l1.224 4.248h2.928l-5.112-15.695h-3.264m-.408 9.264l.552-1.92c.256-.832.496-1.684.72-2.557.224-.871.448-1.748.672-2.628h.096c.224.864.452 1.736.684 2.616s.476 1.736.732 2.568l.552 1.92h-4.01"/><path d="m59.5 15.5h-21c-3.309 0-6 2.691-6 6v21c0 .998.248 1.938.681 2.767h-4.181v-1.533c0-.553-.448-1-1-1s-1 .447-1 1v1.533h-5.967c-.552 0-1 .447-1 1s.448 1 1 1h1.224c0 .012-.007.021-.007.033 0 .293.065 4.999 3.6 9.667-.874.792-1.874 1.518-3.048 2.105-.494.247-.694.848-.447 1.342.175.351.528.553.896.553.15 0 .303-.034.446-.105 1.331-.665 2.463-1.479 3.451-2.362 1.705 1.809 3.997 3.538 7.096 4.915.132.059.27.086.406.086.383 0 .749-.221.915-.594.224-.505-.003-1.096-.508-1.32-2.85-1.266-4.942-2.853-6.487-4.504 3.715-4.235 4.497-9.355 4.538-9.641.009-.06-.008-.116-.01-.175h1.774c1.01.77 2.265 1.233 3.63 1.233h21c3.309 0 6-2.691 6-6v-21c-.002-3.309-2.693-6-6-6m-32.24 40.01c-2.933-4.02-3.01-7.956-3.01-8.208 0-.011-.006-.02-.006-.03h6.865c-.125.71-.953 4.775-3.848 8.238m36.24-13.01c0 2.206-1.794 4-4 4h-21c-2.206 0-4-1.794-4-4v-21c0-2.206 1.794-4 4-4h21c2.206 0 4 1.794 4 4v21"/></svg>
