<svg viewBox="0 0 76 76" width="76" height="76" xmlns="http://www.w3.org/2000/svg">;<path d="m7.5 5c.276 0 .5.224.5.5s-.224.5-.5.5-.5-.224-.5-.5.224-.5.5-.5m0-1c-.828 0-1.5.672-1.5 1.5s.672 1.5 1.5 1.5 1.5-.672 1.5-1.5-.672-1.5-1.5-1.5z"/><path d="m12.5 5c.276 0 .5.224.5.5s-.224.5-.5.5-.5-.224-.5-.5.224-.5.5-.5m0-1c-.828 0-1.5.672-1.5 1.5s.672 1.5 1.5 1.5 1.5-.672 1.5-1.5-.672-1.5-1.5-1.5z"/><path d="m17.5 5c.276 0 .5.224.5.5s-.224.5-.5.5-.5-.224-.5-.5.224-.5.5-.5m0-1c-.828 0-1.5.672-1.5 1.5s.672 1.5 1.5 1.5 1.5-.672 1.5-1.5-.672-1.5-1.5-1.5z"/><path d="m49.836 23.5c-.179-.31-.509-.5-.866-.5h-21.94c-.357 0-.688.19-.866.5l-10.97 19c-.178.31-.178.69 0 1l10.97 19c.179.31.509.5.866.5h21.94c.357 0 .688-.19.866-.5l10.97-19c.179-.31.179-.69 0-1l-10.97-19m-1.443 37.5h-20.786l-10.392-18 10.392-18h20.785l10.393 18-10.392 18"/><path d="m38 35c-4.411 0-8 3.589-8 8s3.589 8 8 8 8-3.589 8-8-3.589-8-8-8m0 14c-3.309 0-6-2.691-6-6s2.691-6 6-6 6 2.691 6 6-2.691 6-6 6"/><path d="m71 0h-66c-2.757 0-5 2.243-5 5v66c0 2.757 2.243 5 5 5h66c2.757 0 5-2.243 5-5v-66c0-2.757-2.243-5-5-5m-66 2h66c1.654 0 3 1.346 3 3v4h-72v-4c0-1.654 1.346-3 3-3m66 72h-66c-1.654 0-3-1.346-3-3v-60h72v60c0 1.654-1.346 3-3 3"/></svg>
