<svg xmlns="http://www.w3.org/2000/svg" viewBox="0 0 76 76" enable-background="new 0 0 76 76" width="76" height="76"><path d="M69.896,0H5C2.243,0,0,2.243,0,5v66c0,2.757,2.243,5,5,5h64.896C73.262,76,76,73.262,76,69.896V6.104
		C76,2.738,73.262,0,69.896,0z M5,2h64.896C72.159,2,74,3.841,74,6.104V9H2V5C2,3.346,3.346,2,5,2z M69.896,74H5
		c-1.654,0-3-1.346-3-3V11h72v58.896C74,72.159,72.159,74,69.896,74z"/><path d="m7.5 7c.828 0 1.5-.672 1.5-1.5s-.672-1.5-1.5-1.5-1.5.672-1.5 1.5.672 1.5 1.5 1.5m0-2c.276 0 .5.224.5.5s-.224.5-.5.5-.5-.224-.5-.5.224-.5.5-.5"/><path d="m12.5 7c.828 0 1.5-.672 1.5-1.5s-.672-1.5-1.5-1.5-1.5.672-1.5 1.5.672 1.5 1.5 1.5m0-2c.276 0 .5.224.5.5s-.224.5-.5.5-.5-.224-.5-.5.224-.5.5-.5"/><path d="m17.5 7c.828 0 1.5-.672 1.5-1.5s-.672-1.5-1.5-1.5-1.5.672-1.5 1.5.672 1.5 1.5 1.5m0-2c.276 0 .5.224.5.5s-.224.5-.5.5-.5-.224-.5-.5.224-.5.5-.5"/><path d="m31.641 43.845c-4.962 0-9-4.04-9-9s4.04-9 9-9 9 4.04 9 9-4.04 9-9 9m0-16c-3.86 0-7 3.141-7 7s3.14 7 7 7c3.859 0 7-3.141 7-7s-3.141-7-7-7"/><path d="m47.641 61.906h-32c-.586 0-1.061-.476-1.061-1.062 0-7.202 5.859-13.06 13.06-13.06h8c7.202 0 13.06 5.859 13.06 13.06 0 .587-.475 1.062-1.061 1.062m-30.888-2.123h29.775c-.535-5.535-5.214-9.877-10.887-9.877h-8c-5.674 0-10.352 4.342-10.888 9.877"/><path d="m57.44 47.02c-.145 0-.291-.031-.43-.098-.498-.237-.71-.834-.472-1.333 3.271-6.857 3.709-14.914 1.201-22.1-.182-.521.094-1.092.615-1.273.52-.18 1.092.093 1.273.615 2.68 7.685 2.212 16.295-1.285 23.624-.169.359-.528.569-.902.569"/><path d="m48.8 41.44c-.136 0-.274-.027-.407-.087-.504-.226-.73-.816-.505-1.321 1.519-3.399 1.878-7.275 1.013-10.914-.128-.537.204-1.076.741-1.204.539-.126 1.076.203 1.204.741.967 4.063.564 8.394-1.132 12.193-.166.371-.531.592-.914.592"/></svg>
