<svg width="254" height="28" viewBox="0 0 254 28" fill="none" xmlns="http://www.w3.org/2000/svg">
<path d="M227.96 7.41162H226.142L226.15 21.4116H233.516V19.6797H227.968L227.96 7.41162Z" fill="black"/>
<path d="M240.83 18.6047C240.558 18.9248 240.231 19.1789 239.869 19.3517C239.507 19.5246 239.118 19.6125 238.726 19.6101C237.433 19.6101 236.911 18.8873 236.911 17.9435C236.911 16.5236 237.784 15.8451 239.638 15.8451C240.04 15.8467 240.441 15.8817 240.839 15.9499V18.6047H240.83ZM239.069 9.91873C237.749 9.91409 236.468 10.4355 235.453 11.3917L236.054 12.5736C236.881 11.9784 237.84 11.6602 238.82 11.6556C239.085 11.6077 239.357 11.6298 239.614 11.7203C239.87 11.8108 240.105 11.9671 240.3 12.1772C240.494 12.3872 240.643 12.6452 240.735 12.9312C240.827 13.2172 240.86 13.5233 240.83 13.8257V14.5213C240.441 14.4526 240.047 14.4176 239.654 14.4166C236.678 14.4166 235.166 15.597 235.166 18.0668C235.13 18.5212 235.184 18.9789 235.324 19.4067C235.464 19.8345 235.686 20.2216 235.975 20.54C236.264 20.8583 236.612 21.0999 236.993 21.2472C237.375 21.3945 237.78 21.4438 238.181 21.3915C238.739 21.4339 239.296 21.3006 239.791 21.0064C240.286 20.7123 240.7 20.2687 240.986 19.7249L241.298 21.1262H242.498V13.7898C242.565 13.263 242.523 12.7256 242.374 12.2205C242.226 11.7154 241.975 11.2566 241.642 10.8806C241.309 10.5046 240.903 10.2218 240.456 10.0548C240.01 9.88784 239.535 9.84124 239.069 9.91873Z" fill="black"/>
<path d="M248.73 19.7762C248.1 19.8011 247.472 19.7003 246.885 19.4803V13.1239C247.58 12.5422 248.472 12.2209 249.397 12.2195C251.268 12.2195 251.987 13.4804 251.987 15.5189C251.987 18.4135 250.824 19.7762 248.73 19.7762ZM249.547 10.4164C249.045 10.4135 248.548 10.5123 248.089 10.7064C247.63 10.9006 247.219 11.1855 246.885 11.5423V9.76533L246.876 7.41162H244.987L244.996 20.8251C246.164 21.2405 247.405 21.4386 248.651 21.4087C252.261 21.4087 254 19.2091 254 15.4088C253.991 12.4054 252.385 10.4164 249.547 10.4164Z" fill="black"/>
<path d="M208.084 8.402C209.291 8.35545 210.474 8.7572 211.426 9.53657L212.213 8.10298C211.085 7.09818 209.646 6.55999 208.167 6.58927C204.283 6.58927 201.561 9.07875 201.561 14.102C201.561 19.3614 204.501 21.4116 207.858 21.4116C209.248 21.4149 210.625 21.1341 211.912 20.5847L211.87 14.9633V13.1964H206.887V14.9633H210.069L210.111 19.2298C209.441 19.5231 208.717 19.6584 207.992 19.6261C205.296 19.6261 203.487 17.8405 203.487 14.0849C203.479 10.2577 205.347 8.402 208.084 8.402Z" fill="black"/>
<path d="M221.438 7.41162H219.613L219.623 9.71459V17.672C219.547 18.1757 219.592 18.69 219.754 19.1736C219.916 19.6571 220.191 20.0966 220.556 20.4567C220.922 20.8168 221.368 21.0875 221.858 21.2472C222.349 21.4069 222.871 21.4511 223.382 21.3762C223.758 21.3769 224.134 21.3429 224.503 21.2746V19.6634C224.223 19.7054 223.939 19.7251 223.655 19.7224C223.363 19.7682 223.065 19.747 222.783 19.6605C222.501 19.574 222.243 19.4245 222.029 19.2237C221.816 19.0229 221.652 18.7761 221.551 18.5027C221.449 18.2293 221.414 17.9365 221.446 17.6473V12.1616H224.503V10.6602H221.446L221.438 7.41162Z" fill="black"/>
<path d="M216.31 10.7058H214.671V21.4117H216.31V10.7058Z" fill="black"/>
<path d="M216.31 7.41162H214.671V9.05868H216.31V7.41162Z" fill="black"/>
<path d="M196.558 15.6839L194.988 10.7181V10.7167H194.986L191.869 0.863333C191.787 0.610009 191.629 0.389902 191.417 0.234754C191.206 0.0796052 190.952 -0.00258385 190.692 6.19314e-05C190.433 -0.00165902 190.18 0.0819403 189.97 0.238569C189.761 0.395197 189.606 0.616605 189.528 0.870303L186.569 10.2236H177.231L174.266 0.870303C174.188 0.616606 174.033 0.395197 173.824 0.238569C173.614 0.0819406 173.362 -0.00165681 173.103 6.19314e-05H173.096C172.836 0.000139708 172.583 0.0842837 172.372 0.240508C172.162 0.396733 172.004 0.617093 171.923 0.870303L168.814 10.7153L168.812 10.7167V10.7181L167.236 15.6839C167.12 16.0477 167.119 16.4402 167.234 16.8045C167.349 17.1688 167.574 17.4862 167.876 17.7108L181.488 27.8631L181.493 27.8673L181.511 27.8799L181.522 27.8868L181.542 27.8994L181.546 27.9022L181.569 27.9148V27.9162L181.575 27.919L181.58 27.9218L181.588 27.9246L181.609 27.9357L181.641 27.9497L181.658 27.9553L181.674 27.9623L181.681 27.9637L181.688 27.9665L181.715 27.9734L181.737 27.9804L181.75 27.9832L181.776 27.9888L181.787 27.9902L181.799 27.9916L181.816 27.9944L181.822 27.9958H181.837C181.855 27.9972 181.873 27.9986 181.89 27.9986L181.896 28L181.903 27.9986C181.92 27.9986 181.937 27.9972 181.954 27.9958H181.969L181.976 27.9944L181.994 27.9916L182.005 27.9902L182.015 27.9888L182.041 27.9832L182.055 27.9804L182.077 27.9734L182.104 27.9665L182.111 27.9637L182.118 27.9623L182.134 27.9553L182.152 27.9497C182.162 27.9442 182.172 27.9395 182.183 27.9357L182.203 27.9246L182.211 27.9218L182.217 27.919L182.222 27.9162L182.247 27.9008L182.251 27.8994L182.27 27.8868L182.281 27.8799L182.299 27.8673L182.304 27.8631L195.918 17.7108C196.22 17.4858 196.444 17.1684 196.559 16.8042C196.674 16.44 196.674 16.0478 196.558 15.6839ZM190.7 1.78665L193.37 10.2236H188.03L190.7 1.78665ZM192.901 11.6498L191.813 13.083L183.778 23.6516L183.982 23.009L187.578 11.6498H192.901ZM181.234 27.5069L181.237 27.5125L181.234 27.5069ZM180.017 23.6516L170.897 11.6498H176.221L180.017 23.6516ZM173.094 1.78665L175.768 10.2236H170.429L173.094 1.78665ZM168.694 16.557C168.63 16.5091 168.582 16.4415 168.557 16.3639C168.533 16.2863 168.533 16.2028 168.558 16.1253L169.729 12.4335L178.316 23.734L168.694 16.557ZM181.497 27.8701L181.5 27.8715L181.497 27.8701ZM181.896 24.9772L179.663 17.9147L177.682 11.6498H186.117L181.896 24.9772ZM195.1 16.557L185.48 23.7312L194.069 12.4349L195.237 16.1239C195.261 16.2016 195.262 16.2854 195.237 16.3632C195.213 16.441 195.165 16.5088 195.1 16.557Z" fill="black"/>
<path d="M20.996 21.307C18.5701 20.5668 16.0492 20.2153 13.5207 20.2646H13.518C10.9895 20.2153 8.4686 20.5668 6.04275 21.307V6.72227H6.28129C6.28129 6.72227 7.53187 19.5807 13.518 19.5807H13.5207C19.5068 19.5807 20.7575 6.72227 20.7575 6.72227H20.996V21.307ZM13.5194 0C10.8455 0 8.23166 0.821075 6.00841 2.35942C3.78517 3.89775 2.05235 6.08426 1.0291 8.64243C0.0058563 11.2006 -0.26187 14.0155 0.259777 16.7313C0.781424 19.447 2.06902 21.9416 3.95973 23.8995C5.85045 25.8574 8.25937 27.1908 10.8819 27.731C13.5044 28.2712 16.2227 27.9939 18.693 26.9343C21.1633 25.8747 23.2748 24.0803 24.7603 21.778C26.2458 19.4757 27.0387 16.7689 27.0387 14C27.0387 12.1615 26.689 10.341 26.0096 8.64243C25.3302 6.94387 24.3344 5.40051 23.079 4.10049C21.8236 2.80047 20.3332 1.76923 18.693 1.06567C17.0528 0.362101 15.2948 0 13.5194 0Z" fill="black"/>
<path d="M140.11 11.3165C139.861 11.2231 139.597 11.1757 139.331 11.1765C138.852 11.1936 138.386 11.3307 137.977 11.5746C137.568 11.8186 137.228 12.1614 136.991 12.5705V12.4319C137.004 12.0097 136.88 11.5944 136.638 11.2458L134.866 11.7349C135.098 12.4553 135.194 13.2115 135.149 13.9659V20.3096H137.134V14.3844C137.146 14.1899 137.204 14.0008 137.302 13.8315C137.4 13.6623 137.536 13.5172 137.7 13.4075C137.86 13.2596 138.05 13.146 138.258 13.074C138.466 13.002 138.686 12.973 138.905 12.989C139.101 13.0027 139.293 13.0501 139.472 13.1289L140.11 11.3165ZM133.59 16.2661V15.917C133.666 15.2467 133.606 14.5681 133.411 13.9214C133.216 13.2747 132.891 12.673 132.456 12.152C132.106 11.8273 131.694 11.574 131.244 11.4065C130.795 11.2391 130.315 11.1609 129.835 11.1765C129.305 11.1719 128.78 11.2747 128.292 11.4785C127.804 11.6824 127.364 11.9829 126.999 12.3613C126.195 13.3179 125.79 14.5392 125.866 15.7784C125.866 18.637 127.495 20.4495 130.118 20.4495C131.335 20.45 132.514 20.0303 133.449 19.2634L132.669 18.1479C132.013 18.6874 131.185 18.9836 130.331 18.9848C129.951 18.9974 129.573 18.9219 129.228 18.7645C128.884 18.6071 128.581 18.3721 128.346 18.0786C128.048 17.5711 127.901 16.9917 127.921 16.4061V16.2661H133.59ZM125.228 20.2403L124.874 19.1248C124.765 19.1605 124.648 19.1664 124.535 19.1417C124.423 19.1171 124.319 19.0629 124.236 18.9848C124.037 18.548 123.964 18.0659 124.023 17.5908V9.9211C124.065 9.08201 124.017 8.24094 123.881 7.41162L121.897 7.83009C122.063 8.6799 122.134 9.54512 122.109 10.4102V18.0786C122.068 18.7107 122.216 19.3409 122.535 19.8911C122.712 20.1066 122.941 20.2763 123.2 20.3856C123.46 20.495 123.742 20.5407 124.023 20.5188C124.432 20.4596 124.835 20.3664 125.228 20.2403ZM115.519 8.80563C115.517 8.63532 115.481 8.46705 115.412 8.31088C115.343 8.15472 115.243 8.01387 115.117 7.89679C114.991 7.7797 114.843 7.68879 114.68 7.62947C114.518 7.57015 114.345 7.54366 114.172 7.55158C113.826 7.54753 113.492 7.67616 113.241 7.91024C112.99 8.14432 112.841 8.46545 112.826 8.80563C112.844 9.14499 112.994 9.46462 113.244 9.69856C113.495 9.93251 113.827 10.0629 114.172 10.0629C114.518 10.0629 114.85 9.93251 115.101 9.69856C115.351 9.46462 115.501 9.14499 115.519 8.80563ZM120.692 20.2403L120.339 19.1248H120.126C119.771 19.1248 119.488 18.9156 119.488 18.2878V9.9211C119.53 9.08201 119.482 8.24094 119.346 7.41162L117.361 7.83009C117.528 8.67989 117.599 9.54512 117.574 10.4102V18.4278C117.539 18.6928 117.564 18.962 117.645 19.217C117.726 19.4719 117.862 19.7067 118.043 19.9052C118.225 20.1037 118.448 20.2613 118.698 20.3672C118.947 20.4731 119.217 20.5248 119.488 20.5188C119.9 20.4756 120.304 20.3821 120.692 20.2403ZM115.165 20.2403V11.1765L113.181 11.4551V20.171H115.165V20.2403ZM111.196 20.2403L110.133 8.10862H107.369L104.889 17.0324L102.409 8.17928H99.5748L98.3692 20.3096H100.211L101.062 10.1303L103.968 20.3096H105.457L108.362 10.3396L109.212 20.3096H111.196V20.2403ZM96.1719 20.2403V13.686C96.2102 13.3564 96.1723 13.0226 96.0612 12.7094C95.9501 12.3962 95.7686 12.1118 95.5302 11.8772C95.2917 11.6426 95.0026 11.464 94.6842 11.3547C94.3659 11.2454 94.0266 11.2082 93.6916 11.2458C92.6304 11.2828 91.6207 11.7054 90.8577 12.4319C90.8489 12.0125 90.7264 11.603 90.5028 11.2458L88.7323 11.7349C88.9954 12.3996 89.0924 13.1167 89.0154 13.8259V20.3802H90.9281V13.9659C91.4851 13.3756 92.2407 13.0039 93.0549 12.9197C93.8338 12.9197 94.117 13.2675 94.117 14.523V20.3802H96.1719V20.2403ZM87.4562 19.4033C86.8182 18.9848 86.6055 18.637 86.6055 17.5908V17.3123L86.6759 14.6629V14.1045C86.6941 13.5894 86.6467 13.0741 86.535 12.5705C86.1801 11.595 85.1885 11.1072 83.7716 11.1072C82.9195 11.1 82.0751 11.2661 81.2912 11.595C80.7816 11.7986 80.2845 12.0314 79.8025 12.292L80.6532 13.6167C81.4854 13.0243 82.4642 12.663 83.4871 12.5705C83.686 12.5439 83.8885 12.5684 84.0749 12.6418C84.2613 12.7151 84.4251 12.8348 84.5505 12.989C84.7866 13.3381 84.8871 13.7591 84.8336 14.1751V14.8015H84.1956C81.149 14.8015 79.5194 15.8477 79.5194 17.94C79.5004 18.2847 79.5535 18.6295 79.6753 18.9532C79.7972 19.2768 79.9852 19.5725 80.2278 19.8218C80.5519 20.0834 80.9252 20.2797 81.3264 20.3992C81.7276 20.5188 82.1488 20.5595 82.566 20.5188C83.2683 20.5257 83.9576 20.3322 84.5505 19.9617C84.7569 19.7933 84.9469 19.6064 85.1181 19.4033C85.2331 19.6784 85.4062 19.9263 85.626 20.1305C85.8457 20.3348 86.1071 20.4908 86.3928 20.5881L87.4562 19.4033ZM77.8898 20.2403V13.7567C77.9346 13.3888 77.894 13.0157 77.771 12.6655C77.6481 12.3153 77.446 11.9972 77.1799 11.7349C76.6993 11.3548 76.0962 11.1567 75.4799 11.1765C74.9406 11.1964 74.4111 11.3242 73.9237 11.5519C73.4362 11.7796 73.001 12.1027 72.6446 12.5012C72.4487 12.0946 72.1368 11.7529 71.7469 11.5177C71.357 11.2825 70.9059 11.1639 70.4487 11.1765C69.5108 11.2362 68.628 11.6333 67.9684 12.292C67.9033 11.9058 67.7838 11.5303 67.6135 11.1765L65.8416 11.595C66.1612 12.2693 66.2841 13.0177 66.1965 13.7567V20.171H68.1092V13.6167C68.6457 13.0998 69.3463 12.7799 70.0938 12.7105C70.8727 12.7105 71.1572 13.1289 71.1572 14.1045V20.171H73.0699V13.7567C73.5853 13.1406 74.3204 12.7416 75.1249 12.6412C75.8334 12.6412 76.1179 12.989 76.1179 13.8952V20.1003H77.8898V20.2403ZM65.2754 11.3165C65.0262 11.223 64.7617 11.1756 64.4951 11.1765C64.019 11.2024 63.5568 11.343 63.149 11.5862C62.7413 11.8293 62.4006 12.1673 62.157 12.5705V12.4319C62.1692 12.0096 62.045 11.5943 61.802 11.2458L59.9597 11.7349C60.1918 12.4553 60.2878 13.2115 60.2429 13.9659V20.3096H62.2274V14.3844C62.24 14.1897 62.2977 14.0005 62.3961 13.8312C62.4945 13.6619 62.631 13.5169 62.795 13.4075C62.9554 13.2595 63.1452 13.1459 63.3525 13.0738C63.5598 13.0018 63.78 12.9729 63.9993 12.989C64.1953 13.0027 64.3874 13.05 64.5669 13.1289L65.2754 11.3165ZM58.8259 16.2661V15.917C58.9026 15.2467 58.8417 14.5681 58.647 13.9214C58.4522 13.2747 58.1275 12.673 57.6921 12.152C57.0059 11.5086 56.0891 11.158 55.1413 11.1765C54.6094 11.1579 54.0798 11.2544 53.5899 11.4591C53.1 11.6638 52.6617 11.9718 52.306 12.3613C51.5019 13.3179 51.0967 14.5392 51.1722 15.7784C51.1722 18.637 52.8018 20.4495 55.4244 20.4495C56.6439 20.4624 57.8269 20.0411 58.7555 19.2634L57.9752 18.1479C57.3194 18.6874 56.492 18.9836 55.6371 18.9848C55.2572 18.9974 54.8797 18.9219 54.535 18.7645C54.1903 18.6071 53.888 18.3721 53.6525 18.0786C53.3796 17.5641 53.2572 16.985 53.299 16.4061V16.2661H58.8259ZM49.5426 20.2403V8.17928H47.558V13.0597H42.9523V8.17928H40.9677V20.3096H42.9523V14.6629H47.558V20.3096H49.5426V20.2403ZM131.535 14.9414H128.063C128.133 13.4075 128.701 12.5705 129.835 12.5705C130.897 12.5705 131.535 13.4768 131.535 14.9414ZM84.7632 16.0569L84.6927 18.1479C84.5112 18.45 84.2517 18.6995 83.9405 18.8711C83.6294 19.0427 83.2776 19.1302 82.9209 19.1248C82.7339 19.1404 82.5457 19.1145 82.3702 19.049C82.1947 18.9834 82.0365 18.8799 81.9072 18.746C81.7779 18.6122 81.6809 18.4514 81.6233 18.2757C81.5657 18.1 81.5489 17.9137 81.5744 17.7308C81.5507 17.5081 81.5836 17.2832 81.6701 17.0762C81.7567 16.8691 81.8941 16.6865 82.0702 16.5447C82.7296 16.0884 83.5379 15.8899 84.3378 15.9876C84.4719 16.0441 84.6178 16.0679 84.7632 16.0569ZM56.7709 14.9414H53.2272C53.2272 13.4075 53.9357 12.5705 54.9991 12.5705C56.1329 12.5705 56.7709 13.4768 56.7709 14.9414Z" fill="black"/>
<path d="M153.527 20.5882H151.841V16.0819H147.484V14.3872H151.841V9.88232H153.527V14.3872H158.135V16.0819H153.527V20.5882Z" fill="#262626"/>
</svg>
