<svg version="1.1" viewBox="0.0 0.0 612.0 376.0" fill="none" stroke="none" stroke-linecap="square" stroke-miterlimit="10" width="612" height="376" xmlns:xlink="http://www.w3.org/1999/xlink" xmlns="http://www.w3.org/2000/svg"><path fill="#ffffff" d="M0 0L612.0 0L612.0 376.0L0 376.0L0 0Z" fill-rule="nonzero"/><path stroke="#333333" stroke-width="1.0" stroke-linecap="butt" d="M73.5 337.5L593.5 337.5" fill-rule="nonzero"/><path stroke="#cccccc" stroke-width="1.0" stroke-linecap="butt" d="M73.5 278.5L593.5 278.5" fill-rule="nonzero"/><path stroke="#cccccc" stroke-width="1.0" stroke-linecap="butt" d="M73.5 220.5L593.5 220.5" fill-rule="nonzero"/><path stroke="#cccccc" stroke-width="1.0" stroke-linecap="butt" d="M73.5 161.5L593.5 161.5" fill-rule="nonzero"/><path stroke="#cccccc" stroke-width="1.0" stroke-linecap="butt" d="M73.5 102.5L593.5 102.5" fill-rule="nonzero"/><path stroke="#000000" stroke-width="1.0" stroke-linecap="butt" d="M73.5 337.5L73.5 102.5" fill-rule="nonzero"/><clipPath id="id_0"><path d="M73.8 102.86667L593.2 102.86667L593.2 337.2L73.8 337.2L73.8 102.86667Z" clip-rule="nonzero"/></clipPath><path stroke="#000000" stroke-width="2.0" stroke-linecap="butt" stroke-opacity="0.0" clip-path="url(#id_0)" d="M153.0 337.0L116.0 337.0L116.0 205.0C116.0 203.89543 116.89543 203.0 118.0 203.0L151.0 203.0C152.10457 203.0 153.0 203.89543 153.0 205.0Z" fill-rule="nonzero"/><path fill="#f9cb9c" clip-path="url(#id_0)" d="M153.0 337.0L116.0 337.0L116.0 205.0C116.0 203.89543 116.89543 203.0 118.0 203.0L151.0 203.0C152.10457 203.0 153.0 203.89543 153.0 205.0Z" fill-rule="nonzero"/><path stroke="#000000" stroke-width="2.0" stroke-linecap="butt" stroke-opacity="0.0" clip-path="url(#id_0)" d="M273.0 337.0L236.0 337.0L236.0 272.0C236.0 270.89542 236.89543 270.0 238.0 270.0L271.0 270.0C272.10458 270.0 273.0 270.89542 273.0 272.0Z" fill-rule="nonzero"/><path fill="#f9cb9c" clip-path="url(#id_0)" d="M273.0 337.0L236.0 337.0L236.0 272.0C236.0 270.89542 236.89543 270.0 238.0 270.0L271.0 270.0C272.10458 270.0 273.0 270.89542 273.0 272.0Z" fill-rule="nonzero"/><path stroke="#000000" stroke-width="2.0" stroke-linecap="butt" stroke-opacity="0.0" clip-path="url(#id_0)" d="M392.0 337.0L355.0 337.0L355.0 306.0C355.0 304.89542 355.89542 304.0 357.0 304.0L390.0 304.0C391.10458 304.0 392.0 304.89542 392.0 306.0Z" fill-rule="nonzero"/><path fill="#f9cb9c" clip-path="url(#id_0)" d="M392.0 337.0L355.0 337.0L355.0 306.0C355.0 304.89542 355.89542 304.0 357.0 304.0L390.0 304.0C391.10458 304.0 392.0 304.89542 392.0 306.0Z" fill-rule="nonzero"/><path stroke="#000000" stroke-width="2.0" stroke-linecap="butt" stroke-opacity="0.0" clip-path="url(#id_0)" d="M512.0 337.0L475.0 337.0L475.0 337.0L512.0 337.0Z" fill-rule="nonzero"/><path fill="#f9cb9c" clip-path="url(#id_0)" d="M512.0 337.0L475.0 337.0L475.0 337.0L512.0 337.0Z" fill-rule="nonzero"/><path stroke="#000000" stroke-width="2.0" stroke-linecap="butt" stroke-opacity="0.0" clip-path="url(#id_0)" d="M192.0 337.0L155.0 337.0L155.0 290.0C155.0 288.89542 155.89543 288.0 157.0 288.0L190.0 288.0C191.10457 288.0 192.0 288.89542 192.0 290.0Z" fill-rule="nonzero"/><path fill="#a4c2f4" clip-path="url(#id_0)" d="M192.0 337.0L155.0 337.0L155.0 290.0C155.0 288.89542 155.89543 288.0 157.0 288.0L190.0 288.0C191.10457 288.0 192.0 288.89542 192.0 290.0Z" fill-rule="nonzero"/><path stroke="#000000" stroke-width="2.0" stroke-linecap="butt" stroke-opacity="0.0" clip-path="url(#id_0)" d="M312.0 337.0L275.0 337.0L275.0 253.0C275.0 251.89543 275.89542 251.0 277.0 251.0L310.0 251.0C311.10458 251.0 312.0 251.89543 312.0 253.0Z" fill-rule="nonzero"/><path fill="#a4c2f4" clip-path="url(#id_0)" d="M312.0 337.0L275.0 337.0L275.0 253.0C275.0 251.89543 275.89542 251.0 277.0 251.0L310.0 251.0C311.10458 251.0 312.0 251.89543 312.0 253.0Z" fill-rule="nonzero"/><path stroke="#000000" stroke-width="2.0" stroke-linecap="butt" stroke-opacity="0.0" clip-path="url(#id_0)" d="M431.0 337.0L394.0 337.0L394.0 241.0C394.0 239.89543 394.89542 239.0 396.0 239.0L429.0 239.0C430.10458 239.0 431.0 239.89543 431.0 241.0Z" fill-rule="nonzero"/><path fill="#a4c2f4" clip-path="url(#id_0)" d="M431.0 337.0L394.0 337.0L394.0 241.0C394.0 239.89543 394.89542 239.0 396.0 239.0L429.0 239.0C430.10458 239.0 431.0 239.89543 431.0 241.0Z" fill-rule="nonzero"/><path stroke="#000000" stroke-width="2.0" stroke-linecap="butt" stroke-opacity="0.0" clip-path="url(#id_0)" d="M551.0 337.0L514.0 337.0L514.0 337.0L551.0 337.0Z" fill-rule="nonzero"/><path fill="#a4c2f4" clip-path="url(#id_0)" d="M551.0 337.0L514.0 337.0L514.0 337.0L551.0 337.0Z" fill-rule="nonzero"/><path fill="#000000" d="M33.3 336.96564Q33.3 335.4344 33.6125 334.5125Q33.925 333.575 34.534374 333.075Q35.159374 332.575 36.096874 332.575Q36.784374 332.575 37.3 332.85626Q37.83125 333.1375 38.175 333.66876Q38.51875 334.1844 38.70625 334.9344Q38.89375 335.6844 38.89375 336.96564Q38.89375 338.48126 38.58125 339.40314Q38.284374 340.325 37.659374 340.84064Q37.05 341.34064 36.096874 341.34064Q34.8625 341.34064 34.14375 340.45Q33.3 339.3875 33.3 336.96564ZM34.378124 336.96564Q34.378124 339.075 34.878124 339.77814Q35.378124 340.48126 36.096874 340.48126Q36.83125 340.48126 37.315624 339.77814Q37.815624 339.075 37.815624 336.96564Q37.815624 334.84064 37.315624 334.15314Q36.83125 333.45 36.08125 333.45Q35.3625 333.45 34.925 334.0594Q34.378124 334.84064 34.378124 336.96564ZM40.89375 341.2L40.89375 339.9969L42.096874 339.9969L42.096874 341.2L40.89375 341.2ZM43.3 336.96564Q43.3 335.4344 43.6125 334.5125Q43.925 333.575 44.534374 333.075Q45.159374 332.575 46.096874 332.575Q46.784374 332.575 47.3 332.85626Q47.83125 333.1375 48.175 333.66876Q48.51875 334.1844 48.70625 334.9344Q48.89375 335.6844 48.89375 336.96564Q48.89375 338.48126 48.58125 339.40314Q48.284374 340.325 47.659374 340.84064Q47.05 341.34064 46.096874 341.34064Q44.8625 341.34064 44.14375 340.45Q43.3 339.3875 43.3 336.96564ZM44.378124 336.96564Q44.378124 339.075 44.878124 339.77814Q45.378124 340.48126 46.096874 340.48126Q46.83125 340.48126 47.315624 339.77814Q47.815624 339.075 47.815624 336.96564Q47.815624 334.84064 47.315624 334.15314Q46.83125 333.45 46.08125 333.45Q45.3625 333.45 44.925 334.0594Q44.378124 334.84064 44.378124 336.96564ZM50.3 336.96564Q50.3 335.4344 50.6125 334.5125Q50.925 333.575 51.534374 333.075Q52.159374 332.575 53.096874 332.575Q53.784374 332.575 54.3 332.85626Q54.83125 333.1375 55.175 333.66876Q55.51875 334.1844 55.70625 334.9344Q55.89375 335.6844 55.89375 336.96564Q55.89375 338.48126 55.58125 339.40314Q55.284374 340.325 54.659374 340.84064Q54.05 341.34064 53.096874 341.34064Q51.8625 341.34064 51.14375 340.45Q50.3 339.3875 50.3 336.96564ZM51.378124 336.96564Q51.378124 339.075 51.878124 339.77814Q52.378124 340.48126 53.096874 340.48126Q53.83125 340.48126 54.315624 339.77814Q54.815624 339.075 54.815624 336.96564Q54.815624 334.84064 54.315624 334.15314Q53.83125 333.45 53.08125 333.45Q52.3625 333.45 51.925 334.0594Q51.378124 334.84064 51.378124 336.96564ZM57.503124 334.66876Q57.503124 333.7469 57.95625 333.10626Q58.425 332.46564 59.3 332.46564Q60.1125 332.46564 60.64375 333.04376Q61.175 333.6219 61.175 334.73126Q61.175 335.825 60.628124 336.41876Q60.096874 336.9969 59.315624 336.9969Q58.534374 336.9969 58.01875 336.41876Q57.503124 335.84064 57.503124 334.66876ZM59.33125 333.1844Q58.940624 333.1844 58.675 333.52814Q58.425 333.8719 58.425 334.77814Q58.425 335.60626 58.675 335.95Q58.940624 336.27814 59.33125 336.27814Q59.7375 336.27814 59.9875 335.9344Q60.253124 335.59064 60.253124 334.7Q60.253124 333.85626 59.9875 333.52814Q59.721874 333.1844 59.33125 333.1844ZM59.33125 341.5125L64.03438 332.46564L64.89375 332.46564L60.20625 341.5125L59.33125 341.5125ZM63.05 339.1844Q63.05 338.2625 63.503124 337.6219Q63.971874 336.98126 64.8625 336.98126Q65.675 336.98126 66.20625 337.5594Q66.7375 338.1219 66.7375 339.2469Q66.7375 340.34064 66.19063 340.9344Q65.65938 341.5125 64.8625 341.5125Q64.09688 341.5125 63.565624 340.9344Q63.05 340.35626 63.05 339.1844ZM64.89375 337.7Q64.4875 337.7 64.22188 338.04376Q63.971874 338.3875 63.971874 339.29376Q63.971874 340.10626 64.2375 340.45Q64.50313 340.79376 64.89375 340.79376Q65.28438 340.79376 65.55 340.45Q65.81563 340.10626 65.81563 339.2Q65.81563 338.3719 65.55 338.04376Q65.28438 337.7 64.89375 337.7Z" fill-rule="nonzero"/><path fill="#000000" d="M31.846874 281.60104L31.846874 282.61667L26.159374 282.61667Q26.159374 282.24167 26.284374 281.8823Q26.503124 281.30417 26.971874 280.74167Q27.45625 280.17917 28.3625 279.4448Q29.76875 278.28854 30.253124 277.61667Q30.753124 276.9448 30.753124 276.35104Q30.753124 275.72604 30.3 275.30417Q29.846874 274.86667 29.128124 274.86667Q28.3625 274.86667 27.909374 275.3198Q27.45625 275.77292 27.440624 276.58542L26.3625 276.47604Q26.471874 275.2573 27.190624 274.6323Q27.925 273.99167 29.159374 273.99167Q30.39375 273.99167 31.1125 274.67917Q31.83125 275.36667 31.83125 276.3823Q31.83125 276.89792 31.6125 277.39792Q31.409374 277.8823 30.909374 278.4448Q30.425 278.99167 29.3 279.9448Q28.346874 280.74167 28.065624 281.03854Q27.8 281.3198 27.628124 281.60104L31.846874 281.60104ZM33.3 280.36667L34.409374 280.27292Q34.534374 281.08542 34.971874 281.49167Q35.425 281.89792 36.065624 281.89792Q36.815624 281.89792 37.346874 281.3198Q37.878124 280.74167 37.878124 279.80417Q37.878124 278.89792 37.3625 278.3823Q36.8625 277.85104 36.034374 277.85104Q35.534374 277.85104 35.1125 278.08542Q34.70625 278.3198 34.471874 278.67917L33.4875 278.55417L34.315624 274.14792L38.596874 274.14792L38.596874 275.14792L35.159374 275.14792L34.70625 277.46042Q35.471874 276.91354 36.315624 276.91354Q37.440624 276.91354 38.20625 277.6948Q38.9875 278.47604 38.9875 279.71042Q38.9875 280.86667 38.315624 281.72604Q37.4875 282.7573 36.065624 282.7573Q34.89375 282.7573 34.14375 282.10104Q33.409374 281.4448 33.3 280.36667ZM40.89375 282.61667L40.89375 281.41354L42.096874 281.41354L42.096874 282.61667L40.89375 282.61667ZM43.3 278.3823Q43.3 276.85104 43.6125 275.92917Q43.925 274.99167 44.534374 274.49167Q45.159374 273.99167 46.096874 273.99167Q46.784374 273.99167 47.3 274.27292Q47.83125 274.55417 48.175 275.08542Q48.51875 275.60104 48.70625 276.35104Q48.89375 277.10104 48.89375 278.3823Q48.89375 279.89792 48.58125 280.8198Q48.284374 281.74167 47.659374 282.2573Q47.05 282.7573 46.096874 282.7573Q44.8625 282.7573 44.14375 281.86667Q43.3 280.80417 43.3 278.3823ZM44.378124 278.3823Q44.378124 280.49167 44.878124 281.1948Q45.378124 281.89792 46.096874 281.89792Q46.83125 281.89792 47.315624 281.1948Q47.815624 280.49167 47.815624 278.3823Q47.815624 276.2573 47.315624 275.5698Q46.83125 274.86667 46.08125 274.86667Q45.3625 274.86667 44.925 275.47604Q44.378124 276.2573 44.378124 278.3823ZM50.3 278.3823Q50.3 276.85104 50.6125 275.92917Q50.925 274.99167 51.534374 274.49167Q52.159374 273.99167 53.096874 273.99167Q53.784374 273.99167 54.3 274.27292Q54.83125 274.55417 55.175 275.08542Q55.51875 275.60104 55.70625 276.35104Q55.89375 277.10104 55.89375 278.3823Q55.89375 279.89792 55.58125 280.8198Q55.284374 281.74167 54.659374 282.2573Q54.05 282.7573 53.096874 282.7573Q51.8625 282.7573 51.14375 281.86667Q50.3 280.80417 50.3 278.3823ZM51.378124 278.3823Q51.378124 280.49167 51.878124 281.1948Q52.378124 281.89792 53.096874 281.89792Q53.83125 281.89792 54.315624 281.1948Q54.815624 280.49167 54.815624 278.3823Q54.815624 276.2573 54.315624 275.5698Q53.83125 274.86667 53.08125 274.86667Q52.3625 274.86667 51.925 275.47604Q51.378124 276.2573 51.378124 278.3823ZM57.503124 276.08542Q57.503124 275.16354 57.95625 274.52292Q58.425 273.8823 59.3 273.8823Q60.1125 273.8823 60.64375 274.46042Q61.175 275.03854 61.175 276.14792Q61.175 277.24167 60.628124 277.83542Q60.096874 278.41354 59.315624 278.41354Q58.534374 278.41354 58.01875 277.83542Q57.503124 277.2573 57.503124 276.08542ZM59.33125 274.60104Q58.940624 274.60104 58.675 274.9448Q58.425 275.28854 58.425 276.1948Q58.425 277.02292 58.675 277.36667Q58.940624 277.6948 59.33125 277.6948Q59.7375 277.6948 59.9875 277.35104Q60.253124 277.0073 60.253124 276.11667Q60.253124 275.27292 59.9875 274.9448Q59.721874 274.60104 59.33125 274.60104ZM59.33125 282.92917L64.03438 273.8823L64.89375 273.8823L60.20625 282.92917L59.33125 282.92917ZM63.05 280.60104Q63.05 279.67917 63.503124 279.03854Q63.971874 278.39792 64.8625 278.39792Q65.675 278.39792 66.20625 278.97604Q66.7375 279.53854 66.7375 280.66354Q66.7375 281.7573 66.19063 282.35104Q65.65938 282.92917 64.8625 282.92917Q64.09688 282.92917 63.565624 282.35104Q63.05 281.77292 63.05 280.60104ZM64.89375 279.11667Q64.4875 279.11667 64.22188 279.46042Q63.971874 279.80417 63.971874 280.71042Q63.971874 281.52292 64.2375 281.86667Q64.50313 282.21042 64.89375 282.21042Q65.28438 282.21042 65.55 281.86667Q65.81563 281.52292 65.81563 280.61667Q65.81563 279.78854 65.55 279.46042Q65.28438 279.11667 64.89375 279.11667Z" fill-rule="nonzero"/><path fill="#000000" d="M26.3 221.78334L27.409374 221.68959Q27.534374 222.50209 27.971874 222.90834Q28.425 223.31459 29.065624 223.31459Q29.815624 223.31459 30.346874 222.73647Q30.878124 222.15834 30.878124 221.22084Q30.878124 220.31459 30.3625 219.79897Q29.8625 219.26772 29.034374 219.26772Q28.534374 219.26772 28.1125 219.50209Q27.70625 219.73647 27.471874 220.09584L26.4875 219.97084L27.315624 215.56459L31.596874 215.56459L31.596874 216.56459L28.159374 216.56459L27.70625 218.87709Q28.471874 218.33022 29.315624 218.33022Q30.440624 218.33022 31.20625 219.11147Q31.9875 219.89272 31.9875 221.12709Q31.9875 222.28334 31.315624 223.14272Q30.4875 224.17397 29.065624 224.17397Q27.89375 224.17397 27.14375 223.51772Q26.409374 222.86147 26.3 221.78334ZM33.3 219.79897Q33.3 218.26772 33.6125 217.34584Q33.925 216.40834 34.534374 215.90834Q35.159374 215.40834 36.096874 215.40834Q36.784374 215.40834 37.3 215.68959Q37.83125 215.97084 38.175 216.50209Q38.51875 217.01772 38.70625 217.76772Q38.89375 218.51772 38.89375 219.79897Q38.89375 221.31459 38.58125 222.23647Q38.284374 223.15834 37.659374 223.67397Q37.05 224.17397 36.096874 224.17397Q34.8625 224.17397 34.14375 223.28334Q33.3 222.22084 33.3 219.79897ZM34.378124 219.79897Q34.378124 221.90834 34.878124 222.61147Q35.378124 223.31459 36.096874 223.31459Q36.83125 223.31459 37.315624 222.61147Q37.815624 221.90834 37.815624 219.79897Q37.815624 217.67397 37.315624 216.98647Q36.83125 216.28334 36.08125 216.28334Q35.3625 216.28334 34.925 216.89272Q34.378124 217.67397 34.378124 219.79897ZM40.89375 224.03334L40.89375 222.83022L42.096874 222.83022L42.096874 224.03334L40.89375 224.03334ZM43.3 219.79897Q43.3 218.26772 43.6125 217.34584Q43.925 216.40834 44.534374 215.90834Q45.159374 215.40834 46.096874 215.40834Q46.784374 215.40834 47.3 215.68959Q47.83125 215.97084 48.175 216.50209Q48.51875 217.01772 48.70625 217.76772Q48.89375 218.51772 48.89375 219.79897Q48.89375 221.31459 48.58125 222.23647Q48.284374 223.15834 47.659374 223.67397Q47.05 224.17397 46.096874 224.17397Q44.8625 224.17397 44.14375 223.28334Q43.3 222.22084 43.3 219.79897ZM44.378124 219.79897Q44.378124 221.90834 44.878124 222.61147Q45.378124 223.31459 46.096874 223.31459Q46.83125 223.31459 47.315624 222.61147Q47.815624 221.90834 47.815624 219.79897Q47.815624 217.67397 47.315624 216.98647Q46.83125 216.28334 46.08125 216.28334Q45.3625 216.28334 44.925 216.89272Q44.378124 217.67397 44.378124 219.79897ZM50.3 219.79897Q50.3 218.26772 50.6125 217.34584Q50.925 216.40834 51.534374 215.90834Q52.159374 215.40834 53.096874 215.40834Q53.784374 215.40834 54.3 215.68959Q54.83125 215.97084 55.175 216.50209Q55.51875 217.01772 55.70625 217.76772Q55.89375 218.51772 55.89375 219.79897Q55.89375 221.31459 55.58125 222.23647Q55.284374 223.15834 54.659374 223.67397Q54.05 224.17397 53.096874 224.17397Q51.8625 224.17397 51.14375 223.28334Q50.3 222.22084 50.3 219.79897ZM51.378124 219.79897Q51.378124 221.90834 51.878124 222.61147Q52.378124 223.31459 53.096874 223.31459Q53.83125 223.31459 54.315624 222.61147Q54.815624 221.90834 54.815624 219.79897Q54.815624 217.67397 54.315624 216.98647Q53.83125 216.28334 53.08125 216.28334Q52.3625 216.28334 51.925 216.89272Q51.378124 217.67397 51.378124 219.79897ZM57.503124 217.50209Q57.503124 216.58022 57.95625 215.93959Q58.425 215.29897 59.3 215.29897Q60.1125 215.29897 60.64375 215.87709Q61.175 216.45522 61.175 217.56459Q61.175 218.65834 60.628124 219.25209Q60.096874 219.83022 59.315624 219.83022Q58.534374 219.83022 58.01875 219.25209Q57.503124 218.67397 57.503124 217.50209ZM59.33125 216.01772Q58.940624 216.01772 58.675 216.36147Q58.425 216.70522 58.425 217.61147Q58.425 218.43959 58.675 218.78334Q58.940624 219.11147 59.33125 219.11147Q59.7375 219.11147 59.9875 218.76772Q60.253124 218.42397 60.253124 217.53334Q60.253124 216.68959 59.9875 216.36147Q59.721874 216.01772 59.33125 216.01772ZM59.33125 224.34584L64.03438 215.29897L64.89375 215.29897L60.20625 224.34584L59.33125 224.34584ZM63.05 222.01772Q63.05 221.09584 63.503124 220.45522Q63.971874 219.81459 64.8625 219.81459Q65.675 219.81459 66.20625 220.39272Q66.7375 220.95522 66.7375 222.08022Q66.7375 223.17397 66.19063 223.76772Q65.65938 224.34584 64.8625 224.34584Q64.09688 224.34584 63.565624 223.76772Q63.05 223.18959 63.05 222.01772ZM64.89375 220.53334Q64.4875 220.53334 64.22188 220.87709Q63.971874 221.22084 63.971874 222.12709Q63.971874 222.93959 64.2375 223.28334Q64.50313 223.62709 64.89375 223.62709Q65.28438 223.62709 65.55 223.28334Q65.81563 222.93959 65.81563 222.03334Q65.81563 221.20522 65.55 220.87709Q65.28438 220.53334 64.89375 220.53334Z" fill-rule="nonzero"/><path fill="#000000" d="M26.3625 157.98125L26.3625 156.96562L31.925 156.96562L31.925 157.79375Q31.1125 158.66875 30.3 160.12187Q29.503124 161.55937 29.065624 163.09062Q28.7375 164.16875 28.659374 165.45L27.565624 165.45Q27.58125 164.43437 27.95625 162.99687Q28.346874 161.55937 29.05 160.23125Q29.76875 158.90312 30.58125 157.98125L26.3625 157.98125ZM33.3 163.2L34.409374 163.10625Q34.534374 163.91875 34.971874 164.325Q35.425 164.73125 36.065624 164.73125Q36.815624 164.73125 37.346874 164.15312Q37.878124 163.575 37.878124 162.6375Q37.878124 161.73125 37.3625 161.21562Q36.8625 160.68437 36.034374 160.68437Q35.534374 160.68437 35.1125 160.91875Q34.70625 161.15312 34.471874 161.5125L33.4875 161.3875L34.315624 156.98125L38.596874 156.98125L38.596874 157.98125L35.159374 157.98125L34.70625 160.29375Q35.471874 159.74687 36.315624 159.74687Q37.440624 159.74687 38.20625 160.52812Q38.9875 161.30937 38.9875 162.54375Q38.9875 163.7 38.315624 164.55937Q37.4875 165.59062 36.065624 165.59062Q34.89375 165.59062 34.14375 164.93437Q33.409374 164.27812 33.3 163.2ZM40.89375 165.45L40.89375 164.24687L42.096874 164.24687L42.096874 165.45L40.89375 165.45ZM43.3 161.21562Q43.3 159.68437 43.6125 158.7625Q43.925 157.825 44.534374 157.325Q45.159374 156.825 46.096874 156.825Q46.784374 156.825 47.3 157.10625Q47.83125 157.3875 48.175 157.91875Q48.51875 158.43437 48.70625 159.18437Q48.89375 159.93437 48.89375 161.21562Q48.89375 162.73125 48.58125 163.65312Q48.284374 164.575 47.659374 165.09062Q47.05 165.59062 46.096874 165.59062Q44.8625 165.59062 44.14375 164.7Q43.3 163.6375 43.3 161.21562ZM44.378124 161.21562Q44.378124 163.325 44.878124 164.02812Q45.378124 164.73125 46.096874 164.73125Q46.83125 164.73125 47.315624 164.02812Q47.815624 163.325 47.815624 161.21562Q47.815624 159.09062 47.315624 158.40312Q46.83125 157.7 46.08125 157.7Q45.3625 157.7 44.925 158.30937Q44.378124 159.09062 44.378124 161.21562ZM50.3 161.21562Q50.3 159.68437 50.6125 158.7625Q50.925 157.825 51.534374 157.325Q52.159374 156.825 53.096874 156.825Q53.784374 156.825 54.3 157.10625Q54.83125 157.3875 55.175 157.91875Q55.51875 158.43437 55.70625 159.18437Q55.89375 159.93437 55.89375 161.21562Q55.89375 162.73125 55.58125 163.65312Q55.284374 164.575 54.659374 165.09062Q54.05 165.59062 53.096874 165.59062Q51.8625 165.59062 51.14375 164.7Q50.3 163.6375 50.3 161.21562ZM51.378124 161.21562Q51.378124 163.325 51.878124 164.02812Q52.378124 164.73125 53.096874 164.73125Q53.83125 164.73125 54.315624 164.02812Q54.815624 163.325 54.815624 161.21562Q54.815624 159.09062 54.315624 158.40312Q53.83125 157.7 53.08125 157.7Q52.3625 157.7 51.925 158.30937Q51.378124 159.09062 51.378124 161.21562ZM57.503124 158.91875Q57.503124 157.99687 57.95625 157.35625Q58.425 156.71562 59.3 156.71562Q60.1125 156.71562 60.64375 157.29375Q61.175 157.87187 61.175 158.98125Q61.175 160.075 60.628124 160.66875Q60.096874 161.24687 59.315624 161.24687Q58.534374 161.24687 58.01875 160.66875Q57.503124 160.09062 57.503124 158.91875ZM59.33125 157.43437Q58.940624 157.43437 58.675 157.77812Q58.425 158.12187 58.425 159.02812Q58.425 159.85625 58.675 160.2Q58.940624 160.52812 59.33125 160.52812Q59.7375 160.52812 59.9875 160.18437Q60.253124 159.84062 60.253124 158.95Q60.253124 158.10625 59.9875 157.77812Q59.721874 157.43437 59.33125 157.43437ZM59.33125 165.7625L64.03438 156.71562L64.89375 156.71562L60.20625 165.7625L59.33125 165.7625ZM63.05 163.43437Q63.05 162.5125 63.503124 161.87187Q63.971874 161.23125 64.8625 161.23125Q65.675 161.23125 66.20625 161.80937Q66.7375 162.37187 66.7375 163.49687Q66.7375 164.59062 66.19063 165.18437Q65.65938 165.7625 64.8625 165.7625Q64.09688 165.7625 63.565624 165.18437Q63.05 164.60625 63.05 163.43437ZM64.89375 161.95Q64.4875 161.95 64.22188 162.29375Q63.971874 162.6375 63.971874 163.54375Q63.971874 164.35625 64.2375 164.7Q64.50313 165.04375 64.89375 165.04375Q65.28438 165.04375 65.55 164.7Q65.81563 164.35625 65.81563 163.45Q65.81563 162.62187 65.55 162.29375Q65.28438 161.95 64.89375 161.95Z" fill-rule="nonzero"/><path fill="#000000" d="M23.26875 106.86667L22.221874 106.86667L22.221874 100.14792Q21.83125 100.50729 21.20625 100.88229Q20.596874 101.24167 20.1125 101.41354L20.1125 100.39792Q20.9875 99.97604 21.64375 99.39792Q22.315624 98.80417 22.596874 98.24167L23.26875 98.24167L23.26875 106.86667ZM26.3 102.63229Q26.3 101.10104 26.6125 100.17917Q26.925 99.24167 27.534374 98.74167Q28.159374 98.24167 29.096874 98.24167Q29.784374 98.24167 30.3 98.52292Q30.83125 98.80417 31.175 99.33542Q31.51875 99.85104 31.70625 100.60104Q31.89375 101.35104 31.89375 102.63229Q31.89375 104.14792 31.58125 105.06979Q31.284374 105.99167 30.659374 106.50729Q30.05 107.00729 29.096874 107.00729Q27.8625 107.00729 27.14375 106.11667Q26.3 105.05417 26.3 102.63229ZM27.378124 102.63229Q27.378124 104.74167 27.878124 105.44479Q28.378124 106.14792 29.096874 106.14792Q29.83125 106.14792 30.315624 105.44479Q30.815624 104.74167 30.815624 102.63229Q30.815624 100.50729 30.315624 99.81979Q29.83125 99.11667 29.08125 99.11667Q28.3625 99.11667 27.925 99.72604Q27.378124 100.50729 27.378124 102.63229ZM33.3 102.63229Q33.3 101.10104 33.6125 100.17917Q33.925 99.24167 34.534374 98.74167Q35.159374 98.24167 36.096874 98.24167Q36.784374 98.24167 37.3 98.52292Q37.83125 98.80417 38.175 99.33542Q38.51875 99.85104 38.70625 100.60104Q38.89375 101.35104 38.89375 102.63229Q38.89375 104.14792 38.58125 105.06979Q38.284374 105.99167 37.659374 106.50729Q37.05 107.00729 36.096874 107.00729Q34.8625 107.00729 34.14375 106.11667Q33.3 105.05417 33.3 102.63229ZM34.378124 102.63229Q34.378124 104.74167 34.878124 105.44479Q35.378124 106.14792 36.096874 106.14792Q36.83125 106.14792 37.315624 105.44479Q37.815624 104.74167 37.815624 102.63229Q37.815624 100.50729 37.315624 99.81979Q36.83125 99.11667 36.08125 99.11667Q35.3625 99.11667 34.925 99.72604Q34.378124 100.50729 34.378124 102.63229ZM40.89375 106.86667L40.89375 105.66354L42.096874 105.66354L42.096874 106.86667L40.89375 106.86667ZM43.3 102.63229Q43.3 101.10104 43.6125 100.17917Q43.925 99.24167 44.534374 98.74167Q45.159374 98.24167 46.096874 98.24167Q46.784374 98.24167 47.3 98.52292Q47.83125 98.80417 48.175 99.33542Q48.51875 99.85104 48.70625 100.60104Q48.89375 101.35104 48.89375 102.63229Q48.89375 104.14792 48.58125 105.06979Q48.284374 105.99167 47.659374 106.50729Q47.05 107.00729 46.096874 107.00729Q44.8625 107.00729 44.14375 106.11667Q43.3 105.05417 43.3 102.63229ZM44.378124 102.63229Q44.378124 104.74167 44.878124 105.44479Q45.378124 106.14792 46.096874 106.14792Q46.83125 106.14792 47.315624 105.44479Q47.815624 104.74167 47.815624 102.63229Q47.815624 100.50729 47.315624 99.81979Q46.83125 99.11667 46.08125 99.11667Q45.3625 99.11667 44.925 99.72604Q44.378124 100.50729 44.378124 102.63229ZM50.3 102.63229Q50.3 101.10104 50.6125 100.17917Q50.925 99.24167 51.534374 98.74167Q52.159374 98.24167 53.096874 98.24167Q53.784374 98.24167 54.3 98.52292Q54.83125 98.80417 55.175 99.33542Q55.51875 99.85104 55.70625 100.60104Q55.89375 101.35104 55.89375 102.63229Q55.89375 104.14792 55.58125 105.06979Q55.284374 105.99167 54.659374 106.50729Q54.05 107.00729 53.096874 107.00729Q51.8625 107.00729 51.14375 106.11667Q50.3 105.05417 50.3 102.63229ZM51.378124 102.63229Q51.378124 104.74167 51.878124 105.44479Q52.378124 106.14792 53.096874 106.14792Q53.83125 106.14792 54.315624 105.44479Q54.815624 104.74167 54.815624 102.63229Q54.815624 100.50729 54.315624 99.81979Q53.83125 99.11667 53.08125 99.11667Q52.3625 99.11667 51.925 99.72604Q51.378124 100.50729 51.378124 102.63229ZM57.503124 100.33542Q57.503124 99.41354 57.95625 98.77292Q58.425 98.13229 59.3 98.13229Q60.1125 98.13229 60.64375 98.71042Q61.175 99.28854 61.175 100.39792Q61.175 101.49167 60.628124 102.08542Q60.096874 102.66354 59.315624 102.66354Q58.534374 102.66354 58.01875 102.08542Q57.503124 101.50729 57.503124 100.33542ZM59.33125 98.85104Q58.940624 98.85104 58.675 99.19479Q58.425 99.53854 58.425 100.44479Q58.425 101.27292 58.675 101.61667Q58.940624 101.94479 59.33125 101.94479Q59.7375 101.94479 59.9875 101.60104Q60.253124 101.25729 60.253124 100.36667Q60.253124 99.52292 59.9875 99.19479Q59.721874 98.85104 59.33125 98.85104ZM59.33125 107.17917L64.03438 98.13229L64.89375 98.13229L60.20625 107.17917L59.33125 107.17917ZM63.05 104.85104Q63.05 103.92917 63.503124 103.28854Q63.971874 102.64792 64.8625 102.64792Q65.675 102.64792 66.20625 103.22604Q66.7375 103.78854 66.7375 104.91354Q66.7375 106.00729 66.19063 106.60104Q65.65938 107.17917 64.8625 107.17917Q64.09688 107.17917 63.565624 106.60104Q63.05 106.02292 63.05 104.85104ZM64.89375 103.36667Q64.4875 103.36667 64.22188 103.71042Q63.971874 104.05417 63.971874 104.96042Q63.971874 105.77292 64.2375 106.11667Q64.50313 106.46042 64.89375 106.46042Q65.28438 106.46042 65.55 106.11667Q65.81563 105.77292 65.81563 104.86667Q65.81563 104.03854 65.55 103.71042Q65.28438 103.36667 64.89375 103.36667Z" fill-rule="nonzero"/><path fill="#000000" d="M114.77155 354.2L114.77155 345.60626L115.91218 345.60626L115.91218 353.1844L120.14655 353.1844L120.14655 354.2L114.77155 354.2ZM125.94343 352.2L127.03718 352.325Q126.78718 353.27814 126.08405 353.8094Q125.38093 354.34064 124.3028 354.34064Q122.94343 354.34064 122.13093 353.4969Q121.33405 352.65314 121.33405 351.1375Q121.33405 349.575 122.14655 348.71564Q122.95905 347.84064 124.2403 347.84064Q125.4903 347.84064 126.27155 348.6844Q127.06843 349.52814 127.06843 351.075Q127.06843 351.16876 127.06843 351.35626L122.4278 351.35626Q122.4903 352.3875 123.00593 352.9344Q123.52155 353.46564 124.3028 353.46564Q124.88093 353.46564 125.28718 353.16876Q125.70905 352.85626 125.94343 352.2ZM122.4903 350.4969L125.95905 350.4969Q125.89655 349.7 125.56843 349.3094Q125.0528 348.7 124.25593 348.7Q123.52155 348.7 123.02155 349.1844Q122.53718 349.66876 122.4903 350.4969ZM128.27155 352.34064L129.3028 352.1844Q129.39655 352.8094 129.78717 353.1375Q130.19342 353.46564 130.9278 353.46564Q131.64655 353.46564 131.9903 353.1844Q132.34967 352.8875 132.34967 352.48126Q132.34967 352.1219 132.03717 351.91876Q131.81842 351.77814 130.95905 351.5594Q129.8028 351.2625 129.34967 351.0594Q128.91217 350.84064 128.6778 350.46564Q128.44342 350.09064 128.44342 349.6219Q128.44342 349.21564 128.63092 348.85626Q128.81842 348.4969 129.14655 348.2625Q129.39655 348.09064 129.81842 347.96564Q130.2403 347.84064 130.7403 347.84064Q131.45905 347.84064 132.00592 348.0594Q132.56842 348.2625 132.83405 348.6219Q133.09967 348.98126 133.19342 349.575L132.16217 349.71564Q132.09967 349.2469 131.75592 348.98126Q131.4278 348.7 130.8028 348.7Q130.08405 348.7 129.77155 348.95Q129.45905 349.1844 129.45905 349.5125Q129.45905 349.71564 129.58405 349.8719Q129.72467 350.04376 129.9903 350.15314Q130.14655 350.21564 130.9278 350.41876Q132.0528 350.73126 132.4903 350.91876Q132.9278 351.10626 133.1778 351.46564Q133.4278 351.825 133.4278 352.3719Q133.4278 352.90314 133.1153 353.3719Q132.81842 353.825 132.2403 354.09064Q131.66217 354.34064 130.9278 354.34064Q129.70905 354.34064 129.06842 353.84064Q128.44342 353.325 128.27155 352.34064ZM134.27155 352.34064L135.3028 352.1844Q135.39655 352.8094 135.78717 353.1375Q136.19342 353.46564 136.9278 353.46564Q137.64655 353.46564 137.9903 353.1844Q138.34967 352.8875 138.34967 352.48126Q138.34967 352.1219 138.03717 351.91876Q137.81842 351.77814 136.95905 351.5594Q135.8028 351.2625 135.34967 351.0594Q134.91217 350.84064 134.6778 350.46564Q134.44342 350.09064 134.44342 349.6219Q134.44342 349.21564 134.63092 348.85626Q134.81842 348.4969 135.14655 348.2625Q135.39655 348.09064 135.81842 347.96564Q136.2403 347.84064 136.7403 347.84064Q137.45905 347.84064 138.00592 348.0594Q138.56842 348.2625 138.83405 348.6219Q139.09967 348.98126 139.19342 349.575L138.16217 349.71564Q138.09967 349.2469 137.75592 348.98126Q137.4278 348.7 136.8028 348.7Q136.08405 348.7 135.77155 348.95Q135.45905 349.1844 135.45905 349.5125Q135.45905 349.71564 135.58405 349.8719Q135.72467 350.04376 135.9903 350.15314Q136.14655 350.21564 136.9278 350.41876Q138.0528 350.73126 138.4903 350.91876Q138.9278 351.10626 139.1778 351.46564Q139.4278 351.825 139.4278 352.3719Q139.4278 352.90314 139.1153 353.3719Q138.81842 353.825 138.2403 354.09064Q137.66217 354.34064 136.9278 354.34064Q135.70905 354.34064 135.06842 353.84064Q134.44342 353.325 134.27155 352.34064ZM145.9903 353.2625L146.14655 354.1844Q145.69342 354.27814 145.34967 354.27814Q144.77155 354.27814 144.45905 354.10626Q144.14655 353.91876 144.00592 353.6219Q143.88092 353.325 143.88092 352.3719L143.88092 348.79376L143.1153 348.79376L143.1153 347.98126L143.88092 347.98126L143.88092 346.4344L144.9278 345.8094L144.9278 347.98126L145.9903 347.98126L145.9903 348.79376L144.9278 348.79376L144.9278 352.4344Q144.9278 352.8875 144.97467 353.0125Q145.03717 353.1375 145.16217 353.21564Q145.28717 353.29376 145.52155 353.29376Q145.70905 353.29376 145.9903 353.2625ZM146.69342 354.2L146.69342 345.60626L147.7403 345.60626L147.7403 348.6844Q148.47467 347.84064 149.59967 347.84064Q150.3028 347.84064 150.8028 348.1219Q151.31842 348.3875 151.53717 348.8719Q151.75592 349.34064 151.75592 350.2625L151.75592 354.2L150.70905 354.2L150.70905 350.2625Q150.70905 349.46564 150.3653 349.10626Q150.02155 348.7469 149.39655 348.7469Q148.9278 348.7469 148.50592 348.9969Q148.09967 349.23126 147.91217 349.65314Q147.7403 350.0594 147.7403 350.79376L147.7403 354.2L146.69342 354.2ZM157.75592 353.4344Q157.16217 353.9344 156.6153 354.1375Q156.08405 354.34064 155.45905 354.34064Q154.4278 354.34064 153.88092 353.84064Q153.33405 353.34064 153.33405 352.5594Q153.33405 352.10626 153.53717 351.73126Q153.7403 351.34064 154.08405 351.1219Q154.4278 350.8875 154.84967 350.77814Q155.14655 350.6844 155.78717 350.60626Q157.0528 350.46564 157.66217 350.2469Q157.66217 350.02814 157.66217 349.98126Q157.66217 349.325 157.3653 349.0594Q156.95905 348.71564 156.16217 348.71564Q155.4278 348.71564 155.06842 348.98126Q154.70905 349.23126 154.53717 349.8875L153.50592 349.7469Q153.64655 349.09064 153.97467 348.6844Q154.3028 348.27814 154.91217 348.0594Q155.52155 347.84064 156.31842 347.84064Q157.1153 347.84064 157.6153 348.02814Q158.1153 348.21564 158.34967 348.4969Q158.58405 348.77814 158.6778 349.21564Q158.72467 349.48126 158.72467 350.1844L158.72467 351.59064Q158.72467 353.0594 158.78717 353.45Q158.8653 353.84064 159.06842 354.2L157.95905 354.2Q157.8028 353.8719 157.75592 353.4344ZM157.66217 351.075Q157.08405 351.3094 155.94342 351.48126Q155.28717 351.575 155.02155 351.7Q154.75592 351.8094 154.59967 352.02814Q154.45905 352.2469 154.45905 352.52814Q154.45905 352.95 154.77155 353.23126Q155.09967 353.5125 155.70905 353.5125Q156.31842 353.5125 156.78717 353.2469Q157.27155 352.98126 157.4903 352.5125Q157.66217 352.15314 157.66217 351.46564L157.66217 351.075ZM160.69342 354.2L160.69342 347.98126L161.63092 347.98126L161.63092 348.85626Q162.31842 347.84064 163.6153 347.84064Q164.1778 347.84064 164.64655 348.04376Q165.13092 348.2469 165.3653 348.575Q165.59967 348.90314 165.69342 349.34064Q165.7403 349.6375 165.7403 350.3719L165.7403 354.2L164.69342 354.2L164.69342 350.41876Q164.69342 349.7625 164.56842 349.45Q164.44342 349.1375 164.13092 348.95Q163.81842 348.7469 163.39655 348.7469Q162.72467 348.7469 162.22467 349.1844Q161.7403 349.60626 161.7403 350.79376L161.7403 354.2L160.69342 354.2ZM175.94342 353.1844L175.94342 354.2L170.25592 354.2Q170.25592 353.825 170.38092 353.46564Q170.59967 352.8875 171.06842 352.325Q171.5528 351.7625 172.45905 351.02814Q173.8653 349.8719 174.34967 349.2Q174.84967 348.52814 174.84967 347.9344Q174.84967 347.3094 174.39655 346.8875Q173.94342 346.45 173.22467 346.45Q172.45905 346.45 172.00592 346.90314Q171.5528 347.35626 171.53717 348.16876L170.45905 348.0594Q170.56842 346.84064 171.28717 346.21564Q172.02155 345.575 173.25592 345.575Q174.4903 345.575 175.20905 346.2625Q175.9278 346.95 175.9278 347.96564Q175.9278 348.48126 175.70905 348.98126Q175.50592 349.46564 175.00592 350.02814Q174.52155 350.575 173.39655 351.52814Q172.44342 352.325 172.16217 352.6219Q171.89655 352.90314 171.72467 353.1844L175.94342 353.1844ZM177.39655 351.95L178.50592 351.85626Q178.63092 352.66876 179.06842 353.075Q179.52155 353.48126 180.16217 353.48126Q180.91217 353.48126 181.44342 352.90314Q181.97467 352.325 181.97467 351.3875Q181.97467 350.48126 181.45905 349.96564Q180.95905 349.4344 180.13092 349.4344Q179.63092 349.4344 179.20905 349.66876Q178.8028 349.90314 178.56842 350.2625L177.58405 350.1375L178.41217 345.73126L182.69342 345.73126L182.69342 346.73126L179.25592 346.73126L178.8028 349.04376Q179.56842 348.4969 180.41217 348.4969Q181.53717 348.4969 182.3028 349.27814Q183.08405 350.0594 183.08405 351.29376Q183.08405 352.45 182.41217 353.3094Q181.58405 354.34064 180.16217 354.34064Q178.9903 354.34064 178.2403 353.6844Q177.50592 353.02814 177.39655 351.95ZM184.59967 347.66876Q184.59967 346.7469 185.0528 346.10626Q185.52155 345.46564 186.39655 345.46564Q187.20905 345.46564 187.7403 346.04376Q188.27155 346.6219 188.27155 347.73126Q188.27155 348.825 187.72467 349.41876Q187.19342 349.9969 186.41217 349.9969Q185.63092 349.9969 185.1153 349.41876Q184.59967 348.84064 184.59967 347.66876ZM186.4278 346.1844Q186.03717 346.1844 185.77155 346.52814Q185.52155 346.8719 185.52155 347.77814Q185.52155 348.60626 185.77155 348.95Q186.03717 349.27814 186.4278 349.27814Q186.83405 349.27814 187.08405 348.9344Q187.34967 348.59064 187.34967 347.7Q187.34967 346.85626 187.08405 346.52814Q186.81842 346.1844 186.4278 346.1844ZM186.4278 354.5125L191.13092 345.46564L191.9903 345.46564L187.3028 354.5125L186.4278 354.5125ZM190.14655 352.1844Q190.14655 351.2625 190.59967 350.6219Q191.06842 349.98126 191.95905 349.98126Q192.77155 349.98126 193.3028 350.5594Q193.83405 351.1219 193.83405 352.2469Q193.83405 353.34064 193.28717 353.9344Q192.75592 354.5125 191.95905 354.5125Q191.19342 354.5125 190.66217 353.9344Q190.14655 353.35626 190.14655 352.1844ZM191.9903 350.7Q191.58405 350.7 191.31842 351.04376Q191.06842 351.3875 191.06842 352.29376Q191.06842 353.10626 191.33405 353.45Q191.59967 353.79376 191.9903 353.79376Q192.38092 353.79376 192.64655 353.45Q192.91217 353.10626 192.91217 352.2Q192.91217 351.3719 192.64655 351.04376Q192.38092 350.7 191.9903 350.7Z" fill-rule="nonzero"/><path fill="#000000" d="M258.3457 353.1844L258.3457 354.2L252.65822 354.2Q252.65822 353.825 252.78322 353.46564Q253.00197 352.8875 253.47072 352.325Q253.9551 351.7625 254.86134 351.02814Q256.26758 349.8719 256.75195 349.2Q257.25195 348.52814 257.25195 347.9344Q257.25195 347.3094 256.79883 346.8875Q256.3457 346.45 255.62697 346.45Q254.86134 346.45 254.40822 346.90314Q253.9551 347.35626 253.93947 348.16876L252.86134 348.0594Q252.97072 346.84064 253.68947 346.21564Q254.42384 345.575 255.65822 345.575Q256.89258 345.575 257.61133 346.2625Q258.33008 346.95 258.33008 347.96564Q258.33008 348.48126 258.11133 348.98126Q257.9082 349.46564 257.4082 350.02814Q256.92383 350.575 255.79884 351.52814Q254.84572 352.325 254.56447 352.6219Q254.29884 352.90314 254.12697 353.1844L258.3457 353.1844ZM265.26758 347.71564L264.2207 347.79376Q264.08008 347.16876 263.83008 346.8875Q263.39258 346.4344 262.76758 346.4344Q262.26758 346.4344 261.87695 346.71564Q261.39258 347.09064 261.0957 347.79376Q260.81445 348.48126 260.79883 349.7625Q261.17383 349.1844 261.7207 348.90314Q262.2832 348.6219 262.89258 348.6219Q263.93945 348.6219 264.67383 349.40314Q265.42383 350.1844 265.42383 351.40314Q265.42383 352.21564 265.06445 352.91876Q264.7207 353.60626 264.11133 353.98126Q263.50195 354.34064 262.73633 354.34064Q261.4082 354.34064 260.58008 353.3719Q259.75195 352.40314 259.75195 350.1844Q259.75195 347.6844 260.67383 346.5594Q261.4707 345.575 262.83008 345.575Q263.8457 345.575 264.48633 346.15314Q265.14258 346.71564 265.26758 347.71564ZM260.9707 351.41876Q260.9707 351.96564 261.18945 352.46564Q261.42383 352.95 261.83008 353.21564Q262.25195 353.48126 262.7207 353.48126Q263.37695 353.48126 263.86133 352.95Q264.3457 352.40314 264.3457 351.48126Q264.3457 350.59064 263.86133 350.075Q263.39258 349.5594 262.67383 349.5594Q261.95508 349.5594 261.45508 350.075Q260.9707 350.59064 260.9707 351.41876ZM266.67383 351.6219L266.67383 350.5594L269.92383 350.5594L269.92383 351.6219L266.67383 351.6219ZM270.79883 351.95L271.9082 351.85626Q272.0332 352.66876 272.4707 353.075Q272.92383 353.48126 273.56445 353.48126Q274.31445 353.48126 274.8457 352.90314Q275.37695 352.325 275.37695 351.3875Q275.37695 350.48126 274.86133 349.96564Q274.36133 349.4344 273.5332 349.4344Q273.0332 349.4344 272.61133 349.66876Q272.20508 349.90314 271.9707 350.2625L270.98633 350.1375L271.81445 345.73126L276.0957 345.73126L276.0957 346.73126L272.6582 346.73126L272.20508 349.04376Q272.9707 348.4969 273.81445 348.4969Q274.93945 348.4969 275.70508 349.27814Q276.48633 350.0594 276.48633 351.29376Q276.48633 352.45 275.81445 353.3094Q274.98633 354.34064 273.56445 354.34064Q272.39258 354.34064 271.64258 353.6844Q270.9082 353.02814 270.79883 351.95ZM277.79883 349.96564Q277.79883 348.4344 278.11133 347.5125Q278.42383 346.575 279.0332 346.075Q279.6582 345.575 280.5957 345.575Q281.2832 345.575 281.79883 345.85626Q282.33008 346.1375 282.67383 346.66876Q283.01758 347.1844 283.20508 347.9344Q283.39258 348.6844 283.39258 349.96564Q283.39258 351.48126 283.08008 352.40314Q282.7832 353.325 282.1582 353.84064Q281.54883 354.34064 280.5957 354.34064Q279.36133 354.34064 278.64258 353.45Q277.79883 352.3875 277.79883 349.96564ZM278.87695 349.96564Q278.87695 352.075 279.37695 352.77814Q279.87695 353.48126 280.5957 353.48126Q281.33008 353.48126 281.81445 352.77814Q282.31445 352.075 282.31445 349.96564Q282.31445 347.84064 281.81445 347.15314Q281.33008 346.45 280.58008 346.45Q279.86133 346.45 279.42383 347.0594Q278.87695 347.84064 278.87695 349.96564ZM285.00195 347.66876Q285.00195 346.7469 285.45508 346.10626Q285.92383 345.46564 286.79883 345.46564Q287.61133 345.46564 288.14258 346.04376Q288.67383 346.6219 288.67383 347.73126Q288.67383 348.825 288.12695 349.41876Q287.5957 349.9969 286.81445 349.9969Q286.0332 349.9969 285.51758 349.41876Q285.00195 348.84064 285.00195 347.66876ZM286.83008 346.1844Q286.43945 346.1844 286.17383 346.52814Q285.92383 346.8719 285.92383 347.77814Q285.92383 348.60626 286.17383 348.95Q286.43945 349.27814 286.83008 349.27814Q287.23633 349.27814 287.48633 348.9344Q287.75195 348.59064 287.75195 347.7Q287.75195 346.85626 287.48633 346.52814Q287.2207 346.1844 286.83008 346.1844ZM286.83008 354.5125L291.5332 345.46564L292.39258 345.46564L287.70508 354.5125L286.83008 354.5125ZM290.54883 352.1844Q290.54883 351.2625 291.00195 350.6219Q291.4707 349.98126 292.36133 349.98126Q293.17383 349.98126 293.70508 350.5594Q294.23633 351.1219 294.23633 352.2469Q294.23633 353.34064 293.68945 353.9344Q293.1582 354.5125 292.36133 354.5125Q291.5957 354.5125 291.06445 353.9344Q290.54883 353.35626 290.54883 352.1844ZM292.39258 350.7Q291.98633 350.7 291.7207 351.04376Q291.4707 351.3875 291.4707 352.29376Q291.4707 353.10626 291.73633 353.45Q292.00195 353.79376 292.39258 353.79376Q292.7832 353.79376 293.04883 353.45Q293.31445 353.10626 293.31445 352.2Q293.31445 351.3719 293.04883 351.04376Q292.7832 350.7 292.39258 350.7Z" fill-rule="nonzero"/><path fill="#000000" d="M372.20114 351.95L373.31052 351.85626Q373.43552 352.66876 373.87302 353.075Q374.32614 353.48126 374.96677 353.48126Q375.71677 353.48126 376.24802 352.90314Q376.77927 352.325 376.77927 351.3875Q376.77927 350.48126 376.26364 349.96564Q375.76364 349.4344 374.93552 349.4344Q374.43552 349.4344 374.01364 349.66876Q373.6074 349.90314 373.37302 350.2625L372.38864 350.1375L373.21677 345.73126L377.49802 345.73126L377.49802 346.73126L374.06052 346.73126L373.6074 349.04376Q374.37302 348.4969 375.21677 348.4969Q376.34177 348.4969 377.1074 349.27814Q377.88864 350.0594 377.88864 351.29376Q377.88864 352.45 377.21677 353.3094Q376.38864 354.34064 374.96677 354.34064Q373.7949 354.34064 373.0449 353.6844Q372.31052 353.02814 372.20114 351.95ZM383.1699 354.2L382.12302 354.2L382.12302 347.48126Q381.7324 347.84064 381.1074 348.21564Q380.49802 348.575 380.01364 348.7469L380.01364 347.73126Q380.88864 347.3094 381.5449 346.73126Q382.21677 346.1375 382.49802 345.575L383.1699 345.575L383.1699 354.2ZM386.07614 351.6219L386.07614 350.5594L389.32614 350.5594L389.32614 351.6219L386.07614 351.6219ZM390.26364 346.73126L390.26364 345.71564L395.82614 345.71564L395.82614 346.54376Q395.01364 347.41876 394.20114 348.8719Q393.40427 350.3094 392.96677 351.84064Q392.63864 352.91876 392.56052 354.2L391.46677 354.2Q391.4824 353.1844 391.8574 351.7469Q392.24802 350.3094 392.95114 348.98126Q393.6699 347.65314 394.4824 346.73126L390.26364 346.73126ZM397.20114 351.95L398.31052 351.85626Q398.43552 352.66876 398.87302 353.075Q399.32614 353.48126 399.96677 353.48126Q400.71677 353.48126 401.24802 352.90314Q401.77927 352.325 401.77927 351.3875Q401.77927 350.48126 401.26364 349.96564Q400.76364 349.4344 399.93552 349.4344Q399.43552 349.4344 399.01364 349.66876Q398.6074 349.90314 398.37302 350.2625L397.38864 350.1375L398.21677 345.73126L402.49802 345.73126L402.49802 346.73126L399.06052 346.73126L398.6074 349.04376Q399.37302 348.4969 400.21677 348.4969Q401.34177 348.4969 402.1074 349.27814Q402.88864 350.0594 402.88864 351.29376Q402.88864 352.45 402.21677 353.3094Q401.38864 354.34064 399.96677 354.34064Q398.7949 354.34064 398.0449 353.6844Q397.31052 353.02814 397.20114 351.95ZM404.40427 347.66876Q404.40427 346.7469 404.8574 346.10626Q405.32614 345.46564 406.20114 345.46564Q407.01364 345.46564 407.5449 346.04376Q408.07614 346.6219 408.07614 347.73126Q408.07614 348.825 407.52927 349.41876Q406.99802 349.9969 406.21677 349.9969Q405.43552 349.9969 404.9199 349.41876Q404.40427 348.84064 404.40427 347.66876ZM406.2324 346.1844Q405.84177 346.1844 405.57614 346.52814Q405.32614 346.8719 405.32614 347.77814Q405.32614 348.60626 405.57614 348.95Q405.84177 349.27814 406.2324 349.27814Q406.63864 349.27814 406.88864 348.9344Q407.15427 348.59064 407.15427 347.7Q407.15427 346.85626 406.88864 346.52814Q406.62302 346.1844 406.2324 346.1844ZM406.2324 354.5125L410.93552 345.46564L411.7949 345.46564L407.1074 354.5125L406.2324 354.5125ZM409.95114 352.1844Q409.95114 351.2625 410.40427 350.6219Q410.87302 349.98126 411.76364 349.98126Q412.57614 349.98126 413.1074 350.5594Q413.63864 351.1219 413.63864 352.2469Q413.63864 353.34064 413.09177 353.9344Q412.56052 354.5125 411.76364 354.5125Q410.99802 354.5125 410.46677 353.9344Q409.95114 353.35626 409.95114 352.1844ZM411.7949 350.7Q411.38864 350.7 411.12302 351.04376Q410.87302 351.3875 410.87302 352.29376Q410.87302 353.10626 411.13864 353.45Q411.40427 353.79376 411.7949 353.79376Q412.18552 353.79376 412.45114 353.45Q412.71677 353.10626 412.71677 352.2Q412.71677 351.3719 412.45114 351.04376Q412.18552 350.7 411.7949 350.7Z" fill-rule="nonzero"/><path fill="#000000" d="M497.16595 346.73126L497.16595 345.71564L502.72845 345.71564L502.72845 346.54376Q501.91595 347.41876 501.10345 348.8719Q500.30658 350.3094 499.86908 351.84064Q499.54095 352.91876 499.46283 354.2L498.36908 354.2Q498.3847 353.1844 498.7597 351.7469Q499.15033 350.3094 499.85345 348.98126Q500.5722 347.65314 501.3847 346.73126L497.16595 346.73126ZM509.5722 347.71564L508.52533 347.79376Q508.3847 347.16876 508.1347 346.8875Q507.6972 346.4344 507.0722 346.4344Q506.5722 346.4344 506.18158 346.71564Q505.6972 347.09064 505.40033 347.79376Q505.11908 348.48126 505.10345 349.7625Q505.47845 349.1844 506.02533 348.90314Q506.58783 348.6219 507.1972 348.6219Q508.24408 348.6219 508.97845 349.40314Q509.72845 350.1844 509.72845 351.40314Q509.72845 352.21564 509.36908 352.91876Q509.02533 353.60626 508.41595 353.98126Q507.80658 354.34064 507.04095 354.34064Q505.71283 354.34064 504.8847 353.3719Q504.05658 352.40314 504.05658 350.1844Q504.05658 347.6844 504.97845 346.5594Q505.77533 345.575 507.1347 345.575Q508.15033 345.575 508.79095 346.15314Q509.4472 346.71564 509.5722 347.71564ZM505.27533 351.41876Q505.27533 351.96564 505.49408 352.46564Q505.72845 352.95 506.1347 353.21564Q506.55658 353.48126 507.02533 353.48126Q507.68158 353.48126 508.16595 352.95Q508.65033 352.40314 508.65033 351.48126Q508.65033 350.59064 508.16595 350.075Q507.6972 349.5594 506.97845 349.5594Q506.2597 349.5594 505.7597 350.075Q505.27533 350.59064 505.27533 351.41876ZM513.60345 352.8094L513.60345 350.45L511.27533 350.45L511.27533 349.46564L513.60345 349.46564L513.60345 347.1375L514.60345 347.1375L514.60345 349.46564L516.9472 349.46564L516.9472 350.45L514.60345 350.45L514.60345 352.8094L513.60345 352.8094ZM518.3066 347.66876Q518.3066 346.7469 518.7597 346.10626Q519.22845 345.46564 520.10345 345.46564Q520.91595 345.46564 521.4472 346.04376Q521.97845 346.6219 521.97845 347.73126Q521.97845 348.825 521.4316 349.41876Q520.9003 349.9969 520.1191 349.9969Q519.3378 349.9969 518.8222 349.41876Q518.3066 348.84064 518.3066 347.66876ZM520.1347 346.1844Q519.7441 346.1844 519.47845 346.52814Q519.22845 346.8719 519.22845 347.77814Q519.22845 348.60626 519.47845 348.95Q519.7441 349.27814 520.1347 349.27814Q520.54095 349.27814 520.79095 348.9344Q521.0566 348.59064 521.0566 347.7Q521.0566 346.85626 520.79095 346.52814Q520.5253 346.1844 520.1347 346.1844ZM520.1347 354.5125L524.8378 345.46564L525.6972 345.46564L521.0097 354.5125L520.1347 354.5125ZM523.85345 352.1844Q523.85345 351.2625 524.3066 350.6219Q524.7753 349.98126 525.66595 349.98126Q526.47845 349.98126 527.0097 350.5594Q527.54095 351.1219 527.54095 352.2469Q527.54095 353.34064 526.9941 353.9344Q526.4628 354.5125 525.66595 354.5125Q524.9003 354.5125 524.3691 353.9344Q523.85345 353.35626 523.85345 352.1844ZM525.6972 350.7Q525.29095 350.7 525.0253 351.04376Q524.7753 351.3875 524.7753 352.29376Q524.7753 353.10626 525.04095 353.45Q525.3066 353.79376 525.6972 353.79376Q526.0878 353.79376 526.35345 353.45Q526.6191 353.10626 526.6191 352.2Q526.6191 351.3719 526.35345 351.04376Q526.0878 350.7 525.6972 350.7Z" fill-rule="nonzero"/><path fill="#f9cb9c" d="M250.0 71.333336C250.0 70.78105 250.44771 70.333336 251.0 70.333336L261.0 70.333336C261.55228 70.333336 262.0 70.78105 262.0 71.333336L262.0 81.333336C262.0 81.88562 261.55228 82.333336 261.0 82.333336L251.0 82.333336C250.44771 82.333336 250.0 81.88562 250.0 81.333336Z" fill-rule="nonzero"/><path fill="#1a1a1a" d="M276.04688 79.31771L276.04688 80.333336L270.35938 80.333336Q270.35938 79.958336 270.48438 79.59896Q270.70312 79.020836 271.17188 78.458336Q271.65625 77.895836 272.5625 77.16146Q273.96875 76.00521 274.45312 75.333336Q274.95312 74.66146 274.95312 74.06771Q274.95312 73.44271 274.5 73.020836Q274.04688 72.583336 273.32812 72.583336Q272.5625 72.583336 272.10938 73.03646Q271.65625 73.489586 271.64062 74.302086L270.5625 74.19271Q270.67188 72.97396 271.39062 72.34896Q272.125 71.708336 273.35938 71.708336Q274.59375 71.708336 275.3125 72.395836Q276.03125 73.083336 276.03125 74.09896Q276.03125 74.614586 275.8125 75.114586Q275.60938 75.59896 275.10938 76.16146Q274.625 76.708336 273.5 77.66146Q272.54688 78.458336 272.26562 78.75521Q272.0 79.03646 271.82812 79.31771L276.04688 79.31771ZM277.5 76.09896Q277.5 74.56771 277.8125 73.645836Q278.125 72.708336 278.73438 72.208336Q279.35938 71.708336 280.29688 71.708336Q280.98438 71.708336 281.5 71.989586Q282.03125 72.270836 282.375 72.802086Q282.71875 73.31771 282.90625 74.06771Q283.09375 74.81771 283.09375 76.09896Q283.09375 77.614586 282.78125 78.53646Q282.48438 79.458336 281.85938 79.97396Q281.25 80.47396 280.29688 80.47396Q279.0625 80.47396 278.34375 79.583336Q277.5 78.520836 277.5 76.09896ZM278.57812 76.09896Q278.57812 78.208336 279.07812 78.91146Q279.57812 79.614586 280.29688 79.614586Q281.03125 79.614586 281.51562 78.91146Q282.01562 78.208336 282.01562 76.09896Q282.01562 73.97396 281.51562 73.28646Q281.03125 72.583336 280.28125 72.583336Q279.5625 72.583336 279.125 73.19271Q278.57812 73.97396 278.57812 76.09896ZM288.46875 80.333336L287.42188 80.333336L287.42188 73.614586Q287.03125 73.97396 286.40625 74.34896Q285.79688 74.708336 285.3125 74.88021L285.3125 73.864586Q286.1875 73.44271 286.84375 72.864586Q287.51562 72.270836 287.79688 71.708336L288.46875 71.708336L288.46875 80.333336ZM293.125 75.677086Q292.46875 75.427086 292.14062 74.989586Q291.82812 74.53646 291.82812 73.927086Q291.82812 72.989586 292.5 72.34896Q293.1875 71.708336 294.29688 71.708336Q295.42188 71.708336 296.10938 72.364586Q296.79688 73.020836 296.79688 73.958336Q296.79688 74.552086 296.48438 74.989586Q296.17188 75.427086 295.53125 75.677086Q296.32812 75.927086 296.73438 76.50521Q297.14062 77.083336 297.14062 77.88021Q297.14062 78.97396 296.35938 79.72396Q295.59375 80.47396 294.3125 80.47396Q293.04688 80.47396 292.26562 79.72396Q291.48438 78.97396 291.48438 77.84896Q291.48438 77.00521 291.90625 76.44271Q292.34375 75.88021 293.125 75.677086ZM292.90625 73.88021Q292.90625 74.489586 293.29688 74.88021Q293.70312 75.270836 294.32812 75.270836Q294.9375 75.270836 295.32812 74.895836Q295.71875 74.50521 295.71875 73.94271Q295.71875 73.364586 295.3125 72.97396Q294.90625 72.56771 294.3125 72.56771Q293.70312 72.56771 293.29688 72.958336Q292.90625 73.34896 292.90625 73.88021ZM292.57812 77.84896Q292.57812 78.302086 292.78125 78.72396Q293.0 79.145836 293.42188 79.38021Q293.84375 79.614586 294.32812 79.614586Q295.07812 79.614586 295.5625 79.13021Q296.0625 78.645836 296.0625 77.895836Q296.0625 77.13021 295.5625 76.63021Q295.0625 76.13021 294.29688 76.13021Q293.54688 76.13021 293.0625 76.63021Q292.57812 77.114586 292.57812 77.84896Z" fill-rule="nonzero"/><path fill="#a4c2f4" d="M314.0 71.333336C314.0 70.78105 314.44772 70.333336 315.0 70.333336L325.0 70.333336C325.55228 70.333336 326.0 70.78105 326.0 71.333336L326.0 81.333336C326.0 81.88562 325.55228 82.333336 325.0 82.333336L315.0 82.333336C314.44772 82.333336 314.0 81.88562 314.0 81.333336Z" fill-rule="nonzero"/><path fill="#1a1a1a" d="M340.04688 79.31771L340.04688 80.333336L334.35938 80.333336Q334.35938 79.958336 334.48438 79.59896Q334.70312 79.020836 335.17188 78.458336Q335.65625 77.895836 336.5625 77.16146Q337.96875 76.00521 338.45312 75.333336Q338.95312 74.66146 338.95312 74.06771Q338.95312 73.44271 338.5 73.020836Q338.04688 72.583336 337.32812 72.583336Q336.5625 72.583336 336.10938 73.03646Q335.65625 73.489586 335.64062 74.302086L334.5625 74.19271Q334.67188 72.97396 335.39062 72.34896Q336.125 71.708336 337.35938 71.708336Q338.59375 71.708336 339.3125 72.395836Q340.03125 73.083336 340.03125 74.09896Q340.03125 74.614586 339.8125 75.114586Q339.60938 75.59896 339.10938 76.16146Q338.625 76.708336 337.5 77.66146Q336.54688 78.458336 336.26562 78.75521Q336.0 79.03646 335.82812 79.31771L340.04688 79.31771ZM341.5 76.09896Q341.5 74.56771 341.8125 73.645836Q342.125 72.708336 342.73438 72.208336Q343.35938 71.708336 344.29688 71.708336Q344.98438 71.708336 345.5 71.989586Q346.03125 72.270836 346.375 72.802086Q346.71875 73.31771 346.90625 74.06771Q347.09375 74.81771 347.09375 76.09896Q347.09375 77.614586 346.78125 78.53646Q346.48438 79.458336 345.85938 79.97396Q345.25 80.47396 344.29688 80.47396Q343.0625 80.47396 342.34375 79.583336Q341.5 78.520836 341.5 76.09896ZM342.57812 76.09896Q342.57812 78.208336 343.07812 78.91146Q343.57812 79.614586 344.29688 79.614586Q345.03125 79.614586 345.51562 78.91146Q346.01562 78.208336 346.01562 76.09896Q346.01562 73.97396 345.51562 73.28646Q345.03125 72.583336 344.28125 72.583336Q343.5625 72.583336 343.125 73.19271Q342.57812 73.97396 342.57812 76.09896ZM354.04688 79.31771L354.04688 80.333336L348.35938 80.333336Q348.35938 79.958336 348.48438 79.59896Q348.70312 79.020836 349.17188 78.458336Q349.65625 77.895836 350.5625 77.16146Q351.96875 76.00521 352.45312 75.333336Q352.95312 74.66146 352.95312 74.06771Q352.95312 73.44271 352.5 73.020836Q352.04688 72.583336 351.32812 72.583336Q350.5625 72.583336 350.10938 73.03646Q349.65625 73.489586 349.64062 74.302086L348.5625 74.19271Q348.67188 72.97396 349.39062 72.34896Q350.125 71.708336 351.35938 71.708336Q352.59375 71.708336 353.3125 72.395836Q354.03125 73.083336 354.03125 74.09896Q354.03125 74.614586 353.8125 75.114586Q353.60938 75.59896 353.10938 76.16146Q352.625 76.708336 351.5 77.66146Q350.54688 78.458336 350.26562 78.75521Q350.0 79.03646 349.82812 79.31771L354.04688 79.31771ZM359.46875 80.333336L358.42188 80.333336L358.42188 73.614586Q358.03125 73.97396 357.40625 74.34896Q356.79688 74.708336 356.3125 74.88021L356.3125 73.864586Q357.1875 73.44271 357.84375 72.864586Q358.51562 72.270836 358.79688 71.708336L359.46875 71.708336L359.46875 80.333336Z" fill-rule="nonzero"/><path fill="#757575" d="M19.971874 33.8L19.971874 22.346874L22.284374 22.346874L22.284374 26.846874L26.815624 26.846874L26.815624 22.346874L29.128124 22.346874L29.128124 33.8L26.815624 33.8L26.815624 28.784374L22.284374 28.784374L22.284374 33.8L19.971874 33.8ZM31.440624 29.534374Q31.440624 28.440624 31.971874 27.425Q32.51875 26.39375 33.503124 25.8625Q34.503124 25.315624 35.721874 25.315624Q37.596874 25.315624 38.8 26.534374Q40.003124 27.753124 40.003124 29.628124Q40.003124 31.503124 38.784374 32.753124Q37.58125 33.9875 35.7375 33.9875Q34.596874 33.9875 33.55 33.471874Q32.51875 32.95625 31.971874 31.95625Q31.440624 30.95625 31.440624 29.534374ZM33.690624 29.64375Q33.690624 30.878124 34.26875 31.534374Q34.8625 32.190624 35.721874 32.190624Q36.58125 32.190624 37.159374 31.534374Q37.753124 30.878124 37.753124 29.628124Q37.753124 28.409374 37.159374 27.753124Q36.58125 27.096874 35.721874 27.096874Q34.8625 27.096874 34.26875 27.753124Q33.690624 28.409374 33.690624 29.64375ZM43.503124 33.8L40.878124 25.503124L43.003124 25.503124L44.565624 30.940624L45.9875 25.503124L48.1125 25.503124L49.4875 30.940624L51.08125 25.503124L53.2375 25.503124L50.58125 33.8L48.471874 33.8L47.034374 28.45625L45.628124 33.8L43.503124 33.8ZM57.784374 25.503124L59.815624 25.503124L59.815624 26.628124Q60.89375 25.315624 62.39375 25.315624Q63.190624 25.315624 63.76875 25.64375Q64.3625 25.971874 64.7375 26.628124Q65.28438 25.971874 65.90938 25.64375Q66.55 25.315624 67.26875 25.315624Q68.19063 25.315624 68.81563 25.690624Q69.45625 26.05 69.76875 26.76875Q69.9875 27.3 69.9875 28.4875L69.9875 33.8L67.8 33.8L67.8 29.05Q67.8 27.815624 67.56563 27.45625Q67.26875 26.9875 66.62813 26.9875Q66.175 26.9875 65.76875 27.26875Q65.3625 27.55 65.175 28.096874Q65.00313 28.64375 65.00313 29.815624L65.00313 33.8L62.8 33.8L62.8 29.253124Q62.8 28.034374 62.675 27.690624Q62.565624 27.33125 62.315624 27.159374Q62.08125 26.9875 61.659374 26.9875Q61.14375 26.9875 60.7375 27.26875Q60.33125 27.534374 60.159374 28.05Q59.9875 28.565624 59.9875 29.76875L59.9875 33.8L57.784374 33.8L57.784374 25.503124ZM77.40938 33.8L77.40938 32.55Q76.95625 33.221874 76.22188 33.6125Q75.4875 33.9875 74.65938 33.9875Q73.83125 33.9875 73.15938 33.628124Q72.50313 33.253124 72.20625 32.596874Q71.90938 31.925 71.90938 30.753124L71.90938 25.503124L74.09688 25.503124L74.09688 29.315624Q74.09688 31.065624 74.22188 31.45625Q74.34688 31.846874 74.65938 32.08125Q74.9875 32.315624 75.47188 32.315624Q76.03438 32.315624 76.47188 32.003124Q76.925 31.690624 77.08125 31.2375Q77.25313 30.784374 77.25313 29.003124L77.25313 25.503124L79.45625 25.503124L79.45625 33.8L77.40938 33.8ZM89.19063 27.95625L87.01875 28.346874Q86.90938 27.690624 86.51875 27.3625Q86.14375 27.034374 85.51875 27.034374Q84.70625 27.034374 84.20625 27.6125Q83.72188 28.175 83.72188 29.503124Q83.72188 30.971874 84.22188 31.58125Q84.72188 32.190624 85.55 32.190624Q86.175 32.190624 86.56563 31.846874Q86.97188 31.4875 87.14375 30.6125L89.3 30.9875Q88.95625 32.471874 88.00313 33.2375Q87.05 33.9875 85.45625 33.9875Q83.62813 33.9875 82.55 32.846874Q81.47188 31.690624 81.47188 29.659374Q81.47188 27.596874 82.55 26.45625Q83.64375 25.315624 85.4875 25.315624Q87.00313 25.315624 87.89375 25.971874Q88.8 26.6125 89.19063 27.95625ZM93.14375 22.346874L93.14375 26.55Q94.20625 25.315624 95.675 25.315624Q96.44063 25.315624 97.05 25.596874Q97.65938 25.878124 97.95625 26.315624Q98.26875 26.753124 98.37813 27.284374Q98.50313 27.815624 98.50313 28.925L98.50313 33.8L96.3 33.8L96.3 29.409374Q96.3 28.1125 96.175 27.76875Q96.05 27.409374 95.7375 27.20625Q95.425 26.9875 94.94063 26.9875Q94.39375 26.9875 93.95625 27.253124Q93.53438 27.51875 93.33125 28.065624Q93.14375 28.596874 93.14375 29.64375L93.14375 33.8L90.94063 33.8L90.94063 22.346874L93.14375 22.346874ZM108.75313 25.503124L108.75313 27.253124L107.25313 27.253124L107.25313 30.596874Q107.25313 31.6125 107.3 31.784374Q107.34688 31.940624 107.4875 32.05Q107.64375 32.159374 107.8625 32.159374Q108.175 32.159374 108.75313 31.95625L108.94063 33.659374Q108.175 33.9875 107.20625 33.9875Q106.6125 33.9875 106.12813 33.784374Q105.65938 33.58125 105.425 33.26875Q105.20625 32.95625 105.12813 32.409374Q105.05 32.034374 105.05 30.8625L105.05 27.253124L104.05 27.253124L104.05 25.503124L105.05 25.503124L105.05 23.846874L107.25313 22.565624L107.25313 25.503124L108.75313 25.503124ZM109.95625 24.378124L109.95625 22.346874L112.14375 22.346874L112.14375 24.378124L109.95625 24.378124ZM109.95625 33.8L109.95625 25.503124L112.14375 25.503124L112.14375 33.8L109.95625 33.8ZM113.78438 25.503124L115.81563 25.503124L115.81563 26.628124Q116.89375 25.315624 118.39375 25.315624Q119.19063 25.315624 119.76875 25.64375Q120.3625 25.971874 120.7375 26.628124Q121.28438 25.971874 121.90938 25.64375Q122.55 25.315624 123.26875 25.315624Q124.19063 25.315624 124.81563 25.690624Q125.45625 26.05 125.76875 26.76875Q125.9875 27.3 125.9875 28.4875L125.9875 33.8L123.8 33.8L123.8 29.05Q123.8 27.815624 123.56563 27.45625Q123.26875 26.9875 122.62813 26.9875Q122.175 26.9875 121.76875 27.26875Q121.3625 27.55 121.175 28.096874Q121.00313 28.64375 121.00313 29.815624L121.00313 33.8L118.8 33.8L118.8 29.253124Q118.8 28.034374 118.675 27.690624Q118.56563 27.33125 118.31563 27.159374Q118.08125 26.9875 117.65938 26.9875Q117.14375 26.9875 116.7375 27.26875Q116.33125 27.534374 116.15938 28.05Q115.9875 28.565624 115.9875 29.76875L115.9875 33.8L113.78438 33.8L113.78438 25.503124ZM132.75313 31.159374L134.94063 31.51875Q134.51875 32.721874 133.6125 33.3625Q132.70625 33.9875 131.33125 33.9875Q129.175 33.9875 128.12813 32.565624Q127.31563 31.440624 127.31563 29.70625Q127.31563 27.64375 128.39375 26.4875Q129.47188 25.315624 131.1125 25.315624Q132.97188 25.315624 134.03438 26.534374Q135.1125 27.753124 135.06563 30.284374L129.56563 30.284374Q129.58125 31.253124 130.08125 31.8Q130.59688 32.346874 131.3625 32.346874Q131.87813 32.346874 132.22188 32.065624Q132.58125 31.784374 132.75313 31.159374ZM132.87813 28.940624Q132.8625 27.9875 132.39375 27.4875Q131.925 26.9875 131.25313 26.9875Q130.53438 26.9875 130.06563 27.51875Q129.59688 28.034374 129.59688 28.940624L132.87813 28.940624ZM140.89375 25.503124L142.94063 25.503124L142.94063 26.721874Q143.33125 26.096874 144.00313 25.70625Q144.69063 25.315624 145.51875 25.315624Q146.97188 25.315624 147.97188 26.45625Q148.9875 27.58125 148.9875 29.596874Q148.9875 31.675 147.97188 32.83125Q146.95625 33.9875 145.50313 33.9875Q144.81563 33.9875 144.25313 33.721874Q143.70625 33.440624 143.08125 32.76875L143.08125 36.95625L140.89375 36.95625L140.89375 25.503124ZM143.06563 29.503124Q143.06563 30.909374 143.6125 31.58125Q144.175 32.2375 144.97188 32.2375Q145.7375 32.2375 146.2375 31.628124Q146.75313 31.01875 146.75313 29.6125Q146.75313 28.315624 146.22188 27.690624Q145.70625 27.05 144.925 27.05Q144.12813 27.05 143.59688 27.675Q143.06563 28.284374 143.06563 29.503124ZM155.75313 31.159374L157.94063 31.51875Q157.51875 32.721874 156.6125 33.3625Q155.70625 33.9875 154.33125 33.9875Q152.175 33.9875 151.12813 32.565624Q150.31563 31.440624 150.31563 29.70625Q150.31563 27.64375 151.39375 26.4875Q152.47188 25.315624 154.1125 25.315624Q155.97188 25.315624 157.03438 26.534374Q158.1125 27.753124 158.06563 30.284374L152.56563 30.284374Q152.58125 31.253124 153.08125 31.8Q153.59688 32.346874 154.3625 32.346874Q154.87813 32.346874 155.22188 32.065624Q155.58125 31.784374 155.75313 31.159374ZM155.87813 28.940624Q155.8625 27.9875 155.39375 27.4875Q154.925 26.9875 154.25313 26.9875Q153.53438 26.9875 153.06563 27.51875Q152.59688 28.034374 152.59688 28.940624L155.87813 28.940624ZM162.05 33.8L159.8625 33.8L159.8625 25.503124L161.89375 25.503124L161.89375 26.675Q162.425 25.846874 162.83125 25.58125Q163.25313 25.315624 163.78438 25.315624Q164.53438 25.315624 165.2375 25.721874L164.55 27.64375Q164.00313 27.284374 163.51875 27.284374Q163.06563 27.284374 162.7375 27.534374Q162.425 27.784374 162.2375 28.45625Q162.05 29.1125 162.05 31.2375L162.05 33.8ZM171.50313 33.8L168.87813 25.503124L171.00313 25.503124L172.56563 30.940624L173.9875 25.503124L176.1125 25.503124L177.4875 30.940624L179.08125 25.503124L181.2375 25.503124L178.58125 33.8L176.47188 33.8L175.03438 28.45625L173.62813 33.8L171.50313 33.8ZM186.75313 31.159374L188.94063 31.51875Q188.51875 32.721874 187.6125 33.3625Q186.70625 33.9875 185.33125 33.9875Q183.175 33.9875 182.12813 32.565624Q181.31563 31.440624 181.31563 29.70625Q181.31563 27.64375 182.39375 26.4875Q183.47188 25.315624 185.1125 25.315624Q186.97188 25.315624 188.03438 26.534374Q189.1125 27.753124 189.06563 30.284374L183.56563 30.284374Q183.58125 31.253124 184.08125 31.8Q184.59688 32.346874 185.3625 32.346874Q185.87813 32.346874 186.22188 32.065624Q186.58125 31.784374 186.75313 31.159374ZM186.87813 28.940624Q186.8625 27.9875 186.39375 27.4875Q185.925 26.9875 185.25313 26.9875Q184.53438 26.9875 184.06563 27.51875Q183.59688 28.034374 183.59688 28.940624L186.87813 28.940624ZM195.75313 31.159374L197.94063 31.51875Q197.51875 32.721874 196.6125 33.3625Q195.70625 33.9875 194.33125 33.9875Q192.175 33.9875 191.12813 32.565624Q190.31563 31.440624 190.31563 29.70625Q190.31563 27.64375 191.39375 26.4875Q192.47188 25.315624 194.1125 25.315624Q195.97188 25.315624 197.03438 26.534374Q198.1125 27.753124 198.06563 30.284374L192.56563 30.284374Q192.58125 31.253124 193.08125 31.8Q193.59688 32.346874 194.3625 32.346874Q194.87813 32.346874 195.22188 32.065624Q195.58125 31.784374 195.75313 31.159374ZM195.87813 28.940624Q195.8625 27.9875 195.39375 27.4875Q194.925 26.9875 194.25313 26.9875Q193.53438 26.9875 193.06563 27.51875Q192.59688 28.034374 192.59688 28.940624L195.87813 28.940624ZM199.87813 33.8L199.87813 22.346874L202.06563 22.346874L202.06563 28.425L204.64375 25.503124L207.34688 25.503124L204.50313 28.534374L207.55 33.8L205.175 33.8L203.09688 30.065624L202.06563 31.14375L202.06563 33.8L199.87813 33.8ZM220.56563 33.8L218.51875 33.8L218.51875 32.58125Q218.01875 33.284374 217.31563 33.64375Q216.62813 33.9875 215.925 33.9875Q214.50313 33.9875 213.47188 32.83125Q212.45625 31.675 212.45625 29.6125Q212.45625 27.503124 213.44063 26.409374Q214.44063 25.315624 215.95625 25.315624Q217.34688 25.315624 218.3625 26.471874L218.3625 22.346874L220.56563 22.346874L220.56563 33.8ZM214.70625 29.471874Q214.70625 30.8 215.06563 31.39375Q215.59688 32.253124 216.55 32.253124Q217.31563 32.253124 217.84688 31.6125Q218.37813 30.95625 218.37813 29.675Q218.37813 28.253124 217.8625 27.628124Q217.34688 26.9875 216.53438 26.9875Q215.75313 26.9875 215.22188 27.6125Q214.70625 28.2375 214.70625 29.471874ZM222.44063 29.534374Q222.44063 28.440624 222.97188 27.425Q223.51875 26.39375 224.50313 25.8625Q225.50313 25.315624 226.72188 25.315624Q228.59688 25.315624 229.8 26.534374Q231.00313 27.753124 231.00313 29.628124Q231.00313 31.503124 229.78438 32.753124Q228.58125 33.9875 226.7375 33.9875Q225.59688 33.9875 224.55 33.471874Q223.51875 32.95625 222.97188 31.95625Q222.44063 30.95625 222.44063 29.534374ZM224.69063 29.64375Q224.69063 30.878124 225.26875 31.534374Q225.8625 32.190624 226.72188 32.190624Q227.58125 32.190624 228.15938 31.534374Q228.75313 30.878124 228.75313 29.628124Q228.75313 28.409374 228.15938 27.753124Q227.58125 27.096874 226.72188 27.096874Q225.8625 27.096874 225.26875 27.753124Q224.69063 28.409374 224.69063 29.64375ZM235.90938 25.503124L238.25313 25.503124L240.2375 31.39375L242.175 25.503124L244.44063 25.503124L241.51875 33.4875L240.9875 34.940624Q240.70625 35.659374 240.44063 36.034374Q240.175 36.425 239.83125 36.659374Q239.50313 36.909374 239.00313 37.034374Q238.50313 37.175 237.87813 37.175Q237.25313 37.175 236.64375 37.034374L236.44063 35.315624Q236.95625 35.425 237.37813 35.425Q238.14375 35.425 238.50313 34.971874Q238.87813 34.51875 239.06563 33.83125L235.90938 25.503124ZM245.44063 29.534374Q245.44063 28.440624 245.97188 27.425Q246.51875 26.39375 247.50313 25.8625Q248.50313 25.315624 249.72188 25.315624Q251.59688 25.315624 252.8 26.534374Q254.00313 27.753124 254.00313 29.628124Q254.00313 31.503124 252.78438 32.753124Q251.58125 33.9875 249.7375 33.9875Q248.59688 33.9875 247.55 33.471874Q246.51875 32.95625 245.97188 31.95625Q245.44063 30.95625 245.44063 29.534374ZM247.69063 29.64375Q247.69063 30.878124 248.26875 31.534374Q248.8625 32.190624 249.72188 32.190624Q250.58125 32.190624 251.15938 31.534374Q251.75313 30.878124 251.75313 29.628124Q251.75313 28.409374 251.15938 27.753124Q250.58125 27.096874 249.72188 27.096874Q248.8625 27.096874 248.26875 27.753124Q247.69063 28.409374 247.69063 29.64375ZM261.40936 33.8L261.40936 32.55Q260.95624 33.221874 260.22186 33.6125Q259.4875 33.9875 258.65936 33.9875Q257.83124 33.9875 257.15936 33.628124Q256.5031 33.253124 256.20624 32.596874Q255.90938 31.925 255.90938 30.753124L255.90938 25.503124L258.09686 25.503124L258.09686 29.315624Q258.09686 31.065624 258.22186 31.45625Q258.34686 31.846874 258.65936 32.08125Q258.9875 32.315624 259.47186 32.315624Q260.03436 32.315624 260.47186 32.003124Q260.925 31.690624 261.08124 31.2375Q261.2531 30.784374 261.2531 29.003124L261.2531 25.503124L263.45624 25.503124L263.45624 33.8L261.40936 33.8ZM269.175 31.425L271.3781 31.096874Q271.51874 31.7375 271.9406 32.065624Q272.3781 32.39375 273.15936 32.39375Q274.0031 32.39375 274.4406 32.08125Q274.72186 31.8625 274.72186 31.503124Q274.72186 31.253124 274.5656 31.08125Q274.40936 30.925 273.83124 30.8Q271.175 30.20625 270.47186 29.721874Q269.4875 29.05 269.4875 27.8625Q269.4875 26.784374 270.33124 26.05Q271.1906 25.315624 272.97186 25.315624Q274.675 25.315624 275.5031 25.878124Q276.33124 26.425 276.64374 27.503124L274.58124 27.89375Q274.4406 27.409374 274.0656 27.159374Q273.70624 26.89375 273.01874 26.89375Q272.14374 26.89375 271.76874 27.128124Q271.51874 27.3 271.51874 27.58125Q271.51874 27.815624 271.7375 27.971874Q272.03436 28.190624 273.78436 28.596874Q275.55 28.9875 276.2375 29.565624Q276.925 30.159374 276.925 31.20625Q276.925 32.346874 275.97186 33.175Q275.01874 33.9875 273.15936 33.9875Q271.45624 33.9875 270.47186 33.3Q269.4875 32.6125 269.175 31.425ZM278.89374 25.503124L280.9406 25.503124L280.9406 26.721874Q281.33124 26.096874 282.0031 25.70625Q282.6906 25.315624 283.51874 25.315624Q284.97186 25.315624 285.97186 26.45625Q286.9875 27.58125 286.9875 29.596874Q286.9875 31.675 285.97186 32.83125Q284.95624 33.9875 283.5031 33.9875Q282.8156 33.9875 282.2531 33.721874Q281.70624 33.440624 281.08124 32.76875L281.08124 36.95625L278.89374 36.95625L278.89374 25.503124ZM281.0656 29.503124Q281.0656 30.909374 281.6125 31.58125Q282.175 32.2375 282.97186 32.2375Q283.7375 32.2375 284.2375 31.628124Q284.7531 31.01875 284.7531 29.6125Q284.7531 28.315624 284.22186 27.690624Q283.70624 27.05 282.925 27.05Q282.1281 27.05 281.59686 27.675Q281.0656 28.284374 281.0656 29.503124ZM293.7531 31.159374L295.9406 31.51875Q295.51874 32.721874 294.6125 33.3625Q293.70624 33.9875 292.33124 33.9875Q290.175 33.9875 289.1281 32.565624Q288.3156 31.440624 288.3156 29.70625Q288.3156 27.64375 289.39374 26.4875Q290.47186 25.315624 292.1125 25.315624Q293.97186 25.315624 295.03436 26.534374Q296.1125 27.753124 296.0656 30.284374L290.5656 30.284374Q290.58124 31.253124 291.08124 31.8Q291.59686 32.346874 292.3625 32.346874Q292.8781 32.346874 293.22186 32.065624Q293.58124 31.784374 293.7531 31.159374ZM293.8781 28.940624Q293.8625 27.9875 293.39374 27.4875Q292.925 26.9875 292.2531 26.9875Q291.53436 26.9875 291.0656 27.51875Q290.59686 28.034374 290.59686 28.940624L293.8781 28.940624ZM305.5031 33.8L303.3 33.8L303.3 29.565624Q303.3 28.221874 303.15936 27.83125Q303.01874 27.425 302.70624 27.20625Q302.39374 26.9875 301.9406 26.9875Q301.3781 26.9875 300.925 27.3Q300.47186 27.6125 300.3 28.128124Q300.1281 28.64375 300.1281 30.034374L300.1281 33.8L297.9406 33.8L297.9406 25.503124L299.97186 25.503124L299.97186 26.721874Q301.0656 25.315624 302.70624 25.315624Q303.4406 25.315624 304.03436 25.58125Q304.64374 25.83125 304.9406 26.2375Q305.2531 26.64375 305.3781 27.159374Q305.5031 27.675 305.5031 28.64375L305.5031 33.8ZM315.5656 33.8L313.51874 33.8L313.51874 32.58125Q313.01874 33.284374 312.3156 33.64375Q311.6281 33.9875 310.925 33.9875Q309.5031 33.9875 308.47186 32.83125Q307.45624 31.675 307.45624 29.6125Q307.45624 27.503124 308.4406 26.409374Q309.4406 25.315624 310.95624 25.315624Q312.34686 25.315624 313.3625 26.471874L313.3625 22.346874L315.5656 22.346874L315.5656 33.8ZM309.70624 29.471874Q309.70624 30.8 310.0656 31.39375Q310.59686 32.253124 311.55 32.253124Q312.3156 32.253124 312.84686 31.6125Q313.3781 30.95625 313.3781 29.675Q313.3781 28.253124 312.8625 27.628124Q312.34686 26.9875 311.53436 26.9875Q310.7531 26.9875 310.22186 27.6125Q309.70624 28.2375 309.70624 29.471874ZM321.8625 33.8L321.8625 22.346874L324.05 22.346874L324.05 26.471874Q325.0656 25.315624 326.45624 25.315624Q327.97186 25.315624 328.95624 26.409374Q329.95624 27.503124 329.95624 29.565624Q329.95624 31.690624 328.9406 32.846874Q327.9406 33.9875 326.4875 33.9875Q325.78436 33.9875 325.08124 33.628124Q324.39374 33.26875 323.89374 32.58125L323.89374 33.8L321.8625 33.8ZM324.03436 29.471874Q324.03436 30.753124 324.4406 31.378124Q325.01874 32.253124 325.95624 32.253124Q326.6906 32.253124 327.1906 31.628124Q327.70624 31.003124 327.70624 29.675Q327.70624 28.253124 327.1906 27.628124Q326.675 26.9875 325.8781 26.9875Q325.08124 26.9875 324.55 27.6125Q324.03436 28.221874 324.03436 29.471874ZM334.05 33.8L331.8625 33.8L331.8625 25.503124L333.89374 25.503124L333.89374 26.675Q334.425 25.846874 334.83124 25.58125Q335.2531 25.315624 335.78436 25.315624Q336.53436 25.315624 337.2375 25.721874L336.55 27.64375Q336.0031 27.284374 335.51874 27.284374Q335.0656 27.284374 334.7375 27.534374Q334.425 27.784374 334.2375 28.45625Q334.05 29.1125 334.05 31.2375L334.05 33.8ZM339.59686 28.034374L337.59686 27.675Q337.9406 26.471874 338.7531 25.89375Q339.58124 25.315624 341.1906 25.315624Q342.65936 25.315624 343.3781 25.659374Q344.09686 26.003124 344.39374 26.55Q344.6906 27.08125 344.6906 28.503124L344.65936 31.065624Q344.65936 32.159374 344.76874 32.690624Q344.8781 33.20625 345.15936 33.8L342.9875 33.8Q342.90936 33.58125 342.78436 33.14375Q342.72186 32.95625 342.70624 32.89375Q342.14374 33.440624 341.5031 33.721874Q340.8625 33.9875 340.1281 33.9875Q338.84686 33.9875 338.1125 33.3Q337.3781 32.596874 337.3781 31.534374Q337.3781 30.83125 337.70624 30.284374Q338.05 29.721874 338.64374 29.440624Q339.2531 29.14375 340.39374 28.925Q341.9406 28.628124 342.53436 28.378124L342.53436 28.159374Q342.53436 27.534374 342.22186 27.26875Q341.90936 26.9875 341.03436 26.9875Q340.45624 26.9875 340.1281 27.221874Q339.8 27.45625 339.59686 28.034374ZM342.53436 29.815624Q342.1125 29.95625 341.1906 30.159374Q340.28436 30.346874 340.0031 30.534374Q339.5656 30.83125 339.5656 31.3Q339.5656 31.76875 339.90936 32.1125Q340.2531 32.440624 340.78436 32.440624Q341.3781 32.440624 341.925 32.05Q342.3156 31.753124 342.4406 31.315624Q342.53436 31.034374 342.53436 30.253124L342.53436 29.815624ZM346.95624 24.378124L346.95624 22.346874L349.14374 22.346874L349.14374 24.378124L346.95624 24.378124ZM346.95624 33.8L346.95624 25.503124L349.14374 25.503124L349.14374 33.8L346.95624 33.8ZM358.5031 33.8L356.3 33.8L356.3 29.565624Q356.3 28.221874 356.15936 27.83125Q356.01874 27.425 355.70624 27.20625Q355.39374 26.9875 354.9406 26.9875Q354.3781 26.9875 353.925 27.3Q353.47186 27.6125 353.3 28.128124Q353.1281 28.64375 353.1281 30.034374L353.1281 33.8L350.9406 33.8L350.9406 25.503124L352.97186 25.503124L352.97186 26.721874Q354.0656 25.315624 355.70624 25.315624Q356.4406 25.315624 357.03436 25.58125Q357.64374 25.83125 357.9406 26.2375Q358.2531 26.64375 358.3781 27.159374Q358.5031 27.675 358.5031 28.64375L358.5031 33.8ZM360.175 31.425L362.3781 31.096874Q362.51874 31.7375 362.9406 32.065624Q363.3781 32.39375 364.15936 32.39375Q365.0031 32.39375 365.4406 32.08125Q365.72186 31.8625 365.72186 31.503124Q365.72186 31.253124 365.5656 31.08125Q365.40936 30.925 364.83124 30.8Q362.175 30.20625 361.47186 29.721874Q360.4875 29.05 360.4875 27.8625Q360.4875 26.784374 361.33124 26.05Q362.1906 25.315624 363.97186 25.315624Q365.675 25.315624 366.5031 25.878124Q367.33124 26.425 367.64374 27.503124L365.58124 27.89375Q365.4406 27.409374 365.0656 27.159374Q364.70624 26.89375 364.01874 26.89375Q363.14374 26.89375 362.76874 27.128124Q362.51874 27.3 362.51874 27.58125Q362.51874 27.815624 362.7375 27.971874Q363.03436 28.190624 364.78436 28.596874Q366.55 28.9875 367.2375 29.565624Q367.925 30.159374 367.925 31.20625Q367.925 32.346874 366.97186 33.175Q366.01874 33.9875 364.15936 33.9875Q362.45624 33.9875 361.47186 33.3Q360.4875 32.6125 360.175 31.425ZM373.7531 25.503124L373.7531 27.253124L372.2531 27.253124L372.2531 30.596874Q372.2531 31.6125 372.3 31.784374Q372.34686 31.940624 372.4875 32.05Q372.64374 32.159374 372.8625 32.159374Q373.175 32.159374 373.7531 31.95625L373.9406 33.659374Q373.175 33.9875 372.20624 33.9875Q371.6125 33.9875 371.1281 33.784374Q370.65936 33.58125 370.425 33.26875Q370.20624 32.95625 370.1281 32.409374Q370.05 32.034374 370.05 30.8625L370.05 27.253124L369.05 27.253124L369.05 25.503124L370.05 25.503124L370.05 23.846874L372.2531 22.565624L372.2531 25.503124L373.7531 25.503124ZM374.4406 29.534374Q374.4406 28.440624 374.97186 27.425Q375.51874 26.39375 376.5031 25.8625Q377.5031 25.315624 378.72186 25.315624Q380.59686 25.315624 381.8 26.534374Q383.0031 27.753124 383.0031 29.628124Q383.0031 31.503124 381.78436 32.753124Q380.58124 33.9875 378.7375 33.9875Q377.59686 33.9875 376.55 33.471874Q375.51874 32.95625 374.97186 31.95625Q374.4406 30.95625 374.4406 29.534374ZM376.6906 29.64375Q376.6906 30.878124 377.26874 31.534374Q377.8625 32.190624 378.72186 32.190624Q379.58124 32.190624 380.15936 31.534374Q380.7531 30.878124 380.7531 29.628124Q380.7531 28.409374 380.15936 27.753124Q379.58124 27.096874 378.72186 27.096874Q377.8625 27.096874 377.26874 27.753124Q376.6906 28.409374 376.6906 29.64375ZM387.05 33.8L384.8625 33.8L384.8625 25.503124L386.89374 25.503124L386.89374 26.675Q387.425 25.846874 387.83124 25.58125Q388.2531 25.315624 388.78436 25.315624Q389.53436 25.315624 390.2375 25.721874L389.55 27.64375Q389.0031 27.284374 388.51874 27.284374Q388.0656 27.284374 387.7375 27.534374Q387.425 27.784374 387.2375 28.45625Q387.05 29.1125 387.05 31.2375L387.05 33.8ZM390.78436 25.503124L392.8156 25.503124L392.8156 26.628124Q393.89374 25.315624 395.39374 25.315624Q396.1906 25.315624 396.76874 25.64375Q397.3625 25.971874 397.7375 26.628124Q398.28436 25.971874 398.90936 25.64375Q399.55 25.315624 400.26874 25.315624Q401.1906 25.315624 401.8156 25.690624Q402.45624 26.05 402.76874 26.76875Q402.9875 27.3 402.9875 28.4875L402.9875 33.8L400.8 33.8L400.8 29.05Q400.8 27.815624 400.5656 27.45625Q400.26874 26.9875 399.6281 26.9875Q399.175 26.9875 398.76874 27.26875Q398.3625 27.55 398.175 28.096874Q398.0031 28.64375 398.0031 29.815624L398.0031 33.8L395.8 33.8L395.8 29.253124Q395.8 28.034374 395.675 27.690624Q395.5656 27.33125 395.3156 27.159374Q395.08124 26.9875 394.65936 26.9875Q394.14374 26.9875 393.7375 27.26875Q393.33124 27.534374 393.15936 28.05Q392.9875 28.565624 392.9875 29.76875L392.9875 33.8L390.78436 33.8L390.78436 25.503124ZM404.95624 24.378124L404.95624 22.346874L407.14374 22.346874L407.14374 24.378124L404.95624 24.378124ZM404.95624 33.8L404.95624 25.503124L407.14374 25.503124L407.14374 33.8L404.95624 33.8ZM416.5031 33.8L414.3 33.8L414.3 29.565624Q414.3 28.221874 414.15936 27.83125Q414.01874 27.425 413.70624 27.20625Q413.39374 26.9875 412.9406 26.9875Q412.3781 26.9875 411.925 27.3Q411.47186 27.6125 411.3 28.128124Q411.1281 28.64375 411.1281 30.034374L411.1281 33.8L408.9406 33.8L408.9406 25.503124L410.97186 25.503124L410.97186 26.721874Q412.0656 25.315624 413.70624 25.315624Q414.4406 25.315624 415.03436 25.58125Q415.64374 25.83125 415.9406 26.2375Q416.2531 26.64375 416.3781 27.159374Q416.5031 27.675 416.5031 28.64375L416.5031 33.8ZM418.7531 34.346874L421.2531 34.659374Q421.3156 35.096874 421.55 35.253124Q421.8625 35.4875 422.53436 35.4875Q423.39374 35.4875 423.8156 35.2375Q424.1125 35.065624 424.2531 34.675Q424.3625 34.409374 424.3625 33.659374L424.3625 32.45625Q423.3781 33.8 421.8781 33.8Q420.20624 33.8 419.22186 32.378124Q418.45624 31.26875 418.45624 29.596874Q418.45624 27.51875 419.45624 26.425Q420.47186 25.315624 421.95624 25.315624Q423.5031 25.315624 424.5031 26.659374L424.5031 25.503124L426.55 25.503124L426.55 32.940624Q426.55 34.425 426.3 35.14375Q426.0656 35.878124 425.6281 36.284374Q425.1906 36.70625 424.45624 36.940624Q423.7375 37.175 422.6125 37.175Q420.5031 37.175 419.6125 36.440624Q418.7375 35.721874 418.7375 34.6125Q418.7375 34.503124 418.7531 34.346874ZM420.70624 29.471874Q420.70624 30.8 421.22186 31.409374Q421.7375 32.01875 422.4875 32.01875Q423.28436 32.01875 423.83124 31.39375Q424.39374 30.76875 424.39374 29.534374Q424.39374 28.2375 423.8625 27.6125Q423.33124 26.9875 422.51874 26.9875Q421.7375 26.9875 421.22186 27.6125Q420.70624 28.221874 420.70624 29.471874ZM434.59686 28.034374L432.59686 27.675Q432.9406 26.471874 433.7531 25.89375Q434.58124 25.315624 436.1906 25.315624Q437.65936 25.315624 438.3781 25.659374Q439.09686 26.003124 439.39374 26.55Q439.6906 27.08125 439.6906 28.503124L439.65936 31.065624Q439.65936 32.159374 439.76874 32.690624Q439.8781 33.20625 440.15936 33.8L437.9875 33.8Q437.90936 33.58125 437.78436 33.14375Q437.72186 32.95625 437.70624 32.89375Q437.14374 33.440624 436.5031 33.721874Q435.8625 33.9875 435.1281 33.9875Q433.84686 33.9875 433.1125 33.3Q432.3781 32.596874 432.3781 31.534374Q432.3781 30.83125 432.70624 30.284374Q433.05 29.721874 433.64374 29.440624Q434.2531 29.14375 435.39374 28.925Q436.9406 28.628124 437.53436 28.378124L437.53436 28.159374Q437.53436 27.534374 437.22186 27.26875Q436.90936 26.9875 436.03436 26.9875Q435.45624 26.9875 435.1281 27.221874Q434.8 27.45625 434.59686 28.034374ZM437.53436 29.815624Q437.1125 29.95625 436.1906 30.159374Q435.28436 30.346874 435.0031 30.534374Q434.5656 30.83125 434.5656 31.3Q434.5656 31.76875 434.90936 32.1125Q435.2531 32.440624 435.78436 32.440624Q436.3781 32.440624 436.925 32.05Q437.3156 31.753124 437.4406 31.315624Q437.53436 31.034374 437.53436 30.253124L437.53436 29.815624ZM449.5031 33.8L447.3 33.8L447.3 29.565624Q447.3 28.221874 447.15936 27.83125Q447.01874 27.425 446.70624 27.20625Q446.39374 26.9875 445.9406 26.9875Q445.3781 26.9875 444.925 27.3Q444.47186 27.6125 444.3 28.128124Q444.1281 28.64375 444.1281 30.034374L444.1281 33.8L441.9406 33.8L441.9406 25.503124L443.97186 25.503124L443.97186 26.721874Q445.0656 25.315624 446.70624 25.315624Q447.4406 25.315624 448.03436 25.58125Q448.64374 25.83125 448.9406 26.2375Q449.2531 26.64375 449.3781 27.159374Q449.5031 27.675 449.5031 28.64375L449.5031 33.8ZM459.5656 33.8L457.51874 33.8L457.51874 32.58125Q457.01874 33.284374 456.3156 33.64375Q455.6281 33.9875 454.925 33.9875Q453.5031 33.9875 452.47186 32.83125Q451.45624 31.675 451.45624 29.6125Q451.45624 27.503124 452.4406 26.409374Q453.4406 25.315624 454.95624 25.315624Q456.34686 25.315624 457.3625 26.471874L457.3625 22.346874L459.5656 22.346874L459.5656 33.8ZM453.70624 29.471874Q453.70624 30.8 454.0656 31.39375Q454.59686 32.253124 455.55 32.253124Q456.3156 32.253124 456.84686 31.6125Q457.3781 30.95625 457.3781 29.675Q457.3781 28.253124 456.8625 27.628124Q456.34686 26.9875 455.53436 26.9875Q454.7531 26.9875 454.22186 27.6125Q453.70624 28.2375 453.70624 29.471874ZM473.1906 27.95625L471.01874 28.346874Q470.90936 27.690624 470.51874 27.3625Q470.14374 27.034374 469.51874 27.034374Q468.70624 27.034374 468.20624 27.6125Q467.72186 28.175 467.72186 29.503124Q467.72186 30.971874 468.22186 31.58125Q468.72186 32.190624 469.55 32.190624Q470.175 32.190624 470.5656 31.846874Q470.97186 31.4875 471.14374 30.6125L473.3 30.9875Q472.95624 32.471874 472.0031 33.2375Q471.05 33.9875 469.45624 33.9875Q467.6281 33.9875 466.55 32.846874Q465.47186 31.690624 465.47186 29.659374Q465.47186 27.596874 466.55 26.45625Q467.64374 25.315624 469.4875 25.315624Q471.0031 25.315624 471.89374 25.971874Q472.8 26.6125 473.1906 27.95625ZM477.05 33.8L474.8625 33.8L474.8625 25.503124L476.89374 25.503124L476.89374 26.675Q477.425 25.846874 477.83124 25.58125Q478.2531 25.315624 478.78436 25.315624Q479.53436 25.315624 480.2375 25.721874L479.55 27.64375Q479.0031 27.284374 478.51874 27.284374Q478.0656 27.284374 477.7375 27.534374Q477.425 27.784374 477.2375 28.45625Q477.05 29.1125 477.05 31.2375L477.05 33.8ZM485.7531 31.159374L487.9406 31.51875Q487.51874 32.721874 486.6125 33.3625Q485.70624 33.9875 484.33124 33.9875Q482.175 33.9875 481.1281 32.565624Q480.3156 31.440624 480.3156 29.70625Q480.3156 27.64375 481.39374 26.4875Q482.47186 25.315624 484.1125 25.315624Q485.97186 25.315624 487.03436 26.534374Q488.1125 27.753124 488.0656 30.284374L482.5656 30.284374Q482.58124 31.253124 483.08124 31.8Q483.59686 32.346874 484.3625 32.346874Q484.8781 32.346874 485.22186 32.065624Q485.58124 31.784374 485.7531 31.159374ZM485.8781 28.940624Q485.8625 27.9875 485.39374 27.4875Q484.925 26.9875 484.2531 26.9875Q483.53436 26.9875 483.0656 27.51875Q482.59686 28.034374 482.59686 28.940624L485.8781 28.940624ZM491.59686 28.034374L489.59686 27.675Q489.9406 26.471874 490.7531 25.89375Q491.58124 25.315624 493.1906 25.315624Q494.65936 25.315624 495.3781 25.659374Q496.09686 26.003124 496.39374 26.55Q496.6906 27.08125 496.6906 28.503124L496.65936 31.065624Q496.65936 32.159374 496.76874 32.690624Q496.8781 33.20625 497.15936 33.8L494.9875 33.8Q494.90936 33.58125 494.78436 33.14375Q494.72186 32.95625 494.70624 32.89375Q494.14374 33.440624 493.5031 33.721874Q492.8625 33.9875 492.1281 33.9875Q490.84686 33.9875 490.1125 33.3Q489.3781 32.596874 489.3781 31.534374Q489.3781 30.83125 489.70624 30.284374Q490.05 29.721874 490.64374 29.440624Q491.2531 29.14375 492.39374 28.925Q493.9406 28.628124 494.53436 28.378124L494.53436 28.159374Q494.53436 27.534374 494.22186 27.26875Q493.90936 26.9875 493.03436 26.9875Q492.45624 26.9875 492.1281 27.221874Q491.8 27.45625 491.59686 28.034374ZM494.53436 29.815624Q494.1125 29.95625 493.1906 30.159374Q492.28436 30.346874 492.0031 30.534374Q491.5656 30.83125 491.5656 31.3Q491.5656 31.76875 491.90936 32.1125Q492.2531 32.440624 492.78436 32.440624Q493.3781 32.440624 493.925 32.05Q494.3156 31.753124 494.4406 31.315624Q494.53436 31.034374 494.53436 30.253124L494.53436 29.815624ZM502.7531 25.503124L502.7531 27.253124L501.2531 27.253124L501.2531 30.596874Q501.2531 31.6125 501.3 31.784374Q501.34686 31.940624 501.4875 32.05Q501.64374 32.159374 501.8625 32.159374Q502.175 32.159374 502.7531 31.95625L502.9406 33.659374Q502.175 33.9875 501.20624 33.9875Q500.6125 33.9875 500.1281 33.784374Q499.65936 33.58125 499.425 33.26875Q499.20624 32.95625 499.1281 32.409374Q499.05 32.034374 499.05 30.8625L499.05 27.253124L498.05 27.253124L498.05 25.503124L499.05 25.503124L499.05 23.846874L501.2531 22.565624L501.2531 25.503124L502.7531 25.503124ZM503.95624 24.378124L503.95624 22.346874L506.14374 22.346874L506.14374 24.378124L503.95624 24.378124ZM503.95624 33.8L503.95624 25.503124L506.14374 25.503124L506.14374 33.8L503.95624 33.8ZM515.5031 33.8L513.3 33.8L513.3 29.565624Q513.3 28.221874 513.15936 27.83125Q513.01874 27.425 512.70624 27.20625Q512.39374 26.9875 511.9406 26.9875Q511.3781 26.9875 510.925 27.3Q510.47186 27.6125 510.3 28.128124Q510.1281 28.64375 510.1281 30.034374L510.1281 33.8L507.9406 33.8L507.9406 25.503124L509.97186 25.503124L509.97186 26.721874Q511.0656 25.315624 512.70624 25.315624Q513.4406 25.315624 514.03436 25.58125Q514.64374 25.83125 514.9406 26.2375Q515.2531 26.64375 515.3781 27.159374Q515.5031 27.675 515.5031 28.64375L515.5031 33.8ZM517.7531 34.346874L520.2531 34.659374Q520.3156 35.096874 520.55 35.253124Q520.8625 35.4875 521.53436 35.4875Q522.39374 35.4875 522.8156 35.2375Q523.1125 35.065624 523.2531 34.675Q523.3625 34.409374 523.3625 33.659374L523.3625 32.45625Q522.3781 33.8 520.8781 33.8Q519.20624 33.8 518.22186 32.378124Q517.45624 31.26875 517.45624 29.596874Q517.45624 27.51875 518.45624 26.425Q519.47186 25.315624 520.95624 25.315624Q522.5031 25.315624 523.5031 26.659374L523.5031 25.503124L525.55 25.503124L525.55 32.940624Q525.55 34.425 525.3 35.14375Q525.0656 35.878124 524.6281 36.284374Q524.1906 36.70625 523.45624 36.940624Q522.7375 37.175 521.6125 37.175Q519.5031 37.175 518.6125 36.440624Q517.7375 35.721874 517.7375 34.6125Q517.7375 34.503124 517.7531 34.346874ZM519.70624 29.471874Q519.70624 30.8 520.22186 31.409374Q520.7375 32.01875 521.4875 32.01875Q522.28436 32.01875 522.83124 31.39375Q523.39374 30.76875 523.39374 29.534374Q523.39374 28.2375 522.8625 27.6125Q522.33124 26.9875 521.51874 26.9875Q520.7375 26.9875 520.22186 27.6125Q519.70624 28.221874 519.70624 29.471874Z" fill-rule="nonzero"/><path fill="#757575" d="M19.175 50.425L21.378124 50.096874Q21.51875 50.7375 21.940624 51.065624Q22.378124 51.39375 23.159374 51.39375Q24.003124 51.39375 24.440624 51.08125Q24.721874 50.8625 24.721874 50.503124Q24.721874 50.253124 24.565624 50.08125Q24.409374 49.925 23.83125 49.8Q21.175 49.20625 20.471874 48.721874Q19.4875 48.05 19.4875 46.8625Q19.4875 45.784374 20.33125 45.05Q21.190624 44.315624 22.971874 44.315624Q24.675 44.315624 25.503124 44.878124Q26.33125 45.425 26.64375 46.503124L24.58125 46.89375Q24.440624 46.409374 24.065624 46.159374Q23.70625 45.89375 23.01875 45.89375Q22.14375 45.89375 21.76875 46.128124Q21.51875 46.3 21.51875 46.58125Q21.51875 46.815624 21.7375 46.971874Q22.034374 47.190624 23.784374 47.596874Q25.55 47.9875 26.2375 48.565624Q26.925 49.159374 26.925 50.20625Q26.925 51.346874 25.971874 52.175Q25.01875 52.9875 23.159374 52.9875Q21.45625 52.9875 20.471874 52.3Q19.4875 51.6125 19.175 50.425ZM28.440624 48.534374Q28.440624 47.440624 28.971874 46.425Q29.51875 45.39375 30.503124 44.8625Q31.503124 44.315624 32.721874 44.315624Q34.596874 44.315624 35.8 45.534374Q37.003124 46.753124 37.003124 48.628124Q37.003124 50.503124 35.784374 51.753124Q34.58125 52.9875 32.7375 52.9875Q31.596874 52.9875 30.55 52.471874Q29.51875 51.95625 28.971874 50.95625Q28.440624 49.95625 28.440624 48.534374ZM30.690624 48.64375Q30.690624 49.878124 31.26875 50.534374Q31.8625 51.190624 32.721874 51.190624Q33.58125 51.190624 34.159374 50.534374Q34.753124 49.878124 34.753124 48.628124Q34.753124 47.409374 34.159374 46.753124Q33.58125 46.096874 32.721874 46.096874Q31.8625 46.096874 31.26875 46.753124Q30.690624 47.409374 30.690624 48.64375ZM38.95625 52.8L38.95625 41.346874L41.14375 41.346874L41.14375 52.8L38.95625 52.8ZM48.409374 52.8L48.409374 51.55Q47.95625 52.221874 47.221874 52.6125Q46.4875 52.9875 45.659374 52.9875Q44.83125 52.9875 44.159374 52.628124Q43.503124 52.253124 43.20625 51.596874Q42.909374 50.925 42.909374 49.753124L42.909374 44.503124L45.096874 44.503124L45.096874 48.315624Q45.096874 50.065624 45.221874 50.45625Q45.346874 50.846874 45.659374 51.08125Q45.9875 51.315624 46.471874 51.315624Q47.034374 51.315624 47.471874 51.003124Q47.925 50.690624 48.08125 50.2375Q48.253124 49.784374 48.253124 48.003124L48.253124 44.503124L50.45625 44.503124L50.45625 52.8L48.409374 52.8ZM56.753124 44.503124L56.753124 46.253124L55.253124 46.253124L55.253124 49.596874Q55.253124 50.6125 55.3 50.784374Q55.346874 50.940624 55.4875 51.05Q55.64375 51.159374 55.8625 51.159374Q56.175 51.159374 56.753124 50.95625L56.940624 52.659374Q56.175 52.9875 55.20625 52.9875Q54.6125 52.9875 54.128124 52.784374Q53.659374 52.58125 53.425 52.26875Q53.20625 51.95625 53.128124 51.409374Q53.05 51.034374 53.05 49.8625L53.05 46.253124L52.05 46.253124L52.05 44.503124L53.05 44.503124L53.05 42.846874L55.253124 41.565624L55.253124 44.503124L56.753124 44.503124ZM57.95625 43.378124L57.95625 41.346874L60.14375 41.346874L60.14375 43.378124L57.95625 43.378124ZM57.95625 52.8L57.95625 44.503124L60.14375 44.503124L60.14375 52.8L57.95625 52.8ZM61.440624 48.534374Q61.440624 47.440624 61.971874 46.425Q62.51875 45.39375 63.503124 44.8625Q64.50313 44.315624 65.72188 44.315624Q67.59688 44.315624 68.8 45.534374Q70.00313 46.753124 70.00313 48.628124Q70.00313 50.503124 68.78438 51.753124Q67.58125 52.9875 65.7375 52.9875Q64.59688 52.9875 63.55 52.471874Q62.51875 51.95625 61.971874 50.95625Q61.440624 49.95625 61.440624 48.534374ZM63.690624 48.64375Q63.690624 49.878124 64.26875 50.534374Q64.8625 51.190624 65.72188 51.190624Q66.58125 51.190624 67.15938 50.534374Q67.75313 49.878124 67.75313 48.628124Q67.75313 47.409374 67.15938 46.753124Q66.58125 46.096874 65.72188 46.096874Q64.8625 46.096874 64.26875 46.753124Q63.690624 47.409374 63.690624 48.64375ZM79.50313 52.8L77.3 52.8L77.3 48.565624Q77.3 47.221874 77.15938 46.83125Q77.01875 46.425 76.70625 46.20625Q76.39375 45.9875 75.94063 45.9875Q75.37813 45.9875 74.925 46.3Q74.47188 46.6125 74.3 47.128124Q74.12813 47.64375 74.12813 49.034374L74.12813 52.8L71.94063 52.8L71.94063 44.503124L73.97188 44.503124L73.97188 45.721874Q75.06563 44.315624 76.70625 44.315624Q77.44063 44.315624 78.03438 44.58125Q78.64375 44.83125 78.94063 45.2375Q79.25313 45.64375 79.37813 46.159374Q79.50313 46.675 79.50313 47.64375L79.50313 52.8ZM81.175 50.425L83.37813 50.096874Q83.51875 50.7375 83.94063 51.065624Q84.37813 51.39375 85.15938 51.39375Q86.00313 51.39375 86.44063 51.08125Q86.72188 50.8625 86.72188 50.503124Q86.72188 50.253124 86.56563 50.08125Q86.40938 49.925 85.83125 49.8Q83.175 49.20625 82.47188 48.721874Q81.4875 48.05 81.4875 46.8625Q81.4875 45.784374 82.33125 45.05Q83.19063 44.315624 84.97188 44.315624Q86.675 44.315624 87.50313 44.878124Q88.33125 45.425 88.64375 46.503124L86.58125 46.89375Q86.44063 46.409374 86.06563 46.159374Q85.70625 45.89375 85.01875 45.89375Q84.14375 45.89375 83.76875 46.128124Q83.51875 46.3 83.51875 46.58125Q83.51875 46.815624 83.7375 46.971874Q84.03438 47.190624 85.78438 47.596874Q87.55 47.9875 88.2375 48.565624Q88.925 49.159374 88.925 50.20625Q88.925 51.346874 87.97188 52.175Q87.01875 52.9875 85.15938 52.9875Q83.45625 52.9875 82.47188 52.3Q81.4875 51.6125 81.175 50.425ZM98.75313 44.503124L98.75313 46.253124L97.25313 46.253124L97.25313 49.596874Q97.25313 50.6125 97.3 50.784374Q97.34688 50.940624 97.4875 51.05Q97.64375 51.159374 97.8625 51.159374Q98.175 51.159374 98.75313 50.95625L98.94063 52.659374Q98.175 52.9875 97.20625 52.9875Q96.6125 52.9875 96.12813 52.784374Q95.65938 52.58125 95.425 52.26875Q95.20625 51.95625 95.12813 51.409374Q95.05 51.034374 95.05 49.8625L95.05 46.253124L94.05 46.253124L94.05 44.503124L95.05 44.503124L95.05 42.846874L97.25313 41.565624L97.25313 44.503124L98.75313 44.503124ZM99.44063 48.534374Q99.44063 47.440624 99.97188 46.425Q100.51875 45.39375 101.50313 44.8625Q102.50313 44.315624 103.72188 44.315624Q105.59688 44.315624 106.8 45.534374Q108.00313 46.753124 108.00313 48.628124Q108.00313 50.503124 106.78438 51.753124Q105.58125 52.9875 103.7375 52.9875Q102.59688 52.9875 101.55 52.471874Q100.51875 51.95625 99.97188 50.95625Q99.44063 49.95625 99.44063 48.534374ZM101.69063 48.64375Q101.69063 49.878124 102.26875 50.534374Q102.8625 51.190624 103.72188 51.190624Q104.58125 51.190624 105.15938 50.534374Q105.75313 49.878124 105.75313 48.628124Q105.75313 47.409374 105.15938 46.753124Q104.58125 46.096874 103.72188 46.096874Q102.8625 46.096874 102.26875 46.753124Q101.69063 47.409374 101.69063 48.64375ZM121.50313 52.8L119.3 52.8L119.3 48.565624Q119.3 47.221874 119.15938 46.83125Q119.01875 46.425 118.70625 46.20625Q118.39375 45.9875 117.94063 45.9875Q117.37813 45.9875 116.925 46.3Q116.47188 46.6125 116.3 47.128124Q116.12813 47.64375 116.12813 49.034374L116.12813 52.8L113.94063 52.8L113.94063 44.503124L115.97188 44.503124L115.97188 45.721874Q117.06563 44.315624 118.70625 44.315624Q119.44063 44.315624 120.03438 44.58125Q120.64375 44.83125 120.94063 45.2375Q121.25313 45.64375 121.37813 46.159374Q121.50313 46.675 121.50313 47.64375L121.50313 52.8ZM128.75313 50.159374L130.94063 50.51875Q130.51875 51.721874 129.6125 52.3625Q128.70625 52.9875 127.33125 52.9875Q125.175 52.9875 124.12813 51.565624Q123.31563 50.440624 123.31563 48.70625Q123.31563 46.64375 124.39375 45.4875Q125.47188 44.315624 127.1125 44.315624Q128.97188 44.315624 130.03438 45.534374Q131.1125 46.753124 131.06563 49.284374L125.56563 49.284374Q125.58125 50.253124 126.08125 50.8Q126.59688 51.346874 127.3625 51.346874Q127.87813 51.346874 128.22188 51.065624Q128.58125 50.784374 128.75313 50.159374ZM128.87813 47.940624Q128.8625 46.9875 128.39375 46.4875Q127.925 45.9875 127.25313 45.9875Q126.53438 45.9875 126.06563 46.51875Q125.59688 47.034374 125.59688 47.940624L128.87813 47.940624ZM134.50313 52.8L131.87813 44.503124L134.00313 44.503124L135.56563 49.940624L136.9875 44.503124L139.1125 44.503124L140.4875 49.940624L142.08125 44.503124L144.2375 44.503124L141.58125 52.8L139.47188 52.8L138.03438 47.45625L136.62813 52.8L134.50313 52.8ZM148.89375 44.503124L150.94063 44.503124L150.94063 45.721874Q151.33125 45.096874 152.00313 44.70625Q152.69063 44.315624 153.51875 44.315624Q154.97188 44.315624 155.97188 45.45625Q156.9875 46.58125 156.9875 48.596874Q156.9875 50.675 155.97188 51.83125Q154.95625 52.9875 153.50313 52.9875Q152.81563 52.9875 152.25313 52.721874Q151.70625 52.440624 151.08125 51.76875L151.08125 55.95625L148.89375 55.95625L148.89375 44.503124ZM151.06563 48.503124Q151.06563 49.909374 151.6125 50.58125Q152.175 51.2375 152.97188 51.2375Q153.7375 51.2375 154.2375 50.628124Q154.75313 50.01875 154.75313 48.6125Q154.75313 47.315624 154.22188 46.690624Q153.70625 46.05 152.925 46.05Q152.12813 46.05 151.59688 46.675Q151.06563 47.284374 151.06563 48.503124ZM161.05 52.8L158.8625 52.8L158.8625 44.503124L160.89375 44.503124L160.89375 45.675Q161.425 44.846874 161.83125 44.58125Q162.25313 44.315624 162.78438 44.315624Q163.53438 44.315624 164.2375 44.721874L163.55 46.64375Q163.00313 46.284374 162.51875 46.284374Q162.06563 46.284374 161.7375 46.534374Q161.425 46.784374 161.2375 47.45625Q161.05 48.1125 161.05 50.2375L161.05 52.8ZM164.44063 48.534374Q164.44063 47.440624 164.97188 46.425Q165.51875 45.39375 166.50313 44.8625Q167.50313 44.315624 168.72188 44.315624Q170.59688 44.315624 171.8 45.534374Q173.00313 46.753124 173.00313 48.628124Q173.00313 50.503124 171.78438 51.753124Q170.58125 52.9875 168.7375 52.9875Q167.59688 52.9875 166.55 52.471874Q165.51875 51.95625 164.97188 50.95625Q164.44063 49.95625 164.44063 48.534374ZM166.69063 48.64375Q166.69063 49.878124 167.26875 50.534374Q167.8625 51.190624 168.72188 51.190624Q169.58125 51.190624 170.15938 50.534374Q170.75313 49.878124 170.75313 48.628124Q170.75313 47.409374 170.15938 46.753124Q169.58125 46.096874 168.72188 46.096874Q167.8625 46.096874 167.26875 46.753124Q166.69063 47.409374 166.69063 48.64375ZM174.8625 52.8L174.8625 41.346874L177.05 41.346874L177.05 45.471874Q178.06563 44.315624 179.45625 44.315624Q180.97188 44.315624 181.95625 45.409374Q182.95625 46.503124 182.95625 48.565624Q182.95625 50.690624 181.94063 51.846874Q180.94063 52.9875 179.4875 52.9875Q178.78438 52.9875 178.08125 52.628124Q177.39375 52.26875 176.89375 51.58125L176.89375 52.8L174.8625 52.8ZM177.03438 48.471874Q177.03438 49.753124 177.44063 50.378124Q178.01875 51.253124 178.95625 51.253124Q179.69063 51.253124 180.19063 50.628124Q180.70625 50.003124 180.70625 48.675Q180.70625 47.253124 180.19063 46.628124Q179.675 45.9875 178.87813 45.9875Q178.08125 45.9875 177.55 46.6125Q177.03438 47.221874 177.03438 48.471874ZM184.95625 52.8L184.95625 41.346874L187.14375 41.346874L187.14375 52.8L184.95625 52.8ZM193.75313 50.159374L195.94063 50.51875Q195.51875 51.721874 194.6125 52.3625Q193.70625 52.9875 192.33125 52.9875Q190.175 52.9875 189.12813 51.565624Q188.31563 50.440624 188.31563 48.70625Q188.31563 46.64375 189.39375 45.4875Q190.47188 44.315624 192.1125 44.315624Q193.97188 44.315624 195.03438 45.534374Q196.1125 46.753124 196.06563 49.284374L190.56563 49.284374Q190.58125 50.253124 191.08125 50.8Q191.59688 51.346874 192.3625 51.346874Q192.87813 51.346874 193.22188 51.065624Q193.58125 50.784374 193.75313 50.159374ZM193.87813 47.940624Q193.8625 46.9875 193.39375 46.4875Q192.925 45.9875 192.25313 45.9875Q191.53438 45.9875 191.06563 46.51875Q190.59688 47.034374 190.59688 47.940624L193.87813 47.940624ZM197.78438 44.503124L199.81563 44.503124L199.81563 45.628124Q200.89375 44.315624 202.39375 44.315624Q203.19063 44.315624 203.76875 44.64375Q204.3625 44.971874 204.7375 45.628124Q205.28438 44.971874 205.90938 44.64375Q206.55 44.315624 207.26875 44.315624Q208.19063 44.315624 208.81563 44.690624Q209.45625 45.05 209.76875 45.76875Q209.9875 46.3 209.9875 47.4875L209.9875 52.8L207.8 52.8L207.8 48.05Q207.8 46.815624 207.56563 46.45625Q207.26875 45.9875 206.62813 45.9875Q206.175 45.9875 205.76875 46.26875Q205.3625 46.55 205.175 47.096874Q205.00313 47.64375 205.00313 48.815624L205.00313 52.8L202.8 52.8L202.8 48.253124Q202.8 47.034374 202.675 46.690624Q202.56563 46.33125 202.31563 46.159374Q202.08125 45.9875 201.65938 45.9875Q201.14375 45.9875 200.7375 46.26875Q200.33125 46.534374 200.15938 47.05Q199.9875 47.565624 199.9875 48.76875L199.9875 52.8L197.78438 52.8L197.78438 44.503124ZM211.175 50.425L213.37813 50.096874Q213.51875 50.7375 213.94063 51.065624Q214.37813 51.39375 215.15938 51.39375Q216.00313 51.39375 216.44063 51.08125Q216.72188 50.8625 216.72188 50.503124Q216.72188 50.253124 216.56563 50.08125Q216.40938 49.925 215.83125 49.8Q213.175 49.20625 212.47188 48.721874Q211.4875 48.05 211.4875 46.8625Q211.4875 45.784374 212.33125 45.05Q213.19063 44.315624 214.97188 44.315624Q216.675 44.315624 217.50313 44.878124Q218.33125 45.425 218.64375 46.503124L216.58125 46.89375Q216.44063 46.409374 216.06563 46.159374Q215.70625 45.89375 215.01875 45.89375Q214.14375 45.89375 213.76875 46.128124Q213.51875 46.3 213.51875 46.58125Q213.51875 46.815624 213.7375 46.971874Q214.03438 47.190624 215.78438 47.596874Q217.55 47.9875 218.2375 48.565624Q218.925 49.159374 218.925 50.20625Q218.925 51.346874 217.97188 52.175Q217.01875 52.9875 215.15938 52.9875Q213.45625 52.9875 212.47188 52.3Q211.4875 51.6125 211.175 50.425ZM225.675 49.846874L223.675 49.846874Q223.675 49.409374 223.675 49.315624Q223.675 48.346874 223.9875 47.721874Q224.31563 47.096874 225.26875 46.315624Q226.2375 45.534374 226.425 45.3Q226.70625 44.909374 226.70625 44.45625Q226.70625 43.815624 226.19063 43.3625Q225.69063 42.89375 224.81563 42.89375Q223.9875 42.89375 223.425 43.378124Q222.8625 43.846874 222.64375 44.83125L220.62813 44.58125Q220.72188 43.175 221.81563 42.20625Q222.925 41.221874 224.72188 41.221874Q226.6125 41.221874 227.72188 42.221874Q228.84688 43.20625 228.84688 44.51875Q228.84688 45.2375 228.44063 45.89375Q228.03438 46.534374 226.69063 47.659374Q225.9875 48.2375 225.81563 48.596874Q225.65938 48.940624 225.675 49.846874ZM223.675 52.8L223.675 50.596874L225.87813 50.596874L225.87813 52.8L223.675 52.8Z" fill-rule="nonzero"/></svg>