<svg version="1.1" viewBox="0.0 0.0 612.0 376.0" fill="none" stroke="none" stroke-linecap="square" stroke-miterlimit="10" width="612" height="376" xmlns:xlink="http://www.w3.org/1999/xlink" xmlns="http://www.w3.org/2000/svg"><path fill="#ffffff" d="M0 0L612.0 0L612.0 376.0L0 376.0L0 0Z" fill-rule="nonzero"/><path stroke="#333333" stroke-width="1.0" stroke-linecap="butt" d="M73.5 337.5L593.5 337.5" fill-rule="nonzero"/><path stroke="#cccccc" stroke-width="1.0" stroke-linecap="butt" d="M73.5 273.5L593.5 273.5" fill-rule="nonzero"/><path stroke="#cccccc" stroke-width="1.0" stroke-linecap="butt" d="M73.5 210.5L593.5 210.5" fill-rule="nonzero"/><path stroke="#cccccc" stroke-width="1.0" stroke-linecap="butt" d="M73.5 147.5L593.5 147.5" fill-rule="nonzero"/><path stroke="#cccccc" stroke-width="1.0" stroke-linecap="butt" d="M73.5 83.5L593.5 83.5" fill-rule="nonzero"/><path stroke="#000000" stroke-width="1.0" stroke-linecap="butt" d="M73.5 337.5L73.5 83.5" fill-rule="nonzero"/><clipPath id="id_0"><path d="M73.8 83.86667L593.2 83.86667L593.2 337.2L73.8 337.2L73.8 83.86667Z" clip-rule="nonzero"/></clipPath><path stroke="#000000" stroke-width="2.0" stroke-linecap="butt" stroke-opacity="0.0" clip-path="url(#id_0)" d="M153.0 337.0L116.0 337.0L116.0 337.0L153.0 337.0Z" fill-rule="nonzero"/><path fill="#f9cb9c" clip-path="url(#id_0)" d="M153.0 337.0L116.0 337.0L116.0 337.0L153.0 337.0Z" fill-rule="nonzero"/><path stroke="#000000" stroke-width="2.0" stroke-linecap="butt" stroke-opacity="0.0" clip-path="url(#id_0)" d="M273.0 337.0L236.0 337.0L236.0 231.0C236.0 229.89543 236.89543 229.0 238.0 229.0L271.0 229.0C272.10458 229.0 273.0 229.89543 273.0 231.0Z" fill-rule="nonzero"/><path fill="#f9cb9c" clip-path="url(#id_0)" d="M273.0 337.0L236.0 337.0L236.0 231.0C236.0 229.89543 236.89543 229.0 238.0 229.0L271.0 229.0C272.10458 229.0 273.0 229.89543 273.0 231.0Z" fill-rule="nonzero"/><path stroke="#000000" stroke-width="2.0" stroke-linecap="butt" stroke-opacity="0.0" clip-path="url(#id_0)" d="M392.0 337.0L355.0 337.0L355.0 195.0C355.0 193.89543 355.89542 193.0 357.0 193.0L390.0 193.0C391.10458 193.0 392.0 193.89543 392.0 195.0Z" fill-rule="nonzero"/><path fill="#f9cb9c" clip-path="url(#id_0)" d="M392.0 337.0L355.0 337.0L355.0 195.0C355.0 193.89543 355.89542 193.0 357.0 193.0L390.0 193.0C391.10458 193.0 392.0 193.89543 392.0 195.0Z" fill-rule="nonzero"/><path stroke="#000000" stroke-width="2.0" stroke-linecap="butt" stroke-opacity="0.0" clip-path="url(#id_0)" d="M512.0 337.0L475.0 337.0L475.0 337.0L512.0 337.0Z" fill-rule="nonzero"/><path fill="#f9cb9c" clip-path="url(#id_0)" d="M512.0 337.0L475.0 337.0L475.0 337.0L512.0 337.0Z" fill-rule="nonzero"/><path stroke="#000000" stroke-width="2.0" stroke-linecap="butt" stroke-opacity="0.0" clip-path="url(#id_0)" d="M192.0 337.0L155.0 337.0L155.0 139.0C155.0 137.89543 155.89543 137.0 157.0 137.0L190.0 137.0C191.10457 137.0 192.0 137.89543 192.0 139.0Z" fill-rule="nonzero"/><path fill="#a4c2f4" clip-path="url(#id_0)" d="M192.0 337.0L155.0 337.0L155.0 139.0C155.0 137.89543 155.89543 137.0 157.0 137.0L190.0 137.0C191.10457 137.0 192.0 137.89543 192.0 139.0Z" fill-rule="nonzero"/><path stroke="#000000" stroke-width="2.0" stroke-linecap="butt" stroke-opacity="0.0" clip-path="url(#id_0)" d="M312.0 337.0L275.0 337.0L275.0 286.0C275.0 284.89542 275.89542 284.0 277.0 284.0L310.0 284.0C311.10458 284.0 312.0 284.89542 312.0 286.0Z" fill-rule="nonzero"/><path fill="#a4c2f4" clip-path="url(#id_0)" d="M312.0 337.0L275.0 337.0L275.0 286.0C275.0 284.89542 275.89542 284.0 277.0 284.0L310.0 284.0C311.10458 284.0 312.0 284.89542 312.0 286.0Z" fill-rule="nonzero"/><path stroke="#000000" stroke-width="2.0" stroke-linecap="butt" stroke-opacity="0.0" clip-path="url(#id_0)" d="M431.0 337.0L394.0 337.0L394.0 337.0L431.0 337.0Z" fill-rule="nonzero"/><path fill="#a4c2f4" clip-path="url(#id_0)" d="M431.0 337.0L394.0 337.0L394.0 337.0L431.0 337.0Z" fill-rule="nonzero"/><path stroke="#000000" stroke-width="2.0" stroke-linecap="butt" stroke-opacity="0.0" clip-path="url(#id_0)" d="M551.0 337.0L514.0 337.0L514.0 337.0L551.0 337.0Z" fill-rule="nonzero"/><path fill="#a4c2f4" clip-path="url(#id_0)" d="M551.0 337.0L514.0 337.0L514.0 337.0L551.0 337.0Z" fill-rule="nonzero"/><path fill="#000000" d="M33.3 336.96564Q33.3 335.4344 33.6125 334.5125Q33.925 333.575 34.534374 333.075Q35.159374 332.575 36.096874 332.575Q36.784374 332.575 37.3 332.85626Q37.83125 333.1375 38.175 333.66876Q38.51875 334.1844 38.70625 334.9344Q38.89375 335.6844 38.89375 336.96564Q38.89375 338.48126 38.58125 339.40314Q38.284374 340.325 37.659374 340.84064Q37.05 341.34064 36.096874 341.34064Q34.8625 341.34064 34.14375 340.45Q33.3 339.3875 33.3 336.96564ZM34.378124 336.96564Q34.378124 339.075 34.878124 339.77814Q35.378124 340.48126 36.096874 340.48126Q36.83125 340.48126 37.315624 339.77814Q37.815624 339.075 37.815624 336.96564Q37.815624 334.84064 37.315624 334.15314Q36.83125 333.45 36.08125 333.45Q35.3625 333.45 34.925 334.0594Q34.378124 334.84064 34.378124 336.96564ZM40.89375 341.2L40.89375 339.9969L42.096874 339.9969L42.096874 341.2L40.89375 341.2ZM43.3 336.96564Q43.3 335.4344 43.6125 334.5125Q43.925 333.575 44.534374 333.075Q45.159374 332.575 46.096874 332.575Q46.784374 332.575 47.3 332.85626Q47.83125 333.1375 48.175 333.66876Q48.51875 334.1844 48.70625 334.9344Q48.89375 335.6844 48.89375 336.96564Q48.89375 338.48126 48.58125 339.40314Q48.284374 340.325 47.659374 340.84064Q47.05 341.34064 46.096874 341.34064Q44.8625 341.34064 44.14375 340.45Q43.3 339.3875 43.3 336.96564ZM44.378124 336.96564Q44.378124 339.075 44.878124 339.77814Q45.378124 340.48126 46.096874 340.48126Q46.83125 340.48126 47.315624 339.77814Q47.815624 339.075 47.815624 336.96564Q47.815624 334.84064 47.315624 334.15314Q46.83125 333.45 46.08125 333.45Q45.3625 333.45 44.925 334.0594Q44.378124 334.84064 44.378124 336.96564ZM50.3 336.96564Q50.3 335.4344 50.6125 334.5125Q50.925 333.575 51.534374 333.075Q52.159374 332.575 53.096874 332.575Q53.784374 332.575 54.3 332.85626Q54.83125 333.1375 55.175 333.66876Q55.51875 334.1844 55.70625 334.9344Q55.89375 335.6844 55.89375 336.96564Q55.89375 338.48126 55.58125 339.40314Q55.284374 340.325 54.659374 340.84064Q54.05 341.34064 53.096874 341.34064Q51.8625 341.34064 51.14375 340.45Q50.3 339.3875 50.3 336.96564ZM51.378124 336.96564Q51.378124 339.075 51.878124 339.77814Q52.378124 340.48126 53.096874 340.48126Q53.83125 340.48126 54.315624 339.77814Q54.815624 339.075 54.815624 336.96564Q54.815624 334.84064 54.315624 334.15314Q53.83125 333.45 53.08125 333.45Q52.3625 333.45 51.925 334.0594Q51.378124 334.84064 51.378124 336.96564ZM57.503124 334.66876Q57.503124 333.7469 57.95625 333.10626Q58.425 332.46564 59.3 332.46564Q60.1125 332.46564 60.64375 333.04376Q61.175 333.6219 61.175 334.73126Q61.175 335.825 60.628124 336.41876Q60.096874 336.9969 59.315624 336.9969Q58.534374 336.9969 58.01875 336.41876Q57.503124 335.84064 57.503124 334.66876ZM59.33125 333.1844Q58.940624 333.1844 58.675 333.52814Q58.425 333.8719 58.425 334.77814Q58.425 335.60626 58.675 335.95Q58.940624 336.27814 59.33125 336.27814Q59.7375 336.27814 59.9875 335.9344Q60.253124 335.59064 60.253124 334.7Q60.253124 333.85626 59.9875 333.52814Q59.721874 333.1844 59.33125 333.1844ZM59.33125 341.5125L64.03438 332.46564L64.89375 332.46564L60.20625 341.5125L59.33125 341.5125ZM63.05 339.1844Q63.05 338.2625 63.503124 337.6219Q63.971874 336.98126 64.8625 336.98126Q65.675 336.98126 66.20625 337.5594Q66.7375 338.1219 66.7375 339.2469Q66.7375 340.34064 66.19063 340.9344Q65.65938 341.5125 64.8625 341.5125Q64.09688 341.5125 63.565624 340.9344Q63.05 340.35626 63.05 339.1844ZM64.89375 337.7Q64.4875 337.7 64.22188 338.04376Q63.971874 338.3875 63.971874 339.29376Q63.971874 340.10626 64.2375 340.45Q64.50313 340.79376 64.89375 340.79376Q65.28438 340.79376 65.55 340.45Q65.81563 340.10626 65.81563 339.2Q65.81563 338.3719 65.55 338.04376Q65.28438 337.7 64.89375 337.7Z" fill-rule="nonzero"/><path fill="#000000" d="M31.846874 276.85104L31.846874 277.86667L26.159374 277.86667Q26.159374 277.49167 26.284374 277.1323Q26.503124 276.55417 26.971874 275.99167Q27.45625 275.42917 28.3625 274.6948Q29.76875 273.53854 30.253124 272.86667Q30.753124 272.1948 30.753124 271.60104Q30.753124 270.97604 30.3 270.55417Q29.846874 270.11667 29.128124 270.11667Q28.3625 270.11667 27.909374 270.5698Q27.45625 271.02292 27.440624 271.83542L26.3625 271.72604Q26.471874 270.5073 27.190624 269.8823Q27.925 269.24167 29.159374 269.24167Q30.39375 269.24167 31.1125 269.92917Q31.83125 270.61667 31.83125 271.6323Q31.83125 272.14792 31.6125 272.64792Q31.409374 273.1323 30.909374 273.6948Q30.425 274.24167 29.3 275.1948Q28.346874 275.99167 28.065624 276.28854Q27.8 276.5698 27.628124 276.85104L31.846874 276.85104ZM33.3 275.61667L34.409374 275.52292Q34.534374 276.33542 34.971874 276.74167Q35.425 277.14792 36.065624 277.14792Q36.815624 277.14792 37.346874 276.5698Q37.878124 275.99167 37.878124 275.05417Q37.878124 274.14792 37.3625 273.6323Q36.8625 273.10104 36.034374 273.10104Q35.534374 273.10104 35.1125 273.33542Q34.70625 273.5698 34.471874 273.92917L33.4875 273.80417L34.315624 269.39792L38.596874 269.39792L38.596874 270.39792L35.159374 270.39792L34.70625 272.71042Q35.471874 272.16354 36.315624 272.16354Q37.440624 272.16354 38.20625 272.9448Q38.9875 273.72604 38.9875 274.96042Q38.9875 276.11667 38.315624 276.97604Q37.4875 278.0073 36.065624 278.0073Q34.89375 278.0073 34.14375 277.35104Q33.409374 276.6948 33.3 275.61667ZM40.89375 277.86667L40.89375 276.66354L42.096874 276.66354L42.096874 277.86667L40.89375 277.86667ZM43.3 273.6323Q43.3 272.10104 43.6125 271.17917Q43.925 270.24167 44.534374 269.74167Q45.159374 269.24167 46.096874 269.24167Q46.784374 269.24167 47.3 269.52292Q47.83125 269.80417 48.175 270.33542Q48.51875 270.85104 48.70625 271.60104Q48.89375 272.35104 48.89375 273.6323Q48.89375 275.14792 48.58125 276.0698Q48.284374 276.99167 47.659374 277.5073Q47.05 278.0073 46.096874 278.0073Q44.8625 278.0073 44.14375 277.11667Q43.3 276.05417 43.3 273.6323ZM44.378124 273.6323Q44.378124 275.74167 44.878124 276.4448Q45.378124 277.14792 46.096874 277.14792Q46.83125 277.14792 47.315624 276.4448Q47.815624 275.74167 47.815624 273.6323Q47.815624 271.5073 47.315624 270.8198Q46.83125 270.11667 46.08125 270.11667Q45.3625 270.11667 44.925 270.72604Q44.378124 271.5073 44.378124 273.6323ZM50.3 273.6323Q50.3 272.10104 50.6125 271.17917Q50.925 270.24167 51.534374 269.74167Q52.159374 269.24167 53.096874 269.24167Q53.784374 269.24167 54.3 269.52292Q54.83125 269.80417 55.175 270.33542Q55.51875 270.85104 55.70625 271.60104Q55.89375 272.35104 55.89375 273.6323Q55.89375 275.14792 55.58125 276.0698Q55.284374 276.99167 54.659374 277.5073Q54.05 278.0073 53.096874 278.0073Q51.8625 278.0073 51.14375 277.11667Q50.3 276.05417 50.3 273.6323ZM51.378124 273.6323Q51.378124 275.74167 51.878124 276.4448Q52.378124 277.14792 53.096874 277.14792Q53.83125 277.14792 54.315624 276.4448Q54.815624 275.74167 54.815624 273.6323Q54.815624 271.5073 54.315624 270.8198Q53.83125 270.11667 53.08125 270.11667Q52.3625 270.11667 51.925 270.72604Q51.378124 271.5073 51.378124 273.6323ZM57.503124 271.33542Q57.503124 270.41354 57.95625 269.77292Q58.425 269.1323 59.3 269.1323Q60.1125 269.1323 60.64375 269.71042Q61.175 270.28854 61.175 271.39792Q61.175 272.49167 60.628124 273.08542Q60.096874 273.66354 59.315624 273.66354Q58.534374 273.66354 58.01875 273.08542Q57.503124 272.5073 57.503124 271.33542ZM59.33125 269.85104Q58.940624 269.85104 58.675 270.1948Q58.425 270.53854 58.425 271.4448Q58.425 272.27292 58.675 272.61667Q58.940624 272.9448 59.33125 272.9448Q59.7375 272.9448 59.9875 272.60104Q60.253124 272.2573 60.253124 271.36667Q60.253124 270.52292 59.9875 270.1948Q59.721874 269.85104 59.33125 269.85104ZM59.33125 278.17917L64.03438 269.1323L64.89375 269.1323L60.20625 278.17917L59.33125 278.17917ZM63.05 275.85104Q63.05 274.92917 63.503124 274.28854Q63.971874 273.64792 64.8625 273.64792Q65.675 273.64792 66.20625 274.22604Q66.7375 274.78854 66.7375 275.91354Q66.7375 277.0073 66.19063 277.60104Q65.65938 278.17917 64.8625 278.17917Q64.09688 278.17917 63.565624 277.60104Q63.05 277.02292 63.05 275.85104ZM64.89375 274.36667Q64.4875 274.36667 64.22188 274.71042Q63.971874 275.05417 63.971874 275.96042Q63.971874 276.77292 64.2375 277.11667Q64.50313 277.46042 64.89375 277.46042Q65.28438 277.46042 65.55 277.11667Q65.81563 276.77292 65.81563 275.86667Q65.81563 275.03854 65.55 274.71042Q65.28438 274.36667 64.89375 274.36667Z" fill-rule="nonzero"/><path fill="#000000" d="M26.3 212.28334L27.409374 212.18959Q27.534374 213.00209 27.971874 213.40834Q28.425 213.81459 29.065624 213.81459Q29.815624 213.81459 30.346874 213.23647Q30.878124 212.65834 30.878124 211.72084Q30.878124 210.81459 30.3625 210.29897Q29.8625 209.76772 29.034374 209.76772Q28.534374 209.76772 28.1125 210.00209Q27.70625 210.23647 27.471874 210.59584L26.4875 210.47084L27.315624 206.06459L31.596874 206.06459L31.596874 207.06459L28.159374 207.06459L27.70625 209.37709Q28.471874 208.83022 29.315624 208.83022Q30.440624 208.83022 31.20625 209.61147Q31.9875 210.39272 31.9875 211.62709Q31.9875 212.78334 31.315624 213.64272Q30.4875 214.67397 29.065624 214.67397Q27.89375 214.67397 27.14375 214.01772Q26.409374 213.36147 26.3 212.28334ZM33.3 210.29897Q33.3 208.76772 33.6125 207.84584Q33.925 206.90834 34.534374 206.40834Q35.159374 205.90834 36.096874 205.90834Q36.784374 205.90834 37.3 206.18959Q37.83125 206.47084 38.175 207.00209Q38.51875 207.51772 38.70625 208.26772Q38.89375 209.01772 38.89375 210.29897Q38.89375 211.81459 38.58125 212.73647Q38.284374 213.65834 37.659374 214.17397Q37.05 214.67397 36.096874 214.67397Q34.8625 214.67397 34.14375 213.78334Q33.3 212.72084 33.3 210.29897ZM34.378124 210.29897Q34.378124 212.40834 34.878124 213.11147Q35.378124 213.81459 36.096874 213.81459Q36.83125 213.81459 37.315624 213.11147Q37.815624 212.40834 37.815624 210.29897Q37.815624 208.17397 37.315624 207.48647Q36.83125 206.78334 36.08125 206.78334Q35.3625 206.78334 34.925 207.39272Q34.378124 208.17397 34.378124 210.29897ZM40.89375 214.53334L40.89375 213.33022L42.096874 213.33022L42.096874 214.53334L40.89375 214.53334ZM43.3 210.29897Q43.3 208.76772 43.6125 207.84584Q43.925 206.90834 44.534374 206.40834Q45.159374 205.90834 46.096874 205.90834Q46.784374 205.90834 47.3 206.18959Q47.83125 206.47084 48.175 207.00209Q48.51875 207.51772 48.70625 208.26772Q48.89375 209.01772 48.89375 210.29897Q48.89375 211.81459 48.58125 212.73647Q48.284374 213.65834 47.659374 214.17397Q47.05 214.67397 46.096874 214.67397Q44.8625 214.67397 44.14375 213.78334Q43.3 212.72084 43.3 210.29897ZM44.378124 210.29897Q44.378124 212.40834 44.878124 213.11147Q45.378124 213.81459 46.096874 213.81459Q46.83125 213.81459 47.315624 213.11147Q47.815624 212.40834 47.815624 210.29897Q47.815624 208.17397 47.315624 207.48647Q46.83125 206.78334 46.08125 206.78334Q45.3625 206.78334 44.925 207.39272Q44.378124 208.17397 44.378124 210.29897ZM50.3 210.29897Q50.3 208.76772 50.6125 207.84584Q50.925 206.90834 51.534374 206.40834Q52.159374 205.90834 53.096874 205.90834Q53.784374 205.90834 54.3 206.18959Q54.83125 206.47084 55.175 207.00209Q55.51875 207.51772 55.70625 208.26772Q55.89375 209.01772 55.89375 210.29897Q55.89375 211.81459 55.58125 212.73647Q55.284374 213.65834 54.659374 214.17397Q54.05 214.67397 53.096874 214.67397Q51.8625 214.67397 51.14375 213.78334Q50.3 212.72084 50.3 210.29897ZM51.378124 210.29897Q51.378124 212.40834 51.878124 213.11147Q52.378124 213.81459 53.096874 213.81459Q53.83125 213.81459 54.315624 213.11147Q54.815624 212.40834 54.815624 210.29897Q54.815624 208.17397 54.315624 207.48647Q53.83125 206.78334 53.08125 206.78334Q52.3625 206.78334 51.925 207.39272Q51.378124 208.17397 51.378124 210.29897ZM57.503124 208.00209Q57.503124 207.08022 57.95625 206.43959Q58.425 205.79897 59.3 205.79897Q60.1125 205.79897 60.64375 206.37709Q61.175 206.95522 61.175 208.06459Q61.175 209.15834 60.628124 209.75209Q60.096874 210.33022 59.315624 210.33022Q58.534374 210.33022 58.01875 209.75209Q57.503124 209.17397 57.503124 208.00209ZM59.33125 206.51772Q58.940624 206.51772 58.675 206.86147Q58.425 207.20522 58.425 208.11147Q58.425 208.93959 58.675 209.28334Q58.940624 209.61147 59.33125 209.61147Q59.7375 209.61147 59.9875 209.26772Q60.253124 208.92397 60.253124 208.03334Q60.253124 207.18959 59.9875 206.86147Q59.721874 206.51772 59.33125 206.51772ZM59.33125 214.84584L64.03438 205.79897L64.89375 205.79897L60.20625 214.84584L59.33125 214.84584ZM63.05 212.51772Q63.05 211.59584 63.503124 210.95522Q63.971874 210.31459 64.8625 210.31459Q65.675 210.31459 66.20625 210.89272Q66.7375 211.45522 66.7375 212.58022Q66.7375 213.67397 66.19063 214.26772Q65.65938 214.84584 64.8625 214.84584Q64.09688 214.84584 63.565624 214.26772Q63.05 213.68959 63.05 212.51772ZM64.89375 211.03334Q64.4875 211.03334 64.22188 211.37709Q63.971874 211.72084 63.971874 212.62709Q63.971874 213.43959 64.2375 213.78334Q64.50313 214.12709 64.89375 214.12709Q65.28438 214.12709 65.55 213.78334Q65.81563 213.43959 65.81563 212.53334Q65.81563 211.70522 65.55 211.37709Q65.28438 211.03334 64.89375 211.03334Z" fill-rule="nonzero"/><path fill="#000000" d="M26.3625 143.73125L26.3625 142.71562L31.925 142.71562L31.925 143.54375Q31.1125 144.41875 30.3 145.87187Q29.503124 147.30937 29.065624 148.84062Q28.7375 149.91875 28.659374 151.2L27.565624 151.2Q27.58125 150.18437 27.95625 148.74687Q28.346874 147.30937 29.05 145.98125Q29.76875 144.65312 30.58125 143.73125L26.3625 143.73125ZM33.3 148.95L34.409374 148.85625Q34.534374 149.66875 34.971874 150.075Q35.425 150.48125 36.065624 150.48125Q36.815624 150.48125 37.346874 149.90312Q37.878124 149.325 37.878124 148.3875Q37.878124 147.48125 37.3625 146.96562Q36.8625 146.43437 36.034374 146.43437Q35.534374 146.43437 35.1125 146.66875Q34.70625 146.90312 34.471874 147.2625L33.4875 147.1375L34.315624 142.73125L38.596874 142.73125L38.596874 143.73125L35.159374 143.73125L34.70625 146.04375Q35.471874 145.49687 36.315624 145.49687Q37.440624 145.49687 38.20625 146.27812Q38.9875 147.05937 38.9875 148.29375Q38.9875 149.45 38.315624 150.30937Q37.4875 151.34062 36.065624 151.34062Q34.89375 151.34062 34.14375 150.68437Q33.409374 150.02812 33.3 148.95ZM40.89375 151.2L40.89375 149.99687L42.096874 149.99687L42.096874 151.2L40.89375 151.2ZM43.3 146.96562Q43.3 145.43437 43.6125 144.5125Q43.925 143.575 44.534374 143.075Q45.159374 142.575 46.096874 142.575Q46.784374 142.575 47.3 142.85625Q47.83125 143.1375 48.175 143.66875Q48.51875 144.18437 48.70625 144.93437Q48.89375 145.68437 48.89375 146.96562Q48.89375 148.48125 48.58125 149.40312Q48.284374 150.325 47.659374 150.84062Q47.05 151.34062 46.096874 151.34062Q44.8625 151.34062 44.14375 150.45Q43.3 149.3875 43.3 146.96562ZM44.378124 146.96562Q44.378124 149.075 44.878124 149.77812Q45.378124 150.48125 46.096874 150.48125Q46.83125 150.48125 47.315624 149.77812Q47.815624 149.075 47.815624 146.96562Q47.815624 144.84062 47.315624 144.15312Q46.83125 143.45 46.08125 143.45Q45.3625 143.45 44.925 144.05937Q44.378124 144.84062 44.378124 146.96562ZM50.3 146.96562Q50.3 145.43437 50.6125 144.5125Q50.925 143.575 51.534374 143.075Q52.159374 142.575 53.096874 142.575Q53.784374 142.575 54.3 142.85625Q54.83125 143.1375 55.175 143.66875Q55.51875 144.18437 55.70625 144.93437Q55.89375 145.68437 55.89375 146.96562Q55.89375 148.48125 55.58125 149.40312Q55.284374 150.325 54.659374 150.84062Q54.05 151.34062 53.096874 151.34062Q51.8625 151.34062 51.14375 150.45Q50.3 149.3875 50.3 146.96562ZM51.378124 146.96562Q51.378124 149.075 51.878124 149.77812Q52.378124 150.48125 53.096874 150.48125Q53.83125 150.48125 54.315624 149.77812Q54.815624 149.075 54.815624 146.96562Q54.815624 144.84062 54.315624 144.15312Q53.83125 143.45 53.08125 143.45Q52.3625 143.45 51.925 144.05937Q51.378124 144.84062 51.378124 146.96562ZM57.503124 144.66875Q57.503124 143.74687 57.95625 143.10625Q58.425 142.46562 59.3 142.46562Q60.1125 142.46562 60.64375 143.04375Q61.175 143.62187 61.175 144.73125Q61.175 145.825 60.628124 146.41875Q60.096874 146.99687 59.315624 146.99687Q58.534374 146.99687 58.01875 146.41875Q57.503124 145.84062 57.503124 144.66875ZM59.33125 143.18437Q58.940624 143.18437 58.675 143.52812Q58.425 143.87187 58.425 144.77812Q58.425 145.60625 58.675 145.95Q58.940624 146.27812 59.33125 146.27812Q59.7375 146.27812 59.9875 145.93437Q60.253124 145.59062 60.253124 144.7Q60.253124 143.85625 59.9875 143.52812Q59.721874 143.18437 59.33125 143.18437ZM59.33125 151.5125L64.03438 142.46562L64.89375 142.46562L60.20625 151.5125L59.33125 151.5125ZM63.05 149.18437Q63.05 148.2625 63.503124 147.62187Q63.971874 146.98125 64.8625 146.98125Q65.675 146.98125 66.20625 147.55937Q66.7375 148.12187 66.7375 149.24687Q66.7375 150.34062 66.19063 150.93437Q65.65938 151.5125 64.8625 151.5125Q64.09688 151.5125 63.565624 150.93437Q63.05 150.35625 63.05 149.18437ZM64.89375 147.7Q64.4875 147.7 64.22188 148.04375Q63.971874 148.3875 63.971874 149.29375Q63.971874 150.10625 64.2375 150.45Q64.50313 150.79375 64.89375 150.79375Q65.28438 150.79375 65.55 150.45Q65.81563 150.10625 65.81563 149.2Q65.81563 148.37187 65.55 148.04375Q65.28438 147.7 64.89375 147.7Z" fill-rule="nonzero"/><path fill="#000000" d="M23.26875 87.86667L22.221874 87.86667L22.221874 81.14792Q21.83125 81.50729 21.20625 81.88229Q20.596874 82.24167 20.1125 82.41354L20.1125 81.39792Q20.9875 80.97604 21.64375 80.39792Q22.315624 79.80417 22.596874 79.24167L23.26875 79.24167L23.26875 87.86667ZM26.3 83.63229Q26.3 82.10104 26.6125 81.17917Q26.925 80.24167 27.534374 79.74167Q28.159374 79.24167 29.096874 79.24167Q29.784374 79.24167 30.3 79.52292Q30.83125 79.80417 31.175 80.33542Q31.51875 80.85104 31.70625 81.60104Q31.89375 82.35104 31.89375 83.63229Q31.89375 85.14792 31.58125 86.06979Q31.284374 86.99167 30.659374 87.50729Q30.05 88.00729 29.096874 88.00729Q27.8625 88.00729 27.14375 87.11667Q26.3 86.05417 26.3 83.63229ZM27.378124 83.63229Q27.378124 85.74167 27.878124 86.44479Q28.378124 87.14792 29.096874 87.14792Q29.83125 87.14792 30.315624 86.44479Q30.815624 85.74167 30.815624 83.63229Q30.815624 81.50729 30.315624 80.81979Q29.83125 80.11667 29.08125 80.11667Q28.3625 80.11667 27.925 80.72604Q27.378124 81.50729 27.378124 83.63229ZM33.3 83.63229Q33.3 82.10104 33.6125 81.17917Q33.925 80.24167 34.534374 79.74167Q35.159374 79.24167 36.096874 79.24167Q36.784374 79.24167 37.3 79.52292Q37.83125 79.80417 38.175 80.33542Q38.51875 80.85104 38.70625 81.60104Q38.89375 82.35104 38.89375 83.63229Q38.89375 85.14792 38.58125 86.06979Q38.284374 86.99167 37.659374 87.50729Q37.05 88.00729 36.096874 88.00729Q34.8625 88.00729 34.14375 87.11667Q33.3 86.05417 33.3 83.63229ZM34.378124 83.63229Q34.378124 85.74167 34.878124 86.44479Q35.378124 87.14792 36.096874 87.14792Q36.83125 87.14792 37.315624 86.44479Q37.815624 85.74167 37.815624 83.63229Q37.815624 81.50729 37.315624 80.81979Q36.83125 80.11667 36.08125 80.11667Q35.3625 80.11667 34.925 80.72604Q34.378124 81.50729 34.378124 83.63229ZM40.89375 87.86667L40.89375 86.66354L42.096874 86.66354L42.096874 87.86667L40.89375 87.86667ZM43.3 83.63229Q43.3 82.10104 43.6125 81.17917Q43.925 80.24167 44.534374 79.74167Q45.159374 79.24167 46.096874 79.24167Q46.784374 79.24167 47.3 79.52292Q47.83125 79.80417 48.175 80.33542Q48.51875 80.85104 48.70625 81.60104Q48.89375 82.35104 48.89375 83.63229Q48.89375 85.14792 48.58125 86.06979Q48.284374 86.99167 47.659374 87.50729Q47.05 88.00729 46.096874 88.00729Q44.8625 88.00729 44.14375 87.11667Q43.3 86.05417 43.3 83.63229ZM44.378124 83.63229Q44.378124 85.74167 44.878124 86.44479Q45.378124 87.14792 46.096874 87.14792Q46.83125 87.14792 47.315624 86.44479Q47.815624 85.74167 47.815624 83.63229Q47.815624 81.50729 47.315624 80.81979Q46.83125 80.11667 46.08125 80.11667Q45.3625 80.11667 44.925 80.72604Q44.378124 81.50729 44.378124 83.63229ZM50.3 83.63229Q50.3 82.10104 50.6125 81.17917Q50.925 80.24167 51.534374 79.74167Q52.159374 79.24167 53.096874 79.24167Q53.784374 79.24167 54.3 79.52292Q54.83125 79.80417 55.175 80.33542Q55.51875 80.85104 55.70625 81.60104Q55.89375 82.35104 55.89375 83.63229Q55.89375 85.14792 55.58125 86.06979Q55.284374 86.99167 54.659374 87.50729Q54.05 88.00729 53.096874 88.00729Q51.8625 88.00729 51.14375 87.11667Q50.3 86.05417 50.3 83.63229ZM51.378124 83.63229Q51.378124 85.74167 51.878124 86.44479Q52.378124 87.14792 53.096874 87.14792Q53.83125 87.14792 54.315624 86.44479Q54.815624 85.74167 54.815624 83.63229Q54.815624 81.50729 54.315624 80.81979Q53.83125 80.11667 53.08125 80.11667Q52.3625 80.11667 51.925 80.72604Q51.378124 81.50729 51.378124 83.63229ZM57.503124 81.33542Q57.503124 80.41354 57.95625 79.77292Q58.425 79.13229 59.3 79.13229Q60.1125 79.13229 60.64375 79.71042Q61.175 80.28854 61.175 81.39792Q61.175 82.49167 60.628124 83.08542Q60.096874 83.66354 59.315624 83.66354Q58.534374 83.66354 58.01875 83.08542Q57.503124 82.50729 57.503124 81.33542ZM59.33125 79.85104Q58.940624 79.85104 58.675 80.19479Q58.425 80.53854 58.425 81.44479Q58.425 82.27292 58.675 82.61667Q58.940624 82.94479 59.33125 82.94479Q59.7375 82.94479 59.9875 82.60104Q60.253124 82.25729 60.253124 81.36667Q60.253124 80.52292 59.9875 80.19479Q59.721874 79.85104 59.33125 79.85104ZM59.33125 88.17917L64.03438 79.13229L64.89375 79.13229L60.20625 88.17917L59.33125 88.17917ZM63.05 85.85104Q63.05 84.92917 63.503124 84.28854Q63.971874 83.64792 64.8625 83.64792Q65.675 83.64792 66.20625 84.22604Q66.7375 84.78854 66.7375 85.91354Q66.7375 87.00729 66.19063 87.60104Q65.65938 88.17917 64.8625 88.17917Q64.09688 88.17917 63.565624 87.60104Q63.05 87.02292 63.05 85.85104ZM64.89375 84.36667Q64.4875 84.36667 64.22188 84.71042Q63.971874 85.05417 63.971874 85.96042Q63.971874 86.77292 64.2375 87.11667Q64.50313 87.46042 64.89375 87.46042Q65.28438 87.46042 65.55 87.11667Q65.81563 86.77292 65.81563 85.86667Q65.81563 85.03854 65.55 84.71042Q65.28438 84.36667 64.89375 84.36667Z" fill-rule="nonzero"/><path fill="#000000" d="M127.27155 354.2L123.94343 345.60626L125.1778 345.60626L127.41218 351.85626Q127.6778 352.60626 127.8653 353.2625Q128.06842 352.5594 128.33405 351.85626L130.64655 345.60626L131.8028 345.60626L128.44342 354.2L127.27155 354.2ZM136.94342 352.2L138.03717 352.325Q137.78717 353.27814 137.08405 353.8094Q136.38092 354.34064 135.3028 354.34064Q133.94342 354.34064 133.13092 353.4969Q132.33405 352.65314 132.33405 351.1375Q132.33405 349.575 133.14655 348.71564Q133.95905 347.84064 135.2403 347.84064Q136.4903 347.84064 137.27155 348.6844Q138.06842 349.52814 138.06842 351.075Q138.06842 351.16876 138.06842 351.35626L133.4278 351.35626Q133.4903 352.3875 134.00592 352.9344Q134.52155 353.46564 135.3028 353.46564Q135.88092 353.46564 136.28717 353.16876Q136.70905 352.85626 136.94342 352.2ZM133.4903 350.4969L136.95905 350.4969Q136.89655 349.7 136.56842 349.3094Q136.0528 348.7 135.25592 348.7Q134.52155 348.7 134.02155 349.1844Q133.53717 349.66876 133.4903 350.4969ZM139.6778 354.2L139.6778 347.98126L140.63092 347.98126L140.63092 348.91876Q140.9903 348.2625 141.28717 348.0594Q141.59967 347.84064 141.97467 347.84064Q142.50592 347.84064 143.0528 348.16876L142.69342 349.15314Q142.3028 348.91876 141.9278 348.91876Q141.56842 348.91876 141.28717 349.1375Q141.02155 349.34064 140.91217 349.71564Q140.72467 350.27814 140.72467 350.9344L140.72467 354.2L139.6778 354.2ZM143.64655 356.59064L143.52155 355.60626Q143.8653 355.7 144.13092 355.7Q144.47467 355.7 144.6778 355.575Q144.89655 355.46564 145.03717 355.2625Q145.13092 355.09064 145.3653 354.46564Q145.38092 354.3875 145.45905 354.21564L143.08405 347.98126L144.22467 347.98126L145.52155 351.575Q145.77155 352.2625 145.97467 353.02814Q146.16217 352.29376 146.41217 351.60626L147.7403 347.98126L148.78717 347.98126L146.4278 354.3094Q146.03717 355.325 145.83405 355.71564Q145.5528 356.2469 145.1778 356.48126Q144.81842 356.73126 144.31842 356.73126Q144.02155 356.73126 143.64655 356.59064ZM156.77155 354.2L156.77155 353.27814Q156.03717 354.34064 154.78717 354.34064Q154.2403 354.34064 153.75592 354.1375Q153.28717 353.91876 153.0528 353.60626Q152.81842 353.27814 152.72467 352.8094Q152.66217 352.5125 152.66217 351.825L152.66217 347.98126L153.72467 347.98126L153.72467 351.4344Q153.72467 352.2469 153.78717 352.54376Q153.88092 352.95 154.19342 353.2Q154.52155 353.4344 155.00592 353.4344Q155.47467 353.4344 155.88092 353.2Q156.3028 352.95 156.47467 352.52814Q156.66217 352.10626 156.66217 351.3094L156.66217 347.98126L157.70905 347.98126L157.70905 354.2L156.77155 354.2ZM159.27155 352.34064L160.3028 352.1844Q160.39655 352.8094 160.78717 353.1375Q161.19342 353.46564 161.9278 353.46564Q162.64655 353.46564 162.9903 353.1844Q163.34967 352.8875 163.34967 352.48126Q163.34967 352.1219 163.03717 351.91876Q162.81842 351.77814 161.95905 351.5594Q160.8028 351.2625 160.34967 351.0594Q159.91217 350.84064 159.6778 350.46564Q159.44342 350.09064 159.44342 349.6219Q159.44342 349.21564 159.63092 348.85626Q159.81842 348.4969 160.14655 348.2625Q160.39655 348.09064 160.81842 347.96564Q161.2403 347.84064 161.7403 347.84064Q162.45905 347.84064 163.00592 348.0594Q163.56842 348.2625 163.83405 348.6219Q164.09967 348.98126 164.19342 349.575L163.16217 349.71564Q163.09967 349.2469 162.75592 348.98126Q162.4278 348.7 161.8028 348.7Q161.08405 348.7 160.77155 348.95Q160.45905 349.1844 160.45905 349.5125Q160.45905 349.71564 160.58405 349.8719Q160.72467 350.04376 160.9903 350.15314Q161.14655 350.21564 161.9278 350.41876Q163.0528 350.73126 163.4903 350.91876Q163.9278 351.10626 164.1778 351.46564Q164.4278 351.825 164.4278 352.3719Q164.4278 352.90314 164.1153 353.3719Q163.81842 353.825 163.2403 354.09064Q162.66217 354.34064 161.9278 354.34064Q160.70905 354.34064 160.06842 353.84064Q159.44342 353.325 159.27155 352.34064ZM169.94342 352.2L171.03717 352.325Q170.78717 353.27814 170.08405 353.8094Q169.38092 354.34064 168.3028 354.34064Q166.94342 354.34064 166.13092 353.4969Q165.33405 352.65314 165.33405 351.1375Q165.33405 349.575 166.14655 348.71564Q166.95905 347.84064 168.2403 347.84064Q169.4903 347.84064 170.27155 348.6844Q171.06842 349.52814 171.06842 351.075Q171.06842 351.16876 171.06842 351.35626L166.4278 351.35626Q166.4903 352.3875 167.00592 352.9344Q167.52155 353.46564 168.3028 353.46564Q168.88092 353.46564 169.28717 353.16876Q169.70905 352.85626 169.94342 352.2ZM166.4903 350.4969L169.95905 350.4969Q169.89655 349.7 169.56842 349.3094Q169.0528 348.7 168.25592 348.7Q167.52155 348.7 167.02155 349.1844Q166.53717 349.66876 166.4903 350.4969ZM172.94342 354.2L172.94342 348.79376L172.00592 348.79376L172.00592 347.98126L172.94342 347.98126L172.94342 347.3094Q172.94342 346.6844 173.0528 346.3875Q173.20905 345.96564 173.58405 345.71564Q173.97467 345.46564 174.66217 345.46564Q175.1153 345.46564 175.64655 345.575L175.4903 346.48126Q175.16217 346.4344 174.8653 346.4344Q174.38092 346.4344 174.1778 346.6375Q173.9903 346.84064 173.9903 347.40314L173.9903 347.98126L175.20905 347.98126L175.20905 348.79376L173.9903 348.79376L173.9903 354.2L172.94342 354.2ZM179.77155 354.2L179.77155 353.27814Q179.03717 354.34064 177.78717 354.34064Q177.2403 354.34064 176.75592 354.1375Q176.28717 353.91876 176.0528 353.60626Q175.81842 353.27814 175.72467 352.8094Q175.66217 352.5125 175.66217 351.825L175.66217 347.98126L176.72467 347.98126L176.72467 351.4344Q176.72467 352.2469 176.78717 352.54376Q176.88092 352.95 177.19342 353.2Q177.52155 353.4344 178.00592 353.4344Q178.47467 353.4344 178.88092 353.2Q179.3028 352.95 179.47467 352.52814Q179.66217 352.10626 179.66217 351.3094L179.66217 347.98126L180.70905 347.98126L180.70905 354.2L179.77155 354.2ZM182.66217 354.2L182.66217 345.60626L183.72467 345.60626L183.72467 354.2L182.66217 354.2Z" fill-rule="nonzero"/><path fill="#000000" d="M227.34572 351.4344L228.40822 351.34064Q228.48634 351.9969 228.7676 352.40314Q229.04884 352.8094 229.62697 353.075Q230.22072 353.325 230.9551 353.325Q231.59572 353.325 232.09572 353.1375Q232.59572 352.9344 232.8301 352.60626Q233.0801 352.2625 233.0801 351.8719Q233.0801 351.46564 232.84572 351.16876Q232.61134 350.85626 232.0801 350.65314Q231.72072 350.5125 230.53322 350.23126Q229.36134 349.95 228.8926 349.7Q228.2676 349.3719 227.97072 348.90314Q227.67384 348.41876 227.67384 347.825Q227.67384 347.1844 228.03322 346.6219Q228.40822 346.04376 229.11134 345.7625Q229.8301 345.46564 230.68947 345.46564Q231.6426 345.46564 232.37697 345.77814Q233.11134 346.075 233.50197 346.6844Q233.8926 347.27814 233.92384 348.02814L232.8301 348.10626Q232.73634 347.29376 232.22072 346.8875Q231.72072 346.46564 230.73634 346.46564Q229.7051 346.46564 229.23634 346.84064Q228.7676 347.21564 228.7676 347.7469Q228.7676 348.21564 229.09572 348.5125Q229.42384 348.8094 230.79884 349.1219Q232.18947 349.4344 232.7051 349.66876Q233.4551 350.02814 233.81447 350.5594Q234.17384 351.075 234.17384 351.77814Q234.17384 352.46564 233.78322 353.075Q233.3926 353.66876 232.65822 354.0125Q231.92384 354.34064 231.00197 354.34064Q229.8301 354.34064 229.03322 354.0125Q228.25197 353.66876 227.79884 352.98126Q227.36134 352.29376 227.34572 351.4344ZM235.2051 351.09064Q235.2051 349.35626 236.15822 348.52814Q236.9551 347.84064 238.11134 347.84064Q239.3926 347.84064 240.2051 348.6844Q241.03322 349.5125 241.03322 350.9969Q241.03322 352.2 240.67384 352.8875Q240.31447 353.575 239.61134 353.96564Q238.92384 354.34064 238.11134 354.34064Q236.81447 354.34064 236.00197 353.5125Q235.2051 352.66876 235.2051 351.09064ZM236.28322 351.09064Q236.28322 352.27814 236.79884 352.8719Q237.3301 353.46564 238.11134 353.46564Q238.90822 353.46564 239.42384 352.8719Q239.93947 352.27814 239.93947 351.0594Q239.93947 349.90314 239.40822 349.3094Q238.8926 348.71564 238.11134 348.71564Q237.3301 348.71564 236.79884 349.3094Q236.28322 349.8875 236.28322 351.09064ZM242.59572 354.2L242.59572 347.98126L243.53322 347.98126L243.53322 348.85626Q243.8301 348.3875 244.31447 348.1219Q244.79884 347.84064 245.42384 347.84064Q246.11134 347.84064 246.54884 348.1219Q247.00197 348.40314 247.17384 348.91876Q247.92384 347.84064 249.09572 347.84064Q250.03322 347.84064 250.5176 348.35626Q251.0176 348.85626 251.0176 349.9344L251.0176 354.2L249.97072 354.2L249.97072 350.27814Q249.97072 349.65314 249.86134 349.3719Q249.7676 349.09064 249.50197 348.91876Q249.23634 348.7469 248.86134 348.7469Q248.2051 348.7469 247.7676 349.1844Q247.34572 349.6219 247.34572 350.59064L247.34572 354.2L246.28322 354.2L246.28322 350.15314Q246.28322 349.45 246.0176 349.10626Q245.7676 348.7469 245.18947 348.7469Q244.73634 348.7469 244.36134 348.98126Q243.98634 349.21564 243.81447 349.66876Q243.6426 350.1219 243.6426 350.96564L243.6426 354.2L242.59572 354.2ZM256.8457 352.2L257.93945 352.325Q257.68945 353.27814 256.98633 353.8094Q256.2832 354.34064 255.2051 354.34064Q253.84572 354.34064 253.03322 353.4969Q252.23634 352.65314 252.23634 351.1375Q252.23634 349.575 253.04884 348.71564Q253.86134 347.84064 255.1426 347.84064Q256.39258 347.84064 257.17383 348.6844Q257.9707 349.52814 257.9707 351.075Q257.9707 351.16876 257.9707 351.35626L253.3301 351.35626Q253.3926 352.3875 253.90822 352.9344Q254.42384 353.46564 255.2051 353.46564Q255.78322 353.46564 256.18945 353.16876Q256.61133 352.85626 256.8457 352.2ZM253.3926 350.4969L256.86133 350.4969Q256.79883 349.7 256.4707 349.3094Q255.9551 348.7 255.15822 348.7Q254.42384 348.7 253.92384 349.1844Q253.43947 349.66876 253.3926 350.4969ZM260.73633 354.2L258.83008 347.98126L259.92383 347.98126L260.9082 351.575L261.2832 352.90314Q261.31445 352.8094 261.61133 351.6219L262.5957 347.98126L263.67383 347.98126L264.61133 351.59064L264.92383 352.77814L265.2832 351.575L266.3457 347.98126L267.37695 347.98126L265.42383 354.2L264.33008 354.2L263.3457 350.46564L263.0957 349.41876L261.8457 354.2L260.73633 354.2ZM268.5957 354.2L268.5957 345.60626L269.64258 345.60626L269.64258 348.6844Q270.37695 347.84064 271.50195 347.84064Q272.20508 347.84064 272.70508 348.1219Q273.2207 348.3875 273.43945 348.8719Q273.6582 349.34064 273.6582 350.2625L273.6582 354.2L272.61133 354.2L272.61133 350.2625Q272.61133 349.46564 272.26758 349.10626Q271.92383 348.7469 271.29883 348.7469Q270.83008 348.7469 270.4082 348.9969Q270.00195 349.23126 269.81445 349.65314Q269.64258 350.0594 269.64258 350.79376L269.64258 354.2L268.5957 354.2ZM279.6582 353.4344Q279.06445 353.9344 278.51758 354.1375Q277.98633 354.34064 277.36133 354.34064Q276.33008 354.34064 275.7832 353.84064Q275.23633 353.34064 275.23633 352.5594Q275.23633 352.10626 275.43945 351.73126Q275.64258 351.34064 275.98633 351.1219Q276.33008 350.8875 276.75195 350.77814Q277.04883 350.6844 277.68945 350.60626Q278.95508 350.46564 279.56445 350.2469Q279.56445 350.02814 279.56445 349.98126Q279.56445 349.325 279.26758 349.0594Q278.86133 348.71564 278.06445 348.71564Q277.33008 348.71564 276.9707 348.98126Q276.61133 349.23126 276.43945 349.8875L275.4082 349.7469Q275.54883 349.09064 275.87695 348.6844Q276.20508 348.27814 276.81445 348.0594Q277.42383 347.84064 278.2207 347.84064Q279.01758 347.84064 279.51758 348.02814Q280.01758 348.21564 280.25195 348.4969Q280.48633 348.77814 280.58008 349.21564Q280.62695 349.48126 280.62695 350.1844L280.62695 351.59064Q280.62695 353.0594 280.68945 353.45Q280.76758 353.84064 280.9707 354.2L279.86133 354.2Q279.70508 353.8719 279.6582 353.4344ZM279.56445 351.075Q278.98633 351.3094 277.8457 351.48126Q277.18945 351.575 276.92383 351.7Q276.6582 351.8094 276.50195 352.02814Q276.36133 352.2469 276.36133 352.52814Q276.36133 352.95 276.67383 353.23126Q277.00195 353.5125 277.61133 353.5125Q278.2207 353.5125 278.68945 353.2469Q279.17383 352.98126 279.39258 352.5125Q279.56445 352.15314 279.56445 351.46564L279.56445 351.075ZM284.89258 353.2625L285.04883 354.1844Q284.5957 354.27814 284.25195 354.27814Q283.67383 354.27814 283.36133 354.10626Q283.04883 353.91876 282.9082 353.6219Q282.7832 353.325 282.7832 352.3719L282.7832 348.79376L282.01758 348.79376L282.01758 347.98126L282.7832 347.98126L282.7832 346.4344L283.83008 345.8094L283.83008 347.98126L284.89258 347.98126L284.89258 348.79376L283.83008 348.79376L283.83008 352.4344Q283.83008 352.8875 283.87695 353.0125Q283.93945 353.1375 284.06445 353.21564Q284.18945 353.29376 284.42383 353.29376Q284.61133 353.29376 284.89258 353.2625ZM292.67383 354.2L292.67383 353.27814Q291.93945 354.34064 290.68945 354.34064Q290.14258 354.34064 289.6582 354.1375Q289.18945 353.91876 288.95508 353.60626Q288.7207 353.27814 288.62695 352.8094Q288.56445 352.5125 288.56445 351.825L288.56445 347.98126L289.62695 347.98126L289.62695 351.4344Q289.62695 352.2469 289.68945 352.54376Q289.7832 352.95 290.0957 353.2Q290.42383 353.4344 290.9082 353.4344Q291.37695 353.4344 291.7832 353.2Q292.20508 352.95 292.37695 352.52814Q292.56445 352.10626 292.56445 351.3094L292.56445 347.98126L293.61133 347.98126L293.61133 354.2L292.67383 354.2ZM295.17383 352.34064L296.20508 352.1844Q296.29883 352.8094 296.68945 353.1375Q297.0957 353.46564 297.83008 353.46564Q298.54883 353.46564 298.89258 353.1844Q299.25195 352.8875 299.25195 352.48126Q299.25195 352.1219 298.93945 351.91876Q298.7207 351.77814 297.86133 351.5594Q296.70508 351.2625 296.25195 351.0594Q295.81445 350.84064 295.58008 350.46564Q295.3457 350.09064 295.3457 349.6219Q295.3457 349.21564 295.5332 348.85626Q295.7207 348.4969 296.04883 348.2625Q296.29883 348.09064 296.7207 347.96564Q297.14258 347.84064 297.64258 347.84064Q298.36133 347.84064 298.9082 348.0594Q299.4707 348.2625 299.73633 348.6219Q300.00195 348.98126 300.0957 349.575L299.06445 349.71564Q299.00195 349.2469 298.6582 348.98126Q298.33008 348.7 297.70508 348.7Q296.98633 348.7 296.67383 348.95Q296.36133 349.1844 296.36133 349.5125Q296.36133 349.71564 296.48633 349.8719Q296.62695 350.04376 296.89258 350.15314Q297.04883 350.21564 297.83008 350.41876Q298.95508 350.73126 299.39258 350.91876Q299.83008 351.10626 300.08008 351.46564Q300.33008 351.825 300.33008 352.3719Q300.33008 352.90314 300.01758 353.3719Q299.7207 353.825 299.14258 354.09064Q298.56445 354.34064 297.83008 354.34064Q296.61133 354.34064 295.9707 353.84064Q295.3457 353.325 295.17383 352.34064ZM305.8457 352.2L306.93945 352.325Q306.68945 353.27814 305.98633 353.8094Q305.2832 354.34064 304.20508 354.34064Q302.8457 354.34064 302.0332 353.4969Q301.23633 352.65314 301.23633 351.1375Q301.23633 349.575 302.04883 348.71564Q302.86133 347.84064 304.14258 347.84064Q305.39258 347.84064 306.17383 348.6844Q306.9707 349.52814 306.9707 351.075Q306.9707 351.16876 306.9707 351.35626L302.33008 351.35626Q302.39258 352.3875 302.9082 352.9344Q303.42383 353.46564 304.20508 353.46564Q304.7832 353.46564 305.18945 353.16876Q305.61133 352.85626 305.8457 352.2ZM302.39258 350.4969L305.86133 350.4969Q305.79883 349.7 305.4707 349.3094Q304.95508 348.7 304.1582 348.7Q303.42383 348.7 302.92383 349.1844Q302.43945 349.66876 302.39258 350.4969ZM308.8457 354.2L308.8457 348.79376L307.9082 348.79376L307.9082 347.98126L308.8457 347.98126L308.8457 347.3094Q308.8457 346.6844 308.95508 346.3875Q309.11133 345.96564 309.48633 345.71564Q309.87695 345.46564 310.56445 345.46564Q311.01758 345.46564 311.54883 345.575L311.39258 346.48126Q311.06445 346.4344 310.76758 346.4344Q310.2832 346.4344 310.08008 346.6375Q309.89258 346.84064 309.89258 347.40314L309.89258 347.98126L311.11133 347.98126L311.11133 348.79376L309.89258 348.79376L309.89258 354.2L308.8457 354.2ZM315.67383 354.2L315.67383 353.27814Q314.93945 354.34064 313.68945 354.34064Q313.14258 354.34064 312.6582 354.1375Q312.18945 353.91876 311.95508 353.60626Q311.7207 353.27814 311.62695 352.8094Q311.56445 352.5125 311.56445 351.825L311.56445 347.98126L312.62695 347.98126L312.62695 351.4344Q312.62695 352.2469 312.68945 352.54376Q312.7832 352.95 313.0957 353.2Q313.42383 353.4344 313.9082 353.4344Q314.37695 353.4344 314.7832 353.2Q315.20508 352.95 315.37695 352.52814Q315.56445 352.10626 315.56445 351.3094L315.56445 347.98126L316.61133 347.98126L316.61133 354.2L315.67383 354.2ZM318.56445 354.2L318.56445 345.60626L319.62695 345.60626L319.62695 354.2L318.56445 354.2Z" fill-rule="nonzero"/><path fill="#000000" d="M353.62302 354.2L353.62302 345.60626L354.77927 345.60626L359.2949 352.35626L359.2949 345.60626L360.38864 345.60626L360.38864 354.2L359.21677 354.2L354.70114 347.45L354.70114 354.2L353.62302 354.2ZM362.1074 351.09064Q362.1074 349.35626 363.06052 348.52814Q363.8574 347.84064 365.01364 347.84064Q366.2949 347.84064 367.1074 348.6844Q367.93552 349.5125 367.93552 350.9969Q367.93552 352.2 367.57614 352.8875Q367.21677 353.575 366.51364 353.96564Q365.82614 354.34064 365.01364 354.34064Q363.71677 354.34064 362.90427 353.5125Q362.1074 352.66876 362.1074 351.09064ZM363.18552 351.09064Q363.18552 352.27814 363.70114 352.8719Q364.2324 353.46564 365.01364 353.46564Q365.81052 353.46564 366.32614 352.8719Q366.84177 352.27814 366.84177 351.0594Q366.84177 349.90314 366.31052 349.3094Q365.7949 348.71564 365.01364 348.71564Q364.2324 348.71564 363.70114 349.3094Q363.18552 349.8875 363.18552 351.09064ZM371.7949 353.2625L371.95114 354.1844Q371.49802 354.27814 371.15427 354.27814Q370.57614 354.27814 370.26364 354.10626Q369.95114 353.91876 369.81052 353.6219Q369.68552 353.325 369.68552 352.3719L369.68552 348.79376L368.9199 348.79376L368.9199 347.98126L369.68552 347.98126L369.68552 346.4344L370.7324 345.8094L370.7324 347.98126L371.7949 347.98126L371.7949 348.79376L370.7324 348.79376L370.7324 352.4344Q370.7324 352.8875 370.77927 353.0125Q370.84177 353.1375 370.96677 353.21564Q371.09177 353.29376 371.32614 353.29376Q371.51364 353.29376 371.7949 353.2625ZM377.21677 354.2L374.8574 347.98126L375.96677 347.98126L377.31052 351.7Q377.51364 352.3094 377.70114 352.95Q377.84177 352.46564 378.09177 351.77814L379.4824 347.98126L380.56052 347.98126L378.20114 354.2L377.21677 354.2ZM385.74802 352.2L386.84177 352.325Q386.59177 353.27814 385.88864 353.8094Q385.18552 354.34064 384.1074 354.34064Q382.74802 354.34064 381.93552 353.4969Q381.13864 352.65314 381.13864 351.1375Q381.13864 349.575 381.95114 348.71564Q382.76364 347.84064 384.0449 347.84064Q385.2949 347.84064 386.07614 348.6844Q386.87302 349.52814 386.87302 351.075Q386.87302 351.16876 386.87302 351.35626L382.2324 351.35626Q382.2949 352.3875 382.81052 352.9344Q383.32614 353.46564 384.1074 353.46564Q384.68552 353.46564 385.09177 353.16876Q385.51364 352.85626 385.74802 352.2ZM382.2949 350.4969L385.76364 350.4969Q385.70114 349.7 385.37302 349.3094Q384.8574 348.7 384.06052 348.7Q383.32614 348.7 382.82614 349.1844Q382.34177 349.66876 382.2949 350.4969ZM388.4824 354.2L388.4824 347.98126L389.43552 347.98126L389.43552 348.91876Q389.7949 348.2625 390.09177 348.0594Q390.40427 347.84064 390.77927 347.84064Q391.31052 347.84064 391.8574 348.16876L391.49802 349.15314Q391.1074 348.91876 390.7324 348.91876Q390.37302 348.91876 390.09177 349.1375Q389.82614 349.34064 389.71677 349.71564Q389.52927 350.27814 389.52927 350.9344L389.52927 354.2L388.4824 354.2ZM392.45114 356.59064L392.32614 355.60626Q392.6699 355.7 392.93552 355.7Q393.27927 355.7 393.4824 355.575Q393.70114 355.46564 393.84177 355.2625Q393.93552 355.09064 394.1699 354.46564Q394.18552 354.3875 394.26364 354.21564L391.88864 347.98126L393.02927 347.98126L394.32614 351.575Q394.57614 352.2625 394.77927 353.02814Q394.96677 352.29376 395.21677 351.60626L396.5449 347.98126L397.59177 347.98126L395.2324 354.3094Q394.84177 355.325 394.63864 355.71564Q394.3574 356.2469 393.9824 356.48126Q393.62302 356.73126 393.12302 356.73126Q392.82614 356.73126 392.45114 356.59064ZM405.57614 354.2L405.57614 353.27814Q404.84177 354.34064 403.59177 354.34064Q403.0449 354.34064 402.56052 354.1375Q402.09177 353.91876 401.8574 353.60626Q401.62302 353.27814 401.52927 352.8094Q401.46677 352.5125 401.46677 351.825L401.46677 347.98126L402.52927 347.98126L402.52927 351.4344Q402.52927 352.2469 402.59177 352.54376Q402.68552 352.95 402.99802 353.2Q403.32614 353.4344 403.81052 353.4344Q404.27927 353.4344 404.68552 353.2Q405.1074 352.95 405.27927 352.52814Q405.46677 352.10626 405.46677 351.3094L405.46677 347.98126L406.51364 347.98126L406.51364 354.2L405.57614 354.2ZM408.07614 352.34064L409.1074 352.1844Q409.20114 352.8094 409.59177 353.1375Q409.99802 353.46564 410.7324 353.46564Q411.45114 353.46564 411.7949 353.1844Q412.15427 352.8875 412.15427 352.48126Q412.15427 352.1219 411.84177 351.91876Q411.62302 351.77814 410.76364 351.5594Q409.6074 351.2625 409.15427 351.0594Q408.71677 350.84064 408.4824 350.46564Q408.24802 350.09064 408.24802 349.6219Q408.24802 349.21564 408.43552 348.85626Q408.62302 348.4969 408.95114 348.2625Q409.20114 348.09064 409.62302 347.96564Q410.0449 347.84064 410.5449 347.84064Q411.26364 347.84064 411.81052 348.0594Q412.37302 348.2625 412.63864 348.6219Q412.90427 348.98126 412.99802 349.575L411.96677 349.71564Q411.90427 349.2469 411.56052 348.98126Q411.2324 348.7 410.6074 348.7Q409.88864 348.7 409.57614 348.95Q409.26364 349.1844 409.26364 349.5125Q409.26364 349.71564 409.38864 349.8719Q409.52927 350.04376 409.7949 350.15314Q409.95114 350.21564 410.7324 350.41876Q411.8574 350.73126 412.2949 350.91876Q412.7324 351.10626 412.9824 351.46564Q413.2324 351.825 413.2324 352.3719Q413.2324 352.90314 412.9199 353.3719Q412.62302 353.825 412.0449 354.09064Q411.46677 354.34064 410.7324 354.34064Q409.51364 354.34064 408.87302 353.84064Q408.24802 353.325 408.07614 352.34064ZM418.74802 352.2L419.84177 352.325Q419.59177 353.27814 418.88864 353.8094Q418.18552 354.34064 417.1074 354.34064Q415.74802 354.34064 414.93552 353.4969Q414.13864 352.65314 414.13864 351.1375Q414.13864 349.575 414.95114 348.71564Q415.76364 347.84064 417.0449 347.84064Q418.2949 347.84064 419.07614 348.6844Q419.87302 349.52814 419.87302 351.075Q419.87302 351.16876 419.87302 351.35626L415.2324 351.35626Q415.2949 352.3875 415.81052 352.9344Q416.32614 353.46564 417.1074 353.46564Q417.68552 353.46564 418.09177 353.16876Q418.51364 352.85626 418.74802 352.2ZM415.2949 350.4969L418.76364 350.4969Q418.70114 349.7 418.37302 349.3094Q417.8574 348.7 417.06052 348.7Q416.32614 348.7 415.82614 349.1844Q415.34177 349.66876 415.2949 350.4969ZM421.74802 354.2L421.74802 348.79376L420.81052 348.79376L420.81052 347.98126L421.74802 347.98126L421.74802 347.3094Q421.74802 346.6844 421.8574 346.3875Q422.01364 345.96564 422.38864 345.71564Q422.77927 345.46564 423.46677 345.46564Q423.9199 345.46564 424.45114 345.575L424.2949 346.48126Q423.96677 346.4344 423.6699 346.4344Q423.18552 346.4344 422.9824 346.6375Q422.7949 346.84064 422.7949 347.40314L422.7949 347.98126L424.01364 347.98126L424.01364 348.79376L422.7949 348.79376L422.7949 354.2L421.74802 354.2ZM428.57614 354.2L428.57614 353.27814Q427.84177 354.34064 426.59177 354.34064Q426.0449 354.34064 425.56052 354.1375Q425.09177 353.91876 424.8574 353.60626Q424.62302 353.27814 424.52927 352.8094Q424.46677 352.5125 424.46677 351.825L424.46677 347.98126L425.52927 347.98126L425.52927 351.4344Q425.52927 352.2469 425.59177 352.54376Q425.68552 352.95 425.99802 353.2Q426.32614 353.4344 426.81052 353.4344Q427.27927 353.4344 427.68552 353.2Q428.1074 352.95 428.27927 352.52814Q428.46677 352.10626 428.46677 351.3094L428.46677 347.98126L429.51364 347.98126L429.51364 354.2L428.57614 354.2ZM431.46677 354.2L431.46677 345.60626L432.52927 345.60626L432.52927 354.2L431.46677 354.2Z" fill-rule="nonzero"/><path fill="#000000" d="M471.52533 354.2L471.52533 345.60626L472.68158 345.60626L477.1972 352.35626L477.1972 345.60626L478.29095 345.60626L478.29095 354.2L477.11908 354.2L472.60345 347.45L472.60345 354.2L471.52533 354.2ZM480.0097 351.09064Q480.0097 349.35626 480.96283 348.52814Q481.7597 347.84064 482.91595 347.84064Q484.1972 347.84064 485.0097 348.6844Q485.83783 349.5125 485.83783 350.9969Q485.83783 352.2 485.47845 352.8875Q485.11908 353.575 484.41595 353.96564Q483.72845 354.34064 482.91595 354.34064Q481.61908 354.34064 480.80658 353.5125Q480.0097 352.66876 480.0097 351.09064ZM481.08783 351.09064Q481.08783 352.27814 481.60345 352.8719Q482.1347 353.46564 482.91595 353.46564Q483.71283 353.46564 484.22845 352.8719Q484.74408 352.27814 484.74408 351.0594Q484.74408 349.90314 484.21283 349.3094Q483.6972 348.71564 482.91595 348.71564Q482.1347 348.71564 481.60345 349.3094Q481.08783 349.8875 481.08783 351.09064ZM489.6972 353.2625L489.85345 354.1844Q489.40033 354.27814 489.05658 354.27814Q488.47845 354.27814 488.16595 354.10626Q487.85345 353.91876 487.71283 353.6219Q487.58783 353.325 487.58783 352.3719L487.58783 348.79376L486.8222 348.79376L486.8222 347.98126L487.58783 347.98126L487.58783 346.4344L488.6347 345.8094L488.6347 347.98126L489.6972 347.98126L489.6972 348.79376L488.6347 348.79376L488.6347 352.4344Q488.6347 352.8875 488.68158 353.0125Q488.74408 353.1375 488.86908 353.21564Q488.99408 353.29376 489.22845 353.29376Q489.41595 353.29376 489.6972 353.2625ZM497.47845 354.2L497.47845 353.27814Q496.74408 354.34064 495.49408 354.34064Q494.9472 354.34064 494.46283 354.1375Q493.99408 353.91876 493.7597 353.60626Q493.52533 353.27814 493.43158 352.8094Q493.36908 352.5125 493.36908 351.825L493.36908 347.98126L494.43158 347.98126L494.43158 351.4344Q494.43158 352.2469 494.49408 352.54376Q494.58783 352.95 494.90033 353.2Q495.22845 353.4344 495.71283 353.4344Q496.18158 353.4344 496.58783 353.2Q497.0097 352.95 497.18158 352.52814Q497.36908 352.10626 497.36908 351.3094L497.36908 347.98126L498.41595 347.98126L498.41595 354.2L497.47845 354.2ZM499.97845 352.34064L501.0097 352.1844Q501.10345 352.8094 501.49408 353.1375Q501.90033 353.46564 502.6347 353.46564Q503.35345 353.46564 503.6972 353.1844Q504.05658 352.8875 504.05658 352.48126Q504.05658 352.1219 503.74408 351.91876Q503.52533 351.77814 502.66595 351.5594Q501.5097 351.2625 501.05658 351.0594Q500.61908 350.84064 500.3847 350.46564Q500.15033 350.09064 500.15033 349.6219Q500.15033 349.21564 500.33783 348.85626Q500.52533 348.4969 500.85345 348.2625Q501.10345 348.09064 501.52533 347.96564Q501.9472 347.84064 502.4472 347.84064Q503.16595 347.84064 503.71283 348.0594Q504.27533 348.2625 504.54095 348.6219Q504.80658 348.98126 504.90033 349.575L503.86908 349.71564Q503.80658 349.2469 503.46283 348.98126Q503.1347 348.7 502.5097 348.7Q501.79095 348.7 501.47845 348.95Q501.16595 349.1844 501.16595 349.5125Q501.16595 349.71564 501.29095 349.8719Q501.43158 350.04376 501.6972 350.15314Q501.85345 350.21564 502.6347 350.41876Q503.7597 350.73126 504.1972 350.91876Q504.6347 351.10626 504.8847 351.46564Q505.1347 351.825 505.1347 352.3719Q505.1347 352.90314 504.8222 353.3719Q504.52533 353.825 503.9472 354.09064Q503.36908 354.34064 502.6347 354.34064Q501.41595 354.34064 500.77533 353.84064Q500.15033 353.325 499.97845 352.34064ZM510.65033 352.2L511.74408 352.325Q511.49408 353.27814 510.79095 353.8094Q510.08783 354.34064 509.0097 354.34064Q507.65033 354.34064 506.83783 353.4969Q506.04095 352.65314 506.04095 351.1375Q506.04095 349.575 506.85345 348.71564Q507.66595 347.84064 508.9472 347.84064Q510.1972 347.84064 510.97845 348.6844Q511.77533 349.52814 511.77533 351.075Q511.77533 351.16876 511.77533 351.35626L507.1347 351.35626Q507.1972 352.3875 507.71283 352.9344Q508.22845 353.46564 509.0097 353.46564Q509.58783 353.46564 509.99408 353.16876Q510.41595 352.85626 510.65033 352.2ZM507.1972 350.4969L510.66595 350.4969Q510.60345 349.7 510.27533 349.3094Q509.7597 348.7 508.96283 348.7Q508.22845 348.7 507.72845 349.1844Q507.24408 349.66876 507.1972 350.4969ZM513.6503 354.2L513.6503 348.79376L512.7128 348.79376L512.7128 347.98126L513.6503 347.98126L513.6503 347.3094Q513.6503 346.6844 513.7597 346.3875Q513.91595 345.96564 514.29095 345.71564Q514.6816 345.46564 515.3691 345.46564Q515.8222 345.46564 516.35345 345.575L516.1972 346.48126Q515.8691 346.4344 515.5722 346.4344Q515.0878 346.4344 514.8847 346.6375Q514.6972 346.84064 514.6972 347.40314L514.6972 347.98126L515.91595 347.98126L515.91595 348.79376L514.6972 348.79376L514.6972 354.2L513.6503 354.2ZM520.47845 354.2L520.47845 353.27814Q519.7441 354.34064 518.4941 354.34064Q517.9472 354.34064 517.4628 354.1375Q516.9941 353.91876 516.7597 353.60626Q516.5253 353.27814 516.4316 352.8094Q516.3691 352.5125 516.3691 351.825L516.3691 347.98126L517.4316 347.98126L517.4316 351.4344Q517.4316 352.2469 517.4941 352.54376Q517.5878 352.95 517.9003 353.2Q518.22845 353.4344 518.7128 353.4344Q519.1816 353.4344 519.5878 353.2Q520.0097 352.95 520.1816 352.52814Q520.3691 352.10626 520.3691 351.3094L520.3691 347.98126L521.41595 347.98126L521.41595 354.2L520.47845 354.2ZM523.3691 354.2L523.3691 345.60626L524.4316 345.60626L524.4316 354.2L523.3691 354.2ZM533.4628 353.4344Q532.8691 353.9344 532.3222 354.1375Q531.79095 354.34064 531.16595 354.34064Q530.1347 354.34064 529.5878 353.84064Q529.04095 353.34064 529.04095 352.5594Q529.04095 352.10626 529.2441 351.73126Q529.4472 351.34064 529.79095 351.1219Q530.1347 350.8875 530.5566 350.77814Q530.85345 350.6844 531.4941 350.60626Q532.7597 350.46564 533.3691 350.2469Q533.3691 350.02814 533.3691 349.98126Q533.3691 349.325 533.0722 349.0594Q532.66595 348.71564 531.8691 348.71564Q531.1347 348.71564 530.7753 348.98126Q530.41595 349.23126 530.2441 349.8875L529.2128 349.7469Q529.35345 349.09064 529.6816 348.6844Q530.0097 348.27814 530.6191 348.0594Q531.22845 347.84064 532.0253 347.84064Q532.8222 347.84064 533.3222 348.02814Q533.8222 348.21564 534.0566 348.4969Q534.29095 348.77814 534.3847 349.21564Q534.4316 349.48126 534.4316 350.1844L534.4316 351.59064Q534.4316 353.0594 534.4941 353.45Q534.5722 353.84064 534.7753 354.2L533.66595 354.2Q533.5097 353.8719 533.4628 353.4344ZM533.3691 351.075Q532.79095 351.3094 531.6503 351.48126Q530.9941 351.575 530.72845 351.7Q530.4628 351.8094 530.3066 352.02814Q530.16595 352.2469 530.16595 352.52814Q530.16595 352.95 530.47845 353.23126Q530.8066 353.5125 531.41595 353.5125Q532.0253 353.5125 532.4941 353.2469Q532.97845 352.98126 533.1972 352.5125Q533.3691 352.15314 533.3691 351.46564L533.3691 351.075ZM538.6972 353.2625L538.85345 354.1844Q538.4003 354.27814 538.0566 354.27814Q537.47845 354.27814 537.16595 354.10626Q536.85345 353.91876 536.7128 353.6219Q536.5878 353.325 536.5878 352.3719L536.5878 348.79376L535.8222 348.79376L535.8222 347.98126L536.5878 347.98126L536.5878 346.4344L537.6347 345.8094L537.6347 347.98126L538.6972 347.98126L538.6972 348.79376L537.6347 348.79376L537.6347 352.4344Q537.6347 352.8875 537.6816 353.0125Q537.7441 353.1375 537.8691 353.21564Q537.9941 353.29376 538.22845 353.29376Q538.41595 353.29376 538.6972 353.2625ZM546.4628 353.4344Q545.8691 353.9344 545.3222 354.1375Q544.79095 354.34064 544.16595 354.34064Q543.1347 354.34064 542.5878 353.84064Q542.04095 353.34064 542.04095 352.5594Q542.04095 352.10626 542.2441 351.73126Q542.4472 351.34064 542.79095 351.1219Q543.1347 350.8875 543.5566 350.77814Q543.85345 350.6844 544.4941 350.60626Q545.7597 350.46564 546.3691 350.2469Q546.3691 350.02814 546.3691 349.98126Q546.3691 349.325 546.0722 349.0594Q545.66595 348.71564 544.8691 348.71564Q544.1347 348.71564 543.7753 348.98126Q543.41595 349.23126 543.2441 349.8875L542.2128 349.7469Q542.35345 349.09064 542.6816 348.6844Q543.0097 348.27814 543.6191 348.0594Q544.22845 347.84064 545.0253 347.84064Q545.8222 347.84064 546.3222 348.02814Q546.8222 348.21564 547.0566 348.4969Q547.29095 348.77814 547.3847 349.21564Q547.4316 349.48126 547.4316 350.1844L547.4316 351.59064Q547.4316 353.0594 547.4941 353.45Q547.5722 353.84064 547.7753 354.2L546.66595 354.2Q546.5097 353.8719 546.4628 353.4344ZM546.3691 351.075Q545.79095 351.3094 544.6503 351.48126Q543.9941 351.575 543.72845 351.7Q543.4628 351.8094 543.3066 352.02814Q543.16595 352.2469 543.16595 352.52814Q543.16595 352.95 543.47845 353.23126Q543.8066 353.5125 544.41595 353.5125Q545.0253 353.5125 545.4941 353.2469Q545.97845 352.98126 546.1972 352.5125Q546.3691 352.15314 546.3691 351.46564L546.3691 351.075ZM549.3691 354.2L549.3691 345.60626L550.4316 345.60626L550.4316 354.2L549.3691 354.2ZM552.3691 354.2L552.3691 345.60626L553.4316 345.60626L553.4316 354.2L552.3691 354.2Z" fill-rule="nonzero"/><path fill="#f9cb9c" d="M250.0 52.333332C250.0 51.781048 250.44771 51.333332 251.0 51.333332L261.0 51.333332C261.55228 51.333332 262.0 51.781048 262.0 52.333332L262.0 62.333332C262.0 62.885616 261.55228 63.333332 261.0 63.333332L251.0 63.333332C250.44771 63.333332 250.0 62.885616 250.0 62.333332Z" fill-rule="nonzero"/><path fill="#1a1a1a" d="M276.04688 60.317707L276.04688 61.333332L270.35938 61.333332Q270.35938 60.958332 270.48438 60.598957Q270.70312 60.020832 271.17188 59.458332Q271.65625 58.895832 272.5625 58.161457Q273.96875 57.005207 274.45312 56.333332Q274.95312 55.661457 274.95312 55.067707Q274.95312 54.442707 274.5 54.020832Q274.04688 53.583332 273.32812 53.583332Q272.5625 53.583332 272.10938 54.036457Q271.65625 54.489582 271.64062 55.302082L270.5625 55.192707Q270.67188 53.973957 271.39062 53.348957Q272.125 52.708332 273.35938 52.708332Q274.59375 52.708332 275.3125 53.395832Q276.03125 54.083332 276.03125 55.098957Q276.03125 55.614582 275.8125 56.114582Q275.60938 56.598957 275.10938 57.161457Q274.625 57.708332 273.5 58.661457Q272.54688 59.458332 272.26562 59.755207Q272.0 60.036457 271.82812 60.317707L276.04688 60.317707ZM277.5 57.098957Q277.5 55.567707 277.8125 54.645832Q278.125 53.708332 278.73438 53.208332Q279.35938 52.708332 280.29688 52.708332Q280.98438 52.708332 281.5 52.989582Q282.03125 53.270832 282.375 53.802082Q282.71875 54.317707 282.90625 55.067707Q283.09375 55.817707 283.09375 57.098957Q283.09375 58.614582 282.78125 59.536457Q282.48438 60.458332 281.85938 60.973957Q281.25 61.473957 280.29688 61.473957Q279.0625 61.473957 278.34375 60.583332Q277.5 59.520832 277.5 57.098957ZM278.57812 57.098957Q278.57812 59.208332 279.07812 59.911457Q279.57812 60.614582 280.29688 60.614582Q281.03125 60.614582 281.51562 59.911457Q282.01562 59.208332 282.01562 57.098957Q282.01562 54.973957 281.51562 54.286457Q281.03125 53.583332 280.28125 53.583332Q279.5625 53.583332 279.125 54.192707Q278.57812 54.973957 278.57812 57.098957ZM288.46875 61.333332L287.42188 61.333332L287.42188 54.614582Q287.03125 54.973957 286.40625 55.348957Q285.79688 55.708332 285.3125 55.880207L285.3125 54.864582Q286.1875 54.442707 286.84375 53.864582Q287.51562 53.270832 287.79688 52.708332L288.46875 52.708332L288.46875 61.333332ZM293.125 56.677082Q292.46875 56.427082 292.14062 55.989582Q291.82812 55.536457 291.82812 54.927082Q291.82812 53.989582 292.5 53.348957Q293.1875 52.708332 294.29688 52.708332Q295.42188 52.708332 296.10938 53.364582Q296.79688 54.020832 296.79688 54.958332Q296.79688 55.552082 296.48438 55.989582Q296.17188 56.427082 295.53125 56.677082Q296.32812 56.927082 296.73438 57.505207Q297.14062 58.083332 297.14062 58.880207Q297.14062 59.973957 296.35938 60.723957Q295.59375 61.473957 294.3125 61.473957Q293.04688 61.473957 292.26562 60.723957Q291.48438 59.973957 291.48438 58.848957Q291.48438 58.005207 291.90625 57.442707Q292.34375 56.880207 293.125 56.677082ZM292.90625 54.880207Q292.90625 55.489582 293.29688 55.880207Q293.70312 56.270832 294.32812 56.270832Q294.9375 56.270832 295.32812 55.895832Q295.71875 55.505207 295.71875 54.942707Q295.71875 54.364582 295.3125 53.973957Q294.90625 53.567707 294.3125 53.567707Q293.70312 53.567707 293.29688 53.958332Q292.90625 54.348957 292.90625 54.880207ZM292.57812 58.848957Q292.57812 59.302082 292.78125 59.723957Q293.0 60.145832 293.42188 60.380207Q293.84375 60.614582 294.32812 60.614582Q295.07812 60.614582 295.5625 60.130207Q296.0625 59.645832 296.0625 58.895832Q296.0625 58.130207 295.5625 57.630207Q295.0625 57.130207 294.29688 57.130207Q293.54688 57.130207 293.0625 57.630207Q292.57812 58.114582 292.57812 58.848957Z" fill-rule="nonzero"/><path fill="#a4c2f4" d="M314.0 52.333332C314.0 51.781048 314.44772 51.333332 315.0 51.333332L325.0 51.333332C325.55228 51.333332 326.0 51.781048 326.0 52.333332L326.0 62.333332C326.0 62.885616 325.55228 63.333332 325.0 63.333332L315.0 63.333332C314.44772 63.333332 314.0 62.885616 314.0 62.333332Z" fill-rule="nonzero"/><path fill="#1a1a1a" d="M340.04688 60.317707L340.04688 61.333332L334.35938 61.333332Q334.35938 60.958332 334.48438 60.598957Q334.70312 60.020832 335.17188 59.458332Q335.65625 58.895832 336.5625 58.161457Q337.96875 57.005207 338.45312 56.333332Q338.95312 55.661457 338.95312 55.067707Q338.95312 54.442707 338.5 54.020832Q338.04688 53.583332 337.32812 53.583332Q336.5625 53.583332 336.10938 54.036457Q335.65625 54.489582 335.64062 55.302082L334.5625 55.192707Q334.67188 53.973957 335.39062 53.348957Q336.125 52.708332 337.35938 52.708332Q338.59375 52.708332 339.3125 53.395832Q340.03125 54.083332 340.03125 55.098957Q340.03125 55.614582 339.8125 56.114582Q339.60938 56.598957 339.10938 57.161457Q338.625 57.708332 337.5 58.661457Q336.54688 59.458332 336.26562 59.755207Q336.0 60.036457 335.82812 60.317707L340.04688 60.317707ZM341.5 57.098957Q341.5 55.567707 341.8125 54.645832Q342.125 53.708332 342.73438 53.208332Q343.35938 52.708332 344.29688 52.708332Q344.98438 52.708332 345.5 52.989582Q346.03125 53.270832 346.375 53.802082Q346.71875 54.317707 346.90625 55.067707Q347.09375 55.817707 347.09375 57.098957Q347.09375 58.614582 346.78125 59.536457Q346.48438 60.458332 345.85938 60.973957Q345.25 61.473957 344.29688 61.473957Q343.0625 61.473957 342.34375 60.583332Q341.5 59.520832 341.5 57.098957ZM342.57812 57.098957Q342.57812 59.208332 343.07812 59.911457Q343.57812 60.614582 344.29688 60.614582Q345.03125 60.614582 345.51562 59.911457Q346.01562 59.208332 346.01562 57.098957Q346.01562 54.973957 345.51562 54.286457Q345.03125 53.583332 344.28125 53.583332Q343.5625 53.583332 343.125 54.192707Q342.57812 54.973957 342.57812 57.098957ZM354.04688 60.317707L354.04688 61.333332L348.35938 61.333332Q348.35938 60.958332 348.48438 60.598957Q348.70312 60.020832 349.17188 59.458332Q349.65625 58.895832 350.5625 58.161457Q351.96875 57.005207 352.45312 56.333332Q352.95312 55.661457 352.95312 55.067707Q352.95312 54.442707 352.5 54.020832Q352.04688 53.583332 351.32812 53.583332Q350.5625 53.583332 350.10938 54.036457Q349.65625 54.489582 349.64062 55.302082L348.5625 55.192707Q348.67188 53.973957 349.39062 53.348957Q350.125 52.708332 351.35938 52.708332Q352.59375 52.708332 353.3125 53.395832Q354.03125 54.083332 354.03125 55.098957Q354.03125 55.614582 353.8125 56.114582Q353.60938 56.598957 353.10938 57.161457Q352.625 57.708332 351.5 58.661457Q350.54688 59.458332 350.26562 59.755207Q350.0 60.036457 349.82812 60.317707L354.04688 60.317707ZM359.46875 61.333332L358.42188 61.333332L358.42188 54.614582Q358.03125 54.973957 357.40625 55.348957Q356.79688 55.708332 356.3125 55.880207L356.3125 54.864582Q357.1875 54.442707 357.84375 53.864582Q358.51562 53.270832 358.79688 52.708332L359.46875 52.708332L359.46875 61.333332Z" fill-rule="nonzero"/><path fill="#757575" d="M19.503124 28.14375Q19.503124 26.39375 20.01875 25.20625Q20.409374 24.33125 21.08125 23.64375Q21.76875 22.940624 22.565624 22.596874Q23.64375 22.14375 25.034374 22.14375Q27.565624 22.14375 29.08125 23.721874Q30.6125 25.284374 30.6125 28.08125Q30.6125 30.8625 29.096874 32.440624Q27.596874 34.003124 25.065624 34.003124Q22.51875 34.003124 21.003124 32.440624Q19.503124 30.878124 19.503124 28.14375ZM21.878124 28.065624Q21.878124 30.003124 22.76875 31.01875Q23.675 32.01875 25.065624 32.01875Q26.440624 32.01875 27.33125 31.01875Q28.221874 30.01875 28.221874 28.034374Q28.221874 26.065624 27.346874 25.096874Q26.4875 24.128124 25.065624 24.128124Q23.628124 24.128124 22.753124 25.1125Q21.878124 26.08125 21.878124 28.065624ZM34.2375 33.8L30.89375 25.503124L33.190624 25.503124L34.753124 29.7375L35.20625 31.14375Q35.39375 30.6125 35.440624 30.440624Q35.55 30.08125 35.675 29.7375L37.253124 25.503124L39.503124 25.503124L36.20625 33.8L34.2375 33.8ZM45.753124 31.159374L47.940624 31.51875Q47.51875 32.721874 46.6125 33.3625Q45.70625 33.9875 44.33125 33.9875Q42.175 33.9875 41.128124 32.565624Q40.315624 31.440624 40.315624 29.70625Q40.315624 27.64375 41.39375 26.4875Q42.471874 25.315624 44.1125 25.315624Q45.971874 25.315624 47.034374 26.534374Q48.1125 27.753124 48.065624 30.284374L42.565624 30.284374Q42.58125 31.253124 43.08125 31.8Q43.596874 32.346874 44.3625 32.346874Q44.878124 32.346874 45.221874 32.065624Q45.58125 31.784374 45.753124 31.159374ZM45.878124 28.940624Q45.8625 27.9875 45.39375 27.4875Q44.925 26.9875 44.253124 26.9875Q43.534374 26.9875 43.065624 27.51875Q42.596874 28.034374 42.596874 28.940624L45.878124 28.940624ZM52.05 33.8L49.8625 33.8L49.8625 25.503124L51.89375 25.503124L51.89375 26.675Q52.425 25.846874 52.83125 25.58125Q53.253124 25.315624 53.784374 25.315624Q54.534374 25.315624 55.2375 25.721874L54.55 27.64375Q54.003124 27.284374 53.51875 27.284374Q53.065624 27.284374 52.7375 27.534374Q52.425 27.784374 52.2375 28.45625Q52.05 29.1125 52.05 31.2375L52.05 33.8ZM57.596874 28.034374L55.596874 27.675Q55.940624 26.471874 56.753124 25.89375Q57.58125 25.315624 59.190624 25.315624Q60.659374 25.315624 61.378124 25.659374Q62.096874 26.003124 62.39375 26.55Q62.690624 27.08125 62.690624 28.503124L62.659374 31.065624Q62.659374 32.159374 62.76875 32.690624Q62.878124 33.20625 63.159374 33.8L60.9875 33.8Q60.909374 33.58125 60.784374 33.14375Q60.721874 32.95625 60.70625 32.89375Q60.14375 33.440624 59.503124 33.721874Q58.8625 33.9875 58.128124 33.9875Q56.846874 33.9875 56.1125 33.3Q55.378124 32.596874 55.378124 31.534374Q55.378124 30.83125 55.70625 30.284374Q56.05 29.721874 56.64375 29.440624Q57.253124 29.14375 58.39375 28.925Q59.940624 28.628124 60.534374 28.378124L60.534374 28.159374Q60.534374 27.534374 60.221874 27.26875Q59.909374 26.9875 59.034374 26.9875Q58.45625 26.9875 58.128124 27.221874Q57.8 27.45625 57.596874 28.034374ZM60.534374 29.815624Q60.1125 29.95625 59.190624 30.159374Q58.284374 30.346874 58.003124 30.534374Q57.565624 30.83125 57.565624 31.3Q57.565624 31.76875 57.909374 32.1125Q58.253124 32.440624 58.784374 32.440624Q59.378124 32.440624 59.925 32.05Q60.315624 31.753124 60.440624 31.315624Q60.534374 31.034374 60.534374 30.253124L60.534374 29.815624ZM64.95625 33.8L64.95625 22.346874L67.14375 22.346874L67.14375 33.8L64.95625 33.8ZM68.95625 33.8L68.95625 22.346874L71.14375 22.346874L71.14375 33.8L68.95625 33.8ZM72.89375 31.596874L75.09688 31.596874L75.09688 33.175Q75.09688 34.128124 74.925 34.675Q74.76875 35.2375 74.3 35.675Q73.84688 36.1125 73.14375 36.3625L72.72188 35.45625Q73.37813 35.2375 73.65938 34.846874Q73.94063 34.471874 73.95625 33.8L72.89375 33.8L72.89375 31.596874ZM83.14375 22.346874L83.14375 26.55Q84.20625 25.315624 85.675 25.315624Q86.44063 25.315624 87.05 25.596874Q87.65938 25.878124 87.95625 26.315624Q88.26875 26.753124 88.37813 27.284374Q88.50313 27.815624 88.50313 28.925L88.50313 33.8L86.3 33.8L86.3 29.409374Q86.3 28.1125 86.175 27.76875Q86.05 27.409374 85.7375 27.20625Q85.425 26.9875 84.94063 26.9875Q84.39375 26.9875 83.95625 27.253124Q83.53438 27.51875 83.33125 28.065624Q83.14375 28.596874 83.14375 29.64375L83.14375 33.8L80.94063 33.8L80.94063 22.346874L83.14375 22.346874ZM90.44063 29.534374Q90.44063 28.440624 90.97188 27.425Q91.51875 26.39375 92.50313 25.8625Q93.50313 25.315624 94.72188 25.315624Q96.59688 25.315624 97.8 26.534374Q99.00313 27.753124 99.00313 29.628124Q99.00313 31.503124 97.78438 32.753124Q96.58125 33.9875 94.7375 33.9875Q93.59688 33.9875 92.55 33.471874Q91.51875 32.95625 90.97188 31.95625Q90.44063 30.95625 90.44063 29.534374ZM92.69063 29.64375Q92.69063 30.878124 93.26875 31.534374Q93.8625 32.190624 94.72188 32.190624Q95.58125 32.190624 96.15938 31.534374Q96.75313 30.878124 96.75313 29.628124Q96.75313 28.409374 96.15938 27.753124Q95.58125 27.096874 94.72188 27.096874Q93.8625 27.096874 93.26875 27.753124Q92.69063 28.409374 92.69063 29.64375ZM102.50313 33.8L99.87813 25.503124L102.00313 25.503124L103.56563 30.940624L104.9875 25.503124L107.1125 25.503124L108.4875 30.940624L110.08125 25.503124L112.2375 25.503124L109.58125 33.8L107.47188 33.8L106.03438 28.45625L104.62813 33.8L102.50313 33.8ZM122.40938 33.8L122.40938 32.55Q121.95625 33.221874 121.22188 33.6125Q120.4875 33.9875 119.65938 33.9875Q118.83125 33.9875 118.15938 33.628124Q117.50313 33.253124 117.20625 32.596874Q116.90938 31.925 116.90938 30.753124L116.90938 25.503124L119.09688 25.503124L119.09688 29.315624Q119.09688 31.065624 119.22188 31.45625Q119.34688 31.846874 119.65938 32.08125Q119.9875 32.315624 120.47188 32.315624Q121.03438 32.315624 121.47188 32.003124Q121.925 31.690624 122.08125 31.2375Q122.25313 30.784374 122.25313 29.003124L122.25313 25.503124L124.45625 25.503124L124.45625 33.8L122.40938 33.8ZM126.175 31.425L128.37813 31.096874Q128.51875 31.7375 128.94063 32.065624Q129.37813 32.39375 130.15938 32.39375Q131.00313 32.39375 131.44063 32.08125Q131.72188 31.8625 131.72188 31.503124Q131.72188 31.253124 131.56563 31.08125Q131.40938 30.925 130.83125 30.8Q128.175 30.20625 127.47188 29.721874Q126.4875 29.05 126.4875 27.8625Q126.4875 26.784374 127.33125 26.05Q128.19063 25.315624 129.97188 25.315624Q131.675 25.315624 132.50313 25.878124Q133.33125 26.425 133.64375 27.503124L131.58125 27.89375Q131.44063 27.409374 131.06563 27.159374Q130.70625 26.89375 130.01875 26.89375Q129.14375 26.89375 128.76875 27.128124Q128.51875 27.3 128.51875 27.58125Q128.51875 27.815624 128.7375 27.971874Q129.03438 28.190624 130.78438 28.596874Q132.55 28.9875 133.2375 29.565624Q133.925 30.159374 133.925 31.20625Q133.925 32.346874 132.97188 33.175Q132.01875 33.9875 130.15938 33.9875Q128.45625 33.9875 127.47188 33.3Q126.4875 32.6125 126.175 31.425ZM140.75313 31.159374L142.94063 31.51875Q142.51875 32.721874 141.6125 33.3625Q140.70625 33.9875 139.33125 33.9875Q137.175 33.9875 136.12813 32.565624Q135.31563 31.440624 135.31563 29.70625Q135.31563 27.64375 136.39375 26.4875Q137.47188 25.315624 139.1125 25.315624Q140.97188 25.315624 142.03438 26.534374Q143.1125 27.753124 143.06563 30.284374L137.56563 30.284374Q137.58125 31.253124 138.08125 31.8Q138.59688 32.346874 139.3625 32.346874Q139.87813 32.346874 140.22188 32.065624Q140.58125 31.784374 140.75313 31.159374ZM140.87813 28.940624Q140.8625 27.9875 140.39375 27.4875Q139.925 26.9875 139.25313 26.9875Q138.53438 26.9875 138.06563 27.51875Q137.59688 28.034374 137.59688 28.940624L140.87813 28.940624ZM143.9875 25.503124L145.20625 25.503124L145.20625 24.878124Q145.20625 23.83125 145.425 23.315624Q145.65938 22.8 146.25313 22.471874Q146.84688 22.14375 147.76875 22.14375Q148.70625 22.14375 149.59688 22.425L149.3 23.95625Q148.78438 23.83125 148.3 23.83125Q147.81563 23.83125 147.6125 24.065624Q147.40938 24.284374 147.40938 24.909374L147.40938 25.503124L149.05 25.503124L149.05 27.221874L147.40938 27.221874L147.40938 33.8L145.20625 33.8L145.20625 27.221874L143.9875 27.221874L143.9875 25.503124ZM155.40938 33.8L155.40938 32.55Q154.95625 33.221874 154.22188 33.6125Q153.4875 33.9875 152.65938 33.9875Q151.83125 33.9875 151.15938 33.628124Q150.50313 33.253124 150.20625 32.596874Q149.90938 31.925 149.90938 30.753124L149.90938 25.503124L152.09688 25.503124L152.09688 29.315624Q152.09688 31.065624 152.22188 31.45625Q152.34688 31.846874 152.65938 32.08125Q152.9875 32.315624 153.47188 32.315624Q154.03438 32.315624 154.47188 32.003124Q154.925 31.690624 155.08125 31.2375Q155.25313 30.784374 155.25313 29.003124L155.25313 25.503124L157.45625 25.503124L157.45625 33.8L155.40938 33.8ZM159.95625 33.8L159.95625 22.346874L162.14375 22.346874L162.14375 33.8L159.95625 33.8ZM167.95625 24.378124L167.95625 22.346874L170.14375 22.346874L170.14375 24.378124L167.95625 24.378124ZM167.95625 33.8L167.95625 25.503124L170.14375 25.503124L170.14375 33.8L167.95625 33.8ZM171.175 31.425L173.37813 31.096874Q173.51875 31.7375 173.94063 32.065624Q174.37813 32.39375 175.15938 32.39375Q176.00313 32.39375 176.44063 32.08125Q176.72188 31.8625 176.72188 31.503124Q176.72188 31.253124 176.56563 31.08125Q176.40938 30.925 175.83125 30.8Q173.175 30.20625 172.47188 29.721874Q171.4875 29.05 171.4875 27.8625Q171.4875 26.784374 172.33125 26.05Q173.19063 25.315624 174.97188 25.315624Q176.675 25.315624 177.50313 25.878124Q178.33125 26.425 178.64375 27.503124L176.58125 27.89375Q176.44063 27.409374 176.06563 27.159374Q175.70625 26.89375 175.01875 26.89375Q174.14375 26.89375 173.76875 27.128124Q173.51875 27.3 173.51875 27.58125Q173.51875 27.815624 173.7375 27.971874Q174.03438 28.190624 175.78438 28.596874Q177.55 28.9875 178.2375 29.565624Q178.925 30.159374 178.925 31.20625Q178.925 32.346874 177.97188 33.175Q177.01875 33.9875 175.15938 33.9875Q173.45625 33.9875 172.47188 33.3Q171.4875 32.6125 171.175 31.425ZM184.97188 33.8L184.97188 22.346874L188.675 22.346874Q190.78438 22.346874 191.425 22.51875Q192.40938 22.76875 193.06563 23.64375Q193.7375 24.503124 193.7375 25.8625Q193.7375 26.925 193.34688 27.64375Q192.97188 28.3625 192.37813 28.76875Q191.8 29.175 191.19063 29.315624Q190.3625 29.471874 188.78438 29.471874L187.28438 29.471874L187.28438 33.8L184.97188 33.8ZM187.28438 24.284374L187.28438 27.534374L188.55 27.534374Q189.90938 27.534374 190.3625 27.3625Q190.83125 27.175 191.09688 26.8Q191.3625 26.409374 191.3625 25.89375Q191.3625 25.26875 190.9875 24.8625Q190.62813 24.45625 190.06563 24.3625Q189.64375 24.284374 188.39375 24.284374L187.28438 24.284374ZM197.59688 28.034374L195.59688 27.675Q195.94063 26.471874 196.75313 25.89375Q197.58125 25.315624 199.19063 25.315624Q200.65938 25.315624 201.37813 25.659374Q202.09688 26.003124 202.39375 26.55Q202.69063 27.08125 202.69063 28.503124L202.65938 31.065624Q202.65938 32.159374 202.76875 32.690624Q202.87813 33.20625 203.15938 33.8L200.9875 33.8Q200.90938 33.58125 200.78438 33.14375Q200.72188 32.95625 200.70625 32.89375Q200.14375 33.440624 199.50313 33.721874Q198.8625 33.9875 198.12813 33.9875Q196.84688 33.9875 196.1125 33.3Q195.37813 32.596874 195.37813 31.534374Q195.37813 30.83125 195.70625 30.284374Q196.05 29.721874 196.64375 29.440624Q197.25313 29.14375 198.39375 28.925Q199.94063 28.628124 200.53438 28.378124L200.53438 28.159374Q200.53438 27.534374 200.22188 27.26875Q199.90938 26.9875 199.03438 26.9875Q198.45625 26.9875 198.12813 27.221874Q197.8 27.45625 197.59688 28.034374ZM200.53438 29.815624Q200.1125 29.95625 199.19063 30.159374Q198.28438 30.346874 198.00313 30.534374Q197.56563 30.83125 197.56563 31.3Q197.56563 31.76875 197.90938 32.1125Q198.25313 32.440624 198.78438 32.440624Q199.37813 32.440624 199.925 32.05Q200.31563 31.753124 200.44063 31.315624Q200.53438 31.034374 200.53438 30.253124L200.53438 29.815624ZM204.90938 24.378124L204.90938 22.346874L207.09688 22.346874L207.09688 24.378124L204.90938 24.378124ZM207.09688 25.503124L207.09688 33.534374Q207.09688 35.128124 206.89375 35.784374Q206.69063 36.440624 206.09688 36.8Q205.50313 37.175 204.59688 37.175Q204.26875 37.175 203.87813 37.1125Q203.50313 37.05 203.06563 36.940624L203.44063 35.065624Q203.59688 35.096874 203.7375 35.1125Q203.87813 35.128124 204.00313 35.128124Q204.33125 35.128124 204.55 34.9875Q204.76875 34.846874 204.83125 34.64375Q204.90938 34.440624 204.90938 33.409374L204.90938 25.503124L207.09688 25.503124ZM210.59688 28.034374L208.59688 27.675Q208.94063 26.471874 209.75313 25.89375Q210.58125 25.315624 212.19063 25.315624Q213.65938 25.315624 214.37813 25.659374Q215.09688 26.003124 215.39375 26.55Q215.69063 27.08125 215.69063 28.503124L215.65938 31.065624Q215.65938 32.159374 215.76875 32.690624Q215.87813 33.20625 216.15938 33.8L213.9875 33.8Q213.90938 33.58125 213.78438 33.14375Q213.72188 32.95625 213.70625 32.89375Q213.14375 33.440624 212.50313 33.721874Q211.8625 33.9875 211.12813 33.9875Q209.84688 33.9875 209.1125 33.3Q208.37813 32.596874 208.37813 31.534374Q208.37813 30.83125 208.70625 30.284374Q209.05 29.721874 209.64375 29.440624Q210.25313 29.14375 211.39375 28.925Q212.94063 28.628124 213.53438 28.378124L213.53438 28.159374Q213.53438 27.534374 213.22188 27.26875Q212.90938 26.9875 212.03438 26.9875Q211.45625 26.9875 211.12813 27.221874Q210.8 27.45625 210.59688 28.034374ZM213.53438 29.815624Q213.1125 29.95625 212.19063 30.159374Q211.28438 30.346874 211.00313 30.534374Q210.56563 30.83125 210.56563 31.3Q210.56563 31.76875 210.90938 32.1125Q211.25313 32.440624 211.78438 32.440624Q212.37813 32.440624 212.925 32.05Q213.31563 31.753124 213.44063 31.315624Q213.53438 31.034374 213.53438 30.253124L213.53438 29.815624ZM217.78438 25.503124L219.81563 25.503124L219.81563 26.628124Q220.89375 25.315624 222.39375 25.315624Q223.19063 25.315624 223.76875 25.64375Q224.3625 25.971874 224.7375 26.628124Q225.28438 25.971874 225.90938 25.64375Q226.55 25.315624 227.26875 25.315624Q228.19063 25.315624 228.81563 25.690624Q229.45625 26.05 229.76875 26.76875Q229.9875 27.3 229.9875 28.4875L229.9875 33.8L227.8 33.8L227.8 29.05Q227.8 27.815624 227.56563 27.45625Q227.26875 26.9875 226.62813 26.9875Q226.175 26.9875 225.76875 27.26875Q225.3625 27.55 225.175 28.096874Q225.00313 28.64375 225.00313 29.815624L225.00313 33.8L222.8 33.8L222.8 29.253124Q222.8 28.034374 222.675 27.690624Q222.56563 27.33125 222.31563 27.159374Q222.08125 26.9875 221.65938 26.9875Q221.14375 26.9875 220.7375 27.26875Q220.33125 27.534374 220.15938 28.05Q219.9875 28.565624 219.9875 29.76875L219.9875 33.8L217.78438 33.8L217.78438 25.503124ZM233.59688 28.034374L231.59688 27.675Q231.94063 26.471874 232.75313 25.89375Q233.58125 25.315624 235.19063 25.315624Q236.65938 25.315624 237.37813 25.659374Q238.09688 26.003124 238.39375 26.55Q238.69063 27.08125 238.69063 28.503124L238.65938 31.065624Q238.65938 32.159374 238.76875 32.690624Q238.87813 33.20625 239.15938 33.8L236.9875 33.8Q236.90938 33.58125 236.78438 33.14375Q236.72188 32.95625 236.70625 32.89375Q236.14375 33.440624 235.50313 33.721874Q234.8625 33.9875 234.12813 33.9875Q232.84688 33.9875 232.1125 33.3Q231.37813 32.596874 231.37813 31.534374Q231.37813 30.83125 231.70625 30.284374Q232.05 29.721874 232.64375 29.440624Q233.25313 29.14375 234.39375 28.925Q235.94063 28.628124 236.53438 28.378124L236.53438 28.159374Q236.53438 27.534374 236.22188 27.26875Q235.90938 26.9875 235.03438 26.9875Q234.45625 26.9875 234.12813 27.221874Q233.8 27.45625 233.59688 28.034374ZM236.53438 29.815624Q236.1125 29.95625 235.19063 30.159374Q234.28438 30.346874 234.00313 30.534374Q233.56563 30.83125 233.56563 31.3Q233.56563 31.76875 233.90938 32.1125Q234.25313 32.440624 234.78438 32.440624Q235.37813 32.440624 235.925 32.05Q236.31563 31.753124 236.44063 31.315624Q236.53438 31.034374 236.53438 30.253124L236.53438 29.815624ZM240.175 31.425L242.37813 31.096874Q242.51875 31.7375 242.94063 32.065624Q243.37813 32.39375 244.15938 32.39375Q245.00313 32.39375 245.44063 32.08125Q245.72188 31.8625 245.72188 31.503124Q245.72188 31.253124 245.56563 31.08125Q245.40938 30.925 244.83125 30.8Q242.175 30.20625 241.47188 29.721874Q240.4875 29.05 240.4875 27.8625Q240.4875 26.784374 241.33125 26.05Q242.19063 25.315624 243.97188 25.315624Q245.675 25.315624 246.50313 25.878124Q247.33125 26.425 247.64375 27.503124L245.58125 27.89375Q245.44063 27.409374 245.06563 27.159374Q244.70625 26.89375 244.01875 26.89375Q243.14375 26.89375 242.76875 27.128124Q242.51875 27.3 242.51875 27.58125Q242.51875 27.815624 242.7375 27.971874Q243.03438 28.190624 244.78438 28.596874Q246.55 28.9875 247.2375 29.565624Q247.925 30.159374 247.925 31.20625Q247.925 32.346874 246.97188 33.175Q246.01875 33.9875 244.15938 33.9875Q242.45625 33.9875 241.47188 33.3Q240.4875 32.6125 240.175 31.425ZM257.7531 25.503124L257.7531 27.253124L256.2531 27.253124L256.2531 30.596874Q256.2531 31.6125 256.3 31.784374Q256.34686 31.940624 256.4875 32.05Q256.64374 32.159374 256.8625 32.159374Q257.175 32.159374 257.7531 31.95625L257.9406 33.659374Q257.175 33.9875 256.20624 33.9875Q255.6125 33.9875 255.12813 33.784374Q254.65938 33.58125 254.425 33.26875Q254.20625 32.95625 254.12813 32.409374Q254.05 32.034374 254.05 30.8625L254.05 27.253124L253.05 27.253124L253.05 25.503124L254.05 25.503124L254.05 23.846874L256.2531 22.565624L256.2531 25.503124L257.7531 25.503124ZM258.4406 29.534374Q258.4406 28.440624 258.97186 27.425Q259.51874 26.39375 260.5031 25.8625Q261.5031 25.315624 262.72186 25.315624Q264.59686 25.315624 265.8 26.534374Q267.0031 27.753124 267.0031 29.628124Q267.0031 31.503124 265.78436 32.753124Q264.58124 33.9875 262.7375 33.9875Q261.59686 33.9875 260.55 33.471874Q259.51874 32.95625 258.97186 31.95625Q258.4406 30.95625 258.4406 29.534374ZM260.6906 29.64375Q260.6906 30.878124 261.26874 31.534374Q261.8625 32.190624 262.72186 32.190624Q263.58124 32.190624 264.15936 31.534374Q264.7531 30.878124 264.7531 29.628124Q264.7531 28.409374 264.15936 27.753124Q263.58124 27.096874 262.72186 27.096874Q261.8625 27.096874 261.26874 27.753124Q260.6906 28.409374 260.6906 29.64375ZM271.90936 25.503124L274.2531 25.503124L276.2375 31.39375L278.175 25.503124L280.4406 25.503124L277.51874 33.4875L276.9875 34.940624Q276.70624 35.659374 276.4406 36.034374Q276.175 36.425 275.83124 36.659374Q275.5031 36.909374 275.0031 37.034374Q274.5031 37.175 273.8781 37.175Q273.2531 37.175 272.64374 37.034374L272.4406 35.315624Q272.95624 35.425 273.3781 35.425Q274.14374 35.425 274.5031 34.971874Q274.8781 34.51875 275.0656 33.83125L271.90936 25.503124ZM281.4406 29.534374Q281.4406 28.440624 281.97186 27.425Q282.51874 26.39375 283.5031 25.8625Q284.5031 25.315624 285.72186 25.315624Q287.59686 25.315624 288.8 26.534374Q290.0031 27.753124 290.0031 29.628124Q290.0031 31.503124 288.78436 32.753124Q287.58124 33.9875 285.7375 33.9875Q284.59686 33.9875 283.55 33.471874Q282.51874 32.95625 281.97186 31.95625Q281.4406 30.95625 281.4406 29.534374ZM283.6906 29.64375Q283.6906 30.878124 284.26874 31.534374Q284.8625 32.190624 285.72186 32.190624Q286.58124 32.190624 287.15936 31.534374Q287.7531 30.878124 287.7531 29.628124Q287.7531 28.409374 287.15936 27.753124Q286.58124 27.096874 285.72186 27.096874Q284.8625 27.096874 284.26874 27.753124Q283.6906 28.409374 283.6906 29.64375ZM297.40936 33.8L297.40936 32.55Q296.95624 33.221874 296.22186 33.6125Q295.4875 33.9875 294.65936 33.9875Q293.83124 33.9875 293.15936 33.628124Q292.5031 33.253124 292.20624 32.596874Q291.90936 31.925 291.90936 30.753124L291.90936 25.503124L294.09686 25.503124L294.09686 29.315624Q294.09686 31.065624 294.22186 31.45625Q294.34686 31.846874 294.65936 32.08125Q294.9875 32.315624 295.47186 32.315624Q296.03436 32.315624 296.47186 32.003124Q296.925 31.690624 297.08124 31.2375Q297.2531 30.784374 297.2531 29.003124L297.2531 25.503124L299.45624 25.503124L299.45624 33.8L297.40936 33.8ZM305.95624 24.378124L305.95624 22.346874L308.14374 22.346874L308.14374 24.378124L305.95624 24.378124ZM305.95624 33.8L305.95624 25.503124L308.14374 25.503124L308.14374 33.8L305.95624 33.8ZM317.5031 33.8L315.3 33.8L315.3 29.565624Q315.3 28.221874 315.15936 27.83125Q315.01874 27.425 314.70624 27.20625Q314.39374 26.9875 313.9406 26.9875Q313.3781 26.9875 312.925 27.3Q312.47186 27.6125 312.3 28.128124Q312.1281 28.64375 312.1281 30.034374L312.1281 33.8L309.9406 33.8L309.9406 25.503124L311.97186 25.503124L311.97186 26.721874Q313.0656 25.315624 314.70624 25.315624Q315.4406 25.315624 316.03436 25.58125Q316.64374 25.83125 316.9406 26.2375Q317.2531 26.64375 317.3781 27.159374Q317.5031 27.675 317.5031 28.64375L317.5031 33.8ZM322.90936 25.503124L325.2531 25.503124L327.2375 31.39375L329.175 25.503124L331.4406 25.503124L328.51874 33.4875L327.9875 34.940624Q327.70624 35.659374 327.4406 36.034374Q327.175 36.425 326.83124 36.659374Q326.5031 36.909374 326.0031 37.034374Q325.5031 37.175 324.8781 37.175Q324.2531 37.175 323.64374 37.034374L323.4406 35.315624Q323.95624 35.425 324.3781 35.425Q325.14374 35.425 325.5031 34.971874Q325.8781 34.51875 326.0656 33.83125L322.90936 25.503124ZM332.4406 29.534374Q332.4406 28.440624 332.97186 27.425Q333.51874 26.39375 334.5031 25.8625Q335.5031 25.315624 336.72186 25.315624Q338.59686 25.315624 339.8 26.534374Q341.0031 27.753124 341.0031 29.628124Q341.0031 31.503124 339.78436 32.753124Q338.58124 33.9875 336.7375 33.9875Q335.59686 33.9875 334.55 33.471874Q333.51874 32.95625 332.97186 31.95625Q332.4406 30.95625 332.4406 29.534374ZM334.6906 29.64375Q334.6906 30.878124 335.26874 31.534374Q335.8625 32.190624 336.72186 32.190624Q337.58124 32.190624 338.15936 31.534374Q338.7531 30.878124 338.7531 29.628124Q338.7531 28.409374 338.15936 27.753124Q337.58124 27.096874 336.72186 27.096874Q335.8625 27.096874 335.26874 27.753124Q334.6906 28.409374 334.6906 29.64375ZM348.40936 33.8L348.40936 32.55Q347.95624 33.221874 347.22186 33.6125Q346.4875 33.9875 345.65936 33.9875Q344.83124 33.9875 344.15936 33.628124Q343.5031 33.253124 343.20624 32.596874Q342.90936 31.925 342.90936 30.753124L342.90936 25.503124L345.09686 25.503124L345.09686 29.315624Q345.09686 31.065624 345.22186 31.45625Q345.34686 31.846874 345.65936 32.08125Q345.9875 32.315624 346.47186 32.315624Q347.03436 32.315624 347.47186 32.003124Q347.925 31.690624 348.08124 31.2375Q348.2531 30.784374 348.2531 29.003124L348.2531 25.503124L350.45624 25.503124L350.45624 33.8L348.40936 33.8ZM355.05 33.8L352.8625 33.8L352.8625 25.503124L354.89374 25.503124L354.89374 26.675Q355.425 25.846874 355.83124 25.58125Q356.2531 25.315624 356.78436 25.315624Q357.53436 25.315624 358.2375 25.721874L357.55 27.64375Q357.0031 27.284374 356.51874 27.284374Q356.0656 27.284374 355.7375 27.534374Q355.425 27.784374 355.2375 28.45625Q355.05 29.1125 355.05 31.2375L355.05 33.8ZM364.5031 33.8L361.8781 25.503124L364.0031 25.503124L365.5656 30.940624L366.9875 25.503124L369.1125 25.503124L370.4875 30.940624L372.08124 25.503124L374.2375 25.503124L371.58124 33.8L369.47186 33.8L368.03436 28.45625L366.6281 33.8L364.5031 33.8ZM374.4406 29.534374Q374.4406 28.440624 374.97186 27.425Q375.51874 26.39375 376.5031 25.8625Q377.5031 25.315624 378.72186 25.315624Q380.59686 25.315624 381.8 26.534374Q383.0031 27.753124 383.0031 29.628124Q383.0031 31.503124 381.78436 32.753124Q380.58124 33.9875 378.7375 33.9875Q377.59686 33.9875 376.55 33.471874Q375.51874 32.95625 374.97186 31.95625Q374.4406 30.95625 374.4406 29.534374ZM376.6906 29.64375Q376.6906 30.878124 377.26874 31.534374Q377.8625 32.190624 378.72186 32.190624Q379.58124 32.190624 380.15936 31.534374Q380.7531 30.878124 380.7531 29.628124Q380.7531 28.409374 380.15936 27.753124Q379.58124 27.096874 378.72186 27.096874Q377.8625 27.096874 377.26874 27.753124Q376.6906 28.409374 376.6906 29.64375ZM387.05 33.8L384.8625 33.8L384.8625 25.503124L386.89374 25.503124L386.89374 26.675Q387.425 25.846874 387.83124 25.58125Q388.2531 25.315624 388.78436 25.315624Q389.53436 25.315624 390.2375 25.721874L389.55 27.64375Q389.0031 27.284374 388.51874 27.284374Q388.0656 27.284374 387.7375 27.534374Q387.425 27.784374 387.2375 28.45625Q387.05 29.1125 387.05 31.2375L387.05 33.8ZM390.8781 33.8L390.8781 22.346874L393.0656 22.346874L393.0656 28.425L395.64374 25.503124L398.34686 25.503124L395.5031 28.534374L398.55 33.8L396.175 33.8L394.09686 30.065624L393.0656 31.14375L393.0656 33.8L390.8781 33.8ZM404.675 30.846874L402.675 30.846874Q402.675 30.409374 402.675 30.315624Q402.675 29.346874 402.9875 28.721874Q403.3156 28.096874 404.26874 27.315624Q405.2375 26.534374 405.425 26.3Q405.70624 25.909374 405.70624 25.45625Q405.70624 24.815624 405.1906 24.3625Q404.6906 23.89375 403.8156 23.89375Q402.9875 23.89375 402.425 24.378124Q401.8625 24.846874 401.64374 25.83125L399.6281 25.58125Q399.72186 24.175 400.8156 23.20625Q401.925 22.221874 403.72186 22.221874Q405.6125 22.221874 406.72186 23.221874Q407.84686 24.20625 407.84686 25.51875Q407.84686 26.2375 407.4406 26.89375Q407.03436 27.534374 405.6906 28.659374Q404.9875 29.2375 404.8156 29.596874Q404.65936 29.940624 404.675 30.846874ZM402.675 33.8L402.675 31.596874L404.8781 31.596874L404.8781 33.8L402.675 33.8Z" fill-rule="nonzero"/></svg>