<svg version="1.1" viewBox="0.0 0.0 612.0 376.0" fill="none" stroke="none" stroke-linecap="square" stroke-miterlimit="10" width="612" height="376" xmlns:xlink="http://www.w3.org/1999/xlink" xmlns="http://www.w3.org/2000/svg"><path fill="#ffffff" d="M0 0L612.0 0L612.0 376.0L0 376.0L0 0Z" fill-rule="nonzero"/><path stroke="#333333" stroke-width="1.0" stroke-linecap="butt" d="M73.5 337.5L593.5 337.5" fill-rule="nonzero"/><path stroke="#cccccc" stroke-width="1.0" stroke-linecap="butt" d="M73.5 278.5L593.5 278.5" fill-rule="nonzero"/><path stroke="#cccccc" stroke-width="1.0" stroke-linecap="butt" d="M73.5 220.5L593.5 220.5" fill-rule="nonzero"/><path stroke="#cccccc" stroke-width="1.0" stroke-linecap="butt" d="M73.5 161.5L593.5 161.5" fill-rule="nonzero"/><path stroke="#cccccc" stroke-width="1.0" stroke-linecap="butt" d="M73.5 102.5L593.5 102.5" fill-rule="nonzero"/><path stroke="#000000" stroke-width="1.0" stroke-linecap="butt" d="M73.5 337.5L73.5 102.5" fill-rule="nonzero"/><clipPath id="id_0"><path d="M73.8 102.86667L593.2 102.86667L593.2 337.2L73.8 337.2L73.8 102.86667Z" clip-rule="nonzero"/></clipPath><path stroke="#000000" stroke-width="2.0" stroke-linecap="butt" stroke-opacity="0.0" clip-path="url(#id_0)" d="M153.0 337.0L116.0 337.0L116.0 337.0L153.0 337.0Z" fill-rule="nonzero"/><path fill="#f9cb9c" clip-path="url(#id_0)" d="M153.0 337.0L116.0 337.0L116.0 337.0L153.0 337.0Z" fill-rule="nonzero"/><path stroke="#000000" stroke-width="2.0" stroke-linecap="butt" stroke-opacity="0.0" clip-path="url(#id_0)" d="M273.0 337.0L236.0 337.0L236.0 272.0C236.0 270.89542 236.89543 270.0 238.0 270.0L271.0 270.0C272.10458 270.0 273.0 270.89542 273.0 272.0Z" fill-rule="nonzero"/><path fill="#f9cb9c" clip-path="url(#id_0)" d="M273.0 337.0L236.0 337.0L236.0 272.0C236.0 270.89542 236.89543 270.0 238.0 270.0L271.0 270.0C272.10458 270.0 273.0 270.89542 273.0 272.0Z" fill-rule="nonzero"/><path stroke="#000000" stroke-width="2.0" stroke-linecap="butt" stroke-opacity="0.0" clip-path="url(#id_0)" d="M392.0 337.0L355.0 337.0L355.0 205.0C355.0 203.89543 355.89542 203.0 357.0 203.0L390.0 203.0C391.10458 203.0 392.0 203.89543 392.0 205.0Z" fill-rule="nonzero"/><path fill="#f9cb9c" clip-path="url(#id_0)" d="M392.0 337.0L355.0 337.0L355.0 205.0C355.0 203.89543 355.89542 203.0 357.0 203.0L390.0 203.0C391.10458 203.0 392.0 203.89543 392.0 205.0Z" fill-rule="nonzero"/><path stroke="#000000" stroke-width="2.0" stroke-linecap="butt" stroke-opacity="0.0" clip-path="url(#id_0)" d="M512.0 337.0L475.0 337.0L475.0 306.0C475.0 304.89542 475.89542 304.0 477.0 304.0L510.0 304.0C511.10458 304.0 512.0 304.89542 512.0 306.0Z" fill-rule="nonzero"/><path fill="#f9cb9c" clip-path="url(#id_0)" d="M512.0 337.0L475.0 337.0L475.0 306.0C475.0 304.89542 475.89542 304.0 477.0 304.0L510.0 304.0C511.10458 304.0 512.0 304.89542 512.0 306.0Z" fill-rule="nonzero"/><path stroke="#000000" stroke-width="2.0" stroke-linecap="butt" stroke-opacity="0.0" clip-path="url(#id_0)" d="M192.0 337.0L155.0 337.0L155.0 179.0C155.0 177.89543 155.89543 177.0 157.0 177.0L190.0 177.0C191.10457 177.0 192.0 177.89543 192.0 179.0Z" fill-rule="nonzero"/><path fill="#a4c2f4" clip-path="url(#id_0)" d="M192.0 337.0L155.0 337.0L155.0 179.0C155.0 177.89543 155.89543 177.0 157.0 177.0L190.0 177.0C191.10457 177.0 192.0 177.89543 192.0 179.0Z" fill-rule="nonzero"/><path stroke="#000000" stroke-width="2.0" stroke-linecap="butt" stroke-opacity="0.0" clip-path="url(#id_0)" d="M312.0 337.0L275.0 337.0L275.0 265.0C275.0 263.89542 275.89542 263.0 277.0 263.0L310.0 263.0C311.10458 263.0 312.0 263.89542 312.0 265.0Z" fill-rule="nonzero"/><path fill="#a4c2f4" clip-path="url(#id_0)" d="M312.0 337.0L275.0 337.0L275.0 265.0C275.0 263.89542 275.89542 263.0 277.0 263.0L310.0 263.0C311.10458 263.0 312.0 263.89542 312.0 265.0Z" fill-rule="nonzero"/><path stroke="#000000" stroke-width="2.0" stroke-linecap="butt" stroke-opacity="0.0" clip-path="url(#id_0)" d="M431.0 337.0L394.0 337.0L394.0 337.0L431.0 337.0Z" fill-rule="nonzero"/><path fill="#a4c2f4" clip-path="url(#id_0)" d="M431.0 337.0L394.0 337.0L394.0 337.0L431.0 337.0Z" fill-rule="nonzero"/><path stroke="#000000" stroke-width="2.0" stroke-linecap="butt" stroke-opacity="0.0" clip-path="url(#id_0)" d="M551.0 337.0L514.0 337.0L514.0 337.0L551.0 337.0Z" fill-rule="nonzero"/><path fill="#a4c2f4" clip-path="url(#id_0)" d="M551.0 337.0L514.0 337.0L514.0 337.0L551.0 337.0Z" fill-rule="nonzero"/><path fill="#000000" d="M33.3 336.96564Q33.3 335.4344 33.6125 334.5125Q33.925 333.575 34.534374 333.075Q35.159374 332.575 36.096874 332.575Q36.784374 332.575 37.3 332.85626Q37.83125 333.1375 38.175 333.66876Q38.51875 334.1844 38.70625 334.9344Q38.89375 335.6844 38.89375 336.96564Q38.89375 338.48126 38.58125 339.40314Q38.284374 340.325 37.659374 340.84064Q37.05 341.34064 36.096874 341.34064Q34.8625 341.34064 34.14375 340.45Q33.3 339.3875 33.3 336.96564ZM34.378124 336.96564Q34.378124 339.075 34.878124 339.77814Q35.378124 340.48126 36.096874 340.48126Q36.83125 340.48126 37.315624 339.77814Q37.815624 339.075 37.815624 336.96564Q37.815624 334.84064 37.315624 334.15314Q36.83125 333.45 36.08125 333.45Q35.3625 333.45 34.925 334.0594Q34.378124 334.84064 34.378124 336.96564ZM40.89375 341.2L40.89375 339.9969L42.096874 339.9969L42.096874 341.2L40.89375 341.2ZM43.3 336.96564Q43.3 335.4344 43.6125 334.5125Q43.925 333.575 44.534374 333.075Q45.159374 332.575 46.096874 332.575Q46.784374 332.575 47.3 332.85626Q47.83125 333.1375 48.175 333.66876Q48.51875 334.1844 48.70625 334.9344Q48.89375 335.6844 48.89375 336.96564Q48.89375 338.48126 48.58125 339.40314Q48.284374 340.325 47.659374 340.84064Q47.05 341.34064 46.096874 341.34064Q44.8625 341.34064 44.14375 340.45Q43.3 339.3875 43.3 336.96564ZM44.378124 336.96564Q44.378124 339.075 44.878124 339.77814Q45.378124 340.48126 46.096874 340.48126Q46.83125 340.48126 47.315624 339.77814Q47.815624 339.075 47.815624 336.96564Q47.815624 334.84064 47.315624 334.15314Q46.83125 333.45 46.08125 333.45Q45.3625 333.45 44.925 334.0594Q44.378124 334.84064 44.378124 336.96564ZM50.3 336.96564Q50.3 335.4344 50.6125 334.5125Q50.925 333.575 51.534374 333.075Q52.159374 332.575 53.096874 332.575Q53.784374 332.575 54.3 332.85626Q54.83125 333.1375 55.175 333.66876Q55.51875 334.1844 55.70625 334.9344Q55.89375 335.6844 55.89375 336.96564Q55.89375 338.48126 55.58125 339.40314Q55.284374 340.325 54.659374 340.84064Q54.05 341.34064 53.096874 341.34064Q51.8625 341.34064 51.14375 340.45Q50.3 339.3875 50.3 336.96564ZM51.378124 336.96564Q51.378124 339.075 51.878124 339.77814Q52.378124 340.48126 53.096874 340.48126Q53.83125 340.48126 54.315624 339.77814Q54.815624 339.075 54.815624 336.96564Q54.815624 334.84064 54.315624 334.15314Q53.83125 333.45 53.08125 333.45Q52.3625 333.45 51.925 334.0594Q51.378124 334.84064 51.378124 336.96564ZM57.503124 334.66876Q57.503124 333.7469 57.95625 333.10626Q58.425 332.46564 59.3 332.46564Q60.1125 332.46564 60.64375 333.04376Q61.175 333.6219 61.175 334.73126Q61.175 335.825 60.628124 336.41876Q60.096874 336.9969 59.315624 336.9969Q58.534374 336.9969 58.01875 336.41876Q57.503124 335.84064 57.503124 334.66876ZM59.33125 333.1844Q58.940624 333.1844 58.675 333.52814Q58.425 333.8719 58.425 334.77814Q58.425 335.60626 58.675 335.95Q58.940624 336.27814 59.33125 336.27814Q59.7375 336.27814 59.9875 335.9344Q60.253124 335.59064 60.253124 334.7Q60.253124 333.85626 59.9875 333.52814Q59.721874 333.1844 59.33125 333.1844ZM59.33125 341.5125L64.03438 332.46564L64.89375 332.46564L60.20625 341.5125L59.33125 341.5125ZM63.05 339.1844Q63.05 338.2625 63.503124 337.6219Q63.971874 336.98126 64.8625 336.98126Q65.675 336.98126 66.20625 337.5594Q66.7375 338.1219 66.7375 339.2469Q66.7375 340.34064 66.19063 340.9344Q65.65938 341.5125 64.8625 341.5125Q64.09688 341.5125 63.565624 340.9344Q63.05 340.35626 63.05 339.1844ZM64.89375 337.7Q64.4875 337.7 64.22188 338.04376Q63.971874 338.3875 63.971874 339.29376Q63.971874 340.10626 64.2375 340.45Q64.50313 340.79376 64.89375 340.79376Q65.28438 340.79376 65.55 340.45Q65.81563 340.10626 65.81563 339.2Q65.81563 338.3719 65.55 338.04376Q65.28438 337.7 64.89375 337.7Z" fill-rule="nonzero"/><path fill="#000000" d="M31.846874 281.60104L31.846874 282.61667L26.159374 282.61667Q26.159374 282.24167 26.284374 281.8823Q26.503124 281.30417 26.971874 280.74167Q27.45625 280.17917 28.3625 279.4448Q29.76875 278.28854 30.253124 277.61667Q30.753124 276.9448 30.753124 276.35104Q30.753124 275.72604 30.3 275.30417Q29.846874 274.86667 29.128124 274.86667Q28.3625 274.86667 27.909374 275.3198Q27.45625 275.77292 27.440624 276.58542L26.3625 276.47604Q26.471874 275.2573 27.190624 274.6323Q27.925 273.99167 29.159374 273.99167Q30.39375 273.99167 31.1125 274.67917Q31.83125 275.36667 31.83125 276.3823Q31.83125 276.89792 31.6125 277.39792Q31.409374 277.8823 30.909374 278.4448Q30.425 278.99167 29.3 279.9448Q28.346874 280.74167 28.065624 281.03854Q27.8 281.3198 27.628124 281.60104L31.846874 281.60104ZM33.3 280.36667L34.409374 280.27292Q34.534374 281.08542 34.971874 281.49167Q35.425 281.89792 36.065624 281.89792Q36.815624 281.89792 37.346874 281.3198Q37.878124 280.74167 37.878124 279.80417Q37.878124 278.89792 37.3625 278.3823Q36.8625 277.85104 36.034374 277.85104Q35.534374 277.85104 35.1125 278.08542Q34.70625 278.3198 34.471874 278.67917L33.4875 278.55417L34.315624 274.14792L38.596874 274.14792L38.596874 275.14792L35.159374 275.14792L34.70625 277.46042Q35.471874 276.91354 36.315624 276.91354Q37.440624 276.91354 38.20625 277.6948Q38.9875 278.47604 38.9875 279.71042Q38.9875 280.86667 38.315624 281.72604Q37.4875 282.7573 36.065624 282.7573Q34.89375 282.7573 34.14375 282.10104Q33.409374 281.4448 33.3 280.36667ZM40.89375 282.61667L40.89375 281.41354L42.096874 281.41354L42.096874 282.61667L40.89375 282.61667ZM43.3 278.3823Q43.3 276.85104 43.6125 275.92917Q43.925 274.99167 44.534374 274.49167Q45.159374 273.99167 46.096874 273.99167Q46.784374 273.99167 47.3 274.27292Q47.83125 274.55417 48.175 275.08542Q48.51875 275.60104 48.70625 276.35104Q48.89375 277.10104 48.89375 278.3823Q48.89375 279.89792 48.58125 280.8198Q48.284374 281.74167 47.659374 282.2573Q47.05 282.7573 46.096874 282.7573Q44.8625 282.7573 44.14375 281.86667Q43.3 280.80417 43.3 278.3823ZM44.378124 278.3823Q44.378124 280.49167 44.878124 281.1948Q45.378124 281.89792 46.096874 281.89792Q46.83125 281.89792 47.315624 281.1948Q47.815624 280.49167 47.815624 278.3823Q47.815624 276.2573 47.315624 275.5698Q46.83125 274.86667 46.08125 274.86667Q45.3625 274.86667 44.925 275.47604Q44.378124 276.2573 44.378124 278.3823ZM50.3 278.3823Q50.3 276.85104 50.6125 275.92917Q50.925 274.99167 51.534374 274.49167Q52.159374 273.99167 53.096874 273.99167Q53.784374 273.99167 54.3 274.27292Q54.83125 274.55417 55.175 275.08542Q55.51875 275.60104 55.70625 276.35104Q55.89375 277.10104 55.89375 278.3823Q55.89375 279.89792 55.58125 280.8198Q55.284374 281.74167 54.659374 282.2573Q54.05 282.7573 53.096874 282.7573Q51.8625 282.7573 51.14375 281.86667Q50.3 280.80417 50.3 278.3823ZM51.378124 278.3823Q51.378124 280.49167 51.878124 281.1948Q52.378124 281.89792 53.096874 281.89792Q53.83125 281.89792 54.315624 281.1948Q54.815624 280.49167 54.815624 278.3823Q54.815624 276.2573 54.315624 275.5698Q53.83125 274.86667 53.08125 274.86667Q52.3625 274.86667 51.925 275.47604Q51.378124 276.2573 51.378124 278.3823ZM57.503124 276.08542Q57.503124 275.16354 57.95625 274.52292Q58.425 273.8823 59.3 273.8823Q60.1125 273.8823 60.64375 274.46042Q61.175 275.03854 61.175 276.14792Q61.175 277.24167 60.628124 277.83542Q60.096874 278.41354 59.315624 278.41354Q58.534374 278.41354 58.01875 277.83542Q57.503124 277.2573 57.503124 276.08542ZM59.33125 274.60104Q58.940624 274.60104 58.675 274.9448Q58.425 275.28854 58.425 276.1948Q58.425 277.02292 58.675 277.36667Q58.940624 277.6948 59.33125 277.6948Q59.7375 277.6948 59.9875 277.35104Q60.253124 277.0073 60.253124 276.11667Q60.253124 275.27292 59.9875 274.9448Q59.721874 274.60104 59.33125 274.60104ZM59.33125 282.92917L64.03438 273.8823L64.89375 273.8823L60.20625 282.92917L59.33125 282.92917ZM63.05 280.60104Q63.05 279.67917 63.503124 279.03854Q63.971874 278.39792 64.8625 278.39792Q65.675 278.39792 66.20625 278.97604Q66.7375 279.53854 66.7375 280.66354Q66.7375 281.7573 66.19063 282.35104Q65.65938 282.92917 64.8625 282.92917Q64.09688 282.92917 63.565624 282.35104Q63.05 281.77292 63.05 280.60104ZM64.89375 279.11667Q64.4875 279.11667 64.22188 279.46042Q63.971874 279.80417 63.971874 280.71042Q63.971874 281.52292 64.2375 281.86667Q64.50313 282.21042 64.89375 282.21042Q65.28438 282.21042 65.55 281.86667Q65.81563 281.52292 65.81563 280.61667Q65.81563 279.78854 65.55 279.46042Q65.28438 279.11667 64.89375 279.11667Z" fill-rule="nonzero"/><path fill="#000000" d="M26.3 221.78334L27.409374 221.68959Q27.534374 222.50209 27.971874 222.90834Q28.425 223.31459 29.065624 223.31459Q29.815624 223.31459 30.346874 222.73647Q30.878124 222.15834 30.878124 221.22084Q30.878124 220.31459 30.3625 219.79897Q29.8625 219.26772 29.034374 219.26772Q28.534374 219.26772 28.1125 219.50209Q27.70625 219.73647 27.471874 220.09584L26.4875 219.97084L27.315624 215.56459L31.596874 215.56459L31.596874 216.56459L28.159374 216.56459L27.70625 218.87709Q28.471874 218.33022 29.315624 218.33022Q30.440624 218.33022 31.20625 219.11147Q31.9875 219.89272 31.9875 221.12709Q31.9875 222.28334 31.315624 223.14272Q30.4875 224.17397 29.065624 224.17397Q27.89375 224.17397 27.14375 223.51772Q26.409374 222.86147 26.3 221.78334ZM33.3 219.79897Q33.3 218.26772 33.6125 217.34584Q33.925 216.40834 34.534374 215.90834Q35.159374 215.40834 36.096874 215.40834Q36.784374 215.40834 37.3 215.68959Q37.83125 215.97084 38.175 216.50209Q38.51875 217.01772 38.70625 217.76772Q38.89375 218.51772 38.89375 219.79897Q38.89375 221.31459 38.58125 222.23647Q38.284374 223.15834 37.659374 223.67397Q37.05 224.17397 36.096874 224.17397Q34.8625 224.17397 34.14375 223.28334Q33.3 222.22084 33.3 219.79897ZM34.378124 219.79897Q34.378124 221.90834 34.878124 222.61147Q35.378124 223.31459 36.096874 223.31459Q36.83125 223.31459 37.315624 222.61147Q37.815624 221.90834 37.815624 219.79897Q37.815624 217.67397 37.315624 216.98647Q36.83125 216.28334 36.08125 216.28334Q35.3625 216.28334 34.925 216.89272Q34.378124 217.67397 34.378124 219.79897ZM40.89375 224.03334L40.89375 222.83022L42.096874 222.83022L42.096874 224.03334L40.89375 224.03334ZM43.3 219.79897Q43.3 218.26772 43.6125 217.34584Q43.925 216.40834 44.534374 215.90834Q45.159374 215.40834 46.096874 215.40834Q46.784374 215.40834 47.3 215.68959Q47.83125 215.97084 48.175 216.50209Q48.51875 217.01772 48.70625 217.76772Q48.89375 218.51772 48.89375 219.79897Q48.89375 221.31459 48.58125 222.23647Q48.284374 223.15834 47.659374 223.67397Q47.05 224.17397 46.096874 224.17397Q44.8625 224.17397 44.14375 223.28334Q43.3 222.22084 43.3 219.79897ZM44.378124 219.79897Q44.378124 221.90834 44.878124 222.61147Q45.378124 223.31459 46.096874 223.31459Q46.83125 223.31459 47.315624 222.61147Q47.815624 221.90834 47.815624 219.79897Q47.815624 217.67397 47.315624 216.98647Q46.83125 216.28334 46.08125 216.28334Q45.3625 216.28334 44.925 216.89272Q44.378124 217.67397 44.378124 219.79897ZM50.3 219.79897Q50.3 218.26772 50.6125 217.34584Q50.925 216.40834 51.534374 215.90834Q52.159374 215.40834 53.096874 215.40834Q53.784374 215.40834 54.3 215.68959Q54.83125 215.97084 55.175 216.50209Q55.51875 217.01772 55.70625 217.76772Q55.89375 218.51772 55.89375 219.79897Q55.89375 221.31459 55.58125 222.23647Q55.284374 223.15834 54.659374 223.67397Q54.05 224.17397 53.096874 224.17397Q51.8625 224.17397 51.14375 223.28334Q50.3 222.22084 50.3 219.79897ZM51.378124 219.79897Q51.378124 221.90834 51.878124 222.61147Q52.378124 223.31459 53.096874 223.31459Q53.83125 223.31459 54.315624 222.61147Q54.815624 221.90834 54.815624 219.79897Q54.815624 217.67397 54.315624 216.98647Q53.83125 216.28334 53.08125 216.28334Q52.3625 216.28334 51.925 216.89272Q51.378124 217.67397 51.378124 219.79897ZM57.503124 217.50209Q57.503124 216.58022 57.95625 215.93959Q58.425 215.29897 59.3 215.29897Q60.1125 215.29897 60.64375 215.87709Q61.175 216.45522 61.175 217.56459Q61.175 218.65834 60.628124 219.25209Q60.096874 219.83022 59.315624 219.83022Q58.534374 219.83022 58.01875 219.25209Q57.503124 218.67397 57.503124 217.50209ZM59.33125 216.01772Q58.940624 216.01772 58.675 216.36147Q58.425 216.70522 58.425 217.61147Q58.425 218.43959 58.675 218.78334Q58.940624 219.11147 59.33125 219.11147Q59.7375 219.11147 59.9875 218.76772Q60.253124 218.42397 60.253124 217.53334Q60.253124 216.68959 59.9875 216.36147Q59.721874 216.01772 59.33125 216.01772ZM59.33125 224.34584L64.03438 215.29897L64.89375 215.29897L60.20625 224.34584L59.33125 224.34584ZM63.05 222.01772Q63.05 221.09584 63.503124 220.45522Q63.971874 219.81459 64.8625 219.81459Q65.675 219.81459 66.20625 220.39272Q66.7375 220.95522 66.7375 222.08022Q66.7375 223.17397 66.19063 223.76772Q65.65938 224.34584 64.8625 224.34584Q64.09688 224.34584 63.565624 223.76772Q63.05 223.18959 63.05 222.01772ZM64.89375 220.53334Q64.4875 220.53334 64.22188 220.87709Q63.971874 221.22084 63.971874 222.12709Q63.971874 222.93959 64.2375 223.28334Q64.50313 223.62709 64.89375 223.62709Q65.28438 223.62709 65.55 223.28334Q65.81563 222.93959 65.81563 222.03334Q65.81563 221.20522 65.55 220.87709Q65.28438 220.53334 64.89375 220.53334Z" fill-rule="nonzero"/><path fill="#000000" d="M26.3625 157.98125L26.3625 156.96562L31.925 156.96562L31.925 157.79375Q31.1125 158.66875 30.3 160.12187Q29.503124 161.55937 29.065624 163.09062Q28.7375 164.16875 28.659374 165.45L27.565624 165.45Q27.58125 164.43437 27.95625 162.99687Q28.346874 161.55937 29.05 160.23125Q29.76875 158.90312 30.58125 157.98125L26.3625 157.98125ZM33.3 163.2L34.409374 163.10625Q34.534374 163.91875 34.971874 164.325Q35.425 164.73125 36.065624 164.73125Q36.815624 164.73125 37.346874 164.15312Q37.878124 163.575 37.878124 162.6375Q37.878124 161.73125 37.3625 161.21562Q36.8625 160.68437 36.034374 160.68437Q35.534374 160.68437 35.1125 160.91875Q34.70625 161.15312 34.471874 161.5125L33.4875 161.3875L34.315624 156.98125L38.596874 156.98125L38.596874 157.98125L35.159374 157.98125L34.70625 160.29375Q35.471874 159.74687 36.315624 159.74687Q37.440624 159.74687 38.20625 160.52812Q38.9875 161.30937 38.9875 162.54375Q38.9875 163.7 38.315624 164.55937Q37.4875 165.59062 36.065624 165.59062Q34.89375 165.59062 34.14375 164.93437Q33.409374 164.27812 33.3 163.2ZM40.89375 165.45L40.89375 164.24687L42.096874 164.24687L42.096874 165.45L40.89375 165.45ZM43.3 161.21562Q43.3 159.68437 43.6125 158.7625Q43.925 157.825 44.534374 157.325Q45.159374 156.825 46.096874 156.825Q46.784374 156.825 47.3 157.10625Q47.83125 157.3875 48.175 157.91875Q48.51875 158.43437 48.70625 159.18437Q48.89375 159.93437 48.89375 161.21562Q48.89375 162.73125 48.58125 163.65312Q48.284374 164.575 47.659374 165.09062Q47.05 165.59062 46.096874 165.59062Q44.8625 165.59062 44.14375 164.7Q43.3 163.6375 43.3 161.21562ZM44.378124 161.21562Q44.378124 163.325 44.878124 164.02812Q45.378124 164.73125 46.096874 164.73125Q46.83125 164.73125 47.315624 164.02812Q47.815624 163.325 47.815624 161.21562Q47.815624 159.09062 47.315624 158.40312Q46.83125 157.7 46.08125 157.7Q45.3625 157.7 44.925 158.30937Q44.378124 159.09062 44.378124 161.21562ZM50.3 161.21562Q50.3 159.68437 50.6125 158.7625Q50.925 157.825 51.534374 157.325Q52.159374 156.825 53.096874 156.825Q53.784374 156.825 54.3 157.10625Q54.83125 157.3875 55.175 157.91875Q55.51875 158.43437 55.70625 159.18437Q55.89375 159.93437 55.89375 161.21562Q55.89375 162.73125 55.58125 163.65312Q55.284374 164.575 54.659374 165.09062Q54.05 165.59062 53.096874 165.59062Q51.8625 165.59062 51.14375 164.7Q50.3 163.6375 50.3 161.21562ZM51.378124 161.21562Q51.378124 163.325 51.878124 164.02812Q52.378124 164.73125 53.096874 164.73125Q53.83125 164.73125 54.315624 164.02812Q54.815624 163.325 54.815624 161.21562Q54.815624 159.09062 54.315624 158.40312Q53.83125 157.7 53.08125 157.7Q52.3625 157.7 51.925 158.30937Q51.378124 159.09062 51.378124 161.21562ZM57.503124 158.91875Q57.503124 157.99687 57.95625 157.35625Q58.425 156.71562 59.3 156.71562Q60.1125 156.71562 60.64375 157.29375Q61.175 157.87187 61.175 158.98125Q61.175 160.075 60.628124 160.66875Q60.096874 161.24687 59.315624 161.24687Q58.534374 161.24687 58.01875 160.66875Q57.503124 160.09062 57.503124 158.91875ZM59.33125 157.43437Q58.940624 157.43437 58.675 157.77812Q58.425 158.12187 58.425 159.02812Q58.425 159.85625 58.675 160.2Q58.940624 160.52812 59.33125 160.52812Q59.7375 160.52812 59.9875 160.18437Q60.253124 159.84062 60.253124 158.95Q60.253124 158.10625 59.9875 157.77812Q59.721874 157.43437 59.33125 157.43437ZM59.33125 165.7625L64.03438 156.71562L64.89375 156.71562L60.20625 165.7625L59.33125 165.7625ZM63.05 163.43437Q63.05 162.5125 63.503124 161.87187Q63.971874 161.23125 64.8625 161.23125Q65.675 161.23125 66.20625 161.80937Q66.7375 162.37187 66.7375 163.49687Q66.7375 164.59062 66.19063 165.18437Q65.65938 165.7625 64.8625 165.7625Q64.09688 165.7625 63.565624 165.18437Q63.05 164.60625 63.05 163.43437ZM64.89375 161.95Q64.4875 161.95 64.22188 162.29375Q63.971874 162.6375 63.971874 163.54375Q63.971874 164.35625 64.2375 164.7Q64.50313 165.04375 64.89375 165.04375Q65.28438 165.04375 65.55 164.7Q65.81563 164.35625 65.81563 163.45Q65.81563 162.62187 65.55 162.29375Q65.28438 161.95 64.89375 161.95Z" fill-rule="nonzero"/><path fill="#000000" d="M23.26875 106.86667L22.221874 106.86667L22.221874 100.14792Q21.83125 100.50729 21.20625 100.88229Q20.596874 101.24167 20.1125 101.41354L20.1125 100.39792Q20.9875 99.97604 21.64375 99.39792Q22.315624 98.80417 22.596874 98.24167L23.26875 98.24167L23.26875 106.86667ZM26.3 102.63229Q26.3 101.10104 26.6125 100.17917Q26.925 99.24167 27.534374 98.74167Q28.159374 98.24167 29.096874 98.24167Q29.784374 98.24167 30.3 98.52292Q30.83125 98.80417 31.175 99.33542Q31.51875 99.85104 31.70625 100.60104Q31.89375 101.35104 31.89375 102.63229Q31.89375 104.14792 31.58125 105.06979Q31.284374 105.99167 30.659374 106.50729Q30.05 107.00729 29.096874 107.00729Q27.8625 107.00729 27.14375 106.11667Q26.3 105.05417 26.3 102.63229ZM27.378124 102.63229Q27.378124 104.74167 27.878124 105.44479Q28.378124 106.14792 29.096874 106.14792Q29.83125 106.14792 30.315624 105.44479Q30.815624 104.74167 30.815624 102.63229Q30.815624 100.50729 30.315624 99.81979Q29.83125 99.11667 29.08125 99.11667Q28.3625 99.11667 27.925 99.72604Q27.378124 100.50729 27.378124 102.63229ZM33.3 102.63229Q33.3 101.10104 33.6125 100.17917Q33.925 99.24167 34.534374 98.74167Q35.159374 98.24167 36.096874 98.24167Q36.784374 98.24167 37.3 98.52292Q37.83125 98.80417 38.175 99.33542Q38.51875 99.85104 38.70625 100.60104Q38.89375 101.35104 38.89375 102.63229Q38.89375 104.14792 38.58125 105.06979Q38.284374 105.99167 37.659374 106.50729Q37.05 107.00729 36.096874 107.00729Q34.8625 107.00729 34.14375 106.11667Q33.3 105.05417 33.3 102.63229ZM34.378124 102.63229Q34.378124 104.74167 34.878124 105.44479Q35.378124 106.14792 36.096874 106.14792Q36.83125 106.14792 37.315624 105.44479Q37.815624 104.74167 37.815624 102.63229Q37.815624 100.50729 37.315624 99.81979Q36.83125 99.11667 36.08125 99.11667Q35.3625 99.11667 34.925 99.72604Q34.378124 100.50729 34.378124 102.63229ZM40.89375 106.86667L40.89375 105.66354L42.096874 105.66354L42.096874 106.86667L40.89375 106.86667ZM43.3 102.63229Q43.3 101.10104 43.6125 100.17917Q43.925 99.24167 44.534374 98.74167Q45.159374 98.24167 46.096874 98.24167Q46.784374 98.24167 47.3 98.52292Q47.83125 98.80417 48.175 99.33542Q48.51875 99.85104 48.70625 100.60104Q48.89375 101.35104 48.89375 102.63229Q48.89375 104.14792 48.58125 105.06979Q48.284374 105.99167 47.659374 106.50729Q47.05 107.00729 46.096874 107.00729Q44.8625 107.00729 44.14375 106.11667Q43.3 105.05417 43.3 102.63229ZM44.378124 102.63229Q44.378124 104.74167 44.878124 105.44479Q45.378124 106.14792 46.096874 106.14792Q46.83125 106.14792 47.315624 105.44479Q47.815624 104.74167 47.815624 102.63229Q47.815624 100.50729 47.315624 99.81979Q46.83125 99.11667 46.08125 99.11667Q45.3625 99.11667 44.925 99.72604Q44.378124 100.50729 44.378124 102.63229ZM50.3 102.63229Q50.3 101.10104 50.6125 100.17917Q50.925 99.24167 51.534374 98.74167Q52.159374 98.24167 53.096874 98.24167Q53.784374 98.24167 54.3 98.52292Q54.83125 98.80417 55.175 99.33542Q55.51875 99.85104 55.70625 100.60104Q55.89375 101.35104 55.89375 102.63229Q55.89375 104.14792 55.58125 105.06979Q55.284374 105.99167 54.659374 106.50729Q54.05 107.00729 53.096874 107.00729Q51.8625 107.00729 51.14375 106.11667Q50.3 105.05417 50.3 102.63229ZM51.378124 102.63229Q51.378124 104.74167 51.878124 105.44479Q52.378124 106.14792 53.096874 106.14792Q53.83125 106.14792 54.315624 105.44479Q54.815624 104.74167 54.815624 102.63229Q54.815624 100.50729 54.315624 99.81979Q53.83125 99.11667 53.08125 99.11667Q52.3625 99.11667 51.925 99.72604Q51.378124 100.50729 51.378124 102.63229ZM57.503124 100.33542Q57.503124 99.41354 57.95625 98.77292Q58.425 98.13229 59.3 98.13229Q60.1125 98.13229 60.64375 98.71042Q61.175 99.28854 61.175 100.39792Q61.175 101.49167 60.628124 102.08542Q60.096874 102.66354 59.315624 102.66354Q58.534374 102.66354 58.01875 102.08542Q57.503124 101.50729 57.503124 100.33542ZM59.33125 98.85104Q58.940624 98.85104 58.675 99.19479Q58.425 99.53854 58.425 100.44479Q58.425 101.27292 58.675 101.61667Q58.940624 101.94479 59.33125 101.94479Q59.7375 101.94479 59.9875 101.60104Q60.253124 101.25729 60.253124 100.36667Q60.253124 99.52292 59.9875 99.19479Q59.721874 98.85104 59.33125 98.85104ZM59.33125 107.17917L64.03438 98.13229L64.89375 98.13229L60.20625 107.17917L59.33125 107.17917ZM63.05 104.85104Q63.05 103.92917 63.503124 103.28854Q63.971874 102.64792 64.8625 102.64792Q65.675 102.64792 66.20625 103.22604Q66.7375 103.78854 66.7375 104.91354Q66.7375 106.00729 66.19063 106.60104Q65.65938 107.17917 64.8625 107.17917Q64.09688 107.17917 63.565624 106.60104Q63.05 106.02292 63.05 104.85104ZM64.89375 103.36667Q64.4875 103.36667 64.22188 103.71042Q63.971874 104.05417 63.971874 104.96042Q63.971874 105.77292 64.2375 106.11667Q64.50313 106.46042 64.89375 106.46042Q65.28438 106.46042 65.55 106.11667Q65.81563 105.77292 65.81563 104.86667Q65.81563 104.03854 65.55 103.71042Q65.28438 103.36667 64.89375 103.36667Z" fill-rule="nonzero"/><path fill="#000000" d="M83.38093 354.2L83.38093 345.60626L89.1778 345.60626L89.1778 346.6219L84.52155 346.6219L84.52155 349.27814L88.5528 349.27814L88.5528 350.29376L84.52155 350.29376L84.52155 354.2L83.38093 354.2ZM90.1778 354.2L90.1778 347.98126L91.13093 347.98126L91.13093 348.91876Q91.4903 348.2625 91.78718 348.0594Q92.09968 347.84064 92.47468 347.84064Q93.00593 347.84064 93.5528 348.16876L93.19343 349.15314Q92.8028 348.91876 92.4278 348.91876Q92.06843 348.91876 91.78718 349.1375Q91.52155 349.34064 91.41218 349.71564Q91.22468 350.27814 91.22468 350.9344L91.22468 354.2L90.1778 354.2ZM98.44343 352.2L99.53718 352.325Q99.28718 353.27814 98.58405 353.8094Q97.88093 354.34064 96.8028 354.34064Q95.44343 354.34064 94.63093 353.4969Q93.83405 352.65314 93.83405 351.1375Q93.83405 349.575 94.64655 348.71564Q95.45905 347.84064 96.7403 347.84064Q97.9903 347.84064 98.77155 348.6844Q99.56843 349.52814 99.56843 351.075Q99.56843 351.16876 99.56843 351.35626L94.9278 351.35626Q94.9903 352.3875 95.50593 352.9344Q96.02155 353.46564 96.8028 353.46564Q97.38093 353.46564 97.78718 353.16876Q98.20905 352.85626 98.44343 352.2ZM94.9903 350.4969L98.45905 350.4969Q98.39655 349.7 98.06843 349.3094Q97.5528 348.7 96.75593 348.7Q96.02155 348.7 95.52155 349.1844Q95.03718 349.66876 94.9903 350.4969ZM105.16218 356.59064L105.16218 353.54376Q104.91218 353.8875 104.45905 354.1219Q104.02155 354.34064 103.52155 354.34064Q102.41218 354.34064 101.6153 353.46564Q100.81843 352.575 100.81843 351.02814Q100.81843 350.09064 101.14655 349.35626Q101.47468 348.60626 102.08405 348.23126Q102.70905 347.84064 103.44343 347.84064Q104.59968 347.84064 105.25593 348.8094L105.25593 347.98126L106.20905 347.98126L106.20905 356.59064L105.16218 356.59064ZM101.89655 351.075Q101.89655 352.27814 102.39655 352.8719Q102.91218 353.46564 103.6153 353.46564Q104.28718 353.46564 104.77155 352.90314Q105.25593 352.325 105.25593 351.16876Q105.25593 349.91876 104.7403 349.29376Q104.2403 348.66876 103.53718 348.66876Q102.8653 348.66876 102.38093 349.2625Q101.89655 349.84064 101.89655 351.075ZM112.27155 354.2L112.27155 353.27814Q111.53718 354.34064 110.28718 354.34064Q109.7403 354.34064 109.25593 354.1375Q108.78718 353.91876 108.5528 353.60626Q108.31843 353.27814 108.22468 352.8094Q108.16218 352.5125 108.16218 351.825L108.16218 347.98126L109.22468 347.98126L109.22468 351.4344Q109.22468 352.2469 109.28718 352.54376Q109.38093 352.95 109.69343 353.2Q110.02155 353.4344 110.50593 353.4344Q110.97468 353.4344 111.38093 353.2Q111.8028 352.95 111.97468 352.52814Q112.16218 352.10626 112.16218 351.3094L112.16218 347.98126L113.20905 347.98126L113.20905 354.2L112.27155 354.2ZM119.44343 352.2L120.53718 352.325Q120.28718 353.27814 119.58405 353.8094Q118.88093 354.34064 117.8028 354.34064Q116.44343 354.34064 115.63093 353.4969Q114.83405 352.65314 114.83405 351.1375Q114.83405 349.575 115.64655 348.71564Q116.45905 347.84064 117.7403 347.84064Q118.9903 347.84064 119.77155 348.6844Q120.56843 349.52814 120.56843 351.075Q120.56843 351.16876 120.56843 351.35626L115.9278 351.35626Q115.9903 352.3875 116.50593 352.9344Q117.02155 353.46564 117.8028 353.46564Q118.38093 353.46564 118.78718 353.16876Q119.20905 352.85626 119.44343 352.2ZM115.9903 350.4969L119.45905 350.4969Q119.39655 349.7 119.06843 349.3094Q118.5528 348.7 117.75593 348.7Q117.02155 348.7 116.52155 349.1844Q116.03718 349.66876 115.9903 350.4969ZM122.19343 354.2L122.19343 347.98126L123.13093 347.98126L123.13093 348.85626Q123.81843 347.84064 125.1153 347.84064Q125.6778 347.84064 126.14655 348.04376Q126.63093 348.2469 126.8653 348.575Q127.09968 348.90314 127.19343 349.34064Q127.2403 349.6375 127.2403 350.3719L127.2403 354.2L126.19343 354.2L126.19343 350.41876Q126.19343 349.7625 126.06843 349.45Q125.94343 349.1375 125.63093 348.95Q125.31843 348.7469 124.89655 348.7469Q124.22468 348.7469 123.72468 349.1844Q123.2403 349.60626 123.2403 350.79376L123.2403 354.2L122.19343 354.2ZM131.4903 353.2625L131.64655 354.1844Q131.19342 354.27814 130.84967 354.27814Q130.27155 354.27814 129.95905 354.10626Q129.64655 353.91876 129.50592 353.6219Q129.38092 353.325 129.38092 352.3719L129.38092 348.79376L128.6153 348.79376L128.6153 347.98126L129.38092 347.98126L129.38092 346.4344L130.4278 345.8094L130.4278 347.98126L131.4903 347.98126L131.4903 348.79376L130.4278 348.79376L130.4278 352.4344Q130.4278 352.8875 130.47467 353.0125Q130.53717 353.1375 130.66217 353.21564Q130.78717 353.29376 131.02155 353.29376Q131.20905 353.29376 131.4903 353.2625ZM132.16217 354.2L132.16217 345.60626L133.22467 345.60626L133.22467 354.2L132.16217 354.2ZM135.14655 356.59064L135.02155 355.60626Q135.3653 355.7 135.63092 355.7Q135.97467 355.7 136.1778 355.575Q136.39655 355.46564 136.53717 355.2625Q136.63092 355.09064 136.8653 354.46564Q136.88092 354.3875 136.95905 354.21564L134.58405 347.98126L135.72467 347.98126L137.02155 351.575Q137.27155 352.2625 137.47467 353.02814Q137.66217 352.29376 137.91217 351.60626L139.2403 347.98126L140.28717 347.98126L137.9278 354.3094Q137.53717 355.325 137.33405 355.71564Q137.0528 356.2469 136.6778 356.48126Q136.31842 356.73126 135.81842 356.73126Q135.52155 356.73126 135.14655 356.59064ZM141.45905 354.2L141.45905 352.9969L142.66217 352.9969L142.66217 354.2Q142.66217 354.85626 142.4278 355.2625Q142.19342 355.6844 141.69342 355.90314L141.39655 355.45Q141.72467 355.3094 141.88092 355.0125Q142.03717 354.73126 142.06842 354.2L141.45905 354.2ZM147.19342 354.2L147.19342 347.98126L148.13092 347.98126L148.13092 348.85626Q148.4278 348.3875 148.91217 348.1219Q149.39655 347.84064 150.02155 347.84064Q150.70905 347.84064 151.14655 348.1219Q151.59967 348.40314 151.77155 348.91876Q152.52155 347.84064 153.69342 347.84064Q154.63092 347.84064 155.1153 348.35626Q155.6153 348.85626 155.6153 349.9344L155.6153 354.2L154.56842 354.2L154.56842 350.27814Q154.56842 349.65314 154.45905 349.3719Q154.3653 349.09064 154.09967 348.91876Q153.83405 348.7469 153.45905 348.7469Q152.8028 348.7469 152.3653 349.1844Q151.94342 349.6219 151.94342 350.59064L151.94342 354.2L150.88092 354.2L150.88092 350.15314Q150.88092 349.45 150.6153 349.10626Q150.3653 348.7469 149.78717 348.7469Q149.33405 348.7469 148.95905 348.98126Q148.58405 349.21564 148.41217 349.66876Q148.2403 350.1219 148.2403 350.96564L148.2403 354.2L147.19342 354.2ZM156.8028 351.09064Q156.8028 349.35626 157.75592 348.52814Q158.5528 347.84064 159.70905 347.84064Q160.9903 347.84064 161.8028 348.6844Q162.63092 349.5125 162.63092 350.9969Q162.63092 352.2 162.27155 352.8875Q161.91217 353.575 161.20905 353.96564Q160.52155 354.34064 159.70905 354.34064Q158.41217 354.34064 157.59967 353.5125Q156.8028 352.66876 156.8028 351.09064ZM157.88092 351.09064Q157.88092 352.27814 158.39655 352.8719Q158.9278 353.46564 159.70905 353.46564Q160.50592 353.46564 161.02155 352.8719Q161.53717 352.27814 161.53717 351.0594Q161.53717 349.90314 161.00592 349.3094Q160.4903 348.71564 159.70905 348.71564Q158.9278 348.71564 158.39655 349.3094Q157.88092 349.8875 157.88092 351.09064ZM163.77155 352.34064L164.8028 352.1844Q164.89655 352.8094 165.28717 353.1375Q165.69342 353.46564 166.4278 353.46564Q167.14655 353.46564 167.4903 353.1844Q167.84967 352.8875 167.84967 352.48126Q167.84967 352.1219 167.53717 351.91876Q167.31842 351.77814 166.45905 351.5594Q165.3028 351.2625 164.84967 351.0594Q164.41217 350.84064 164.1778 350.46564Q163.94342 350.09064 163.94342 349.6219Q163.94342 349.21564 164.13092 348.85626Q164.31842 348.4969 164.64655 348.2625Q164.89655 348.09064 165.31842 347.96564Q165.7403 347.84064 166.2403 347.84064Q166.95905 347.84064 167.50592 348.0594Q168.06842 348.2625 168.33405 348.6219Q168.59967 348.98126 168.69342 349.575L167.66217 349.71564Q167.59967 349.2469 167.25592 348.98126Q166.9278 348.7 166.3028 348.7Q165.58405 348.7 165.27155 348.95Q164.95905 349.1844 164.95905 349.5125Q164.95905 349.71564 165.08405 349.8719Q165.22467 350.04376 165.4903 350.15314Q165.64655 350.21564 166.4278 350.41876Q167.5528 350.73126 167.9903 350.91876Q168.4278 351.10626 168.6778 351.46564Q168.9278 351.825 168.9278 352.3719Q168.9278 352.90314 168.6153 353.3719Q168.31842 353.825 167.7403 354.09064Q167.16217 354.34064 166.4278 354.34064Q165.20905 354.34064 164.56842 353.84064Q163.94342 353.325 163.77155 352.34064ZM172.4903 353.2625L172.64655 354.1844Q172.19342 354.27814 171.84967 354.27814Q171.27155 354.27814 170.95905 354.10626Q170.64655 353.91876 170.50592 353.6219Q170.38092 353.325 170.38092 352.3719L170.38092 348.79376L169.6153 348.79376L169.6153 347.98126L170.38092 347.98126L170.38092 346.4344L171.4278 345.8094L171.4278 347.98126L172.4903 347.98126L172.4903 348.79376L171.4278 348.79376L171.4278 352.4344Q171.4278 352.8875 171.47467 353.0125Q171.53717 353.1375 171.66217 353.21564Q171.78717 353.29376 172.02155 353.29376Q172.20905 353.29376 172.4903 353.2625ZM176.19342 356.59064L176.19342 347.98126L177.14655 347.98126L177.14655 348.77814Q177.4903 348.3094 177.91217 348.075Q178.34967 347.84064 178.95905 347.84064Q179.75592 347.84064 180.3653 348.2469Q180.97467 348.65314 181.27155 349.40314Q181.58405 350.15314 181.58405 351.04376Q181.58405 351.9969 181.2403 352.7625Q180.91217 353.52814 180.25592 353.9344Q179.59967 354.34064 178.88092 354.34064Q178.34967 354.34064 177.9278 354.1219Q177.50592 353.8875 177.2403 353.5594L177.2403 356.59064L176.19342 356.59064ZM177.14655 351.1219Q177.14655 352.325 177.63092 352.90314Q178.1153 353.46564 178.8028 353.46564Q179.50592 353.46564 180.00592 352.8719Q180.50592 352.27814 180.50592 351.02814Q180.50592 349.84064 180.02155 349.2625Q179.53717 348.66876 178.84967 348.66876Q178.1778 348.66876 177.66217 349.29376Q177.14655 349.91876 177.14655 351.1219ZM183.1778 354.2L183.1778 347.98126L184.13092 347.98126L184.13092 348.91876Q184.4903 348.2625 184.78717 348.0594Q185.09967 347.84064 185.47467 347.84064Q186.00592 347.84064 186.5528 348.16876L186.19342 349.15314Q185.8028 348.91876 185.4278 348.91876Q185.06842 348.91876 184.78717 349.1375Q184.52155 349.34064 184.41217 349.71564Q184.22467 350.27814 184.22467 350.9344L184.22467 354.2L183.1778 354.2ZM186.8028 351.09064Q186.8028 349.35626 187.75592 348.52814Q188.5528 347.84064 189.70905 347.84064Q190.9903 347.84064 191.8028 348.6844Q192.63092 349.5125 192.63092 350.9969Q192.63092 352.2 192.27155 352.8875Q191.91217 353.575 191.20905 353.96564Q190.52155 354.34064 189.70905 354.34064Q188.41217 354.34064 187.59967 353.5125Q186.8028 352.66876 186.8028 351.09064ZM187.88092 351.09064Q187.88092 352.27814 188.39655 352.8719Q188.9278 353.46564 189.70905 353.46564Q190.50592 353.46564 191.02155 352.8719Q191.53717 352.27814 191.53717 351.0594Q191.53717 349.90314 191.00592 349.3094Q190.4903 348.71564 189.70905 348.71564Q188.9278 348.71564 188.39655 349.3094Q187.88092 349.8875 187.88092 351.09064ZM195.16217 354.2L194.1778 354.2L194.1778 345.60626L195.2403 345.60626L195.2403 348.66876Q195.91217 347.84064 196.94342 347.84064Q197.52155 347.84064 198.02155 348.075Q198.53717 348.29376 198.8653 348.71564Q199.20905 349.1375 199.39655 349.73126Q199.58405 350.325 199.58405 350.9969Q199.58405 352.59064 198.78717 353.46564Q197.9903 354.34064 196.89655 354.34064Q195.78717 354.34064 195.16217 353.41876L195.16217 354.2ZM195.14655 351.04376Q195.14655 352.15314 195.45905 352.65314Q195.95905 353.46564 196.8028 353.46564Q197.4903 353.46564 197.9903 352.8719Q198.50592 352.27814 198.50592 351.075Q198.50592 349.85626 198.02155 349.27814Q197.53717 348.7 196.84967 348.7Q196.16217 348.7 195.64655 349.3094Q195.14655 349.90314 195.14655 351.04376ZM201.16217 354.2L201.16217 345.60626L202.22467 345.60626L202.22467 354.2L201.16217 354.2ZM208.44342 352.2L209.53717 352.325Q209.28717 353.27814 208.58405 353.8094Q207.88092 354.34064 206.8028 354.34064Q205.44342 354.34064 204.63092 353.4969Q203.83405 352.65314 203.83405 351.1375Q203.83405 349.575 204.64655 348.71564Q205.45905 347.84064 206.7403 347.84064Q207.9903 347.84064 208.77155 348.6844Q209.56842 349.52814 209.56842 351.075Q209.56842 351.16876 209.56842 351.35626L204.9278 351.35626Q204.9903 352.3875 205.50592 352.9344Q206.02155 353.46564 206.8028 353.46564Q207.38092 353.46564 207.78717 353.16876Q208.20905 352.85626 208.44342 352.2ZM204.9903 350.4969L208.45905 350.4969Q208.39655 349.7 208.06842 349.3094Q207.5528 348.7 206.75592 348.7Q206.02155 348.7 205.52155 349.1844Q205.03717 349.66876 204.9903 350.4969ZM211.19342 354.2L211.19342 347.98126L212.13092 347.98126L212.13092 348.85626Q212.4278 348.3875 212.91217 348.1219Q213.39655 347.84064 214.02155 347.84064Q214.70905 347.84064 215.14655 348.1219Q215.59967 348.40314 215.77155 348.91876Q216.52155 347.84064 217.69342 347.84064Q218.63092 347.84064 219.1153 348.35626Q219.6153 348.85626 219.6153 349.9344L219.6153 354.2L218.56842 354.2L218.56842 350.27814Q218.56842 349.65314 218.45905 349.3719Q218.3653 349.09064 218.09967 348.91876Q217.83405 348.7469 217.45905 348.7469Q216.8028 348.7469 216.3653 349.1844Q215.94342 349.6219 215.94342 350.59064L215.94342 354.2L214.88092 354.2L214.88092 350.15314Q214.88092 349.45 214.6153 349.10626Q214.3653 348.7469 213.78717 348.7469Q213.33405 348.7469 212.95905 348.98126Q212.58405 349.21564 212.41217 349.66876Q212.2403 350.1219 212.2403 350.96564L212.2403 354.2L211.19342 354.2ZM220.77155 352.34064L221.8028 352.1844Q221.89655 352.8094 222.28717 353.1375Q222.69342 353.46564 223.4278 353.46564Q224.14655 353.46564 224.4903 353.1844Q224.84967 352.8875 224.84967 352.48126Q224.84967 352.1219 224.53717 351.91876Q224.31842 351.77814 223.45905 351.5594Q222.3028 351.2625 221.84967 351.0594Q221.41217 350.84064 221.1778 350.46564Q220.94342 350.09064 220.94342 349.6219Q220.94342 349.21564 221.13092 348.85626Q221.31842 348.4969 221.64655 348.2625Q221.89655 348.09064 222.31842 347.96564Q222.7403 347.84064 223.2403 347.84064Q223.95905 347.84064 224.50592 348.0594Q225.06842 348.2625 225.33405 348.6219Q225.59967 348.98126 225.69342 349.575L224.66217 349.71564Q224.59967 349.2469 224.25592 348.98126Q223.9278 348.7 223.3028 348.7Q222.58405 348.7 222.27155 348.95Q221.95905 349.1844 221.95905 349.5125Q221.95905 349.71564 222.08405 349.8719Q222.22467 350.04376 222.4903 350.15314Q222.64655 350.21564 223.4278 350.41876Q224.5528 350.73126 224.9903 350.91876Q225.4278 351.10626 225.6778 351.46564Q225.9278 351.825 225.9278 352.3719Q225.9278 352.90314 225.6153 353.3719Q225.31842 353.825 224.7403 354.09064Q224.16217 354.34064 223.4278 354.34064Q222.20905 354.34064 221.56842 353.84064Q220.94342 353.325 220.77155 352.34064Z" fill-rule="nonzero"/><path fill="#000000" d="M243.84572 351.4344L244.90822 351.34064Q244.98634 351.9969 245.2676 352.40314Q245.54884 352.8094 246.12697 353.075Q246.72072 353.325 247.4551 353.325Q248.09572 353.325 248.59572 353.1375Q249.09572 352.9344 249.3301 352.60626Q249.5801 352.2625 249.5801 351.8719Q249.5801 351.46564 249.34572 351.16876Q249.11134 350.85626 248.5801 350.65314Q248.22072 350.5125 247.03322 350.23126Q245.86134 349.95 245.3926 349.7Q244.7676 349.3719 244.47072 348.90314Q244.17384 348.41876 244.17384 347.825Q244.17384 347.1844 244.53322 346.6219Q244.90822 346.04376 245.61134 345.7625Q246.3301 345.46564 247.18947 345.46564Q248.1426 345.46564 248.87697 345.77814Q249.61134 346.075 250.00197 346.6844Q250.3926 347.27814 250.42384 348.02814L249.3301 348.10626Q249.23634 347.29376 248.72072 346.8875Q248.22072 346.46564 247.23634 346.46564Q246.2051 346.46564 245.73634 346.84064Q245.2676 347.21564 245.2676 347.7469Q245.2676 348.21564 245.59572 348.5125Q245.92384 348.8094 247.29884 349.1219Q248.68947 349.4344 249.2051 349.66876Q249.9551 350.02814 250.31447 350.5594Q250.67384 351.075 250.67384 351.77814Q250.67384 352.46564 250.28322 353.075Q249.8926 353.66876 249.15822 354.0125Q248.42384 354.34064 247.50197 354.34064Q246.3301 354.34064 245.53322 354.0125Q244.75197 353.66876 244.29884 352.98126Q243.86134 352.29376 243.84572 351.4344ZM251.7051 351.09064Q251.7051 349.35626 252.65822 348.52814Q253.4551 347.84064 254.61134 347.84064Q255.8926 347.84064 256.70508 348.6844Q257.5332 349.5125 257.5332 350.9969Q257.5332 352.2 257.17383 352.8875Q256.81445 353.575 256.11133 353.96564Q255.42384 354.34064 254.61134 354.34064Q253.31447 354.34064 252.50197 353.5125Q251.7051 352.66876 251.7051 351.09064ZM252.78322 351.09064Q252.78322 352.27814 253.29884 352.8719Q253.8301 353.46564 254.61134 353.46564Q255.40822 353.46564 255.92384 352.8719Q256.43945 352.27814 256.43945 351.0594Q256.43945 349.90314 255.90822 349.3094Q255.3926 348.71564 254.61134 348.71564Q253.8301 348.71564 253.29884 349.3094Q252.78322 349.8875 252.78322 351.09064ZM259.0957 354.2L259.0957 347.98126L260.0332 347.98126L260.0332 348.85626Q260.33008 348.3875 260.81445 348.1219Q261.29883 347.84064 261.92383 347.84064Q262.61133 347.84064 263.04883 348.1219Q263.50195 348.40314 263.67383 348.91876Q264.42383 347.84064 265.5957 347.84064Q266.5332 347.84064 267.01758 348.35626Q267.51758 348.85626 267.51758 349.9344L267.51758 354.2L266.4707 354.2L266.4707 350.27814Q266.4707 349.65314 266.36133 349.3719Q266.26758 349.09064 266.00195 348.91876Q265.73633 348.7469 265.36133 348.7469Q264.70508 348.7469 264.26758 349.1844Q263.8457 349.6219 263.8457 350.59064L263.8457 354.2L262.7832 354.2L262.7832 350.15314Q262.7832 349.45 262.51758 349.10626Q262.26758 348.7469 261.68945 348.7469Q261.23633 348.7469 260.86133 348.98126Q260.48633 349.21564 260.31445 349.66876Q260.14258 350.1219 260.14258 350.96564L260.14258 354.2L259.0957 354.2ZM273.3457 352.2L274.43945 352.325Q274.18945 353.27814 273.48633 353.8094Q272.7832 354.34064 271.70508 354.34064Q270.3457 354.34064 269.5332 353.4969Q268.73633 352.65314 268.73633 351.1375Q268.73633 349.575 269.54883 348.71564Q270.36133 347.84064 271.64258 347.84064Q272.89258 347.84064 273.67383 348.6844Q274.4707 349.52814 274.4707 351.075Q274.4707 351.16876 274.4707 351.35626L269.83008 351.35626Q269.89258 352.3875 270.4082 352.9344Q270.92383 353.46564 271.70508 353.46564Q272.2832 353.46564 272.68945 353.16876Q273.11133 352.85626 273.3457 352.2ZM269.89258 350.4969L273.36133 350.4969Q273.29883 349.7 272.9707 349.3094Q272.45508 348.7 271.6582 348.7Q270.92383 348.7 270.42383 349.1844Q269.93945 349.66876 269.89258 350.4969ZM278.39258 353.2625L278.54883 354.1844Q278.0957 354.27814 277.75195 354.27814Q277.17383 354.27814 276.86133 354.10626Q276.54883 353.91876 276.4082 353.6219Q276.2832 353.325 276.2832 352.3719L276.2832 348.79376L275.51758 348.79376L275.51758 347.98126L276.2832 347.98126L276.2832 346.4344L277.33008 345.8094L277.33008 347.98126L278.39258 347.98126L278.39258 348.79376L277.33008 348.79376L277.33008 352.4344Q277.33008 352.8875 277.37695 353.0125Q277.43945 353.1375 277.56445 353.21564Q277.68945 353.29376 277.92383 353.29376Q278.11133 353.29376 278.39258 353.2625ZM279.0957 346.825L279.0957 345.60626L280.1582 345.60626L280.1582 346.825L279.0957 346.825ZM279.0957 354.2L279.0957 347.98126L280.1582 347.98126L280.1582 354.2L279.0957 354.2ZM282.0957 354.2L282.0957 347.98126L283.0332 347.98126L283.0332 348.85626Q283.33008 348.3875 283.81445 348.1219Q284.29883 347.84064 284.92383 347.84064Q285.61133 347.84064 286.04883 348.1219Q286.50195 348.40314 286.67383 348.91876Q287.42383 347.84064 288.5957 347.84064Q289.5332 347.84064 290.01758 348.35626Q290.51758 348.85626 290.51758 349.9344L290.51758 354.2L289.4707 354.2L289.4707 350.27814Q289.4707 349.65314 289.36133 349.3719Q289.26758 349.09064 289.00195 348.91876Q288.73633 348.7469 288.36133 348.7469Q287.70508 348.7469 287.26758 349.1844Q286.8457 349.6219 286.8457 350.59064L286.8457 354.2L285.7832 354.2L285.7832 350.15314Q285.7832 349.45 285.51758 349.10626Q285.26758 348.7469 284.68945 348.7469Q284.23633 348.7469 283.86133 348.98126Q283.48633 349.21564 283.31445 349.66876Q283.14258 350.1219 283.14258 350.96564L283.14258 354.2L282.0957 354.2ZM296.3457 352.2L297.43945 352.325Q297.18945 353.27814 296.48633 353.8094Q295.7832 354.34064 294.70508 354.34064Q293.3457 354.34064 292.5332 353.4969Q291.73633 352.65314 291.73633 351.1375Q291.73633 349.575 292.54883 348.71564Q293.36133 347.84064 294.64258 347.84064Q295.89258 347.84064 296.67383 348.6844Q297.4707 349.52814 297.4707 351.075Q297.4707 351.16876 297.4707 351.35626L292.83008 351.35626Q292.89258 352.3875 293.4082 352.9344Q293.92383 353.46564 294.70508 353.46564Q295.2832 353.46564 295.68945 353.16876Q296.11133 352.85626 296.3457 352.2ZM292.89258 350.4969L296.36133 350.4969Q296.29883 349.7 295.9707 349.3094Q295.45508 348.7 294.6582 348.7Q293.92383 348.7 293.42383 349.1844Q292.93945 349.66876 292.89258 350.4969ZM298.67383 352.34064L299.70508 352.1844Q299.79883 352.8094 300.18945 353.1375Q300.5957 353.46564 301.33008 353.46564Q302.04883 353.46564 302.39258 353.1844Q302.75195 352.8875 302.75195 352.48126Q302.75195 352.1219 302.43945 351.91876Q302.2207 351.77814 301.36133 351.5594Q300.20508 351.2625 299.75195 351.0594Q299.31445 350.84064 299.08008 350.46564Q298.8457 350.09064 298.8457 349.6219Q298.8457 349.21564 299.0332 348.85626Q299.2207 348.4969 299.54883 348.2625Q299.79883 348.09064 300.2207 347.96564Q300.64258 347.84064 301.14258 347.84064Q301.86133 347.84064 302.4082 348.0594Q302.9707 348.2625 303.23633 348.6219Q303.50195 348.98126 303.5957 349.575L302.56445 349.71564Q302.50195 349.2469 302.1582 348.98126Q301.83008 348.7 301.20508 348.7Q300.48633 348.7 300.17383 348.95Q299.86133 349.1844 299.86133 349.5125Q299.86133 349.71564 299.98633 349.8719Q300.12695 350.04376 300.39258 350.15314Q300.54883 350.21564 301.33008 350.41876Q302.45508 350.73126 302.89258 350.91876Q303.33008 351.10626 303.58008 351.46564Q303.83008 351.825 303.83008 352.3719Q303.83008 352.90314 303.51758 353.3719Q303.2207 353.825 302.64258 354.09064Q302.06445 354.34064 301.33008 354.34064Q300.11133 354.34064 299.4707 353.84064Q298.8457 353.325 298.67383 352.34064Z" fill-rule="nonzero"/><path fill="#000000" d="M376.13864 354.2L376.13864 345.60626L379.95114 345.60626Q381.1074 345.60626 381.70114 345.84064Q382.2949 346.075 382.65427 346.66876Q383.01364 347.2469 383.01364 347.95Q383.01364 348.8719 382.4199 349.4969Q381.82614 350.1219 380.59177 350.29376Q381.0449 350.5125 381.27927 350.71564Q381.77927 351.16876 382.21677 351.85626L383.71677 354.2L382.27927 354.2L381.15427 352.41876Q380.65427 351.6375 380.32614 351.23126Q380.01364 350.825 379.74802 350.66876Q379.49802 350.4969 379.2324 350.41876Q379.0449 350.3875 378.6074 350.3875L377.27927 350.3875L377.27927 354.2L376.13864 354.2ZM377.27927 349.40314L379.7324 349.40314Q380.49802 349.40314 380.93552 349.2469Q381.38864 349.075 381.6074 348.73126Q381.84177 348.3719 381.84177 347.95Q381.84177 347.34064 381.38864 346.95Q380.95114 346.5594 379.99802 346.5594L377.27927 346.5594L377.27927 349.40314ZM389.06052 353.4344Q388.46677 353.9344 387.9199 354.1375Q387.38864 354.34064 386.76364 354.34064Q385.7324 354.34064 385.18552 353.84064Q384.63864 353.34064 384.63864 352.5594Q384.63864 352.10626 384.84177 351.73126Q385.0449 351.34064 385.38864 351.1219Q385.7324 350.8875 386.15427 350.77814Q386.45114 350.6844 387.09177 350.60626Q388.3574 350.46564 388.96677 350.2469Q388.96677 350.02814 388.96677 349.98126Q388.96677 349.325 388.6699 349.0594Q388.26364 348.71564 387.46677 348.71564Q386.7324 348.71564 386.37302 348.98126Q386.01364 349.23126 385.84177 349.8875L384.81052 349.7469Q384.95114 349.09064 385.27927 348.6844Q385.6074 348.27814 386.21677 348.0594Q386.82614 347.84064 387.62302 347.84064Q388.4199 347.84064 388.9199 348.02814Q389.4199 348.21564 389.65427 348.4969Q389.88864 348.77814 389.9824 349.21564Q390.02927 349.48126 390.02927 350.1844L390.02927 351.59064Q390.02927 353.0594 390.09177 353.45Q390.1699 353.84064 390.37302 354.2L389.26364 354.2Q389.1074 353.8719 389.06052 353.4344ZM388.96677 351.075Q388.38864 351.3094 387.24802 351.48126Q386.59177 351.575 386.32614 351.7Q386.06052 351.8094 385.90427 352.02814Q385.76364 352.2469 385.76364 352.52814Q385.76364 352.95 386.07614 353.23126Q386.40427 353.5125 387.01364 353.5125Q387.62302 353.5125 388.09177 353.2469Q388.57614 352.98126 388.7949 352.5125Q388.96677 352.15314 388.96677 351.46564L388.96677 351.075ZM391.9824 354.2L391.9824 347.98126L392.93552 347.98126L392.93552 348.91876Q393.2949 348.2625 393.59177 348.0594Q393.90427 347.84064 394.27927 347.84064Q394.81052 347.84064 395.3574 348.16876L394.99802 349.15314Q394.6074 348.91876 394.2324 348.91876Q393.87302 348.91876 393.59177 349.1375Q393.32614 349.34064 393.21677 349.71564Q393.02927 350.27814 393.02927 350.9344L393.02927 354.2L391.9824 354.2ZM400.24802 352.2L401.34177 352.325Q401.09177 353.27814 400.38864 353.8094Q399.68552 354.34064 398.6074 354.34064Q397.24802 354.34064 396.43552 353.4969Q395.63864 352.65314 395.63864 351.1375Q395.63864 349.575 396.45114 348.71564Q397.26364 347.84064 398.5449 347.84064Q399.7949 347.84064 400.57614 348.6844Q401.37302 349.52814 401.37302 351.075Q401.37302 351.16876 401.37302 351.35626L396.7324 351.35626Q396.7949 352.3875 397.31052 352.9344Q397.82614 353.46564 398.6074 353.46564Q399.18552 353.46564 399.59177 353.16876Q400.01364 352.85626 400.24802 352.2ZM396.7949 350.4969L400.26364 350.4969Q400.20114 349.7 399.87302 349.3094Q399.3574 348.7 398.56052 348.7Q397.82614 348.7 397.32614 349.1844Q396.84177 349.66876 396.7949 350.4969ZM402.96677 354.2L402.96677 345.60626L404.02927 345.60626L404.02927 354.2L402.96677 354.2ZM405.95114 356.59064L405.82614 355.60626Q406.1699 355.7 406.43552 355.7Q406.77927 355.7 406.9824 355.575Q407.20114 355.46564 407.34177 355.2625Q407.43552 355.09064 407.6699 354.46564Q407.68552 354.3875 407.76364 354.21564L405.38864 347.98126L406.52927 347.98126L407.82614 351.575Q408.07614 352.2625 408.27927 353.02814Q408.46677 352.29376 408.71677 351.60626L410.0449 347.98126L411.09177 347.98126L408.7324 354.3094Q408.34177 355.325 408.13864 355.71564Q407.8574 356.2469 407.4824 356.48126Q407.12302 356.73126 406.62302 356.73126Q406.32614 356.73126 405.95114 356.59064Z" fill-rule="nonzero"/><path fill="#000000" d="M497.02533 354.2L497.02533 345.60626L498.18158 345.60626L502.6972 352.35626L502.6972 345.60626L503.79095 345.60626L503.79095 354.2L502.61908 354.2L498.10345 347.45L498.10345 354.2L497.02533 354.2ZM510.15033 352.2L511.24408 352.325Q510.99408 353.27814 510.29095 353.8094Q509.58783 354.34064 508.5097 354.34064Q507.15033 354.34064 506.33783 353.4969Q505.54095 352.65314 505.54095 351.1375Q505.54095 349.575 506.35345 348.71564Q507.16595 347.84064 508.4472 347.84064Q509.6972 347.84064 510.47845 348.6844Q511.27533 349.52814 511.27533 351.075Q511.27533 351.16876 511.27533 351.35626L506.6347 351.35626Q506.6972 352.3875 507.21283 352.9344Q507.72845 353.46564 508.5097 353.46564Q509.08783 353.46564 509.49408 353.16876Q509.91595 352.85626 510.15033 352.2ZM506.6972 350.4969L510.16595 350.4969Q510.10345 349.7 509.77533 349.3094Q509.2597 348.7 508.46283 348.7Q507.72845 348.7 507.22845 349.1844Q506.74408 349.66876 506.6972 350.4969ZM514.6191 354.2L512.2597 347.98126L513.3691 347.98126L514.7128 351.7Q514.91595 352.3094 515.10345 352.95Q515.2441 352.46564 515.4941 351.77814L516.8847 347.98126L517.9628 347.98126L515.60345 354.2L514.6191 354.2ZM523.1503 352.2L524.2441 352.325Q523.9941 353.27814 523.29095 353.8094Q522.5878 354.34064 521.5097 354.34064Q520.1503 354.34064 519.3378 353.4969Q518.54095 352.65314 518.54095 351.1375Q518.54095 349.575 519.35345 348.71564Q520.16595 347.84064 521.4472 347.84064Q522.6972 347.84064 523.47845 348.6844Q524.2753 349.52814 524.2753 351.075Q524.2753 351.16876 524.2753 351.35626L519.6347 351.35626Q519.6972 352.3875 520.2128 352.9344Q520.72845 353.46564 521.5097 353.46564Q522.0878 353.46564 522.4941 353.16876Q522.91595 352.85626 523.1503 352.2ZM519.6972 350.4969L523.16595 350.4969Q523.10345 349.7 522.7753 349.3094Q522.2597 348.7 521.4628 348.7Q520.72845 348.7 520.22845 349.1844Q519.7441 349.66876 519.6972 350.4969ZM525.8847 354.2L525.8847 347.98126L526.8378 347.98126L526.8378 348.91876Q527.1972 348.2625 527.4941 348.0594Q527.8066 347.84064 528.1816 347.84064Q528.7128 347.84064 529.2597 348.16876L528.9003 349.15314Q528.5097 348.91876 528.1347 348.91876Q527.7753 348.91876 527.4941 349.1375Q527.22845 349.34064 527.1191 349.71564Q526.9316 350.27814 526.9316 350.9344L526.9316 354.2L525.8847 354.2Z" fill-rule="nonzero"/><path fill="#f9cb9c" d="M250.0 71.333336C250.0 70.78105 250.44771 70.333336 251.0 70.333336L261.0 70.333336C261.55228 70.333336 262.0 70.78105 262.0 71.333336L262.0 81.333336C262.0 81.88562 261.55228 82.333336 261.0 82.333336L251.0 82.333336C250.44771 82.333336 250.0 81.88562 250.0 81.333336Z" fill-rule="nonzero"/><path fill="#1a1a1a" d="M276.04688 79.31771L276.04688 80.333336L270.35938 80.333336Q270.35938 79.958336 270.48438 79.59896Q270.70312 79.020836 271.17188 78.458336Q271.65625 77.895836 272.5625 77.16146Q273.96875 76.00521 274.45312 75.333336Q274.95312 74.66146 274.95312 74.06771Q274.95312 73.44271 274.5 73.020836Q274.04688 72.583336 273.32812 72.583336Q272.5625 72.583336 272.10938 73.03646Q271.65625 73.489586 271.64062 74.302086L270.5625 74.19271Q270.67188 72.97396 271.39062 72.34896Q272.125 71.708336 273.35938 71.708336Q274.59375 71.708336 275.3125 72.395836Q276.03125 73.083336 276.03125 74.09896Q276.03125 74.614586 275.8125 75.114586Q275.60938 75.59896 275.10938 76.16146Q274.625 76.708336 273.5 77.66146Q272.54688 78.458336 272.26562 78.75521Q272.0 79.03646 271.82812 79.31771L276.04688 79.31771ZM277.5 76.09896Q277.5 74.56771 277.8125 73.645836Q278.125 72.708336 278.73438 72.208336Q279.35938 71.708336 280.29688 71.708336Q280.98438 71.708336 281.5 71.989586Q282.03125 72.270836 282.375 72.802086Q282.71875 73.31771 282.90625 74.06771Q283.09375 74.81771 283.09375 76.09896Q283.09375 77.614586 282.78125 78.53646Q282.48438 79.458336 281.85938 79.97396Q281.25 80.47396 280.29688 80.47396Q279.0625 80.47396 278.34375 79.583336Q277.5 78.520836 277.5 76.09896ZM278.57812 76.09896Q278.57812 78.208336 279.07812 78.91146Q279.57812 79.614586 280.29688 79.614586Q281.03125 79.614586 281.51562 78.91146Q282.01562 78.208336 282.01562 76.09896Q282.01562 73.97396 281.51562 73.28646Q281.03125 72.583336 280.28125 72.583336Q279.5625 72.583336 279.125 73.19271Q278.57812 73.97396 278.57812 76.09896ZM288.46875 80.333336L287.42188 80.333336L287.42188 73.614586Q287.03125 73.97396 286.40625 74.34896Q285.79688 74.708336 285.3125 74.88021L285.3125 73.864586Q286.1875 73.44271 286.84375 72.864586Q287.51562 72.270836 287.79688 71.708336L288.46875 71.708336L288.46875 80.333336ZM293.125 75.677086Q292.46875 75.427086 292.14062 74.989586Q291.82812 74.53646 291.82812 73.927086Q291.82812 72.989586 292.5 72.34896Q293.1875 71.708336 294.29688 71.708336Q295.42188 71.708336 296.10938 72.364586Q296.79688 73.020836 296.79688 73.958336Q296.79688 74.552086 296.48438 74.989586Q296.17188 75.427086 295.53125 75.677086Q296.32812 75.927086 296.73438 76.50521Q297.14062 77.083336 297.14062 77.88021Q297.14062 78.97396 296.35938 79.72396Q295.59375 80.47396 294.3125 80.47396Q293.04688 80.47396 292.26562 79.72396Q291.48438 78.97396 291.48438 77.84896Q291.48438 77.00521 291.90625 76.44271Q292.34375 75.88021 293.125 75.677086ZM292.90625 73.88021Q292.90625 74.489586 293.29688 74.88021Q293.70312 75.270836 294.32812 75.270836Q294.9375 75.270836 295.32812 74.895836Q295.71875 74.50521 295.71875 73.94271Q295.71875 73.364586 295.3125 72.97396Q294.90625 72.56771 294.3125 72.56771Q293.70312 72.56771 293.29688 72.958336Q292.90625 73.34896 292.90625 73.88021ZM292.57812 77.84896Q292.57812 78.302086 292.78125 78.72396Q293.0 79.145836 293.42188 79.38021Q293.84375 79.614586 294.32812 79.614586Q295.07812 79.614586 295.5625 79.13021Q296.0625 78.645836 296.0625 77.895836Q296.0625 77.13021 295.5625 76.63021Q295.0625 76.13021 294.29688 76.13021Q293.54688 76.13021 293.0625 76.63021Q292.57812 77.114586 292.57812 77.84896Z" fill-rule="nonzero"/><path fill="#a4c2f4" d="M314.0 71.333336C314.0 70.78105 314.44772 70.333336 315.0 70.333336L325.0 70.333336C325.55228 70.333336 326.0 70.78105 326.0 71.333336L326.0 81.333336C326.0 81.88562 325.55228 82.333336 325.0 82.333336L315.0 82.333336C314.44772 82.333336 314.0 81.88562 314.0 81.333336Z" fill-rule="nonzero"/><path fill="#1a1a1a" d="M340.04688 79.31771L340.04688 80.333336L334.35938 80.333336Q334.35938 79.958336 334.48438 79.59896Q334.70312 79.020836 335.17188 78.458336Q335.65625 77.895836 336.5625 77.16146Q337.96875 76.00521 338.45312 75.333336Q338.95312 74.66146 338.95312 74.06771Q338.95312 73.44271 338.5 73.020836Q338.04688 72.583336 337.32812 72.583336Q336.5625 72.583336 336.10938 73.03646Q335.65625 73.489586 335.64062 74.302086L334.5625 74.19271Q334.67188 72.97396 335.39062 72.34896Q336.125 71.708336 337.35938 71.708336Q338.59375 71.708336 339.3125 72.395836Q340.03125 73.083336 340.03125 74.09896Q340.03125 74.614586 339.8125 75.114586Q339.60938 75.59896 339.10938 76.16146Q338.625 76.708336 337.5 77.66146Q336.54688 78.458336 336.26562 78.75521Q336.0 79.03646 335.82812 79.31771L340.04688 79.31771ZM341.5 76.09896Q341.5 74.56771 341.8125 73.645836Q342.125 72.708336 342.73438 72.208336Q343.35938 71.708336 344.29688 71.708336Q344.98438 71.708336 345.5 71.989586Q346.03125 72.270836 346.375 72.802086Q346.71875 73.31771 346.90625 74.06771Q347.09375 74.81771 347.09375 76.09896Q347.09375 77.614586 346.78125 78.53646Q346.48438 79.458336 345.85938 79.97396Q345.25 80.47396 344.29688 80.47396Q343.0625 80.47396 342.34375 79.583336Q341.5 78.520836 341.5 76.09896ZM342.57812 76.09896Q342.57812 78.208336 343.07812 78.91146Q343.57812 79.614586 344.29688 79.614586Q345.03125 79.614586 345.51562 78.91146Q346.01562 78.208336 346.01562 76.09896Q346.01562 73.97396 345.51562 73.28646Q345.03125 72.583336 344.28125 72.583336Q343.5625 72.583336 343.125 73.19271Q342.57812 73.97396 342.57812 76.09896ZM354.04688 79.31771L354.04688 80.333336L348.35938 80.333336Q348.35938 79.958336 348.48438 79.59896Q348.70312 79.020836 349.17188 78.458336Q349.65625 77.895836 350.5625 77.16146Q351.96875 76.00521 352.45312 75.333336Q352.95312 74.66146 352.95312 74.06771Q352.95312 73.44271 352.5 73.020836Q352.04688 72.583336 351.32812 72.583336Q350.5625 72.583336 350.10938 73.03646Q349.65625 73.489586 349.64062 74.302086L348.5625 74.19271Q348.67188 72.97396 349.39062 72.34896Q350.125 71.708336 351.35938 71.708336Q352.59375 71.708336 353.3125 72.395836Q354.03125 73.083336 354.03125 74.09896Q354.03125 74.614586 353.8125 75.114586Q353.60938 75.59896 353.10938 76.16146Q352.625 76.708336 351.5 77.66146Q350.54688 78.458336 350.26562 78.75521Q350.0 79.03646 349.82812 79.31771L354.04688 79.31771ZM359.46875 80.333336L358.42188 80.333336L358.42188 73.614586Q358.03125 73.97396 357.40625 74.34896Q356.79688 74.708336 356.3125 74.88021L356.3125 73.864586Q357.1875 73.44271 357.84375 72.864586Q358.51562 72.270836 358.79688 71.708336L359.46875 71.708336L359.46875 80.333336Z" fill-rule="nonzero"/><path fill="#757575" d="M19.971874 33.8L19.971874 22.346874L22.284374 22.346874L22.284374 26.846874L26.815624 26.846874L26.815624 22.346874L29.128124 22.346874L29.128124 33.8L26.815624 33.8L26.815624 28.784374L22.284374 28.784374L22.284374 33.8L19.971874 33.8ZM31.440624 29.534374Q31.440624 28.440624 31.971874 27.425Q32.51875 26.39375 33.503124 25.8625Q34.503124 25.315624 35.721874 25.315624Q37.596874 25.315624 38.8 26.534374Q40.003124 27.753124 40.003124 29.628124Q40.003124 31.503124 38.784374 32.753124Q37.58125 33.9875 35.7375 33.9875Q34.596874 33.9875 33.55 33.471874Q32.51875 32.95625 31.971874 31.95625Q31.440624 30.95625 31.440624 29.534374ZM33.690624 29.64375Q33.690624 30.878124 34.26875 31.534374Q34.8625 32.190624 35.721874 32.190624Q36.58125 32.190624 37.159374 31.534374Q37.753124 30.878124 37.753124 29.628124Q37.753124 28.409374 37.159374 27.753124Q36.58125 27.096874 35.721874 27.096874Q34.8625 27.096874 34.26875 27.753124Q33.690624 28.409374 33.690624 29.64375ZM43.503124 33.8L40.878124 25.503124L43.003124 25.503124L44.565624 30.940624L45.9875 25.503124L48.1125 25.503124L49.4875 30.940624L51.08125 25.503124L53.2375 25.503124L50.58125 33.8L48.471874 33.8L47.034374 28.45625L45.628124 33.8L43.503124 33.8ZM57.440624 29.534374Q57.440624 28.440624 57.971874 27.425Q58.51875 26.39375 59.503124 25.8625Q60.503124 25.315624 61.721874 25.315624Q63.596874 25.315624 64.8 26.534374Q66.00313 27.753124 66.00313 29.628124Q66.00313 31.503124 64.78438 32.753124Q63.58125 33.9875 61.7375 33.9875Q60.596874 33.9875 59.55 33.471874Q58.51875 32.95625 57.971874 31.95625Q57.440624 30.95625 57.440624 29.534374ZM59.690624 29.64375Q59.690624 30.878124 60.26875 31.534374Q60.8625 32.190624 61.721874 32.190624Q62.58125 32.190624 63.159374 31.534374Q63.753124 30.878124 63.753124 29.628124Q63.753124 28.409374 63.159374 27.753124Q62.58125 27.096874 61.721874 27.096874Q60.8625 27.096874 60.26875 27.753124Q59.690624 28.409374 59.690624 29.64375ZM66.9875 25.503124L68.20625 25.503124L68.20625 24.878124Q68.20625 23.83125 68.425 23.315624Q68.65938 22.8 69.25313 22.471874Q69.84688 22.14375 70.76875 22.14375Q71.70625 22.14375 72.59688 22.425L72.3 23.95625Q71.78438 23.83125 71.3 23.83125Q70.81563 23.83125 70.6125 24.065624Q70.40938 24.284374 70.40938 24.909374L70.40938 25.503124L72.05 25.503124L72.05 27.221874L70.40938 27.221874L70.40938 33.8L68.20625 33.8L68.20625 27.221874L66.9875 27.221874L66.9875 25.503124ZM76.75313 25.503124L76.75313 27.253124L75.25313 27.253124L75.25313 30.596874Q75.25313 31.6125 75.3 31.784374Q75.34688 31.940624 75.4875 32.05Q75.64375 32.159374 75.8625 32.159374Q76.175 32.159374 76.75313 31.95625L76.94063 33.659374Q76.175 33.9875 75.20625 33.9875Q74.6125 33.9875 74.12813 33.784374Q73.65938 33.58125 73.425 33.26875Q73.20625 32.95625 73.12813 32.409374Q73.05 32.034374 73.05 30.8625L73.05 27.253124L72.05 27.253124L72.05 25.503124L73.05 25.503124L73.05 23.846874L75.25313 22.565624L75.25313 25.503124L76.75313 25.503124ZM82.75313 31.159374L84.94063 31.51875Q84.51875 32.721874 83.6125 33.3625Q82.70625 33.9875 81.33125 33.9875Q79.175 33.9875 78.12813 32.565624Q77.31563 31.440624 77.31563 29.70625Q77.31563 27.64375 78.39375 26.4875Q79.47188 25.315624 81.1125 25.315624Q82.97188 25.315624 84.03438 26.534374Q85.1125 27.753124 85.06563 30.284374L79.56563 30.284374Q79.58125 31.253124 80.08125 31.8Q80.59688 32.346874 81.3625 32.346874Q81.87813 32.346874 82.22188 32.065624Q82.58125 31.784374 82.75313 31.159374ZM82.87813 28.940624Q82.8625 27.9875 82.39375 27.4875Q81.925 26.9875 81.25313 26.9875Q80.53438 26.9875 80.06563 27.51875Q79.59688 28.034374 79.59688 28.940624L82.87813 28.940624ZM94.50313 33.8L92.3 33.8L92.3 29.565624Q92.3 28.221874 92.15938 27.83125Q92.01875 27.425 91.70625 27.20625Q91.39375 26.9875 90.94063 26.9875Q90.37813 26.9875 89.925 27.3Q89.47188 27.6125 89.3 28.128124Q89.12813 28.64375 89.12813 30.034374L89.12813 33.8L86.94063 33.8L86.94063 25.503124L88.97188 25.503124L88.97188 26.721874Q90.06563 25.315624 91.70625 25.315624Q92.44063 25.315624 93.03438 25.58125Q93.64375 25.83125 93.94063 26.2375Q94.25313 26.64375 94.37813 27.159374Q94.50313 27.675 94.50313 28.64375L94.50313 33.8ZM108.56563 33.8L106.51875 33.8L106.51875 32.58125Q106.01875 33.284374 105.31563 33.64375Q104.62813 33.9875 103.925 33.9875Q102.50313 33.9875 101.47188 32.83125Q100.45625 31.675 100.45625 29.6125Q100.45625 27.503124 101.44063 26.409374Q102.44063 25.315624 103.95625 25.315624Q105.34688 25.315624 106.3625 26.471874L106.3625 22.346874L108.56563 22.346874L108.56563 33.8ZM102.70625 29.471874Q102.70625 30.8 103.06563 31.39375Q103.59688 32.253124 104.55 32.253124Q105.31563 32.253124 105.84688 31.6125Q106.37813 30.95625 106.37813 29.675Q106.37813 28.253124 105.8625 27.628124Q105.34688 26.9875 104.53438 26.9875Q103.75313 26.9875 103.22188 27.6125Q102.70625 28.2375 102.70625 29.471874ZM110.44063 29.534374Q110.44063 28.440624 110.97188 27.425Q111.51875 26.39375 112.50313 25.8625Q113.50313 25.315624 114.72188 25.315624Q116.59688 25.315624 117.8 26.534374Q119.00313 27.753124 119.00313 29.628124Q119.00313 31.503124 117.78438 32.753124Q116.58125 33.9875 114.7375 33.9875Q113.59688 33.9875 112.55 33.471874Q111.51875 32.95625 110.97188 31.95625Q110.44063 30.95625 110.44063 29.534374ZM112.69063 29.64375Q112.69063 30.878124 113.26875 31.534374Q113.8625 32.190624 114.72188 32.190624Q115.58125 32.190624 116.15938 31.534374Q116.75313 30.878124 116.75313 29.628124Q116.75313 28.409374 116.15938 27.753124Q115.58125 27.096874 114.72188 27.096874Q113.8625 27.096874 113.26875 27.753124Q112.69063 28.409374 112.69063 29.64375ZM123.90938 25.503124L126.25313 25.503124L128.2375 31.39375L130.175 25.503124L132.44063 25.503124L129.51875 33.4875L128.9875 34.940624Q128.70625 35.659374 128.44063 36.034374Q128.175 36.425 127.83125 36.659374Q127.50313 36.909374 127.00313 37.034374Q126.50313 37.175 125.87813 37.175Q125.25313 37.175 124.64375 37.034374L124.44063 35.315624Q124.95625 35.425 125.37813 35.425Q126.14375 35.425 126.50313 34.971874Q126.87813 34.51875 127.06563 33.83125L123.90938 25.503124ZM133.44063 29.534374Q133.44063 28.440624 133.97188 27.425Q134.51875 26.39375 135.50313 25.8625Q136.50313 25.315624 137.72188 25.315624Q139.59688 25.315624 140.8 26.534374Q142.00313 27.753124 142.00313 29.628124Q142.00313 31.503124 140.78438 32.753124Q139.58125 33.9875 137.7375 33.9875Q136.59688 33.9875 135.55 33.471874Q134.51875 32.95625 133.97188 31.95625Q133.44063 30.95625 133.44063 29.534374ZM135.69063 29.64375Q135.69063 30.878124 136.26875 31.534374Q136.8625 32.190624 137.72188 32.190624Q138.58125 32.190624 139.15938 31.534374Q139.75313 30.878124 139.75313 29.628124Q139.75313 28.409374 139.15938 27.753124Q138.58125 27.096874 137.72188 27.096874Q136.8625 27.096874 136.26875 27.753124Q135.69063 28.409374 135.69063 29.64375ZM149.40938 33.8L149.40938 32.55Q148.95625 33.221874 148.22188 33.6125Q147.4875 33.9875 146.65938 33.9875Q145.83125 33.9875 145.15938 33.628124Q144.50313 33.253124 144.20625 32.596874Q143.90938 31.925 143.90938 30.753124L143.90938 25.503124L146.09688 25.503124L146.09688 29.315624Q146.09688 31.065624 146.22188 31.45625Q146.34688 31.846874 146.65938 32.08125Q146.9875 32.315624 147.47188 32.315624Q148.03438 32.315624 148.47188 32.003124Q148.925 31.690624 149.08125 31.2375Q149.25313 30.784374 149.25313 29.003124L149.25313 25.503124L151.45625 25.503124L151.45625 33.8L149.40938 33.8ZM160.05 33.8L157.8625 33.8L157.8625 25.503124L159.89375 25.503124L159.89375 26.675Q160.425 25.846874 160.83125 25.58125Q161.25313 25.315624 161.78438 25.315624Q162.53438 25.315624 163.2375 25.721874L162.55 27.64375Q162.00313 27.284374 161.51875 27.284374Q161.06563 27.284374 160.7375 27.534374Q160.425 27.784374 160.2375 28.45625Q160.05 29.1125 160.05 31.2375L160.05 33.8ZM168.75313 31.159374L170.94063 31.51875Q170.51875 32.721874 169.6125 33.3625Q168.70625 33.9875 167.33125 33.9875Q165.175 33.9875 164.12813 32.565624Q163.31563 31.440624 163.31563 29.70625Q163.31563 27.64375 164.39375 26.4875Q165.47188 25.315624 167.1125 25.315624Q168.97188 25.315624 170.03438 26.534374Q171.1125 27.753124 171.06563 30.284374L165.56563 30.284374Q165.58125 31.253124 166.08125 31.8Q166.59688 32.346874 167.3625 32.346874Q167.87813 32.346874 168.22188 32.065624Q168.58125 31.784374 168.75313 31.159374ZM168.87813 28.940624Q168.8625 27.9875 168.39375 27.4875Q167.925 26.9875 167.25313 26.9875Q166.53438 26.9875 166.06563 27.51875Q165.59688 28.034374 165.59688 28.940624L168.87813 28.940624ZM171.9875 25.503124L173.20625 25.503124L173.20625 24.878124Q173.20625 23.83125 173.425 23.315624Q173.65938 22.8 174.25313 22.471874Q174.84688 22.14375 175.76875 22.14375Q176.70625 22.14375 177.59688 22.425L177.3 23.95625Q176.78438 23.83125 176.3 23.83125Q175.81563 23.83125 175.6125 24.065624Q175.40938 24.284374 175.40938 24.909374L175.40938 25.503124L177.05 25.503124L177.05 27.221874L175.40938 27.221874L175.40938 33.8L173.20625 33.8L173.20625 27.221874L171.9875 27.221874L171.9875 25.503124ZM182.75313 31.159374L184.94063 31.51875Q184.51875 32.721874 183.6125 33.3625Q182.70625 33.9875 181.33125 33.9875Q179.175 33.9875 178.12813 32.565624Q177.31563 31.440624 177.31563 29.70625Q177.31563 27.64375 178.39375 26.4875Q179.47188 25.315624 181.1125 25.315624Q182.97188 25.315624 184.03438 26.534374Q185.1125 27.753124 185.06563 30.284374L179.56563 30.284374Q179.58125 31.253124 180.08125 31.8Q180.59688 32.346874 181.3625 32.346874Q181.87813 32.346874 182.22188 32.065624Q182.58125 31.784374 182.75313 31.159374ZM182.87813 28.940624Q182.8625 27.9875 182.39375 27.4875Q181.925 26.9875 181.25313 26.9875Q180.53438 26.9875 180.06563 27.51875Q179.59688 28.034374 179.59688 28.940624L182.87813 28.940624ZM189.05 33.8L186.8625 33.8L186.8625 25.503124L188.89375 25.503124L188.89375 26.675Q189.425 25.846874 189.83125 25.58125Q190.25313 25.315624 190.78438 25.315624Q191.53438 25.315624 192.2375 25.721874L191.55 27.64375Q191.00313 27.284374 190.51875 27.284374Q190.06563 27.284374 189.7375 27.534374Q189.425 27.784374 189.2375 28.45625Q189.05 29.1125 189.05 31.2375L189.05 33.8ZM197.75313 31.159374L199.94063 31.51875Q199.51875 32.721874 198.6125 33.3625Q197.70625 33.9875 196.33125 33.9875Q194.175 33.9875 193.12813 32.565624Q192.31563 31.440624 192.31563 29.70625Q192.31563 27.64375 193.39375 26.4875Q194.47188 25.315624 196.1125 25.315624Q197.97188 25.315624 199.03438 26.534374Q200.1125 27.753124 200.06563 30.284374L194.56563 30.284374Q194.58125 31.253124 195.08125 31.8Q195.59688 32.346874 196.3625 32.346874Q196.87813 32.346874 197.22188 32.065624Q197.58125 31.784374 197.75313 31.159374ZM197.87813 28.940624Q197.8625 27.9875 197.39375 27.4875Q196.925 26.9875 196.25313 26.9875Q195.53438 26.9875 195.06563 27.51875Q194.59688 28.034374 194.59688 28.940624L197.87813 28.940624ZM209.50313 33.8L207.3 33.8L207.3 29.565624Q207.3 28.221874 207.15938 27.83125Q207.01875 27.425 206.70625 27.20625Q206.39375 26.9875 205.94063 26.9875Q205.37813 26.9875 204.925 27.3Q204.47188 27.6125 204.3 28.128124Q204.12813 28.64375 204.12813 30.034374L204.12813 33.8L201.94063 33.8L201.94063 25.503124L203.97188 25.503124L203.97188 26.721874Q205.06563 25.315624 206.70625 25.315624Q207.44063 25.315624 208.03438 25.58125Q208.64375 25.83125 208.94063 26.2375Q209.25313 26.64375 209.37813 27.159374Q209.50313 27.675 209.50313 28.64375L209.50313 33.8ZM219.19063 27.95625L217.01875 28.346874Q216.90938 27.690624 216.51875 27.3625Q216.14375 27.034374 215.51875 27.034374Q214.70625 27.034374 214.20625 27.6125Q213.72188 28.175 213.72188 29.503124Q213.72188 30.971874 214.22188 31.58125Q214.72188 32.190624 215.55 32.190624Q216.175 32.190624 216.56563 31.846874Q216.97188 31.4875 217.14375 30.6125L219.3 30.9875Q218.95625 32.471874 218.00313 33.2375Q217.05 33.9875 215.45625 33.9875Q213.62813 33.9875 212.55 32.846874Q211.47188 31.690624 211.47188 29.659374Q211.47188 27.596874 212.55 26.45625Q213.64375 25.315624 215.4875 25.315624Q217.00313 25.315624 217.89375 25.971874Q218.8 26.6125 219.19063 27.95625ZM225.75313 31.159374L227.94063 31.51875Q227.51875 32.721874 226.6125 33.3625Q225.70625 33.9875 224.33125 33.9875Q222.175 33.9875 221.12813 32.565624Q220.31563 31.440624 220.31563 29.70625Q220.31563 27.64375 221.39375 26.4875Q222.47188 25.315624 224.1125 25.315624Q225.97188 25.315624 227.03438 26.534374Q228.1125 27.753124 228.06563 30.284374L222.56563 30.284374Q222.58125 31.253124 223.08125 31.8Q223.59688 32.346874 224.3625 32.346874Q224.87813 32.346874 225.22188 32.065624Q225.58125 31.784374 225.75313 31.159374ZM225.87813 28.940624Q225.8625 27.9875 225.39375 27.4875Q224.925 26.9875 224.25313 26.9875Q223.53438 26.9875 223.06563 27.51875Q222.59688 28.034374 222.59688 28.940624L225.87813 28.940624ZM233.97188 33.8L233.97188 22.346874L237.675 22.346874Q239.78438 22.346874 240.425 22.51875Q241.40938 22.76875 242.06563 23.64375Q242.7375 24.503124 242.7375 25.8625Q242.7375 26.925 242.34688 27.64375Q241.97188 28.3625 241.37813 28.76875Q240.8 29.175 240.19063 29.315624Q239.3625 29.471874 237.78438 29.471874L236.28438 29.471874L236.28438 33.8L233.97188 33.8ZM236.28438 24.284374L236.28438 27.534374L237.55 27.534374Q238.90938 27.534374 239.3625 27.3625Q239.83125 27.175 240.09688 26.8Q240.3625 26.409374 240.3625 25.89375Q240.3625 25.26875 239.9875 24.8625Q239.62813 24.45625 239.06563 24.3625Q238.64375 24.284374 237.39375 24.284374L236.28438 24.284374ZM246.59688 28.034374L244.59688 27.675Q244.94063 26.471874 245.75313 25.89375Q246.58125 25.315624 248.19063 25.315624Q249.65938 25.315624 250.37813 25.659374Q251.09688 26.003124 251.39375 26.55Q251.69063 27.08125 251.69063 28.503124L251.65938 31.065624Q251.65938 32.159374 251.76875 32.690624Q251.87813 33.20625 252.15938 33.8L249.9875 33.8Q249.90938 33.58125 249.78438 33.14375Q249.72188 32.95625 249.70625 32.89375Q249.14375 33.440624 248.50313 33.721874Q247.8625 33.9875 247.12813 33.9875Q245.84688 33.9875 245.1125 33.3Q244.37813 32.596874 244.37813 31.534374Q244.37813 30.83125 244.70625 30.284374Q245.05 29.721874 245.64375 29.440624Q246.25313 29.14375 247.39375 28.925Q248.94063 28.628124 249.53438 28.378124L249.53438 28.159374Q249.53438 27.534374 249.22188 27.26875Q248.90938 26.9875 248.03438 26.9875Q247.45625 26.9875 247.12813 27.221874Q246.8 27.45625 246.59688 28.034374ZM249.53438 29.815624Q249.1125 29.95625 248.19063 30.159374Q247.28438 30.346874 247.00313 30.534374Q246.56563 30.83125 246.56563 31.3Q246.56563 31.76875 246.90938 32.1125Q247.25313 32.440624 247.78438 32.440624Q248.37813 32.440624 248.925 32.05Q249.31563 31.753124 249.44063 31.315624Q249.53438 31.034374 249.53438 30.253124L249.53438 29.815624ZM253.90938 24.378124L253.90938 22.346874L256.09686 22.346874L256.09686 24.378124L253.90938 24.378124ZM256.09686 25.503124L256.09686 33.534374Q256.09686 35.128124 255.89375 35.784374Q255.69063 36.440624 255.09688 36.8Q254.50313 37.175 253.59688 37.175Q253.26875 37.175 252.87813 37.1125Q252.50313 37.05 252.06563 36.940624L252.44063 35.065624Q252.59688 35.096874 252.7375 35.1125Q252.87813 35.128124 253.00313 35.128124Q253.33125 35.128124 253.55 34.9875Q253.76875 34.846874 253.83125 34.64375Q253.90938 34.440624 253.90938 33.409374L253.90938 25.503124L256.09686 25.503124ZM259.59686 28.034374L257.59686 27.675Q257.9406 26.471874 258.7531 25.89375Q259.58124 25.315624 261.1906 25.315624Q262.65936 25.315624 263.3781 25.659374Q264.09686 26.003124 264.39374 26.55Q264.6906 27.08125 264.6906 28.503124L264.65936 31.065624Q264.65936 32.159374 264.76874 32.690624Q264.8781 33.20625 265.15936 33.8L262.9875 33.8Q262.90936 33.58125 262.78436 33.14375Q262.72186 32.95625 262.70624 32.89375Q262.14374 33.440624 261.5031 33.721874Q260.8625 33.9875 260.1281 33.9875Q258.84686 33.9875 258.1125 33.3Q257.3781 32.596874 257.3781 31.534374Q257.3781 30.83125 257.70624 30.284374Q258.05 29.721874 258.64374 29.440624Q259.2531 29.14375 260.39374 28.925Q261.9406 28.628124 262.53436 28.378124L262.53436 28.159374Q262.53436 27.534374 262.22186 27.26875Q261.90936 26.9875 261.03436 26.9875Q260.45624 26.9875 260.1281 27.221874Q259.8 27.45625 259.59686 28.034374ZM262.53436 29.815624Q262.1125 29.95625 261.1906 30.159374Q260.28436 30.346874 260.0031 30.534374Q259.5656 30.83125 259.5656 31.3Q259.5656 31.76875 259.90936 32.1125Q260.2531 32.440624 260.78436 32.440624Q261.3781 32.440624 261.925 32.05Q262.3156 31.753124 262.4406 31.315624Q262.53436 31.034374 262.53436 30.253124L262.53436 29.815624ZM266.78436 25.503124L268.8156 25.503124L268.8156 26.628124Q269.89374 25.315624 271.39374 25.315624Q272.1906 25.315624 272.76874 25.64375Q273.3625 25.971874 273.7375 26.628124Q274.28436 25.971874 274.90936 25.64375Q275.55 25.315624 276.26874 25.315624Q277.1906 25.315624 277.8156 25.690624Q278.45624 26.05 278.76874 26.76875Q278.9875 27.3 278.9875 28.4875L278.9875 33.8L276.8 33.8L276.8 29.05Q276.8 27.815624 276.5656 27.45625Q276.26874 26.9875 275.6281 26.9875Q275.175 26.9875 274.76874 27.26875Q274.3625 27.55 274.175 28.096874Q274.0031 28.64375 274.0031 29.815624L274.0031 33.8L271.8 33.8L271.8 29.253124Q271.8 28.034374 271.675 27.690624Q271.5656 27.33125 271.3156 27.159374Q271.08124 26.9875 270.65936 26.9875Q270.14374 26.9875 269.7375 27.26875Q269.33124 27.534374 269.15936 28.05Q268.9875 28.565624 268.9875 29.76875L268.9875 33.8L266.78436 33.8L266.78436 25.503124ZM282.59686 28.034374L280.59686 27.675Q280.9406 26.471874 281.7531 25.89375Q282.58124 25.315624 284.1906 25.315624Q285.65936 25.315624 286.3781 25.659374Q287.09686 26.003124 287.39374 26.55Q287.6906 27.08125 287.6906 28.503124L287.65936 31.065624Q287.65936 32.159374 287.76874 32.690624Q287.8781 33.20625 288.15936 33.8L285.9875 33.8Q285.90936 33.58125 285.78436 33.14375Q285.72186 32.95625 285.70624 32.89375Q285.14374 33.440624 284.5031 33.721874Q283.8625 33.9875 283.1281 33.9875Q281.84686 33.9875 281.1125 33.3Q280.3781 32.596874 280.3781 31.534374Q280.3781 30.83125 280.70624 30.284374Q281.05 29.721874 281.64374 29.440624Q282.2531 29.14375 283.39374 28.925Q284.9406 28.628124 285.53436 28.378124L285.53436 28.159374Q285.53436 27.534374 285.22186 27.26875Q284.90936 26.9875 284.03436 26.9875Q283.45624 26.9875 283.1281 27.221874Q282.8 27.45625 282.59686 28.034374ZM285.53436 29.815624Q285.1125 29.95625 284.1906 30.159374Q283.28436 30.346874 283.0031 30.534374Q282.5656 30.83125 282.5656 31.3Q282.5656 31.76875 282.90936 32.1125Q283.2531 32.440624 283.78436 32.440624Q284.3781 32.440624 284.925 32.05Q285.3156 31.753124 285.4406 31.315624Q285.53436 31.034374 285.53436 30.253124L285.53436 29.815624ZM289.175 31.425L291.3781 31.096874Q291.51874 31.7375 291.9406 32.065624Q292.3781 32.39375 293.15936 32.39375Q294.0031 32.39375 294.4406 32.08125Q294.72186 31.8625 294.72186 31.503124Q294.72186 31.253124 294.5656 31.08125Q294.40936 30.925 293.83124 30.8Q291.175 30.20625 290.47186 29.721874Q289.4875 29.05 289.4875 27.8625Q289.4875 26.784374 290.33124 26.05Q291.1906 25.315624 292.97186 25.315624Q294.675 25.315624 295.5031 25.878124Q296.33124 26.425 296.64374 27.503124L294.58124 27.89375Q294.4406 27.409374 294.0656 27.159374Q293.70624 26.89375 293.01874 26.89375Q292.14374 26.89375 291.76874 27.128124Q291.51874 27.3 291.51874 27.58125Q291.51874 27.815624 291.7375 27.971874Q292.03436 28.190624 293.78436 28.596874Q295.55 28.9875 296.2375 29.565624Q296.925 30.159374 296.925 31.20625Q296.925 32.346874 295.97186 33.175Q295.01874 33.9875 293.15936 33.9875Q291.45624 33.9875 290.47186 33.3Q289.4875 32.6125 289.175 31.425ZM304.5031 33.8L301.8781 25.503124L304.0031 25.503124L305.5656 30.940624L306.9875 25.503124L309.1125 25.503124L310.4875 30.940624L312.08124 25.503124L314.2375 25.503124L311.58124 33.8L309.47186 33.8L308.03436 28.45625L306.6281 33.8L304.5031 33.8ZM317.14374 22.346874L317.14374 26.55Q318.20624 25.315624 319.675 25.315624Q320.4406 25.315624 321.05 25.596874Q321.65936 25.878124 321.95624 26.315624Q322.26874 26.753124 322.3781 27.284374Q322.5031 27.815624 322.5031 28.925L322.5031 33.8L320.3 33.8L320.3 29.409374Q320.3 28.1125 320.175 27.76875Q320.05 27.409374 319.7375 27.20625Q319.425 26.9875 318.9406 26.9875Q318.39374 26.9875 317.95624 27.253124Q317.53436 27.51875 317.33124 28.065624Q317.14374 28.596874 317.14374 29.64375L317.14374 33.8L314.9406 33.8L314.9406 22.346874L317.14374 22.346874ZM329.7531 31.159374L331.9406 31.51875Q331.51874 32.721874 330.6125 33.3625Q329.70624 33.9875 328.33124 33.9875Q326.175 33.9875 325.1281 32.565624Q324.3156 31.440624 324.3156 29.70625Q324.3156 27.64375 325.39374 26.4875Q326.47186 25.315624 328.1125 25.315624Q329.97186 25.315624 331.03436 26.534374Q332.1125 27.753124 332.0656 30.284374L326.5656 30.284374Q326.58124 31.253124 327.08124 31.8Q327.59686 32.346874 328.3625 32.346874Q328.8781 32.346874 329.22186 32.065624Q329.58124 31.784374 329.7531 31.159374ZM329.8781 28.940624Q329.8625 27.9875 329.39374 27.4875Q328.925 26.9875 328.2531 26.9875Q327.53436 26.9875 327.0656 27.51875Q326.59686 28.034374 326.59686 28.940624L329.8781 28.940624ZM341.5031 33.8L339.3 33.8L339.3 29.565624Q339.3 28.221874 339.15936 27.83125Q339.01874 27.425 338.70624 27.20625Q338.39374 26.9875 337.9406 26.9875Q337.3781 26.9875 336.925 27.3Q336.47186 27.6125 336.3 28.128124Q336.1281 28.64375 336.1281 30.034374L336.1281 33.8L333.9406 33.8L333.9406 25.503124L335.97186 25.503124L335.97186 26.721874Q337.0656 25.315624 338.70624 25.315624Q339.4406 25.315624 340.03436 25.58125Q340.64374 25.83125 340.9406 26.2375Q341.2531 26.64375 341.3781 27.159374Q341.5031 27.675 341.5031 28.64375L341.5031 33.8ZM349.5031 33.8L346.8781 25.503124L349.0031 25.503124L350.5656 30.940624L351.9875 25.503124L354.1125 25.503124L355.4875 30.940624L357.08124 25.503124L359.2375 25.503124L356.58124 33.8L354.47186 33.8L353.03436 28.45625L351.6281 33.8L349.5031 33.8ZM359.4406 29.534374Q359.4406 28.440624 359.97186 27.425Q360.51874 26.39375 361.5031 25.8625Q362.5031 25.315624 363.72186 25.315624Q365.59686 25.315624 366.8 26.534374Q368.0031 27.753124 368.0031 29.628124Q368.0031 31.503124 366.78436 32.753124Q365.58124 33.9875 363.7375 33.9875Q362.59686 33.9875 361.55 33.471874Q360.51874 32.95625 359.97186 31.95625Q359.4406 30.95625 359.4406 29.534374ZM361.6906 29.64375Q361.6906 30.878124 362.26874 31.534374Q362.8625 32.190624 363.72186 32.190624Q364.58124 32.190624 365.15936 31.534374Q365.7531 30.878124 365.7531 29.628124Q365.7531 28.409374 365.15936 27.753124Q364.58124 27.096874 363.72186 27.096874Q362.8625 27.096874 362.26874 27.753124Q361.6906 28.409374 361.6906 29.64375ZM372.05 33.8L369.8625 33.8L369.8625 25.503124L371.89374 25.503124L371.89374 26.675Q372.425 25.846874 372.83124 25.58125Q373.2531 25.315624 373.78436 25.315624Q374.53436 25.315624 375.2375 25.721874L374.55 27.64375Q374.0031 27.284374 373.51874 27.284374Q373.0656 27.284374 372.7375 27.534374Q372.425 27.784374 372.2375 28.45625Q372.05 29.1125 372.05 31.2375L372.05 33.8ZM375.8781 33.8L375.8781 22.346874L378.0656 22.346874L378.0656 28.425L380.64374 25.503124L383.34686 25.503124L380.5031 28.534374L383.55 33.8L381.175 33.8L379.09686 30.065624L378.0656 31.14375L378.0656 33.8L375.8781 33.8ZM384.95624 24.378124L384.95624 22.346874L387.14374 22.346874L387.14374 24.378124L384.95624 24.378124ZM384.95624 33.8L384.95624 25.503124L387.14374 25.503124L387.14374 33.8L384.95624 33.8ZM396.5031 33.8L394.3 33.8L394.3 29.565624Q394.3 28.221874 394.15936 27.83125Q394.01874 27.425 393.70624 27.20625Q393.39374 26.9875 392.9406 26.9875Q392.3781 26.9875 391.925 27.3Q391.47186 27.6125 391.3 28.128124Q391.1281 28.64375 391.1281 30.034374L391.1281 33.8L388.9406 33.8L388.9406 25.503124L390.97186 25.503124L390.97186 26.721874Q392.0656 25.315624 393.70624 25.315624Q394.4406 25.315624 395.03436 25.58125Q395.64374 25.83125 395.9406 26.2375Q396.2531 26.64375 396.3781 27.159374Q396.5031 27.675 396.5031 28.64375L396.5031 33.8ZM398.7531 34.346874L401.2531 34.659374Q401.3156 35.096874 401.55 35.253124Q401.8625 35.4875 402.53436 35.4875Q403.39374 35.4875 403.8156 35.2375Q404.1125 35.065624 404.2531 34.675Q404.3625 34.409374 404.3625 33.659374L404.3625 32.45625Q403.3781 33.8 401.8781 33.8Q400.20624 33.8 399.22186 32.378124Q398.45624 31.26875 398.45624 29.596874Q398.45624 27.51875 399.45624 26.425Q400.47186 25.315624 401.95624 25.315624Q403.5031 25.315624 404.5031 26.659374L404.5031 25.503124L406.55 25.503124L406.55 32.940624Q406.55 34.425 406.3 35.14375Q406.0656 35.878124 405.6281 36.284374Q405.1906 36.70625 404.45624 36.940624Q403.7375 37.175 402.6125 37.175Q400.5031 37.175 399.6125 36.440624Q398.7375 35.721874 398.7375 34.6125Q398.7375 34.503124 398.7531 34.346874ZM400.70624 29.471874Q400.70624 30.8 401.22186 31.409374Q401.7375 32.01875 402.4875 32.01875Q403.28436 32.01875 403.83124 31.39375Q404.39374 30.76875 404.39374 29.534374Q404.39374 28.2375 403.8625 27.6125Q403.33124 26.9875 402.51874 26.9875Q401.7375 26.9875 401.22186 27.6125Q400.70624 28.221874 400.70624 29.471874ZM412.4406 29.534374Q412.4406 28.440624 412.97186 27.425Q413.51874 26.39375 414.5031 25.8625Q415.5031 25.315624 416.72186 25.315624Q418.59686 25.315624 419.8 26.534374Q421.0031 27.753124 421.0031 29.628124Q421.0031 31.503124 419.78436 32.753124Q418.58124 33.9875 416.7375 33.9875Q415.59686 33.9875 414.55 33.471874Q413.51874 32.95625 412.97186 31.95625Q412.4406 30.95625 412.4406 29.534374ZM414.6906 29.64375Q414.6906 30.878124 415.26874 31.534374Q415.8625 32.190624 416.72186 32.190624Q417.58124 32.190624 418.15936 31.534374Q418.7531 30.878124 418.7531 29.628124Q418.7531 28.409374 418.15936 27.753124Q417.58124 27.096874 416.72186 27.096874Q415.8625 27.096874 415.26874 27.753124Q414.6906 28.409374 414.6906 29.64375ZM430.5031 33.8L428.3 33.8L428.3 29.565624Q428.3 28.221874 428.15936 27.83125Q428.01874 27.425 427.70624 27.20625Q427.39374 26.9875 426.9406 26.9875Q426.3781 26.9875 425.925 27.3Q425.47186 27.6125 425.3 28.128124Q425.1281 28.64375 425.1281 30.034374L425.1281 33.8L422.9406 33.8L422.9406 25.503124L424.97186 25.503124L424.97186 26.721874Q426.0656 25.315624 427.70624 25.315624Q428.4406 25.315624 429.03436 25.58125Q429.64374 25.83125 429.9406 26.2375Q430.2531 26.64375 430.3781 27.159374Q430.5031 27.675 430.5031 28.64375L430.5031 33.8ZM444.5656 33.8L442.51874 33.8L442.51874 32.58125Q442.01874 33.284374 441.3156 33.64375Q440.6281 33.9875 439.925 33.9875Q438.5031 33.9875 437.47186 32.83125Q436.45624 31.675 436.45624 29.6125Q436.45624 27.503124 437.4406 26.409374Q438.4406 25.315624 439.95624 25.315624Q441.34686 25.315624 442.3625 26.471874L442.3625 22.346874L444.5656 22.346874L444.5656 33.8ZM438.70624 29.471874Q438.70624 30.8 439.0656 31.39375Q439.59686 32.253124 440.55 32.253124Q441.3156 32.253124 441.84686 31.6125Q442.3781 30.95625 442.3781 29.675Q442.3781 28.253124 441.8625 27.628124Q441.34686 26.9875 440.53436 26.9875Q439.7531 26.9875 439.22186 27.6125Q438.70624 28.2375 438.70624 29.471874ZM451.7531 31.159374L453.9406 31.51875Q453.51874 32.721874 452.6125 33.3625Q451.70624 33.9875 450.33124 33.9875Q448.175 33.9875 447.1281 32.565624Q446.3156 31.440624 446.3156 29.70625Q446.3156 27.64375 447.39374 26.4875Q448.47186 25.315624 450.1125 25.315624Q451.97186 25.315624 453.03436 26.534374Q454.1125 27.753124 454.0656 30.284374L448.5656 30.284374Q448.58124 31.253124 449.08124 31.8Q449.59686 32.346874 450.3625 32.346874Q450.8781 32.346874 451.22186 32.065624Q451.58124 31.784374 451.7531 31.159374ZM451.8781 28.940624Q451.8625 27.9875 451.39374 27.4875Q450.925 26.9875 450.2531 26.9875Q449.53436 26.9875 449.0656 27.51875Q448.59686 28.034374 448.59686 28.940624L451.8781 28.940624ZM455.175 31.425L457.3781 31.096874Q457.51874 31.7375 457.9406 32.065624Q458.3781 32.39375 459.15936 32.39375Q460.0031 32.39375 460.4406 32.08125Q460.72186 31.8625 460.72186 31.503124Q460.72186 31.253124 460.5656 31.08125Q460.40936 30.925 459.83124 30.8Q457.175 30.20625 456.47186 29.721874Q455.4875 29.05 455.4875 27.8625Q455.4875 26.784374 456.33124 26.05Q457.1906 25.315624 458.97186 25.315624Q460.675 25.315624 461.5031 25.878124Q462.33124 26.425 462.64374 27.503124L460.58124 27.89375Q460.4406 27.409374 460.0656 27.159374Q459.70624 26.89375 459.01874 26.89375Q458.14374 26.89375 457.76874 27.128124Q457.51874 27.3 457.51874 27.58125Q457.51874 27.815624 457.7375 27.971874Q458.03436 28.190624 459.78436 28.596874Q461.55 28.9875 462.2375 29.565624Q462.925 30.159374 462.925 31.20625Q462.925 32.346874 461.97186 33.175Q461.01874 33.9875 459.15936 33.9875Q457.45624 33.9875 456.47186 33.3Q455.4875 32.6125 455.175 31.425ZM464.95624 24.378124L464.95624 22.346874L467.14374 22.346874L467.14374 24.378124L464.95624 24.378124ZM464.95624 33.8L464.95624 25.503124L467.14374 25.503124L467.14374 33.8L464.95624 33.8ZM468.7531 34.346874L471.2531 34.659374Q471.3156 35.096874 471.55 35.253124Q471.8625 35.4875 472.53436 35.4875Q473.39374 35.4875 473.8156 35.2375Q474.1125 35.065624 474.2531 34.675Q474.3625 34.409374 474.3625 33.659374L474.3625 32.45625Q473.3781 33.8 471.8781 33.8Q470.20624 33.8 469.22186 32.378124Q468.45624 31.26875 468.45624 29.596874Q468.45624 27.51875 469.45624 26.425Q470.47186 25.315624 471.95624 25.315624Q473.5031 25.315624 474.5031 26.659374L474.5031 25.503124L476.55 25.503124L476.55 32.940624Q476.55 34.425 476.3 35.14375Q476.0656 35.878124 475.6281 36.284374Q475.1906 36.70625 474.45624 36.940624Q473.7375 37.175 472.6125 37.175Q470.5031 37.175 469.6125 36.440624Q468.7375 35.721874 468.7375 34.6125Q468.7375 34.503124 468.7531 34.346874ZM470.70624 29.471874Q470.70624 30.8 471.22186 31.409374Q471.7375 32.01875 472.4875 32.01875Q473.28436 32.01875 473.83124 31.39375Q474.39374 30.76875 474.39374 29.534374Q474.39374 28.2375 473.8625 27.6125Q473.33124 26.9875 472.51874 26.9875Q471.7375 26.9875 471.22186 27.6125Q470.70624 28.221874 470.70624 29.471874ZM486.5031 33.8L484.3 33.8L484.3 29.565624Q484.3 28.221874 484.15936 27.83125Q484.01874 27.425 483.70624 27.20625Q483.39374 26.9875 482.9406 26.9875Q482.3781 26.9875 481.925 27.3Q481.47186 27.6125 481.3 28.128124Q481.1281 28.64375 481.1281 30.034374L481.1281 33.8L478.9406 33.8L478.9406 25.503124L480.97186 25.503124L480.97186 26.721874Q482.0656 25.315624 483.70624 25.315624Q484.4406 25.315624 485.03436 25.58125Q485.64374 25.83125 485.9406 26.2375Q486.2531 26.64375 486.3781 27.159374Q486.5031 27.675 486.5031 28.64375L486.5031 33.8ZM495.05 33.8L492.8625 33.8L492.8625 25.503124L494.89374 25.503124L494.89374 26.675Q495.425 25.846874 495.83124 25.58125Q496.2531 25.315624 496.78436 25.315624Q497.53436 25.315624 498.2375 25.721874L497.55 27.64375Q497.0031 27.284374 496.51874 27.284374Q496.0656 27.284374 495.7375 27.534374Q495.425 27.784374 495.2375 28.45625Q495.05 29.1125 495.05 31.2375L495.05 33.8ZM503.7531 31.159374L505.9406 31.51875Q505.51874 32.721874 504.6125 33.3625Q503.70624 33.9875 502.33124 33.9875Q500.175 33.9875 499.1281 32.565624Q498.3156 31.440624 498.3156 29.70625Q498.3156 27.64375 499.39374 26.4875Q500.47186 25.315624 502.1125 25.315624Q503.97186 25.315624 505.03436 26.534374Q506.1125 27.753124 506.0656 30.284374L500.5656 30.284374Q500.58124 31.253124 501.08124 31.8Q501.59686 32.346874 502.3625 32.346874Q502.8781 32.346874 503.22186 32.065624Q503.58124 31.784374 503.7531 31.159374ZM503.8781 28.940624Q503.8625 27.9875 503.39374 27.4875Q502.925 26.9875 502.2531 26.9875Q501.53436 26.9875 501.0656 27.51875Q500.59686 28.034374 500.59686 28.940624L503.8781 28.940624ZM507.95624 33.8L507.95624 22.346874L510.14374 22.346874L510.14374 33.8L507.95624 33.8ZM513.59686 28.034374L511.59686 27.675Q511.9406 26.471874 512.7531 25.89375Q513.58124 25.315624 515.1906 25.315624Q516.65936 25.315624 517.3781 25.659374Q518.09686 26.003124 518.39374 26.55Q518.6906 27.08125 518.6906 28.503124L518.65936 31.065624Q518.65936 32.159374 518.76874 32.690624Q518.8781 33.20625 519.15936 33.8L516.9875 33.8Q516.90936 33.58125 516.78436 33.14375Q516.72186 32.95625 516.70624 32.89375Q516.14374 33.440624 515.5031 33.721874Q514.8625 33.9875 514.1281 33.9875Q512.84686 33.9875 512.1125 33.3Q511.3781 32.596874 511.3781 31.534374Q511.3781 30.83125 511.70624 30.284374Q512.05 29.721874 512.64374 29.440624Q513.2531 29.14375 514.39374 28.925Q515.9406 28.628124 516.53436 28.378124L516.53436 28.159374Q516.53436 27.534374 516.22186 27.26875Q515.90936 26.9875 515.03436 26.9875Q514.45624 26.9875 514.1281 27.221874Q513.8 27.45625 513.59686 28.034374ZM516.53436 29.815624Q516.1125 29.95625 515.1906 30.159374Q514.28436 30.346874 514.0031 30.534374Q513.5656 30.83125 513.5656 31.3Q513.5656 31.76875 513.90936 32.1125Q514.2531 32.440624 514.78436 32.440624Q515.3781 32.440624 515.925 32.05Q516.3156 31.753124 516.4406 31.315624Q516.53436 31.034374 516.53436 30.253124L516.53436 29.815624ZM524.7531 25.503124L524.7531 27.253124L523.2531 27.253124L523.2531 30.596874Q523.2531 31.6125 523.3 31.784374Q523.34686 31.940624 523.4875 32.05Q523.64374 32.159374 523.8625 32.159374Q524.175 32.159374 524.7531 31.95625L524.9406 33.659374Q524.175 33.9875 523.20624 33.9875Q522.6125 33.9875 522.1281 33.784374Q521.65936 33.58125 521.425 33.26875Q521.20624 32.95625 521.1281 32.409374Q521.05 32.034374 521.05 30.8625L521.05 27.253124L520.05 27.253124L520.05 25.503124L521.05 25.503124L521.05 23.846874L523.2531 22.565624L523.2531 25.503124L524.7531 25.503124ZM530.7531 31.159374L532.9406 31.51875Q532.51874 32.721874 531.6125 33.3625Q530.70624 33.9875 529.33124 33.9875Q527.175 33.9875 526.1281 32.565624Q525.3156 31.440624 525.3156 29.70625Q525.3156 27.64375 526.39374 26.4875Q527.47186 25.315624 529.1125 25.315624Q530.97186 25.315624 532.03436 26.534374Q533.1125 27.753124 533.0656 30.284374L527.5656 30.284374Q527.58124 31.253124 528.08124 31.8Q528.59686 32.346874 529.3625 32.346874Q529.8781 32.346874 530.22186 32.065624Q530.58124 31.784374 530.7531 31.159374ZM530.8781 28.940624Q530.8625 27.9875 530.39374 27.4875Q529.925 26.9875 529.2531 26.9875Q528.53436 26.9875 528.0656 27.51875Q527.59686 28.034374 527.59686 28.940624L530.8781 28.940624ZM542.5656 33.8L540.51874 33.8L540.51874 32.58125Q540.01874 33.284374 539.3156 33.64375Q538.6281 33.9875 537.925 33.9875Q536.5031 33.9875 535.47186 32.83125Q534.45624 31.675 534.45624 29.6125Q534.45624 27.503124 535.4406 26.409374Q536.4406 25.315624 537.95624 25.315624Q539.34686 25.315624 540.3625 26.471874L540.3625 22.346874L542.5656 22.346874L542.5656 33.8ZM536.70624 29.471874Q536.70624 30.8 537.0656 31.39375Q537.59686 32.253124 538.55 32.253124Q539.3156 32.253124 539.84686 31.6125Q540.3781 30.95625 540.3781 29.675Q540.3781 28.253124 539.8625 27.628124Q539.34686 26.9875 538.53436 26.9875Q537.7531 26.9875 537.22186 27.6125Q536.70624 28.2375 536.70624 29.471874Z" fill-rule="nonzero"/><path fill="#757575" d="M23.753124 44.503124L23.753124 46.253124L22.253124 46.253124L22.253124 49.596874Q22.253124 50.6125 22.3 50.784374Q22.346874 50.940624 22.4875 51.05Q22.64375 51.159374 22.8625 51.159374Q23.175 51.159374 23.753124 50.95625L23.940624 52.659374Q23.175 52.9875 22.20625 52.9875Q21.6125 52.9875 21.128124 52.784374Q20.659374 52.58125 20.425 52.26875Q20.20625 51.95625 20.128124 51.409374Q20.05 51.034374 20.05 49.8625L20.05 46.253124L19.05 46.253124L19.05 44.503124L20.05 44.503124L20.05 42.846874L22.253124 41.565624L22.253124 44.503124L23.753124 44.503124ZM26.596874 47.034374L24.596874 46.675Q24.940624 45.471874 25.753124 44.89375Q26.58125 44.315624 28.190624 44.315624Q29.659374 44.315624 30.378124 44.659374Q31.096874 45.003124 31.39375 45.55Q31.690624 46.08125 31.690624 47.503124L31.659374 50.065624Q31.659374 51.159374 31.76875 51.690624Q31.878124 52.20625 32.159374 52.8L29.9875 52.8Q29.909374 52.58125 29.784374 52.14375Q29.721874 51.95625 29.70625 51.89375Q29.14375 52.440624 28.503124 52.721874Q27.8625 52.9875 27.128124 52.9875Q25.846874 52.9875 25.1125 52.3Q24.378124 51.596874 24.378124 50.534374Q24.378124 49.83125 24.70625 49.284374Q25.05 48.721874 25.64375 48.440624Q26.253124 48.14375 27.39375 47.925Q28.940624 47.628124 29.534374 47.378124L29.534374 47.159374Q29.534374 46.534374 29.221874 46.26875Q28.909374 45.9875 28.034374 45.9875Q27.45625 45.9875 27.128124 46.221874Q26.8 46.45625 26.596874 47.034374ZM29.534374 48.815624Q29.1125 48.95625 28.190624 49.159374Q27.284374 49.346874 27.003124 49.534374Q26.565624 49.83125 26.565624 50.3Q26.565624 50.76875 26.909374 51.1125Q27.253124 51.440624 27.784374 51.440624Q28.378124 51.440624 28.925 51.05Q29.315624 50.753124 29.440624 50.315624Q29.534374 50.034374 29.534374 49.253124L29.534374 48.815624ZM33.175 50.425L35.378124 50.096874Q35.51875 50.7375 35.940624 51.065624Q36.378124 51.39375 37.159374 51.39375Q38.003124 51.39375 38.440624 51.08125Q38.721874 50.8625 38.721874 50.503124Q38.721874 50.253124 38.565624 50.08125Q38.409374 49.925 37.83125 49.8Q35.175 49.20625 34.471874 48.721874Q33.4875 48.05 33.4875 46.8625Q33.4875 45.784374 34.33125 45.05Q35.190624 44.315624 36.971874 44.315624Q38.675 44.315624 39.503124 44.878124Q40.33125 45.425 40.64375 46.503124L38.58125 46.89375Q38.440624 46.409374 38.065624 46.159374Q37.70625 45.89375 37.01875 45.89375Q36.14375 45.89375 35.76875 46.128124Q35.51875 46.3 35.51875 46.58125Q35.51875 46.815624 35.7375 46.971874Q36.034374 47.190624 37.784374 47.596874Q39.55 47.9875 40.2375 48.565624Q40.925 49.159374 40.925 50.20625Q40.925 51.346874 39.971874 52.175Q39.01875 52.9875 37.159374 52.9875Q35.45625 52.9875 34.471874 52.3Q33.4875 51.6125 33.175 50.425ZM42.878124 52.8L42.878124 41.346874L45.065624 41.346874L45.065624 47.425L47.64375 44.503124L50.346874 44.503124L47.503124 47.534374L50.55 52.8L48.175 52.8L46.096874 49.065624L45.065624 50.14375L45.065624 52.8L42.878124 52.8ZM51.175 50.425L53.378124 50.096874Q53.51875 50.7375 53.940624 51.065624Q54.378124 51.39375 55.159374 51.39375Q56.003124 51.39375 56.440624 51.08125Q56.721874 50.8625 56.721874 50.503124Q56.721874 50.253124 56.565624 50.08125Q56.409374 49.925 55.83125 49.8Q53.175 49.20625 52.471874 48.721874Q51.4875 48.05 51.4875 46.8625Q51.4875 45.784374 52.33125 45.05Q53.190624 44.315624 54.971874 44.315624Q56.675 44.315624 57.503124 44.878124Q58.33125 45.425 58.64375 46.503124L56.58125 46.89375Q56.440624 46.409374 56.065624 46.159374Q55.70625 45.89375 55.01875 45.89375Q54.14375 45.89375 53.76875 46.128124Q53.51875 46.3 53.51875 46.58125Q53.51875 46.815624 53.7375 46.971874Q54.034374 47.190624 55.784374 47.596874Q57.55 47.9875 58.2375 48.565624Q58.925 49.159374 58.925 50.20625Q58.925 51.346874 57.971874 52.175Q57.01875 52.9875 55.159374 52.9875Q53.45625 52.9875 52.471874 52.3Q51.4875 51.6125 51.175 50.425ZM65.675 49.846874L63.675 49.846874Q63.675 49.409374 63.675 49.315624Q63.675 48.346874 63.9875 47.721874Q64.31563 47.096874 65.26875 46.315624Q66.2375 45.534374 66.425 45.3Q66.70625 44.909374 66.70625 44.45625Q66.70625 43.815624 66.19063 43.3625Q65.69063 42.89375 64.81563 42.89375Q63.9875 42.89375 63.425 43.378124Q62.8625 43.846874 62.64375 44.83125L60.628124 44.58125Q60.721874 43.175 61.815624 42.20625Q62.925 41.221874 64.72188 41.221874Q66.6125 41.221874 67.72188 42.221874Q68.84688 43.20625 68.84688 44.51875Q68.84688 45.2375 68.44063 45.89375Q68.03438 46.534374 66.69063 47.659374Q65.9875 48.2375 65.81563 48.596874Q65.65938 48.940624 65.675 49.846874ZM63.675 52.8L63.675 50.596874L65.87813 50.596874L65.87813 52.8L63.675 52.8Z" fill-rule="nonzero"/></svg>