<svg version="1.1" viewBox="0.0 0.0 612.0 376.0" fill="none" stroke="none" stroke-linecap="square" stroke-miterlimit="10" width="612" height="376" xmlns:xlink="http://www.w3.org/1999/xlink" xmlns="http://www.w3.org/2000/svg"><path fill="#ffffff" d="M0 0L612.0 0L612.0 376.0L0 376.0L0 0Z" fill-rule="nonzero"/><path stroke="#333333" stroke-width="1.0" stroke-linecap="butt" d="M73.5 337.5L593.5 337.5" fill-rule="nonzero"/><path stroke="#cccccc" stroke-width="1.0" stroke-linecap="butt" d="M73.5 273.5L593.5 273.5" fill-rule="nonzero"/><path stroke="#cccccc" stroke-width="1.0" stroke-linecap="butt" d="M73.5 210.5L593.5 210.5" fill-rule="nonzero"/><path stroke="#cccccc" stroke-width="1.0" stroke-linecap="butt" d="M73.5 147.5L593.5 147.5" fill-rule="nonzero"/><path stroke="#cccccc" stroke-width="1.0" stroke-linecap="butt" d="M73.5 83.5L593.5 83.5" fill-rule="nonzero"/><path stroke="#000000" stroke-width="1.0" stroke-linecap="butt" d="M73.5 337.5L73.5 83.5" fill-rule="nonzero"/><clipPath id="id_0"><path d="M73.8 83.86667L593.2 83.86667L593.2 337.2L73.8 337.2L73.8 83.86667Z" clip-rule="nonzero"/></clipPath><path stroke="#000000" stroke-width="2.0" stroke-linecap="butt" stroke-opacity="0.0" clip-path="url(#id_0)" d="M153.0 337.0L116.0 337.0L116.0 86.0C116.0 84.89543 116.89543 84.0 118.0 84.0L151.0 84.0C152.10457 84.0 153.0 84.89543 153.0 86.0Z" fill-rule="nonzero"/><path fill="#f9cb9c" clip-path="url(#id_0)" d="M153.0 337.0L116.0 337.0L116.0 86.0C116.0 84.89543 116.89543 84.0 118.0 84.0L151.0 84.0C152.10457 84.0 153.0 84.89543 153.0 86.0Z" fill-rule="nonzero"/><path stroke="#000000" stroke-width="2.0" stroke-linecap="butt" stroke-opacity="0.0" clip-path="url(#id_0)" d="M273.0 337.0L236.0 337.0L236.0 337.0L273.0 337.0Z" fill-rule="nonzero"/><path fill="#f9cb9c" clip-path="url(#id_0)" d="M273.0 337.0L236.0 337.0L236.0 337.0L273.0 337.0Z" fill-rule="nonzero"/><path stroke="#000000" stroke-width="2.0" stroke-linecap="butt" stroke-opacity="0.0" clip-path="url(#id_0)" d="M392.0 337.0L355.0 337.0L355.0 337.0L392.0 337.0Z" fill-rule="nonzero"/><path fill="#f9cb9c" clip-path="url(#id_0)" d="M392.0 337.0L355.0 337.0L355.0 337.0L392.0 337.0Z" fill-rule="nonzero"/><path stroke="#000000" stroke-width="2.0" stroke-linecap="butt" stroke-opacity="0.0" clip-path="url(#id_0)" d="M512.0 337.0L475.0 337.0L475.0 337.0L512.0 337.0Z" fill-rule="nonzero"/><path fill="#f9cb9c" clip-path="url(#id_0)" d="M512.0 337.0L475.0 337.0L475.0 337.0L512.0 337.0Z" fill-rule="nonzero"/><path stroke="#000000" stroke-width="2.0" stroke-linecap="butt" stroke-opacity="0.0" clip-path="url(#id_0)" d="M192.0 337.0L155.0 337.0L155.0 112.0C155.0 110.89543 155.89543 110.0 157.0 110.0L190.0 110.0C191.10457 110.0 192.0 110.89543 192.0 112.0Z" fill-rule="nonzero"/><path fill="#a4c2f4" clip-path="url(#id_0)" d="M192.0 337.0L155.0 337.0L155.0 112.0C155.0 110.89543 155.89543 110.0 157.0 110.0L190.0 110.0C191.10457 110.0 192.0 110.89543 192.0 112.0Z" fill-rule="nonzero"/><path stroke="#000000" stroke-width="2.0" stroke-linecap="butt" stroke-opacity="0.0" clip-path="url(#id_0)" d="M312.0 337.0L275.0 337.0L275.0 313.0C275.0 311.89542 275.89542 311.0 277.0 311.0L310.0 311.0C311.10458 311.0 312.0 311.89542 312.0 313.0Z" fill-rule="nonzero"/><path fill="#a4c2f4" clip-path="url(#id_0)" d="M312.0 337.0L275.0 337.0L275.0 313.0C275.0 311.89542 275.89542 311.0 277.0 311.0L310.0 311.0C311.10458 311.0 312.0 311.89542 312.0 313.0Z" fill-rule="nonzero"/><path stroke="#000000" stroke-width="2.0" stroke-linecap="butt" stroke-opacity="0.0" clip-path="url(#id_0)" d="M431.0 337.0L394.0 337.0L394.0 337.0L431.0 337.0Z" fill-rule="nonzero"/><path fill="#a4c2f4" clip-path="url(#id_0)" d="M431.0 337.0L394.0 337.0L394.0 337.0L431.0 337.0Z" fill-rule="nonzero"/><path stroke="#000000" stroke-width="2.0" stroke-linecap="butt" stroke-opacity="0.0" clip-path="url(#id_0)" d="M551.0 337.0L514.0 337.0L514.0 337.0L551.0 337.0Z" fill-rule="nonzero"/><path fill="#a4c2f4" clip-path="url(#id_0)" d="M551.0 337.0L514.0 337.0L514.0 337.0L551.0 337.0Z" fill-rule="nonzero"/><path fill="#000000" d="M33.3 336.96564Q33.3 335.4344 33.6125 334.5125Q33.925 333.575 34.534374 333.075Q35.159374 332.575 36.096874 332.575Q36.784374 332.575 37.3 332.85626Q37.83125 333.1375 38.175 333.66876Q38.51875 334.1844 38.70625 334.9344Q38.89375 335.6844 38.89375 336.96564Q38.89375 338.48126 38.58125 339.40314Q38.284374 340.325 37.659374 340.84064Q37.05 341.34064 36.096874 341.34064Q34.8625 341.34064 34.14375 340.45Q33.3 339.3875 33.3 336.96564ZM34.378124 336.96564Q34.378124 339.075 34.878124 339.77814Q35.378124 340.48126 36.096874 340.48126Q36.83125 340.48126 37.315624 339.77814Q37.815624 339.075 37.815624 336.96564Q37.815624 334.84064 37.315624 334.15314Q36.83125 333.45 36.08125 333.45Q35.3625 333.45 34.925 334.0594Q34.378124 334.84064 34.378124 336.96564ZM40.89375 341.2L40.89375 339.9969L42.096874 339.9969L42.096874 341.2L40.89375 341.2ZM43.3 336.96564Q43.3 335.4344 43.6125 334.5125Q43.925 333.575 44.534374 333.075Q45.159374 332.575 46.096874 332.575Q46.784374 332.575 47.3 332.85626Q47.83125 333.1375 48.175 333.66876Q48.51875 334.1844 48.70625 334.9344Q48.89375 335.6844 48.89375 336.96564Q48.89375 338.48126 48.58125 339.40314Q48.284374 340.325 47.659374 340.84064Q47.05 341.34064 46.096874 341.34064Q44.8625 341.34064 44.14375 340.45Q43.3 339.3875 43.3 336.96564ZM44.378124 336.96564Q44.378124 339.075 44.878124 339.77814Q45.378124 340.48126 46.096874 340.48126Q46.83125 340.48126 47.315624 339.77814Q47.815624 339.075 47.815624 336.96564Q47.815624 334.84064 47.315624 334.15314Q46.83125 333.45 46.08125 333.45Q45.3625 333.45 44.925 334.0594Q44.378124 334.84064 44.378124 336.96564ZM50.3 336.96564Q50.3 335.4344 50.6125 334.5125Q50.925 333.575 51.534374 333.075Q52.159374 332.575 53.096874 332.575Q53.784374 332.575 54.3 332.85626Q54.83125 333.1375 55.175 333.66876Q55.51875 334.1844 55.70625 334.9344Q55.89375 335.6844 55.89375 336.96564Q55.89375 338.48126 55.58125 339.40314Q55.284374 340.325 54.659374 340.84064Q54.05 341.34064 53.096874 341.34064Q51.8625 341.34064 51.14375 340.45Q50.3 339.3875 50.3 336.96564ZM51.378124 336.96564Q51.378124 339.075 51.878124 339.77814Q52.378124 340.48126 53.096874 340.48126Q53.83125 340.48126 54.315624 339.77814Q54.815624 339.075 54.815624 336.96564Q54.815624 334.84064 54.315624 334.15314Q53.83125 333.45 53.08125 333.45Q52.3625 333.45 51.925 334.0594Q51.378124 334.84064 51.378124 336.96564ZM57.503124 334.66876Q57.503124 333.7469 57.95625 333.10626Q58.425 332.46564 59.3 332.46564Q60.1125 332.46564 60.64375 333.04376Q61.175 333.6219 61.175 334.73126Q61.175 335.825 60.628124 336.41876Q60.096874 336.9969 59.315624 336.9969Q58.534374 336.9969 58.01875 336.41876Q57.503124 335.84064 57.503124 334.66876ZM59.33125 333.1844Q58.940624 333.1844 58.675 333.52814Q58.425 333.8719 58.425 334.77814Q58.425 335.60626 58.675 335.95Q58.940624 336.27814 59.33125 336.27814Q59.7375 336.27814 59.9875 335.9344Q60.253124 335.59064 60.253124 334.7Q60.253124 333.85626 59.9875 333.52814Q59.721874 333.1844 59.33125 333.1844ZM59.33125 341.5125L64.03438 332.46564L64.89375 332.46564L60.20625 341.5125L59.33125 341.5125ZM63.05 339.1844Q63.05 338.2625 63.503124 337.6219Q63.971874 336.98126 64.8625 336.98126Q65.675 336.98126 66.20625 337.5594Q66.7375 338.1219 66.7375 339.2469Q66.7375 340.34064 66.19063 340.9344Q65.65938 341.5125 64.8625 341.5125Q64.09688 341.5125 63.565624 340.9344Q63.05 340.35626 63.05 339.1844ZM64.89375 337.7Q64.4875 337.7 64.22188 338.04376Q63.971874 338.3875 63.971874 339.29376Q63.971874 340.10626 64.2375 340.45Q64.50313 340.79376 64.89375 340.79376Q65.28438 340.79376 65.55 340.45Q65.81563 340.10626 65.81563 339.2Q65.81563 338.3719 65.55 338.04376Q65.28438 337.7 64.89375 337.7Z" fill-rule="nonzero"/><path fill="#000000" d="M31.846874 276.85104L31.846874 277.86667L26.159374 277.86667Q26.159374 277.49167 26.284374 277.1323Q26.503124 276.55417 26.971874 275.99167Q27.45625 275.42917 28.3625 274.6948Q29.76875 273.53854 30.253124 272.86667Q30.753124 272.1948 30.753124 271.60104Q30.753124 270.97604 30.3 270.55417Q29.846874 270.11667 29.128124 270.11667Q28.3625 270.11667 27.909374 270.5698Q27.45625 271.02292 27.440624 271.83542L26.3625 271.72604Q26.471874 270.5073 27.190624 269.8823Q27.925 269.24167 29.159374 269.24167Q30.39375 269.24167 31.1125 269.92917Q31.83125 270.61667 31.83125 271.6323Q31.83125 272.14792 31.6125 272.64792Q31.409374 273.1323 30.909374 273.6948Q30.425 274.24167 29.3 275.1948Q28.346874 275.99167 28.065624 276.28854Q27.8 276.5698 27.628124 276.85104L31.846874 276.85104ZM33.3 275.61667L34.409374 275.52292Q34.534374 276.33542 34.971874 276.74167Q35.425 277.14792 36.065624 277.14792Q36.815624 277.14792 37.346874 276.5698Q37.878124 275.99167 37.878124 275.05417Q37.878124 274.14792 37.3625 273.6323Q36.8625 273.10104 36.034374 273.10104Q35.534374 273.10104 35.1125 273.33542Q34.70625 273.5698 34.471874 273.92917L33.4875 273.80417L34.315624 269.39792L38.596874 269.39792L38.596874 270.39792L35.159374 270.39792L34.70625 272.71042Q35.471874 272.16354 36.315624 272.16354Q37.440624 272.16354 38.20625 272.9448Q38.9875 273.72604 38.9875 274.96042Q38.9875 276.11667 38.315624 276.97604Q37.4875 278.0073 36.065624 278.0073Q34.89375 278.0073 34.14375 277.35104Q33.409374 276.6948 33.3 275.61667ZM40.89375 277.86667L40.89375 276.66354L42.096874 276.66354L42.096874 277.86667L40.89375 277.86667ZM43.3 273.6323Q43.3 272.10104 43.6125 271.17917Q43.925 270.24167 44.534374 269.74167Q45.159374 269.24167 46.096874 269.24167Q46.784374 269.24167 47.3 269.52292Q47.83125 269.80417 48.175 270.33542Q48.51875 270.85104 48.70625 271.60104Q48.89375 272.35104 48.89375 273.6323Q48.89375 275.14792 48.58125 276.0698Q48.284374 276.99167 47.659374 277.5073Q47.05 278.0073 46.096874 278.0073Q44.8625 278.0073 44.14375 277.11667Q43.3 276.05417 43.3 273.6323ZM44.378124 273.6323Q44.378124 275.74167 44.878124 276.4448Q45.378124 277.14792 46.096874 277.14792Q46.83125 277.14792 47.315624 276.4448Q47.815624 275.74167 47.815624 273.6323Q47.815624 271.5073 47.315624 270.8198Q46.83125 270.11667 46.08125 270.11667Q45.3625 270.11667 44.925 270.72604Q44.378124 271.5073 44.378124 273.6323ZM50.3 273.6323Q50.3 272.10104 50.6125 271.17917Q50.925 270.24167 51.534374 269.74167Q52.159374 269.24167 53.096874 269.24167Q53.784374 269.24167 54.3 269.52292Q54.83125 269.80417 55.175 270.33542Q55.51875 270.85104 55.70625 271.60104Q55.89375 272.35104 55.89375 273.6323Q55.89375 275.14792 55.58125 276.0698Q55.284374 276.99167 54.659374 277.5073Q54.05 278.0073 53.096874 278.0073Q51.8625 278.0073 51.14375 277.11667Q50.3 276.05417 50.3 273.6323ZM51.378124 273.6323Q51.378124 275.74167 51.878124 276.4448Q52.378124 277.14792 53.096874 277.14792Q53.83125 277.14792 54.315624 276.4448Q54.815624 275.74167 54.815624 273.6323Q54.815624 271.5073 54.315624 270.8198Q53.83125 270.11667 53.08125 270.11667Q52.3625 270.11667 51.925 270.72604Q51.378124 271.5073 51.378124 273.6323ZM57.503124 271.33542Q57.503124 270.41354 57.95625 269.77292Q58.425 269.1323 59.3 269.1323Q60.1125 269.1323 60.64375 269.71042Q61.175 270.28854 61.175 271.39792Q61.175 272.49167 60.628124 273.08542Q60.096874 273.66354 59.315624 273.66354Q58.534374 273.66354 58.01875 273.08542Q57.503124 272.5073 57.503124 271.33542ZM59.33125 269.85104Q58.940624 269.85104 58.675 270.1948Q58.425 270.53854 58.425 271.4448Q58.425 272.27292 58.675 272.61667Q58.940624 272.9448 59.33125 272.9448Q59.7375 272.9448 59.9875 272.60104Q60.253124 272.2573 60.253124 271.36667Q60.253124 270.52292 59.9875 270.1948Q59.721874 269.85104 59.33125 269.85104ZM59.33125 278.17917L64.03438 269.1323L64.89375 269.1323L60.20625 278.17917L59.33125 278.17917ZM63.05 275.85104Q63.05 274.92917 63.503124 274.28854Q63.971874 273.64792 64.8625 273.64792Q65.675 273.64792 66.20625 274.22604Q66.7375 274.78854 66.7375 275.91354Q66.7375 277.0073 66.19063 277.60104Q65.65938 278.17917 64.8625 278.17917Q64.09688 278.17917 63.565624 277.60104Q63.05 277.02292 63.05 275.85104ZM64.89375 274.36667Q64.4875 274.36667 64.22188 274.71042Q63.971874 275.05417 63.971874 275.96042Q63.971874 276.77292 64.2375 277.11667Q64.50313 277.46042 64.89375 277.46042Q65.28438 277.46042 65.55 277.11667Q65.81563 276.77292 65.81563 275.86667Q65.81563 275.03854 65.55 274.71042Q65.28438 274.36667 64.89375 274.36667Z" fill-rule="nonzero"/><path fill="#000000" d="M26.3 212.28334L27.409374 212.18959Q27.534374 213.00209 27.971874 213.40834Q28.425 213.81459 29.065624 213.81459Q29.815624 213.81459 30.346874 213.23647Q30.878124 212.65834 30.878124 211.72084Q30.878124 210.81459 30.3625 210.29897Q29.8625 209.76772 29.034374 209.76772Q28.534374 209.76772 28.1125 210.00209Q27.70625 210.23647 27.471874 210.59584L26.4875 210.47084L27.315624 206.06459L31.596874 206.06459L31.596874 207.06459L28.159374 207.06459L27.70625 209.37709Q28.471874 208.83022 29.315624 208.83022Q30.440624 208.83022 31.20625 209.61147Q31.9875 210.39272 31.9875 211.62709Q31.9875 212.78334 31.315624 213.64272Q30.4875 214.67397 29.065624 214.67397Q27.89375 214.67397 27.14375 214.01772Q26.409374 213.36147 26.3 212.28334ZM33.3 210.29897Q33.3 208.76772 33.6125 207.84584Q33.925 206.90834 34.534374 206.40834Q35.159374 205.90834 36.096874 205.90834Q36.784374 205.90834 37.3 206.18959Q37.83125 206.47084 38.175 207.00209Q38.51875 207.51772 38.70625 208.26772Q38.89375 209.01772 38.89375 210.29897Q38.89375 211.81459 38.58125 212.73647Q38.284374 213.65834 37.659374 214.17397Q37.05 214.67397 36.096874 214.67397Q34.8625 214.67397 34.14375 213.78334Q33.3 212.72084 33.3 210.29897ZM34.378124 210.29897Q34.378124 212.40834 34.878124 213.11147Q35.378124 213.81459 36.096874 213.81459Q36.83125 213.81459 37.315624 213.11147Q37.815624 212.40834 37.815624 210.29897Q37.815624 208.17397 37.315624 207.48647Q36.83125 206.78334 36.08125 206.78334Q35.3625 206.78334 34.925 207.39272Q34.378124 208.17397 34.378124 210.29897ZM40.89375 214.53334L40.89375 213.33022L42.096874 213.33022L42.096874 214.53334L40.89375 214.53334ZM43.3 210.29897Q43.3 208.76772 43.6125 207.84584Q43.925 206.90834 44.534374 206.40834Q45.159374 205.90834 46.096874 205.90834Q46.784374 205.90834 47.3 206.18959Q47.83125 206.47084 48.175 207.00209Q48.51875 207.51772 48.70625 208.26772Q48.89375 209.01772 48.89375 210.29897Q48.89375 211.81459 48.58125 212.73647Q48.284374 213.65834 47.659374 214.17397Q47.05 214.67397 46.096874 214.67397Q44.8625 214.67397 44.14375 213.78334Q43.3 212.72084 43.3 210.29897ZM44.378124 210.29897Q44.378124 212.40834 44.878124 213.11147Q45.378124 213.81459 46.096874 213.81459Q46.83125 213.81459 47.315624 213.11147Q47.815624 212.40834 47.815624 210.29897Q47.815624 208.17397 47.315624 207.48647Q46.83125 206.78334 46.08125 206.78334Q45.3625 206.78334 44.925 207.39272Q44.378124 208.17397 44.378124 210.29897ZM50.3 210.29897Q50.3 208.76772 50.6125 207.84584Q50.925 206.90834 51.534374 206.40834Q52.159374 205.90834 53.096874 205.90834Q53.784374 205.90834 54.3 206.18959Q54.83125 206.47084 55.175 207.00209Q55.51875 207.51772 55.70625 208.26772Q55.89375 209.01772 55.89375 210.29897Q55.89375 211.81459 55.58125 212.73647Q55.284374 213.65834 54.659374 214.17397Q54.05 214.67397 53.096874 214.67397Q51.8625 214.67397 51.14375 213.78334Q50.3 212.72084 50.3 210.29897ZM51.378124 210.29897Q51.378124 212.40834 51.878124 213.11147Q52.378124 213.81459 53.096874 213.81459Q53.83125 213.81459 54.315624 213.11147Q54.815624 212.40834 54.815624 210.29897Q54.815624 208.17397 54.315624 207.48647Q53.83125 206.78334 53.08125 206.78334Q52.3625 206.78334 51.925 207.39272Q51.378124 208.17397 51.378124 210.29897ZM57.503124 208.00209Q57.503124 207.08022 57.95625 206.43959Q58.425 205.79897 59.3 205.79897Q60.1125 205.79897 60.64375 206.37709Q61.175 206.95522 61.175 208.06459Q61.175 209.15834 60.628124 209.75209Q60.096874 210.33022 59.315624 210.33022Q58.534374 210.33022 58.01875 209.75209Q57.503124 209.17397 57.503124 208.00209ZM59.33125 206.51772Q58.940624 206.51772 58.675 206.86147Q58.425 207.20522 58.425 208.11147Q58.425 208.93959 58.675 209.28334Q58.940624 209.61147 59.33125 209.61147Q59.7375 209.61147 59.9875 209.26772Q60.253124 208.92397 60.253124 208.03334Q60.253124 207.18959 59.9875 206.86147Q59.721874 206.51772 59.33125 206.51772ZM59.33125 214.84584L64.03438 205.79897L64.89375 205.79897L60.20625 214.84584L59.33125 214.84584ZM63.05 212.51772Q63.05 211.59584 63.503124 210.95522Q63.971874 210.31459 64.8625 210.31459Q65.675 210.31459 66.20625 210.89272Q66.7375 211.45522 66.7375 212.58022Q66.7375 213.67397 66.19063 214.26772Q65.65938 214.84584 64.8625 214.84584Q64.09688 214.84584 63.565624 214.26772Q63.05 213.68959 63.05 212.51772ZM64.89375 211.03334Q64.4875 211.03334 64.22188 211.37709Q63.971874 211.72084 63.971874 212.62709Q63.971874 213.43959 64.2375 213.78334Q64.50313 214.12709 64.89375 214.12709Q65.28438 214.12709 65.55 213.78334Q65.81563 213.43959 65.81563 212.53334Q65.81563 211.70522 65.55 211.37709Q65.28438 211.03334 64.89375 211.03334Z" fill-rule="nonzero"/><path fill="#000000" d="M26.3625 143.73125L26.3625 142.71562L31.925 142.71562L31.925 143.54375Q31.1125 144.41875 30.3 145.87187Q29.503124 147.30937 29.065624 148.84062Q28.7375 149.91875 28.659374 151.2L27.565624 151.2Q27.58125 150.18437 27.95625 148.74687Q28.346874 147.30937 29.05 145.98125Q29.76875 144.65312 30.58125 143.73125L26.3625 143.73125ZM33.3 148.95L34.409374 148.85625Q34.534374 149.66875 34.971874 150.075Q35.425 150.48125 36.065624 150.48125Q36.815624 150.48125 37.346874 149.90312Q37.878124 149.325 37.878124 148.3875Q37.878124 147.48125 37.3625 146.96562Q36.8625 146.43437 36.034374 146.43437Q35.534374 146.43437 35.1125 146.66875Q34.70625 146.90312 34.471874 147.2625L33.4875 147.1375L34.315624 142.73125L38.596874 142.73125L38.596874 143.73125L35.159374 143.73125L34.70625 146.04375Q35.471874 145.49687 36.315624 145.49687Q37.440624 145.49687 38.20625 146.27812Q38.9875 147.05937 38.9875 148.29375Q38.9875 149.45 38.315624 150.30937Q37.4875 151.34062 36.065624 151.34062Q34.89375 151.34062 34.14375 150.68437Q33.409374 150.02812 33.3 148.95ZM40.89375 151.2L40.89375 149.99687L42.096874 149.99687L42.096874 151.2L40.89375 151.2ZM43.3 146.96562Q43.3 145.43437 43.6125 144.5125Q43.925 143.575 44.534374 143.075Q45.159374 142.575 46.096874 142.575Q46.784374 142.575 47.3 142.85625Q47.83125 143.1375 48.175 143.66875Q48.51875 144.18437 48.70625 144.93437Q48.89375 145.68437 48.89375 146.96562Q48.89375 148.48125 48.58125 149.40312Q48.284374 150.325 47.659374 150.84062Q47.05 151.34062 46.096874 151.34062Q44.8625 151.34062 44.14375 150.45Q43.3 149.3875 43.3 146.96562ZM44.378124 146.96562Q44.378124 149.075 44.878124 149.77812Q45.378124 150.48125 46.096874 150.48125Q46.83125 150.48125 47.315624 149.77812Q47.815624 149.075 47.815624 146.96562Q47.815624 144.84062 47.315624 144.15312Q46.83125 143.45 46.08125 143.45Q45.3625 143.45 44.925 144.05937Q44.378124 144.84062 44.378124 146.96562ZM50.3 146.96562Q50.3 145.43437 50.6125 144.5125Q50.925 143.575 51.534374 143.075Q52.159374 142.575 53.096874 142.575Q53.784374 142.575 54.3 142.85625Q54.83125 143.1375 55.175 143.66875Q55.51875 144.18437 55.70625 144.93437Q55.89375 145.68437 55.89375 146.96562Q55.89375 148.48125 55.58125 149.40312Q55.284374 150.325 54.659374 150.84062Q54.05 151.34062 53.096874 151.34062Q51.8625 151.34062 51.14375 150.45Q50.3 149.3875 50.3 146.96562ZM51.378124 146.96562Q51.378124 149.075 51.878124 149.77812Q52.378124 150.48125 53.096874 150.48125Q53.83125 150.48125 54.315624 149.77812Q54.815624 149.075 54.815624 146.96562Q54.815624 144.84062 54.315624 144.15312Q53.83125 143.45 53.08125 143.45Q52.3625 143.45 51.925 144.05937Q51.378124 144.84062 51.378124 146.96562ZM57.503124 144.66875Q57.503124 143.74687 57.95625 143.10625Q58.425 142.46562 59.3 142.46562Q60.1125 142.46562 60.64375 143.04375Q61.175 143.62187 61.175 144.73125Q61.175 145.825 60.628124 146.41875Q60.096874 146.99687 59.315624 146.99687Q58.534374 146.99687 58.01875 146.41875Q57.503124 145.84062 57.503124 144.66875ZM59.33125 143.18437Q58.940624 143.18437 58.675 143.52812Q58.425 143.87187 58.425 144.77812Q58.425 145.60625 58.675 145.95Q58.940624 146.27812 59.33125 146.27812Q59.7375 146.27812 59.9875 145.93437Q60.253124 145.59062 60.253124 144.7Q60.253124 143.85625 59.9875 143.52812Q59.721874 143.18437 59.33125 143.18437ZM59.33125 151.5125L64.03438 142.46562L64.89375 142.46562L60.20625 151.5125L59.33125 151.5125ZM63.05 149.18437Q63.05 148.2625 63.503124 147.62187Q63.971874 146.98125 64.8625 146.98125Q65.675 146.98125 66.20625 147.55937Q66.7375 148.12187 66.7375 149.24687Q66.7375 150.34062 66.19063 150.93437Q65.65938 151.5125 64.8625 151.5125Q64.09688 151.5125 63.565624 150.93437Q63.05 150.35625 63.05 149.18437ZM64.89375 147.7Q64.4875 147.7 64.22188 148.04375Q63.971874 148.3875 63.971874 149.29375Q63.971874 150.10625 64.2375 150.45Q64.50313 150.79375 64.89375 150.79375Q65.28438 150.79375 65.55 150.45Q65.81563 150.10625 65.81563 149.2Q65.81563 148.37187 65.55 148.04375Q65.28438 147.7 64.89375 147.7Z" fill-rule="nonzero"/><path fill="#000000" d="M23.26875 87.86667L22.221874 87.86667L22.221874 81.14792Q21.83125 81.50729 21.20625 81.88229Q20.596874 82.24167 20.1125 82.41354L20.1125 81.39792Q20.9875 80.97604 21.64375 80.39792Q22.315624 79.80417 22.596874 79.24167L23.26875 79.24167L23.26875 87.86667ZM26.3 83.63229Q26.3 82.10104 26.6125 81.17917Q26.925 80.24167 27.534374 79.74167Q28.159374 79.24167 29.096874 79.24167Q29.784374 79.24167 30.3 79.52292Q30.83125 79.80417 31.175 80.33542Q31.51875 80.85104 31.70625 81.60104Q31.89375 82.35104 31.89375 83.63229Q31.89375 85.14792 31.58125 86.06979Q31.284374 86.99167 30.659374 87.50729Q30.05 88.00729 29.096874 88.00729Q27.8625 88.00729 27.14375 87.11667Q26.3 86.05417 26.3 83.63229ZM27.378124 83.63229Q27.378124 85.74167 27.878124 86.44479Q28.378124 87.14792 29.096874 87.14792Q29.83125 87.14792 30.315624 86.44479Q30.815624 85.74167 30.815624 83.63229Q30.815624 81.50729 30.315624 80.81979Q29.83125 80.11667 29.08125 80.11667Q28.3625 80.11667 27.925 80.72604Q27.378124 81.50729 27.378124 83.63229ZM33.3 83.63229Q33.3 82.10104 33.6125 81.17917Q33.925 80.24167 34.534374 79.74167Q35.159374 79.24167 36.096874 79.24167Q36.784374 79.24167 37.3 79.52292Q37.83125 79.80417 38.175 80.33542Q38.51875 80.85104 38.70625 81.60104Q38.89375 82.35104 38.89375 83.63229Q38.89375 85.14792 38.58125 86.06979Q38.284374 86.99167 37.659374 87.50729Q37.05 88.00729 36.096874 88.00729Q34.8625 88.00729 34.14375 87.11667Q33.3 86.05417 33.3 83.63229ZM34.378124 83.63229Q34.378124 85.74167 34.878124 86.44479Q35.378124 87.14792 36.096874 87.14792Q36.83125 87.14792 37.315624 86.44479Q37.815624 85.74167 37.815624 83.63229Q37.815624 81.50729 37.315624 80.81979Q36.83125 80.11667 36.08125 80.11667Q35.3625 80.11667 34.925 80.72604Q34.378124 81.50729 34.378124 83.63229ZM40.89375 87.86667L40.89375 86.66354L42.096874 86.66354L42.096874 87.86667L40.89375 87.86667ZM43.3 83.63229Q43.3 82.10104 43.6125 81.17917Q43.925 80.24167 44.534374 79.74167Q45.159374 79.24167 46.096874 79.24167Q46.784374 79.24167 47.3 79.52292Q47.83125 79.80417 48.175 80.33542Q48.51875 80.85104 48.70625 81.60104Q48.89375 82.35104 48.89375 83.63229Q48.89375 85.14792 48.58125 86.06979Q48.284374 86.99167 47.659374 87.50729Q47.05 88.00729 46.096874 88.00729Q44.8625 88.00729 44.14375 87.11667Q43.3 86.05417 43.3 83.63229ZM44.378124 83.63229Q44.378124 85.74167 44.878124 86.44479Q45.378124 87.14792 46.096874 87.14792Q46.83125 87.14792 47.315624 86.44479Q47.815624 85.74167 47.815624 83.63229Q47.815624 81.50729 47.315624 80.81979Q46.83125 80.11667 46.08125 80.11667Q45.3625 80.11667 44.925 80.72604Q44.378124 81.50729 44.378124 83.63229ZM50.3 83.63229Q50.3 82.10104 50.6125 81.17917Q50.925 80.24167 51.534374 79.74167Q52.159374 79.24167 53.096874 79.24167Q53.784374 79.24167 54.3 79.52292Q54.83125 79.80417 55.175 80.33542Q55.51875 80.85104 55.70625 81.60104Q55.89375 82.35104 55.89375 83.63229Q55.89375 85.14792 55.58125 86.06979Q55.284374 86.99167 54.659374 87.50729Q54.05 88.00729 53.096874 88.00729Q51.8625 88.00729 51.14375 87.11667Q50.3 86.05417 50.3 83.63229ZM51.378124 83.63229Q51.378124 85.74167 51.878124 86.44479Q52.378124 87.14792 53.096874 87.14792Q53.83125 87.14792 54.315624 86.44479Q54.815624 85.74167 54.815624 83.63229Q54.815624 81.50729 54.315624 80.81979Q53.83125 80.11667 53.08125 80.11667Q52.3625 80.11667 51.925 80.72604Q51.378124 81.50729 51.378124 83.63229ZM57.503124 81.33542Q57.503124 80.41354 57.95625 79.77292Q58.425 79.13229 59.3 79.13229Q60.1125 79.13229 60.64375 79.71042Q61.175 80.28854 61.175 81.39792Q61.175 82.49167 60.628124 83.08542Q60.096874 83.66354 59.315624 83.66354Q58.534374 83.66354 58.01875 83.08542Q57.503124 82.50729 57.503124 81.33542ZM59.33125 79.85104Q58.940624 79.85104 58.675 80.19479Q58.425 80.53854 58.425 81.44479Q58.425 82.27292 58.675 82.61667Q58.940624 82.94479 59.33125 82.94479Q59.7375 82.94479 59.9875 82.60104Q60.253124 82.25729 60.253124 81.36667Q60.253124 80.52292 59.9875 80.19479Q59.721874 79.85104 59.33125 79.85104ZM59.33125 88.17917L64.03438 79.13229L64.89375 79.13229L60.20625 88.17917L59.33125 88.17917ZM63.05 85.85104Q63.05 84.92917 63.503124 84.28854Q63.971874 83.64792 64.8625 83.64792Q65.675 83.64792 66.20625 84.22604Q66.7375 84.78854 66.7375 85.91354Q66.7375 87.00729 66.19063 87.60104Q65.65938 88.17917 64.8625 88.17917Q64.09688 88.17917 63.565624 87.60104Q63.05 87.02292 63.05 85.85104ZM64.89375 84.36667Q64.4875 84.36667 64.22188 84.71042Q63.971874 85.05417 63.971874 85.96042Q63.971874 86.77292 64.2375 87.11667Q64.50313 87.46042 64.89375 87.46042Q65.28438 87.46042 65.55 87.11667Q65.81563 86.77292 65.81563 85.86667Q65.81563 85.03854 65.55 84.71042Q65.28438 84.36667 64.89375 84.36667Z" fill-rule="nonzero"/><path fill="#000000" d="M114.77155 354.2L114.77155 345.60626L115.91218 345.60626L115.91218 353.1844L120.14655 353.1844L120.14655 354.2L114.77155 354.2ZM125.94343 352.2L127.03718 352.325Q126.78718 353.27814 126.08405 353.8094Q125.38093 354.34064 124.3028 354.34064Q122.94343 354.34064 122.13093 353.4969Q121.33405 352.65314 121.33405 351.1375Q121.33405 349.575 122.14655 348.71564Q122.95905 347.84064 124.2403 347.84064Q125.4903 347.84064 126.27155 348.6844Q127.06843 349.52814 127.06843 351.075Q127.06843 351.16876 127.06843 351.35626L122.4278 351.35626Q122.4903 352.3875 123.00593 352.9344Q123.52155 353.46564 124.3028 353.46564Q124.88093 353.46564 125.28718 353.16876Q125.70905 352.85626 125.94343 352.2ZM122.4903 350.4969L125.95905 350.4969Q125.89655 349.7 125.56843 349.3094Q125.0528 348.7 124.25593 348.7Q123.52155 348.7 123.02155 349.1844Q122.53718 349.66876 122.4903 350.4969ZM128.27155 352.34064L129.3028 352.1844Q129.39655 352.8094 129.78717 353.1375Q130.19342 353.46564 130.9278 353.46564Q131.64655 353.46564 131.9903 353.1844Q132.34967 352.8875 132.34967 352.48126Q132.34967 352.1219 132.03717 351.91876Q131.81842 351.77814 130.95905 351.5594Q129.8028 351.2625 129.34967 351.0594Q128.91217 350.84064 128.6778 350.46564Q128.44342 350.09064 128.44342 349.6219Q128.44342 349.21564 128.63092 348.85626Q128.81842 348.4969 129.14655 348.2625Q129.39655 348.09064 129.81842 347.96564Q130.2403 347.84064 130.7403 347.84064Q131.45905 347.84064 132.00592 348.0594Q132.56842 348.2625 132.83405 348.6219Q133.09967 348.98126 133.19342 349.575L132.16217 349.71564Q132.09967 349.2469 131.75592 348.98126Q131.4278 348.7 130.8028 348.7Q130.08405 348.7 129.77155 348.95Q129.45905 349.1844 129.45905 349.5125Q129.45905 349.71564 129.58405 349.8719Q129.72467 350.04376 129.9903 350.15314Q130.14655 350.21564 130.9278 350.41876Q132.0528 350.73126 132.4903 350.91876Q132.9278 351.10626 133.1778 351.46564Q133.4278 351.825 133.4278 352.3719Q133.4278 352.90314 133.1153 353.3719Q132.81842 353.825 132.2403 354.09064Q131.66217 354.34064 130.9278 354.34064Q129.70905 354.34064 129.06842 353.84064Q128.44342 353.325 128.27155 352.34064ZM134.27155 352.34064L135.3028 352.1844Q135.39655 352.8094 135.78717 353.1375Q136.19342 353.46564 136.9278 353.46564Q137.64655 353.46564 137.9903 353.1844Q138.34967 352.8875 138.34967 352.48126Q138.34967 352.1219 138.03717 351.91876Q137.81842 351.77814 136.95905 351.5594Q135.8028 351.2625 135.34967 351.0594Q134.91217 350.84064 134.6778 350.46564Q134.44342 350.09064 134.44342 349.6219Q134.44342 349.21564 134.63092 348.85626Q134.81842 348.4969 135.14655 348.2625Q135.39655 348.09064 135.81842 347.96564Q136.2403 347.84064 136.7403 347.84064Q137.45905 347.84064 138.00592 348.0594Q138.56842 348.2625 138.83405 348.6219Q139.09967 348.98126 139.19342 349.575L138.16217 349.71564Q138.09967 349.2469 137.75592 348.98126Q137.4278 348.7 136.8028 348.7Q136.08405 348.7 135.77155 348.95Q135.45905 349.1844 135.45905 349.5125Q135.45905 349.71564 135.58405 349.8719Q135.72467 350.04376 135.9903 350.15314Q136.14655 350.21564 136.9278 350.41876Q138.0528 350.73126 138.4903 350.91876Q138.9278 351.10626 139.1778 351.46564Q139.4278 351.825 139.4278 352.3719Q139.4278 352.90314 139.1153 353.3719Q138.81842 353.825 138.2403 354.09064Q137.66217 354.34064 136.9278 354.34064Q135.70905 354.34064 135.06842 353.84064Q134.44342 353.325 134.27155 352.34064ZM145.9903 353.2625L146.14655 354.1844Q145.69342 354.27814 145.34967 354.27814Q144.77155 354.27814 144.45905 354.10626Q144.14655 353.91876 144.00592 353.6219Q143.88092 353.325 143.88092 352.3719L143.88092 348.79376L143.1153 348.79376L143.1153 347.98126L143.88092 347.98126L143.88092 346.4344L144.9278 345.8094L144.9278 347.98126L145.9903 347.98126L145.9903 348.79376L144.9278 348.79376L144.9278 352.4344Q144.9278 352.8875 144.97467 353.0125Q145.03717 353.1375 145.16217 353.21564Q145.28717 353.29376 145.52155 353.29376Q145.70905 353.29376 145.9903 353.2625ZM146.69342 354.2L146.69342 345.60626L147.7403 345.60626L147.7403 348.6844Q148.47467 347.84064 149.59967 347.84064Q150.3028 347.84064 150.8028 348.1219Q151.31842 348.3875 151.53717 348.8719Q151.75592 349.34064 151.75592 350.2625L151.75592 354.2L150.70905 354.2L150.70905 350.2625Q150.70905 349.46564 150.3653 349.10626Q150.02155 348.7469 149.39655 348.7469Q148.9278 348.7469 148.50592 348.9969Q148.09967 349.23126 147.91217 349.65314Q147.7403 350.0594 147.7403 350.79376L147.7403 354.2L146.69342 354.2ZM157.75592 353.4344Q157.16217 353.9344 156.6153 354.1375Q156.08405 354.34064 155.45905 354.34064Q154.4278 354.34064 153.88092 353.84064Q153.33405 353.34064 153.33405 352.5594Q153.33405 352.10626 153.53717 351.73126Q153.7403 351.34064 154.08405 351.1219Q154.4278 350.8875 154.84967 350.77814Q155.14655 350.6844 155.78717 350.60626Q157.0528 350.46564 157.66217 350.2469Q157.66217 350.02814 157.66217 349.98126Q157.66217 349.325 157.3653 349.0594Q156.95905 348.71564 156.16217 348.71564Q155.4278 348.71564 155.06842 348.98126Q154.70905 349.23126 154.53717 349.8875L153.50592 349.7469Q153.64655 349.09064 153.97467 348.6844Q154.3028 348.27814 154.91217 348.0594Q155.52155 347.84064 156.31842 347.84064Q157.1153 347.84064 157.6153 348.02814Q158.1153 348.21564 158.34967 348.4969Q158.58405 348.77814 158.6778 349.21564Q158.72467 349.48126 158.72467 350.1844L158.72467 351.59064Q158.72467 353.0594 158.78717 353.45Q158.8653 353.84064 159.06842 354.2L157.95905 354.2Q157.8028 353.8719 157.75592 353.4344ZM157.66217 351.075Q157.08405 351.3094 155.94342 351.48126Q155.28717 351.575 155.02155 351.7Q154.75592 351.8094 154.59967 352.02814Q154.45905 352.2469 154.45905 352.52814Q154.45905 352.95 154.77155 353.23126Q155.09967 353.5125 155.70905 353.5125Q156.31842 353.5125 156.78717 353.2469Q157.27155 352.98126 157.4903 352.5125Q157.66217 352.15314 157.66217 351.46564L157.66217 351.075ZM160.69342 354.2L160.69342 347.98126L161.63092 347.98126L161.63092 348.85626Q162.31842 347.84064 163.6153 347.84064Q164.1778 347.84064 164.64655 348.04376Q165.13092 348.2469 165.3653 348.575Q165.59967 348.90314 165.69342 349.34064Q165.7403 349.6375 165.7403 350.3719L165.7403 354.2L164.69342 354.2L164.69342 350.41876Q164.69342 349.7625 164.56842 349.45Q164.44342 349.1375 164.13092 348.95Q163.81842 348.7469 163.39655 348.7469Q162.72467 348.7469 162.22467 349.1844Q161.7403 349.60626 161.7403 350.79376L161.7403 354.2L160.69342 354.2ZM175.94342 353.1844L175.94342 354.2L170.25592 354.2Q170.25592 353.825 170.38092 353.46564Q170.59967 352.8875 171.06842 352.325Q171.5528 351.7625 172.45905 351.02814Q173.8653 349.8719 174.34967 349.2Q174.84967 348.52814 174.84967 347.9344Q174.84967 347.3094 174.39655 346.8875Q173.94342 346.45 173.22467 346.45Q172.45905 346.45 172.00592 346.90314Q171.5528 347.35626 171.53717 348.16876L170.45905 348.0594Q170.56842 346.84064 171.28717 346.21564Q172.02155 345.575 173.25592 345.575Q174.4903 345.575 175.20905 346.2625Q175.9278 346.95 175.9278 347.96564Q175.9278 348.48126 175.70905 348.98126Q175.50592 349.46564 175.00592 350.02814Q174.52155 350.575 173.39655 351.52814Q172.44342 352.325 172.16217 352.6219Q171.89655 352.90314 171.72467 353.1844L175.94342 353.1844ZM177.39655 351.95L178.50592 351.85626Q178.63092 352.66876 179.06842 353.075Q179.52155 353.48126 180.16217 353.48126Q180.91217 353.48126 181.44342 352.90314Q181.97467 352.325 181.97467 351.3875Q181.97467 350.48126 181.45905 349.96564Q180.95905 349.4344 180.13092 349.4344Q179.63092 349.4344 179.20905 349.66876Q178.8028 349.90314 178.56842 350.2625L177.58405 350.1375L178.41217 345.73126L182.69342 345.73126L182.69342 346.73126L179.25592 346.73126L178.8028 349.04376Q179.56842 348.4969 180.41217 348.4969Q181.53717 348.4969 182.3028 349.27814Q183.08405 350.0594 183.08405 351.29376Q183.08405 352.45 182.41217 353.3094Q181.58405 354.34064 180.16217 354.34064Q178.9903 354.34064 178.2403 353.6844Q177.50592 353.02814 177.39655 351.95ZM184.59967 347.66876Q184.59967 346.7469 185.0528 346.10626Q185.52155 345.46564 186.39655 345.46564Q187.20905 345.46564 187.7403 346.04376Q188.27155 346.6219 188.27155 347.73126Q188.27155 348.825 187.72467 349.41876Q187.19342 349.9969 186.41217 349.9969Q185.63092 349.9969 185.1153 349.41876Q184.59967 348.84064 184.59967 347.66876ZM186.4278 346.1844Q186.03717 346.1844 185.77155 346.52814Q185.52155 346.8719 185.52155 347.77814Q185.52155 348.60626 185.77155 348.95Q186.03717 349.27814 186.4278 349.27814Q186.83405 349.27814 187.08405 348.9344Q187.34967 348.59064 187.34967 347.7Q187.34967 346.85626 187.08405 346.52814Q186.81842 346.1844 186.4278 346.1844ZM186.4278 354.5125L191.13092 345.46564L191.9903 345.46564L187.3028 354.5125L186.4278 354.5125ZM190.14655 352.1844Q190.14655 351.2625 190.59967 350.6219Q191.06842 349.98126 191.95905 349.98126Q192.77155 349.98126 193.3028 350.5594Q193.83405 351.1219 193.83405 352.2469Q193.83405 353.34064 193.28717 353.9344Q192.75592 354.5125 191.95905 354.5125Q191.19342 354.5125 190.66217 353.9344Q190.14655 353.35626 190.14655 352.1844ZM191.9903 350.7Q191.58405 350.7 191.31842 351.04376Q191.06842 351.3875 191.06842 352.29376Q191.06842 353.10626 191.33405 353.45Q191.59967 353.79376 191.9903 353.79376Q192.38092 353.79376 192.64655 353.45Q192.91217 353.10626 192.91217 352.2Q192.91217 351.3719 192.64655 351.04376Q192.38092 350.7 191.9903 350.7Z" fill-rule="nonzero"/><path fill="#000000" d="M258.3457 353.1844L258.3457 354.2L252.65822 354.2Q252.65822 353.825 252.78322 353.46564Q253.00197 352.8875 253.47072 352.325Q253.9551 351.7625 254.86134 351.02814Q256.26758 349.8719 256.75195 349.2Q257.25195 348.52814 257.25195 347.9344Q257.25195 347.3094 256.79883 346.8875Q256.3457 346.45 255.62697 346.45Q254.86134 346.45 254.40822 346.90314Q253.9551 347.35626 253.93947 348.16876L252.86134 348.0594Q252.97072 346.84064 253.68947 346.21564Q254.42384 345.575 255.65822 345.575Q256.89258 345.575 257.61133 346.2625Q258.33008 346.95 258.33008 347.96564Q258.33008 348.48126 258.11133 348.98126Q257.9082 349.46564 257.4082 350.02814Q256.92383 350.575 255.79884 351.52814Q254.84572 352.325 254.56447 352.6219Q254.29884 352.90314 254.12697 353.1844L258.3457 353.1844ZM265.26758 347.71564L264.2207 347.79376Q264.08008 347.16876 263.83008 346.8875Q263.39258 346.4344 262.76758 346.4344Q262.26758 346.4344 261.87695 346.71564Q261.39258 347.09064 261.0957 347.79376Q260.81445 348.48126 260.79883 349.7625Q261.17383 349.1844 261.7207 348.90314Q262.2832 348.6219 262.89258 348.6219Q263.93945 348.6219 264.67383 349.40314Q265.42383 350.1844 265.42383 351.40314Q265.42383 352.21564 265.06445 352.91876Q264.7207 353.60626 264.11133 353.98126Q263.50195 354.34064 262.73633 354.34064Q261.4082 354.34064 260.58008 353.3719Q259.75195 352.40314 259.75195 350.1844Q259.75195 347.6844 260.67383 346.5594Q261.4707 345.575 262.83008 345.575Q263.8457 345.575 264.48633 346.15314Q265.14258 346.71564 265.26758 347.71564ZM260.9707 351.41876Q260.9707 351.96564 261.18945 352.46564Q261.42383 352.95 261.83008 353.21564Q262.25195 353.48126 262.7207 353.48126Q263.37695 353.48126 263.86133 352.95Q264.3457 352.40314 264.3457 351.48126Q264.3457 350.59064 263.86133 350.075Q263.39258 349.5594 262.67383 349.5594Q261.95508 349.5594 261.45508 350.075Q260.9707 350.59064 260.9707 351.41876ZM266.67383 351.6219L266.67383 350.5594L269.92383 350.5594L269.92383 351.6219L266.67383 351.6219ZM270.79883 351.95L271.9082 351.85626Q272.0332 352.66876 272.4707 353.075Q272.92383 353.48126 273.56445 353.48126Q274.31445 353.48126 274.8457 352.90314Q275.37695 352.325 275.37695 351.3875Q275.37695 350.48126 274.86133 349.96564Q274.36133 349.4344 273.5332 349.4344Q273.0332 349.4344 272.61133 349.66876Q272.20508 349.90314 271.9707 350.2625L270.98633 350.1375L271.81445 345.73126L276.0957 345.73126L276.0957 346.73126L272.6582 346.73126L272.20508 349.04376Q272.9707 348.4969 273.81445 348.4969Q274.93945 348.4969 275.70508 349.27814Q276.48633 350.0594 276.48633 351.29376Q276.48633 352.45 275.81445 353.3094Q274.98633 354.34064 273.56445 354.34064Q272.39258 354.34064 271.64258 353.6844Q270.9082 353.02814 270.79883 351.95ZM277.79883 349.96564Q277.79883 348.4344 278.11133 347.5125Q278.42383 346.575 279.0332 346.075Q279.6582 345.575 280.5957 345.575Q281.2832 345.575 281.79883 345.85626Q282.33008 346.1375 282.67383 346.66876Q283.01758 347.1844 283.20508 347.9344Q283.39258 348.6844 283.39258 349.96564Q283.39258 351.48126 283.08008 352.40314Q282.7832 353.325 282.1582 353.84064Q281.54883 354.34064 280.5957 354.34064Q279.36133 354.34064 278.64258 353.45Q277.79883 352.3875 277.79883 349.96564ZM278.87695 349.96564Q278.87695 352.075 279.37695 352.77814Q279.87695 353.48126 280.5957 353.48126Q281.33008 353.48126 281.81445 352.77814Q282.31445 352.075 282.31445 349.96564Q282.31445 347.84064 281.81445 347.15314Q281.33008 346.45 280.58008 346.45Q279.86133 346.45 279.42383 347.0594Q278.87695 347.84064 278.87695 349.96564ZM285.00195 347.66876Q285.00195 346.7469 285.45508 346.10626Q285.92383 345.46564 286.79883 345.46564Q287.61133 345.46564 288.14258 346.04376Q288.67383 346.6219 288.67383 347.73126Q288.67383 348.825 288.12695 349.41876Q287.5957 349.9969 286.81445 349.9969Q286.0332 349.9969 285.51758 349.41876Q285.00195 348.84064 285.00195 347.66876ZM286.83008 346.1844Q286.43945 346.1844 286.17383 346.52814Q285.92383 346.8719 285.92383 347.77814Q285.92383 348.60626 286.17383 348.95Q286.43945 349.27814 286.83008 349.27814Q287.23633 349.27814 287.48633 348.9344Q287.75195 348.59064 287.75195 347.7Q287.75195 346.85626 287.48633 346.52814Q287.2207 346.1844 286.83008 346.1844ZM286.83008 354.5125L291.5332 345.46564L292.39258 345.46564L287.70508 354.5125L286.83008 354.5125ZM290.54883 352.1844Q290.54883 351.2625 291.00195 350.6219Q291.4707 349.98126 292.36133 349.98126Q293.17383 349.98126 293.70508 350.5594Q294.23633 351.1219 294.23633 352.2469Q294.23633 353.34064 293.68945 353.9344Q293.1582 354.5125 292.36133 354.5125Q291.5957 354.5125 291.06445 353.9344Q290.54883 353.35626 290.54883 352.1844ZM292.39258 350.7Q291.98633 350.7 291.7207 351.04376Q291.4707 351.3875 291.4707 352.29376Q291.4707 353.10626 291.73633 353.45Q292.00195 353.79376 292.39258 353.79376Q292.7832 353.79376 293.04883 353.45Q293.31445 353.10626 293.31445 352.2Q293.31445 351.3719 293.04883 351.04376Q292.7832 350.7 292.39258 350.7Z" fill-rule="nonzero"/><path fill="#000000" d="M372.20114 351.95L373.31052 351.85626Q373.43552 352.66876 373.87302 353.075Q374.32614 353.48126 374.96677 353.48126Q375.71677 353.48126 376.24802 352.90314Q376.77927 352.325 376.77927 351.3875Q376.77927 350.48126 376.26364 349.96564Q375.76364 349.4344 374.93552 349.4344Q374.43552 349.4344 374.01364 349.66876Q373.6074 349.90314 373.37302 350.2625L372.38864 350.1375L373.21677 345.73126L377.49802 345.73126L377.49802 346.73126L374.06052 346.73126L373.6074 349.04376Q374.37302 348.4969 375.21677 348.4969Q376.34177 348.4969 377.1074 349.27814Q377.88864 350.0594 377.88864 351.29376Q377.88864 352.45 377.21677 353.3094Q376.38864 354.34064 374.96677 354.34064Q373.7949 354.34064 373.0449 353.6844Q372.31052 353.02814 372.20114 351.95ZM383.1699 354.2L382.12302 354.2L382.12302 347.48126Q381.7324 347.84064 381.1074 348.21564Q380.49802 348.575 380.01364 348.7469L380.01364 347.73126Q380.88864 347.3094 381.5449 346.73126Q382.21677 346.1375 382.49802 345.575L383.1699 345.575L383.1699 354.2ZM386.07614 351.6219L386.07614 350.5594L389.32614 350.5594L389.32614 351.6219L386.07614 351.6219ZM390.26364 346.73126L390.26364 345.71564L395.82614 345.71564L395.82614 346.54376Q395.01364 347.41876 394.20114 348.8719Q393.40427 350.3094 392.96677 351.84064Q392.63864 352.91876 392.56052 354.2L391.46677 354.2Q391.4824 353.1844 391.8574 351.7469Q392.24802 350.3094 392.95114 348.98126Q393.6699 347.65314 394.4824 346.73126L390.26364 346.73126ZM397.20114 351.95L398.31052 351.85626Q398.43552 352.66876 398.87302 353.075Q399.32614 353.48126 399.96677 353.48126Q400.71677 353.48126 401.24802 352.90314Q401.77927 352.325 401.77927 351.3875Q401.77927 350.48126 401.26364 349.96564Q400.76364 349.4344 399.93552 349.4344Q399.43552 349.4344 399.01364 349.66876Q398.6074 349.90314 398.37302 350.2625L397.38864 350.1375L398.21677 345.73126L402.49802 345.73126L402.49802 346.73126L399.06052 346.73126L398.6074 349.04376Q399.37302 348.4969 400.21677 348.4969Q401.34177 348.4969 402.1074 349.27814Q402.88864 350.0594 402.88864 351.29376Q402.88864 352.45 402.21677 353.3094Q401.38864 354.34064 399.96677 354.34064Q398.7949 354.34064 398.0449 353.6844Q397.31052 353.02814 397.20114 351.95ZM404.40427 347.66876Q404.40427 346.7469 404.8574 346.10626Q405.32614 345.46564 406.20114 345.46564Q407.01364 345.46564 407.5449 346.04376Q408.07614 346.6219 408.07614 347.73126Q408.07614 348.825 407.52927 349.41876Q406.99802 349.9969 406.21677 349.9969Q405.43552 349.9969 404.9199 349.41876Q404.40427 348.84064 404.40427 347.66876ZM406.2324 346.1844Q405.84177 346.1844 405.57614 346.52814Q405.32614 346.8719 405.32614 347.77814Q405.32614 348.60626 405.57614 348.95Q405.84177 349.27814 406.2324 349.27814Q406.63864 349.27814 406.88864 348.9344Q407.15427 348.59064 407.15427 347.7Q407.15427 346.85626 406.88864 346.52814Q406.62302 346.1844 406.2324 346.1844ZM406.2324 354.5125L410.93552 345.46564L411.7949 345.46564L407.1074 354.5125L406.2324 354.5125ZM409.95114 352.1844Q409.95114 351.2625 410.40427 350.6219Q410.87302 349.98126 411.76364 349.98126Q412.57614 349.98126 413.1074 350.5594Q413.63864 351.1219 413.63864 352.2469Q413.63864 353.34064 413.09177 353.9344Q412.56052 354.5125 411.76364 354.5125Q410.99802 354.5125 410.46677 353.9344Q409.95114 353.35626 409.95114 352.1844ZM411.7949 350.7Q411.38864 350.7 411.12302 351.04376Q410.87302 351.3875 410.87302 352.29376Q410.87302 353.10626 411.13864 353.45Q411.40427 353.79376 411.7949 353.79376Q412.18552 353.79376 412.45114 353.45Q412.71677 353.10626 412.71677 352.2Q412.71677 351.3719 412.45114 351.04376Q412.18552 350.7 411.7949 350.7Z" fill-rule="nonzero"/><path fill="#000000" d="M497.16595 346.73126L497.16595 345.71564L502.72845 345.71564L502.72845 346.54376Q501.91595 347.41876 501.10345 348.8719Q500.30658 350.3094 499.86908 351.84064Q499.54095 352.91876 499.46283 354.2L498.36908 354.2Q498.3847 353.1844 498.7597 351.7469Q499.15033 350.3094 499.85345 348.98126Q500.5722 347.65314 501.3847 346.73126L497.16595 346.73126ZM509.5722 347.71564L508.52533 347.79376Q508.3847 347.16876 508.1347 346.8875Q507.6972 346.4344 507.0722 346.4344Q506.5722 346.4344 506.18158 346.71564Q505.6972 347.09064 505.40033 347.79376Q505.11908 348.48126 505.10345 349.7625Q505.47845 349.1844 506.02533 348.90314Q506.58783 348.6219 507.1972 348.6219Q508.24408 348.6219 508.97845 349.40314Q509.72845 350.1844 509.72845 351.40314Q509.72845 352.21564 509.36908 352.91876Q509.02533 353.60626 508.41595 353.98126Q507.80658 354.34064 507.04095 354.34064Q505.71283 354.34064 504.8847 353.3719Q504.05658 352.40314 504.05658 350.1844Q504.05658 347.6844 504.97845 346.5594Q505.77533 345.575 507.1347 345.575Q508.15033 345.575 508.79095 346.15314Q509.4472 346.71564 509.5722 347.71564ZM505.27533 351.41876Q505.27533 351.96564 505.49408 352.46564Q505.72845 352.95 506.1347 353.21564Q506.55658 353.48126 507.02533 353.48126Q507.68158 353.48126 508.16595 352.95Q508.65033 352.40314 508.65033 351.48126Q508.65033 350.59064 508.16595 350.075Q507.6972 349.5594 506.97845 349.5594Q506.2597 349.5594 505.7597 350.075Q505.27533 350.59064 505.27533 351.41876ZM513.60345 352.8094L513.60345 350.45L511.27533 350.45L511.27533 349.46564L513.60345 349.46564L513.60345 347.1375L514.60345 347.1375L514.60345 349.46564L516.9472 349.46564L516.9472 350.45L514.60345 350.45L514.60345 352.8094L513.60345 352.8094ZM518.3066 347.66876Q518.3066 346.7469 518.7597 346.10626Q519.22845 345.46564 520.10345 345.46564Q520.91595 345.46564 521.4472 346.04376Q521.97845 346.6219 521.97845 347.73126Q521.97845 348.825 521.4316 349.41876Q520.9003 349.9969 520.1191 349.9969Q519.3378 349.9969 518.8222 349.41876Q518.3066 348.84064 518.3066 347.66876ZM520.1347 346.1844Q519.7441 346.1844 519.47845 346.52814Q519.22845 346.8719 519.22845 347.77814Q519.22845 348.60626 519.47845 348.95Q519.7441 349.27814 520.1347 349.27814Q520.54095 349.27814 520.79095 348.9344Q521.0566 348.59064 521.0566 347.7Q521.0566 346.85626 520.79095 346.52814Q520.5253 346.1844 520.1347 346.1844ZM520.1347 354.5125L524.8378 345.46564L525.6972 345.46564L521.0097 354.5125L520.1347 354.5125ZM523.85345 352.1844Q523.85345 351.2625 524.3066 350.6219Q524.7753 349.98126 525.66595 349.98126Q526.47845 349.98126 527.0097 350.5594Q527.54095 351.1219 527.54095 352.2469Q527.54095 353.34064 526.9941 353.9344Q526.4628 354.5125 525.66595 354.5125Q524.9003 354.5125 524.3691 353.9344Q523.85345 353.35626 523.85345 352.1844ZM525.6972 350.7Q525.29095 350.7 525.0253 351.04376Q524.7753 351.3875 524.7753 352.29376Q524.7753 353.10626 525.04095 353.45Q525.3066 353.79376 525.6972 353.79376Q526.0878 353.79376 526.35345 353.45Q526.6191 353.10626 526.6191 352.2Q526.6191 351.3719 526.35345 351.04376Q526.0878 350.7 525.6972 350.7Z" fill-rule="nonzero"/><path fill="#f9cb9c" d="M250.0 52.333332C250.0 51.781048 250.44771 51.333332 251.0 51.333332L261.0 51.333332C261.55228 51.333332 262.0 51.781048 262.0 52.333332L262.0 62.333332C262.0 62.885616 261.55228 63.333332 261.0 63.333332L251.0 63.333332C250.44771 63.333332 250.0 62.885616 250.0 62.333332Z" fill-rule="nonzero"/><path fill="#1a1a1a" d="M276.04688 60.317707L276.04688 61.333332L270.35938 61.333332Q270.35938 60.958332 270.48438 60.598957Q270.70312 60.020832 271.17188 59.458332Q271.65625 58.895832 272.5625 58.161457Q273.96875 57.005207 274.45312 56.333332Q274.95312 55.661457 274.95312 55.067707Q274.95312 54.442707 274.5 54.020832Q274.04688 53.583332 273.32812 53.583332Q272.5625 53.583332 272.10938 54.036457Q271.65625 54.489582 271.64062 55.302082L270.5625 55.192707Q270.67188 53.973957 271.39062 53.348957Q272.125 52.708332 273.35938 52.708332Q274.59375 52.708332 275.3125 53.395832Q276.03125 54.083332 276.03125 55.098957Q276.03125 55.614582 275.8125 56.114582Q275.60938 56.598957 275.10938 57.161457Q274.625 57.708332 273.5 58.661457Q272.54688 59.458332 272.26562 59.755207Q272.0 60.036457 271.82812 60.317707L276.04688 60.317707ZM277.5 57.098957Q277.5 55.567707 277.8125 54.645832Q278.125 53.708332 278.73438 53.208332Q279.35938 52.708332 280.29688 52.708332Q280.98438 52.708332 281.5 52.989582Q282.03125 53.270832 282.375 53.802082Q282.71875 54.317707 282.90625 55.067707Q283.09375 55.817707 283.09375 57.098957Q283.09375 58.614582 282.78125 59.536457Q282.48438 60.458332 281.85938 60.973957Q281.25 61.473957 280.29688 61.473957Q279.0625 61.473957 278.34375 60.583332Q277.5 59.520832 277.5 57.098957ZM278.57812 57.098957Q278.57812 59.208332 279.07812 59.911457Q279.57812 60.614582 280.29688 60.614582Q281.03125 60.614582 281.51562 59.911457Q282.01562 59.208332 282.01562 57.098957Q282.01562 54.973957 281.51562 54.286457Q281.03125 53.583332 280.28125 53.583332Q279.5625 53.583332 279.125 54.192707Q278.57812 54.973957 278.57812 57.098957ZM288.46875 61.333332L287.42188 61.333332L287.42188 54.614582Q287.03125 54.973957 286.40625 55.348957Q285.79688 55.708332 285.3125 55.880207L285.3125 54.864582Q286.1875 54.442707 286.84375 53.864582Q287.51562 53.270832 287.79688 52.708332L288.46875 52.708332L288.46875 61.333332ZM293.125 56.677082Q292.46875 56.427082 292.14062 55.989582Q291.82812 55.536457 291.82812 54.927082Q291.82812 53.989582 292.5 53.348957Q293.1875 52.708332 294.29688 52.708332Q295.42188 52.708332 296.10938 53.364582Q296.79688 54.020832 296.79688 54.958332Q296.79688 55.552082 296.48438 55.989582Q296.17188 56.427082 295.53125 56.677082Q296.32812 56.927082 296.73438 57.505207Q297.14062 58.083332 297.14062 58.880207Q297.14062 59.973957 296.35938 60.723957Q295.59375 61.473957 294.3125 61.473957Q293.04688 61.473957 292.26562 60.723957Q291.48438 59.973957 291.48438 58.848957Q291.48438 58.005207 291.90625 57.442707Q292.34375 56.880207 293.125 56.677082ZM292.90625 54.880207Q292.90625 55.489582 293.29688 55.880207Q293.70312 56.270832 294.32812 56.270832Q294.9375 56.270832 295.32812 55.895832Q295.71875 55.505207 295.71875 54.942707Q295.71875 54.364582 295.3125 53.973957Q294.90625 53.567707 294.3125 53.567707Q293.70312 53.567707 293.29688 53.958332Q292.90625 54.348957 292.90625 54.880207ZM292.57812 58.848957Q292.57812 59.302082 292.78125 59.723957Q293.0 60.145832 293.42188 60.380207Q293.84375 60.614582 294.32812 60.614582Q295.07812 60.614582 295.5625 60.130207Q296.0625 59.645832 296.0625 58.895832Q296.0625 58.130207 295.5625 57.630207Q295.0625 57.130207 294.29688 57.130207Q293.54688 57.130207 293.0625 57.630207Q292.57812 58.114582 292.57812 58.848957Z" fill-rule="nonzero"/><path fill="#a4c2f4" d="M314.0 52.333332C314.0 51.781048 314.44772 51.333332 315.0 51.333332L325.0 51.333332C325.55228 51.333332 326.0 51.781048 326.0 52.333332L326.0 62.333332C326.0 62.885616 325.55228 63.333332 325.0 63.333332L315.0 63.333332C314.44772 63.333332 314.0 62.885616 314.0 62.333332Z" fill-rule="nonzero"/><path fill="#1a1a1a" d="M340.04688 60.317707L340.04688 61.333332L334.35938 61.333332Q334.35938 60.958332 334.48438 60.598957Q334.70312 60.020832 335.17188 59.458332Q335.65625 58.895832 336.5625 58.161457Q337.96875 57.005207 338.45312 56.333332Q338.95312 55.661457 338.95312 55.067707Q338.95312 54.442707 338.5 54.020832Q338.04688 53.583332 337.32812 53.583332Q336.5625 53.583332 336.10938 54.036457Q335.65625 54.489582 335.64062 55.302082L334.5625 55.192707Q334.67188 53.973957 335.39062 53.348957Q336.125 52.708332 337.35938 52.708332Q338.59375 52.708332 339.3125 53.395832Q340.03125 54.083332 340.03125 55.098957Q340.03125 55.614582 339.8125 56.114582Q339.60938 56.598957 339.10938 57.161457Q338.625 57.708332 337.5 58.661457Q336.54688 59.458332 336.26562 59.755207Q336.0 60.036457 335.82812 60.317707L340.04688 60.317707ZM341.5 57.098957Q341.5 55.567707 341.8125 54.645832Q342.125 53.708332 342.73438 53.208332Q343.35938 52.708332 344.29688 52.708332Q344.98438 52.708332 345.5 52.989582Q346.03125 53.270832 346.375 53.802082Q346.71875 54.317707 346.90625 55.067707Q347.09375 55.817707 347.09375 57.098957Q347.09375 58.614582 346.78125 59.536457Q346.48438 60.458332 345.85938 60.973957Q345.25 61.473957 344.29688 61.473957Q343.0625 61.473957 342.34375 60.583332Q341.5 59.520832 341.5 57.098957ZM342.57812 57.098957Q342.57812 59.208332 343.07812 59.911457Q343.57812 60.614582 344.29688 60.614582Q345.03125 60.614582 345.51562 59.911457Q346.01562 59.208332 346.01562 57.098957Q346.01562 54.973957 345.51562 54.286457Q345.03125 53.583332 344.28125 53.583332Q343.5625 53.583332 343.125 54.192707Q342.57812 54.973957 342.57812 57.098957ZM354.04688 60.317707L354.04688 61.333332L348.35938 61.333332Q348.35938 60.958332 348.48438 60.598957Q348.70312 60.020832 349.17188 59.458332Q349.65625 58.895832 350.5625 58.161457Q351.96875 57.005207 352.45312 56.333332Q352.95312 55.661457 352.95312 55.067707Q352.95312 54.442707 352.5 54.020832Q352.04688 53.583332 351.32812 53.583332Q350.5625 53.583332 350.10938 54.036457Q349.65625 54.489582 349.64062 55.302082L348.5625 55.192707Q348.67188 53.973957 349.39062 53.348957Q350.125 52.708332 351.35938 52.708332Q352.59375 52.708332 353.3125 53.395832Q354.03125 54.083332 354.03125 55.098957Q354.03125 55.614582 353.8125 56.114582Q353.60938 56.598957 353.10938 57.161457Q352.625 57.708332 351.5 58.661457Q350.54688 59.458332 350.26562 59.755207Q350.0 60.036457 349.82812 60.317707L354.04688 60.317707ZM359.46875 61.333332L358.42188 61.333332L358.42188 54.614582Q358.03125 54.973957 357.40625 55.348957Q356.79688 55.708332 356.3125 55.880207L356.3125 54.864582Q357.1875 54.442707 357.84375 53.864582Q358.51562 53.270832 358.79688 52.708332L359.46875 52.708332L359.46875 61.333332Z" fill-rule="nonzero"/><path fill="#757575" d="M19.971874 33.8L19.971874 22.346874L22.284374 22.346874L22.284374 26.846874L26.815624 26.846874L26.815624 22.346874L29.128124 22.346874L29.128124 33.8L26.815624 33.8L26.815624 28.784374L22.284374 28.784374L22.284374 33.8L19.971874 33.8ZM31.440624 29.534374Q31.440624 28.440624 31.971874 27.425Q32.51875 26.39375 33.503124 25.8625Q34.503124 25.315624 35.721874 25.315624Q37.596874 25.315624 38.8 26.534374Q40.003124 27.753124 40.003124 29.628124Q40.003124 31.503124 38.784374 32.753124Q37.58125 33.9875 35.7375 33.9875Q34.596874 33.9875 33.55 33.471874Q32.51875 32.95625 31.971874 31.95625Q31.440624 30.95625 31.440624 29.534374ZM33.690624 29.64375Q33.690624 30.878124 34.26875 31.534374Q34.8625 32.190624 35.721874 32.190624Q36.58125 32.190624 37.159374 31.534374Q37.753124 30.878124 37.753124 29.628124Q37.753124 28.409374 37.159374 27.753124Q36.58125 27.096874 35.721874 27.096874Q34.8625 27.096874 34.26875 27.753124Q33.690624 28.409374 33.690624 29.64375ZM43.503124 33.8L40.878124 25.503124L43.003124 25.503124L44.565624 30.940624L45.9875 25.503124L48.1125 25.503124L49.4875 30.940624L51.08125 25.503124L53.2375 25.503124L50.58125 33.8L48.471874 33.8L47.034374 28.45625L45.628124 33.8L43.503124 33.8ZM57.784374 25.503124L59.815624 25.503124L59.815624 26.628124Q60.89375 25.315624 62.39375 25.315624Q63.190624 25.315624 63.76875 25.64375Q64.3625 25.971874 64.7375 26.628124Q65.28438 25.971874 65.90938 25.64375Q66.55 25.315624 67.26875 25.315624Q68.19063 25.315624 68.81563 25.690624Q69.45625 26.05 69.76875 26.76875Q69.9875 27.3 69.9875 28.4875L69.9875 33.8L67.8 33.8L67.8 29.05Q67.8 27.815624 67.56563 27.45625Q67.26875 26.9875 66.62813 26.9875Q66.175 26.9875 65.76875 27.26875Q65.3625 27.55 65.175 28.096874Q65.00313 28.64375 65.00313 29.815624L65.00313 33.8L62.8 33.8L62.8 29.253124Q62.8 28.034374 62.675 27.690624Q62.565624 27.33125 62.315624 27.159374Q62.08125 26.9875 61.659374 26.9875Q61.14375 26.9875 60.7375 27.26875Q60.33125 27.534374 60.159374 28.05Q59.9875 28.565624 59.9875 29.76875L59.9875 33.8L57.784374 33.8L57.784374 25.503124ZM77.40938 33.8L77.40938 32.55Q76.95625 33.221874 76.22188 33.6125Q75.4875 33.9875 74.65938 33.9875Q73.83125 33.9875 73.15938 33.628124Q72.50313 33.253124 72.20625 32.596874Q71.90938 31.925 71.90938 30.753124L71.90938 25.503124L74.09688 25.503124L74.09688 29.315624Q74.09688 31.065624 74.22188 31.45625Q74.34688 31.846874 74.65938 32.08125Q74.9875 32.315624 75.47188 32.315624Q76.03438 32.315624 76.47188 32.003124Q76.925 31.690624 77.08125 31.2375Q77.25313 30.784374 77.25313 29.003124L77.25313 25.503124L79.45625 25.503124L79.45625 33.8L77.40938 33.8ZM89.19063 27.95625L87.01875 28.346874Q86.90938 27.690624 86.51875 27.3625Q86.14375 27.034374 85.51875 27.034374Q84.70625 27.034374 84.20625 27.6125Q83.72188 28.175 83.72188 29.503124Q83.72188 30.971874 84.22188 31.58125Q84.72188 32.190624 85.55 32.190624Q86.175 32.190624 86.56563 31.846874Q86.97188 31.4875 87.14375 30.6125L89.3 30.9875Q88.95625 32.471874 88.00313 33.2375Q87.05 33.9875 85.45625 33.9875Q83.62813 33.9875 82.55 32.846874Q81.47188 31.690624 81.47188 29.659374Q81.47188 27.596874 82.55 26.45625Q83.64375 25.315624 85.4875 25.315624Q87.00313 25.315624 87.89375 25.971874Q88.8 26.6125 89.19063 27.95625ZM93.14375 22.346874L93.14375 26.55Q94.20625 25.315624 95.675 25.315624Q96.44063 25.315624 97.05 25.596874Q97.65938 25.878124 97.95625 26.315624Q98.26875 26.753124 98.37813 27.284374Q98.50313 27.815624 98.50313 28.925L98.50313 33.8L96.3 33.8L96.3 29.409374Q96.3 28.1125 96.175 27.76875Q96.05 27.409374 95.7375 27.20625Q95.425 26.9875 94.94063 26.9875Q94.39375 26.9875 93.95625 27.253124Q93.53438 27.51875 93.33125 28.065624Q93.14375 28.596874 93.14375 29.64375L93.14375 33.8L90.94063 33.8L90.94063 22.346874L93.14375 22.346874ZM108.75313 25.503124L108.75313 27.253124L107.25313 27.253124L107.25313 30.596874Q107.25313 31.6125 107.3 31.784374Q107.34688 31.940624 107.4875 32.05Q107.64375 32.159374 107.8625 32.159374Q108.175 32.159374 108.75313 31.95625L108.94063 33.659374Q108.175 33.9875 107.20625 33.9875Q106.6125 33.9875 106.12813 33.784374Q105.65938 33.58125 105.425 33.26875Q105.20625 32.95625 105.12813 32.409374Q105.05 32.034374 105.05 30.8625L105.05 27.253124L104.05 27.253124L104.05 25.503124L105.05 25.503124L105.05 23.846874L107.25313 22.565624L107.25313 25.503124L108.75313 25.503124ZM109.95625 24.378124L109.95625 22.346874L112.14375 22.346874L112.14375 24.378124L109.95625 24.378124ZM109.95625 33.8L109.95625 25.503124L112.14375 25.503124L112.14375 33.8L109.95625 33.8ZM113.78438 25.503124L115.81563 25.503124L115.81563 26.628124Q116.89375 25.315624 118.39375 25.315624Q119.19063 25.315624 119.76875 25.64375Q120.3625 25.971874 120.7375 26.628124Q121.28438 25.971874 121.90938 25.64375Q122.55 25.315624 123.26875 25.315624Q124.19063 25.315624 124.81563 25.690624Q125.45625 26.05 125.76875 26.76875Q125.9875 27.3 125.9875 28.4875L125.9875 33.8L123.8 33.8L123.8 29.05Q123.8 27.815624 123.56563 27.45625Q123.26875 26.9875 122.62813 26.9875Q122.175 26.9875 121.76875 27.26875Q121.3625 27.55 121.175 28.096874Q121.00313 28.64375 121.00313 29.815624L121.00313 33.8L118.8 33.8L118.8 29.253124Q118.8 28.034374 118.675 27.690624Q118.56563 27.33125 118.31563 27.159374Q118.08125 26.9875 117.65938 26.9875Q117.14375 26.9875 116.7375 27.26875Q116.33125 27.534374 116.15938 28.05Q115.9875 28.565624 115.9875 29.76875L115.9875 33.8L113.78438 33.8L113.78438 25.503124ZM132.75313 31.159374L134.94063 31.51875Q134.51875 32.721874 133.6125 33.3625Q132.70625 33.9875 131.33125 33.9875Q129.175 33.9875 128.12813 32.565624Q127.31563 31.440624 127.31563 29.70625Q127.31563 27.64375 128.39375 26.4875Q129.47188 25.315624 131.1125 25.315624Q132.97188 25.315624 134.03438 26.534374Q135.1125 27.753124 135.06563 30.284374L129.56563 30.284374Q129.58125 31.253124 130.08125 31.8Q130.59688 32.346874 131.3625 32.346874Q131.87813 32.346874 132.22188 32.065624Q132.58125 31.784374 132.75313 31.159374ZM132.87813 28.940624Q132.8625 27.9875 132.39375 27.4875Q131.925 26.9875 131.25313 26.9875Q130.53438 26.9875 130.06563 27.51875Q129.59688 28.034374 129.59688 28.940624L132.87813 28.940624ZM140.89375 25.503124L142.94063 25.503124L142.94063 26.721874Q143.33125 26.096874 144.00313 25.70625Q144.69063 25.315624 145.51875 25.315624Q146.97188 25.315624 147.97188 26.45625Q148.9875 27.58125 148.9875 29.596874Q148.9875 31.675 147.97188 32.83125Q146.95625 33.9875 145.50313 33.9875Q144.81563 33.9875 144.25313 33.721874Q143.70625 33.440624 143.08125 32.76875L143.08125 36.95625L140.89375 36.95625L140.89375 25.503124ZM143.06563 29.503124Q143.06563 30.909374 143.6125 31.58125Q144.175 32.2375 144.97188 32.2375Q145.7375 32.2375 146.2375 31.628124Q146.75313 31.01875 146.75313 29.6125Q146.75313 28.315624 146.22188 27.690624Q145.70625 27.05 144.925 27.05Q144.12813 27.05 143.59688 27.675Q143.06563 28.284374 143.06563 29.503124ZM155.75313 31.159374L157.94063 31.51875Q157.51875 32.721874 156.6125 33.3625Q155.70625 33.9875 154.33125 33.9875Q152.175 33.9875 151.12813 32.565624Q150.31563 31.440624 150.31563 29.70625Q150.31563 27.64375 151.39375 26.4875Q152.47188 25.315624 154.1125 25.315624Q155.97188 25.315624 157.03438 26.534374Q158.1125 27.753124 158.06563 30.284374L152.56563 30.284374Q152.58125 31.253124 153.08125 31.8Q153.59688 32.346874 154.3625 32.346874Q154.87813 32.346874 155.22188 32.065624Q155.58125 31.784374 155.75313 31.159374ZM155.87813 28.940624Q155.8625 27.9875 155.39375 27.4875Q154.925 26.9875 154.25313 26.9875Q153.53438 26.9875 153.06563 27.51875Q152.59688 28.034374 152.59688 28.940624L155.87813 28.940624ZM162.05 33.8L159.8625 33.8L159.8625 25.503124L161.89375 25.503124L161.89375 26.675Q162.425 25.846874 162.83125 25.58125Q163.25313 25.315624 163.78438 25.315624Q164.53438 25.315624 165.2375 25.721874L164.55 27.64375Q164.00313 27.284374 163.51875 27.284374Q163.06563 27.284374 162.7375 27.534374Q162.425 27.784374 162.2375 28.45625Q162.05 29.1125 162.05 31.2375L162.05 33.8ZM171.50313 33.8L168.87813 25.503124L171.00313 25.503124L172.56563 30.940624L173.9875 25.503124L176.1125 25.503124L177.4875 30.940624L179.08125 25.503124L181.2375 25.503124L178.58125 33.8L176.47188 33.8L175.03438 28.45625L173.62813 33.8L171.50313 33.8ZM186.75313 31.159374L188.94063 31.51875Q188.51875 32.721874 187.6125 33.3625Q186.70625 33.9875 185.33125 33.9875Q183.175 33.9875 182.12813 32.565624Q181.31563 31.440624 181.31563 29.70625Q181.31563 27.64375 182.39375 26.4875Q183.47188 25.315624 185.1125 25.315624Q186.97188 25.315624 188.03438 26.534374Q189.1125 27.753124 189.06563 30.284374L183.56563 30.284374Q183.58125 31.253124 184.08125 31.8Q184.59688 32.346874 185.3625 32.346874Q185.87813 32.346874 186.22188 32.065624Q186.58125 31.784374 186.75313 31.159374ZM186.87813 28.940624Q186.8625 27.9875 186.39375 27.4875Q185.925 26.9875 185.25313 26.9875Q184.53438 26.9875 184.06563 27.51875Q183.59688 28.034374 183.59688 28.940624L186.87813 28.940624ZM195.75313 31.159374L197.94063 31.51875Q197.51875 32.721874 196.6125 33.3625Q195.70625 33.9875 194.33125 33.9875Q192.175 33.9875 191.12813 32.565624Q190.31563 31.440624 190.31563 29.70625Q190.31563 27.64375 191.39375 26.4875Q192.47188 25.315624 194.1125 25.315624Q195.97188 25.315624 197.03438 26.534374Q198.1125 27.753124 198.06563 30.284374L192.56563 30.284374Q192.58125 31.253124 193.08125 31.8Q193.59688 32.346874 194.3625 32.346874Q194.87813 32.346874 195.22188 32.065624Q195.58125 31.784374 195.75313 31.159374ZM195.87813 28.940624Q195.8625 27.9875 195.39375 27.4875Q194.925 26.9875 194.25313 26.9875Q193.53438 26.9875 193.06563 27.51875Q192.59688 28.034374 192.59688 28.940624L195.87813 28.940624ZM199.87813 33.8L199.87813 22.346874L202.06563 22.346874L202.06563 28.425L204.64375 25.503124L207.34688 25.503124L204.50313 28.534374L207.55 33.8L205.175 33.8L203.09688 30.065624L202.06563 31.14375L202.06563 33.8L199.87813 33.8ZM220.56563 33.8L218.51875 33.8L218.51875 32.58125Q218.01875 33.284374 217.31563 33.64375Q216.62813 33.9875 215.925 33.9875Q214.50313 33.9875 213.47188 32.83125Q212.45625 31.675 212.45625 29.6125Q212.45625 27.503124 213.44063 26.409374Q214.44063 25.315624 215.95625 25.315624Q217.34688 25.315624 218.3625 26.471874L218.3625 22.346874L220.56563 22.346874L220.56563 33.8ZM214.70625 29.471874Q214.70625 30.8 215.06563 31.39375Q215.59688 32.253124 216.55 32.253124Q217.31563 32.253124 217.84688 31.6125Q218.37813 30.95625 218.37813 29.675Q218.37813 28.253124 217.8625 27.628124Q217.34688 26.9875 216.53438 26.9875Q215.75313 26.9875 215.22188 27.6125Q214.70625 28.2375 214.70625 29.471874ZM222.44063 29.534374Q222.44063 28.440624 222.97188 27.425Q223.51875 26.39375 224.50313 25.8625Q225.50313 25.315624 226.72188 25.315624Q228.59688 25.315624 229.8 26.534374Q231.00313 27.753124 231.00313 29.628124Q231.00313 31.503124 229.78438 32.753124Q228.58125 33.9875 226.7375 33.9875Q225.59688 33.9875 224.55 33.471874Q223.51875 32.95625 222.97188 31.95625Q222.44063 30.95625 222.44063 29.534374ZM224.69063 29.64375Q224.69063 30.878124 225.26875 31.534374Q225.8625 32.190624 226.72188 32.190624Q227.58125 32.190624 228.15938 31.534374Q228.75313 30.878124 228.75313 29.628124Q228.75313 28.409374 228.15938 27.753124Q227.58125 27.096874 226.72188 27.096874Q225.8625 27.096874 225.26875 27.753124Q224.69063 28.409374 224.69063 29.64375ZM235.90938 25.503124L238.25313 25.503124L240.2375 31.39375L242.175 25.503124L244.44063 25.503124L241.51875 33.4875L240.9875 34.940624Q240.70625 35.659374 240.44063 36.034374Q240.175 36.425 239.83125 36.659374Q239.50313 36.909374 239.00313 37.034374Q238.50313 37.175 237.87813 37.175Q237.25313 37.175 236.64375 37.034374L236.44063 35.315624Q236.95625 35.425 237.37813 35.425Q238.14375 35.425 238.50313 34.971874Q238.87813 34.51875 239.06563 33.83125L235.90938 25.503124ZM245.44063 29.534374Q245.44063 28.440624 245.97188 27.425Q246.51875 26.39375 247.50313 25.8625Q248.50313 25.315624 249.72188 25.315624Q251.59688 25.315624 252.8 26.534374Q254.00313 27.753124 254.00313 29.628124Q254.00313 31.503124 252.78438 32.753124Q251.58125 33.9875 249.7375 33.9875Q248.59688 33.9875 247.55 33.471874Q246.51875 32.95625 245.97188 31.95625Q245.44063 30.95625 245.44063 29.534374ZM247.69063 29.64375Q247.69063 30.878124 248.26875 31.534374Q248.8625 32.190624 249.72188 32.190624Q250.58125 32.190624 251.15938 31.534374Q251.75313 30.878124 251.75313 29.628124Q251.75313 28.409374 251.15938 27.753124Q250.58125 27.096874 249.72188 27.096874Q248.8625 27.096874 248.26875 27.753124Q247.69063 28.409374 247.69063 29.64375ZM261.40936 33.8L261.40936 32.55Q260.95624 33.221874 260.22186 33.6125Q259.4875 33.9875 258.65936 33.9875Q257.83124 33.9875 257.15936 33.628124Q256.5031 33.253124 256.20624 32.596874Q255.90938 31.925 255.90938 30.753124L255.90938 25.503124L258.09686 25.503124L258.09686 29.315624Q258.09686 31.065624 258.22186 31.45625Q258.34686 31.846874 258.65936 32.08125Q258.9875 32.315624 259.47186 32.315624Q260.03436 32.315624 260.47186 32.003124Q260.925 31.690624 261.08124 31.2375Q261.2531 30.784374 261.2531 29.003124L261.2531 25.503124L263.45624 25.503124L263.45624 33.8L261.40936 33.8ZM269.175 31.425L271.3781 31.096874Q271.51874 31.7375 271.9406 32.065624Q272.3781 32.39375 273.15936 32.39375Q274.0031 32.39375 274.4406 32.08125Q274.72186 31.8625 274.72186 31.503124Q274.72186 31.253124 274.5656 31.08125Q274.40936 30.925 273.83124 30.8Q271.175 30.20625 270.47186 29.721874Q269.4875 29.05 269.4875 27.8625Q269.4875 26.784374 270.33124 26.05Q271.1906 25.315624 272.97186 25.315624Q274.675 25.315624 275.5031 25.878124Q276.33124 26.425 276.64374 27.503124L274.58124 27.89375Q274.4406 27.409374 274.0656 27.159374Q273.70624 26.89375 273.01874 26.89375Q272.14374 26.89375 271.76874 27.128124Q271.51874 27.3 271.51874 27.58125Q271.51874 27.815624 271.7375 27.971874Q272.03436 28.190624 273.78436 28.596874Q275.55 28.9875 276.2375 29.565624Q276.925 30.159374 276.925 31.20625Q276.925 32.346874 275.97186 33.175Q275.01874 33.9875 273.15936 33.9875Q271.45624 33.9875 270.47186 33.3Q269.4875 32.6125 269.175 31.425ZM278.89374 25.503124L280.9406 25.503124L280.9406 26.721874Q281.33124 26.096874 282.0031 25.70625Q282.6906 25.315624 283.51874 25.315624Q284.97186 25.315624 285.97186 26.45625Q286.9875 27.58125 286.9875 29.596874Q286.9875 31.675 285.97186 32.83125Q284.95624 33.9875 283.5031 33.9875Q282.8156 33.9875 282.2531 33.721874Q281.70624 33.440624 281.08124 32.76875L281.08124 36.95625L278.89374 36.95625L278.89374 25.503124ZM281.0656 29.503124Q281.0656 30.909374 281.6125 31.58125Q282.175 32.2375 282.97186 32.2375Q283.7375 32.2375 284.2375 31.628124Q284.7531 31.01875 284.7531 29.6125Q284.7531 28.315624 284.22186 27.690624Q283.70624 27.05 282.925 27.05Q282.1281 27.05 281.59686 27.675Q281.0656 28.284374 281.0656 29.503124ZM293.7531 31.159374L295.9406 31.51875Q295.51874 32.721874 294.6125 33.3625Q293.70624 33.9875 292.33124 33.9875Q290.175 33.9875 289.1281 32.565624Q288.3156 31.440624 288.3156 29.70625Q288.3156 27.64375 289.39374 26.4875Q290.47186 25.315624 292.1125 25.315624Q293.97186 25.315624 295.03436 26.534374Q296.1125 27.753124 296.0656 30.284374L290.5656 30.284374Q290.58124 31.253124 291.08124 31.8Q291.59686 32.346874 292.3625 32.346874Q292.8781 32.346874 293.22186 32.065624Q293.58124 31.784374 293.7531 31.159374ZM293.8781 28.940624Q293.8625 27.9875 293.39374 27.4875Q292.925 26.9875 292.2531 26.9875Q291.53436 26.9875 291.0656 27.51875Q290.59686 28.034374 290.59686 28.940624L293.8781 28.940624ZM305.5031 33.8L303.3 33.8L303.3 29.565624Q303.3 28.221874 303.15936 27.83125Q303.01874 27.425 302.70624 27.20625Q302.39374 26.9875 301.9406 26.9875Q301.3781 26.9875 300.925 27.3Q300.47186 27.6125 300.3 28.128124Q300.1281 28.64375 300.1281 30.034374L300.1281 33.8L297.9406 33.8L297.9406 25.503124L299.97186 25.503124L299.97186 26.721874Q301.0656 25.315624 302.70624 25.315624Q303.4406 25.315624 304.03436 25.58125Q304.64374 25.83125 304.9406 26.2375Q305.2531 26.64375 305.3781 27.159374Q305.5031 27.675 305.5031 28.64375L305.5031 33.8ZM315.5656 33.8L313.51874 33.8L313.51874 32.58125Q313.01874 33.284374 312.3156 33.64375Q311.6281 33.9875 310.925 33.9875Q309.5031 33.9875 308.47186 32.83125Q307.45624 31.675 307.45624 29.6125Q307.45624 27.503124 308.4406 26.409374Q309.4406 25.315624 310.95624 25.315624Q312.34686 25.315624 313.3625 26.471874L313.3625 22.346874L315.5656 22.346874L315.5656 33.8ZM309.70624 29.471874Q309.70624 30.8 310.0656 31.39375Q310.59686 32.253124 311.55 32.253124Q312.3156 32.253124 312.84686 31.6125Q313.3781 30.95625 313.3781 29.675Q313.3781 28.253124 312.8625 27.628124Q312.34686 26.9875 311.53436 26.9875Q310.7531 26.9875 310.22186 27.6125Q309.70624 28.2375 309.70624 29.471874ZM323.5031 33.8L320.8781 25.503124L323.0031 25.503124L324.5656 30.940624L325.9875 25.503124L328.1125 25.503124L329.4875 30.940624L331.08124 25.503124L333.2375 25.503124L330.58124 33.8L328.47186 33.8L327.03436 28.45625L325.6281 33.8L323.5031 33.8ZM336.05 33.8L333.8625 33.8L333.8625 25.503124L335.89374 25.503124L335.89374 26.675Q336.425 25.846874 336.83124 25.58125Q337.2531 25.315624 337.78436 25.315624Q338.53436 25.315624 339.2375 25.721874L338.55 27.64375Q338.0031 27.284374 337.51874 27.284374Q337.0656 27.284374 336.7375 27.534374Q336.425 27.784374 336.2375 28.45625Q336.05 29.1125 336.05 31.2375L336.05 33.8ZM339.95624 24.378124L339.95624 22.346874L342.14374 22.346874L342.14374 24.378124L339.95624 24.378124ZM339.95624 33.8L339.95624 25.503124L342.14374 25.503124L342.14374 33.8L339.95624 33.8ZM347.7531 25.503124L347.7531 27.253124L346.2531 27.253124L346.2531 30.596874Q346.2531 31.6125 346.3 31.784374Q346.34686 31.940624 346.4875 32.05Q346.64374 32.159374 346.8625 32.159374Q347.175 32.159374 347.7531 31.95625L347.9406 33.659374Q347.175 33.9875 346.20624 33.9875Q345.6125 33.9875 345.1281 33.784374Q344.65936 33.58125 344.425 33.26875Q344.20624 32.95625 344.1281 32.409374Q344.05 32.034374 344.05 30.8625L344.05 27.253124L343.05 27.253124L343.05 25.503124L344.05 25.503124L344.05 23.846874L346.2531 22.565624L346.2531 25.503124L347.7531 25.503124ZM348.95624 24.378124L348.95624 22.346874L351.14374 22.346874L351.14374 24.378124L348.95624 24.378124ZM348.95624 33.8L348.95624 25.503124L351.14374 25.503124L351.14374 33.8L348.95624 33.8ZM360.5031 33.8L358.3 33.8L358.3 29.565624Q358.3 28.221874 358.15936 27.83125Q358.01874 27.425 357.70624 27.20625Q357.39374 26.9875 356.9406 26.9875Q356.3781 26.9875 355.925 27.3Q355.47186 27.6125 355.3 28.128124Q355.1281 28.64375 355.1281 30.034374L355.1281 33.8L352.9406 33.8L352.9406 25.503124L354.97186 25.503124L354.97186 26.721874Q356.0656 25.315624 357.70624 25.315624Q358.4406 25.315624 359.03436 25.58125Q359.64374 25.83125 359.9406 26.2375Q360.2531 26.64375 360.3781 27.159374Q360.5031 27.675 360.5031 28.64375L360.5031 33.8ZM362.7531 34.346874L365.2531 34.659374Q365.3156 35.096874 365.55 35.253124Q365.8625 35.4875 366.53436 35.4875Q367.39374 35.4875 367.8156 35.2375Q368.1125 35.065624 368.2531 34.675Q368.3625 34.409374 368.3625 33.659374L368.3625 32.45625Q367.3781 33.8 365.8781 33.8Q364.20624 33.8 363.22186 32.378124Q362.45624 31.26875 362.45624 29.596874Q362.45624 27.51875 363.45624 26.425Q364.47186 25.315624 365.95624 25.315624Q367.5031 25.315624 368.5031 26.659374L368.5031 25.503124L370.55 25.503124L370.55 32.940624Q370.55 34.425 370.3 35.14375Q370.0656 35.878124 369.6281 36.284374Q369.1906 36.70625 368.45624 36.940624Q367.7375 37.175 366.6125 37.175Q364.5031 37.175 363.6125 36.440624Q362.7375 35.721874 362.7375 34.6125Q362.7375 34.503124 362.7531 34.346874ZM364.70624 29.471874Q364.70624 30.8 365.22186 31.409374Q365.7375 32.01875 366.4875 32.01875Q367.28436 32.01875 367.83124 31.39375Q368.39374 30.76875 368.39374 29.534374Q368.39374 28.2375 367.8625 27.6125Q367.33124 26.9875 366.51874 26.9875Q365.7375 26.9875 365.22186 27.6125Q364.70624 28.221874 364.70624 29.471874ZM384.5656 33.8L382.51874 33.8L382.51874 32.58125Q382.01874 33.284374 381.3156 33.64375Q380.6281 33.9875 379.925 33.9875Q378.5031 33.9875 377.47186 32.83125Q376.45624 31.675 376.45624 29.6125Q376.45624 27.503124 377.4406 26.409374Q378.4406 25.315624 379.95624 25.315624Q381.34686 25.315624 382.3625 26.471874L382.3625 22.346874L384.5656 22.346874L384.5656 33.8ZM378.70624 29.471874Q378.70624 30.8 379.0656 31.39375Q379.59686 32.253124 380.55 32.253124Q381.3156 32.253124 381.84686 31.6125Q382.3781 30.95625 382.3781 29.675Q382.3781 28.253124 381.8625 27.628124Q381.34686 26.9875 380.53436 26.9875Q379.7531 26.9875 379.22186 27.6125Q378.70624 28.2375 378.70624 29.471874ZM386.4406 29.534374Q386.4406 28.440624 386.97186 27.425Q387.51874 26.39375 388.5031 25.8625Q389.5031 25.315624 390.72186 25.315624Q392.59686 25.315624 393.8 26.534374Q395.0031 27.753124 395.0031 29.628124Q395.0031 31.503124 393.78436 32.753124Q392.58124 33.9875 390.7375 33.9875Q389.59686 33.9875 388.55 33.471874Q387.51874 32.95625 386.97186 31.95625Q386.4406 30.95625 386.4406 29.534374ZM388.6906 29.64375Q388.6906 30.878124 389.26874 31.534374Q389.8625 32.190624 390.72186 32.190624Q391.58124 32.190624 392.15936 31.534374Q392.7531 30.878124 392.7531 29.628124Q392.7531 28.409374 392.15936 27.753124Q391.58124 27.096874 390.72186 27.096874Q389.8625 27.096874 389.26874 27.753124Q388.6906 28.409374 388.6906 29.64375ZM404.1906 27.95625L402.01874 28.346874Q401.90936 27.690624 401.51874 27.3625Q401.14374 27.034374 400.51874 27.034374Q399.70624 27.034374 399.20624 27.6125Q398.72186 28.175 398.72186 29.503124Q398.72186 30.971874 399.22186 31.58125Q399.72186 32.190624 400.55 32.190624Q401.175 32.190624 401.5656 31.846874Q401.97186 31.4875 402.14374 30.6125L404.3 30.9875Q403.95624 32.471874 403.0031 33.2375Q402.05 33.9875 400.45624 33.9875Q398.6281 33.9875 397.55 32.846874Q396.47186 31.690624 396.47186 29.659374Q396.47186 27.596874 397.55 26.45625Q398.64374 25.315624 400.4875 25.315624Q402.0031 25.315624 402.89374 25.971874Q403.8 26.6125 404.1906 27.95625ZM411.40936 33.8L411.40936 32.55Q410.95624 33.221874 410.22186 33.6125Q409.4875 33.9875 408.65936 33.9875Q407.83124 33.9875 407.15936 33.628124Q406.5031 33.253124 406.20624 32.596874Q405.90936 31.925 405.90936 30.753124L405.90936 25.503124L408.09686 25.503124L408.09686 29.315624Q408.09686 31.065624 408.22186 31.45625Q408.34686 31.846874 408.65936 32.08125Q408.9875 32.315624 409.47186 32.315624Q410.03436 32.315624 410.47186 32.003124Q410.925 31.690624 411.08124 31.2375Q411.2531 30.784374 411.2531 29.003124L411.2531 25.503124L413.45624 25.503124L413.45624 33.8L411.40936 33.8ZM415.78436 25.503124L417.8156 25.503124L417.8156 26.628124Q418.89374 25.315624 420.39374 25.315624Q421.1906 25.315624 421.76874 25.64375Q422.3625 25.971874 422.7375 26.628124Q423.28436 25.971874 423.90936 25.64375Q424.55 25.315624 425.26874 25.315624Q426.1906 25.315624 426.8156 25.690624Q427.45624 26.05 427.76874 26.76875Q427.9875 27.3 427.9875 28.4875L427.9875 33.8L425.8 33.8L425.8 29.05Q425.8 27.815624 425.5656 27.45625Q425.26874 26.9875 424.6281 26.9875Q424.175 26.9875 423.76874 27.26875Q423.3625 27.55 423.175 28.096874Q423.0031 28.64375 423.0031 29.815624L423.0031 33.8L420.8 33.8L420.8 29.253124Q420.8 28.034374 420.675 27.690624Q420.5656 27.33125 420.3156 27.159374Q420.08124 26.9875 419.65936 26.9875Q419.14374 26.9875 418.7375 27.26875Q418.33124 27.534374 418.15936 28.05Q417.9875 28.565624 417.9875 29.76875L417.9875 33.8L415.78436 33.8L415.78436 25.503124ZM434.7531 31.159374L436.9406 31.51875Q436.51874 32.721874 435.6125 33.3625Q434.70624 33.9875 433.33124 33.9875Q431.175 33.9875 430.1281 32.565624Q429.3156 31.440624 429.3156 29.70625Q429.3156 27.64375 430.39374 26.4875Q431.47186 25.315624 433.1125 25.315624Q434.97186 25.315624 436.03436 26.534374Q437.1125 27.753124 437.0656 30.284374L431.5656 30.284374Q431.58124 31.253124 432.08124 31.8Q432.59686 32.346874 433.3625 32.346874Q433.8781 32.346874 434.22186 32.065624Q434.58124 31.784374 434.7531 31.159374ZM434.8781 28.940624Q434.8625 27.9875 434.39374 27.4875Q433.925 26.9875 433.2531 26.9875Q432.53436 26.9875 432.0656 27.51875Q431.59686 28.034374 431.59686 28.940624L434.8781 28.940624ZM446.5031 33.8L444.3 33.8L444.3 29.565624Q444.3 28.221874 444.15936 27.83125Q444.01874 27.425 443.70624 27.20625Q443.39374 26.9875 442.9406 26.9875Q442.3781 26.9875 441.925 27.3Q441.47186 27.6125 441.3 28.128124Q441.1281 28.64375 441.1281 30.034374L441.1281 33.8L438.9406 33.8L438.9406 25.503124L440.97186 25.503124L440.97186 26.721874Q442.0656 25.315624 443.70624 25.315624Q444.4406 25.315624 445.03436 25.58125Q445.64374 25.83125 445.9406 26.2375Q446.2531 26.64375 446.3781 27.159374Q446.5031 27.675 446.5031 28.64375L446.5031 33.8ZM452.7531 25.503124L452.7531 27.253124L451.2531 27.253124L451.2531 30.596874Q451.2531 31.6125 451.3 31.784374Q451.34686 31.940624 451.4875 32.05Q451.64374 32.159374 451.8625 32.159374Q452.175 32.159374 452.7531 31.95625L452.9406 33.659374Q452.175 33.9875 451.20624 33.9875Q450.6125 33.9875 450.1281 33.784374Q449.65936 33.58125 449.425 33.26875Q449.20624 32.95625 449.1281 32.409374Q449.05 32.034374 449.05 30.8625L449.05 27.253124L448.05 27.253124L448.05 25.503124L449.05 25.503124L449.05 23.846874L451.2531 22.565624L451.2531 25.503124L452.7531 25.503124ZM455.59686 28.034374L453.59686 27.675Q453.9406 26.471874 454.7531 25.89375Q455.58124 25.315624 457.1906 25.315624Q458.65936 25.315624 459.3781 25.659374Q460.09686 26.003124 460.39374 26.55Q460.6906 27.08125 460.6906 28.503124L460.65936 31.065624Q460.65936 32.159374 460.76874 32.690624Q460.8781 33.20625 461.15936 33.8L458.9875 33.8Q458.90936 33.58125 458.78436 33.14375Q458.72186 32.95625 458.70624 32.89375Q458.14374 33.440624 457.5031 33.721874Q456.8625 33.9875 456.1281 33.9875Q454.84686 33.9875 454.1125 33.3Q453.3781 32.596874 453.3781 31.534374Q453.3781 30.83125 453.70624 30.284374Q454.05 29.721874 454.64374 29.440624Q455.2531 29.14375 456.39374 28.925Q457.9406 28.628124 458.53436 28.378124L458.53436 28.159374Q458.53436 27.534374 458.22186 27.26875Q457.90936 26.9875 457.03436 26.9875Q456.45624 26.9875 456.1281 27.221874Q455.8 27.45625 455.59686 28.034374ZM458.53436 29.815624Q458.1125 29.95625 457.1906 30.159374Q456.28436 30.346874 456.0031 30.534374Q455.5656 30.83125 455.5656 31.3Q455.5656 31.76875 455.90936 32.1125Q456.2531 32.440624 456.78436 32.440624Q457.3781 32.440624 457.925 32.05Q458.3156 31.753124 458.4406 31.315624Q458.53436 31.034374 458.53436 30.253124L458.53436 29.815624ZM466.7531 25.503124L466.7531 27.253124L465.2531 27.253124L465.2531 30.596874Q465.2531 31.6125 465.3 31.784374Q465.34686 31.940624 465.4875 32.05Q465.64374 32.159374 465.8625 32.159374Q466.175 32.159374 466.7531 31.95625L466.9406 33.659374Q466.175 33.9875 465.20624 33.9875Q464.6125 33.9875 464.1281 33.784374Q463.65936 33.58125 463.425 33.26875Q463.20624 32.95625 463.1281 32.409374Q463.05 32.034374 463.05 30.8625L463.05 27.253124L462.05 27.253124L462.05 25.503124L463.05 25.503124L463.05 23.846874L465.2531 22.565624L465.2531 25.503124L466.7531 25.503124ZM467.95624 24.378124L467.95624 22.346874L470.14374 22.346874L470.14374 24.378124L467.95624 24.378124ZM467.95624 33.8L467.95624 25.503124L470.14374 25.503124L470.14374 33.8L467.95624 33.8ZM471.4406 29.534374Q471.4406 28.440624 471.97186 27.425Q472.51874 26.39375 473.5031 25.8625Q474.5031 25.315624 475.72186 25.315624Q477.59686 25.315624 478.8 26.534374Q480.0031 27.753124 480.0031 29.628124Q480.0031 31.503124 478.78436 32.753124Q477.58124 33.9875 475.7375 33.9875Q474.59686 33.9875 473.55 33.471874Q472.51874 32.95625 471.97186 31.95625Q471.4406 30.95625 471.4406 29.534374ZM473.6906 29.64375Q473.6906 30.878124 474.26874 31.534374Q474.8625 32.190624 475.72186 32.190624Q476.58124 32.190624 477.15936 31.534374Q477.7531 30.878124 477.7531 29.628124Q477.7531 28.409374 477.15936 27.753124Q476.58124 27.096874 475.72186 27.096874Q474.8625 27.096874 474.26874 27.753124Q473.6906 28.409374 473.6906 29.64375ZM489.5031 33.8L487.3 33.8L487.3 29.565624Q487.3 28.221874 487.15936 27.83125Q487.01874 27.425 486.70624 27.20625Q486.39374 26.9875 485.9406 26.9875Q485.3781 26.9875 484.925 27.3Q484.47186 27.6125 484.3 28.128124Q484.1281 28.64375 484.1281 30.034374L484.1281 33.8L481.9406 33.8L481.9406 25.503124L483.97186 25.503124L483.97186 26.721874Q485.0656 25.315624 486.70624 25.315624Q487.4406 25.315624 488.03436 25.58125Q488.64374 25.83125 488.9406 26.2375Q489.2531 26.64375 489.3781 27.159374Q489.5031 27.675 489.5031 28.64375L489.5031 33.8ZM496.675 30.846874L494.675 30.846874Q494.675 30.409374 494.675 30.315624Q494.675 29.346874 494.9875 28.721874Q495.3156 28.096874 496.26874 27.315624Q497.2375 26.534374 497.425 26.3Q497.70624 25.909374 497.70624 25.45625Q497.70624 24.815624 497.1906 24.3625Q496.6906 23.89375 495.8156 23.89375Q494.9875 23.89375 494.425 24.378124Q493.8625 24.846874 493.64374 25.83125L491.6281 25.58125Q491.72186 24.175 492.8156 23.20625Q493.925 22.221874 495.72186 22.221874Q497.6125 22.221874 498.72186 23.221874Q499.84686 24.20625 499.84686 25.51875Q499.84686 26.2375 499.4406 26.89375Q499.03436 27.534374 497.6906 28.659374Q496.9875 29.2375 496.8156 29.596874Q496.65936 29.940624 496.675 30.846874ZM494.675 33.8L494.675 31.596874L496.8781 31.596874L496.8781 33.8L494.675 33.8Z" fill-rule="nonzero"/></svg>