<?xml version="1.0"?>
<svg xmlns="http://www.w3.org/2000/svg" xmlns:xlink="http://www.w3.org/1999/xlink" id="Layer_1" data-name="Layer 1" viewBox="0 0 1180 730">
  <defs>
    <style>.cls-1{fill:none;}.cls-2{fill:#e5e0fc;}.cls-3{fill:#e24329;}.cls-4{fill:#fca326;}.cls-5{fill:#fc6d26;}.cls-6{fill:#afaae5;}.cls-7{fill:#f9f7ff;}.cls-8{fill:#cab5ff;}.cls-9{fill:#ac7fff;}.cls-10{fill:#fff;}.cls-11{fill:#978ace;}.cls-12{fill:#00cfb4;}.cls-13{fill:#380d75;}.cls-14{fill:#4beacc;}.cls-15{fill:#f968b3;}.cls-16{fill:#5ac4ff;}.cls-17{fill:#ffc46c;}.cls-18{fill:#ffd8cc;}.cls-19{clip-path:url(#clip-path);}.cls-20{clip-path:url(#clip-path-2);}.cls-21{clip-path:url(#clip-path-3);}.cls-22{clip-path:url(#clip-path-4);}.cls-23{clip-path:url(#clip-path-5);}.cls-24{clip-path:url(#clip-path-6);}.cls-25{clip-path:url(#clip-path-7);}.cls-26{clip-path:url(#clip-path-8);}.cls-27{clip-path:url(#clip-path-9);}.cls-28{clip-path:url(#clip-path-10);}.cls-29{clip-path:url(#clip-path-11);}.cls-30{clip-path:url(#clip-path-12);}.cls-31{opacity:0.2;}</style>
    <clipPath id="clip-path">
      <path class="cls-1" d="M34.88,111.55H33.54a2.74,2.74,0,0,1,0-5.47h1.34Z"/>
    </clipPath>
    <clipPath id="clip-path-2">
      <path class="cls-1" d="M59.56,106.08H60.9a2.74,2.74,0,0,1,0,5.47H59.56Z"/>
    </clipPath>
    <clipPath id="clip-path-3">
      <path class="cls-1" d="M102.82,106.08h1.34a2.74,2.74,0,1,1,0,5.47h-1.34Z"/>
    </clipPath>
    <clipPath id="clip-path-4">
      <path class="cls-1" d="M81.61,111.55H80.27a2.74,2.74,0,0,1,0-5.47h1.34Z"/>
    </clipPath>
    <clipPath id="clip-path-5">
      <path class="cls-1" d="M447.69,259.46h-1.34a2.74,2.74,0,1,1,0-5.47h1.34Z"/>
    </clipPath>
    <clipPath id="clip-path-6">
      <path class="cls-1" d="M472.36,254h1.34a2.74,2.74,0,1,1,0,5.47h-1.34Z"/>
    </clipPath>
    <clipPath id="clip-path-7">
      <path class="cls-1" d="M515.63,254H517a2.74,2.74,0,0,1,0,5.47h-1.34Z"/>
    </clipPath>
    <clipPath id="clip-path-8">
      <path class="cls-1" d="M494.42,259.46h-1.34a2.74,2.74,0,1,1,0-5.47h1.34Z"/>
    </clipPath>
    <clipPath id="clip-path-9">
      <path class="cls-1" d="M1078.89,168.15h-1.34a2.74,2.74,0,1,1,0-5.47h1.34Z"/>
    </clipPath>
    <clipPath id="clip-path-10">
      <path class="cls-1" d="M1103.56,162.68h1.34a2.74,2.74,0,1,1,0,5.47h-1.34Z"/>
    </clipPath>
    <clipPath id="clip-path-11">
      <path class="cls-1" d="M1146.83,162.68h1.34a2.74,2.74,0,0,1,0,5.47h-1.34Z"/>
    </clipPath>
    <clipPath id="clip-path-12">
      <path class="cls-1" d="M1125.62,168.15h-1.34a2.74,2.74,0,1,1,0-5.47h1.34Z"/>
    </clipPath>
  </defs>
  <path class="cls-2" d="M474.14,331.44V393a9.36,9.36,0,0,1-9.36,9.36h-99.5a9.36,9.36,0,0,1-9.36-9.36V331.44h-8.85v61.3a18.45,18.45,0,0,0,18.45,18.46h99A18.45,18.45,0,0,0,483,392.74v-61.3Z"/>
  <g id="path50">
    <path class="cls-3" d="M610.3,177.72h0l18.92-58.21H591.4l18.9,58.21Z"/>
  </g>
  <g id="path66">
    <path class="cls-4" d="M564.89,119.51h0l-5.76,17.69a3.91,3.91,0,0,0,1.42,4.37l49.75,36.15-45.41-58.21Z"/>
  </g>
  <g id="path74">
    <path class="cls-3" d="M564.89,119.51H591.4L580,84.45a2,2,0,0,0-3.73,0l-11.37,35.06Z"/>
  </g>
  <g id="path82">
    <path class="cls-4" d="M655.73,119.51h0l5.74,17.69a3.91,3.91,0,0,1-1.42,4.37L610.3,177.72l45.43-58.21Z"/>
  </g>
  <g id="path86">
    <path class="cls-3" d="M655.73,119.51H629.22l11.39-35.06a2,2,0,0,1,3.73,0l11.39,35.06Z"/>
  </g>
  <polygon class="cls-5" points="610.3 177.72 629.22 119.51 655.73 119.51 610.3 177.72"/>
  <polygon class="cls-5" points="610.3 177.72 564.89 119.51 591.4 119.51 610.3 177.72"/>
  <rect class="cls-6" x="309.1" y="75.28" width="23.56" height="18.72" transform="translate(153.84 -202.1) rotate(45)"/>
  <rect class="cls-7" x="280.04" y="79.13" width="37.3" height="55.39" transform="translate(163.02 -179.92) rotate(45)"/>
  <polyline class="cls-2" points="298.96 132.76 354.62 188.42 380.29 162.75 324.63 107.09"/>
  <polyline class="cls-6" points="298.96 132.76 304.04 137.84 329.71 112.17 324.63 107.09"/>
  <rect class="cls-8" x="263.33" y="124.75" width="23.56" height="11.33" transform="translate(172.79 -156.33) rotate(45)"/>
  <path class="cls-8" d="M322.92,35.79A33.1,33.1,0,0,0,369.73,82.6Z"/>
  <polyline class="cls-2" points="298.34 80.8 242.77 25.23 217.1 50.9 272.67 106.47"/>
  <path class="cls-7" d="M929.22,69.38h0A11.77,11.77,0,0,0,919.31,64H885.52a11.77,11.77,0,0,0-9.91,5.41h0a11.77,11.77,0,0,1-9.91,5.42H847.42v16h9a18.63,18.63,0,0,1,18.2,14.68l1.32,6.09a14.35,14.35,0,0,0,14,11.31h24.91a14.35,14.35,0,0,0,14-11.31l1.32-6.09a18.63,18.63,0,0,1,18.2-14.68h9v-16H939.13A11.77,11.77,0,0,1,929.22,69.38Z"/>
  <circle class="cls-9" cx="902.41" cy="100.23" r="7.3"/>
  <polyline class="cls-6" points="267.13 100.93 272.21 106.01 297.88 80.34 292.8 75.26"/>
  <rect class="cls-2" x="836.31" y="36.69" width="11.11" height="63.55" rx="5.56"/>
  <rect class="cls-2" x="957.44" y="36.69" width="11.11" height="63.55" rx="5.56"/>
  <rect class="cls-7" x="54.54" y="351.67" width="76.75" height="135.05"/>
  <rect class="cls-8" x="131.3" y="388.75" width="41.99" height="97.96" transform="translate(304.58 875.47) rotate(180)"/>
  <rect class="cls-9" x="131.3" y="388.75" width="8.78" height="97.96" transform="translate(271.37 875.47) rotate(180)"/>
  <circle class="cls-9" cx="152.44" cy="407.75" r="8.19"/>
  <rect class="cls-6" x="75.79" y="369.75" width="34.88" height="11.51" transform="translate(186.45 751.02) rotate(-180)"/>
  <rect class="cls-2" x="173.28" y="409.89" width="43.61" height="76.83"/>
  <path class="cls-8" d="M364.77,306.49H465.3a8.84,8.84,0,0,1,8.84,8.84v10.89a0,0,0,0,1,0,0H355.92a0,0,0,0,1,0,0V315.34A8.84,8.84,0,0,1,364.77,306.49Z"/>
  <rect class="cls-6" x="173.28" y="409.89" width="6.82" height="76.83" transform="translate(353.39 896.6) rotate(180)"/>
  <path class="cls-10" d="M355.92,326.23H473.7a0,0,0,0,1,0,0v67.16a9,9,0,0,1-9,9H364.88a9,9,0,0,1-9-9V326.23A0,0,0,0,1,355.92,326.23Z"/>
  <path class="cls-2" d="M380.55,470.19h69.54a7.56,7.56,0,0,1,7.56,7.56v9a0,0,0,0,1,0,0H373a0,0,0,0,1,0,0v-9A7.56,7.56,0,0,1,380.55,470.19Z"/>
  <rect class="cls-2" x="391.85" y="442.04" width="46.1" height="30.89"/>
  <path class="cls-6" d="M324.81,424.78H505.26a0,0,0,0,1,0,0v15.34a7,7,0,0,1-7,7H331.78a7,7,0,0,1-7-7V424.78A0,0,0,0,1,324.81,424.78Z"/>
  <path class="cls-6" d="M902.06,234.19h146a10.29,10.29,0,0,1,10.29,10.29v99.59a0,0,0,0,1,0,0H891.77a0,0,0,0,1,0,0V244.48A10.29,10.29,0,0,1,902.06,234.19Z"/>
  <rect class="cls-10" x="906.78" y="249.2" width="136.52" height="93.99"/>
  <rect class="cls-2" x="906.78" y="333.64" width="136.52" height="9.55"/>
  <rect class="cls-11" x="1043.3" y="333.64" width="15.01" height="9.55" transform="translate(2101.61 676.83) rotate(180)"/>
  <rect class="cls-11" x="891.77" y="333.64" width="15.01" height="9.55" transform="translate(1798.55 676.83) rotate(180)"/>
  <path class="cls-9" d="M975,322.58c-24.76-7.55-45.83-29.16-45.83-57.35V225.59A39.43,39.43,0,0,0,975,211.4h0a39.43,39.43,0,0,0,45.83,14.19v39.64c0,28.19-21.07,49.8-45.83,57.35"/>
  <rect class="cls-2" x="957.34" y="266.26" width="35.4" height="24.98"/>
  <rect class="cls-10" x="940.43" y="531.69" width="143.8" height="187.96" transform="translate(2024.66 1251.33) rotate(180)"/>
  <path class="cls-2" d="M967.61,532v7.87a6.2,6.2,0,0,0,6.19,6.2h18.08a3.53,3.53,0,0,1,3.54,3.54v18.84A3.55,3.55,0,0,0,999,572h26.72a3.55,3.55,0,0,0,3.55-3.54V548.65a3.54,3.54,0,0,1,3.54-3.54h17.13a6.2,6.2,0,0,0,6.2-6.2V532Z"/>
  <rect class="cls-2" x="960.01" y="577.55" width="13.72" height="13.72"/>
  <rect class="cls-2" x="990.32" y="577.55" width="13.72" height="13.72"/>
  <rect class="cls-2" x="1020.63" y="577.55" width="13.72" height="13.72"/>
  <rect class="cls-2" x="1050.94" y="577.55" width="13.72" height="13.72"/>
  <rect class="cls-2" x="960.01" y="607.86" width="13.72" height="13.72"/>
  <rect class="cls-2" x="990.32" y="607.86" width="13.72" height="13.72"/>
  <rect class="cls-2" x="1020.63" y="607.86" width="13.72" height="13.72"/>
  <rect class="cls-2" x="1050.94" y="607.86" width="13.72" height="13.72"/>
  <rect class="cls-2" x="960.01" y="638.16" width="13.72" height="13.72"/>
  <rect class="cls-2" x="990.32" y="638.16" width="13.72" height="13.72"/>
  <rect class="cls-2" x="1020.63" y="638.16" width="13.72" height="13.72"/>
  <rect class="cls-2" x="1050.94" y="638.16" width="13.72" height="13.72"/>
  <rect class="cls-2" x="960.01" y="668.47" width="13.72" height="13.72"/>
  <rect class="cls-2" x="990.32" y="668.47" width="13.72" height="13.72"/>
  <rect class="cls-2" x="1020.63" y="668.47" width="13.72" height="13.72"/>
  <rect class="cls-2" x="1050.94" y="668.47" width="13.72" height="13.72"/>
  <polyline class="cls-2" points="960.01 719.14 960.01 698.78 973.73 698.78 973.73 719.14"/>
  <polyline class="cls-2" points="990.32 719.14 990.32 698.78 1034.34 698.78 1034.34 719.14"/>
  <polyline class="cls-2" points="1050.93 719.14 1050.93 698.78 1064.65 698.78 1064.65 719.14"/>
  <polygon class="cls-8" points="1051.38 516.02 1023.57 516.02 1023.57 488.21 1001.1 488.21 1001.1 516.02 973.28 516.02 973.28 538.49 1001.1 538.49 1001.1 566.31 1023.57 566.31 1023.57 538.49 1051.38 538.49 1051.38 516.02"/>
  <rect class="cls-8" x="721.19" y="282.94" width="31.59" height="22.31"/>
  <rect class="cls-7" x="540.93" y="494.99" width="49.62" height="87.86" transform="translate(1131.47 1077.83) rotate(180)"/>
  <rect class="cls-7" x="638.46" y="416.09" width="165.45" height="42.26"/>
  <rect class="cls-2" x="659.55" y="396.6" width="123.57" height="18.92"/>
  <rect class="cls-2" x="638.46" y="451.91" width="165.45" height="6.45"/>
  <rect class="cls-2" x="685.1" y="429.44" width="12.2" height="14.99"/>
  <rect class="cls-2" x="657.51" y="429.44" width="12.2" height="14.99"/>
  <rect class="cls-2" x="712.7" y="429.44" width="12.2" height="14.99"/>
  <rect class="cls-2" x="740.29" y="429.44" width="12.2" height="14.99"/>
  <rect class="cls-2" x="767.89" y="429.44" width="12.2" height="14.99"/>
  <rect class="cls-2" x="608.54" y="526.82" width="10.24" height="23.58"/>
  <rect class="cls-2" x="608.54" y="502.85" width="10.24" height="10.24"/>
  <rect class="cls-2" x="560.65" y="545.65" width="10.24" height="23.58"/>
  <rect class="cls-2" x="560.65" y="521.67" width="10.24" height="10.24"/>
  <path class="cls-2" d="M722.65,539.28h0a14,14,0,0,1,14,14v30.45a0,0,0,0,1,0,0h-28a0,0,0,0,1,0,0V553.3A14,14,0,0,1,722.65,539.28Z"/>
  <rect class="cls-8" x="635.36" y="488.75" width="174.58" height="14.1"/>
  <path class="cls-2" d="M875.7,344.07h198a0,0,0,0,1,0,0v5.31a14.7,14.7,0,0,1-14.7,14.7H890.41a14.7,14.7,0,0,1-14.7-14.7v-5.31a0,0,0,0,1,0,0Z"/>
  <path class="cls-2" d="M633.17,502.51H812a0,0,0,0,1,0,0V507a3.48,3.48,0,0,1-3.48,3.48H636.65a3.48,3.48,0,0,1-3.48-3.48v-4.51a0,0,0,0,1,0,0Z"/>
  <rect class="cls-7" x="640.96" y="502.85" width="13.83" height="79.99"/>
  <rect class="cls-7" x="675.07" y="502.85" width="13.83" height="79.99"/>
  <rect class="cls-7" x="755.17" y="502.85" width="13.83" height="79.99"/>
  <rect class="cls-7" x="790.23" y="502.85" width="13.83" height="79.99"/>
  <rect class="cls-7" x="851.74" y="494.99" width="49.62" height="87.86" transform="translate(1753.1 1077.83) rotate(180)"/>
  <rect class="cls-7" x="879.05" y="567.57" width="61.38" height="152.08"/>
  <rect class="cls-2" x="932.32" y="567.57" width="8.11" height="152.08"/>
  <rect class="cls-2" x="896.02" y="614.5" width="27.87" height="13.72"/>
  <rect class="cls-2" x="896.02" y="584.19" width="27.87" height="13.72"/>
  <rect class="cls-2" x="896.02" y="644.81" width="27.87" height="13.72"/>
  <rect class="cls-2" x="896.02" y="675.11" width="27.87" height="13.72"/>
  <rect class="cls-7" x="1084.23" y="567.57" width="61.38" height="152.08" transform="translate(2229.84 1287.21) rotate(-180)"/>
  <rect class="cls-2" x="1084.23" y="567.57" width="8.11" height="152.08" transform="translate(2176.57 1287.21) rotate(-180)"/>
  <rect class="cls-2" x="1100.77" y="614.5" width="27.87" height="13.72" transform="translate(2229.4 1242.71) rotate(-180)"/>
  <rect class="cls-2" x="1100.77" y="584.19" width="27.87" height="13.72" transform="translate(2229.4 1182.09) rotate(-180)"/>
  <rect class="cls-2" x="1100.77" y="644.81" width="27.87" height="13.72" transform="translate(2229.4 1303.33) rotate(-180)"/>
  <rect class="cls-2" x="1100.77" y="675.11" width="27.87" height="13.72" transform="translate(2229.4 1363.94) rotate(-180)"/>
  <rect class="cls-2" x="823.12" y="526.82" width="10.24" height="23.58" transform="translate(1656.48 1077.23) rotate(-180)"/>
  <rect class="cls-2" x="823.12" y="502.85" width="10.24" height="10.24" transform="translate(1656.48 1015.94) rotate(-180)"/>
  <rect class="cls-2" x="871.43" y="545.65" width="10.24" height="23.58" transform="translate(1753.1 1114.87) rotate(-180)"/>
  <rect class="cls-2" x="871.43" y="521.67" width="10.24" height="10.24" transform="translate(1753.1 1053.59) rotate(-180)"/>
  <rect class="cls-2" x="582.61" y="494.99" width="7.93" height="87.86" transform="translate(1173.16 1077.83) rotate(180)"/>
  <rect class="cls-2" x="540.93" y="505.99" width="46.21" height="5.49"/>
  <rect class="cls-2" x="854.88" y="505.99" width="46.21" height="5.49"/>
  <rect class="cls-2" x="590" y="470.19" width="260.92" height="5.49"/>
  <rect class="cls-2" x="850.92" y="494.99" width="7.93" height="87.86" transform="translate(1709.77 1077.83) rotate(180)"/>
  <rect class="cls-2" x="741.6" y="622.94" width="89.22" height="96.7" rx="7.27"/>
  <rect class="cls-10" x="753.4" y="634.74" width="64.46" height="72.6"/>
  <polygon class="cls-8" points="287.55 604.08 214.91 604.08 156.29 545.86 96.64 604.08 25.04 604.08 48.9 549.86 262.96 549.86 287.55 604.08"/>
  <path class="cls-9" d="M797.64,616.6a11.84,11.84,0,0,0-22.85,0h-8.23v20.69h39.3V616.6Z"/>
  <polygon class="cls-10" points="267.4 718.66 45.18 718.66 45.18 604.08 100.07 604.08 156.29 545.86 214.91 604.08 267.92 604.08 267.4 718.66"/>
  <circle class="cls-10" cx="156.29" cy="600.84" r="21.56"/>
  <rect class="cls-2" x="45.18" y="703.33" width="222.22" height="15.33"/>
  <rect class="cls-6" x="195.09" y="703.33" width="7.84" height="15.33"/>
  <rect class="cls-6" x="109.94" y="703.33" width="7.84" height="15.33"/>
  <rect class="cls-2" x="212.78" y="633.37" width="29.55" height="36.5"/>
  <rect class="cls-2" x="69.78" y="633.37" width="29.55" height="36.5"/>
  <rect class="cls-2" x="131.1" y="641.28" width="50.38" height="53.58"/>
  <rect class="cls-8" x="131.1" y="641.28" width="50.38" height="14.32"/>
  <rect class="cls-8" x="118.44" y="696.69" width="75.71" height="21.98"/>
  <path class="cls-2" d="M435.76,721.66H385a2.08,2.08,0,0,1,0-4.16h50.79A11.22,11.22,0,0,0,447,706.3V672.09a16,16,0,0,1,16-16h42.37a2.09,2.09,0,1,1,0,4.17H463a11.84,11.84,0,0,0-11.83,11.82V706.3A15.38,15.38,0,0,1,435.76,721.66Z"/>
  <path class="cls-6" d="M506.18,381.88a2.07,2.07,0,0,1-1.47-.61,2.09,2.09,0,0,1,0-2.95l2.69-2.68a49.1,49.1,0,0,1,34.31-14.39H642.77a2.08,2.08,0,1,1,0,4.16h-101a45,45,0,0,0-31.4,13.17l-2.68,2.69A2.07,2.07,0,0,1,506.18,381.88Z"/>
  <path class="cls-6" d="M655.25,365.41H623.59a15.38,15.38,0,0,1-15.36-15.36V211.56a2.09,2.09,0,0,1,4.17,0V350.05a11.21,11.21,0,0,0,11.19,11.2h31.66a2.08,2.08,0,1,1,0,4.16Z"/>
  <path class="cls-6" d="M597,365.41h-55.3a2.08,2.08,0,1,1,0-4.16H597a11.21,11.21,0,0,0,11.2-11.2V336.28a2.09,2.09,0,1,1,4.17,0v13.77A15.38,15.38,0,0,1,597,365.41Z"/>
  <path class="cls-2" d="M961.76,433.36H931.09a2.09,2.09,0,0,1,0-4.17h30.67A11.21,11.21,0,0,0,973,418V372.27a2.08,2.08,0,0,1,4.16,0V418A15.38,15.38,0,0,1,961.76,433.36Z"/>
  <path class="cls-2" d="M830.82,460.44a2.09,2.09,0,0,1-2.08-2.09V444.56a15.39,15.39,0,0,1,15.36-15.37h37.18a2.09,2.09,0,0,1,0,4.17H844.1a11.21,11.21,0,0,0-11.2,11.2v13.79A2.09,2.09,0,0,1,830.82,460.44Z"/>
  <path class="cls-2" d="M865.77,660.25H832.06a2.09,2.09,0,0,1,0-4.17h33.71A11.21,11.21,0,0,0,877,644.88V622.94a2.09,2.09,0,0,1,4.17,0v21.94A15.38,15.38,0,0,1,865.77,660.25Z"/>
  <path class="cls-2" d="M576.4,660.25H555.14a2.09,2.09,0,1,1,0-4.17H576.4a2.09,2.09,0,1,1,0,4.17Z"/>
  <path class="cls-2" d="M647.48,660.25H626.22a2.09,2.09,0,0,1,0-4.17h21.26a2.09,2.09,0,1,1,0,4.17Z"/>
  <path class="cls-2" d="M740.29,660.25h-40.9a2.09,2.09,0,1,1,0-4.17h40.9a2.09,2.09,0,1,1,0,4.17Z"/>
  <path class="cls-12" d="M530.23,685.16a27,27,0,1,1,27-27A27,27,0,0,1,530.23,685.16Zm0-49.82a22.83,22.83,0,1,0,22.82,22.83A22.85,22.85,0,0,0,530.23,635.34Z"/>
  <path class="cls-13" d="M526.7,666.36a2.05,2.05,0,0,1-1.47-.61l-5.12-5.12a2.08,2.08,0,1,1,2.94-3l3.65,3.65,10.71-10.71a2.08,2.08,0,0,1,2.94,3l-12.18,12.18A2.05,2.05,0,0,1,526.7,666.36Z"/>
  <path class="cls-12" d="M672.39,685.16a27,27,0,1,1,27-27A27,27,0,0,1,672.39,685.16Zm0-49.82a22.83,22.83,0,1,0,22.83,22.83A22.85,22.85,0,0,0,672.39,635.34Z"/>
  <path class="cls-13" d="M668.86,666.36a2.07,2.07,0,0,1-1.47-.61l-5.12-5.12a2.09,2.09,0,0,1,3-3l3.64,3.65,10.71-10.71a2.09,2.09,0,1,1,2.95,3l-12.18,12.18A2.07,2.07,0,0,1,668.86,666.36Z"/>
  <path class="cls-12" d="M601.31,685.16a27,27,0,1,1,27-27A27,27,0,0,1,601.31,685.16Zm0-49.82a22.83,22.83,0,1,0,22.83,22.83A22.85,22.85,0,0,0,601.31,635.34Z"/>
  <path class="cls-13" d="M597.78,666.36a2.05,2.05,0,0,1-1.47-.61l-5.12-5.12a2.09,2.09,0,1,1,2.95-3l3.64,3.65,10.71-10.71a2.08,2.08,0,1,1,2.94,3l-12.18,12.18A2.05,2.05,0,0,1,597.78,666.36Z"/>
  <path class="cls-2" d="M1098.83,433.36a2.08,2.08,0,0,1-2.08-2.08v-54.5a11.21,11.21,0,0,0-11.2-11.2h-64.92a2.09,2.09,0,1,1,0-4.17h64.92a15.38,15.38,0,0,1,15.36,15.37v54.5A2.08,2.08,0,0,1,1098.83,433.36Z"/>
  <path class="cls-2" d="M252.43,449.17H216.91a2.09,2.09,0,0,1,0-4.17h35.52a13.43,13.43,0,0,0,13.41-13.41V389.26a2.09,2.09,0,0,1,4.17,0v42.33A17.6,17.6,0,0,1,252.43,449.17Z"/>
  <path class="cls-13" d="M54.54,482a2.09,2.09,0,0,1-2.08-2.09V351.67a2.09,2.09,0,0,1,2.08-2.09h77.37a2.09,2.09,0,0,1,2.08,2.09v125.7a2.09,2.09,0,0,1-4.17,0V353.75H56.63V479.86A2.09,2.09,0,0,1,54.54,482Z"/>
  <path class="cls-13" d="M131.91,486a2.09,2.09,0,0,1-2.09-2.08V388.75a2.09,2.09,0,0,1,2.09-2.08h41.37a2.08,2.08,0,0,1,2.09,2.08v26.43a2.09,2.09,0,0,1-4.17,0V390.84H134v93.08A2.08,2.08,0,0,1,131.91,486Z"/>
  <path class="cls-13" d="M216.89,488.8a2.08,2.08,0,0,1-2.08-2.08V412H175.37v73.84a2.09,2.09,0,0,1-4.17,0V409.89a2.08,2.08,0,0,1,2.08-2.09h43.61a2.09,2.09,0,0,1,2.09,2.09v76.83A2.09,2.09,0,0,1,216.89,488.8Z"/>
  <path class="cls-13" d="M152.44,418a10.27,10.27,0,1,1,10.28-10.27A10.28,10.28,0,0,1,152.44,418Zm0-16.38a6.11,6.11,0,1,0,6.11,6.11A6.11,6.11,0,0,0,152.44,401.64Z"/>
  <path class="cls-13" d="M152.44,451.17a2.09,2.09,0,0,1-2.08-2.09V425.59a2.09,2.09,0,0,1,4.17,0v23.49A2.09,2.09,0,0,1,152.44,451.17Z"/>
  <path class="cls-13" d="M162.6,464.3H142.29a2.09,2.09,0,0,1,0-4.17H162.6a2.09,2.09,0,0,1,0,4.17Z"/>
  <path class="cls-13" d="M162.6,476.71H142.29a2.09,2.09,0,0,1,0-4.17H162.6a2.09,2.09,0,0,1,0,4.17Z"/>
  <path class="cls-13" d="M202.93,424.16H187.25a2.09,2.09,0,0,1,0-4.17h15.68a2.09,2.09,0,0,1,0,4.17Z"/>
  <path class="cls-13" d="M202.93,434.14H187.25a2.09,2.09,0,0,1,0-4.17h15.68a2.09,2.09,0,0,1,0,4.17Z"/>
  <path class="cls-13" d="M202.93,444.12H187.25a2.08,2.08,0,0,1,0-4.16h15.68a2.08,2.08,0,0,1,0,4.16Z"/>
  <path class="cls-13" d="M202.93,454.11H187.25a2.09,2.09,0,0,1,0-4.17h15.68a2.09,2.09,0,0,1,0,4.17Z"/>
  <path class="cls-13" d="M202.93,464.09H187.25a2.09,2.09,0,0,1,0-4.17h15.68a2.09,2.09,0,0,1,0,4.17Z"/>
  <path class="cls-13" d="M110.67,383.35H75.79a2.08,2.08,0,0,1-2.09-2.09V369.75a2.08,2.08,0,0,1,2.09-2.08h34.88a2.08,2.08,0,0,1,2.08,2.08v11.51A2.08,2.08,0,0,1,110.67,383.35Zm-32.8-4.17h30.71v-7.34H77.87Z"/>
  <path class="cls-13" d="M110.69,454H75.76a2.09,2.09,0,0,1,0-4.17h34.93a2.09,2.09,0,1,1,0,4.17Z"/>
  <path class="cls-13" d="M110.69,462.78H75.76a2.08,2.08,0,0,1,0-4.16h34.93a2.08,2.08,0,1,1,0,4.16Z"/>
  <circle class="cls-13" cx="107.38" cy="440.75" r="3.41"/>
  <circle class="cls-13" cx="93.23" cy="440.75" r="3.41"/>
  <circle class="cls-13" cx="79.07" cy="440.75" r="3.41"/>
  <path class="cls-2" d="M818.1,365.58a2.08,2.08,0,0,1-2.09-2.09V253.74a2.08,2.08,0,0,1,2.09-2.08h66a2.08,2.08,0,1,1,0,4.16h-64V363.49A2.08,2.08,0,0,1,818.1,365.58Z"/>
  <path class="cls-2" d="M745.79,332a2.09,2.09,0,0,1-2.08-2.09v-15.6a2.08,2.08,0,1,1,4.16,0v15.6A2.09,2.09,0,0,1,745.79,332Z"/>
  <path class="cls-2" d="M818.1,365.58a2.08,2.08,0,0,1-2.09-2.09V285.82H764a2.09,2.09,0,0,1,0-4.17H818.1a2.08,2.08,0,0,1,2.08,2.09v79.75A2.08,2.08,0,0,1,818.1,365.58Z"/>
  <path class="cls-2" d="M833.36,277.31a2.08,2.08,0,0,1-2.08-2.08v-8.77a2.08,2.08,0,0,1,4.16,0v8.77A2.08,2.08,0,0,1,833.36,277.31Z"/>
  <path class="cls-2" d="M847.71,277.31a2.08,2.08,0,0,1-2.08-2.08v-8.77a2.08,2.08,0,1,1,4.16,0v8.77A2.08,2.08,0,0,1,847.71,277.31Z"/>
  <path class="cls-2" d="M862.06,277.31a2.08,2.08,0,0,1-2.08-2.08v-8.77a2.08,2.08,0,0,1,4.16,0v8.77A2.08,2.08,0,0,1,862.06,277.31Z"/>
  <path class="cls-2" d="M876.41,277.31a2.09,2.09,0,0,1-2.09-2.08v-8.77a2.09,2.09,0,0,1,4.17,0v8.77A2.08,2.08,0,0,1,876.41,277.31Z"/>
  <path class="cls-2" d="M833.36,302.09a2.08,2.08,0,0,1-2.08-2.08v-8.77a2.08,2.08,0,1,1,4.16,0V300A2.08,2.08,0,0,1,833.36,302.09Z"/>
  <path class="cls-2" d="M847.71,302.09a2.08,2.08,0,0,1-2.08-2.08v-8.77a2.08,2.08,0,1,1,4.16,0V300A2.08,2.08,0,0,1,847.71,302.09Z"/>
  <path class="cls-2" d="M862.06,302.09A2.08,2.08,0,0,1,860,300v-8.77a2.08,2.08,0,1,1,4.16,0V300A2.08,2.08,0,0,1,862.06,302.09Z"/>
  <path class="cls-2" d="M876.41,302.09a2.09,2.09,0,0,1-2.09-2.08v-8.77a2.09,2.09,0,1,1,4.17,0V300A2.08,2.08,0,0,1,876.41,302.09Z"/>
  <path class="cls-2" d="M833.36,326.86a2.08,2.08,0,0,1-2.08-2.08V316a2.08,2.08,0,0,1,4.16,0v8.77A2.08,2.08,0,0,1,833.36,326.86Z"/>
  <path class="cls-2" d="M847.71,326.86a2.08,2.08,0,0,1-2.08-2.08V316a2.08,2.08,0,1,1,4.16,0v8.77A2.08,2.08,0,0,1,847.71,326.86Z"/>
  <path class="cls-2" d="M862.06,326.86a2.08,2.08,0,0,1-2.08-2.08V316a2.08,2.08,0,0,1,4.16,0v8.77A2.08,2.08,0,0,1,862.06,326.86Z"/>
  <path class="cls-2" d="M876.41,326.86a2.09,2.09,0,0,1-2.09-2.08V316a2.09,2.09,0,0,1,4.17,0v8.77A2.08,2.08,0,0,1,876.41,326.86Z"/>
  <path class="cls-2" d="M833.36,351.64a2.08,2.08,0,0,1-2.08-2.08v-8.77a2.08,2.08,0,1,1,4.16,0v8.77A2.08,2.08,0,0,1,833.36,351.64Z"/>
  <path class="cls-2" d="M847.71,351.64a2.08,2.08,0,0,1-2.08-2.08v-8.77a2.08,2.08,0,1,1,4.16,0v8.77A2.08,2.08,0,0,1,847.71,351.64Z"/>
  <path class="cls-2" d="M862.06,351.64a2.08,2.08,0,0,1-2.08-2.08v-8.77a2.08,2.08,0,1,1,4.16,0v8.77A2.08,2.08,0,0,1,862.06,351.64Z"/>
  <path class="cls-2" d="M876.41,351.64a2.09,2.09,0,0,1-2.09-2.08v-8.77a2.09,2.09,0,1,1,4.17,0v8.77A2.08,2.08,0,0,1,876.41,351.64Z"/>
  <path class="cls-2" d="M809.89,298.51H763.17a2.08,2.08,0,1,1,0-4.16h46.72a2.08,2.08,0,1,1,0,4.16Z"/>
  <path class="cls-2" d="M809.89,311.8H760.13a2.09,2.09,0,0,1,0-4.17h49.76a2.09,2.09,0,1,1,0,4.17Z"/>
  <path class="cls-2" d="M809.89,325.08H755.07a2.09,2.09,0,1,1,0-4.17h54.82a2.09,2.09,0,1,1,0,4.17Z"/>
  <path class="cls-2" d="M809.89,338.36H755.07a2.09,2.09,0,1,1,0-4.17h54.82a2.09,2.09,0,1,1,0,4.17Z"/>
  <path class="cls-2" d="M809.89,351.64H774a2.09,2.09,0,1,1,0-4.17h35.9a2.09,2.09,0,1,1,0,4.17Z"/>
  <path class="cls-2" d="M1152.86,358.05a2.08,2.08,0,0,1-2.08-2.08V260.89h-84.12a2.09,2.09,0,0,1,0-4.17h86.2a2.09,2.09,0,0,1,2.09,2.08V356A2.09,2.09,0,0,1,1152.86,358.05Z"/>
  <path class="cls-2" d="M1085.62,285.82H1070.1a2.08,2.08,0,0,1-2.08-2.08V269.86a2.09,2.09,0,0,1,2.08-2.09h15.52a2.09,2.09,0,0,1,2.08,2.09v13.88A2.08,2.08,0,0,1,1085.62,285.82Zm-13.43-4.17h11.34v-9.71h-11.34Z"/>
  <path class="cls-2" d="M1112.86,285.82h-15.52a2.08,2.08,0,0,1-2.08-2.08V269.86a2.09,2.09,0,0,1,2.08-2.09h15.52a2.09,2.09,0,0,1,2.08,2.09v13.88A2.08,2.08,0,0,1,1112.86,285.82Zm-13.43-4.17h11.34v-9.71h-11.34Z"/>
  <path class="cls-2" d="M1140.1,285.82h-15.51a2.08,2.08,0,0,1-2.09-2.08V269.86a2.09,2.09,0,0,1,2.09-2.09h15.51a2.09,2.09,0,0,1,2.08,2.09v13.88A2.08,2.08,0,0,1,1140.1,285.82Zm-13.43-4.17H1138v-9.71h-11.34Z"/>
  <path class="cls-2" d="M1085.62,312.38H1070.1a2.08,2.08,0,0,1-2.08-2.08V296.42a2.08,2.08,0,0,1,2.08-2.08h15.52a2.08,2.08,0,0,1,2.08,2.08V310.3A2.08,2.08,0,0,1,1085.62,312.38Zm-13.43-4.17h11.34v-9.7h-11.34Z"/>
  <path class="cls-2" d="M1112.86,312.38h-15.52a2.08,2.08,0,0,1-2.08-2.08V296.42a2.08,2.08,0,0,1,2.08-2.08h15.52a2.08,2.08,0,0,1,2.08,2.08V310.3A2.08,2.08,0,0,1,1112.86,312.38Zm-13.43-4.17h11.34v-9.7h-11.34Z"/>
  <path class="cls-2" d="M1140.1,312.38h-15.51a2.08,2.08,0,0,1-2.09-2.08V296.42a2.08,2.08,0,0,1,2.09-2.08h15.51a2.08,2.08,0,0,1,2.08,2.08V310.3A2.08,2.08,0,0,1,1140.1,312.38Zm-13.43-4.17H1138v-9.7h-11.34Z"/>
  <path class="cls-2" d="M1085.62,339H1070.1a2.09,2.09,0,0,1-2.08-2.09V323a2.08,2.08,0,0,1,2.08-2.08h15.52a2.08,2.08,0,0,1,2.08,2.08v13.88A2.09,2.09,0,0,1,1085.62,339Zm-13.43-4.17h11.34v-9.71h-11.34Z"/>
  <path class="cls-2" d="M1112.86,339h-15.52a2.09,2.09,0,0,1-2.08-2.09V323a2.08,2.08,0,0,1,2.08-2.08h15.52a2.08,2.08,0,0,1,2.08,2.08v13.88A2.09,2.09,0,0,1,1112.86,339Zm-13.43-4.17h11.34v-9.71h-11.34Z"/>
  <path class="cls-2" d="M1140.1,339h-15.51a2.09,2.09,0,0,1-2.09-2.09V323a2.08,2.08,0,0,1,2.09-2.08h15.51a2.08,2.08,0,0,1,2.08,2.08v13.88A2.09,2.09,0,0,1,1140.1,339Zm-13.43-4.17H1138v-9.71h-11.34Z"/>
  <path class="cls-2" d="M1085.62,358.89a2.08,2.08,0,0,1-2.09-2.08v-5.18h-1.88a2.09,2.09,0,0,1,0-4.17h4a2.09,2.09,0,0,1,2.08,2.09v7.26A2.08,2.08,0,0,1,1085.62,358.89Z"/>
  <path class="cls-2" d="M1112.86,358.89a2.09,2.09,0,0,1-2.09-2.08v-5.18h-11.34v5.18a2.09,2.09,0,0,1-4.17,0v-7.26a2.09,2.09,0,0,1,2.08-2.09h15.52a2.09,2.09,0,0,1,2.08,2.09v7.26A2.08,2.08,0,0,1,1112.86,358.89Z"/>
  <path class="cls-2" d="M1140.1,358.89a2.09,2.09,0,0,1-2.09-2.08v-5.18h-11.34v5.18a2.09,2.09,0,0,1-4.17,0v-7.26a2.09,2.09,0,0,1,2.09-2.09h15.51a2.09,2.09,0,0,1,2.08,2.09v7.26A2.08,2.08,0,0,1,1140.1,358.89Z"/>
  <path class="cls-13" d="M891.77,339.19a2.09,2.09,0,0,1-2.09-2.08V244c0-6.54,5.59-11.87,12.45-11.87h27.08a2.09,2.09,0,1,1,0,4.17H902.13c-4.56,0-8.28,3.46-8.28,7.7v93.14A2.08,2.08,0,0,1,891.77,339.19Z"/>
  <path class="cls-13" d="M1058.31,345.21a2.08,2.08,0,0,1-2.08-2.08V244c0-4.24-3.72-7.7-8.28-7.7h-27.08a2.09,2.09,0,1,1,0-4.17H1048c6.86,0,12.45,5.33,12.45,11.87v99.16A2.09,2.09,0,0,1,1058.31,345.21Z"/>
  <path class="cls-13" d="M906.78,345.27a2.08,2.08,0,0,1-2.08-2.08v-94a2.08,2.08,0,0,1,2.08-2.08h22.43a2.09,2.09,0,1,1,0,4.17H908.87v91.9A2.09,2.09,0,0,1,906.78,345.27Z"/>
  <path class="cls-13" d="M1043.3,339.19a2.09,2.09,0,0,1-2.09-2.08V251.29h-20.34a2.09,2.09,0,1,1,0-4.17h22.43a2.08,2.08,0,0,1,2.08,2.08v87.91A2.08,2.08,0,0,1,1043.3,339.19Z"/>
  <path class="cls-13" d="M1063.31,365.58a2.09,2.09,0,0,1,0-4.17,8.28,8.28,0,0,0,8.28-8.28v-7.86H878.49v7.86a8.28,8.28,0,0,0,8.28,8.28,2.09,2.09,0,0,1,0,4.17,12.46,12.46,0,0,1-12.45-12.45v-9.94a2.09,2.09,0,0,1,2.09-2.08h197.26a2.09,2.09,0,0,1,2.09,2.08v9.94A12.46,12.46,0,0,1,1063.31,365.58Z"/>
  <path class="cls-13" d="M975,324.67h0a2.15,2.15,0,0,1-.61-.09c-23.55-7.19-47.3-28.32-47.3-59.35V225.58a2.09,2.09,0,0,1,2.8-2,37.14,37.14,0,0,0,43.41-13.44,2.08,2.08,0,0,1,3.4,0,37.14,37.14,0,0,0,43.41,13.44,2.09,2.09,0,0,1,2.8,2v39.65c0,31-23.76,52.16-47.3,59.35A2.15,2.15,0,0,1,975,324.67ZM931.3,228.46v36.77c0,20.68,13.53,45.68,43.74,55.17,30.21-9.49,43.74-34.49,43.74-55.17V228.46A41.16,41.16,0,0,1,975,214.83,41.16,41.16,0,0,1,931.3,228.46Z"/>
  <path class="cls-13" d="M988.13,268.34a2.08,2.08,0,0,1-2.08-2.08V255.84a11,11,0,1,0-22,0v10.42a2.08,2.08,0,1,1-4.16,0V255.84a15.17,15.17,0,1,1,30.34,0v10.42A2.08,2.08,0,0,1,988.13,268.34Z"/>
  <path class="cls-13" d="M992.74,293.32h-35.4a2.09,2.09,0,0,1-2.09-2.08v-25a2.1,2.1,0,0,1,2.09-2.09h35.4a2.1,2.1,0,0,1,2.09,2.09v25A2.09,2.09,0,0,1,992.74,293.32Zm-33.32-4.17h31.24V268.34H959.42Z"/>
  <path class="cls-13" d="M975,280.58a3.78,3.78,0,1,1,3.78-3.77A3.77,3.77,0,0,1,975,280.58Zm0-4.17a.39.39,0,0,0-.39.4.38.38,0,0,0,.39.39.39.39,0,0,0,.4-.39A.4.4,0,0,0,975,276.41Z"/>
  <path class="cls-13" d="M975,284.46a2.08,2.08,0,0,1-2.08-2.09V278.5a2.09,2.09,0,1,1,4.17,0v3.87A2.09,2.09,0,0,1,975,284.46Z"/>
  <path class="cls-13" d="M824.92,721.66a2.08,2.08,0,0,1,0-4.16,3.82,3.82,0,0,0,3.82-3.82V628.84a3.82,3.82,0,0,0-3.82-3.81H805.86a2.09,2.09,0,0,1,0-4.17h19.06a8,8,0,0,1,8,8v84.84A8,8,0,0,1,824.92,721.66Z"/>
  <path class="cls-13" d="M741.6,713.37a2.09,2.09,0,0,1-2.08-2.09V628.84a8,8,0,0,1,8-8h18.62a2.09,2.09,0,1,1,0,4.17H747.5a3.82,3.82,0,0,0-3.81,3.81v82.44A2.1,2.1,0,0,1,741.6,713.37Z"/>
  <path class="cls-13" d="M819,709.43H753.4a2.1,2.1,0,0,1-2.09-2.09v-72.6a2.09,2.09,0,0,1,2.09-2.08h12.72a2.08,2.08,0,1,1,0,4.16H755.48v68.44h61.46V636.82h-6.27a2.08,2.08,0,1,1,0-4.16H819a2.08,2.08,0,0,1,2.09,2.08v72.6A2.09,2.09,0,0,1,819,709.43Z"/>
  <path class="cls-9" d="M774.36,680.38a2.05,2.05,0,0,1-1.47-.61l-8.24-8.24a2.09,2.09,0,0,1,0-2.95l8.24-8.23a2.08,2.08,0,1,1,2.94,2.94l-6.76,6.77,6.76,6.76a2.08,2.08,0,0,1,0,2.95A2.05,2.05,0,0,1,774.36,680.38Z"/>
  <path class="cls-9" d="M799.85,680.38a2.09,2.09,0,0,1-1.47-3.56l6.76-6.76-6.76-6.77a2.08,2.08,0,1,1,3-2.94l8.23,8.23a2.09,2.09,0,0,1,0,2.95l-8.23,8.24A2.07,2.07,0,0,1,799.85,680.38Z"/>
  <path class="cls-9" d="M782,682.79a2.07,2.07,0,0,1-.77-.15,2.09,2.09,0,0,1-1.17-2.71l8.43-21.28a2.08,2.08,0,0,1,3.87,1.53l-8.42,21.29A2.09,2.09,0,0,1,782,682.79Z"/>
  <path class="cls-13" d="M805.86,639.38h-39.3a2.09,2.09,0,0,1-2.08-2.09V616.6a2.08,2.08,0,0,1,2.08-2.08h6.73a13.91,13.91,0,0,1,25.84,0h6.73A2.09,2.09,0,0,1,808,616.6v20.69A2.1,2.1,0,0,1,805.86,639.38Zm-37.21-4.17h35.13V618.69h-6.14a2.08,2.08,0,0,1-2-1.54,9.75,9.75,0,0,0-18.83,0,2.09,2.09,0,0,1-2,1.54h-6.14Z"/>
  <path class="cls-2" d="M267.92,339.48a2.08,2.08,0,0,1-2.08-2.08V291.11a17.6,17.6,0,0,1,17.58-17.58H401.13a17.6,17.6,0,0,1,17.58,17.58v15.4a2.09,2.09,0,0,1-4.17,0v-15.4a13.42,13.42,0,0,0-13.41-13.41H283.42A13.42,13.42,0,0,0,270,291.11V337.4A2.09,2.09,0,0,1,267.92,339.48Z"/>
  <path class="cls-13" d="M457.65,485.89a2.1,2.1,0,0,1-2.09-2.09v-4.51a7,7,0,0,0-7-7H382.09a7,7,0,0,0-7,7v4.51a2.09,2.09,0,1,1-4.17,0v-4.51a11.2,11.2,0,0,1,11.19-11.19h66.45a11.2,11.2,0,0,1,11.19,11.19v4.51A2.09,2.09,0,0,1,457.65,485.89Z"/>
  <path class="cls-13" d="M497.37,449.17H332.7a10,10,0,0,1-10-10V339.33a10,10,0,0,1,10-10h14.37a2.08,2.08,0,0,1,0,4.16H332.7a5.82,5.82,0,0,0-5.81,5.81v99.86A5.82,5.82,0,0,0,332.7,445H497.37a5.81,5.81,0,0,0,5.8-5.81V339.33a5.81,5.81,0,0,0-5.8-5.81H483.09a2.08,2.08,0,1,1,0-4.16h14.28a10,10,0,0,1,10,10v99.86A10,10,0,0,1,497.37,449.17Z"/>
  <path class="cls-13" d="M503.56,426.86H324.81a2.09,2.09,0,1,1,0-4.17H503.56a2.09,2.09,0,1,1,0,4.17Z"/>
  <path class="cls-13" d="M438,472.27H392.11a2.08,2.08,0,0,1-2.08-2.08v-14a2.09,2.09,0,0,1,4.17,0V468.1h41.67v-21a2.09,2.09,0,0,1,4.17,0v23.11A2.09,2.09,0,0,1,438,472.27Z"/>
  <path class="cls-13" d="M464.28,404.43H365.79a12,12,0,0,1-12-11.95V316.36a12,12,0,0,1,12-11.95h98.49a12,12,0,0,1,12,11.95v76.12A12,12,0,0,1,464.28,404.43Zm-98.49-95.85a7.79,7.79,0,0,0-7.78,7.78v76.12a7.79,7.79,0,0,0,7.78,7.78h98.49a7.79,7.79,0,0,0,7.78-7.78V316.36a7.79,7.79,0,0,0-7.78-7.78Z"/>
  <path class="cls-13" d="M474.14,328.31H355.92a2.09,2.09,0,0,1,0-4.17H474.14a2.09,2.09,0,1,1,0,4.17Z"/>
  <path class="cls-14" d="M433,353.21H385.32a2.09,2.09,0,0,1,0-4.17H433a2.09,2.09,0,1,1,0,4.17Z"/>
  <path class="cls-15" d="M461.12,353.21H439.71a2.09,2.09,0,0,1,0-4.17h21.41a2.09,2.09,0,0,1,0,4.17Z"/>
  <path class="cls-16" d="M411.66,341.24H399.09a2.09,2.09,0,0,1,0-4.17h12.57a2.09,2.09,0,0,1,0,4.17Z"/>
  <path class="cls-9" d="M390.68,341.24H372.12a2.09,2.09,0,0,1,0-4.17h18.56a2.09,2.09,0,1,1,0,4.17Z"/>
  <path class="cls-17" d="M461.12,341.24H421.63a2.09,2.09,0,1,1,0-4.17h39.49a2.09,2.09,0,0,1,0,4.17Z"/>
  <path class="cls-17" d="M377.49,353.21h-5.37a2.09,2.09,0,0,1,0-4.17h5.37a2.09,2.09,0,1,1,0,4.17Z"/>
  <path class="cls-15" d="M417.37,365.41H404a2.08,2.08,0,1,1,0-4.16h13.36a2.08,2.08,0,1,1,0,4.16Z"/>
  <path class="cls-9" d="M461.12,365.41H424.05a2.08,2.08,0,1,1,0-4.16h37.07a2.08,2.08,0,1,1,0,4.16Z"/>
  <path class="cls-16" d="M395.2,365.41H372.12a2.08,2.08,0,1,1,0-4.16H395.2a2.08,2.08,0,1,1,0,4.16Z"/>
  <path class="cls-14" d="M380.76,377.09h-8.64a2.09,2.09,0,0,1,0-4.17h8.64a2.09,2.09,0,1,1,0,4.17Z"/>
  <path class="cls-17" d="M438,377.09H389.78a2.09,2.09,0,0,1,0-4.17H438a2.09,2.09,0,1,1,0,4.17Z"/>
  <path class="cls-15" d="M461.12,377.09H446.69a2.09,2.09,0,1,1,0-4.17h14.43a2.09,2.09,0,0,1,0,4.17Z"/>
  <path class="cls-16" d="M446.69,389.3H416.11a2.09,2.09,0,0,1,0-4.17h30.58a2.09,2.09,0,0,1,0,4.17Z"/>
  <path class="cls-17" d="M461.12,389.3H454a2.09,2.09,0,1,1,0-4.17h7.14a2.09,2.09,0,0,1,0,4.17Z"/>
  <path class="cls-9" d="M407.2,389.3H372.12a2.09,2.09,0,0,1,0-4.17H407.2a2.09,2.09,0,0,1,0,4.17Z"/>
  <path class="cls-13" d="M372.12,318.88a2.85,2.85,0,0,1-2.83-2.85,3.41,3.41,0,0,1,0-.55,4.64,4.64,0,0,1,.16-.53,2.91,2.91,0,0,1,.27-.49,2.44,2.44,0,0,1,.35-.43,2.86,2.86,0,0,1,2.56-.78,4.64,4.64,0,0,1,.53.16,3.36,3.36,0,0,1,.49.27,2.36,2.36,0,0,1,.43.35,2.44,2.44,0,0,1,.35.43,2.87,2.87,0,0,1,.26.49,3.24,3.24,0,0,1,.16.53,2.57,2.57,0,0,1,.06.55,2.81,2.81,0,0,1-1.26,2.36,2.57,2.57,0,0,1-.49.26,2.52,2.52,0,0,1-.53.17A2.67,2.67,0,0,1,372.12,318.88Z"/>
  <path class="cls-13" d="M382,318.88a2.85,2.85,0,0,1-2.84-2.85,3.41,3.41,0,0,1,.05-.55,4.64,4.64,0,0,1,.16-.53,3.84,3.84,0,0,1,.27-.49A3,3,0,0,1,380,314a2.36,2.36,0,0,1,.43-.35,3.46,3.46,0,0,1,.5-.27,4.64,4.64,0,0,1,.53-.16A2.89,2.89,0,0,1,384,314a3,3,0,0,1,.35.43,2.87,2.87,0,0,1,.26.49,2.49,2.49,0,0,1,.16.53,2.57,2.57,0,0,1,.06.55,2.88,2.88,0,0,1-.83,2,2.94,2.94,0,0,1-.44.35,2.3,2.3,0,0,1-.49.26,2.52,2.52,0,0,1-.53.17A2.57,2.57,0,0,1,382,318.88Z"/>
  <path class="cls-13" d="M391.85,318.88A2.85,2.85,0,0,1,389,316a3.41,3.41,0,0,1,.05-.55,3.27,3.27,0,0,1,.17-.53,2.87,2.87,0,0,1,.26-.49,2.72,2.72,0,0,1,.78-.78,3.36,3.36,0,0,1,.49-.27,4.64,4.64,0,0,1,.53-.16,3,3,0,0,1,1.11,0,4.64,4.64,0,0,1,.53.16,3.36,3.36,0,0,1,.49.27,2.36,2.36,0,0,1,.43.35,2.85,2.85,0,0,1,.83,2,2.6,2.6,0,0,1-.06.56,2,2,0,0,1-.16.53,2.3,2.3,0,0,1-.26.49,3.65,3.65,0,0,1-.35.43A2.86,2.86,0,0,1,391.85,318.88Z"/>
  <path class="cls-6" d="M1177.9,365.58H783.12a2.09,2.09,0,0,1,0-4.17H1177.9a2.09,2.09,0,1,1,0,4.17Z"/>
  <path class="cls-6" d="M528.9,497.58a2.13,2.13,0,0,1-1.22-.39,44.07,44.07,0,0,0-26-8.39H2.1a2.08,2.08,0,1,1,0-4.16H501.72a48.26,48.26,0,0,1,28.4,9.17,2.08,2.08,0,0,1-1.22,3.77Z"/>
  <path class="cls-13" d="M851.84,584.93a2.09,2.09,0,0,1-2.09-2.09V460.44H592.63v122.4a2.09,2.09,0,1,1-4.17,0V458.35a2.08,2.08,0,0,1,2.08-2.08h261.3a2.08,2.08,0,0,1,2.08,2.08V582.84A2.09,2.09,0,0,1,851.84,584.93Z"/>
  <path class="cls-13" d="M590.54,585.84H540.93a2.1,2.1,0,0,1-2.09-2.09V495a2.1,2.1,0,0,1,2.09-2.09h49.61a2.1,2.1,0,0,1,2.09,2.09v88.76A2.1,2.1,0,0,1,590.54,585.84ZM543,581.67h45.45v-84.6H543Z"/>
  <path class="cls-13" d="M803.92,460.44a2.09,2.09,0,0,1-2.09-2.09V418.17H640.55v33.09a2.09,2.09,0,0,1-4.17,0V416.09a2.09,2.09,0,0,1,2.08-2.09H803.92a2.09,2.09,0,0,1,2.08,2.09v42.26A2.09,2.09,0,0,1,803.92,460.44Z"/>
  <path class="cls-13" d="M783.12,418.17H659.25a2.08,2.08,0,0,1-2.08-2.08V395.58a64,64,0,1,1,128,0v20.51A2.08,2.08,0,0,1,783.12,418.17ZM661.34,414H781V395.58a59.85,59.85,0,1,0-119.7,0Z"/>
  <path class="cls-13" d="M654.79,584.93a2.1,2.1,0,0,1-2.09-2.09v-80a2.09,2.09,0,0,1,4.17,0v80A2.09,2.09,0,0,1,654.79,584.93Z"/>
  <path class="cls-13" d="M790.52,584.93a2.09,2.09,0,0,1-2.08-2.09v-80a2.08,2.08,0,1,1,4.16,0v80A2.09,2.09,0,0,1,790.52,584.93Z"/>
  <path class="cls-13" d="M804.35,585.84a2.09,2.09,0,0,1-2.08-2.09V509.47a2.09,2.09,0,0,1,4.17,0v74.28A2.1,2.1,0,0,1,804.35,585.84Z"/>
  <path class="cls-13" d="M641,577.06a2.1,2.1,0,0,1-2.09-2.09V502.85a2.09,2.09,0,0,1,4.17,0V575A2.09,2.09,0,0,1,641,577.06Z"/>
  <path class="cls-13" d="M752.78,307.33h-23.4a2.08,2.08,0,1,1,0-4.16H750.7V285H721.19a2.09,2.09,0,0,1,0-4.17h31.59a2.08,2.08,0,0,1,2.08,2.08v22.31A2.08,2.08,0,0,1,752.78,307.33Z"/>
  <path class="cls-13" d="M697.3,446.51H685.1a2.08,2.08,0,0,1-2.08-2.08v-15a2.09,2.09,0,0,1,2.08-2.09h12.2a2.1,2.1,0,0,1,2.09,2.09v15A2.09,2.09,0,0,1,697.3,446.51Zm-10.11-4.16h8V431.52h-8Z"/>
  <path class="cls-13" d="M669.71,446.51h-12.2a2.08,2.08,0,0,1-2.08-2.08v-15a2.09,2.09,0,0,1,2.08-2.09h12.2a2.09,2.09,0,0,1,2.08,2.09v15A2.08,2.08,0,0,1,669.71,446.51Zm-10.12-4.16h8V431.52h-8Z"/>
  <path class="cls-13" d="M724.9,446.51H712.7a2.08,2.08,0,0,1-2.08-2.08v-15a2.09,2.09,0,0,1,2.08-2.09h12.2a2.09,2.09,0,0,1,2.08,2.09v15A2.08,2.08,0,0,1,724.9,446.51Zm-10.12-4.16h8V431.52h-8Z"/>
  <path class="cls-13" d="M752.49,446.51h-12.2a2.08,2.08,0,0,1-2.08-2.08v-15a2.09,2.09,0,0,1,2.08-2.09h12.2a2.09,2.09,0,0,1,2.08,2.09v15A2.08,2.08,0,0,1,752.49,446.51Zm-10.11-4.16h8V431.52h-8Z"/>
  <path class="cls-13" d="M780.08,446.51H767.89a2.09,2.09,0,0,1-2.09-2.08v-15a2.1,2.1,0,0,1,2.09-2.09h12.19a2.09,2.09,0,0,1,2.09,2.09v15A2.08,2.08,0,0,1,780.08,446.51ZM770,442.35h8V431.52h-8Z"/>
  <path class="cls-13" d="M810,504.94H635.36a2.09,2.09,0,0,1-2.08-2.09v-14.1a2.08,2.08,0,0,1,2.08-2.08H810a2.08,2.08,0,0,1,2.08,2.08v14.1A2.09,2.09,0,0,1,810,504.94Zm-172.5-4.17H807.86v-9.93H637.45Z"/>
  <path class="cls-13" d="M774,398.68H659.55a2.09,2.09,0,0,1,0-4.17H774a2.09,2.09,0,0,1,0,4.17Z"/>
  <path class="cls-13" d="M768.88,579a2.08,2.08,0,0,1-2.08-2.09v-74a2.08,2.08,0,0,1,4.16,0v74A2.08,2.08,0,0,1,768.88,579Z"/>
  <path class="cls-13" d="M755.05,585.84a2.1,2.1,0,0,1-2.09-2.09v-80.9a2.09,2.09,0,0,1,4.17,0v80.9A2.09,2.09,0,0,1,755.05,585.84Z"/>
  <path class="cls-13" d="M689.76,584.89a2.08,2.08,0,0,1-2.08-2.08v-80a2.09,2.09,0,0,1,4.17,0v80A2.09,2.09,0,0,1,689.76,584.89Z"/>
  <path class="cls-13" d="M675.93,584.89a2.08,2.08,0,0,1-2.08-2.08v-80a2.08,2.08,0,1,1,4.16,0v80A2.08,2.08,0,0,1,675.93,584.89Z"/>
  <path class="cls-13" d="M833.36,552.49H823.12A2.09,2.09,0,0,1,821,550.4V526.82a2.08,2.08,0,0,1,2.08-2.08h10.24a2.08,2.08,0,0,1,2.08,2.08V550.4A2.09,2.09,0,0,1,833.36,552.49Zm-8.16-4.17h6.07V528.91H825.2Z"/>
  <path class="cls-13" d="M833.36,515.17H823.12a2.08,2.08,0,0,1-2.08-2.08V502.85a2.08,2.08,0,0,1,2.08-2.08h10.24a2.08,2.08,0,0,1,2.08,2.08v10.24A2.08,2.08,0,0,1,833.36,515.17ZM825.2,511h6.07v-6.07H825.2Z"/>
  <path class="cls-13" d="M618.77,552.49H608.54a2.1,2.1,0,0,1-2.09-2.09V526.82a2.09,2.09,0,0,1,2.09-2.08h10.23a2.08,2.08,0,0,1,2.09,2.08V550.4A2.09,2.09,0,0,1,618.77,552.49Zm-8.15-4.17h6.07V528.91h-6.07Z"/>
  <path class="cls-13" d="M618.77,515.17H608.54a2.09,2.09,0,0,1-2.09-2.08V502.85a2.09,2.09,0,0,1,2.09-2.08h10.23a2.08,2.08,0,0,1,2.09,2.08v10.24A2.08,2.08,0,0,1,618.77,515.17ZM610.62,511h6.07v-6.07h-6.07Z"/>
  <path class="cls-13" d="M570.89,571.31H560.65a2.08,2.08,0,0,1-2.08-2.09V545.65a2.08,2.08,0,0,1,2.08-2.09h10.24a2.08,2.08,0,0,1,2.08,2.09v23.57A2.08,2.08,0,0,1,570.89,571.31Zm-8.15-4.17h6.07V547.73h-6.07Z"/>
  <path class="cls-13" d="M570.89,534H560.65a2.08,2.08,0,0,1-2.08-2.08V521.67a2.08,2.08,0,0,1,2.08-2.08h10.24a2.08,2.08,0,0,1,2.08,2.08v10.24A2.08,2.08,0,0,1,570.89,534Zm-8.15-4.16h6.07v-6.07h-6.07Z"/>
  <path class="cls-13" d="M590.54,508.07h-53a2.09,2.09,0,1,1,0-4.17h53a2.09,2.09,0,1,1,0,4.17Z"/>
  <path class="cls-13" d="M851.84,585.84a2.09,2.09,0,0,1-2.09-2.09V495a2.09,2.09,0,0,1,2.09-2.09h49.61a2.1,2.1,0,0,1,2.09,2.09v63.92a2.09,2.09,0,0,1-4.17,0V497.07H853.92v86.68A2.09,2.09,0,0,1,851.84,585.84Z"/>
  <path class="cls-13" d="M871.49,571.31a2.08,2.08,0,0,1-2.08-2.09V545.65a2.08,2.08,0,0,1,2.08-2.09h10.24a2.08,2.08,0,0,1,2.08,2.09v13.74a2.09,2.09,0,1,1-4.17,0V547.73h-6.07v21.49A2.08,2.08,0,0,1,871.49,571.31Z"/>
  <path class="cls-13" d="M881.73,534H871.49a2.08,2.08,0,0,1-2.08-2.08V521.67a2.08,2.08,0,0,1,2.08-2.08h10.24a2.08,2.08,0,0,1,2.08,2.08v10.24A2.08,2.08,0,0,1,881.73,534Zm-8.16-4.16h6.07v-6.07h-6.07Z"/>
  <path class="cls-13" d="M904.87,508.07h-53a2.09,2.09,0,1,1,0-4.17h53a2.09,2.09,0,0,1,0,4.17Z"/>
  <path class="cls-13" d="M854.88,472.27H587.14a2.09,2.09,0,1,1,0-4.17H854.88a2.09,2.09,0,1,1,0,4.17Z"/>
  <path class="cls-13" d="M736.67,585.84h-28a2.09,2.09,0,0,1-2.08-2.09V553.3a16.1,16.1,0,1,1,32.19,0v30.45A2.09,2.09,0,0,1,736.67,585.84Zm-25.95-4.17h23.86V553.3a11.93,11.93,0,0,0-23.86,0Z"/>
  <path class="cls-13" d="M721.19,335.72a2.08,2.08,0,0,1-2.08-2.08V280.11a2.08,2.08,0,1,1,4.16,0v53.53A2.08,2.08,0,0,1,721.19,335.72Z"/>
  <path class="cls-6" d="M310.51,721.73h-231a2.09,2.09,0,1,1,0-4.17h231a44.13,44.13,0,0,0,31.4-13L450.58,595.89a48.25,48.25,0,0,1,34.34-14.22H868a2.09,2.09,0,0,1,0,4.17H484.92a44.11,44.11,0,0,0-31.4,13L344.86,707.5A48.23,48.23,0,0,1,310.51,721.73Z"/>
  <path class="cls-2" d="M367,591.21c-8.37,0-16.86-2.5-21.63-6.61a10.46,10.46,0,0,1-4.05-7.89V559.92a2.09,2.09,0,0,1,4.17,0v16.79a6.34,6.34,0,0,0,2.6,4.73c4.88,4.21,15.44,6.51,24,5.23a2.09,2.09,0,0,1,.61,4.13A40.29,40.29,0,0,1,367,591.21Z"/>
  <path class="cls-2" d="M364.88,571.24a2,2,0,0,1-.89-.2l-34.4-16.25a2.1,2.1,0,0,1-1.19-1.9,2.08,2.08,0,0,1,1.21-1.88l35.27-16.26a2.11,2.11,0,0,1,1.77,0L401.05,551a2.09,2.09,0,0,1,0,3.78l-17.52,8.07a2.09,2.09,0,0,1-1.74-3.79l13.46-6.2L365.75,539l-30.34,14,29.49,13.93,6.66-3.07a2.09,2.09,0,0,1,1.74,3.79l-7.54,3.47A2.08,2.08,0,0,1,364.88,571.24Z"/>
  <path class="cls-2" d="M385,588.29a2.09,2.09,0,0,1-2.08-2.09V565.28a2.82,2.82,0,0,0-1.6-2.53l-16.86-8a2.08,2.08,0,0,1,1.78-3.77l16.86,8a7,7,0,0,1,4,6.3V586.2A2.1,2.1,0,0,1,385,588.29Z"/>
  <path class="cls-2" d="M389.66,601.31h-9.37a3.36,3.36,0,0,1-3.13-4.63,16.15,16.15,0,0,0,1.19-5.92,6.64,6.64,0,0,1,13.28,0,14.78,14.78,0,0,0,1.13,5.85,3.37,3.37,0,0,1-3.1,4.7Zm-.73-3.06Zm-7.5-1.1h7.07a19.37,19.37,0,0,1-1-6.39,2.47,2.47,0,1,0-4.94,0A19.86,19.86,0,0,1,381.43,597.15Z"/>
  <path class="cls-2" d="M365.32,624.72a56.78,56.78,0,1,1,56.78-56.78A56.85,56.85,0,0,1,365.32,624.72Zm0-109.39a52.61,52.61,0,1,0,52.61,52.61A52.67,52.67,0,0,0,365.32,515.33Z"/>
  <path class="cls-2" d="M352,651.78H271.2a2.09,2.09,0,0,1,0-4.17H352a11.22,11.22,0,0,0,11.2-11.2V622.63a2.09,2.09,0,0,1,4.17,0v13.78A15.39,15.39,0,0,1,352,651.78Z"/>
  <path class="cls-13" d="M1084.23,721.66H940.43a2.08,2.08,0,0,1-2.08-2.08V531.69a2.08,2.08,0,0,1,2.08-2.09h31.22a2.09,2.09,0,0,1,0,4.17H942.51V717.5h139.64V533.77h-30.77a2.09,2.09,0,0,1,0-4.17h32.85a2.08,2.08,0,0,1,2.08,2.09V719.58A2.08,2.08,0,0,1,1084.23,721.66Z"/>
  <path class="cls-13" d="M879.05,721.66a2.09,2.09,0,0,1-2.09-2.08v-152a2.1,2.1,0,0,1,2.09-2.09h53.27a2.09,2.09,0,1,1,0,4.17H881.13V719.58A2.08,2.08,0,0,1,879.05,721.66Z"/>
  <path class="cls-13" d="M1145.61,721.66a2.08,2.08,0,0,1-2.08-2.08V569.65h-51.19a2.09,2.09,0,1,1,0-4.17h53.27a2.1,2.1,0,0,1,2.09,2.09v152A2.09,2.09,0,0,1,1145.61,721.66Z"/>
  <path class="cls-13" d="M1023.56,568.39H1001.1a2.09,2.09,0,0,1-2.09-2.08V540.58H973.28a2.09,2.09,0,0,1-2.08-2.09V516a2.08,2.08,0,0,1,2.08-2.08H999V488.21a2.1,2.1,0,0,1,2.09-2.09h22.46a2.09,2.09,0,0,1,2.09,2.09v25.73h25.73a2.08,2.08,0,0,1,2.08,2.08v22.47a2.09,2.09,0,0,1-2.08,2.09h-25.73v25.73A2.08,2.08,0,0,1,1023.56,568.39Zm-20.38-4.17h18.3V538.49a2.08,2.08,0,0,1,2.08-2.08h25.74v-18.3h-25.74a2.09,2.09,0,0,1-2.08-2.09V490.29h-18.3V516a2.09,2.09,0,0,1-2.08,2.09H975.36v18.3h25.74a2.08,2.08,0,0,1,2.08,2.08Z"/>
  <path class="cls-13" d="M973.73,593.35H960a2.09,2.09,0,0,1-2.08-2.09V577.55a2.09,2.09,0,0,1,2.08-2.09h13.72a2.09,2.09,0,0,1,2.08,2.09v13.71A2.09,2.09,0,0,1,973.73,593.35Zm-11.64-4.17h9.55v-9.55h-9.55Z"/>
  <path class="cls-13" d="M1004,593.35H990.32a2.1,2.1,0,0,1-2.09-2.09V577.55a2.1,2.1,0,0,1,2.09-2.09H1004a2.1,2.1,0,0,1,2.09,2.09v13.71A2.1,2.1,0,0,1,1004,593.35Zm-11.63-4.17H1002v-9.55H992.4Z"/>
  <path class="cls-13" d="M1034.34,593.35h-13.71a2.1,2.1,0,0,1-2.09-2.09V577.55a2.1,2.1,0,0,1,2.09-2.09h13.71a2.1,2.1,0,0,1,2.09,2.09v13.71A2.1,2.1,0,0,1,1034.34,593.35Zm-11.63-4.17h9.55v-9.55h-9.55Z"/>
  <path class="cls-13" d="M1064.65,593.35h-13.71a2.09,2.09,0,0,1-2.09-2.09V577.55a2.09,2.09,0,0,1,2.09-2.09h13.71a2.09,2.09,0,0,1,2.08,2.09v13.71A2.09,2.09,0,0,1,1064.65,593.35ZM1053,589.18h9.55v-9.55H1053Z"/>
  <path class="cls-13" d="M973.73,623.66H960a2.09,2.09,0,0,1-2.08-2.09V607.86a2.08,2.08,0,0,1,2.08-2.09h13.72a2.08,2.08,0,0,1,2.08,2.09v13.71A2.09,2.09,0,0,1,973.73,623.66Zm-11.64-4.17h9.55v-9.55h-9.55Z"/>
  <path class="cls-13" d="M923.89,630.3H896a2.09,2.09,0,0,1-2.08-2.09V614.5a2.09,2.09,0,0,1,2.08-2.09h27.87A2.1,2.1,0,0,1,926,614.5v13.71A2.1,2.1,0,0,1,923.89,630.3Zm-25.78-4.17h23.7v-9.55h-23.7Z"/>
  <path class="cls-13" d="M923.89,600H896a2.09,2.09,0,0,1-2.08-2.09V584.19A2.09,2.09,0,0,1,896,582.1h27.87a2.1,2.1,0,0,1,2.09,2.09V597.9A2.1,2.1,0,0,1,923.89,600Zm-25.78-4.17h23.7v-9.55h-23.7Z"/>
  <path class="cls-13" d="M923.89,660.6H896a2.08,2.08,0,0,1-2.08-2.08V644.81a2.08,2.08,0,0,1,2.08-2.09h27.87a2.09,2.09,0,0,1,2.09,2.09v13.71A2.09,2.09,0,0,1,923.89,660.6Zm-25.78-4.16h23.7v-9.55h-23.7Z"/>
  <path class="cls-13" d="M923.89,690.91H896a2.08,2.08,0,0,1-2.08-2.08V675.11A2.08,2.08,0,0,1,896,673h27.87a2.09,2.09,0,0,1,2.09,2.08v13.72A2.09,2.09,0,0,1,923.89,690.91Zm-25.78-4.16h23.7V677.2h-23.7Z"/>
  <path class="cls-13" d="M1128.86,630.3H1101a2.1,2.1,0,0,1-2.09-2.09V614.5a2.1,2.1,0,0,1,2.09-2.09h27.87a2.09,2.09,0,0,1,2.08,2.09v13.71A2.09,2.09,0,0,1,1128.86,630.3Zm-25.79-4.17h23.7v-9.55h-23.7Z"/>
  <path class="cls-13" d="M1128.86,600H1101a2.1,2.1,0,0,1-2.09-2.09V584.19a2.1,2.1,0,0,1,2.09-2.09h27.87a2.09,2.09,0,0,1,2.08,2.09V597.9A2.09,2.09,0,0,1,1128.86,600Zm-25.79-4.17h23.7v-9.55h-23.7Z"/>
  <path class="cls-13" d="M1128.86,660.6H1101a2.09,2.09,0,0,1-2.09-2.08V644.81a2.09,2.09,0,0,1,2.09-2.09h27.87a2.08,2.08,0,0,1,2.08,2.09v13.71A2.08,2.08,0,0,1,1128.86,660.6Zm-25.79-4.16h23.7v-9.55h-23.7Z"/>
  <path class="cls-13" d="M1128.86,690.91H1101a2.09,2.09,0,0,1-2.09-2.08V675.11A2.09,2.09,0,0,1,1101,673h27.87a2.08,2.08,0,0,1,2.08,2.08v13.72A2.08,2.08,0,0,1,1128.86,690.91Zm-25.79-4.16h23.7V677.2h-23.7Z"/>
  <path class="cls-13" d="M1004,623.66H990.32a2.1,2.1,0,0,1-2.09-2.09V607.86a2.09,2.09,0,0,1,2.09-2.09H1004a2.09,2.09,0,0,1,2.09,2.09v13.71A2.1,2.1,0,0,1,1004,623.66Zm-11.63-4.17H1002v-9.55H992.4Z"/>
  <path class="cls-13" d="M1034.34,623.66h-13.71a2.1,2.1,0,0,1-2.09-2.09V607.86a2.09,2.09,0,0,1,2.09-2.09h13.71a2.09,2.09,0,0,1,2.09,2.09v13.71A2.1,2.1,0,0,1,1034.34,623.66Zm-11.63-4.17h9.55v-9.55h-9.55Z"/>
  <path class="cls-13" d="M1064.65,623.66h-13.71a2.09,2.09,0,0,1-2.09-2.09V607.86a2.08,2.08,0,0,1,2.09-2.09h13.71a2.08,2.08,0,0,1,2.08,2.09v13.71A2.09,2.09,0,0,1,1064.65,623.66ZM1053,619.49h9.55v-9.55H1053Z"/>
  <path class="cls-13" d="M973.73,654H960a2.08,2.08,0,0,1-2.08-2.08V638.16a2.08,2.08,0,0,1,2.08-2.08h13.72a2.08,2.08,0,0,1,2.08,2.08v13.72A2.08,2.08,0,0,1,973.73,654Zm-11.64-4.16h9.55v-9.55h-9.55Z"/>
  <path class="cls-13" d="M1004,654H990.32a2.09,2.09,0,0,1-2.09-2.08V638.16a2.09,2.09,0,0,1,2.09-2.08H1004a2.09,2.09,0,0,1,2.09,2.08v13.72A2.09,2.09,0,0,1,1004,654ZM992.4,649.8H1002v-9.55H992.4Z"/>
  <path class="cls-13" d="M1034.34,654h-13.71a2.09,2.09,0,0,1-2.09-2.08V638.16a2.09,2.09,0,0,1,2.09-2.08h13.71a2.09,2.09,0,0,1,2.09,2.08v13.72A2.09,2.09,0,0,1,1034.34,654Zm-11.63-4.16h9.55v-9.55h-9.55Z"/>
  <path class="cls-13" d="M1064.65,654h-13.71a2.08,2.08,0,0,1-2.09-2.08V638.16a2.08,2.08,0,0,1,2.09-2.08h13.71a2.08,2.08,0,0,1,2.08,2.08v13.72A2.08,2.08,0,0,1,1064.65,654ZM1053,649.8h9.55v-9.55H1053Z"/>
  <path class="cls-13" d="M973.73,684.27H960a2.08,2.08,0,0,1-2.08-2.08V668.47a2.08,2.08,0,0,1,2.08-2.08h13.72a2.08,2.08,0,0,1,2.08,2.08v13.72A2.08,2.08,0,0,1,973.73,684.27Zm-11.64-4.16h9.55v-9.55h-9.55Z"/>
  <path class="cls-13" d="M1004,684.27H990.32a2.09,2.09,0,0,1-2.09-2.08V668.47a2.09,2.09,0,0,1,2.09-2.08H1004a2.09,2.09,0,0,1,2.09,2.08v13.72A2.09,2.09,0,0,1,1004,684.27Zm-11.63-4.16H1002v-9.55H992.4Z"/>
  <path class="cls-13" d="M1034.34,684.27h-13.71a2.09,2.09,0,0,1-2.09-2.08V668.47a2.09,2.09,0,0,1,2.09-2.08h13.71a2.09,2.09,0,0,1,2.09,2.08v13.72A2.09,2.09,0,0,1,1034.34,684.27Zm-11.63-4.16h9.55v-9.55h-9.55Z"/>
  <path class="cls-13" d="M1004,721.22a2.08,2.08,0,0,1-2.08-2.08V698.78a2.09,2.09,0,0,1,4.17,0v20.36A2.09,2.09,0,0,1,1004,721.22Z"/>
  <path class="cls-13" d="M1020.63,721.22a2.09,2.09,0,0,1-2.09-2.08V698.78a2.09,2.09,0,0,1,4.17,0v20.36A2.08,2.08,0,0,1,1020.63,721.22Z"/>
  <path class="cls-13" d="M1064.65,684.27h-13.71a2.08,2.08,0,0,1-2.09-2.08V668.47a2.08,2.08,0,0,1,2.09-2.08h13.71a2.08,2.08,0,0,1,2.08,2.08v13.72A2.08,2.08,0,0,1,1064.65,684.27ZM1053,680.11h9.55v-9.55H1053Z"/>
  <path class="cls-13" d="M973.73,721.22a2.08,2.08,0,0,1-2.09-2.08V700.87h-9.55v18.27a2.08,2.08,0,1,1-4.16,0V698.78A2.08,2.08,0,0,1,960,696.7h13.72a2.08,2.08,0,0,1,2.08,2.08v20.36A2.08,2.08,0,0,1,973.73,721.22Z"/>
  <path class="cls-13" d="M1034.34,721.22a2.08,2.08,0,0,1-2.08-2.08V700.87H992.4v18.27a2.09,2.09,0,0,1-4.17,0V698.78a2.09,2.09,0,0,1,2.09-2.08h44a2.09,2.09,0,0,1,2.09,2.08v20.36A2.09,2.09,0,0,1,1034.34,721.22Z"/>
  <path class="cls-13" d="M1064.65,721.22a2.08,2.08,0,0,1-2.08-2.08V700.87H1053v18.27a2.09,2.09,0,0,1-4.17,0V698.78a2.08,2.08,0,0,1,2.09-2.08h13.71a2.08,2.08,0,0,1,2.08,2.08v20.36A2.08,2.08,0,0,1,1064.65,721.22Z"/>
  <g id="g48">
    <g id="path50-2">
      <path class="cls-13" d="M610.32,179.41a2.1,2.1,0,0,1-2-1.43l-19.07-57.74a2.07,2.07,0,0,1,2-2.73H629.4a2.08,2.08,0,0,1,2,2.73L612.3,178A2.09,2.09,0,0,1,610.32,179.41Zm-16.19-57.74,16.19,49,16.2-49Z"/>
    </g>
  </g>
  <g id="g56">
    <g id="path58">
      <path class="cls-13" d="M610.31,179.41a2.07,2.07,0,0,1-1.63-.79l-45.8-57.73a2.08,2.08,0,0,1,1.63-3.38h26.72a2.07,2.07,0,0,1,2,1.43l19.08,57.73a2.09,2.09,0,0,1-1,2.49A2.05,2.05,0,0,1,610.31,179.41Zm-41.48-57.74,35.82,45.17-14.93-45.17Z"/>
    </g>
  </g>
  <g id="g64">
    <g id="path66-2">
      <path class="cls-13" d="M610.3,179.43a2.08,2.08,0,0,1-1.21-.39l-50.17-35.85a5.9,5.9,0,0,1-2.2-6.69L562.53,119a2.09,2.09,0,0,1,3.61-.65l45.79,57.74a2.08,2.08,0,0,1-1.63,3.38Zm-45-55.5-4.59,13.88a1.76,1.76,0,0,0,.66,2l38.13,27.25Z"/>
    </g>
  </g>
  <g id="g72">
    <g id="path74-2">
      <path class="cls-13" d="M591.25,121.69H564.51a2.08,2.08,0,0,1-2-2.73L574,84.18a4,4,0,0,1,3.87-2.76h0a4,4,0,0,1,3.83,2.76L593.23,119a2.08,2.08,0,0,1-2,2.73Zm-23.86-4.16h21l-10.5-31.75Z"/>
    </g>
  </g>
  <g id="g76">
    <g id="path78">
      <path class="cls-13" d="M610.32,179.41a2.09,2.09,0,0,1-2-2.74l19.08-57.73a2.08,2.08,0,0,1,2-1.43h26.74a2.08,2.08,0,0,1,1.88,1.17,2.11,2.11,0,0,1-.25,2.21L612,178.62A2.11,2.11,0,0,1,610.32,179.41Zm20.59-57.74L616,166.84l35.84-45.17Z"/>
    </g>
  </g>
  <g id="g80">
    <g id="path82-2">
      <path class="cls-13" d="M610.33,179.41a2.08,2.08,0,0,1-1.64-3.38l45.8-57.72a2.09,2.09,0,0,1,3.61.65l5.8,17.54a5.91,5.91,0,0,1-2.19,6.69L611.54,179A2.1,2.1,0,0,1,610.33,179.41Zm45-55.48L621.15,167l38.13-27.23a1.77,1.77,0,0,0,.67-2Z"/>
    </g>
  </g>
  <g id="g84">
    <g id="path86-2">
      <path class="cls-13" d="M656.13,121.69H629.4a2.08,2.08,0,0,1-2-2.73L638.9,84.18a4,4,0,0,1,3.84-2.76,4.07,4.07,0,0,1,3.88,2.74L658.11,119a2.08,2.08,0,0,1-2,2.73Zm-23.85-4.16h21L642.77,85.78Z"/>
    </g>
  </g>
  <path class="cls-6" d="M610.31,213.65a83.23,83.23,0,1,1,83.22-83.23A83.32,83.32,0,0,1,610.31,213.65Zm0-162.28a79.06,79.06,0,1,0,79.06,79A79.14,79.14,0,0,0,610.31,51.37Z"/>
  <circle class="cls-10" cx="975.04" cy="363.49" r="8.78"/>
  <path class="cls-5" d="M975,374.36a10.87,10.87,0,1,1,10.86-10.87A10.88,10.88,0,0,1,975,374.36Zm0-17.56a6.7,6.7,0,1,0,6.69,6.69A6.7,6.7,0,0,0,975,356.8Z"/>
  <circle class="cls-10" cx="722.65" cy="583.75" r="8.78"/>
  <path class="cls-5" d="M722.65,594.61a10.86,10.86,0,1,1,10.87-10.86A10.87,10.87,0,0,1,722.65,594.61Zm0-17.55a6.7,6.7,0,1,0,6.7,6.69A6.7,6.7,0,0,0,722.65,577.06Z"/>
  <circle class="cls-10" cx="413.66" cy="486.72" r="8.78"/>
  <path class="cls-5" d="M413.66,497.58a10.86,10.86,0,1,1,10.86-10.86A10.87,10.87,0,0,1,413.66,497.58Zm0-17.55a6.69,6.69,0,1,0,6.69,6.69A6.7,6.7,0,0,0,413.66,480Z"/>
  <circle class="cls-10" cx="131.3" cy="486.72" r="8.78"/>
  <path class="cls-5" d="M131.3,497.58a10.86,10.86,0,1,1,10.86-10.86A10.87,10.87,0,0,1,131.3,497.58Zm0-17.55a6.69,6.69,0,1,0,6.69,6.69A6.7,6.7,0,0,0,131.3,480Z"/>
  <path class="cls-18" d="M590.54,237.19a1.69,1.69,0,0,1-.38,0A108,108,0,0,1,507,163.27a2.08,2.08,0,0,1,4-1.25,103.84,103.84,0,0,0,79.94,71,2.08,2.08,0,0,1-.39,4.13Z"/>
  <path class="cls-18" d="M627.48,237.65a2.08,2.08,0,0,1-.33-4.14,103.54,103.54,0,0,0,54.43-26.85,2.08,2.08,0,1,1,2.85,3,107.63,107.63,0,0,1-56.61,27.92A1.87,1.87,0,0,1,627.48,237.65Z"/>
  <path class="cls-18" d="M695,197a2.07,2.07,0,0,1-1.26-.43,2.09,2.09,0,0,1-.4-2.92A104.11,104.11,0,0,0,673.55,48a2.09,2.09,0,1,1,2.54-3.31,108.3,108.3,0,0,1,20.54,151.42A2.08,2.08,0,0,1,695,197Z"/>
  <path class="cls-18" d="M504.13,132.84a2.09,2.09,0,0,1-2.08-2.09A108.32,108.32,0,0,1,655.76,32.44,2.08,2.08,0,1,1,654,36.22a103.19,103.19,0,0,0-43.69-9.58A104.24,104.24,0,0,0,506.21,130.75,2.09,2.09,0,0,1,504.13,132.84Z"/>
  <path class="cls-18" d="M636.63,258.81a2.08,2.08,0,0,1-.42-4.12,126.4,126.4,0,0,0,91.24-75.83,2.08,2.08,0,1,1,3.85,1.58,130.54,130.54,0,0,1-94.24,78.33A2.09,2.09,0,0,1,636.63,258.81Z"/>
  <path class="cls-18" d="M736.56,157.86a1.87,1.87,0,0,1-.4,0,2.08,2.08,0,0,1-1.64-2.45,128.18,128.18,0,0,0,2.39-24.62,126.62,126.62,0,0,0-106-124.91,2.09,2.09,0,0,1,.67-4.12,130.92,130.92,0,0,1,107,154.46A2.09,2.09,0,0,1,736.56,157.86Z"/>
  <path class="cls-18" d="M541.58,24.05a2.08,2.08,0,0,1-1.12-3.84A130.39,130.39,0,0,1,610.32,0a2.09,2.09,0,1,1,0,4.17,126.19,126.19,0,0,0-67.63,19.56A2.07,2.07,0,0,1,541.58,24.05Z"/>
  <path class="cls-18" d="M596.61,260.78h-.22A130.76,130.76,0,0,1,517.21,39a2.08,2.08,0,0,1,3,2.92,126.59,126.59,0,0,0,76.65,214.74,2.09,2.09,0,0,1-.22,4.16Z"/>
  <path class="cls-2" d="M192.11,230.07H136.8a20.44,20.44,0,1,1,.59-40.88,26.35,26.35,0,0,1,50.67-5.56,23.81,23.81,0,0,1,4.05-.35,23.4,23.4,0,0,1,0,46.79ZM136.8,193.35a16.28,16.28,0,0,0,0,32.56h55.31a19.23,19.23,0,1,0-4.89-37.83,2.09,2.09,0,0,1-2.53-1.41,22.18,22.18,0,0,0-43.37,4.9,2,2,0,0,1-.76,1.47,2.08,2.08,0,0,1-1.59.46A15.83,15.83,0,0,0,136.8,193.35Z"/>
  <path class="cls-2" d="M1127.49,492.56h-55.31a20.44,20.44,0,1,1,.59-40.88,26.35,26.35,0,0,1,50.67-5.56,23.73,23.73,0,0,1,4-.35,23.4,23.4,0,0,1,0,46.79Zm-55.31-36.72a16.28,16.28,0,1,0,0,32.55h55.31a19.23,19.23,0,1,0-4.89-37.82,2.08,2.08,0,0,1-2.53-1.42,22.18,22.18,0,0,0-43.37,4.91,2.07,2.07,0,0,1-.76,1.47,2,2,0,0,1-1.6.45A17.28,17.28,0,0,0,1072.18,455.84Z"/>
  <path class="cls-2" d="M310.63,277.7H174.78a10.94,10.94,0,0,1-10.93-10.94V228a2.08,2.08,0,1,1,4.16,0v38.77a6.78,6.78,0,0,0,6.77,6.77H310.63a2.09,2.09,0,0,1,0,4.17Z"/>
  <path class="cls-12" d="M906.18,458.27a27,27,0,1,1,27-27A27,27,0,0,1,906.18,458.27Zm0-49.82A22.83,22.83,0,1,0,929,431.28,22.85,22.85,0,0,0,906.18,408.45Z"/>
  <path class="cls-13" d="M902.65,439.47a2.07,2.07,0,0,1-1.47-.61l-5.12-5.12a2.09,2.09,0,1,1,3-2.95l3.64,3.65,10.71-10.71a2.09,2.09,0,1,1,2.95,2.95l-12.18,12.18A2.07,2.07,0,0,1,902.65,439.47Z"/>
  <circle class="cls-10" cx="70.54" cy="108.82" r="9.64"/>
  <path class="cls-2" d="M70.54,121.19a12.38,12.38,0,1,1,12.37-12.37A12.39,12.39,0,0,1,70.54,121.19Zm0-19.28a6.91,6.91,0,1,0,6.9,6.91A6.92,6.92,0,0,0,70.54,101.91Z"/>
  <g class="cls-19">
    <image width="52" height="24" transform="translate(22.52 105.89) scale(0.24)"/>
  </g>
  <image width="115" height="24" transform="translate(33.32 105.89) scale(0.24)"/>
  <g class="cls-20">
    <image width="52" height="24" transform="translate(59.48 105.89) scale(0.24)"/>
  </g>
  <g class="cls-21">
    <image width="52" height="24" transform="translate(102.68 105.89) scale(0.24)"/>
  </g>
  <image width="101" height="24" transform="translate(80.12 105.89) scale(0.24)"/>
  <g class="cls-22">
    <image width="52" height="24" transform="translate(69.32 105.89) scale(0.24)"/>
  </g>
  <circle class="cls-10" cx="483.34" cy="256.73" r="9.64"/>
  <path class="cls-2" d="M483.34,269.1a12.38,12.38,0,1,1,12.38-12.37A12.39,12.39,0,0,1,483.34,269.1Zm0-19.28a6.91,6.91,0,1,0,6.9,6.91A6.91,6.91,0,0,0,483.34,249.82Z"/>
  <g class="cls-23">
    <image width="52" height="23" transform="translate(435.32 253.97) scale(0.24)"/>
  </g>
  <image width="115" height="23" transform="translate(446.12 253.97) scale(0.24)"/>
  <g class="cls-24">
    <image width="52" height="23" transform="translate(472.28 253.97) scale(0.24)"/>
  </g>
  <g class="cls-25">
    <image width="52" height="23" transform="translate(515.48 253.97) scale(0.24)"/>
  </g>
  <image width="101" height="23" transform="translate(492.92 253.97) scale(0.24)"/>
  <g class="cls-26">
    <image width="52" height="23" transform="translate(482.12 253.97) scale(0.24)"/>
  </g>
  <circle class="cls-10" cx="1114.54" cy="165.41" r="9.64"/>
  <path class="cls-2" d="M1114.54,177.79a12.38,12.38,0,1,1,12.38-12.38A12.4,12.4,0,0,1,1114.54,177.79Zm0-19.28a6.91,6.91,0,1,0,6.9,6.9A6.91,6.91,0,0,0,1114.54,158.51Z"/>
  <g class="cls-27">
    <image width="52" height="24" transform="translate(1066.52 162.53) scale(0.24)"/>
  </g>
  <image width="115" height="24" transform="translate(1077.32 162.53) scale(0.24)"/>
  <g class="cls-28">
    <image width="52" height="24" transform="translate(1103.48 162.53) scale(0.24)"/>
  </g>
  <g class="cls-29">
    <image width="52" height="24" transform="translate(1146.68 162.53) scale(0.24)"/>
  </g>
  <image width="101" height="24" transform="translate(1124.12 162.53) scale(0.24)"/>
  <g class="cls-30">
    <image width="52" height="24" transform="translate(1113.32 162.53) scale(0.24)"/>
  </g>
  <path class="cls-12" d="M267.92,391.06a27,27,0,1,1,27-27A27,27,0,0,1,267.92,391.06Zm0-49.82a22.83,22.83,0,1,0,22.83,22.82A22.85,22.85,0,0,0,267.92,341.24Z"/>
  <path class="cls-13" d="M264.39,372.26a2.09,2.09,0,0,1-1.47-.61l-5.12-5.12a2.09,2.09,0,1,1,2.95-2.95l3.64,3.65,10.71-10.71a2.08,2.08,0,1,1,2.94,3l-12.18,12.18A2.09,2.09,0,0,1,264.39,372.26Z"/>
  <path class="cls-13" d="M292.3,141.68a2.05,2.05,0,0,1-1.47-.61L264.45,114.7a2.09,2.09,0,0,1,0-3l39.17-39.17a2.08,2.08,0,0,1,2.94,0L332.94,99a2.09,2.09,0,0,1,0,3l-39.17,39.16A2.05,2.05,0,0,1,292.3,141.68Zm-23.43-28.46,23.43,23.43,36.22-36.22L305.09,77Z"/>
  <path class="cls-13" d="M354.62,190.5a2.12,2.12,0,0,1-1.48-.61l-55.66-55.66a2.08,2.08,0,0,1,2.95-2.94l54.19,54.18,22.72-22.72-48-48a2.08,2.08,0,1,1,2.94-2.94l49.48,49.48a2.06,2.06,0,0,1,0,2.94l-25.67,25.67A2.08,2.08,0,0,1,354.62,190.5Z"/>
  <path class="cls-13" d="M279.44,144.83a2.09,2.09,0,0,1-1.48-.61L261.3,127.56a2.09,2.09,0,0,1,0-3l8-8a2.15,2.15,0,0,1,2.95,0l16.66,16.67a2.08,2.08,0,0,1,0,2.94l-8,8A2.08,2.08,0,0,1,279.44,144.83Zm-13.72-18.74,13.72,13.71,5.06-5.06L270.78,121Z"/>
  <path class="cls-13" d="M327.24,97a2.08,2.08,0,0,1-1.47-3.55l4.9-4.91a2.09,2.09,0,0,1,2.95,3l-4.9,4.9A2.07,2.07,0,0,1,327.24,97Z"/>
  <path class="cls-13" d="M310.58,80.36a2.07,2.07,0,0,1-1.47-.61,2.09,2.09,0,0,1,0-3l4.9-4.9A2.09,2.09,0,1,1,317,74.85l-4.9,4.9A2.07,2.07,0,0,1,310.58,80.36Z"/>
  <path class="cls-13" d="M346.33,94.38a35.19,35.19,0,0,1-24.89-60.06,2.08,2.08,0,0,1,2.95,0l46.82,46.81a2.09,2.09,0,0,1,0,3A35,35,0,0,1,346.33,94.38ZM323,38.79a31,31,0,0,0,43.77,43.77Z"/>
  <path class="cls-13" d="M367.45,177.67a2.07,2.07,0,0,1-1.47-.61l-54.23-54.23a2.09,2.09,0,0,1,2.95-3l54.23,54.23a2.09,2.09,0,0,1,0,2.95A2.07,2.07,0,0,1,367.45,177.67Z"/>
  <path class="cls-13" d="M315.9,151.78a2.08,2.08,0,0,1-1.48-3.55l25.67-25.67a2.08,2.08,0,0,1,3,2.94l-25.67,25.67A2.07,2.07,0,0,1,315.9,151.78Z"/>
  <path class="cls-13" d="M341.71,177.6a2.09,2.09,0,0,1-1.47-3.56l25.67-25.67a2.09,2.09,0,0,1,2.95,2.95L343.18,177A2.09,2.09,0,0,1,341.71,177.6Z"/>
  <path class="cls-13" d="M328.8,164.69a2.07,2.07,0,0,1-1.47-.61,2.09,2.09,0,0,1,0-3L353,135.46a2.09,2.09,0,1,1,2.95,2.95l-25.67,25.67A2.07,2.07,0,0,1,328.8,164.69Z"/>
  <path class="cls-13" d="M266.58,102.47a2.09,2.09,0,0,1-1.47-.61L215.63,52.38a2.08,2.08,0,0,1,0-3L241.3,23.76a2.15,2.15,0,0,1,2.95,0l55.57,55.57a2.09,2.09,0,1,1-2.95,3l-54.1-54.1L220.05,50.9l48,48a2.09,2.09,0,0,1,0,3A2.13,2.13,0,0,1,266.58,102.47Z"/>
  <path class="cls-13" d="M279.13,89.35a2.11,2.11,0,0,1-1.47-.61l-49.2-49.2a2.08,2.08,0,0,1,2.95-2.94l49.2,49.19a2.09,2.09,0,0,1-1.48,3.56Z"/>
  <path class="cls-13" d="M255.82,91.71a2.07,2.07,0,0,1-1.47-.61,2.09,2.09,0,0,1,0-2.95L280,62.48a2.09,2.09,0,1,1,3,3L257.3,91.1A2.07,2.07,0,0,1,255.82,91.71Z"/>
  <path class="cls-13" d="M230,65.9a2.09,2.09,0,0,1-1.47-3.56l25.67-25.67a2.08,2.08,0,1,1,2.94,2.95L231.48,65.28A2.06,2.06,0,0,1,230,65.9Z"/>
  <path class="cls-13" d="M242.92,78.8a2.08,2.08,0,0,1-1.48-3.55l25.67-25.68a2.09,2.09,0,1,1,2.95,3L244.39,78.19A2.07,2.07,0,0,1,242.92,78.8Z"/>
  <path class="cls-13" d="M347,60.56A2.08,2.08,0,0,1,345.57,57l10.85-10.85a2.08,2.08,0,0,1,2.95,2.94L348.52,60A2.07,2.07,0,0,1,347,60.56Z"/>
  <path class="cls-13" d="M368.25,49.61a2.08,2.08,0,0,1-2.08-2.08A8.18,8.18,0,0,0,358,39.36a2.09,2.09,0,0,1,0-4.17,12.36,12.36,0,0,1,12.35,12.34A2.09,2.09,0,0,1,368.25,49.61Z"/>
  <path class="cls-13" d="M379.57,49.61a2.08,2.08,0,0,1-2.08-2.08A19.53,19.53,0,0,0,358,28a2.09,2.09,0,0,1,0-4.17,23.7,23.7,0,0,1,23.67,23.67A2.08,2.08,0,0,1,379.57,49.61Z"/>
  <path class="cls-13" d="M390.93,49.61a2.09,2.09,0,0,1-2.09-2.08A30.89,30.89,0,0,0,358,16.68a2.09,2.09,0,0,1,0-4.17,35.06,35.06,0,0,1,35,35A2.08,2.08,0,0,1,390.93,49.61Z"/>
  <path class="cls-13" d="M321.25,112.73a2.07,2.07,0,0,1-1.47-.61L298.32,90.66a2.08,2.08,0,1,1,2.95-2.94l21.46,21.45a2.09,2.09,0,0,1,0,3A2.07,2.07,0,0,1,321.25,112.73Z"/>
  <path class="cls-13" d="M301.73,105.89a2.06,2.06,0,0,1-1.48-.62A2,2,0,0,1,300,105a1.55,1.55,0,0,1-.19-.36,1.49,1.49,0,0,1-.12-.39,1.75,1.75,0,0,1,0-.4,1.84,1.84,0,0,1,0-.41,2.91,2.91,0,0,1,.12-.39,3.13,3.13,0,0,1,.19-.36c.08-.11.17-.21.26-.32a1.89,1.89,0,0,1,.31-.25,1.85,1.85,0,0,1,.37-.19,1.79,1.79,0,0,1,.39-.13,2.21,2.21,0,0,1,.81,0,1.79,1.79,0,0,1,.39.13,2.09,2.09,0,0,1,.36.19,2,2,0,0,1,.32.25,3.49,3.49,0,0,1,.25.32,1.57,1.57,0,0,1,.19.36,2,2,0,0,1,.13.39,1.84,1.84,0,0,1,0,.41,1.75,1.75,0,0,1,0,.4,2,2,0,0,1-.12.39,1.58,1.58,0,0,1-.2.36,2,2,0,0,1-.25.32A2.07,2.07,0,0,1,301.73,105.89Z"/>
  <path class="cls-13" d="M306.75,110.9a1.87,1.87,0,0,1-.42,0,2.52,2.52,0,0,1-.39-.12,3.13,3.13,0,0,1-.36-.19,2.12,2.12,0,0,1-.92-1.73,2.73,2.73,0,0,1,0-.41,2.32,2.32,0,0,1,.13-.4,1.57,1.57,0,0,1,.19-.36,1.86,1.86,0,0,1,.26-.31,1.94,1.94,0,0,1,.31-.26,3.13,3.13,0,0,1,.36-.19,1.36,1.36,0,0,1,.39-.12,2.26,2.26,0,0,1,.82,0,1.46,1.46,0,0,1,.39.12,2.47,2.47,0,0,1,.36.19,1.94,1.94,0,0,1,.31.26,2.1,2.1,0,0,1,.62,1.48,2,2,0,0,1-.17.79,2.13,2.13,0,0,1-.76.94,2.47,2.47,0,0,1-.36.19,2.52,2.52,0,0,1-.39.12A1.81,1.81,0,0,1,306.75,110.9Z"/>
  <path class="cls-13" d="M914.87,125H890a16.53,16.53,0,0,1-16.06-13l-1.32-6.09a16.63,16.63,0,0,0-16.16-13h-9a2.08,2.08,0,0,1-2.08-2.08v-16a2.09,2.09,0,0,1,2.08-2.09H865.7a9.66,9.66,0,0,0,8.16-4.45,13.79,13.79,0,0,1,11.66-6.37h33.79A13.82,13.82,0,0,1,931,68.26h0a9.63,9.63,0,0,0,8.15,4.45h18.28a2.09,2.09,0,0,1,2.08,2.09v16a2.08,2.08,0,0,1-2.08,2.08h-9a16.63,16.63,0,0,0-16.16,13L930.93,112A16.53,16.53,0,0,1,914.87,125ZM849.51,88.7h6.91A20.82,20.82,0,0,1,876.65,105l1.32,6.09a12.34,12.34,0,0,0,12,9.67h24.91a12.34,12.34,0,0,0,12-9.67l1.32-6.09A20.81,20.81,0,0,1,948.41,88.7h6.91V76.88H939.13a13.79,13.79,0,0,1-11.66-6.37h0a9.65,9.65,0,0,0-8.16-4.45H885.52a9.65,9.65,0,0,0-8.16,4.45,13.79,13.79,0,0,1-11.66,6.37H849.51Z"/>
  <path class="cls-13" d="M841.87,102.32a7.65,7.65,0,0,1-7.64-7.64V42.24a7.64,7.64,0,0,1,15.28,0V94.68A7.65,7.65,0,0,1,841.87,102.32Zm0-63.55a3.48,3.48,0,0,0-3.48,3.47V94.68a3.48,3.48,0,0,0,7,0V42.24A3.48,3.48,0,0,0,841.87,38.77Z"/>
  <path class="cls-13" d="M902.41,109.61a9.38,9.38,0,1,1,9.39-9.38A9.39,9.39,0,0,1,902.41,109.61Zm0-14.59a5.22,5.22,0,1,0,5.22,5.21A5.22,5.22,0,0,0,902.41,95Z"/>
  <path class="cls-13" d="M841.87,54.07a187.3,187.3,0,0,1-24.72-1.44c-9.88-1.39-11.91-3.21-11.91-5.5,0-1.64,0-5.06,22-6.49a2.08,2.08,0,1,1,.27,4.16c-9.22.6-14.22,1.59-16.62,2.34,4,1.24,14.39,2.76,30.93,2.76s26.89-1.52,30.93-2.76c-2.46-.77-7.65-1.79-17.29-2.38a2.08,2.08,0,0,1,.26-4.16c22.72,1.39,22.72,4.86,22.72,6.53,0,2.29-2,4.11-11.91,5.5A187.13,187.13,0,0,1,841.87,54.07Zm32.73-6.15h0Z"/>
  <path class="cls-13" d="M963,102.32a7.65,7.65,0,0,1-7.64-7.64V42.24a7.64,7.64,0,1,1,15.28,0V94.68A7.65,7.65,0,0,1,963,102.32Zm0-63.55a3.48,3.48,0,0,0-3.48,3.47V94.68a3.48,3.48,0,0,0,7,0V42.24A3.48,3.48,0,0,0,963,38.77Z"/>
  <path class="cls-13" d="M963,54.07a187.3,187.3,0,0,1-24.72-1.44c-9.88-1.39-11.91-3.21-11.91-5.5,0-1.64,0-5.06,22-6.49a2.08,2.08,0,1,1,.27,4.16c-9.22.6-14.22,1.59-16.62,2.34,4,1.24,14.38,2.76,30.93,2.76s26.89-1.52,30.93-2.76c-2.47-.77-7.65-1.79-17.29-2.38a2.08,2.08,0,0,1,.26-4.16c22.72,1.39,22.72,4.86,22.72,6.53,0,2.29-2,4.11-11.91,5.5A187.13,187.13,0,0,1,963,54.07Zm32.73-6.15h0Z"/>
  <path class="cls-13" d="M194.15,720.75a2.08,2.08,0,0,1-2.08-2.08V697H120.52v21.72a2.09,2.09,0,0,1-4.17,0V694.86a2.09,2.09,0,0,1,2.09-2.08h75.71a2.08,2.08,0,0,1,2.08,2.08v23.81A2.08,2.08,0,0,1,194.15,720.75Z"/>
  <path class="cls-13" d="M267.4,720.75a2.08,2.08,0,0,1-2.08-2.08V611.09a2.09,2.09,0,0,1,4.17,0V718.67A2.08,2.08,0,0,1,267.4,720.75Z"/>
  <path class="cls-13" d="M45.18,714.43a2.08,2.08,0,0,1-2.08-2.09V604.08a2.09,2.09,0,0,1,4.17,0V712.34A2.09,2.09,0,0,1,45.18,714.43Z"/>
  <path class="cls-13" d="M100.07,606.16a2.08,2.08,0,0,1-1.5-3.53l56.22-58.22a2.07,2.07,0,0,1,1.48-.63,2.12,2.12,0,0,1,1.49.6l58.62,58.22a2.09,2.09,0,0,1-2.94,3l-57.12-56.73-54.75,56.7A2.1,2.1,0,0,1,100.07,606.16Z"/>
  <path class="cls-13" d="M100.07,606.16H25a2.09,2.09,0,0,1-1.75-.94,2.11,2.11,0,0,1-.16-2L47,549a2.09,2.09,0,0,1,1.91-1.24h103a2.09,2.09,0,0,1,0,4.17H50.26l-22,50h71.84a2.08,2.08,0,0,1,0,4.16Z"/>
  <path class="cls-13" d="M287.55,606.16H214.91a2.08,2.08,0,1,1,0-4.16h69.45l-22-50H160.69a2.09,2.09,0,1,1,0-4.17h103A2.11,2.11,0,0,1,265.6,549l23.86,54.22a2.08,2.08,0,0,1-1.91,2.92Z"/>
  <path class="cls-9" d="M156.29,624.48a23.65,23.65,0,1,1,23.65-23.64A23.67,23.67,0,0,1,156.29,624.48Zm0-43.12a19.48,19.48,0,1,0,19.48,19.48A19.5,19.5,0,0,0,156.29,581.36Z"/>
  <path class="cls-13" d="M131.1,697a2.08,2.08,0,0,1-2.08-2.09V641.28a2.08,2.08,0,0,1,2.08-2.08h50.38a2.09,2.09,0,0,1,2.09,2.08v46.53a2.09,2.09,0,0,1-4.17,0V643.37H133.19v51.49A2.09,2.09,0,0,1,131.1,697Z"/>
  <path class="cls-13" d="M181.48,657.68H131.1a2.09,2.09,0,0,1,0-4.17h50.38a2.09,2.09,0,1,1,0,4.17Z"/>
  <path class="cls-13" d="M99.81,672H70.27a2.09,2.09,0,0,1-2.09-2.09V633.37a2.09,2.09,0,0,1,2.09-2.09H99.81a2.1,2.1,0,0,1,2.09,2.09v36.49A2.1,2.1,0,0,1,99.81,672Zm-27.46-4.17H97.73V635.45H72.35Z"/>
  <path class="cls-13" d="M99.81,653.7H70.27a2.09,2.09,0,1,1,0-4.17H99.81a2.09,2.09,0,1,1,0,4.17Z"/>
  <path class="cls-13" d="M242.32,672H212.78a2.09,2.09,0,0,1-2.09-2.09V633.37a2.09,2.09,0,0,1,2.09-2.09h29.54a2.1,2.1,0,0,1,2.09,2.09v36.49A2.1,2.1,0,0,1,242.32,672Zm-27.46-4.17h25.38V635.45H214.86Z"/>
  <path class="cls-13" d="M242.32,653.7H212.78a2.09,2.09,0,1,1,0-4.17h29.54a2.09,2.09,0,1,1,0,4.17Z"/>
  <path class="cls-13" d="M156.29,695.76a2.09,2.09,0,0,1-2.08-2.09V655.6a2.09,2.09,0,1,1,4.17,0v38.07A2.1,2.1,0,0,1,156.29,695.76Z"/>
  <path class="cls-13" d="M156.29,602.92h-6.06a2.09,2.09,0,1,1,0-4.17h4.68l3.86-9.11a2.08,2.08,0,0,1,3.84,1.62l-4.4,10.39A2.08,2.08,0,0,1,156.29,602.92Z"/>
  <g class="cls-31">
    <path class="cls-13" d="M115.1,568.74H54a2.09,2.09,0,1,1,0-4.17h61.1a2.09,2.09,0,0,1,0,4.17Z"/>
    <path class="cls-13" d="M236.46,581.36H214.91a2.09,2.09,0,1,1,0-4.17h21.55a2.09,2.09,0,1,1,0,4.17Z"/>
    <path class="cls-13" d="M259.77,581.36H249a2.09,2.09,0,0,1,0-4.17h10.78a2.09,2.09,0,0,1,0,4.17Z"/>
    <path class="cls-13" d="M99.81,590.38H87.11a2.09,2.09,0,0,1,0-4.17h12.7a2.09,2.09,0,1,1,0,4.17Z"/>
    <path class="cls-13" d="M205.06,563.1H194.15a2.09,2.09,0,0,1,0-4.17h10.91a2.09,2.09,0,0,1,0,4.17Z"/>
  </g>
  <path class="cls-13" d="M118.44,705.42H45.18a2.09,2.09,0,0,1,0-4.17h73.26a2.09,2.09,0,0,1,0,4.17Z"/>
  <path class="cls-13" d="M267.4,705.42H194.15a2.09,2.09,0,0,1,0-4.17H267.4a2.09,2.09,0,1,1,0,4.17Z"/>
  <path class="cls-2" d="M991.75,66.54h-.17a2.36,2.36,0,0,1,0-4.72h.17c7.26,0,16.59-3,19.2-5.42a2.36,2.36,0,0,1,3.24,3.44C1010.46,63.37,999.8,66.54,991.75,66.54Z"/>
  <path class="cls-2" d="M790.32,41.68a2.34,2.34,0,0,1-1.55-.58,2.36,2.36,0,0,1-.23-3.34C793.6,32,807.26,28.19,817,28a2.33,2.33,0,0,1,2.41,2.31,2.37,2.37,0,0,1-2.31,2.42c-8.62.18-21,3.58-25,8.16A2.34,2.34,0,0,1,790.32,41.68Z"/>
  <path class="cls-6" d="M1177.9,721.66H2.1a2.08,2.08,0,1,1,0-4.16H1177.9a2.08,2.08,0,1,1,0,4.16Z"/>
  <circle class="cls-10" cx="157.15" cy="719.14" r="8.78"/>
  <path class="cls-5" d="M157.15,730A10.86,10.86,0,1,1,168,719.14,10.87,10.87,0,0,1,157.15,730Zm0-17.55a6.69,6.69,0,1,0,6.7,6.69A6.7,6.7,0,0,0,157.15,712.45Z"/>
  <circle class="cls-10" cx="1012.33" cy="719.14" r="8.78"/>
  <path class="cls-5" d="M1012.33,730a10.86,10.86,0,1,1,10.86-10.86A10.87,10.87,0,0,1,1012.33,730Zm0-17.55a6.69,6.69,0,1,0,6.69,6.69A6.7,6.7,0,0,0,1012.33,712.45Z"/>
  <rect class="cls-2" x="212.96" y="689.51" width="10.46" height="4.4"/>
  <path class="cls-2" d="M223.41,695.34H213a1.42,1.42,0,0,1-1.42-1.42v-4.41A1.41,1.41,0,0,1,213,688.1h10.45a1.42,1.42,0,0,1,1.42,1.41v4.41A1.43,1.43,0,0,1,223.41,695.34Zm-9-2.84H222v-1.57h-7.62Z"/>
  <rect class="cls-2" x="231.16" y="689.51" width="10.46" height="4.4"/>
  <path class="cls-2" d="M241.62,695.34H231.16a1.43,1.43,0,0,1-1.42-1.42v-4.41a1.42,1.42,0,0,1,1.42-1.41h10.46a1.42,1.42,0,0,1,1.42,1.41v4.41A1.43,1.43,0,0,1,241.62,695.34Zm-9-2.84h7.62v-1.57h-7.62Z"/>
  <rect class="cls-2" x="222.06" y="677.96" width="10.46" height="4.4"/>
  <path class="cls-2" d="M232.51,683.78H222.06a1.41,1.41,0,0,1-1.42-1.42V678a1.42,1.42,0,0,1,1.42-1.42h10.45a1.42,1.42,0,0,1,1.42,1.42v4.4A1.41,1.41,0,0,1,232.51,683.78Zm-9-2.83h7.62v-1.57h-7.62Z"/>
  <rect class="cls-2" x="249.31" y="628.78" width="10.46" height="4.4"/>
  <path class="cls-2" d="M259.77,634.6H249.31a1.42,1.42,0,0,1-1.42-1.41v-4.41a1.43,1.43,0,0,1,1.42-1.42h10.46a1.43,1.43,0,0,1,1.42,1.42v4.41A1.42,1.42,0,0,1,259.77,634.6Zm-9-2.83h7.62V630.2h-7.62Z"/>
  <rect class="cls-2" x="240.21" y="617.23" width="10.46" height="4.4"/>
  <path class="cls-2" d="M250.67,623.05H240.21a1.43,1.43,0,0,1-1.42-1.42v-4.4a1.42,1.42,0,0,1,1.42-1.42h10.46a1.41,1.41,0,0,1,1.41,1.42v4.4A1.42,1.42,0,0,1,250.67,623.05Zm-9-2.84h7.62v-1.57h-7.62Z"/>
  <rect class="cls-2" x="83.5" y="689.51" width="10.46" height="4.4"/>
  <path class="cls-2" d="M94,695.34H83.5a1.43,1.43,0,0,1-1.42-1.42v-4.41a1.42,1.42,0,0,1,1.42-1.41H94a1.41,1.41,0,0,1,1.41,1.41v4.41A1.42,1.42,0,0,1,94,695.34Zm-9-2.84h7.62v-1.57H84.92Z"/>
  <rect class="cls-2" x="90.38" y="677.96" width="10.46" height="4.4"/>
  <path class="cls-2" d="M100.84,683.78H90.38A1.42,1.42,0,0,1,89,682.36V678a1.43,1.43,0,0,1,1.42-1.42h10.46a1.42,1.42,0,0,1,1.41,1.42v4.4A1.41,1.41,0,0,1,100.84,683.78Zm-9-2.83h7.62v-1.57H91.8Z"/>
  <rect class="cls-2" x="51.2" y="657.47" width="10.46" height="4.4"/>
  <path class="cls-2" d="M61.65,663.29H51.2a1.42,1.42,0,0,1-1.42-1.42v-4.4a1.41,1.41,0,0,1,1.42-1.42H61.65a1.42,1.42,0,0,1,1.42,1.42v4.4A1.43,1.43,0,0,1,61.65,663.29Zm-9-2.84h7.62v-1.57H52.61Z"/>
  <rect class="cls-2" x="188.92" y="621.63" width="10.46" height="4.4"/>
  <path class="cls-2" d="M199.38,627.45H188.92A1.42,1.42,0,0,1,187.5,626v-4.4a1.43,1.43,0,0,1,1.42-1.42h10.46a1.43,1.43,0,0,1,1.42,1.42V626A1.42,1.42,0,0,1,199.38,627.45Zm-9-2.83H198v-1.57h-7.62Z"/>
  <rect class="cls-2" x="109.94" y="630.98" width="10.46" height="4.4"/>
  <path class="cls-2" d="M120.4,636.81H109.94a1.43,1.43,0,0,1-1.42-1.42V631a1.43,1.43,0,0,1,1.42-1.42H120.4a1.42,1.42,0,0,1,1.41,1.42v4.41A1.42,1.42,0,0,1,120.4,636.81Zm-9-2.84H119V632.4h-7.62Z"/>
  <rect class="cls-2" x="100.84" y="619.43" width="10.46" height="4.4"/>
  <path class="cls-2" d="M111.29,625.25H100.84a1.42,1.42,0,0,1-1.42-1.42v-4.4a1.41,1.41,0,0,1,1.42-1.42h10.45a1.41,1.41,0,0,1,1.42,1.42v4.4A1.42,1.42,0,0,1,111.29,625.25Zm-9-2.84h7.62v-1.56h-7.62Z"/>
</svg>
