<svg id="Layer_1" data-name="Layer 1" xmlns="http://www.w3.org/2000/svg" viewBox="0 0 100 100"><defs><style>.cls-1{fill:#dfd7ff;}.cls-2{fill:#cab5ff;}.cls-3{fill:#ac7fff;}.cls-4{fill:#380d75;}</style></defs><polygon class="cls-1" points="17.66 55.05 2.5 69.2 9.58 69.2 9.58 97.5 25.74 97.5 25.74 69.2 32.82 69.2 17.66 55.05"/><polygon class="cls-2" points="50 28.78 34.84 42.93 41.92 42.93 41.92 97.5 58.08 97.5 58.08 42.93 65.16 42.93 50 28.78"/><polygon class="cls-3" points="82.34 2.5 67.18 16.65 74.26 16.65 74.26 97.5 90.42 97.5 90.42 16.65 97.5 16.65 82.34 2.5"/><path class="cls-4" d="M25.74,100a2.5,2.5,0,0,1-2.5-2.5V69.2a2.5,2.5,0,0,1,2.5-2.5h.74l-8.82-8.23L8.84,66.7h.74a2.5,2.5,0,0,1,2.5,2.5V95h5.66a2.5,2.5,0,0,1,0,5H9.58a2.5,2.5,0,0,1-2.5-2.5V71.7H2.5A2.49,2.49,0,0,1,.79,67.38L16,53.22a2.52,2.52,0,0,1,3.42,0L34.53,67.38a2.49,2.49,0,0,1-1.71,4.32H28.24V97.5A2.5,2.5,0,0,1,25.74,100Z"/><path class="cls-4" d="M58.08,100H41.92a2.5,2.5,0,0,1-2.5-2.5V45.43H34.84a2.5,2.5,0,0,1-1.71-4.33L48.29,27a2.5,2.5,0,0,1,3.42,0L66.87,41.1a2.5,2.5,0,0,1-1.71,4.33H60.58V89.49a2.5,2.5,0,0,1-5,0V42.93a2.5,2.5,0,0,1,2.5-2.5h.74L50,32.2l-8.82,8.23h.74a2.5,2.5,0,0,1,2.5,2.5V95H58.08a2.5,2.5,0,0,1,0,5Z"/><path class="cls-4" d="M90.42,100a2.5,2.5,0,0,1-2.5-2.5V16.65a2.5,2.5,0,0,1,2.5-2.5h.74L82.34,5.92l-8.82,8.23h.74a2.5,2.5,0,0,1,2.5,2.5V95h5.66a2.5,2.5,0,1,1,0,5H74.26a2.5,2.5,0,0,1-2.5-2.5V19.15H67.18a2.5,2.5,0,0,1-1.71-4.33L80.63.67a2.52,2.52,0,0,1,3.42,0L99.21,14.82a2.5,2.5,0,0,1-1.71,4.33H92.92V97.5A2.5,2.5,0,0,1,90.42,100Z"/></svg>