<svg id="Layer_1" data-name="Layer 1" xmlns="http://www.w3.org/2000/svg" viewBox="0 0 50 50"><defs><style>.cls-1{fill:#380d75;}</style></defs><path class="cls-1" d="M41.27,50H8.73a2,2,0,0,1-2-2V2a2,2,0,0,1,2-2h22a2,2,0,0,1,0,4h-20V46H39.27V19.18a2,2,0,0,1,4,0V48A2,2,0,0,1,41.27,50Z"/><path class="cls-1" d="M41.27,15.18H30.75a2,2,0,0,1-2-2V2A2,2,0,0,1,32.21.63L42.72,11.81a2,2,0,0,1-1.45,3.37Zm-8.52-4h3.89L32.75,7.05Z"/><path class="cls-1" d="M15.56,35.32A2,2,0,0,1,14.1,32L19.66,26A2,2,0,0,1,22.53,26L25,28.36l7.13-7.62L35,23.48l-8.54,9.11a2,2,0,0,1-1.42.63,2.06,2.06,0,0,1-1.45-.57l-2.41-2.39L17,34.69A2,2,0,0,1,15.56,35.32Z"/><path class="cls-1" d="M33.54,29a2,2,0,0,1-2-2v-2.9h-2.9a2,2,0,0,1,0-4h4.9a2,2,0,0,1,2,2V27A2,2,0,0,1,33.54,29Z"/></svg>