<svg id="Layer_1" data-name="Layer 1" xmlns="http://www.w3.org/2000/svg" viewBox="0 0 50 50"><defs><style>.cls-1{fill:#380d75;}</style></defs><path class="cls-1" d="M30.79,47.17a2,2,0,0,1-1-3.71c4.78-2.89,8.94-6.81,10.35-9.74,2.14-4.46,2.07-8,1.95-14.44,0-2.34-.09-5,0-8A24,24,0,0,1,25,4.84,23.91,23.91,0,0,1,11.9,11a2,2,0,1,1-.54-4A20.06,20.06,0,0,0,23.53.65a2.06,2.06,0,0,1,2.95,0A19.84,19.84,0,0,0,43.71,7.1a2,2,0,0,1,2.36,2c-.13,4-.07,7.23,0,10.08.13,6.58.21,10.93-2.35,16.24-2.12,4.41-7.52,8.79-11.87,11.43A2,2,0,0,1,30.79,47.17Z"/><path class="cls-1" d="M25,50a2,2,0,0,1-.67-.12c-6.47-2.3-15.25-8.65-18-14.43C3.74,30.13,3.82,25.78,4,19.19c0-2.85.11-6.07,0-10.06A2,2,0,0,1,5.87,7.07,2,2,0,0,1,7.93,9c.13,4.09.07,7.37,0,10.27-.12,6.23-.19,10,2,14.45C12,38,19.48,43.9,25.67,46.12A2,2,0,0,1,25,50Z"/><path class="cls-1" d="M22.34,31.88h0a2,2,0,0,1-1.42-.58l-4.39-4.4a2,2,0,0,1,2.83-2.83l3,3,8.35-8.36a2,2,0,0,1,2.83,2.83L23.75,31.3A2,2,0,0,1,22.34,31.88Z"/></svg>