<svg id="Layer_1" data-name="Layer 1" xmlns="http://www.w3.org/2000/svg" viewBox="0 0 100 100"><defs><style>.cls-1{fill:#fca121;}.cls-2{fill:#fc6d26;}.cls-3{fill:#ff675f;}.cls-4{fill:#341472;}</style></defs><polygon class="cls-1" points="15.67 2.85 18.78 12.34 28.84 12.34 20.7 18.2 23.81 27.69 15.67 21.83 7.53 27.69 10.64 18.2 2.5 12.34 12.56 12.34 15.67 2.85"/><polygon class="cls-2" points="50 2.85 53.11 12.34 63.17 12.34 55.03 18.2 58.14 27.69 50 21.83 41.86 27.69 44.97 18.2 36.83 12.34 46.89 12.34 50 2.85"/><polygon class="cls-1" points="15.67 37.59 18.78 47.08 28.84 47.08 20.7 52.95 23.81 62.44 15.67 56.57 7.53 62.44 10.64 52.95 2.5 47.08 12.56 47.08 15.67 37.59"/><polygon class="cls-1" points="15.67 73 18.78 82.5 28.84 82.5 20.7 88.36 23.81 97.85 15.67 91.98 7.53 97.85 10.64 88.36 2.5 82.5 12.56 82.5 15.67 73"/><polygon class="cls-2" points="50 37.59 53.11 47.08 63.17 47.08 55.03 52.95 58.14 62.44 50 56.57 41.86 62.44 44.97 52.95 36.83 47.08 46.89 47.08 50 37.59"/><polygon class="cls-3" points="84.33 2.85 87.44 12.34 97.5 12.34 89.36 18.2 92.47 27.69 84.33 21.83 76.19 27.69 79.3 18.2 71.16 12.34 81.22 12.34 84.33 2.85"/><path class="cls-4" d="M23.8,30.19a2.47,2.47,0,0,1-1.23-.33l-6.9-3.92L8.78,29.86A2.49,2.49,0,0,1,5.1,27.18l1.62-7.7L.84,14.2A2.51,2.51,0,0,1,2.25,9.85L10.15,9l3.24-7.19a2.5,2.5,0,0,1,4.56,0L21.2,9l7.9.84a2.5,2.5,0,0,1,1.4,4.35l-5.88,5.28,1.63,7.7a2.5,2.5,0,0,1-2.45,3Zm-8.13-9.63a2.48,2.48,0,0,1,1.24.33l3.3,1.88-.78-3.67a2.51,2.51,0,0,1,.78-2.38L23,14.23l-3.75-.4a2.5,2.5,0,0,1-2-1.46L15.67,8.92l-1.55,3.45a2.53,2.53,0,0,1-2,1.46l-3.74.4,2.78,2.49a2.51,2.51,0,0,1,.77,2.38l-.77,3.67,3.29-1.88A2.53,2.53,0,0,1,15.67,20.56Z"/><path class="cls-4" d="M7.54,64.92a2.5,2.5,0,0,1-2.44-3l1.62-7.7L.84,48.93a2.51,2.51,0,0,1,1.41-4.35l7.9-.84,3.24-7.19a2.5,2.5,0,0,1,4.56,0l3.25,7.19,7.9.84a2.5,2.5,0,0,1,1.4,4.35l-5.88,5.28,1.63,7.7a2.5,2.5,0,0,1-3.68,2.69l-6.9-3.93L8.78,64.6A2.49,2.49,0,0,1,7.54,64.92Zm8.13-9.63a2.48,2.48,0,0,1,1.24.33l3.3,1.88-.78-3.67a2.49,2.49,0,0,1,.78-2.37L23,49l-3.75-.4a2.5,2.5,0,0,1-2-1.46l-1.56-3.45L14.12,47.1a2.53,2.53,0,0,1-2,1.46L8.36,49l2.78,2.5a2.48,2.48,0,0,1,.77,2.37l-.77,3.67,3.29-1.88A2.53,2.53,0,0,1,15.67,55.29Z"/><path class="cls-4" d="M58.13,64.92a2.52,2.52,0,0,1-1.24-.32L50,60.67,43.11,64.6a2.51,2.51,0,0,1-3.69-2.69l1.63-7.7-5.88-5.28a2.5,2.5,0,0,1,1.41-4.35l7.9-.84,3.24-7.19a2.5,2.5,0,0,1,4.56,0l3.24,7.19,7.9.84a2.5,2.5,0,0,1,1.41,4.35L59,54.21l1.63,7.7a2.5,2.5,0,0,1-2.45,3ZM42.69,49l2.77,2.5a2.49,2.49,0,0,1,.78,2.37l-.78,3.67,3.3-1.88a2.49,2.49,0,0,1,2.48,0l3.29,1.88-.77-3.67a2.49,2.49,0,0,1,.78-2.37L57.31,49l-3.74-.4a2.5,2.5,0,0,1-2-1.46L50,43.65,48.44,47.1a2.5,2.5,0,0,1-2,1.46Z"/><path class="cls-4" d="M41.87,30.19a2.5,2.5,0,0,1-2.45-3l1.63-7.7L35.17,14.2a2.5,2.5,0,0,1,1.41-4.35L44.48,9l3.24-7.19a2.5,2.5,0,0,1,4.56,0L55.52,9l7.9.84a2.5,2.5,0,0,1,1.41,4.35L59,19.48l1.63,7.7a2.5,2.5,0,0,1-3.69,2.68L50,25.94l-6.89,3.92A2.53,2.53,0,0,1,41.87,30.19Zm.82-16,2.77,2.49a2.51,2.51,0,0,1,.78,2.38l-.78,3.67,3.3-1.88a2.49,2.49,0,0,1,2.48,0l3.29,1.88-.77-3.67a2.51,2.51,0,0,1,.78-2.38l2.77-2.49-3.74-.4a2.5,2.5,0,0,1-2-1.46L50,8.92l-1.56,3.45a2.5,2.5,0,0,1-2,1.46Z"/><path class="cls-4" d="M76.2,30.19a2.5,2.5,0,0,1-2.45-3l1.63-7.7L69.5,14.2a2.5,2.5,0,0,1,1.4-4.35L78.8,9l3.25-7.19a2.5,2.5,0,0,1,4.56,0L89.85,9l7.9.84a2.51,2.51,0,0,1,1.41,4.35l-5.88,5.28,1.63,7.7a2.5,2.5,0,0,1-3.69,2.68l-6.89-3.92-6.9,3.92A2.47,2.47,0,0,1,76.2,30.19Zm.81-16,2.78,2.49a2.51,2.51,0,0,1,.78,2.38l-.78,3.67,3.3-1.88a2.49,2.49,0,0,1,2.48,0l3.29,1.88-.77-3.67a2.51,2.51,0,0,1,.77-2.38l2.78-2.49-3.74-.4a2.53,2.53,0,0,1-2-1.46L84.33,8.92l-1.56,3.45a2.5,2.5,0,0,1-2,1.46Z"/><path class="cls-4" d="M7.54,99.66a2.53,2.53,0,0,1-1.47-.48,2.49,2.49,0,0,1-1-2.54l1.62-7.7L.84,83.66a2.5,2.5,0,0,1,1.41-4.34l7.9-.85,3.24-7.19a2.5,2.5,0,0,1,4.56,0l3.25,7.19,7.9.85A2.49,2.49,0,0,1,31.21,81a2.52,2.52,0,0,1-.71,2.63l-5.88,5.28,1.63,7.7a2.52,2.52,0,0,1-1,2.54,2.49,2.49,0,0,1-2.71.15l-6.9-3.93L8.78,99.33A2.5,2.5,0,0,1,7.54,99.66ZM15.67,90a2.48,2.48,0,0,1,1.24.33l3.3,1.88-.78-3.67a2.49,2.49,0,0,1,.78-2.37L23,83.69l-3.75-.4a2.48,2.48,0,0,1-2-1.46l-1.56-3.44-1.55,3.44a2.51,2.51,0,0,1-2,1.46l-3.74.4,2.78,2.5a2.48,2.48,0,0,1,.77,2.37l-.77,3.67,3.29-1.88A2.53,2.53,0,0,1,15.67,90Z"/></svg>