<svg id="Layer_1" data-name="Layer 1" xmlns="http://www.w3.org/2000/svg" viewBox="0 0 50 50"><defs><style>.cls-1{fill:#380d75;}</style></defs><path class="cls-1" d="M25,50A25,25,0,0,1,25,0a2,2,0,0,1,0,4,21,21,0,1,0,7.73,1.47,2,2,0,0,1,1.48-3.72A25,25,0,0,1,25,50Z"/><path class="cls-1" d="M21.81,35.78a2,2,0,0,1-1.41-.58l-8.79-8.79a2,2,0,0,1,0-2.82L20.4,14.8a2,2,0,0,1,2.83,2.83L15.86,25l7.37,7.37a2,2,0,0,1-1.42,3.41Z"/><path class="cls-1" d="M35,35.78a2,2,0,0,1-1.41-.58l-8.79-8.79a2,2,0,0,1,0-2.82l8.79-8.79a2,2,0,0,1,2.83,2.83L29,25l7.38,7.37A2,2,0,0,1,35,35.78Z"/></svg>