<svg id="Layer_1" data-name="Layer 1" xmlns="http://www.w3.org/2000/svg" viewBox="0 0 100 100"><defs><style>.cls-1{fill:#ac7fff;}.cls-2{fill:#380d75;}</style></defs><path class="cls-1" d="M48.39,32.52a9.63,9.63,0,0,0-9.63,9.63V55H51.61a9.63,9.63,0,0,0,9.63-9.63V32.52Z"/><path class="cls-2" d="M81.87,91.44a2.54,2.54,0,0,1-1.77-.73L68.37,79H46.76a10.51,10.51,0,0,1-10.5-10.5V42.15A12.14,12.14,0,0,1,48.39,30H89.5A10.51,10.51,0,0,1,100,40.52V68.47A10.51,10.51,0,0,1,89.5,79H84.37v10a2.5,2.5,0,0,1-2.5,2.5ZM48.39,35a7.14,7.14,0,0,0-7.13,7.13V68.47a5.5,5.5,0,0,0,5.5,5.5H69.4a2.53,2.53,0,0,1,1.77.73l8.2,8.2V76.47a2.5,2.5,0,0,1,2.5-2.5H89.5a5.51,5.51,0,0,0,5.5-5.5V40.52A5.51,5.51,0,0,0,89.5,35Z"/><path class="cls-2" d="M18.13,70a2.5,2.5,0,0,1-2.5-2.5v-10H10.5A10.51,10.51,0,0,1,0,47V19.06A10.51,10.51,0,0,1,10.5,8.56H53.24a10.51,10.51,0,0,1,10.5,10.5V47a10.51,10.51,0,0,1-10.5,10.5H31.63L19.9,69.25A2.5,2.5,0,0,1,18.13,70ZM10.5,13.56A5.51,5.51,0,0,0,5,19.06V47a5.5,5.5,0,0,0,5.5,5.5h7.63a2.5,2.5,0,0,1,2.5,2.5v6.43l8.2-8.19a2.5,2.5,0,0,1,1.77-.74H53.24a5.5,5.5,0,0,0,5.5-5.5V19.06a5.5,5.5,0,0,0-5.5-5.5Z"/></svg>