<svg xmlns="http://www.w3.org/2000/svg" xmlns:xlink="http://www.w3.org/1999/xlink" viewBox="0 0 538.79 394.28"><defs><style>.cls-1{fill:none;}.cls-2{isolation:isolate;}.cls-3{fill:#ffc46c;}.cls-4{opacity:0.4;}.cls-5{clip-path:url(#clip-path);}.cls-6{fill:#fca121;}.cls-7{fill:#380d75;}.cls-8{fill:#f24e99;}.cls-9{fill:#fc6d26;}.cls-10{fill:#00dbb1;}.cls-11{fill:#6e49cb;}.cls-12{fill:#319ee8;}.cls-13{fill:#ac7fff;}.cls-14{fill:#cab5ff;}.cls-15{opacity:0.5;mix-blend-mode:multiply;}.cls-16{opacity:0.3;}.cls-17{opacity:0.1;}.cls-18{opacity:0.2;}.cls-19{fill:#38f2af;}.cls-20{fill:#afa3c6;}.cls-21{fill:#cfc8e4;}</style><clipPath id="clip-path"><circle class="cls-1" cx="255.84" cy="67.32" r="57.62"/></clipPath></defs><g class="cls-2"><g id="Layer_1" data-name="Layer 1"><circle class="cls-3" cx="255.84" cy="67.32" r="57.62"/><g class="cls-4"><g class="cls-5"><path class="cls-6" d="M327.9,41.65c-34.61-38-49.63-6-58.82-1C251,50.39,229.44,27.2,204.22,30.13c-22.95,2.66-31.86,27.17-14.81,32.65,9.2,3,18-5.8,27.64-6.75,22.18-2.2,39.29,40.27,71.39,1.14,21.66-26.4,24.13-1.11,34.51-1.49C327.43,55.52,326.73,46,327.9,41.65Z"/><path class="cls-6" d="M256.27,89.73c-9.11-1-17.55-5.65-26.69-6.43-31.9-2.71-44.94,38.51-24.16,45.59,13,4.42,23.82-10.52,34.07-15.3,13.52-6.3,30.87-1.08,43.34-9.27,9-5.88,13.67-17.76,23.87-21.07,5.25-1.7,11.14-.77,16.23-2.88,4.92-2,8.18-9.47,3.62-13.54C322.23,63,313.19,63.1,307.92,64,286.46,67.87,284.29,92.81,256.27,89.73Z"/><path class="cls-6" d="M228.2,11.46c10.77-13,51.47-18.07,51.63-2.15C279.92,18.39,248.72,32,228.2,11.46Z"/></g></g><path class="cls-7" d="M312.37,80.12a1.53,1.53,0,0,1-.3,0,1.5,1.5,0,0,1-1.18-1.76A56.14,56.14,0,1,0,200.37,58.72,1.51,1.51,0,0,1,198.65,60a1.49,1.49,0,0,1-1.25-1.71A59.14,59.14,0,1,1,313.83,78.92,1.49,1.49,0,0,1,312.37,80.12Z"/><path class="cls-7" d="M255.82,126.44a59.1,59.1,0,0,1-52.37-31.71,1.5,1.5,0,0,1,2.66-1.39,56.15,56.15,0,0,0,88.83,14.27,1.5,1.5,0,0,1,2.09,2.15A59.16,59.16,0,0,1,255.82,126.44Z"/><path class="cls-8" d="M204.54,71.39a1.47,1.47,0,0,1-.36,0c-6.6-1.63-12.75-3.27-18.3-4.9a1.5,1.5,0,0,1,.85-2.88c5.5,1.62,11.61,3.25,18.16,4.86a1.5,1.5,0,0,1-.35,3Z"/><path class="cls-3" d="M362.6,97a1.5,1.5,0,0,1-1.48-1.29A1.49,1.49,0,0,1,362.39,94c12.37-1.76,14.19-4.77,14.4-6s-.41-5.5-16.58-12.85a1.51,1.51,0,0,1-.74-2,1.49,1.49,0,0,1,2-.74c13.14,6,19.13,11.23,18.29,16.09-.71,4.17-6.25,6.93-16.92,8.45Z"/><path class="cls-9" d="M351.07,71.27a1.39,1.39,0,0,1-.53-.1c-9-3.42-19.75-6.84-32-10.15a1.5,1.5,0,1,1,.78-2.9c12.32,3.34,23.17,6.79,32.26,10.25a1.5,1.5,0,0,1-.54,2.9Z"/><path class="cls-10" d="M199.13,40.53H199a320.09,320.09,0,0,0-38.94-.88,1.5,1.5,0,0,1-.15-3,318.58,318.58,0,0,1,39.32.89,1.5,1.5,0,0,1-.11,3Z"/><path class="cls-9" d="M150.29,62.07a1.5,1.5,0,0,1-.62-.13c-12.75-5.88-18.55-11.06-17.73-15.84.78-4.53,7.27-7.42,19.85-8.82a1.5,1.5,0,0,1,.34,3c-14.85,1.65-17,5-17.23,6.34-.2,1.13.38,5.4,16,12.6a1.5,1.5,0,0,1-.63,2.86Z"/><path class="cls-10" d="M240,87.28a1.42,1.42,0,0,1-.29,0C208.91,81.45,181,74.12,161,66.63a1.5,1.5,0,1,1,1.06-2.81c19.78,7.44,47.54,14.71,78.17,20.49a1.5,1.5,0,0,1-.27,3Z"/><path class="cls-8" d="M340.46,98.27c-23.7,0-55.31-3.12-88.41-8.79a1.5,1.5,0,1,1,.5-3c36.83,6.31,71.78,9.44,95.88,8.62A1.51,1.51,0,0,1,350,96.59a1.5,1.5,0,0,1-1.44,1.55Q344.67,98.28,340.46,98.27Z"/><path class="cls-8" d="M340.63,59.24a1.61,1.61,0,0,1-.43-.07c-7.4-2.25-15.32-4.45-23.53-6.55a1.5,1.5,0,0,1,.74-2.91c8.26,2.11,16.22,4.33,23.66,6.59a1.5,1.5,0,0,1-.44,2.94Z"/><path class="cls-11" d="M202.94,33.17h-.14c-6.58-.59-13-1.05-19.18-1.38a1.5,1.5,0,1,1,.16-3c6.19.33,12.67.79,19.29,1.38a1.5,1.5,0,0,1-.13,3Z"/><path class="cls-8" d="M111.85,50.68a1.52,1.52,0,0,1-1.14-.52c-2.44-2.85-3.45-5.61-3-8.21,2.21-12.86,38.87-14.11,60.53-13.72a1.5,1.5,0,0,1-.06,3c-40.84-.75-56.49,5.31-57.51,11.23-.29,1.67.5,3.61,2.33,5.74a1.5,1.5,0,0,1-.16,2.12A1.52,1.52,0,0,1,111.85,50.68Z"/><path class="cls-12" d="M208.39,88.32a1.86,1.86,0,0,1-.34,0C168.66,79.14,136.61,68,120.11,57.71a1.5,1.5,0,1,1,1.59-2.55c16.23,10.13,48,21.13,87,30.19a1.5,1.5,0,0,1-.33,3Z"/><path class="cls-11" d="M329.29,105.92h-.07a678.12,678.12,0,0,1-78.43-9.06c-10.86-1.86-21.65-3.94-32.08-6.19a1.5,1.5,0,1,1,.64-2.93C229.73,90,240.47,92,251.29,93.9a679.18,679.18,0,0,0,78.08,9,1.5,1.5,0,0,1-.08,3Z"/><path class="cls-10" d="M350,106.47c-4.3,0-8.39-.08-12.09-.19a1.5,1.5,0,0,1-1.45-1.55,1.46,1.46,0,0,1,1.54-1.45c44.79,1.41,61.91-4.8,63-11.1a5.33,5.33,0,0,0-.65-3.3,1.5,1.5,0,1,1,2.67-1.36,8.19,8.19,0,0,1,.93,5.17C402,104.14,373.21,106.47,350,106.47Z"/><path class="cls-12" d="M395,82.54a1.52,1.52,0,0,1-.9-.3c-8-6-22.4-12.63-41.52-19.11a1.51,1.51,0,0,1-.94-1.9,1.49,1.49,0,0,1,1.9-.94c19.42,6.57,34.07,13.33,42.36,19.55a1.5,1.5,0,0,1-.9,2.7Z"/><path class="cls-3" d="M174.71,62.83a1.41,1.41,0,0,1-.49-.09c-18.68-6.48-20.56-10.27-20.12-12.84.3-1.77,1.22-7.16,38.22-4.88a1.5,1.5,0,0,1,1.41,1.59A1.48,1.48,0,0,1,192.14,48c-28.16-1.74-34.87,1.13-35.09,2.38,0,0,0,3.2,18.15,9.51a1.5,1.5,0,0,1,.93,1.91A1.51,1.51,0,0,1,174.71,62.83Z"/><path class="cls-12" d="M291.39,87h-.18c-12.06-1.44-24.78-3.3-37.79-5.52-13.3-2.28-26.15-4.82-38.22-7.54a1.5,1.5,0,1,1,.67-2.92c12,2.71,24.81,5.23,38.06,7.5,13,2.22,25.62,4.07,37.64,5.5a1.5,1.5,0,0,1-.18,3Z"/><path class="cls-11" d="M335.8,90.22c-5.08,0-9.9-.25-13-.41-6.45-.33-13.62-.89-21.32-1.67a1.5,1.5,0,0,1,.3-3c7.65.78,14.78,1.34,21.17,1.67,25.4,1.3,31.47-1.42,31.67-2.58,0,0,0-3-16.74-9a1.5,1.5,0,0,1,1-2.83c17.39,6.2,19.13,9.85,18.7,12.35C356.82,89.26,345.81,90.22,335.8,90.22Z"/><path class="cls-12" d="M331.44,73a1.41,1.41,0,0,1-.45-.07c-3.52-1.12-7.4-2.26-11.52-3.4a1.5,1.5,0,1,1,.8-2.89c4.16,1.15,8.07,2.3,11.63,3.43a1.5,1.5,0,0,1-.46,2.93Z"/><circle class="cls-13" cx="431.68" cy="247.04" r="61.52"/><rect class="cls-14" x="421.1" y="245.41" width="21" height="15.24"/><path class="cls-7" d="M431.68,310.06a63,63,0,1,1,63-63A63.09,63.09,0,0,1,431.68,310.06Zm0-123a60,60,0,1,0,60,60A60.09,60.09,0,0,0,431.68,187Z"/><g class="cls-15"><path class="cls-7" d="M431.68,322.75A75.71,75.71,0,1,1,507.39,247,75.79,75.79,0,0,1,431.68,322.75Zm0-148.42A72.71,72.71,0,1,0,504.39,247,72.79,72.79,0,0,0,431.68,174.33Z"/></g><g class="cls-16"><path class="cls-7" d="M431.68,336.38A89.34,89.34,0,1,1,521,247,89.44,89.44,0,0,1,431.68,336.38Zm0-175.68A86.34,86.34,0,1,0,518,247,86.44,86.44,0,0,0,431.68,160.7Z"/></g><g class="cls-17"><path class="cls-7" d="M431.68,351a103.95,103.95,0,1,1,104-104A104.06,104.06,0,0,1,431.68,351Zm0-204.89A100.95,100.95,0,1,0,532.63,247,101.05,101.05,0,0,0,431.68,146.1Z"/></g><g class="cls-18"><path class="cls-7" d="M408,299.92a1.48,1.48,0,0,1-1-.42c-12.18-11.74-19.44-31.28-19.44-52.26s7.2-40.34,19.26-52.09a1.5,1.5,0,1,1,2.09,2.15c-11.49,11.19-18.35,29.86-18.35,49.94s6.92,38.92,18.52,50.1a1.5,1.5,0,0,1,0,2.12A1.53,1.53,0,0,1,408,299.92Z"/><path class="cls-7" d="M455.53,299.75a1.52,1.52,0,0,1-1.08-.45,1.5,1.5,0,0,1,0-2.12c11.5-11.2,18.36-29.87,18.36-49.94,0-20.27-7-39-18.63-50.2a1.5,1.5,0,0,1,2.08-2.17c12.24,11.73,19.55,31.3,19.55,52.37,0,20.86-7.2,40.34-19.27,52.09A1.5,1.5,0,0,1,455.53,299.75Z"/><path class="cls-7" d="M441,305a1.51,1.51,0,0,1-1.14-2.48c6.86-8.07,11.89-25.45,13.12-45.36a1.47,1.47,0,0,1,1.59-1.4,1.5,1.5,0,0,1,1.4,1.59c-1.29,20.83-6.45,38.45-13.83,47.12A1.48,1.48,0,0,1,441,305Z"/><path class="cls-7" d="M454.48,238.64a1.49,1.49,0,0,1-1.49-1.4c-1.26-20.27-6.41-37.78-13.44-45.7a1.5,1.5,0,0,1,2.24-2c7.57,8.52,12.87,26.28,14.19,47.5a1.5,1.5,0,0,1-1.4,1.59Z"/><path class="cls-7" d="M408.87,238.48h-.09a1.5,1.5,0,0,1-1.41-1.59c1.33-21,6.56-38.59,14-47.15a1.5,1.5,0,0,1,2.27,2c-6.93,8-12,25.35-13.28,45.37A1.5,1.5,0,0,1,408.87,238.48Z"/><path class="cls-7" d="M422.27,305a1.52,1.52,0,0,1-1.15-.54c-7.33-8.7-12.48-26.28-13.76-47a1.5,1.5,0,1,1,3-.18c1.22,19.83,6.22,37.19,13.05,45.29a1.51,1.51,0,0,1-1.14,2.47Z"/><path class="cls-7" d="M431.67,291.4a90.31,90.31,0,0,1-10.31-.58,1.5,1.5,0,1,1,.34-3,88.32,88.32,0,0,0,20,0,1.5,1.5,0,0,1,.34,3A90.84,90.84,0,0,1,431.67,291.4Z"/><path class="cls-7" d="M441.84,206.65h-.18a88.14,88.14,0,0,0-20,0,1.5,1.5,0,1,1-.34-3,91.32,91.32,0,0,1,20.64,0,1.5,1.5,0,0,1-.17,3Z"/><path class="cls-7" d="M431.67,271.86A145,145,0,0,1,398,268.12a1.5,1.5,0,1,1,.71-2.91,151,151,0,0,0,65.87,0,1.5,1.5,0,1,1,.71,2.92A145.59,145.59,0,0,1,431.67,271.86Z"/><path class="cls-7" d="M464.88,229.27a1.34,1.34,0,0,1-.35,0,151.34,151.34,0,0,0-65.67,0,1.5,1.5,0,1,1-.7-2.92,154.43,154.43,0,0,1,67.07,0,1.5,1.5,0,0,1-.35,3Z"/><path class="cls-7" d="M412.66,248.74H380.42a1.5,1.5,0,0,1,0-3h32.24a1.5,1.5,0,1,1,0,3Z"/><path class="cls-7" d="M482.94,248.74H450.66a1.5,1.5,0,0,1,0-3h32.28a1.5,1.5,0,1,1,0,3Z"/><path class="cls-7" d="M431.67,229.27a1.5,1.5,0,0,1-1.5-1.5V198.53a1.5,1.5,0,0,1,3,0v29.24A1.5,1.5,0,0,1,431.67,229.27Z"/><path class="cls-7" d="M431.67,300a1.5,1.5,0,0,1-1.5-1.5v-33.4a1.5,1.5,0,0,1,3,0v33.4A1.5,1.5,0,0,1,431.67,300Z"/></g><path class="cls-7" d="M431.6,257.44a1.5,1.5,0,0,1-1.5-1.5v-4.1a1.5,1.5,0,0,1,3,0v4.1A1.5,1.5,0,0,1,431.6,257.44Z"/><path class="cls-7" d="M431.6,254.27a2.43,2.43,0,1,1,2.43-2.43A2.44,2.44,0,0,1,431.6,254.27Zm0-3a.56.56,0,0,0-.57.57.57.57,0,1,0,1.13,0A.56.56,0,0,0,431.6,251.27Z"/><path class="cls-7" d="M439,245.74a1.5,1.5,0,0,1-1.5-1.5V240.9a5.85,5.85,0,1,0-11.7,0v3.34a1.5,1.5,0,0,1-3,0V240.9a8.85,8.85,0,1,1,17.7,0v3.34A1.5,1.5,0,0,1,439,245.74Z"/><path class="cls-7" d="M442.1,262.16h-21a1.5,1.5,0,0,1-1.5-1.5V248.83a1.5,1.5,0,0,1,3,0v10.33h19.5a1.5,1.5,0,0,1,0,3Z"/><path class="cls-7" d="M442.1,258.74a1.5,1.5,0,0,1-1.5-1.5V246.91H421.1a1.5,1.5,0,0,1,0-3h21a1.51,1.51,0,0,1,1.5,1.5v11.83A1.5,1.5,0,0,1,442.1,258.74Z"/><circle class="cls-19" cx="136.21" cy="296.94" r="62.58"/><path class="cls-10" d="M154.19,341.54a62.57,62.57,0,0,1-52.31-96.92,62.58,62.58,0,1,0,86.65,86.65A62.33,62.33,0,0,1,154.19,341.54Z"/><path class="cls-20" d="M125.67,362.39a7.46,7.46,0,0,0-14.88,1.08l.11,1.56L125.73,364Z"/><rect class="cls-20" x="125.24" y="344.96" width="19.3" height="8.32" transform="matrix(1, -0.07, 0.07, 1, -24.69, 10.57)"/><rect class="cls-20" x="90.11" y="347.48" width="19.3" height="8.32" transform="translate(224.49 695.22) rotate(175.89)"/><path class="cls-20" d="M121.88,356.42l-.68-9.37a4.1,4.1,0,0,0-4.38-3.8h0a4.11,4.11,0,0,0-3.8,4.39l.67,9.37"/><path class="cls-20" d="M43.88,270a7.46,7.46,0,1,0-12-8.93L31,262.34l11.91,8.9Z"/><rect class="cls-20" x="49.89" y="261.85" width="19.3" height="8.32" transform="translate(171.01 17.25) rotate(36.76)"/><rect class="cls-20" x="21.67" y="240.77" width="19.3" height="8.32" transform="matrix(-0.8, -0.6, 0.6, -0.8, -90.14, 459.91)"/><path class="cls-20" d="M44.92,263l5.62-7.52a4.1,4.1,0,0,0-.83-5.74h0a4.1,4.1,0,0,0-5.75.83l-5.62,7.52"/><path class="cls-20" d="M235.62,214.06a7.46,7.46,0,0,0-11.73,9.23l1,1.23,11.69-9.2Z"/><rect class="cls-20" x="226.16" y="193.73" width="19.3" height="8.32" transform="translate(-71.88 188.17) rotate(-38.19)"/><rect class="cls-20" x="198.48" y="215.51" width="19.3" height="8.32" transform="translate(507.53 263.62) rotate(141.81)"/><path class="cls-20" d="M229.12,211.24l-5.8-7.38a4.12,4.12,0,0,0-5.77-.69h0a4.09,4.09,0,0,0-.68,5.76l5.8,7.38"/><path class="cls-7" d="M110.9,366.53a1.51,1.51,0,0,1-1.5-1.4l-.11-1.56a9,9,0,0,1,17.88-1.28v0l.06,1.56a1.5,1.5,0,0,1-1.39,1.56L111,366.52Zm7.33-9.56h-.43a6,6,0,0,0-5.52,6.38v.06l11.89-.85v-.09A6,6,0,0,0,118.23,357Z"/><path class="cls-7" d="M125.56,355.45a1.49,1.49,0,0,1-1.49-1.39l-.6-8.29a1.49,1.49,0,0,1,.36-1.09,1.52,1.52,0,0,1,1-.52l19.25-1.38a1.51,1.51,0,0,1,1.61,1.39l.59,8.29a1.49,1.49,0,0,1-.36,1.09,1.46,1.46,0,0,1-1,.51l-19.26,1.39Zm1-8.4.38,5.3,16.26-1.17-.38-5.3Z"/><path class="cls-7" d="M90.43,358a1.49,1.49,0,0,1-1.49-1.39l-.6-8.3a1.49,1.49,0,0,1,1.39-1.6L109,345.3a1.52,1.52,0,0,1,1.6,1.39l.6,8.3a1.56,1.56,0,0,1-.37,1.09,1.5,1.5,0,0,1-1,.51L90.54,358Zm1-8.41.38,5.31,16.27-1.17-.39-5.31Z"/><path class="cls-7" d="M113.69,358.51a1.5,1.5,0,0,1-1.49-1.4l-.68-9.36a5.6,5.6,0,0,1,5.19-6,5.61,5.61,0,0,1,6,5.18l.67,9.37a1.49,1.49,0,0,1-1.39,1.6,1.5,1.5,0,0,1-1.6-1.38l-.67-9.37a2.61,2.61,0,0,0-5.2.37l.68,9.37a1.5,1.5,0,0,1-1.39,1.6Z"/><path class="cls-7" d="M136.21,360.19a1.5,1.5,0,1,1,0-3A60.88,60.88,0,0,0,194,277.31a1.5,1.5,0,0,1,2.85-.94,63.88,63.88,0,0,1-60.66,83.82Z"/><path class="cls-7" d="M188.08,263.24a1.51,1.51,0,0,1-1.25-.66,60.86,60.86,0,0,0-90.38-12.3,1.5,1.5,0,0,1-2-2.27,63.87,63.87,0,0,1,94.84,12.9,1.5,1.5,0,0,1-.42,2.08A1.47,1.47,0,0,1,188.08,263.24Z"/><path class="cls-7" d="M93,342.77a1.5,1.5,0,0,1-1-.42,63.85,63.85,0,0,1-6.19-85.13,1.5,1.5,0,0,1,2.37,1.84A60.85,60.85,0,0,0,94,340.19a1.5,1.5,0,0,1-1,2.58Z"/><g class="cls-4"><path class="cls-7" d="M95.58,370.06a1.53,1.53,0,0,1-.3,0A1.47,1.47,0,0,1,95,370l-.26-.14a1.3,1.3,0,0,1-.22-.19,1.48,1.48,0,0,1-.44-1.06,1.52,1.52,0,0,1,.44-1.06,1.24,1.24,0,0,1,.22-.18,1.65,1.65,0,0,1,.26-.14,1.52,1.52,0,0,1,.28-.09,1.54,1.54,0,0,1,1.36.41,1.52,1.52,0,0,1,.44,1.06,1.5,1.5,0,0,1-.44,1.06A1.52,1.52,0,0,1,95.58,370.06Z"/><path class="cls-7" d="M47.4,390.37A1.5,1.5,0,0,1,47,388.3h0a1.5,1.5,0,0,1,2.08-.43h0a1.51,1.51,0,0,1,.43,2.08h0a1.52,1.52,0,0,1-1.26.67h0A1.48,1.48,0,0,1,47.4,390.37Zm12.37-.88a1.49,1.49,0,0,1,1-1.89h0a1.49,1.49,0,0,1,1.89,1h0a1.49,1.49,0,0,1-1,1.89h0a1.47,1.47,0,0,1-.46.07h0A1.51,1.51,0,0,1,59.77,389.49Zm12.29-5.27a1.49,1.49,0,0,1,.58-2h0a1.5,1.5,0,0,1,2,.58h0a1.51,1.51,0,0,1-.58,2h0a1.47,1.47,0,0,1-.73.19h0A1.49,1.49,0,0,1,72.06,384.22ZM44.8,378.35a1.49,1.49,0,0,1-1.25-1.71h0a1.5,1.5,0,0,1,1.7-1.26h0a1.49,1.49,0,0,1,1.26,1.71h0A1.5,1.5,0,0,1,45,378.37h0Zm38.69-1.08a1.52,1.52,0,0,1,.4-2.09h0a1.51,1.51,0,0,1,2.09.4h0a1.51,1.51,0,0,1-.4,2.08h0a1.46,1.46,0,0,1-.84.26h0A1.51,1.51,0,0,1,83.49,377.27ZM48.23,365.44a1.51,1.51,0,0,1-.84-1.95h0a1.5,1.5,0,0,1,2-.84h0a1.49,1.49,0,0,1,.84,1.94h0a1.5,1.5,0,0,1-1.39,1h0A1.54,1.54,0,0,1,48.23,365.44Zm5.47-12.22a1.5,1.5,0,0,1-.65-2h0a1.5,1.5,0,0,1,2-.65h0a1.5,1.5,0,0,1,.65,2h0a1.49,1.49,0,0,1-1.33.81h0A1.52,1.52,0,0,1,53.7,353.22Zm6.43-11.74a1.5,1.5,0,0,1-.52-2.06h0a1.49,1.49,0,0,1,2-.52h0a1.5,1.5,0,0,1,.53,2.05h0a1.51,1.51,0,0,1-1.29.74h0A1.51,1.51,0,0,1,60.13,341.48Zm7-11.39a1.51,1.51,0,0,1-.43-2.08h0a1.5,1.5,0,0,1,2.08-.43h0a1.5,1.5,0,0,1,.43,2.07h0a1.5,1.5,0,0,1-1.25.68h0A1.57,1.57,0,0,1,67.17,330.09Z"/><path class="cls-7" d="M75.54,319.24a1.53,1.53,0,0,1-1.06-.43,2.11,2.11,0,0,1-.19-.23,2.15,2.15,0,0,1-.14-.26c0-.09-.06-.19-.08-.28a1.53,1.53,0,0,1,0-.3,1.48,1.48,0,0,1,.44-1.05,1.37,1.37,0,0,1,.23-.19,1.57,1.57,0,0,1,.25-.14,1.61,1.61,0,0,1,.29-.09,1.42,1.42,0,0,1,.58,0,1.61,1.61,0,0,1,.54.23,1.37,1.37,0,0,1,.23.19,1.48,1.48,0,0,1,.44,1.05,1.41,1.41,0,0,1-.12.58,1.26,1.26,0,0,1-.13.26,2.11,2.11,0,0,1-.19.23,2,2,0,0,1-.23.18,1.3,1.3,0,0,1-.26.14.9.9,0,0,1-.28.08A1.36,1.36,0,0,1,75.54,319.24Z"/><path class="cls-7" d="M217.76,228.8a1.5,1.5,0,0,1-1.06-2.56l.22-.19.26-.14.28-.08a1.47,1.47,0,0,1,.59,0l.28.08.26.14a2.11,2.11,0,0,1,.23.19,1.5,1.5,0,0,1,.44,1.06,1.52,1.52,0,0,1-.44,1.06,2.11,2.11,0,0,1-.23.19l-.26.14-.28.08A1.43,1.43,0,0,1,217.76,228.8Z"/><path class="cls-7" d="M139.23,329.37a1.5,1.5,0,0,1,0-2.12h0a1.5,1.5,0,0,1,2.12,0h0a1.5,1.5,0,0,1,0,2.12h0a1.48,1.48,0,0,1-1.07.45h0A1.48,1.48,0,0,1,139.23,329.37Zm8.86-9.2a1.49,1.49,0,0,1-.07-2.12h0a1.5,1.5,0,0,1,2.12-.07h0a1.51,1.51,0,0,1,.07,2.12h0a1.5,1.5,0,0,1-1.1.48h0A1.51,1.51,0,0,1,148.09,320.17Zm8.65-9.39a1.49,1.49,0,0,1-.11-2.12h0a1.5,1.5,0,0,1,2.11-.11h0a1.5,1.5,0,0,1,.12,2.12h0a1.5,1.5,0,0,1-1.12.49h0A1.46,1.46,0,0,1,156.74,310.78Zm8.45-9.57a1.5,1.5,0,0,1-.16-2.12h0a1.49,1.49,0,0,1,2.12-.15h0a1.49,1.49,0,0,1,.16,2.11h0a1.52,1.52,0,0,1-1.14.52h0A1.52,1.52,0,0,1,165.19,301.21Zm8.25-9.75a1.5,1.5,0,0,1-.21-2.11h0a1.5,1.5,0,0,1,2.11-.21h0a1.5,1.5,0,0,1,.21,2.11h0a1.51,1.51,0,0,1-1.16.55h0A1.48,1.48,0,0,1,173.44,291.46Zm8-9.93a1.51,1.51,0,0,1-.25-2.11h0a1.5,1.5,0,0,1,2.1-.25h0a1.49,1.49,0,0,1,.26,2.1h0a1.51,1.51,0,0,1-1.18.58h0A1.54,1.54,0,0,1,181.46,281.53Zm7.79-10.12a1.49,1.49,0,0,1-.31-2.1h0A1.49,1.49,0,0,1,191,269h0a1.51,1.51,0,0,1,.31,2.1h0a1.52,1.52,0,0,1-1.21.6h0A1.53,1.53,0,0,1,189.25,271.41Zm7.51-10.33a1.5,1.5,0,0,1-.37-2.09h0a1.51,1.51,0,0,1,2.09-.37h0a1.51,1.51,0,0,1,.37,2.09h0a1.49,1.49,0,0,1-1.23.64h0A1.44,1.44,0,0,1,196.76,261.08Zm7.2-10.55a1.49,1.49,0,0,1-.44-2.07h0a1.5,1.5,0,0,1,2.08-.44h0a1.51,1.51,0,0,1,.44,2.08h0a1.51,1.51,0,0,1-1.26.68h0A1.46,1.46,0,0,1,204,250.53Zm6.81-10.8a1.49,1.49,0,0,1-.52-2h0a1.49,1.49,0,0,1,2.05-.52h0a1.5,1.5,0,0,1,.53,2.05h0a1.52,1.52,0,0,1-1.3.73h0A1.41,1.41,0,0,1,210.77,239.73Z"/><path class="cls-7" d="M131.25,338.82l-.3,0a1.52,1.52,0,0,1-.28-.09,1.58,1.58,0,0,1-.26-.13,1.76,1.76,0,0,1-.41-.42,2.15,2.15,0,0,1-.14-.26,2.29,2.29,0,0,1-.08-.28,1.43,1.43,0,0,1,0-.29,1.36,1.36,0,0,1,0-.29,2.29,2.29,0,0,1,.08-.28,1.59,1.59,0,0,1,.14-.26,1.06,1.06,0,0,1,.19-.23,1.37,1.37,0,0,1,.22-.19l.26-.14.28-.08a1.52,1.52,0,0,1,1.36.41,1,1,0,0,1,.18.23,1.08,1.08,0,0,1,.14.26,1.31,1.31,0,0,1,.09.28,1.42,1.42,0,0,1,0,.58,1.69,1.69,0,0,1-.41.77A1.52,1.52,0,0,1,131.25,338.82Z"/><path class="cls-7" d="M153.86,230.89a1.52,1.52,0,0,1-1.06-.44,1.45,1.45,0,0,1-.19-.23,1.26,1.26,0,0,1-.13-.26,1.31,1.31,0,0,1-.09-.28,1.42,1.42,0,0,1,0-.58,1.31,1.31,0,0,1,.09-.28,1.26,1.26,0,0,1,.13-.26,2.11,2.11,0,0,1,.19-.23,1.55,1.55,0,0,1,2.12,0,1.52,1.52,0,0,1,.44,1.06,1.5,1.5,0,0,1-1.5,1.5Z"/><path class="cls-7" d="M161.78,222.37a1.49,1.49,0,0,1,.17-2.11h0a1.5,1.5,0,0,1,2.11.16h0a1.5,1.5,0,0,1-.16,2.12h0a1.5,1.5,0,0,1-1,.36h0A1.5,1.5,0,0,1,161.78,222.37Zm9.28-7.74a1.5,1.5,0,0,1,.24-2.11h0a1.49,1.49,0,0,1,2.1.24h0a1.5,1.5,0,0,1-.23,2.11h0a1.52,1.52,0,0,1-.94.33h0A1.49,1.49,0,0,1,171.06,214.63Zm9.56-7.39a1.5,1.5,0,0,1,.33-2.1h0a1.5,1.5,0,0,1,2.09.33h0a1.5,1.5,0,0,1-.33,2.1h0a1.5,1.5,0,0,1-.88.29h0A1.5,1.5,0,0,1,180.62,207.24Zm9.91-6.91a1.5,1.5,0,0,1,.45-2.08h0a1.5,1.5,0,0,1,2.07.46h0a1.49,1.49,0,0,1-.45,2.07h0a1.5,1.5,0,0,1-.81.24h0A1.5,1.5,0,0,1,190.53,200.33Zm10.37-6.19a1.51,1.51,0,0,1,.66-2h0a1.51,1.51,0,0,1,2,.66h0a1.5,1.5,0,0,1-.66,2h0a1.4,1.4,0,0,1-.68.17h0A1.51,1.51,0,0,1,200.9,194.14ZM212,189.35a1.5,1.5,0,0,1,1.08-1.83h0a1.5,1.5,0,0,1,1.83,1.08h0a1.51,1.51,0,0,1-1.08,1.83h0a1.64,1.64,0,0,1-.38,0h0A1.51,1.51,0,0,1,212,189.35Z"/><path class="cls-7" d="M225,191.64a1.49,1.49,0,0,1-1.47-1.79,1.61,1.61,0,0,1,.23-.54,2,2,0,0,1,.18-.23,1.73,1.73,0,0,1,.49-.32,1.52,1.52,0,0,1,.28-.09,1.94,1.94,0,0,1,.59,0,1.52,1.52,0,0,1,.28.09,1.3,1.3,0,0,1,.26.14,1,1,0,0,1,.22.18,1.37,1.37,0,0,1,.19.23,1.3,1.3,0,0,1,.14.26,1,1,0,0,1,.08.28,1.5,1.5,0,0,1,0,.29,1.53,1.53,0,0,1,0,.3,1,1,0,0,1-.08.28,1.65,1.65,0,0,1-.14.26,2,2,0,0,1-.41.41,1.3,1.3,0,0,1-.26.14,1,1,0,0,1-.28.08Z"/><path class="cls-7" d="M59.6,254.91a1.52,1.52,0,0,1-1.06-.44,2.11,2.11,0,0,1-.19-.23,1.26,1.26,0,0,1-.13-.26,1.41,1.41,0,0,1-.12-.57,1.5,1.5,0,0,1,.44-1.06,1.37,1.37,0,0,1,.23-.19,1.61,1.61,0,0,1,.54-.23,1.88,1.88,0,0,1,.58,0,1.61,1.61,0,0,1,.54.23,1.76,1.76,0,0,1,.42.41,2.15,2.15,0,0,1,.14.26c0,.09.06.19.08.28a1.5,1.5,0,0,1-1.47,1.8Z"/><path class="cls-7" d="M210.55,325.27a1.5,1.5,0,0,1,1.48-1.52h0a1.49,1.49,0,0,1,1.51,1.49h0a1.48,1.48,0,0,1-1.48,1.51h0A1.49,1.49,0,0,1,210.55,325.27Zm12.86-.35a1.5,1.5,0,0,1,1.41-1.58h0a1.5,1.5,0,0,1,1.58,1.41h0a1.49,1.49,0,0,1-1.41,1.58h-.09A1.49,1.49,0,0,1,223.41,324.92Zm12.82-1a1.51,1.51,0,0,1,1.3-1.68h0a1.51,1.51,0,0,1,1.68,1.31h0a1.5,1.5,0,0,1-1.31,1.67h-.18A1.5,1.5,0,0,1,236.23,323.89Zm12.69-2.08A1.51,1.51,0,0,1,250,320h0a1.51,1.51,0,0,1,1.82,1.1h0a1.52,1.52,0,0,1-1.1,1.82h0a1.47,1.47,0,0,1-.36,0h0A1.51,1.51,0,0,1,248.92,321.81Zm12.16-4.14a1.49,1.49,0,0,1,.48-2.06h0a1.5,1.5,0,0,1,2.07.49h0a1.49,1.49,0,0,1-.49,2.06h0a1.51,1.51,0,0,1-.79.23h0A1.51,1.51,0,0,1,261.08,317.67Zm4.71-10.84a1.49,1.49,0,0,1,.87-1.94h0a1.49,1.49,0,0,1,1.93.86h0a1.5,1.5,0,0,1-.86,1.94h0a1.47,1.47,0,0,1-.54.1h0A1.51,1.51,0,0,1,265.79,306.83Zm-8-8.75h0a1.49,1.49,0,0,1-.33-2.09h0a1.49,1.49,0,0,1,2.09-.33h0a1.5,1.5,0,0,1,.33,2.1h0a1.49,1.49,0,0,1-1.21.61h0A1.48,1.48,0,0,1,257.82,298.08ZM247,291.58a1.5,1.5,0,0,1-.65-2h0a1.5,1.5,0,0,1,2-.65h0a1.49,1.49,0,0,1,.65,2h0a1.51,1.51,0,0,1-1.34.81h0A1.51,1.51,0,0,1,247,291.58Zm-11.58-5.33h0a1.5,1.5,0,0,1-.81-2h0a1.5,1.5,0,0,1,2-.81h0a1.5,1.5,0,0,1,.81,2h0a1.5,1.5,0,0,1-1.39.92h0A1.44,1.44,0,0,1,235.43,286.25Zm-11.94-4.58a1.5,1.5,0,0,1-.91-1.92h0a1.49,1.49,0,0,1,1.91-.91h0a1.5,1.5,0,0,1,.91,1.92h0a1.5,1.5,0,0,1-1.41,1h0A1.43,1.43,0,0,1,223.49,281.67Zm-12.16-4a1.51,1.51,0,0,1-1-1.87h0a1.5,1.5,0,0,1,1.88-1h0a1.5,1.5,0,0,1,1,1.87h0a1.5,1.5,0,0,1-1.44,1.06h0A1.39,1.39,0,0,1,211.33,277.63ZM199,274a1.51,1.51,0,0,1-1-1.85h0a1.5,1.5,0,0,1,1.84-1.05h0a1.49,1.49,0,0,1,1.05,1.84h0a1.49,1.49,0,0,1-1.45,1.1h0A1.41,1.41,0,0,1,199,274Zm-12.41-3.24a1.5,1.5,0,0,1-1.1-1.81h0a1.5,1.5,0,0,1,1.82-1.1h0a1.51,1.51,0,0,1,1.1,1.82h0a1.51,1.51,0,0,1-1.46,1.14h0A1.49,1.49,0,0,1,186.61,270.79Zm-12.5-2.91h0a1.49,1.49,0,0,1-1.14-1.79h0a1.51,1.51,0,0,1,1.79-1.14h0a1.5,1.5,0,0,1,1.14,1.79h0a1.49,1.49,0,0,1-1.46,1.18h0A1.24,1.24,0,0,1,174.11,267.88Zm-12.56-2.61a1.5,1.5,0,0,1-1.19-1.76h0a1.5,1.5,0,0,1,1.76-1.18h0a1.51,1.51,0,0,1,1.19,1.76h0a1.51,1.51,0,0,1-1.47,1.21h0A1.36,1.36,0,0,1,161.55,265.27Zm-12.63-2.33a1.5,1.5,0,0,1-1.22-1.73h0a1.49,1.49,0,0,1,1.73-1.22h0a1.49,1.49,0,0,1,1.22,1.73h0a1.48,1.48,0,0,1-1.47,1.24h0A1.18,1.18,0,0,1,148.92,262.94Zm-12.67-2.05a1.51,1.51,0,0,1-1.26-1.71h0a1.51,1.51,0,0,1,1.71-1.26h0a1.51,1.51,0,0,1,1.26,1.71h0a1.49,1.49,0,0,1-1.48,1.27h-.23Zm-12.7-1.79h0a1.5,1.5,0,0,1-1.3-1.68h0a1.51,1.51,0,0,1,1.68-1.3h0a1.52,1.52,0,0,1,1.3,1.69h0a1.51,1.51,0,0,1-1.49,1.3h-.19Zm-12.75-1.5a1.5,1.5,0,0,1-1.33-1.65h0a1.5,1.5,0,0,1,1.65-1.34h0a1.5,1.5,0,0,1,1.33,1.65h0A1.5,1.5,0,0,1,111,257.6h-.16ZM98,256.39a1.49,1.49,0,0,1-1.37-1.62h0a1.49,1.49,0,0,1,1.62-1.37h0A1.51,1.51,0,0,1,99.65,255h0a1.5,1.5,0,0,1-1.49,1.37H98Zm-12.79-.88a1.51,1.51,0,0,1-1.42-1.58h0a1.51,1.51,0,0,1,1.58-1.42h0a1.51,1.51,0,0,1,1.42,1.58h0a1.51,1.51,0,0,1-1.5,1.42h-.08ZM72.43,255h0A1.51,1.51,0,0,1,71,253.45h0A1.51,1.51,0,0,1,72.5,252h0A1.5,1.5,0,0,1,74,253.53h0a1.5,1.5,0,0,1-1.5,1.46h0Z"/><path class="cls-7" d="M199.1,326.64a1.36,1.36,0,0,1-.29,0,1.69,1.69,0,0,1-.77-.41,2.11,2.11,0,0,1-.19-.23,1.26,1.26,0,0,1-.13-.26,1.31,1.31,0,0,1-.09-.28,1.5,1.5,0,0,1,0-.29,1.41,1.41,0,0,1,.12-.58,1.26,1.26,0,0,1,.13-.26,1.37,1.37,0,0,1,.19-.22,1.55,1.55,0,0,1,2.12,0,1.5,1.5,0,0,1,.44,1.06,1.52,1.52,0,0,1-.44,1.06A1.5,1.5,0,0,1,199.1,326.64Z"/><path class="cls-7" d="M74.17,307.89a1.48,1.48,0,0,1-1.06-.44,1.37,1.37,0,0,1-.19-.23,1.61,1.61,0,0,1-.23-.54,2.11,2.11,0,0,1,0-.58,1.61,1.61,0,0,1,.23-.54,1.37,1.37,0,0,1,.19-.23,1.49,1.49,0,0,1,1.35-.41l.28.08.26.14a2.11,2.11,0,0,1,.23.19,1.53,1.53,0,0,1,.43,1.06,2.64,2.64,0,0,1,0,.29,1.69,1.69,0,0,1-.41.77,2.11,2.11,0,0,1-.23.19,1.26,1.26,0,0,1-.26.13,1.52,1.52,0,0,1-.28.09Z"/><path class="cls-7" d="M61.11,304.16a1.49,1.49,0,0,1-1-1.87h0a1.49,1.49,0,0,1,1.87-1h0a1.49,1.49,0,0,1,1,1.87h0a1.49,1.49,0,0,1-1.43,1.06h0A1.39,1.39,0,0,1,61.11,304.16ZM48.57,300a1.5,1.5,0,0,1-.91-1.92h0a1.49,1.49,0,0,1,1.91-.91h0a1.5,1.5,0,0,1,.92,1.91h0a1.5,1.5,0,0,1-1.42,1h0A1.49,1.49,0,0,1,48.57,300Zm-12.35-4.71a1.5,1.5,0,0,1-.81-2h0a1.5,1.5,0,0,1,2-.81h0a1.5,1.5,0,0,1,.81,2h0a1.51,1.51,0,0,1-1.38.92h0A1.46,1.46,0,0,1,36.22,295.33Zm-12-5.52a1.5,1.5,0,0,1-.65-2h0a1.5,1.5,0,0,1,2-.65h0a1.51,1.51,0,0,1,.65,2h0a1.51,1.51,0,0,1-1.34.82h0A1.52,1.52,0,0,1,24.17,289.81Zm-11.45-6.89a1.51,1.51,0,0,1-.32-2.1h0a1.5,1.5,0,0,1,2.1-.32h0a1.49,1.49,0,0,1,.32,2.09h0a1.5,1.5,0,0,1-1.21.62h0A1.55,1.55,0,0,1,12.72,282.92Zm-9-10.47a1.48,1.48,0,0,1,.94-1.89h0a1.49,1.49,0,0,1,1.9.94h0a1.5,1.5,0,0,1-1,1.9h0a1.5,1.5,0,0,1-.47.08h0A1.5,1.5,0,0,1,3.67,272.45Zm5.71-10.31a1.5,1.5,0,0,1,.56-2h0a1.48,1.48,0,0,1,2,.55h0a1.48,1.48,0,0,1-.55,2h0a1.43,1.43,0,0,1-.74.21h0A1.51,1.51,0,0,1,9.38,262.14Z"/><path class="cls-7" d="M23.05,258.46a1.36,1.36,0,0,1-.29,0,1.31,1.31,0,0,1-.28-.09,1.26,1.26,0,0,1-.26-.13A2.11,2.11,0,0,1,22,258a1.5,1.5,0,0,1,0-2.12,1.55,1.55,0,0,1,2.12,0,1.5,1.5,0,0,1,0,2.12,1.45,1.45,0,0,1-.23.19,1.19,1.19,0,0,1-.25.13,1.61,1.61,0,0,1-.29.09A1.36,1.36,0,0,1,23.05,258.46Z"/></g><path class="cls-7" d="M224.94,226.1h-.16a1.51,1.51,0,0,1-1-.55l-1-1.22A9,9,0,1,1,236.71,213l0,0,.94,1.25a1.5,1.5,0,0,1-.25,2.07l-11.55,9.37A1.47,1.47,0,0,1,224.94,226.1Zm4.8-13.39a6,6,0,0,0-4.62,9.73l0,.05,9.26-7.52-.06-.07a5.92,5.92,0,0,0-4-2.15C230.16,212.73,229.94,212.71,229.74,212.71Z"/><path class="cls-7" d="M233.81,225.19a1.48,1.48,0,0,1-1.16-.56l-3.08-3.79A1.5,1.5,0,0,1,231.9,219l3.08,3.79a1.51,1.51,0,0,1-1.17,2.45Z"/><path class="cls-7" d="M233.81,226a2.31,2.31,0,0,1-1.79-.85,2.31,2.31,0,0,1,.34-3.24,2.29,2.29,0,0,1,1.69-.51,2.36,2.36,0,0,1,1.55.84,2.32,2.32,0,0,1-.34,3.25A2.31,2.31,0,0,1,233.81,226Zm-.54-1.86a.73.73,0,0,0,.47.25.7.7,0,0,0,.51-.15.73.73,0,0,0,.25-.47.67.67,0,0,0-.15-.51.7.7,0,0,0-1-.1.68.68,0,0,0-.25.46.7.7,0,0,0,.15.51h0Z"/><path class="cls-7" d="M230.62,208.62h-.16a1.51,1.51,0,0,1-1-.55l-5.24-6.45a1.5,1.5,0,0,1,.22-2.11l15-12.17a1.5,1.5,0,0,1,2.11.22l5.24,6.46a1.5,1.5,0,0,1-.22,2.11l-15,12.16A1.49,1.49,0,0,1,230.62,208.62Zm-3.13-7.74,3.35,4.13,12.66-10.27-3.35-4.13Z"/><path class="cls-7" d="M203.27,230.81a1.5,1.5,0,0,1-1.17-.56l-5.24-6.45a1.5,1.5,0,0,1,.22-2.11l15-12.17a1.52,1.52,0,0,1,2.11.22l5.24,6.46a1.5,1.5,0,0,1-.22,2.11l-15,12.16A1.47,1.47,0,0,1,203.27,230.81Zm-3.13-7.74,3.35,4.13,12.66-10.27-3.35-4.13Z"/><path class="cls-7" d="M222.63,217.92a1.51,1.51,0,0,1-1.16-.55l-5.92-7.29a5.61,5.61,0,1,1,8.71-7.06l5.91,7.29a1.5,1.5,0,0,1-2.33,1.89l-5.91-7.3a2.61,2.61,0,0,0-4.62,1.38,2.59,2.59,0,0,0,.57,1.91l5.92,7.29a1.51,1.51,0,0,1-.22,2.11A1.52,1.52,0,0,1,222.63,217.92Z"/><path class="cls-7" d="M42.87,272.88a1.52,1.52,0,0,1-.92-.31l-11.76-9.1a1.55,1.55,0,0,1-.57-1,1.53,1.53,0,0,1,.3-1.11l1-1.24a9,9,0,0,1,14.18,11l0,0-1,1.21A1.54,1.54,0,0,1,42.87,272.88Zm1-2.71h0ZM33.21,262l9.43,7.3.06-.07A6,6,0,0,0,33.25,262Z"/><path class="cls-7" d="M34,272.21a1.47,1.47,0,0,1-.91-.31,1.5,1.5,0,0,1-.27-2.11l3-3.86a1.5,1.5,0,0,1,2.37,1.83l-3,3.87A1.51,1.51,0,0,1,34,272.21Z"/><path class="cls-7" d="M34,273a2.27,2.27,0,0,1-1.41-.48,2.3,2.3,0,1,1,3.24-.41h0A2.3,2.3,0,0,1,34,273Zm-.55-2.73a.71.71,0,0,0,.13,1,.7.7,0,0,0,1-.13Zm1.19.92h0ZM34,270a.7.7,0,0,0-.55.27l1.1.85h0a.66.66,0,0,0,.13-.51A.7.7,0,0,0,34,270Z"/><path class="cls-7" d="M64.69,277.12a1.54,1.54,0,0,1-.92-.31L48.5,265a1.55,1.55,0,0,1-.57-1,1.5,1.5,0,0,1,.31-1.11l5.08-6.58a1.51,1.51,0,0,1,2.11-.26L70.7,267.86A1.51,1.51,0,0,1,71,270l-5.09,6.58a1.53,1.53,0,0,1-1,.57ZM51.53,263.54l12.89,10,3.25-4.21-12.89-10Z"/><path class="cls-7" d="M36.83,255.57a1.47,1.47,0,0,1-.91-.31L20.65,243.45a1.5,1.5,0,0,1-.27-2.11l5.09-6.58a1.55,1.55,0,0,1,1-.57,1.52,1.52,0,0,1,1.11.31l15.27,11.81a1.47,1.47,0,0,1,.57,1,1.51,1.51,0,0,1-.3,1.11L38,255A1.51,1.51,0,0,1,36.83,255.57ZM23.67,242l12.9,10,3.25-4.21-12.9-10Z"/><path class="cls-7" d="M45,264.69a1.47,1.47,0,0,1-.92-.32,1.5,1.5,0,0,1-.27-2.1l5.75-7.43a2.61,2.61,0,0,0-.47-3.65,2.6,2.6,0,0,0-3.65.47l-5.74,7.42a1.5,1.5,0,0,1-2.38-1.83l5.75-7.43a5.61,5.61,0,0,1,10,2.72A5.55,5.55,0,0,1,52,256.68l-5.74,7.43A1.51,1.51,0,0,1,45,264.69Z"/><path class="cls-7" d="M110.9,366.53a1.51,1.51,0,0,1-1.5-1.4l-.11-1.56a9,9,0,0,1,17.88-1.28v0l.06,1.56a1.5,1.5,0,0,1-1.39,1.56L111,366.52Zm7.33-9.56h-.43a6,6,0,0,0-5.52,6.38v.06l11.89-.85v-.09A6,6,0,0,0,118.23,357Z"/><path class="cls-7" d="M118.69,370.86a1.49,1.49,0,0,1-1.49-1.39l-.35-4.87a1.5,1.5,0,0,1,3-.22l.35,4.88a1.5,1.5,0,0,1-1.39,1.6Z"/><path class="cls-7" d="M118.69,371.67a2.3,2.3,0,0,1-.16-4.6A2.29,2.29,0,0,1,121,369.2h0a2.3,2.3,0,0,1-2.13,2.46Zm.7-2.36-1.39.1a.68.68,0,0,0,.24.48.69.69,0,0,0,1.15-.57Zm-.7-.64h0a.69.69,0,0,0-.64.74l1.39-.1A.71.71,0,0,0,118.69,368.67Z"/><path class="cls-7" d="M125.56,355.45a1.49,1.49,0,0,1-1.49-1.39l-.6-8.29a1.49,1.49,0,0,1,.36-1.09,1.52,1.52,0,0,1,1-.52l19.25-1.38a1.51,1.51,0,0,1,1.61,1.39l.59,8.29a1.49,1.49,0,0,1-.36,1.09,1.46,1.46,0,0,1-1,.51l-19.26,1.39Zm1-8.4.38,5.3,16.26-1.17-.38-5.3Z"/><path class="cls-7" d="M90.43,358a1.49,1.49,0,0,1-1.49-1.39l-.6-8.3a1.49,1.49,0,0,1,1.39-1.6L109,345.3a1.52,1.52,0,0,1,1.6,1.39l.6,8.3a1.56,1.56,0,0,1-.37,1.09,1.5,1.5,0,0,1-1,.51L90.54,358Zm1-8.41.38,5.31,16.27-1.17-.39-5.31Z"/><path class="cls-7" d="M113.69,358.51a1.5,1.5,0,0,1-1.49-1.4l-.68-9.36a5.6,5.6,0,0,1,5.19-6,5.61,5.61,0,0,1,6,5.18l.67,9.37a1.49,1.49,0,0,1-1.39,1.6,1.5,1.5,0,0,1-1.6-1.38l-.67-9.37a2.61,2.61,0,0,0-5.2.37l.68,9.37a1.5,1.5,0,0,1-1.39,1.6Z"/><path class="cls-21" d="M90.66,170.83a21.56,21.56,0,1,1,20.89-27h0a21.58,21.58,0,0,1-20.89,27Zm0-41.12a19.56,19.56,0,1,0,16.88,29.44,19.39,19.39,0,0,0,2-14.83h0A19.58,19.58,0,0,0,90.69,129.71Z"/><path class="cls-21" d="M92.3,140.38a5.47,5.47,0,0,1-2.73-.76c-2.26-1.32-3.2-3.93-2.11-5.8a3.68,3.68,0,0,1,2.73-1.73,5.26,5.26,0,0,1,3.37.72c2.26,1.32,3.2,3.93,2.1,5.8a3.64,3.64,0,0,1-2.72,1.73A4.58,4.58,0,0,1,92.3,140.38Zm-1.48-6.33a2.17,2.17,0,0,0-.36,0,1.69,1.69,0,0,0-1.27.75c-.53.91.11,2.32,1.39,3.07a3.34,3.34,0,0,0,2.09.47,1.68,1.68,0,0,0,1.27-.76c.53-.91-.11-2.31-1.39-3.06A3.5,3.5,0,0,0,90.82,134.05Z"/><path class="cls-21" d="M103.15,146.28a3.15,3.15,0,0,1-1.62-.45,2.51,2.51,0,1,1,2.51-4.29h0a2.71,2.71,0,0,1,1.24,3.61A2.4,2.4,0,0,1,103.15,146.28Zm-.74-3.19a.5.5,0,0,0-.4.14c-.09.17.07.61.53.88s.92.2,1,0-.07-.6-.53-.87A1.23,1.23,0,0,0,102.41,143.09Z"/><path class="cls-21" d="M80,141.94a3.22,3.22,0,0,1-1.63-.46,2.7,2.7,0,0,1-1.24-3.6,2.31,2.31,0,0,1,1.73-1.12,3.19,3.19,0,0,1,2,.43h0a3.19,3.19,0,0,1,1.36,1.55,2.32,2.32,0,0,1-.12,2.06A2.56,2.56,0,0,1,80,141.94Zm-.75-3.2h-.12a.39.39,0,0,0-.28.15c-.1.16.06.6.53.87a1.19,1.19,0,0,0,.73.17.42.42,0,0,0,.29-.14.43.43,0,0,0,0-.32,1.16,1.16,0,0,0-.51-.55h0A1.23,1.23,0,0,0,79.25,138.74Z"/><path class="cls-21" d="M90.82,146a1.61,1.61,0,0,1-.85-.24,1.69,1.69,0,0,1-.72-.82,1.4,1.4,0,0,1,.09-1.23,1.51,1.51,0,0,1,2.1-.46,1.67,1.67,0,0,1,.71.82A1.38,1.38,0,0,1,91,145.93Zm0-2h-.06a.6.6,0,0,0-.42.29.62.62,0,0,0,0,.51.37.37,0,0,0,.14.18.5.5,0,0,0,.63-.26.58.58,0,0,0,.06-.51A.41.41,0,0,0,91,144,.29.29,0,0,0,90.82,144Z"/><path class="cls-21" d="M99.27,135.71a1.64,1.64,0,0,1-.84-.23,1.62,1.62,0,0,1-.71-.82,1.37,1.37,0,0,1,.08-1.23,1.53,1.53,0,0,1,2.1-.46h0a1.53,1.53,0,0,1,.63,2.05A1.43,1.43,0,0,1,99.27,135.71Zm.13-1.88-.51.87a.52.52,0,0,0,.64-.26.61.61,0,0,0,0-.51.3.3,0,0,0-.14-.17.51.51,0,0,0-.64.25.53.53,0,0,0,.09.69Z"/><path class="cls-21" d="M98.37,163.29a1.72,1.72,0,0,1-.85-.23,1.67,1.67,0,0,1-.71-.82,1.43,1.43,0,0,1,.08-1.23,1.52,1.52,0,0,1,2.1-.46,1.62,1.62,0,0,1,.71.82,1.37,1.37,0,0,1-.08,1.23,1.41,1.41,0,0,1-1,.68Zm0-2h-.06a.61.61,0,0,0-.42.29.62.62,0,0,0,0,.51.37.37,0,0,0,.14.18.52.52,0,0,0,.64-.26.62.62,0,0,0,0-.51.37.37,0,0,0-.14-.18A.38.38,0,0,0,98.37,161.29Z"/><path class="cls-21" d="M102.26,158.52a6.78,6.78,0,0,1-3.38-1,6.55,6.55,0,0,1-2.81-3.19,4.39,4.39,0,0,1,.2-3.9c1.33-2.29,4.68-2.82,7.46-1.2h0a6.58,6.58,0,0,1,2.82,3.19,4.25,4.25,0,0,1-3.51,6A6.81,6.81,0,0,1,102.26,158.52Zm-1.92-8.19A2.62,2.62,0,0,0,98,151.49a2.46,2.46,0,0,0-.06,2.16,4.81,4.81,0,0,0,4.84,2.83,2.26,2.26,0,0,0,1.92-3.28,4.55,4.55,0,0,0-2-2.19A4.75,4.75,0,0,0,100.34,150.33Z"/><path class="cls-21" d="M464.75,94.27a13.23,13.23,0,1,1,3.35-.43A13.26,13.26,0,0,1,464.75,94.27Zm0-24.47a11.11,11.11,0,0,0-2.86.37,11.22,11.22,0,1,0,8.51,1.17A11.14,11.14,0,0,0,464.77,69.8Z"/><path class="cls-21" d="M475.22,87.91a1,1,0,0,1-.34-.06c-7.45-2.66-14.94-5.51-22.27-8.49a1,1,0,1,1,.76-1.85c7.29,3,14.76,5.81,22.18,8.45a1,1,0,0,1-.33,2Z"/><path class="cls-21" d="M476.18,82.73a1,1,0,0,1-.56-.18c-5.43-3.68-10.74-7.66-15.79-11.85a1,1,0,0,1,1.27-1.54c5,4.15,10.27,8.09,15.65,11.74a1,1,0,0,1-.57,1.83Z"/><path class="cls-21" d="M474.19,89.81h0a168,168,0,0,1-20.41-2,1,1,0,0,1,.28-2,166.63,166.63,0,0,0,20.16,1.94,1,1,0,0,1,0,2Z"/><g class="cls-18"><path class="cls-21" d="M359.56,373.69a1,1,0,0,1-.71-.29,1,1,0,0,1-.29-.71,1,1,0,0,1,1.19-1,.6.6,0,0,1,.19.06.91.91,0,0,1,.17.09.64.64,0,0,1,.15.13,1,1,0,0,1,.3.7,1,1,0,0,1-.3.71.61.61,0,0,1-.15.12,1,1,0,0,1-.17.1l-.19.05A.62.62,0,0,1,359.56,373.69Z"/></g><path class="cls-21" d="M305.73,371.66h-.36a13.6,13.6,0,0,1-6.12-25.55,44.5,44.5,0,0,0,10.21-7.88l4.21-4.2a3.14,3.14,0,0,1,4.35,0h0a3,3,0,0,1,.9,2.17,3.09,3.09,0,0,1-.9,2.18l-4.74,4.74a1.07,1.07,0,1,0,1.52,1.52l8.41-8.41a3.07,3.07,0,0,1,4.34,0,3.05,3.05,0,0,1,0,4.35l-11,11a1.07,1.07,0,1,0,1.52,1.52l5.26-5.26a3.15,3.15,0,0,1,4.35,0,3.08,3.08,0,0,1,0,4.35l-2.38,2.38a52.05,52.05,0,0,0-7.89,10.46,14.14,14.14,0,0,1-2.06,2.63A13.45,13.45,0,0,1,305.73,371.66Zm10.11-36.53a1.1,1.1,0,0,0-.76.31l-4.2,4.21a46.75,46.75,0,0,1-10.68,8.22,11.6,11.6,0,1,0,13.72,18.4,11.92,11.92,0,0,0,1.75-2.25,55.53,55.53,0,0,1,8.19-10.84l2.39-2.38a1.1,1.1,0,0,0,.31-.76,1.07,1.07,0,0,0-1.83-.76l-5.27,5.26a3.15,3.15,0,0,1-4.35,0,3.08,3.08,0,0,1,0-4.35l11-11a1.07,1.07,0,0,0,.32-.76,1.11,1.11,0,0,0-.32-.76,1.07,1.07,0,0,0-1.52,0l-8.41,8.41a3.08,3.08,0,1,1-4.35-4.35L316.6,337a1.06,1.06,0,0,0,0-1.52h0A1.07,1.07,0,0,0,315.84,335.13Z"/><path class="cls-21" d="M303,375.91h-.16a17.91,17.91,0,0,1-14.44-22.68,1,1,0,0,1,1.93.55,16,16,0,0,0,3.41,15,15.73,15.73,0,0,0,9.41,5.11,1,1,0,0,1-.15,2Z"/><path class="cls-21" d="M307.38,376a1,1,0,0,1-.11-2,15.56,15.56,0,0,0,6.09-1.95,1,1,0,0,1,1,1.75,17.82,17.82,0,0,1-6.86,2.19Z"/><path class="cls-21" d="M316,378.21a1,1,0,0,1-.88-.51,1,1,0,0,1,.39-1.36,21.13,21.13,0,0,0,4.49-3.41l3.51-3.52a1,1,0,1,1,1.42,1.42l-3.52,3.51a22.53,22.53,0,0,1-4.92,3.74A1,1,0,0,1,316,378.21Z"/><path class="cls-21" d="M305.37,381a22.51,22.51,0,0,1-12.51-3.79,1,1,0,0,1,1.11-1.67A20.56,20.56,0,0,0,309,378.66a1,1,0,0,1,.34,2A22.52,22.52,0,0,1,305.37,381Z"/><path class="cls-21" d="M286.55,370a1,1,0,0,1-.88-.51,23,23,0,0,1-2-17.43,21.34,21.34,0,0,1,2.48-5.48,1,1,0,1,1,1.69,1.07,18.82,18.82,0,0,0-2.24,5,21,21,0,0,0,1.82,15.9,1,1,0,0,1-.87,1.49Z"/><path class="cls-21" d="M322.55,332.57a3.08,3.08,0,0,1-2.17-5.25l3.77-3.77a3.08,3.08,0,0,1,4.35,4.35l-3.78,3.77h0A3,3,0,0,1,322.55,332.57ZM324,331h0Zm2.3-6.31a1.07,1.07,0,0,0-.76.31l-3.77,3.77a1.09,1.09,0,0,0,0,1.53,1.11,1.11,0,0,0,1.52,0l3.77-3.78a1.07,1.07,0,0,0,.32-.76,1.11,1.11,0,0,0-.32-.76A1.06,1.06,0,0,0,326.32,324.65Z"/><path class="cls-21" d="M331.7,346.9a3.08,3.08,0,0,1-2.18-5.25l5.57-5.56a3.07,3.07,0,1,1,4.35,4.34L333.87,346h0A3.07,3.07,0,0,1,331.7,346.9Zm1.46-1.61h0Zm4.1-8.1a1.07,1.07,0,0,0-.76.31l-5.56,5.57a1.07,1.07,0,0,0,1.52,1.52L338,339a1.06,1.06,0,0,0,0-1.52A1.06,1.06,0,0,0,337.26,337.19Z"/><path class="cls-21" d="M290.67,344.06a1,1,0,0,1-.7-.29,1,1,0,0,1,0-1.41l2.7-2.7a1,1,0,0,1,1.41,1.41l-2.7,2.7A1,1,0,0,1,290.67,344.06Z"/><path class="cls-21" d="M311.24,363.75a1,1,0,0,1-.71-.3,1,1,0,0,1,0-1.41l2.55-2.55a.5.5,0,0,0,0-.71.5.5,0,0,0-.71,0l-1,1a1,1,0,0,1-1.42,0,1,1,0,0,1,0-1.41l1-1.05a2.51,2.51,0,0,1,4.28,1.77,2.49,2.49,0,0,1-.73,1.77L312,363.45A1,1,0,0,1,311.24,363.75Z"/><path class="cls-21" d="M307.23,353.4a1,1,0,0,1-.7-.29,1,1,0,0,1,0-1.41.51.51,0,0,0-.72-.72l-1,1a1,1,0,0,1-1.41-1.42l1-1a2.5,2.5,0,0,1,3.54,3.54A1,1,0,0,1,307.23,353.4Z"/><path class="cls-21" d="M303.83,363a1,1,0,0,1-.71-1.71l.48-.48a.47.47,0,0,0,.15-.35.51.51,0,0,0-.15-.36.52.52,0,0,0-.72,0l-.54.54a1,1,0,0,1-1.41-1.41l.54-.54a2.5,2.5,0,0,1,3.54,0,2.49,2.49,0,0,1,0,3.54l-.47.47A1,1,0,0,1,303.83,363Z"/><path class="cls-21" d="M311.65,170.83a1,1,0,0,1-1-1v-8a1,1,0,0,1,2,0v8A1,1,0,0,1,311.65,170.83Z"/><path class="cls-21" d="M315.66,166.82h-8a1,1,0,0,1,0-2h8a1,1,0,0,1,0,2Z"/><path class="cls-21" d="M149.3,126a1,1,0,0,1-1-1v-5.31a1,1,0,0,1,2,0V125A1,1,0,0,1,149.3,126Z"/><path class="cls-21" d="M152,123.3h-5.31a1,1,0,0,1,0-2H152a1,1,0,0,1,0,2Z"/><path class="cls-21" d="M292,284a1,1,0,0,1-1-1v-5.31a1,1,0,0,1,2,0V283A1,1,0,0,1,292,284Z"/><path class="cls-21" d="M294.68,281.37h-5.31a1,1,0,0,1,0-2h5.31a1,1,0,0,1,0,2Z"/><path class="cls-21" d="M516.87,145.46a1,1,0,0,1-1-1v-5.32a1,1,0,0,1,2,0v5.32A1,1,0,0,1,516.87,145.46Z"/><path class="cls-21" d="M519.52,142.8h-5.31a1,1,0,0,1,0-2h5.31a1,1,0,0,1,0,2Z"/><path class="cls-21" d="M337.14,20.15a1,1,0,0,1-1-1V13.84a1,1,0,1,1,2,0v5.31A1,1,0,0,1,337.14,20.15Z"/><path class="cls-21" d="M339.79,17.5h-5.31a1,1,0,0,1,0-2h5.31a1,1,0,0,1,0,2Z"/><path class="cls-21" d="M20.49,339.84a1,1,0,0,1-1-1v-5.31a1,1,0,0,1,2,0v5.31A1,1,0,0,1,20.49,339.84Z"/><path class="cls-21" d="M23.14,337.18H17.83a1,1,0,1,1,0-2h5.31a1,1,0,0,1,0,2Z"/><path class="cls-21" d="M53,199.61a1,1,0,0,1-1-1V193.3a1,1,0,0,1,2,0v5.31A1,1,0,0,1,53,199.61Z"/><path class="cls-21" d="M55.68,197H50.36a1,1,0,0,1,0-2h5.32a1,1,0,1,1,0,2Z"/><path class="cls-21" d="M276.71,217.31a3.55,3.55,0,1,1,3.55-3.55A3.55,3.55,0,0,1,276.71,217.31Zm0-5.1a1.55,1.55,0,1,0,1.55,1.55A1.56,1.56,0,0,0,276.71,212.21Z"/><path class="cls-21" d="M399.09,22.7a3.55,3.55,0,1,1,3.55-3.55A3.56,3.56,0,0,1,399.09,22.7Zm0-5.1a1.55,1.55,0,1,0,1.55,1.55A1.56,1.56,0,0,0,399.09,17.6Z"/><path class="cls-21" d="M395,377.52A3.55,3.55,0,1,1,398.5,374,3.55,3.55,0,0,1,395,377.52Zm0-5.1A1.55,1.55,0,1,0,396.5,374,1.56,1.56,0,0,0,395,372.42Z"/><path class="cls-21" d="M96.71,84.59A3.55,3.55,0,1,1,100.26,81,3.56,3.56,0,0,1,96.71,84.59Zm0-5.1A1.55,1.55,0,1,0,98.26,81,1.54,1.54,0,0,0,96.71,79.49Z"/><path class="cls-21" d="M225,351.13a1,1,0,0,1-.83-.45l-.09-.17-.06-.19a1.23,1.23,0,0,1,0-.19,1,1,0,0,1,.08-.38.83.83,0,0,1,.22-.33,1,1,0,0,1,1.41,0,.83.83,0,0,1,.22.33,1,1,0,0,1,.07.38.62.62,0,0,1,0,.19,1.05,1.05,0,0,1-.05.19l-.09.17a1,1,0,0,1-.84.45Z"/><path class="cls-21" d="M234.62,150.34l-.2,0a.7.7,0,0,1-.19-.06.56.56,0,0,1-.17-.09l-.15-.12a1.19,1.19,0,0,1-.22-.33,1,1,0,0,1-.07-.38,1,1,0,0,1,.29-.71,1.58,1.58,0,0,1,.15-.12.56.56,0,0,1,.17-.09.7.7,0,0,1,.19-.06.86.86,0,0,1,.39,0,.6.6,0,0,1,.19.06.56.56,0,0,1,.17.09.61.61,0,0,1,.15.12,1,1,0,0,1,.3.71,1,1,0,0,1-.3.71l-.15.12a.56.56,0,0,1-.17.09.6.6,0,0,1-.19.06Z"/><path class="cls-21" d="M136.21,194.3a1,1,0,0,1-.38-.08,1.15,1.15,0,0,1-.33-.21.93.93,0,0,1-.21-.33,1,1,0,0,1-.08-.38,1,1,0,0,1,.29-.71,1.15,1.15,0,0,1,.33-.21,1,1,0,0,1,.58-.06l.18.06a.56.56,0,0,1,.17.09l.16.12.12.16a.56.56,0,0,1,.09.17.64.64,0,0,1,.06.18,1.5,1.5,0,0,1,0,.2,1,1,0,0,1-.08.38,1,1,0,0,1-.21.33,1,1,0,0,1-.16.12.56.56,0,0,1-.17.09.64.64,0,0,1-.18.06Z"/><path class="cls-21" d="M47.09,117.26a1,1,0,0,1-.38-.08.93.93,0,0,1-.33-.21,1,1,0,0,1-.12-.16.56.56,0,0,1-.09-.17.6.6,0,0,1-.06-.19.62.62,0,0,1,0-.19.84.84,0,0,1,.08-.38.93.93,0,0,1,.21-.33,1,1,0,0,1,.9-.27l.19,0a1,1,0,0,1,.17.1.44.44,0,0,1,.15.12.83.83,0,0,1,.22.33,1,1,0,0,1,.08.38,1,1,0,0,1-.3.71l-.15.12a.56.56,0,0,1-.17.09.6.6,0,0,1-.19.06Z"/><path class="cls-21" d="M27.14,370.37a1,1,0,0,1-.71-.3,1,1,0,0,1-.22-.32,1,1,0,0,1-.08-.38,1,1,0,0,1,.3-.71,1,1,0,0,1,1.41,0l.13.15a.91.91,0,0,1,.09.17,1.39,1.39,0,0,1,.06.19,1.23,1.23,0,0,1,0,.2,1,1,0,0,1-.08.38,1.07,1.07,0,0,1-.54.54A1,1,0,0,1,27.14,370.37Z"/><path class="cls-21" d="M452.51,367.93a1,1,0,0,1-.7-.29,1,1,0,0,1,0-1.42,1,1,0,0,1,.32-.21,1,1,0,0,1,1.09.21,1,1,0,0,1,0,1.42A1,1,0,0,1,452.51,367.93Z"/><path class="cls-21" d="M464,123.31a1,1,0,0,1-1-1,1,1,0,0,1,.3-.71,1,1,0,0,1,1.41,0,1,1,0,0,1,.29.71,1,1,0,0,1-.29.7A1,1,0,0,1,464,123.31Z"/><path class="cls-21" d="M384.42,50.18a1,1,0,0,1-.71-.29,1,1,0,0,1-.29-.71,1,1,0,0,1,1.71-.71,1,1,0,0,1,.29.71,1,1,0,0,1-1,1Z"/><path class="cls-21" d="M211.79,4.32l-.2,0a.7.7,0,0,1-.19-.06.56.56,0,0,1-.17-.09L211.08,4a1,1,0,0,1-.29-.71,1,1,0,0,1,.29-.71.44.44,0,0,1,.15-.12,1,1,0,0,1,.17-.1l.19-.05a1,1,0,0,1,.9.27,1,1,0,0,1,.29.71,1,1,0,0,1-.29.71A1,1,0,0,1,211.79,4.32Z"/></g></g></svg>