<svg width="23" height="20" viewBox="0 0 23 20" fill="none" xmlns="http://www.w3.org/2000/svg">
<path d="M5.4 19.04C4 19.04 2.90333 18.5033 2.11 17.43C1.36333 16.3567 0.99 14.7933 0.99 12.74C0.99 9.94 1.62 7.51333 2.88 5.46C4.14 3.40667 5.98333 1.68 8.41 0.279997L10.09 3.01C8.31667 4.17667 6.98667 5.43666 6.1 6.79C5.21333 8.09666 4.77 9.73 4.77 11.69C4.91 11.6433 5.12 11.62 5.4 11.62C6.33333 11.62 7.17333 11.9233 7.92 12.53C8.71333 13.1367 9.11 14.0233 9.11 15.19C9.11 16.4033 8.76 17.36 8.06 18.06C7.36 18.7133 6.47333 19.04 5.4 19.04ZM17.72 19.04C16.32 19.04 15.2233 18.5033 14.43 17.43C13.6833 16.3567 13.31 14.7933 13.31 12.74C13.31 9.94 13.94 7.51333 15.2 5.46C16.46 3.40667 18.3033 1.68 20.73 0.279997L22.41 3.01C20.6367 4.17667 19.3067 5.43666 18.42 6.79C17.5333 8.09666 17.09 9.73 17.09 11.69C17.23 11.6433 17.44 11.62 17.72 11.62C18.6533 11.62 19.4933 11.9233 20.24 12.53C21.0333 13.1367 21.43 14.0233 21.43 15.19C21.43 16.4033 21.08 17.36 20.38 18.06C19.68 18.7133 18.7933 19.04 17.72 19.04Z" fill="#7D2BD9"/>
</svg>
