<svg xmlns="http://www.w3.org/2000/svg" viewBox="0 0 676 248" enable-background="new 0 0 676 248"><switch><g><path d="m347.06 44.32h-108.71c-5.718 0-10.353 4.635-10.353 10.353v69.882c0 5.718 4.635 10.353 10.353 10.353h14.698l17.01 17.01 17.01-17.01h59.993c5.718 0 10.353-4.635 10.353-10.353v-69.882c.001-5.718-4.634-10.353-10.352-10.353z" fill="none" stroke="#251b3f" stroke-linejoin="round" stroke-linecap="round" stroke-width="8" stroke-miterlimit="10"/><path d="m328.94 96.08h108.71c5.718 0 10.353 4.635 10.353 10.353v69.882c0 5.718-4.635 10.353-10.353 10.353h-14.698l-17.01 17.01-17.01-17.01h-59.993c-5.718 0-10.353-4.635-10.353-10.353v-69.882c-.001-5.719 4.634-10.353 10.352-10.353z" fill="none" stroke="#251b3f" stroke-linejoin="round" stroke-linecap="round" stroke-width="8" stroke-miterlimit="10"/><path d="m401.93 161.71l-3.05-2.751c-10.83-9.943-17.98-16.397-17.98-24.436 0-6.559 5.05-11.636 11.566-11.636 3.68 0 7.15 1.693 9.463 4.443 2.313-2.751 5.783-4.443 9.463-4.443 6.519 0 11.566 5.077 11.566 11.636 0 8.04-7.15 14.493-17.98 24.436l-3.048 2.751z" fill="#e24329" stroke="#251b3f" stroke-linejoin="round" stroke-linecap="round" stroke-width="8" stroke-miterlimit="10"/><path d="m273.81 108.65l-3.05-2.751c-10.83-9.943-17.98-16.397-17.98-24.436 0-6.559 5.05-11.636 11.566-11.636 3.68 0 7.15 1.693 9.463 4.443 2.313-2.751 5.783-4.443 9.463-4.443 6.519 0 11.566 5.077 11.566 11.636 0 8.04-7.15 14.493-17.98 24.436l-3.048 2.751z" fill="#fc6d26" stroke="#251b3f" stroke-linejoin="round" stroke-linecap="round" stroke-width="8" stroke-miterlimit="10"/><path fill="none" stroke="#fc6d26" stroke-linejoin="round" stroke-linecap="round" stroke-width="8" stroke-miterlimit="10" d="m456.9 26.468h14.76"/><path opacity=".3" fill="none" stroke="#000" stroke-linejoin="round" stroke-linecap="round" stroke-width="8" stroke-miterlimit="10" d="m489.14 26.468h47.09"/><path fill="none" stroke="#251b3f" stroke-linejoin="round" stroke-linecap="round" stroke-width="8" stroke-miterlimit="10" d="m489.54 55.19h91.52"/><path fill="none" stroke="#251b3f" stroke-linejoin="round" stroke-linecap="round" stroke-width="8" stroke-miterlimit="10" d="m48.64 174.78h117.52"/><path opacity=".3" fill="none" stroke="#000" stroke-linejoin="round" stroke-linecap="round" stroke-width="8" stroke-miterlimit="10" d="m93.24 204.22h60.72"/><path fill="none" stroke="#fc6d26" stroke-linejoin="round" stroke-linecap="round" stroke-width="8" stroke-miterlimit="10" d="m172.56 204.22h16.32"/><g><path d="m-102.19 91.9l17.826-54.24h-35.651l17.825 54.24" fill="#e24329" transform="translate(155.2 1.16)"/><path d="m24.466 91.9l-17.826-54.24h-24.96l42.786 54.24" fill="#fc6d26" transform="translate(28.531 1.161)"/><path d="m10.114 38.585l-5.424 16.48c-.491 1.496.039 3.148 1.336 4.081l46.874 33.678-42.786-54.24" fill="#fca326" transform="translate(.089.256)"/><path d="m-19.212-241.41h24.98l-10.75-32.668c-.55-1.671-2.948-1.671-3.518 0l-10.712 32.668" fill="#e24329" transform="translate(29.422 280.26)"/><path d="m-194.19 91.9l17.826-54.24h24.98l-42.806 54.24" fill="#fc6d26" transform="translate(247.2 1.161)"/><path d="m-150.51 38.585l5.424 16.48c.491 1.496-.039 3.148-1.336 4.081l-46.873 33.659 42.785-54.22" fill="#fca326" transform="translate(246.31.256)"/><path d="m-241.16-241.41h-24.98l10.731-32.668c.55-1.671 2.948-1.671 3.518 0l10.731 32.668" fill="#e24329" transform="translate(336.97 280.26)"/><g><path d="m-102.19 91.9l17.826-54.24h-35.651l17.825 54.24z" fill="none" stroke="#251b3f" stroke-linejoin="round" stroke-linecap="round" stroke-width="8" stroke-miterlimit="10" transform="translate(155.2 1.16)"/><path d="m24.466 91.9l-17.826-54.24h-24.96l42.786 54.24z" fill="none" stroke="#251b3f" stroke-linejoin="round" stroke-linecap="round" stroke-width="8" stroke-miterlimit="10" transform="translate(28.531 1.161)"/><path d="m10.114 38.585l-5.424 16.48c-.491 1.496.039 3.148 1.336 4.081l46.874 33.678-42.786-54.24z" fill="none" stroke="#251b3f" stroke-linejoin="round" stroke-linecap="round" stroke-width="8" stroke-miterlimit="10" transform="translate(.089.256)"/><path d="m-19.212-241.41h24.98l-10.75-32.668c-.55-1.671-2.948-1.671-3.518 0l-10.712 32.668z" fill="none" stroke="#251b3f" stroke-linejoin="round" stroke-linecap="round" stroke-width="8" stroke-miterlimit="10" transform="translate(29.422 280.26)"/><path d="m-194.19 91.9l17.826-54.24h24.98l-42.806 54.24z" fill="none" stroke="#251b3f" stroke-linejoin="round" stroke-linecap="round" stroke-width="8" stroke-miterlimit="10" transform="translate(247.2 1.161)"/><path d="m-150.51 38.585l5.424 16.48c.491 1.496-.039 3.148-1.336 4.081l-46.873 33.659 42.785-54.22z" fill="none" stroke="#251b3f" stroke-linejoin="round" stroke-linecap="round" stroke-width="8" stroke-miterlimit="10" transform="translate(246.31.256)"/><path d="m-241.16-241.41h-24.98l10.731-32.668c.55-1.671 2.948-1.671 3.518 0l10.731 32.668z" fill="none" stroke="#251b3f" stroke-linejoin="round" stroke-linecap="round" stroke-width="8" stroke-miterlimit="10" transform="translate(336.97 280.26)"/></g></g><path opacity=".3" d="m547 180.5l-22.5 18h7.5v45h30v-45h7.5z"/><path opacity=".3" d="m598 138.5l-22.5 18h7.5v87h30v-87h7.5z"/><path opacity=".3" d="m649 96.5l-22.5 18h7.5v129h30v-129h7.5z"/><g opacity=".3"><path fill="none" stroke="#000" stroke-linejoin="round" stroke-linecap="round" stroke-width="8" stroke-miterlimit="10" d="m549 140v6"/><path fill="none" stroke="#000" stroke-linejoin="round" stroke-linecap="round" stroke-width="8" stroke-miterlimit="10" d="m549 146v6"/><path fill="none" stroke="#000" stroke-linejoin="round" stroke-linecap="round" stroke-width="8" stroke-miterlimit="10" d="m555 146h-6"/><path fill="none" stroke="#000" stroke-linejoin="round" stroke-linecap="round" stroke-width="8" stroke-miterlimit="10" d="m549 146h-6"/></g><g opacity=".3"><path fill="none" stroke="#000" stroke-linejoin="round" stroke-linecap="round" stroke-width="8" stroke-miterlimit="10" d="m532.5 120.5v6"/><path fill="none" stroke="#000" stroke-linejoin="round" stroke-linecap="round" stroke-width="8" stroke-miterlimit="10" d="m532.5 114.5v6"/><path fill="none" stroke="#000" stroke-linejoin="round" stroke-linecap="round" stroke-width="8" stroke-miterlimit="10" d="m538.5 120.5h-6"/><path fill="none" stroke="#000" stroke-linejoin="round" stroke-linecap="round" stroke-width="8" stroke-miterlimit="10" d="m532.5 120.5h-6"/></g><g opacity=".3"><path fill="none" stroke="#000" stroke-linejoin="round" stroke-linecap="round" stroke-width="8" stroke-miterlimit="10" d="m598.5 102.5v6"/><path fill="none" stroke="#000" stroke-linejoin="round" stroke-linecap="round" stroke-width="8" stroke-miterlimit="10" d="m598.5 96.5v6"/><path fill="none" stroke="#000" stroke-linejoin="round" stroke-linecap="round" stroke-width="8" stroke-miterlimit="10" d="m604.5 102.5h-6"/><path fill="none" stroke="#000" stroke-linejoin="round" stroke-linecap="round" stroke-width="8" stroke-miterlimit="10" d="m598.5 102.5h-6"/></g><path fill="none" stroke="#251b3f" stroke-linejoin="round" stroke-linecap="round" stroke-width="8" stroke-miterlimit="10" d="m547 180.5l-22.5 18h7.5v45h30v-45h7.5z"/><path fill="none" stroke="#251b3f" stroke-linejoin="round" stroke-linecap="round" stroke-width="8" stroke-miterlimit="10" d="m598 138.5l-22.5 18h7.5v87h30v-87h7.5z"/><path fill="none" stroke="#251b3f" stroke-linejoin="round" stroke-linecap="round" stroke-width="8" stroke-miterlimit="10" d="m649 96.5l-22.5 18h7.5v129h30v-129h7.5z"/></g></switch></svg>