<?xml version="1.0" encoding="utf-8"?>
<!-- Generator: Adobe Illustrator 25.0.0, SVG Export Plug-In . SVG Version: 6.00 Build 0)  -->
<svg version="1.1" id="Layer_1" xmlns="http://www.w3.org/2000/svg" xmlns:xlink="http://www.w3.org/1999/xlink" x="0px" y="0px"
	 viewBox="0 0 340 47" enable-background="new 0 0 340 47" xml:space="preserve">
<path fill="#026CDF" d="M209.4,41h-0.1c-2.8,3.5-5.5,5.4-9.9,5.4c-5.6,0-9.5-3.1-9.5-8.8c0-10.2,11.4-11,18.9-11h2.8
	c0.2-0.8,0.2-1.7,0.2-2.6c0-3.1-3.4-4-6.2-4c-3.5,0-6.9,0.9-10.1,2.4l1.1-6.4c3.4-1.2,6.9-1.9,10.5-1.9c6.2,0,12,2.3,12,9.5
	c0,4.1-3.1,16.2-3.8,22h-6.8L209.4,41 M201.6,40.6c6,0,7.8-4.1,9.1-9.1h-2.8c-3.9,0-10.4,0.7-10.4,5.9
	C197.5,39.5,199.6,40.6,201.6,40.6L201.6,40.6z"/>
<path fill="#026CDF" d="M1.6,14.9h5.8l1.4-6.3l8.6-2.8l-2,9.2h7.2l-1.3,5.7h-7.2l-2.9,13.5c-0.2,0.7-0.4,1.8-0.4,3
	c0,1.9,1.3,3,3.1,3c1.4,0,2.9-0.3,3.9-0.7l-1.4,6.2c-1.4,0.3-2.9,0.7-4.3,0.7c-5.4,0-9.3-2.2-9.3-8.1c0-2.4,0.5-4.7,1-7.2l2.3-10.4
	H0.3L1.6,14.9"/>
<path fill="#026CDF" d="M25.9,14.9h8l-6.6,30.8h-8L25.9,14.9 M28.8,1.6h8l-1.7,7.7h-8L28.8,1.6L28.8,1.6z"/>
<path fill="#026CDF" d="M58.1,21.9c-1.6-1-3.7-1.6-5.9-1.6c-6.4,0-10,6-10,11.8c0,4,1.3,8,6.8,8c2,0,4.4-0.5,6.5-1.6l-0.9,6.3
	c-2.5,1.2-5.1,1.4-7.7,1.4c-8,0-13.1-5.3-13.1-13.3c0-10.8,7.1-19,18.2-19c3,0,5.9,0.5,8,1.2L58.1,21.9"/>
<path fill="#026CDF" d="M66.9,0.8h8l-5.3,25.3h0.1l11.2-11.2h10.4l-14.8,14l9.3,16.8h-9l-8-16.3h-0.1l-3.5,16.3h-7.8L66.9,0.8z"/>
<path fill="#026CDF" d="M120.2,14.9h5.8l1.4-6.3l8.6-2.8l-2,9.2h7.2l-1.3,5.9h-7.2l-2.9,13.5c-0.2,0.7-0.4,1.8-0.4,3
	c0,1.9,1.3,3,3.1,3c1.4,0,2.9-0.3,3.9-0.7l-1.4,6.2c-1.4,0.3-2.9,0.7-4.3,0.7c-5.4,0-9.3-2.2-9.3-8.1c0-2.4,0.5-4.7,1-7.2l2.3-10.4
	h-5.8L120.2,14.9"/>
<path fill="#026CDF" d="M117.5,25.9c0-7.8-5-11.7-12.6-11.7c-10.1,0-17.5,9.2-17.5,18.8c0,9.2,6,13.5,14.8,13.5
	c3.3,0,6.7-0.8,9.8-1.7l1-6.3c-3,1.4-6.2,2.2-9.5,2.2c-5.1,0-8.1-1.8-8.5-6.7l0,0c0-0.3,0-0.6,0-0.9c0-0.1,0-0.1,0-0.2v-0.1l0,0
	c0-2.1,0.5-4.2,1.3-6.1c1.5-3.9,3.7-6.6,8.4-6.6c3.4,0,5.1,1.9,5.1,5.1c0,0.7-0.1,1.4-0.2,2.1h-11c-0.7,2.4-0.8,4-0.9,5.5h18.9
	C117.2,30.5,117.5,28.2,117.5,25.9"/>
<path fill="#026CDF" d="M144.7,18.3c0.2-1.2,0.5-2.5,0.7-3.4h7.5l-0.7,4.1h0.1c2.2-3.2,5.7-4.8,9.5-4.8c3.7,0,7.4,2.2,7.8,5.9h0.1
	c2-4,6.5-5.9,10.8-5.9c4.6,0,8.6,3.8,8.6,8.4c0,2.8-0.7,5.9-1.4,8.4l-3.2,14.7h-8l3.2-15c0.4-1.9,1-4.7,1-6.6c0-2.3-1.7-3.7-3.8-3.7
	c-5.6,0-6.9,6.5-8,10.7l-3.2,14.7h-8l3.2-15c0.4-1.9,1-4.7,1-6.6c0-2.3-1.7-3.7-3.8-3.7c-5.4,0-6.9,6.5-8,10.7l-3.2,14.7h-8
	L144.7,18.3"/>
<path fill="#026CDF" d="M243,21.1c-0.9-0.5-3.1-1.1-5.4-1.1c-2.4,0-5.4,0.7-5.4,3.1c0,3.9,10.4,5.3,10.4,12.9c0,8-7,10.4-13.9,10.4
	c-3.2,0-6.5-0.5-9.4-1.9l1.7-6.4c2.3,1.3,4.5,2.4,7.7,2.4c2.7,0,5.5-0.9,5.5-3.4c0-5-10.4-5.4-10.4-13.2c0-7.2,7-9.8,13.3-9.8
	c2.9,0,5.9,0.5,7.5,0.9L243,21.1"/>
<path fill="#026CDF" d="M248.1,14.9h5.8l1.4-6.3l8.6-2.8l-2,9.2h7.2l-1.3,5.9h-7.2l-2.9,13.5c-0.2,0.7-0.4,1.8-0.4,3
	c0,1.9,1.3,3,3.1,3c1.4,0,2.9-0.3,3.9-0.7l-1.4,6.2c-1.4,0.3-2.9,0.7-4.3,0.7c-5.4,0-9.3-2.2-9.3-8.1c0-2.4,0.5-4.7,1-7.2l2.3-10.4
	h-5.8L248.1,14.9"/>
<path fill="#026CDF" d="M302.4,19c0.2-1.3,0.5-2.7,0.7-4.1h7.7l-1.1,5.8h0.1c1.4-3.4,5.4-6.5,9.1-6.5c1,0,2.1,0.1,3.1,0.3l-1.7,7.8
	c-0.9-0.3-2-0.5-3.1-0.5c-5.7,0-8.4,5.1-9.5,10.1l-2.9,13.8h-8L302.4,19"/>
<path fill="#026CDF" d="M296.9,25.9c0-7.8-5-11.7-12.6-11.7c-10.1,0-17.5,9.2-17.5,18.8c0,9.2,6,13.5,14.8,13.5
	c3.3,0,6.7-0.8,9.8-1.7l1-6.3c-3,1.4-6.2,2.2-9.5,2.2c-5.1,0-8.1-1.8-8.5-6.7l0,0c0-0.3,0-0.6,0-0.9c0-0.1,0-0.1,0-0.2v-0.1l0,0
	c0-2.1,0.5-4.2,1.3-6.1c1.5-3.9,3.7-6.6,8.4-6.6c3.4,0,5.1,1.9,5.1,5.1c0,0.7-0.1,1.4-0.2,2.1h-11c-0.7,2.4-0.8,4-0.9,5.5H296
	C296.6,30.5,296.9,28.2,296.9,25.9"/>
<path fill="#026CDF" d="M333.4,13c3.8,0,6.9,3.1,6.9,6.9s-3.1,6.9-6.9,6.9s-6.9-3.1-6.9-6.9C326.4,16.1,329.6,13,333.4,13
	 M333.4,25.8c3.2,0,5.6-2.6,5.6-5.9s-2.4-5.9-5.6-5.9s-5.6,2.6-5.6,5.9C327.8,23.3,330.2,25.8,333.4,25.8 M330.7,15.9h3.1
	c1.9,0,2.8,0.8,2.8,2.3c0,1.3-0.8,2.2-2.1,2.2l2.3,3.6h-1.4l-2.3-3.6H332V24h-1.3V15.9L330.7,15.9z M332,19.4h1.6
	c1,0,1.7-0.2,1.7-1.3c0-0.9-0.8-1.2-1.7-1.2H332V19.4"/>
</svg>
