<?xml version="1.0" encoding="utf-8"?>
<!-- Generator: Adobe Illustrator 25.0.0, SVG Export Plug-In . SVG Version: 6.00 Build 0)  -->
<svg version="1.1" id="Layer_1" xmlns="http://www.w3.org/2000/svg" xmlns:xlink="http://www.w3.org/1999/xlink" x="0px" y="0px"
	 viewBox="0 0 340 45.6" enable-background="new 0 0 340 45.6" xml:space="preserve">
<path fill="#026CDF" d="M209.1,40.2H209c-2.8,3.5-5.5,5.4-9.9,5.4c-5.6,0-9.5-3.1-9.5-8.8c0-10.2,11.4-11,18.9-11h2.8
	c0.2-0.8,0.2-1.7,0.2-2.6c0-3.1-3.4-4-6.2-4c-3.5,0-6.9,0.9-10.1,2.4l1.1-6.4c3.4-1.2,6.9-1.9,10.5-1.9c6.2,0,12,2.3,12,9.5
	c0,4.1-3.1,16.2-3.8,22h-6.8L209.1,40.2 M201.3,39.8c6,0,7.8-4.1,9.1-9.1h-2.8c-3.9,0-10.4,0.7-10.4,5.9
	C197.2,38.7,199.3,39.8,201.3,39.8L201.3,39.8z"/>
<path fill="#026CDF" d="M1.3,14.1h5.8l1.4-6.3L17.1,5l-2,9.2h7.2L21,19.9h-7.2l-2.9,13.5c-0.2,0.7-0.4,1.8-0.4,3c0,1.9,1.3,3,3.1,3
	c1.4,0,2.9-0.3,3.9-0.7l-1.4,6.2c-1.4,0.3-2.9,0.7-4.3,0.7c-5.4,0-9.3-2.2-9.3-8.1c0-2.4,0.5-4.7,1-7.2l2.3-10.4H0L1.3,14.1"/>
<path fill="#026CDF" d="M25.6,14.1h8L27,44.9h-8L25.6,14.1 M28.5,0.8h8l-1.7,7.7h-8L28.5,0.8L28.5,0.8z"/>
<path fill="#026CDF" d="M57.8,21.1c-1.6-1-3.7-1.6-5.9-1.6c-6.4,0-10,6-10,11.8c0,4,1.3,8,6.8,8c2,0,4.4-0.5,6.5-1.6L54.3,44
	c-2.5,1.2-5.1,1.4-7.7,1.4c-8,0-13.1-5.3-13.1-13.3c0-10.8,7.1-19,18.2-19c3,0,5.9,0.5,8,1.2L57.8,21.1"/>
<path fill="#026CDF" d="M66.6,0h8l-5.3,25.3h0.1l11.2-11.2H91l-14.8,14l9.3,16.8h-9l-8-16.3h-0.1l-3.5,16.3h-7.8L66.6,0z"/>
<path fill="#026CDF" d="M119.9,14.1h5.8l1.4-6.3l8.6-2.8l-2,9.2h7.2l-1.3,5.9h-7.2l-2.9,13.5c-0.2,0.7-0.4,1.8-0.4,3
	c0,1.9,1.3,3,3.1,3c1.4,0,2.9-0.3,3.9-0.7l-1.4,6.2c-1.4,0.3-2.9,0.7-4.3,0.7c-5.4,0-9.3-2.2-9.3-8.1c0-2.4,0.5-4.7,1-7.2l2.3-10.4
	h-5.8L119.9,14.1"/>
<path fill="#026CDF" d="M117.2,25.1c0-7.8-5-11.7-12.6-11.7c-10.1,0-17.5,9.2-17.5,18.8c0,9.2,6,13.5,14.8,13.5
	c3.3,0,6.7-0.8,9.8-1.7l1-6.3c-3,1.4-6.2,2.2-9.5,2.2c-5.1,0-8.1-1.8-8.5-6.7l0,0c0-0.3,0-0.6,0-0.9c0-0.1,0-0.1,0-0.2V32l0,0
	c0-2.1,0.5-4.2,1.3-6.1c1.5-3.9,3.7-6.6,8.4-6.6c3.4,0,5.1,1.9,5.1,5.1c0,0.7-0.1,1.4-0.2,2.1h-11c-0.7,2.4-0.8,4-0.9,5.5h18.9
	C116.9,29.7,117.2,27.4,117.2,25.1"/>
<path fill="#026CDF" d="M144.4,17.5c0.2-1.2,0.5-2.5,0.7-3.4h7.5l-0.7,4.1h0.1c2.2-3.2,5.7-4.8,9.5-4.8c3.7,0,7.4,2.2,7.8,5.9h0.1
	c2-4,6.5-5.9,10.8-5.9c4.6,0,8.6,3.8,8.6,8.4c0,2.8-0.7,5.9-1.4,8.4l-3.2,14.7h-8l3.2-15c0.4-1.9,1-4.7,1-6.6c0-2.3-1.7-3.7-3.8-3.7
	c-5.6,0-6.9,6.5-8,10.7L165.4,45h-8l3.2-15c0.4-1.9,1-4.7,1-6.6c0-2.3-1.7-3.7-3.8-3.7c-5.4,0-6.9,6.5-8,10.7l-3.2,14.7h-8
	L144.4,17.5"/>
<path fill="#026CDF" d="M242.7,20.3c-0.9-0.5-3.1-1.1-5.4-1.1c-2.4,0-5.4,0.7-5.4,3.1c0,3.9,10.4,5.3,10.4,12.9
	c0,8-7,10.4-13.9,10.4c-3.2,0-6.5-0.5-9.4-1.9l1.7-6.4c2.3,1.3,4.5,2.4,7.7,2.4c2.7,0,5.5-0.9,5.5-3.4c0-5-10.4-5.4-10.4-13.2
	c0-7.2,7-9.8,13.3-9.8c2.9,0,5.9,0.5,7.5,0.9L242.7,20.3"/>
<path fill="#026CDF" d="M247.8,14.1h5.8l1.4-6.3l8.6-2.8l-2,9.2h7.2l-1.3,5.9h-7.2l-2.9,13.5c-0.2,0.7-0.4,1.8-0.4,3
	c0,1.9,1.3,3,3.1,3c1.4,0,2.9-0.3,3.9-0.7l-1.4,6.2c-1.4,0.3-2.9,0.7-4.3,0.7c-5.4,0-9.3-2.2-9.3-8.1c0-2.4,0.5-4.7,1-7.2l2.3-10.4
	h-5.8L247.8,14.1"/>
<path fill="#026CDF" d="M302.1,18.2c0.2-1.3,0.5-2.7,0.7-4.1h7.7l-1.1,5.8h0.1c1.4-3.4,5.4-6.5,9.1-6.5c1,0,2.1,0.1,3.1,0.3
	l-1.7,7.8c-0.9-0.3-2-0.5-3.1-0.5c-5.7,0-8.4,5.1-9.5,10.1l-2.9,13.8h-8L302.1,18.2"/>
<path fill="#026CDF" d="M296.6,25.1c0-7.8-5-11.7-12.6-11.7c-10.1,0-17.5,9.2-17.5,18.8c0,9.2,6,13.5,14.8,13.5
	c3.3,0,6.7-0.8,9.8-1.7l1-6.3c-3,1.4-6.2,2.2-9.5,2.2c-5.1,0-8.1-1.8-8.5-6.7l0,0c0-0.3,0-0.6,0-0.9c0-0.1,0-0.1,0-0.2V32l0,0
	c0-2.1,0.5-4.2,1.3-6.1c1.5-3.9,3.7-6.6,8.4-6.6c3.4,0,5.1,1.9,5.1,5.1c0,0.7-0.1,1.4-0.2,2.1h-11c-0.7,2.4-0.8,4-0.9,5.5h18.9
	C296.3,29.7,296.6,27.4,296.6,25.1"/>
<path fill="#026CDF" d="M333.1,12.2c3.8,0,6.9,3.1,6.9,6.9s-3.1,6.9-6.9,6.9s-6.9-3.1-6.9-6.9C326.1,15.3,329.3,12.2,333.1,12.2
	 M333.1,25c3.2,0,5.6-2.6,5.6-5.9s-2.4-5.9-5.6-5.9s-5.6,2.6-5.6,5.9C327.5,22.5,329.9,25,333.1,25 M330.4,15.1h3.1
	c1.9,0,2.8,0.8,2.8,2.3c0,1.3-0.8,2.2-2.1,2.2l2.3,3.6h-1.4l-2.3-3.6h-1.1v3.6h-1.3V15.1L330.4,15.1z M331.7,18.6h1.6
	c1,0,1.7-0.2,1.7-1.3c0-0.9-0.8-1.2-1.7-1.2h-1.6V18.6"/>
</svg>
