<?xml version="1.0" encoding="UTF-8"?>
<svg width="193px" height="96px" viewBox="0 0 193 96" version="1.1" xmlns="http://www.w3.org/2000/svg" xmlns:xlink="http://www.w3.org/1999/xlink">
    <!-- Generator: Sketch 53 (72520) - https://sketchapp.com -->
    <title>wag-vector-logo</title>
    <desc>Created with Sketch.</desc>
    <g id="Page-1" stroke="none" stroke-width="1" fill="none" fill-rule="evenodd">
        <g id="wag-vector-logo" fill="#54a490" fill-rule="nonzero">
            <path d="M65.575522,66.6821404 C65.516378,67.3407477 65.142966,67.6875942 64.451278,67.7166652 L46.188206,68.4374242 C45.622325,68.465994 45.242899,68.2309202 45.062459,67.7186701 L35.6404643,40.7623822 L26.6239592,67.6279487 C26.4119417,68.203353 26.0385304,68.465994 25.5002166,68.4374242 L7.9619137,67.7186701 C7.3303724,67.6895991 7.0000663,67.3778383 6.972499,66.7738642 L0.9257417,4.29087204 C0.9257417,3.5420445 1.3026616,3.15860871 2.0499854,3.15860871 L17.0200204,3.15860871 C17.7147158,3.15860871 18.0791051,3.50946499 18.1061712,4.20015063 L20.9019945,43.9180838 L28.3857589,10.644378 C28.4975317,10.1070667 28.8288403,9.83490247 29.3721663,9.83490247 L41.953371,9.83490247 C42.556343,9.83490247 42.913214,10.1070667 43.029999,10.644378 L50.151379,43.9180838 L53.219868,3.84027234 C53.247936,3.11700718 53.640895,2.77417047 54.397742,2.80223897 L69.448474,3.56961178 C70.13916,3.59717906 70.488512,3.96106714 70.488512,4.65225401 L65.575522,66.6821404 Z M101.82073,47.1192464 C100.228344,46.9974491 99.269503,46.9398084 98.940701,46.9398084 C92.471914,46.9398084 89.240026,48.7562415 89.240026,52.3961248 C89.240026,55.4580977 91.586753,56.9888335 96.280709,56.9888335 C97.926225,56.9888335 99.598306,56.8419751 101.278406,56.5412411 L101.82073,47.1192464 Z M116.376253,35.3660623 C116.376253,37.8932299 115.84245,48.0309715 114.758305,65.7777833 C114.758305,66.4995448 114.683121,67.5591307 114.53526,68.9339861 C114.412962,69.6562488 114.018499,70.0201369 113.359892,70.0201369 L101.639788,70.1093546 C100.831315,70.1093546 100.420813,69.7168968 100.420813,68.9339861 C100.420813,68.8758442 100.515545,67.393727 100.694982,64.4736004 C96.87516,65.8284068 92.938553,66.5035545 88.880649,66.5035545 C83.679957,66.5035545 79.506271,65.4529906 76.354077,63.3478529 C72.653546,60.8507587 70.809546,57.1432103 70.809546,52.2111734 C70.809546,46.5007369 73.859489,42.262393 79.947347,39.4996505 C84.522513,37.4586694 90.086592,36.434169 96.638081,36.434169 C98.144759,36.434169 100.050409,36.5850372 102.366562,36.88527 C102.421195,35.343006 102.451269,34.5154864 102.451269,34.3921855 C102.451269,32.6674763 101.866842,31.2129264 100.694982,30.0210175 C99.518611,28.8266025 98.075088,28.2266382 96.363912,28.2266382 C94.171061,28.2266382 92.491461,29.0300991 91.318098,30.6340135 C90.142729,32.2399328 89.483119,33.0504108 89.333254,33.0849952 L75.668404,34.9425286 C74.73663,35.0648271 74.270994,34.6899121 74.270994,33.8167812 C74.298561,33.7576368 74.352693,33.636842 74.410835,33.4533943 C75.858368,28.6005508 78.437663,24.7852394 82.16526,21.9929246 C85.893358,19.2071257 90.279062,17.8127227 95.327383,17.8127227 C109.357624,17.8127227 116.376253,23.6660078 116.376253,35.3660623 Z M149.651312,51.5803338 L149.566606,36.1622053 C142.679297,36.312071 139.235392,39.2011219 139.235392,44.8223407 C139.235392,49.4496338 141.946508,51.7632803 147.352702,51.7632803 C147.835882,51.7632803 148.598743,51.7001262 149.651312,51.5803338 Z M166.829737,16.8671149 C166.975092,31.0512318 166.863319,44.493037 166.464846,57.170978 C166.262352,63.17864 166.13855,66.4746841 166.101961,67.0420688 C165.927535,70.9190307 165.577681,74.1935222 165.064429,76.8660446 C163.984794,82.6466524 161.382944,87.1431262 157.271409,90.371004 C153.155364,93.6028915 148.116065,95.2263537 142.166044,95.2263537 C138.684046,95.2263537 135.971426,94.8293848 134.052242,94.0514864 C133.503904,93.8048845 133.236752,93.4349817 133.236752,92.9247365 L133.236752,78.8112921 C133.236752,78.0584547 133.668305,77.6845422 134.502842,77.6845422 C134.959456,77.6845422 135.687734,77.7461926 136.691684,77.8639801 C137.69814,77.9802639 138.461002,78.0439193 138.962726,78.0439193 C146.206405,78.0439193 149.839772,75.3984629 149.839772,70.1095551 L149.839772,63.5741051 C147.57725,64.353006 145.11875,64.7419553 142.439712,64.7419553 C135.733846,64.7419553 130.315122,62.6593727 126.163489,58.4736573 C122.02138,54.2974651 119.942807,48.8657087 119.942807,42.1593415 C119.942807,35.1236707 122.391283,29.5550803 127.288234,25.4335215 C131.888963,21.5560584 137.779839,19.6183293 144.961867,19.6183293 C146.320684,19.6183293 147.787263,19.7691975 149.38015,20.0709339 L149.38015,16.6445717 C149.38015,15.9182992 149.76108,15.5604258 150.5069,15.5604258 L165.703989,15.6471375 C166.451815,15.6471375 166.829737,16.0551332 166.829737,16.8671149 Z M190.857377,1.6285746 L190.221826,49.6432563 C190.221826,50.3650178 189.853928,50.7294071 189.095076,50.7294071 L173.498512,50.5464606 C172.746176,50.5464606 172.386298,50.1690395 172.42389,49.420212 L173.411801,1.6285746 C173.443879,0.880248281 173.819796,0.5013235 174.538049,0.5013235 L189.78075,0.5013235 C190.51855,0.5013235 190.883942,0.880248281 190.857377,1.6285746 Z M192.616671,61.994901 C192.616671,64.1341218 191.31349,65.8011904 188.685577,67.0021213 C186.619033,67.9569516 184.397111,68.4376247 182.020811,68.4376247 C179.525221,68.4376247 177.226611,67.9469271 175.11997,66.95651 C172.511604,65.6889164 171.195893,63.9546839 171.195893,61.7262453 C171.195893,59.6511811 172.52664,58.0066676 175.168087,56.8072403 C177.3043,55.8499039 179.525221,55.3672259 181.831349,55.3672259 C184.213663,55.3672259 186.461148,55.8774712 188.599367,56.8969593 C191.2764,58.1605431 192.616671,59.857685 192.616671,61.994901 Z" id="Combined-Shape"></path>
        </g>
    </g>
</svg>
