<?xml version="1.0" encoding="utf-8"?>
<!-- Generator: Adobe Illustrator 24.2.1, SVG Export Plug-In . SVG Version: 6.00 Build 0)  -->
<svg version="1.1" id="Layer_1" xmlns="http://www.w3.org/2000/svg" xmlns:xlink="http://www.w3.org/1999/xlink" x="0px" y="0px"
	 viewBox="0 0 958.6 619.98" enable-background="new 0 0 958.6 619.98" xml:space="preserve">
<g opacity="0.15">
	<g>
		<path fill="#341472" d="M266.06,67.04h-10c-1.38,0-2.5-1.12-2.5-2.5s1.12-2.5,2.5-2.5h10c1.38,0,2.5,1.12,2.5,2.5
			S267.44,67.04,266.06,67.04z M242.06,67.04h-10c-1.38,0-2.5-1.12-2.5-2.5s1.12-2.5,2.5-2.5h10c1.38,0,2.5,1.12,2.5,2.5
			S243.44,67.04,242.06,67.04z M218.06,67.04h-10c-1.38,0-2.5-1.12-2.5-2.5s1.12-2.5,2.5-2.5h10c1.38,0,2.5,1.12,2.5,2.5
			S219.44,67.04,218.06,67.04z M194.06,67.04h-10c-1.38,0-2.5-1.12-2.5-2.5s1.12-2.5,2.5-2.5h10c1.38,0,2.5,1.12,2.5,2.5
			S195.44,67.04,194.06,67.04z M170.06,67.04h-10c-1.38,0-2.5-1.12-2.5-2.5s1.12-2.5,2.5-2.5h10c1.38,0,2.5,1.12,2.5,2.5
			S171.44,67.04,170.06,67.04z M146.06,67.04h-10c-1.38,0-2.5-1.12-2.5-2.5s1.12-2.5,2.5-2.5h10c1.38,0,2.5,1.12,2.5,2.5
			S147.44,67.04,146.06,67.04z"/>
	</g>
	<g>
		<path fill="#341472" d="M263.12,76.06c-0.64,0-1.28-0.24-1.77-0.73c-0.98-0.98-0.98-2.56,0-3.54l7.25-7.25l-7.25-7.25
			c-0.98-0.98-0.98-2.56,0-3.54c0.98-0.98,2.56-0.98,3.54,0l9.02,9.02c0.98,0.98,0.98,2.56,0,3.54l-9.02,9.02
			C264.4,75.81,263.76,76.06,263.12,76.06z"/>
	</g>
</g>
<g opacity="0.15">
	<g>
		<path fill="#341472" d="M552.45,67.04h-10c-1.38,0-2.5-1.12-2.5-2.5s1.12-2.5,2.5-2.5h10c1.38,0,2.5,1.12,2.5,2.5
			S553.83,67.04,552.45,67.04z M528.45,67.04h-10c-1.38,0-2.5-1.12-2.5-2.5s1.12-2.5,2.5-2.5h10c1.38,0,2.5,1.12,2.5,2.5
			S529.83,67.04,528.45,67.04z M504.45,67.04h-10c-1.38,0-2.5-1.12-2.5-2.5s1.12-2.5,2.5-2.5h10c1.38,0,2.5,1.12,2.5,2.5
			S505.83,67.04,504.45,67.04z M480.45,67.04h-10c-1.38,0-2.5-1.12-2.5-2.5s1.12-2.5,2.5-2.5h10c1.38,0,2.5,1.12,2.5,2.5
			S481.83,67.04,480.45,67.04z M456.45,67.04h-10c-1.38,0-2.5-1.12-2.5-2.5s1.12-2.5,2.5-2.5h10c1.38,0,2.5,1.12,2.5,2.5
			S457.83,67.04,456.45,67.04z M432.45,67.04h-10c-1.38,0-2.5-1.12-2.5-2.5s1.12-2.5,2.5-2.5h10c1.38,0,2.5,1.12,2.5,2.5
			S433.83,67.04,432.45,67.04z"/>
	</g>
	<g>
		<path fill="#341472" d="M549.35,76.06c-0.64,0-1.28-0.24-1.77-0.73c-0.98-0.98-0.98-2.56,0-3.54l7.25-7.25l-7.25-7.25
			c-0.98-0.98-0.98-2.56,0-3.54c0.98-0.98,2.56-0.98,3.54,0l9.02,9.02c0.47,0.47,0.73,1.1,0.73,1.77s-0.26,1.3-0.73,1.77l-9.02,9.02
			C550.63,75.81,549.99,76.06,549.35,76.06z"/>
	</g>
</g>
<g opacity="0.15">
	<g>
		<path fill="#341472" d="M811.81,67.04h-10c-1.38,0-2.5-1.12-2.5-2.5s1.12-2.5,2.5-2.5h10c1.38,0,2.5,1.12,2.5,2.5
			S813.19,67.04,811.81,67.04z M787.81,67.04h-10c-1.38,0-2.5-1.12-2.5-2.5s1.12-2.5,2.5-2.5h10c1.38,0,2.5,1.12,2.5,2.5
			S789.19,67.04,787.81,67.04z M763.81,67.04h-10c-1.38,0-2.5-1.12-2.5-2.5s1.12-2.5,2.5-2.5h10c1.38,0,2.5,1.12,2.5,2.5
			S765.19,67.04,763.81,67.04z M739.81,67.04h-10c-1.38,0-2.5-1.12-2.5-2.5s1.12-2.5,2.5-2.5h10c1.38,0,2.5,1.12,2.5,2.5
			S741.19,67.04,739.81,67.04z M715.81,67.04h-10c-1.38,0-2.5-1.12-2.5-2.5s1.12-2.5,2.5-2.5h10c1.38,0,2.5,1.12,2.5,2.5
			S717.19,67.04,715.81,67.04z M691.81,67.04h-10c-1.38,0-2.5-1.12-2.5-2.5s1.12-2.5,2.5-2.5h10c1.38,0,2.5,1.12,2.5,2.5
			S693.19,67.04,691.81,67.04z"/>
	</g>
	<g>
		<path fill="#341472" d="M808.27,76.06c-0.64,0-1.28-0.24-1.77-0.73c-0.98-0.98-0.98-2.56,0-3.54l7.25-7.25l-7.25-7.25
			c-0.98-0.98-0.98-2.56,0-3.54c0.98-0.98,2.56-0.98,3.54,0l9.02,9.02c0.47,0.47,0.73,1.1,0.73,1.77s-0.26,1.3-0.73,1.77l-9.02,9.02
			C809.54,75.81,808.9,76.06,808.27,76.06z"/>
	</g>
</g>
<g opacity="0.15">
	<g>
		<path fill="#341472" d="M182.78,315.48h-10c-1.38,0-2.5-1.12-2.5-2.5s1.12-2.5,2.5-2.5h10c1.38,0,2.5,1.12,2.5,2.5
			S184.17,315.48,182.78,315.48z M158.78,315.48h-10c-1.38,0-2.5-1.12-2.5-2.5s1.12-2.5,2.5-2.5h10c1.38,0,2.5,1.12,2.5,2.5
			S160.17,315.48,158.78,315.48z M134.78,315.48h-10c-1.38,0-2.5-1.12-2.5-2.5s1.12-2.5,2.5-2.5h10c1.38,0,2.5,1.12,2.5,2.5
			S136.17,315.48,134.78,315.48z"/>
	</g>
	<g>
		<path fill="#341472" d="M129.83,324.5c-0.64,0-1.28-0.24-1.77-0.73l-9.02-9.02c-0.47-0.47-0.73-1.1-0.73-1.77s0.26-1.3,0.73-1.77
			l9.02-9.02c0.98-0.98,2.56-0.98,3.54,0c0.98,0.98,0.98,2.56,0,3.54l-7.25,7.25l7.25,7.25c0.98,0.98,0.98,2.56,0,3.54
			C131.11,324.25,130.47,324.5,129.83,324.5z"/>
	</g>
</g>
<g>
	<g>
		<path fill="#5AC4FF" d="M24.06,90.12h75.33c6.81,0,12.33-5.52,12.33-12.33V31.95H36.39v45.84C36.39,84.6,30.87,90.12,24.06,90.12
			L24.06,90.12"/>
	</g>
	<g>
		<path fill="#FC6D26" d="M73.76,75.86l15.59-11.32c0.43-0.31,0.61-0.87,0.44-1.37l-5.37-16.53c-0.19-0.56-0.99-0.56-1.17,0
			l-3.57,10.98h0v0l-11.86,0.01l-3.58-10.99c-0.18-0.56-0.98-0.56-1.17,0l-5.37,16.53c-0.16,0.5,0.01,1.06,0.44,1.37L73.76,75.86"/>
	</g>
	<g>
		<rect x="11.73" y="103.26" fill="#AC7FFF" width="32.98" height="12.97"/>
	</g>
	<g>
		<path fill="#AC7FFF" d="M105.23,116.23H88.55v-12.97h16.68c3.58,0,6.49,2.9,6.49,6.49v0
			C111.72,113.32,108.81,116.23,105.23,116.23z"/>
	</g>
	<g>
		<polygon fill="#E5E0FC" points="68.21,103.26 68.21,91.04 55.24,91.04 55.24,103.26 44.63,103.26 44.63,116.23 91.71,116.23 
			91.71,103.26 		"/>
	</g>
	<g>
		<path fill="#18A3FF" d="M98.82,22.75H56.13l-8.42-10.52H11.73v65.56c0,6.81,5.52,12.33,12.33,12.33h0
			c6.81,0,12.33-5.52,12.33-12.33V31.95h62.43V22.75z"/>
	</g>
	<g>
		<path fill="#0B8ED6" d="M31.28,22.75c-3.06,0-5.53,2.48-5.53,5.53v50.36c0,4.63-2.74,8.61-6.68,10.43c0,0,15.96,2.98,17.32-11.28
			V31.95h62.43v-9.2H31.28z"/>
	</g>
	<g>
		<path fill="#380D75" d="M24.06,92.62c-8.18,0-14.83-6.65-14.83-14.83V12.23c0-1.38,1.12-2.5,2.5-2.5h35.99
			c0.76,0,1.48,0.35,1.95,0.94l7.67,9.58h41.49c1.38,0,2.5,1.12,2.5,2.5s-1.12,2.5-2.5,2.5H56.13c-0.76,0-1.48-0.35-1.95-0.94
			l-7.67-9.58H14.23v63.06c0,5.42,4.41,9.83,9.83,9.83c1.38,0,2.5,1.12,2.5,2.5S25.44,92.62,24.06,92.62z"/>
	</g>
	<g>
		<path fill="#380D75" d="M99.39,92.62H40.81c-1.38,0-2.5-1.12-2.5-2.5s1.12-2.5,2.5-2.5h58.59c5.42,0,9.83-4.41,9.83-9.83V34.45
			H38.89v43.34c0,8.18-6.65,14.83-14.83,14.83c-1.38,0-2.5-1.12-2.5-2.5s1.12-2.5,2.5-2.5c5.42,0,9.83-4.41,9.83-9.83V31.95
			c0-1.38,1.12-2.5,2.5-2.5h75.33c1.38,0,2.5,1.12,2.5,2.5v45.84C114.22,85.96,107.57,92.62,99.39,92.62z"/>
	</g>
	<g>
		<path fill="#380D75" d="M105.23,118.73H18.21c-1.38,0-2.5-1.12-2.5-2.5s1.12-2.5,2.5-2.5h87.02c2.2,0,3.99-1.79,3.99-3.99
			s-1.79-3.99-3.99-3.99H68.21c-1.38,0-2.5-1.12-2.5-2.5V91.04c0-1.38,1.12-2.5,2.5-2.5s2.5,1.12,2.5,2.5v9.71h34.52
			c4.95,0,8.99,4.03,8.99,8.99S110.19,118.73,105.23,118.73z"/>
	</g>
	<g>
		<path fill="#380D75" d="M85.22,118.73c-1.38,0-2.5-1.12-2.5-2.5s1.12-2.5,2.5-2.5c2.2,0,3.99-1.79,3.99-3.99s-1.79-3.99-3.99-3.99
			c-1.38,0-2.5-1.12-2.5-2.5s1.12-2.5,2.5-2.5c4.95,0,8.99,4.03,8.99,8.99S90.18,118.73,85.22,118.73z"/>
	</g>
	<g>
		<path fill="#380D75" d="M55.24,105.76H18.21c-1.38,0-2.5-1.12-2.5-2.5s1.12-2.5,2.5-2.5h34.53v-9.71c0-1.38,1.12-2.5,2.5-2.5
			s2.5,1.12,2.5,2.5v12.21C57.74,104.64,56.62,105.76,55.24,105.76z"/>
	</g>
	<g>
		<path fill="#380D75" d="M18.21,118.73c-4.95,0-8.99-4.03-8.99-8.99s4.03-8.99,8.99-8.99s8.99,4.03,8.99,8.99
			S23.17,118.73,18.21,118.73z M18.21,105.76c-2.2,0-3.99,1.79-3.99,3.99s1.79,3.99,3.99,3.99s3.99-1.79,3.99-3.99
			S20.41,105.76,18.21,105.76z"/>
	</g>
	<g>
		<path fill="#380D75" d="M38.23,118.73c-1.38,0-2.5-1.12-2.5-2.5s1.12-2.5,2.5-2.5c2.2,0,3.99-1.79,3.99-3.99s-1.79-3.99-3.99-3.99
			c-1.38,0-2.5-1.12-2.5-2.5s1.12-2.5,2.5-2.5c4.95,0,8.99,4.03,8.99,8.99S43.18,118.73,38.23,118.73z"/>
	</g>
	<g>
		<path fill="#380D75" d="M73.76,78.36c-0.52,0-1.03-0.16-1.47-0.48l-15.6-11.32c-1.31-0.96-1.85-2.63-1.35-4.17l5.37-16.53
			c0.44-1.3,1.63-2.15,2.97-2.15c0.01,0,0.01,0,0.02,0c1.34,0.01,2.53,0.87,2.94,2.15l3.01,9.26l8.22,0l3.01-9.26
			c0.42-1.28,1.6-2.14,2.94-2.15c0.01,0,0.01,0,0.02,0c1.34,0,2.53,0.85,2.96,2.12l5.38,16.56c0.5,1.54-0.04,3.21-1.35,4.17
			L75.23,77.88C74.79,78.2,74.27,78.36,73.76,78.36z M60.38,63.06l13.38,9.71l13.37-9.71l-3.29-10.13l-1.77,5.46
			c-0.33,1.03-1.29,1.73-2.38,1.73l-11.86,0.01c0,0,0,0,0,0c-1.08,0-2.04-0.7-2.38-1.73l-1.78-5.48L60.38,63.06z"/>
	</g>
</g>
<g>
	<g>
		<path fill="#FC6D26" d="M345.17,78.28l14.08-10.23c0.39-0.28,0.55-0.79,0.4-1.24l-4.85-14.93c-0.17-0.51-0.89-0.51-1.06,0
			l-3.22,9.92h0v0l-10.71,0.01l-3.23-9.93c-0.17-0.51-0.89-0.51-1.06,0l-4.85,14.93c-0.15,0.45,0.01,0.96,0.4,1.24L345.17,78.28"/>
	</g>
	<g>
		<path fill="#380D75" d="M301,84.23c-0.99,0-1.94-0.6-2.32-1.58c-2.33-5.87-3.51-12.06-3.51-18.43c0-27.57,22.43-50,50-50
			c6.36,0,12.56,1.18,18.42,3.5c1.28,0.51,1.91,1.96,1.4,3.25c-0.51,1.28-1.96,1.91-3.25,1.4c-5.27-2.09-10.85-3.15-16.58-3.15
			c-24.81,0-45,20.19-45,45c0,5.73,1.06,11.31,3.15,16.58c0.51,1.28-0.12,2.74-1.4,3.25C301.62,84.18,301.31,84.23,301,84.23z"/>
	</g>
	<g>
		<path fill="#380D75" d="M345.17,114.23c-7.68,0-15.05-1.7-21.9-5.04c-1.24-0.61-1.76-2.1-1.15-3.34c0.6-1.24,2.1-1.76,3.34-1.15
			c6.17,3.01,12.8,4.53,19.71,4.53c24.81,0,45-20.19,45-45c0-6.4-1.32-12.59-3.91-18.38c-0.56-1.26,0-2.74,1.26-3.3
			c1.26-0.57,2.74,0,3.3,1.26c2.89,6.44,4.35,13.31,4.35,20.43C395.17,91.8,372.74,114.23,345.17,114.23z"/>
	</g>
	<g>
		<path fill="#380D75" d="M312.55,66.73c-1.38,0-2.5-1.12-2.5-2.5c0-9.38,3.65-18.2,10.29-24.84c13.69-13.7,35.98-13.7,49.67,0
			c1.23,1.23,2.38,2.56,3.41,3.95c0.82,1.11,0.59,2.67-0.52,3.5c-1.11,0.82-2.67,0.59-3.5-0.52c-0.88-1.19-1.87-2.33-2.93-3.39
			c-11.75-11.75-30.86-11.75-42.6,0c-5.69,5.69-8.82,13.26-8.82,21.3C315.05,65.61,313.93,66.73,312.55,66.73z"/>
	</g>
	<g>
		<path fill="#380D75" d="M345.17,99.34c-8.99,0-17.99-3.42-24.84-10.27c-1.25-1.25-2.42-2.61-3.46-4.02
			c-0.82-1.11-0.58-2.68,0.53-3.5c1.11-0.82,2.68-0.58,3.5,0.53c0.9,1.22,1.9,2.38,2.97,3.46c11.75,11.75,30.86,11.75,42.6,0
			c5.69-5.69,8.82-13.26,8.82-21.3c0-1.38,1.12-2.5,2.5-2.5s2.5,1.12,2.5,2.5c0,9.38-3.65,18.2-10.29,24.84
			C363.16,95.91,354.16,99.34,345.17,99.34z"/>
	</g>
	<g>
		<path fill="#380D75" d="M371.41,47.33h-8.69c-1.38,0-2.5-1.12-2.5-2.5s1.12-2.5,2.5-2.5h6.19v-6.19c0-1.38,1.12-2.5,2.5-2.5
			s2.5,1.12,2.5,2.5v8.69C373.91,46.21,372.79,47.33,371.41,47.33z"/>
	</g>
	<g>
		<path fill="#380D75" d="M318.88,94.73c-1.38,0-2.5-1.12-2.5-2.5v-8.69c0-1.38,1.12-2.5,2.5-2.5h8.69c1.38,0,2.5,1.12,2.5,2.5
			s-1.12,2.5-2.5,2.5h-6.19v6.19C321.38,93.61,320.26,94.73,318.88,94.73z"/>
	</g>
	<g>
		<path fill="#380D75" d="M345.17,80.78c-0.52,0-1.03-0.16-1.47-0.48l-14.09-10.23c-1.27-0.92-1.8-2.54-1.31-4.04l4.85-14.93
			c0.43-1.27,1.59-2.11,2.91-2.11c0.01,0,0.01,0,0.02,0c1.32,0.01,2.48,0.85,2.89,2.11l2.67,8.2l7.08,0l2.66-8.19
			c0.41-1.26,1.57-2.1,2.89-2.11c0.01,0,0.01,0,0.02,0c1.31,0,2.48,0.83,2.9,2.08l4.86,14.96c0.48,1.49-0.04,3.11-1.31,4.03
			L346.64,80.3C346.21,80.62,345.69,80.78,345.17,80.78z M333.37,66.62l11.8,8.57l11.79-8.57l-2.69-8.28l-1.37,4.23
			c-0.33,1.03-1.29,1.73-2.38,1.73l-10.71,0.01c0,0,0,0,0,0c-1.08,0-2.04-0.7-2.38-1.73l-1.38-4.24L333.37,66.62z"/>
	</g>
</g>
<g>
	<g>
		<path fill="#FCF7F2" d="M635.44,87.26h-30.09v-53c0-10.17,4.4-19.84,12.06-26.53v0c1.71-1.49,4.26-1.49,5.97,0v0
			c7.66,6.69,12.06,16.36,12.06,26.53V87.26z"/>
	</g>
	<g>
		<path fill="#FCF7F2" d="M605.35,82.21l-22.2,3.44v-7c0-10.54,4.52-20.58,12.41-27.58l3.73-3.31c3.86-3.42,6.06-8.32,6.06-13.47
			v-1.74"/>
	</g>
	<g>
		<path fill="#FCF7F2" d="M635.44,82.21l22.2,3.44v-7c0-10.54-4.52-20.58-12.41-27.58l-3.73-3.31c-3.86-3.42-6.06-8.32-6.06-13.47
			v-1.74"/>
	</g>
	<g>
		<polygon fill="#A686FF" points="656.32,84.59 636.56,81.09 636.56,71.84 656.32,75.34 		"/>
	</g>
	<g>
		<polygon fill="#A686FF" points="584.37,84.59 604.13,81.09 604.13,71.84 584.37,75.34 		"/>
	</g>
	<g>
		<rect x="597.7" y="72.26" fill="#8C6EEA" width="7.66" height="9.96"/>
	</g>
	<g>
		<rect x="597.7" y="46.93" fill="#E5DAD1" width="7.66" height="25.32"/>
	</g>
	<g>
		<rect x="635.44" y="72.26" fill="#8C6EEA" width="7.66" height="9.96"/>
	</g>
	<g>
		<rect x="635.44" y="46.93" fill="#E5DAD1" width="7.66" height="25.32"/>
	</g>
	<g>
		<path fill="#FF9769" d="M609.94,87.26c-5.83,4.88-3.85,13.11,2.31,16.1c0.44-2.5,2.44-4.86,4.69-6.04c0,0,4.66,10.02-2.34,18.48
			c15.95,1.07,25.29-17.26,15.67-28.54"/>
	</g>
	<g>
		<g>
			<path fill="#341472" d="M635.44,89.76h-30.09c-1.38,0-2.5-1.12-2.5-2.5v-53c0-10.89,4.71-21.25,12.91-28.42
				c2.64-2.3,6.62-2.31,9.26,0c8.21,7.17,12.91,17.52,12.91,28.42v53C637.94,88.64,636.82,89.76,635.44,89.76z M607.85,84.76h25.09
				v-50.5c0-9.45-4.08-18.44-11.2-24.65c-0.77-0.67-1.92-0.67-2.69,0c-7.12,6.22-11.2,15.2-11.2,24.65V84.76z"/>
		</g>
		<g>
			<path fill="#341472" d="M583.15,88.15c-0.59,0-1.17-0.21-1.63-0.6c-0.55-0.47-0.87-1.17-0.87-1.9v-7
				c0-11.25,4.83-21.99,13.25-29.45l3.73-3.31c3.32-2.94,5.22-7.17,5.22-11.6v-1.74c0-1.38,1.12-2.5,2.5-2.5s2.5,1.12,2.5,2.5v1.74
				c0,5.86-2.52,11.46-6.9,15.34l-3.73,3.31c-7.35,6.51-11.57,15.88-11.57,25.71v4.08l19.32-2.99c1.37-0.21,2.64,0.72,2.85,2.09
				c0.21,1.36-0.72,2.64-2.09,2.85l-22.2,3.44C583.4,88.14,583.28,88.15,583.15,88.15z"/>
		</g>
		<g>
			<path fill="#341472" d="M657.65,88.15c-0.13,0-0.25-0.01-0.38-0.03l-22.21-3.44c-1.36-0.21-2.3-1.49-2.09-2.85
				c0.21-1.36,1.48-2.3,2.85-2.09l19.32,2.99v-4.08c0-9.82-4.22-19.19-11.57-25.71l-3.73-3.31c-4.39-3.89-6.9-9.48-6.9-15.34v-1.74
				c0-1.38,1.12-2.5,2.5-2.5s2.5,1.12,2.5,2.5v1.74c0,4.43,1.9,8.66,5.22,11.6l3.73,3.31c8.42,7.46,13.25,18.2,13.25,29.45v7
				c0,0.73-0.32,1.42-0.87,1.9C658.82,87.94,658.24,88.15,657.65,88.15z"/>
		</g>
		<g>
			<path fill="#341472" d="M584.01,77.47c-1.21,0-2.28-0.88-2.47-2.12c-0.21-1.36,0.72-2.64,2.09-2.85l21.34-3.3
				c1.37-0.21,2.64,0.72,2.85,2.09c0.21,1.36-0.72,2.64-2.09,2.85l-21.34,3.3C584.26,77.46,584.14,77.47,584.01,77.47z"/>
		</g>
		<g>
			<path fill="#341472" d="M656.32,77.4c-0.13,0-0.26-0.01-0.39-0.03l-20.88-3.23c-1.36-0.21-2.3-1.49-2.09-2.85
				c0.21-1.36,1.48-2.3,2.85-2.09l20.88,3.23c1.36,0.21,2.3,1.49,2.09,2.85C658.6,76.51,657.53,77.4,656.32,77.4z"/>
		</g>
		<g>
			<path fill="#341472" d="M615.93,118.35c-0.49,0-0.99-0.02-1.49-0.05c-0.94-0.06-1.76-0.64-2.13-1.51
				c-0.37-0.86-0.23-1.86,0.37-2.58c3.64-4.4,3.57-9.33,2.97-12.51c-0.48,0.68-0.82,1.41-0.94,2.1c-0.14,0.77-0.63,1.44-1.33,1.79
				c-0.7,0.36-1.52,0.36-2.23,0.02c-3.88-1.89-6.6-5.63-7.11-9.78c-0.49-3.98,1.08-7.8,4.29-10.49c1.06-0.88,2.64-0.75,3.52,0.31
				c0.89,1.06,0.75,2.64-0.31,3.52c-1.92,1.6-2.82,3.75-2.54,6.05c0.2,1.6,0.96,3.1,2.1,4.28c1.1-1.81,2.74-3.39,4.68-4.4
				c0.61-0.32,1.31-0.37,1.96-0.15c0.65,0.22,1.17,0.69,1.46,1.31c0.18,0.4,3.83,8.46,0.08,16.73c5.28-1.11,8.91-4.77,10.71-8.36
				c2.7-5.37,2.08-11.42-1.63-15.77c-0.9-1.05-0.77-2.63,0.28-3.52c1.05-0.9,2.63-0.77,3.52,0.28c5.04,5.91,5.91,14.05,2.29,21.26
				C630.86,114.06,623.85,118.35,615.93,118.35z"/>
		</g>
		<g>
			<path fill="#341472" d="M615.03,29.62c-0.3,0-0.61-0.05-0.91-0.17c-1.29-0.5-1.92-1.95-1.42-3.24c1.25-3.2,4.27-5.26,7.69-5.26
				c3.43,0,6.45,2.07,7.69,5.26c0.5,1.29-0.13,2.74-1.42,3.24c-1.29,0.5-2.74-0.13-3.24-1.42c-0.49-1.26-1.68-2.08-3.04-2.08
				c-1.35,0-2.54,0.82-3.04,2.08C616.98,29.01,616.03,29.62,615.03,29.62z"/>
		</g>
	</g>
</g>
<g>
	<g>
		<path fill="#FF9769" d="M947.13,72.69h-103.5V25.63c0-3.1,2.51-5.61,5.61-5.61h92.29c3.1,0,5.61,2.51,5.61,5.61V72.69z"/>
	</g>
	<g>
		<rect x="858.13" y="45.86" fill="#FFFFFF" width="74.98" height="26.83"/>
	</g>
	<g>
		<rect x="882.72" y="80.35" fill="#978ACE" width="25.71" height="24.58"/>
	</g>
	<g>
		<rect x="882.72" y="87.74" fill="#7971AD" width="25.71" height="6.89"/>
	</g>
	<g>
		<path fill="#978ACE" d="M913.6,102.53h-35.95c-3.49,0-6.32,2.83-6.32,6.32v2.75h48.58v-2.75
			C919.92,105.36,917.09,102.53,913.6,102.53z"/>
	</g>
	<g>
		<path fill="#978ACE" d="M940.6,87.74h-89.94c-3.88,0-7.03-3.15-7.03-7.03v-7.75h104v7.75C947.63,84.6,944.48,87.74,940.6,87.74z"
			/>
	</g>
	<g>
		<path fill="#380D75" d="M941.85,89.23h-92.44c-4.29,0-7.78-3.49-7.78-7.78V25.3c0-4.29,3.49-7.78,7.78-7.78h92.44
			c4.29,0,7.78,3.49,7.78,7.78v56.15C949.63,85.74,946.14,89.23,941.85,89.23z M849.41,22.52c-1.53,0-2.78,1.25-2.78,2.78v56.15
			c0,1.54,1.25,2.78,2.78,2.78h92.44c1.54,0,2.78-1.25,2.78-2.78V25.3c0-1.54-1.25-2.78-2.78-2.78H849.41z"/>
	</g>
	<g>
		<path fill="#380D75" d="M945.94,75.19H844.12c-1.38,0-2.5-1.12-2.5-2.5s1.12-2.5,2.5-2.5h101.81c1.38,0,2.5,1.12,2.5,2.5
			S947.32,75.19,945.94,75.19z"/>
	</g>
	<g>
		<path fill="#380D75" d="M907.89,105.26h-24.53c-1.38,0-2.5-1.12-2.5-2.5V86.73c0-1.38,1.12-2.5,2.5-2.5s2.5,1.12,2.5,2.5v13.52
			h19.53v-6.52c0-1.38,1.12-2.5,2.5-2.5s2.5,1.12,2.5,2.5v9.02C910.39,104.14,909.27,105.26,907.89,105.26z"/>
	</g>
	<g>
		<path fill="#380D75" d="M918.7,113.87h-46.15c-1.38,0-2.5-1.12-2.5-2.5v-2.61c0-4.69,3.81-8.5,8.5-8.5h34.15
			c4.69,0,8.5,3.81,8.5,8.5v2.61C921.2,112.75,920.08,113.87,918.7,113.87z M875.05,108.87h41.15v-0.11c0-1.93-1.57-3.5-3.5-3.5
			h-34.15c-1.93,0-3.5,1.57-3.5,3.5V108.87z"/>
	</g>
	<g>
		<path fill="#AC7FFF" d="M930.12,30.02h-68.98c-1.66,0-3,1.34-3,3v12.83h74.98V33.02C933.12,31.37,931.78,30.02,930.12,30.02z"/>
	</g>
	<g>
		<path fill="#380D75" d="M933.12,48.47h-74.98c-1.38,0-2.5-1.12-2.5-2.5s1.12-2.5,2.5-2.5h74.98c1.38,0,2.5,1.12,2.5,2.5
			S934.5,48.47,933.12,48.47z"/>
	</g>
	<g>
		<path fill="#380D75" d="M933.12,66.01c-1.38,0-2.5-1.12-2.5-2.5V33.02c0-0.28-0.22-0.5-0.5-0.5h-68.98c-0.28,0-0.5,0.22-0.5,0.5
			v30.49c0,1.38-1.12,2.5-2.5,2.5s-2.5-1.12-2.5-2.5V33.02c0-3.03,2.47-5.5,5.5-5.5h68.98c3.03,0,5.5,2.47,5.5,5.5v30.49
			C935.62,64.89,934.5,66.01,933.12,66.01z"/>
	</g>
	<g>
		<g>
			<path fill="#380D75" d="M907.74,65.5c-1.23,0-2.31-0.91-2.47-2.17l-0.97-7.2c-0.1-0.77,0.16-1.55,0.71-2.1
				c0.55-0.55,1.33-0.81,2.1-0.71l7.2,0.97c1.37,0.18,2.33,1.44,2.14,2.81c-0.18,1.37-1.43,2.33-2.81,2.15l-3.96-0.53l0.53,3.96
				c0.18,1.37-0.78,2.63-2.14,2.81C907.97,65.49,907.85,65.5,907.74,65.5z"/>
		</g>
		<g>
			<path fill="#380D75" d="M914.72,66.24c-0.64,0-1.28-0.24-1.77-0.73l-7.94-7.94c-0.98-0.98-0.98-2.56,0-3.54
				c0.98-0.98,2.56-0.98,3.54,0l7.94,7.94c0.98,0.98,0.98,2.56,0,3.54C916,65.99,915.36,66.24,914.72,66.24z"/>
		</g>
	</g>
	<g>
		<path fill="#380D75" d="M866.65,40.5c-0.66,0-1.31-0.27-1.77-0.73c-0.12-0.12-0.22-0.25-0.31-0.38c-0.09-0.14-0.17-0.29-0.23-0.44
			s-0.11-0.3-0.14-0.46c-0.04-0.17-0.05-0.33-0.05-0.49c0-0.17,0.01-0.33,0.05-0.49c0.03-0.16,0.08-0.32,0.14-0.47
			c0.06-0.15,0.14-0.29,0.23-0.43c0.09-0.14,0.19-0.27,0.31-0.38c0.58-0.58,1.44-0.85,2.26-0.68c0.15,0.03,0.31,0.08,0.46,0.14
			c0.15,0.06,0.3,0.14,0.43,0.23c0.14,0.09,0.27,0.19,0.38,0.31c0.12,0.11,0.22,0.24,0.31,0.38s0.17,0.28,0.23,0.43
			c0.07,0.15,0.11,0.31,0.15,0.47c0.03,0.16,0.05,0.32,0.05,0.49c0,0.16-0.02,0.32-0.05,0.49c-0.04,0.16-0.08,0.31-0.15,0.46
			c-0.06,0.15-0.14,0.3-0.23,0.44c-0.09,0.13-0.19,0.26-0.31,0.38C867.96,40.23,867.31,40.5,866.65,40.5z"/>
	</g>
	<g>
		<path fill="#380D75" d="M873.85,40.5c-0.66,0-1.31-0.27-1.77-0.74c-0.12-0.11-0.22-0.24-0.31-0.38c-0.09-0.13-0.17-0.28-0.23-0.43
			c-0.07-0.15-0.11-0.3-0.15-0.46c-0.03-0.17-0.05-0.33-0.05-0.49c0-0.66,0.27-1.31,0.74-1.77c0.92-0.93,2.6-0.93,3.53,0
			c0.47,0.46,0.73,1.11,0.73,1.77c0,0.16-0.01,0.32-0.04,0.49c-0.04,0.16-0.08,0.31-0.15,0.46c-0.06,0.15-0.14,0.3-0.23,0.43
			c-0.09,0.14-0.19,0.27-0.31,0.38C875.14,40.23,874.5,40.5,873.85,40.5z"/>
	</g>
	<g>
		<path fill="#380D75" d="M881.02,40.5c-0.66,0-1.3-0.27-1.76-0.74c-0.12-0.11-0.22-0.24-0.32-0.38c-0.09-0.13-0.16-0.28-0.22-0.43
			c-0.07-0.15-0.12-0.3-0.15-0.46c-0.03-0.16-0.05-0.33-0.05-0.49c0-0.66,0.27-1.31,0.74-1.77c0.11-0.12,0.24-0.22,0.38-0.31
			c0.13-0.09,0.28-0.17,0.43-0.23c0.15-0.06,0.3-0.11,0.46-0.14c0.82-0.17,1.68,0.1,2.26,0.68c0.47,0.46,0.73,1.11,0.73,1.77
			c0,0.16-0.01,0.32-0.04,0.49c-0.04,0.16-0.09,0.31-0.15,0.46c-0.06,0.15-0.14,0.3-0.23,0.43c-0.09,0.14-0.19,0.27-0.31,0.38
			c-0.11,0.12-0.24,0.22-0.38,0.32c-0.14,0.09-0.28,0.16-0.43,0.23c-0.15,0.06-0.31,0.11-0.47,0.14
			C881.35,40.48,881.19,40.5,881.02,40.5z"/>
	</g>
	<g>
		<path fill="#380D75" d="M924.11,40.5h-35.58c-1.38,0-2.5-1.12-2.5-2.5s1.12-2.5,2.5-2.5h35.58c1.38,0,2.5,1.12,2.5,2.5
			S925.49,40.5,924.11,40.5z"/>
	</g>
</g>
<g>
	<g>
		<path fill="#AFA3C6" d="M622.44,271.83L622.44,271.83c-17.08,0-30.93,13.85-30.93,30.93v10.61h13.01v-10.61
			c0-9.9,8.02-17.92,17.92-17.92h0c9.9,0,17.92,8.02,17.92,17.92v10.61h13.01v-10.61C653.37,285.68,639.52,271.83,622.44,271.83z"/>
	</g>
	<g>
		<rect x="582.97" y="313.37" fill="#FFC46C" width="78.94" height="57.46"/>
	</g>
	<g>
		<circle fill="#E58615" cx="622.44" cy="342.1" r="20.82"/>
	</g>
	<g>
		<path fill="#FFFFFF" d="M608.62,357.66c3.69,3.39,8.51,5.25,13.82,5.25c5.3,0,10.14-1.99,13.82-5.25
			c-3.68-3.27-8.51-5.25-13.82-5.25C617.13,352.41,612.3,354.4,608.62,357.66z"/>
	</g>
	<g>
		<circle fill="#FFFFFF" cx="622.44" cy="339.55" r="6.3"/>
	</g>
	<g>
		<path fill="#380D75" d="M661.9,373.33h-69.19c-1.38,0-2.5-1.12-2.5-2.5s1.12-2.5,2.5-2.5h66.69v-52.46h-73.93v54.96
			c0,1.38-1.12,2.5-2.5,2.5s-2.5-1.12-2.5-2.5v-57.46c0-1.38,1.12-2.5,2.5-2.5h78.93c1.38,0,2.5,1.12,2.5,2.5v57.46
			C664.4,372.21,663.29,373.33,661.9,373.33z"/>
	</g>
	<g>
		<path fill="#380D75" d="M653.37,315.87c-1.38,0-2.5-1.12-2.5-2.5v-10.61c0-15.68-12.75-28.43-28.43-28.43S594,287.08,594,302.76
			v10.61c0,1.38-1.12,2.5-2.5,2.5s-2.5-1.12-2.5-2.5v-10.61c0-18.44,15-33.43,33.43-33.43s33.43,15,33.43,33.43v10.61
			C655.87,314.75,654.75,315.87,653.37,315.87z"/>
	</g>
	<g>
		<path fill="#380D75" d="M604.51,315.87c-1.38,0-2.5-1.12-2.5-2.5v-10.61c0-11.26,9.16-20.42,20.42-20.42
			c11.26,0,20.42,9.16,20.42,20.42v3.51c0,1.38-1.12,2.5-2.5,2.5s-2.5-1.12-2.5-2.5v-3.51c0-8.5-6.92-15.42-15.42-15.42
			c-8.5,0-15.42,6.92-15.42,15.42v10.61C607.01,314.75,605.89,315.87,604.51,315.87z"/>
	</g>
	<g>
		<path fill="#380D75" d="M622.44,365.42c-5.86,0-11.37-2.1-15.51-5.91c-0.52-0.48-0.81-1.15-0.81-1.86s0.31-1.38,0.84-1.85
			c4.27-3.79,9.77-5.88,15.48-5.88c5.71,0,11.21,2.09,15.48,5.88c0.53,0.47,0.84,1.16,0.84,1.87c0,0.71-0.31,1.39-0.84,1.87
			C633.65,363.33,628.15,365.42,622.44,365.42z M612.74,357.69c2.82,1.79,6.12,2.73,9.7,2.73c3.44,0,6.77-0.96,9.66-2.75
			c-2.88-1.79-6.22-2.75-9.66-2.75C618.98,354.91,615.63,355.88,612.74,357.69z"/>
	</g>
	<g>
		<path fill="#380D75" d="M622.44,348.35c-4.85,0-8.8-3.95-8.8-8.8s3.95-8.8,8.8-8.8s8.8,3.95,8.8,8.8S627.29,348.35,622.44,348.35z
			 M622.44,335.75c-2.1,0-3.8,1.71-3.8,3.8s1.71,3.8,3.8,3.8s3.8-1.71,3.8-3.8S624.53,335.75,622.44,335.75z"/>
	</g>
	<g>
		<path fill="#380D75" d="M640.95,354.12c-0.39,0-0.78-0.09-1.14-0.28c-1.23-0.63-1.71-2.14-1.08-3.37
			c1.34-2.61,2.02-5.42,2.02-8.37c0-10.1-8.22-18.32-18.32-18.32c-10.1,0-18.32,8.22-18.32,18.32c0,2.93,0.67,5.72,1.99,8.31
			c0.63,1.23,0.14,2.74-1.09,3.36c-1.23,0.62-2.74,0.14-3.36-1.09c-1.68-3.3-2.54-6.86-2.54-10.58c0-12.86,10.46-23.32,23.32-23.32
			c12.86,0,23.32,10.46,23.32,23.32c0,3.7-0.89,7.39-2.58,10.66C642.73,353.62,641.86,354.12,640.95,354.12z"/>
	</g>
</g>
<g>
	<g>
		<g>
			<circle fill="#38F2AF" cx="89.64" cy="347.77" r="19.93"/>
		</g>
		<g>
			<path fill="#380D75" d="M86.53,355.62c-0.64,0-1.28-0.24-1.77-0.73l-4.5-4.5c-0.98-0.98-0.98-2.56,0-3.54
				c0.98-0.98,2.56-0.98,3.54,0l2.74,2.74l8.95-8.95c0.98-0.98,2.56-0.98,3.54,0c0.98,0.98,0.98,2.56,0,3.54L88.3,354.89
				C87.81,355.38,87.17,355.62,86.53,355.62z"/>
		</g>
		<g>
			<path fill="#380D75" d="M89.64,370.2c-12.37,0-22.43-10.06-22.43-22.43s10.06-22.43,22.43-22.43s22.43,10.06,22.43,22.43
				S102.01,370.2,89.64,370.2z M89.64,330.33c-9.61,0-17.43,7.82-17.43,17.43s7.82,17.43,17.43,17.43s17.43-7.82,17.43-17.43
				S99.25,330.33,89.64,330.33z"/>
		</g>
	</g>
	<g>
		<g>
			<circle fill="#FF675F" cx="28.66" cy="347.77" r="19.93"/>
		</g>
		<g>
			<path fill="#380D75" d="M28.66,370.2c-12.37,0-22.43-10.06-22.43-22.43s10.06-22.43,22.43-22.43s22.43,10.06,22.43,22.43
				S41.03,370.2,28.66,370.2z M28.66,330.33c-9.61,0-17.43,7.82-17.43,17.43s7.82,17.43,17.43,17.43s17.43-7.82,17.43-17.43
				S38.27,330.33,28.66,330.33z"/>
		</g>
		<g>
			<path fill="#380D75" d="M23.3,355.62c-0.64,0-1.28-0.24-1.77-0.73c-0.98-0.98-0.98-2.56,0-3.54l10.72-10.72
				c0.98-0.98,2.56-0.98,3.54,0c0.98,0.98,0.98,2.56,0,3.54l-10.72,10.72C24.58,355.38,23.94,355.62,23.3,355.62z"/>
		</g>
		<g>
			<path fill="#380D75" d="M34.02,355.62c-0.64,0-1.28-0.24-1.77-0.73l-10.72-10.72c-0.98-0.98-0.98-2.56,0-3.54
				c0.98-0.98,2.56-0.98,3.54,0l10.72,10.72c0.98,0.98,0.98,2.56,0,3.54C35.29,355.38,34.65,355.62,34.02,355.62z"/>
		</g>
	</g>
	<g>
		<g>
			<g>
				<g id="g48_9_" transform="translate(155.197863, 1.160267)">
					<g id="path50_9_">
						<path fill="#E24329" d="M-96.41,322.08L-96.41,322.08l12.16-37.19h-24.33L-96.41,322.08L-96.41,322.08z"/>
					</g>
				</g>
				<g id="g56_9_" transform="translate(28.531199, 1.160800)">
					<g id="path58_9_">
						<path fill="#FC6D26" d="M30.25,322.08l-12.16-37.19H1.06L30.25,322.08L30.25,322.08z"/>
					</g>
				</g>
				<g id="g72_9_" transform="translate(29.421866, 280.255593)">
					<g id="path74_9_">
						<path fill="#E24329" d="M0.16,5.81h17.05l-7.34-22.4c-0.38-1.15-2.01-1.15-2.4,0L0.16,5.81L0.16,5.81z"/>
					</g>
				</g>
				<g id="g76_9_" transform="translate(247.197860, 1.160800)">
					<g id="path78_9_">
						<path fill="#FC6D26" d="M-188.41,322.08l12.16-37.19h17.05L-188.41,322.08L-188.41,322.08z"/>
					</g>
				</g>
				<g id="g80_13_" transform="translate(246.307061, 0.255867)">
					<g id="path82_13_">
						<path fill="#FCA326" d="M-158.32,285.81L-158.32,285.81l3.7,11.3c0.34,1.03-0.03,2.16-0.91,2.8l-31.99,23.08L-158.32,285.81
							L-158.32,285.81z"/>
					</g>
				</g>
				<g id="g80_10_" transform="translate(246.307061, 0.255867)">
					<g id="path82_10_">
						<path fill="#FCA326" d="M-216.71,285.81L-216.71,285.81l-3.7,11.3c-0.34,1.03,0.03,2.16,0.91,2.8l31.99,23.08L-216.71,285.81
							L-216.71,285.81z"/>
					</g>
				</g>
				<g id="g84_9_" transform="translate(336.973725, 280.255593)">
					<g id="path86_9_">
						<path fill="#E24329" d="M-248.98,5.81h-17.05l7.32-22.4c0.38-1.15,2.01-1.15,2.4,0L-248.98,5.81L-248.98,5.81z"/>
					</g>
				</g>
			</g>
		</g>
		<g>
			<g>
				<g>
					<g id="g48_8_" transform="translate(155.197863, 1.160267)">
						<g id="path50_8_">
							<path fill="#380D75" d="M-96.04,325.11c-1.08,0-2.04-0.69-2.38-1.72l-12.45-37.85c-0.25-0.76-0.12-1.6,0.35-2.25
								c0.47-0.65,1.22-1.03,2.03-1.03h24.9c0.8,0,1.56,0.38,2.03,1.03c0.47,0.65,0.6,1.49,0.35,2.25l-12.45,37.85
								C-94.01,324.42-94.96,325.11-96.04,325.11z M-105.04,287.26l9,27.35l9-27.35H-105.04z"/>
						</g>
					</g>
					<g id="g56_8_" transform="translate(28.531199, 1.160800)">
						<g id="path58_8_">
							<path fill="#380D75" d="M30.62,325.11c-0.75,0-1.48-0.33-1.96-0.95l-29.88-37.85c-0.59-0.75-0.71-1.78-0.29-2.64
								c0.42-0.86,1.29-1.41,2.25-1.41h17.43c1.08,0,2.04,0.69,2.38,1.72l12.45,37.85c0.38,1.15-0.12,2.41-1.19,2.98
								C31.42,325.01,31.02,325.11,30.62,325.11z M5.89,287.26l17.94,22.72l-7.47-22.72H5.89z"/>
						</g>
					</g>
					<g id="g64_8_" transform="translate(0.088533, 0.255867)">
						<g id="path66_8_">
							<path fill="#380D75" d="M59.05,326.03c-0.51,0-1.02-0.15-1.46-0.47l-32.74-23.5c-1.8-1.29-2.54-3.57-1.85-5.66l3.79-11.5
								c0.29-0.87,1.03-1.52,1.94-1.68c0.91-0.16,1.83,0.19,2.4,0.91l29.88,37.85c0.77,0.98,0.71,2.38-0.15,3.28
								C60.37,325.77,59.71,326.03,59.05,326.03z M30.09,290.88l-2.33,7.08l18.32,13.16L30.09,290.88z"/>
						</g>
					</g>
					<g id="g72_8_" transform="translate(29.421866, 280.255593)">
						<g id="path74_8_">
							<path fill="#380D75" d="M17.29,8.18H-0.16c-0.8,0-1.55-0.38-2.02-1.03c-0.47-0.65-0.6-1.48-0.35-2.25l7.48-22.8
								c0.53-1.57,1.98-2.59,3.61-2.59c0.01,0,0.01,0,0.02,0c1.63,0.01,3.07,1.05,3.58,2.59l7.51,22.8c0.25,0.76,0.12,1.6-0.35,2.25
								C18.84,7.79,18.09,8.18,17.29,8.18z M3.29,3.18h10.54L8.55-12.85L3.29,3.18z"/>
						</g>
					</g>
					<g id="g76_8_" transform="translate(247.197860, 1.160800)">
						<g id="path78_8_">
							<path fill="#380D75" d="M-188.04,325.11c-0.4,0-0.81-0.1-1.18-0.3c-1.07-0.57-1.57-1.83-1.19-2.98l12.45-37.85
								c0.34-1.03,1.3-1.72,2.38-1.72h17.45c0.96,0,1.83,0.55,2.25,1.41c0.42,0.86,0.31,1.89-0.29,2.64l-29.9,37.85
								C-186.57,324.78-187.3,325.11-188.04,325.11z M-173.78,287.26l-7.48,22.73l17.95-22.73H-173.78z"/>
						</g>
					</g>
					<g id="g80_9_" transform="translate(246.307061, 0.255867)">
						<g id="path82_9_">
							<path fill="#380D75" d="M-187.15,326.01c-0.66,0-1.32-0.26-1.81-0.77c-0.86-0.9-0.93-2.3-0.15-3.28l29.88-37.84
								c0.57-0.72,1.49-1.07,2.4-0.91c0.91,0.16,1.65,0.81,1.94,1.68l3.79,11.5c0.69,2.1-0.06,4.37-1.85,5.66l-32.74,23.49
								C-186.13,325.86-186.64,326.01-187.15,326.01z M-158.2,290.88l-16,20.25l18.32-13.15L-158.2,290.88z"/>
						</g>
					</g>
					<g id="g84_8_" transform="translate(336.973725, 280.255593)">
						<g id="path86_8_">
							<path fill="#380D75" d="M-247.93,8.18h-17.45c-0.8,0-1.55-0.38-2.02-1.03s-0.6-1.48-0.35-2.25l7.49-22.8
								c0.51-1.54,1.95-2.59,3.58-2.59c1.65-0.03,3.09,1.02,3.62,2.57l7.5,22.83c0.25,0.76,0.12,1.6-0.35,2.25
								S-247.13,8.18-247.93,8.18z M-261.92,3.18h10.54l-5.27-16.03L-261.92,3.18z"/>
						</g>
					</g>
				</g>
			</g>
		</g>
	</g>
</g>
<g>
	<g>
		<path fill="#CAB5FF" d="M481.69,337.16h-92.49c-3.18,0-5.76-2.58-5.76-5.76v-58.71c0-3.18,2.58-5.76,5.76-5.76h92.49
			c3.18,0,5.76,2.58,5.76,5.76v58.71C487.44,334.59,484.86,337.16,481.69,337.16z"/>
	</g>
	<g>
		<rect x="426.8" y="279.2" fill="#FFFFFF" width="14.37" height="14.37"/>
	</g>
	<g>
		<rect x="422.53" y="329.77" fill="#978ACE" width="25.71" height="26.58"/>
	</g>
	<g>
		<rect x="422.53" y="337.16" fill="#7971AD" width="25.71" height="6.89"/>
	</g>
	<g>
		<path fill="#978ACE" d="M453.42,353.95h-35.95c-3.49,0-6.32,2.83-6.32,6.32v2.75h48.58v-2.75
			C459.73,356.78,456.9,353.95,453.42,353.95z"/>
	</g>
	<g>
		<path fill="#978ACE" d="M480.41,337.16h-89.94c-3.88,0-7.03-3.15-7.03-7.03v-7.75h104v7.75
			C487.44,334.02,484.29,337.16,480.41,337.16z"/>
	</g>
	<g>
		<path fill="#380D75" d="M481.88,339.66H389c-4.45,0-8.06-3.62-8.06-8.06v-59.1c0-4.45,3.62-8.06,8.06-8.06
			c1.38,0,2.5,1.12,2.5,2.5s-1.12,2.5-2.5,2.5c-1.69,0-3.06,1.37-3.06,3.06v59.1c0,1.69,1.37,3.06,3.06,3.06h92.88
			c1.69,0,3.06-1.37,3.06-3.06v-59.1c0-1.69-1.37-3.06-3.06-3.06h-83.03c-1.38,0-2.5-1.12-2.5-2.5s1.12-2.5,2.5-2.5h83.03
			c4.45,0,8.06,3.62,8.06,8.06v59.1C489.94,336.05,486.32,339.66,481.88,339.66z"/>
	</g>
	<g>
		<path fill="#380D75" d="M486.18,324.88H383.44c-1.38,0-2.5-1.12-2.5-2.5s1.12-2.5,2.5-2.5h102.75c1.38,0,2.5,1.12,2.5,2.5
			S487.57,324.88,486.18,324.88z"/>
	</g>
	<g>
		<path fill="#380D75" d="M448.35,356.45h-25.82c-1.38,0-2.5-1.12-2.5-2.5v-16.79c0-1.38,1.12-2.5,2.5-2.5s2.5,1.12,2.5,2.5v14.29
			h20.82v-6.91c0-1.38,1.12-2.5,2.5-2.5s2.5,1.12,2.5,2.5v9.41C450.85,355.33,449.73,356.45,448.35,356.45z"/>
	</g>
	<g>
		<path fill="#380D75" d="M459.73,365.52h-48.58c-1.38,0-2.5-1.12-2.5-2.5v-2.75c0-4.86,3.96-8.82,8.82-8.82h35.95
			c4.86,0,8.82,3.96,8.82,8.82v2.75C462.23,364.4,461.11,365.52,459.73,365.52z M413.65,360.52h43.58v-0.25
			c0-2.1-1.71-3.82-3.82-3.82h-35.95c-2.1,0-3.82,1.71-3.82,3.82V360.52z"/>
	</g>
	<g>
		<path fill="#38F2AF" d="M434.86,312.47L434.86,312.47c-4.21,0-7.62-3.41-7.62-7.62v-11.68h15.25v11.68
			C442.48,309.06,439.07,312.47,434.86,312.47z"/>
	</g>
	<g>
		<path fill="#380D75" d="M434.81,315.37c-5.8,0-10.51-4.71-10.51-10.51v-24.01c0-1.38,1.12-2.5,2.5-2.5s2.5,1.12,2.5,2.5v24.01
			c0,3.04,2.47,5.51,5.51,5.51s5.51-2.47,5.51-5.51V279.2c0-1.38,1.12-2.5,2.5-2.5s2.5,1.12,2.5,2.5v25.66
			C445.32,310.66,440.61,315.37,434.81,315.37z"/>
	</g>
	<g>
		<path fill="#380D75" d="M446.53,281.7H423.1c-1.38,0-2.5-1.12-2.5-2.5s1.12-2.5,2.5-2.5h23.43c1.38,0,2.5,1.12,2.5,2.5
			S447.91,281.7,446.53,281.7z"/>
	</g>
	<g>
		<path fill="#380D75" d="M442.62,296.07h-15.64c-1.38,0-2.5-1.12-2.5-2.5s1.12-2.5,2.5-2.5h15.64c1.38,0,2.5,1.12,2.5,2.5
			S444,296.07,442.62,296.07z"/>
	</g>
</g>
<g>
	<g>
		<circle fill="#A686FF" cx="254.57" cy="314.5" r="19.54"/>
	</g>
	<g>
		<path fill="#FF9769" d="M241.6,329.11c3.46,3.19,7.99,4.93,12.97,4.93c4.98,0,9.52-1.86,12.97-4.93
			c-3.45-3.07-7.99-4.93-12.97-4.93C249.59,324.18,245.05,326.04,241.6,329.11z"/>
	</g>
	<g>
		<circle fill="#FF9769" cx="254.59" cy="311.99" r="6.25"/>
	</g>
	<g>
		<path fill="#380D75" d="M203.65,337.79c-1,0-1.94-0.6-2.32-1.58c-2.68-6.76-4.04-13.9-4.04-21.23c0-31.77,25.85-57.62,57.62-57.62
			c7.33,0,14.47,1.36,21.23,4.04c1.28,0.51,1.91,1.96,1.4,3.25c-0.51,1.28-1.96,1.91-3.25,1.4c-6.17-2.45-12.69-3.69-19.39-3.69
			c-29.01,0-52.62,23.6-52.62,52.62c0,6.7,1.24,13.22,3.69,19.39c0.51,1.28-0.12,2.74-1.4,3.25
			C204.27,337.73,203.96,337.79,203.65,337.79z"/>
	</g>
	<g>
		<path fill="#380D75" d="M254.9,372.6c-8.85,0-17.34-1.96-25.24-5.81c-1.24-0.61-1.76-2.1-1.15-3.34c0.6-1.24,2.1-1.75,3.34-1.15
			c7.21,3.52,14.96,5.3,23.05,5.3c29.01,0,52.62-23.6,52.62-52.62c0-7.49-1.54-14.72-4.58-21.49c-0.56-1.26,0-2.74,1.26-3.3
			c1.26-0.57,2.74,0,3.3,1.26c3.33,7.42,5.01,15.34,5.01,23.54C312.52,346.75,286.67,372.6,254.9,372.6z"/>
	</g>
	<g>
		<path fill="#380D75" d="M217.04,317.48c-1.38,0-2.5-1.12-2.5-2.5c0-10.78,4.2-20.91,11.82-28.54c15.73-15.74,41.34-15.74,57.07,0
			c1.41,1.42,2.73,2.94,3.91,4.54c0.82,1.11,0.59,2.67-0.52,3.5c-1.11,0.82-2.68,0.59-3.5-0.52c-1.04-1.4-2.19-2.74-3.43-3.98
			c-13.78-13.79-36.22-13.79-50,0c-6.68,6.68-10.36,15.56-10.36,25C219.54,316.36,218.43,317.48,217.04,317.48z"/>
	</g>
	<g>
		<path fill="#380D75" d="M254.9,355.32c-10.33,0-20.67-3.93-28.54-11.8c-1.44-1.44-2.78-2.99-3.98-4.62
			c-0.82-1.11-0.58-2.68,0.53-3.5c1.11-0.82,2.68-0.58,3.5,0.53c1.05,1.43,2.23,2.79,3.49,4.05c13.79,13.79,36.22,13.79,50,0
			c6.68-6.68,10.36-15.56,10.36-25c0-1.38,1.12-2.5,2.5-2.5s2.5,1.12,2.5,2.5c0,10.78-4.2,20.91-11.82,28.54
			C275.57,351.38,265.24,355.32,254.9,355.32z"/>
	</g>
	<g>
		<path fill="#380D75" d="M285.34,294.97h-10.09c-1.38,0-2.5-1.12-2.5-2.5s1.12-2.5,2.5-2.5h7.59v-7.59c0-1.38,1.12-2.5,2.5-2.5
			s2.5,1.12,2.5,2.5v10.09C287.84,293.85,286.72,294.97,285.34,294.97z"/>
	</g>
	<g>
		<path fill="#380D75" d="M224.4,349.97c-1.38,0-2.5-1.12-2.5-2.5v-10.08c0-1.38,1.12-2.5,2.5-2.5h10.09c1.38,0,2.5,1.12,2.5,2.5
			s-1.12,2.5-2.5,2.5h-7.59v7.58C226.9,348.85,225.78,349.97,224.4,349.97z"/>
	</g>
	<g>
		<path fill="#380D75" d="M254.57,336.54c-5.54,0-10.74-1.99-14.66-5.59c-0.52-0.48-0.81-1.15-0.81-1.86
			c0.01-0.71,0.31-1.38,0.84-1.85c4.04-3.59,9.23-5.56,14.63-5.56c5.4,0,10.59,1.98,14.63,5.56c0.53,0.47,0.84,1.15,0.84,1.87
			c0,0.71-0.31,1.39-0.84,1.87C265.16,334.56,259.97,336.54,254.57,336.54z M245.76,329.13c2.57,1.58,5.57,2.4,8.81,2.4
			c3.11,0,6.14-0.85,8.77-2.43c-2.63-1.58-5.66-2.43-8.77-2.43C251.44,326.68,248.4,327.53,245.76,329.13z"/>
	</g>
	<g>
		<path fill="#380D75" d="M254.57,320.52c-4.64,0-8.42-3.78-8.42-8.42c0-4.64,3.77-8.42,8.42-8.42c4.64,0,8.42,3.78,8.42,8.42
			C262.99,316.75,259.21,320.52,254.57,320.52z M254.57,308.69c-1.88,0-3.42,1.53-3.42,3.42c0,1.88,1.53,3.42,3.42,3.42
			c1.88,0,3.42-1.53,3.42-3.42C257.99,310.22,256.45,308.69,254.57,308.69z"/>
	</g>
	<g>
		<path fill="#380D75" d="M271.95,325.93c-0.39,0-0.78-0.09-1.14-0.28c-1.23-0.63-1.71-2.14-1.08-3.37
			c1.25-2.42,1.88-5.04,1.88-7.79c0-9.4-7.64-17.04-17.04-17.04c-9.4,0-17.04,7.64-17.04,17.04c0,2.72,0.62,5.32,1.85,7.73
			c0.63,1.23,0.14,2.74-1.09,3.36c-1.23,0.63-2.74,0.14-3.36-1.09c-1.59-3.12-2.4-6.48-2.4-10c0-12.15,9.89-22.04,22.04-22.04
			c12.15,0,22.04,9.89,22.04,22.04c0,3.5-0.84,6.98-2.44,10.08C273.73,325.44,272.86,325.93,271.95,325.93z"/>
	</g>
</g>
<g>
	<g>
		<path fill="#AFA3C6" d="M372.61,552.33h-52.55c-1.38,0-2.5-1.12-2.5-2.5s1.12-2.5,2.5-2.5h52.55c1.38,0,2.5,1.12,2.5,2.5
			S373.99,552.33,372.61,552.33z"/>
	</g>
	<g>
		<circle fill="#38F2AF" cx="305.89" cy="549.83" r="14.17"/>
	</g>
	<g>
		<path fill="#380D75" d="M305.89,566.51c-9.19,0-16.67-7.48-16.67-16.67c0-9.19,7.48-16.67,16.67-16.67s16.67,7.48,16.67,16.67
			C322.56,559.03,315.08,566.51,305.89,566.51z M305.89,538.16c-6.44,0-11.67,5.24-11.67,11.67s5.24,11.67,11.67,11.67
			s11.67-5.24,11.67-11.67S312.33,538.16,305.89,538.16z"/>
	</g>
	<g>
		<path fill="#380D75" d="M303.88,555.81c-0.64,0-1.28-0.24-1.77-0.73l-2.91-2.91c-0.98-0.98-0.98-2.56,0-3.54
			c0.98-0.98,2.56-0.98,3.54,0l1.15,1.14l5.16-5.16c0.98-0.98,2.56-0.98,3.54,0c0.98,0.98,0.98,2.56,0,3.54l-6.93,6.93
			C305.16,555.57,304.52,555.81,303.88,555.81z"/>
	</g>
	<g>
		<circle fill="#38F2AF" cx="386.78" cy="549.83" r="14.17"/>
	</g>
	<g>
		<path fill="#380D75" d="M386.78,566.51c-9.19,0-16.67-7.48-16.67-16.67c0-9.19,7.48-16.67,16.67-16.67s16.67,7.48,16.67,16.67
			C403.46,559.03,395.98,566.51,386.78,566.51z M386.78,538.16c-6.44,0-11.67,5.24-11.67,11.67s5.24,11.67,11.67,11.67
			c6.44,0,11.67-5.24,11.67-11.67S393.22,538.16,386.78,538.16z"/>
	</g>
	<g>
		<path fill="#380D75" d="M384.77,555.81c-0.64,0-1.28-0.24-1.77-0.73l-2.91-2.91c-0.98-0.98-0.98-2.56,0-3.54
			c0.98-0.98,2.56-0.98,3.54,0l1.15,1.14l5.16-5.16c0.98-0.98,2.56-0.98,3.54,0c0.98,0.98,0.98,2.56,0,3.54l-6.93,6.93
			C386.05,555.57,385.41,555.81,384.77,555.81z"/>
	</g>
	<g>
		<circle fill="#38F2AF" cx="346.34" cy="549.83" r="14.17"/>
	</g>
	<g>
		<path fill="#380D75" d="M346.34,566.51c-9.19,0-16.67-7.48-16.67-16.67c0-9.19,7.48-16.67,16.67-16.67s16.67,7.48,16.67,16.67
			C363.01,559.03,355.53,566.51,346.34,566.51z M346.34,538.16c-6.44,0-11.67,5.24-11.67,11.67s5.24,11.67,11.67,11.67
			c6.44,0,11.67-5.24,11.67-11.67S352.77,538.16,346.34,538.16z"/>
	</g>
	<g>
		<path fill="#380D75" d="M344.33,555.81c-0.64,0-1.28-0.24-1.77-0.73l-2.91-2.91c-0.98-0.98-0.98-2.56,0-3.54
			c0.98-0.98,2.56-0.98,3.54,0l1.15,1.14l5.16-5.16c0.98-0.98,2.56-0.98,3.54,0c0.98,0.98,0.98,2.56,0,3.54l-6.93,6.93
			C345.61,555.57,344.97,555.81,344.33,555.81z"/>
	</g>
	<g>
		<path fill="#FC6D26" d="M346.79,521.85l14.93-11.01c0.41-0.31,0.58-0.85,0.43-1.34l-5.14-16.08c-0.18-0.55-0.95-0.55-1.12,0
			l-3.42,10.68h0v0l-11.35,0.01l-3.42-10.69c-0.18-0.55-0.94-0.55-1.12,0l-5.14,16.08c-0.16,0.49,0.01,1.03,0.43,1.34L346.79,521.85
			"/>
	</g>
	<g>
		<path fill="#380D75" d="M345.89,524.35c-0.52,0-1.04-0.16-1.48-0.49l-14.94-11.01c-1.28-0.94-1.81-2.59-1.32-4.11l5.14-16.08
			c0.43-1.3,1.61-2.15,2.94-2.15c0.01,0,0.01,0,0.02,0c1.34,0.01,2.51,0.87,2.92,2.15l2.87,8.95l7.7,0l2.86-8.95
			c0.41-1.28,1.58-2.14,2.92-2.15c0.01,0,0.01,0,0.02,0c1.33,0,2.51,0.85,2.94,2.12l5.15,16.11c0.48,1.51-0.05,3.16-1.32,4.11
			l-14.93,11.02C346.93,524.19,346.41,524.35,345.89,524.35z M333.19,509.38l12.7,9.36l12.69-9.36l-3.04-9.5l-1.59,4.99
			c-0.33,1.04-1.29,1.74-2.38,1.74l-11.35,0.01c0,0,0,0,0,0c-1.09,0-2.05-0.7-2.38-1.74l-1.6-5L333.19,509.38z"/>
	</g>
</g>
<g>
	<path fill="#341472" d="M38.12,136.8c0-3.34,2.12-5.32,4.84-5.32c1.45,0,2.45,0.62,3.09,1.3l-0.98,1.14
		c-0.52-0.5-1.11-0.81-2.04-0.81c-1.8,0-3,1.37-3,3.65c0,2.29,1.06,3.7,3.11,3.7c0.55,0,1.09-0.16,1.41-0.44v-2.17h-1.89v-1.51h3.56
		v4.51c-0.69,0.69-1.87,1.22-3.26,1.22C40.18,142.06,38.12,140.18,38.12,136.8z"/>
	<path fill="#341472" d="M48.5,131.66h1.86v10.21H48.5V131.66z"/>
	<path fill="#341472" d="M55,133.22h-2.93v-1.56h7.73v1.56h-2.93v8.65H55V133.22z"/>
	<path fill="#341472" d="M61.53,131.66h1.86v8.65h4.21v1.56h-6.07V131.66z"/>
	<path fill="#341472" d="M71.39,131.66h2.19l3.31,10.21h-1.97l-0.78-2.73h-3.39l-0.78,2.73h-1.89L71.39,131.66z M71.17,137.69h2.56
		l-0.34-1.22c-0.33-1.08-0.62-2.25-0.92-3.36h-0.06c-0.27,1.12-0.56,2.28-0.89,3.36L71.17,137.69z"/>
	<path fill="#341472" d="M78.18,131.66h3.28c2.11,0,3.65,0.64,3.65,2.51c0,0.97-0.53,1.9-1.41,2.22v0.06
		c1.12,0.25,1.95,1.05,1.95,2.42c0,2.04-1.69,3-3.93,3h-3.54V131.66z M81.3,135.86c1.39,0,2-0.55,2-1.42c0-0.97-0.66-1.33-1.97-1.33
		h-1.3v2.75H81.3z M81.54,140.42c1.48,0,2.29-0.52,2.29-1.65c0-1.05-0.8-1.51-2.29-1.51h-1.5v3.17H81.54z"/>
	<path fill="#341472" d="M19.98,148.31h3.45c2.14,0,3.78,0.75,3.78,3.04c0,1.55-0.8,2.5-2.01,2.92l2.42,4.25h-2.08l-2.19-3.96h-1.51
		v3.96h-1.86V148.31z M23.25,153.07c1.39,0,2.14-0.58,2.14-1.72c0-1.15-0.75-1.56-2.14-1.56h-1.4v3.28H23.25z"/>
	<path fill="#341472" d="M29.28,148.31h6.17v1.56h-4.31v2.56h3.65v1.56h-3.65v2.97h4.46v1.56h-6.32V148.31z"/>
	<path fill="#341472" d="M37.73,148.31h3.23c2.26,0,3.96,0.8,3.96,3.17c0,2.28-1.7,3.31-3.9,3.31h-1.44v3.73h-1.86V148.31z
		 M40.88,153.3c1.5,0,2.2-0.59,2.2-1.83c0-1.25-0.78-1.69-2.26-1.69h-1.23v3.51H40.88z"/>
	<path fill="#341472" d="M46.33,153.37c0-3.29,1.84-5.24,4.51-5.24c2.67,0,4.51,1.95,4.51,5.24c0,3.31-1.84,5.34-4.51,5.34
		C48.17,158.71,46.33,156.68,46.33,153.37z M53.44,153.37c0-2.26-1.03-3.62-2.61-3.62c-1.59,0-2.61,1.36-2.61,3.62
		c0,2.28,1.01,3.73,2.61,3.73C52.41,157.1,53.44,155.65,53.44,153.37z"/>
	<path fill="#341472" d="M56.72,157.21l1-1.22c0.73,0.7,1.75,1.11,2.73,1.11c1.12,0,1.75-0.52,1.75-1.3c0-0.81-0.66-1.08-1.58-1.47
		l-1.39-0.61c-1.01-0.42-2.06-1.22-2.06-2.7c0-1.64,1.44-2.9,3.43-2.9c1.23,0,2.37,0.5,3.17,1.26l-1,1.22
		c-0.64-0.55-1.39-0.86-2.17-0.86c-0.95,0-1.56,0.44-1.56,1.17c0,0.78,0.77,1.06,1.61,1.42l1.37,0.56c1.22,0.52,2.06,1.28,2.06,2.76
		c0,1.65-1.37,3.04-3.68,3.04C59,158.71,57.69,158.19,56.72,157.21z"/>
	<path fill="#341472" d="M65.98,148.31h1.86v10.21h-1.86V148.31z"/>
	<path fill="#341472" d="M72.48,149.87h-2.93v-1.56h7.73v1.56h-2.93v8.65h-1.86V149.87z"/>
	<path fill="#341472" d="M78.07,153.37c0-3.29,1.84-5.24,4.51-5.24c2.67,0,4.51,1.95,4.51,5.24c0,3.31-1.84,5.34-4.51,5.34
		C79.91,158.71,78.07,156.68,78.07,153.37z M85.19,153.37c0-2.26-1.03-3.62-2.61-3.62c-1.59,0-2.61,1.36-2.61,3.62
		c0,2.28,1.01,3.73,2.61,3.73C84.16,157.1,85.19,155.65,85.19,153.37z"/>
	<path fill="#341472" d="M89.17,148.31h3.45c2.14,0,3.78,0.75,3.78,3.04c0,1.55-0.8,2.5-2.01,2.92l2.42,4.25h-2.08l-2.19-3.96h-1.51
		v3.96h-1.86V148.31z M92.43,153.07c1.39,0,2.14-0.58,2.14-1.72c0-1.15-0.75-1.56-2.14-1.56h-1.4v3.28H92.43z"/>
	<path fill="#341472" d="M100.03,154.74l-3.08-6.43h1.98l1.09,2.59c0.3,0.75,0.59,1.47,0.91,2.25H101c0.33-0.78,0.64-1.5,0.94-2.25
		l1.09-2.59h1.94l-3.08,6.43v3.78h-1.86V154.74z"/>
</g>
<g>
	<path fill="#341472" d="M20.68,381.73h2.73c3.12,0,5,1.67,5,5.06c0,3.4-1.87,5.15-4.9,5.15h-2.83V381.73z M23.29,390.44
		c2.03,0,3.2-1.14,3.2-3.65c0-2.5-1.17-3.54-3.2-3.54h-0.75v7.2H23.29z"/>
	<path fill="#341472" d="M30.48,381.73h1.86v10.21h-1.86V381.73z"/>
	<path fill="#341472" d="M34.24,390.63l1-1.22c0.73,0.7,1.75,1.11,2.73,1.11c1.12,0,1.75-0.51,1.75-1.3c0-0.81-0.66-1.08-1.58-1.47
		l-1.39-0.61c-1.01-0.42-2.06-1.22-2.06-2.7c0-1.64,1.44-2.9,3.43-2.9c1.23,0,2.37,0.5,3.17,1.26l-1,1.22
		c-0.64-0.55-1.39-0.86-2.17-0.86c-0.95,0-1.56,0.44-1.56,1.17c0,0.78,0.77,1.06,1.61,1.42l1.37,0.56c1.22,0.52,2.06,1.28,2.06,2.76
		c0,1.65-1.37,3.04-3.68,3.04C36.52,392.13,35.21,391.61,34.24,390.63z"/>
	<path fill="#341472" d="M43.48,381.73h2.19l1.75,5c0.22,0.66,0.41,1.25,0.59,2h0.06c0.19-0.75,0.34-1.34,0.56-2l1.75-5h2.19v10.21
		h-1.72v-4.65c0-0.97,0.16-2.37,0.28-3.31h-0.06l-0.81,2.47l-1.65,4.56h-1.22l-1.62-4.56l-0.81-2.47h-0.06
		c0.12,0.94,0.28,2.34,0.28,3.31v4.65h-1.69V381.73z"/>
	<path fill="#341472" d="M55.17,381.73h1.86v10.21h-1.86V381.73z"/>
	<path fill="#341472" d="M58.93,390.63l1-1.22c0.73,0.7,1.75,1.11,2.73,1.11c1.12,0,1.75-0.51,1.75-1.3c0-0.81-0.66-1.08-1.58-1.47
		l-1.39-0.61c-1.01-0.42-2.06-1.22-2.06-2.7c0-1.64,1.44-2.9,3.43-2.9c1.23,0,2.37,0.5,3.17,1.26l-1,1.22
		c-0.64-0.55-1.39-0.86-2.17-0.86c-0.95,0-1.56,0.44-1.56,1.17c0,0.78,0.77,1.06,1.61,1.42l1.37,0.56c1.22,0.52,2.06,1.28,2.06,2.76
		c0,1.65-1.37,3.04-3.68,3.04C61.21,392.13,59.9,391.61,58.93,390.63z"/>
	<path fill="#341472" d="M67.23,390.63l1-1.22c0.73,0.7,1.75,1.11,2.73,1.11c1.12,0,1.75-0.51,1.75-1.3c0-0.81-0.66-1.08-1.58-1.47
		l-1.39-0.61c-1.01-0.42-2.06-1.22-2.06-2.7c0-1.64,1.44-2.9,3.43-2.9c1.23,0,2.37,0.5,3.17,1.26l-1,1.22
		c-0.64-0.55-1.39-0.86-2.17-0.86c-0.95,0-1.56,0.44-1.56,1.17c0,0.78,0.77,1.06,1.61,1.42l1.37,0.56c1.22,0.52,2.06,1.28,2.06,2.76
		c0,1.65-1.37,3.04-3.68,3.04C69.51,392.13,68.2,391.61,67.23,390.63z"/>
	<path fill="#341472" d="M79.11,386.79c0-3.29,1.84-5.25,4.51-5.25c2.67,0,4.51,1.95,4.51,5.25c0,3.31-1.84,5.34-4.51,5.34
		C80.95,392.13,79.11,390.1,79.11,386.79z M86.23,386.79c0-2.26-1.03-3.62-2.61-3.62c-1.59,0-2.61,1.36-2.61,3.62
		c0,2.28,1.01,3.73,2.61,3.73C85.2,390.52,86.23,389.07,86.23,386.79z"/>
	<path fill="#341472" d="M90.21,381.73h3.45c2.14,0,3.78,0.75,3.78,3.04c0,1.54-0.8,2.5-2.01,2.92l2.42,4.25h-2.08l-2.19-3.96h-1.51
		v3.96h-1.86V381.73z M93.47,386.49c1.39,0,2.14-0.58,2.14-1.72c0-1.16-0.75-1.56-2.14-1.56h-1.4v3.28H93.47z"/>
	<path fill="#341472" d="M12.2,403.51c0-3.34,2.09-5.32,4.68-5.32c1.28,0,2.31,0.59,2.95,1.29l-0.98,1.14
		c-0.53-0.51-1.14-0.81-1.94-0.81c-1.62,0-2.81,1.37-2.81,3.65c0,2.29,1.08,3.7,2.78,3.7c0.89,0,1.59-0.36,2.15-0.98l1,1.11
		c-0.86,0.98-1.92,1.48-3.23,1.48C14.24,408.78,12.2,406.9,12.2,403.51z"/>
	<path fill="#341472" d="M21.76,398.38h3.45c2.14,0,3.78,0.75,3.78,3.04c0,1.55-0.8,2.5-2.01,2.92l2.42,4.25h-2.08l-2.19-3.96h-1.51
		v3.96h-1.86V398.38z M25.03,403.14c1.39,0,2.14-0.58,2.14-1.72c0-1.15-0.75-1.56-2.14-1.56h-1.4v3.28H25.03z"/>
	<path fill="#341472" d="M31.07,398.38h6.17v1.56h-4.31v2.56h3.65v1.56h-3.65v2.97h4.46v1.56h-6.32V398.38z"/>
	<path fill="#341472" d="M41.49,398.38h2.19l3.31,10.21h-1.97l-0.78-2.73h-3.39l-0.78,2.73h-1.89L41.49,398.38z M41.27,404.4h2.56
		l-0.34-1.22c-0.33-1.08-0.62-2.25-0.92-3.36h-0.06c-0.27,1.12-0.56,2.28-0.89,3.36L41.27,404.4z"/>
	<path fill="#341472" d="M49.31,399.94h-2.93v-1.56h7.73v1.56h-2.93v8.65h-1.86V399.94z"/>
	<path fill="#341472" d="M55.83,398.38H62v1.56h-4.31v2.56h3.65v1.56h-3.65v2.97h4.46v1.56h-6.32V398.38z"/>
	<path fill="#341472" d="M67.43,398.38h1.86v10.21h-1.86V398.38z"/>
	<path fill="#341472" d="M71.19,407.28l1-1.22c0.73,0.7,1.75,1.11,2.73,1.11c1.12,0,1.75-0.52,1.75-1.3c0-0.81-0.66-1.08-1.58-1.47
		l-1.39-0.61c-1.01-0.42-2.06-1.22-2.06-2.7c0-1.64,1.44-2.9,3.43-2.9c1.23,0,2.37,0.5,3.17,1.26l-1,1.22
		c-0.64-0.55-1.39-0.86-2.17-0.86c-0.95,0-1.56,0.44-1.56,1.17c0,0.78,0.77,1.06,1.61,1.42l1.37,0.56c1.22,0.51,2.06,1.28,2.06,2.76
		c0,1.65-1.37,3.04-3.68,3.04C73.47,408.78,72.16,408.26,71.19,407.28z"/>
	<path fill="#341472" d="M79.49,407.28l1-1.22c0.73,0.7,1.75,1.11,2.73,1.11c1.12,0,1.75-0.52,1.75-1.3c0-0.81-0.66-1.08-1.58-1.47
		l-1.39-0.61c-1.01-0.42-2.06-1.22-2.06-2.7c0-1.64,1.44-2.9,3.43-2.9c1.23,0,2.37,0.5,3.17,1.26l-1,1.22
		c-0.64-0.55-1.39-0.86-2.17-0.86c-0.95,0-1.56,0.44-1.56,1.17c0,0.78,0.77,1.06,1.61,1.42l1.37,0.56c1.22,0.51,2.06,1.28,2.06,2.76
		c0,1.65-1.37,3.04-3.68,3.04C81.77,408.78,80.46,408.26,79.49,407.28z"/>
	<path fill="#341472" d="M88.69,404.09v-5.71h1.86v5.85c0,2.2,0.81,2.93,2.04,2.93c1.23,0,2.08-0.73,2.08-2.93v-5.85h1.79v5.71
		c0,3.36-1.48,4.68-3.87,4.68C90.2,408.78,88.69,407.45,88.69,404.09z"/>
	<path fill="#341472" d="M99.02,398.38h6.17v1.56h-4.31v2.56h3.65v1.56h-3.65v2.97h4.46v1.56h-6.32V398.38z"/>
</g>
<g>
	<g>
		<g>
			<circle fill="#38F2AF" cx="785.4" cy="354.77" r="19.93"/>
		</g>
		<g>
			<path fill="#380D75" d="M782.29,362.63c-0.64,0-1.28-0.24-1.77-0.73l-4.5-4.5c-0.98-0.98-0.98-2.56,0-3.54s2.56-0.98,3.54,0
				l2.74,2.74l8.95-8.95c0.98-0.98,2.56-0.98,3.54,0s0.98,2.56,0,3.54l-10.72,10.72C783.57,362.39,782.93,362.63,782.29,362.63z"/>
		</g>
		<g>
			<path fill="#380D75" d="M785.4,377.2c-12.37,0-22.43-10.06-22.43-22.43s10.06-22.43,22.43-22.43s22.43,10.06,22.43,22.43
				S797.77,377.2,785.4,377.2z M785.4,337.34c-9.61,0-17.43,7.82-17.43,17.43s7.82,17.43,17.43,17.43s17.43-7.82,17.43-17.43
				S795.01,337.34,785.4,337.34z"/>
		</g>
	</g>
	<g>
		<g>
			<circle fill="#FF675F" cx="724.41" cy="354.77" r="19.93"/>
		</g>
		<g>
			<path fill="#380D75" d="M724.41,377.2c-12.37,0-22.43-10.06-22.43-22.43s10.06-22.43,22.43-22.43s22.43,10.06,22.43,22.43
				S736.78,377.2,724.41,377.2z M724.41,337.34c-9.61,0-17.43,7.82-17.43,17.43s7.82,17.43,17.43,17.43s17.43-7.82,17.43-17.43
				S734.03,337.34,724.41,337.34z"/>
		</g>
		<g>
			<path fill="#380D75" d="M719.06,362.63c-0.64,0-1.28-0.24-1.77-0.73c-0.98-0.98-0.98-2.56,0-3.54L728,347.65
				c0.98-0.98,2.56-0.98,3.54,0s0.98,2.56,0,3.54l-10.72,10.72C720.33,362.39,719.69,362.63,719.06,362.63z"/>
		</g>
		<g>
			<path fill="#380D75" d="M729.77,362.63c-0.64,0-1.28-0.24-1.77-0.73l-10.72-10.72c-0.98-0.98-0.98-2.56,0-3.54s2.56-0.98,3.54,0
				l10.72,10.72c0.98,0.98,0.98,2.56,0,3.54C731.05,362.39,730.41,362.63,729.77,362.63z"/>
		</g>
	</g>
	<g>
		<g>
			<g>
				<g id="g48_16_" transform="translate(155.197863, 1.160267)">
					<g id="path50_16_">
						<path fill="#E24329" d="M599.35,329.08L599.35,329.08l12.16-37.19h-24.33L599.35,329.08L599.35,329.08z"/>
					</g>
				</g>
				<g id="g56_16_" transform="translate(28.531199, 1.160800)">
					<g id="path58_16_">
						<path fill="#FC6D26" d="M726.01,329.08l-12.16-37.19h-17.03L726.01,329.08L726.01,329.08z"/>
					</g>
				</g>
				<g id="g72_16_" transform="translate(29.421866, 280.255593)">
					<g id="path74_16_">
						<path fill="#E24329" d="M695.92,12.81h17.05l-7.34-22.4c-0.38-1.15-2.01-1.15-2.4,0L695.92,12.81L695.92,12.81z"/>
					</g>
				</g>
				<g id="g76_16_" transform="translate(247.197860, 1.160800)">
					<g id="path78_16_">
						<path fill="#FC6D26" d="M507.35,329.08l12.16-37.19h17.05L507.35,329.08L507.35,329.08z"/>
					</g>
				</g>
				<g id="g80_20_" transform="translate(246.307061, 0.255867)">
					<g id="path82_20_">
						<path fill="#FCA326" d="M537.44,292.81L537.44,292.81l3.7,11.3c0.34,1.03-0.03,2.16-0.91,2.8l-31.99,23.08L537.44,292.81
							L537.44,292.81z"/>
					</g>
				</g>
				<g id="g80_8_" transform="translate(246.307061, 0.255867)">
					<g id="path82_8_">
						<path fill="#FCA326" d="M479.05,292.81L479.05,292.81l-3.7,11.3c-0.34,1.03,0.03,2.16,0.91,2.8l31.99,23.08L479.05,292.81
							L479.05,292.81z"/>
					</g>
				</g>
				<g id="g84_16_" transform="translate(336.973725, 280.255593)">
					<g id="path86_16_">
						<path fill="#E24329" d="M446.78,12.81h-17.05l7.32-22.4c0.38-1.15,2.01-1.15,2.4,0L446.78,12.81L446.78,12.81z"/>
					</g>
				</g>
			</g>
		</g>
		<g>
			<g>
				<g>
					<g id="g48_7_" transform="translate(155.197863, 1.160267)">
						<g id="path50_7_">
							<path fill="#380D75" d="M599.71,332.12c-1.08,0-2.04-0.69-2.38-1.72l-12.45-37.85c-0.25-0.76-0.12-1.6,0.35-2.25
								c0.47-0.65,1.22-1.03,2.03-1.03h24.9c0.8,0,1.55,0.38,2.03,1.03c0.47,0.65,0.6,1.49,0.35,2.25l-12.45,37.85
								C601.75,331.42,600.79,332.12,599.71,332.12z M590.72,294.26l9,27.35l9-27.35H590.72z"/>
						</g>
					</g>
					<g id="g56_7_" transform="translate(28.531199, 1.160800)">
						<g id="path58_7_">
							<path fill="#380D75" d="M726.37,332.12c-0.74,0-1.48-0.33-1.96-0.95l-29.88-37.85c-0.59-0.75-0.71-1.78-0.29-2.64
								c0.42-0.86,1.29-1.41,2.25-1.41h17.43c1.08,0,2.04,0.69,2.38,1.72l12.45,37.85c0.38,1.15-0.12,2.41-1.19,2.98
								C727.18,332.02,726.77,332.12,726.37,332.12z M701.65,294.26l17.94,22.72l-7.47-22.72H701.65z"/>
						</g>
					</g>
					<g id="g64_7_" transform="translate(0.088533, 0.255867)">
						<g id="path66_7_">
							<path fill="#380D75" d="M754.81,333.03c-0.51,0-1.02-0.15-1.46-0.47l-32.74-23.5c-1.79-1.29-2.54-3.56-1.85-5.66l3.79-11.5
								c0.29-0.87,1.03-1.52,1.94-1.68c0.91-0.16,1.83,0.19,2.4,0.91l29.88,37.85c0.77,0.98,0.71,2.38-0.15,3.28
								C756.13,332.77,755.47,333.03,754.81,333.03z M725.85,297.88l-2.33,7.08l18.32,13.16L725.85,297.88z"/>
						</g>
					</g>
					<g id="g72_7_" transform="translate(29.421866, 280.255593)">
						<g id="path74_7_">
							<path fill="#380D75" d="M713.04,15.18H695.6c-0.8,0-1.55-0.38-2.02-1.03c-0.47-0.65-0.6-1.48-0.35-2.25l7.48-22.8
								c0.54-1.57,2.03-2.58,3.63-2.6c1.63,0.01,3.07,1.05,3.58,2.59l7.51,22.8c0.25,0.76,0.12,1.6-0.35,2.25
								C714.6,14.8,713.85,15.18,713.04,15.18z M699.05,10.18h10.54l-5.28-16.03L699.05,10.18z"/>
						</g>
					</g>
					<g id="g76_7_" transform="translate(247.197860, 1.160800)">
						<g id="path78_7_">
							<path fill="#380D75" d="M507.71,332.12c-0.4,0-0.81-0.1-1.18-0.3c-1.07-0.57-1.57-1.83-1.19-2.98l12.45-37.85
								c0.34-1.03,1.29-1.72,2.38-1.72h17.45c0.96,0,1.83,0.55,2.25,1.41s0.31,1.89-0.29,2.64l-29.89,37.85
								C509.19,331.78,508.46,332.12,507.71,332.12z M521.97,294.26l-7.48,22.73l17.95-22.73H521.97z"/>
						</g>
					</g>
					<g id="g80_7_" transform="translate(246.307061, 0.255867)">
						<g id="path82_7_">
							<path fill="#380D75" d="M508.61,333.02c-0.66,0-1.32-0.26-1.81-0.77c-0.86-0.9-0.93-2.3-0.15-3.28l29.88-37.84
								c0.57-0.72,1.49-1.07,2.4-0.91c0.91,0.16,1.65,0.81,1.94,1.68l3.79,11.5c0.69,2.1-0.05,4.37-1.85,5.66l-32.74,23.49
								C509.62,332.87,509.11,333.02,508.61,333.02z M537.56,297.89l-16,20.26L539.88,305L537.56,297.89z"/>
						</g>
					</g>
					<g id="g84_7_" transform="translate(336.973725, 280.255593)">
						<g id="path86_7_">
							<path fill="#380D75" d="M447.83,15.18h-17.45c-0.8,0-1.55-0.38-2.03-1.03c-0.47-0.65-0.6-1.48-0.35-2.25l7.49-22.8
								c0.51-1.54,1.94-2.59,3.58-2.59c0.01,0,0.01,0,0.02,0c1.63,0,3.08,1.03,3.6,2.57l7.5,22.83c0.25,0.76,0.12,1.6-0.35,2.25
								C449.38,14.8,448.63,15.18,447.83,15.18z M433.84,10.18h10.54l-5.27-16.03L433.84,10.18z"/>
						</g>
					</g>
				</g>
			</g>
		</g>
	</g>
</g>
<g>
	<path fill="#341472" d="M716.44,388.74h2.73c3.12,0,5,1.67,5,5.06c0,3.4-1.87,5.15-4.9,5.15h-2.83V388.74z M719.04,397.45
		c2.03,0,3.2-1.14,3.2-3.65c0-2.5-1.17-3.54-3.2-3.54h-0.75v7.2H719.04z"/>
	<path fill="#341472" d="M726.24,388.74h1.86v10.21h-1.86V388.74z"/>
	<path fill="#341472" d="M730,397.64l1-1.22c0.73,0.7,1.75,1.11,2.73,1.11c1.12,0,1.75-0.51,1.75-1.3c0-0.81-0.66-1.08-1.58-1.47
		l-1.39-0.61c-1.01-0.42-2.06-1.22-2.06-2.7c0-1.64,1.44-2.9,3.43-2.9c1.23,0,2.37,0.5,3.17,1.26l-1,1.22
		c-0.64-0.55-1.39-0.86-2.17-0.86c-0.95,0-1.56,0.44-1.56,1.17c0,0.78,0.76,1.06,1.61,1.42l1.37,0.56c1.22,0.52,2.06,1.28,2.06,2.76
		c0,1.65-1.37,3.04-3.68,3.04C732.28,399.14,730.97,398.62,730,397.64z"/>
	<path fill="#341472" d="M739.24,388.74h2.19l1.75,5c0.22,0.66,0.41,1.25,0.59,2h0.06c0.19-0.75,0.34-1.34,0.56-2l1.75-5h2.19v10.21
		h-1.72v-4.65c0-0.97,0.16-2.37,0.28-3.31h-0.06l-0.81,2.47l-1.65,4.56h-1.22l-1.62-4.56l-0.81-2.47h-0.06
		c0.12,0.94,0.28,2.34,0.28,3.31v4.65h-1.69V388.74z"/>
	<path fill="#341472" d="M750.93,388.74h1.86v10.21h-1.86V388.74z"/>
	<path fill="#341472" d="M754.69,397.64l1-1.22c0.73,0.7,1.75,1.11,2.73,1.11c1.12,0,1.75-0.51,1.75-1.3c0-0.81-0.66-1.08-1.58-1.47
		l-1.39-0.61c-1.01-0.42-2.06-1.22-2.06-2.7c0-1.64,1.44-2.9,3.43-2.9c1.23,0,2.37,0.5,3.17,1.26l-1,1.22
		c-0.64-0.55-1.39-0.86-2.17-0.86c-0.95,0-1.56,0.44-1.56,1.17c0,0.78,0.77,1.06,1.61,1.42l1.37,0.56c1.22,0.52,2.06,1.28,2.06,2.76
		c0,1.65-1.37,3.04-3.68,3.04C756.97,399.14,755.66,398.62,754.69,397.64z"/>
	<path fill="#341472" d="M762.99,397.64l1-1.22c0.73,0.7,1.75,1.11,2.73,1.11c1.12,0,1.75-0.51,1.75-1.3c0-0.81-0.66-1.08-1.58-1.47
		l-1.39-0.61c-1.01-0.42-2.06-1.22-2.06-2.7c0-1.64,1.44-2.9,3.43-2.9c1.23,0,2.37,0.5,3.17,1.26l-1,1.22
		c-0.64-0.55-1.39-0.86-2.17-0.86c-0.95,0-1.56,0.44-1.56,1.17c0,0.78,0.77,1.06,1.61,1.42l1.37,0.56c1.22,0.52,2.06,1.28,2.06,2.76
		c0,1.65-1.37,3.04-3.68,3.04C765.27,399.14,763.96,398.62,762.99,397.64z"/>
	<path fill="#341472" d="M774.87,393.8c0-3.29,1.84-5.25,4.51-5.25s4.51,1.95,4.51,5.25c0,3.31-1.84,5.34-4.51,5.34
		S774.87,397.11,774.87,393.8z M781.98,393.8c0-2.26-1.03-3.62-2.61-3.62c-1.59,0-2.61,1.36-2.61,3.62c0,2.28,1.01,3.73,2.61,3.73
		C780.95,397.53,781.98,396.08,781.98,393.8z"/>
	<path fill="#341472" d="M785.96,388.74h3.45c2.14,0,3.78,0.75,3.78,3.04c0,1.54-0.8,2.5-2.01,2.92l2.42,4.25h-2.08l-2.18-3.96
		h-1.51v3.96h-1.86V388.74z M789.23,393.5c1.39,0,2.14-0.58,2.14-1.72c0-1.16-0.75-1.56-2.14-1.56h-1.41v3.28H789.23z"/>
	<path fill="#341472" d="M707.95,410.52c0-3.34,2.09-5.32,4.68-5.32c1.28,0,2.31,0.59,2.95,1.29l-0.98,1.14
		c-0.53-0.51-1.14-0.81-1.94-0.81c-1.62,0-2.81,1.37-2.81,3.65c0,2.29,1.08,3.7,2.78,3.7c0.89,0,1.59-0.36,2.15-0.98l1,1.11
		c-0.86,0.98-1.92,1.48-3.23,1.48C710,415.78,707.95,413.91,707.95,410.52z"/>
	<path fill="#341472" d="M717.52,405.39h3.45c2.14,0,3.78,0.75,3.78,3.04c0,1.55-0.8,2.5-2.01,2.92l2.42,4.25h-2.08l-2.18-3.96
		h-1.51v3.96h-1.86V405.39z M720.78,410.15c1.39,0,2.14-0.58,2.14-1.72c0-1.15-0.75-1.56-2.14-1.56h-1.41v3.28H720.78z"/>
	<path fill="#341472" d="M726.82,405.39h6.17v1.56h-4.31v2.56h3.65v1.56h-3.65v2.97h4.46v1.56h-6.32V405.39z"/>
	<path fill="#341472" d="M737.25,405.39h2.19l3.31,10.21h-1.97l-0.78-2.73h-3.39l-0.78,2.73h-1.89L737.25,405.39z M737.03,411.41
		h2.56l-0.34-1.22c-0.33-1.08-0.62-2.25-0.92-3.36h-0.06c-0.27,1.12-0.56,2.28-0.89,3.36L737.03,411.41z"/>
	<path fill="#341472" d="M745.07,406.95h-2.93v-1.56h7.73v1.56h-2.93v8.65h-1.86V406.95z"/>
	<path fill="#341472" d="M751.59,405.39h6.17v1.56h-4.31v2.56h3.65v1.56h-3.65v2.97h4.46v1.56h-6.32V405.39z"/>
	<path fill="#341472" d="M763.19,405.39h1.86v10.21h-1.86V405.39z"/>
	<path fill="#341472" d="M766.95,414.28l1-1.22c0.73,0.7,1.75,1.11,2.73,1.11c1.12,0,1.75-0.52,1.75-1.3c0-0.81-0.66-1.08-1.58-1.47
		l-1.39-0.61c-1.01-0.42-2.06-1.22-2.06-2.7c0-1.64,1.44-2.9,3.43-2.9c1.23,0,2.37,0.5,3.17,1.26l-1,1.22
		c-0.64-0.55-1.39-0.86-2.17-0.86c-0.95,0-1.56,0.44-1.56,1.17c0,0.78,0.77,1.06,1.61,1.42l1.37,0.56c1.22,0.51,2.06,1.28,2.06,2.76
		c0,1.65-1.37,3.04-3.68,3.04C769.23,415.78,767.92,415.27,766.95,414.28z"/>
	<path fill="#341472" d="M775.25,414.28l1-1.22c0.73,0.7,1.75,1.11,2.73,1.11c1.12,0,1.75-0.52,1.75-1.3c0-0.81-0.66-1.08-1.58-1.47
		l-1.39-0.61c-1.01-0.42-2.06-1.22-2.06-2.7c0-1.64,1.44-2.9,3.43-2.9c1.23,0,2.37,0.5,3.17,1.26l-1,1.22
		c-0.64-0.55-1.39-0.86-2.17-0.86c-0.95,0-1.56,0.44-1.56,1.17c0,0.78,0.77,1.06,1.61,1.42l1.37,0.56c1.22,0.51,2.06,1.28,2.06,2.76
		c0,1.65-1.37,3.04-3.68,3.04C777.53,415.78,776.22,415.27,775.25,414.28z"/>
	<path fill="#341472" d="M784.44,411.1v-5.71h1.86v5.85c0,2.2,0.81,2.93,2.04,2.93s2.08-0.73,2.08-2.93v-5.85h1.79v5.71
		c0,3.36-1.48,4.68-3.87,4.68S784.44,414.45,784.44,411.1z"/>
	<path fill="#341472" d="M794.77,405.39h6.17v1.56h-4.31v2.56h3.65v1.56h-3.65v2.97h4.46v1.56h-6.32V405.39z"/>
</g>
<g>
	<path fill="#341472" d="M313.18,136.06c0-3.34,2.12-5.32,4.84-5.32c1.45,0,2.45,0.62,3.09,1.3l-0.98,1.14
		c-0.52-0.5-1.11-0.81-2.04-0.81c-1.8,0-3,1.37-3,3.65c0,2.29,1.06,3.7,3.11,3.7c0.55,0,1.09-0.16,1.41-0.44v-2.17h-1.89v-1.51h3.56
		v4.51c-0.69,0.69-1.87,1.22-3.26,1.22C315.24,141.32,313.18,139.44,313.18,136.06z"/>
	<path fill="#341472" d="M323.56,130.92h1.86v10.21h-1.86V130.92z"/>
	<path fill="#341472" d="M330.06,132.48h-2.93v-1.56h7.73v1.56h-2.93v8.65h-1.86V132.48z"/>
	<path fill="#341472" d="M336.59,130.92h1.86v8.65h4.21v1.56h-6.07V130.92z"/>
	<path fill="#341472" d="M346.45,130.92h2.19l3.31,10.21h-1.97l-0.78-2.73h-3.39l-0.78,2.73h-1.89L346.45,130.92z M346.23,136.94
		h2.56l-0.34-1.22c-0.33-1.08-0.62-2.25-0.92-3.36h-0.06c-0.27,1.12-0.56,2.28-0.89,3.36L346.23,136.94z"/>
	<path fill="#341472" d="M353.24,130.92h3.28c2.11,0,3.65,0.64,3.65,2.51c0,0.97-0.53,1.9-1.41,2.22v0.06
		c1.12,0.25,1.95,1.05,1.95,2.42c0,2.04-1.69,3-3.93,3h-3.54V130.92z M356.36,135.12c1.39,0,2-0.55,2-1.42
		c0-0.97-0.66-1.33-1.97-1.33h-1.3v2.75H356.36z M356.6,139.68c1.48,0,2.29-0.52,2.29-1.65c0-1.05-0.8-1.51-2.29-1.51h-1.5v3.17
		H356.6z"/>
	<path fill="#341472" d="M365.22,136.06c0-3.34,2.09-5.32,4.68-5.32c1.28,0,2.31,0.59,2.95,1.3l-0.98,1.14
		c-0.53-0.52-1.14-0.81-1.94-0.81c-1.62,0-2.81,1.37-2.81,3.65c0,2.29,1.08,3.7,2.78,3.7c0.89,0,1.59-0.36,2.15-0.98l1,1.11
		c-0.86,0.98-1.92,1.48-3.23,1.48C367.27,141.32,365.22,139.44,365.22,136.06z"/>
	<path fill="#341472" d="M374.79,130.92h1.86v10.21h-1.86V130.92z"/>
</g>
<g>
	<path fill="#341472" d="M585.65,137.06c0-3.34,2.12-5.32,4.84-5.32c1.45,0,2.45,0.62,3.09,1.3l-0.98,1.14
		c-0.51-0.5-1.11-0.81-2.04-0.81c-1.79,0-3,1.37-3,3.65c0,2.29,1.06,3.7,3.11,3.7c0.55,0,1.09-0.16,1.41-0.44v-2.17h-1.89v-1.51
		h3.56v4.51c-0.69,0.69-1.87,1.22-3.26,1.22C587.71,142.32,585.65,140.44,585.65,137.06z"/>
	<path fill="#341472" d="M596.03,131.92h1.86v10.21h-1.86V131.92z"/>
	<path fill="#341472" d="M602.54,133.48h-2.93v-1.56h7.73v1.56h-2.93v8.65h-1.86V133.48z"/>
	<path fill="#341472" d="M609.06,131.92h1.86v8.65h4.21v1.56h-6.07V131.92z"/>
	<path fill="#341472" d="M618.93,131.92h2.19l3.31,10.21h-1.97l-0.78-2.73h-3.39l-0.78,2.73h-1.89L618.93,131.92z M618.71,137.95
		h2.56l-0.34-1.22c-0.33-1.08-0.62-2.25-0.92-3.36h-0.06c-0.27,1.12-0.56,2.28-0.89,3.36L618.71,137.95z"/>
	<path fill="#341472" d="M625.71,131.92h3.28c2.11,0,3.65,0.64,3.65,2.51c0,0.97-0.53,1.9-1.41,2.22v0.06
		c1.12,0.25,1.95,1.05,1.95,2.42c0,2.04-1.69,3-3.93,3h-3.54V131.92z M628.84,136.12c1.39,0,2-0.55,2-1.42
		c0-0.97-0.66-1.33-1.97-1.33h-1.29v2.75H628.84z M629.07,140.68c1.48,0,2.29-0.52,2.29-1.65c0-1.05-0.8-1.51-2.29-1.51h-1.5v3.17
		H629.07z"/>
	<path fill="#341472" d="M637.7,137.06c0-3.34,2.09-5.32,4.68-5.32c1.28,0,2.31,0.59,2.95,1.3l-0.98,1.14
		c-0.53-0.52-1.14-0.81-1.94-0.81c-1.62,0-2.81,1.37-2.81,3.65c0,2.29,1.08,3.7,2.78,3.7c0.89,0,1.59-0.36,2.15-0.98l1,1.11
		c-0.86,0.98-1.92,1.48-3.23,1.48C639.74,142.32,637.7,140.44,637.7,137.06z"/>
	<path fill="#341472" d="M647.27,131.92H650c3.12,0,5,1.67,5,5.06c0,3.4-1.87,5.15-4.9,5.15h-2.83V131.92z M649.87,140.63
		c2.03,0,3.2-1.14,3.2-3.65c0-2.5-1.17-3.54-3.2-3.54h-0.75v7.2H649.87z"/>
</g>
<g>
	<path fill="#341472" d="M596.24,252.42l1-1.22c0.73,0.7,1.75,1.11,2.73,1.11c1.12,0,1.75-0.52,1.75-1.3c0-0.81-0.66-1.08-1.58-1.47
		l-1.39-0.61c-1.01-0.42-2.06-1.22-2.06-2.7c0-1.64,1.44-2.9,3.43-2.9c1.23,0,2.37,0.5,3.17,1.26l-1,1.22
		c-0.64-0.55-1.39-0.86-2.17-0.86c-0.95,0-1.56,0.44-1.56,1.17c0,0.78,0.77,1.06,1.61,1.42l1.37,0.56c1.22,0.52,2.06,1.28,2.06,2.76
		c0,1.65-1.37,3.04-3.68,3.04C598.52,253.91,597.21,253.4,596.24,252.42z"/>
	<path fill="#341472" d="M605.49,243.52h6.17v1.56h-4.31v2.56H611v1.56h-3.65v2.97h4.46v1.56h-6.32V243.52z"/>
	<path fill="#341472" d="M613.4,248.65c0-3.34,2.09-5.32,4.68-5.32c1.28,0,2.31,0.59,2.95,1.3l-0.98,1.14
		c-0.53-0.52-1.14-0.81-1.94-0.81c-1.62,0-2.81,1.37-2.81,3.65c0,2.29,1.08,3.7,2.78,3.7c0.89,0,1.59-0.36,2.15-0.98l1,1.11
		c-0.86,0.98-1.92,1.48-3.23,1.48C615.45,253.91,613.4,252.04,613.4,248.65z"/>
	<path fill="#341472" d="M622.66,249.23v-5.71h1.86v5.85c0,2.2,0.81,2.93,2.04,2.93c1.23,0,2.08-0.73,2.08-2.93v-5.85h1.79v5.71
		c0,3.36-1.48,4.68-3.87,4.68C624.17,253.91,622.66,252.59,622.66,249.23z"/>
	<path fill="#341472" d="M632.99,243.52h3.45c2.14,0,3.78,0.75,3.78,3.04c0,1.55-0.8,2.5-2.01,2.92l2.42,4.25h-2.08l-2.18-3.96
		h-1.51v3.96h-1.86V243.52z M636.25,248.28c1.39,0,2.14-0.58,2.14-1.72c0-1.15-0.75-1.56-2.14-1.56h-1.41v3.28H636.25z"/>
	<path fill="#341472" d="M642.29,243.52h1.86v10.21h-1.86V243.52z"/>
	<path fill="#341472" d="M648.8,245.08h-2.93v-1.56h7.73v1.56h-2.93v8.65h-1.86V245.08z"/>
	<path fill="#341472" d="M656.78,249.95l-3.08-6.43h1.98l1.09,2.59c0.3,0.75,0.59,1.47,0.91,2.25h0.06c0.33-0.78,0.64-1.5,0.94-2.25
		l1.09-2.59h1.94l-3.08,6.43v3.78h-1.86V249.95z"/>
	<path fill="#341472" d="M666.11,243.52h2.73c3.12,0,5,1.67,5,5.06c0,3.4-1.87,5.15-4.9,5.15h-2.83V243.52z M668.72,252.23
		c2.03,0,3.2-1.14,3.2-3.65c0-2.5-1.17-3.54-3.2-3.54h-0.75v7.2H668.72z"/>
	<path fill="#341472" d="M677.74,243.52h2.19l3.31,10.21h-1.97l-0.78-2.73h-3.39l-0.78,2.73h-1.89L677.74,243.52z M677.52,249.54
		h2.56l-0.34-1.22c-0.33-1.08-0.62-2.25-0.92-3.36h-0.06c-0.27,1.12-0.56,2.28-0.89,3.36L677.52,249.54z"/>
	<path fill="#341472" d="M683.82,252.42l1-1.22c0.73,0.7,1.75,1.11,2.73,1.11c1.12,0,1.75-0.52,1.75-1.3c0-0.81-0.66-1.08-1.58-1.47
		l-1.39-0.61c-1.01-0.42-2.06-1.22-2.06-2.7c0-1.64,1.44-2.9,3.43-2.9c1.23,0,2.37,0.5,3.17,1.26l-1,1.22
		c-0.64-0.55-1.39-0.86-2.17-0.86c-0.95,0-1.56,0.44-1.56,1.17c0,0.78,0.77,1.06,1.61,1.42l1.37,0.56c1.22,0.52,2.06,1.28,2.06,2.76
		c0,1.65-1.37,3.04-3.68,3.04C686.1,253.91,684.79,253.4,683.82,252.42z"/>
	<path fill="#341472" d="M693.08,243.52h1.86v4.09h4.06v-4.09h1.86v10.21h-1.86v-4.5h-4.06v4.5h-1.86V243.52z"/>
	<path fill="#341472" d="M703.47,243.52h3.28c2.11,0,3.65,0.64,3.65,2.51c0,0.97-0.53,1.9-1.41,2.22v0.06
		c1.12,0.25,1.95,1.05,1.95,2.42c0,2.04-1.69,3-3.93,3h-3.54V243.52z M706.59,247.72c1.39,0,2-0.55,2-1.42
		c0-0.97-0.66-1.33-1.97-1.33h-1.3v2.75H706.59z M706.83,252.28c1.48,0,2.29-0.52,2.29-1.65c0-1.05-0.8-1.51-2.29-1.51h-1.5v3.17
		H706.83z"/>
	<path fill="#341472" d="M712.3,248.58c0-3.29,1.84-5.24,4.51-5.24c2.67,0,4.51,1.95,4.51,5.24c0,3.31-1.84,5.34-4.51,5.34
		C714.14,253.91,712.3,251.89,712.3,248.58z M719.42,248.58c0-2.26-1.03-3.62-2.61-3.62c-1.59,0-2.61,1.36-2.61,3.62
		c0,2.28,1.01,3.73,2.61,3.73C718.39,252.31,719.42,250.86,719.42,248.58z"/>
	<path fill="#341472" d="M725.23,243.52h2.19l3.31,10.21h-1.97l-0.78-2.73h-3.39l-0.78,2.73h-1.89L725.23,243.52z M725.01,249.54
		h2.56l-0.34-1.22c-0.33-1.08-0.62-2.25-0.92-3.36h-0.06c-0.27,1.12-0.56,2.28-0.89,3.36L725.01,249.54z"/>
	<path fill="#341472" d="M732.01,243.52h3.45c2.14,0,3.78,0.75,3.78,3.04c0,1.55-0.8,2.5-2.01,2.92l2.42,4.25h-2.08l-2.18-3.96
		h-1.51v3.96h-1.86V243.52z M735.28,248.28c1.39,0,2.14-0.58,2.14-1.72c0-1.15-0.75-1.56-2.14-1.56h-1.41v3.28H735.28z"/>
	<path fill="#341472" d="M741.32,243.52h2.73c3.12,0,5,1.67,5,5.06c0,3.4-1.87,5.15-4.9,5.15h-2.83V243.52z M743.92,252.23
		c2.03,0,3.2-1.14,3.2-3.65c0-2.5-1.17-3.54-3.2-3.54h-0.75v7.2H743.92z"/>
	<path fill="#341472" d="M752.91,243.52h1.97l1.36,5.1c0.31,1.16,0.55,2.15,0.89,3.31h0.06c0.34-1.16,0.56-2.15,0.89-3.31l1.45-5.1
		h1.9l-3.22,10.21h-2.2L752.91,243.52z"/>
	<path fill="#341472" d="M762.7,243.52h1.86v10.21h-1.86V243.52z"/>
	<path fill="#341472" d="M767.16,243.52h6.17v1.56h-4.31v2.56h3.65v1.56h-3.65v2.97h4.46v1.56h-6.32V243.52z"/>
	<path fill="#341472" d="M774.59,243.52h1.91l0.87,5.15c0.17,1.09,0.31,2.15,0.44,3.34h0.06c0.19-1.19,0.39-2.26,0.62-3.34
		l1.22-5.15h1.78l1.22,5.15c0.23,1.06,0.47,2.15,0.66,3.34h0.06c0.12-1.19,0.28-2.26,0.44-3.34l0.87-5.15h1.76l-1.95,10.21h-2.37
		l-1.22-5.37c-0.19-0.81-0.25-1.53-0.38-2.47h-0.06c-0.12,0.94-0.23,1.65-0.41,2.47l-1.16,5.37h-2.34L774.59,243.52z"/>
</g>
<g>
	<path fill="#341472" d="M569.73,399.43l1-1.22c0.73,0.7,1.75,1.11,2.73,1.11c1.12,0,1.75-0.52,1.75-1.3c0-0.81-0.66-1.08-1.58-1.47
		l-1.39-0.61c-1.01-0.42-2.06-1.22-2.06-2.7c0-1.64,1.44-2.9,3.43-2.9c1.23,0,2.37,0.5,3.17,1.26l-1,1.22
		c-0.64-0.55-1.39-0.86-2.17-0.86c-0.95,0-1.56,0.44-1.56,1.17c0,0.78,0.76,1.06,1.61,1.42l1.37,0.56c1.22,0.51,2.06,1.28,2.06,2.76
		c0,1.65-1.37,3.04-3.68,3.04C572.01,400.92,570.7,400.41,569.73,399.43z"/>
	<path fill="#341472" d="M578.99,390.53h6.17v1.56h-4.31v2.56h3.65v1.56h-3.65v2.97h4.46v1.56h-6.32V390.53z"/>
	<path fill="#341472" d="M586.9,395.66c0-3.34,2.09-5.32,4.68-5.32c1.28,0,2.31,0.59,2.95,1.29l-0.98,1.14
		c-0.53-0.51-1.14-0.81-1.94-0.81c-1.62,0-2.81,1.37-2.81,3.65c0,2.29,1.08,3.7,2.78,3.7c0.89,0,1.59-0.36,2.15-0.98l1,1.11
		c-0.86,0.98-1.92,1.48-3.23,1.48C588.95,400.92,586.9,399.05,586.9,395.66z"/>
	<path fill="#341472" d="M596.16,396.24v-5.71h1.86v5.85c0,2.2,0.81,2.93,2.04,2.93s2.08-0.73,2.08-2.93v-5.85h1.79v5.71
		c0,3.36-1.48,4.68-3.87,4.68C597.67,400.92,596.16,399.6,596.16,396.24z"/>
	<path fill="#341472" d="M606.49,390.53h3.45c2.14,0,3.78,0.75,3.78,3.04c0,1.55-0.8,2.5-2.01,2.92l2.42,4.25h-2.08l-2.19-3.96
		h-1.51v3.96h-1.86V390.53z M609.75,395.29c1.39,0,2.14-0.58,2.14-1.72c0-1.15-0.75-1.56-2.14-1.56h-1.4v3.28H609.75z"/>
	<path fill="#341472" d="M615.79,390.53h1.86v10.21h-1.86V390.53z"/>
	<path fill="#341472" d="M622.3,392.09h-2.93v-1.56h7.73v1.56h-2.93v8.65h-1.86V392.09z"/>
	<path fill="#341472" d="M630.27,396.96l-3.08-6.43h1.98l1.09,2.59c0.3,0.75,0.59,1.47,0.91,2.25h0.06c0.33-0.78,0.64-1.5,0.94-2.25
		l1.09-2.59h1.94l-3.08,6.43v3.78h-1.86V396.96z"/>
	<path fill="#341472" d="M641.65,392.09h-2.93v-1.56h7.73v1.56h-2.93v8.65h-1.86V392.09z"/>
	<path fill="#341472" d="M648.17,390.53h6.17v1.56h-4.31v2.56h3.65v1.56h-3.65v2.97h4.46v1.56h-6.32V390.53z"/>
	<path fill="#341472" d="M658.6,390.53h2.19l3.31,10.21h-1.97l-0.78-2.73h-3.39l-0.78,2.73h-1.89L658.6,390.53z M658.38,396.55h2.56
		l-0.34-1.22c-0.33-1.08-0.62-2.25-0.92-3.36h-0.06c-0.27,1.12-0.56,2.28-0.89,3.36L658.38,396.55z"/>
	<path fill="#341472" d="M665.37,390.53h2.19l1.75,5c0.22,0.66,0.41,1.25,0.59,2h0.06c0.19-0.75,0.34-1.34,0.56-2l1.75-5h2.18v10.21
		h-1.72v-4.65c0-0.97,0.16-2.37,0.28-3.31h-0.06l-0.81,2.47l-1.66,4.56h-1.22l-1.62-4.56l-0.81-2.47h-0.06
		c0.12,0.94,0.28,2.34,0.28,3.31v4.65h-1.69V390.53z"/>
</g>
<g>
	<path fill="#341472" d="M718.87,30.93h2.73c3.12,0,5,1.67,5,5.06c0,3.4-1.87,5.15-4.9,5.15h-2.83V30.93z M721.48,39.64
		c2.03,0,3.2-1.14,3.2-3.65c0-2.5-1.17-3.54-3.2-3.54h-0.75v7.2H721.48z"/>
	<path fill="#341472" d="M728.67,30.93h6.17v1.56h-4.31v2.56h3.65v1.56h-3.65v2.97h4.46v1.56h-6.32V30.93z"/>
	<path fill="#341472" d="M737.11,30.93h3.23c2.26,0,3.96,0.8,3.96,3.17c0,2.28-1.7,3.31-3.9,3.31h-1.44v3.73h-1.86V30.93z
		 M740.27,35.93c1.5,0,2.2-0.59,2.2-1.83c0-1.25-0.78-1.69-2.26-1.69h-1.23v3.51H740.27z"/>
	<path fill="#341472" d="M746.24,30.93h1.86v8.65h4.21v1.56h-6.07V30.93z"/>
	<path fill="#341472" d="M753.09,35.99c0-3.29,1.84-5.24,4.51-5.24c2.67,0,4.51,1.95,4.51,5.24c0,3.31-1.84,5.34-4.51,5.34
		C754.94,41.33,753.09,39.3,753.09,35.99z M760.21,35.99c0-2.26-1.03-3.62-2.61-3.62c-1.59,0-2.61,1.36-2.61,3.62
		c0,2.28,1.01,3.73,2.61,3.73C759.18,39.72,760.21,38.27,760.21,35.99z"/>
	<path fill="#341472" d="M765.58,37.37l-3.08-6.43h1.98l1.09,2.59c0.3,0.75,0.59,1.47,0.91,2.25h0.06c0.33-0.78,0.64-1.5,0.94-2.25
		l1.09-2.59h1.94l-3.08,6.43v3.78h-1.86V37.37z"/>
</g>
<g>
	<path fill="#341472" d="M425.42,30.93h2.19l1.75,5c0.22,0.66,0.41,1.25,0.59,2h0.06c0.19-0.75,0.34-1.34,0.56-2l1.75-5h2.18v10.21
		h-1.72v-4.65c0-0.97,0.16-2.37,0.28-3.31H433l-0.81,2.47l-1.66,4.56h-1.22l-1.62-4.56l-0.81-2.47h-0.06
		c0.12,0.94,0.28,2.34,0.28,3.31v4.65h-1.69V30.93z"/>
	<path fill="#341472" d="M437.11,30.93h6.17v1.56h-4.31v2.56h3.65v1.56h-3.65v2.97h4.46v1.56h-6.32V30.93z"/>
	<path fill="#341472" d="M445.55,30.93H449c2.14,0,3.78,0.75,3.78,3.04c0,1.55-0.8,2.5-2.01,2.92l2.42,4.25h-2.08l-2.19-3.96h-1.51
		v3.96h-1.86V30.93z M448.81,35.69c1.39,0,2.14-0.58,2.14-1.72c0-1.15-0.75-1.56-2.14-1.56h-1.4v3.28H448.81z"/>
	<path fill="#341472" d="M454.32,36.07c0-3.34,2.12-5.32,4.84-5.32c1.45,0,2.45,0.62,3.09,1.3l-0.98,1.14
		c-0.51-0.5-1.11-0.81-2.04-0.81c-1.79,0-3,1.37-3,3.65c0,2.29,1.06,3.7,3.11,3.7c0.55,0,1.09-0.16,1.41-0.44v-2.17h-1.89V35.6h3.56
		v4.51c-0.69,0.69-1.87,1.22-3.26,1.22C456.38,41.33,454.32,39.46,454.32,36.07z"/>
	<path fill="#341472" d="M464.7,30.93h6.17v1.56h-4.31v2.56h3.65v1.56h-3.65v2.97h4.46v1.56h-6.32V30.93z"/>
	<path fill="#341472" d="M476.29,30.93h3.45c2.14,0,3.78,0.75,3.78,3.04c0,1.55-0.8,2.5-2.01,2.92l2.42,4.25h-2.08l-2.18-3.96h-1.51
		v3.96h-1.86V30.93z M479.56,35.69c1.39,0,2.14-0.58,2.14-1.72c0-1.15-0.75-1.56-2.14-1.56h-1.41v3.28H479.56z"/>
	<path fill="#341472" d="M485.6,30.93h6.17v1.56h-4.31v2.56h3.65v1.56h-3.65v2.97h4.46v1.56h-6.32V30.93z"/>
	<path fill="#341472" d="M497.16,41.25c-2.2-0.39-3.65-2.33-3.65-5.26c0-3.29,1.84-5.24,4.51-5.24c2.67,0,4.51,1.95,4.51,5.24
		c0,2.83-1.34,4.73-3.42,5.21c0.48,0.81,1.41,1.16,2.36,1.16c0.45,0,0.83-0.06,1.11-0.14l0.34,1.34c-0.34,0.17-0.94,0.3-1.66,0.3
		C499.24,43.86,497.82,42.77,497.16,41.25z M500.63,35.99c0-2.26-1.03-3.62-2.61-3.62c-1.59,0-2.61,1.36-2.61,3.62
		c0,2.37,1.01,3.81,2.61,3.81C499.6,39.8,500.63,38.36,500.63,35.99z"/>
	<path fill="#341472" d="M504.54,36.65v-5.71h1.86v5.85c0,2.2,0.81,2.93,2.04,2.93c1.23,0,2.08-0.73,2.08-2.93v-5.85h1.79v5.71
		c0,3.36-1.48,4.68-3.87,4.68C506.06,41.33,504.54,40,504.54,36.65z"/>
	<path fill="#341472" d="M514.87,30.93h6.17v1.56h-4.31v2.56h3.65v1.56h-3.65v2.97h4.46v1.56h-6.32V30.93z"/>
	<path fill="#341472" d="M522.61,39.83l1-1.22c0.73,0.7,1.75,1.11,2.73,1.11c1.12,0,1.75-0.52,1.75-1.3c0-0.81-0.66-1.08-1.58-1.47
		l-1.39-0.61c-1.01-0.42-2.06-1.22-2.06-2.7c0-1.64,1.44-2.9,3.43-2.9c1.23,0,2.37,0.5,3.17,1.26l-1,1.22
		c-0.64-0.55-1.39-0.86-2.17-0.86c-0.95,0-1.56,0.44-1.56,1.17c0,0.78,0.76,1.06,1.61,1.42l1.37,0.56c1.22,0.52,2.06,1.28,2.06,2.76
		c0,1.65-1.37,3.04-3.68,3.04C524.89,41.33,523.58,40.81,522.61,39.83z"/>
	<path fill="#341472" d="M533.6,32.49h-2.93v-1.56h7.73v1.56h-2.93v8.65h-1.86V32.49z"/>
</g>
<g>
	<path fill="#341472" d="M395.04,383.52h3.45c2.14,0,3.78,0.75,3.78,3.04c0,1.54-0.8,2.5-2.01,2.92l2.42,4.25h-2.08l-2.19-3.96
		h-1.51v3.96h-1.86V383.52z M398.3,388.28c1.39,0,2.14-0.58,2.14-1.72c0-1.16-0.75-1.56-2.14-1.56h-1.4v3.28H398.3z"/>
	<path fill="#341472" d="M404.34,383.52h6.17v1.56h-4.31v2.56h3.65v1.56h-3.65v2.97h4.46v1.56h-6.32V383.52z"/>
	<path fill="#341472" d="M411.43,383.52h1.97l1.36,5.1c0.31,1.16,0.55,2.15,0.89,3.31h0.06c0.34-1.16,0.56-2.15,0.89-3.31l1.45-5.1
		h1.9l-3.21,10.21h-2.2L411.43,383.52z"/>
	<path fill="#341472" d="M421.21,383.52h1.86v10.21h-1.86V383.52z"/>
	<path fill="#341472" d="M425.68,383.52h6.17v1.56h-4.31v2.56h3.65v1.56h-3.65v2.97H432v1.56h-6.32V383.52z"/>
	<path fill="#341472" d="M433.1,383.52h1.91l0.87,5.15c0.17,1.09,0.31,2.15,0.44,3.34h0.06c0.19-1.19,0.39-2.26,0.62-3.34l1.22-5.15
		h1.78l1.22,5.15c0.23,1.06,0.47,2.15,0.66,3.34h0.06c0.12-1.19,0.28-2.26,0.44-3.34l0.87-5.15h1.76l-1.95,10.21h-2.37l-1.22-5.37
		c-0.19-0.81-0.25-1.53-0.38-2.47h-0.06c-0.12,0.94-0.23,1.65-0.41,2.47l-1.16,5.37h-2.34L433.1,383.52z"/>
	<path fill="#341472" d="M451.77,383.52h2.19l3.31,10.21h-1.97l-0.78-2.73h-3.39l-0.78,2.73h-1.89L451.77,383.52z M451.55,389.55
		h2.56l-0.34-1.22c-0.33-1.08-0.62-2.25-0.92-3.36h-0.06c-0.26,1.12-0.56,2.28-0.89,3.36L451.55,389.55z"/>
	<path fill="#341472" d="M458.56,383.52h3.23c2.26,0,3.96,0.8,3.96,3.17c0,2.28-1.7,3.31-3.9,3.31h-1.44v3.73h-1.86V383.52z
		 M461.71,388.52c1.5,0,2.2-0.59,2.2-1.83c0-1.25-0.78-1.69-2.26-1.69h-1.23v3.51H461.71z"/>
	<path fill="#341472" d="M467.69,383.52h3.23c2.26,0,3.96,0.8,3.96,3.17c0,2.28-1.7,3.31-3.9,3.31h-1.44v3.73h-1.86V383.52z
		 M470.84,388.52c1.5,0,2.2-0.59,2.2-1.83c0-1.25-0.78-1.69-2.26-1.69h-1.23v3.51H470.84z"/>
</g>
<g>
	<path fill="#341472" d="M215.91,383.52h2.73c3.12,0,5,1.67,5,5.06c0,3.4-1.87,5.15-4.9,5.15h-2.83V383.52z M218.52,392.23
		c2.03,0,3.2-1.14,3.2-3.65c0-2.5-1.17-3.54-3.2-3.54h-0.75v7.2H218.52z"/>
	<path fill="#341472" d="M225.72,383.52h6.17v1.56h-4.31v2.56h3.65v1.56h-3.65v2.97h4.46v1.56h-6.32V383.52z"/>
	<path fill="#341472" d="M232.8,383.52h1.97l1.36,5.1c0.31,1.16,0.55,2.15,0.89,3.31h0.06c0.34-1.16,0.56-2.15,0.89-3.31l1.45-5.1
		h1.9l-3.22,10.21h-2.2L232.8,383.52z"/>
	<path fill="#341472" d="M242.59,383.52h6.17v1.56h-4.31v2.56h3.65v1.56h-3.65v2.97h4.46v1.56h-6.32V383.52z"/>
	<path fill="#341472" d="M251.03,383.52h1.86v8.65h4.21v1.56h-6.07V383.52z"/>
	<path fill="#341472" d="M257.88,388.58c0-3.29,1.84-5.25,4.51-5.25c2.67,0,4.51,1.95,4.51,5.25c0,3.31-1.84,5.34-4.51,5.34
		C259.72,393.92,257.88,391.89,257.88,388.58z M265,388.58c0-2.26-1.03-3.62-2.61-3.62c-1.59,0-2.61,1.36-2.61,3.62
		c0,2.28,1.01,3.73,2.61,3.73C263.97,392.31,265,390.86,265,388.58z"/>
	<path fill="#341472" d="M268.98,383.52h3.23c2.26,0,3.96,0.8,3.96,3.17c0,2.28-1.7,3.31-3.9,3.31h-1.44v3.73h-1.86V383.52z
		 M272.13,388.52c1.5,0,2.2-0.59,2.2-1.83c0-1.25-0.78-1.69-2.26-1.69h-1.23v3.51H272.13z"/>
	<path fill="#341472" d="M278.11,383.52h6.17v1.56h-4.31v2.56h3.65v1.56h-3.65v2.97h4.46v1.56h-6.32V383.52z"/>
	<path fill="#341472" d="M286.55,383.52H290c2.14,0,3.78,0.75,3.78,3.04c0,1.54-0.8,2.5-2.01,2.92l2.42,4.25h-2.08l-2.19-3.96h-1.51
		v3.96h-1.86V383.52z M289.81,388.28c1.39,0,2.14-0.58,2.14-1.72c0-1.16-0.75-1.56-2.14-1.56h-1.4v3.28H289.81z"/>
</g>
<g>
	<path fill="#341472" d="M152.59,36.07c0-3.34,2.09-5.32,4.68-5.32c1.28,0,2.31,0.59,2.95,1.3l-0.98,1.14
		c-0.53-0.52-1.14-0.81-1.94-0.81c-1.62,0-2.81,1.37-2.81,3.65c0,2.29,1.08,3.7,2.78,3.7c0.89,0,1.59-0.36,2.15-0.98l1,1.11
		c-0.86,0.98-1.92,1.48-3.23,1.48C154.64,41.33,152.59,39.46,152.59,36.07z"/>
	<path fill="#341472" d="M161.11,35.99c0-3.29,1.84-5.24,4.51-5.24c2.67,0,4.51,1.95,4.51,5.24c0,3.31-1.84,5.34-4.51,5.34
		C162.95,41.33,161.11,39.3,161.11,35.99z M168.23,35.99c0-2.26-1.03-3.62-2.61-3.62c-1.59,0-2.61,1.36-2.61,3.62
		c0,2.28,1.01,3.73,2.61,3.73C167.2,39.72,168.23,38.27,168.23,35.99z"/>
	<path fill="#341472" d="M172.21,30.93h2.73c3.12,0,5,1.67,5,5.06c0,3.4-1.87,5.15-4.9,5.15h-2.83V30.93z M174.81,39.64
		c2.03,0,3.2-1.14,3.2-3.65c0-2.5-1.17-3.54-3.2-3.54h-0.75v7.2H174.81z"/>
	<path fill="#341472" d="M182.01,30.93h6.17v1.56h-4.31v2.56h3.65v1.56h-3.65v2.97h4.46v1.56h-6.32V30.93z"/>
	<path fill="#341472" d="M193.07,36.07c0-3.34,2.09-5.32,4.68-5.32c1.28,0,2.31,0.59,2.95,1.3l-0.98,1.14
		c-0.53-0.52-1.14-0.81-1.94-0.81c-1.62,0-2.81,1.37-2.81,3.65c0,2.29,1.08,3.7,2.78,3.7c0.89,0,1.59-0.36,2.15-0.98l1,1.11
		c-0.86,0.98-1.92,1.48-3.23,1.48C195.12,41.33,193.07,39.46,193.07,36.07z"/>
	<path fill="#341472" d="M201.59,35.99c0-3.29,1.84-5.24,4.51-5.24c2.67,0,4.51,1.95,4.51,5.24c0,3.31-1.84,5.34-4.51,5.34
		C203.44,41.33,201.59,39.3,201.59,35.99z M208.71,35.99c0-2.26-1.03-3.62-2.61-3.62c-1.59,0-2.61,1.36-2.61,3.62
		c0,2.28,1.01,3.73,2.61,3.73C207.68,39.72,208.71,38.27,208.71,35.99z"/>
	<path fill="#341472" d="M212.68,30.93h2.19l1.75,5c0.22,0.66,0.41,1.25,0.59,2h0.06c0.19-0.75,0.34-1.34,0.56-2l1.75-5h2.19v10.21
		h-1.72v-4.65c0-0.97,0.16-2.37,0.28-3.31h-0.06l-0.81,2.47l-1.65,4.56h-1.22l-1.62-4.56l-0.81-2.47h-0.06
		c0.12,0.94,0.28,2.34,0.28,3.31v4.65h-1.69V30.93z"/>
	<path fill="#341472" d="M224.35,30.93h2.19l1.75,5c0.22,0.66,0.41,1.25,0.59,2h0.06c0.19-0.75,0.34-1.34,0.56-2l1.75-5h2.19v10.21
		h-1.72v-4.65c0-0.97,0.16-2.37,0.28-3.31h-0.06l-0.81,2.47l-1.65,4.56h-1.22l-1.62-4.56l-0.81-2.47h-0.06
		c0.12,0.94,0.28,2.34,0.28,3.31v4.65h-1.69V30.93z"/>
	<path fill="#341472" d="M236.04,30.93h1.86v10.21h-1.86V30.93z"/>
	<path fill="#341472" d="M242.55,32.49h-2.93v-1.56h7.73v1.56h-2.93v8.65h-1.86V32.49z"/>
</g>
<g>
	<path fill="#341472" d="M257.15,587.61c-0.06-3.34,2.03-5.36,4.74-5.41c1.45-0.03,2.46,0.58,3.11,1.24l-0.96,1.16
		c-0.52-0.49-1.12-0.79-2.06-0.77c-1.8,0.03-2.97,1.43-2.93,3.71c0.04,2.29,1.13,3.68,3.17,3.64c0.55-0.01,1.09-0.18,1.4-0.46
		l-0.04-2.17l-1.89,0.03l-0.03-1.51l3.56-0.06l0.08,4.51c-0.67,0.7-1.85,1.25-3.24,1.28C259.31,592.84,257.21,591,257.15,587.61z"/>
	<path fill="#341472" d="M267.44,582.29l1.86-0.03l0.18,10.21l-1.86,0.03L267.44,582.29z"/>
	<path fill="#341472" d="M273.97,583.74l-2.93,0.05l-0.03-1.56l7.73-0.14l0.03,1.56l-2.93,0.05l0.16,8.65l-1.86,0.03L273.97,583.74z
		"/>
	<path fill="#341472" d="M280.47,582.06l1.86-0.03l0.15,8.65l4.21-0.08l0.03,1.56l-6.07,0.11L280.47,582.06z"/>
	<path fill="#341472" d="M290.33,581.88l2.19-0.04l3.49,10.15l-1.97,0.04l-0.83-2.72l-3.39,0.06l-0.73,2.75l-1.89,0.03
		L290.33,581.88z M290.22,587.91l2.56-0.05l-0.37-1.21c-0.35-1.07-0.66-2.24-0.98-3.34l-0.06,0c-0.24,1.13-0.52,2.29-0.83,3.37
		L290.22,587.91z"/>
	<path fill="#341472" d="M297.12,581.76l3.28-0.06c2.11-0.04,3.66,0.57,3.7,2.45c0.02,0.97-0.5,1.91-1.37,2.24l0,0.06
		c1.13,0.23,1.97,1.01,1.99,2.38c0.04,2.04-1.63,3.03-3.88,3.07l-3.54,0.06L297.12,581.76z M300.31,585.91
		c1.39-0.03,1.99-0.58,1.97-1.46c-0.02-0.97-0.68-1.31-1.99-1.29l-1.29,0.02l0.05,2.75L300.31,585.91z M300.63,590.46
		c1.48-0.03,2.29-0.56,2.26-1.7c-0.02-1.05-0.82-1.5-2.32-1.47l-1.5,0.03l0.06,3.17L300.63,590.46z"/>
	<path fill="#341472" d="M309.09,590.45l0.98-1.24c0.75,0.69,1.77,1.08,2.75,1.06c1.12-0.02,1.74-0.55,1.73-1.33
		c-0.01-0.81-0.67-1.06-1.6-1.44l-1.4-0.58c-1.02-0.4-2.08-1.18-2.11-2.66c-0.03-1.64,1.38-2.93,3.38-2.96
		c1.23-0.02,2.38,0.46,3.19,1.21l-0.98,1.23c-0.65-0.53-1.4-0.83-2.18-0.82c-0.95,0.02-1.55,0.46-1.54,1.2
		c0.01,0.78,0.78,1.05,1.63,1.39l1.38,0.54c1.23,0.49,2.08,1.24,2.11,2.73c0.03,1.65-1.32,3.07-3.63,3.11
		C311.39,591.91,310.07,591.41,309.09,590.45z"/>
	<path fill="#341472" d="M318.18,581.39l6.17-0.11l0.03,1.56l-4.31,0.08l0.05,2.56l3.65-0.07l0.03,1.56l-3.65,0.07l0.05,2.96
		l4.46-0.08l0.03,1.56l-6.32,0.11L318.18,581.39z"/>
	<path fill="#341472" d="M326.18,586.38c-0.06-3.34,2-5.36,4.59-5.41c1.28-0.02,2.32,0.55,2.97,1.24l-0.96,1.16
		c-0.54-0.51-1.15-0.79-1.95-0.78c-1.62,0.03-2.78,1.42-2.74,3.7c0.04,2.29,1.14,3.68,2.84,3.65c0.89-0.02,1.59-0.39,2.14-1.02
		l1.02,1.09c-0.84,1-1.89,1.52-3.2,1.54C328.32,591.6,326.25,589.76,326.18,586.38z"/>
	<path fill="#341472" d="M335.45,586.79l-0.1-5.71l1.86-0.03l0.1,5.85c0.04,2.2,0.86,2.92,2.1,2.9s2.06-0.77,2.02-2.97l-0.1-5.85
		l1.79-0.03l0.1,5.71c0.06,3.36-1.4,4.71-3.79,4.75C337.05,591.45,335.51,590.15,335.45,586.79z"/>
	<path fill="#341472" d="M345.68,580.89l3.45-0.06c2.14-0.04,3.79,0.68,3.83,2.98c0.03,1.54-0.75,2.51-1.96,2.95l2.5,4.2l-2.08,0.04
		l-2.26-3.93l-1.51,0.03l0.07,3.96l-1.86,0.03L345.68,580.89z M349.02,585.6c1.39-0.02,2.13-0.62,2.11-1.76
		c-0.02-1.15-0.78-1.55-2.17-1.52l-1.4,0.02l0.06,3.28L349.02,585.6z"/>
	<path fill="#341472" d="M354.98,580.73l1.86-0.03l0.18,10.21l-1.86,0.03L354.98,580.73z"/>
	<path fill="#341472" d="M361.51,582.17l-2.93,0.05l-0.03-1.56l7.73-0.14l0.03,1.56l-2.93,0.05l0.16,8.65l-1.86,0.03L361.51,582.17z
		"/>
	<path fill="#341472" d="M369.57,586.9l-3.19-6.38l1.98-0.04l1.14,2.57c0.31,0.74,0.62,1.46,0.95,2.23l0.06,0
		c0.31-0.79,0.61-1.51,0.9-2.26l1.05-2.61l1.94-0.04l-2.96,6.49l0.07,3.78l-1.86,0.03L369.57,586.9z"/>
	<path fill="#341472" d="M380.86,581.82l-2.93,0.05l-0.03-1.56l7.73-0.14l0.03,1.56l-2.93,0.05l0.16,8.65l-1.86,0.03L380.86,581.82z
		"/>
	<path fill="#341472" d="M387.35,580.15l6.17-0.11l0.03,1.56l-4.31,0.08l0.05,2.56l3.65-0.07l0.03,1.56l-3.65,0.07l0.05,2.96
		l4.46-0.08l0.03,1.56l-6.32,0.11L387.35,580.15z"/>
	<path fill="#341472" d="M395.25,588.9l0.98-1.24c0.75,0.69,1.77,1.08,2.75,1.06c1.12-0.02,1.74-0.55,1.73-1.33
		c-0.01-0.81-0.68-1.07-1.6-1.44l-1.4-0.58c-1.02-0.4-2.08-1.18-2.11-2.66c-0.03-1.64,1.38-2.93,3.38-2.96
		c1.23-0.02,2.38,0.46,3.19,1.21l-0.98,1.24c-0.65-0.53-1.4-0.83-2.19-0.82c-0.95,0.02-1.55,0.46-1.54,1.2
		c0.01,0.78,0.78,1.05,1.63,1.39l1.38,0.54c1.23,0.49,2.08,1.24,2.11,2.73c0.03,1.65-1.32,3.07-3.63,3.11
		C397.56,590.36,396.24,589.87,395.25,588.9z"/>
	<path fill="#341472" d="M406.11,581.37l-2.93,0.05l-0.03-1.56l7.73-0.14l0.03,1.56l-2.93,0.05l0.16,8.65l-1.86,0.03L406.11,581.37z
		"/>
	<path fill="#341472" d="M412.6,579.69l1.86-0.03l0.18,10.21l-1.86,0.03L412.6,579.69z"/>
	<path fill="#341472" d="M417.06,579.61l1.98-0.04l3.16,5.56c0.39,0.68,0.75,1.49,1.09,2.29l0.06,0c-0.13-1.09-0.28-2.34-0.3-3.46
		l-0.08-4.46l1.73-0.03l0.18,10.21l-1.98,0.04l-3.16-5.56c-0.39-0.68-0.74-1.49-1.09-2.29l-0.06,0c0.13,1.06,0.28,2.32,0.3,3.46
		l0.08,4.46l-1.73,0.03L417.06,579.61z"/>
	<path fill="#341472" d="M426.89,584.57c-0.06-3.34,2.03-5.36,4.74-5.41c1.45-0.03,2.46,0.58,3.11,1.24l-0.96,1.16
		c-0.52-0.49-1.12-0.79-2.06-0.77c-1.79,0.03-2.97,1.43-2.93,3.71c0.04,2.29,1.13,3.68,3.17,3.64c0.55-0.01,1.09-0.18,1.4-0.46
		l-0.04-2.17l-1.89,0.03l-0.03-1.51l3.56-0.06l0.08,4.51c-0.67,0.7-1.85,1.25-3.24,1.28C429.05,589.8,426.95,587.96,426.89,584.57z"
		/>
	<path fill="#341472" d="M278.53,598.75l1.86-0.03l0.18,10.21l-1.86,0.03L278.53,598.75z"/>
	<path fill="#341472" d="M283,598.67l1.98-0.04l3.16,5.56c0.39,0.68,0.75,1.49,1.09,2.29l0.06,0c-0.13-1.09-0.28-2.34-0.3-3.46
		l-0.08-4.46l1.73-0.03l0.18,10.21l-1.98,0.04l-3.16-5.56c-0.39-0.68-0.74-1.49-1.09-2.29l-0.06,0c0.13,1.06,0.28,2.32,0.3,3.46
		l0.08,4.46l-1.73,0.03L283,598.67z"/>
	<path fill="#341472" d="M296.42,598.43l3.23-0.06c2.26-0.04,3.98,0.72,4.02,3.1c0.04,2.28-1.64,3.34-3.84,3.38l-1.44,0.03
		l0.07,3.73l-1.86,0.03L296.42,598.43z M299.66,603.36c1.5-0.03,2.19-0.63,2.17-1.87c-0.02-1.25-0.81-1.67-2.29-1.65l-1.23,0.02
		l0.06,3.51L299.66,603.36z"/>
	<path fill="#341472" d="M305.54,598.26l1.86-0.03l0.18,10.21l-1.86,0.03L305.54,598.26z"/>
	<path fill="#341472" d="M310.01,598.18l3.23-0.06c2.26-0.04,3.98,0.73,4.02,3.1c0.04,2.28-1.64,3.34-3.84,3.38l-1.44,0.03
		l0.07,3.73l-1.86,0.03L310.01,598.18z M313.25,603.12c1.5-0.03,2.19-0.63,2.17-1.87c-0.02-1.25-0.81-1.67-2.29-1.65l-1.23,0.02
		l0.06,3.51L313.25,603.12z"/>
	<path fill="#341472" d="M319.14,598.02l6.17-0.11l0.03,1.56l-4.31,0.08l0.05,2.56l3.65-0.07l0.03,1.56l-3.65,0.07l0.05,2.96
		l4.46-0.08l0.03,1.56l-6.32,0.11L319.14,598.02z"/>
	<path fill="#341472" d="M327.58,597.87l1.86-0.03l0.15,8.65l4.21-0.08l0.03,1.56l-6.07,0.11L327.58,597.87z"/>
	<path fill="#341472" d="M335.46,597.73l1.86-0.03l0.18,10.21l-1.86,0.03L335.46,597.73z"/>
	<path fill="#341472" d="M339.92,597.65l1.98-0.04l3.16,5.56c0.39,0.68,0.74,1.49,1.09,2.29l0.06,0c-0.13-1.09-0.28-2.34-0.3-3.46
		l-0.08-4.46l1.73-0.03l0.18,10.21l-1.98,0.04l-3.16-5.56c-0.39-0.68-0.74-1.49-1.09-2.29l-0.06,0c0.13,1.06,0.28,2.32,0.3,3.46
		l0.08,4.46l-1.73,0.03L339.92,597.65z"/>
	<path fill="#341472" d="M350.19,597.46l6.17-0.11l0.03,1.56l-4.31,0.08l0.05,2.56l3.65-0.07l0.03,1.56l-3.65,0.07l0.05,2.97
		l4.46-0.08l0.03,1.56l-6.32,0.11L350.19,597.46z"/>
	<path fill="#341472" d="M361.78,597.25l3.45-0.06c2.14-0.04,3.79,0.68,3.83,2.98c0.03,1.54-0.75,2.51-1.96,2.96l2.5,4.2l-2.08,0.04
		l-2.26-3.92l-1.51,0.03l0.07,3.96l-1.86,0.03L361.78,597.25z M365.13,601.96c1.39-0.03,2.13-0.62,2.11-1.76
		c-0.02-1.15-0.78-1.55-2.17-1.52l-1.4,0.03l0.06,3.28L365.13,601.96z"/>
	<path fill="#341472" d="M371.08,597.09l6.17-0.11l0.03,1.56l-4.31,0.08l0.05,2.56l3.65-0.07l0.03,1.56l-3.65,0.07l0.05,2.96
		l4.46-0.08l0.03,1.56l-6.32,0.11L371.08,597.09z"/>
	<path fill="#341472" d="M379.52,596.94l3.23-0.06c2.26-0.04,3.98,0.73,4.02,3.1c0.04,2.28-1.64,3.34-3.84,3.38l-1.44,0.03
		l0.07,3.73l-1.86,0.03L379.52,596.94z M382.76,601.87c1.5-0.03,2.19-0.63,2.17-1.87c-0.02-1.25-0.81-1.67-2.29-1.65l-1.23,0.02
		l0.06,3.51L382.76,601.87z"/>
	<path fill="#341472" d="M388.21,601.84c-0.06-3.29,1.75-5.28,4.42-5.32c2.67-0.05,4.55,1.87,4.6,5.16
		c0.06,3.31-1.75,5.37-4.42,5.42C390.15,607.14,388.27,605.15,388.21,601.84z M395.33,601.71c-0.04-2.26-1.1-3.6-2.67-3.57
		c-1.59,0.03-2.58,1.4-2.54,3.67c0.04,2.28,1.08,3.71,2.67,3.68C394.36,605.46,395.37,603.99,395.33,601.71z"/>
	<path fill="#341472" d="M399.21,596.58l3.45-0.06c2.14-0.04,3.79,0.68,3.83,2.98c0.03,1.54-0.75,2.51-1.96,2.96l2.5,4.2l-2.08,0.04
		l-2.25-3.92l-1.51,0.03l0.07,3.96l-1.86,0.03L399.21,596.58z M402.56,601.29c1.39-0.02,2.13-0.62,2.11-1.75
		c-0.02-1.16-0.78-1.55-2.17-1.52l-1.4,0.02l0.06,3.28L402.56,601.29z"/>
	<path fill="#341472" d="M410.34,597.95L407.4,598l-0.03-1.56l7.73-0.14l0.03,1.56l-2.93,0.05l0.15,8.65l-1.86,0.03L410.34,597.95z"
		/>
</g>
<g opacity="0.15">
	<g>
		<path fill="#341472" d="M254.9,234.99c-1.38,0-2.5-1.12-2.5-2.5v-10c0-1.38,1.12-2.5,2.5-2.5c1.38,0,2.5,1.12,2.5,2.5v10
			C257.4,233.88,256.28,234.99,254.9,234.99z M254.9,210.99c-1.38,0-2.5-1.12-2.5-2.5v-10c0-1.38,1.12-2.5,2.5-2.5
			c1.38,0,2.5,1.12,2.5,2.5v10C257.4,209.88,256.28,210.99,254.9,210.99z M299.35,197.44h-10c-1.38,0-2.5-1.12-2.5-2.5
			s1.12-2.5,2.5-2.5h10c1.38,0,2.5,1.12,2.5,2.5S300.73,197.44,299.35,197.44z M275.35,197.44h-10c-1.38,0-2.5-1.12-2.5-2.5
			s1.12-2.5,2.5-2.5h10c1.38,0,2.5,1.12,2.5,2.5S276.73,197.44,275.35,197.44z M307.31,191.41c-1.38,0-2.5-1.12-2.5-2.5v-10
			c0-1.38,1.12-2.5,2.5-2.5s2.5,1.12,2.5,2.5v10C309.81,190.29,308.69,191.41,307.31,191.41z M307.31,167.41
			c-1.38,0-2.5-1.12-2.5-2.5v-10c0-1.38,1.12-2.5,2.5-2.5s2.5,1.12,2.5,2.5v10C309.81,166.29,308.69,167.41,307.31,167.41z"/>
	</g>
	<g>
		<path fill="#341472" d="M254.9,239.98L254.9,239.98c-0.66,0-1.3-0.26-1.77-0.73l-9.02-9.02c-0.98-0.98-0.98-2.56,0-3.54
			c0.98-0.98,2.56-0.98,3.54,0l7.25,7.25l7.25-7.25c0.98-0.98,2.56-0.98,3.54,0c0.98,0.98,0.98,2.56,0,3.54l-9.02,9.02
			C256.2,239.72,255.56,239.98,254.9,239.98z"/>
	</g>
</g>
<g opacity="0.15">
	<g>
		<path fill="#341472" d="M435.44,235c-1.38,0-2.5-1.12-2.5-2.5v-10c0-1.38,1.12-2.5,2.5-2.5s2.5,1.12,2.5,2.5v10
			C437.94,233.88,436.82,235,435.44,235z M435.44,211c-1.38,0-2.5-1.12-2.5-2.5v-10c0-1.38,1.12-2.5,2.5-2.5s2.5,1.12,2.5,2.5v10
			C437.94,209.88,436.82,211,435.44,211z M425,197.44h-10c-1.38,0-2.5-1.12-2.5-2.5s1.12-2.5,2.5-2.5h10c1.38,0,2.5,1.12,2.5,2.5
			S426.38,197.44,425,197.44z M401,197.44h-10c-1.38,0-2.5-1.12-2.5-2.5s1.12-2.5,2.5-2.5h10c1.38,0,2.5,1.12,2.5,2.5
			S402.38,197.44,401,197.44z M383.03,191.41c-1.38,0-2.5-1.12-2.5-2.5v-10c0-1.38,1.12-2.5,2.5-2.5s2.5,1.12,2.5,2.5v10
			C385.53,190.29,384.41,191.41,383.03,191.41z M383.03,167.41c-1.38,0-2.5-1.12-2.5-2.5v-10c0-1.38,1.12-2.5,2.5-2.5
			s2.5,1.12,2.5,2.5v10C385.53,166.29,384.41,167.41,383.03,167.41z"/>
	</g>
	<g>
		<path fill="#341472" d="M435.44,239.98c-0.66,0-1.3-0.26-1.77-0.73l-9.02-9.02c-0.98-0.98-0.98-2.56,0-3.54
			c0.98-0.98,2.56-0.98,3.54,0l7.25,7.25l7.25-7.25c0.98-0.98,2.56-0.98,3.54,0c0.98,0.98,0.98,2.56,0,3.54l-9.02,9.02
			C436.74,239.72,436.1,239.98,435.44,239.98z"/>
	</g>
</g>
<g opacity="0.15">
	<g>
		<path fill="#341472" d="M684.09,225.97c-1.38,0-2.5-1.12-2.5-2.5v-10c0-1.38,1.12-2.5,2.5-2.5s2.5,1.12,2.5,2.5v10
			C686.59,224.85,685.47,225.97,684.09,225.97z M684.09,201.97c-1.38,0-2.5-1.12-2.5-2.5v-10c0-1.38,1.12-2.5,2.5-2.5
			s2.5,1.12,2.5,2.5v10C686.59,200.85,685.47,201.97,684.09,201.97z M674.63,187.43h-10c-1.38,0-2.5-1.12-2.5-2.5s1.12-2.5,2.5-2.5
			h10c1.38,0,2.5,1.12,2.5,2.5S676.01,187.43,674.63,187.43z M650.63,187.43h-10c-1.38,0-2.5-1.12-2.5-2.5s1.12-2.5,2.5-2.5h10
			c1.38,0,2.5,1.12,2.5,2.5S652.01,187.43,650.63,187.43z M626.63,187.43h-3.98c-1.38,0-2.5-1.12-2.5-2.5v-6.02
			c0-1.38,1.12-2.5,2.5-2.5s2.5,1.12,2.5,2.5v3.52h1.48c1.38,0,2.5,1.12,2.5,2.5S628.01,187.43,626.63,187.43z M622.65,167.41
			c-1.38,0-2.5-1.12-2.5-2.5v-10c0-1.38,1.12-2.5,2.5-2.5s2.5,1.12,2.5,2.5v10C625.15,166.29,624.03,167.41,622.65,167.41z"/>
	</g>
	<g>
		<path fill="#341472" d="M684.09,230.97c-0.64,0-1.28-0.24-1.77-0.73l-9.02-9.02c-0.98-0.98-0.98-2.56,0-3.54
			c0.98-0.98,2.56-0.98,3.54,0l7.25,7.25l7.25-7.25c0.98-0.98,2.56-0.98,3.54,0c0.98,0.98,0.98,2.56,0,3.54l-9.02,9.02
			C685.37,230.73,684.73,230.97,684.09,230.97z"/>
	</g>
</g>
<g opacity="0.15">
	<g>
		<path fill="#341472" d="M383.03,492.64c-1.38,0-2.5-1.12-2.5-2.5v-10c0-1.38,1.12-2.5,2.5-2.5s2.5,1.12,2.5,2.5v10
			C385.53,491.53,384.41,492.64,383.03,492.64z M383.03,468.64c-1.38,0-2.5-1.12-2.5-2.5v-10c0-1.38,1.12-2.5,2.5-2.5
			s2.5,1.12,2.5,2.5v10C385.53,467.53,384.41,468.64,383.03,468.64z M424.99,452.61h-10c-1.38,0-2.5-1.12-2.5-2.5s1.12-2.5,2.5-2.5
			h10c1.38,0,2.5,1.12,2.5,2.5S426.38,452.61,424.99,452.61z M400.99,452.61h-10c-1.38,0-2.5-1.12-2.5-2.5s1.12-2.5,2.5-2.5h10
			c1.38,0,2.5,1.12,2.5,2.5S402.38,452.61,400.99,452.61z M435.44,449.06c-1.38,0-2.5-1.12-2.5-2.5v-10c0-1.38,1.12-2.5,2.5-2.5
			s2.5,1.12,2.5,2.5v10C437.94,447.94,436.82,449.06,435.44,449.06z M435.44,425.06c-1.38,0-2.5-1.12-2.5-2.5v-10
			c0-1.38,1.12-2.5,2.5-2.5s2.5,1.12,2.5,2.5v10C437.94,423.94,436.82,425.06,435.44,425.06z"/>
	</g>
	<g>
		<path fill="#341472" d="M444.46,421.09c-0.64,0-1.28-0.24-1.77-0.73l-7.25-7.25l-7.25,7.25c-0.98,0.98-2.56,0.98-3.54,0
			s-0.98-2.56,0-3.54l9.02-9.02c0.98-0.98,2.56-0.98,3.54,0l9.02,9.02c0.98,0.98,0.98,2.56,0,3.54
			C445.74,420.85,445.1,421.09,444.46,421.09z"/>
	</g>
</g>
<g opacity="0.15">
	<g>
		<path fill="#341472" d="M307.31,492.64c-1.38,0-2.5-1.12-2.5-2.5v-10c0-1.38,1.12-2.5,2.5-2.5s2.5,1.12,2.5,2.5v10
			C309.81,491.53,308.69,492.64,307.31,492.64z M307.31,468.64c-1.38,0-2.5-1.12-2.5-2.5v-10c0-1.38,1.12-2.5,2.5-2.5
			s2.5,1.12,2.5,2.5v10C309.81,467.53,308.69,468.64,307.31,468.64z M299.35,452.61h-10c-1.38,0-2.5-1.12-2.5-2.5s1.12-2.5,2.5-2.5
			h10c1.38,0,2.5,1.12,2.5,2.5S300.73,452.61,299.35,452.61z M275.35,452.61h-10c-1.38,0-2.5-1.12-2.5-2.5s1.12-2.5,2.5-2.5h10
			c1.38,0,2.5,1.12,2.5,2.5S276.73,452.61,275.35,452.61z M254.9,449.06c-1.38,0-2.5-1.12-2.5-2.5v-10c0-1.38,1.12-2.5,2.5-2.5
			c1.38,0,2.5,1.12,2.5,2.5v10C257.4,447.94,256.28,449.06,254.9,449.06z M254.9,425.06c-1.38,0-2.5-1.12-2.5-2.5v-10
			c0-1.38,1.12-2.5,2.5-2.5c1.38,0,2.5,1.12,2.5,2.5v10C257.4,423.94,256.28,425.06,254.9,425.06z"/>
	</g>
	<g>
		<path fill="#341472" d="M263.92,421.09c-0.64,0-1.28-0.24-1.77-0.73l-7.25-7.25l-7.25,7.25c-0.98,0.98-2.56,0.98-3.54,0
			c-0.98-0.98-0.98-2.56,0-3.54l9.02-9.02c0.98-0.98,2.56-0.98,3.54,0l9.02,9.02c0.98,0.98,0.98,2.56,0,3.54
			C265.2,420.85,264.56,421.09,263.92,421.09z"/>
	</g>
</g>
</svg>
