<svg width="44" height="44" viewBox="0 0 44 44" fill="none" xmlns="http://www.w3.org/2000/svg">
<path d="M42.8606 18.7176L39.3055 17.424C38.8826 17.2671 38.4966 17.0246 38.1718 16.7116C37.8469 16.3987 37.5901 16.0221 37.4175 15.6054C37.2448 15.1887 37.1601 14.7408 37.1685 14.2898C37.1769 13.8388 37.2782 13.3944 37.4662 12.9844L39.0634 9.55681C37.7687 7.78689 36.209 6.22711 34.439 4.93241L31.0114 6.52961C30.6013 6.71695 30.157 6.8178 29.7062 6.82587C29.2554 6.83393 28.8078 6.74903 28.3913 6.57647C27.9747 6.40391 27.5982 6.14738 27.2852 5.82289C26.9721 5.49839 26.7293 5.11288 26.5718 4.69041L25.2782 1.13081C23.1116 0.796404 20.9065 0.796404 18.7398 1.13081L17.4462 4.69041C17.2893 5.11329 17.0468 5.49924 16.7339 5.8241C16.4209 6.14896 16.0443 6.40574 15.6276 6.57838C15.2109 6.75101 14.763 6.83579 14.312 6.82739C13.8611 6.819 13.4167 6.71763 13.0066 6.52961L9.58345 4.93241C7.81119 6.22585 6.24978 7.78578 4.95465 9.55681L6.55625 12.9844C6.74359 13.3945 6.84444 13.8388 6.85251 14.2896C6.86057 14.7404 6.77567 15.188 6.60311 15.6046C6.43055 16.0211 6.17402 16.3977 5.84953 16.7107C5.52503 17.0237 5.13953 17.2665 4.71705 17.424L1.15745 18.7176C0.818611 20.8839 0.818611 23.0897 1.15745 25.256L4.71705 26.5496C5.14199 26.7038 5.53018 26.9447 5.85689 27.2572C6.1836 27.5696 6.44168 27.9466 6.61469 28.3642C6.7877 28.7819 6.87186 29.2309 6.86179 29.6829C6.85173 30.1348 6.74767 30.5797 6.55625 30.9892L4.95465 34.4124C6.24845 36.1858 7.81002 37.7474 9.58345 39.0412L13.0066 37.4396C13.4168 37.2523 13.8611 37.1514 14.3119 37.1433C14.7627 37.1353 15.2103 37.2202 15.6268 37.3927C16.0434 37.5653 16.4199 37.8218 16.7329 38.1463C17.046 38.4708 17.2888 38.8563 17.4462 39.2788L18.7398 42.8384C20.9061 43.1772 23.112 43.1772 25.2782 42.8384L26.5718 39.2788C26.7299 38.8567 26.973 38.4717 27.2861 38.1475C27.5992 37.8234 27.9757 37.5671 28.3921 37.3946C28.8084 37.2221 29.2558 37.1371 29.7064 37.1449C30.157 37.1526 30.6012 37.2529 31.0114 37.4396L34.439 39.0412C36.2101 37.7461 37.77 36.1847 39.0634 34.4124L37.4662 30.9892C37.2789 30.5791 37.1781 30.1348 37.17 29.684C37.1619 29.2332 37.2468 28.7856 37.4194 28.369C37.5919 27.9525 37.8485 27.576 38.173 27.2629C38.4975 26.9499 38.883 26.7071 39.3055 26.5496L42.8606 25.256C43.1994 23.0897 43.1994 20.8839 42.8606 18.7176ZM22.0002 33.792C19.6642 33.7903 17.3811 33.0957 15.4398 31.7962C13.4985 30.4967 11.9862 28.6507 11.0942 26.4916C10.2022 24.3325 9.97065 21.9573 10.4287 19.6666C10.8868 17.3759 12.014 15.2724 13.6678 13.6224C15.3215 11.9724 17.4274 10.8499 19.7192 10.3969C22.0109 9.94397 24.3855 10.1809 26.5426 11.0777C28.6997 11.9745 30.5424 13.4909 31.8375 15.4351C33.1327 17.3793 33.8221 19.6639 33.8186 22C33.8169 23.5503 33.5098 25.085 32.915 26.5167C32.3201 27.9483 31.4491 29.2487 30.3517 30.3437C29.2542 31.4387 27.9518 32.3068 26.5189 32.8984C25.086 33.4901 23.5505 33.7937 22.0002 33.792Z" fill="#FCA121"/>
<path d="M22.0005 44C20.8602 44 19.7216 43.9117 18.5949 43.736C18.4395 43.7117 18.2935 43.6463 18.172 43.5465C18.0506 43.4466 17.958 43.3161 17.9041 43.1684L16.6017 39.6C16.4837 39.2945 16.3045 39.0163 16.075 38.7826C15.8456 38.5489 15.5708 38.3645 15.2675 38.2409C14.9642 38.1173 14.6388 38.057 14.3113 38.0637C13.9839 38.0704 13.6613 38.144 13.3633 38.28L9.9357 39.8816C9.7943 39.9459 9.6384 39.9716 9.48384 39.9562C9.32928 39.9407 9.18156 39.8846 9.0557 39.7936C7.20123 38.4409 5.56839 36.8081 4.2157 34.9536C4.12467 34.8277 4.06858 34.68 4.05312 34.5255C4.03767 34.3709 4.0634 34.215 4.1277 34.0736L5.7205 30.646C5.86122 30.3484 5.93857 30.0248 5.94765 29.6958C5.95672 29.3667 5.89732 29.0394 5.77322 28.7345C5.64911 28.4296 5.463 28.1538 5.2267 27.9247C4.99039 27.6955 4.70905 27.5179 4.4005 27.4032L0.836499 26.1096C0.688802 26.0557 0.558254 25.9632 0.458433 25.8417C0.358612 25.7202 0.293165 25.5742 0.268899 25.4188C-0.0831225 23.1621 -0.0831225 20.8644 0.268899 18.6076C0.293165 18.4523 0.358612 18.3062 0.458433 18.1848C0.558254 18.0633 0.688802 17.9707 0.836499 17.9168L4.4005 16.6232C4.70602 16.5052 4.98419 16.326 5.21791 16.0965C5.45163 15.8671 5.63597 15.5923 5.7596 15.289C5.88322 14.9857 5.94353 14.6603 5.9368 14.3329C5.93008 14.0054 5.85647 13.6828 5.7205 13.3848L5.2805 12.3816C5.22566 12.2751 5.19315 12.1584 5.18498 12.0389C5.17681 11.9193 5.19314 11.7994 5.23298 11.6864C5.27281 11.5733 5.33531 11.4696 5.41664 11.3816C5.49796 11.2936 5.59641 11.2232 5.70594 11.1745C5.81547 11.1259 5.93377 11.1002 6.0536 11.0989C6.17343 11.0977 6.29225 11.1209 6.40278 11.1671C6.51332 11.2134 6.61324 11.2818 6.69642 11.3681C6.77959 11.4543 6.84428 11.5567 6.8865 11.6688L7.3265 12.6544C7.56345 13.1746 7.6906 13.738 7.70003 14.3095C7.70945 14.881 7.60094 15.4483 7.38128 15.976C7.16161 16.5037 6.83551 16.9804 6.42333 17.3765C6.01115 17.7725 5.52176 18.0792 4.9857 18.2776L1.9057 19.3908C1.68675 21.1344 1.69711 22.8991 1.9365 24.64L5.0165 25.7532C5.55567 25.95 6.04803 26.2568 6.46232 26.654C6.87662 27.0513 7.20379 27.5303 7.42308 28.0607C7.64237 28.5912 7.74898 29.1614 7.73614 29.7352C7.7233 30.309 7.59129 30.8739 7.3485 31.394L5.9581 34.32C7.02923 35.7209 8.28088 36.974 9.6805 38.0468L12.6285 36.674C13.149 36.4339 13.7135 36.3041 14.2866 36.2926C14.8596 36.2811 15.4289 36.3882 15.9586 36.6072C16.4883 36.8262 16.967 37.1523 17.3646 37.5651C17.7623 37.9779 18.0703 38.4685 18.2693 39.006L19.3825 42.086C21.1233 42.3148 22.8865 42.3148 24.6273 42.086L25.7405 39.006C25.9396 38.469 26.2474 37.979 26.6448 37.5666C27.0421 37.1542 27.5203 36.8283 28.0495 36.6093C28.5787 36.3904 29.1474 36.2831 29.72 36.2943C30.2925 36.3054 30.8566 36.4347 31.3769 36.674L34.3205 38.0468C35.8512 36.8719 37.2056 35.4835 38.3421 33.924C38.4798 33.7355 38.6867 33.6095 38.9174 33.5736C39.148 33.5377 39.3834 33.5949 39.5719 33.7326C39.7604 33.8703 39.8864 34.0772 39.9223 34.3079C39.9582 34.5385 39.901 34.7739 39.7633 34.9624C38.4185 36.8162 36.793 38.4491 34.9453 39.8024C34.8194 39.8934 34.6717 39.9495 34.5172 39.965C34.3626 39.9804 34.2067 39.9547 34.0653 39.8904L30.6201 38.28C30.3221 38.144 29.9995 38.0704 29.6721 38.0637C29.3446 38.057 29.0192 38.1173 28.7159 38.2409C28.4126 38.3645 28.1378 38.5489 27.9084 38.7826C27.6789 39.0163 27.4997 39.2945 27.3817 39.6L26.0881 43.1596C26.0342 43.3073 25.9416 43.4378 25.8202 43.5377C25.6987 43.6375 25.5527 43.7029 25.3973 43.7272C24.2737 43.9052 23.1381 43.9964 22.0005 44Z" fill="#380D75"/>
<path d="M37.9766 32.9648C37.8128 32.9647 37.6524 32.9189 37.5133 32.8327C37.3741 32.7464 37.2618 32.623 37.189 32.4764L36.6566 31.4072C36.4142 30.886 36.2823 30.3203 36.2693 29.7456C36.2564 29.171 36.3626 28.5998 36.5813 28.0683C36.7999 27.5367 37.1263 27.0562 37.5399 26.657C37.9534 26.2578 38.4452 25.9485 38.9842 25.7488L42.0642 24.6356C42.2886 22.8945 42.2886 21.1318 42.0642 19.3908L38.9842 18.2776C38.4443 18.0823 37.9511 17.7766 37.536 17.3801C37.1209 16.9835 36.793 16.5049 36.5732 15.9746C36.3533 15.4442 36.2464 14.8739 36.2593 14.3C36.2721 13.7261 36.4044 13.1611 36.6478 12.6412L38.025 9.67998C36.9548 8.29192 35.7095 7.04814 34.3202 5.97958L31.3722 7.35678C30.8522 7.60012 30.2873 7.73242 29.7133 7.74527C29.1394 7.75812 28.5691 7.65122 28.0388 7.43139C27.5085 7.21157 27.0298 6.88364 26.6333 6.46852C26.2367 6.0534 25.9311 5.56021 25.7358 5.02038L24.6226 1.94038C22.875 1.72029 21.1063 1.7262 19.3602 1.95798L18.247 5.03798C18.0512 5.57796 17.745 6.07123 17.3481 6.48637C16.9511 6.90151 16.4721 7.22943 15.9414 7.44923C15.4108 7.66902 14.8401 7.77588 14.2659 7.763C13.6917 7.75011 13.1264 7.61776 12.6062 7.37438L9.68016 5.97958C8.14472 7.16031 6.78603 8.55456 5.64536 10.12C5.50591 10.3084 5.29731 10.4338 5.06544 10.4684C4.83357 10.5031 4.59743 10.4442 4.40896 10.3048C4.2205 10.1653 4.09515 9.95673 4.0605 9.72486C4.02584 9.49299 4.08471 9.25685 4.22416 9.06838C5.52142 7.29237 7.07547 5.71904 8.83536 4.39998C9.02277 4.26042 9.24458 4.17442 9.47708 4.15117C9.70958 4.12792 9.94403 4.1683 10.1554 4.26798L13.3586 5.75958C13.6561 5.9003 13.9797 5.97766 14.3088 5.98673C14.6378 5.99581 14.9652 5.93641 15.2701 5.8123C15.575 5.68819 15.8507 5.50209 16.0799 5.26578C16.3091 5.02948 16.4867 4.74813 16.6014 4.43958L17.895 0.879983C17.9456 0.728184 18.0367 0.59307 18.1584 0.489181C18.2801 0.385292 18.4279 0.316561 18.5858 0.290383C20.8425 -0.0616381 23.1402 -0.0616381 25.397 0.290383C25.5548 0.316561 25.7026 0.385292 25.8243 0.489181C25.946 0.59307 26.0371 0.728184 26.0878 0.879983L27.3814 4.39998C27.4933 4.71031 27.6688 4.99387 27.8966 5.23253C28.1244 5.47118 28.3995 5.65968 28.7043 5.78599C29.009 5.91229 29.3368 5.97361 29.6667 5.96603C29.9965 5.95846 30.3211 5.88215 30.6198 5.74198L34.0474 4.14478C34.1888 4.08048 34.3447 4.05475 34.4992 4.07021C34.6538 4.08566 34.8015 4.14175 34.9274 4.23278C36.7761 5.58483 38.4018 7.21794 39.7454 9.07278C39.8364 9.19865 39.8925 9.34636 39.9079 9.50093C39.9234 9.65549 39.8977 9.81139 39.8334 9.95278L38.2362 13.3804C38.0962 13.6778 38.0194 14.0009 38.0107 14.3295C38.002 14.658 38.0616 14.9848 38.1856 15.2892C38.3097 15.5936 38.4956 15.8689 38.7315 16.0977C38.9674 16.3266 39.2482 16.504 39.5562 16.6188L43.1158 17.9124C43.2643 17.9657 43.3957 18.0579 43.4964 18.1794C43.597 18.301 43.6631 18.4473 43.6878 18.6032C44.0398 20.8599 44.0398 23.1576 43.6878 25.4144C43.6631 25.5702 43.597 25.7166 43.4964 25.8381C43.3957 25.9597 43.2643 26.0519 43.1158 26.1052L39.6002 27.4032C39.2938 27.5201 39.0148 27.6988 38.7804 27.928C38.5459 28.1573 38.3611 28.4322 38.2373 28.7359C38.1135 29.0395 38.0535 29.3654 38.0609 29.6932C38.0682 30.021 38.1429 30.3438 38.2802 30.6416L38.7642 31.68C38.8162 31.7836 38.8473 31.8966 38.8555 32.0122C38.8638 32.1279 38.8491 32.2441 38.8123 32.3541C38.7755 32.4641 38.7173 32.5658 38.6411 32.6532C38.5649 32.7406 38.4721 32.8121 38.3682 32.8636C38.2473 32.9273 38.1132 32.9619 37.9766 32.9648Z" fill="#380D75"/>
<path d="M21.9997 34.7028C19.4899 34.7054 17.0357 33.9637 14.9475 32.5716C12.8592 31.1794 11.2307 29.1992 10.2679 26.8815C9.30502 24.5638 9.05107 22.0126 9.53814 19.5505C10.0252 17.0885 11.2314 14.8262 13.0042 13.0497C14.7771 11.2731 17.0369 10.0622 19.4979 9.57002C21.9589 9.07783 24.5107 9.32647 26.8304 10.2845C29.1501 11.2425 31.1336 12.8669 32.5302 14.9523C33.9267 17.0376 34.6735 19.4902 34.6761 22C34.6749 25.3641 33.3398 28.5904 30.9636 30.9716C28.5873 33.3529 25.3637 34.6947 21.9997 34.7028ZM21.9997 11.088C19.8367 11.0854 17.7216 11.7246 15.9221 12.9248C14.1226 14.1249 12.7197 15.832 11.891 17.8299C11.0622 19.8279 10.8449 22.0268 11.2666 24.1482C11.6882 26.2697 12.7299 28.2184 14.2597 29.7476C15.7894 31.2767 17.7385 32.3176 19.8602 32.7384C21.9818 33.1592 24.1806 32.941 26.1782 32.1114C28.1758 31.2819 29.8823 29.8783 31.0817 28.0783C32.2812 26.2784 32.9195 24.163 32.9161 22C32.9091 19.1073 31.7566 16.3352 29.7108 14.2902C27.6649 12.2452 24.8923 11.0938 21.9997 11.088Z" fill="#380D75"/>
<path d="M17.1604 25.344C17.0439 25.3435 16.9287 25.32 16.8215 25.2746C16.7142 25.2293 16.6171 25.1632 16.5356 25.08L14.0804 22.6072C13.9985 22.5255 13.9336 22.4284 13.8893 22.3216C13.8451 22.2148 13.8223 22.1003 13.8223 21.9846C13.8223 21.869 13.8451 21.7545 13.8893 21.6476C13.9336 21.5408 13.9985 21.4437 14.0804 21.362L16.5576 18.8892C16.7247 18.7372 16.9439 18.6554 17.1697 18.6605C17.3955 18.6657 17.6107 18.7575 17.7708 18.9169C17.9308 19.0764 18.0233 19.2913 18.0293 19.5171C18.0353 19.7429 17.9541 19.9624 17.8028 20.13L15.9284 22L17.7808 23.8524C17.9001 23.9759 17.9808 24.1316 18.0127 24.3003C18.0447 24.4691 18.0266 24.6435 17.9606 24.8021C17.8947 24.9606 17.7838 25.0964 17.6416 25.1927C17.4994 25.289 17.3321 25.3416 17.1604 25.344Z" fill="#341472"/>
<path d="M26.8617 25.344C26.6869 25.345 26.5158 25.294 26.3701 25.1973C26.2244 25.1007 26.1109 24.9629 26.0438 24.8015C25.9768 24.64 25.9594 24.4623 25.9938 24.2909C26.0281 24.1196 26.1128 23.9623 26.2369 23.8392L28.0937 22L26.2369 20.1432C26.0855 19.9755 26.0044 19.7561 26.0103 19.5303C26.0163 19.3044 26.1089 19.0896 26.2689 18.9301C26.4289 18.7707 26.6441 18.6788 26.8699 18.6737C27.0958 18.6685 27.315 18.7504 27.4821 18.9024L29.9593 21.3752C30.0411 21.4569 30.106 21.554 30.1503 21.6608C30.1946 21.7676 30.2174 21.8822 30.2174 21.9978C30.2174 22.1135 30.1946 22.228 30.1503 22.3348C30.106 22.4416 30.0411 22.5387 29.9593 22.6204L27.4821 25.08C27.4011 25.1626 27.3046 25.2285 27.1982 25.2738C27.0917 25.3191 26.9774 25.3429 26.8617 25.344Z" fill="#341472"/>
<path d="M20.7153 26.708C20.6195 26.707 20.5244 26.6906 20.4337 26.6596C20.2135 26.5845 20.032 26.4252 19.9289 26.2166C19.8259 26.0079 19.8096 25.767 19.8837 25.5464L22.4709 17.9168C22.5079 17.8073 22.5661 17.7062 22.6422 17.6192C22.7182 17.5322 22.8107 17.461 22.9143 17.4097C23.0179 17.3584 23.1305 17.3281 23.2458 17.3203C23.3611 17.3126 23.4768 17.3276 23.5863 17.3646C23.6958 17.4016 23.797 17.4598 23.884 17.5359C23.971 17.6119 24.0422 17.7044 24.0934 17.808C24.1447 17.9115 24.1751 18.0242 24.1828 18.1395C24.1906 18.2548 24.1755 18.3705 24.1385 18.48L21.5601 26.1096C21.5006 26.2859 21.3868 26.4387 21.235 26.5462C21.0833 26.6537 20.9013 26.7104 20.7153 26.708Z" fill="#341472"/>
</svg>
