<svg width="44" height="44" viewBox="0 0 44 44" fill="none" xmlns="http://www.w3.org/2000/svg">
<g clip-path="url(#clip0)">
<path d="M42.6008 18.7264L39.0412 17.4328C38.6183 17.2759 38.2324 17.0334 37.9075 16.7205C37.5826 16.4075 37.3259 16.0309 37.1532 15.6142C36.9806 15.1975 36.8958 14.7496 36.9042 14.2986C36.9126 13.8476 37.014 13.4032 37.202 12.9932L38.7992 9.56123C37.5042 7.78883 35.9428 6.22743 34.1704 4.93243L30.7428 6.53403C30.3324 6.72143 29.8878 6.82233 29.4367 6.83044C28.9855 6.83854 28.5376 6.75369 28.1207 6.58115C27.7038 6.40862 27.3269 6.1521 27.0135 5.82757C26.7 5.50305 26.4567 5.11746 26.2988 4.69483L25.0052 1.13523C22.8432 0.798266 20.642 0.798266 18.48 1.13523L17.16 4.69483C17.002 5.11746 16.7588 5.50305 16.4453 5.82757C16.1319 6.1521 15.755 6.40862 15.3381 6.58115C14.9212 6.75369 14.4732 6.83854 14.0221 6.83044C13.571 6.82233 13.1264 6.72143 12.716 6.53403L9.2884 4.93243C7.51912 6.22813 5.96072 7.78949 4.6684 9.56123L6.27 12.9932C6.45734 13.4033 6.55819 13.8476 6.56625 14.2984C6.57432 14.7492 6.48942 15.1969 6.31686 15.6134C6.1443 16.03 5.88777 16.4065 5.56328 16.7195C5.23878 17.0325 4.85327 17.2754 4.4308 17.4328L0.879996 18.7264C0.543358 20.8959 0.543358 23.1042 0.879996 25.2736L4.444 26.5672C4.86894 26.7214 5.25713 26.9624 5.58384 27.2748C5.91055 27.5872 6.16863 27.9642 6.34164 28.3819C6.51465 28.7995 6.5988 29.2486 6.58874 29.7005C6.57868 30.1524 6.47462 30.5973 6.2832 31.0068L4.6816 34.4388C5.97259 36.2102 7.52948 37.7716 9.2972 39.0676L12.7248 37.466C13.1348 37.2801 13.5786 37.1803 14.0287 37.173C14.4788 37.1656 14.9257 37.2508 15.3415 37.4232C15.7573 37.5957 16.1333 37.8517 16.4461 38.1754C16.759 38.4992 17.0019 38.8837 17.16 39.3052L18.48 42.8648C20.6478 43.2036 22.855 43.2036 25.0228 42.8648L26.3164 39.3052C26.4743 38.8826 26.7176 38.497 27.0311 38.1725C27.3445 37.848 27.7214 37.5914 28.1383 37.4189C28.5552 37.2464 29.0031 37.1615 29.4543 37.1696C29.9054 37.1777 30.35 37.2786 30.7604 37.466L34.188 39.0676C35.9541 37.7712 37.5095 36.2099 38.7992 34.4388L37.202 31.0068C37.0146 30.5967 36.9138 30.1524 36.9057 29.7016C36.8977 29.2508 36.9826 28.8032 37.1551 28.3867C37.3277 27.9701 37.5842 27.5936 37.9087 27.2806C38.2332 26.9675 38.6187 26.7247 39.0412 26.5672L42.6008 25.2736C42.9396 23.1044 42.9396 20.8957 42.6008 18.7264ZM29.92 19.514L21.4544 27.9576C21.0973 28.3131 20.614 28.5127 20.1102 28.5127C19.6064 28.5127 19.123 28.3131 18.766 27.9576L14.102 23.2892C13.8803 23.0666 13.7559 22.7652 13.7559 22.451C13.7559 22.1369 13.8803 21.8355 14.102 21.6128L16.0996 19.6152C16.2096 19.5043 16.3405 19.4162 16.4848 19.3561C16.629 19.296 16.7837 19.2651 16.94 19.2651C17.0963 19.2651 17.251 19.296 17.3952 19.3561C17.5394 19.4162 17.6704 19.5043 17.7804 19.6152L20.1124 21.9472L26.2196 15.84C26.443 15.6181 26.7451 15.4935 27.06 15.4935C27.3749 15.4935 27.677 15.6181 27.9004 15.84L29.92 17.8332C30.1419 18.0566 30.2665 18.3587 30.2665 18.6736C30.2665 18.9885 30.1419 19.2906 29.92 19.514Z" fill="#52CDB7"/>
<path d="M26.114 41.4348C26.0106 41.4344 25.9079 41.4166 25.8104 41.382C25.5919 41.3017 25.4141 41.1381 25.3159 40.927C25.2178 40.7159 25.2073 40.4744 25.2868 40.2556L25.7268 39.006C25.9254 38.4681 26.2331 37.9771 26.6305 37.5638C27.028 37.1505 27.5066 36.8239 28.0364 36.6045C28.5661 36.3851 29.1355 36.2776 29.7088 36.2888C30.2821 36.3 30.8468 36.4297 31.3676 36.6696L34.32 38.0468C35.7196 36.9725 36.9725 35.7196 38.0468 34.32L36.6696 31.3676C36.4318 30.8475 36.3039 30.2839 36.2938 29.7122C36.2837 29.1404 36.3917 28.5726 36.611 28.0445C36.8302 27.5163 37.1561 27.039 37.5682 26.6425C37.9803 26.246 38.4698 25.9388 39.006 25.74L42.086 24.6268C42.3148 22.8831 42.3148 21.1169 42.086 19.3732L39.006 18.26C38.4681 18.0614 37.9771 17.7538 37.5638 17.3563C37.1505 16.9588 36.8239 16.4802 36.6045 15.9505C36.385 15.4207 36.2776 14.8513 36.2888 14.278C36.3 13.7047 36.4296 13.14 36.6696 12.6192L38.0468 9.68002C36.9735 8.27955 35.7205 7.02652 34.32 5.95322L31.372 7.33042C30.8517 7.56892 30.2877 7.69743 29.7154 7.70789C29.1431 7.71835 28.5749 7.61055 28.0462 7.39122C27.5175 7.17189 27.0397 6.84577 26.6429 6.43328C26.2461 6.02079 25.9387 5.5308 25.74 4.99402L24.64 1.93162C22.725 1.68218 20.7843 1.70588 18.876 2.00202C18.7619 2.02051 18.6452 2.01634 18.5327 1.98975C18.4202 1.96316 18.3141 1.91467 18.2203 1.84705C18.1265 1.77943 18.047 1.69401 17.9862 1.59565C17.9255 1.49729 17.8847 1.38793 17.8662 1.27382C17.8477 1.1597 17.8519 1.04305 17.8785 0.930546C17.9051 0.818038 17.9536 0.711869 18.0212 0.618101C18.0888 0.524332 18.1742 0.4448 18.2726 0.384046C18.3709 0.323292 18.4803 0.282506 18.5944 0.264016C20.8512 -0.0880053 23.1489 -0.0880053 25.4056 0.264016C25.5618 0.287549 25.7087 0.352663 25.831 0.45253C25.9533 0.552396 26.0465 0.683336 26.1008 0.831616L27.3944 4.40002C27.5129 4.70569 27.6926 4.98394 27.9224 5.2177C28.1523 5.45145 28.4275 5.63578 28.7311 5.75938C29.0348 5.88298 29.3605 5.94325 29.6882 5.93648C30.016 5.92971 30.3389 5.85605 30.6372 5.72002L34.0648 4.13602C34.2062 4.07171 34.3621 4.04598 34.5167 4.06144C34.6712 4.07689 34.8189 4.13299 34.9448 4.22402C36.8008 5.57496 38.4339 7.20805 39.7848 9.06402C39.8758 9.18988 39.9319 9.3376 39.9474 9.49216C39.9628 9.64672 39.9371 9.80262 39.8728 9.94402L38.28 13.3628C38.144 13.6611 38.0703 13.984 38.0635 14.3118C38.0568 14.6396 38.117 14.9653 38.2406 15.2689C38.3642 15.5725 38.5486 15.8477 38.7823 16.0776C39.0161 16.3075 39.2943 16.4871 39.6 16.6056L43.164 17.8992C43.3123 17.9535 43.4432 18.0467 43.5431 18.169C43.643 18.2913 43.7081 18.4383 43.7316 18.5944C44.0836 20.8512 44.0836 23.1489 43.7316 25.4056C43.7081 25.5618 43.643 25.7087 43.5431 25.831C43.4432 25.9533 43.3123 26.0465 43.164 26.1008L39.6 27.3944C39.2943 27.5129 39.0161 27.6926 38.7823 27.9224C38.5486 28.1523 38.3642 28.4275 38.2406 28.7311C38.117 29.0348 38.0568 29.3605 38.0635 29.6882C38.0703 30.016 38.144 30.3389 38.28 30.6372L39.8816 34.0648C39.9459 34.2062 39.9716 34.3621 39.9562 34.5167C39.9407 34.6712 39.8846 34.819 39.7936 34.9448C38.4427 36.8008 36.8096 38.4339 34.9536 39.7848C34.8277 39.8758 34.68 39.9319 34.5255 39.9474C34.3709 39.9629 34.215 39.9371 34.0736 39.8728L30.6372 38.28C30.3389 38.144 30.016 38.0703 29.6882 38.0636C29.3605 38.0568 29.0348 38.1171 28.7311 38.2407C28.4275 38.3643 28.1523 38.5486 27.9224 38.7823C27.6926 39.0161 27.5129 39.2943 27.3944 39.6L26.9544 40.8496C26.8929 41.0227 26.7788 41.1721 26.6281 41.2771C26.4774 41.382 26.2976 41.4372 26.114 41.4348Z" fill="#380D75"/>
<path d="M22 44C20.8597 44 19.7211 43.9117 18.5944 43.736C18.4383 43.7125 18.2913 43.6474 18.169 43.5475C18.0467 43.4476 17.9535 43.3167 17.8992 43.1684L16.6056 39.6C16.4871 39.2943 16.3074 39.0161 16.0776 38.7823C15.8477 38.5486 15.5725 38.3642 15.2689 38.2406C14.9652 38.117 14.6395 38.0568 14.3118 38.0635C13.984 38.0703 13.6611 38.144 13.3628 38.28L9.9352 39.864C9.7938 39.9283 9.6379 39.954 9.48334 39.9386C9.32878 39.9231 9.18106 39.867 9.0552 39.776C7.19923 38.4251 5.56614 36.792 4.2152 34.936C4.12417 34.8101 4.06808 34.6624 4.05262 34.5079C4.03717 34.3533 4.0629 34.1974 4.1272 34.056L5.72 30.6372C5.85936 30.3394 5.93564 30.016 5.94404 29.6873C5.95245 29.3587 5.8928 29.0318 5.76884 28.7273C5.64488 28.4227 5.45929 28.1471 5.22373 27.9178C4.98817 27.6884 4.70772 27.5102 4.4 27.3944L0.836001 26.1008C0.686899 26.0472 0.555049 25.9542 0.45437 25.8319C0.353691 25.7095 0.28792 25.5622 0.264001 25.4056C-0.0880206 23.1488 -0.0880206 20.8512 0.264001 18.5944C0.287534 18.4383 0.352648 18.2913 0.452515 18.169C0.552381 18.0467 0.68332 17.9535 0.831601 17.8992L4.4 16.6056C4.70568 16.4871 4.98393 16.3074 5.21768 16.0776C5.45144 15.8477 5.63577 15.5725 5.75937 15.2689C5.88297 14.9652 5.94323 14.6395 5.93646 14.3118C5.92969 13.984 5.85603 13.6611 5.72 13.3628L4.136 9.9352C4.0717 9.7938 4.04597 9.6379 4.06142 9.48334C4.07688 9.32878 4.13297 9.18106 4.224 9.0552C5.57494 7.19923 7.20803 5.56614 9.064 4.2152C9.18986 4.12417 9.33758 4.06808 9.49214 4.05262C9.6467 4.03716 9.8026 4.06289 9.944 4.1272L13.3628 5.72C13.6611 5.85603 13.984 5.92969 14.3118 5.93646C14.6395 5.94323 14.9652 5.88297 15.2689 5.75937C15.5725 5.63577 15.8477 5.45144 16.0776 5.21768C16.3074 4.98393 16.4871 4.70568 16.6056 4.4L16.984 3.3572C17.0639 3.13781 17.2277 2.95916 17.4394 2.86056C17.6511 2.76195 17.8932 2.75146 18.1126 2.8314C18.332 2.91133 18.5106 3.07515 18.6092 3.2868C18.7078 3.49845 18.7183 3.74061 18.6384 3.96L18.26 5.0028C18.0614 5.54071 17.7537 6.03173 17.3563 6.44502C16.9588 6.8583 16.4802 7.18492 15.9504 7.40434C15.4207 7.62376 14.8513 7.73124 14.278 7.72003C13.7047 7.70882 13.14 7.57916 12.6192 7.3392L9.68 5.9532C8.28124 7.02844 7.02844 8.28124 5.9532 9.68L7.3304 12.6324C7.56818 13.1525 7.69611 13.7161 7.7062 14.2879C7.71629 14.8596 7.60832 15.4274 7.38904 15.9555C7.16976 16.4837 6.84389 16.961 6.43179 17.3575C6.01969 17.754 5.53023 18.0612 4.994 18.26L1.9316 19.36C1.70049 21.1124 1.70049 22.8876 1.9316 24.64L5.0116 25.7532C5.55157 25.949 6.04484 26.2551 6.45999 26.6521C6.87513 27.049 7.20305 27.5281 7.42284 28.0587C7.64264 28.5894 7.7495 29.16 7.73662 29.7342C7.72373 30.3085 7.59138 30.8737 7.348 31.394L5.9532 34.32C7.02749 35.7196 8.28041 36.9725 9.68 38.0468L12.6324 36.6696C13.1525 36.4318 13.7161 36.3039 14.2879 36.2938C14.8596 36.2837 15.4274 36.3917 15.9555 36.611C16.4837 36.8302 16.961 37.1561 17.3575 37.5682C17.754 37.9803 18.0612 38.4698 18.26 39.006L19.3732 42.086C21.2882 42.3354 23.2289 42.3117 25.1372 42.0156C25.3706 41.98 25.6086 42.0386 25.7988 42.1785C25.989 42.3183 26.1158 42.528 26.1514 42.7614C26.187 42.9948 26.1284 43.2328 25.9885 43.423C25.8487 43.6132 25.639 43.74 25.4056 43.7756C24.2779 43.938 23.1393 44.0131 22 44Z" fill="#380D75"/>
<path d="M20.1124 29.392C19.3778 29.3986 18.6706 29.1138 18.1456 28.6L13.4772 23.914C13.09 23.5256 12.8726 22.9995 12.8726 22.451C12.8726 21.9026 13.09 21.3765 13.4772 20.988L15.4748 18.9904C15.8625 18.6035 16.3879 18.3862 16.9356 18.3862C17.4833 18.3862 18.0087 18.6035 18.3964 18.9904L20.108 20.702L25.5992 15.2152C25.7906 15.0226 26.0182 14.8697 26.2689 14.7654C26.5196 14.6611 26.7885 14.6074 27.06 14.6074C27.3316 14.6074 27.6004 14.6611 27.8511 14.7654C28.1018 14.8697 28.3294 15.0226 28.5208 15.2152L30.5228 17.2128C30.9097 17.6005 31.127 18.1259 31.127 18.6736C31.127 19.2214 30.9097 19.7467 30.5228 20.1344L22.0792 28.6C21.5539 29.1134 20.8469 29.3981 20.1124 29.392ZM16.94 20.152C16.8993 20.1512 16.8589 20.1586 16.8211 20.1737C16.7833 20.1888 16.7489 20.2114 16.72 20.24L14.7224 22.2376C14.6644 22.2961 14.6318 22.3752 14.6318 22.4576C14.6318 22.54 14.6644 22.6191 14.7224 22.6776L19.3908 27.3416C19.4853 27.4369 19.5977 27.5125 19.7216 27.5641C19.8454 27.6157 19.9782 27.6422 20.1124 27.6422C20.2466 27.6422 20.3794 27.6157 20.5033 27.5641C20.6271 27.5125 20.7395 27.4369 20.834 27.3416L29.2776 18.8892C29.3356 18.8307 29.3682 18.7516 29.3682 18.6692C29.3682 18.5868 29.3356 18.5077 29.2776 18.4492L27.28 16.456C27.2215 16.398 27.1424 16.3654 27.06 16.3654C26.9776 16.3654 26.8985 16.398 26.84 16.456L20.7328 22.5676C20.5645 22.7267 20.3418 22.8153 20.1102 22.8153C19.8787 22.8153 19.6559 22.7267 19.4876 22.5676L17.16 20.24C17.1318 20.2101 17.0977 20.1865 17.0598 20.1706C17.0219 20.1547 16.9811 20.1468 16.94 20.1476V20.152Z" fill="#380D75"/>
</g>
<defs>
<clipPath id="clip0">
<rect width="44" height="44" fill="white"/>
</clipPath>
</defs>
</svg>
