<svg width="44" height="44" viewBox="0 0 44 44" fill="none" xmlns="http://www.w3.org/2000/svg">
<g clip-path="url(#clip0)">
<path d="M11.3427 13.3936C13.0583 13.3936 14.4491 12.0028 14.4491 10.2872C14.4491 8.57157 13.0583 7.18079 11.3427 7.18079C9.62711 7.18079 8.23633 8.57157 8.23633 10.2872C8.23633 12.0028 9.62711 13.3936 11.3427 13.3936Z" fill="#B37DE6"/>
<path d="M11.343 22.1188C13.8383 22.1225 16.2578 21.261 18.1894 19.6812C17.3365 18.7044 16.2845 17.9216 15.104 17.3851C13.9235 16.8487 12.6418 16.5712 11.3452 16.5712C10.0485 16.5712 8.76685 16.8487 7.58634 17.3851C6.40583 17.9216 5.35381 18.7044 4.50098 19.6812C6.43119 21.2604 8.84907 22.1218 11.343 22.1188Z" fill="#B37DE6"/>
<path d="M32.666 34.3376C34.3816 34.3376 35.7724 32.9468 35.7724 31.2312C35.7724 29.5156 34.3816 28.1248 32.666 28.1248C30.9504 28.1248 29.5596 29.5156 29.5596 31.2312C29.5596 32.9468 30.9504 34.3376 32.666 34.3376Z" fill="#FCA121"/>
<path d="M32.6657 43.0628C35.1596 43.0658 37.5775 42.2044 39.5077 40.6252C38.6541 39.6498 37.6018 38.868 36.4214 38.3324C35.241 37.7969 33.9598 37.5198 32.6635 37.5198C31.3673 37.5198 30.0861 37.7969 28.9056 38.3324C27.7252 38.868 26.673 39.6498 25.8193 40.6252C27.7513 42.2044 30.1705 43.0658 32.6657 43.0628Z" fill="#FCA121"/>
<path d="M35.7629 16.2272C35.5295 16.2272 35.3057 16.1345 35.1407 15.9694C34.9756 15.8044 34.8829 15.5806 34.8829 15.3472V9.05077H28.5997C28.3663 9.05077 28.1425 8.95806 27.9775 8.79303C27.8124 8.62799 27.7197 8.40416 27.7197 8.17077C27.7197 7.93738 27.8124 7.71355 27.9775 7.54852C28.1425 7.38349 28.3663 7.29077 28.5997 7.29077H35.7629C35.9963 7.29077 36.2201 7.38349 36.3852 7.54852C36.5502 7.71355 36.6429 7.93738 36.6429 8.17077V15.3472C36.6429 15.5806 36.5502 15.8044 36.3852 15.9694C36.2201 16.1345 35.9963 16.2272 35.7629 16.2272Z" fill="#380D75"/>
<path d="M15.8046 36.6872H8.12219C7.8888 36.6872 7.66497 36.5945 7.49993 36.4294C7.3349 36.2644 7.24219 36.0406 7.24219 35.8072V28.6C7.24219 28.3666 7.3349 28.1427 7.49993 27.9777C7.66497 27.8127 7.8888 27.72 8.12219 27.72C8.35558 27.72 8.57941 27.8127 8.74444 27.9777C8.90947 28.1427 9.00219 28.3666 9.00219 28.6V34.9272H15.8046C16.038 34.9272 16.2618 35.0199 16.4268 35.1849C16.5919 35.35 16.6846 35.5738 16.6846 35.8072C16.6846 36.0406 16.5919 36.2644 16.4268 36.4294C16.2618 36.5945 16.038 36.6872 15.8046 36.6872Z" fill="#380D75"/>
<path d="M11.3343 22.7304C8.59531 22.7289 5.94938 21.7365 3.88507 19.9364C3.78269 19.8452 3.70076 19.7333 3.64467 19.6082C3.58857 19.4831 3.55957 19.3475 3.55957 19.2104C3.55957 19.0733 3.58857 18.9377 3.64467 18.8126C3.70076 18.6874 3.78269 18.5756 3.88507 18.4844C5.96054 16.675 8.62409 15.6836 11.3775 15.6958C14.1309 15.7079 16.7856 16.7227 18.8451 18.5504C18.9389 18.6328 19.0142 18.7344 19.0658 18.8482C19.1173 18.962 19.1441 19.0854 19.1443 19.2104C19.1435 19.3346 19.1164 19.4572 19.0649 19.5702C19.0133 19.6832 18.9384 19.784 18.8451 19.866C16.7774 21.7095 14.1044 22.7289 11.3343 22.7304ZM5.80787 19.2104C7.42389 20.3557 9.35573 20.9709 11.3365 20.9709C13.3172 20.9709 15.249 20.3557 16.8651 19.2104C15.249 18.0651 13.3172 17.4499 11.3365 17.4499C9.35573 17.4499 7.42389 18.0651 5.80787 19.2104Z" fill="#380D75"/>
<path d="M11.3348 14.52C10.5003 14.52 9.68446 14.2725 8.99055 13.8089C8.29664 13.3452 7.75581 12.6862 7.43643 11.9152C7.11706 11.1442 7.0335 10.2957 7.19631 9.47721C7.35913 8.65869 7.76101 7.90683 8.35113 7.3167C8.94125 6.72658 9.69311 6.32471 10.5116 6.16189C11.3302 5.99908 12.1786 6.08264 12.9496 6.40201C13.7206 6.72138 14.3797 7.26222 14.8433 7.95613C15.307 8.65004 15.5544 9.46585 15.5544 10.3004C15.5533 11.4192 15.1083 12.4918 14.3173 13.2828C13.5262 14.0739 12.4536 14.5188 11.3348 14.52ZM11.3348 7.84081C10.8484 7.84081 10.3728 7.98507 9.96836 8.25533C9.56388 8.52559 9.24862 8.90973 9.06246 9.35916C8.8763 9.8086 8.82759 10.3031 8.9225 10.7803C9.0174 11.2574 9.25166 11.6956 9.59564 12.0396C9.93962 12.3836 10.3779 12.6178 10.855 12.7128C11.3321 12.8077 11.8267 12.7589 12.2761 12.5728C12.7255 12.3866 13.1097 12.0714 13.3799 11.6669C13.6502 11.2624 13.7944 10.7869 13.7944 10.3004C13.7956 9.97647 13.7329 9.65547 13.6098 9.35579C13.4868 9.05612 13.3059 8.78364 13.0774 8.55397C12.849 8.32429 12.5775 8.14191 12.2785 8.01728C11.9794 7.89264 11.6588 7.82819 11.3348 7.82761V7.84081Z" fill="#380D75"/>
<path d="M2.36255 17.6352C2.20898 17.6343 2.05833 17.5932 1.92556 17.516C1.79279 17.4388 1.68254 17.3282 1.60575 17.1952C0.578141 15.4749 0.0249854 13.5129 0.00265696 11.5091C-0.0196715 9.50534 0.489626 7.53148 1.47865 5.78867C2.46767 4.04587 3.90106 2.59642 5.63273 1.58804C7.36441 0.579661 9.33247 0.0484009 11.3364 0.0484009C13.3402 0.0484009 15.3083 0.579661 17.04 1.58804C18.7716 2.59642 20.205 4.04587 21.1941 5.78867C22.1831 7.53148 22.6924 9.50534 22.67 11.5091C22.6477 13.5129 22.0946 15.4749 21.067 17.1952C20.9468 17.3959 20.7517 17.5407 20.5248 17.5976C20.2979 17.6545 20.0577 17.619 19.857 17.4988C19.6562 17.3786 19.5115 17.1836 19.4546 16.9567C19.3976 16.7298 19.4332 16.4895 19.5534 16.2888C20.4216 14.8356 20.889 13.1782 20.9079 11.4855C20.9269 9.79285 20.4968 8.1254 19.6614 6.65311C18.826 5.18083 17.6151 3.95636 16.1523 3.10449C14.6895 2.25262 13.0269 1.80382 11.3342 1.80382C9.64136 1.80382 7.97883 2.25262 6.516 3.10449C5.05318 3.95636 3.84235 5.18083 3.00694 6.65311C2.17152 8.1254 1.74138 9.79285 1.76035 11.4855C1.77933 13.1782 2.24674 14.8356 3.11495 16.2888C3.19179 16.4219 3.23245 16.5727 3.23288 16.7264C3.23331 16.8801 3.1935 17.0311 3.11741 17.1646C3.04131 17.2981 2.93159 17.4094 2.79916 17.4873C2.66673 17.5652 2.5162 17.6071 2.36255 17.6088V17.6352Z" fill="#380D75"/>
<path d="M32.6657 43.9076C29.8919 43.9089 27.2142 42.8911 25.1417 41.0476C25.048 40.965 24.9731 40.8634 24.9217 40.7496C24.8703 40.6359 24.8438 40.5124 24.8438 40.3876C24.8438 40.2627 24.8703 40.1393 24.9217 40.0255C24.9731 39.9117 25.048 39.8102 25.1417 39.7276C27.2148 37.8849 29.892 36.8671 32.6657 36.8671C35.4393 36.8671 38.1166 37.8849 40.1897 39.7276C40.2833 39.8102 40.3583 39.9117 40.4097 40.0255C40.4611 40.1393 40.4876 40.2627 40.4876 40.3876C40.4876 40.5124 40.4611 40.6359 40.4097 40.7496C40.3583 40.8634 40.2833 40.965 40.1897 41.0476C38.1167 42.8904 35.4394 43.9081 32.6657 43.9076ZM27.1349 40.3876C28.7509 41.5329 30.6828 42.1481 32.6635 42.1481C34.6442 42.1481 36.5761 41.5329 38.1921 40.3876C36.5748 39.2453 34.6435 38.632 32.6635 38.632C30.6835 38.632 28.7521 39.2453 27.1349 40.3876Z" fill="#380D75"/>
<path d="M32.6659 35.684C31.8313 35.684 31.0155 35.4365 30.3216 34.9729C29.6277 34.5092 29.0869 33.8502 28.7675 33.0792C28.4481 32.3082 28.3646 31.4597 28.5274 30.6412C28.6902 29.8227 29.0921 29.0708 29.6822 28.4807C30.2723 27.8906 31.0242 27.4887 31.8427 27.3259C32.6612 27.1631 33.5096 27.2466 34.2807 27.566C35.0517 27.8854 35.7107 28.4262 36.1744 29.1201C36.638 29.814 36.8855 30.6299 36.8855 31.4644C36.8843 32.5832 36.4394 33.6558 35.6483 34.4468C34.8572 35.2379 33.7846 35.6828 32.6659 35.684ZM32.6659 29.0092C32.1792 29.0092 31.7035 29.1536 31.299 29.424C30.8944 29.6945 30.5791 30.0789 30.3931 30.5286C30.2071 30.9783 30.1586 31.473 30.2539 31.9503C30.3491 32.4275 30.5838 32.8658 30.9283 33.2096C31.2727 33.5534 31.7113 33.7873 32.1887 33.8817C32.6662 33.9761 33.1608 33.9268 33.6102 33.7399C34.0595 33.5531 34.4434 33.2371 34.7131 32.8321C34.9828 32.427 35.1264 31.9511 35.1255 31.4644C35.1243 30.8128 34.8647 30.1884 34.4035 29.7281C33.9424 29.2677 33.3175 29.0092 32.6659 29.0092Z" fill="#380D75"/>
<path d="M23.6892 38.8168C23.5356 38.8159 23.385 38.7748 23.2522 38.6976C23.1195 38.6204 23.0092 38.5098 22.9324 38.3768C21.903 36.656 21.3483 34.6929 21.325 32.6877C21.3017 30.6826 21.8105 28.7071 22.7997 26.9627C23.7888 25.2184 25.2229 23.7676 26.9556 22.7582C28.6883 21.7488 30.6577 21.217 32.663 21.217C34.6683 21.217 36.6377 21.7488 38.3704 22.7582C40.1032 23.7676 41.5372 25.2184 42.5264 26.9627C43.5155 28.7071 44.0244 30.6826 44.0011 32.6877C43.9777 34.6929 43.4231 36.656 42.3936 38.3768C42.3444 38.4912 42.2714 38.5939 42.1795 38.678C42.0877 38.7621 41.979 38.8258 41.8607 38.8648C41.7423 38.9038 41.6171 38.9172 41.4932 38.9041C41.3693 38.8911 41.2496 38.8519 41.142 38.7892C41.0344 38.7264 40.9413 38.6416 40.869 38.5402C40.7966 38.4388 40.7466 38.3232 40.7223 38.201C40.6979 38.0788 40.6998 37.9529 40.7277 37.8315C40.7557 37.7101 40.8091 37.596 40.8844 37.4968C41.7518 36.0436 42.2185 34.3863 42.2369 32.694C42.2553 31.0017 41.8247 29.3347 40.9892 27.8629C40.1536 26.3912 38.9429 25.1672 37.4802 24.3156C36.0176 23.4641 34.3554 23.0155 32.663 23.0155C30.9706 23.0155 29.3084 23.4641 27.8458 24.3156C26.3832 25.1672 25.1724 26.3912 24.3369 27.8629C23.5013 29.3347 23.0708 31.0017 23.0892 32.694C23.1076 34.3863 23.5742 36.0436 24.4416 37.4968C24.5614 37.6965 24.5971 37.9355 24.541 38.1614C24.485 38.3874 24.3416 38.5819 24.1424 38.7024C24.0044 38.7807 23.8478 38.8202 23.6892 38.8168Z" fill="#380D75"/>
</g>
<defs>
<clipPath id="clip0">
<rect width="44" height="44" fill="white"/>
</clipPath>
</defs>
</svg>
