<svg width="44" height="44" viewBox="0 0 44 44" fill="none" xmlns="http://www.w3.org/2000/svg">
<g clip-path="url(#clip0)">
<path d="M22 29.7792C26.2964 29.7792 29.7792 26.2964 29.7792 22C29.7792 17.7037 26.2964 14.2208 22 14.2208C17.7037 14.2208 14.2208 17.7037 14.2208 22C14.2208 26.2964 17.7037 29.7792 22 29.7792Z" fill="#1DBA9E"/>
<path d="M2.36281 30.6636C2.18657 30.6637 2.01433 30.611 1.86842 30.5121C1.7225 30.4133 1.60962 30.2729 1.54441 30.1092C-0.0410953 26.1168 -0.423123 21.7476 0.445467 17.5407C1.31406 13.3337 3.39526 9.4731 6.43229 6.43513C9.46932 3.39716 13.3293 1.31477 17.536 0.444885C21.7426 -0.425001 26.112 -0.044319 30.1048 1.53996C30.223 1.57258 30.3331 1.62955 30.428 1.70721C30.5229 1.78487 30.6006 1.88151 30.6559 1.99093C30.7113 2.10035 30.7432 2.22014 30.7495 2.3426C30.7559 2.46507 30.7366 2.58751 30.6929 2.70208C30.6491 2.81665 30.5819 2.92082 30.4956 3.00789C30.4092 3.09497 30.3056 3.16304 30.1915 3.20773C30.0773 3.25243 29.955 3.27276 29.8325 3.26742C29.7099 3.26209 29.5899 3.23121 29.48 3.17676C25.8032 1.70834 21.7764 1.35054 17.8983 2.14765C14.0202 2.94476 10.461 4.86178 7.66141 7.66136C4.86184 10.4609 2.94482 14.0201 2.1477 17.8983C1.35059 21.7764 1.7084 25.8031 3.17681 29.48C3.21968 29.5874 3.24093 29.7023 3.23936 29.818C3.23779 29.9337 3.21342 30.0479 3.16765 30.1542C3.12187 30.2604 3.0556 30.3566 2.97261 30.4372C2.88962 30.5178 2.79155 30.5813 2.68401 30.624C2.58011 30.656 2.47138 30.6694 2.36281 30.6636Z" fill="#380D75"/>
<path d="M22 44C18.662 44.0137 15.3654 43.261 12.364 41.8C12.154 41.6979 11.9931 41.5165 11.9168 41.2958C11.8404 41.0751 11.8549 40.8331 11.957 40.623C12.0591 40.413 12.2405 40.2521 12.4612 40.1757C12.682 40.0994 12.924 40.1139 13.134 40.216C15.8949 41.562 18.9285 42.2545 22 42.24C25.3771 42.2409 28.7007 41.3968 31.6681 39.7847C34.6355 38.1725 37.1523 35.8434 38.9893 33.0096C40.8262 30.1759 41.925 26.9276 42.1853 23.5605C42.4457 20.1935 41.8595 16.8149 40.48 13.7324C40.3843 13.5194 40.3772 13.2772 40.4601 13.0589C40.543 12.8407 40.7092 12.6643 40.9222 12.5686C41.1352 12.4729 41.3774 12.4657 41.5957 12.5487C41.814 12.6316 41.9903 12.7978 42.086 13.0108C43.586 16.3614 44.2237 20.034 43.941 23.6941C43.6583 27.3542 42.4642 30.8854 40.4676 33.9659C38.4709 37.0464 35.7351 39.5783 32.5095 41.3309C29.2839 43.0835 25.671 44.0011 22 44Z" fill="#380D75"/>
<path d="M7.47998 22.88C7.24659 22.88 7.02275 22.7873 6.85772 22.6222C6.69269 22.4572 6.59998 22.2334 6.59998 22C6.60582 18.9592 7.51171 15.9883 9.20346 13.4616C10.8952 10.935 13.2971 8.96566 16.1063 7.80196C18.9156 6.63827 22.0064 6.33226 24.9893 6.92252C27.9722 7.51277 30.7136 8.97287 32.868 11.1188C33.4049 11.6597 33.9033 12.2375 34.3596 12.848C34.499 13.0353 34.5584 13.2703 34.5245 13.5013C34.4907 13.7324 34.3665 13.9405 34.1792 14.08C33.9919 14.2194 33.7569 14.2788 33.5258 14.2449C33.2948 14.2111 33.0866 14.0869 32.9472 13.8996C31.7805 12.3267 30.2888 11.0236 28.5736 10.0786C26.8583 9.13373 24.9597 8.56924 23.0068 8.42354C21.054 8.27785 19.0926 8.55437 17.2561 9.23431C15.4197 9.91425 13.7511 10.9817 12.364 12.364C11.0923 13.6254 10.0836 15.1267 9.39634 16.7807C8.70903 18.4348 8.35678 20.2088 8.35998 22C8.35998 22.2334 8.26726 22.4572 8.10223 22.6222C7.9372 22.7873 7.71337 22.88 7.47998 22.88Z" fill="#380D75"/>
<path d="M22 37.4C19.9781 37.4005 17.976 37.0015 16.1087 36.226C14.2413 35.4506 12.5456 34.3139 11.1188 32.8812C10.5698 32.3331 10.0623 31.7448 9.60083 31.1212C9.5151 31.0311 9.44941 30.924 9.40812 30.8067C9.36682 30.6894 9.35084 30.5647 9.36124 30.4408C9.37163 30.3169 9.40817 30.1966 9.46843 30.0879C9.52869 29.9791 9.61132 29.8844 9.71086 29.8098C9.81041 29.7353 9.92461 29.6828 10.0459 29.6556C10.1673 29.6285 10.293 29.6273 10.4148 29.6523C10.5366 29.6772 10.6517 29.7277 10.7526 29.8004C10.8535 29.8731 10.9378 29.9663 11 30.074C11.4159 30.6273 11.8718 31.1494 12.364 31.636C14.2715 33.54 16.7004 34.8362 19.3439 35.361C21.9875 35.8859 24.7272 35.6158 27.2174 34.5849C29.7076 33.554 31.8366 31.8084 33.3356 29.5686C34.8346 27.3288 35.6365 24.6951 35.64 22C35.64 21.7666 35.7327 21.5428 35.8978 21.3777C36.0628 21.2127 36.2866 21.12 36.52 21.12C36.7534 21.12 36.9773 21.2127 37.1423 21.3777C37.3073 21.5428 37.4 21.7666 37.4 22C37.4041 24.0235 37.0085 26.0279 36.236 27.8981C35.4636 29.7684 34.3294 31.4677 32.8985 32.8985C31.4677 34.3293 29.7684 35.4635 27.8982 36.236C26.0279 37.0085 24.0235 37.4041 22 37.4Z" fill="#380D75"/>
<path d="M22 30.6592C20.2873 30.6592 18.6132 30.1513 17.1892 29.1998C15.7652 28.2483 14.6553 26.896 13.9999 25.3137C13.3445 23.7314 13.173 21.9904 13.5071 20.3106C13.8413 18.6309 14.666 17.088 15.877 15.877C17.088 14.666 18.6309 13.8413 20.3106 13.5071C21.9904 13.173 23.7314 13.3445 25.3137 13.9999C26.896 14.6553 28.2483 15.7652 29.1998 17.1892C30.1513 18.6132 30.6592 20.2873 30.6592 22C30.6568 24.2958 29.7438 26.497 28.1204 28.1204C26.497 29.7438 24.2958 30.6568 22 30.6592ZM22 15.1008C20.6354 15.1008 19.3015 15.5054 18.167 16.2635C17.0324 17.0216 16.1481 18.0991 15.6259 19.3598C15.1037 20.6204 14.9671 22.0076 15.2333 23.3459C15.4995 24.6842 16.1566 25.9136 17.1215 26.8784C18.0864 27.8433 19.3157 28.5004 20.654 28.7666C21.9923 29.0328 23.3795 28.8962 24.6402 28.374C25.9008 27.8518 26.9783 26.9675 27.7364 25.833C28.4945 24.6984 28.8992 23.3645 28.8992 22C28.898 20.1705 28.1707 18.4164 26.8771 17.1228C25.5835 15.8292 23.8294 15.1019 22 15.1008Z" fill="#380D75"/>
<path d="M20.7856 24.9788C20.5526 24.9778 20.3294 24.8845 20.1652 24.7192L18.4052 22.9592C18.24 22.7941 18.1473 22.5701 18.1473 22.3366C18.1473 22.1031 18.24 21.8791 18.4052 21.714C18.5703 21.5489 18.7942 21.4561 19.0278 21.4561C19.2613 21.4561 19.4852 21.5489 19.6504 21.714L20.7856 22.8492L24.3496 19.2896C24.5167 19.1376 24.7359 19.0557 24.9617 19.0609C25.1875 19.0661 25.4028 19.1579 25.5628 19.3173C25.7228 19.4768 25.8154 19.6916 25.8213 19.9175C25.8273 20.1433 25.7462 20.3627 25.5948 20.5304L21.4104 24.7148C21.3289 24.798 21.2317 24.8641 21.1244 24.9094C21.0172 24.9547 20.902 24.9783 20.7856 24.9788Z" fill="#380D75"/>
<path d="M33.6644 14.256H29.8012C29.5678 14.256 29.344 14.1633 29.1789 13.9983C29.0139 13.8332 28.9212 13.6094 28.9212 13.376C28.9212 13.1426 29.0139 12.9188 29.1789 12.7538C29.344 12.5887 29.5678 12.496 29.8012 12.496H32.7844V9.50842C32.7844 9.27503 32.8771 9.0512 33.0421 8.88616C33.2072 8.72113 33.431 8.62842 33.6644 8.62842C33.8978 8.62842 34.1216 8.72113 34.2867 8.88616C34.4517 9.0512 34.5444 9.27503 34.5444 9.50842V13.376C34.5444 13.6094 34.4517 13.8332 34.2867 13.9983C34.1216 14.1633 33.8978 14.256 33.6644 14.256Z" fill="#380D75"/>
<path d="M10.3092 35.332C10.0758 35.332 9.85198 35.2393 9.68695 35.0743C9.52191 34.9092 9.4292 34.6854 9.4292 34.452V30.5844C9.4292 30.351 9.52191 30.1272 9.68695 29.9622C9.85198 29.7971 10.0758 29.7044 10.3092 29.7044H14.1768C14.4102 29.7044 14.634 29.7971 14.7991 29.9622C14.9641 30.1272 15.0568 30.351 15.0568 30.5844C15.0568 30.8178 14.9641 31.0416 14.7991 31.2067C14.634 31.3717 14.4102 31.4644 14.1768 31.4644H11.1892V34.452C11.1892 34.6854 11.0965 34.9092 10.9315 35.0743C10.7664 35.2393 10.5426 35.332 10.3092 35.332Z" fill="#380D75"/>
</g>
<defs>
<clipPath id="clip0">
<rect width="44" height="44" fill="white"/>
</clipPath>
</defs>
</svg>
