<svg width="35" height="35" viewBox="0 0 35 35" fill="none" xmlns="http://www.w3.org/2000/svg">
<path d="M17.5 35C27.165 35 35 27.165 35 17.5C35 7.83502 27.165 0 17.5 0C7.83502 0 0 7.83502 0 17.5C0 27.165 7.83502 35 17.5 35Z" fill="#FA7035"/>
<path d="M8.41309 11.7499C10.2516 8.29991 13.6134 5.99994 17.5006 5.99994C23.2787 5.99994 28.0063 11.1749 28.0063 17.4998C28.0063 17.7298 28.0063 17.9598 28.0063 18.1898" stroke="white" stroke-width="2.5" stroke-miterlimit="10" stroke-linecap="round" stroke-linejoin="round"/>
<path d="M26.6394 23.1925C24.8534 26.6425 21.4391 29.0001 17.4994 29.0001C11.7212 29.0001 6.99365 23.825 6.99365 17.5C6.99365 17.2125 6.99365 16.9824 6.99365 16.6949" stroke="white" stroke-width="2.5" stroke-miterlimit="10" stroke-linecap="round" stroke-linejoin="round"/>
<path d="M25.0117 16.0045L28.0059 19.2247L31 16.0045" stroke="white" stroke-width="2.5" stroke-miterlimit="10" stroke-linecap="round" stroke-linejoin="round"/>
<path d="M9.98828 18.3047L6.99414 15.0845L4 18.3047" stroke="white" stroke-width="2.5" stroke-miterlimit="10" stroke-linecap="round" stroke-linejoin="round"/>
<path d="M10.4087 25.8377C12.2472 24.0551 14.6635 23.0201 17.29 23.0201C19.9164 23.0201 22.3852 24.1126 24.2238 25.8952" stroke="white" stroke-width="2.5" stroke-miterlimit="10" stroke-linecap="round" stroke-linejoin="round"/>
<path d="M17.3423 19.9724C19.199 19.9724 20.7042 18.3249 20.7042 16.2925C20.7042 14.2601 19.199 12.6125 17.3423 12.6125C15.4856 12.6125 13.9805 14.2601 13.9805 16.2925C13.9805 18.3249 15.4856 19.9724 17.3423 19.9724Z" stroke="white" stroke-width="2.5" stroke-miterlimit="10" stroke-linecap="round" stroke-linejoin="round"/>
</svg>
