<svg width="65" height="60" viewBox="0 0 65 60" fill="none" xmlns="http://www.w3.org/2000/svg">
<g clip-path="url(#clip0)">
<path d="M64.832 34.2748L61.232 23.0748L54.032 0.874805C53.632 -0.225195 52.032 -0.225195 51.632 0.874805L44.432 23.0748H20.532L13.332 0.874805C12.932 -0.225195 11.332 -0.225195 10.932 0.874805L3.732 23.0748L0.132001 34.2748C-0.167999 35.2748 0.132001 36.3748 1.032 37.0748L32.532 59.9748L64.032 37.0748C64.832 36.4748 65.232 35.3748 64.832 34.2748Z" fill="#FC6D26"/>
<path d="M32.4979 59.9603L44.4979 23.0603H20.5979L32.4979 59.9603Z" fill="#E24329"/>
<path d="M32.5312 59.9608L20.5312 23.0608H3.7312L32.5312 59.9608Z" fill="#FC6D26"/>
<path d="M3.78854 23.0559L0.0885361 34.2559C-0.211464 35.2559 0.088536 36.3559 0.988536 37.0559L32.4885 59.9559L3.78854 23.0559Z" fill="#FCA326"/>
<path d="M3.72187 23.0555H20.5219L13.3219 0.855518C12.9219 -0.244482 11.3219 -0.244482 10.9219 0.855518L3.72187 23.0555Z" fill="#E24329"/>
<path d="M32.4979 59.9608L44.4979 23.0608H61.2979L32.4979 59.9608Z" fill="#FC6D26"/>
<path d="M61.2071 23.0559L64.8071 34.2559C65.1071 35.2559 64.8071 36.3559 63.9071 37.0559L32.4071 59.9559L61.2071 23.0559Z" fill="#FCA326"/>
<path d="M61.2737 23.0555H44.4737L51.6737 0.855518C52.0737 -0.244482 53.6737 -0.244482 54.0737 0.855518L61.2737 23.0555Z" fill="#E24329"/>
</g>
<defs>
<clipPath id="clip0">
<rect width="65" height="60" fill="white"/>
</clipPath>
</defs>
</svg>
