<svg width="10" height="63" viewBox="0 0 10 63" fill="none" xmlns="http://www.w3.org/2000/svg">
<path d="M4 30C4 30.5523 4.44772 31 5 31C5.55228 31 6 30.5523 6 30H4ZM6 1C6 0.447716 5.55228 -2.41412e-08 5 0C4.44772 2.41411e-08 4 0.447716 4 1L6 1ZM6 30L6 1L4 1L4 30H6Z" fill="#818181"/>
<path d="M6 62C6 62.5523 5.55228 63 5 63C4.44772 63 4 62.5523 4 62L6 62ZM4 41C4 40.4477 4.44772 40 5 40C5.55229 40 6 40.4477 6 41L4 41ZM4 62L4 41L6 41L6 62L4 62Z" fill="#818181"/>
<rect x="-1" y="1" width="8" height="14" rx="4" transform="matrix(-1 -8.74228e-08 -8.74228e-08 1 8 30)" fill="white" stroke="#818181" stroke-width="2"/>
</svg>
