<svg width="35" height="35" viewBox="0 0 35 35" fill="none" xmlns="http://www.w3.org/2000/svg">
<path d="M17.5 35C27.165 35 35 27.165 35 17.5C35 7.83502 27.165 0 17.5 0C7.83502 0 0 7.83502 0 17.5C0 27.165 7.83502 35 17.5 35Z" fill="#FCA326"/>
<path d="M25.7321 20.0734C25.8333 19.5692 25.8824 19.0559 25.8787 18.5416C25.8757 15.5458 24.2791 12.7788 21.6894 11.2809V11.1969C21.6894 8.87903 19.8137 7 17.5 7C15.1863 7 13.3106 8.87903 13.3106 11.1969V11.2809C10.7209 12.7788 9.12434 15.5458 9.12127 18.5416C9.1176 19.0559 9.16673 19.5692 9.2679 20.0734C7.74242 20.8623 6.85171 22.5036 7.02035 24.2151C7.189 25.9266 8.38286 27.3619 10.0329 27.8367C11.6828 28.3115 13.455 27.7298 14.5046 26.3688C16.4333 27.1085 18.5667 27.1085 20.4954 26.3688C21.545 27.7298 23.3172 28.3115 24.9671 27.8367C26.6171 27.3619 27.811 25.9266 27.9796 24.2151C28.1483 22.5036 27.2576 20.8623 25.7321 20.0734ZM23.6374 19.5908C21.3812 19.67 19.5933 21.526 19.5947 23.7877C19.5944 24.0131 19.6154 24.2379 19.6575 24.4592C18.2612 24.952 16.7388 24.952 15.3425 24.4592C15.3846 24.2379 15.4057 24.0131 15.4053 23.7877C15.4059 21.5062 13.587 19.6421 11.3102 19.5908C11.2472 19.2446 11.2157 18.8934 11.216 18.5416C11.2183 16.4759 12.232 14.5428 13.9286 13.3688C14.6903 14.6134 16.0428 15.3719 17.5 15.3719C18.9572 15.3719 20.3097 14.6134 21.0714 13.3688C22.768 14.5428 23.7817 16.4759 23.784 18.5416C23.7843 18.8934 23.7528 19.2446 23.6898 19.5908H23.6374Z" fill="white"/>
</svg>
