<svg width="96" height="50" viewBox="0 0 96 50" fill="none" xmlns="http://www.w3.org/2000/svg">
<path d="M80.729 30.4678C80.7936 29.7235 81.6229 29.3095 82.2567 29.7052L93.2649 36.5779C93.9278 36.9918 93.8794 37.972 93.1788 38.3204L81.0496 44.352C80.3502 44.6997 79.5404 44.1493 79.6079 43.3721L80.729 30.4678Z" fill="#9B51E0"/>
<rect width="10.9484" height="10.9592" rx="1" transform="matrix(0.562307 0.826928 -0.828316 0.560261 9.07765 34.8065)" fill="#27AE60"/>
<path d="M39.3935 5.02045C39.1911 4.53237 39.7861 4.10599 40.1846 4.45359L51.5434 14.361C51.822 14.604 51.75 15.0541 51.4096 15.1975L46.7696 17.1525C46.5158 17.2594 46.3966 17.5513 46.5031 17.8053L50.3754 27.0421C50.5806 27.5315 49.9819 27.9601 49.5833 27.6091L37.0289 16.555C36.7532 16.3122 36.8243 15.8658 37.1617 15.7212L42.3722 13.4884C42.6236 13.3806 42.7413 13.0911 42.6366 12.8384L39.3935 5.02045Z" fill="#FCA326"/>
</svg>
