<svg width="35" height="35" viewBox="0 0 35 35" fill="none" xmlns="http://www.w3.org/2000/svg">
<path d="M17.5 35C27.165 35 35 27.165 35 17.5C35 7.83502 27.165 0 17.5 0C7.83502 0 0 7.83502 0 17.5C0 27.165 7.83502 35 17.5 35Z" fill="#FA7035"/>
<path d="M23.4361 24.8796C24.094 24.8796 24.6391 24.3345 24.6391 23.6766C24.6391 23.357 24.5075 23.0469 24.2914 22.8307L21.0677 19.607C21.829 18.5074 22.2331 17.1916 22.2331 15.857C22.2331 12.201 19.2726 9.24048 15.6165 9.24048C11.9605 9.24048 9 12.201 9 15.857C9 19.513 11.9605 22.4736 15.6165 22.4736C16.9511 22.4736 18.2669 22.0694 19.3666 21.3082L22.5902 24.5225C22.8064 24.748 23.1166 24.8796 23.4361 24.8796ZM15.6165 20.0676C13.2951 20.0676 11.406 18.1785 11.406 15.857C11.406 13.5356 13.2951 11.6465 15.6165 11.6465C17.938 11.6465 19.8271 13.5356 19.8271 15.857C19.8271 18.1785 17.938 20.0676 15.6165 20.0676Z" fill="white"/>
</svg>
