<svg width="110" height="40" viewBox="0 0 110 40" fill="none" xmlns="http://www.w3.org/2000/svg">
<path d="M1.3 40V21.3L0 21.6V18.5L6.3 17.3V24.6C6.7 23.8 7.6 23.3 9.1 23C11.3 22.6 12.3 23.2 12.3 24.9V37.2L7.6 38.4V27.9C7.6 27.3 7.4 27.1 7 27.2C6.6 27.3 6.4 27.6 6.4 28.2V38.8L1.3 40ZM19.9 26.4V24.5C19.9 24 19.7 23.7 19.3 23.8C18.9 23.9 18.7 24.2 18.7 24.7V26.6L19.9 26.4ZM24.3 28.9V30.9C24.3 33.1 22.8 34.6 19.9 35.3L18.7 35.6C15.7 36.4 14.2 35.6 14.2 33.3V25.4C14.2 23.1 15.7 21.6 18.8 21L20 20.7C22.9 20.1 24.3 21 24.3 23.2V27.6L18.7 28.9V31.9C18.7 32.4 19 32.6 19.5 32.5C20 32.4 20.3 32 20.3 31.5V29.7L24.3 28.9ZM32 32.4V22.7C32 22.2 31.8 22 31.5 22.1C31.1 22.2 31 22.5 31 23V32.7L26.8 33.8V22.5L25.7 22.7V20L31 18.9V19.8C31.3 19.1 32.1 18.6 33.4 18.4C34.5 18.2 35.2 18.5 35.6 19.2C36.1 18.3 36.9 17.7 38.1 17.4C39.9 17 40.8 17.6 40.8 19.2V30.3L36.9 31.3V21.7C36.9 21.2 36.7 21 36.4 21.1C36.1 21.2 35.9 21.5 35.9 22V31.6L32 32.4ZM61.6 17.5V15.8C61.6 15.3 61.5 15.1 61.2 15.2C60.9 15.3 60.8 15.5 60.8 16V17.7L61.6 17.5ZM64.8 19.8V21.4C64.8 23.3 63.7 24.6 61.5 25.1L60.6 25.3C58.4 25.9 57.3 25.1 57.3 23.2V16.4C57.3 14.4 58.4 13.2 60.7 12.7L61.6 12.5C63.8 12.1 64.8 12.8 64.8 14.8V18.6L60.6 19.6V22C60.6 22.5 60.8 22.6 61.2 22.5C61.6 22.4 61.8 22.1 61.8 21.7V20.2L64.8 19.8ZM66.7 23.8V14L65.9 14.2V11.7L69.9 10.9V11.7C70.2 11.1 70.7 10.7 71.7 10.5C73.1 10.2 73.3 10.8 73.3 12.2V15.3L70.7 16V14.4C70.7 14 70.6 13.8 70.3 13.8C70 13.9 69.9 14.1 69.9 14.6V23L66.7 23.8ZM80.8 17.6C80.8 19.4 80 20.5 78.5 20.9L76.5 21.4C75.1 21.8 74.4 21 74.4 19.1V17.8L77 17.2V18.3C77 18.7 77.2 18.9 77.7 18.8C78.1 18.7 78.4 18.4 78.4 18V17C78.4 16.5 78 16.2 77.1 16.3L76.7 16.4C75.2 16.7 74.5 16 74.5 14.4V12.9C74.5 11.1 75.3 10 76.9 9.6L78.9 9.2C80.3 8.9 81 9.7 81 11.5V12.8L78.5 13.4V12.2C78.5 11.8 78.3 11.6 77.8 11.7C77.4 11.8 77.1 12.1 77.1 12.5V13.5C77.1 14 77.5 14.3 78.4 14.2L78.8 14.1C80.2 13.8 80.9 14.5 80.9 16.1L80.8 17.6ZM84.9 16C84.9 16.5 85.1 16.6 85.4 16.5C85.8 16.4 85.9 16.2 85.9 15.8V10.6C85.9 10 85.5 10 85.2 10.1H85.1C84.9 10.2 84.9 10.3 84.9 10.6V16ZM84.9 4.2V8.9C85.1 8.2 85.6 7.8 86.5 7.7C87.7 7.4 88.7 8.1 88.7 9.8V16.5C88.7 17.8 87.8 18.6 86.5 18.9C85.7 19.1 85.1 19 84.9 18.5V19.3L82 20V7L81.4 7.1V4.8L84.9 4.2ZM93.6 8.9C93.6 8.7 93.5 8.6 93.5 8.5C93.4 8.4 93.2 8.4 93 8.5C92.7 8.7 92.6 8.9 92.6 9.3V14.2C92.6 14.6 92.9 14.8 93.2 14.7H93.3C93.5 14.6 93.5 14.4 93.5 14.2L93.6 8.9ZM96.1 5.8V16.7L94.8 17C94.2 17.1 93.9 17 93.7 16.4C93.4 17.1 92.8 17.5 92.1 17.6C90.9 17.9 90 17.4 90 16.1V9.5C90 7.8 90.9 6.9 92.1 6.6C92.9 6.4 93.4 6.6 93.6 7.2V6.3L96.1 5.8ZM103.2 10.2V12.4C103.2 14 102.4 15.1 100.8 15.5L100.1 15.7C98.5 16.1 97.3 15.5 97.3 13.9V8.1C97.3 6.4 98.5 5.4 100.1 5L100.8 4.9C102.4 4.6 103.2 5.3 103.2 6.9V8.9L100.8 9.4V7.4C100.8 6.9 100.6 6.8 100.4 6.8C100.2 6.8 99.8 7 99.8 7.5V12.8C99.8 13.4 100.3 13.4 100.5 13.3C100.7 13.2 100.8 13 100.8 12.6V10.6L103.2 10.2ZM104.5 14.5V2.6L103.9 2.7V0.6L106.8 0V4.1C107 3.6 107.4 3.3 108.1 3.1C109.1 2.9 110 3.4 110 4.5V13.1L107.8 13.7V6.6C107.8 6.2 107.5 6 107.3 6.1C107.1 6.1 106.8 6.4 106.8 6.7V14L104.5 14.5ZM47.9 28.5V19.3C47.9 18.8 47.7 18.6 47.4 18.7C47.1 18.8 46.9 19 46.9 19.5V28.7L43.1 29.6V19.1L42.1 19.3V16.6L46.9 15.6V16.5C47.2 15.8 47.9 15.4 49 15.2C50 15 50.6 15.3 50.9 16C51.3 15.1 52.1 14.5 53.2 14.3C54.8 14 55.6 14.5 55.6 16V26.6L52.1 27.5V18.5C52.1 18 51.9 17.8 51.6 17.9C51.3 18 51.1 18.2 51.1 18.7V27.8L47.9 28.5Z" fill="white"/>
</svg>
