<svg width="35" height="35" viewBox="0 0 35 35" fill="none" xmlns="http://www.w3.org/2000/svg">
<path d="M17.5 35C27.165 35 35 27.165 35 17.5C35 7.83502 27.165 0 17.5 0C7.83502 0 0 7.83502 0 17.5C0 27.165 7.83502 35 17.5 35Z" fill="#D82A2F"/>
<path d="M17.1 9.8001L13.7 15.2001C13.6 15.4001 13.3 15.5001 13.1 15.4001L9 13.2001C8.6 13.0001 8.2 13.4001 8.3 13.8001L11.5 23.5001C11.6 23.9001 12 24.2001 12.4 24.2001H22.4C22.8 24.2001 23.2 23.9001 23.3 23.5001L26.5 13.8001C26.6 13.4001 26.2 13.0001 25.8 13.2001L21.7 15.3001C21.5 15.4001 21.2 15.3001 21.1 15.1001L17.7 9.7001C17.7 9.6001 17.3 9.5001 17.1 9.8001Z" fill="white"/>
</svg>
