<svg width="35" height="35" viewBox="0 0 35 35" fill="none" xmlns="http://www.w3.org/2000/svg">
<path d="M17.5 35C27.165 35 35 27.165 35 17.5C35 7.83502 27.165 0 17.5 0C7.83502 0 0 7.83502 0 17.5C0 27.165 7.83502 35 17.5 35Z" fill="#FCA121"/>
<path d="M9.0734 22.3648L8.20765 24.2071C8.90025 25.2434 9.70828 26.0494 10.6895 26.7979L12.5364 25.9343C13.4598 25.4737 14.6142 25.9919 14.9605 26.913L15.6531 28.8705C16.8651 29.0432 18.0772 29.0432 19.2315 28.8705L19.9241 26.913C20.2704 25.9343 21.4247 25.4737 22.3482 25.9343L24.1951 26.7979C25.1763 26.107 26.042 25.2434 26.7346 24.2647L25.9266 22.3648C25.4649 21.4437 25.9843 20.2922 26.9078 19.9468L28.8701 19.2559C29.0433 18.0469 29.0433 16.8955 28.8701 15.6865L26.9078 14.9956C25.9266 14.6502 25.4649 13.4987 25.9266 12.5776L26.7923 10.7353C26.0997 9.699 25.2917 8.89299 24.3105 8.14456L22.4059 9.06571C21.4824 9.52628 20.3281 9.00814 19.9818 8.08698L19.2892 6.12954C18.0772 5.95682 16.8651 5.95682 15.7108 6.12954L15.0182 8.08698C14.6719 9.06571 13.5176 9.52628 12.5941 9.06571L10.6895 8.14456C9.70828 8.89299 8.90025 9.699 8.14994 10.6777L9.0734 12.5776C9.53513 13.4987 9.01568 14.6502 8.09222 14.9956L6.12986 15.6865C5.95671 16.8955 5.95671 18.1045 6.12986 19.2559L8.09222 19.9468C9.01568 20.2922 9.47742 21.4437 9.0734 22.3648ZM13.9793 17.4712C13.9793 15.5138 15.5376 13.9593 17.5 13.9593C19.4624 13.9593 21.0207 15.5138 21.0207 17.4712C21.0207 19.4287 19.4624 20.9831 17.5 20.9831C15.5376 20.9831 13.9793 19.4287 13.9793 17.4712Z" stroke="white" stroke-width="2.5" stroke-miterlimit="10" stroke-linecap="round" stroke-linejoin="round"/>
</svg>
