<svg width="200" height="76" viewBox="0 0 200 76" fill="none" xmlns="http://www.w3.org/2000/svg">
<g clip-path="url(#clip0)">
<path fill-rule="evenodd" clip-rule="evenodd" d="M185.7 35.3673H177.9V6.65621H185.3V9.83529C186.2 7.94771 188.5 6.15948 191.5 5.96078C196.6 5.76209 200 8.54379 200 14.5046V35.268H191.9V13.7098C191.9 11.1268 191.9 9.04052 190.1 8.54379C189.4 8.3451 188.3 8.54379 187.3 9.13987C186.1 10.2327 185.7 11.5242 185.7 13.6105C185.7 13.7098 185.7 35.3673 185.7 35.3673ZM49.2 20.9621C49.2 26.3268 49.2 30.5987 48.3 32.7843C47.6 33.8771 46.9 34.4732 45.3 34.4732C43.9 34.4732 43 33.8771 42.5 32.7843C41.3 30.5987 41.3 26.3268 41.3 20.9621C41.3 15.7961 41.3 11.3255 42.5 9.13987C43 8.04706 43.9 7.45098 45.3 7.45098C46.9 7.45098 47.6 8.04706 48.3 9.13987C49.4 11.3255 49.2 15.7961 49.2 20.9621ZM52.2 8.54379C50.4 7.05359 48 5.96078 45.3 5.96078C42.5 5.96078 40.5 7.05359 38.4 8.54379C35.2 11.1268 33.1 15.7961 33.1 20.9621C33.1 26.3268 35.2 30.7974 38.4 33.3804C40.5 34.8706 42.6 35.9634 45.3 35.9634C48.1 35.9634 50.4 34.8706 52.2 33.3804C55.7 30.7974 57.5 26.3268 57.5 20.9621C57.5 15.7961 55.7 11.1268 52.2 8.54379ZM132.8 46.1961V53.9451H131.2C130.3 50.766 128.9 47.9843 125.2 47.7856C122.9 47.5869 120.8 48.8784 120.6 50.766C120.4 52.6536 121.1 54.4418 125.2 56.5281C130.5 59.3098 134.7 60.6013 134.7 66.3634C134.7 72.5229 128.9 75.6026 124.1 75.6026H114.9V64.8732H116.5C117.7 70.4366 119.5 73.8144 123.9 74.1124C126.7 74.1124 128.7 72.6222 128.7 69.8405C128.7 67.0588 126.9 65.3699 122.5 62.9856C117.6 60.2039 114.6 58.515 114.6 54.6405C114.6 49.4745 118.5 46.2954 124.8 46.2954H132.8V46.1961ZM143 35.3673V14.6039C143 8.64314 139.5 5.86144 134.5 6.06013C131 6.25882 129 8.44444 128 10.1333C126.8 7.15294 124.3 5.86144 120.6 6.06013C117.6 6.25882 115.3 7.94771 114.4 9.93464V6.65621H107.2V35.3673H115.1V13.7098C115.1 11.5242 115.3 10.332 116.7 9.23921C117.6 8.64314 118.5 8.3451 119.2 8.64314C121 9.04052 121 11.2261 121 13.8091V35.4667H128.9V13.6105C128.9 11.7229 129.4 10.4314 130.5 9.33856C131.4 8.74248 132.3 8.44444 133 8.74248C134.8 9.13987 135.1 11.3255 135.1 13.9085V35.566L143 35.3673ZM62.8 35.3673H70.9V0.596078H62.8V35.3673ZM90.1 9.04052C91.7 11.2261 91.7 16.2928 91.7 20.366C91.7 24.6379 91.9 30.2013 90.1 32.5856C89.4 33.4797 88.7 33.8771 87.6 33.8771C86 33.8771 85.1 32.1882 84.6 29.4065C84.4 26.8235 84.4 23.6444 84.4 20.1673C84.4 14.4052 84.9 7.94771 87.9 7.94771C88.9 7.94771 89.4 8.3451 90.1 9.04052ZM99.5 35.3673V0.596078H91.4V8.74248C90.7 7.25229 89.1 6.15948 86.8 6.15948C81 6.15948 76.4 11.7229 76.2 20.2667C76 26.1281 78.1 35.7647 86.2 35.7647C89.4 35.7647 91.3 34.0758 92 32.5856V35.3673C91.9 35.3673 99.5 35.3673 99.5 35.3673ZM162.4 18.1804L159.9 19.6706C157.4 21.1608 156.9 23.1477 156.7 25.234C156.5 26.9229 156.5 28.4131 156.7 30.9961C156.9 33.3804 158.5 33.7778 159.9 33.3804C161.5 32.7843 162.4 30.0026 162.4 26.9229V18.1804ZM167 7.45098C169.1 8.54379 170.5 10.2327 170.5 14.1072V35.268H162.9V32.0889C162 34.4732 159.4 35.9634 156 35.9634C153.2 35.9634 148.4 34.6719 148.4 28.0157C148.4 21.7569 152.8 20.5647 157.6 18.5778C162 16.8889 162.4 16.6902 162.4 14.902V10.2327C162.4 8.3451 161.2 7.45098 158.9 7.45098C158 7.64967 156.4 8.04706 156.4 9.13987C156.2 10.4314 157.8 10.4314 158 12.319C158.2 15.2993 155.7 16.3922 153.4 16.1935C151.8 16.1935 149.9 15.2993 149.7 13.0144C149.4 9.23922 154 5.96078 160.5 5.96078C163.5 5.96078 165.4 6.65621 167 7.45098ZM48 58.217L45.5 59.7072C43 61.1974 42.5 63.085 42.3 65.2706C42.1 66.9595 42.1 68.6484 42.3 71.0327C42.3 73.6157 43.9 74.0131 45.3 73.417C47.1 72.8209 48.1 70.2379 48.1 66.9595V58.217H48ZM52.7 47.4876C54.8 48.7791 55.9 50.2693 55.9 54.1438V75.5033H48.5V72.3242C47.6 74.5098 45 76 41.6 76C38.6 76 34 74.9072 34 68.251C34 62.0915 38.4 60.8 43 58.8131C47.6 56.9255 48.1 56.6274 48.1 55.1373V50.468C48.1 48.2823 46.9 47.4876 44.6 47.6863C43.7 47.6863 42.1 48.0837 42.1 49.1765C41.9 50.6667 43.5 50.6667 43.7 52.5542C43.9 55.3359 41.4 56.4288 39.1 56.4288C37.5 56.2301 35.6 55.3359 35.4 53.051C35.2 49.3752 39.8 46.1961 46.3 46.1961C49.2 46.1961 51.1 46.6928 52.7 47.4876ZM108.6 54.8392C108.6 48.8784 105.1 45.7987 100.1 46.2954C97.6 46.4941 95.5 47.5869 94.3 49.0771V40.732H86.4V60.4026C86.4 67.6549 80.9 74.5098 75.3 74.3111C71.4 74.3111 70.5 71.5294 70 68.549C69.3 64.2771 69.3 59.3098 69.8 53.9451C70.3 50.5673 71.2 47.7856 74 47.7856C76.1 47.7856 76.3 49.0771 75.4 49.9712C74.5 51.064 73.1 52.1569 73.8 54.4418C74.5 57.0248 78.9 57.4222 81 55.5346C82.6 53.8457 82.4 51.064 81.2 49.2758C79.8 47.0902 77.5 46.2954 74 46.2954C69.6 46.2954 61.3 49.9712 61.3 61.4954C61.3 73.9137 69.8 76.0993 74.7 76.0993C80.2 76.0993 85.1 71.6288 86.5 67.9529V75.702H94.4V53.9451C94.4 51.7595 94.9 50.5673 96 49.4745C96.9 48.8784 98.1 48.5804 98.8 48.8784C100.6 49.2758 100.6 51.4614 100.6 54.0444V75.702H108.7L108.6 54.8392ZM27.7 0V12.2196H26.1C24.7 6.25882 21.7 1.68889 17.6 1.4902C14.8 1.2915 13.2 2.7817 11.8 4.86797C10.4 7.45098 9.70001 12.8157 9.70001 19.1739C9.70001 25.1346 9.90001 29.7046 10.6 32.8837C11.1 34.3739 12.2 36.7582 15.2 36.7582C16.8 36.7582 18 36.3608 18.7 35.4667C19.9 34.1752 20.1 31.5922 20.1 29.9033V24.1412C20.1 21.9556 19.4 20.7634 18.3 20.068C17.4 19.6706 16 19.6706 15.3 19.4719V17.9817H28.2V48.5804H26.6C25.9 46.1961 25.4 44.5072 24.3 42.6196C23.1 40.732 21.1 38.5464 17.6 38.5464C13.9 38.3477 11.1 40.434 11.1 43.7124C11.1 47.9843 13.9 49.0771 19 51.6601C23.8 54.1438 30 56.3294 30 63.7804C30 71.0327 23.3 75.6026 15.7 75.6026H3.50001V60.8H5.10001C7.20001 71.9268 12.3 73.8144 15.7 73.8144C20.1 73.8144 22.2 71.2314 22.2 67.6549C22 62.9856 18.5 61.1974 13.7 58.9124C6.70001 55.2366 3.50001 53.5477 3.50001 47.4876C3.70001 42.3216 8.10001 39.1425 13 37.851C2.80001 36.8575 -0.19999 28.2144 9.54606e-06 19.0745C9.54606e-06 9.83529 5.80001 0 17.1 0H27.7Z" fill="white"/>
</g>
<defs>
<clipPath id="clip0">
<rect width="200" height="76" fill="white"/>
</clipPath>
</defs>
</svg>
