<svg width="503" height="58" viewBox="0 0 503 58" fill="none" xmlns="http://www.w3.org/2000/svg">
<rect x="43" y="5.47388" width="11" height="11" rx="1" transform="rotate(-29.8425 43 5.47388)" fill="#FCA121"/>
<path d="M11.5645 25.0248C12.0886 24.4921 12.9911 24.7015 13.2271 25.4106L16.9699 36.6568C17.2153 37.3941 16.5621 38.1168 15.8032 37.9476L3.65825 35.2407C2.89174 35.0698 2.6118 34.1235 3.16229 33.564L11.5645 25.0248Z" fill="#52CDB7"/>
<path d="M489.301 41.6288C489.366 40.8841 490.195 40.4709 490.828 40.8675L500.137 46.6945C500.799 47.1089 500.751 48.0885 500.052 48.437L489.796 53.5509C489.097 53.8995 488.286 53.3479 488.353 52.5697L489.301 41.6288Z" fill="#2F80ED"/>
<circle cx="453.5" cy="5.5" r="5.5" fill="#9B51E0"/>
</svg>
