<svg width="118" height="40" viewBox="0 0 118 40" fill="none" xmlns="http://www.w3.org/2000/svg">
<g clip-path="url(#clip0)">
<path d="M4.17481 26.1765L7.64401 25.5883C8.52601 25.4706 8.64361 25 8.64361 24.5883C8.64361 23.5883 7.93801 22.7059 6.17401 22.7059C4.41001 22.7059 3.58681 23.7059 3.46921 25L1.09132e-05 24.2941C0.294011 22 2.29321 19.5883 6.29161 19.5883C10.7604 19.5883 12.5832 22.1765 12.5832 25V32.1177C12.5832 32.8235 12.7008 33.8235 12.7008 34.4118H9.11401C8.99641 34 8.99641 33.2941 8.99641 32.7059C8.29081 33.8235 6.82081 34.8235 4.82161 34.8235C1.88161 34.8824 1.09132e-05 32.8824 1.09132e-05 30.5883C-0.117589 27.8824 1.70521 26.4706 4.17481 26.1765ZM8.93761 28.5883V28L5.76241 28.4118C4.76281 28.5294 4.05721 29.1177 4.05721 30.2941C4.05721 31.1765 4.64521 32 5.93881 32C7.35001 31.8824 8.93761 31 8.93761 28.5883Z" fill="white"/>
<path d="M18.4044 27.1764L13.4064 19.8823H17.9928C18.4044 20.5882 20.286 23.2941 20.874 24.1764L23.7552 19.8823H28.0476L23.0496 27L28.224 34.4117H23.7552L20.6976 30C20.1096 30.7059 18.228 33.5882 17.8164 34.4117H13.524L18.4044 27.1764Z" fill="white"/>
<path d="M41.5128 19.8823L44.688 29.1764L47.2752 19.8823H51.2736L46.6872 34.2941H42.8064L39.5136 24.5882L36.0444 34.2941H32.1636L27.4008 19.8823H31.5756L34.2804 29.1764L37.2792 19.8823H41.5128Z" fill="white"/>
<path d="M55.1544 26.1765L58.6236 25.5883C59.5056 25.4706 59.6232 25 59.6232 24.5883C59.6232 23.5883 58.9176 22.7059 57.1536 22.7059C55.4484 22.7059 54.5664 23.7059 54.4488 25L50.9796 24.2941C51.2736 22 53.2728 19.5883 57.2712 19.5883C61.74 19.5883 63.5628 22.1765 63.5628 25V32.1177C63.5628 32.8235 63.6804 33.8235 63.6804 34.4118H60.0936C59.976 34 59.976 33.2941 59.976 32.7059C59.2704 33.8235 57.8004 34.8235 55.8012 34.8235C52.8024 34.8235 50.9208 32.8235 50.9208 30.5294C50.8032 27.8824 52.6848 26.4706 55.1544 26.1765ZM59.7408 28.5883V28L56.5656 28.4118C55.566 28.5294 54.8604 29.1177 54.8604 30.2941C54.8604 31.1765 55.4484 32 56.742 32C58.1532 31.8824 59.7408 31 59.7408 28.5883Z" fill="white"/>
<path d="M66.0324 40L69.3252 32.4117L63.2688 19.8823H67.5612L71.442 28.4706L75.0288 19.8823H79.2036L70.0896 40H66.0324Z" fill="white"/>
<path d="M117.6 14.7059V9.70588L110.132 6.11765V13.5294L81.8496 0V5L114.307 20.2941V13.1176L117.6 14.7059Z" fill="white"/>
<path d="M89.0232 18.1765V23L94.3152 25.5883L85.848 34.2942H91.434L101.195 24L89.0232 18.1765Z" fill="white"/>
<path d="M114.307 22.7646L85.7304 9.23523V14.2352L108.427 25.0588L114.307 22.7646Z" fill="white"/>
</g>
<defs>
<clipPath id="clip0">
<rect width="117.6" height="40" fill="white"/>
</clipPath>
</defs>
</svg>
