<svg width="30" height="30" viewBox="0 0 30 30" fill="none" xmlns="http://www.w3.org/2000/svg">
<path d="M15 30C23.2843 30 30 23.2843 30 15C30 6.71573 23.2843 0 15 0C6.71573 0 0 6.71573 0 15C0 23.2843 6.71573 30 15 30Z" fill="#D04A81"/>
<path d="M5.60001 12.7C5.60001 11.2 6.80001 9.89999 8.40001 9.89999C10 9.89999 11.2 11.1 11.2 12.7" stroke="white" stroke-width="2" stroke-miterlimit="10" stroke-linecap="round" stroke-linejoin="round"/>
<path d="M18.8 12.7C18.8 11.2 20 9.89999 21.6 9.89999C23.1 9.89999 24.4 11.1 24.4 12.7" stroke="white" stroke-width="2" stroke-miterlimit="10" stroke-linecap="round" stroke-linejoin="round"/>
<path d="M19.8 17.6C19.8 20.2 17.7 22.4 15 22.4C12.3 22.4 10.2 20.3 10.2 17.6H19.8Z" fill="white"/>
</svg>
