<svg width="35" height="35" viewBox="0 0 35 35" fill="none" xmlns="http://www.w3.org/2000/svg">
<path d="M17.5 35C27.165 35 35 27.165 35 17.5C35 7.83502 27.165 0 17.5 0C7.83502 0 0 7.83502 0 17.5C0 27.165 7.83502 35 17.5 35Z" fill="#27AE60"/>
<g clip-path="url(#clip0)">
<path d="M19.4214 20.078C19.0271 20.2485 18.5219 20.3427 18.0005 20.3427C17.4786 20.3427 16.9738 20.2485 16.5781 20.078L13.4333 18.7156L11.1476 17.7261C11.0571 18.1742 11.009 18.6389 11.009 19.1142C11.009 22.9689 14.1452 27.0608 18 27.0608C21.8552 27.0608 24.9914 22.9694 24.9914 19.1142C24.9914 18.6389 24.9429 18.1746 24.8529 17.7261L22.5681 18.7156L19.4214 20.078Z" fill="white"/>
<path d="M27.491 12.7443C28.0624 12.4957 28.0624 12.091 27.491 11.8429L19.041 8.18571C18.7543 8.0619 18.3776 8 18.0005 8C17.6233 8 17.2462 8.0619 16.96 8.18571L8.50905 11.8429C7.93715 12.091 7.93715 12.4957 8.50905 12.7443L9.15 13.0214L9.09572 13.4514C8.85048 13.4933 8.66334 13.7071 8.66334 13.9638C8.66334 14.1948 8.81429 14.3919 9.02334 14.4586L8.63524 19.9033C8.61858 20.1319 8.66429 20.4933 8.73572 20.7095L9.05191 21.6557C9.08762 21.7643 9.13524 21.8181 9.18239 21.8181C9.22905 21.8181 9.27667 21.7643 9.31286 21.6557L9.62858 20.7095C9.70048 20.4933 9.74667 20.1319 9.73 19.9033L9.34191 14.4586C9.54953 14.3914 9.70191 14.1948 9.70191 13.9638C9.70191 13.7071 9.51477 13.4933 9.2681 13.4514L9.21905 13.051L10.6971 13.6914L11.4219 14.0052V16.799L13.8138 17.8343L16.9591 19.1967C17.2452 19.3205 17.6224 19.3824 17.9995 19.3824C18.3767 19.3824 18.7533 19.3205 19.04 19.1967L22.1852 17.8343L24.5776 16.7986V14.0052L25.3019 13.6914L27.491 12.7443Z" fill="white"/>
</g>
<defs>
<clipPath id="clip0">
<rect width="20" height="19.5238" fill="white" transform="translate(8 8)"/>
</clipPath>
</defs>
</svg>
