<svg width="35" height="35" viewBox="0 0 35 35" fill="none" xmlns="http://www.w3.org/2000/svg">
<g clip-path="url(#clip0)">
<path d="M17.5 35C27.165 35 35 27.165 35 17.5C35 7.83502 27.165 0 17.5 0C7.83502 0 0 7.83502 0 17.5C0 27.165 7.83502 35 17.5 35Z" fill="#9B51E0"/>
<path d="M13.5372 21.2291C11.4132 19.1051 11.4132 15.6615 13.5372 13.5375C15.6612 11.4135 19.1049 11.4135 21.2289 13.5375C23.3529 15.6615 23.3529 19.1051 21.2289 21.2291C19.1049 23.3531 15.6612 23.3531 13.5372 21.2291Z" stroke="white" stroke-width="2.5" stroke-miterlimit="10" stroke-linecap="round" stroke-linejoin="round"/>
<path d="M13.5371 21.2292L20.1904 27.8824" stroke="white" stroke-width="2.5" stroke-miterlimit="10" stroke-linecap="round" stroke-linejoin="round"/>
<path d="M21.229 21.2291L27.8823 14.5759" stroke="white" stroke-width="2.5" stroke-miterlimit="10" stroke-linecap="round" stroke-linejoin="round"/>
<path d="M21.229 13.5375L14.5757 6.8842" stroke="white" stroke-width="2.5" stroke-miterlimit="10" stroke-linecap="round" stroke-linejoin="round"/>
<path d="M13.5376 13.5375L6.88432 20.1908" stroke="white" stroke-width="2.5" stroke-miterlimit="10" stroke-linecap="round" stroke-linejoin="round"/>
<path d="M9.69164 25.075C5.44366 20.827 5.44365 13.9396 9.69164 9.69165C13.9396 5.44366 20.827 5.44366 25.0749 9.69165C29.3229 13.9396 29.3229 20.827 25.0749 25.075C20.827 29.3229 13.9396 29.3229 9.69164 25.075Z" stroke="white" stroke-width="2.5" stroke-miterlimit="10" stroke-linecap="round" stroke-linejoin="round"/>
</g>
<defs>
<clipPath id="clip0">
<rect width="35" height="35" fill="white"/>
</clipPath>
</defs>
</svg>
