<svg id="Layer_1" data-name="Layer 1" xmlns="http://www.w3.org/2000/svg" viewBox="0 0 100 100"><defs><style>.cls-1{fill:#18a3ff;}.cls-2{fill:#380d75;}</style></defs><path class="cls-1" d="M67.77,40.45,63.27,36a2.65,2.65,0,0,0-3.77,0L45.75,49.7l-5.24-5.25a2.68,2.68,0,0,0-3.78,0L32.24,49a2.65,2.65,0,0,0,0,3.77l12,12a2.17,2.17,0,0,0,3.09,0L67.77,44.23A2.68,2.68,0,0,0,67.77,40.45Z"/><path class="cls-2" d="M50,100a2.48,2.48,0,0,1-.84-.15c-12.78-4.56-30.83-17.58-36.31-29C7.73,60.24,7.9,51.41,8.15,38c.11-5.89.24-12.58,0-20.86a2.5,2.5,0,1,1,5-.16c.27,8.41.14,15.16,0,21.12-.25,13.11-.4,21,4.21,30.58,4.4,9.15,20.36,21.75,33.48,26.44A2.5,2.5,0,0,1,50,100Z"/><path class="cls-2" d="M58.05,96.39a2.5,2.5,0,0,1-1.17-4.71c11.46-6.11,22.3-15.77,25.77-23,4.59-9.55,4.44-17.46,4.2-30.55-.1-5.27-.21-11.15,0-18.26A47.87,47.87,0,0,1,50,6.1,47.66,47.66,0,0,1,19,19.89a2.5,2.5,0,0,1-.3-5A42.8,42.8,0,0,0,48.16.81,2.48,2.48,0,0,1,50,0h0a2.48,2.48,0,0,1,1.84.81A42.56,42.56,0,0,0,88.93,14.63a2.51,2.51,0,0,1,2.95,2.54c-.27,8.3-.14,15,0,20.9.25,13.36.41,22.18-4.7,32.81-4.59,9.55-17.7,19.77-27.92,25.21A2.52,2.52,0,0,1,58.05,96.39Z"/><path class="cls-2" d="M45.75,67A6.73,6.73,0,0,1,41,65L30.47,54.49a5.17,5.17,0,0,1,0-7.31L35,42.69a5.17,5.17,0,0,1,7.32,0l3.47,3.47,12-12a5.15,5.15,0,0,1,7.31,0l4.49,4.49h0a5.17,5.17,0,0,1,0,7.31l-19,19A6.73,6.73,0,0,1,45.75,67ZM38.62,46.18a.16.16,0,0,0-.12,0L34,50.71A.18.18,0,0,0,34,51L44.5,61.45a1.82,1.82,0,0,0,2.51,0l19-19a.18.18,0,0,0,0-.24l-4.5-4.5a.21.21,0,0,0-.24,0L47.52,51.47a2.52,2.52,0,0,1-3.54,0l-5.24-5.25A.16.16,0,0,0,38.62,46.18Z"/></svg>