<svg width="20" height="20" viewBox="0 0 20 20" fill="none" xmlns="http://www.w3.org/2000/svg">
<path d="M10 20C15.5228 20 20 15.5228 20 10C20 4.47715 15.5228 0 10 0C4.47715 0 0 4.47715 0 10C0 15.5228 4.47715 20 10 20Z" fill="#9B51E0"/>
<path d="M3.7334 8.46676C3.7334 7.46676 4.5334 6.6001 5.60006 6.6001C6.66673 6.6001 7.46673 7.4001 7.46673 8.46676" stroke="white" stroke-width="2" stroke-miterlimit="10" stroke-linecap="round" stroke-linejoin="round"/>
<path d="M12.5332 8.46676C12.5332 7.46676 13.3332 6.6001 14.3999 6.6001C15.3999 6.6001 16.2665 7.4001 16.2665 8.46676" stroke="white" stroke-width="2" stroke-miterlimit="10" stroke-linecap="round" stroke-linejoin="round"/>
<path d="M13.1998 11.7334C13.1998 13.4667 11.7998 14.9334 9.99981 14.9334C8.1998 14.9334 6.7998 13.5334 6.7998 11.7334H13.1998Z" fill="white"/>
</svg>
