<svg width="20" height="20" viewBox="0 0 20 20" fill="none" xmlns="http://www.w3.org/2000/svg">
<path d="M10 0C3.93167 0 0 4.48334 0 10C0 15.5167 3.93167 20 10 20C16.0683 20 20 15.5167 20 10C20 4.48334 16.0683 0 10 0ZM10 9.16667C11.5164 9.16667 12.75 10.2881 12.75 11.6667C12.75 12.7516 11.9814 13.668 10.9167 14.0131V15.8333H9.08333V14.0131C8.01863 13.668 7.25 12.7516 7.25 11.6667H9.08333C9.08333 12.1261 9.49467 12.5 10 12.5C10.5053 12.5 10.9167 12.1261 10.9167 11.6667C10.9167 11.2073 10.5053 10.8333 10 10.8333C8.48356 10.8333 7.25 9.71191 7.25 8.33333C7.25 7.24838 8.01863 6.33199 9.08333 5.98689V4.16667H10.9167V5.98689C11.9814 6.33199 12.75 7.24838 12.75 8.33333H10.9167C10.9167 7.87394 10.5053 7.5 10 7.5C9.49467 7.5 9.08333 7.87394 9.08333 8.33333C9.08333 8.79272 9.49467 9.16667 10 9.16667Z" fill="#1DBA9E"/>
</svg>
