<svg width="16" height="20" viewBox="0 0 16 20" fill="none" xmlns="http://www.w3.org/2000/svg">
<g clip-path="url(#clip0)">
<path d="M15.6386 10.0241C15.6386 7.85545 15.5422 7.75906 13.3976 7.68677C13.3976 6.72292 13.3976 5.5181 13.3735 4.77111C13.253 1.92774 11.494 0.216894 8.6747 0.168701C8.19277 0.168701 7.71084 0.168701 7.20482 0.168701C4.07229 0.192798 2.24096 2.09641 2.28915 5.20484V5.22894V7.71087C2.12048 7.71087 1.9518 7.71087 1.75903 7.71087C0.361443 7.71087 0.0481904 8.04822 0.0481904 9.44581C0.0481904 12.4097 0.0722868 15.3735 0.024094 18.3374C-2.40467e-06 19.4699 0.457829 20 1.59036 20C5.78313 20 9.95181 20 14.1446 20C15.2048 20 15.6867 19.5181 15.6627 18.4338C15.6145 15.6386 15.6386 12.8434 15.6386 10.0241ZM8.69879 14.3374V15.735C8.69879 16.2169 8.31325 16.5783 7.85542 16.5783C7.39759 16.5783 6.98795 16.1928 6.98795 15.735V14.3374C6.28916 14.0241 5.78313 13.3012 5.78313 12.4579C5.78313 11.3253 6.69879 10.4097 7.83132 10.4097C8.96385 10.4097 9.87952 11.3253 9.87952 12.4579C9.90361 13.3012 9.39759 14.0241 8.69879 14.3374ZM10.7711 7.68677C8.81927 7.68677 6.89156 7.71087 4.93976 7.71087V5.66268C4.96385 5.5181 4.96385 5.37352 4.96385 5.25304C4.93976 3.494 5.92771 2.77111 8.09638 2.8193C9.87952 2.8434 10.7711 3.68677 10.7711 5.37352C10.7711 6.1446 10.7711 6.91569 10.7711 7.68677Z" fill="#FCA326"/>
</g>
<defs>
<clipPath id="clip0">
<rect width="15.6627" height="20" fill="white"/>
</clipPath>
</defs>
</svg>
