<svg id="Layer_1" data-name="Layer 1" xmlns="http://www.w3.org/2000/svg" viewBox="0 0 100 100"><defs><style>.cls-1{fill:#38f2af;}.cls-2{fill:#380d75;}</style></defs><circle class="cls-1" cx="44.7" cy="44.7" r="14.86"/><path class="cls-2" d="M87.4,62.55a2,2,0,0,1-2-2V23.42H2a2,2,0,0,1,0-4H87.4a2,2,0,0,1,2,2V60.55A2,2,0,0,1,87.4,62.55Z"/><path class="cls-2" d="M87.4,70H2a2,2,0,0,1-2-2V28.44a2,2,0,0,1,4,0V66H87.4a2,2,0,0,1,0,4Z"/><path class="cls-2" d="M98,80.58H12.6a2,2,0,0,1-2-2V69.11a2,2,0,0,1,4,0v7.47H96V34H87.4a2,2,0,1,1,0-4H98a2,2,0,0,1,2,2V78.58A2,2,0,0,1,98,80.58Z"/><path class="cls-2" d="M44.7,61.56A16.86,16.86,0,1,1,61.56,44.7,16.87,16.87,0,0,1,44.7,61.56Zm0-29.72A12.86,12.86,0,1,0,57.56,44.7,12.88,12.88,0,0,0,44.7,31.84Z"/></svg>