<svg id="Layer_1" data-name="Layer 1" xmlns="http://www.w3.org/2000/svg" viewBox="0 0 100 100"><defs><style>.cls-1{fill:#ac7fff;}.cls-2{fill:#fca121;}.cls-3{fill:#380d75;}</style></defs><circle class="cls-1" cx="25.78" cy="23.42" r="7.06"/><path class="cls-1" d="M25.78,50.3a24.53,24.53,0,0,0,15.56-5.53,20.65,20.65,0,0,0-31.11,0A24.5,24.5,0,0,0,25.78,50.3Z"/><circle class="cls-2" cx="74.23" cy="71.02" r="7.06"/><path class="cls-2" d="M74.23,97.91a24.54,24.54,0,0,0,15.56-5.54,20.67,20.67,0,0,0-31.11,0A24.51,24.51,0,0,0,74.23,97.91Z"/><path class="cls-3" d="M81.27,36.92a2,2,0,0,1-2-2V20.61H65a2,2,0,1,1,0-4H81.27a2,2,0,0,1,2,2V34.92A2,2,0,0,1,81.27,36.92Z"/><path class="cls-3" d="M35.92,83.42H18.46a2,2,0,0,1-2-2V65.08a2,2,0,0,1,4,0V79.42H35.92a2,2,0,0,1,0,4Z"/><path class="cls-3" d="M25.76,51.69a25.66,25.66,0,0,1-17.1-6.5A2,2,0,0,1,8,43.7a2,2,0,0,1,.68-1.5,25.74,25.74,0,0,1,34.2,0,2,2,0,0,1,.67,1.5,2,2,0,0,1-.67,1.49A25.68,25.68,0,0,1,25.76,51.69Zm-12.56-8a21.76,21.76,0,0,0,25.12,0,21.72,21.72,0,0,0-25.12,0Z"/><path class="cls-3" d="M25.76,33a9.59,9.59,0,1,1,9.59-9.59A9.6,9.6,0,0,1,25.76,33Zm0-15.18a5.59,5.59,0,1,0,5.59,5.59A5.6,5.6,0,0,0,25.76,17.83Z"/><path class="cls-3" d="M5.36,40.12a2,2,0,0,1-1.72-1,25.77,25.77,0,1,1,44.23,0,2,2,0,1,1-3.43-2.06,21.76,21.76,0,1,0-37.36,0,2,2,0,0,1-1.72,3Z"/><path class="cls-3" d="M74.23,99.83a25.73,25.73,0,0,1-17.1-6.5,2,2,0,0,1-.67-1.5,2,2,0,0,1,.67-1.49,25.76,25.76,0,0,1,34.21,0A2,2,0,0,1,92,91.83a2,2,0,0,1-.67,1.5A25.76,25.76,0,0,1,74.23,99.83Zm-12.56-8a21.73,21.73,0,0,0,25.13,0,21.78,21.78,0,0,0-25.13,0Z"/><path class="cls-3" d="M74.23,81.14a9.59,9.59,0,1,1,9.59-9.59A9.6,9.6,0,0,1,74.23,81.14Zm0-15.18a5.59,5.59,0,1,0,5.59,5.59A5.59,5.59,0,0,0,74.23,66Z"/><path class="cls-3" d="M53.84,88.26a2,2,0,0,1-1.72-1,25.77,25.77,0,1,1,44.23,0,2,2,0,1,1-3.43-2,21.77,21.77,0,1,0-37.37,0,2,2,0,0,1-1.71,3Z"/></svg>