<svg id="Layer_1" data-name="Layer 1" xmlns="http://www.w3.org/2000/svg" viewBox="0 0 100 100"><defs><style>.cls-1{fill:#fca121;}.cls-2{fill:#341472;}</style></defs><path class="cls-1" d="M45,71.3A23.11,23.11,0,0,1,2.5,58.79V40.46A23.1,23.1,0,0,1,46.64,30.9L61.91,64.46a13.71,13.71,0,0,0,26.2-5.67V40.46a13.72,13.72,0,0,0-26.2-5.68L60.13,38.7M54.69,28.39A23.11,23.11,0,0,1,97.5,40.46V58.79a23.11,23.11,0,0,1-44.14,9.56L38.09,34.78a13.72,13.72,0,0,0-26.2,5.68V58.79a13.71,13.71,0,0,0,26.2,5.67l1.5-3.29"/><path class="cls-2" d="M74.39,84.77a25.67,25.67,0,0,1-23.31-15L35.82,36.19a11.22,11.22,0,0,0-21.43,4.65V59.16a11.22,11.22,0,0,0,21.43,4.65l1.5-3.3a2.5,2.5,0,0,1,4.55,2.07l-1.5,3.29a16.22,16.22,0,0,1-31-6.71V40.84a16.22,16.22,0,0,1,31-6.71L55.63,67.69A20.61,20.61,0,0,0,95,59.16V40.84A20.61,20.61,0,0,0,56.82,30.07a2.5,2.5,0,0,1-4.26-2.62A25.61,25.61,0,0,1,100,40.84V59.16A25.64,25.64,0,0,1,74.39,84.77Zm-48.78,0A25.64,25.64,0,0,1,0,59.16V40.84a25.61,25.61,0,0,1,48.92-10.6L64.18,63.81a11.22,11.22,0,0,0,21.43-4.65V40.84a11.22,11.22,0,0,0-21.43-4.65L62.4,40.11A2.5,2.5,0,0,1,57.85,38l1.78-3.91a16.22,16.22,0,0,1,31,6.71V59.16a16.22,16.22,0,0,1-31,6.71L44.37,32.31A20.61,20.61,0,0,0,5,40.84V59.16A20.61,20.61,0,0,0,42.93,70.32,2.5,2.5,0,1,1,47.14,73,25.54,25.54,0,0,1,25.61,84.77Z"/></svg>