<svg width="20" height="20" viewBox="0 0 20 20" fill="none" xmlns="http://www.w3.org/2000/svg">
<g clip-path="url(#clip0)">
<path d="M10 20C15.5228 20 20 15.5228 20 10C20 4.47715 15.5228 0 10 0C4.47715 0 0 4.47715 0 10C0 15.5228 4.47715 20 10 20Z" fill="#FA7035"/>
<path d="M7.73577 12.131C6.52206 10.9173 6.52206 8.94944 7.73577 7.73573C8.94948 6.52202 10.9173 6.52202 12.131 7.73573C13.3447 8.94944 13.3447 10.9173 12.131 12.131C10.9173 13.3447 8.94948 13.3447 7.73577 12.131Z" stroke="white" stroke-width="1.5" stroke-miterlimit="10" stroke-linecap="round" stroke-linejoin="round"/>
<path d="M7.73572 12.131L11.5376 15.9329" stroke="white" stroke-width="1.5" stroke-miterlimit="10" stroke-linecap="round" stroke-linejoin="round"/>
<path d="M12.1312 12.131L15.9331 8.3291" stroke="white" stroke-width="1.5" stroke-miterlimit="10" stroke-linecap="round" stroke-linejoin="round"/>
<path d="M12.1309 7.7356L8.32898 3.93372" stroke="white" stroke-width="1.5" stroke-miterlimit="10" stroke-linecap="round" stroke-linejoin="round"/>
<path d="M7.73584 7.7356L3.93397 11.5375" stroke="white" stroke-width="1.5" stroke-miterlimit="10" stroke-linecap="round" stroke-linejoin="round"/>
<path d="M5.53843 14.3286C3.11101 11.9012 3.11101 7.96554 5.53843 5.53812C7.96585 3.1107 11.9015 3.1107 14.3289 5.53812C16.7563 7.96554 16.7563 11.9012 14.3289 14.3286C11.9015 16.756 7.96585 16.756 5.53843 14.3286Z" stroke="white" stroke-width="1.5" stroke-miterlimit="10" stroke-linecap="round" stroke-linejoin="round"/>
</g>
<defs>
<clipPath id="clip0">
<rect width="20" height="20" fill="white"/>
</clipPath>
</defs>
</svg>
