<svg id="Layer_1" data-name="Layer 1" xmlns="http://www.w3.org/2000/svg" viewBox="0 0 100 100"><defs><style>.cls-1{fill:#5ac4ff;}.cls-2{fill:#38f2af;}.cls-3{fill:#afa3c6;}.cls-4{fill:#380d75;}</style></defs><circle class="cls-1" cx="50" cy="38.09" r="23.24"/><path class="cls-2" d="M65.72,54.12V46.38a4.11,4.11,0,0,0-4.11-4.11h0a3,3,0,0,1-3-3V35.08a5,5,0,0,1,2.59-4.39l8.63-4.78S80.51,44,65.72,54.12Z"/><path class="cls-2" d="M43.75,51.66a4,4,0,0,0,4-4v-.13a3.93,3.93,0,0,0-3.93-3.92h-.12A4.62,4.62,0,0,1,39.13,39V37.6A4.62,4.62,0,0,1,43.75,33h3.31a6.06,6.06,0,0,0,6.06-6.06V25.2A9.65,9.65,0,0,0,51,19.15l-3.72-4.6A23.81,23.81,0,0,0,31,51.66Z"/><path class="cls-3" d="M6.8,85.45A4.8,4.8,0,0,1,2,80.65V74H98v6.62a4.8,4.8,0,0,1-4.8,4.8Z"/><path class="cls-4" d="M10.49,76a2,2,0,0,1-2-2v-47a6.81,6.81,0,0,1,6.8-6.8h8.59a2,2,0,0,1,0,4H15.29a2.81,2.81,0,0,0-2.8,2.8V74A2,2,0,0,1,10.49,76Z"/><path class="cls-4" d="M89.51,76a2,2,0,0,1-2-2v-47a2.81,2.81,0,0,0-2.8-2.8H75.56a2,2,0,0,1,0-4h9.15a6.81,6.81,0,0,1,6.8,6.8V74A2,2,0,0,1,89.51,76Z"/><path class="cls-4" d="M93.2,87.45H6.8A6.81,6.81,0,0,1,0,80.65V74a2,2,0,0,1,2-2H98a2,2,0,0,1,2,2v6.62A6.81,6.81,0,0,1,93.2,87.45ZM4,76v4.62a2.81,2.81,0,0,0,2.8,2.8H93.2a2.81,2.81,0,0,0,2.8-2.8V76Z"/><path class="cls-4" d="M43.35,53.3H30.87a2,2,0,0,1,0-4H43.35a2,2,0,0,0,0-3.9,6.52,6.52,0,0,1-6.52-6.51V37.57a6.52,6.52,0,0,1,6.52-6.51h3.22a3.92,3.92,0,0,0,3.92-3.91v-.87a5.59,5.59,0,0,0-2.55-4.7l-6.07-4a2,2,0,1,1,2.19-3.35l6.07,4a9.58,9.58,0,0,1,4.36,8.05v.87a7.93,7.93,0,0,1-7.92,7.91H43.35a2.52,2.52,0,0,0-2.52,2.51v1.32a2.51,2.51,0,0,0,2.52,2.51,6,6,0,0,1,0,11.9Z"/><path class="cls-4" d="M65.72,56.12a2,2,0,0,1-2-2V46.38a2.12,2.12,0,0,0-2.11-2.11,5.05,5.05,0,0,1-5-5V35.08a7,7,0,0,1,3.62-6.14l8.64-4.78a2,2,0,0,1,1.93,3.5l-8.63,4.78a3,3,0,0,0-1.56,2.64v4.15a1,1,0,0,0,1,1,6.12,6.12,0,0,1,6.11,6.11v7.74A2,2,0,0,1,65.72,56.12Z"/><path class="cls-4" d="M50,63.33A25.24,25.24,0,1,1,75.24,38.09,25.27,25.27,0,0,1,50,63.33Zm0-46.48A21.24,21.24,0,1,0,71.24,38.09,21.27,21.27,0,0,0,50,16.85Z"/></svg>