<svg id="Layer_1" data-name="Layer 1" xmlns="http://www.w3.org/2000/svg" viewBox="0 0 100 100"><defs><style>.cls-1{fill:#18a3ff;}.cls-2{fill:#380d75;}.cls-3{fill:#341472;}</style></defs><path class="cls-1" d="M24.54,50a26,26,0,1,1,26,26A26,26,0,0,1,24.54,50Z"/><path class="cls-2" d="M50,78.46A28.46,28.46,0,1,1,78.46,50,28.5,28.5,0,0,1,50,78.46Zm0-51.92A23.46,23.46,0,1,0,73.46,50,23.48,23.48,0,0,0,50,26.54Z"/><path class="cls-2" d="M50,92.81A42.82,42.82,0,0,1,33.33,10.56a2.5,2.5,0,1,1,2,4.61A37.81,37.81,0,0,0,50,87.81a2.5,2.5,0,0,1,0,5Zm16-3.3a2.5,2.5,0,0,1-1-4.79A37.82,37.82,0,0,0,50,12.19a2.5,2.5,0,0,1,0-5A42.82,42.82,0,0,1,67,89.31,2.5,2.5,0,0,1,66,89.51Z"/><path class="cls-2" d="M53.6,19.39a2.53,2.53,0,0,1-1.77-.73l-7.2-7.2a2.5,2.5,0,0,1,0-3.53l7.2-7.2a2.5,2.5,0,0,1,3.54,3.54L49.94,9.69l5.43,5.43a2.5,2.5,0,0,1-1.77,4.27Z"/><path class="cls-2" d="M46.4,100a2.49,2.49,0,0,1-1.77-.73,2.52,2.52,0,0,1,0-3.54l5.43-5.42-5.43-5.43a2.5,2.5,0,0,1,3.54-3.54l7.2,7.2a2.5,2.5,0,0,1,0,3.53l-7.2,7.2A2.49,2.49,0,0,1,46.4,100Z"/><path class="cls-3" d="M40.14,58a2.53,2.53,0,0,1-1.77-.73L32.8,51.7a2.47,2.47,0,0,1,0-3.53l5.57-5.57a2.5,2.5,0,1,1,3.54,3.53L38.1,49.94l3.81,3.8A2.5,2.5,0,0,1,40.14,58Z"/><path class="cls-3" d="M62,58a2.5,2.5,0,0,1-1.76-4.27l3.8-3.8-3.8-3.81a2.5,2.5,0,0,1,3.53-3.53l5.57,5.57a2.49,2.49,0,0,1,0,3.53l-5.57,5.58A2.53,2.53,0,0,1,62,58Z"/><path class="cls-3" d="M48.14,61.08a2.5,2.5,0,0,1-2.37-3.3L51.6,40.61a2.5,2.5,0,0,1,4.74,1.61L50.51,59.39A2.5,2.5,0,0,1,48.14,61.08Z"/></svg>