<svg id="Layer_1" data-name="Layer 1" xmlns="http://www.w3.org/2000/svg" viewBox="0 0 100 100"><defs><style>.cls-1{fill:#380d75;}.cls-2{fill:#ac7fff;}</style></defs><path class="cls-1" d="M62.7,98.28A2.5,2.5,0,0,1,62,93.37,45,45,0,1,0,11,27.49,2.5,2.5,0,0,1,6.7,25,50,50,0,1,1,63.37,98.19,2.52,2.52,0,0,1,62.7,98.28Z"/><path class="cls-1" d="M50,100A50,50,0,0,1,1.82,36.59a2.5,2.5,0,0,1,4.82,1.33A45,45,0,0,0,50,95a2.5,2.5,0,0,1,0,5Z"/><path class="cls-2" d="M44.21,47.76h0a6.53,6.53,0,0,0,3.26,9.6l33.42,13.5L54.29,46.55A6.54,6.54,0,0,0,44.21,47.76Z"/><path class="cls-1" d="M84.45,51.07H74.37a2.5,2.5,0,0,1,0-5H84.45a2.5,2.5,0,0,1,0,5Z"/><path class="cls-1" d="M25.63,51.07H15.55a2.5,2.5,0,0,1,0-5H25.63a2.5,2.5,0,1,1,0,5Z"/><path class="cls-1" d="M50,26.7a2.5,2.5,0,0,1-2.5-2.5V14.12a2.5,2.5,0,0,1,5,0V24.2A2.5,2.5,0,0,1,50,26.7Z"/><path class="cls-1" d="M30,34.63a2.49,2.49,0,0,1-1.77-.73l-7.12-7.13a2.5,2.5,0,0,1,3.53-3.53l7.13,7.12A2.5,2.5,0,0,1,30,34.63Z"/><path class="cls-1" d="M70,34.63a2.5,2.5,0,0,1-1.77-4.27l7.13-7.12a2.5,2.5,0,0,1,3.53,3.53L71.81,33.9A2.49,2.49,0,0,1,70,34.63Z"/><path class="cls-1" d="M23.61,74a2.51,2.51,0,0,1-1.77-4.27L29,62.62a2.5,2.5,0,0,1,3.54,3.54l-7.13,7.12A2.48,2.48,0,0,1,23.61,74Z"/><path class="cls-1" d="M82.14,73.33a2.34,2.34,0,0,1-.86-.16L47.43,60.78a9,9,0,1,1,9-15.24L83.77,68.93a2.5,2.5,0,0,1-1.63,4.4ZM50.37,48.2a4.32,4.32,0,0,0-.62,0,4,4,0,0,0-.66,7.81L70,63.71,53.13,49.29A4.11,4.11,0,0,0,50.37,48.2Z"/></svg>