<svg width="86" height="46" viewBox="0 0 86 46" fill="none" xmlns="http://www.w3.org/2000/svg">
<ellipse cx="79.5002" cy="29.5002" rx="6.5" ry="6.42244" fill="#1DBA9E"/>
<path d="M12.6097 26.9809C13.2221 26.5526 14.0713 26.923 14.1742 27.6631L15.8054 39.403C15.9123 40.1727 15.1384 40.7643 14.423 40.4597L2.97453 35.5853C2.25197 35.2777 2.14914 34.2962 2.79234 33.8464L12.6097 26.9809Z" fill="#9B51E0"/>
<path d="M55.2424 11.9623C55.3844 12.246 55.348 12.5682 55.1583 12.7865L48.2744 20.7134L39.4084 15.7225C39.1619 15.5743 39.0199 15.2906 39.0562 14.9684L39.4916 11.6265L40.3566 5.03235C40.393 4.71018 40.8157 4.60272 40.9384 4.93887L43.6821 10.874L49.6703 9.77346L50.5353 3.17936C50.5717 2.85718 50.9614 2.7649 51.1171 3.08588L53.8608 9.02104L55.2424 11.9623Z" fill="#FA7035"/>
</svg>
