<svg width="44" height="44" viewBox="0 0 44 44" fill="none" xmlns="http://www.w3.org/2000/svg">
<path d="M9.8472 31.548C12.0318 31.548 13.8028 29.777 13.8028 27.5924C13.8028 25.4078 12.0318 23.6368 9.8472 23.6368C7.66258 23.6368 5.8916 25.4078 5.8916 27.5924C5.8916 29.777 7.66258 31.548 9.8472 31.548Z" fill="#FCA121"/>
<path d="M18.4055 41.3028C18.4679 40.5074 18.3222 39.7094 17.9828 38.9873C17.6433 38.2652 17.1218 37.6439 16.4695 37.1844C14.4677 35.788 12.0756 35.0603 9.63524 35.1053C7.19489 35.1503 4.83126 35.9659 2.88233 37.4352C2.32799 37.8638 1.88055 38.415 1.57517 39.0456C1.26979 39.6762 1.11479 40.369 1.12233 41.0696V42.856L18.3087 42.6184L18.4055 41.3028Z" fill="#FCA121"/>
<path d="M18.691 44H1.00305C0.769656 44 0.545825 43.9073 0.380793 43.7422C0.215761 43.5772 0.123047 43.3534 0.123047 43.12C0.123047 39.3844 2.66625 35.0196 9.84705 35.0196C17.0278 35.0196 19.571 39.3844 19.571 43.12C19.571 43.3534 19.4783 43.5772 19.3133 43.7422C19.1483 43.9073 18.9244 44 18.691 44ZM1.93585 42.24H17.7758C17.3358 38.8476 14.3966 36.7796 9.85585 36.7796C5.31505 36.7796 2.36265 38.8476 1.93585 42.24Z" fill="#380D75"/>
<path d="M9.84769 33.0264C8.83213 33.0264 7.83936 32.7252 6.99495 32.161C6.15054 31.5968 5.4924 30.7948 5.10376 29.8566C4.71512 28.9183 4.61343 27.8859 4.81156 26.8898C5.00968 25.8938 5.49873 24.9788 6.21684 24.2607C6.93496 23.5426 7.84989 23.0536 8.84594 22.8554C9.842 22.6573 10.8744 22.759 11.8127 23.1476C12.751 23.5363 13.5529 24.1944 14.1171 25.0388C14.6813 25.8832 14.9825 26.876 14.9825 27.8916C14.9813 29.2531 14.44 30.5584 13.4773 31.5211C12.5145 32.4839 11.2092 33.0252 9.84769 33.0264ZM9.84769 24.5168C9.18022 24.5168 8.52774 24.7147 7.97275 25.0855C7.41777 25.4564 6.98521 25.9834 6.72978 26.6001C6.47435 27.2168 6.40752 27.8953 6.53774 28.55C6.66796 29.2046 6.98937 29.8059 7.46135 30.2779C7.93332 30.7499 8.53466 31.0713 9.1893 31.2015C9.84395 31.3317 10.5225 31.2649 11.1392 31.0095C11.7558 30.7541 12.2829 30.3215 12.6537 29.7665C13.0246 29.2115 13.2225 28.559 13.2225 27.8916C13.2213 26.9969 12.8654 26.1392 12.2328 25.5065C11.6001 24.8739 10.7424 24.5179 9.84769 24.5168Z" fill="#380D75"/>
<path d="M34.0777 31.8472C36.2623 31.8472 38.0333 30.0762 38.0333 27.8916C38.0333 25.707 36.2623 23.936 34.0777 23.936C31.8931 23.936 30.1221 25.707 30.1221 27.8916C30.1221 30.0762 31.8931 31.8472 34.0777 31.8472Z" fill="#B37DE6"/>
<path d="M42.7112 41.5712C42.7739 40.7755 42.6289 39.9772 42.2903 39.2545C41.9517 38.5317 41.4311 37.9094 40.7796 37.4484C38.7771 36.0515 36.3842 35.3236 33.9431 35.3687C31.502 35.4137 29.1376 36.2294 27.188 37.6992C26.6339 38.1279 26.1866 38.6792 25.8813 39.3097C25.5759 39.9403 25.4208 40.633 25.428 41.3336V43.12L42.61 42.8824L42.7112 41.5712Z" fill="#B37DE6"/>
<path d="M42.9967 44H25.3087C25.0753 44 24.8515 43.9073 24.6865 43.7422C24.5214 43.5772 24.4287 43.3534 24.4287 43.12C24.4287 39.3844 26.9763 35.0196 34.1527 35.0196C41.3291 35.0196 43.8767 39.3844 43.8767 43.12C43.8767 43.3534 43.784 43.5772 43.619 43.7422C43.4539 43.9073 43.2301 44 42.9967 44ZM26.2415 42.24H42.0815C41.6415 38.8476 38.7023 36.7796 34.1615 36.7796C29.6207 36.7796 26.6727 38.8476 26.2415 42.24Z" fill="#380D75"/>
<path d="M34.1524 33.0264C33.1368 33.0264 32.1441 32.7252 31.2996 32.161C30.4552 31.5968 29.7971 30.7948 29.4084 29.8566C29.0198 28.9183 28.9181 27.8859 29.1162 26.8898C29.3144 25.8938 29.8034 24.9788 30.5215 24.2607C31.2396 23.5426 32.1546 23.0536 33.1506 22.8554C34.1467 22.6573 35.1791 22.759 36.1174 23.1476C37.0556 23.5363 37.8576 24.1944 38.4218 25.0388C38.986 25.8832 39.2872 26.876 39.2872 27.8916C39.286 29.2531 38.7447 30.5584 37.7819 31.5211C36.8192 32.4839 35.5139 33.0252 34.1524 33.0264ZM34.1524 24.5168C33.4849 24.5168 32.8324 24.7147 32.2774 25.0855C31.7225 25.4564 31.2899 25.9834 31.0345 26.6001C30.779 27.2168 30.7122 27.8953 30.8424 28.55C30.9726 29.2046 31.2941 29.8059 31.766 30.2779C32.238 30.7499 32.8393 31.0713 33.494 31.2015C34.1486 31.3317 34.8272 31.2649 35.4439 31.0095C36.0605 30.7541 36.5876 30.3215 36.9584 29.7665C37.3293 29.2115 37.5272 28.559 37.5272 27.8916C37.526 26.9969 37.1701 26.1392 36.5374 25.5065C35.9048 24.8739 35.0471 24.5179 34.1524 24.5168Z" fill="#380D75"/>
<path d="M14.1901 22.088C14.0626 22.0887 13.9365 22.0617 13.8205 22.0088C13.6677 21.9381 13.5385 21.8251 13.448 21.6832C13.3575 21.5412 13.3097 21.3763 13.3101 21.208V18.04H11.0837C10.2092 18.0388 9.371 17.6906 8.75308 17.0719C8.13516 16.4532 7.78809 15.6145 7.78809 14.74V3.3C7.78809 2.42555 8.13516 1.58685 8.75308 0.968102C9.371 0.349358 10.2092 0.00116594 11.0837 0L32.9165 0C33.7909 0.00116594 34.6292 0.349358 35.2471 0.968102C35.865 1.58685 36.2121 2.42555 36.2121 3.3V14.74C36.2121 15.6145 35.865 16.4532 35.2471 17.0719C34.6292 17.6906 33.7909 18.0388 32.9165 18.04H30.0653V21.208C30.0675 21.3787 30.0201 21.5464 29.9288 21.6906C29.8374 21.8348 29.7061 21.9493 29.5508 22.0202C29.3955 22.0911 29.2229 22.1153 29.0541 22.0898C28.8853 22.0643 28.7276 21.9903 28.6001 21.8768L24.1473 18.04H19.2281L14.7621 21.8768C14.6027 22.0131 14.3998 22.088 14.1901 22.088ZM11.0837 1.76C10.676 1.76116 10.2854 1.92393 9.99758 2.21261C9.70973 2.50129 9.54808 2.89233 9.54809 3.3V14.74C9.54808 15.1477 9.70973 15.5387 9.99758 15.8274C10.2854 16.1161 10.676 16.2788 11.0837 16.28H14.1901C14.4235 16.28 14.6473 16.3727 14.8123 16.5377C14.9774 16.7028 15.0701 16.9266 15.0701 17.16V19.2896L18.3305 16.4912C18.4945 16.3509 18.7043 16.2757 18.9201 16.28H24.4729C24.6826 16.28 24.8855 16.3549 25.0449 16.4912L28.3053 19.2896V17.16C28.3053 16.9266 28.398 16.7028 28.563 16.5377C28.7281 16.3727 28.9519 16.28 29.1853 16.28H32.9165C33.3242 16.2788 33.7147 16.1161 34.0026 15.8274C34.2904 15.5387 34.4521 15.1477 34.4521 14.74V3.3C34.4521 2.89233 34.2904 2.50129 34.0026 2.21261C33.7147 1.92393 33.3242 1.76116 32.9165 1.76H11.0837Z" fill="#380D75"/>
<path d="M28.8776 7.25561H15.1232C14.8898 7.25561 14.6659 7.16289 14.5009 6.99786C14.3359 6.83283 14.2432 6.609 14.2432 6.37561C14.2432 6.14222 14.3359 5.91838 14.5009 5.75335C14.6659 5.58832 14.8898 5.49561 15.1232 5.49561H28.8776C29.111 5.49561 29.3348 5.58832 29.4998 5.75335C29.6648 5.91838 29.7576 6.14222 29.7576 6.37561C29.7576 6.609 29.6648 6.83283 29.4998 6.99786C29.3348 7.16289 29.111 7.25561 28.8776 7.25561Z" fill="#380D75"/>
<path d="M22.7528 11.924H15.1232C14.8898 11.924 14.6659 11.8313 14.5009 11.6663C14.3359 11.5012 14.2432 11.2774 14.2432 11.044C14.2432 10.8106 14.3359 10.5868 14.5009 10.4217C14.6659 10.2567 14.8898 10.164 15.1232 10.164H22.7528C22.9862 10.164 23.21 10.2567 23.375 10.4217C23.5401 10.5868 23.6328 10.8106 23.6328 11.044C23.6328 11.2774 23.5401 11.5012 23.375 11.6663C23.21 11.8313 22.9862 11.924 22.7528 11.924Z" fill="#380D75"/>
</svg>
