<svg enable-background="new 0 0 530 455" viewBox="0 0 530 455" xmlns="http://www.w3.org/2000/svg"><switch><g><path d="m322.5 115.5c0-25.16-22.34-46.15-52.02-50.96-3.979-25.668-31.32-45.54-64.48-45.54s-60.5 19.872-64.48 45.54c-29.677 4.813-52.02 25.798-52.02 50.96s22.34 46.15 52.02 50.96c3.979 25.668 31.32 45.54 64.48 45.54s60.5-19.872 64.48-45.54c29.677-4.813 52.02-25.798 52.02-50.96" fill="#f2f2f2"/><path d="m267 366h-2c-17.673 0-32-14.327-32-32v-48h66v48c0 17.673-14.327 32-32 32z" style="fill:#fcd9b7;stroke:#4d4d4d;stroke-linejoin:round;stroke-linecap:round;stroke-width:4;stroke-miterlimit:10"/><circle cx="253" cy="326" fill="#4d4d4d" r="4"/><circle cx="279" cy="326" fill="#4d4d4d" r="4"/><path d="m249 318 8-1" style="fill:none;stroke:#4d4d4d;stroke-linejoin:round;stroke-linecap:round;stroke-width:4;stroke-miterlimit:10"/><path d="m275 317 8 1" style="fill:none;stroke:#4d4d4d;stroke-linejoin:round;stroke-linecap:round;stroke-width:4;stroke-miterlimit:10"/><path d="m220 335c1-2 3-12 1-23s1-24 1-24c62-33 63-1.5 63-1.5-19 19.5-52.5 15.5-52.5 15.5s4.5 7 2.5 14.5-2 18.5-2 18.5z" style="fill:#8c6239;stroke:#4d4d4d;stroke-linejoin:round;stroke-linecap:round;stroke-width:4;stroke-miterlimit:10"/><path d="m314 335c-4-12-3-44-3-44-13-21-26-5-26-5s-3 7 4 13 12 32 10 35 15 1 15 1z" style="fill:#8c6239;stroke:#4d4d4d;stroke-linejoin:round;stroke-linecap:round;stroke-width:4;stroke-miterlimit:10"/><path d="m85 451h360" style="fill:none;stroke:#4d4d4d;stroke-linejoin:round;stroke-linecap:round;stroke-width:8;stroke-miterlimit:10"/><circle cx="207" cy="267" r="5" style="fill:none;stroke:#4d4d4d;stroke-linejoin:round;stroke-linecap:round;stroke-width:4;stroke-miterlimit:10"/><circle cx="181.5" cy="244" r="8" style="fill:none;stroke:#4d4d4d;stroke-linejoin:round;stroke-linecap:round;stroke-width:4;stroke-miterlimit:10"/><circle cx="174" cy="205" r="10" style="fill:none;stroke:#4d4d4d;stroke-linejoin:round;stroke-linecap:round;stroke-width:4;stroke-miterlimit:10"/><path d="m217.44 445.75c-3.614-.529-6.06-1.26-8.918-2.668-4.928-2.425-8.678-5.878-10.789-9.934l-.64-1.23-.413.873c-.576 1.219-.708 1.302-1.498.946-1.01-.453-2.271-1.815-2.989-3.217-.771-1.505-1.283-3.107-1.827-5.715-.476-2.283-.618-2.724-.85-2.647-.092.031-.455.608-.806 1.283-.769 1.477-1.026 1.579-1.925.766-1.393-1.26-2.172-3.182-2.645-6.526-.428-3.02-.445-3.1-.668-3.1-.112 0-.429.52-.706 1.155s-.596 1.155-.71 1.155c-.317 0-1.7-2.992-2.066-4.466-.464-1.873-.568-5.338-.233-7.777.14-1.016.294-1.983.344-2.147.058-.191-.359.076-1.146.733-4.828 4.03-13.291 7.06-19.793 7.082-2.884.009-4.34-.463-4.796-1.555-.358-.857.024-1.684 1.649-3.574 2.54-2.954 4.16-5.674 5.456-9.162.481-1.295 1.959-6.814 2.278-8.508l.094-.5-1.342-.003c-3.957-.008-8.481-1.01-11.808-2.614-7.474-3.605-12.392-10.807-14.363-21.03-1.95-10.117-.647-18.57 3.912-25.395 5.02-7.517 13.815-12.598 24.294-14.04 2.363-.325 6.921-.318 9.05.013 3.401.53 5.514 1.357 8.194 3.207.922.636 2.04 1.34 2.485 1.564 1.222.615 3.348 1.279 4.726 1.475 1.921.273 2.23.404 2.23.947 0 1.792-2.384 3.01-6.89 3.529-1.521.174-2.916.159-9.256-.098-2.01-.081-2.675-.047-4.229.218-4.669.797-8.84 2.973-12.297 6.417-3.139 3.127-5.153 6.501-6.198 10.383-.341 1.268-.397 1.797-.403 3.784-.006 2.131.027 2.405.419 3.542 1.857 5.386 7.321 7.273 12.944 4.473 2.636-1.313 5.04-3.493 7.387-6.708 4.778-6.534 7.472-9.251 11.686-11.785 7.517-4.522 15.936-3.813 22.798 1.918.861.719 1 .787 1.251.605.155-.113.721-.528 1.26-.923 3.679-2.696 8.253-3.873 12.434-3.2 2.534.408 5.946 1.914 8.534 3.765 2.67 1.91 4.519 3.821 9.25 9.557 3.28 3.976 5.33 5.847 7.741 7.06 1.461.737 2.534 1.049 3.677 1.068 4.302.072 7.703-6.05 7.701-13.86-.001-4.506-1.211-8.306-3.372-10.586-2.291-2.418-5.067-3.847-8.708-4.483-.711-.124-2.695-.297-4.409-.384-3.936-.201-5.637-.41-6.825-.841-1.744-.633-3.282-1.747-3.831-2.776-.285-.534-.287-.577-.037-.762.168-.124 1.071-.232 2.46-.295 4.265-.193 7.629-.911 13.497-2.88 4.331-1.454 5.638-1.685 7.937-1.402 3.659.45 6.871 2.118 10.112 5.251 5.75 5.558 9.335 13.714 9.58 21.796.152 5.04-.582 7.668-4.107 14.714-2.796 5.59-5.293 8.462-8.89 10.227-1.99.976-4 1.522-7.444 2.02-1.078.156-1.961.342-1.961.413 0 .405 1.971 3.02 3.226 4.276 1.673 1.678 2.876 2.398 4.847 2.901 1.239.316 1.922.795 1.922 1.347 0 .862-1.574 2.122-3.555 2.846-1.931.706-3.712.956-6.132.862-4.792-.186-8.956-2.115-12.686-5.877-.93-.938-1.864-1.964-2.076-2.279-.211-.315-.426-.574-.477-.575s-.135.605-.186 1.346-.372 2.489-.712 3.883l-.619 2.536.497.517c1.79 1.859 4.391 2.678 6.873 2.164 1.23-.254 1.846-.089 2.771.743 1.348 1.214 2.052 3.054 2.052 5.363 0 2.721-.771 4.354-3.121 6.611-2.567 2.465-3.209 3.174-3.618 3.996-.697 1.401-.452 2.225 1.061 3.563 1.259 1.114 1.503 1.715 1.112 2.741-.142.371-.502.961-.8 1.31-.654.765-2.901 2.299-4.093 2.794l-.862.358.441.61c1.012 1.399 1.344 3.434.839 5.139-.48 1.62-2.096 3.291-3.422 3.54-.385.072-.867.003-1.577-.226-1.199-.387-2.025-.416-2.906-.105-.975.344-1.66.953-2.111 1.878-.386.789-.409.961-.386 2.835.042 3.446-.613 5.436-2.351 7.151-1.705 1.682-3.997 2.518-7.162 2.613-1.053.031-2.125.026-2.379-.011m2.812-5.721c-1.393-2.744-1.512-4.62-.438-6.918.524-1.121 1.772-2.462 2.763-2.968 1.612-.824 4.744-1.237 9.394-1.24 4.432-.003 5.751-.488 6.162-2.267.178-.772-.161-1.943-.78-2.691-.271-.327-.912-.787-1.502-1.078-1.01-.497-1.073-.507-3.03-.501-1.999.007-2 .007-4.308.798-2.936 1.01-3.961 1.184-6.214 1.074-2.148-.105-3.144-.36-5.165-1.325-3.646-1.74-7.06-5.246-8.227-8.459-.391-1.072-.521-1.763-.477-2.527.03-.514.298-.264.91.847 2.361 4.285 6.24 7.779 9.801 8.829 1.071.316 2.829.347 4.143.074.507-.105 2.269-.567 3.914-1.026s3.583-.949 4.305-1.089c1.426-.277 4.308-.353 6.158-.163 2.046.211 3.323-.542 3.291-1.94-.019-.823-.444-1.643-1.444-2.784-.891-1.017-1.079-1.401-1.079-2.209 0-1.26 1.033-2.464 4.752-5.541 2.175-1.799 2.897-3.389 2.745-6.05-.092-1.612-.527-2.704-1.387-3.483l-.618-.56-1.016.123c-.559.068-1.604.126-2.323.129-1.129.005-1.43-.053-2.209-.432-2.413-1.171-4.764-4.379-6.167-8.416-.777-2.234-1.77-4.047-3.907-7.131-2.718-3.922-2.9-4.341-2.402-5.535.126-.302.275-1.144.331-1.872s.15-1.353.21-1.39c.059-.037.274.189.477.502.582.898.851.966 2.489.622 2.046-.43 3.872-.336 5.107.263.507.246.985.477 1.061.514.358.172-.085-2.088-.888-4.528-.476-1.446-.865-2.817-.865-3.046 0-.952.98-.546 2.161.896 1.397 1.705 1.877 2.836 3.01 7.089 1.315 4.953 2.317 7.426 3.822 9.429 1.296 1.727 2.032 1.972 3.117 1.042.346-.296.691-.539.767-.539s.828.676 1.671 1.501c2.351 2.303 3.971 3.116 6.445 3.233 1.072.051 1.453.013 1.691-.167.3-.227.296-.236-.154-.402-1.585-.582-3.082-1.995-4.7-4.434-1.229-1.853-3.389-6.167-4.606-9.202-1.563-3.896-2.984-6.242-5.184-8.557-3.607-3.796-7.304-5.561-11.651-5.563-2.346-.001-3.395.282-5.836 1.572-2.365 1.25-3.491 1.673-4.774 1.793-1.265.118-2.249-.166-5.88-1.7-5.974-2.524-8.799-3.227-13.03-3.243-2.86-.011-3.336.115-8.481 2.231-2.043.84-4.361 1.705-5.151 1.922-5.502 1.506-8.06 2.873-11.05 5.903-4.614 4.675-7.06 10.968-8.07 20.786-.365 3.538-1.085 5.473-3.647 9.804-.551.932-1.154 1.994-1.339 2.36-.909 1.798.262 1.858 3.766.193 3.069-1.458 4.516-2.676 6.509-5.474 1.76-2.471 2.074-2.632 2.851-1.456.732 1.107.857.921 2.01-2.974.771-2.609 1.539-4.323 1.974-4.404.154-.029.409.064.566.206.173.157.404.22.589.162.512-.163 1.516-1.386 2.114-2.575 1.31-2.604 1.711-4.278 1.913-7.981.168-3.078.605-4.998 1.595-7.01 1.609-3.266 4.795-5.455 8.34-5.731 1.362-.106 1.901.012 1.901.418 0 .371-.45.677-1.553 1.057-1.373.473-2.024.869-2.807 1.708-1.39 1.488-1.979 3.331-2.339 7.322-.959 10.63-1.144 11.553-3.168 15.824l-.967 2.039.013 1.771c.015 1.962.274 3 .747 3 .175 0 .511-.39.927-1.078.792-1.308 1.794-2.387 2.217-2.387.437 0 .554.61.34 1.773-.38 2.065-.092 5.545.83 10.03.626 3.045 1.416 5.601 1.73 5.601.076 0 .389-.502.697-1.116.997-1.993 2.57-3.862 3.02-3.584.088.055.161.328.161.608s.243 1.887.54 3.571c1.965 11.146 4.951 18.06 9.755 22.585 2.788 2.626 6.454 4.479 10.387 5.247 2.128.413 2.755.482 2.658.289m1.976-32.34c-.042-.148-.121-.562-.177-.92-.127-.818-.651-1.611-1.191-1.801-.351-.124-.521-.069-1.113.356-.384.276-.915.564-1.181.641-1.554.446-3.764-1.426-3.438-2.912.324-1.477 3.181-2.376 4.968-1.563 1.494.679 3.571 3.619 3.571 5.06.001.924-1.225 1.9-1.439 1.144m-9.156-1.07c-1.429-1.734-1.825-5.181-.839-7.291 1.188-2.543 4.225-4.147 7.47-3.946 3.182.197 6.774 2.097 10.198 5.395 1.18 1.136 1.301 1.307 1.3 1.831-.002 1.102-1.033 1.554-1.941.849-.244-.189-1.239-1.063-2.212-1.942-4.507-4.071-7.46-5.155-10.388-3.812-2.541 1.165-3.691 4.167-3.133 8.182.09.65.133 1.213.095 1.251-.036.037-.285-.195-.55-.517m-9.03-23.591c-1.414-.863-2.255-2.296-2.344-3.991-.075-1.427.235-2.29 1.19-3.312.816-.874 1.774-1.401 3.127-1.72 1.064-.251 3.558-.301 4.468-.089.51.119.609.094.795-.196.117-.182.296-.765.398-1.294.111-.574.264-.962.38-.962.224 0 .291.239.538 1.916.126.854.292 1.37.55 1.708.59.775.435 1.784-.317 2.071-.277.105-.64.015-1.567-.39-1.391-.608-2.214-.677-2.667-.223-.63.631-.182 1.848.679 1.848.6 0 .88-.17 1.086-.662l.194-.462.191.579c.361 1.097-.11 2.417-1.111 3.112-.537.373-.779.437-1.653.437-.838 0-1.127-.07-1.592-.385-.609-.413-1.332-1.652-1.332-2.284 0-.71.359-1.571.877-2.106.485-.5.493-.526.128-.386-1.282.488-2.117 1.304-2.396 2.342-.299 1.113.123 2.604 1.081 3.816.255.323.465.664.465.758.001.263-.642.196-1.168-.125m31.459 6.688c.079-.209.354-1.822.611-3.585.836-5.735.569-8.256-1.01-9.56-.466-.385-1.378-.833-1.073-.527.052.052-.115.183-.37.291-1.16.488-.764 2.151.483 2.03.371-.036.596-.185.847-.559l.342-.51.105.558c.369 1.972-.895 3.619-2.778 3.619-1.614 0-2.845-1.247-2.845-2.882 0-1.362 1.032-2.596 2.327-2.783l.672-.097-.692-.11c-.381-.061-1.245-.115-1.922-.122-1.396-.013-2.157.268-2.524.931-.41.741.062 1.541 2.182 3.694 2.168 2.201 2.533 2.823 3.423 5.835.887 3 1.404 4.157 1.861 4.157.119-.001.281-.171.361-.38m-81.11-10.823c-.327-.777-.989-2.88-1.158-3.674-.3-1.412-.28-3.378.036-3.696.402-.404.947-.084 2.427 1.425 3.079 3.14 5.427 4.294 9.101 4.474l1.793.088.876-1.359c4.455-6.917 10.197-11.925 16.14-14.08 1.764-.64 2.489-1.01 2.675-1.355.213-.398.057-.565-1.142-1.221-.588-.322-1.09-.695-1.116-.83-.131-.68 3.654-1.556 8.885-2.057 2.821-.27 3.539-.376 3.532-.521-.002-.054-.57-.376-1.262-.714-1.993-.976-2.071-1.502-.3-2.028 1.177-.35 4.5-.343 6.487.013 3.194.572 6.707 2.053 10.375 4.373 4.924 3.115 5.762 3.542 7.602 3.876 2.034.369 3.825-.41 6.381-2.778 2.068-1.916 3.208-2.537 3.938-2.146.233.125.304.323.304.842 0 .374.086.734.192.803s1.256.125 2.557.125c2.531 0 2.351-.052 2.75.785.065.135.601.401 1.192.591 1.25.401 2.722 1.125 3.919 1.929 1.22.819 1.301.862 1.149.607-2.458-4.142-7.315-9.728-10.606-12.198-1.593-1.195-4.312-2.595-5.766-2.968-1.428-.366-3.651-.335-4.921.068-1.156.368-2.686 1.236-3.202 1.818-.319.359-.332.427-.124.636.208.208.345.194 1.28-.136.86-.303 1.35-.369 2.738-.37 2.742-.002 2.947.313.546.837-2.635.575-4.417 1.729-5.424 3.512-.251.445-.484.808-.518.808s-.484-.341-1-.758c-4.912-3.964-9.952-6.574-14.646-7.586-1.263-.272-2.045-.335-4.098-.328-2.328.008-2.689.048-4.382.489-2.405.626-5.28 2.039-7.378 3.625-2.824 2.136-5.607 5.132-8.953 9.64-3.072 4.139-6.604 6.895-10.51 8.202-3.508 1.174-6.678.89-9.316-.834-1.557-1.018-1.962-1.209-2.567-1.209-.658 0-.819.192-1.038 1.242-.096.46-.227.893-.291.962-.307.331-1.689-1.791-2.218-3.407-.606-1.848-.759-3.089-.66-5.332.247-5.572 2.533-10.953 7.03-16.553 1.513-1.884 4.068-4.337 5.537-5.318 1.665-1.112 1.837-1.288 1.837-1.887 0-.43-.145-.656-.846-1.316-.465-.438-.846-.847-.846-.907 0-.184.449-.27 2.691-.52 1.184-.132 3.952-.281 6.151-.331 4.272-.097 6.279.026 9.601.588 2.36.399 5.736.348 7-.106l.762-.274-1.292-.342c-.895-.237-2.473-.938-5.145-2.286-4.321-2.18-5.538-2.584-8.646-2.874-1.619-.151-5.649.02-5.878.249-.038.038.219.318.572.62s.642.675.642.827c0 .605-.232.655-4.975 1.082-3.329.3-7.527 1.388-10.297 2.67-2.04.944-2.037.977.079.901 2.031-.073 3.317.125 3.721.571.23.255.229.295-.024.523-.15.136-1.275.604-2.5 1.04-5.912 2.103-8.639 4.069-10.783 7.771-1.921 3.319-3.516 9.527-3.513 13.682.002 3.677 1.06 8.236 2.953 12.728.595 1.411 1.492 3.08 1.656 3.08.044 0 .056-.727.027-1.617-.084-2.59.534-4.97 1.446-5.567.54-.353.801.026 1.286 1.871 1.133 4.307 2.949 7.916 5.076 10.09 1.281 1.303 2.698 2.148 2.394 1.425m105.93-5.933c1.128-.537 2.537-1.577 3.466-2.561.288-.304 1.17-1.366 1.96-2.359 1.509-1.895 2.039-2.373 2.458-2.212.211.081.237.243.154.979-.055.485-.144 1.333-.198 1.883l-.099 1 .352-.308c.986-.862 3.186-5.01 4.072-7.686.913-2.753 1.208-4.905 1.11-8.098-.094-3.048-.426-4.805-1.412-7.47-1.892-5.111-5.673-9.952-10.166-13.01-3.112-2.121-5.754-3.106-8.365-3.117-1.319-.006-1.595.047-2.845.54-2.934 1.158-6.542 1.875-11.532 2.29l-2.306.192.692.309c.611.273 1.169.323 4.767.422 4.178.115 5.502.25 7.562.766 2.861.718 6.084 2.143 8.549 3.782 1.583 1.052 3.717 3.122 4.643 4.503 1.32 1.969 2.465 4.963 2.465 6.444 0 .588-.038.658-.363.658-.204 0-.668-.269-1.062-.616-.857-.756-1.06-.781-.933-.115.13.682 1.273 4.03 1.986 5.813.543 1.36.585 1.577.593 3.08.006 1.215-.062 1.799-.273 2.348-.376.977-.699.96-1.257-.069-.239-.44-.79-1.168-1.225-1.617-1.21-1.252-1.47-1.137-2.02.888-.216.798-.732 2.168-1.146 3.043-1.292 2.726-3.288 4.355-5.894 4.808-1.899.331-4.544-.142-6.977-1.247l-1.029-.467.457.481c.678.713 2.185 1.816 3.147 2.302 1.846.932 2.757 1.117 5.996 1.217l2.997.093.212.444c.274.574.052 1.395-.682 2.518-.29.443-.526.87-.526.949.001.218 1.44-.21 2.67-.796" fill="#4d4d4d" transform="translate(0 -258.36)"/><g stroke-linecap="round" stroke-linejoin="round"><path d="m106 2h53" fill="none" stroke="#a3cc6c" stroke-miterlimit="10" stroke-width="4"/><path d="m48 2h50" fill="none" stroke="#fbb03b" stroke-miterlimit="10" stroke-width="4"/><path d="m2 10h150" fill="none" stroke="#a3cc6c" stroke-miterlimit="10" stroke-width="4"/><path d="m160 10h9" fill="none" stroke="#fbb03b" stroke-miterlimit="10" stroke-width="4"/><path d="m2 2h10" fill="none" stroke="#ed6265" stroke-miterlimit="10" stroke-width="4"/><path d="m30 18h10" fill="none" stroke="#ed6265" stroke-miterlimit="10" stroke-width="4"/><path d="m20 2h20" fill="none" stroke="#9f94c4" stroke-miterlimit="10" stroke-width="4"/><path d="m2 18h20" fill="none" stroke="#9f94c4" stroke-miterlimit="10" stroke-width="4"/><path d="m474.5 253.07h53" fill="none" stroke="#a3cc6c" stroke-miterlimit="10" stroke-width="4"/><path d="m416.5 253.07h50" fill="none" stroke="#fbb03b" stroke-miterlimit="10" stroke-width="4"/><path d="m370.5 261.07h77" fill="none" stroke="#a3cc6c" stroke-miterlimit="10" stroke-width="4"/><path d="m370.5 253.07h10" fill="none" stroke="#ed6265" stroke-miterlimit="10" stroke-width="4"/><path d="m496.51 261.07h10" fill="none" stroke="#ed6265" stroke-miterlimit="10" stroke-width="4"/><path d="m388.5 253.07h20" fill="none" stroke="#9f94c4" stroke-miterlimit="10" stroke-width="4"/><path d="m455.5 261.07h4.988" fill="none" stroke="#fbb03b" stroke-miterlimit="10" stroke-width="4"/><path d="m468.51 261.07h20" fill="none" stroke="#9f94c4" stroke-miterlimit="10" stroke-width="4"/><path d="m309 76h150" fill="none" stroke="#a3cc6c" stroke-miterlimit="10" stroke-width="4"/><path d="m317 84h100" fill="none" stroke="#a3cc6c" stroke-miterlimit="10" stroke-width="4"/><path d="m424 84h50" fill="none" stroke="#a3cc6c" stroke-miterlimit="10" stroke-width="4"/><path d="m323 92h30" fill="none" stroke="#fbb03b" stroke-miterlimit="10" stroke-width="4"/><path d="m389 92h10" fill="none" stroke="#ed6265" stroke-miterlimit="10" stroke-width="4"/><path d="m361 92h20" fill="none" stroke="#9f94c4" stroke-miterlimit="10" stroke-width="4"/><path d="m402 68h53" fill="none" stroke="#a3cc6c" stroke-miterlimit="10" stroke-width="4"/><path d="m344 68h50" fill="none" stroke="#fbb03b" stroke-miterlimit="10" stroke-width="4"/><path d="m298 68h10" fill="none" stroke="#ed6265" stroke-miterlimit="10" stroke-width="4"/><path d="m316 68h20" fill="none" stroke="#9f94c4" stroke-miterlimit="10" stroke-width="4"/></g><path d="m326.28 445h-122.55c-2.057 0-3.724-1.667-3.724-3.724v-102.55c0-2.057 1.667-3.724 3.724-3.724h122.55c2.057 0 3.724 1.667 3.724 3.724v102.55c0 2.057-1.667 3.724-3.724 3.724" fill="#f8f1e7"/><path d="m305 353h-80" style="fill:none;stroke:#4d4d4d;stroke-linejoin:round;stroke-linecap:round;stroke-width:4;stroke-miterlimit:10"/><path d="m226.13 342v4" style="fill:none;stroke:#4d4d4d;stroke-linejoin:round;stroke-linecap:round;stroke-width:4;stroke-miterlimit:10"/><path d="m233.2 342v4" style="fill:none;stroke:#4d4d4d;stroke-linejoin:round;stroke-linecap:round;stroke-width:4;stroke-miterlimit:10"/><path d="m240.27 342v4" style="fill:none;stroke:#4d4d4d;stroke-linejoin:round;stroke-linecap:round;stroke-width:4;stroke-miterlimit:10"/><path d="m247.33 342v4" style="fill:none;stroke:#4d4d4d;stroke-linejoin:round;stroke-linecap:round;stroke-width:4;stroke-miterlimit:10"/><path d="m254.4 342v4" style="fill:none;stroke:#4d4d4d;stroke-linejoin:round;stroke-linecap:round;stroke-width:4;stroke-miterlimit:10"/><path d="m261.47 342v4" style="fill:none;stroke:#4d4d4d;stroke-linejoin:round;stroke-linecap:round;stroke-width:4;stroke-miterlimit:10"/><path d="m268.53 342v4" style="fill:none;stroke:#4d4d4d;stroke-linejoin:round;stroke-linecap:round;stroke-width:4;stroke-miterlimit:10"/><path d="m275.6 342v4" style="fill:none;stroke:#4d4d4d;stroke-linejoin:round;stroke-linecap:round;stroke-width:4;stroke-miterlimit:10"/><path d="m282.67 342v4" style="fill:none;stroke:#4d4d4d;stroke-linejoin:round;stroke-linecap:round;stroke-width:4;stroke-miterlimit:10"/><path d="m289.73 342v4" style="fill:none;stroke:#4d4d4d;stroke-linejoin:round;stroke-linecap:round;stroke-width:4;stroke-miterlimit:10"/><path d="m296.8 342v4" style="fill:none;stroke:#4d4d4d;stroke-linejoin:round;stroke-linecap:round;stroke-width:4;stroke-miterlimit:10"/><path d="m303.87 342v4" style="fill:none;stroke:#4d4d4d;stroke-linejoin:round;stroke-linecap:round;stroke-width:4;stroke-miterlimit:10"/><path d="m201 336-1 108 30-7v-50z" fill="#f4e2c9"/><path d="m202 444h124l-26-7h-71z" fill="#c69e83"/><path d="m329 336 1 108-30-7v-50z" fill="#f4e2c9"/><path d="m326.28 445h-122.55c-2.057 0-3.724-1.667-3.724-3.724v-102.55c0-2.057 1.667-3.724 3.724-3.724h122.55c2.057 0 3.724 1.667 3.724 3.724v102.55c0 2.057-1.667 3.724-3.724 3.724z" style="fill:none;stroke:#4d4d4d;stroke-linejoin:round;stroke-linecap:round;stroke-width:4;stroke-miterlimit:10"/><path d="m203 443 28-6" style="fill:none;stroke:#4d4d4d;stroke-linejoin:round;stroke-linecap:round;stroke-width:4;stroke-miterlimit:10"/><path d="m298.24 437h-66.47c-.974 0-1.764-.79-1.764-1.764v-46.47c0-.974.79-1.764 1.764-1.764h66.47c.974 0 1.764.79 1.764 1.764v46.47c0 .974-.79 1.764-1.764 1.764z" style="fill:#f8f1e7;stroke:#4d4d4d;stroke-linejoin:round;stroke-linecap:round;stroke-width:4;stroke-miterlimit:10"/><path d="m283.39 409h-36.787c-.887 0-1.606-.719-1.606-1.606v-8.787c0-.887.719-1.606 1.606-1.606h36.787c.887 0 1.606.719 1.606 1.606v8.787c0 .887-.719 1.606-1.606 1.606z" style="fill:#f4e2c9;stroke:#4d4d4d;stroke-linejoin:round;stroke-linecap:round;stroke-width:4;stroke-miterlimit:10"/><path d="m247.84 419v8" style="fill:none;stroke:#4d4d4d;stroke-linejoin:round;stroke-linecap:round;stroke-width:4;stroke-miterlimit:10"/><path d="m254.73 419v8" style="fill:none;stroke:#4d4d4d;stroke-linejoin:round;stroke-linecap:round;stroke-width:4;stroke-miterlimit:10"/><path d="m261.62 419v8" style="fill:none;stroke:#4d4d4d;stroke-linejoin:round;stroke-linecap:round;stroke-width:4;stroke-miterlimit:10"/><path d="m268.51 419v8" style="fill:none;stroke:#4d4d4d;stroke-linejoin:round;stroke-linecap:round;stroke-width:4;stroke-miterlimit:10"/><path d="m275.4 419v8" style="fill:none;stroke:#4d4d4d;stroke-linejoin:round;stroke-linecap:round;stroke-width:4;stroke-miterlimit:10"/><path d="m282.29 419v8" style="fill:none;stroke:#4d4d4d;stroke-linejoin:round;stroke-linecap:round;stroke-width:4;stroke-miterlimit:10"/><path d="m230 387-28-50" style="fill:none;stroke:#4d4d4d;stroke-linejoin:round;stroke-linecap:round;stroke-width:4;stroke-miterlimit:10"/><path d="m328 337-28 50" style="fill:none;stroke:#4d4d4d;stroke-linejoin:round;stroke-linecap:round;stroke-width:4;stroke-miterlimit:10"/><path d="m327 443-28-6" style="fill:none;stroke:#4d4d4d;stroke-linejoin:round;stroke-linecap:round;stroke-width:4;stroke-miterlimit:10"/></g></switch></svg>