<svg width="39" height="39" viewBox="0 0 39 39" xmlns="http://www.w3.org/2000/svg" xmlns:xlink="http://www.w3.org/1999/xlink"><title>configure-icon</title><defs><path id="a" d="M0 0h39v39H0z"/></defs><g fill="none" fill-rule="evenodd"><mask id="b" fill="#fff"><use xlink:href="#a"/></mask><path d="M36.845 33.587l-3.255 3.258a.81.81 0 0 1-.578.239.804.804 0 0 1-.576-.24l-8.943-8.961a.817.817 0 0 1-.177-.866.957.957 0 0 0-.219-1.017l-3.785-3.79a.818.818 0 0 1-.001-1.154l1.746-1.745a.816.816 0 0 1 1.153-.001L26 23.096a.956.956 0 0 0 1.017.219.82.82 0 0 1 .865.179l8.962 8.94a.81.81 0 0 1 .238.576.81.81 0 0 1-.238.577m1.354-2.511h-.002l-8.961-8.94a2.723 2.723 0 0 0-2.258-.77l-1.742-1.742 2.947-2.947 5.534-.001a.954.954 0 0 0 .677-.282l4.322-4.323a.96.96 0 0 0 .281-.677L39 5.283a.96.96 0 0 0-1.637-.679l-3.978 3.98-2.969-2.97 3.978-3.979A.96.96 0 0 0 33.717 0h-6.113a.957.957 0 0 0-.678.281l-4.322 4.325a.96.96 0 0 0-.28.678v5.822l-1.92 1.915a.958.958 0 0 0 1.353 1.355l2.254-2.245c.182-.18.255-.45.255-.707a.83.83 0 0 0-.027-.215V5.68L28 1.917h3.404l-3.02 3.02a.958.958 0 0 0 0 1.355l4.324 4.324a.957.957 0 0 0 1.354 0l3.02-3.02-.001 3.401-3.761 3.762-5.538.002a.96.96 0 0 0-.68.283l-3.223 3.225-.315-.315a2.737 2.737 0 0 0-3.862.003l-.196.195-12.15-12.15-.08-1.325a.963.963 0 0 0-.28-.618L4.572 1.634a.958.958 0 0 0-1.355.001L1.634 3.221a.958.958 0 0 0 .001 1.354l2.422 2.422a.959.959 0 0 0 .621.279l1.32.078 12.153 12.154-.194.194a2.735 2.735 0 0 0 0 3.862l.315.315-3.232 3.238a.954.954 0 0 0-.28.677v5.522l-3.762 3.764H7.595l3.02-3.02a.957.957 0 0 0 0-1.354l-4.323-4.323a.958.958 0 0 0-1.356 0l-3.02 3.02.002-3.404 3.76-3.76h5.456a.964.964 0 0 0 .99-.23l2.334-2.332a.958.958 0 1 0-1.356-1.356l-2 2.001-5.82.001a.954.954 0 0 0-.676.28L.282 26.925a.956.956 0 0 0-.28.677L0 33.716a.96.96 0 0 0 1.635.677l3.98-3.978 2.967 2.968-3.978 3.978a.957.957 0 0 0 .677 1.635h6.113c.254 0 .498-.1.677-.28l4.323-4.325a.956.956 0 0 0 .281-.677V28.19l2.951-2.954 1.74 1.741c-.1.822.174 1.66.77 2.259l8.942 8.96A2.712 2.712 0 0 0 33.01 39h.002c.73 0 1.416-.284 1.933-.801l3.255-3.256a2.72 2.72 0 0 0 .8-1.935c0-.73-.285-1.416-.801-1.932" fill="#333" mask="url(#b)"/></g></svg>