<svg height="1600" viewBox="0 0 3405 1600" width="3405" xmlns="http://www.w3.org/2000/svg"><g transform="translate(.13181 .9766)"><path d="m1728.83549 0-141.3779 47.8613v720.7835l-94.3595-31.9509v-656.7188l-282.7546 95.9187v464.9145l-94.2619-31.9507v-401.0452l-94.4247 32.0484v434.0674l282.9494 95.9187v-528.8826l94.3274-32.0483v592.7842l282.7546 95.9831v-784.6529l47.1472-15.9437 47.1148 15.9437v784.6529l282.9488-95.9831v-592.7842l94.1654 32.0483v528.8826l282.9165-95.9187v-434.0674l-94.3273-32.0484v401.0452l-94.1644 31.9507v-464.9145l-283.0473-95.9187v656.7188l-94.2298 31.9509v-720.7835z"/><path d="m0 1235.2162v337.49978h309.99735v-43.60798h-259.21319v-109.8152h167.80826v-44.258h-167.80826v-95.5607h250.28379v-44.2579z"/><path d="m1374.64539 1438.2553c0 60.2981-41.0427 100.0422-101.9908 100.0422-59.2589 0-96.1773-40.2964-96.1773-100.0422v-202.1297h-50.3621v204.4353c0 91.8588 68.4808 142.02667 146.1824 142.02667 114.7838 0 152.2231-76.14427 152.2231-142.02667v-204.4353h-49.8753z"/><path d="m1703.86509 1572.65162h50.005v-337.40322h-50.005z"/><path d="m2348.73259 1499.6569-246.3874-264.3431h-49.3553v337.40218h49.9729v-266.55138l246.7769 266.55138h48.7052v-337.40218h-49.7123z"/><path d="m2700.51939 1572.65162h49.9405v-337.40322h-49.9405z"/><path d="m3234.82419 1389.549 144.6893-154.7222h-61.4671l-114.7837 121.3097-111.5689-121.3097h-65.0716l139.4615 154.8198-174.432 183.00502h63.7073l143.0337-150.24252 136.3117 150.24252h69.032z"/><path d="m821.92979 1403.7393c0 47.6662-16.008 78.7085-45.0043 105.1073l-26.8857-30.2628-57.8952-.089 47.4072 52.7322c-11.5921 5.4215-32.4057 9.8386-48.706 9.9388-74.26049.4571-133.55179-57.8001-133.55179-137.0608v-1.196c0-80.6249 55.52478-137.6757 130.23979-138.0328 74.7474-.6446 134.396 57.4079 134.396 137.5782zm-133.292-182.06473c-103.45156.64573-183.23199 76.66453-183.23199 182.90873v1.2699c0 105.4 81.72878 179.66008 184.43329 179.04349 26.4312-.18465 57.5381-6.91246 81.0143-18.60643l28.2495 31.75654h57.8952l-49.4203-55.3297c40.4908-30.1007 66.0778-79.6188 66.0778-140.7279v-1.2979c0-104.8154-82.0209-179.7577-185.0179-179.0112z"/><path d="m2602.78269 557.7812v-23.9312h18.5735c9.3192 0 15.1961 4.3168 15.1961 11.9491 0 7.1793-5.3292 11.9821-15.1961 11.9821zm-21.56 44.0949h21.6254v-27.1784h13.6379l19.0603 27.1784h25.8464l-22.4371-30.9448c11.7538-3.7645 19.5148-12.793 19.5148-26.5929 0-19.4184-15.0985-28.5426-35.718-28.5426h-41.5297zm35.2633 32.5674c-42.8936 0-75.3001-33.1196-75.3001-73.4483v-.4598c0-40.3285 32.8612-74.0005 75.3001-74.0005 42.9903 0 75.2018 33.2174 75.2018 73.4483v.5528c0 40.2964-32.666 73.9039-75.2018 73.9039zm0 9.0296c47.309 0 84.9426-37.9262 84.9426-82.9305v-.5528c0-45.0041-37.1787-82.5724-84.9426-82.5724-47.4075 0-85.0411 38.023-85.0411 83.1247v.4598c0 44.9069 37.1789 82.475 85.0411 82.475z"/></g></svg>