<svg xmlns="http://www.w3.org/2000/svg" viewBox="0 0 94 122">
  <g id="container">
    <path fill="#fff" d="M8.1 89.9L47.6 110l38-20.1V11.3H8.1z"/>
    <path fill="#f2f3f2" d="M86.4 11.6L7.3 91.3l41 20.3 38.1-19.5z"/>
    <path d="M5.5 37.5v54.1l1.4.7 39.5 20.1 1.2.6 1.2-.6 38.1-20.1 1.4-.7V8.7H5.5v28.8zm2.6 52.6V11.3h77.6v78.8l-38.1 20.1L8.1 90.1z" fill="#dcdedc"/>
    <path id="logo" d="M46.9 12.6c.4 0 .8 0 1.2.1L46.9 15c-1.8-.1-3.4 1.3-3.5 3.1-.1 1.8 1.3 3.4 3.1 3.5h.4c.8 0 1.6-.3 2.2-.8l1.3 2.2c-1 .7-2.2 1.1-3.5 1.1-3.2.1-5.9-2.3-6-5.5-.1-3.2 2.3-5.9 5.5-6h.5zm4.1 4.9l1.5 2.5-1.5 2.4-1.4-2.4h-2.9l1.5-2.5H51zm-2.4-.9c0-.4.1-.8.3-1.1.2-.3.6-.6.9-.8l.2-.1c.4-.2.5-.3.5-.5s-.3-.4-.5-.4c-.4 0-.7.2-.9.6l-.5-.5c.1-.2.3-.4.5-.6.3-.2.6-.2.9-.2.3 0 .7.1.9.3.2.2.4.5.4.8 0 .5-.3.9-.9 1.1l-.3.2c-.3.2-.5.3-.6.6h1.8v.7l-2.7-.1zm-1.7 12.5l9.5-5.4v-15H37.3v14.9l9.6 5.5z" fill="#ff492c"/>
    <path id="banner" d="M90.2 64.5H3.6l-3.2 7 3.2 7h86.6l3.1-7z" fill="#23cca2"/>
  <path fill="#252530" transform="translate(19.71, 60)" d="M4.51 0.12Q3.31 0.12 2.42-0.26Q1.51-0.65 1.03-1.36Q0.54-2.07 0.54-3.01L0.54-3.01L0.54-3.34Q0.54-3.42 0.59-3.47Q0.65-3.52 0.72-3.52L0.72-3.52L2.43-3.52Q2.50-3.52 2.56-3.47Q2.61-3.42 2.61-3.34L2.61-3.34L2.61-3.12Q2.61-2.52 3.17-2.11Q3.72-1.69 4.67-1.69L4.67-1.69Q5.46-1.69 5.85-2.03Q6.24-2.37 6.24-2.86L6.24-2.86Q6.24-3.23 6-3.47Q5.76-3.72 5.35-3.91Q4.93-4.09 4.04-4.42L4.04-4.42Q3.03-4.77 2.33-5.13Q1.64-5.49 1.16-6.11Q0.69-6.73 0.69-7.65L0.69-7.65Q0.69-8.55 1.16-9.22Q1.62-9.90 2.44-10.26Q3.27-10.62 4.35-10.62L4.35-10.62Q5.49-10.62 6.38-10.21Q7.27-9.81 7.78-9.08Q8.28-8.36 8.28-7.39L8.28-7.39L8.28-7.17Q8.28-7.09 8.23-7.04Q8.17-6.99 8.10-6.99L8.10-6.99L6.38-6.99Q6.30-6.99 6.25-7.04Q6.19-7.09 6.19-7.17L6.19-7.17L6.19-7.29Q6.19-7.92 5.68-8.36Q5.16-8.80 4.26-8.80L4.26-8.80Q3.55-8.80 3.16-8.50Q2.76-8.21 2.76-7.68L2.76-7.68Q2.76-7.30 2.99-7.05Q3.23-6.79 3.68-6.59Q4.14-6.39 5.10-6.04L5.10-6.04Q6.17-5.65 6.77-5.35Q7.38-5.05 7.87-4.46Q8.36-3.87 8.36-2.92L8.36-2.92Q8.36-1.51 7.32-0.70Q6.29 0.12 4.51 0.12L4.51 0.12ZM14.20-7.53Q14.20-7.60 14.26-7.66Q14.31-7.71 14.38-7.71L14.38-7.71L16.14-7.71Q16.21-7.71 16.27-7.66Q16.32-7.60 16.32-7.53L16.32-7.53L16.32-0.18Q16.32-0.10 16.27-0.05Q16.21 0 16.14 0L16.14 0L14.38 0Q14.31 0 14.26-0.05Q14.20-0.10 14.20-0.18L14.20-0.18L14.20-0.69Q14.20-0.73 14.17-0.74Q14.14-0.75 14.11-0.70L14.11-0.70Q13.51 0.10 12.25 0.10L12.25 0.10Q11.11 0.10 10.38-0.58Q9.64-1.27 9.64-2.52L9.64-2.52L9.64-7.53Q9.64-7.60 9.70-7.66Q9.75-7.71 9.82-7.71L9.82-7.71L11.56-7.71Q11.64-7.71 11.69-7.66Q11.74-7.60 11.74-7.53L11.74-7.53L11.74-3.04Q11.74-2.44 12.07-2.07Q12.39-1.69 12.96-1.69L12.96-1.69Q13.47-1.69 13.80-2.00Q14.13-2.31 14.20-2.80L14.20-2.80L14.20-7.53ZM24.76-5.64Q25.03-4.88 25.03-3.84L25.03-3.84Q25.03-2.80 24.75-1.96L24.75-1.96Q24.40-1.00 23.66-0.44Q22.92 0.12 21.82 0.12L21.82 0.12Q20.74 0.12 20.14-0.63L20.14-0.63Q20.11-0.67 20.08-0.66Q20.05-0.65 20.05-0.60L20.05-0.60L20.05 2.61Q20.05 2.69 20.00 2.74Q19.95 2.79 19.87 2.79L19.87 2.79L18.12 2.79Q18.04 2.79 17.99 2.74Q17.94 2.69 17.94 2.61L17.94 2.61L17.94-7.53Q17.94-7.60 17.99-7.66Q18.04-7.71 18.12-7.71L18.12-7.71L19.87-7.71Q19.95-7.71 20.00-7.66Q20.05-7.60 20.05-7.53L20.05-7.53L20.05-7.04Q20.05-6.99 20.08-6.98Q20.11-6.97 20.14-7.00L20.14-7.00Q20.77-7.83 21.88-7.83L21.88-7.83Q22.92-7.83 23.68-7.25Q24.43-6.67 24.76-5.64L24.76-5.64ZM22.47-2.28Q22.84-2.86 22.84-3.87L22.84-3.87Q22.84-4.81 22.53-5.37L22.53-5.37Q22.18-6.01 21.42-6.01L21.42-6.01Q20.73-6.01 20.38-5.37L20.38-5.37Q20.07-4.83 20.07-3.85L20.07-3.85Q20.07-2.85 20.40-2.29L20.40-2.29Q20.74-1.69 21.42-1.69L21.42-1.69Q22.09-1.69 22.47-2.28L22.47-2.28ZM33.28-5.64Q33.55-4.88 33.55-3.84L33.55-3.84Q33.55-2.80 33.27-1.96L33.27-1.96Q32.92-1.00 32.18-0.44Q31.44 0.12 30.34 0.12L30.34 0.12Q29.26 0.12 28.66-0.63L28.66-0.63Q28.63-0.67 28.60-0.66Q28.57-0.65 28.57-0.60L28.57-0.60L28.57 2.61Q28.57 2.69 28.52 2.74Q28.47 2.79 28.39 2.79L28.39 2.79L26.64 2.79Q26.56 2.79 26.51 2.74Q26.46 2.69 26.46 2.61L26.46 2.61L26.46-7.53Q26.46-7.60 26.51-7.66Q26.56-7.71 26.64-7.71L26.64-7.71L28.39-7.71Q28.47-7.71 28.52-7.66Q28.57-7.60 28.57-7.53L28.57-7.53L28.57-7.04Q28.57-6.99 28.60-6.98Q28.63-6.97 28.66-7.00L28.66-7.00Q29.29-7.83 30.40-7.83L30.40-7.83Q31.44-7.83 32.20-7.25Q32.95-6.67 33.28-5.64L33.28-5.64ZM30.99-2.28Q31.36-2.86 31.36-3.87L31.36-3.87Q31.36-4.81 31.05-5.37L31.05-5.37Q30.70-6.01 29.94-6.01L29.94-6.01Q29.25-6.01 28.90-5.37L28.90-5.37Q28.59-4.83 28.59-3.85L28.59-3.85Q28.59-2.85 28.92-2.29L28.92-2.29Q29.26-1.69 29.94-1.69L29.94-1.69Q30.61-1.69 30.99-2.28L30.99-2.28ZM38.28 0.12Q37.02 0.12 36.12-0.54Q35.22-1.20 34.89-2.34L34.89-2.34Q34.68-3.04 34.68-3.87L34.68-3.87Q34.68-4.75 34.89-5.46L34.89-5.46Q35.23-6.57 36.13-7.20Q37.03-7.83 38.30-7.83L38.30-7.83Q39.52-7.83 40.39-7.21Q41.27-6.58 41.63-5.47L41.63-5.47Q41.86-4.72 41.86-3.90L41.86-3.90Q41.86-3.09 41.66-2.38L41.66-2.38Q41.32-1.21 40.43-0.55Q39.54 0.12 38.28 0.12L38.28 0.12ZM38.28-1.69Q38.77-1.69 39.12-1.99Q39.46-2.29 39.61-2.82L39.61-2.82Q39.73-3.30 39.73-3.87L39.73-3.87Q39.73-4.50 39.61-4.93L39.61-4.93Q39.45-5.44 39.10-5.73Q38.76-6.01 38.27-6.01L38.27-6.01Q37.75-6.01 37.42-5.73Q37.08-5.44 36.93-4.93L36.93-4.93Q36.81-4.58 36.81-3.87L36.81-3.87Q36.81-3.19 36.91-2.82L36.91-2.82Q37.06-2.29 37.42-1.99Q37.77-1.69 38.28-1.69L38.28-1.69ZM47.07-7.81Q47.61-7.81 47.93-7.60L47.93-7.60Q48.05-7.54 48.02-7.38L48.02-7.38L47.70-5.67Q47.69-5.49 47.49-5.56L47.49-5.56Q47.27-5.64 46.97-5.64L46.97-5.64Q46.84-5.64 46.64-5.61L46.64-5.61Q46.10-5.56 45.72-5.21Q45.35-4.86 45.35-4.27L45.35-4.27L45.35-0.18Q45.35-0.10 45.29-0.05Q45.24 0 45.17 0L45.17 0L43.41 0Q43.34 0 43.28-0.05Q43.23-0.10 43.23-0.18L43.23-0.18L43.23-7.53Q43.23-7.60 43.28-7.66Q43.34-7.71 43.41-7.71L43.41-7.71L45.17-7.71Q45.24-7.71 45.29-7.66Q45.35-7.60 45.35-7.53L45.35-7.53L45.35-6.96Q45.35-6.92 45.38-6.90Q45.41-6.88 45.42-6.92L45.42-6.92Q46.04-7.81 47.07-7.81L47.07-7.81ZM53.49-6.19Q53.49-6.12 53.44-6.07Q53.39-6.01 53.31-6.01L53.31-6.01L51.87-6.01Q51.80-6.01 51.80-5.94L51.80-5.94L51.80-2.76Q51.80-2.27 52.00-2.02Q52.20-1.78 52.65-1.78L52.65-1.78L53.15-1.78Q53.22-1.78 53.27-1.73Q53.33-1.68 53.33-1.60L53.33-1.60L53.33-0.18Q53.33-0.01 53.15 0.01L53.15 0.01Q52.52 0.04 52.25 0.04L52.25 0.04Q51 0.04 50.39-0.37Q49.77-0.78 49.76-1.92L49.76-1.92L49.76-5.94Q49.76-6.01 49.68-6.01L49.68-6.01L48.83-6.01Q48.75-6.01 48.70-6.07Q48.65-6.12 48.65-6.19L48.65-6.19L48.65-7.53Q48.65-7.60 48.70-7.66Q48.75-7.71 48.83-7.71L48.83-7.71L49.68-7.71Q49.76-7.71 49.76-7.79L49.76-7.79L49.76-9.57Q49.76-9.64 49.81-9.70Q49.86-9.75 49.94-9.75L49.94-9.75L51.62-9.75Q51.69-9.75 51.74-9.70Q51.80-9.64 51.80-9.57L51.80-9.57L51.80-7.79Q51.80-7.71 51.87-7.71L51.87-7.71L53.31-7.71Q53.39-7.71 53.44-7.66Q53.49-7.60 53.49-7.53L53.49-7.53L53.49-6.19Z"/><path fill="#252530" transform="translate(31.03, 45)" d="M7.14-5.47Q7.05-5.43 7.14-5.38L7.14-5.38Q8.56-4.65 8.56-2.94L8.56-2.94Q8.56-1.48 7.57-0.74Q6.58 0 4.98 0L4.98 0L1.09 0Q1.02 0 0.97-0.05Q0.91-0.10 0.91-0.18L0.91-0.18L0.91-10.32Q0.91-10.39 0.97-10.45Q1.02-10.50 1.09-10.50L1.09-10.50L4.86-10.50Q8.41-10.50 8.41-7.62L8.41-7.62Q8.41-6.12 7.14-5.47L7.14-5.47ZM3.10-8.69Q3.03-8.69 3.03-8.61L3.03-8.61L3.03-6.27Q3.03-6.19 3.10-6.19L3.10-6.19L4.86-6.19Q5.56-6.19 5.96-6.52Q6.34-6.85 6.34-7.42L6.34-7.42Q6.34-8.01 5.96-8.35Q5.56-8.69 4.86-8.69L4.86-8.69L3.10-8.69ZM4.98-1.83Q5.67-1.83 6.06-2.18Q6.45-2.53 6.45-3.15L6.45-3.15Q6.45-3.76 6.06-4.12Q5.67-4.47 4.96-4.47L4.96-4.47L3.10-4.47Q3.03-4.47 3.03-4.39L3.03-4.39L3.03-1.91Q3.03-1.83 3.10-1.83L3.10-1.83L4.98-1.83ZM16.90-4.65Q16.99-4.08 16.96-3.38L16.96-3.38Q16.95-3.19 16.77-3.19L16.77-3.19L12.13-3.19Q12.04-3.19 12.07-3.12L12.07-3.12Q12.12-2.82 12.24-2.52L12.24-2.52Q12.63-1.68 13.83-1.68L13.83-1.68Q14.79-1.69 15.34-2.46L15.34-2.46Q15.40-2.55 15.48-2.55L15.48-2.55Q15.52-2.55 15.58-2.49L15.58-2.49L16.66-1.43Q16.74-1.35 16.74-1.29L16.74-1.29Q16.74-1.26 16.68-1.17L16.68-1.17Q16.18-0.55 15.40-0.22Q14.63 0.12 13.69 0.12L13.69 0.12Q12.40 0.12 11.51-0.46Q10.62-1.05 10.23-2.10L10.23-2.10Q9.91-2.85 9.91-4.06L9.91-4.06Q9.91-4.89 10.14-5.52L10.14-5.52Q10.48-6.58 11.35-7.21Q12.21-7.84 13.39-7.84L13.39-7.84Q14.89-7.84 15.80-6.97Q16.71-6.10 16.90-4.65L16.90-4.65ZM13.41-6.01Q12.46-6.01 12.16-5.13L12.16-5.13Q12.10-4.93 12.06-4.65L12.06-4.65Q12.06-4.58 12.13-4.58L12.13-4.58L14.73-4.58Q14.82-4.58 14.79-4.65L14.79-4.65Q14.71-5.08 14.71-5.07L14.71-5.07Q14.58-5.52 14.24-5.77Q13.90-6.01 13.41-6.01L13.41-6.01ZM21.24 0.10Q20.23 0.10 19.48-0.18Q18.73-0.46 18.32-0.97Q17.91-1.48 17.91-2.13L17.91-2.13L17.91-2.28Q17.91-2.35 17.96-2.41Q18.01-2.46 18.09-2.46L18.09-2.46L19.75-2.46Q19.83-2.46 19.88-2.41Q19.93-2.35 19.93-2.28L19.93-2.28L19.93-2.27Q19.93-1.93 20.30-1.70Q20.67-1.47 21.22-1.47L21.22-1.47Q21.73-1.47 22.05-1.67Q22.36-1.88 22.36-2.17L22.36-2.17Q22.36-2.44 22.09-2.58Q21.82-2.71 21.21-2.86L21.21-2.86Q20.50-3.04 20.10-3.21L20.10-3.21Q19.14-3.54 18.57-4.02Q18.00-4.50 18.00-5.40L18.00-5.40Q18.00-6.51 18.86-7.16Q19.72-7.81 21.15-7.81L21.15-7.81Q22.11-7.81 22.83-7.51Q23.55-7.20 23.95-6.64Q24.34-6.09 24.34-5.38L24.34-5.38Q24.34-5.31 24.29-5.26Q24.24-5.21 24.16-5.21L24.16-5.21L22.56-5.21Q22.48-5.21 22.43-5.26Q22.38-5.31 22.38-5.38L22.38-5.38Q22.38-5.71 22.04-5.94Q21.70-6.17 21.15-6.17L21.15-6.17Q20.65-6.17 20.34-5.98Q20.02-5.80 20.02-5.49L20.02-5.49Q20.02-5.19 20.33-5.04Q20.64-4.89 21.36-4.72L21.36-4.72Q21.52-4.68 21.73-4.63Q21.94-4.58 22.18-4.50L22.18-4.50Q23.25-4.18 23.86-3.69Q24.48-3.19 24.48-2.25L24.48-2.25Q24.48-1.14 23.60-0.52Q22.72 0.10 21.24 0.10L21.24 0.10ZM30.10-6.19Q30.10-6.12 30.05-6.07Q30-6.01 29.92-6.01L29.92-6.01L28.48-6.01Q28.41-6.01 28.41-5.94L28.41-5.94L28.41-2.76Q28.41-2.27 28.61-2.02Q28.81-1.78 29.27-1.78L29.27-1.78L29.76-1.78Q29.83-1.78 29.89-1.73Q29.94-1.68 29.94-1.60L29.94-1.60L29.94-0.18Q29.94-0.01 29.76 0.01L29.76 0.01Q29.13 0.04 28.86 0.04L28.86 0.04Q27.61 0.04 27-0.37Q26.38-0.78 26.37-1.92L26.37-1.92L26.37-5.94Q26.37-6.01 26.29-6.01L26.29-6.01L25.44-6.01Q25.36-6.01 25.31-6.07Q25.26-6.12 25.26-6.19L25.26-6.19L25.26-7.53Q25.26-7.60 25.31-7.66Q25.36-7.71 25.44-7.71L25.44-7.71L26.29-7.71Q26.37-7.71 26.37-7.79L26.37-7.79L26.37-9.57Q26.37-9.64 26.42-9.70Q26.47-9.75 26.55-9.75L26.55-9.75L28.23-9.75Q28.30-9.75 28.36-9.70Q28.41-9.64 28.41-9.57L28.41-9.57L28.41-7.79Q28.41-7.71 28.48-7.71L28.48-7.71L29.92-7.71Q30-7.71 30.05-7.66Q30.10-7.60 30.10-7.53L30.10-7.53L30.10-6.19Z"/><path fill="#242530" transform="translate(35.00, 75.4)" d="M5.46-6.12Q5.46-6.07 5.42-6.04Q5.39-6 5.34-6L5.34-6L1.94-6Q1.89-6 1.89-5.95L1.89-5.95L1.89-4.08Q1.89-4.03 1.94-4.03L1.94-4.03L4.23-4.03Q4.28-4.03 4.32-4.00Q4.35-3.96 4.35-3.91L4.35-3.91L4.35-3.15Q4.35-3.10 4.32-3.06Q4.28-3.03 4.23-3.03L4.23-3.03L1.94-3.03Q1.89-3.03 1.89-2.98L1.89-2.98L1.89-0.12Q1.89-0.07 1.85-0.04Q1.82 0 1.77 0L1.77 0L0.85 0Q0.80 0 0.77-0.04Q0.73-0.07 0.73-0.12L0.73-0.12L0.73-6.88Q0.73-6.93 0.77-6.96Q0.80-7 0.85-7L0.85-7L5.34-7Q5.39-7 5.42-6.96Q5.46-6.93 5.46-6.88L5.46-6.88L5.46-6.12ZM10.02 0Q9.92 0 9.89-0.10L9.89-0.10L9.56-1.17Q9.54-1.21 9.51-1.21L9.51-1.21L6.87-1.21Q6.84-1.21 6.82-1.17L6.82-1.17L6.49-0.10Q6.46 0 6.36 0L6.36 0L5.36 0Q5.30 0 5.27-0.04Q5.24-0.07 5.26-0.14L5.26-0.14L7.43-6.90Q7.46-7 7.56-7L7.56-7L8.81-7Q8.91-7 8.94-6.90L8.94-6.90L11.12-0.14Q11.13-0.12 11.13-0.09L11.13-0.09Q11.13 0 11.02 0L11.02 0L10.02 0ZM7.13-2.18Q7.12-2.12 7.17-2.12L7.17-2.12L9.20-2.12Q9.26-2.12 9.24-2.18L9.24-2.18L8.21-5.53Q8.20-5.57 8.18-5.57Q8.16-5.57 8.15-5.53L8.15-5.53L7.13-2.18ZM12.28 0Q12.23 0 12.20-0.04Q12.16-0.07 12.16-0.12L12.16-0.12L12.16-6.88Q12.16-6.93 12.20-6.96Q12.23-7 12.28-7L12.28-7L13.20-7Q13.25-7 13.29-6.96Q13.32-6.93 13.32-6.88L13.32-6.88L13.32-1.05Q13.32-1 13.37-1L13.37-1L16.72-1Q16.77-1 16.80-0.96Q16.84-0.93 16.84-0.88L16.84-0.88L16.84-0.12Q16.84-0.07 16.80-0.04Q16.77 0 16.72 0L16.72 0L12.28 0ZM17.99 0Q17.94 0 17.91-0.04Q17.87-0.07 17.87-0.12L17.87-0.12L17.87-6.88Q17.87-6.93 17.91-6.96Q17.94-7 17.99-7L17.99-7L18.91-7Q18.96-7 19.00-6.96Q19.03-6.93 19.03-6.88L19.03-6.88L19.03-1.05Q19.03-1 19.08-1L19.08-1L22.43-1Q22.48-1 22.52-0.96Q22.55-0.93 22.55-0.88L22.55-0.88L22.55-0.12Q22.55-0.07 22.52-0.04Q22.48 0 22.43 0L22.43 0L17.99 0Z"/><path fill="#252530" transform="translate(32.04, 95.3)" d="M3.38-1.84Q3.35-1.81 3.36-1.78Q3.38-1.75 3.42-1.75L3.42-1.75L7.35-1.75Q7.42-1.75 7.47-1.70Q7.53-1.65 7.53-1.58L7.53-1.58L7.53-0.17Q7.53-0.10 7.47-0.05Q7.42 0 7.35 0L7.35 0L0.83 0Q0.75 0 0.70-0.05Q0.65-0.10 0.65-0.17L0.65-0.17L0.65-1.51Q0.65-1.64 0.74-1.73L0.74-1.73Q1.45-2.42 2.19-3.24Q2.93-4.06 3.12-4.26L3.12-4.26Q3.52-4.74 3.94-5.18L3.94-5.18Q5.26-6.64 5.26-7.35L5.26-7.35Q5.26-7.86 4.90-8.19Q4.54-8.51 3.96-8.51L3.96-8.51Q3.38-8.51 3.02-8.19Q2.65-7.86 2.65-7.32L2.65-7.32L2.65-6.96Q2.65-6.89 2.60-6.84Q2.55-6.79 2.48-6.79L2.48-6.79L0.77-6.79Q0.70-6.79 0.65-6.84Q0.59-6.89 0.59-6.96L0.59-6.96L0.59-7.64Q0.64-8.42 1.09-9.03Q1.54-9.63 2.28-9.95Q3.03-10.27 3.96-10.27L3.96-10.27Q4.99-10.27 5.75-9.88Q6.51-9.50 6.92-8.85Q7.34-8.19 7.34-7.40L7.34-7.40Q7.34-6.79 7.03-6.15Q6.73-5.51 6.12-4.77L6.12-4.77Q5.67-4.21 5.15-3.65Q4.63-3.10 3.60-2.06L3.60-2.06L3.38-1.84ZM12.24 0.16Q10.64 0.16 9.72-0.73Q8.79-1.62 8.79-3.16L8.79-3.16L8.79-6.99Q8.79-8.50 9.72-9.38Q10.64-10.27 12.24-10.27L12.24-10.27Q13.83-10.27 14.77-9.38Q15.70-8.50 15.70-6.99L15.70-6.99L15.70-3.16Q15.70-1.62 14.77-0.73Q13.83 0.16 12.24 0.16L12.24 0.16ZM12.24-1.59Q12.89-1.59 13.27-1.99Q13.66-2.39 13.66-3.06L13.66-3.06L13.66-7.05Q13.66-7.71 13.27-8.11Q12.89-8.51 12.24-8.51L12.24-8.51Q11.60-8.51 11.22-8.11Q10.83-7.71 10.83-7.05L10.83-7.05L10.83-3.06Q10.83-2.39 11.22-1.99Q11.60-1.59 12.24-1.59L12.24-1.59ZM19.76-1.84Q19.73-1.81 19.75-1.78Q19.76-1.75 19.81-1.75L19.81-1.75L23.74-1.75Q23.81-1.75 23.86-1.70Q23.91-1.65 23.91-1.58L23.91-1.58L23.91-0.17Q23.91-0.10 23.86-0.05Q23.81 0 23.74 0L23.74 0L17.21 0Q17.14 0 17.09-0.05Q17.04-0.10 17.04-0.17L17.04-0.17L17.04-1.51Q17.04-1.64 17.12-1.73L17.12-1.73Q17.84-2.42 18.57-3.24Q19.31-4.06 19.50-4.26L19.50-4.26Q19.91-4.74 20.33-5.18L20.33-5.18Q21.65-6.64 21.65-7.35L21.65-7.35Q21.65-7.86 21.29-8.19Q20.92-8.51 20.34-8.51L20.34-8.51Q19.76-8.51 19.40-8.19Q19.04-7.86 19.04-7.32L19.04-7.32L19.04-6.96Q19.04-6.89 18.99-6.84Q18.94-6.79 18.86-6.79L18.86-6.79L17.15-6.79Q17.08-6.79 17.03-6.84Q16.98-6.89 16.98-6.96L16.98-6.96L16.98-7.64Q17.02-8.42 17.47-9.03Q17.92-9.63 18.67-9.95Q19.42-10.27 20.34-10.27L20.34-10.27Q21.37-10.27 22.13-9.88Q22.90-9.50 23.31-8.85Q23.72-8.19 23.72-7.40L23.72-7.40Q23.72-6.79 23.42-6.15Q23.11-5.51 22.50-4.77L22.50-4.77Q22.05-4.21 21.53-3.65Q21.01-3.10 19.98-2.06L19.98-2.06L19.76-1.84ZM26.59-10.11Q26.67-10.15 26.81-10.15L26.81-10.15L28.57-10.15Q28.64-10.15 28.69-10.10Q28.74-10.05 28.74-9.98L28.74-9.98L28.74-0.17Q28.74-0.10 28.69-0.05Q28.64 0 28.57 0L28.57 0L26.87 0Q26.80 0 26.75-0.05Q26.69-0.10 26.69-0.17L26.69-0.17L26.69-8.12Q26.69-8.15 26.67-8.18Q26.64-8.21 26.61-8.19L26.61-8.19L25.17-7.80L25.11-7.79Q24.98-7.79 24.98-7.95L24.98-7.95L24.94-9.19Q24.94-9.34 25.07-9.40L25.07-9.40L26.59-10.11Z"/></g>
</svg>