<svg xmlns="http://www.w3.org/2000/svg" viewBox="0 0 94 122">
  <g id="container">
    <path fill="#fff" d="M8.1 89.9L47.6 110l38-20.1V11.3H8.1z"/>
    <path fill="#f2f3f2" d="M86.4 11.6L7.3 91.3l41 20.3 38.1-19.5z"/>
    <path d="M5.5 37.5v54.1l1.4.7 39.5 20.1 1.2.6 1.2-.6 38.1-20.1 1.4-.7V8.7H5.5v28.8zm2.6 52.6V11.3h77.6v78.8l-38.1 20.1L8.1 90.1z" fill="#dcdedc"/>
    <path id="logo" d="M46.9 12.6c.4 0 .8 0 1.2.1L46.9 15c-1.8-.1-3.4 1.3-3.5 3.1-.1 1.8 1.3 3.4 3.1 3.5h.4c.8 0 1.6-.3 2.2-.8l1.3 2.2c-1 .7-2.2 1.1-3.5 1.1-3.2.1-5.9-2.3-6-5.5-.1-3.2 2.3-5.9 5.5-6h.5zm4.1 4.9l1.5 2.5-1.5 2.4-1.4-2.4h-2.9l1.5-2.5H51zm-2.4-.9c0-.4.1-.8.3-1.1.2-.3.6-.6.9-.8l.2-.1c.4-.2.5-.3.5-.5s-.3-.4-.5-.4c-.4 0-.7.2-.9.6l-.5-.5c.1-.2.3-.4.5-.6.3-.2.6-.2.9-.2.3 0 .7.1.9.3.2.2.4.5.4.8 0 .5-.3.9-.9 1.1l-.3.2c-.3.2-.5.3-.6.6h1.8v.7l-2.7-.1zm-1.7 12.5l9.5-5.4v-15H37.3v14.9l9.6 5.5z" fill="#ff492c"/>
    <path id="banner" d="M90.2 64.5H3.6l-3.2 7 3.2 7h86.6l3.1-7z" fill="#ffd200"/>
  <path fill="#252530" transform="translate(24.83, 60)" d="M8.16-10.50Q8.23-10.50 8.29-10.45Q8.34-10.39 8.34-10.32L8.34-10.32L8.34-8.85Q8.34-8.78 8.29-8.72Q8.23-8.67 8.16-8.67L8.16-8.67L5.47-8.67Q5.40-8.67 5.40-8.59L5.40-8.59L5.40-0.18Q5.40-0.10 5.35-0.05Q5.29 0 5.22 0L5.22 0L3.46 0Q3.39 0 3.34-0.05Q3.28-0.10 3.28-0.18L3.28-0.18L3.28-8.59Q3.28-8.67 3.21-8.67L3.21-8.67L0.60-8.67Q0.53-8.67 0.47-8.72Q0.42-8.78 0.42-8.85L0.42-8.85L0.42-10.32Q0.42-10.39 0.47-10.45Q0.53-10.50 0.60-10.50L0.60-10.50L8.16-10.50ZM11.70 0.12Q10.44 0.12 9.54-0.54Q8.64-1.20 8.31-2.34L8.31-2.34Q8.10-3.04 8.10-3.87L8.10-3.87Q8.10-4.75 8.31-5.46L8.31-5.46Q8.66-6.57 9.55-7.20Q10.46-7.83 11.71-7.83L11.71-7.83Q12.95-7.83 13.82-7.21Q14.69-6.58 15.04-5.47L15.04-5.47Q15.29-4.72 15.29-3.90L15.29-3.90Q15.29-3.09 15.07-2.38L15.07-2.38Q14.75-1.21 13.85-0.55Q12.96 0.12 11.70 0.12L11.70 0.12ZM11.70-1.69Q12.20-1.69 12.54-1.99Q12.89-2.29 13.04-2.82L13.04-2.82Q13.16-3.30 13.16-3.87L13.16-3.87Q13.16-4.50 13.04-4.93L13.04-4.93Q12.87-5.44 12.53-5.73Q12.18-6.01 11.69-6.01L11.69-6.01Q11.18-6.01 10.84-5.73Q10.50-5.44 10.35-4.93L10.35-4.93Q10.23-4.58 10.23-3.87L10.23-3.87Q10.23-3.19 10.34-2.82L10.34-2.82Q10.48-2.29 10.84-1.99Q11.19-1.69 11.70-1.69L11.70-1.69ZM23.59 0.12Q22.44 0.12 21.56-0.33Q20.69-0.78 20.20-1.60Q19.71-2.42 19.71-3.48L19.71-3.48L19.71-10.32Q19.71-10.39 19.76-10.45Q19.82-10.50 19.89-10.50L19.89-10.50L21.64-10.50Q21.72-10.50 21.77-10.45Q21.83-10.39 21.83-10.32L21.83-10.32L21.83-3.46Q21.83-2.67 22.31-2.18Q22.80-1.69 23.59-1.69L23.59-1.69Q24.39-1.69 24.88-2.18Q25.37-2.67 25.37-3.46L25.37-3.46L25.37-10.32Q25.37-10.39 25.42-10.45Q25.47-10.50 25.55-10.50L25.55-10.50L27.30-10.50Q27.38-10.50 27.43-10.45Q27.48-10.39 27.48-10.32L27.48-10.32L27.48-3.48Q27.48-2.42 26.99-1.60Q26.51-0.78 25.63-0.33Q24.75 0.12 23.59 0.12L23.59 0.12ZM32.16 0.10Q31.16 0.10 30.41-0.18Q29.66-0.46 29.24-0.97Q28.83-1.48 28.83-2.13L28.83-2.13L28.83-2.28Q28.83-2.35 28.88-2.41Q28.93-2.46 29.01-2.46L29.01-2.46L30.68-2.46Q30.75-2.46 30.80-2.41Q30.86-2.35 30.86-2.28L30.86-2.28L30.86-2.27Q30.86-1.93 31.22-1.70Q31.59-1.47 32.14-1.47L32.14-1.47Q32.66-1.47 32.97-1.67Q33.28-1.88 33.28-2.17L33.28-2.17Q33.28-2.44 33.02-2.58Q32.74-2.71 32.13-2.86L32.13-2.86Q31.43-3.04 31.02-3.21L31.02-3.21Q30.06-3.54 29.49-4.02Q28.92-4.50 28.92-5.40L28.92-5.40Q28.92-6.51 29.78-7.16Q30.64-7.81 32.07-7.81L32.07-7.81Q33.03-7.81 33.75-7.51Q34.47-7.20 34.87-6.64Q35.27-6.09 35.27-5.38L35.27-5.38Q35.27-5.31 35.21-5.26Q35.16-5.21 35.09-5.21L35.09-5.21L33.48-5.21Q33.41-5.21 33.35-5.26Q33.30-5.31 33.30-5.38L33.30-5.38Q33.30-5.71 32.96-5.94Q32.63-6.17 32.07-6.17L32.07-6.17Q31.57-6.17 31.26-5.98Q30.95-5.80 30.95-5.49L30.95-5.49Q30.95-5.19 31.25-5.04Q31.56-4.89 32.28-4.72L32.28-4.72Q32.45-4.68 32.66-4.63Q32.87-4.58 33.10-4.50L33.10-4.50Q34.17-4.18 34.78-3.69Q35.40-3.19 35.40-2.25L35.40-2.25Q35.40-1.14 34.52-0.52Q33.64 0.10 32.16 0.10L32.16 0.10ZM43.44-4.65Q43.53-4.08 43.50-3.38L43.50-3.38Q43.48-3.19 43.30-3.19L43.30-3.19L38.67-3.19Q38.58-3.19 38.61-3.12L38.61-3.12Q38.66-2.82 38.77-2.52L38.77-2.52Q39.16-1.68 40.37-1.68L40.37-1.68Q41.33-1.69 41.88-2.46L41.88-2.46Q41.94-2.55 42.02-2.55L42.02-2.55Q42.06-2.55 42.12-2.49L42.12-2.49L43.20-1.43Q43.27-1.35 43.27-1.29L43.27-1.29Q43.27-1.26 43.22-1.17L43.22-1.17Q42.72-0.55 41.94-0.22Q41.16 0.12 40.23 0.12L40.23 0.12Q38.94 0.12 38.05-0.46Q37.16-1.05 36.77-2.10L36.77-2.10Q36.45-2.85 36.45-4.06L36.45-4.06Q36.45-4.89 36.68-5.52L36.68-5.52Q37.02-6.58 37.88-7.21Q38.74-7.84 39.93-7.84L39.93-7.84Q41.43-7.84 42.34-6.97Q43.25-6.10 43.44-4.65L43.44-4.65ZM39.95-6.01Q39-6.01 38.70-5.13L38.70-5.13Q38.64-4.93 38.59-4.65L38.59-4.65Q38.59-4.58 38.67-4.58L38.67-4.58L41.27-4.58Q41.36-4.58 41.33-4.65L41.33-4.65Q41.25-5.08 41.25-5.07L41.25-5.07Q41.12-5.52 40.78-5.77Q40.44-6.01 39.95-6.01L39.95-6.01Z"/><path fill="#252530" transform="translate(21.66, 45)" d="M8.21-8.87Q8.21-8.79 8.15-8.74Q8.10-8.69 8.03-8.69L8.03-8.69L3.10-8.69Q3.03-8.69 3.03-8.61L3.03-8.61L3.03-6.29Q3.03-6.21 3.10-6.21L3.10-6.21L6.33-6.21Q6.40-6.21 6.46-6.16Q6.51-6.10 6.51-6.03L6.51-6.03L6.51-4.58Q6.51-4.50 6.46-4.45Q6.40-4.39 6.33-4.39L6.33-4.39L3.10-4.39Q3.03-4.39 3.03-4.32L3.03-4.32L3.03-1.89Q3.03-1.81 3.10-1.81L3.10-1.81L8.03-1.81Q8.10-1.81 8.15-1.76Q8.21-1.71 8.21-1.64L8.21-1.64L8.21-0.18Q8.21-0.10 8.15-0.05Q8.10 0 8.03 0L8.03 0L1.09 0Q1.02 0 0.97-0.05Q0.91-0.10 0.91-0.18L0.91-0.18L0.91-10.32Q0.91-10.39 0.97-10.45Q1.02-10.50 1.09-10.50L1.09-10.50L8.03-10.50Q8.10-10.50 8.15-10.45Q8.21-10.39 8.21-10.32L8.21-10.32L8.21-8.87ZM12.62-7.83Q13.59-7.83 14.36-7.49Q15.12-7.15 15.55-6.57Q15.97-5.98 15.97-5.26L15.97-5.26L15.97-0.18Q15.97-0.10 15.92-0.05Q15.87 0 15.79 0L15.79 0L14.04 0Q13.96 0 13.91-0.05Q13.86-0.10 13.86-0.18L13.86-0.18L13.86-0.67Q13.86-0.72 13.83-0.73Q13.80-0.75 13.77-0.70L13.77-0.70Q13.14 0.12 11.74 0.12L11.74 0.12Q10.57 0.12 9.86-0.45Q9.13-1.02 9.13-2.13L9.13-2.13Q9.13-3.28 9.95-3.92Q10.75-4.56 12.25-4.56L12.25-4.56L13.79-4.56Q13.86-4.56 13.86-4.63L13.86-4.63L13.86-4.96Q13.86-5.46 13.56-5.74Q13.26-6.01 12.66-6.01L12.66-6.01Q12.20-6.01 11.89-5.85Q11.58-5.68 11.49-5.38L11.49-5.38Q11.45-5.22 11.29-5.23L11.29-5.23L9.48-5.47Q9.30-5.50 9.31-5.61L9.31-5.61Q9.38-6.24 9.82-6.75Q10.26-7.26 10.99-7.54Q11.71-7.83 12.62-7.83L12.62-7.83ZM12.31-1.45Q12.96-1.45 13.41-1.80Q13.86-2.15 13.86-2.69L13.86-2.69L13.86-3.23Q13.86-3.30 13.79-3.30L13.79-3.30L12.71-3.30Q12.03-3.30 11.65-3.04Q11.27-2.79 11.27-2.32L11.27-2.32Q11.27-1.92 11.55-1.69Q11.83-1.45 12.31-1.45L12.31-1.45ZM20.54 0.10Q19.53 0.10 18.78-0.18Q18.03-0.46 17.62-0.97Q17.20-1.48 17.20-2.13L17.20-2.13L17.20-2.28Q17.20-2.35 17.26-2.41Q17.31-2.46 17.38-2.46L17.38-2.46L19.05-2.46Q19.13-2.46 19.18-2.41Q19.23-2.35 19.23-2.28L19.23-2.28L19.23-2.27Q19.23-1.93 19.60-1.70Q19.96-1.47 20.52-1.47L20.52-1.47Q21.03-1.47 21.34-1.67Q21.66-1.88 21.66-2.17L21.66-2.17Q21.66-2.44 21.39-2.58Q21.12-2.71 20.50-2.86L20.50-2.86Q19.80-3.04 19.39-3.21L19.39-3.21Q18.43-3.54 17.86-4.02Q17.29-4.50 17.29-5.40L17.29-5.40Q17.29-6.51 18.16-7.16Q19.02-7.81 20.45-7.81L20.45-7.81Q21.41-7.81 22.13-7.51Q22.84-7.20 23.24-6.64Q23.64-6.09 23.64-5.38L23.64-5.38Q23.64-5.31 23.59-5.26Q23.54-5.21 23.46-5.21L23.46-5.21L21.86-5.21Q21.78-5.21 21.73-5.26Q21.68-5.31 21.68-5.38L21.68-5.38Q21.68-5.71 21.34-5.94Q21-6.17 20.45-6.17L20.45-6.17Q19.95-6.17 19.63-5.98Q19.32-5.80 19.32-5.49L19.32-5.49Q19.32-5.19 19.63-5.04Q19.93-4.89 20.66-4.72L20.66-4.72Q20.82-4.68 21.03-4.63Q21.24-4.58 21.48-4.50L21.48-4.50Q22.55-4.18 23.16-3.69Q23.77-3.19 23.77-2.25L23.77-2.25Q23.77-1.14 22.90-0.52Q22.02 0.10 20.54 0.10L20.54 0.10ZM26.13-8.58Q25.62-8.58 25.28-8.92Q24.95-9.25 24.95-9.76L24.95-9.76Q24.95-10.29 25.28-10.62Q25.61-10.95 26.13-10.95L26.13-10.95Q26.66-10.95 26.98-10.62Q27.32-10.29 27.32-9.76L27.32-9.76Q27.32-9.25 26.98-8.92Q26.64-8.58 26.13-8.58L26.13-8.58ZM25.23 0Q25.16 0 25.10-0.05Q25.05-0.10 25.05-0.18L25.05-0.18L25.05-7.54Q25.05-7.62 25.10-7.67Q25.16-7.72 25.23-7.72L25.23-7.72L26.98-7.72Q27.06-7.72 27.11-7.67Q27.16-7.62 27.16-7.54L27.16-7.54L27.16-0.18Q27.16-0.10 27.11-0.05Q27.06 0 26.98 0L26.98 0L25.23 0ZM35.64-4.65Q35.73-4.08 35.70-3.38L35.70-3.38Q35.69-3.19 35.51-3.19L35.51-3.19L30.87-3.19Q30.78-3.19 30.81-3.12L30.81-3.12Q30.86-2.82 30.98-2.52L30.98-2.52Q31.37-1.68 32.56-1.68L32.56-1.68Q33.52-1.69 34.08-2.46L34.08-2.46Q34.14-2.55 34.22-2.55L34.22-2.55Q34.26-2.55 34.32-2.49L34.32-2.49L35.40-1.43Q35.48-1.35 35.48-1.29L35.48-1.29Q35.48-1.26 35.41-1.17L35.41-1.17Q34.92-0.55 34.14-0.22Q33.36 0.12 32.43 0.12L32.43 0.12Q31.14 0.12 30.25-0.46Q29.36-1.05 28.96-2.10L28.96-2.10Q28.65-2.85 28.65-4.06L28.65-4.06Q28.65-4.89 28.88-5.52L28.88-5.52Q29.22-6.58 30.08-7.21Q30.95-7.84 32.13-7.84L32.13-7.84Q33.63-7.84 34.54-6.97Q35.45-6.10 35.64-4.65L35.64-4.65ZM32.14-6.01Q31.20-6.01 30.90-5.13L30.90-5.13Q30.84-4.93 30.80-4.65L30.80-4.65Q30.80-4.58 30.87-4.58L30.87-4.58L33.47-4.58Q33.55-4.58 33.52-4.65L33.52-4.65Q33.45-5.08 33.45-5.07L33.45-5.07Q33.31-5.52 32.98-5.77Q32.64-6.01 32.14-6.01L32.14-6.01ZM39.98 0.10Q38.97 0.10 38.22-0.18Q37.47-0.46 37.06-0.97Q36.65-1.48 36.65-2.13L36.65-2.13L36.65-2.28Q36.65-2.35 36.70-2.41Q36.75-2.46 36.83-2.46L36.83-2.46L38.49-2.46Q38.57-2.46 38.62-2.41Q38.67-2.35 38.67-2.28L38.67-2.28L38.67-2.27Q38.67-1.93 39.04-1.70Q39.41-1.47 39.96-1.47L39.96-1.47Q40.47-1.47 40.79-1.67Q41.10-1.88 41.10-2.17L41.10-2.17Q41.10-2.44 40.83-2.58Q40.56-2.71 39.95-2.86L39.95-2.86Q39.24-3.04 38.84-3.21L38.84-3.21Q37.88-3.54 37.31-4.02Q36.74-4.50 36.74-5.40L36.74-5.40Q36.74-6.51 37.60-7.16Q38.46-7.81 39.89-7.81L39.89-7.81Q40.85-7.81 41.57-7.51Q42.29-7.20 42.68-6.64Q43.08-6.09 43.08-5.38L43.08-5.38Q43.08-5.31 43.03-5.26Q42.98-5.21 42.90-5.21L42.90-5.21L41.30-5.21Q41.22-5.21 41.17-5.26Q41.12-5.31 41.12-5.38L41.12-5.38Q41.12-5.71 40.78-5.94Q40.44-6.17 39.89-6.17L39.89-6.17Q39.39-6.17 39.08-5.98Q38.76-5.80 38.76-5.49L38.76-5.49Q38.76-5.19 39.07-5.04Q39.38-4.89 40.10-4.72L40.10-4.72Q40.26-4.68 40.47-4.63Q40.68-4.58 40.92-4.50L40.92-4.50Q41.99-4.18 42.60-3.69Q43.22-3.19 43.22-2.25L43.22-2.25Q43.22-1.14 42.34-0.52Q41.46 0.10 39.98 0.10L39.98 0.10ZM48.84-6.19Q48.84-6.12 48.79-6.07Q48.74-6.01 48.66-6.01L48.66-6.01L47.22-6.01Q47.15-6.01 47.15-5.94L47.15-5.94L47.15-2.76Q47.15-2.27 47.35-2.02Q47.55-1.78 48.00-1.78L48.00-1.78L48.50-1.78Q48.57-1.78 48.62-1.73Q48.68-1.68 48.68-1.60L48.68-1.60L48.68-0.18Q48.68-0.01 48.50 0.01L48.50 0.01Q47.87 0.04 47.60 0.04L47.60 0.04Q46.35 0.04 45.74-0.37Q45.12-0.78 45.11-1.92L45.11-1.92L45.11-5.94Q45.11-6.01 45.03-6.01L45.03-6.01L44.18-6.01Q44.10-6.01 44.05-6.07Q44.00-6.12 44.00-6.19L44.00-6.19L44.00-7.53Q44.00-7.60 44.05-7.66Q44.10-7.71 44.18-7.71L44.18-7.71L45.03-7.71Q45.11-7.71 45.11-7.79L45.11-7.79L45.11-9.57Q45.11-9.64 45.16-9.70Q45.21-9.75 45.29-9.75L45.29-9.75L46.97-9.75Q47.04-9.75 47.09-9.70Q47.15-9.64 47.15-9.57L47.15-9.57L47.15-7.79Q47.15-7.71 47.22-7.71L47.22-7.71L48.66-7.71Q48.74-7.71 48.79-7.66Q48.84-7.60 48.84-7.53L48.84-7.53L48.84-6.19Z"/><path fill="#242530" transform="translate(35.00, 75.4)" d="M5.46-6.12Q5.46-6.07 5.42-6.04Q5.39-6 5.34-6L5.34-6L1.94-6Q1.89-6 1.89-5.95L1.89-5.95L1.89-4.08Q1.89-4.03 1.94-4.03L1.94-4.03L4.23-4.03Q4.28-4.03 4.32-4.00Q4.35-3.96 4.35-3.91L4.35-3.91L4.35-3.15Q4.35-3.10 4.32-3.06Q4.28-3.03 4.23-3.03L4.23-3.03L1.94-3.03Q1.89-3.03 1.89-2.98L1.89-2.98L1.89-0.12Q1.89-0.07 1.85-0.04Q1.82 0 1.77 0L1.77 0L0.85 0Q0.80 0 0.77-0.04Q0.73-0.07 0.73-0.12L0.73-0.12L0.73-6.88Q0.73-6.93 0.77-6.96Q0.80-7 0.85-7L0.85-7L5.34-7Q5.39-7 5.42-6.96Q5.46-6.93 5.46-6.88L5.46-6.88L5.46-6.12ZM10.02 0Q9.92 0 9.89-0.10L9.89-0.10L9.56-1.17Q9.54-1.21 9.51-1.21L9.51-1.21L6.87-1.21Q6.84-1.21 6.82-1.17L6.82-1.17L6.49-0.10Q6.46 0 6.36 0L6.36 0L5.36 0Q5.30 0 5.27-0.04Q5.24-0.07 5.26-0.14L5.26-0.14L7.43-6.90Q7.46-7 7.56-7L7.56-7L8.81-7Q8.91-7 8.94-6.90L8.94-6.90L11.12-0.14Q11.13-0.12 11.13-0.09L11.13-0.09Q11.13 0 11.02 0L11.02 0L10.02 0ZM7.13-2.18Q7.12-2.12 7.17-2.12L7.17-2.12L9.20-2.12Q9.26-2.12 9.24-2.18L9.24-2.18L8.21-5.53Q8.20-5.57 8.18-5.57Q8.16-5.57 8.15-5.53L8.15-5.53L7.13-2.18ZM12.28 0Q12.23 0 12.20-0.04Q12.16-0.07 12.16-0.12L12.16-0.12L12.16-6.88Q12.16-6.93 12.20-6.96Q12.23-7 12.28-7L12.28-7L13.20-7Q13.25-7 13.29-6.96Q13.32-6.93 13.32-6.88L13.32-6.88L13.32-1.05Q13.32-1 13.37-1L13.37-1L16.72-1Q16.77-1 16.80-0.96Q16.84-0.93 16.84-0.88L16.84-0.88L16.84-0.12Q16.84-0.07 16.80-0.04Q16.77 0 16.72 0L16.72 0L12.28 0ZM17.99 0Q17.94 0 17.91-0.04Q17.87-0.07 17.87-0.12L17.87-0.12L17.87-6.88Q17.87-6.93 17.91-6.96Q17.94-7 17.99-7L17.99-7L18.91-7Q18.96-7 19.00-6.96Q19.03-6.93 19.03-6.88L19.03-6.88L19.03-1.05Q19.03-1 19.08-1L19.08-1L22.43-1Q22.48-1 22.52-0.96Q22.55-0.93 22.55-0.88L22.55-0.88L22.55-0.12Q22.55-0.07 22.52-0.04Q22.48 0 22.43 0L22.43 0L17.99 0Z"/><path fill="#252530" transform="translate(32.04, 95.3)" d="M3.38-1.84Q3.35-1.81 3.36-1.78Q3.38-1.75 3.42-1.75L3.42-1.75L7.35-1.75Q7.42-1.75 7.47-1.70Q7.53-1.65 7.53-1.58L7.53-1.58L7.53-0.17Q7.53-0.10 7.47-0.05Q7.42 0 7.35 0L7.35 0L0.83 0Q0.75 0 0.70-0.05Q0.65-0.10 0.65-0.17L0.65-0.17L0.65-1.51Q0.65-1.64 0.74-1.73L0.74-1.73Q1.45-2.42 2.19-3.24Q2.93-4.06 3.12-4.26L3.12-4.26Q3.52-4.74 3.94-5.18L3.94-5.18Q5.26-6.64 5.26-7.35L5.26-7.35Q5.26-7.86 4.90-8.19Q4.54-8.51 3.96-8.51L3.96-8.51Q3.38-8.51 3.02-8.19Q2.65-7.86 2.65-7.32L2.65-7.32L2.65-6.96Q2.65-6.89 2.60-6.84Q2.55-6.79 2.48-6.79L2.48-6.79L0.77-6.79Q0.70-6.79 0.65-6.84Q0.59-6.89 0.59-6.96L0.59-6.96L0.59-7.64Q0.64-8.42 1.09-9.03Q1.54-9.63 2.28-9.95Q3.03-10.27 3.96-10.27L3.96-10.27Q4.99-10.27 5.75-9.88Q6.51-9.50 6.92-8.85Q7.34-8.19 7.34-7.40L7.34-7.40Q7.34-6.79 7.03-6.15Q6.73-5.51 6.12-4.77L6.12-4.77Q5.67-4.21 5.15-3.65Q4.63-3.10 3.60-2.06L3.60-2.06L3.38-1.84ZM12.24 0.16Q10.64 0.16 9.72-0.73Q8.79-1.62 8.79-3.16L8.79-3.16L8.79-6.99Q8.79-8.50 9.72-9.38Q10.64-10.27 12.24-10.27L12.24-10.27Q13.83-10.27 14.77-9.38Q15.70-8.50 15.70-6.99L15.70-6.99L15.70-3.16Q15.70-1.62 14.77-0.73Q13.83 0.16 12.24 0.16L12.24 0.16ZM12.24-1.59Q12.89-1.59 13.27-1.99Q13.66-2.39 13.66-3.06L13.66-3.06L13.66-7.05Q13.66-7.71 13.27-8.11Q12.89-8.51 12.24-8.51L12.24-8.51Q11.60-8.51 11.22-8.11Q10.83-7.71 10.83-7.05L10.83-7.05L10.83-3.06Q10.83-2.39 11.22-1.99Q11.60-1.59 12.24-1.59L12.24-1.59ZM19.76-1.84Q19.73-1.81 19.75-1.78Q19.76-1.75 19.81-1.75L19.81-1.75L23.74-1.75Q23.81-1.75 23.86-1.70Q23.91-1.65 23.91-1.58L23.91-1.58L23.91-0.17Q23.91-0.10 23.86-0.05Q23.81 0 23.74 0L23.74 0L17.21 0Q17.14 0 17.09-0.05Q17.04-0.10 17.04-0.17L17.04-0.17L17.04-1.51Q17.04-1.64 17.12-1.73L17.12-1.73Q17.84-2.42 18.57-3.24Q19.31-4.06 19.50-4.26L19.50-4.26Q19.91-4.74 20.33-5.18L20.33-5.18Q21.65-6.64 21.65-7.35L21.65-7.35Q21.65-7.86 21.29-8.19Q20.92-8.51 20.34-8.51L20.34-8.51Q19.76-8.51 19.40-8.19Q19.04-7.86 19.04-7.32L19.04-7.32L19.04-6.96Q19.04-6.89 18.99-6.84Q18.94-6.79 18.86-6.79L18.86-6.79L17.15-6.79Q17.08-6.79 17.03-6.84Q16.98-6.89 16.98-6.96L16.98-6.96L16.98-7.64Q17.02-8.42 17.47-9.03Q17.92-9.63 18.67-9.95Q19.42-10.27 20.34-10.27L20.34-10.27Q21.37-10.27 22.13-9.88Q22.90-9.50 23.31-8.85Q23.72-8.19 23.72-7.40L23.72-7.40Q23.72-6.79 23.42-6.15Q23.11-5.51 22.50-4.77L22.50-4.77Q22.05-4.21 21.53-3.65Q21.01-3.10 19.98-2.06L19.98-2.06L19.76-1.84ZM26.59-10.11Q26.67-10.15 26.81-10.15L26.81-10.15L28.57-10.15Q28.64-10.15 28.69-10.10Q28.74-10.05 28.74-9.98L28.74-9.98L28.74-0.17Q28.74-0.10 28.69-0.05Q28.64 0 28.57 0L28.57 0L26.87 0Q26.80 0 26.75-0.05Q26.69-0.10 26.69-0.17L26.69-0.17L26.69-8.12Q26.69-8.15 26.67-8.18Q26.64-8.21 26.61-8.19L26.61-8.19L25.17-7.80L25.11-7.79Q24.98-7.79 24.98-7.95L24.98-7.95L24.94-9.19Q24.94-9.34 25.07-9.40L25.07-9.40L26.59-10.11Z"/></g>
</svg>