<svg xmlns="http://www.w3.org/2000/svg" viewBox="0 0 94 122">
  <g id="container">
    <path fill="#fff" d="M8.1 89.9L47.6 110l38-20.1V11.3H8.1z"/>
    <path fill="#f2f3f2" d="M86.4 11.6L7.3 91.3l41 20.3 38.1-19.5z"/>
    <path d="M5.5 37.5v54.1l1.4.7 39.5 20.1 1.2.6 1.2-.6 38.1-20.1 1.4-.7V8.7H5.5v28.8zm2.6 52.6V11.3h77.6v78.8l-38.1 20.1L8.1 90.1z" fill="#dcdedc"/>
    <path id="logo" d="M46.9 12.6c.4 0 .8 0 1.2.1L46.9 15c-1.8-.1-3.4 1.3-3.5 3.1-.1 1.8 1.3 3.4 3.1 3.5h.4c.8 0 1.6-.3 2.2-.8l1.3 2.2c-1 .7-2.2 1.1-3.5 1.1-3.2.1-5.9-2.3-6-5.5-.1-3.2 2.3-5.9 5.5-6h.5zm4.1 4.9l1.5 2.5-1.5 2.4-1.4-2.4h-2.9l1.5-2.5H51zm-2.4-.9c0-.4.1-.8.3-1.1.2-.3.6-.6.9-.8l.2-.1c.4-.2.5-.3.5-.5s-.3-.4-.5-.4c-.4 0-.7.2-.9.6l-.5-.5c.1-.2.3-.4.5-.6.3-.2.6-.2.9-.2.3 0 .7.1.9.3.2.2.4.5.4.8 0 .5-.3.9-.9 1.1l-.3.2c-.3.2-.5.3-.6.6h1.8v.7l-2.7-.1zm-1.7 12.5l9.5-5.4v-15H37.3v14.9l9.6 5.5z" fill="#ff492c"/>
    <path id="banner" d="M90.2 64.5H3.6l-3.2 7 3.2 7h86.6l3.1-7z" fill="#ff492c"/>
  <path fill="#252530" transform="translate(17.78, 60)" d="M1.31 0Q1.22 0 1.16-0.06Q1.10-0.13 1.10-0.22L1.10-0.22L1.10-12.38Q1.10-12.47 1.16-12.54Q1.22-12.60 1.31-12.60L1.31-12.60L3.42-12.60Q3.51-12.60 3.57-12.54Q3.64-12.47 3.64-12.38L3.64-12.38L3.64-2.27Q3.64-2.18 3.73-2.18L3.73-2.18L9.61-2.18Q9.70-2.18 9.77-2.12Q9.83-2.05 9.83-1.96L9.83-1.96L9.83-0.22Q9.83-0.13 9.77-0.06Q9.70 0 9.61 0L9.61 0L1.31 0ZM19.42-5.58Q19.53-4.90 19.49-4.05L19.49-4.05Q19.48-3.83 19.26-3.83L19.26-3.83L13.70-3.83Q13.59-3.83 13.63-3.74L13.63-3.74Q13.68-3.38 13.82-3.02L13.82-3.02Q14.29-2.02 15.73-2.02L15.73-2.02Q16.88-2.03 17.55-2.95L17.55-2.95Q17.62-3.06 17.71-3.06L17.71-3.06Q17.77-3.06 17.84-2.99L17.84-2.99L19.13-1.71Q19.22-1.62 19.22-1.55L19.22-1.55Q19.22-1.51 19.15-1.40L19.15-1.40Q18.56-0.67 17.62-0.26Q16.69 0.14 15.57 0.14L15.57 0.14Q14.02 0.14 12.95-0.56Q11.88-1.26 11.41-2.52L11.41-2.52Q11.03-3.42 11.03-4.88L11.03-4.88Q11.03-5.87 11.30-6.62L11.30-6.62Q11.72-7.90 12.75-8.66Q13.79-9.41 15.21-9.41L15.21-9.41Q17.01-9.41 18.10-8.37Q19.19-7.33 19.42-5.58L19.42-5.58ZM15.23-7.22Q14.09-7.22 13.73-6.16L13.73-6.16Q13.66-5.92 13.61-5.58L13.61-5.58Q13.61-5.49 13.70-5.49L13.70-5.49L16.81-5.49Q16.92-5.49 16.88-5.58L16.88-5.58Q16.79-6.10 16.79-6.08L16.79-6.08Q16.63-6.62 16.23-6.92Q15.82-7.22 15.23-7.22L15.23-7.22ZM24.66-9.40Q25.83-9.40 26.75-8.99Q27.67-8.59 28.18-7.88Q28.69-7.18 28.69-6.32L28.69-6.32L28.69-0.22Q28.69-0.13 28.63-0.06Q28.57 0 28.48 0L28.48 0L26.37 0Q26.28 0 26.22-0.06Q26.15-0.13 26.15-0.22L26.15-0.22L26.15-0.81Q26.15-0.86 26.12-0.88Q26.08-0.90 26.05-0.85L26.05-0.85Q25.29 0.14 23.62 0.14L23.62 0.14Q22.21 0.14 21.35-0.54Q20.48-1.22 20.48-2.56L20.48-2.56Q20.48-3.94 21.46-4.71Q22.43-5.47 24.23-5.47L24.23-5.47L26.06-5.47Q26.15-5.47 26.15-5.56L26.15-5.56L26.15-5.96Q26.15-6.55 25.79-6.89Q25.43-7.22 24.71-7.22L24.71-7.22Q24.16-7.22 23.79-7.02Q23.42-6.82 23.31-6.46L23.31-6.46Q23.26-6.26 23.08-6.28L23.08-6.28L20.90-6.57Q20.68-6.61 20.70-6.73L20.70-6.73Q20.77-7.49 21.30-8.10Q21.83-8.71 22.71-9.05Q23.58-9.40 24.66-9.40L24.66-9.40ZM24.30-1.75Q25.07-1.75 25.61-2.16Q26.15-2.57 26.15-3.22L26.15-3.22L26.15-3.87Q26.15-3.96 26.06-3.96L26.06-3.96L24.77-3.96Q23.96-3.96 23.50-3.65Q23.04-3.35 23.04-2.79L23.04-2.79Q23.04-2.30 23.38-2.03Q23.72-1.75 24.30-1.75L24.30-1.75ZM36.22-12.38Q36.22-12.47 36.28-12.54Q36.34-12.60 36.43-12.60L36.43-12.60L38.54-12.60Q38.63-12.60 38.69-12.54Q38.75-12.47 38.75-12.38L38.75-12.38L38.75-0.22Q38.75-0.13 38.69-0.06Q38.63 0 38.54 0L38.54 0L36.43 0Q36.34 0 36.28-0.06Q36.22-0.13 36.22-0.22L36.22-0.22L36.22-0.81Q36.22-0.86 36.18-0.87Q36.14-0.88 36.11-0.85L36.11-0.85Q35.35 0.14 34.04 0.14L34.04 0.14Q32.78 0.14 31.87-0.56Q30.96-1.26 30.56-2.48L30.56-2.48Q30.26-3.42 30.26-4.66L30.26-4.66Q30.26-5.94 30.58-6.89L30.58-6.89Q31.00-8.05 31.89-8.72Q32.78-9.40 34.09-9.40L34.09-9.40Q35.39-9.40 36.11-8.50L36.11-8.50Q36.14-8.44 36.18-8.46Q36.22-8.48 36.22-8.53L36.22-8.53L36.22-12.38ZM35.84-2.81Q36.20-3.47 36.20-4.63L36.20-4.63Q36.20-5.83 35.80-6.52L35.80-6.52Q35.39-7.22 34.60-7.22L34.60-7.22Q33.75-7.22 33.32-6.52L33.32-6.52Q32.87-5.81 32.87-4.61L32.87-4.61Q32.87-3.53 33.25-2.81L33.25-2.81Q33.70-2.03 34.58-2.03L34.58-2.03Q35.39-2.03 35.84-2.81L35.84-2.81ZM48.85-5.58Q48.96-4.90 48.92-4.05L48.92-4.05Q48.91-3.83 48.69-3.83L48.69-3.83L43.13-3.83Q43.02-3.83 43.06-3.74L43.06-3.74Q43.11-3.38 43.25-3.02L43.25-3.02Q43.72-2.02 45.16-2.02L45.16-2.02Q46.31-2.03 46.98-2.95L46.98-2.95Q47.05-3.06 47.14-3.06L47.14-3.06Q47.20-3.06 47.27-2.99L47.27-2.99L48.56-1.71Q48.65-1.62 48.65-1.55L48.65-1.55Q48.65-1.51 48.58-1.40L48.58-1.40Q47.99-0.67 47.05-0.26Q46.12 0.14 45.00 0.14L45.00 0.14Q43.45 0.14 42.38-0.56Q41.31-1.26 40.84-2.52L40.84-2.52Q40.46-3.42 40.46-4.88L40.46-4.88Q40.46-5.87 40.73-6.62L40.73-6.62Q41.15-7.90 42.18-8.66Q43.22-9.41 44.64-9.41L44.64-9.41Q46.44-9.41 47.53-8.37Q48.62-7.33 48.85-5.58L48.85-5.58ZM44.66-7.22Q43.52-7.22 43.16-6.16L43.16-6.16Q43.09-5.92 43.04-5.58L43.04-5.58Q43.04-5.49 43.13-5.49L43.13-5.49L46.24-5.49Q46.35-5.49 46.31-5.58L46.31-5.58Q46.22-6.10 46.22-6.08L46.22-6.08Q46.06-6.62 45.66-6.92Q45.25-7.22 44.66-7.22L44.66-7.22ZM55.10-9.38Q55.75-9.38 56.12-9.13L56.12-9.13Q56.27-9.05 56.23-8.86L56.23-8.86L55.85-6.80Q55.84-6.59 55.60-6.68L55.60-6.68Q55.33-6.77 54.97-6.77L54.97-6.77Q54.83-6.77 54.58-6.73L54.58-6.73Q53.93-6.68 53.48-6.26Q53.03-5.83 53.03-5.13L53.03-5.13L53.03-0.22Q53.03-0.13 52.97-0.06Q52.90 0 52.81 0L52.81 0L50.71 0Q50.62 0 50.55-0.06Q50.49-0.13 50.49-0.22L50.49-0.22L50.49-9.04Q50.49-9.13 50.55-9.19Q50.62-9.25 50.71-9.25L50.71-9.25L52.81-9.25Q52.90-9.25 52.97-9.19Q53.03-9.13 53.03-9.04L53.03-9.04L53.03-8.35Q53.03-8.30 53.06-8.28Q53.10-8.26 53.12-8.30L53.12-8.30Q53.86-9.38 55.10-9.38L55.10-9.38Z"/><path fill="#fff" transform="translate(35.00, 75.4)" d="M5.46-6.12Q5.46-6.07 5.42-6.04Q5.39-6 5.34-6L5.34-6L1.94-6Q1.89-6 1.89-5.95L1.89-5.95L1.89-4.08Q1.89-4.03 1.94-4.03L1.94-4.03L4.23-4.03Q4.28-4.03 4.32-4.00Q4.35-3.96 4.35-3.91L4.35-3.91L4.35-3.15Q4.35-3.10 4.32-3.06Q4.28-3.03 4.23-3.03L4.23-3.03L1.94-3.03Q1.89-3.03 1.89-2.98L1.89-2.98L1.89-0.12Q1.89-0.07 1.85-0.04Q1.82 0 1.77 0L1.77 0L0.85 0Q0.80 0 0.77-0.04Q0.73-0.07 0.73-0.12L0.73-0.12L0.73-6.88Q0.73-6.93 0.77-6.96Q0.80-7 0.85-7L0.85-7L5.34-7Q5.39-7 5.42-6.96Q5.46-6.93 5.46-6.88L5.46-6.88L5.46-6.12ZM10.02 0Q9.92 0 9.89-0.10L9.89-0.10L9.56-1.17Q9.54-1.21 9.51-1.21L9.51-1.21L6.87-1.21Q6.84-1.21 6.82-1.17L6.82-1.17L6.49-0.10Q6.46 0 6.36 0L6.36 0L5.36 0Q5.30 0 5.27-0.04Q5.24-0.07 5.26-0.14L5.26-0.14L7.43-6.90Q7.46-7 7.56-7L7.56-7L8.81-7Q8.91-7 8.94-6.90L8.94-6.90L11.12-0.14Q11.13-0.12 11.13-0.09L11.13-0.09Q11.13 0 11.02 0L11.02 0L10.02 0ZM7.13-2.18Q7.12-2.12 7.17-2.12L7.17-2.12L9.20-2.12Q9.26-2.12 9.24-2.18L9.24-2.18L8.21-5.53Q8.20-5.57 8.18-5.57Q8.16-5.57 8.15-5.53L8.15-5.53L7.13-2.18ZM12.28 0Q12.23 0 12.20-0.04Q12.16-0.07 12.16-0.12L12.16-0.12L12.16-6.88Q12.16-6.93 12.20-6.96Q12.23-7 12.28-7L12.28-7L13.20-7Q13.25-7 13.29-6.96Q13.32-6.93 13.32-6.88L13.32-6.88L13.32-1.05Q13.32-1 13.37-1L13.37-1L16.72-1Q16.77-1 16.80-0.96Q16.84-0.93 16.84-0.88L16.84-0.88L16.84-0.12Q16.84-0.07 16.80-0.04Q16.77 0 16.72 0L16.72 0L12.28 0ZM17.99 0Q17.94 0 17.91-0.04Q17.87-0.07 17.87-0.12L17.87-0.12L17.87-6.88Q17.87-6.93 17.91-6.96Q17.94-7 17.99-7L17.99-7L18.91-7Q18.96-7 19.00-6.96Q19.03-6.93 19.03-6.88L19.03-6.88L19.03-1.05Q19.03-1 19.08-1L19.08-1L22.43-1Q22.48-1 22.52-0.96Q22.55-0.93 22.55-0.88L22.55-0.88L22.55-0.12Q22.55-0.07 22.52-0.04Q22.48 0 22.43 0L22.43 0L17.99 0Z"/><path fill="#252530" transform="translate(32.04, 95.3)" d="M3.38-1.84Q3.35-1.81 3.36-1.78Q3.38-1.75 3.42-1.75L3.42-1.75L7.35-1.75Q7.42-1.75 7.47-1.70Q7.53-1.65 7.53-1.58L7.53-1.58L7.53-0.17Q7.53-0.10 7.47-0.05Q7.42 0 7.35 0L7.35 0L0.83 0Q0.75 0 0.70-0.05Q0.65-0.10 0.65-0.17L0.65-0.17L0.65-1.51Q0.65-1.64 0.74-1.73L0.74-1.73Q1.45-2.42 2.19-3.24Q2.93-4.06 3.12-4.26L3.12-4.26Q3.52-4.74 3.94-5.18L3.94-5.18Q5.26-6.64 5.26-7.35L5.26-7.35Q5.26-7.86 4.90-8.19Q4.54-8.51 3.96-8.51L3.96-8.51Q3.38-8.51 3.02-8.19Q2.65-7.86 2.65-7.32L2.65-7.32L2.65-6.96Q2.65-6.89 2.60-6.84Q2.55-6.79 2.48-6.79L2.48-6.79L0.77-6.79Q0.70-6.79 0.65-6.84Q0.59-6.89 0.59-6.96L0.59-6.96L0.59-7.64Q0.64-8.42 1.09-9.03Q1.54-9.63 2.28-9.95Q3.03-10.27 3.96-10.27L3.96-10.27Q4.99-10.27 5.75-9.88Q6.51-9.50 6.92-8.85Q7.34-8.19 7.34-7.40L7.34-7.40Q7.34-6.79 7.03-6.15Q6.73-5.51 6.12-4.77L6.12-4.77Q5.67-4.21 5.15-3.65Q4.63-3.10 3.60-2.06L3.60-2.06L3.38-1.84ZM12.24 0.16Q10.64 0.16 9.72-0.73Q8.79-1.62 8.79-3.16L8.79-3.16L8.79-6.99Q8.79-8.50 9.72-9.38Q10.64-10.27 12.24-10.27L12.24-10.27Q13.83-10.27 14.77-9.38Q15.70-8.50 15.70-6.99L15.70-6.99L15.70-3.16Q15.70-1.62 14.77-0.73Q13.83 0.16 12.24 0.16L12.24 0.16ZM12.24-1.59Q12.89-1.59 13.27-1.99Q13.66-2.39 13.66-3.06L13.66-3.06L13.66-7.05Q13.66-7.71 13.27-8.11Q12.89-8.51 12.24-8.51L12.24-8.51Q11.60-8.51 11.22-8.11Q10.83-7.71 10.83-7.05L10.83-7.05L10.83-3.06Q10.83-2.39 11.22-1.99Q11.60-1.59 12.24-1.59L12.24-1.59ZM19.76-1.84Q19.73-1.81 19.75-1.78Q19.76-1.75 19.81-1.75L19.81-1.75L23.74-1.75Q23.81-1.75 23.86-1.70Q23.91-1.65 23.91-1.58L23.91-1.58L23.91-0.17Q23.91-0.10 23.86-0.05Q23.81 0 23.74 0L23.74 0L17.21 0Q17.14 0 17.09-0.05Q17.04-0.10 17.04-0.17L17.04-0.17L17.04-1.51Q17.04-1.64 17.12-1.73L17.12-1.73Q17.84-2.42 18.57-3.24Q19.31-4.06 19.50-4.26L19.50-4.26Q19.91-4.74 20.33-5.18L20.33-5.18Q21.65-6.64 21.65-7.35L21.65-7.35Q21.65-7.86 21.29-8.19Q20.92-8.51 20.34-8.51L20.34-8.51Q19.76-8.51 19.40-8.19Q19.04-7.86 19.04-7.32L19.04-7.32L19.04-6.96Q19.04-6.89 18.99-6.84Q18.94-6.79 18.86-6.79L18.86-6.79L17.15-6.79Q17.08-6.79 17.03-6.84Q16.98-6.89 16.98-6.96L16.98-6.96L16.98-7.64Q17.02-8.42 17.47-9.03Q17.92-9.63 18.67-9.95Q19.42-10.27 20.34-10.27L20.34-10.27Q21.37-10.27 22.13-9.88Q22.90-9.50 23.31-8.85Q23.72-8.19 23.72-7.40L23.72-7.40Q23.72-6.79 23.42-6.15Q23.11-5.51 22.50-4.77L22.50-4.77Q22.05-4.21 21.53-3.65Q21.01-3.10 19.98-2.06L19.98-2.06L19.76-1.84ZM26.59-10.11Q26.67-10.15 26.81-10.15L26.81-10.15L28.57-10.15Q28.64-10.15 28.69-10.10Q28.74-10.05 28.74-9.98L28.74-9.98L28.74-0.17Q28.74-0.10 28.69-0.05Q28.64 0 28.57 0L28.57 0L26.87 0Q26.80 0 26.75-0.05Q26.69-0.10 26.69-0.17L26.69-0.17L26.69-8.12Q26.69-8.15 26.67-8.18Q26.64-8.21 26.61-8.19L26.61-8.19L25.17-7.80L25.11-7.79Q24.98-7.79 24.98-7.95L24.98-7.95L24.94-9.19Q24.94-9.34 25.07-9.40L25.07-9.40L26.59-10.11Z"/></g>
</svg>