<svg xmlns="http://www.w3.org/2000/svg" viewBox="0 0 94 122">
  <g id="container">
    <path fill="#fff" d="M8.1 89.9L47.6 110l38-20.1V11.3H8.1z"/>
    <path fill="#f2f3f2" d="M86.4 11.6L7.3 91.3l41 20.3 38.1-19.5z"/>
    <path d="M5.5 37.5v54.1l1.4.7 39.5 20.1 1.2.6 1.2-.6 38.1-20.1 1.4-.7V8.7H5.5v28.8zm2.6 52.6V11.3h77.6v78.8l-38.1 20.1L8.1 90.1z" fill="#dcdedc"/>
    <path id="logo" d="M46.9 12.6c.4 0 .8 0 1.2.1L46.9 15c-1.8-.1-3.4 1.3-3.5 3.1-.1 1.8 1.3 3.4 3.1 3.5h.4c.8 0 1.6-.3 2.2-.8l1.3 2.2c-1 .7-2.2 1.1-3.5 1.1-3.2.1-5.9-2.3-6-5.5-.1-3.2 2.3-5.9 5.5-6h.5zm4.1 4.9l1.5 2.5-1.5 2.4-1.4-2.4h-2.9l1.5-2.5H51zm-2.4-.9c0-.4.1-.8.3-1.1.2-.3.6-.6.9-.8l.2-.1c.4-.2.5-.3.5-.5s-.3-.4-.5-.4c-.4 0-.7.2-.9.6l-.5-.5c.1-.2.3-.4.5-.6.3-.2.6-.2.9-.2.3 0 .7.1.9.3.2.2.4.5.4.8 0 .5-.3.9-.9 1.1l-.3.2c-.3.2-.5.3-.6.6h1.8v.7l-2.7-.1zm-1.7 12.5l9.5-5.4v-15H37.3v14.9l9.6 5.5z" fill="#ff492c"/>
    <path id="banner" d="M90.2 64.5H3.6l-3.2 7 3.2 7h86.6l3.1-7z" fill="#2690ce"/>
  <path fill="#252530" transform="translate(22.46, 60)" d="M6.07 0Q5.95 0 5.92-0.12L5.92-0.12L5.56-1.30Q5.53-1.34 5.50-1.34L5.50-1.34L2.54-1.34Q2.51-1.34 2.48-1.30L2.48-1.30L2.14-0.12Q2.10 0 1.98 0L1.98 0L0.46 0Q0.38 0 0.35-0.04Q0.31-0.08 0.34-0.17L0.34-0.17L2.93-8.28Q2.96-8.40 3.08-8.40L3.08-8.40L4.97-8.40Q5.09-8.40 5.12-8.28L5.12-8.28L7.72-0.17Q7.73-0.14 7.73-0.11L7.73-0.11Q7.73 0 7.60 0L7.60 0L6.07 0ZM2.92-2.72Q2.90-2.65 2.96-2.65L2.96-2.65L5.08-2.65Q5.15-2.65 5.12-2.72L5.12-2.72L4.04-6.29Q4.03-6.34 4.01-6.33Q3.98-6.32 3.97-6.29L3.97-6.29L2.92-2.72ZM12.30-8.26Q12.30-8.32 12.34-8.36Q12.38-8.40 12.44-8.40L12.44-8.40L13.85-8.40Q13.91-8.40 13.95-8.36Q13.99-8.32 13.99-8.26L13.99-8.26L13.99-0.14Q13.99-0.08 13.95-0.04Q13.91 0 13.85 0L13.85 0L12.44 0Q12.38 0 12.34-0.04Q12.30-0.08 12.30-0.14L12.30-0.14L12.30-0.54Q12.30-0.58 12.28-0.58Q12.25-0.59 12.23-0.56L12.23-0.56Q11.72 0.10 10.85 0.10L10.85 0.10Q10.01 0.10 9.40-0.37Q8.80-0.84 8.53-1.66L8.53-1.66Q8.33-2.28 8.33-3.11L8.33-3.11Q8.33-3.96 8.54-4.60L8.54-4.60Q8.82-5.36 9.41-5.81Q10.01-6.26 10.88-6.26L10.88-6.26Q11.75-6.26 12.23-5.66L12.23-5.66Q12.25-5.63 12.28-5.64Q12.30-5.65 12.30-5.69L12.30-5.69L12.30-8.26ZM12.05-1.87Q12.29-2.32 12.29-3.08L12.29-3.08Q12.29-3.89 12.02-4.34L12.02-4.34Q11.75-4.81 11.22-4.81L11.22-4.81Q10.66-4.81 10.37-4.34L10.37-4.34Q10.07-3.88 10.07-3.07L10.07-3.07Q10.07-2.35 10.32-1.87L10.32-1.87Q10.62-1.36 11.21-1.36L11.21-1.36Q11.75-1.36 12.05-1.87L12.05-1.87ZM17.99 0.10Q16.98 0.10 16.26-0.43Q15.54-0.96 15.28-1.87L15.28-1.87Q15.11-2.44 15.11-3.10L15.11-3.10Q15.11-3.80 15.28-4.37L15.28-4.37Q15.55-5.26 16.27-5.76Q16.99-6.26 18-6.26L18-6.26Q18.98-6.26 19.68-5.77Q20.38-5.27 20.66-4.38L20.66-4.38Q20.86-3.78 20.86-3.12L20.86-3.12Q20.86-2.47 20.69-1.91L20.69-1.91Q20.42-0.97 19.71-0.44Q19.00 0.10 17.99 0.10L17.99 0.10ZM17.99-1.36Q18.38-1.36 18.66-1.60Q18.94-1.84 19.06-2.26L19.06-2.26Q19.15-2.64 19.15-3.10L19.15-3.10Q19.15-3.60 19.06-3.95L19.06-3.95Q18.92-4.36 18.65-4.58Q18.37-4.81 17.98-4.81L17.98-4.81Q17.57-4.81 17.30-4.58Q17.03-4.36 16.91-3.95L16.91-3.95Q16.81-3.66 16.81-3.10L16.81-3.10Q16.81-2.56 16.90-2.26L16.90-2.26Q17.02-1.84 17.30-1.60Q17.58-1.36 17.99-1.36L17.99-1.36ZM27.46-4.51Q27.67-3.90 27.67-3.07L27.67-3.07Q27.67-2.24 27.44-1.57L27.44-1.57Q27.17-0.80 26.57-0.35Q25.98 0.10 25.10 0.10L25.10 0.10Q24.24 0.10 23.76-0.50L23.76-0.50Q23.74-0.54 23.71-0.53Q23.69-0.52 23.69-0.48L23.69-0.48L23.69 2.09Q23.69 2.15 23.65 2.19Q23.60 2.23 23.54 2.23L23.54 2.23L22.14 2.23Q22.08 2.23 22.04 2.19Q22.00 2.15 22.00 2.09L22.00 2.09L22.00-6.02Q22.00-6.08 22.04-6.13Q22.08-6.17 22.14-6.17L22.14-6.17L23.54-6.17Q23.60-6.17 23.65-6.13Q23.69-6.08 23.69-6.02L23.69-6.02L23.69-5.63Q23.69-5.59 23.71-5.59Q23.74-5.58 23.76-5.60L23.76-5.60Q24.26-6.26 25.15-6.26L25.15-6.26Q25.98-6.26 26.59-5.80Q27.19-5.34 27.46-4.51L27.46-4.51ZM25.62-1.82Q25.92-2.29 25.92-3.10L25.92-3.10Q25.92-3.85 25.67-4.30L25.67-4.30Q25.39-4.81 24.78-4.81L24.78-4.81Q24.23-4.81 23.95-4.30L23.95-4.30Q23.70-3.86 23.70-3.08L23.70-3.08Q23.70-2.28 23.96-1.84L23.96-1.84Q24.24-1.36 24.78-1.36L24.78-1.36Q25.32-1.36 25.62-1.82L25.62-1.82ZM32.30-4.96Q32.30-4.90 32.26-4.85Q32.22-4.81 32.16-4.81L32.16-4.81L31.01-4.81Q30.95-4.81 30.95-4.75L30.95-4.75L30.95-2.21Q30.95-1.81 31.11-1.62Q31.27-1.43 31.63-1.43L31.63-1.43L32.03-1.43Q32.09-1.43 32.13-1.39Q32.17-1.34 32.17-1.28L32.17-1.28L32.17-0.14Q32.17-0.01 32.03 0.01L32.03 0.01Q31.52 0.04 31.31 0.04L31.31 0.04Q30.31 0.04 29.82-0.29Q29.33-0.62 29.32-1.54L29.32-1.54L29.32-4.75Q29.32-4.81 29.26-4.81L29.26-4.81L28.57-4.81Q28.51-4.81 28.47-4.85Q28.43-4.90 28.43-4.96L28.43-4.96L28.43-6.02Q28.43-6.08 28.47-6.13Q28.51-6.17 28.57-6.17L28.57-6.17L29.26-6.17Q29.32-6.17 29.32-6.23L29.32-6.23L29.32-7.66Q29.32-7.72 29.36-7.76Q29.40-7.80 29.46-7.80L29.46-7.80L30.80-7.80Q30.86-7.80 30.91-7.76Q30.95-7.72 30.95-7.66L30.95-7.66L30.95-6.23Q30.95-6.17 31.01-6.17L31.01-6.17L32.16-6.17Q32.22-6.17 32.26-6.13Q32.30-6.08 32.30-6.02L32.30-6.02L32.30-4.96ZM34.24-6.86Q33.83-6.86 33.56-7.13Q33.29-7.40 33.29-7.81L33.29-7.81Q33.29-8.23 33.55-8.50Q33.82-8.76 34.24-8.76L34.24-8.76Q34.66-8.76 34.92-8.50Q35.18-8.23 35.18-7.81L35.18-7.81Q35.18-7.40 34.91-7.13Q34.64-6.86 34.24-6.86L34.24-6.86ZM33.52 0Q33.46 0 33.41-0.04Q33.37-0.08 33.37-0.14L33.37-0.14L33.37-6.04Q33.37-6.10 33.41-6.14Q33.46-6.18 33.52-6.18L33.52-6.18L34.92-6.18Q34.98-6.18 35.02-6.14Q35.06-6.10 35.06-6.04L35.06-6.04L35.06-0.14Q35.06-0.08 35.02-0.04Q34.98 0 34.92 0L34.92 0L33.52 0ZM39.11 0.10Q38.10 0.10 37.38-0.43Q36.66-0.96 36.40-1.87L36.40-1.87Q36.23-2.44 36.23-3.10L36.23-3.10Q36.23-3.80 36.40-4.37L36.40-4.37Q36.67-5.26 37.39-5.76Q38.11-6.26 39.12-6.26L39.12-6.26Q40.10-6.26 40.80-5.77Q41.50-5.27 41.78-4.38L41.78-4.38Q41.98-3.78 41.98-3.12L41.98-3.12Q41.98-2.47 41.81-1.91L41.81-1.91Q41.54-0.97 40.83-0.44Q40.12 0.10 39.11 0.10L39.11 0.10ZM39.11-1.36Q39.50-1.36 39.78-1.60Q40.06-1.84 40.18-2.26L40.18-2.26Q40.27-2.64 40.27-3.10L40.27-3.10Q40.27-3.60 40.18-3.95L40.18-3.95Q40.04-4.36 39.77-4.58Q39.49-4.81 39.10-4.81L39.10-4.81Q38.69-4.81 38.42-4.58Q38.15-4.36 38.03-3.95L38.03-3.95Q37.93-3.66 37.93-3.10L37.93-3.10Q37.93-2.56 38.02-2.26L38.02-2.26Q38.14-1.84 38.42-1.60Q38.70-1.36 39.11-1.36L39.11-1.36ZM46.28-6.26Q47.24-6.26 47.83-5.68Q48.42-5.09 48.42-4.08L48.42-4.08L48.42-0.14Q48.42-0.08 48.38-0.04Q48.34 0 48.28 0L48.28 0L46.87 0Q46.81 0 46.77-0.04Q46.73-0.08 46.73-0.14L46.73-0.14L46.73-3.73Q46.73-4.21 46.46-4.51Q46.19-4.81 45.74-4.81L45.74-4.81Q45.30-4.81 45.03-4.51Q44.76-4.21 44.76-3.73L44.76-3.73L44.76-0.14Q44.76-0.08 44.72-0.04Q44.68 0 44.62 0L44.62 0L43.21 0Q43.15 0 43.11-0.04Q43.07-0.08 43.07-0.14L43.07-0.14L43.07-6.02Q43.07-6.08 43.11-6.13Q43.15-6.17 43.21-6.17L43.21-6.17L44.62-6.17Q44.68-6.17 44.72-6.13Q44.76-6.08 44.76-6.02L44.76-6.02L44.76-5.60Q44.76-5.57 44.78-5.56Q44.81-5.54 44.82-5.57L44.82-5.57Q45.31-6.26 46.28-6.26L46.28-6.26Z"/><path fill="#252530" transform="translate(12.36, 48)" d="M5.20-8.26Q5.20-8.32 5.24-8.36Q5.28-8.40 5.34-8.40L5.34-8.40L6.74-8.40Q6.80-8.40 6.85-8.36Q6.89-8.32 6.89-8.26L6.89-8.26L6.89-0.14Q6.89-0.08 6.85-0.04Q6.80 0 6.74 0L6.74 0L5.34 0Q5.28 0 5.24-0.04Q5.20-0.08 5.20-0.14L5.20-0.14L5.20-3.46Q5.20-3.52 5.14-3.52L5.14-3.52L2.48-3.52Q2.42-3.52 2.42-3.46L2.42-3.46L2.42-0.14Q2.42-0.08 2.38-0.04Q2.34 0 2.28 0L2.28 0L0.88 0Q0.82 0 0.77-0.04Q0.73-0.08 0.73-0.14L0.73-0.14L0.73-8.26Q0.73-8.32 0.77-8.36Q0.82-8.40 0.88-8.40L0.88-8.40L2.28-8.40Q2.34-8.40 2.38-8.36Q2.42-8.32 2.42-8.26L2.42-8.26L2.42-5.03Q2.42-4.97 2.48-4.97L2.48-4.97L5.14-4.97Q5.20-4.97 5.20-5.03L5.20-5.03L5.20-8.26ZM9.07-6.86Q8.66-6.86 8.39-7.13Q8.12-7.40 8.12-7.81L8.12-7.81Q8.12-8.23 8.39-8.50Q8.65-8.76 9.07-8.76L9.07-8.76Q9.49-8.76 9.76-8.50Q10.02-8.23 10.02-7.81L10.02-7.81Q10.02-7.40 9.75-7.13Q9.48-6.86 9.07-6.86L9.07-6.86ZM8.35 0Q8.29 0 8.25-0.04Q8.21-0.08 8.21-0.14L8.21-0.14L8.21-6.04Q8.21-6.10 8.25-6.14Q8.29-6.18 8.35-6.18L8.35-6.18L9.76-6.18Q9.82-6.18 9.86-6.14Q9.90-6.10 9.90-6.04L9.90-6.04L9.90-0.14Q9.90-0.08 9.86-0.04Q9.82 0 9.76 0L9.76 0L8.35 0ZM14.99-6.02Q14.99-6.08 15.03-6.13Q15.07-6.17 15.13-6.17L15.13-6.17L16.54-6.17Q16.60-6.17 16.64-6.13Q16.68-6.08 16.68-6.02L16.68-6.02L16.68-0.55Q16.68 1.02 15.77 1.69Q14.87 2.36 13.44 2.36L13.44 2.36Q13.02 2.36 12.50 2.30L12.50 2.30Q12.38 2.29 12.38 2.15L12.38 2.15L12.43 0.91Q12.43 0.76 12.60 0.78L12.60 0.78Q13.03 0.85 13.39 0.85L13.39 0.85Q14.16 0.85 14.57 0.52Q14.99 0.18 14.99-0.56L14.99-0.56Q14.99-0.60 14.96-0.61Q14.94-0.61 14.92-0.59L14.92-0.59Q14.46-0.10 13.58-0.10L13.58-0.10Q12.80-0.10 12.15-0.47Q11.50-0.85 11.22-1.69L11.22-1.69Q11.04-2.24 11.04-3.12L11.04-3.12Q11.04-4.06 11.26-4.64L11.26-4.64Q11.51-5.38 12.11-5.82Q12.71-6.26 13.50-6.26L13.50-6.26Q14.42-6.26 14.92-5.71L14.92-5.71Q14.94-5.69 14.96-5.69Q14.99-5.70 14.99-5.74L14.99-5.74L14.99-6.02ZM14.89-2.15Q14.99-2.51 14.99-3.13L14.99-3.13Q14.99-3.50 14.96-3.71Q14.94-3.91 14.88-4.09L14.88-4.09Q14.77-4.42 14.52-4.61Q14.27-4.81 13.90-4.81L13.90-4.81Q13.54-4.81 13.28-4.61Q13.03-4.42 12.91-4.09L12.91-4.09Q12.74-3.73 12.74-3.12L12.74-3.12Q12.74-2.45 12.89-2.16L12.89-2.16Q13.00-1.84 13.27-1.64Q13.54-1.44 13.91-1.44L13.91-1.44Q14.29-1.44 14.54-1.64Q14.80-1.84 14.89-2.15L14.89-2.15ZM21.11-6.26Q22.07-6.26 22.66-5.68Q23.24-5.09 23.24-4.08L23.24-4.08L23.24-0.14Q23.24-0.08 23.20-0.04Q23.16 0 23.10 0L23.10 0L21.70 0Q21.64 0 21.59-0.04Q21.55-0.08 21.55-0.14L21.55-0.14L21.55-3.73Q21.55-4.21 21.28-4.51Q21.01-4.81 20.57-4.81L20.57-4.81Q20.12-4.81 19.85-4.51Q19.58-4.21 19.58-3.73L19.58-3.73L19.58-0.14Q19.58-0.08 19.54-0.04Q19.50 0 19.44 0L19.44 0L18.04 0Q17.98 0 17.93-0.04Q17.89-0.08 17.89-0.14L17.89-0.14L17.89-8.26Q17.89-8.32 17.93-8.36Q17.98-8.40 18.04-8.40L18.04-8.40L19.44-8.40Q19.50-8.40 19.54-8.36Q19.58-8.32 19.58-8.26L19.58-8.26L19.58-5.60Q19.58-5.57 19.61-5.56Q19.63-5.54 19.64-5.57L19.64-5.57Q20.14-6.26 21.11-6.26L21.11-6.26ZM29.88-3.72Q29.95-3.26 29.93-2.70L29.93-2.70Q29.92-2.56 29.77-2.56L29.77-2.56L26.06-2.56Q25.99-2.56 26.02-2.50L26.02-2.50Q26.05-2.26 26.15-2.02L26.15-2.02Q26.46-1.34 27.42-1.34L27.42-1.34Q28.19-1.36 28.63-1.97L28.63-1.97Q28.68-2.04 28.74-2.04L28.74-2.04Q28.78-2.04 28.82-1.99L28.82-1.99L29.69-1.14Q29.75-1.08 29.75-1.03L29.75-1.03Q29.75-1.01 29.70-0.94L29.70-0.94Q29.30-0.44 28.68-0.17Q28.06 0.10 27.31 0.10L27.31 0.10Q26.28 0.10 25.57-0.37Q24.85-0.84 24.54-1.68L24.54-1.68Q24.29-2.28 24.29-3.25L24.29-3.25Q24.29-3.91 24.47-4.42L24.47-4.42Q24.74-5.27 25.43-5.77Q26.12-6.28 27.07-6.28L27.07-6.28Q28.27-6.28 29.00-5.58Q29.72-4.88 29.88-3.72L29.88-3.72ZM27.08-4.81Q26.33-4.81 26.09-4.10L26.09-4.10Q26.04-3.95 26.00-3.72L26.00-3.72Q26.00-3.66 26.06-3.66L26.06-3.66L28.14-3.66Q28.21-3.66 28.19-3.72L28.19-3.72Q28.13-4.07 28.13-4.06L28.13-4.06Q28.02-4.42 27.75-4.61Q27.48-4.81 27.08-4.81L27.08-4.81ZM33.35 0.08Q32.54 0.08 31.94-0.14Q31.34-0.37 31.01-0.78Q30.68-1.19 30.68-1.70L30.68-1.70L30.68-1.82Q30.68-1.88 30.73-1.93Q30.77-1.97 30.83-1.97L30.83-1.97L32.16-1.97Q32.22-1.97 32.26-1.93Q32.30-1.88 32.30-1.82L32.30-1.82L32.30-1.81Q32.30-1.55 32.60-1.36Q32.89-1.18 33.34-1.18L33.34-1.18Q33.74-1.18 34.00-1.34Q34.25-1.50 34.25-1.74L34.25-1.74Q34.25-1.96 34.03-2.06Q33.82-2.17 33.32-2.29L33.32-2.29Q32.76-2.44 32.44-2.57L32.44-2.57Q31.67-2.83 31.21-3.22Q30.76-3.60 30.76-4.32L30.76-4.32Q30.76-5.21 31.45-5.73Q32.14-6.25 33.28-6.25L33.28-6.25Q34.04-6.25 34.62-6.01Q35.20-5.76 35.51-5.32Q35.83-4.87 35.83-4.31L35.83-4.31Q35.83-4.25 35.79-4.21Q35.75-4.16 35.69-4.16L35.69-4.16L34.40-4.16Q34.34-4.16 34.30-4.21Q34.26-4.25 34.26-4.31L34.26-4.31Q34.26-4.57 33.99-4.75Q33.72-4.93 33.28-4.93L33.28-4.93Q32.88-4.93 32.63-4.79Q32.38-4.64 32.38-4.39L32.38-4.39Q32.38-4.15 32.62-4.03Q32.87-3.91 33.44-3.78L33.44-3.78Q33.58-3.74 33.74-3.70Q33.91-3.66 34.10-3.60L34.10-3.60Q34.96-3.35 35.45-2.95Q35.94-2.56 35.94-1.80L35.94-1.80Q35.94-0.91 35.24-0.41Q34.54 0.08 33.35 0.08L33.35 0.08ZM40.44-4.96Q40.44-4.90 40.40-4.85Q40.36-4.81 40.30-4.81L40.30-4.81L39.14-4.81Q39.08-4.81 39.08-4.75L39.08-4.75L39.08-2.21Q39.08-1.81 39.25-1.62Q39.41-1.43 39.77-1.43L39.77-1.43L40.16-1.43Q40.22-1.43 40.27-1.39Q40.31-1.34 40.31-1.28L40.31-1.28L40.31-0.14Q40.31-0.01 40.16 0.01L40.16 0.01Q39.66 0.04 39.44 0.04L39.44 0.04Q38.45 0.04 37.96-0.29Q37.46-0.62 37.45-1.54L37.45-1.54L37.45-4.75Q37.45-4.81 37.39-4.81L37.39-4.81L36.71-4.81Q36.65-4.81 36.61-4.85Q36.56-4.90 36.56-4.96L36.56-4.96L36.56-6.02Q36.56-6.08 36.61-6.13Q36.65-6.17 36.71-6.17L36.71-6.17L37.39-6.17Q37.45-6.17 37.45-6.23L37.45-6.23L37.45-7.66Q37.45-7.72 37.49-7.76Q37.54-7.80 37.60-7.80L37.60-7.80L38.94-7.80Q39-7.80 39.04-7.76Q39.08-7.72 39.08-7.66L39.08-7.66L39.08-6.23Q39.08-6.17 39.14-6.17L39.14-6.17L40.30-6.17Q40.36-6.17 40.40-6.13Q40.44-6.08 40.44-6.02L40.44-6.02L40.44-4.96ZM47.02 0.10Q46.09 0.10 45.39-0.26Q44.69-0.62 44.30-1.28Q43.91-1.93 43.91-2.78L43.91-2.78L43.91-8.26Q43.91-8.32 43.95-8.36Q43.99-8.40 44.05-8.40L44.05-8.40L45.46-8.40Q45.52-8.40 45.56-8.36Q45.60-8.32 45.60-8.26L45.60-8.26L45.60-2.77Q45.60-2.14 45.99-1.75Q46.38-1.36 47.02-1.36L47.02-1.36Q47.65-1.36 48.04-1.75Q48.43-2.14 48.43-2.77L48.43-2.77L48.43-8.26Q48.43-8.32 48.47-8.36Q48.52-8.40 48.58-8.40L48.58-8.40L49.98-8.40Q50.04-8.40 50.08-8.36Q50.12-8.32 50.12-8.26L50.12-8.26L50.12-2.78Q50.12-1.93 49.73-1.28Q49.34-0.62 48.64-0.26Q47.94 0.10 47.02 0.10L47.02 0.10ZM53.87 0.08Q53.06 0.08 52.46-0.14Q51.86-0.37 51.53-0.78Q51.20-1.19 51.20-1.70L51.20-1.70L51.20-1.82Q51.20-1.88 51.25-1.93Q51.29-1.97 51.35-1.97L51.35-1.97L52.68-1.97Q52.74-1.97 52.78-1.93Q52.82-1.88 52.82-1.82L52.82-1.82L52.82-1.81Q52.82-1.55 53.12-1.36Q53.41-1.18 53.86-1.18L53.86-1.18Q54.26-1.18 54.52-1.34Q54.77-1.50 54.77-1.74L54.77-1.74Q54.77-1.96 54.55-2.06Q54.34-2.17 53.84-2.29L53.84-2.29Q53.28-2.44 52.96-2.57L52.96-2.57Q52.19-2.83 51.73-3.22Q51.28-3.60 51.28-4.32L51.28-4.32Q51.28-5.21 51.97-5.73Q52.66-6.25 53.80-6.25L53.80-6.25Q54.56-6.25 55.14-6.01Q55.72-5.76 56.03-5.32Q56.35-4.87 56.35-4.31L56.35-4.31Q56.35-4.25 56.31-4.21Q56.27-4.16 56.21-4.16L56.21-4.16L54.92-4.16Q54.86-4.16 54.82-4.21Q54.78-4.25 54.78-4.31L54.78-4.31Q54.78-4.57 54.51-4.75Q54.24-4.93 53.80-4.93L53.80-4.93Q53.40-4.93 53.15-4.79Q52.90-4.64 52.90-4.39L52.90-4.39Q52.90-4.15 53.14-4.03Q53.39-3.91 53.96-3.78L53.96-3.78Q54.10-3.74 54.26-3.70Q54.43-3.66 54.62-3.60L54.62-3.60Q55.48-3.35 55.97-2.95Q56.46-2.56 56.46-1.80L56.46-1.80Q56.46-0.91 55.76-0.41Q55.06 0.08 53.87 0.08L53.87 0.08ZM62.89-3.72Q62.96-3.26 62.94-2.70L62.94-2.70Q62.93-2.56 62.78-2.56L62.78-2.56L59.08-2.56Q59.00-2.56 59.03-2.50L59.03-2.50Q59.06-2.26 59.16-2.02L59.16-2.02Q59.47-1.34 60.43-1.34L60.43-1.34Q61.20-1.36 61.64-1.97L61.64-1.97Q61.69-2.04 61.75-2.04L61.75-2.04Q61.79-2.04 61.84-1.99L61.84-1.99L62.70-1.14Q62.76-1.08 62.76-1.03L62.76-1.03Q62.76-1.01 62.71-0.94L62.71-0.94Q62.32-0.44 61.69-0.17Q61.07 0.10 60.32 0.10L60.32 0.10Q59.29 0.10 58.58-0.37Q57.86-0.84 57.55-1.68L57.55-1.68Q57.30-2.28 57.30-3.25L57.30-3.25Q57.30-3.91 57.48-4.42L57.48-4.42Q57.76-5.27 58.45-5.77Q59.14-6.28 60.08-6.28L60.08-6.28Q61.28-6.28 62.01-5.58Q62.74-4.88 62.89-3.72L62.89-3.72ZM60.10-4.81Q59.34-4.81 59.10-4.10L59.10-4.10Q59.05-3.95 59.02-3.72L59.02-3.72Q59.02-3.66 59.08-3.66L59.08-3.66L61.15-3.66Q61.22-3.66 61.20-3.72L61.20-3.72Q61.14-4.07 61.14-4.06L61.14-4.06Q61.03-4.42 60.76-4.61Q60.49-4.81 60.10-4.81L60.10-4.81ZM67.06-6.25Q67.49-6.25 67.74-6.08L67.74-6.08Q67.84-6.04 67.81-5.90L67.81-5.90L67.56-4.54Q67.55-4.39 67.39-4.45L67.39-4.45Q67.21-4.51 66.97-4.51L66.97-4.51Q66.88-4.51 66.71-4.49L66.71-4.49Q66.28-4.45 65.98-4.17Q65.68-3.89 65.68-3.42L65.68-3.42L65.68-0.14Q65.68-0.08 65.63-0.04Q65.59 0 65.53 0L65.53 0L64.13 0Q64.07 0 64.03-0.04Q63.98-0.08 63.98-0.14L63.98-0.14L63.98-6.02Q63.98-6.08 64.03-6.13Q64.07-6.17 64.13-6.17L64.13-6.17L65.53-6.17Q65.59-6.17 65.63-6.13Q65.68-6.08 65.68-6.02L65.68-6.02L65.68-5.57Q65.68-5.53 65.70-5.52Q65.72-5.51 65.74-5.53L65.74-5.53Q66.23-6.25 67.06-6.25L67.06-6.25Z"/><path fill="#fff" transform="translate(35.00, 75.4)" d="M5.46-6.12Q5.46-6.07 5.42-6.04Q5.39-6 5.34-6L5.34-6L1.94-6Q1.89-6 1.89-5.95L1.89-5.95L1.89-4.08Q1.89-4.03 1.94-4.03L1.94-4.03L4.23-4.03Q4.28-4.03 4.32-4.00Q4.35-3.96 4.35-3.91L4.35-3.91L4.35-3.15Q4.35-3.10 4.32-3.06Q4.28-3.03 4.23-3.03L4.23-3.03L1.94-3.03Q1.89-3.03 1.89-2.98L1.89-2.98L1.89-0.12Q1.89-0.07 1.85-0.04Q1.82 0 1.77 0L1.77 0L0.85 0Q0.80 0 0.77-0.04Q0.73-0.07 0.73-0.12L0.73-0.12L0.73-6.88Q0.73-6.93 0.77-6.96Q0.80-7 0.85-7L0.85-7L5.34-7Q5.39-7 5.42-6.96Q5.46-6.93 5.46-6.88L5.46-6.88L5.46-6.12ZM10.02 0Q9.92 0 9.89-0.10L9.89-0.10L9.56-1.17Q9.54-1.21 9.51-1.21L9.51-1.21L6.87-1.21Q6.84-1.21 6.82-1.17L6.82-1.17L6.49-0.10Q6.46 0 6.36 0L6.36 0L5.36 0Q5.30 0 5.27-0.04Q5.24-0.07 5.26-0.14L5.26-0.14L7.43-6.90Q7.46-7 7.56-7L7.56-7L8.81-7Q8.91-7 8.94-6.90L8.94-6.90L11.12-0.14Q11.13-0.12 11.13-0.09L11.13-0.09Q11.13 0 11.02 0L11.02 0L10.02 0ZM7.13-2.18Q7.12-2.12 7.17-2.12L7.17-2.12L9.20-2.12Q9.26-2.12 9.24-2.18L9.24-2.18L8.21-5.53Q8.20-5.57 8.18-5.57Q8.16-5.57 8.15-5.53L8.15-5.53L7.13-2.18ZM12.28 0Q12.23 0 12.20-0.04Q12.16-0.07 12.16-0.12L12.16-0.12L12.16-6.88Q12.16-6.93 12.20-6.96Q12.23-7 12.28-7L12.28-7L13.20-7Q13.25-7 13.29-6.96Q13.32-6.93 13.32-6.88L13.32-6.88L13.32-1.05Q13.32-1 13.37-1L13.37-1L16.72-1Q16.77-1 16.80-0.96Q16.84-0.93 16.84-0.88L16.84-0.88L16.84-0.12Q16.84-0.07 16.80-0.04Q16.77 0 16.72 0L16.72 0L12.28 0ZM17.99 0Q17.94 0 17.91-0.04Q17.87-0.07 17.87-0.12L17.87-0.12L17.87-6.88Q17.87-6.93 17.91-6.96Q17.94-7 17.99-7L17.99-7L18.91-7Q18.96-7 19.00-6.96Q19.03-6.93 19.03-6.88L19.03-6.88L19.03-1.05Q19.03-1 19.08-1L19.08-1L22.43-1Q22.48-1 22.52-0.96Q22.55-0.93 22.55-0.88L22.55-0.88L22.55-0.12Q22.55-0.07 22.52-0.04Q22.48 0 22.43 0L22.43 0L17.99 0Z"/><path fill="#252530" transform="translate(32.04, 95.3)" d="M3.38-1.84Q3.35-1.81 3.36-1.78Q3.38-1.75 3.42-1.75L3.42-1.75L7.35-1.75Q7.42-1.75 7.47-1.70Q7.53-1.65 7.53-1.58L7.53-1.58L7.53-0.17Q7.53-0.10 7.47-0.05Q7.42 0 7.35 0L7.35 0L0.83 0Q0.75 0 0.70-0.05Q0.65-0.10 0.65-0.17L0.65-0.17L0.65-1.51Q0.65-1.64 0.74-1.73L0.74-1.73Q1.45-2.42 2.19-3.24Q2.93-4.06 3.12-4.26L3.12-4.26Q3.52-4.74 3.94-5.18L3.94-5.18Q5.26-6.64 5.26-7.35L5.26-7.35Q5.26-7.86 4.90-8.19Q4.54-8.51 3.96-8.51L3.96-8.51Q3.38-8.51 3.02-8.19Q2.65-7.86 2.65-7.32L2.65-7.32L2.65-6.96Q2.65-6.89 2.60-6.84Q2.55-6.79 2.48-6.79L2.48-6.79L0.77-6.79Q0.70-6.79 0.65-6.84Q0.59-6.89 0.59-6.96L0.59-6.96L0.59-7.64Q0.64-8.42 1.09-9.03Q1.54-9.63 2.28-9.95Q3.03-10.27 3.96-10.27L3.96-10.27Q4.99-10.27 5.75-9.88Q6.51-9.50 6.92-8.85Q7.34-8.19 7.34-7.40L7.34-7.40Q7.34-6.79 7.03-6.15Q6.73-5.51 6.12-4.77L6.12-4.77Q5.67-4.21 5.15-3.65Q4.63-3.10 3.60-2.06L3.60-2.06L3.38-1.84ZM12.24 0.16Q10.64 0.16 9.72-0.73Q8.79-1.62 8.79-3.16L8.79-3.16L8.79-6.99Q8.79-8.50 9.72-9.38Q10.64-10.27 12.24-10.27L12.24-10.27Q13.83-10.27 14.77-9.38Q15.70-8.50 15.70-6.99L15.70-6.99L15.70-3.16Q15.70-1.62 14.77-0.73Q13.83 0.16 12.24 0.16L12.24 0.16ZM12.24-1.59Q12.89-1.59 13.27-1.99Q13.66-2.39 13.66-3.06L13.66-3.06L13.66-7.05Q13.66-7.71 13.27-8.11Q12.89-8.51 12.24-8.51L12.24-8.51Q11.60-8.51 11.22-8.11Q10.83-7.71 10.83-7.05L10.83-7.05L10.83-3.06Q10.83-2.39 11.22-1.99Q11.60-1.59 12.24-1.59L12.24-1.59ZM19.76-1.84Q19.73-1.81 19.75-1.78Q19.76-1.75 19.81-1.75L19.81-1.75L23.74-1.75Q23.81-1.75 23.86-1.70Q23.91-1.65 23.91-1.58L23.91-1.58L23.91-0.17Q23.91-0.10 23.86-0.05Q23.81 0 23.74 0L23.74 0L17.21 0Q17.14 0 17.09-0.05Q17.04-0.10 17.04-0.17L17.04-0.17L17.04-1.51Q17.04-1.64 17.12-1.73L17.12-1.73Q17.84-2.42 18.57-3.24Q19.31-4.06 19.50-4.26L19.50-4.26Q19.91-4.74 20.33-5.18L20.33-5.18Q21.65-6.64 21.65-7.35L21.65-7.35Q21.65-7.86 21.29-8.19Q20.92-8.51 20.34-8.51L20.34-8.51Q19.76-8.51 19.40-8.19Q19.04-7.86 19.04-7.32L19.04-7.32L19.04-6.96Q19.04-6.89 18.99-6.84Q18.94-6.79 18.86-6.79L18.86-6.79L17.15-6.79Q17.08-6.79 17.03-6.84Q16.98-6.89 16.98-6.96L16.98-6.96L16.98-7.64Q17.02-8.42 17.47-9.03Q17.92-9.63 18.67-9.95Q19.42-10.27 20.34-10.27L20.34-10.27Q21.37-10.27 22.13-9.88Q22.90-9.50 23.31-8.85Q23.72-8.19 23.72-7.40L23.72-7.40Q23.72-6.79 23.42-6.15Q23.11-5.51 22.50-4.77L22.50-4.77Q22.05-4.21 21.53-3.65Q21.01-3.10 19.98-2.06L19.98-2.06L19.76-1.84ZM26.59-10.11Q26.67-10.15 26.81-10.15L26.81-10.15L28.57-10.15Q28.64-10.15 28.69-10.10Q28.74-10.05 28.74-9.98L28.74-9.98L28.74-0.17Q28.74-0.10 28.69-0.05Q28.64 0 28.57 0L28.57 0L26.87 0Q26.80 0 26.75-0.05Q26.69-0.10 26.69-0.17L26.69-0.17L26.69-8.12Q26.69-8.15 26.67-8.18Q26.64-8.21 26.61-8.19L26.61-8.19L25.17-7.80L25.11-7.79Q24.98-7.79 24.98-7.95L24.98-7.95L24.94-9.19Q24.94-9.34 25.07-9.40L25.07-9.40L26.59-10.11Z"/></g>
</svg>