<svg xmlns="http://www.w3.org/2000/svg" viewBox="0 0 94 122">
  <g id="container">
    <path fill="#fff" d="M8.1 89.9L47.6 110l38-20.1V11.3H8.1z"/>
    <path fill="#f2f3f2" d="M86.4 11.6L7.3 91.3l41 20.3 38.1-19.5z"/>
    <path d="M5.5 37.5v54.1l1.4.7 39.5 20.1 1.2.6 1.2-.6 38.1-20.1 1.4-.7V8.7H5.5v28.8zm2.6 52.6V11.3h77.6v78.8l-38.1 20.1L8.1 90.1z" fill="#dcdedc"/>
    <path id="logo" d="M46.9 12.6c.4 0 .8 0 1.2.1L46.9 15c-1.8-.1-3.4 1.3-3.5 3.1-.1 1.8 1.3 3.4 3.1 3.5h.4c.8 0 1.6-.3 2.2-.8l1.3 2.2c-1 .7-2.2 1.1-3.5 1.1-3.2.1-5.9-2.3-6-5.5-.1-3.2 2.3-5.9 5.5-6h.5zm4.1 4.9l1.5 2.5-1.5 2.4-1.4-2.4h-2.9l1.5-2.5H51zm-2.4-.9c0-.4.1-.8.3-1.1.2-.3.6-.6.9-.8l.2-.1c.4-.2.5-.3.5-.5s-.3-.4-.5-.4c-.4 0-.7.2-.9.6l-.5-.5c.1-.2.3-.4.5-.6.3-.2.6-.2.9-.2.3 0 .7.1.9.3.2.2.4.5.4.8 0 .5-.3.9-.9 1.1l-.3.2c-.3.2-.5.3-.6.6h1.8v.7l-2.7-.1zm-1.7 12.5l9.5-5.4v-15H37.3v14.9l9.6 5.5z" fill="#ff492c"/>
    <path id="banner" d="M90.2 64.5H3.6l-3.2 7 3.2 7h86.6l3.1-7z" fill="#2690ce"/>
  <path fill="#252530" transform="translate(11.55, 60)" d="M0.73 0Q0.68 0 0.65-0.04Q0.61-0.07 0.61-0.12L0.61-0.12L0.61-6.88Q0.61-6.93 0.65-6.96Q0.68-7 0.73-7L0.73-7L1.90-7Q1.95-7 1.99-6.96Q2.02-6.93 2.02-6.88L2.02-6.88L2.02-0.12Q2.02-0.07 1.99-0.04Q1.95 0 1.90 0L1.90 0L0.73 0ZM8.85-5.22Q9.63-5.22 10.07-4.75Q10.51-4.28 10.51-3.43L10.51-3.43L10.51-0.12Q10.51-0.07 10.47-0.04Q10.44 0 10.39 0L10.39 0L9.22 0Q9.17 0 9.13-0.04Q9.10-0.07 9.10-0.12L9.10-0.12L9.10-3.12Q9.10-3.53 8.89-3.77Q8.68-4.01 8.33-4.01L8.33-4.01Q7.98-4.01 7.76-3.77Q7.54-3.53 7.54-3.13L7.54-3.13L7.54-0.12Q7.54-0.07 7.50-0.04Q7.47 0 7.42 0L7.42 0L6.26 0Q6.21 0 6.17-0.04Q6.14-0.07 6.14-0.12L6.14-0.12L6.14-3.12Q6.14-3.52 5.92-3.77Q5.70-4.01 5.35-4.01L5.35-4.01Q5.03-4.01 4.81-3.82Q4.60-3.63 4.56-3.29L4.56-3.29L4.56-0.12Q4.56-0.07 4.53-0.04Q4.49 0 4.44 0L4.44 0L3.27 0Q3.22 0 3.19-0.04Q3.15-0.07 3.15-0.12L3.15-0.12L3.15-5.02Q3.15-5.07 3.19-5.11Q3.22-5.14 3.27-5.14L3.27-5.14L4.44-5.14Q4.49-5.14 4.53-5.11Q4.56-5.07 4.56-5.02L4.56-5.02L4.56-4.63Q4.56-4.60 4.58-4.59Q4.60-4.58 4.62-4.61L4.62-4.61Q5.03-5.22 5.89-5.22L5.89-5.22Q6.39-5.22 6.76-5.01Q7.14-4.80 7.34-4.41L7.34-4.41Q7.37-4.35 7.41-4.41L7.41-4.41Q7.63-4.82 8.00-5.02Q8.38-5.22 8.85-5.22L8.85-5.22ZM16.09-3.76Q16.27-3.25 16.27-2.56L16.27-2.56Q16.27-1.87 16.08-1.31L16.08-1.31Q15.85-0.67 15.36-0.29Q14.86 0.08 14.13 0.08L14.13 0.08Q13.41 0.08 13.01-0.42L13.01-0.42Q12.99-0.45 12.97-0.44Q12.95-0.43 12.95-0.40L12.95-0.40L12.95 1.74Q12.95 1.79 12.92 1.82Q12.88 1.86 12.83 1.86L12.83 1.86L11.66 1.86Q11.61 1.86 11.58 1.82Q11.54 1.79 11.54 1.74L11.54 1.74L11.54-5.02Q11.54-5.07 11.58-5.11Q11.61-5.14 11.66-5.14L11.66-5.14L12.83-5.14Q12.88-5.14 12.92-5.11Q12.95-5.07 12.95-5.02L12.95-5.02L12.95-4.69Q12.95-4.66 12.97-4.66Q12.99-4.65 13.01-4.67L13.01-4.67Q13.43-5.22 14.17-5.22L14.17-5.22Q14.86-5.22 15.37-4.83Q15.87-4.45 16.09-3.76L16.09-3.76ZM14.56-1.52Q14.81-1.91 14.81-2.58L14.81-2.58Q14.81-3.21 14.60-3.58L14.60-3.58Q14.37-4.01 13.86-4.01L13.86-4.01Q13.40-4.01 13.17-3.58L13.17-3.58Q12.96-3.22 12.96-2.57L12.96-2.57Q12.96-1.90 13.18-1.53L13.18-1.53Q13.41-1.13 13.86-1.13L13.86-1.13Q14.31-1.13 14.56-1.52L14.56-1.52ZM17.30 0Q17.25 0 17.21-0.04Q17.18-0.07 17.18-0.12L17.18-0.12L17.18-6.88Q17.18-6.93 17.21-6.96Q17.25-7 17.30-7L17.30-7L18.47-7Q18.52-7 18.55-6.96Q18.59-6.93 18.59-6.88L18.59-6.88L18.59-0.12Q18.59-0.07 18.55-0.04Q18.52 0 18.47 0L18.47 0L17.30 0ZM24.17-3.10Q24.23-2.72 24.21-2.25L24.21-2.25Q24.20-2.13 24.08-2.13L24.08-2.13L20.99-2.13Q20.93-2.13 20.95-2.08L20.95-2.08Q20.98-1.88 21.06-1.68L21.06-1.68Q21.32-1.12 22.12-1.12L22.12-1.12Q22.76-1.13 23.13-1.64L23.13-1.64Q23.17-1.70 23.22-1.70L23.22-1.70Q23.25-1.70 23.29-1.66L23.29-1.66L24.01-0.95Q24.06-0.90 24.06-0.86L24.06-0.86Q24.06-0.84 24.02-0.78L24.02-0.78Q23.69-0.37 23.17-0.14Q22.65 0.08 22.03 0.08L22.03 0.08Q21.17 0.08 20.58-0.31Q19.98-0.70 19.72-1.40L19.72-1.40Q19.51-1.90 19.51-2.71L19.51-2.71Q19.51-3.26 19.66-3.68L19.66-3.68Q19.89-4.39 20.46-4.81Q21.04-5.23 21.83-5.23L21.83-5.23Q22.83-5.23 23.44-4.65Q24.04-4.07 24.17-3.10L24.17-3.10ZM21.84-4.01Q21.21-4.01 21.01-3.42L21.01-3.42Q20.97-3.29 20.94-3.10L20.94-3.10Q20.94-3.05 20.99-3.05L20.99-3.05L22.72-3.05Q22.78-3.05 22.76-3.10L22.76-3.10Q22.71-3.39 22.71-3.38L22.71-3.38Q22.62-3.68 22.40-3.85Q22.17-4.01 21.84-4.01L21.84-4.01ZM30.78-5.22Q31.56-5.22 32-4.75Q32.44-4.28 32.44-3.43L32.44-3.43L32.44-0.12Q32.44-0.07 32.41-0.04Q32.37 0 32.32 0L32.32 0L31.15 0Q31.10 0 31.07-0.04Q31.03-0.07 31.03-0.12L31.03-0.12L31.03-3.12Q31.03-3.53 30.82-3.77Q30.61-4.01 30.26-4.01L30.26-4.01Q29.91-4.01 29.69-3.77Q29.47-3.53 29.47-3.13L29.47-3.13L29.47-0.12Q29.47-0.07 29.44-0.04Q29.40 0 29.35 0L29.35 0L28.19 0Q28.14 0 28.11-0.04Q28.07-0.07 28.07-0.12L28.07-0.12L28.07-3.12Q28.07-3.52 27.85-3.77Q27.63-4.01 27.28-4.01L27.28-4.01Q26.96-4.01 26.75-3.82Q26.53-3.63 26.49-3.29L26.49-3.29L26.49-0.12Q26.49-0.07 26.46-0.04Q26.42 0 26.37 0L26.37 0L25.20 0Q25.15 0 25.12-0.04Q25.08-0.07 25.08-0.12L25.08-0.12L25.08-5.02Q25.08-5.07 25.12-5.11Q25.15-5.14 25.20-5.14L25.20-5.14L26.37-5.14Q26.42-5.14 26.46-5.11Q26.49-5.07 26.49-5.02L26.49-5.02L26.49-4.63Q26.49-4.60 26.51-4.59Q26.53-4.58 26.55-4.61L26.55-4.61Q26.96-5.22 27.82-5.22L27.82-5.22Q28.32-5.22 28.70-5.01Q29.07-4.80 29.27-4.41L29.27-4.41Q29.30-4.35 29.34-4.41L29.34-4.41Q29.56-4.82 29.94-5.02Q30.31-5.22 30.78-5.22L30.78-5.22ZM37.95-3.10Q38.01-2.72 37.99-2.25L37.99-2.25Q37.98-2.13 37.86-2.13L37.86-2.13L34.77-2.13Q34.71-2.13 34.73-2.08L34.73-2.08Q34.76-1.88 34.84-1.68L34.84-1.68Q35.10-1.12 35.90-1.12L35.90-1.12Q36.54-1.13 36.91-1.64L36.91-1.64Q36.95-1.70 37-1.70L37-1.70Q37.03-1.70 37.07-1.66L37.07-1.66L37.79-0.95Q37.84-0.90 37.84-0.86L37.84-0.86Q37.84-0.84 37.80-0.78L37.80-0.78Q37.47-0.37 36.95-0.14Q36.43 0.08 35.81 0.08L35.81 0.08Q34.95 0.08 34.36-0.31Q33.76-0.70 33.50-1.40L33.50-1.40Q33.29-1.90 33.29-2.71L33.29-2.71Q33.29-3.26 33.44-3.68L33.44-3.68Q33.67-4.39 34.25-4.81Q34.82-5.23 35.61-5.23L35.61-5.23Q36.61-5.23 37.22-4.65Q37.82-4.07 37.95-3.10L37.95-3.10ZM35.62-4.01Q34.99-4.01 34.79-3.42L34.79-3.42Q34.75-3.29 34.72-3.10L34.72-3.10Q34.72-3.05 34.77-3.05L34.77-3.05L36.50-3.05Q36.56-3.05 36.54-3.10L36.54-3.10Q36.49-3.39 36.49-3.38L36.49-3.38Q36.40-3.68 36.18-3.85Q35.95-4.01 35.62-4.01L35.62-4.01ZM41.54-5.22Q42.34-5.22 42.83-4.73Q43.32-4.24 43.32-3.40L43.32-3.40L43.32-0.12Q43.32-0.07 43.29-0.04Q43.25 0 43.20 0L43.20 0L42.03 0Q41.98 0 41.95-0.04Q41.91-0.07 41.91-0.12L41.91-0.12L41.91-3.11Q41.91-3.51 41.69-3.76Q41.46-4.01 41.09-4.01L41.09-4.01Q40.72-4.01 40.50-3.76Q40.27-3.51 40.27-3.11L40.27-3.11L40.27-0.12Q40.27-0.07 40.24-0.04Q40.20 0 40.15 0L40.15 0L38.98 0Q38.93 0 38.90-0.04Q38.86-0.07 38.86-0.12L38.86-0.12L38.86-5.02Q38.86-5.07 38.90-5.11Q38.93-5.14 38.98-5.14L38.98-5.14L40.15-5.14Q40.20-5.14 40.24-5.11Q40.27-5.07 40.27-5.02L40.27-5.02L40.27-4.67Q40.27-4.64 40.29-4.63Q40.31-4.62 40.32-4.64L40.32-4.64Q40.73-5.22 41.54-5.22L41.54-5.22ZM47.28-4.13Q47.28-4.08 47.25-4.04Q47.21-4.01 47.16-4.01L47.16-4.01L46.20-4.01Q46.15-4.01 46.15-3.96L46.15-3.96L46.15-1.84Q46.15-1.51 46.29-1.35Q46.42-1.19 46.72-1.19L46.72-1.19L47.05-1.19Q47.10-1.19 47.14-1.16Q47.17-1.12 47.17-1.07L47.17-1.07L47.17-0.12Q47.17-0.01 47.05 0.01L47.05 0.01Q46.63 0.03 46.45 0.03L46.45 0.03Q45.62 0.03 45.21-0.24Q44.80-0.52 44.79-1.28L44.79-1.28L44.79-3.96Q44.79-4.01 44.74-4.01L44.74-4.01L44.17-4.01Q44.12-4.01 44.09-4.04Q44.05-4.08 44.05-4.13L44.05-4.13L44.05-5.02Q44.05-5.07 44.09-5.11Q44.12-5.14 44.17-5.14L44.17-5.14L44.74-5.14Q44.79-5.14 44.79-5.19L44.79-5.19L44.79-6.38Q44.79-6.43 44.83-6.46Q44.86-6.50 44.91-6.50L44.91-6.50L46.03-6.50Q46.08-6.50 46.12-6.46Q46.15-6.43 46.15-6.38L46.15-6.38L46.15-5.19Q46.15-5.14 46.20-5.14L46.20-5.14L47.16-5.14Q47.21-5.14 47.25-5.11Q47.28-5.07 47.28-5.02L47.28-5.02L47.28-4.13ZM50.18-5.22Q50.83-5.22 51.34-5.00Q51.85-4.77 52.13-4.38Q52.42-3.99 52.42-3.51L52.42-3.51L52.42-0.12Q52.42-0.07 52.38-0.04Q52.35 0 52.30 0L52.30 0L51.13 0Q51.08 0 51.05-0.04Q51.01-0.07 51.01-0.12L51.01-0.12L51.01-0.45Q51.01-0.48 50.99-0.49Q50.97-0.50 50.95-0.47L50.95-0.47Q50.53 0.08 49.60 0.08L49.60 0.08Q48.82 0.08 48.34-0.30Q47.86-0.68 47.86-1.42L47.86-1.42Q47.86-2.19 48.40-2.62Q48.94-3.04 49.94-3.04L49.94-3.04L50.96-3.04Q51.01-3.04 51.01-3.09L51.01-3.09L51.01-3.31Q51.01-3.64 50.81-3.83Q50.61-4.01 50.21-4.01L50.21-4.01Q49.90-4.01 49.70-3.90Q49.49-3.79 49.43-3.59L49.43-3.59Q49.40-3.48 49.30-3.49L49.30-3.49L48.09-3.65Q47.97-3.67 47.98-3.74L47.98-3.74Q48.02-4.16 48.31-4.50Q48.61-4.84 49.09-5.03Q49.58-5.22 50.18-5.22L50.18-5.22ZM49.98-0.97Q50.41-0.97 50.71-1.20Q51.01-1.43 51.01-1.79L51.01-1.79L51.01-2.15Q51.01-2.20 50.96-2.20L50.96-2.20L50.24-2.20Q49.79-2.20 49.53-2.03Q49.28-1.86 49.28-1.55L49.28-1.55Q49.28-1.28 49.47-1.13Q49.66-0.97 49.98-0.97L49.98-0.97ZM56.25-4.13Q56.25-4.08 56.22-4.04Q56.18-4.01 56.13-4.01L56.13-4.01L55.17-4.01Q55.12-4.01 55.12-3.96L55.12-3.96L55.12-1.84Q55.12-1.51 55.26-1.35Q55.39-1.19 55.69-1.19L55.69-1.19L56.02-1.19Q56.07-1.19 56.11-1.16Q56.14-1.12 56.14-1.07L56.14-1.07L56.14-0.12Q56.14-0.01 56.02 0.01L56.02 0.01Q55.60 0.03 55.42 0.03L55.42 0.03Q54.59 0.03 54.18-0.24Q53.77-0.52 53.76-1.28L53.76-1.28L53.76-3.96Q53.76-4.01 53.71-4.01L53.71-4.01L53.14-4.01Q53.09-4.01 53.05-4.04Q53.02-4.08 53.02-4.13L53.02-4.13L53.02-5.02Q53.02-5.07 53.05-5.11Q53.09-5.14 53.14-5.14L53.14-5.14L53.71-5.14Q53.76-5.14 53.76-5.19L53.76-5.19L53.76-6.38Q53.76-6.43 53.80-6.46Q53.83-6.50 53.88-6.50L53.88-6.50L55-6.50Q55.05-6.50 55.09-6.46Q55.12-6.43 55.12-6.38L55.12-6.38L55.12-5.19Q55.12-5.14 55.17-5.14L55.17-5.14L56.13-5.14Q56.18-5.14 56.22-5.11Q56.25-5.07 56.25-5.02L56.25-5.02L56.25-4.13ZM57.86-5.72Q57.52-5.72 57.30-5.95Q57.07-6.17 57.07-6.51L57.07-6.51Q57.07-6.86 57.29-7.08Q57.51-7.30 57.86-7.30L57.86-7.30Q58.21-7.30 58.43-7.08Q58.65-6.86 58.65-6.51L58.65-6.51Q58.65-6.17 58.42-5.95Q58.20-5.72 57.86-5.72L57.86-5.72ZM57.26 0Q57.21 0 57.17-0.04Q57.14-0.07 57.14-0.12L57.14-0.12L57.14-5.03Q57.14-5.08 57.17-5.12Q57.21-5.15 57.26-5.15L57.26-5.15L58.43-5.15Q58.48-5.15 58.52-5.12Q58.55-5.08 58.55-5.03L58.55-5.03L58.55-0.12Q58.55-0.07 58.52-0.04Q58.48 0 58.43 0L58.43 0L57.26 0ZM61.92 0.08Q61.08 0.08 60.48-0.36Q59.88-0.80 59.66-1.56L59.66-1.56Q59.52-2.03 59.52-2.58L59.52-2.58Q59.52-3.17 59.66-3.64L59.66-3.64Q59.89-4.38 60.49-4.80Q61.09-5.22 61.93-5.22L61.93-5.22Q62.75-5.22 63.33-4.80Q63.91-4.39 64.15-3.65L64.15-3.65Q64.31-3.15 64.31-2.60L64.31-2.60Q64.31-2.06 64.17-1.59L64.17-1.59Q63.95-0.81 63.35-0.36Q62.76 0.08 61.92 0.08L61.92 0.08ZM61.92-1.13Q62.25-1.13 62.48-1.33Q62.71-1.53 62.81-1.88L62.81-1.88Q62.89-2.20 62.89-2.58L62.89-2.58Q62.89-3 62.81-3.29L62.81-3.29Q62.70-3.63 62.47-3.82Q62.24-4.01 61.91-4.01L61.91-4.01Q61.57-4.01 61.34-3.82Q61.12-3.63 61.02-3.29L61.02-3.29Q60.94-3.05 60.94-2.58L60.94-2.58Q60.94-2.13 61.01-1.88L61.01-1.88Q61.11-1.53 61.34-1.33Q61.58-1.13 61.92-1.13L61.92-1.13ZM67.90-5.22Q68.70-5.22 69.19-4.73Q69.68-4.24 69.68-3.40L69.68-3.40L69.68-0.12Q69.68-0.07 69.64-0.04Q69.61 0 69.56 0L69.56 0L68.39 0Q68.34 0 68.30-0.04Q68.27-0.07 68.27-0.12L68.27-0.12L68.27-3.11Q68.27-3.51 68.04-3.76Q67.82-4.01 67.45-4.01L67.45-4.01Q67.08-4.01 66.85-3.76Q66.63-3.51 66.63-3.11L66.63-3.11L66.63-0.12Q66.63-0.07 66.59-0.04Q66.56 0 66.51 0L66.51 0L65.34 0Q65.29 0 65.25-0.04Q65.22-0.07 65.22-0.12L65.22-0.12L65.22-5.02Q65.22-5.07 65.25-5.11Q65.29-5.14 65.34-5.14L65.34-5.14L66.51-5.14Q66.56-5.14 66.59-5.11Q66.63-5.07 66.63-5.02L66.63-5.02L66.63-4.67Q66.63-4.64 66.65-4.63Q66.67-4.62 66.68-4.64L66.68-4.64Q67.09-5.22 67.90-5.22L67.90-5.22Z"/><path fill="#252530" transform="translate(29.89, 50)" d="M5.46-5.91Q5.46-5.86 5.42-5.83Q5.39-5.79 5.34-5.79L5.34-5.79L2.07-5.79Q2.02-5.79 2.02-5.74L2.02-5.74L2.02-4.19Q2.02-4.14 2.07-4.14L2.07-4.14L4.22-4.14Q4.27-4.14 4.30-4.11Q4.34-4.07 4.34-4.02L4.34-4.02L4.34-3.05Q4.34-3 4.30-2.96Q4.27-2.93 4.22-2.93L4.22-2.93L2.07-2.93Q2.02-2.93 2.02-2.88L2.02-2.88L2.02-0.12Q2.02-0.07 1.99-0.04Q1.95 0 1.90 0L1.90 0L0.73 0Q0.68 0 0.65-0.04Q0.61-0.07 0.61-0.12L0.61-0.12L0.61-6.88Q0.61-6.93 0.65-6.96Q0.68-7 0.73-7L0.73-7L5.34-7Q5.39-7 5.42-6.96Q5.46-6.93 5.46-6.88L5.46-6.88L5.46-5.91ZM7.68-5.22Q8.33-5.22 8.84-5.00Q9.35-4.77 9.64-4.38Q9.92-3.99 9.92-3.51L9.92-3.51L9.92-0.12Q9.92-0.07 9.89-0.04Q9.85 0 9.80 0L9.80 0L8.63 0Q8.58 0 8.54-0.04Q8.51-0.07 8.51-0.12L8.51-0.12L8.51-0.45Q8.51-0.48 8.49-0.49Q8.47-0.50 8.45-0.47L8.45-0.47Q8.03 0.08 7.10 0.08L7.10 0.08Q6.32 0.08 5.84-0.30Q5.36-0.68 5.36-1.42L5.36-1.42Q5.36-2.19 5.90-2.62Q6.44-3.04 7.44-3.04L7.44-3.04L8.46-3.04Q8.51-3.04 8.51-3.09L8.51-3.09L8.51-3.31Q8.51-3.64 8.31-3.83Q8.11-4.01 7.71-4.01L7.71-4.01Q7.40-4.01 7.20-3.90Q6.99-3.79 6.93-3.59L6.93-3.59Q6.90-3.48 6.80-3.49L6.80-3.49L5.59-3.65Q5.47-3.67 5.48-3.74L5.48-3.74Q5.52-4.16 5.82-4.50Q6.11-4.84 6.60-5.03Q7.08-5.22 7.68-5.22L7.68-5.22ZM7.48-0.97Q7.91-0.97 8.21-1.20Q8.51-1.43 8.51-1.79L8.51-1.79L8.51-2.15Q8.51-2.20 8.46-2.20L8.46-2.20L7.74-2.20Q7.29-2.20 7.04-2.03Q6.78-1.86 6.78-1.55L6.78-1.55Q6.78-1.28 6.97-1.13Q7.16-0.97 7.48-0.97L7.48-0.97ZM12.96 0.07Q12.29 0.07 11.79-0.12Q11.29-0.31 11.02-0.65Q10.74-0.99 10.74-1.42L10.74-1.42L10.74-1.52Q10.74-1.57 10.78-1.60Q10.81-1.64 10.86-1.64L10.86-1.64L11.97-1.64Q12.02-1.64 12.05-1.60Q12.09-1.57 12.09-1.52L12.09-1.52L12.09-1.51Q12.09-1.29 12.34-1.14Q12.58-0.98 12.95-0.98L12.95-0.98Q13.29-0.98 13.50-1.11Q13.71-1.25 13.71-1.45L13.71-1.45Q13.71-1.63 13.53-1.72Q13.35-1.81 12.94-1.91L12.94-1.91Q12.47-2.03 12.20-2.14L12.20-2.14Q11.56-2.36 11.18-2.68Q10.80-3 10.80-3.60L10.80-3.60Q10.80-4.34 11.38-4.78Q11.95-5.21 12.90-5.21L12.90-5.21Q13.54-5.21 14.02-5.00Q14.50-4.80 14.77-4.43Q15.03-4.06 15.03-3.59L15.03-3.59Q15.03-3.54 15.00-3.50Q14.96-3.47 14.91-3.47L14.91-3.47L13.84-3.47Q13.79-3.47 13.76-3.50Q13.72-3.54 13.72-3.59L13.72-3.59Q13.72-3.81 13.50-3.96Q13.27-4.11 12.90-4.11L12.90-4.11Q12.57-4.11 12.36-3.99Q12.15-3.87 12.15-3.66L12.15-3.66Q12.15-3.46 12.36-3.36Q12.56-3.26 13.04-3.15L13.04-3.15Q13.15-3.12 13.29-3.08Q13.43-3.05 13.59-3L13.59-3Q14.30-2.79 14.71-2.46Q15.12-2.13 15.12-1.50L15.12-1.50Q15.12-0.76 14.54-0.35Q13.95 0.07 12.96 0.07L12.96 0.07ZM18.87-4.13Q18.87-4.08 18.84-4.04Q18.80-4.01 18.75-4.01L18.75-4.01L17.79-4.01Q17.74-4.01 17.74-3.96L17.74-3.96L17.74-1.84Q17.74-1.51 17.88-1.35Q18.01-1.19 18.31-1.19L18.31-1.19L18.64-1.19Q18.69-1.19 18.73-1.16Q18.76-1.12 18.76-1.07L18.76-1.07L18.76-0.12Q18.76-0.01 18.64 0.01L18.64 0.01Q18.22 0.03 18.04 0.03L18.04 0.03Q17.21 0.03 16.80-0.24Q16.39-0.52 16.38-1.28L16.38-1.28L16.38-3.96Q16.38-4.01 16.33-4.01L16.33-4.01L15.76-4.01Q15.71-4.01 15.68-4.04Q15.64-4.08 15.64-4.13L15.64-4.13L15.64-5.02Q15.64-5.07 15.68-5.11Q15.71-5.14 15.76-5.14L15.76-5.14L16.33-5.14Q16.38-5.14 16.38-5.19L16.38-5.19L16.38-6.38Q16.38-6.43 16.41-6.46Q16.45-6.50 16.50-6.50L16.50-6.50L17.62-6.50Q17.67-6.50 17.71-6.46Q17.74-6.43 17.74-6.38L17.74-6.38L17.74-5.19Q17.74-5.14 17.79-5.14L17.79-5.14L18.75-5.14Q18.80-5.14 18.84-5.11Q18.87-5.07 18.87-5.02L18.87-5.02L18.87-4.13ZM24.20-3.10Q24.26-2.72 24.24-2.25L24.24-2.25Q24.23-2.13 24.11-2.13L24.11-2.13L21.02-2.13Q20.96-2.13 20.98-2.08L20.98-2.08Q21.01-1.88 21.09-1.68L21.09-1.68Q21.35-1.12 22.15-1.12L22.15-1.12Q22.79-1.13 23.16-1.64L23.16-1.64Q23.20-1.70 23.25-1.70L23.25-1.70Q23.28-1.70 23.32-1.66L23.32-1.66L24.04-0.95Q24.09-0.90 24.09-0.86L24.09-0.86Q24.09-0.84 24.05-0.78L24.05-0.78Q23.72-0.37 23.20-0.14Q22.68 0.08 22.06 0.08L22.06 0.08Q21.20 0.08 20.61-0.31Q20.01-0.70 19.75-1.40L19.75-1.40Q19.54-1.90 19.54-2.71L19.54-2.71Q19.54-3.26 19.69-3.68L19.69-3.68Q19.92-4.39 20.49-4.81Q21.07-5.23 21.86-5.23L21.86-5.23Q22.86-5.23 23.46-4.65Q24.07-4.07 24.20-3.10L24.20-3.10ZM21.87-4.01Q21.24-4.01 21.04-3.42L21.04-3.42Q21-3.29 20.97-3.10L20.97-3.10Q20.97-3.05 21.02-3.05L21.02-3.05L22.75-3.05Q22.81-3.05 22.79-3.10L22.79-3.10Q22.74-3.39 22.74-3.38L22.74-3.38Q22.65-3.68 22.42-3.85Q22.20-4.01 21.87-4.01L21.87-4.01ZM27.09 0.07Q26.42 0.07 25.92-0.12Q25.42-0.31 25.14-0.65Q24.87-0.99 24.87-1.42L24.87-1.42L24.87-1.52Q24.87-1.57 24.91-1.60Q24.94-1.64 24.99-1.64L24.99-1.64L26.10-1.64Q26.15-1.64 26.18-1.60Q26.22-1.57 26.22-1.52L26.22-1.52L26.22-1.51Q26.22-1.29 26.46-1.14Q26.71-0.98 27.08-0.98L27.08-0.98Q27.42-0.98 27.63-1.11Q27.84-1.25 27.84-1.45L27.84-1.45Q27.84-1.63 27.66-1.72Q27.48-1.81 27.07-1.91L27.07-1.91Q26.60-2.03 26.33-2.14L26.33-2.14Q25.69-2.36 25.31-2.68Q24.93-3 24.93-3.60L24.93-3.60Q24.93-4.34 25.50-4.78Q26.08-5.21 27.03-5.21L27.03-5.21Q27.67-5.21 28.15-5.00Q28.63-4.80 28.89-4.43Q29.16-4.06 29.16-3.59L29.16-3.59Q29.16-3.54 29.13-3.50Q29.09-3.47 29.04-3.47L29.04-3.47L27.97-3.47Q27.92-3.47 27.88-3.50Q27.85-3.54 27.85-3.59L27.85-3.59Q27.85-3.81 27.63-3.96Q27.40-4.11 27.03-4.11L27.03-4.11Q26.70-4.11 26.49-3.99Q26.28-3.87 26.28-3.66L26.28-3.66Q26.28-3.46 26.48-3.36Q26.69-3.26 27.17-3.15L27.17-3.15Q27.28-3.12 27.42-3.08Q27.56-3.05 27.72-3L27.72-3Q28.43-2.79 28.84-2.46Q29.25-2.13 29.25-1.50L29.25-1.50Q29.25-0.76 28.66-0.35Q28.08 0.07 27.09 0.07L27.09 0.07ZM33-4.13Q33-4.08 32.96-4.04Q32.93-4.01 32.88-4.01L32.88-4.01L31.92-4.01Q31.87-4.01 31.87-3.96L31.87-3.96L31.87-1.84Q31.87-1.51 32.00-1.35Q32.14-1.19 32.44-1.19L32.44-1.19L32.77-1.19Q32.82-1.19 32.85-1.16Q32.89-1.12 32.89-1.07L32.89-1.07L32.89-0.12Q32.89-0.01 32.77 0.01L32.77 0.01Q32.35 0.03 32.17 0.03L32.17 0.03Q31.34 0.03 30.93-0.24Q30.52-0.52 30.51-1.28L30.51-1.28L30.51-3.96Q30.51-4.01 30.46-4.01L30.46-4.01L29.89-4.01Q29.84-4.01 29.80-4.04Q29.77-4.08 29.77-4.13L29.77-4.13L29.77-5.02Q29.77-5.07 29.80-5.11Q29.84-5.14 29.89-5.14L29.89-5.14L30.46-5.14Q30.51-5.14 30.51-5.19L30.51-5.19L30.51-6.38Q30.51-6.43 30.54-6.46Q30.58-6.50 30.63-6.50L30.63-6.50L31.75-6.50Q31.80-6.50 31.83-6.46Q31.87-6.43 31.87-6.38L31.87-6.38L31.87-5.19Q31.87-5.14 31.92-5.14L31.92-5.14L32.88-5.14Q32.93-5.14 32.96-5.11Q33-5.07 33-5.02L33-5.02L33-4.13Z"/><path fill="#fff" transform="translate(35.00, 75.4)" d="M5.46-6.12Q5.46-6.07 5.42-6.04Q5.39-6 5.34-6L5.34-6L1.94-6Q1.89-6 1.89-5.95L1.89-5.95L1.89-4.08Q1.89-4.03 1.94-4.03L1.94-4.03L4.23-4.03Q4.28-4.03 4.32-4.00Q4.35-3.96 4.35-3.91L4.35-3.91L4.35-3.15Q4.35-3.10 4.32-3.06Q4.28-3.03 4.23-3.03L4.23-3.03L1.94-3.03Q1.89-3.03 1.89-2.98L1.89-2.98L1.89-0.12Q1.89-0.07 1.85-0.04Q1.82 0 1.77 0L1.77 0L0.85 0Q0.80 0 0.77-0.04Q0.73-0.07 0.73-0.12L0.73-0.12L0.73-6.88Q0.73-6.93 0.77-6.96Q0.80-7 0.85-7L0.85-7L5.34-7Q5.39-7 5.42-6.96Q5.46-6.93 5.46-6.88L5.46-6.88L5.46-6.12ZM10.02 0Q9.92 0 9.89-0.10L9.89-0.10L9.56-1.17Q9.54-1.21 9.51-1.21L9.51-1.21L6.87-1.21Q6.84-1.21 6.82-1.17L6.82-1.17L6.49-0.10Q6.46 0 6.36 0L6.36 0L5.36 0Q5.30 0 5.27-0.04Q5.24-0.07 5.26-0.14L5.26-0.14L7.43-6.90Q7.46-7 7.56-7L7.56-7L8.81-7Q8.91-7 8.94-6.90L8.94-6.90L11.12-0.14Q11.13-0.12 11.13-0.09L11.13-0.09Q11.13 0 11.02 0L11.02 0L10.02 0ZM7.13-2.18Q7.12-2.12 7.17-2.12L7.17-2.12L9.20-2.12Q9.26-2.12 9.24-2.18L9.24-2.18L8.21-5.53Q8.20-5.57 8.18-5.57Q8.16-5.57 8.15-5.53L8.15-5.53L7.13-2.18ZM12.28 0Q12.23 0 12.20-0.04Q12.16-0.07 12.16-0.12L12.16-0.12L12.16-6.88Q12.16-6.93 12.20-6.96Q12.23-7 12.28-7L12.28-7L13.20-7Q13.25-7 13.29-6.96Q13.32-6.93 13.32-6.88L13.32-6.88L13.32-1.05Q13.32-1 13.37-1L13.37-1L16.72-1Q16.77-1 16.80-0.96Q16.84-0.93 16.84-0.88L16.84-0.88L16.84-0.12Q16.84-0.07 16.80-0.04Q16.77 0 16.72 0L16.72 0L12.28 0ZM17.99 0Q17.94 0 17.91-0.04Q17.87-0.07 17.87-0.12L17.87-0.12L17.87-6.88Q17.87-6.93 17.91-6.96Q17.94-7 17.99-7L17.99-7L18.91-7Q18.96-7 19.00-6.96Q19.03-6.93 19.03-6.88L19.03-6.88L19.03-1.05Q19.03-1 19.08-1L19.08-1L22.43-1Q22.48-1 22.52-0.96Q22.55-0.93 22.55-0.88L22.55-0.88L22.55-0.12Q22.55-0.07 22.52-0.04Q22.48 0 22.43 0L22.43 0L17.99 0Z"/><path fill="#252530" transform="translate(32.04, 95.3)" d="M3.38-1.84Q3.35-1.81 3.36-1.78Q3.38-1.75 3.42-1.75L3.42-1.75L7.35-1.75Q7.42-1.75 7.47-1.70Q7.53-1.65 7.53-1.58L7.53-1.58L7.53-0.17Q7.53-0.10 7.47-0.05Q7.42 0 7.35 0L7.35 0L0.83 0Q0.75 0 0.70-0.05Q0.65-0.10 0.65-0.17L0.65-0.17L0.65-1.51Q0.65-1.64 0.74-1.73L0.74-1.73Q1.45-2.42 2.19-3.24Q2.93-4.06 3.12-4.26L3.12-4.26Q3.52-4.74 3.94-5.18L3.94-5.18Q5.26-6.64 5.26-7.35L5.26-7.35Q5.26-7.86 4.90-8.19Q4.54-8.51 3.96-8.51L3.96-8.51Q3.38-8.51 3.02-8.19Q2.65-7.86 2.65-7.32L2.65-7.32L2.65-6.96Q2.65-6.89 2.60-6.84Q2.55-6.79 2.48-6.79L2.48-6.79L0.77-6.79Q0.70-6.79 0.65-6.84Q0.59-6.89 0.59-6.96L0.59-6.96L0.59-7.64Q0.64-8.42 1.09-9.03Q1.54-9.63 2.28-9.95Q3.03-10.27 3.96-10.27L3.96-10.27Q4.99-10.27 5.75-9.88Q6.51-9.50 6.92-8.85Q7.34-8.19 7.34-7.40L7.34-7.40Q7.34-6.79 7.03-6.15Q6.73-5.51 6.12-4.77L6.12-4.77Q5.67-4.21 5.15-3.65Q4.63-3.10 3.60-2.06L3.60-2.06L3.38-1.84ZM12.24 0.16Q10.64 0.16 9.72-0.73Q8.79-1.62 8.79-3.16L8.79-3.16L8.79-6.99Q8.79-8.50 9.72-9.38Q10.64-10.27 12.24-10.27L12.24-10.27Q13.83-10.27 14.77-9.38Q15.70-8.50 15.70-6.99L15.70-6.99L15.70-3.16Q15.70-1.62 14.77-0.73Q13.83 0.16 12.24 0.16L12.24 0.16ZM12.24-1.59Q12.89-1.59 13.27-1.99Q13.66-2.39 13.66-3.06L13.66-3.06L13.66-7.05Q13.66-7.71 13.27-8.11Q12.89-8.51 12.24-8.51L12.24-8.51Q11.60-8.51 11.22-8.11Q10.83-7.71 10.83-7.05L10.83-7.05L10.83-3.06Q10.83-2.39 11.22-1.99Q11.60-1.59 12.24-1.59L12.24-1.59ZM19.76-1.84Q19.73-1.81 19.75-1.78Q19.76-1.75 19.81-1.75L19.81-1.75L23.74-1.75Q23.81-1.75 23.86-1.70Q23.91-1.65 23.91-1.58L23.91-1.58L23.91-0.17Q23.91-0.10 23.86-0.05Q23.81 0 23.74 0L23.74 0L17.21 0Q17.14 0 17.09-0.05Q17.04-0.10 17.04-0.17L17.04-0.17L17.04-1.51Q17.04-1.64 17.12-1.73L17.12-1.73Q17.84-2.42 18.57-3.24Q19.31-4.06 19.50-4.26L19.50-4.26Q19.91-4.74 20.33-5.18L20.33-5.18Q21.65-6.64 21.65-7.35L21.65-7.35Q21.65-7.86 21.29-8.19Q20.92-8.51 20.34-8.51L20.34-8.51Q19.76-8.51 19.40-8.19Q19.04-7.86 19.04-7.32L19.04-7.32L19.04-6.96Q19.04-6.89 18.99-6.84Q18.94-6.79 18.86-6.79L18.86-6.79L17.15-6.79Q17.08-6.79 17.03-6.84Q16.98-6.89 16.98-6.96L16.98-6.96L16.98-7.64Q17.02-8.42 17.47-9.03Q17.92-9.63 18.67-9.95Q19.42-10.27 20.34-10.27L20.34-10.27Q21.37-10.27 22.13-9.88Q22.90-9.50 23.31-8.85Q23.72-8.19 23.72-7.40L23.72-7.40Q23.72-6.79 23.42-6.15Q23.11-5.51 22.50-4.77L22.50-4.77Q22.05-4.21 21.53-3.65Q21.01-3.10 19.98-2.06L19.98-2.06L19.76-1.84ZM26.59-10.11Q26.67-10.15 26.81-10.15L26.81-10.15L28.57-10.15Q28.64-10.15 28.69-10.10Q28.74-10.05 28.74-9.98L28.74-9.98L28.74-0.17Q28.74-0.10 28.69-0.05Q28.64 0 28.57 0L28.57 0L26.87 0Q26.80 0 26.75-0.05Q26.69-0.10 26.69-0.17L26.69-0.17L26.69-8.12Q26.69-8.15 26.67-8.18Q26.64-8.21 26.61-8.19L26.61-8.19L25.17-7.80L25.11-7.79Q24.98-7.79 24.98-7.95L24.98-7.95L24.94-9.19Q24.94-9.34 25.07-9.40L25.07-9.40L26.59-10.11Z"/></g>
</svg>