<svg height="289" viewBox="0 0 1114 289" width="1114" xmlns="http://www.w3.org/2000/svg"><g fill="none" fill-rule="evenodd"><g fill-rule="nonzero"><path d="m148.08.015c-81.775 0-148.08 66.095-148.08 147.635 0 65.2 42.425 120.55 101.28 140.05 7.41 1.35 10.1-3.21 10.1-7.125 0-3.5-.125-12.785-.2-25.1-41.19 8.92-49.88-19.79-49.88-19.79-6.735-17.055-16.445-21.585-16.445-21.585-13.445-9.16 1.02-8.98 1.02-8.98 14.865 1.05 22.68 15.215 22.68 15.215 13.21 22.555 34.655 16.04 43.1 12.27 1.345-9.545 5.165-16.05 9.4-19.74-32.88-3.725-67.455-16.395-67.455-72.96 0-16.115 5.775-29.29 15.245-39.61-1.525-3.735-6.61-18.74 1.445-39.07 0 0 12.435-3.97 40.725 15.15 11.81-3.28 24.48-4.91 37.075-4.975 12.575.065 25.25 1.695 37.075 4.975 28.275-19.105 40.68-15.15 40.68-15.15 8.08 20.325 3 35.35 1.475 39.07 9.49 10.32 15.225 23.5 15.225 39.61 0 56.715-34.625 69.19-67.62 72.845 5.32 4.56 10.05 13.565 10.05 27.34 0 19.73-.18 35.65-.18 40.49 0 3.95 2.665 8.545 10.18 7.105 58.79-19.565 101.19-74.855 101.19-140.05 0-81.545-66.31-147.635-148.1-147.635" fill="#000" transform="translate(0 1)"/><g transform="translate(800)"><path d="m313.3305 164.950691-17.5875-53.911636-34.79175-106.94050955c-1.785-5.46472727-9.56025-5.46472727-11.40825 0l-34.79175 106.87219955h-115.605l-34.79175-106.87219955c-1.785-5.46472727-9.56025-5.46472727-11.40825 0l-34.734 106.87219955-17.5875 53.974691c-1.59075 4.897237.13125 10.298909 4.3365 13.3518l151.99275 110.177309 151.99275-110.177309c4.20525-3.052891 5.99025-8.454563 4.39425-13.3518" fill="#fc6d26"/><path d="m156.98025 288.406236 57.8025-177.430236h-115.605z" fill="#e24329"/><path d="m156.93825 288.406236-57.8025-177.430236h-80.93925z" fill="#fc6d26"/><path d="m18.1755 111.028545-17.5875 53.911637c-1.59075 4.891982.13125 10.298909 4.3365 13.3518l151.99275 110.177309-138.7365-177.440746" fill="#fca326"/><path d="m18.1965 111.028545h81.00225l-34.86-106.87219955c-1.785-5.46998181-9.56025-5.46998181-11.40825 0z" fill="#e24329"/><path d="m156.98025 288.406236 57.8025-177.430236h81.00225z" fill="#fc6d26"/><path d="m295.7325 111.028545 17.5875 53.911637c1.59075 4.891982-.126 10.298909-4.3365 13.3518l-151.99275 110.114254 138.7365-177.377691" fill="#fca326"/><path d="m295.785 111.028545h-80.997l34.79175-106.87219955c1.785-5.46998181 9.56025-5.46998181 11.40825 0z" fill="#e24329"/></g><path d="m554.728154 114.35688h58.512392c3.313709 0 6 2.686292 6 6 0 .88961-.197822 1.768087-.579142 2.571828l-65.728154 138.540725c-1.420381 2.993857-4.998829 4.269411-7.992686 2.849029-2.093679-.993308-3.428171-3.103498-3.428171-5.420858v-83.355474h-58.512393c-3.313708 0-6-2.686292-6-6 0-.88961.197822-1.768088.579142-2.571829l65.728154-138.5407243c1.420382-2.993857 4.998829-4.2694109 7.992686-2.8490293 2.093679.9933083 3.428172 3.1034987 3.428172 5.4208577z" fill="#ffc106"/></g><path d="m715.169231 125.772028 22.5 38.181818c1.682344 2.854887.73181 6.53304-2.123077 8.215385-.923005.543913-1.974809.830769-3.046154.830769h-45c-3.313708 0-6-2.686292-6-6 0-1.071345.286856-2.123149.830769-3.046154l22.5-38.181818c1.682345-2.854887 5.360498-3.805421 8.215385-2.123077.876186.516324 1.606753 1.24689 2.123077 2.123077z" fill="#000" opacity=".298661" transform="matrix(0 1 -1 0 855 -565)"/><path d="m392.169231 125.772028 22.5 38.181818c1.682344 2.854887.73181 6.53304-2.123077 8.215385-.923005.543913-1.974809.830769-3.046154.830769h-45c-3.313708 0-6-2.686292-6-6 0-1.071345.286856-2.123149.830769-3.046154l22.5-38.181818c1.682345-2.854887 5.360498-3.805421 8.215385-2.123077.876186.516324 1.606753 1.24689 2.123077 2.123077z" fill="#000" opacity=".298661" transform="matrix(0 1 -1 0 532 -242)"/></g></svg>