<svg xmlns="http://www.w3.org/2000/svg" viewBox="0 0 865 635.2" enable-background="new 0 0 865 635.2"><g fill="#8c929d"><path d="m439.2 372.8h-21.8l.1 162.5h88.3v-20.1h-66.5l-.1-142.4"/><path d="m589.8 506.8c-7.1 7.3-16.8 11.5-27 11.4-16.6 0-23.3-8.2-23.3-18.9 0-16.1 11.2-23.8 35-23.8 5.2 0 10.3.4 15.4 1.2v30.1h-.1m-22.6-98.5c-16.9-.1-33.4 5.9-46.4 16.7l7.7 13.4c8.9-5.2 19.8-10.4 35.5-10.4 17.9 0 25.8 9.2 25.8 24.6v7.9c-5-.8-10-1.2-15.1-1.2-38.2 0-57.6 13.4-57.6 41.4 0 25.1 15.4 37.7 38.7 37.7 15.7 0 30.8-7.2 36-18.9l4 15.9h15.4v-83.2c-.1-26.3-11.5-43.9-44-43.9"/><path d="m681.6 519c-8.2 0-15.4-1-20.8-3.5v-75.1c7.4-6.2 16.6-10.7 28.3-10.7 21.1 0 29.2 14.9 29.2 39 0 34.2-13.1 50.3-36.7 50.3m9.2-110.6c-11.4-.1-22.4 4.8-30 13.3v-21l-.1-27.8h-21.3l.1 158.5c10.7 4.5 25.3 6.9 41.2 6.9 40.7 0 60.3-26 60.3-70.9-.1-35.5-18.2-59-50.2-59"/><path d="m201.9 390.5c19.3 0 31.8 6.4 39.9 12.9l9.4-16.3c-12.7-11.2-29.9-17.2-48.3-17.2-46.4 0-78.9 28.3-78.9 85.4 0 59.8 35.1 83.1 75.2 83.1 16.6 0 33-3.2 48.4-9.4l-.5-63.9v-20.1h-59.5v20.1h38l.5 48.5c-5 2.5-13.6 4.5-25.3 4.5-32.2 0-53.8-20.3-53.8-63-.2-43.5 22.1-64.6 54.9-64.6"/><path d="m355.4 372.8h-21.3l.1 27.3v94.3c0 26.3 11.4 43.9 43.9 43.9 4.4 0 8.8-.4 13.1-1.2v-19.1c-3.3.5-6.6.7-9.9.7-17.9 0-25.8-9.2-25.8-24.6v-65h35.7v-17.8h-35.7l-.1-38.5"/><path d="m280 535.3h21.3v-124h-21.3v124"/><path d="m280 394.2h21.3v-21.3h-21.3v21.3"/></g><path d="m600.6 177.8l-18.9-58.1-37.4-115.3c-1.1-3.4-4.8-5.2-8.2-4.1-1.9.6-3.4 2.2-4.1 4.1l-37.4 115.2h-124.3l-37.4-115.2c-1.1-3.4-4.8-5.2-8.2-4.1-1.9.6-3.4 2.2-4.1 4.1l-37.4 115.2-18.9 58.2c-1.7 5.3.1 11.1 4.6 14.4l163.5 118.8 163.5-118.8c4.5-3.3 6.4-9.1 4.7-14.4" fill="#fc6d26"/><path d="m432.5 310.9l62.2-191.3h-124.4l62.2 191.3" fill="#e24329"/><path d="m432.4 310.9l-62.2-191.3h-87l149.2 191.3" fill="#fc6d26"/><path d="m283.2 119.7l-18.9 58.1c-1.7 5.3.2 11.1 4.7 14.4l163.4 118.8-149.2-191.3" fill="#fca326"/><path d="m283.2 119.7h87.1l-37.4-115.2c-1.1-3.4-4.8-5.2-8.2-4.1-1.9.6-3.4 2.2-4.1 4.1l-37.4 115.2" fill="#e24329"/><path d="m432.5 310.9l62.2-191.3h87.1l-149.3 191.3" fill="#fc6d26"/><path d="m581.7 119.7l18.9 58.1c1.7 5.3-.1 11.1-4.6 14.4l-163.5 118.7 149.2-191.2" fill="#fca326"/><path d="m581.7 119.7h-87.1l37.5-115.2c1.1-3.4 4.8-5.2 8.2-4.1 1.9.6 3.4 2.2 4.1 4.1l37.3 115.2" fill="#e24329"/><g enable-background="new" fill="#8c929d"><path d="m243.5 621.2l10.7-31.5h4.5l10.7 31.5h-4.4l-3-9.6h-11.5l-3 9.6h-4m9.6-17.6l-1.5 4.8h9.5l-1.5-4.8c-.6-1.8-1.1-3.5-1.6-5.3-.5-1.7-1-3.5-1.5-5.4h-.2c-.5 1.8-1 3.6-1.5 5.4-.6 1.8-1.1 3.5-1.7 5.3"/><path d="m281.3 631.9c-1.4 0-2.8-.1-3.9-.4-1.2-.3-2.2-.7-3-1.2-.8-.5-1.5-1.2-2-2-.5-.8-.7-1.7-.7-2.7 0-1 .3-1.9.9-2.8.6-.9 1.4-1.7 2.5-2.4v-.2c-.6-.4-1.1-.8-1.5-1.5-.4-.6-.6-1.4-.6-2.3 0-1 .3-1.9.8-2.6.5-.7 1.1-1.3 1.7-1.7v-.2c-.8-.6-1.5-1.5-2.1-2.6s-.9-2.3-.9-3.7c0-1.3.2-2.4.7-3.5.5-1 1.1-1.9 1.9-2.6.8-.7 1.7-1.3 2.8-1.7 1.1-.4 2.2-.6 3.4-.6.6 0 1.2.1 1.8.2.6.1 1.1.2 1.5.4h8.1v3h-4.8c.5.5 1 1.2 1.4 2.1.4.8.6 1.7.6 2.7 0 1.2-.2 2.4-.7 3.4-.4 1-1.1 1.9-1.8 2.5-.8.7-1.7 1.2-2.7 1.6-1 .4-2.2.6-3.3.6-.6 0-1.2-.1-1.8-.2-.6-.1-1.2-.3-1.7-.6-.4.4-.8.7-1.1 1.2-.3.4-.4 1-.4 1.6 0 .7.3 1.3.9 1.8.6.5 1.7.7 3.3.7h4.5c2.7 0 4.8.4 6.1 1.3 1.4.9 2 2.3 2 4.2 0 1.1-.3 2.1-.8 3.1-.5 1-1.3 1.8-2.4 2.6-1 .7-2.3 1.3-3.7 1.8-1.6.5-3.2.7-5 .7m.5-2.7c1.1 0 2.1-.1 3-.4.9-.3 1.7-.6 2.3-1.1.6-.4 1.1-.9 1.5-1.5.4-.6.5-1.2.5-1.8 0-1.1-.4-1.8-1.2-2.3-.8-.4-2-.6-3.5-.6h-4c-.4 0-.9 0-1.5-.1-.5 0-1-.2-1.6-.3-.8.6-1.4 1.2-1.8 1.9-.4.7-.6 1.3-.6 2 0 1.2.6 2.2 1.8 3 1.4.8 3 1.2 5.1 1.2m-.5-18c.7 0 1.3-.1 1.9-.4.6-.3 1.1-.6 1.6-1.1.5-.5.8-1.1 1.1-1.8.3-.7.4-1.5.4-2.3 0-1.7-.5-3.1-1.4-4-1-.9-2.1-1.4-3.5-1.4-1.4 0-2.5.5-3.5 1.4-1 .9-1.4 2.3-1.4 4 0 .9.1 1.6.4 2.3.3.7.6 1.3 1.1 1.8.5.5 1 .8 1.6 1.1.4.2 1 .4 1.7.4"/><path d="m299.6 593.1c-.8 0-1.4-.2-1.9-.7-.5-.5-.8-1.1-.8-1.8 0-.8.3-1.4.8-1.8.5-.5 1.2-.7 1.9-.7s1.4.2 1.9.7.8 1.1.8 1.8c0 .7-.3 1.3-.8 1.8-.5.4-1.1.7-1.9.7m-2 28.1v-23.3h3.9v23.3h-3.9"/><path d="m313.6 621.8c-1.5 0-2.6-.4-3.2-1.3-.6-.9-1-2.2-1-3.9v-29.6h3.9v29.8c0 .6.1 1.1.3 1.3.2.3.5.4.8.4.1 0 .2 0 .4 0 .1 0 .3 0 .5-.1l.5 3c-.3.1-.6.2-.9.3-.3 0-.8.1-1.3.1"/><path d="m331.1 621.8c-1.6 0-3-.3-4.4-.8-1.4-.6-2.5-1.4-3.6-2.4-1-1-1.8-2.3-2.4-3.8-.6-1.5-.9-3.2-.9-5.1s.3-3.6.9-5.2c.6-1.5 1.4-2.8 2.4-3.9 1-1.1 2.1-1.9 3.3-2.4 1.2-.6 2.5-.8 3.9-.8 1.5 0 2.8.3 4 .8 1.2.5 2.1 1.2 2.9 2.2.8 1 1.4 2.1 1.8 3.5.4 1.3.6 2.8.6 4.5 0 .4 0 .8 0 1.2 0 .4-.1.7-.1 1h-15.7c.2 2.5.9 4.5 2.3 5.9 1.4 1.5 3.2 2.2 5.4 2.2 1.1 0 2.2-.2 3.1-.5s1.8-.8 2.7-1.3l1.4 2.6c-1 .6-2.2 1.2-3.4 1.7-1.2.3-2.6.6-4.2.6m-7.4-14.1h12.5c0-2.4-.5-4.2-1.5-5.4-1-1.2-2.4-1.8-4.2-1.8-.8 0-1.6.2-2.4.5-.8.3-1.4.8-2 1.4-.6.6-1.1 1.4-1.5 2.3-.5.8-.7 1.8-.9 3"/><path d="m355.4 621.2v-31.5h7.9c4.9 0 8.6 1.3 11.1 4 2.5 2.7 3.8 6.5 3.8 11.6 0 2.5-.3 4.7-1 6.7-.6 2-1.6 3.6-2.8 5-1.2 1.4-2.8 2.4-4.6 3.1-1.8.7-3.9 1.1-6.3 1.1h-8.1m4-3.3h3.6c3.7 0 6.4-1.1 8.3-3.3 1.8-2.2 2.8-5.3 2.8-9.3s-.9-7.1-2.8-9.2c-1.8-2.1-4.6-3.2-8.3-3.2h-3.6v25"/></g><g enable-background="new" fill="#8c929d"><path d="m394 621.8c-1.6 0-3-.3-4.4-.8-1.4-.6-2.5-1.4-3.6-2.4-1-1-1.8-2.3-2.4-3.8-.6-1.5-.9-3.2-.9-5.1s.3-3.6.9-5.2c.6-1.5 1.4-2.8 2.4-3.9 1-1.1 2.1-1.9 3.3-2.4 1.2-.6 2.5-.8 3.9-.8 1.5 0 2.8.3 4 .8 1.2.5 2.1 1.2 2.9 2.2.8 1 1.4 2.1 1.8 3.5.4 1.3.6 2.8.6 4.5 0 .4 0 .8 0 1.2 0 .4-.1.7-.1 1h-15.7c.2 2.5.9 4.5 2.3 5.9 1.4 1.5 3.2 2.2 5.4 2.2 1.1 0 2.2-.2 3.1-.5s1.8-.8 2.7-1.3l1.4 2.6c-1 .6-2.2 1.2-3.4 1.7-1.2.3-2.6.6-4.2.6m-7.3-14.1h12.5c0-2.4-.5-4.2-1.5-5.4-1-1.2-2.4-1.8-4.2-1.8-.8 0-1.6.2-2.4.5-.8.3-1.4.8-2 1.4-.6.6-1.1 1.4-1.5 2.3-.5.8-.8 1.8-.9 3"/><path d="m413.6 621.2l-8.4-23.3h4.1l4.4 13.2c.4 1.2.7 2.3 1.1 3.5.4 1.2.7 2.3 1.1 3.4h.2c.4-1.1.7-2.3 1.1-3.4.4-1.2.7-2.3 1.1-3.5l4.4-13.2h3.9l-8.3 23.3h-4.7"/><path d="m440.3 621.8c-1.6 0-3-.3-4.4-.8s-2.5-1.4-3.6-2.4c-1-1-1.8-2.3-2.4-3.8-.6-1.5-.9-3.2-.9-5.1s.3-3.6.9-5.2c.6-1.5 1.4-2.8 2.4-3.9 1-1.1 2.1-1.9 3.3-2.4 1.2-.6 2.5-.8 3.9-.8 1.5 0 2.8.3 4 .8s2.1 1.2 2.9 2.2c.8 1 1.4 2.1 1.8 3.5.4 1.3.6 2.8.6 4.5 0 .4 0 .8 0 1.2 0 .4-.1.7-.1 1h-15.7c.2 2.5.9 4.5 2.3 5.9 1.4 1.5 3.2 2.2 5.4 2.2 1.1 0 2.2-.2 3.1-.5.9-.3 1.8-.8 2.7-1.3l1.4 2.6c-1 .6-2.2 1.2-3.4 1.7-1.2.3-2.6.6-4.2.6m-7.4-14.1h12.5c0-2.4-.5-4.2-1.5-5.4-1-1.2-2.4-1.8-4.2-1.8-.8 0-1.6.2-2.4.5-.8.3-1.4.8-2 1.4-.6.6-1.1 1.4-1.5 2.3-.5.8-.7 1.8-.9 3"/><path d="m458.8 621.8c-1.5 0-2.6-.4-3.2-1.3-.6-.9-1-2.2-1-3.9v-29.6h3.9v29.8c0 .6.1 1.1.3 1.3.2.3.5.4.8.4.1 0 .2 0 .4 0s.3 0 .5-.1l.5 3c-.3.1-.6.2-.9.3-.3 0-.7.1-1.3.1"/><path d="m475.9 621.8c-1.4 0-2.8-.3-4.1-.8s-2.4-1.3-3.4-2.4c-1-1-1.8-2.3-2.4-3.8-.6-1.5-.9-3.2-.9-5.2 0-2 .3-3.7.9-5.2.6-1.5 1.4-2.8 2.4-3.9 1-1.1 2.1-1.9 3.4-2.4s2.7-.8 4.1-.8c1.4 0 2.8.3 4.1.8s2.4 1.3 3.4 2.4c1 1.1 1.8 2.3 2.4 3.9.6 1.5.9 3.3.9 5.2 0 1.9-.3 3.6-.9 5.2-.6 1.5-1.4 2.8-2.4 3.8-1 1-2.1 1.8-3.4 2.4s-2.6.8-4.1.8m0-3.3c1 0 1.9-.2 2.7-.6s1.5-1 2.1-1.8c.6-.8 1-1.7 1.4-2.8.3-1.1.5-2.3.5-3.6s-.2-2.6-.5-3.7c-.3-1.1-.8-2.1-1.4-2.9s-1.3-1.4-2.1-1.8c-.8-.4-1.7-.6-2.7-.6s-1.9.2-2.7.6c-.8.4-1.5 1-2.1 1.8-.6.8-1 1.8-1.4 2.9-.3 1.1-.5 2.3-.5 3.7s.2 2.6.5 3.6c.3 1.1.8 2 1.4 2.8.6.8 1.3 1.4 2.1 1.8.8.4 1.8.6 2.7.6"/><path d="m492.9 631v-33.2h3.3l.3 2.7h.1c1.1-.9 2.2-1.7 3.5-2.3 1.3-.6 2.6-1 4-1 1.5 0 2.8.3 4 .8 1.2.6 2.1 1.4 2.9 2.4.8 1 1.4 2.3 1.8 3.7.4 1.5.6 3.1.6 4.9 0 2-.3 3.8-.8 5.3-.5 1.6-1.3 2.9-2.2 4-.9 1.1-2 1.9-3.2 2.5-1.2.6-2.5.8-3.8.8-1.1 0-2.2-.2-3.2-.7-1.1-.5-2.2-1.1-3.2-2l.1 4.1v7.9h-4.2zm9.6-12.5c1 0 1.8-.2 2.7-.6.8-.4 1.5-1 2.1-1.8.6-.8 1.1-1.8 1.4-2.9.3-1.2.5-2.4.5-3.9 0-1.3-.1-2.4-.3-3.5s-.6-2-1.1-2.7-1.1-1.3-1.9-1.8-1.7-.6-2.8-.6c-1 0-2 .3-3 .8-1 .5-2.1 1.3-3.2 2.4v12.1c1.1.9 2.1 1.5 3.1 1.9.9.4 1.8.6 2.5.6"/><path d="m519.5 621.2v-23.3h3.3l.3 3.4h.1c1-1.1 2.1-2.1 3.3-2.8 1.2-.8 2.5-1.1 3.9-1.1 1.8 0 3.2.4 4.2 1.2 1 .8 1.8 1.9 2.2 3.3 1.2-1.3 2.4-2.4 3.7-3.2 1.2-.8 2.6-1.2 4-1.2 2.4 0 4.2.8 5.4 2.3 1.2 1.5 1.8 3.8 1.8 6.8v14.8h-3.9v-14.3c0-2.2-.4-3.8-1.1-4.8-.7-1-1.8-1.5-3.3-1.5-1.8 0-3.7 1.2-5.9 3.6v16.9h-3.9v-14.3c0-2.2-.4-3.8-1.1-4.8-.7-1-1.8-1.5-3.3-1.5-1.8 0-3.7 1.2-5.9 3.6v16.9h-3.8"/><path d="m568.8 621.8c-1.6 0-3-.3-4.4-.8s-2.5-1.4-3.6-2.4c-1-1-1.8-2.3-2.4-3.8-.6-1.5-.9-3.2-.9-5.1s.3-3.6.9-5.2c.6-1.5 1.4-2.8 2.4-3.9 1-1.1 2.1-1.9 3.3-2.4 1.2-.6 2.5-.8 3.9-.8 1.5 0 2.8.3 4 .8s2.1 1.2 2.9 2.2c.8 1 1.4 2.1 1.8 3.5.4 1.3.6 2.8.6 4.5 0 .4 0 .8 0 1.2 0 .4-.1.7-.1 1h-15.7c.2 2.5.9 4.5 2.3 5.9 1.4 1.5 3.2 2.2 5.4 2.2 1.1 0 2.2-.2 3.1-.5.9-.3 1.8-.8 2.7-1.3l1.4 2.6c-1 .6-2.2 1.2-3.4 1.7-1.2.3-2.6.6-4.2.6m-7.4-14.1h12.5c0-2.4-.5-4.2-1.5-5.4-1-1.2-2.4-1.8-4.2-1.8-.8 0-1.6.2-2.4.5-.8.3-1.4.8-2 1.4-.6.6-1.1 1.4-1.5 2.3-.5.8-.7 1.8-.9 3"/><path d="m583.1 621.2v-23.3h3.3l.3 3.4h.1c1.1-1.1 2.3-2.1 3.5-2.8 1.2-.8 2.7-1.1 4.3-1.1 2.5 0 4.3.8 5.4 2.3 1.1 1.5 1.7 3.8 1.7 6.8v14.8h-3.9v-14.3c0-2.2-.4-3.8-1.1-4.8-.7-1-1.8-1.5-3.4-1.5-1.2 0-2.3.3-3.2.9-.9.6-2 1.5-3.2 2.7v16.9h-3.8"/><path d="m616.7 621.8c-1.2 0-2.3-.2-3.1-.6-.8-.4-1.5-.9-2.1-1.6-.5-.7-.9-1.5-1.1-2.4s-.3-2-.3-3.2v-12.9h-3.5v-3l3.6-.2.5-6.5h3.3v6.5h6.3v3.2h-6.3v13c0 1.4.3 2.6.8 3.3.5.8 1.5 1.2 2.8 1.2.4 0 .9-.1 1.3-.2.5-.1.9-.3 1.3-.4l.8 3c-.6.2-1.3.4-2.1.6s-1.4.2-2.2.2"/></g></svg>