<svg height="279" viewBox="0 0 320 279" width="320" xmlns="http://www.w3.org/2000/svg"><g fill="none"><path d="m28.5 86.42 28.1802439-86.13h-56.33963414z" fill="#da3b21" transform="translate(131 58)"/><path d="m68 86.42-28.1297959-86.13h-39.39142859z" fill="#fb6d26" transform="translate(92 58)"/><path d="m9.48972973.32452381-8.56018018 26.16904759c-.78609269 2.3796802.05352261 4.9927011 2.08108108 6.4766667l73.98936937 53.4842857z" fill="#fba021" transform="translate(83 58)"/><path d="m.47586207 54.6310127h39.17931033l-16.862069-52.30569624c-.3913009-1.2033537-1.5040018-2.01686401-2.7586206-2.01686401-1.2546189 0-2.3673198.81351031-2.7586207 2.01686401z" fill="#da3b21" transform="translate(92 3)"/><path d="m0 86.42 28.1297959-86.13h39.4191837z" fill="#fb6d26" transform="translate(160 58)"/><path d="m67.5172072.32452381 8.5532433 26.16904759c.7860926 2.3796802-.0535227 4.9927011-2.0810811 6.4766667l-73.9893694 53.4497619 67.4963964-86.09547619z" fill="#fba021" transform="translate(160 58)"/><path d="m39.5586207 54.6310127h-39.17931035l16.86206895-52.30569624c.391301-1.2033537 1.5040019-2.01686401 2.7586207-2.01686401s2.3673197.81351031 2.7586207 2.01686401l16.8344827 52.30569624z" fill="#da3b21" transform="translate(188 3)"/><path d="m240.539379 83.1908704-8.47091-26.0423755c-.03601-.2399842-.101636-.4745683-.195376-.6983742l-16.955775-52.25934449c-.814238-2.51806837-3.168165-4.21504545-5.812412-4.1905137h-.034889c-2.632436-.01738424-4.970472 1.68036586-5.770545 4.1905137l-16.299873 50.24104289h-51.969801l-16.334762-50.20612418c-.800073-2.51014784-3.138109-4.20789793-5.770546-4.19024545h-.034888c-2.646099-.025619-5.002477 1.67108815-5.81939 4.19024545l-16.9557753 52.32918188c0 .0488862 0 .0907887-.0488438.1396749l-8.6174415 26.4963187c-1.2181916 3.7223522.1042764 7.8060884 3.2725345 10.1054753l74.3821261 54.0960683c.541475.394066 1.193556.607586 1.863042.607586.484921 0 .962806-.116185 1.395537-.33522h.055822l.062799-.041902.118621-.062854c.062799-.041902.132576-.076821.195375-.125707h.048844l74.382126-54.0611502c3.217248-2.29865 4.561374-6.4279911 3.314401-10.1822964zm-110.135787-22.3479757 21.979709 67.7423013-52.7582791-67.7423013zm39.207615 67.7423013 21.979709-67.7423013h30.806481l-41.531184 53.2859543zm39.528587-121.68472774 15.441618 47.56626954h-30.911146zm-24.219546 53.94242644-23.926483 73.6295963-23.898572-73.6295963zm-72.037624-53.94242644 15.462551 47.56626954h-30.8483472zm-24.4218988 81.22790804c-.9417561-.6831175-1.333945-1.897417-.9698982-3.0030093l6.7613771-20.7906011 50.3579559 64.6066011zm145.0591018 0-56.142457 40.8060067 4.186612-5.384465 46.171344-59.2151521 6.754399 20.7766337c.377427 1.1006688.002555 2.3193562-.928032 3.0169767z" fill="#14125b"/><g fill="#fff"><path d="m167.413098 178c-5.469455 0-10.491283 1.939628-13.344912 6.844515-3.05646-4.883956-7.784532-6.844515-13.435836-6.844515-9.826835 0-17.63235 7.018942-17.63235 18.579964v25.117488c0 2.809081 2.282794 5.086291 5.098764 5.086291 2.815969 0 5.098763-2.27721 5.098763-5.086291v-25.20819c0-6.097968 3.497095-9.070204 7.875457-9.070204s7.875456 2.958282 7.875456 9.070204v25.236098c-.022482 1.364057.504541 2.680094 1.462988 3.653246s2.26819 1.522063 3.635776 1.523747c2.837055-.034473 5.114352-2.34671 5.098763-5.176993v-25.236098c0-6.097968 3.427153-9.070204 7.777538-9.070204 4.350386 0 7.882451 2.958282 7.882451 9.070204v25.236098c-.069124 1.860825.886627 3.610583 2.491563 4.561473 1.604936.950889 3.602471.950889 5.207407 0 1.604936-.95089 2.560687-2.700648 2.491563-4.561473v-25.117488c.020982-11.58893-7.76355-18.607872-17.583391-18.607872z"/><path d="m241.391127 178c-5.469763 0-10.491873 1.939628-13.345662 6.844515-3.056632-4.883956-7.78497-6.844515-13.436592-6.844515-9.827387 0-17.605362 7.025919-17.605362 18.579964v25.117488c-.069128 1.860825.886677 3.610582 2.491703 4.561472 1.605027.95089 3.602674.95089 5.2077 0s2.560831-2.700647 2.491703-4.561472v-25.20819c0-6.097968 3.497291-9.070204 7.875899-9.070204s7.882893 2.958282 7.882893 9.070204v25.236098c-.024379 1.363405.501097 2.679477 1.458493 3.652842.957396.973366 2.266521 1.522498 3.633563 1.524151 2.837215-.034473 5.114639-2.34671 5.09905-5.176993v-25.236098c0-6.097968 3.427345-9.070204 7.784969-9.070204 4.357625 0 7.875899 2.958282 7.875899 9.070204v25.236098c-.069128 1.860825.886677 3.610583 2.491703 4.561473 1.605026.950889 3.602673.950889 5.2077 0 1.605026-.95089 2.560831-2.700648 2.491703-4.561473v-25.117488c0-11.58893-7.78497-18.607872-17.605362-18.607872z"/><path d="m275 160c-1.59243-.003696-3.120707.627252-4.246728 1.753275-1.12602 1.126022-1.756968 2.654301-1.753272 4.246725 0 3.313712 2.6863 6 6 6s6-2.686288 6-6c.003696-1.592424-.627252-3.120703-1.753272-4.246725-1.126021-1.126023-2.654298-1.756971-4.246728-1.753275z"/><path d="m275 178.000485c-1.331584-.018695-2.614097.50324-3.555762 1.447064-.941665.943823-1.462406 2.229276-1.443754 3.563913v37.977562c0 2.767486 2.23836 5.010976 4.999516 5.010976s4.999516-2.24349 4.999516-5.010976v-37.977562c.018652-1.334637-.502089-2.62009-1.443754-3.563913-.941665-.943824-2.224178-1.465759-3.555762-1.447064z"/><path d="m315.240168 216.650273c-6.318362 0-10.881623-4.1158-10.881623-12.093594v-16.463201h10.881623c2.615086-.011296 4.731083-2.081909 4.738771-4.637136.013251-1.232576-.481526-2.418541-1.3729-3.290798-.891374-.872256-2.104395-1.35746-3.365871-1.346337h-10.881623v-6.818509c0-2.761809-2.29135-5.000698-5.117873-5.000698s-5.117873 2.238889-5.117873 5.000698v6.818509h-3.348732c-1.266948-.01853-2.487962.463176-3.386568 1.336043-.898607.872868-1.398794 2.063064-1.387499 3.301092.015565 2.553657 2.132472 4.619037 4.745985 4.630276h3.348732v16.463202c0 13.177421 9.126523 21.45018 21.117369 21.45018 2.644292 0 4.787914-2.094543 4.787914-4.678293s-2.143622-4.678293-4.787914-4.678293z"/><path d="m99.7808424 180.679926c-8.5168334-4.047651-18.2483742-3.191151-26.6888546 2.355374-5.9277716 3.888784-10.5158945 9.835931-14.5764875 15.078537l-.340118.448971c-8.7597749 11.327898-15.9022538 19.236704-27.8896795 17.703294-5.2544767-.690726-10.793542-3.32239-13.7921337-6.630965-5.4349475-5.995497-7.43400862-13.690178-5.4765946-21.115477 2.2975321-8.737677 9.0235399-15.486064 16.7421371-16.798443 8.8708339-1.498874 16.1104893.808149 21.5176721 6.851997 1.9014212 2.121012 5.1706943 2.306561 7.3021259.414435 2.1314317-1.892127 2.3178922-5.145419.4164713-7.266432-7.7255384-8.620253-18.7411983-12.22584-30.9854478-10.146757-11.6473076 1.975475-21.69814284 11.742333-24.98826431 24.341165-2.7666242 10.862794.16824575 22.381194 7.80189142 30.61986 4.67835839 5.152811 12.40389679 8.97943 20.16414109 9.946446 18.8036689 2.376096 29.5625049-11.535115 37.3921611-21.640428l.3470592-.455879c3.5538865-4.600232 7.5797735-9.815209 12.0637787-12.764607 3.8315339-2.51424 9.8078938-4.835078 16.5339016-1.650833 3.3734157 1.60939 5.9694191 4.082187 7.1077731 6.789831 2.082355 5.000852 1.443766 10.015519-1.915767 14.505234-3.3890362 4.298124-8.9466068 6.293576-14.3127226 5.138998-3.4220039-.808149-6.6080077-2.859604-8.1211859-5.214977-1.5981395-2.233364-4.6738725-2.830301-6.9982463-1.358217s-3.0833132 4.497614-1.7268226 6.88402c2.9777681 4.620953 8.3710685 8.247262 14.444605 9.670157 1.7467767.411057 3.5358772.617375 5.3308297.61477 7.710849.002391 14.9859377-3.557405 19.6921407-9.635645 5.552947-7.466742 6.691302-16.218234 3.151298-24.63127-2.144826-5.028481-6.469184-9.3317-12.1956616-12.053159z"/><path d="m85 267.160389 1.6389892-1.819208c1.0320766.881159 2.3731747 1.387102 3.7761733 1.4246 1.133574 0 1.8194945-.421361 1.8194945-1.103564v-.033441c0-.668827-.433213-.989863-2.5415162-1.491483-2.5487365-.601944-4.1877256-1.250706-4.1877256-3.578222v-.033442c0-2.12018 1.8411552-3.524715 4.4187725-3.524715 1.703215-.025891 3.3628693.499183 4.6931408 1.484795l-1.4440433 1.939597c-.9449258-.68132-2.0900184-1.082299-3.2851986-1.150382-1.0613718 0-1.6245487.448114-1.6245487 1.016616 0 .769151.5415163 1.023305 2.7292419 1.538301 2.5631769.622009 4.0072202 1.471419 4.0072202 3.51134v.033441c0 2.327516-1.9133574 3.62504-4.6425993 3.62504-1.9690871.017404-3.8761727-.637326-5.3574007-1.839273z"/><path d="m100.25054 257h2.491901l5.257559 12h-2.807775l-1.123111-2.669694h-5.194384l-1.1231101 2.669694h-2.7516199zm2.842873 7.014756-1.63553-3.861521-1.6285093 3.861521z"/><path d="m110 257h2.511254l5.800643 7.389365v-7.389365h2.688103v12h-2.320257l-5.99164-7.629503v7.629503h-2.688103z"/><path d="m129 257h9v2.401372h-6.398649v2.552316h5.641892v2.401372h-5.641892v4.64494h-2.601351z"/><path d="m141 257.009172h5.291005c1.235633-.079267 2.450419.357766 3.373016 1.21348.672347.739039 1.02984 1.727246.992064 2.742328v.034279c.07433 1.677673-.94029 3.200616-2.480159 3.72271l2.824074 4.278031h-2.97619l-2.473545-3.832403h-1.984127v3.832403h-2.546297zm5.125661 5.827446c1.236773 0 1.984127-.685582 1.984127-1.700243v-.034279c0-1.13121-.760582-1.713955-1.984127-1.713955h-2.579365v3.42791z"/><path d="m157.219644 257h2.518618l5.261738 12h-2.80626l-1.122504-2.669694h-5.191581l-1.122504 2.669694h-2.757151zm2.80626 7.014756-1.627631-3.861521-1.634646 3.861521z"/><path d="m167 257h2.51287l5.797297 7.389365v-7.389365h2.689833v12h-2.293436l-5.995496-7.629503v7.629503h-2.711068z"/><path d="m180.001019 263.047611v-.033186c-.030299-1.610027.615946-3.162174 1.788843-4.296431 1.172898-1.134258 2.770533-1.752069 4.422346-1.710137 1.757779-.087888 3.469504.564861 4.699255 1.792015l-1.668576 1.87166c-.796681-.814682-1.890098-1.291449-3.0443-1.327419-.955322.018499-1.862085.41385-2.512903 1.095633s-.990021 1.591678-.940027 2.521582v.033186c-.057629.934994.277938 1.852542.92939 2.541249.651451.688707 1.562605 1.089179 2.52354 1.109151 1.192431-.011757 2.3266-.504331 3.132837-1.360603l1.668576 1.639361c-1.213991 1.385798-3.015163 2.149614-4.883139 2.070773-1.628025.027131-3.197757-.590255-4.350396-1.711042s-1.789656-2.649166-1.765446-4.235792z"/><path d="m194 257h2v12h-1.994819z"/><path d="m198 267.160377 1.640173-1.819219c1.032823.881164 2.37489 1.38711 3.778902 1.424609 1.134393 0 1.820809-.421363 1.820809-1.103571v-.033441c0-.668831-.433526-.98987-2.543352-1.491493-2.550578-.601947-4.190752-1.250713-4.190752-3.578244v-.033442c0-2.120193 1.842486-3.524738 4.421966-3.524738 1.704254-.02477 3.364709.500182 4.696531 1.484804l-1.445086 1.93961c-.946053-.680591-2.09172-1.081483-3.287573-1.150389-1.062138 0-1.625722.448116-1.625722 1.016622 0 .769156.541907 1.023311 2.723988 1.538311 2.565029.622013 4.010116 1.471428 4.010116 3.511362v.033441c0 2.327531-1.91474 3.625063-4.638728 3.625063-1.97051.017404-3.878974-.63733-5.361272-1.839285z"/><path d="m209.001023 263.047611v-.033186c-.030371-1.61121.616797-3.16442 1.791194-4.298885 1.174398-1.134464 2.773825-1.751459 4.426803-1.707683 1.757778-.087888 3.469503.564861 4.699254 1.792015l-1.668576 1.87166c-.799632-.814489-1.895025-1.291051-3.051109-1.327419-.955322.018499-1.862085.41385-2.512903 1.095633s-.99002 1.591678-.940027 2.521582v.033186c-.057628.934994.277939 1.852542.92939 2.541249s1.562604 1.089179 2.52354 1.109151c1.192786-.010162 2.327578-.503007 3.132836-1.360603l1.668575 1.639361c-1.21399 1.385798-3.015162 2.149614-4.883137 2.070773-1.628025.027131-3.197756-.590255-4.350395-1.711042s-1.789655-2.649166-1.765445-4.235792z"/><path d="m222.000001 262.944265v-.032646c-.000819-1.599302.692385-3.130608 1.921268-4.244129 1.228882-1.113521 2.888472-1.714139 4.599675-1.664658 1.700742-.047684 3.349617.550292 4.570412 1.657493s1.909362 2.62917 1.90862 4.218649v.032645c.009626 3.353481-2.892689 6.079322-6.482526 6.088359-3.589837.008992-6.507798-2.702233-6.517449-6.055713zm10.190284 0v-.032646c.03404-.939144-.340699-1.851101-1.038695-2.527745-.697995-.676645-1.659685-1.060236-2.665592-1.063268-.999125-.004358-1.95663.373487-2.6498 1.045685-.693169.672199-1.06158 1.580157-1.019541 2.512683v.032645c-.034039.939145.3407 1.851102 1.038696 2.527746.697995.676645 1.659684 1.060236 2.665591 1.06323 1.00396.011593 1.968824-.363092 2.66813-1.036114s1.07148-1.58512 1.029168-2.522216z"/><path d="m267 267.971815 4.672372-3.801578c1.958435-1.62345 2.677261-2.536641 2.677261-3.720406.000976-.622701-.275953-1.218333-.765735-1.646983-.489782-.428651-1.149254-.652542-1.823507-.619082-1.466992 0-2.420538.710259-3.447433 2.029312l-1.041564-.696731c1.158924-1.589628 2.369193-2.516347 4.621027-2.516347 2.251833 0 3.982885 1.420519 3.982885 3.382187 0 1.724916-.99022 2.786922-3.249389 4.599775l-3.425428 2.800451h6.799511v1.217587h-9z"/><path d="m279 263.033333v-.033333c0-3.266667 1.97698-6 5.023697-6 3.046716 0 4.976303 2.733333 4.976303 6 0 3.266667-1.963439 6-5.010156 6-3.046716 0-4.989844-2.7-4.989844-5.966667zm8.612051 0v-.033333c0-2.553333-1.4218-4.833333-3.622207-4.833333-2.200406 0-3.601895 2.233333-3.601895 4.8 0 2.546666 1.4218 4.826666 3.635748 4.826666 2.213947 0 3.588354-2.213333 3.588354-4.76z"/><path d="m31 267.971815 4.6729354-3.788049c1.9721995-1.62345 2.686018-2.536641 2.686018-3.720406.0030101-.622083-.2731609-1.217781-.7634009-1.646648-.49024-.428866-1.1511651-.65295-1.8269507-.619418-1.4717907 0-2.4284546.71026-3.4587081 2.029313l-1.0670482-.71026c1.1553556-1.589628 2.369583-2.516347 4.6361406-2.516347s3.9885527 1.420519 3.9885527 3.382187c0 1.724916-.9934587 2.786922-3.2526574 4.599775l-3.4439901 2.800451h6.8291087v1.217587h-9z"/><path d="m43 263.033333v-.033333c0-3.266667 1.9837508-6 5.0236967-6 3.0399458 0 4.9763033 2.733333 4.9763033 6 0 3.266667-1.9634394 6-5.0033852 6-3.0399459 0-4.9966148-2.7-4.9966148-5.966667zm8.6120515 0v-.033333c0-2.553333-1.421801-4.833333-3.6154367-4.833333-2.1936358 0-3.6086663 2.233333-3.6086663 4.8 0 2.546666 1.421801 4.826666 3.6357482 4.826666s3.5883548-2.213333 3.5883548-4.76z"/><path d="m68 247h1v32h-1z"/><path d="m251 247h1v32h-1z"/></g></g></svg>