<svg height="396" viewBox="0 0 700 396" width="700" xmlns="http://www.w3.org/2000/svg" xmlns:xlink="http://www.w3.org/1999/xlink"><filter id="a"><feColorMatrix in="SourceGraphic" type="matrix" values="0 0 0 0 0.000000 0 0 0 0 0.000000 0 0 0 0 0.000000 0 0 0 1.000000 0"/></filter><g fill="none" fill-rule="evenodd" filter="url(#a)"><path d="m649.891546 184.055491h-27.469224v-149.4699004h25.856805v16.7414308c3.2321-10.0448585 11.315984-18.9468887 21.818495-20.0796922 17.780185-1.1027289 29.902378 13.3931447 29.902378 44.6103995v108.1877373h-28.326275v-112.6688268c0-13.3931447 0-24.5407322-6.536833-26.7662397-2.425891-1.102729-6.536833 0-9.703565 3.3382613-4.031047 5.5838186-5.665255 12.2803909-5.665255 23.4279784v112.6487768zm-467.107541-139.4450915c-6.536833-7.8193509-14.548084-13.3931447-24.258913-13.3931447-9.710828 0-16.966712 5.5838186-24.244386 13.3931447-11.315984 13.3931446-18.593657 37.9238519-18.593657 64.6900915 0 27.889018 7.263147 51.306972 18.593657 64.690092 7.277674 7.819351 14.548085 13.393144 24.244386 13.393144 9.696302 0 17.780185-5.563769 24.258913-13.393144 12.129456-13.393145 18.593658-36.811098 18.593658-64.690092 0-26.7662396-6.536833-51.3069717-18.593658-64.6900915zm-10.502511 64.6900915c0 27.889018 0 50.194218-3.239364 61.35183-2.418628 5.563769-4.793677 9.022328-10.502511 9.022328-4.793678 0-8.07662-3.348286-9.703565-9.022328-4.045573-11.157612-4.045573-33.482861-4.045573-61.35183 0-26.7662396 0-50.1942179 4.045573-61.3518302 1.619682-5.5637689 4.793677-9.022328 9.703565-9.022328 5.665255 0 8.083883 3.3482862 10.509774 9.022328 4.045573 11.1576123 3.239364 34.5855906 3.239364 61.3518302zm292.530528 131.635765v40.14936h-5.650729c-3.232101-16.721381-8.083883-31.157106-21.012286-32.350058-8.083883-1.102729-15.354294 5.583818-16.167766 15.618652-.813473 10.034834 1.619682 18.946889 16.167766 30.114526 18.593658 14.505898 33.134479 21.192446 33.134479 51.306972 0 32.350058-20.206076 47.958685-37.172789 47.958685h-32.321006v-55.778036h5.665255c4.045573 29.001772 10.509774 46.845931 25.856805 47.958685 9.703565 0 16.966712-7.819351 16.966712-22.305199 0-14.485849-6.536832-23.427979-21.818495-35.68832-16.966712-14.495874-27.476486-23.417954-27.476486-43.507671 0-26.766239 13.741875-43.50767 35.56037-43.50767h28.326275zm35.567633-56.89079v-108.1877373c0-31.2373044-12.129457-45.733178-29.902378-44.6103995-12.129457 1.102729-19.392604 12.2803909-22.631968 21.192446-4.031047-15.6186522-12.928402-22.3051997-25.856805-21.192446-10.495248 1.102729-18.593658 10.0448585-21.818495 20.0796922v-16.7414308h-25.057859v149.3696524h27.469224v-112.5385046c0-11.1576123.798946-17.8441598 5.665255-23.4279783 3.239364-3.3382614 6.464201-4.4510152 8.882829-3.3382614 6.536833 2.2355324 6.536833 13.3931447 6.536833 26.7662397v112.6387526h27.34575v-113.7815808c0-10.0448585 1.612419-16.7414308 5.665255-22.3152246 3.232101-3.3382613 6.536833-4.4510151 8.88283-3.3382613 6.536832 2.2355324 7.263147 13.3931446 7.263147 26.7662397v112.568579h27.476487zm-280.335703-180.70720465h28.326275v180.68715465h-28.326275zm128.412447 180.71722965v-180.69718003h-28.326275v42.38489193c-2.418628-7.8193509-8.083883-13.3931447-16.160503-13.3931447-20.206077 0-36.36658 29.0017721-37.172789 73.6121718-.798946 30.114526 6.464201 80.298719 34.746897 80.298719 11.308721 0 17.780185-9.022328 20.206077-16.741431v14.505898h26.670277zm-33.134479-137.1895095c5.665255 11.1576122 5.665255 37.9138271 5.665255 59.1062735 0 22.305199.798946 51.306971-5.665255 63.577337-2.425891 4.471065-4.793677 6.616374-8.882829 6.616374-5.665255 0-8.897356-9.022328-10.502511-23.417953-.813473-13.393145-.813473-30.114526-.813473-47.958686 0-30.1145257 1.619682-63.5773377 12.129456-63.5773377 4.045573 0 5.665255 2.2355323 8.083883 5.5838185zm269.11414-7.8193509c7.263148 5.5838185 12.129457 14.5058984 12.129457 34.5855906v110.4232698h-26.670278v-16.741431c-3.2321 12.260341-12.129456 20.069667-24.258912 20.069667-9.703565 0-26.670278-6.616373-26.670278-41.272138 0-32.350058 15.354294-39.096754 32.321006-49.0714391 15.354294-9.022328 16.966713-10.0448585 16.966713-18.9468888v-24.5407321c0-10.0248089-4.031047-14.4958736-12.129456-14.4958736-3.232101 1.1027289-8.88283 3.3482861-8.88283 9.0223279-.813472 6.6163739 4.793678 6.6163739 5.665255 16.7414309.798947 15.6186522-8.083883 21.1824211-16.160503 20.0696673-5.665255 0-12.129456-4.4610399-12.928402-16.7213812-.798947-20.0796921 15.354293-36.8110982 37.935419-36.8110982 10.509774 0 16.973976 3.3482862 22.631967 7.819351zm-16.167766 55.7680117-8.882829 7.8193507c-8.88283 7.819351-10.509775 17.84416-11.315984 29.001772-.798946 9.022328-.798946 16.741431 0 30.114526.798946 12.260341 6.464201 14.505899 11.315984 12.260341 5.665255-3.348286 8.882829-17.844159 8.882829-33.482861v-45.7331783zm-383.857344 152.8181867c7.277674 6.616374 11.308721 14.505898 11.308721 34.58559v111.556073h-25.856805v-16.74143c-3.232101 11.157612-12.11493 18.946888-24.258913 18.946888-10.502511 0-26.670277-5.583818-26.670277-40.149359 0-32.350058 15.354293-39.096755 31.52206-49.07144 16.167766-9.974684 17.765658-11.157612 17.765658-18.946888v-24.560782c0-11.157612-4.045573-15.608627-12.11493-14.495874-3.239363 0-8.897355 2.235533-8.897355 7.819351-.798947 7.819351 4.793677 7.819351 5.665255 17.84416.813472 14.505898-8.083883 20.079692-16.160503 20.079692-5.665255-1.102729-12.129457-5.563769-12.928403-17.84416-.798946-18.946888 15.354294-35.688319 37.935419-35.688319 10.509775 0 16.966713 2.235532 22.631968 6.616374zm-16.167766 55.768011-8.88283 7.819351c-8.882829 7.819351-10.502511 17.84416-11.315983 29.001772-.798947 8.92208-.798947 17.84416 0 30.114526 0 13.393145 5.665255 15.608628 10.509774 12.260342 6.464201-3.348287 9.703565-16.721382 9.703565-33.462812v-45.733179zm211.735275-17.844159c0-31.237305-12.129456-46.845932-29.902378-44.6104-8.88283 1.102729-16.160503 6.616374-20.206076 14.505899v-43.507671h-27.461961v102.623969c0 37.923852-19.392604 73.612171-38.785208 72.499417-13.727348 0-16.973975-14.495873-18.593657-30.114526-2.425891-22.315224-2.425891-47.958685-.813473-75.847703 1.619682-17.84416 4.793678-32.350059 14.548085-32.350059 7.277674 0 8.083883 6.616374 4.793677 11.157613-3.239364 5.583818-8.083883 11.157612-5.665255 23.427978 2.418628 13.393145 17.765659 15.608627 25.057859 5.583818 5.665255-8.922079 4.793677-23.427978.798946-32.350058-4.793677-11.157612-12.928402-15.608627-25.057859-15.608627-15.354293 0-44.450462 18.946889-44.450462 79.19599 0 64.690092 29.902378 75.837679 46.86909 75.837679 19.392604 0 36.36658-23.427978 41.211099-42.384892v40.169409h27.476487v-112.668827c0-11.157612 1.619682-17.844159 5.665255-23.427978 3.239364-3.338261 7.277674-4.46104 9.703565-3.338261 6.464201 2.225507 6.464201 13.393144 6.464201 26.766239v112.658802h28.326276v-108.197762zm-282.8560153-285.556681v63.5773379h-5.6652551c-4.7936773-31.2373045-15.3542937-54.65525801-29.9023781-55.76801179-9.7035651-1.10272898-15.3470307 6.61637389-20.2060763 17.84415979-4.7936774 13.3931447-7.2776738 41.2721381-7.2776738 74.7249251 0 31.237305.8134725 54.655258 3.2393638 71.376639 1.6124187 7.819351 5.665255 20.079693 16.1605031 20.079693 5.665255 0 9.703565-2.235533 12.1294563-6.616374 4.0455731-6.616374 4.7936773-20.079692 4.7936773-29.001772v-30.104501c0-11.157613-2.4258912-17.84416-6.4642012-21.192446-3.2321006-2.235533-8.0838832-2.235533-10.5025113-3.348287v-7.8193504h45.2494088v159.3944614h-5.665255c-2.3968387-12.150069-4.0165206-21.072149-8.0620937-31.096958-4.0455732-10.024808-11.3159838-21.182421-23.4381769-21.182421-12.9284025-1.122778-22.6319676 10.044859-22.6319676 26.76624 0 22.315225 9.7035651 27.889018 27.4764869 41.272138 16.9739757 13.393145 38.7852071 24.540732 38.7852071 63.587363 0 37.923852-23.4381764 61.35183-50.1011908 61.35183h-42.8380439v-76.890284h5.6652551c7.2776738 57.993519 25.0578588 68.038378 37.1727888 68.038378 15.3542937 0 22.5738623-13.393145 22.5738623-32.350058-.7989462-24.540732-12.9647182-33.482862-29.9023781-45.733178-24.2443863-18.946889-35.5531069-27.889019-35.5531069-59.126323.7989462-26.76624 16.1677662-43.507671 33.1344788-50.194218-35.55310695-5.583819-46.06288135-50.194218-45.24940883-98.1027798 0-47.9586856 20.20607633-99.27568221 59.79749313-99.27568221h37.1727888z" fill="#64a8f0"/></g></svg>