<svg height="702" viewBox="0 0 480 702" width="480" xmlns="http://www.w3.org/2000/svg" xmlns:xlink="http://www.w3.org/1999/xlink"><linearGradient id="a"><stop offset="0" stop-color="#523e8e" stop-opacity="0"/><stop offset="1" stop-color="#624da1"/></linearGradient><linearGradient id="b" x1="0%" x2="100%" xlink:href="#a" y1="0%" y2="0%"/><linearGradient id="c" x1="0%" x2="100%" xlink:href="#a" y1="50%" y2="50%"/><linearGradient id="d" x1="0%" x2="100%" xlink:href="#a" y1="100%" y2="63.298755%"/><g fill="none" fill-rule="evenodd" opacity=".7" transform="translate(2 1)"><g fill-rule="nonzero"><path d="m38 23.5c-1.1045695 0-2-.8954305-2-2s.8954305-2 2-2h316.99955c1.104569 0 2 .8954305 2 2s-.895431 2-2 2z" fill="url(#b)"/><path d="m175.527344 515.5c-1.10457 0-2-.895431-2-2s.89543-2 2-2h154.472656c1.104569 0 2 .895431 2 2s-.895431 2-2 2z" fill="url(#b)"/><path d="m0 188.3935c-1.1045695 0-2-.895431-2-2s.8954305-2 2-2h140c1.104569 0 2 .895431 2 2s-.895431 2-2 2z" fill="url(#c)"/></g><g stroke="#624da1" stroke-linecap="round" stroke-linejoin="round" stroke-width="2" transform="translate(365)"><path d="m32 26.4c0 3.031-.755 5.542-4.363 8.8-2.744 2.476-6.927 5.675-10.417 7.99-.408.27-.814.54-1.22.81-.409-.272-.819-.544-1.229-.816-3.487-2.314-7.667-5.51-10.408-7.984-3.608-3.258-4.363-5.769-4.363-8.8v-20.533l16-5.867 16 5.867z"/><path d="m10.932 30h-2.294c-.352 0-.638-.329-.638-.734v-12.532c0-.405.286-.734.638-.734h14.725c.352 0 .637.329.637.734v12.532c0 .405-.285.734-.637.734h-2.291"/><path d="m21 16h-10v-3.24c0-1.524 1.235-2.76 2.761-2.76h4.478c1.526 0 2.761 1.236 2.761 2.76z"/><path d="m16 30c0 1.104-.896 2-2 2s-2-.896-2-2 .896-2 2-2 2 .896 2 2z"/><path d="m14 24 1.18 1.063"/><path d="m17.699 22-2.699 2.909"/></g><g stroke="#624da1" stroke-linecap="round" stroke-linejoin="round" stroke-width="2" transform="translate(142 164)"><path d="m16.041 10.063c.625-3.812 2.247-6.573 5.527-9.877.229-.23.61-.256.838-.025 4.218 4.248 5.857 8.254 5.869 14.332-.012 1.471-.101 3.071-.241 4.747l4.562 5.106c.114.141.165.346.127.538l-2.034 7.78c-.025.103-.076.179-.152.256-.101.102-.241.166-.406.179h-1.626c-.217-.013-.407-.128-.509-.307l-2.426-4.846h-7.14l-2.426 4.846c-.025.051-.064.089-.102.128-.101.102-.255.179-.407.179h-1.626c-.266-.013-.495-.192-.558-.435l-2.034-7.78c-.038-.192.013-.397.127-.538l4.562-5.106"/><path d="m18.1211 10.8789c1.172 1.171 1.172 3.071 0 4.242-1.171 1.172-3.071 1.172-4.242 0-1.172-1.171-1.172-3.071 0-4.242 1.171-1.172 3.071-1.172 4.242 0z"/><path d="m0 44c0-2.299 1.863-4.162 4.162-4.162 1.176 0 2.236.49 2.993 1.273 1.11-2.5 3.609-4.246 6.521-4.246 1.912 0 3.644.757 4.926 1.981l1.614-10.9h3.568l1.614 10.9c1.282-1.224 3.014-1.981 4.926-1.981 2.912 0 5.411 1.746 6.521 4.246.758-.784 1.817-1.273 2.993-1.273 2.299 0 4.162 1.863 4.162 4.162h-20.811-2.378z"/></g><path d="m176 679.515625c-1.104569 0-2-.895431-2-2s.895431-2 2-2h250.5206c1.104569 0 2 .895431 2 2s-.895431 2-2 2z" fill="url(#c)" fill-rule="nonzero"/><g stroke="#624da1" stroke-linecap="round" stroke-linejoin="round" stroke-width="2" transform="translate(437 656)"><path d="m21.9989-.0001c-1.657 0-3 1.343-3 3s1.343 3 3 3c1.656 0 3-1.343 3-3s-1.344-3-3-3z"/><path d="m9.6551-.0001 2.974 2.973-2.974 2.973"/><path d="m17.9969 43.9999c1.657 0 3-1.343 3-3s-1.343-3-3-3-3 1.343-3 3 1.343 3 3 3z"/><path d="m30.0897 43.9999-2.973-2.973 2.973-2.973"/><path d="m13.9998 40.9281h-9.52c-2.474 0-4.48-2.113-4.48-4.72v-6.49-15.581-6.489c0-2.607 2.006-4.72 4.48-4.72h7.28"/><path d="m28.0018 40.9281h7.429c2.524 0 4.571-2.262 4.571-5.053v-6.947-14.703-6.54c0-2.628-2.149-4.757-4.8-4.757h-10.2"/><path d="m8.0008 23.4882h4.105l3.79 6.24 6.316-15.6 3.157 9.36h6.632"/></g><g stroke="#624da1" stroke-linecap="round" stroke-linejoin="round" stroke-width="2" transform="translate(340 492)"><path d="m43.9092 34.5906c-.622-.337-1.246-.674-1.867-1.013-.32-.175-.515-.439-.561-.777-.008-.063-.02-.123-.018-.192.02-.546.005-1.091-.04-1.636-.006-.074.003-.142.008-.211l.033-.189c.069-.26.229-.476.489-.637.434-.269.871-.532 1.308-.797.197-.12.394-.241.597-.364-.363-1.173-.853-2.281-1.481-3.329-.02.006-.032.01-.048.014l.01-.059c-.686.202-1.371.401-2.056.607-.458.138-.858.054-1.186-.298-.373-.401-.769-.775-1.187-1.128-.249-.21-.376-.466-.391-.756 0-.086.007-.173.028-.264.16-.701.335-1.399.509-2.096.009-.036.006-.06-.001-.082.006-.025.012-.049.018-.075-1.087-.573-2.219-1.01-3.405-1.308-.021.036-.036.063-.051.09-.338.621-.675 1.244-1.015 1.864-.212.386-.543.594-.982.582-.572-.016-1.143-.002-1.713.042-.425.033-.765-.146-.989-.503-.384-.609-.755-1.225-1.126-1.842-.044-.073-.084-.081-.154-.056-.489.184-.983.354-1.468.55-.58.235-1.134.526-1.673.842-.042.024-.077.049-.074.104-.007.004-.014.007-.02.011.011.041.021.076.03.112.201.675.403 1.349.6 2.025.023.082.033.161.041.239.011.33-.112.622-.395.877-.39.348-.742.733-1.078 1.133-.298.355-.681.476-1.131.369-.636-.152-1.27-.307-1.905-.46-.084-.021-.168-.041-.254-.062-.093.177-.161.362-.247.542-.01.022-.022.043-.033.065-.016.032-.026.066-.041.099-.407.869-.754 1.76-.99 2.693.006.003.01.006.014.009-.002.036.004.063.049.087.618.332 1.235.669 1.852 1.002.425.228.642.575.624 1.059-.022.531-.011 1.06.04 1.589.008.077-.001.147-.006.218-.031.319-.191.584-.482.77-.391.249-.79.486-1.186.727-.251.153-.501.306-.75.458.002.019.001.031.005.042.001.002.001.004.002.006-.004.003-.008.005-.012.007.002.016.002.023.004.029.044.142.108.275.155.416.01.029.019.059.03.088.013.04.032.077.047.116.324.91.711 1.791 1.204 2.626.037.062.073.047.122.033.691-.205 1.382-.413 2.074-.612.405-.116.776-.03 1.068.272.407.424.831.826 1.276 1.211.23.2.343.449.352.726 0 .101-.01.204-.036.312l-.375 1.541c-.048.199-.096.399-.143.596.012.01.017.014.022.017l.003.002c.012.05.056.08.166.14.021.013.044.024.066.035.697.352 1.418.649 2.161.889.297.095.6.176.9.262.048.014.088.024.122-.04.338-.628.681-1.253 1.022-1.88.218-.4.558-.608 1.013-.595.554.016 1.106.006 1.658-.042.451-.038.8.146 1.039.529.197.314.388.632.581.948s.386.633.582.952c1.174-.361 2.286-.851 3.337-1.478-.008-.031-.015-.053-.021-.077.002-.013.009-.023.003-.043-.206-.683-.407-1.367-.61-2.051-.03-.102-.046-.202-.051-.299-.006-.276.089-.531.307-.741.43-.414.839-.845 1.233-1.293l.506-.359c.171-.043.354-.049.551-.002.362.083.722.173 1.083.26s.722.175 1.086.263c.575-1.084 1.013-2.215 1.313-3.4-.037-.021-.065-.036-.091-.051z"/><path d="m33.2168 34.7414c-1.514.672-3.286-.011-3.958-1.525s.011-3.286 1.524-3.958c1.514-.672 3.287.011 3.958 1.525.672 1.514-.01 3.286-1.524 3.958z"/><path d="m23.9395 10.5398c-.003-.072-.026-.106-.108-.118-.698-.1-1.394-.2-2.088-.315-.408-.067-.698-.305-.828-.7-.176-.532-.38-1.052-.611-1.562-.178-.392-.114-.769.154-1.107.429-.543.864-1.083 1.296-1.625.019-.023.038-.047.063-.08-.718-.957-1.541-1.812-2.47-2.575-.02.016-.04.031-.061.046-.02.003-.039.007-.065.026-.563.423-1.127.845-1.698 1.257-.075.054-.153.094-.231.128-.27.098-.55.081-.834-.064-.478-.244-.965-.459-1.468-.643-.442-.162-.669-.491-.718-.957-.073-.695-.153-1.39-.23-2.085 0-.008-.005-.017-.007-.024l-.037.024c-.001-.007-.002-.012-.003-.02-1.183-.168-2.369-.189-3.563-.071-.035.23-.069.454-.102.677-.075.495-.146.99-.224 1.483-.046.288-.176.509-.374.67l-.19.122c-.056.028-.108.06-.171.08-.509.167-1.006.36-1.492.586-.073.034-.143.05-.214.068-.314.075-.616-.002-.888-.219-.541-.431-1.08-.865-1.62-1.298-.024-.019-.048-.037-.081-.063-.01.007-.019.017-.029.025-.002-.002-.004-.003-.006-.005l-.003.013c-.939.713-1.783 1.526-2.532 2.443.217.296.433.588.648.88.216.293.432.583.645.878.119.164.186.335.209.51l-.126.578c-.255.525-.489 1.058-.7 1.603-.074.193-.189.341-.337.447-.009.006-.019.01-.028.016-.059.039-.123.073-.191.099-.091.033-.188.056-.293.068-.695.077-1.387.156-2.081.23-.018.002-.022.011-.032.016-.023.003-.045.006-.076.01-.167 1.186-.188 2.375-.069 3.571.362.056.72.109 1.079.164.358.054.718.105 1.075.163.437.07.734.316.871.736.165.517.364 1.019.589 1.512.185.405.125.791-.153 1.14-.437.546-.871 1.093-1.31 1.637-.044.055-.019.087.011.125.191.238.379.48.577.712.497.58 1.039 1.117 1.619 1.612.02.016.038.031.057.046.091.072.135.103.18.099l.003.003c.005.004.011.006.025.013.159-.117.321-.236.483-.356.416-.308.832-.616 1.248-.923.089-.066.18-.116.272-.154.255-.099.524-.092.794.041.514.254 1.038.485 1.574.691.384.147.6.45.65.859.083.7.157 1.402.234 2.104.005.05.005.088.075.097.904.123 1.81.138 2.718.093.073-.003.146.002.22-.002.055-.003.11-.01.164-.014.123-.009.246-.003.371-.015.005-.001.011-.003.026-.008.001-.003.001-.007.002-.011.011-.001.021-.006.038-.011.043-.282.086-.565.129-.85.067-.448.13-.899.207-1.346.056-.324.225-.567.489-.717.071-.038.142-.076.226-.103.496-.155.977-.346 1.449-.567.429-.202.824-.137 1.191.16.534.431 1.072.858 1.605 1.289.035.029.061.027.089.015.005.003.008.006.012.01.355-.268.681-.565 1.008-.861.04-.037.084-.069.124-.106.291-.27.565-.561.835-.854.056-.06.116-.114.171-.175.037-.041.071-.084.108-.127.105-.121.222-.228.324-.352-.051-.07-.101-.139-.151-.206-.379-.515-.758-1.027-1.135-1.543-.268-.365-.304-.757-.096-1.161.233-.456.446-.919.614-1.403.123-.354.341-.577.646-.692.074-.024.151-.045.235-.055.684-.08 1.369-.153 2.054-.23.035-.004.071-.009.112-.014.002-.008.002-.016.003-.024.04-.021.051-.058.057-.101.081-.607.133-1.217.126-1.829-.007-.512-.04-1.023-.06-1.534z"/><path d="m9.8369 14.0793c1.148 1.194 3.048 1.231 4.242.083 1.195-1.148 1.232-3.047.084-4.242-1.148-1.194-3.048-1.231-4.242-.083s-1.231 3.048-.084 4.242z"/></g><path d="m167.293 352.0006c-1.104569 0-2-.895431-2-2s.895431-2 2-2h64.7071c1.104569 0 2 .895431 2 2s-.895431 2-2 2z" fill="url(#d)" fill-rule="nonzero"/><g stroke="#624da1" stroke-linecap="round" stroke-linejoin="round" stroke-width="2" transform="translate(242 328)"><path d="m42.4004 13.749c1.031 2.548 1.6 5.333 1.6 8.251 0 12.15-9.85 22-22 22-12.151 0-22-9.85-22-22s9.849-22 22-22c4.942 0 9.503 1.629 13.175 4.38"/><path d="m15.293 26.8125-6.586-3.813 6.586-3.812"/><path d="m28.707 19.1875 6.586 3.813-6.586 3.812"/><path d="m19.0566 31.647 5.887-17.294"/><path d="m39.1211 4.8789c1.172 1.171 1.172 3.071 0 4.242-1.171 1.172-3.071 1.172-4.242 0-1.172-1.171-1.172-3.071 0-4.242 1.171-1.172 3.071-1.172 4.242 0z"/></g></g></svg>