<svg id="Layer_1" data-name="Layer 1" xmlns="http://www.w3.org/2000/svg" viewBox="0 0 854 488"><path d="M73.24,267.65c28.48,15.62,59.91-18.74,57.13-50.27-1.87-21.23-30.82-54.23-43.94-47C75.9,176.17,32.54,245.33,73.24,267.65Z" fill="#120d26" opacity="0.1"/><g opacity="0.1"><path d="M121.93,116.05c1.13,18.72,17,32.62,31.12,45s28.75,28.53,26.2,47.11c-2.69,19.49-29.81,42.76-42.81,76.12-16.2,41.58-.32,77.43,42.05,90,17.1,5.06,35.22,5.32,53,4.95C287.7,378,345,370.74,395.3,345.78c33.47-16.6,140.5-102.92,257-42,27.73,14.5,63.93,45.56,100.8,33.46,30.18-9.91,62.93-57,16-130.27A264.3,264.3,0,0,0,616.6,95.35c-69.31-18.58-143.67-8.11-213.43-24.92A279.3,279.3,0,0,1,362.09,57.1C320.78,40.05,315.71,0,234.27,52.17,194.72,77.5,119.16,70.18,121.93,116.05Z" fill="#120d26"/></g><g opacity="0.1"><path d="M482.3,368.22c-1.22,10.91,5.69,21.24,14.15,28.23,24.31,20.12,42.17,5.29,62-4.52,23.3-11.5,49.76-14.3,75.07-20.21,28.9-6.75.75-36.12-20.95-48.56C570.77,299.17,485.39,340.53,482.3,368.22Z" fill="#120d26"/></g><g opacity="0.3"><path d="M657.73,417.69a7.53,7.53,0,0,0,.51,2.94c2.49,5.86,12,.32,7.25-5.84C663.88,412.69,657.73,410.06,657.73,417.69Z" fill="#120d26"/><path d="M657.32,428.45a6.09,6.09,0,0,0-2.41,3.93,19,19,0,0,0-.14,4.71,210,210,0,0,1,.05,21.29c-.18,3.26-.25,6.53-.13,9.8.08,2.25-.08,4.5-.14,6.76-.68.87-1.24,2-1.93,2.83s-1.24,1.79-.75,2.64a2.38,2.38,0,0,0,2.08.83,20,20,0,0,0,2.79-.1,1.32,1.32,0,0,0,.52-.12c.67-.38.27-1.4.31-2.17.07-1.46,1.9-2.11,2.61-3.38a5,5,0,0,0,.43-2.4l.22-28.22h2.63l.41,30.81c-.53.61-1,1.3-1.52,1.91a4.8,4.8,0,0,0-1.31,2.17.65.65,0,0,0,0,.39.69.69,0,0,0,.26.3,3.45,3.45,0,0,0,1.88.48,27.88,27.88,0,0,0,4.75-.16,1.27,1.27,0,0,0,1-.43.53.53,0,0,0,.08-.17,9.12,9.12,0,0,0,.32-3.34c-.35-8.86-.26-17.81-.13-26.73a4.12,4.12,0,0,0,4.53.23,1.84,1.84,0,0,0,.95-1.56V437a8.56,8.56,0,0,0-8.56-8.56Z" fill="#120d26"/><path d="M248,479.82c-.9-1.08-2.09-1.95-2.63-3.25.28-1.47.19-5,.26-12.12,0-3.18,0-6.66-2.1-9.08a11,11,0,0,0-5.61-3.09,37.44,37.44,0,0,1-6.21-1.88,2.17,2.17,0,0,1-1.08-.89,2.13,2.13,0,0,1-.16-1,15.17,15.17,0,0,0-.06-3.87,6.36,6.36,0,0,0-2.19-3.26c-1.14-.87-2.58-.23-3.74.38a38.15,38.15,0,0,0-12.13,10,1.61,1.61,0,0,0-.47,1.08,1.54,1.54,0,0,0,.45.85,12.05,12.05,0,0,0,1.14,1.12,1.94,1.94,0,0,0,1.28.6,1.77,1.77,0,0,0,.85-.32c2-1.29,3.09-3.91,5.36-4.63.53,1.43-.49,3.05-.11,4.53s2.27,2.37,3.91,2.44,3.32-.32,4.93,0a1.78,1.78,0,0,1,.89.38,2.2,2.2,0,0,1,.52,1.51c.33,5-.85,10.14,0,15.12.06.37.38,2-.19,2.21a1.87,1.87,0,0,0-1.05,1.44,5.48,5.48,0,0,0,.07,1.85.82.82,0,0,0,.19.49.81.81,0,0,0,.43.16,29.59,29.59,0,0,0,3.4.28c1.8.07,3.61.15,5.41.17a24.28,24.28,0,0,0-1.25-2.72c-3.36-3.72-1.39-2.52-1.09-11.39.12-3.52-1.21-11.1,2.73-9.67a13.44,13.44,0,0,1-.32,3.39c-.7,4.8.73,8.88.19,15-.19,2.12,2.39,1.54,2.54,4.75a2.81,2.81,0,0,1,0,.65,43.55,43.55,0,0,0,5.47-.46c.25,0,.58-.16.58-.42A.57.57,0,0,0,248,479.82Z" fill="#120d26"/><path d="M231.86,433.16c-1.31,4.5-8,3.48-7.87-1.08C224.23,425.37,234,425.83,231.86,433.16Z" fill="#120d26"/><path d="M230.06,461c.49,3.61,0,12.94.46,16.56a4.26,4.26,0,0,0,1.18,2.9,4.15,4.15,0,0,0,2.46.67,78,78,0,0,0,17.06-1c-.92-.87.39-.44-.1-1.61-.3-.7-2.07-.87-2.65-2-.7-1.3-.12-7.42,0-8.32,24,7.37,53.94,4.34,80.64.28,11.47-1.75,30.26-4.12,41.86-4.33,29-.51,74.58,8.3,89.3,13.54,9.21,3.27-3.43,3.85-9.51,3.85H173.86c-4.14,0-16.05,1.78-11.91-1.48,5.07-4,27.79-13.44,39.21-16.75C210.58,460.62,218.67,460.27,230.06,461Z" fill="#120d26"/><path d="M529.47,480.73c9.66-4.76,42.1-10.9,76.74,1.51C613.19,484.74,515.3,487.71,529.47,480.73Z" fill="#120d26"/></g><g opacity="0.03"><path d="M536.88,307.8a1,1,0,0,1-.72-.31,1,1,0,0,1,0-1.41c21.62-20.92,36.75-47.66,51.38-73.53,34.47-60.94,67-118.5,177.27-92.42a1,1,0,1,1-.46,2c-108.78-25.74-141,31.19-175.07,91.46-14.7,26-29.9,52.86-51.73,74A1,1,0,0,1,536.88,307.8Z" fill="#fff"/><path d="M315.23,424.59h-.17a1,1,0,0,1-.82-1.15c7.86-46.9,43.57-95.72,73.49-100.47,14.53-2.3,29.92.88,46.2,4.25,3.08.64,6.19,1.28,9.32,1.89a1,1,0,1,1-.39,2c-3.13-.62-6.25-1.26-9.33-1.9-16.1-3.33-31.31-6.48-45.48-4.23-29.19,4.63-64.1,52.65-71.84,98.82A1,1,0,0,1,315.23,424.59Z" fill="#fff"/><path d="M690.88,216.26a1,1,0,0,1-.55-1.84c33.75-22.14,67.2-27.74,102.27-17.13a1,1,0,1,1-.58,1.91c-34.47-10.42-67.37-4.9-100.59,16.89A1,1,0,0,1,690.88,216.26Z" fill="#fff"/><path d="M337.94,415.89a.84.84,0,0,1-.31-.05,1,1,0,0,1-.64-1.26c9.32-28.18,24.19-44.18,45.46-48.94,18.73-4.19,40,.64,60.53,5.32,15.27,3.47,29.71,6.75,42.79,6.46,46.53-1,84.34-42.92,124.37-87.28,7.49-8.3,15.24-16.88,23-25.13a1,1,0,0,1,1.46,1.37c-7.76,8.24-15.5,16.81-23,25.1-40.33,44.69-78.42,86.89-125.81,87.94-13.34.3-27.89-3-43.28-6.51-41-9.33-83.39-19-103.65,42.3A1,1,0,0,1,337.94,415.89Z" fill="#fff"/><path d="M753,252.54a1,1,0,0,1-.36-1.93c16-6.2,31.45-6.79,47.31-1.78a1,1,0,0,1,.65,1.25,1,1,0,0,1-1.26.66c-15.4-4.87-30.44-4.3-46,1.74A1.09,1.09,0,0,1,753,252.54Z" fill="#fff"/><path d="M498.19,417.23a1,1,0,0,1,0-2c76.92-.7,128.53-53.4,174.06-99.89,8.43-8.6,16.39-16.73,24.4-24.44a1,1,0,0,1,1.42,0,1,1,0,0,1,0,1.41c-8,7.69-15.94,15.81-24.36,24.4C627.87,363.51,576,416.52,498.2,417.23Z" fill="#fff"/><path d="M459.59,413.43a.62.62,0,0,1-.19,0,238.38,238.38,0,0,1-31.77-8.8c-32.79-11.49-47.35-10.81-59.92,2.8a1,1,0,0,1-1.41.06,1,1,0,0,1-.06-1.42c14.79-16,32.5-13.68,62.05-3.33a235.88,235.88,0,0,0,31.5,8.73,1,1,0,0,1-.2,2Z" fill="#fff"/><path d="M257.91,91.11a1,1,0,0,1-.94-.66,1,1,0,0,1,.6-1.28c21.75-8,39.6-10.57,54.57-7.83A1,1,0,0,1,313,82.5a1,1,0,0,1-1.17.8c-14.6-2.67-32.11-.13-53.52,7.74A.87.87,0,0,1,257.91,91.11Z" fill="#fff"/><path d="M76.86,168.28c-11,0-21.2-2.47-30.26-8.3a1,1,0,0,1,1.08-1.69c31.36,20.19,77.53-1.46,122.13-25.38a1,1,0,1,1,.95,1.77C138.3,152.08,105,168.28,76.86,168.28Z" fill="#fff"/><path d="M88.63,186.41c-21.61,0-37.74-4.94-43.07-10.65a1,1,0,0,1,0-1.41,1,1,0,0,1,1.42.05c8.1,8.67,42.79,14.72,80.89,4.87,25.51-6.59,56.76-21.38,84.33-34.42C237,133.12,260.46,122,276.17,118.5c13-2.93,27.35-3.37,42.58-1.3a1,1,0,0,1-.27,2c-15-2-29.07-1.61-41.87,1.27-15.5,3.49-38.82,14.53-63.5,26.21-27.66,13.08-59,27.91-84.69,34.55A160.15,160.15,0,0,1,88.63,186.41Z" fill="#fff"/><path d="M78.78,150.71a40.72,40.72,0,0,1-5.8-.41,1,1,0,1,1,.29-2c6.3.9,13.23.22,21.8-2.14,18.36-5.07,35.2-15.11,49.55-24.14a1,1,0,0,1,1.06,1.7c-14.46,9.09-31.45,19.23-50.08,24.36A63.07,63.07,0,0,1,78.78,150.71Z" fill="#fff"/><path d="M540.57,76a66.38,66.38,0,0,1-8.32-.52h0c-3.93-.5-4.83-2.2-4.9-3.53-.4-7.44,27.82-22.85,46.54-27.3,13.71-3.26,22-3.13,24.58.39.85,1.13,1.46,3.16-.41,6.34C592.54,60.77,567.11,76,540.57,76Zm-8.07-2.51C560,77,590.33,60.57,596.33,50.35c.73-1.24,1.41-3,.54-4.15s-5-3.78-22.52.38c-20.2,4.8-45.3,19.78-45,25.24.06,1.1,2,1.51,3.16,1.65Z" fill="#fff"/><path d="M551.13,67.32c-3.14,0-3.63-.94-3.89-1.45-.57-1.1,0-2.45,1.57-3.71C560.39,52.89,577,51,581.6,53.57A2.38,2.38,0,0,1,583.06,56c-.27,2.49-5.12,5.12-14.39,7.81C559.24,66.5,554,67.32,551.13,67.32Zm24.63-12.79a44.05,44.05,0,0,0-25.7,9.2h0c-.78.62-1,1.13-1,1.26s1.78,1.88,19.08-3.15c12.55-3.64,13-6.08,13-6.11s-.21-.29-.44-.41A11.22,11.22,0,0,0,575.76,54.53Zm-26.32,8.41Z" fill="#fff"/><path d="M174.6,340.66c-12.51,0-32.47-5.35-45.39-17.8h0c-2.35-2.27-2.1-3.86-1.48-4.79,3.36-5,28.54-1.13,43.08,5.27,10.41,4.57,15.67,8.67,15.64,12.18,0,1.14-.57,2.73-3.24,3.85A23.32,23.32,0,0,1,174.6,340.66Zm-38.49-22.87c-3.6,0-6.09.46-6.72,1.4-.27.4.18,1.24,1.21,2.23h0c16.08,15.5,43.24,19.71,51.84,16.1.91-.38,2-1,2-2s-1-4.42-14.45-10.33C158.92,320.29,144.5,317.79,136.11,317.79Z" fill="#fff"/><path d="M168.84,335.86c-1.82,0-5-.6-10.69-2.79-15.4-5.9-15-8.2-14.82-9.18s1.27-1.69,3-1.72h0c12.05-.22,23.6,6.71,25.27,10.53a2,2,0,0,1-.27,2.36C171.06,335.33,170.55,335.86,168.84,335.86Zm-23.45-11.55c.38.58,2.46,2.67,13.47,6.9,8.93,3.42,10.82,2.57,11,2.48a4.26,4.26,0,0,0-.95-1.35c-3.32-3.53-13-8.33-22.55-8.17h0A3.36,3.36,0,0,0,145.39,324.31Z" fill="#fff"/></g><path d="M492.62,260.37a64,64,0,0,1-44.77-18.16L382,175.93a28.78,28.78,0,1,0-.93,41l13.61-13.72a1.5,1.5,0,0,1,2.13,2.12l-13.64,13.75a31.79,31.79,0,1,1,1-45.31L450,240.08a61.37,61.37,0,1,0-1.18-87l-12.64,12.74a1.5,1.5,0,0,1-2.13-2.11L446.64,151a64.36,64.36,0,1,1,46,109.38Z" fill="#fc6d26"/><path d="M361.42,260.37a64.37,64.37,0,1,1,46-109.36l65.43,65.89a28.79,28.79,0,1,0-.83-41l-13.21,13.32a1.5,1.5,0,1,1-2.13-2.11l13.2-13.31a31.51,31.51,0,0,1,22.74-9.6,31.79,31.79,0,1,1-21.87,54.84l-65.46-65.93a61.37,61.37,0,1,0-1.07,86.82l13.24-13.34a1.5,1.5,0,1,1,2.13,2.11l-13.26,13.36A64,64,0,0,1,361.42,260.37Z" fill="#fc6d26"/><path d="M526.49,147.27a4.25,4.25,0,1,1,4.25-4.24A4.24,4.24,0,0,1,526.49,147.27Zm0-5.49a1.25,1.25,0,1,0,1.25,1.25A1.25,1.25,0,0,0,526.49,141.78Z" fill="#fc6d26"/><path d="M534.13,246.94a4.24,4.24,0,1,1,4.25-4.24A4.25,4.25,0,0,1,534.13,246.94Zm0-5.48a1.24,1.24,0,1,0,1.25,1.24A1.25,1.25,0,0,0,534.13,241.46Z" fill="#fc6d26"/><path d="M518.76,185.32a4.25,4.25,0,1,1,4.25-4.25A4.25,4.25,0,0,1,518.76,185.32Zm0-5.49a1.25,1.25,0,1,0,1.25,1.24A1.25,1.25,0,0,0,518.76,179.83Z" fill="#fc6d26"/><path d="M440.31,236.52a4.24,4.24,0,1,1,4.25-4.24A4.24,4.24,0,0,1,440.31,236.52Zm0-5.48a1.24,1.24,0,1,0,1.25,1.24A1.25,1.25,0,0,0,440.31,231Z" fill="#fc6d26"/><path d="M485.53,229.88a4.24,4.24,0,1,1,4.24-4.24A4.24,4.24,0,0,1,485.53,229.88Zm0-5.48a1.24,1.24,0,1,0,0,2.48,1.24,1.24,0,1,0,0-2.48Z" fill="#fc6d26"/><path d="M375.6,173.6a4.24,4.24,0,1,1,4.24-4.24A4.24,4.24,0,0,1,375.6,173.6Zm0-5.48a1.24,1.24,0,0,0,0,2.48,1.24,1.24,0,0,0,0-2.48Z" fill="#fc6d26"/><path d="M333.43,211.54a4.24,4.24,0,1,1,4.24-4.24A4.24,4.24,0,0,1,333.43,211.54Zm0-5.48a1.24,1.24,0,0,0,0,2.48,1.24,1.24,0,0,0,0-2.48Z" fill="#fc6d26"/><path d="M381.76,140.6a4.25,4.25,0,1,1,4.24-4.24A4.25,4.25,0,0,1,381.76,140.6Zm0-5.49a1.25,1.25,0,1,0,1.24,1.25A1.24,1.24,0,0,0,381.76,135.11Z" fill="#fc6d26"/><path d="M344,260.56a4.24,4.24,0,1,1,4.24-4.24A4.24,4.24,0,0,1,344,260.56Zm0-5.48a1.24,1.24,0,1,0,1.24,1.24A1.23,1.23,0,0,0,344,255.08Z" fill="#fc6d26"/><circle cx="301.98" cy="176.05" r="2.74" fill="none" stroke="#fc6d26" stroke-linecap="round" stroke-linejoin="round" stroke-width="3"/><path d="M395.47,208.8a4.24,4.24,0,1,1,4.25-4.24A4.24,4.24,0,0,1,395.47,208.8Zm0-5.48a1.24,1.24,0,1,0,1.25,1.24A1.24,1.24,0,0,0,395.47,203.32Z" fill="#fc6d26"/><path d="M418.41,232.09a4.25,4.25,0,1,1,4.24-4.25A4.25,4.25,0,0,1,418.41,232.09Zm0-5.49a1.25,1.25,0,1,0,1.24,1.24A1.24,1.24,0,0,0,418.41,226.6Z" fill="#fc6d26"/><path d="M457.72,192.44A4.24,4.24,0,1,1,462,188.2,4.24,4.24,0,0,1,457.72,192.44Zm0-5.48A1.24,1.24,0,1,0,459,188.2,1.24,1.24,0,0,0,457.72,187Z" fill="#fc6d26"/><path d="M435,168.83a4.24,4.24,0,1,1,4.24-4.24A4.24,4.24,0,0,1,435,168.83Zm0-5.48a1.24,1.24,0,0,0,0,2.48,1.24,1.24,0,0,0,0-2.48Z" fill="#fc6d26"/><circle cx="656.39" cy="230.6" r="2.74" fill="#fff"/><path d="M656.38,234.34a3.71,3.71,0,0,1-2.45-.92,3.74,3.74,0,0,1,2.2-6.56,3.74,3.74,0,0,1,3.08,6.19,3.75,3.75,0,0,1-2.56,1.28Zm0-5.49h-.13a1.74,1.74,0,0,0,.25,3.47,1.71,1.71,0,0,0,1.19-.59,1.68,1.68,0,0,0,.42-1.27h0a1.74,1.74,0,0,0-1.73-1.62Z" fill="#fff"/><circle cx="714.65" cy="245.36" r="2.74" fill="#fff"/><path d="M714.64,249.1a3.71,3.71,0,0,1-2.45-.92,3.74,3.74,0,1,1,4.91-5.65,3.71,3.71,0,0,1,1.28,2.56h0a3.75,3.75,0,0,1-3.47,4Zm0-5.49h-.12a1.73,1.73,0,0,0-1.2.59,1.77,1.77,0,0,0-.42,1.27,1.73,1.73,0,0,0,1.86,1.61,1.75,1.75,0,0,0,1.62-1.86h0A1.76,1.76,0,0,0,714.65,243.61Z" fill="#fff"/><circle cx="725.94" cy="264.04" r="2.74" fill="#fff"/><path d="M725.94,267.78a3.74,3.74,0,1,1,3.73-4h0a3.75,3.75,0,0,1-3.47,4Zm0-5.49h-.12a1.73,1.73,0,0,0-1.2.59,1.78,1.78,0,0,0-.42,1.27,1.74,1.74,0,1,0,3.48-.24h0a1.79,1.79,0,0,0-.6-1.2A1.72,1.72,0,0,0,725.94,262.29Z" fill="#fff"/><circle cx="707.03" cy="275.06" r="2.74" fill="#fff"/><path d="M707,278.8a3.74,3.74,0,1,1,3.73-4h0a3.75,3.75,0,0,1-3.47,4Zm0-5.49h-.12a1.73,1.73,0,0,0-1.2.59,1.77,1.77,0,0,0-.42,1.27,1.74,1.74,0,0,0,3.48-.25h0a1.74,1.74,0,0,0-.6-1.19A1.72,1.72,0,0,0,707,273.31Z" fill="#fff"/><circle cx="664.12" cy="274.03" r="2.74" fill="#fff"/><path d="M664.11,277.77a3.76,3.76,0,1,1,.27,0Zm0-5.48H664a1.74,1.74,0,0,0-1.61,1.86,1.71,1.71,0,0,0,.59,1.19,1.73,1.73,0,0,0,1.27.43,1.76,1.76,0,0,0,1.19-.6,1.67,1.67,0,0,0,.42-1.26h0a1.73,1.73,0,0,0-.59-1.2A1.76,1.76,0,0,0,664.12,272.29Z" fill="#fff"/><circle cx="696.13" cy="231.9" r="2.74" fill="#fff"/><path d="M696.13,235.64a3.74,3.74,0,1,1,2.46-6.57,3.76,3.76,0,0,1,1.28,2.57h0a3.75,3.75,0,0,1-3.47,4Zm0-5.48H696a1.74,1.74,0,0,0,.25,3.48,1.78,1.78,0,0,0,1.19-.6,1.76,1.76,0,0,0,.42-1.26h0a1.73,1.73,0,0,0-.59-1.2A1.76,1.76,0,0,0,696.14,230.16Z" fill="#fff"/><circle cx="637.77" cy="241.69" r="2.74" fill="#fff"/><path d="M637.77,245.43a3.67,3.67,0,0,1-2.45-.92,3.74,3.74,0,1,1,6.18-3.09h0a3.75,3.75,0,0,1-3.47,4Zm0-5.49h-.12a1.71,1.71,0,0,0-1.19.59,1.73,1.73,0,0,0-.43,1.27,1.78,1.78,0,0,0,.6,1.19,1.67,1.67,0,0,0,1.26.42,1.74,1.74,0,0,0,1.62-1.86h0A1.75,1.75,0,0,0,637.77,239.94Z" fill="#fff"/><circle cx="648.93" cy="260.28" r="2.74" fill="#fff"/><path d="M648.93,264a3.75,3.75,0,0,1-3.73-3.48,3.74,3.74,0,0,1,6.19-3.09A3.74,3.74,0,0,1,649.2,264Zm0-5.49h-.13a1.71,1.71,0,0,0-1.19.59,1.68,1.68,0,0,0-.42,1.27,1.74,1.74,0,0,0,3,1,1.77,1.77,0,0,0,.42-1.27,1.74,1.74,0,0,0-1.73-1.62Z" fill="#fff"/><path d="M648.85,261.29a1,1,0,0,1-.86-.49l-11.08-18.61a1,1,0,0,1,.35-1.37l18.62-11.08a1,1,0,1,1,1,1.71L639.14,242l10.57,17.76a1,1,0,0,1-.35,1.37A1.06,1.06,0,0,1,648.85,261.29Z" fill="#fff"/><path d="M707,276.06a1,1,0,0,1-.86-.49,1,1,0,0,1,.35-1.37l17.76-10.57-10.57-17.76a1,1,0,0,1,.35-1.37,1,1,0,0,1,1.37.35l11.08,18.62a1,1,0,0,1-.35,1.37l-18.62,11.08A1.06,1.06,0,0,1,707,276.06Z" fill="#fff"/><path d="M664.11,275a1,1,0,0,1-.6-.2,1,1,0,0,1-.19-1.41l32-42.13a1,1,0,0,1,1.59,1.21l-32,42.13A1,1,0,0,1,664.11,275Z" fill="#fff"/><path d="M687.33,120.15a1.13,1.13,0,0,1-.32-.05L648.6,107a3.57,3.57,0,0,1-2.42-3.44L646.72,67a2.3,2.3,0,0,1,4.17-1.28L664.48,85,686.94,78l.35-23.58a2.3,2.3,0,0,1,4.16-1.29l21.07,29.93a3.57,3.57,0,0,1-.06,4.21l-24.33,32.45A1,1,0,0,1,687.33,120.15ZM649,66.71l-.09,0a.28.28,0,0,0-.22.28l-.54,36.58a1.57,1.57,0,0,0,1.07,1.52L687,118l23.9-31.87a1.58,1.58,0,0,0,0-1.86L689.82,54.32a.29.29,0,0,0-.53.16l-.36,24.31a1,1,0,0,1-.7.94L664.38,87.1a1,1,0,0,1-1.11-.38l-14-19.88A.24.24,0,0,0,649,66.71Z" fill="#fff"/><circle cx="687.24" cy="119.15" r="2.74" fill="#fff"/><path d="M687.24,122.89a3.74,3.74,0,0,1-.26-7.47,3.76,3.76,0,0,1,4,3.47h0a3.73,3.73,0,0,1-3.47,4Zm0-5.48h-.12a1.74,1.74,0,0,0-1.61,1.86,1.69,1.69,0,0,0,.59,1.19,1.72,1.72,0,0,0,1.27.43A1.75,1.75,0,0,0,689,119h0A1.74,1.74,0,0,0,687.24,117.41Z" fill="#fff"/><circle cx="712.17" cy="85.12" r="2.74" fill="#fff"/><path d="M712.17,88.86a3.74,3.74,0,0,1-.26-7.47,3.66,3.66,0,0,1,2.72.91,3.71,3.71,0,0,1,1.28,2.56,3.73,3.73,0,0,1-3.47,4Zm0-5.48h-.13a1.74,1.74,0,1,0,1.44,2.88,1.67,1.67,0,0,0,.42-1.26h0a1.69,1.69,0,0,0-.59-1.19A1.72,1.72,0,0,0,712.18,83.38Z" fill="#fff"/><circle cx="689.1" cy="53.54" r="2.74" fill="#fff"/><path d="M689.1,57.28a3.75,3.75,0,0,1-3.73-3.48,3.75,3.75,0,0,1,3.47-4,3.8,3.8,0,0,1,2.72.91,3.74,3.74,0,0,1,.37,5.28,3.72,3.72,0,0,1-2.57,1.28Zm0-5.48H689a1.74,1.74,0,1,0,.24,3.48,1.79,1.79,0,0,0,1.2-.6,1.76,1.76,0,0,0,.42-1.26h0a1.72,1.72,0,0,0-1.73-1.62Z" fill="#fff"/><circle cx="687.65" cy="78.57" r="2.74" fill="#fff"/><path d="M687.65,82.31a3.74,3.74,0,1,1,3.73-4h0a3.73,3.73,0,0,1-3.47,4Zm0-5.48h-.12a1.74,1.74,0,1,0,.24,3.48,1.76,1.76,0,0,0,1.62-1.86h0A1.75,1.75,0,0,0,687.65,76.83Z" fill="#fff"/><circle cx="664.49" cy="86.17" r="2.74" fill="#fff"/><path d="M664.48,89.92a3.74,3.74,0,0,1-.26-7.48,3.7,3.7,0,0,1,2.72.91,3.75,3.75,0,0,1,1.28,2.56h0a3.71,3.71,0,0,1-.91,2.72,3.75,3.75,0,0,1-2.56,1.28Zm0-5.49h-.13a1.74,1.74,0,1,0,1.86,1.61h0a1.74,1.74,0,0,0-1.73-1.62Z" fill="#fff"/><circle cx="648.74" cy="66.08" r="2.74" fill="#fff"/><path d="M648.73,69.83a3.74,3.74,0,1,1,3.74-4h0a3.75,3.75,0,0,1-3.47,4Zm0-5.49h-.12a1.74,1.74,0,1,0,.24,3.47,1.69,1.69,0,0,0,1.19-.59,1.73,1.73,0,0,0,.43-1.27h0a1.76,1.76,0,0,0-.6-1.19A1.72,1.72,0,0,0,648.74,64.34Z" fill="#fff"/><circle cx="647.53" cy="104.81" r="2.74" fill="#fff"/><path d="M647.53,108.55a3.74,3.74,0,0,1-.26-7.47,3.75,3.75,0,0,1,4,3.47h0a3.75,3.75,0,0,1-3.47,4Zm0-5.48h-.12a1.79,1.79,0,0,0-1.2.6,1.74,1.74,0,1,0,3.06,1h0a1.76,1.76,0,0,0-.6-1.19A1.72,1.72,0,0,0,647.53,103.07Z" fill="#fff"/><polyline points="119.63 204.15 131.43 217.04 156.88 191.59" fill="none" stroke="#fff" stroke-linecap="round" stroke-linejoin="round" stroke-width="2"/><circle cx="131.57" cy="216.72" r="3.07" fill="#fff" stroke="#fff" stroke-linecap="round" stroke-linejoin="round" stroke-width="2"/><circle cx="156.88" cy="191.89" r="3.07" fill="#fff" stroke="#fff" stroke-linecap="round" stroke-linejoin="round" stroke-width="2"/><circle cx="119.63" cy="204.24" r="3.07" fill="#fff" stroke="#fff" stroke-linecap="round" stroke-linejoin="round" stroke-width="2"/><path d="M233.07,74.73,236,63.27a20.11,20.11,0,0,0-14.61-24.41h0a20.12,20.12,0,0,0-24.41,14.62l-2.88,11.46" fill="none" stroke="#fff" stroke-linecap="round" stroke-linejoin="round" stroke-width="2"/><polyline points="185.69 62.84 241.44 76.83 231.29 117.29 175.54 103.3 185.69 62.84" fill="none" stroke="#fff" stroke-linecap="round" stroke-linejoin="round" stroke-width="2"/><circle cx="231.29" cy="117.29" r="2.74" fill="#fff" stroke="#fff" stroke-linecap="round" stroke-linejoin="round" stroke-width="2"/><circle cx="175.54" cy="103.3" r="2.74" fill="#fff" stroke="#fff" stroke-linecap="round" stroke-linejoin="round" stroke-width="2"/><circle cx="185.69" cy="62.84" r="2.74" fill="#fff" stroke="#fff" stroke-linecap="round" stroke-linejoin="round" stroke-width="2"/><circle cx="221.34" cy="38.86" r="2.74" fill="#fff" stroke="#fff" stroke-linecap="round" stroke-linejoin="round" stroke-width="2"/><circle cx="208.73" cy="89.09" r="2.74" fill="#fff" stroke="#fff" stroke-linecap="round" stroke-linejoin="round" stroke-width="2"/><circle cx="241.44" cy="76.83" r="2.74" fill="#fff" stroke="#fff" stroke-linecap="round" stroke-linejoin="round" stroke-width="2"/><line x1="208.73" y1="89.09" x2="206.25" y2="98.98" fill="none" stroke="#fff" stroke-linecap="round" stroke-linejoin="round" stroke-width="2"/><rect x="212.88" y="291.49" width="65.65" height="42.39" transform="translate(-86.36 93.87) rotate(-18.46)" stroke-width="2" stroke="#fff" stroke-linecap="round" stroke-linejoin="round" fill="none"/><polygon points="239.55 279.34 203.93 291.23 207.85 302.97 254.69 287.34 239.55 279.34" fill="none" stroke="#fff" stroke-linecap="round" stroke-linejoin="round" stroke-width="2"/><circle cx="239.75" cy="279.72" r="2.74" fill="#fff" stroke="#fff" stroke-linecap="round" stroke-linejoin="round" stroke-width="2"/><circle cx="204.07" cy="291.63" r="2.74" fill="#fff" stroke="#fff" stroke-linecap="round" stroke-linejoin="round" stroke-width="2"/><circle cx="221.28" cy="343.19" r="2.74" fill="#fff" stroke="#fff" stroke-linecap="round" stroke-linejoin="round" stroke-width="2"/><circle cx="283.55" cy="322.4" r="2.74" fill="#fff" stroke="#fff" stroke-linecap="round" stroke-linejoin="round" stroke-width="2"/><circle cx="270.13" cy="282.19" r="2.74" fill="#fff" stroke="#fff" stroke-linecap="round" stroke-linejoin="round" stroke-width="2"/><path d="M417.23,78.2a1,1,0,0,1-.74-.33L403.17,63.18,377.85,68.6a1,1,0,0,1-.42-2l25.88-5.54a1,1,0,0,1,.95.31l12.27,13.53,5.41-39.49a1,1,0,0,1,1.69-.59L437.7,48.44,463,43a1,1,0,0,1,.42,2L437.6,50.51a1,1,0,0,1-.91-.26l-13-12.58-5.44,39.67a1,1,0,0,1-.69.82A1,1,0,0,1,417.23,78.2Z" fill="#fff"/><circle cx="422.98" cy="36.13" r="2.74" fill="#fff"/><path d="M423,39.87h-.14a3.74,3.74,0,0,1-3.6-3.88,3.69,3.69,0,0,1,1.18-2.6,3.75,3.75,0,0,1,6.3,2.87h0A3.76,3.76,0,0,1,423,39.87Zm0-5.49a1.72,1.72,0,0,0-1.18.47,1.76,1.76,0,0,0-.56,1.21,1.74,1.74,0,0,0,.47,1.25,1.76,1.76,0,0,0,1.21.56,1.74,1.74,0,0,0,1.25-.47,1.76,1.76,0,0,0,.56-1.21,1.74,1.74,0,0,0-.47-1.25,1.76,1.76,0,0,0-1.21-.56Zm2.75,1.84h0Z" fill="#fff"/><circle cx="417.05" cy="77.24" r="2.74" fill="#fff"/><path d="M417.05,81h-.13a3.74,3.74,0,1,1,3.87-3.61A3.74,3.74,0,0,1,417.05,81Zm0-5.48A1.74,1.74,0,0,0,417,79a1.7,1.7,0,0,0,1.25-.47,1.67,1.67,0,0,0,.55-1.21,1.74,1.74,0,0,0-1.68-1.8Z" fill="#fff"/><circle cx="403.7" cy="62.18" r="2.74" fill="#fff"/><path d="M403.71,65.93h-.14a3.74,3.74,0,1,1,3.87-3.61h0A3.75,3.75,0,0,1,403.71,65.93Zm0-5.49a1.72,1.72,0,1,0,.07,0Zm2.75,1.84h0Z" fill="#fff"/><circle cx="378.34" cy="67.61" r="2.74" fill="#fff"/><path d="M378.34,71.35h-.13a3.74,3.74,0,1,1,3.87-3.61h0A3.74,3.74,0,0,1,378.34,71.35Zm0-5.48a1.74,1.74,0,0,0-1.27,2.93,1.71,1.71,0,0,0,1.21.55,1.74,1.74,0,1,0,.12-3.48Zm2.74,1.84h0Z" fill="#fff"/><circle cx="463.13" cy="43.85" r="2.74" fill="#fff"/><path d="M463.13,47.59H463A3.74,3.74,0,1,1,466.87,44h0A3.74,3.74,0,0,1,463.13,47.59Zm0-5.48a1.71,1.71,0,1,0,.06,0ZM465.87,44h0Z" fill="#fff"/><circle cx="437.77" cy="49.28" r="2.74" fill="#fff"/><path d="M437.77,53h-.13a3.74,3.74,0,1,1,3.87-3.61h0A3.74,3.74,0,0,1,437.77,53Zm0-5.48a1.72,1.72,0,0,0-1.19.47,1.67,1.67,0,0,0-.55,1.21,1.72,1.72,0,0,0,.47,1.25,1.67,1.67,0,0,0,1.21.55,1.74,1.74,0,0,0,.12-3.48Zm2.74,1.84h0Z" fill="#fff"/><path d="M518.63,356.08H478.4a14.36,14.36,0,0,1,0-28.72c.3,0,.59,0,.88,0a18.65,18.65,0,0,1,36.08-4,16.27,16.27,0,0,1,3.27-.33,16.51,16.51,0,0,1,0,33ZM478.4,329.36a12.36,12.36,0,0,0,0,24.72h40.23a14.51,14.51,0,0,0,0-29,14.18,14.18,0,0,0-3.68.48,1,1,0,0,1-1.22-.68,16.64,16.64,0,0,0-32.55,3.68,1,1,0,0,1-1.13.92A12.94,12.94,0,0,0,478.4,329.36Z" fill="#fff"/><circle cx="514.73" cy="323.94" r="2.74" fill="#fff"/><path d="M514.73,327.68a3.54,3.54,0,0,1-.91-.11,3.69,3.69,0,0,1-2.3-1.71,3.65,3.65,0,0,1-.42-2.83,3.74,3.74,0,1,1,3.63,4.65Zm0-5.48a1.75,1.75,0,0,0-1.69,1.32,1.7,1.7,0,0,0,.19,1.32,1.75,1.75,0,0,0,1.07.79,1.78,1.78,0,0,0,1.32-.19,1.76,1.76,0,0,0,.8-1.08,1.76,1.76,0,0,0-1.27-2.11A2,2,0,0,0,514.73,322.2Z" fill="#fff"/><circle cx="480.32" cy="328.21" r="2.74" fill="#fff"/><path d="M480.32,332a4.2,4.2,0,0,1-.92-.11,3.79,3.79,0,1,1,.92.11Zm0-5.49a1.75,1.75,0,0,0-.43,3.44,1.76,1.76,0,0,0,2.12-1.27h0a1.75,1.75,0,0,0-.2-1.32,1.71,1.71,0,0,0-1.07-.79A1.52,1.52,0,0,0,480.32,326.46Z" fill="#fff"/><circle cx="520.21" cy="355.08" r="2.74" fill="#fff"/><path d="M520.21,358.82a4.11,4.11,0,0,1-.91-.11,3.74,3.74,0,1,1,1.82-7.26,3.73,3.73,0,0,1,2.72,4.54h0A3.75,3.75,0,0,1,520.21,358.82Zm0-5.49a1.76,1.76,0,1,0,.43.06A1.59,1.59,0,0,0,520.21,353.33Zm2.66,2.41h0Z" fill="#fff"/><circle cx="477.57" cy="355.08" r="2.74" fill="#fff"/><path d="M477.57,358.82a4.11,4.11,0,0,1-.91-.11A3.74,3.74,0,1,1,481.2,356h0A3.75,3.75,0,0,1,477.57,358.82Zm0-5.49a1.75,1.75,0,1,0,1.69,2.17,1.73,1.73,0,0,0-1.26-2.11A1.59,1.59,0,0,0,477.57,353.33Zm2.66,2.41h0Z" fill="#fff"/><path d="M412.8,290.39l.61,2.91a2.27,2.27,0,0,0,1.76,1.76l2.91.61a1.06,1.06,0,0,1,0,2.07l-2.91.61a2.27,2.27,0,0,0-1.76,1.76L412.8,303a1.06,1.06,0,0,1-2.07,0l-.61-2.91a2.3,2.3,0,0,0-1.76-1.76l-2.91-.61a1.06,1.06,0,0,1,0-2.07l2.91-.61a2.3,2.3,0,0,0,1.76-1.76l.61-2.91A1.06,1.06,0,0,1,412.8,290.39Z" fill="#ac7fff"/><path d="M135.67,379.16l.61,2.91a2.3,2.3,0,0,0,1.76,1.76l2.91.61a1.06,1.06,0,0,1,0,2.07l-2.91.61a2.3,2.3,0,0,0-1.76,1.76l-.61,2.91a1.06,1.06,0,0,1-2.07,0l-.61-2.91a2.3,2.3,0,0,0-1.76-1.76l-2.91-.61a1.06,1.06,0,0,1,0-2.07l2.91-.61a2.3,2.3,0,0,0,1.76-1.76l.61-2.91A1.06,1.06,0,0,1,135.67,379.16Z" fill="#ac7fff"/><path d="M106.3,68.18l.61,2.91a2.27,2.27,0,0,0,1.76,1.76l2.91.61a1.06,1.06,0,0,1,0,2.07l-2.91.61a2.3,2.3,0,0,0-1.76,1.76l-.61,2.91a1.06,1.06,0,0,1-2.07,0l-.61-2.91a2.3,2.3,0,0,0-1.76-1.76L99,75.53a1.06,1.06,0,0,1,0-2.07l2.91-.61a2.27,2.27,0,0,0,1.76-1.76l.61-2.91A1.06,1.06,0,0,1,106.3,68.18Z" fill="#ac7fff"/><path d="M589.9,95.75l.61,2.91a2.24,2.24,0,0,0,1.76,1.76l2.91.61a1.06,1.06,0,0,1,0,2.08l-2.91.61a2.24,2.24,0,0,0-1.76,1.76l-.61,2.91a1.06,1.06,0,0,1-2.08,0l-.61-2.91a2.24,2.24,0,0,0-1.76-1.76l-2.91-.61a1.06,1.06,0,0,1,0-2.08l2.91-.61a2.24,2.24,0,0,0,1.76-1.76l.61-2.91A1.06,1.06,0,0,1,589.9,95.75Z" fill="#ac7fff"/><path d="M742,351.5l.62,2.91a2.25,2.25,0,0,0,1.75,1.76l2.91.61a1.06,1.06,0,0,1,0,2.07l-2.91.61a2.27,2.27,0,0,0-1.75,1.76l-.62,2.91a1.06,1.06,0,0,1-2.07,0l-.61-2.91a2.27,2.27,0,0,0-1.76-1.76l-2.91-.61a1.06,1.06,0,0,1,0-2.07l2.91-.61a2.24,2.24,0,0,0,1.76-1.76l.61-2.91A1.06,1.06,0,0,1,742,351.5Z" fill="#ac7fff"/><path d="M667.5,384.28l.37,1.79a1.41,1.41,0,0,0,1.08,1.08l1.79.37a.65.65,0,0,1,0,1.28l-1.79.37a1.41,1.41,0,0,0-1.08,1.08L667.5,392a.65.65,0,0,1-1.28,0l-.37-1.79a1.42,1.42,0,0,0-1.09-1.08L663,388.8a.65.65,0,0,1,0-1.28l1.79-.37a1.42,1.42,0,0,0,1.09-1.08l.37-1.79A.65.65,0,0,1,667.5,384.28Z" fill="#ac7fff"/><circle cx="315.71" cy="87.86" r="1.3" fill="#ac7fff"/><path d="M315.71,90.67h-.1a2.8,2.8,0,0,1-2.7-2.91,2.8,2.8,0,0,1,2.89-2.7,2.8,2.8,0,0,1,2,.89,2.77,2.77,0,0,1,.75,2h0a2.82,2.82,0,0,1-2.8,2.71Zm-.2-2.81a.22.22,0,0,0,.19.2c.08,0,.2-.08.2-.19a.2.2,0,1,0-.39,0Z" fill="#ac7fff"/><circle cx="49.33" cy="274.03" r="1.3" fill="#ac7fff" stroke="#ac7fff" stroke-linecap="round" stroke-linejoin="round" stroke-width="3"/><circle cx="336.17" cy="333.54" r="1.3" fill="#ac7fff"/><path d="M336.18,336.35h-.11a2.81,2.81,0,0,1,.2-5.61,2.78,2.78,0,0,1,2,.89,2.82,2.82,0,0,1,.76,2h0a2.87,2.87,0,0,1-.89,2A2.83,2.83,0,0,1,336.18,336.35Zm-.2-2.81a.21.21,0,0,0,.19.2.22.22,0,0,0,.2-.19.19.19,0,0,0-.19-.2.23.23,0,0,0-.2.19Z" fill="#ac7fff"/><circle cx="828.45" cy="173.31" r="1.3" fill="#ac7fff"/><path d="M828.45,176.11h-.1a2.74,2.74,0,0,1-2-.89,2.79,2.79,0,0,1,.13-4,2.81,2.81,0,0,1,4.72,2.15h0a2.8,2.8,0,0,1-2.8,2.7Zm-.2-2.81a.21.21,0,0,0,.19.21c.09,0,.2-.1.2-.19Zm1.5.06h0Zm-1.3-.25a.22.22,0,0,0-.2.19l.39,0a.21.21,0,0,0-.19-.21Z" fill="#ac7fff"/><circle cx="534.13" cy="38.87" r="1.3" fill="#ac7fff"/><path d="M534.14,41.67H534a2.8,2.8,0,1,1,2.9-2.71h0a2.85,2.85,0,0,1-.89,2A2.79,2.79,0,0,1,534.14,41.67Zm-.2-2.81a.2.2,0,1,0,.39,0,.22.22,0,0,0-.19-.2.23.23,0,0,0-.2.19Z" fill="#ac7fff"/><circle cx="792.31" cy="33.38" r="1.3" fill="#ac7fff"/><path d="M792.31,36.19h-.09a2.85,2.85,0,0,1-2-.89,2.8,2.8,0,0,1-.75-2,2.84,2.84,0,0,1,2.9-2.7,2.81,2.81,0,0,1-.1,5.61Zm-.19-2.81a.21.21,0,0,0,.19.2c.11,0,.2-.1.2-.19a.22.22,0,0,0-.19-.2.2.2,0,0,0-.2.19Z" fill="#ac7fff"/><line x1="272.87" y1="24.09" x2="272.87" y2="24.09" fill="none" stroke="#ac7fff" stroke-linecap="round" stroke-linejoin="round" stroke-width="3"/><g opacity="0.3"><path d="M775.59,96.68l.38,1.79a1.41,1.41,0,0,0,1.08,1.08l1.79.37a.65.65,0,0,1,0,1.28l-1.79.37a1.41,1.41,0,0,0-1.08,1.08l-.38,1.79a.65.65,0,0,1-1.27,0l-.38-1.79a1.39,1.39,0,0,0-1.08-1.08l-1.79-.37a.65.65,0,0,1,0-1.28l1.79-.37a1.39,1.39,0,0,0,1.08-1.08l.38-1.79A.65.65,0,0,1,775.59,96.68Z" fill="#ac7fff"/><path d="M95.16,322.8l.38,1.79a1.39,1.39,0,0,0,1.08,1.08l1.79.38a.65.65,0,0,1,0,1.27l-1.79.38a1.38,1.38,0,0,0-1.08,1.08l-.38,1.79a.65.65,0,0,1-1.27,0l-.38-1.79a1.38,1.38,0,0,0-1.08-1.08l-1.79-.38a.65.65,0,0,1,0-1.27l1.79-.38a1.39,1.39,0,0,0,1.08-1.08l.38-1.79A.65.65,0,0,1,95.16,322.8Z" fill="#ac7fff"/><path d="M231.92,192.11l.38,1.79a1.4,1.4,0,0,0,1.08,1.09l1.79.37a.65.65,0,0,1,0,1.27l-1.79.38a1.39,1.39,0,0,0-1.08,1.08l-.38,1.79a.65.65,0,0,1-1.27,0l-.38-1.79a1.39,1.39,0,0,0-1.08-1.08l-1.79-.38a.65.65,0,0,1,0-1.27l1.79-.37a1.4,1.4,0,0,0,1.08-1.09l.38-1.79A.65.65,0,0,1,231.92,192.11Z" fill="#ac7fff"/><path d="M231.92,192.11l.38,1.79a1.4,1.4,0,0,0,1.08,1.09l1.79.37a.65.65,0,0,1,0,1.27l-1.79.38a1.39,1.39,0,0,0-1.08,1.08l-.38,1.79a.65.65,0,0,1-1.27,0l-.38-1.79a1.39,1.39,0,0,0-1.08-1.08l-1.79-.38a.65.65,0,0,1,0-1.27l1.79-.37a1.4,1.4,0,0,0,1.08-1.09l.38-1.79A.65.65,0,0,1,231.92,192.11Z" fill="#ac7fff"/><path d="M354.26,9.91l.38,1.79a1.41,1.41,0,0,0,1.08,1.08l1.79.37a.65.65,0,0,1,0,1.28l-1.79.37a1.41,1.41,0,0,0-1.08,1.08l-.38,1.79a.65.65,0,0,1-1.27,0l-.38-1.79a1.41,1.41,0,0,0-1.08-1.08l-1.79-.37a.65.65,0,0,1,0-1.28l1.79-.37a1.41,1.41,0,0,0,1.08-1.08L353,9.91A.65.65,0,0,1,354.26,9.91Z" fill="#ac7fff"/><path d="M648.93,180.29a1.42,1.42,0,0,1-.29,0,1.61,1.61,0,0,1-.54-.23,1.37,1.37,0,0,1-.23-.19,1.48,1.48,0,0,1-.44-1,1.41,1.41,0,0,1,.12-.58,1.26,1.26,0,0,1,.13-.26,2.11,2.11,0,0,1,.19-.23,2,2,0,0,1,.23-.18,1.61,1.61,0,0,1,.54-.23,1.5,1.5,0,0,1,1.79,1.48,1.5,1.5,0,0,1-1.5,1.49Z" fill="#ac7fff"/><path d="M648.93,180.29a1.42,1.42,0,0,1-.29,0,1.61,1.61,0,0,1-.54-.23,1.37,1.37,0,0,1-.23-.19,1.48,1.48,0,0,1-.44-1,1.41,1.41,0,0,1,.12-.58,1.26,1.26,0,0,1,.13-.26,2.11,2.11,0,0,1,.19-.23,2,2,0,0,1,.23-.18,1.61,1.61,0,0,1,.54-.23,1.5,1.5,0,0,1,1.79,1.48,1.5,1.5,0,0,1-1.5,1.49Z" fill="#ac7fff"/><path d="M610.34,30.51a1.53,1.53,0,0,1-1.06-.43,1.37,1.37,0,0,1-.19-.23,2.15,2.15,0,0,1-.14-.26,1.47,1.47,0,0,1-.08-.28,1.5,1.5,0,0,1,.41-1.36,1.57,1.57,0,0,1,2.12,0,1.52,1.52,0,0,1,.44,1.06,1.49,1.49,0,0,1-1.5,1.5Z" fill="#ac7fff"/><path d="M827.14,71.85a1.37,1.37,0,0,1-.29,0,1.61,1.61,0,0,1-.54-.23,1.41,1.41,0,0,1-.23-.18,1.51,1.51,0,0,1,0-2.13,1.56,1.56,0,0,1,1.35-.41,1.61,1.61,0,0,1,.54.23,2,2,0,0,1,.23.18,2.11,2.11,0,0,1,.19.23,1.26,1.26,0,0,1,.13.26,1.43,1.43,0,0,1,0,1.15,1.26,1.26,0,0,1-.13.26,2.11,2.11,0,0,1-.19.23A1.55,1.55,0,0,1,827.14,71.85Z" fill="#ac7fff"/><path d="M799.65,305.36a1.43,1.43,0,0,1-.29,0,1.29,1.29,0,0,1-.28-.08l-.26-.14a1.37,1.37,0,0,1-.23-.19,1.5,1.5,0,0,1-.44-1.06,1.43,1.43,0,0,1,0-.29,1.31,1.31,0,0,1,.09-.28.94.94,0,0,1,.14-.26,1.3,1.3,0,0,1,.18-.23,1.55,1.55,0,0,1,2.12,0,1.37,1.37,0,0,1,.19.23,2.15,2.15,0,0,1,.14.26,1.29,1.29,0,0,1,.08.28,1.43,1.43,0,0,1,0,.29,1.53,1.53,0,0,1,0,.3,1.47,1.47,0,0,1-.08.28,2,2,0,0,1-.14.25,1.57,1.57,0,0,1-.42.42,2,2,0,0,1-.25.14,1.47,1.47,0,0,1-.28.08A1.53,1.53,0,0,1,799.65,305.36Z" fill="#ac7fff"/><path d="M149,257.82a1.5,1.5,0,1,1,.58-2.88,1.19,1.19,0,0,1,.25.13,1.45,1.45,0,0,1,.23.19,1.5,1.5,0,0,1,0,2.12,1.45,1.45,0,0,1-.23.19,1.19,1.19,0,0,1-.25.13,1.52,1.52,0,0,1-.28.09Z" fill="#ac7fff"/><path d="M38.1,76.47a1.43,1.43,0,0,1-.29,0,1.31,1.31,0,0,1-.28-.09.94.94,0,0,1-.26-.14A1.3,1.3,0,0,1,37,76,1.52,1.52,0,0,1,36.6,75,1.5,1.5,0,0,1,37,73.91a1.37,1.37,0,0,1,.23-.19l.26-.14.28-.08a1.47,1.47,0,0,1,.59,0l.28.08a2,2,0,0,1,.25.14,1.06,1.06,0,0,1,.23.19A1.5,1.5,0,0,1,39.6,75,1.52,1.52,0,0,1,39.16,76a1,1,0,0,1-.23.18.89.89,0,0,1-.25.14,1.41,1.41,0,0,1-.58.12Z" fill="#ac7fff"/><path d="M449.31,107.55l-.29,0a1.69,1.69,0,0,1-.77-.41,1.47,1.47,0,0,1-.32-1.64.94.94,0,0,1,.14-.26,1.24,1.24,0,0,1,.18-.22,1.37,1.37,0,0,1,.23-.19,1.61,1.61,0,0,1,.54-.23,1.54,1.54,0,0,1,1.35.42,1.48,1.48,0,0,1,.41,1.35,1.47,1.47,0,0,1-.08.28,2.15,2.15,0,0,1-.14.26,2.11,2.11,0,0,1-.19.23A1.5,1.5,0,0,1,449.31,107.55Z" fill="#ac7fff"/><path d="M26.46,379.82a1.5,1.5,0,0,1-1.06-.44,1.52,1.52,0,0,1-.44-1.06,1.36,1.36,0,0,1,0-.29.9.9,0,0,1,.08-.28,1.08,1.08,0,0,1,.14-.26,1.06,1.06,0,0,1,.19-.23,1.55,1.55,0,0,1,2.12,0,1,1,0,0,1,.18.23,1.08,1.08,0,0,1,.14.26,1.31,1.31,0,0,1,.09.28,1.36,1.36,0,0,1,0,.29,1.5,1.5,0,0,1-1.5,1.5Z" fill="#ac7fff"/><path d="M235.68,394.06a1.52,1.52,0,0,1-1.06-.44,1.5,1.5,0,0,1-.44-1.06,1.52,1.52,0,0,1,.44-1.06,1.55,1.55,0,0,1,2.12,0,1.52,1.52,0,0,1,.44,1.06,1.5,1.5,0,0,1-1.5,1.5Z" fill="#ac7fff"/><path d="M610.34,313.51a1.5,1.5,0,0,1-1.06-2.56,1.56,1.56,0,0,1,2.12,0,1.3,1.3,0,0,1,.18.23.94.94,0,0,1,.14.26,1.41,1.41,0,0,1,.12.58,1.53,1.53,0,0,1-.44,1.06A1.55,1.55,0,0,1,610.34,313.51Z" fill="#ac7fff"/><path d="M67,123.39a1.5,1.5,0,0,1-1.5-1.5,1.43,1.43,0,0,1,0-.29,2.29,2.29,0,0,1,.08-.28,2.15,2.15,0,0,1,.14-.26,2.11,2.11,0,0,1,.19-.23,1.55,1.55,0,0,1,2.12,0,2.11,2.11,0,0,1,.19.23,1.26,1.26,0,0,1,.13.26,1.31,1.31,0,0,1,.09.28,1.43,1.43,0,0,1,0,.29,1.5,1.5,0,0,1-.44,1.06A1.52,1.52,0,0,1,67,123.39Z" fill="#ac7fff"/><path d="M149,19.69a1.43,1.43,0,0,1-.29,0l-.28-.08-.26-.14a2.11,2.11,0,0,1-.23-.19,1.5,1.5,0,0,1-.44-1.06,1.43,1.43,0,0,1,0-.29,1.31,1.31,0,0,1,.09-.28,1.26,1.26,0,0,1,.13-.26,1.57,1.57,0,0,1,.42-.42,1.26,1.26,0,0,1,.26-.13,1.31,1.31,0,0,1,.28-.09,1.49,1.49,0,0,1,1.35.41,1.52,1.52,0,0,1,.44,1.06,1.5,1.5,0,0,1-1.5,1.5Z" fill="#ac7fff"/></g><path d="M229.43,441.32h0a8.7,8.7,0,0,1,8.71,8.7v.13H220.73V450" fill="none" stroke="#120d26" stroke-linecap="round" stroke-linejoin="round" stroke-width="2"/><path d="M239.4,476.57h-8.87v-19h-6.46a3.34,3.34,0,0,1-3.34-3.34v-4.1" fill="none" stroke="#120d26" stroke-linecap="round" stroke-linejoin="round" stroke-width="2"/><path d="M239.4,476.57l2.65,2a1.35,1.35,0,0,1-.8,2.43H230.53v-4.39" fill="none" stroke="#120d26" stroke-linecap="round" stroke-linejoin="round" stroke-width="2"/><path d="M239.6,458.15v18.42h8.87V458.52a8.37,8.37,0,0,0-8.37-8.37h-3.72" fill="none" stroke="#120d26" stroke-linecap="round" stroke-linejoin="round" stroke-width="2"/><path d="M248.47,476.57l2.65,2a1.35,1.35,0,0,1-.8,2.43H239.6" fill="none" stroke="#120d26" stroke-linecap="round" stroke-linejoin="round" stroke-width="2"/><line x1="213.39" y1="457.22" x2="222.35" y2="448.26" fill="none" stroke="#120d26" stroke-linecap="round" stroke-linejoin="round" stroke-width="2"/><path d="M229.43,441.32h-2.52a10.18,10.18,0,0,0-7.2,3l-9.92,9.91h0A2.84,2.84,0,0,0,207,457v.55" fill="none" stroke="#120d26" stroke-linecap="round" stroke-linejoin="round" stroke-width="2"/><line x1="211.01" y1="452.98" x2="214.27" y2="455.85" fill="none" stroke="#120d26" stroke-linecap="round" stroke-linejoin="round" stroke-width="2"/><circle cx="228.62" cy="430.48" r="5.97" fill="none" stroke="#120d26" stroke-linecap="round" stroke-linejoin="round" stroke-width="2"/><circle cx="221.19" cy="426.34" r="4.14" fill="#120d26" stroke="#120d26" stroke-linecap="round" stroke-linejoin="round" stroke-width="2"/><path d="M660.42,424.21a6.81,6.81,0,0,1-1.67-.2,7.16,7.16,0,0,1-2.35-12.89,1,1,0,1,1,1.12,1.66,5.12,5.12,0,0,0-2.11,3.05,5.17,5.17,0,0,0,9.94,2.81,1,1,0,1,1,1.9.61A7.2,7.2,0,0,1,660.42,424.21Z" fill="#120d26"/><polyline points="651.95 440.83 651.95 475.67 669.31 475.67 669.31 440.83" fill="none" stroke="#120d26" stroke-linecap="round" stroke-linejoin="round" stroke-width="2"/><path d="M669.31,445.5h5a0,0,0,0,1,0,0v2.92a2.51,2.51,0,0,1-2.51,2.51h0a2.51,2.51,0,0,1-2.51-2.51V445.5A0,0,0,0,1,669.31,445.5Z" fill="none" stroke="#120d26" stroke-linecap="round" stroke-linejoin="round" stroke-width="2"/><polyline points="660.63 475.67 660.63 445.5 658.87 445.5" fill="none" stroke="#120d26" stroke-linecap="round" stroke-linejoin="round" stroke-width="2"/><line x1="669.31" y1="480.96" x2="669.31" y2="475.66" fill="none" stroke="#120d26" stroke-linecap="round" stroke-linejoin="round" stroke-width="2"/><path d="M651.54,475.66,649,477.58c-1.38,1.11-.48,3.38.79,3.38" fill="none" stroke="#120d26" stroke-linecap="round" stroke-linejoin="round" stroke-width="2"/><path d="M660.43,475.66l-2.59,1.92a1.84,1.84,0,0,0,.78,3.38" fill="none" stroke="#120d26" stroke-linecap="round" stroke-linejoin="round" stroke-width="2"/><path d="M665.51,418.27h0a1.39,1.39,0,0,1-1-1.69l.65-2.7L658,412.1l-2.93-.71a1.72,1.72,0,0,1-1.27-2.07h0a1.72,1.72,0,0,1,2.08-1.27l7.48,1.8a2.94,2.94,0,0,1,2.17,3.55l-.12.48h0a2.49,2.49,0,0,1,1.84,3l-.09.34A1.4,1.4,0,0,1,665.51,418.27Z" fill="#120d26"/><path d="M665.84,419.31a2.1,2.1,0,0,1-.56-.07,2.41,2.41,0,0,1-1.78-2.9l.42-1.73-9.07-2.25a2.72,2.72,0,1,1,1.27-5.29l7.49,1.81a3.94,3.94,0,0,1,3,4.39,3.5,3.5,0,0,1,1.68,3.85l-.09.35a2.39,2.39,0,0,1-2.33,1.84Zm0-4.13-.39,1.63a.37.37,0,0,0,0,.31.4.4,0,0,0,.24.18h0a.43.43,0,0,0,.31-.05.4.4,0,0,0,.18-.25l.08-.34a1.49,1.49,0,0,0-.17-1.13A1.43,1.43,0,0,0,665.84,415.18ZM655.49,409a.72.72,0,0,0-.17,1.42l2.92.71,6.38,1.59a1.94,1.94,0,0,0-1.48-1.9l-7.49-1.8A.44.44,0,0,0,655.49,409Z" fill="#120d26"/><path d="M647.57,445.5v2.56a2.89,2.89,0,0,0,4.38,2.5" fill="none" stroke="#120d26" stroke-linecap="round" stroke-linejoin="round" stroke-width="2"/><path d="M674.34,446.5h-5a1,1,0,0,1-1-1v-8.92a1,1,0,1,1,2,0v7.92h3v-7.88a7.4,7.4,0,0,0-7.39-7.39H656a7.4,7.4,0,0,0-7.39,7.39v7.88H651v-7.92a1,1,0,1,1,2,0v8.92a1,1,0,0,1-1,1h-4.38a1,1,0,0,1-1-1v-8.88a9.4,9.4,0,0,1,9.39-9.39h10a9.4,9.4,0,0,1,9.39,9.39v8.88A1,1,0,0,1,674.34,446.5Z" fill="#120d26"/><line x1="47.25" y1="480.96" x2="43.32" y2="480.96" fill="none" stroke="#120d26" stroke-linecap="round" stroke-linejoin="round" stroke-width="2"/><line x1="69.02" y1="480.96" x2="53.32" y2="480.96" fill="none" stroke="#120d26" stroke-linecap="round" stroke-linejoin="round" stroke-width="2"/><path d="M224.07,457.59s-10.8-.34-14.91,0c-17,1.39-34,14-49.7,19.39a72.88,72.88,0,0,1-23.82,4H76.7" fill="none" stroke="#120d26" stroke-linecap="round" stroke-linejoin="round" stroke-width="2"/><path d="M757.29,481H633.81a120.07,120.07,0,0,1-24.1-2.44c-27.4-5.66-47.47-9.41-69.23-4.41-18.05,4.15-40.14,9.66-58,5.18-21.22-5.34-42.53-10.7-64.9-14.12s-46-4.86-68.71-2.24c-26.56,3.06-49,6.77-76.05,6.32-7.92-.13-15.95-2.11-24.05-4.41" fill="none" stroke="#120d26" stroke-linecap="round" stroke-linejoin="round" stroke-width="2"/><line x1="782.82" y1="480.96" x2="763.67" y2="480.96" fill="none" stroke="#120d26" stroke-linecap="round" stroke-linejoin="round" stroke-width="2"/><line x1="796.47" y1="480.96" x2="790.78" y2="480.96" fill="none" stroke="#120d26" stroke-linecap="round" stroke-linejoin="round" stroke-width="2"/><path d="M223.18,432.93s4.54-3.62,6.25-8.36C229.43,424.57,220.73,424.47,223.18,432.93Z" fill="#120d26" stroke="#120d26" stroke-linecap="round" stroke-linejoin="round" stroke-width="2"/><line x1="651.95" y1="440.83" x2="651.95" y2="455.99" fill="none" stroke="#120d26" stroke-linecap="round" stroke-linejoin="round" stroke-width="2"/><line x1="669.31" y1="440.83" x2="651.95" y2="440.83" fill="none" stroke="#120d26" stroke-linecap="round" stroke-linejoin="round" stroke-width="2"/></svg>