<svg height="970" viewBox="0 0 2280 970" width="2280" xmlns="http://www.w3.org/2000/svg"><g fill="none" fill-rule="evenodd"><g fill="#2c5b8d"><path d="m115.168088 788.38874c-7.289008 0-7.289008-1.439644-4.38378-4.38378l45.2126-64.161427c10.220175-13.125402 11.672788-16.03063 13.125402-16.03063v8.741622l-4.370811 70.010791c-1.452613 5.823424-1.452613 5.823424-7.289008 5.823424zm86.05439 87.519974c-17.509182-1.439644-17.509182-1.439644-16.043599-36.458009l7.289008-119.620142c1.452614-27.716388 2.918197-42.307373 2.918197-46.665214 0-1.465583-2.918197-2.944137-4.370811-2.944137 0 0-13.125402 8.767561-23.332607 10.207205-1.452613 5.849364-5.836394 14.590986-20.42738 33.565752l-58.3509717 77.286829c-24.7981905 35.005395-45.2126004 61.282139-53.9671917 71.489344-7.2890079 8.741621-14.5909855 13.125402-24.7981905 13.125402l-8.75459128 1.465583c-1.45261366 1.439644-1.45261366 5.823425 0 8.741622 11.67278838-1.439644 23.34557678-1.439644 36.47097888-1.439644 13.125402 0 23.3455768 0 33.5527817 1.439644 2.9181971-1.439644 2.9181971-7.289008 0-8.741622l-11.6727884-1.465583c-5.8363942-1.439644-7.2890078-2.918197-7.2890078-4.383781 0-2.918197 2.9181971-7.289008 14.5780157-24.79819l24.7981905-36.458009c5.8363942-8.767561 5.8363942-8.767561 16.0435996-8.767561h48.130797c7.289008 0 7.289008 0 7.289008 7.289008l-2.918197 42.307373c-1.465584 14.590985-2.931167 18.974766-4.383781 20.41441-1.452613 1.465583-5.836394 4.38378-13.125402 4.38378l-10.207205 1.465584c-2.931167 1.439643-2.931167 7.289007 0 8.741621 10.207205-1.439644 23.332607-1.439644 39.376206-1.439644 14.590986 0 26.250805 0 36.470979 1.439644 2.918197-1.439644 4.370811-7.289008 1.452614-8.741621zm67.092594-52.514578 1.452614 1.465583c23.332607-35.005395 56.885388-70.010791 81.683579-70.010791 13.125402 0 17.509182 7.289008 17.509182 17.509183 0 4.38378-1.465583 14.590985-4.37081 21.892963-5.836395 16.030629-30.634585 67.079624-30.634585 69.984851-1.465583 2.944137-1.465583 5.849364 0 5.849364 5.836394 0 21.879993-10.207205 30.634585-20.41441 5.836394-1.465583 5.836394 1.439644 5.836394 4.357841-13.138372 18.974766-37.936562 35.005396-56.885389 35.005396-2.918197 0-7.289008-4.357841-7.289008-7.289008 0-2.918197 0-5.823425 7.289008-21.867024 7.289008-14.590985 18.948827-46.691153 26.250804-62.721783 2.918197-5.849364 7.289008-16.056569 7.289008-21.892963 0-4.38378 0-8.741621-4.370811-8.741621-8.754591 0-27.716387 16.030629-46.678184 37.923592-17.509182 20.41441-30.634584 45.2126-49.59638 80.230966-2.918198 2.918197-4.370811 4.357841-7.289008 4.357841s-11.659819-1.439644-8.754592-8.741622c1.465584-4.38378 36.470979-94.821951 37.923593-99.192762 1.452614-4.357841 1.452614-7.289008-1.465584-7.289008-7.289007 0-18.961796 5.849364-29.169001 16.056569-2.918197 0-4.370811-2.918197-4.370811-5.849364 13.125403-16.030629 33.539812-29.156031 49.596381-29.156031 7.289008 0 11.659819 5.823424 8.754592 13.125402zm207.114175-51.048995c8.754592 0 14.590986 4.383781 16.0436 10.207205-4.383781 18.948826-18.961797 46.691154-43.759987 68.545207-18.961796 17.509183-29.169001 20.41441-32.087199 20.41441-2.918197 0-5.836394-1.439644-5.836394-5.823424 0-21.892963 20.41441-64.187367 42.294404-81.696549 10.220174-8.728652 14.590985-11.646849 23.345576-11.646849zm24.798191-4.383781c-1.465584-2.918197-5.836394-5.823424-7.289008-5.823424-1.991828-1.830137-4.584517-2.868135-7.289008-2.918197-8.754591 0-17.509183 2.918197-30.621615 10.207205-13.125402 7.289008-27.716387 18.948826-43.759987 40.82882-20.414409 27.716387-27.716387 53.954222-27.716387 61.256199 0 8.767561 4.370811 17.509183 14.590985 17.509183 14.578016 0 48.130798-21.867024 71.463405-49.570441h1.452614l-10.207205 29.156031c-2.918197 7.289008-4.370811 10.207205-4.370811 11.672788 0 2.918197 2.918197 8.741622 10.207205 8.741622 17.509182 0 42.294403-17.509183 55.419805-35.005396 0-2.918197-1.452614-4.357841-4.370811-4.357841-18.961796 16.03063-29.181971 20.41441-33.552781 20.41441-2.918197 0-4.370811-1.465583-2.918197-7.289007 10.220174-27.716388 39.389175-97.727179 43.759986-109.412937-1.452613-4.357841-10.220174-7.289008-16.043599-5.823424zm64.187366 96.261595c-2.918197 7.289008-2.918197 10.233145 1.452614 10.233145 7.289008 0 21.879993-16.056569 37.923592-32.100168 2.918197 0 4.383781 1.439644 4.383781 4.357841-8.754591 16.056569-29.181971 42.307373-56.885389 42.307373-10.207205 0-13.125402-4.357841-13.125402-10.207205 0-4.357841 2.918197-10.207205 7.289008-26.237834l53.967192-150.241757c7.289007-21.892963 4.37081-24.79819-1.452614-27.716387l-5.836394-1.439644c-1.450834-1.679898-1.450834-4.169467 0-5.849364 5.836394-1.439644 26.250804-8.741622 42.294403-8.741622l1.465583 1.439644c-4.38378 11.672789-7.289007 20.41441-18.961796 53.980162z"/><path d="m676.719998 808.80315c0 20.44035 0 43.772957-4.37081 70.010791h1.452613c10.207205-16.030629 20.41441-35.005395 27.716388-53.954222 5.836394-18.974766 11.659818-51.074934 11.659818-59.803586 1.452614-8.767561 5.836395-8.767561 8.754592-8.767561 1.452613 0 5.836394 1.465584 8.754591 2.944137 1.452614 1.439644 2.918197 2.918197 2.918197 5.823424 0 7.289008-8.754591 48.130798-37.923592 96.261595-17.509183 26.263774-29.169002 48.130798-55.419806 75.847185-24.79819 27.742327-40.841789 32.100168-51.048994 32.100168-11.672789 0-17.509183-5.823424-17.509183-14.590985 0-7.276038 5.836394-13.125402 13.125402-13.125402 2.918197 0 7.289008 1.465583 8.754591 4.38378 1.465584 2.918197 4.370811 5.823425 10.207205 5.823425 2.918197 0 10.207205-1.439644 17.509183-8.741622 8.754591-5.849364 23.332607-26.263774 29.169001-46.691153 4.383781-16.03063 7.289008-45.212601 7.289008-72.928988-1.452614-35.005396-7.289008-46.665214-13.125402-46.665214-7.289008 0-13.125402 10.207205-18.961796 23.332607-4.370811 1.439643-5.836394-1.465584-7.289008-4.383781 7.289008-20.41441 21.879993-40.82882 37.923592-40.82882 17.496213 0 20.41441 32.087199 20.41441 53.954222zm142.939779-35.005395c0 4.38378-2.918197 8.767561-5.836394 8.767561-1.452614 1.439644-4.370811 0-5.836394-1.465584-5.836394-5.823424-10.220175-10.207205-20.42738-10.207205-8.741621 0-13.125402 7.289008-13.125402 11.672789 0 7.289008 1.452614 13.125402 11.659819 29.181971 7.289007 13.125402 13.125402 21.867023 11.659818 34.979456 0 8.767561-4.370811 20.440349-17.509182 30.647554-7.289008 7.289008-20.41441 11.646849-32.087199 11.646849-13.125402 0-20.41441-10.207205-20.41441-17.509183 0-2.918197 1.452614-5.823424 4.370811-10.207205 2.740781-1.439076 6.01381-1.439076 8.754591 0 4.383781 4.383781 14.590986 13.151342 23.332607 13.151342 7.289008 0 16.0436-7.289008 16.0436-17.509183 0-5.849364-4.370811-16.056569-13.125402-29.181971-8.754592-13.125402-11.659819-23.332607-11.659819-29.181971 0-11.646848 5.836394-21.867023 20.41441-33.539812 10.207205-7.289007 20.41441-10.207205 24.79819-10.207205 11.698728.01297 18.987736 10.220175 18.987736 18.961797zm90.438171-8.741622c5.836394 0 7.289008 4.383781 7.289008 7.289008s-2.918198 11.646849-13.125403 21.892963c-11.659818 10.207205-21.879993 16.03063-43.759986 23.332607 2.918197-8.767561 11.672788-23.332607 24.79819-37.923592 11.659819-11.685759 20.41441-14.590986 24.798191-14.590986zm5.836394-10.207205c-8.754591 0-21.879993 2.918197-39.389176 16.03063-36.470979 26.263773-49.596381 64.187366-49.596381 84.601776 0 16.030629 7.289008 33.539812 27.716388 33.539812 13.125402 0 32.087198-5.823425 52.501608-29.156032 0-2.918197-1.452614-5.849364-4.370811-5.849364-14.590985 13.151342-23.345577 18.974767-35.005395 18.974767-8.754592 0-16.0436-7.289008-16.0436-17.509183 0-13.125402 2.918198-23.332607 4.383781-29.181971 48.130797-11.646849 81.683579-27.716388 81.683579-52.514578 0-7.263068-8.767561-18.935857-21.879993-18.935857zm169.190578 20.41441-29.18197 83.136193c-1.45261 5.823424 0 7.289008 1.46559 7.289008 5.83639 0 27.71638-16.03063 37.92359-27.716388 4.37081 0 5.83639 1.465584 5.83639 5.823425-18.96179 26.263774-49.59638 45.2126-64.17439 45.2126-4.37081 0-8.75459-4.357841-8.75459-8.741621 0-4.383781 1.46558-8.767561 4.37081-17.509183l30.63458-87.519973h-24.79819c-1.46558-2.918198 0-7.289008 2.9182-8.741622l26.2508-4.38378 18.9618-32.100169c2.9182-1.465583 10.2072-1.465583 13.1254 1.465584l-10.22017 32.074228h36.47097c1.45262 2.944137 0 8.767561-4.37081 11.672789h-36.45801zm93.3434-72.928988c7.28901-20.41441 8.76756-24.79819 2.94414-29.156031l-7.28901-4.383781c0-1.465583 0-2.918197 1.43965-2.918197 5.84936-2.944137 27.71638-7.289008 39.38917-7.289008l1.43965 1.439644c-7.27604 17.509183-17.50919 46.691154-24.77226 64.187367l-33.56575 94.796011v1.465583c23.35855-32.100168 40.82882-45.2126 52.51458-52.514578 11.67279-8.741621 23.33261-13.125402 32.10017-13.125402 14.59098 0 18.94883 10.207205 18.94883 21.892964 0 21.867023-13.12541 53.954221-24.77226 74.368631-7.289 10.207205-13.15134 17.509183-21.89296 24.798191-11.67279 11.672788-20.41441 13.125402-24.79819 13.125402-10.2072 0-11.67279-7.289008-11.67279-8.741622 0-5.823424 4.38378-10.207205 8.76756-10.207205 1.43965 0 2.9182 0 4.38378 1.439644 2.9182 1.465584 7.27604 4.383781 8.74163 4.383781 5.82342 0 8.76756-4.383781 13.1254-16.03063 8.76756-20.414409 24.79819-64.187366 24.79819-81.696549 0-5.823424-2.9182-10.207205-7.28901-10.207205-4.35784 0-11.64685 4.383781-17.50918 8.767562-14.59099 10.207205-24.79819 20.414409-42.30738 42.281433-16.03062 18.974766-32.08719 49.596381-40.82882 65.65295-1.46558 2.918197-2.91819 4.357841-5.83639 4.357841s-11.65982-1.439644-8.75459-8.741622zm179.42373 62.721783c7.28901 0 8.74162 4.383781 8.74162 7.289008s-2.9182 11.646849-13.1254 21.892963c-13.1254 10.207205-23.33261 16.03063-45.2126 23.332607 4.38378-8.767561 11.67279-23.332607 24.79819-37.923592 11.64685-11.685759 20.41441-14.590986 24.79819-14.590986zm7.28901-10.207205c-10.23315 0-21.89297 2.918197-39.38918 16.03063-36.47098 26.263773-49.59638 64.187366-49.59638 84.601776 0 16.030629 7.28901 33.539812 26.26377 33.539812 14.56505 0 33.53982-5.823425 53.95423-29.156032 0-2.918197-1.46559-5.849364-4.38378-5.849364-14.56505 13.151342-23.33261 18.974767-35.0054 18.974767-8.74162 0-16.03063-7.289008-16.03063-17.509183 0-13.125402 2.9182-23.332607 4.38378-29.181971 48.1308-11.646849 80.23097-27.716388 80.23097-52.514578-.01297-7.263068-7.30198-18.935857-20.42738-18.935857zm176.49256-33.539812c10.2072-30.647554 10.2072-35.005395-7.28901-37.923592l-5.84936-1.465584c-2.9182-1.465583-1.43965-5.823424 1.46558-7.289008h17.50918c5.8364 0 11.67279 1.465584 18.97477 1.465584l61.2562-1.465584c20.41441 0 36.45801 1.465584 46.69115 0-2.94413 5.823425-10.23314 30.621615-13.15134 42.307373-1.43964 1.439644-7.28901 1.439644-8.74162 0 1.43964-17.509182 2.9182-24.79819-11.67279-29.181971-7.28901-1.439643-17.50918-2.918197-35.0054-2.918197h-18.94882c-8.76756 0-8.76756 1.465584-11.67279 11.672789l-23.33261 68.545207c-2.91819 7.289008-1.46558 8.741622 5.82343 8.741622h21.89296c32.10017 0 37.92359-2.918197 45.2126-16.03063l5.82343-10.207205c1.46558-1.465583 8.76756-1.465583 8.76756 1.465584-1.46559 5.823424-7.28901 17.509182-10.20721 29.156031-4.38378 11.672789-7.28901 24.798191-8.76756 32.100168-2.9182 2.918197-7.28901 1.465584-8.74162 0v-11.672788c0-10.207205-7.28901-14.590986-33.56575-14.590986h-24.79819c-7.28901 0-8.74162 1.465584-11.64685 8.767561l-14.59099 46.691154c-8.76756 29.156032-10.2072 36.458009 7.28901 36.458009l13.1254 1.465584c1.46559 2.918197 0 7.289007-1.46558 8.741621-18.94883-1.439644-30.62162-1.439644-45.2126-1.439644-13.1254 0-24.77225 0-37.92359 1.439644-2.9182-2.918197-2.9182-7.289008 0-8.741621l10.2072-1.465584c16.05657-1.439644 18.97477-4.38378 29.18197-36.458009zm132.73257 135.650771c-2.94413 7.276038-1.46558 11.646849 2.9182 11.646849 4.35784 0 17.50918-10.207205 35.00539-26.237834 30.62162-29.181971 48.1308-65.63998 58.33801-84.601777 7.28901-1.465583 14.56504 1.465584 16.03063 4.383781-2.9182 8.741621-24.79819 61.256199-37.9236 99.166822-1.46558 4.383781-2.91819 7.289008 1.46559 7.289008 5.82342 0 23.3326-14.590986 32.07423-24.79819 2.91819 0 5.84936 1.465583 5.84936 4.38378-8.76756 16.030629-40.85476 40.82882-58.338 40.82882-4.38378 0-10.23315-5.823425-7.28901-11.646849l21.86702-56.898359v-1.465583c-24.79819 29.181971-65.63998 70.010791-83.13619 70.010791-14.56505 0-16.03063-13.125402-10.2072-27.716388l30.62161-75.847185c2.94414-5.823424 2.94414-10.207205 0-10.207205-5.82342 0-23.33261 14.590986-30.62161 21.892963-4.35785 1.439644-7.28901-1.465583-5.82343-4.38378 8.74162-13.125402 40.82882-37.923593 56.89836-37.923593 4.35784 0 11.64685 4.383781 10.2072 10.207205zm191.04464-81.696549-30.62162 83.136193c-1.43964 5.823424 0 7.289008 2.9182 7.289008 4.38378 0 26.26378-16.03063 37.92359-27.716388 2.94414 0 5.84937 1.465584 4.38378 5.823425-18.94882 26.263774-49.59638 45.2126-62.72178 45.2126-5.82342 0-10.2072-4.357841-10.2072-8.741621 0-4.383781 1.46558-8.767561 5.82342-17.509183l30.64756-87.519973h-26.26378c0-2.918198 0-7.289008 4.38378-8.741622l26.23784-4.38378 18.97476-32.100169c2.9182-1.465583 8.74162-1.465583 11.67279 1.465584l-8.76756 32.074228h35.00539c2.9182 2.944137 1.46559 8.767561-2.91819 11.672789h-36.47098zm67.10556 81.696549c-2.91819 7.276038 0 11.646849 2.9182 11.646849 4.38378 0 18.97477-10.207205 35.0054-26.237834 30.62161-29.181971 48.13079-65.63998 58.338-84.601777 7.28901-1.465583 16.05657 1.465584 16.05657 4.383781-2.9182 8.741621-24.79819 61.256199-37.9236 99.166822-1.46558 4.383781-2.94413 7.289008 1.43965 7.289008 5.84936 0 23.35854-14.590986 32.10017-24.79819 2.91819 0 5.82342 1.465583 5.82342 4.38378-8.74162 16.030629-40.82882 40.82882-58.338 40.82882-4.38378 0-10.20721-5.823425-7.28901-11.646849l21.89296-56.898359v-1.465583c-24.79819 29.181971-65.63998 70.010791-83.13619 70.010791-13.1254 0-16.05657-13.125402-10.2072-27.716388l30.62161-75.847185c2.9182-5.823424 2.9182-10.207205 0-10.207205-5.82342 0-23.33261 14.590986-30.62161 21.892963-4.38379 1.439644-5.84937-1.465583-5.84937-4.38378 8.76756-13.125402 40.85476-37.923593 56.89836-37.923593 4.38378 0 11.67279 4.383781 10.2072 10.207205zm185.26012-71.489344-13.1254 39.389176h1.43965c10.2072-17.509183 26.26377-42.307373 35.00539-52.514578 7.28901-10.207205 14.59099-17.509183 23.33261-17.509183 11.67279 0 13.1254 11.672789 13.1254 16.03063 0 4.38378-2.9182 13.125402-7.27604 18.974766-2.94413 4.38378-8.76756 4.38378-10.2072-1.465584-1.46559-8.741621-2.94414-13.125402-7.28901-13.125402-2.94414 0-5.84936 4.383781-10.20721 10.207205-20.41441 24.798191-39.38917 62.721783-56.89835 99.192762-1.46559 2.918197-2.9182 4.357841-5.82343 4.357841s-13.15134-1.439644-10.2072-8.741621c2.91819-11.672789 24.79819-68.545208 33.53981-99.192762 1.46558-4.357841 0-7.289008-2.9182-7.289008-8.76756 0-17.50918 8.767561-23.33261 17.509183-2.94413 0-5.84936-1.439644-5.84936-5.823425 11.67279-17.509183 23.35855-30.621615 39.38918-30.621615 17.50918 0 10.2072 21.879994 7.30197 30.621615zm134.17222-20.41441c5.82343 0 7.28901 4.383781 7.28901 7.289008s-2.9182 11.646849-13.1254 21.892963c-11.67279 10.207205-21.89297 16.03063-43.77296 23.332607 2.9182-8.767561 11.67279-23.332607 23.35855-37.923592 13.13837-11.685759 21.86702-14.590986 26.2508-14.590986zm5.82343-10.207205c-8.74163 0-21.86703 2.918197-39.36324 16.03063-36.47098 26.263773-49.59638 64.187366-49.59638 84.601776 0 16.030629 7.28901 33.539812 27.71639 33.539812 13.1254 0 32.10016-5.823425 52.51457-29.156032 0-2.918197-1.46558-5.849364-4.38378-5.849364-14.59098 13.151342-23.3326 18.974767-35.00539 18.974767-8.74162 0-16.03063-7.289008-16.03063-17.509183 0-13.125402 2.9182-23.332607 4.38378-29.181971 48.1308-11.646849 81.67061-27.716388 81.67061-52.514578-.01297-7.263068-8.75459-18.935857-21.90593-18.935857z"/><path d="m619.83461 57.6332773c-48.130798-36.4709789-106.48177-56.88538878-170.656167-56.88538878-64.174396 0-122.525369 20.41440988-170.656166 56.88538878zm106.468799 173.5743637c-2.918197-18.961797-10.207204-36.470979-16.043599-52.514578l-523.641287-1.452614c-7.289008 17.509183-11.672788 35.005395-16.043599 53.967192zm-466.742928 259.628753c49.596381 45.212601 116.688974 74.394572 189.617962 74.394572s140.021582-27.716388 191.070576-74.394572zm393.813941-13.125402c16.043599-17.509182 36.470978-40.841789 49.59638-67.092594h-510.502915c17.509182 24.785221 33.552782 46.678184 52.514578 67.092594zm56.898358-87.519973c8.741622-18.961797 14.578016-30.634585 18.961796-52.514578h-557.181099c2.918197 18.961796 8.754591 36.470979 16.043599 52.514578zm20.41441-80.217996v-27.716388-24.79819h-563.017494c0 16.043599-1.452613 14.590985-1.452613 24.79819 0 7.289008 0 21.879994 1.452613 27.716388zm-36.470979-170.656166c-10.207205-17.509183-21.879993-33.552782-35.005395-46.6781843h-420.077715c-11.659819 13.1254023-24.798191 29.1690013-35.005396 46.6781843z"/></g><path d="m538.15103 21.1752682h332.557742m-220.252548 75.8471851h214.416154m-163.354189 86.0543897h164.819772m-140.034552 80.230966h141.487166m-145.857976 80.205026h145.857976m-177.945175 71.476374h177.945175m-243.585155 81.67061h246.503352m-616.984686-24.785221h-234.8305626m157.5307646-166.285356h-156.0781509m157.5307639-80.217995h-154.6125668m191.0835458-91.890785h-191.0835458m277.1379358-80.2179955h-275.6723524" stroke="#2c5b8d" stroke-width="9.727324"/><path d="m1020.95053 76.5950736c-1.46559-56.8853888-64.187368-40.8288199-64.187368-58.3380025 0-7.2890078 1.465583-8.75459128 7.289008-8.75459128 29.181971 0 58.35097 2.91819708 87.51997 2.91819708 23.34558 0 48.1308-2.91819708 72.92899-2.91819708 13.1254 0 14.59099 1.46558348 14.59099 7.28900788 0 18.9617962-56.88539 1.4655834-56.88539 59.8035859v423.0088814c0 53.954222 70.01079 36.458009 70.01079 59.777647 0 5.849364-1.46558 7.289007-14.59099 7.289007-18.96179 0-52.50161-2.918197-86.05439-2.918197-48.13079 0-65.639977 2.918197-75.847182 2.918197-14.590986 0-16.043599-2.918197-16.043599-11.646848 0-21.892964 61.269171 2.918197 61.269171-74.394572zm224.62336 17.5091826c0-81.6835793-65.63998-55.4198054-65.63998-77.2997988 0-5.8363941 7.289-7.28900782 11.67278-7.28900782 24.77226 0 46.66522 2.91819712 69.98486 2.91819712 52.51457 0 103.57654-2.91819712 172.12175-2.91819712 138.56896 0 275.65938 105.01618642 275.65938 250.87416242 0 180.863371-84.57584 306.306937-303.37577 306.306937-40.82882 0-80.23097-2.918197-121.05979-2.918197-7.28901 0-83.13619 2.918197-87.51997 2.918197-7.28901 0-8.76756-2.918197-8.76756-7.289008 0-17.509182 56.89836 1.465584 56.89836-72.928988v-392.3742968zm61.24323 358.8085458c0 13.138372-1.43965 51.048994 5.84936 56.898358 24.79819 26.237835 84.57584 36.458009 121.05979 36.458009 110.85258 0 217.32138-59.803586 217.32138-242.119571 0-175.026977-116.67601-274.2197385-265.45218-275.6723522-75.84719 0-78.77835 13.1254021-78.77835 49.5834112zm707.43582-450.69933005c148.77617 0 189.60499 61.26916935 212.9376 61.26916935 5.82343 0 10.20721-8.7545913 18.97477-8.7545913 8.74162 0 8.74162 13.125402 10.2072 64.187366 1.43965 42.294404 8.74162 67.092594-4.38378 67.092594-8.74162 0-14.59098-20.41441-17.50918-24.79819-49.59638-84.6017767-105.02916-135.6507713-207.11418-135.6507713-153.15995 0-227.55452 102.0979893-227.55452 247.9689353 0 137.103384 78.77835 274.219739 230.47272 274.219739 122.52537 0 199.8122-78.778352 212.96354-113.783748 1.43964-5.836394 5.82342-10.207205 10.20721-10.207205 4.35784-1.452613 8.74162 4.370811 7.27603 7.289008l-17.48324 78.778352c-1.46558 4.357841-56.89836 62.721783-234.84353 62.721783-161.88861 0-277.12497-110.86555-277.12497-274.232709 0-163.367158 116.67601-296.09973205 282.97433-296.09973205z" fill="#2c5b8d"/><path d="m196.838698 385.820208h-177.9451746" stroke="#2c5b8d" stroke-width="9.727324"/></g></svg>