<svg width="40" height="35" viewBox="0 0 40 35" xmlns="http://www.w3.org/2000/svg"><title>monitor-icon</title><path d="M39.83 3.59c-.49-1.83-2.463-2.971-4.301-2.483a3.518 3.518 0 0 0-2.485 4.303c.125.463.348.877.63 1.239l-4.586 7.5a3.44 3.44 0 0 0-1.795-.025 3.465 3.465 0 0 0-1.558.917l-4.126-2.569a3.475 3.475 0 0 0-.044-1.579c-.494-1.828-2.467-2.97-4.3-2.482a3.518 3.518 0 0 0-2.484 4.301c.116.437.319.828.577 1.176l-4.57 7.47a3.427 3.427 0 0 0-1.716-.005 3.487 3.487 0 0 0-2.13 1.635 3.479 3.479 0 0 0-.351 2.664 3.516 3.516 0 0 0 4.3 2.483 3.52 3.52 0 0 0 2.485-4.302 3.394 3.394 0 0 0-.69-1.3l4.51-7.367c.311.092.636.149.974.149.307 0 .613-.04.909-.12a3.475 3.475 0 0 0 1.42-.78l4.225 2.628a3.52 3.52 0 0 0 .086 1.382 3.517 3.517 0 0 0 4.3 2.482 3.49 3.49 0 0 0 2.134-1.636c.47-.813.593-1.759.35-2.662a3.394 3.394 0 0 0-.63-1.242l4.575-7.485c.288.078.587.129.897.129.305 0 .612-.04.909-.12a3.494 3.494 0 0 0 2.134-1.637 3.48 3.48 0 0 0 .35-2.663m-1.953 29.174H2.235V1.118a1.118 1.118 0 0 0-2.235 0v32.765C0 34.499.5 35 1.117 35h36.76a1.117 1.117 0 1 0 0-2.235" fill="#333" fill-rule="evenodd"/></svg>