<svg width="40" height="37" viewBox="0 0 40 37" xmlns="http://www.w3.org/2000/svg" xmlns:xlink="http://www.w3.org/1999/xlink"><title>release-icon</title><defs><path id="a" d="M0 0h40v36.906H0z"/></defs><g fill="none" fill-rule="evenodd"><mask id="b" fill="#fff"><use xlink:href="#a"/></mask><path d="M19.976 14.664l-4.203-2.43 4.203-2.424 4.203 2.426-4.203 2.428zm-.503 5.63l-4.165-2.403v-4.76l4.165 2.404v4.76zm6.166-8.114a.5.5 0 0 0-.243-.403l-5.169-2.985a.507.507 0 0 0-.502 0l-5.17 2.985a.5.5 0 0 0-.244.403c-.001.007-.005.013-.005.02 0 .005-.004.01-.004.013v5.969c0 .18.096.346.252.436l5.171 2.985a.506.506 0 0 0 .502 0l5.17-2.985a.505.505 0 0 0 .251-.436v-5.969c0-.004-.004-.008-.004-.013 0-.007-.004-.013-.005-.02zM5.355 22.602a.503.503 0 0 0 .503-.504V5.858h28.787a.503.503 0 0 0 0-1.006H5.355a.503.503 0 0 0-.503.503v16.743c0 .278.225.504.503.504zM2.013 25.44h35.974V2.013H2.013V25.44zm25.667 8.21v1.243H12.32V33.65l5.121-1.777c.405-.14.677-.522.677-.951v-3.468h3.764v3.386c-.115.73.086.828 5.798 2.81zM38.994 0H1.006C.451 0 0 .45 0 1.006v25.441c0 .556.45 1.007 1.006 1.007h15.098v2.752l-5.121 1.777a1.01 1.01 0 0 0-.677.952V35.9c0 .555.451 1.006 1.007 1.006h17.374c.556 0 1.007-.45 1.007-1.006v-2.965c0-.428-.271-.81-.677-.952 0 0-3.594-1.246-5.121-1.777v-2.752h15.098c.555 0 1.006-.451 1.006-1.007V1.007C40 .45 39.55 0 38.994 0z" fill="#333" mask="url(#b)"/></g></svg>