<svg height="96" viewBox="0 0 699 96" width="699" xmlns="http://www.w3.org/2000/svg"><g><path d="m429.744318 82.5284091h-.198863c-5.568182 7.1590909-11.335228 11.1363636-20.482955 11.1363636-11.335227 0-19.488636-6.3636363-19.488636-18.0965909 0-20.8806818 23.267045-22.4715909 38.778409-22.4715909h5.767045c.397727-1.7897727.397727-3.5795454.397727-5.3693182 0-6.3636363-6.960227-8.1534091-12.727272-8.1534091-7.159091 0-14.318182 1.7897728-20.880682 4.9715909l2.386364-13.125c6.960227-2.3863636 14.119318-3.778409 21.477272-3.778409 12.727273 0 24.659091 4.5738636 24.659091 19.4886363 0 8.5511364-6.363636 33.4090909-7.755682 45.3409091h-13.920454zm-16.107954-.7954546c12.329545 0 16.107954-8.5511363 18.693181-18.6931818h-5.767045c-7.954545 0-21.278409 1.3920455-21.278409 12.1306818 0 4.1761364 4.176136 6.5625 8.352273 6.5625z"/><path d="m2.58522727 28.8352273h11.93181823l2.7840909-13.125 17.6988636-5.76704548-3.9772727 18.89204548h14.7159091l-2.5852273 12.1306818h-14.7159091l-5.9659091 27.6420454c-.3977273 1.3920455-.7954545 3.7784091-.7954545 6.1647728 0 3.7784091 2.5852272 6.1647727 6.3636363 6.1647727 2.9829546 0 5.9659091-.5965909 7.9545455-1.3920455l-2.7840909 12.7272728c-2.7840909.5965909-5.9659091 1.3920454-8.9488637 1.3920454-11.1363636 0-19.09090905-4.375-19.09090905-16.5056818 0-4.9715909.99431818-9.7443182 2.1875-14.7159091l4.57386365-21.4772727h-11.9318182z"/><path d="m52.5 28.8352273h16.5056818l-13.5227273 63.2386363h-16.5056818zm5.9659091-27.24431821h16.5056818l-3.3806818 15.71022731h-16.5056818z"/><path d="m118.721591 43.3522727c-3.181818-2.1875-7.556818-3.1818182-12.130682-3.1818182-13.1249999 0-20.4829545 12.3295455-20.4829545 24.2613637 0 8.1534091 2.784091 16.5056818 13.9204545 16.5056818 3.977273 0 9.147727-1.1931818 13.323864-3.1818182l-1.789773 13.125c-4.971591 2.3863637-10.539773 2.9829546-15.9090909 2.9829546-16.3068182 0-26.8465909-10.9375-26.8465909-27.2443182 0-22.0738637 14.7159091-38.9772727 37.3863638-38.9772727 6.164773 0 12.130682 1.1931818 16.505682 2.3863636z"/><path d="m136.818182 0h16.505682l-10.9375 51.9034091h.198863l23.068182-23.0681818h21.278409l-30.227273 28.8352272 18.892046 34.6022728h-18.494318l-16.306818-33.6079546h-.198864l-7.159091 33.6079546h-16.107955z"/><path d="m246.392045 28.8352273h11.931819l2.784091-13.125 17.698863-5.76704548-3.977273 18.89204548h14.71591l-2.585228 12.1306818h-14.715909l-5.965909 27.6420454c-.397727 1.3920455-.795454 3.7784091-.795454 6.1647728 0 3.7784091 2.585227 6.1647727 6.363636 6.1647727 2.982954 0 5.965909-.5965909 7.954545-1.3920455l-2.784091 12.7272728c-2.78409.5965909-5.965909 1.3920454-8.948863 1.3920454-11.136364 0-19.090909-4.375-19.090909-16.5056818 0-4.9715909.994318-9.7443182 2.1875-14.7159091l4.573863-21.4772727h-11.931818z"/><path d="m240.823864 51.5056818c0-16.1079545-10.340909-24.0625-25.852273-24.0625-20.880682 0-35.994318 18.8920455-35.994318 38.5795455 0 18.8920454 12.329545 27.6420454 30.426136 27.6420454 6.761364 0 13.721591-1.5909091 20.085227-3.5795454l2.1875-13.125c-6.164772 2.7840909-12.727272 4.5738636-19.488636 4.5738636-10.539773 0-16.704545-3.7784091-17.5-13.7215909 0-.5965909 0-1.1931818 0-1.7897727 0-.1988637 0-.1988637 0-.3977273v-.1988636c0-4.375.994318-8.5511364 2.585227-12.5284091 3.181818-8.1534091 7.556818-13.7215909 17.301137-13.7215909 6.960227 0 10.539772 3.7784091 10.539772 10.5397727 0 1.3920454-.198863 2.7840909-.397727 4.375h-22.471591c-1.392045 4.9715909-1.789773 8.3522727-1.789773 11.3352273h38.77841c.994318-4.5738637 1.590909-9.1477273 1.590909-13.9204546z"/><path d="m296.704545 35.7954545c.397728-2.3863636.994319-4.9715909 1.392046-6.9602272h15.3125l-1.392046 8.5511363h.198864c4.375-6.5625 11.732955-9.9431818 19.488636-9.9431818 7.556819 0 15.3125 4.375 16.107955 12.1306818h.198864c4.176136-8.1534091 13.323863-12.1306818 22.272727-12.1306818 9.545454 0 17.5 7.7556818 17.5 17.3011364 0 5.5681818-1.392046 12.1306818-2.784091 17.3011363l-6.5625 30.2272728h-16.505682l6.5625-30.8238637c.795455-3.7784091 2.1875-9.7443181 2.1875-13.5227272 0-4.5738637-3.579545-7.5568182-7.755682-7.5568182-11.534091 0-14.318181 13.3238636-16.306818 21.875l-6.5625 30.0284091h-16.505682l6.5625-30.8238637c.795455-3.7784091 2.1875-9.7443181 2.1875-13.5227272 0-4.5738637-3.579545-7.5568182-7.755681-7.5568182-11.136364 0-14.318182 13.3238636-16.306819 21.875l-6.5625 30.0284091h-16.505681z"/><path d="m498.551136 41.7613636c-1.789772-.9943181-6.363636-2.3863636-10.9375-2.3863636-4.971591 0-11.136363 1.3920455-11.136363 6.3636364 0 7.9545454 21.477272 10.9375 21.477272 26.4488636 0 16.5056818-14.318181 21.4772727-28.4375 21.4772727-6.5625 0-13.323863-.9943182-19.289772-3.7784091l3.579545-13.125c4.573864 2.5852273 9.346591 4.9715909 15.710227 4.9715909 5.568182 0 11.335228-1.7897727 11.335228-6.9602272 0-10.1420455-21.477273-11.1363637-21.477273-27.0454546 0-14.9147727 14.318182-20.0852272 27.443182-20.0852272 5.965909 0 12.130682 1.1931818 15.511363 1.9886363z"/><path d="m509.090909 28.8352273h11.931818l2.784091-13.125 17.698864-5.76704548-3.977273 18.89204548h14.715909l-2.585227 12.1306818h-14.715909l-5.965909 27.6420454c-.397728 1.3920455-.795455 3.7784091-.795455 6.1647728 0 3.7784091 2.585227 6.1647727 6.363637 6.1647727 2.982954 0 5.965909-.5965909 7.954545-1.3920455l-2.784091 12.7272728c-2.784091.5965909-5.965909 1.3920454-8.948864 1.3920454-11.136363 0-19.090909-4.375-19.090909-16.5056818 0-4.9715909.994319-9.7443182 1.988637-14.7159091l4.772727-21.4772727h-11.931818z"/><path d="m620.852273 37.3863636c.397727-2.7840909.994318-5.5681818 1.392045-8.5511363h15.710227l-2.1875 11.9318182h.198864c2.982955-6.9602273 11.136364-13.3238637 18.693182-13.3238637 2.1875 0 4.375.1988637 6.363636.5965909l-3.380682 16.1079546c-1.789772-.5965909-4.176136-.9943182-6.363636-.9943182-11.732954 0-17.301136 10.5397727-19.488636 20.6818182l-5.965909 28.4375h-16.505682z"/><path d="m609.517045 51.5056818c0-16.1079545-10.340909-24.0625-25.852272-24.0625-20.681818 0-35.994318 18.8920455-35.994318 38.5795455 0 18.8920454 12.329545 27.6420454 30.426136 27.6420454 6.761364 0 13.721591-1.5909091 20.085227-3.5795454l2.1875-13.125c-6.164773 2.7840909-12.727273 4.5738636-19.488636 4.5738636-10.539773 0-16.704546-3.7784091-17.5-13.7215909 0-.5965909 0-1.1931818 0-1.7897727 0-.1988637 0-.1988637 0-.3977273v-.1988636c0-4.375.994318-8.5511364 2.585227-12.5284091 3.181818-8.1534091 7.556818-13.7215909 17.301136-13.7215909 6.960228 0 10.539773 3.7784091 10.539773 10.5397727 0 1.3920454-.198863 2.7840909-.397727 4.375h-22.471591c-1.392045 4.9715909-1.789773 8.3522727-1.789773 11.3352273h38.778409c.994319-4.5738637 1.590909-9.1477273 1.590909-13.9204546z"/><path d="m684.488636 25.0568182c7.755682 0 14.318182 6.3636363 14.318182 14.3181818 0 7.7556818-6.363636 14.3181818-14.318182 14.3181818-7.755681 0-14.318181-6.3636363-14.318181-14.3181818s6.363636-14.3181818 14.318181-14.3181818zm0 26.4488636c6.5625 0 11.534091-5.3693182 11.534091-12.1306818s-4.971591-12.1306818-11.534091-12.1306818-11.534091 5.3693182-11.534091 12.1306818 4.772728 12.1306818 11.534091 12.1306818zm-5.568181-20.4829545h6.363636c3.778409 0 5.767045 1.5909091 5.767045 4.7727272 0 2.5852273-1.789772 4.5738637-4.375 4.5738637l4.772728 7.3579545h-2.982955l-4.573864-7.3579545h-2.1875v7.3579545h-2.78409zm2.78409 7.1590909h3.181819c2.1875 0 3.380681-.3977273 3.380681-2.5852273 0-1.9886364-1.789772-2.3863636-3.380681-2.3863636h-3.181819z"/></g></svg>