<svg width="83" height="96" viewBox="0 0 83 96" fill="none" xmlns="http://www.w3.org/2000/svg">
<g clip-path="url(#clip0)">
<path fill-rule="evenodd" clip-rule="evenodd" d="M41.2903 0L82.5808 23.8787V71.6362L41.2903 95.5149L0 71.6362V23.8787L41.2903 0Z" fill="url(#paint0_linear)"/>
<path fill-rule="evenodd" clip-rule="evenodd" d="M41.3407 4.65918L78.7859 26.2083V69.3062L41.3407 90.8557L3.89551 69.3062V26.2083L41.3407 4.65918Z" stroke="white" stroke-width="3.26882"/>
<path d="M29.6025 74.4373H35.0188L34.7804 72.9265H31.8849L33.4178 71.4505C34.3489 70.5651 34.8712 69.8836 34.8712 68.839C34.8712 67.4653 33.8947 66.636 32.3164 66.636C31.2376 66.636 30.4315 66.9543 29.7729 67.3971L30 69.0095C30.6585 68.5326 31.3512 68.2257 32.0325 68.2257C32.657 68.2257 33.0204 68.5213 33.0204 69.0436C33.0204 69.5545 32.7592 69.9177 32.2482 70.44L29.6025 73.0857V74.4373ZM42.2037 70.5992C42.2037 68.0331 40.9319 66.6133 39.0243 66.6133C37.1054 66.6133 35.8223 68.0331 35.8223 70.5992C35.8223 73.1653 37.1054 74.5844 39.0243 74.5844C40.9319 74.5844 42.2037 73.1653 42.2037 70.5992ZM40.3302 70.5992C40.3302 72.2343 39.91 73.1425 39.0243 73.1425C38.1386 73.1425 37.7072 72.2343 37.7072 70.5992C37.7072 68.964 38.1386 68.0558 39.0243 68.0558C39.91 68.0558 40.3302 68.964 40.3302 70.5992ZM42.9977 74.4373H48.414L48.1755 72.9265H45.28L46.8129 71.4505C47.7441 70.5651 48.2664 69.8836 48.2664 68.839C48.2664 67.4653 47.2898 66.636 45.7115 66.636C44.6328 66.636 43.8266 66.9543 43.168 67.3971L43.3952 69.0095C44.0537 68.5326 44.7464 68.2257 45.4276 68.2257C46.0522 68.2257 46.4155 68.5213 46.4155 69.0436C46.4155 69.5545 46.1544 69.9177 45.6434 70.44L42.9977 73.0857V74.4373ZM52.658 74.4373V66.7497H50.9661L49.0017 67.6579L49.2174 69.1345L50.7503 68.5327V74.4373H52.658Z" fill="#F0F6FF"/>
<path d="M23.5181 57.2679L23.2456 55.6214H17.0459V57.2679H19.2601V63.4565H21.2131V57.2679H23.5181ZM28.2053 60.6743C28.2053 58.8916 27.0698 57.7788 25.5255 57.7788C23.9926 57.7788 22.8572 58.903 22.8572 60.6857C22.8572 62.4684 23.9813 63.5696 25.5142 63.5696C27.0584 63.5696 28.2053 62.457 28.2053 60.6743ZM26.5475 60.6857C26.5475 61.5827 26.1842 62.1845 25.5255 62.1845C24.8783 62.1845 24.5149 61.5713 24.5149 60.6743C24.5149 59.7659 24.8669 59.1754 25.5255 59.1754C26.1842 59.1754 26.5475 59.7886 26.5475 60.6857ZM32.6262 60.6402C32.6262 61.7189 32.1948 62.1618 31.6157 62.1618C31.275 62.1618 31.0706 62.105 30.8321 61.9914V59.8794C31.1274 59.5388 31.4112 59.3117 31.7859 59.3117C32.2742 59.3117 32.6262 59.7091 32.6262 60.6402ZM34.3522 60.5267C34.3522 58.6418 33.4892 57.7788 32.3424 57.7788C31.627 57.7788 31.1274 58.1989 30.7413 58.6191L30.6277 57.8924H29.1176V65.5685L30.8321 65.307V63.3201C31.1501 63.4224 31.5021 63.5127 32.0017 63.5127C33.228 63.5127 34.3522 62.6387 34.3522 60.5267ZM41.9251 63.5355L43.9803 63.2064L42.0613 60.3223C42.9924 59.9249 43.5374 59.1868 43.5374 58.0968C43.5374 56.4843 42.4246 55.6214 40.5284 55.6214H37.7919V63.4565H39.7222V60.7651H40.2104L41.9251 63.5355ZM41.6298 58.2103C41.6298 58.9597 41.1529 59.3685 40.3126 59.3685H39.7109V57.0862H40.3354C41.1756 57.0862 41.6298 57.4835 41.6298 58.2103ZM47.5708 61.9233C47.2642 62.1958 46.9462 62.3434 46.6283 62.3434C46.2991 62.3434 46.0833 62.1504 46.0833 61.7984C46.0833 61.3102 46.4012 60.9241 47.5708 60.7424V61.9233ZM49.2853 63.4565V59.7318C49.2853 58.3125 48.5246 57.8015 46.9917 57.8015C46.0833 57.8015 45.3679 57.9718 44.732 58.233L44.9365 59.5275C45.5269 59.2663 46.106 59.1073 46.7305 59.1073C47.2983 59.1073 47.5708 59.3231 47.5708 59.8113V59.9135C45.3907 60.1066 44.3914 60.7197 44.3914 62.0255C44.3914 63.0361 45.0159 63.5696 45.9016 63.5696C46.6624 63.5696 47.1961 63.2405 47.6503 62.7636L47.7638 63.4565H49.2853ZM53.7346 63.4224L53.5302 62.0142C53.4053 62.0482 53.2577 62.071 53.1101 62.071C52.6559 62.071 52.4288 61.8552 52.4288 61.4123V59.289H53.7005L53.4848 57.8924H52.4288V55.962L50.7255 56.2345V57.8924H49.9875V59.289H50.7255V61.6849C50.7255 63.1042 51.5545 63.5355 52.7467 63.5355C53.2009 63.5355 53.4621 63.5014 53.7346 63.4224ZM56.8047 58.8916C57.327 58.8916 57.6222 59.3231 57.679 60.1633H55.9303C55.9757 59.3003 56.3278 58.8916 56.8047 58.8916ZM59.3027 62.9453L59.1324 61.7303C58.5192 62.0936 57.9175 62.3207 57.3043 62.3207C56.5548 62.3207 56.0212 61.9801 55.9303 61.1058H59.2914C59.3027 61.015 59.3141 60.8333 59.3141 60.6629C59.3141 59.0506 58.5646 57.7788 56.8501 57.7788C55.3399 57.7788 54.2271 58.8802 54.2271 60.697C54.2271 62.6727 55.4194 63.5696 57.0885 63.5696C57.9629 63.5696 58.7009 63.3315 59.3027 62.9453ZM61.7086 60.7083C61.7086 59.641 62.1401 59.1982 62.7079 59.1982C63.0712 59.1982 63.2645 59.2436 63.514 59.3571V61.4805C63.2191 61.8098 62.9236 62.0482 62.5603 62.0482C62.072 62.0482 61.7086 61.6621 61.7086 60.7083ZM59.9827 60.8333C59.9827 62.7068 60.857 63.5696 61.9925 63.5696C62.7079 63.5696 63.2191 63.1496 63.5936 62.7295L63.7073 63.4565H65.2287V55.2581L63.514 55.5305V58.04C63.1963 57.9264 62.8441 57.847 62.3331 57.847C61.1068 57.847 59.9827 58.7099 59.9827 60.8333Z" fill="white"/>
<path fill-rule="evenodd" clip-rule="evenodd" d="M35.0577 46.5928H10.9067V47.7576H35.0577V46.5928ZM47.5227 47.7576H72.4527V46.5928H47.5227V47.7576Z" fill="white"/>
<path fill-rule="evenodd" clip-rule="evenodd" d="M40.1645 45.1721C40.1334 45.2578 40.0512 45.3197 39.958 45.3197L37.3813 45.378C37.1693 45.3816 37.0798 45.6513 37.2515 45.7805L39.302 47.3362C39.3787 47.3908 39.4098 47.4892 39.3824 47.5785L38.6404 50.0393C38.5783 50.2415 38.8067 50.4073 38.9821 50.2853L41.1002 48.8189C41.1769 48.7643 41.2793 48.7643 41.356 48.8189L43.4741 50.2798C43.6495 50.4 43.8779 50.2343 43.8158 50.0339L43.0738 47.573C43.0464 47.4837 43.0775 47.389 43.1542 47.3307L45.2046 45.7751C45.3764 45.6458 45.285 45.3762 45.0749 45.3725L42.4982 45.3142C42.4031 45.3142 42.3227 45.256 42.2917 45.1667L41.4419 42.7422C41.3743 42.54 41.091 42.54 41.0197 42.7422L40.1645 45.1721Z" fill="white"/>
<path d="M57.4799 37.4573L51.3021 31.3762L52.0346 30.6551H50.5696L50.0812 30.1744H52.523L53.4998 29.213H49.1044L48.6161 28.7322H53.9881L54.7451 27.9872C54.8916 27.8429 54.9648 27.6746 54.9648 27.4824V22.7713C54.9648 22.5791 54.8916 22.3867 54.7451 22.2666L53.9881 21.5215H42.2673L41.5103 22.2666C41.3638 22.4108 41.2905 22.5791 41.2905 22.7713V38.5389C41.2905 38.7552 41.5591 38.8514 41.7057 38.7071L44.9777 35.4863C45.1242 35.3421 45.1975 35.1739 45.1975 34.9816V30.1744V22.4829H51.0579V27.7708H47.737C47.6637 27.7708 47.6149 27.7948 47.5661 27.8429L45.1975 30.1744L52.7916 37.6496C52.9381 37.7938 53.1091 37.8659 53.3044 37.8659H57.2846C57.5288 37.8659 57.6264 37.6015 57.4799 37.4573Z" fill="white"/>
<path d="M52.5227 20.0791H43.7321L42.7554 21.0406H53.4994L52.5227 20.0791Z" fill="white"/>
<path d="M51.2777 18.8535C51.1311 18.7093 50.9602 18.6372 50.7649 18.6372H45.4905C45.2951 18.6372 45.0998 18.7093 44.9777 18.8535L44.2207 19.5987H52.0346L51.2777 18.8535Z" fill="white"/>
<path d="M35.951 18.8535C35.8007 18.7093 35.6255 18.6372 35.4251 18.6372H26.0597C25.8343 18.6372 25.7342 18.9016 25.8844 19.0458L26.4604 19.5987H36.7273L35.951 18.8535Z" fill="white"/>
<path d="M37.2279 20.0791H26.9609L27.9626 21.0406H38.2296L37.2279 20.0791Z" fill="white"/>
<path d="M39.7319 22.7713C39.7319 22.5791 39.6568 22.3867 39.5066 22.2666L38.7303 21.5215H28.4634L29.2397 22.2666C29.3899 22.4108 29.5652 22.4829 29.7655 22.4829H35.7253V34.9816C35.7253 35.1739 35.8004 35.3661 35.9507 35.4863L39.3063 38.7071C39.4565 38.8514 39.7319 38.7552 39.7319 38.5389V22.7713Z" fill="white"/>
</g>
<defs>
<linearGradient id="paint0_linear" x1="0" y1="0" x2="0" y2="95.5149" gradientUnits="userSpaceOnUse">
<stop stop-color="#116BF2"/>
<stop offset="1" stop-color="#1B3AB5"/>
</linearGradient>
<clipPath id="clip0">
<rect width="82.7368" height="96" fill="white"/>
</clipPath>
</defs>
</svg>
