<svg height="132" viewBox="0 0 700 132" width="700" xmlns="http://www.w3.org/2000/svg" xmlns:xlink="http://www.w3.org/1999/xlink"><filter id="a"><feColorMatrix in="SourceGraphic" type="matrix" values="0 0 0 0 0.000000 0 0 0 0 0.000000 0 0 0 0 0.000000 0 0 0 1.000000 0"/></filter><g fill="#0066a1" fill-rule="nonzero" filter="url(#a)"><g><path d="m417.560185 6.743h-13.175926v36.039c-5.286111-5.007-11.494444-7.447-22.679629-7.447-18.544445 0-37.087037 12.661-37.087037 49.652-.266667 9.647 1.654629 19.222 5.593518 27.887-2.684259.876-5.468518 1.348-8.275 1.406-7.471296 0-11.033333-2.689-11.033333-11.957v-24.164-56.727c0-12.413-1.341667-14.647-9.425-14.647h-13.026852v98.477c0 21.101 9.387037 26.229 21.953704 26.229 9.626851-.151 19.052777-3.004 27.354629-8.273 6.035185 5.579 13.780556 8.529 21.723148 8.273 9.698149.223 19.00463-4.145 25.475-11.954.997223 8.729 3.142593 9.474 6.973149 9.474h15.324074v-107.58c-.22963-12.33-1.685186-14.688-9.694445-14.688zm-13.176852 98.267c-4.780555 5.204-11.260185 8.174-18.043518 8.276-11.495371 0-17.241667-8.276-17.241667-29.706 0-23.38 10.115741-28.758 20.075926-28.758 5.448148-.339 10.843519 1.308 15.324074 4.676z"/><path d="m271.557407 47.042c-.842592-9.309-3.294444-9.309-7.393518-9.309h-15.056482v91.276h22.757408v-66.782c7.768518-3.927 16.288889-5.813 24.863889-5.503h4.099074v-20.688c-1.697222-.587-3.467593-.894-5.249074-.911-9.205556.133-17.931482 4.462-24.021297 11.917z"/><path d="m496.062037 31.7752575c7.066667 0 12.794444-6.1882575 12.794444-13.8192575 0-7.632-5.728703-13.82-12.794444-13.82-7.125.021-12.921296 6.207-13.025926 13.902.126852 7.659 5.932408 13.783 13.025926 13.7372575z"/><path d="m215.469444 39.058c-5.475-2.516-11.364814-3.812-17.316666-3.8070144-1.570371 0-3.141667 0-4.635185.2910144-14.457408 21.477-10.057408 51.545 9.829629 67.16 2.732408 2.147 5.680556 3.947 8.789815 5.372-4.084259 3.141-8.97037 4.835-13.984259 4.842-14.631482-.651-26.075-13.855-25.705556-29.667-.030555-6.721 1.987963-13.265 5.746297-18.621 0-7.53 2.451851-21.185 6.168518-27.142-23.397222 8.235-36.181481 35.396-28.55463 60.665 7.625926 25.267 32.774074 39.073 56.169445 30.837 23.397222-8.233 36.181481-35.396 28.556481-60.662-4.006481-13.273-13.150926-24.013-25.062963-29.434v.166zm7.05 53.418c-11.452777-3.954-19.136111-15.568-18.887963-28.552-.009259-3.054.403704-6.095 1.225926-9.02 11.451852 3.86 19.195371 15.388 19.041667 28.344-.040741 3.132-.50463 6.239-1.37963 9.228z"/><path d="m699.687037 81.055c0-30.784-13.522222-45.887-38.925-45.887-24.059259 0-42.140741 18.496-42.140741 48.535-.323148 9.986 1.976852 19.869 6.625 28.508-3.109259 1.081-6.347222 1.665-9.614815 1.739-6.436111 0-9.960185-2.028-10.76574-8.65v-44.727c0-21.019-10.688889-25.239-23.252778-25.239-10.796296.032-21.298148 3.803-29.960185 10.757-.996297-8.275-3.296297-8.481-7.394445-8.481h-14.979629v74.105c-3.55463 1.395-7.294445 2.161-11.074074 2.275-1.193519.007-2.38426-.089-3.561111-.29-4.712038-.95-7.011112-4.137-7.088889-11.296v-48.327c0-14.274-1.146297-16.549-9.040741-16.549h-13.333333v74.062c-3.578704 1.401-7.342593 2.169-11.146297 2.276-7.393518 0-10.960185-2.648-10.960185-11.915v-80.768c0-12.414-1.337963-14.606-9.384259-14.606h-12.796296v98.601c0 20.937 9.309259 26.107 21.837962 26.107 9.891667-.239 19.545371-3.325 27.967593-8.937 3.294445 3.807 4.635185 7.447 11.491667 8.605 1.034259 0 2.069444 0 3.142592.249h2.375926c7.516667-.282 14.899074-2.24 21.682408-5.75v3.475h22.604629v-69.14c6.262963-2.612 12.901852-4.012 19.615741-4.138 7.433333 0 10.689815 2.69 10.689815 11.875v10.759 26.895c0 20.937 9.347222 26.107 21.836111 26.107 10.312963-.227 20.356481-3.565 29.003704-9.64 8.450926 6.757 18.800926 10.16 29.305555 9.64 11.871297.481 23.625926-2.674 33.906482-9.104v-17.089h-7.393519c-6.657407 5.275-14.735185 8.036-22.987037 7.864-13.332407 0-21.569444-5.174-22.717592-23.835h56.048148c.075926-.909.383333-4.838.383333-8.066zm-56.05-7.655c1.8-17.42 8.735185-21.93 17.125-21.93 9.425 0 14.675 5.379 15.325926 21.93z"/><path d="m162.446296 16.55h2.605556v-16.055h-44.402778v16.055h6.398148c6.741667 0 8.466667 4.467 5.861111 12.66l-15.324074 68.436h-.344444l-22.1453706-97.151h-20.5342592l-22.45 97.151h-.3444445l-16.9722222-81.096h14.3277778v-16.055h-48.80833334v16.055h2.75833334c2.66851851.259 4.925 2.238 5.70925926 5.005l24.86388884 109.773h29.1935186l18.8111111-81.182h.3453703l18.6564816 81.222h29.155555l26.088889-109.068c.837037-3.222 3.460186-5.525 6.550926-5.75z"/></g><g><path d="m417.560185 6.743h-13.175926v36.039c-5.286111-5.007-11.494444-7.447-22.679629-7.447-18.544445 0-37.087037 12.661-37.087037 49.652-.266667 9.647 1.654629 19.222 5.593518 27.887-2.684259.876-5.468518 1.348-8.275 1.406-7.471296 0-11.033333-2.689-11.033333-11.957v-24.164-56.727c0-12.413-1.341667-14.647-9.425-14.647h-13.026852v98.477c0 21.101 9.387037 26.229 21.953704 26.229 9.626851-.151 19.052777-3.004 27.354629-8.273 6.035185 5.579 13.780556 8.529 21.723148 8.273 9.698149.223 19.00463-4.145 25.475-11.954.997223 8.729 3.142593 9.474 6.973149 9.474h15.324074v-107.58c-.22963-12.33-1.685186-14.688-9.694445-14.688zm-13.176852 98.267c-4.780555 5.204-11.260185 8.174-18.043518 8.276-11.495371 0-17.241667-8.276-17.241667-29.706 0-23.38 10.115741-28.758 20.075926-28.758 5.448148-.339 10.843519 1.308 15.324074 4.676z"/><path d="m271.557407 47.042c-.842592-9.309-3.294444-9.309-7.393518-9.309h-15.056482v91.276h22.757408v-66.782c7.768518-3.927 16.288889-5.813 24.863889-5.503h4.099074v-20.688c-1.697222-.587-3.467593-.894-5.249074-.911-9.205556.133-17.931482 4.462-24.021297 11.917z"/><path d="m496.062037 31.7752575c7.066667 0 12.794444-6.1882575 12.794444-13.8192575 0-7.632-5.728703-13.82-12.794444-13.82-7.125.021-12.921296 6.207-13.025926 13.902.126852 7.659 5.932408 13.783 13.025926 13.7372575z"/><path d="m215.469444 39.058c-5.475-2.516-11.364814-3.812-17.316666-3.8070144-1.570371 0-3.141667 0-4.635185.2910144-14.457408 21.477-10.057408 51.545 9.829629 67.16 2.732408 2.147 5.680556 3.947 8.789815 5.372-4.084259 3.141-8.97037 4.835-13.984259 4.842-14.631482-.651-26.075-13.855-25.705556-29.667-.030555-6.721 1.987963-13.265 5.746297-18.621 0-7.53 2.451851-21.185 6.168518-27.142-23.397222 8.235-36.181481 35.396-28.55463 60.665 7.625926 25.267 32.774074 39.073 56.169445 30.837 23.397222-8.233 36.181481-35.396 28.556481-60.662-4.006481-13.273-13.150926-24.013-25.062963-29.434v.166zm7.05 53.418c-11.452777-3.954-19.136111-15.568-18.887963-28.552-.009259-3.054.403704-6.095 1.225926-9.02 11.451852 3.86 19.195371 15.388 19.041667 28.344-.040741 3.132-.50463 6.239-1.37963 9.228z"/><path d="m699.687037 81.055c0-30.784-13.522222-45.887-38.925-45.887-24.059259 0-42.140741 18.496-42.140741 48.535-.323148 9.986 1.976852 19.869 6.625 28.508-3.109259 1.081-6.347222 1.665-9.614815 1.739-6.436111 0-9.960185-2.028-10.76574-8.65v-44.727c0-21.019-10.688889-25.239-23.252778-25.239-10.796296.032-21.298148 3.803-29.960185 10.757-.996297-8.275-3.296297-8.481-7.394445-8.481h-14.979629v74.105c-3.55463 1.395-7.294445 2.161-11.074074 2.275-1.193519.007-2.38426-.089-3.561111-.29-4.712038-.95-7.011112-4.137-7.088889-11.296v-48.327c0-14.274-1.146297-16.549-9.040741-16.549h-13.333333v74.062c-3.578704 1.401-7.342593 2.169-11.146297 2.276-7.393518 0-10.960185-2.648-10.960185-11.915v-80.768c0-12.414-1.337963-14.606-9.384259-14.606h-12.796296v98.601c0 20.937 9.309259 26.107 21.837962 26.107 9.891667-.239 19.545371-3.325 27.967593-8.937 3.294445 3.807 4.635185 7.447 11.491667 8.605 1.034259 0 2.069444 0 3.142592.249h2.375926c7.516667-.282 14.899074-2.24 21.682408-5.75v3.475h22.604629v-69.14c6.262963-2.612 12.901852-4.012 19.615741-4.138 7.433333 0 10.689815 2.69 10.689815 11.875v10.759 26.895c0 20.937 9.347222 26.107 21.836111 26.107 10.312963-.227 20.356481-3.565 29.003704-9.64 8.450926 6.757 18.800926 10.16 29.305555 9.64 11.871297.481 23.625926-2.674 33.906482-9.104v-17.089h-7.393519c-6.657407 5.275-14.735185 8.036-22.987037 7.864-13.332407 0-21.569444-5.174-22.717592-23.835h56.048148c.075926-.909.383333-4.838.383333-8.066zm-56.05-7.655c1.8-17.42 8.735185-21.93 17.125-21.93 9.425 0 14.675 5.379 15.325926 21.93z"/><path d="m162.446296 16.55h2.605556v-16.055h-44.402778v16.055h6.398148c6.741667 0 8.466667 4.467 5.861111 12.66l-15.324074 68.436h-.344444l-22.1453706-97.151h-20.5342592l-22.45 97.151h-.3444445l-16.9722222-81.096h14.3277778v-16.055h-48.80833334v16.055h2.75833334c2.66851851.259 4.925 2.238 5.70925926 5.005l24.86388884 109.773h29.1935186l18.8111111-81.182h.3453703l18.6564816 81.222h29.155555l26.088889-109.068c.837037-3.222 3.460186-5.525 6.550926-5.75z"/></g></g></svg>