<svg width="32" height="32" viewBox="0 0 32 32" fill="none" xmlns="http://www.w3.org/2000/svg">
<path d="M25.92 27.456H18.368C17.664 27.456 17.088 26.88 17.088 26.176C17.088 25.472 17.664 24.896 18.368 24.896H25.92C26.624 24.896 27.2 24.32 27.2 23.616V3.84C27.2 3.136 26.624 2.56 25.92 2.56H6.07999C5.37599 2.56 4.79999 3.136 4.79999 3.84V23.616C4.79999 24.32 5.37599 24.896 6.07999 24.896H10.816C11.52 24.896 12.096 25.472 12.096 26.176C12.096 26.88 11.52 27.456 10.816 27.456H6.07999C3.96799 27.456 2.23999 25.728 2.23999 23.616V3.84C2.23999 1.728 3.96799 0 6.07999 0H25.92C28.032 0 29.76 1.728 29.76 3.84V23.616C29.76 25.728 28.032 27.456 25.92 27.456Z" fill="#7D2BD9"/>
<path d="M22.72 13.504H9.28C8.576 13.504 8 12.928 8 12.224V6.65598C8 5.95198 8.576 5.37598 9.28 5.37598H22.72C23.424 5.37598 24 5.95198 24 6.65598V12.224C24 12.928 23.424 13.504 22.72 13.504ZM10.56 10.944H21.44V7.93598H10.56V10.944Z" fill="#7D2BD9"/>
<path d="M17.408 22.08H9.28C8.576 22.08 8 21.504 8 20.8C8 20.096 8.576 19.52 9.28 19.52H17.408C18.112 19.52 18.688 20.096 18.688 20.8C18.688 21.504 18.112 22.08 17.408 22.08Z" fill="#7D2BD9"/>
<path d="M22.72 17.792H9.28C8.576 17.792 8 17.216 8 16.512C8 15.808 8.576 15.232 9.28 15.232H22.72C23.424 15.232 24 15.808 24 16.512C24 17.216 23.424 17.792 22.72 17.792Z" fill="#7D2BD9"/>
<path d="M10.816 32C10.624 32 10.368 31.936 10.176 31.808C9.79201 31.552 9.53601 31.168 9.53601 30.72V26.176C9.53601 25.472 10.112 24.896 10.816 24.896C11.52 24.896 12.096 25.472 12.096 26.176V28.48L17.664 25.088C18.24 24.704 19.072 24.896 19.392 25.536C19.776 26.112 19.584 26.944 18.944 27.264L11.52 31.808C11.328 31.936 11.072 32 10.816 32Z" fill="#7D2BD9"/>
</svg>
