<svg width="32" height="32" viewBox="0 0 32 32" fill="none" xmlns="http://www.w3.org/2000/svg">
<g clip-path="url(#clip0)">
<path d="M15.9999 23.6224C15.7309 23.622 15.4689 23.5369 15.2511 23.3792L8.56307 18.56C8.25708 18.3347 8.03034 18.0182 7.91536 17.656C7.80038 17.2938 7.80308 16.9045 7.92307 16.544L10.2207 9.50398C10.3236 9.19438 10.521 8.92481 10.785 8.73312C11.049 8.54142 11.3664 8.43723 11.6927 8.43518C12.0172 8.43798 12.3327 8.54266 12.5945 8.73444C12.8563 8.92622 13.0513 9.1954 13.1519 9.50398L14.3935 13.344H17.5935L18.8351 9.50398C18.9363 9.19516 19.1326 8.92622 19.3958 8.73555C19.659 8.54488 19.9757 8.44222 20.3007 8.44222C20.6257 8.44222 20.9424 8.54488 21.2056 8.73555C21.4688 8.92622 21.665 9.19516 21.7663 9.50398L24.0639 16.5184C24.1839 16.8789 24.1866 17.2682 24.0716 17.6304C23.9566 17.9926 23.7299 18.3091 23.4239 18.5344L16.7423 23.3792C16.5262 23.5356 16.2666 23.6207 15.9999 23.6224ZM10.5151 16.7872L15.9999 20.7616L21.4719 16.7872L20.3135 13.216L19.7567 14.9312C19.6751 15.1859 19.5158 15.4087 19.3012 15.5683C19.0865 15.7278 18.8273 15.8161 18.5599 15.8208H13.4399C13.1699 15.8206 12.907 15.7351 12.6886 15.5764C12.4702 15.4178 12.3075 15.1942 12.2239 14.9376L11.6607 13.2096L10.5151 16.7872Z" fill="#7D2BD9"/>
<path d="M16 4.81919C15.5225 4.81919 15.0557 4.67752 14.6588 4.41211C14.2619 4.14671 13.9526 3.7695 13.7702 3.32825C13.5878 2.88699 13.5404 2.40153 13.634 1.93332C13.7276 1.46511 13.958 1.0352 14.2961 0.698021C14.6342 0.360841 15.0647 0.13155 15.5332 0.039176C16.0016 -0.0531984 16.487 -0.00450289 16.9277 0.179098C17.3685 0.362699 17.7449 0.672949 18.0092 1.07057C18.2736 1.4682 18.414 1.93532 18.4128 2.41279C18.4111 3.0516 18.1561 3.66366 17.7038 4.11476C17.2515 4.56587 16.6388 4.81919 16 4.81919ZM16 2.25919C15.9801 2.25917 15.9604 2.26318 15.9421 2.27098C15.9238 2.27877 15.9073 2.29019 15.8935 2.30454C15.8798 2.3189 15.8691 2.33589 15.8621 2.35449C15.8551 2.3731 15.8519 2.39293 15.8528 2.41279C15.8528 2.57279 16.1472 2.57279 16.1472 2.41279C16.148 2.39293 16.1448 2.3731 16.1378 2.35449C16.1308 2.33589 16.1201 2.3189 16.1064 2.30454C16.0926 2.29019 16.0761 2.27877 16.0578 2.27098C16.0395 2.26318 16.0198 2.25917 16 2.25919Z" fill="#7D2BD9"/>
<path d="M16 32C15.5228 32 15.0563 31.8585 14.6595 31.5933C14.2627 31.3282 13.9534 30.9514 13.7708 30.5105C13.5882 30.0696 13.5404 29.5845 13.6335 29.1165C13.7266 28.6484 13.9564 28.2185 14.2939 27.8811C14.6313 27.5436 15.0612 27.3138 15.5292 27.2207C15.9973 27.1276 16.4824 27.1754 16.9233 27.358C17.3642 27.5407 17.741 27.8499 18.0061 28.2467C18.2713 28.6435 18.4128 29.11 18.4128 29.5872C18.4128 30.2271 18.1586 30.8408 17.7061 31.2933C17.2536 31.7458 16.6399 32 16 32ZM16 29.44C15.9609 29.44 15.9235 29.4555 15.8959 29.4831C15.8683 29.5107 15.8528 29.5481 15.8528 29.5872C15.8528 29.7536 16.1472 29.7536 16.1472 29.5872C16.1472 29.5481 16.1317 29.5107 16.104 29.4831C16.0764 29.4555 16.039 29.44 16 29.44Z" fill="#7D2BD9"/>
<path d="M29.5871 18.4128C29.1099 18.4128 28.6434 18.2713 28.2466 18.0062C27.8499 17.7411 27.5406 17.3642 27.358 16.9234C27.1754 16.4825 27.1276 15.9973 27.2207 15.5293C27.3138 15.0613 27.5436 14.6313 27.881 14.2939C28.2184 13.9565 28.6484 13.7267 29.1164 13.6336C29.5844 13.5405 30.0696 13.5883 30.5105 13.7709C30.9513 13.9535 31.3282 14.2628 31.5933 14.6595C31.8584 15.0563 31.9999 15.5228 31.9999 16C31.9999 16.6399 31.7457 17.2536 31.2932 17.7061C30.8407 18.1586 30.227 18.4128 29.5871 18.4128ZM29.5871 15.8528C29.5481 15.8528 29.5106 15.8683 29.483 15.8959C29.4554 15.9235 29.4399 15.961 29.4399 16C29.4399 16.1664 29.7407 16.1664 29.7407 16C29.7407 15.9801 29.7367 15.9605 29.7289 15.9422C29.7211 15.9239 29.7097 15.9074 29.6954 15.8936C29.681 15.8798 29.664 15.8691 29.6454 15.8621C29.6268 15.8551 29.607 15.852 29.5871 15.8528Z" fill="#7D2BD9"/>
<path d="M2.41285 18.4128C1.93538 18.4141 1.46826 18.2736 1.07063 18.0093C0.67301 17.7449 0.36276 17.3686 0.179159 16.9278C-0.00444185 16.487 -0.0531374 16.0017 0.039237 15.5332C0.131611 15.0648 0.360902 14.6343 0.698082 14.2962C1.03526 13.9581 1.46517 13.7277 1.93338 13.6341C2.40159 13.5404 2.88705 13.5878 3.32831 13.7703C3.76956 13.9527 4.14677 14.2619 4.41217 14.6589C4.67758 15.0558 4.81925 15.5225 4.81925 16C4.81926 16.6388 4.56593 17.2516 4.11482 17.7039C3.66372 18.1562 3.05166 18.4111 2.41285 18.4128ZM2.41285 15.8528C2.39299 15.8519 2.37316 15.8551 2.35455 15.8621C2.33595 15.8691 2.31896 15.8798 2.3046 15.8936C2.29025 15.9074 2.27883 15.9239 2.27104 15.9422C2.26324 15.9605 2.25923 15.9801 2.25925 16C2.25925 16.1664 2.56005 16.1664 2.56005 16C2.56005 15.961 2.54454 15.9235 2.51694 15.8959C2.48933 15.8683 2.45189 15.8528 2.41285 15.8528Z" fill="#7D2BD9"/>
<path d="M25.6 8.80002C25.0419 8.79878 24.5015 8.60406 24.0708 8.24905C23.6401 7.89404 23.3458 7.40069 23.238 6.85305C23.1303 6.3054 23.2157 5.73734 23.4798 5.24562C23.7439 4.7539 24.1703 4.36895 24.6863 4.15634C25.2024 3.94373 25.7762 3.91661 26.31 4.0796C26.8439 4.24259 27.3046 4.58562 27.6139 5.05024C27.9232 5.51486 28.0618 6.07234 28.0062 6.6277C27.9506 7.18307 27.7041 7.70197 27.3088 8.09602C26.8549 8.54759 26.2404 8.80075 25.6 8.80002ZM25.6 6.24002C25.5807 6.23926 25.5614 6.24289 25.5437 6.25065C25.526 6.25841 25.5102 6.2701 25.4976 6.28482C25.4739 6.30932 25.4595 6.3413 25.4567 6.37528C25.454 6.40927 25.4631 6.44316 25.4825 6.47116C25.502 6.49916 25.5306 6.51955 25.5634 6.52883C25.5962 6.53811 25.6312 6.53571 25.6624 6.52204C25.6937 6.50837 25.7192 6.48429 25.7346 6.45389C25.7501 6.4235 25.7545 6.38868 25.7472 6.35539C25.7398 6.3221 25.7211 6.29239 25.6943 6.27135C25.6674 6.25031 25.6341 6.23924 25.6 6.24002Z" fill="#7D2BD9"/>
<path d="M6.3999 28.0192C5.84148 28.0194 5.30026 27.826 4.86854 27.4718C4.43681 27.1176 4.14131 26.6246 4.03241 26.0769C3.92351 25.5292 4.00796 24.9607 4.27136 24.4683C4.53476 23.9759 4.96081 23.5901 5.47684 23.3767C5.99288 23.1633 6.56696 23.1355 7.1012 23.2981C7.63544 23.4606 8.09676 23.8034 8.4065 24.2681C8.71625 24.7327 8.85523 25.2904 8.79975 25.8461C8.74428 26.4018 8.49779 26.921 8.1023 27.3152C7.64989 27.7652 7.038 28.0182 6.3999 28.0192ZM6.2847 25.504C6.25669 25.532 6.24096 25.57 6.24096 25.6096C6.24096 25.6492 6.25669 25.6872 6.2847 25.7152C6.31271 25.7432 6.35069 25.7589 6.3903 25.7589C6.42991 25.7589 6.46789 25.7432 6.4959 25.7152L6.2847 25.504ZM6.3935 25.4592C6.37326 25.4588 6.35315 25.4626 6.33443 25.4703C6.31571 25.478 6.29878 25.4895 6.2847 25.504L6.4959 25.7152C6.52291 25.6867 6.53796 25.6489 6.53796 25.6096C6.53796 25.5703 6.52291 25.5325 6.4959 25.504C6.48402 25.4901 6.46931 25.4789 6.45275 25.4712C6.43619 25.4635 6.41817 25.4594 6.3999 25.4592H6.3935Z" fill="#7D2BD9"/>
<path d="M25.6 28.0192C25.0419 28.018 24.5015 27.8232 24.0708 27.4682C23.6401 27.1132 23.3458 26.6199 23.238 26.0722C23.1303 25.5246 23.2157 24.9565 23.4798 24.4648C23.7439 23.9731 24.1703 23.5881 24.6863 23.3755C25.2024 23.1629 25.7762 23.1358 26.31 23.2988C26.8439 23.4618 27.3046 23.8048 27.6139 24.2694C27.9232 24.734 28.0618 25.2915 28.0062 25.8469C27.9506 26.4022 27.7041 26.9212 27.3088 27.3152C26.8549 27.7668 26.2404 28.0199 25.6 28.0192ZM25.6 25.4592C25.5807 25.4584 25.5614 25.4621 25.5437 25.4698C25.526 25.4776 25.5102 25.4893 25.4976 25.504C25.4739 25.5285 25.4595 25.5605 25.4567 25.5945C25.454 25.6284 25.4631 25.6623 25.4825 25.6903C25.502 25.7183 25.5306 25.7387 25.5634 25.748C25.5962 25.7573 25.6312 25.7549 25.6624 25.7412C25.6937 25.7276 25.7192 25.7035 25.7346 25.6731C25.7501 25.6427 25.7545 25.6079 25.7472 25.5746C25.7398 25.5413 25.7211 25.5116 25.6943 25.4905C25.6674 25.4695 25.6341 25.4584 25.6 25.4592Z" fill="#7D2BD9"/>
<path d="M6.3999 8.79997C5.84148 8.8002 5.30026 8.60673 4.86854 8.25254C4.43681 7.89836 4.14131 7.40539 4.03241 6.85769C3.92351 6.30999 4.00796 5.74147 4.27136 5.24908C4.53476 4.75668 4.96081 4.37089 5.47684 4.15749C5.99288 3.94409 6.56696 3.9163 7.1012 4.07884C7.63544 4.24139 8.09676 4.58421 8.4065 5.04885C8.71625 5.5135 8.85523 6.0712 8.79975 6.62685C8.74428 7.18251 8.49779 7.70173 8.1023 8.09597C7.64949 8.54538 7.03787 8.79831 6.3999 8.79997ZM6.3999 6.23997C6.36412 6.23853 6.32897 6.24964 6.30052 6.27138C6.27206 6.29311 6.2521 6.3241 6.24407 6.35899C6.23604 6.39388 6.24045 6.43048 6.25654 6.46247C6.27263 6.49445 6.29938 6.51981 6.33219 6.53416C6.36499 6.54852 6.40177 6.55096 6.43618 6.54107C6.4706 6.53117 6.50047 6.50957 6.52064 6.47999C6.54082 6.45042 6.55003 6.41472 6.54668 6.37907C6.54333 6.34342 6.52763 6.31007 6.5023 6.28477C6.48973 6.27004 6.47398 6.25836 6.45625 6.2506C6.43851 6.24284 6.41924 6.2392 6.3999 6.23997Z" fill="#7D2BD9"/>
</g>
<defs>
<clipPath id="clip0">
<rect width="32" height="32" fill="white"/>
</clipPath>
</defs>
</svg>
