<svg width="32" height="32" viewBox="0 0 32 32" fill="none" xmlns="http://www.w3.org/2000/svg">
<g clip-path="url(#clip0)">
<path d="M20.7936 27.1104H7.89755C7.55808 27.1104 7.2325 26.9755 6.99246 26.7355C6.75241 26.4955 6.61755 26.1699 6.61755 25.8304V1.28C6.61755 0.940523 6.75241 0.61495 6.99246 0.374903C7.2325 0.134857 7.55808 0 7.89755 0L27.7376 0C28.077 0 28.4026 0.134857 28.6427 0.374903C28.8827 0.61495 29.0176 0.940523 29.0176 1.28V18.9184C29.0176 19.2579 28.8827 19.5835 28.6427 19.8235C28.4026 20.0635 28.077 20.1984 27.7376 20.1984C27.3981 20.1984 27.0725 20.0635 26.8325 19.8235C26.5924 19.5835 26.4576 19.2579 26.4576 18.9184V2.56H9.17755V24.5504H20.7936C21.133 24.5504 21.4586 24.6853 21.6986 24.9253C21.9387 25.1654 22.0736 25.4909 22.0736 25.8304C22.0736 26.1699 21.9387 26.4955 21.6986 26.7355C21.4586 26.9755 21.133 27.1104 20.7936 27.1104Z" fill="#7D2BD9"/>
<path d="M22.5856 32.2368H2.77756C2.43808 32.2368 2.11251 32.1019 1.87246 31.8619C1.63242 31.6218 1.49756 31.2963 1.49756 30.9568V6.4C1.49756 6.06052 1.63242 5.73495 1.87246 5.4949C2.11251 5.25485 2.43808 5.12 2.77756 5.12H4.17916C4.51864 5.12 4.84421 5.25485 5.08426 5.4949C5.3243 5.73495 5.45916 6.06052 5.45916 6.4C5.45916 6.73947 5.3243 7.06505 5.08426 7.30509C4.84421 7.54514 4.51864 7.68 4.17916 7.68H4.05756V29.6768H21.3376V28.3968C21.3376 28.0573 21.4724 27.7317 21.7125 27.4917C21.9525 27.2517 22.2781 27.1168 22.6176 27.1168C22.957 27.1168 23.2826 27.2517 23.5227 27.4917C23.7627 27.7317 23.8976 28.0573 23.8976 28.3968V30.9568C23.8976 31.1276 23.8635 31.2967 23.7972 31.4541C23.7308 31.6116 23.6337 31.7541 23.5114 31.8734C23.3891 31.9927 23.2442 32.0863 23.0852 32.1487C22.9262 32.2111 22.7563 32.2411 22.5856 32.2368Z" fill="#7D2BD9"/>
<path d="M23.4881 9.74719H12.1217C11.7822 9.74719 11.4566 9.61234 11.2166 9.37229C10.9765 9.13225 10.8417 8.80667 10.8417 8.46719C10.8417 8.12772 10.9765 7.80214 11.2166 7.5621C11.4566 7.32205 11.7822 7.18719 12.1217 7.18719H23.4881C23.8276 7.18719 24.1531 7.32205 24.3932 7.5621C24.6332 7.80214 24.7681 8.12772 24.7681 8.46719C24.7681 8.80667 24.6332 9.13225 24.3932 9.37229C24.1531 9.61234 23.8276 9.74719 23.4881 9.74719Z" fill="#7D2BD9"/>
<path d="M18.336 14.3936H12.032C11.6925 14.3936 11.3669 14.2588 11.1269 14.0187C10.8868 13.7787 10.752 13.4531 10.752 13.1136C10.752 12.7741 10.8868 12.4486 11.1269 12.2085C11.3669 11.9685 11.6925 11.8336 12.032 11.8336H18.336C18.6754 11.8336 19.001 11.9685 19.241 12.2085C19.4811 12.4486 19.616 12.7741 19.616 13.1136C19.616 13.4531 19.4811 13.7787 19.241 14.0187C19.001 14.2588 18.6754 14.3936 18.336 14.3936Z" fill="#7D2BD9"/>
<path d="M20.7936 27.1104C20.6268 27.1095 20.4618 27.0769 20.3071 27.0144C20.0724 26.918 19.8716 26.7539 19.7303 26.5431C19.589 26.3323 19.5135 26.0842 19.5135 25.8304V18.9184C19.5135 18.579 19.6484 18.2534 19.8885 18.0133C20.1285 17.7733 20.4541 17.6384 20.7936 17.6384H27.712C27.9639 17.6392 28.2101 17.7143 28.4196 17.8543C28.629 17.9943 28.7925 18.1931 28.8896 18.4256C28.991 18.6618 29.019 18.923 28.9699 19.1752C28.9208 19.4275 28.7969 19.6591 28.6144 19.84L21.7024 26.752C21.4587 26.9869 21.132 27.1158 20.7936 27.1104ZM22.0736 20.1984V22.7584L24.6336 20.1984H22.0736Z" fill="#7D2BD9"/>
</g>
<defs>
<clipPath id="clip0">
<rect width="32" height="32" fill="white"/>
</clipPath>
</defs>
</svg>
