<svg width="32" height="32" viewBox="0 0 32 32" fill="none" xmlns="http://www.w3.org/2000/svg">
<path d="M16 29.3056C15.8495 29.305 15.7002 29.2791 15.5584 29.2288C15.3122 29.1383 15.0997 28.9744 14.9498 28.7592C14.7998 28.544 14.7196 28.2879 14.72 28.0256V8.65281C14.7197 8.35074 14.8262 8.05829 15.0208 7.82721C16.3925 6.14709 18.1276 4.80013 20.0953 3.88776C22.063 2.9754 24.2121 2.52141 26.3808 2.56001C26.7033 2.58427 27.0048 2.72976 27.2244 2.96723C27.4441 3.2047 27.5657 3.51653 27.5648 3.84001V23.2C27.5653 23.3765 27.5293 23.5512 27.459 23.7131C27.3888 23.875 27.2858 24.0206 27.1566 24.1408C27.0274 24.261 26.8747 24.3532 26.7081 24.4116C26.5416 24.4699 26.3648 24.4932 26.1888 24.48C24.4243 24.4721 22.6805 24.8608 21.0865 25.6174C19.4924 26.374 18.0887 27.4792 16.9792 28.8512C16.8589 28.9937 16.709 29.1082 16.5398 29.1867C16.3707 29.2652 16.1864 29.3058 16 29.3056ZM17.28 9.13281V25.0112C19.5007 23.2586 22.1862 22.1951 25.0048 21.952V5.12001C22.0182 5.443 19.2615 6.875 17.28 9.13281Z" fill="#7D2BD9"/>
<path d="M16 29.44C15.8378 29.4413 15.6769 29.4109 15.5264 29.3504C11.1525 27.649 6.3018 27.6376 1.92 29.3184C1.79992 29.3693 1.67574 29.41 1.5488 29.44C1.36338 29.4748 1.17256 29.4681 0.990003 29.4205C0.807445 29.373 0.63766 29.2856 0.4928 29.1648C0.339927 29.0455 0.216135 28.8931 0.130767 28.7191C0.0453987 28.545 0.000684743 28.3538 0 28.16L0 7.32797C0 6.9885 0.134857 6.66292 0.374903 6.42288C0.61495 6.18283 0.940523 6.04797 1.28 6.04797H5.7152C6.05468 6.04797 6.38025 6.18283 6.6203 6.42288C6.86034 6.66292 6.9952 6.9885 6.9952 7.32797C6.9952 7.66745 6.86034 7.99302 6.6203 8.23307C6.38025 8.47312 6.05468 8.60797 5.7152 8.60797H2.56V26.3936C7.13477 25.0372 12.0314 25.2467 16.4736 26.9888C16.7393 27.1055 16.9575 27.3091 17.0923 27.5662C17.2271 27.8232 17.2705 28.1185 17.2155 28.4035C17.1604 28.6884 17.0101 28.9462 16.7893 29.1346C16.5684 29.3229 16.2901 29.4306 16 29.44Z" fill="#7D2BD9"/>
<path d="M16 29.3056C15.8135 29.3057 15.6293 29.2651 15.4601 29.1867C15.291 29.1082 15.1411 28.9937 15.0208 28.8512C13.9103 27.4786 12.5055 26.3732 10.9103 25.6166C9.31513 24.86 7.57029 24.4716 5.80479 24.48C5.62962 24.4913 5.45401 24.4664 5.28886 24.407C5.12371 24.3475 4.97256 24.2547 4.84479 24.1344C4.7161 24.015 4.61333 23.8705 4.54287 23.7098C4.4724 23.549 4.43575 23.3755 4.43519 23.2V3.83998C4.43427 3.5165 4.55588 3.20467 4.77553 2.9672C4.99519 2.72973 5.29661 2.58424 5.61919 2.55998C7.78833 2.52216 9.93776 2.97713 11.9055 3.89062C13.8733 4.80411 15.6081 6.15229 16.9792 7.83358C17.1723 8.06298 17.2788 8.35291 17.28 8.65278V28.0256C17.2804 28.2879 17.2001 28.544 17.0502 28.7592C16.9002 28.9744 16.6878 29.1383 16.4416 29.2288C16.2998 29.279 16.1505 29.305 16 29.3056ZM6.99519 21.952C9.81372 22.195 12.4993 23.2586 14.72 25.0112V9.13278C12.7373 6.87647 9.98124 5.44479 6.99519 5.11998V21.952Z" fill="#7D2BD9"/>
<path d="M30.72 29.44C30.6412 29.4463 30.562 29.4463 30.4832 29.44C30.3559 29.411 30.2317 29.3703 30.112 29.3184C25.7183 27.6355 20.8545 27.6537 16.4736 29.3696L15.5264 26.9888C19.9686 25.2467 24.8652 25.0372 29.44 26.3936V8.60797H26.2848C25.9453 8.60797 25.6197 8.47312 25.3797 8.23307C25.1396 7.99302 25.0048 7.66745 25.0048 7.32797C25.0048 6.9885 25.1396 6.66292 25.3797 6.42288C25.6197 6.18283 25.9453 6.04797 26.2848 6.04797H30.72C31.0594 6.04797 31.385 6.18283 31.6251 6.42288C31.8651 6.66292 32 6.9885 32 7.32797V28.16C32.0003 28.348 31.9591 28.5338 31.8795 28.7042C31.7999 28.8745 31.6837 29.0252 31.5392 29.1456C31.3089 29.3364 31.019 29.4406 30.72 29.44Z" fill="#7D2BD9"/>
</svg>
