<svg width="32" height="32" viewBox="0 0 32 32" fill="none" xmlns="http://www.w3.org/2000/svg">
<g clip-path="url(#clip0)">
<path d="M28.1153 19.9488C27.7758 19.9488 27.4502 19.8139 27.2102 19.5739C26.9701 19.3338 26.8353 19.0082 26.8353 18.6688V8.63996C26.8353 8.28351 26.6937 7.94166 26.4416 7.68961C26.1896 7.43756 25.8477 7.29596 25.4913 7.29596H6.50886C6.15241 7.29596 5.81056 7.43756 5.55851 7.68961C5.30646 7.94166 5.16486 8.28351 5.16486 8.63996V18.6688C5.16486 19.0082 5.03 19.3338 4.78995 19.5739C4.54991 19.8139 4.22434 19.9488 3.88486 19.9488C3.54538 19.9488 3.21981 19.8139 2.97976 19.5739C2.73972 19.3338 2.60486 19.0082 2.60486 18.6688V8.63996C2.60655 7.60508 3.01841 6.61306 3.75018 5.88129C4.48196 5.14951 5.47397 4.73765 6.50886 4.73596H25.4913C26.5261 4.73765 27.5182 5.14951 28.2499 5.88129C28.9817 6.61306 29.3936 7.60508 29.3953 8.63996V18.6688C29.3953 19.0082 29.2604 19.3338 29.0204 19.5739C28.7803 19.8139 28.4547 19.9488 28.1153 19.9488Z" fill="#7D2BD9"/>
<path d="M28.672 27.264H3.328C2.44536 27.264 1.59887 26.9134 0.974749 26.2892C0.350628 25.6651 0 24.8186 0 23.936L0 21.8944C0 21.5549 0.134857 21.2293 0.374903 20.9893C0.61495 20.7492 0.940523 20.6144 1.28 20.6144H30.72C31.0595 20.6144 31.385 20.7492 31.6251 20.9893C31.8651 21.2293 32 21.5549 32 21.8944V23.936C32 24.8186 31.6494 25.6651 31.0253 26.2892C30.4011 26.9134 29.5546 27.264 28.672 27.264ZM2.56 23.1744V23.936C2.56 24.0368 2.57986 24.1367 2.61846 24.2299C2.65706 24.3231 2.71363 24.4077 2.78494 24.479C2.85626 24.5504 2.94092 24.6069 3.0341 24.6455C3.12728 24.6841 3.22714 24.704 3.328 24.704H28.672C28.7729 24.704 28.8727 24.6841 28.9659 24.6455C29.0591 24.6069 29.1437 24.5504 29.2151 24.479C29.2864 24.4077 29.3429 24.3231 29.3815 24.2299C29.4201 24.1367 29.44 24.0368 29.44 23.936V23.1744H2.56Z" fill="#7D2BD9"/>
<path d="M13.8048 19.4816C13.5977 19.4793 13.3939 19.4289 13.2096 19.3344C13.003 19.2259 12.8301 19.063 12.7094 18.8634C12.5887 18.6637 12.5249 18.4349 12.5248 18.2016V9.83679C12.524 9.60274 12.5874 9.37295 12.7081 9.17241C12.8288 8.97188 13.0022 8.80828 13.2094 8.6994C13.4166 8.59053 13.6496 8.54055 13.8833 8.5549C14.1169 8.56925 14.3421 8.64738 14.5344 8.78079L20.6016 12.96C20.7732 13.0775 20.9136 13.2351 21.0105 13.4191C21.1075 13.6031 21.1582 13.808 21.1582 14.016C21.1582 14.224 21.1075 14.4289 21.0105 14.6129C20.9136 14.7969 20.7732 14.9544 20.6016 15.072L14.5344 19.2512C14.3204 19.4006 14.0658 19.481 13.8048 19.4816ZM15.0848 12.2688V15.7632L17.6448 14.016L15.0848 12.2688Z" fill="#7D2BD9"/>
</g>
<defs>
<clipPath id="clip0">
<rect width="32" height="32" fill="white"/>
</clipPath>
</defs>
</svg>
