<?xml version="1.0" encoding="UTF-8"?>
<svg width="26px" height="26px" viewBox="0 0 26 26" version="1.1" xmlns="http://www.w3.org/2000/svg" xmlns:xlink="http://www.w3.org/1999/xlink">
    <!-- Generator: Sketch 63.1 (92452) - https://sketch.com -->
    <title>Checkmark</title>
    <desc>Created with Sketch.</desc>
    <g id="demo-page-redesign" stroke="none" stroke-width="1" fill="none" fill-rule="evenodd">
        <g id="Desktop-Revised-V3" transform="translate(-492.000000, -188.000000)" fill="#FFFFFF" fill-rule="nonzero">
            <g id="Design" transform="translate(0.000000, -24.000000)">
                <g id="Main-Content" transform="translate(492.000000, 153.000000)">
                    <g id="Checkmark-Content" transform="translate(0.000000, 59.000000)">
                        <g id="Checkmark">
                            <path d="M16.920779,9.36090128 L11.0452477,15.296907 L9.00273248,13.5724619 C8.5119048,13.1573802 7.7510619,13.1922516 7.30823692,13.6557032 C6.86541195,14.1169051 6.90381412,14.8278309 7.39704193,15.2440375 L10.3180066,17.7097803 C10.394811,17.7750235 10.4848161,17.8121446 10.572421,17.856015 C10.6144234,17.8762629 10.6504254,17.9100094 10.6936278,17.9257577 C10.8304355,17.9752526 10.9756437,18 11.1208519,18 C11.2828611,18 11.4448702,17.9685033 11.5960787,17.9077596 C11.6488817,17.8863869 11.6884839,17.8425164 11.7376867,17.8132695 C11.8288918,17.7604 11.9236972,17.7165296 12.0005015,17.6400376 L18.6800782,10.8907417 C19.1301036,10.4362891 19.102502,9.72423838 18.6152745,9.3012825 C18.1292471,8.87720174 17.3720044,8.90419893 16.920779,9.36090128" id="Path"></path>
                            <path d="M13,0 C5.82636364,0 0,5.83227273 0,13 C0,20.1677273 5.83227273,26 13,26 C20.1677273,26 26,20.1677273 26,13 C26,5.83227273 20.1677273,0 13,0 M13,23.6363636 C7.13463636,23.6363636 2.36363636,18.8618182 2.36363636,13 C2.36363636,7.13818182 7.13818182,2.36363636 13,2.36363636 C18.8618182,2.36363636 23.6363636,7.13818182 23.6363636,13 C23.6363636,18.8618182 18.8618182,23.6363636 13,23.6363636" id="Shape"></path>
                        </g>
                    </g>
                </g>
            </g>
        </g>
    </g>
</svg>