<svg xmlns="http://www.w3.org/2000/svg" viewBox="0 0 676 248" enable-background="new 0 0 676 248"><switch><g><g><path d="m-4.187 201.03l19.279-59.33h-38.558l19.279 59.33" fill="#e24329" transform="translate(155.2 1.16)"/><path d="m122.47 201.03l-19.279-59.33h-26.995l46.27 59.33" fill="#fc6d26" transform="translate(28.531 1.161)"/><path d="m104.63 142.63l-5.867 18.03c-.531 1.637.043 3.443 1.445 4.464l50.695 36.836-46.27-59.33" fill="#fca326" transform="translate(.089.256)"/><path d="m75.3-137.37h27.02l-11.627-35.731c-.595-1.828-3.188-1.828-3.805 0l-11.584 35.731" fill="#e24329" transform="translate(29.422 280.26)"/><path d="m-96.19 201.03l19.279-59.33h27.02l-46.29 59.33" fill="#fc6d26" transform="translate(247.2 1.161)"/><path d="m-49.02 142.63l5.867 18.03c.531 1.637-.043 3.443-1.445 4.464l-50.695 36.815 46.27-59.3" fill="#fca326" transform="translate(246.31.256)"/><path d="m-139.67-137.37h-27.02l11.606-35.731c.595-1.828 3.188-1.828 3.805 0l11.605 35.731" fill="#e24329" transform="translate(336.97 280.26)"/><path d="m206.96 159.68l-5.761-17.7c-.038-.164-.084-.325-.143-.484l-11.567-35.613c-.828-2.451-3.115-4.092-5.701-4.092-.011 0-.022 0-.033 0-2.588.015-4.864 1.676-5.665 4.136l-10.702 32.946h-32.75l-10.721-32.948c-.8-2.458-3.076-4.119-5.664-4.134-.011 0-.022 0-.033 0-2.585 0-4.874 1.641-5.716 4.138l-11.552 35.633c-.011.032-.027.062-.038.094l-5.868 18.03c-1.072 3.305.092 6.895 2.898 8.936l50.695 36.837c.706.513 1.53.764 2.351.764.391 0 .775-.076 1.151-.189.036-.01.073-.017.109-.028.022-.007.043-.018.066-.025.13-.046.257-.096.383-.156.025-.012.05-.021.075-.034.019-.009.038-.016.056-.025.064-.033.122-.075.184-.111.1-.059.2-.113.295-.181.019-.013.04-.022.058-.036l50.697-36.816c2.805-2.042 3.969-5.632 2.896-8.939m-78.14-12.786l11.346 34.913-27.23-34.913h15.886m60.27 0l-27.25 34.927 11.351-34.927h15.902m-5.299-32.64l7.996 24.619h-15.994l7.998-24.619m-19.01 32.619l-13.773 42.38-13.773-42.38h27.546m-46.574-32.62l8.01 24.62h-15.993l7.981-24.62m-15.56 47.903l3.538-10.869 24.19 31.02-27.729-20.15m68.974 20.13l24.19-31 3.542 10.861-27.733 20.14" fill="#251b3f"/></g><g><path d="m363.33 176.06h-47.09c-2.209 0-4-1.791-4-4s1.791-4 4-4h47.09c2.209 0 4 1.791 4 4s-1.791 4-4 4" opacity=".3"/><path d="m394.33 176.06h-13.09c-2.209 0-4-1.791-4-4s1.791-4 4-4h13.09c2.209 0 4 1.791 4 4s-1.791 4-4 4" fill="#fc6d26"/><path d="m408.16 204.78h-91.52c-2.209 0-4-1.791-4-4s1.791-4 4-4h91.52c2.209 0 4 1.791 4 4s-1.792 4-4 4" fill="#251b3f"/><path d="m321.88 234.22h-16.32c-2.209 0-4-1.791-4-4s1.791-4 4-4h16.32c2.209 0 4 1.791 4 4s-1.791 4-4 4" fill="#fc6d26"/><path d="m400.88 234.22h-61.32c-2.209 0-4-1.791-4-4s1.791-4 4-4h61.32c2.209 0 4 1.791 4 4s-1.791 4-4 4" fill="#fca326"/></g><path d="m253.46 232.85h-204.93c-6.294 0-11.414-5.12-11.414-11.413v-139c0-6.294 5.12-11.414 11.414-11.414h204.93c6.294 0 11.414 5.12 11.414 11.414v139c0 6.292-5.12 11.413-11.414 11.413m-204.93-153.83c-1.883 0-3.414 1.531-3.414 3.414v139c0 1.882 1.531 3.413 3.414 3.413h204.93c1.883 0 3.414-1.531 3.414-3.413v-139c0-1.883-1.531-3.414-3.414-3.414h-204.93" fill="#251b3f"/><g><path d="m275.53 243.5h-249.06c-4.046 0-7.325-3.28-7.325-7.325v-4.395c0-1.618 1.312-2.93 2.93-2.93h257.85c1.618 0 2.93 1.312 2.93 2.93v4.395c0 4.045-3.279 7.325-7.325 7.325" fill="#3d3663"/><path d="m275.53 247.5h-249.06c-6.245 0-11.325-5.08-11.325-11.325v-4.396c0-3.821 3.109-6.93 6.931-6.93h257.85c3.821 0 6.931 3.108 6.931 6.93v4.396c-.001 6.245-5.082 11.325-11.327 11.325m-252.38-14.65v3.325c0 1.834 1.491 3.325 3.325 3.325h249.06c1.834 0 3.325-1.491 3.325-3.325v-3.325h-255.71" fill="#251b3f"/></g><g><g><path d="m40.756 183.07h-7.325c-8.091 0-14.65-6.559-14.65-14.65v-36.626c0-8.091 6.559-14.65 14.65-14.65h7.325v65.926" fill="#3d3663"/><path d="m40.756 187.07h-7.325c-10.284 0-18.65-8.366-18.65-18.65v-36.626c0-10.284 8.366-18.65 18.65-18.65h7.325c2.209 0 4 1.791 4 4v65.927c0 2.208-1.791 3.999-4 3.999m-7.325-65.926c-5.873 0-10.65 4.777-10.65 10.65v36.626c0 5.873 4.777 10.65 10.65 10.65h3.325v-57.927h-3.325" fill="#251b3f"/></g><g><path d="m18.78 172.08h-4.883c-5.394 0-9.767-4.373-9.767-9.767v-24.417c0-5.394 4.373-9.767 9.767-9.767h4.883v43.951" fill="#3d3663"/><path d="m18.78 176.08h-4.883c-7.592 0-13.768-6.176-13.768-13.767v-24.417c0-7.592 6.176-13.768 13.768-13.768h4.883c2.209 0 4 1.791 4 4v43.951c0 2.21-1.791 4-4 4m-4.883-43.951c-3.181 0-5.768 2.587-5.768 5.768v24.417c0 3.18 2.587 5.767 5.768 5.767h.883v-35.951h-.883z" fill="#251b3f"/></g><g><path d="m261.24 117.14h7.325c8.091 0 14.65 6.559 14.65 14.65v36.626c0 8.091-6.559 14.65-14.65 14.65h-7.325v-65.926" fill="#3d3663"/><path d="m268.57 187.07h-7.325c-2.209 0-4-1.791-4-4v-65.927c0-2.209 1.791-4 4-4h7.325c10.284 0 18.65 8.366 18.65 18.65v36.626c.001 10.285-8.365 18.651-18.65 18.651m-3.325-8h3.325c5.873 0 10.65-4.777 10.65-10.65v-36.626c0-5.873-4.777-10.65-10.65-10.65h-3.325v57.926" fill="#251b3f"/></g><g><path d="m283.22 128.13h4.883c5.394 0 9.767 4.373 9.767 9.767v24.417c0 5.394-4.373 9.767-9.767 9.767h-4.883v-43.951" fill="#3d3663"/><path d="m288.1 176.08h-4.883c-2.209 0-4-1.791-4-4v-43.951c0-2.209 1.791-4 4-4h4.883c7.592 0 13.768 6.176 13.768 13.768v24.417c-.001 7.59-6.177 13.766-13.768 13.766m-.883-8h.883c3.181 0 5.768-2.587 5.768-5.767v-24.417c0-3.181-2.587-5.768-5.768-5.768h-.883v35.952" fill="#251b3f"/></g><path d="m294.19 94.25c-.33-.73-8.333-18.1-29.89-35.44-1.074-.864-2.203-1.738-3.371-2.616 1.454-5.02-.5-10.588-5.145-13.501-28.15-17.65-62.68-26.438-102.59-26.19h-3.58c-39.769-.231-74.22 8.463-102.31 25.965-4.514 2.812-6.505 8.133-5.307 13.03-1.505 1.111-2.943 2.216-4.299 3.307-21.555 17.338-29.558 34.71-29.888 35.44-.422.935-.469 1.996-.131 2.964l9.576 27.451c.728 2.086 3.01 3.19 5.094 2.459 2.086-.728 3.188-3.01 2.459-5.094l-9.02-25.847c2.287-4.285 10.423-17.972 27.28-31.432 1.056-.843 2.167-1.695 3.319-2.553 3.85 2.925 9.252 3.35 13.601.64 24.17-15.06 54.25-22.589 89.54-22.334h3.744c.548-.004 1.091-.006 1.636-.006 34.634 0 64.28 7.576 88.12 22.527 1.981 1.242 4.186 1.835 6.363 1.835 2.442 0 4.846-.753 6.87-2.163.913.688 1.805 1.375 2.655 2.053 16.866 13.464 25 27.15 27.29 31.431l-9.131 26.17c-.729 2.086.373 4.366 2.459 5.094.436.152.88.225 1.317.225 1.654 0 3.201-1.034 3.776-2.684l9.69-27.777c.34-.967.293-2.028-.129-2.963" fill="#251b3f"/></g><path d="m666 188h-240c-5.514 0-10-4.486-10-10v-168c0-5.514 4.486-10 10-10h240c5.514 0 10 4.486 10 10v168c0 5.514-4.486 10-10 10m-240-180c-1.103 0-2 .897-2 2v168c0 1.103.897 2 2 2h240c1.103 0 2-.897 2-2v-168c0-1.103-.897-2-2-2h-240" fill="#251b3f"/><path d="m654.43 36h-183c-2.209 0-4-1.791-4-4s1.791-4 4-4h183c2.209 0 4 1.791 4 4s-1.791 4-4 4" fill="#251b3f"/><path d="m654.43 83h-46c-2.209 0-4-1.791-4-4s1.791-4 4-4h46c2.209 0 4 1.791 4 4s-1.791 4-4 4" fill="#251b3f" opacity=".3"/><path d="m654.43 111h-26c-2.209 0-4-1.791-4-4s1.791-4 4-4h26c2.209 0 4 1.791 4 4s-1.791 4-4 4" opacity=".3"/><path d="m457.45 33.22l-1.291-3.966c-.006-.036-.017-.072-.031-.106l-2.589-7.971c-.138-.408-.504-.672-.935-.672-.002 0-.004 0-.006 0-.431.002-.795.268-.929.677l-2.477 7.627h-7.857l-2.482-7.628c-.133-.409-.497-.675-.928-.677-.002 0-.004 0-.006 0-.431 0-.797.263-.937.677l-2.588 7.983c-.002.005-.004.01-.006.015 0 .001-.001.002-.001.003l-1.314 4.04c-.192.591.016 1.233.518 1.599l11.353 8.25c.095.069.205.102.315.102.081 0 .161-.021.235-.057.002-.001.004-.002.005-.003.003-.001.006-.002.008-.004.005-.003.01-.006.016-.009.016-.009.033-.018.048-.03.003-.002.005-.003.008-.005l11.354-8.245c.501-.363.709-1.01.517-1.597" fill="#1c1330"/><g><path d="m564.44 163.7c-.132 0-.264-.007-.396-.02-2.184-.217-4.082-1.571-4.955-3.533l-17.05-40.08c-.936-2.335-.414-4.896 1.295-6.604 1.136-1.136 2.651-1.762 4.27-1.762.777 0 1.536.146 2.255.434l40.02 16.982c1.875.75 3.213 2.439 3.54 4.429.099.357.15.727.15 1.097 0 2.194-1.126 4.142-3.02 5.226l-5.844 3.498 5.66 5.66c2.29 2.293 2.29 6.164.002 8.455l-3.094 3.094c-1.119 1.119-2.66 1.761-4.229 1.761-1.565 0-3.105-.641-4.225-1.758l-5.656-5.655-3.43 5.758c-1.066 1.864-3.09 3.02-5.298 3.02" fill="#fca326"/><path d="m547.6 115.7c.262 0 .524.049.769.147l39.946 16.952c.737.295 1.179.958 1.179 1.695.074.073.074.147.074.147 0 .737-.368 1.4-1.032 1.769l-10.284 6.156 9.286 9.287c.737.737.737 2.063 0 2.801l-3.091 3.091c-.369.369-.885.59-1.4.59s-1.032-.221-1.4-.59l-9.286-9.287-6.083 10.21c-.368.664-1.105 1.032-1.843 1.032-.737-.074-1.4-.516-1.695-1.18l-17.02-40.02c-.295-.737-.147-1.621.442-2.211.394-.393.919-.589 1.443-.589m0-8c-2.686 0-5.207 1.041-7.097 2.931-2.844 2.845-3.712 7.1-2.214 10.842.021.053.043.106.065.159l17.02 40.02c.016.039.033.077.05.115 1.454 3.273 4.6 5.532 8.21 5.893.264.026.53.04.796.04 3.63 0 6.967-1.912 8.753-5l.784-1.316 2.02 2.02c1.862 1.863 4.435 2.933 7.06 2.933 2.621 0 5.193-1.069 7.06-2.933l3.091-3.091c1.841-1.841 2.896-4.413 2.896-7.06 0-2.645-1.056-5.218-2.897-7.06l-2.033-2.033 1.415-.847c3.083-1.786 4.991-5.093 4.991-8.674 0-.649-.08-1.293-.233-1.92-.592-3.248-2.791-6-5.941-7.306l-39.9-16.932c-.052-.022-.105-.044-.157-.065-1.192-.478-2.449-.719-3.736-.719z" fill="#251b3f"/></g><path d="m530.7 104.83c-1.023 0-2.048-.391-2.828-1.172l-12.729-12.729c-1.562-1.562-1.562-4.095 0-5.656 1.561-1.562 4.096-1.562 5.656 0l12.729 12.729c1.562 1.562 1.562 4.095 0 5.656-.78.782-1.804 1.172-2.828 1.172" fill="#251b3f"/><path d="m546.96 94.15c-2.209 0-4-1.791-4-4v-14c0-2.209 1.791-4 4-4s4 1.791 4 4v14c0 2.209-1.791 4-4 4" fill="#251b3f" opacity=".3"/><path d="m520.02 121.09h-14c-2.209 0-4-1.791-4-4s1.791-4 4-4h14c2.209 0 4 1.791 4 4s-1.791 4-4 4" fill="#251b3f" opacity=".3"/><path d="m526 153h-70c-5.514 0-10-4.486-10-10v-78c0-5.514 4.486-10 10-10h118c5.514 0 10 4.486 10 10v31.5c0 2.209-1.791 4-4 4s-4-1.791-4-4v-31.5c0-1.103-.897-2-2-2h-118c-1.103 0-2 .897-2 2v78c0 1.103.897 2 2 2h70c2.209 0 4 1.791 4 4s-1.791 4-4 4" fill="#251b3f"/></g></switch></svg>