<?xml version="1.0" encoding="UTF-8"?>
<svg width="86px" height="15px" viewBox="0 0 86 15" version="1.1" xmlns="http://www.w3.org/2000/svg" xmlns:xlink="http://www.w3.org/1999/xlink">
    <!-- Generator: Sketch 63.1 (92452) - https://sketch.com -->
    <title>sony</title>
    <desc>Created with Sketch.</desc>
    <g id="demo-page-redesign" stroke="none" stroke-width="1" fill="none" fill-rule="evenodd">
        <g id="Desktop-Revised-V3" transform="translate(-1092.000000, -615.000000)" fill="#FFFFFF" fill-rule="nonzero">
            <g id="Logos" transform="translate(684.000000, 598.000000)">
                <g id="sony" transform="translate(408.000000, 17.000000)">
                    <path d="M78.171011,0.828220859 L86,0.828220859 L86,2.51533742 L84.452063,2.51533742 C83.7971666,2.51533742 83.2613422,2.7607362 82.814822,3.2208589 L77.5756506,8.95705521 L77.5756506,11.7484663 C77.5756506,12.208589 77.8137947,12.4539877 78.260315,12.4539877 L80.1952363,12.4539877 L80.1952363,14.1411043 L70.7587742,14.1411043 L70.7587742,12.4539877 L72.6936954,12.4539877 C73.1402157,12.4539877 73.3783599,12.208589 73.3783599,11.7484663 L73.3783599,9.14110429 L68.0201164,3.2208589 C67.5735962,2.7607362 67.0377718,2.51533742 66.3828754,2.51533742 L64.8647064,2.51533742 L64.8647064,0.828220859 L74.4500086,0.828220859 L74.4500086,2.51533742 L73.497432,2.51533742 C73.2592878,2.51533742 73.1104477,2.60736196 73.0509117,2.7607362 C72.9913756,2.91411043 73.0211437,3.06748466 73.1402157,3.2208589 L76.3253938,6.71779141 L79.4808038,3.2208589 C79.5998759,3.09815951 79.6296439,2.94478528 79.5403398,2.7607362 C79.4808038,2.60736196 79.3319637,2.51533742 79.0938196,2.51533742 L78.1412429,2.51533742 L78.171011,0.828220859 L78.171011,0.828220859 Z M60.9353279,14.1411043 L58.2562062,14.1411043 L47.6290233,4.75460123 L47.6290233,11.7177914 C47.6290233,12.1779141 47.8671675,12.4233129 48.3136878,12.4233129 L50.248609,12.4233129 L50.248609,14.1104294 L42.3005479,14.1104294 L42.3005479,12.4233129 L44.2354691,12.4233129 C44.6819894,12.4233129 44.9201336,12.1779141 44.9201336,11.7177914 L44.9201336,3.2208589 C44.9201336,2.7607362 44.6819894,2.51533742 44.2354691,2.51533742 L42.3005479,2.51533742 L42.3005479,0.828220859 L48.9685842,0.828220859 L58.2264381,8.98773006 L58.2264381,3.2208589 C58.2264381,2.7607362 57.988294,2.51533742 57.5417737,2.51533742 L55.6068525,2.51533742 L55.6068525,0.828220859 L63.5549136,0.828220859 L63.5549136,2.51533742 L61.6199923,2.51533742 C61.173472,2.51533742 60.9353279,2.7607362 60.9353279,3.2208589 L60.9353279,14.1411043 L60.9353279,14.1411043 Z M30.5719484,0 C24.4992725,0 20.5103579,3.19018405 20.5103579,7.48466258 C20.5103579,11.7791411 24.5290405,14.9693252 30.5719484,14.9693252 C36.6148562,14.9693252 40.6335388,11.7484663 40.6335388,7.48466258 C40.6335388,3.2208589 36.6148562,0 30.5719484,0 L30.5719484,0 Z M30.5719484,1.99386503 C34.0548066,1.99386503 36.3469441,4.35582822 36.3469441,7.48466258 C36.3469441,10.6134969 34.0548066,12.9754601 30.5719484,12.9754601 C27.0890901,12.9754601 24.7969526,10.6134969 24.7969526,7.48466258 C24.7969526,4.32515337 27.0890901,1.99386503 30.5719484,1.99386503 L30.5719484,1.99386503 Z M15.0628104,0.644171779 L16.7000514,0.644171779 L16.7000514,5.15337423 L15.0628104,5.15337423 C14.2590739,2.36196319 10.1510872,1.96319018 7.59103759,1.96319018 C5.35843615,1.96319018 3.66165906,2.57668712 3.66165906,3.74233129 C3.66165906,5.09202454 6.81706909,5.15337423 9.37711874,5.49079755 C12.6516008,5.95092025 17.4740199,5.85889571 17.4740199,10.3067485 C17.4740199,13.803681 12.9790491,15 10.1510872,15 C5.09052398,15 3.54258698,13.5276074 2.38163424,13.5276074 C2.05418603,13.5276074 1.90534593,13.8343558 1.90534593,14.4785276 L0.268104879,14.4785276 L0.268104879,9.38650307 L1.90534593,9.38650307 C2.53047433,12.4233129 7.08498126,13.0981595 8.99013449,13.0981595 C10.3594634,13.0981595 13.8423216,12.8220859 13.8423216,11.1656442 C13.8423216,9.60122699 11.6097202,9.66257669 8.87106241,9.26380368 C5.8942605,8.83435583 0.000192707094,8.74233129 0.000192707094,4.63190184 C-0.029575312,1.50306748 3.39374689,4.4408921e-15 7.26358938,4.4408921e-15 C11.7287922,4.4408921e-15 13.9613937,1.50306748 14.6162901,1.50306748 C14.9139703,1.47239264 15.0628104,1.19631902 15.0628104,0.644171779 L15.0628104,0.644171779 Z" id="Shape"></path>
                </g>
            </g>
        </g>
    </g>
</svg>