<?xml version="1.0" encoding="UTF-8"?>
<svg width="61px" height="30px" viewBox="0 0 61 30" version="1.1" xmlns="http://www.w3.org/2000/svg" xmlns:xlink="http://www.w3.org/1999/xlink">
    <!-- Generator: Sketch 63.1 (92452) - https://sketch.com -->
    <title>ea</title>
    <desc>Created with Sketch.</desc>
    <g id="demo-page-redesign" stroke="none" stroke-width="1" fill="none" fill-rule="evenodd">
        <g id="Desktop-Revised-V3" transform="translate(-914.000000, -607.000000)" fill="#FFFFFF" fill-rule="nonzero">
            <g id="Logos" transform="translate(684.000000, 598.000000)">
                <g id="ea" transform="translate(230.000000, 9.000000)">
                    <path d="M46.2438095,2 L46.6698413,2 L46.6698413,0.290322581 L47.4444444,0.290322581 L47.4444444,0 L45.5079365,0 L45.5079365,0.290322581 L46.2825397,0.290322581 L46.2438095,2 Z M47.7772817,0.451612903 L48.2916667,2 L48.5639881,2 L49.078373,0.451612903 L49.078373,2 L49.3809524,2 L49.3809524,0 L48.9270833,0 L48.4126984,1.5483871 L47.8983135,0 L47.4444444,0 L47.4444444,2 L47.7470238,2 L47.7470238,0.451612903 L47.7772817,0.451612903 Z M36.7936508,0 L13.2580127,0 L9.68253968,6 L33.1834644,6 L36.7936508,0 Z M41.8054273,0 L27.2245958,24 L11.0236721,24 L14.7569284,18 L24.4774827,18 L28.1755196,12 L5.74076212,12 L2.04272517,18 L7.3608545,18 L0,30 L30.7817552,30 L42.1576212,11.4909091 L46.3135104,18 L42.580254,18 L39.0583141,24 L50.1172055,24 L53.9561201,30 L61,30 L41.8054273,0 L41.8054273,0 Z" id="Shape"></path>
                </g>
            </g>
        </g>
    </g>
</svg>