<?xml version="1.0" encoding="UTF-8"?>
<svg width="50px" height="50px" viewBox="0 0 50 50" version="1.1" xmlns="http://www.w3.org/2000/svg" xmlns:xlink="http://www.w3.org/1999/xlink">
    <!-- Generator: Sketch 63.1 (92452) - https://sketch.com -->
    <title>bayer</title>
    <desc>Created with Sketch.</desc>
    <g id="demo-page-redesign" stroke="none" stroke-width="1" fill="none" fill-rule="evenodd">
        <g id="Desktop-Revised-V3" transform="translate(-1009.000000, -598.000000)" fill="#FFFFFF" fill-rule="nonzero">
            <g id="Logos" transform="translate(684.000000, 598.000000)">
                <g id="bayer" transform="translate(325.000000, 0.000000)">
                    <path d="M25,0 C11.2629247,0 0,11.2629247 0,25 C0,38.7001477 11.2629247,50 25,50 C38.7001477,50 50,38.7370753 50,25 C50,11.2629247 38.7001477,0 25,0 Z M42.3559823,40.620384 C37.9615953,45.4948301 31.5731167,48.338257 25,48.338257 C19.2762186,48.338257 13.6262925,46.1595273 9.37961595,42.3190547 C4.46824225,37.9246677 1.66174298,31.5361891 1.66174298,24.9630724 C1.66174298,19.239291 3.80354505,13.5893648 7.64401773,9.30576071 C12.0384047,4.43131462 18.4638109,1.58788774 25.0369276,1.58788774 C30.760709,1.58788774 36.4106352,3.76661743 40.6573117,7.6070901 C45.5686854,12.0014771 48.3751846,18.3899557 48.3751846,25 C48.3751846,30.7237814 46.1964549,36.3737075 42.3559823,40.620384 L42.3559823,40.620384 Z" id="Shape"></path>
                    <path d="M24.4133895,24.2370608 L26.6176229,21.2216343 L28.8929607,21.2216343 L25.3377454,25.908261 L25.3377454,28.8510266 L23.4890335,28.8510266 L23.4890335,25.908261 L19.9338183,21.2216343 L22.2447082,21.2216343 L24.4133895,24.2370608 Z M36.5011213,27.4704699 L36.5011213,28.8510266 L29.2840343,28.8510266 L29.2840343,21.2216343 L36.2878083,21.2216343 L36.2878083,22.602191 L31.1682984,22.602191 L31.1682984,24.2733912 L36.1100476,24.2733912 L36.1100476,25.6176175 L31.1682984,25.6176175 L31.1682984,27.4704699 L36.5011213,27.4704699 L36.5011213,27.4704699 Z M28.6796478,35.8991318 L28.6796478,37.2433581 L20.9292786,37.2433581 L20.9292786,29.6502962 L28.501887,29.6502962 L28.501887,31.0308529 L22.8135426,31.0308529 L22.8135426,32.6657227 L28.3241262,32.6657227 L28.3241262,34.0462794 L22.8135426,34.0462794 L22.8135426,35.8991318 L28.6796478,35.8991318 L28.6796478,35.8991318 Z M17.8717935,21.2216343 L15.8808729,21.2216343 L12.2190013,28.8146961 L14.3165782,28.8146961 L14.9920691,27.3251481 L18.7605973,27.3251481 L19.4360882,28.8146961 L21.5336652,28.8146961 L17.8717935,21.2216343 L17.8717935,21.2216343 Z M15.6320079,25.9445914 L16.8763332,23.183478 L18.1206585,25.9445914 L15.6320079,25.9445914 Z M10.4769458,24.6366956 C11.1879888,24.3460521 11.6501668,23.9100868 11.6501668,23.0744867 C11.6501668,21.4396169 10.1569764,21.2216343 8.84154679,21.2216343 L4.25531915,21.2216343 L4.25531915,28.8146961 L9.44593338,28.8146961 C10.8680195,28.8146961 12.0412405,28.2334091 12.0412405,26.5985393 C12.0412405,25.581287 11.4368539,24.8546782 10.4769458,24.6366956 Z M6.10403107,22.602191 L8.84154679,22.602191 C9.37482908,22.602191 9.87255921,22.7475128 9.83700706,23.4014607 C9.8014549,23.9827477 9.37482908,24.1643999 8.84154679,24.1643999 L6.10403107,24.1643999 L6.10403107,22.602191 Z M8.84154679,27.4704699 L6.10403107,27.4704699 L6.10403107,25.4722957 L8.84154679,25.4722957 C9.55258984,25.4722957 10.1214243,25.5449566 10.1214243,26.4532176 C10.1214243,27.2524872 9.55258984,27.4704699 8.84154679,27.4704699 L8.84154679,27.4704699 Z M43.5759996,25.7992697 C44.7492206,25.5449566 45.4958158,24.8183478 45.4958158,23.510452 C45.4958158,21.7665909 44.0381775,21.2579648 42.5805393,21.2579648 L37.5676858,21.2579648 L37.5676858,28.8510266 L39.4163977,28.8510266 L39.4163977,25.8356001 L41.585079,25.8356001 L43.5404474,28.8510266 L45.7446809,28.8510266 L43.5759996,25.7992697 Z M42.4027785,24.418713 L39.4875021,24.418713 L39.4875021,22.602191 L42.4027785,22.602191 C43.0071651,22.602191 43.6115517,22.7838432 43.6115517,23.510452 C43.6115517,24.2733912 43.0071651,24.418713 42.4027785,24.418713 Z M26.7953837,7.67038044 C27.5064267,7.34340649 27.9686047,6.94377166 27.9686047,6.10817155 C27.9686047,4.47330178 26.4754143,4.25531915 25.1599847,4.25531915 L20.573757,4.25531915 L20.573757,11.8847114 L25.7643713,11.8847114 C27.1864574,11.8847114 28.3596784,11.3034244 28.3596784,9.66855461 C28.3952305,8.65130231 27.790844,7.92469352 26.7953837,7.67038044 Z M22.4580211,5.67220628 L25.1955368,5.67220628 C25.7288191,5.67220628 26.2265493,5.81752804 26.1909971,6.47147595 C26.1554449,7.05276298 25.693267,7.23441517 25.1955368,7.23441517 L22.4580211,7.23441517 L22.4580211,5.67220628 Z M25.1955368,10.5041547 L22.4580211,10.5041547 L22.4580211,8.54231099 L25.1955368,8.54231099 C25.9065799,8.54231099 26.5109665,8.61497187 26.5109665,9.48690241 C26.4754143,10.2861721 25.9065799,10.5041547 25.1955368,10.5041547 Z M25.5155062,12.7566419 L23.5245857,12.7566419 L19.862714,20.3497038 L21.960291,20.3497038 L22.671334,18.8601558 L26.4398622,18.8601558 L27.1153531,20.3497038 L29.21293,20.3497038 L25.5155062,12.7566419 L25.5155062,12.7566419 Z M23.2401685,17.4432686 L24.4844938,14.6821552 L24.4844938,14.7184857 L24.4844938,14.6821552 L25.7288191,17.4432686 L23.2401685,17.4432686 Z M26.9375923,42.6929239 C28.1108133,42.4386109 28.8574085,41.7120021 28.8574085,40.3677758 C28.8574085,38.6239147 27.4353224,38.1152886 25.9776842,38.1152886 L20.9648307,38.1152886 L20.9648307,45.7446809 L22.8490948,45.7446809 L22.8490948,42.7292544 L24.9822239,42.7292544 L26.9375923,45.7446809 L29.1418257,45.7446809 L26.9375923,42.6929239 L26.9375923,42.6929239 Z M25.7288191,41.3123673 L22.8135426,41.3123673 L22.8135426,39.4958453 L25.7288191,39.4958453 C26.3332057,39.4958453 26.9375923,39.6774975 26.9375923,40.4041063 C26.9375923,41.1670455 26.3687579,41.3123673 25.7288191,41.3123673 Z" id="Shape"></path>
                </g>
            </g>
        </g>
    </g>
</svg>