<?xml version="1.0" encoding="UTF-8"?>
<svg width="87px" height="34px" viewBox="0 0 87 34" version="1.1" xmlns="http://www.w3.org/2000/svg" xmlns:xlink="http://www.w3.org/1999/xlink">
    <!-- Generator: Sketch 63.1 (92452) - https://sketch.com -->
    <title>citrix</title>
    <desc>Created with Sketch.</desc>
    <g id="demo-page-redesign" stroke="none" stroke-width="1" fill="none" fill-rule="evenodd">
        <g id="Desktop-Revised-V3" transform="translate(-684.000000, -607.000000)" fill="#FFFFFF" fill-rule="nonzero">
            <g id="Logos" transform="translate(684.000000, 598.000000)">
                <g id="citrix" transform="translate(0.000000, 9.000000)">
                    <path d="M84.881928,8.5 C86.0457038,8.5 87,9.4496337 87,10.625 C87,11.8003663 86.0457038,12.75 84.881928,12.75 C83.7103937,12.75 82.7560976,11.8003663 82.7560976,10.625 C82.7560976,9.4496337 83.7103937,8.5 84.881928,8.5 Z M86.7206938,10.625 C86.7206938,9.61309524 85.8982922,8.78021978 84.881928,8.78021978 C83.8655638,8.78021978 83.0431623,9.61309524 83.0431623,10.625 C83.0431623,11.6446886 83.8655638,12.4697802 84.881928,12.4697802 C85.8982922,12.4697802 86.7206938,11.6446886 86.7206938,10.625 Z" id="Shape"></path>
                    <path d="M85.9390244,11.3941019 L85.542919,11.3941019 C85.5191527,11.3076639 85.5112306,11.2290838 85.5112306,11.0954978 C85.5112306,10.5925857 85.3527884,10.4589997 84.9170725,10.4589997 L84.4972008,10.4589997 L84.4972008,11.3941019 L84.1169396,11.3941019 L84.1169396,9.03670149 L84.9170725,9.03670149 C85.4256718,9.03670149 85.9390244,9.14671351 85.9390244,9.7203476 C85.9390244,10.1211057 85.6300622,10.2546917 85.3543728,10.2939817 C85.7108677,10.3725617 85.8930762,10.5847277 85.8930762,11.0012018 C85.8930762,11.1662198 85.9089204,11.3312379 85.9382322,11.3941019 L85.9390244,11.3941019 Z M85.5191527,9.7203476 C85.5191527,9.44531756 85.2894116,9.31958953 84.9154881,9.31958953 L84.4956164,9.31958953 L84.4956164,10.1761117 L84.9154881,10.1761117 C85.306048,10.1761117 85.5175683,10.0268097 85.5175683,9.7203476 L85.5191527,9.7203476 Z M75.8937918,16.2896367 L82.1047243,25.8528243 L75.6798949,25.8528243 L72.7011824,20.6351114 L68.9302591,25.8528243 L62.4420529,25.8528243 L69.5957162,16.2660627 L64.1136177,8.14088934 L70.6652007,8.14088934 L72.7804035,11.897014 L75.2283348,8.14088934 L81.8036842,8.14088934 M56.1518994,8.14088934 L61.5151663,8.14088934 M58.8374939,27.3458445 C60.6912671,27.3458445 62.1964676,28.8310067 62.1964676,30.6697791 C62.1964676,32.5085514 60.6912671,34 58.8374939,34 C56.9837207,34 55.4785203,32.5069798 55.4785203,30.6697791 C55.4785203,28.8310067 56.9837207,27.3458445 58.8374939,27.3458445 Z M49.5131732,18.7963391 L54.9715054,25.8528243 L48.2218696,25.8528243 L44.8153633,20.5643894 L44.8153633,25.8528243 L39.4600185,25.8528243 L39.4600185,8.14088934 L46.4790059,8.14088934 C48.5625202,8.14088934 50.2499292,8.72238144 51.3590243,9.82250162 C52.3492877,10.8047518 52.8483805,12.132754 52.8483805,13.7829343 C52.8483805,16.2189147 51.5570769,18.104835 49.5131732,18.7963391 Z M48.0555053,14.0501063 C48.0555053,13.4528982 47.8970632,13.0128501 47.5801789,12.6906721 C46.9464103,12.062032 45.7264057,11.975594 44.8153633,11.967736 L44.8153633,16.1403347 C47.1048524,16.1167607 48.0555053,15.5116946 48.0555053,14.0501063 L48.0555053,14.0501063 Z M38.0102728,8.14088934 L38.0102728,12.7692521 L33.9383094,12.7692521 L33.9383094,25.8528243 L28.6067309,25.8528243 L28.6067309,12.7692521 L24.5347676,12.7692521 L24.5347676,8.14088934 M23.092944,8.14088934 L23.092944,25.8528243 L17.7375992,25.8528243 L17.7375992,8.14088934 M20.4152716,0 C22.2690448,0 23.7742452,1.49302025 23.7742452,3.32393455 C23.7742452,5.16270685 22.2690448,6.6635851 20.4152716,6.6635851 C18.5535762,6.6635851 17.0562979,5.16270685 17.0562979,3.32393455 C17.0562979,1.49302025 18.5535762,0 20.4152716,0 Z M16.105645,10.5847277 L13.2853746,15.1030785 C12.4931639,13.7986503 10.9325086,12.9578441 9.3560092,12.9578441 C7.10613061,12.9578441 5.45833221,14.7730424 5.45833221,17.0047148 C5.45833221,19.2363872 7.10613061,21.0437275 9.3560092,21.0437275 C10.9325086,21.0437275 12.4931639,20.2029213 13.2853746,18.8984931 L16.105645,23.4247019 C14.4023918,25.1848941 12.0099153,26.2787279 9.3560092,26.2787279 C4.19079498,26.2787279 0,22.1297032 0,17.0062864 C0,11.8828696 4.19079498,7.71812719 9.3560092,7.71812719 C12.0099153,7.71655727 14.4023918,8.81667745 16.105645,10.5847277 Z M61.5151663,8.14088934 L61.5151663,25.8528243 L56.1598215,25.8528243 L56.1598215,8.14088934" id="Shape"></path>
                </g>
            </g>
        </g>
    </g>
</svg>