<?xml version="1.0" encoding="UTF-8"?>
<svg width="87px" height="35px" viewBox="0 0 87 35" version="1.1" xmlns="http://www.w3.org/2000/svg" xmlns:xlink="http://www.w3.org/1999/xlink">
    <!-- Generator: Sketch 63.1 (92452) - https://sketch.com -->
    <title>goldman-sachs</title>
    <desc>Created with Sketch.</desc>
    <g id="demo-page-redesign" stroke="none" stroke-width="1" fill="none" fill-rule="evenodd">
        <g id="Desktop-Revised-V3" transform="translate(-798.000000, -605.000000)" fill="#FFFFFF" fill-rule="nonzero">
            <g id="Logos" transform="translate(684.000000, 598.000000)">
                <g id="goldman-sachs" transform="translate(114.000000, 7.000000)">
                    <path d="M81.5171944,15.9090909 L78.5121951,15.9090909 L78.5121951,3.46525707 L81.3590365,3.46525707 L81.3590365,4.84790527 C81.7280715,4.01831635 82.6242993,3.24403336 83.7314043,3.18872743 C85.6820179,3.07811557 87,4.29484599 87,6.89422462 L87,15.9090909 L83.8895622,15.9090909 L83.8895622,6.50708312 C83.8895622,5.40096455 83.8895622,4.46076378 83.2042115,4.29484599 C82.9406151,4.18423413 82.5188608,4.29484599 82.1498258,4.57137563 C81.7280715,5.01382306 81.5171944,5.62218827 81.5171944,6.50708312 C81.5171944,6.72830683 81.5171944,15.9090909 81.5171944,15.9090909" id="Path"></path>
                    <path d="M21.2493149,4.35028249 C20.551932,3.6492039 19.6399699,3.18181818 18.5670732,3.18181818 C17.4941765,3.18181818 16.689504,3.6492039 15.8848315,4.35028249 C14.5973554,5.51874679 13.7926829,7.68040575 13.7926829,10.0757576 C13.7926829,12.5295326 14.5973554,14.5743451 15.8848315,15.8012327 C16.689504,16.5023112 17.4941765,16.969697 18.5670732,16.969697 C19.6399699,16.969697 20.551932,16.5023112 21.2493149,15.8012327 C22.5904357,14.6327684 23.3414634,12.5295326 23.3414634,10.0757576 C23.3414634,7.68040575 22.5904357,5.51874679 21.2493149,4.35028249 M20.0691285,10.0757576 C20.0691285,12.5295326 20.0691285,14.5159219 19.6936147,15.5091166 C19.4253905,15.9765023 19.1571663,16.2686184 18.5134283,16.2686184 C17.97698,16.2686184 17.6014662,15.9765023 17.4405317,15.5091166 C17.011373,14.5159219 17.011373,12.5879558 17.011373,10.0757576 C17.011373,7.73882897 17.011373,5.63559322 17.4405317,4.64239856 C17.6014662,4.17501284 17.97698,3.88289676 18.5134283,3.88289676 C19.1571663,3.88289676 19.4253905,4.17501284 19.6936147,4.64239856 C20.1764182,5.63559322 20.0691285,7.68040575 20.0691285,10.0757576" id="Shape"></path>
                    <path d="M57.5397594,22.3278237 L57.5397594,25.6887052 L56.9002673,25.6887052 C56.4933177,24.2561983 55.9119612,23.0440771 54.3422987,22.9889807 C53.3539926,22.8787879 52.4819579,23.4297521 52.3656866,24.3112948 C52.2494153,25.137741 52.5400936,25.9090909 54.3422987,26.7906336 C56.609589,28.0027548 58.3536585,28.553719 58.3536585,31.0330579 C58.3536585,33.7327824 55.9119612,35 53.8772135,35 C53.0051788,35 49.982125,35 49.982125,35 L49.982125,30.3719008 L50.6797528,30.3719008 C51.144838,32.7961433 51.9587371,34.2837466 53.8190778,34.338843 C54.9817908,34.338843 55.8538256,33.677686 55.8538256,32.4655647 C55.8538256,31.2534435 55.0399265,30.5922865 53.1795857,29.5454545 C51.144838,28.3333333 49.8658537,27.6170799 49.8658537,25.9090909 C49.8658537,23.7052342 51.5517875,22.2727273 54.1678917,22.2727273 C55.0399265,22.3278237 57.5397594,22.3278237 57.5397594,22.3278237" id="Path"></path>
                    <path d="M61.5365854,15.9090909 L61.5365854,6.89907668 C61.5365854,4.30109712 60.108349,3.08502158 57.9945591,3.1955739 C56.5663227,3.30612622 55.7093809,4.24582096 55.3094747,4.96441105 C54.852439,3.63778319 53.7669794,3.08502158 52.2244841,3.1955739 C50.967636,3.30612622 49.9964353,4.02471632 49.6536585,4.85385873 L49.6536585,3.47195471 L46.6829268,3.47195471 L46.6829268,15.9090909 L49.9393058,15.9090909 C49.9393058,15.9090909 49.9393058,6.78852436 49.9393058,6.51214356 C49.9393058,5.57244882 50.0535647,5.01968721 50.6248593,4.57747792 C51.0247655,4.30109712 51.3675422,4.1905448 51.7103189,4.30109712 C52.4530019,4.4669256 52.4530019,5.40662034 52.4530019,6.51214356 L52.4530019,15.9090909 L55.7093809,15.9090909 L55.7093809,6.4568674 C55.7093809,5.62772498 55.8807692,5.07496337 56.3949343,4.57747792 C56.7948405,4.30109712 57.1376173,4.1905448 57.480394,4.30109712 C58.2230769,4.4669256 58.3373358,5.40662034 58.3373358,6.51214356 L58.3373358,15.9090909 L61.5365854,15.9090909" id="Path"></path>
                    <polyline id="Path" points="26.5243902 0 30.7682927 0 30.7682927 15.9090909 26.5243902 15.9090909 26.5243902 0"></polyline>
                    <path d="M42.4390244,16.7967721 L42.4390244,1.06060606 L39.1283724,1.06060606 L39.1283724,4.74967062 C38.8478086,4.05797101 38.1744557,3.59683794 37.220539,3.59683794 C34.9199164,3.59683794 33.0120831,6.13306983 32.8998576,9.99505929 C32.7876321,12.5889328 33.6293233,16.969697 36.9399753,16.969697 C38.2866812,16.969697 39.0161469,16.2203557 39.2967106,15.5286561 L39.2967106,16.7967721 L42.4390244,16.7967721 M38.5672449,4.86495389 C39.2405979,5.84486166 39.2405979,8.15052701 39.2405979,9.99505929 C39.2405979,11.9548748 39.3528234,14.4334651 38.5672449,15.5286561 C38.2866812,15.9321476 38.0061175,16.1050725 37.5011027,16.1050725 C36.8277498,16.1050725 36.4349606,15.3557312 36.2666223,14.0876153 C36.1543968,12.9347826 36.1543968,11.4937418 36.1543968,9.93741765 C36.1543968,7.34354414 36.3227351,4.40382082 37.5572155,4.40382082 C38.1183429,4.34617918 38.2866812,4.57674572 38.5672449,4.86495389" id="Shape"></path>
                    <path d="M72.9503106,3.93811533 C73.7410998,4.40352896 74.2682927,5.21800281 74.2682927,6.96330393 L74.2682927,16.6788135 L71.368732,16.6788135 L71.368732,15.2243959 C70.999697,16.3297532 70.0507499,16.969697 68.7327678,16.969697 C67.6783821,16.969697 65.7804878,16.3879299 65.7804878,13.3627413 C65.7804878,10.5120829 67.4675049,9.93031582 69.3126799,9.05766526 C70.999697,8.24319141 71.1578549,8.126838 71.1578549,7.37054085 C71.1578549,6.67242041 71.1578549,6.09065337 71.1578549,5.21800281 C71.1578549,4.34535226 70.7361006,3.93811533 69.8398727,3.93811533 C69.4708378,4.05446874 68.8382063,4.22899885 68.8382063,4.69441248 C68.7327678,5.27617952 69.3653992,5.27617952 69.4708378,6.14883007 C69.5762763,7.54507096 68.5746099,8.01048459 67.6783821,7.89413119 C67.0457506,7.89413119 66.3603999,7.48689426 66.2549614,6.43971359 C66.1495228,4.69441248 67.9419785,3.18181818 70.4197849,3.18181818 C71.6323284,3.23999489 72.3176791,3.5308784 72.9503106,3.93811533 M71.1578549,8.82495845 L70.2089077,9.52307889 C69.2072413,10.2211993 69.0490835,11.0938499 68.9436449,12.0828539 C68.8382063,12.839151 68.8382063,13.5372714 68.9436449,14.7008055 C69.0490835,15.8061629 69.6289956,15.980693 70.2089077,15.8061629 C70.8415392,15.5152794 71.2105742,14.2353919 71.2105742,12.8973277 C71.1578549,12.839151 71.1578549,9.29037208 71.1578549,8.82495845" id="Shape"></path>
                    <path d="M21.0526921,22.8166278 C21.8534284,23.3605284 22.2804878,24.013209 22.2804878,25.6449106 L22.2804878,34.7824398 L19.4512195,34.7824398 L19.4512195,33.4226884 C19.0775426,34.3473193 18.116659,35 16.7820985,35 C15.6076852,35 13.7926829,34.5648796 13.7926829,31.6822067 C13.7926829,29.017094 15.5009204,28.4731935 17.3159227,27.6573427 C19.0775426,26.8414918 19.2376898,26.7327117 19.2376898,26.1344211 C19.2376898,25.4817405 19.2376898,24.9378399 19.2376898,24.1219891 C19.2376898,23.1973582 18.8106305,22.8166278 17.9031293,22.9254079 C17.5294524,22.9254079 16.8888633,23.0885781 16.8888633,23.5780886 C16.7820985,24.2307692 17.4226875,24.2307692 17.5294524,25.04662 C17.6362172,26.2432012 16.6219512,26.6783217 15.7144501,26.6783217 C15.073861,26.5695416 14.3798896,26.2432012 14.2731247,25.2097902 C14.2197423,23.6324786 16.0347446,22.2727273 18.5437184,22.2727273 C19.7181316,22.2727273 20.4121031,22.4358974 21.0526921,22.8166278 M19.2376898,27.3853924 L18.2234238,28.038073 C17.2625403,28.6907537 17.102393,29.5066045 16.9956282,30.4312354 C16.8888633,31.1383061 16.8888633,31.8997669 16.9956282,32.8787879 C16.9956282,33.966589 17.6362172,34.1841492 18.1700414,33.9121989 C18.8640129,33.6402486 19.2376898,32.5524476 19.2376898,31.1926962 C19.2376898,31.1383061 19.2376898,27.8749029 19.2376898,27.3853924" id="Shape"></path>
                    <path d="M46.6829268,25.4891304 C46.6829268,22.7799736 45.145281,21.3965744 42.8695652,21.627141 C41.7009544,21.7424242 40.7783669,22.2035573 40.2863203,22.8952569 L40.2863203,19.0909091 L36.7804878,19.0909091 L36.7804878,28.0253623 C36.7804878,31.3109354 34.3202545,34.4235837 31.7985154,34.3083004 C30.0148462,34.3083004 29.6458112,33.0401845 29.3997879,31.7144269 C29.0922587,29.7546113 29.0922587,27.5065876 29.3382821,25.085639 C29.5227996,23.5293149 29.9533404,22.2611989 31.1834571,22.2611989 C32.1060445,22.2611989 32.2290562,22.8376153 31.7985154,23.2411067 C31.3679745,23.7598814 30.7529162,24.2210145 31.0604454,25.3162055 C31.3679745,26.4690382 33.3361612,26.6996047 34.2587487,25.7773386 C34.9968187,25.0279974 34.873807,23.7598814 34.3817603,22.9528986 C33.766702,21.9729908 32.7211029,21.5694993 31.1834571,21.5694993 C29.2152704,21.5694993 25.4634146,23.2411067 25.4634146,28.4288538 C25.4634146,34.0777339 29.2767762,35 31.4909862,35 C33.9512195,35 36.1654295,32.9825428 36.7804878,31.3109354 L36.7804878,34.8270751 L40.2863203,34.8270751 L40.2863203,25.0279974 C40.2863203,24.0480896 40.4708378,23.4716733 41.0243902,23.0105402 C41.4549311,22.722332 41.9469777,22.6070487 42.2545069,22.722332 C43.0540827,22.8952569 43.0540827,23.8751647 43.0540827,25.0279974 L43.0540827,34.8270751 L46.6829268,34.8270751 L46.6829268,25.4891304" id="Path"></path>
                    <path d="M11.7394278,0 L11.7394278,5.65656566 L11.0389952,5.65656566 C10.4553014,2.88720539 9.17117502,0.765993266 7.42009356,0.707070707 C6.25270592,0.589225589 5.55227334,1.2962963 4.96857952,2.2979798 C4.3848857,3.47643098 4.09303879,5.95117845 4.09303879,8.95622896 C4.09303879,11.7255892 4.20977756,13.7878788 4.50162447,15.3198653 C4.67673261,16.026936 5.20205705,17.0875421 6.48618345,17.0875421 C7.18661604,17.0875421 7.65357109,16.9107744 7.945418,16.4983165 C8.41237306,15.9090909 8.52911182,14.7306397 8.52911182,13.9057239 C8.52911182,12.6094276 8.52911182,12.1969697 8.52911182,11.2542088 C8.52911182,10.3114478 8.23726491,9.6043771 7.71194047,9.30976431 C7.3033548,9.13299663 6.71966098,9.13299663 6.42781407,9.01515152 L6.42781407,8.30808081 L11.914536,8.30808081 L11.914536,22.5084175 L11.2141034,22.5084175 C10.9222565,21.3888889 10.7471483,20.6228956 10.2218239,19.7390572 C9.75486884,18.8552189 8.87932811,17.8535354 7.42009356,17.8535354 C5.84412025,17.7356902 4.67673261,18.7373737 4.67673261,20.2104377 C4.67673261,22.2138047 5.84412025,22.6851852 8.00378738,23.8636364 C10.0467157,25.0420875 12.7317073,26.043771 12.7317073,29.520202 C12.7317073,32.8787879 9.8716076,35 6.6612916,35 C5.96085901,35 1.46641661,35 1.46641661,35 L1.46641661,28.1649832 L2.16684919,28.1649832 C3.04238992,33.3501684 5.20205705,34.2340067 6.6612916,34.2340067 C8.52911182,34.2340067 9.40465255,33.0555556 9.40465255,31.3468013 C9.28791378,29.1666667 7.82867924,28.4006734 5.78575087,27.2811448 C2.86728177,25.5723906 1.46641661,24.8063973 1.46641661,22.037037 C1.58315537,19.6801347 3.45097559,18.1481481 5.49390396,17.5589226 C1.1745697,17.0875421 -0.109556704,13.0808081 0.00718205966,8.83838384 C0.00718205966,4.5959596 2.4586961,0 7.3033548,0 C9.40465255,0 11.7394278,0 11.7394278,0" id="Path"></path>
                </g>
            </g>
        </g>
    </g>
</svg>