<svg width="16" height="16" viewBox="0 0 16 16" fill="none" xmlns="http://www.w3.org/2000/svg">
<g clip-path="url(#clip0)">
<path d="M6.74233 10.8064C6.57332 10.8065 6.41112 10.7398 6.29113 10.6208L4.47993 8.79679C4.41578 8.73846 4.36416 8.66771 4.32819 8.58883C4.29222 8.50995 4.27265 8.42458 4.27067 8.3379C4.2687 8.25123 4.28435 8.16506 4.31668 8.08462C4.34901 8.00417 4.39735 7.93114 4.45876 7.86995C4.52017 7.80875 4.59338 7.76067 4.67393 7.72862C4.75449 7.69658 4.84072 7.68123 4.92738 7.68352C5.01405 7.6858 5.09935 7.70567 5.1781 7.74192C5.25686 7.77817 5.32742 7.83004 5.38553 7.89439L6.75193 9.26079L10.6239 5.37919C10.7473 5.27889 10.9035 5.22809 11.0623 5.23667C11.221 5.24525 11.3709 5.3126 11.4827 5.4256C11.5945 5.53861 11.6602 5.68918 11.6671 5.84801C11.674 6.00683 11.6215 6.16253 11.5199 6.28479L7.19673 10.6208C7.13692 10.6801 7.066 10.727 6.98803 10.7589C6.91005 10.7907 6.82655 10.8069 6.74233 10.8064Z" fill="#7D2BD9"/>
<path d="M8.00016 16C6.00796 15.9991 4.08779 15.2548 2.61532 13.913C1.14285 12.5711 0.224039 10.7281 0.0386411 8.7445C-0.146757 6.76095 0.414602 4.7796 1.61289 3.18807C2.81118 1.59655 4.56017 0.509385 6.51769 0.139275C8.4752 -0.230834 10.5004 0.142746 12.197 1.18692C13.8936 2.2311 15.1396 3.87075 15.6912 5.78506C16.2428 7.69938 16.0602 9.75062 15.1793 11.5375C14.2984 13.3243 12.7825 14.7182 10.9282 15.4464C10.7722 15.5 10.6015 15.4912 10.4518 15.422C10.3021 15.3528 10.1849 15.2284 10.1246 15.0749C10.0643 14.9214 10.0657 14.7505 10.1283 14.5979C10.191 14.4453 10.3102 14.3229 10.461 14.256C12.0188 13.645 13.2926 12.4747 14.0332 10.9741C14.7738 9.47352 14.9279 7.75059 14.4654 6.1424C14.0028 4.53421 12.9568 3.15646 11.5321 2.2787C10.1074 1.40093 8.40646 1.08631 6.76204 1.39638C5.11762 1.70644 3.64805 2.61889 2.64083 3.95521C1.6336 5.29153 1.16119 6.95557 1.31603 8.62179C1.47087 10.288 2.2418 11.8365 3.47801 12.9644C4.71422 14.0922 6.32676 14.7182 8.00016 14.72C8.1699 14.72 8.33268 14.7874 8.4527 14.9075C8.57273 15.0275 8.64016 15.1903 8.64016 15.36C8.64016 15.5297 8.57273 15.6925 8.4527 15.8126C8.33268 15.9326 8.1699 16 8.00016 16Z" fill="#7D2BD9"/>
</g>
<defs>
<clipPath id="clip0">
<rect width="16" height="16" fill="white"/>
</clipPath>
</defs>
</svg>
