<?xml version="1.0" encoding="UTF-8"?>
<svg width="219px" height="242px" viewBox="0 0 219 242" version="1.1" xmlns="http://www.w3.org/2000/svg" xmlns:xlink="http://www.w3.org/1999/xlink">
    <title>vertical-logo-gradient-blue-atlassian copy</title>
    <defs>
        <linearGradient x1="80.891355%" y1="15.7428309%" x2="43.6959834%" y2="97.4545837%" id="linearGradient-1">
            <stop stop-color="#0052CC" offset="0%"></stop>
            <stop stop-color="#2684FF" offset="92.28%"></stop>
        </linearGradient>
    </defs>
    <g id="Page-1" stroke="none" stroke-width="1" fill="none" fill-rule="evenodd">
        <g id="vertical-logo-gradient-blue-atlassian-copy" fill-rule="nonzero">
            <g id="Group_3" transform="translate(7.517241, 0.000000)">
                <path d="M64.4438069,91.1006966 C61.5226069,87.963 56.8694345,88.1794966 54.9217172,92.1831793 L6.55074966,188.816566 C4.60295724,192.712 7.41643517,197.148676 11.7449379,197.148676 L79.0528138,197.148676 C81.2170276,197.148676 83.1647448,196.066945 84.2472276,193.902731 C98.7472345,163.927731 89.982131,118.261993 64.4438069,91.1006966 Z" id="Vector" fill="url(#linearGradient-1)"></path>
                <path d="M99.9372138,3.12475186 C72.8841655,45.9767262 74.7243862,93.4814069 92.4710897,129.083814 C110.217793,164.685469 123.960814,192.06251 124.934297,194.010979 C125.908531,195.958697 127.964497,197.256924 130.12871,197.256924 L197.436586,197.256924 C201.765014,197.256924 204.578717,192.712 202.631,188.924814 C202.631,188.924814 112.057262,7.66969103 109.7848,3.12475186 C107.728834,-0.987299448 102.534421,-1.09551766 99.9372138,3.12475186 Z" id="Vector_2" fill="#2681FF"></path>
            </g>
            <g id="Group_4" transform="translate(0.000000, 210.482759)" fill="#0052CC">
                <g id="Group_6" transform="translate(22.551724, 0.000000)">
                    <path d="M96.4822897,22.0510759 C96.4822897,17.3979034 93.993331,15.2336897 87.1759448,13.8272138 C83.3880069,12.9612276 82.4145241,12.0952414 82.4145241,10.9052621 C82.4145241,9.39053793 83.821,8.74104828 86.3099586,8.74104828 C89.3401586,8.74104828 92.3703586,9.71453103 95.1833103,10.9052621 L95.1833103,4.84561379 C93.1273448,3.87137931 90.0978966,3.0053931 86.5264552,3.0053931 C79.709069,3.0053931 76.1383793,5.92734483 76.1383793,10.7970138 C76.1383793,14.6924483 77.9778483,17.7226483 85.011731,19.1291241 C89.2319103,19.9951103 90.0978966,20.6446 90.0978966,22.0510759 C90.0978966,23.4575517 89.2319103,24.3235379 86.2017103,24.3235379 C82.739269,24.3235379 78.6273379,23.1328069 76.030131,21.5098345 L76.030131,27.8942276 C78.1943448,28.9767103 81.0080483,30.0584414 86.2017103,30.0584414 C93.5603379,30.2749379 96.4822897,26.9207448 96.4822897,22.0510759 Z" id="Vector_3"></path>
                    <polygon id="Vector_4" points="170.931545 3.54663448 170.931545 29.8419448 176.5582 29.8419448 176.5582 9.71453103 178.93891 15.1254414 186.838779 29.8419448 193.872662 29.8419448 193.872662 3.54663448 188.245255 3.54663448 188.245255 20.5356 186.18929 15.5584345 179.804897 3.54663448"></polygon>
                    <polygon id="Vector_5" points="135.221641 3.54663448 129.053745 3.54663448 129.053745 29.8419448 135.221641 29.8419448"></polygon>
                    <path d="M122.019862,22.0510759 C122.019862,17.3979034 119.530903,15.2336897 112.713517,13.8272138 C108.926331,12.9612276 107.952097,12.0952414 107.952097,10.9052621 C107.952097,9.39053793 109.358572,8.74104828 111.847531,8.74104828 C114.877731,8.74104828 117.907931,9.71453103 120.720883,10.9052621 L120.720883,4.84561379 C118.664917,3.87137931 115.635469,3.0053931 112.064028,3.0053931 C105.246641,3.0053931 101.675952,5.92734483 101.675952,10.7970138 C101.675952,14.6924483 103.515421,17.7226483 110.549303,19.1291241 C114.769483,19.9951103 115.635469,20.6446 115.635469,22.0510759 C115.635469,23.4575517 114.769483,24.3235379 111.739283,24.3235379 C108.276841,24.3235379 104.16491,23.1328069 101.567703,21.5098345 L101.567703,27.8942276 C103.731917,28.9767103 106.545621,30.0584414 111.739283,30.0584414 C119.09791,30.2749379 122.019862,26.9207448 122.019862,22.0510759 Z" id="Vector_6"></path>
                    <polygon id="Vector_7" points="28.5246234 3.54663448 28.5246234 29.8419448 41.1854621 29.8419448 43.1331793 24.1070414 34.6926703 24.1070414 34.6926703 3.54663448"></polygon>
                    <polygon id="Vector_8" points="3.63563862 3.54513103 3.63563862 9.17178621 10.4530248 9.17178621 10.4530248 29.8404414 16.6210717 29.8404414 16.6210717 9.17178621 23.9794738 9.17178621 23.9794738 3.54513103"></polygon>
                </g>
                <path d="M17.3139359,3.54513103 L9.19802138,3.54513103 L0,29.8404414 L7.03380759,29.8404414 L8.33233586,25.4037655 C9.84728552,25.8367586 11.5786566,26.1607517 13.2018545,26.1607517 C14.9332255,26.1607517 16.5564234,25.9450069 18.0713731,25.4037655 L19.3699014,29.8404414 L26.403709,29.8404414 L17.3139359,3.54513103 Z M13.2018545,20.6423448 C12.0114993,20.6423448 10.9293924,20.4258483 9.84728552,20.2093517 L13.2018545,8.7387931 L16.5564234,20.2093517 C15.4743166,20.4258483 14.3922097,20.6423448 13.2018545,20.6423448 Z" id="Vector_9"></path>
                <path d="M85.4875724,3.54663448 L77.3719586,3.54663448 L68.1738621,29.8426966 L75.2077448,29.8426966 L76.5059724,25.4060207 C78.0206966,25.8382621 79.752669,26.1630069 81.3756414,26.1630069 C83.1068621,26.1630069 84.7298345,25.9465103 86.2453103,25.4060207 L87.5435379,29.8426966 L94.5774207,29.8426966 L85.4875724,3.54663448 Z M81.3756414,20.6446 C80.1849103,20.6446 79.1031793,20.4281034 78.0206966,20.2116069 L81.3756414,8.74104828 L84.7298345,20.2116069 C83.6481034,20.4281034 82.5656207,20.6446 81.3756414,20.6446 Z" id="Vector_10"></path>
                <path d="M179.847745,3.54663448 L171.732131,3.54663448 L162.534034,29.8426966 L169.567917,29.8426966 L170.866145,25.4060207 C172.381621,25.8382621 174.112841,26.1630069 175.735814,26.1630069 C177.467786,26.1630069 179.090759,25.9465103 180.605483,25.4060207 L181.904462,29.8426966 L188.937593,29.8426966 L179.847745,3.54663448 Z M175.844062,20.6446 C174.654083,20.6446 173.5716,20.4281034 172.489869,20.2116069 L175.844062,8.74104828 L179.199007,20.2116069 C178.116524,20.4281034 177.034793,20.6446 175.844062,20.6446 Z" id="Vector_11"></path>
            </g>
        </g>
    </g>
</svg>