<svg width="64" height="60" fill="none" xmlns="http://www.w3.org/2000/svg"><path d="M31.998 59.214l11.79-36.431H20.226l11.773 36.431z" fill="#E24329"/><path d="M3.71 22.783L.12 33.85a2.46 2.46 0 00.883 2.74l30.995 22.623L3.71 22.783z" fill="#FCA326"/><path d="M3.71 22.783h16.515L13.117.842c-.364-1.123-1.949-1.123-2.326 0l-7.08 21.94z" fill="#E24329"/><path d="M60.303 22.783L63.88 33.85a2.46 2.46 0 01-.884 2.74L31.998 59.215l28.305-36.431z" fill="#FCA326"/><path d="M60.303 22.783H43.788L50.883.842c.363-1.123 1.949-1.123 2.325 0l7.095 21.94z" fill="#E24329"/><path d="M31.998 59.214l11.79-36.431h16.515L31.998 59.214zM31.998 59.214L3.71 22.783h16.515l11.773 36.431z" fill="#FC6D26"/></svg>