<?xml version="1.0" encoding="utf-8"?>
<!-- Generator: Adobe Illustrator 19.2.1, SVG Export Plug-In . SVG Version: 6.00 Build 0)  -->
<svg version="1.1" id="layer" xmlns="http://www.w3.org/2000/svg" xmlns:xlink="http://www.w3.org/1999/xlink" x="0px" y="0px"
	 viewBox="0 0 652 652" style="enable-background:new 0 0 652 652;" xml:space="preserve">
<style type="text/css">
	.st0{fill:#F92586;}
</style>
<path class="st0" d="M490.5,307.7v-24.4h21.1c1.6,0,2,0.9,1.9,2.2v1.9c0,22-0.1,43.9,0.1,65.9c0,2.9-0.6,4.1-3.8,4
	c-6.3-0.2-12.7-0.1-19.2-0.1c-0.1-2-0.2-3.8-0.3-5.5c-1.1-0.4-1.5,0.5-1.9,0.9c-9.2,9.5-24.9,7.1-32.6-3.6
	c-7.8-10.9-7.6-28.7,0.3-39.4c7.9-10.5,21.9-12.2,32.1-3.7C488.8,306.3,489.3,306.7,490.5,307.7L490.5,307.7z M481.8,319.6
	c-5.2,0-9.2,4.2-9.2,9.9c0,5.7,3.8,9.9,9.1,9.9c5.3,0,9.2-4.2,9.2-9.9S487,319.6,481.8,319.6L481.8,319.6z M444.2,357.1h-23
	c-0.1-1.9-0.2-3.6-0.3-5.4c-1-0.5-1.4,0.5-1.9,0.9c-10,8.9-24.3,7.5-32.3-3.2c-8.1-10.9-7.9-29.3,0.3-40.1
	c7.9-10.3,21.9-11.8,31.9-3.4c0.5,0.4,0.9,0.8,2,1.7v-24.4h21.3c1.6,0,2,0.8,1.9,2.2c-0.1,1.9,0,3.9,0,5.8v61.3
	C444.2,354,444.2,355.4,444.2,357.1z M421.6,329.7c0-5.6-4-9.9-9.2-10c-5.2,0-9.3,4.3-9.3,9.9c0,5.7,3.9,9.9,9.2,9.9
	C417.5,339.5,421.5,335.2,421.6,329.7L421.6,329.7z M314.1,355.6h-22.6v-16.7v-11.1c-0.1-5.1-2.4-8-6.2-8c-3.9,0.1-6.3,2.8-6.4,8
	c-0.2,8.2-0.1,16.3-0.1,24.5c0,1-0.1,2-0.2,3.3h-22.3v-72.2h22.4v23.9c1.9-0.2,2.5-1.5,3.4-2.2c6.3-5.1,13.2-6.4,20.7-3.7
	c7.2,2.6,10.8,8.3,11,15.5C314.4,329.6,314.1,342.4,314.1,355.6L314.1,355.6z M571.3,354.1h-22.1c-0.1-1.6-0.2-3.1-0.3-4.6
	c-3.9,3.5-8.2,5.5-13,6c-12.9,1.4-21.8-8.1-18.9-20.5c1.3-5.7,5.1-9.1,10.5-10.9c5.8-1.9,11.7-1.6,17.6-0.5c1.2,0.2,2.4,0.4,3.6,0.6
	c0.4-4.5-1.6-6.9-6.1-7.6c-6-1-11.8,0.5-17.8,2.6c-1.3-4.9-2.5-9.5-3.9-14.6c12.9-4.1,25.6-5.6,38.3-1c6.7,2.4,10.6,7.6,11.4,14.7
	C572,330,570.7,341.9,571.3,354.1L571.3,354.1z M545.1,331.8c-4.5-0.1-7.2,2-7.4,5.6c-0.2,3.1,1.7,5.2,4.7,5.4c3.9,0.2,6.7-3,7-7.8
	C549.6,331.3,546.8,332.3,545.1,331.8L545.1,331.8z M377.7,334.9h-33.4c1.2,5.2,5.7,8.1,10.9,7.2c2.9-0.5,5.4-1.9,7.5-3.9
	c1-0.8,1.7-1.8,3.1-0.5c3.4,2.9,6.9,5.8,10.5,8.7c-8.4,10.9-19.3,13.6-31.5,11.2c-10.7-2.2-18.2-8.5-20.8-19.9
	c-2.6-11.3-0.6-21.9,8-29.9c8.5-7.9,18.7-8.9,29.2-5.2c10.9,3.9,15.3,13.1,16.4,24.3C377.9,329.4,377.7,331.9,377.7,334.9
	L377.7,334.9z M343.8,324.4h13.8c-1.1-5.5-3.5-7.9-7.4-7.7C346.6,317,344.5,319.5,343.8,324.4z M253.2,316.1c-5.3,3-10.5,5.9-15.8,9
	c-5.4-5.9-10-6.8-13.8-3c-4,3.9-3.8,11.6,0.2,15.4c3.8,3.5,8.6,2.4,13.7-3.4c5.3,3,10.8,6.1,16.1,9.2c-5,11.6-18.8,17.6-32.9,14.5
	c-12.8-2.9-22.3-15.1-22-28.5c0.3-13.8,9.9-25.4,23.2-27.9C236,298.7,248.6,304.5,253.2,316.1L253.2,316.1z M620.4,300.8v23.5
	c-0.6,0.2-1.1,0.3-1.6,0.3c-10.9,0.7-15.2,5-15.7,15.5c-0.2,5-0.1,10.2-0.1,15.5H580v-54h23.1v8.5
	C607.3,304.2,612.3,299.9,620.4,300.8z M49.4,369.5c3.8,0.8,6.4-0.2,8.6-3.6c1.5-2.3,1.2-5.3-0.9-8.2c-1.5-2-3.3-3.4-5.6-4.1
	c-0.8-0.2-1.3-0.5-1.2-1.6c1.3-11.7,1-23.5,0.6-35.3c0-0.4,0-0.9,0.1-1.3c6.1,0.7,12.9-3.3,15.3-9c1-2.3,0.7-4.7-0.2-6.9
	c-2.7-6.5-7.7-10.3-14.5-11.9c-1.2-0.3-1.5-0.7-1.7-1.8c-1.5-9.2-3.1-18.4-4.7-27.6c-0.3-1.7-0.9-3.3-1.7-4.8
	c-0.7-1.2-1.3-2.5-1.9-3.8c-0.5-1-1.5-2.2-0.8-3.2c0.8-1.1,2.4-0.8,3.6-0.6c3.6,0.5,6.7,2,9.7,4c2.6,1.7,5.1,3.5,7.5,5.3
	c7.2,5.4,15,6.3,23.3,3.1c1.4-0.6,2.9-1.1,4.3-1.6c3.8-1.5,7.8-2.3,12-2c4.4,0.3,8.9,0.1,13.4,0.8c6.1,1,9.1,3.8,10.5,9.9
	c0.9,3.9,1.1,7.9,1,11.8c-0.3,9.5,1.2,18.8,2.2,28.3c0.8,7.3,2.5,14.4,3,21.6c0.4,4.5-0.5,9.1-2.5,13.2c-0.4,0.8-0.9,1.4-1.8,1.8
	c-7.7,3.9-9.4,12.2-3.9,18.9c1.3,1.6,2.9,2.9,4.5,4.1c4.7,3.7,6.7,8.8,6.4,14.6c-0.2,3.9-2.5,6.5-5.9,8.1c-3.5,1.7-7.3,2.3-11.1,2.6
	c-2.7,0.3-5.4,0.2-8,0.5c-2,0.2-3.6-0.4-5.2-1.4c-1.6-1.1-3.2-2.1-4.8-3.1c-3.6-2.4-7.4-2.5-11.3-1c-1.8,0.7-3.7,1.6-5.2,2.8
	c-5.6,4.5-12,6.6-19,7.3c-1.2,0.1-2.4,0.3-3.6,0.5c-4.1,0.6-6.8-1-8.4-4.7c-1.1-2.6-1.4-5.3-1.6-8C49.2,378.6,49.4,374.1,49.4,369.5
	L49.4,369.5z M69.6,352.2c-4.8-0.1-7.9,2.5-8.4,6.8c-0.7,6.2,3.1,14,8.7,17c3.1,1.7,6.3,2.3,9.3-0.1c3.7-2.8,7-6.1,6.9-11.3
	c0-0.3-0.2-0.6-0.2-0.9C84.3,357.6,76.8,352.3,69.6,352.2L69.6,352.2z M95.4,283.3c0.2,2.5,0.9,4.9,2.4,7c3.8,5.5,9.4,7.5,14.5-0.1
	c1.7-2.5,1.6-5.1,0-7.5c-2.6-3.8-6.3-5.7-10.8-5.8C97.6,276.9,95.4,279.4,95.4,283.3z M108.3,384.4c2.1,0,4.1-0.4,5.8-1.6
	c2.4-1.7,2.5-4.1,0.2-5.8c-3-2.3-8.9-2.3-11.9,0.1c-2.1,1.7-2.2,4,0,5.6C104.1,384,106.1,384.4,108.3,384.4z M91,345.7
	c-1.7,0.1-3.3,0.4-4.7,1.5c-2.5,1.8-2.5,4.6,0,6.5c2.6,2,6.9,2,9.5,0c2.4-1.8,2.5-4.6,0-6.4C94.4,346.1,92.7,345.8,91,345.7
	L91,345.7z M115.3,269.2c-1.9,0-3.7,0.4-5.2,1.7c-1.8,1.5-1.9,3.7-0.1,5.3c2.6,2.4,8,2.4,10.6,0c1.7-1.6,1.7-3.6,0-5.2
	C119.1,269.6,117.2,269.1,115.3,269.2L115.3,269.2z M96.7,364.9c2.2,0,3.9-1.3,4-3c0-1.7-1.7-3.1-3.8-3.2c-2.1,0-3.9,1.3-4,3
	C92.8,363.5,94.5,364.9,96.7,364.9L96.7,364.9z M91.8,327.5c-2.1,0-3.6,1.4-3.6,3.1c0,1.6,1.6,3,3.6,3c2,0,3.6-1.4,3.6-3.1
	C95.4,328.8,93.9,327.5,91.8,327.5L91.8,327.5z M122,265c-0.8,0.2-1.9,0.4-1.8,1.8c0.1,1.2,1.1,1.5,2.1,1.5c1.1,0,2.1-0.4,2.1-1.7
	C124.3,265.4,123.3,265.1,122,265z"/>
<path class="st0" d="M46,382.7c-1.5-5.6-3.1-11.1-4.6-16.7c-5.2-19-10.3-38-14.9-57.1c-0.3-1-0.3-2,0.1-3c1.6-4.7,0.9-8.8-3-12.1
	c-0.6-0.5-0.8-1.1-0.9-1.8c-0.8-4.2-1.6-8.3-2.2-12.5c-0.3-2.8,1.3-5,2.1-7.5c0.2-0.7,0.9-0.3,1.3-0.3c4.3,0.3,7.5-1.8,8.6-6.1
	c1-3.7,1.8-7.4-1.4-10.6c-0.3-0.3-0.5-0.7-0.2-1.2c1.9-2.9,3.9-5.8,6.6-8.4c1.5,5,3.3,9.6,4.1,14.6c1.2,8,2.6,16,4,24
	c0.3,1.4,0.1,2.2-1.5,2.7c-3.3,1.1-4.7,3.9-5.1,7.2c-0.7,7.2,1.3,13.4,6.8,18.2c0.3,0.2,0.5,0.5,0.7,0.9c0.2,0.3,0.2,0.7,0.2,1.1
	c0.3,12.1,0.9,24.3-0.4,36.5c-0.1,1-0.3,1.8-1.2,2.7c-2,1.9-1.9,4.5-1.6,7c0.1,0.8,0.3,1.5,0.5,2.2c2.3,6.5,1.3,13.4,2.6,20
	C46.4,382.7,46.2,382.7,46,382.7L46,382.7z"/>
</svg>
