<?xml version="1.0" encoding="utf-8"?>
<!-- Generator: Adobe Illustrator 22.0.1, SVG Export Plug-In . SVG Version: 6.00 Build 0)  -->
<svg version="1.1" id="Layer_1" xmlns="http://www.w3.org/2000/svg" xmlns:xlink="http://www.w3.org/1999/xlink" x="0px" y="0px"
	 viewBox="0 0 773.7 203.3" style="enable-background:new 0 0 773.7 203.3;" xml:space="preserve">
<style type="text/css">
	.st0{fill:#D52A28;}
	.st1{fill:#FFFFFF;}
</style>
<g>
	<path class="st1" d="M308.9,131.1v9.5c-7.3,2.3-15.3,3.4-24.2,3.4c-13.2,0-23.2-3.7-30-11c-6.8-7.4-10.2-17.5-10.2-30.3
		c0-14.2,3.3-25.3,9.8-33.2c6.5-7.9,16.6-11.8,30.2-11.8c8.9,0,17,1.3,24.3,3.9v9.4c-7.4-2.8-15.2-4.2-23.4-4.2
		c-10.8,0-18.6,3-23.3,9.1c-4.7,6.1-7,15-7,26.8c0,21.5,10.2,32.2,30.5,32.2C294.5,134.9,302.2,133.6,308.9,131.1z"/>
	<path class="st1" d="M331,59h10.7v83.7H331V59z"/>
	<path class="st1" d="M431.5,133.6c-6.3,6.9-16,10.4-29.2,10.4c-13.2,0-22.9-3.5-29.2-10.4c-6.3-6.9-9.4-17.9-9.4-32.8
		c0-14.9,3.1-25.8,9.4-32.8c6.3-6.9,16-10.4,29.2-10.4c13.2,0,22.9,3.5,29.2,10.4c6.3,6.9,9.4,17.9,9.4,32.8
		C441,115.7,437.8,126.7,431.5,133.6z M427.3,80.9c-2-5-5-8.6-9.1-10.8c-4.1-2.2-9.4-3.3-15.9-3.3s-11.8,1.1-15.9,3.3
		c-4.1,2.2-7.1,5.8-9.1,10.8c-2,5-3,11.6-3,20c0,8.3,1,15,3,20c2,5,5,8.6,9.1,10.8c4.1,2.2,9.4,3.3,15.9,3.3s11.8-1.1,15.9-3.3
		c4.1-2.2,7.1-5.8,9.1-10.8c2-5,3-11.6,3-20C430.3,92.5,429.3,85.9,427.3,80.9z"/>
	<path class="st1" d="M468.9,59h37.4c13.3,0,23.5,3.4,30.4,10.1c6.9,6.7,10.3,17.5,10.3,32.3c0,14.1-3.4,24.5-10.3,31.3
		c-6.9,6.7-17,10.1-30.4,10.1h-37.4V59z M503.2,124c4.3,0,7.8-0.6,10.5-1.9c2.7-1.3,4.7-3.5,6.2-6.8s2.1-7.9,2.1-14
		c0-6.2-0.6-10.9-1.9-14.4c-1.3-3.4-3.3-5.8-6-7.2c-2.7-1.4-6.3-2.1-10.9-2.1h-9.9V124H503.2z"/>
	<path class="st1" d="M562.6,59h24.4v83.7h-24.4V59z"/>
	<path class="st1" d="M600.1,59h25.5l19.5,55.4L664.6,59h25.6l-32.1,83.7h-25.9L600.1,59z"/>
	<path class="st1" d="M700.6,59H764v18.7h-39v13.7h34.2v19H725V124h39v18.7h-63.4V59z"/>
</g>
<g>
	<path class="st1" d="M108,78.2c-0.3,0-0.5,0-0.8,0s-0.5,0-0.8,0H82.4v43.4h24c0.2,0,0.5,0,0.7,0c0.2,0,0.5,0,0.7,0h0.8v-0.1
		c9.7-0.9,17.3-10.2,17.3-21.7c0-11.4-7.6-20.8-17.3-21.7v0H108z"/>
	<path class="st1" d="M54.4,123.3V50.1c0,0,38.2,0,52,0s18.2,2.9,18.2,2.9L156,22.8c-15.7-11.3-35.1-18-55.9-18
		c-53,0-95.9,43-95.9,95.9c0,21,6.7,40.4,18.1,56.1L54.4,123.3z"/>
	<path class="st1" d="M177.2,43.8l-30.1,30c0,0,1.4,2.9,3.5,8.3s4.2,13.8,2.8,23.4s-4,21.1-13.6,30.9c-9.6,9.8-18.9,12.9-30.5,13.1
		c-11.6,0.2-37.8,0-37.8,0l-28.6,28.3c16,11.9,35.7,18.9,57.2,18.9c53,0,95.9-43,95.9-95.9C196,79.4,189,59.7,177.2,43.8z"/>
</g>
</svg>
