<?xml version="1.0" encoding="utf-8"?>
<!-- Generator: Adobe Illustrator 16.0.0, SVG Export Plug-In . SVG Version: 6.00 Build 0)  -->
<!DOCTYPE svg PUBLIC "-//W3C//DTD SVG 1.1//EN" "http://www.w3.org/Graphics/SVG/1.1/DTD/svg11.dtd">
<svg version="1.1" id="Layer_1" xmlns="http://www.w3.org/2000/svg" xmlns:xlink="http://www.w3.org/1999/xlink" x="0px" y="0px"
	 width="909px" height="130px" viewBox="0 0 909 130" enable-background="new 0 0 909 130" xml:space="preserve">
<g>
	<path fill="none" d="M556.396,45.216c-5.671,0-9.644,4.784-10.496,10.784h19.949C566.039,49,562.354,45.216,556.396,45.216z"/>
	<path fill="none" d="M677.858,46.262c-7.567,0-11.858,8.887-11.858,16.924V77.65c3,0.66,4.767,0.938,7.599,0.938
		c8.037,0,13.523-4.914,13.523-17.58C687.122,51.559,684.188,46.262,677.858,46.262z"/>
	<path fill="none" d="M724.685,45.216c-5.669,0-9.646,4.784-10.491,10.784h19.946C734.328,49,730.643,45.216,724.685,45.216z"/>
	<path fill="none" d="M329.31,45.216c-5.672,0-9.645,4.784-10.495,10.784h19.949C338.951,49,335.268,45.216,329.31,45.216z"/>
	<path fill="none" d="M285.246,86.125L276.643,86h-2.554c-3.214,2-5.291,4.947-5.291,8.162c0,5.006,4.725,7.953,11.535,7.953
		c8.788,0,13.609-3.928,13.609-9.035C293.943,89.016,291.297,86.406,285.246,86.125z"/>
	<path fill="none" d="M279.856,64.22c6.144,0,9.929-3.493,9.929-9.353c0-5.772-3.497-9.458-9.74-9.458
		c-6.333,0-10.02,4.064-10.02,9.458C270.026,60.727,273.523,64.22,279.856,64.22z"/>
	<path fill="none" d="M508.432,30.099c-1.983,0-3.432,0-5.432,0.189V53.63c2,0.194,3.162,0.378,4.676,0.378
		c8.604-0.087,14.275-4.817,14.275-12.283C521.951,34.445,517.696,30.099,508.432,30.099z"/>
	<path fill="none" d="M172.621,30.284c-3.119,0-6.621,0.102-8.621,0.281v46.421c2,0.281,5.119,0.472,7.579,0.472
		c13.708,0,23.349-7.276,23.349-23.629C194.927,38.705,188.219,30.284,172.621,30.284z"/>
	<path fill="none" d="M220.246,72.538c0,3.595,2.355,6.34,6.324,6.34c6.9,0,11.431-6.62,11.431-13.329V64.22
		C224,64.22,220.246,68.1,220.246,72.538z"/>
	<path fill="#231F20" d="M85.418,13.995L84.096,14H57.333C32.063,14,18,27.417,18,49.507v15.924
		c0,21.651,14.102,35.377,37.01,35.891L63.63,77h-4.812C49.563,77,47,72.587,47,64.689V50.25C47,42.483,49.563,38,58.819,38H65
		v33.583L85.418,13.995z"/>
	
		<linearGradient id="SVGID_1_" gradientUnits="userSpaceOnUse" x1="-66.4072" y1="-11.752" x2="-61.44" y2="-11.752" gradientTransform="matrix(0 22.6103 -22.6103 0 196.2183 1504.7732)">
		<stop  offset="0" style="stop-color:#231F20"/>
		<stop  offset="0.2591" style="stop-color:#231F20"/>
		<stop  offset="0.3018" style="stop-color:#231F20"/>
		<stop  offset="0.7007" style="stop-color:#231F20"/>
		<stop  offset="0.8714" style="stop-color:#787676;stop-opacity:0.7"/>
		<stop  offset="0.9346" style="stop-color:#989697;stop-opacity:0.2"/>
		<stop  offset="0.9911" style="stop-color:#FFFFFF;stop-opacity:0"/>
	</linearGradient>
	<polygon fill="url(#SVGID_1_)" points="470.521,36.226 437.579,130 440.6,130 448.261,108.195 486.267,0 483.254,0 	"/>
	<path fill="#ED2C2D" d="M98.263,14h-2.024l-8.64,24h8.727c5.375,0,8.435,3.831,8.435,8.483c0,4.825-3.194,8.517-8.435,8.517H86
		V42.149L65.697,101h15.25C85.005,101,86,99.553,86,95.492V77h12.5c19.782,0,32.784-10.98,32.784-31.252
		C131.285,25.248,118.027,14,98.263,14z"/>
	<path fill="#231F20" d="M173.529,21.775c-7.376,0-14.529,0.286-19.529,0.383v63.715c5,0.093,10.172,0.374,16.693,0.374
		c20.799,0,35.355-11.245,35.355-33.181C206.049,30.943,193.667,21.775,173.529,21.775z M171.579,77.458
		c-2.46,0-5.579-0.19-7.579-0.472V30.565c2-0.18,5.502-0.281,8.621-0.281c15.598,0,22.306,8.421,22.306,23.545
		C194.927,70.182,185.286,77.458,171.579,77.458z"/>
	<path fill="#231F20" d="M249,73.016V53.539c0-9.357-4.204-15.596-18.479-15.596c-6.05,0-12.502,1.32-17.225,3.12l1.922,8.129
		c3.779-1.984,8.838-3.4,13.189-3.4c7.371,0,9.593,3.119,9.593,8.886v2.736c-17,0-27.49,5.768-27.49,16.355
		c0,7.658,5.205,13.045,13.242,13.045c7.471,0,13.385-4.158,15.649-9.736l0.122,0.092l-0.322,8.699L255,85.466V79l-6.314-1.07
		C248.686,77.93,249,75.809,249,73.016z M238,65.549c0,6.709-4.427,13.329-11.327,13.329c-3.968,0-6.532-2.745-6.532-6.34
		c0-4.438,3.858-8.318,17.858-8.318L238,65.549L238,65.549z"/>
	<path fill="#231F20" d="M288.084,77.93l-7.944-0.277c-5.574-0.293-7.749-0.954-7.749-3.405c0-1.231,0.943-2.644,2.74-3.502
		c1.512,0.378,2.744,0.567,4.441,0.567c13.333,0,19.948-7.185,19.948-17.018c0-3.114-0.924-5.763-2.911-7.465l7.39-0.267v-7.106
		l-16.182-0.568c-2.46-0.562-4.456-0.945-7.19-0.945c-13.333,0-20.38,8.228-20.38,17.676c0,6.146,2.623,10.399,6.969,12.854
		c-3.213,1.519-5.402,4.729-5.402,8.135c0,3.211,1.791,5.861,4.625,7.091c-4.062,2.268-7.663,6.899-7.663,12.1
		c0,9.169,7.658,14.087,19.948,14.087c15.125,0,25.238-8.229,25.238-18.341C303.964,82.846,298.294,78.307,288.084,77.93z
		 M280.046,45.408c6.243,0,9.74,3.686,9.74,9.458c0,5.86-3.786,9.353-9.929,9.353c-6.333,0-9.83-3.493-9.83-9.353
		C270.026,49.473,273.713,45.408,280.046,45.408z M280.333,102.036c-6.81,0-11.535-2.868-11.535-7.874
		c0-3.215,2.076-6.162,5.291-8.162h2.554l8.603,0.125c6.051,0.281,8.697,2.85,8.697,6.915
		C293.943,98.146,289.122,102.036,280.333,102.036z"/>
	<path fill="#231F20" d="M329.688,37.943c-13.71,0-21.46,10.595-21.46,24.763c0,16.547,8.033,24.108,22.498,24.108
		c5.861,0,11.722-1.043,16.641-3.021l-1.326-7.947c-4.252,1.898-8.981,2.75-13.517,2.75c-9.357,0-14.181-4.596-13.897-15.596h29.968
		c0.188-2,0.281-3.499,0.281-4.823C348.876,47.025,343.111,37.943,329.688,37.943z M318.815,56c0.85-6,4.822-10.784,10.495-10.784
		c5.958,0,9.641,3.784,9.455,10.784H318.815z"/>
	<path fill="#231F20" d="M384.079,37.866c-7.942,0-13.546,4.134-16.289,10.134h-0.095l0.458-9.192L352,39.456v7.102l7,0.359V86h10
		V63.278c0-9.449,5.055-16.924,12.148-16.924c5.384,0,6.852,3.497,6.852,9.362V86h10V52.971
		C398,44.753,394.759,37.866,384.079,37.866z"/>
	<path fill="#231F20" d="M416.28,51.559c0-3.595,2.648-5.865,8.228-5.865c3.024,0,6.144,0.471,8.886,1.325l0.566-8.131
		c-2.741-0.567-6.049-0.945-8.887-0.945c-12.954,0-19.192,6.335-19.192,14.558c0,16.254,20.609,10.399,20.609,20.037
		c0,3.784-3.688,6.147-8.981,6.147c-3.592,0-7.371-0.662-10.301-1.797l-0.757,8.603c2.933,0.854,6.806,1.323,10.398,1.323
		c12.476,0,20.229-6.429,20.229-15.313C437.078,55.716,416.28,60.818,416.28,51.559z"/>
	<path fill="#ED2C2D" d="M509.335,21.683c-5.951,0-11.335,0.189-16.335,0.383V86h10V62.328c2,0.193,3.447,0.193,4.865,0.193
		c14.838,0,24.838-9.264,24.838-21.649C532.703,29.056,524.461,21.683,509.335,21.683z M507.676,54.009
		c-1.514,0-2.676-0.184-4.676-0.378V30.288c2-0.189,3.447-0.189,5.432-0.189c9.266,0,13.521,4.347,13.521,11.627
		C521.951,49.192,516.28,53.921,507.676,54.009z"/>
	<path fill="#ED2C2D" d="M556.773,37.943c-13.708,0-21.459,10.595-21.459,24.763c0,16.547,8.031,24.108,22.498,24.108
		c5.858,0,11.724-1.043,16.638-3.021l-1.324-7.947c-4.254,1.898-8.979,2.75-13.514,2.75c-9.357,0-14.18-4.596-13.897-15.596h29.969
		c0.184-2,0.28-3.499,0.28-4.823C575.964,47.025,570.196,37.943,556.773,37.943z M545.899,56c0.854-6,4.825-10.784,10.495-10.784
		c5.957,0,9.645,3.784,9.454,10.784H545.899z"/>
	<path fill="#ED2C2D" d="M594.689,49h-0.19l1.185-10.26L580,39.417v7.102l6,0.243V86h10V66.775c0-14.086,4.498-20.605,13.855-18.816
		l0.453-10.069C601.516,36.949,596.77,43,594.689,49z"/>
	<path fill="#ED2C2D" d="M626.268,51.559c0-3.595,2.647-5.865,8.228-5.865c3.026,0,6.146,0.471,8.887,1.325l0.567-8.131
		c-2.741-0.567-6.049-0.945-8.887-0.945c-12.957,0-19.194,6.335-19.194,14.558c0,16.254,20.61,10.399,20.61,20.037
		c0,3.784-3.688,6.147-8.979,6.147c-3.591,0-7.374-0.662-10.304-1.797l-0.763,8.603c2.935,0.854,6.812,1.323,10.405,1.323
		c12.477,0,20.229-6.429,20.229-15.313C647.067,55.716,626.268,60.818,626.268,51.559z"/>
	<path fill="#ED2C2D" d="M680.723,38.108c-7.179,0-12.573,3.892-15.218,9.892h-0.188l0.613-8.955L650,39.461v7.101l6.383,0.268
		l-0.07,62.17h10.118l0.021-22.998c2.454,0.466,4.443,0.547,7.093,0.547c15.688,0,24.481-9.854,24.481-26.398
		C698.025,45.971,691.879,38.108,680.723,38.108z M673.599,78.588c-2.832,0-4.599-0.277-7.599-0.938V63.187
		c0-8.038,4.291-16.924,11.858-16.924c6.329,0,9.264,5.297,9.264,14.746C687.122,73.674,681.636,78.588,673.599,78.588z"/>
	<path fill="#ED2C2D" d="M725.062,37.943c-13.709,0-21.454,10.595-21.454,24.763c0,16.547,8.027,24.108,22.491,24.108
		c5.866,0,11.726-1.043,16.646-3.021l-1.33-7.947c-4.249,1.898-8.983,2.75-13.515,2.75c-9.361,0-14.185-4.596-13.901-15.596h29.969
		c0.191-2,0.286-3.499,0.286-4.823C744.254,47.025,738.486,37.943,725.062,37.943z M714.192,56c0.845-6,4.822-10.784,10.491-10.784
		c5.958,0,9.645,3.784,9.455,10.784H714.192z"/>
	<polygon fill="#ED2C2D" points="790.287,39 777.903,39 763,59.024 763,16.861 747,17.429 747,24.53 753,24.749 753,86 763,86 
		763,62.047 778.757,86 791.611,86 772.892,60.467 	"/>
	<path fill="#ED2C2D" d="M819.041,78.121c-4.734,0-6.041-1.891-6.041-8.885V47h12v-8h-12V21.212l-10,2.741V39h-9v8h9v25.354
		c0,10.492,2.863,14.369,12.879,14.369c3.119,0,6.909-0.476,9.746-1.132l-0.835-8.134C823.086,77.83,821.117,78.121,819.041,78.121z
		"/>
	<path fill="#ED2C2D" d="M842.254,17.904c-3.59,0-6.52,2.833-6.52,6.331c0,3.594,2.93,6.331,6.52,6.331
		c3.496,0,6.428-2.828,6.428-6.331C848.682,20.737,845.75,17.904,842.254,17.904z"/>
	<polygon fill="#ED2C2D" points="831,46.558 837,46.922 837,86 847,86 847,38.888 831,39.452 	"/>
	<path fill="#ED2C2D" d="M887.316,39l-8.987,24.99c-1.038,3.025-1.983,6.01-2.74,9.01h-0.093c-0.85-3-1.886-6.173-3.021-9.384
		L863.681,39h-11.157l17.585,47h10.308l17.773-47H887.316z"/>
	<polygon fill="none" points="432.078,146 437.579,130 431,130 431,150 443,150 443,130 440.6,130 435.098,146 	"/>
</g>
</svg>
