<?xml version="1.0" encoding="utf-8"?>
<svg version="1.1" id="Layer_1" xmlns="http://www.w3.org/2000/svg" xmlns:xlink="http://www.w3.org/1999/xlink" x="0px" y="0px"
	 viewBox="0 0 260 43" style="enable-background:new 0 0 260 43;" xml:space="preserve">
<title>Federal News Network</title>
<g id="Stacked-Group-3" transform="translate(80.000000, 48.000000)">
	<g id="fnn-logo-hor">
		<g id="Group-3" transform="translate(9.411765, 28.065421)">
			<g id="Fill-1-Clipped">
				<g id="path-1_1_">
				</g>
				<defs>
					<filter id="Adobe_OpacityMaskFilter" filterUnits="userSpaceOnUse" x="-79.9" y="-47.9" width="19" height="13.8">
						<feColorMatrix  type="matrix" values="1 0 0 0 0  0 1 0 0 0  0 0 1 0 0  0 0 0 1 0"/>
					</filter>
				</defs>
				<mask maskUnits="userSpaceOnUse" x="-79.9" y="-47.9" width="19" height="13.8" id="mask-2_1_">
					<g style="filter:url(#Adobe_OpacityMaskFilter);">
						<polyline id="path-1_2_" style="fill-rule:evenodd;clip-rule:evenodd;fill:#FFFFFF;" points="-65.6,-34.1 -61,-37.4 
							-75.3,-47.9 -79.9,-44.5 -65.6,-34.1 						"/>
					</g>
				</mask>
				
					<linearGradient id="Fill-1_1_" gradientUnits="userSpaceOnUse" x1="-438.0323" y1="410.5894" x2="-438.8407" y2="411.0595" gradientTransform="matrix(18.9669 0 0 -13.8156 8245.6895 5634.9927)">
					<stop  offset="0" style="stop-color:#AE382F"/>
					<stop  offset="1" style="stop-color:#2B0C00"/>
				</linearGradient>
				<polyline id="Fill-1" style="mask:url(#mask-2_1_);fill:url(#Fill-1_1_);" points="-65.6,-34.1 -61,-37.4 -75.3,-47.9 
					-79.9,-44.5 -65.6,-34.1 				"/>
			</g>
		</g>
		<g id="Group-6" transform="translate(25.882353, 17.859813)">
			<g id="Fill-4-Clipped">
				<g id="path-4_1_">
				</g>
				<defs>
					<filter id="Adobe_OpacityMaskFilter_1_" filterUnits="userSpaceOnUse" x="-79.9" y="-47.9" width="16.1" height="15.9">
						<feColorMatrix  type="matrix" values="1 0 0 0 0  0 1 0 0 0  0 0 1 0 0  0 0 0 1 0"/>
					</filter>
				</defs>
				<mask maskUnits="userSpaceOnUse" x="-79.9" y="-47.9" width="16.1" height="15.9" id="mask-5_1_">
					<g style="filter:url(#Adobe_OpacityMaskFilter_1_);">
						<polyline id="path-4_2_" style="fill-rule:evenodd;clip-rule:evenodd;fill:#FFFFFF;" points="-63.8,-42.5 -65.6,-47.9 
							-79.9,-37.5 -78.1,-32 -63.8,-42.5 						"/>
					</g>
				</mask>
				
					<linearGradient id="Fill-4_1_" gradientUnits="userSpaceOnUse" x1="-450.9444" y1="425.9268" x2="-451.9594" y2="425.2628" gradientTransform="matrix(16.1102 0 0 -15.9005 7201.5396 6726.937)">
					<stop  offset="0" style="stop-color:#AE382F"/>
					<stop  offset="1" style="stop-color:#2B0C00"/>
				</linearGradient>
				<polyline id="Fill-4" style="mask:url(#mask-5_1_);fill:url(#Fill-4_1_);" points="-63.8,-42.5 -65.6,-47.9 -79.9,-37.5 
					-78.1,-32 -63.8,-42.5 				"/>
			</g>
		</g>
		<g id="Group-9" transform="translate(6.078431, 17.859813)">
			<g id="Fill-7-Clipped">
				<g id="path-7_1_">
				</g>
				<defs>
					<filter id="Adobe_OpacityMaskFilter_2_" filterUnits="userSpaceOnUse" x="-79.9" y="-47.9" width="10.2" height="20.2">
						<feColorMatrix  type="matrix" values="1 0 0 0 0  0 1 0 0 0  0 0 1 0 0  0 0 0 1 0"/>
					</filter>
				</defs>
				<mask maskUnits="userSpaceOnUse" x="-79.9" y="-47.9" width="10.2" height="20.2" id="mask-8_1_">
					<g style="filter:url(#Adobe_OpacityMaskFilter_2_);">
						<polyline id="path-7_2_" style="fill-rule:evenodd;clip-rule:evenodd;fill:#FFFFFF;" points="-79.9,-31.1 -75.2,-27.7 
							-69.7,-44.6 -74.3,-47.9 -79.9,-31.1 						"/>
					</g>
				</mask>
				
					<linearGradient id="Fill-7_1_" gradientUnits="userSpaceOnUse" x1="-418.4365" y1="431.5309" x2="-418.2632" y2="432.4383" gradientTransform="matrix(10.1841 0 0 -20.2259 4185.6982 8699.9248)">
					<stop  offset="0" style="stop-color:#096D85"/>
					<stop  offset="1" style="stop-color:#000913"/>
				</linearGradient>
				<polyline id="Fill-7" style="mask:url(#mask-8_1_);fill:url(#Fill-7_1_);" points="-79.9,-31.1 -75.2,-27.7 -69.7,-44.6 
					-74.3,-47.9 -79.9,-31.1 				"/>
			</g>
		</g>
		<g id="Group-12" transform="translate(0.196078, 13.345794)">
			<g id="Fill-10-Clipped">
				<g id="path-10_1_">
				</g>
				<defs>
					<filter id="Adobe_OpacityMaskFilter_3_" filterUnits="userSpaceOnUse" x="-80" y="-47.8" width="10.2" height="20.2">
						<feColorMatrix  type="matrix" values="1 0 0 0 0  0 1 0 0 0  0 0 1 0 0  0 0 0 1 0"/>
					</filter>
				</defs>
				<mask maskUnits="userSpaceOnUse" x="-80" y="-47.8" width="10.2" height="20.2" id="mask-11_1_">
					<g style="filter:url(#Adobe_OpacityMaskFilter_3_);">
						<polyline id="path-10_2_" style="fill-rule:evenodd;clip-rule:evenodd;fill:#FFFFFF;" points="-80,-31 -75.4,-27.6 
							-69.8,-44.4 -74.5,-47.8 -80,-31 						"/>
					</g>
				</mask>
				
					<linearGradient id="Fill-10_1_" gradientUnits="userSpaceOnUse" x1="-412.5457" y1="436.0445" x2="-412.3725" y2="436.9518" gradientTransform="matrix(10.1818 0 0 -20.2256 4124.6201 8791.1709)">
					<stop  offset="0" style="stop-color:#AE382F"/>
					<stop  offset="1" style="stop-color:#2B0C00"/>
				</linearGradient>
				<polyline id="Fill-10" style="mask:url(#mask-11_1_);fill:url(#Fill-10_1_);" points="-80,-31 -75.4,-27.6 -69.8,-44.4 
					-74.5,-47.8 -80,-31 				"/>
			</g>
		</g>
		<g id="Group-15" transform="translate(0.000000, 11.383178)">
			<g id="Fill-13-Clipped">
				<g id="path-13_1_">
				</g>
				<defs>
					<filter id="Adobe_OpacityMaskFilter_4_" filterUnits="userSpaceOnUse" x="-80" y="-59.4" width="259.9" height="42">
						<feColorMatrix  type="matrix" values="1 0 0 0 0  0 1 0 0 0  0 0 1 0 0  0 0 0 1 0"/>
					</filter>
				</defs>
				<mask maskUnits="userSpaceOnUse" x="-80" y="-59.4" width="259.9" height="42" id="mask-14_1_">
					<g style="filter:url(#Adobe_OpacityMaskFilter_4_);">
						<polygon id="path-13_2_" style="fill-rule:evenodd;clip-rule:evenodd;fill:#FFFFFF;" points="-78.2,-47.9 -60.5,-47.9 
							-62.3,-42.5 -80,-42.5 						"/>
					</g>
				</mask>
				
					<linearGradient id="Fill-13_1_" gradientUnits="userSpaceOnUse" x1="-447.5821" y1="450.7344" x2="-447.5067" y2="450.7339" gradientTransform="matrix(259.8647 0 0 -41.981 116230.2578 18883.7363)">
					<stop  offset="0" style="stop-color:#096D85"/>
					<stop  offset="1" style="stop-color:#000913"/>
				</linearGradient>
				<polygon id="Fill-13" style="mask:url(#mask-14_1_);fill:url(#Fill-13_1_);" points="-80,-17.4 179.9,-17.4 179.9,-59.4 
					-80,-59.4 				"/>
			</g>
		</g>
		<g id="Group-18" transform="translate(2.156863, 4.317757)">
			<g id="Fill-16-Clipped">
				<g id="path-16_1_">
				</g>
				<defs>
					<filter id="Adobe_OpacityMaskFilter_5_" filterUnits="userSpaceOnUse" x="-79.9" y="-47.9" width="19.5" height="5.5">
						<feColorMatrix  type="matrix" values="1 0 0 0 0  0 1 0 0 0  0 0 1 0 0  0 0 0 1 0"/>
					</filter>
				</defs>
				<mask maskUnits="userSpaceOnUse" x="-79.9" y="-47.9" width="19.5" height="5.5" id="mask-17_1_">
					<g style="filter:url(#Adobe_OpacityMaskFilter_5_);">
						<polyline id="path-16_2_" style="fill-rule:evenodd;clip-rule:evenodd;fill:#FFFFFF;" points="-78.1,-47.9 -79.9,-42.5 
							-62.2,-42.5 -60.4,-47.9 -78.1,-47.9 						"/>
					</g>
				</mask>
				
					<linearGradient id="Fill-16_1_" gradientUnits="userSpaceOnUse" x1="-432.2403" y1="382.1208" x2="-431.2345" y2="382.1078" gradientTransform="matrix(19.478 0 0 -5.4898 8338.7871 2052.5305)">
					<stop  offset="0" style="stop-color:#AE382F"/>
					<stop  offset="1" style="stop-color:#2B0C00"/>
				</linearGradient>
				<polyline id="Fill-16" style="mask:url(#mask-17_1_);fill:url(#Fill-16_1_);" points="-78.1,-47.9 -79.9,-42.5 -62.2,-42.5 
					-60.4,-47.9 -78.1,-47.9 				"/>
			</g>
		</g>
		<g id="Group-21" transform="translate(16.666667, 0.000000)">
			<g id="Fill-19-Clipped">
				<g id="path-19_1_">
				</g>
				<defs>
					<filter id="Adobe_OpacityMaskFilter_6_" filterUnits="userSpaceOnUse" x="-79.8" y="-48" width="11.2" height="16.9">
						<feColorMatrix  type="matrix" values="1 0 0 0 0  0 1 0 0 0  0 0 1 0 0  0 0 0 1 0"/>
					</filter>
				</defs>
				<mask maskUnits="userSpaceOnUse" x="-79.8" y="-48" width="11.2" height="16.9" id="mask-20_1_">
					<g style="filter:url(#Adobe_OpacityMaskFilter_6_);">
						<polyline id="path-19_2_" style="fill-rule:evenodd;clip-rule:evenodd;fill:#FFFFFF;" points="-74.1,-48 -79.8,-48 
							-74.4,-31.1 -68.6,-31.1 -74.1,-48 						"/>
					</g>
				</mask>
				
					<linearGradient id="Fill-19_1_" gradientUnits="userSpaceOnUse" x1="-432.316" y1="445.7575" x2="-432.1115" y2="444.6356" gradientTransform="matrix(11.1961 0 0 -16.8716 4764.8135 7471.1743)">
					<stop  offset="0" style="stop-color:#096D85"/>
					<stop  offset="1" style="stop-color:#000913"/>
				</linearGradient>
				<polyline id="Fill-19" style="mask:url(#mask-20_1_);fill:url(#Fill-19_1_);" points="-74.1,-48 -79.8,-48 -74.4,-31.1 
					-68.6,-31.1 -74.1,-48 				"/>
			</g>
		</g>
		<polyline id="Fill-22" style="fill:#AE382F;" points="-50,-48 -55.7,-48 -50.3,-31.1 -44.5,-31.1 -50,-48 		"/>
		<g id="Group-25" transform="translate(15.294118, 23.747664)">
			<g id="Fill-23-Clipped">
				<g id="path-22_1_">
				</g>
				<defs>
					<filter id="Adobe_OpacityMaskFilter_7_" filterUnits="userSpaceOnUse" x="-79.8" y="-47.9" width="19" height="13.8">
						<feColorMatrix  type="matrix" values="1 0 0 0 0  0 1 0 0 0  0 0 1 0 0  0 0 0 1 0"/>
					</filter>
				</defs>
				<mask maskUnits="userSpaceOnUse" x="-79.8" y="-47.9" width="19" height="13.8" id="mask-23_1_">
					<g style="filter:url(#Adobe_OpacityMaskFilter_7_);">
						<polyline id="path-22_2_" style="fill-rule:evenodd;clip-rule:evenodd;fill:#FFFFFF;" points="-65.5,-34.1 -60.9,-37.5 
							-75.2,-47.9 -79.8,-44.5 -65.5,-34.1 						"/>
					</g>
				</mask>
				
					<linearGradient id="Fill-23_1_" gradientUnits="userSpaceOnUse" x1="-443.9117" y1="414.9041" x2="-444.7201" y2="415.3744" gradientTransform="matrix(18.9639 0 0 -13.8145 8356.0195 5694.0586)">
					<stop  offset="0" style="stop-color:#096D85"/>
					<stop  offset="1" style="stop-color:#000913"/>
				</linearGradient>
				<polyline id="Fill-23" style="mask:url(#mask-23_1_);fill:url(#Fill-23_1_);" points="-65.5,-34.1 -60.9,-37.5 -75.2,-47.9 
					-79.8,-44.5 -65.5,-34.1 				"/>
			</g>
		</g>
		<g id="Group-28" transform="translate(23.529412, 10.794393)">
			<g id="Fill-26-Clipped">
				<g id="path-25_1_">
				</g>
				<defs>
					<filter id="Adobe_OpacityMaskFilter_8_" filterUnits="userSpaceOnUse" x="-79.9" y="-47.9" width="16.1" height="15.9">
						<feColorMatrix  type="matrix" values="1 0 0 0 0  0 1 0 0 0  0 0 1 0 0  0 0 0 1 0"/>
					</filter>
				</defs>
				<mask maskUnits="userSpaceOnUse" x="-79.9" y="-47.9" width="16.1" height="15.9" id="mask-26_1_">
					<g style="filter:url(#Adobe_OpacityMaskFilter_8_);">
						<polyline id="path-25_2_" style="fill-rule:evenodd;clip-rule:evenodd;fill:#FFFFFF;" points="-63.8,-42.5 -65.5,-47.9 
							-79.9,-37.5 -78.1,-32 -63.8,-42.5 						"/>
					</g>
				</mask>
				
					<linearGradient id="Fill-26_1_" gradientUnits="userSpaceOnUse" x1="-448.5896" y1="432.9881" x2="-449.6046" y2="432.3241" gradientTransform="matrix(16.1088 0 0 -15.8984 7163.0259 6838.2812)">
					<stop  offset="0" style="stop-color:#096D85"/>
					<stop  offset="1" style="stop-color:#000913"/>
				</linearGradient>
				<polyline id="Fill-26" style="mask:url(#mask-26_1_);fill:url(#Fill-26_1_);" points="-63.8,-42.5 -65.5,-47.9 -79.9,-37.5 
					-78.1,-32 -63.8,-42.5 				"/>
			</g>
		</g>
		<polyline id="Fill-29" style="fill:#8C2F27;" points="-30.1,-42.3 -22.3,-42.3 -22.3,-39.8 -27.5,-39.8 -27.5,-29.8 -23.1,-29.8 
			-23.1,-27.2 -27.5,-27.2 -27.5,-14.6 -30.1,-14.6 -30.1,-42.3 		"/>
		<polyline id="Fill-30" style="fill:#8C2F27;" points="-20.6,-42.3 -12.8,-42.3 -12.8,-39.8 -18,-39.8 -18,-29.8 -13.6,-29.8 
			-13.6,-27.2 -18,-27.2 -18,-17.2 -12.8,-17.2 -12.8,-14.6 -20.6,-14.6 -20.6,-42.3 		"/>
		<path id="Fill-31" style="fill:#8C2F27;" d="M-6.6-17.2c1.1,0,1.9-0.8,1.9-1.9v-18.8c0-1.1-0.8-1.9-1.9-1.9h-1.9v22.6H-6.6z
			 M-11.1-42.3h4.5c2.6,0,4.5,1.9,4.5,4.4v18.8c0,2.6-1.9,4.5-4.5,4.5h-4.5V-42.3L-11.1-42.3z"/>
		<polyline id="Fill-32" style="fill:#8C2F27;" points="0.2,-42.3 8,-42.3 8,-39.8 2.9,-39.8 2.9,-29.8 7.2,-29.8 7.2,-27.2 
			2.9,-27.2 2.9,-17.2 8,-17.2 8,-14.6 0.2,-14.6 0.2,-42.3 		"/>
		<path id="Fill-33" style="fill:#8C2F27;" d="M14.2-29.1c1.1,0,1.9-0.8,1.9-1.9v-6.9c0-1.1-0.8-1.9-1.9-1.9h-1.9v10.7H14.2z
			 M9.8-42.3h4.5c2.6,0,4.5,1.9,4.5,4.4v6.3c0,1.6-0.8,3-2,3.8c1.2,0.7,2,2.1,2,3.7v9.6h-2.6v-10.1c0-1.1-0.8-1.9-1.9-1.9h-1.9v12
			H9.8V-42.3L9.8-42.3z"/>
		<path id="Fill-34" style="fill:#8C2F27;" d="M27.3-22.7l-1.8-12.6l-1.8,12.6H27.3z M24.2-42.3h2.6L31-14.6h-2.6l-0.8-5.6h-4.1
			l-0.8,5.6h-2.6L24.2-42.3L24.2-42.3z"/>
		<polyline id="Fill-35" style="fill:#8C2F27;" points="32.4,-42.3 35,-42.3 35,-17.2 39.8,-17.2 39.8,-14.6 32.4,-14.6 32.4,-42.3 
					"/>
		<polyline id="Fill-36" style="fill:#1C3A4B;" points="46,-42.3 48.5,-42.3 53,-23 53,-42.3 55.4,-42.3 55.4,-14.6 52.9,-14.6 
			48.4,-33.9 48.4,-14.6 46,-14.6 46,-42.3 		"/>
		<polyline id="Fill-37" style="fill:#1C3A4B;" points="57.8,-42.3 65.5,-42.3 65.5,-39.8 60.4,-39.8 60.4,-29.8 64.7,-29.8 
			64.7,-27.2 60.4,-27.2 60.4,-17.2 65.5,-17.2 65.5,-14.6 57.8,-14.6 57.8,-42.3 		"/>
		<polyline id="Fill-38" style="fill:#1C3A4B;" points="73.7,-42.3 74.4,-36.2 75.2,-42.3 77.6,-42.3 75.6,-31.5 77.1,-21.7 
			80,-42.3 82.6,-42.3 78.5,-14.6 76.1,-14.6 74.4,-25.8 72.8,-14.6 70.4,-14.6 66.3,-42.3 68.9,-42.3 71.8,-21.7 73.2,-31.4 
			71.3,-42.3 73.7,-42.3 		"/>
		<path id="Fill-39" style="fill:#1C3A4B;" d="M86.2-23.5v4.9c0,1.1,0.8,1.9,1.9,1.9c1.1,0,1.9-0.8,1.9-1.9v-3.8
			c0-3.9-6.3-6.4-6.3-12v-3.8c0-2.6,1.9-4.4,4.5-4.4c2.6,0,4.5,1.9,4.5,4.4v4.8h-2.6v-4.8c0-1.1-0.8-1.9-1.9-1.9
			c-1.1,0-1.9,0.8-1.9,1.9v3.8c0,3.9,6.3,6.5,6.3,12v3.8c0,2.6-1.9,4.5-4.5,4.5c-2.6,0-4.5-1.9-4.5-4.5v-4.9H86.2"/>
		<polyline id="Fill-40" style="fill:#777776;" points="99.4,-42.3 101.9,-42.3 106.4,-23 106.4,-42.3 108.8,-42.3 108.8,-14.6 
			106.3,-14.6 101.8,-33.9 101.8,-14.6 99.4,-14.6 99.4,-42.3 		"/>
		<polyline id="Fill-41" style="fill:#777776;" points="111.1,-42.3 118.9,-42.3 118.9,-39.8 113.8,-39.8 113.8,-29.8 118.1,-29.8 
			118.1,-27.2 113.8,-27.2 113.8,-17.1 118.9,-17.1 118.9,-14.6 111.1,-14.6 111.1,-42.3 		"/>
		<polyline id="Fill-42" style="fill:#777776;" points="123.4,-39.8 119.8,-39.8 119.8,-42.3 129.7,-42.3 129.7,-39.8 126,-39.8 
			126,-14.6 123.4,-14.6 123.4,-39.8 		"/>
		<polyline id="Fill-43" style="fill:#777776;" points="137.6,-42.3 138.3,-36.2 139.1,-42.3 141.5,-42.3 139.5,-31.5 141,-21.7 
			143.9,-42.3 146.5,-42.3 142.4,-14.6 140,-14.6 138.3,-25.8 136.7,-14.6 134.4,-14.6 130.2,-42.3 132.8,-42.3 135.7,-21.7 
			137.1,-31.4 135.2,-42.3 137.6,-42.3 		"/>
		<path id="Fill-44" style="fill:#777776;" d="M151.9-16.8c1.1,0,1.9-0.8,1.9-1.9v-19.6c0-1.1-0.8-1.9-1.9-1.9
			c-1.1,0-1.9,0.8-1.9,1.9v19.6C150.1-17.5,150.9-16.8,151.9-16.8z M147.5-38.3c0-2.6,1.9-4.4,4.5-4.4s4.5,1.9,4.5,4.4v19.6
			c0,2.6-1.9,4.5-4.5,4.5s-4.5-1.9-4.5-4.5V-38.3L147.5-38.3z"/>
		<path id="Fill-45" style="fill:#777776;" d="M163.3-29.1c1.1,0,1.9-0.8,1.9-1.9v-6.9c0-1.1-0.8-1.9-1.9-1.9h-1.9v10.7H163.3z
			 M158.8-42.3h4.5c2.6,0,4.5,1.9,4.5,4.4v6.3c0,1.6-0.8,3-2,3.8c1.2,0.7,2,2.1,2,3.7v9.6h-2.6v-10.1c0-1.1-0.8-1.9-1.9-1.9h-1.9v12
			h-2.6V-42.3L158.8-42.3z"/>
		<polyline id="Fill-46" style="fill:#777776;" points="170.1,-42.3 172.7,-42.3 172.7,-29.2 177.2,-42.3 179.8,-42.3 175.2,-28.7 
			179.9,-14.6 177.2,-14.6 172.7,-27.7 172.7,-14.6 170.1,-14.6 170.1,-42.3 		"/>
	</g>
</g>
</svg>
