<svg xmlns="http://www.w3.org/2000/svg" viewBox="0 0 298 75" enable-background="new 0 0 298 75"><path d="m140.83 69.879v3.191c-7.087-.264-11.743-.396-13.972-.396l-15.418.396v-3.191c3.924-.066 6.319-.239 7.184-.525.865-.283 1.462-.673 1.798-1.173.399-.663.648-2.279.745-4.839.035-.701.101-5.423.201-14.173v-23.1c0-4.521-.05-8.948-.151-13.274-.101-3.144-.34-5.03-.723-5.612s-.997-1.016-1.846-1.299c-.849-.283-3.254-.456-7.209-.522v-3.194c6.351.233 11.259.349 14.72.349 3.326 0 8.215-.116 14.67-.349v3.194c-3.961.066-6.363.239-7.209.522-.849.283-1.44.673-1.773 1.173-.399.666-.651 2.279-.748 4.842-.035.663-.101 5.389-.201 14.17v23.1c0 4.524.05 8.932.151 13.224.101 3.144.34 5.04.723 5.64.384.594 1 1.038 1.849 1.32.845.287 3.247.46 7.209.526"/><path d="m164.63 58.56l-.148-15.468v-19.911l.198-7.234c.066-4.16.151-7.05.251-8.684 4.222-.632 8.382-.949 12.472-.949 7.785 0 13.909 1.182 18.364 3.543 4.458 2.361 7.797 5.763 10.01 10.205 2.213 4.439 3.32 9.753 3.32 15.943 0 4.326-.575 8.508-1.726 12.551-1.144 4.04-2.782 7.36-4.914 9.954-2.128 2.597-4.332 4.559-6.612 5.889-2.276 1.33-5.02 2.361-8.231 3.094-3.213.732-6.914 1.097-11.1 1.097-4.059 0-7.92-.314-11.576-.95-.162-3.691-.266-6.716-.3-9.08m-4.49 14.12c1.399 0 4.361.063 8.882.201 3.458.129 6.203.195 8.234.195 6.121 0 10.938-.487 14.45-1.468 3.506-.984 6.857-2.44 10.05-4.367 3.197-1.927 6.187-4.549 8.982-7.86 2.795-3.307 5.01-7.178 6.637-11.604 1.632-4.42 2.446-9.165 2.446-14.22 0-7.05-1.732-13.03-5.191-17.915-3.458-4.889-7.668-8.376-12.607-10.454-4.958-2.078-11.513-3.119-19.663-3.119-2.729 0-6.562.066-11.501.201-4.942.132-8.844.198-11.702.198-3.729 0-8.02-.101-12.875-.299v3.144c3.458.031 5.738.283 6.835.745.465.201.817.519 1.047.949.333.666.566 2.38.701 5.14.198 4.392.299 8.218.299 11.479v20.357c0 2.663-.116 7.42-.349 14.274-.135 4.03-.299 7.168-.497 9.429-1.302.899-2.914 1.896-4.842 2.996v2.393c5.087-.264 8.646-.396 10.677-.396"/><path d="m293.66 69.19c-5.059 1.833-9.199 3.062-12.428 3.697-5.687 1.094-11.07 1.644-16.17 1.644-7.684 0-14.519-1.503-20.508-4.515-5.992-3.01-10.614-7.228-13.871-12.639-3.263-5.42-4.895-11.828-4.895-19.213 0-6.486 1.173-12 3.521-16.541 2.345-4.543 5.272-8.275 8.781-11.205 3.509-2.927 7.01-5.087 10.507-6.486 5.354-2.128 11.975-3.194 19.861-3.194 3.691.035 7.574.459 11.652 1.273 4.075.817 8.671 1.94 13.796 3.37-.497 1.695-.883 3.358-1.148 4.986-.267 1.632-.613 4.977-1.047 10.03h-3.047l-.245-5.691c-.038-.861-.072-1.559-.104-2.094-.035-.531-.248-1.214-.648-2.047-.896-1.198-2.33-2.279-4.292-3.241-3.392-1.299-6.197-2.163-8.407-2.597-2.21-.431-4.851-.648-7.91-.648-6.319 0-11.793 1.346-16.415 4.04-4.628 2.691-8.127 6.552-10.507 11.573-2.38 5.03-3.568 10.517-3.568 16.468 0 6.555 1.39 12.45 4.166 17.691 2.779 5.241 6.505 9.25 11.177 12.03 4.675 2.779 10.124 4.169 16.346 4.169 2.927 0 5.766-.283 8.508-.852 2.745-.563 5.068-1.342 6.961-2.342.302-1.333.45-3.458.45-6.389v-5.54c0-2.927-.148-4.641-.45-5.14-.299-.497-1.107-.871-2.421-1.122-1.314-.248-4.332-.44-9.06-.572v-3.041l15.569.349c3.02 0 6.121-.116 9.281-.349l.299 2.396-3.741 2.191c-.399 3.562-.601 6.838-.601 9.834 0 2.993.201 6.234.601 9.728"/><path d="m.552 7.627h30.547 21.838 23.25c-2-1.53-4.165-2.859-6.457-3.963h37.557c.138 0 .25-.112.25-.25s-.112-.25-.25-.25h-38.637c-4.59-2.031-9.666-3.164-15.01-3.164-8.175 0-15.727 2.654-21.864 7.127h-31.23c-.138 0-.25.112-.25.25s.112.25.25.25"/><path d="m107.29 12.595h-25.803-26.583-29.11c-1.538 1.741-2.907 3.635-4.099 5.647h-21.14c-.138 0-.25.112-.25.25s.112.25.25.25h20.838 31.547 32.952c-1.149-2.01-2.49-3.896-3.982-5.647h25.383c.138 0 .25-.112.25-.25s-.111-.25-.249-.25"/><path d="m107.29 22.719h-19.424-32.962-35.496c-.909 2.147-1.609 4.401-2.099 6.731h-16.758c-.138 0-.25.112-.25.25s.112.25.25.25h16.647 35.738 37.14c-.461-2.329-1.143-4.579-2.01-6.731h19.228c.138 0 .25-.112.25-.25s-.112-.25-.25-.25"/><path d="m107.29 33.773h-16.654-35.732-38.26c-.101 1.113-.16 2.238-.16 3.377 0 1.254.078 2.493.202 3.716h-16.438c-.138 0-.25.112-.25.25s.112.25.25.25h16.481 35.905 37.913c.157-1.383.245-2.792.245-4.216 0-.969-.048-1.926-.122-2.877h16.619c.138 0 .25-.112.25-.25s-.112-.25-.25-.25"/><path d="m.302 52.23c0 .138.112.25.25.25h19.238 33.15 34.562c1.101-2.432 1.94-5.01 2.5-7.693h16.986c.138 0 .25-.112.25-.25s-.112-.25-.25-.25h-16.873-35.509-37.426c.518 2.682 1.339 5.254 2.403 7.693h-19.03c-.138 0-.25.111-.25.25"/><path d="m107.29 54.5h-20.792-31.594-34.11c1.774 3.349 4.06 6.377 6.729 9.03h-26.97c-.138 0-.25.112-.25.25s.112.25.25.25h27.453 24.932 26.35c2.748-2.619 5.078-5.665 6.922-9.03h21.08c.138 0 .25-.112.25-.25s-.112-.25-.25-.25"/><path d="m107.29 65.13h-29.2-23.19-25.718c6.533 5.722 15.09 9.196 24.454 9.196 9.09 0 17.4-3.276 23.857-8.696h29.792c.138 0 .25-.112.25-.25s-.111-.25-.249-.25"/></svg>