<?xml version="1.0" encoding="UTF-8"?><svg xmlns="http://www.w3.org/2000/svg" viewBox="0 0 90 90"><defs><style>.d{fill:#171321;}</style></defs><g id="a"/><g id="b"><g id="c"><g><path class="d" d="M77,90H0V0H90V77c0,7.17-5.83,13-13,13ZM2,88H77c6.07,0,11-4.93,11-11V2H2V88Z"/><path class="d" d="M81.45,60H9.11L33.21,24.7l17.83,19.85,7.25-7.25,23.16,22.7Zm-68.56-2h63.66l-18.25-17.89-7.34,7.34-17.54-19.52L12.89,58Z"/><path class="d" d="M59.5,31c-4.14,0-7.5-3.36-7.5-7.5s3.36-7.5,7.5-7.5,7.5,3.36,7.5,7.5-3.36,7.5-7.5,7.5Zm0-13c-3.03,0-5.5,2.47-5.5,5.5s2.47,5.5,5.5,5.5,5.5-2.47,5.5-5.5-2.47-5.5-5.5-5.5Z"/></g></g></g></svg>