<?xml version="1.0" encoding="UTF-8" standalone="no"?>
<svg width="304px" height="48px" viewBox="0 0 304 48" version="1.1" xmlns="http://www.w3.org/2000/svg" xmlns:xlink="http://www.w3.org/1999/xlink">
    <!-- Generator: Sketch 39.1 (31720) - http://www.bohemiancoding.com/sketch -->
    <title>it-markt_logo</title>
    <desc>Created with Sketch.</desc>
    <defs></defs>
    <g id="Symbols" stroke="none" stroke-width="1" fill="none" fill-rule="evenodd">
        <g id="Header-Desktop" transform="translate(-83.000000, -69.000000)" fill="#FFFFFF">
            <g id="it-markt_logo" transform="translate(83.000000, 69.000000)">
                <g id="Ebene_1">
                    <g id="Group">
                        <path d="M4.65766063,0.59943662 L3.00494234,0.59943662 C1.20197694,0.59943662 0.300494234,1.59849765 0.300494234,3.39680751 L0.300494234,44.7579343 C0.300494234,46.5562441 1.20197694,47.5553052 3.00494234,47.5553052 L4.65766063,47.5553052 C6.46062603,47.5553052 7.36210873,46.5562441 7.36210873,44.7579343 L7.36210873,3.39680751 C7.36210873,1.59849765 6.46062603,0.59943662 4.65766063,0.59943662 L4.65766063,0.59943662 Z" id="Shape"></path>
                        <path d="M70.9667216,22.1292019 L51.1841845,22.1292019 C49.631631,22.1292019 48.7802306,23.0283568 48.7802306,24.6268545 L48.7802306,25.9256338 C48.7802306,27.5740845 49.5815486,28.4232864 51.1841845,28.4232864 L70.9667216,28.4232864 C72.5192751,28.4232864 73.3706755,27.5241315 73.3706755,25.9256338 L73.3706755,24.6268545 C73.3706755,23.0283568 72.5693575,22.1292019 70.9667216,22.1292019 L70.9667216,22.1292019 Z" id="Shape"></path>
                        <path d="M29.2481054,44.7579343 C29.2481054,46.5562441 30.1495881,47.5553052 32.0026359,47.5553052 L33.5551895,47.5553052 C35.3581549,47.5553052 36.2596376,46.5562441 36.2596376,44.7579343 L36.2596376,8.39211268 L29.1980231,8.39211268 L29.2481054,44.7579343 L29.2481054,44.7579343 L29.2481054,44.7579343 Z" id="Shape"></path>
                        <path d="M45.7752883,0.59943662 L19.7825371,0.59943662 C17.9795717,0.59943662 17.0280066,1.49859155 17.0280066,3.29690141 L17.0280066,4.34591549 C17.0280066,6.14422535 17.9795717,7.04338028 19.7825371,7.04338028 L29.2481054,7.04338028 L29.2481054,7.04338028 L36.3097199,7.04338028 L36.3097199,7.04338028 L45.7752883,7.04338028 C47.5782537,7.04338028 48.5298188,6.14422535 48.5298188,4.34591549 L48.5298188,3.29690141 C48.5298188,1.4486385 47.5782537,0.59943662 45.7752883,0.59943662 L45.7752883,0.59943662 Z" id="Shape"></path>
                        <path d="M300.794728,0.59943662 L274.801977,0.59943662 C272.999012,0.59943662 272.047446,1.49859155 272.047446,3.29690141 L272.047446,4.34591549 C272.047446,6.14422535 272.999012,7.04338028 274.801977,7.04338028 L280.210873,7.04338028 L280.210873,7.04338028 L294.584514,7.04338028 L294.584514,7.04338028 L300.794728,7.04338028 C302.597694,7.04338028 303.549259,6.14422535 303.549259,4.34591549 L303.549259,3.29690141 C303.599341,1.4486385 302.647776,0.59943662 300.794728,0.59943662 L300.794728,0.59943662 Z" id="Shape"></path>
                        <path d="M284.267545,44.7579343 C284.267545,46.5562441 285.169028,47.5553052 287.022076,47.5553052 L288.574629,47.5553052 C290.377595,47.5553052 291.279077,46.5562441 291.279077,44.7579343 L291.279077,8.39211268 L284.267545,8.39211268 L284.267545,44.7579343 L284.267545,44.7579343 L284.267545,44.7579343 Z" id="Shape"></path>
                        <path d="M263.132784,3.39680751 C264.184514,2.14798122 263.633608,0.59943662 262.081054,0.59943662 L258.625371,0.59943662 C257.072817,0.59943662 256.371664,1.04901408 255.119605,2.49765258 L238.492257,22.4289202 L238.542339,3.44676056 C238.542339,1.6484507 237.640857,0.649389671 235.787809,0.649389671 L234.235255,0.649389671 C232.43229,0.649389671 231.530807,1.6484507 231.530807,3.44676056 L231.530807,44.8078873 C231.530807,46.6061972 232.43229,47.6052582 234.235255,47.6052582 L235.787809,47.6052582 C237.690939,47.6052582 238.542339,46.6061972 238.542339,44.8078873 L238.492257,31.4704225 L242.14827,27.3243192 L242.14827,27.3243192 L242.198353,27.2743662 L242.3486,27.074554 L242.3486,27.074554 L247.056343,21.7295775 L263.132784,3.39680751 L263.132784,3.39680751 Z" id="Shape"></path>
                        <path d="M247.807578,22.7785915 L243.099835,28.1235681 L256.171334,45.457277 C257.373311,47.0058216 258.324876,47.6052582 259.927512,47.6052582 L263.383196,47.6052582 C264.93575,47.6052582 265.636903,45.9568075 264.685338,44.7079812 L247.807578,22.7785915 L247.807578,22.7785915 Z" id="Shape"></path>
                        <path d="M211.147282,27.074554 C216.906755,25.0764319 218.809885,20.6306103 218.809885,14.536338 C218.809885,5.9943662 214.90346,0.549483568 202.733443,0.549483568 L190.112685,0.549483568 C188.30972,0.549483568 187.408237,1.5485446 187.408237,3.34685446 L187.408237,44.7079812 C187.408237,46.5062911 188.30972,47.5053521 190.112685,47.5053521 L191.765404,47.5053521 C193.568369,47.5053521 194.469852,46.5062911 194.469852,44.7079812 L194.469852,28.4732394 L194.469852,28.4732394 L194.469852,22.0792488 L194.469852,22.0792488 L194.469852,7.04338028 L203.785173,7.04338028 C210.295881,7.04338028 211.197364,10.6899531 211.197364,14.5862911 C211.197364,18.4326761 210.295881,22.1292019 203.785173,22.1292019 L195.822076,22.1292019 L195.822076,28.4732394 L204.235914,28.4732394 L212.299176,45.2075117 C213.100494,46.9059155 213.85173,47.6052582 215.804942,47.6052582 L218.70972,47.6052582 C220.262273,47.6052582 221.514333,46.1066667 220.61285,44.3083568 L211.147282,27.074554 L211.147282,27.074554 Z" id="Shape"></path>
                        <path d="M162.96804,2.54760563 C162.316969,0.799248826 161.565733,0.0499530516 159.81285,0.0499530516 L157.05832,0.0499530516 C155.305437,0.0499530516 154.554201,0.799248826 153.90313,2.54760563 L139.629654,44.3583099 C138.978583,46.2565258 140.030313,47.6052582 141.582867,47.6052582 L144.337397,47.6052582 C146.240527,47.6052582 146.991763,46.8559624 147.542669,45.0576526 L148.844811,40.7117371 L148.844811,40.7117371 L149.395717,38.9134272 L150.247117,36.1660094 L150.247117,36.1660094 L152,30.4214085 L152,30.4214085 L158.410544,9.44112676 L164.821087,30.4214085 L153.452389,30.4214085 L151.699506,36.1660094 L166.624053,36.1660094 L169.328501,45.0576526 C169.879407,46.8559624 170.630643,47.6052582 172.533773,47.6052582 L175.288303,47.6052582 C176.840857,47.6052582 177.842504,46.2065728 177.241516,44.3583099 L162.96804,2.54760563 L162.96804,2.54760563 Z" id="Shape"></path>
                        <path d="M87.1433278,1.24882629 C86.6425041,1.74835681 86.3920923,2.44769953 86.3920923,3.44676056 L86.3920923,44.8078873 C86.3920923,46.6061972 87.293575,47.6052582 89.0965404,47.6052582 L90.6490939,47.6052582 C92.5522241,47.6052582 93.4036244,46.6061972 93.4036244,44.8078873 L93.1031301,15.9849765 L87.1433278,1.24882629 L87.1433278,1.24882629 Z" id="Shape"></path>
                        <path d="M127.259308,0.59943662 L123.252718,0.59943662 C121.449753,0.59943662 120.54827,1.49859155 120.097529,2.59755869 L108.177924,32.6193427 L96.2583196,2.59755869 C95.8075783,1.4486385 94.9561779,0.59943662 93.1031301,0.59943662 L89.0965404,0.59943662 C88.8461285,0.59943662 88.5957166,0.59943662 88.3953871,0.649389671 L100.06458,29.3224413 L100.06458,29.3224413 L104.07117,39.1132394 C104.521911,40.2621596 105.373311,41.1113615 107.226359,41.1113615 L109.229654,41.1113615 C111.032619,41.1113615 111.934102,40.2122066 112.384843,39.1132394 L123.302801,12.2384977 L123.002306,44.7579343 C123.002306,46.5562441 123.903789,47.5553052 125.756837,47.5553052 L127.30939,47.5553052 C129.112356,47.5553052 130.013839,46.5562441 130.013839,44.7579343 L130.013839,3.39680751 C129.963756,1.59849765 129.112356,0.59943662 127.259308,0.59943662 L127.259308,0.59943662 Z" id="Shape"></path>
                    </g>
                </g>
            </g>
        </g>
    </g>
</svg>