<svg xmlns="http://www.w3.org/2000/svg" viewBox="0 0 200 48" enable-background="new 0 0 200 48"><g fill="#094d72"><path d="M3.09,48l3.425-1.394c7.659-3.135,11.824-7.783,12.967-18.875l2.55-25.381H9L8.397,8.273h4.232L10.88,26.221
		C10.009,34.931,7.992,39.928,0,42.773L3.09,48z"/><path d="m101.21 1.134h.349c.19 0 .429.035.429.257 0 .255-.174.29-.41.29h-.367v-.547zm-.413 1.762h.413v-.89h.26l.507.89h.432l-.555-.912c.308-.024.547-.174.547-.558 0-.453-.295-.617-.818-.617h-.786v2.087m-.662-1.04c0-.847.622-1.459 1.403-1.459.772 0 1.405.611 1.405 1.459 0 .85-.633 1.467-1.405 1.467-.781 0-1.403-.617-1.403-1.467m-.507 0c0 1.135.901 1.867 1.909 1.867 1.014 0 1.912-.732 1.912-1.867 0-1.129-.898-1.856-1.912-1.856-1.01 0-1.909.727-1.909 1.856"/></g><g fill="#8ea4b3"><path d="m116.23 18.824c.311-2.087-.215-5.522-4.162-5.522-3.658 0-5.602 3.202-6.139 5.522h10.301m-10.808 3.993c-.376 4.085 2.722 5.849 6.477 5.849 2.743 0 4.766-.37 6.627-1.022l.367 3.945c-2.121.791-4.996 1.44-8.365 1.44-7.606 0-11.505-4.548-10.626-11.465.794-6.267 5.49-12.162 12.996-12.162 7.654 0 9.344 6.03 8.713 11-.137 1.067-.338 1.904-.499 2.414h-15.69"/><path d="m124.45 16.643c.33-2.599.558-4.782.662-6.731h5.198l-.142 3.39h.145c1.236-1.765 4.058-3.899 7.954-3.899 4.093 0 8 2.553 7.096 9.7l-1.703 13.417h-5.919l1.62-12.766c.413-3.25-.528-5.71-3.752-5.71-2.357 0-4.2 1.623-5.04 3.342-.257.51-.394 1.207-.477 1.856l-1.684 13.278h-5.967l2.01-15.877"/><path d="m157.71 4.109l-.738 5.804h5.632l-.542 4.27h-5.632l-1.266 9.982c-.349 2.738.241 4.178 2.502 4.178 1.108 0 1.649-.094 2.347-.279l-.459 4.363c-.907.325-2.483.604-4.361.604-2.164 0-3.899-.743-4.859-1.904-1.086-1.298-1.405-3.342-1.027-6.313l1.349-10.631h-3.368l.542-4.27h3.368l.531-4.178 5.981-1.626"/><path d="m177.74 18.824c.314-2.087-.212-5.522-4.16-5.522-3.658 0-5.602 3.202-6.139 5.522h10.299m-10.805 3.993c-.375 4.085 2.722 5.849 6.477 5.849 2.744 0 4.766-.37 6.627-1.022l.367 3.945c-2.121.791-4.996 1.44-8.365 1.44-7.606 0-11.505-4.548-10.626-11.465.794-6.267 5.49-12.162 12.996-12.162 7.654 0 9.344 6.03 8.713 11-.137 1.067-.338 1.904-.499 2.414h-15.69"/><path d="m185.89 17.2c.389-3.063.617-5.246.732-7.289h5.149l-.354 4.318h.193c1.561-3.202 4.511-4.827 7.01-4.827.577 0 .909.046 1.379.139l-.684 5.385c-.469-.094-.987-.185-1.708-.185-2.84 0-4.988 1.762-5.844 4.315-.161.512-.333 1.116-.416 1.765l-1.486 11.698h-5.919l1.945-15.319"/></g><g fill="#094d72"><path d="m84.45 32.725h10.48l.6-5.924h-4.63l-6.45-9.293 12.76-9.582.61-5.576h-13.84l-.61 5.576h4.71l-6.72 5.227-7.526-10.803h-10.474l-.607 5.924h4.637l6.578 9.467-12.628 9.409-.604 5.575h14.241l.603-5.575h-5.1l6.58-5.05z"/><path d="m53.73 3.047c-2.821-.756-5.978-1.277-9.537-1.277-11.08 0-20.22 7.083-20.22 20.21 0 7.783 4.229 11.326 10.07 11.326 5.643 0 10.816-3.661 13.704-12.138h.268c-1.075 3.599-1.746 7.665-2.215 11.556h12.224l.606-5.924h-4.232l1.679-17.714c.201-1.974.536-4.066 1.075-6.04h-3.426m-20.487 18.06c0-7.144 3.76-13.417 10.612-13.417 1.075 0 2.352.233 3.427.467-.539 8.247-6.584 18.18-11.218 18.18-1.813-.001-2.821-1.919-2.821-5.228"/></g></svg>