<?xml version="1.0" encoding="utf-8"?>
<!-- Generator: Adobe Illustrator 19.2.1, SVG Export Plug-In . SVG Version: 6.00 Build 0)  -->
<svg version="1.1" id="layer" xmlns="http://www.w3.org/2000/svg" xmlns:xlink="http://www.w3.org/1999/xlink" x="0px" y="0px"
	 viewBox="0 0 652 652" style="enable-background:new 0 0 652 652;" xml:space="preserve">
<style type="text/css">
	.st0{fill:#231815;}
	.st1{fill:#C8161E;}
</style>
<g>
	<path class="st0" d="M25.3,282.4h19.8l16.5,44.7l16.8-44.7h17.8v4.3l-0.8,0c-2.7,0.2-4.4,0.8-4.9,1.6c-0.5,0.8-0.8,3.3-0.8,7.5v42
		c0,4.1,0.3,6.6,0.8,7.5c0.5,0.9,2.2,1.4,4.9,1.6l0.8,0v4.3H72.9v-4.3l0.8,0c2.3-0.2,3.6-0.7,4-1.5c0.4-0.9,0.7-3.4,0.7-7.6v-41
		l-18.5,46.8h-4l-18.1-49.6v43.9c0,4.1,0.2,6.6,0.7,7.5c0.5,0.9,1.8,1.4,4,1.6l0.7,0v4.3H25.3v-4.3l0.8,0c2.7-0.2,4.3-0.7,4.9-1.6
		c0.5-0.8,0.8-3.3,0.8-7.5v-42c0-4.1-0.3-6.6-0.8-7.5c-0.5-0.8-2.1-1.4-4.9-1.6l-0.8,0"/>
	<path class="st0" d="M124.5,345.5c-2.1,2.4-4.3,4.1-6.5,5.3c-2.2,1.2-4.5,1.8-6.8,1.8c-3.9,0-7.2-1.4-9.7-4.2
		c-2.6-2.8-3.9-6.4-3.9-10.7c0-5,1.6-9,4.9-12c2-1.8,4.3-3.1,7-3.7c2.7-0.7,6.5-1.1,11.3-1.1h2v-6.2c0-4.4-0.5-7.4-1.4-8.9
		c-1-1.6-2.7-2.4-5.3-2.4c-3.1,0-5.5,1-7.1,2.9c-0.5,0.6-0.9,2.7-1.1,6.2l0,0.9h-6.5v-10.3c5.1-2.7,10.4-4.1,16-4.1
		c5.6,0,9.8,1.3,12.8,4c3,2.7,4.5,6.5,4.5,11.5V337c0,4,0.2,6.7,0.8,8.1c0.5,1.5,1.4,2.2,2.8,2.2c0.4,0,0.9-0.1,1.4-0.3l0.5,4.3
		c-2.1,0.8-4.1,1.2-6.1,1.2c-2.2,0-4.1-0.6-5.7-1.8C126.9,349.6,125.6,347.8,124.5,345.5 M122.9,342.1v-17h-1.6
		c-4,0-6.9,0.9-8.9,2.8c-2,1.9-3,4.6-3,8.3c0,2.7,0.6,4.9,1.9,6.5c1.3,1.6,3,2.4,5.1,2.4c1.2,0,2.3-0.3,3.4-0.8
		C120.9,343.9,121.9,343.1,122.9,342.1"/>
	<path class="st0" d="M161.3,314.9v23c0,4.2,0.3,6.7,0.9,7.6c0.6,0.8,2.5,1.3,5.8,1.6l0.8,0.1v4.3H143v-4.3l0.8-0.1
		c2.7-0.2,4.3-0.7,4.9-1.6c0.5-0.9,0.8-3.4,0.8-7.5v-24.1c0-4.2-0.3-6.7-0.8-7.5c-0.5-0.9-2.2-1.4-4.9-1.6l-0.8,0v-4.3h18.3v9.7
		c3.6-7.2,8.3-10.8,14.1-10.8c0.6,0,1.4,0.1,2.3,0.4v16.3h-5.5l0-0.8c-0.2-3.4-0.4-5.4-0.6-5.9c-0.2-0.4-0.8-0.7-2-0.7
		C166.2,308.4,163.4,310.5,161.3,314.9"/>
	<path class="st0" d="M195.2,326.7v11.2c0,4.1,0.2,6.7,0.7,7.6c0.5,0.9,1.8,1.4,4,1.6l0.7,0v4.3h-23.7v-4.3l0.8,0
		c2.7-0.2,4.3-0.8,4.9-1.6c0.5-0.9,0.8-3.4,0.8-7.5v-46.6c0-4.1-0.3-6.7-0.8-7.5c-0.5-0.9-2.2-1.4-4.9-1.6l-0.8-0.1v-4.3h18.3v46h2
		l9-10.6c3.6-3.9,5.4-6.4,5.4-7.6c0-0.7-1.2-1.1-3.5-1.1h-0.8v-4.3h17.3v4.3l-0.7,0.1c-2.4,0.2-4.1,0.6-5.1,1.3
		c-1,0.7-3.7,3.3-7.9,7.8l-5.3,6.3l11.8,17.9c3,4.2,5,6.7,6,7.6c1,0.9,2.5,1.4,4.6,1.5l0.8,0v4.3h-17.7l-14-24.7"/>
	<path class="st0" d="M256.3,351c-2.5,1.1-4.9,1.6-7.3,1.6c-5,0-8.7-1.4-11.1-4.3c-2.5-2.8-3.7-7.1-3.7-12.8v-30.7h-5.5v-4.6h5.5
		v-8.6l11.9-2.4v11.1h9.8v4.6H246v31c0,4.6,0.4,7.6,1.2,9c0.8,1.5,2.4,2.2,4.8,2.2c1.3,0,2.8-0.4,4.3-1.1"/>
	<path class="st1" d="M299.1,351.4l-3.1-3.9c-4.6,3.7-9.6,5.6-15.2,5.6c-6.3,0-11.6-2.1-15.9-6.4c-4.3-4.3-6.4-9.5-6.4-15.8
		c0-9.6,5.1-16.6,15.3-20.9c-3.1-5.8-4.7-10.6-4.7-14.3c0-4.4,1.5-8,4.5-10.8c3-2.8,6.8-4.2,11.4-4.2c4.9,0,8.8,1.3,11.7,3.9
		c2.9,2.6,4.4,6.1,4.4,10.4c0,7.5-4.6,13-13.8,16.6c5.2,9.9,10,17.9,14.4,24.1c1.9-3.8,2.9-8,2.9-12.7c0-2.5-0.3-4-0.8-4.6
		c-0.5-0.6-1.9-1-4.3-1.1l-0.8-0.1v-4.3h19.3v4.3l-0.7,0.1c-2.5,0.2-4,0.4-4.4,0.8c-0.4,0.4-0.7,1.9-0.9,4.6
		c-0.5,5-3.1,10.5-7.9,16.5c2.8,4,4.6,6.2,5.4,6.8c0.8,0.6,2.8,1,6.1,1.2l0.7,0v4.3 M293.8,344c-6-7.9-12-18-18-30.3
		c-4,3.7-6,8.5-6,14.3c0,5.4,1.5,9.9,4.4,13.5c2.9,3.6,6.6,5.3,11.1,5.3C288.2,346.9,291,345.9,293.8,344 M285.4,307.9
		c3.8-4,5.8-8.5,5.8-13.5c0-3.1-0.4-5.5-1.3-7c-0.9-1.5-2.2-2.3-3.9-2.3c-1.8,0-3.2,0.7-4.1,2c-0.9,1.3-1.4,3.3-1.4,6
		C280.5,296.9,282.1,301.8,285.4,307.9"/>
	<path class="st0" d="M330,287h-9.7c-2.5,0-4.1,0.4-4.8,1.2c-0.7,0.8-1.1,3.2-1.1,7.3l0,1.3h-5.9v-14.4H364v14.4H358l0-1.3
		c0-4.1-0.4-6.5-1.1-7.3c-0.7-0.8-2.3-1.2-4.8-1.2h-9.7v50.9c0.2,4.6,0.5,7.2,0.9,7.8c0.4,0.6,2.4,1,5.8,1.3l0.7,0.1v4.3h-27.3v-4.3
		l0.7-0.1c3.3-0.2,5.2-0.8,5.8-1.6c0.6-0.8,0.9-3.3,0.9-7.5"/>
	<path class="st0" d="M392.3,349.4c-5.3,2.1-10.4,3.2-15.4,3.2c-7.5,0-13.5-2.5-17.9-7.4c-4.4-4.9-6.6-11.6-6.6-20
		c0-7.8,2-14.1,5.9-18.9c4-4.8,9.1-7.2,15.4-7.2c12.3,0,18.4,8.7,18.4,26.2v1h-27.6c0,6.5,1.3,11.3,3.9,14.5
		c2.6,3.2,6.5,4.8,11.7,4.8c3.5,0,7.5-1.1,12-3.4 M365.1,321.9h15.6v-1.6c0-6.2-0.5-10.6-1.6-13.1c-1.1-2.5-2.9-3.8-5.6-3.8
		c-2.8,0-4.9,1.5-6.3,4.6C365.8,311.1,365.1,315.8,365.1,321.9"/>
	<path class="st0" d="M433.9,350.2c-4.6,1.6-9,2.4-13.2,2.4c-7.7,0-13.7-2.4-18.1-7.3c-4.4-4.9-6.6-11.5-6.6-20.1
		c0-8.1,2.1-14.5,6.3-19.2c4.2-4.6,9.9-7,17.3-7c4.6,0,9.4,0.8,14.2,2.3v13.2H428l0-0.8c-0.2-3.9-0.6-6.2-1.2-7.1
		c-1.5-2.2-3.8-3.3-7-3.3c-3.8,0-6.6,1.8-8.4,5.3s-2.8,8.9-2.8,15.9c0,7.2,1.2,12.7,3.8,16.3c2.5,3.6,6.3,5.4,11.2,5.4
		c3.1,0,6.5-0.9,10.3-2.6"/>
	<path class="st0" d="M454.3,309.9c1.8-3.6,4-6.3,6.5-8.1s5.4-2.7,8.6-2.7c4,0,7.1,1.4,9.3,4.2c2.2,2.9,3.3,6.8,3.3,11.9v22.7
		c0,4.2,0.3,6.7,0.8,7.5c0.6,0.9,2.2,1.4,4.9,1.6l0.8,0.1v4.3h-24.8v-4.3l0.7-0.1c2.7-0.2,4.4-0.7,4.9-1.6c0.5-0.9,0.8-3.4,0.8-7.5
		v-21.1c0-3.6-0.4-6.1-1.1-7.4c-0.7-1.3-2.2-1.9-4.2-1.9c-1.8,0-3.6,0.6-5.3,1.9c-1.8,1.3-3.5,3.2-5.2,5.7v22.8
		c0,4.2,0.3,6.7,0.8,7.5c0.5,0.9,2.2,1.4,4.9,1.6l0.8,0.1v4.3H436v-4.3l0.8-0.1c2.7-0.2,4.3-0.7,4.9-1.6c0.5-0.9,0.8-3.4,0.8-7.5
		v-46.6c0-4.1-0.3-6.6-0.8-7.5c-0.5-0.9-2.2-1.4-4.9-1.6l-0.8-0.1v-4.3h18.3"/>
	<path class="st0" d="M509.2,309.9c1.8-3.6,4-6.3,6.5-8.1c2.5-1.8,5.4-2.7,8.6-2.7c4,0,7.1,1.4,9.3,4.2c2.2,2.9,3.3,6.8,3.3,11.9
		v22.7c0,4.2,0.3,6.7,0.8,7.5c0.5,0.9,2.2,1.4,4.9,1.6l0.8,0.1v4.3h-24.8v-4.3l0.7-0.1c2.7-0.2,4.4-0.7,4.9-1.6
		c0.5-0.9,0.8-3.4,0.8-7.5v-21.1c0-3.6-0.4-6.1-1.1-7.4c-0.7-1.3-2.1-1.9-4.2-1.9c-1.8,0-3.6,0.6-5.3,1.9c-1.8,1.3-3.5,3.2-5.2,5.7
		v22.8c0,4.2,0.3,6.7,0.8,7.5c0.6,0.9,2.2,1.4,4.9,1.6l0.8,0.1v4.3h-24.8v-4.3l0.8-0.1c2.7-0.2,4.3-0.7,4.9-1.6
		c0.5-0.9,0.8-3.4,0.8-7.5v-24.1c0-4.2-0.3-6.7-0.8-7.5c-0.5-0.9-2.2-1.4-4.9-1.6l-0.8,0v-4.3h18.3"/>
	<path class="st0" d="M564.4,300.2v37.7c0,4.2,0.3,6.7,0.8,7.5c0.6,0.9,2.2,1.4,4.8,1.6l0.8,0v4.3h-24.8v-4.3l0.8,0
		c2.7-0.2,4.3-0.8,4.9-1.6c0.5-0.9,0.8-3.4,0.8-7.5v-24.1c0-4.2-0.3-6.7-0.8-7.5c-0.5-0.9-2.1-1.4-4.9-1.6l-0.8-0.1v-4.3"/>
</g>
<g>
	<polyline class="st0" points="552.5,290.2 564.4,290.2 564.4,277.8 552.5,277.8 	"/>
	<path class="st0" d="M591.7,326.7v11.2c0,4.1,0.2,6.7,0.7,7.6c0.5,0.9,1.8,1.4,4,1.6l0.7,0v4.3h-23.7v-4.3l0.8,0
		c2.7-0.2,4.3-0.8,4.9-1.6c0.5-0.9,0.8-3.4,0.8-7.5v-46.6c0-4.1-0.3-6.7-0.8-7.5c-0.5-0.9-2.2-1.4-4.9-1.6l-0.8-0.1v-4.3h18.3v46h2
		l9-10.6c3.6-3.9,5.4-6.4,5.4-7.6c0-0.7-1.2-1.1-3.5-1.1h-0.8v-4.3h17.3v4.3l-0.7,0.1c-2.4,0.2-4.1,0.6-5.1,1.3
		c-1,0.7-3.7,3.3-7.9,7.8l-5.3,6.3l11.8,17.9c3,4.2,5,6.7,6,7.6c1,0.9,2.5,1.4,4.6,1.5l0.8,0v4.3h-17.7l-14-24.7"/>
</g>
<g>
	<path class="st0" d="M109.3,372.7c-0.8,1-1.6,1.3-3.4,1.3h-2.4v-9.5h2c1.8,0,2.8,0.3,3.7,1.3c0.7,0.8,1,2,1,3.4
		C110.3,370.8,110,371.9,109.3,372.7 M108,366.6c-0.4-0.6-0.9-0.8-1.8-0.8h-1v7h1c1.7,0,2.4-1.1,2.4-3.3
		C108.6,368.2,108.5,367.3,108,366.6"/>
	<polyline class="st0" points="115.1,374 116.7,374 116.7,364.5 115.1,364.5 	"/>
	<polyline class="st0" points="122,374 122,364.5 127.3,364.5 127.1,365.8 123.6,365.8 123.6,368.4 126.5,368.4 126.5,369.7 
		123.6,369.7 123.6,372.7 127.4,372.7 127.4,374 	"/>
	<path class="st0" d="M141.1,374.2c-2.5,0-3.3-1.3-3.3-2.8v-6.9h1.6v6.4c0,1.5,0.5,1.9,1.7,1.9c1.2,0,1.7-0.7,1.7-1.9v-6.4h1.6v6.9
		C144.4,373.1,143.2,374.2,141.1,374.2"/>
	<path class="st0" d="M154.5,374l-2.1-4.5c-0.5-1.1-1-2.3-1.2-2.8l0,0c0.1,0.8,0.1,1.8,0.1,2.6l0.1,4.6h-1.6v-9.5h1.8l2.3,4.7
		c0.4,0.9,0.9,2,1,2.5l0,0c0-0.5-0.1-1.9-0.1-2.7l0-4.4h1.5v9.5"/>
	<path class="st0" d="M166.5,374l-0.8-2.5h-3.1l-0.8,2.5h-1.6l3.1-9.6h1.8l3,9.6 M164.2,366.1L164.2,366.1c0,0-1,3.4-1.2,4.1h2.3
		C165.2,370,164.3,366.5,164.2,366.1"/>
	<path class="st0" d="M174.9,374h-2.8v-9.5h2.5c1.4,0,1.9,0.1,2.5,0.5c0.7,0.5,1.1,1.1,1.1,1.9c0,1-0.6,1.8-1.6,2.1
		c1.6,0.4,2,1.5,2,2.4C178.6,373.2,177.3,374,174.9,374 M175.8,365.9c-0.2-0.1-0.4-0.1-0.9-0.1h-1.2v2.6h1.4c0.6,0,0.9,0,1.2-0.4
		c0.3-0.3,0.4-0.7,0.4-0.9C176.6,366.5,176.2,366.1,175.8,365.9 M176,369.8c-0.2-0.1-0.4-0.1-0.9-0.1h-1.4v3h1.4
		c1.2,0,1.7-0.7,1.7-1.5C176.9,370.5,176.5,369.9,176,369.8"/>
	<polyline class="st0" points="188.1,374 188.1,369.6 184.9,369.6 184.9,374 183.3,374 183.3,364.5 184.9,364.5 184.9,368.3 
		188.1,368.3 188.1,364.5 189.7,364.5 189.7,374 	"/>
	<path class="st0" d="M199.9,374l-0.8-2.5h-3.1l-0.8,2.5h-1.6l3.1-9.6h1.8l3,9.6 M196.1,364.1c-0.5,0-0.9-0.4-0.9-1
		c0-0.5,0.4-1,0.9-1c0.5,0,0.9,0.4,0.9,1C197,363.7,196.6,364.1,196.1,364.1 M197.7,366.1L197.7,366.1c0,0-1,3.4-1.2,4.1h2.4
		C198.7,370,197.7,366.5,197.7,366.1 M199,364.1c-0.5,0-0.9-0.4-0.9-1c0-0.5,0.4-1,0.9-1c0.5,0,0.9,0.4,0.9,1
		C199.9,363.7,199.5,364.1,199,364.1"/>
	<path class="st0" d="M210.4,374l-2.1-4.5c-0.5-1.1-1-2.3-1.2-2.8l0,0c0.1,0.8,0.1,1.8,0.1,2.6l0.1,4.6h-1.6v-9.5h1.8l2.3,4.7
		c0.4,0.9,0.9,2,1,2.5l0,0c0-0.5-0.1-1.9-0.1-2.7l0-4.4h1.5v9.5"/>
	<path class="st0" d="M220.8,374.2c-1.3,0-2.4-0.4-3.1-1.4c-0.7-0.9-1.1-2-1.1-3.5c0-2,0.6-3.3,1.8-4.2c0.7-0.5,1.4-0.7,2.4-0.7
		c1.1,0,2.1,0.3,2.8,1l-0.8,1c-0.7-0.5-1.3-0.7-2-0.7c-1.8,0-2.4,1.5-2.4,3.8c0,1.3,0.3,2.3,0.7,2.8c0.4,0.5,1.1,0.7,1.8,0.7
		c0.5,0,0.9-0.1,1.3-0.3v-2.5h-1.6l-0.2-1.3h3.5v4.5C223,373.9,221.9,374.2,220.8,374.2"/>
	<polyline class="st0" points="228.9,374 230.5,374 230.5,364.5 228.9,364.5 	"/>
	<path class="st0" d="M239.2,374.2c-1.3,0-2.4-0.4-3.1-1.4c-0.7-0.9-1.1-2-1.1-3.5c0-2,0.6-3.3,1.8-4.2c0.7-0.5,1.4-0.7,2.4-0.7
		c1.1,0,2.1,0.3,2.8,1l-0.8,1c-0.7-0.5-1.3-0.7-2-0.7c-1.8,0-2.4,1.5-2.4,3.8c0,1.3,0.2,2.3,0.7,2.8c0.4,0.5,1.1,0.7,1.8,0.7
		c0.5,0,0.9-0.1,1.3-0.3v-2.5H239l-0.2-1.3h3.5v4.5C241.3,373.9,240.3,374.2,239.2,374.2"/>
	<polyline class="st0" points="247.2,374 247.2,364.5 252.5,364.5 252.3,365.8 248.8,365.8 248.8,368.4 251.7,368.4 251.7,369.7 
		248.8,369.7 248.8,372.7 252.7,372.7 252.7,374 	"/>
	<path class="st0" d="M270.7,374.1h-1.8l-1-4.4c-0.3-1.4-0.5-2.8-0.5-2.8h0c0,0-0.2,1.6-0.5,2.7l-0.9,4.5h-1.9l-2.3-9.6h1.7l1,4.4
		c0.3,1.5,0.5,3.1,0.5,3.1h0c0,0,0.3-1.8,0.5-2.9l1-4.6h1.8l1,4.7c0.2,1.1,0.5,2.7,0.5,2.7h0c0,0,0.3-2,0.6-3.1l0.9-4.3h1.7"/>
	<path class="st0" d="M276.6,369.3c0-3.1,1.6-4.9,4-4.9c2.7,0,4,2.1,4,4.9c0,3-1.4,4.9-3.9,4.9C278,374.2,276.6,372.1,276.6,369.3
		 M282.8,369.4c0-2.3-0.5-3.8-2.2-3.8c-1.6,0-2.2,1.3-2.2,3.6c0,2.4,0.6,3.8,2.3,3.8C282.1,373,282.8,371.9,282.8,369.4"/>
	<path class="st0" d="M292.7,374.2c-1.3,0-2.3-0.5-3-1.4c-0.7-0.9-1.1-2-1.1-3.4c0-1.1,0.2-2.1,0.6-2.9c0.7-1.4,2-2.2,3.5-2.2
		c0.9,0,1.8,0.3,2.4,0.7l-0.7,1.1c-0.5-0.4-1-0.5-1.6-0.5c-0.8,0-1.5,0.4-1.9,1.1c-0.3,0.6-0.5,1.4-0.5,2.5c0,1.2,0.1,1.8,0.4,2.4
		c0.4,0.9,1.2,1.4,2.1,1.4c0.7,0,1.2-0.2,1.7-0.6l0.7,1C294.5,373.9,293.7,374.2,292.7,374.2"/>
	<polyline class="st0" points="304.3,374 304.3,369.6 301.1,369.6 301.1,374 299.5,374 299.5,364.5 301.1,364.5 301.1,368.3 
		304.3,368.3 304.3,364.5 305.9,364.5 305.9,374 	"/>
	<polyline class="st0" points="311.3,374 311.3,364.5 316.6,364.5 316.3,365.8 312.8,365.8 312.8,368.4 315.8,368.4 315.8,369.7 
		312.9,369.7 312.9,372.7 316.7,372.7 316.7,374 	"/>
	<path class="st0" d="M326.2,374l-2.1-4.5c-0.5-1.1-1-2.3-1.2-2.8l0,0c0.1,0.8,0.1,1.8,0.1,2.6l0.1,4.6h-1.6v-9.5h1.8l2.3,4.7
		c0.4,0.9,0.9,2,1,2.5l0,0c0-0.5-0.1-1.9-0.1-2.7l0-4.4h1.5v9.5"/>
	<path class="st0" d="M338.2,374h-5.8v-1.2l3.7-6.2c0.3-0.5,0.6-0.9,0.6-0.9s-0.5,0.1-1,0.1h-3.1l0.4-1.3h5.6v1.2l-3.7,6.3
		c-0.2,0.4-0.5,0.8-0.5,0.8s0.4,0,0.9,0h3.4"/>
	<polyline class="st0" points="343.1,374 343.1,364.5 348.4,364.5 348.2,365.8 344.7,365.8 344.7,368.4 347.6,368.4 347.6,369.7 
		344.7,369.7 344.7,372.7 348.5,372.7 348.5,374 	"/>
	<polyline class="st0" points="353.2,374 354.9,374 354.9,364.5 353.2,364.5 	"/>
	<polyline class="st0" points="365.5,365.8 363.1,365.8 363.1,374 361.5,374 361.5,365.8 359.1,365.8 359.1,364.5 365.7,364.5 	"/>
	<path class="st0" d="M373,374.2c-2.5,0-3.3-1.3-3.3-2.8v-6.9h1.6v6.4c0,1.5,0.5,1.9,1.7,1.9c1.2,0,1.7-0.7,1.7-1.9v-6.4h1.6v6.9
		C376.3,373.1,375.1,374.2,373,374.2"/>
	<path class="st0" d="M386.4,374l-2.1-4.5c-0.5-1.1-1-2.3-1.2-2.8l0,0c0.1,0.8,0.1,1.8,0.1,2.6l0.1,4.6h-1.6v-9.5h1.8l2.3,4.7
		c0.4,0.9,0.9,2,1,2.5l0,0c0-0.5-0.1-1.9-0.1-2.7l0-4.4h1.5v9.5"/>
	<path class="st0" d="M396.9,374.2c-1.3,0-2.4-0.4-3.1-1.4c-0.7-0.9-1.1-2-1.1-3.5c0-2,0.6-3.3,1.8-4.2c0.7-0.5,1.4-0.7,2.4-0.7
		c1.1,0,2.1,0.3,2.8,1l-0.8,1c-0.7-0.5-1.3-0.7-2-0.7c-1.8,0-2.4,1.5-2.4,3.8c0,1.3,0.2,2.3,0.7,2.8c0.4,0.5,1.1,0.7,1.8,0.7
		c0.5,0,0.9-0.1,1.3-0.3v-2.5h-1.6l-0.2-1.3h3.5v4.5C399,373.9,398,374.2,396.9,374.2"/>
	<polyline class="st0" points="415.5,365.8 412.2,365.8 412.2,368.4 414.9,368.4 414.9,369.7 412.2,369.7 412.2,374 410.7,374 
		410.7,364.5 415.7,364.5 	"/>
	<path class="st0" d="M423.1,374.2c-2.5,0-3.3-1.3-3.3-2.8v-6.9h1.6v6.4c0,1.5,0.5,1.9,1.7,1.9c1.2,0,1.7-0.7,1.7-1.9v-6.4h1.6v6.9
		C426.4,373.1,425.2,374.2,423.1,374.2 M421.4,363.6c-0.5,0-0.9-0.4-0.9-1c0-0.5,0.4-1,0.9-1c0.5,0,0.9,0.4,0.9,1
		C422.3,363.1,421.9,363.6,421.4,363.6 M424.3,363.6c-0.5,0-0.9-0.4-0.9-1c0-0.5,0.4-1,0.9-1c0.5,0,0.9,0.4,0.9,1
		C425.2,363.1,424.8,363.6,424.3,363.6"/>
	<path class="st0" d="M436.1,374l-0.8-1.5c-0.7-1.2-1.1-1.8-1.6-2.4c-0.2-0.2-0.3-0.3-0.6-0.3v4.1h-1.6v-9.5h2.9
		c2.1,0,3.1,1.2,3.1,2.7c0,1.5-0.9,2.6-2.4,2.6c0.3,0.2,1,1.1,1.5,1.9l1.4,2.3 M433.1,365.8v3h0.8c0.8,0,1.3-0.1,1.6-0.4
		c0.3-0.3,0.4-0.7,0.4-1.2c0-1-0.5-1.5-1.9-1.5H433.1z"/>
	<polyline class="st0" points="448.3,374 448.3,364.5 453.6,364.5 453.4,365.8 449.9,365.8 449.9,368.4 452.8,368.4 452.8,369.7 
		449.9,369.7 449.9,372.7 453.7,372.7 453.7,374 	"/>
	<polyline class="st0" points="463.3,374 458.4,374 458.4,364.5 460,364.5 460,372.7 463.6,372.7 	"/>
	<polyline class="st0" points="467.7,374 467.7,364.5 473,364.5 472.8,365.8 469.3,365.8 469.3,368.4 472.2,368.4 472.2,369.7 
		469.3,369.7 469.3,372.7 473.1,372.7 473.1,374 	"/>
	<path class="st0" d="M477.8,364.5h1.6v9.5h-1.6 M484.5,364.5l-3.3,4.4l3.5,5.1h-2.1l-3.2-5.1l3.1-4.5H484.5z"/>
	<polyline class="st0" points="494.3,365.8 491.9,365.8 491.9,374 490.3,374 490.3,365.8 487.9,365.8 487.9,364.5 494.5,364.5 	"/>
	<path class="st0" d="M503.2,374l-0.8-1.5c-0.7-1.2-1.1-1.8-1.6-2.4c-0.2-0.2-0.3-0.3-0.6-0.3v4.1h-1.6v-9.5h2.9
		c2.1,0,3.1,1.2,3.1,2.7c0,1.5-0.9,2.6-2.4,2.6c0.3,0.2,1,1.1,1.5,1.9l1.4,2.3 M500.2,365.8v3h0.8c0.8,0,1.3-0.1,1.5-0.4
		c0.3-0.3,0.4-0.7,0.4-1.2c0-1-0.5-1.5-1.9-1.5H500.2z"/>
	<path class="st0" d="M508.9,369.3c0-3.1,1.6-4.9,4-4.9c2.7,0,4,2.1,4,4.9c0,3-1.4,4.9-3.9,4.9C510.2,374.2,508.9,372.1,508.9,369.3
		 M515,369.4c0-2.3-0.5-3.8-2.2-3.8c-1.6,0-2.2,1.3-2.2,3.6c0,2.4,0.6,3.8,2.2,3.8C514.3,373,515,371.9,515,369.4"/>
	<path class="st0" d="M526.2,374l-2.1-4.5c-0.5-1.1-1-2.3-1.2-2.8l0,0c0.1,0.8,0.1,1.8,0.1,2.6l0.1,4.6h-1.6v-9.5h1.8l2.3,4.7
		c0.4,0.9,0.9,2,1,2.5l0,0c0-0.5-0.1-1.9-0.1-2.7l0-4.4h1.5v9.5"/>
	<polyline class="st0" points="533.2,374 534.8,374 534.8,364.5 533.2,364.5 	"/>
	<path class="st0" d="M540.1,364.5h1.6v9.5h-1.6 M546.8,364.5l-3.3,4.4l3.5,5.1h-2.1l-3.2-5.1l3.1-4.5H546.8z"/>
</g>
</svg>
