<svg height="75" viewBox="0 0 573 75" width="573" xmlns="http://www.w3.org/2000/svg"><g fill-rule="evenodd" transform="translate(0 -1)"><path d="m86.74 46.93c0 11.36-4.19 21.82-17.51 25.63l-.9-.53c4.4912989-3.3952645 7.0920472-8.7305139 7-14.36v-25.7c-1.64-1.28-4.08-2.92-5.94-4.06l-2.41 2.4v19.22c.0394336 1.8641261 1.4562805 3.4093881 3.31 3.61v.39l-7.59 7.67-9.27-6.91v-.52c1.43-.43 2.1-1.62 2.1-3.46v-36c0-2.2-.23-3.58-1.88-4.36v-.42l12.95-8.15.38.3v26.16s2.55-2.53 8.57-8.87c3.15 2.06 8.18 5.75 11.2 8.27v19.69z"/><path d="m53.89 42.87c-2.53 10.43-11.1 19.66-24.65 19.66-13.36 0-26.91-7.08-26.91-24.17 0-12 8.27-19 17.29-22.93l1.35.53c-5.08 4.39-7.44 10-7.44 18 0 11.31 6.59 18.12 21.5 18.12 1.6925711-.0878046 3.369839-.3662311 5-.83v-33.04c-1.9725345-.0656346-3.9345163-.3167415-5.86-.75v16.61c0 5-1 7.16-5.56 9.55l-9.52 4.91-1.28-1.6 2.78-1.4c2.06-1.07 2.41-2.29 2.41-6.09v-12.58c0-2-.24-2.72-1.8-3.46v-.6c3.82-1.78 9.46-4.49 11.5-5.49v-.07c-3.37-.9-7-2.19-10.22-3.23-3.45-1.11-6.45-2-8.57-2-4.86 0-9.56 1.69-12.7 10l-1.2-.75c-.01-12.84 5.42-20.18 15.77-20.18 5 0 10 1.7 14.58 3.38 2.26.84 4.36 1.63 6.31 2.25 1.6687783.60393891 3.4176975.9577665 5.19 1.05 4.17 0 6.85-1.46 9-4.51l1.13.6c0 7.33-2.37 14-10.6 14.36v32.63c4.64-1.48 8.34-4.55 11.43-9.17z"/><path d="m118.43 31.29c-6.23 4.64-10.66 8-15.71 11.73v4.44c2.72 1.78 5 3.16 7.59 4.66l4.12-4.22 1.28 1.35-11.8 12c-3.77-2.45-9-5.91-12.85-8.79v-21.84c6.28-3.54 13-7.62 19.24-11.73 3.25 4.56 5.47 8.02 8.13 12.4zm-10 5.11c-1.6-3.36-3.47-6.88-5.49-10.45l-.23.23v14.58c1.18-.87 3.72-2.83 5.72-4.36z"/><path d="m397.43 63.84c0 6.84-8 12.1-18.41 12.1-3.827935-.200301-7.616544-.8720402-11.28-2-2.84-.78-7.1-1.88-9.7-1.88-4.05 0-5.87 1.45-7.44 3.38l-.75-.83c1-5.38 3-12.4 11.58-12.4 4.95 0 9.29 2.55 12.7 5.26 2.89 2.29 6.23 5.26 9.47 5.26 3.45 0 5.26-2 5.26-4.81 0-5.17-8.57-6.9-8.57-14.13v-.17c-2.67 2.8-4.56 4.85-7.22 7.67-3.43-2.07-10.07-6.33-12.93-8.34v-19.93c0-2.81-1.16-4.74-3.46-5v-.3c2-2.08 5.62-5.83 8.57-8.72 4.06 1.5 6.46 4.88 6.46 10.52v18.24c1.92 1.23 5.28 3.09 7.89 4.51l.53-.45v-19.62c0-2.78-.72-4.39-3.31-5.19v-.3c3.34-3.3 5.77-5.81 7.89-8 2.08 1.56 6.29 4.8 9.77 7.52v.3c-1.902974.8484259-3.053427 2.815458-2.86 4.89v18.52c-.02 6.14 5.81 6.86 5.81 13.9z"/><path d="m355.67 29.53c-1.87 2-5.8 5.81-8 7.74l-.3-.08c-1.52201-3.2540784-3.280035-6.3924539-5.26-9.39l-1.58 1.58v19.65c1.822949 1.1977862 3.705357 2.3025329 5.64 3.31l2.73-2.81 1.05 1.13-10.45 10.6c-3.39-2.26-7.27-4.85-10.6-7.29v-21.1c0-2.89-1.31-4.86-3.46-5.26v-.3c2.63-2.51 5.66-5.56 8.19-8.34 3.53 1 6.17 4.36 6.61 8.72 3.65-3.71 5.61-5.76 8.64-8.72 2.607351 3.2865304 4.881847 6.8238911 6.79 10.56z"/><path d="m325.15 53.47c-4.31 4.53-7.59 7.82-7.59 7.82-4.37747-1.2122705-7.43684-5.1585328-7.52-9.7l-9.39 9.7c-2.82-1.74-8.2-5.45-10.75-7.37v-20.45c0-3-.82-4.73-3.38-5.34v-.3s4.47-4.6 8.57-8.87c3.82 1 6.31 4.57 6.31 10.3v19.4c1.753807 1.3899503 3.643376 2.5994083 5.64 3.61l2.78-2.86v-17c0-2.62-.41-4.48-2.93-5.41v-.37c2.5-2.49 5.91-5.71 8-7.67 2.82 2.29 7.14 5.47 9.32 7.14v.3c-1.720198.722851-2.822957 2.4245918-2.78 4.29v17.07c0 2.89 1.06 4.74 3.76 5.41v.3z"/><path d="m285.69 29.27c-2.55962 2.8498242-5.270176 5.5603802-8.12 8.12h-.3c-1.677147-3.8606603-3.663615-7.5794364-5.94-11.12l-.68.45v21.34c2.213079 1.5710074 4.554711 2.9525701 7 4.13l3.83-3.83 1.28 1.28c-6.84 6.72-11.65 11.65-11.65 11.65-4.12-2.54-7.56-4.83-12-8.12v-22.1c6.958734-3.370895 13.536273-7.4776662 19.62-12.25 2.527589 3.3405173 4.851793 6.8301622 6.96 10.45z"/><path d="m259.08 29.53c-1.87 2-5.8 5.81-8 7.74l-.38-.08c-1.52531-3.2415254-3.286718-6.3666041-5.27-9.35l-1.58 1.58v19.61c1.822531 1.1984589 3.704974 2.303226 5.64 3.31l2.75-2.81 1.13 1.13-10.45 10.6c-3.39-2.26-7.27-4.85-10.6-7.29v-21.1c0-2.89-1.31-4.86-3.46-5.26v-.3c2.64-2.51 5.66-5.56 8.19-8.34 3.53 1 6.09 4.36 6.54 8.72 3.65-3.71 5.61-5.76 8.64-8.72 2.62647 3.285144 4.921009 6.8224194 6.85 10.56z"/><path d="m228.94 31.29c-6.23 4.63-10.66 8-15.71 11.72v4.44c2.72 1.78 5 3.16 7.59 4.66l4.21-4.21 1.4 1.36-11.8 12c-3.77-2.44-9-5.91-12.85-8.79v-21.85c6.28-3.54 13-7.62 19.24-11.73 3.16 4.56 5.3 8.02 7.92 12.4zm-9.92 5.11c-1.6-3.36-3.47-6.88-5.49-10.45l-.3.23v14.59c1.2-.88 3.81-2.84 5.79-4.36z"/><path d="m200.3 53.77c-4.87 5.15-7.87 8.42-7.87 8.42-5.23-1.73-8.57-5.13-8.57-12.48v-34.61c-1.685761-1.5867114-3.469253-3.0662748-5.34-4.43l-.6.68v15.18h2.86l-2.35 9.35h-.6v17.06l1.65.9v.22l-8.49 8.12-10.56-8.33v-.23c1.41887-.8313441 2.205607-2.4284207 2-4.06v-13.68h-5.2l2.48-9.35h2.78v-6.74c0-4.75-1.81-7.52-6-9.77v42.62c0 5.4-2.11 10.45-8.72 10.45-3.42 0-6.27-1.36-8.95-2-2.339129-.7565239-4.765552-1.2102179-7.22-1.35-3.64 0-6.17 1.11-7.22 2.55l-1.05-.83c.68-6.4 4-12 11.35-12 1.497274.0206413 2.976936.3260762 4.36.9 1.86-1.18 2.25-3.45 2.25-8v-6.48h-2.25c-2.5 0-3.76.55-4.36 2.63l-1.25-.45c0-.67-.15-1.49-.15-2 0-7 4.36-9.55 7-9.55h1.05v-4.54c0-7.26 5.16-10.91 15.48-18.12 0 0 2.57-1.81 4-2.78 7.26 1.46 11.93 5.34 13.53 11.24l11.2-11.28c3.24 2.11 7.56 5.3 10.37 7.59v39.66c0 3.83 1.67 4.69 4.43 5v.53zm-23.87-27.24v-13.91l-1.88 2v11.91zm0 25.63v-16.28h-1.88v12.85c-.002577 1.3980124.705659 2.7014688 1.88 3.46zm-21.27-.75v-42.29l-.6-.3c-1 1.13-1.2 2.08-1.2 4.13v25.18c0 7.09-4.34 10.74-12.55 12.93v.15c2.057259 1.0988669 3.974443 2.4419027 5.71 4 1.484151 1.3950274 3.41573 2.2172773 5.45 2.32 2.24 0 3.23-1.65 3.23-6.09z"/><path d="m543.09 25.66c-2.63 1.24-3 2.83-3 4.58v16.29c-6.46 5.11-11.58 9.17-18.27 14.66-2.72-2-8.09-6-11.5-8.72-1 1.06-6.75 6.83-8.57 8.72-2.88-1.84-9.32-6.5-12.63-8.94v-20.88c.164311-2.1226649-1.184688-4.0688981-3.23-4.66v-.3c2.78-2.86 5.64-5.34 7.52-7.44 3.46.38 7.22 4.65 7.22 9.62v18.34c1.8 1.43 4.95 3.67 7.67 5.41l.53-.53v-20.28c0-2.6-.53-3.57-2.55-4.28v-.3l8-8 8.87 6.54v.3c-1.719302.5482944-2.842139 2.1995253-2.72 4v16.91c2.11 1.65 5.64 4.09 8 5.64l.15-.08v-20.89c0-2.06-.53-3.34-2.55-4.13v-.38l8.12-8 8.95 6.39v.38z"/><path d="m466.05 1.83c-1.09 7.29-5.94 11.31-11.35 11.58v49.23h-1.73c-16.46-26.38-26.64-42.68-28.49-45.48h-.15v32.37c3.86578.1496489 7.591522 1.4870054 10.67 3.83l2-2.18 1.43 1.35-10 10.18c-1.55-1.63-6.54-3.38-9.17-3.38-4.74 0-7.85 1.46-9.32 3l-.75-.75c1.34-7.62 6.75-11.68 13.76-12v-14.53h-2.93c-1.803339-.1653391-3.513376.8301754-4.26 2.48l-1.05-.45c0-.67-.08-1.19-.08-1.65 0-7.24 4.06-9.7 7.14-9.7h1.13v-11.8c-1.4-2.33-3-4.21-5.41-4.21-1.412899-.11690888-2.791693.4750736-3.68 1.58l-1-.75c1.54-6.38 5.32-9.47 10.22-9.47s7.92 3.08 11.5 8.64c8.85 13.75 18.64 29.69 18.64 29.69h.15v-26c-3.01634-.0086305-5.943829-1.021992-8.32-2.88l-1.65 1.58-1.2-1.2c4.64-4.6 7.22-7.43 9.54-9.92 1.811228 1.80412233 4.28463 2.78408123 6.84 2.71 2.404397.10692568 4.744841-.79157291 6.46-2.48z"/><path d="m572.86 19.53c-.85 6.15-3.82 10.42-8.49 14.88 2.31 1.44 6.17 4.24 8 5.71v9.62c-5.749681 3.1316932-11.118563 6.9167547-16 11.28-1.79954-1.5437563-4.089055-2.3978942-6.46-2.41-2.822851.0575026-5.525317 1.1541552-7.59 3.08l-.9-.53c1-9.31 5.45-13.41 10.07-17-1.86-1.31-5.78-4.25-7.52-5.71v-8.73c5.727358-3.069828 11.139919-6.693832 16.16-10.82 1.819872 1.5089651 4.096478 2.3582873 6.46 2.41 2.06102.086652 4.041472-.8071472 5.34-2.41zm-5.64 9.85-.08-.15c-1.29525.5090412-2.668891.7898595-4.06.83-2.773178.0639714-5.455142-.9922321-7.44-2.93l-.15.08v6.24c1.277495 1.1686921 2.634045 2.2479176 4.06 3.23 2.886343-2.046065 5.468612-4.4902986 7.67-7.26zm-6.39 23.15v-7c-1.366615-1.1323326-2.795515-2.1873147-4.28-3.16-4.47 3-8.37 6.26-10.45 9.55l.08.08c2.208767-1.1201031 4.664866-1.6636096 7.14-1.58 2.624825-.066715 5.203826.6961376 7.37 2.18z"/><path d="m486.87 31.29c-6.23 4.63-10.66 8-15.71 11.72v4.44c2.72 1.78 5 3.16 7.59 4.66l4.21-4.21 1.36 1.35-11.8 12c-3.78-2.44-9-5.91-12.85-8.79v-21.84c6.28-3.54 13-7.62 19.24-11.73 3.2 4.56 5.34 8.02 7.96 12.4zm-9.92 5.11c-1.6-3.36-3.47-6.88-5.49-10.45l-.3.23v14.59c1.22-.88 3.81-2.84 5.79-4.36z"/></g></svg>