<?xml version="1.0" encoding="UTF-8"?><svg xmlns="http://www.w3.org/2000/svg" viewBox="0 0 96 82"><defs><style>.d{fill:#171321;}</style></defs><g id="a"/><g id="b"><g id="c"><g><polygon class="d" points="78 82 0 82 0 0 2 0 2 80 76 80 76 2 9 2 9 0 78 0 78 82"/><path class="d" d="M83,82h-6v-2h6c6.07,0,11-4.93,11-11V27h-17v-2h19v44c0,7.17-5.83,13-13,13Z"/><path class="d" d="M66,33H12V14h54v19Zm-52-2h50v-15H14v15Z"/><polygon class="d" points="66 66 64 66 64 46 44 46 44 64 59 64 59 66 42 66 42 44 66 44 66 66"/><rect class="d" x="13" y="46" width="20" height="2"/><rect class="d" x="13" y="54" width="20" height="2"/><rect class="d" x="13" y="62" width="20" height="2"/></g></g></g></svg>