<?xml version="1.0" encoding="UTF-8"?><svg xmlns="http://www.w3.org/2000/svg" viewBox="0 0 96 82.78"><defs><style>.e{fill:#171321;}</style></defs><g id="a"/><g id="b"><g id="c"><g id="d"><path class="e" d="M69,82.78l-32.33-23.99H13c-7.17,0-13-5.83-13-13V23.79H36.66L67.39,0l1.22,1.58-31.27,24.21H2v20c0,6.07,4.93,11,11,11h24.33l29.67,22.01V8.79h2V82.78Z"/><rect class="e" x="36" y="24.79" width="2" height="33"/><rect class="e" x="26" y="25.79" width="2" height="32"/><path class="e" d="M68.39,53.71l-.77-1.85c4.49-1.87,7.39-6.22,7.39-11.08s-2.9-9.21-7.39-11.08l.77-1.85c5.23,2.18,8.61,7.26,8.61,12.92s-3.38,10.74-8.61,12.92Z"/><rect class="e" x="85" y="39.79" width="11" height="2"/><rect class="e" x="77.24" y="21.05" width="11" height="2" transform="translate(8.64 64.96) rotate(-45)"/><rect class="e" x="81.74" y="54.03" width="2" height="11" transform="translate(-17.86 75.94) rotate(-45)"/><polygon class="e" points="38.55 80.79 23.36 80.79 16.09 65.21 17.91 64.37 24.64 78.79 35.45 78.79 26.09 58.2 27.91 57.38 38.55 80.79"/></g></g></g></svg>