<svg xmlns="http://www.w3.org/2000/svg" width="2500" height="391" viewBox="0 0 600 93.75"><path d="M82.043 72.316a45.173 45.173 0 0 0 8.829 -26.88C90.87 20.395 70.48 0 45.44 0 20.377 0 0 20.395 0 45.44c0 25.06 20.377 45.44 45.44 45.44a45.114 45.114 0 0 0 26.435 -8.509L83.26 93.75l10.116-10.1-11.332-11.334M71.77 62.04L54.977 45.25l-10.1 10.117 16.698 16.697a31.03 31.03 0 0 1 -16.14 4.506c-17.18 0-31.14-13.963-31.14-31.14 0-17.16 13.959-31.14 31.14-31.14 17.16 0 31.14 13.976 31.14 31.14a31.018 31.018 0 0 1 -4.805 16.605M500.94 2.251v14.443h-27.02v72.24h-14.636V16.694h-27.02V2.251zM275.06 2.251h-17.569L224.08 88.93h15.334l6.258-16.887h41.2l6.257 16.887h15.336L275.06 2.251m-23.807 56.28l15.03-39.13 15.01 39.13h-30.05M600 16.694l-48.46 57.6H600v14.635h-67.54V73.53l48.63-56.839h-45.25V2.395H600zM195.75 2.251v54.837c0 18.59-15.1 33.711-33.69 33.711-18.593 0-33.713-15.12-33.713-33.711V2.251h14.62v54.837c-.321 10.706 8.384 19.412 19.09 19.412 10.688 0 19.393-8.706 19.18-19.412V2.251h14.508M384.73 59.57c9.94-4.952 16.75-15.16 16.75-26.92 0-15.889-13.1-30.08-29.412-30.403h-32.1V88.93h14.636V62.826h13.258l30.17 30.564 10.17-10.05-23.471-23.77m-13.727-11.05h-16.399V16.782h16.399c8.92 0 16.179 7.116 16.179 15.872 0 8.76-7.259 15.871-16.179 15.871" fill="#666"/></svg>