<svg enable-background="new 0 0 1024 247" height="247" viewBox="0 0 1024 247" width="1024" xmlns="http://www.w3.org/2000/svg" xmlns:xlink="http://www.w3.org/1999/xlink"><clipPath id="a"><path d="m283.14-220.78h1339.16v409.6h-1339.16z"/></clipPath><linearGradient id="b"><stop offset="0" stop-color="#f79210"/><stop offset=".5" stop-color="#f35c19"/><stop offset="1" stop-color="#f79210"/></linearGradient><linearGradient id="c" gradientTransform="matrix(-67.7687 -36.583 -36.583 67.7687 38524.31640000001 53625.7109)" gradientUnits="userSpaceOnUse" x1="762.9017" x2="763.9017" xlink:href="#b" y1="-379.8459" y2="-379.8459"/><linearGradient id="d" gradientTransform="matrix(-99.5 29.2226 29.2226 99.5 87523.1719 15621.6592)" gradientUnits="userSpaceOnUse" x1="760.4183" x2="761.4183" xlink:href="#b" y1="-380.8506" y2="-380.8506"/><linearGradient id="e" gradientTransform="matrix(-97.542 97.542 97.542 97.542 111872.8125 -37033.3516)" gradientUnits="userSpaceOnUse" x1="759.1396" x2="760.1396" xlink:href="#b" y1="-380.2825" y2="-380.2825"/><linearGradient id="f" gradientTransform="matrix(-72.0614 167.0623 167.0623 72.0614 118802.2656 -99496.9062)" gradientUnits="userSpaceOnUse" x1="758.6536" x2="759.6536" xlink:href="#b" y1="-379.5683" y2="-379.5683"/><linearGradient id="g" gradientTransform="matrix(0 233.0174 233.0174 0 88987.5938 -176867.5)" gradientUnits="userSpaceOnUse" x1="758.4603" x2="759.4603" xlink:href="#b" y1="-378.9217" y2="-378.9217"/><g clip-path="url(#a)" transform="matrix(1.25 0 0 -1.25 -735.35 72.15625)"><path d="m475.82-91.85c0-9.9.36-10.18 9.34-10.18h29.95c1.27 0 2.33-1.06 2.33-2.35v-7.56c0-1.66-.58-2.26-2.33-2.48-3.81-.6-11.51-1.65-25.56-1.65-19.67 0-30.06-.13-30.06 24.23v37.41c0 24.37 10.39 24.24 30.06 24.24 14.05 0 21.74-1.07 25.56-1.65 1.75-.24 2.33-.83 2.33-2.49v-7.55c0-1.3-1.07-2.38-2.33-2.38h-29.95c-8.98 0-9.34-.26-9.34-10.16v-10.83h37.84c1.32 0 2.35-1.08 2.35-2.36v-8.53c0-1.29-1.03-2.36-2.35-2.36h-37.84zm174.85-24.28c-10.45 0-21.04 1.79-26.72 3.1-1.16.24-2.24 1.06-2.24 2.36v8.51c0 1.3 1.08 2.25 2.24 2.25h.24c4.73-.59 15.81-2.13 26.74-2.13 10.51 0 13.72 3.76 13.72 10.62 0 8.87-21.16 13.78-31.5 18.03-10.27 4.26-13.93 12.4-13.93 20.68 0 13.01 10.48 22.47 32.45 22.47 11.27 0 21.6-2.14 25.61-3.12 1.19-.24 2.11-1.06 2.11-2.23v-8.75c0-1.17-.8-2.12-2-2.12h-.23c-7.8.7-15.9 2.13-26.17 2.13-8.77 0-15.33-3.06-15.33-8.38 0-3.89 4.45-7.48 9.7-9.55 5.25-2.06 12.14-4.75 20.01-7.92 9.94-4.03 16.41-9.9 16.41-21.23-.01-11.95-7.45-24.72-31.11-24.72m-62.86 59.19c0 8.87-6.87 12.65-18.72 12.65-2.47 0-13.22-.24-15.36-.46v-25.64c1.91-.12 13.38-.36 15.36-.36 12.19 0 18.72 2.35 18.72 12.75zm17.74-58.2h-14.45c-1.29 0-1.76 1.19-2.35 2.37l-17.04 28.66h-2.64c-3.06 0-12.61.34-15.36.48v-29.14c0-1.3-.93-2.37-2.23-2.37h-11.81c-1.31 0-2.37 1.07-2.37 2.37v77.48c0 2.38 1.4 3.2 3.77 3.56 6.15.94 19.39 1.53 27.99 1.53 18.23 0 35.03-6.51 35.03-26.73v-1.07c0-12.52-6.28-19.38-15.96-23.14l18.58-31.64c.24-.36.24-.69.24-.96.02-.8-.46-1.4-1.4-1.4m-160.56 70.28h-23.59v-67.92c0-1.3-1.09-2.37-2.4-2.37h-11.69c-1.31 0-2.37 1.07-2.37 2.37v67.92h-23.61c-1.28 0-2.35.8-2.35 2.11v9.34c0 1.31 1.07 2.25 2.35 2.25h63.66c1.28 0 2.35-.94 2.35-2.25v-9.34c0-1.31-1.07-2.11-2.35-2.11m-113.19-71.22c-19.01 0-35.41 8.27-35.41 33.48v49.19c0 1.31 1.08 2.25 2.38 2.25h11.68c1.32 0 2.37-.94 2.37-2.25v-49.19c0-13.49 6.23-19.88 18.98-19.88 12.79 0 19 6.39 19 19.88v49.19c0 1.31 1.07 2.25 2.36 2.25h11.7c1.32 0 2.38-.94 2.38-2.25v-49.19c.01-25.21-16.39-33.48-35.44-33.48m-94.7 24.23c0-9.9.38-10.18 9.32-10.18h29.93c1.31 0 2.37-1.06 2.37-2.35v-7.56c0-1.66-.6-2.26-2.37-2.48-3.78-.6-11.49-1.65-25.55-1.65-19.62 0-30.03-.13-30.03 24.23v37.41c0 24.37 10.41 24.24 30.03 24.24 14.06 0 21.76-1.07 25.55-1.65 1.78-.24 2.37-.83 2.37-2.49v-7.55c0-1.3-1.07-2.38-2.37-2.38h-29.93c-8.94 0-9.32-.26-9.32-10.16v-10.83h37.84c1.3 0 2.37-1.08 2.37-2.36v-8.53c0-1.29-1.07-2.36-2.37-2.36h-37.84zm-50.68 34.91c0 8.87-6.88 12.65-18.7 12.65-2.5 0-13.26-.24-15.37-.46v-25.64c1.87-.12 13.33-.36 15.37-.36 12.16 0 18.7 2.35 18.7 12.75zm17.74-58.2h-14.44c-1.29 0-1.77 1.19-2.35 2.37l-17.04 28.66h-2.6c-3.09 0-12.65.34-15.37.48v-29.14c0-1.3-.96-2.37-2.26-2.37h-11.82c-1.29 0-2.35 1.07-2.35 2.37v77.48c0 2.38 1.4 3.2 3.78 3.56 6.16.94 19.38 1.53 28.02 1.53 18.2 0 35.02-6.51 35.02-26.73v-1.07c0-12.52-6.27-19.38-15.96-23.14l18.55-31.64c.24-.36.24-.69.24-.96-.01-.8-.48-1.4-1.42-1.4" fill="#827f80" transform="translate(718.5082 33.5419)"/></g><path d="m685.43-8.38c-1.67-.9-2.26-2.99-1.39-4.64.89-1.69 3-2.29 4.67-1.41 1.66.91 2.27 2.99 1.38 4.67-.61 1.14-1.79 1.81-3.02 1.81-.56-.01-1.12-.15-1.64-.43m9.23-.15c-1.5-.79-2.02-2.64-1.23-4.13.78-1.48 2.63-2.04 4.11-1.22 1.51.81 2.04 2.65 1.25 4.13-.54 1.02-1.58 1.6-2.66 1.6-.5.01-1-.12-1.47-.38m-17.99-2.46c-1.88-1.02-2.6-3.38-1.57-5.26 1.02-1.89 3.37-2.62 5.29-1.59 1.89 1.02 2.58 3.38 1.57 5.26-.7 1.32-2.04 2.06-3.43 2.06-.63 0-1.27-.15-1.86-.47m26.85-.42c-1.3-.72-1.8-2.37-1.1-3.65.7-1.3 2.35-1.77 3.61-1.06 1.33.7 1.81 2.32 1.09 3.61-.48.9-1.41 1.41-2.36 1.41-.43-.01-.85-.1-1.24-.31m-33.8-5.45c-1.69-.93-2.32-2.97-1.4-4.68.9-1.65 2.96-2.28 4.63-1.38 1.7.9 2.32 3 1.42 4.65-.62 1.15-1.81 1.82-3.04 1.82-.55.01-1.1-.13-1.61-.41m41.42-.04c-1.14-.62-1.55-2-.96-3.11.6-1.11 1.98-1.51 3.13-.95 1.1.63 1.54 2.02.93 3.14-.42.76-1.21 1.21-2.02 1.21-.36-.01-.74-.1-1.08-.29m5.63-7.51c-.89-.52-1.26-1.7-.74-2.61.49-.93 1.65-1.26 2.56-.77.93.5 1.28 1.64.78 2.57-.36.66-1.02 1.02-1.7 1.02-.31 0-.61-.06-.9-.21m-52-.24c-1.49-.8-2.03-2.66-1.26-4.14.82-1.47 2.67-2.04 4.14-1.24 1.49.79 2.06 2.65 1.25 4.15-.56 1.01-1.62 1.59-2.7 1.59-.48 0-.97-.12-1.43-.36m54.86-7.97c-1.13-.59-1.55-2-.93-3.11.58-1.11 1.99-1.52 3.07-.95 1.13.65 1.56 2.05.97 3.14-.42.77-1.21 1.2-2.02 1.2-.38 0-.74-.1-1.09-.28m-57.29-1.05c-1.28-.69-1.75-2.31-1.07-3.6.72-1.32 2.33-1.79 3.63-1.09 1.29.71 1.78 2.35 1.08 3.62-.48.89-1.4 1.4-2.35 1.4-.43.01-.88-.09-1.29-.33m57.31-7.66c-1.31-.72-1.77-2.32-1.1-3.64.69-1.27 2.36-1.75 3.65-1.06 1.29.71 1.76 2.33 1.06 3.62-.48.9-1.39 1.4-2.34 1.4-.43 0-.86-.1-1.27-.32m-56.92-1.69c-1.1-.61-1.52-2.01-.91-3.12.6-1.13 2-1.52 3.09-.9 1.12.57 1.57 1.99.94 3.09-.43.76-1.21 1.2-2.03 1.2-.37 0-.75-.09-1.09-.27m54.15-6.63c-1.49-.78-2.04-2.68-1.25-4.16.82-1.47 2.66-2.03 4.12-1.23 1.52.82 2.05 2.65 1.27 4.15-.55 1.02-1.6 1.61-2.69 1.61-.49 0-.99-.12-1.45-.37m-50.95-2.24c-.94-.49-1.27-1.65-.77-2.61.5-.91 1.64-1.26 2.59-.77.92.52 1.27 1.68.76 2.61-.35.63-1.02 1-1.7 1-.3-.01-.6-.08-.88-.23m45.63-4.87c-1.68-.9-2.29-3-1.39-4.65.89-1.67 2.97-2.29 4.66-1.38 1.67.87 2.28 2.98 1.38 4.64-.63 1.15-1.81 1.81-3.03 1.81-.55 0-1.1-.14-1.62-.42m-40.33-1.99c-1.11-.58-1.53-1.99-.93-3.09.59-1.12 1.98-1.53 3.09-.91 1.1.57 1.52 1.96.93 3.08-.41.76-1.2 1.18-2.01 1.18-.36.01-.73-.08-1.08-.26m32.9-3.11c-1.88-1.01-2.61-3.37-1.56-5.27 1.02-1.88 3.39-2.58 5.29-1.58 1.88 1.04 2.59 3.41 1.57 5.26-.71 1.31-2.05 2.07-3.44 2.07-.63.01-1.27-.14-1.86-.48m-25.63-1.69c-1.33-.72-1.8-2.32-1.08-3.62.67-1.3 2.31-1.8 3.61-1.1 1.3.73 1.79 2.37 1.08 3.65-.49.88-1.42 1.39-2.36 1.39-.42.01-.85-.09-1.25-.32m17.32-1.71c-1.68-.89-2.26-2.97-1.35-4.66.87-1.66 2.95-2.31 4.63-1.38 1.68.88 2.28 2.98 1.39 4.64-.63 1.15-1.81 1.8-3.03 1.8-.56.01-1.12-.12-1.64-.4m-8.86-.53c-1.48-.8-2.01-2.67-1.23-4.14.82-1.49 2.66-2.05 4.15-1.25 1.5.78 2.05 2.65 1.24 4.15-.54 1.02-1.6 1.59-2.7 1.59-.49 0-1-.11-1.46-.35" fill="url(#c)" transform="matrix(1.25 0 0 -1.25 -735.35 72.15625)"/><path d="m686.94 1c-.68-2.31.63-4.72 2.95-5.42 2.31-.68 4.72.66 5.42 2.95.69 2.31-.63 4.75-2.94 5.43-.42.12-.84.18-1.25.18-1.89-.01-3.61-1.25-4.18-3.14m11.69-1.41c-.78-2.67.7-5.43 3.39-6.22 2.65-.79 5.43.72 6.21 3.37.8 2.68-.72 5.48-3.39 6.26-.47.14-.94.2-1.41.2-2.17-.01-4.16-1.43-4.8-3.61m-23.42-1.02c-.6-2.06.59-4.21 2.65-4.82 2.04-.6 4.21.56 4.81 2.63.58 2.04-.6 4.2-2.63 4.81-.36.11-.72.15-1.08.15-1.69.01-3.24-1.09-3.75-2.77m35.25-4.5c-.68-2.3.65-4.73 2.96-5.41 2.31-.68 4.74.66 5.42 2.97.69 2.3-.63 4.73-2.95 5.42-.41.12-.83.18-1.23.18-1.89 0-3.63-1.25-4.2-3.16m-45.33-1.69c-.48-1.63.44-3.31 2.07-3.8 1.62-.47 3.32.47 3.79 2.08.47 1.61-.46 3.31-2.07 3.79-.29.08-.58.12-.86.12-1.33.01-2.54-.86-2.93-2.19m54.8-6.94c-.61-2.08.58-4.22 2.62-4.82 2.06-.6 4.2.59 4.82 2.65.61 2.04-.56 4.19-2.63 4.79-.36.11-.73.16-1.09.16-1.66-.01-3.2-1.1-3.72-2.78m-62.78-2.23c-.39-1.3.37-2.68 1.68-3.05 1.31-.38 2.67.36 3.07 1.66.41 1.3-.37 2.67-1.67 3.07-.23.06-.45.09-.67.09-1.09.01-2.09-.67-2.41-1.77m69.52-8.89c-.49-1.65.47-3.34 2.07-3.8 1.63-.48 3.32.45 3.79 2.07.48 1.62-.44 3.32-2.06 3.78-.29.09-.59.13-.88.13-1.32 0-2.54-.87-2.92-2.18m-74.21-2.49c-.29-.99.25-2.03 1.23-2.32.99-.29 2.01.29 2.3 1.27.29.97-.27 2-1.26 2.29-.18.05-.35.07-.52.07-.79.01-1.52-.51-1.75-1.31m77.07-9.88c-.4-1.29.35-2.69 1.68-3.06 1.31-.39 2.67.36 3.07 1.68.38 1.29-.35 2.67-1.68 3.06-.23.06-.46.1-.69.1-1.08.01-2.08-.7-2.38-1.78m-79.29-2.24c-.39-1.31.38-2.67 1.69-3.06 1.31-.39 2.67.35 3.07 1.67.39 1.3-.36 2.68-1.67 3.07-.23.06-.46.1-.69.1-1.07 0-2.06-.71-2.4-1.78m78.28-10.23c-.27-.97.28-2.01 1.24-2.29 1-.29 2.01.26 2.29 1.26.3.96-.25 2-1.25 2.29-.17.05-.33.07-.5.07-.79 0-1.54-.53-1.78-1.33m-76.51-1.81c-.46-1.61.42-3.32 2.06-3.79 1.61-.49 3.31.46 3.78 2.08.48 1.62-.45 3.32-2.06 3.76-.3.09-.6.13-.9.13-1.31.01-2.51-.86-2.88-2.18m70.61-9.22c-.37-1.32.37-2.7 1.66-3.07 1.33-.39 2.71.36 3.09 1.67.37 1.29-.37 2.69-1.68 3.08-.23.06-.46.1-.69.1-1.06 0-2.05-.7-2.38-1.78m-65.48-1.43c-.61-2.05.56-4.2 2.62-4.82 2.08-.61 4.21.57 4.83 2.62.6 2.05-.6 4.23-2.65 4.84-.37.11-.73.16-1.09.16-1.67 0-3.2-1.1-3.71-2.8m56.39-7.41c-.46-1.61.48-3.31 2.09-3.79 1.61-.48 3.31.45 3.77 2.05.49 1.63-.43 3.33-2.05 3.8-.29.09-.59.13-.88.13-1.32 0-2.53-.88-2.93-2.19m-47.83-.99c-.67-2.29.62-4.71 2.95-5.4 2.33-.67 4.74.66 5.43 2.95.67 2.29-.65 4.74-2.97 5.42-.42.12-.83.18-1.23.18-1.9 0-3.62-1.24-4.18-3.15m10.58-5.1c-.77-2.68.72-5.45 3.4-6.24 2.65-.76 5.46.77 6.21 3.4.78 2.67-.72 5.46-3.4 6.24-.47.13-.94.2-1.41.2-2.17 0-4.17-1.42-4.8-3.6m25.57.37c-.6-2.06.59-4.22 2.63-4.82 2.07-.6 4.22.56 4.82 2.63.6 2.04-.56 4.2-2.63 4.8-.37.12-.74.17-1.1.17-1.68 0-3.23-1.1-3.72-2.78m-12.65-2.17c-.67-2.29.66-4.7 2.96-5.39 2.32-.7 4.75.63 5.41 2.93.66 2.32-.63 4.75-2.95 5.42-.42.12-.83.18-1.24.18-1.88 0-3.62-1.23-4.18-3.14" fill="url(#d)" transform="matrix(1.25 0 0 -1.25 -735.35 72.15625)"/><path d="m695.33 15.97c-1.88-2-1.79-5.15.22-7.03 2-1.89 5.15-1.8 7.02.2 1.89 2.01 1.78 5.14-.21 7.04-.96.9-2.18 1.34-3.4 1.34-1.32 0-2.65-.52-3.63-1.55m-15.75-1.22c-1.48-1.58-1.41-4.05.17-5.55 1.57-1.47 4.05-1.39 5.54.18 1.47 1.57 1.4 4.06-.17 5.54-.76.71-1.72 1.06-2.68 1.06-1.05-.01-2.09-.42-2.86-1.23m31.18-2.98c-2.12-2.24-2.03-5.77.22-7.9 2.24-2.12 5.81-2.01 7.91.22 2.11 2.25 2.02 5.8-.23 7.91-1.09 1.02-2.47 1.53-3.85 1.53-1.47.01-2.95-.59-4.05-1.76m-46.21-3.1c-1.2-1.27-1.14-3.26.13-4.48 1.28-1.19 3.29-1.14 4.49.14 1.2 1.27 1.14 3.28-.13 4.47-.62.57-1.4.86-2.18.86-.85 0-1.68-.33-2.31-.99m59.27-5.65c-2.45-2.58-2.35-6.63.25-9.08 2.58-2.46 6.66-2.32 9.09.24 2.44 2.61 2.32 6.68-.26 9.12-1.25 1.17-2.83 1.75-4.4 1.75-1.71 0-3.42-.68-4.68-2.03m-71.75-5.03c-.9-.96-.86-2.44.09-3.34.97-.91 2.46-.86 3.34.09.9.96.85 2.45-.09 3.35-.47.42-1.06.63-1.64.63-.62.01-1.24-.24-1.7-.73m82.47-8.62c-2.12-2.24-2.03-5.79.24-7.91 2.26-2.12 5.8-1.99 7.9.24 2.13 2.26 2.03 5.78-.24 7.92-1.07 1.01-2.44 1.51-3.81 1.51-1.5 0-2.99-.59-4.09-1.76m-92.38-4.47c-1.21-1.27-1.14-3.27.14-4.48 1.27-1.19 3.27-1.14 4.48.12 1.18 1.27 1.13 3.27-.14 4.47-.61.58-1.39.87-2.17.87-.84.01-1.68-.33-2.31-.98m98.39-11.52c-1.89-2-1.79-5.15.22-7.03 2-1.9 5.16-1.79 7.03.21 1.89 1.99 1.79 5.14-.21 7.02-.96.91-2.19 1.36-3.42 1.36-1.32.01-2.64-.52-3.62-1.56m-103.56-3.86c-1.46-1.58-1.42-4.04.17-5.52 1.57-1.49 4.05-1.4 5.54.16 1.48 1.57 1.39 4.07-.16 5.54-.77.72-1.74 1.07-2.7 1.07-1.04-.01-2.08-.42-2.85-1.25m104.82-13.39c-1.48-1.57-1.39-4.05.18-5.53 1.59-1.5 4.05-1.41 5.54.17 1.48 1.57 1.43 4.04-.17 5.53-.75.71-1.71 1.06-2.68 1.06-1.05-.01-2.1-.42-2.87-1.23m-105.1-2.4c-1.87-1.99-1.78-5.15.22-7.03 2-1.9 5.15-1.8 7.03.2 1.88 1.99 1.79 5.14-.21 7.05-.96.9-2.18 1.35-3.4 1.35-1.33 0-2.65-.53-3.64-1.57m101.03-13.99c-1.21-1.27-1.15-3.28.13-4.5 1.29-1.2 3.29-1.14 4.5.16 1.19 1.27 1.14 3.28-.13 4.48-.62.57-1.4.85-2.18.86-.85 0-1.69-.33-2.32-1m-95.9-1.16c-2.12-2.23-2.05-5.77.21-7.91 2.27-2.11 5.81-1.99 7.91.24 2.12 2.24 2.01 5.8-.23 7.9-1.08 1.02-2.45 1.53-3.81 1.53-1.48.01-2.98-.6-4.08-1.76m9.51-12.49c-2.43-2.62-2.31-6.64.28-9.1 2.58-2.44 6.66-2.33 9.08.27 2.44 2.59 2.32 6.64-.27 9.1-1.25 1.17-2.83 1.75-4.41 1.75-1.71.01-3.42-.67-4.68-2.02m77.65-.57c-.89-.95-.84-2.45.1-3.34.96-.88 2.45-.84 3.34.12.9.93.86 2.44-.1 3.32-.45.43-1.03.65-1.62.65h-.01c-.63 0-1.25-.25-1.71-.75m-63.39-9.35c-2.11-2.21-2.01-5.76.25-7.9 2.25-2.12 5.8-2.01 7.9.24 2.11 2.25 2.03 5.79-.23 7.91-1.08 1.02-2.46 1.52-3.83 1.52-1.5 0-2.98-.59-4.09-1.77m49.74-.21c-1.21-1.27-1.15-3.29.12-4.48 1.29-1.21 3.29-1.14 4.49.14 1.2 1.26 1.15 3.26-.13 4.47-.61.58-1.4.87-2.18.87-.84-.01-1.68-.34-2.3-1m-33.42-4.81c-1.88-1.99-1.79-5.16.22-7.02 2.02-1.9 5.15-1.81 7.02.19 1.89 1.99 1.81 5.15-.19 7.03-.96.91-2.18 1.36-3.41 1.36-1.34-.01-2.66-.53-3.64-1.56m17.3-.25c-1.47-1.56-1.4-4.04.17-5.53 1.58-1.49 4.06-1.39 5.54.17 1.48 1.56 1.42 4.05-.16 5.53-.76.71-1.73 1.06-2.68 1.06-1.05 0-2.1-.41-2.87-1.23" fill="url(#e)" transform="matrix(1.25 0 0 -1.25 -735.35 72.15625)"/><path d="m699.5 33.55c-2.34-.47-3.85-2.71-3.38-5.06.47-2.32 2.73-3.83 5.06-3.37 2.33.47 3.84 2.73 3.37 5.06-.41 2.05-2.2 3.46-4.21 3.46-.26-.01-.55-.04-.84-.09m-17.83-1.18c-1.83-.28-3.1-1.97-2.84-3.81.28-1.84 1.99-3.1 3.82-2.83 1.83.27 3.11 1.97 2.84 3.81-.24 1.67-1.68 2.87-3.33 2.87-.16 0-.32-.01-.49-.04m35.01-2.46c-2.78-.71-4.48-3.54-3.76-6.34.72-2.78 3.56-4.48 6.34-3.76 2.78.71 4.47 3.56 3.76 6.33-.61 2.37-2.72 3.92-5.05 3.92-.41.01-.85-.04-1.29-.15m-53.25-2.95c-1.59-.68-2.33-2.51-1.64-4.11.68-1.58 2.53-2.31 4.11-1.63 1.58.68 2.33 2.53 1.64 4.1-.51 1.19-1.66 1.89-2.87 1.89-.4.01-.83-.08-1.24-.25m68.48-4.76c-3.42-1.07-5.35-4.7-4.27-8.14 1.06-3.42 4.72-5.33 8.14-4.26 3.43 1.07 5.33 4.72 4.26 8.14-.87 2.78-3.42 4.56-6.18 4.56-.64 0-1.3-.1-1.95-.3m-84.94-4.79c-1.45-1.15-1.7-3.26-.55-4.72 1.16-1.46 3.28-1.7 4.72-.55 1.46 1.16 1.72 3.26.56 4.72-.67.84-1.64 1.27-2.63 1.27-.74 0-1.48-.24-2.1-.72m97.45-7.34c-3.72-1.38-5.62-5.48-4.24-9.21 1.38-3.72 5.5-5.61 9.2-4.24 3.71 1.37 5.61 5.5 4.24 9.21-1.08 2.9-3.81 4.68-6.71 4.68-.83.01-1.67-.14-2.49-.44m-110.53-4.82c-1.94-1.38-2.41-4.04-1.03-6 1.38-1.93 4.06-2.39 5.99-1.02 1.94 1.38 2.4 4.07 1.03 5.99-.84 1.19-2.17 1.82-3.51 1.82-.85 0-1.72-.25-2.48-.79m119.24-10.37c-3.96-1.71-5.79-6.27-4.08-10.24 1.7-3.95 6.29-5.78 10.24-4.08 3.95 1.71 5.78 6.3 4.07 10.25-1.27 2.95-4.14 4.71-7.15 4.71-1.03 0-2.08-.21-3.08-.64m-128.4-4.61c-2.42-1.54-3.16-4.75-1.61-7.19 1.53-2.43 4.76-3.16 7.18-1.63 2.44 1.54 3.16 4.77 1.62 7.21-.99 1.57-2.67 2.42-4.4 2.42-.95 0-1.92-.27-2.79-.81m133.27-13.62c-3.54-1.75-5-6.05-3.24-9.59 1.77-3.57 6.06-5 9.6-3.24 3.54 1.75 5 6.03 3.24 9.59-1.25 2.52-3.8 3.98-6.44 3.98-1.06 0-2.14-.24-3.16-.74m-138.11-2.77c-3.13-1.75-4.24-5.7-2.48-8.84 1.75-3.12 5.71-4.24 8.84-2.48 3.13 1.75 4.24 5.72 2.48 8.85-1.19 2.12-3.39 3.31-5.66 3.31-1.07 0-2.17-.26-3.18-.84m138.35-16.17c-3.12-1.75-4.24-5.72-2.48-8.85 1.76-3.14 5.72-4.23 8.84-2.47 3.13 1.76 4.25 5.7 2.48 8.84-1.19 2.12-3.39 3.32-5.66 3.32-1.07 0-2.17-.28-3.18-.84m-138.1-1.25c-3.53-1.74-5.01-6.03-3.24-9.59 1.76-3.55 6.07-4.99 9.61-3.24 3.54 1.75 5 6.05 3.24 9.59-1.26 2.54-3.77 3.99-6.4 3.99-1.09 0-2.19-.24-3.21-.75m5.08-16.75c-3.95-1.7-5.79-6.27-4.08-10.25 1.7-3.96 6.31-5.77 10.25-4.07 3.95 1.71 5.77 6.3 4.06 10.25-1.27 2.95-4.14 4.7-7.15 4.7-1.03.01-2.08-.19-3.08-.63m128.98-.89c-2.43-1.55-3.16-4.76-1.62-7.19 1.54-2.44 4.76-3.15 7.19-1.62 2.42 1.54 3.16 4.74 1.61 7.19-.99 1.57-2.69 2.42-4.41 2.42-.95.01-1.91-.25-2.77-.8m-119.09-15.17c-3.7-1.38-5.61-5.5-4.23-9.2 1.38-3.74 5.51-5.61 9.2-4.23 3.72 1.38 5.62 5.47 4.24 9.21-1.07 2.88-3.81 4.67-6.72 4.67-.83 0-1.67-.15-2.49-.45m110.53-1.61c-1.94-1.38-2.4-4.06-1.03-6 1.39-1.95 4.06-2.4 6.01-1.03 1.93 1.37 2.39 4.05 1.01 6.01-.84 1.18-2.17 1.81-3.52 1.81-.85 0-1.72-.25-2.47-.79m-96.92-11.57c-3.42-1.06-5.33-4.7-4.25-8.13 1.07-3.45 4.7-5.34 8.12-4.26 3.43 1.06 5.35 4.69 4.28 8.12-.87 2.78-3.44 4.57-6.21 4.57-.65 0-1.3-.1-1.94-.3m84.64-2.33c-1.45-1.16-1.7-3.27-.55-4.72 1.15-1.47 3.27-1.69 4.72-.55 1.46 1.16 1.71 3.26.55 4.73-.66.84-1.64 1.27-2.63 1.27-.73-.01-1.47-.24-2.09-.73m-68.12-7.69c-2.78-.71-4.46-3.54-3.75-6.33.71-2.81 3.54-4.47 6.33-3.76 2.79.72 4.48 3.53 3.77 6.33-.6 2.36-2.72 3.92-5.05 3.92-.43 0-.86-.04-1.3-.16m53.35-1.4c-1.58-.67-2.32-2.52-1.63-4.1.69-1.6 2.53-2.32 4.11-1.64 1.59.68 2.33 2.53 1.64 4.12-.51 1.18-1.67 1.89-2.88 1.89-.41-.01-.82-.09-1.24-.27m-35.28-3.89c-2.33-.47-3.84-2.74-3.37-5.06.47-2.34 2.74-3.85 5.07-3.38 2.32.48 3.84 2.73 3.37 5.08-.41 2.04-2.21 3.45-4.22 3.45-.28 0-.56-.03-.85-.09m18.54-.61c-1.83-.27-3.1-1.98-2.83-3.82.27-1.84 1.98-3.1 3.81-2.83 1.84.27 3.12 1.97 2.84 3.81-.24 1.68-1.69 2.88-3.34 2.88-.15 0-.32-.01-.48-.04" fill="url(#f)" transform="matrix(1.25 0 0 -1.25 -735.35 72.15625)"/><path d="m688.24 49.34c0-2.22 1.8-4.01 4-4.01 2.22 0 4.02 1.79 4.02 4.01 0 2.23-1.8 4-4.02 4-2.2 0-4-1.77-4-4m22.94-1.92c-.62-2.31.75-4.66 3.04-5.27 2.3-.62 4.67.74 5.28 3.04.62 2.3-.76 4.65-3.06 5.27-.37.1-.75.15-1.12.15-1.89-.01-3.62-1.27-4.14-3.19m-43.13 3.03c-2.29-.61-3.67-2.96-3.05-5.26.61-2.3 2.99-3.66 5.27-3.04 2.3.61 3.67 2.97 3.06 5.28-.52 1.92-2.25 3.18-4.15 3.18-.37-.01-.75-.05-1.13-.16m63.42-11.89c-.63-2.98 1.27-5.91 4.24-6.54 2.98-.63 5.9 1.27 6.54 4.23.64 3-1.27 5.91-4.24 6.53-.39.08-.78.12-1.17.12-2.54.01-4.82-1.75-5.37-4.34m-84.98 4.23c-2.97-.63-4.88-3.54-4.25-6.54.63-2.97 3.56-4.87 6.53-4.23 2.98.63 4.88 3.56 4.25 6.54-.55 2.59-2.83 4.35-5.37 4.35-.38 0-.77-.03-1.16-.12m102.25-18.53c-.58-3.64 1.91-7.07 5.55-7.65 3.62-.58 7.06 1.92 7.63 5.56.58 3.66-1.92 7.05-5.54 7.64-.36.05-.71.08-1.06.08-3.23 0-6.06-2.33-6.58-5.63m-120.61 5.55c-3.63-.58-6.12-3.97-5.54-7.63.57-3.64 3.99-6.13 7.63-5.56 3.65.58 6.14 4.01 5.56 7.65-.52 3.3-3.36 5.63-6.58 5.63-.36-.01-.71-.03-1.07-.09m133.09-24.2c-.48-4.57 2.85-8.67 7.41-9.15 4.58-.48 8.67 2.84 9.14 7.41.48 4.59-2.83 8.67-7.4 9.15-.3.03-.59.04-.88.04-4.19 0-7.82-3.16-8.27-7.45m-147.09 7.41c-4.58-.48-7.89-4.56-7.4-9.15.48-4.57 4.56-7.89 9.14-7.41 4.57.48 7.89 4.58 7.41 9.15-.45 4.29-4.06 7.45-8.26 7.45-.3 0-.6 0-.89-.04m155.15-29.3c-.26-5.06 3.62-9.38 8.67-9.65 5.07-.26 9.4 3.62 9.66 8.69.27 5.08-3.64 9.37-8.68 9.64-.17.01-.34.01-.5.01-4.85 0-8.89-3.77-9.15-8.69m-163.71 8.67c-5.03-.26-8.94-4.55-8.68-9.64.27-5.06 4.6-8.95 9.66-8.69 5.06.27 8.94 4.59 8.68 9.65-.26 4.92-4.3 8.69-9.16 8.69-.16.01-.34 0-.5-.01m165.9-32.24c0-5.52 4.46-10 9.97-10 5.52 0 9.99 4.48 9.99 9.99 0 5.55-4.47 9.98-9.97 9.98-5.53 0-9.99-4.43-9.99-9.97m-178.41-.01c0-5.51 4.49-9.99 10-9.99 5.5 0 9.96 4.48 9.96 10 0 5.54-4.46 9.96-9.96 9.96-5.51.01-10-4.42-10-9.97m184.88-13.93c-5.04-.26-8.93-4.58-8.67-9.64.26-5.09 4.58-8.94 9.65-8.68 5.04.26 8.94 4.54 8.68 9.64-.25 4.89-4.32 8.69-9.17 8.69-.17 0-.33 0-.49-.01m-181.04-8.68c-.26-5.1 3.64-9.38 8.68-9.64 5.07-.26 9.39 3.58 9.66 8.68.27 5.06-3.62 9.38-8.68 9.64-.16.01-.32.01-.48.01-4.86 0-8.93-3.8-9.18-8.69m171.73-13.72c-4.56-.48-7.89-4.58-7.41-9.15.48-4.59 4.59-7.88 9.15-7.4 4.57.48 7.89 4.55 7.4 9.14-.45 4.28-4.05 7.45-8.26 7.45-.29.01-.59 0-.88-.04m-161.9-7.4c-.48-4.59 2.83-8.66 7.4-9.14 4.57-.48 8.67 2.81 9.14 7.4.48 4.57-2.84 8.67-7.41 9.15-.3.04-.59.05-.88.05-4.2-.01-7.8-3.19-8.25-7.46m147.56-12.76c-3.64-.58-6.14-3.99-5.55-7.64.58-3.66 4-6.12 7.64-5.55 3.63.58 6.13 3.97 5.54 7.64-.52 3.29-3.37 5.63-6.59 5.63-.34.01-.69-.02-1.04-.08m-131.7-5.54c-.58-3.67 1.9-7.06 5.54-7.64 3.65-.58 7.06 1.88 7.65 5.55.58 3.64-1.91 7.05-5.56 7.63-.35.06-.71.08-1.05.08-3.23 0-6.06-2.34-6.58-5.62m113.12-9.85c-2.98-.63-4.88-3.56-4.24-6.54.63-2.99 3.56-4.88 6.54-4.25 2.97.63 4.88 3.55 4.24 6.55-.55 2.58-2.84 4.36-5.39 4.36-.37 0-.76-.04-1.15-.12m-93.46-4.24c-.64-3 1.27-5.91 4.24-6.55 2.97-.63 5.9 1.27 6.53 4.25.63 2.97-1.27 5.91-4.24 6.54-.38.08-.77.12-1.14.12-2.55 0-4.84-1.78-5.39-4.36m71.97-5.89c-2.29-.62-3.66-2.98-3.05-5.28.62-2.29 2.98-3.65 5.27-3.03 2.3.61 3.68 2.96 3.06 5.27-.51 1.92-2.26 3.19-4.17 3.19-.36 0-.73-.04-1.11-.15m-49.22-3.04c-.61-2.3.76-4.65 3.05-5.26 2.3-.62 4.66.74 5.28 3.04.61 2.29-.75 4.65-3.06 5.27-.37.1-.74.15-1.11.15-1.89-.01-3.64-1.27-4.16-3.2m23.24-4.16c0-2.22 1.8-4 4-4 2.22 0 4.02 1.78 4.02 4.01 0 2.21-1.8 4-4.02 4-2.2 0-4-1.79-4-4.01" fill="url(#g)" transform="matrix(1.25 0 0 -1.25 -735.35 72.15625)"/></svg>