<svg xmlns="http://www.w3.org/2000/svg" viewBox="0 0 170 56" enable-background="new 0 0 170 56"><g fill-rule="evenodd"><path d="m.116 37.35h2.455c2.104 10.405 5.729 15.666 9.704 15.666 2.689 0 4.676-2.338 4.676-6.079 0-4.793-2.923-8.535-7.366-14.03-2.923-3.858-5.612-6.664-7.132-9.587-1.635-3.157-2.453-6.547-2.453-9.938 0-7.599 4.092-13.328 9-13.328 2.806 0 4.793 2.338 6.079 2.338.935 0 1.754-.702 2.339-2.105h1.987v17.654h-2.455c-1.754-10.05-4.56-15.08-8.184-15.08-2.572 0-4.209 2.221-4.209 5.261 0 4.325 3.04 7.95 7.716 13.562 1.286 1.52 3.624 3.975 6.079 8.183 2.104 3.624 3.273 7.716 3.273 12.159 0 8.184-4.092 13.796-9.353 13.796-3.508 0-5.729-2.572-7.249-2.572-1.169 0-1.754.935-2.923 2.689h-1.986v-18.589"/><path d="m32.735 48.46v-41.04c0-2.923.585-3.975 2.572-3.975 5.261 0 6.196 7.716 6.196 23.03 0 17.07-.351 25.72-6.43 25.72-2.104 0-2.338-.935-2.338-3.742m-10.05 6.548h10.288c10.639 0 16.952-9.704 16.952-27.24 0-10.522-2.572-18.589-7.02-23.266-3.04-3.156-6.43-3.741-10.756-3.741h-9.47v2.572c1.988.234 2.572 1.286 2.572 3.741v41.621c0 2.572-.584 3.507-2.572 3.858v2.455"/><path d="m80.44 20.17h-1.87c-1.287-10.288-3.508-16.02-6.314-16.952v44.31c0 3.507.467 4.793 3.04 5.03v2.455h-13.562v-2.455c2.455-.234 3.04-1.52 3.04-5.03v-44.31c-2.806.935-5.03 6.664-6.43 16.952h-1.871l.351-19.407h23.382l.234 19.407"/><path d="m92.94 52.785v2.221h-11.11v-2.221c1.754-.468 2.338-1.403 2.338-3.975v-23.265c0-2.572-.468-3.624-2.338-3.858v-2.572c2.923-.117 5.962-.351 8.768-.584v30.28c0 2.455.468 3.507 2.338 3.974"/><path d="m106.39 52.785v2.221h-10.99v-2.221c1.871-.468 2.222-1.403 2.222-3.975v-23.265c0-2.572-.234-3.624-2.222-3.858v-2.572c2.806-.117 5.729-.351 8.535-.584l.117 5.261c1.988-3.624 3.741-5.378 6.197-5.378 2.689 0 4.326 1.871 5.03 5.612 2.104-3.741 3.975-5.612 6.547-5.612 4.209 0 5.378 3.858 5.378 11.925v18.471c0 2.689.351 3.741 2.221 3.975v2.221h-8.418v-25.486c0-3.975-.468-5.846-2.221-5.846-1.754 0-3.157 2.69-3.157 7.482v17.654c0 2.689.351 3.741 2.221 3.975v2.221h-8.417v-25.486c0-3.975-.468-5.846-2.104-5.846-1.988 0-3.156 2.806-3.156 8.184v16.952c-.001 2.456.35 3.508 2.22 3.975"/><path d="m137.23 34.898c0-.234 0-.468 0-.702 0-9 1.053-13.562 3.157-13.562 2.221 0 2.923 3.858 2.923 11.925 0 .818 0 1.52 0 2.339h-6.08m10.873 7.95c-.701 5.963-2.806 9.236-5.846 9.236-3.273 0-5.03-4.326-5.03-12.743 0-.467 0-.935 0-1.403h12.86c0-.117 0-.234 0-.351 0-12.509-3.741-19.407-9.704-19.407-5.846 0-10.405 7.366-10.405 19.407 0 11.11 4.56 18.355 10.639 18.355 5.378 0 8.885-4.793 9.47-13.09h-1.987"/><path d="m154.8 40.626c1.169 8.301 4.209 12.743 7.599 12.743 1.987 0 3.507-1.87 3.507-4.442 0-1.988-1.052-4.092-3.04-5.729-4.209-3.39-7.365-5.845-8.885-9.119-.935-1.754-1.286-3.741-1.286-5.963 0-5.612 3.157-9.937 7.01-9.937 2.338 0 3.974 1.754 5.144 1.754.585 0 1.286-.585 1.637-1.637h1.871v13.328h-1.987c-1.637-7.248-3.975-10.873-6.781-10.873-1.637 0-3.04 1.754-3.04 3.858 0 3.04 1.987 4.56 5.144 7.02 5.377 4.326 8.3 7.716 8.3 13.445 0 6.079-3.624 10.873-7.95 10.873-2.806 0-4.443-1.987-5.612-1.987-.584 0-1.169.701-2.104 1.987h-1.637v-15.316h2.105"/><g fill="#d53d4b"><path d="m90.61 7.658c0 2.572-1.753 4.56-3.858 4.56-2.104 0-3.858-1.987-3.858-4.56 0-2.455 1.754-4.56 3.858-4.56 2.105 0 3.858 2.104 3.858 4.56"/><path d="m95.75 11.516c-1.053 0-1.52-.818-1.637-1.988l1.169-.234c0 .935.234 1.169.468 1.169.234 0 .351-.234.351-.702 0-.701-.117-1.052-.818-1.754-.702-.701-1.169-1.403-1.169-2.222 0-1.052.584-1.871 1.52-1.871 1.052 0 1.403.701 1.637 1.754l-1.169.234c0-.702-.117-.935-.467-.935-.234 0-.351.234-.351.702 0 .468.234.818.701 1.403.935.818 1.286 1.637 1.286 2.572-.001 1.053-.585 1.872-1.521 1.872"/><path d="m100.08 7.774c0 2.221-.117 2.689-.584 2.689-.351 0-.468-.585-.468-2.806 0-2.104.117-2.572.468-2.572.35 0 .584.468.584 2.689m1.169-.116c0-2.455-.468-3.741-1.753-3.741-1.286 0-1.637 1.286-1.637 3.858 0 2.455.351 3.741 1.637 3.741 1.285 0 1.753-1.286 1.753-3.858"/><path d="m103.12 5.202v1.754h1.28v1.169h-1.28v3.273h-1.17v-7.368h2.8v1.172h-1.63"/><path d="m107.44 5.202v6.196h-1.17v-6.196h-.93v-1.172h3.15v1.172h-1.05"/><path d="m112.82 11.398h-.935l-.234-1.987c-.117-.701-.234-1.637-.351-2.338 0 .702-.117 1.637-.234 2.338l-.234 1.987h-1.052l-.818-7.365h1.052l.234 2.455c.117.585.117 1.403.234 2.104 0-.702.117-1.52.117-2.104l.234-2.455h.935l.234 2.455c.117.585.234 1.403.234 2.104 0-.702.117-1.52.117-2.104l.234-2.455h1.169l-.936 7.365"/><path d="m115.86 8.71h-.701l.233-1.286c0-.585.117-1.169.117-1.754 0 .585.117 1.169.234 1.754l.117 1.286m1.52 2.688l-1.169-7.365h-1.286l-1.169 7.365h1.169l.234-1.637h.818l.234 1.637h1.169"/><path d="m119.95 6.138c0 .818-.234 1.052-.585 1.052h-.234v-2.105h.234c.351 0 .585.234.585 1.053m1.169 5.26l-.701-3.507c.468-.351.701-.935.701-1.754 0-1.52-.818-2.104-1.637-2.104h-1.52v7.365h1.169v-3.273h.234l.585 3.273h1.169"/><path d="m121.94 11.398v-7.368h2.69v1.172h-1.52v1.754h1.17v1.169h-1.17v2.221h1.63v1.052h-2.8"/><path d="m129.42 7.658c0 2.221-.234 2.689-.702 2.689h-.234v-5.262h.234c.468 0 .702.468.702 2.573m1.169 0c0-2.221-.351-3.624-1.754-3.624h-1.52v7.365h1.403c1.286-.001 1.871-1.169 1.871-3.741"/><path d="m131.29 11.398v-7.368h2.69v1.172h-1.52v1.754h1.17v1.169h-1.17v2.221h1.64v1.052h-2.81"/><path d="m136.79 11.398h-1.169l-1.169-7.365h1.169l.467 3.624c0 .585.117 1.403.117 1.87 0-.467.117-1.286.117-1.87l.467-3.624h1.17l-1.169 7.365"/><path d="m138.54 11.398v-7.368h2.69v1.172h-1.52v1.754h1.17v1.169h-1.17v2.221h1.64v1.052h-2.81"/><path d="m142.05 11.398v-7.368h1.17v6.316h1.4v1.052h-2.57"/><path d="m147.31 7.774c0 2.221-.117 2.689-.468 2.689-.467 0-.585-.585-.585-2.806 0-2.104.117-2.572.585-2.572.351 0 .468.468.468 2.689m1.169-.116c0-2.455-.351-3.741-1.637-3.741-1.286 0-1.754 1.286-1.754 3.858 0 2.455.351 3.741 1.637 3.741 1.404 0 1.754-1.286 1.754-3.858"/><path d="m151.28 6.254c0 .702-.234 1.052-.585 1.052h-.233v-2.221h.233c.468 0 .585.234.585 1.169m1.169-.116c0-1.52-.701-2.104-1.637-2.104h-1.52v7.365h1.169v-3.04h.233c.937 0 1.755-.701 1.755-2.221"/><path d="m156.08 11.398v-1.987c0-.818 0-1.637.117-2.455-.117.585-.351 1.637-.585 2.455l-.467 2.221-.585-2.221c-.117-.701-.351-1.871-.467-2.455 0 .702 0 1.637 0 2.455v1.987h-1.053v-7.365h1.169l.467 2.221c.234.702.351 1.52.468 2.104 0-.585.234-1.403.35-2.104l.468-2.221h1.169v7.365h-1.051"/><path d="m158.06 11.398v-7.368h2.69v1.172h-1.52v1.754h1.17v1.169h-1.17v2.221h1.64v1.052h-2.81"/><path d="m163.91 11.398l-.702-2.221c-.234-.818-.467-1.754-.584-2.338 0 .585 0 1.52 0 2.221v2.338h-1.053v-7.365h1.053l.584 1.871c.117.585.468 1.52.585 2.104 0-.585 0-1.52 0-2.104v-1.871h1.051v7.365h-.934"/><path d="m167.65 5.202v6.196h-1.17v-6.196h-1.05v-1.172h3.16v1.172h-.94"/></g></g></svg>
