<svg id="Layer_1" data-name="Layer 1" xmlns="http://www.w3.org/2000/svg" viewBox="0 0 220.682 49"><path d="M0 0l18.61 49h3.427L3.427 0H0zm39.71 24.505q1.664.555 3.049 1.134a10.487 10.487 0 012.419 1.386 5.779 5.779 0 011.613 1.94 5.867 5.867 0 01.58 2.7v.05a7.457 7.457 0 01-2.545 6q-2.546 2.166-7.132 2.167a16.672 16.672 0 01-5.645-.991 19.4 19.4 0 01-5.191-2.821l-.051-.051.051-.051 3.427-5.41.051.05a10.266 10.266 0 003.427 2.445 10.139 10.139 0 004.082.831q2.973 0 2.974-1.911a1.45 1.45 0 00-.958-1.356 17.1 17.1 0 00-2.268-.856 1.988 1.988 0 00-.479-.125 1.768 1.768 0 01-.478-.126q-1.512-.4-3.024-.879a10.207 10.207 0 01-2.722-1.307 6.852 6.852 0 01-1.99-2.117 6.244 6.244 0 01-.781-3.293v-.1a7.759 7.759 0 01.655-3.218 7.241 7.241 0 011.865-2.514 8.513 8.513 0 012.923-1.633 11.746 11.746 0 013.78-.579 17.175 17.175 0 014.889.731 16.874 16.874 0 014.586 2.142v.1l-3.074 5.594-.05-.05a8.386 8.386 0 00-2.873-1.84 9.757 9.757 0 00-3.629-.68 7.281 7.281 0 00-.806.051 2.28 2.28 0 00-.832.251 1.94 1.94 0 00-.63.529 1.5 1.5 0 00-.252.933 1.124 1.124 0 00.4.832 4.642 4.642 0 001.033.705 13.941 13.941 0 001.412.631q.78.3 1.537.554a1.216 1.216 0 01.327.05c.118.034.227.068.328.1M49.89 14.274h6.7v25.2h-6.7zm0-10.08h6.7v5.9h-6.7zm20.361 14.414h7.409V24.2h-4.334zM77.66 4.193v5.9h-5.494A2.312 2.312 0 0070.15 11.1a4.764 4.764 0 00-.705 2.772v25.6h-6.7V24.2h-3.632v-5.592h3.629v-5.04a9.159 9.159 0 01.73-3.629 9.393 9.393 0 015.015-5.015 9.3 9.3 0 013.679-.731zM97.719 16.9v5.594H93.99L90.865 16.9zm-7.711 13.956a2.63 2.63 0 00.832 1.965 2.755 2.755 0 001.99.807h4.889v5.846H92.83a9.447 9.447 0 01-3.7-.731 9.334 9.334 0 01-3.03-2.016 9.773 9.773 0 01-2.041-3 9 9 0 01-.756-3.679v-7.56h-3.627V16.9h3.629V7.772h6.7zm21.571-16.986a12.472 12.472 0 015.04 1.034 13.184 13.184 0 016.93 6.929 12.612 12.612 0 011.033 5.091 13 13 0 01-.3 2.822l-.051.1h-12.8l-3.231-5.14h9.576a7.514 7.514 0 00-2.344-3.478 5.846 5.846 0 00-3.855-1.36 6.106 6.106 0 00-2.571.553 6.665 6.665 0 00-2.091 1.481 6.749 6.749 0 00-1.386 2.21 7.538 7.538 0 00-.5 2.787 6.862 6.862 0 00.454 2.385 7.291 7.291 0 001.31 2.235 7.53 7.53 0 002.066 1.682 5.473 5.473 0 002.722.678 7.853 7.853 0 002.5-.378 4.655 4.655 0 002.142-1.689l.05-.05.1.05 5.846 2.575-.1.1a12.584 12.584 0 01-4.611 3.964 12.883 12.883 0 01-5.922 1.424 13.047 13.047 0 01-5.116-1.009 12.85 12.85 0 01-4.158-2.772 13.278 13.278 0 01-2.8-4.132 12.464 12.464 0 01-1.033-5.04 12.6 12.6 0 011.033-5.091 13.116 13.116 0 016.955-6.929 12.768 12.768 0 015.116-1.034m42.634-9.675v35.28h-6.754l.051-12.65a6.325 6.325 0 00-.58-2.671 7.509 7.509 0 00-1.512-2.192 6.725 6.725 0 00-2.217-1.463 7.161 7.161 0 00-2.747-.529 6.971 6.971 0 00-2.722.529 6.6 6.6 0 00-2.192 1.487 7.44 7.44 0 00-1.487 2.218 6.962 6.962 0 000 5.443 7.028 7.028 0 003.679 3.679 6.659 6.659 0 002.722.555 9.857 9.857 0 001.411-.1 4.237 4.237 0 001.31-.4h.1l2.47 4.536-.051.05a9.563 9.563 0 01-6.048 1.916 12.949 12.949 0 01-9.223-3.781 13.278 13.278 0 01-2.8-4.132 12.812 12.812 0 010-10.08 13.294 13.294 0 012.8-4.133 12.943 12.943 0 019.223-3.78 9.052 9.052 0 017.863 3.83V4.193zM179.609 0L161 49h3.427l18.61-49h-3.428z" fill="#df005a"/><path d="M193.2 1.851a.805.805 0 00-.724.3 1.708 1.708 0 00-.2.929v.02a1.769 1.769 0 00.2.927.794.794 0 00.736.32.735.735 0 00.657-.323 1.681 1.681 0 00.217-.936q0-1.24-.886-1.241m-.923-1.76v1.135c0 .139 0 .268-.009.388s-.014.215-.021.284h.03a1.151 1.151 0 01.385-.348 1.39 1.39 0 011.611.284 1.887 1.887 0 01.37 1.268 1.89 1.89 0 01-.373 1.272 1.381 1.381 0 01-1.608.287 1.2 1.2 0 01-.385-.336h-.043l-.11.416h-.385V.091zm5.105 3.048l-.483.018a1.632 1.632 0 00-.846.2.562.562 0 00-.236.483.473.473 0 00.168.4.688.688 0 00.431.129 1.042 1.042 0 00.688-.23.861.861 0 00.278-.705zm-.642-1.73a1.278 1.278 0 01.886.263 1.084 1.084 0 01.288.837v2.232h-.391l-.1-.465h-.025a1.5 1.5 0 01-.452.4 1.383 1.383 0 01-.648.128 1.145 1.145 0 01-.74-.236.887.887 0 01-.293-.736.863.863 0 01.385-.755 2.226 2.226 0 011.186-.29l.556-.019v-.2a.742.742 0 00-.181-.564.732.732 0 00-.5-.159 1.549 1.549 0 00-.488.077 3.5 3.5 0 00-.434.174l-.166-.4a2.493 2.493 0 01.508-.2 2.242 2.242 0 01.611-.083m3.501 3.391a1.642 1.642 0 01-.776-.177 1.24 1.24 0 01-.529-.551 2.058 2.058 0 01-.193-.953 2.112 2.112 0 01.2-.984 1.26 1.26 0 01.547-.557 1.716 1.716 0 01.789-.177 2.246 2.246 0 01.479.052 1.725 1.725 0 01.382.125l-.165.447a3.162 3.162 0 00-.342-.1 1.5 1.5 0 00-.367-.049q-.966 0-.965 1.241a1.5 1.5 0 00.235.908.818.818 0 00.7.315 1.866 1.866 0 00.47-.055 2.3 2.3 0 00.379-.135v.477a1.516 1.516 0 01-.363.131 2.146 2.146 0 01-.48.046m2.15-4.713v2.427c0 .065 0 .151-.009.257s-.011.2-.015.274h.024l.11-.14.15-.187c.051-.063.095-.114.131-.156l1.046-1.106h.629l-1.326 1.4 1.418 1.877h-.652l-1.137-1.529-.373.324v1.205h-.532V.091zm3.992 1.748a.776.776 0 00-.608.248 1.161 1.161 0 00-.266.688h1.669a1.159 1.159 0 00-.2-.676.692.692 0 00-.6-.26m.006-.44a1.366 1.366 0 01.721.184 1.2 1.2 0 01.468.516 1.763 1.763 0 01.162.779V3.2H205.5a1.234 1.234 0 00.284.847.99.99 0 00.761.29 2.359 2.359 0 00.553-.058 2.982 2.982 0 00.5-.168v.471a2.6 2.6 0 01-.5.162 2.877 2.877 0 01-.581.052 1.718 1.718 0 01-.825-.19 1.327 1.327 0 01-.553-.562 1.939 1.939 0 01-.2-.923 2.146 2.146 0 01.181-.923 1.364 1.364 0 01.507-.593 1.394 1.394 0 01.761-.208m3.434 2.955a.852.852 0 00.73-.284 1.444 1.444 0 00.211-.859v-.1a1.791 1.791 0 00-.2-.938.8.8 0 00-.746-.327.717.717 0 00-.651.345 1.731 1.731 0 00-.217.926 1.631 1.631 0 00.217.911.738.738 0 00.658.324m-.086.446a1.226 1.226 0 01-.978-.424 1.9 1.9 0 01-.367-1.269 1.909 1.909 0 01.37-1.275 1.368 1.368 0 011.6-.29 1.327 1.327 0 01.394.342h.037c-.009-.053-.017-.131-.025-.235s-.012-.187-.012-.248V.091h.538v4.646h-.434l-.08-.44h-.024a1.258 1.258 0 01-.392.354 1.2 1.2 0 01-.629.147m5.648-2.947a.805.805 0 00-.724.3 1.708 1.708 0 00-.2.929v.02a1.769 1.769 0 00.2.927.794.794 0 00.736.32.735.735 0 00.657-.323 1.68 1.68 0 00.218-.936q0-1.24-.887-1.241m-.923-1.76v1.135c0 .139 0 .268-.009.388s-.014.215-.021.284h.03a1.151 1.151 0 01.385-.348 1.39 1.39 0 011.611.284 1.887 1.887 0 01.37 1.268 1.89 1.89 0 01-.373 1.272 1.237 1.237 0 01-.978.428 1.25 1.25 0 01-.63-.141 1.2 1.2 0 01-.385-.336h-.043l-.11.416h-.385V.091zm2.586 1.373h.575l.709 1.865q.092.25.165.47a3.179 3.179 0 01.11.422h.024c.025-.1.064-.235.117-.4s.107-.331.164-.5l.667-1.859h.58l-1.411 3.729a2.126 2.126 0 01-.447.74 1 1 0 01-.746.275 1.918 1.918 0 01-.256-.015 2.636 2.636 0 01-.19-.034v-.426c.045.008.1.016.162.025a1.809 1.809 0 00.2.011.642.642 0 00.452-.158 1.133 1.133 0 00.275-.422l.172-.434zm-25.906 6.401h29.485V37.35h-29.485z"/><path d="M198.757 12.615v5.49h1.616c1.749 0 1.838-.288 1.971-1.66h.509v4.007h-.509c-.133-1.373-.222-1.639-1.971-1.639h-1.616v4.76c0 .974.266 1.2 2.059 1.2v.6h-6.309v-.6c1.306 0 1.771-.067 1.771-1.129v-9.967c0-1.062-.465-1.129-1.771-1.129v-.6h8.39a9.653 9.653 0 001.882-.111v4.14h-.554c-.287-2.878-.863-3.365-3.431-3.365zm17.481-.664a9.653 9.653 0 001.882-.111v4.14h-.554c-.287-2.878-.863-3.365-3.431-3.365h-.708v10.958c0 1.041.4 1.2 2.058 1.2v.6h-6.619v-.6c1.66 0 2.081-.155 2.081-1.2V12.615h-.708c-2.568 0-3.144.487-3.432 3.365h-.553v-4.14a9.645 9.645 0 001.882.111z" fill="#fff"/><path d="M192.259 42.616c0 .27.074.332.571.332v.165h-1.712v-.165c.337 0 .454-.031.454-.326v-2.736c0-.3-.117-.326-.454-.326v-.16h2.35a2.7 2.7 0 00.522-.031l.018 1.049h-.141c-.08-.767-.27-.834-.982-.834h-.626V41.1h.51c.484 0 .515-.08.552-.461h.135v1.111h-.135c-.037-.38-.068-.454-.552-.454h-.51zm2.093.497v-.165c.337 0 .454-.031.454-.326v-2.736c0-.3-.117-.326-.454-.326v-.16h1.595v.165c-.337 0-.454.031-.454.326v2.736c0 .3.117.326.454.326v.165zm5.216.062l-2.541-3.154V42.6c0 .3.209.344.558.344v.165h-1.35v-.165c.35 0 .547-.043.547-.344v-2.862a.623.623 0 00-.547-.178v-.16h1.2l1.951 2.509v-2c0-.3-.208-.344-.558-.344V39.4h1.35v.165c-.35 0-.546.043-.546.344v3.271zm1.822-.062h-1.344v-.165c.356 0 .515-.049.626-.35l1.215-3.234h.337l1.307 3.258c.117.289.172.326.436.326v.165h-1.559v-.165c.479 0 .522-.037.406-.326l-.387-.988h-1.166l-.344.958c-.11.294.062.356.473.356zm-.055-1.681h1.012l-.528-1.332zm6.13 1.743l-2.541-3.154V42.6c0 .3.209.344.559.344v.165h-1.32v-.165c.326 0 .516-.043.516-.344v-2.86a.754.754 0 00-.626-.184V39.4h1.276l1.952 2.509v-2c0-.3-.209-.344-.559-.344V39.4h1.35v.165c-.35 0-.546.043-.546.344v3.271zm3.767-3.786h.092l.056 1.11-.141.006a.978.978 0 00-1.05-.969c-.687 0-1.215.589-1.215 1.5a1.622 1.622 0 001.5 1.816 1.164 1.164 0 00.921-.4l.1.11a1.609 1.609 0 01-1.337.62 1.866 1.866 0 01-1.891-1.89 1.9 1.9 0 011.915-1.952 3.094 3.094 0 01.9.215c.071-.007.118-.062.15-.166zm.568 3.724v-.165c.337 0 .454-.031.454-.326v-2.736c0-.3-.117-.326-.454-.326v-.16h1.6v.165c-.337 0-.454.031-.454.326v2.736c0 .3.117.326.454.326v.165zm3.108 0h-1.252v-.165a.461.461 0 00.534-.35l1.215-3.234h.337l1.308 3.258c.116.289.171.326.435.326v.165h-1.558v-.165c.478 0 .521-.037.4-.326l-.386-.988h-1.166l-.344.958c-.11.294.062.356.473.356zm-.055-1.681h1.012l-.528-1.332zm2.89 1.681v-.165c.337 0 .454-.031.454-.326v-2.736c0-.3-.117-.326-.454-.326v-.16h1.589v.165c-.338 0-.448.031-.448.326v2.761c0 .245.123.276.325.276h.191c.717 0 .951-.1 1.147-.926l.135.018-.117 1.1zm-23.252 2.014l.018 1.111h-.141c-.08-.8-.27-.9-.982-.9h-.227v3.037c0 .289.111.332.571.332v.165h-1.83v-.165c.46 0 .577-.043.577-.332v-3.033h-.227c-.712 0-.9.1-.982.9h-.141l.018-1.111a2.612 2.612 0 00.522.031h2.307a2.612 2.612 0 00.517-.035zm.362 3.749v-.165c.337 0 .454-.031.454-.325v-2.737c0-.3-.117-.326-.454-.326v-.165h1.595v.165c-.337 0-.454.031-.454.326v2.737c0 .294.117.325.454.325v.165zm6.394-3.718v.165c-.338 0-.485.019-.454.313l.288 2.762c.031.282.141.313.473.313v.165h-1.59v-.165c.332 0 .448-.031.424-.313l-.3-2.9-1.172 3.443h-.049l-1.136-3.441-.283 2.9c-.03.294.172.319.51.319v.165h-1.24v-.165c.338 0 .454-.055.479-.319l.282-2.756c.031-.294-.117-.313-.454-.313v-.165h1.307l.785 2.54.847-2.54zm2.97 2.356h-.135c-.037-.38-.068-.454-.553-.454h-.564v1.35c0 .246.123.276.325.276h.307c.718 0 .951-.1 1.147-.926l.135.018-.128 1.1h-2.927v-.165c.337 0 .454-.031.454-.325v-2.739c0-.3-.117-.326-.454-.326v-.165h2.81l.012.926h-.141c-.086-.656-.252-.736-.988-.736h-.552v1.516h.564c.485 0 .516-.08.553-.461h.135zm2.957.595c0-.337-.215-.509-.583-.711l-.591-.307c-.442-.24-.705-.5-.705-.964a1.075 1.075 0 011.147-1.031 2.6 2.6 0 01.8.215c.086 0 .123-.055.159-.159h.1l.055 1.043-.135.006a.975.975 0 00-.945-.9.571.571 0 00-.638.552c0 .356.27.5.564.663l.51.27c.478.258.816.522.816 1.019a1.185 1.185 0 01-1.277 1.129 2.674 2.674 0 01-.877-.239c-.086 0-.129.073-.166.19h-.1l-.074-1.111.135-.018a1.049 1.049 0 001.062.975c.406.004.743-.174.743-.622z"/></svg>