<svg xmlns="http://www.w3.org/2000/svg" viewBox="0 0 2426 1178" enable-background="new 0 0 2426 1178"><path d="m659.9 205.4l-14.2 74.8c0 0 85.2 56.8 131.6 159 54.9 123.1 64.4 243.3 64.4 243.3l21.8-61.5c0 0-5.7-101.3-53-216.8-61.6-149.6-150.6-198.8-150.6-198.8" fill="#272727"/><path d="m637.2 325.7l-12.3 64.3c0 0 77.6 45.4 130.6 160.9 45.4 102.2 56.8 213 56.8 213l19.9-53c0 0-11.4-107.9-58.7-213-59.7-132.5-136.4-172.2-136.3-172.2" fill="#56749f"/><path d="m763.1 262.2c0 0 36.9-109.8 126.9-107.9 89.9 1.9 125.9 78.6 210.2 71 121.2-11.4 204.5-167.6 204.5-167.6l-12.4-57.7c0 0-74.8 137.3-193.1 142-79.5 2.8-107-61.5-190.3-67.2-113.6-7.6-155.2 121.2-155.2 121.2l9.4 66.2m109.8 278.4c0 0 48.3-96.6 135.4-95.6 79.5.9 121.2 78.6 205.4 72 98.5-7.6 159-146.7 159-146.7l-11.4-51.1c0 0-52 118.3-151.5 122.1-78.6 2.8-103.2-62.5-186.5-68.2-95.6-7.6-146.7 91.8-146.7 91.8l-3.7 75.7" fill="#272727"/><g fill="#56749f"><path d="m249 822.7l-1.9 58.7c-2.8-.9-51.1-1.9-82.4-1.9-4.7 62.5-7.6 157.2-8.5 207.3h-85.2c6.6-63.4 11.4-127.8 11.4-207.3-26.5 0-54 .9-82.4 1.9l2.8-58.7h246.2"/><path d="m268.9 960.9c1.9-17 14.2-35 36-35 19.9 0 29.4 11.3 29.4 35h-65.4m136.3 36.9c2.8-10.4 2.8-19.9 2.8-30.3 0-55.9-36-87.1-102.2-87.1-107 0-115.5 90.9-115.5 111.7 0 79.5 55.9 99.4 120.2 99.4 23.7 0 47.3-2.8 70-7.6l9.5-56.8c-22.7 6.6-46.4 13.2-70 13.2-27.5 0-53-11.3-53-42.6l138.2.1m189.3-50.1c-17-5.7-34.1-9.5-52.1-9.5-30.3 0-50.2 18-50.2 49.2 0 30.3 16.1 46.4 46.4 46.4 17 0 34.1-3.8 50.2-9.5l-10.4 59.6c-19.9 4.7-39.8 7.6-59.6 7.6-66.3 0-103.2-36-103.2-102.2 0-21.8 4.7-108.9 107-108.9 25.6 0 47.3 1.9 68.2 7.6l3.7 59.7m102.2-130.6c-1.9 15.1-5.7 67.2-7.6 95.6l.9.9c18-26.5 38.8-33.1 77.6-33.1 39.8 0 73.8 15.1 73.8 64.4 0 10.4-5.7 90.9-5.7 142h-79.5c2.8-35 5.7-71 5.7-106 0-18.9-5.7-37.8-29.4-37.8-19.9 0-34.1 14.2-39.8 33.1-6.6 21.8-8.5 67.2-10.4 110.7h-79.3c5.7-51.1 13.3-172.3 13.3-269.8h80.4"/></g><g fill="#272727"><path d="m948.7 873.8c-3.8 71-5.7 142-6.6 213h-84.3c9.5-84.3 13.3-161.9 13.3-269.8h142.9c18.9 0 96.6 1.9 96.6 71.9 0 42.6-24.6 65.4-63.4 78.6 16.1 40.7 36 78.6 53 119.3h-89.9c-14.3-51.1-33.3-101.3-52.3-151.5 6.6 1.9 13.3 1.9 19.9 1.9 23.7 0 51.1-8.5 51.1-36s-26.5-27.5-45.4-27.5l-34.9.1"/><path d="m1174.9 960.9c1.9-17 14.2-35 36-35 18.9 0 28.4 11.3 28.4 35h-64.4m136.4 36.9c1.9-10.4 2.8-19.9 2.8-30.3 0-55.9-36-87.1-102.3-87.1-107.9 0-116.5 90.9-116.5 111.7 0 79.5 55.9 99.4 120.2 99.4 23.7 0 47.3-2.8 70.1-7.6l10.4-56.8c-22.7 6.6-47.3 13.2-71 13.2-26.5 0-53-11.3-53-42.6l139.3.1m90.9-58.6c10.4-1.9 19.9-3.8 29.3-3.8 30.3 0 45.4 18 45.4 47.3 0 23.7-11.3 54-39.8 54-27.4 0-38.8-26.5-38.8-50.2.1-16.1 2-31.3 3.9-47.3m-10.4 239.5c0-36.9 1.9-74.8 3.8-112.7 19.9 17 44.5 25.6 71 25.6 58.7 0 87.1-54 87.1-106 0-54.9-27.5-105.1-109.8-105.1-45.4 0-81.4 3.8-117.4 10.4 0 95.6-5.7 192.2-14.2 287.8h79.5m319-118.4h-.9c-17 23.7-41.6 31.2-71 31.2-55.9 0-71.9-27.5-71.9-61.5 0-13.2 7.6-105.1 7.6-144.8h78.6c-1.9 36-7.6 71.9-7.6 107 0 19.9 6.6 36 29.3 36 19.9 0 31.2-16.1 36-34.1 4.7-22.7 5.7-69.1 6.6-108.9h78.6c-6.6 67.2-9.5 134.4-11.3 201.6h-73.9l-.1-26.5m179-121.2c9.5-1.9 18.9-3.8 29.4-3.8 29.3 0 44.5 18 44.5 47.3 0 23.7-11.3 54-39.8 54-27.4 0-38.8-26.5-38.8-50.2-.1-16 1.8-31.2 4.7-47.3m-10.4 122.2h.9c16.1 20.8 36.9 30.3 63.4 30.3 64.4 0 96.6-54.9 96.6-113.6 0-63.4-36.9-97.5-99.4-97.5-7.6 0-16.1 0-23.7.9-8.5 1-16.1 1.9-23.7 3.8 1.9-28.4 2.9-48.3 5.7-68.2h-80.5c-.9 89.9-6.6 179.9-13.2 269.8h73.8v-25.5m262.3-244.3c-4.7 45.4-13.2 198.8-15.1 269.8h-80.5c8.5-89.9 12.3-179.9 15.1-269.8h80.5m4.7 269.8c6.6-61.5 9.5-121.2 10.4-201.6h81.4c-7.6 67.2-7.6 134.4-7.6 201.6h-84.2m12.4-227.2l.9-47.3h78.6l-1.9 47.3h-77.6m267.9 88c-17-5.7-34.1-9.5-51.1-9.5-31.3 0-51.1 18-51.1 49.2 0 30.3 16.1 46.4 46.4 46.4 17 0 34.1-3.8 50.2-9.5l-10.4 59.6c-19.5 4.9-39.5 7.4-59.6 7.6-66.3 0-103.2-36-103.2-102.2 0-21.8 4.7-108.9 107-108.9 26.5 0 47.3 1.9 68.2 7.6l3.6 59.7"/></g></svg>