<?xml version="1.0" encoding="UTF-8"?>
<svg width="2428px" height="390px" viewBox="0 0 2428 390" version="1.1" xmlns="http://www.w3.org/2000/svg" xmlns:xlink="http://www.w3.org/1999/xlink">
    <!-- Generator: Sketch 52.2 (67145) - http://www.bohemiancoding.com/sketch -->
    <title>techtarget-logo</title>
    <desc>Created with Sketch.</desc>
    <g id="Page-1" stroke="none" stroke-width="1" fill="none" fill-rule="evenodd">
        <g id="techtarget-logo" fill-rule="nonzero">
            <path d="M106.34317,284.738654 C92.3617631,292.766939 77.965324,297.150719 64.7491336,297.150719 C39.9379734,297.150719 28.3689431,284.362531 28.3689431,256.775841 L28.3689431,141.189296 L0.756313682,141.189296 L0.756313682,110.762228 L28.3689431,105.976385 L28.3689431,50.3750026 L73.5426342,50.3750026 L73.5426342,105.976385 L113.943452,105.976385 L113.943452,141.189296 L73.555604,141.189296 L73.555604,223.975306 C73.555604,244.752869 75.5659175,250.77084 83.15323,250.77084 C88.7561684,250.77084 95.5523252,247.930461 108.755546,239.1629 L123.95611,273.94781 C117.562016,277.955467 111.544045,281.548092 106.34317,284.738654 Z M255.547345,176.376268 L182.748055,176.376268 C186.755712,151.176015 201.139181,136.753637 222.344747,136.753637 C244.730561,136.753637 254.341157,147.972483 255.547345,176.376268 Z M303.535475,273.94781 L285.948474,237.567619 C268.763535,248.358464 261.539376,251.951088 250.359439,255.16759 C243.235455,257.355804 235.814637,258.423422 228.362718,258.332213 C210.775716,258.332213 194.758057,249.512773 186.755712,235.933429 C182.358962,228.359086 181.152773,221.926083 180.361618,206.349395 L303.548445,206.349395 L303.548445,185.934985 C303.548445,135.521509 271.539065,100.775509 225.561248,100.775509 C172.359273,100.775509 132.360518,145.158044 132.360518,203.949989 C132.360518,260.744589 167.171367,297.150719 222.344747,297.150719 C243.965345,297.150719 263.951752,292.766939 283.549067,283.947498 C287.945818,281.976094 294.741974,278.759592 303.535475,273.94781 Z M477.122808,286.359875 C459.872885,293.499919 441.383865,297.166871 422.714644,297.150719 C365.115919,297.150719 327.918633,259.149308 327.918633,200.733487 C327.918633,140.748324 367.515325,100.321567 426.709332,100.321567 C437.098114,100.321567 447.097802,101.566665 457.097491,103.538069 C470.702774,106.754571 477.109838,109.56901 492.712466,118.764573 L469.911619,155.170703 C455.930212,144.379858 446.721679,140.761294 432.31227,140.761294 C400.717923,140.761294 378.306169,165.559485 378.306169,200.370333 C378.306169,233.585901 398.318517,256.347839 427.111395,256.347839 C443.129054,256.347839 454.724024,252.366121 475.125464,240.369088 L492.712466,279.148685 C487.536798,281.597311 482.340051,284.001131 477.122808,286.359875 Z M631.125796,291.962813 L631.125796,172.342672 C631.125796,149.139762 627.092199,140.748324 615.49723,140.748324 C605.52348,140.748324 591.516134,150.735043 570.712632,173.146797 L564.305568,179.955924 L564.305568,291.949843 L516.304468,291.949843 L516.304468,0.389528731 L564.305568,0.389528731 L564.305568,136.753637 C586.704352,112.357509 605.108448,102.38376 628.687481,102.38376 C662.292141,102.38376 679.087987,119.957791 679.087987,155.170703 L679.087987,291.962813 L631.125796,291.962813 Z" id="Shape" fill="#40AC9B"></path>
            <path d="M805.348648,284.738654 C791.341302,292.766939 776.970802,297.150719 763.754612,297.150719 C738.943452,297.150719 727.348482,284.362531 727.348482,256.775841 L727.348482,141.189296 L699.774762,141.189296 L699.774762,110.762228 L727.361452,105.976385 L727.361452,50.3750026 L772.548113,50.3750026 L772.548113,105.976385 L812.9619,105.976385 L812.9619,141.189296 L772.548113,141.189296 L772.548113,223.975306 C772.548113,244.752869 774.545456,250.77084 782.158708,250.77084 C787.761647,250.77084 794.557804,247.930461 807.748055,239.1629 L822.948619,273.94781 C816.554525,277.955467 810.549524,281.548092 805.348648,284.738654 Z M936.939883,245.556994 C930.156696,250.77084 927.731349,252.366121 924.527818,253.961402 C918.133723,257.554027 910.922534,259.56434 904.943473,259.56434 C892.93347,259.56434 885.735251,252.366121 885.735251,240.369088 C885.735251,235.557306 886.539376,231.964681 889.327876,224.766461 L936.926913,209.163834 L936.926913,245.556994 L936.939883,245.556994 Z M999.726514,258.345183 C986.951296,257.151964 984.940982,254.337525 984.940982,237.567619 L984.940982,159.956546 C984.940982,119.166636 964.941605,100.788479 920.53313,100.788479 C870.145593,100.788479 841.339746,119.555728 841.339746,152.343294 C841.339746,157.55714 841.754778,159.593393 843.752122,165.157422 L889.340845,155.170703 C888.54969,152.758327 888.160597,151.980141 888.160597,150.35892 C888.160597,141.189296 899.755567,133.563075 914.152006,133.563075 C929.767603,133.563075 936.952852,142.784577 936.952852,162.770985 L936.952852,178.347673 L884.13997,193.548237 C856.942373,201.550582 845.775405,210.370022 839.355372,227.541991 C837.303229,233.598271 836.222024,239.94105 836.15184,246.33518 C836.15184,275.945153 858.537654,296.748656 890.144971,296.748656 C908.93816,296.748656 924.540787,289.93953 942.153728,273.94781 C950.545166,290.393472 958.145448,294.36222 982.139513,294.36222 L992.152172,294.36222 L999.726514,258.345183 Z M1118.93162,162.770985 C1113.73075,158.763328 1109.74903,157.142107 1104.53518,157.142107 C1096.92193,157.142107 1088.54346,162.355953 1081.34524,171.175393 C1072.55174,181.966237 1068.53112,192.731142 1068.53112,206.764428 L1068.53112,291.949843 L1020.94505,291.949843 L1020.94505,105.963415 L1062.13702,105.963415 L1064.14734,146.753325 C1082.12343,115.158978 1093.73137,103.161946 1108.14078,103.161946 C1118.14047,103.161946 1126.54488,107.571666 1134.13219,116.365166 L1118.93162,162.770985 Z M1258.13611,169.930295 C1258.13611,189.151487 1244.50489,204.326112 1227.33292,204.326112 C1210.10907,204.326112 1196.52973,189.151487 1196.52973,170.358298 C1196.52973,151.163046 1210.10907,135.145386 1226.90492,135.145386 C1244.10282,135.158356 1258.13611,150.735043 1258.13611,169.930295 Z M1331.29855,141.967482 L1331.29855,105.976385 L1293.73811,108.362821 L1266.12549,108.362821 C1248.55145,102.38376 1240.92523,100.788479 1227.34589,100.788479 C1178.12563,100.788479 1147.7245,127.973106 1147.7245,172.355641 C1147.7245,189.981552 1153.35338,205.156177 1164.13125,217.957335 C1168.528,223.19712 1172.1336,225.95968 1180.53801,232.366743 C1175.33713,236.374401 1171.32947,238.747868 1168.93007,240.771151 C1150.91506,252.755214 1144.53394,261.159621 1144.53394,271.950466 C1144.53394,283.143373 1152.13422,290.393472 1170.53832,297.150719 C1148.91772,315.541846 1140.91537,327.953911 1140.91537,342.33738 C1140.91537,370.326133 1171.73154,389.145261 1217.32026,389.145261 C1279.7178,389.145261 1324.5024,355.527631 1324.5024,309.121812 C1324.5024,279.135716 1307.33043,264.363153 1270.89836,264.363153 L1205.72529,264.363153 C1196.51676,264.363153 1193.30026,263.118056 1193.30026,259.149308 C1193.30026,254.337525 1199.31823,248.358464 1211.70435,239.1629 C1217.70935,240.356119 1220.51082,240.356119 1225.29667,240.356119 C1274.08892,240.356119 1306.9154,211.965303 1306.9154,169.580112 C1306.9154,157.54417 1304.91805,151.163046 1298.51099,141.967482 L1331.29855,141.967482 Z M1279.7178,314.75069 C1279.7178,321.94891 1274.50395,330.327378 1265.68451,337.149474 C1254.51755,346.370977 1238.91492,351.558883 1224.51848,351.558883 C1202.50879,351.558883 1185.32385,342.33738 1185.32385,330.75538 C1185.32385,325.943597 1188.54035,318.745378 1194.11735,309.549814 C1195.32354,308.330656 1196.52973,305.957189 1198.12501,303.14275 L1256.11283,303.14275 C1272.11752,303.15572 1279.7178,307.137438 1279.7178,314.75069 Z M1462.51366,176.376268 L1389.68844,176.376268 C1393.72203,151.176015 1408.1055,136.753637 1429.28513,136.753637 C1451.69688,136.753637 1461.29451,147.972483 1462.51366,176.376268 Z M1510.48883,273.94781 L1492.88885,237.567619 C1475.71689,248.358464 1468.49273,251.951088 1457.32576,255.16759 C1450.19712,257.354875 1442.77218,258.422456 1435.31607,258.332213 C1417.7161,258.332213 1401.72438,249.512773 1393.72203,235.933429 C1389.33825,228.359086 1388.09315,221.926083 1387.28903,206.349395 L1510.5018,206.349395 L1510.5018,185.934985 C1510.5018,135.521509 1478.50539,100.775509 1432.50163,100.775509 C1379.32559,100.775509 1339.32684,145.158044 1339.32684,203.949989 C1339.32684,260.744589 1374.11175,297.150719 1429.28513,297.150719 C1450.89276,297.150719 1470.93104,292.766939 1490.51539,283.947498 C1494.8862,281.976094 1501.70829,278.759592 1510.48883,273.94781 Z M1628.11162,284.738654 C1614.10428,292.766939 1599.72081,297.150719 1586.49165,297.150719 C1561.69346,297.150719 1550.08552,284.362531 1550.08552,256.775841 L1550.08552,141.189296 L1522.49883,141.189296 L1522.49883,110.762228 L1550.08552,105.976385 L1550.08552,50.3750026 L1595.29812,50.3750026 L1595.29812,105.976385 L1635.69894,105.976385 L1635.69894,141.189296 L1595.29812,141.189296 L1595.29812,223.975306 C1595.29812,244.752869 1597.29546,250.77084 1604.8698,250.77084 C1610.49868,250.77084 1617.28187,247.930461 1630.48509,239.1629 L1645.68565,273.94781 C1639.27859,277.955467 1633.32547,281.548092 1628.11162,284.738654 Z M1703.27141,297.150719 C1685.63106,297.100923 1671.3391,282.820549 1671.275,265.180249 C1671.22296,256.673669 1674.57561,248.499679 1680.58591,242.479635 C1686.59621,236.459592 1694.76476,233.0937 1703.27141,233.13196 C1720.89732,233.13196 1734.86576,247.139306 1734.86576,265.180249 C1734.85279,282.76725 1720.89732,297.150719 1703.27141,297.150719 Z M1904.06931,286.359875 C1886.82884,293.50115 1868.34804,297.16822 1849.68709,297.150719 C1792.08836,297.150719 1754.86514,259.149308 1754.86514,200.733487 C1754.86514,140.748324 1794.48777,100.321567 1853.65583,100.321567 C1864.07056,100.321567 1874.07024,101.566665 1884.05696,103.538069 C1897.66225,106.754571 1904.06931,109.56901 1919.67194,118.764573 L1896.87109,155.170703 C1882.88968,144.379858 1873.69412,140.761294 1859.28471,140.761294 C1827.65146,140.761294 1805.25267,165.559485 1805.25267,200.370333 C1805.25267,233.585901 1825.26502,256.347839 1854.07087,256.347839 C1870.07556,256.347839 1881.6835,252.366121 1902.09791,240.369088 L1919.67194,279.148685 C1912.88875,282.352217 1907.66194,284.738654 1904.06931,286.359875 Z M2070.06933,198.762083 C2070.06933,231.951711 2050.05698,259.149308 2026.08886,259.149308 C2002.04291,259.149308 1982.04354,231.938741 1982.04354,198.762083 C1982.04354,165.935608 2002.05588,138.750981 2026.08886,138.750981 C2050.05698,138.750981 2070.06933,165.935608 2070.06933,198.762083 Z M2119.63977,198.762083 C2119.63977,143.160701 2079.23895,100.775509 2026.08886,100.775509 C1972.86094,100.775509 1932.46013,143.160701 1932.46013,198.762083 C1932.46013,254.739588 1972.86094,297.150719 2026.08886,297.150719 C2079.23895,297.150719 2119.63977,254.752558 2119.63977,198.762083 Z M2379.24259,291.962813 L2379.24259,172.342672 C2379.24259,149.139762 2375.23493,140.748324 2364.04202,140.748324 C2358.01108,140.748324 2348.43939,145.534168 2338.02467,154.353608 C2331.21555,159.956546 2324.41939,166.739733 2312.43533,180.345016 L2312.43533,291.949843 L2264.43423,291.949843 L2264.43423,172.342672 C2264.43423,149.139762 2260.45251,140.748324 2248.85754,140.748324 C2238.85785,140.748324 2224.83754,150.735043 2204.02106,173.146797 L2197.66588,179.955924 L2197.66588,291.949843 L2149.63884,291.949843 L2149.63884,105.963415 L2197.66588,105.963415 L2197.66588,136.740667 C2220.06466,112.344539 2238.45579,102.37079 2262.06076,102.37079 C2289.64745,102.37079 2306.4433,115.158978 2310.85302,138.750981 C2331.21555,114.380792 2352.44705,102.37079 2376.84318,102.37079 C2410.43487,102.37079 2427.25666,119.944821 2427.25666,155.157733 L2427.25666,291.949843 L2379.24259,291.949843 L2379.24259,291.962813 Z" id="Shape" fill="#294A93"></path>
        </g>
    </g>
</svg>
