<svg xmlns="http://www.w3.org/2000/svg" width="355.67" height="68.12" viewBox="0 0 355.667 68.116" enable-background="new 0 0 355.667 68.116"><path fill="#f9a22c" stroke="#f9a22c" stroke-width="2" d="m90 16.12h-38l6 7h26l6-7zm48 33h-30v-26h24l6-7h-38v40h11.875 20.13l6-7zm155-33v30l-24-30h-7v40h7v-30l24 30h7v-40h-7zm-65 33h-18.618l24.618-33h-38l6 7h19l-25 33h6 32l-6-7zm16-33v40h8v-40h-8zm-217 40v-33h9l6-7h-38l6 7h9v33h8zm151-40v16h-22v-16h-8v40h8v-17h22v17h8v-40h-8zm-88 33h-38l6 7h26l6-7zm258-33h-38l6 7h26l6-7zm0 33h-38l6 7h26l6-7zm-259.12 0h-30v-10h24v-7h-24v-9h24l6-7h-38v40h11.875 20.13l6-7zm258 0h-30v-10h24v-7h-24v-9h24l6-7h-38v40h11.875 20.13l6-7z"/></svg>