<?xml version="1.0" encoding="UTF-8"?>
<svg width="136px" height="29px" viewBox="0 0 136 29" version="1.1" xmlns="http://www.w3.org/2000/svg" xmlns:xlink="http://www.w3.org/1999/xlink">
    <!-- Generator: Sketch 57.1 (83088) - https://sketch.com -->
    <title>theCyberWire</title>
    <desc>Created with Sketch.</desc>
    <defs>
        <polygon id="path-1" points="0.0132467532 0.000220779221 24.3480967 0.000220779221 24.3480967 22.7345195 0.0132467532 22.7345195"></polygon>
    </defs>
    <g id="About" stroke="none" stroke-width="1" fill="none" fill-rule="evenodd">
        <g id="Masthead" transform="translate(-58.000000, -19.000000)">
            <g id="Nav">
                <g id="theCyberWire" transform="translate(58.000000, 19.000000)">
                    <polyline id="Fill-1" fill="#A0A2A1" points="11.505026 5.95242857 11.505026 2.50606494 11.0325584 2.50606494 11.0325584 1.19706494 11.505026 1.19706494 11.505026 0.0198701299 12.9533377 0.0198701299 12.9533377 1.19706494 13.7201039 1.19706494 13.7201039 2.51357143 12.9533377 2.51357143 12.9533377 5.95242857 11.505026 5.95242857"></polyline>
                    <path d="M14.2616753,5.95242857 L14.2616753,0.0198701299 L15.7022597,0.0198701299 L15.7022597,1.81657143 C15.7022597,1.81657143 16.1592727,1.10411688 17.0885325,1.10411688 C18.0334675,1.10411688 18.8002338,1.78566234 18.8002338,2.68401299 C18.8002338,3.80711688 18.8002338,4.82954545 18.8002338,5.95242857 L17.3132857,5.95242857 C17.3132857,5.95242857 17.3132857,3.48963636 17.3132857,3.16420779 C17.3132857,2.76923377 17.2046623,2.39744156 16.5697013,2.39744156 C16.104961,2.39744156 15.7177143,2.77696104 15.7177143,3.23397403 C15.7177143,4.13232468 15.7177143,5.95242857 15.7177143,5.95242857 L14.2616753,5.95242857" id="Fill-2" fill="#A0A2A1"></path>
                    <g id="Group-6" transform="translate(0.000000, 1.103896)">
                        <mask id="mask-2" fill="white">
                            <use xlink:href="#path-1"></use>
                        </mask>
                        <g id="Clip-4"></g>
                        <path d="M21.0530649,1.88214286 C21.0530649,1.88214286 22.695,1.88214286 22.8574935,1.88214286 C22.6872727,1.42535065 22.4393377,1.20832468 21.9900519,1.20832468 C21.5023506,1.20832468 21.2312338,1.44080519 21.0530649,1.88214286 Z M22.0055065,0.000220779221 C23.3765455,0.000220779221 24.3446623,0.906519481 24.3446623,2.60254545 C24.3446623,2.71867532 24.3523896,2.78071429 24.3446623,2.88911688 C24.3446623,2.88911688 21.1073766,2.88911688 20.9987532,2.88911688 C21.1226104,3.45453247 21.5718961,3.72564935 22.1141299,3.72564935 C22.5865974,3.72564935 22.8963506,3.39249351 23.1440649,3.06728571 C23.1440649,3.06728571 24.0037792,3.56293506 24.2671688,3.72564935 C23.8487922,4.46901299 23.0436104,4.96466234 22.0443636,4.96466234 C20.5805974,4.96466234 19.5738442,4.07403896 19.5738442,2.47868831 C19.5738442,1.0381039 20.6037792,0.000220779221 22.0055065,0.000220779221 L22.0055065,0.000220779221 Z" id="Fill-3" fill="#A0A2A1" mask="url(#mask-2)"></path>
                        <path d="M11.2182338,21.892026 C11.2182338,21.892026 9.05172727,22.7345195 7.63123377,22.7345195 C3.05735065,22.7345195 0,19.4605844 0,15.1271299 C0,10.8422468 3.12954545,7.30337662 7.70364935,7.30337662 C9.07579221,7.30337662 9.91828571,7.47183117 11.146039,8.02554545 C11.146039,8.02554545 11.146039,11.7569351 11.146039,12.6718442 C10.6404545,12.1421948 9.19611688,11.4679351 7.8721039,11.4679351 C5.92218182,11.4679351 4.47762338,13.2736883 4.47762338,15.2476753 C4.47762338,17.2457273 6.09063636,18.5938052 8.06462338,18.5938052 C9.31644156,18.5938052 10.761,17.9678961 11.2182338,17.6069221 L11.2182338,21.892026" id="Fill-5" fill="#EB8D30" mask="url(#mask-2)"></path>
                    </g>
                    <polyline id="Fill-7" fill="#EB8D30" points="17.5980909 8.69605195 20.8238961 16.3275065 23.9295974 8.69605195 28.5756753 8.69605195 19.9814026 28.7012987 15.2388442 28.7012987 18.5611299 21.5032338 12.6148831 8.69605195 17.5980909 8.69605195"></polyline>
                    <path d="M35.052013,16.1107013 C35.052013,18.397974 36.5685455,19.8663766 38.9037273,19.8663766 C41.0942987,19.8663766 42.2017273,18.108974 42.2017273,16.0146623 C42.2017273,14.1367143 40.7333247,12.547987 38.710987,12.547987 C36.6166753,12.547987 35.052013,13.9682597 35.052013,16.1107013 Z M35.1723377,5.03707792 L35.1723377,10.0924805 C35.1723377,10.0924805 37.1463247,8.40727273 39.7221558,8.40727273 C44.0794545,8.40727273 46.6552857,12.0905325 46.6552857,16.1107013 C46.6552857,20.2273506 44.0313247,23.8384156 39.8665455,23.8384156 C37.9166234,23.8384156 36.4722857,23.2847013 35.0999221,21.9366234 L35.0999221,23.4774416 L30.7185584,23.4774416 L30.7185584,5.03707792 L35.1723377,5.03707792 L35.1723377,5.03707792 Z" id="Fill-8" fill="#EB8D30"></path>
                    <path d="M53.179974,14.257039 C53.179974,14.257039 58.2835065,14.257039 58.7890909,14.257039 C58.2594416,12.8367662 57.4891429,12.1627273 56.0927143,12.1627273 C54.5761818,12.1627273 53.7336883,12.8848961 53.179974,14.257039 Z M56.1410649,8.40727273 C60.4018831,8.40727273 63.4111039,11.223974 63.4111039,16.495961 C63.4111039,16.8571558 63.4353896,17.0496753 63.4111039,17.3868052 C63.4111039,17.3868052 53.3484286,17.3868052 53.0112987,17.3868052 C53.3965584,19.1442078 54.792987,19.9867013 56.477974,19.9867013 C57.9465974,19.9867013 58.9094156,18.9514675 59.6797143,17.9402987 C59.6797143,17.9402987 62.352026,19.4811169 63.1704545,19.9867013 C61.8705065,22.2978182 59.3668701,23.8384156 56.2613896,23.8384156 C51.7115714,23.8384156 48.5818052,21.0698442 48.5818052,16.1107013 C48.5818052,11.6330779 51.7837662,8.40727273 56.1410649,8.40727273 L56.1410649,8.40727273 Z" id="Fill-9" fill="#EB8D30"></path>
                    <path d="M70.5855455,16.6644156 C70.5855455,19.4570519 70.5855455,23.4774416 70.5855455,23.4774416 L66.0595714,23.4774416 L66.0595714,8.69605195 L70.4170909,8.69605195 C70.4170909,8.69605195 70.4170909,10.0924805 70.4170909,11.0312338 C70.7780649,9.92380519 72.1504286,8.40727273 73.9318961,8.40727273 C74.2206753,8.40727273 74.5337403,8.40727273 74.9430649,8.40727273 C74.9430649,9.94787013 74.9430649,11.6812078 74.9430649,13.0292857 C74.9430649,13.0292857 74.3893506,12.7405065 73.3781818,12.7405065 C71.6446234,12.7405065 70.5855455,13.7998052 70.5855455,16.6644156" id="Fill-10" fill="#EB8D30"></path>
                    <polyline id="Fill-11" fill="#A0A2A1" points="81.6117013 8.69605195 84.5487273 16.8812208 87.2448831 8.69605195 90.8318831 8.69605195 93.6726494 16.9293506 96.5853896 8.69605195 101.231688 8.69605195 95.6704805 23.4774416 91.7947013 23.4774416 89.0504156 15.5329221 86.4023896 23.4774416 82.5261688 23.4774416 76.8934286 8.69605195 81.6117013 8.69605195"></polyline>
                    <path d="M103.206558,23.4774416 L107.684403,23.4774416 L107.684403,8.69605195 L103.206558,8.69605195 L103.206558,23.4774416 Z M105.469104,2.22037662 C106.962013,2.22037662 108.189766,3.4 108.189766,4.89246753 C108.189766,6.409 106.962013,7.63675325 105.421416,7.63675325 C103.952571,7.63675325 102.773169,6.45735065 102.773169,4.9405974 C102.773169,3.44812987 103.976857,2.22037662 105.469104,2.22037662 L105.469104,2.22037662 Z" id="Fill-12" fill="#A0A2A1"></path>
                    <g id="Group-16" transform="translate(111.051948, 8.389610)" fill="#A0A2A1">
                        <path d="M4.52862338,8.27480519 C4.52862338,11.0674416 4.52862338,15.0878312 4.52862338,15.0878312 L0.00264935065,15.0878312 L0.00264935065,0.306441558 L4.36016883,0.306441558 C4.36016883,0.306441558 4.36016883,1.70287013 4.36016883,2.64162338 C4.72092208,1.53419481 6.09350649,0.0176623377 7.87475325,0.0176623377 C8.16375325,0.0176623377 8.47681818,0.0176623377 8.88614286,0.0176623377 C8.88614286,1.55825974 8.88614286,3.2915974 8.88614286,4.63967532 C8.88614286,4.63967532 8.33242857,4.3508961 7.32125974,4.3508961 C5.5877013,4.3508961 4.52862338,5.41019481 4.52862338,8.27480519" id="Fill-13"></path>
                        <path d="M14.5436104,5.86742857 C14.5436104,5.86742857 19.6473636,5.86742857 20.1527273,5.86742857 C19.6230779,4.44715584 18.853,3.77311688 17.4567922,3.77311688 C15.9398182,3.77311688 15.0971039,4.49528571 14.5436104,5.86742857 Z M17.5047013,0.0176623377 C21.7657403,0.0176623377 24.7747403,2.83436364 24.7747403,8.10635065 C24.7747403,8.46754545 24.799026,8.66006494 24.7747403,8.99719481 C24.7747403,8.99719481 14.7120649,8.99719481 14.3753766,8.99719481 C14.7604156,10.7545974 16.1566234,11.5970909 17.8418312,11.5970909 C19.310013,11.5970909 20.2734935,10.5618571 21.0435714,9.55068831 C21.0435714,9.55068831 23.7156623,11.0915065 24.5340909,11.5970909 C23.2341429,13.9082078 20.7305065,15.4488052 17.625026,15.4488052 C13.0752078,15.4488052 9.94544156,12.6802338 9.94544156,7.72109091 C9.94544156,3.24346753 13.1471818,0.0176623377 17.5047013,0.0176623377 L17.5047013,0.0176623377 Z" id="Fill-15"></path>
                    </g>
                </g>
            </g>
        </g>
    </g>
</svg>