<?xml version="1.0" encoding="UTF-8"?>
<svg width="139px" height="60px" viewBox="0 0 139 60" version="1.1" xmlns="http://www.w3.org/2000/svg" xmlns:xlink="http://www.w3.org/1999/xlink">
    <!-- Generator: Sketch 51.2 (57519) - http://www.bohemiancoding.com/sketch -->
    <title>g3070</title>
    <desc>Created with Sketch.</desc>
    <defs></defs>
    <g id="Page-1" stroke="none" stroke-width="1" fill="none" fill-rule="evenodd">
        <g id="g3070" transform="translate(69.500000, 30.000000) scale(-1, 1) rotate(-180.000000) translate(-69.500000, -30.000000) translate(0.000000, 0.000000)" fill-rule="nonzero">
            <g id="Group" transform="translate(64.000000, 16.000000)">
                <polygon id="path36" fill="#231F20" points="39.4753758 23.7290778 37.3146989 9.3647285 37.1403503 9.3647285 34.7007157 23.7290778 28.8799641 23.7290778 26.3718354 9.39961157 26.1962415 9.39961157 23.4427794 23.7290778 0.0887882553 23.7290778 0.0887882553 18.4978633 6.25823698 18.4978633 6.25823698 0.543049644 12.2172221 0.543049644 12.2172221 18.4978633 18.5572833 18.4978633 22.3630636 0.543049644 28.7404852 0.543049644 31.6334262 12.7807776 31.772905 12.7807776 34.5612368 0.543049644 40.8340494 0.543049644 45.4692307 23.7290778"></polygon>
                <polygon id="path38" fill="#231F20" points="47.4913055 18.4969962 53.3469268 18.4969962 53.3469268 0.54218255 47.4913055 0.54218255"></polygon>
                <polygon id="path42" fill="#231F20" points="74.0495743 23.7290778 74.0495743 18.4978633 67.6360375 18.4978633 67.6360375 0.543049644 61.6758071 0.543049644 61.6758071 18.4978633 55.5076037 18.4978633 55.5076037 23.7290778"></polygon>
                <path d="M50.4194947,26.3788256 C52.2663442,26.3788256 53.5204086,25.0893979 53.5204086,23.4847767 C53.5204086,21.8116352 52.2663442,20.5907278 50.4194947,20.5907278 C48.5029058,20.5907278 47.3185808,21.8116352 47.3185808,23.4847767 C47.3185808,25.0893979 48.5029058,26.3788256 50.4194947,26.3788256" id="path46" fill="#DD2127"></path>
            </g>
            <path d="M59.2174922,29.6207085 C59.2174922,45.9808676 45.9607741,59.2414169 29.6093688,59.2414169 C13.2567181,59.2414169 0,45.9808676 0,29.6207085 C0,13.2617951 13.2567181,0 29.6093688,0 C45.9607741,0 59.2174922,13.2617951 59.2174922,29.6207085" id="path62" fill="#34AAD2"></path>
            <path d="M35.22025,39.2966266 C33.7532313,39.2966266 32.5589436,38.1018816 32.5589436,36.634301 C32.5589436,35.1654747 33.7532313,33.9682379 35.22025,33.9682379 C36.6922501,33.9682379 37.8840471,35.1654747 37.8840471,36.634301 C37.8840471,38.1018816 36.6922501,39.2966266 35.22025,39.2966266" id="path66" fill="#DD1F25"></path>
            <path d="M26.6243673,31.5370176 L26.6243673,38.7802376 L21.3005092,38.7802376 L21.3005092,31.5370176 L12.6341398,31.5370176 C14.1123666,39.6298895 21.1834465,45.7718012 29.6991289,45.7718012 C38.217302,45.7718012 45.2871365,39.6298895 46.7666087,31.5370176 L26.6243673,31.5370176 Z M52.4852418,28.3987873 C52.4852418,40.9903292 42.2833597,51.1948725 29.6991289,51.1948725 C17.1161434,51.1948725 6.91301599,40.9903292 6.91301599,28.3987873 C6.91301599,27.6612595 6.95411243,26.9324526 7.02260652,26.2111206 L21.3005092,26.2111206 L21.3005092,13.4140177 L26.6243673,13.4140177 L26.6243673,26.2111206 L32.5596908,26.2111206 L32.5596908,13.4140177 L37.883549,13.4140177 L37.883549,26.2111206 L52.3756513,26.2111206 C52.4429,26.9324526 52.4852418,27.6612595 52.4852418,28.3987873 Z" id="path70" fill="#221F1F"></path>
        </g>
    </g>
</svg>