<svg xmlns="http://www.w3.org/2000/svg" viewBox="0 0 120 16" enable-background="new 0 0 120 16"><g fill="#2c2b29"><path d="m42 .981l-3.1.7c-.4.1-.5.2-.5.6v2.1h-1.2c0 1.1 0 2.1-.1 3h.9v5.5c0 1.3.6 2.1 1.9 2.4 1 .2 1.9.1 2.8 0 .9-.1.9-.1.9-1v-1.9c-.2.1-.3.1-.4.1-.6.1-1.1-.2-1.2-.9v-4.2h1.7v-3h-1.7v-3.4"/><path d="m35.8 6.981c0-1.2-.5-2.1-1.6-2.5-1.5-.5-2.9-.3-4.1.7-.2.2-.4.5-.7.8l-.1-1.5h-4.3v3h.8v4.8h-.8v3h5.5v-3h-.7v-3.7l.1-.3.2-.3c.3-.4.7-.5 1.2-.4.4.1.6.4.6 1v6.7h4.8v-3h-.9v-5.3"/><path d="m14.3 3.481h.6v-3h-5.9v3h1.3l-2.3 8.3h-.1c-.7-2.7-1.4-5.5-2.1-8.3h1.3v-3h-6.4v3h.6c.3 0 .4 0 .5.3 1.1 3.7 2.3 7.5 3.5 11.2l.1.3h4.6c.1 0 .3-.1.3-.2.3-.7.5-1.4.7-2.1 1-3.1 2-6.1 2.9-9.2 0-.2.1-.4.4-.3"/><path d="m24 8.281c-.4-2.1-1.5-3.4-3.5-4-.9-.3-1.8-.3-2.7-.2-2 .3-3.4 1.4-4 3.3-.5 1.6-.5 3.2 0 4.8.4 1.4 1.4 2.4 2.9 2.9 1.1.3 2.3.4 3.4.2.8-.1 1.6-.4 2.3-.9 1-.7 1.5-1.7 1.6-2.9h-3.7c-.1.3-.1.5-.2.7-.2.5-.7.7-1.1.7-.4 0-.9-.2-1.1-.6-.3-.5-.3-1.1-.3-1.7h6.7c-.1-.8-.1-1.5-.3-2.3m-6.3.2c0-.6 0-1.1.6-1.4.4-.3.9-.3 1.4 0 .6.3.6.8.6 1.4h-2.6"/><path d="m55.2 4.381h-4.7v3h.7v3.8c0 .2 0 .4-.1.5-.2.4-.5.6-.9.6-.4 0-.8-.2-.9-.6-.1-.2-.1-.5-.1-.8v-6.4h-4.8v3h.9v.4l.1 5c0 1.1.5 1.9 1.5 2.4 1.3.6 3.2.4 4.3-.6.2-.1.3-.3.5-.5v1.1h4.4v-3h-.9v-7.9"/><path d="m64.6 4.381h-1.4c-.9.1-1.6.6-1.9 1.5 0 .1 0 .2-.1.3 0-.6-.1-1.2-.1-1.7h-4.2v3h.9v4.8h-.9v3c2 0 4 0 5.8-.1v-3h-1.2v-2.4c.1-1.1.6-1.7 1.7-1.9.5-.1 1.1 0 1.6 0v-3.3c0-.1-.1-.2-.2-.2"/></g><g fill="#fc0015"><path d="m87.2 7.881c-.1 0-.2 0-.3-.1.3-.2.5-.3.7-.4.5-.3.9-.6 1.2-1.1 1.2-2.1 0-4.9-2.3-5.5-.5-.2-1.1-.2-1.7-.3-2.5 0-4.9 0-7.5-.1v3h1.3v8.8h-1.3v3h6.9c.6 0 1.3 0 2-.1 2.2-.2 3.6-1.8 3.4-4-.1-1.5-.8-2.7-2.4-3.2m-4.6-4.4c.6 0 1.2 0 1.8.1.6.1 1 .7 1 1.4 0 .7-.4 1.3-1.1 1.4-.6.1-1.1.1-1.7.1v-3m2.9 8.3c-.2.4-.6.6-1 .6h-1.7c-.1 0-.2-.1-.2-.2v-2.9c.7 0 1.3 0 1.9.2 1 .2 1.5 1.4 1 2.3"/><path d="m100.9 8.381c-.4-1.9-1.4-3.3-3.3-3.9-.9-.2-1.9-.3-2.8-.2-1.9.2-3.3 1.2-4 3-.7 1.7-.6 3.4-.1 5.1.5 1.4 1.4 2.4 2.9 2.8.6.2 1.1.3 1.7.3 1.4.1 2.7-.1 3.9-1 1-.7 1.5-1.7 1.6-2.9h-3.7l-.2.6c-.2.4-.5.7-1 .7s-.9-.1-1.2-.5c-.4-.5-.4-1.1-.4-1.8h6.7c0-.8-.1-1.5-.1-2.2m-6.4.2c0-.6.1-1.1.5-1.4.5-.4 1-.4 1.5-.1s.6.9.6 1.5h-2.6"/><path d="m111.4 7.581c0-1.3-.6-2.2-1.8-2.8-1.9-.9-3.9-.9-5.8-.1-1.3.6-2 1.8-1.9 3.2h3.6v-.4c0-.5.5-.9 1-.9s.9.4.9 1v.782c0 0-.118.023-.2.018l-2.4.2c-2.3.4-3.4 1.8-3.3 4 .1 1 .5 1.9 1.4 2.4 1.2.6 3.4.6 4.6-.8 0-.1.1-.2.2-.3 0 .5.1.8.1 1.2h4.5v-3h-.9v-4.5m-4 4.5c-.1.4-.3.7-.7.8-.7.3-1.3-.1-1.4-.8-.1-.8.3-1.5 1.2-1.6h.9v1.6"/></g><path d="m76.3 8.08c-.4-1.8-1.4-3.1-3.3-3.7-.9-.3-1.9-.3-2.8-.2-2 .3-3.5 1.3-4.1 3.3-.5 1.6-.5 3.1 0 4.7.5 1.5 1.5 2.5 3 3 1 .4 2 .4 3.1.3 2.2-.2 3.8-1.7 4-3.9h-3.7l-.2.6c-.2.4-.6.7-1.1.7s-.9-.1-1.2-.6-.3-1.1-.3-1.7h6.7c0-.8 0-1.6-.1-2.5m-6.4.4c-.1-.9.4-1.5 1.2-1.6.9-.1 1.4.5 1.4 1.6h-2.6" fill="#2c2b29"/><path d="m117.7 7.481h1.5c0-1 0-2 .1-3.1h-1.8v-3.4c-1.1.3-2 .5-3 .7-.7.1-.6 0-.6.7v2h-1.2v2.5c0 .6-.1.5.5.5h.4v5.6c0 1.3.6 2 1.9 2.3 1.2.2 2.3.1 3.4-.1.2 0 .2-.1.2-.3v-2.4h-.2c-.9.2-1.4-.2-1.4-1v-3.8c0-.1.1-.2.2-.2" fill="#fc0015"/></svg>