<svg xmlns="http://www.w3.org/2000/svg" viewBox="0 0 797.24 67.56"><path d="m860.08 759.72c-2.319 0-4.253 1.934-4.253 4.544 0 2.609 1.934 4.543 4.253 4.543 2.319 0 4.253-1.934 4.253-4.543 0-2.61-1.934-4.544-4.253-4.544m-153.86 8.795h19.521v-1.739l-2.124-.484c-1.934-.484-2.805-1.546-2.805-4.254v-26.286h4.544c2.803 0 4.253.676 4.445 6.572l.484 12.37c.386 11.11 3.576 14.207 8.99 14.207 5.508 0 6.957-3.77 6.957-9.09v-2.224h-2.031v1.643c0 3.577-.481 6.09-1.836 6.09-1.255 0-1.352-.966-1.643-5.413l-.579-8.504c-.774-11.405-2.224-15.367-10.633-16.915 8.02-2.125 12.951-8.02 12.951-16.43 0-10.921-8.601-16.14-16.816-16.14h-32.956v1.74l1.836.386c3.479.774 3.576 2.61 3.576 10.439v38.465c0 8.602-2.418 12.758-7.928 12.758-4.926 0-7.634-2.416-7.634-11.791v-45.714c0-2.706.869-3.479 2.995-3.962l2.61-.58v-1.74h-20.2v1.74l2.124.58c1.934.58 2.61 1.354 2.61 4.059v44.941c0 10.148 5.896 15.754 14.885 15.754 8.987 0 13.433-5.606 13.433-16.04v-41.945c0-5.219 1.065-7.05 5.315-7.05 3.384 0 4.835 1.16 4.835 4.349v53.735c0 2.707-.87 3.674-2.804 4.158l-2.126.58v1.739zm129.7-60.21c0-2.705.871-3.575 2.803-3.962l2.61-.58v-1.836h-20.1v1.74l2.126.58c1.934.58 2.803 1.354 2.803 4.059v54.12c0 2.609-1.061 4.059-4.06 4.059-3.479 0-3.962-1.16-5.217-6.861l-12.37-57.893h-3.867l-11.789 56.05c-1.355 6.281-2.031 7.732-4.641 8.505l-1.644.484v1.739h13.821v-1.739l-2.029-.388c-2.9-.58-3.673-2.125-2.222-9.471l6.959-35.856 7.634 37.982c1.16 5.509 1.065 6.572-3.092 7.345l-2.029.388v1.739h51.22v-22.03h-1.836c-.966 10.148-2.995 19.716-11.21 19.716h-3.867v-57.893m-30.15 42.24v-2.609h-13.05l-.385 2.609h13.433m-53.929-41.08v46.2c0 6.959 0 10.245-3.479 10.825l-1.74.29v1.739h14.206v-1.739c-6.185-.87-6.185-2.996-6.185-10.535v-43.877l-2.319-2.126 23.679 58.28h4.058v-53.735c0-7.925 0-9.665 3.867-10.729l1.352-.386v-1.74h-14.595v1.74l1.644.386c4.929.87 4.929 2.804 4.929 10.149v33.633l.967-.29-17.976-45.617h-13.821v1.74l1.352.386c1.549.484 2.418 2.224 4.06 5.413m-31.02-5.219h3.867c3.865 0 7.441 2.513 7.441 15.08 0 12.854-2.705 14.11-8.117 14.11h-3.191v-29.19zm-64.37 30.347c0 27.93-2.32 31.894-7.346 31.894-5.02 0-7.249-3.964-7.249-31.701 0-26.867 2.418-30.734 7.249-30.734 5.03 0 7.346 3.866 7.346 30.541m10.535.58c0-18.46-5.896-33.73-17.881-33.73-12.08 0-17.784 15.27-17.784 33.73 0 18.556 5.896 33.826 17.784 33.826 12.275 0 17.881-15.27 17.881-33.826m-41.37-26.869c0-2.705.676-3.575 2.607-4.059l2.126-.58v-1.74h-20v1.74l2.415.58c1.933.484 2.997 1.16 2.997 3.962v46.49c0 6.475-.581 11.694-5.413 11.694-3.094 0-5.413-2.416-5.315-4.155.288-2.997 5.315-2.803 5.701-7.636.29-3.479-1.934-4.929-3.962-5.217-2.996-.388-6.668 2.125-6.766 7.151-.097 6.475 4.156 12.371 11.405 12.371 8.02 0 14.209-5.413 14.209-15.755v-44.844zm-322.8 0c0-2.705.87-3.575 2.803-3.962l2.61-.58v-1.836h-20.1v1.74l2.126.58c1.933.58 2.803 1.354 2.803 4.059v54.12c0 2.609-1.064 4.059-4.06 4.059-3.479 0-4.059-1.16-5.315-6.861l-12.371-57.893h-3.865l-11.791 56.05c-1.352 6.281-2.03 7.732-4.639 8.505l-1.644.484v1.739h13.821v-1.739l-2.03-.388c-2.899-.58-3.673-2.125-2.223-9.471l6.959-36.05 7.635 38.18c1.063 5.509 1.063 6.572-3.092 7.345l-2.03.388v1.739h51.32v-22.03h-1.836c-.966 10.148-2.996 19.716-11.211 19.716h-3.866v-57.893m269.06-4.059h2.128c5.994 0 8.02 9.567 8.699 19.716h1.835v-22.04h-35.08v22.04h1.836c.678-10.149 2.707-19.716 8.699-19.716h2.126v57.794c0 2.707-.869 3.674-2.803 4.158l-2.513.58v1.739h20.876v-1.739l-2.997-.676c-1.836-.484-2.804-1.064-2.804-4.061v-57.794m-44.17 30.83l2.995.097c4.35.096 5.605 1.74 6.477 12.275h1.835v-26.869h-1.835c-1.065 8.409-2.225 11.984-6.38 12.08l-3.092.096v-28.511h6.669c7.442 0 9.09 9.375 10.148 19.716h1.836v-22.04h-33.34v1.74l2.126.58c2.221.58 2.803 1.934 2.803 4.156v53.638c0 2.707-.869 3.674-2.803 4.158l-2.126.58v1.739h34.31v-22.03h-1.836c-1.16 10.05-2.416 19.716-11.11 19.716h-6.669v-31.12m-36.436 0l2.996.097c4.349.096 5.605 1.74 6.475 12.275h1.836v-26.869h-1.836c-1.063 8.409-2.223 11.984-6.377 12.08l-3.094.096v-28.511h6.669c7.442 0 9.08 9.567 10.147 19.716h1.836v-22.04h-34.31v1.74l3.092.58c2.223.58 2.803 1.934 2.803 4.156v53.638c0 2.707-.87 3.674-2.803 4.158l-2.126.58v1.739h34.31v-22.03h-1.835c-1.16 10.05-2.418 19.716-11.12 19.716h-6.669v-31.12m-39.722-30.83h2.9c3.865 0 7.441 2.513 7.441 15.08 0 12.66-2.705 14.11-8.118 14.11h-2.224v-29.19m-14.594 64.27h19.524v-1.739l-2.127-.484c-1.933-.484-2.803-1.546-2.803-4.254v-26.286h3.576c2.803 0 4.252 1.16 4.446 6.572l.483 12.37c.387 11.11 3.576 14.207 8.989 14.207 5.509 0 6.957-3.77 6.957-9.09v-2.224h-2.029v1.643c0 3.577-.483 6.09-1.836 6.09-1.256 0-1.354-.966-1.642-5.413l-.581-8.504c-.772-11.695-2.319-15.367-10.63-16.915 8.02-2.125 12.95-8.02 12.95-16.43 0-10.921-8.601-16.14-16.816-16.14h-18.46v1.74l2.126.58c1.934.58 2.803 1.354 2.803 4.059v53.735c0 2.707-.869 3.674-2.803 4.158l-2.126.58v1.739m-14.786-64.27h2.126c5.991 0 8.02 9.567 8.699 19.716h1.835v-22.04h-35.08v22.04h1.836c.676-10.149 2.706-19.716 8.699-19.716h2.126v57.794c0 2.707-.871 3.674-2.803 4.158l-2.514.58v1.739h20.392v-1.739l-2.512-.58c-2.512-.58-2.803-2.513-2.803-4.158v-57.794m-22.326 46.97c0-19.813-21.745-25.03-21.745-39.431 0-3.092 1.16-7.732 5.991-7.732 6.959 0 9.569 8.989 10.729 19.91h1.836v-22.04h-1.16c-.484 2.126-1.354 3.094-2.609 3.094-2.224 0-3.384-3.48-8.699-3.48-8.215 0-13.821 6.862-13.821 15.85 0 16.334 21.746 23.2 21.746 38.27 0 6.861-3.19 10.727-7.539 10.727-6.475 0-10.728-7.634-11.887-19.909h-1.836v22.03h1.16c.966-3.189 2.223-3.479 3.285-3.479 1.837 0 3.77 3.866 9.375 3.866 8.603 0 15.174-7.441 15.174-17.688m-63.3-42.911c0-2.705.87-3.575 2.803-3.962l2.61-.58v-1.836h-20.1v1.74l2.126.58c1.933.58 2.803 1.354 2.803 4.059v53.735c0 2.707-.87 3.674-2.803 4.158l-2.126.58v1.739h31.604v-22.03h-1.837c-.965 10.148-2.995 19.716-11.21 19.716h-3.866v-57.893zm-63.981 42.24v-2.609h-13.05l-.387 2.609h13.434m-55.861 18.17h3.963l8.988-47.55h-1.352l9.857 47.55h3.48l11.791-56.05c1.256-5.896 1.933-7.925 4.252-8.506l1.836-.482v-1.74h-13.627v1.74l2.03.386c2.899.58 3.575 2.32 2.222 9.471l-7.635 37.596h1.16l-7.732-39.625c-.774-3.77-1.256-6.862 1.934-7.442l2.125-.386v-1.74h-18.653v1.74l1.256.29c1.934.482 2.224 1.644 2.996 5.316l2.996 14.4-.58-8.699-6.669 35.18h.87l-7.829-38.659c-.87-3.962-1.16-6.959 1.933-7.539l1.451-.29v-1.74h-19.04v1.74l1.836.482c1.739.484 2.706 1.354 3.866 6.669l12.274 57.893m-51.61-33.634l2.996.097c4.349.096 5.605 1.74 6.475 12.275h1.836v-26.869h-1.836c-1.063 8.409-2.222 11.984-6.379 12.08l-3.093.096v-28.511h6.669c7.441 0 9.09 9.567 10.148 19.716h1.836v-22.04h-33.34v1.74l2.126.58c2.222.58 2.803 1.934 2.803 4.156v53.638c0 2.707-.87 3.674-2.803 4.158l-2.126.58v1.739h34.31v-22.03h-1.838c-1.159 10.05-2.415 19.716-11.11 19.716h-6.669v-31.12m-60.791 33.44h19.813v-1.739l-2.222-.484c-1.74-.386-2.9-1.546-2.9-4.254v-26.383h14.594v26.383c0 2.707-1.159 3.867-2.899 4.254l-2.222.484v1.739h19.813v-1.739l-2.126-.58c-1.933-.484-2.804-1.548-2.804-4.253v-53.64c0-2.705.871-3.575 2.804-4.059l2.126-.58v-1.74h-19.813v1.74l2.222.58c1.643.484 2.899 1.16 2.899 3.962v24.839h-14.594v-24.839c0-2.706 1.064-3.479 2.9-3.962l2.222-.58v-1.74h-19.813v1.74l2.126.58c1.934.58 2.802 1.354 2.802 4.059v53.735c0 2.707-.869 3.674-2.802 4.158l-2.126.58v1.739m-14.787-64.27h2.127c5.991 0 8.02 9.567 8.697 19.716h1.836v-22.04h-35.08v22.04h1.836c.676-10.149 2.706-19.716 8.698-19.716h2.126v57.794c0 2.707-.869 3.674-2.802 4.158l-2.513.58v1.739h20.876v-1.739l-2.996-.676c-1.836-.484-2.804-1.064-2.804-4.061v-57.794" fill="#1c1c21" transform="translate(-67.09-701.44)"/></svg>