<svg xmlns="http://www.w3.org/2000/svg" viewBox="0 0 2428 1590" enable-background="new 0 0 2428 1590"><path d="M525,1589l1074-525L1074-10L0,515L525,1589" fill="#cc2229"/><path d="m1398.3 893.6v-516.9h94.8l197.6 345.2v-345.2h90.6v516.9h-97.9l-194.5-337.1v337.1h-90.6m687.8-119.2l92.3 16.5c-11.9 36.2-30.6 63.8-56.2 82.7-25.5 19-57.5 28.4-96 28.4-60.8 0-105.8-21.2-135-63.8-23-34.1-34.6-77.2-34.6-129 0-62.1 15.2-110.7 45.5-145.9 30.2-35.1 68.5-52.7 114.8-52.7 52 0 93 18.4 123.2 55.2 30 36.8 44.4 93.2 43.2 169.1h-231.8c.7 29.4 8.1 52.3 22.4 68.5 14.3 16.4 32.1 24.6 53.4 24.6 14.5 0 26.6-4.2 36.5-12.6 9.8-8.6 17.3-22.2 22.3-41m5.2-100.1c-.7-28.8-7.5-50.5-20.7-65.5-13.2-15-29.2-22.4-48.1-22.4-20.2 0-36.9 8-50 23.7-13.2 15.7-19.7 37.1-19.5 64.1l138.3.1m327.7-155.1v78.9h-63.1v150.9c0 30.6.6 48.4 1.8 53.4 1.2 5 3.9 9.1 8.2 12.5 4.3 3.2 9.5 4.9 15.6 4.9 8.7 0 21-3.3 37.3-9.5l7.9 76.8c-21.6 9.9-45.8 14.8-73.2 14.8-16.6 0-31.7-3-45.1-8.9-13.4-6-23.2-13.8-29.5-23.3-6.3-9.5-10.6-22.4-13-38.6-1.9-11.4-2.9-34.8-2.9-69.8v-163.2h-42.5v-78.9h42.5v-74.5l92.8-57.8v132.3h63.2"/><path d="M950.8,748.4V502h65.7c144,0,145.4,106.1,145.4,135c0,26.7-1.5,135-145.4,135h-46.3v124.6h74.5
		c186.2,0,267.1-120.2,267.1-259.7c0-116.5-53.4-259.7-267.1-259.7H805.4V772h-296l246.2-394.6H347.1L264.3,502h255.5L256.1,896.6
		h581.2L950.8,748.4" fill="#fff"/></svg>