<svg height="189.356" viewBox="0 0 490.75601 189.356" width="490.75601" xmlns="http://www.w3.org/2000/svg" xmlns:xlink="http://www.w3.org/1999/xlink"><clipPath id="a"><path d="m0 142.017h368.067v-142.017h-368.067z"/></clipPath><g clip-path="url(#a)" fill="#0082ca" transform="matrix(1.3333333 0 0 -1.3333333 0 189.356)"><path d="m0 0-.192-.142-.201-.12c-3.568-2.469-8.896-4.119-13.268-4.119h-.006c-6.408.14-8.742 2.407-8.87 8.573.139 7.105 2.515 9.295 10.518 9.8l11.046.517.493.021.48.014zm20.115-3.494c-.355 1.193-1.354 1.927-2.557 1.927-.323-.017-.621-.036-1.01-.125-1.712-.412-2.663-.537-3.979-.63-2.498-.12-2.938.855-3.103 3.663v38.446c-.075.891-.539 1.778-1.223 2.314l-.251.16c-.078.064-.159.144-.265.197-2.086 1.229-5.557 2.216-8.508 2.962l-.218.064c-3.5.847-7.373 1.293-11.198 1.293-2.251 0-4.283-.17-5.095-.274-1.681-.162-6.222-.918-7.749-1.44-.441-.142-1.876-.823-1.923-2.174.025-.703.818-2.951.818-2.951.517-1.574 1.063-1.957 2.057-2.16.798-.09 2.52.27 3.668.469 2.964.546 4.898.753 6.285.77 1.793.028 4.049.053 6.691-.33 5.02-.77 6.957-2.313 6.957-2.313v-14.932l-.445-.013-10.723-.269c-14.343-.452-20.978-6.141-20.883-17.605-.023-5.206 1.61-9.383 4.718-12.084 2.886-2.533 7.12-3.868 12.215-3.868h.019c5.851 0 10.88 1.798 15.783 5.683l.469.358.24-.54c1.18-2.598 3.191-4.281 5.95-4.984 1.237-.343 2.653-.517 4.462-.517.463 0 .929.024 1.345.07 1.638.223 3.814.523 6.235 1.669 1.332.632 2.273 1.412 2.203 2.815-.053 1.24-.985 4.349-.985 4.349" transform="translate(48.0249 46.2881)"/><path d="m0 0h-.017-5.201c-.804 0-1.472.264-1.886.722-.42.491-.605 1.153-.605 2.058v49.401c-.039.93.198 1.606.676 2.058.414.421 1.027.603 1.858.603h4.717c.877 0 1.472-.171 1.936-.558.473-.399.724-1.056.708-1.843l.051-1.307.047-1.111.741.808c2.211 2.383 6.003 5.228 11.466 5.228.769 0 2.11-.118 3.281-.335.982-.182 1.358-1.175 1.288-1.692 0-.264-.011-.469-.044-.653l-.78-4.983c-.051-.868-.844-1.504-1.515-1.504-.606.02-.944.067-1.327.137-.571.086-1.206.206-2.334.206-3.642 0-7.715-2.417-10.433-6.166l-.092-.112v-.161-38.016c0-.847-.208-1.518-.633-2.004-.414-.49-1.092-.776-1.902-.776" transform="translate(226.6558 34.1445)"/><path d="m0 0h-23.956c.33 12.087 4.941 17.028 12.516 17.028 7.378 0 11.551-4.049 11.551-13.526 0-.741 0-2.626-.111-3.502m-11.216 24.726c-13.404 0-23.509-9.331-23.509-30.549 0-19.454 9.114-29.008 26.258-29.008 2.713 0 5.943.319 9.026.946.482.09.978.223 1.463.33 1.944.534 3.912 1.347 4.634 1.684 1.074.412 1.903 1.241 1.968 2.277-.294 1.551-.687 3.129-1.139 4.647-.409 1.023-1.333 1.668-2.284 1.609-.325 0-4.934-1.003-5.201-1.079-2.645-.682-5.541-1.081-8.249-1.081-12.193 0-15.824 5.829-15.824 17.814v.881h31.945c.943.088 1.677.804 1.81 1.75 0 .129.011.271.033.417.103 2.094.175 4.295.175 6.071 0 14.724-7.154 23.291-21.106 23.291" transform="translate(194.4731 67.5767)"/><path d="m0 0h-.35c-1.88 0-3.442.131-4.966.433-.932.167-1.282 1.382-1.096 3.045 0 0 .114 1.777.382 3.031.245 1.281.853 1.859 1.526 1.859h.03.166l.516-.021c.308-.022.741-.082 1.147-.113.927-.1 1.878-.204 2.615-.204 6.228.072 9.587 2.35 11.971 8.116l2.872 7.013.272.747.101.306-.101.338-19.183 50.718c-.084.223-.111.452-.111.661 0 .196.027.558.294.86.196.215.534.369.91.369h7.268c1.057 0 1.845-.559 2.08-1.374l12.63-36.334.839-2.431.867 2.431 13.057 36.063c.276 1.011 1.093 1.658 2.044 1.658h.055l.196-.013h6.03c.491 0 .85-.098 1.101-.3.251-.212.35-.536.333-.775 0-.347-.082-.64-.185-.922l-21.454-57.573c-4.677-12.823-10.601-17.588-21.856-17.588" transform="translate(258.8657 11.9033)"/><path d="m0 0c-1.249 0-2.279.586-2.868 1.66l-11.463 17.694-.406.597-.387-.597-11.446-17.68c-.608-1.088-1.639-1.674-2.904-1.674l-.185.021h-6.128c-.501 0-.861.124-1.166.347-.3.248-.516.684-.475 1.099 0 .512.175 1.047.475 1.488l16.587 25.17.191.255-.191.259-15.281 23.559c-.271.435-.407.807-.396 1.158 0 .989.91 1.585 1.777 1.596h5.752c1.241 0 2.213-.538 2.639-1.383l10.762-16.324.376-.565.371.565 10.705 16.223c.476.941 1.458 1.484 2.581 1.484h5.893c.851 0 1.781-.607 1.781-1.59 0-.357-.131-.729-.401-1.122l-15.287-23.601-.18-.259.18-.255 16.541-25.115c.355-.496.532-1.012.532-1.516.03-.442-.172-.878-.464-1.126-.316-.223-.681-.347-1.197-.347h-6.089z" transform="translate(345.3384 34.2832)"/><path d="m0 0c-2.707 0-5.317.436-7.583 1.262-2.075.722-3.716 1.759-4.885 3.045-3.261 3.585-3.548 8.045-3.591 13.938v56.299c0 .33.142.664.355.913 1.931 2.16 4.424 3.77 7.42 4.787.184.069.312.069.463.069.238 0 .871-.042 1.388-.546.459-.48.68-1.134.675-1.99v-59.886c.023-3.12.764-5.594 2.135-7.143 1.172-1.286 3.066-1.94 5.474-1.94.584 0 1.244.046 2.032.141 1.753.251 3.439.747 4.55 1.096.304.131.575.185.9.185.951 0 1.779-.673 2.101-1.673 0 0 .851-2.876.957-4.234.067-1.169-.98-1.954-1.948-2.298-1.233-.493-5.583-2.025-10.443-2.025" transform="translate(96.9951 34.1387)"/><path d="m0 0c-.319 1.003-1.147 1.674-2.127 1.674-.302 0-.589-.061-.888-.175-1.616-.52-4.051-1.194-6.345-1.235l-.242-.035c-2.474 0-4.33.675-5.516 1.976-1.116 1.23-1.921 3.225-1.982 6.959v.213l.307 29.642h12.129c.65 0 1.185.076 1.688.458.606.471.701 1.256.684 1.686v3.733c.017.803-.223 1.381-.675 1.75-.536.387-1.134.418-1.591.418h-12.235v.171 12.519 5.769c0 .872-.213 1.511-.664 1.982-.506.495-1.159.554-1.388.554-.156 0-.287 0-.516-.067-.706-.263-2.616-.927-4.701-2.395-.723-.526-1.457-1.182-2.197-1.925-.2-.256-.318-.573-.318-.887l-.293-15.528h-6.264c-.611 0-1.276-.153-1.75-.656-.471-.514-.589-1.153-.589-1.806v-3.409c.011-.733-.022-1.372.547-1.995.644-.589 1.27-.541 1.999-.57h5.887l-.559-27.883.013-1.196c.021-5.91.306-10.391 3.577-14.013 2.515-2.73 7.088-4.297 12.527-4.319 4.922 0 8.744 1.303 10.494 2.026.935.395 1.987 1.15 1.945 2.322 0 1.109-.957 4.242-.957 4.242" transform="translate(149.5967 42.7285)"/></g></svg>