<svg height="387.51999" viewBox="0 0 753.25336 387.51999" width="753.25336" xmlns="http://www.w3.org/2000/svg" xmlns:xlink="http://www.w3.org/1999/xlink"><clipPath id="a"><path d="m2503.48 2294.05c-103.5 78.9-242.55 123.49-390.79 126.16l72.43 383.49-297.61-392.93c-169.47-23.92-350.31-85.95-512.38-182.77l-217.08 303.4c94.61 60.65 192.97 119.03 298.66 163.12 662.15 276.25 1167.31 209.02 1605.28-56.04z"/></clipPath><linearGradient id="b" gradientTransform="matrix(844.661 271.846 271.846 -844.661 1542.73 2358.7)" gradientUnits="userSpaceOnUse" spreadMethod="pad" x1="0" x2="1" y1="0" y2="0"><stop offset="0" stop-color="#fddc04"/><stop offset="1" stop-color="#f68a12"/></linearGradient><clipPath id="c"><path d="m297.629 934.141c-65.699 261.449-23.039 525.779 94.141 772.019l272.429 95.58-173.609 81.36c161.012 250.56 396.808 475.02 667.44 648.27l217.08-303.39c-202.67-123.83-346.91-287.73-419.426-453.44-77.079-158.32-93.758-322.1-39.043-460.22zm653.851 401.579c-.539 1-1.078 2-1.609 3.01.527-1 1.07-2.02 1.609-3.01z"/></clipPath><linearGradient id="d"><stop offset="0" stop-color="#00adef"/><stop offset=".850394" stop-color="#176fc0"/><stop offset="1" stop-color="#1c63b7"/></linearGradient><radialGradient id="e" cx="0" cy="0" gradientTransform="matrix(1990.05 0 0 -1990.05 1255.93 2370.31)" gradientUnits="userSpaceOnUse" r="1" spreadMethod="pad" xlink:href="#d"/><clipPath id="f"><path d="m1242.36 356.34-19.44 175.5-200.25-167.039c-352.619 43.379-617.94 230.129-709.92 516.328l666.898 409.861c3.782-5.13 7.563-10.17 11.524-15.21 76.048-94.95 188.098-155.97 321.478-182.07-133.38 26.1-245.43 87.12-321.478 182.07-3.961 5.04-7.742 10.08-11.524 15.21l-40.41-24.84c8.192-14.85 17.192-29.34 27.184-43.38 76.768-107.82 193.948-178.56 335.428-210.06l-56.79-425.429 100.7 140.188-27.26-153.598 331.29 434.969c147.78 24.03 319.95 80.01 476.55 169.29l267.57-373.95c-399.24-295.649-804.15-433.981-1151.55-447.84"/></clipPath><radialGradient id="g" cx="0" cy="0" gradientTransform="matrix(1990.07 0 0 -1990.07 1255.93 2370.33)" gradientUnits="userSpaceOnUse" r="1" spreadMethod="pad" xlink:href="#d"/><clipPath id="h"><path d="m2858.41 1039.81-47.27-.16c-1138.64-1163.83-2382.988-882.091-2586.945-172.388-222.20672 773.168 555.332 1632.348 1361.615 1921.998-734.134-148.94-1876.384-1181.95-1517.8959-2183.338 247.0629-690.1212 1464.3559-891.371 2516.0559-67.442l-79.25 110.758c181.55 152.492 304.15 295.594 353.69 390.572z"/></clipPath><radialGradient id="i" cx="0" cy="0" gradientTransform="matrix(1990.06 0 0 -1990.06 1255.93 2370.31)" gradientUnits="userSpaceOnUse" r="1" spreadMethod="pad" xlink:href="#d"/><clipPath id="j"><path d="m1318.5 573.871 27.26 153.598 259.48 361.201c149.94 20.52 310.59 74.16 468.99 162.27l52.1-72.81c-156.59-89.28-328.76-145.26-476.54-169.29z"/></clipPath><linearGradient id="k"><stop offset="0" stop-color="#1b64b8"/><stop offset=".850394" stop-color="#254aa5"/><stop offset="1" stop-color="#2745a1"/></linearGradient><radialGradient id="l" cx="0" cy="0" gradientTransform="matrix(1990.07 0 0 -1990.07 1255.93 2370.33)" gradientUnits="userSpaceOnUse" r="1" spreadMethod="pad" xlink:href="#k"/><clipPath id="m"><path d="m1301.85 1012.71c-141.48 31.5-258.66 102.24-335.428 210.06-9.992 14.04-18.992 28.53-27.184 43.38l40.41 24.84c3.782-5.13 7.563-10.17 11.524-15.21 76.048-94.95 188.098-155.97 321.478-182.07l-10.81-81"/></clipPath><clipPath id="n"><path d="m916.641 1314.32c-54.715 138.12-38.036 301.9 39.043 460.22-67.36-153.92-72.844-309.37-5.813-435.81.531-1.01 1.07-2.01 1.609-3.01z"/></clipPath><radialGradient id="o" cx="0" cy="0" gradientTransform="matrix(1990.05 0 0 -1990.05 1255.93 2370.31)" gradientUnits="userSpaceOnUse" r="1" spreadMethod="pad" xlink:href="#k"/><g transform="matrix(.13333333 0 0 -.13333333 0 387.52)"><g clip-path="url(#a)"><path d="m2503.48 2294.05c-103.5 78.9-242.55 123.49-390.79 126.16l72.43 383.49-297.61-392.93c-169.47-23.92-350.31-85.95-512.38-182.77l-217.08 303.4c94.61 60.65 192.97 119.03 298.66 163.12 662.15 276.25 1167.31 209.02 1605.28-56.04z" fill="url(#b)"/></g><g clip-path="url(#c)"><path d="m297.629 934.141c-65.699 261.449-23.039 525.779 94.141 772.019l272.429 95.58-173.609 81.36c161.012 250.56 396.808 475.02 667.44 648.27l217.08-303.39c-202.67-123.83-346.91-287.73-419.426-453.44-77.079-158.32-93.758-322.1-39.043-460.22zm653.851 401.579c-.539 1-1.078 2-1.609 3.01.527-1 1.07-2.02 1.609-3.01z" fill="url(#e)"/></g><g clip-path="url(#f)"><path d="m1242.36 356.34-19.44 175.5-200.25-167.039c-352.619 43.379-617.94 230.129-709.92 516.328l666.898 409.861c3.782-5.13 7.563-10.17 11.524-15.21 76.048-94.95 188.098-155.97 321.478-182.07-133.38 26.1-245.43 87.12-321.478 182.07-3.961 5.04-7.742 10.08-11.524 15.21l-40.41-24.84c8.192-14.85 17.192-29.34 27.184-43.38 76.768-107.82 193.948-178.56 335.428-210.06l-56.79-425.429 100.7 140.188-27.26-153.598 331.29 434.969c147.78 24.03 319.95 80.01 476.55 169.29l267.57-373.95c-399.24-295.649-804.15-433.981-1151.55-447.84" fill="url(#g)"/></g><g clip-path="url(#h)"><path d="m2858.41 1039.81-47.27-.16c-1138.64-1163.83-2382.988-882.091-2586.945-172.388-222.20672 773.168 555.332 1632.348 1361.615 1921.998-734.134-148.94-1876.384-1181.95-1517.8959-2183.338 247.0629-690.1212 1464.3559-891.371 2516.0559-67.442l-79.25 110.758c181.55 152.492 304.15 295.594 353.69 390.572" fill="url(#i)"/></g><path d="m1345.76 727.469.01.031 259.47 361.17zm780.57 450.661-52.1 72.81 52.11-72.81" fill="#5d65b9"/><g clip-path="url(#j)"><path d="m1318.5 573.871 27.26 153.598 259.48 361.201c149.94 20.52 310.59 74.16 468.99 162.27l52.1-72.81c-156.59-89.28-328.76-145.26-476.54-169.29z" fill="url(#l)"/></g><g clip-path="url(#m)"><path d="m1301.85 1012.71c-141.48 31.5-258.66 102.24-335.428 210.06-9.992 14.04-18.992 28.53-27.184 43.38l40.41 24.84c3.782-5.13 7.563-10.17 11.524-15.21 76.048-94.95 188.098-155.97 321.478-182.07l-10.81-81" fill="url(#l)"/></g><path d="m916.648 1314.3c0 .01-.003.01-.007.02l34.839 21.4zm33.223 24.43c-67.031 126.44-61.547 281.89 5.813 435.81.367.76.734 1.51 1.105 2.27-68.312-154.66-74.254-311-6.918-438.08" fill="#5d65b9"/><g clip-path="url(#n)"><path d="m916.641 1314.32c-54.715 138.12-38.036 301.9 39.043 460.22-67.36-153.92-72.844-309.37-5.813-435.81.531-1.01 1.07-2.01 1.609-3.01z" fill="url(#o)"/></g><g fill="#1c428d"><path d="m5312.59 1628.69c-53.91-77.56-128.37-135.35-207.62-136.72-70-1.24-135.81 39.05-95.25 166.72 41.94 132.62 128.45 335.39 128.45 335.39 204.42 82.51 270.8-22.96 268.46-104.86-1.48-51.93-27-164.09-94.04-260.53zm327.86 356.43c-37.44 141.22-148.73 198.33-305.39 193.18-39.15-1.28-84.89-7.46-132.02-16.26l138.29 361.21h-267.36l-448.29-1168.33-3.41-8.45h.16l-.17-.4.31.4 186.85.15 77.17 56.37s42.63-53.87 133.73-66.67c232.11-32.66 427.52 107.08 531.54 268.26 73.41 113.59 117.49 271.62 88.59 380.54"/><path d="m1947.6 2020.8s-84.82-229.15-147.2-361.67c-60.13-127.74-143.09-171.33-209.47-166.79-72.4 5.02-115.44 55.5-113.85 136.73 1.96 100.66 64.25 209.14 108.86 260.56 40.67 46.92 158.23 159.83 361.66 131.17zm-85.64 157.84c-177.76-17.46-316.04-68.21-456.38-196.51-108.28-98.94-179.01-254.04-182.18-377.18-4.1-159.69 115.82-301.82 353.43-264.94 64.32 9.95 145.26 63.33 145.26 63.33l37.14-56.36 186.94-.18 294.96 769.22c-57.06 28.69-198.2 80.42-379.17 62.62"/><path d="m3207.04 1454.51 268.75 702.27h265.03l-252.16-658.75c75.26-39.19 216.39-17.19 277.11 119.12l205.91 539.63h266.45l-253.87-659.97c105.1-34.55 218.29-15.97 276.01 120.28l206.93 539.69h264.33l-210.86-545.35c-52.89-122.05-138.93-289.32-434-289.32-98.83 0-188.46 34.9-245.81 80.65-64.78-39.66-200.19-80.65-302.19-80.65s-287.3 36.37-331.63 132.4"/><path d="m2445.9 2119.4-296.69-773.44h271.29l250.65 649.33c35.11 8.88 89.13 16.22 133.84 16.22 87.73 0 125.47-33.81 119.54-78.02-1.31-10.24-4.55-20.54-9.68-32.39l-213.21-555.14h271.57l209.77 544.88c8.38 22.11 14.74 42.65 17.4 63.29 15.66 119.21-70.37 220.95-330.08 221.24-81.78.08-154.45-5.27-201.06-10.85-42.52-5.02-119.16-15.94-223.34-45.12"/></g><path d="m2154.92 2641.9-42.24-221.6c21.6-.24 42.04-1.68 63.38-3.71l62.28 371.61z" fill="#e96216"/><path d="m3063.2 2638.44c-341.63 295.56-907.43 347.95-1477.78 150.57l.61.13c-806.288-289.65-1583.82687-1148.83-1361.616-1921.999 203.961-709.7 1448.296-991.442 2586.936 172.379h-122.89s-142.94-138.09-294.79-234.879l.42-.582c-399.19-295.637-804.14-433.989-1151.52-447.868l-19.45 175.481-200.21-166.992c-352.668 43.359-617.949 230.082-709.965 516.359l666.746 409.941c-14.109 18.93-22.445 34.54-28.191 44.73l-653.613-401.698c-65.703 261.488-23.114 525.818 94.101 772.028l272.442 95.6-173.637 81.31c161.004 250.62 396.824 475.08 667.477 648.33 94.62 60.66 192.98 119.03 298.66 163.12 20.7 8.64 41.23 16.93 61.62 24.9 632.04 246.95 1119.38 175.84 1543.65-80.94z" fill="#fff"/><path d="m2175.56 2755.63 9.56 48.07-297.66-392.9c23.59 3.12 42.98 5.5 66.56 7.22z" fill="#fff"/><path d="m1369.41 1084.68c-26.53 3.58-32.5 4.58-56.84 9.05l-67.57-506.441 28.12 39.16z" fill="#fff"/></g></svg>