<svg xmlns="http://www.w3.org/2000/svg" viewBox="0 0 245.999 188" enable-background="new 0 0 245.999 188"><defs><linearGradient id="0" gradientUnits="userSpaceOnUse" x1="88.42" y1="62.66" x2="249.34" y2="52.26"><stop offset=".16" stop-color="#ffd163"/><stop offset=".26" stop-color="#fec85d"/><stop offset=".424" stop-color="#fbb04c"/><stop offset=".629" stop-color="#f68832"/><stop offset=".741" stop-color="#f37021"/></linearGradient><linearGradient id="1" gradientUnits="userSpaceOnUse" x1="3.226" y1="107.74" x2="200.69" y2="94.98"><stop offset=".16" stop-color="#ffd67b"/><stop offset=".741" stop-color="#f37021"/></linearGradient></defs><switch><g><path d="m29.15 143.07h12.352c1.335 0 2.811 0 4.068 1.183.924.835 1.504 2.127 1.504 3.578 0 .944-.266 1.967-.775 2.718-.702 1.024-1.694 1.322-2.203 1.483.434.053.821.106 1.38.348 1.503.699 2.472 2.423 2.472 4.496 0 1.534-.485 3.065-1.575 4.04-1.21 1.076-3.03 1.153-3.901 1.153h-13.322v-18.997m1.669 8.262h10.441c.944 0 2.254-.053 3.198-1.02.824-.864.87-1.884.87-2.343 0-1.294-.556-2.291-1.26-2.801-.75-.536-1.962-.564-2.543-.564h-10.706v6.728m0 9.149h11.601c.851 0 2.135-.079 3.01-1.102.412-.484.825-1.346.825-2.478 0-1.478-.584-2.368-.968-2.743-.996-1.185-3.247-1.211-4.145-1.211h-10.319v7.534" fill="#414042"/><path d="m56.31 143.07h1.623v18.999h-1.623v-18.999" fill="#414042"/><g><path d="m30.365 167.84l4.441 15.234c.146.521.37 1.26.617 2.22.74-2.687.911-3.235 1.576-5.317l3.798-12.136h1.799l4.759 14.959c.27.876.42 1.371.716 2.495.347-1.399.446-1.783.888-3.319l4.02-14.13h1.652l-5.526 19.373h-2.02l-4.857-15.541c-.298-.873-.348-1.069-.519-1.916-.272.932-.318 1.043-.591 2l-4.785 15.455h-1.973l-5.772-19.373h1.778z" fill="#808285"/><path d="m80.64 177.48c0 5.593-4.02 10.25-10.406 10.25-6.093 0-10.16-4.356-10.16-10.223 0-5.693 3.992-10.246 10.333-10.246 6.906.056 10.233 5.263 10.233 10.219m-18.742.112c0 5.315 3.7 8.497 8.485 8.497 4.611 0 8.358-3.098 8.358-8.716 0-2.438-.911-5.205-3.057-6.798-.813-.599-2.935-1.777-5.821-1.639-5.571.274-7.965 4.631-7.965 8.656" fill="#808285"/><path d="m100.52 167.87c1.181 0 2.612 0 3.822.742 1.332.848 2.193 2.574 2.193 4.547 0 1.398-.393 2.988-1.677 4.109-1.329 1.153-3.178 1.262-4.511 1.315l7 8.635h-2.343l-6.88-8.635h-7.964v8.635h-1.676v-19.348h12.03m-10.358 9.07h9.345c1.775 0 3.354-.055 4.366-1.261.592-.71.84-1.725.84-2.602 0-1.256-.518-2.3-1.184-2.848-.889-.767-2-.767-2.962-.767h-10.405v7.478" fill="#808285"/><path d="m116.31 167.87v17.728h12.675v1.62h-14.375v-19.348h1.7" fill="#808285"/><path d="m136.06 167.87h8.704c1.581 0 3.038.056 4.636.933 3.231 1.753 4.491 5.424 4.491 8.794 0 3.725-1.456 6.547-3.528 8.06-2.046 1.476-4.414 1.563-6.411 1.563h-7.893v-19.347m1.727 17.728h5.55c2.318 0 4.858-.026 6.733-1.89 1.555-1.56 2.048-3.808 2.048-6 0-2.056-.492-4.053-1.529-5.535-1.823-2.66-4.516-2.687-5.797-2.687h-7v16.11" fill="#808285"/><path d="m161.15 167.84l4.44 15.234c.147.521.371 1.26.619 2.22.74-2.687.914-3.235 1.576-5.317l3.798-12.136h1.801l4.758 14.959c.27.876.42 1.371.715 2.495.346-1.399.444-1.783.891-3.319l4.02-14.13h1.651l-5.523 19.373h-2.023l-4.858-15.541c-.294-.873-.347-1.069-.518-1.916-.273.932-.322 1.043-.592 2l-4.781 15.455h-1.976l-5.767-19.373h1.771z" fill="#808285"/><path d="m192.31 167.87h1.653v19.348h-1.653v-19.348" fill="#808285"/><path d="m202.76 167.87h8.707c1.577 0 3.036.056 4.636.933 3.231 1.753 4.487 5.424 4.487 8.794 0 3.725-1.453 6.547-3.529 8.06-2.045 1.476-4.411 1.563-6.41 1.563h-7.892v-19.347zm1.728 17.728h5.547c2.321 0 4.859-.026 6.731-1.89 1.558-1.56 2.048-3.808 2.048-6 0-2.056-.49-4.053-1.529-5.535-1.824-2.66-4.512-2.687-5.795-2.687h-7v16.11" fill="#808285"/><path d="m228.61 167.87h16.67v1.616h-14.969v6.77h13.833v1.617h-13.833v7.725h15.685v1.62h-17.385v-19.348z" fill="#808285"/></g><path fill="url(#0)" d="m151.09 95.11l50.42 12.46 44.47-107.3z"/><path fill="url(#1)" d="m-.001 57.815l94.17 94.19.05-.03 56.87-56.86z"/><path fill="#f37021" d="m94.22 151.97l107.29-44.4-50.42-12.46z"/></g></switch></svg>
