<?xml version="1.0" encoding="UTF-8"?>
<svg width="678px" height="162px" viewBox="0 0 678 162" version="1.1" xmlns="http://www.w3.org/2000/svg" xmlns:xlink="http://www.w3.org/1999/xlink">
    <!-- Generator: Sketch 50.2 (55047) - http://www.bohemiancoding.com/sketch -->
    <title>Chorus - color</title>
    <desc>Created with Sketch.</desc>
    <defs>
        <linearGradient x1="108.703418%" y1="100%" x2="-23.8238701%" y2="-70.3898865%" id="linearGradient-1">
            <stop stop-color="#31BCB6" offset="0%"></stop>
            <stop stop-color="#00B5D0" offset="100%"></stop>
        </linearGradient>
    </defs>
    <g id="Chorus---color" stroke="none" stroke-width="1" fill="none" fill-rule="evenodd">
        <g id="Chorus-Logo---Gradient" fill="url(#linearGradient-1)" fill-rule="nonzero">
            <path d="M345.816859,13.6600703 L342.894729,13.6600703 C339.966517,13.6600703 337.582594,16.0352078 337.582594,18.9526281 L337.582594,138.060927 C337.582594,140.975318 339.966517,143.353486 342.894729,143.353486 L345.816859,143.353486 C348.745069,143.353486 351.132034,140.975318 351.132034,138.060927 L351.132034,18.9526281 C351.132034,16.0352078 348.745069,13.6600703 345.816859,13.6600703 M255.48929,28.534975 L252.56716,28.534975 C249.638948,28.534975 247.255025,30.9101125 247.255025,33.8275328 L247.255025,123.182994 C247.255025,126.100414 249.638948,128.475552 252.56716,128.475552 L255.48929,128.475552 C258.420542,128.475552 260.804465,126.100414 260.804465,123.182994 L260.804465,33.8275328 C260.804465,30.9101125 258.420542,28.534975 255.48929,28.534975 M300.653074,0 L297.733984,0 C294.802732,0 292.418809,2.37513755 292.418809,5.2955873 L292.418809,151.717968 C292.418809,154.635389 294.802732,157.010526 297.733984,157.010526 L300.653074,157.010526 C303.584326,157.010526 305.968249,154.635389 305.968249,151.717968 L305.968249,5.2955873 C305.968249,2.37513755 303.584326,0 300.653074,0 M323.236487,26.0598635 L320.314356,26.0598635 C317.383104,26.0598635 314.999181,28.4350011 314.999181,31.3524213 L314.999181,125.661134 C314.999181,128.578555 317.383104,130.953693 320.314356,130.953693 L323.236487,130.953693 C326.164698,130.953693 328.548621,128.578555 328.548621,125.661134 L328.548621,31.3524213 C328.548621,28.4350011 326.164698,26.0598635 323.236487,26.0598635 M278.072702,17.3803112 L275.150571,17.3803112 C272.219319,17.3803112 269.838438,19.7554488 269.838438,22.6758985 L269.838438,134.340687 C269.838438,137.258107 272.219319,139.633245 275.150571,139.633245 L278.072702,139.633245 C281.003955,139.633245 283.384836,137.258107 283.384836,134.340687 L283.384836,22.6758985 C283.384836,19.7554488 281.003955,17.3803112 278.072702,17.3803112 M368.400271,48.0692693 L365.475101,48.0692693 C362.546888,48.0692693 360.162965,50.4474363 360.162965,53.3648566 L360.162965,103.648699 C360.162965,106.56612 362.546888,108.941258 365.475101,108.941258 L368.400271,108.941258 C371.328482,108.941258 373.712405,106.56612 373.712405,103.648699 L373.712405,53.3648566 C373.712405,50.4474363 371.328482,48.0692693 368.400271,48.0692693 M232.908918,48.0692693 L229.986787,48.0692693 C227.058576,48.0692693 224.674653,50.4474363 224.674653,53.3648566 L224.674653,103.648699 C224.674653,106.56612 227.058576,108.941258 229.986787,108.941258 L232.908918,108.941258 C235.84017,108.941258 238.224093,106.56612 238.224093,103.648699 L238.224093,53.3648566 C238.224093,50.4474363 235.84017,48.0692693 232.908918,48.0692693 M644.878235,66.6687941 C634.514901,62.4868167 630.28899,58.8567644 630.28899,54.1403141 C630.28899,50.8178564 633.757303,48.1127693 638.020436,48.1127693 C645.075298,48.1127693 653.649737,53.7999967 656.465551,55.6673795 C656.977916,56.0098783 657.343577,56.2476643 657.385179,56.2563903 C658.037677,56.7603219 658.887239,56.9413881 659.848469,56.7712295 C661.328633,56.5159915 662.929224,55.4448642 663.734993,54.1861261 L670.916852,43.3766854 C671.72919,41.9652407 672.007269,38.7714928 669.776075,37.4843949 C664.315235,33.4965729 653.076064,26.8036639 639.141506,26.8036639 C622.511562,26.8036639 605.680176,36.7208622 605.680176,55.6761056 C605.680176,72.9406694 620.838715,82.5350025 633.55367,87.5437766 C642.929499,91.2523637 647.295543,95.4103444 647.295543,100.630726 C647.295543,104.919598 643.770302,107.914827 638.721105,107.914827 C635.114848,107.914827 628.927065,106.669179 619.938793,100.746347 C619.592837,100.517287 619.411102,100.403848 619.454893,100.436571 C618.554971,99.7973845 617.087945,99.5399648 615.793897,99.8017483 C614.629034,100.03517 613.707217,100.654723 613.107269,101.627682 L606.520979,113.213744 C605.043004,115.792303 605.868481,116.904879 607.401195,118.431945 C609.253589,120.281875 619.52496,129.500987 639.704232,129.500987 C661.087778,129.500987 673.866231,114.25433 673.866231,99.5116053 C673.866231,78.1523251 652.042577,69.5091356 644.878235,66.6687941 M579.676592,27.501751 L562.440132,27.501751 C560.368778,27.501751 558.684982,29.1815227 558.684982,31.2452424 L558.684982,87.7859255 C558.684982,97.1926474 551.623552,104.286957 542.26305,104.286957 C533.060199,104.286957 526.123574,97.1926474 526.123574,87.7859255 L526.123574,31.2452424 C526.123574,29.1815227 524.437589,27.501751 522.366235,27.501751 L505.129775,27.501751 C503.128489,27.501751 501.372437,29.2513315 501.372437,31.2452424 L501.372437,88.9050462 C501.372437,110.905694 519.714641,128.805081 542.26305,128.805081 C564.96254,128.805081 583.431741,110.905694 583.431741,88.9050462 L583.431741,31.2452424 C583.431741,29.2513315 581.677878,27.501751 579.676592,27.501751 M457.12737,59.8624459 C457.12737,54.7031467 452.752567,50.3444662 447.571994,50.3444662 L427.929173,50.3444662 L427.929173,69.9410769 L447.571994,69.9410769 C452.662794,69.9410769 457.12737,65.2311712 457.12737,59.8624459 M460.740195,88.0477081 L479.364857,122.450308 C480.041441,123.704683 480.034871,125.194662 479.34953,126.33778 C478.675136,127.461264 477.459912,128.106993 476.019162,128.106993 L457.381362,128.106993 C455.809237,128.106993 454.60934,127.14058 454.158284,126.246156 L435.827028,89.8518267 L427.929173,89.8518267 L427.929173,124.363502 C427.929173,126.357413 426.173121,128.106993 424.171835,128.106993 L407.498099,128.106993 C405.424557,128.106993 403.740761,126.427222 403.740761,124.363502 L403.740761,31.9411479 C403.740761,29.8774282 405.424557,28.1998379 407.498099,28.1998379 L449.395924,28.1998379 C466.840396,28.1998379 481.035515,42.2161158 481.035515,59.4457753 C481.035515,71.7190172 473.29312,82.5786329 460.740195,88.0477081 M191.096561,28.1998379 L174.422825,28.1998379 C172.349282,28.1998379 170.665486,29.8774282 170.665486,31.9411479 L170.665486,66.0317897 L132.778992,66.0317897 L132.778992,31.9411479 C132.778992,29.8774282 131.095196,28.1998379 129.021654,28.1998379 L112.347917,28.1998379 C110.346632,28.1998379 108.590579,29.9472369 108.590579,31.9411479 L108.590579,124.363502 C108.590579,126.357413 110.346632,128.106993 112.347917,128.106993 L129.021654,128.106993 C131.095196,128.106993 132.778992,126.427222 132.778992,124.363502 L132.778992,88.7370691 L170.665486,88.7370691 L170.665486,124.363502 C170.665486,126.427222 172.349282,128.106993 174.422825,128.106993 L191.096561,128.106993 C193.097847,128.106993 194.853899,126.357413 194.853899,124.363502 L194.853899,31.9411479 C194.853899,29.9472369 193.097847,28.1998379 191.096561,28.1998379 M26.0101523,77.7334729 C26.0101523,93.0150334 37.6543976,104.982862 52.5195313,104.982862 C59.1320964,104.982862 65.8847952,102.576643 70.581468,98.547373 C72.0506836,97.2908163 74.570903,97.4107995 75.7707989,98.8004289 L86.6662044,110.351587 C88.02594,111.706313 87.9602521,114.188884 86.5019842,115.641778 C77.1217762,124.712546 65.0834048,129.500987 51.6787284,129.500987 C23.1833902,129.500987 0,106.529561 0,78.294124 C0,49.9016172 23.1833902,26.8036639 51.6787284,26.8036639 C65.5410294,26.8036639 76.2262339,30.8961989 86.3268178,40.0716798 C87.143535,40.7937635 87.6164864,41.7623593 87.6471409,42.789856 C87.6756053,43.8108082 87.2705307,44.7946745 86.4997952,45.5582072 L75.5890628,56.8497642 C74.8927728,57.5456698 73.9950405,57.91871 73.0469476,57.91871 L73.044758,57.91871 C72.096665,57.91871 71.2011223,57.5434882 70.5223491,56.8650349 C65.6724049,52.5608924 59.0423231,50.0652313 52.3793975,50.0652313 C37.593089,50.0652313 26.0101523,62.2184895 26.0101523,77.7334729"></path>
        </g>
    </g>
</svg>