<?xml version="1.0" encoding="utf-8"?>
<!-- Generator: Adobe Illustrator 19.1.0, SVG Export Plug-In . SVG Version: 6.00 Build 0)  -->
<svg version="1.1" id="Layer_1" xmlns="http://www.w3.org/2000/svg" xmlns:xlink="http://www.w3.org/1999/xlink" x="0px" y="0px"
	 viewBox="0 0 132.4 50.8" style="enable-background:new 0 0 132.4 50.8;" xml:space="preserve">
<style type="text/css">
	.st0{fill:#0071CE;}
	.st1{fill:#333E48;}
	.st2{fill:#FFFFFF;}
</style>
<path class="st0" d="M50.7,25.4c0,14-11.3,25.3-25.3,25.3S0.1,39.4,0.1,25.4c0-14,11.3-25.3,25.3-25.3S50.7,11.4,50.7,25.4"/>
<g>
	<path class="st1" d="M60.3,36.9h3.5V14.6h-3.5v-2.2h18.9v5.5h-2.4v-3.3H66.5v9.8h10.1v2.3H66.5v10h11v-3.5h2.4v5.7H60.3V36.9z"/>
	<path class="st1" d="M82.5,36.9h2.7l9-24.5h2.9l9,24.5h2.7v2.2h-8.5v-2.2h3.1l-2.5-6.9H90.5L88,36.9H91v2.2h-8.5V36.9z M100.2,27.7
		l-4-10.9c-0.3-0.9-0.4-1.7-0.4-1.7h-0.1c0,0-0.1,0.8-0.4,1.7l-4.1,10.9H100.2z"/>
	<path class="st1" d="M111.4,36.9h3.5V14.6h-3.5v-2.2h12c1.9,0,3.3,0.3,4.6,0.9c1.9,0.9,3.3,3.1,3.3,5.9c0,2.7-1.4,4.7-3.4,5.8V25
		c2.7,0.8,4.5,3.4,4.5,6.6c0,3.3-1.9,6-4.5,7c-1.2,0.5-2.5,0.6-4,0.6h-12.5V36.9z M124,23.9c2.7,0,4.5-1.9,4.5-4.7
		c0-1.7-0.7-3.2-1.9-4c-0.8-0.5-1.9-0.7-3.2-0.7h-5.9v9.3H124z M123.9,36.8c0.8,0,1.9-0.1,2.8-0.4c1.8-0.8,2.9-2.6,2.9-4.9
		c0-3.2-2.2-5.3-5.3-5.3h-6.8v10.6H123.9z"/>
</g>
<g>
	<path class="st2" d="M25.4,10c5.3,0,10.4,3.7,12.1,8.6l-3-1.3c-1.6-2.6-4.8-5.2-9.2-5.2c-3.7,0-7.1,1.9-9.1,5.1l-3,1.3
		C15,13.6,20.1,10,25.4,10"/>
	<polygon class="st2" points="25.4,17.9 13.3,23.3 13.3,21.1 25.4,15.7 37.5,21.1 37.5,23.3 	"/>
	<rect x="13.3" y="37.2" class="st2" width="24.2" height="2"/>
	<rect x="27.8" y="25.4" class="st2" width="2.4" height="9.2"/>
	<rect x="20.5" y="25.4" class="st2" width="2.4" height="9.2"/>
	<rect x="13.3" y="25.4" class="st2" width="2.4" height="9.2"/>
	<rect x="35.1" y="25.4" class="st2" width="2.4" height="9.2"/>
</g>
</svg>
