<svg height="49" viewBox="0 0 287 49" width="287" xmlns="http://www.w3.org/2000/svg"><g fill="none"><path d="m32.6375 25.6125c-2.8375.2625-4.2625 4.925-4.1 10.7.1875 5.9 1.375 11.35 4.275 11.85l1.15.1625c.6125-6.8625 2.8625-11.8625 6.6-12.2l14.9875.0875c-.7125-6.475-3.1-10.2375-5.7-10.4875z" fill="#fff" transform="matrix(1 0 0 -1 0 73.9375)"/><path d="m32.6375 25.6125c-2.8375.2625-4.2625 4.925-4.1 10.7.1875 5.9 1.375 11.35 4.275 11.85l1.15.1625c.6125-6.8625 2.8625-11.8625 6.6-12.2l14.9875.0875c-.7125-6.475-3.1-10.2375-5.7-10.4875z" fill="#808183" transform="matrix(1 0 0 -1 0 73.9375)"/><path d="m14.725 11.425c-1.825.1625-2.75 3.175-2.65 6.9.125 3.8125.8875 7.325 2.7625 7.6375l11.7875 1.7c.15.05.2875.075.4375.075 1.6625 0 2.8-3.45 2.5625-8.1375-.25-5.0125-1.9375-7.925-3.7875-8.1z" fill="#fff" transform="matrix(1 0 0 -1 0 39.1625)"/><path d="m14.725 11.425c-1.825.1625-2.75 3.175-2.65 6.9.125 3.8125.8875 7.325 2.7625 7.6375l11.7875 1.7c.15.05.2875.075.4375.075 1.6625 0 2.8-3.45 2.5625-8.1375-.25-5.0125-1.9375-7.925-3.7875-8.1z" fill="#808183" transform="matrix(1 0 0 -1 0 39.1625)"/><path d="m2.1125.3125c-1.2875.1125-1.925 2.2125-1.85 4.8125.075 2.6625.6125 5.1125 1.925 5.35l8.2375 1.175c.1.0375.2125.05.3125.05 1.175 0 1.95-2.425 1.7875-5.6875-.175-3.5-1.35-5.5375-2.65-5.6625z" fill="#fff" transform="matrix(1 0 0 -1 0 12.0125)"/><path d="m2.1125.3125c-1.2875.1125-1.925 2.2125-1.85 4.8125.075 2.6625.6125 5.1125 1.925 5.35l8.2375 1.175c.1.0375.2125.05.3125.05 1.175 0 1.95-2.425 1.7875-5.6875-.175-3.5-1.35-5.5375-2.65-5.6625z" fill="#808183" transform="matrix(1 0 0 -1 0 12.0125)"/><path d="m41.4125 6.75c-3.1375.275-4.725 5.45-4.5375 11.825.2125 6.55 1.525 12.5625 4.725 13.1125l20.2375 2.9125c.25.0875.5.125.75.125 2.8625 0 4.775-5.9375 4.375-13.9625-.4-8.6-3.325-13.575-6.5-13.8875z" fill="#fff" transform="matrix(1 0 0 -1 0 41.475)"/><g fill="#1a5a75"><path d="m41.4125 6.75c-3.1375.275-4.725 5.45-4.5375 11.825.2125 6.55 1.525 12.5625 4.725 13.1125l20.2375 2.9125c.25.0875.5.125.75.125 2.8625 0 4.775-5.9375 4.375-13.9625-.4-8.6-3.325-13.575-6.5-13.8875z" transform="matrix(1 0 0 -1 0 41.475)"/><path d="m117.6 19.775-5.975-11.0125-7.05.0125 8.15 14.1-7.3125 13.025h7.325l4.875-10.0375 4.8875 10.0375h7.325l-7.3375-13.0125 8.125-14.1125-7.05.0125z" transform="matrix(1 0 0 -1 0 44.6625)"/><path d="m142.8125 10.425c0-.5375.0125-1.05.05-1.525s.175-.875.4125-1.225.6-.6125 1.1125-.7875c.5-.1875 1.225-.275 2.175-.275h3.85l.5375-.55v-1.35c0-1.0875-.325-1.85-.95-2.3-.6375-.45-1.7625-.675-3.3875-.675h-1.625c-1.625 0-2.9875.1625-4.1.4875-1.1.325-2 .7875-2.6875 1.3875s-1.175 1.325-1.4625 2.2c-.2875.8625-.4375 1.825-.4375 2.875l.0125 15.3h-3.8v4.3375l3.8.275 1.6375 7.325h4.8875l-.0125-7.05h7.6v-4.8875h-7.6z" transform="matrix(1 0 0 -1 0 37.6625)"/><path d="m168.6 31.0625h-6.5125l-.0125-22.5125h-6.5125l.025 26.85c2.175.1375 3.8875.25 5.15.325s2.325.125 3.175.1625 1.6.05 2.25.05h2.4375z" transform="matrix(1 0 0 -1 0 44.4875)"/><path d="m188.65 13.6875.0125 7.05-7.5375.0125c-.7625 0-1.3625-.075-1.7875-.25-.4375-.1625-.775-.375-1-.65-.2375-.275-.3875-.575-.4375-.925s-.0875-.7125-.0875-1.1125v-1.2c0-.3625.025-.725.075-1.0875s.2-.675.4375-.95.5625-.4875 1-.65 1.0375-.25 1.7875-.25c0 .0125 7.5375.0125 7.5375.0125zm-14.625 17.6375-.5375.55v1.3625c0 1.0875.3125 1.85.95 2.3s1.7625.675 3.3875.675l8.1375-.0125c1.625 0 3.025-.1875 4.175-.575 1.1625-.3875 2.1125-.9125 2.875-1.575.7625-.675 1.3125-1.4625 1.65-2.3875s.5125-1.9125.5125-2.95l-.0125-19.3625c-2.1625-.1375-4.0125-.25-5.5-.325-1.5-.075-2.8125-.125-3.9375-.1625s-2.1375-.05-3.0375-.05c-.8625 0-1.775 0-2.7125 0-1.625 0-2.9875.1625-4.1.4875-1.1.325-2 .7875-2.6875 1.3875s-1.175 1.3375-1.4625 2.2-.4375 1.825-.425 2.875v3.475c0 1.05.15 2.0125.4375 2.875s.775 1.6 1.475 2.2c.6875.6 1.5875 1.05 2.6875 1.375s2.475.4875 4.1.4875h1.9c.475 0 .9625-.025 1.4625-.05.5125-.0375 1.15-.0875 1.925-.1625s1.9125-.1875 3.3875-.325v1.0875c0 .6125-.0375 1.2-.1375 1.7625-.0875.5625-.3 1.05-.625 1.4625s-.8.75-1.4125 1-1.425.375-2.4375.3875z" transform="matrix(1 0 0 -1 0 45.025)"/><path d="m220.65 2.35.0125 14.75-13.025.0125-.0125-14.7625-6.7875.0125.025 33.6375 6.775-.0125-.0125-13.675 13.025-.0125.0125 13.675 6.7875-.0125-.025-33.6375z" transform="matrix(1 0 0 -1 0 38.325)"/><path d="m246.2125 13.725c1.625 0 2.75.2625 3.3625.7875s.925 1.35.925 2.4625l.0125 10.85c0 1.125-.3 1.9375-.925 2.4625-.6125.525-1.7375.7875-3.3625.7875h-2.275c-1.625 0-2.75-.2625-3.3625-.7875s-.925-1.35-.925-2.4625l-.0125-10.85c0-1.125.3-1.95.925-2.475.6125-.525 1.7375-.7875 3.3625-.7875zm-4.4-4.875c-1.625 0-2.9875.1625-4.1.4875-1.1.325-2 .7875-2.6875 1.3875s-1.175 1.325-1.4625 2.2c-.2875.8625-.4375 1.825-.4375 2.875l.0125 13.2375c0 1.05.15 2.0125.4375 2.875s.775 1.6 1.4625 2.2 1.5875 1.05 2.6875 1.3875c1.1.325 2.475.4875 4.1.4875h6.5125c1.625 0 2.9875-.1625 4.1-.4875 1.1-.325 2-.7875 2.6875-1.3875s1.175-1.325 1.4625-2.2.4375-1.825.425-2.875l-.0125-13.2375c0-1.05-.15-2.0125-.4375-2.875s-.775-1.6-1.4625-2.2-1.575-1.0625-2.6875-1.3875c-1.1-.325-2.475-.4875-4.1-.4875z" transform="matrix(1 0 0 -1 0 44.8375)"/><path d="m280.0625 27.9.0125 10.6375c0 .5125-.0125.975-.025 1.4125s-.125.8-.325 1.1125-.525.5375-.975.7-1.1125.25-1.975.25h-7.5375l-.0125-17.9 7.1125-.0125c.9375 0 1.6625.0875 2.1625.275.5125.175.875.4375 1.1125.7875.2375.3375.375.75.4125 1.2125.025.475.0375.9875.0375 1.525zm-2.175-8.675c-.4 0-.85 0-1.35 0-.5125 0-1.1.0125-1.7625.05-.675.0375-1.45.0875-2.3625.1625-.9.075-1.975.1875-3.2.325l-.0125-11.125h-6.5125l.025 37.7c2.175.1375 4.0125.25 5.5125.325s2.8125.125 3.9375.1625 2.1125.05 2.9875.05h2.7625c1.625 0 2.9875-.1625 4.1-.4875 1.1-.325 2-.7875 2.6875-1.3875s1.175-1.325 1.4625-2.2c.2875-.8625.4375-1.825.4375-2.875l-.0125-13.775c0-1.05-.15-2.0125-.4375-2.875s-.775-1.6-1.4625-2.2-1.5875-1.05-2.6875-1.375c-1.125-.3125-2.4875-.475-4.1125-.475z" transform="matrix(1 0 0 -1 0 55.5125)"/><path d="m85.5125 29.7125c.675.7 1.9375 1.05 3.825 1.05l13.8875-.0125.55.5375v1.625c0 1.0875-.3125 1.85-.95 2.3s-1.7625.675-3.3875.6875l-13.0125.0125c-1.625 0-2.9875-.1625-4.1-.4875-1.1-.325-2-.7875-2.6875-1.375-.6875-.6-1.175-1.325-1.4625-2.2-.2875-.8625-.4375-1.825-.4375-2.875v-4.2875c0-.175.025-.3375.0375-.5125v-9.25c-.025-.2-.0375-.4-.0375-.6125v-5.1c0-1.05.1375-2.0125.4375-2.875.2875-.8625.775-1.6 1.4625-2.2s1.575-1.0625 2.6875-1.3875c1.1-.325 2.4625-.4875 4.1-.4875l13.025-.0125c1.625 0 2.7625.225 3.3875.675.6375.45.95 1.225.95 2.3125v1.625l-.5375.5375-13.8875.0125c-1.8875 0-3.1625.35-3.825 1.0625-.675.7-1 1.6125-1 2.7375v2.0625c0 1.05.3 1.95.9 2.6875s1.725 1.1125 3.3875 1.1125l9-.0125v4.825l-9.0125.0125c-1.6625 0-2.7875.375-3.3875 1.1125s-.9 1.6375-.8875 2.6875v1.25c-.025 1.15.3125 2.0625.975 2.7625" transform="matrix(1 0 0 -1 0 38.1625)"/></g></g></svg>