<svg width="160" height="66" viewBox="0 0 160 66" fill="none" xmlns="http://www.w3.org/2000/svg">
<path fill-rule="evenodd" clip-rule="evenodd" d="M148.449 30.6603H142.203V5.9103H148.121V8.6603C148.888 7.0103 150.751 5.4703 153.052 5.3603C157.107 5.1403 159.847 7.5603 159.847 12.7303V30.6603H153.381V11.9603C153.381 9.7603 153.381 7.8903 151.956 7.5603C151.408 7.3403 150.532 7.5603 149.765 8.1103C148.888 8.9903 148.449 10.2003 148.449 11.9603C148.449 12.4003 148.449 30.6603 148.449 30.6603Z" fill="white"/>
<path fill-rule="evenodd" clip-rule="evenodd" d="M41.8083 7.52507C40.3837 6.20507 38.5206 5.32507 36.3289 5.32507C34.1371 5.32507 32.4932 6.20507 30.8494 7.52507C28.2193 9.72507 26.5754 13.7951 26.5754 18.3051C26.5754 22.9251 28.2193 26.7751 30.8494 29.0851C32.4932 30.4051 34.1371 31.2851 36.3289 31.2851C38.5206 31.2851 40.3837 30.4051 41.8083 29.0851C44.548 26.8851 46.0823 22.9251 46.0823 18.3051C46.0823 13.7951 44.548 9.72507 41.8083 7.52507ZM39.3974 18.3051C39.3974 22.9251 39.3974 26.6651 38.6302 28.5351C38.0823 29.4151 37.5343 29.9651 36.2193 29.9651C35.1234 29.9651 34.3563 29.4151 34.0275 28.5351C33.1508 26.6651 33.1508 23.0351 33.1508 18.3051C33.1508 13.9051 33.1508 9.94507 34.0275 8.07507C34.3563 7.19507 35.1234 6.64507 36.2193 6.64507C37.5343 6.64507 38.0823 7.19507 38.6302 8.07507C39.6165 9.94507 39.3974 13.7951 39.3974 18.3051Z" fill="white"/>
<path fill-rule="evenodd" clip-rule="evenodd" d="M106.137 40.1279V46.8379H104.932C104.165 43.9779 103.069 41.5579 100.11 41.4479C98.2467 41.2279 96.6029 42.3279 96.3837 44.0879C96.1645 45.7379 96.7125 47.2779 100.11 49.0379C104.384 51.4579 107.671 52.5579 107.671 57.5079C107.671 62.8979 103.069 65.4279 99.233 65.4279C97.5892 65.4279 91.8906 65.4279 91.8906 65.4279V56.1879H93.2056C94.0823 61.0279 95.6166 63.9979 99.1234 64.1079C101.315 64.1079 102.959 62.7879 102.959 60.3679C102.959 57.9479 101.425 56.6279 97.918 54.5379C94.0823 52.1179 91.6714 50.6879 91.6714 47.2779C91.6714 42.8779 94.8495 40.0179 99.781 40.0179C101.425 40.1279 106.137 40.1279 106.137 40.1279Z" fill="white"/>
<path fill-rule="evenodd" clip-rule="evenodd" d="M114.269 30.6603V12.7303C114.269 7.56026 111.529 5.14026 107.474 5.36026C104.734 5.58026 103.09 7.45026 102.323 8.88026C101.447 6.24026 99.3644 5.14026 96.4055 5.36026C93.9946 5.58026 92.1316 7.01026 91.474 8.66026V5.91026H85.7754V30.6603H92.022C92.022 30.6603 92.022 12.5103 92.022 11.9603C92.022 10.0903 92.2411 8.99026 93.337 8.11026C94.1042 7.56026 94.7617 7.34026 95.4192 7.56026C96.8439 7.89026 96.8439 9.76026 96.8439 11.9603V30.6603H103.09V11.8503C103.09 10.2003 103.419 9.10026 104.406 8.11026C105.173 7.56026 105.83 7.34026 106.488 7.56026C107.912 7.89026 108.132 9.76026 108.132 11.9603V30.6603H114.269Z" fill="white"/>
<path fill-rule="evenodd" clip-rule="evenodd" d="M50.366 0.697388H56.8317V30.7274H50.366V0.697388Z" fill="white"/>
<path fill-rule="evenodd" clip-rule="evenodd" d="M79.6164 30.7274V0.697388H73.1507V7.73739C72.6027 6.41739 71.2877 5.53739 69.4247 5.53739C64.9315 5.53739 61.2055 10.3774 60.9863 17.7474C60.7671 22.6974 62.411 31.0574 68.8767 31.0574C71.5069 31.0574 72.9315 29.6274 73.4795 28.3074V30.7274H79.6164ZM72.0548 7.95739C73.3699 9.82739 73.3699 14.2274 73.3699 17.7474C73.3699 21.4874 73.589 26.2174 72.0548 28.3074C71.5069 29.0774 70.9589 29.4074 69.9726 29.4074C68.6575 29.4074 67.8904 27.9774 67.5616 25.5574C67.3425 23.3574 67.3425 20.6074 67.3425 17.6374C67.3425 12.6874 67.6712 7.07739 70.0822 7.07739C71.1781 6.96739 71.5069 7.40739 72.0548 7.95739Z" fill="white"/>
<path fill-rule="evenodd" clip-rule="evenodd" d="M133.502 6.64509C135.145 7.52509 136.241 9.06509 136.241 12.3651V30.7351H130.214V27.9851C129.447 30.0751 127.474 31.2851 124.734 31.2851C122.543 31.2851 118.597 30.1851 118.597 24.4651C118.597 19.0751 122.104 17.9751 125.94 16.3251C129.447 14.7851 129.775 14.5651 129.775 13.1351C129.775 11.8151 129.775 10.7151 129.775 9.06509C129.775 7.41509 128.899 6.64509 127.036 6.64509C126.269 6.86509 124.954 7.19509 124.954 8.07509C124.734 9.17509 126.049 9.17509 126.269 10.8251C126.488 13.4651 124.406 14.3451 122.543 14.1251C121.228 14.1251 119.803 13.3551 119.584 11.3751C119.365 8.07509 123.091 5.21509 128.241 5.21509C130.762 5.32509 132.186 5.87509 133.502 6.64509ZM129.775 15.8851L127.803 17.2051C125.721 18.5251 125.392 20.1751 125.173 22.0451C124.954 23.4751 124.954 24.7951 125.173 26.9951C125.392 29.0851 126.597 29.4151 127.803 29.0851C129.118 28.5351 129.885 26.1151 129.885 23.5851C129.775 23.4751 129.775 16.7651 129.775 15.8851Z" fill="white"/>
<path fill-rule="evenodd" clip-rule="evenodd" d="M42.2171 41.2279C43.8609 42.3279 44.7376 43.6479 44.7376 46.9479V65.4279H38.9294V62.6779C38.1623 64.5479 36.1897 65.8679 33.45 65.8679C31.039 65.8679 27.313 64.9879 27.313 59.1579C27.313 53.7679 30.8198 52.6679 34.5459 51.0179C38.1623 49.3679 38.4911 49.1479 38.4911 47.9379C38.4911 46.6179 38.4911 45.5179 38.4911 43.8679C38.4911 41.9979 37.6144 41.2279 35.7513 41.4479C34.9842 41.4479 33.6692 41.7779 33.6692 42.7679C33.45 44.0879 34.765 44.0879 34.9842 45.7379C35.2034 48.1579 33.1212 49.0379 31.2582 49.0379C29.9431 48.8179 28.5185 48.1579 28.2993 46.0679C28.1897 42.8779 31.9157 40.1279 37.0664 40.1279C39.4774 40.1279 40.902 40.4579 42.2171 41.2279ZM38.4911 50.4679L36.4089 51.7879C34.4363 53.1079 34.1075 54.7579 33.8883 56.6279C33.6692 58.0579 33.6692 59.5979 33.8883 61.5779C33.8883 63.7779 35.2034 64.2179 36.2993 63.6679C37.7239 63.1179 38.4911 60.9179 38.4911 58.1679C38.4911 58.0579 38.4911 51.4579 38.4911 50.4679Z" fill="white"/>
<path fill-rule="evenodd" clip-rule="evenodd" d="M86.7748 47.5221C86.7748 42.3521 84.035 39.7121 79.9802 40.1521C77.8981 40.3721 76.2542 41.2521 75.3775 42.5721V35.3121H69.1309V52.3621C69.1309 58.6321 64.7474 64.5721 60.2542 64.3521C57.0761 64.3521 56.4186 61.9321 55.9803 59.4021C55.4323 55.6621 55.4323 51.3721 55.8707 46.7521C56.1994 43.7821 56.9666 41.3621 59.1583 41.3621C60.8022 41.3621 61.0213 42.4621 60.2542 43.2321C59.4871 44.2221 58.3912 45.1021 58.9392 47.1921C59.4871 49.3921 62.9939 49.8321 64.6378 48.0721C65.9529 46.6421 65.7337 44.2221 64.857 42.6821C63.7611 40.8121 61.8981 40.0421 59.1583 40.0421C55.6515 40.0421 48.9666 43.2321 48.9666 53.1321C48.9666 63.9121 55.7611 65.6721 59.7063 65.6721C64.0898 65.6721 68.035 61.8221 69.1309 58.6321V65.3421H75.3775V46.6421C75.3775 44.7721 75.7063 43.6721 76.6926 42.7921C77.4597 42.2421 78.3364 42.0221 78.8844 42.2421C80.309 42.5721 80.309 44.4421 80.309 46.6421V65.3421H86.7748V47.5221Z" fill="white"/>
<path fill-rule="evenodd" clip-rule="evenodd" d="M22.2674 0.141846V10.7018H20.9524C19.8565 5.53185 17.4455 1.57185 14.1579 1.46185C11.9661 1.24185 10.651 2.56185 9.55511 4.43185C8.45922 6.63185 7.91128 11.2518 7.91128 16.8618C7.91128 22.0318 8.13046 25.8818 8.6784 28.7418C9.00717 30.0618 9.99347 32.0418 12.4044 32.0418C13.7195 32.0418 14.5962 31.7118 15.1442 30.9418C16.0209 29.8418 16.24 27.6418 16.24 26.1018C16.24 23.6818 16.24 22.9118 16.24 21.1518C16.24 19.3918 15.6921 18.0718 14.7058 17.5218C13.9387 17.1918 12.8428 17.1918 12.2948 16.9718V15.6518H22.5962V42.1618H21.2811C20.7332 40.0718 20.4044 38.6418 19.4181 36.9918C18.5414 35.3418 16.8976 33.4718 14.1579 33.4718C11.1989 33.2518 9.00717 35.1218 9.00717 37.8718C9.00717 41.6118 11.1989 42.4918 15.2537 44.6918C19.0894 46.8918 24.1305 48.7618 24.1305 55.2518C24.1305 61.5218 18.7606 65.4818 12.7332 65.4818C11.4181 65.4818 2.97977 65.4818 2.97977 65.4818V52.7218H4.29484C5.93868 62.4018 9.99347 64.0518 12.7332 64.0518C16.24 64.0518 17.8839 61.8518 17.8839 58.6618C17.6647 54.5918 14.925 53.1618 11.0894 51.0718C5.60991 47.8818 2.97977 46.4518 2.97977 41.2818C3.19895 36.8818 6.7058 34.0218 10.5414 32.9218C2.43183 32.0418 0.0208688 24.5618 0.240047 16.6418C0.240047 8.72185 4.84279 0.141846 13.9387 0.141846C17.8839 0.141846 22.2674 0.141846 22.2674 0.141846Z" fill="white"/>
</svg>
