<svg width="905" height="433" viewBox="0 0 905 433" fill="none" xmlns="http://www.w3.org/2000/svg">
<path d="M55.631 170.407C71.761 162.484 89.616 158.724 107.571 159.468C142.301 160.668 161.379 178.279 162.135 212.831C162.98 249.029 162.713 284.915 162.579 321.068C162.579 335.789 158.71 339.167 144.169 339.167H124.024C111.172 339.167 107.17 335.254 106.903 322.314V225.416C106.903 210.43 99.832 204.248 84.669 204.871C82.029 204.916 79.398 205.168 76.797 205.627C56.92 209.674 55.763 211.096 55.763 231.374V317.733C55.763 336.188 52.606 339.3 34.418 339.3H14.275C4.803 339.3 0.623 334.854 0 325.071V96.899C0 80.223 3.558 76.7111 19.967 76.7111H37.754C51.54 76.7111 55.764 80.579 56.032 94.498C56.432 115.354 56.032 136.209 56.032 157.021C55.631 160.847 55.631 164.982 55.631 170.407Z" fill="black"/>
<path d="M352.508 254.944C351.307 264.548 350.595 276.865 348.06 288.873C344.05 315.923 323.051 337.301 296.075 341.792C277.64 345.751 258.55 345.509 240.222 341.079C216.998 336.604 198.494 319.036 192.818 296.076C184.42 267.115 184.42 236.367 192.818 207.405C201.712 176.988 224.968 160.668 259.033 159.51C271.323 158.855 283.647 159.616 295.764 161.778C327.915 168.227 346.147 190.017 350.284 225.591C351.307 234.621 351.617 243.336 352.508 254.944ZM296.387 255.655C295.764 245.737 295.409 238.978 294.785 232.307C294.395 228.81 293.679 225.358 292.651 221.99C290.61 210.769 280.409 202.913 269.039 203.803C257.949 202.964 248.021 210.647 246.047 221.59C241.004 241.584 241.004 262.519 246.047 282.513C248.122 293.646 258.454 301.28 269.705 299.989C280.364 300.725 289.9 293.401 291.939 282.915C293.912 273.899 295.396 264.784 296.387 255.61V255.655V255.655Z" fill="black"/>
<path d="M708.217 227.995C710.663 209.407 706.527 203.671 688.607 204.515C674.002 205.748 659.491 207.901 645.16 210.962C633.019 213.142 624.126 210.073 622.437 200.647C619.679 185.084 620.747 171.742 633.242 168.007C662.11 158.51 693.003 156.973 722.67 163.559C749.618 170.006 762.691 187.838 762.691 216.922V319.911C762.691 327.694 762.691 335.699 753.443 338.723C743.145 342.478 731.598 339.301 724.671 330.807L721.825 326.672C706.055 339.288 686.178 345.624 666.015 344.459C622.214 342.859 597.043 301.102 616.076 261.392C624.97 242.493 642.759 236.533 661.126 233.599C676.955 231.24 692.653 229.773 708.217 227.995ZM709.063 258.322C698.434 259.923 689.096 260.811 680.025 262.77C670.564 263.998 663.421 271.953 663.214 281.491C661.215 291.074 666.285 300.731 675.31 304.525C684.204 307.994 703.103 304.525 707.461 298.479C708.298 297.307 708.762 295.913 708.794 294.476C709.063 282.78 709.063 271.128 709.063 258.189V258.322V258.322Z" fill="black"/>
<path d="M390.617 165.693V142.703C389.808 135.656 394.359 129.104 401.246 127.405C410.314 124.365 419.532 121.782 428.861 119.667C435.596 117.43 442.871 121.078 445.109 127.813C445.707 129.613 445.899 131.525 445.671 133.408C445.982 143.325 445.671 153.153 445.671 164.181H472.041C484.893 164.493 489.295 168.626 489.83 181.968C490.541 209.005 489.074 210.519 462.348 210.519H446.827C446.413 212.931 446.131 215.367 445.982 217.81V274.866C445.982 292.653 451.319 298.078 468.617 299.323C483.781 300.435 487.918 303.771 487.918 316.133C488.451 335.832 484.447 342.503 468.617 343.437C456.06 344.382 443.436 343.74 431.04 341.526C405.293 336.322 391.419 319.6 390.573 292.387C389.817 268.64 390.262 244.848 390.174 221.235V210.562H374.61C367.283 211.151 360.86 205.703 360.247 198.378C360.247 197.962 360.247 197.563 360.247 197.177C358.111 178.989 361.358 174.142 378.657 169.249L390.617 165.693Z" fill="black"/>
<path d="M584.015 276.29C584.015 307.104 584.593 337.922 584.015 368.738C583.865 404.276 554.933 432.965 519.397 432.813C516.017 432.798 512.642 432.519 509.306 431.974C496.9 430.418 492.496 425.527 492.319 412.675V401.245C492.853 390.484 496.189 386.748 506.861 384.791C523.314 381.725 528.696 375.541 528.739 358.334V183.081C528.739 168.227 532.521 164.269 547.418 163.782H567.65C579.613 164.314 584.103 168.673 584.191 180.722V275.709L584.015 276.29Z" fill="black"/>
<path d="M832.418 176.365C846.986 165.913 864.346 160.043 882.27 159.511C900.057 159.511 904.148 163.247 904.103 180.857V188.773C904.103 200.158 899.39 204.204 888.272 205.36C877.807 206.637 867.418 208.463 857.145 210.83C850.253 212.299 847.628 216.478 847.762 224.171C848.294 256.322 847.762 288.206 847.762 320.181C847.762 335.878 844.335 339.168 828.46 339.48H805.559C798.975 340.018 793.201 335.117 792.663 328.531C792.599 327.736 792.613 326.934 792.709 326.141V178.233C792.199 171.647 797.126 165.893 803.712 165.383C803.721 165.381 803.728 165.381 803.736 165.381H804.27C815.343 163.514 826.992 161.78 832.418 176.365Z" fill="black"/>
<path d="M578.056 132.475C588.107 96.366 584.505 78.178 566.849 74.664C569.562 86.938 572.585 99.523 559.691 108.016C552.93 112.463 547.595 110.773 535.632 101.568C530.117 112.908 531.986 124.203 534.52 136.298C517.356 133.319 503.836 126.203 497.568 109.617C491.1 94.548 494.642 77.049 506.461 65.681C510.59 61.489 515.053 57.637 519.801 54.163C539.102 39.666 542.836 25.614 532.653 3.82397C532.198 2.57597 531.827 1.299 531.543 0C553.002 3.261 573.296 11.871 590.552 25.037C628.175 55.809 623.64 111.084 582.104 131.408C580.699 131.516 579.327 131.876 578.056 132.475Z" fill="#EE4854"/>
</svg>
