<svg xmlns="http://www.w3.org/2000/svg" xmlns:xlink="http://www.w3.org/1999/xlink" viewBox="0 0 1200 1000" enable-background="new 0 0 1200 1000"><defs><linearGradient id="M" gradientUnits="userSpaceOnUse" x1="802.72" y1="196.94" x2="585.99" y2="541.69" xlink:href="#G"/><linearGradient id="L" gradientUnits="userSpaceOnUse" x1="1036.94" y1="343.52" x2="820.23" y2="688.24" xlink:href="#G"/><linearGradient id="V" gradientUnits="userSpaceOnUse" x1="290.92" y1="465.37" x2="301.57" y2="664.77" xlink:href="#O"/><linearGradient id="K" gradientUnits="userSpaceOnUse" x1="820.52" y1="207.84" x2="604.39" y2="551.64" xlink:href="#G"/><linearGradient id="I" gradientUnits="userSpaceOnUse" x1="546.05" y1="38.01" x2="329.7" y2="382.15" xlink:href="#G"/><linearGradient id="H" gradientUnits="userSpaceOnUse" x1="390.92" y1="-59.55" x2="174.78" y2="284.26" xlink:href="#G"/><linearGradient id="J" gradientUnits="userSpaceOnUse" x1="798.65" y1="196.45" x2="582.19" y2="540.77" xlink:href="#G"/><linearGradient id="N" gradientUnits="userSpaceOnUse" x1="516.19" y1="17.398" x2="299.92" y2="361.41" xlink:href="#G"/><linearGradient id="U" gradientUnits="userSpaceOnUse" x1="670.72" y1="445.22" x2="681.38" y2="644.66" xlink:href="#O"/><linearGradient id="T" gradientUnits="userSpaceOnUse" x1="942.39" y1="430.8" x2="953.05" y2="630.27" xlink:href="#O"/><linearGradient id="O" gradientUnits="userSpaceOnUse" x1="515.97" y1="453.42" x2="526.63" y2="652.85"><stop stop-color="#e5e5e5"/><stop offset="1" stop-color="#999"/></linearGradient><linearGradient id="S" gradientUnits="userSpaceOnUse" x1="609.1" y1="448.49" x2="619.76" y2="647.93" xlink:href="#O"/><linearGradient id="Q" gradientUnits="userSpaceOnUse" x1="478.82" y1="455.38" x2="489.48" y2="654.81" xlink:href="#O"/><linearGradient id="P" gradientUnits="userSpaceOnUse" x1="238.95" y1="468.11" x2="249.6" y2="667.48" xlink:href="#O"/><linearGradient id="R" gradientUnits="userSpaceOnUse" x1="814.42" y1="437.6" x2="825.08" y2="637.07" xlink:href="#O"/><linearGradient id="G" gradientUnits="userSpaceOnUse" x1="635.78" y1="93.58" x2="419.78" y2="437.17"><stop stop-color="#fff" stop-opacity="0"/><stop offset="1" stop-color="#fff"/></linearGradient><linearGradient id="5" gradientUnits="userSpaceOnUse" x1="947.04" y1="516.29" x2="942.83" y2="632.12" xlink:href="#1"/><linearGradient id="4" gradientUnits="userSpaceOnUse" x1="674.88" y1="575.06" x2="340.47" y2="481.01" xlink:href="#0"/><linearGradient id="F" gradientUnits="userSpaceOnUse" x1="791.87" y1="219.78" x2="230.97" y2="400.37" xlink:href="#1"/><linearGradient id="3" gradientUnits="userSpaceOnUse" x1="813.5" y1="200.43" x2="796.65" y2="345.74" xlink:href="#1"/><linearGradient id="1" gradientUnits="userSpaceOnUse" x1="245.76" y1="161.87" x2="226.8" y2="317.76"><stop stop-color="#0d3594"/><stop offset=".478" stop-color="#4dbcd7"/><stop offset="1" stop-color="#064d82"/></linearGradient><linearGradient id="0" gradientUnits="userSpaceOnUse" x1="739.96" y1="345.87" x2="405.49" y2="251.8"><stop stop-color="#40a629"/><stop offset=".478" stop-color="#cce70b"/><stop offset="1" stop-color="#40a629"/></linearGradient><linearGradient id="2" gradientUnits="userSpaceOnUse" x1="776.45" y1="217.41" x2="441.95" y2="123.33"><stop stop-color="#808080"/><stop offset=".478" stop-color="#ccc"/><stop offset="1" stop-color="#666"/></linearGradient><linearGradient id="6" gradientUnits="userSpaceOnUse" x1="719.21" y1="418.7" x2="384.74" y2="324.63" xlink:href="#0"/><linearGradient id="E" gradientUnits="userSpaceOnUse" x1="833.09" y1="348.64" x2="272.47" y2="529.14" xlink:href="#0"/><linearGradient id="D" gradientUnits="userSpaceOnUse" x1="884.39" y1="507.36" x2="323.89" y2="687.83" xlink:href="#1"/><linearGradient id="7" gradientUnits="userSpaceOnUse" x1="283.74" y1="425.59" x2="250.02" y2="547.8" xlink:href="#1"/><linearGradient id="C" gradientUnits="userSpaceOnUse" x1="871.1" y1="465.26" x2="310.36" y2="645.8" xlink:href="#0"/><linearGradient id="B" gradientUnits="userSpaceOnUse" x1="774.65" y1="169.24" x2="214.29" y2="349.66" xlink:href="#1"/><linearGradient id="8" gradientUnits="userSpaceOnUse" x1="782.52" y1="192.54" x2="221.9" y2="373.04" xlink:href="#0"/><linearGradient id="A" gradientUnits="userSpaceOnUse" x1="735.26" y1="47.07" x2="174.71" y2="227.55" xlink:href="#2"/><linearGradient id="9" gradientUnits="userSpaceOnUse" x1="727.22" y1="21.05" x2="166.45" y2="201.6" xlink:href="#1"/></defs><switch><g><g><path fill="#1a1a1a" d="m17.13 762.91h64.54v231.09h-64.54z"/><path fill="#1a1a1a" d="m17.13 679.16h64.54v57.44h-64.54z"/><path d="m174.06 939.19v54.811h-53.05v-54.811h53.05" fill="#1a1a1a"/><path d="m190.41 808.96v-46.04h44.22c0-1.164 0-2.335 0-3.513 0-1.157 0-2.474 0-3.942 0-25.14 2.572-43.991 7.734-56.57 5.148-12.562 23.799-18.995 55.924-19.288l58.35-.439v44.727c-1.181.29-2.651.361-4.42.213-1.763-.139-3.685-.213-5.741-.213-2.371 0-4.873-.074-7.527-.223-2.647-.139-5.155-.226-7.506-.226-5.305 0-10.32.375-15.04 1.104-4.716.732-8.252 2.123-10.607 4.165-3.253 2.346-5.383 5.41-6.414 9.207-1.031 3.807-1.548 7.608-1.548 11.401 0 1.468 0 2.781 0 3.949 0 1.175.143 2.339.446 3.503 0 1.174 0 2.353 0 3.513 0 1.171 0 2.194 0 3.068l58.35-.439v46.04h-58.35v185.04h-63.66v-185.04h-44.22" fill="#1a1a1a"/><path d="m513.14 762.91c13.553.294 26.593 1.826 39.13 4.604 12.526 2.781 23.799 9.143 33.82 19.07 8.548 8.191 14.506 17.834 17.908 28.938 3.376 11.12 5.081 22.515 5.081 34.21v144.26h-165.34c-23.87 0-42.15-6.5-54.818-19.515-12.679-13-18.426-31.06-17.242-54.15 2.055-27.767 11.937-45.753 29.617-53.938 17.684-8.184 38.75-12.272 63.22-12.272l80.9-.445c.885-19-4.052-30.835-14.809-35.519-10.763-4.671-24.391-7.01-40.897-7.01l-102.56-.439v-47.795h125.99m-44.21 184.6h76.922v-47.791h-72.5c-.595.294-1.184.442-1.766.442-.595 0-1.181 0-1.766 0-8.258.294-15.918 1.829-22.986 4.604-7.081 2.781-10.773 9.281-11.06 19.508-.592 11.401 2.583 18.13 9.511 20.17 6.925 2.055 14.805 3.22 23.649 3.51v-.446" fill="#1a1a1a"/><path d="m762.03 762.91c33.31.294 52.606 7.891 57.911 22.802 5.312 14.911 7.813 34.936 7.517 60.07 0 2.346 0 4.681 0 7.02 0 2.342 0 4.823 0 7.456l-58.802-.442c0-1.458 0-3.068 0-4.823s0-3.358 0-4.82c0-21.341-1.698-33.768-5.081-37.28-3.392-3.507-15.69-5.262-36.916-5.262-1.174 0-2.28 0-3.311 0-1.031 0-2.144 0-3.318 0v186.36h-61.44v-231.09h103.44" fill="#1a1a1a"/><path d="m1098.02 762.91c30.05.591 53.627 6.727 70.73 18.418 17.09 11.698 25.789 33.913 26.08 66.65v146.02h-61.889v-138.56c0-21.631-4.641-34.14-13.934-37.497-9.282-3.351-23.21-4.739-41.786-4.161-2.936.294-5.951.435-9.05.435-3.093 0-6.268 0-9.504 0v179.78h-62.787v-180.22h-72.06v180.22h-61.882v-231.09h236.08" fill="#1a1a1a"/></g><g><path d="m513.39 542.27c-45.746-7.567-91.11-15.391-138.23-23.825 50.43-8.782 99.93-18.846 147.37-29.956 48.12 7.317 94.29 14.05 140.69 20.502-48.13 12.229-98.46 23.407-149.83 33.28" fill="url(#O)"/><path d="m219.96 524.48c-49.28-9.967-100.78-20.73-156.96-32.786 65.782-6.954 130.63-16.09 193.03-27.2 57.945 10.25 110.91 19.341 161.4 27.709-63.54 12.799-129.9 23.65-197.48 32.28" fill="url(#P)"/><path d="m474.36 480.03c-28.706-4.522-57.62-9.187-87.995-14.18 32.901-7.04 65.33-14.693 96.59-22.805 30.798 4.507 60.02 8.688 88.91 12.721-31.543 8.61-64.28 16.758-97.5 24.26" fill="url(#Q)"/><path d="m829.29 509.04c-86.14-10.412-172.07-21.883-262.22-35.01 84.36-21.737 162.62-47.11 232.84-75.48 90.51 9.48 176.68 17.496 263.01 24.461-69.53 31.747-148.07 60.665-233.63 86.03" fill="url(#R)"/><path d="m613.11 640.58c-53.28-9.07-107.08-18.732-160.17-28.756 56.1-7.628 111.59-16.595 165.18-26.71 54.47 8.718 109.73 17.08 164.5 24.885-54.9 11.418-111.85 21.692-169.51 30.581" fill="url(#S)"/><path d="m960.54 612.08c-74.61-9.12-149.8-19.19-223.73-29.967 68.994-14.999 135.55-32.11 198.07-50.93 75.36 8.549 151.92 16.352 227.79 23.23-63.5 21.04-131.44 40.42-202.13 57.663" fill="url(#T)"/><path d="m675.76 573.01c-35.562-5.414-71.64-11.11-107.44-16.97 36.38-7.118 72.34-14.884 107.09-23.12 36.33 5.258 72.985 10.358 109.15 15.195-35.32 8.853-71.852 17.206-108.8 24.898" fill="url(#U)"/><path d="m267.21 614.5c-81.06-17.689-161.41-36.434-245.11-57.18 98.73-5.579 196.35-15.529 290.39-29.61 88.57 16.919 173.1 31.979 257.93 45.945-97.28 17.831-199.22 31.561-303.21 40.846" fill="url(#V)"/></g><path d="m362.87 270.34c48.28 30.3 98.58 60.993 151.11 91.83 57.13-20.86 112.5-45.809 165.65-74.61-53.11-27.27-103.97-54.52-152.79-81.48-52.78 25.394-107.58 46.89-163.98 64.26" fill="url(#0)"/><path d="m262.62 104.78c-68.23 22.765-139.08 38.913-211.62 48.04 53.906 39.04 110.45 79.3 170.15 120.36 73.941-14.476 145.81-35.894 214.69-63.818-60.81-35.611-118.39-70.62-173.22-104.58" fill="url(#1)"/><path d="m590.77 132.64c-34.786-17.93-68.51-35.724-101.25-53.27-36.19 19.819-73.51 37.648-111.79 53.38 32.653 19.18 66.26 38.615 100.93 58.24 38.455-17.417 75.871-36.897 112.11-58.35" fill="url(#2)"/><path d="m807.15 5.262c-75.05 69.31-158.65 128.33-248.71 175.69 84.74 45.43 175.69 91.7 273.9 137.43 90.97-57.824 174.55-127.03 248.71-206.16-98.29-34.93-189.28-71.09-273.9-106.97" fill="url(#3)"/><path d="m794.74 574.26c-60.43 25.401-122.84 46.715-186.8 63.722-60.4-36.25-118.2-72.66-173.59-108.98 62.56-13.02 123.76-30.366 183.16-51.833 56.59 32.483 115.6 64.935 177.23 97.09" fill="url(#4)"/><path d="m935.51 377.88c75.76 33.886 155.61 67.24 239.88 99.42-68.48 50.822-141.4 95.64-217.92 133.93-83.13-39.03-161.84-78.907-236.48-119.04 75-31.681 146.8-69.956 214.52-114.31" fill="url(#5)"/><path d="m553.98 398.35c42.01-15.323 83.08-32.791 123.05-52.32 39.39 20.965 79.998 41.943 121.91 62.823-40.3 21.45-81.77 40.867-124.26 58.14-41.497-22.871-81.71-45.789-120.7-68.64" fill="url(#6)"/><path d="m315.94 281.27c83.17 54.739 172.44 110.83 268.96 167.03-102.66 36.561-210.73 60.64-321.82 71.16-92.56-67.68-178.01-134.61-257.59-199.68 106.29.504 210.58-12.662 310.44-38.515" fill="url(#7)"/><path d="m514.94 347.76c-45.27-26.614-90.15-53.841-136.76-82.962 50.827-16.293 100.8-36.13 148.77-59.04 47.655 26.287 93.4 50.729 139.39 74.46-48.717 25.777-99.58 48.47-151.4 67.54" fill="url(#8)"/><path d="m222.88 259c-48.683-33.508-99.52-69.42-154.97-109.47 66.06-9.264 131.31-24.47 194.22-45.26 57.32 35.474 109.71 67.15 159.68 96.55-64.13 25.17-130.98 44.716-198.93 58.18" fill="url(#9)"/><path d="m479.3 176.44c-28.423-16.1-57.05-32.593-87.11-50.18 33.23-14.11 66.02-29.94 97.68-47.14 30.513 16.342 59.47 31.599 88.1 46.42-31.961 18.492-65.09 35.591-98.67 50.907" fill="url(#A)"/><path d="m832.17 303.74c-85.46-39.877-170.65-82.55-259.97-130.22 85.41-46.03 164.92-102.59 236.57-168.29 89.87 38.03 175.49 71.53 261.32 102.23-71.13 74.78-151.12 140.76-237.92 196.27" fill="url(#B)"/><path d="m609.23 623.74c-52.712-31.668-105.92-64.984-158.39-99.18 56.43-12.413 112.32-28.496 166.38-47.893 53.92 30.906 108.65 60.968 162.93 89.48-55.43 22.681-112.85 42.03-170.91 57.59" fill="url(#C)"/><path d="m957.7 596.75c-74.01-34.811-148.56-72.23-221.8-111.36 69.71-30.24 137.08-66.45 200.52-107.76 74.8 33.381 150.82 64.976 226.22 93.99-64.54 47.09-133.42 89.15-204.94 125.14" fill="url(#D)"/><path d="m675.42 452.54c-35.22-19.444-70.94-39.711-106.38-60.37 36.712-13.826 73.03-29.438 108.18-46.5 35.998 19.13 72.32 37.882 108.18 55.858-35.735 18.601-72.67 35.726-109.98 51.01" fill="url(#E)"/><path d="m265.23 505.5c-79.999-58.55-159.23-119.81-241.69-186.89 98.89-.945 196.91-13.706 291.57-37.963 87.53 57.56 171.13 109.6 255.09 158.77-98.1 33.788-200.63 56-304.98 66.08" fill="url(#F)"/><g><path d="m524.67 332.37c-41.564-26.54-82.78-53.634-125.33-82.35-5.601 1.662-11.205 3.303-16.827 4.877 45.49 30.803 89.32 59.65 133.57 87.91 52.5-17.16 104.17-37.968 153.81-61.943-2.052-1.161-4.1-2.32-6.152-3.48-45.1 21.04-91.75 39.507-139.08 54.985" fill="url(#G)"/><path d="m236.11 232.97c-44.26-32.932-90.36-68.07-140.16-106.8-6.404.776-12.808 1.509-19.225 2.174 53.926 42.04 103.4 79.79 150.8 115.07 68.39-10.969 135.93-28.06 200.96-50.854-2.535-1.623-5.104-3.279-7.653-4.902-60.01 20.03-122 35.25-184.72 45.31" fill="url(#H)"/><path d="m495.43 159.87c-25.609-15.785-51.4-31.924-78.28-48.973-5.152 2.057-10.314 4.087-15.486 6.069 29.383 18.68 57.38 36.21 85.18 53.35 34.12-14.09 67.867-29.957 100.49-47.26-1.827-1.039-3.665-2.079-5.495-3.113-28.22 14.473-57.18 27.859-86.42 39.933" fill="url(#I)"/><path d="m843.32 299.99c-82.09-42.05-163.86-86.78-249.26-136.37-4.743 2.418-9.49 4.813-14.264 7.163 87.48 50.901 171.02 96.67 254.94 139.65 88.81-52.29 171.19-115.3 245.06-187.42-.534-.213-1.072-.432-1.599-.643-71.24 68.03-150.12 127.71-234.88 177.62" fill="url(#J)"/><path d="m608.63 611.6c-48.19-31.422-96.75-64.31-144.72-97.97-6.148 1.205-12.297 2.383-18.46 3.51 51.17 36.08 103.1 71.32 154.59 104.91 58.6-13.423 116.7-30.652 172.94-51.29-2.63-1.502-5.26-3.041-7.894-4.543-51.09 18.03-103.57 33.27-156.47 45.38" fill="url(#K)"/><path d="m957.86 597.4c-70.25-36.25-140.89-74.974-210.32-115.26-5.247 2.126-10.501 4.228-15.765 6.289 71.74 41.782 144.84 81.915 217.51 119.41 72.815-33.34 143.21-72.848 209.46-117.55-1.433-.614-2.872-1.242-4.305-1.848-62.46 41.18-128.46 77.77-196.57 108.96" fill="url(#L)"/><path d="m681.14 442.94c-31.918-19.18-64.24-39.1-96.35-59.36-5.424 1.9-10.848 3.773-16.285 5.599 34.647 21.937 69.59 43.493 104.06 64.21 37.849-13.895 75.39-29.659 111.8-46.934-2.099-1.156-4.216-2.343-6.322-3.498-31.715 14.574-64.19 27.978-96.9 39.985" fill="url(#M)"/><path d="m269.26 480.84c-73.74-58.26-146.71-118.94-222.19-184.78-6.982-.071-13.968-.187-20.958-.38 79.9 70.04 156.8 134.16 234.56 195.6 104.65-6.242 207.94-24.692 307.24-54.862-2.824-1.794-5.642-3.605-8.463-5.407-94.04 27.19-191.51 43.941-290.19 49.825" fill="url(#N)"/></g><g opacity=".7"><path d="m607.94 637.99l-67.51-41.24-19.18 5.07z"/><path d="m607.94 637.99l116.72-36.43 18.38 2.71z"/><path d="m263.09 519.46l-61.78-45.83-43.26 6.4z"/><path d="m674.68 466.99l-30.14-14.45-26.76 7.22z"/><path d="m957.47 611.23l-114.89-53.65-27.58 6.36z"/><path d="m957.47 611.23l118.38-66.24 41.49 5.21z"/></g><g><path d="m1109.77 126.33v-49.11h-18.494v-6.571h44.495v6.571h-18.572v49.11h-7.429" fill="#333"/><path d="m1142.37 126.33v-55.677h11.182l13.287 39.42c1.225 3.672 2.117 6.418 2.678 8.242.64-2.025 1.634-5 2.988-8.926l13.438-38.739h9.997v55.677h-7.163v-46.6l-16.313 46.6h-6.697l-16.238-47.4v47.4h-7.159" fill="#333"/></g></g></switch></svg>