<?xml version="1.0" encoding="UTF-8" standalone="no"?>
<svg
   xmlns:dc="http://purl.org/dc/elements/1.1/"
   xmlns:cc="http://creativecommons.org/ns#"
   xmlns:rdf="http://www.w3.org/1999/02/22-rdf-syntax-ns#"
   xmlns:svg="http://www.w3.org/2000/svg"
   xmlns="http://www.w3.org/2000/svg"
   viewBox="0 0 219.34666 179.89333"
   height="179.89333"
   width="219.34666"
   xml:space="preserve"
   id="svg2"
   version="1.1"><metadata
     id="metadata8"><rdf:RDF><cc:Work
         rdf:about=""><dc:format>image/svg+xml</dc:format><dc:type
           rdf:resource="http://purl.org/dc/dcmitype/StillImage" /></cc:Work></rdf:RDF></metadata><defs
     id="defs6"><clipPath
       id="clipPath50"
       clipPathUnits="userSpaceOnUse"><path
         id="path48"
         d="m 712.516,502.949 c 191.043,-53.008 331.254,-39.734 416.424,-21.285 87.91,19.649 122.68,44.465 122.68,44.465 11.48,23.144 22.35,45.633 33.13,69.473 -118.48,-60.598 -266.6,-85.168 -387.012,-84.739 -37.254,0.242 -70.312,2.399 -98.289,5.266 -28.722,-11.371 -58.808,-15.899 -86.933,-13.18" /></clipPath><linearGradient
       id="linearGradient56"
       spreadMethod="pad"
       gradientTransform="matrix(572.236,0,0,-185.659,712.514,615.601)"
       gradientUnits="userSpaceOnUse"
       y2="0"
       x2="1"
       y1="0"
       x1="0.033707902"><stop
         id="stop52"
         offset="0"
         style="stop-opacity:1;stop-color:#a09d9e" /><stop
         id="stop54"
         offset="1"
         style="stop-opacity:1;stop-color:#ffffff" /></linearGradient></defs><g
     transform="matrix(1.3333333,0,0,-1.3333333,0,179.89333)"
     id="g10"><g
       transform="scale(0.1)"
       id="g12"><path
         id="path14"
         style="fill:#231f20;fill-opacity:1;fill-rule:nonzero;stroke:none"
         d="m 142.813,212.117 c 0,-19.129 -5.25,-33.949 -15.747,-44.457 -8.773,-8.773 -21.644,-14.816 -38.6207,-18.129 C 76.6484,147.23 60.832,146.078 40.9844,146.078 H 17.6914 C 5.89844,146.078 0,152.047 0,163.969 v 4.531 c 0,11.93 5.90234,17.891 17.707,17.891 h 22.668 c 14.25,0 26.9141,2.164 38,6.476 11.082,4.317 16.625,9.43 16.625,15.328 v 166.434 c 0,11.797 5.957,17.699 17.875,17.699 h 12.277 c 11.774,0 17.661,-5.898 17.661,-17.695 z m 6.875,210.008 c 0,-7.336 -3.055,-13.297 -9.161,-17.895 -6.109,-4.601 -13.257,-6.902 -21.445,-6.902 -8.336,0 -15.59,2.156 -21.7695,6.473 -6.75,4.738 -10.125,10.847 -10.125,18.324 0,7.469 3.1953,13.438 9.5898,17.895 6.3907,4.453 13.8277,6.683 22.3047,6.683 8.188,0 15.336,-2.23 21.445,-6.683 6.106,-4.457 9.161,-10.426 9.161,-17.895" /><path
         id="path16"
         style="fill:#231f20;fill-opacity:1;fill-rule:nonzero;stroke:none"
         d="m 493.766,257.426 c 0,-18.996 -6.121,-33.821 -18.352,-44.473 -16.121,-13.961 -42.754,-20.937 -79.887,-20.937 H 278.293 c -11.375,0 -23.75,1.578 -37.137,4.742 -18.426,4.312 -33.109,10.562 -44.047,18.754 -14.105,10.488 -21.156,23.644 -21.156,39.453 v 27.808 c 0,18.395 8.488,33.489 25.477,45.274 18.281,12.648 43.332,18.969 75.148,18.969 h 169.727 c -1.301,7.714 -6.95,13.394 -16.953,17.039 -10.004,3.64 -23.215,5.461 -39.625,5.461 h -36.282 c -11.804,0 -17.703,5.89 -17.703,17.675 v 4.747 c 0,11.925 5.899,17.89 17.699,17.89 h 26.34 c 37.992,0 66.703,-6.043 86.137,-18.133 18.562,-11.515 27.848,-27.773 27.848,-48.785 z m -47.813,-2.313 v 51.59 H 275.422 c -9.078,0 -18.949,-1.648 -29.613,-4.945 -14.696,-4.586 -22.043,-10.82 -22.043,-18.699 v -27.516 c 0,-9.027 8.57,-15.406 25.714,-19.133 5.762,-1.289 14.915,-2.648 27.454,-4.082 h 119.089 c 15.704,0 27.668,1.649 35.879,4.949 9.368,3.719 14.051,9.668 14.051,17.836" /><path
         id="path18"
         style="fill:#231f20;fill-opacity:1;fill-rule:nonzero;stroke:none"
         d="m 802.789,254.141 c 0,-20.567 -7.199,-35.879 -21.594,-45.946 -15.398,-10.789 -39.871,-16.179 -73.406,-16.179 H 545.637 c -11.809,0 -17.707,5.996 -17.707,17.988 v 4.336 c 0,11.992 5.898,17.988 17.707,17.988 h 162.562 c 14.824,0 25.762,1.5 32.813,4.496 8.054,3.43 12.09,9.211 12.09,17.352 v 8.14 c 0,7.278 -3.278,12.379 -9.825,15.313 -6.55,2.922 -16.949,4.387 -31.199,4.387 h -77.933 c -38.286,0 -65.993,5.117 -83.114,15.359 -16.125,9.656 -24.179,24.504 -24.179,44.551 v 11.894 c 0,16.289 7.121,29.192 21.375,38.707 17.418,11.536 44.769,17.301 82.062,17.301 h 35.41 c 11.946,0 17.922,-5.965 17.922,-17.89 v -4.747 c 0,-11.785 -5.98,-17.675 -17.941,-17.675 h -34.59 c -21.621,0 -36.434,-1.008 -44.43,-3.032 -8,-2.019 -11.996,-6.211 -11.996,-12.558 v -11.481 c 0,-7.797 5.324,-13.136 15.984,-16.023 8.497,-2.317 23.114,-3.469 43.856,-3.469 H 714 c 29.09,0 51.16,-5.14 66.211,-15.426 15.047,-10.281 22.578,-24.769 22.578,-43.464 v -9.922" /><path
         id="path20"
         style="fill:#231f20;fill-opacity:1;fill-rule:nonzero;stroke:none"
         d="m 1131.35,261.195 c 0,-22.898 -9.22,-40.039 -27.65,-51.414 -17.57,-10.801 -42.92,-16.203 -76.05,-16.203 H 877.914 v -44.191 c 0,-11.789 -5.879,-17.684 -17.656,-17.684 H 847.77 c -11.778,0 -17.668,5.906 -17.668,17.707 v 195.641 c 0,21.015 7.421,36.633 22.246,46.851 17.422,11.95 46.504,17.926 87.246,17.926 h 76.446 c 40.74,0 70.47,-5.617 89.19,-16.848 17.41,-10.519 26.12,-26.285 26.12,-47.312 z m -48.44,-0.644 v 84.367 c 0,8.914 -4.78,15.25 -14.37,18.988 -9.59,3.742 -26.92,5.61 -52.01,5.61 h -74.815 c -21.485,0 -36.985,-1.653 -46.496,-4.961 -11.531,-4.032 -17.305,-10.938 -17.305,-20.715 V 233.578 h 149.866 c 18.45,0 31.93,1.871 40.43,5.613 9.8,4.317 14.7,11.434 14.7,21.36" /><path
         id="path22"
         style="fill:#231f20;fill-opacity:1;fill-rule:nonzero;stroke:none"
         d="m 1468.71,296.887 c 0,-5.188 -1.16,-9.793 -3.46,-13.824 -2.3,-4.036 -5.62,-6.047 -9.93,-6.047 h -238.49 c 0,-29.793 20.74,-44.688 62.24,-44.688 h 35.86 c 11.81,0 17.71,-5.996 17.71,-17.988 v -4.336 c 0,-11.992 -5.9,-17.988 -17.69,-17.988 h -30.67 c -21.74,0 -40.14,1.757 -55.17,5.285 -15.05,3.519 -26.74,8.441 -35.1,14.769 -17.7,13.946 -26.55,30.196 -26.55,48.743 v 80.007 c 0,21.274 10.29,38.098 30.88,50.457 20.58,12.368 48.58,18.551 84.01,18.551 h 89.61 c 26.92,0 49.31,-4.969 67.17,-14.902 19.71,-10.942 29.58,-26.133 29.58,-45.567 z m -46.57,21.691 v 26.828 c 0,6.199 -6.41,11.711 -19.23,16.547 -12.83,4.836 -28.04,7.25 -45.62,7.25 h -69.61 c -20.9,0 -37.68,-1.945 -50.36,-5.84 -14.7,-4.472 -22.05,-11.035 -22.05,-19.687 v -25.098 h 206.87" /><path
         id="path24"
         style="fill:#231f20;fill-opacity:1;fill-rule:nonzero;stroke:none"
         d="m 1645.08,387.191 c 0,-11.785 -5.97,-17.675 -17.95,-17.675 h -22.05 c -20.49,0 -35.04,-2.739 -43.69,-8.207 -6.78,-4.317 -10.16,-10.649 -10.16,-19 V 209.941 c 0,-11.953 -5.89,-17.925 -17.65,-17.925 h -13.15 c -11.75,0 -17.64,6.047 -17.64,18.136 l 0.62,132.11 c 0,21.297 9.36,37.879 28.08,49.754 18.71,11.875 44.2,17.812 76.44,17.812 h 19.23 c 11.95,0 17.92,-5.965 17.92,-17.89 v -4.747" /><path
         id="path26"
         style="fill:#a09d9e;fill-opacity:1;fill-rule:nonzero;stroke:none"
         d="m 250.598,29.5313 16.875,1.6406 c 1.011,-5.668 3.074,-9.8399 6.179,-12.4961 3.106,-2.6602 7.293,-3.9883 12.571,-3.9883 5.582,0 9.793,1.1797 12.625,3.5469 2.832,2.3672 4.25,5.1289 4.25,8.2929 0,2.0313 -0.598,3.7618 -1.789,5.1915 -1.192,1.4257 -3.274,2.6679 -6.235,3.7226 -2.031,0.7031 -6.66,1.9453 -13.883,3.7422 -9.293,2.3008 -15.816,5.1289 -19.566,8.4883 -5.27,4.7265 -7.902,10.4804 -7.902,17.2773 0,4.3711 1.238,8.4649 3.715,12.2735 2.48,3.8086 6.046,6.7031 10.71,8.6953 4.665,1.9922 10.293,2.9883 16.891,2.9883 10.77,0 18.883,-2.3633 24.32,-7.0899 5.45,-4.7266 8.309,-11.0351 8.579,-18.9258 l -17.34,-0.7812 c -0.746,4.414 -2.332,7.5859 -4.774,9.5234 -2.437,1.9336 -6.094,2.8985 -10.972,2.8985 -5.032,0 -8.969,-1.0352 -11.821,-3.1055 -1.832,-1.3281 -2.75,-3.1016 -2.75,-5.3281 0,-2.0313 0.86,-3.7696 2.578,-5.2149 2.192,-1.8359 7.5,-3.7422 15.942,-5.7305 8.433,-1.9921 14.676,-4.0546 18.719,-6.1835 4.043,-2.129 7.207,-5.0391 9.492,-8.7305 2.285,-3.6914 3.426,-8.2539 3.426,-13.6836 0,-4.9297 -1.368,-9.5391 -4.098,-13.8359 C 313.602,8.42188 309.734,5.22656 304.734,3.13672 299.734,1.04688 293.508,0 286.047,0 275.184,0 266.848,2.51563 261.023,7.54297 255.207,12.5742 251.727,19.9023 250.598,29.5313" /><path
         id="path28"
         style="fill:#a09d9e;fill-opacity:1;fill-rule:nonzero;stroke:none"
         d="m 391.492,43.9648 c 0,8.75 1.313,16.0938 3.922,22.0313 1.953,4.375 4.621,8.3008 8,11.7773 3.371,3.4766 7.074,6.0547 11.098,7.7344 5.347,2.2656 11.519,3.3985 18.504,3.3985 12.652,0 22.777,-3.9258 30.367,-11.7774 7.594,-7.8516 11.39,-18.7695 11.39,-32.7539 0,-13.8672 -3.765,-24.7187 -11.3,-32.5508 -7.535,-7.83201 -17.61,-11.746075 -30.219,-11.746075 -12.77,0 -22.922,3.898435 -30.457,11.691375 -7.539,7.793 -11.305,18.5235 -11.305,32.1953 z m 17.895,0.586 c 0,-9.7227 2.246,-17.0899 6.73,-22.1055 4.492,-5.0195 10.196,-7.5234 17.106,-7.5234 6.91,0 12.582,2.4844 17.015,7.4648 4.43,4.9766 6.649,12.4414 6.649,22.3985 0,9.8398 -2.16,17.1718 -6.473,22.0156 -4.316,4.8398 -10.047,7.2617 -17.191,7.2617 -7.145,0 -12.907,-2.4492 -17.282,-7.3477 -4.371,-4.9023 -6.554,-12.2851 -6.554,-22.164" /><path
         id="path30"
         style="fill:#a09d9e;fill-opacity:1;fill-rule:nonzero;stroke:none"
         d="M 548.816,1.5625 V 86.7969 H 566.16 V 16.0938 h 43.051 V 1.5625 h -60.395" /><path
         id="path32"
         style="fill:#a09d9e;fill-opacity:1;fill-rule:nonzero;stroke:none"
         d="M 681.492,87.5 H 698.84 V 40.9531 c 0,-7.3867 0.215,-12.1797 0.64,-14.3672 0.743,-3.5156 2.512,-6.3359 5.309,-8.4726 2.793,-2.125 6.613,-3.1914 11.461,-3.1914 4.926,0 8.637,1.0078 11.137,3.0195 2.5,2.0156 4.008,4.4844 4.515,7.4141 0.508,2.9297 0.766,7.7968 0.766,14.6015 V 87.5 h 17.344 V 42.3555 c 0,-10.3242 -0.469,-17.6133 -1.41,-21.8711 -0.934,-4.2617 -2.668,-7.8555 -5.188,-10.79299 -2.519,-2.92969 -5.891,-5.26172 -10.109,-7.00391 -4.219,-1.742187 -9.727,-2.609375 -16.528,-2.609375 -8.207,0 -14.429,0.949215 -18.668,2.843755 -4.238,1.89843 -7.593,4.35937 -10.054,7.38672 -2.457,3.0312 -4.082,6.207 -4.864,9.5312 -1.132,4.9219 -1.699,12.1915 -1.699,21.8125 V 87.5" /><path
         id="path34"
         style="fill:#a09d9e;fill-opacity:1;fill-rule:nonzero;stroke:none"
         d="M 847.68,1.5625 V 72.9688 H 822.211 V 87.5 h 68.281 V 72.9688 H 865.023 V 1.5625 H 847.68" /><path
         id="path36"
         style="fill:#a09d9e;fill-opacity:1;fill-rule:nonzero;stroke:none"
         d="M 961.059,1.5625 V 87.5 h 17.343 V 1.5625 h -17.343" /><path
         id="path38"
         style="fill:#a09d9e;fill-opacity:1;fill-rule:nonzero;stroke:none"
         d="m 1051.43,43.9648 c 0,8.75 1.31,16.0938 3.93,22.0313 1.95,4.375 4.62,8.3008 8,11.7773 3.37,3.4766 7.07,6.0547 11.09,7.7344 5.35,2.2656 11.52,3.3985 18.5,3.3985 12.66,0 22.78,-3.9258 30.37,-11.7774 7.6,-7.8516 11.39,-18.7695 11.39,-32.7539 0,-13.8672 -3.76,-24.7187 -11.3,-32.5508 -7.53,-7.83201 -17.61,-11.746075 -30.22,-11.746075 -12.76,0 -22.91,3.898435 -30.45,11.691375 -7.54,7.793 -11.31,18.5235 -11.31,32.1953 z m 17.89,0.586 c 0,-9.7227 2.25,-17.0899 6.74,-22.1055 4.49,-5.0195 10.19,-7.5234 17.11,-7.5234 6.9,0 12.58,2.4844 17.01,7.4648 4.43,4.9766 6.64,12.4414 6.64,22.3985 0,9.8398 -2.15,17.1718 -6.46,22.0156 -4.32,4.8398 -10.05,7.2617 -17.19,7.2617 -7.15,0 -12.91,-2.4492 -17.29,-7.3477 -4.37,-4.9023 -6.56,-12.2851 -6.56,-22.164" /><path
         id="path40"
         style="fill:#a09d9e;fill-opacity:1;fill-rule:nonzero;stroke:none"
         d="M 1208.36,1.5625 V 87.5 h 16.86 l 35.25,-57.4883 V 87.5 h 16.1 V 1.5625 h -17.39 l -34.72,56.1758 V 1.5625 h -16.1" /><path
         id="path42"
         style="fill:#a09d9e;fill-opacity:1;fill-rule:nonzero;stroke:none"
         d="m 1350.57,29.5313 16.88,1.6406 c 1.01,-5.668 3.07,-9.8399 6.18,-12.4961 3.1,-2.6602 7.29,-3.9883 12.57,-3.9883 5.58,0 9.79,1.1797 12.62,3.5469 2.84,2.3672 4.25,5.1289 4.25,8.2929 0,2.0313 -0.59,3.7618 -1.78,5.1915 -1.2,1.4257 -3.28,2.6679 -6.25,3.7226 -2.03,0.7031 -6.65,1.9453 -13.87,3.7422 -9.3,2.3008 -15.81,5.1289 -19.56,8.4883 -5.28,4.7265 -7.91,10.4804 -7.91,17.2773 0,4.3711 1.24,8.4649 3.72,12.2735 2.47,3.8086 6.04,6.7031 10.71,8.6953 4.66,1.9922 10.29,2.9883 16.89,2.9883 10.77,0 18.87,-2.3633 24.32,-7.0899 5.44,-4.7266 8.3,-11.0351 8.57,-18.9258 l -17.34,-0.7812 c -0.74,4.414 -2.33,7.5859 -4.77,9.5234 -2.44,1.9336 -6.1,2.8985 -10.97,2.8985 -5.03,0 -8.97,-1.0352 -11.82,-3.1055 -1.83,-1.3281 -2.75,-3.1016 -2.75,-5.3281 0,-2.0313 0.86,-3.7696 2.58,-5.2149 2.18,-1.8359 7.5,-3.7422 15.93,-5.7305 8.44,-1.9921 14.68,-4.0546 18.73,-6.1835 4.04,-2.129 7.2,-5.0391 9.49,-8.7305 2.28,-3.6914 3.42,-8.2539 3.42,-13.6836 0,-4.9297 -1.36,-9.5391 -4.1,-13.8359 -2.73,-4.29692 -6.6,-7.49224 -11.6,-9.58208 C 1399.71,1.04688 1393.48,0 1386.02,0 c -10.86,0 -19.2,2.51563 -25.02,7.54297 -5.82,5.03123 -9.3,12.35933 -10.43,21.98833" /><g
         id="g44"><g
           clip-path="url(#clipPath50)"
           id="g46"><path
             id="path58"
             style="fill:url(#linearGradient56);fill-opacity:1;fill-rule:nonzero;stroke:none"
             d="m 712.516,502.949 c 191.043,-53.008 331.254,-39.734 416.424,-21.285 87.91,19.649 122.68,44.465 122.68,44.465 11.48,23.144 22.35,45.633 33.13,69.473 -118.48,-60.598 -266.6,-85.168 -387.012,-84.739 -37.254,0.242 -70.312,2.399 -98.289,5.266 -28.722,-11.371 -58.808,-15.899 -86.933,-13.18" /></g></g><path
         id="path60"
         style="fill:#a09d9e;fill-opacity:1;fill-rule:nonzero;stroke:none"
         d="m 980.023,1333.95 c -274.203,55.1 -533.058,-43.86 -578.168,-221.02 -0.621,-2.52 -1.058,-5.07 -1.621,-7.55 -20.054,-92.27 21.758,-186.966 105.371,-263.857 16.442,-46.812 53.161,-92.007 105.063,-130.722 3.082,-2.293 6.246,-4.555 9.426,-6.801 21.488,-15.187 45.316,-29.297 71.219,-41.996 21.16,-10.379 43.703,-19.797 67.398,-28.141 15.777,-5.558 32.066,-10.621 48.832,-15.148 14.961,-4.043 30.254,-7.699 45.93,-10.848 15.711,-3.16 31.308,-5.57 46.816,-7.648 164.491,-22.012 314.491,15.715 387.391,92.441 20.43,21.504 35.12,45.879 42,73.047 3.44,13.516 4.81,27.16 4.43,40.809 29.56,31.093 50.63,66.976 60.79,106.867 0.75,3.027 1.31,6.066 1.95,9.082 36.59,174.475 -147.28,357.275 -416.827,411.485 z M 1251.95,696.305 c -68.48,-64.11 -197.87,-95.766 -340.325,-78.969 -17.715,2.082 -35.605,4.797 -53.633,8.422 -12.254,2.461 -24.258,5.262 -36.043,8.32 -17.89,4.637 -35.215,9.938 -51.914,15.824 -25.117,8.852 -48.812,19.036 -70.82,30.325 -22.141,11.359 -42.594,23.812 -61.067,37.156 -0.644,0.465 -1.273,0.933 -1.914,1.402 -33.972,24.84 -61.144,52.645 -79.933,81.899 44.621,-31.539 97.152,-58.567 155.59,-79.34 26.468,-9.406 54.121,-17.551 82.871,-24.192 7.254,-1.672 14.558,-3.3 21.953,-4.785 13.555,-2.722 27.058,-4.965 40.527,-6.941 29.278,-4.309 58.27,-6.973 86.727,-7.903 142.371,-4.621 271.181,31.969 355.671,97.879 -0.26,-1.16 -0.44,-2.328 -0.73,-3.484 -7.27,-28.582 -23.76,-53.887 -46.96,-75.613 z m 106.12,224.492 c -6.3,-24.762 -17.18,-47.832 -31.86,-69.055 -33.59,104.797 -169.83,202.358 -349.937,238.538 -2.703,0.54 -5.398,0.99 -8.105,1.5 1.484,-6.54 2.891,-13.03 4.23,-19.48 183.162,-37.05 317.142,-142.609 329.692,-250.155 -72.8,-76.809 -201.98,-121.813 -347.906,-119.957 -28.036,0.355 -56.661,2.378 -85.645,6.304 -15.164,2.055 -30.43,4.59 -45.742,7.664 -6.492,1.305 -12.91,2.746 -19.297,4.211 -30.277,6.942 -59.277,15.664 -86.816,25.899 -74.188,27.578 -137.563,66.195 -185.508,111.261 -0.231,0.926 -0.508,1.848 -0.715,2.77 -4.965,21.953 -5.242,44.101 0.301,65.988 19.5,76.625 103.144,130.885 214.566,150.785 l 13.996,22.41 c -133.976,-17.02 -236.695,-78.03 -259.347,-167.035 -3.153,-12.347 -4.297,-24.804 -4.094,-37.277 -52.684,64.562 -75.453,138.382 -57.215,210.212 0.012,0.05 0.012,0.09 0.043,0.14 41.75,164.05 281.383,255.64 535.277,204.61 242.952,-48.84 410.742,-210.58 388.122,-368.134 -0.99,-7.07 -2.25,-14.141 -4.04,-21.199" /><path
         id="path62"
         style="fill:#ef2e31;fill-opacity:1;fill-rule:nonzero;stroke:none"
         d="m 636.234,718.785 c 0.641,-0.469 1.27,-0.937 1.914,-1.402 6.594,3.824 11.207,5.492 11.207,5.492 l -13.121,-4.09" /><path
         id="path64"
         style="fill:#ef2e31;fill-opacity:1;fill-rule:nonzero;stroke:none"
         d="m 622.871,547.055 c 0.738,-0.028 1.586,-0.028 2.434,-0.028 -0.246,0.309 -0.453,0.621 -0.692,0.926 -0.828,-0.004 -1.636,-0.058 -2.468,-0.058 -6.602,7.968 -12.348,16.972 -16.907,27.05 0.461,0.207 0.903,0.465 1.364,0.676 -2.555,4.723 -4.922,9.344 -6.899,13.641 -20.305,60.32 -0.031,95.699 20.391,114.738 -3.18,2.246 -6.344,4.508 -9.426,6.801 l -93.34,-29.137 c 0,0 -48.914,-17.441 -26.39,-77.832 4.648,-12.449 11.839,-21.707 20.699,-28.34 L 511.5,572.973 670.797,510.23 c -10.871,4.825 -20.352,11.571 -28.832,19.2 -6.899,5.199 -13.418,10.914 -19.094,17.625" /><path
         id="path66"
         style="fill:#231f20;fill-opacity:1;fill-rule:nonzero;stroke:none"
         d="m 807.543,618.715 c -42.742,-41.711 -99.234,-67.059 -168.348,-70.418 -5.597,-0.988 -10.226,-1.27 -13.89,-1.27 -0.848,0 -1.696,0 -2.434,0.028 5.676,-6.711 12.195,-12.426 19.094,-17.625 19.91,-15.028 44.265,-23.938 70.551,-26.481 28.125,-2.719 58.211,1.809 86.933,13.18 32.781,12.984 63.739,34.863 87.617,65.926 4.551,5.918 8.934,12.004 13.223,18.164 -15.508,2.078 -31.105,4.488 -46.816,7.648 -15.676,3.149 -30.969,6.805 -45.93,10.848" /><path
         id="path68"
         style="fill:#231f20;fill-opacity:1;fill-rule:nonzero;stroke:none"
         d="m 711.891,721.344 c -3.45,-14.778 -7.746,-28.516 -12.676,-41.117 22.008,-11.289 45.703,-21.473 70.82,-30.325 9.375,14.438 17.598,30.313 24.727,47.25 -28.75,6.641 -56.403,14.786 -82.871,24.192" /><path
         id="path70"
         style="fill:#231f20;fill-opacity:1;fill-rule:nonzero;stroke:none"
         d="m 759.324,1099.48 -13.996,-22.41 -63.574,-101.761 c 38.301,-87.864 44.535,-166.172 34.93,-229.043 27.539,-10.235 56.539,-18.957 86.816,-25.899 26.582,79.238 28.32,179.988 -9.695,290.083 l 44.98,74.96 11.309,18.83 10.164,16.95 c 0,0 2.754,-6.22 6.847,-17.54 1.895,-5.24 4.083,-11.59 6.415,-18.94 14.882,-46.73 35.976,-134.058 28.203,-236.718 -3.887,-51.527 -15.098,-98.621 -33.184,-139.5 28.984,-3.926 57.609,-5.949 85.645,-6.304 38.671,100.664 48.376,223.996 18.214,370.112 -1.339,6.45 -2.746,12.94 -4.23,19.48 -15.75,69.18 -40.203,143.28 -74.695,222.42 L 759.324,1099.48" /><path
         id="path72"
         style="fill:#231f20;fill-opacity:1;fill-rule:nonzero;stroke:none"
         d="m 857.242,685.426 c -10.148,-18.774 -21.926,-35.957 -35.293,-51.348 11.785,-3.058 23.789,-5.859 36.043,-8.32 18.028,-3.625 35.918,-6.34 53.633,-8.422 12.031,18.992 22.863,39.043 32.344,60.187 -28.457,0.93 -57.449,3.594 -86.727,7.903" /><path
         id="path74"
         style="fill:#231f20;fill-opacity:1;fill-rule:nonzero;stroke:none"
         d="m 649.398,603.383 c -13.187,-11.543 -27.832,-20.879 -42.796,-27.762 -0.461,-0.211 -0.903,-0.469 -1.364,-0.676 4.559,-10.078 10.305,-19.082 16.907,-27.05 0.832,0 1.64,0.054 2.468,0.058 4.907,0.02 9.782,0.07 14.582,0.344 22.469,3.797 59.434,18.289 104.125,66.941 5.371,5.84 10.465,12.121 15.391,18.625 -23.695,8.344 -46.238,17.762 -67.398,28.141 -12.504,-26.063 -27.489,-46.008 -41.915,-58.621" /></g></g></svg>