<svg width="478" height="124" viewBox="0 0 478 124" fill="none" xmlns="http://www.w3.org/2000/svg">
<path fill-rule="evenodd" clip-rule="evenodd" d="M70.0208 25.6882H107.698L107.242 65.1017L140.394 25.6882H182.285L154.443 94.2019H113.685L126.855 59.7929L100.704 94.2019L69.658 94.1649L67.7035 59.701L53.7244 94.2019H42.0889L70.0208 25.6882Z" fill="#273785"/>
<path fill-rule="evenodd" clip-rule="evenodd" d="M218.734 25.6882H270.257C270.257 25.6882 273.478 26.5808 276.326 28.0688C279.176 29.558 281.158 31.7894 281.158 31.7894L267.657 45.0621C267.657 45.0621 265.799 40.5969 264.437 38.7366C263.074 36.8751 259.358 32.9063 259.358 32.9063L238.303 33.0304C238.303 33.0304 230.004 34.7666 222.698 48.6586C215.39 62.5506 212.913 73.9617 214.274 80.1631C215.637 86.3645 226.412 84.7524 228.394 82.6439C230.376 80.5354 232.978 78.1787 234.835 72.7207C236.693 67.2639 236.712 65.4788 236.816 65.4788H276.699L265.18 94.2019H204.614C204.614 94.2019 181.094 88.4205 186.808 59.701C191.463 36.3011 207.88 25.6882 218.734 25.6882V25.6882Z" fill="#273785"/>
<path fill-rule="evenodd" clip-rule="evenodd" d="M345.545 25.5486H380.596V94.1648H345.545V87.1127L311.108 87.1509L304.579 94.2018H284.596C284.596 94.2018 345.414 25.5486 345.545 25.5486V25.5486ZM320.994 75.5666L345.548 47.2958L345.592 75.6418C345.592 75.6418 320.908 75.6645 320.994 75.5666Z" fill="#273785"/>
<path fill-rule="evenodd" clip-rule="evenodd" d="M56.4328 0.664307H477.825L475.42 6.52799H56.4328C51.8113 6.52799 48.4714 8.62576 45.8331 11.8034C42.9287 15.3009 40.7307 20.204 38.652 25.2026L7.02955 101.283C6.62181 102.265 6.43376 103.242 6.43376 104.199H6.42242C6.42242 106.512 7.54337 108.788 9.33446 110.792C11.2846 112.974 14.0029 114.807 16.9881 116.047C19.552 117.113 22.2663 117.724 24.8098 117.724V117.712H429.818L427.414 123.576H24.8098V123.565C21.4621 123.565 17.9727 122.796 14.7429 121.454C10.9943 119.896 7.52988 117.537 4.98191 114.687C2.27499 111.658 0.580798 108.058 0.580798 104.199H0.569336C0.569336 102.505 0.901663 100.774 1.62311 99.0382L33.2459 22.9569C35.4922 17.5526 37.9026 12.2127 41.3428 8.0697C45.0479 3.60689 49.7887 0.664307 56.4328 0.664307V0.664307Z" fill="#273785"/>
</svg>
