<?xml version="1.0" standalone="no"?>
<!DOCTYPE svg PUBLIC "-//W3C//DTD SVG 20010904//EN"
 "http://www.w3.org/TR/2001/REC-SVG-20010904/DTD/svg10.dtd">
<svg version="1.0" xmlns="http://www.w3.org/2000/svg"
 width="1920.000000pt" height="948.000000pt" viewBox="0 0 1920.000000 948.000000"
 preserveAspectRatio="xMidYMid meet">
<metadata>
Created by potrace 1.16, written by Peter Selinger 2001-2019
</metadata>
<g transform="translate(0.000000,948.000000) scale(0.100000,-0.100000)"
fill="#000000" stroke="none">
<path d="M8440 4495 l0 -875 255 0 255 0 0 658 0 657 233 0 c189 -1 242 -5
289 -19 105 -32 176 -119 209 -256 9 -40 14 -179 16 -520 1 -256 2 -477 3
-492 l0 -28 245 0 245 0 0 543 c-1 298 -5 572 -9 609 -14 109 -59 234 -113
314 -106 159 -278 245 -540 274 -54 5 -318 10 -593 10 l-495 0 0 -875z"/>
<path d="M10260 5352 c0 -10 25 -95 55 -188 31 -93 57 -176 58 -184 1 -8 5
-19 9 -25 5 -8 92 -281 102 -320 2 -5 6 -17 9 -25 21 -57 165 -503 172 -533 2
-12 15 -53 29 -92 13 -38 46 -136 72 -217 l48 -148 357 0 358 0 46 143 c87
268 277 852 345 1062 152 466 170 521 170 533 0 9 -63 12 -253 12 l-253 0 -17
-52 c-16 -51 -111 -369 -163 -548 -14 -47 -47 -157 -73 -245 -27 -88 -71 -235
-97 -327 -27 -93 -51 -168 -54 -168 -3 0 -44 138 -92 308 -49 169 -134 469
-191 667 l-102 360 -268 3 c-254 2 -267 1 -267 -16z"/>
<path d="M12282 4498 l3 -873 253 -3 252 -2 0 875 0 875 -255 0 -255 0 2 -872z"/>
<path d="M13077 5363 c-4 -3 -7 -397 -7 -875 l0 -868 453 0 c602 0 719 12 877
88 91 44 214 160 254 239 118 236 141 643 51 918 -41 126 -82 192 -170 281
-133 135 -282 192 -554 213 -147 12 -894 15 -904 4z m876 -407 c77 -21 130
-49 183 -98 82 -76 121 -171 131 -324 10 -161 -27 -298 -104 -384 -97 -108
-197 -140 -435 -140 l-158 0 0 486 0 487 163 -6 c95 -4 186 -12 220 -21z"/>
<path d="M14975 5358 c-3 -7 -4 -400 -3 -873 l3 -860 253 -3 252 -2 0 875 0
875 -250 0 c-191 0 -252 -3 -255 -12z"/>
<path d="M16340 5348 c-9 -22 -210 -529 -335 -848 -31 -80 -95 -242 -141 -360
-47 -118 -111 -281 -143 -362 -33 -81 -56 -149 -53 -152 3 -3 114 -6 248 -6
l242 0 51 146 c28 80 51 149 51 152 0 4 180 7 401 7 l401 0 19 -55 c11 -30 21
-64 24 -75 2 -11 13 -44 24 -72 10 -29 17 -53 15 -53 -2 0 3 -11 12 -25 l16
-25 264 0 c145 0 264 3 264 7 0 4 -111 287 -247 628 -135 341 -290 730 -344
865 l-97 245 -331 3 -331 2 -10 -22z m350 -382 c11 -24 21 -52 23 -62 2 -10 8
-30 14 -44 6 -14 31 -83 58 -155 52 -143 63 -173 95 -256 12 -31 22 -63 24
-70 1 -8 5 -19 8 -25 8 -12 38 -96 38 -106 0 -5 -129 -8 -286 -8 -226 0 -285
3 -282 13 6 25 283 757 286 757 2 0 12 -20 22 -44z"/>
<path d="M17968 4156 c-99 -27 -174 -105 -198 -207 -38 -158 99 -329 265 -329
96 0 203 68 245 157 97 203 -97 439 -312 379z m124 -71 c56 -12 106 -58 131
-123 21 -53 21 -78 2 -133 -53 -149 -238 -185 -342 -66 -66 75 -68 171 -6 255
37 50 120 86 173 75 14 -3 32 -6 42 -8z"/>
<path d="M17912 3898 l3 -143 43 -3 42 -3 0 56 c0 48 3 56 18 53 9 -2 30 -27
45 -56 27 -49 30 -52 68 -52 49 0 50 14 9 87 -28 50 -29 55 -15 76 23 32 19
80 -8 105 -20 19 -35 22 -115 22 l-93 0 3 -142z"/>
</g>
</svg>
