<svg clip-rule="evenodd" fill-rule="evenodd" height="1.3685in" image-rendering="optimizeQuality" shape-rendering="geometricPrecision" text-rendering="geometricPrecision" viewBox="0 0 5.80986 1.3685" width="5.80985in" xmlns="http://www.w3.org/2000/svg" xmlns:xlink="http://www.w3.org/1999/xlink"><linearGradient id="a" gradientUnits="userSpaceOnUse" x1="1.12354" x2="1.12354" y1="1.30693" y2=".021433"><stop offset="0" stop-color="#00bfff"/><stop offset=".490196" stop-color="#00bfff"/><stop offset="1" stop-color="#fff"/></linearGradient><path d="m4.20147.427335v.297705l.258295-.297705h.255185l-.288642.309902.291752.498429h-.255185l-.14885-.273591c-.0306063-.0547244-.0567993-.0778071-.0791024-.0697638-.0223032.00804331-.0334528.0202284-.0334528.036311v.112547.194496h-.21265v-1.04536h.109441c.0282677 0 .0526457.0101102.0728741.0303347.0202244.0202284.0303347.0435748.0303347.0700197v.136673zm-1.49952.808331c-.0669095.00415355-.139264.00311024-.217327-.00311024-.0780591-.00596457-.116953-.0557559-.116953-.148858v-.507508h-.124162v-.0425394c0-.0303347.0101181-.0552284.0303425-.0746851.0202284-.0191851.0446063-.0287874.0728741-.0287874h.0209449v-.23987h.109437c.0264488 0 .0497953.0101102.0700197.0303347.0202284.0202284.0303465.0446063.0303465.0728741v.136665h.205725v.0425394c0 .0303268-.0101181.0552284-.0303425.0746851-.0202284.0191851-.0446142.0287874-.0728741.0287874h-.102508v.449937c0 .0344843.0202244.0516024.0606772.0516024h.0637993v.157933zm.0424095 0v-.392111c0-.0788308.0116654-.145225.0350118-.198906.0233386-.0536811.0552323-.0967245.095693-.129146.038378-.0303347.0835001-.0526378.135106-.0669095.0516142-.0142599.104768-.0212599.159492-.0212599h.0152953.148134c-.0256299.0172953-.0494528.0383189-.0711378.063441-.0389488.0451339-.0649646.0970946-.0814134.152315h-.0502992c-.0588583 0-.102437.0142795-.130697.0425394-.0282599.0282599-.0425394.0728662-.0425394.133807v.416229h-.212646zm.674776-.486244h.309902c-.00388977-.0547166-.0181496-.0951772-.0425315-.121626-.026189-.0282677-.0637874-.0425276-.112284-.0425276-.0446063 0-.0811693.0142599-.109437.0425276-.0285315.0285236-.0435709.0689843-.0456496.121626zm.364626.237024h.151965c-.0223032.085067-.0648308.149902-.127587.194508-.0627678.0466733-.141858.0700158-.237036.0700158-.115394 0-.20565-.0376063-.27048-.112555-.0648347-.0728662-.0972442-.177118-.0972442-.313012 0-.129662.031378-.231059.0941339-.303933.0648308-.074941.155079-.112547.27048-.112547.121634 0 .215768.036563.282673.109437.0648347.074941.0972442.179193.0972442.313012v.0212677.012185c0 .0101181-.0010315.0171181-.00311024.0212677h-.525666c.00207874.0627559.0171181.109441.0456496.139776.0261929.0324213.0658662.0487559.118512.0487559.0344882 0 .0637914-.00700788.0881694-.0212677.00596457-.0020748.0116693-.00570473.0165984-.0106339.00518898-.00518898.0106378-.010626.0168543-.0168543.00181496-.00596457.00960237-.014.0225669-.0241181.0132284-.0101181.0321575-.0153032.0562756-.0153032z" fill="#244d85" fill-rule="nonzero"/><path d="m4.98609.228937h-.0496615l-.160008.171417.0303544.0303544.125756-.133256-.00194488.939359h.055504v-1.00787zm.458599 1.02541c.0730355 0 .132925-.0158307.179662-.0474725.0467402-.0316378.0840001-.0725552.11174-.122701.0277441-.0501496.0469922-.106142.0577008-.167976.0107126-.0618268.0160669-.122937.0160669-.183319 0-.0603701-.00535433-.121488-.0160669-.183315-.0107087-.0618347-.0299567-.117827-.0577008-.167976-.0277402-.0501496-.065-.0910631-.11174-.122705-.0467363-.0316378-.106626-.0474685-.179662-.0474685-.0730355 0-.132933.0158307-.179662.0474685-.0467481.0316418-.0840079.0725552-.111752.122705-.0277402.0501496-.0469803.106142-.057689.167976-.0107126.0618347-.0160748.122945-.0160748.183315 0 .0603819.00536221.121484.0160748.183319.0107087.0618347.0299488.117827.057689.167976.0277441.0501457.065004.0910631.111752.122701.0467284.0316418.106626.0474725.179662.0474725zm0-.0482048c-.0632993 0-.114906-.0151063-.154831-.0452796-.0399292-.0301772-.0713347-.0686575-.0942205-.115398-.0228858-.0467363-.0387048-.0978701-.0474725-.153374-.00875591-.055504-.0131417-.108575-.0131417-.159213 0-.0506339.00438583-.103705.0131417-.159209.00876772-.055504.0245866-.106638.0474725-.153378.022874-.0467363.0542914-.0852166.0942205-.115394.0399252-.0301732.0915316-.0452835.154831-.0452835.0632914 0 .114906.0151102.154835.0452835.0399252.0301772.0713308.0686575.0942087.115394.0228858.0467402.0387048.0978741.0474685.153378.00875591.055504.0131536.108575.0131536.159209 0 .0506378-.00439764.103709-.0131536.159213-.00876379.055504-.0245827.106638-.0474685.153374-.0228858.0467402-.0542835.0852205-.0942087.115398-.0399292.0301732-.0915434.0452796-.154835.0452796z" fill="#00bfff" fill-rule="nonzero"/><path d="m.822044.306744c-.100882-.0512048-.222728-.042004-.313481.0266103-.0691654.0523071-.11139.132413-.11676.218725l-.00319292.0512441-.0509882.00606693c-.190701.0226536-.337622.184977-.337622.378319 0 .210276.170496.380788.380772.380788h1.48552c.210284 0 .380788-.170504.380788-.380788 0-.161551-.102209-.305732-.254272-.359252l-.0417717-.0147087.00065748-.0442756c.00404725-.273768-.192118-.512965-.462418-.56091-.232492-.0412481-.468839.0692048-.585933.273858l-.0290827.0508268-.0522205-.026504z" fill="#00bfff"/><path d="m.899449.470174c.0497678-.271036.309835-.44874.579079-.400996.280516.0497835.460544.324036.399918.599575.170677.00638583.307075.146736.307075.318957 0 .176307-.142917.319225-.319225.319225-.560792 0-1.09685 0-1.48552 0-.176291 0-.319209-.142917-.319209-.319225 0-.219784.216571-.371622.421315-.302532-.0577205-.101791-.0309803-.231772.0628189-.302709.117996-.0892127.290331-.0474725.353752.0877048z" fill="url(#a)"/><path d="m.209988 1.03134.547504-.425835.282335.234555.434366-.403953.577874.547953c-.0359607.143173-.143284.247059-.270122.247059-.497103 0-.9723 0-1.31682 0-.11239 0-.209461-.0815788-.255134-.19978z" fill="#244d85"/><path d="m.328894.995072c.197169-.116854.347957-.140949.452485-.0724804.0349173-.0611024.0994843-.0859528.186536-.0833426l-.212114-.176217c-.142299.110681-.284603.221358-.426906.33204zm1.47932-.174898-.332244-.310599c-.212689.198225-.42537.396441-.638059.59467.355484-.202421.478461-.345051.61891-.220744.0656418-.0834449.175701-.113079.351394-.0633268z" fill="#fff"/></svg>