<?xml version="1.0"?>
<svg xmlns="http://www.w3.org/2000/svg" id="Layer_1" data-name="Layer 1" viewBox="0 0 400 400">
  <circle cx="200" cy="200" r="195.91" fill="#e5e0fc"/>
  <circle cx="290.22" cy="78.62" r="9.37" fill="#ac7fff"/>
  <circle cx="200" cy="48.97" r="9.37" fill="#fc6d26"/>
  <circle cx="310.72" cy="139.41" r="9.37" fill="#fc6d26"/>
  <circle cx="347.24" cy="217.46" r="9.37" fill="#ac7fff"/>
  <circle cx="310.72" cy="291.98" r="9.37" fill="#fc6d26"/>
  <circle cx="260.44" cy="339.32" r="9.37" fill="#ac7fff"/>
  <circle cx="200" cy="314.81" r="9.37" fill="#fc6d26"/>
  <circle cx="109.78" cy="78.62" r="9.37" fill="#ac7fff"/>
  <circle cx="89.28" cy="139.41" r="9.37" fill="#fc6d26"/>
  <circle cx="52.76" cy="217.46" r="9.37" fill="#ac7fff"/>
  <circle cx="89.28" cy="291.98" r="9.37" fill="#fc6d26"/>
  <circle cx="139.56" cy="339.32" r="9.37" fill="#ac7fff"/>
  <path d="M253.52,168.78v-24A53.52,53.52,0,0,0,200,91.3h0a53.52,53.52,0,0,0-53.52,53.52v24h27.11V143.64A26.41,26.41,0,0,1,200,117.23h0a26.4,26.4,0,0,1,26.41,26.41v25.14Z" fill="#afa3c6"/>
  <rect x="146.48" y="154.79" width="27.5" height="13.34" fill="#7f6997"/>
  <rect x="226.02" y="154.79" width="27.5" height="13.34" fill="#7f6997"/>
  <rect x="127.21" y="169.59" width="145.58" height="101.2" fill="#fca121"/>
  <path d="M211.58,214.22a11.58,11.58,0,1,0-16.92,10.27L190.82,243h18.36l-3.84-18.54A11.56,11.56,0,0,0,211.58,214.22Z" fill="#7f6997"/>
  <rect x="251.57" y="169.59" width="21.22" height="101.2" fill="#e58615"/>
  <rect x="129.54" y="169.59" width="21.22" height="101.2" fill="#e58615"/>
  <path d="M200,400C89.72,400,0,310.28,0,200S89.72,0,200,0,400,89.72,400,200,310.28,400,200,400ZM200,8.18C94.23,8.18,8.18,94.23,8.18,200S94.23,391.82,200,391.82,391.82,305.77,391.82,200,305.77,8.18,200,8.18Z" fill="#6e49cb"/>
  <path d="M130.21,270.79v-98.2H260.44a3,3,0,0,0,0-6h-3.92v-21a56.42,56.42,0,0,0-20.27-43.32V87.82a6.21,6.21,0,0,1,6.2-6.2h35.79a12.37,12.37,0,1,0,0-6H242.45a12.21,12.21,0,0,0-12.2,12.2V97.93A56.14,56.14,0,0,0,203,89.19V61a12.37,12.37,0,1,0-6,0V89.19a56.14,56.14,0,0,0-27.25,8.74V87.82a12.21,12.21,0,0,0-12.2-12.2H121.76a12.36,12.36,0,1,0,0,6h35.79a6.21,6.21,0,0,1,6.2,6.2v14.49a56.42,56.42,0,0,0-20.27,43.32v21H127.21a3,3,0,0,0-3,3v12.48H98.48a6.21,6.21,0,0,1-6.2-6.2V151.4a12.39,12.39,0,1,0-6,0v24.48a12.21,12.21,0,0,0,12.2,12.2h25.73v26.39H64.75a12.37,12.37,0,1,0,0,6h59.46v26.39H98.48a12.21,12.21,0,0,0-12.2,12.2V280a12.37,12.37,0,1,0,6,0V259.05a6.21,6.21,0,0,1,6.2-6.2h25.73v17.94a3,3,0,0,0,6,0Zm160-198.54a6.37,6.37,0,1,1-6.37,6.37A6.38,6.38,0,0,1,290.22,72.25ZM109.78,85a6.37,6.37,0,1,1,6.37-6.36A6.37,6.37,0,0,1,109.78,85Zm113.63,81.61H176.59V144.45a23.41,23.41,0,0,1,46.82,0ZM193.63,49A6.37,6.37,0,1,1,200,55.34,6.38,6.38,0,0,1,193.63,49Zm-44.15,96.66a50.52,50.52,0,0,1,101,0v21H229.41V144.45a29.41,29.41,0,0,0-58.82,0v22.14H149.48Zm-66.57-6.22a6.37,6.37,0,1,1,6.37,6.37A6.38,6.38,0,0,1,82.91,139.41ZM52.76,223.83a6.37,6.37,0,1,1,6.37-6.37A6.37,6.37,0,0,1,52.76,223.83ZM95.65,292a6.37,6.37,0,1,1-6.37-6.37A6.37,6.37,0,0,1,95.65,292Z" fill="#380d75"/>
  <path d="M200,205.63a8.6,8.6,0,0,1,8.58,8.59,3,3,0,0,0,6,0,14.58,14.58,0,1,0-23.28,11.7l-3.42,16.5a3,3,0,0,0,2.94,3.61h18.36a3,3,0,0,0,2.94-3.61l-3.85-18.54a3,3,0,0,0-5.87,1.22L205.5,240h-11l3.1-14.93a3,3,0,0,0-1.55-3.27,8.58,8.58,0,0,1,3.95-16.2Z" fill="#380d75"/>
  <path d="M347.24,205.09A12.39,12.39,0,0,0,335.12,215a2.94,2.94,0,0,0-1.72-.55H275.79V188.07h25.73a12.21,12.21,0,0,0,12.2-12.2V151.39a12.37,12.37,0,1,0-6,0v24.48a6.21,6.21,0,0,1-6.2,6.2H275.79V169.59a3,3,0,1,0-6,0v98.2H141.48a3,3,0,1,0,0,6h22.27v18.35a6.21,6.21,0,0,1-6.2,6.2h-8.79a12.22,12.22,0,0,0-12.2,12.2v16.8a12.37,12.37,0,1,0,6,0v-16.8a6.21,6.21,0,0,1,6.2-6.2h8.79a12.21,12.21,0,0,0,12.2-12.2V273.79H197v29a12.37,12.37,0,1,0,6,0v-29h27.25v18.35a12.21,12.21,0,0,0,12.2,12.2h8.79a6.21,6.21,0,0,1,6.2,6.2v16.8a12.36,12.36,0,1,0,6,0v-16.8a12.22,12.22,0,0,0-12.2-12.2h-8.79a6.21,6.21,0,0,1-6.2-6.2V273.79h36.54a3,3,0,0,0,3-3V252.85h25.73a6.21,6.21,0,0,1,6.2,6.2V280a12.37,12.37,0,1,0,6,0V259.05a12.21,12.21,0,0,0-12.2-12.2H275.79V220.46H333.4a3,3,0,0,0,1.72-.55,12.36,12.36,0,1,0,12.12-14.82Zm-42.89-65.68a6.37,6.37,0,1,1,6.37,6.37A6.38,6.38,0,0,1,304.35,139.41ZM145.93,339.32a6.37,6.37,0,1,1-6.37-6.37A6.38,6.38,0,0,1,145.93,339.32Zm60.44-24.51a6.37,6.37,0,1,1-6.37-6.37A6.38,6.38,0,0,1,206.37,314.81Zm60.43,24.51a6.37,6.37,0,1,1-6.36-6.37A6.37,6.37,0,0,1,266.8,339.32ZM317.09,292a6.37,6.37,0,1,1-6.37-6.37A6.37,6.37,0,0,1,317.09,292Zm30.15-68.15a6.37,6.37,0,1,1,6.36-6.37A6.38,6.38,0,0,1,347.24,223.83Z" fill="#380d75"/>
</svg>
