<?xml version="1.0" encoding="utf-8"?>
<!-- Generator: Adobe Illustrator 25.3.1, SVG Export Plug-In . SVG Version: 6.00 Build 0)  -->
<svg version="1.1" id="Layer_1" xmlns="http://www.w3.org/2000/svg" xmlns:xlink="http://www.w3.org/1999/xlink" x="0px" y="0px"
	 viewBox="0 0 540 400" style="enable-background:new 0 0 540 400;" xml:space="preserve">
<style type="text/css">
	.st0{fill:none;}
	.st1{fill:#FF9769;}
	.st2{fill:#E0E0E0;}
	.st3{fill:#380D75;}
	.st4{fill:#6E49CB;}
	.st5{fill:#A686FF;}
	.st6{fill:#FC6D26;}
	.st7{fill:#341472;}
	.st8{fill:#FFFFFF;}
</style>
<g id="Layer_2_1_">
	<g id="Layer_1-2">
		<rect class="st0" width="540" height="400"/>
		<path class="st1" d="M146.5,347.3c-1.2,0-2.3-1-2.3-2.3c0,0,0,0,0,0v-68.3c0-0.1,0-0.2,0-0.3c0.2-1.2,0.3-2.4,0.3-3.6
			c0-1.2,1-2.3,2.3-2.2c1.2,0,2.2,1,2.2,2.2c0,1.4-0.1,2.7-0.3,4.1v68.1C148.8,346.3,147.8,347.3,146.5,347.3
			C146.5,347.3,146.5,347.3,146.5,347.3z"/>
		<path class="st2" d="M107.2,250.5c-7.7,4.1-12.8,11.8-13.4,20.4c0,0.7-0.4,1.3-0.9,1.7c-0.7,0.5-1.6,0.6-2.4,0.2
			c-2.5-1.3-5.3-1.9-8.1-1.9c-9.8,0-17.8,8-17.8,17.8c0,0.7,0,1.4,0.1,2c0.1,1.2-0.7,2.4-2,2.5c-0.4,0.1-0.9,0-1.3-0.2
			c-3.2-1.6-6.8-2.4-10.4-2.4c-1.1,0-2.2,0.1-3.2,0.2c-1.2,0.2-2.4-0.7-2.5-1.9c0-0.1,0-0.2,0-0.3l0,0c0-1.1,0.8-2.1,1.9-2.2
			c1.3-0.2,2.5-0.3,3.8-0.3c3.1,0,6.1,0.5,9,1.5c0.6-11.9,10.4-21.2,22.3-21.2c2.5,0,4.9,0.4,7.2,1.2c1.6-9.1,7.3-16.9,15.4-21.1
			c1.1-0.6,2.5-0.2,3.1,0.9C108.7,248.5,108.3,249.9,107.2,250.5L107.2,250.5L107.2,250.5z"/>
		<path class="st2" d="M84.1,333.7c-1.2,0-2.3-1-2.3-2.3c0-0.4,0.1-0.7,0.2-1c4.4-8.7,15-12.2,23.7-7.8c0.1,0.1,0.3,0.1,0.4,0.2
			c0.5-0.8,1-1.5,1.6-2.3c0.8-1,2.2-1.2,3.2-0.4c1,0.8,1.2,2.2,0.4,3.2c-0.9,1.1-1.7,2.4-2.3,3.7c-0.5,1.1-1.9,1.6-3,1
			c-0.1-0.1-0.2-0.1-0.4-0.2c-5.8-4.3-14.1-3.1-18.4,2.8c-0.4,0.6-0.8,1.2-1.2,1.9C85.7,333.2,85,333.7,84.1,333.7z"/>
		<path class="st2" d="M515.1,288.6c4,0,7.9,1,11.4,2.9c0.7,0.4,1.2,1.2,1.2,2l0,0c0,1.2-1,2.2-2.3,2.2c-0.4,0-0.7-0.1-1.1-0.3
			c-2.8-1.5-6-2.3-9.3-2.3c-1.1,0-2.3,0.1-3.4,0.3c-1,0.2-2.1-0.4-2.5-1.4c-0.2-0.6-0.2-1.3,0.1-1.9c3.4-7.2,0.3-15.8-6.9-19.2
			c-4.3-2-9.3-1.8-13.4,0.6c-1.1,0.6-2.5,0.3-3.1-0.8c-0.6-1.1-0.3-2.5,0.8-3.1l0,0c9.1-5.2,20.7-2.1,25.9,7c2.5,4.3,3.2,9.3,2,14.1
			L515.1,288.6z"/>
		<path class="st1" d="M386.9,347.3c-1.2,0-2.3-1-2.3-2.3c0,0,0,0,0,0v-66.9c0-1.2,1-2.3,2.3-2.3c0,0,0,0,0,0h43.4
			c4-12.3,15.5-20.6,28.5-20.6c1.2,0,2.3,1,2.3,2.3c0,1.2-1,2.2-2.3,2.3c-11.5,0-21.6,7.8-24.6,18.9c-0.3,1-1.2,1.7-2.2,1.7h-42.8
			v64.6C389.1,346.3,388.1,347.3,386.9,347.3C386.9,347.3,386.9,347.3,386.9,347.3z"/>
		<path class="st1" d="M392.9,347.3c0,0-0.1,0-0.1,0c-1.2-0.1-2.2-1.1-2.1-2.4c0,0,0,0,0,0c0.1-1.3,0.3-5,0.3-6.1
			c0-14-11.4-25.4-25.4-25.4c-1.2,0-2.3-1-2.3-2.3c0-1.2,1-2.2,2.3-2.3c16.5,0,29.9,13.4,29.9,29.9c0,1.4-0.3,6.1-0.3,6.3
			C395.1,346.4,394.1,347.3,392.9,347.3z"/>
		<path class="st2" d="M338.9,333.8c-1.2,0-2.3-1-2.3-2.3c0-0.2,0-0.4,0.1-0.6c1.9-6.9,6.2-12.9,12.1-16.9c1-0.7,2.4-0.4,3.1,0.6
			c0.7,1,0.4,2.4-0.6,3.1c-5,3.4-8.7,8.5-10.3,14.4C340.8,333.1,339.9,333.8,338.9,333.8z"/>
		<path class="st2" d="M338.9,333.8c-0.4,0-0.7-0.1-1-0.2c-2.5-1.3-5.3-1.9-8.1-1.9c-1.7,0-3.3,0.2-4.9,0.6
			c-1.2,0.3-2.4-0.4-2.8-1.6s0.4-2.4,1.6-2.8l0,0c2-0.5,4-0.8,6.1-0.8c3.5,0,7,0.8,10.1,2.4c1.1,0.6,1.6,1.9,1,3
			C340.5,333.3,339.7,333.8,338.9,333.8L338.9,333.8z"/>
		<path class="st2" d="M159.5,295.6c-1.2,0-2.3-1-2.3-2.3c0,0,0,0,0,0c0-16.5,13.4-29.9,29.9-29.9c6.2,0,12.2,1.9,17.3,5.5
			c3.5-7.7,12.5-11,20.1-7.6c5.4,2.5,8.9,7.9,8.9,13.9c0,1.2-1,2.3-2.2,2.3s-2.3-1-2.3-2.2c0,0,0,0,0,0c0-5.9-4.8-10.7-10.7-10.7
			c-5.1,0-9.5,3.6-10.5,8.7c-0.2,1.2-1.4,2-2.6,1.8c-0.4-0.1-0.8-0.3-1.1-0.5c-10.5-9.4-26.5-8.5-35.9,2c-4.2,4.7-6.5,10.7-6.5,16.9
			C161.8,294.6,160.8,295.6,159.5,295.6C159.5,295.6,159.5,295.6,159.5,295.6z"/>
		<circle class="st2" cx="285.9" cy="193.8" r="67.7"/>
		<path class="st3" d="M125.9,384.2v-61l0,0V135H72.4V88.3c17.8-3.4,27-5.8,39.3-10.6c12.3-4.8,22.6-12.3,34.2-19.1h49.8v264.6l0,0
			v61H125.9z"/>
		<path class="st3" d="M197.6,386h-73.5V136.8H70.5v-50l1.5-0.3c18-3.5,27.2-5.9,39-10.5c8.8-3.4,16.5-8.2,24.7-13.3
			c3-1.9,6.1-3.8,9.3-5.7l0.4-0.3h52.2L197.6,386z M127.8,382.3h66.1V60.4h-47.5c-3,1.8-5.9,3.6-8.7,5.4
			c-8.3,5.2-16.2,10.1-25.3,13.6c-11.8,4.6-20.8,7.1-38.2,10.4v43.3h53.6L127.8,382.3z"/>
		<path class="st3" d="M369.9,384.2v-77.9h-141v-51.8l119-195.9h92.3v190.2h37.4v57.4h-37.4v77.9H369.9z M301.2,248.8h68.7V135.9
			L301.2,248.8z"/>
		<path class="st3" d="M442,386H368v-77.9H227v-54.2L346.8,56.7H442v190.2h37.4v61.1H442V386z M371.7,382.3h66.6v-77.9h37.4v-53.7
			h-37.4V60.4h-89.4L230.7,254.9v49.4h141V382.3z M371.7,250.6h-73.8l73.8-121.3V250.6z M304.4,246.9H368V142.5L304.4,246.9z"/>
		<path class="st4" d="M116.7,374.9v-61l0,0V125.7H63.2V79.1c17.8-3.4,27-5.8,39.3-10.6c12.3-4.8,22.6-12.3,34.2-19.1h49.8v264.6
			l0,0v61L116.7,374.9z"/>
		<path class="st4" d="M359.3,374.9V297h-141v-51.8l119-195.9h92.3v190.2H467V297h-37.4v77.9L359.3,374.9z M290.6,239.6h68.7V126.7
			L290.6,239.6z"/>
		<polygon class="st5" points="347.8,58.5 430.9,58.5 430.9,49.3 338.6,49.3 219.6,245.2 219.6,297 228.9,297 228.9,254.4 		"/>
		<g>
			<path class="st6" d="M285.7,143.5l3.8,9.9c0,0,0,0,0,0l4.6-1.8v0l-3.8-9.9c-1.3-3.3-1.1-7.1,0.4-10.3c3.3-6.8,11.2-9.9,18.2-7.1
				c3.3,1.3,5.9,4,7.2,7.3l3.8,9.9l4.6-1.8c0,0,0,0,0,0l-3.8-9.9c-3.6-9.2-14.3-13.6-24-9.9c-1.3,0.5-2.4,1.1-3.5,1.8l-8.6,14.2
				C284.4,138.6,284.8,141.1,285.7,143.5z"/>
			<path class="st3" d="M282.2,144.9l3.8,9.9c0.3,0.7,1,1.2,1.8,1.2l0,0c0.2,0,0.5,0,0.7-0.1c1-0.4,1.5-1.5,1.1-2.4c0,0,0,0,0,0
				l-3.8-9.9c-0.9-2.4-1.3-4.9-1.1-7.5l-3.4,5.5C281.5,142.7,281.8,143.8,282.2,144.9z"/>
			<path class="st3" d="M320.7,129.9l3.8,9.9c0,0,0,0,0,0c0.4,1,1.5,1.4,2.4,1.1c1-0.4,1.4-1.5,1.1-2.4l-3.8-9.9
				c-4.1-10.7-16.3-16.1-27.5-12.5l-3.5,5.8c1.1-0.7,2.3-1.3,3.5-1.8C306.4,116.3,317.2,120.7,320.7,129.9z"/>
			<path class="st3" d="M308.9,124.4c-7-2.8-15,0.3-18.2,7.1c-1.5,3.2-1.7,7-0.4,10.3l3.8,9.9v0c0.3,0.7,1,1.2,1.8,1.2l0,0
				c0.2,0,0.5,0,0.7-0.1c1-0.4,1.5-1.5,1.1-2.4l-3.8-9.9c-0.9-2.4-0.8-5,0.3-7.3c2.4-5,8.2-7.2,13.4-5.2c2.4,1,4.2,2.8,5.2,5.2
				l3.8,9.9c0.4,1,1.5,1.4,2.4,1.1s1.4-1.5,1.1-2.4l0,0l-3.8-9.9C314.8,128.4,312.2,125.7,308.9,124.4z"/>
		</g>
		<path class="st7" d="M271,265.7c-0.2,0.3-0.4,0.6-0.6,1c3.5,1.7,5.8,5.1,6.1,9c0.1,1,1,1.8,2,1.7c0.2,0,0.4-0.1,0.5-0.1
			c4.5-1.7,9.5-1.4,13.8,0.6c0.8,0.4,1.8,0.1,2.3-0.6c9-12.3,26.3-15,38.6-6c2.5,1.8,4.6,4,6.4,6.6c0.6,0.9,1.8,1.1,2.6,0.5
			c0,0,0,0,0,0c6.7-4.9,15.9-4.4,22.1,1.1c0.8,0.7,2,0.6,2.7-0.1c0.1-0.1,0.2-0.2,0.2-0.3c8-14.3,26.2-19.4,40.5-11.3
			c3.4,1.9,6.4,4.5,8.8,7.5c0.6,0.8,1.7,0.9,2.5,0.4c4.3-2.8,9.2-4.3,14.3-4.4c0.9-1.3,1.8-2.5,2.9-3.7c-0.7,0-1.4-0.1-2.2-0.1
			c-5.5,0-10.9,1.4-15.6,4.1c-12.1-13.9-33.3-15.4-47.2-3.2c-2.3,2-4.4,4.4-6,6.9c-6.9-5-16.2-5.4-23.5-1
			c-10.7-13.7-30.4-16.1-44.1-5.4c-1.9,1.5-3.6,3.1-5,5c-4.2-1.6-8.8-1.9-13.2-0.8c-0.9-3.5-3-6.6-6-8.7l-0.3,0
			C272.6,264.5,271.6,265,271,265.7z"/>
		<path class="st7" d="M433.9,271.3c-1.8,2.7-3.1,5.7-4,8.8c-0.2,0.9-0.5,1.9-0.6,2.9c-11.7-3.1-23.6,3.9-26.7,15.5
			c-0.5,1.8-0.7,3.7-0.7,5.6c0,0.1,0,0.2,0,0.3c-0.4,0-0.7,0-1.1,0c-8,0-15.6,3.2-21.2,8.8c1.1,0.6,2.2,1.3,3.3,2.1
			c4.9-4.5,11.3-7,17.9-7.1c1,0,1.9,0.1,2.9,0.2c1,0.1,2-0.6,2.1-1.7c0-0.1,0-0.3,0-0.4c-0.1-0.7-0.1-1.4-0.1-2.2
			c0-10,8.1-18.1,18.1-18.1c2.2,0,4.4,0.4,6.5,1.2c1,0.4,2.1-0.1,2.4-1.1c0.1-0.2,0.1-0.3,0.1-0.5c1.2-14.6,13.9-25.5,28.5-24.3
			c2.4,0.2,4.8,0.7,7,1.5v-4c-11.3-3.6-23.7-0.2-31.6,8.6C435.7,268.7,434.7,270,433.9,271.3z"/>
		<path class="st7" d="M422.5,356.5c0-0.1,0-0.2,0-0.3c0-12.1-9.8-21.8-21.8-21.8c-1.9,0-3.7,0.2-5.6,0.7
			c-1.5-9.3-7.3-17.3-15.6-21.8c-5.8-3.2-12.5-4.3-19-3.3v3.8c14.4-2.6,28.1,6.9,30.7,21.3c0.2,0.9,0.3,1.8,0.3,2.7
			c0.1,1,1,1.8,2,1.7c0.2,0,0.4-0.1,0.5-0.1c9.3-3.6,19.8,1.1,23.3,10.4c0.8,2.1,1.2,4.3,1.2,6.5c0,0.7,0,1.4-0.1,2.2
			c-0.1,1,0.6,2,1.6,2.1c0.1,0,0.3,0,0.4,0c1-0.1,1.9-0.2,2.9-0.2c2.5,0,4.9,0.3,7.3,1v-3.9c-2.4-0.6-4.8-0.9-7.3-0.9
			C423.3,356.4,422.9,356.4,422.5,356.5z"/>
		<path class="st8" d="M360.6,309.9c6.5-1,13.2,0.1,19,3.3c5.7-5.6,13.3-8.7,21.2-8.8c0.4,0,0.7,0,1.1,0c0-0.1,0-0.2,0-0.3
			c0-12.1,9.8-21.8,21.8-21.8c1.9,0,3.7,0.2,5.6,0.7c0.2-1,0.4-1.9,0.6-2.9c0.8-3.1,2.2-6.1,4-8.8c-5.1,0.1-10,1.6-14.3,4.4
			c-0.8,0.5-1.9,0.3-2.5-0.4c-10.2-12.9-28.8-15.1-41.7-5c-3.1,2.4-5.6,5.4-7.5,8.8c-0.5,0.9-1.7,1.2-2.6,0.7
			c-0.1-0.1-0.2-0.1-0.3-0.2c-6.2-5.5-15.4-6-22.1-1.1c-0.8,0.6-2,0.4-2.6-0.4c0,0,0,0,0,0c-8.7-12.6-25.9-15.7-38.5-7
			c-2.5,1.7-4.7,3.9-6.6,6.4c-0.5,0.7-1.5,1-2.3,0.6c-4.3-2.1-9.3-2.3-13.8-0.6c-1,0.4-2.1-0.1-2.4-1.1c-0.1-0.2-0.1-0.3-0.1-0.5
			c-0.3-3.9-2.6-7.3-6.1-9c-0.2,0.6-0.3,1.2-0.3,1.8l0.8,6.3c0.1,0.7-0.2,1.4-0.7,1.8c-3.2,2.3-6.6,4.1-10.3,5.4
			c-0.6,0.2-1.4,0.1-1.9-0.4l-1.6-1.4l-3.1-2.9c-1.5-1.3-3.8-1.2-5.2,0.3c-0.1,0.1-0.1,0.1-0.2,0.2l-1.8,2.4l-0.2,0.2l-1.9,2.5
			c-0.4,0.5-0.9,0.7-1.5,0.7c-0.1,0-0.2,0-0.3,0c-3.8-0.6-7.6-1.8-11.1-3.5c-0.6-0.3-1-0.9-1-1.6L230,272c-0.1-2-1.8-3.6-3.8-3.4
			c-0.1,0-0.2,0-0.2,0l-6.3,0.8c0,0,0,0,0,0V297h141V309.9z"/>
		<path class="st8" d="M459.2,261.3c-13.8,0.1-25.3,10.6-26.4,24.4c-0.1,1-1,1.8-2,1.7c-0.2,0-0.4-0.1-0.5-0.1
			c-9.3-3.6-19.8,1.1-23.3,10.4c-0.8,2.1-1.2,4.3-1.2,6.5c0,0.7,0,1.4,0.1,2.2c0.1,1-0.6,2-1.6,2.1c-0.1,0-0.3,0-0.4,0
			c-1-0.1-1.9-0.2-2.9-0.2c-6.7,0-13.1,2.5-17.9,7.1c6.6,4.7,11,11.8,12.3,19.8c11.7-3.1,23.6,3.9,26.7,15.5
			c0.5,1.8,0.7,3.7,0.7,5.6c0,0.1,0,0.2,0,0.3c0.4,0,0.7,0,1.1,0c2.4,0,4.9,0.3,7.3,0.9V297h37.4v-34.1
			C465.4,261.8,462.3,261.3,459.2,261.3z"/>
		<path class="st8" d="M420.7,360.4c-1,0.1-2-0.6-2.1-1.7c0-0.1,0-0.3,0-0.4c0.1-0.7,0.1-1.4,0.1-2.2c0-10-8.1-18.1-18.1-18.1
			c-2.2,0-4.4,0.4-6.5,1.2c-1,0.4-2.1-0.1-2.4-1.1c-0.1-0.2-0.1-0.3-0.1-0.5c-1.1-14.5-13.8-25.4-28.4-24.3
			c-0.9,0.1-1.8,0.2-2.7,0.3v61.2h70.3v-13.7c-2.4-0.7-4.8-1-7.3-1C422.7,360.2,421.7,360.3,420.7,360.4z"/>
		<path class="st8" d="M246.4,251.7c3.8,1.3,7,4,8.8,7.7c7.1-4,9.7-13,5.7-20.1c-1.8-3.3-4.9-5.8-8.5-6.9c-3.7-1.2-7.8-0.8-11.3,1
			c-7.1,3.7-10,12.4-6.4,19.6C238.3,251,242.5,250.5,246.4,251.7z M242.1,240.5c1.2-3.9,5.4-6.1,9.3-4.8c3.9,1.2,6.1,5.4,4.8,9.3
			c-1.2,3.9-5.4,6.1-9.3,4.8c-1.9-0.6-3.4-1.9-4.3-3.6C241.7,244.4,241.5,242.4,242.1,240.5z"/>
		<path class="st6" d="M245.2,255.3c-2.8-0.8-5.8-0.5-8.4,0.8c3.7,4.3,9.4,6.1,14.9,4.7C250.3,258.2,248,256.2,245.2,255.3z"/>
		<path class="st6" d="M248.1,246.2c1.9,0.6,3.9-0.5,4.6-2.4c0,0,0,0,0,0v0c0.6-1.9-0.5-4-2.4-4.6c-1.9-0.6-4,0.5-4.6,2.4
			C245.1,243.6,246.2,245.6,248.1,246.2z"/>
		<path class="st5" d="M225.5,264.9c4.1-0.5,7.8,2.4,8.3,6.4c0,0.2,0,0.4,0,0.6l0.2,5.2c2.5,1.1,5.2,2,7.9,2.5l3.2-4.2
			c2.5-3.2,7.2-3.8,10.4-1.3c0.1,0.1,0.3,0.2,0.4,0.4l3.9,3.5c2.6-1,5.1-2.3,7.3-3.8l-0.7-5.2c-0.5-4.1,2.4-7.8,6.4-8.3
			c0.2,0,0.4,0,0.6,0l5.2-0.2c1.1-2.5,2-5.2,2.5-7.9l-4.2-3.2c-3.2-2.5-3.8-7.2-1.3-10.4c0.1-0.1,0.2-0.3,0.4-0.4l3.5-3.9
			c-1-2.6-2.3-5.1-3.8-7.3l-5.2,0.7c-4.1,0.5-7.8-2.4-8.3-6.4c0-0.2,0-0.4,0-0.6l-0.2-5.2c-2.5-1.1-5.2-2-7.9-2.5l-3.2,4.2
			c-2.5,3.2-7.2,3.8-10.4,1.3c-0.1-0.1-0.3-0.2-0.4-0.4l-2.7-2.5L220,244.5c2.5,2.8,2.5,7.1-0.1,9.9l-0.4,0.4v9.8
			c0.2,0.3,0.4,0.7,0.6,1L225.5,264.9z M231.6,255c-4.8-9.1-1.2-20.3,7.9-25.1c9.1-4.8,20.3-1.2,25.1,7.9c4.8,9.1,1.2,20.3-7.9,25.1
			c-4.4,2.3-9.5,2.7-14.2,1.3C237.7,262.7,233.8,259.4,231.6,255L231.6,255z"/>
		<path class="st7" d="M221.9,248.8c-0.1-1.6-0.8-3.1-1.9-4.3l-0.4,0.7v9.6l0.4-0.4C221.4,252.9,222.1,250.8,221.9,248.8z"/>
		<path class="st7" d="M237.4,216l2.7,2.5c3,2.7,7.7,2.5,10.5-0.5c0.1-0.1,0.2-0.3,0.4-0.4l3.2-4.2c2.7,0.5,5.4,1.3,7.9,2.5l0.2,5.2
			c0.2,4.1,3.7,7.2,7.8,7c0.2,0,0.4,0,0.6,0l5.2-0.7c1.6,2.3,2.9,4.7,3.8,7.3l-3.5,3.9c-2.7,3-2.5,7.7,0.5,10.5
			c0.1,0.1,0.3,0.2,0.4,0.4l4.2,3.2c-0.5,2.7-1.3,5.4-2.5,7.9l-5.2,0.2c-4.1,0.2-7.2,3.7-7,7.8c0,0.2,0,0.4,0,0.6l0.7,5.2
			c-2.3,1.6-4.7,2.9-7.3,3.8l-3.9-3.5c-3-2.7-7.7-2.5-10.5,0.5c-0.1,0.1-0.2,0.3-0.4,0.4l-3.2,4.2c-2.7-0.5-5.4-1.3-7.9-2.5
			l-0.2-5.2c-0.2-4.1-3.7-7.2-7.8-7c-0.2,0-0.4,0-0.6,0l-5.2,0.7c-0.2-0.3-0.4-0.7-0.6-1v4.9c0,0,0,0,0,0l6.3-0.8
			c2-0.2,3.8,1.2,4.1,3.2c0,0.1,0,0.2,0,0.2l0.3,6.4c0,0.7,0.4,1.3,1,1.6c3.5,1.7,7.2,2.9,11.1,3.5c0.1,0,0.2,0,0.3,0
			c0.6,0,1.1-0.3,1.5-0.7l1.9-2.5l0.2-0.2l1.8-2.4c1.2-1.6,3.5-1.9,5.1-0.6c0.1,0,0.1,0.1,0.2,0.2l3.1,2.9l1.6,1.4
			c0.5,0.5,1.2,0.6,1.9,0.4c3.7-1.3,7.1-3.1,10.3-5.4c0.6-0.4,0.8-1.1,0.7-1.8l-0.8-6.3c-0.1-0.6,0-1.2,0.3-1.8
			c0.1-0.4,0.3-0.7,0.6-1c0.6-0.8,1.6-1.2,2.6-1.3l0.3,0l6-0.3c0.7,0,1.3-0.4,1.6-1c1.7-3.5,2.9-7.2,3.5-11.1
			c0.1-0.7-0.2-1.4-0.7-1.8l-5.1-3.9c-1.6-1.2-1.9-3.5-0.6-5.1c0-0.1,0.1-0.1,0.1-0.2l4.3-4.7c0.5-0.5,0.6-1.2,0.4-1.9
			c-1.2-3.7-3.1-7.2-5.4-10.3c-0.4-0.6-1.1-0.8-1.8-0.7l-6.3,0.8c-2,0.2-3.8-1.2-4.1-3.2c0-0.1,0-0.2,0-0.2l-0.3-6.4
			c0-0.7-0.4-1.3-1-1.6c-3.5-1.7-7.2-2.9-11.1-3.5c-0.7-0.1-1.4,0.2-1.8,0.7l-3.9,5.1c-1.2,1.6-3.5,1.9-5.1,0.6
			c-0.1,0-0.1-0.1-0.2-0.2l-3.3-3L237.4,216z"/>
		<path class="st7" d="M246.4,251.7c-3.9-1.2-8.1-0.7-11.6,1.2c0.1,0.1,0.1,0.2,0.2,0.4c0.5,1,1.2,1.9,1.9,2.8
			c5.3-2.9,11.9-0.9,14.7,4.4c0,0.1,0.1,0.2,0.1,0.3c1.1-0.3,2.2-0.7,3.2-1.2c0.1-0.1,0.2-0.1,0.4-0.2
			C253.4,255.7,250.2,253,246.4,251.7z"/>
		<path class="st7" d="M247,249.8c3.9,1.2,8-0.9,9.3-4.8c1.2-3.9-0.9-8-4.8-9.3c-3.9-1.2-8,0.9-9.3,4.8c-0.6,1.9-0.4,3.9,0.5,5.6
			C243.5,247.9,245.1,249.2,247,249.8z M245.7,241.6c0.6-1.9,2.6-3,4.5-2.4c1.9,0.6,3,2.6,2.4,4.5c0,0,0,0,0,0v0
			c-0.6,1.9-2.6,3-4.6,2.4C246.2,245.6,245.1,243.6,245.7,241.6L245.7,241.6L245.7,241.6z"/>
		<path class="st7" d="M242.4,264.2c9.8,3.1,20.2-2.4,23.3-12.1c3.1-9.8-2.4-20.2-12.1-23.3c-9.8-3.1-20.2,2.4-23.3,12.1
			c-1.5,4.7-1,9.8,1.2,14.1C233.8,259.4,237.7,262.7,242.4,264.2z M241.2,233.4c7.2-3.8,16.2-1,19.9,6.2c3.7,7.1,1.1,15.9-5.9,19.8
			c-0.1,0.1-0.2,0.1-0.4,0.2c-1,0.5-2.1,0.9-3.2,1.2c-5.5,1.4-11.2-0.4-14.9-4.7c-0.7-0.9-1.4-1.8-1.9-2.8c-0.1-0.1-0.1-0.2-0.2-0.4
			C231.2,245.7,234.1,237.1,241.2,233.4L241.2,233.4z"/>
		<polygon class="st5" points="125.9,135 116.7,135 116.7,313.9 116.7,374.9 125.9,374.9 125.9,323.1 		"/>
		<path class="st5" d="M111.7,77.7c12.3-4.8,22.6-12.3,34.2-19.1h40.6v-9.2h-49.8c-11.6,6.8-21.9,14.3-34.2,19.1
			c-12.3,4.8-21.6,7.2-39.3,10.6v46.7h9.2V88.3C90.2,84.9,99.4,82.4,111.7,77.7z"/>
		<rect x="440.1" y="239.6" class="st5" width="28.2" height="9.2"/>
		<polygon class="st5" points="360.6,239.6 306.8,239.6 301.2,248.8 369.9,248.8 369.9,135.9 360.6,151.1 		"/>
		<path class="st5" d="M185.8,250.6l-26.1-137.8h-2.2v6.5l-3.3-3.8c-1.1-1.3-3.2-1.5-4.5-0.3c-0.1,0.1-0.2,0.2-0.3,0.3l-3.3,4v-6.7
			h-2.2l-2.3,12.3l-22.3,117.8c14.6,0.4,26.9,11.1,29.3,25.5c6.4-1.7,13.3-0.4,18.6,3.6c5.3-5,12.2-7.9,19.4-8.2V252l-0.5-0.1
			L185.8,250.6z M137.1,236.4c-0.1,1-0.9,1.7-1.9,1.7c-0.1,0-0.1,0-0.2,0c-1-0.1-1.8-1-1.7-2.1l3.2-33.3c0.1-1,1-1.8,2-1.7
			c1,0.1,1.8,1,1.7,2L137.1,236.4z M142,184.8c-0.1,1-0.9,1.7-1.9,1.7c-0.1,0-0.1,0-0.2,0c-1-0.1-1.8-1-1.7-2.1l1.7-18.1
			c0.1-1,1-1.8,2-1.7c1,0.1,1.8,1,1.7,2L142,184.8z M150,153.9c0-1,0.8-1.9,1.9-1.9c1,0,1.9,0.8,1.9,1.9c0,0,0,0,0,0l0,59
			c0,1-0.9,1.9-1.9,1.9c-1,0-1.9-0.8-1.9-1.9L150,153.9z M153.7,254.9c0,1-0.8,1.9-1.9,1.9l0,0c-1,0-1.9-0.8-1.9-1.9c0,0,0,0,0,0
			l0-22c0-1,0.8-1.9,1.9-1.9l0,0c1,0,1.9,0.8,1.9,1.9L153.7,254.9z M163.3,202.1L160,167c-0.1-1,0.7-1.9,1.7-2c1-0.1,1.9,0.7,2,1.7
			l3.3,35.2c0.1,1-0.7,2-1.7,2.1c-0.1,0-0.1,0-0.2,0C164.2,203.8,163.4,203.1,163.3,202.1z M169.8,250.7c-0.1,0-0.1,0-0.2,0
			c-1,0-1.8-0.7-1.9-1.7l-2.9-30.9c-0.1-1,0.7-2,1.7-2.1c1-0.1,2,0.7,2.1,1.7l2.9,30.9C171.6,249.6,170.8,250.6,169.8,250.7
			L169.8,250.7z"/>
		<path class="st7" d="M144.2,111.3l-2.6,13.8l2.3-12.3h2.2v6.7l3.3-4c1.1-1.3,3.1-1.5,4.5-0.4c0.1,0.1,0.2,0.2,0.3,0.3l3.3,3.8
			v-6.5h2.2l26.1,137.8l-26.4-139.3c-0.2-1,0.5-2,1.5-2.2s2,0.5,2.2,1.5l0,0l23.4,123.7v0l-23.7-125.2h-9.1v1.9
			c-1.3-0.4-2.6-0.4-3.9,0v-1.9h-7.5c0.1,0,0.2,0,0.4,0C143.8,109.3,144.4,110.3,144.2,111.3C144.2,111.3,144.2,111.3,144.2,111.3z"
			/>
		<path class="st7" d="M136.2,133.6l4.4-23c0.2-0.9,0.9-1.5,1.8-1.5h-1.5L136.2,133.6z"/>
		<path class="st7" d="M185.8,250.6l0.2,1.3l0.5,0.1v-0.2C186.2,251.5,185.9,251.1,185.8,250.6z"/>
		<path class="st7" d="M140.5,110.6l-4.4,23l-19.5,102.8v6.5c0.7,0,1.3-0.1,2-0.1c0.2,0,0.4,0,0.6,0l22.3-117.8l2.6-13.8
			c0.2-1-0.5-2-1.5-2.2c0,0,0,0,0,0c-0.1,0-0.2,0-0.4,0c0,0,0,0,0,0C141.4,109.1,140.7,109.7,140.5,110.6z"/>
		<path class="st7" d="M160.9,109.1c-1,0.2-1.7,1.2-1.5,2.2l26.4,139.3c0.1,0.5,0.4,0.9,0.7,1.2v-17.5l-23.4-123.7
			C162.9,109.6,162,108.9,160.9,109.1C160.9,109.1,160.9,109.1,160.9,109.1z"/>
		<path class="st7" d="M142,164.7c-1-0.1-1.9,0.7-2.1,1.7l-1.7,18.1c-0.1,1,0.7,2,1.7,2.1c0.1,0,0.1,0,0.2,0c1,0,1.8-0.7,1.9-1.7
			l1.7-18.1C143.8,165.7,143.1,164.8,142,164.7z"/>
		<path class="st7" d="M138.6,201c-1-0.1-1.9,0.7-2.1,1.7l-3.2,33.3c-0.1,1,0.7,2,1.7,2.1c0.1,0,0.1,0,0.2,0c1,0,1.8-0.7,1.9-1.7
			l3.2-33.3C140.4,202,139.6,201.1,138.6,201z"/>
		<path class="st7" d="M151.8,214.7c1,0,1.9-0.8,1.9-1.9c0,0,0,0,0,0l0-59c0-1-0.8-1.9-1.9-1.9c-1,0-1.9,0.8-1.9,1.9c0,0,0,0,0,0
			l0,59C150,213.9,150.8,214.7,151.8,214.7C151.8,214.7,151.8,214.7,151.8,214.7z"/>
		<path class="st7" d="M151.8,231L151.8,231c1,0,1.9,0.8,1.9,1.9v22c0,1-0.8,1.9-1.9,1.9l0,0c-1,0-1.9-0.8-1.9-1.9v0v-22
			C150,231.9,150.8,231,151.8,231L151.8,231L151.8,231z"/>
		<path class="st7" d="M165.4,203.8c1-0.1,1.8-1,1.7-2.1l-3.3-35.2c-0.1-1-1-1.8-2.1-1.7c-1,0.1-1.8,1-1.7,2l3.3,35.2
			c0.1,1,0.9,1.7,1.9,1.7C165.2,203.8,165.3,203.8,165.4,203.8z"/>
		<path class="st7" d="M166.5,216c-1,0.1-1.8,1-1.7,2.1l2.9,30.9c0.1,1,0.9,1.7,1.9,1.7c0.1,0,0.1,0,0.2,0c1-0.1,1.8-1,1.7-2.1
			l-2.9-30.9C168.5,216.7,167.5,215.9,166.5,216z"/>
		<path class="st8" d="M130.5,310.7c0-0.1,0-0.2,0-0.3c0-12.1,9.8-21.8,21.8-21.8c1.9,0,3.7,0.2,5.6,0.7c0.9-5.4,3.2-10.4,6.6-14.5
			c-4.9-3.5-11.3-4.3-16.9-2.1c-1,0.4-2.1-0.1-2.4-1.1c-0.1-0.2-0.1-0.3-0.1-0.5c-1.2-13.7-12.6-24.3-26.4-24.4c-0.7,0-1.3,0-2,0.1
			v66.8c4-1.9,8.3-2.8,12.8-2.8C129.8,310.7,130.2,310.7,130.5,310.7z"/>
		<path class="st7" d="M118.7,246.6c13.8,0.1,25.3,10.6,26.4,24.4c0.1,1,1,1.8,2,1.7c0.2,0,0.3-0.1,0.5-0.1c5.6-2.2,12-1.4,16.9,2.1
			c0.8-1,1.7-1.9,2.6-2.8c-5.3-4-12.2-5.3-18.6-3.6c-2.4-14.4-14.7-25.1-29.3-25.5c-0.2,0-0.4,0-0.6,0c-0.7,0-1.3,0-2,0.1v3.8
			C117.4,246.7,118,246.6,118.7,246.6z"/>
		<path class="st8" d="M161.4,291.9c-0.1,1-1,1.8-2,1.7c-0.2,0-0.4-0.1-0.5-0.1c-9.3-3.6-19.8,1.1-23.3,10.4
			c-0.8,2.1-1.2,4.3-1.2,6.5c0,0.7,0,1.4,0.1,2.1c0.1,1-0.6,2-1.6,2.1c-0.1,0-0.3,0-0.4,0c-1-0.1-1.9-0.2-2.9-0.2
			c-4.5,0-8.9,1.1-12.8,3.3v57.2h69.8V267.6C173.3,268.2,162.5,278.6,161.4,291.9z M167,322.7L174,344c0.4,1.3,0,2.8-1.2,3.7
			l-20.1,14.6c-0.6,0.4-1.4,0.4-2,0l-20.1-14.6c-1.1-0.8-1.6-2.3-1.2-3.7l6.9-21.3c0.3-1,1.3-1.7,2.4-1.7h0c1.1,0,2,0.7,2.3,1.7
			l4.2,13h12.9l4.2-13c0.3-1,1.3-1.7,2.3-1.7h0C165.8,321,166.7,321.7,167,322.7z"/>
		<path class="st7" d="M164.6,274.7c-3.5,4.2-5.8,9.2-6.6,14.5c-11.7-3.1-23.6,3.9-26.7,15.5c-0.5,1.8-0.7,3.7-0.7,5.6
			c0,0.1,0,0.2,0,0.3c-0.4,0-0.7,0-1.1,0c-4.4,0-8.8,1-12.8,2.8v4.2c3.9-2.2,8.3-3.3,12.8-3.3c1,0,1.9,0.1,2.9,0.2
			c1,0.1,2-0.6,2.1-1.7c0-0.1,0-0.3,0-0.4c-1.2-9.9,5.8-18.9,15.7-20.1c0.7-0.1,1.5-0.1,2.2-0.1c2.2,0,4.4,0.4,6.5,1.2
			c1,0.4,2.1-0.1,2.4-1.1c0.1-0.2,0.1-0.3,0.1-0.5c1.1-13.3,11.9-23.7,25.2-24.3v-3.8c-7.2,0.3-14.1,3.2-19.4,8.2
			C166.2,272.8,165.4,273.8,164.6,274.7z"/>
		<path class="st6" d="M160.9,337.9c-0.2,0.7-0.9,1.2-1.6,1.2H144c-0.7,0-1.4-0.5-1.6-1.2l-3.8-11.6l-6.1,18.7l19.1,13.9l19.1-13.9
			l-6.1-18.7L160.9,337.9z"/>
		<path class="st3" d="M164.7,321c-1.1,0-2,0.7-2.3,1.7l-4.2,13h-12.9l-4.2-13c-0.3-1-1.3-1.7-2.3-1.7h0c-1.1,0-2,0.7-2.4,1.7
			l-6.9,21.3c-0.4,1.3,0,2.8,1.2,3.7l20.1,14.6c0.6,0.4,1.4,0.4,2,0l20.1-14.6c1.1-0.8,1.6-2.3,1.2-3.7l-6.9-21.4
			C166.7,321.7,165.8,321,164.7,321L164.7,321z M151.7,358.9L132.6,345l6.1-18.7l3.8,11.6c0.2,0.7,0.9,1.2,1.6,1.2h15.3
			c0.7,0,1.4-0.5,1.6-1.2l3.8-11.6l6.1,18.7L151.7,358.9z"/>
		<path class="st7" d="M188.8,377.2h-74.4V128H60.9V77.2l1.8-0.4c18-3.5,27.1-5.9,38.9-10.5c8.8-3.4,16.5-8.2,24.6-13.3
			c3-1.9,6.1-3.8,9.3-5.7l0.5-0.3h52.7L188.8,377.2z M119,372.7h65.3V51.6h-47c-2.9,1.7-5.8,3.5-8.6,5.3
			c-8.3,5.2-16.2,10.1-25.4,13.7c-11.7,4.6-20.8,7.1-37.9,10.4v42.5H119L119,372.7z"/>
		<path class="st7" d="M433.1,377.2h-74.8v-77.9h-141v-54.7l0.3-0.5l119.6-197h95.8v190.2h37.4v61.9h-37.4V377.2z M362.9,372.7h65.7
			v-77.9h37.4v-52.9h-37.4V51.6h-88.8l-118,194.3v48.9h141V372.7z M362.9,241.8h-75l75-123.2V241.8z M295.9,237.3h62.4V134.7
			L295.9,237.3z"/>
		<path class="st6" d="M378.8,267.5c-2.4-4-1.2-9.2,2.8-11.6c0,0,0,0,0,0l-3.9-6.5L331,277.9l16.7,27.4l46.7-28.4l-3.9-6.5
			C386.4,272.8,381.2,271.5,378.8,267.5z"/>
		<path class="st3" d="M347.7,307.2c-0.7,0-1.3-0.3-1.6-0.9l-16.7-27.4c-0.5-0.9-0.3-2,0.6-2.6c0,0,0,0,0,0l46.7-28.4
			c0.9-0.5,2-0.3,2.6,0.6c0,0,0,0,0,0l3.9,6.5c0.5,0.9,0.3,2-0.6,2.6c0,0,0,0,0,0c-3.1,1.9-4.1,5.9-2.2,9.1c1.9,3.1,5.9,4.1,9.1,2.2
			c0,0,0,0,0,0c0.9-0.5,2-0.3,2.6,0.6c0,0,0,0,0,0l3.9,6.5c0.5,0.9,0.3,2-0.6,2.6c0,0,0,0,0,0l-46.7,28.4
			C348.3,307.1,348,307.2,347.7,307.2z M333.6,278.5l14.7,24.2l43.5-26.5l-2.1-3.4c-5.3,2-11.3-0.6-13.4-6c-1.5-4-0.4-8.5,2.8-11.4
			l-2.1-3.4L333.6,278.5z"/>
		<path class="st3" d="M343.3,286c-1,0-1.8-0.8-1.8-1.8c0-0.6,0.3-1.2,0.9-1.6l19.1-11.6c0.9-0.5,2-0.3,2.5,0.6
			c0.5,0.9,0.3,2-0.6,2.5l0,0l-19.1,11.6C344,285.9,343.7,286,343.3,286z"/>
		<path class="st3" d="M347.1,292.2c-1,0-1.8-0.8-1.8-1.8c0-0.6,0.3-1.2,0.9-1.6l12-7.3c0.9-0.5,2-0.2,2.5,0.6
			c0.5,0.9,0.2,2-0.6,2.5l-12,7.3C347.8,292.2,347.5,292.2,347.1,292.2z"/>
		<path class="st3" d="M369.5,269.3c-0.7,0-1.3-0.3-1.6-0.9l-5.8-9.5c-0.5-0.9-0.2-2,0.6-2.6c0.9-0.5,2-0.3,2.6,0.6l5.8,9.5
			c0.5,0.9,0.3,2-0.6,2.6C370.2,269.2,369.9,269.3,369.5,269.3z"/>
		<path class="st3" d="M380.4,287.2c-0.7,0-1.3-0.3-1.6-0.9l-5.8-9.5c-0.5-0.9-0.2-2,0.6-2.6c0.9-0.5,2-0.3,2.6,0.6l5.8,9.5
			c0.5,0.9,0.3,2-0.6,2.6C381.1,287.1,380.8,287.2,380.4,287.2z"/>
		<path class="st8" d="M169.3,109.7h-35.5V47.2c0-12,5.2-23.4,14.2-31.3l0,0c2-1.8,5-1.8,7,0l0,0c9,7.9,14.2,19.3,14.2,31.3V109.7z"
			/>
		<path class="st7" d="M169.3,112h-35.5c-1.2,0-2.3-1-2.3-2.3c0,0,0,0,0,0V47.2c0-12.6,5.5-24.7,15-33c2.9-2.5,7.1-2.5,10,0
			c9.5,8.3,15,20.3,15,33v62.4C171.6,110.9,170.6,112,169.3,112C169.3,112,169.3,112,169.3,112z M136.1,107.4h30.9V47.2
			c0-11.3-4.9-22.1-13.4-29.6c-1.2-1-2.9-1-4.1,0c-8.5,7.5-13.4,18.2-13.4,29.6V107.4z"/>
		<path class="st8" d="M133.9,103.7l-26.2,4v-8.2c0-12.4,5.3-24.3,14.6-32.5l4.4-3.9c4.5-4,7.1-9.8,7.1-15.9V103.7L133.9,103.7z"/>
		<path class="st7" d="M107.7,110.1c-1.2,0-2.3-1-2.3-2.3v-8.2c0-13.1,5.6-25.5,15.4-34.2l4.4-3.9c4.1-3.6,6.4-8.8,6.4-14.2v-2.1
			c0-1.2,1-2.3,2.2-2.3c1.2,0,2.3,1,2.3,2.2c0,0,0,0,0,0v2.1c0,6.7-2.9,13.1-7.9,17.6l-4.4,3.9c-8.8,7.8-13.9,19-13.9,30.8v5.6
			l23.6-3.6c1.2-0.2,2.4,0.6,2.6,1.9s-0.6,2.4-1.9,2.6c0,0,0,0,0,0l-26.2,4C108,110,107.8,110.1,107.7,110.1z"/>
		<path class="st8" d="M169.3,103.7l26.2,4v-8.2c0-12.4-5.3-24.3-14.6-32.5l-4.4-3.9c-4.5-4-7.1-9.8-7.1-15.9V103.7L169.3,103.7z"/>
		<path class="st7" d="M195.5,110.1c-0.1,0-0.2,0-0.3,0l-26.2-4c-1.2-0.2-2.1-1.3-1.9-2.6s1.3-2.1,2.6-1.9l23.6,3.6v-5.6
			c0-11.8-5-23-13.9-30.8l-4.4-3.9c-5-4.5-7.9-10.8-7.9-17.6v-2.1c0-1.2,1-2.3,2.3-2.3c1.2,0,2.3,1,2.3,2.3l0,0v2.1
			c0,5.4,2.3,10.6,6.4,14.2l4.4,3.9c9.8,8.7,15.4,21.1,15.4,34.2v8.2C197.8,109,196.7,110.1,195.5,110.1L195.5,110.1z"/>
		<polygon class="st5" points="195.5,107.8 169.3,103.7 169.3,91.3 195.3,95.9 		"/>
		<path class="st7" d="M195.5,110.1c-0.1,0-0.2,0-0.3,0l-26.2-4c-1.1-0.2-1.9-1.1-1.9-2.2V91.3c0-1.2,1-2.3,2.3-2.3
			c0.1,0,0.3,0,0.4,0l26,4.6c1.1,0.2,1.8,1.1,1.9,2.2l0.2,11.9C197.8,109,196.8,110,195.5,110.1
			C195.5,110.1,195.5,110.1,195.5,110.1z M171.6,101.8l21.6,3.3l-0.1-7.4L171.6,94V101.8z"/>
		<polygon class="st5" points="107.7,107.8 133.9,103.7 133.9,91.3 107.9,95.9 		"/>
		<path class="st7" d="M107.7,110.1c-1.2,0-2.3-1-2.3-2.3c0,0,0,0,0,0l0.2-11.9c0-1.1,0.8-2,1.9-2.2l26-4.6c1.2-0.2,2.4,0.6,2.6,1.8
			c0,0.1,0,0.3,0,0.4v12.5c0,1.1-0.8,2.1-1.9,2.2l-26.2,4C108,110,107.8,110.1,107.7,110.1z M110.1,97.8l-0.1,7.4l21.6-3.3V94
			L110.1,97.8z"/>
		<path class="st6" d="M139.3,109.7c-6.9,5.7-4.5,15.4,2.7,19c0.7-3.1,2.7-5.7,5.5-7.1c0,0,5.5,11.8-2.8,21.8
			c18.8,1.3,29.8-20.3,18.5-33.6L139.3,109.7z"/>
		<path class="st7" d="M146.3,145.6c-0.6,0-1.1,0-1.7-0.1c-1.2-0.1-2.2-1.2-2.1-2.4c0-0.5,0.2-0.9,0.5-1.3c5-6.1,4.3-13,3.3-16.7
			c-1.1,1-1.8,2.4-2.2,3.9c-0.2,1.2-1.4,2-2.6,1.8c-0.2,0-0.4-0.1-0.6-0.2c-4.3-2.1-7.3-6.2-8-11c-0.5-4.5,1.3-8.9,4.8-11.8
			c1-0.8,2.4-0.7,3.2,0.3c0.8,1,0.7,2.4-0.3,3.2c-2.4,1.8-3.6,4.8-3.2,7.7c0.3,2.4,1.5,4.5,3.3,6.1c1.3-2.4,3.2-4.4,5.7-5.7
			c1.1-0.6,2.5-0.1,3,1c0,0,0,0.1,0,0.1c0.2,0.5,4.7,10.5-0.5,20.3c6.2-0.9,11.6-4.8,14.4-10.4c3.3-6.2,2.6-13.9-2-19.3
			c-0.8-0.9-0.7-2.4,0.3-3.2c0.9-0.8,2.4-0.7,3.2,0.3c5.8,6.8,6.8,16.4,2.6,24.3C163.6,140.6,155.4,145.7,146.3,145.6z"/>
		<path class="st7" d="M169.3,112h-35.5c-1.2,0-2.3-1-2.3-2.3c0,0,0,0,0,0V47.2c0-12.6,5.5-24.7,15-33c2.9-2.5,7.1-2.5,10,0
			c9.5,8.3,15,20.3,15,33v62.4C171.6,110.9,170.6,112,169.3,112C169.3,112,169.3,112,169.3,112z M136.1,107.4h30.9V47.2
			c0-11.3-4.9-22.1-13.4-29.6c-1.2-1-2.9-1-4.1,0c-8.5,7.5-13.4,18.2-13.4,29.6V107.4z"/>
		<path class="st7" d="M107.7,110.1c-1.2,0-2.3-1-2.3-2.3v-8.2c0-13.1,5.6-25.5,15.4-34.2l4.4-3.9c4.1-3.6,6.4-8.8,6.4-14.2v-2.1
			c0-1.2,1-2.3,2.2-2.3c1.2,0,2.3,1,2.3,2.2c0,0,0,0,0,0v2.1c0,6.7-2.9,13.1-7.9,17.6l-4.4,3.9c-8.8,7.8-13.9,19-13.9,30.8v5.6
			l23.6-3.6c1.2-0.2,2.4,0.6,2.6,1.9s-0.6,2.4-1.9,2.6c0,0,0,0,0,0l-26.2,4C108,110,107.8,110.1,107.7,110.1z"/>
		<path class="st7" d="M195.5,110.1c-0.1,0-0.2,0-0.3,0l-26.2-4c-1.2-0.2-2.1-1.3-1.9-2.6s1.3-2.1,2.6-1.9l23.6,3.6v-5.6
			c0-11.8-5-23-13.9-30.8l-4.4-3.9c-5-4.5-7.9-10.8-7.9-17.6v-2.1c0-1.2,1-2.3,2.3-2.3c1.2,0,2.3,1,2.3,2.3l0,0v2.1
			c0,5.4,2.3,10.6,6.4,14.2l4.4,3.9c9.8,8.7,15.4,21.1,15.4,34.2v8.2C197.8,109,196.7,110.1,195.5,110.1L195.5,110.1z"/>
		<path class="st7" d="M146.3,145.3c-0.6,0-1.1,0-1.7-0.1c-1-0.1-1.8-1-1.8-2c0-0.4,0.2-0.8,0.4-1.1c5.5-6.6,4.3-14.1,3.3-17.6
			c-1.4,1.2-2.3,2.8-2.7,4.5c-0.2,1-1.2,1.7-2.2,1.5c-0.2,0-0.3-0.1-0.5-0.2c-4.2-2-7.1-6-7.8-10.7c-0.5-4.4,1.3-8.7,4.7-11.4
			c0.8-0.7,2-0.6,2.6,0.2c0.7,0.8,0.6,2-0.2,2.6c-2.5,1.9-3.7,5-3.4,8.1c0.4,2.6,1.7,5,3.8,6.6c1.2-2.5,3.2-4.6,5.7-5.9
			c0.9-0.5,2.1-0.1,2.5,0.8c0,0,0,0.1,0,0.1c0.2,0.5,4.9,10.7-0.8,20.6c6.7-0.7,12.5-4.7,15.5-10.7c3.4-6.4,2.6-14.2-2.1-19.7
			c-0.7-0.8-0.6-2,0.2-2.7c0.8-0.7,2-0.6,2.6,0.2c5.7,6.7,6.7,16.1,2.6,23.9C163.3,140.3,155.2,145.3,146.3,145.3z"/>
		<path class="st7" d="M157.9,41.1c-0.9,0-1.8-0.6-2.1-1.4c-0.9-2.3-3.5-3.5-5.9-2.6c-1.2,0.5-2.1,1.4-2.6,2.6
			c-0.5,1.2-1.8,1.7-2.9,1.3c-1.2-0.5-1.7-1.8-1.3-2.9c1.8-4.7,7-7,11.7-5.2c2.4,0.9,4.2,2.8,5.2,5.2c0.5,1.2-0.1,2.5-1.3,2.9
			C158.5,41,158.2,41.1,157.9,41.1L157.9,41.1z"/>
		<path class="st7" d="M151.5,101.5c-1.2,0-2.3-1-2.3-2.3c0,0,0,0,0,0V74.7c0-1.2,1-2.3,2.3-2.3c1.2,0,2.3,1,2.3,2.3l0,0v24.5
			C153.8,100.4,152.8,101.5,151.5,101.5C151.5,101.5,151.5,101.5,151.5,101.5z"/>
		<path class="st8" d="M373,102.6l26.4-61.3l41.8,44.2l-62.7,22.9c-2.2,0.8-4.7-0.3-5.5-2.6C372.5,104.7,372.5,103.6,373,102.6z"/>
		<path class="st6" d="M389.2,104.9l-10.1-12.3c-0.2-0.3-0.4-0.5-0.8-0.5c-0.3,0-0.6,0.3-0.8,0.6c-2.5,3.4-4,7.4-4.5,11.6
			c-0.1,0.7-0.1,1.4,0.2,2.1c1.3,2.6,4.9,1.6,7,1.2C383.3,106.9,386.3,106,389.2,104.9z"/>
		<path class="st6" d="M399.7,66c6.2,9.4,12.6,18.7,21.2,26c-4.2,2-8.6,3.6-13,5.1c-1.3,0.5-2.6,0.7-4,0.3c-1-0.4-1.8-1.1-2.4-1.9
			c-2.7-2.9-5.2-5.9-7.5-9.1c-2.2-3.2-4.1-6.7-5.5-10.3c-0.7-1.5-1.2-3.2-1.3-4.8c0-1.7,0.3-3.5,1-5.1c1.3-3.8,2.9-7.4,4.8-10.8
			c0.9-1.6,1.2-2.4,1.7-0.3c0.3,1.8,0.9,3.6,1.7,5.2C397.3,62.3,398.5,64.2,399.7,66z"/>
		<path class="st7" d="M376.9,110.4c-3.4,0-6.1-2.8-6.1-6.2c0-0.8,0.2-1.6,0.5-2.4l26.4-61.3c0.4-0.9,1.5-1.4,2.4-1
			c0.2,0.1,0.4,0.2,0.6,0.4l41.8,44.2c0.7,0.7,0.7,1.9-0.1,2.6c-0.2,0.2-0.4,0.3-0.6,0.4L379,110
			C378.4,110.3,377.6,110.4,376.9,110.4z M400,44.5l-25.3,58.8l0,0c-0.5,1.2,0,2.7,1.3,3.2c0.6,0.2,1.2,0.3,1.8,0.1l60.1-21.9
			L400,44.5z M373,102.6L373,102.6z"/>
		
			<ellipse transform="matrix(0.7267 -0.6869 0.6869 0.7267 71.3647 305.9902)" class="st5" cx="420.3" cy="63.3" rx="7.1" ry="30.4"/>
		<path class="st7" d="M439.5,87.8c-2.2,0-5.3-1.3-9.2-3.9c-6-4.2-11.6-9.1-16.6-14.5c-8.2-8.7-20.8-24.7-15.6-29.6
			c2.2-2,6.1-1.1,12.1,2.8c6,4.2,11.6,9.1,16.6,14.5c5.1,5.3,9.7,11.1,13.5,17.4c3.6,6.2,4.3,10.2,2.1,12.2l0,0
			C441.6,87.4,440.6,87.8,439.5,87.8z M401.1,42.5c-0.2,0-0.3,0-0.5,0.1c-1,1.6,3.6,11.4,15.8,24.3c12.2,12.9,21.7,18,23.4,17.1
			c0.9-1.7-3.6-11.5-15.8-24.4C412.7,47.7,403.7,42.5,401.1,42.5z"/>
		<path class="st7" d="M420.5,93.9c-2.3-2-22.8-20.1-27.7-41.3l3.7-0.8c4.6,20,24.2,37.4,26.4,39.3L420.5,93.9z"/>
		<path class="st7" d="M403.5,99.9c-0.3-0.3-0.7-0.7-1.1-1.2c-3.9-4.1-13.1-13.8-17.9-26.5l3.5-1.3c4.5,12,13.3,21.3,17.1,25.2
			c0.4,0.5,0.8,0.9,1.1,1.2L403.5,99.9z"/>
		<path class="st7" d="M387.3,105.7c-0.3-0.4-0.7-0.8-1.3-1.4c-4-3.9-7.2-8.6-9.3-13.8l3.5-1.5c1.9,4.8,4.8,9.1,8.5,12.7
			c0.6,0.6,1.1,1.1,1.5,1.6L387.3,105.7z"/>
		<path class="st7" d="M430.6,57.2C430.5,57.2,430.5,57.2,430.6,57.2c-1.1-0.1-1.9-0.9-1.9-2c0,0,0,0,0,0
			c0.6-12.7,11.4-22.5,24.1-21.9c1,0,1.8,0.9,1.8,2s-0.9,1.8-2,1.8c-10.6-0.5-19.6,7.7-20.2,18.4C432.4,56.4,431.6,57.2,430.6,57.2z
			"/>
		<path class="st7" d="M411.9,65.9c-1,0-1.9-0.8-1.9-1.9c0-0.3,0.1-0.5,0.2-0.8c4.8-10.4,4.2-22.6-1.6-32.4c-0.5-0.9-0.2-2,0.6-2.6
			c0.9-0.5,2-0.2,2.6,0.6c0,0,0,0,0,0c6.5,10.9,7.2,24.4,1.8,35.9C413.3,65.5,412.6,65.9,411.9,65.9z"/>
		<path class="st7" d="M456.8,74.4c-0.2,0-0.4,0-0.6-0.1c-4-1.1-8.1-1.8-12.3-2c-4.8-0.3-9.6,0.1-14.3,1.3c-1,0.3-2-0.3-2.3-1.3
			c-0.3-1,0.3-2,1.3-2.3l0,0c5.1-1.3,10.3-1.8,15.5-1.4c4.5,0.2,8.9,0.9,13.2,2.1c1,0.3,1.5,1.4,1.2,2.4
			C458.3,73.9,457.6,74.4,456.8,74.4L456.8,74.4z"/>
		<circle class="st7" cx="444.4" cy="51" r="2.8"/>
		<circle class="st3" cx="419" cy="18" r="2.8"/>
		<rect x="421.7" y="32" transform="matrix(0.54 -0.8417 0.8417 0.54 166.0959 373.1641)" class="st7" width="5.4" height="5.4"/>
		<rect x="454.7" y="56.3" transform="matrix(0.54 -0.8417 0.8417 0.54 160.7688 412.1142)" class="st7" width="5.4" height="5.4"/>
		<polygon class="st3" points="441.8,28.3 434.7,30.4 436.6,23.3 		"/>
		<polygon class="st7" points="456.5,86 453.6,79.2 461,80.4 		"/>
		<circle class="st8" cx="343.2" cy="92.7" r="19.3"/>
		<path class="st3" d="M343.2,113.8c-11.7,0-21.2-9.5-21.2-21.2c0-11.7,9.5-21.2,21.2-21.2c10.8,0,19.8,8.1,21,18.8l0,0
			c1.3,11.6-7.1,22.1-18.7,23.4C344.8,113.8,344,113.8,343.2,113.8L343.2,113.8z M343.3,75.3c-0.7,0-1.3,0-1.9,0.1
			c-9.5,1.1-16.4,9.7-15.3,19.2c1.1,9.5,9.7,16.4,19.2,15.3c9.5-1.1,16.4-9.7,15.3-19.2C359.5,81.9,352.1,75.3,343.3,75.3z"/>
		<path class="st3" d="M340.8,100.1c-0.4,0-0.8-0.1-1.2-0.4l-4.8-3.9c-0.8-0.6-0.9-1.8-0.3-2.6c0.6-0.8,1.8-0.9,2.6-0.3l3.3,2.7
			l8-10c0.6-0.8,1.8-1,2.6-0.3s1,1.8,0.3,2.6c0,0,0,0,0,0l-9.2,11.4c-0.3,0.4-0.8,0.6-1.3,0.7C341,100.1,340.9,100.1,340.8,100.1z"
			/>
		<path class="st3" d="M379.9,132.4c-2.6,0-4.8-2.1-4.8-4.8c0-2.6,2.1-4.8,4.8-4.8c1.7,0,3.3,0.9,4.1,2.4l0,0
			c1.3,2.3,0.5,5.2-1.8,6.5C381.6,132.2,380.7,132.4,379.9,132.4z M379.9,125.9c-1,0-1.7,0.8-1.7,1.8c0,1,0.8,1.7,1.8,1.7
			s1.7-0.8,1.7-1.8c0-0.3-0.1-0.6-0.2-0.9v0C381.1,126.2,380.5,125.9,379.9,125.9z"/>
		<path class="st3" d="M395.4,123.5c-2.6,0-4.8-2.1-4.8-4.8c0-2.6,2.1-4.8,4.8-4.8c2.6,0,4.8,2.1,4.8,4.8c0,1.7-0.9,3.3-2.4,4.1
			C397,123.3,396.2,123.5,395.4,123.5z M395.4,117c-1,0-1.8,0.8-1.7,1.8s0.8,1.8,1.8,1.7c1,0,1.8-0.8,1.7-1.8c0-0.3-0.1-0.6-0.2-0.9
			C396.6,117.3,396,117,395.4,117L395.4,117z"/>
		<path class="st3" d="M391,148.4c-0.5,0-1-0.3-1.3-0.8l-9.4-16.5c-0.4-0.7-0.2-1.6,0.5-2.1c0.7-0.4,1.6-0.2,2.1,0.5c0,0,0,0,0,0
			l9.4,16.5c0.4,0.7,0.2,1.6-0.6,2.1C391.5,148.3,391.2,148.4,391,148.4z"/>
		<path class="st3" d="M390.9,148.2c-0.6,0-1.1-0.4-1.4-0.9c-0.8-1.9-0.9-4-0.2-5.9c0-0.1,0.1-0.2,0.1-0.2l7.5-13.4
			c0.4-1.3,0.3-2.8-0.4-4l-0.8-1.5c-0.4-0.7-0.2-1.6,0.6-2.1c0.7-0.4,1.6-0.2,2.1,0.6l0.8,1.5c1.2,2,1.4,4.4,0.6,6.6
			c0,0.1-0.1,0.2-0.1,0.2l-7.5,13.4c-0.4,1.2-0.3,2.4,0.2,3.5c0.3,0.8,0,1.7-0.8,2C391.3,148.2,391.1,148.2,390.9,148.2L390.9,148.2
			z"/>
		<path class="st3" d="M288.5,221.5c-0.6,0-1.2-0.4-1.4-1l-3.5-9.7c-0.3-0.8,0.1-1.6,0.9-1.9c0.8-0.3,1.6,0.1,1.9,0.9l3.5,9.7
			c0.3,0.8-0.1,1.6-0.9,1.9C288.8,221.5,288.6,221.5,288.5,221.5z"/>
		<path class="st3" d="M281.9,218.4c-0.8,0-1.5-0.7-1.5-1.5c0-0.6,0.4-1.2,1-1.4l9.7-3.5c0.8-0.3,1.6,0.1,1.9,0.9
			c0.3,0.8-0.1,1.6-0.9,1.9c0,0,0,0,0,0l-9.7,3.5C282.3,218.4,282.1,218.4,281.9,218.4z"/>
		<path class="st3" d="M386.9,244c-3.2,0-5.8-2.6-5.8-5.8c0-3.2,2.6-5.8,5.8-5.8c3.2,0,5.8,2.6,5.8,5.8
			C392.6,241.5,390,244,386.9,244z M386.9,235.5c-1.5,0-2.8,1.2-2.8,2.8c0,1.5,1.2,2.8,2.8,2.8c1.5,0,2.8-1.2,2.8-2.8
			C389.6,236.7,388.4,235.5,386.9,235.5z"/>
		<path class="st3" d="M343.2,131.8c-3.2,0-5.8-2.6-5.8-5.8s2.6-5.8,5.8-5.8c3.2,0,5.8,2.6,5.8,5.8
			C349,129.3,346.4,131.8,343.2,131.8z M343.2,123.3c-1.5,0-2.8,1.2-2.8,2.8s1.2,2.8,2.8,2.8c1.5,0,2.8-1.2,2.8-2.8
			C346,124.5,344.7,123.3,343.2,123.3L343.2,123.3z"/>
		<path class="st3" d="M376.5,358.7c-3.4,0-6.2-2.8-6.2-6.2c0-3.4,2.8-6.2,6.2-6.2c3.4,0,6.2,2.8,6.2,6.2
			C382.7,355.9,379.9,358.7,376.5,358.7z M376.5,350.1c-1.3,0-2.4,1.1-2.4,2.4s1.1,2.4,2.4,2.4c1.3,0,2.4-1.1,2.4-2.4
			C378.9,351.2,377.8,350.1,376.5,350.1z"/>
		<path class="st5" d="M446.5,129.5c5.3,1.8,11.2,0.2,14.8-4.2l-11.1-3.9l-1.5-5.4l4.5-3.3l11.1,3.9c-0.1-7.4-6.2-13.3-13.5-13.2
			c-3.5,0-6.9,1.5-9.3,4l-16.8-5.8c-3-1-6.3,0.5-7.3,3.5l0,0c-1,3,0.5,6.3,3.5,7.3c0,0,0,0,0,0l16.8,5.8
			C438.1,123.5,441.6,127.8,446.5,129.5z"/>
		<path class="st7" d="M450.8,132.1c-1.7,0-3.4-0.3-5-0.8c-5.1-1.8-8.9-6.2-10-11.6l-15.7-5.4c-4-1.3-6.1-5.6-4.8-9.6
			c1.3-4,5.6-6.1,9.6-4.8c0,0,0.1,0,0.1,0l15.7,5.5c6.3-5.5,15.9-4.8,21.4,1.5c2.4,2.7,3.7,6.2,3.7,9.8c0,1-0.8,1.9-1.8,1.9
			c-0.2,0-0.4,0-0.6-0.1l-10.2-3.5l-2.7,1.9l0.9,3.2l10.2,3.5c1,0.3,1.5,1.4,1.1,2.3c-0.1,0.2-0.2,0.4-0.3,0.6
			C459.7,130.1,455.4,132.1,450.8,132.1z M422.7,103.2c-2.1,0-3.9,1.7-3.9,3.9c0,1.7,1.1,3.1,2.6,3.7l16.8,5.8
			c0.7,0.2,1.2,0.8,1.2,1.5c0.5,4.4,3.5,8.2,7.7,9.6h0c3.6,1.2,7.6,0.6,10.7-1.7l-8.3-2.9c-0.6-0.2-1-0.7-1.2-1.2l-1.5-5.4
			c-0.2-0.7,0.1-1.5,0.7-2l4.5-3.3c0.5-0.4,1.1-0.4,1.7-0.2l8.3,2.9c-1.6-6.2-7.9-9.8-14-8.2c-2,0.5-3.9,1.6-5.3,3.1
			c-0.5,0.5-1.2,0.7-1.9,0.4l-16.8-5.8C423.5,103.3,423.1,103.2,422.7,103.2z"/>
		<circle class="st8" cx="422.4" cy="141" r="13.2"/>
		<path class="st7" d="M422.4,156.1c-1.1,0-2.1-0.1-3.2-0.3c-8.1-1.7-13.3-9.7-11.6-17.8s9.7-13.3,17.8-11.6s13.3,9.7,11.6,17.8
			C435.6,151.1,429.5,156.1,422.4,156.1z M422.3,129.6c-6.3,0-11.3,5.1-11.3,11.4c0,6.3,5.1,11.3,11.4,11.3c5.4,0,10-3.8,11.1-9v0
			c1.3-6.1-2.6-12.2-8.8-13.4C423.9,129.7,423.1,129.6,422.3,129.6L422.3,129.6z"/>
		<path class="st7" d="M426,146.4c-0.5,0-1-0.2-1.3-0.5l-3.6-3.6c-0.5-0.5-0.7-1.1-0.5-1.7l1.2-5.9c0.2-1,1.2-1.7,2.2-1.5
			c1,0.2,1.7,1.2,1.5,2.2c0,0,0,0,0,0l-1,4.9l2.9,2.8c0.7,0.7,0.8,1.9,0,2.7C427,146.2,426.5,146.4,426,146.4L426,146.4z"/>
		<path class="st8" d="M391.1,158.3l61.7,17.9c2.1,0.6,3.3,2.8,2.7,4.8v0l-9.1,31.5l0,0l-69.2-20l0,0l9.1-31.5
			C386.9,158.9,389,157.7,391.1,158.3L391.1,158.3L391.1,158.3z"/>
		
			<rect x="405.2" y="167.4" transform="matrix(0.2782 -0.9605 0.9605 0.2782 113.3678 537.8212)" class="st8" width="18.7" height="52.2"/>
		
			<rect x="399.5" y="206.8" transform="matrix(0.2782 -0.9605 0.9605 0.2782 87.2613 547.674)" class="st5" width="17.1" height="17.9"/>
		<path class="st5" d="M377.1,192.6l69.5,20.1l0,0l-1.5,5.2c-0.8,2.6-3.5,4.1-6.1,3.3l0,0l-60.1-17.4c-2.6-0.8-4.1-3.5-3.3-6.1l0,0
			L377.1,192.6L377.1,192.6z"/>
		<path class="st3" d="M441.1,222.8c-0.5,0-1-0.1-1.5-0.2l-61.8-17.9c-2.9-0.9-4.6-3.9-3.8-6.9l10.9-37.5c0.9-2.9,3.9-4.6,6.9-3.8
			l61.8,17.9c2.9,0.9,4.6,3.9,3.8,6.9c0,0,0,0,0,0l-10.9,37.5C445.8,221.2,443.6,222.8,441.1,222.8z M390.2,160
			c-0.8,0-1.5,0.5-1.7,1.3l-10.9,37.5c-0.3,1,0.3,1.9,1.2,2.2c0,0,0,0,0,0l61.8,17.9c1,0.3,1.9-0.3,2.2-1.2l10.9-37.5
			c0.3-1-0.3-1.9-1.2-2.2l-61.8-17.9l0,0C390.5,160.1,390.4,160,390.2,160z"/>
		<path class="st3" d="M445.6,214.1c-0.2,0-0.4,0-0.5-0.1L377,194.3c-1-0.3-1.6-1.3-1.3-2.3s1.3-1.6,2.3-1.3c0,0,0,0,0,0l68.1,19.7
			c1,0.3,1.6,1.3,1.3,2.3C447.1,213.5,446.4,214.1,445.6,214.1z"/>
		<path class="st3" d="M414.3,226.8c-0.2,0-0.4,0-0.5-0.1l-16.4-4.7c-1-0.3-1.6-1.3-1.3-2.3l3.1-10.7c0.3-1,1.3-1.6,2.3-1.3
			s1.6,1.3,1.3,2.3c0,0,0,0,0,0l-2.6,8.9l12.8,3.7l2.6-9c0.3-1,1.3-1.6,2.3-1.3c1,0.3,1.6,1.3,1.3,2.3l-3.1,10.8
			C415.9,226.3,415.1,226.8,414.3,226.8L414.3,226.8z"/>
		<path class="st7" d="M394.7,219.2l22.8,6.6c2.2,0.6,3.5,3,2.8,5.2l-0.5,1.7l0,0l-30.9-8.9l0,0l0.5-1.7
			C390.1,219.9,392.5,218.6,394.7,219.2z"/>
		<path class="st7" d="M421.4,235.6l-35.2-10.2l1.1-3.9c1-3.4,4.6-5.4,8-4.4l22.8,6.6c3.4,1,5.4,4.6,4.4,8L421.4,235.6z
			 M391.8,222.3l26.4,7.7c0-0.9-0.5-1.7-1.4-1.9l-22.8-6.6C393.2,221.2,392.3,221.5,391.8,222.3z"/>
		<path class="st6" d="M397.1,167.3l46.1,13.4c1.1,0.3,1.7,1.5,1.4,2.6c0,0,0,0,0,0l-2.5,8.6l0,0L392,177.3l0,0l2.5-8.6
			C394.9,167.6,396,166.9,397.1,167.3z"/>
		<path class="st3" d="M442.2,193.7c-0.2,0-0.4,0-0.5-0.1l-50.1-14.5c-1-0.3-1.6-1.3-1.3-2.3c0.3-1,1.3-1.6,2.3-1.3c0,0,0,0,0,0
			l50.1,14.5c1,0.3,1.6,1.3,1.3,2.3C443.7,193.2,443,193.7,442.2,193.7L442.2,193.7z"/>
		<path class="st3" d="M437,211.6c-1,0-1.9-0.8-1.9-1.9c0-0.2,0-0.4,0.1-0.5l7.7-26.5c0-0.1,0-0.1,0-0.2c0,0-0.1-0.1-0.1-0.1
			l-46.1-13.4c-0.1,0-0.2,0-0.3,0.1c0,0,0,0,0,0l-7.7,26.5c-0.3,1-1.3,1.6-2.3,1.3c-1-0.3-1.6-1.3-1.3-2.3l7.7-26.5
			c0.6-2.1,2.8-3.3,4.9-2.7l46.1,13.4c2.1,0.6,3.3,2.8,2.7,4.9l-7.7,26.5C438.6,211,437.8,211.6,437,211.6z"/>
		<path class="st3" d="M421.9,200.2c-0.1,0-0.2,0-0.3,0c-1-0.2-1.7-1.1-1.6-2.1l0.7-5c0.2-1,1.1-1.7,2.1-1.6c0.2,0,0.3,0.1,0.5,0.1
			l4.6,2c0.9,0.4,1.4,1.5,0.9,2.5c-0.4,0.9-1.5,1.4-2.5,1l-2.4-1l-0.4,2.6C423.6,199.5,422.8,200.2,421.9,200.2z"/>
		<path class="st3" d="M426.4,202c-0.7,0-1.3-0.4-1.6-1l-3.8-6.8c-0.5-0.9-0.2-2.1,0.7-2.6c0.9-0.5,2.1-0.2,2.6,0.7l3.8,6.8
			c0.5,0.9,0.2,2.1-0.7,2.6C427,202,426.7,202,426.4,202L426.4,202z"/>
		<line class="st0" x1="399.3" y1="173.7" x2="399.3" y2="173.7"/>
		<path class="st3" d="M404.1,176.9c-0.5,0-1-0.2-1.3-0.6c-0.1-0.1-0.2-0.2-0.2-0.3c-0.1-0.1-0.1-0.2-0.2-0.3c0-0.1-0.1-0.2-0.1-0.4
			c0-0.2,0-0.5,0-0.7c0-0.1,0.1-0.2,0.1-0.4c0-0.1,0.1-0.2,0.2-0.3c0.1-0.1,0.1-0.2,0.2-0.3c0.1-0.1,0.2-0.2,0.3-0.2
			c0.1-0.1,0.2-0.1,0.3-0.2c0.1,0,0.2-0.1,0.3-0.1c0.6-0.1,1.3,0.1,1.7,0.5c0.1,0.1,0.2,0.2,0.2,0.3c0.1,0.1,0.1,0.2,0.2,0.3
			c0,0.1,0.1,0.2,0.1,0.4c0,0.1,0,0.2,0,0.4c0,0.1,0,0.2,0,0.4c0,0.1-0.1,0.2-0.1,0.4c0,0.1-0.1,0.2-0.2,0.3
			c-0.1,0.1-0.1,0.2-0.2,0.3C405,176.7,404.6,176.9,404.1,176.9z"/>
		<path class="st3" d="M408.9,178.3c-0.1,0-0.2,0-0.4,0c-0.2,0-0.5-0.1-0.7-0.3c-0.1-0.1-0.2-0.1-0.3-0.2c-0.1-0.1-0.2-0.2-0.2-0.3
			c-0.1-0.1-0.1-0.2-0.2-0.3c0-0.1-0.1-0.2-0.1-0.4c0-0.1,0-0.2,0-0.4c0-0.5,0.2-1,0.5-1.3c0.1-0.1,0.2-0.2,0.3-0.2
			c0.1-0.1,0.2-0.1,0.3-0.2c0.1,0,0.2-0.1,0.4-0.1c0.2,0,0.5,0,0.7,0c0.1,0,0.2,0.1,0.4,0.1c0.1,0.1,0.2,0.1,0.3,0.2
			c0.1,0.1,0.2,0.1,0.3,0.2c0.7,0.7,0.7,1.9,0,2.7c-0.1,0.1-0.2,0.2-0.3,0.2c-0.1,0.1-0.2,0.1-0.3,0.2c-0.1,0-0.2,0.1-0.4,0.1
			C409.1,178.3,409,178.3,408.9,178.3z"/>
		<path class="st3" d="M437.7,186.7c-0.2,0-0.4,0-0.5-0.1l-23.8-6.9c-1-0.3-1.6-1.3-1.3-2.3c0.3-1,1.3-1.6,2.3-1.3c0,0,0,0,0,0
			l23.8,6.9c1,0.3,1.6,1.3,1.3,2.3C439.2,186.1,438.5,186.7,437.7,186.7z"/>
		
			<rect x="287.3" y="145.4" transform="matrix(0.9324 -0.3613 0.3613 0.9324 -37.9644 124.3946)" class="st5" width="52.8" height="36.7"/>
		<path class="st3" d="M295.7,192.2c-0.8,0-1.5-0.5-1.8-1.2l-13.3-34.2c-0.4-1,0.1-2.1,1.1-2.4l49.2-19.1c1-0.4,2.1,0.1,2.4,1.1
			c0,0,0,0,0,0l13.3,34.2c0.4,1-0.1,2.1-1.1,2.4l-49.2,19.1C296.2,192.2,295.9,192.2,295.7,192.2z M284.9,157.2l11.9,30.7l45.7-17.7
			l-11.9-30.7L284.9,157.2z"/>
		<path class="st8" d="M321.4,171.9l-5.4-9.7c1.4-1.6,1.8-3.8,1-5.7c-1.3-3-4.9-4.4-7.9-3.1c-2.8,1.3-4.2,4.5-3.3,7.4
			c0.8,1.9,2.5,3.3,4.6,3.5l2.6,10.8L321.4,171.9z"/>
		<path class="st3" d="M313,177c-0.9,0-1.6-0.6-1.8-1.5l-2.3-9.7c-2.2-0.7-4-2.3-4.8-4.4c-1.5-4,0.6-8.4,4.6-9.9c1.9-0.8,4-0.7,6,0
			c1.9,0.8,3.4,2.3,4.1,4.2c0.8,2.1,0.6,4.6-0.6,6.5l4.9,8.7c0.5,0.9,0.2,2.1-0.7,2.6c-0.1,0-0.2,0.1-0.2,0.1l-8.4,3.2
			C313.5,177,313.3,177,313,177z M311.6,154.7c-0.5,0-1.1,0.1-1.6,0.3c-2.1,0.7-3.2,3-2.4,5.1c0.5,1.3,1.7,2.2,3.1,2.4
			c0.8,0.1,1.4,0.7,1.6,1.4l2.1,8.7l4.3-1.7l-4.4-7.8c-0.4-0.7-0.3-1.5,0.2-2.1c0.9-1.1,1.2-2.5,0.7-3.8c-0.4-0.9-1.1-1.7-2.1-2.1
			C312.7,154.8,312.2,154.7,311.6,154.7L311.6,154.7z"/>
		<path class="st2" d="M461.3,336.3c0,0-0.1,0-0.1,0c-1.2-0.1-2.2-1.1-2.1-2.4c0,0,0,0,0,0c0.4-7.2,6.6-12.6,13.8-12.2
			c1.2,0.1,2.3,0.3,3.4,0.7c4.1-7.8,13.7-10.8,21.5-6.8c2.7,1.4,4.9,3.5,6.4,6c0.6,1.1,0.3,2.5-0.8,3.1s-2.5,0.3-3.1-0.8l0,0
			c-3.2-5.4-10.2-7.2-15.6-4.1c-2.4,1.4-4.2,3.6-5,6.2c-0.4,1.2-1.7,1.8-2.9,1.4c-0.1,0-0.3-0.1-0.4-0.2c-1.1-0.7-2.4-1-3.7-1.1
			c-4.7-0.3-8.7,3.3-9,7.9C463.5,335.4,462.5,336.3,461.3,336.3z"/>
		<path class="st2" d="M261.3,332c-0.9,0-1.7-0.5-2.1-1.4c-1.9-4.4-6.9-6.5-11.3-4.6c-0.6,0.2-1.1,0.5-1.6,0.9
			c-1,0.7-2.4,0.5-3.1-0.6c-0.1-0.1-0.1-0.2-0.2-0.3c-2.8-5.7-9.7-8-15.4-5.1c-2.9,1.4-5,4-5.9,7.1c-0.3,1.2-1.6,1.9-2.8,1.6
			c-1.2-0.3-1.9-1.6-1.6-2.8c2-6.8,8.2-11.6,15.4-11.6c5.2,0,10.1,2.5,13.1,6.8c6.6-3,14.4-0.1,17.4,6.6c0,0.1,0.1,0.2,0.1,0.3
			c0.5,1.1-0.1,2.5-1.2,3C261.9,332,261.6,332,261.3,332L261.3,332z"/>
		<path class="st2" d="M58.2,319.4c-1.2,0-2.3-1-2.3-2.3c0,0,0,0,0,0c0-7,5.7-12.7,12.7-12.7c5,0,9.5,2.9,11.6,7.4
			c0.5,1.1,0,2.5-1.1,3c-1.1,0.5-2.5,0-3-1.1c0,0,0,0,0,0c-1.9-4.1-6.7-5.9-10.9-4.1c-2.9,1.3-4.8,4.2-4.8,7.5
			C60.5,318.4,59.5,319.4,58.2,319.4C58.2,319.4,58.2,319.4,58.2,319.4z"/>
		<path class="st2" d="M98.2,300.1c-1,0-1.9-0.7-2.2-1.7c-0.7-2.7-3.5-4.4-6.3-3.6c-1.4,0.4-2.5,1.3-3.2,2.5c-0.6,1.1-2,1.5-3.1,0.9
			c-1.1-0.6-1.5-2-0.9-3.1c2.5-4.7,8.4-6.4,13.1-3.9c2.3,1.3,4,3.4,4.7,6c0.3,1.2-0.4,2.4-1.6,2.8C98.6,300.1,98.4,300.1,98.2,300.1
			L98.2,300.1z"/>
		<circle class="st5" cx="427.1" cy="304.2" r="11.9"/>
		<path class="st7" d="M427.4,305.1c-1,0-1.9-0.8-1.9-1.9c0-0.2,0-0.4,0.1-0.5l1.1-3.9c0.3-1,1.3-1.6,2.3-1.3s1.6,1.3,1.3,2.3l0,0
			l-1.1,3.9C429,304.5,428.2,305.1,427.4,305.1z"/>
		<path class="st7" d="M425.9,310.4c-0.2,0-0.5-0.1-0.7-0.1c-0.1,0-0.2-0.1-0.3-0.2c-0.1-0.1-0.2-0.1-0.3-0.2
			c-0.1-0.1-0.2-0.2-0.2-0.3c-0.1-0.1-0.1-0.2-0.2-0.3c0-0.1-0.1-0.2-0.1-0.4c0-0.2,0-0.5,0-0.7c0-0.1,0.1-0.2,0.1-0.4
			c0.1-0.1,0.1-0.2,0.2-0.3c0.1-0.1,0.1-0.2,0.2-0.3c0.2-0.2,0.4-0.3,0.6-0.4c0.1,0,0.2-0.1,0.3-0.1c0.6-0.1,1.3,0.1,1.7,0.5
			c0.7,0.7,0.7,1.9,0,2.7C426.9,310.2,426.4,310.4,425.9,310.4z"/>
		<path class="st7" d="M427.1,318c-1.3,0-2.6-0.2-3.9-0.5c-7.3-2.1-11.4-9.7-9.3-17c2.1-7.3,9.7-11.4,17-9.3
			c7.3,2.1,11.4,9.7,9.3,17C438.6,314,433.2,318,427.1,318z M427.1,294.2c-5.5,0-10,4.5-10,10c0,5.5,4.5,10,10,10
			c4.5,0,8.4-3,9.6-7.2l0,0c1.5-5.3-1.5-10.9-6.8-12.4C429,294.3,428.1,294.2,427.1,294.2L427.1,294.2z"/>
		
			<rect x="326.1" y="228.8" transform="matrix(0.3402 -0.9403 0.9403 0.3402 -1.8501 468.5641)" class="st8" width="13.7" height="13.7"/>
		<path class="st6" d="M325.3,259.2L325.3,259.2c-3.8-1.4-5.7-5.5-4.4-9.3c0,0,0,0,0,0l3.8-10.5l13.6,4.9l-3.8,10.5
			C333.2,258.6,329.1,260.6,325.3,259.2C325.3,259.2,325.3,259.2,325.3,259.2z"/>
		<path class="st3" d="M327.7,261.9c-5.3,0-9.5-4.3-9.5-9.5c0-1.1,0.2-2.2,0.6-3.2l7.8-21.5c0.4-1,1.4-1.5,2.4-1.1
			c1,0.4,1.5,1.4,1.1,2.4l-7.8,21.5c-1.1,3,0.5,6.3,3.5,7.3c3,1.1,6.2-0.5,7.3-3.4l8.3-23c0.3-1,1.4-1.5,2.4-1.1s1.5,1.4,1.1,2.4
			c0,0,0,0,0,0l-8.3,23C335.3,259.4,331.7,261.9,327.7,261.9z"/>
		<path class="st3" d="M346.5,235.1c-0.2,0-0.4,0-0.6-0.1l-21-7.6c-1-0.3-1.5-1.4-1.1-2.4c0.3-1,1.4-1.5,2.4-1.1c0,0,0,0,0,0l21,7.6
			c1,0.4,1.5,1.4,1.1,2.4C348,234.6,347.3,235.1,346.5,235.1L346.5,235.1z"/>
		<path class="st3" d="M338.4,246.7c-0.2,0-0.4,0-0.6-0.1l-14-5.1c-1-0.4-1.5-1.4-1.1-2.4c0.4-1,1.4-1.5,2.4-1.1l14,5.1
			c1,0.4,1.5,1.4,1.1,2.4C339.9,246.2,339.2,246.7,338.4,246.7L338.4,246.7z"/>
		<path class="st3" d="M368.3,78.8c-0.7,0-1.3-0.5-1.5-1.1L364,67.1c-0.2-0.8,0.3-1.6,1.1-1.8c0.3-0.1,0.5-0.1,0.8,0l10.6,2.8
			c0.8,0.2,1.3,1,1.1,1.8c-0.1,0.3-0.2,0.5-0.4,0.7l-7.8,7.7C369.1,78.6,368.7,78.8,368.3,78.8z M367.6,68.9l1.5,5.5l4.1-4
			L367.6,68.9z"/>
		<path class="st3" d="M426.1,259.9c-0.8,0-1.5-0.7-1.5-1.5c0-0.6,0.3-1.1,0.8-1.3l4.8-2.6l-3.7-4.1c-0.6-0.6-0.5-1.6,0.1-2.1
			c0.6-0.6,1.6-0.5,2.1,0.1c0,0,0,0,0,0l5,5.5c0.6,0.6,0.5,1.6-0.1,2.1c-0.1,0.1-0.2,0.1-0.3,0.2l-6.5,3.6
			C426.6,259.9,426.4,259.9,426.1,259.9z"/>
		<path class="st3" d="M411.4,257.4c-0.4,0-0.8-0.2-1.1-0.5l-5-5.5c-0.6-0.6-0.5-1.6,0.1-2.1c0.1-0.1,0.2-0.1,0.3-0.2l6.5-3.6
			c0.7-0.4,1.6-0.1,2,0.6c0.4,0.7,0.1,1.6-0.6,2l-4.8,2.6l3.7,4.1c0.6,0.6,0.5,1.6-0.1,2.1C412.1,257.3,411.7,257.4,411.4,257.4
			L411.4,257.4z"/>
		<path class="st3" d="M415.7,260.5c-0.8,0-1.5-0.7-1.5-1.5c0-0.3,0.1-0.6,0.2-0.8l8-12.6c0.4-0.7,1.4-0.9,2.1-0.5
			c0.7,0.4,0.9,1.4,0.5,2.1l0,0l-8,12.6C416.7,260.2,416.2,260.5,415.7,260.5z"/>
		<path class="st3" d="M279.4,201.1c-0.1,0-0.1,0-0.2,0l-11.8-1.3c-0.6-0.1-1.2-0.5-1.3-1.2l-2.6-12.1c-0.2-0.8,0.3-1.6,1.2-1.8
			c0.4-0.1,0.8,0,1.1,0.2l4.2,2.8l4-4.9c0.5-0.6,1.5-0.7,2.1-0.2c0.2,0.1,0.3,0.3,0.4,0.5l2.8,5.7l4.7-1.8c0.8-0.3,1.6,0.1,1.9,0.9
			c0.1,0.4,0.1,0.8,0,1.2l-5.2,11.2C280.6,200.8,280,201.1,279.4,201.1z M268.9,196.9l9.6,1.1l3.2-6.9l-2.6,1
			c-0.7,0.3-1.5-0.1-1.9-0.7l-2.4-4.8l-3.4,4.2c-0.5,0.6-1.3,0.7-2,0.3l-2.3-1.5L268.9,196.9z"/>
	</g>
</g>
</svg>
