<svg enable-background="new 0 0 530 500" viewBox="0 0 530 500" xmlns="http://www.w3.org/2000/svg"><circle cx="248.5" cy="277.7" r="208.1" style="fill:#88ddfd;stroke:#4d4d4d;stroke-width:4;stroke-linecap:round;stroke-linejoin:round;stroke-miterlimit:10"/><g fill="#5ac0e0"><path d="m402.2 342.4c0 3.2-2.6 5.8-5.8 5.8h-119c-3.2 0-5.8-2.6-5.8-5.8s2.6-5.8 5.8-5.8h119.1c3.1 0 5.7 2.6 5.7 5.8m-8.1-148c0 3.2-2.6 5.8-5.8 5.8h-171c-3.2 0-5.8-2.6-5.8-5.8s2.6-5.8 5.8-5.8h171.1c3.1 0 5.7 2.6 5.7 5.8m-198.8 24.3c-3.2 0-5.8-2.6-5.8-5.8s2.6-5.8 5.8-5.8h179.2c3.2 0 5.8 2.6 5.8 5.8s-2.6 5.8-5.8 5.8zm161.8 12.7c0 3.2-2.6 5.8-5.8 5.8h-161.8c-3.2 0-5.8-2.6-5.8-5.8s2.6-5.8 5.8-5.8h161.8c3.2 0 5.8 2.6 5.8 5.8m0-61.2c3.2 0 5.8 2.6 5.8 5.8s-2.6 5.8-5.8 5.8h-119c-3.2 0-5.8-2.6-5.8-5.8s2.6-5.8 5.8-5.8zm-92.5-12.8c0-3.2 2.6-5.8 5.8-5.8h112.1c3.2 0 5.8 2.6 5.8 5.8s-2.6 5.8-5.8 5.8h-112.1c-3.2 0-5.8-2.6-5.8-5.8m119.1-24.2c3.2 0 5.8 2.6 5.8 5.8s-2.6 5.8-5.8 5.8h-130.6c-3.2 0-5.8-2.6-5.8-5.8s2.6-5.8 5.8-5.8zm-150.3-31.2c0-3.2 2.6-5.8 5.8-5.8h18.5c3.2 0 5.8 2.6 5.8 5.8s-2.6 5.8-5.8 5.8h-18.5c-3.2-.1-5.8-2.7-5.8-5.8m-35.8 0c0-3.2 1.4-5.8 4.6-5.8h1.2c3.2 0 4.6 2.6 4.6 5.8s-1.4 5.8-4.6 5.8h-1.2c-3.2-.1-4.6-2.7-4.6-5.8m-42.8 18.4c0-3.2 2.6-5.8 5.8-5.8h111c3.2 0 5.8 2.6 5.8 5.8s-2.6 5.8-5.8 5.8h-111c-3.2 0-5.8-2.6-5.8-5.8m-5.8 12.8h23.1c3.2 0 5.8 2.6 5.8 5.8s-2.6 5.8-5.8 5.8h-23.1c-3.2 0-5.8-2.6-5.8-5.8s2.7-5.8 5.8-5.8m15.1 24.2c0 3.2-1.4 5.8-4.6 5.8s-4.6-2.6-4.6-5.8 1.4-5.8 4.6-5.8c3.1.1 4.6 2.6 4.6 5.8m-24.3 98.3c-3.2 0-5.8-2.6-5.8-5.8s2.6-5.8 5.8-5.8h216.2c3.2 0 5.8 2.6 5.8 5.8s-2.6 5.8-5.8 5.8zm31.2 18.5c-3.2 0-5.8-2.6-5.8-5.8s2.6-5.8 5.8-5.8h188.4c3.2 0 5.8 2.6 5.8 5.8s-2.6 5.8-5.8 5.8zm11.6 18.5c-3.2 0-5.8-2.6-5.8-5.8s2.6-5.8 5.8-5.8h197.7c3.2 0 5.8 2.6 5.8 5.8s-2.6 5.8-5.8 5.8zm23.1 18.5c-3.2 0-5.8-2.6-5.8-5.8s2.6-5.8 5.8-5.8h166.5c3.2 0 5.8 2.6 5.8 5.8s-2.6 5.8-5.8 5.8zm34.7 18.5c-3.2 0-5.8-2.6-5.8-5.8s2.6-5.8 5.8-5.8h143.4c3.2 0 5.8 2.6 5.8 5.8s-2.6 5.8-5.8 5.8z"/><path d="m160.6 126.2h111c3.2 0 5.8-2.6 5.8-5.8s-2.6-5.8-5.8-5.8h-111c-3.2 0-5.8 2.6-5.8 5.8s2.6 5.8 5.8 5.8"/><path d="m321.3 120.4c0 3.2 2.6 5.8 5.8 5.8h60.7c-4.4-4-9-7.9-13.7-11.6h-47c-3.2.1-5.8 2.6-5.8 5.8"/><path d="m317.8 101.9c0 3.2 2.6 5.8 5.8 5.8h40.9c-6.1-4.2-12.5-8-19-11.6h-21.9c-3.2.1-5.8 2.6-5.8 5.8"/><path d="m246.2 83.4c0-3.2-2.6-5.8-5.8-5.8h-40.5c-11.8 2.9-23.3 6.7-34.2 11.6h74.7c3.2 0 5.8-2.6 5.8-5.8"/><path d="m202.2 107.7h1.2c3.2 0 4.6-2.6 4.6-5.8s-1.4-5.8-4.6-5.8h-1.2c-3.2 0-4.6 2.6-4.6 5.8s1.4 5.8 4.6 5.8"/><path d="m239.2 107.7h18.5c3.2 0 5.8-2.6 5.8-5.8s-2.6-5.8-5.8-5.8h-18.5c-3.2 0-5.8 2.6-5.8 5.8s2.6 5.8 5.8 5.8"/><path d="m158.3 101.9c0-3.2-2.6-5.8-5.8-5.8h-1.1c-6.6 3.5-12.9 7.4-19 11.6h20.1c3.2 0 5.8-2.6 5.8-5.8"/><path d="m149.1 144.7h23.1c3.2 0 5.8-2.6 5.8-5.8s-2.6-5.8-5.8-5.8h-23.1c-3.2 0-5.8 2.6-5.8 5.8s2.6 5.8 5.8 5.8"/><path d="m247.3 138.9c0 3.2 2.6 5.8 5.8 5.8h130.6c3.2 0 5.8-2.6 5.8-5.8s-2.6-5.8-5.8-5.8h-130.6c-3.2.1-5.8 2.6-5.8 5.8"/><path d="m382.6 163.2c3.2 0 5.8-2.6 5.8-5.8s-2.6-5.8-5.8-5.8h-112.2c-3.2 0-5.8 2.6-5.8 5.8s2.6 5.8 5.8 5.8z"/><path d="m159.5 151.6c-3.2 0-4.6 2.6-4.6 5.8s1.4 5.8 4.6 5.8 4.6-2.6 4.6-5.8-1.4-5.8-4.6-5.8"/><path d="m232.3 175.9c0 3.2 2.6 5.8 5.8 5.8h119.1c3.2 0 5.8-2.6 5.8-5.8s-2.6-5.8-5.8-5.8h-119.1c-3.2 0-5.8 2.6-5.8 5.8"/><path d="m217.3 188.6c-3.2 0-5.8 2.6-5.8 5.8s2.6 5.8 5.8 5.8h171.1c3.2 0 5.8-2.6 5.8-5.8s-2.6-5.8-5.8-5.8z"/><path d="m63.5 212.9c0-3.2-2.6-5.8-5.8-5.8h-2.6c-1.4 3.8-2.7 7.7-3.8 11.6h6.4c3.2 0 5.8-2.6 5.8-5.8"/><path d="m380.3 212.9c0-3.2-2.6-5.8-5.8-5.8h-179.2c-3.2 0-5.8 2.6-5.8 5.8s2.6 5.8 5.8 5.8h179.2c3.2 0 5.8-2.6 5.8-5.8"/><path d="m77.4 231.4c0-3.2-2.6-5.8-5.8-5.8h-22.3c-1 3.8-1.9 7.7-2.7 11.6h24.9c3.3 0 5.9-2.6 5.9-5.8"/><path d="m189.5 225.6c-3.2 0-5.8 2.6-5.8 5.8s2.6 5.8 5.8 5.8h161.8c3.2 0 5.8-2.6 5.8-5.8s-2.6-5.8-5.8-5.8z"/><path d="m85.5 249.9c0-3.2-2.6-5.8-5.8-5.8h-34.3c-.6 3.8-1.2 7.7-1.6 11.6h35.8c3.3 0 5.9-2.6 5.9-5.8"/><path d="m361.8 249.9c0-3.2-2.6-5.8-5.8-5.8h-216.2c-3.2 0-5.8 2.6-5.8 5.8s2.6 5.8 5.8 5.8h216.2c3.2 0 5.8-2.6 5.8-5.8"/><path d="m365.2 268.4c0-3.2-2.6-5.8-5.8-5.8h-188.4c-3.2 0-5.8 2.6-5.8 5.8s2.6 5.8 5.8 5.8h188.4c3.2 0 5.8-2.6 5.8-5.8"/><path d="m105.1 268.4c0-3.2-2.6-5.8-5.8-5.8h-56.1c-.3 3.8-.4 7.7-.5 11.6h56.6c3.2 0 5.8-2.6 5.8-5.8"/><path d="m386 286.9c0-3.2-2.6-5.8-5.8-5.8h-197.6c-3.2 0-5.8 2.6-5.8 5.8s2.6 5.8 5.8 5.8h197.7c3.2 0 5.7-2.6 5.7-5.8"/><path d="m377.9 305.4c0-3.2-2.6-5.8-5.8-5.8h-166.4c-3.2 0-5.8 2.6-5.8 5.8s2.6 5.8 5.8 5.8h166.5c3.2 0 5.7-2.6 5.7-5.8"/><path d="m389.5 323.9c0-3.2-2.6-5.8-5.8-5.8h-143.3c-3.2 0-5.8 2.6-5.8 5.8s2.6 5.8 5.8 5.8h143.4c3.1 0 5.7-2.6 5.7-5.8"/><path d="m139.8 286.9c0-3.2-2.6-5.8-5.8-5.8h-91.2c.1 3.9.2 7.7.5 11.6h90.7c3.2 0 5.8-2.6 5.8-5.8"/><path d="m158.3 305.4c0-3.2-2.6-5.8-5.8-5.8h-108.6c.4 3.9.9 7.7 1.6 11.6h107.1c3.1 0 5.7-2.6 5.7-5.8"/><path d="m158.3 323.9c0-3.2-2.6-5.8-5.8-5.8h-105.8c.8 3.9 1.7 7.7 2.7 11.6h103.2c3.1 0 5.7-2.6 5.7-5.8"/><path d="m271.6 342.4c0 3.2 2.6 5.8 5.8 5.8h119.1c3.2 0 5.8-2.6 5.8-5.8s-2.6-5.8-5.8-5.8h-119.1c-3.2 0-5.8 2.6-5.8 5.8"/><path d="m270.4 360.9c0 3.2 2.6 5.8 5.8 5.8h157.8c1.8-3.8 3.5-7.6 5.1-11.6h-162.9c-3.2 0-5.8 2.6-5.8 5.8"/><path d="m263.5 373.6c-3.2 0-5.8 2.6-5.8 5.8s2.6 5.8 5.8 5.8h160.5c2.3-3.8 4.5-7.6 6.6-11.6z"/><path d="m245 397.9c0 3.2 2.6 5.8 5.8 5.8h160.4c2.9-3.8 5.7-7.6 8.3-11.6h-168.7c-3.2 0-5.8 2.6-5.8 5.8"/><path d="m158.3 342.4c0-3.2-2.6-5.8-5.8-5.8h-101.2c1.2 3.9 2.4 7.8 3.8 11.6h97.4c3.2 0 5.8-2.6 5.8-5.8"/><path d="m175.6 360.9c0-3.2-2.6-5.8-5.8-5.8h-112c1.6 3.9 3.3 7.8 5.1 11.6h107c3.2 0 5.7-2.6 5.7-5.8"/><path d="m186.1 379.4c0-3.2-2.6-5.8-5.8-5.8h-113.9c2.1 3.9 4.3 7.8 6.6 11.6h107.3c3.2 0 5.7-2.6 5.8-5.8"/><path d="m184.9 397.9c0-3.2-2.6-5.8-5.8-5.8h-101.7c2.7 4 5.4 7.8 8.3 11.6h93.3c3.3 0 5.9-2.6 5.9-5.8"/><path d="m233.4 416.4c0 3.2 2.6 5.8 5.8 5.8h155.8c3.7-3.7 7.2-7.6 10.6-11.6h-166.4c-3.2 0-5.8 2.6-5.8 5.8"/><path d="m221.9 434.9c0 3.2 2.6 5.8 5.8 5.8h146.3c4.7-3.7 9.3-7.5 13.7-11.6h-160c-3.2 0-5.8 2.6-5.8 5.8"/><path d="m216.1 453.4c0 3.2 2.6 5.8 5.8 5.8h123.6c6.6-3.5 12.9-7.4 19-11.6h-142.6c-3.2 0-5.8 2.6-5.8 5.8"/><path d="m184.9 416.4c0-3.2-2.6-5.8-5.8-5.8h-87.7c3.4 4 6.9 7.8 10.6 11.6h77.1c3.2 0 5.8-2.6 5.8-5.8"/><path d="m184.9 434.9c0-3.2-2.6-5.8-5.8-5.8h-69.9c4.4 4 9 7.9 13.7 11.6h56.2c3.2 0 5.8-2.6 5.8-5.8"/><path d="m188.4 453.4c0-3.2-2.6-5.8-5.8-5.8h-50.2c6.1 4.2 12.5 8 19 11.6h31.1c3.3 0 5.9-2.6 5.9-5.8"/><path d="m199.9 477.6h97.1c11.8-2.9 23.3-6.7 34.2-11.6h-165.5c10.9 4.9 22.4 8.8 34.2 11.6"/></g><path d="m371.4 86.7c66.4-57.6 114.1-90.7 122.3-82.5 3.7 3.7-1.1 15.6-12.8 33.6" style="fill:none;stroke:#4d4d4d;stroke-width:4;stroke-linecap:round;stroke-linejoin:round;stroke-miterlimit:10"/><path d="m181.7 118c-2.7 1.7-6.3 3-9 1.3-1.4-.9-2.2-2.4-2.7-3.9-2.1-6.2.8-13.3 5.7-17.7s15.4-6 17.7 2.4c1.7 6.6-6.8 14.7-11.7 17.9z" style="fill:#a3cc6c;stroke:#4d4d4d;stroke-width:4;stroke-linecap:round;stroke-linejoin:round;stroke-miterlimit:10"/><path d="m214.4 104.4c3.3-1.8 7.6-1.6 10.7.4 1.1.7 2.1 1.8 2.3 3.1.3 1.6-.7 3.2-2.1 4.2s-3 1.3-4.6 1.7c-1.9.4-3.7.9-5.6 1.3-.5.1-1.1.2-1.6.1-1-.3-1.4-1.5-1.5-2.5-.2-2.5.3-5 1.7-7.2" style="fill:#a3cc6c;stroke:#4d4d4d;stroke-width:4;stroke-linecap:round;stroke-linejoin:round;stroke-miterlimit:10"/><path d="m443.8 105.1 6.8-17.2c2.7.1 5.4-1.1 7.2-3.4 3-3.8 2.4-9.4-1.5-12.4-3.8-3-9.4-2.4-12.4 1.5-1.8 2.3-2.3 5.2-1.6 7.8l-15.2 10.6c-4.8-9-3.9-20.8 2.9-29.4 9.1-11.5 26.9-14.9 38.4-5.8s12.4 27.2 3.3 38.7c-6.7 8.6-18 12.2-27.9 9.6z" style="fill:#9f94c4;stroke:#4d4d4d;stroke-width:4;stroke-linecap:round;stroke-linejoin:round;stroke-miterlimit:10"/><path d="m411.2 60.2-34.5-27.2c-1-.8-1.2-2.2-.4-3.2l11.5-14.5c.8-1 2.2-1.2 3.2-.4l34.5 27.2c1 .8 1.2 2.2.4 3.2l-11.5 14.5c-.7 1-2.2 1.2-3.2.4z" style="fill:#cc731b;stroke:#4d4d4d;stroke-width:4;stroke-linecap:round;stroke-linejoin:round;stroke-miterlimit:10"/><path d="m383.9 23.9 45.4 35.8" style="fill:none;stroke:#4d4d4d;stroke-width:4;stroke-linecap:round;stroke-linejoin:round;stroke-miterlimit:10"/><path d="m414.7 33.5-14.3 18.1" style="fill:none;stroke:#4d4d4d;stroke-width:4;stroke-linecap:round;stroke-linejoin:round;stroke-miterlimit:10"/><path d="m402 23.4-14.3 18.1" style="fill:none;stroke:#4d4d4d;stroke-width:4;stroke-linecap:round;stroke-linejoin:round;stroke-miterlimit:10"/><path d="m478.3 113.3 34.5 27.2c1 .8 2.5.6 3.2-.4l11.5-14.5c.8-1 .6-2.5-.4-3.2l-34.5-27.2c-1-.8-2.5-.6-3.2.4l-11.5 14.4c-.8 1-.6 2.5.4 3.3z" style="fill:#cc731b;stroke:#4d4d4d;stroke-width:4;stroke-linecap:round;stroke-linejoin:round;stroke-miterlimit:10"/><path d="m520 131.4-45.4-35.8" style="fill:none;stroke:#4d4d4d;stroke-width:4;stroke-linecap:round;stroke-linejoin:round;stroke-miterlimit:10"/><path d="m503.5 103.7-14.3 18.1" style="fill:none;stroke:#4d4d4d;stroke-width:4;stroke-linecap:round;stroke-linejoin:round;stroke-miterlimit:10"/><path d="m516.2 113.8-14.3 18.1" style="fill:none;stroke:#4d4d4d;stroke-width:4;stroke-linecap:round;stroke-linejoin:round;stroke-miterlimit:10"/><path d="m307.1 354.3c-26.5-24.7-54.5-51.7-83.1-80.3-135.5-135.5-234.3-256.2-220.8-269.8 8.1-8.1 54.8 24.2 120.1 80.6" style="fill:none;stroke:#4d4d4d;stroke-width:4;stroke-linecap:round;stroke-linejoin:round;stroke-miterlimit:10"/><path d="m374 414.5c-1.4-1.2-2.7-2.3-4.1-3.5" style="fill:none;stroke:#4d4d4d;stroke-width:4;stroke-linecap:round;stroke-linejoin:round;stroke-miterlimit:10"/><path d="m437.3 403.2c41.2 50.1 63.3 84.6 56.4 91.5-7.8 7.8-50.9-21.5-111.9-73.5" style="fill:none;stroke:#4d4d4d;stroke-width:4;stroke-linecap:round;stroke-linejoin:round;stroke-miterlimit:10"/><path d="m414.7 122.6c-37.8 43.9-86.8 96.4-141.7 151.4-135.4 135.4-256.2 234.2-269.8 220.7-6.7-6.7 14.3-39.9 53.8-88.3" style="fill:none;stroke:#4d4d4d;stroke-width:4;stroke-linecap:round;stroke-linejoin:round;stroke-miterlimit:10"/><path d="m429.8 104.7c-2 2.4-4 4.8-6 7.2" style="fill:none;stroke:#4d4d4d;stroke-width:4;stroke-linecap:round;stroke-linejoin:round;stroke-miterlimit:10"/><path d="m317.9 421.4-31 31.2c-.9.9-2.4.9-3.3 0l-13.1-13c-.9-.9-.9-2.4 0-3.3l31-31.2c.9-.9 2.4-.9 3.3 0l13.1 13c.8.9.9 2.3 0 3.3z" style="fill:#cc731b;stroke:#4d4d4d;stroke-width:4;stroke-linecap:round;stroke-linejoin:round;stroke-miterlimit:10"/><path d="m278.7 444.4 40.7-41" style="fill:none;stroke:#4d4d4d;stroke-width:4;stroke-linecap:round;stroke-linejoin:round;stroke-miterlimit:10"/><path d="m291.7 414.9 16.4 16.3" style="fill:none;stroke:#4d4d4d;stroke-width:4;stroke-linecap:round;stroke-linejoin:round;stroke-miterlimit:10"/><path d="m280.3 426.4 16.4 16.3" style="fill:none;stroke:#4d4d4d;stroke-width:4;stroke-linecap:round;stroke-linejoin:round;stroke-miterlimit:10"/><path d="m378.1 360.7 31-31.2c.9-.9.9-2.4 0-3.3l-13.1-13c-.9-.9-2.4-.9-3.3 0l-31 31.2c-.9.9-.9 2.4 0 3.3l13.1 13c1 .9 2.4.9 3.3 0z" style="fill:#cc731b;stroke:#4d4d4d;stroke-width:4;stroke-linecap:round;stroke-linejoin:round;stroke-miterlimit:10"/><path d="m400.9 321.4-40.7 41" style="fill:none;stroke:#4d4d4d;stroke-width:4;stroke-linecap:round;stroke-linejoin:round;stroke-miterlimit:10"/><path d="m371.5 334.5 16.4 16.3" style="fill:none;stroke:#4d4d4d;stroke-width:4;stroke-linecap:round;stroke-linejoin:round;stroke-miterlimit:10"/><path d="m382.9 323 16.4 16.3" style="fill:none;stroke:#4d4d4d;stroke-width:4;stroke-linecap:round;stroke-linejoin:round;stroke-miterlimit:10"/><circle cx="339.8" cy="382.9" r="26.6" style="fill:#9f94c4;stroke:#4d4d4d;stroke-width:4;stroke-linecap:round;stroke-linejoin:round;stroke-miterlimit:10"/><path d="m349.4 380.1c-5.1-5.1-12.3 2-14.5-.1-1.1-1.1-.9-2 .3-3.2 1-1 2.3-1.4 4.2-1.6l-.4-5.1c-2.3-.1-4.5.4-6.5 1.9l-2.8-2.8-3.1 3.1 2.9 2.9c-2.1 3.3-1.8 6.8 1 9.6 4.9 4.9 12.3-2 14.6.2 1.1 1.1 1 2.1-.4 3.5-1.2 1.2-2.8 1.9-5.4 2.3l1.2 5.3c2.6-.1 5.3-1.5 7-2.8l2.8 2.8 3.1-3.1-3-3c2.4-3.7 1.7-7.2-1-9.9" fill="#655f84"/><path d="m313.3 383.1 53.2-.2" style="fill:none;stroke:#4d4d4d;stroke-width:4;stroke-linecap:round;stroke-linejoin:round;stroke-miterlimit:10"/><path d="m248.5 69.6c-7.2 0-14.4.4-21.4 1.1 4.9 1.4 11.5 2.1 14.6 3.2 7.4 2.5 14.5 5.9 21.1 10 2.4 1.5 4.9 3.2 6.1 5.9 2.2 5-1.5 11.1.5 16.2 1 2.6 3.3 4.4 5.5 6.1 9.2 7 18.6 13.8 28.2 20.2 1.6 1.1 3.3 2.2 5.2 2 3.2-.4 4.8-4.3 4.6-7.6s-1.4-6.5-.6-9.7c1-4.2 5-6.8 8.5-9.3 7-4.8 13.3-10.6 18.8-17-27.6-13.6-58.5-21.1-91.1-21.1z" style="fill:#a3cc6c;stroke:#4d4d4d;stroke-width:4;stroke-linecap:round;stroke-linejoin:round;stroke-miterlimit:10"/><path d="m273.6 356.9c-6.1-4.7-13.5-7.3-20.7-10.1-18.8-7.1-37.3-15.1-55.4-23.8-10.3-5-21.2-11-25.8-21.5-3.7-8.6-3.6-20.4-12.1-24.4-6.6-3.1-13.3.9-19.3 3.5-.5-6.1.4-12.3 2-18.2.5-2 1.2-4.1 2.9-5.4 2.4-1.9 12.5-5.5 15.4-4.9 8.7 0 12.2 7.9 20.7 9.6.6.1 1.3.2 1.7-.2.4-.3.5-1 .6-1.5.7-6.9-.8-15.5 2.4-21.9 1.7-3.4 4.8-5.9 7.7-8.4 20.7-17.1 39.9-36.1 57.2-56.6 1.5-1.7 3-3.6 3.7-5.8.9-2.9.3-5.9-.4-8.8-.9-4-1.7-8-2.6-12-.4-1.8-.8-3.6-2.1-4.9-1.4-1.5-3.6-1.9-5.6-2.3-12.5-2.4-25-4.9-37.5-7.3-2.6-.5-5.7-1-7.8.7s-2.4 4.7-2.8 7.4c-1.6 11.2-7.8 21.6-17 28.2-1.7 1.2-3.5 2.3-5.6 2.5-3.2.3-6.2-1.6-8.8-3.5-4.7-3.3-9.4-6.6-12.8-11.2s-5.1-10.8-2.9-16.1c1.4-3.6 4.4-6.3 6.5-9.5 1.5-2.3 4.4-8.4.7-10.1-.1 0-.2-.1-.3-.1-6.1-2.2-20.1 2.8-26.8 3.2-6.8.5-13.7.6-20.6.4-18.7 17-34.2 37.4-45.7 60.2-.1 6.9-.2 13.8-.2 20.7 0 6.1.1 12.4 2.1 18.2 3.8 10.6 13.6 17.7 21.2 26.1 16.3 17.8 24.5 43.6 45.5 55.6 7.1 4 15 6.1 22.3 9.7s14.2 9.4 16 17.3c1 4.5.3 9.2-.2 13.8-1.1 10.5-.8 21.5 3.4 31.1 4.7 10.9 13.8 19.3 18.7 30.1 9.9 21.8.4 46.9 0 71 7 2 14.2 3.6 21.5 4.9.2-.2.3-.4.5-.6 5-6.4 7.7-14.2 11.3-21.4 12.1-24.6 33.8-42.8 50.8-64.4 4.6-5.9 9.1-12.5 9.1-20 .1-7.5-4.7-14.6-10.9-19.3z" style="fill:#a3cc6c;stroke:#4d4d4d;stroke-width:4;stroke-linecap:round;stroke-linejoin:round;stroke-miterlimit:10"/><path d="m450.8 228.8c-6.5.4-13.1.8-19.6 1.3-2.2.1-4.8.1-6.3-1.5-1.2-1.4-1.2-3.5-1.5-5.3-1.4-7.5-10-11.8-17.6-11-7.6.7-14.3 5.1-20.6 9.3-5.3 3.5-10.8 7.4-13 13.4-1.4 3.8-1.1 8-.9 12.1 1 14.9 1.9 29.9 2.9 44.8.1 1.3.2 2.7.6 3.9.8 2.1 2.6 3.6 4.4 4.8 9.2 5.9 22 5.5 29.8 13.2 4.8 4.6 6.8 11.4 7.5 18s.2 13.3 1 19.9c1.1 10.6 5.3 20.7 11.8 29.1 17.3-30.4 27.2-65.5 27.2-103 .1-17-2-33.3-5.7-49z" style="fill:#a3cc6c;stroke:#4d4d4d;stroke-width:4;stroke-linecap:round;stroke-linejoin:round;stroke-miterlimit:10"/><path d="m388.8 173.5c-.9 3.2.7 7.1-1.4 9.7-1.2 1.5-3.1 2-4.9 2.7-7.8 3.2-12.5 12.5-10.4 20.6 11.5.1 21.5-9.8 33-9.2 8.8.4 16 6.9 23.4 11.7 5.9 3.9 12.4 6.8 19.2 8.8-4.5-14.9-10.5-29-18-42.3-8.1-1.1-16.1-3.7-23.9-6.1-3.1-.9-6.4-1.8-9.6-1.5-3.2.5-6.5 2.4-7.4 5.6z" style="fill:#a3cc6c;stroke:#4d4d4d;stroke-width:4;stroke-linecap:round;stroke-linejoin:round;stroke-miterlimit:10"/></svg>