<?xml version="1.0" encoding="UTF-8"?>
<svg width="1125px" height="218px" viewBox="0 0 1125 218" version="1.1" xmlns="http://www.w3.org/2000/svg" xmlns:xlink="http://www.w3.org/1999/xlink">
    <!-- Generator: Sketch 52 (66869) - http://www.bohemiancoding.com/sketch -->
    <title>Group</title>
    <desc>Created with Sketch.</desc>
    <g id="Page-1" stroke="none" stroke-width="1" fill="none" fill-rule="evenodd">
        <g id="Group" transform="translate(4.000000, 9.000000)" fill="#8AD7F0" fill-rule="nonzero" stroke="#2398BD" stroke-width="8">
            <polygon id="Star-Copy-4" points="1005.5 167.25 939.961944 201.705395 952.478599 128.727697 899.457198 77.0446051 972.730972 66.3973026 1005.5 0 1038.26903 66.3973026 1111.5428 77.0446051 1058.5214 128.727697 1071.03806 201.705395"></polygon>
            <polygon id="Star-Copy-3" points="782 167.25 716.461944 201.705395 728.978599 128.727697 675.957198 77.0446051 749.230972 66.3973026 782 0 814.769028 66.3973026 888.042802 77.0446051 835.021401 128.727697 847.538056 201.705395"></polygon>
            <polygon id="Star-Copy-2" points="558.5 167.25 492.961944 201.705395 505.478599 128.727697 452.457198 77.0446051 525.730972 66.3973026 558.5 0 591.269028 66.3973026 664.542802 77.0446051 611.521401 128.727697 624.038056 201.705395"></polygon>
            <polygon id="Star-Copy" points="335 167.25 269.461944 201.705395 281.978599 128.727697 228.957198 77.0446051 302.230972 66.3973026 335 0 367.769028 66.3973026 441.042802 77.0446051 388.021401 128.727697 400.538056 201.705395"></polygon>
            <polygon id="Star" points="111.5 167.25 45.9619444 201.705395 58.4785992 128.727697 5.45719843 77.0446051 78.7309722 66.3973026 111.5 0 144.269028 66.3973026 217.542802 77.0446051 164.521401 128.727697 177.038056 201.705395"></polygon>
        </g>
    </g>
</svg>