<svg xmlns="http://www.w3.org/2000/svg" width="30" height="30"><defs><style>.cls-1{fill:#999}</style></defs><g id="Layer_2" data-name="Layer 2"><g id="Layer_1-2" data-name="Layer 1"><g id="Layer_2-2" data-name="Layer 2"><g id="Layer_1-2-2" data-name="Layer 1-2"><path class="cls-1" d="M17.59 24H12.4v-6.3H6v-5.36h6.4V6h5.19v6.3H24v5.32h-6.41zm-4.23-1h3.27v-6.3H23v-3.39h-6.37V7h-3.27v6.3H7v3.38h6.35z"/><path class="cls-1" d="M15 30a15 15 0 1 1 15-15 15 15 0 0 1-15 15zm0-29a14 14 0 1 0 14 14A14 14 0 0 0 15 1z"/></g></g></g></g></svg>
