<?xml version="1.0" encoding="utf-8"?>
<!-- Generator: Adobe Illustrator 23.0.6, SVG Export Plug-In . SVG Version: 6.00 Build 0)  -->
<svg version="1.1" id="Layer_1" xmlns="http://www.w3.org/2000/svg" xmlns:xlink="http://www.w3.org/1999/xlink" x="0px" y="0px"
	 viewBox="0 0 80 80" enable-background="new 0 0 80 80" xml:space="preserve">
<path fill="#FC6D26" d="M46.8,36.1c-0.7-0.6-1.7-0.6-2.3,0.1l-4.2,4.5l-1.1-1c-0.7-0.6-1.7-0.6-2.3,0.1c-0.6,0.7-0.6,1.7,0.1,2.3
	l2.3,2.1c0,0,0.1,0.1,0.1,0.1c0,0,0.1,0.1,0.1,0.1c0,0,0.1,0.1,0.1,0.1c0,0,0.1,0,0.1,0.1c0.1,0,0.1,0,0.2,0c0,0,0.1,0,0.1,0
	c0.1,0,0.2,0,0.3,0c0.1,0,0.2,0,0.3,0c0,0,0.1,0,0.1,0c0.1,0,0.1,0,0.2-0.1c0,0,0.1-0.1,0.1-0.1c0.1,0,0.1-0.1,0.2-0.1
	c0,0,0.1-0.1,0.1-0.1c0,0,0.1-0.1,0.1-0.1l0,0c0,0,0,0,0,0c0,0,0,0,0,0l5.3-5.7C47.5,37.7,47.5,36.7,46.8,36.1L46.8,36.1z"/>
<path fill="none" stroke="#251B3F" stroke-width="2.2257" stroke-linecap="round" stroke-linejoin="round" stroke-miterlimit="10" d="
	M37.8,16.6l-3.3,5.3l5.3,3.3"/>
<path fill="none" stroke="#251B3F" stroke-width="2.2257" stroke-linecap="round" stroke-linejoin="round" stroke-miterlimit="10" d="
	M35.8,21.5c1.9-0.6,4-1,6.1-1c10.8,0,19.6,8.8,19.6,19.6s-8.8,19.6-19.6,19.6H13.7"/>
<path fill="none" stroke="#251B3F" stroke-width="2.2257" stroke-linecap="round" stroke-linejoin="round" stroke-miterlimit="10" d="
	M73.3,59.7H59.3"/>
<path fill="none" stroke="#251B3F" stroke-width="2.2257" stroke-linecap="round" stroke-linejoin="round" stroke-miterlimit="10" d="
	M27.3,53.3c-3.1-3.5-5-8.1-5-13.1c0-6,2.7-11.4,6.9-15"/>
<path fill="none" stroke="#251B3F" stroke-width="2.2257" stroke-linecap="round" stroke-linejoin="round" stroke-miterlimit="10" d="
	M4.9,56h7.5v7.5H4.9V56z"/>
<path fill="none" stroke="#251B3F" stroke-width="2.2257" stroke-linecap="round" stroke-linejoin="round" stroke-miterlimit="10" d="
	M71.6,64.3l4.4-4.4l-4.4-4.4"/>
</svg>
