<svg width="22" height="22" viewBox="0 0 22 22" fill="none" xmlns="http://www.w3.org/2000/svg"><g clip-path="url(#clip0)"><path d="M20.365 8.63047H1.45305C1.22159 8.63047 0.999606 8.53852 0.835938 8.37485C0.67227 8.21118 0.580322 7.9892 0.580322 7.75774C0.580322 7.52628 0.67227 7.30429 0.835938 7.14063C0.999606 6.97696 1.22159 6.88501 1.45305 6.88501H20.365C20.5965 6.88501 20.8185 6.97696 20.9822 7.14063C21.1458 7.30429 21.2378 7.52628 21.2378 7.75774C21.2378 7.9892 21.1458 8.21118 20.9822 8.37485C20.8185 8.53852 20.5965 8.63047 20.365 8.63047Z" fill="white"></path> <path d="M18.6196 21.909H3.1985C2.50412 21.909 1.83817 21.6331 1.34717 21.1421C0.856166 20.6511 0.580322 19.9852 0.580322 19.2908V10.4064C0.580322 10.175 0.67227 9.95298 0.835938 9.78931C0.999606 9.62564 1.22159 9.53369 1.45305 9.53369C1.68451 9.53369 1.90649 9.62564 2.07016 9.78931C2.23383 9.95298 2.32578 10.175 2.32578 10.4064V19.2908C2.32578 19.5222 2.41772 19.7442 2.58139 19.9079C2.74506 20.0716 2.96704 20.1635 3.1985 20.1635H18.6196C18.8511 20.1635 19.073 20.0716 19.2367 19.9079C19.4004 19.7442 19.4923 19.5222 19.4923 19.2908V10.4064C19.4923 10.175 19.5843 9.95298 19.7479 9.78931C19.9116 9.62564 20.1336 9.53369 20.365 9.53369C20.5965 9.53369 20.8185 9.62564 20.9822 9.78931C21.1458 9.95298 21.2378 10.175 21.2378 10.4064V19.2908C21.2378 19.9852 20.9619 20.6511 20.4709 21.1421C19.9799 21.6331 19.314 21.909 18.6196 21.909Z" fill="white"></path> <path d="M1.45305 8.6305C1.22159 8.6305 0.999606 8.53855 0.835938 8.37488C0.67227 8.21122 0.580322 7.98923 0.580322 7.75777V4.26686C0.580322 3.57248 0.856166 2.90653 1.34717 2.41553C1.83817 1.92452 2.50412 1.64868 3.1985 1.64868H16.0407C16.2721 1.64868 16.4941 1.74063 16.6578 1.9043C16.8215 2.06797 16.9134 2.28995 16.9134 2.52141C16.9134 2.75287 16.8215 2.97485 16.6578 3.13852C16.4941 3.30219 16.2721 3.39414 16.0407 3.39414H3.1985C2.96704 3.39414 2.74506 3.48608 2.58139 3.64975C2.41772 3.81342 2.32578 4.0354 2.32578 4.26686V7.75777C2.32578 7.98923 2.23383 8.21122 2.07016 8.37488C1.90649 8.53855 1.68451 8.6305 1.45305 8.6305Z" fill="white"></path> <path d="M20.3651 8.6305C20.1336 8.6305 19.9116 8.53855 19.7479 8.37488C19.5843 8.21122 19.4923 7.98923 19.4923 7.75777V4.26686C19.4923 4.0354 19.4004 3.81342 19.2367 3.64975C19.073 3.48608 18.8511 3.39414 18.6196 3.39414H16.0407C15.8092 3.39414 15.5873 3.30219 15.4236 3.13852C15.2599 2.97485 15.168 2.75287 15.168 2.52141C15.168 2.28995 15.2599 2.06797 15.4236 1.9043C15.5873 1.74063 15.8092 1.64868 16.0407 1.64868H18.6196C19.314 1.64868 19.9799 1.92452 20.4709 2.41553C20.9619 2.90653 21.2378 3.57248 21.2378 4.26686V7.75777C21.2378 7.98923 21.1458 8.21122 20.9822 8.37488C20.8185 8.53855 20.5965 8.6305 20.3651 8.6305Z" fill="white"></path> <path d="M5.77751 4.92137C5.54605 4.92137 5.32407 4.82942 5.1604 4.66575C4.99673 4.50208 4.90479 4.2801 4.90479 4.04864V0.963548C4.90479 0.732086 4.99673 0.510104 5.1604 0.346436C5.32407 0.182768 5.54605 0.0908203 5.77751 0.0908203C6.00897 0.0908203 6.23096 0.182768 6.39462 0.346436C6.55829 0.510104 6.65024 0.732086 6.65024 0.963548V4.04864C6.65024 4.2801 6.55829 4.50208 6.39462 4.66575C6.23096 4.82942 6.00897 4.92137 5.77751 4.92137Z" fill="white"></path> <path d="M16.0407 4.92137C15.8092 4.92137 15.5873 4.82942 15.4236 4.66575C15.2599 4.50208 15.168 4.2801 15.168 4.04864V0.963548C15.168 0.732086 15.2599 0.510104 15.4236 0.346436C15.5873 0.182768 15.8092 0.0908203 16.0407 0.0908203C16.2722 0.0908203 16.4941 0.182768 16.6578 0.346436C16.8215 0.510104 16.9134 0.732086 16.9134 0.963548V4.04864C16.9134 4.2801 16.8215 4.50208 16.6578 4.66575C16.4941 4.82942 16.2722 4.92137 16.0407 4.92137Z" fill="white"></path> <path d="M11.8472 13.3214H9.97087C9.73941 13.3214 9.51743 13.2294 9.35376 13.0658C9.19009 12.9021 9.09814 12.6801 9.09814 12.4487C9.09814 12.2172 9.19009 11.9952 9.35376 11.8315C9.51743 11.6679 9.73941 11.5759 9.97087 11.5759H11.8472C12.0787 11.5759 12.3007 11.6679 12.4643 11.8315C12.628 11.9952 12.72 12.2172 12.72 12.4487C12.72 12.6801 12.628 12.9021 12.4643 13.0658C12.3007 13.2294 12.0787 13.3214 11.8472 13.3214Z" fill="white"></path> <path d="M11.8472 17.2137H9.97087C9.73941 17.2137 9.51743 17.1218 9.35376 16.9581C9.19009 16.7944 9.09814 16.5725 9.09814 16.341C9.09814 16.1095 9.19009 15.8875 9.35376 15.7239C9.51743 15.5602 9.73941 15.4683 9.97087 15.4683H11.8472C12.0787 15.4683 12.3007 15.5602 12.4643 15.7239C12.628 15.8875 12.72 16.1095 12.72 16.341C12.72 16.5725 12.628 16.7944 12.4643 16.9581C12.3007 17.1218 12.0787 17.2137 11.8472 17.2137Z" fill="white"></path> <path d="M16.3504 13.3214H14.4784C14.247 13.3214 14.025 13.2294 13.8613 13.0658C13.6977 12.9021 13.6057 12.6801 13.6057 12.4487C13.6057 12.2172 13.6977 11.9952 13.8613 11.8315C14.025 11.6679 14.247 11.5759 14.4784 11.5759H16.3504C16.5819 11.5759 16.8039 11.6679 16.9675 11.8315C17.1312 11.9952 17.2232 12.2172 17.2232 12.4487C17.2232 12.6801 17.1312 12.9021 16.9675 13.0658C16.8039 13.2294 16.5819 13.3214 16.3504 13.3214Z" fill="white"></path> <path d="M7.3397 17.2137H5.4677C5.23624 17.2137 5.01425 17.1218 4.85059 16.9581C4.68692 16.7944 4.59497 16.5725 4.59497 16.341C4.59497 16.1095 4.68692 15.8875 4.85059 15.7239C5.01425 15.5602 5.23624 15.4683 5.4677 15.4683H7.3397C7.57116 15.4683 7.79314 15.5602 7.95681 15.7239C8.12048 15.8875 8.21243 16.1095 8.21243 16.341C8.21243 16.5725 8.12048 16.7944 7.95681 16.9581C7.79314 17.1218 7.57116 17.2137 7.3397 17.2137Z" fill="white"></path></g> <defs><clipPath id="clip0"><rect width="21.8182" height="21.8182" fill="white" transform="translate(0 0.0908203)"></rect></clipPath></defs></svg>