<svg width="26" height="26" viewBox="0 0 26 26" fill="none" xmlns="http://www.w3.org/2000/svg">
<path d="M16.9208 9.3609L11.0452 15.2969L9.00273 13.5725C8.5119 13.1574 7.75106 13.1923 7.30824 13.6557C6.86541 14.1169 6.90381 14.8278 7.39704 15.244L10.318 17.7098C10.3948 17.775 10.4848 17.8121 10.5724 17.856C10.6144 17.8763 10.6504 17.91 10.6936 17.9258C10.8304 17.9753 10.9756 18 11.1209 18C11.2829 18 11.4449 17.9685 11.5961 17.9078C11.6489 17.8864 11.6885 17.8425 11.7377 17.8133C11.8289 17.7604 11.9237 17.7165 12.0005 17.64L18.6801 10.8907C19.1301 10.4363 19.1025 9.72424 18.6153 9.30128C18.1292 8.8772 17.372 8.9042 16.9208 9.3609Z" fill="#380D75"/>
<path d="M13 0C5.82636 0 0 5.83227 0 13C0 20.1677 5.83227 26 13 26C20.1677 26 26 20.1677 26 13C26 5.83227 20.1677 0 13 0ZM13 23.6364C7.13464 23.6364 2.36364 18.8618 2.36364 13C2.36364 7.13818 7.13818 2.36364 13 2.36364C18.8618 2.36364 23.6364 7.13818 23.6364 13C23.6364 18.8618 18.8618 23.6364 13 23.6364Z" fill="#380D75"/>
</svg>
