<!-- <svg width="249" height="153" viewBox="0 0 249 153" fill="none" xmlns="http://www.w3.org/2000/svg">
<path d="M84.1836 38.1453C84.1836 16.8992 97.6426 4.556 114.821 4.556C122.957 4.556 129.628 8.43796 133.952 12.7151L125.955 21.6877C122.887 18.8518 119.447 17.0852 114.821 17.0852C105.709 17.0852 99.0605 24.8258 99.0605 37.6572C99.0605 50.8372 105.709 58.4849 115.379 58.4849C120.004 58.4849 123.817 56.2069 126.932 52.8131L134.928 61.5997C129.698 67.783 122.515 71.0141 113.891 71.0141C97.968 71.0373 84.1836 59.7634 84.1836 38.1453Z" fill="#461189"/>
<path d="M145.179 57.6946H160.149V17.8988H145.179V5.74161H189.624V17.8988H174.654V57.6714H189.624V69.8286H145.179V57.6946Z" fill="#461189"/>
<path d="M236.602 0H248.713L216.309 85.5889H204.198L236.602 0Z" fill="#461189"/>
<path d="M84.1836 120.131C84.1836 98.8853 97.6426 86.5421 114.821 86.5421C122.957 86.5421 129.628 90.4241 133.952 94.7012L125.955 103.674C122.887 100.838 119.447 99.0713 114.821 99.0713C105.709 99.0713 99.0605 106.812 99.0605 119.643C99.0605 132.823 105.709 140.471 115.379 140.471C120.004 140.471 123.817 138.193 126.932 134.799L134.928 143.586C129.698 149.769 122.515 153 113.891 153C97.968 153.023 84.1836 141.773 84.1836 120.131Z" fill="#461189"/>
<path d="M144.83 87.21H162.543C181.139 87.21 193.366 96.9497 193.366 118.963C193.366 141.023 181.139 151.32 163.357 151.32H144.83V87.21ZM161.729 139.628C171.702 139.628 178.489 134.305 178.489 118.963C178.489 103.644 171.702 98.8791 161.729 98.8791H159.335V139.628H161.729Z" fill="#461189"/>
<path d="M69.0742 42.3063L65.2155 30.3815L57.5446 6.76435C57.1262 5.5556 55.4293 5.5556 55.0341 6.76435L47.3632 30.3815H21.8632L14.169 6.7876C13.7739 5.57885 12.0537 5.57885 11.6586 6.7876L4.01089 30.4047L0.12894 42.3295C-0.219738 43.422 0.152187 44.6076 1.082 45.2817L34.6016 69.6426L68.1212 45.2817C69.051 44.5843 69.4229 43.3988 69.0742 42.3063Z" fill="#461189"/>
</svg> -->

<svg width="462" height="154" viewBox="0 0 462 154" fill="none" aria-labelledby="svgTitleID" xmlns="http://www.w3.org/2000/svg">
<title id="svgTitleID">CI/CD Seeing s Believing</title>
<path d="M267.476 33.456C273.252 33.456 276.672 30.112 276.672 26.084C276.672 22.474 274.43 20.612 271.276 19.358L268.008 17.952C265.766 17.078 263.752 16.356 263.752 14.456C263.752 12.594 265.348 11.53 267.704 11.53C270.212 11.53 271.96 12.328 273.632 13.658L275.912 10.846C273.86 8.908 270.972 7.692 267.932 7.692C262.878 7.692 259.306 10.732 259.306 14.684C259.306 18.332 262.004 20.27 264.626 21.296L268.008 22.778C270.478 23.804 272.188 24.412 272.188 26.616C272.188 28.364 270.63 29.618 267.742 29.618C265.12 29.618 262.65 28.478 260.788 26.806L258.204 29.808C260.674 32.126 263.98 33.456 267.476 33.456ZM291.325 33.456C294.061 33.456 296.645 32.544 298.621 31.252L297.139 28.516C295.467 29.466 293.871 30.074 291.895 30.074C288.437 30.074 285.967 28.402 285.473 24.944H299.191C299.267 24.45 299.381 23.614 299.381 22.74C299.381 17.572 296.303 13.886 290.755 13.886C285.739 13.886 281.103 17.572 281.103 23.652C281.103 29.846 285.625 33.456 291.325 33.456ZM290.869 17.268C293.529 17.268 295.201 18.788 295.505 21.828H285.587C286.157 18.826 288.285 17.268 290.869 17.268ZM314.11 33.456C316.846 33.456 319.43 32.544 321.406 31.252L319.924 28.516C318.252 29.466 316.656 30.074 314.68 30.074C311.222 30.074 308.752 28.402 308.258 24.944H321.976C322.052 24.45 322.166 23.614 322.166 22.74C322.166 17.572 319.088 13.886 313.54 13.886C308.524 13.886 303.888 17.572 303.888 23.652C303.888 29.846 308.41 33.456 314.11 33.456ZM313.654 17.268C316.314 17.268 317.986 18.788 318.29 21.828H308.372C308.942 18.826 311.07 17.268 313.654 17.268ZM335.641 33H340.011V14.342H327.547V17.8H335.641V33ZM337.503 10.922C339.289 10.922 340.619 9.782 340.619 7.996C340.619 6.248 339.289 5.032 337.503 5.032C335.717 5.032 334.387 6.248 334.387 7.996C334.387 9.782 335.717 10.922 337.503 10.922ZM350.257 33H354.665V20.27C356.375 18.522 357.629 17.648 359.453 17.648C361.999 17.648 362.949 19.016 362.949 22.018V33H367.357V21.448C367.357 16.622 365.381 13.886 361.087 13.886C358.237 13.886 356.109 15.368 354.361 17.154H354.209L353.867 14.342H350.257V33ZM380.794 41.246C387.368 41.246 391.548 38.32 391.548 34.634C391.548 31.366 389.04 30.074 384.214 30.074H380.414C378.096 30.074 376.88 29.542 376.88 28.326C376.88 27.566 377.26 27.034 378.02 26.578C379.008 26.92 380.034 27.11 380.87 27.11C385.05 27.11 388.356 24.906 388.356 20.764C388.356 19.548 387.786 18.408 387.14 17.686H391.434V14.342H383.796C382.922 14.038 381.972 13.886 380.87 13.886C376.766 13.886 373.194 16.318 373.194 20.612C373.194 22.816 374.258 24.488 375.588 25.438V25.59C374.22 26.502 373.346 27.87 373.346 29.086C373.346 30.644 374.258 31.594 375.246 32.202V32.354C373.308 33.418 372.282 34.786 372.282 36.268C372.282 39.612 375.664 41.246 380.794 41.246ZM380.87 24.336C378.932 24.336 377.336 22.968 377.336 20.612C377.336 18.332 378.932 16.926 380.87 16.926C382.808 16.926 384.404 18.332 384.404 20.612C384.404 22.968 382.808 24.336 380.87 24.336ZM381.326 38.358C377.868 38.358 375.93 37.37 375.93 35.698C375.93 34.824 376.424 34.026 377.754 33.266C378.514 33.456 379.388 33.532 380.604 33.532H383.568C386.076 33.532 387.33 33.912 387.33 35.356C387.33 36.952 384.974 38.358 381.326 38.358ZM426.782 33H431.152V14.342H418.688V17.8H426.782V33ZM428.644 10.922C430.43 10.922 431.76 9.782 431.76 7.996C431.76 6.248 430.43 5.032 428.644 5.032C426.858 5.032 425.528 6.248 425.528 7.996C425.528 9.782 426.858 10.922 428.644 10.922ZM449.795 33.456C455.457 33.456 458.535 30.872 458.535 27.68C458.535 24.716 456.977 23.12 451.011 21.79C447.553 21.03 446.147 20.574 446.147 19.244C446.147 18.104 447.135 17.192 449.605 17.192C451.809 17.192 453.937 17.876 455.761 19.054L457.775 16.356C455.875 15.102 453.063 13.886 449.985 13.886C444.741 13.886 441.777 16.204 441.777 19.472C441.777 22.284 444.019 24.07 448.997 25.096C453.329 26.008 454.165 26.692 454.165 27.908C454.165 29.162 452.949 30.15 450.365 30.15C447.325 30.15 444.779 29.276 442.537 27.794L440.637 30.568C442.955 32.126 446.299 33.456 449.795 33.456ZM259.268 71H267.628C273.1 71 277.09 68.682 277.09 63.704C277.09 60.322 275.076 58.422 271.504 57.814V57.662C274.43 56.902 275.798 54.622 275.798 52.266C275.798 47.706 272.112 46.148 266.982 46.148H259.268V71ZM263.676 56.37V49.682H266.678C269.908 49.682 271.466 50.518 271.466 52.798C271.466 55.116 270.06 56.37 266.602 56.37H263.676ZM263.676 67.466V59.714H267.172C270.896 59.714 272.758 60.778 272.758 63.4C272.758 66.212 270.82 67.466 267.172 67.466H263.676ZM291.325 71.456C294.061 71.456 296.645 70.544 298.621 69.252L297.139 66.516C295.467 67.466 293.871 68.074 291.895 68.074C288.437 68.074 285.967 66.402 285.473 62.944H299.191C299.267 62.45 299.381 61.614 299.381 60.74C299.381 55.572 296.303 51.886 290.755 51.886C285.739 51.886 281.103 55.572 281.103 61.652C281.103 67.846 285.625 71.456 291.325 71.456ZM290.869 55.268C293.529 55.268 295.201 56.788 295.505 59.828H285.587C286.157 56.826 288.285 55.268 290.869 55.268ZM316.808 71.456C318.974 71.456 320.266 71.076 322.09 70.392L321.064 67.162C319.886 67.656 318.86 67.884 317.872 67.884C316.01 67.884 314.528 66.934 314.528 64.426V44.172H303.926V47.63H310.158V64.198C310.158 68.796 312.476 71.456 316.808 71.456ZM335.641 71H340.011V52.342H327.547V55.8H335.641V71ZM337.503 48.922C339.289 48.922 340.619 47.782 340.619 45.996C340.619 44.248 339.289 43.032 337.503 43.032C335.717 43.032 334.387 44.248 334.387 45.996C334.387 47.782 335.717 48.922 337.503 48.922ZM359.681 71.456C362.417 71.456 365.001 70.544 366.977 69.252L365.495 66.516C363.823 67.466 362.227 68.074 360.251 68.074C356.793 68.074 354.323 66.402 353.829 62.944H367.547C367.623 62.45 367.737 61.614 367.737 60.74C367.737 55.572 364.659 51.886 359.111 51.886C354.095 51.886 349.459 55.572 349.459 61.652C349.459 67.846 353.981 71.456 359.681 71.456ZM359.225 55.268C361.885 55.268 363.557 56.788 363.861 59.828H353.943C354.513 56.826 356.641 55.268 359.225 55.268ZM378.932 71H383.91L391.168 52.342H386.988L383.378 62.032C382.694 63.894 382.124 65.756 381.516 67.656H381.364C380.756 65.756 380.186 63.894 379.502 62.032L375.892 52.342H371.484L378.932 71ZM403.997 71H408.367V52.342H395.903V55.8H403.997V71ZM405.859 48.922C407.645 48.922 408.975 47.782 408.975 45.996C408.975 44.248 407.645 43.032 405.859 43.032C404.073 43.032 402.743 44.248 402.743 45.996C402.743 47.782 404.073 48.922 405.859 48.922ZM418.612 71H423.02V58.27C424.73 56.522 425.984 55.648 427.808 55.648C430.354 55.648 431.304 57.016 431.304 60.018V71H435.712V59.448C435.712 54.622 433.736 51.886 429.442 51.886C426.592 51.886 424.464 53.368 422.716 55.154H422.564L422.222 52.342H418.612V71ZM449.149 79.246C455.723 79.246 459.903 76.32 459.903 72.634C459.903 69.366 457.395 68.074 452.569 68.074H448.769C446.451 68.074 445.235 67.542 445.235 66.326C445.235 65.566 445.615 65.034 446.375 64.578C447.363 64.92 448.389 65.11 449.225 65.11C453.405 65.11 456.711 62.906 456.711 58.764C456.711 57.548 456.141 56.408 455.495 55.686H459.789V52.342H452.151C451.277 52.038 450.327 51.886 449.225 51.886C445.121 51.886 441.549 54.318 441.549 58.612C441.549 60.816 442.613 62.488 443.943 63.438V63.59C442.575 64.502 441.701 65.87 441.701 67.086C441.701 68.644 442.613 69.594 443.601 70.202V70.354C441.663 71.418 440.637 72.786 440.637 74.268C440.637 77.612 444.019 79.246 449.149 79.246ZM449.225 62.336C447.287 62.336 445.691 60.968 445.691 58.612C445.691 56.332 447.287 54.926 449.225 54.926C451.163 54.926 452.759 56.332 452.759 58.612C452.759 60.968 451.163 62.336 449.225 62.336ZM449.681 76.358C446.223 76.358 444.285 75.37 444.285 73.698C444.285 72.824 444.779 72.026 446.109 71.266C446.869 71.456 447.743 71.532 448.959 71.532H451.923C454.431 71.532 455.685 71.912 455.685 73.356C455.685 74.952 453.329 76.358 449.681 76.358Z" fill="#461189"/>
<path d="M84.1836 39.1453C84.1836 17.8992 97.6426 5.556 114.821 5.556C122.957 5.556 129.628 9.43796 133.952 13.7151L125.955 22.6877C122.887 19.8518 119.447 18.0852 114.821 18.0852C105.709 18.0852 99.0605 25.8258 99.0605 38.6572C99.0605 51.8372 105.709 59.4849 115.379 59.4849C120.004 59.4849 123.817 57.2069 126.932 53.8131L134.928 62.5997C129.698 68.783 122.515 72.0141 113.891 72.0141C97.968 72.0373 84.1836 60.7634 84.1836 39.1453Z" fill="#461189"/>
<path d="M145.179 58.6946H160.149V18.8988H145.179V6.74161H189.624V18.8988H174.654V58.6714H189.624V70.8286H145.179V58.6946Z" fill="#461189"/>
<path d="M236.602 1H248.713L216.309 86.5889H204.198L236.602 1Z" fill="#461189"/>
<path d="M84.1836 121.131C84.1836 99.8853 97.6426 87.5421 114.821 87.5421C122.957 87.5421 129.628 91.4241 133.952 95.7012L125.955 104.674C122.887 101.838 119.447 100.071 114.821 100.071C105.709 100.071 99.0605 107.812 99.0605 120.643C99.0605 133.823 105.709 141.471 115.379 141.471C120.004 141.471 123.817 139.193 126.932 135.799L134.928 144.586C129.698 150.769 122.515 154 113.891 154C97.968 154.023 84.1836 142.773 84.1836 121.131Z" fill="#461189"/>
<path d="M144.83 88.21H162.543C181.139 88.21 193.366 97.9497 193.366 119.963C193.366 142.023 181.139 152.32 163.357 152.32H144.83V88.21ZM161.729 140.628C171.702 140.628 178.489 135.305 178.489 119.963C178.489 104.644 171.702 99.8791 161.729 99.8791H159.335V140.628H161.729Z" fill="#461189"/>
<path d="M69.0742 43.3063L65.2155 31.3815L57.5446 7.76435C57.1262 6.5556 55.4293 6.5556 55.0341 7.76435L47.3632 31.3815H21.8632L14.169 7.7876C13.7739 6.57885 12.0537 6.57885 11.6586 7.7876L4.01089 31.4047L0.12894 43.3295C-0.219738 44.422 0.152187 45.6076 1.082 46.2817L34.6016 70.6426L68.1212 46.2817C69.051 45.5843 69.4229 44.3988 69.0742 43.3063Z" fill="#461189"/>
</svg>

