<svg enable-background="new 0 0 69.6 80" viewBox="0 0 69.6 80" xmlns="http://www.w3.org/2000/svg"><path d="m65.7 57.9v-35.8l-30.9-17.9-30.9 17.9v35.8l30.9 17.9z" fill="#e55f46"/><path d="m34.8 77.4c-.3 0-.6-.1-.8-.2l-30.9-17.9c-.5-.3-.8-.8-.8-1.4v-35.8c0-.6.3-1.1.8-1.4l30.9-17.9c.5-.3 1.1-.3 1.6 0l30.9 17.9c.5.3.8.8.8 1.4v35.8c0 .6-.3 1.1-.8 1.4l-30.9 17.9c-.2.1-.5.2-.8.2m-29.3-20.4 29.3 17 29.3-17v-34l-29.3-17-29.3 17z" fill="#eee"/><g fill="#fca326"><path d="m53.4 45.6v-12c1.8-.4 3.2-2 3.2-3.9 0-2.2-1.8-4-4.1-4-1.2 0-2.3.5-3 1.3l-11-6.4c.1-.4.2-.8.2-1.3 0-2.2-1.8-4-4.1-4-2.2 0-4.1 1.8-4.1 4 0 .5.1.9.2 1.3l-10.7 6.4c-.7-.8-1.8-1.3-3-1.3-2.2 0-4.1 1.8-4.1 4 0 1.9 1.4 3.5 3.2 3.9v12.1c-1.8.4-3.2 2-3.2 3.9 0 2.2 1.8 4 4.1 4 1.1 0 2.2-.5 2.9-1.2l11.1 7c-.2.4-.3.9-.3 1.4 0 2.2 1.8 4 4.1 4s4.1-1.8 4.1-4c0-.5-.1-1-.3-1.4l11.1-7c.7.8 1.8 1.2 2.9 1.2 2.2 0 4.1-1.8 4.1-4 0-2-1.4-3.6-3.3-4m1.6-16c0 1-.7 1.9-1.6 2.2-.1 0-.3.1-.4.1-.1 0-.3 0-.4 0s-.3 0-.4 0c-.1 0-.3-.1-.4-.1-.9-.3-1.6-1.2-1.6-2.2 0-.2 0-.3 0-.4s.1-.3.1-.4c0-.1.1-.2.2-.3.1-.1.1-.2.2-.3.1-.1.2-.2.3-.3.4-.3 1-.5 1.5-.5 1.5-.1 2.5.9 2.5 2.2m-20.2-12.7c1.3 0 2.4 1.1 2.4 2.4v.4c0 .1-.1.3-.1.4 0 .1-.1.2-.2.3-.1.1-.1.2-.2.3-.1.1-.2.2-.3.3-.4.3-1 .5-1.5.5s-1.1-.2-1.5-.5c-.1-.1-.2-.2-.3-.3-.1-.1-.2-.2-.2-.3-.1-.1-.1-.2-.2-.3 0-.1-.1-.3-.1-.4s0-.3 0-.4c-.2-1.3.8-2.4 2.2-2.4m-20.3 12.7c0-1.3 1.1-2.4 2.4-2.4.6 0 1.1.2 1.5.5l.3.3c.1.1.2.2.2.3.1.1.1.2.2.3 0 .1.1.3.1.4v.4c0 1-.7 1.9-1.6 2.2-.1 0-.3.1-.4.1-.1 0-.3 0-.4 0s-.3 0-.4 0c-.1 0-.3-.1-.4-.1-.8 0-1.5-.9-1.5-2m2.5 22.3c-1.3 0-2.4-1.1-2.4-2.4 0-1 .7-1.9 1.6-2.2.1 0 .3-.1.4-.1h.4.4c.1 0 .3.1.4.1.9.3 1.6 1.2 1.6 2.2 0 .2 0 .4-.1.5-.1.4-.3.8-.6 1.1-.1.1-.2.2-.3.3-.4.3-.9.5-1.4.5m20.2 8.8c0 1.3-1.1 2.4-2.4 2.4s-2.4-1.1-2.4-2.4c0-.2 0-.4.1-.5.1-.4.3-.8.6-1.1.1-.1.2-.2.3-.3.4-.3.9-.5 1.5-.5s1.1.2 1.5.5l.3.3c.3.3.5.7.6 1.1-.1.1-.1.3-.1.5m.5-2.8c-.7-.8-1.8-1.2-2.9-1.2s-2.2.5-2.9 1.2l-11.1-7c.2-.4.3-.9.3-1.4 0-1.9-1.4-3.5-3.2-3.9v-12c1.8-.4 3.2-2 3.2-3.9 0-.5-.1-.9-.2-1.3l11-6.4c.7.8 1.8 1.3 3 1.3s2.3-.5 3-1.3l11 6.4c-.1.4-.2.8-.2 1.3 0 1.9 1.4 3.5 3.2 3.9v12.1c-1.8.4-3.2 2-3.2 3.9 0 .5.1 1 .3 1.4zm14.9-6c-.6 0-1.1-.2-1.5-.5-.1-.1-.2-.2-.3-.3-.3-.3-.5-.7-.6-1.1 0-.2-.1-.3-.1-.5 0-1 .7-1.9 1.6-2.2.1 0 .3-.1.4-.1h.4.4c.1 0 .3.1.4.1.9.3 1.6 1.2 1.6 2.2.1 1.4-.9 2.4-2.3 2.4"/><path d="m40.6 42.1c-.8-.2-1.8-.3-2.9-1.2-.1-.1-.2-.1-.2-.1-.1 0-.1 0-.2 0-.1.1-1.1.9-2.5.9-1.4 0-2.3-.9-2.5-.9-.1 0-.1 0-.2 0s-.2 0-.3.1c-1.1.8-2.1 1-2.9 1.2-1.1.2-2.1.4-2.5 2.1 0 .1 0 .2.1.3 1.8 2.6 4.1 5.4 8.3 5.5s0 0 0 0c4.2-.1 6.5-2.9 8.3-5.5.1-.1.1-.2.1-.3-.5-1.7-1.5-1.9-2.6-2.1"/><path d="m34.7 39.5c.9 0 1.6-.3 2.3-1 1.2-1.2 1.7-3.3 1.7-4.1 0-3-1.3-4.5-3.9-4.5-1.2 0-2.1.3-2.8 1-.8.8-1.1 2-1.1 3.5 0 1.1.7 5.1 3.8 5.1"/></g></svg>