<svg enable-background="new 0 0 80 80" viewBox="0 0 80 80" xmlns="http://www.w3.org/2000/svg"><g stroke="#606060" stroke-linecap="round" stroke-linejoin="round" stroke-miterlimit="10"><circle cx="51.2" cy="21.9" fill="#fcd9b7" r="3.3" stroke-width="1.3221"/><circle cx="29.4" cy="21.9" fill="#fcd9b7" r="3.3" stroke-width="1.3221"/><path d="m63.1 47s-1.3-7.3-6-7.9l-16.8-2-16.8 2c-4.8.7-6 7.9-6 7.9z" fill="#a6ccc8" stroke-width="1.3254"/><path d="m32.7 38.2c0-1.4 3.4-1.5 7.6-1.5s7.6.1 7.6 1.5-3.4 2.5-7.6 2.5-7.6-1.1-7.6-2.5" fill="#6aa59d" stroke-width="1.3254"/><path d="m36 40v-10.2h8.6v10.2" fill="#fcd9b7" stroke-width="1.3221"/></g><path d="m10.3 74.9c-.4 0-.7-.3-.7-.7v-1.2c0-1.1.9-2.1 2.1-2.1h56.7c1.1 0 2.1.9 2.1 2.1v1.2c0 .4-.3.7-.7.7z" fill="#bfbfbf"/><path d="m68.3 71.6c.8 0 1.4.6 1.4 1.4v1.2h-59.4v-1.2c0-.8.6-1.4 1.4-1.4zm0-1.3h-56.6c-1.5 0-2.7 1.2-2.7 2.7v1.2c0 .7.6 1.3 1.3 1.3h59.5c.7 0 1.3-.6 1.3-1.3v-1.2c0-1.5-1.3-2.7-2.8-2.7z" fill="#606060"/><path d="m14.6 74.7c-.8 0-1.4-.6-1.4-1.4v-27.6c0-1.1.9-2.1 2.1-2.1h49.4c1.1 0 2.1.9 2.1 2.1v27.6c0 .8-.6 1.4-1.4 1.4z" fill="#eaeaea"/><path d="m64.7 44.3c.8 0 1.4.6 1.4 1.4v27.6c0 .4-.3.7-.7.7h-50.8c-.4 0-.7-.3-.7-.7v-27.6c0-.8.6-1.4 1.4-1.4zm0-1.3h-49.4c-1.5 0-2.7 1.2-2.7 2.7v27.6c0 1.1.9 2 2 2h50.8c1.1 0 2-.9 2-2v-27.6c0-1.5-1.2-2.7-2.7-2.7z" fill="#606060"/><circle cx="40" cy="59.2" fill="#bfbfbf" r="3.3"/><path d="m40.7 35.4h-.7c-5.8 0-10.6-4.7-10.6-10.6v-15.8h21.8v15.9c0 5.8-4.7 10.5-10.5 10.5z" style="fill:#fcd9b7;stroke:#606060;stroke-width:1.3221;stroke-linecap:round;stroke-linejoin:round;stroke-miterlimit:10"/><circle cx="36" cy="21.9" fill="#606060" r="1.3"/><circle cx="44.6" cy="21.9" fill="#606060" r="1.3"/><path d="m34.7 18.9h2.6" style="fill:none;stroke:#606060;stroke-width:1.3221;stroke-linecap:round;stroke-linejoin:round;stroke-miterlimit:10"/><path d="m43.3 18.9h2.6" style="fill:none;stroke:#606060;stroke-width:1.3221;stroke-linecap:round;stroke-linejoin:round;stroke-miterlimit:10"/><path d="m45.3 12.6s3.9 1.9 4 8.3l1.3-.3v-11.3z" fill="#ae805e"/><path d="m33.5 14.2c-1 1.3-2.1 3.4-2.1 6.7l-1.3-.7v-5.6z" fill="#ae805e"/><path d="m44.8 29.1c0 1.3-2 2.3-4.5 2.3" style="fill:none;stroke:#606060;stroke-width:1.3221;stroke-linecap:round;stroke-linejoin:round;stroke-miterlimit:10"/><path d="m33.5 14.2c-1 1.3-2.1 3.4-2.1 6.7l-2-.7" style="fill:none;stroke:#606060;stroke-width:1.3254;stroke-linecap:round;stroke-linejoin:round;stroke-miterlimit:10"/><path d="m45.3 12.6s3.9 1.9 4 8.3l2-.7" style="fill:none;stroke:#606060;stroke-width:1.3254;stroke-linecap:round;stroke-linejoin:round;stroke-miterlimit:10"/><path d="m33.8 14c-.8 0-1.6.6-2.4.6-2.9 0-5.3-2.4-5.3-5.3s2.4-5.3 5.3-5.3c1.1 0 2 .3 2.9.8 0 0 9.7 6.4 19.6.5 0 0-4.4 9.4-20.1 8.7z" style="fill:#ae805e;stroke:#606060;stroke-width:1.3254;stroke-linecap:round;stroke-linejoin:round;stroke-miterlimit:10"/><path d="m23.7 59.7-5.4-3.9c-.4-.3-.5-.7-.4-1.2l1.7-5.3c.1-.4.5-.6.8-.6.4 0 .7.2.8.6l1 3.1h2.8l1-3.1c.1-.4.4-.6.8-.6.4 0 .7.2.8.6l1.7 5.3c.1.4 0 .9-.4 1.2z" fill="#fff"/><path d="m23.7 58.9 1.9-5.8h-3.8z" fill="#e04329"/><path d="m23.7 58.9-1.9-5.8h-2.6z" fill="#fa6d26"/><path d="m19.2 53.1-.6 1.8c-.1.2 0 .3.1.4l5 3.6z" fill="#faa126"/><path d="m19.2 53.1h2.6l-1.1-3.5c-.1-.2-.3-.2-.4 0z" fill="#e04329"/><path d="m23.7 58.9 1.9-5.8h2.6z" fill="#fa6d26"/><path d="m28.2 53.1.6 1.8c.1.2 0 .3-.1.4l-5 3.6z" fill="#faa126"/><path d="m28.2 53.1h-2.6l1.1-3.5c.1-.2.3-.2.4 0z" fill="#e04329"/></svg>