<svg enable-background="new 0 0 189 179" viewBox="0 0 189 179" xmlns="http://www.w3.org/2000/svg"><path d="m117.5 44 49.2 8.7c5.4 1 9.1 6.1 8.1 11.6l-10.4 59.1c-1 5.4-6.1 9.1-11.6 8.1l-49.2-8.7c-5.4-1-9.1-6.1-8.1-11.6l10.4-59.1c1-5.5 6.1-9.1 11.6-8.1z" fill="#fff"/><path d="m116.8 47.9c-3.3-.6-6.4 1.6-7 4.9l-10.4 59.1c-.6 3.3 1.6 6.4 4.9 7l49.2 8.7c3.3.6 6.4-1.6 7-4.9l10.4-59.1c.6-3.3-1.6-6.4-4.9-7zm.7-3.9 49.2 8.7c5.4 1 9.1 6.1 8.1 11.6l-10.4 59.1c-1 5.4-6.1 9.1-11.6 8.1l-49.2-8.7c-5.4-1-9.1-6.1-8.1-11.6l10.4-59.1c1-5.5 6.1-9.1 11.6-8.1z" fill="#ddd"/><path clip-rule="evenodd" d="m96.9 30.9 49.8 4.4c5.5.5 9.6 5.3 9.1 10.8l-5.2 59.8c-.5 5.5-5.3 9.6-10.8 9.1l-49.8-4.4c-5.5-.5-9.6-5.3-9.1-10.8l5.2-59.8c.5-5.5 5.3-9.6 10.8-9.1z" fill="#fff" fill-rule="evenodd"/><path d="m96.6 34.9c-3.3-.3-6.2 2.2-6.5 5.5l-5.2 59.8c-.3 3.3 2.2 6.2 5.5 6.5l49.8 4.4c3.3.3 6.2-2.2 6.5-5.5l5.2-59.8c.3-3.3-2.2-6.2-5.5-6.5zm.3-4 49.8 4.4c5.5.5 9.6 5.3 9.1 10.8l-5.2 59.8c-.5 5.5-5.3 9.6-10.8 9.1l-49.8-4.4c-5.5-.5-9.6-5.3-9.1-10.8l5.2-59.8c.5-5.5 5.3-9.6 10.8-9.1z" fill="#ddd"/><g clip-rule="evenodd" fill-rule="evenodd"><path d="m101.3 49.3 4 .3c1.1.1 1.9 1.1 1.8 2.2s-1.1 1.9-2.2 1.8l-4-.3c-1.1-.1-1.9-1.1-1.8-2.2.2-1.1 1.1-1.9 2.2-1.8z" fill="#fc6d26"/><path d="m117.5 70.8 4 .3c1.1.1 1.9 1.1 1.8 2.2s-1.1 1.9-2.2 1.8l-4-.3c-1.1-.1-1.9-1.1-1.8-2.2.2-1.1 1.1-1.9 2.2-1.8z" fill="#e1dbf1"/><path d="m129.6 81.9 4 .3c1.1.1 1.9 1.1 1.8 2.2s-1.1 1.9-2.2 1.8l-4-.3c-1.1-.1-1.9-1.1-1.8-2.2s1.1-1.9 2.2-1.8z" fill="#fee1d3"/><path d="m129.5 71.9 4 .3c1.1.1 1.9 1.1 1.8 2.2s-1.1 1.9-2.2 1.8l-4-.3c-1.1-.1-1.9-1.1-1.8-2.2s1.1-1.9 2.2-1.8z" fill="#fef0e8"/><path d="m113.3 50.4 8 .7c1.1.1 1.9 1.1 1.8 2.2s-1.1 1.9-2.2 1.8l-8-.7c-1.1-.1-1.9-1.1-1.8-2.2s1.1-1.9 2.2-1.8z" fill="#efedf8"/><path d="m99.7 79.3 2 .2c1.1.1 1.9 1.1 1.8 2.2s-1.1 1.9-2.2 1.8l-2-.2c-1.1-.1-1.9-1.1-1.8-2.2.2-1.1 1.1-1.9 2.2-1.8z" fill="#fef0e8"/><path d="m109.7 80.2 2 .2c1.1.1 1.9 1.1 1.8 2.2s-1.1 1.9-2.2 1.8l-2-.2c-1.1-.1-1.9-1.1-1.8-2.2s1.1-1.9 2.2-1.8z" fill="#fc6d26"/><path d="m119.6 81 2 .2c1.1.1 1.9 1.1 1.8 2.2s-1.1 1.9-2.2 1.8l-2-.2c-1.1-.1-1.9-1.1-1.8-2.2.2-1 1.1-1.9 2.2-1.8z" fill="#eee"/><path d="m100.5 59.3 8 .7c1.1.1 1.9 1.1 1.8 2.2s-1.1 1.9-2.2 1.8l-8-.7c-1.1-.1-1.9-1.1-1.8-2.2s1.1-1.9 2.2-1.8z" fill="#eee"/><path d="m127.7 91.8 8 .7c1.1.1 1.9 1.1 1.8 2.2s-1.1 1.9-2.2 1.8l-8-.7c-1.1-.1-1.9-1.1-1.8-2.2.2-1.1 1.1-1.9 2.2-1.8z" fill="#6b4fbb"/><path d="m116.4 60.7 21.9 1.9c1.1.1 1.9 1.1 1.8 2.2s-1.1 1.9-2.2 1.8l-21.9-1.9c-1.1-.1-1.9-1.1-1.8-2.2s1.1-1.9 2.2-1.8z" fill="#c3b8e3"/><path d="m98.9 89.3 21.9 1.9c1.1.1 1.9 1.1 1.8 2.2s-1.1 1.9-2.2 1.8l-21.9-1.9c-1.1-.1-1.9-1.1-1.8-2.2s1.1-1.9 2.2-1.8z" fill="#fee1d3"/><path d="m129.2 51.8 10 .9c1.1.1 1.9 1.1 1.8 2.2s-1.1 1.9-2.2 1.8l-10-.9c-1.1-.1-1.9-1.1-1.8-2.2.2-1.1 1.1-1.9 2.2-1.8z" fill="#e1dbf1"/><path d="m99.6 69.2 10 .9c1.1.1 1.9 1.1 1.8 2.2s-1.1 1.9-2.2 1.8l-10-.9c-1.1-.1-1.9-1.1-1.8-2.2.1-1 1.1-1.8 2.2-1.8z" fill="#6b4fbb"/></g><path d="m129 179h24c20-.5 36-16.9 36-37 0-20.4-16.6-37-37-37-1 0-2 0-3 .1-5-14.6-18.8-25.1-35-25.1-5.3 0-10.5 1.1-15.3 3.3-6.7-9.8-17.9-16.3-30.7-16.3-20.4 0-37 16.6-37 37 0 .7 0 1.4.1 2.1-16.2 4-28.1 18.5-28.1 35.9 0 20.4 16.6 37 37 37h1z" fill="#fff"/><path clip-rule="evenodd" d="m129 177h23.9c18.9-.5 34.1-16 34.1-35 0-19.3-15.7-35-35-35-.9 0-1.9 0-2.8.1l-1.6.1-.5-1.5c-4.7-14-18-23.7-33.1-23.7-5 0-9.9 1.1-14.5 3.1l-1.5.7-1-1.4c-6.4-9.5-17.2-15.4-29-15.4-19.3 0-35 15.7-35 35 0 .7 0 1.3.1 2l.1 1.7-1.6.4c-15.5 3.8-26.6 17.7-26.6 33.9 0 19.3 15.7 35 35 35h1z" fill="#fff" fill-rule="evenodd"/><path d="m152 105c20.4 0 37 16.6 37 37 0 20-16 36.5-36.1 37h-23.9-88c-.4 0-.7 0-1 0-20.4 0-37-16.6-37-37 0-17 11.6-31.8 28.1-35.9 0-.7-.1-1.4-.1-2.1 0-20.4 16.6-37 37-37 12.4 0 23.8 6.1 30.7 16.3 4.8-2.2 10-3.3 15.3-3.3 15.9 0 30 10.1 35 25.1 1-.1 2-.1 3-.1zm.9 70c17.9-.5 32.1-15.1 32.1-33 0-18.2-14.8-33-33-33-.9 0-1.8 0-2.6.1l-1.6.1c-.9.1-1.8-.5-2.1-1.4l-.5-1.5c-4.5-13.3-17-22.3-31.2-22.3-4.7 0-9.4 1-13.7 3l-1.5.7c-.9.4-1.9.1-2.5-.7l-.9-1.4c-6.2-9.1-16.4-14.6-27.4-14.6-18.2 0-33 14.8-33 33 0 .6 0 1.2.1 1.9l.1 1.7c.1 1-.6 1.8-1.5 2.1l-1.7.3c-14.7 3.6-25 16.8-25 32 0 18.2 14.8 33 33 33h1 88.1z" fill="#ddd"/><path d="m70.3 104.4c2-.9 4.2-1.5 6.4-1.7l.5-1.7c.8-2.9 3.8-4.7 6.7-3.9l2.9.8c1.4.4 2.6 1.3 3.3 2.6s.9 2.8.5 4.2l-.5 1.7c1.8 1.3 3.4 2.9 4.7 4.7l1.7-.5c2.9-.8 5.9 1 6.7 3.9l.8 2.9c.4 1.4.2 2.9-.6 4.2-.7 1.3-1.9 2.2-3.3 2.6l-1.7.5c-.1 1.1-.3 2.2-.6 3.3s-.7 2.1-1.1 3.1l1.2 1.2c2.1 2.1 2.1 5.6 0 7.8l-2.1 2.1c-1 1-2.4 1.6-3.9 1.6s-2.9-.6-3.9-1.6l-1.2-1.2c-2 .9-4.2 1.5-6.4 1.7l-.5 1.7c-.8 2.9-3.8 4.7-6.7 3.9l-2.9-.8c-1.4-.4-2.6-1.3-3.3-2.6s-.9-2.8-.5-4.2l.5-1.7c-1.8-1.3-3.4-2.9-4.7-4.7l-1.7.5c-2.9.8-5.9-1-6.7-3.9l-.8-2.9c-.4-1.4-.2-2.9.6-4.2.7-1.3 1.9-2.2 3.3-2.6l1.7-.5c.1-1.1.3-2.2.6-3.3s.7-2.1 1.1-3.1l-1.2-1.2c-2.1-2.1-2.1-5.6 0-7.8l2.1-2.1c1-1 2.4-1.6 3.9-1.6s2.9.6 3.9 1.6z" fill="#fff"/><path d="m76.7 102.7.5-1.7c.8-2.9 3.8-4.7 6.7-3.9l2.9.8c2.9.8 4.7 3.8 3.9 6.7l-.5 1.7c1.8 1.3 3.4 2.9 4.7 4.7l1.7-.5c2.9-.8 5.9 1 6.7 3.9l.8 2.9c.4 1.4.2 2.9-.6 4.2s-1.9 2.2-3.3 2.6l-1.7.5c-.1 1.1-.3 2.2-.6 3.3s-.7 2.1-1.1 3.1l1.2 1.2c2.1 2.1 2.1 5.6 0 7.8l-2.1 2.1c-1 1-2.4 1.6-3.9 1.6s-2.9-.6-3.9-1.6l-1.2-1.2c-2 .9-4.2 1.5-6.4 1.7l-.5 1.7c-.8 2.9-3.8 4.7-6.7 3.9l-2.9-.8c-2.9-.8-4.7-3.8-3.9-6.7l.5-1.7c-1.8-1.3-3.4-2.9-4.7-4.7l-1.7.5c-2.9.8-5.9-1-6.7-3.9l-.8-2.9c-.4-1.4-.2-2.9.6-4.2s1.9-2.2 3.3-2.6l1.7-.5c.1-1.1.3-2.2.6-3.3s.7-2.1 1.1-3.1l-1.2-1.2c-2.1-2.1-2.1-5.6 0-7.8l2.1-2.1c1-1 2.4-1.6 3.9-1.6s2.9.6 3.9 1.6l1.2 1.2c2-.9 4.2-1.5 6.4-1.7zm-6 5.9c-.8.3-1.7.2-2.2-.4l-2.2-2.2c-.3-.3-.7-.4-1.1-.4s-.8.2-1.1.4l-2.1 2.1c-.6.6-.6 1.5 0 2.1l2.2 2.2c.6.6.8 1.5.4 2.2l-.6 1.3c-.4.8-.7 1.6-.9 2.5s-.4 1.7-.5 2.6l-.1 1.4c-.1.8-.7 1.5-1.5 1.7l-3 .8c-.4.1-.7.4-.9.7s-.3.8-.2 1.1l.8 2.9c.2.8 1 1.3 1.8 1.1l3-.8c.8-.2 1.7.1 2.1.8l.8 1.1c1 1.4 2.3 2.7 3.7 3.7l1.1.8c.7.5 1 1.3.8 2.1l-.8 3c-.2.8.3 1.6 1.1 1.8l2.9.8c.8.2 1.6-.3 1.8-1.1l.8-3c.2-.8.9-1.4 1.7-1.5l1.4-.1c1.8-.2 3.5-.6 5.1-1.4l1.3-.6c.8-.3 1.7-.2 2.2.4l2.2 2.2c.3.3.7.4 1.1.4s.8-.2 1.1-.4l2.1-2.1c.6-.6.6-1.5 0-2.1l-2.2-2.2c-.6-.6-.8-1.5-.4-2.2l.6-1.3c.4-.8.7-1.6.9-2.5s.4-1.7.5-2.6l.1-1.4c.1-.8.7-1.5 1.5-1.7l3-.8c.4-.1.7-.4.9-.7s.3-.8.2-1.1l-.8-2.9c-.2-.8-1-1.3-1.8-1.1l-3 .8c-.8.2-1.7-.1-2.1-.8l-.8-1.1c-1-1.4-2.3-2.7-3.7-3.7l-1.1-.8c-.7-.5-1-1.3-.8-2.1l.8-3c.2-.8-.3-1.6-1.1-1.8l-2.9-.8c-.8-.2-1.6.3-1.8 1.1l-.8 3c-.2.8-.9 1.4-1.7 1.5l-1.4.1c-1.8.2-3.5.6-5.1 1.4-.1 0-.5.2-1.3.6z" fill="#9388ba"/><path d="m79.1 122.7c3.8 2.2 5.1 7.1 2.9 10.9s-7.1 5.1-10.9 2.9-5.1-7.1-2.9-10.9 7-5.1 10.9-2.9z" fill="#fff"/><path d="m74.1 130c-3.8-2.2-5.1-7.1-2.9-10.9s7.1-5.1 10.9-2.9 5.1 7.1 2.9 10.9-7.1 5.1-10.9 2.9zm2-3.5c1.9 1.1 4.4.4 5.5-1.5s.4-4.4-1.5-5.5-4.4-.4-5.5 1.5-.4 4.4 1.5 5.5z" fill="#6b4fbb"/><path d="m112.8 130.8c1.6-.7 3.3-1.2 5.1-1.4l.4-1.4c.6-2.4 3.1-3.8 5.4-3.2l2.3.6c1.1.3 2.1 1 2.7 2.1.6 1 .7 2.2.4 3.4l-.4 1.4c1.5 1 2.7 2.3 3.7 3.8l1.4-.4c2.3-.6 4.8.8 5.4 3.1l.6 2.3c.3 1.1.1 2.3-.4 3.4s-1.5 1.8-2.7 2.1l-1.4.4c-.1.9-.2 1.8-.5 2.6-.2.9-.5 1.7-.9 2.5l1 1c1.7 1.7 1.7 4.5 0 6.3l-1.7 1.7c-.8.8-1.9 1.3-3.1 1.3s-2.3-.5-3.1-1.3l-1-1c-1.6.7-3.3 1.2-5.1 1.4l-.4 1.4c-.6 2.4-3.1 3.8-5.4 3.2l-2.3-.6c-1.1-.3-2.1-1-2.7-2.1-.6-1-.7-2.2-.4-3.4l.4-1.4c-1.4-1-2.7-2.3-3.7-3.8l-1.4.4c-2.3.6-4.8-.8-5.4-3.1l-.6-2.3c-.3-1.1-.1-2.3.4-3.4.6-1 1.6-1.8 2.7-2.1l1.4-.4c.1-.9.2-1.8.5-2.6.2-.9.5-1.7.9-2.5l-1-1c-1.7-1.7-1.7-4.5 0-6.3l1.7-1.7c.8-.8 1.9-1.3 3.1-1.3s2.3.5 3.1 1.3z" fill="#fff"/><path d="m117.6 129 .3-1.1c.7-2.6 3.3-4.1 5.9-3.4l2.3.6c2.6.7 4.1 3.3 3.4 5.9l-.3 1.1c1.3 1 2.5 2.1 3.4 3.5l1.1-.3c2.6-.7 5.2.8 5.9 3.4l.6 2.3c.3 1.2.1 2.5-.5 3.6s-1.7 1.9-2.9 2.2l-1.1.3c-.1.8-.2 1.6-.5 2.4s-.5 1.6-.8 2.3l.8.8c1.9 1.9 1.9 4.9 0 6.8l-1.7 1.7c-.9.9-2.1 1.4-3.4 1.4s-2.5-.5-3.4-1.4l-.8-.8c-1.5.7-3.1 1.1-4.7 1.3l-.3 1.1c-.7 2.6-3.3 4.1-5.9 3.4l-2.3-.6c-2.6-.7-4.1-3.3-3.4-5.9l.3-1.1c-1.3-1-2.5-2.1-3.4-3.5l-1.1.3c-2.6.7-5.2-.8-5.9-3.4l-.6-2.3c-.3-1.2-.1-2.5.5-3.6s1.7-1.9 2.9-2.2l1.1-.3c.1-.8.2-1.6.5-2.4.2-.8.5-1.6.8-2.3l-.8-.8c-1.9-1.9-1.9-4.9 0-6.8l1.7-1.7c.9-.9 2.1-1.4 3.4-1.4s2.5.5 3.4 1.4l.8.8c1.5-.6 3.1-1.1 4.7-1.3zm-4.3 5.5c-.8.4-1.7.2-2.3-.4l-1.8-1.8c-.1-.1-.3-.2-.6-.2-.2 0-.4.1-.6.2l-1.7 1.7c-.3.3-.3.9 0 1.2l1.8 1.8c.6.6.7 1.5.4 2.2l-.5 1c-.3.6-.5 1.3-.7 2s-.3 1.4-.4 2.1l-.1 1.1c-.1.8-.7 1.5-1.5 1.7l-2.4.7c-.2.1-.4.2-.5.4s-.1.4-.1.6l.6 2.3c.1.4.5.7 1 .6l2.4-.7c.8-.2 1.7.1 2.2.8l.6.9c.8 1.1 1.8 2.1 2.9 2.9l.9.6c.7.5 1 1.3.8 2.1l-.7 2.5c-.1.4.1.9.6 1l2.3.6c.4.1.9-.1 1-.6l.7-2.5c.2-.8.9-1.4 1.7-1.5l1.1-.1c1.4-.1 2.7-.5 4-1.1l1-.5c.8-.4 1.7-.2 2.3.4l1.8 1.8c.1.1.3.2.6.2.2 0 .4-.1.6-.2l1.7-1.7c.3-.3.3-.9 0-1.2l-1.8-1.8c-.6-.6-.7-1.5-.4-2.2l.5-1c.3-.6.5-1.3.7-2s.3-1.4.4-2.1l.1-1.1c.1-.8.7-1.5 1.5-1.7l2.4-.7c.2-.1.4-.2.5-.4s.1-.4.1-.6l-.6-2.3c-.1-.4-.5-.7-1-.6l-2.4.7c-.8.2-1.7-.1-2.2-.8l-.6-.9c-.8-1.1-1.8-2.1-2.9-2.9l-.9-.6c-.7-.5-1-1.3-.8-2.1l.7-2.5c.1-.4-.1-.9-.6-1l-2.3-.6c-.4-.1-.9.1-1 .6l-.7 2.5c-.2.8-.9 1.4-1.7 1.5l-1.1.1c-1.4.1-2.7.5-4 1.1 0 .1-.3.2-1 .5z" fill="#f99c73"/><path d="m119.8 145.6c3.1 1.8 4.1 5.7 2.3 8.8s-5.7 4.2-8.8 2.4-4.1-5.7-2.3-8.8c1.9-3.1 5.8-4.2 8.8-2.4z" fill="#fff"/><path d="m115.9 151.4c-3.1-1.8-4.1-5.7-2.3-8.8s5.7-4.2 8.8-2.4 4.1 5.7 2.3 8.8-5.8 4.2-8.8 2.4zm1.6-2.7c1.5.9 3.5.3 4.4-1.2s.4-3.5-1.1-4.4-3.5-.3-4.4 1.2c-1 1.5-.5 3.5 1.1 4.4z" fill="#fc6d26"/><path clip-rule="evenodd" d="m63.7 34.3 4.2 9.6c.4 1 0 2.2-1 2.6-.2.1-.4.1-.6.2l-8.5.9c-5.1 6.3-13 10.4-21.8 10.4-15.5 0-28-12.5-28-28s12.5-28 28-28 28 12.5 28 28c0 1.4-.1 2.9-.3 4.3z" fill="#fff" fill-rule="evenodd"/><path d="m69.7 43c.9 2 0 4.4-2.1 5.3-.4.2-.8.3-1.2.3l-7.7.8c-5.5 6.7-13.8 10.6-22.7 10.6-16.6 0-30-13.4-30-30s13.4-30 30-30 30 13.4 30 30c0 1.3-.1 2.7-.3 4zm-8-9c.2-1.3.3-2.6.3-4 0-14.4-11.6-26-26-26s-26 11.6-26 26 11.6 26 26 26c8 0 15.3-3.6 20.3-9.7l.5-.6 9.3-1-4.2-9.6-.2-.5z" fill="#ddd"/><path d="m36.5 44.5c-7.7 0-14-6.3-14-14s6.3-14 14-14 14 6.3 14 14-6.3 14-14 14zm0-3c6.1 0 11-4.9 11-11s-4.9-11-11-11-11 4.9-11 11 4.9 11 11 11z" fill="#31af64"/><path d="m35.2 31.8-1.9-1.9c-.6-.6-1.5-.6-2.1 0-.3.3-.4.6-.4 1s.2.8.4 1l2.9 2.9c.5.5 1.4.5 2 0l5.8-5.8c.3-.3.4-.6.4-1s-.1-.7-.4-1-.6-.4-1-.4-.7.1-1 .4z" fill="#31af64"/></svg>