<svg id="Layer_1" data-name="Layer 1" xmlns="http://www.w3.org/2000/svg" viewBox="0 0 100 100"><path d="M73.37,46.34l-4-1.45a3.69,3.69,0,0,1-2.06-5l1.79-3.84a24,24,0,0,0-5.18-5.18l-3.84,1.79a3.68,3.68,0,0,1-5-2.06l-1.45-4a24,24,0,0,0-7.32,0l-1.45,4a3.69,3.69,0,0,1-5,2.06l-3.84-1.79a24,24,0,0,0-5.18,5.18l1.79,3.84a3.68,3.68,0,0,1-2.06,5l-4,1.45a23.64,23.64,0,0,0,0,7.32l4,1.45a3.66,3.66,0,0,1,2.06,5l-1.79,3.84a24,24,0,0,0,5.18,5.18l3.84-1.79a3.68,3.68,0,0,1,5,2.06l1.45,4a24,24,0,0,0,7.32,0l1.45-4a3.69,3.69,0,0,1,5-2.06l3.84,1.79a24,24,0,0,0,5.18-5.18l-1.79-3.84a3.68,3.68,0,0,1,2.06-5l4-1.45A23.64,23.64,0,0,0,73.37,46.34ZM50,57.6A7.6,7.6,0,1,1,57.6,50,7.6,7.6,0,0,1,50,57.6Z" fill="#fca121"/><path d="M50,75.19a25.51,25.51,0,0,1-3.9-.3,2,2,0,0,1-1.57-1.29l-1.42-3.91a1.57,1.57,0,0,0-.88-.92,1.58,1.58,0,0,0-1.28,0l-3.76,1.75a2,2,0,0,1-2-.19,25.8,25.8,0,0,1-5.52-5.52,2,2,0,0,1-.19-2l1.76-3.76a1.63,1.63,0,0,0,0-1.28,1.57,1.57,0,0,0-.92-.88L26.4,55.47a2,2,0,0,1-1.29-1.57,25.5,25.5,0,0,1,0-7.8,2,2,0,0,1,1.29-1.57l3.91-1.42a1.59,1.59,0,0,0,.92-.88,2,2,0,1,1,3.7,1.53,5.62,5.62,0,0,1-3.25,3.11l-2.77,1a21.66,21.66,0,0,0,0,4.26l2.77,1a5.58,5.58,0,0,1,3.15,7.61L33.59,63.4a21.41,21.41,0,0,0,3,3l2.66-1.24a5.58,5.58,0,0,1,7.61,3.15l1,2.77a21.4,21.4,0,0,0,5.42-.15,2,2,0,1,1,.61,4A25.51,25.51,0,0,1,50,75.19Zm13.66-4.45a2,2,0,0,1-.85-.19l-3.76-1.76a1.59,1.59,0,0,0-1.28,0,2,2,0,0,1-1.55-3.69,5.6,5.6,0,0,1,4.52.09l2.66,1.24a21.41,21.41,0,0,0,3-3l-1.24-2.66a5.58,5.58,0,0,1,3.15-7.61l2.77-1a21.66,21.66,0,0,0,0-4.26l-2.77-1a5.58,5.58,0,0,1-3.15-7.61l1.24-2.66a21.41,21.41,0,0,0-3-3l-2.66,1.24a5.58,5.58,0,0,1-7.61-3.15l-1-2.77a21.66,21.66,0,0,0-4.26,0l-1,2.77a5.58,5.58,0,0,1-7.61,3.15L36.6,33.59A21.09,21.09,0,0,0,33,37.39,2,2,0,0,1,29.76,35a25.23,25.23,0,0,1,5.4-5.37,2,2,0,0,1,2-.19L41,31.21a1.63,1.63,0,0,0,1.28,0,1.57,1.57,0,0,0,.88-.92l1.42-3.91a2,2,0,0,1,1.57-1.29,25.5,25.5,0,0,1,7.8,0,2,2,0,0,1,1.57,1.29l1.42,3.91a1.57,1.57,0,0,0,.88.92,1.63,1.63,0,0,0,1.28,0l3.76-1.76a2,2,0,0,1,2,.19,25.8,25.8,0,0,1,5.52,5.52,2,2,0,0,1,.19,2L68.79,41a1.63,1.63,0,0,0,0,1.28,1.57,1.57,0,0,0,.92.88l3.91,1.42a2,2,0,0,1,1.29,1.57,25.5,25.5,0,0,1,0,7.8,2,2,0,0,1-1.29,1.57l-3.91,1.42a1.57,1.57,0,0,0-.92.88,1.63,1.63,0,0,0,0,1.28l1.76,3.76a2,2,0,0,1-.19,2,25.8,25.8,0,0,1-5.52,5.52A2,2,0,0,1,63.66,70.74ZM50,59.6A9.6,9.6,0,1,1,59.6,50,9.62,9.62,0,0,1,50,59.6Zm0-15.2A5.6,5.6,0,1,0,55.6,50,5.6,5.6,0,0,0,50,44.4Z" fill="#380d75"/><path d="M67.74,88.67a2,2,0,0,1-.87-3.8A39,39,0,0,0,88.73,50c0-.65,0-1.29,0-1.93a2,2,0,0,1,4-.2c0,.71,0,1.42,0,2.13A43,43,0,0,1,68.61,88.47,1.94,1.94,0,0,1,67.74,88.67Z" fill="#380d75"/><path d="M87.33,35.67a2,2,0,0,1-1.84-1.19A38.74,38.74,0,0,0,50,11.27a2,2,0,0,1,0-4,42.77,42.77,0,0,1,39.16,25.6,2,2,0,0,1-1,2.63A1.92,1.92,0,0,1,87.33,35.67Z" fill="#380d75"/><path d="M9.36,54.69a2,2,0,0,1-2-1.87c-.06-.93-.09-1.88-.09-2.82A42.45,42.45,0,0,1,31.34,11.55a2,2,0,1,1,1.75,3.6A38.47,38.47,0,0,0,11.27,50c0,.85,0,1.71.08,2.56a2,2,0,0,1-1.86,2.12Z" fill="#380d75"/><path d="M50,92.73A42.56,42.56,0,0,1,10.41,66.1a2,2,0,1,1,3.7-1.51A38.61,38.61,0,0,0,50,88.73a2,2,0,1,1,0,4Z" fill="#380d75"/><path d="M53.64,18.54A2,2,0,0,1,52.22,18L45,10.68a2,2,0,0,1,0-2.82L52.22.59a2,2,0,0,1,2.83,2.82L49.19,9.27l5.86,5.86a2,2,0,0,1,0,2.82A2,2,0,0,1,53.64,18.54Z" fill="#380d75"/><path d="M46.36,100A2,2,0,0,1,45,96.59l5.86-5.86L45,84.87a2,2,0,0,1,2.83-2.82l7.27,7.27a2,2,0,0,1,0,2.82l-7.27,7.27A2,2,0,0,1,46.36,100Z" fill="#380d75"/><path d="M98,55.64a2,2,0,0,1-1.41-.59l-5.86-5.86-5.86,5.86a2,2,0,0,1-2.82-2.83L89.32,45a2,2,0,0,1,2.82,0l7.27,7.27A2,2,0,0,1,98,55.64Z" fill="#380d75"/><path d="M9.27,55.64a2,2,0,0,1-1.41-.59L.59,47.78A2,2,0,1,1,3.41,45l5.86,5.86L15.13,45A2,2,0,0,1,18,47.78l-7.27,7.27A2,2,0,0,1,9.27,55.64Z" fill="#380d75"/></svg>