<svg width="16" height="16" viewBox="0 0 16 16" fill="none" xmlns="http://www.w3.org/2000/svg">
<path fill-rule="evenodd" clip-rule="evenodd" d="M7 0C7.55228 0 8 0.447715 8 1H9C9.55228 1 10 1.44772 10 2H11C11.5523 2 12 2.44772 12 3V7H10V5H4V12H6V14H3C2.44772 14 2 13.5523 2 13V3C2 2.44772 2.44772 2 3 2H4C4 1.44772 4.44772 1 5 1H6C6 0.447715 6.44772 0 7 0ZM7 4C7.55228 4 8 3.55228 8 3C8 2.44772 7.55228 2 7 2C6.44772 2 6 2.44772 6 3C6 3.55228 6.44772 4 7 4Z" fill="#7D2BD9"/>
<path fill-rule="evenodd" clip-rule="evenodd" d="M9 10V14H12V10H9ZM8 8H13C13.5523 8 14 8.44771 14 9V15C14 15.5523 13.5523 16 13 16H8C7.44772 16 7 15.5523 7 15V9C7 8.44771 7.44772 8 8 8Z" fill="#7D2BD9"/>
</svg>
