<svg width="35" height="35" viewBox="0 0 35 35" fill="none" xmlns="http://www.w3.org/2000/svg">
<path d="M17.5 35C27.165 35 35 27.165 35 17.5C35 7.83502 27.165 0 17.5 0C7.83502 0 0 7.83502 0 17.5C0 27.165 7.83502 35 17.5 35Z" fill="currentColor"/>
<path fill-rule="evenodd" clip-rule="evenodd" d="M17.2 11.6L11 17.9C10.7 18.2 10.9 18.8 11.4 18.8H14.3C14.4 18.8 14.5 18.9 14.5 19V35H20.8V19C20.8 18.9 20.9 18.8 21 18.8H23.9C24.3 18.8 24.6 18.3 24.3 17.9L18 11.6C17.8 11.4 17.4 11.4 17.2 11.6Z" fill="white"/>
</svg>
