<svg width="35" height="35" viewBox="0 0 35 35" fill="none" xmlns="http://www.w3.org/2000/svg">
<g clip-path="url(#clip0)">
<path d="M17.5 35C27.165 35 35 27.165 35 17.5C35 7.83502 27.165 0 17.5 0C7.83502 0 0 7.83502 0 17.5C0 27.165 7.83502 35 17.5 35Z" fill="currentColor"/>
<path d="M5.95 30.2167C8.98333 27.5334 13.0667 25.9 17.5 25.9C21.9333 25.9 25.9 27.5334 29.05 30.2167" fill="white"/>
<path d="M5.95 30.2167C8.98333 27.5334 13.0667 25.9 17.5 25.9C21.9333 25.9 25.9 27.5334 29.05 30.2167" stroke="white" stroke-width="2" stroke-miterlimit="10" stroke-linecap="round" stroke-linejoin="round"/>
<path d="M17.5 19.4833C20.5928 19.4833 23.1 16.9761 23.1 13.8833C23.1 10.7905 20.5928 8.28333 17.5 8.28333C14.4072 8.28333 11.9 10.7905 11.9 13.8833C11.9 16.9761 14.4072 19.4833 17.5 19.4833Z" fill="white"/>
<path d="M29.05 30.2167H5.95V35H29.05V30.2167Z" fill="white"/>
</g>
<defs>
<clipPath id="clip0">
<rect width="35" height="35" fill="white"/>
</clipPath>
</defs>
</svg>
