<svg xmlns="http://www.w3.org/2000/svg" viewBox="0 0 160 160" enable-background="new 0 0 160 160"><path d="M8,156c-2.206,0-4-1.794-4-4V8c0-2.206,1.794-4,4-4h144c2.206,0,4,1.794,4,4v144c0,2.206-1.794,4-4,4H8z" fill="#393568"/><path d="m152 8v144h-144v-144h144m0-8h-144c-4.418 0-8 3.582-8 8v144c0 4.418 3.582 8 8 8h144c4.418 0 8-3.582 8-8v-144c0-4.418-3.582-8-8-8z" fill="#eee"/><g fill="#6b4fbb"><path d="m53.44 27.17l-12.192 12.192c-1.554 1.552-1.554 4.074 0 5.627 1.554 1.554 4.072 1.554 5.627 0l5.399-5.399v18.826c0 1 .377 1.964 1.055 2.699l46.682 50.574v18.337c0 2.197 1.782 3.979 3.979 3.979 2.197 0 3.979-1.782 3.979-3.979v-19.892c0-1-.377-1.964-1.055-2.699l-46.682-50.575v-17.272l5.401 5.401c1.554 1.553 4.074 1.553 5.627-.001.777-.777 1.166-1.795 1.166-2.813s-.389-2.037-1.166-2.814l-12.194-12.192c-1.554-1.553-4.072-1.553-5.626.001"/><path d="m69.17 90l-16.09 17.426c-.678.734-1.055 1.698-1.055 2.699v19.892c0 2.197 1.782 3.979 3.979 3.979 2.197 0 3.979-1.782 3.979-3.979v-18.337l14.597-15.814-5.415-5.866"/><path d="m118.75 39.36l-12.194-12.192c-1.554-1.553-4.072-1.553-5.627.001l-12.191 12.191c-1.554 1.552-1.554 4.074 0 5.627 1.554 1.554 4.072 1.554 5.627 0l5.399-5.399v17.271l-14.351 15.548 5.415 5.866 15.839-17.16c.678-.735 1.055-1.698 1.055-2.699v-18.826l5.401 5.401c1.554 1.553 4.074 1.553 5.627-.001.777-.777 1.166-1.795 1.166-2.813s-.389-2.037-1.166-2.814"/></g></svg>