<svg width="48" height="48" viewBox="0 0 48 48" fill="none" xmlns="http://www.w3.org/2000/svg"><g clip-path="url(#clip0)"><path d="M32.2849 24.0048L19.4209 32.6448V15.3696L32.2849 24.0048Z" fill="#FC6D26"></path> <path d="M24.288 41.8272C17.6007 41.8157 10.9421 40.9512 4.4736 39.2544C3.19159 38.9189 2.05702 38.1677 1.24753 37.1185C0.438027 36.0692 -0.000709291 34.7812 1.10555e-06 33.456V14.4864C-0.000801248 13.1658 0.43515 11.882 1.23995 10.835C2.04476 9.78797 3.17323 9.03649 4.4496 8.69761C4.68739 8.65576 4.93222 8.70505 5.13529 8.83566C5.33836 8.96626 5.48475 9.16859 5.54531 9.40232C5.60586 9.63605 5.57611 9.88401 5.462 10.0968C5.34789 10.3096 5.1578 10.4715 4.9296 10.5504C4.06475 10.7839 3.30106 11.2961 2.75693 12.0077C2.2128 12.7193 1.91862 13.5906 1.92 14.4864V33.456C1.91897 34.3558 2.21611 35.2306 2.76498 35.9436C3.31384 36.6566 4.08349 37.1676 4.9536 37.3968C15.9241 40.3106 27.413 40.6946 38.5536 38.52C38.8038 38.471 39.0631 38.5234 39.2747 38.6656C39.4862 38.8078 39.6326 39.0283 39.6816 39.2784C39.7306 39.5286 39.6782 39.7879 39.536 39.9995C39.3938 40.211 39.1734 40.3574 38.9232 40.4064C34.1024 41.3536 29.2009 41.8295 24.288 41.8272Z" fill="#341472"></path> <path d="M43.3103 39.36C43.075 39.3629 42.8469 39.2793 42.6692 39.125C42.4916 38.9708 42.3767 38.7567 42.3465 38.5233C42.3163 38.29 42.3729 38.0537 42.5054 37.8593C42.6379 37.6649 42.8372 37.5259 43.0655 37.4688C43.9301 37.2408 44.6948 36.7327 45.2402 36.0241C45.7855 35.3155 46.0808 34.4462 46.0799 33.552V14.4624C46.0834 13.5654 45.7895 12.6924 45.244 11.9803C44.6986 11.2681 43.9325 10.7568 43.0655 10.5264C32.1413 7.69598 20.7235 7.33686 9.64308 9.47522C9.39293 9.5236 9.1338 9.47062 8.92271 9.32794C8.71162 9.18526 8.56585 8.96457 8.51748 8.71442C8.4691 8.46427 8.52208 8.20514 8.66476 7.99405C8.80744 7.78296 9.02813 7.6372 9.27828 7.58882C20.6405 5.39662 32.3486 5.76558 43.5503 8.66882C44.8279 9.00718 45.9574 9.75918 46.7624 10.8073C47.5674 11.8555 48.0026 13.1408 47.9999 14.4624V33.552C48.0077 34.8759 47.5753 36.1648 46.7707 37.2161C45.9661 38.2675 44.835 39.0216 43.5551 39.36C43.4739 39.3717 43.3915 39.3717 43.3103 39.36Z" fill="#341472"></path> <path d="M19.4209 33.6C19.264 33.5988 19.1095 33.561 18.9697 33.4896C18.8157 33.4076 18.687 33.2852 18.5973 33.1355C18.5077 32.9858 18.4605 32.8145 18.4609 32.64V15.36C18.4605 15.1855 18.5077 15.0142 18.5973 14.8646C18.687 14.7149 18.8157 14.5924 18.9697 14.5104C19.1238 14.4285 19.2973 14.3902 19.4715 14.3995C19.6457 14.4088 19.8141 14.4654 19.9585 14.5632L32.8177 23.2032C32.9484 23.291 33.0555 23.4096 33.1295 23.5486C33.2036 23.6876 33.2423 23.8426 33.2423 24C33.2423 24.1575 33.2036 24.3125 33.1295 24.4514C33.0555 24.5904 32.9484 24.709 32.8177 24.7968L19.9585 33.4368C19.7996 33.5436 19.6124 33.6004 19.4209 33.6ZM20.3809 17.1648V30.8448L30.5617 24L20.3809 17.1648Z" fill="#341472"></path></g> <defs><clipPath id="clip0"><rect width="48" height="48" fill="white"></rect></clipPath></defs></svg>