<?xml version="1.0" encoding="utf-8"?>
<!-- Generator: Adobe Illustrator 23.0.4, SVG Export Plug-In . SVG Version: 6.00 Build 0)  -->
<svg version="1.1" id="Layer_1" xmlns="http://www.w3.org/2000/svg" xmlns:xlink="http://www.w3.org/1999/xlink" x="0px" y="0px"
	 viewBox="0 0 80 80" style="enable-background:new 0 0 80 80;" xml:space="preserve">
<style type="text/css">
	.st0{fill:none;stroke:#333333;stroke-width:1.5585;stroke-linecap:round;stroke-linejoin:round;}
	.st1{fill-rule:evenodd;clip-rule:evenodd;fill:#E24329;}
	.st2{fill-rule:evenodd;clip-rule:evenodd;fill:#FC6D26;}
	.st3{fill-rule:evenodd;clip-rule:evenodd;fill:#FCA326;}
	.st4{fill-rule:evenodd;clip-rule:evenodd;fill:#CCCCCC;}
</style>
<title>influence-icon</title>
<desc>Created with Sketch.</desc>
<g id="Page-1">
	<g id="GitLab-First-Look" transform="translate(-404.000000, -1524.000000)">
		<g id="influence-icon" transform="translate(405.000000, 1525.000000)">
			<path id="Stroke-1" class="st0" d="M39,56.9v12.5"/>
			<path id="Stroke-2" class="st0" d="M39,9.4v21.8"/>
			<path id="Stroke-3" class="st0" d="M69.4,39H57.7"/>
			<path id="Stroke-4" class="st0" d="M50.2,50.2l10.3,10.3"/>
			<path id="Stroke-5" class="st0" d="M27.7,50.3L17.5,60.5"/>
			<polygon id="Fill-6" class="st1" points="39,52.7 39,52.7 44.5,35.8 33.5,35.8 			"/>
			<polygon id="Fill-7" class="st2" points="39,52.7 33.5,35.8 25.7,35.8 			"/>
			<path id="Fill-8" class="st3" d="M25.7,35.8L24,41c-0.2,0.5,0,1,0.4,1.3L39,52.7L25.7,35.8z"/>
			<path id="Fill-10" class="st1" d="M25.7,35.8h7.8l-3.3-10.2c-0.2-0.5-0.9-0.5-1.1,0L25.7,35.8z"/>
			<polygon id="Fill-12" class="st2" points="39,52.7 44.5,35.8 52.3,35.8 			"/>
			<path id="Fill-14" class="st3" d="M52.3,35.8L54,41c0.2,0.5,0,1-0.4,1.3L39,52.7L52.3,35.8z"/>
			<path id="Fill-16" class="st1" d="M52.3,35.8h-7.8l3.3-10.2c0.2-0.5,0.9-0.5,1.1,0L52.3,35.8z"/>
			<polygon id="Stroke-18" class="st0" points="39,52.7 39,52.7 44.5,35.8 33.5,35.8 			"/>
			<polygon id="Stroke-20" class="st0" points="39,52.7 33.5,35.8 25.7,35.8 			"/>
			<path id="Stroke-22" class="st0" d="M25.7,35.8L24,41c-0.2,0.5,0,1,0.4,1.3L39,52.7L25.7,35.8z"/>
			<path id="Stroke-24" class="st0" d="M25.7,35.8h7.8l-3.3-10.2c-0.2-0.5-0.9-0.5-1.1,0L25.7,35.8z"/>
			<polygon id="Stroke-26" class="st0" points="39,52.7 44.5,35.8 52.3,35.8 			"/>
			<path id="Stroke-28" class="st0" d="M52.3,35.8L54,41c0.2,0.5,0,1-0.4,1.3L39,52.7L52.3,35.8z"/>
			<path id="Stroke-30" class="st0" d="M52.3,35.8h-7.8l3.3-10.2c0.2-0.5,0.9-0.5,1.1,0L52.3,35.8z"/>
			<path id="Fill-32" class="st2" d="M42.9,4.7c0,2.2-1.7,3.9-3.9,3.9s-3.9-1.7-3.9-3.9s1.7-3.9,3.9-3.9S42.9,2.6,42.9,4.7"/>
			<path id="Stroke-34" class="st0" d="M42.9,4.7c0,2.2-1.7,3.9-3.9,3.9s-3.9-1.7-3.9-3.9s1.7-3.9,3.9-3.9S42.9,2.6,42.9,4.7z"/>
			<path id="Fill-36" class="st4" d="M42.9,73.3c0,2.2-1.7,3.9-3.9,3.9s-3.9-1.7-3.9-3.9s1.7-3.9,3.9-3.9S42.9,71.1,42.9,73.3"/>
			<path id="Stroke-38" class="st0" d="M42.9,73.3c0,2.2-1.7,3.9-3.9,3.9s-3.9-1.7-3.9-3.9s1.7-3.9,3.9-3.9S42.9,71.1,42.9,73.3z"/>
			<path id="Fill-40" class="st2" d="M73.3,42.9c-2.2,0-3.9-1.7-3.9-3.9s1.7-3.9,3.9-3.9s3.9,1.7,3.9,3.9S75.4,42.9,73.3,42.9"/>
			<path id="Stroke-42" class="st0" d="M73.3,42.9c-2.2,0-3.9-1.7-3.9-3.9s1.7-3.9,3.9-3.9s3.9,1.7,3.9,3.9S75.4,42.9,73.3,42.9z"/>
			<path id="Fill-44" class="st3" d="M4.7,42.9c-2.2,0-3.9-1.7-3.9-3.9s1.7-3.9,3.9-3.9s3.9,1.7,3.9,3.9S6.9,42.9,4.7,42.9"/>
			<path id="Stroke-46" class="st0" d="M4.7,42.9c-2.2,0-3.9-1.7-3.9-3.9s1.7-3.9,3.9-3.9s3.9,1.7,3.9,3.9S6.9,42.9,4.7,42.9z"/>
			<path id="Fill-48" class="st4" d="M17.5,12c1.5,1.5,1.5,4,0,5.5s-4,1.5-5.5,0s-1.5-4,0-5.5S16,10.5,17.5,12"/>
			<path id="Stroke-50" class="st0" d="M17.5,12c1.5,1.5,1.5,4,0,5.5s-4,1.5-5.5,0s-1.5-4,0-5.5S16,10.5,17.5,12z"/>
			<path id="Fill-52" class="st3" d="M66,60.5c1.5,1.5,1.5,4,0,5.5s-4,1.5-5.5,0s-1.5-4,0-5.5S64.5,59,66,60.5"/>
			<path id="Stroke-54" class="st0" d="M66,60.5c1.5,1.5,1.5,4,0,5.5s-4,1.5-5.5,0s-1.5-4,0-5.5S64.5,59,66,60.5z"/>
			<path id="Fill-56" class="st1" d="M66,17.5c-1.5,1.5-4,1.5-5.5,0s-1.5-4,0-5.5s4-1.5,5.5,0S67.5,16,66,17.5"/>
			<path id="Stroke-58" class="st0" d="M66,17.5c-1.5,1.5-4,1.5-5.5,0s-1.5-4,0-5.5s4-1.5,5.5,0S67.5,16,66,17.5z"/>
			<path id="Fill-60" class="st1" d="M17.5,66c-1.5,1.5-4,1.5-5.5,0s-1.5-4,0-5.5s4-1.5,5.5,0S19,64.5,17.5,66"/>
			<path id="Stroke-62" class="st0" d="M17.5,66c-1.5,1.5-4,1.5-5.5,0s-1.5-4,0-5.5s4-1.5,5.5,0S19,64.5,17.5,66z"/>
			<path id="Stroke-64" class="st0" d="M20.3,39H8.6"/>
			<path id="Stroke-66" class="st0" d="M17.5,17.5l7,7"/>
			<path id="Stroke-68" class="st0" d="M60.5,17.5l-7,7"/>
		</g>
	</g>
</g>
</svg>
