<?xml version="1.0" encoding="UTF-8"?><svg xmlns="http://www.w3.org/2000/svg" viewBox="0 0 96 89.32"><defs><style>.d{fill:#171321;}</style></defs><g id="a"/><g id="b"><g id="c"><g><path class="d" d="M0,89.32V0H2V84.68l17.6-16.68h54.4c6.07,0,11-4.93,11-11V2H9V0H87V57c0,7.17-5.83,13-13,13H20.4L0,89.32Z"/><rect class="d" x="21" y="22" width="45" height="2"/><rect class="d" x="21" y="34" width="45" height="2"/><rect class="d" x="21" y="46" width="25" height="2"/><path class="d" d="M73,80h-24.5v-2h24.5c11.58,0,21-9.42,21-21v-25h2v25c0,12.68-10.32,23-23,23Z"/></g></g></g></svg>