<svg id="Layer_1" data-name="Layer 1" xmlns="http://www.w3.org/2000/svg" viewBox="0 0 100 100"><path d="M73.09,70.74H26.91a2,2,0,1,1,0-4H73.09a2,2,0,0,1,0,4Z" fill="#afa3c6"/><circle cx="14.46" cy="68.74" r="12.46" fill="#38f2af"/><path d="M14.46,83.2A14.46,14.46,0,1,1,28.91,68.74,14.47,14.47,0,0,1,14.46,83.2Zm0-24.91A10.46,10.46,0,1,0,24.91,68.74,10.47,10.47,0,0,0,14.46,58.29Z" fill="#380d75"/><path d="M12.69,73.8h0a2,2,0,0,1-1.41-.59L8.72,70.65a2,2,0,1,1,2.82-2.83L12.69,69l4.68-4.68a2,2,0,0,1,2.83,2.83l-6.1,6.09A2,2,0,0,1,12.69,73.8Z" fill="#380d75"/><circle cx="85.54" cy="68.74" r="12.46" fill="#38f2af"/><path d="M85.54,83.2A14.46,14.46,0,1,1,100,68.74,14.47,14.47,0,0,1,85.54,83.2Zm0-24.91A10.46,10.46,0,1,0,96,68.74,10.46,10.46,0,0,0,85.54,58.29Z" fill="#380d75"/><path d="M83.78,73.8h0a2,2,0,0,1-1.42-.59L79.8,70.65a2,2,0,0,1,2.83-2.83L83.78,69l4.68-4.68a2,2,0,0,1,2.82,2.83l-6.09,6.09A2,2,0,0,1,83.78,73.8Z" fill="#380d75"/><circle cx="50" cy="68.74" r="12.46" fill="#38f2af"/><path d="M50,83.2A14.46,14.46,0,1,1,64.46,68.74,14.48,14.48,0,0,1,50,83.2Zm0-24.91A10.46,10.46,0,1,0,60.46,68.74,10.47,10.47,0,0,0,50,58.29Z" fill="#380d75"/><path d="M48.23,73.8h0a2,2,0,0,1-1.41-.59l-2.56-2.56a2,2,0,1,1,2.83-2.83L48.23,69l4.68-4.68a2,2,0,0,1,2.83,2.83l-6.09,6.09A2,2,0,0,1,48.23,73.8Z" fill="#380d75"/><path d="M50.4,44.15l13.12-9.68a1.08,1.08,0,0,0,.38-1.17L59.38,19.16a.52.52,0,0,0-1,0l-3,9.39h-10l-3-9.4a.51.51,0,0,0-1,0L36.9,33.3a1,1,0,0,0,.38,1.17L50.4,44.15" fill="#fc6d26"/><path d="M49.6,46.15a2,2,0,0,1-1.18-.39L35.29,36.08a3.06,3.06,0,0,1-1.09-3.39l4.52-14.13a2.51,2.51,0,0,1,4.79,0l2.57,8h7.05l2.56-8a2.51,2.51,0,0,1,2.38-1.75h0a2.54,2.54,0,0,1,2.39,1.73L65,32.69a3.06,3.06,0,0,1-1.09,3.39L50.79,45.76A2,2,0,0,1,49.6,46.15ZM38.21,33.27,49.6,41.66,61,33.27l-2.9-9.08-1.59,5a2,2,0,0,1-1.91,1.39h-10a2,2,0,0,1-1.91-1.39l-1.59-5Z" fill="#380d75"/></svg>