<svg enable-background="new 0 0 80 80" viewBox="0 0 80 80" xmlns="http://www.w3.org/2000/svg" xmlns:xlink="http://www.w3.org/1999/xlink"><linearGradient id="a"><stop offset="0" stop-color="#ed6265"/><stop offset=".243" stop-color="#e38385"/><stop offset=".5742" stop-color="#d6abac"/><stop offset=".8381" stop-color="#cfc3c3"/><stop offset="1" stop-color="#ccc"/></linearGradient><linearGradient id="b" gradientUnits="userSpaceOnUse" x1="46.6176" x2="46.6176" xlink:href="#a" y1="44.1286" y2="31.5553"/><linearGradient id="c" gradientTransform="matrix(-1 0 0 1 1344 0)" gradientUnits="userSpaceOnUse" x1="1310.8657" x2="1310.8657" xlink:href="#a" y1="44.1286" y2="31.5553"/><path d="m77.6 78.1h-75.3" style="fill:#5737a9;stroke:#1c1330;stroke-width:1.551;stroke-linecap:round;stroke-linejoin:round;stroke-miterlimit:10"/><path d="m65.4 66.8c-1.9-4.3-6.2-7.3-11.2-7.3-3.3 0-6.2 1.3-8.4 3.4l-2.1-19.3h-7.4l-2.2 19.4c-2.2-2.1-5.2-3.4-8.4-3.4-5 0-9.3 3-11.2 7.3l4.5 9.1h40z" style="fill:#fcba72;stroke:#333;stroke-width:1.551;stroke-linecap:round;stroke-linejoin:round;stroke-miterlimit:10"/><path d="m59.2 77.9c0-5.9 4.2-10.7 9.4-10.7s9.4 4.8 9.4 10.7z" style="fill:#fcd3a7;stroke:#333;stroke-width:1.551;stroke-linecap:round;stroke-linejoin:round;stroke-miterlimit:10"/><path d="m2 77.9c0-5.9 4.2-10.7 9.4-10.7s9.4 4.8 9.4 10.7z" style="fill:#fcd3a7;stroke:#333;stroke-width:1.551;stroke-linecap:round;stroke-linejoin:round;stroke-miterlimit:10"/><path d="m19.3 77.9c0-5.2 9.3-9.4 20.7-9.4s20.7 4.2 20.7 9.4z" style="fill:#fcd3a7;stroke:#333;stroke-width:1.551;stroke-linecap:round;stroke-linejoin:round;stroke-miterlimit:10"/><path d="m45 44.1c2.3-5 3.3-12.6 3.3-12.6v.2c.2-2.5.3-4.7.2-6.5-.1-4.2-.7-7.8-2-10.8s-3.4-5.9-6.4-8.8c-.2-.2-.3-.2-.6-.2-.2 0-.4.1-.6.3-3 3.1-5.1 6.1-6.2 8.9s-1.7 6.5-1.6 10.9c0 1.9.2 4.1.4 6.5v-.4s1 7.6 3.3 12.6l.3.1h.6l-.4 2.2c-.1.4.2.8.6.8h2.2c0 .4.3.7.7.7h2.5c.4 0 .7-.3.7-.7h2.2c.4 0 .7-.4.6-.8l-.5-2.3z" style="fill:#ccc;stroke:#333;stroke-width:1.551;stroke-linecap:round;stroke-linejoin:round;stroke-miterlimit:10"/><path d="m31.5 32-6.4 7.5 3.1 11.5h3.2l3.6-6.9-2.2-5.6z" fill="#f05133"/><path d="m48.5 32 6.4 7.5-3.1 11.5h-3.2l-3.6-6.9 2.2-5.6z" fill="#f05133"/><g stroke-linecap="round" stroke-linejoin="round" stroke-miterlimit="10" stroke-width="1.551"><path d="m36.7 3.8c.6-.6 1.8-1.7 2.7-1.7h.1c.9 0 2.1 1 2.7 1.6" fill="none" stroke="#333"/><path d="m54.7 38.7-6.4-6.9c.2-2.5.3-4.7.2-6.5-.1-4.2-.7-7.8-2-10.8s-3.4-5.9-6.4-8.8c-.2-.2-.3-.2-.6-.2-.2 0-.4.1-.6.3-3 3.1-5.1 6.1-6.2 8.9s-1.7 6.5-1.6 10.9c0 1.9.2 4.1.4 6.5l-6.2 7.1c-.2.2-.2.5-.2.7l3 10.7c.1.4.4.6.8.6h2.3c.2 0 .4-.1.6-.3.1-.1.1-.1.1-.2l3.3-6.4h.6l-.4 2.2c-.1.4.2.8.6.8h2.2c0 .4.3.7.7.7h2.5c.4 0 .7-.3.7-.7h2.2c.4 0 .7-.4.6-.8l-.5-2.3h.7l3.5 6.3c.2.3.4.4.7.4h2.3c.2 0 .4-.1.6-.3.1-.1.2-.2.2-.4l2.7-10.8c-.2-.3-.2-.5-.4-.7z" fill="none" stroke="#333"/><path d="m24 46.2.3.9m-.7-10.6-1.4 1.6c-.2.2-.2.5-.2.7l.9 3.3" fill="none" stroke="#333"/><path d="m56.4 43.9.1-.4m1.1-3.5.4-1.6c.1-.3 0-.5-.2-.7l-.9-1" fill="none" stroke="#333"/><path d="m48.3 31.6s-1 7.6-3.3 12.6" fill="url(#b)" stroke="#333"/><path d="m31.5 31.6s1 7.6 3.3 12.6" fill="url(#c)" stroke="#333"/><path d="m40 51.1v-19.2" fill="none" stroke="#333"/><path d="m43.9 21.1-.4-1.3-.8-2.5c0-.1-.2-.2-.3-.2-.1 0-.3.1-.3.2l-.8 2.4h-2.5l-.8-2.4c0-.1-.2-.2-.3-.2-.1 0-.3.1-.3.2l-.8 2.5-.4 1.3c-.1.2 0 .4.2.5l3.6 2.6h.1.1l3.6-2.6c.1-.1.1-.4.1-.5z" fill="#fc6d26" stroke="#333"/></g></svg>