<svg xmlns="http://www.w3.org/2000/svg" xmlns:xlink="http://www.w3.org/1999/xlink" viewBox="0 0 780 548" enable-background="new 0 0 780 548"><defs><path id="4" d="m773.61 498.37h-249.4c-3.529 0-6.39-2.861-6.39-6.39v-72.43c0-3.529 2.861-6.39 6.39-6.39h249.4c3.529 0 6.39 2.861 6.39 6.39v72.43c0 3.529-2.861 6.39-6.39 6.39"/><clipPath id="3"><use xlink:href="#4"/></clipPath><linearGradient id="2" gradientUnits="userSpaceOnUse" x1="216.23" x2="569.4"><stop stop-color="#9995c9"/><stop offset="1" stop-color="#9996ca" stop-opacity=".1"/></linearGradient><linearGradient id="1" gradientUnits="userSpaceOnUse" x1="211.34" x2="564.51"><stop stop-color="#9996ca" stop-opacity=".1"/><stop offset="1" stop-color="#9995c9"/></linearGradient><linearGradient id="0" gradientUnits="userSpaceOnUse" x1="86.04" x2="476.27"><stop offset="0" stop-color="#9795f9" stop-opacity=".15"/><stop offset="1" stop-color="#9795f9"/></linearGradient><linearGradient gradientUnits="userSpaceOnUse" y1="606.49" x2="0" y2="-29.32"><stop stop-color="#221e4c"/><stop offset="1" stop-color="#151128"/></linearGradient></defs><g opacity=".25" fill="none" stroke-linejoin="round" stroke-linecap="round" stroke-width="8" stroke-miterlimit="10"><path d="m215.34 146.53c16.589-81.07 88.32-142.05 174.29-142.05 81.01 0 149.37 54.14 170.87 128.21" stroke="url(#1)"/><path stroke="#9995c9" d="m587.7 85.57l-23.85 52.54-52.54-23.85"/><path d="m565.4 226.34c-16.589 81.07-88.32 142.05-174.29 142.05-81.01 0-149.37-54.14-170.87-128.21" stroke="url(#2)"/><path stroke="#9995c9" d="m192.3 289.19l26.74-51.13 51.13 26.75"/></g><g fill="#fff"><path d="m326.1 247.27c0 7.113-3.729 10.08-11.326 10.08h-11.396c-7.597 0-11.326-2.97-11.326-10.08v-27.07c0-7.04 3.729-10.08 11.326-10.08h11.396c7.597 0 11.326 3.039 11.326 10.08v2.832l-6.975 1.864v-3.453c0-3.453-1.105-4.903-5.249-4.903h-9.531c-4.144 0-5.317 1.45-5.317 4.903v24.517c0 3.453 1.174 4.903 5.317 4.903h9.531c4.144 0 5.249-1.45 5.249-4.903v-3.867l6.975 2.072v3.107"/><path d="m334.65 250.86h13.12v-34.32h-12.293v-6.423h31.63v6.423h-12.362v34.32h13.12v6.492h-33.22v-6.492"/><path d="m397.3 204.87h6.975l-20.511 58.771h-6.906l20.442-58.771"/><path d="m446.12 247.27c0 7.113-3.729 10.08-11.326 10.08h-11.395c-7.597 0-11.326-2.97-11.326-10.08v-27.07c0-7.04 3.729-10.08 11.326-10.08h11.395c7.597 0 11.326 3.039 11.326 10.08v2.832l-6.975 1.864v-3.453c0-3.453-1.105-4.903-5.249-4.903h-9.531c-4.144 0-5.317 1.45-5.317 4.903v24.517c0 3.453 1.174 4.903 5.317 4.903h9.531c4.144 0 5.249-1.45 5.249-4.903v-3.867l6.975 2.072v3.107"/><path d="m488.76 247.27c0 7.113-3.522 10.08-11.12 10.08h-23.07v-47.24h23.07c7.597 0 11.12 2.97 11.12 10.08v27.07m-6.975-25.829c0-3.453-1.105-4.903-5.249-4.903h-14.986v34.32h14.986c4.144 0 5.249-1.45 5.249-4.903v-24.517"/></g><path d="m437.71 148.87l-5.384-16.544-10.652-32.814c-.546-1.678-2.926-1.678-3.492 0l-10.652 32.795h-35.389l-10.652-32.795c-.546-1.678-2.926-1.678-3.492 0l-10.632 32.795-5.384 16.563c-.488 1.502.039 3.16 1.327 4.097l46.529 33.809 46.529-33.809c1.285-.936 1.832-2.595 1.344-4.097" fill="#f7561e" transform="translate(.532.775)"/><path d="m235.18 186.36l17.695-54.45h-35.389l17.694 54.45" fill="#d72d20" transform="translate(155.2 1.16)"/><path d="m361.83 186.36l-17.695-54.45h-24.776l42.471 54.45" fill="#f7561e" transform="translate(28.531 1.161)"/><path d="m347.8 132.84l-5.384 16.544c-.488 1.502.039 3.16 1.327 4.097l46.529 33.809-42.472-54.45" fill="#f8911e" transform="translate(.089.256)"/><path d="m318.47-147.16h24.796l-10.671-32.795c-.546-1.678-2.926-1.678-3.492 0l-10.633 32.795" fill="#d72d20" transform="translate(29.422 280.26)"/><path d="m143.18 186.36l17.695-54.45h24.796l-42.491 54.45" fill="#f7561e" transform="translate(247.2 1.161)"/><path d="m186.54 132.84l5.384 16.544c.488 1.502-.039 3.16-1.327 4.097l-46.529 33.789 42.472-54.43" fill="#f8911e" transform="translate(246.31.256)"/><path d="m95.89-147.16h-24.796l10.652-32.795c.546-1.678 2.926-1.678 3.492 0l10.652 32.795" fill="#d72d20" transform="translate(336.97 280.26)"/><path d="m474.59 451.7l-23.17-23.17c-2.24-2.239-5.871-2.239-8.111 0-2.24 2.24-2.24 5.871 0 8.112l13.383 13.383h-370.65v11.47h370.65l-13.383 13.383c-2.24 2.24-2.24 5.871 0 8.112 1.12 1.119 2.588 1.679 4.055 1.679s2.936-.56 4.055-1.679l23.17-23.17c2.241-2.241 2.241-5.871.001-8.112" fill="url(#0)"/><path fill="#f35056" d="m524.37 419.71h249.07v72.1h-249.07z"/><path d="m766.89 426.27v58.991h-235.96v-58.991h235.96m6.719-13.11h-249.4c-3.529 0-6.39 2.861-6.39 6.39v72.43c0 3.529 2.861 6.39 6.39 6.39h249.4c3.529 0 6.39-2.861 6.39-6.39v-72.43c0-3.529-2.861-6.39-6.39-6.39z" fill="#eb333c"/><g clip-path="url(#3)"><path fill="#c3231f" d="m530.76 485.26l-12.94 14.09v-87.18l12.94 14.1z"/></g><g clip-path="url(#3)"><path fill="#c3231f" d="m767.05 426.27l12.95-14.1v87.18l-12.95-14.09z"/></g><g fill="#fff"><path d="m593.11 455.76v2.38c0 1.414-.063 2.617-.19 3.611-.127.993-.41 1.974-.849 2.94-.44.967-1.106 1.896-1.999 2.79-1.905 1.907-4.523 2.86-7.854 2.86h-10.812v-29.16h10.812c3.331 0 5.949.953 7.854 2.86.893.894 1.559 1.823 1.999 2.79.439.968.722 1.947.849 2.94.126.994.19 2.197.19 3.61v2.383m-7.161 0c0-2.4-.05-3.983-.15-4.751-.101-.767-.304-1.37-.612-1.81-.735-1.094-1.885-1.641-3.45-1.641h-3.169v16.402h3.169c1.564 0 2.714-.547 3.45-1.641.227-.347.384-.689.471-1.03.087-.34.157-.923.211-1.75.053-.825.08-2.086.08-3.779"/><path d="m619.48 470.35h-19.823v-29.16h19.823v6.381h-12.662v4.881h10.821v6.381h-10.821v5.141h12.662v6.38"/><path d="m647.69 450.56c0 1.641-.39 3.174-1.17 4.601-.78 1.428-1.917 2.581-3.411 3.461-1.494.88-3.287 1.32-5.381 1.32h-4.38v10.401h-7.161v-29.16h11.551c2.092 0 3.884.437 5.375 1.311 1.492.873 2.628 2.023 3.408 3.45.779 1.426 1.169 2.966 1.169 4.62m-7.161.01c0-.519-.124-1-.371-1.455-.248-.452-.608-.814-1.083-1.087s-1.026-.409-1.655-.409h-4.072v5.881h4.072c.628 0 1.18-.136 1.655-.408s.835-.631 1.083-1.076.371-.928.371-1.446"/><path d="m672.85 470.35h-19.403v-29.16h7.161v22.783h12.242v6.381"/><path d="m700.02 455.76v.98c0 1.627-.057 3.03-.17 4.2-.113 1.174-.383 2.308-.809 3.4-.426 1.094-1.079 2.08-1.958 2.961-1.079 1.08-2.269 1.896-3.567 2.45s-2.828.83-4.586.83c-1.186 0-2.255-.124-3.208-.37-.953-.247-1.832-.61-2.638-1.09-.806-.48-1.569-1.087-2.288-1.82-1.279-1.28-2.092-2.734-2.438-4.361-.346-1.627-.519-3.693-.519-6.2v-.98-.98c0-2.507.173-4.577.519-6.211.347-1.633 1.159-3.09 2.438-4.37 1.105-1.106 2.301-1.927 3.587-2.461 1.286-.533 2.801-.8 4.546-.8 1.758 0 3.284.271 4.576.811 1.292.54 2.485 1.356 3.578 2.45.879.88 1.532 1.87 1.958 2.971.426 1.1.696 2.236.809 3.41.113 1.174.17 2.573.17 4.2v.98m-7.161 0c0-2.48-.083-4.174-.25-5.081-.167-.906-.437-1.6-.81-2.08-.267-.373-.657-.68-1.17-.92s-1.083-.36-1.71-.36c-.614 0-1.167.117-1.661.351-.493.233-.894.543-1.2.93-.24.307-.437.684-.59 1.13-.153.447-.27 1.134-.35 2.061s-.12 2.25-.12 3.971c0 1.707.04 3.02.12 3.95.08.928.197 1.61.35 2.051.153.439.35.813.59 1.12.68.88 1.634 1.32 2.861 1.32 1.24 0 2.2-.44 2.88-1.32.373-.521.643-1.217.81-2.091.166-.875.25-2.552.25-5.03"/><path d="m727.66 441.18l-8.801 17.282v11.882h-7.161v-11.882l-8.821-17.282h7.827l4.604 10.481 4.537-10.481h7.815"/><circle cx="208.17" cy="455.76" r="53.26"/></g><g fill="none" stroke="#2ba251" stroke-linejoin="round" stroke-linecap="round" stroke-width="8.193" stroke-miterlimit="10"><path d="m191.78 459.07l9.968 8.982"/><path d="m224.56 443.47l-22.805 24.58"/><circle cx="208.17" cy="455.76" r="40.966"/></g><circle cx="53.26" cy="455.76" r="53.26" fill="#fff"/><g fill="none" stroke="#2ba251" stroke-linejoin="round" stroke-linecap="round" stroke-width="8.193" stroke-miterlimit="10"><path d="m36.869 459.07l9.968 8.982"/><path d="m69.64 443.47l-22.805 24.58"/><circle cx="53.26" cy="455.76" r="40.966"/></g><circle cx="363.96" cy="455.76" r="53.26" fill="#fff"/><g fill="none" stroke="#2ba251" stroke-linejoin="round" stroke-linecap="round" stroke-width="8.193" stroke-miterlimit="10"><path d="m347.58 459.07l9.968 8.982"/><path d="m380.35 443.47l-22.805 24.58"/><circle cx="363.96" cy="455.76" r="40.966"/></g><g fill="#9795f9"><path d="m0 529.68h3.672c1.868 0 3.212.332 4.03.997.819.666 1.228 1.745 1.228 3.237 0 1.494-.409 2.573-1.228 3.237-.819.666-2.163.998-4.03.998h-.997v5.069h-2.675v-13.538m2.675 2.248v3.972h1.097c.876 0 1.492-.148 1.846-.443.354-.297.53-.811.53-1.542 0-.732-.177-1.245-.53-1.541-.354-.297-.969-.445-1.846-.445h-1.097"/><path d="m11.716 533.06h5.259v8.115h3.301v2.041h-9.268v-2.041h3.309v-6.075h-2.602v-2.04m2.603-4.942h2.657v3.101h-2.657v-3.101"/><path d="m24.9 541.78v5.296h-2.648v-14.02h2.648v1.524c.278-.587.644-1.029 1.097-1.324s.985-.445 1.596-.445c1.161 0 2.061.466 2.702 1.398.641.931.962 2.242.962 3.935 0 1.718-.325 3.034-.975 3.953-.649.919-1.576 1.379-2.779 1.379-.544 0-1.033-.142-1.465-.422-.432-.282-.812-.706-1.138-1.274m3.7-3.655c0-.98-.163-1.747-.49-2.303-.326-.556-.776-.835-1.351-.835-.574 0-1.027.279-1.36.835-.332.556-.498 1.323-.498 2.303 0 .98.166 1.747.498 2.303.333.556.786.835 1.36.835.575 0 1.025-.279 1.351-.835.327-.556.49-1.323.49-2.303"/><path d="m42.07 542.72c-.616.253-1.246.443-1.886.572-.641.126-1.318.19-2.032.19-1.699 0-2.997-.456-3.895-1.366s-1.346-2.221-1.346-3.93c0-1.657.432-2.966 1.296-3.927.865-.96 2.044-1.442 3.537-1.442 1.505 0 2.673.447 3.504 1.338.831.892 1.247 2.147 1.247 3.767v1.079h-6.881c.006.799.242 1.394.707 1.786.466.393 1.161.59 2.086.59.61 0 1.212-.087 1.804-.262.593-.175 1.212-.454 1.859-.835v2.44m-2.249-5.713c-.012-.701-.192-1.231-.54-1.591-.348-.36-.86-.539-1.537-.539-.611 0-1.097.186-1.46.558s-.578.899-.644 1.582l4.181-.01"/><path d="m46.763 538.98v-7.833h-2.693v-2.041h5.35v9.874c0 .799.124 1.364.372 1.696.248.332.668.498 1.26.498h2.122v2.041h-2.866c-1.263 0-2.17-.326-2.72-.98-.55-.652-.825-1.737-.825-3.255"/><path d="m56.44 533.06h5.259v8.115h3.301v2.041h-9.268v-2.041h3.309v-6.075h-2.602v-2.04m2.604-4.942h2.657v3.101h-2.657v-3.101"/><path d="m75.33 536.62v6.593h-2.639v-6.185c0-.738-.104-1.265-.313-1.582-.208-.317-.549-.477-1.02-.477-.478 0-.854.215-1.129.645-.275.43-.412 1.024-.412 1.786v5.813h-2.639v-10.156h2.639v1.524c.187-.562.507-.998.961-1.306.453-.309 1-.463 1.641-.463.961 0 1.686.32 2.176.957.491.638.735 1.587.735 2.851"/><path d="m86.79 542.72c-.616.253-1.246.443-1.886.572-.641.126-1.318.19-2.032.19-1.699 0-2.997-.456-3.895-1.366s-1.346-2.221-1.346-3.93c0-1.657.432-2.966 1.296-3.927.865-.96 2.044-1.442 3.537-1.442 1.505 0 2.673.447 3.504 1.338.831.892 1.247 2.147 1.247 3.767v1.079h-6.882c.006.799.242 1.394.707 1.786.466.393 1.161.59 2.086.59.61 0 1.212-.087 1.804-.262.593-.175 1.212-.454 1.859-.835v2.44m-2.247-5.713c-.012-.701-.192-1.231-.54-1.591-.348-.36-.86-.539-1.537-.539-.611 0-1.097.186-1.46.558-.363.372-.578.899-.644 1.582l4.181-.01"/><path d="m105.57 529.88l-.861 3.391h1.84l.853-3.391h2.032l-.88 3.391h1.75v1.949h-2.23l-.671 2.656h1.859v1.951h-2.34l-.852 3.382h-2l.852-3.382h-1.859l-.853 3.382h-2l.853-3.382h-1.877v-1.951h2.358l.671-2.656h-1.986v-1.949h2.485l.853-3.391h2.01m.5 5.341h-1.859l-.671 2.656h1.859l.671-2.656"/><path d="m112.04 540.86h2.992v-8.788l-2.784.69v-2.413l2.802-.671h2.585v11.18h2.992v2.358h-8.587v-2.356"/><path d="m130.86 529.99v2.431c-.478-.273-.936-.477-1.374-.613s-.86-.204-1.265-.204c-.967 0-1.703.325-2.208.975-.504.649-.769 1.609-.793 2.879.284-.393.647-.687 1.088-.884s.962-.296 1.56-.296c1.221 0 2.164.386 2.829 1.157.664.771.997 1.864.997 3.278 0 1.516-.373 2.693-1.12 3.527-.747.835-1.797 1.251-3.151 1.251-1.651 0-2.849-.552-3.595-1.658-.747-1.106-1.12-2.893-1.12-5.36 0-2.345.456-4.103 1.369-5.273.913-1.169 2.282-1.754 4.107-1.754.424 0 .86.046 1.311.136.45.091.905.226 1.365.408m-3.509 6.437c-.581 0-1.023.21-1.329.631-.305.421-.458 1.029-.458 1.827 0 .792.153 1.398.458 1.818.306.421.748.629 1.329.629.58 0 1.026-.209 1.337-.629.311-.421.467-1.026.467-1.818s-.156-1.399-.467-1.823c-.312-.423-.757-.635-1.337-.635"/><path d="m136.3 536.04c-.683-.236-1.202-.607-1.559-1.111-.357-.504-.536-1.123-.536-1.855 0-1.125.366-2.01 1.097-2.666.732-.654 1.726-.98 2.983-.98 1.263 0 2.261.326 2.992.98.732.652 1.097 1.541 1.097 2.666 0 .725-.175 1.341-.526 1.846s-.861.878-1.532 1.12c.75.229 1.336.64 1.759 1.233.423.593.635 1.303.635 2.131 0 1.3-.384 2.303-1.152 3.01-.767.707-1.859 1.062-3.274 1.062-1.408 0-2.496-.355-3.264-1.062-.767-.707-1.151-1.71-1.151-3.01 0-.834.215-1.547.644-2.14.43-.593 1.025-1 1.787-1.224m1.986 1.133c-.598 0-1.082.189-1.451.567-.369.378-.553.878-.553 1.501 0 .622.184 1.125.553 1.506.369.381.853.57 1.451.57.599 0 1.084-.192 1.455-.579.372-.387.558-.885.558-1.497 0-.623-.184-1.123-.553-1.501-.369-.378-.855-.567-1.46-.567m-1.705-3.88c0 .532.152.953.458 1.265.306.311.721.466 1.247.466.532 0 .951-.155 1.257-.466.305-.312.458-.733.458-1.265 0-.526-.153-.942-.458-1.247-.306-.306-.725-.459-1.257-.459-.52 0-.933.154-1.242.463-.308.308-.463.723-.463 1.243"/><path d="m147.82 540.86h5.704v2.358h-8.597v-2.285l1.451-1.542c1.724-1.832 2.769-2.96 3.138-3.382.453-.52.78-.982.979-1.384.2-.401.299-.799.299-1.192 0-.605-.183-1.071-.549-1.401-.366-.329-.884-.495-1.555-.495-.478 0-1.014.096-1.609.286-.596.19-1.217.466-1.864.829v-2.493c.647-.236 1.28-.416 1.9-.539.62-.123 1.214-.186 1.782-.186 1.433 0 2.558.334 3.377 1 .819.669 1.229 1.58 1.229 2.734 0 .532-.089 1.032-.267 1.497-.178.466-.485.983-.921 1.551-.321.41-1.2 1.335-2.639 2.774-.779.781-1.399 1.404-1.858 1.869"/><path d="m156.29 529.68h8.56v1.894l-4.588 11.644h-2.73l4.407-11.18h-5.65v-2.358"/><path d="m168.08 543.03v-2.44c.477.279.935.485 1.374.617.438.133.86.2 1.265.2.961 0 1.694-.322 2.198-.966.505-.643.773-1.606.803-2.888-.284.393-.647.687-1.088.884-.442.197-.965.296-1.569.296-1.215 0-2.155-.386-2.82-1.157-.665-.771-.997-1.864-.997-3.278 0-1.51.372-2.681 1.116-3.508.743-.829 1.795-1.244 3.156-1.244 1.651 0 2.848.552 3.595 1.655.747 1.103 1.12 2.885 1.12 5.346 0 2.339-.456 4.094-1.369 5.264-.913 1.169-2.282 1.754-4.108 1.754-.423 0-.86-.046-1.31-.136-.451-.091-.906-.224-1.366-.399m3.509-6.538c.575 0 1.014-.21 1.319-.629.306-.421.458-1.03.458-1.827 0-.792-.152-1.399-.458-1.818-.305-.421-.744-.631-1.319-.631-.581 0-1.026.21-1.337.631-.312.419-.467 1.026-.467 1.818 0 .791.155 1.399.467 1.823.311.421.757.633 1.337.633"/></g></svg>