<svg viewBox="0 0 10 10" xmlns="http://www.w3.org/2000/svg"><g fill="none" fill-rule="evenodd"><path d="m996.65 712.65c.06.06.089.128.089.205 0 .077-.03.146-.089.205l-4.161 4.161c-.06.06-.128.089-.205.089-.077 0-.146-.03-.205-.089l-.446-.446c-.06-.06-.089-.128-.089-.205 0-.077.03-.146.089-.205l3.509-3.509-3.509-3.509c-.06-.06-.089-.128-.089-.205 0-.077.03-.146.089-.205l.446-.446c.06-.06.128-.089.205-.089.077 0 .146.03.205.089l4.161 4.161m3.429 0c.06.06.089.128.089.205 0 .077-.03.146-.089.205l-4.161 4.161c-.06.06-.128.089-.205.089-.077 0-.146-.03-.205-.089l-.446-.446c-.06-.06-.089-.128-.089-.205 0-.077.03-.146.089-.205l3.509-3.509-3.509-3.509c-.06-.06-.089-.128-.089-.205 0-.077.03-.146.089-.205l.446-.446c.06-.06.128-.089.205-.089.077 0 .146.03.205.089l4.161 4.161" transform="translate(-991-708)" fill="#55448D"/></g></svg>
