<svg width="35" height="35" viewBox="0 0 35 35" fill="none" xmlns="http://www.w3.org/2000/svg">
<circle cx="17.5" cy="17.5" r="17.5" fill="#FCA121"/>
<path fill-rule="evenodd" clip-rule="evenodd" d="M18.1569 21.0577C17.7504 21.2924 17.2496 21.2924 16.8431 21.0577L7.65679 15.7533C6.78096 15.2475 6.7811 13.9833 7.65703 13.4778L16.8433 8.17591C17.2497 7.94136 17.7503 7.94137 18.1567 8.17591L27.343 13.4778C28.2189 13.9833 28.219 15.2475 27.3432 15.7533L18.1569 21.0577ZM24.0586 14.6159L17.5 18.403L10.9414 14.6159L17.5 10.8305L24.0586 14.6159Z" fill="white"/>
<path d="M27.3297 20.9531C27.958 20.5903 28.1733 19.7868 27.8105 19.1585C27.4478 18.5302 26.6443 18.3149 26.016 18.6777L17.5 23.5943L8.98415 18.6777C8.35581 18.3149 7.55235 18.5302 7.18958 19.1585C6.8268 19.7869 7.04208 20.5903 7.67043 20.9531L16.8431 26.249C17.2496 26.4837 17.7504 26.4837 18.1569 26.249L27.3297 20.9531Z" fill="white"/>
</svg>
