<svg width="35" height="35" viewBox="0 0 35 35" fill="none" xmlns="http://www.w3.org/2000/svg">
<path d="M17.5 35C27.165 35 35 27.165 35 17.5C35 7.83502 27.165 0 17.5 0C7.83502 0 0 7.83502 0 17.5C0 27.165 7.83502 35 17.5 35Z" fill="#1DBA9E"/>
<path d="M17.1002 9.79998L13.7002 15.2C13.6002 15.4 13.3002 15.5 13.1002 15.4L9.00021 13.2C8.60021 13 8.20021 13.4 8.30021 13.8L11.5002 23.5C11.6002 23.9 12.0002 24.2 12.4002 24.2H22.4002C22.8002 24.2 23.2002 23.9 23.3002 23.5L26.5002 13.8C26.6002 13.4 26.2002 13 25.8002 13.2L21.7002 15.3C21.5002 15.4 21.2002 15.3 21.1002 15.1L17.7002 9.69998C17.7002 9.59998 17.3002 9.49998 17.1002 9.79998Z" fill="white"/>
</svg>
