<svg width="35" height="35" viewBox="0 0 35 35" fill="none" xmlns="http://www.w3.org/2000/svg">
<path d="M17.5 35C27.165 35 35 27.165 35 17.5C35 7.83502 27.165 0 17.5 0C7.83502 0 0 7.83502 0 17.5C0 27.165 7.83502 35 17.5 35Z" fill="#9B51E0"/>
<path d="M11.9 28V10.3833" stroke="white" stroke-width="2" stroke-miterlimit="10" stroke-linecap="round" stroke-linejoin="round"/>
<path d="M11.9 23.9166L20.3 21.2333C22.1667 20.65 23.5667 18.7833 23.5667 16.8V10.3833" stroke="white" stroke-width="2" stroke-miterlimit="10" stroke-linecap="round" stroke-linejoin="round"/>
<path d="M11.9 13.4166C13.5753 13.4166 14.9333 12.0586 14.9333 10.3833C14.9333 8.70804 13.5753 7.34998 11.9 7.34998C10.2247 7.34998 8.86667 8.70804 8.86667 10.3833C8.86667 12.0586 10.2247 13.4166 11.9 13.4166Z" fill="white"/>
<path d="M23.5667 13.4166C25.2419 13.4166 26.6 12.0586 26.6 10.3833C26.6 8.70804 25.2419 7.34998 23.5667 7.34998C21.8914 7.34998 20.5333 8.70804 20.5333 10.3833C20.5333 12.0586 21.8914 13.4166 23.5667 13.4166Z" fill="white"/>
</svg>
