<svg width="35" height="35" viewBox="0 0 35 35" fill="none" xmlns="http://www.w3.org/2000/svg">
<path d="M17.5 35C27.165 35 35 27.165 35 17.5C35 7.83502 27.165 0 17.5 0C7.83502 0 0 7.83502 0 17.5C0 27.165 7.83502 35 17.5 35Z" fill="#9B51E0"/>
<path fill-rule="evenodd" clip-rule="evenodd" d="M17.2003 11.6L11.0003 17.9C10.7003 18.2 10.9003 18.8 11.4003 18.8H14.3003C14.4003 18.8 14.5003 18.9 14.5003 19V35H20.8003V19C20.8003 18.9 20.9003 18.8 21.0003 18.8H23.9003C24.3003 18.8 24.6003 18.3 24.3003 17.9L18.0003 11.6C17.8003 11.4 17.4003 11.4 17.2003 11.6Z" fill="white"/>
</svg>
