<svg id="Layer_1" data-name="Layer 1" xmlns="http://www.w3.org/2000/svg" viewBox="0 0 50 50"><path d="M32.49,42.36H12.34a2,2,0,0,1-2-2V2a2,2,0,0,1,2-2h31a2,2,0,0,1,2,2V29.56a2,2,0,1,1-4,0V4h-27V38.36H32.49a2,2,0,0,1,0,4Z" fill="#380d75"/><path d="M35.29,50.37H4.34a2,2,0,0,1-2-2V10a2,2,0,0,1,2-2H6.53a2,2,0,0,1,0,4H6.34V46.37h27v-2a2,2,0,0,1,4,0v4A2,2,0,0,1,35.29,50.37Z" fill="#380d75"/><path d="M36.7,15.23H18.94a2,2,0,0,1,0-4H36.7a2,2,0,0,1,0,4Z" fill="#380d75"/><path d="M28.65,22.49H18.8a2,2,0,0,1,0-4h9.85a2,2,0,0,1,0,4Z" fill="#380d75"/><path d="M32.49,42.36a2.06,2.06,0,0,1-.76-.15,2,2,0,0,1-1.24-1.85V29.56a2,2,0,0,1,2-2H43.3a2,2,0,0,1,1.84,1.23A2,2,0,0,1,44.71,31l-10.8,10.8A2,2,0,0,1,32.49,42.36Zm2-10.8v4l4-4Z" fill="#380d75"/></svg>