<svg id="Layer_1" data-name="Layer 1" xmlns="http://www.w3.org/2000/svg" viewBox="0 0 50 50"><path d="M25,43.79h0a20.54,20.54,0,0,1,16.07-7.54V6A20.5,20.5,0,0,0,25,13.52Z" fill="#fff"/><path d="M25,43.79h0A20.54,20.54,0,0,0,8.93,36.25V6A20.5,20.5,0,0,1,25,13.52Z" fill="#fff"/><path d="M25,45.79a2.09,2.09,0,0,1-.69-.12A2,2,0,0,1,23,43.79V13.52a2,2,0,0,1,.47-1.29A22.4,22.4,0,0,1,41.22,4a2,2,0,0,1,1.85,2V36.25a2,2,0,0,1-2.15,2,18.4,18.4,0,0,0-14.39,6.83A2,2,0,0,1,25,45.79Zm2-31.52V39.08A22.62,22.62,0,0,1,39.07,34.3V8A18.74,18.74,0,0,0,27,14.27Z" fill="#380d75"/><path d="M25,46a1.94,1.94,0,0,1-.74-.14A29.5,29.5,0,0,0,3,45.81a3.61,3.61,0,0,1-.58.19,2,2,0,0,1-1.65-.43A2,2,0,0,1,0,44V11.45a2,2,0,0,1,2-2H8.93a2,2,0,0,1,0,4H4V41.24a33.48,33.48,0,0,1,21.74.93A2,2,0,0,1,25,46Z" fill="#380d75"/><path d="M25,45.79a2,2,0,0,1-1.53-.71,18.41,18.41,0,0,0-14.4-6.83,2,2,0,0,1-1.5-.54,2,2,0,0,1-.64-1.46V6A2,2,0,0,1,8.78,4a22.4,22.4,0,0,1,17.75,8.24A2,2,0,0,1,27,13.52V43.79a2,2,0,0,1-1.31,1.88A2.09,2.09,0,0,1,25,45.79ZM10.93,34.3A22.62,22.62,0,0,1,23,39.08V14.27A18.77,18.77,0,0,0,10.93,8Z" fill="#380d75"/><path d="M48,46a2.31,2.31,0,0,1-.37,0,3.3,3.3,0,0,1-.58-.19,29.5,29.5,0,0,0-21.31.08l-1.48-3.72A33.48,33.48,0,0,1,46,41.24V13.45H41.07a2,2,0,0,1,0-4H48a2,2,0,0,1,2,2V44a2,2,0,0,1-.72,1.54A2,2,0,0,1,48,46Z" fill="#380d75"/></svg>