<svg width="35" height="35" viewBox="0 0 35 35" fill="none" xmlns="http://www.w3.org/2000/svg">
<path d="M17.5 35C27.165 35 35 27.165 35 17.5C35 7.83502 27.165 0 17.5 0C7.83502 0 0 7.83502 0 17.5C0 27.165 7.83502 35 17.5 35Z" fill="#5E5E5E"/>
<path d="M6.53339 14.8167C6.53339 13.0667 7.93339 11.55 9.80005 11.55C11.6667 11.55 13.0667 12.95 13.0667 14.8167" stroke="white" stroke-width="2" stroke-miterlimit="10" stroke-linecap="round" stroke-linejoin="round"/>
<path d="M21.9334 14.8167C21.9334 13.0667 23.3334 11.55 25.2001 11.55C26.9501 11.55 28.4667 12.95 28.4667 14.8167" stroke="white" stroke-width="2" stroke-miterlimit="10" stroke-linecap="round" stroke-linejoin="round"/>
<path d="M23.1 20.5333C23.1 23.5667 20.65 26.1333 17.5 26.1333C14.35 26.1333 11.9 23.6833 11.9 20.5333H23.1Z" fill="white"/>
<circle cx="17.5" cy="17.5" r="17.5" fill="#EB5757"/>
<path d="M19 14.5C19 13.8096 18.4404 13.25 17.75 13.25C17.0596 13.25 16.5 13.8096 16.5 14.5V18.7678L19.3661 21.6339C19.8542 22.122 20.6458 22.122 21.1339 21.6339C21.6221 21.1457 21.6221 20.3543 21.1339 19.8661L19 17.7322V14.5Z" fill="white"/>
<path fill-rule="evenodd" clip-rule="evenodd" d="M16.5 7C15.8096 7 15.25 7.55964 15.25 8.25C15.25 8.94036 15.8096 9.5 16.5 9.5V9.58861C12.2596 10.1951 9 13.8419 9 18.25C9 23.0825 12.9175 27 17.75 27C22.5825 27 26.5 23.0825 26.5 18.25C26.5 16.2801 25.849 14.4623 24.7504 12.9998C24.7969 12.9648 24.8416 12.9262 24.8839 12.8839L26.1339 11.6339C26.6221 11.1457 26.6221 10.3543 26.1339 9.86612C25.6458 9.37796 24.8542 9.37796 24.3661 9.86612L23.1161 11.1161C23.0737 11.1584 23.0352 11.203 23.0002 11.2495C21.8529 10.3876 20.4867 9.80126 19 9.58861V9.5C19.6904 9.5 20.25 8.94036 20.25 8.25C20.25 7.55964 19.6904 7 19 7H16.5ZM17.75 24.5C21.2018 24.5 24 21.7018 24 18.25C24 14.7982 21.2018 12 17.75 12C14.2982 12 11.5 14.7982 11.5 18.25C11.5 21.7018 14.2982 24.5 17.75 24.5Z" fill="white"/>
</svg>
