<svg id="Layer_1" data-name="Layer 1" xmlns="http://www.w3.org/2000/svg" viewBox="0 0 50 50"><path d="M25.48,43.78A80.28,80.28,0,0,1,5.24,41.23,7,7,0,0,1,0,34.44V15.5A7,7,0,0,1,5.22,8.72a2,2,0,1,1,1,3.86A3,3,0,0,0,4,15.5V34.44a3,3,0,0,0,2.25,2.92,73.6,73.6,0,0,0,37.33.15l.19-.06A3,3,0,0,0,46,34.53v-19a3,3,0,0,0-2.23-2.92,73.93,73.93,0,0,0-31.09-1.37A2,2,0,0,1,12,7.25,77.69,77.69,0,0,1,44.78,8.69,7,7,0,0,1,50,15.48V34.53a7,7,0,0,1-5.22,6.79v0c-2.87,1.11-10.12,2-11.61,2.15C31,43.63,28.39,43.78,25.48,43.78Z" fill="#341472"/><path d="M20.43,35.63a2.07,2.07,0,0,1-.94-.23,2,2,0,0,1-1.06-1.77V16.38a2,2,0,0,1,3.12-1.66l12.83,8.63a2,2,0,0,1,0,3.32L21.55,35.29A2,2,0,0,1,20.43,35.63Zm2-15.49v9.74L29.68,25Z" fill="#341472"/></svg>