<svg width="35" height="35" viewBox="0 0 35 35" fill="none" xmlns="http://www.w3.org/2000/svg">
<circle cx="17.5" cy="17.5" r="17.5" fill="#2F80ED"/>
<path d="M13.6376 13.7904C13.416 14.9097 12.4965 15.7576 11.3629 15.8881C10.3856 16.0007 9.625 16.8353 9.625 17.8438C9.625 18.4815 9.92829 19.0484 10.3984 19.4082C10.7252 19.647 10.9375 20.0331 10.9375 20.4688C10.9375 21.1936 10.3499 21.7812 9.625 21.7812C9.32123 21.7812 9.04133 21.6783 8.81887 21.505C7.71369 20.6661 7 19.3383 7 17.8438C7 15.4863 8.77577 13.5436 11.0627 13.2804C11.659 10.2698 14.3144 8 17.5 8C20.2139 8 22.5432 9.64745 23.542 11.9969C26.0657 12.3787 28 14.5572 28 17.1875C28 18.7602 27.3085 20.1714 26.2129 21.1336C26.1062 21.2332 25.7893 21.4326 25.375 21.4326C24.6501 21.4326 24.0625 20.845 24.0625 20.1201C24.0625 19.7119 24.2488 19.3473 24.5411 19.1066C25.0542 18.6274 25.375 17.9449 25.375 17.1875C25.375 15.8747 24.4088 14.7829 23.1493 14.5923C22.2485 14.456 21.4828 13.8624 21.1263 13.0239C20.5247 11.609 19.1243 10.625 17.5 10.625C15.5917 10.625 13.9952 11.9853 13.6376 13.7904Z" fill="white"/>
<path fill-rule="evenodd" clip-rule="evenodd" d="M13.3923 17.8554L14.8486 18.214C15.2629 17.8364 15.7581 17.5461 16.3052 17.372L16.7225 15.9322C16.9762 15.8945 17.2359 15.875 17.5001 15.875C17.7643 15.875 18.0239 15.8945 18.2776 15.9322L18.695 17.3721C19.242 17.5461 19.7372 17.8365 20.1515 18.214L21.6079 17.8554C21.9301 18.2597 22.1939 18.7126 22.3865 19.2014L21.3474 20.2836C21.4064 20.5547 21.4375 20.8362 21.4375 21.125C21.4375 21.4138 21.4064 21.6953 21.3474 21.9664L22.3865 23.0486C22.1939 23.5374 21.9301 23.9903 21.6079 24.3946L20.1515 24.036C19.7372 24.4135 19.242 24.7039 18.695 24.8779L18.2776 26.3178C18.0239 26.3555 17.7643 26.375 17.5001 26.375C17.2359 26.375 16.9762 26.3555 16.7225 26.3178L16.3052 24.878C15.7581 24.7039 15.2629 24.4136 14.8486 24.036L13.3923 24.3946C13.0701 23.9903 12.8063 23.5374 12.6137 23.0486L13.6526 21.9665C13.5936 21.6954 13.5625 21.4138 13.5625 21.125C13.5625 20.8362 13.5936 20.5546 13.6526 20.2835L12.6137 19.2014C12.8063 18.7126 13.0701 18.2597 13.3923 17.8554ZM17.5 22.4375C18.2249 22.4375 18.8125 21.8499 18.8125 21.125C18.8125 20.4001 18.2249 19.8125 17.5 19.8125C16.7751 19.8125 16.1875 20.4001 16.1875 21.125C16.1875 21.8499 16.7751 22.4375 17.5 22.4375Z" fill="white"/>
</svg>
