<svg width="35" height="35" viewBox="0 0 35 35" fill="none" xmlns="http://www.w3.org/2000/svg">
<path d="M17.5 35C27.165 35 35 27.165 35 17.5C35 7.83502 27.165 0 17.5 0C7.83502 0 0 7.83502 0 17.5C0 27.165 7.83502 35 17.5 35Z" fill="#5E5E5E"/>
<path fill-rule="evenodd" clip-rule="evenodd" d="M17.2 11.6L11 17.9C10.7 18.2 10.9 18.8 11.4 18.8H14.3C14.4 18.8 14.5 18.9 14.5 19V35H20.8V19C20.8 18.9 20.9 18.8 21 18.8H23.9C24.3 18.8 24.6 18.3 24.3 17.9L18 11.6C17.8 11.4 17.4 11.4 17.2 11.6Z" fill="white"/>
<path d="M17.5 35C27.165 35 35 27.165 35 17.5C35 7.83502 27.165 0 17.5 0C7.83502 0 0 7.83502 0 17.5C0 27.165 7.83502 35 17.5 35Z" fill="white"/>
<path d="M17.5 0C6.88042 0 0 7.84584 0 17.5C0 27.1542 6.88042 35 17.5 35C28.1196 35 35 27.1542 35 17.5C35 7.84584 28.1196 0 17.5 0ZM17.5 16.0417C20.1538 16.0417 22.3125 18.0041 22.3125 20.4167C22.3125 22.3153 20.9674 23.919 19.1042 24.5229V27.7083H15.8958V24.5229C14.0326 23.9189 12.6875 22.3153 12.6875 20.4167H15.8958C15.8958 21.2206 16.6157 21.875 17.5 21.875C18.3843 21.875 19.1042 21.2206 19.1042 20.4167C19.1042 19.6127 18.3843 18.9583 17.5 18.9583C14.8462 18.9583 12.6875 16.9958 12.6875 14.5833C12.6875 12.6847 14.0326 11.081 15.8958 10.4771V7.29167H19.1042V10.4771C20.9674 11.081 22.3125 12.6847 22.3125 14.5833H19.1042C19.1042 13.7794 18.3843 13.125 17.5 13.125C16.6157 13.125 15.8958 13.7794 15.8958 14.5833C15.8958 15.3873 16.6157 16.0417 17.5 16.0417Z" fill="#1DBA9E"/>
</svg>
