<?xml version="1.0" encoding="utf-8"?>
<!-- Generator: Adobe Illustrator 25.0.1, SVG Export Plug-In . SVG Version: 6.00 Build 0)  -->
<svg version="1.1" id="Layer_1" xmlns="http://www.w3.org/2000/svg" xmlns:xlink="http://www.w3.org/1999/xlink" x="0px" y="0px"
	 viewBox="0 0 50 50" style="enable-background:new 0 0 50 50;" xml:space="preserve">
<style type="text/css">
	.st0{fill:#49F2BA;}
	.st1{fill:none;stroke:#380D75;stroke-width:5;stroke-linecap:round;stroke-linejoin:round;stroke-miterlimit:10;}
	.st2{fill:#DE3BED;}
	.st3{fill:none;stroke:#380D75;stroke-width:4;stroke-linecap:round;stroke-linejoin:round;stroke-miterlimit:10;}
	.st4{fill:#18A3FF;}
	.st5{fill:#FFDE75;}
	.st6{fill:#FF7575;}
	.st7{fill:#38F2AF;}
	.st8{fill:#AC7FFF;}
	.st9{fill:#FCA121;}
	.st10{fill:#FF675F;}
	.st11{fill:none;stroke:#380D75;stroke-width:5;stroke-linecap:square;stroke-miterlimit:10;}
	.st12{fill:none;stroke:#380D75;stroke-width:5;stroke-miterlimit:10;}
	.st13{fill:#CAB5FF;}
	.st14{fill:#FC6D26;}
	.st15{fill:#380D75;stroke:#380D75;stroke-width:4;stroke-linecap:round;stroke-linejoin:round;stroke-miterlimit:10;}
	.st16{fill:#E24329;}
	.st17{fill:#FCA326;}
	
		.st18{fill-rule:evenodd;clip-rule:evenodd;fill:none;stroke:#380D75;stroke-width:4;stroke-linecap:round;stroke-linejoin:round;stroke-miterlimit:10;}
	.st19{fill:none;stroke:#341472;stroke-width:4;stroke-linecap:round;stroke-linejoin:round;stroke-miterlimit:10;}
	.st20{fill:#AFA3C6;}
	.st21{fill:none;stroke:#AFA3C6;stroke-width:4;stroke-linecap:round;stroke-linejoin:round;stroke-miterlimit:10;}
	.st22{fill:none;stroke:#341472;stroke-width:5;stroke-linecap:round;stroke-linejoin:round;stroke-miterlimit:10;}
	.st23{fill:#E04733;}
	.st24{fill:none;stroke:#FF675F;stroke-width:4;stroke-linecap:round;stroke-linejoin:round;stroke-miterlimit:10;}
	.st25{fill:none;stroke:#38F2AF;stroke-width:4;stroke-linecap:round;stroke-linejoin:round;stroke-miterlimit:10;}
	.st26{fill:#E5E0FC;}
	.st27{fill:#DFD7FF;}
	.st28{fill:#6E49CB;}
	.st29{fill-rule:evenodd;clip-rule:evenodd;fill:#FC6D26;}
	.st30{fill-rule:evenodd;clip-rule:evenodd;fill:#AC7FFF;}
	.st31{fill:none;stroke:#E5E0FC;stroke-width:4;stroke-linecap:round;stroke-linejoin:round;stroke-miterlimit:10;}
	.st32{fill:#FFC46C;}
	.st33{fill:none;stroke:#380D75;stroke-width:4;stroke-linecap:round;stroke-linejoin:round;}
	.st34{fill:none;stroke:#380D75;stroke-width:4;stroke-linecap:round;stroke-linejoin:round;stroke-dasharray:10.6532,10.6532;}
	.st35{fill:#5AC4FF;}
	.st36{fill:#AFAAE5;}
	.st37{fill:#BC2922;}
	.st38{fill:#00DBB1;}
	.st39{fill:#0B8ED6;}
	.st40{fill:#F76F8C;}
	.st41{fill:#FF908D;}
	.st42{fill:#380D75;}
	.st43{fill:#E58615;}
	.st44{fill:#FFD8A4;}
	.st45{fill:#E5DAD1;}
	.st46{fill:#FCF7F2;}
	.st47{fill:#E85929;}
	.st48{fill:#584088;}
	.st49{fill:#7F6997;}
	.st50{opacity:0.25;fill:none;stroke:#341472;stroke-width:4;stroke-linecap:round;stroke-linejoin:round;stroke-miterlimit:10;}
	
		.st51{opacity:0.15;fill:none;stroke:#3C257B;stroke-width:4;stroke-linecap:round;stroke-linejoin:round;stroke-miterlimit:10;stroke-dasharray:12,20;}
	.st52{fill:#F9F7FF;}
	.st53{fill:#D9D3EA;}
	.st54{fill:#978ACE;}
	.st55{fill:#FF9769;}
	.st56{fill:#FFD8CC;}
	.st57{fill:none;stroke:#380D75;stroke-width:2.5;stroke-linecap:round;stroke-linejoin:round;stroke-miterlimit:10;}
	.st58{opacity:0.25;fill:none;stroke:#341472;stroke-width:2.5;stroke-linecap:round;stroke-linejoin:round;stroke-miterlimit:10;}
	.st59{fill:#FFFFFF;}
	.st60{fill:none;stroke:#FF0815;stroke-width:4;stroke-linecap:round;stroke-linejoin:round;stroke-miterlimit:10;}
	.st61{fill:#341472;stroke:#341472;stroke-width:4;stroke-linecap:round;stroke-linejoin:round;stroke-miterlimit:10;}
	.st62{fill-rule:evenodd;clip-rule:evenodd;fill:#FCA121;}
	.st63{fill:#2269ED;}
</style>
<g>
	<g>
		<g>
			<path class="st42" d="M40.5,42.9H28.7c-1.1,0-2-0.9-2-2s0.9-2,2-2h11.8c1.1,0,2-0.9,2-2V6c0-1.1-0.9-2-2-2h-31c-1.1,0-2,0.9-2,2
				v30.9c0,1.1,0.9,2,2,2h7.4c1.1,0,2,0.9,2,2s-0.9,2-2,2H9.5c-3.3,0-6-2.7-6-6V6c0-3.3,2.7-6,6-6h31c3.3,0,6,2.7,6,6v30.9
				C46.5,40.2,43.8,42.9,40.5,42.9z"/>
		</g>
		<g>
			<path class="st42" d="M35.5,21.1h-21c-1.1,0-2-0.9-2-2v-8.7c0-1.1,0.9-2,2-2h21c1.1,0,2,0.9,2,2v8.7
				C37.5,20.2,36.6,21.1,35.5,21.1z M16.5,17.1h17v-4.7h-17V17.1z"/>
		</g>
		<g>
			<path class="st42" d="M27.2,34.5H14.5c-1.1,0-2-0.9-2-2c0-1.1,0.9-2,2-2h12.7c1.1,0,2,0.9,2,2C29.2,33.6,28.3,34.5,27.2,34.5z"/>
		</g>
		<g>
			<path class="st42" d="M35.5,27.8h-21c-1.1,0-2-0.9-2-2s0.9-2,2-2h21c1.1,0,2,0.9,2,2S36.6,27.8,35.5,27.8z"/>
		</g>
		<g>
			<path class="st42" d="M16.9,50c-0.3,0-0.7-0.1-1-0.3c-0.6-0.4-1-1-1-1.7v-7.1c0-1.1,0.9-2,2-2s2,0.9,2,2v3.6l8.7-5.3
				c0.9-0.6,2.2-0.3,2.7,0.7c0.6,0.9,0.3,2.2-0.7,2.7L18,49.7C17.7,49.9,17.3,50,16.9,50z"/>
		</g>
	</g>
</g>
</svg>
