<svg width="35" height="35" viewBox="0 0 35 35" fill="none" xmlns="http://www.w3.org/2000/svg">
<g clip-path="url(#clip0)">
<path d="M17.5 34.9947C27.165 34.9947 35 27.1609 35 17.4974C35 7.83384 27.165 0 17.5 0C7.83502 0 0 7.83384 0 17.4974C0 27.1609 7.83502 34.9947 17.5 34.9947Z" fill="#D04A81"/>
<path fill-rule="evenodd" clip-rule="evenodd" d="M17.1998 11.5982L10.9998 17.8973C10.6998 18.1972 10.8998 18.7971 11.3998 18.7971H14.2998C14.3998 18.7971 14.4998 18.8971 14.4998 18.9971V34.9947H20.7998V18.9971C20.7998 18.8971 20.8998 18.7971 20.9998 18.7971H23.8998C24.2998 18.7971 24.5998 18.2972 24.2998 17.8973L17.9998 11.5982C17.7998 11.3982 17.3998 11.3982 17.1998 11.5982Z" fill="white"/>
</g>
<defs>
<clipPath id="clip0">
<rect width="35" height="34.9947" rx="4" fill="white"/>
</clipPath>
</defs>
</svg>
