<?xml version="1.0" encoding="utf-8"?>
<!-- Generator: Adobe Illustrator 25.0.1, SVG Export Plug-In . SVG Version: 6.00 Build 0)  -->
<svg version="1.1" id="Layer_1" xmlns="http://www.w3.org/2000/svg" xmlns:xlink="http://www.w3.org/1999/xlink" x="0px" y="0px"
	 viewBox="0 0 50 50" style="enable-background:new 0 0 50 50;" xml:space="preserve">
<style type="text/css">
	.st0{fill:#49F2BA;}
	.st1{fill:none;stroke:#380D75;stroke-width:5;stroke-linecap:round;stroke-linejoin:round;stroke-miterlimit:10;}
	.st2{fill:#DE3BED;}
	.st3{fill:none;stroke:#380D75;stroke-width:4;stroke-linecap:round;stroke-linejoin:round;stroke-miterlimit:10;}
	.st4{fill:#18A3FF;}
	.st5{fill:#FFDE75;}
	.st6{fill:#FF7575;}
	.st7{fill:#38F2AF;}
	.st8{fill:#AC7FFF;}
	.st9{fill:#FCA121;}
	.st10{fill:#FF675F;}
	.st11{fill:none;stroke:#380D75;stroke-width:5;stroke-linecap:square;stroke-miterlimit:10;}
	.st12{fill:none;stroke:#380D75;stroke-width:5;stroke-miterlimit:10;}
	.st13{fill:#CAB5FF;}
	.st14{fill:#FC6D26;}
	.st15{fill:#380D75;stroke:#380D75;stroke-width:4;stroke-linecap:round;stroke-linejoin:round;stroke-miterlimit:10;}
	.st16{fill:#E24329;}
	.st17{fill:#FCA326;}
	
		.st18{fill-rule:evenodd;clip-rule:evenodd;fill:none;stroke:#380D75;stroke-width:4;stroke-linecap:round;stroke-linejoin:round;stroke-miterlimit:10;}
	.st19{fill:none;stroke:#341472;stroke-width:4;stroke-linecap:round;stroke-linejoin:round;stroke-miterlimit:10;}
	.st20{fill:#AFA3C6;}
	.st21{fill:none;stroke:#AFA3C6;stroke-width:4;stroke-linecap:round;stroke-linejoin:round;stroke-miterlimit:10;}
	.st22{fill:none;stroke:#341472;stroke-width:5;stroke-linecap:round;stroke-linejoin:round;stroke-miterlimit:10;}
	.st23{fill:#E04733;}
	.st24{fill:none;stroke:#FF675F;stroke-width:4;stroke-linecap:round;stroke-linejoin:round;stroke-miterlimit:10;}
	.st25{fill:none;stroke:#38F2AF;stroke-width:4;stroke-linecap:round;stroke-linejoin:round;stroke-miterlimit:10;}
	.st26{fill:#E5E0FC;}
	.st27{fill:#DFD7FF;}
	.st28{fill:#6E49CB;}
	.st29{fill-rule:evenodd;clip-rule:evenodd;fill:#FC6D26;}
	.st30{fill-rule:evenodd;clip-rule:evenodd;fill:#AC7FFF;}
	.st31{fill:none;stroke:#E5E0FC;stroke-width:4;stroke-linecap:round;stroke-linejoin:round;stroke-miterlimit:10;}
	.st32{fill:#FFC46C;}
	.st33{fill:none;stroke:#380D75;stroke-width:4;stroke-linecap:round;stroke-linejoin:round;}
	.st34{fill:none;stroke:#380D75;stroke-width:4;stroke-linecap:round;stroke-linejoin:round;stroke-dasharray:10.6532,10.6532;}
	.st35{fill:#5AC4FF;}
	.st36{fill:#AFAAE5;}
	.st37{fill:#BC2922;}
	.st38{fill:#00DBB1;}
	.st39{fill:#0B8ED6;}
	.st40{fill:#F76F8C;}
	.st41{fill:#FF908D;}
	.st42{fill:#380D75;}
	.st43{fill:#E58615;}
	.st44{fill:#FFD8A4;}
	.st45{fill:#E5DAD1;}
	.st46{fill:#FCF7F2;}
	.st47{fill:#E85929;}
	.st48{fill:#584088;}
	.st49{fill:#7F6997;}
	.st50{opacity:0.25;fill:none;stroke:#341472;stroke-width:4;stroke-linecap:round;stroke-linejoin:round;stroke-miterlimit:10;}
	
		.st51{opacity:0.15;fill:none;stroke:#3C257B;stroke-width:4;stroke-linecap:round;stroke-linejoin:round;stroke-miterlimit:10;stroke-dasharray:12,20;}
	.st52{fill:#F9F7FF;}
	.st53{fill:#D9D3EA;}
	.st54{fill:#978ACE;}
	.st55{fill:#FF9769;}
	.st56{fill:#FFD8CC;}
	.st57{fill:none;stroke:#380D75;stroke-width:2.5;stroke-linecap:round;stroke-linejoin:round;stroke-miterlimit:10;}
	.st58{opacity:0.25;fill:none;stroke:#341472;stroke-width:2.5;stroke-linecap:round;stroke-linejoin:round;stroke-miterlimit:10;}
	.st59{fill:#FFFFFF;}
	.st60{fill:none;stroke:#FF0815;stroke-width:4;stroke-linecap:round;stroke-linejoin:round;stroke-miterlimit:10;}
	.st61{fill:#341472;stroke:#341472;stroke-width:4;stroke-linecap:round;stroke-linejoin:round;stroke-miterlimit:10;}
	.st62{fill-rule:evenodd;clip-rule:evenodd;fill:#FCA121;}
	.st63{fill:#2269ED;}
</style>
<g>
	<g>
		<path class="st42" d="M29.3,44.7c-8.6,0-15.6-7-15.6-15.6c0-8.6,7-15.6,15.6-15.6s15.6,7,15.6,15.6C44.8,37.7,37.9,44.7,29.3,44.7
			z M29.3,17.6c-6.4,0-11.6,5.2-11.6,11.6c0,6.4,5.2,11.6,11.6,11.6s11.6-5.2,11.6-11.6C40.8,22.8,35.7,17.6,29.3,17.6z"/>
	</g>
	<g>
		<path class="st42" d="M43.9,50c-0.2,0-0.4,0-0.5,0c-1.8-0.2-3.5-1.1-4.5-2.6l-1.1-1.6c-0.6-0.9-0.4-2.2,0.5-2.8
			c0.9-0.6,2.2-0.4,2.8,0.5l1.1,1.6c0.4,0.5,0.9,0.9,1.6,0.9c0.6,0.1,1.3-0.2,1.7-0.6c0.5-0.5,0.7-1.1,0.6-1.7
			c-0.1-0.6-0.4-1.2-0.9-1.6l-5.2-3.6c-0.9-0.6-1.1-1.9-0.5-2.8c0.6-0.9,1.9-1.1,2.8-0.5l5.2,3.6c1.5,1,2.5,2.7,2.6,4.5
			s-0.5,3.6-1.8,4.9C47.1,49.4,45.5,50,43.9,50z"/>
	</g>
	<g>
		<path class="st42" d="M28.4,17.6c-1.1,0-2-0.9-2-2V4H12.6c-1.1,0-2-0.9-2-2s0.9-2,2-2h15.8c1.1,0,2,0.9,2,2v13.6
			C30.4,16.7,29.5,17.6,28.4,17.6z"/>
	</g>
	<g>
		<path class="st42" d="M19.5,41.8H2c-1.1,0-2-0.9-2-2V18.9c0-1.1,0.9-2,2-2s2,0.9,2,2v18.9h15.5c1.1,0,2,0.9,2,2
			S20.7,41.8,19.5,41.8z"/>
	</g>
	<g>
		<path class="st42" d="M12.6,14.6H2c-0.8,0-1.5-0.5-1.8-1.2c-0.3-0.7-0.1-1.6,0.4-2.2L11.2,0.6c0.6-0.6,1.4-0.7,2.2-0.4
			c0.7,0.3,1.2,1,1.2,1.8v10.6C14.6,13.7,13.7,14.6,12.6,14.6z M6.8,10.6h3.8V6.8L6.8,10.6z"/>
	</g>
	<g>
		<path class="st42" d="M34.6,27.6H25c-1.1,0-2-0.9-2-2c0-1.1,0.9-2,2-2h9.6c1.1,0,2,0.9,2,2C36.6,26.7,35.7,27.6,34.6,27.6z"/>
	</g>
	<g>
		<path class="st42" d="M29.3,34.2H25c-1.1,0-2-0.9-2-2c0-1.1,0.9-2,2-2h4.3c1.1,0,2,0.9,2,2C31.3,33.3,30.4,34.2,29.3,34.2z"/>
	</g>
</g>
</svg>
