<svg id="Layer_1" data-name="Layer 1" xmlns="http://www.w3.org/2000/svg" viewBox="0 0 50 50"><path d="M43.93,31.17a2,2,0,0,1-2-2V13.5a2.1,2.1,0,0,0-2.1-2.1H10.17a2.1,2.1,0,0,0-2.1,2.1V29.17a2,2,0,0,1-4,0V13.5a6.11,6.11,0,0,1,6.1-6.1H39.83a6.11,6.11,0,0,1,6.1,6.1V29.17A2,2,0,0,1,43.93,31.17Z" fill="#380d75"/><path d="M44.8,42.6H5.2A5.2,5.2,0,0,1,0,37.4V34.21a2,2,0,0,1,2-2H48a2,2,0,0,1,2,2V37.4A5.2,5.2,0,0,1,44.8,42.6ZM4,36.21V37.4a1.2,1.2,0,0,0,1.2,1.2H44.8A1.2,1.2,0,0,0,46,37.4V36.21Z" fill="#380d75"/><path d="M21.57,30.44a2.09,2.09,0,0,1-.93-.23,2,2,0,0,1-1.07-1.77V15.37a2,2,0,0,1,3.14-1.65l9.48,6.53a2,2,0,0,1,0,3.3l-9.48,6.53A2,2,0,0,1,21.57,30.44Zm2-11.27v5.46l4-2.73Z" fill="#380d75"/></svg>