<?xml version="1.0" encoding="utf-8"?>
<!-- Generator: Adobe Illustrator 25.0.1, SVG Export Plug-In . SVG Version: 6.00 Build 0)  -->
<svg version="1.1" id="Layer_1" xmlns="http://www.w3.org/2000/svg" xmlns:xlink="http://www.w3.org/1999/xlink" x="0px" y="0px"
	 viewBox="0 0 50 50" style="enable-background:new 0 0 50 50;" xml:space="preserve">
<style type="text/css">
	.st0{fill:#49F2BA;}
	.st1{fill:none;stroke:#380D75;stroke-width:5;stroke-linecap:round;stroke-linejoin:round;stroke-miterlimit:10;}
	.st2{fill:#DE3BED;}
	.st3{fill:none;stroke:#380D75;stroke-width:4;stroke-linecap:round;stroke-linejoin:round;stroke-miterlimit:10;}
	.st4{fill:#18A3FF;}
	.st5{fill:#FFDE75;}
	.st6{fill:#FF7575;}
	.st7{fill:#38F2AF;}
	.st8{fill:#AC7FFF;}
	.st9{fill:#FCA121;}
	.st10{fill:#FF675F;}
	.st11{fill:none;stroke:#380D75;stroke-width:5;stroke-linecap:square;stroke-miterlimit:10;}
	.st12{fill:none;stroke:#380D75;stroke-width:5;stroke-miterlimit:10;}
	.st13{fill:#CAB5FF;}
	.st14{fill:#FC6D26;}
	.st15{fill:#380D75;stroke:#380D75;stroke-width:4;stroke-linecap:round;stroke-linejoin:round;stroke-miterlimit:10;}
	.st16{fill:#E24329;}
	.st17{fill:#FCA326;}
	
		.st18{fill-rule:evenodd;clip-rule:evenodd;fill:none;stroke:#380D75;stroke-width:4;stroke-linecap:round;stroke-linejoin:round;stroke-miterlimit:10;}
	.st19{fill:none;stroke:#341472;stroke-width:4;stroke-linecap:round;stroke-linejoin:round;stroke-miterlimit:10;}
	.st20{fill:#AFA3C6;}
	.st21{fill:none;stroke:#AFA3C6;stroke-width:4;stroke-linecap:round;stroke-linejoin:round;stroke-miterlimit:10;}
	.st22{fill:none;stroke:#341472;stroke-width:5;stroke-linecap:round;stroke-linejoin:round;stroke-miterlimit:10;}
	.st23{fill:#E04733;}
	.st24{fill:none;stroke:#FF675F;stroke-width:4;stroke-linecap:round;stroke-linejoin:round;stroke-miterlimit:10;}
	.st25{fill:none;stroke:#38F2AF;stroke-width:4;stroke-linecap:round;stroke-linejoin:round;stroke-miterlimit:10;}
	.st26{fill:#E5E0FC;}
	.st27{fill:#DFD7FF;}
	.st28{fill:#6E49CB;}
	.st29{fill-rule:evenodd;clip-rule:evenodd;fill:#FC6D26;}
	.st30{fill-rule:evenodd;clip-rule:evenodd;fill:#AC7FFF;}
	.st31{fill:none;stroke:#E5E0FC;stroke-width:4;stroke-linecap:round;stroke-linejoin:round;stroke-miterlimit:10;}
	.st32{fill:#FFC46C;}
	.st33{fill:none;stroke:#380D75;stroke-width:4;stroke-linecap:round;stroke-linejoin:round;}
	.st34{fill:none;stroke:#380D75;stroke-width:4;stroke-linecap:round;stroke-linejoin:round;stroke-dasharray:10.6532,10.6532;}
	.st35{fill:#5AC4FF;}
	.st36{fill:#AFAAE5;}
	.st37{fill:#BC2922;}
	.st38{fill:#00DBB1;}
	.st39{fill:#0B8ED6;}
	.st40{fill:#F76F8C;}
	.st41{fill:#FF908D;}
	.st42{fill:#380D75;}
	.st43{fill:#E58615;}
	.st44{fill:#FFD8A4;}
	.st45{fill:#E5DAD1;}
	.st46{fill:#FCF7F2;}
	.st47{fill:#E85929;}
	.st48{fill:#584088;}
	.st49{fill:#7F6997;}
	.st50{opacity:0.25;fill:none;stroke:#341472;stroke-width:4;stroke-linecap:round;stroke-linejoin:round;stroke-miterlimit:10;}
	
		.st51{opacity:0.15;fill:none;stroke:#3C257B;stroke-width:4;stroke-linecap:round;stroke-linejoin:round;stroke-miterlimit:10;stroke-dasharray:12,20;}
	.st52{fill:#F9F7FF;}
	.st53{fill:#D9D3EA;}
	.st54{fill:#978ACE;}
	.st55{fill:#FF9769;}
	.st56{fill:#FFD8CC;}
	.st57{fill:none;stroke:#380D75;stroke-width:2.5;stroke-linecap:round;stroke-linejoin:round;stroke-miterlimit:10;}
	.st58{opacity:0.25;fill:none;stroke:#341472;stroke-width:2.5;stroke-linecap:round;stroke-linejoin:round;stroke-miterlimit:10;}
	.st59{fill:#FFFFFF;}
	.st60{fill:none;stroke:#FF0815;stroke-width:4;stroke-linecap:round;stroke-linejoin:round;stroke-miterlimit:10;}
	.st61{fill:#341472;stroke:#341472;stroke-width:4;stroke-linecap:round;stroke-linejoin:round;stroke-miterlimit:10;}
	.st62{fill-rule:evenodd;clip-rule:evenodd;fill:#FCA121;}
	.st63{fill:#2269ED;}
</style>
<g>
	<g>
		<path class="st42" d="M25,34.5c-6.4,0-11.7-5.2-11.7-11.7V11.7C13.3,5.2,18.6,0,25,0s11.7,5.2,11.7,11.7v11.2
			C36.7,29.3,31.4,34.5,25,34.5z M25,4c-4.2,0-7.7,3.4-7.7,7.7v11.2c0,4.2,3.4,7.7,7.7,7.7s7.7-3.4,7.7-7.7V11.7
			C32.7,7.4,29.2,4,25,4z"/>
	</g>
	<g>
		<path class="st42" d="M25,41.4c-10.3,0-18.6-8.3-18.6-18.6c0-1.1,0.9-2,2-2s2,0.9,2,2c0,8.1,6.6,14.6,14.6,14.6
			s14.6-6.6,14.6-14.6c0-1.1,0.9-2,2-2s2,0.9,2,2C43.6,33.1,35.3,41.4,25,41.4z"/>
	</g>
	<g>
		<path class="st42" d="M25,50c-1.1,0-2-0.9-2-2v-8.6c0-1.1,0.9-2,2-2s2,0.9,2,2V48C27,49.1,26.1,50,25,50z"/>
	</g>
	<g>
		<path class="st42" d="M31.3,50H18.7c-1.1,0-2-0.9-2-2s0.9-2,2-2h12.6c1.1,0,2,0.9,2,2S32.4,50,31.3,50z"/>
	</g>
	<g>
		<path class="st42" d="M41.6,19.3H8.4c-1.1,0-2-0.9-2-2s0.9-2,2-2h33.2c1.1,0,2,0.9,2,2S42.7,19.3,41.6,19.3z"/>
	</g>
</g>
</svg>
