<svg viewBox="0 0 289.06 219.06" xmlns="http://www.w3.org/2000/svg"><path d="m62.32 46.28h157.26a10.25 10.25 0 0 1 10.25 10.25v19.2a0 0 0 0 1 0 0h-177.76a0 0 0 0 1 0 0v-19.19a10.25 10.25 0 0 1 10.25-10.26z" fill="#afa3c6"/><path d="m229.84 85.63h36.65c10.89 0 20.17-8.47 20.55-19.35a20.08 20.08 0 0 0 -20.04-20.82h-.32a24.9 24.9 0 0 0 -40.61-23 29.73 29.73 0 0 0 -26.17-15.52c-16.34 0-29.71 14-29.71 30.34v9h51.08a8.57 8.57 0 0 1 8.57 8.57z" fill="#e5e0fc"/><path d="m199.9 23.16a29.72 29.72 0 0 1 26.1 15.51 24.9 24.9 0 0 1 40.61 23h.32a20.08 20.08 0 0 1 18.34 11.95 19.42 19.42 0 0 0 1.73-7.34 20.08 20.08 0 0 0 -20-20.82h-.32a24.9 24.9 0 0 0 -40.61-23 29.73 29.73 0 0 0 -26.17-15.52c-16.34 0-29.71 14-29.71 30.34v9h.89c3.23-13.03 14.92-23.11 28.82-23.12z" fill="#fff"/><path d="m52.07 64.88c-.45 0-.91.06-1.37.06a14.07 14.07 0 1 1 13.3-18.66h34.64c-.09-1-.2-1.92-.35-2.87l-8.12-2.95a7.49 7.49 0 0 1 -4.17-10.13l3.65-7.82a48.52 48.52 0 0 0 -10.59-10.51l-7.82 3.6a7.49 7.49 0 0 1 -10.13-4.2l-3-8.12a48.47 48.47 0 0 0 -14.92 0l-3 8.12a7.48 7.48 0 0 1 -10.12 4.2l-7.73-3.6a48.3 48.3 0 0 0 -10.56 10.51l3.65 7.82a7.49 7.49 0 0 1 -4.2 10.13l-8.12 2.95a48.46 48.46 0 0 0 0 14.92l8.12 3a7.44 7.44 0 0 1 4.2 10.13l-3.65 7.82a48.08 48.08 0 0 0 10.56 10.51l7.82-3.65a7.47 7.47 0 0 1 10.12 4.2l3 8.12a48.62 48.62 0 0 0 8.83.55z" fill="#e5e0fc"/><circle cx="140.96" cy="198.57" fill="#00dbb1" r="18.12"/><g fill="#380d75"><path d="m43.09 101a2 2 0 0 1 -1.88-1.32l-3-8.2a5.57 5.57 0 0 0 -7.5-3.11l-7.87 3.73a2 2 0 0 1 -2-.2 50.72 50.72 0 0 1 -11.12-11.09 2 2 0 0 1 -.2-2l3.69-7.89a5.56 5.56 0 0 0 -3.11-7.5l-8.2-3a2 2 0 0 1 -1.29-1.58 50.89 50.89 0 0 1 0-15.68 2 2 0 0 1 1.29-1.58l8.2-3a5.49 5.49 0 0 0 3.18-3.07 5.55 5.55 0 0 0 -.07-4.43l-3.69-7.87a2 2 0 0 1 .2-2 50.77 50.77 0 0 1 11.09-11.1 2 2 0 0 1 2-.2l7.89 3.69a5.56 5.56 0 0 0 7.5-3.11l3-8.2a2 2 0 0 1 1.58-1.29 50.89 50.89 0 0 1 15.68 0 2 2 0 0 1 1.54 1.27l3 8.2a5.56 5.56 0 0 0 7.5 3.11l7.89-3.69a2 2 0 0 1 2 .2 51.16 51.16 0 0 1 11.14 11.09 2 2 0 0 1 .2 2l-3.73 7.92a2 2 0 1 1 -3.62-1.69l3.17-6.81a46.36 46.36 0 0 0 -8.55-8.6l-6.79 3.2a9.55 9.55 0 0 1 -12.95-5.36l-2.57-7.07a46.47 46.47 0 0 0 -12.13 0l-2.56 7.07a9.55 9.55 0 0 1 -13 5.36l-6.77-3.2a46.72 46.72 0 0 0 -8.58 8.57l3.18 6.81a9.55 9.55 0 0 1 -5.36 13l-7.08 2.55a47.35 47.35 0 0 0 0 12.13l7.08 2.57a9.56 9.56 0 0 1 5.36 12.95l-3.18 6.81a47.09 47.09 0 0 0 8.58 8.61l6.77-3.21a9.57 9.57 0 0 1 13 5.37l3 8.19a2 2 0 0 1 -1.91 2.65zm-1.77-36.54a2 2 0 0 1 -1.26-.46 16.76 16.76 0 1 1 21.58-25.64 2 2 0 1 1 -2.63 3 12.77 12.77 0 1 0 -16.43 19.55 2 2 0 0 1 -1.26 3.55z"/><path d="m219.84 200.57h-47.94a2 2 0 0 1 0-4h47.94a8 8 0 0 0 8-8v-132.29a8 8 0 0 0 -8-8h-157.77a8 8 0 0 0 -8 8v132.29a8 8 0 0 0 8 8h47.93a2 2 0 0 1 0 4h-47.93a12 12 0 0 1 -12-12v-132.29a12 12 0 0 1 12-12h157.77a12 12 0 0 1 12 12v132.29a12 12 0 0 1 -12 12z"/><path d="m229.84 77.73h-177.77a2 2 0 0 1 0-4h177.77a2 2 0 0 1 0 4z"/><path d="m267 87.63h-24.7a2 2 0 1 1 0-4h24.7a18.09 18.09 0 1 0 0-36.17h-.29a2 2 0 0 1 -1.54-.69 2 2 0 0 1 -.47-1.62 22.68 22.68 0 0 0 .3-3.66 22.9 22.9 0 0 0 -37.68-17.49 2 2 0 0 1 -1.65.44 2 2 0 0 1 -1.39-1 27.74 27.74 0 0 0 -52.09 13.27 2 2 0 1 1 -4 0 31.73 31.73 0 0 1 58.41-17.22 26.89 26.89 0 0 1 42.4 22.01c0 .68 0 1.36-.08 2a22.09 22.09 0 0 1 -1.92 44.13z"/><path d="m141 218.69a20.12 20.12 0 1 1 20.12-20.12 20.13 20.13 0 0 1 -20.12 20.12zm0-36.23a16.12 16.12 0 1 0 16.12 16.11 16.13 16.13 0 0 0 -16.12-16.11z"/></g><path d="m141 162.38 13.36-40.63h-26.77z" fill="#e24329"/><path d="m140.94 162.38-13.36-40.63h-18.71z" fill="#fc6d26"/><path d="m108.86 121.76-4.06 12.35a2.72 2.72 0 0 0 1 3.06l35.13 25.22z" fill="#fca326"/><path d="m108.87 121.76h18.72l-8.06-24.46a1.39 1.39 0 0 0 -2.63 0l-8 24.46z" fill="#e24329"/><path d="m141 162.38 13.36-40.63h18.64z" fill="#fc6d26"/><path d="m173 121.76 4.07 12.35a2.72 2.72 0 0 1 -1 3.06l-35.07 25.21z" fill="#fca326"/><path d="m173 121.76h-18.69l8-24.46a1.39 1.39 0 0 1 2.64 0l8 24.46z" fill="#e24329"/><g fill="#380d75"><path d="m141 163.88a2 2 0 0 1 -1.9-1.37l-13.36-40.63a2 2 0 0 1 1.9-2.63h26.72a2 2 0 0 1 1.9 2.63l-13.36 40.63a2 2 0 0 1 -1.9 1.37zm-10.6-40.63 10.6 32.23 10.6-32.23z"/><path d="m141 163.88a2 2 0 0 1 -1.57-.76l-32.07-40.63a2 2 0 0 1 1.57-3.24h18.71a2 2 0 0 1 1.9 1.38l13.36 40.63a2 2 0 0 1 -.95 2.38 2 2 0 0 1 -.95.24zm-28-40.63 22.52 28.53-9.38-28.53z"/><path d="m141 163.9a2 2 0 0 1 -1.16-.38l-35.14-25.23a4.71 4.71 0 0 1 -1.74-5.3l4.04-12.35a2 2 0 0 1 3.47-.61l32.07 40.63a2 2 0 0 1 -1.54 3.24zm-31.33-38.47-2.91 8.81a.75.75 0 0 0 .27.81l23.57 16.95z"/><path d="m127.63 123.27h-18.72a2 2 0 0 1 -1.9-2.62l8-24.47a3.37 3.37 0 0 1 3.25-2.32 3.34 3.34 0 0 1 3.19 2.31l8.06 24.47a2 2 0 0 1 -1.9 2.63zm-16-4h13.2l-6.62-20.08z"/><path d="m141 163.88a2 2 0 0 1 -1-.24 2 2 0 0 1 -.95-2.38l13.36-40.63a2 2 0 0 1 1.9-1.38h18.72a2 2 0 0 1 1.57 3.24l-32.08 40.63a2 2 0 0 1 -1.52.76zm14.81-40.63-9.38 28.53 22.57-28.53z"/><path d="m141 163.88a2 2 0 0 1 -1.57-3.24l32.06-40.64a2 2 0 0 1 3.47.61l4.04 12.39a4.7 4.7 0 0 1 -1.74 5.3l-35.13 25.22a2 2 0 0 1 -1.13.36zm31.33-38.45-21 26.55 23.67-16.98a.71.71 0 0 0 .27-.8z"/><path d="m173.07 123.27h-18.72a2 2 0 0 1 -1.9-2.62l8-24.47a3.34 3.34 0 0 1 3.2-2.32 3.4 3.4 0 0 1 3.22 2.29l8.13 24.49a2 2 0 0 1 -1.9 2.63zm-16-4h13.2l-6.6-20.08z"/><path d="m138.24 205.66a2 2 0 0 1 -1.42-.59l-4.65-4.66a2 2 0 1 1 2.82-2.83l3.25 3.25 8.75-8.75a2 2 0 0 1 2.82 2.83l-10.16 10.16a2 2 0 0 1 -1.41.59z"/><path d="m67.73 64.51a3.5 3.5 0 1 1 3.5-3.5 3.5 3.5 0 0 1 -3.5 3.5zm0-4a.5.5 0 0 0 -.5.5.51.51 0 0 0 .5.5.5.5 0 0 0 .5-.5.5.5 0 0 0 -.5-.5z"/><path d="m82.74 64.51a3.5 3.5 0 1 1 3.5-3.5 3.5 3.5 0 0 1 -3.5 3.5zm0-4a.5.5 0 0 0 -.5.5.51.51 0 0 0 .5.5.5.5 0 0 0 .5-.5.5.5 0 0 0 -.5-.5z"/><path d="m97.76 64.51a3.5 3.5 0 1 1 3.5-3.5 3.5 3.5 0 0 1 -3.5 3.5zm0-4a.5.5 0 0 0 -.5.5.5.5 0 0 0 .5.5.51.51 0 0 0 .5-.5.5.5 0 0 0 -.5-.5z"/></g></svg>