<svg height="285" viewBox="0 0 896 285" width="896" xmlns="http://www.w3.org/2000/svg" xmlns:xlink="http://www.w3.org/1999/xlink"><linearGradient id="a"><stop offset=".08" stop-color="#6262cc" stop-opacity="0"/><stop offset="1" stop-color="#6262cc" stop-opacity=".85"/></linearGradient><linearGradient id="b" x1="0%" x2="99.995936%" xlink:href="#a" y1="50%" y2="50%"/><linearGradient id="c" x1="0%" x2="100%" xlink:href="#a" y1="50%" y2="50%"/><linearGradient id="d"><stop offset=".08" stop-color="#272359" stop-opacity="0"/><stop offset="1" stop-color="#272359" stop-opacity=".85"/></linearGradient><linearGradient id="e" x1="0%" x2="99.991551%" xlink:href="#d" y1="50%" y2="50%"/><linearGradient id="f" x1="0%" x2="100.004373%" xlink:href="#d" y1="50%" y2="50%"/><linearGradient id="g" x1="0%" x2="100%" y1="50%" y2="50%"><stop offset=".08" stop-color="#3f3177" stop-opacity="0"/><stop offset="1" stop-color="#3f3177" stop-opacity=".85"/></linearGradient><linearGradient id="h"><stop offset=".08" stop-color="#9795f9" stop-opacity="0"/><stop offset="1" stop-color="#9795f9" stop-opacity=".85"/></linearGradient><linearGradient id="i" x1="0%" x2="100%" xlink:href="#h" y1="50%" y2="50%"/><linearGradient id="j" x1="0%" x2="100.005468%" xlink:href="#h" y1="50%" y2="50%"/><g fill="none" fill-rule="evenodd" transform="translate(-38)"><path d="m.54 250.64h246.08v33.42h-246.08z" fill="url(#b)"/><path d="m309 83.55h154.18v33.42h-154.18z" fill="url(#c)"/><path d="m78 125.32h184.69v33.42h-184.69z" fill="url(#c)"/><path d="m341.38 250.64h118.36v33.42h-118.36z" fill="url(#e)"/><path d="m188.4 0h228.7v33.42h-228.7z" fill="url(#f)"/><path d="m408 167.09h118.36v33.42h-118.36z" fill="url(#e)"/><path d="m205.17 208.87h171.41v33.42h-171.41z" fill="url(#g)"/><path d="m60 41.77h118.36v33.42h-118.36z" fill="url(#i)"/><path d="m489.97 41.77h182.88v33.42h-182.88z" fill="url(#j)"/><rect fill="#6262cc" height="33.42" rx="2.01" width="33.36" x="857.35" y="41.77"/><rect fill="#6262cc" height="33.42" rx="2.01" width="33.36" x="729.48" y="83.55"/><rect fill="#6262cc" height="33.42" rx="2.01" width="33.36" x="857.35" y="83.55"/><rect fill="#6262cc" height="33.42" rx="2.01" width="33.36" x="899.98" y="83.55"/><rect fill="#6262cc" height="33.42" rx="2.01" width="33.36" x="729.48" y="208.87"/><rect fill="#6262cc" height="33.42" rx="2.01" width="33.36" x="772.1" y="208.87"/><rect fill="#6262cc" height="33.42" rx="2.01" width="33.36" x="686.86" y="167.09"/><rect fill="#6262cc" height="33.42" rx="2.01" width="33.36" x="814.73" y="125.32"/><rect fill="#6262cc" height="33.42" rx="2.01" width="33.36" x="558.98" y="250.64"/><rect fill="#e6e6e6" height="33.42" rx="2.01" width="33.36" x="729.48"/><rect fill="#e6e6e6" height="33.42" rx="2.01" width="33.36" x="814.73"/><rect fill="#e6e6e6" height="33.42" rx="2.01" width="33.36" x="644.23" y="250.64"/><rect fill="#e6e6e6" height="33.42" rx="2.01" width="33.36" x="686.86" y="250.64"/><rect fill="#e6e6e6" height="33.42" rx="2.01" width="33.36" x="814.73" y="250.64"/><rect fill="#e6e6e6" height="33.42" rx="2.01" width="33.36" x="899.98"/><rect fill="#e6e6e6" height="33.42" rx="2.01" width="33.36" x="516.36" y="250.64"/><rect fill="#e6e6e6" height="33.42" rx="2.01" width="33.36" x="899.98" y="250.64"/><g fill="#3f3177"><rect height="33.42" rx="2.01" width="33.36" x="857.35"/><rect height="33.42" rx="2.01" width="33.36" x="814.73" y="41.77"/><rect height="33.42" rx="2.01" width="33.36" x="814.73" y="83.55"/><rect height="33.42" rx="2.01" width="33.36" x="729.48" y="41.77"/><rect height="33.42" rx="2.01" width="33.36" x="772.1" y="125.32"/><rect height="33.42" rx="2.01" width="33.36" x="686.86" y="125.32"/><rect height="33.42" rx="2.01" width="33.36" x="686.86" y="208.87"/><rect height="33.42" rx="2.01" width="33.36" x="857.35" y="167.09"/><rect height="33.42" rx="2.01" width="33.36" x="899.98" y="167.09"/><rect height="33.42" rx="2.01" width="33.36" x="857.35" y="208.87"/><rect height="33.42" rx="2.01" width="33.36" x="772.1" y="250.64"/><rect height="33.42" rx="2.01" width="33.36" x="729.48" y="250.64"/><rect height="33.42" rx="2.01" width="33.36" x="644.23" y="167.09"/></g><rect fill="#9795f9" height="33.42" rx="2.01" width="33.36" x="772.1" y="83.55"/><rect fill="#9795f9" height="33.42" rx="2.01" width="33.36" x="814.73" y="208.87"/><rect fill="#9795f9" height="33.42" rx="2.01" width="33.36" x="772.1" y="41.77"/><rect fill="#9795f9" height="33.42" rx="2.01" width="33.36" x="857.35" y="125.32"/><rect fill="#9795f9" height="33.42" rx="2.01" width="33.36" x="601.61" y="250.64"/><rect fill="#9795f9" height="33.42" rx="2.01" width="33.36" x="857.35" y="250.64"/><rect fill="#9795f9" height="33.42" rx="2.01" width="33.36" x="899.98" y="41.77"/><rect fill="#9795f9" height="33.42" rx="2.01" width="33.36" x="729.48" y="167.09"/><rect fill="#9795f9" height="33.42" rx="2.01" width="33.36" x="644.23" y="208.87"/><rect fill="#272359" height="33.42" rx="2.01" width="33.36" x="729.48" y="125.32"/><rect fill="#272359" height="33.42" rx="2.01" width="33.36" x="814.73" y="167.09"/><rect fill="#272359" height="33.42" rx="2.01" width="33.36" x="772.1"/><rect fill="#272359" height="33.42" rx="2.01" width="33.36" x="686.86" y="83.55"/><rect fill="#272359" height="33.42" rx="2.01" width="33.36" x="601.61" y="208.87"/><rect fill="#272359" height="33.42" rx="2.01" width="33.36" x="899.98" y="208.87"/><rect fill="#272359" height="33.42" rx="2.01" width="33.36" x="558.98" y="208.87"/><rect fill="#272359" height="33.42" rx="2.01" width="33.36" x="601.61" y="167.09"/><rect fill="#272359" height="33.42" rx="2.01" width="33.36" x="899.98" y="125.32"/><rect fill="#272359" height="33.42" rx="2.01" width="33.36" x="772.1" y="167.09"/><rect fill="#272359" height="33.42" rx="2.01" width="33.36" x="644.23" y="125.32"/><rect fill="#3f3177" height="33.42" rx="2.01" width="33.36" x="347.96" y="208.87"/><rect fill="#272359" height="33.42" rx="2.01" width="33.36" x="388.49"/><rect fill="#272359" height="33.42" rx="2.01" width="33.36" x="431.11" y="250.64"/><rect fill="#9795f9" height="33.42" rx="2.01" width="33.36" x="149.74" y="41.77"/><rect fill="#6262cc" height="33.42" rx="2.01" width="33.36" x="217.99" y="250.64"/><rect fill="#272359" height="33.42" rx="2.01" width="33.36" x="497.73" y="167.09"/><rect fill="#6262cc" height="33.42" rx="2.01" width="33.36" x="234.07" y="125.32"/><rect fill="#9795f9" height="33.42" rx="2.01" width="33.36" x="644.23" y="41.77"/><rect fill="#6262cc" height="33.42" rx="2.01" width="33.36" x="434.56" y="83.55"/></g></svg>