<?xml version="1.0" encoding="utf-8"?>
<!-- Generator: Adobe Illustrator 23.0.6, SVG Export Plug-In . SVG Version: 6.00 Build 0)  -->
<svg version="1.1" id="Layer_1" xmlns="http://www.w3.org/2000/svg" xmlns:xlink="http://www.w3.org/1999/xlink" x="0px" y="0px"
	 viewBox="0 0 80 80" enable-background="new 0 0 80 80" xml:space="preserve">
<path d="M72.4,2.4H9.6C5.9,2.6,3,5.6,3,9.3v57c0,3.8,3.1,7.1,6.6,7.1h3.7c0.8,3.2,4.1,5.1,7.2,4.3c2.1-0.5,3.7-2.2,4.3-4.3h47.7
	c3.5,0,6.6-3.3,6.6-7.1v-57C79,5.6,76.1,2.6,72.4,2.4z M19,76c-2,0-3.7-1.5-4-3.6l0,0v-0.1c0-0.1,0-0.2,0-0.4c0-2.2,1.8-4.1,4.1-4.1
	s4.1,1.8,4.1,4.1c0,0.1,0,0.2,0,0.4l-0.1,0.1l0,0C22.7,74.5,21,76,19,76z M77,66.3c0,2.7-2.2,5.2-4.6,5.2H24.9
	c-0.3-3.3-3.1-5.7-6.4-5.4c-2.9,0.2-5.2,2.5-5.4,5.4H9.6C7.2,71.4,5,69,5,66.3V12.4h54.2c0.4,2.2,2.5,3.6,4.7,3.1
	c2.2-0.5,3.6-2.5,3.1-4.7s-2.5-3.6-4.7-3.1c-1.4,0.3-2.6,1.3-3,2.7H5V9.3c0-2.6,2-4.8,4.6-4.9h62.8C75,4.6,77,6.7,77,9.3V66.3z
	 M61,11.3c0.1-1.1,1.1-2,2.3-1.8c1.1,0.1,2,1.1,1.8,2.3c-0.1,1.1-1.1,2-2.3,1.8c-1-0.1-1.7-0.9-1.8-1.8c0-0.1,0-0.2,0-0.3
	S61,11.3,61,11.3z"/>
<path fill="#F07328" d="M25,21.4H10c-0.6,0-1,0.4-1,1v8c0,0.6,0.4,1,1,1h15c0.6,0,1-0.4,1-1v-8C26,21.9,25.5,21.4,25,21.4z"/>
<path fill="#554488" d="M25,35.4H10c-0.6,0-1,0.4-1,1v8c0,0.6,0.4,1,1,1h15c0.6,0,1-0.4,1-1v-8C26,35.9,25.5,35.4,25,35.4z"/>
<path fill="#554488" d="M25,49.4H10c-0.6,0-1,0.4-1,1v7c0,0.6,0.4,1,1,1h15c0.6,0,1-0.4,1-1v-7C26,49.9,25.5,49.4,25,49.4z"/>
<path fill="#554488" d="M72,21.4H57c-0.6,0-1,0.4-1,1v8c0,0.6,0.4,1,1,1h15c0.6,0,1-0.4,1-1v-8C73,21.9,72.5,21.4,72,21.4z"/>
<path fill="#F07328" d="M72,35.5H57c-0.6,0-1,0.4-1,1v7c0,0.6,0.4,1,1,1h15c0.6,0,1-0.4,1-1v-7C73,36,72.5,35.5,72,35.5z"/>
<path fill="#F07328" d="M49,21.4H34c-0.6,0-1,0.4-1,1v8c0,0.6,0.4,1,1,1h15c0.6,0,1-0.4,1-1v-8C50,21.9,49.5,21.4,49,21.4z"/>
</svg>
