<svg width="80" height="80" viewBox="0 0 80 80" fill="none" xmlns="http://www.w3.org/2000/svg">
<path d="M51.944 40.8001L48.616 37.4401C48.2455 37.0703 47.7435 36.8625 47.22 36.8625C46.6965 36.8625 46.1945 37.0703 45.824 37.4401L35.664 47.6001L31.792 43.7201C31.4215 43.3503 30.9195 43.1425 30.396 43.1425C29.8725 43.1425 29.3705 43.3503 29 43.7201L25.672 47.0481C25.3022 47.4185 25.0945 47.9206 25.0945 48.4441C25.0945 48.9675 25.3022 49.4696 25.672 49.8401L33.432 57.6001C34.0298 58.184 34.8323 58.5109 35.668 58.5109C36.5037 58.5109 37.3062 58.184 37.904 57.6001L51.944 43.5521C52.3017 43.1834 52.5018 42.6898 52.5018 42.1761C52.5018 41.6623 52.3017 41.1688 51.944 40.8001Z" fill="#38F2AF"/>
<path d="M66.472 74.4001H7.59999C6.25537 74.3974 4.93553 74.0381 3.77516 73.3587C2.61479 72.6794 1.65542 71.7043 0.994973 70.5331C0.334524 69.3618 -0.00336583 68.0363 0.0157858 66.6919C0.0349374 65.3474 0.410445 64.032 1.10399 62.8801L31.064 13.2801C31.2825 12.9162 31.6367 12.6541 32.0485 12.5513C32.4603 12.4485 32.8961 12.5136 33.26 12.7321C33.6239 12.9506 33.886 13.3048 33.9888 13.7166C34.0916 14.1284 34.0265 14.5642 33.808 14.9281L3.83999 64.5521C3.4413 65.218 3.22622 65.9777 3.21662 66.7538C3.20703 67.5299 3.40328 68.2947 3.78538 68.9703C4.16748 69.6459 4.72178 70.2081 5.39186 70.5998C6.06193 70.9915 6.82383 71.1986 7.59999 71.2001H66.472C66.8963 71.2001 67.3033 71.3687 67.6034 71.6687C67.9034 71.9688 68.072 72.3757 68.072 72.8001C68.072 73.2244 67.9034 73.6314 67.6034 73.9315C67.3033 74.2315 66.8963 74.4001 66.472 74.4001Z" fill="#380D75"/>
<path d="M72.4 74.4C71.9756 74.4 71.5687 74.2314 71.2686 73.9314C70.9686 73.6313 70.8 73.2243 70.8 72.8C70.8 72.3756 70.9686 71.9687 71.2686 71.6686C71.5687 71.3685 71.9756 71.2 72.4 71.2C73.1785 71.2002 73.9432 70.9935 74.6155 70.601C75.2879 70.2085 75.8439 69.6443 76.2264 68.9662C76.609 68.2882 76.8045 67.5206 76.7928 66.7421C76.7811 65.9636 76.5627 65.2023 76.16 64.536L43.76 10.904C43.3691 10.2564 42.8175 9.72077 42.1588 9.34897C41.5 8.97716 40.7564 8.7818 40 8.7818C39.2436 8.7818 38.5 8.97716 37.8412 9.34897C37.1825 9.72077 36.6309 10.2564 36.24 10.904C36.139 11.0976 35.9994 11.2685 35.8299 11.4061C35.6604 11.5437 35.4644 11.6452 35.2542 11.7043C35.044 11.7633 34.8239 11.7787 34.6075 11.7495C34.3911 11.7203 34.1829 11.6472 33.9959 11.5345C33.8088 11.4218 33.6468 11.272 33.5198 11.0944C33.3928 10.9168 33.3035 10.715 33.2575 10.5016C33.2114 10.2881 33.2095 10.0675 33.2519 9.85327C33.2943 9.63905 33.3801 9.43579 33.504 9.25598C34.1786 8.13625 35.1313 7.20993 36.2695 6.56689C37.4076 5.92385 38.6927 5.58594 40 5.58594C41.3073 5.58594 42.5923 5.92385 43.7305 6.56689C44.8687 7.20993 45.8213 8.13625 46.496 9.25598L78.896 62.896C79.5855 64.0476 79.9577 65.3612 79.9748 66.7033C79.9918 68.0455 79.6532 69.3682 78.9932 70.5369C78.3332 71.7057 77.3755 72.6788 76.2174 73.3574C75.0593 74.0359 73.7422 74.3956 72.4 74.4Z" fill="#380D75"/>
<path d="M35.664 60.1201C35.0397 60.1218 34.4213 59.9996 33.8445 59.7607C33.2678 59.5217 32.7442 59.1708 32.304 58.7281L24.544 50.9681C23.8757 50.2964 23.5005 49.3875 23.5005 48.4401C23.5005 47.4926 23.8757 46.5837 24.544 45.9121L27.864 42.5921C28.5356 41.9238 29.4445 41.5486 30.392 41.5486C31.3395 41.5486 32.2484 41.9238 32.92 42.5921L35.664 45.3361L44.696 36.3121C45.0275 35.9792 45.4215 35.7151 45.8553 35.5349C46.2891 35.3547 46.7542 35.262 47.224 35.262C47.6938 35.262 48.1589 35.3547 48.5927 35.5349C49.0265 35.7151 49.4205 35.9792 49.752 36.3121L53.072 39.6321C53.7422 40.3026 54.1188 41.2119 54.1188 42.1601C54.1188 43.1082 53.7422 44.0175 53.072 44.6881L39.032 58.7281C38.5903 59.171 38.0653 59.5221 37.4872 59.761C36.9092 59.9999 36.2895 60.1219 35.664 60.1201ZM30.4 44.7441C30.3007 44.745 30.2057 44.7853 30.136 44.8561L26.816 48.1761C26.7466 48.2464 26.7077 48.3412 26.7077 48.4401C26.7077 48.5389 26.7466 48.6337 26.816 48.7041L34.568 56.4641C34.8656 56.7477 35.2609 56.906 35.672 56.906C36.0831 56.906 36.4784 56.7477 36.776 56.4641L50.808 42.4001C50.8441 42.3664 50.8728 42.3255 50.8921 42.28C50.9114 42.2345 50.9209 42.1855 50.92 42.1361C50.9214 42.0866 50.9121 42.0374 50.8928 41.9918C50.8735 41.9463 50.8446 41.9054 50.808 41.8721L47.488 38.5441C47.4176 38.4747 47.3228 38.4358 47.224 38.4358C47.1252 38.4358 47.0303 38.4747 46.96 38.5441L36.8 48.7281C36.494 49.0172 36.089 49.1784 35.668 49.1784C35.247 49.1784 34.842 49.0172 34.536 48.7281L30.656 44.8561C30.5882 44.7872 30.4965 44.7471 30.4 44.7441Z" fill="#380D75"/>
</svg>
