<?xml version="1.0" encoding="utf-8"?>
<svg version="1.1" id="Layer_1" xmlns="http://www.w3.org/2000/svg" xmlns:xlink="http://www.w3.org/1999/xlink" x="0px" y="0px"
	 viewBox="0 0 48 48" enable-background="new 0 0 48 48" xml:space="preserve">
<g>
	<defs>
		<rect id="SVGID_1_" width="48" height="48"/>
	</defs>
	<clipPath id="SVGID_2_">
		<use xlink:href="#SVGID_1_"  overflow="visible"/>
	</clipPath>
	<g clip-path="url(#SVGID_2_)">
		<path fill="#FC6D26" d="M32.3,24l-12.9,8.6V15.4L32.3,24z"/>
		<path fill="#341472" d="M24.3,41.8c-6.7,0-13.3-0.9-19.8-2.6c-1.3-0.3-2.4-1.1-3.2-2.1c-0.8-1-1.2-2.3-1.2-3.7v-19
			c0-1.3,0.4-2.6,1.2-3.7C2,9.8,3.2,9,4.4,8.7c0.2,0,0.5,0,0.7,0.1C5.3,9,5.5,9.2,5.5,9.4c0.1,0.2,0,0.5-0.1,0.7
			c-0.1,0.2-0.3,0.4-0.5,0.5c-0.9,0.2-1.6,0.7-2.2,1.5s-0.8,1.6-0.8,2.5v19c0,0.9,0.3,1.8,0.8,2.5c0.5,0.7,1.3,1.2,2.2,1.5
			c11,2.9,22.5,3.3,33.6,1.1c0.3,0,0.5,0,0.7,0.1c0.2,0.1,0.4,0.4,0.4,0.6c0,0.3,0,0.5-0.1,0.7c-0.1,0.2-0.4,0.4-0.6,0.4
			C34.1,41.4,29.2,41.8,24.3,41.8z"/>
		<path fill="#341472" d="M43.3,39.4c-0.2,0-0.5-0.1-0.6-0.2c-0.2-0.2-0.3-0.4-0.3-0.6s0-0.5,0.2-0.7c0.1-0.2,0.3-0.3,0.6-0.4
			c0.9-0.2,1.6-0.7,2.2-1.4c0.5-0.7,0.8-1.6,0.8-2.5V14.5c0-0.9-0.3-1.8-0.8-2.5c-0.5-0.7-1.3-1.2-2.2-1.5
			C32.1,7.7,20.7,7.3,9.6,9.5c-0.3,0-0.5,0-0.7-0.1C8.7,9.2,8.6,9,8.5,8.7c0-0.3,0-0.5,0.1-0.7C8.8,7.8,9,7.6,9.3,7.6
			c11.4-2.2,23.1-1.8,34.3,1.1c1.3,0.3,2.4,1.1,3.2,2.1c0.8,1,1.2,2.3,1.2,3.7v19.1c0,1.3-0.4,2.6-1.2,3.7s-1.9,1.8-3.2,2.1
			C43.5,39.4,43.4,39.4,43.3,39.4z"/>
		<path fill="#341472" d="M19.4,33.6c-0.2,0-0.3,0-0.5-0.1c-0.2-0.1-0.3-0.2-0.4-0.4c-0.1-0.1-0.1-0.3-0.1-0.5V15.4
			c0-0.2,0-0.3,0.1-0.5c0.1-0.1,0.2-0.3,0.4-0.4c0.2-0.1,0.3-0.1,0.5-0.1s0.3,0.1,0.5,0.2l12.9,8.6c0.1,0.1,0.2,0.2,0.3,0.3
			c0.1,0.1,0.1,0.3,0.1,0.5c0,0.2,0,0.3-0.1,0.5c-0.1,0.1-0.2,0.3-0.3,0.3L20,33.4C19.8,33.5,19.6,33.6,19.4,33.6z M20.4,17.2v13.7
			L30.6,24L20.4,17.2z"/>
	</g>
</g>
</svg>
