<svg width="48" height="48" viewBox="0 0 48 48" fill="none" xmlns="http://www.w3.org/2000/svg">
<g clip-path="url(#clip0)">
<path d="M35.2175 22.2432L33.2975 21.5472C33.0693 21.4619 32.8612 21.3305 32.6861 21.1611C32.511 20.9917 32.3727 20.788 32.2799 20.5628C32.1871 20.3375 32.1417 20.0956 32.1467 19.852C32.1517 19.6084 32.2068 19.3685 32.3087 19.1472L33.1679 17.304C32.4712 16.3529 31.6327 15.5143 30.6815 14.8176L28.8383 15.6768C28.6171 15.7795 28.3771 15.8352 28.1333 15.8405C27.8896 15.8458 27.6473 15.8006 27.4219 15.7078C27.1964 15.6149 26.9927 15.4763 26.8234 15.3008C26.6541 15.1253 26.523 14.9167 26.4383 14.688L25.7423 12.768C24.578 12.5884 23.393 12.5884 22.2287 12.768L21.5327 14.688C21.4474 14.9162 21.316 15.1244 21.1466 15.2995C20.9772 15.4746 20.7735 15.6129 20.5483 15.7057C20.323 15.7985 20.0811 15.8438 19.8375 15.8388C19.5939 15.8339 19.354 15.7787 19.1327 15.6768L17.2895 14.8176C16.3384 15.5143 15.4998 16.3529 14.8031 17.304L15.6623 19.1472C15.765 19.3684 15.8207 19.6084 15.826 19.8522C15.8313 20.096 15.7861 20.3382 15.6933 20.5637C15.6004 20.7891 15.4618 20.9929 15.2863 21.1622C15.1108 21.3314 14.9022 21.4625 14.6735 21.5472L12.7535 22.2432C12.5711 23.4073 12.5711 24.5927 12.7535 25.7568L14.6735 26.4528C14.9031 26.5363 15.1127 26.6667 15.289 26.8358C15.4653 27.0048 15.6045 27.2088 15.6975 27.4346C15.7906 27.6605 15.8355 27.9032 15.8294 28.1474C15.8234 28.3916 15.7665 28.6319 15.6623 28.8528L14.8031 30.696C15.4998 31.6472 16.3384 32.4857 17.2895 33.1824L19.1327 32.3232C19.3539 32.2206 19.5939 32.1648 19.8377 32.1595C20.0815 32.1542 20.3237 32.1994 20.5492 32.2923C20.7746 32.3852 20.9784 32.5237 21.1477 32.6992C21.3169 32.8747 21.448 33.0834 21.5327 33.312L22.2287 35.232C23.393 35.4117 24.578 35.4117 25.7423 35.232L26.4383 33.312C26.5236 33.0838 26.655 32.8757 26.8244 32.7006C26.9938 32.5255 27.1975 32.3872 27.4227 32.2944C27.648 32.2016 27.89 32.1562 28.1335 32.1612C28.3771 32.1662 28.617 32.2213 28.8383 32.3232L30.6815 33.1824C31.6327 32.4857 32.4712 31.6472 33.1679 30.696L32.3087 28.8528C32.2061 28.6316 32.1503 28.3916 32.145 28.1478C32.1397 27.9041 32.1849 27.6618 32.2778 27.4364C32.3707 27.2109 32.5092 27.0072 32.6847 26.8379C32.8602 26.6686 33.0689 26.5375 33.2975 26.4528L35.2175 25.7568C35.3999 24.5927 35.3999 23.4073 35.2175 22.2432ZM23.9999 27.648C23.2784 27.648 22.5731 27.4341 21.9732 27.0332C21.3733 26.6324 20.9057 26.0626 20.6296 25.396C20.3535 24.7295 20.2813 23.996 20.422 23.2883C20.5628 22.5807 20.9102 21.9307 21.4204 21.4205C21.9306 20.9103 22.5806 20.5629 23.2882 20.4221C23.9959 20.2814 24.7294 20.3536 25.3959 20.6297C26.0625 20.9058 26.6323 21.3734 27.0331 21.9733C27.434 22.5732 27.6479 23.2785 27.6479 24C27.6479 24.9675 27.2636 25.8954 26.5794 26.5795C25.8953 27.2637 24.9674 27.648 23.9999 27.648Z" fill="#FCA121"/>
<path d="M23.9999 36.0912C23.3731 36.0912 22.7473 36.043 22.1279 35.9472C21.9584 35.9207 21.7991 35.8493 21.6666 35.7404C21.5341 35.6315 21.4331 35.4891 21.3743 35.328L20.6927 33.4512C20.657 33.3522 20.601 33.2617 20.5283 33.1857C20.4555 33.1096 20.3676 33.0496 20.2703 33.0096C20.1735 32.9667 20.0689 32.9446 19.9631 32.9446C19.8573 32.9446 19.7526 32.9667 19.6559 33.0096L17.8511 33.8496C17.6973 33.9204 17.5274 33.9493 17.3588 33.9333C17.1902 33.9173 17.0288 33.8569 16.8911 33.7584C15.8786 33.0147 14.9852 32.1213 14.2415 31.1088C14.143 30.9711 14.0826 30.8097 14.0666 30.6411C14.0506 30.4725 14.0795 30.3026 14.1503 30.1488L14.9951 28.344C15.0366 28.2469 15.0579 28.1424 15.0579 28.0368C15.0579 27.9312 15.0366 27.8267 14.9951 27.7296C14.9551 27.6323 14.8951 27.5444 14.819 27.4716C14.743 27.3989 14.6525 27.3429 14.5535 27.3072L12.6719 26.6256C12.5108 26.5668 12.3684 26.4658 12.2595 26.3333C12.1506 26.2008 12.0792 26.0415 12.0527 25.872C11.8607 24.6314 11.8607 23.3686 12.0527 22.128C12.0792 21.9585 12.1506 21.7992 12.2595 21.6667C12.3684 21.5342 12.5108 21.4332 12.6719 21.3744L14.5487 20.6928C14.6474 20.6566 14.7376 20.6004 14.8136 20.5277C14.8896 20.455 14.9498 20.3674 14.9903 20.2704C15.0385 20.1538 15.1092 20.0478 15.1984 19.9585C15.2876 19.8692 15.3935 19.7984 15.51 19.75C15.6266 19.7017 15.7515 19.6767 15.8777 19.6767C16.0039 19.6766 16.1289 19.7014 16.2455 19.7496C16.3621 19.7978 16.4681 19.8685 16.5574 19.9577C16.6466 20.0469 16.7175 20.1528 16.7659 20.2693C16.8142 20.3859 16.8391 20.5108 16.8392 20.637C16.8393 20.7632 16.8145 20.8882 16.7663 21.0048C16.6231 21.3476 16.4106 21.6572 16.1422 21.9141C15.8737 22.171 15.5551 22.3696 15.2063 22.4976L13.8767 22.9776C13.8095 23.6575 13.8095 24.3425 13.8767 25.0224L15.2063 25.5024C15.5559 25.6293 15.8752 25.8276 16.1439 26.0847C16.4126 26.3418 16.6249 26.652 16.7671 26.9957C16.9093 27.3393 16.9785 27.7088 16.9701 28.0806C16.9617 28.4524 16.8759 28.8184 16.7183 29.1552L16.1231 30.432C16.5542 30.9585 17.0366 31.4409 17.5631 31.872L18.8399 31.2768C19.1767 31.1192 19.5427 31.0334 19.9145 31.025C20.2863 31.0166 20.6558 31.0857 20.9994 31.228C21.3431 31.3702 21.6533 31.5825 21.9104 31.8512C22.1675 32.1199 22.3658 32.4392 22.4927 32.7888L22.9727 34.1184C23.8394 34.2048 24.7137 34.1806 25.5743 34.0464C25.7004 34.0272 25.829 34.033 25.9528 34.0635C26.0766 34.0939 26.1933 34.1485 26.296 34.2241C26.3987 34.2996 26.4856 34.3947 26.5516 34.5038C26.6176 34.6129 26.6615 34.7339 26.6807 34.86C26.6999 34.9861 26.6941 35.1147 26.6636 35.2385C26.6332 35.3624 26.5786 35.479 26.503 35.5817C26.4275 35.6844 26.3324 35.7713 26.2233 35.8373C26.1142 35.9033 25.9932 35.9472 25.8671 35.9664C25.2488 36.0556 24.6246 36.0973 23.9999 36.0912ZM30.5567 33.9552C30.4156 33.9551 30.2763 33.924 30.1487 33.864L28.3439 33.0192C28.2471 32.9766 28.1425 32.9546 28.0367 32.9546C27.9309 32.9546 27.8263 32.9766 27.7295 33.0192C27.4946 33.1179 27.2302 33.1192 26.9943 33.0229C26.7585 32.9265 26.5706 32.7405 26.4719 32.5056C26.3732 32.2707 26.3719 32.0063 26.4682 31.7704C26.5646 31.5346 26.7506 31.3467 26.9855 31.248C27.3303 31.104 27.7013 31.0335 28.0748 31.0409C28.4484 31.0484 28.8163 31.1336 29.1551 31.2912L30.4319 31.8864C30.9584 31.4553 31.4408 30.9729 31.8719 30.4464L31.2767 29.1696C31.1191 28.8328 31.0333 28.4668 31.0249 28.095C31.0165 27.7232 31.0856 27.3537 31.2279 27.0101C31.3701 26.6664 31.5823 26.3562 31.8511 26.0991C32.1198 25.842 32.4391 25.6437 32.7887 25.5168L34.1183 25.0368C34.1855 24.3569 34.1855 23.6719 34.1183 22.992L32.7887 22.512C32.4391 22.3851 32.1198 22.1868 31.8511 21.9297C31.5823 21.6726 31.3701 21.3624 31.2279 21.0187C31.0856 20.6751 31.0165 20.3056 31.0249 19.9338C31.0333 19.562 31.1191 19.196 31.2767 18.8592L31.8719 17.5824C31.4408 17.0559 30.9584 16.5735 30.4319 16.1424L29.1551 16.7376C28.8182 16.8952 28.4523 16.981 28.0805 16.9894C27.7087 16.9978 27.3392 16.9287 26.9956 16.7864C26.6519 16.6442 26.3417 16.4319 26.0846 16.1632C25.8275 15.8945 25.6292 15.5752 25.5023 15.2256L25.0223 13.896C24.3423 13.8288 23.6574 13.8288 22.9775 13.896L22.4975 15.2256C22.3706 15.5752 22.1723 15.8945 21.9152 16.1632C21.6581 16.4319 21.3479 16.6442 21.0042 16.7864C20.6606 16.9287 20.2911 16.9978 19.9193 16.9894C19.5475 16.981 19.1815 16.8952 18.8447 16.7376L17.5679 16.1232C16.9184 16.6571 16.3379 17.2698 15.8399 17.9472C15.6878 18.1534 15.4599 18.2908 15.2065 18.329C14.9531 18.3673 14.6949 18.3033 14.4887 18.1512C14.2825 17.9991 14.1451 17.7713 14.1068 17.5179C14.0686 17.2645 14.1326 17.0062 14.2847 16.8C15.0133 15.8146 15.8872 14.9455 16.8767 14.2224C17.0144 14.1239 17.1758 14.0635 17.3444 14.0475C17.513 14.0315 17.6829 14.0604 17.8367 14.1312L19.6799 14.9808C19.777 15.0223 19.8815 15.0436 19.9871 15.0436C20.0927 15.0436 20.1972 15.0223 20.2943 14.9808C20.3916 14.9408 20.4795 14.8808 20.5523 14.8047C20.625 14.7287 20.681 14.6382 20.7167 14.5392L21.3983 12.6624C21.4571 12.5013 21.5581 12.3589 21.6906 12.25C21.8231 12.1411 21.9824 12.0697 22.1519 12.0432C23.3925 11.8512 24.6553 11.8512 25.8959 12.0432C26.0654 12.0697 26.2247 12.1411 26.3572 12.25C26.4897 12.3589 26.5907 12.5013 26.6495 12.6624L27.3311 14.5392C27.3668 14.6382 27.4228 14.7287 27.4955 14.8047C27.5683 14.8808 27.6561 14.9408 27.7535 14.9808C27.8506 15.0223 27.9551 15.0436 28.0607 15.0436C28.1663 15.0436 28.2708 15.0223 28.3679 14.9808L30.1727 14.136C30.3265 14.0652 30.4964 14.0363 30.665 14.0523C30.8336 14.0683 30.9949 14.1287 31.1327 14.2272C32.1452 14.9709 33.0386 15.8643 33.7823 16.8768C33.8808 17.0146 33.9412 17.1759 33.9572 17.3445C33.9732 17.5131 33.9443 17.683 33.8735 17.8368L33.0191 19.68C32.9776 19.7771 32.9563 19.8816 32.9563 19.9872C32.9563 20.0928 32.9776 20.1973 33.0191 20.2944C33.0591 20.3917 33.1191 20.4796 33.1952 20.5524C33.2712 20.6251 33.3617 20.6811 33.4607 20.7168L35.3375 21.3984C35.4986 21.4572 35.641 21.5582 35.7499 21.6907C35.8588 21.8232 35.9302 21.9825 35.9567 22.152C36.1487 23.3926 36.1487 24.6554 35.9567 25.896C35.9302 26.0655 35.8588 26.2248 35.7499 26.3573C35.641 26.4898 35.4986 26.5908 35.3375 26.6496L33.4607 27.3312C33.3617 27.3669 33.2712 27.4229 33.1952 27.4956C33.1191 27.5684 33.0591 27.6563 33.0191 27.7536C32.9776 27.8507 32.9563 27.9552 32.9563 28.0608C32.9563 28.1664 32.9776 28.2709 33.0191 28.368L33.8639 30.1728C33.9347 30.3266 33.9636 30.4965 33.9476 30.6651C33.9316 30.8337 33.8712 30.9951 33.7727 31.1328C33.029 32.1453 32.1356 33.0387 31.1231 33.7824C30.9572 33.8982 30.759 33.9587 30.5567 33.9552ZM23.9999 28.608C23.0885 28.608 22.1976 28.3377 21.4398 27.8314C20.682 27.3251 20.0914 26.6054 19.7427 25.7634C19.3939 24.9214 19.3026 23.9949 19.4804 23.101C19.6582 22.2072 20.0971 21.3861 20.7415 20.7417C21.386 20.0972 22.2071 19.6583 23.1009 19.4805C23.9948 19.3027 24.9213 19.394 25.7633 19.7428C26.6053 20.0915 27.325 20.6822 27.8313 21.4399C28.3376 22.1977 28.6079 23.0886 28.6079 24C28.6054 25.2213 28.1191 26.3919 27.2554 27.2555C26.3918 28.1192 25.2212 28.6055 23.9999 28.608ZM23.9999 21.312C23.4683 21.312 22.9486 21.4696 22.5065 21.765C22.0645 22.0604 21.72 22.4802 21.5165 22.9713C21.3131 23.4625 21.2598 24.003 21.3635 24.5244C21.4673 25.0458 21.7233 25.5248 22.0992 25.9007C22.4751 26.2766 22.9541 26.5326 23.4755 26.6364C23.9969 26.7401 24.5374 26.6868 25.0285 26.4834C25.5197 26.2799 25.9395 25.9354 26.2349 25.4934C26.5302 25.0513 26.6879 24.5316 26.6879 24C26.6879 23.2871 26.4047 22.6034 25.9006 22.0993C25.3965 21.5952 24.7128 21.312 23.9999 21.312Z" fill="#380D75"/>
<path d="M32.5153 42.5616C32.2981 42.5614 32.0873 42.4875 31.9175 42.3521C31.7477 42.2166 31.6288 42.0276 31.5804 41.8158C31.5319 41.6041 31.5567 41.3822 31.6506 41.1863C31.7446 40.9905 31.9022 40.8323 32.0977 40.7376C35.2333 39.2035 37.8775 36.8232 39.7316 33.8655C41.5858 30.9079 42.576 27.4907 42.5905 24C42.5905 23.688 42.5905 23.3808 42.5905 23.0736C42.5842 22.9475 42.6028 22.8214 42.6452 22.7026C42.6876 22.5837 42.7531 22.4743 42.8377 22.3807C43.0088 22.1917 43.2479 22.0783 43.5025 22.0656C43.7571 22.0529 44.0063 22.1418 44.1954 22.3128C44.3844 22.4839 44.4978 22.723 44.5105 22.9776C44.5105 23.3184 44.5105 23.6592 44.5105 24C44.4958 27.8516 43.4038 31.6223 41.3577 34.8855C39.3117 38.1488 36.3934 40.7745 32.9329 42.4656C32.8031 42.5296 32.6601 42.5625 32.5153 42.5616Z" fill="#380D75"/>
<path d="M41.9184 17.1216C41.7316 17.1227 41.5485 17.0692 41.3917 16.9677C41.2348 16.8663 41.1109 16.7212 41.0352 16.5504C39.586 13.2385 37.2029 10.4208 34.1773 8.44218C31.1518 6.46352 27.6151 5.40968 24 5.40959C23.7454 5.40959 23.5013 5.30845 23.3212 5.12842C23.1412 4.94838 23.04 4.7042 23.04 4.44959C23.04 4.19499 23.1412 3.95081 23.3212 3.77077C23.5013 3.59074 23.7454 3.48959 24 3.48959C27.9881 3.49073 31.8895 4.65342 35.2276 6.83561C38.5656 9.0178 41.1958 12.125 42.7968 15.7776C42.8992 16.0088 42.9062 16.2711 42.8164 16.5075C42.7265 16.7438 42.547 16.9352 42.3168 17.04C42.1918 17.0965 42.0557 17.1244 41.9184 17.1216Z" fill="#380D75"/>
<path d="M4.4929 26.2512C4.24874 26.2517 4.01356 26.1592 3.83522 25.9924C3.65687 25.8257 3.54877 25.5972 3.5329 25.3536C3.5041 24.9072 3.4897 24.4512 3.4897 24C3.47288 20.1459 4.54948 16.3661 6.59452 13.0993C8.63956 9.83252 11.5692 7.21272 15.0433 5.544C15.2724 5.43261 15.5365 5.41681 15.7773 5.50008C16.018 5.58334 16.2159 5.75886 16.3273 5.988C16.4387 6.21715 16.4545 6.48116 16.3712 6.72196C16.288 6.96275 16.1124 7.16061 15.8833 7.272C12.7339 8.78398 10.0781 11.1583 8.22415 14.1193C6.37022 17.0804 5.3943 20.5065 5.4097 24C5.4097 24.408 5.4097 24.8208 5.4481 25.2288C5.4639 25.482 5.37888 25.7311 5.21159 25.9218C5.04431 26.1124 4.80836 26.2291 4.5553 26.2464L4.4929 26.2512Z" fill="#380D75"/>
<path d="M24.0001 44.5104C19.918 44.5223 15.9259 43.3109 12.5388 41.0326C9.15166 38.7542 6.52475 35.5134 4.99686 31.728C4.94276 31.6103 4.91306 31.4828 4.90954 31.3533C4.90601 31.2238 4.92874 31.0949 4.97635 30.9744C5.02396 30.8539 5.09547 30.7443 5.18657 30.6522C5.27768 30.56 5.38648 30.4873 5.50644 30.4384C5.6264 30.3894 5.75502 30.3652 5.88457 30.3673C6.01412 30.3694 6.1419 30.3977 6.26023 30.4504C6.37856 30.5032 6.48497 30.5794 6.57308 30.6744C6.66118 30.7694 6.72914 30.8812 6.77286 31.0032C8.15956 34.4337 10.5414 37.3705 13.6116 39.4356C16.6818 41.5006 20.2999 42.5994 24.0001 42.5904C24.2547 42.5904 24.4988 42.6916 24.6789 42.8716C24.8589 43.0516 24.9601 43.2958 24.9601 43.5504C24.9601 43.805 24.8589 44.0492 24.6789 44.2292C24.4988 44.4093 24.2547 44.5104 24.0001 44.5104Z" fill="#380D75"/>
<path d="M25.7472 8.8992C25.4947 8.90582 25.2498 8.81269 25.0656 8.64L21.6 5.1264C21.4212 4.94654 21.3208 4.70322 21.3208 4.4496C21.3208 4.19599 21.4212 3.95267 21.6 3.7728L25.0656 0.283203C25.2479 0.117406 25.487 0.028072 25.7334 0.0336977C25.9797 0.0393234 26.2145 0.139478 26.3891 0.313425C26.5636 0.487371 26.6646 0.721787 26.6711 0.968135C26.6776 1.21448 26.5891 1.4539 26.424 1.6368L23.6112 4.4496L26.424 7.2624C26.6028 7.44227 26.7031 7.68559 26.7031 7.9392C26.7031 8.19282 26.6028 8.43614 26.424 8.616C26.2448 8.79629 26.0014 8.89813 25.7472 8.8992Z" fill="#380D75"/>
<path d="M22.2529 48C22.0657 47.9946 21.8841 47.9346 21.7306 47.8272C21.577 47.7199 21.4583 47.57 21.3889 47.396C21.3195 47.222 21.3025 47.0315 21.34 46.848C21.3776 46.6645 21.468 46.496 21.6001 46.3632L24.4129 43.5504L21.6001 40.7376C21.435 40.5547 21.3465 40.3153 21.353 40.0689C21.3595 39.8226 21.4605 39.5882 21.635 39.4142C21.8096 39.2403 22.0444 39.1401 22.2907 39.1345C22.5371 39.1289 22.7762 39.2182 22.9585 39.384L26.4481 42.8736C26.6269 43.0535 26.7273 43.2968 26.7273 43.5504C26.7273 43.804 26.6269 44.0473 26.4481 44.2272L22.9585 47.7168C22.8664 47.8096 22.7563 47.8825 22.6349 47.9312C22.5136 47.9799 22.3836 48.0033 22.2529 48Z" fill="#380D75"/>
<path d="M47.04 26.7072C46.7858 26.7061 46.5424 26.6043 46.3632 26.424L43.5504 23.6112L40.7376 26.424C40.5547 26.5891 40.3153 26.6776 40.069 26.6711C39.8226 26.6646 39.5882 26.5637 39.4143 26.3891C39.2403 26.2145 39.1402 25.9798 39.1345 25.7334C39.1289 25.487 39.2182 25.2479 39.384 25.0656L42.8736 21.6C43.0535 21.4212 43.2968 21.3208 43.5504 21.3208C43.8041 21.3208 44.0474 21.4212 44.2272 21.6L47.7168 25.0896C47.8439 25.2247 47.9292 25.3937 47.9623 25.5762C47.9954 25.7587 47.9749 25.9469 47.9033 26.118C47.8317 26.2891 47.7121 26.4358 47.5589 26.5404C47.4057 26.6449 47.2255 26.7029 47.04 26.7072Z" fill="#380D75"/>
<path d="M4.44958 26.7072C4.19538 26.7061 3.95199 26.6043 3.77278 26.424L0.283178 22.9344C0.173764 22.8511 0.0835282 22.7452 0.0185808 22.624C-0.0463667 22.5028 -0.0845099 22.369 -0.0932667 22.2318C-0.102024 22.0945 -0.0811894 21.957 -0.0321748 21.8285C0.0168397 21.7 0.0928905 21.5835 0.190829 21.487C0.288767 21.3904 0.406306 21.3161 0.535489 21.2689C0.664672 21.2217 0.802483 21.2028 0.939591 21.2136C1.0767 21.2243 1.20991 21.2643 1.33019 21.331C1.45047 21.3977 1.55503 21.4894 1.63678 21.6L4.44958 24.4128L7.26238 21.6C7.44221 21.4309 7.68028 21.3375 7.92714 21.3393C8.17401 21.3412 8.41068 21.438 8.588 21.6098C8.76532 21.7815 8.86965 22.015 8.87933 22.2617C8.88902 22.5083 8.80329 22.7493 8.63998 22.9344L5.15038 26.424C5.05881 26.5162 4.94948 26.5888 4.82902 26.6375C4.70856 26.6861 4.57948 26.7099 4.44958 26.7072Z" fill="#380D75"/>
</g>
<defs>
<clipPath id="clip0">
<rect width="48" height="48" fill="white"/>
</clipPath>
</defs>
</svg>
