<svg width="48" height="48" viewBox="0 0 48 48" fill="none" xmlns="http://www.w3.org/2000/svg">
<path d="M6.88316 36.1584H0.959961V42.0816H6.88316V36.1584Z" fill="#FCA121"/>
<path d="M24.3791 34.32C30.031 34.32 34.6127 29.7383 34.6127 24.0864C34.6127 18.4345 30.031 13.8528 24.3791 13.8528C18.7272 13.8528 14.1455 18.4345 14.1455 24.0864C14.1455 29.7383 18.7272 34.32 24.3791 34.32Z" fill="#38F2AF"/>
<path d="M24.4321 40.08H7.87211C7.6175 40.08 7.37332 39.9789 7.19329 39.7988C7.01325 39.6188 6.91211 39.3746 6.91211 39.12C6.91211 38.8654 7.01325 38.6212 7.19329 38.4412C7.37332 38.2611 7.6175 38.16 7.87211 38.16H24.4321C26.5226 38.1609 28.5883 37.7079 30.4866 36.8324C32.385 35.957 34.0706 34.6799 35.4272 33.0893C36.7837 31.4988 37.7789 29.6327 38.3438 27.62C38.9087 25.6074 39.03 23.496 38.6993 21.4319C38.3686 19.3677 37.5938 17.4 36.4283 15.6645C35.2628 13.9291 33.7345 12.4673 31.949 11.3802C30.1634 10.2931 28.1631 9.60653 26.0863 9.36796C24.0095 9.12939 21.9057 9.34448 19.9201 9.99839C19.6763 10.078 19.4109 10.0574 19.1823 9.9413C18.9536 9.82518 18.7805 9.62298 18.7009 9.37919C18.6213 9.13541 18.6419 8.87 18.758 8.64135C18.8741 8.41271 19.0763 8.23956 19.3201 8.15999C21.568 7.4269 23.9481 7.18969 26.2966 7.46468C28.645 7.73968 30.9059 8.52035 32.9236 9.75294C34.9414 10.9855 36.6681 12.6408 37.9847 14.6047C39.3014 16.5686 40.1769 18.7945 40.5508 21.1292C40.9247 23.4639 40.7882 25.8519 40.1506 28.1288C39.5131 30.4057 38.3897 32.5174 36.8578 34.3185C35.3259 36.1195 33.4219 37.5672 31.2768 38.5618C29.1317 39.5565 26.7966 40.0744 24.4321 40.08Z" fill="#380D75"/>
<path d="M44.9473 40.08H38.0545C37.7999 40.08 37.5557 39.9789 37.3757 39.7988C37.1956 39.6188 37.0945 39.3746 37.0945 39.12C37.0945 38.8654 37.1956 38.6212 37.3757 38.4412C37.5557 38.2611 37.7999 38.16 38.0545 38.16H44.9473C45.2019 38.16 45.4461 38.2611 45.6261 38.4412C45.8061 38.6212 45.9073 38.8654 45.9073 39.12C45.9073 39.3746 45.8061 39.6188 45.6261 39.7988C45.4461 39.9789 45.2019 40.08 44.9473 40.08Z" fill="#380D75"/>
<path d="M12.9936 34.992C12.8589 34.9924 12.7255 34.9643 12.6023 34.9098C12.4791 34.8552 12.3687 34.7753 12.2784 34.6752C10.8114 33.0486 9.68608 31.1439 8.96908 29.0742C8.25208 27.0044 7.95806 24.8118 8.10444 22.6263C8.25083 20.4407 8.83465 18.3069 9.82127 16.3513C10.8079 14.3956 12.1772 12.658 13.848 11.2416C13.9387 11.1389 14.0503 11.0567 14.1754 11.0007C14.3004 10.9447 14.436 10.9161 14.573 10.9169C14.7101 10.9176 14.8453 10.9477 14.9698 11.0051C15.0942 11.0625 15.2049 11.1458 15.2944 11.2495C15.384 11.3532 15.4503 11.4749 15.4889 11.6064C15.5275 11.7379 15.5375 11.8761 15.5183 12.0117C15.499 12.1474 15.4509 12.2774 15.3773 12.3929C15.3036 12.5085 15.2061 12.6069 15.0912 12.6816C13.6164 13.9317 12.4076 15.4652 11.5366 17.1912C10.6657 18.9173 10.1502 20.8006 10.0208 22.7297C9.89144 24.6587 10.1508 26.594 10.7835 28.4209C11.4162 30.2478 12.4093 31.929 13.704 33.3648C13.8742 33.5534 13.9627 33.8018 13.9501 34.0555C13.9375 34.3092 13.8248 34.5476 13.6368 34.7184C13.4644 34.8872 13.2348 34.9849 12.9936 34.992Z" fill="#380D75"/>
<path d="M6.8832 43.0416H0.96C0.705392 43.0416 0.461212 42.9405 0.281177 42.7604C0.101143 42.5804 0 42.3362 0 42.0816V36.1584C0 35.9038 0.101143 35.6596 0.281177 35.4796C0.461212 35.2995 0.705392 35.1984 0.96 35.1984H6.8832C7.13781 35.1984 7.38199 35.2995 7.56202 35.4796C7.74206 35.6596 7.8432 35.9038 7.8432 36.1584V42.0816C7.8432 42.3362 7.74206 42.5804 7.56202 42.7604C7.38199 42.9405 7.13781 43.0416 6.8832 43.0416ZM1.92 41.1216H5.9232V37.1184H1.92V41.1216Z" fill="#380D75"/>
<path d="M43.5743 43.68C43.3208 43.6802 43.0775 43.5801 42.8975 43.4016C42.8083 43.3125 42.7375 43.2066 42.6891 43.09C42.6408 42.9735 42.616 42.8486 42.616 42.7224C42.616 42.5962 42.6408 42.4713 42.6891 42.3548C42.7375 42.2382 42.8083 42.1324 42.8975 42.0432L45.6815 39.2592L42.8975 36.48C42.8083 36.3908 42.7376 36.2849 42.6893 36.1684C42.641 36.0518 42.6162 35.9269 42.6162 35.8008C42.6162 35.6747 42.641 35.5498 42.6893 35.4332C42.7376 35.3167 42.8083 35.2108 42.8975 35.1216C42.9867 35.0324 43.0926 34.9617 43.2091 34.9134C43.3257 34.8651 43.4506 34.8403 43.5767 34.8403C43.7029 34.8403 43.8278 34.8651 43.9443 34.9134C44.0608 34.9617 44.1667 35.0324 44.2559 35.1216L47.7167 38.5824C47.8066 38.6717 47.8778 38.7779 47.9264 38.8949C47.9751 39.0119 48 39.1373 47.9999 39.264C47.9989 39.5182 47.897 39.7616 47.7167 39.9408L44.2559 43.4016C44.1662 43.4906 44.0598 43.561 43.9429 43.6087C43.8259 43.6565 43.7007 43.6807 43.5743 43.68Z" fill="#380D75"/>
<path d="M22.6943 12.9984C22.5125 12.9985 22.3344 12.9469 22.1807 12.8496L18.0479 10.224C17.8343 10.0863 17.6841 9.86948 17.6301 9.62114C17.5761 9.3728 17.6228 9.11318 17.7599 8.89921L20.3855 4.76641C20.5217 4.55127 20.7378 4.39904 20.9863 4.34323C21.2347 4.28742 21.4952 4.33259 21.7103 4.46881C21.9254 4.60502 22.0777 4.82113 22.1335 5.06957C22.1893 5.31802 22.1441 5.57846 22.0079 5.79361L19.8863 9.12001L23.2127 11.2272C23.3888 11.3387 23.5239 11.5044 23.5975 11.6994C23.6711 11.8944 23.6792 12.1081 23.6207 12.3081C23.5621 12.5081 23.4401 12.6837 23.273 12.8082C23.1058 12.9327 22.9027 12.9995 22.6943 12.9984Z" fill="#380D75"/>
<path d="M22.4255 28.3632C22.172 28.3634 21.9287 28.2633 21.7487 28.0848L19.0271 25.3632C18.9376 25.2743 18.8665 25.1687 18.8178 25.0523C18.7691 24.936 18.7439 24.8111 18.7434 24.685C18.743 24.5589 18.7674 24.4339 18.8152 24.3172C18.8631 24.2004 18.9335 24.0943 19.0223 24.0048C19.1112 23.9153 19.2169 23.8442 19.3332 23.7955C19.4496 23.7468 19.5744 23.7215 19.7006 23.7211C19.8267 23.7206 19.9517 23.745 20.0684 23.7929C20.1851 23.8407 20.2912 23.9111 20.3807 24L22.4255 26.04L28.3823 20.088C28.4719 19.9975 28.5783 19.9256 28.6956 19.8763C28.8129 19.827 28.9388 19.8012 29.0661 19.8006C29.1933 19.7999 29.3194 19.8243 29.4373 19.8724C29.5551 19.9205 29.6623 19.9913 29.7527 20.0808C29.8432 20.1703 29.9151 20.2768 29.9645 20.3941C30.0138 20.5114 30.0395 20.6373 30.0402 20.7645C30.0408 20.8918 30.0164 21.0179 29.9684 21.1357C29.9203 21.2535 29.8495 21.3607 29.7599 21.4512L23.1023 28.0848C22.9224 28.2633 22.6791 28.3634 22.4255 28.3632Z" fill="#380D75"/>
</svg>
