<?xml version="1.0" encoding="utf-8"?>
<svg version="1.1" id="Layer_1" xmlns="http://www.w3.org/2000/svg" xmlns:xlink="http://www.w3.org/1999/xlink" x="0px" y="0px"
	 viewBox="0 0 48 48" enable-background="new 0 0 48 48" xml:space="preserve">
<g>
	<defs>
		<rect id="SVGID_1_" width="48" height="48"/>
	</defs>
	<clipPath id="SVGID_2_">
		<use xlink:href="#SVGID_1_"  overflow="visible"/>
	</clipPath>
	<g clip-path="url(#SVGID_2_)">
		<path fill="#AC7FFF" d="M8.7,41.2C12.9,45,18.4,47,24,47s11.1-2.1,15.3-5.8c-4.2-3.7-9.7-5.8-15.3-5.8
			C18.4,35.4,12.9,37.5,8.7,41.2z"/>
		<path fill="#AC7FFF" d="M24,29.9c4.1,0,7.4-3.3,7.4-7.4s-3.3-7.4-7.4-7.4s-7.4,3.3-7.4,7.4S19.9,29.9,24,29.9z"/>
		<path fill="#380D75" d="M24,48c-5.9,0-11.5-2.2-15.9-6.1c-0.1-0.1-0.2-0.2-0.2-0.3c-0.1-0.1-0.1-0.3-0.1-0.4c0-0.1,0-0.3,0.1-0.4
			c0.1-0.1,0.1-0.2,0.2-0.3c4.4-3.9,10.1-6.1,15.9-6.1s11.5,2.2,15.9,6.1c0.1,0.1,0.2,0.2,0.2,0.3c0.1,0.1,0.1,0.3,0.1,0.4
			c0,0.1,0,0.3-0.1,0.4c-0.1,0.1-0.1,0.2-0.2,0.3C35.5,45.8,29.9,48,24,48z M10.2,41.2c3.9,3.1,8.8,4.8,13.8,4.8s9.9-1.7,13.8-4.8
			c-3.9-3.1-8.8-4.9-13.8-4.9S14.1,38.1,10.2,41.2z"/>
		<path fill="#380D75" d="M24,30.8c-1.6,0-3.3-0.5-4.6-1.4c-1.4-0.9-2.4-2.2-3.1-3.7c-0.6-1.5-0.8-3.2-0.5-4.8
			c0.3-1.6,1.1-3.1,2.3-4.3c1.2-1.2,2.6-2,4.3-2.3c1.6-0.3,3.3-0.2,4.8,0.5c1.5,0.6,2.8,1.7,3.7,3.1c0.9,1.4,1.4,3,1.4,4.6
			c0,2.2-0.9,4.3-2.4,5.9C28.3,30,26.2,30.8,24,30.8z M24,16.1c-1.3,0-2.5,0.4-3.6,1.1c-1.1,0.7-1.9,1.7-2.4,2.9
			c-0.5,1.2-0.6,2.5-0.4,3.7c0.2,1.2,0.9,2.4,1.8,3.3c0.9,0.9,2,1.5,3.3,1.8c1.2,0.2,2.5,0.1,3.7-0.4c1.2-0.5,2.2-1.3,2.9-2.4
			c0.7-1.1,1.1-2.3,1.1-3.6c0-1.7-0.7-3.3-1.9-4.5C27.3,16.8,25.7,16.1,24,16.1z"/>
		<path fill="#380D75" d="M41.7,39.7c-0.2,0-0.4-0.1-0.6-0.2c-0.1-0.1-0.2-0.2-0.2-0.3c-0.1-0.1-0.1-0.2-0.1-0.4c0-0.1,0-0.3,0-0.4
			c0-0.1,0.1-0.2,0.2-0.3c2.7-3.2,4.4-7.1,4.9-11.3c0.5-4.2-0.1-8.4-1.9-12.2c-1.8-3.8-4.6-7-8.1-9.3C32.3,3.1,28.2,1.9,24,1.9
			c-4.2,0-8.3,1.2-11.8,3.4C8.6,7.6,5.8,10.8,4,14.6s-2.4,8-1.9,12.2C2.6,31,4.4,34.9,7,38.1c0.1,0.1,0.2,0.2,0.2,0.3
			c0,0.1,0.1,0.3,0,0.4c0,0.1,0,0.3-0.1,0.4c-0.1,0.1-0.1,0.2-0.2,0.3c-0.1,0.1-0.2,0.1-0.3,0.2c-0.1,0-0.3,0-0.4,0S6,39.7,5.9,39.6
			c-0.1-0.1-0.2-0.1-0.3-0.3c-2.9-3.5-4.8-7.8-5.4-12.3s0.1-9.1,2.1-13.3c1.9-4.1,5-7.6,8.9-10.1C15,1.3,19.4,0,24,0
			c4.6,0,9,1.3,12.9,3.7c3.8,2.4,6.9,5.9,8.9,10.1c1.9,4.1,2.7,8.7,2.1,13.3c-0.6,4.5-2.4,8.8-5.4,12.3c-0.1,0.1-0.2,0.2-0.3,0.3
			C42,39.7,41.8,39.7,41.7,39.7z"/>
	</g>
</g>
</svg>
