<?xml version="1.0" encoding="utf-8"?>
<svg version="1.1" id="Layer_1" xmlns="http://www.w3.org/2000/svg" xmlns:xlink="http://www.w3.org/1999/xlink" x="0px" y="0px"
	 viewBox="0 0 48 48" enable-background="new 0 0 48 48" xml:space="preserve">
<g>
	<defs>
		<rect id="SVGID_1_" width="48" height="48"/>
	</defs>
	<clipPath id="SVGID_2_">
		<use xlink:href="#SVGID_1_"  overflow="visible"/>
	</clipPath>
	<g clip-path="url(#SVGID_2_)">
		<path fill="#FF675F" d="M24,6.8c1.6,0,2.9-1.3,2.9-2.9S25.6,1,24,1c-1.6,0-2.9,1.3-2.9,2.9S22.4,6.8,24,6.8z"/>
		<path fill="#FF675F" d="M24,47c1.6,0,2.9-1.3,2.9-2.9c0-1.6-1.3-2.9-2.9-2.9c-1.6,0-2.9,1.3-2.9,2.9C21.1,45.7,22.4,47,24,47z"/>
		<path fill="#FCA121" d="M44.1,26.9c1.6,0,2.9-1.3,2.9-2.9c0-1.6-1.3-2.9-2.9-2.9s-2.9,1.3-2.9,2.9C41.2,25.6,42.5,26.9,44.1,26.9z
			"/>
		<path fill="#FCA121" d="M3.9,26.9c1.6,0,2.9-1.3,2.9-2.9c0-1.6-1.3-2.9-2.9-2.9S1,22.4,1,24C1,25.6,2.3,26.9,3.9,26.9z"/>
		<path fill="#AC7FFF" d="M38.2,12.7c1.6,0,2.9-1.3,2.9-2.9c0-1.6-1.3-2.9-2.9-2.9c-1.6,0-2.9,1.3-2.9,2.9
			C35.3,11.4,36.6,12.7,38.2,12.7z"/>
		<path fill="#AC7FFF" d="M9.8,41.1c1.6,0,2.9-1.3,2.9-2.9c0-1.6-1.3-2.9-2.9-2.9c-1.6,0-2.9,1.3-2.9,2.9
			C6.9,39.8,8.2,41.1,9.8,41.1z"/>
		<path fill="#AC7FFF" d="M38.2,41.1c1.6,0,2.9-1.3,2.9-2.9c0-1.6-1.3-2.9-2.9-2.9c-1.6,0-2.9,1.3-2.9,2.9
			C35.3,39.8,36.6,41.1,38.2,41.1z"/>
		<path fill="#AC7FFF" d="M9.8,12.7c1.6,0,2.9-1.3,2.9-2.9c0-1.6-1.3-2.9-2.9-2.9c-1.6,0-2.9,1.3-2.9,2.9
			C6.9,11.4,8.2,12.7,9.8,12.7z"/>
		<path fill="#FC6D26" d="M24,31.6l8-5.8c0.1-0.1,0.2-0.2,0.2-0.3c0-0.1,0-0.3,0-0.4l-2.8-8.5c0-0.1-0.1-0.1-0.1-0.2
			c-0.1,0-0.1-0.1-0.2-0.1c-0.1,0-0.1,0-0.2,0.1c-0.1,0-0.1,0.1-0.1,0.2L27,22.2h-6.1l-1.8-5.7c0-0.1-0.1-0.1-0.1-0.2
			c-0.1,0-0.1-0.1-0.2-0.1c-0.1,0-0.1,0-0.2,0.1c-0.1,0-0.1,0.1-0.1,0.2l-2.8,8.5c0,0.1,0,0.3,0,0.4c0,0.1,0.1,0.2,0.2,0.3L24,31.6z
			"/>
		<path fill="#380D75" d="M24,32.6c-0.2,0-0.4-0.1-0.6-0.2l-8-5.8c-0.3-0.2-0.5-0.5-0.6-0.8c-0.1-0.3-0.1-0.7,0-1l2.8-8.5
			c0.1-0.3,0.2-0.5,0.5-0.6c0.2-0.2,0.5-0.2,0.8-0.2c0.3,0,0.5,0.1,0.7,0.2c0.2,0.2,0.4,0.4,0.5,0.6l1.6,5h4.7l1.6-5
			c0.1-0.3,0.2-0.5,0.5-0.6c0.2-0.2,0.5-0.2,0.7-0.2c0.3,0,0.5,0.1,0.7,0.2c0.2,0.2,0.4,0.4,0.5,0.6l2.8,8.5c0.1,0.3,0.1,0.7,0,1
			c-0.1,0.3-0.3,0.6-0.6,0.8l-8,5.8C24.4,32.5,24.2,32.6,24,32.6z M16.7,25.2l7.3,5.3l7.3-5.3l-2.1-6.4l-1.2,3.8
			c-0.1,0.2-0.2,0.4-0.3,0.5c-0.2,0.1-0.4,0.2-0.6,0.2h-6.1c-0.2,0-0.4-0.1-0.6-0.2s-0.3-0.3-0.3-0.5l-1.2-3.8L16.7,25.2z"/>
		<path fill="#380D75" d="M24,7.7c-0.8,0-1.5-0.2-2.2-0.7c-0.6-0.4-1.1-1-1.4-1.7c-0.3-0.7-0.4-1.5-0.2-2.2c0.1-0.8,0.5-1.4,1.1-2
			c0.5-0.5,1.2-0.9,2-1.1C24-0.1,24.8,0,25.5,0.3c0.7,0.3,1.3,0.8,1.7,1.4c0.4,0.6,0.7,1.4,0.7,2.2c0,1-0.4,2-1.1,2.7
			C26,7.3,25,7.7,24,7.7z M24,1.9c-0.4,0-0.8,0.1-1.1,0.3c-0.3,0.2-0.6,0.5-0.7,0.9C22,3.5,22,3.9,22.1,4.3c0.1,0.4,0.3,0.7,0.5,1
			c0.3,0.3,0.6,0.5,1,0.5c0.4,0.1,0.8,0,1.1-0.1c0.4-0.1,0.7-0.4,0.9-0.7C25.8,4.6,26,4.3,26,3.9c0-0.5-0.2-1-0.6-1.4
			C25,2.1,24.5,1.9,24,1.9z"/>
		<path fill="#380D75" d="M24,48c-0.8,0-1.5-0.2-2.2-0.7c-0.6-0.4-1.1-1-1.4-1.7c-0.3-0.7-0.4-1.5-0.2-2.2c0.1-0.8,0.5-1.4,1.1-2
			c0.5-0.5,1.2-0.9,2-1.1c0.8-0.1,1.5-0.1,2.2,0.2c0.7,0.3,1.3,0.8,1.7,1.4c0.4,0.6,0.7,1.4,0.7,2.2c0,1-0.4,2-1.1,2.7
			C26,47.6,25,48,24,48z M24,42.2c-0.4,0-0.8,0.1-1.1,0.3c-0.3,0.2-0.6,0.5-0.7,0.9c-0.1,0.4-0.2,0.7-0.1,1.1c0.1,0.4,0.3,0.7,0.5,1
			c0.3,0.3,0.6,0.5,1,0.5c0.4,0.1,0.8,0,1.1-0.1s0.7-0.4,0.9-0.7c0.2-0.3,0.3-0.7,0.3-1.1c0-0.5-0.2-1-0.6-1.4S24.5,42.2,24,42.2z"
			/>
		<path fill="#380D75" d="M44.1,27.9c-0.8,0-1.5-0.2-2.2-0.7c-0.6-0.4-1.1-1-1.4-1.7c-0.3-0.7-0.4-1.5-0.2-2.2
			c0.1-0.8,0.5-1.4,1.1-2c0.5-0.5,1.2-0.9,2-1.1c0.8-0.1,1.5-0.1,2.2,0.2c0.7,0.3,1.3,0.8,1.7,1.4c0.4,0.6,0.7,1.4,0.7,2.2
			c0,1-0.4,2-1.1,2.7C46.1,27.5,45.2,27.9,44.1,27.9z M44.1,22c-0.4,0-0.8,0.1-1.1,0.3c-0.3,0.2-0.6,0.5-0.7,0.9s-0.2,0.7-0.1,1.1
			c0.1,0.4,0.3,0.7,0.5,1c0.3,0.3,0.6,0.5,1,0.5c0.4,0.1,0.8,0,1.1-0.1c0.4-0.1,0.7-0.4,0.9-0.7c0.2-0.3,0.3-0.7,0.3-1.1
			c0-0.5-0.2-1-0.6-1.4C45.1,22.3,44.6,22,44.1,22z"/>
		<path fill="#380D75" d="M3.9,27.9c-0.8,0-1.5-0.2-2.2-0.7c-0.6-0.4-1.1-1-1.4-1.7C0,24.8-0.1,24,0.1,23.2c0.1-0.8,0.5-1.4,1.1-2
			c0.5-0.5,1.2-0.9,2-1.1c0.8-0.1,1.5-0.1,2.2,0.2c0.7,0.3,1.3,0.8,1.7,1.4c0.4,0.6,0.7,1.4,0.7,2.2c0,1-0.4,2-1.1,2.7
			C5.9,27.5,4.9,27.9,3.9,27.9z M3.9,22c-0.4,0-0.8,0.1-1.1,0.3c-0.3,0.2-0.6,0.5-0.7,0.9C1.9,23.6,1.9,24,2,24.4
			c0.1,0.4,0.3,0.7,0.5,1c0.3,0.3,0.6,0.5,1,0.5c0.4,0.1,0.8,0,1.1-0.1c0.4-0.1,0.7-0.4,0.9-0.7c0.2-0.3,0.3-0.7,0.3-1.1
			c0-0.5-0.2-1-0.6-1.4C4.9,22.3,4.4,22,3.9,22z"/>
		<path fill="#380D75" d="M38.2,13.6c-0.9,0-1.8-0.3-2.5-0.9c-0.7-0.6-1.2-1.4-1.3-2.2c-0.2-0.9,0-1.8,0.4-2.6
			c0.4-0.8,1.1-1.4,1.9-1.8c0.8-0.3,1.7-0.4,2.6-0.1c0.9,0.3,1.6,0.8,2.1,1.6c0.5,0.7,0.7,1.6,0.6,2.5C42,11,41.6,11.9,41,12.5
			c-0.4,0.4-0.8,0.6-1.3,0.8C39.2,13.5,38.7,13.6,38.2,13.6z M38.2,7.8c-0.3,0-0.6,0.1-0.9,0.2c-0.3,0.2-0.5,0.4-0.7,0.6
			c-0.2,0.3-0.3,0.6-0.3,0.9c0,0.3,0,0.6,0.1,0.9c0.1,0.3,0.3,0.6,0.6,0.8c0.2,0.2,0.5,0.3,0.8,0.4c0.3,0.1,0.6,0.1,0.9,0
			c0.3-0.1,0.6-0.2,0.8-0.5c0.4-0.4,0.6-0.9,0.6-1.4c0-0.5-0.2-1-0.6-1.4C39.4,8.2,39.2,8.1,39,8C38.7,7.9,38.5,7.8,38.2,7.8z"/>
		<path fill="#380D75" d="M9.8,42.1c-0.9,0-1.7-0.3-2.4-0.9C6.7,40.7,6.2,39.9,6,39c-0.2-0.9,0-1.8,0.4-2.6c0.4-0.8,1.1-1.4,1.9-1.7
			s1.7-0.4,2.6-0.1c0.8,0.3,1.6,0.8,2.1,1.5c0.5,0.7,0.7,1.6,0.6,2.5c-0.1,0.9-0.5,1.7-1.1,2.3c-0.4,0.4-0.8,0.6-1.3,0.8
			C10.8,42,10.3,42.1,9.8,42.1z M9.8,36.3c-0.5,0-1,0.2-1.4,0.6c-0.4,0.4-0.6,0.9-0.6,1.4s0.2,1,0.6,1.4c0.4,0.4,0.9,0.6,1.4,0.6
			c0.5,0,1-0.2,1.4-0.6c0.4-0.4,0.6-0.9,0.6-1.4s-0.2-1-0.6-1.4C10.8,36.5,10.3,36.3,9.8,36.3z"/>
		<path fill="#380D75" d="M38.2,42.1c-0.5,0-1-0.1-1.5-0.3c-0.5-0.2-0.9-0.5-1.3-0.8c-0.6-0.6-1-1.5-1.1-2.4
			c-0.1-0.9,0.1-1.8,0.6-2.5c0.5-0.7,1.2-1.3,2.1-1.6c0.9-0.3,1.8-0.2,2.6,0.1c0.8,0.3,1.5,1,1.9,1.8c0.4,0.8,0.6,1.7,0.4,2.6
			c-0.2,0.9-0.7,1.7-1.3,2.2C40,41.8,39.1,42.1,38.2,42.1z M38.2,36.3c-0.4,0-0.8,0.1-1.1,0.3c-0.3,0.2-0.6,0.5-0.7,0.9
			c-0.1,0.4-0.2,0.8-0.1,1.1c0.1,0.4,0.3,0.7,0.6,1c0.4,0.4,0.9,0.6,1.4,0.6s1-0.2,1.4-0.6c0.4-0.4,0.6-0.9,0.6-1.4
			c0-0.5-0.2-1-0.6-1.4c-0.2-0.2-0.4-0.3-0.6-0.4C38.7,36.3,38.5,36.3,38.2,36.3z"/>
		<path fill="#380D75" d="M9.8,13.6c-0.9,0-1.8-0.3-2.5-0.9c-0.7-0.6-1.2-1.4-1.3-2.2c-0.2-0.9,0-1.8,0.4-2.6
			c0.4-0.8,1.1-1.4,1.9-1.7c0.8-0.3,1.7-0.4,2.6-0.1c0.9,0.3,1.6,0.8,2.1,1.6c0.5,0.7,0.7,1.6,0.6,2.5c-0.1,0.9-0.5,1.7-1.1,2.4
			c-0.4,0.4-0.8,0.6-1.3,0.8C10.8,13.5,10.3,13.6,9.8,13.6z M9.8,7.8c-0.5,0-1,0.2-1.4,0.6C8,8.8,7.8,9.2,7.8,9.8
			c0,0.5,0.2,1,0.6,1.4c0.4,0.4,0.9,0.6,1.4,0.6c0.5,0,1-0.2,1.4-0.6c0.4-0.4,0.6-0.9,0.6-1.4c0-0.5-0.2-1-0.6-1.4
			C10.8,8,10.3,7.8,9.8,7.8z"/>
		<path fill="#380D75" d="M12.3,8.6c-0.2,0-0.4-0.1-0.6-0.2c-0.2-0.1-0.3-0.3-0.3-0.5c-0.1-0.2-0.1-0.4,0-0.6
			c0.1-0.2,0.2-0.4,0.3-0.5c2.6-1.8,5.5-3.1,8.6-3.6c0.1,0,0.3,0,0.4,0s0.2,0.1,0.4,0.1c0.1,0.1,0.2,0.2,0.3,0.3
			c0.1,0.1,0.1,0.2,0.1,0.4c0,0.1,0,0.3,0,0.4c0,0.1-0.1,0.2-0.2,0.3c-0.1,0.1-0.2,0.2-0.3,0.3c-0.1,0.1-0.2,0.1-0.4,0.1
			c-2.8,0.5-5.5,1.6-7.8,3.3C12.7,8.5,12.5,8.6,12.3,8.6z"/>
		<path fill="#380D75" d="M4.1,21.6H4c-0.1,0-0.2-0.1-0.4-0.1c-0.1-0.1-0.2-0.2-0.3-0.3c-0.1-0.1-0.1-0.2-0.2-0.3c0-0.1,0-0.3,0-0.4
			c0.3-1.6,0.7-3.1,1.4-4.6c0.1-0.2,0.3-0.4,0.5-0.5c0.2-0.1,0.5-0.1,0.7,0c0.2,0.1,0.4,0.3,0.5,0.5c0.1,0.2,0.1,0.5,0,0.7
			c-0.6,1.4-1,2.8-1.2,4.2c0,0.2-0.2,0.4-0.3,0.6C4.6,21.5,4.4,21.6,4.1,21.6z"/>
		<path fill="#380D75" d="M7.6,36.7c-0.2,0-0.3,0-0.4-0.1c-0.1-0.1-0.3-0.2-0.3-0.3c-1.1-1.5-1.9-3.1-2.6-4.8
			c-0.1-0.1-0.1-0.2-0.1-0.4c0-0.1,0-0.3,0.1-0.4c0-0.1,0.1-0.2,0.2-0.3c0.1-0.1,0.2-0.2,0.3-0.2c0.1,0,0.3-0.1,0.4-0.1
			c0.1,0,0.3,0,0.4,0.1c0.1,0.1,0.2,0.1,0.3,0.2C6,30.6,6,30.7,6.1,30.8c0.6,1.6,1.4,3,2.4,4.4c0.1,0.2,0.2,0.5,0.2,0.7
			c0,0.3-0.2,0.5-0.4,0.6C8,36.7,7.8,36.7,7.6,36.7z"/>
		<path fill="#380D75" d="M20.7,44.8h-0.2c-3.1-0.5-6.1-1.7-8.7-3.6c-0.1-0.1-0.2-0.2-0.3-0.3c-0.1-0.1-0.1-0.2-0.1-0.4
			c0-0.1,0-0.3,0-0.4c0-0.1,0.1-0.2,0.2-0.4c0.1-0.1,0.2-0.2,0.3-0.3c0.1-0.1,0.2-0.1,0.4-0.1c0.1,0,0.3,0,0.4,0
			c0.1,0,0.2,0.1,0.3,0.2c2.4,1.7,5.1,2.8,7.9,3.2c0.3,0,0.5,0.1,0.7,0.3s0.2,0.4,0.2,0.7c0,0.3-0.1,0.5-0.3,0.7
			C21.2,44.8,21,44.9,20.7,44.8L20.7,44.8z"/>
		<path fill="#380D75" d="M27.5,44.8c-0.3,0-0.5-0.1-0.7-0.2c-0.2-0.2-0.3-0.4-0.3-0.7c0-0.3,0.1-0.5,0.2-0.7
			c0.2-0.2,0.4-0.3,0.7-0.3c2.9-0.5,5.7-1.7,8.1-3.5c0.1-0.1,0.2-0.1,0.3-0.2c0.1,0,0.3,0,0.4,0c0.1,0,0.3,0.1,0.4,0.1
			c0.1,0.1,0.2,0.2,0.3,0.3c0.1,0.1,0.1,0.2,0.2,0.4c0,0.1,0,0.3,0,0.4c0,0.1-0.1,0.3-0.1,0.4c-0.1,0.1-0.2,0.2-0.3,0.3
			c-2.6,2-5.7,3.3-8.9,3.9C27.6,44.8,27.6,44.8,27.5,44.8z"/>
		<path fill="#380D75" d="M40.3,36.7c-0.2,0-0.4-0.1-0.6-0.2c-0.2-0.1-0.3-0.4-0.4-0.6c0-0.3,0-0.5,0.2-0.7c1.1-1.5,1.9-3.1,2.5-4.9
			c0.1-0.2,0.3-0.4,0.5-0.5s0.5-0.1,0.7,0c0.2,0.1,0.4,0.3,0.5,0.5c0.1,0.2,0.1,0.5,0,0.7c-0.7,1.9-1.6,3.7-2.8,5.3
			c-0.1,0.1-0.2,0.2-0.3,0.3C40.6,36.7,40.5,36.7,40.3,36.7z"/>
		<path fill="#380D75" d="M43.8,21.6c-0.2,0-0.5-0.1-0.6-0.2c-0.2-0.1-0.3-0.4-0.3-0.6c-0.3-1.8-0.8-3.5-1.6-5.2
			c-0.1-0.1-0.1-0.2-0.1-0.4c0-0.1,0-0.3,0-0.4c0-0.1,0.1-0.2,0.2-0.3c0.1-0.1,0.2-0.2,0.3-0.2c0.1-0.1,0.2-0.1,0.4-0.1
			c0.1,0,0.3,0,0.4,0.1c0.1,0,0.2,0.1,0.3,0.2c0.1,0.1,0.2,0.2,0.2,0.3c0.9,1.8,1.5,3.7,1.8,5.7c0,0.2,0,0.5-0.2,0.7
			c-0.1,0.2-0.4,0.3-0.6,0.4L43.8,21.6z"/>
		<path fill="#380D75" d="M35.7,8.6c-0.2,0-0.4-0.1-0.6-0.2c-2.4-1.7-5.1-2.8-7.9-3.3c-0.3,0-0.5-0.2-0.6-0.4
			c-0.1-0.2-0.2-0.5-0.2-0.7c0-0.3,0.2-0.5,0.4-0.6c0.2-0.1,0.5-0.2,0.7-0.2c3.1,0.5,6.1,1.8,8.7,3.6c0.2,0.1,0.3,0.3,0.4,0.5
			c0.1,0.2,0.1,0.4,0,0.6c-0.1,0.2-0.2,0.4-0.4,0.5C36.1,8.5,35.9,8.6,35.7,8.6z"/>
	</g>
</g>
</svg>
