<?xml version="1.0" encoding="utf-8"?>
<svg version="1.1" id="Layer_1" xmlns="http://www.w3.org/2000/svg" xmlns:xlink="http://www.w3.org/1999/xlink" x="0px" y="0px"
	 viewBox="0 0 38 38" enable-background="new 0 0 38 38" xml:space="preserve">
<g>
	<defs>
		<rect id="SVGID_1_" width="37.8" height="37.8"/>
	</defs>
	<clipPath id="SVGID_2_">
		<use xlink:href="#SVGID_1_"  overflow="visible"/>
	</clipPath>
	<g clip-path="url(#SVGID_2_)">
		<path fill="#7D2BD9" d="M26,37.8H1.5c-0.8,0-1.5-0.7-1.5-1.5V1.5C0,0.7,0.7,0,1.5,0H26c0.8,0,1.5,0.7,1.5,1.5v3
			c0,0.8-0.7,1.5-1.5,1.5s-1.5-0.7-1.5-1.5V3H3v31.8h21.5v-1.5c0-0.8,0.7-1.5,1.5-1.5s1.5,0.7,1.5,1.5v3
			C27.5,37.1,26.9,37.8,26,37.8z"/>
		<path fill="#7D2BD9" d="M27.4,24.4c-0.4,0-0.8-0.2-1.1-0.5l-3.1-3.1c-0.6-0.6-0.6-1.5,0-2.1c0.6-0.6,1.5-0.6,2.1,0l2,2l2-2
			c0.6-0.6,1.5-0.6,2.1,0c0.6,0.6,0.6,1.5,0,2.1l-3.1,3.1C28.1,24.3,27.8,24.4,27.4,24.4z"/>
		<path fill="#7D2BD9" d="M27.4,24.4c-0.8,0-1.5-0.7-1.5-1.5v-7.9c0-0.8,0.7-1.5,1.5-1.5c0.8,0,1.5,0.7,1.5,1.5v7.9
			C28.9,23.7,28.2,24.4,27.4,24.4z"/>
		<path fill="#7D2BD9" d="M13.8,20.4H7.2c-0.8,0-1.5-0.7-1.5-1.5c0-0.8,0.7-1.5,1.5-1.5h6.6c0.8,0,1.5,0.7,1.5,1.5
			C15.3,19.7,14.7,20.4,13.8,20.4z"/>
		<path fill="#7D2BD9" d="M15.4,14.9H7.2c-0.8,0-1.5-0.7-1.5-1.5s0.7-1.5,1.5-1.5h8.1c0.8,0,1.5,0.7,1.5,1.5S16.2,14.9,15.4,14.9z"
			/>
		<path fill="#7D2BD9" d="M15.4,25.9H7.1c-0.8,0-1.5-0.7-1.5-1.5s0.7-1.5,1.5-1.5h8.2c0.8,0,1.5,0.7,1.5,1.5
			C16.9,25.3,16.2,25.9,15.4,25.9z"/>
		<path fill="#7D2BD9" d="M27.4,29.3c-5.7,0-10.4-4.7-10.4-10.4S21.6,8.5,27.4,8.5s10.4,4.7,10.4,10.4S33.1,29.3,27.4,29.3z
			 M27.4,11.5c-4.1,0-7.4,3.3-7.4,7.4s3.3,7.4,7.4,7.4s7.4-3.3,7.4-7.4S31.5,11.5,27.4,11.5z"/>
	</g>
</g>
</svg>
