<svg width="48" height="48" viewBox="0 0 48 48" fill="none" xmlns="http://www.w3.org/2000/svg">
<g clip-path="url(#clip0)">
<path d="M24 31.2L31.4688 25.776C31.5682 25.7032 31.6421 25.601 31.68 25.4838C31.7179 25.3666 31.7179 25.2404 31.68 25.1232L29.1072 17.208C29.0881 17.1492 29.0508 17.098 29.0008 17.0617C28.9508 17.0254 28.8906 17.0059 28.8288 17.0059C28.767 17.0059 28.7068 17.0254 28.6568 17.0617C28.6068 17.098 28.5695 17.1492 28.5504 17.208L26.8416 22.488H21.1632L19.4496 17.208C19.4305 17.1492 19.3932 17.098 19.3432 17.0617C19.2932 17.0254 19.233 17.0059 19.1712 17.0059C19.1094 17.0059 19.0492 17.0254 18.9992 17.0617C18.9492 17.098 18.9119 17.1492 18.8928 17.208L16.32 25.1232C16.281 25.241 16.2804 25.3682 16.3183 25.4864C16.3563 25.6046 16.4308 25.7077 16.5312 25.7808L24 31.2Z" fill="#FC6D26"/>
<path d="M7.70872 10.0704C8.95202 10.0704 9.95992 9.0625 9.95992 7.81919C9.95992 6.57589 8.95202 5.56799 7.70872 5.56799C6.46542 5.56799 5.45752 6.57589 5.45752 7.81919C5.45752 9.0625 6.46542 10.0704 7.70872 10.0704Z" fill="#AC7FFF"/>
<path d="M3.21116 23.7408C4.45446 23.7408 5.46236 22.7329 5.46236 21.4896C5.46236 20.2463 4.45446 19.2384 3.21116 19.2384C1.96786 19.2384 0.959961 20.2463 0.959961 21.4896C0.959961 22.7329 1.96786 23.7408 3.21116 23.7408Z" fill="#AC7FFF"/>
<path d="M7.70872 42.432C8.95202 42.432 9.95992 41.4241 9.95992 40.1808C9.95992 38.9375 8.95202 37.9296 7.70872 37.9296C6.46542 37.9296 5.45752 38.9375 5.45752 40.1808C5.45752 41.4241 6.46542 42.432 7.70872 42.432Z" fill="#AC7FFF"/>
<path d="M9.36473 31.9344C10.608 31.9344 11.6159 30.9265 11.6159 29.6832C11.6159 28.4399 10.608 27.432 9.36473 27.432C8.12142 27.432 7.11353 28.4399 7.11353 29.6832C7.11353 30.9265 8.12142 31.9344 9.36473 31.9344Z" fill="#AC7FFF"/>
<path d="M40.2912 10.0704C41.5345 10.0704 42.5424 9.0625 42.5424 7.81919C42.5424 6.57589 41.5345 5.56799 40.2912 5.56799C39.0479 5.56799 38.04 6.57589 38.04 7.81919C38.04 9.0625 39.0479 10.0704 40.2912 10.0704Z" fill="#AC7FFF"/>
<path d="M44.7888 23.7408C46.0321 23.7408 47.04 22.7329 47.04 21.4896C47.04 20.2463 46.0321 19.2384 44.7888 19.2384C43.5455 19.2384 42.5376 20.2463 42.5376 21.4896C42.5376 22.7329 43.5455 23.7408 44.7888 23.7408Z" fill="#AC7FFF"/>
<path d="M40.2912 42.432C41.5345 42.432 42.5424 41.4241 42.5424 40.1808C42.5424 38.9375 41.5345 37.9296 40.2912 37.9296C39.0479 37.9296 38.04 38.9375 38.04 40.1808C38.04 41.4241 39.0479 42.432 40.2912 42.432Z" fill="#AC7FFF"/>
<path d="M38.6352 31.9344C39.8785 31.9344 40.8864 30.9265 40.8864 29.6832C40.8864 28.4399 39.8785 27.432 38.6352 27.432C37.3919 27.432 36.384 28.4399 36.384 29.6832C36.384 30.9265 37.3919 31.9344 38.6352 31.9344Z" fill="#AC7FFF"/>
<path d="M23.9999 32.16C23.7982 32.1597 23.6017 32.0959 23.4383 31.9776L15.9695 26.5584C15.7054 26.3666 15.5088 26.0961 15.408 25.7856C15.3071 25.4752 15.307 25.1408 15.4079 24.8304L17.9759 16.9152C18.0592 16.6636 18.2194 16.4444 18.4338 16.2886C18.6482 16.1327 18.906 16.048 19.1711 16.0464C19.4349 16.0486 19.6913 16.1336 19.904 16.2896C20.1168 16.4455 20.2751 16.6643 20.3567 16.9152L21.8495 21.5088H26.1311L27.6239 16.9152C27.7049 16.6659 27.8618 16.4481 28.0727 16.2923C28.2835 16.1366 28.5378 16.0506 28.7999 16.0464C29.0658 16.0411 29.3263 16.1219 29.5426 16.2768C29.7588 16.4316 29.9192 16.6522 29.9999 16.9056L32.5919 24.8304C32.6927 25.1408 32.6927 25.4752 32.5918 25.7856C32.4909 26.0961 32.2944 26.3666 32.0303 26.5584L24.5663 31.9824C24.401 32.1 24.2027 32.1621 23.9999 32.16ZM17.3183 25.1664L23.9999 30.0192L30.6815 25.1664L28.8287 19.4544L27.7535 22.7664C27.6907 22.9589 27.5687 23.1266 27.4049 23.2455C27.2411 23.3645 27.0439 23.4287 26.8415 23.4288H21.1631C20.9601 23.4283 20.7624 23.3635 20.5985 23.2436C20.4347 23.1237 20.313 22.955 20.2511 22.7616L19.1711 19.4496L17.3183 25.1664Z" fill="#380D75"/>
<path d="M16.5936 22.3968L5.45756 22.3056C5.20295 22.3056 4.95877 22.2045 4.77874 22.0244C4.5987 21.8444 4.49756 21.6002 4.49756 21.3456C4.49756 21.091 4.5987 20.8468 4.77874 20.6668C4.95877 20.4867 5.20295 20.3856 5.45756 20.3856L14.8032 20.4624L8.37116 10.5936C8.2307 10.3816 8.18012 10.1225 8.23052 9.87319C8.28091 9.62391 8.42817 9.40481 8.63996 9.264C8.74552 9.1949 8.86366 9.14729 8.98764 9.12389C9.11161 9.10048 9.23898 9.10174 9.36246 9.1276C9.48595 9.15346 9.60313 9.2034 9.7073 9.27457C9.81147 9.34575 9.90059 9.43676 9.96956 9.5424L17.3952 20.9088C17.4905 21.0535 17.5448 21.2213 17.5525 21.3945C17.5601 21.5676 17.5207 21.7395 17.4386 21.8921C17.3564 22.0447 17.2344 22.1721 17.0857 22.261C16.9369 22.3498 16.7668 22.3968 16.5936 22.3968Z" fill="#380D75"/>
<path d="M7.70412 11.04C7.06901 11.04 6.44815 10.8517 5.92007 10.4988C5.392 10.146 4.98041 9.64444 4.73736 9.05767C4.49431 8.4709 4.43072 7.82524 4.55462 7.20233C4.67853 6.57941 4.98437 6.00723 5.43346 5.55814C5.88255 5.10905 6.45474 4.80321 7.07765 4.6793C7.70056 4.5554 8.34622 4.61899 8.93299 4.86204C9.51976 5.10509 10.0213 5.51667 10.3741 6.04475C10.727 6.57283 10.9153 7.19369 10.9153 7.8288C10.9153 8.68046 10.577 9.49725 9.97478 10.0995C9.37257 10.7017 8.55578 11.04 7.70412 11.04ZM7.70412 6.5424C7.44854 6.5424 7.19871 6.61825 6.98627 6.76034C6.77383 6.90244 6.60834 7.10438 6.51076 7.3406C6.41317 7.57681 6.38788 7.83667 6.43809 8.08727C6.48831 8.33787 6.61176 8.56793 6.79282 8.74832C6.97387 8.9287 7.20439 9.0513 7.45518 9.10057C7.70596 9.14985 7.96573 9.1236 8.20158 9.02513C8.43743 8.92667 8.63875 8.76042 8.78005 8.54746C8.92135 8.33449 8.99627 8.08438 8.99532 7.8288C8.99659 7.65866 8.9641 7.48995 8.89972 7.33245C8.83534 7.17496 8.74035 7.03179 8.62027 6.91126C8.50018 6.79072 8.35737 6.69521 8.20011 6.63024C8.04285 6.56528 7.87427 6.53216 7.70412 6.5328V6.5424Z" fill="#380D75"/>
<path d="M3.21111 24.696C2.57559 24.697 1.95408 24.5093 1.42526 24.1568C0.89645 23.8043 0.484118 23.3029 0.240475 22.7159C-0.0031676 22.1289 -0.0671645 21.4829 0.0565872 20.8595C0.180339 20.2362 0.486274 19.6635 0.935657 19.2141C1.38504 18.7648 1.95766 18.4588 2.58102 18.3351C3.20438 18.2113 3.85044 18.2753 4.43741 18.519C5.02437 18.7626 5.52584 19.1749 5.87833 19.7038C6.23082 20.2326 6.41846 20.8541 6.41751 21.4896C6.41624 22.3396 6.07802 23.1544 5.47698 23.7555C4.87594 24.3565 4.06111 24.6947 3.21111 24.696ZM3.21111 20.1984C2.95554 20.1975 2.70543 20.2724 2.49246 20.4137C2.27949 20.555 2.11325 20.7563 2.01478 20.9921C1.91632 21.228 1.89006 21.4878 1.93934 21.7385C1.98862 21.9893 2.11121 22.2199 2.2916 22.4009C2.47198 22.582 2.70204 22.7054 2.95264 22.7556C3.20324 22.8058 3.4631 22.7806 3.69932 22.683C3.93554 22.5854 4.13748 22.4199 4.27957 22.2075C4.42166 21.995 4.49751 21.7452 4.49751 21.4896C4.49752 21.148 4.36214 20.8203 4.12103 20.5783C3.87992 20.3363 3.55273 20.1997 3.21111 20.1984Z" fill="#380D75"/>
<path d="M7.70412 43.3872C7.0688 43.3872 6.44776 43.1987 5.91957 42.8457C5.39139 42.4926 4.97981 41.9908 4.7369 41.4038C4.49399 40.8167 4.43068 40.1708 4.55498 39.5478C4.67927 38.9247 4.98558 38.3525 5.43516 37.9036C5.88473 37.4547 6.45736 37.1493 7.08059 37.0259C7.70382 36.9026 8.34963 36.9668 8.93632 37.2106C9.52301 37.4544 10.0242 37.8667 10.3765 38.3954C10.7287 38.9242 10.9163 39.5455 10.9153 40.1808C10.914 41.0316 10.5752 41.8472 9.97308 42.4484C9.371 43.0495 8.55495 43.3872 7.70412 43.3872ZM7.70412 38.8896C7.44874 38.8896 7.1991 38.9653 6.98677 39.1072C6.77443 39.2491 6.60893 39.4507 6.5112 39.6867C6.41348 39.9226 6.38791 40.1822 6.43773 40.4327C6.48755 40.6832 6.61052 40.9132 6.7911 41.0938C6.97168 41.2744 7.20175 41.3974 7.45222 41.4472C7.70269 41.497 7.9623 41.4714 8.19824 41.3737C8.43417 41.276 8.63583 41.1105 8.77771 40.8982C8.91959 40.6858 8.99532 40.4362 8.99532 40.1808C8.99658 40.0104 8.96412 39.8415 8.8998 39.6837C8.83548 39.526 8.74057 39.3825 8.62054 39.2616C8.50052 39.1407 8.35775 39.0447 8.20047 38.9792C8.04318 38.9137 7.87449 38.88 7.70412 38.88V38.8896Z" fill="#380D75"/>
<path d="M9.36468 32.8944C8.72936 32.8953 8.10804 32.7078 7.57933 32.3555C7.05062 32.0033 6.63829 31.5021 6.3945 30.9154C6.15072 30.3287 6.08644 29.6829 6.2098 29.0597C6.33316 28.4364 6.63862 27.8638 7.08752 27.4142C7.53643 26.9647 8.1086 26.6584 8.73164 26.5341C9.35468 26.4098 10.0006 26.4731 10.5876 26.716C11.1747 26.9589 11.6765 27.3705 12.0296 27.8987C12.3826 28.4268 12.5711 29.0479 12.5711 29.6832C12.5698 30.5336 12.2317 31.349 11.6308 31.9508C11.0299 32.5526 10.2151 32.8919 9.36468 32.8944ZM9.36468 28.3968C9.1089 28.3958 8.8586 28.4709 8.64553 28.6124C8.43246 28.7539 8.26622 28.9555 8.1679 29.1917C8.06958 29.4278 8.0436 29.6878 8.09327 29.9387C8.14294 30.1896 8.26601 30.4201 8.44688 30.601C8.62774 30.7819 8.85825 30.9049 9.10917 30.9546C9.36008 31.0043 9.62009 30.9783 9.85623 30.88C10.0924 30.7817 10.294 30.6154 10.4355 30.4023C10.577 30.1893 10.652 29.939 10.6511 29.6832C10.6498 29.3424 10.5139 29.0159 10.2729 28.775C10.0319 28.534 9.70547 28.3981 9.36468 28.3968Z" fill="#380D75"/>
<path d="M9.36481 39.624C9.17512 39.6242 8.98964 39.5681 8.83177 39.4629C8.67391 39.3577 8.55074 39.2082 8.47782 39.033C8.4049 38.8579 8.38549 38.6651 8.42205 38.479C8.4586 38.2929 8.54948 38.1217 8.68321 37.9872L18.9024 27.744C18.9896 27.6475 19.0954 27.5697 19.2135 27.5153C19.3317 27.4609 19.4596 27.4311 19.5896 27.4277C19.7196 27.4243 19.849 27.4473 19.9698 27.4953C20.0906 27.5434 20.2004 27.6155 20.2926 27.7073C20.3847 27.7991 20.4572 27.9087 20.5057 28.0293C20.5542 28.15 20.5777 28.2793 20.5747 28.4093C20.5717 28.5393 20.5424 28.6673 20.4884 28.7857C20.4345 28.904 20.357 29.0101 20.2608 29.0976L10.0416 39.36C9.85931 39.5333 9.61629 39.6281 9.36481 39.624Z" fill="#380D75"/>
<path d="M13.6513 35.3232C13.521 35.3209 13.3924 35.292 13.2736 35.2383C13.1548 35.1847 13.0481 35.1074 12.9601 35.0112L10.3297 32.1312C10.2446 32.0367 10.179 31.9263 10.1365 31.8063C10.0941 31.6864 10.0757 31.5593 10.0824 31.4323C10.0891 31.3053 10.1207 31.1808 10.1755 31.066C10.2303 30.9512 10.3072 30.8483 10.4017 30.7632C10.4963 30.6781 10.6067 30.6125 10.7266 30.57C10.8465 30.5276 10.9736 30.5092 11.1006 30.5159C11.2277 30.5226 11.3521 30.5542 11.4669 30.609C11.5817 30.6638 11.6846 30.7407 11.7697 30.8352L13.6801 32.976L15.1921 31.4592C15.2813 31.3697 15.3873 31.2986 15.5039 31.2501C15.6206 31.2015 15.7457 31.1764 15.872 31.1762C15.9984 31.176 16.1235 31.2006 16.2404 31.2488C16.3572 31.2969 16.4634 31.3676 16.5529 31.4568C16.6424 31.546 16.7135 31.6519 16.7621 31.7686C16.8106 31.8853 16.8357 32.0103 16.8359 32.1367C16.8362 32.2631 16.8115 32.3882 16.7634 32.5051C16.7152 32.6219 16.6445 32.7281 16.5553 32.8176L14.3329 35.04C14.2436 35.1298 14.1374 35.2011 14.0204 35.2497C13.9034 35.2983 13.778 35.3233 13.6513 35.3232Z" fill="#380D75"/>
<path d="M31.4064 22.3968C31.2331 22.3968 31.063 22.3498 30.9143 22.261C30.7655 22.1721 30.6436 22.0447 30.5614 21.8921C30.4792 21.7395 30.4398 21.5676 30.4475 21.3945C30.4551 21.2213 30.5095 21.0535 30.6048 20.9088L38.0208 9.54239C38.0898 9.43543 38.1794 9.34326 38.2843 9.27124C38.3893 9.19922 38.5075 9.14879 38.6321 9.12288C38.7567 9.09697 38.8853 9.09611 39.0102 9.12033C39.1352 9.14456 39.2541 9.19339 39.36 9.26399C39.4656 9.33297 39.5566 9.42209 39.6278 9.52626C39.699 9.63043 39.7489 9.7476 39.7748 9.87109C39.8006 9.99457 39.8019 10.1219 39.7785 10.2459C39.7551 10.3699 39.7075 10.488 39.6384 10.5936L33.1872 20.4624L42.5328 20.3856C42.7874 20.3856 43.0316 20.4867 43.2116 20.6668C43.3916 20.8468 43.4928 21.091 43.4928 21.3456C43.4928 21.6002 43.3916 21.8444 43.2116 22.0244C43.0316 22.2045 42.7874 22.3056 42.5328 22.3056L31.3968 22.3968H31.4064Z" fill="#380D75"/>
<path d="M40.2913 11.04C39.6562 11.04 39.0353 10.8517 38.5072 10.4988C37.9792 10.146 37.5676 9.64444 37.3245 9.05767C37.0815 8.4709 37.0179 7.82524 37.1418 7.20233C37.2657 6.57941 37.5715 6.00723 38.0206 5.55814C38.4697 5.10905 39.0419 4.80321 39.6648 4.6793C40.2877 4.5554 40.9334 4.61899 41.5202 4.86204C42.1069 5.10509 42.6084 5.51667 42.9613 6.04475C43.3142 6.57283 43.5025 7.19369 43.5025 7.8288C43.5025 8.68046 43.1642 9.49725 42.5619 10.0995C41.9597 10.7017 41.1429 11.04 40.2913 11.04ZM40.2913 6.5424C40.0357 6.5424 39.7859 6.61825 39.5734 6.76034C39.361 6.90244 39.1955 7.10438 39.0979 7.3406C39.0003 7.57681 38.975 7.83667 39.0253 8.08727C39.0755 8.33787 39.1989 8.56793 39.38 8.74832C39.561 8.9287 39.7916 9.0513 40.0423 9.10057C40.2931 9.14985 40.5529 9.1236 40.7887 9.02513C41.0246 8.92667 41.2259 8.76042 41.3672 8.54746C41.5085 8.33449 41.5834 8.08438 41.5825 7.8288C41.5838 7.65866 41.5513 7.48995 41.4869 7.33245C41.4225 7.17496 41.3275 7.03179 41.2074 6.91126C41.0873 6.79072 40.9445 6.69521 40.7873 6.63024C40.63 6.56528 40.4614 6.53216 40.2913 6.5328V6.5424Z" fill="#380D75"/>
<path d="M44.7936 24.696C44.1581 24.697 43.5366 24.5093 43.0078 24.1568C42.479 23.8043 42.0666 23.3029 41.823 22.7159C41.5794 22.1289 41.5154 21.4829 41.6391 20.8595C41.7629 20.2362 42.0688 19.6635 42.5182 19.2141C42.9676 18.7648 43.5402 18.4588 44.1635 18.3351C44.7869 18.2113 45.433 18.2753 46.0199 18.519C46.6069 18.7626 47.1084 19.1749 47.4608 19.7038C47.8133 20.2326 48.001 20.8541 48 21.4896C47.9988 22.3396 47.6605 23.1544 47.0595 23.7555C46.4585 24.3565 45.6436 24.6947 44.7936 24.696ZM44.7936 20.1984C44.5381 20.1975 44.2879 20.2724 44.075 20.4137C43.862 20.555 43.6958 20.7563 43.5973 20.9921C43.4988 21.228 43.4726 21.4878 43.5219 21.7385C43.5711 21.9893 43.6937 22.2199 43.8741 22.4009C44.0545 22.582 44.2846 22.7054 44.5352 22.7556C44.7858 22.8058 45.0456 22.7806 45.2818 22.683C45.5181 22.5854 45.72 22.4199 45.8621 22.2075C46.0042 21.995 46.08 21.7452 46.08 21.4896C46.08 21.148 45.9447 20.8203 45.7035 20.5783C45.4624 20.3363 45.1352 20.1997 44.7936 20.1984Z" fill="#380D75"/>
<path d="M40.2913 43.3872C39.656 43.3872 39.0349 43.1987 38.5067 42.8457C37.9785 42.4926 37.567 41.9908 37.3241 41.4038C37.0812 40.8167 37.0178 40.1708 37.1421 39.5478C37.2664 38.9247 37.5727 38.3525 38.0223 37.9036C38.4719 37.4547 39.0445 37.1493 39.6678 37.0259C40.291 36.9026 40.9368 36.9668 41.5235 37.2106C42.1102 37.4544 42.6114 37.8667 42.9636 38.3954C43.3159 38.9242 43.5034 39.5455 43.5025 40.1808C43.5012 41.0316 43.1623 41.8472 42.5602 42.4484C41.9582 43.0495 41.1421 43.3872 40.2913 43.3872ZM40.2913 38.8896C40.0359 38.8896 39.7863 38.9653 39.5739 39.1072C39.3616 39.2491 39.1961 39.4507 39.0984 39.6867C39.0006 39.9226 38.9751 40.1822 39.0249 40.4327C39.0747 40.6832 39.1977 40.9132 39.3783 41.0938C39.5588 41.2744 39.7889 41.3974 40.0394 41.4472C40.2898 41.497 40.5495 41.4714 40.7854 41.3737C41.0213 41.276 41.223 41.1105 41.3649 40.8982C41.5068 40.6858 41.5825 40.4362 41.5825 40.1808C41.5837 40.0104 41.5513 39.8415 41.487 39.6837C41.4226 39.526 41.3277 39.3825 41.2077 39.2616C41.0877 39.1407 40.9449 39.0447 40.7876 38.9792C40.6303 38.9137 40.4617 38.88 40.2913 38.88V38.8896Z" fill="#380D75"/>
<path d="M38.6353 32.8944C38.0002 32.8944 37.3793 32.7061 36.8512 32.3532C36.3231 32.0004 35.9116 31.4988 35.6685 30.9121C35.4255 30.3253 35.3619 29.6796 35.4858 29.0567C35.6097 28.4338 35.9155 27.8616 36.3646 27.4125C36.8137 26.9634 37.3859 26.6576 38.0088 26.5337C38.6317 26.4098 39.2774 26.4734 39.8642 26.7164C40.4509 26.9595 40.9524 27.3711 41.3053 27.8992C41.6581 28.4272 41.8465 29.0481 41.8465 29.6832C41.8465 30.5349 41.5082 31.3516 40.9059 31.9539C40.3037 32.5561 39.4869 32.8944 38.6353 32.8944ZM38.6353 28.3968C38.3797 28.3968 38.1299 28.4727 37.9174 28.6147C37.705 28.7568 37.5395 28.9588 37.4419 29.195C37.3443 29.4312 37.319 29.6911 37.3692 29.9417C37.4195 30.1923 37.5429 30.4223 37.724 30.6027C37.905 30.7831 38.1355 30.9057 38.3863 30.955C38.6371 31.0043 38.8969 30.978 39.1327 30.8795C39.3686 30.7811 39.5699 30.6148 39.7112 30.4019C39.8525 30.1889 39.9274 29.9388 39.9265 29.6832C39.9265 29.5139 39.893 29.3462 39.8281 29.1898C39.7632 29.0334 39.668 28.8914 39.548 28.7719C39.428 28.6524 39.2857 28.5577 39.129 28.4933C38.9724 28.429 38.8046 28.3962 38.6353 28.3968Z" fill="#380D75"/>
<path d="M38.6352 39.624C38.3837 39.6281 38.1407 39.5333 37.9584 39.36L27.7392 29.0976C27.643 29.0101 27.5655 28.904 27.5116 28.7857C27.4576 28.6673 27.4283 28.5393 27.4253 28.4093C27.4223 28.2793 27.4458 28.15 27.4943 28.0293C27.5428 27.9087 27.6153 27.7991 27.7074 27.7073C27.7995 27.6155 27.9094 27.5434 28.0302 27.4953C28.151 27.4473 28.2804 27.4243 28.4104 27.4277C28.5404 27.4311 28.6683 27.4609 28.7864 27.5153C28.9046 27.5697 29.0104 27.6475 29.0976 27.744L39.3168 37.9872C39.4505 38.1217 39.5414 38.2929 39.5779 38.479C39.6145 38.6651 39.5951 38.8579 39.5222 39.033C39.4492 39.2082 39.3261 39.3577 39.1682 39.4629C39.0103 39.5681 38.8249 39.6242 38.6352 39.624Z" fill="#380D75"/>
<path d="M34.3487 35.3232C34.222 35.3233 34.0966 35.2983 33.9796 35.2497C33.8626 35.2011 33.7564 35.1298 33.6671 35.04L31.4447 32.8176C31.2646 32.6368 31.1636 32.3919 31.1641 32.1367C31.1645 31.8815 31.2663 31.6369 31.4471 31.4568C31.6279 31.2767 31.8728 31.1757 32.128 31.1762C32.3832 31.1766 32.6278 31.2784 32.8079 31.4592L34.3199 32.976L36.2687 30.8496C36.3538 30.755 36.4567 30.6782 36.5715 30.6234C36.6863 30.5686 36.8108 30.537 36.9378 30.5303C37.0648 30.5236 37.1919 30.542 37.3118 30.5844C37.4318 30.6269 37.5421 30.6925 37.6367 30.7776C37.7312 30.8627 37.8081 30.9656 37.8629 31.0804C37.9177 31.1952 37.9493 31.3196 37.956 31.4467C37.9627 31.5737 37.9443 31.7008 37.9019 31.8207C37.8594 31.9407 37.7938 32.051 37.7087 32.1456L35.0783 35.0256C34.9909 35.1212 34.885 35.1982 34.767 35.2518C34.649 35.3054 34.5214 35.3346 34.3919 35.3376L34.3487 35.3232Z" fill="#380D75"/>
</g>
<defs>
<clipPath id="clip0">
<rect width="48" height="48" fill="white"/>
</clipPath>
</defs>
</svg>
