<svg width="48" height="48" viewBox="0 0 48 48" fill="none" xmlns="http://www.w3.org/2000/svg">
<path d="M17.6593 37.8576L17.0065 39.2592C17.5419 39.9959 18.1898 40.6438 18.9265 41.1792L20.3329 40.5216C20.5 40.4487 20.6802 40.4106 20.8625 40.4095C21.0448 40.4085 21.2254 40.4445 21.3933 40.5154C21.5612 40.5864 21.713 40.6908 21.8393 40.8222C21.9656 40.9536 22.0639 41.1094 22.1281 41.28L22.6609 42.72C23.5483 42.8592 24.4519 42.8592 25.3393 42.72L25.8721 41.28C25.9365 41.1068 26.036 40.9487 26.1642 40.8157C26.2925 40.6826 26.4468 40.5775 26.6175 40.5067C26.7882 40.436 26.9717 40.4013 27.1565 40.4046C27.3412 40.408 27.5233 40.4495 27.6913 40.5264L29.0977 41.184C29.8259 40.6467 30.4656 39.9989 30.9937 39.264L30.3409 37.8624C30.2639 37.694 30.2224 37.5116 30.219 37.3265C30.2156 37.1414 30.2503 36.9576 30.321 36.7865C30.3917 36.6154 30.4968 36.4607 30.6299 36.332C30.763 36.2033 30.9211 36.1033 31.0945 36.0384L32.5345 35.5104C32.6713 34.6212 32.6713 33.7164 32.5345 32.8272L31.0945 32.2992C30.9211 32.2343 30.763 32.1343 30.6299 32.0056C30.4968 31.8769 30.3917 31.7222 30.321 31.5511C30.2503 31.38 30.2156 31.1962 30.219 31.0111C30.2224 30.826 30.2639 30.6436 30.3409 30.4752L30.9937 29.0736C30.4656 28.3387 29.8259 27.6909 29.0977 27.1536L27.6913 27.84C27.5224 27.9166 27.3394 27.9574 27.154 27.9598C26.9685 27.9622 26.7845 27.9263 26.6137 27.8541C26.4428 27.782 26.2887 27.6752 26.1611 27.5406C26.0334 27.406 25.9351 27.2465 25.8721 27.072L25.3393 25.632C24.4519 25.4928 23.5483 25.4928 22.6609 25.632L22.1281 27.072C22.0652 27.2465 21.9668 27.406 21.8392 27.5406C21.7116 27.6752 21.5575 27.782 21.3866 27.8541C21.2157 27.9263 21.0317 27.9622 20.8463 27.9598C20.6608 27.9574 20.4778 27.9166 20.3089 27.84L18.9025 27.168C18.1658 27.7034 17.5179 28.3513 16.9825 29.088L17.6353 30.4896C17.713 30.6579 17.7551 30.8404 17.7589 31.0257C17.7627 31.211 17.7281 31.3951 17.6573 31.5664C17.5866 31.7377 17.4811 31.8925 17.3476 32.0211C17.2142 32.1497 17.0555 32.2493 16.8817 32.3136L15.4417 32.8416C15.3049 33.7308 15.3049 34.6356 15.4417 35.5248L16.8817 36.0528C17.0561 36.1138 17.2159 36.2103 17.3511 36.3362C17.4862 36.4622 17.5938 36.6148 17.6668 36.7844C17.7399 36.9541 17.777 37.1371 17.7757 37.3218C17.7744 37.5065 17.7348 37.689 17.6593 37.8576ZM21.1633 34.1664C21.1633 33.6053 21.3297 33.0569 21.6414 32.5904C21.9531 32.1239 22.3962 31.7603 22.9145 31.5455C23.4329 31.3308 24.0033 31.2747 24.5535 31.3841C25.1038 31.4936 25.6093 31.7638 26.006 32.1605C26.4028 32.5572 26.6729 33.0627 26.7824 33.613C26.8919 34.1633 26.8357 34.7336 26.621 35.252C26.4063 35.7704 26.0427 36.2134 25.5762 36.5251C25.1096 36.8368 24.5612 37.0032 24.0001 37.0032C23.2477 37.0032 22.5262 36.7043 21.9942 36.1723C21.4622 35.6403 21.1633 34.9188 21.1633 34.1664Z" fill="#FCA121"/>
<path d="M36.3121 22.248C36.0575 22.248 35.8133 22.1469 35.6333 21.9668C35.4533 21.7868 35.3521 21.5426 35.3521 21.288V13.5456C35.3521 10.4623 34.1273 7.50528 31.9471 5.32506C29.7668 3.14484 26.8098 1.92 23.7265 1.92C20.6432 1.92 17.6862 3.14484 15.506 5.32506C13.3257 7.50528 12.1009 10.4623 12.1009 13.5456V21.288C12.1009 21.5426 11.9998 21.7868 11.8197 21.9668C11.6397 22.1469 11.3955 22.248 11.1409 22.248C10.8863 22.248 10.6421 22.1469 10.4621 21.9668C10.2821 21.7868 10.1809 21.5426 10.1809 21.288V13.5456C10.1809 9.95308 11.608 6.50771 14.1483 3.96741C16.6886 1.42712 20.134 0 23.7265 0C27.319 0 30.7644 1.42712 33.3047 3.96741C35.845 6.50771 37.2721 9.95308 37.2721 13.5456V21.288C37.2721 21.5426 37.171 21.7868 36.9909 21.9668C36.8109 22.1469 36.5667 22.248 36.3121 22.248Z" fill="#380D75"/>
<path d="M41.5056 48H6.49442C6.23982 48 5.99564 47.8988 5.8156 47.7188C5.63557 47.5388 5.53442 47.2946 5.53442 47.04V25.1712C5.53442 24.9166 5.63557 24.6724 5.8156 24.4924C5.99564 24.3123 6.23982 24.2112 6.49442 24.2112C6.74903 24.2112 6.99321 24.3123 7.17325 24.4924C7.35328 24.6724 7.45442 24.9166 7.45442 25.1712V46.08H41.5056C41.7602 46.08 42.0044 46.1811 42.1844 46.3612C42.3645 46.5412 42.4656 46.7854 42.4656 47.04C42.4656 47.2946 42.3645 47.5388 42.1844 47.7188C42.0044 47.8988 41.7602 48 41.5056 48Z" fill="#380D75"/>
<path d="M41.5056 43.1472C41.251 43.1472 41.0068 43.0461 40.8268 42.866C40.6468 42.686 40.5456 42.4418 40.5456 42.1872V22.248H6.49442C6.23982 22.248 5.99564 22.1469 5.8156 21.9668C5.63557 21.7868 5.53442 21.5426 5.53442 21.288C5.53442 21.0334 5.63557 20.7892 5.8156 20.6092C5.99564 20.4291 6.23982 20.328 6.49442 20.328H41.5056C41.7602 20.328 42.0044 20.4291 42.1844 20.6092C42.3645 20.7892 42.4656 21.0334 42.4656 21.288V42.1872C42.4656 42.4418 42.3645 42.686 42.1844 42.866C42.0044 43.0461 41.7602 43.1472 41.5056 43.1472Z" fill="#380D75"/>
<path d="M24 43.7808C23.5021 43.7856 23.0046 43.7519 22.512 43.68C22.3425 43.6535 22.1832 43.5821 22.0507 43.4732C21.9181 43.3643 21.8172 43.2219 21.7584 43.0608L21.2256 41.6208C21.2066 41.573 21.1783 41.5295 21.1423 41.4928C21.1064 41.456 21.0635 41.4267 21.0162 41.4066C20.9689 41.3865 20.9181 41.376 20.8667 41.3757C20.8153 41.3754 20.7643 41.3853 20.7168 41.4048L19.3104 42.0624C19.1561 42.1325 18.986 42.1606 18.8174 42.1438C18.6488 42.1269 18.4877 42.0657 18.3504 41.9664C17.5364 41.3728 16.8205 40.6553 16.2288 39.84C16.1302 39.7023 16.0699 39.5409 16.0539 39.3723C16.0379 39.2037 16.0667 39.0338 16.1376 38.88L16.8 37.44C16.8213 37.3924 16.8323 37.3409 16.8323 37.2888C16.8323 37.2367 16.8213 37.1852 16.8 37.1376C16.7791 37.0895 16.7488 37.046 16.7109 37.0097C16.673 36.9734 16.6282 36.9451 16.5792 36.9264L15.1392 36.3984C14.978 36.3396 14.8356 36.2386 14.7267 36.1061C14.6178 35.9736 14.5464 35.8143 14.52 35.6448C14.3664 34.6571 14.3664 33.6517 14.52 32.664C14.5463 32.4984 14.6155 32.3426 14.7208 32.212C14.8261 32.0815 14.9637 31.9808 15.12 31.92L16.56 31.392C16.6109 31.3761 16.6579 31.3497 16.698 31.3146C16.7382 31.2795 16.7706 31.2364 16.7932 31.1881C16.8157 31.1398 16.828 31.0873 16.8292 31.034C16.8303 30.9806 16.8204 30.9277 16.8 30.8784L16.1376 29.472C16.0667 29.3182 16.0379 29.1483 16.0539 28.9797C16.0699 28.8111 16.1302 28.6498 16.2288 28.512C16.8173 27.703 17.5283 26.9904 18.336 26.4C18.4733 26.3007 18.6344 26.2395 18.803 26.2226C18.9716 26.2058 19.1417 26.2339 19.296 26.304L20.6976 26.9616C20.7453 26.9823 20.7967 26.993 20.8488 26.993C20.9008 26.993 20.9523 26.9823 21 26.9616C21.0479 26.943 21.0915 26.9147 21.1278 26.8783C21.1642 26.8419 21.1926 26.7984 21.2112 26.7504L21.744 25.3104C21.8021 25.1484 21.9027 25.005 22.0353 24.8952C22.1679 24.7854 22.3275 24.7133 22.4976 24.6864C23.4836 24.5328 24.4875 24.5328 25.4736 24.6864C25.6436 24.7133 25.8032 24.7854 25.9358 24.8952C26.0684 25.005 26.169 25.1484 26.2272 25.3104L26.76 26.7504C26.7785 26.7984 26.8069 26.8419 26.8433 26.8783C26.8796 26.9147 26.9232 26.943 26.9712 26.9616C27.0189 26.9823 27.0703 26.993 27.1224 26.993C27.1744 26.993 27.2259 26.9823 27.2736 26.9616L28.6752 26.304C28.8294 26.2339 28.9995 26.2058 29.1681 26.2226C29.3367 26.2395 29.4979 26.3007 29.6352 26.4C30.4425 26.989 31.1534 27.6999 31.7424 28.5072C31.8409 28.645 31.9012 28.8063 31.9172 28.9749C31.9333 29.1435 31.9044 29.3134 31.8336 29.4672L31.2 30.8784C31.1789 30.9258 31.1676 30.977 31.1669 31.0289C31.1662 31.0808 31.176 31.1324 31.1957 31.1804C31.2155 31.2284 31.2447 31.2719 31.2818 31.3082C31.3188 31.3446 31.3628 31.3731 31.4112 31.392L32.8512 31.92C33.0123 31.9788 33.1547 32.0798 33.2636 32.2123C33.3725 32.3448 33.4439 32.5041 33.4704 32.6736C33.6239 33.6613 33.6239 34.6667 33.4704 35.6544C33.4439 35.8239 33.3725 35.9832 33.2636 36.1157C33.1547 36.2482 33.0123 36.3492 32.8512 36.408L31.4112 36.936C31.364 36.955 31.3211 36.9831 31.2849 37.0188C31.2487 37.0545 31.2199 37.097 31.2003 37.1439C31.1806 37.1908 31.1705 37.2411 31.1704 37.2919C31.1704 37.3427 31.1804 37.3931 31.2 37.44L31.8624 38.88C31.9332 39.0338 31.9621 39.2037 31.946 39.3723C31.93 39.5409 31.8697 39.7023 31.7712 39.84C31.1822 40.6473 30.4713 41.3582 29.664 41.9472C29.5267 42.0465 29.3655 42.1077 29.1969 42.1246C29.0283 42.1414 28.8582 42.1133 28.704 42.0432L27.3024 41.3856C27.2547 41.3649 27.2032 41.3542 27.1512 41.3542C27.0991 41.3542 27.0477 41.3649 27 41.3856C26.9514 41.4044 26.9074 41.4335 26.871 41.4707C26.8345 41.508 26.8065 41.5526 26.7888 41.6016L26.256 43.0416C26.1988 43.2082 26.097 43.3559 25.9615 43.4685C25.8261 43.5811 25.6622 43.6543 25.488 43.68C24.9953 43.7519 24.4978 43.7856 24 43.7808ZM23.3616 41.832C23.7863 41.8704 24.2136 41.8704 24.6384 41.832L24.96 40.9296C25.0698 40.6309 25.2403 40.3582 25.4608 40.1287C25.6812 39.8992 25.9469 39.7178 26.2409 39.5961C26.5349 39.4743 26.851 39.4148 27.1692 39.4212C27.4873 39.4277 27.8007 39.5 28.0896 39.6336L28.9584 40.0416C29.2843 39.7637 29.5876 39.4603 29.8656 39.1344L29.4576 38.2608C29.3254 37.9717 29.2543 37.6586 29.2486 37.3408C29.2428 37.023 29.3026 36.7075 29.4242 36.4138C29.5458 36.1202 29.7266 35.8548 29.9553 35.6341C30.184 35.4134 30.4558 35.2422 30.7536 35.1312L31.68 34.8048C31.7136 34.3783 31.7136 33.9497 31.68 33.5232L30.7728 33.1968C30.475 33.0858 30.2032 32.9146 29.9745 32.6939C29.7458 32.4732 29.565 32.2078 29.4434 31.9142C29.3218 31.6205 29.262 31.305 29.2678 30.9872C29.2735 30.6694 29.3446 30.3563 29.4768 30.0672L29.8848 29.1936C29.608 28.8681 29.3045 28.5662 28.9776 28.2912L28.1088 28.6944C27.819 28.8312 27.5038 28.906 27.1835 28.9142C26.8631 28.9223 26.5446 28.8635 26.2483 28.7415C25.9519 28.6195 25.6843 28.4371 25.4625 28.2058C25.2406 27.9746 25.0695 27.6996 24.96 27.3984L24.6288 26.496C24.204 26.4576 23.7767 26.4576 23.352 26.496L23.04 27.3984C22.9301 27.6971 22.7596 27.9698 22.5391 28.1993C22.3187 28.4288 22.0531 28.6102 21.759 28.7319C21.465 28.8537 21.149 28.9132 20.8308 28.9068C20.5126 28.9003 20.1992 28.828 19.9104 28.6944L19.0416 28.2912C18.7146 28.5662 18.4111 28.8681 18.1344 29.1936L18.5424 30.0672C18.6745 30.3563 18.7456 30.6694 18.7514 30.9872C18.7571 31.305 18.6973 31.6205 18.5757 31.9142C18.4541 32.2078 18.2733 32.4732 18.0446 32.6939C17.8159 32.9146 17.5442 33.0858 17.2464 33.1968L16.32 33.5232C16.2864 33.9497 16.2864 34.3783 16.32 34.8048L17.2272 35.1312C17.5258 35.241 17.7985 35.4116 18.0281 35.632C18.2576 35.8525 18.4389 36.1181 18.5607 36.4121C18.6824 36.7061 18.742 37.0222 18.7355 37.3404C18.7291 37.6586 18.6568 37.972 18.5232 38.2608L18.1152 39.1344C18.3931 39.4603 18.6964 39.7637 19.0224 40.0416L19.8912 39.6336C20.1809 39.4968 20.4961 39.422 20.8164 39.4138C21.1368 39.4057 21.4553 39.4645 21.7516 39.5865C22.048 39.7085 22.3156 39.8909 22.5374 40.1222C22.7593 40.3535 22.9304 40.6284 23.04 40.9296L23.3616 41.832ZM24 37.9632C23.249 37.9632 22.515 37.7405 21.8906 37.3233C21.2662 36.9061 20.7795 36.3131 20.4922 35.6194C20.2048 34.9256 20.1296 34.1622 20.2761 33.4257C20.4226 32.6892 20.7842 32.0127 21.3152 31.4817C21.8462 30.9507 22.5227 30.5891 23.2592 30.4426C23.9958 30.2961 24.7592 30.3712 25.4529 30.6586C26.1467 30.946 26.7397 31.4326 27.1569 32.057C27.5741 32.6814 27.7968 33.4155 27.7968 34.1664C27.7955 35.173 27.3951 36.138 26.6833 36.8497C25.9715 37.5615 25.0065 37.9619 24 37.9632ZM24 32.2896C23.6288 32.2896 23.2659 32.3997 22.9573 32.6059C22.6486 32.8121 22.4081 33.1052 22.266 33.4482C22.124 33.7911 22.0868 34.1685 22.1592 34.5325C22.2316 34.8966 22.4104 35.231 22.6729 35.4935C22.9353 35.756 23.2698 35.9347 23.6338 36.0071C23.9979 36.0796 24.3752 36.0424 24.7182 35.9003C25.0611 35.7583 25.3542 35.5177 25.5605 35.2091C25.7667 34.9005 25.8768 34.5376 25.8768 34.1664C25.8768 33.6686 25.679 33.1913 25.3271 32.8393C24.9751 32.4873 24.4977 32.2896 24 32.2896Z" fill="#380D75"/>
</svg>
