<svg width="48" height="48" viewBox="0 0 48 48" fill="none" xmlns="http://www.w3.org/2000/svg">
<g clip-path="url(#clip0)">
<path d="M24.0001 32.4864C28.687 32.4864 32.4865 28.6869 32.4865 24C32.4865 19.3131 28.687 15.5136 24.0001 15.5136C19.3132 15.5136 15.5137 19.3131 15.5137 24C15.5137 28.6869 19.3132 32.4864 24.0001 32.4864Z" fill="#38F2AF"/>
<path d="M2.57764 33.4512C2.38537 33.4514 2.19748 33.3938 2.03829 33.286C1.87911 33.1781 1.75598 33.025 1.68484 32.8464C-0.044809 28.4911 -0.461566 23.7247 0.485986 19.1353C1.43354 14.5459 3.70394 10.3343 7.01707 7.02016C10.3302 3.70601 14.5411 1.43431 19.1302 0.485346C23.7193 -0.46362 28.4858 -0.0483314 32.8416 1.67997C32.9706 1.71556 33.0907 1.77771 33.1942 1.86243C33.2978 1.94715 33.3824 2.05257 33.4428 2.17194C33.5033 2.29131 33.538 2.42198 33.545 2.55558C33.5519 2.68918 33.5309 2.82276 33.4832 2.94774C33.4354 3.07273 33.3621 3.18636 33.2679 3.28135C33.1737 3.37635 33.0607 3.4506 32.9361 3.49936C32.8116 3.54812 32.6782 3.5703 32.5445 3.56448C32.4109 3.55866 32.2799 3.52497 32.16 3.46557C28.149 1.86366 23.7561 1.47333 19.5254 2.34291C15.2948 3.21248 11.412 5.30378 8.35793 8.35786C5.30384 11.4119 3.21255 15.2947 2.34297 19.5254C1.4734 23.7561 1.86373 28.1489 3.46564 32.16C3.5124 32.2772 3.53559 32.4025 3.53387 32.5287C3.53215 32.6549 3.50557 32.7795 3.45564 32.8955C3.4057 33.0114 3.3334 33.1163 3.24287 33.2043C3.15234 33.2922 3.04535 33.3614 2.92804 33.408C2.81469 33.4429 2.69607 33.4575 2.57764 33.4512Z" fill="#380D75"/>
<path d="M23.9999 48C20.3585 48.0149 16.7621 47.1939 13.4879 45.6C13.2588 45.4886 13.0833 45.2907 13 45.0499C12.9167 44.8092 12.9326 44.5451 13.0439 44.316C13.1553 44.0868 13.3532 43.9113 13.594 43.8281C13.8348 43.7448 14.0988 43.7606 14.3279 43.872C17.3398 45.3404 20.6492 46.0959 23.9999 46.08C27.684 46.081 31.3098 45.1602 34.5469 43.4014C37.7841 41.6427 40.5297 39.1019 42.5337 36.0105C44.5376 32.9192 45.7362 29.3755 46.0203 25.7024C46.3043 22.0293 45.6648 18.3435 44.1599 14.9808C44.0555 14.7485 44.0477 14.4842 44.1382 14.2461C44.2287 14.008 44.41 13.8156 44.6423 13.7112C44.8747 13.6068 45.139 13.599 45.377 13.6895C45.6151 13.7799 45.8076 13.9613 45.9119 14.1936C47.5483 17.8488 48.2439 21.8553 47.9356 25.8481C47.6272 29.8409 46.3245 33.6931 44.1464 37.0537C41.9682 40.4142 38.9837 43.1763 35.4649 45.0882C31.946 47.0001 28.0047 48.0011 23.9999 48Z" fill="#380D75"/>
<path d="M8.15995 24.96C7.90534 24.96 7.66116 24.8589 7.48113 24.6788C7.30109 24.4988 7.19995 24.2546 7.19995 24C7.20633 20.6828 8.19458 17.4418 10.0401 14.6854C11.8857 11.9291 14.5059 9.78075 17.5705 8.51126C20.6351 7.24178 24.007 6.90795 27.2611 7.55187C30.5151 8.19579 33.5058 9.78862 35.856 12.1296C36.4416 12.7197 36.9854 13.3501 37.4832 14.016C37.6353 14.2203 37.7 14.4767 37.6631 14.7288C37.6262 14.9808 37.4907 15.2079 37.2864 15.36C37.082 15.5121 36.8256 15.5769 36.5736 15.5399C36.3215 15.503 36.0945 15.3675 35.9424 15.1632C34.6696 13.4474 33.0423 12.0257 31.1711 10.9949C29.3 9.9641 27.2288 9.34829 25.0983 9.18935C22.9679 9.03041 20.8283 9.33207 18.8248 10.0738C16.8214 10.8156 15.0012 11.98 13.488 13.488C12.1007 14.8641 11.0003 16.5018 10.2505 18.3063C9.50074 20.1107 9.11646 22.046 9.11995 24C9.11995 24.2546 9.01881 24.4988 8.83877 24.6788C8.65874 24.8589 8.41456 24.96 8.15995 24.96Z" fill="#380D75"/>
<path d="M24.0001 40.8C21.7944 40.8005 19.6102 40.3653 17.5732 39.5193C15.5361 38.6733 13.6862 37.4333 12.1297 35.8704C11.5307 35.2725 10.9772 34.6307 10.4737 33.9504C10.3802 33.8521 10.3085 33.7352 10.2635 33.6073C10.2184 33.4793 10.201 33.3433 10.2123 33.2081C10.2237 33.073 10.2635 32.9417 10.3293 32.8231C10.395 32.7045 10.4852 32.6011 10.5938 32.5198C10.7024 32.4385 10.8269 32.3812 10.9593 32.3516C11.0917 32.322 11.2288 32.3207 11.3617 32.3479C11.4946 32.3752 11.6202 32.4302 11.7302 32.5095C11.8403 32.5888 11.9322 32.6905 12.0001 32.808C12.4538 33.4116 12.9512 33.9811 13.4881 34.512C15.5691 36.5891 18.2187 38.0031 21.1025 38.5756C23.9864 39.1482 26.9753 38.8535 29.6918 37.7289C32.4084 36.6043 34.7309 34.7001 36.3662 32.2567C38.0015 29.8132 38.8763 26.9401 38.8801 24C38.8801 23.7454 38.9813 23.5012 39.1613 23.3212C39.3413 23.1411 39.5855 23.04 39.8401 23.04C40.0947 23.04 40.3389 23.1411 40.5189 23.3212C40.699 23.5012 40.8001 23.7454 40.8001 24C40.8046 26.2074 40.373 28.394 39.5303 30.4343C38.6876 32.4746 37.4503 34.3283 35.8894 35.8892C34.3285 37.4502 32.4747 38.6875 30.4344 39.5302C28.3942 40.3729 26.2076 40.8044 24.0001 40.8Z" fill="#380D75"/>
<path d="M24.0001 33.4464C22.1318 33.4464 20.3054 32.8924 18.752 31.8544C17.1985 30.8164 15.9878 29.3411 15.2728 27.615C14.5578 25.8889 14.3707 23.9895 14.7352 22.1571C15.0997 20.3247 15.9994 18.6415 17.3205 17.3204C18.6416 15.9993 20.3248 15.0996 22.1572 14.7351C23.9896 14.3706 25.889 14.5577 27.6151 15.2727C29.3412 15.9876 30.8165 17.1984 31.8545 18.7519C32.8925 20.3053 33.4465 22.1317 33.4465 24C33.444 26.5046 32.4479 28.9058 30.6769 30.6768C28.9059 32.4478 26.5047 33.4439 24.0001 33.4464ZM24.0001 16.4736C22.5115 16.4736 21.0564 16.915 19.8187 17.742C18.581 18.569 17.6163 19.7445 17.0466 21.1198C16.477 22.495 16.3279 24.0083 16.6183 25.4683C16.9087 26.9283 17.6256 28.2694 18.6781 29.322C19.7307 30.3745 21.0718 31.0914 22.5318 31.3818C23.9918 31.6722 25.5051 31.5231 26.8803 30.9535C28.2556 30.3838 29.4311 29.4191 30.2581 28.1814C31.0851 26.9437 31.5265 25.4886 31.5265 24C31.5252 22.0043 30.7319 20.0906 29.3207 18.6794C27.9095 17.2682 25.9959 16.4749 24.0001 16.4736Z" fill="#380D75"/>
<path d="M22.6753 27.2496C22.4211 27.2485 22.1777 27.1467 21.9985 26.9664L20.0785 25.0464C19.8983 24.8663 19.7971 24.622 19.7971 24.3672C19.7971 24.1125 19.8983 23.8681 20.0785 23.688C20.2586 23.5079 20.5029 23.4067 20.7577 23.4067C21.0124 23.4067 21.2567 23.5079 21.4369 23.688L22.6753 24.9264L26.5633 21.0432C26.7456 20.8774 26.9847 20.7881 27.231 20.7937C27.4774 20.7993 27.7122 20.8995 27.8867 21.0734C28.0613 21.2474 28.1623 21.4818 28.1688 21.7281C28.1753 21.9745 28.0868 22.2139 27.9217 22.3968L23.3569 26.9616C23.2679 27.0523 23.1619 27.1245 23.0449 27.1739C22.9279 27.2234 22.8023 27.2491 22.6753 27.2496Z" fill="#380D75"/>
<path d="M36.7247 15.552H32.5103C32.2557 15.552 32.0115 15.4508 31.8315 15.2708C31.6514 15.0908 31.5503 14.8466 31.5503 14.592C31.5503 14.3374 31.6514 14.0932 31.8315 13.9132C32.0115 13.7331 32.2557 13.632 32.5103 13.632H35.7647V10.3728C35.7647 10.1182 35.8658 9.87399 36.0459 9.69396C36.2259 9.51392 36.4701 9.41278 36.7247 9.41278C36.9793 9.41278 37.2235 9.51392 37.4035 9.69396C37.5836 9.87399 37.6847 10.1182 37.6847 10.3728V14.592C37.6847 14.8466 37.5836 15.0908 37.4035 15.2708C37.2235 15.4508 36.9793 15.552 36.7247 15.552Z" fill="#380D75"/>
<path d="M11.2464 38.544C10.9918 38.544 10.7476 38.4428 10.5676 38.2628C10.3875 38.0828 10.2864 37.8386 10.2864 37.584V33.3648C10.2864 33.1102 10.3875 32.866 10.5676 32.686C10.7476 32.5059 10.9918 32.4048 11.2464 32.4048H15.4656C15.7202 32.4048 15.9644 32.5059 16.1444 32.686C16.3244 32.866 16.4256 33.1102 16.4256 33.3648C16.4256 33.6194 16.3244 33.8636 16.1444 34.0436C15.9644 34.2236 15.7202 34.3248 15.4656 34.3248H12.2064V37.584C12.2064 37.8386 12.1052 38.0828 11.9252 38.2628C11.7452 38.4428 11.501 38.544 11.2464 38.544Z" fill="#380D75"/>
</g>
<defs>
<clipPath id="clip0">
<rect width="48" height="48" fill="white"/>
</clipPath>
</defs>
</svg>
