<?xml version="1.0" encoding="utf-8"?>
<!-- Generator: Adobe Illustrator 24.1.0, SVG Export Plug-In . SVG Version: 6.00 Build 0)  -->
<svg version="1.1"
	 id="svg2" xmlns:cc="http://web.resource.org/cc/" xmlns:dc="http://purl.org/dc/elements/1.1/" xmlns:inkscape="http://www.inkscape.org/namespaces/inkscape" xmlns:rdf="http://www.w3.org/1999/02/22-rdf-syntax-ns#" xmlns:sodipodi="http://inkscape.sourceforge.net/DTD/sodipodi-0.dtd" xmlns:svg="http://www.w3.org/2000/svg" xmlns:xml="http://www.w3.org/XML/1998/namespace"
	 xmlns="http://www.w3.org/2000/svg" xmlns:xlink="http://www.w3.org/1999/xlink" x="0px" y="0px" viewBox="0 0 107.9 78.7"
	 enable-background="new 0 0 107.9 78.7" xml:space="preserve">
<sodipodi:namedview  bordercolor="#666666" borderopacity="1.0" id="base" inkscape:current-layer="svg2" inkscape:cx="78.504500" inkscape:cy="47.041000" inkscape:pageopacity="0.0" inkscape:pageshadow="2" inkscape:window-height="785" inkscape:window-width="1152" inkscape:window-x="-4" inkscape:window-y="22" inkscape:zoom="3.6563848" pagecolor="#ffffff">
	</sodipodi:namedview>
<g id="g46">
	<g id="Layer_1">
		<path id="path49" fill="#809CC9" d="M108,0H0v78.8h108L108,0L108,0z"/>
		<g id="g51">
			<path id="path53" fill="#FFFFFF" d="M108.9-0.9l1.7,6.6c-15.3,2.2-28.9,4.8-40.8,7.8c-12.9,3.2-23.2,6.5-31,9.9
				c-7.8,3.3-11.5,6-11,8c0.5,1.8,3.7,2.6,9.9,2.5c3.1-0.1,8.3-0.4,15.3-1c7.1-0.6,16.2-1.5,27.4-2.7c20.6-2.1,34.8-3.1,42.5-2.8
				c7.7,0.2,11.9,1.8,12.7,4.7c1,4-6.3,9.3-21.9,16C97.9,54.7,77.7,61.2,53,67.4c-20.9,5.3-38.8,9-53.9,11.3l-1.6-6.5
				c17.9-2.6,33.9-5.6,48.2-9.2c13.3-3.4,23.6-6.6,30.8-9.8c7.2-3.2,10.5-5.8,10-8c-0.5-1.9-3.8-2.8-10-2.9c-3.2,0-7.5,0.3-13.1,0.7
				c-5.6,0.4-12.5,1.1-20.7,1.9c-12.8,1.4-23.5,2.4-31.9,3.1c-8.5,0.7-14.8,1.1-19,1c-8-0.1-12.4-1.6-13.1-4.6
				c-1-4.1,5.7-9.2,20.3-15.4C13.5,22.7,33.4,16.4,58.6,10C76,5.6,92.8,2,108.9-0.9z"/>
		</g>
		<g id="g55">
			<path id="path57" fill="#FFFFFF" d="M4.6,55.2c0.3,0,0.5,0.1,0.7,0.3c0.2,0.2,0.3,0.5,0.3,0.7c0,0.3-0.1,0.5-0.3,0.8
				c-0.2,0.2-0.5,0.3-0.7,0.3c-0.3,0-0.5-0.1-0.8-0.3c-0.2-0.2-0.3-0.5-0.3-0.8c0-0.3,0.1-0.5,0.3-0.7C4.1,55.3,4.3,55.2,4.6,55.2z
				 M4.6,62c0.3,0,0.5,0.1,0.7,0.3c0.2,0.2,0.3,0.5,0.3,0.7s-0.1,0.5-0.3,0.7c-0.2,0.2-0.5,0.3-0.7,0.3c-0.1,0-0.3,0-0.4-0.1
				C4.1,64,4,63.9,3.9,63.8c-0.1-0.1-0.2-0.2-0.2-0.3c-0.1-0.1-0.1-0.3-0.1-0.4c0-0.3,0.1-0.5,0.3-0.7C4.1,62.1,4.3,62,4.6,62z"/>
			<path id="path59" fill="#FFFFFF" d="M8.3,55.2c0.3,0,0.5,0.1,0.7,0.3c0.2,0.2,0.3,0.5,0.3,0.7c0,0.3-0.1,0.5-0.3,0.8
				c-0.2,0.2-0.5,0.3-0.7,0.3c-0.3,0-0.5-0.1-0.8-0.3c-0.2-0.2-0.3-0.5-0.3-0.8c0-0.3,0.1-0.5,0.3-0.7C7.7,55.3,8,55.2,8.3,55.2z
				 M8.3,62c0.3,0,0.5,0.1,0.7,0.3c0.2,0.2,0.3,0.5,0.3,0.7S9.2,63.6,9,63.8c-0.2,0.2-0.5,0.3-0.7,0.3c-0.1,0-0.3,0-0.4-0.1
				c-0.1-0.1-0.2-0.1-0.3-0.2s-0.2-0.2-0.2-0.3c-0.1-0.1-0.1-0.3-0.1-0.4c0-0.3,0.1-0.5,0.3-0.7C7.7,62.1,8,62,8.3,62z"/>
		</g>
	</g>
</g>
</svg>
