<?xml version="1.0" encoding="utf-8"?>
<!-- Generator: Adobe Illustrator 24.1.0, SVG Export Plug-In . SVG Version: 6.00 Build 0)  -->
<svg version="1.1" id="Layer_1" xmlns="http://www.w3.org/2000/svg" xmlns:xlink="http://www.w3.org/1999/xlink" x="0px" y="0px"
	 viewBox="0 0 100 120" enable-background="new 0 0 100 120" xml:space="preserve">
<g>
	<g id="hg">
		<path fill="#1B1B1B" d="M85.7,67.4C100.5,42.8,82.6,2.9,49.8,7c-29.6,3.7-30.1,34.8-4,42.2c22.6,6.4,4.7,20.7,5.2,30.3
			C51.5,89,70.6,92.4,85.7,67.4"/>
		<circle fill="#1B1B1B" cx="31.6" cy="70.6" r="12.8"/>
		<circle fill="#1B1B1B" cx="16.9" cy="43.5" r="8.4"/>
	</g>
</g>
<g transform="translate(0.559,-0.997)">
	<g id="hg_1_">
		<path fill="#BFBFBF" d="M86.2,66.4C101,41.8,83.1,1.9,50.4,6c-29.6,3.7-30.1,34.8-4,42.2c22.6,6.4,4.7,20.7,5.2,30.3
			C52.1,88,71.2,91.4,86.2,66.4"/>
		<circle fill="#BFBFBF" cx="32.1" cy="69.6" r="12.8"/>
		<circle fill="#BFBFBF" cx="17.5" cy="42.5" r="8.4"/>
	</g>
</g>
<path d="M55.4,82.2c-0.9-1.5,0.5-3.1,1.9-2.9c2.2,0.2,7.1,0,11-2.2c9.6-5.5,24.4-31.7,17-48.3c-3.3-7.4-5-9.5-8.4-13.2
	c-0.7-0.7-0.3-0.7,0.2-0.4c1.9,1,5.1,4.7,8.5,10.9c5.7,10.4,5.4,22.7,3.3,30.5C87.4,62,82.4,74.2,75,79.4
	C67.4,84.7,58.7,87.7,55.4,82.2 M48.7,48.1c-5-1.5-11.5-3.6-15.3-8.5c-2.8-3.6-4.2-7.6-4.5-9.8c-0.1-0.8-0.2-1.5,0-1.7
	c0.1-0.1,2.1,4.4,5,8.1c2.9,3.7,7,5.9,10.4,6.7c3,0.7,9.3,2.2,11.5,4.1c2.2,1.9,2.4,5.9,1.6,6.3C56.6,53.8,55.1,50.1,48.7,48.1
	 M24.5,79c10,9.2,25-3.5,18.4-14.7c-0.7-1.3-1.7-2.2-1.4-1.3c2.1,6.5,0.2,11.6-3.5,14.2c-3.6,2.6-8.5,3-12.4,1
	C24.4,77.6,24,78.5,24.5,79 M12.9,48.9c0.1,0.6,0.9,1.4,2.1,1.7c1.1,0.3,3.9,1.1,7.6-1.2c3.6-2.3,4.1-8.4,2.4-10.2
	c-0.5-0.9-1.2-1.6-0.6-0.1c1.3,3.7-1.3,7.1-3.5,8.7c-2.2,1.6-5.1,0.8-6.2,0.5C13.4,47.9,12.8,48.3,12.9,48.9"/>
<path fill="#FFFFFF" d="M59.1,82.9c-0.1,1.2,1.2,1.4,3,1.1c2.3-0.3,4.2-0.6,6.9-1.9c3.6-1.8,7.2-4.3,9.8-7.8
	C86.6,64,89.4,51.8,89,50.1c-0.1,1.4-2,9-6.4,15.9c-5.6,8.8-9.7,13.5-19,15.7C61,82.4,59.2,81.4,59.1,82.9 M38.3,42.9
	c1.1,0.9,3.2,2.1,7.5,3.5c5.2,1.7,7.7,3.2,8.8,3.9c1.1,0.8,1.8,2.4,1.9,0.9c0.1-1.5-0.8-2.8-2.9-3.4c-1.4-0.5-3.7-1.6-6-2
	c-1.4-0.3-3.8-0.8-5.8-1.5C40.8,44,39.7,43.4,38.3,42.9 M32.3,80.9c1.3-0.3,8.7-2.2,10.4-8.3c0.5-1.9,0.6-1.5,0.5-0.5
	c-0.8,5.2-5.7,9.1-10,9.3C32.4,81.5,31.3,81.1,32.3,80.9 M17.5,49.7c0.3-0.3,2-0.2,3.5-1s3.3-2.6,3.7-5.2c0.2-1.5,0.2-1.1,0.3-0.3
	c-0.2,4.2-4.1,6.6-6.4,6.9C18.1,50.2,17,50.1,17.5,49.7"/>
<path fill="#999999" d="M84.2,50.4c6.3-18.1-6.9-45.5-33.5-42.3c-24.1,3-24.5,28.3-3.2,34.3c24,3.6,9.6,21.8,7.5,30.9
	C53.1,81.6,74.4,83,84.2,50.4 M24,76.4c1.5,0,2.4,0.2,3.9,1.3c3,1.3,8.6,0.5,11.1-2.9c2.6-3.4,2.6-8,1.7-10.8
	c-2.4-6.9-12.5-6.8-17.1-1C18.8,69.3,22.5,76.3,24,76.4 M10.5,44.5c0.3,0.9,1.1,2.3,2.7,2.6c2.2,0.3,2.6,1.3,5.2,0.8
	s4.5-2.6,5.3-4.9c0.9-3.2-0.4-4.9-2.4-6.3c-2-1.5-6.4-1.3-9,1.1C10.3,39.4,9.8,42.2,10.5,44.5"/>
<path fill="#F3F3F3" d="M67.7,64.6c-6.5-0.8-15.9,13.9-7,12.2c8.8-1.7-8.8,1.7,0,0c4.2-0.6,7.8-2.1,10.9-5.7
	c4.1-4.7,10.2-14.8,12-21.4c1.5-5.5,0.7-14.1-0.8-6C81.2,51.9,74.2,65.4,67.7,64.6 M33.8,76.9c1.7-0.4,6.8-2.5,5.8-10
	c-0.5-3.8-2.5,4.7-6.4,6C27.5,74.7,28.1,78.3,33.8,76.9 M19,46.6c2-0.5,4.6-3.2,3.3-5.2c-1.6-2.5-6-0.4-6.2,2.4
	C16,46.7,16.9,47.2,19,46.6"/>
<path fill="#010101" d="M8.6,98.3c1.4-0.6,2.9-0.9,4.3-0.9s2.2,0.3,2.7,1c1.1-0.7,2.5-1,3.6-1c3.3,0,3.4,1.3,3.4,5.3v8.8
	c0,0.4,0.1,0.4-1.6,0.4v-9.3c0-2.9-0.1-3.7-2-3.7c-0.8,0-1.7,0.2-2.7,0.8v11.9c0,0.4,0.1,0.4-1.6,0.4v-9.3c0-2.8,0-3.8-2-3.8
	c-0.8,0-1.7,0.2-2.7,0.6v12c0,0.4,0.1,0.4-1.6,0.4L8.6,98.3 M30.5,97.4c-2.5,0-5.2,0.7-5.2,8.2c0,5.8,2,6.7,4.8,6.7c2.1,0,4-0.7,4-1
	c0-0.4-0.1-1.1-0.2-1.4c-0.9,0.6-2.2,1-3.6,1c-2,0-3.3-0.6-3.3-4.9c1.3,0,4.6,0,7-0.5c0.2-0.9,0.3-2.3,0.3-3.5
	C34.2,99.1,33.1,97.4,30.5,97.4 M30.4,98.8c1.8,0,2.2,1.2,2.2,3.4c0,0.6,0,1.3-0.1,2c-1.6,0.4-4.4,0.4-5.6,0.4
	C27.1,99.4,28.9,98.8,30.4,98.8 M36.7,98.6c1.4-0.9,2.6-1.2,3.9-1.2c1.4,0,2.1,0.4,2.1,0.9c0,0.3-0.1,0.8-0.2,1
	c-0.4-0.2-0.9-0.4-1.6-0.4c-0.9,0-1.8,0.3-2.5,0.9v11.7c0,0.4,0,0.4-1.6,0.4V98.6 M51.5,98.3c0-0.4-1.2-0.9-2.5-0.9
	c-2.4,0-5.3,0.8-5.3,7.8c0,6.6,1.8,7.2,4.8,7.2c1.5,0,2.9-0.8,2.9-1.3c0-0.3-0.1-0.6-0.2-1c-0.6,0.4-1.5,0.9-2.5,0.9
	c-2.1,0-3.3-0.6-3.3-5.7c0-5.6,2-6.4,3.8-6.4c1,0,1.5,0.3,2.1,0.6C51.4,99.1,51.5,98.6,51.5,98.3 M62.7,111.4
	c-1.3,0.6-3,0.9-4.4,0.9c-3.7,0-4.3-1.6-4.3-5.3v-8.8c0-0.4,0-0.4,1.6-0.4v9.3c0,2.8,0.4,3.8,2.6,3.8c0.8,0,2-0.2,2.9-0.7v-12
	c0-0.4-0.1-0.4,1.6-0.4L62.7,111.4 M66,98.6c1.4-0.9,2.6-1.2,3.9-1.2c1.4,0,2.1,0.4,2.1,0.9c0,0.3-0.1,0.8-0.2,1
	c-0.4-0.2-0.9-0.4-1.6-0.4c-0.9,0-1.8,0.3-2.5,0.9v11.7c0,0.4,0,0.4-1.6,0.4V98.6 M75.8,97.8c-1.3,0-1.7,0-1.7,0.8v13.3
	c1.6,0,1.7,0,1.7-0.4V97.8 M74,92.9c0,0.9,0.3,1.3,0.9,1.3c0.7,0,1-0.5,1-1.3c0-0.9-0.2-1.3-0.9-1.3C74.4,91.6,74.1,92,74,92.9
	 M78.5,98.6c0-0.3,0.1-0.5,0.2-0.6c0.6-0.3,2.7-0.7,5.1-0.7c1.8,0,3,0.9,3,3.4v1.8c0,5-0.1,8.7-0.1,8.7c-0.7,0.4-1.9,0.9-4,0.9
	s-4.2-0.2-4.2-4.3c0-4,2.2-4.6,4.3-4.6c0.8,0,1.8,0.1,2.4,0.3c0,0,0-1.8,0-2.6c0-1.8-0.9-2.2-2-2.2c-1.5,0-3.6,0.3-4.5,0.7
	C78.6,99.3,78.5,98.8,78.5,98.6 M85.2,104.9c-0.6-0.2-1.3-0.3-1.9-0.3c-1.7,0-3.2,0.3-3.2,3.4c0,2.9,1.3,2.9,2.7,2.9
	c0.9,0,1.9-0.3,2.2-0.6C85.1,110.3,85.2,107,85.2,104.9 M91.4,111.5c0,0.4,0,0.4-1.6,0.4V92c0-0.8,0.3-0.8,1.6-0.8V111.5"/>
</svg>
