<svg id="Layer_1" data-name="Layer 1" xmlns="http://www.w3.org/2000/svg" viewBox="0 0 100 100"><path d="M5.79,51.18c2.18,5.07,6.7,4.88,9.86,5A5.06,5.06,0,0,1,19,57.69c5,5,13,23.49,48.62,12.4C74.29,68,79,61.66,82.05,55.38c5.82-11.94-20.66-17.65,7.33-29.91L83.73,38.63l4.91,10.66L98,50.62V68.67l-23.49,15L70.74,96s-8.95,2.4-14.16,0l-2-6.45H39.29L37.73,95s-8.28,5.63-14.34.33L17.89,77,12,67l-1.84-6.76s-12.12-1-7-12.62Z" fill="#e5e0fc"/><path d="M22.41,31.12a16.11,16.11,0,1,1,25.11-8.8" fill="#fca121"/><path d="M19,27.69a16.12,16.12,0,1,1,28.55-5.37" fill="none" stroke="#380d75" stroke-linecap="round" stroke-linejoin="round" stroke-width="4"/><path d="M34.14,86.88a46.48,46.48,0,0,0,30.12.3" fill="none" stroke="#380d75" stroke-linecap="round" stroke-linejoin="round" stroke-width="4"/><path d="M65.65,49.71a4.26,4.26,0,0,1,8.51,0" fill="none" stroke="#380d75" stroke-linecap="round" stroke-linejoin="round" stroke-width="4"/><path d="M85.29,33.47a21.29,21.29,0,0,1,3.41-5.63A3,3,0,0,0,86.92,23c-10.13-1.64-15,4.54-15,4.54-6.37-3.66-14-5.21-22.32-5.21-19.92,0-36.42,12.39-39.34,28.57,0,0-3.85,3.27-6.51-4.47-.91,1-5.58,11,6.36,13.79a30,30,0,0,0,4.73,12.25,45.3,45.3,0,0,1,6,14.16l1.87,7.53c1.55,5.27,13.77,5,15.48-.17" fill="none" stroke="#380d75" stroke-linecap="round" stroke-linejoin="round" stroke-width="4"/><path d="M55.47,89.38c0,.11,1,4.91,1,4.6,1.72,5.21,13.93,5.44,15.49.17l2.6-10.44h0a152.07,152.07,0,0,0,18.15-9.38A11,11,0,0,0,98,64.87V53.42a4.13,4.13,0,0,0-4.13-4.13H88.64a30.7,30.7,0,0,0-4.91-10.66" fill="none" stroke="#380d75" stroke-linecap="round" stroke-linejoin="round" stroke-width="4"/></svg>