<?xml version="1.0" encoding="utf-8"?>
<!-- Generator: Adobe Illustrator 23.0.4, SVG Export Plug-In . SVG Version: 6.00 Build 0)  -->
<svg version="1.0" id="Layer_1" xmlns="http://www.w3.org/2000/svg" xmlns:xlink="http://www.w3.org/1999/xlink" x="0px" y="0px"
	 viewBox="0 0 62.4 80" style="enable-background:new 0 0 62.4 80;" xml:space="preserve">
<style type="text/css">
	.st0{fill:#6B4FBB;}
</style>
<title>Scale</title>
<g>
	<g id="icons">
		<path class="st0" d="M42,77.9c-3,0-5.5-2.5-5.5-5.5c0-2.4,1.6-4.5,3.9-5.2l0.3-0.1V49.2h-5c-0.6,0-1-0.4-1-1
			c0-0.3,0.1-0.5,0.3-0.7L47,34c0.4-0.4,1.1-0.4,1.5,0c0,0,0,0,0,0l12,13.5c0.4,0.4,0.3,1.1-0.1,1.4c-0.2,0.2-0.4,0.3-0.7,0.3h-5
			v13.5h-2V48.2c0-0.6,0.5-1,1-1l0,0h3.7l-9.8-11l-9.8,11h3.7c0.6,0,1,0.5,1,1v0v18.7l0.4,0.1c3,0.6,4.9,3.5,4.3,6.5
			C46.8,76.1,44.6,77.9,42,77.9L42,77.9z M42,68.9c-1.9,0-3.5,1.6-3.5,3.5s1.6,3.5,3.5,3.5s3.5-1.6,3.5-3.5l0,0
			C45.5,70.4,43.9,68.9,42,68.9L42,68.9z"/>
		<path class="st0" d="M39.2,29.7V15.1c0-0.6,0.5-1,1-1l0,0H44l-8.3-9.5l-8.3,9.5h3.8c0.6,0,1,0.5,1,1v0v5.5h-2v-4.5h-5
			c-0.6,0-1-0.5-1-1c0-0.2,0.1-0.5,0.3-0.7l10.5-12C35.3,2,36,2,36.4,2.4c0,0,0,0,0,0l10.5,12c0.4,0.4,0.3,1.1-0.1,1.4
			c-0.2,0.2-0.4,0.3-0.7,0.3h-5v13.5H39.2z"/>
		<rect x="21.2" y="45.6" class="st0" width="2" height="11"/>
		<rect x="21.2" y="60.7" class="st0" width="2" height="2"/>
		<rect x="21.2" y="66.7" class="st0" width="2" height="2"/>
		<rect x="51.2" y="9.6" class="st0" width="2" height="9.5"/>
		<rect x="51.2" y="23.1" class="st0" width="2" height="2"/>
		<rect x="51.2" y="29.1" class="st0" width="2" height="2"/>
		<rect x="15.2" y="56.2" class="st0" width="2" height="11"/>
		<rect x="15.2" y="71.2" class="st0" width="2" height="2"/>
		<path class="st0" d="M27.2,50.7V36.2c0-0.6,0.5-1,1-1h0h6.7L20.7,19.6L5.1,35.1h8.1c0.6,0,1,0.5,1,1l0,0v14.5h-2V37.2H2.7
			c-0.6,0-1-0.4-1-1c0-0.3,0.1-0.5,0.3-0.7l18-18c0.2-0.2,0.5-0.3,0.7-0.3c0.3,0,0.5,0.1,0.7,0.3l16.5,18c0.4,0.4,0.4,1,0,1.4
			c-0.2,0.2-0.5,0.3-0.7,0.3h-8v13.5H27.2z"/>
	</g>
</g>
</svg>
