<?xml version="1.0" encoding="utf-8"?>
<!-- Generator: Adobe Illustrator 24.0.0, SVG Export Plug-In . SVG Version: 6.00 Build 0)  -->
<svg version="1.1" id="Layer_1" xmlns="http://www.w3.org/2000/svg" xmlns:xlink="http://www.w3.org/1999/xlink" x="0px" y="0px"
	 viewBox="0 0 84.5 75.5" style="enable-background:new 0 0 84.5 75.5;" xml:space="preserve">
<style type="text/css">
	.st0{fill:#FFFFFF;}
	.st1{fill:#333333;}
	.st2{fill:#F07328;}
</style>
<circle class="st0" cx="50.4" cy="41.4" r="33"/>
<title>Speed</title>
<g id="Layer_2_1_">
	<g id="icons">
		<path class="st1" d="M50.3,75.5c-6.6,0-13.1-1.9-18.7-5.5l-0.5-0.3l-0.4,0.3c-3.3,2.9-8.4,2.6-11.3-0.7S17,60.9,20.3,58
			c3.3-2.9,8.4-2.6,11.3,0.7c2,2.3,2.5,5.4,1.4,8.2l-0.2,0.5l0.5,0.3c14.6,9.4,34.1,5.3,43.6-9.4s5.3-34.1-9.4-43.6
			c-13.2-8.5-30.6-6-40.9,5.8l-1,1.2h11.3v2.6h-26v-2.6h11.4l0.2-0.3c6-8.4,15.5-13.6,25.8-14.2H49V2.6h-3.5V0h9.5v2.6h-3.5v4.7h0.7
			c6.4,0.4,12.5,2.6,17.7,6.3l0.5,0.3l3.5-3.5l-2.2-2.2l1.8-1.8l6.3,6.3l-1.8,1.8l-2.2-2.2l-3.3,3.3l0.6,0.5
			c14,12.6,15.2,34.1,2.6,48.2C69.3,71.4,60.1,75.5,50.3,75.5z M25.5,58.5c-3,0-5.4,2.5-5.4,5.5s2.5,5.4,5.5,5.4
			c3,0,5.4-2.4,5.4-5.4C31,61,28.5,58.6,25.5,58.5C25.5,58.6,25.5,58.6,25.5,58.5L25.5,58.5z"/>
		<path class="st2" d="M40.8,49.1l3.9-3.9l-0.3-0.5c-1.8-3.3-0.7-7.4,2.6-9.2c2.1-1.2,4.6-1.2,6.6,0l0.5,0.3l13-13l1.9,1.8l-13,13
			l0.3,0.5c1.9,3.2,0.8,7.4-2.4,9.3c-2.1,1.2-4.7,1.2-6.9,0L46.6,47l-3.9,4L40.8,49.1z M50.4,37.2c-2.3,0-4.2,1.9-4.2,4.2
			s1.9,4.2,4.2,4.2c2.3,0,4.2-1.9,4.2-4.2C54.5,39.1,52.7,37.2,50.4,37.2C50.4,37.2,50.4,37.2,50.4,37.2z"/>
		<path class="st1" d="M0,39.1v-2.6h16.6l0.1-0.6c0.4-2.4,1-4.8,2-7.1l2.4,1c-0.7,1.9-1.3,3.8-1.7,5.8l-0.1,0.8H26V39L0,39.1z"/>
		<path class="st1" d="M7.3,51.8v-2.6h9.8L17,48.4c-0.3-1.4-0.5-2.9-0.7-4.4l2.6-0.1c0.1,1.6,0.4,3.2,0.8,4.8l0.1,0.5h11.6v2.6H7.3z
			"/>
	</g>
</g>
</svg>
