<svg
    width="22"
    height="22"
    viewBox="0 0 48 48"
    fill="none"
    xmlns="http://www.w3.org/2000/svg"
  >
    <g clip-path="url(#community)">
      <path
        d="M24 6.78719C25.6092 6.78719 26.9136 5.48273 26.9136 3.87359C26.9136 2.26445 25.6092 0.959991 24 0.959991C22.3909 0.959991 21.0864 2.26445 21.0864 3.87359C21.0864 5.48273 22.3909 6.78719 24 6.78719Z"
        fill="#FF675F"
      />
      <path
        d="M24 47.04C25.6092 47.04 26.9136 45.7355 26.9136 44.1264C26.9136 42.5173 25.6092 41.2128 24 41.2128C22.3909 41.2128 21.0864 42.5173 21.0864 44.1264C21.0864 45.7355 22.3909 47.04 24 47.04Z"
        fill="#FF675F"
      />
      <path
        d="M44.1265 26.9136C45.7356 26.9136 47.0401 25.6091 47.0401 24C47.0401 22.3909 45.7356 21.0864 44.1265 21.0864C42.5174 21.0864 41.2129 22.3909 41.2129 24C41.2129 25.6091 42.5174 26.9136 44.1265 26.9136Z"
        fill="#FCA121"
      />
      <path
        d="M3.87356 26.9136C5.4827 26.9136 6.78716 25.6091 6.78716 24C6.78716 22.3909 5.4827 21.0864 3.87356 21.0864C2.26442 21.0864 0.959961 22.3909 0.959961 24C0.959961 25.6091 2.26442 26.9136 3.87356 26.9136Z"
        fill="#FCA121"
      />
      <path
        d="M38.232 12.6816C39.8411 12.6816 41.1456 11.3771 41.1456 9.76797C41.1456 8.15883 39.8411 6.85437 38.232 6.85437C36.6228 6.85437 35.3184 8.15883 35.3184 9.76797C35.3184 11.3771 36.6228 12.6816 38.232 12.6816Z"
        fill="#AC7FFF"
      />
      <path
        d="M9.76809 41.1456C11.3772 41.1456 12.6817 39.8411 12.6817 38.232C12.6817 36.6229 11.3772 35.3184 9.76809 35.3184C8.15896 35.3184 6.85449 36.6229 6.85449 38.232C6.85449 39.8411 8.15896 41.1456 9.76809 41.1456Z"
        fill="#AC7FFF"
      />
      <path
        d="M38.232 41.1456C39.8411 41.1456 41.1456 39.8411 41.1456 38.232C41.1456 36.6229 39.8411 35.3184 38.232 35.3184C36.6228 35.3184 35.3184 36.6229 35.3184 38.232C35.3184 39.8411 36.6228 41.1456 38.232 41.1456Z"
        fill="#AC7FFF"
      />
      <path
        d="M9.76809 12.6816C11.3772 12.6816 12.6817 11.3771 12.6817 9.76797C12.6817 8.15883 11.3772 6.85437 9.76809 6.85437C8.15896 6.85437 6.85449 8.15883 6.85449 9.76797C6.85449 11.3771 8.15896 12.6816 9.76809 12.6816Z"
        fill="#AC7FFF"
      />
      <path
        d="M24.0001 31.6272L32.0065 25.8048C32.1144 25.7254 32.1943 25.6139 32.2348 25.4863C32.2753 25.3586 32.2744 25.2215 32.2321 25.0944L29.4721 16.5888C29.4496 16.5266 29.4085 16.4729 29.3544 16.435C29.3003 16.397 29.2358 16.3766 29.1697 16.3766C29.1036 16.3766 29.0391 16.397 28.985 16.435C28.9309 16.4729 28.8898 16.5266 28.8673 16.5888L27.0337 22.2432H20.9329L19.0945 16.5888C19.072 16.5266 19.0309 16.4729 18.9768 16.435C18.9227 16.397 18.8582 16.3766 18.7921 16.3766C18.726 16.3766 18.6615 16.397 18.6074 16.435C18.5533 16.4729 18.5122 16.5266 18.4897 16.5888L15.7297 25.0944C15.6874 25.2215 15.6865 25.3586 15.727 25.4863C15.7675 25.6139 15.8474 25.7254 15.9553 25.8048L24.0001 31.6272Z"
        fill="#FC6D26"
      />
      <path
        d="M24 32.5872C23.7982 32.5869 23.6017 32.5231 23.4384 32.4048L15.3936 26.5824C15.1211 26.3849 14.9182 26.1062 14.8139 25.7863C14.7096 25.4664 14.7092 25.1217 14.8128 24.8016L17.5776 16.32C17.659 16.0614 17.8215 15.8358 18.0411 15.6768C18.2607 15.5177 18.5256 15.4336 18.7968 15.4368C19.0649 15.4382 19.3259 15.5238 19.5429 15.6814C19.7599 15.839 19.922 16.0606 20.0064 16.3152L21.6288 21.3072H26.3328L27.9552 16.32C28.0378 16.0649 28.1987 15.8423 28.4149 15.6838C28.6312 15.5253 28.8918 15.4389 29.16 15.4368C29.4271 15.4369 29.6876 15.5207 29.9045 15.6766C30.1215 15.8324 30.2842 16.0524 30.3696 16.3056L33.1344 24.8256C33.2404 25.1444 33.2417 25.4887 33.138 25.8082C33.0344 26.1277 32.8313 26.4057 32.5584 26.6016L24.5472 32.4048C24.3878 32.5203 24.1967 32.5839 24 32.5872ZM16.7136 25.1664L24 30.4416L31.2672 25.1616L29.1696 18.7728L27.9456 22.56C27.8836 22.7534 27.762 22.9221 27.5981 23.042C27.4343 23.1619 27.2366 23.2267 27.0336 23.2272H20.9328C20.7297 23.2267 20.5321 23.1619 20.3682 23.042C20.2043 22.9221 20.0827 22.7534 20.0208 22.56L18.792 18.768L16.7136 25.1664Z"
        fill="#380D75"
      />
      <path
        d="M24.0001 7.7472C23.2339 7.7472 22.485 7.52002 21.848 7.09438C21.211 6.66875 20.7145 6.06377 20.4213 5.35596C20.1281 4.64816 20.0514 3.8693 20.2009 3.1179C20.3504 2.3665 20.7193 1.67629 21.261 1.13455C21.8027 0.59282 22.493 0.223896 23.2444 0.0744319C23.9958 -0.0750318 24.7746 0.00167836 25.4824 0.294862C26.1902 0.588046 26.7952 1.08453 27.2208 1.72154C27.6465 2.35856 27.8737 3.10748 27.8737 3.8736C27.8724 4.90055 27.4639 5.88508 26.7377 6.61125C26.0115 7.33741 25.027 7.74593 24.0001 7.7472ZM24.0001 1.92C23.6137 1.92 23.236 2.03458 22.9147 2.24924C22.5934 2.46391 22.343 2.76902 22.1952 3.12599C22.0473 3.48297 22.0086 3.87577 22.084 4.25473C22.1594 4.63369 22.3454 4.98179 22.6187 5.25501C22.8919 5.52822 23.24 5.71428 23.6189 5.78966C23.9979 5.86504 24.3907 5.82636 24.7477 5.67849C25.1047 5.53063 25.4098 5.28023 25.6244 4.95896C25.8391 4.6377 25.9537 4.25999 25.9537 3.8736C25.9524 3.35586 25.7462 2.85969 25.3801 2.4936C25.014 2.1275 24.5178 1.92127 24.0001 1.92Z"
        fill="#380D75"
      />
      <path
        d="M24.0001 48C23.2339 48 22.485 47.7728 21.848 47.3472C21.211 46.9216 20.7145 46.3166 20.4213 45.6088C20.1281 44.901 20.0514 44.1221 20.2009 43.3707C20.3504 42.6193 20.7193 41.9291 21.261 41.3874C21.8027 40.8456 22.493 40.4767 23.2444 40.3272C23.9958 40.1778 24.7746 40.2545 25.4824 40.5477C26.1902 40.8409 26.7952 41.3373 27.2208 41.9744C27.6465 42.6114 27.8737 43.3603 27.8737 44.1264C27.8724 45.1534 27.4639 46.1379 26.7377 46.8641C26.0115 47.5902 25.027 47.9987 24.0001 48ZM24.0001 42.1728C23.6137 42.1728 23.236 42.2874 22.9147 42.5021C22.5934 42.7167 22.343 43.0218 22.1952 43.3788C22.0473 43.7358 22.0086 44.1286 22.084 44.5075C22.1594 44.8865 22.3454 45.2346 22.6187 45.5078C22.8919 45.781 23.24 45.9671 23.6189 46.0425C23.9979 46.1179 24.3907 46.0792 24.7477 45.9313C25.1047 45.7834 25.4098 45.533 25.6244 45.2118C25.8391 44.8905 25.9537 44.5128 25.9537 44.1264C25.9524 43.6087 25.7462 43.1125 25.3801 42.7464C25.014 42.3803 24.5178 42.1741 24.0001 42.1728Z"
        fill="#380D75"
      />
      <path
        d="M44.1263 27.8736C43.3602 27.8736 42.6112 27.6464 41.9742 27.2208C41.3372 26.7951 40.8407 26.1902 40.5475 25.4824C40.2544 24.7746 40.1777 23.9957 40.3271 23.2443C40.4766 22.4929 40.8455 21.8027 41.3872 21.261C41.929 20.7192 42.6192 20.3503 43.3706 20.2008C44.122 20.0514 44.9008 20.1281 45.6087 20.4213C46.3165 20.7144 46.9214 21.2109 47.3471 21.8479C47.7727 22.485 47.9999 23.2339 47.9999 24C47.9986 25.027 47.5901 26.0115 46.8639 26.7376C46.1378 27.4638 45.1532 27.8723 44.1263 27.8736ZM44.1263 22.0464C43.7399 22.0464 43.3622 22.161 43.0409 22.3756C42.7197 22.5903 42.4693 22.8954 42.3214 23.2524C42.1735 23.6094 42.1348 24.0022 42.2102 24.3811C42.2856 24.7601 42.4717 25.1082 42.7449 25.3814C43.0181 25.6546 43.3662 25.8407 43.7452 25.9161C44.1241 25.9914 44.5169 25.9528 44.8739 25.8049C45.2309 25.657 45.536 25.4066 45.7506 25.0854C45.9653 24.7641 46.0799 24.3864 46.0799 24C46.0786 23.4823 45.8724 22.9861 45.5063 22.62C45.1402 22.2539 44.644 22.0477 44.1263 22.0464Z"
        fill="#380D75"
      />
      <path
        d="M3.8736 27.8736C3.10748 27.8736 2.35856 27.6464 1.72154 27.2208C1.08453 26.7951 0.588046 26.1902 0.294862 25.4824C0.00167836 24.7746 -0.0750318 23.9957 0.0744319 23.2443C0.223896 22.4929 0.59282 21.8027 1.13455 21.261C1.67629 20.7192 2.3665 20.3503 3.1179 20.2008C3.8693 20.0514 4.64816 20.1281 5.35596 20.4213C6.06377 20.7144 6.66875 21.2109 7.09438 21.8479C7.52002 22.485 7.7472 23.2339 7.7472 24C7.74593 25.027 7.33741 26.0115 6.61125 26.7376C5.88508 27.4638 4.90055 27.8723 3.8736 27.8736ZM3.8736 22.0464C3.48722 22.0464 3.10951 22.161 2.78824 22.3756C2.46697 22.5903 2.21657 22.8954 2.06871 23.2524C1.92085 23.6094 1.88216 24.0022 1.95754 24.3811C2.03292 24.7601 2.21898 25.1082 2.4922 25.3814C2.76541 25.6546 3.11351 25.8407 3.49247 25.9161C3.87143 25.9914 4.26424 25.9528 4.62121 25.8049C4.97819 25.657 5.2833 25.4066 5.49796 25.0854C5.71263 24.7641 5.8272 24.3864 5.8272 24C5.82593 23.4823 5.6197 22.9861 5.25361 22.62C4.88751 22.2539 4.39134 22.0477 3.8736 22.0464Z"
        fill="#380D75"
      />
      <path
        d="M38.2319 13.6416C37.3358 13.6408 36.4677 13.3293 35.7754 12.7602C35.0832 12.1911 34.6097 11.3996 34.4356 10.5205C34.2615 9.64144 34.3976 8.72921 34.8207 7.93923C35.2438 7.14925 35.9276 6.53039 36.7558 6.1881C37.584 5.8458 38.5052 5.80124 39.3626 6.06201C40.22 6.32277 40.9604 6.87274 41.4577 7.61819C41.9551 8.36365 42.1785 9.25849 42.0901 10.1502C42.0017 11.042 41.6068 11.8755 40.9727 12.5088C40.6128 12.8686 40.1855 13.1538 39.7152 13.3482C39.2449 13.5426 38.7408 13.6423 38.2319 13.6416ZM38.2319 7.81438C37.9133 7.81872 37.6006 7.90093 37.3211 8.05383C37.0415 8.20672 36.8036 8.42568 36.6281 8.6916C36.4526 8.95751 36.3448 9.26233 36.3141 9.57947C36.2833 9.89661 36.3307 10.2164 36.4519 10.5111C36.5731 10.8058 36.7646 11.0663 37.0096 11.27C37.2546 11.4737 37.5457 11.6144 37.8575 11.6798C38.1694 11.7452 38.4925 11.7333 38.7987 11.6452C39.1049 11.5571 39.3849 11.3955 39.6143 11.1744C39.979 10.8067 40.1836 10.3098 40.1836 9.79198C40.1836 9.27414 39.979 8.77727 39.6143 8.40958C39.4359 8.22237 39.2214 8.07315 38.9839 7.97087C38.7463 7.8686 38.4906 7.81537 38.2319 7.81438Z"
        fill="#380D75"
      />
      <path
        d="M9.76804 42.1008C8.88081 42.0957 8.02272 41.7835 7.33963 41.2172C6.65654 40.651 6.1906 39.8657 6.02101 38.9948C5.85141 38.124 5.98863 37.2212 6.40933 36.44C6.83004 35.6589 7.50827 35.0475 8.32875 34.7098C9.14923 34.3721 10.0613 34.329 10.91 34.5877C11.7587 34.8465 12.4916 35.3911 12.9841 36.1291C13.4767 36.8671 13.6985 37.7528 13.6118 38.6359C13.5252 39.5189 13.1354 40.3446 12.5088 40.9728C12.1486 41.3317 11.721 41.6161 11.2507 41.8096C10.7804 42.0032 10.2766 42.1021 9.76804 42.1008ZM9.76804 36.2784C9.24992 36.2789 8.75301 36.4842 8.38564 36.8496C8.01983 37.2166 7.81443 37.7138 7.81443 38.232C7.81443 38.7502 8.01983 39.2473 8.38564 39.6144C8.75333 39.979 9.2502 40.1836 9.76804 40.1836C10.2859 40.1836 10.7828 39.979 11.1504 39.6144C11.5162 39.2473 11.7217 38.7502 11.7217 38.232C11.7217 37.7138 11.5162 37.2166 11.1504 36.8496C10.7831 36.4842 10.2862 36.2789 9.76804 36.2784Z"
        fill="#380D75"
      />
      <path
        d="M38.2321 42.1056C37.723 42.1079 37.2185 42.0089 36.7479 41.8145C36.2774 41.62 35.8502 41.3339 35.4913 40.9728C34.8548 40.3384 34.458 39.5028 34.3686 38.6086C34.2792 37.7143 34.5028 36.8168 35.0012 36.0689C35.4996 35.3211 36.2419 34.7693 37.1016 34.5075C37.9614 34.2458 38.8853 34.2904 39.7158 34.6336C40.5464 34.9769 41.2322 35.5976 41.6562 36.39C42.0803 37.1823 42.2164 38.0973 42.0414 38.9787C41.8664 39.8602 41.391 40.6537 40.6964 41.2239C40.0017 41.7941 39.1308 42.1057 38.2321 42.1056ZM38.2321 36.2784C37.8404 36.2731 37.4562 36.3856 37.1293 36.6014C36.8023 36.8172 36.5478 37.1263 36.3988 37.4885C36.2498 37.8508 36.2131 38.2495 36.2935 38.6328C36.3739 39.0162 36.5677 39.3666 36.8497 39.6384C37.2168 40.0042 37.7139 40.2096 38.2321 40.2096C38.7503 40.2096 39.2474 40.0042 39.6145 39.6384C39.9791 39.2707 40.1837 38.7738 40.1837 38.256C40.1837 37.7382 39.9791 37.2413 39.6145 36.8736C39.436 36.6864 39.2216 36.5372 38.9841 36.4349C38.7465 36.3326 38.4907 36.2794 38.2321 36.2784Z"
        fill="#380D75"
      />
      <path
        d="M9.76811 13.6416C8.87325 13.6404 8.00651 13.3289 7.3155 12.7604C6.62448 12.1918 6.15192 11.4013 5.97831 10.5234C5.80469 9.64559 5.94075 8.7347 6.36332 7.9459C6.78588 7.1571 7.46882 6.53918 8.29582 6.19738C9.12282 5.85557 10.0427 5.81101 10.8989 6.0713C11.7551 6.33158 12.4945 6.88061 12.9913 7.62488C13.4882 8.36914 13.7116 9.26262 13.6237 10.1531C13.5357 11.0437 13.1417 11.8761 12.5089 12.5088C12.1489 12.8684 11.7215 13.1535 11.2512 13.3479C10.7809 13.5423 10.277 13.6421 9.76811 13.6416ZM9.76811 7.81442C9.24998 7.81494 8.75308 8.02026 8.3857 8.38562C8.0199 8.75269 7.8145 9.24979 7.8145 9.76802C7.8145 10.2862 8.0199 10.7833 8.3857 11.1504C8.7534 11.5151 9.25026 11.7197 9.76811 11.7197C10.2859 11.7197 10.7828 11.5151 11.1505 11.1504C11.5163 10.7833 11.7217 10.2862 11.7217 9.76802C11.7217 9.24979 11.5163 8.75269 11.1505 8.38562C10.7831 8.02026 10.2862 7.81494 9.76811 7.81442Z"
        fill="#380D75"
      />
      <path
        d="M12.2976 8.568C12.0953 8.5667 11.8985 8.5015 11.7354 8.38171C11.5723 8.26192 11.4513 8.09367 11.3895 7.90097C11.3278 7.70827 11.3285 7.50099 11.3916 7.30873C11.4547 7.11647 11.5769 6.94905 11.7408 6.8304C14.3144 4.99588 17.267 3.76237 20.3808 3.2208C20.5067 3.19522 20.6364 3.19516 20.7623 3.22063C20.8882 3.2461 21.0078 3.29658 21.1138 3.36908C21.2198 3.44159 21.3103 3.53463 21.3797 3.64271C21.4491 3.75079 21.4962 3.87171 21.518 3.9983C21.5398 4.12488 21.5361 4.25457 21.5069 4.37967C21.4777 4.50477 21.4237 4.62274 21.3481 4.72659C21.2725 4.83045 21.1768 4.91807 21.0667 4.98427C20.9566 5.05047 20.8344 5.0939 20.7072 5.112C17.8777 5.5948 15.1954 6.71598 12.864 8.3904C12.6987 8.50795 12.5004 8.57012 12.2976 8.568Z"
        fill="#380D75"
      />
      <path
        d="M4.1376 21.5616H3.9792C3.85462 21.5407 3.73539 21.4954 3.62835 21.4283C3.52131 21.3612 3.42857 21.2736 3.35544 21.1706C3.28231 21.0676 3.23023 20.9512 3.20218 20.828C3.17413 20.7048 3.17067 20.5773 3.192 20.4528C3.46226 18.86 3.9165 17.304 4.5456 15.816C4.65124 15.5914 4.83973 15.4165 5.07155 15.3279C5.30336 15.2393 5.56048 15.2439 5.78897 15.3408C6.01746 15.4376 6.19956 15.6192 6.29707 15.8474C6.39459 16.0756 6.39994 16.3327 6.312 16.5648C5.74482 17.9171 5.3326 19.3293 5.0832 20.7744C5.04273 20.9956 4.9259 21.1955 4.75309 21.3394C4.58028 21.4832 4.36245 21.5619 4.1376 21.5616Z"
        fill="#380D75"
      />
      <path
        d="M7.6463 36.7248C7.4936 36.7254 7.34296 36.6896 7.20689 36.6203C7.07081 36.551 6.95323 36.4503 6.8639 36.3264C5.79553 34.8455 4.92422 33.232 4.2719 31.5264C4.2191 31.4074 4.19108 31.2788 4.18952 31.1486C4.18797 31.0184 4.21292 30.8893 4.26287 30.769C4.31281 30.6487 4.3867 30.5399 4.48003 30.4491C4.57337 30.3583 4.68421 30.2874 4.8058 30.2408C4.92739 30.1942 5.05719 30.1728 5.18731 30.1779C5.31743 30.1831 5.44515 30.2146 5.56269 30.2707C5.68023 30.3267 5.78513 30.4061 5.87102 30.504C5.95691 30.6019 6.02199 30.7162 6.0623 30.84C6.65831 32.3931 7.45205 33.8628 8.4239 35.2128C8.57264 35.4191 8.63343 35.676 8.59293 35.9271C8.55243 36.1782 8.41396 36.4029 8.2079 36.552C8.04254 36.6652 7.84669 36.7255 7.6463 36.7248Z"
        fill="#380D75"
      />
      <path
        d="M20.7407 44.832H20.5871C17.458 44.316 14.4852 43.102 11.8895 41.28C11.7818 41.2094 11.6895 41.1179 11.6179 41.011C11.5463 40.904 11.497 40.7837 11.4729 40.6573C11.4487 40.5309 11.4502 40.4009 11.4773 40.2751C11.5044 40.1492 11.5565 40.0301 11.6306 39.9249C11.7046 39.8196 11.7991 39.7303 11.9084 39.6622C12.0176 39.5942 12.1394 39.5488 12.2666 39.5288C12.3937 39.5088 12.5236 39.5146 12.6485 39.5458C12.7734 39.577 12.8907 39.633 12.9935 39.7104C15.3476 41.3696 18.0502 42.468 20.8943 42.9216C21.1489 42.942 21.385 43.0627 21.5506 43.2571C21.7162 43.4515 21.7978 43.7038 21.7775 43.9584C21.7571 44.213 21.6364 44.4491 21.442 44.6147C21.2476 44.7804 20.9953 44.862 20.7407 44.8416V44.832Z"
        fill="#380D75"
      />
      <path
        d="M27.5184 44.7792C27.2638 44.8014 27.0107 44.7217 26.8149 44.5574C26.6192 44.3931 26.4967 44.1578 26.4744 43.9032C26.4521 43.6486 26.5319 43.3955 26.6962 43.1997C26.8604 43.004 27.0958 42.8814 27.3504 42.8592C30.2913 42.3399 33.0705 41.1417 35.4672 39.36C35.5673 39.2763 35.6834 39.2139 35.8085 39.1766C35.9335 39.1393 36.0649 39.1279 36.1945 39.143C36.3241 39.1582 36.4492 39.1997 36.5623 39.2648C36.6753 39.33 36.7739 39.4175 36.852 39.5221C36.9301 39.6266 36.986 39.746 37.0164 39.8729C37.0468 39.9998 37.0511 40.1316 37.0288 40.2602C37.0066 40.3887 36.9584 40.5114 36.8871 40.6208C36.8158 40.7301 36.723 40.8237 36.6144 40.896C33.981 42.8663 30.9238 44.1944 27.6864 44.7744C27.6306 44.7809 27.5744 44.7825 27.5184 44.7792Z"
        fill="#380D75"
      />
      <path
        d="M40.32 36.7488C40.1186 36.7466 39.9226 36.683 39.7584 36.5664C39.5523 36.4173 39.4138 36.1926 39.3733 35.9415C39.3328 35.6904 39.3936 35.4335 39.5424 35.2272C40.6189 33.7401 41.4756 32.1057 42.0864 30.3744C42.171 30.1338 42.3478 29.9367 42.5778 29.8264C42.8078 29.7161 43.0722 29.7017 43.3128 29.7864C43.5534 29.871 43.7505 30.0478 43.8608 30.2778C43.971 30.5078 43.9854 30.7722 43.9008 31.0128C43.2275 32.9164 42.2851 34.7139 41.1024 36.3504C41.013 36.4742 40.8955 36.575 40.7594 36.6443C40.6233 36.7136 40.4727 36.7494 40.32 36.7488Z"
        fill="#380D75"
      />
      <path
        d="M43.8336 21.624C43.6042 21.6271 43.3812 21.548 43.2051 21.401C43.029 21.2539 42.9114 21.0487 42.8736 20.8224C42.5779 19.0283 42.0267 17.2858 41.2368 15.648C41.1777 15.5341 41.1422 15.4095 41.1321 15.2815C41.122 15.1536 41.1377 15.025 41.1783 14.9032C41.2188 14.7815 41.2833 14.6691 41.368 14.5727C41.4527 14.4763 41.5559 14.3978 41.6714 14.342C41.7869 14.2862 41.9125 14.2541 42.0406 14.2476C42.1688 14.2411 42.2969 14.2604 42.4175 14.3042C42.5381 14.3481 42.6486 14.4158 42.7426 14.5031C42.8366 14.5905 42.9122 14.6958 42.9648 14.8128C43.8384 16.614 44.4494 18.5311 44.7792 20.5056C44.8181 20.7549 44.7573 21.0094 44.61 21.2142C44.4627 21.419 44.2407 21.5576 43.992 21.6L43.8336 21.624Z"
        fill="#380D75"
      />
      <path
        d="M35.6543 8.56319C35.4548 8.5633 35.2601 8.50122 35.0975 8.38559C32.7349 6.70452 30.0222 5.5804 27.1631 5.09759C26.9117 5.05558 26.6872 4.91541 26.5392 4.70792C26.3911 4.50043 26.3315 4.24262 26.3735 3.99119C26.4155 3.73977 26.5557 3.51533 26.7632 3.36725C26.9707 3.21917 27.2285 3.15958 27.4799 3.20159C30.6277 3.73334 33.6143 4.97065 36.2159 6.82079C36.3822 6.93902 36.5065 7.10715 36.5708 7.30079C36.635 7.49443 36.6359 7.70352 36.5733 7.89771C36.5108 8.0919 36.3879 8.26111 36.2227 8.38077C36.0574 8.50043 35.8583 8.56433 35.6543 8.56319Z"
        fill="#380D75"
      />
    </g>
    <defs>
      <clipPath id="community">
        <rect width="48" height="48" fill="white" />
      </clipPath>
    </defs>
  </svg>