  <svg
    width="32"
    height="32"
    viewBox="0 0 32 32"
    fill="none"
    xmlns="http://www.w3.org/2000/svg"
  >
    <path
      d="M16 32C24.8366 32 32 24.8366 32 16C32 7.16345 24.8366 0 16 0C7.16345 0 0 7.16345 0 16C0 24.8366 7.16345 32 16 32Z"
      fill="#1DBA9E"
    />
    <path
      d="M17.6032 4.57141H14.5031"
      stroke="white"
      stroke-width="2.5"
      stroke-miterlimit="10"
      stroke-linecap="round"
      stroke-linejoin="round"
    />
    <path
      d="M21.5786 9.16418H25.4106"
      stroke="white"
      stroke-width="2.5"
      stroke-miterlimit="10"
      stroke-linecap="round"
      stroke-linejoin="round"
    />
    <path
      d="M6.69553 9.16418H18.1199"
      stroke="white"
      stroke-width="2.5"
      stroke-miterlimit="10"
      stroke-linecap="round"
      stroke-linejoin="round"
    />
    <path
      d="M17.6031 13.7568H27.5348"
      stroke="white"
      stroke-width="2.5"
      stroke-miterlimit="10"
      stroke-linecap="round"
      stroke-linejoin="round"
    />
    <path
      d="M12.3933 13.7568H14.1443"
      stroke="white"
      stroke-width="2.5"
      stroke-miterlimit="10"
      stroke-linecap="round"
      stroke-linejoin="round"
    />
    <path
      d="M4.57143 13.7568H8.93448"
      stroke="white"
      stroke-width="2.5"
      stroke-miterlimit="10"
      stroke-linecap="round"
      stroke-linejoin="round"
    />
    <path
      d="M25.7121 18.3495H27.5348"
      stroke="white"
      stroke-width="2.5"
      stroke-miterlimit="10"
      stroke-linecap="round"
      stroke-linejoin="round"
    />
    <path
      d="M9.79557 18.3495H22.2532"
      stroke="white"
      stroke-width="2.5"
      stroke-miterlimit="10"
      stroke-linecap="round"
      stroke-linejoin="round"
    />
    <path
      d="M4.57143 18.3495H6.33674"
      stroke="white"
      stroke-width="2.5"
      stroke-miterlimit="10"
      stroke-linecap="round"
      stroke-linejoin="round"
    />
    <path
      d="M18.9812 22.9421H25.411"
      stroke="white"
      stroke-width="2.5"
      stroke-miterlimit="10"
      stroke-linecap="round"
      stroke-linejoin="round"
    />
    <path
      d="M6.69553 22.9421H14.905"
      stroke="white"
      stroke-width="2.5"
      stroke-miterlimit="10"
      stroke-linecap="round"
      stroke-linejoin="round"
    />
    <path
      d="M17.6032 27.5349H14.5031"
      stroke="white"
      stroke-width="2.5"
      stroke-miterlimit="10"
      stroke-linecap="round"
      stroke-linejoin="round"
    />
  </svg>