<svg width="64" height="64" viewBox="0 0 64 64" fill="none" xmlns="http://www.w3.org/2000/svg">
<g clip-path="url(#clip0)">
<path d="M3.38573 36.6336L8.83213 33.1584C10.3873 32.2368 12.5441 32.9536 13.6449 34.7648C14.7521 36.5824 14.3809 38.7968 12.8257 39.7184L7.60333 43.0592C6.09293 44.0512 3.92333 43.4176 2.75213 41.6448C1.58733 39.872 1.86893 37.632 3.38573 36.6336Z" fill="#AC7FFF"/>
<path d="M35.6226 48.64C35.8828 49.0727 36.0551 49.5525 36.1297 50.0518C36.2042 50.5512 36.1796 51.0604 36.0571 51.5502C35.9347 52.0401 35.7168 52.5009 35.416 52.9065C35.1152 53.312 34.7374 53.6542 34.3042 53.9136L29.7346 56.768C28.8654 57.2969 27.8218 57.4591 26.833 57.2191C25.8442 56.9791 24.9911 56.3565 24.461 55.488C24.2005 55.0557 24.0279 54.5763 23.9528 54.0771C23.8778 53.578 23.9019 53.069 24.0237 52.5792C24.1456 52.0894 24.3628 51.6284 24.663 51.2227C24.9631 50.8169 25.3403 50.4743 25.773 50.2144L30.349 47.36C31.2183 46.8311 32.2619 46.6689 33.2507 46.9089C34.2394 47.1489 35.0925 47.7715 35.6226 48.64Z" fill="#AC7FFF"/>
<path d="M5.97143 44.6528C4.85291 44.6525 3.76527 44.2859 2.87478 43.609C1.98429 42.9322 1.33995 41.9823 1.04025 40.9047C0.740543 39.8271 0.801973 38.681 1.21514 37.6416C1.62832 36.6021 2.3705 35.7266 3.32823 35.1488L7.88503 32.3008C8.4613 31.9518 9.10078 31.72 9.76681 31.6186C10.4328 31.5172 11.1123 31.5483 11.7664 31.71C12.4204 31.8717 13.036 32.1609 13.5781 32.561C14.1201 32.9611 14.5778 33.4643 14.925 34.0416C15.2735 34.6187 15.5046 35.2588 15.605 35.9254C15.7054 36.5919 15.6733 37.2718 15.5104 37.9258C15.3474 38.5799 15.0569 39.1954 14.6556 39.737C14.2542 40.2785 13.7498 40.7355 13.1714 41.0816L8.61463 43.9296C7.81564 44.4064 6.90184 44.6564 5.97143 44.6528ZM10.5346 34.1184C10.0706 34.1213 9.61572 34.2472 9.21623 34.4832L4.66583 37.3312C4.37672 37.5031 4.12428 37.7303 3.92294 37.9997C3.72161 38.2691 3.57531 38.5756 3.49241 38.9015C3.4095 39.2275 3.39161 39.5666 3.43976 39.8995C3.48791 40.2324 3.60116 40.5525 3.77303 40.8416C3.94491 41.1308 4.17204 41.3832 4.44148 41.5845C4.71091 41.7859 5.01736 41.9322 5.34333 42.0151C5.6693 42.098 6.00841 42.1159 6.34129 42.0677C6.67418 42.0196 6.99432 41.9063 7.28343 41.7344L11.8402 38.8864C12.3238 38.6027 12.7009 38.1681 12.9136 37.6493C13.1262 37.1304 13.1626 36.5562 13.0173 36.0146C12.8719 35.4731 12.5527 34.9943 12.1089 34.6517C11.665 34.3092 11.1209 34.1218 10.5602 34.1184H10.5346Z" fill="#380D75"/>
<path d="M27.6607 44.4095C28.1875 45.2782 28.3486 46.3203 28.1087 47.3075C27.8688 48.2947 27.2474 49.1466 26.3807 49.6767L20.2367 53.5167C19.3674 54.0455 18.3238 54.2078 17.3351 53.9678C16.3463 53.7278 15.4932 53.1052 14.9631 52.2367C14.4391 51.3641 14.2829 50.3192 14.5289 49.3315C14.7749 48.3439 15.403 47.4943 16.2751 46.9695L22.4191 43.1295C22.8518 42.8693 23.3316 42.697 23.8309 42.6224C24.3303 42.5479 24.8395 42.5725 25.3293 42.695C25.8191 42.8174 26.28 43.0353 26.6856 43.3361C27.0911 43.6369 27.4333 44.0147 27.6927 44.4479L27.6607 44.4095Z" fill="#AC7FFF"/>
<path d="M8.95996 42.3297L15.36 38.2401C16.2292 37.7113 17.2728 37.549 18.2616 37.789C19.2504 38.029 20.1035 38.6516 20.6336 39.5201C20.8934 39.955 21.0646 40.437 21.1374 40.9383C21.2101 41.4397 21.1829 41.9504 21.0574 42.4412C20.9319 42.932 20.7105 43.3931 20.406 43.798C20.1015 44.2028 19.7199 44.5434 19.2832 44.8001L13.1712 48.7297C12.7495 49.0077 12.277 49.1998 11.781 49.2949C11.2849 49.39 10.775 49.3863 10.2804 49.2841C9.78575 49.1818 9.31615 48.983 8.89848 48.699C8.48082 48.415 8.12328 48.0513 7.84636 47.6289C7.29425 46.7777 7.10147 45.7425 7.31012 44.7496C7.51878 43.7567 8.11192 42.8867 8.95996 42.3297Z" fill="#AC7FFF"/>
<path d="M54.6114 42.3296C58.4097 39.5899 61.0757 35.5565 62.1077 30.9883C63.1396 26.4201 62.4664 21.6323 60.2146 17.526C57.9628 13.4196 54.2878 10.2778 49.8812 8.69192C45.4746 7.10606 40.6403 7.18546 36.2882 8.91519L20.8578 17.3504C15.949 20.0384 23.4178 25.6704 29.4786 22.2528L35.469 18.8736L37.7026 21.3056L51.3474 29.8688C52.1723 30.3892 52.7682 31.204 53.0142 32.1477C53.2603 33.0915 53.138 34.0935 52.6722 34.9504L50.9378 38.112L54.6114 42.3296Z" fill="#AC7FFF"/>
<path d="M42.1057 52.8577C41.8313 52.8583 41.5574 52.8369 41.2865 52.7937C40.9529 52.7384 40.6548 52.5534 40.4572 52.279C40.2596 52.0046 40.1785 51.6632 40.2318 51.3293C40.2851 50.9954 40.4683 50.6962 40.7414 50.4969C41.0146 50.2976 41.3555 50.2145 41.6897 50.2657C42.3284 50.3687 42.983 50.2433 43.5385 49.9117C44.094 49.58 44.5149 49.0632 44.7273 48.4521C44.9396 47.841 44.9299 47.1746 44.6998 46.5699C44.4696 45.9652 44.0338 45.461 43.4689 45.1457C43.1727 44.9759 42.9561 44.6955 42.8666 44.366C42.7772 44.0366 42.8223 43.6851 42.9921 43.3889C43.1618 43.0927 43.4423 42.8761 43.7717 42.7866C44.1012 42.6972 44.4527 42.7424 44.7489 42.9121C45.7722 43.489 46.5754 44.3889 47.0328 45.471C47.4902 46.553 47.576 47.7561 47.2768 48.8921C46.9777 50.0281 46.3103 51.0329 45.3793 51.7493C44.4483 52.4657 43.306 52.8532 42.1313 52.8513L42.1057 52.8577Z" fill="#380D75"/>
<path d="M50.368 48.256C49.458 48.2564 48.5632 48.0228 47.7696 47.5776L27.9296 36.3904C27.7833 36.3063 27.6551 36.1943 27.5521 36.0607C27.4492 35.9271 27.3736 35.7745 27.3296 35.6116C27.2856 35.4488 27.2741 35.2789 27.2958 35.1116C27.3175 34.9444 27.3719 34.783 27.456 34.6368C27.54 34.4905 27.652 34.3623 27.7857 34.2593C27.9193 34.1564 28.0718 34.0808 28.2347 34.0368C28.3975 33.9928 28.5674 33.9813 28.7347 34.003C28.902 34.0247 29.0633 34.0791 29.2096 34.1632L49.0496 45.344C49.3643 45.5218 49.711 45.6359 50.0698 45.6797C50.4287 45.7235 50.7926 45.6962 51.1409 45.5993C51.4892 45.5025 51.8149 45.3379 52.0996 45.1151C52.3843 44.8923 52.6223 44.6156 52.8 44.3008C52.9778 43.986 53.0919 43.6393 53.1357 43.2805C53.1795 42.9217 53.1522 42.5577 53.0553 42.2094C52.9585 41.8612 52.7939 41.5354 52.5711 41.2507C52.3483 40.966 52.0716 40.7281 51.7568 40.5504L31.9168 29.3696C31.6206 29.1998 31.4039 28.9194 31.3145 28.5899C31.2251 28.2604 31.2702 27.909 31.44 27.6128C31.6097 27.3166 31.8902 27.0999 32.2196 27.0105C32.5491 26.9211 32.9006 26.9662 33.1968 27.136L53.0368 38.3232C53.6432 38.6664 54.1761 39.1258 54.605 39.675C55.0339 40.2243 55.3504 40.8526 55.5365 41.5242C55.7225 42.1958 55.7744 42.8974 55.6892 43.5891C55.604 44.2807 55.3834 44.9488 55.04 45.5552C54.5719 46.3803 53.8922 47.0656 53.0709 47.5404C52.2497 48.0151 51.3166 48.2622 50.368 48.256Z" fill="#380D75"/>
<path d="M50.0289 38.816C49.1176 38.8137 48.2225 38.5756 47.4305 38.1248C47.1351 37.9551 46.9193 37.675 46.8305 37.3461C46.7417 37.0172 46.7872 36.6666 46.9569 36.3712C47.1266 36.0759 47.4067 35.8601 47.7356 35.7712C48.0645 35.6824 48.4151 35.7279 48.7105 35.8976C49.3445 36.2331 50.0844 36.3078 50.7727 36.1058C51.461 35.9037 52.0432 35.441 52.3953 34.816C52.7474 34.1911 52.8415 33.4534 52.6578 32.76C52.474 32.0667 52.0267 31.4725 51.4113 31.104L43.7953 26.688C43.6361 26.6117 43.4945 26.5033 43.3793 26.3695C43.264 26.2358 43.1777 26.0797 43.1257 25.9111C43.0737 25.7424 43.0571 25.5648 43.077 25.3894C43.097 25.214 43.1529 25.0447 43.2415 24.8919C43.33 24.7392 43.4491 24.6065 43.5914 24.502C43.7337 24.3976 43.8961 24.3237 44.0683 24.285C44.2405 24.2463 44.4189 24.2437 44.5922 24.2773C44.7655 24.3108 44.93 24.3798 45.0753 24.48L52.6529 28.8768C53.5642 29.3964 54.3015 30.1738 54.7721 31.1113C55.2426 32.0488 55.4254 33.1045 55.2975 34.1457C55.1696 35.1868 54.7367 36.1669 54.0531 36.9626C53.3696 37.7583 52.466 38.3341 51.4561 38.6176C50.9911 38.7462 50.5113 38.8129 50.0289 38.816Z" fill="#380D75"/>
<path d="M1.79822 32.9216C1.51063 32.9206 1.23173 32.8229 1.00648 32.6441C0.781234 32.4653 0.622764 32.2158 0.55662 31.936C-0.639951 26.9262 0.103121 21.6493 2.63662 17.1648C2.80636 16.8686 3.08681 16.6519 3.41627 16.5625C3.74574 16.4731 4.09723 16.5182 4.39342 16.688C4.68961 16.8577 4.90625 17.1382 4.99567 17.4676C5.08508 17.7971 5.03996 18.1486 4.87022 18.4448C2.65351 22.3652 2.0019 26.979 3.04622 31.36C3.12512 31.6901 3.06965 32.0381 2.89202 32.3273C2.71439 32.6166 2.42914 32.8234 2.09902 32.9024C1.99958 32.9182 1.89887 32.9246 1.79822 32.9216Z" fill="#380D75"/>
<path d="M3.75044 19.0721C3.5268 19.0756 3.30613 19.0204 3.11044 18.9121C2.96355 18.8295 2.8344 18.7188 2.7304 18.5862C2.6264 18.4536 2.5496 18.3018 2.50441 18.1395C2.45922 17.9771 2.44653 17.8075 2.46706 17.6402C2.48758 17.473 2.54093 17.3114 2.62404 17.1649C7.85284 7.91686 17.28 3.84006 28.448 5.92006C28.7824 5.98286 29.0782 6.17593 29.2702 6.45678C29.4622 6.73764 29.5348 7.08328 29.472 7.41766C29.4092 7.75205 29.2162 8.04779 28.9353 8.23982C28.6545 8.43186 28.3088 8.50446 27.9744 8.44166C17.9328 6.52166 9.51044 10.1889 4.87044 18.4257C4.75795 18.6231 4.59491 18.7871 4.39807 18.9007C4.20124 19.0143 3.97771 19.0734 3.75044 19.0721Z" fill="#380D75"/>
<path d="M54.6176 43.6096C54.3462 43.6098 54.0817 43.5236 53.8624 43.3636C53.6431 43.2035 53.4803 42.9779 53.3977 42.7193C53.3151 42.4607 53.3168 42.1825 53.4026 41.9249C53.4885 41.6674 53.654 41.4438 53.8753 41.2864C57.4159 38.7331 59.9027 34.9751 60.869 30.7181C61.8352 26.4611 61.2143 21.9978 59.1229 18.1662C57.0314 14.3345 53.6133 11.398 49.5102 9.90799C45.4071 8.41796 40.9012 8.47686 36.8385 10.0736L21.4785 18.4768C21.1393 18.6624 20.5633 19.04 20.5569 19.4816C20.5505 19.9232 20.9729 20.5504 21.9457 21.1264C22.9997 21.7197 24.1889 22.0313 25.3985 22.0313C26.608 22.0313 27.7972 21.7197 28.8513 21.1264L34.8481 17.7472C35.0519 17.6331 35.2832 17.5769 35.5167 17.5848C35.7502 17.5927 35.9772 17.6644 36.1729 17.792C37.5923 18.6237 39.1872 19.1102 40.8291 19.2125C42.471 19.3148 44.114 19.0299 45.6257 18.3808C45.9371 18.245 46.2898 18.2386 46.606 18.3628C46.9223 18.487 47.1763 18.7318 47.3121 19.0432C47.4478 19.3547 47.4543 19.7074 47.3301 20.0236C47.2059 20.3399 46.9611 20.5938 46.6497 20.7296C44.8735 21.4934 42.9501 21.8539 41.0179 21.7853C39.0857 21.7167 37.1928 21.2206 35.4753 20.3328L30.0801 23.3664C28.6319 24.1808 26.9972 24.6053 25.3358 24.5986C23.6744 24.5919 22.0432 24.1541 20.6017 23.328C18.8993 22.3104 17.9393 20.8896 17.9649 19.4368C17.9649 18.688 18.2913 17.2864 20.2177 16.2368L35.6737 7.78884L35.8017 7.73124C40.4462 5.87542 45.6094 5.78341 50.3172 7.47258C55.0249 9.16175 58.9518 12.5153 61.3571 16.9006C63.7623 21.286 64.4796 26.3999 63.3737 31.2777C62.2677 36.1556 59.415 40.4601 55.3537 43.3792C55.1369 43.528 54.8805 43.6083 54.6176 43.6096Z" fill="#380D75"/>
<path d="M27.7566 58.5984C26.6381 58.598 25.5504 58.2314 24.6599 57.5546C23.7694 56.8777 23.1251 55.9279 22.8254 54.8503C22.5257 53.7727 22.5871 52.6265 23.0003 51.5871C23.4135 50.5477 24.1557 49.6722 25.1134 49.0944L29.6702 46.2464C30.2465 45.8974 30.8859 45.6656 31.552 45.5642C32.218 45.4628 32.8975 45.4938 33.5515 45.6556C34.2055 45.8173 34.8212 46.1065 35.3632 46.5066C35.9053 46.9067 36.363 47.4099 36.7102 47.9872C37.0586 48.5642 37.2897 49.2044 37.3902 49.8709C37.4906 50.5375 37.4584 51.2173 37.2955 51.8714C37.1326 52.5255 36.8421 53.141 36.4407 53.6825C36.0394 54.2241 35.535 54.681 34.9566 55.0272L30.4062 57.8752C29.6046 58.3513 28.6889 58.6012 27.7566 58.5984ZM32.3198 48.064C31.8684 48.0706 31.4268 48.1965 31.0398 48.4288L26.483 51.2768C26.1901 51.4495 25.9346 51.6788 25.7313 51.9513C25.528 52.2238 25.3811 52.5341 25.299 52.864C25.1392 53.517 25.2426 54.2066 25.587 54.784C25.9332 55.3626 26.4937 55.7812 27.1468 55.949C27.7999 56.1168 28.4928 56.0201 29.075 55.68L33.6254 52.832C34.109 52.5483 34.4861 52.1136 34.6987 51.5948C34.9114 51.076 34.9478 50.5017 34.8024 49.9602C34.657 49.4187 34.3379 48.9399 33.894 48.5973C33.4501 48.2547 32.9061 48.0674 32.3454 48.064H32.3198Z" fill="#380D75"/>
<path d="M18.2274 55.3408C17.3435 55.3411 16.4745 55.1125 15.7052 54.6774C14.9358 54.2422 14.2922 53.6153 13.837 52.8576C13.4883 52.281 13.2568 51.6411 13.1559 50.9748C13.055 50.3086 13.0866 49.6289 13.2489 48.9748C13.4112 48.3208 13.7011 47.7052 14.1018 47.1634C14.5025 46.6216 15.0063 46.1643 15.5842 45.8176L21.709 41.9776C22.2849 41.6283 22.924 41.3961 23.5898 41.2942C24.2556 41.1924 24.9349 41.2229 25.5889 41.384C26.2428 41.5451 26.8586 41.8337 27.4009 42.2332C27.9431 42.6326 28.4013 43.1352 28.749 43.712C29.0977 44.2887 29.3292 44.9285 29.4301 45.5948C29.531 46.2611 29.4994 46.9407 29.3371 47.5948C29.1747 48.2488 28.8849 48.8644 28.4842 49.4062C28.0834 49.948 27.5797 50.4053 27.0018 50.752L20.877 54.592C20.0778 55.0768 19.1621 55.3356 18.2274 55.3408ZM24.365 43.8208C23.9002 43.8183 23.4439 43.9445 23.0466 44.1856L16.9218 48.0256C16.6289 48.1983 16.3734 48.4276 16.1701 48.7001C15.9668 48.9726 15.8198 49.2829 15.7378 49.6128C15.578 50.2658 15.6814 50.9554 16.0258 51.5328C16.1989 51.822 16.4273 52.0742 16.6981 52.2749C16.9689 52.4756 17.2766 52.6208 17.6037 52.7023C17.9307 52.7837 18.2706 52.7998 18.6039 52.7496C18.9372 52.6994 19.2573 52.5838 19.5458 52.4096L25.6706 48.5696C25.9656 48.4024 26.2244 48.1782 26.4321 47.9102C26.6397 47.6421 26.792 47.3354 26.8802 47.008C27.0381 46.3542 26.9323 45.6645 26.5858 45.088C26.3584 44.7018 26.0335 44.3822 25.6438 44.1609C25.2541 43.9397 24.8131 43.8246 24.365 43.8272V43.8208Z" fill="#380D75"/>
<path d="M11.0656 50.6625C9.96207 50.6657 8.88708 50.3123 8.00074 49.655C7.1144 48.9976 6.46415 48.0715 6.14687 47.0146C5.82959 45.9577 5.86225 44.8266 6.24 43.7898C6.61775 42.753 7.32036 41.866 8.24315 41.2609L14.6432 37.1649C15.5105 36.6332 16.5165 36.3719 17.533 36.4144C18.5494 36.4569 19.5301 36.8012 20.35 37.4034C21.17 38.0057 21.7919 38.8385 22.1365 39.7957C22.4811 40.7529 22.5327 41.791 22.2848 42.7777C22.1233 43.4311 21.8337 44.0459 21.4327 44.5864C21.0316 45.127 20.5273 45.5825 19.9488 45.9265L13.8688 49.8369C13.0344 50.3785 12.0603 50.6654 11.0656 50.6625ZM9.64475 43.4049C9.36404 43.5902 9.12258 43.829 8.93415 44.1076C8.74572 44.3863 8.61403 44.6993 8.54657 45.0288C8.47912 45.3584 8.47724 45.698 8.54103 46.0282C8.60482 46.3585 8.73303 46.673 8.91835 46.9537C9.10367 47.2344 9.34247 47.4758 9.62111 47.6643C9.89975 47.8527 10.2128 47.9844 10.5423 48.0519C10.8718 48.1193 11.2114 48.1212 11.5417 48.0574C11.872 47.9936 12.1864 47.8654 12.4672 47.6801L18.592 43.7441C18.8975 43.5822 19.167 43.3602 19.3844 43.0914C19.6018 42.8225 19.7624 42.5124 19.8567 42.1798C19.9509 41.8472 19.9768 41.4989 19.9328 41.156C19.8888 40.8131 19.7758 40.4826 19.6006 40.1846C19.4254 39.8865 19.1917 39.6271 18.9135 39.4218C18.6353 39.2166 18.3184 39.0698 17.9819 38.9903C17.6454 38.9109 17.2963 38.9004 16.9557 38.9596C16.6151 39.0187 16.29 39.1463 16 39.3345L9.64475 43.4049Z" fill="#380D75"/>
</g>
<defs>
<clipPath id="clip0">
<rect width="64" height="64" fill="white"/>
</clipPath>
</defs>
</svg>
