<svg width="8" height="630" viewBox="0 0 8 630" fill="none" xmlns="http://www.w3.org/2000/svg">
<path d="M3.24996 629C3.24996 629.414 3.58575 629.75 3.99996 629.75C4.41418 629.75 4.74996 629.414 4.74996 629L3.24996 629ZM4.75 7C4.75 6.58582 4.41421 6.25 4 6.25C3.58579 6.25 3.25 6.58582 3.25 7L4.75 7ZM4.74996 629L4.75 7L3.25 7L3.24996 629L4.74996 629Z" fill="#F9F7FF"/>
<path d="M0 4C0 1.79086 1.79086 0 4 0C6.20914 0 8 1.79086 8 4V10C8 12.2091 6.20914 14 4 14C1.79086 14 0 12.2091 0 10V4Z" fill="#F9F7FF"/>
</svg>
