<svg
  width="64"
  height="64"
  viewBox="0 0 64 64"
  fill="none"
  xmlns="http://www.w3.org/2000/svg"
>
  <path
    d="M11.0848 35.264L1.28003 44.4224H5.85603V62.72H16.3136V44.4224H20.8896L11.0848 35.264Z"
    fill="#DFD7FF"
  />
  <path
    d="M31.9999 18.272L22.1951 27.424H26.7711V62.72H37.2287V27.424H41.8047L31.9999 18.272Z"
    fill="#CAB5FF"
  />
  <path
    d="M52.9152 1.28L43.1104 10.432H47.6864V62.72H58.1439V10.432H62.72L52.9152 1.28Z"
    fill="#AC7FFF"
  />
  <path
    d="M16.3136 64C15.9741 64 15.6485 63.8651 15.4085 63.6251C15.1684 63.385 15.0336 63.0595 15.0336 62.72V44.416C15.0336 44.0765 15.1684 43.7509 15.4085 43.5109C15.6485 43.2708 15.9741 43.136 16.3136 43.136H17.6448L11.0848 37.0176L4.52479 43.136H5.85599C6.19547 43.136 6.52104 43.2708 6.76109 43.5109C7.00113 43.7509 7.13599 44.0765 7.13599 44.416V61.44H11.136C11.4755 61.44 11.801 61.5748 12.0411 61.8149C12.2811 62.0549 12.416 62.3805 12.416 62.72C12.416 63.0595 12.2811 63.385 12.0411 63.6251C11.801 63.8651 11.4755 64 11.136 64H5.85599C5.51651 64 5.19094 63.8651 4.95089 63.6251C4.71085 63.385 4.57599 63.0595 4.57599 62.72V45.696H1.27999C1.02362 45.6951 0.773414 45.6173 0.561798 45.4725C0.350182 45.3278 0.186904 45.1229 0.0931167 44.8842C-0.000670405 44.6456 -0.0206446 44.3844 0.0357818 44.1343C0.0922081 43.8842 0.222435 43.6568 0.409591 43.4816L10.24 34.3296C10.477 34.1082 10.7893 33.9851 11.1136 33.9851C11.4379 33.9851 11.7501 34.1082 11.9872 34.3296L21.76 43.4816C21.9471 43.6568 22.0774 43.8842 22.1338 44.1343C22.1902 44.3844 22.1703 44.6456 22.0765 44.8842C21.9827 45.1229 21.8194 45.3278 21.6078 45.4725C21.3962 45.6173 21.146 45.6951 20.8896 45.696H17.5936V62.72C17.5936 63.0595 17.4587 63.385 17.2187 63.6251C16.9786 63.8651 16.6531 64 16.3136 64Z"
    fill="#380D75"
  />
  <path
    d="M37.2289 64H26.7713C26.4318 64 26.1062 63.8652 25.8662 63.6251C25.6261 63.3851 25.4913 63.0595 25.4913 62.72V28.704H22.1953C21.9389 28.7031 21.6887 28.6253 21.4771 28.4805C21.2655 28.3358 21.1022 28.1309 21.0084 27.8923C20.9146 27.6537 20.8946 27.3924 20.9511 27.1423C21.0075 26.8922 21.1377 26.6648 21.3249 26.4896L31.1297 17.3376C31.3664 17.1181 31.6773 16.9961 32.0001 16.9961C32.3229 16.9961 32.6338 17.1181 32.8705 17.3376L42.6753 26.4896C42.8624 26.6648 42.9927 26.8922 43.0491 27.1423C43.1055 27.3924 43.0855 27.6537 42.9917 27.8923C42.898 28.1309 42.7347 28.3358 42.5231 28.4805C42.3114 28.6253 42.0612 28.7031 41.8049 28.704H38.5089V57.5424C38.5089 57.8819 38.374 58.2075 38.134 58.4475C37.8939 58.6875 37.5683 58.8224 37.2289 58.8224C36.8894 58.8224 36.5638 58.6875 36.3238 58.4475C36.0837 58.2075 35.9489 57.8819 35.9489 57.5424V27.424C35.9489 27.0845 36.0837 26.759 36.3238 26.5189C36.5638 26.2789 36.8894 26.144 37.2289 26.144H38.5601L32.0001 20.0256L25.4401 26.144H26.7713C27.1108 26.144 27.4363 26.2789 27.6764 26.5189C27.9164 26.759 28.0513 27.0845 28.0513 27.424V61.44H37.2289C37.5683 61.44 37.8939 61.5749 38.134 61.8149C38.374 62.055 38.5089 62.3805 38.5089 62.72C38.5089 63.0595 38.374 63.3851 38.134 63.6251C37.8939 63.8652 37.5683 64 37.2289 64Z"
    fill="#380D75"
  />
  <path
    d="M58.1442 64C57.8047 64 57.4791 63.8651 57.2391 63.6251C56.999 63.385 56.8642 63.0595 56.8642 62.72V10.432C56.8642 10.0925 56.999 9.76694 57.2391 9.52689C57.4791 9.28684 57.8047 9.15199 58.1442 9.15199H59.4754L52.9154 3.03359L46.3554 9.15199H47.6866C48.026 9.15199 48.3516 9.28684 48.5917 9.52689C48.8317 9.76694 48.9666 10.0925 48.9666 10.432V61.44H52.9666C53.306 61.44 53.6316 61.5748 53.8717 61.8149C54.1117 62.0549 54.2466 62.3805 54.2466 62.72C54.2466 63.0595 54.1117 63.385 53.8717 63.6251C53.6316 63.8651 53.306 64 52.9666 64H47.6866C47.3471 64 47.0215 63.8651 46.7815 63.6251C46.5414 63.385 46.4066 63.0595 46.4066 62.72V11.712H43.1106C42.8542 11.7111 42.604 11.6333 42.3924 11.4885C42.1807 11.3438 42.0175 11.1388 41.9237 10.9002C41.8299 10.6616 41.8099 10.4004 41.8663 10.1503C41.9228 9.90019 42.053 9.6728 42.2402 9.49759L52.045 0.345586C52.2802 0.133311 52.5857 0.0158081 52.9026 0.0158081C53.2194 0.0158081 53.525 0.133311 53.7602 0.345586L63.565 9.49759C63.7506 9.67129 63.8804 9.89636 63.9376 10.1441C63.9949 10.3918 63.9771 10.651 63.8864 10.8886C63.7958 11.1261 63.6365 11.3313 63.4288 11.478C63.221 11.6246 62.9744 11.7061 62.7202 11.712H59.4242V62.72C59.4242 63.0595 59.2893 63.385 59.0493 63.6251C58.8092 63.8651 58.4836 64 58.1442 64Z"
    fill="#380D75"
  />
</svg>