<svg width="101" height="65" viewBox="0 0 101 65" fill="none" xmlns="http://www.w3.org/2000/svg">
<path d="M86.9301 53.6293H30.7104C25.7659 53.6241 21.0257 51.6621 17.5303 48.1742C14.035 44.6861 12.0703 39.9573 12.0676 35.026C12.0689 32.1237 12.7576 29.2629 14.0777 26.6765C9.98692 28.206 6.56516 31.1207 4.41028 34.911C2.2554 38.7012 1.50442 43.1262 2.28856 47.4126C3.0727 51.6991 5.3421 55.5745 8.70022 58.3615C12.0583 61.1486 16.2916 62.6702 20.6604 62.6605H76.8801C80.6815 62.6494 84.4128 61.6392 87.6982 59.7317C90.9834 57.8241 93.7066 55.0867 95.5932 51.7951C92.8646 53.0004 89.9142 53.6252 86.9301 53.6293Z" fill="#E5E0FC"/>
<path d="M77.3423 64.2242C76.8092 64.2242 76.298 64.013 75.921 63.6371C75.5441 63.2611 75.3323 62.7513 75.3323 62.2196C75.3323 61.6879 75.5441 61.178 75.921 60.8021C76.298 60.4261 76.8092 60.2149 77.3423 60.2149C82.5505 60.2149 87.5455 58.1514 91.2282 54.4784C94.9111 50.8053 96.98 45.8236 96.98 40.6291C96.98 35.4347 94.9111 30.4529 91.2282 26.7799C87.5455 23.1068 82.5505 21.0434 77.3423 21.0434C75.6463 21.0366 73.9569 21.2523 72.3173 21.6849C71.8138 21.8158 71.2791 21.7468 70.8255 21.4927C70.3719 21.2384 70.0348 20.8187 69.8852 20.3217C68.3297 15.2905 65.0605 10.9596 60.6428 8.07733C56.225 5.19523 50.9364 3.94328 45.6913 4.53772C40.4462 5.13216 35.5741 7.53582 31.9174 11.333C28.2607 15.1303 26.0492 20.0824 25.6652 25.3334C25.6512 25.6118 25.5792 25.8842 25.4538 26.1333C25.3283 26.3824 25.152 26.6026 24.9365 26.7799C24.7207 26.9573 24.4705 27.0877 24.2015 27.1631C23.9323 27.2386 23.6504 27.2571 23.3738 27.2178C22.641 27.1178 21.9023 27.0677 21.1628 27.0674C16.7489 27.0674 12.5157 28.8163 9.39457 31.9291C6.27343 35.042 4.52 39.264 4.52 43.6662C4.52 48.0684 6.27343 52.2905 9.39457 55.4034C12.5157 58.5163 16.7489 60.265 21.1628 60.265H66.4883C67.0214 60.265 67.5326 60.4762 67.9096 60.8522C68.2865 61.2281 68.4983 61.7381 68.4983 62.2697C68.4983 62.8014 68.2865 63.3112 67.9096 63.6872C67.5326 64.0631 67.0214 64.2744 66.4883 64.2744H21.1628C15.6827 64.2744 10.427 62.1032 6.552 58.2384C2.67696 54.3737 0.5 49.1319 0.5 43.6662C0.5 38.2006 2.67696 32.9589 6.552 29.0941C10.427 25.2294 15.6827 23.0581 21.1628 23.0581H21.8562C22.7006 17.2253 25.4644 11.8377 29.7134 7.74216C33.9623 3.64674 39.4554 1.07548 45.3291 0.432886C51.2027 -0.209713 57.124 1.11264 62.1621 4.19203C67.2003 7.27154 71.0694 11.9334 73.1615 17.4449C74.541 17.196 75.9403 17.0719 77.3423 17.0741C80.4491 17.0741 83.5254 17.6844 86.3958 18.8702C89.266 20.0559 91.874 21.794 94.0708 23.985C96.2677 26.176 98.0103 28.777 99.1992 31.6398C100.388 34.5025 101 37.5706 101 40.6692C101 43.7678 100.388 46.8361 99.1992 49.6987C98.0103 52.5614 96.2677 55.1625 94.0708 57.3535C91.874 59.5445 89.266 61.2825 86.3958 62.4683C83.5254 63.654 80.4491 64.2643 77.3423 64.2643V64.2242Z" fill="#380D75"/>
</svg>
