  <svg
    width="32"
    height="32"
    viewBox="0 0 32 32"
    fill="none"
    xmlns="http://www.w3.org/2000/svg"
  >
    <path
      d="M16 32C24.8366 32 32 24.8366 32 16C32 7.16344 24.8366 0 16 0C7.16344 0 0 7.16344 0 16C0 24.8366 7.16344 32 16 32Z"
      fill="#FA7035"
    />
    <path
      d="M7.69189 10.7429C9.37282 7.58867 12.4465 5.48584 16.0004 5.48584C21.2833 5.48584 25.6057 10.2172 25.6057 16C25.6057 16.2103 25.6057 16.4206 25.6057 16.6309"
      stroke="white"
      stroke-width="2.5"
      stroke-miterlimit="10"
      stroke-linecap="round"
      stroke-linejoin="round"
    />
    <path
      d="M24.3559 21.2048C22.723 24.3591 19.6013 26.5145 15.9994 26.5145C10.7165 26.5145 6.3941 21.7831 6.3941 16.0002C6.3941 15.7373 6.3941 15.527 6.3941 15.2642"
      stroke="white"
      stroke-width="2.5"
      stroke-miterlimit="10"
      stroke-linecap="round"
      stroke-linejoin="round"
    />
    <path
      d="M22.8678 14.6327L25.6053 17.5768L28.3428 14.6327"
      stroke="white"
      stroke-width="2.5"
      stroke-miterlimit="10"
      stroke-linecap="round"
      stroke-linejoin="round"
    />
    <path
      d="M9.13204 16.7358L6.39454 13.7916L3.65704 16.7358"
      stroke="white"
      stroke-width="2.5"
      stroke-miterlimit="10"
      stroke-linecap="round"
      stroke-linejoin="round"
    />
    <path
      d="M9.51642 23.6231C11.1973 21.9933 13.4065 21.047 15.8079 21.047C18.2092 21.047 20.4664 22.0459 22.1473 23.6757"
      stroke="white"
      stroke-width="2.5"
      stroke-miterlimit="10"
      stroke-linecap="round"
      stroke-linejoin="round"
    />
    <path
      d="M15.8557 18.2607C17.5533 18.2607 18.9294 16.7544 18.9294 14.8962C18.9294 13.038 17.5533 11.5316 15.8557 11.5316C14.1582 11.5316 12.782 13.038 12.782 14.8962C12.782 16.7544 14.1582 18.2607 15.8557 18.2607Z"
      stroke="white"
      stroke-width="2.5"
      stroke-miterlimit="10"
      stroke-linecap="round"
      stroke-linejoin="round"
    />
  </svg>