<svg width="21" height="21" fill="none" xmlns="http://www.w3.org/2000/svg">
  <g clip-path="url(#continuousDelivery)" fill="#fff">
    <path
      d="M.84 11.338a.84.84 0 01-.84-.84 10.5 10.5 0 0118.942-6.245.84.84 0 11-1.348 1 9.12 9.12 0 00-.84-.992A8.82 8.82 0 001.68 10.498a.84.84 0 01-.84.84zM10.5 21a10.463 10.463 0 01-8.459-4.28.84.84 0 011.353-.995A8.82 8.82 0 0019.32 10.5a.84.84 0 011.68 0A10.5 10.5 0 0110.5 21z"
    />
    <path
      d="M10.5 16.523a6.023 6.023 0 110-12.046 6.023 6.023 0 010 12.046zm0-10.366a4.343 4.343 0 100 8.686 4.343 4.343 0 000-8.686z"
    />
    <path
      d="M9.694 12.738a.839.839 0 01-.597-.247L7.93 11.34a.84.84 0 111.184-1.189l.58.58 2.192-2.193a.84.84 0 011.184 1.189l-2.784 2.784a.84.84 0 01-.592.227zM18.27 5.594h-2.575a.84.84 0 010-1.68h1.735v-1.73a.84.84 0 111.68 0v2.57a.84.84 0 01-.84.84zM2.717 19.63a.84.84 0 01-.84-.84v-2.574a.84.84 0 01.84-.84h2.57a.84.84 0 010 1.68h-1.73v1.735a.84.84 0 01-.84.84z"
    />
  </g>
  <defs>
    <clipPath id="continuousDelivery">
      <path fill="#fff" d="M0 0h21v21H0z" />
    </clipPath>
  </defs>
</svg>