<svg
    width="22"
    height="22"
    viewBox="0 0 40 40"
    fill="none"
    xmlns="http://www.w3.org/2000/svg"
  >
    <circle cx="20" cy="20" r="20" fill="#F2F2F2" />
    <path
      d="M29.5348 17.6106H10.4652C10.2318 17.6106 10.008 17.5179 9.84295 17.3528C9.67792 17.1878 9.58521 16.964 9.58521 16.7306C9.58521 16.4972 9.67792 16.2734 9.84295 16.1083C10.008 15.9433 10.2318 15.8506 10.4652 15.8506H29.5348C29.7682 15.8506 29.992 15.9433 30.1571 16.1083C30.3221 16.2734 30.4148 16.4972 30.4148 16.7306C30.4148 16.964 30.3221 17.1878 30.1571 17.3528C29.992 17.5179 29.7682 17.6106 29.5348 17.6106Z"
      fill="#7D2BD9"
    />
    <path
      d="M27.7748 30.9999H12.2252C11.525 30.9999 10.8535 30.7217 10.3584 30.2266C9.86335 29.7315 9.58521 29.0601 9.58521 28.3599V19.4015C9.58521 19.1681 9.67792 18.9443 9.84295 18.7792C10.008 18.6142 10.2318 18.5215 10.4652 18.5215C10.6986 18.5215 10.9224 18.6142 11.0875 18.7792C11.2525 18.9443 11.3452 19.1681 11.3452 19.4015V28.3599C11.3452 28.5933 11.4379 28.8171 11.603 28.9821C11.768 29.1472 11.9918 29.2399 12.2252 29.2399H27.7748C28.0082 29.2399 28.232 29.1472 28.3971 28.9821C28.5621 28.8171 28.6548 28.5933 28.6548 28.3599V19.4015C28.6548 19.1681 28.7475 18.9443 28.9125 18.7792C29.0776 18.6142 29.3014 18.5215 29.5348 18.5215C29.7682 18.5215 29.992 18.6142 30.1571 18.7792C30.3221 18.9443 30.4148 19.1681 30.4148 19.4015V28.3599C30.4148 29.0601 30.1367 29.7315 29.6416 30.2266C29.1465 30.7217 28.475 30.9999 27.7748 30.9999Z"
      fill="#7D2BD9"
    />
    <path
      d="M10.4652 17.6108C10.2318 17.6108 10.008 17.5181 9.84295 17.3531C9.67792 17.188 9.58521 16.9642 9.58521 16.7308V13.2108C9.58521 12.5106 9.86335 11.8391 10.3584 11.344C10.8535 10.8489 11.525 10.5708 12.2252 10.5708H25.1744C25.4078 10.5708 25.6316 10.6635 25.7967 10.8285C25.9617 10.9936 26.0544 11.2174 26.0544 11.4508C26.0544 11.6842 25.9617 11.908 25.7967 12.0731C25.6316 12.2381 25.4078 12.3308 25.1744 12.3308H12.2252C11.9918 12.3308 11.768 12.4235 11.603 12.5885C11.4379 12.7536 11.3452 12.9774 11.3452 13.2108V16.7308C11.3452 16.9642 11.2525 17.188 11.0875 17.3531C10.9224 17.5181 10.6986 17.6108 10.4652 17.6108Z"
      fill="#7D2BD9"
    />
    <path
      d="M29.5348 17.6108C29.3014 17.6108 29.0776 17.5181 28.9126 17.3531C28.7475 17.188 28.6548 16.9642 28.6548 16.7308V13.2108C28.6548 12.9774 28.5621 12.7536 28.3971 12.5885C28.2321 12.4235 28.0082 12.3308 27.7748 12.3308H25.1744C24.941 12.3308 24.7172 12.2381 24.5522 12.0731C24.3871 11.908 24.2944 11.6842 24.2944 11.4508C24.2944 11.2174 24.3871 10.9936 24.5522 10.8285C24.7172 10.6635 24.941 10.5708 25.1744 10.5708H27.7748C28.475 10.5708 29.1465 10.8489 29.6416 11.344C30.1367 11.8391 30.4148 12.5106 30.4148 13.2108V16.7308C30.4148 16.9642 30.3221 17.188 30.1571 17.3531C29.9921 17.5181 29.7682 17.6108 29.5348 17.6108Z"
      fill="#7D2BD9"
    />
    <path
      d="M14.8256 13.8708C14.5922 13.8708 14.3683 13.7781 14.2033 13.6131C14.0383 13.448 13.9456 13.2242 13.9456 12.9908V9.88C13.9456 9.64661 14.0383 9.42278 14.2033 9.25775C14.3683 9.09271 14.5922 9 14.8256 9C15.0589 9 15.2828 9.09271 15.4478 9.25775C15.6128 9.42278 15.7056 9.64661 15.7056 9.88V12.9908C15.7056 13.2242 15.6128 13.448 15.4478 13.6131C15.2828 13.7781 15.0589 13.8708 14.8256 13.8708Z"
      fill="#7D2BD9"
    />
    <path
      d="M25.1744 13.8708C24.941 13.8708 24.7172 13.7781 24.5522 13.6131C24.3871 13.448 24.2944 13.2242 24.2944 12.9908V9.88C24.2944 9.64661 24.3871 9.42278 24.5522 9.25775C24.7172 9.09271 24.941 9 25.1744 9C25.4078 9 25.6317 9.09271 25.7967 9.25775C25.9617 9.42278 26.0544 9.64661 26.0544 9.88V12.9908C26.0544 13.2242 25.9617 13.448 25.7967 13.6131C25.6317 13.7781 25.4078 13.8708 25.1744 13.8708Z"
      fill="#7D2BD9"
    />
    <path
      d="M20.9461 22.3406H19.0541C18.8207 22.3406 18.5969 22.2479 18.4318 22.0828C18.2668 21.9178 18.1741 21.694 18.1741 21.4606C18.1741 21.2272 18.2668 21.0033 18.4318 20.8383C18.5969 20.6733 18.8207 20.5806 19.0541 20.5806H20.9461C21.1795 20.5806 21.4033 20.6733 21.5683 20.8383C21.7334 21.0033 21.8261 21.2272 21.8261 21.4606C21.8261 21.694 21.7334 21.9178 21.5683 22.0828C21.4033 22.2479 21.1795 22.3406 20.9461 22.3406Z"
      fill="#7D2BD9"
    />
    <path
      d="M20.9461 26.2654H19.0541C18.8207 26.2654 18.5969 26.1727 18.4318 26.0076C18.2668 25.8426 18.1741 25.6188 18.1741 25.3854C18.1741 25.152 18.2668 24.9281 18.4318 24.7631C18.5969 24.5981 18.8207 24.5054 19.0541 24.5054H20.9461C21.1795 24.5054 21.4033 24.5981 21.5683 24.7631C21.7334 24.9281 21.8261 25.152 21.8261 25.3854C21.8261 25.6188 21.7334 25.8426 21.5683 26.0076C21.4033 26.1727 21.1795 26.2654 20.9461 26.2654Z"
      fill="#7D2BD9"
    />
    <path
      d="M25.4868 22.3406H23.5992C23.3658 22.3406 23.142 22.2479 22.977 22.0828C22.812 21.9178 22.7192 21.694 22.7192 21.4606C22.7192 21.2272 22.812 21.0033 22.977 20.8383C23.142 20.6733 23.3658 20.5806 23.5992 20.5806H25.4868C25.7202 20.5806 25.9441 20.6733 26.1091 20.8383C26.2741 21.0033 26.3668 21.2272 26.3668 21.4606C26.3668 21.694 26.2741 21.9178 26.1091 22.0828C25.9441 22.2479 25.7202 22.3406 25.4868 22.3406Z"
      fill="#7D2BD9"
    />
    <path
      d="M16.4009 26.2654H14.5133C14.2799 26.2654 14.0561 26.1727 13.891 26.0076C13.726 25.8426 13.6333 25.6188 13.6333 25.3854C13.6333 25.152 13.726 24.9281 13.891 24.7631C14.0561 24.5981 14.2799 24.5054 14.5133 24.5054H16.4009C16.6343 24.5054 16.8581 24.5981 17.0232 24.7631C17.1882 24.9281 17.2809 25.152 17.2809 25.3854C17.2809 25.6188 17.1882 25.8426 17.0232 26.0076C16.8581 26.1727 16.6343 26.2654 16.4009 26.2654Z"
      fill="#7D2BD9"
    />
  </svg>