  <svg
    width="32"
    height="32"
    viewBox="0 0 32 32"
    fill="none"
    xmlns="http://www.w3.org/2000/svg"
  >
    <path
      d="M16 32C24.8366 32 32 24.8366 32 16C32 7.16345 24.8366 0 16 0C7.16345 0 0 7.16345 0 16C0 24.8366 7.16345 32 16 32Z"
      fill="#9B51E0"
    />
    <path
      d="M12.3769 19.4094C10.4349 17.4675 10.4349 14.3191 12.3769 12.3771C14.3188 10.4352 17.4673 10.4352 19.4093 12.3771C21.3512 14.3191 21.3512 17.4675 19.4093 19.4094C17.4673 21.3514 14.3188 21.3514 12.3769 19.4094Z"
      stroke="white"
      stroke-width="2.5"
      stroke-miterlimit="10"
      stroke-linecap="round"
      stroke-linejoin="round"
    />
    <path
      d="M12.3768 19.4095L18.4598 25.4925"
      stroke="white"
      stroke-width="2.5"
      stroke-miterlimit="10"
      stroke-linecap="round"
      stroke-linejoin="round"
    />
    <path
      d="M19.4094 19.4095L25.4924 13.3265"
      stroke="white"
      stroke-width="2.5"
      stroke-miterlimit="10"
      stroke-linecap="round"
      stroke-linejoin="round"
    />
    <path
      d="M19.4094 12.3771L13.3264 6.29407"
      stroke="white"
      stroke-width="2.5"
      stroke-miterlimit="10"
      stroke-linecap="round"
      stroke-linejoin="round"
    />
    <path
      d="M12.3772 12.3771L6.29425 18.4601"
      stroke="white"
      stroke-width="2.5"
      stroke-miterlimit="10"
      stroke-linecap="round"
      stroke-linejoin="round"
    />
    <path
      d="M8.8609 22.9257C4.97703 19.0418 4.97703 12.7447 8.8609 8.86091C12.7448 4.97703 19.0418 4.97703 22.9256 8.86091C26.8095 12.7447 26.8095 19.0418 22.9256 22.9257C19.0418 26.8095 12.7448 26.8095 8.8609 22.9257Z"
      stroke="white"
      stroke-width="2.5"
      stroke-miterlimit="10"
      stroke-linecap="round"
      stroke-linejoin="round"
    />
  </svg>