 <svg
    width="32"
    height="32"
    viewBox="0 0 32 32"
    fill="none"
    xmlns="http://www.w3.org/2000/svg"
  >
    <path
      d="M16 32C24.8366 32 32 24.8366 32 16C32 7.16344 24.8366 0 16 0C7.16344 0 0 7.16344 0 16C0 24.8366 7.16344 32 16 32Z"
      fill="#FCA326"
    />
    <path
      d="M23.6154 15.8554C23.6154 13.6867 23.519 13.5904 21.3744 13.5181C21.3744 12.5542 21.3744 11.3494 21.3503 10.6024C21.2298 7.75904 19.4708 6.04819 16.6515 6C16.1696 6 15.6876 6 15.1816 6C12.0491 6.0241 10.2178 7.92771 10.266 11.0361V11.0602V13.5422C10.0973 13.5422 9.92861 13.5422 9.73584 13.5422C8.33825 13.5422 8.025 13.8795 8.025 15.2771C8.025 18.241 8.04909 21.2048 8.0009 24.1687C7.9768 25.3012 8.43464 25.8313 9.56717 25.8313C13.7599 25.8313 17.9286 25.8313 22.1214 25.8313C23.1816 25.8313 23.6636 25.3494 23.6395 24.2651C23.5913 21.4699 23.6154 18.6747 23.6154 15.8554ZM16.6756 20.1687V21.5663C16.6756 22.0482 16.2901 22.4096 15.8322 22.4096C15.3744 22.4096 14.9648 22.0241 14.9648 21.5663V20.1687C14.266 19.8554 13.7599 19.1325 13.7599 18.2892C13.7599 17.1566 14.6756 16.241 15.8081 16.241C16.9407 16.241 17.8563 17.1566 17.8563 18.2892C17.8804 19.1325 17.3744 19.8554 16.6756 20.1687ZM18.7479 13.5181C16.7961 13.5181 14.8684 13.5422 12.9166 13.5422V11.494C12.9407 11.3494 12.9407 11.2048 12.9407 11.0843C12.9166 9.3253 13.9045 8.60241 16.0732 8.6506C17.8563 8.6747 18.7479 9.51807 18.7479 11.2048C18.7479 11.9759 18.7479 12.747 18.7479 13.5181Z"
      fill="white"
    />
  </svg>