<svg width="9" height="80" viewBox="0 0 9 80" fill="none" xmlns="http://www.w3.org/2000/svg">
<path d="M3.25 79C3.25 79.4142 3.58578 79.75 4 79.75C4.41421 79.75 4.75 79.4142 4.75 79L3.25 79ZM4.75 7C4.75 6.58578 4.41421 6.25 4 6.25C3.58579 6.25 3.25 6.58578 3.25 7L4.75 7ZM4.75 79L4.75 7L3.25 7L3.25 79L4.75 79Z" fill="#F9F7FF"/>
<path d="M0.154297 4C0.154297 1.79086 1.94516 0 4.1543 0C6.36344 0 8.1543 1.79086 8.1543 4V10C8.1543 12.2091 6.36344 14 4.1543 14C1.94516 14 0.154297 12.2091 0.154297 10V4Z" fill="#F9F7FF"/>
</svg>
