<svg fill="none" height="64" viewBox="0 0 64 64" width="64" xmlns="http://www.w3.org/2000/svg"><path d="m16.4991 19.4816c2.4955 0 4.5184-2.0229 4.5184-4.5184 0-2.4954-2.0229-4.5184-4.5184-4.5184-2.4954 0-4.5184 2.023-4.5184 4.5184 0 2.4955 2.023 4.5184 4.5184 4.5184z" fill="#ac7fff"/><path d="m16.4991 32.1728c3.6296.0054 7.1489-1.2476 9.9584-3.5456-1.2405-1.4207-2.7707-2.5595-4.4878-3.3397-1.7171-.7803-3.5813-1.184-5.4674-1.184-1.886 0-3.7503.4037-5.4674 1.184-1.71708.7802-3.24729 1.919-4.48778 3.3397 2.80758 2.297 6.32448 3.55 9.95198 3.5456z" fill="#ac7fff"/><path d="m47.5135 49.9456c2.4955 0 4.5184-2.023 4.5184-4.5184 0-2.4955-2.0229-4.5184-4.5184-4.5184-2.4954 0-4.5184 2.0229-4.5184 4.5184 0 2.4954 2.023 4.5184 4.5184 4.5184z" fill="#fca121"/><path d="m47.5136 62.6368c3.6275.0044 7.1444-1.2486 9.952-3.5456-1.2417-1.4189-2.7723-2.5559-4.4892-3.335-1.717-.779-3.5806-1.182-5.466-1.182s-3.7491.403-5.466 1.182c-1.717.7791-3.2476 1.9161-4.4892 3.335 2.81 2.297 6.3289 3.5499 9.9584 3.5456z" fill="#fca121"/><g fill="#380d75"><path d="m52.0193 23.6032c-.3395 0-.6651-.1348-.9051-.3749-.2401-.24-.3749-.5656-.3749-.9051v-9.1584h-9.1392c-.3395 0-.6651-.1348-.9051-.3749-.2401-.24-.3749-.5656-.3749-.9051 0-.3394.1348-.665.3749-.9051.24-.24.5656-.3749.9051-.3749h10.4192c.3394 0 .665.1349.9051.3749.24.2401.3749.5657.3749.9051v10.4384c0 .3395-.1349.6651-.3749.9051-.2401.2401-.5657.3749-.9051.3749z"/><path d="m22.9888 53.3632h-11.1744c-.3395 0-.665-.1349-.9051-.3749-.24-.24-.3749-.5656-.3749-.9051v-10.4832c0-.3395.1349-.665.3749-.9051.2401-.24.5656-.3749.9051-.3749s.6651.1349.9051.3749c.2401.2401.3749.5656.3749.9051v9.2032h9.8944c.3395 0 .6651.1349.9051.3749.2401.2401.3749.5656.3749.9051s-.1348.6651-.3749.9051c-.24.24-.5656.3749-.9051.3749z"/><path d="m16.4864 33.0624c-3.984-.0021-7.83259-1.4456-10.83522-4.064-.14891-.1327-.26807-.2953-.34967-.4773-.08159-.182-.12378-.3792-.12378-.5787 0-.1994.04219-.3966.12378-.5786.0816-.182.20076-.3447.34967-.4774 3.01887-2.6318 6.89312-4.0738 10.89812-4.0561s7.8664 1.4937 10.8619 4.1521c.1365.12.2459.2676.321.4332.075.1655.114.3451.1142.5268-.0012.1807-.0405.3591-.1155.5234-.075.1644-.184.311-.3197.4302-3.0075 2.6815-6.8955 4.1643-10.9248 4.1664zm-8.03842-5.12c2.35062 1.666 5.16052 2.5607 8.04162 2.5607 2.881 0 5.691-.8947 8.0416-2.5607-2.3506-1.6659-5.1606-2.5607-8.0416-2.5607-2.8811 0-5.691.8948-8.04162 2.5607z"/><path d="m16.4865 21.12c-1.2139 0-2.4006-.3599-3.4099-1.0344-1.0093-.6744-1.796-1.6329-2.2605-2.7544-.4646-1.1215-.5861-2.3556-.3493-3.5462.2368-1.1905.8214-2.2842 1.6797-3.1425.8584-.85838 1.952-1.44293 3.1426-1.67975s2.4246-.11527 3.5461.34927 2.0801 1.25118 2.7545 2.26058c.6744 1.0093 1.0344 2.1959 1.0344 3.4098-.0017 1.6273-.6489 3.1874-1.7996 4.3381-1.1506 1.1506-2.7107 1.7978-4.338 1.7995zm0-9.7152c-.7076 0-1.3993.2098-1.9876.603-.5884.3931-1.0469.9518-1.3177 1.6055-.2708.6538-.3416 1.3731-.2036 2.0671.1381.694.4788 1.3314.9791 1.8318.5004.5003 1.1378.841 1.8318.9791.694.138 1.4133.0672 2.0671-.2036.6537-.2708 1.2124-.7293 1.6055-1.3177.3932-.5883.603-1.28.603-1.9876.0017-.4712-.0896-.9381-.2685-1.374-.179-.4359-.4422-.8322-.7745-1.1663-.3322-.334-.7272-.5993-1.1621-.7806s-.9013-.275-1.3725-.2759z"/><path d="m3.43677 25.6512c-.22337-.0013-.44251-.0611-.63562-.1734-.19312-.1123-.35349-.2731-.46518-.4666-1.494704-2.5023-2.2992947-5.3561-2.33177242-8.2707-.03247768-2.9145.70831842-5.7856 2.14689242-8.32061 1.43858-2.53499 3.52351-4.64328 6.04231-6.11001 2.5188-1.466735 5.3814-2.2394759 8.2962-2.2394759 2.9147 0 5.7773.7727409 8.2961 2.2394759 2.5189 1.46673 4.6038 3.57502 6.0424 6.11001 1.4385 2.53501 2.1793 5.40611 2.1469 8.32061-.0325 2.9146-.8371 5.7684-2.3318 8.2707-.1749.292-.4585.5025-.7886.5853-.33.0828-.6795.0311-.9714-.1437-.292-.1748-.5025-.4585-.5853-.7885-.0828-.3301-.0312-.6795.1437-.9715 1.2628-2.1137 1.9427-4.5245 1.9703-6.9866.0276-2.462-.5981-4.8874-1.8132-7.02894-1.2152-2.14151-2.9764-3.92256-5.1041-5.16164-2.1278-1.23908-4.546-1.89188-7.0082-1.89188-2.4623 0-4.8805.6528-7.00824 1.89188-2.12775 1.23908-3.88895 3.02013-5.1041 5.16164-1.21515 2.14154-1.84081 4.56694-1.81321 7.02894.0276 2.4621.70747 4.8729 1.97032 6.9866.11177.1936.17091.413.17153.6365.00063.2235-.05728.4433-.16796.6374-.11068.1942-.27027.356-.4629.4694-.19263.1133-.41158.1743-.63507.1767z"/><path d="m47.5136 63.8656c-4.0347.002-7.9294-1.4785-10.944-4.16-.1362-.1201-.2453-.2678-.32-.4334-.0747-.1655-.1134-.345-.1134-.5266s.0387-.3611.1134-.5266c.0747-.1656.1838-.3133.32-.4334 3.0154-2.6802 6.9096-4.1607 10.944-4.1607s7.9285 1.4805 10.944 4.1607c.1362.1201.2453.2678.32.4334.0747.1655.1134.345.1134.5266s-.0387.3611-.1134.5266c-.0747.1656-.1838.3133-.32.4334-3.0152 2.6805-6.9096 4.1608-10.944 4.16zm-8.0448-5.12c2.3506 1.6659 5.1605 2.5607 8.0416 2.5607s5.691-.8948 8.0416-2.5607c-2.3524-1.6615-5.1617-2.5535-8.0416-2.5535-2.88 0-5.6892.892-8.0416 2.5535z"/><path d="m47.5136 51.904c-1.2139 0-2.4006-.36-3.4099-1.0344s-1.796-1.633-2.2605-2.7545c-.4646-1.1215-.5861-2.3555-.3493-3.5461s.8214-2.2842 1.6797-3.1426c.8584-.8583 1.952-1.4429 3.1426-1.6797s2.4246-.1153 3.5461.3493c1.1215.4645 2.0801 1.2512 2.7545 2.2605s1.0344 2.196 1.0344 3.4099c-.0017 1.6273-.6489 3.1874-1.7996 4.3381-1.1506 1.1506-2.7107 1.7978-4.338 1.7995zm0-9.7088c-.7079 0-1.3998.21-1.9883.6034s-1.047.9525-1.3176 1.6066-.3411 1.3737-.2025 2.0679.4799 1.3316.9809 1.8317 1.139.8403 1.8335.9776c.6944.1373 1.4139.0656 2.0675-.2062.6536-.2717 1.2119-.7313 1.6043-1.3205.3923-.5891.601-1.2815.5998-1.9893-.0017-.9477-.3794-1.8561-1.0501-2.5256-.6708-.6696-1.5798-1.0456-2.5275-1.0456z"/><path d="m34.4576 56.4608c-.2234-.0013-.4425-.0611-.6356-.1734-.1932-.1123-.3535-.2731-.4652-.4666-1.4974-2.5031-2.3042-5.3585-2.3381-8.2751-.0339-2.9165.7062-5.79 2.145-8.3272 1.4387-2.5372 3.5246-4.6475 6.045-6.1157 2.5203-1.4681 5.3849-2.2417 8.3017-2.2417s5.7814.7736 8.3017 2.2417c2.5203 1.4682 4.6062 3.5785 6.045 6.1157 1.4387 2.5372 2.1789 5.4107 2.145 8.3272-.0339 2.9166-.8407 5.772-2.3381 8.2751-.0716.1664-.1778.3158-.3114.4381-.1336.1224-.2917.215-.4638.2717s-.3543.0762-.5345.0572c-.1802-.0189-.3543-.0759-.5108-.1672s-.2919-.2147-.3972-.3622c-.1052-.1475-.178-.3156-.2134-.4933s-.0327-.3609.008-.5375c.0406-.1766.1183-.3425.2279-.4868 1.2616-2.1138 1.9404-4.5243 1.9672-6.9859.0267-2.4615-.5995-4.8862-1.8148-7.027-1.2154-2.1408-2.9765-3.9211-5.1039-5.1597-2.1275-1.2386-4.5452-1.8911-7.0069-1.8911s-4.8795.6525-7.0069 1.8911-3.8885 3.0189-5.1039 5.1597-1.8416 4.5655-1.8148 7.027c.0268 2.4616.7055 4.8721 1.9672 6.9859.1742.2904.2262.638.1446.9667s-.2901.6116-.5798.7869c-.2007.1139-.4285.1714-.6592.1664z"/></g></svg>