 <svg
  width="64"
  height="64"
  viewBox="0 0 64 64"
  fill="none"
  xmlns="http://www.w3.org/2000/svg"
>
  <path
    d="M41.5553 32.64L38.8929 29.952C38.5965 29.6561 38.1949 29.49 37.7761 29.49C37.3573 29.49 36.9557 29.6561 36.6593 29.952L28.5313 38.08L25.4337 34.976C25.1373 34.6801 24.7357 34.514 24.3169 34.514C23.8981 34.514 23.4965 34.6801 23.2001 34.976L20.5377 37.6384C20.2418 37.9348 20.0757 38.3364 20.0757 38.7552C20.0757 39.174 20.2418 39.5756 20.5377 39.872L26.7457 46.08C27.2239 46.5471 27.866 46.8087 28.5345 46.8087C29.203 46.8087 29.845 46.5471 30.3233 46.08L41.5553 34.8416C41.8415 34.5466 42.0016 34.1518 42.0016 33.7408C42.0016 33.3298 41.8415 32.935 41.5553 32.64Z"
    fill="#38F2AF"
  />
  <path
    d="M53.1778 59.52H6.08018C5.00449 59.5179 3.94862 59.2304 3.02032 58.6869C2.09202 58.1434 1.32453 57.3634 0.796174 56.4264C0.267814 55.4894 -0.00249735 54.429 0.0128239 53.3534C0.0281452 52.2778 0.328551 51.2255 0.883385 50.304L24.8514 10.624C25.0262 10.3329 25.3095 10.1232 25.639 10.0409C25.9685 9.95872 26.3171 10.0108 26.6082 10.1856C26.8993 10.3604 27.109 10.6437 27.1912 10.9732C27.2734 11.3027 27.2214 11.6513 27.0466 11.9424L3.07219 51.6416C2.75324 52.1743 2.58117 52.7821 2.57349 53.403C2.56582 54.0238 2.72282 54.6357 3.0285 55.1761C3.33418 55.7166 3.77762 56.1664 4.31368 56.4798C4.84974 56.7931 5.45926 56.9588 6.08018 56.96H53.1778C53.5173 56.96 53.8428 57.0948 54.0829 57.3349C54.3229 57.5749 54.4578 57.9005 54.4578 58.24C54.4578 58.5795 54.3229 58.905 54.0829 59.1451C53.8428 59.3851 53.5173 59.52 53.1778 59.52Z"
    fill="#380D75"
  />
  <path
    d="M57.92 59.52C57.5805 59.52 57.2549 59.3852 57.0149 59.1451C56.7748 58.9051 56.64 58.5795 56.64 58.24C56.64 57.9005 56.7748 57.575 57.0149 57.3349C57.2549 57.0949 57.5805 56.96 57.92 56.96C58.5428 56.9602 59.1545 56.7948 59.6924 56.4808C60.2303 56.1668 60.6751 55.7155 60.9812 55.173C61.2872 54.6306 61.4436 54.0165 61.4343 53.3937C61.4249 52.7709 61.2502 52.1618 60.928 51.6288L35.008 8.72322C34.6953 8.20515 34.254 7.77665 33.727 7.4792C33.2 7.18176 32.6051 7.02547 32 7.02547C31.3948 7.02547 30.8 7.18176 30.273 7.4792C29.746 7.77665 29.3047 8.20515 28.992 8.72322C28.9112 8.8781 28.7995 9.0148 28.6639 9.12491C28.5283 9.23502 28.3716 9.3162 28.2034 9.36345C28.0352 9.4107 27.8591 9.42303 27.686 9.39967C27.5129 9.37631 27.3464 9.31776 27.1967 9.22762C27.0471 9.13748 26.9175 9.01767 26.8159 8.87555C26.7143 8.73344 26.6428 8.57203 26.606 8.40127C26.5691 8.23051 26.5676 8.05401 26.6015 7.88264C26.6354 7.71127 26.7041 7.54866 26.8032 7.40482C27.3429 6.50903 28.105 5.76797 29.0156 5.25354C29.9261 4.73911 30.9542 4.46878 32 4.46878C33.0458 4.46878 34.0739 4.73911 34.9844 5.25354C35.895 5.76797 36.6571 6.50903 37.1968 7.40482L63.1168 50.3168C63.6684 51.2381 63.9661 52.289 63.9798 53.3627C63.9935 54.4364 63.7225 55.4946 63.1946 56.4296C62.6666 57.3646 61.9004 58.1431 60.9739 58.6859C60.0475 59.2287 58.9938 59.5165 57.92 59.52Z"
    fill="#380D75"
  />
  <path
    d="M28.5313 48.096C28.0319 48.0974 27.5372 47.9996 27.0758 47.8085C26.6144 47.6173 26.1955 47.3366 25.8433 46.9824L19.6353 40.7744C19.1007 40.2371 18.8005 39.51 18.8005 38.752C18.8005 37.994 19.1007 37.2669 19.6353 36.7296L22.2913 34.0736C22.8286 33.539 23.5557 33.2388 24.3137 33.2388C25.0717 33.2388 25.7988 33.539 26.3361 34.0736L28.5313 36.2688L35.7569 29.0496C36.0221 28.7833 36.3373 28.5721 36.6843 28.4279C37.0314 28.2837 37.4035 28.2095 37.7793 28.2095C38.1551 28.2095 38.5272 28.2837 38.8743 28.4279C39.2213 28.5721 39.5365 28.7833 39.8017 29.0496L42.4577 31.7056C42.9939 32.2421 43.2951 32.9695 43.2951 33.728C43.2951 34.4865 42.9939 35.2139 42.4577 35.7504L31.2257 46.9824C30.8724 47.3367 30.4524 47.6176 29.9899 47.8087C29.5275 47.9999 29.0317 48.0975 28.5313 48.096ZM24.3201 35.7952C24.2406 35.796 24.1647 35.8282 24.1089 35.8848L21.4529 38.5408C21.3974 38.5971 21.3663 38.6729 21.3663 38.752C21.3663 38.831 21.3974 38.9069 21.4529 38.9632L27.6545 45.1712C27.8926 45.3981 28.2088 45.5247 28.5377 45.5247C28.8666 45.5247 29.1829 45.3981 29.4209 45.1712L40.6465 33.92C40.6754 33.8931 40.6984 33.8603 40.7138 33.8239C40.7292 33.7875 40.7368 33.7483 40.7361 33.7088C40.7373 33.6692 40.7298 33.6299 40.7144 33.5934C40.6989 33.557 40.6758 33.5243 40.6465 33.4976L37.9905 30.8352C37.9342 30.7797 37.8584 30.7486 37.7793 30.7486C37.7003 30.7486 37.6244 30.7797 37.5681 30.8352L29.4401 38.9824C29.1953 39.2137 28.8713 39.3426 28.5345 39.3426C28.1977 39.3426 27.8737 39.2137 27.6289 38.9824L24.5249 35.8848C24.4707 35.8297 24.3974 35.7976 24.3201 35.7952Z"
    fill="#380D75"
  />
</svg>