<svg width="80" height="80" viewBox="0 0 80 80" fill="none" xmlns="http://www.w3.org/2000/svg">
<g clip-path="url(#clip0)">
<path d="M35.368 38.208C34.9543 38.8657 34.6926 39.6075 34.6019 40.3792C34.5112 41.1509 34.5937 41.9331 34.8436 42.6689C35.0934 43.4046 35.5043 44.0754 36.0462 44.6323C36.588 45.1892 37.2473 45.6181 37.976 45.888L64.712 56.688L43.432 37.24C42.873 36.6989 42.2003 36.2892 41.4629 36.0409C40.7255 35.7926 39.9421 35.7119 39.1696 35.8046C38.3971 35.8974 37.655 36.1612 36.9974 36.577C36.3397 36.9927 35.7831 37.5499 35.368 38.208Z" fill="#AC7FFF"/>
<path d="M67.56 40.4561H59.496C59.0717 40.4561 58.6647 40.2875 58.3646 39.9875C58.0646 39.6874 57.896 39.2804 57.896 38.8561C57.896 38.4318 58.0646 38.0248 58.3646 37.7247C58.6647 37.4247 59.0717 37.2561 59.496 37.2561H67.56C67.9843 37.2561 68.3913 37.4247 68.6914 37.7247C68.9914 38.0248 69.16 38.4318 69.16 38.8561C69.16 39.2804 68.9914 39.6874 68.6914 39.9875C68.3913 40.2875 67.9843 40.4561 67.56 40.4561Z" fill="#380D75"/>
<path d="M20.504 40.4561H12.44C12.0156 40.4561 11.6087 40.2875 11.3086 39.9875C11.0086 39.6874 10.84 39.2804 10.84 38.8561C10.84 38.4318 11.0086 38.0248 11.3086 37.7247C11.6087 37.4247 12.0156 37.2561 12.44 37.2561H20.504C20.9283 37.2561 21.3353 37.4247 21.6354 37.7247C21.9354 38.0248 22.104 38.4318 22.104 38.8561C22.104 39.2804 21.9354 39.6874 21.6354 39.9875C21.3353 40.2875 20.9283 40.4561 20.504 40.4561Z" fill="#380D75"/>
<path d="M40 20.96C39.5756 20.96 39.1687 20.7915 38.8686 20.4914C38.5686 20.1914 38.4 19.7844 38.4 19.36V11.296C38.4 10.8717 38.5686 10.4647 38.8686 10.1647C39.1687 9.86462 39.5756 9.69604 40 9.69604C40.4243 9.69604 40.8313 9.86462 41.1314 10.1647C41.4314 10.4647 41.6 10.8717 41.6 11.296V19.36C41.6 19.7844 41.4314 20.1914 41.1314 20.4914C40.8313 20.7915 40.4243 20.96 40 20.96Z" fill="#380D75"/>
<path d="M24 27.304C23.5763 27.3022 23.1707 27.1324 22.872 26.832L17.168 21.136C16.8678 20.8357 16.6991 20.4285 16.6991 20.004C16.6991 19.5794 16.8678 19.1722 17.168 18.872C17.4682 18.5717 17.8754 18.4031 18.3 18.4031C18.7246 18.4031 19.1318 18.5717 19.432 18.872L25.136 24.576C25.3589 24.8002 25.5104 25.0854 25.5713 25.3956C25.6322 25.7059 25.5999 26.0272 25.4783 26.319C25.3568 26.6109 25.1515 26.8602 24.8884 27.0355C24.6253 27.2108 24.3162 27.3042 24 27.304Z" fill="#380D75"/>
<path d="M56 27.304C55.6838 27.3042 55.3747 27.2108 55.1116 27.0355C54.8485 26.8602 54.6432 26.6109 54.5217 26.319C54.4001 26.0272 54.3678 25.7059 54.4287 25.3956C54.4896 25.0854 54.6411 24.8002 54.864 24.576L60.568 18.872C60.7166 18.7233 60.8931 18.6054 61.0874 18.5249C61.2816 18.4445 61.4898 18.4031 61.7 18.4031C61.9102 18.4031 62.1184 18.4445 62.3126 18.5249C62.5069 18.6054 62.6833 18.7233 62.832 18.872C62.9806 19.0206 63.0986 19.1971 63.179 19.3913C63.2595 19.5856 63.3009 19.7937 63.3009 20.004C63.3009 20.2142 63.2595 20.4224 63.179 20.6166C63.0986 20.8108 62.9806 20.9873 62.832 21.136L57.128 26.832C56.8293 27.1324 56.4237 27.3022 56 27.304Z" fill="#380D75"/>
<path d="M18.888 58.816C18.5702 58.8179 18.259 58.7251 17.9942 58.5494C17.7294 58.3737 17.5229 58.1231 17.401 57.8296C17.2791 57.5361 17.2474 57.213 17.31 56.9014C17.3725 56.5898 17.5264 56.3038 17.752 56.08L23.456 50.4C23.7562 50.0998 24.1634 49.9312 24.588 49.9312C25.0126 49.9312 25.4198 50.0998 25.72 50.4C26.0202 50.7003 26.1889 51.1075 26.1889 51.532C26.1889 51.9566 26.0202 52.3638 25.72 52.664L20 58.344C19.7052 58.6406 19.3061 58.8101 18.888 58.816Z" fill="#380D75"/>
<path d="M65.712 58.264C65.5231 58.2645 65.3358 58.2292 65.16 58.16L38.088 48.248C37.13 47.9202 36.2569 47.3832 35.5321 46.6761C34.8073 45.9691 34.249 45.1095 33.8975 44.1599C33.5461 43.2103 33.4104 42.1944 33.5003 41.1858C33.5902 40.1772 33.9034 39.2013 34.4172 38.3288C34.931 37.4563 35.6325 36.709 36.471 36.1412C37.3094 35.5735 38.2636 35.1994 39.2645 35.0461C40.2654 34.8929 41.2879 34.9643 42.2578 35.2552C43.2277 35.5461 44.1207 36.0492 44.872 36.728L66.752 55.448C67.0376 55.6914 67.2285 56.0275 67.2914 56.3975C67.3543 56.7675 67.2851 57.1478 67.096 57.472C66.9547 57.7135 66.7525 57.9137 66.5097 58.0527C66.2668 58.1917 65.9918 58.2645 65.712 58.264ZM40.296 38.16C40.1095 38.1483 39.9225 38.1483 39.736 38.16C38.9308 38.2824 38.1903 38.6724 37.6339 39.2672C37.0776 39.862 36.7378 40.6269 36.6694 41.4385C36.601 42.25 36.808 43.061 37.2569 43.7405C37.7059 44.4201 38.3706 44.9285 39.144 45.184L57.928 52.064L42.728 39.088C42.0578 38.4921 41.1928 38.162 40.296 38.16Z" fill="#380D75"/>
<path d="M48.48 79.064C48.2699 79.0871 48.0573 79.0686 47.8543 79.0096C47.6513 78.9505 47.462 78.8521 47.2971 78.7198C47.1322 78.5876 46.9949 78.4242 46.8931 78.2389C46.7914 78.0536 46.7271 77.8501 46.704 77.64C46.6809 77.4299 46.6994 77.2173 46.7584 77.0143C46.8175 76.8113 46.9159 76.622 47.0482 76.4571C47.1804 76.2922 47.3438 76.1549 47.5291 76.0531C47.7144 75.9514 47.9179 75.8871 48.128 75.864C56.9296 73.8403 64.6797 68.6506 69.9029 61.283C75.1261 53.9154 77.4577 44.8843 76.4537 35.909C75.4498 26.9337 71.1804 18.641 64.4584 12.6095C57.7364 6.57803 49.0312 3.22901 40 3.2C39.5756 3.2 39.1687 3.03143 38.8686 2.73137C38.5686 2.43132 38.4 2.02435 38.4 1.6C38.4 1.17566 38.5686 0.768691 38.8686 0.468633C39.1687 0.168575 39.5756 3.96281e-06 40 3.96281e-06C49.8452 -0.00437605 59.3462 3.62224 66.6844 10.1857C74.0226 16.7491 78.6824 25.7883 79.7721 35.573C80.8617 45.3577 78.3045 55.2006 72.5899 63.2176C66.8754 71.2346 58.405 76.8624 48.8 79.024C48.6947 79.0468 48.5876 79.0601 48.48 79.064Z" fill="#380D75"/>
<path d="M40 79.9999C29.9559 80.0063 20.277 76.2339 12.8865 69.432C5.49598 62.6302 0.934898 53.297 0.109538 43.2868C-0.715822 33.2767 2.25496 23.3224 8.43156 15.402C14.6082 7.4815 23.5385 2.17464 33.448 0.53588C33.6581 0.501736 33.8729 0.509312 34.0801 0.558175C34.2873 0.607038 34.4828 0.696231 34.6555 0.820661C34.8282 0.945092 34.9748 1.10232 35.0867 1.28338C35.1987 1.46443 35.2739 1.66576 35.308 1.87588C35.3421 2.08599 35.3346 2.30078 35.2857 2.50796C35.2368 2.71515 35.1476 2.91069 35.0232 3.0834C34.8988 3.25612 34.7416 3.40264 34.5605 3.51459C34.3794 3.62654 34.1781 3.70174 33.968 3.73588C24.9043 5.29898 16.7545 10.1995 11.1239 17.4721C5.49327 24.7446 2.79012 33.8621 3.54687 43.0284C4.30362 52.1947 8.46542 60.7454 15.2125 66.9961C21.9595 73.2468 30.8027 76.7444 40 76.7999C40.4243 76.7999 40.8313 76.9685 41.1314 77.2685C41.4314 77.5686 41.6 77.9755 41.6 78.3999C41.6 78.8242 41.4314 79.2312 41.1314 79.5312C40.8313 79.8313 40.4243 79.9999 40 79.9999Z" fill="#380D75"/>
</g>
<defs>
<clipPath id="clip0">
<rect width="80" height="80" fill="white"/>
</clipPath>
</defs>
</svg>
