<?xml version="1.0" encoding="utf-8"?>
<!-- Generator: Adobe Illustrator 23.0.4, SVG Export Plug-In . SVG Version: 6.00 Build 0)  -->
<svg version="1.1" id="Layer_1" xmlns="http://www.w3.org/2000/svg" xmlns:xlink="http://www.w3.org/1999/xlink" x="0px" y="0px"
	 viewBox="0 0 80 80" style="enable-background:new 0 0 80 80;" xml:space="preserve">
<style type="text/css">
	.st0{fill:#FCF2EB;stroke:#333333;stroke-width:1.4667;stroke-linecap:round;stroke-linejoin:round;stroke-miterlimit:10;}
	.st1{fill:#333333;stroke:#333333;stroke-width:1.4667;stroke-linecap:round;stroke-linejoin:round;stroke-miterlimit:10;}
	.st2{opacity:0.1;fill:none;stroke:#333333;stroke-width:1.4667;stroke-linecap:round;stroke-linejoin:round;stroke-miterlimit:10;}
	.st3{opacity:0.1;fill:none;stroke:#ED6265;stroke-width:1.4667;stroke-linecap:round;stroke-linejoin:round;stroke-miterlimit:10;}
	.st4{opacity:0.1;fill:none;stroke:#A3CC6C;stroke-width:1.4667;stroke-linecap:round;stroke-linejoin:round;stroke-miterlimit:10;}
	.st5{opacity:0.1;fill:none;stroke:#FFFFFF;stroke-width:1.4667;stroke-linecap:round;stroke-linejoin:round;stroke-miterlimit:10;}
	.st6{fill:#CCCCCC;stroke:#333333;stroke-width:1.4667;stroke-linecap:round;stroke-linejoin:round;stroke-miterlimit:10;}
	.st7{fill:none;stroke:#FFFFFF;stroke-width:1.4667;stroke-linecap:round;stroke-linejoin:round;stroke-miterlimit:10;}
</style>
<path class="st0" d="M71.5,58.3H8.5c-2.4,0-4.4-2-4.4-4.4V11.4C4.1,9,6,7,8.5,7h63.1c2.4,0,4.4,2,4.4,4.4v42.5
	C75.9,56.4,74,58.3,71.5,58.3z"/>
<path class="st1" d="M67.9,48.1H12.1V15.8c0-0.8,0.7-1.5,1.5-1.5h52.8c0.8,0,1.5,0.7,1.5,1.5V48.1z"/>
<g>
	<line class="st2" x1="32.7" y1="25.3" x2="47.3" y2="25.3"/>
	<line class="st3" x1="47.3" y1="19.5" x2="62" y2="19.5"/>
	<line class="st4" x1="31.2" y1="19.5" x2="42.9" y2="19.5"/>
	<line class="st5" x1="18.2" y1="19.5" x2="27" y2="19.5"/>
	<line class="st4" x1="47.3" y1="42.9" x2="53.2" y2="42.9"/>
	<line class="st5" x1="57.6" y1="42.9" x2="62" y2="42.9"/>
	<line class="st3" x1="31.2" y1="42.9" x2="42.9" y2="42.9"/>
	<line class="st4" x1="18.2" y1="42.9" x2="27" y2="42.9"/>
	<line class="st3" x1="57.6" y1="25.3" x2="38.5" y2="25.3"/>
	<line class="st3" x1="18.2" y1="25.3" x2="34.3" y2="25.3"/>
	<line class="st5" x1="37.1" y1="37.1" x2="18" y2="37.1"/>
	<line class="st4" x1="18" y1="31.2" x2="62" y2="31.2"/>
</g>
<path class="st6" d="M71.5,58.3H8.5c-2.4,0-4.4-2-4.4-4.4v-5.9h71.9v5.9C75.9,56.4,74,58.3,71.5,58.3z"/>
<rect x="32.7" y="58.3" class="st6" width="14.7" height="10.3"/>
<path class="st6" d="M54.7,73H25.3v-1.5c0-1.6,1.3-2.9,2.9-2.9h23.5c1.6,0,2.9,1.3,2.9,2.9V73z"/>
<polyline class="st7" points="28.3,32.7 32.3,32.7 36,38.8 42.2,23.6 45.2,32.7 51.7,32.7 "/>
</svg>
