<?xml version="1.0" encoding="utf-8"?>
<!-- Generator: Adobe Illustrator 23.0.6, SVG Export Plug-In . SVG Version: 6.00 Build 0)  -->
<svg version="1.1" id="Layer_1" xmlns="http://www.w3.org/2000/svg" xmlns:xlink="http://www.w3.org/1999/xlink" x="0px" y="0px"
	 viewBox="0 0 160 160" enable-background="new 0 0 160 160" xml:space="preserve">
<circle fill="#FFFFFF" cx="80" cy="80" r="80"/>
<path fill="#828282" d="M80,0C35.9,0,0,35.9,0,80s35.9,80,80,80s80-35.9,80-80S124.1,0,80,0 M134.4,127.1c-0.2-0.2-0.3-0.5-0.6-0.7
	l-7.6-7.6c-1.6-1.6-4.1-1.6-5.7,0s-1.6,4.1,0,5.7l7.6,7.6c0.3,0.3,0.5,0.4,0.8,0.6c-12,11.1-27.7,18.3-45,19.2v-10.3
	c0-2.2-1.8-4-4-4s-4,1.8-4,4v10.3c-17.3-1-33.1-8.1-45-19.2c0.3-0.2,0.6-0.4,0.8-0.6l7.6-7.6c1.6-1.6,1.6-4.1,0-5.7
	c-1.6-1.6-4.1-1.6-5.7,0l-7.6,7.6c-0.2,0.2-0.4,0.5-0.5,0.7C15.1,115,8.6,99.3,8.1,82.2h10.6c2.2,0,4-1.8,4-4s-1.8-4-4-4H8.3
	c1.3-16.6,8.3-31.6,19-43.1l6.6,6.6c0.8,0.8,1.8,1.2,2.8,1.2c1,0,2-0.4,2.8-1.2c1.6-1.6,1.6-4.1,0-5.7L33,25.5
	C44.7,15.4,59.6,9,76,8.1v8.7c0,2.2,1.8,4,4,4s4-1.8,4-4V8.1c16.4,0.9,31.3,7.3,43,17.4l-6.4,6.4c-1.6,1.6-1.6,4.1,0,5.7
	c0.8,0.8,1.8,1.2,2.8,1.2s2-0.4,2.8-1.2l6.6-6.6c10.7,11.5,17.6,26.5,19,43.1h-10.4c-2.2,0-4,1.8-4,4s1.8,4,4,4h10.6
	C151.4,99.3,144.9,115,134.4,127.1"/>
<path fill="#F9723A" d="M109.7,101L87,80.8c0-0.3,0.1-0.5,0.1-0.8c0-2.4-1.2-4.5-3-5.7V51c0-2.2-1.8-4-4-4s-4,1.8-4,4v23.3
	c-1.8,1.3-3,3.4-3,5.7c0,3.9,3.1,7,7,7c0.6,0,1.1-0.1,1.6-0.2l22.7,20.2c0.8,0.7,1.7,1,2.7,1c1.1,0,2.2-0.5,3-1.3
	C111.5,105,111.3,102.5,109.7,101"/>
</svg>
