<svg xmlns="http://www.w3.org/2000/svg" viewBox="0 0 160 160" enable-background="new 0 0 160 160"><circle cx="80" cy="80" r="80" fill="#fff"/><path d="m80 0c-44.11 0-80 35.888-80 80s35.888 80 80 80 80-35.888 80-80-35.888-80-80-80m54.4 127.09c-.156-.247-.335-.484-.551-.7l-7.625-7.626c-1.561-1.562-4.094-1.562-5.656 0-1.562 1.562-1.562 4.094 0 5.656l7.625 7.626c.253.253.537.45.832.621-11.951 11.132-27.673 18.26-45.02 19.215v-10.261c0-2.209-1.791-4-4-4s-4 1.791-4 4v10.261c-17.347-.955-33.07-8.08-45.02-19.215.295-.171.58-.368.833-.621l7.625-7.626c1.562-1.562 1.562-4.095 0-5.656-1.562-1.562-4.095-1.562-5.657 0l-7.625 7.626c-.215.216-.394.452-.55.7-10.504-12.12-17.03-27.755-17.549-44.888h10.579c2.209 0 4-1.791 4-4s-1.791-4-4-4h-10.381c1.329-16.582 8.287-31.594 18.975-43.12l6.551 6.552c.781.781 1.805 1.172 2.829 1.172 1.023 0 2.047-.391 2.828-1.172 1.562-1.562 1.562-4.094 0-5.656l-6.448-6.449c11.681-10.1 26.618-16.515 43.01-17.417v8.721c0 2.209 1.791 4 4 4s4-1.791 4-4v-8.721c16.393.902 31.33 7.322 43.01 17.418l-6.448 6.448c-1.562 1.562-1.562 4.095 0 5.656.781.781 1.805 1.172 2.828 1.172s2.048-.391 2.828-1.172l6.552-6.552c10.687 11.522 17.646 26.534 18.975 43.12h-10.381c-2.209 0-4 1.791-4 4s1.791 4 4 4h10.579c-.519 17.13-7.04 32.772-17.549 44.888" fill="#e6e6e6"/><path d="m109.66 101.01l-22.71-20.19c.032-.271.053-.545.053-.824 0-2.378-1.188-4.475-3-5.74v-23.26c0-2.209-1.791-4-4-4s-4 1.791-4 4v23.26c-1.812 1.265-3 3.362-3 5.74 0 3.866 3.134 7 7 7 .563 0 1.107-.074 1.631-.199l22.712 20.19c.762.678 1.711 1.01 2.656 1.01 1.103 0 2.2-.453 2.99-1.343 1.468-1.651 1.32-4.178-.332-5.646" fill="#f9723a"/></svg>