<?xml version="1.0" encoding="utf-8"?>
<!-- Generator: Adobe Illustrator 23.0.6, SVG Export Plug-In . SVG Version: 6.00 Build 0)  -->
<svg version="1.1" id="Layer_1" xmlns="http://www.w3.org/2000/svg" xmlns:xlink="http://www.w3.org/1999/xlink" x="0px" y="0px"
	 viewBox="0 0 43 43" enable-background="new 0 0 43 43" xml:space="preserve">
<g transform="translate(7 20)">
	<path fill-rule="evenodd" clip-rule="evenodd" fill="#E6E6E6" stroke="#000000" stroke-width="0.5" d="M0,8h8v14H0V8z"/>
	<path fill-rule="evenodd" clip-rule="evenodd" fill="#E24329" stroke="#000000" stroke-width="0.5" d="M12,12h8v10h-8V12z"/>
	<path fill-rule="evenodd" clip-rule="evenodd" fill="#FCBA29" stroke="#000000" stroke-width="0.5" d="M24,0h8v22h-8V0z"/>
</g>
<path fill="#FC6D26" stroke="#000000" stroke-width="0.5" d="M41,0.5H31c-0.8,0-1.5,0.7-1.5,1.5s0.7,1.5,1.5,1.5h5.8L20.7,21.8
	l-7.6-8.1c-0.3-0.3-0.7-0.5-1.1-0.5c-0.4,0-0.8,0.2-1.1,0.5l-10.5,12c-0.5,0.6-0.5,1.6,0.1,2.1c0.3,0.2,0.6,0.4,1,0.4
	c0.4,0,0.8-0.2,1.1-0.5L12,16.9l7.6,8.1c0.3,0.3,0.7,0.5,1.1,0.5c0.4,0,0.8-0.2,1.1-0.5L39.5,4.9V12c0,0.8,0.7,1.5,1.5,1.5
	s1.5-0.7,1.5-1.5V2C42.5,1.2,41.8,0.5,41,0.5z"/>
</svg>
