<svg
  width="48"
  height="48"
  viewBox="0 0 48 48"
  fill="none"
  xmlns="http://www.w3.org/2000/svg"
>
  <g clip-path="url(#clip0)">
    <path
      d="M8.70728 41.2272C12.923 44.9683 18.3638 47.0343 24.0001 47.0343C29.6364 47.0343 35.0772 44.9683 39.2929 41.2272C35.08 37.4803 29.6381 35.4104 24.0001 35.4104C18.362 35.4104 12.9201 37.4803 8.70728 41.2272Z"
      fill="#AC7FFF"
    ></path>
    <path
      d="M24 29.88C28.0639 29.88 31.3584 26.5855 31.3584 22.5216C31.3584 18.4576 28.0639 15.1632 24 15.1632C19.9361 15.1632 16.6416 18.4576 16.6416 22.5216C16.6416 26.5855 19.9361 29.88 24 29.88Z"
      fill="#AC7FFF"
    ></path>
    <path
      d="M23.9999 48C18.1264 48.0024 12.4567 45.8466 8.06868 41.9424C7.96775 41.8525 7.88694 41.7424 7.83152 41.6191C7.7761 41.4959 7.74732 41.3623 7.74708 41.2272C7.74665 41.0912 7.7751 40.9568 7.83054 40.8326C7.88598 40.7085 7.96715 40.5976 8.06868 40.5072C12.4602 36.6096 18.1282 34.457 23.9999 34.457C29.8716 34.457 35.5396 36.6096 39.9311 40.5072C40.0326 40.5976 40.1138 40.7085 40.1692 40.8326C40.2247 40.9568 40.2531 41.0912 40.2527 41.2272C40.2524 41.3623 40.2236 41.4959 40.1682 41.6191C40.1128 41.7424 40.032 41.8525 39.9311 41.9424C35.543 45.8466 29.8734 48.0024 23.9999 48ZM10.1951 41.2272C14.112 44.365 18.9811 46.0748 23.9999 46.0748C29.0187 46.0748 33.8877 44.365 37.8047 41.2272C33.8903 38.0836 29.0203 36.3701 23.9999 36.3701C18.9795 36.3701 14.1094 38.0836 10.1951 41.2272Z"
      fill="#380D75"
    ></path>
    <path
      d="M24 30.84C22.3548 30.84 20.7465 30.3522 19.3786 29.4381C18.0106 28.5241 16.9444 27.2249 16.3148 25.7049C15.6852 24.1849 15.5205 22.5124 15.8415 20.8988C16.1624 19.2852 16.9547 17.803 18.118 16.6396C19.2814 15.4763 20.7636 14.684 22.3772 14.3631C23.9908 14.0421 25.6634 14.2068 27.1834 14.8364C28.7033 15.466 30.0025 16.5322 30.9165 17.9002C31.8306 19.2681 32.3184 20.8764 32.3184 22.5216C32.3159 24.727 31.4387 26.8414 29.8792 28.4008C28.3198 29.9603 26.2054 30.8375 24 30.84ZM24 16.1232C22.7346 16.1232 21.4975 16.4985 20.4453 17.2015C19.3931 17.9046 18.573 18.9039 18.0887 20.0731C17.6044 21.2422 17.4777 22.5287 17.7246 23.7699C17.9715 25.0111 18.5809 26.1511 19.4757 27.046C20.3705 27.9408 21.5106 28.5502 22.7518 28.7971C23.9929 29.044 25.2795 28.9172 26.4486 28.433C27.6178 27.9487 28.6171 27.1286 29.3201 26.0764C30.0232 25.0242 30.3984 23.7871 30.3984 22.5216C30.3959 20.8254 29.721 19.1995 28.5216 18.0001C27.3222 16.8007 25.6962 16.1258 24 16.1232Z"
      fill="#380D75"
    ></path>
    <path
      d="M41.7024 39.7056C41.4781 39.706 41.2607 39.6279 41.088 39.4848C40.9908 39.4042 40.9105 39.3052 40.8516 39.1935C40.7927 39.0819 40.7564 38.9596 40.7448 38.8339C40.7332 38.7082 40.7465 38.5814 40.784 38.4608C40.8215 38.3402 40.8824 38.2282 40.9632 38.1312C43.6496 34.9072 45.3615 30.9843 45.8985 26.8223C46.4355 22.6602 45.7752 18.4313 43.9951 14.631C42.215 10.8307 39.3888 7.6164 35.8475 5.36466C32.3062 3.11291 28.1966 1.91698 24 1.91698C19.8035 1.91698 15.6938 3.11291 12.1525 5.36466C8.61125 7.6164 5.785 10.8307 4.00489 14.631C2.22478 18.4313 1.56454 22.6602 2.10152 26.8223C2.63849 30.9843 4.35045 34.9072 7.03681 38.1312C7.12303 38.2272 7.189 38.3396 7.2308 38.4617C7.27259 38.5838 7.28935 38.713 7.28006 38.8417C7.27078 38.9704 7.23565 39.0959 7.17677 39.2107C7.11789 39.3255 7.03646 39.4273 6.93737 39.5099C6.83827 39.5926 6.72353 39.6544 6.6 39.6917C6.47648 39.729 6.3467 39.741 6.21843 39.727C6.09016 39.713 5.96603 39.6733 5.85345 39.6102C5.74087 39.5472 5.64216 39.4621 5.56321 39.36C2.64279 35.8557 0.781535 31.5917 0.197518 27.0676C-0.386499 22.5435 0.330913 17.9466 2.2657 13.8156C4.20048 9.68457 7.27251 6.19049 11.1218 3.74274C14.9712 1.295 19.4384 -0.0050354 24 -0.0050354C28.5617 -0.0050354 33.0289 1.295 36.8782 3.74274C40.7275 6.19049 43.7995 9.68457 45.7343 13.8156C47.6691 17.9466 48.3865 22.5435 47.8025 27.0676C47.2185 31.5917 45.3572 35.8557 42.4368 39.36C42.3471 39.4678 42.2348 39.5545 42.1079 39.6142C41.9811 39.6739 41.8426 39.7051 41.7024 39.7056Z"
      fill="#380D75"
    ></path>
  </g>
  <defs>
    <clipPath id="clip0">
      <rect width="48" height="48" fill="white"></rect>
    </clipPath>
  </defs>
</svg>