<?xml version="1.0" encoding="utf-8"?>
<!-- Generator: Adobe Illustrator 23.0.4, SVG Export Plug-In . SVG Version: 6.00 Build 0)  -->
<svg version="1.1" id="Layer_1" xmlns="http://www.w3.org/2000/svg" xmlns:xlink="http://www.w3.org/1999/xlink" x="0px" y="0px"
	 viewBox="0 0 80 80" style="enable-background:new 0 0 80 80;" xml:space="preserve">
<style type="text/css">
	.st0{fill:#FFFFFF;stroke:#333333;stroke-width:1.534;stroke-linecap:round;stroke-linejoin:round;stroke-miterlimit:10;}
	.st1{fill:#FCA326;stroke:#333333;stroke-width:1.534;stroke-linecap:round;stroke-linejoin:round;stroke-miterlimit:10;}
	.st2{fill:#FC6D26;stroke:#333333;stroke-width:1.534;stroke-linecap:round;stroke-linejoin:round;stroke-miterlimit:10;}
	.st3{fill:none;stroke:#333333;stroke-width:1.534;stroke-linecap:round;stroke-linejoin:round;stroke-miterlimit:10;}
</style>
<g>
	<circle class="st0" cx="40" cy="40" r="33.7"/>
	<circle class="st1" cx="40" cy="6.3" r="3.8"/>
	<circle class="st2" cx="73.7" cy="40" r="3.8"/>
	<circle class="st0" cx="63.9" cy="16.1" r="3.8"/>
	<path class="st2" d="M18.8,13.4c-1.5-1.5-3.9-1.5-5.4,0l5.4,5.4C20.3,17.3,20.3,14.9,18.8,13.4z"/>
	<path class="st1" d="M66.6,61.2c-1.5-1.5-3.9-1.5-5.4,0l5.4,5.4C68.1,65.1,68.1,62.7,66.6,61.2z"/>
	<path class="st3" d="M2.4,2.4l75.2,75.2"/>
	<path class="st3" d="M11.6,22.4h3.8"/>
	<path class="st3" d="M7.8,30h15.3"/>
	<path class="st3" d="M7,37.7h23.8"/>
	<path class="st3" d="M7,45.4h31.4"/>
	<path class="st3" d="M9.3,53h36.8"/>
	<path class="st3" d="M13.9,60.7h39.9"/>
	<path class="st3" d="M22.4,68.4h28.4"/>
</g>
</svg>
