<svg xmlns="http://www.w3.org/2000/svg" viewBox="0 0 676 248" enable-background="new 0 0 676 248"><switch><g><path d="m485.1 233.35h-204.93c-6.294 0-11.414-5.12-11.414-11.413v-139c0-6.294 5.12-11.414 11.414-11.414h204.93c6.293 0 11.413 5.12 11.413 11.414v139c0 6.292-5.12 11.413-11.413 11.413m-204.93-153.83c-1.883 0-3.414 1.531-3.414 3.414v139c0 1.882 1.531 3.413 3.414 3.413h204.93c1.882 0 3.413-1.531 3.413-3.413v-139c0-1.883-1.531-3.414-3.413-3.414h-204.93" fill="#251b3f"/><g><path d="m507.16 244h-249.06c-4.046 0-7.325-3.28-7.325-7.325v-4.395c0-1.618 1.312-2.93 2.93-2.93h257.85c1.618 0 2.93 1.312 2.93 2.93v4.395c0 4.045-3.279 7.325-7.325 7.325" fill="#3d3663"/><path d="m507.16 248h-249.06c-6.245 0-11.325-5.08-11.325-11.325v-4.396c0-3.821 3.109-6.93 6.931-6.93h257.85c3.821 0 6.93 3.108 6.93 6.93v4.396c-.002 6.245-5.082 11.325-11.327 11.325m-252.38-14.65v3.325c0 1.834 1.491 3.325 3.325 3.325h249.06c1.834 0 3.325-1.491 3.325-3.325v-3.325h-255.71" fill="#251b3f"/></g><g><g><path d="m272.39 183.57h-7.325c-8.091 0-14.65-6.559-14.65-14.65v-36.626c0-8.091 6.559-14.65 14.65-14.65h7.325v65.926" fill="#3d3663"/><path d="m272.39 187.57h-7.325c-10.284 0-18.65-8.366-18.65-18.65v-36.626c0-10.284 8.366-18.65 18.65-18.65h7.325c2.209 0 4 1.791 4 4v65.927c0 2.208-1.791 3.999-4 3.999m-7.325-65.926c-5.873 0-10.65 4.777-10.65 10.65v36.626c0 5.873 4.777 10.65 10.65 10.65h3.325v-57.927h-3.325" fill="#251b3f"/></g><g><path d="m250.41 172.58h-4.883c-5.394 0-9.767-4.373-9.767-9.767v-24.417c0-5.394 4.373-9.767 9.767-9.767h4.883v43.951" fill="#3d3663"/><path d="m250.41 176.58h-4.883c-7.592 0-13.768-6.176-13.768-13.767v-24.417c0-7.592 6.176-13.768 13.768-13.768h4.883c2.209 0 4 1.791 4 4v43.951c0 2.21-1.791 4-4 4m-4.883-43.951c-3.181 0-5.768 2.587-5.768 5.768v24.417c0 3.18 2.587 5.767 5.768 5.767h.883v-35.951h-.883z" fill="#251b3f"/></g><g><path d="m492.87 117.64h7.325c8.091 0 14.65 6.559 14.65 14.65v36.626c0 8.091-6.559 14.65-14.65 14.65h-7.325v-65.926" fill="#3d3663"/><path d="m500.2 187.57h-7.325c-2.209 0-4-1.791-4-4v-65.927c0-2.209 1.791-4 4-4h7.325c10.284 0 18.65 8.366 18.65 18.65v36.626c.001 10.285-8.366 18.651-18.65 18.651m-3.325-8h3.325c5.873 0 10.65-4.777 10.65-10.65v-36.626c0-5.873-4.777-10.65-10.65-10.65h-3.325v57.926" fill="#251b3f"/></g><g><path d="m514.85 128.63h4.883c5.394 0 9.767 4.373 9.767 9.767v24.417c0 5.394-4.373 9.767-9.767 9.767h-4.883v-43.951" fill="#3d3663"/><path d="m519.73 176.58h-4.884c-2.209 0-4-1.791-4-4v-43.951c0-2.209 1.791-4 4-4h4.884c7.591 0 13.767 6.176 13.767 13.768v24.417c0 7.59-6.176 13.766-13.767 13.766m-.883-8h.884c3.18 0 5.767-2.587 5.767-5.767v-24.417c0-3.181-2.587-5.768-5.767-5.768h-.884v35.952" fill="#251b3f"/></g><path d="m512.49 128.18c-.437 0-.882-.072-1.317-.225-2.086-.728-3.188-3.01-2.459-5.094l9.13-26.17c-2.284-4.276-10.419-17.967-27.29-31.431-18.492-14.76-51.57-32.25-104.42-32.25-.551 0-1.095.002-1.649.006h-3.689c-54.09-.359-87.75 17.489-106.45 32.538-16.705 13.437-24.674 26.894-26.925 31.13l9.02 25.854c.729 2.086-.373 4.366-2.459 5.094-2.086.729-4.367-.373-5.094-2.459l-9.576-27.451c-.338-.968-.291-2.029.131-2.964.33-.73 8.333-18.1 29.891-35.44 19.52-15.704 54.36-34.31 109.79-34.31.566 0 1.134.002 1.705.006h3.635c.568-.004 1.141-.006 1.704-.006 55.41 0 90.24 18.607 109.77 34.31 21.557 17.339 29.56 34.71 29.89 35.44.422.935.469 1.996.131 2.964l-9.689 27.777c-.576 1.65-2.123 2.684-3.778 2.684" fill="#251b3f"/><path d="m481.03 65.36c-2.178 0-4.382-.593-6.363-1.835-23.844-14.951-53.49-22.527-88.12-22.527-.545 0-1.088.002-1.636.006h-3.744c-35.3-.258-65.37 7.273-89.54 22.334-5.628 3.507-13.03 1.784-16.53-3.839-3.505-5.625-1.786-13.02 3.839-16.53 27.661-17.236 61.47-25.971 100.51-25.971.603 0 1.2.002 1.805.006h3.58c.599-.004 1.2-.006 1.797-.006 39.14 0 73.06 8.809 100.79 26.19 5.614 3.521 7.312 10.927 3.792 16.542-2.278 3.633-6.185 5.627-10.179 5.627" fill="#251b3f"/></g><g><path d="m331.35 180.06c12.09 9.959 30.564 16.329 51.28 16.329s39.19-6.369 51.28-16.329v-55.25c-12.09-9.959-30.564-16.329-51.28-16.329s-39.19 6.369-51.28 16.329v55.25" fill="#fc6d26"/><path d="m382.63 200.39c-20.904 0-40.521-6.284-53.82-17.242-.922-.76-1.456-1.892-1.456-3.087v-55.25c0-1.195.534-2.327 1.456-3.087 13.299-10.957 32.915-17.241 53.82-17.241 20.906 0 40.523 6.284 53.82 17.241.922.76 1.456 1.892 1.456 3.087v55.25c0 1.195-.534 2.327-1.456 3.087-13.298 10.958-32.915 17.242-53.82 17.242m-47.28-22.26c11.858 9.08 28.961 14.26 47.28 14.26 18.316 0 35.418-5.178 47.28-14.26v-51.38c-11.857-9.08-28.959-14.259-47.28-14.259-18.316 0-35.418 5.178-47.28 14.259v51.38" fill="#251b3f"/></g><g><path d="m400.39 155.33l-26.642 15.607c-1.953 1.144-4.411-.264-4.411-2.528v-31.21c0-2.264 2.458-3.672 4.411-2.528l26.642 15.607c1.932 1.13 1.932 3.923 0 5.05" fill="#e24329"/><path d="m372.27 175.34c-1.19 0-2.382-.306-3.446-.916-2.148-1.231-3.483-3.535-3.483-6.01v-31.21c0-2.478 1.335-4.781 3.484-6.01 2.149-1.232 4.812-1.219 6.949.033l26.641 15.606c2.146 1.257 3.428 3.492 3.428 5.979s-1.281 4.723-3.428 5.979l-26.642 15.606c-1.079.635-2.291.951-3.503.951m1.07-36.27v27.48l23.455-13.74-23.455-13.74m25.03 12.817" fill="#251b3f"/></g><path d="m657.48 248c-.725 0-1.45-.196-2.094-.592l-30.685-18.846-30.686 18.846c-1.338.821-3.03.784-4.329-.091-1.3-.877-1.969-2.432-1.71-3.979l6.04-36.05c.016-.321.068-.638.158-.94l5.457-32.588c0-.448.075-.889.219-1.305l20.91-124.85c.323-1.927 1.991-3.339 3.945-3.339s3.622 1.412 3.945 3.34l20.907 124.85c.145.418.221.861.22 1.312l5.455 32.577c.091.308.146.628.16.953l6.04 36.05c.259 1.546-.41 3.102-1.71 3.978-.674.453-1.453.682-2.235.682m-56.48-33.994l-3.683 21.985 19.739-12.12-16.06-9.862m31.343 9.862l19.739 12.12-3.682-21.985-16.06 9.862m-27.07-16.626l19.427 11.932 19.426-11.932-19.426-13.712-19.427 13.712m1.298-26.509l-3 17.919 14.192-10.02-11.192-7.9m25.07 7.901l14.192 10.02-3-17.917-11.191 7.899m-21.542-15.205l14.605 10.31 14.605-10.31-14.605-12.733-14.605 12.733m1.714-23.972l-2.326 13.892 9.13-7.96-6.804-5.932m18.978 5.932l9.13 7.959-2.326-13.891-6.804 5.932m-16.03-13.977l9.944 8.67 9.943-8.669-9.943-12.522-9.944 12.521m15.05-18.954l4.133 5.205-1.439-8.597-2.694 3.392m-12.909-3.392l-1.439 8.596 4.133-5.204-2.694-3.392m1.78-10.623l6.02 7.583 6.02-7.584-6.02-35.96-6.02 35.961" fill="#251b3f"/><path d="m654.83 78.11c-1.156 0-2.304-.499-3.094-1.463-1.401-1.708-1.153-4.229.555-5.629 9.982-8.191 15.707-20.263 15.707-33.12 0-12.151-5.213-23.785-14.303-31.917-1.646-1.474-1.787-4-.314-5.648 1.474-1.647 4-1.787 5.648-.314 10.784 9.648 16.969 23.455 16.969 37.879 0 15.263-6.791 29.589-18.633 39.3-.744.611-1.642.908-2.535.908" opacity=".3"/><path d="m594.33 77.1c-.937 0-1.876-.327-2.636-.993-11.02-9.669-17.346-23.597-17.346-38.21 0-14.07 5.935-27.652 16.282-37.25 1.618-1.502 4.148-1.408 5.653.212 1.502 1.619 1.407 4.15-.212 5.653-8.722 8.092-13.724 19.533-13.724 31.389 0 12.312 5.329 24.05 14.621 32.2 1.661 1.456 1.826 3.983.369 5.645-.788.901-1.895 1.362-3.01 1.362" opacity=".3"/><path d="m641.53 64.732c-1.244 0-2.471-.579-3.252-1.667-1.289-1.794-.879-4.293.916-5.582 6.31-4.531 10.08-11.853 10.08-19.585 0-7.341-3.3-14.197-9.05-18.81-1.724-1.382-2-3.899-.619-5.623 1.381-1.723 3.898-2 5.623-.619 7.658 6.14 12.05 15.271 12.05 25.05 0 10.302-5.01 20.05-13.41 26.08-.706.507-1.521.751-2.33.751" fill="#251b3f"/><path d="m607.82 63.981c-.866 0-1.738-.28-2.472-.857-7.798-6.139-12.27-15.334-12.27-25.23 0-8.562 3.342-16.619 9.41-22.687 1.561-1.562 4.096-1.562 5.656 0 1.562 1.562 1.562 4.095 0 5.656-4.557 4.558-7.07 10.605-7.07 17.03 0 7.424 3.36 14.327 9.219 18.94 1.735 1.366 2.035 3.881.668 5.617-.788 1-1.96 1.527-3.145 1.527" fill="#251b3f"/><g><circle cx="625" cy="38" r="10" fill="#fca326"/><path d="m625 52c-7.72 0-14-6.28-14-14s6.28-14 14-14 14 6.28 14 14-6.28 14-14 14m0-20c-3.309 0-6 2.691-6 6s2.691 6 6 6 6-2.691 6-6-2.691-6-6-6" fill="#251b3f"/></g><path d="m37 91.14c-1.023 0-2.048-.391-2.828-1.172l-11.972-11.971h-9.7c-6.617 0-12-5.383-12-12v-54c0-6.617 5.383-12 12-12h84c6.617 0 12 5.383 12 12v54c0 6.617-5.383 12-12 12h-44.7l-11.972 11.971c-.78.781-1.805 1.172-2.828 1.172m-24.5-83.14c-2.206 0-4 1.794-4 4v54c0 2.206 1.794 4 4 4h11.357c1.061 0 2.078.422 2.828 1.172l10.315 10.313 10.314-10.313c.75-.75 1.768-1.172 2.828-1.172h46.36c2.206 0 4-1.794 4-4v-54c0-2.206-1.794-4-4-4h-84" fill="#251b3f"/><path d="m62 34h-40c-2.209 0-4-1.791-4-4s1.791-4 4-4h40c2.209 0 4 1.791 4 4s-1.791 4-4 4" fill="#fca326"/><path d="m42 52h-20c-2.209 0-4-1.791-4-4s1.791-4 4-4h20c2.209 0 4 1.791 4 4s-1.791 4-4 4" opacity=".3"/><path d="m142 131.14c-1.061 0-2.078-.422-2.828-1.172l-11.972-11.971h-44.7c-6.617 0-12-5.383-12-12v-54c0-6.617 5.383-12 12-12h84c6.617 0 12 5.383 12 12v54c0 6.617-5.383 12-12 12h-9.701l-11.971 11.971c-.75.75-1.767 1.172-2.828 1.172m-59.5-83.14c-2.206 0-4 1.794-4 4v54c0 2.206 1.794 4 4 4h46.36c1.061 0 2.078.422 2.828 1.172l10.315 10.313 10.313-10.313c.75-.75 1.768-1.172 2.828-1.172h11.359c2.206 0 4-1.794 4-4v-54c0-2.206-1.794-4-4-4h-84" fill="#251b3f"/><path d="m157 92h-40c-2.209 0-4-1.791-4-4s1.791-4 4-4h40c2.209 0 4 1.791 4 4s-1.791 4-4 4" fill="#fc6d26"/><path d="m157 74h-20c-2.209 0-4-1.791-4-4s1.791-4 4-4h20c2.209 0 4 1.791 4 4s-1.791 4-4 4" opacity=".3"/></g></switch></svg>