<svg xmlns="http://www.w3.org/2000/svg" viewBox="0 0 440 200" enable-background="new 0 0 440 200" xmlns:xlink="http://www.w3.org/1999/xlink"><defs><linearGradient id="5" gradientUnits="userSpaceOnUse" x1="66.822" x2="124.04" xlink:href="#4"/><linearGradient id="4" gradientUnits="userSpaceOnUse" x1="195.06" x2="252.28"><stop offset=".08" stop-color="#3f3177" stop-opacity="0"/><stop offset="1" stop-color="#3f3177" stop-opacity=".85"/></linearGradient><linearGradient id="6" gradientUnits="userSpaceOnUse" x1="292" x2="349.22"><stop offset=".08" stop-color="#9795f9" stop-opacity="0"/><stop offset="1" stop-color="#9795f9" stop-opacity=".85"/></linearGradient><linearGradient id="3" gradientUnits="userSpaceOnUse" x1="310.44" x2="421.01"><stop offset=".08" stop-color="#272359" stop-opacity="0"/><stop offset="1" stop-color="#272359" stop-opacity=".85"/></linearGradient><linearGradient id="1" gradientUnits="userSpaceOnUse" x1="106.22" x2="184.36" xlink:href="#0"/><linearGradient id="0" gradientUnits="userSpaceOnUse" x1="128.72" x2="247.69"><stop offset=".08" stop-color="#6262cc" stop-opacity="0"/><stop offset="1" stop-color="#6262cc" stop-opacity=".85"/></linearGradient><linearGradient id="2" gradientUnits="userSpaceOnUse" x1="26.421" x2="83.64" xlink:href="#0"/></defs><path fill="url(#0)" d="m128.72 163.84h118.97v16.16h-118.97z"/><path fill="url(#1)" d="m106.22 20.235h78.14v16.16h-78.14z"/><path fill="url(#2)" d="m26.421 163.84h57.22v16.16h-57.22z"/><path fill="url(#3)" d="m310.44 20.235h110.57v16.16h-110.57z"/><path fill="url(#4)" d="m195.06 40.43h57.22v16.16h-57.22z"/><path fill="url(#5)" d="m66.822 143.65h57.22v16.16h-57.22z"/><path fill="url(#6)" d="m292 40.43h57.22v16.16h-57.22z"/><path d="m422.33 36.39h-14.188c-.536 0-.97-.434-.97-.97v-14.217c0-.536.434-.97.97-.97h14.188c.536 0 .97.434.97.97v14.217c0 .536-.434.97-.97.97" fill="#272359"/><g fill="#6262cc"><path d="m84.963 180h-14.188c-.536 0-.97-.434-.97-.97v-14.217c0-.536.434-.97.97-.97h14.188c.536 0 .97.434.97.97v14.217c-.001.536-.435.97-.97.97"/><path d="m185.68 36.39h-14.188c-.536 0-.97-.434-.97-.97v-14.217c0-.536.434-.97.97-.97h14.188c.536 0 .97.434.97.97v14.217c-.001.536-.435.97-.97.97"/></g><path d="m350.54 56.59h-14.188c-.536 0-.97-.434-.97-.97v-14.217c0-.536.434-.97.97-.97h14.188c.536 0 .97.434.97.97v14.217c0 .536-.435.97-.97.97" fill="#9795f9"/><path d="m249.01 180h-14.188c-.536 0-.97-.434-.97-.97v-14.217c0-.536.434-.97.97-.97h14.188c.536 0 .97.434.97.97v14.217c0 .536-.434.97-.97.97" fill="#6262cc"/><g fill="#3f3177"><path d="m125.36 159.8h-14.188c-.536 0-.97-.434-.97-.97v-14.217c0-.536.434-.97.97-.97h14.188c.536 0 .97.434.97.97v14.217c-.001.536-.435.97-.97.97"/><path d="m253.6 56.59h-14.188c-.536 0-.97-.434-.97-.97v-14.217c0-.536.434-.97.97-.97h14.188c.536 0 .97.434.97.97v14.217c0 .536-.434.97-.97.97"/></g><g fill="#4f49bf"><path d="m42.19 20.2h14.188c.536 0 .97.434.97.97v14.217c0 .536-.434.97-.97.97h-14.188c-.536 0-.97-.434-.97-.97v-14.217c0-.536.434-.97.97-.97"/><path d="m.97 0h14.188c.536 0 .97.434.97.97v14.217c0 .536-.434.97-.97.97h-14.188c-.536 0-.97-.434-.97-.97v-14.217c0-.536.434-.97.97-.97"/></g><g fill="#dfdfdf"><path d="m42.19 60.59h14.188c.536 0 .97.434.97.97v14.217c0 .536-.434.97-.97.97h-14.188c-.536 0-.97-.434-.97-.97v-14.217c0-.535.434-.97.97-.97"/><path d="m.97 60.59h14.188c.536 0 .97.434.97.97v14.217c0 .536-.434.97-.97.97h-14.188c-.536 0-.97-.434-.97-.97v-14.217c0-.535.434-.97.97-.97"/></g><g fill="#302164"><path d="m.97 40.39h14.188c.536 0 .97.434.97.97v14.217c0 .536-.434.97-.97.97h-14.188c-.536 0-.97-.434-.97-.97v-14.217c0-.536.434-.97.97-.97"/><path d="m.97 20.2h14.188c.536 0 .97.434.97.97v14.217c0 .536-.434.97-.97.97h-14.188c-.536 0-.97-.434-.97-.97v-14.217c0-.536.434-.97.97-.97"/><path d="m42.19 40.39h14.188c.536 0 .97.434.97.97v14.217c0 .536-.434.97-.97.97h-14.188c-.536 0-.97-.434-.97-.97v-14.217c0-.536.434-.97.97-.97"/><path d="m21.577 0h14.188c.536 0 .97.434.97.97v14.217c0 .536-.434.97-.97.97h-14.188c-.536 0-.97-.434-.97-.97v-14.217c0-.536.435-.97.97-.97"/><path d="m62.792 0h14.188c.536 0 .97.434.97.97v14.217c0 .536-.434.97-.97.97h-14.188c-.536 0-.97-.434-.97-.97v-14.217c0-.536.434-.97.97-.97"/></g><g fill="#847df6"><path d="m21.577 20.2h14.188c.536 0 .97.434.97.97v14.217c0 .536-.434.97-.97.97h-14.188c-.536 0-.97-.434-.97-.97v-14.217c0-.536.435-.97.97-.97"/><path d="m21.577 40.39h14.188c.536 0 .97.434.97.97v14.217c0 .536-.434.97-.97.97h-14.188c-.536 0-.97-.434-.97-.97v-14.217c0-.536.435-.97.97-.97"/></g><path d="m42.19 0h14.188c.536 0 .97.434.97.97v14.217c0 .536-.434.97-.97.97h-14.188c-.536 0-.97-.434-.97-.97v-14.217c0-.536.434-.97.97-.97" fill="#272359"/><g fill="#1d1847"><path d="m21.577 60.59h14.188c.536 0 .97.434.97.97v14.217c0 .536-.434.97-.97.97h-14.188c-.536 0-.97-.434-.97-.97v-14.217c0-.535.435-.97.97-.97"/><path d="m62.792 20.2h14.188c.536 0 .97.434.97.97v14.217c0 .536-.434.97-.97.97h-14.188c-.536 0-.97-.434-.97-.97v-14.217c0-.536.434-.97.97-.97"/><path d="m83.4 0h14.188c.536 0 .97.434.97.97v14.217c0 .536-.434.97-.97.97h-14.188c-.536 0-.97-.434-.97-.97v-14.217c0-.536.434-.97.97-.97"/></g><g fill="#4f49bf"><path d="m439.03 119.22h-14.188c-.536 0-.97-.434-.97-.97v-14.217c0-.536.434-.97.97-.97h14.188c.536 0 .97.434.97.97v14.217c0 .535-.434.97-.97.97"/><path d="m439.03 179.8h-14.188c-.536 0-.97-.434-.97-.97v-14.217c0-.536.434-.97.97-.97h14.188c.536 0 .97.434.97.97v14.217c0 .536-.434.97-.97.97"/><path d="m418.42 159.61h-14.188c-.536 0-.97-.434-.97-.97v-14.217c0-.536.434-.97.97-.97h14.188c.536 0 .97.434.97.97v14.217c0 .536-.435.97-.97.97"/><path d="m356.6 200h-14.188c-.536 0-.97-.434-.97-.97v-14.217c0-.536.434-.97.97-.97h14.188c.536 0 .97.434.97.97v14.217c0 .536-.434.97-.97.97"/></g><g fill="#dfdfdf"><path d="m397.81 200h-14.188c-.536 0-.97-.434-.97-.97v-14.217c0-.536.434-.97.97-.97h14.188c.536 0 .97.434.97.97v14.217c0 .536-.434.97-.97.97"/><path d="m418.42 200h-14.188c-.536 0-.97-.434-.97-.97v-14.217c0-.536.434-.97.97-.97h14.188c.536 0 .97.434.97.97v14.217c0 .536-.435.97-.97.97"/><path d="m335.99 200h-14.188c-.536 0-.97-.434-.97-.97v-14.217c0-.536.434-.97.97-.97h14.188c.536 0 .97.434.97.97v14.217c0 .536-.434.97-.97.97"/></g><g fill="#302164"><path d="m439.03 99.02h-14.188c-.536 0-.97-.434-.97-.97v-14.218c0-.536.434-.97.97-.97h14.188c.536 0 .97.434.97.97v14.218c0 .535-.434.97-.97.97"/><path d="m418.42 139.41h-14.188c-.536 0-.97-.434-.97-.97v-14.217c0-.536.434-.97.97-.97h14.188c.536 0 .97.434.97.97v14.217c0 .535-.435.97-.97.97"/><path d="m418.42 179.8h-14.188c-.536 0-.97-.434-.97-.97v-14.217c0-.536.434-.97.97-.97h14.188c.536 0 .97.434.97.97v14.217c0 .536-.435.97-.97.97"/><path d="m439.03 200h-14.188c-.536 0-.97-.434-.97-.97v-14.217c0-.536.434-.97.97-.97h14.188c.536 0 .97.434.97.97v14.217c0 .536-.434.97-.97.97"/><path d="m397.81 159.61h-14.188c-.536 0-.97-.434-.97-.97v-14.217c0-.536.434-.97.97-.97h14.188c.536 0 .97.434.97.97v14.217c0 .536-.434.97-.97.97"/></g><g fill="#847df6"><path d="m377.21 200h-14.188c-.536 0-.97-.434-.97-.97v-14.217c0-.536.434-.97.97-.97h14.188c.536 0 .97.434.97.97v14.217c0 .536-.434.97-.97.97"/><path d="m439.03 159.61h-14.188c-.536 0-.97-.434-.97-.97v-14.217c0-.536.434-.97.97-.97h14.188c.536 0 .97.434.97.97v14.217c0 .536-.434.97-.97.97"/><path d="m397.81 179.8h-14.188c-.536 0-.97-.434-.97-.97v-14.217c0-.536.434-.97.97-.97h14.188c.536 0 .97.434.97.97v14.217c0 .536-.434.97-.97.97"/></g><g fill="#1d1847"><path d="m439.03 139.41h-14.188c-.536 0-.97-.434-.97-.97v-14.217c0-.536.434-.97.97-.97h14.188c.536 0 .97.434.97.97v14.217c0 .535-.434.97-.97.97"/><path d="m418.42 119.22h-14.188c-.536 0-.97-.434-.97-.97v-14.217c0-.536.434-.97.97-.97h14.188c.536 0 .97.434.97.97v14.217c0 .535-.435.97-.97.97"/><path d="m377.21 179.8h-14.188c-.536 0-.97-.434-.97-.97v-14.217c0-.536.434-.97.97-.97h14.188c.536 0 .97.434.97.97v14.217c0 .536-.434.97-.97.97"/><path d="m356.6 179.8h-14.188c-.536 0-.97-.434-.97-.97v-14.217c0-.536.434-.97.97-.97h14.188c.536 0 .97.434.97.97v14.217c0 .536-.434.97-.97.97"/><path d="m377.21 159.61h-14.188c-.536 0-.97-.434-.97-.97v-14.217c0-.536.434-.97.97-.97h14.188c.536 0 .97.434.97.97v14.217c0 .536-.434.97-.97.97"/><path d="m397.81 139.41h-14.188c-.536 0-.97-.434-.97-.97v-14.217c0-.536.434-.97.97-.97h14.188c.536 0 .97.434.97.97v14.217c0 .535-.434.97-.97.97"/></g><g fill="#fff"><path d="m272.34 107.52l-4.502-13.579h2.977l2.738 9.133 3.087-9.133h1.728l3.143 9.133 2.701-9.133h2.977l-4.484 13.579h-2.297l-2.885-8.892-2.885 8.897h-2.296"/><path d="m288.36 107.52v-13.966h2.518v5.255c.533-.9 1.746-1.58 3.16-1.58 1.085 0 2 .367 2.757 1.084.754.717 1.14 1.746 1.14 3.088v6.119h-2.592v-5.421c0-1.599-.827-2.481-2.095-2.481-1.378 0-2.296 1.048-2.296 2.535v5.366l-2.592.001"/><path d="m299.43 95.92c-.607-.606-.607-1.672 0-2.26.607-.607 1.673-.607 2.279 0 .607.588.607 1.654 0 2.26-.607.607-1.672.607-2.279 0"/><path d="m299.28 97.51h2.591v10.02h-2.591v-10.02"/><path d="m311.35 106.93c-.827.552-1.801.827-2.96.827-2.297 0-3.491-1.36-3.491-3.951v-4.135h-1.635v-2.168h1.653v-3.546h2.573v3.546h3.308v2.168h-3.308v3.969c0 1.176.478 1.764 1.415 1.764.496 0 1.066-.165 1.673-.515l.771 2.04"/><path d="m322.09 103.42h-7.516c.367 1.415 1.341 2.131 2.922 2.131 1.085 0 2.371-.421 3.234-1.01l1.029 1.819c-1.267.919-2.72 1.378-4.374 1.378-1.764 0-3.106-.515-4.04-1.525-.937-1.01-1.397-2.26-1.397-3.712 0-1.525.478-2.775 1.452-3.767.974-.992 2.224-1.488 3.767-1.488 1.452 0 2.664.459 3.602 1.36.937.901 1.415 2.114 1.415 3.675 0 .348-.037.734-.091 1.139m-7.516-1.93h5.09c-.239-1.305-1.176-2.095-2.499-2.095-1.306-.001-2.279.79-2.591 2.095"/><path d="m323.35 104.91l.9-.607c.68 1.488 1.929 2.371 3.528 2.371.919 0 1.672-.257 2.242-.754.57-.496.863-1.12.863-1.874 0-1.048-.606-1.727-1.782-2.315-.257-.128-.717-.349-1.397-.644-.661-.294-1.103-.496-1.341-.624-1.544-.772-2.316-1.856-2.316-3.234 0-1.01.349-1.856 1.066-2.518.717-.68 1.672-1.01 2.829-1.01 1.618 0 2.904.68 3.841 2.02l-.846.68c-.772-1.103-1.764-1.654-2.977-1.654-1.598 0-2.738.974-2.738 2.426 0 .937.552 1.693 1.635 2.261.239.128.735.367 1.488.698.754.331 1.267.57 1.544.717 1.451.79 2.186 1.838 2.186 3.161 0 1.103-.404 2-1.231 2.701-.809.68-1.819 1.029-3.03 1.029-1.908-.001-3.636-.975-4.462-2.831"/><path d="m334.49 98.94c.974-.992 2.187-1.488 3.657-1.488 1.47 0 2.683.496 3.657 1.488.974.992 1.452 2.206 1.452 3.657 0 1.452-.477 2.683-1.452 3.675-.974.992-2.186 1.488-3.657 1.488-1.47 0-2.683-.496-3.657-1.488-.974-.992-1.451-2.224-1.451-3.675 0-1.451.477-2.665 1.451-3.657m6.524 6.616c.753-.809 1.139-1.801 1.139-2.96 0-1.157-.386-2.15-1.139-2.94-.754-.79-1.709-1.194-2.867-1.194-1.139 0-2.095.404-2.867 1.213-.753.79-1.139 1.764-1.139 2.922 0 1.158.386 2.15 1.139 2.96.772.79 1.728 1.194 2.867 1.194 1.158-.001 2.114-.405 2.867-1.195"/><path d="m345.37 106.66c-.717-.753-1.085-1.746-1.085-2.977v-5.991h1.103v5.972c0 1.893 1.12 3.069 2.903 3.069 1.838 0 2.922-1.176 2.922-3.088v-5.954h1.103v5.991c0 2.499-1.525 4.079-4.02 4.079-1.212.001-2.186-.366-2.921-1.101"/><path d="m353.99 107.52v-9.832h1.048v1.581c.533-1.231 1.47-1.838 2.849-1.838.386 0 .79.056 1.213.166l-.128 1.048c-.349-.11-.698-.166-1.048-.166-1.782 0-2.829 1.397-2.829 3.437v5.605l-1.105-.001"/><path d="m360.87 106.31c-.937-.974-1.416-2.206-1.416-3.694 0-1.507.478-2.738 1.433-3.712.974-.974 2.206-1.452 3.694-1.452 1.929 0 3.638.974 4.392 2.535l-.901.515c-.661-1.249-2-2.04-3.491-2.04-1.157 0-2.132.386-2.885 1.176-.753.772-1.14 1.764-1.14 2.977 0 1.194.368 2.187 1.103 2.96.735.772 1.672 1.157 2.812 1.157 1.488 0 2.903-.846 3.546-2.04l.9.552c-.386.753-.992 1.36-1.801 1.819-.809.459-1.688.68-2.646.68-1.45 0-2.664-.478-3.6-1.433"/><path d="m379.43 103.03h-8.269c.165 2.186 1.581 3.675 3.988 3.675 1.267 0 2.72-.459 3.602-1.176l.514.846c-.956.754-2.518 1.36-4.135 1.36-3.62 0-5.109-2.592-5.109-5.164 0-1.489.442-2.701 1.342-3.675.9-.974 2.077-1.452 3.547-1.452 1.322 0 2.407.425 3.271 1.286.864.846 1.305 1.985 1.305 3.437-.001.129-.019.422-.056.863m-8.269-1.01h7.183c-.019-2.186-1.433-3.565-3.436-3.565-2.058 0-3.528 1.415-3.749 3.565"/><path d="m260.67 98.56c-.794-10.113-9.639-17.671-19.753-16.875-10.113.794-17.671 9.638-16.875 19.753.796 10.115 9.639 17.671 19.754 16.875 10.114-.795 17.67-9.638 16.874-19.753m-8.808 6.552h-2.213l-.712 1.589 1.493 1.317-2.733 2.906-1.562-1.574-1.693.727v2.059h-4.173v-2.059l-1.693-.727-1.562 1.574-2.733-2.906 1.493-1.317-.712-1.589h-2.213v-3.54h5.448v.128.808c0 2.232 1.826 4.058 4.058 4.058s4.058-1.826 4.058-4.058v-.809c0-.043-.005-.085-.005-.128h.005 5.448l.001 3.541m-13.562-3.413v-.128h.005c-.001.043-.006.085-.005.128m13.562-1.755h-9.5-.013-9.5v-1.739h1.23c0 0-1.177-6.096 4.432-8.798v7.479h1.136v-9.03h2.701.013 2.712v9.03h1.125v-7.479c5.09 2.453 4.377 9.05 4.432 8.798h1.231v1.739"/><path d="m137.84 91.3h-2.354l.011 17.545h9.534v-2.17h-7.18l-.011-15.375"/><path d="m-823.22-37.519c-.594.615-1.576 1.231-2.915 1.231-1.792 0-2.516-.885-2.516-2.041 0-1.738 1.209-2.57 3.779-2.57.486 0 1.263.054 1.663.13v3.25h-.011m-2.44-10.635c-1.9 0-3.649.669-5.01 1.803l.831 1.447c.961-.561 2.138-1.123 3.833-1.123 1.933 0 2.786.993 2.786 2.656v.853c-.378-.076-1.155-.13-1.63-.13-4.124 0-6.219 1.447-6.219 4.47 0 2.71 1.663 4.07 4.178 4.07 1.695 0 3.325-.777 3.887-2.041l.432 1.717h1.663v-8.983c-.012-2.838-1.242-4.739-4.751-4.739" transform="translate(977.33 143.28)"/><path d="m-935.75-36.05c-.885 0-1.663-.108-2.246-.378v-7.266-.842c.799-.669 1.792-1.155 3.056-1.155 2.278 0 3.153 1.609 3.153 4.211 0 3.692-1.415 5.43-3.963 5.43m.994-11.941c-2.105 0-3.239 1.436-3.239 1.436v-2.267l-.011-3h-1.058-1.242l.011 17.11c1.155.486 2.732.745 4.448.745 4.394 0 6.51-2.807 6.51-7.655-.01-3.833-1.964-6.37-5.419-6.37" transform="translate(1099.77 143.13)"/><path d="m-471.82-50.43c2.084 0 3.433.691 4.308 1.393l1.015-1.76c-1.371-1.209-3.228-1.857-5.215-1.857-5.01 0-8.519 3.056-8.519 9.221 0 6.457 3.79 8.972 8.119 8.972 2.17 0 4.02-.507 5.226-1.015l-.054-6.899v-.81-1.36h-6.424v2.17h4.103l.054 5.236c-.54.27-1.468.486-2.732.486-3.477 0-5.809-2.192-5.809-6.802-.01-4.697 2.397-6.975 5.928-6.975" transform="translate(584.04 143.63)"/><path d="m-664.77-51.28h-2.3l.011 2.948v1.209.702 1.231 7.02.022c0 2.84 1.231 4.74 4.74 4.74.486 0 .961-.043 1.414-.13v-2.062c-.335.054-.691.076-1.069.076-1.933 0-2.786-.993-2.786-2.656v-7.02h3.854v-1.922h-3.854l-.01-4.158" transform="translate(793.57 142.58)"/><path d="m120.65 108.84h2.3v-13.388h-2.3v13.388"/><path d="m120.65 93.61h2.3v-2.3h-2.3v2.3"/><path d="m97.01 102.03l-1.92-5.898c-.01-.054-.027-.107-.047-.159l-3.851-11.855c-.212-.628-.803-1.05-1.463-1.044-.67.004-1.237.417-1.444 1.054l-3.669 11.297h-11.588l-3.676-11.297c-.207-.636-.774-1.049-1.444-1.053-.003 0-.005 0-.008 0-.66 0-1.244.419-1.458 1.054l-3.848 11.869c-.004.01-.009.02-.012.03l-1.954 6c-.294.907.025 1.892.795 2.452l16.884 12.268c.152.111.33.165.507.165.182 0 .362-.058.513-.17.001-.001.002-.001.003-.002l16.885-12.262c.77-.56 1.09-1.545.795-2.453m-25.24-4.872l4.707 14.485-11.298-14.485h6.591m9.389 14.488l4.513-13.886.195-.601h6.596l-10.217 13.09-1.087 1.393m8.58-26.407l3.308 10.185h-6.616l3.308-10.185m-5.686 11.912l-3.279 10.09-1.953 6.01-5.232-16.1h10.464m-16.16-11.912l3.314 10.185h-6.616l3.302-10.185m-5.459 17.847c-.163-.119-.231-.328-.168-.521l1.451-4.458 10.642 13.644-11.925-8.665m32.761-.001l-11.926 8.661.041-.052 10.602-13.587 1.451 4.457c.062.193-.006.403-.168.521"/></g></svg>