<svg width="314" height="226" viewBox="0 0 314 226" fill="none" xmlns="http://www.w3.org/2000/svg">
  <path d="M39.2395 162.623C60.0501 162.623 76.9205 145.444 76.9205 124.251C76.9205 103.059 60.0501 85.8792 39.2395 85.8792C18.4289 85.8792 1.55859 103.059 1.55859 124.251C1.55859 145.444 18.4289 162.623 39.2395 162.623Z" fill="white"/>
  <path d="M39.2395 160.879C59.1042 160.879 75.2077 144.48 75.2077 124.251C75.2077 104.022 59.1042 87.6233 39.2395 87.6233C19.3749 87.6233 3.27136 104.022 3.27136 124.251C3.27136 144.48 19.3749 160.879 39.2395 160.879Z" stroke="#FEDBCA" stroke-width="4"/>
  <path d="M31.0129 134.486C31.5918 134.069 32.2836 133.844 32.9929 133.844H49.5161C52.3539 133.844 54.6544 131.502 54.6544 128.612V116.402C54.6544 113.513 52.3539 111.17 49.5161 111.17H30.6757C27.8379 111.17 25.5374 113.513 25.5374 116.402V138.436L31.0129 134.486ZM32.9929 137.333L26.166 142.257C25.7319 142.57 25.213 142.738 24.681 142.738C23.2621 142.738 22.1118 141.567 22.1118 140.122V116.402C22.1118 111.586 25.946 107.682 30.6757 107.682H49.5161C54.2458 107.682 58.08 111.586 58.08 116.402V128.612C58.08 133.428 54.2458 137.333 49.5161 137.333H32.9929Z" fill="#FEE1D3"/>
  <path d="M34.1012 120.763C35.0471 120.763 35.814 121.544 35.814 122.507C35.814 123.47 35.0471 124.251 34.1012 124.251C33.1553 124.251 32.3884 123.47 32.3884 122.507C32.3884 121.544 33.1553 120.763 34.1012 120.763ZM40.0959 120.763C41.0418 120.763 41.8087 121.544 41.8087 122.507C41.8087 123.47 41.0418 124.251 40.0959 124.251C39.15 124.251 38.3831 123.47 38.3831 122.507C38.3831 121.544 39.15 120.763 40.0959 120.763ZM46.0906 120.763C47.0365 120.763 47.8034 121.544 47.8034 122.507C47.8034 123.47 47.0365 124.251 46.0906 124.251C45.1446 124.251 44.3778 123.47 44.3778 122.507C44.3778 121.544 45.1446 120.763 46.0906 120.763Z" fill="#FC6D26"/>
  <path d="M66.4536 54.7835C81.1156 54.7835 93.0015 42.8687 93.0015 28.1711C93.0015 13.4734 81.1156 1.55859 66.4536 1.55859C51.7916 1.55859 39.9056 13.4734 39.9056 28.1711C39.9056 42.8687 51.7916 54.7835 66.4536 54.7835Z" fill="white"/>
  <path d="M66.4536 53.0666C80.1697 53.0666 91.2887 41.9205 91.2887 28.1711C91.2887 14.4216 80.1697 3.27551 66.4536 3.27551C52.7375 3.27551 41.6184 14.4216 41.6184 28.1711C41.6184 41.9205 52.7375 53.0666 66.4536 53.0666Z" stroke="#C2B7E6" stroke-width="4"/>
  <path d="M73.3005 26.4541H59.6067C58.6585 26.4541 57.8898 27.2228 57.8898 28.171C57.8898 29.1193 58.6585 29.888 59.6067 29.888H73.3005C74.2488 29.888 75.0175 29.1193 75.0175 28.171C75.0175 27.2228 74.2488 26.4541 73.3005 26.4541Z" fill="#6B4FBB"/>
  <path d="M280.717 121.952C297.336 121.952 310.809 108.372 310.809 91.6211C310.809 74.8699 297.336 61.2903 280.717 61.2903C264.098 61.2903 250.626 74.8699 250.626 91.6211C250.626 108.372 264.098 121.952 280.717 121.952Z" fill="white"/>
  <path d="M280.717 120.219C296.387 120.219 309.089 107.415 309.089 91.6212C309.089 75.8272 296.387 63.0236 280.717 63.0236C265.048 63.0236 252.345 75.8272 252.345 91.6212C252.345 107.415 265.048 120.219 280.717 120.219Z" stroke="#C2B7E6" stroke-width="4"/>
  <path d="M280.717 104.62C287.84 104.62 293.614 98.8003 293.614 91.6211C293.614 84.442 287.84 78.6222 280.717 78.6222C273.595 78.6222 267.821 84.442 267.821 91.6211C267.821 98.8003 273.595 104.62 280.717 104.62Z" fill="#F4F1FA" stroke="#6B4FBB" stroke-width="3"/>
  <path d="M284.516 83.818L284.51 83.818L282.401 81.222L280.291 83.819L280.287 83.819L278.177 81.222L276.066 83.8201L276.063 83.8201L273.953 81.222L271.841 83.8212L269.54 83.8218C271.78 80.1785 275.757 77.7556 280.289 77.7556C284.819 77.7556 288.794 80.1761 291.034 83.8163L288.734 83.8169L286.625 81.222L284.516 83.818Z" fill="#6B4FBB"/>
  <path d="M275.989 94.4797C276.849 94.4797 277.547 93.7818 277.547 92.921C277.547 92.0602 276.849 91.3624 275.989 91.3624C275.128 91.3624 274.43 92.0602 274.43 92.921C274.43 93.7818 275.128 94.4797 275.989 94.4797Z" fill="#6B4FBB"/>
  <path d="M285.446 94.4797C286.307 94.4797 287.004 93.7818 287.004 92.921C287.004 92.0602 286.307 91.3624 285.446 91.3624C284.585 91.3624 283.887 92.0602 283.887 92.921C283.887 93.7818 284.585 94.4797 285.446 94.4797Z" fill="#6B4FBB"/>
  <path d="M250.515 38.7588H83.9429C75.3349 38.7588 68.3567 45.737 68.3567 54.345V175.694C68.3567 184.302 75.3349 191.28 83.9429 191.28H250.515C259.123 191.28 266.101 184.302 266.101 175.694V54.345C266.101 45.737 259.123 38.7588 250.515 38.7588Z" fill="#EFEDF8"/>
  <path d="M248.796 40.4921H85.6624C77.0544 40.4921 70.0762 47.4702 70.0762 56.0783V173.96C70.0762 182.568 77.0544 189.547 85.6624 189.547H248.796C257.404 189.547 264.382 182.568 264.382 173.96V56.0783C264.382 47.4702 257.404 40.4921 248.796 40.4921Z" stroke="#6E49CB" stroke-width="4"/>
  <path d="M100.168 76.8753C100.168 75.9256 99.3979 75.1558 98.4483 75.1558C97.4986 75.1558 96.7288 75.9256 96.7288 76.8753V179.161C96.7288 180.111 97.4986 180.881 98.4483 180.881C99.3979 180.881 100.168 180.111 100.168 179.161V76.8753Z" fill="#EFECF7"/>
  <path d="M86.398 89.8879H81.2668C80.3095 89.8879 79.5336 90.6639 79.5336 91.6211C79.5336 92.5783 80.3095 93.3543 81.2668 93.3543H86.398C87.3552 93.3543 88.1312 92.5783 88.1312 91.6211C88.1312 90.6639 87.3552 89.8879 86.398 89.8879Z" fill="#FEE1D3"/>
  <path d="M86.398 100.286H81.2668C80.3095 100.286 79.5336 101.062 79.5336 102.019C79.5336 102.976 80.3095 103.752 81.2668 103.752H86.398C87.3552 103.752 88.1312 102.976 88.1312 102.019C88.1312 101.062 87.3552 100.286 86.398 100.286Z" fill="white"/>
  <path d="M86.398 110.684H81.2668C80.3095 110.684 79.5336 111.46 79.5336 112.417C79.5336 113.374 80.3095 114.15 81.2668 114.15H86.398C87.3552 114.15 88.1312 113.374 88.1312 112.417C88.1312 111.46 87.3552 110.684 86.398 110.684Z" fill="#FEF0E9"/>
  <path d="M86.398 121.082H81.2668C80.3095 121.082 79.5336 121.858 79.5336 122.815C79.5336 123.772 80.3095 124.548 81.2668 124.548H86.398C87.3552 124.548 88.1312 123.772 88.1312 122.815C88.1312 121.858 87.3552 121.082 86.398 121.082Z" fill="#FEE1D3"/>
  <path d="M86.398 131.48H81.2668C80.3095 131.48 79.5336 132.256 79.5336 133.213C79.5336 134.17 80.3095 134.946 81.2668 134.946H86.398C87.3552 134.946 88.1312 134.17 88.1312 133.213C88.1312 132.256 87.3552 131.48 86.398 131.48Z" fill="white"/>
  <path d="M86.398 141.878H81.2668C80.3095 141.878 79.5336 142.654 79.5336 143.611C79.5336 144.568 80.3095 145.344 81.2668 145.344H86.398C87.3552 145.344 88.1312 144.568 88.1312 143.611C88.1312 142.654 87.3552 141.878 86.398 141.878Z" fill="#F0EDF8"/>
  <path d="M86.398 152.276H81.2668C80.3095 152.276 79.5336 153.052 79.5336 154.009C79.5336 154.967 80.3095 155.743 81.2668 155.743H86.398C87.3552 155.743 88.1312 154.967 88.1312 154.009C88.1312 153.052 87.3552 152.276 86.398 152.276Z" fill="#FEF0E9"/>
  <path d="M86.398 162.674H81.2668C80.3095 162.674 79.5336 163.45 79.5336 164.407C79.5336 165.364 80.3095 166.14 81.2668 166.14H86.398C87.3552 166.14 88.1312 165.364 88.1312 164.407C88.1312 163.45 87.3552 162.674 86.398 162.674Z" fill="#FEE1D3"/>
  <path d="M125.947 89.8879H117.377C116.419 89.8879 115.643 90.6639 115.643 91.6211C115.643 92.5783 116.419 93.3543 117.377 93.3543H125.947C126.904 93.3543 127.68 92.5783 127.68 91.6211C127.68 90.6639 126.904 89.8879 125.947 89.8879Z" fill="#6B4FBB"/>
  <path d="M143.142 89.8879H134.572C133.615 89.8879 132.839 90.6639 132.839 91.6211C132.839 92.5783 133.615 93.3543 134.572 93.3543H143.142C144.099 93.3543 144.875 92.5783 144.875 91.6211C144.875 90.6639 144.099 89.8879 143.142 89.8879Z" fill="white"/>
  <path d="M160.337 89.8879H151.767C150.81 89.8879 150.034 90.6639 150.034 91.6211C150.034 92.5783 150.81 93.3543 151.767 93.3543H160.337C161.294 93.3543 162.07 92.5783 162.07 91.6211C162.07 90.6639 161.294 89.8879 160.337 89.8879Z" fill="#FEF0E9"/>
  <path d="M125.947 100.287H117.377C116.419 100.287 115.643 101.063 115.643 102.02C115.643 102.978 116.419 103.753 117.377 103.753H125.947C126.904 103.753 127.68 102.978 127.68 102.02C127.68 101.063 126.904 100.287 125.947 100.287Z" fill="white"/>
  <path d="M160.337 110.686H151.767C150.81 110.686 150.034 111.462 150.034 112.419C150.034 113.377 150.81 114.153 151.767 114.153H160.337C161.294 114.153 162.07 113.377 162.07 112.419C162.07 111.462 161.294 110.686 160.337 110.686Z" fill="#FEF0E9"/>
  <path d="M125.947 131.485H117.377C116.419 131.485 115.643 132.261 115.643 133.218C115.643 134.175 116.419 134.951 117.377 134.951H125.947C126.904 134.951 127.68 134.175 127.68 133.218C127.68 132.261 126.904 131.485 125.947 131.485Z" fill="#E1DBF1"/>
  <path d="M160.337 121.085H151.767C150.81 121.085 150.034 121.861 150.034 122.819C150.034 123.776 150.81 124.552 151.767 124.552H160.337C161.294 124.552 162.07 123.776 162.07 122.819C162.07 121.861 161.294 121.085 160.337 121.085Z" fill="#FEF0E9"/>
  <path d="M137.124 100.287H134.572C133.615 100.287 132.839 101.063 132.839 102.02C132.839 102.978 133.615 103.753 134.572 103.753H137.124C138.081 103.753 138.857 102.978 138.857 102.02C138.857 101.063 138.081 100.287 137.124 100.287Z" fill="#FEE1D3"/>
  <path d="M143.142 121.085H140.59C139.633 121.085 138.857 121.861 138.857 122.819C138.857 123.776 139.633 124.552 140.59 124.552H143.142C144.099 124.552 144.875 123.776 144.875 122.819C144.875 121.861 144.099 121.085 143.142 121.085Z" fill="#6B4FBB"/>
  <path d="M137.124 131.485H134.572C133.615 131.485 132.839 132.261 132.839 133.218C132.839 134.175 133.615 134.951 134.572 134.951H137.124C138.081 134.951 138.857 134.175 138.857 133.218C138.857 132.261 138.081 131.485 137.124 131.485Z" fill="#FEE1D3"/>
  <path d="M119.929 110.686H117.377C116.419 110.686 115.643 111.462 115.643 112.419C115.643 113.377 116.419 114.153 117.377 114.153H119.929C120.886 114.153 121.662 113.377 121.662 112.419C121.662 111.462 120.886 110.686 119.929 110.686Z" fill="#FC6D26"/>
  <path d="M143.142 110.686H128.554C127.596 110.686 126.82 111.462 126.82 112.419C126.82 113.377 127.596 114.153 128.554 114.153H143.142C144.099 114.153 144.875 113.377 144.875 112.419C144.875 111.462 144.099 110.686 143.142 110.686Z" fill="#E1DBF1"/>
  <path d="M131.965 121.085H117.377C116.419 121.085 115.643 121.861 115.643 122.819C115.643 123.776 116.419 124.552 117.377 124.552H131.965C132.922 124.552 133.698 123.776 133.698 122.819C133.698 121.861 132.922 121.085 131.965 121.085Z" fill="white"/>
  <path d="M148.301 100.287H145.749C144.791 100.287 144.016 101.063 144.016 102.02C144.016 102.978 144.791 103.753 145.749 103.753H148.301C149.258 103.753 150.034 102.978 150.034 102.02C150.034 101.063 149.258 100.287 148.301 100.287Z" fill="#6B4FBB"/>
  <path d="M210.203 89.8879H201.633C200.676 89.8879 199.9 90.6639 199.9 91.6211C199.9 92.5783 200.676 93.3543 201.633 93.3543H210.203C211.161 93.3543 211.937 92.5783 211.937 91.6211C211.937 90.6639 211.161 89.8879 210.203 89.8879Z" fill="#FEE1D3"/>
  <path d="M227.399 89.8879H218.828C217.871 89.8879 217.095 90.6639 217.095 91.6211C217.095 92.5783 217.871 93.3543 218.828 93.3543H227.399C228.356 93.3543 229.132 92.5783 229.132 91.6211C229.132 90.6639 228.356 89.8879 227.399 89.8879Z" fill="white"/>
  <path d="M244.594 89.8879H236.023C235.066 89.8879 234.29 90.6639 234.29 91.6211C234.29 92.5783 235.066 93.3543 236.023 93.3543H244.594C245.551 93.3543 246.327 92.5783 246.327 91.6211C246.327 90.6639 245.551 89.8879 244.594 89.8879Z" fill="#FC6D26"/>
  <path d="M210.203 100.287H201.633C200.676 100.287 199.9 101.063 199.9 102.02C199.9 102.978 200.676 103.753 201.633 103.753H210.203C211.161 103.753 211.937 102.978 211.937 102.02C211.937 101.063 211.161 100.287 210.203 100.287Z" fill="#FEF0E9"/>
  <path d="M244.594 110.686H236.023C235.066 110.686 234.29 111.462 234.29 112.419C234.29 113.377 235.066 114.153 236.023 114.153H244.594C245.551 114.153 246.327 113.377 246.327 112.419C246.327 111.462 245.551 110.686 244.594 110.686Z" fill="white"/>
  <path d="M210.203 131.485H201.633C200.676 131.485 199.9 132.261 199.9 133.218C199.9 134.175 200.676 134.951 201.633 134.951H210.203C211.161 134.951 211.937 134.175 211.937 133.218C211.937 132.261 211.161 131.485 210.203 131.485Z" fill="white"/>
  <path d="M244.594 121.085H236.023C235.066 121.085 234.29 121.861 234.29 122.819C234.29 123.776 235.066 124.552 236.023 124.552H244.594C245.551 124.552 246.327 123.776 246.327 122.819C246.327 121.861 245.551 121.085 244.594 121.085Z" fill="#FEE1D3"/>
  <path d="M221.38 100.287H218.828C217.871 100.287 217.095 101.063 217.095 102.02C217.095 102.978 217.871 103.753 218.828 103.753H221.38C222.337 103.753 223.113 102.978 223.113 102.02C223.113 101.063 222.337 100.287 221.38 100.287Z" fill="#FC6D26"/>
  <path d="M227.399 121.085H224.847C223.889 121.085 223.113 121.861 223.113 122.819C223.113 123.776 223.889 124.552 224.847 124.552H227.399C228.356 124.552 229.132 123.776 229.132 122.819C229.132 121.861 228.356 121.085 227.399 121.085Z" fill="#6B4FBB"/>
  <path d="M221.38 131.485H218.828C217.871 131.485 217.095 132.261 217.095 133.218C217.095 134.175 217.871 134.951 218.828 134.951H221.38C222.337 134.951 223.113 134.175 223.113 133.218C223.113 132.261 222.337 131.485 221.38 131.485Z" fill="#FC6D26"/>
  <path d="M204.185 110.686H201.633C200.676 110.686 199.9 111.462 199.9 112.419C199.9 113.377 200.676 114.153 201.633 114.153H204.185C205.142 114.153 205.918 113.377 205.918 112.419C205.918 111.462 205.142 110.686 204.185 110.686Z" fill="#6B4FBB"/>
  <path d="M227.399 110.686H212.81C211.853 110.686 211.077 111.462 211.077 112.419C211.077 113.377 211.853 114.153 212.81 114.153H227.399C228.356 114.153 229.132 113.377 229.132 112.419C229.132 111.462 228.356 110.686 227.399 110.686Z" fill="#FEE1D3"/>
  <path d="M216.222 121.085H201.633C200.676 121.085 199.9 121.861 199.9 122.819C199.9 123.776 200.676 124.552 201.633 124.552H216.222C217.179 124.552 217.955 123.776 217.955 122.819C217.955 121.861 217.179 121.085 216.222 121.085Z" fill="#FEF0E9"/>
  <path d="M232.557 100.287H230.005C229.048 100.287 228.272 101.063 228.272 102.02C228.272 102.978 229.048 103.753 230.005 103.753H232.557C233.514 103.753 234.29 102.978 234.29 102.02C234.29 101.063 233.514 100.287 232.557 100.287Z" fill="#6B4FBB"/>
  <path d="M125.947 141.884H117.377C116.419 141.884 115.643 142.66 115.643 143.617C115.643 144.574 116.419 145.35 117.377 145.35H125.947C126.904 145.35 127.68 144.574 127.68 143.617C127.68 142.66 126.904 141.884 125.947 141.884Z" fill="#F0EDF8"/>
  <path d="M143.142 141.884H134.572C133.614 141.884 132.838 142.66 132.838 143.617C132.838 144.574 133.614 145.35 134.572 145.35H143.142C144.099 145.35 144.875 144.574 144.875 143.617C144.875 142.66 144.099 141.884 143.142 141.884Z" fill="#6B4FBB"/>
  <path d="M160.337 141.884H151.767C150.809 141.884 150.033 142.66 150.033 143.617C150.033 144.574 150.809 145.35 151.767 145.35H160.337C161.294 145.35 162.07 144.574 162.07 143.617C162.07 142.66 161.294 141.884 160.337 141.884Z" fill="#E1DBF1"/>
  <path d="M125.947 152.282H117.377C116.419 152.282 115.643 153.058 115.643 154.015C115.643 154.972 116.419 155.748 117.377 155.748H125.947C126.904 155.748 127.68 154.972 127.68 154.015C127.68 153.058 126.904 152.282 125.947 152.282Z" fill="white"/>
  <path d="M160.337 162.68H151.767C150.809 162.68 150.033 163.456 150.033 164.413C150.033 165.37 150.809 166.146 151.767 166.146H160.337C161.294 166.146 162.07 165.37 162.07 164.413C162.07 163.456 161.294 162.68 160.337 162.68Z" fill="#FEE1D3"/>
  <path d="M137.124 152.282H134.572C133.614 152.282 132.838 153.058 132.838 154.015C132.838 154.972 133.614 155.748 134.572 155.748H137.124C138.081 155.748 138.857 154.972 138.857 154.015C138.857 153.058 138.081 152.282 137.124 152.282Z" fill="white"/>
  <path d="M119.929 162.68H117.377C116.419 162.68 115.643 163.456 115.643 164.413C115.643 165.37 116.419 166.146 117.377 166.146H119.929C120.886 166.146 121.662 165.37 121.662 164.413C121.662 163.456 120.886 162.68 119.929 162.68Z" fill="#6B4FBB"/>
  <path d="M143.142 162.68H128.553C127.596 162.68 126.82 163.456 126.82 164.413C126.82 165.37 127.596 166.146 128.553 166.146H143.142C144.099 166.146 144.875 165.37 144.875 164.413C144.875 163.456 144.099 162.68 143.142 162.68Z" fill="white"/>
  <path d="M148.3 152.282H145.748C144.791 152.282 144.015 153.058 144.015 154.015C144.015 154.972 144.791 155.748 145.748 155.748H148.3C149.257 155.748 150.033 154.972 150.033 154.015C150.033 153.058 149.257 152.282 148.3 152.282Z" fill="#FC6D26"/>
  <path d="M182.705 102.873C182.705 101.924 181.935 101.154 180.985 101.154C180.035 101.154 179.266 101.924 179.266 102.873V154.03C179.266 154.979 180.035 155.749 180.985 155.749C181.935 155.749 182.705 154.979 182.705 154.03V102.873Z" fill="#EFECF7"/>
  <path d="M264.861 62.1569H69.5967C68.9119 62.1569 68.3567 62.6046 68.3567 63.1569C68.3567 63.7091 68.9119 64.1569 69.5967 64.1569H264.861C265.546 64.1569 266.101 63.7091 266.101 63.1569C266.101 62.6046 265.546 62.1569 264.861 62.1569Z" fill="#6F49CB"/>
  <path d="M219.889 223.52C234.577 223.52 246.485 211.584 246.485 196.86C246.485 182.136 234.577 170.2 219.889 170.2C205.201 170.2 193.294 182.136 193.294 196.86C193.294 211.584 205.201 223.52 219.889 223.52Z" fill="white"/>
  <path d="M219.889 221.8C233.63 221.8 244.769 210.634 244.769 196.86C244.769 183.086 233.63 171.92 219.889 171.92C206.149 171.92 195.01 183.086 195.01 196.86C195.01 210.634 206.149 221.8 219.889 221.8Z" stroke="#FEDBCA" stroke-width="4"/>
  <path d="M218.173 195.14V189.98C218.173 189.03 218.941 188.26 219.889 188.26C220.837 188.26 221.605 189.03 221.605 189.98V195.14H226.752C227.7 195.14 228.468 195.91 228.468 196.86C228.468 197.81 227.7 198.58 226.752 198.58H221.605V203.74C221.605 204.69 220.837 205.46 219.889 205.46C218.941 205.46 218.173 204.69 218.173 203.74V198.58H213.026C212.078 198.58 211.31 197.81 211.31 196.86C211.31 195.91 212.078 195.14 213.026 195.14H218.173Z" fill="#FC6D26"/>
</svg>
