<svg width="398" height="230" viewBox="0 0 398 230" fill="none" xmlns="http://www.w3.org/2000/svg">
  <rect x="178" y="82.9833" width="18.8333" height="3.76667" rx="1.88333" fill="#E2DBF5"/>
  <rect x="148.9" y="75.45" width="71.5667" height="3.76667" rx="1.88333" fill="#E2DBF5"/>
  <rect x="296" y="154" width="46.1417" height="3.76667" rx="1.88333" fill="#E2DBF5"/>
  <rect x="228" y="75.45" width="9.41667" height="3.76667" rx="1.88333" fill="#E2DBF5"/>
  <rect x="127.242" y="154.55" width="18.8333" height="3.76667" rx="1.88333" fill="#E2DBF5"/>
  <rect x="153.608" y="154.55" width="86.6333" height="3.76667" rx="1.88333" fill="#E2DBF5"/>
  <rect x="142.308" y="162.083" width="33.9" height="3.76667" rx="1.88333" fill="#E2DBF5"/>
  <rect x="183.742" y="162.083" width="86.6333" height="3.76667" rx="1.88333" fill="#E2DBF5"/>
  <rect x="134.775" y="169.617" width="74.63" height="3.76667" rx="1.88333" fill="#E2DBF5"/>
  <rect x="202" y="82.9833" width="71.5667" height="3.76667" rx="1.88333" fill="#E2DBF5"/>
  <rect x="277" y="82.9833" width="49.9083" height="3.76667" rx="1.88333" fill="#6E49CB"/>
  <rect x="277" y="82.9833" width="49.9083" height="3.76667" rx="1.88333" fill="white" fill-opacity="0.6"/>
  <rect x="70.7417" y="96.1667" width="256.133" height="48.9667" rx="8" fill="#EFEDF8" stroke="#6E49CB" stroke-width="4"/>
  <path d="M29.3083 21.3042H34.4766" stroke="#C2B7E6" stroke-width="2" stroke-linecap="round" stroke-linejoin="round"/>
  <path d="M29.3083 52.3792H34.4766" stroke="#C2B7E6" stroke-width="2" stroke-linecap="round" stroke-linejoin="round"/>
  <path d="M29.3083 31.6625H34.4766" stroke="#C2B7E6" stroke-width="2" stroke-linecap="round" stroke-linejoin="round"/>
  <path d="M29.3083 62.7375H34.4766" stroke="#C2B7E6" stroke-width="2" stroke-linecap="round" stroke-linejoin="round"/>
  <path d="M49.3352 21.3042H64.8399" stroke="#DFDFDF" stroke-width="4" stroke-linecap="round"/>
  <path d="M49.3352 31.6625H58.3796" stroke="#DFDFDF" stroke-width="4" stroke-linecap="round"/>
  <path d="M49.3352 62.7375H58.3796" stroke="#DFDFDF" stroke-width="4" stroke-linecap="round"/>
  <path d="M68.7161 31.6625H89.3889" stroke="#DFDFDF" stroke-width="4" stroke-linecap="round"/>
  <path d="M68.7161 62.7375H89.3889" stroke="#DFDFDF" stroke-width="4" stroke-linecap="round"/>
  <path d="M99.7252 62.7375H113.938" stroke="#DFDFDF" stroke-width="4" stroke-linecap="round"/>
  <path d="M49.3352 42.0208H71.3001" stroke="#FC6D26" stroke-width="4" stroke-linecap="round"/>
  <path d="M106.525 42.0208H128.49" stroke="#FC6D26" stroke-width="4" stroke-linecap="round"/>
  <path d="M81.6366 42.0208H95.8492" stroke="#F4C6AC" stroke-width="4" stroke-linecap="round"/>
  <path d="M124.274 21.3042H139.779" stroke="#DFDFDF" stroke-width="4" stroke-linecap="round"/>
  <path d="M124.274 52.3792H139.779" stroke="#DFDFDF" stroke-width="4" stroke-linecap="round"/>
  <path d="M49.3352 52.3792H64.8399" stroke="#DFDFDF" stroke-width="4" stroke-linecap="round"/>
  <path d="M99.7252 31.6625H113.938" stroke="#DFDFDF" stroke-width="4" stroke-linecap="round"/>
  <path d="M75.1763 21.3042H82.9286" stroke="#DFDFDF" stroke-width="4" stroke-linecap="round"/>
  <path d="M93.265 52.3792H113.938" stroke="#DFDFDF" stroke-width="4" stroke-linecap="round"/>
  <path d="M29.3083 42.0208H34.4766" stroke="#F4C6AC" stroke-width="2" stroke-linecap="round"/>
  <path d="M75.1763 52.3792H82.9286" stroke="#DFDFDF" stroke-width="4" stroke-linecap="round"/>
  <path d="M93.265 21.3042H113.938" stroke="#DFDFDF" stroke-width="4" stroke-linecap="round"/>
  <rect x="83.8667" y="115.883" width="141.367" height="9.53333" rx="4.76667" fill="#FC6D26" stroke="white" stroke-width="2"/>
  <path fill-rule="evenodd" clip-rule="evenodd" d="M295.8 130.067C302.041 130.067 307.1 125.007 307.1 118.767C307.1 112.526 302.041 107.467 295.8 107.467C289.559 107.467 284.5 112.526 284.5 118.767C284.5 125.007 289.559 130.067 295.8 130.067Z" fill="white" stroke="#6E49CB" stroke-width="4" stroke-linecap="round"/>
  <path fill-rule="evenodd" clip-rule="evenodd" d="M295.8 125.358C299.441 125.358 302.392 122.407 302.392 118.767C302.392 115.126 299.441 112.175 295.8 112.175C292.16 112.175 289.208 115.126 289.208 118.767C289.208 122.407 292.16 125.358 295.8 125.358Z" stroke="#6E49CB" stroke-width="2" stroke-linecap="round"/>
  <path d="M304.275 127.242L309.602 132.569" stroke="#6E49CB" stroke-width="2" stroke-linecap="round"/>
  <path d="M308.042 131.008L312.037 135.004" stroke="#6E49CB" stroke-width="4" stroke-linecap="round"/>
  <rect x="200.808" y="188.567" width="110.883" height="22.3667" rx="2" fill="#FCF0EA" stroke="#FC6D26" stroke-width="4"/>
  <path d="M207.283 195.983H250.6" stroke="#FC6D26" stroke-width="4" stroke-linecap="round"/>
  <path d="M207.283 203.517H220.467" stroke="#F4C6AC" stroke-width="2" stroke-linecap="round"/>
  <path d="M224.233 203.517H252.483" stroke="#FC6D26" stroke-width="2" stroke-linecap="round"/>
  <path d="M256.25 203.517H272.258" stroke="#FC6D26" stroke-width="2" stroke-linecap="round"/>
  <path d="M276.025 203.517H295.8" stroke="#F4C6AC" stroke-width="2" stroke-linecap="round"/>
  <path d="M341.825 43.4333C341.825 52.7301 334.288 60.2667 324.992 60.2667C315.695 60.2667 308.158 52.7301 308.158 43.4333C308.158 34.1365 315.695 26.6 324.992 26.6C334.288 26.6 341.825 34.1365 341.825 43.4333Z" fill="#FCF0EA" stroke="#FC6D26" stroke-width="4"/>
  <path d="M316.439 28.7495C319.746 34.167 325.713 37.7833 332.525 37.7833V37.7833C335.263 37.7833 337.864 37.1992 340.211 36.1487" stroke="#FC6D26" stroke-width="2"/>
  <path d="M308.278 42.4952C313.188 40.8813 317.206 37.3032 319.404 32.6905" stroke="#FC6D26" stroke-width="2"/>
  <path fill-rule="evenodd" clip-rule="evenodd" d="M330.642 48.1417C331.682 48.1417 332.525 47.2985 332.525 46.2583C332.525 45.2182 331.682 44.375 330.642 44.375C329.601 44.375 328.758 45.2182 328.758 46.2583C328.758 47.2985 329.601 48.1417 330.642 48.1417Z" fill="#FC6D26"/>
  <path fill-rule="evenodd" clip-rule="evenodd" d="M319.342 48.1417C320.382 48.1417 321.225 47.2985 321.225 46.2583C321.225 45.2182 320.382 44.375 319.342 44.375C318.302 44.375 317.458 45.2182 317.458 46.2583C317.458 47.2985 318.302 48.1417 319.342 48.1417Z" fill="#FC6D26"/>
  <path d="M368.374 124.595L368.947 125.618H370.119H380.317C381.421 125.618 382.317 126.514 382.317 127.618V139.25C382.317 140.355 381.421 141.25 380.317 141.25H360.067C358.962 141.25 358.067 140.355 358.067 139.25V122.767C358.067 121.662 358.962 120.767 360.067 120.767H365.058C365.782 120.767 366.45 121.158 366.803 121.79L368.374 124.595Z" fill="#FCF0EA" stroke="#FC6D26" stroke-width="4"/>
  <path d="M324.992 84.8667C347.875 84.8667 366.425 66.3163 366.425 43.4333C366.425 20.5503 347.875 2 324.992 2C302.109 2 283.558 20.5503 283.558 43.4333C283.558 54.2336 287.691 64.0686 294.46 71.4437" stroke="#C2B7E6" stroke-width="4" stroke-linecap="round"/>
  <path d="M349.645 156H370.192C384.233 156 395.617 145.05 395.617 131.008C395.617 116.966 384.233 105.583 370.192 105.583C356.15 105.583 344.767 116.966 344.767 131.008C344.767 137.636 347.302 143.671 351.457 148.197" stroke="#C2B7E6" stroke-width="4" stroke-linecap="round"/>
  <path d="M307.979 228C323.616 228 336.292 215.352 336.292 199.75C336.292 184.148 323.616 171.5 307.979 171.5H219.525" stroke="#C2B7E6" stroke-width="4" stroke-linecap="round"/>
  <path d="M20.0381 41.55C10.0759 41.55 1.99995 49.5604 1.99995 59.4416C1.99995 69.3229 10.0759 77.3333 20.0381 77.3333H131.95" stroke="#C2B7E6" stroke-width="4" stroke-linecap="round"/>
  <path d="M163.967 84.8667C153.565 84.8667 145.133 93.2987 145.133 103.7" stroke="#C2B7E6" stroke-width="4" stroke-linecap="round"/>
  <path d="M268 137C268 147.401 276.432 155.833 286.833 155.833" stroke="#C2B7E6" stroke-width="4" stroke-linecap="round"/>
  <path d="M98.5209 133.362L98.5209 153.082C98.5209 163.514 106.953 171.971 117.354 171.971" stroke="#C2B7E6" stroke-width="4" stroke-linecap="round"/>
</svg>
