<svg width="318" height="226" viewBox="0 0 318 226" fill="none" xmlns="http://www.w3.org/2000/svg">
  <g clip-path="url(#clip0)">
    <path d="M217 226H233C234.105 226 235 225.105 235 224C235 222.895 234.105 222 233 222H217C215.895 222 215 222.895 215 224C215 225.105 215.895 226 217 226Z" fill="#E2DBF5"/>
    <path d="M117 226H205C206.105 226 207 225.105 207 224C207 222.895 206.105 222 205 222H117C115.895 222 115 222.895 115 224C115 225.105 115.895 226 117 226Z" fill="#E2DBF5"/>
    <path d="M185 218H217C218.105 218 219 217.105 219 216C219 214.895 218.105 214 217 214H185C183.895 214 183 214.895 183 216C183 217.105 183.895 218 185 218Z" fill="#E2DBF5"/>
    <path d="M85 218H173C174.105 218 175 217.105 175 216C175 214.895 174.105 214 173 214H85C83.8954 214 83 214.895 83 216C83 217.105 83.8954 218 85 218Z" fill="#E2DBF5"/>
    <path d="M312 68H212C209.791 68 208 69.7909 208 72V182C208 184.209 209.791 186 212 186H312C314.209 186 316 184.209 316 182V72C316 69.7909 314.209 68 312 68Z" fill="white" stroke="#DFDFDF" stroke-width="4"/>
    <path d="M272 108H252C245.373 108 240 113.373 240 120C240 126.627 245.373 132 252 132H272C278.627 132 284 126.627 284 120C284 113.373 278.627 108 272 108Z" fill="#FEE2D4"/>
    <path d="M272 130C277.523 130 282 125.523 282 120C282 114.477 277.523 110 272 110C266.477 110 262 114.477 262 120C262 125.523 266.477 130 272 130Z" fill="#FCF0EA" stroke="#F4C6AC" stroke-width="4"/>
    <path d="M269 117L275 123" stroke="#F4C6AC" stroke-width="2" stroke-linecap="round"/>
    <path d="M275 117L269 123" stroke="#F4C6AC" stroke-width="2" stroke-linecap="round"/>
    <path d="M272 140H252C245.373 140 240 145.373 240 152C240 158.627 245.373 164 252 164H272C278.627 164 284 158.627 284 152C284 145.373 278.627 140 272 140Z" fill="#FEE2D4"/>
    <path d="M272 162C277.523 162 282 157.523 282 152C282 146.477 277.523 142 272 142C266.477 142 262 146.477 262 152C262 157.523 266.477 162 272 162Z" fill="#FCF0EA" stroke="#F4C6AC" stroke-width="4"/>
    <path d="M269 149L275 155" stroke="#F4C6AC" stroke-width="2" stroke-linecap="round"/>
    <path d="M275 149L269 155" stroke="#F4C6AC" stroke-width="2" stroke-linecap="round"/>
    <path d="M246 75H278C279.105 75 280 75.8954 280 77C280 78.1046 279.105 79 278 79H246C244.895 79 244 78.1046 244 77C244 75.8954 244.895 75 246 75Z" fill="#E2DBF5"/>
    <path d="M232 85.6504L312.999 85.3477" stroke="#DFDFDF" stroke-width="2" stroke-linecap="square"/>
    <path d="M106 78H6C3.79086 78 2 79.7909 2 82V182C2 184.209 3.79086 186 6 186H106C108.209 186 110 184.209 110 182V82C110 79.7909 108.209 78 106 78Z" fill="white" stroke="#DFDFDF" stroke-width="4"/>
    <path d="M23 117V174" stroke="#DFDFDF" stroke-width="4" stroke-linecap="round"/>
    <path d="M39 85H71C72.1046 85 73 85.8954 73 87C73 88.1046 72.1046 89 71 89H39C37.8954 89 37 88.1046 37 87C37 85.8954 37.8954 85 39 85Z" fill="#E2DBF5"/>
    <path d="M13 164H96" stroke="#DFDFDF" stroke-width="4" stroke-linecap="round"/>
    <path d="M5 95.6504L85.9995 95.3477" stroke="#DFDFDF" stroke-width="2" stroke-linecap="square"/>
    <path fill-rule="evenodd" clip-rule="evenodd" d="M47 126V122C47 117.582 50.5817 114 55 114C59.4183 114 63 117.582 63 122V126H67V146H43V126H47ZM51 126H59V122C59 119.791 57.2091 118 55 118C52.7909 118 51 119.791 51 122V126ZM47 130V142H63V130H47ZM53 134H57V138H53V134Z" fill="#A7A7A7"/>
    <path d="M221 21H97C92.5817 21 89 24.5817 89 29V194C89 198.418 92.5817 202 97 202H221C225.418 202 229 198.418 229 194V29C229 24.5817 225.418 21 221 21Z" fill="#EFEDF8" stroke="#6E49CB" stroke-width="4"/>
    <path d="M196 29H122C119.791 29 118 30.7909 118 33V35C118 37.2091 119.791 39 122 39H196C198.209 39 200 37.2091 200 35V33C200 30.7909 198.209 29 196 29Z" fill="#FC6D26" stroke="white" stroke-width="2"/>
    <path fill-rule="evenodd" clip-rule="evenodd" d="M209.972 119C209.991 118.429 210 117.856 210 117.283C210 89.6312 188.237 67.0949 161 66.0387L161 119H209.972Z" fill="white" stroke="#FC6D26" stroke-width="4"/>
    <path fill-rule="evenodd" clip-rule="evenodd" d="M154 80.0117C131.266 80.5428 113 99.1383 113 122C113 145.196 131.804 164 155 164C176.744 164 194.791 147.419 196.812 126H154V80.0117Z" fill="white" stroke="#C2B7E6" stroke-width="2"/>
    <path d="M92 45.6509L226 45.3491" stroke="#C2B7E6" stroke-width="2" stroke-linecap="square"/>
    <path fill-rule="evenodd" clip-rule="evenodd" d="M181 103C183.209 103 185 104.791 185 107C185 109.209 183.209 111 181 111C178.791 111 177 109.209 177 107C177 104.791 178.791 103 181 103ZM181 83C183.79 83 185.722 85.8997 184.742 88.618L181 103L177.258 88.618C176.278 85.8997 178.21 83 181 83Z" fill="#FC6D26"/>
    <path d="M197 149H216M112 70H147" stroke="#C2B7E6" stroke-width="4" stroke-linecap="round"/>
    <path d="M112 187H190M112 178H206H112Z" stroke="white" stroke-width="4" stroke-linecap="round"/>
    <path d="M197 157H208" stroke="#C2B7E6" stroke-width="4" stroke-linecap="round"/>
    <path d="M248 54H203C201.895 54 201 54.8954 201 56C201 57.1046 201.895 58 203 58H248C249.105 58 250 57.1046 250 56C250 54.8954 249.105 54 248 54Z" fill="#E2DBF5"/>
    <path d="M260.18 56H282C296.912 56 309 43.9117 309 29C309 14.0883 296.912 2 282 2C267.088 2 255 14.0883 255 29C255 36.038 257.693 42.447 262.104 47.253" stroke="#C2B7E6" stroke-width="4" stroke-linecap="round"/>
    <path d="M173 76C173 64.9543 181.954 56 193 56" stroke="#C2B7E6" stroke-width="4" stroke-linecap="round"/>
    <path fill-rule="evenodd" clip-rule="evenodd" d="M279.544 14.3675C279.816 13.5509 280.581 13 281.442 13H282.558C283.419 13 284.184 13.5509 284.456 14.3675L285.507 17.5205C286.25 17.7473 286.962 18.0442 287.637 18.4035L290.61 16.9168C291.38 16.5318 292.31 16.6827 292.919 17.2914L293.709 18.0812C294.317 18.69 294.468 19.6199 294.083 20.3899L292.597 23.3634C292.956 24.0376 293.253 24.7501 293.479 25.4932L296.632 26.5442C297.449 26.8164 298 27.5807 298 28.4415V29.5585C298 30.4193 297.449 31.1836 296.632 31.4558L293.479 32.5068C293.253 33.25 292.956 33.9624 292.597 34.6366L294.083 37.6102C294.468 38.38 294.317 39.31 293.709 39.9188L292.919 40.7086C292.31 41.3172 291.38 41.4682 290.61 41.0832L287.637 39.5964C286.962 39.9558 286.25 40.2528 285.507 40.4794L284.456 43.6324C284.184 44.4492 283.419 45 282.558 45H281.442C280.581 45 279.816 44.4492 279.544 43.6324L278.493 40.4794C277.75 40.2528 277.038 39.9558 276.363 39.5966L273.39 41.0834C272.62 41.4684 271.69 41.3174 271.081 40.7086L270.291 39.9188C269.683 39.3102 269.532 38.3802 269.917 37.6102L271.404 34.6366C271.044 33.9624 270.747 33.25 270.521 32.5068L267.368 31.4558C266.551 31.1836 266 30.4193 266 29.5585V28.4415C266 27.5807 266.551 26.8164 267.368 26.5442L270.521 25.4932C270.747 24.75 271.044 24.0375 271.404 23.3633L269.917 20.3898C269.532 19.6198 269.683 18.6898 270.291 18.0811L271.081 17.2913C271.69 16.6826 272.62 16.5317 273.39 16.9167L276.363 18.4035C277.038 18.0441 277.75 17.7472 278.493 17.5205L279.544 14.3675ZM282 37C286.418 37 290 33.4182 290 29C290 24.5817 286.418 21 282 21C277.582 21 274 24.5817 274 29C274 33.4182 277.582 37 282 37Z" fill="#6E49CB"/>
  </g>
  <defs>
    <clipPath id="clip0">
      <rect width="318" height="226" fill="white"/>
    </clipPath>
  </defs>
</svg>
