<svg width="96" height="52" viewBox="0 0 96 52" fill="none" xmlns="http://www.w3.org/2000/svg">
<path d="M80.7289 32.4677C80.7936 31.7234 81.6229 31.3094 82.2566 31.7051L93.2649 38.5778C93.9278 38.9917 93.8794 39.9719 93.1788 40.3203L81.0495 46.3519C80.3502 46.6997 79.5404 46.1493 79.6079 45.3721L80.7289 32.4677Z" fill="#9B51E0"/>
<rect width="10.9484" height="10.9592" rx="1" transform="matrix(0.562307 0.826928 -0.828316 0.560261 9.07764 36.8064)" fill="#1DBA9E"/>
<path d="M39.3947 5.21451C39.1913 4.72729 39.7855 4.30247 40.1854 4.64914L51.5396 14.4924C51.8198 14.7353 51.7486 15.1852 51.4075 15.3281L46.7701 17.2701C46.516 17.3765 46.3971 17.6678 46.5042 17.9216L50.3743 27.0972C50.5804 27.5858 49.9825 28.0128 49.5825 27.6628L37.0327 16.6797C36.7555 16.4371 36.8257 15.9908 37.1638 15.8468L42.3718 13.6286C42.6234 13.5214 42.7409 13.2325 42.6356 12.98L39.3947 5.21451Z" fill="#FA7035"/>
</svg>
