<svg width="86" height="49" viewBox="0 0 86 49" fill="none" xmlns="http://www.w3.org/2000/svg">
<ellipse cx="79.4629" cy="32.2342" rx="6.5" ry="6.42244" fill="#1DBA9E"/>
<path d="M12.6097 29.7149C13.2221 29.2866 14.0713 29.657 14.1742 30.3971L15.8054 42.137C15.9123 42.9067 15.1384 43.4983 14.423 43.1937L2.97453 38.3193C2.25197 38.0117 2.14914 37.0302 2.79234 36.5804L12.6097 29.7149Z" fill="#9B51E0"/>
<path d="M52.7808 12.0758C52.9399 12.357 52.8992 12.6764 52.6865 12.8928L44.9723 20.7521L35.0369 15.8037C34.7606 15.6568 34.6014 15.3756 34.6422 15.0562L35.13 11.7427L36.0994 5.20497C36.1402 4.88555 36.6139 4.77901 36.7514 5.11229L39.8261 10.9967L46.5366 9.90557L47.5059 3.36781C47.5467 3.04839 47.9834 2.95689 48.1579 3.27513L51.2326 9.15958L52.7808 12.0758Z" fill="#FA7035"/>
</svg>
