<svg width="331" height="230" viewBox="0 0 331 230" fill="none" xmlns="http://www.w3.org/2000/svg">
  <path d="M262.283 37.9264H69.5862C60.1354 37.9264 52.4741 45.5877 52.4741 55.0384V186.551C52.4741 196.002 60.1354 203.664 69.5862 203.664H262.283C271.733 203.664 279.395 196.002 279.395 186.551V55.0384C279.395 45.5877 271.733 37.9264 262.283 37.9264Z" fill="#EFEDF8" stroke="#6E49CB" stroke-width="4"/>
  <path d="M72.5838 160.632C75.6497 160.46 78.3152 160.654 80.6691 161.182C81.5089 161.381 82.3914 161.115 82.9793 160.485C83.5671 159.854 83.7697 158.957 83.5095 158.136C83.2493 157.315 82.5666 156.697 81.7222 156.518C78.9184 155.889 75.8095 155.663 72.3154 155.859C71.4518 155.895 70.6747 156.392 70.2815 157.16C69.8883 157.927 69.94 158.847 70.4168 159.566C70.8936 160.285 71.7216 160.692 72.5838 160.632Z" fill="white"/>
  <path d="M87.7995 164.345C89.7179 165.702 91.3055 167.221 93.8472 169.989C94.4258 170.618 95.2974 170.892 96.1335 170.707C96.9697 170.522 97.6434 169.907 97.901 169.092C98.1585 168.278 97.9607 167.388 97.3821 166.758C94.6271 163.76 92.8389 162.048 90.5728 160.445C89.8745 159.946 88.9616 159.858 88.18 160.214C87.3985 160.57 86.8679 161.316 86.7893 162.169C86.7106 163.023 87.0961 163.853 87.7995 164.345Z" fill="#C3B8E3"/>
  <path d="M100.244 176.435C102.786 178.566 105.454 180.152 108.551 181.247C109.794 181.67 111.146 181.017 111.585 179.783C112.023 178.549 111.385 177.193 110.153 176.741C107.626 175.848 105.451 174.555 103.329 172.776C102.675 172.213 101.768 172.044 100.955 172.334C100.141 172.625 99.5476 173.329 99.4004 174.178C99.2533 175.027 99.5756 175.889 100.244 176.435ZM117.929 182.927C118.744 182.957 119.58 182.963 120.44 182.946C122.671 182.904 124.897 182.734 127.109 182.437C128.42 182.258 129.338 181.053 129.159 179.745C128.98 178.437 127.772 177.521 126.46 177.7C124.509 177.966 122.468 178.122 120.341 178.166C119.596 178.182 118.851 178.176 118.107 178.149C117.251 178.118 116.443 178.544 115.988 179.267C115.532 179.99 115.498 180.901 115.899 181.656C116.299 182.411 117.073 182.895 117.929 182.927Z" fill="white"/>
  <path d="M136.129 180.309C139.245 179.217 142.063 177.799 144.55 176.082C145.624 175.325 145.887 173.847 145.138 172.769C144.39 171.691 142.91 171.415 141.822 172.151C139.692 173.621 137.258 174.846 134.539 175.799C133.311 176.251 132.673 177.602 133.107 178.834C133.541 180.067 134.887 180.723 136.129 180.309Z" fill="#C3B8E3"/>
  <path d="M151.435 169.456C153.346 166.858 154.774 163.939 155.65 160.837C155.896 160.012 155.677 159.118 155.078 158.498C154.478 157.878 153.591 157.628 152.754 157.843C151.918 158.057 151.262 158.704 151.038 159.536C150.317 162.088 149.142 164.49 147.569 166.628C146.786 167.692 147.016 169.188 148.084 169.97C149.151 170.751 150.652 170.521 151.435 169.456ZM156.69 151.403C156.541 148.362 155.95 145.26 154.929 142.163C154.515 140.909 153.161 140.226 151.903 140.639C150.645 141.051 149.961 142.402 150.375 143.656C151.264 146.353 151.773 149.031 151.901 151.637C151.943 152.49 152.438 153.256 153.2 153.647C153.962 154.037 154.874 153.992 155.594 153.53C156.314 153.067 156.732 152.256 156.69 151.403Z" fill="white"/>
  <path d="M151.019 133.666C149.503 131.116 147.702 128.626 145.627 126.22C144.764 125.219 143.25 125.106 142.246 125.967C141.242 126.828 141.129 128.337 141.992 129.338C143.887 131.534 145.524 133.798 146.895 136.103C147.331 136.838 148.128 137.285 148.985 137.275C149.841 137.265 150.627 136.8 151.047 136.056C151.466 135.311 151.456 134.4 151.019 133.665V133.666Z" fill="#C3B8E3"/>
  <path d="M141.794 119.488C141.044 117.078 140.673 114.373 140.703 111.539C140.717 110.219 139.655 109.137 138.331 109.123C137.007 109.11 135.923 110.169 135.909 111.489C135.875 114.806 136.313 118.004 137.215 120.904C137.468 121.72 138.139 122.339 138.974 122.527C139.809 122.716 140.682 122.446 141.264 121.819C141.845 121.193 142.047 120.304 141.794 119.488Z" fill="white"/>
  <path d="M141.836 103.467C142.559 100.804 143.61 98.257 144.955 95.9383C145.384 95.199 145.385 94.2877 144.957 93.5478C144.53 92.8078 143.739 92.3516 142.882 92.351C142.026 92.3503 141.234 92.8053 140.805 93.5446C139.249 96.2283 138.038 99.1606 137.209 102.217C136.973 103.046 137.202 103.937 137.808 104.55C138.415 105.163 139.305 105.403 140.139 105.179C140.972 104.955 141.621 104.301 141.836 103.467Z" fill="#C3B8E3"/>
  <path d="M149.933 89.6778C151.911 87.861 154.14 86.4188 156.593 85.3957C157.815 84.8865 158.391 83.4863 157.88 82.2682C157.37 81.0501 155.966 80.4754 154.744 80.9845C151.768 82.226 149.067 83.9726 146.685 86.1614C146.05 86.7386 145.773 87.6111 145.959 88.4479C146.146 89.2848 146.768 89.9579 147.589 90.212C148.41 90.4661 149.304 90.2622 149.933 89.6778ZM164.457 83.6331C167.016 83.4897 169.73 83.7064 172.591 84.3048C173.878 84.5554 175.128 83.7285 175.397 82.4488C175.665 81.1691 174.853 79.9115 173.574 79.626C170.309 78.9431 167.175 78.6921 164.188 78.8594C163.325 78.8964 162.548 79.3937 162.156 80.1612C161.763 80.9286 161.815 81.8474 162.291 82.5661C162.768 83.2848 163.595 83.6921 164.457 83.6323V83.6331Z" fill="white"/>
  <path d="M180.475 86.7806C182.926 87.791 185.454 89.0452 188.055 90.5479C188.796 90.9762 189.71 90.9778 190.452 90.5521C191.195 90.1263 191.653 89.338 191.654 88.4839C191.656 87.6299 191.2 86.84 190.46 86.4117C187.679 84.8045 184.96 83.4555 182.306 82.3615C181.515 82.0352 180.609 82.1549 179.93 82.6753C179.251 83.1957 178.902 84.0378 179.014 84.8844C179.127 85.7311 179.684 86.4536 180.475 86.7798V86.7806Z" fill="#C3B8E3"/>
  <path d="M196.118 94.7128C199.083 95.9766 202.012 96.92 204.905 97.5534C206.189 97.8164 207.447 97.0014 207.728 95.7242C208.009 94.4471 207.209 93.1817 205.932 92.8841C203.337 92.316 200.695 91.4642 198.002 90.3168C197.213 89.9726 196.3 90.077 195.609 90.5902C194.919 91.1035 194.557 91.9466 194.662 92.799C194.768 93.6514 195.323 94.3819 196.118 94.7128ZM214.169 98.5287C217.317 98.4969 220.407 98.0881 223.445 97.3232C224.286 97.1243 224.955 96.489 225.195 95.6606C225.435 94.8322 225.209 93.9392 224.604 93.3235C223.998 92.7079 223.107 92.4651 222.272 92.6881C219.607 93.3628 216.87 93.7186 214.12 93.7479C212.796 93.7613 211.734 94.8424 211.747 96.1626C211.761 97.4828 212.845 98.5422 214.169 98.5287Z" fill="white"/>
  <path d="M232.163 94.1001C234.827 92.7957 237.442 91.2212 240.029 89.3861C241.108 88.6211 241.361 87.1286 240.593 86.0527C239.826 84.9767 238.33 84.7247 237.251 85.4897C234.866 87.1806 232.473 88.622 230.051 89.8084C229.271 90.1782 228.751 90.9376 228.689 91.7965C228.627 92.6554 229.034 93.481 229.753 93.9578C230.472 94.4346 231.392 94.489 232.163 94.1001Z" fill="#C3B8E3"/>
  <path d="M247.087 83.6985C246.103 84.5728 244.595 84.491 243.712 83.5154C242.829 82.5398 242.902 81.0363 243.874 80.1495C245.327 78.8381 246.741 77.4862 248.117 76.0953C248.718 75.482 249.603 75.2368 250.435 75.4526C251.267 75.6685 251.92 76.3123 252.145 77.1399C252.37 77.9675 252.134 78.852 251.525 79.4579C250.086 80.9127 248.606 82.3268 247.087 83.6985Z" fill="white"/>
  <path d="M208.157 104.13C207.558 103.516 207.334 102.63 207.569 101.807C207.804 100.983 208.463 100.348 209.296 100.142C210.129 99.9354 211.01 100.189 211.604 100.807C214.046 103.325 215.659 106.181 216.535 109.376C216.875 110.645 216.123 111.95 214.852 112.297C213.581 112.644 212.268 111.903 211.912 110.638C211.245 108.21 210.034 106.065 208.157 104.13Z" fill="#FDC4A8"/>
  <path d="M212.429 118.511C212.503 117.66 213.027 116.914 213.803 116.552C214.579 116.191 215.49 116.27 216.192 116.759C216.893 117.249 217.28 118.075 217.206 118.926C216.98 121.501 216.563 123.924 215.742 127.855C215.463 129.137 214.199 129.955 212.911 129.687C211.623 129.42 210.792 128.168 211.049 126.881C211.832 123.122 212.225 120.848 212.429 118.511Z" fill="#FEE1D3"/>
  <path d="M209.411 135.687C209.588 134.388 210.781 133.473 212.085 133.637C213.389 133.8 214.318 134.98 214.168 136.282C213.768 139.459 213.851 141.931 214.487 143.987C214.749 144.806 214.55 145.702 213.966 146.334C213.381 146.966 212.502 147.237 211.662 147.043C210.823 146.849 210.152 146.22 209.906 145.397C209.037 142.592 208.933 139.479 209.41 135.687H209.411Z" fill="#FDC4A8"/>
  <path d="M215.319 153.57C214.433 152.589 214.513 151.077 215.497 150.194C216.482 149.311 217.997 149.391 218.883 150.373C221.043 152.767 223.057 154.593 224.951 155.908C226.037 156.663 226.305 158.153 225.548 159.236C224.791 160.319 223.297 160.586 222.211 159.832C219.994 158.292 217.711 156.222 215.319 153.57ZM231.58 163.355C230.716 163.32 229.937 162.824 229.543 162.056C229.149 161.288 229.201 160.367 229.678 159.648C230.155 158.928 230.984 158.521 231.847 158.582C234.06 158.705 236.204 158.141 239.217 156.786C240.424 156.244 241.844 156.779 242.388 157.983C242.932 159.187 242.394 160.602 241.187 161.145C237.536 162.786 234.713 163.53 231.58 163.356V163.355Z" fill="#FEE1D3"/>
  <path d="M248.986 157.731C247.724 158.131 246.376 157.434 245.976 156.176C245.575 154.918 246.274 153.574 247.536 153.174C250.913 152.105 254.119 151.891 257.52 152.719C258.806 153.031 259.595 154.325 259.282 155.607C258.968 156.89 257.671 157.677 256.385 157.364C253.895 156.758 251.571 156.913 248.986 157.73V157.731ZM137.593 82.5782C138.676 83.3374 138.937 84.8284 138.176 85.9085C137.415 86.9887 135.92 87.2489 134.837 86.4898C133.979 85.8882 129.465 81.6739 128.378 80.7495L128.113 80.5256C127.458 79.9755 127.147 79.1186 127.297 78.2778C127.447 77.4369 128.036 76.7398 128.841 76.4491C129.646 76.1583 130.546 76.3181 131.201 76.8683L131.49 77.1121C132.803 78.2292 137.06 82.2045 137.593 82.5782Z" fill="#FDC4A8"/>
  <path d="M123.216 71.7288C124.008 72.054 124.565 72.7758 124.679 73.6223C124.792 74.4688 124.444 75.3114 123.766 75.8327C123.088 76.3539 122.182 76.4747 121.39 76.1495C118.881 75.1192 116.772 75.0817 114.914 76.1096C113.757 76.7419 112.305 76.3233 111.666 75.1728C111.026 74.0223 111.438 72.5725 112.589 71.9288C115.854 70.1232 119.458 70.1861 123.216 71.7295V71.7288Z" fill="#FEE1D3"/>
  <path d="M105.767 76.7551C107.013 76.3086 108.386 76.954 108.834 78.1965C109.281 79.439 108.634 80.8082 107.388 81.2547C103.847 82.5232 100.368 81.92 96.8683 79.7567C96.13 79.3117 95.6884 78.5053 95.7121 77.6453C95.7357 76.7853 96.221 76.0043 96.9827 75.6004C97.7443 75.1964 98.6649 75.2317 99.3932 75.6929C101.734 77.1399 103.728 77.4858 105.767 76.7551Z" fill="#FDC4A8"/>
  <path d="M93.2734 70.3503C94.1696 71.31 94.1232 72.8106 93.1693 73.7134C92.2154 74.6161 90.7103 74.5839 89.7961 73.6412C89.0682 72.8762 88.3179 72.0635 87.3503 70.9957C87.1146 70.7368 85.4031 68.842 84.8974 68.2866C84.5218 67.8738 84.1782 67.4993 83.8482 67.1424C82.9659 66.1701 83.0338 64.6705 84.0003 63.7813C84.9668 62.8922 86.4712 62.9456 87.3719 63.9009C87.7115 64.2675 88.0639 64.6515 88.4474 65.0722C88.9604 65.6372 90.6766 67.536 90.9052 67.7894C91.6842 68.6525 92.4737 69.5062 93.2734 70.3503Z" fill="#FEE1D3"/>
  <path d="M255.952 95.4531L257.55 92.6929C257.84 92.1996 257.842 91.5891 257.557 91.0932C257.271 90.5973 256.741 90.2921 256.167 90.2933C255.594 90.2946 255.065 90.6022 254.782 91.0993L253.184 93.8595L250.416 92.2658C249.652 91.8329 248.681 92.0957 248.242 92.8544C247.803 93.613 248.06 94.583 248.818 95.026L251.586 96.6196L249.988 99.3798C249.554 100.141 249.817 101.11 250.578 101.548C251.339 101.986 252.311 101.729 252.755 100.973L254.354 98.2133L257.121 99.8069C257.616 100.096 258.228 100.099 258.725 99.814C259.223 99.5291 259.529 99.0005 259.528 98.4286C259.526 97.8567 259.218 97.3294 258.719 97.0467L255.952 95.4531ZM134.578 158.188L136.838 155.934C137.242 155.532 137.4 154.945 137.252 154.395C137.104 153.845 136.673 153.415 136.122 153.268C135.57 153.12 134.982 153.278 134.578 153.68L132.318 155.934L130.059 153.68C129.655 153.278 129.066 153.12 128.515 153.268C127.963 153.415 127.532 153.845 127.384 154.395C127.237 154.945 127.394 155.532 127.798 155.934L130.059 158.188L127.798 160.442C127.395 160.845 127.237 161.431 127.385 161.981C127.533 162.531 127.964 162.961 128.515 163.108C129.067 163.255 129.655 163.098 130.059 162.695L132.318 160.442L134.578 162.695C135.202 163.318 136.214 163.318 136.838 162.696C137.462 162.074 137.462 161.064 136.838 160.442L134.578 158.188Z" fill="#E1DBF1"/>
  <path d="M220.795 176.301L223.563 174.707C224.061 174.425 224.37 173.897 224.371 173.325C224.372 172.754 224.066 172.225 223.569 171.94C223.071 171.655 222.459 171.658 221.965 171.947L219.197 173.541L217.599 170.781C217.155 170.025 216.182 169.768 215.421 170.206C214.66 170.644 214.397 171.613 214.831 172.374L216.429 175.134L213.661 176.728C213.163 177.011 212.854 177.538 212.853 178.11C212.852 178.682 213.158 179.21 213.655 179.495C214.152 179.78 214.765 179.777 215.259 179.488L218.027 177.895L219.625 180.655C219.909 181.152 220.437 181.459 221.011 181.461C221.584 181.462 222.114 181.157 222.4 180.661C222.686 180.165 222.683 179.554 222.393 179.061L220.795 176.301Z" fill="#6B4FBB"/>
  <path d="M74.0476 182.149C70.5174 182.149 67.6555 179.296 67.6555 175.775C67.6555 172.254 70.5174 169.401 74.0476 169.401C77.5779 169.401 80.4398 172.254 80.4398 175.775C80.4398 179.296 77.5779 182.149 74.0476 182.149ZM74.0476 178.962C75.8128 178.962 77.2437 177.535 77.2437 175.775C77.2437 174.015 75.8128 172.588 74.0476 172.588C72.2825 172.588 70.8516 174.015 70.8516 175.775C70.8516 177.535 72.2825 178.962 74.0476 178.962Z" fill="#FDC4A8"/>
  <path d="M162.738 105.655C159.649 105.655 157.145 103.158 157.145 100.078C157.145 96.9972 159.649 94.5 162.738 94.5C165.827 94.5 168.332 96.9972 168.332 100.078C168.332 103.158 165.827 105.655 162.738 105.655ZM162.738 102.468C164.062 102.468 165.135 101.398 165.135 100.078C165.135 98.7575 164.062 97.6873 162.738 97.6873C161.415 97.6873 160.341 98.7575 160.341 100.078C160.341 101.398 161.415 102.468 162.738 102.468Z" fill="#C3B8E3"/>
  <path d="M212.277 83.3447C209.188 83.3447 206.684 80.8475 206.684 77.767C206.684 74.6865 209.188 72.1893 212.277 72.1893C215.366 72.1893 217.87 74.6865 217.87 77.767C217.87 80.8475 215.366 83.3447 212.277 83.3447ZM212.277 80.1574C213.134 80.1574 213.925 79.7018 214.353 78.9622C214.781 78.2226 214.781 77.3114 214.353 76.5718C213.925 75.8322 213.134 75.3766 212.277 75.3766C210.953 75.3766 209.88 76.4468 209.88 77.767C209.88 79.0872 210.953 80.1574 212.277 80.1574Z" fill="#6B4FBB"/>
  <path d="M230.373 134.856V138.84H234.368V134.856H230.373ZM230.373 131.669H234.368C236.133 131.669 237.564 133.096 237.564 134.856V138.84C237.564 140.601 236.133 142.028 234.368 142.028H230.373C228.608 142.028 227.177 140.601 227.177 138.84V134.856C227.177 133.096 228.608 131.669 230.373 131.669Z" fill="#FC6D26"/>
  <path d="M135.29 60.7527V64.7368H139.285V60.7527H135.29ZM135.29 57.5654H139.285C141.05 57.5654 142.481 58.9924 142.481 60.7527V64.7368C142.481 66.497 141.05 67.924 139.285 67.924H135.29C133.525 67.924 132.094 66.497 132.094 64.7368V60.7527C132.094 58.9924 133.525 57.5654 135.29 57.5654Z" fill="#FEE1D3"/>
  <path d="M120.391 120.387L117.866 123.982H122.915L120.391 120.387ZM125.533 122.154C126.216 123.128 126.3 124.4 125.75 125.454C125.199 126.508 124.106 127.17 122.915 127.17H117.866C116.674 127.17 115.581 126.508 115.031 125.454C114.48 124.4 114.564 123.128 115.247 122.154L117.772 118.559C118.37 117.707 119.347 117.2 120.39 117.2C121.433 117.2 122.41 117.707 123.008 118.559L125.532 122.154H125.533Z" fill="#FC6D26"/>
  <path d="M264.726 69.74C271.769 75.6075 280.704 78.8216 289.935 78.8081C311.507 78.8081 328.995 61.614 328.995 40.404C328.995 19.194 311.507 2 289.935 2C268.362 2 250.875 19.194 250.875 40.404C250.875 47.8137 253.009 54.7335 256.706 60.6014L254.274 69.4626C254.089 70.1395 254.285 70.8623 254.789 71.3581C255.293 71.8539 256.028 72.0472 256.717 71.8648L264.726 69.74Z" fill="#F9F9F9" stroke="#C3B8E3" stroke-width="4"/>
  <path d="M286.106 27.4622C285.662 27.4622 285.303 27.8162 285.303 28.2529V29.0437C285.303 29.4804 285.662 29.8344 286.106 29.8344H292.524C292.968 29.8344 293.327 29.4804 293.327 29.0437V28.2529C293.327 27.8162 292.968 27.4622 292.524 27.4622H286.106ZM286.106 24.2992H292.524C294.74 24.2992 296.536 26.0693 296.536 28.2529V29.0437C296.536 31.2273 294.74 32.9974 292.524 32.9974H286.106C283.89 32.9974 282.094 31.2273 282.094 29.0437V28.2529C282.094 26.0693 283.89 24.2992 286.106 24.2992Z" fill="#E1DBF1"/>
  <path d="M279.687 32.9975C279.243 32.9975 278.884 33.3515 278.884 33.7882C278.884 34.2249 279.243 34.579 279.687 34.579H298.943C299.386 34.579 299.745 34.2249 299.745 33.7882C299.745 33.3515 299.386 32.9975 298.943 32.9975H279.687ZM279.687 29.8345H298.943C301.159 29.8345 302.955 31.6046 302.955 33.7882C302.955 35.9718 301.159 37.742 298.943 37.742H279.687C277.471 37.742 275.675 35.9718 275.675 33.7882C275.675 31.6046 277.471 29.8345 279.687 29.8345Z" fill="#6B4FBB"/>
  <path d="M292.547 48.8123H286.082C285.209 48.8123 284.501 49.5203 284.501 50.3938C284.501 51.2672 285.209 51.9753 286.082 51.9753H292.547C293.421 51.9753 294.129 51.2672 294.129 50.3938C294.129 49.5203 293.421 48.8123 292.547 48.8123Z" fill="#C3B8E3"/>
  <path d="M292.547 39.3234H286.082C285.209 39.3234 284.501 40.0314 284.501 40.9049C284.501 41.7783 285.209 42.4864 286.082 42.4864H292.547C293.421 42.4864 294.129 41.7783 294.129 40.9049C294.129 40.0314 293.421 39.3234 292.547 39.3234Z" fill="#C3B8E3"/>
  <path d="M292.547 53.5569H286.082C285.209 53.5569 284.501 54.2649 284.501 55.1384C284.501 56.0118 285.209 56.7199 286.082 56.7199H292.547C293.421 56.7199 294.129 56.0118 294.129 55.1384C294.129 54.2649 293.421 53.5569 292.547 53.5569Z" fill="#E1DBF1"/>
  <path d="M292.547 58.3014H286.082C285.209 58.3014 284.501 59.0095 284.501 59.8829C284.501 60.7563 285.209 61.4644 286.082 61.4644H292.547C293.421 61.4644 294.129 60.7563 294.129 59.8829C294.129 59.0095 293.421 58.3014 292.547 58.3014Z" fill="#C3B8E3"/>
  <path d="M292.547 44.0679H286.082C285.209 44.0679 284.501 44.7759 284.501 45.6494C284.501 46.5228 285.209 47.2309 286.082 47.2309H292.547C293.421 47.2309 294.129 46.5228 294.129 45.6494C294.129 44.7759 293.421 44.0679 292.547 44.0679Z" fill="#E1DBF1"/>
  <path d="M271.17 172.309C276.598 168.131 283.26 165.87 290.112 165.881C307.282 165.881 321.201 179.786 321.201 196.94C321.201 214.095 307.282 228 290.112 228C272.941 228 259.023 214.095 259.023 196.94C259.016 192.183 260.108 187.488 262.213 183.221L260.723 177.706L259.234 172.191C259.048 171.503 259.245 170.768 259.749 170.265C260.253 169.761 260.989 169.565 261.677 169.751L271.17 172.309Z" fill="#F9F9F9" stroke="#FEDBCA" stroke-width="4"/>
  <path d="M276.638 200.892C274.268 202.837 273.913 206.327 275.843 208.708C277.773 211.089 281.264 211.468 283.661 209.557L284.532 208.852V210.01C284.532 213.089 287.03 215.585 290.112 215.585C293.194 215.585 295.692 213.089 295.692 210.01V208.852L296.562 209.557C298.11 210.827 300.22 211.171 302.092 210.458C303.963 209.745 305.309 208.085 305.617 206.108C305.926 204.131 305.151 202.141 303.585 200.892L302.641 200.128L303.801 199.859C305.764 199.431 307.345 197.981 307.94 196.064C308.535 194.146 308.052 192.057 306.675 190.594C305.299 189.132 303.242 188.521 301.29 188.996L300.174 189.254L300.67 188.236C302.002 185.472 300.848 182.152 298.088 180.808C295.329 179.463 292 180.598 290.64 183.348L290.112 184.428L289.584 183.348C288.224 180.598 284.895 179.463 282.136 180.808C279.376 182.152 278.222 185.472 279.554 188.236L280.05 189.254L278.934 188.996C276.99 188.544 274.953 189.163 273.591 190.621C272.229 192.078 271.749 194.151 272.334 196.058C272.919 197.965 274.478 199.414 276.423 199.859L277.583 200.127L276.638 200.891V200.892ZM280.993 200.165C280.832 199.658 280.714 199.139 280.64 198.612L280.488 197.527L277.14 196.755C275.877 196.438 275.1 195.168 275.393 193.9C275.686 192.632 276.941 191.832 278.216 192.1L281.547 192.868L282.159 191.956C282.456 191.512 282.791 191.094 283.158 190.706L283.916 189.904L282.42 186.839C281.841 185.653 282.334 184.223 283.521 183.644C284.708 183.066 286.14 183.558 286.719 184.745L288.227 187.834L289.313 187.744C289.845 187.7 290.379 187.7 290.911 187.744L291.997 187.834L293.505 184.745C294.084 183.558 295.516 183.066 296.703 183.644C297.89 184.223 298.383 185.653 297.804 186.839L296.308 189.904L297.065 190.706C297.433 191.094 297.767 191.512 298.065 191.956L298.677 192.868L302.008 192.1C302.843 191.901 303.72 192.165 304.307 192.79C304.894 193.416 305.1 194.308 304.848 195.128C304.595 195.947 303.922 196.569 303.084 196.756L299.736 197.528L299.584 198.611C299.51 199.138 299.392 199.658 299.231 200.164L298.901 201.201L301.58 203.367C302.244 203.905 302.57 204.755 302.437 205.598C302.303 206.441 301.729 207.149 300.932 207.455C300.134 207.761 299.234 207.618 298.57 207.081L295.923 204.94L294.97 205.503C294.51 205.774 294.028 206.007 293.529 206.198L292.503 206.59V210.01C292.503 211.33 291.433 212.399 290.112 212.399C288.791 212.399 287.721 211.33 287.721 210.01V206.59L286.695 206.198C286.196 206.007 285.714 205.774 285.254 205.503L284.301 204.94L281.654 207.081C280.628 207.911 279.122 207.753 278.291 206.728C277.46 205.702 277.618 204.198 278.644 203.367L281.323 201.201L280.993 200.165Z" fill="#FEE1D3"/>
  <path d="M290.112 192.49C287.47 192.49 285.329 194.629 285.329 197.268C285.329 199.907 287.47 202.046 290.112 202.046C292.753 202.046 294.895 199.907 294.895 197.268C294.895 194.629 292.753 192.49 290.112 192.49ZM290.112 195.675C290.992 195.675 291.706 196.388 291.706 197.268C291.706 198.148 290.992 198.861 290.112 198.861C289.231 198.861 288.518 198.148 288.518 197.268C288.518 196.388 289.231 195.675 290.112 195.675Z" fill="#FC6D26"/>
  <path d="M66.7451 121.457C59.6503 127.375 52.8461 130.603 41.3495 130.603C19.6173 130.603 2 113.261 2 91.869C2 70.4765 19.6173 53.1345 41.3495 53.1345C63.0816 53.1345 80.6989 70.4765 80.6989 91.869C80.6989 99.3423 78.5491 106.322 74.8246 112.24L77.2739 121.177C77.461 121.86 77.2632 122.589 76.7554 123.089C76.2475 123.589 75.507 123.784 74.8133 123.6L66.7451 121.457Z" fill="#F9F9F9" stroke="#FEDBCA" stroke-width="4"/>
  <path d="M39.3177 71.6876L26.3501 76.9745C25.5634 77.2954 24.9383 77.9107 24.6123 78.6851L19.2407 91.4493C18.9146 92.2242 18.9146 93.0949 19.2407 93.8698L24.6123 106.634C24.9383 107.408 25.5634 108.024 26.3501 108.345L39.3169 113.632C40.1041 113.953 40.9887 113.953 41.7759 113.632L54.7427 108.345C55.5295 108.024 56.1545 107.408 56.4805 106.634L61.8521 93.8698C62.1783 93.0949 62.1783 92.2242 61.8521 91.4493L56.4805 78.6851C56.1545 77.9107 55.5295 77.2954 54.7427 76.9745L41.7751 71.6868C40.9879 71.3658 40.1033 71.3658 39.3161 71.6868L39.3177 71.6876ZM40.5464 74.6077L53.5133 79.8946L58.8841 92.6595L53.5133 105.424L40.5464 110.711L27.5796 105.424L22.2088 92.6595L27.5796 79.8954L40.5464 74.6085V74.6077ZM40.5464 81.5926C41.4334 81.5926 42.1525 80.8847 42.1525 80.0116C42.1525 79.1384 41.4334 78.4306 40.5464 78.4306C39.6594 78.4306 38.9403 79.1384 38.9403 80.0116C38.9403 80.8847 39.6594 81.5926 40.5464 81.5926ZM50.183 84.7546C51.07 84.7546 51.7891 84.0467 51.7891 83.1736C51.7891 82.3004 51.07 81.5926 50.183 81.5926C49.296 81.5926 48.5769 82.3004 48.5769 83.1736C48.5769 84.0467 49.296 84.7546 50.183 84.7546ZM53.3952 94.2405C54.2822 94.2405 55.0013 93.5327 55.0013 92.6595C55.0013 91.7864 54.2822 91.0785 53.3952 91.0785C52.5082 91.0785 51.7891 91.7864 51.7891 92.6595C51.7891 93.5327 52.5082 94.2405 53.3952 94.2405ZM50.183 102.936C51.07 102.936 51.7891 102.228 51.7891 101.355C51.7891 100.482 51.07 99.774 50.183 99.774C49.296 99.774 48.5769 100.482 48.5769 101.355C48.5769 102.228 49.296 102.936 50.183 102.936ZM40.5464 107.679C41.4334 107.679 42.1525 106.971 42.1525 106.098C42.1525 105.225 41.4334 104.517 40.5464 104.517C39.6594 104.517 38.9403 105.225 38.9403 106.098C38.9403 106.971 39.6594 107.679 40.5464 107.679ZM30.9098 102.936C31.7968 102.936 32.5159 102.228 32.5159 101.355C32.5159 100.482 31.7968 99.774 30.9098 99.774C30.0228 99.774 29.3037 100.482 29.3037 101.355C29.3037 102.228 30.0228 102.936 30.9098 102.936ZM27.6976 94.2405C28.5846 94.2405 29.3037 93.5327 29.3037 92.6595C29.3037 91.7864 28.5846 91.0785 27.6976 91.0785C26.8106 91.0785 26.0915 91.7864 26.0915 92.6595C26.0915 93.5327 26.8106 94.2405 27.6976 94.2405ZM30.9098 85.5451C31.7968 85.5451 32.5159 84.8372 32.5159 83.9641C32.5159 83.0909 31.7968 82.3831 30.9098 82.3831C30.0228 82.3831 29.3037 83.0909 29.3037 83.9641C29.3037 84.8372 30.0228 85.5451 30.9098 85.5451ZM40.5464 101.355C45.4249 101.355 49.38 97.4618 49.38 92.6595C49.38 87.8573 45.4249 83.9641 40.5464 83.9641C35.6679 83.9641 31.7129 87.8573 31.7129 92.6595C31.7129 97.4618 35.6679 101.355 40.5464 101.355ZM40.5464 98.193C37.4418 98.193 34.9251 95.7156 34.9251 92.6595C34.9251 89.6035 37.4418 87.1261 40.5464 87.1261C43.651 87.1261 46.1678 89.6035 46.1678 92.6595C46.1678 95.7156 43.651 98.193 40.5464 98.193Z" fill="#FEE1D3"/>
  <path d="M40.5464 97.0074C42.9857 97.0074 44.9632 95.0608 44.9632 92.6596C44.9632 90.2584 42.9857 88.3119 40.5464 88.3119C38.1071 88.3119 36.1296 90.2584 36.1296 92.6596C36.1296 95.0608 38.1071 97.0074 40.5464 97.0074ZM40.5464 94.6359C39.4376 94.6359 38.5388 93.7511 38.5388 92.6596C38.5388 91.5682 39.4376 90.6834 40.5464 90.6834C41.6552 90.6834 42.554 91.5682 42.554 92.6596C42.554 93.7511 41.6552 94.6359 40.5464 94.6359Z" fill="#FC6D26"/>
</svg>
