<?xml version="1.0" encoding="UTF-8"?>
<svg width="1691px" height="1436px" viewBox="0 0 1691 1436" version="1.1" xmlns="http://www.w3.org/2000/svg" xmlns:xlink="http://www.w3.org/1999/xlink">
    <!-- Generator: Sketch 61.2 (89653) - https://sketch.com -->
    <title>Lines</title>
    <desc>Created with Sketch.</desc>
    <g id="blog-redesign" stroke="none" stroke-width="1" fill="none" fill-rule="evenodd" opacity="0.2" stroke-linecap="square">
        <g id="Lines" transform="translate(0.000000, 1.000000)" stroke="#55448D">
            <path d="M147.64943,937.99161 L1668,417.71893 M147.64943,933.989512 L1668,413.716833 M147.64943,941.993707 L1668,421.721028 M147.64943,945.995805 L1668,425.723125 M147.64943,945.995805 L1668,425.723125 M147.64943,941.993707 L1668,421.721028 M147.64943,949.997902 L1668,429.725223 M147.64943,954 L1668,433.72732 M147.64943,917.981122 L1668,397.708443 M147.64943,913.979025 L1668,393.706345 M147.64943,921.98322 L1668,401.71054 M147.64943,925.985317 L1668,405.712638 M147.64943,925.985317 L1668,405.712638 M147.64943,921.98322 L1668,401.71054 M147.64943,929.987415 L1668,409.714735 M147.64943,933.989512 L1668,413.716833 M147.64943,897.970635 L1668,377.697955 M147.64943,893.968537 L1668,373.695857 M147.64943,901.972732 L1668,381.700052 M147.64943,905.97483 L1668,385.70215 M147.64943,905.97483 L1668,385.70215 M147.64943,901.972732 L1668,381.700052 M147.64943,909.976927 L1668,389.704248 M147.64943,913.979025 L1668,393.706345 M147.64943,877.960147 L1668,357.687467 M147.64943,873.958049 L1668,353.68537 M147.64943,881.962244 L1668,361.689565 M147.64943,885.964342 L1668,365.691662 M147.64943,885.964342 L1668,365.691662 M147.64943,881.962244 L1668,361.689565 M147.64943,889.966439 L1668,369.69376 M147.64943,893.968537 L1668,373.695857 M147.64943,857.949659 L1668,337.67698 M147.64943,853.947562 L1668,333.674882 M147.64943,861.951757 L1668,341.679077 M147.64943,865.953854 L1668,345.681175 M147.64943,865.953854 L1668,345.681175 M147.64943,861.951757 L1668,341.679077 M147.64943,869.955952 L1668,349.683272 M147.64943,873.958049 L1668,353.68537 M147.64943,837.939171 L1668,317.666492 M147.64943,833.937074 L1668,313.664394 M147.64943,841.941269 L1668,321.668589 M147.64943,845.943367 L1668,325.670687 M147.64943,845.943367 L1668,325.670687 M147.64943,841.941269 L1668,321.668589 M147.64943,849.945464 L1668,329.672784 M147.64943,853.947562 L1668,333.674882 M147.64943,817.928684 L1668,297.656004 M147.64943,813.926586 L1668,293.653907 M147.64943,821.930781 L1668,301.658102 M147.64943,825.932879 L1668,305.660199 M147.64943,825.932879 L1668,305.660199 M147.64943,821.930781 L1668,301.658102 M147.64943,829.934976 L1668,309.662297 M147.64943,833.937074 L1668,313.664394 M147.64943,797.918196 L1668,277.645517 M147.64943,793.916099 L1668,273.643419 M147.64943,801.920294 L1668,281.647614 M147.64943,805.922391 L1668,285.649712 M147.64943,805.922391 L1668,285.649712 M147.64943,801.920294 L1668,281.647614 M147.64943,809.924489 L1668,289.651809 M147.64943,813.926586 L1668,293.653907 M147.64943,777.907708 L1668,257.635029 M147.64943,773.905611 L1668,253.632931 M147.64943,781.909806 L1668,261.637126 M147.64943,785.911904 L1668,265.639224 M147.64943,785.911904 L1668,265.639224 M147.64943,781.909806 L1668,261.637126 M147.64943,789.914001 L1668,269.641321 M147.64943,793.916099 L1668,273.643419 M147.64943,757.897221 L1668,237.624541 M147.64943,753.895123 L1668,233.622444 M147.64943,761.899318 L1668,241.626639 M147.64943,765.901416 L1668,245.628736 M147.64943,765.901416 L1668,245.628736 M147.64943,761.899318 L1668,241.626639 M147.64943,769.903513 L1668,249.630834 M147.64943,773.905611 L1668,253.632931 M147.64943,737.886733 L1668,217.614053 M147.64943,733.884636 L1668,213.611956 M147.64943,741.888831 L1668,221.616151 M147.64943,745.890928 L1668,225.618249 M147.64943,745.890928 L1668,225.618249 M147.64943,741.888831 L1668,221.616151 M147.64943,749.893026 L1668,229.620346 M147.64943,753.895123 L1668,233.622444 M147.64943,717.876245 L1668,197.603566 M147.64943,713.874148 L1668,193.601468 M147.64943,721.878343 L1668,201.605663 M147.64943,725.88044 L1668,205.607761 M147.64943,725.88044 L1668,205.607761 M147.64943,721.878343 L1668,201.605663 M147.64943,729.882538 L1668,209.609858 M147.64943,733.884636 L1668,213.611956 M147.64943,697.865758 L1668,177.593078 M147.64943,693.86366 L1668,173.590981 M147.64943,701.867855 L1668,181.595176 M147.64943,705.869953 L1668,185.597273 M147.64943,705.869953 L1668,185.597273 M147.64943,701.867855 L1668,181.595176 M147.64943,709.87205 L1668,189.599371 M147.64943,713.874148 L1668,193.601468 M147.64943,677.85527 L1668,157.58259 M147.64943,673.853173 L1668,153.580493 M147.64943,681.857368 L1668,161.584688 M147.64943,685.859465 L1668,165.586786 M147.64943,685.859465 L1668,165.586786 M147.64943,681.857368 L1668,161.584688 M147.64943,689.861563 L1668,169.588883 M147.64943,693.86366 L1668,173.590981 M147.64943,657.844782 L1668,137.572103 M147.64943,653.842685 L1668,133.570005 M147.64943,661.84688 L1668,141.5742 M147.64943,665.848977 L1668,145.576298 M147.64943,665.848977 L1668,145.576298 M147.64943,661.84688 L1668,141.5742 M147.64943,669.851075 L1668,149.578395 M147.64943,673.853173 L1668,153.580493 M147.64943,637.834295 L1668,117.561615 M147.64943,633.832197 L1668,113.559518 M147.64943,641.836392 L1668,121.563713 M147.64943,645.83849 L1668,125.56581 M147.64943,645.83849 L1668,125.56581 M147.64943,641.836392 L1668,121.563713 M147.64943,649.840587 L1668,129.567908 M147.64943,653.842685 L1668,133.570005 M3.15400595e-10,664.348191 L1520.35057,144.075511 M3.15400595e-10,660.346093 L1520.35057,140.073414 M3.15400595e-10,668.350288 L1520.35057,148.077609 M3.15400595e-10,672.352386 L1520.35057,152.079706 M3.15400595e-10,672.352386 L1520.35057,152.079706 M3.15400595e-10,668.350288 L1520.35057,148.077609 M3.15400595e-10,676.354483 L1520.35057,156.081804 M3.15400595e-10,680.356581 L1520.35057,160.083901 M3.15400595e-10,644.337703 L1520.35057,124.065024 M3.15400595e-10,640.335606 L1520.35057,120.062926 M3.15400595e-10,648.339801 L1520.35057,128.067121 M3.15400595e-10,652.341898 L1520.35057,132.069219 M3.15400595e-10,652.341898 L1520.35057,132.069219 M3.15400595e-10,648.339801 L1520.35057,128.067121 M3.15400595e-10,656.343996 L1520.35057,136.071316 M3.15400595e-10,660.346093 L1520.35057,140.073414 M3.15400595e-10,624.327216 L1520.35057,104.054536 M3.15400595e-10,620.325118 L1520.35057,100.052438 M3.15400595e-10,628.329313 L1520.35057,108.056633 M3.15400595e-10,632.331411 L1520.35057,112.058731 M3.15400595e-10,632.331411 L1520.35057,112.058731 M3.15400595e-10,628.329313 L1520.35057,108.056633 M3.15400595e-10,636.333508 L1520.35057,116.060829 M3.15400595e-10,640.335606 L1520.35057,120.062926 M3.15400595e-10,604.316728 L1520.35057,84.0440482 M3.15400595e-10,600.31463 L1520.35057,80.0419507 M3.15400595e-10,608.318825 L1520.35057,88.0461458 M3.15400595e-10,612.320923 L1520.35057,92.0482433 M3.15400595e-10,612.320923 L1520.35057,92.0482433 M3.15400595e-10,608.318825 L1520.35057,88.0461458 M3.15400595e-10,616.32302 L1520.35057,96.0503408 M3.15400595e-10,620.325118 L1520.35057,100.052438 M3.15400595e-10,584.30624 L1520.35057,64.0335606 M3.15400595e-10,580.304143 L1520.35057,60.031463 M3.15400595e-10,588.308338 L1520.35057,68.0356581 M3.15400595e-10,592.310435 L1520.35057,72.0377556 M3.15400595e-10,592.310435 L1520.35057,72.0377556 M3.15400595e-10,588.308338 L1520.35057,68.0356581 M3.15400595e-10,596.312533 L1520.35057,76.0398532 M3.15400595e-10,600.31463 L1520.35057,80.0419507 M3.15400595e-10,564.295752 L1520.35057,44.0230729 M3.15400595e-10,560.293655 L1520.35057,40.0209754 M3.15400595e-10,568.29785 L1520.35057,48.0251704 M3.15400595e-10,572.299948 L1520.35057,52.027268 M3.15400595e-10,572.299948 L1520.35057,52.027268 M3.15400595e-10,568.29785 L1520.35057,48.0251704 M3.15400595e-10,576.302045 L1520.35057,56.0293655 M3.15400595e-10,580.304143 L1520.35057,60.031463 M3.15400595e-10,544.285265 L1520.35057,24.0125852 M3.15400595e-10,540.283167 L1520.35057,20.0104877 M3.15400595e-10,548.287362 L1520.35057,28.0146827 M3.15400595e-10,552.28946 L1520.35057,32.0167803 M3.15400595e-10,552.28946 L1520.35057,32.0167803 M3.15400595e-10,548.287362 L1520.35057,28.0146827 M3.15400595e-10,556.291557 L1520.35057,36.0188778 M3.15400595e-10,560.293655 L1520.35057,40.0209754 M3.15400595e-10,524.274777 L1520.35057,4.00209754 M3.15400595e-10,520.27268 L1520.35057,-3.01281333e-10 M3.15400595e-10,528.276875 L1520.35057,8.00419507 M3.15400595e-10,532.278972 L1520.35057,12.0062926 M3.15400595e-10,532.278972 L1520.35057,12.0062926 M3.15400595e-10,528.276875 L1520.35057,8.00419507 M3.15400595e-10,536.28107 L1520.35057,16.0083901 M3.15400595e-10,540.283167 L1520.35057,20.0104877" id="Combined-Shape"></path>
            <path d="M170.64943,1417.99161 L1691,897.71893 M170.64943,1413.98951 L1691,893.716833 M170.64943,1421.99371 L1691,901.721028 M170.64943,1425.9958 L1691,905.723125 M170.64943,1425.9958 L1691,905.723125 M170.64943,1421.99371 L1691,901.721028 M170.64943,1429.9979 L1691,909.725223 M170.64943,1434 L1691,913.72732 M170.64943,1397.98112 L1691,877.708443 M170.64943,1393.97902 L1691,873.706345 M170.64943,1401.98322 L1691,881.71054 M170.64943,1405.98532 L1691,885.712638 M170.64943,1405.98532 L1691,885.712638 M170.64943,1401.98322 L1691,881.71054 M170.64943,1409.98741 L1691,889.714735 M170.64943,1413.98951 L1691,893.716833 M170.64943,1377.97063 L1691,857.697955 M170.64943,1373.96854 L1691,853.695857 M170.64943,1381.97273 L1691,861.700052 M170.64943,1385.97483 L1691,865.70215 M170.64943,1385.97483 L1691,865.70215 M170.64943,1381.97273 L1691,861.700052 M170.64943,1389.97693 L1691,869.704248 M170.64943,1393.97902 L1691,873.706345 M170.64943,1357.96015 L1691,837.687467 M170.64943,1353.95805 L1691,833.68537 M170.64943,1361.96224 L1691,841.689565 M170.64943,1365.96434 L1691,845.691662 M170.64943,1365.96434 L1691,845.691662 M170.64943,1361.96224 L1691,841.689565 M170.64943,1369.96644 L1691,849.69376 M170.64943,1373.96854 L1691,853.695857 M170.64943,1337.94966 L1691,817.67698 M170.64943,1333.94756 L1691,813.674882 M170.64943,1341.95176 L1691,821.679077 M170.64943,1345.95385 L1691,825.681175 M170.64943,1345.95385 L1691,825.681175 M170.64943,1341.95176 L1691,821.679077 M170.64943,1349.95595 L1691,829.683272 M170.64943,1353.95805 L1691,833.68537 M170.64943,1317.93917 L1691,797.666492 M170.64943,1313.93707 L1691,793.664394 M170.64943,1321.94127 L1691,801.668589 M170.64943,1325.94337 L1691,805.670687 M170.64943,1325.94337 L1691,805.670687 M170.64943,1321.94127 L1691,801.668589 M170.64943,1329.94546 L1691,809.672784 M170.64943,1333.94756 L1691,813.674882 M170.64943,1297.92868 L1691,777.656004 M170.64943,1293.92659 L1691,773.653907 M170.64943,1301.93078 L1691,781.658102 M170.64943,1305.93288 L1691,785.660199 M170.64943,1305.93288 L1691,785.660199 M170.64943,1301.93078 L1691,781.658102 M170.64943,1309.93498 L1691,789.662297 M170.64943,1313.93707 L1691,793.664394 M170.64943,1277.9182 L1691,757.645517 M170.64943,1273.9161 L1691,753.643419 M170.64943,1281.92029 L1691,761.647614 M170.64943,1285.92239 L1691,765.649712 M170.64943,1285.92239 L1691,765.649712 M170.64943,1281.92029 L1691,761.647614 M170.64943,1289.92449 L1691,769.651809 M170.64943,1293.92659 L1691,773.653907 M170.64943,1257.90771 L1691,737.635029 M170.64943,1253.90561 L1691,733.632931 M170.64943,1261.90981 L1691,741.637126 M170.64943,1265.9119 L1691,745.639224 M170.64943,1265.9119 L1691,745.639224 M170.64943,1261.90981 L1691,741.637126 M170.64943,1269.914 L1691,749.641321 M170.64943,1273.9161 L1691,753.643419 M170.64943,1237.89722 L1691,717.624541 M170.64943,1233.89512 L1691,713.622444 M170.64943,1241.89932 L1691,721.626639 M170.64943,1245.90142 L1691,725.628736 M170.64943,1245.90142 L1691,725.628736 M170.64943,1241.89932 L1691,721.626639 M170.64943,1249.90351 L1691,729.630834 M170.64943,1253.90561 L1691,733.632931 M170.64943,1217.88673 L1691,697.614053 M170.64943,1213.88464 L1691,693.611956 M170.64943,1221.88883 L1691,701.616151 M170.64943,1225.89093 L1691,705.618249 M170.64943,1225.89093 L1691,705.618249 M170.64943,1221.88883 L1691,701.616151 M170.64943,1229.89303 L1691,709.620346 M170.64943,1233.89512 L1691,713.622444 M170.64943,1197.87625 L1691,677.603566 M170.64943,1193.87415 L1691,673.601468 M170.64943,1201.87834 L1691,681.605663 M170.64943,1205.88044 L1691,685.607761 M170.64943,1205.88044 L1691,685.607761 M170.64943,1201.87834 L1691,681.605663 M170.64943,1209.88254 L1691,689.609858 M170.64943,1213.88464 L1691,693.611956 M170.64943,1177.86576 L1691,657.593078 M170.64943,1173.86366 L1691,653.590981 M170.64943,1181.86786 L1691,661.595176 M170.64943,1185.86995 L1691,665.597273 M170.64943,1185.86995 L1691,665.597273 M170.64943,1181.86786 L1691,661.595176 M170.64943,1189.87205 L1691,669.599371 M170.64943,1193.87415 L1691,673.601468 M170.64943,1157.85527 L1691,637.58259 M170.64943,1153.85317 L1691,633.580493 M170.64943,1161.85737 L1691,641.584688 M170.64943,1165.85947 L1691,645.586786 M170.64943,1165.85947 L1691,645.586786 M170.64943,1161.85737 L1691,641.584688 M170.64943,1169.86156 L1691,649.588883 M170.64943,1173.86366 L1691,653.590981 M170.64943,1137.84478 L1691,617.572103 M170.64943,1133.84268 L1691,613.570005 M170.64943,1141.84688 L1691,621.5742 M170.64943,1145.84898 L1691,625.576298 M170.64943,1145.84898 L1691,625.576298 M170.64943,1141.84688 L1691,621.5742 M170.64943,1149.85107 L1691,629.578395 M170.64943,1153.85317 L1691,633.580493 M170.64943,1117.83429 L1691,597.561615 M170.64943,1113.8322 L1691,593.559518 M170.64943,1121.83639 L1691,601.563713 M170.64943,1125.83849 L1691,605.56581 M170.64943,1125.83849 L1691,605.56581 M170.64943,1121.83639 L1691,601.563713 M170.64943,1129.84059 L1691,609.567908 M170.64943,1133.84268 L1691,613.570005 M23,1144.34819 L1543.35057,624.075511 M23,1140.34609 L1543.35057,620.073414 M23,1148.35029 L1543.35057,628.077609 M23,1152.35239 L1543.35057,632.079706 M23,1152.35239 L1543.35057,632.079706 M23,1148.35029 L1543.35057,628.077609 M23,1156.35448 L1543.35057,636.081804 M23,1160.35658 L1543.35057,640.083901 M23,1124.3377 L1543.35057,604.065024 M23,1120.33561 L1543.35057,600.062926 M23,1128.3398 L1543.35057,608.067121 M23,1132.3419 L1543.35057,612.069219 M23,1132.3419 L1543.35057,612.069219 M23,1128.3398 L1543.35057,608.067121 M23,1136.344 L1543.35057,616.071316 M23,1140.34609 L1543.35057,620.073414 M23,1104.32722 L1543.35057,584.054536 M23,1100.32512 L1543.35057,580.052438 M23,1108.32931 L1543.35057,588.056633 M23,1112.33141 L1543.35057,592.058731 M23,1112.33141 L1543.35057,592.058731 M23,1108.32931 L1543.35057,588.056633 M23,1116.33351 L1543.35057,596.060829 M23,1120.33561 L1543.35057,600.062926 M23,1084.31673 L1543.35057,564.044048 M23,1080.31463 L1543.35057,560.041951 M23,1088.31883 L1543.35057,568.046146 M23,1092.32092 L1543.35057,572.048243 M23,1092.32092 L1543.35057,572.048243 M23,1088.31883 L1543.35057,568.046146 M23,1096.32302 L1543.35057,576.050341 M23,1100.32512 L1543.35057,580.052438 M23,1064.30624 L1543.35057,544.033561 M23,1060.30414 L1543.35057,540.031463 M23,1068.30834 L1543.35057,548.035658 M23,1072.31044 L1543.35057,552.037756 M23,1072.31044 L1543.35057,552.037756 M23,1068.30834 L1543.35057,548.035658 M23,1076.31253 L1543.35057,556.039853 M23,1080.31463 L1543.35057,560.041951 M23,1044.29575 L1543.35057,524.023073 M23,1040.29365 L1543.35057,520.020975 M23,1048.29785 L1543.35057,528.02517 M23,1052.29995 L1543.35057,532.027268 M23,1052.29995 L1543.35057,532.027268 M23,1048.29785 L1543.35057,528.02517 M23,1056.30205 L1543.35057,536.029365 M23,1060.30414 L1543.35057,540.031463 M23,1024.28526 L1543.35057,504.012585 M23,1020.28317 L1543.35057,500.010488 M23,1028.28736 L1543.35057,508.014683 M23,1032.28946 L1543.35057,512.01678 M23,1032.28946 L1543.35057,512.01678 M23,1028.28736 L1543.35057,508.014683 M23,1036.29156 L1543.35057,516.018878 M23,1040.29365 L1543.35057,520.020975 M23,1004.27478 L1543.35057,484.002098 M23,1000.27268 L1543.35057,480 M23,1008.27687 L1543.35057,488.004195 M23,1012.27897 L1543.35057,492.006293 M23,1012.27897 L1543.35057,492.006293 M23,1008.27687 L1543.35057,488.004195 M23,1016.28107 L1543.35057,496.00839 M23,1020.28317 L1543.35057,500.010488" id="Combined-Shape"></path>
        </g>
    </g>
</svg>