<svg xmlns="http://www.w3.org/2000/svg" xmlns:xlink="http://www.w3.org/1999/xlink" viewBox="0 0 57 64" enable-background="new 0 0 57 64"><defs><path id="3" d="m185.8 1055.8h37.5v-110.8l108.1 110.8h49.6l-118.6-122 126.1-140.8h-48.1l-117.1 131.4v-131.4h-37.5z"/><path id="4" d="m303.4 1160.1l184.9-106.8c3.2-1.8 5.1-5.2 5.1-8.8v-213.5c0-3.6 2-7 5.1-8.8l165-95.3c6.8-3.9 15.3 1 15.3 8.8v415.8c0 3.6-1.9 7-5.1 8.8l-360.1 207.9c-6.8 3.9-15.3-1-15.3-8.8v-190.5c0-3.6 1.9-7 5.1-8.8"/><path id="5" d="m462.5 777.5l-184.9-106.8c-3.2-1.8-7-1.8-10.2 0l-210.7 121.7c-3.2 1.8-5.1 5.2-5.1 8.8v243.3c0 3.6 2 7 5.1 8.8l184.9 106.7c3.2 1.8 5.1 5.2 5.1 8.8v190.5c0 7.8-8.5 12.8-15.3 8.8l-360.1-207.9c-3.2-1.8-5.1-5.2-5.1-8.8v-457.3c0-3.6 1.9-7 5.1-8.8l396.1-228.7c3.2-1.8 7-1.8 10.2 0l360.1 207.9c6.8 3.9 6.8 13.7 0 17.7l-165 95.3c-3.2 1.8-7.1 1.8-10.2 0"/><clipPath id="0"><use xlink:href="#3"/></clipPath><clipPath id="1"><use xlink:href="#4"/></clipPath><clipPath id="2"><use xlink:href="#5"/></clipPath></defs><g transform="matrix(.06999 0 0-.06999 9.43 95.86)"><g><use xlink:href="#3"/><path d="M185.8,1055.8h37.5V945l108.1,110.7H381l-118.6-122L388.5,793h-48L223.3,924.4V793h-37.5L185.8,1055.8" clip-path="url(#0)"/></g><g><use xlink:href="#4"/><path d="m303.4 1160.1l184.9-106.8c3.2-1.8 5.1-5.2 5.1-8.8v-213.5c0-3.6 2-7 5.1-8.8l165-95.3c6.8-3.9 15.3 1 15.3 8.8v415.8c0 3.6-1.9 7-5.1 8.8l-360.1 207.9c-6.8 3.9-15.3-1-15.3-8.8v-190.5c0-3.6 1.9-7 5.1-8.8" clip-path="url(#1)"/></g><g><use xlink:href="#5"/><path d="m462.5 777.5l-184.9-106.8c-3.2-1.8-7-1.8-10.2 0l-210.7 121.7c-3.2 1.8-5.1 5.2-5.1 8.8v243.3c0 3.6 2 7 5.1 8.8l184.9 106.7c3.2 1.8 5.1 5.2 5.1 8.8v190.5c0 7.8-8.5 12.8-15.3 8.8l-360.1-207.9c-3.2-1.8-5.1-5.2-5.1-8.8v-457.3c0-3.6 1.9-7 5.1-8.8l396.1-228.7c3.2-1.8 7-1.8 10.2 0l360.1 207.9c6.8 3.9 6.8 13.7 0 17.7l-165 95.3c-3.2 1.8-7.1 1.8-10.2 0" clip-path="url(#2)"/></g></g></svg>