<svg xmlns="http://www.w3.org/2000/svg" viewBox="0 0 42 52" enable-background="new 0 0 42 52"><path d="m21.4 51.9v-5.1h.7v5.1h-.7m-10.7-1.2v-3.8h.7v4.8c0 .2-.2.3-.3.3-.1 0-.2 0-.3-.1l-2.9-3.8v3.9h-.6v-4.8c0-.2.2-.3.3-.3.1 0 .2 0 .3.1l2.8 3.7m6.1-1.6c1.3.6 1.6.9 1.6 1.5 0 .9-.8 1.3-1.9 1.3-.7 0-1.3-.1-2-.4l.2-.5c.6.2 1.2.3 1.8.3.8 0 1.3-.3 1.3-.7 0-.4-.3-.6-1.5-1.1-1.1-.5-1.6-.9-1.6-1.6 0-.9.7-1.2 1.9-1.2.5 0 1.3.1 1.7.2l-.1.6c-.5-.1-1.1-.2-1.6-.2-.9 0-1.2.2-1.2.6-.1.5.1.7 1.4 1.2m16.2-2.2v4.4h2.7v.6h-3c-.2 0-.3-.2-.3-.3v-4.7h.6m7.3 4.5c.5 0 1.1-.1 1.6-.2l.1.6c-.5.1-1.1.2-1.7.2-1.4 0-2.2-.5-2.2-1.6 0-.5.3-1 .8-1.2-.4-.3-.7-.7-.7-1.1 0-.9.7-1.4 2.1-1.4.5 0 1.1.1 1.6.2l-.1.6c-.6-.1-1.1-.1-1.6-.1-.9 0-1.3.2-1.3.8 0 .5.4.8 1 .8h1.2c.2 0 .3.1.3.3 0 .2-.1.3-.3.3h-1.2c-.7 0-1.1.3-1.1.8 0 .8.6 1 1.5 1m-11.8-2.2c.6.2 1 .7 1 1.2 0 .8-.7 1.4-1.6 1.4h-2c-.2 0-.3-.1-.3-.3v-4.4c0-.2.1-.3.3-.3h1.7c1 0 1.6.5 1.6 1.3-.1.5-.3.9-.7 1.1m-.7 2.1c.6 0 .9-.4.9-.9 0-.5-.4-.8-.9-.8h-1.7v1.7h1.7m-1.6-3.9v1.6h1.3c.5 0 .9-.3.9-.8 0-.5-.3-.8-.9-.8h-1.3m-21.8 4.1c0 .1 0 .1 0 .1 0 .2-.2.3-.3.3-.1 0-.2 0-.3-.1l-2.4-1.9-.8 2h-.6l2-4.9c0-.1.2-.2.3-.2.1 0 .2.1.3.2l1.8 4.5m-2.7-2.1l1.8 1.4-1.2-3-.6 1.6m19.3-49.4c11.6 0 21 9.5 21 21.1 0 11.7-9.4 21.1-21 21.1-11.6 0-21-9.5-21-21.1.1-11.6 9.5-21.1 21-21.1m8.6 31.7c.8 0 1.5-.6 1.5-1.5 0-.1-.1-.4-.1-.6l-8.3-20.3c-.2-.6-.7-.9-1.3-.9-.6 0-1.1.3-1.3.9l-9.2 22.2h3.1l3.6-9.2 10.8 8.8c.5.4.8.6 1.2.6m-8.2-18.8l5.4 13.5-8.2-6.5 2.8-7"/></svg>