<svg xmlns="http://www.w3.org/2000/svg" viewBox="0 0 70 52" enable-background="new 0 0 70 52"><path d="m39.2 30.1c.1-3.9-1.8-7.3-4.2-7.5-2.4-.2-4.5 2.8-4.6 6.8v.2c0 .9.1 1.8.3 2.6-4.4.8-9.2 3-15.4 6.6 7.8-14 11.7-21.3 14.2-26.4 1.3 1.1 3 2.1 5.5 3.2-2.4-1.6-3.8-3.1-5-4.3 1.9-4.3 3-7.1 4.7-11.3 3.6 8.3 4.4 10.9 14.8 30.1-1.3-.8-3-1.5-5.4-2.1 3.4 1.8 5.1 3.4 6.7 4.6 1 1.9 2.1 3.9 3.3 6.1-6.1-3.5-10.8-5.7-15.2-6.5.2-.7.3-1.4.3-2.1m-3.4 21.5l.1-12.6 1.1-.3-.1 12.7-1.1.2m2.9.1l.1-8.9.9-.4-.1 9.1-.9.2m15.6-17v.8h-.1v-.9h.2l.2.7c0 .1 0 .1 0 .1v-.1l.2-.6h.2v.9-.8l-.3.8h-.1l-.3-.9m-.6.8v-.8h-.3v-.1h.7v.1h-.3v.8h-.1m12.9 7.8l-2.6 3.6 3.1 4.4-.8.6-2.9-4.1-3 4-.8-.6 3.1-4.3-2.7-3.8.8-.6 2.7 3.4 2.4-3.3.7.7m1.7 6.9v-.1h.7v.1h-.3v.8h-.1v-.8h-.3m-29.7-10.7l.8-.6.6.7-.8.6-.6-.7m7.4 2.7c2.8 0 3.2 2.1 3.2 2.6l-.1 6.7-.9.2.1-6.6c0-.2-.4-1.8-2.4-1.8-2 0-3.3 1.4-3.3 2.3l-.1 5.8-1.1.3.1-9.1 1.1-.2v1.9c0 .1.6-2.1 3.4-2.1m23.8 7.9h.2v.9h-.1v-.8l-.3.8h-.1l-.3-.8v.8h-.1v-.9h.2l.2.7c0 .1 0 .1 0 .1s0-.1.1-.1l.2-.7m-12.3-2.1l.1-5.2 1.1-.3-.1 9.1-1.1.2v-1.9c0-.1-.6 2.1-3.5 2.1-2.8 0-3.2-2.1-3.2-2.6l.1-6.7 1.1-.2v6.5c0 .2.2 1.9 2.1 1.9 2 0 3.4-1.2 3.4-2.9m-37.1 1.6c1.5 0 2.3-1.1 2.3-1.1s1.2 1.2 1.6 1.5c-.1 0-1.2 1.8-3.9 1.8-2.6 0-5.2-1.4-5.2-5 0-4.1 2.8-5 5.2-4.9 2.6 0 3.9 1.5 3.9 1.5l-1.5 1.8c0 0-.8-.9-2.2-.9-1.6.1-2.9 1-2.8 2.6-.2 1.5 1.1 2.7 2.6 2.7m-15.9-8.1c4.6 0 4.1 3.2 4.1 4v5.8l-2.2.4v-.4c.4-.5.9-1.1 1.4-2-.5.6-1.1 1.1-1.6 1.6-.4.3-1 .8-2.4.8-1.6 0-3.9-.9-3.8-3.9 0-2.7 2.5-3.4 4.3-3.3 1.4 0 1.9.8 1.8.7 0-.8-.1-1.3-1.8-1.4-1 0-3.2.6-3.2.6l.5-2.4c.4-.2 1.6-.5 2.9-.5m-.3 8.1c.8 0 2-.5 2-1.5 0-1.1-1-1.5-1.9-1.5-.9 0-1.9.6-1.9 1.4-.1.9 1 1.6 1.8 1.6m25.7-7.6c2.5 0 4.1 1.5 4 2.2v7.3l-2.3.4v-6.9c0-.1-.3-1.1-1.8-1.1-1.5 0-2.4.9-2.4 1.5v5.9l-2.4.5v-12.6l2.4-.6v3.5c-.5.4-1 .9-1.6 1.7.6-.5 1.3-1 1.9-1.4.3-.2 1-.4 2.2-.4m-13.6-.3c-.1.3-.7 1.8-1 2.3-1.5 0-2.6.9-2.6 1.8v5.5l-2.5.5v-9.7l2.3-.4c0 0 0 .5 0 1.4.4-.5.5-1.4 3.8-1.4"/></svg>