<svg xmlns="http://www.w3.org/2000/svg" viewBox="0 0 138 52" enable-background="new 0 0 138 52"><g fill-rule="evenodd"><path d="m83.3 27.8v.6c0 1.1 0 2.1-.5 3.1-.5.8-1.2 1.3-2 1.3-1.1 0-1.7-.9-1.7-2.1 0-2.5 2.1-2.9 4.2-2.9m-37.2 0v.6c0 1.1 0 2.1-.5 3.1-.5.8-1.2 1.3-2 1.3-1.1 0-1.7-.9-1.7-2.1 0-2.5 2.2-2.9 4.2-2.9m63.1-5.5c.9 0 1.6.4 1.9 1.4.4 1.2.4 2.7.4 4 0 1.9-.1 5.1-2.3 5.1-2.2 0-2.2-3.9-2.2-5.8 0-1.8.1-4.7 2.2-4.7m-17.9-2.8c-.3 0-.5.2-.5.6v2.1c0 .3.2.6.5.6h4.9l-5.6 8.2c-.3.5-.4 1.1-.4 1.5v2.2c0 .3.3.7.7.5 3.2-1.7 7-1.6 9.9 0 .3.2.7-.2.7-.5v-2.3c0-.3-.2-.7-.5-.8-1.6-.9-3.5-1.2-5.3-1.2l4.8-7.1c.4-.6.7-1 .7-1.3v-2c0-.3-.2-.6-.5-.6l-9.4.1m34.1-.3c-2 0-3.1 1-3.9 3v-2.2c-.1-.2-.3-.4-.5-.4h-2.6c-.3 0-.5.2-.6.5v15c0 .3.2.5.5.6h2.8c.3 0 .5-.3.6-.6v-8.1c0-1 .1-1.9.5-2.9.3-.7.9-1.2 1.6-1.2 2 0 1.8 2.4 1.8 4v8.1c0 .3.3.5.5.5h2.8c.3 0 .5-.2.6-.5v-9.4c0-1.5 0-3.5-.7-4.7-.9-1.2-2.1-1.7-3.4-1.7m-16.2 0c-4.1 0-6.4 3.6-6.4 8.3 0 4.6 2.3 8.4 6.4 8.4 4 0 6.5-3.6 6.5-8.2 0-4.8-2.3-8.5-6.5-8.5m-48.3 0c-1.7 0-3 .9-3.7 2.8v-2c0-.3-.2-.5-.5-.5h-2.7c-.3 0-.5.3-.6.6v15c0 .3.2.5.5.5h2.8c.3 0 .6-.2.6-.6v-8c0-1.7-.1-4.1 2-4.1 2 0 1.7 2.4 1.7 4.1v8c0 .3.2.5.5.6h2.8c.3 0 .6-.2.6-.6v-8c0-.9 0-2.1.3-2.9.3-.8 1-1.3 1.7-1.3.8 0 1.4.3 1.7 1.3.1.6.1 2.2.1 2.8v8c0 .3.2.5.5.6h2.8c.3 0 .6-.2.6-.6v-9.5c0-1.6.2-3.4-.7-4.7-.8-1.1-2.1-1.6-3.3-1.6-1.7 0-3.2.9-3.9 2.8-.9-1.8-2.1-2.7-3.8-2.7m20.9-.1c-2.7 0-5.7 1-6.3 4.5-.1.4.2.5.4.6l2.8.3c.3 0 .4-.3.5-.6.2-1.2 1.2-1.7 2.3-1.7.6 0 1.2.2 1.6.7.4.6.3 1.4.3 2.1v.4c-1.6.2-3.8.3-5.3 1-1.8.8-3 2.4-3 4.8 0 3 1.9 4.6 4.2 4.6 2 0 3.1-.5 4.7-2.1.5.8.7 1.1 1.6 1.9.2.1.5.1.7-.1.6-.5 1.6-1.5 2.2-2 .2-.2.2-.5 0-.8-.5-.7-1.1-1.3-1.1-2.7v-4.6c0-1.9.1-3.7-1.3-5-1.1-.9-2.9-1.3-4.3-1.3m-37.2 0c1.4 0 3.2.4 4.3 1.4 1.4 1.3 1.2 3.1 1.2 5v4.6c0 1.4.6 2 1.1 2.7.2.3.2.6 0 .8-.6.5-1.6 1.4-2.2 2-.2.2-.4.2-.7.1-.9-.8-1.1-1.2-1.6-1.9-1.6 1.6-2.7 2.1-4.7 2.1-2.4 0-4.2-1.5-4.2-4.6 0-2.4 1.2-4 3-4.8 1.5-.7 3.7-.8 5.4-1v-.5c0-.7 0-1.5-.4-2.1-.3-.5-1-.7-1.6-.7-1.1 0-2.1.6-2.3 1.7-.1.3-.2.5-.5.6l-2.8-.3c-.2-.1-.5-.2-.4-.6.7-3.5 3.7-4.5 6.4-4.5m89.4 21.7h.8l1 3 .2.6c.1-.2.1-.4.2-.7l1-3h.8v4.3h-.6v-3.5l-1.2 3.5h-.5l-1.2-3.6v3.6h-.5v-4.2m-3.9 0h3.4v.5h-1.5v3.7h-.6v-3.7h-1.4v-.5m-91.8-.1h1.5l1.3 6.4.5 2.4.4-2.3 1.3-6.5h1.5l1.3 6.4.4 2.1.5-2.1 1.4-6.4h1.4l-2.6 11.1h-1.5l-1.4-6.6-.2-2-1.7 8.5h-1.5l-2.6-11m16.2-.3c1.1 0 2 .5 2.7 1.5.7 1 1.1 2.4 1.1 4.3v.5h-6.3c.1 1.2.3 2.2.8 2.8.5.6 1.1.9 1.7.9 1.1 0 1.8-.7 2.3-2.3l1.4.2c-.2 1.2-.7 2.1-1.3 2.7-.6.6-1.4.9-2.4.9-1.2 0-2.2-.5-2.9-1.5-.7-1-1.1-2.4-1.1-4.2 0-1.9.4-3.4 1.1-4.4.9-.9 1.8-1.4 2.9-1.4m47.3 10.9v-11h1.4v11.1h-1.4m-9-11.1h1.5l1.8 6.6c.2.8.4 1.5.5 2.3.1-.6.3-1.3.6-2.1l1.9-6.8h1.5l-3.2 11.1h-1.4l-3.2-11.1m32.9-.2c.6 0 1.2.1 1.7.3.5.2.8.6 1.1 1 .3.4.4 1 .5 1.8l-1.4.2c-.1-1.2-.7-1.8-1.8-1.8-.6 0-1.1.1-1.4.4s-.5.6-.5 1c0 .4.1.7.4 1 .2.1.7.4 1.6.7 1.2.4 1.9.7 2.3 1 .4.2.7.5.8 1 .2.4.3.9.3 1.5 0 1.1-.3 1.9-1 2.6s-1.5 1-2.6 1c-2 0-3.2-1.2-3.5-3.6l1.4-.3c.1.8.3 1.4.7 1.7.4.4.9.6 1.5.6.6 0 1.1-.2 1.4-.5.3-.3.5-.8.5-1.3 0-.4-.1-.8-.4-1-.2-.2-.7-.4-1.5-.6-1.1-.4-1.9-.7-2.3-1-.4-.3-.7-.6-.9-1-.2-.4-.3-.9-.3-1.4 0-.9.3-1.7.8-2.3.8-.8 1.6-1.1 2.6-1m-8.5-.1c1.1 0 2 .5 2.7 1.5.7 1 1.1 2.4 1.1 4.3v.5h-6.3c.1 1.2.3 2.2.8 2.8.5.6 1.1.9 1.8.9 1.1 0 1.8-.7 2.3-2.3l1.5.3c-.2 1.2-.7 2.1-1.4 2.7-.6.6-1.4.9-2.4.9-1.2 0-2.2-.5-2.9-1.4-.7-1-1.1-2.4-1.1-4.3 0-1.9.4-3.4 1.1-4.4.7-1 1.6-1.4 2.8-1.5m-8.2.1c.9 0 1.6.3 2.2.9.6.6 1 1.5 1.1 2.6l-1.4.3c-.1-.7-.4-1.3-.7-1.7-.3-.4-.7-.6-1.2-.6-.7 0-1.3.4-1.8 1-.5.7-.7 1.7-.7 3.2 0 1.5.2 2.6.7 3.3.4.7 1 1 1.7 1 .5 0 1-.2 1.4-.7.4-.4.6-1.1.7-2.1l1.4.2c-.2 1.3-.6 2.3-1.2 3-.7.7-1.4 1-2.4 1-1.1 0-2-.5-2.7-1.4-.7-1-1.1-2.4-1.1-4.3 0-1.9.4-3.4 1.1-4.3.8-1 1.7-1.5 2.9-1.4m-17.7-.1c.5 0 1 .2 1.5.6l-.5 1.7c-.4-.3-.7-.4-1-.4-.3 0-.6.1-.8.3-.3.2-.4.6-.6 1-.2.7-.3 1.5-.3 2.3v5.8h-1.4v-11h1.3v1.7c.3-.8.6-1.3.9-1.6s.6-.3.9-.4m-8.7.1c1.1 0 2 .5 2.7 1.5.7 1 1.1 2.4 1.1 4.3v.5h-6.3c.1 1.2.3 2.2.8 2.8.5.6 1 .9 1.7.9 1.1 0 1.9-.7 2.3-2.3l1.5.3c-.2 1.2-.7 2.1-1.4 2.7-.6.6-1.4.9-2.4.9-1.2 0-2.2-.5-2.9-1.4-.7-1-1.1-2.4-1.1-4.3 0-1.9.4-3.4 1.1-4.4.7-1.1 1.7-1.5 2.9-1.5m-8.8 0c.6 0 1.2.1 1.7.3.5.2.9.6 1.1 1 .3.4.4 1 .5 1.8l-1.4.2c-.1-1.2-.7-1.8-1.8-1.8-.6 0-1.1.1-1.4.4s-.4.6-.4 1c0 .4.1.7.4 1 .2.1.7.4 1.6.7 1.2.4 2 .7 2.3 1 .4.2.6.5.8 1 .2.4.3.9.3 1.5 0 1.1-.3 1.9-1 2.6s-1.5 1-2.5 1c-2 0-3.2-1.2-3.5-3.6l1.4-.3c.1.8.3 1.4.7 1.7s.9.6 1.5.6 1.1-.2 1.4-.5c.3-.3.5-.8.5-1.3 0-.4-.1-.8-.4-1-.2-.2-.7-.4-1.4-.6-1.1-.4-1.9-.7-2.3-1-.4-.3-.7-.6-.9-1-.2-.4-.3-.9-.3-1.4 0-.9.3-1.7.8-2.3.5-.7 1.3-1 2.3-1m-13.7-3.6h1.4v5.5c.3-.5.6-.9 1-1.1.4-.2.8-.4 1.3-.4.7 0 1.3.2 1.8.7.5.4 1 1.1 1.3 1.9.3.9.5 1.9.5 3.1 0 1.9-.4 3.4-1.1 4.4-.7 1-1.6 1.5-2.5 1.5-.5 0-.9-.1-1.3-.4-.4-.3-.7-.7-1-1.2v1.4h-1.4v-15.4m3.6 5.5c-.6 0-1.1.4-1.6 1.1-.5.7-.7 1.7-.7 3.1 0 1.1.1 2 .3 2.6.2.6.5 1 .8 1.3.4.3.7.4 1.2.4.6 0 1.1-.4 1.6-1.1.5-.7.7-1.8.7-3.2 0-1.5-.2-2.5-.6-3.2-.5-.7-1.1-1-1.7-1m38.1-3.8v-2.1h1.4v2.1h-1.4m-41.7-35.2v10.3l-7.3 3v-10.5l7.3-2.8m-16.5 0l7.9 3.1v11.1l-8.1-3.6.2-10.6m8.3-3l5.5 2.4-5.9 2.2-5.1-2.2 5.5-2.4m-17.4 17.6v10.3l-7.3 3v-10.5l7.3-2.8m-16.5 0l7.9 3.1v11.1l-8.1-3.6.2-10.6m8.3-3l5.5 2.4-5.9 2.2-5.1-2.2 5.5-2.4m-9.5 3.4v10.3l-7.3 3v-10.5l7.3-2.8m-16.5 0l7.9 3.1v11.1l-8.1-3.6.2-10.6m8.3-3l5.5 2.4-6 2.2-5-2.2 5.5-2.4m33.6-11.3v10.3l-6.5 3v-10.5l6.5-2.8m-15.3-.6l7.1 3-.2 9.7-6.9-2v-10.7m7.7-3.1l5.5 2.4-5.9 2.2-5.1-2.2 5.5-2.4m-8.7 33.2v10.3l-7.3 3v-10.5l7.3-2.8m-16.6 0l7.9 3.1v11.1l-8.1-3.6.2-10.6m8.3-3l5.5 2.4-5.9 2.2-5.1-2.2 5.5-2.4m64.9 11.4c-.6 0-1.2.3-1.6.9-.5.6-.7 1.3-.8 2.3h4.8c-.1-1-.3-1.7-.6-2.1-.5-.8-1.1-1.1-1.8-1.1m34.6 0c-.6 0-1.2.3-1.6.9-.5.6-.7 1.3-.8 2.3h4.8c-.1-1-.3-1.7-.6-2.1-.5-.8-1.1-1.1-1.8-1.1m-62.6.4c-.6 0-1.2.3-1.6.9-.5.6-.7 1.4-.7 2.3h4.7c-.1-1-.3-1.7-.6-2.1-.5-.8-1.1-1.1-1.8-1.1"/></g></svg>
