<?xml version="1.0" encoding="utf-8"?>
<!-- Generator: Adobe Illustrator 24.0.3, SVG Export Plug-In . SVG Version: 6.00 Build 0)  -->
<svg version="1.1" id="Layer_1" xmlns="http://www.w3.org/2000/svg" xmlns:xlink="http://www.w3.org/1999/xlink" x="0px" y="0px"
	 viewBox="0 0 300 225" enable-background="new 0 0 300 225" xml:space="preserve">
<g id="g12" transform="scale(0.1,0.1)">
	<path id="path14" fill="#F68D11" d="M1676.2,780.3l-337.1-112.5V180.3l337.5,100L1676.2,780.3"/>
	<path id="path16" fill="#F68D11" d="M1764.1,280.3l337.5-100l-1.2,487.2l-336.3,112.8V280.3"/>
	<path id="path18" fill="#F68D11" d="M2032.8,127.6l-314.6-97.2l-310.4,97.2l310.9,83.3L2032.8,127.6"/>
	<path id="path20" fill="#F68D11" d="M2526.2,780.3l-337.1-112.5V180.3l337.5,100L2526.2,780.3"/>
	<path id="path22" fill="#F68D11" d="M2614.1,280.3l337.5-100l-1.2,487.2l-336.3,112.8V280.3"/>
	<path id="path24" fill="#F68D11" d="M2882.8,127.6l-314.6-97.2l-310.4,97.2l310.9,83.3L2882.8,127.6"/>
	<path id="path26" fill="#F68D11" d="M401.6,992.8l-337.5-100v487.5l337.1,112.5L401.6,992.8"/>
	<path id="path28" fill="#F68D11" d="M489.1,992.8l337.5-100l-1.2,487.2l-336.3,112.8V992.8"/>
	<path id="path30" fill="#F68D11" d="M757.8,840.1l-314.6-97.2l-310.4,97.2l310.9,83.3L757.8,840.1"/>
	<path id="path32" fill="#F68D11" d="M1251.2,1492.8l-337.1-112.5V892.8l337.5,100L1251.2,1492.8"/>
	<path id="path34" fill="#F68D11" d="M1339.1,992.8l337.5-100l-1.2,487.2l-336.3,112.8V992.8"/>
	<path id="path36" fill="#F68D11" d="M1607.8,840.1l-314.6-97.2l-310.4,97.2l310.9,83.3L1607.8,840.1"/>
	<path id="path38" fill="#F68D11" d="M826.2,2205.3l-337.1-112.5v-487.5l337.5,100L826.2,2205.3"/>
	<path id="path40" fill="#F68D11" d="M914.1,1705.3l337.5-100l-1.2,487.2l-336.3,112.8V1705.3"/>
	<path id="path42" fill="#F68D11" d="M1182.8,1552.6l-314.6-97.2l-310.4,97.2l310.9,83.3L1182.8,1552.6"/>
</g>
</svg>
