<svg id="Layer_1" data-name="Layer 1" xmlns="http://www.w3.org/2000/svg" xmlns:xlink="http://www.w3.org/1999/xlink" viewBox="0 0 417.19 483.7"><defs><clipPath id="clip-path" transform="translate(-41.19 -7.8)"><polygon points="85.67 -22 327.52 -22 327.52 219.85 85.67 219.85 85.67 -22 85.67 -22" fill="none"/></clipPath></defs><title>aws-partner-devops</title><polygon points="5.61 5.61 411.58 5.61 411.58 483.27 5.61 483.27 5.61 5.61 5.61 5.61" fill="none" stroke="#dcdcdc" stroke-miterlimit="10" stroke-width="0.86"/><polygon points="4.75 4.75 412.44 4.75 412.44 483.27 4.75 483.27 4.75 4.75 4.75 4.75" fill="none" stroke="#e0e0e0" stroke-miterlimit="10" stroke-width="0.86"/><polygon points="3.89 3.89 413.3 3.89 413.3 483.27 3.89 483.27 3.89 3.89 3.89 3.89" fill="none" stroke="#e8e8e8" stroke-miterlimit="10" stroke-width="0.86"/><polygon points="3.02 3.02 414.17 3.02 414.17 483.27 3.02 483.27 3.02 3.02 3.02 3.02" fill="none" stroke="#f4f4f4" stroke-miterlimit="10" stroke-width="0.86"/><path d="M43.35,10H456.22V491.07H43.35V10Zm-.87-.86h414.6v482H42.48V9.1Zm-.86-.87H458V491.07H41.62V8.23Z" transform="translate(-41.19 -7.8)" fill="none" stroke="#fff" stroke-miterlimit="10" stroke-width="0.86"/><line x1="5.61" y1="478.09" x2="411.58" y2="478.09" fill="none" stroke="#dcdcdc" stroke-miterlimit="10" stroke-width="0.86"/><line x1="5.61" y1="478.95" x2="411.58" y2="478.95" fill="none" stroke="#ddd" stroke-miterlimit="10" stroke-width="0.86"/><line x1="5.61" y1="479.81" x2="411.58" y2="479.81" fill="none" stroke="#dfdfdf" stroke-miterlimit="10" stroke-width="0.86"/><line x1="5.61" y1="480.68" x2="411.58" y2="480.68" fill="none" stroke="#e2e2e2" stroke-miterlimit="10" stroke-width="0.86"/><line x1="5.61" y1="481.54" x2="411.58" y2="481.54" fill="none" stroke="#e6e6e6" stroke-miterlimit="10" stroke-width="0.86"/><line x1="5.61" y1="482.4" x2="411.58" y2="482.4" fill="none" stroke="#ebebeb" stroke-miterlimit="10" stroke-width="0.86"/><line x1="5.61" y1="483.27" x2="411.58" y2="483.27" fill="none" stroke="#f1f1f1" stroke-miterlimit="10" stroke-width="0.86"/><polygon points="5.61 0.43 411.58 0.43 411.58 11.66 5.61 11.66 5.61 0.43 5.61 0.43" fill="#242f3d"/><polygon points="5.61 11.66 411.58 11.66 411.58 477.22 5.61 477.22 5.61 11.66 5.61 11.66" fill="#fff"/><path d="M169.11,98.26a13.25,13.25,0,0,0,4.23,1.45,22.37,22.37,0,0,0,5.69.61,17.61,17.61,0,0,0,5.2-.73,14.4,14.4,0,0,0,4.11-2.06A8.88,8.88,0,0,0,191,94.27a10.08,10.08,0,0,0,1-4.35,8.87,8.87,0,0,0-1.69-5.2,11.24,11.24,0,0,0-5.68-3.51l-5.2-1.69a10.59,10.59,0,0,1-4.11-2.06,3.9,3.9,0,0,1,.6-5.92,9.38,9.38,0,0,1,5-1.09A17,17,0,0,1,188,71.9a5.12,5.12,0,0,0,1.45.48c.61,0,.85-.36.85-1.21V69.72a1.82,1.82,0,0,0-.36-1.21,3,3,0,0,0-1.09-1,4.77,4.77,0,0,0-1.57-.6c-.61-.24-1.33-.36-2.06-.6a13.5,13.5,0,0,0-2.42-.37,9.09,9.09,0,0,0-2.54-.24,18,18,0,0,0-4.59.61,12.76,12.76,0,0,0-3.87,1.93,10.72,10.72,0,0,0-2.66,3,7.65,7.65,0,0,0-1,4.12A8.61,8.61,0,0,0,170,80.73a10.7,10.7,0,0,0,5.92,3.74l5.32,1.7A9.58,9.58,0,0,1,185,88.1a3.35,3.35,0,0,1,1,2.54A4,4,0,0,1,184,94.15a9.86,9.86,0,0,1-5.44,1.21,17.44,17.44,0,0,1-4.35-.49,16.06,16.06,0,0,1-4.11-1.33,7.84,7.84,0,0,1-1-.36,1.54,1.54,0,0,0-.73-.12c-.6,0-.84.36-.84,1.21v1.81a3.5,3.5,0,0,0,.24,1.09,3.85,3.85,0,0,0,1.33,1.09Z" transform="translate(-41.19 -7.8)" fill="#252f3e"/><path d="M106.59,80.36a21.62,21.62,0,0,0-3.87-.24A13.64,13.64,0,0,0,93.65,83a9.43,9.43,0,0,0-3.38,7.62,9.49,9.49,0,0,0,2.66,7.14,9.87,9.87,0,0,0,7.37,2.66,13.78,13.78,0,0,0,10.89-5.08,18.25,18.25,0,0,0,1.08,2.17,9.7,9.7,0,0,0,1.33,1.7,1.5,1.5,0,0,0,1.09.48,1.91,1.91,0,0,0,1-.36l2.3-1.57a1.48,1.48,0,0,0,.72-1.09,3.1,3.1,0,0,0-.24-.85,16.85,16.85,0,0,1-1.21-2.66,12.24,12.24,0,0,1-.36-3.26V77.82c0-4-1-7-3-9.07s-5.2-3-9.68-3a23.74,23.74,0,0,0-10.4,2.42,2.13,2.13,0,0,0-1,.73c-.25.24-.25.72-.25,1.33V72c0,.72.25,1.21.73,1.21a1.3,1.3,0,0,0,.6-.12c.25-.12.73-.24,1.33-.49a26.37,26.37,0,0,1,4-1.21,15.25,15.25,0,0,1,4-.48c2.9,0,4.83.61,6,1.69s1.69,3.15,1.69,5.93v2.66c-1.57-.36-2.9-.61-4.35-.85Zm4.23,6.53a12,12,0,0,1-.36,3.15,5.17,5.17,0,0,1-1.21,2.29,7.42,7.42,0,0,1-3.51,2.3,11.32,11.32,0,0,1-3.86.73,4.66,4.66,0,0,1-5.2-5.2,5.12,5.12,0,0,1,1.81-4.23,8.57,8.57,0,0,1,5.44-1.46c1.09,0,2.3.13,3.51.25a27.9,27.9,0,0,1,3.38.6v1.57Z" transform="translate(-41.19 -7.8)" fill="#252f3e"/><g clip-path="url(#clip-path)"><path d="M129.45,97.66a4.06,4.06,0,0,0,.72,1.45,2.12,2.12,0,0,0,1.45.36h3.15a2.12,2.12,0,0,0,1.45-.36,4.06,4.06,0,0,0,.72-1.45l5.69-23.83,5.8,23.83a2.07,2.07,0,0,0,.73,1.45,2.32,2.32,0,0,0,1.45.36h3.14a2.57,2.57,0,0,0,1.45-.36,2.67,2.67,0,0,0,.73-1.45l8.95-28.54a5.18,5.18,0,0,0,.24-.85c0-.24.12-.36.12-.6,0-.61-.24-.85-.85-.85H161a2.1,2.1,0,0,0-1.45.36,3.8,3.8,0,0,0-.73,1.45l-6.41,24.79L146.5,68.51a2.08,2.08,0,0,0-.73-1.45,2.34,2.34,0,0,0-1.45-.36h-3a2.1,2.1,0,0,0-1.45.36,3.8,3.8,0,0,0-.73,1.45l-5.8,24.43-6.17-24.43a4,4,0,0,0-.73-1.45A2.1,2.1,0,0,0,125,66.7h-3.63c-.6,0-.84.24-.84.84a6,6,0,0,0,.36,1.46l8.59,28.66Z" transform="translate(-41.19 -7.8)" fill="#252f3e"/><path d="M184.23,115.55a108.35,108.35,0,0,1-41.84,8.59,109.36,109.36,0,0,1-54.9-14.63c-1.34-.85-2.42.6-1.21,1.69a81.41,81.41,0,0,0,54.9,20.92c15.11,0,32.77-4.72,45-13.79,1.81-1.45.12-3.62-1.93-2.78Z" transform="translate(-41.19 -7.8)" fill="#f90"/></g><path d="M176.61,110.47c-1.09.73-.85,1.82.24,1.7,3.87-.49,12.7-1.58,14.15.48s-1.7,10.16-3.15,13.91c-.48,1.08.49,1.57,1.57.72,6.53-5.44,8.23-16.93,6.9-18.5-1.33-1.81-12.82-3.14-19.71,1.69Z" transform="translate(-41.19 -7.8)" fill="#f90"/><path d="M225.46,91.85a.44.44,0,0,1-.48-.48v-20a.44.44,0,0,1,.48-.48h.61c.36,0,.48.12.48.48l.12,1.21a10.3,10.3,0,0,1,2.66-1.57,6.55,6.55,0,0,1,2.66-.48,5.43,5.43,0,0,1,4.47,2.05,8.73,8.73,0,0,1,1.7,5.57,9.45,9.45,0,0,1-1.7,5.8,5.68,5.68,0,0,1-4.71,2.18,7.5,7.5,0,0,1-5-2.06v7.26a.44.44,0,0,1-.48.48Zm6-7.25A4.26,4.26,0,0,0,235.13,83a7.52,7.52,0,0,0,1.21-4.71q0-6.16-4.71-6.17a7.52,7.52,0,0,0-4.84,1.93v8.59a10.83,10.83,0,0,0,2.3,1.57,14.46,14.46,0,0,0,2.42.37Z" transform="translate(-41.19 -7.8)" fill="#252f3e"/><path d="M245.29,86.05A4.38,4.38,0,0,1,242,84.84a3.94,3.94,0,0,1-1.21-3.15,4.19,4.19,0,0,1,1.45-3.38,5.83,5.83,0,0,1,4-1.21,14.21,14.21,0,0,1,4.23.72V75.41a3.08,3.08,0,0,0-.84-2.54,4.26,4.26,0,0,0-2.79-.73,13.35,13.35,0,0,0-4.23.73c-.12,0-.36.12-.48.12s-.24-.12-.24-.37V72a.44.44,0,0,1,.12-.36l.24-.25a13.48,13.48,0,0,1,5-1,5.9,5.9,0,0,1,3.87,1.09,4,4,0,0,1,1.21,3.26V85.2a.44.44,0,0,1-.49.48h-.6a.45.45,0,0,1-.49-.48L250.61,84a8,8,0,0,1-5.32,2.06Zm.24-1.45a6.18,6.18,0,0,0,2.42-.49,16.89,16.89,0,0,0,2.66-1.33V79.15a14.25,14.25,0,0,0-3.87-.48c-2.78,0-4.11,1.09-4.11,3.14a2.82,2.82,0,0,0,.73,2.06,3,3,0,0,0,2.17.73Z" transform="translate(-41.19 -7.8)" fill="#252f3e"/><path d="M257.26,85.8a.44.44,0,0,1-.48-.48V71.41a.44.44,0,0,1,.48-.48h.61c.36,0,.48.12.48.48l.12,1.7a5.66,5.66,0,0,1,4.6-2.18h.72a.44.44,0,0,1,.49.48v.73c0,.12,0,.12-.12.24s-.12.12-.25.12h-1.08a5.3,5.3,0,0,0-2.42.49,7.62,7.62,0,0,0-2.06,1.57V85.32a.44.44,0,0,1-.48.48Z" transform="translate(-41.19 -7.8)" fill="#252f3e"/><path d="M272,85.93a3.35,3.35,0,0,1-3.63-3.63V72.5h-2.3a.44.44,0,0,1-.48-.48v-.24a.47.47,0,0,1,.12-.37c0-.12.12-.12.36-.12l2.42-.24.24-3.87c0-.12.12-.24.12-.36s.12-.12.37-.12h.48a.44.44,0,0,1,.48.48v3.87h4.24a.44.44,0,0,1,.48.49v.6a.44.44,0,0,1-.48.48H270.2v9.8a2.14,2.14,0,0,0,.49,1.69,2.36,2.36,0,0,0,1.69.49,4.65,4.65,0,0,0,1.45-.13c.24,0,.36-.12.48-.12h.25a.32.32,0,0,1,.36.37v.48a.55.55,0,0,1-.36.6c-.73,0-1.58.13-2.54.13Z" transform="translate(-41.19 -7.8)" fill="#252f3e"/><path d="M278.55,85.8a.44.44,0,0,1-.49-.48V71.41a.44.44,0,0,1,.49-.48h.6c.36,0,.48.12.48.48l.13,1.21a10.25,10.25,0,0,1,3-1.57,9.63,9.63,0,0,1,3-.6,4.44,4.44,0,0,1,3.27,1.09,4.56,4.56,0,0,1,1.09,3.38V85.2a.45.45,0,0,1-.49.48h-.84a.44.44,0,0,1-.49-.48V75.77a4.27,4.27,0,0,0-.72-2.78,2.84,2.84,0,0,0-2.3-.85,9.5,9.5,0,0,0-5.69,1.93V85.44a.45.45,0,0,1-.48.49h-.6Z" transform="translate(-41.19 -7.8)" fill="#252f3e"/><path d="M301,86.17c-2.3,0-4.11-.61-5.2-1.94S294,81,294,78.31a8.24,8.24,0,0,1,1.81-5.69,6.46,6.46,0,0,1,5-2.05,5.12,5.12,0,0,1,4.11,1.57,5.9,5.9,0,0,1,1.45,4.35,8.13,8.13,0,0,1-.12,1.82.52.52,0,0,1-.49.48h-9.91a6.93,6.93,0,0,0,1.33,4.6,5.35,5.35,0,0,0,4.11,1.45,10.53,10.53,0,0,0,4-.73,1.2,1.2,0,0,1,.48-.12c.13,0,.13,0,.25.12s.12.12.12.24v.49a.55.55,0,0,1-.37.6,20.31,20.31,0,0,1-4.71.73Zm3.63-8.83v-1a4.65,4.65,0,0,0-1-3.14,4,4,0,0,0-3-1.09c-3.15,0-4.72,1.69-5,5.2Z" transform="translate(-41.19 -7.8)" fill="#252f3e"/><path d="M310.35,85.8a.44.44,0,0,1-.48-.48V71.41a.44.44,0,0,1,.48-.48h.6c.37,0,.49.12.49.48l.12,1.7a5.36,5.36,0,0,1,2.18-1.7,5.42,5.42,0,0,1,2.41-.48h.73a.44.44,0,0,1,.48.48v.73c0,.12,0,.12-.12.24s-.12.12-.24.12h-1.09a5.36,5.36,0,0,0-2.42.49,7.59,7.59,0,0,0-2.05,1.57V85.32a.44.44,0,0,1-.49.48Z" transform="translate(-41.19 -7.8)" fill="#252f3e"/><path d="M225.46,118.33a.44.44,0,0,1-.48-.48V104.06a.44.44,0,0,1,.48-.48h.61c.36,0,.48.12.48.48l.12,1.21a10.37,10.37,0,0,1,3-1.57,9.68,9.68,0,0,1,3-.6,4.4,4.4,0,0,1,3.26,1.09,4.52,4.52,0,0,1,1.09,3.38v10.28a.44.44,0,0,1-.48.48h-.85a.44.44,0,0,1-.48-.48V108.3a4.27,4.27,0,0,0-.73-2.78,2.83,2.83,0,0,0-2.3-.85,9.47,9.47,0,0,0-5.68,1.93V118a.44.44,0,0,1-.48.48h-.61Z" transform="translate(-41.19 -7.8)" fill="#252f3e"/><path d="M248,118.82c-2.29,0-4.11-.61-5.2-1.94s-1.81-3.26-1.81-5.92a8.24,8.24,0,0,1,1.81-5.69,6.48,6.48,0,0,1,5-2,5.12,5.12,0,0,1,4.11,1.57,5.9,5.9,0,0,1,1.45,4.35,8.13,8.13,0,0,1-.12,1.82.52.52,0,0,1-.48.48h-9.92a7,7,0,0,0,1.33,4.6,5.35,5.35,0,0,0,4.11,1.45,10.55,10.55,0,0,0,4-.73,1.2,1.2,0,0,1,.48-.12c.12,0,.12,0,.24.12s.12.12.12.24v.49a.55.55,0,0,1-.36.6,19.36,19.36,0,0,1-4.72.73Zm3.63-8.95v-1a4.6,4.6,0,0,0-1-3.14,4,4,0,0,0-3-1.09c-3.14,0-4.72,1.69-5,5.2Z" transform="translate(-41.19 -7.8)" fill="#252f3e"/><path d="M261.5,118.58a3.35,3.35,0,0,1-3.63-3.63V105h-2.3a.44.44,0,0,1-.48-.48v-.24a.46.46,0,0,1,.12-.37c0-.12.12-.12.36-.12l2.42-.24.24-3.87c0-.12.12-.24.12-.36s.12-.12.36-.12h.49a.44.44,0,0,1,.48.48v3.87h4.23a.44.44,0,0,1,.49.48v.61a.44.44,0,0,1-.49.48h-4.23V115a2.16,2.16,0,0,0,.49,1.69,2.36,2.36,0,0,0,1.69.48,5,5,0,0,0,1.45-.12c.24,0,.36-.12.48-.12H264a.32.32,0,0,1,.36.37v.48a.55.55,0,0,1-.36.6,15.26,15.26,0,0,1-2.54.25Z" transform="translate(-41.19 -7.8)" fill="#252f3e"/><path d="M271.05,118.33a.69.69,0,0,1-.61-.36l-4.59-13.66a1,1,0,0,1-.12-.49c0-.12.12-.24.36-.24h1c.24,0,.36.12.48.36l4,12.46L275,103.94a.55.55,0,0,1,.6-.36h1.09a.67.67,0,0,1,.61.36l3.5,12.46L285,103.82c.12-.24.24-.36.48-.36h.85c.24,0,.36.12.36.24a1,1,0,0,1-.12.49l-4.84,13.66a.55.55,0,0,1-.6.36h-1a.67.67,0,0,1-.61-.36L276,105.39l-3.51,12.46a.55.55,0,0,1-.6.36h-.85Z" transform="translate(-41.19 -7.8)" fill="#252f3e"/><path d="M295.36,118.82a6.55,6.55,0,0,1-5.08-2.06,8.33,8.33,0,0,1-1.82-5.8,8.79,8.79,0,0,1,1.82-5.81,7.31,7.31,0,0,1,10.15,0,8.36,8.36,0,0,1,1.82,5.81,8.76,8.76,0,0,1-1.82,5.8,6.55,6.55,0,0,1-5.07,2.06Zm0-1.57c3.38,0,5.07-2.06,5.07-6.29s-1.69-6.29-5.07-6.29-5.08,2-5.08,6.29,1.69,6.29,5.08,6.29Z" transform="translate(-41.19 -7.8)" fill="#252f3e"/><path d="M306.48,118.33a.44.44,0,0,1-.48-.48V104.06a.44.44,0,0,1,.48-.48h.6c.37,0,.49.12.49.48l.12,1.7a5.66,5.66,0,0,1,4.59-2.18H313a.44.44,0,0,1,.48.48v.73c0,.12,0,.12-.12.24s-.12.12-.24.12H312a5.36,5.36,0,0,0-2.42.49,7.59,7.59,0,0,0-2.05,1.57V118a.44.44,0,0,1-.49.48h-.6Z" transform="translate(-41.19 -7.8)" fill="#252f3e"/><path d="M316.52,118.33a.45.45,0,0,1-.49-.48V97.05a.44.44,0,0,1,.49-.48h.84a.44.44,0,0,1,.49.48v13.06l7-6.29a.89.89,0,0,1,.73-.24h1.08c.25,0,.37.12.37.24s-.12.24-.37.49l-7.13,6.28,7.74,7.14c.12.12.24.24.24.36s-.12.24-.36.24H326a1,1,0,0,1-.61-.24l-7.49-7v6.77a.44.44,0,0,1-.49.48Z" transform="translate(-41.19 -7.8)" fill="#252f3e"/><path d="M99.38,219.85,98,215.48H91.47l-1.29,4.37H85.83l6.75-19.15h4.56l6.75,19.15Zm-7-7.36h4.8l-2.43-8-2.37,8Zm23.15,7.36-.33-1.24a5.89,5.89,0,0,1-4.07,1.55,5.43,5.43,0,0,1-3.06-.87,5.68,5.68,0,0,1-2.06-2.53,9.59,9.59,0,0,1-.73-3.9,8.57,8.57,0,0,1,1.63-5.49,5.23,5.23,0,0,1,4.3-2.06,6,6,0,0,1,3.8,1.25v-7.17h4v20.46Zm-3.06-2.74a4.71,4.71,0,0,0,2.54-.77V209a5.36,5.36,0,0,0-2.74-.69,2.45,2.45,0,0,0-2.18,1.09,6.11,6.11,0,0,0-.72,3.31,5.71,5.71,0,0,0,.76,3.29,2.69,2.69,0,0,0,2.34,1.07Zm14,2.74-5.37-14.13h4.29l3,10.51,3.06-10.51h4.17l-5.33,14.13Zm19.31,0-.33-1.24a7,7,0,0,1-2,1.23,5.83,5.83,0,0,1-2.16.46,4.56,4.56,0,0,1-3.28-1.17,4,4,0,0,1-1.23-3.1,4.16,4.16,0,0,1,.66-2.33,4.45,4.45,0,0,1,1.9-1.58,6.84,6.84,0,0,1,2.93-.58,13.31,13.31,0,0,1,2.93.35v-1.38a2.27,2.27,0,0,0-.52-1.74,2.89,2.89,0,0,0-1.93-.47,16.8,16.8,0,0,0-5,.85v-2.67a9.55,9.55,0,0,1,2.57-.85,15.71,15.71,0,0,1,3.14-.32,6.25,6.25,0,0,1,4.16,1.15,4.55,4.55,0,0,1,1.32,3.61v9.78Zm-3.34-2.27a3.74,3.74,0,0,0,1.42-.3,5.34,5.34,0,0,0,1.36-.83v-2.4a13.76,13.76,0,0,0-2.17-.19c-1.61,0-2.42.64-2.42,1.93a1.65,1.65,0,0,0,1.81,1.79Zm19.4,2.27v-9.26a2.37,2.37,0,0,0-.5-1.66,2,2,0,0,0-1.51-.52,5.63,5.63,0,0,0-3,.94v10.5h-4V205.72h3.32l.39,1.52a8.53,8.53,0,0,1,5.3-1.93,3.7,3.7,0,0,1,4.09,4.09v10.45Zm18.05-.61a5.87,5.87,0,0,1-1.8.68,9.78,9.78,0,0,1-2.18.24,6.79,6.79,0,0,1-5.16-1.88,9,9,0,0,1,.1-10.89,6.9,6.9,0,0,1,5.22-2,8.17,8.17,0,0,1,3.74.88V209a10.71,10.71,0,0,0-3-.48,3.71,3.71,0,0,0-2.85,1,4.45,4.45,0,0,0-.91,3.1V213a4.46,4.46,0,0,0,.9,3.09,3.59,3.59,0,0,0,2.78,1,12.13,12.13,0,0,0,3.15-.5v2.68Zm5.89-5.48a3.51,3.51,0,0,0,1.1,2.65,4.91,4.91,0,0,0,3.13.81,16.21,16.21,0,0,0,4.3-.69v2.69a8.73,8.73,0,0,1-2.3.77,13.35,13.35,0,0,1-2.77.28,7.1,7.1,0,0,1-5.36-1.91,7.71,7.71,0,0,1-1.84-5.58,7.8,7.8,0,0,1,1.82-5.5,6.59,6.59,0,0,1,5.07-2,5.64,5.64,0,0,1,4.21,1.51,5.86,5.86,0,0,1,1.48,4.3c0,.4,0,.86-.08,1.38a8.79,8.79,0,0,1-.2,1.26Zm3-5.65a2.83,2.83,0,0,0-2.14.81,3.66,3.66,0,0,0-.9,2.36h5.42v-.47c0-1.8-.8-2.7-2.38-2.7Zm18.46,11.74-.33-1.24a5.89,5.89,0,0,1-4.07,1.55,5.43,5.43,0,0,1-3.06-.87,5.68,5.68,0,0,1-2.06-2.53,9.59,9.59,0,0,1-.73-3.9,8.57,8.57,0,0,1,1.63-5.49,5.23,5.23,0,0,1,4.3-2.06,6,6,0,0,1,3.8,1.25v-7.17h4v20.46Zm-3.06-2.74a4.71,4.71,0,0,0,2.54-.77V209a5.36,5.36,0,0,0-2.74-.69,2.45,2.45,0,0,0-2.18,1.09,6.11,6.11,0,0,0-.72,3.31,5.71,5.71,0,0,0,.76,3.29,2.69,2.69,0,0,0,2.34,1.07Z" transform="translate(-41.19 -7.8)" fill="#535b64"/><path d="M101.12,280.31a.78.78,0,0,1-.89-.87V242.73H87.61a.79.79,0,0,1-.89-.89v-1.35a.78.78,0,0,1,.89-.88h28.72a.78.78,0,0,1,.88.88v1.35a.78.78,0,0,1-.88.89H103.7v36.71a.77.77,0,0,1-.88.87Zm34.24.88q-7,0-10.51-4t-3.53-11.78q0-7.4,3.56-11.48t10-4.08q5.34,0,8.19,3.05c1.9,2,2.85,4.95,2.85,8.75a20.38,20.38,0,0,1-.23,3.53,1,1,0,0,1-1,.88H124.73c0,4.11.94,7.15,2.7,9.1s4.49,2.94,8.17,2.94a22.18,22.18,0,0,0,8-1.47,3.68,3.68,0,0,1,1.05-.3.51.51,0,0,1,.42.21.76.76,0,0,1,.18.51V278a1.2,1.2,0,0,1-.65,1.23,21.47,21.47,0,0,1-9.28,2Zm7.23-17.79c0-.55,0-1.19,0-1.94q0-4.23-2-6.4a7.94,7.94,0,0,0-6-2.17q-9.28,0-9.82,10.51Zm23,17.56q-6.79,0-10.33-3.91t-3.53-11.48q0-7.51,3.59-11.48t10.4-4a17.29,17.29,0,0,1,6.16,1.12c.47.15.71.56.71,1.23v.82c0,.52-.24.77-.71.77a2,2,0,0,1-.43-.06l-.86-.18a19.38,19.38,0,0,0-4.7-.58q-5.57,0-8.07,2.85c-1.66,1.9-2.5,4.94-2.5,9.13v.71c0,4.06.85,7.07,2.53,9s4.32,2.91,7.92,2.91a20.17,20.17,0,0,0,5.12-.75l.91-.24a2,2,0,0,1,.43-.06c.47,0,.71.25.71.76v.82a1.22,1.22,0,0,1-.64,1.24A17.26,17.26,0,0,1,165.6,281Zm15.05-.65a.78.78,0,0,1-.89-.87V237.73a.78.78,0,0,1,.89-.87h1.58a.78.78,0,0,1,.89.87v16.39a25.46,25.46,0,0,1,6-3.11,18.11,18.11,0,0,1,6.14-1.12c2.86,0,5,.76,6.55,2.26s2.26,3.73,2.26,6.66v20.63a.77.77,0,0,1-.88.87h-1.59a.77.77,0,0,1-.88-.87V260.23q0-3.83-1.46-5.55t-4.71-1.74a20.27,20.27,0,0,0-11.44,3.75v22.75a.78.78,0,0,1-.89.87Zm33.36,0a.78.78,0,0,1-.89-.87V251.65a.78.78,0,0,1,.89-.88h1.18a.86.86,0,0,1,1,.88l.23,2.52a24.14,24.14,0,0,1,6.05-3.16,18.37,18.37,0,0,1,6.17-1.12c2.86,0,5,.76,6.55,2.26s2.26,3.73,2.26,6.66v20.63a.77.77,0,0,1-.88.87H235a.78.78,0,0,1-.88-.87V260.23c0-2.55-.48-4.4-1.46-5.55s-2.55-1.74-4.7-1.74a20.28,20.28,0,0,0-11.45,3.75v22.75a.78.78,0,0,1-.89.87Zm44.58.88q-6.46,0-10-4.14T245,265.51q0-7.39,3.58-11.51t10-4.11q6.46,0,10.05,4.11t3.58,11.51q0,7.41-3.58,11.54t-10.05,4.14Zm0-3.05q10.16,0,10.16-12.63t-10.16-12.57q-10.17,0-10.16,12.57t10.16,12.63Zm26.25,2.35a4.83,4.83,0,0,1-3.67-1.38,5.29,5.29,0,0,1-1.33-3.84V237.73a.78.78,0,0,1,.89-.87h1.58a.78.78,0,0,1,.89.87V275.2a2.64,2.64,0,0,0,.5,1.82,2.43,2.43,0,0,0,1.78.53,6,6,0,0,0,.8-.06c.3,0,.54-.05.73-.05a.72.72,0,0,1,.82.82v1.11a.86.86,0,0,1-.75.89,9.77,9.77,0,0,1-2.24.23Zm21.79.7q-6.47,0-10-4.14T293,265.51q0-7.39,3.59-11.51t10-4.11q6.47,0,10.05,4.11t3.58,11.51q0,7.41-3.58,11.54t-10.05,4.14Zm0-3.05q10.17,0,10.17-12.63t-10.17-12.57q-10.15,0-10.16,12.57t10.16,12.63Zm31.66,15a23.23,23.23,0,0,1-4.81-.5,17,17,0,0,1-4.12-1.39,1.2,1.2,0,0,1-.65-1.23v-.82c0-.5.22-.76.65-.76a1.36,1.36,0,0,1,.38.06c.14,0,.39.11.74.23a25,25,0,0,0,7.64,1.35q5.44,0,8-2.7c1.7-1.8,2.56-4.64,2.56-8.52V276a18,18,0,0,1-4.82,2.88,13.75,13.75,0,0,1-5.05,1.06,11.28,11.28,0,0,1-9.05-4q-3.4-4-3.41-10.66,0-7.11,3.38-11.22a11.29,11.29,0,0,1,9.2-4.11,14.07,14.07,0,0,1,9.8,3.93l.24-2.17a.91.91,0,0,1,1-.88h1.18a.77.77,0,0,1,.87.88V279q0,6.93-3.52,10.54t-10.22,3.62Zm1.3-16.28q4.4,0,9.1-3.75V256.76a18.33,18.33,0,0,0-4.64-2.91,12.6,12.6,0,0,0-4.76-.91q-4.69,0-7.08,3.06c-1.58,2-2.38,5.05-2.38,9s.83,6.78,2.5,8.79,4.08,3,7.26,3Zm22.67,16.28a8.57,8.57,0,0,1-2.7-.42,1.08,1.08,0,0,1-.89-1.17v-.83c0-.5.24-.75.71-.75a4.06,4.06,0,0,1,.64.05,5.86,5.86,0,0,0,.77.09c.31,0,.72,0,1.22,0a4.6,4.6,0,0,0,3.1-1,9.87,9.87,0,0,0,2.2-3.59l2-4.93-11.56-28.44a2.52,2.52,0,0,1-.25-.75c0-.43.24-.65.72-.65h1.87a1,1,0,0,1,1,.77l9.82,25.25,9.91-25.25a1,1,0,0,1,1-.77h1.77c.47,0,.7.22.7.65a2.71,2.71,0,0,1-.24.75l-13.86,34.36a12.7,12.7,0,0,1-3.28,5.09,7,7,0,0,1-4.64,1.5Z" transform="translate(-41.19 -7.8)" fill="#535b64"/><path d="M91.72,340.78a.78.78,0,0,1-.88-.88V301a.78.78,0,0,1,.88-.88h13.16a12.1,12.1,0,0,1,8.9,3.29,13.3,13.3,0,0,1,0,17.56,12.06,12.06,0,0,1-8.9,3.3H94.19V339.9a.78.78,0,0,1-.88.88Zm13-19.68q8.7,0,8.7-8.92t-8.7-9H94.19V321.1Zm26.68,20.32A8.79,8.79,0,0,1,125,339.1a8.25,8.25,0,0,1-2.39-6.19,8.35,8.35,0,0,1,2.94-6.76,12.06,12.06,0,0,1,8-2.46,29.12,29.12,0,0,1,8.4,1.35V320.1q0-3.59-1.7-5.14c-1.13-1-3-1.56-5.64-1.56a28.09,28.09,0,0,0-8.57,1.48,3.24,3.24,0,0,1-.89.17c-.39,0-.58-.25-.58-.77v-.93a1.27,1.27,0,0,1,.17-.73,1.23,1.23,0,0,1,.58-.44,26.55,26.55,0,0,1,9.81-1.83q5.17,0,7.67,2.18c1.66,1.45,2.5,3.64,2.5,6.57v20.8a.78.78,0,0,1-.88.88h-1.24a.83.83,0,0,1-.93-.88l-.25-2.53a16.64,16.64,0,0,1-10.56,4.05Zm.47-3.05a14.46,14.46,0,0,0,4.81-.91,26.8,26.8,0,0,0,5.23-2.56v-7.34a29.22,29.22,0,0,0-7.64-1.06q-8.22,0-8.22,6.34a5.44,5.44,0,0,0,1.47,4.12,6.06,6.06,0,0,0,4.35,1.41Zm23.32,2.41a.78.78,0,0,1-.89-.88V312.11a.78.78,0,0,1,.89-.88h1.1c.63,0,1,.29,1,.88l.3,3.41A14.68,14.68,0,0,1,162,312a11,11,0,0,1,4.84-1c.63,0,1.14,0,1.54.06a.83.83,0,0,1,.87.94v1.46a.67.67,0,0,1-.17.44.59.59,0,0,1-.47.21c-.32,0-.61,0-.89,0s-.68,0-1.23,0a11.05,11.05,0,0,0-4.79,1,12.57,12.57,0,0,0-4,3.23V339.9a.79.79,0,0,1-.89.88Zm28.42.35a7.12,7.12,0,0,1-5.29-1.85,7.38,7.38,0,0,1-1.82-5.37V314.17H171.9a.79.79,0,0,1-.89-.89v-.58a1.26,1.26,0,0,1,.17-.71,1.05,1.05,0,0,1,.72-.29l4.75-.41.42-7.75a1.13,1.13,0,0,1,.25-.68.9.9,0,0,1,.63-.2H179a.78.78,0,0,1,.88.88v7.69h8.53a.77.77,0,0,1,.87.88v1.17a.78.78,0,0,1-.87.89h-8.53v19.56a4.59,4.59,0,0,0,1,3.4,4.82,4.82,0,0,0,3.43,1,13.34,13.34,0,0,0,3-.3c.43-.07.78-.13,1-.19a2.79,2.79,0,0,1,.56-.09c.43,0,.65.23.65.7v.88c0,.66-.22,1.08-.65,1.24a17,17,0,0,1-5.29.76Zm13-.35a.79.79,0,0,1-.89-.88V312.11a.78.78,0,0,1,.89-.88h1.18a.88.88,0,0,1,1,.88l.23,2.52a24.24,24.24,0,0,1,6-3.16,18.66,18.66,0,0,1,6.17-1.12c2.86,0,5,.76,6.55,2.27s2.26,3.72,2.26,6.66V339.9a.78.78,0,0,1-.87.88h-1.6a.78.78,0,0,1-.87-.88V320.69q0-3.81-1.47-5.55t-4.7-1.74a20.29,20.29,0,0,0-11.45,3.76V339.9a.78.78,0,0,1-.89.88Zm45,.87q-7,0-10.51-4t-3.53-11.77q0-7.4,3.56-11.48t9.95-4.09q5.34,0,8.19,3c1.9,2,2.85,5,2.85,8.75a20.51,20.51,0,0,1-.23,3.54,1,1,0,0,1-1,.87H231c0,4.12.94,7.15,2.7,9.11s4.49,2.93,8.17,2.93a22.18,22.18,0,0,0,8-1.47,3.71,3.71,0,0,1,1.06-.3.51.51,0,0,1,.41.21.76.76,0,0,1,.18.51v.88a1.18,1.18,0,0,1-.65,1.22,21.33,21.33,0,0,1-9.28,2Zm7.23-17.79c0-.54,0-1.19,0-1.94q0-4.23-2-6.4a8,8,0,0,0-6-2.17q-9.29,0-9.82,10.51Zm11.57,16.92a.79.79,0,0,1-.89-.88V312.11a.78.78,0,0,1,.89-.88h1.11a.87.87,0,0,1,1,.88l.29,3.41a14.93,14.93,0,0,1,4.38-3.49,11,11,0,0,1,4.84-1c.63,0,1.14,0,1.54.06a.84.84,0,0,1,.88.94v1.46a.64.64,0,0,1-.18.44.58.58,0,0,1-.47.21c-.32,0-.61,0-.89,0s-.68,0-1.23,0a11,11,0,0,0-4.78,1,12.71,12.71,0,0,0-4,3.23V339.9a.79.79,0,0,1-.89.88Z" transform="translate(-41.19 -7.8)" fill="#535b64"/><line x1="44.48" y1="380.48" x2="372.71" y2="380.48" fill="none" stroke="#91a2a3" stroke-linecap="square" stroke-miterlimit="10" stroke-width="1.73"/><path d="M88.87,440.11c-.31,0-.46-.16-.46-.48V419c0-.32.15-.48.46-.48h6q4.69,0,7.13,2.76t2.43,8q0,5.25-2.53,8t-7.27,2.76Zm1.38-1.53h4.19c2.68,0,4.69-.74,6-2.22s2-3.69,2-6.65V429q0-8.88-8.06-8.87H90.25v18.5Zm25.36,2a7,7,0,0,1-5.56-2.1q-1.86-2.1-1.86-6.24a8.94,8.94,0,0,1,1.88-6.08,6.64,6.64,0,0,1,5.27-2.15,5.63,5.63,0,0,1,4.33,1.61,6.5,6.5,0,0,1,1.51,4.63,10.76,10.76,0,0,1-.12,1.87.51.51,0,0,1-.54.46H110a7.23,7.23,0,0,0,1.44,4.82,5.51,5.51,0,0,0,4.32,1.56,11.67,11.67,0,0,0,4.26-.78,1.93,1.93,0,0,1,.56-.15.26.26,0,0,1,.22.11.37.37,0,0,1,.09.25v.47a.62.62,0,0,1-.35.65,11.22,11.22,0,0,1-4.91,1.07Zm3.83-9.44q0-.42,0-1a4.72,4.72,0,0,0-1.09-3.38,4.18,4.18,0,0,0-3.2-1.16c-3.28,0-5,1.86-5.2,5.56Zm10.27,9a.64.64,0,0,1-.6-.44l-5.84-14.46a1.61,1.61,0,0,1-.12-.41c0-.22.12-.34.36-.34h1a.52.52,0,0,1,.53.41l5.22,13.4,5.22-13.4a.52.52,0,0,1,.53-.41H137c.25,0,.37.12.37.34a1.61,1.61,0,0,1-.12.41l-5.85,14.46a.62.62,0,0,1-.59.44Zm20.07-1.19a7.32,7.32,0,0,0,5.95-2.42c1.34-1.62,2-4,2-7.12s-.68-5.51-2-7.12a8.5,8.5,0,0,0-11.88,0c-1.34,1.61-2,4-2,7.12s.67,5.5,2,7.12a7.31,7.31,0,0,0,5.93,2.42Zm0,1.71a9.16,9.16,0,0,1-7.26-3q-2.61-3-2.61-8.28t2.61-8.29a10.4,10.4,0,0,1,14.55,0q2.61,3,2.61,8.29t-2.61,8.28a9.21,9.21,0,0,1-7.29,3Zm14.9,5.89c-.31,0-.46-.16-.46-.48v-21.1c0-.32.15-.48.46-.48h.59a.46.46,0,0,1,.53.48l.12,1.27a10.61,10.61,0,0,1,2.79-1.68,7.63,7.63,0,0,1,2.79-.52,5.8,5.8,0,0,1,4.75,2.15,9.21,9.21,0,0,1,1.74,5.93,9.43,9.43,0,0,1-1.83,6.09,6,6,0,0,1-4.95,2.26,7.66,7.66,0,0,1-5.22-2.1V446a.42.42,0,0,1-.47.48Zm6.34-7.68a4.56,4.56,0,0,0,3.84-1.67,8,8,0,0,0,1.29-5q0-6.6-5-6.6a8.44,8.44,0,0,0-5.17,2v9.11a9.55,9.55,0,0,0,2.49,1.6,6.28,6.28,0,0,0,2.54.52Zm15,1.74a12.11,12.11,0,0,1-2.47-.25,10.8,10.8,0,0,1-2.23-.7.6.6,0,0,1-.36-.62v-.52c0-.25.11-.37.34-.37l.29.06c.16,0,.45.14.89.28a12.67,12.67,0,0,0,3.67.53,4.67,4.67,0,0,0,2.89-.77,2.59,2.59,0,0,0,1-2.22,1.93,1.93,0,0,0-.61-1.43,5.88,5.88,0,0,0-2-1.12l-2.84-1.05q-3.32-1.26-3.32-4.08a3.85,3.85,0,0,1,1.45-3.12,5.7,5.7,0,0,1,3.77-1.19,11.25,11.25,0,0,1,4.07.76.63.63,0,0,1,.38.63v.47c0,.27-.12.4-.34.4a3.31,3.31,0,0,1-.79-.16,13.41,13.41,0,0,0-3.41-.53,4.2,4.2,0,0,0-2.56.67,2.35,2.35,0,0,0-.87,2,2.13,2.13,0,0,0,.61,1.63,7.94,7.94,0,0,0,2.38,1.26l2.49.93a6,6,0,0,1,2.53,1.61,3.51,3.51,0,0,1,.79,2.34,4,4,0,0,1-1.54,3.35,6.5,6.5,0,0,1-4.18,1.23Zm27.05-.14q-5,0-7.51-2.79T203,429.4c0-3.6.88-6.34,2.63-8.24s4.29-2.85,7.6-2.85a14.31,14.31,0,0,1,4.41.69.47.47,0,0,1,.28.18.64.64,0,0,1,.1.4v.69c0,.27-.13.4-.38.4a5.19,5.19,0,0,1-.9-.19,11.62,11.62,0,0,0-1.62-.29,13.21,13.21,0,0,0-1.68-.11q-4.26,0-6.36,2.22T205,429v.78q0,8.89,8.25,8.9a15.44,15.44,0,0,0,4-.53,3.16,3.16,0,0,1,.74-.16c.25,0,.38.13.38.4v.69a.65.65,0,0,1-.1.41.53.53,0,0,1-.28.18,15.35,15.35,0,0,1-4.89.77Zm15.21.14a6.64,6.64,0,0,1-5.31-2.19,9.06,9.06,0,0,1-1.9-6.12,8.94,8.94,0,0,1,1.9-6.09,7.59,7.59,0,0,1,10.63,0,8.94,8.94,0,0,1,1.9,6.09,9.06,9.06,0,0,1-1.9,6.12,6.66,6.66,0,0,1-5.32,2.19Zm0-1.62q5.38,0,5.38-6.69t-5.38-6.66q-5.37,0-5.37,6.66t5.37,6.69ZM240,440.11a.42.42,0,0,1-.46-.48V424.94a.42.42,0,0,1,.46-.48h.62a.48.48,0,0,1,.54.48l.12,1.24a10.92,10.92,0,0,1,2.94-1.62,8.84,8.84,0,0,1,3-.55,3.85,3.85,0,0,1,3.92,2.38,11.46,11.46,0,0,1,3.11-1.76,9,9,0,0,1,3.26-.62,4.24,4.24,0,0,1,3.26,1.2,5,5,0,0,1,1.12,3.52v10.9c0,.32-.15.48-.46.48h-.83a.42.42,0,0,1-.48-.48V429.47a4.78,4.78,0,0,0-.71-2.94,2.71,2.71,0,0,0-2.27-.92,9.35,9.35,0,0,0-5.63,2,10.58,10.58,0,0,1,.1,1.47v10.59a.42.42,0,0,1-.47.48h-.84a.42.42,0,0,1-.47-.48V429.47a4.77,4.77,0,0,0-.72-2.94,2.71,2.71,0,0,0-2.27-.92,9.39,9.39,0,0,0-5.53,1.9v12.12a.42.42,0,0,1-.47.48Zm27.15,6.41c-.31,0-.46-.16-.46-.48v-21.1c0-.32.15-.48.46-.48h.59a.47.47,0,0,1,.53.48l.12,1.27a10.45,10.45,0,0,1,2.79-1.68,7.61,7.61,0,0,1,2.78-.52,5.79,5.79,0,0,1,4.75,2.15,9.21,9.21,0,0,1,1.74,5.93,9.48,9.48,0,0,1-1.82,6.09,6,6,0,0,1-4.95,2.26,7.66,7.66,0,0,1-5.22-2.1V446a.42.42,0,0,1-.48.48Zm6.34-7.68a4.56,4.56,0,0,0,3.84-1.67,8,8,0,0,0,1.29-5c0-4.4-1.67-6.6-5-6.6a8.41,8.41,0,0,0-5.17,2v9.11a9.55,9.55,0,0,0,2.49,1.6,6.28,6.28,0,0,0,2.54.52Zm17.63,1.74a7,7,0,0,1-5.56-2.1q-1.86-2.1-1.86-6.24a8.94,8.94,0,0,1,1.88-6.08,6.64,6.64,0,0,1,5.27-2.15,5.63,5.63,0,0,1,4.33,1.61,6.5,6.5,0,0,1,1.51,4.63,10.76,10.76,0,0,1-.12,1.87.51.51,0,0,1-.54.46H285.45a7.23,7.23,0,0,0,1.44,4.82,5.51,5.51,0,0,0,4.32,1.56,11.62,11.62,0,0,0,4.25-.78A2,2,0,0,1,296,438a.28.28,0,0,1,.22.11.37.37,0,0,1,.09.25v.47a.62.62,0,0,1-.35.65,11.22,11.22,0,0,1-4.91,1.07Zm3.83-9.44q0-.42,0-1a4.72,4.72,0,0,0-1.09-3.38,4.18,4.18,0,0,0-3.2-1.16c-3.28,0-5,1.86-5.2,5.56Zm10.48,9.16a3.77,3.77,0,0,1-2.8-1,3.94,3.94,0,0,1-1-2.86V426h-2.46a.41.41,0,0,1-.47-.46v-.31a.64.64,0,0,1,.09-.38.54.54,0,0,1,.38-.15l2.52-.23.22-4.1A.6.6,0,0,1,302,420a.47.47,0,0,1,.33-.11h.56a.4.4,0,0,1,.46.46v4.07h4.51a.42.42,0,0,1,.47.48v.62a.41.41,0,0,1-.47.46h-4.51v10.36a2.45,2.45,0,0,0,.55,1.8,2.57,2.57,0,0,0,1.82.52,7.54,7.54,0,0,0,1.59-.15l.54-.11a1.58,1.58,0,0,1,.29-.05c.24,0,.36.13.36.38v.46q0,.54-.36.66a8.81,8.81,0,0,1-2.79.41Zm13.05.28a7,7,0,0,1-5.56-2.1q-1.86-2.1-1.86-6.24a9,9,0,0,1,1.88-6.08,6.65,6.65,0,0,1,5.27-2.15,5.61,5.61,0,0,1,4.33,1.61,6.51,6.51,0,0,1,1.52,4.63,9.67,9.67,0,0,1-.13,1.87.51.51,0,0,1-.54.46H312.81a7.23,7.23,0,0,0,1.44,4.82,5.52,5.52,0,0,0,4.33,1.56,11.66,11.66,0,0,0,4.25-.78,2,2,0,0,1,.57-.15.25.25,0,0,1,.21.11.37.37,0,0,1,.1.25v.47a.62.62,0,0,1-.36.65,11.22,11.22,0,0,1-4.91,1.07Zm3.84-9.44c0-.28,0-.62,0-1a4.77,4.77,0,0,0-1.08-3.38,4.22,4.22,0,0,0-3.21-1.16c-3.27,0-5,1.86-5.2,5.56Zm6.12,9c-.31,0-.46-.16-.46-.48V424.94c0-.32.15-.48.46-.48H329a.48.48,0,0,1,.54.48l.12,1.33a12.43,12.43,0,0,1,3.2-1.68,9.8,9.8,0,0,1,3.26-.58,4.7,4.7,0,0,1,3.47,1.19,4.78,4.78,0,0,1,1.2,3.53v10.9a.42.42,0,0,1-.47.48h-.84a.42.42,0,0,1-.47-.48V429.47a4.5,4.5,0,0,0-.78-2.94,3.07,3.07,0,0,0-2.49-.92,10.72,10.72,0,0,0-6.06,2v12a.42.42,0,0,1-.47.48Zm23.73.33a7,7,0,0,1-5.48-2.06q-1.86-2.07-1.86-6.07a8.77,8.77,0,0,1,1.89-6.08,7,7,0,0,1,5.5-2.1,9,9,0,0,1,3.27.59c.25.08.38.3.38.65v.43c0,.27-.13.41-.38.41l-.24,0-.45-.1a10.53,10.53,0,0,0-2.48-.31,5.44,5.44,0,0,0-4.28,1.51q-1.32,1.5-1.32,4.84v.37a7.17,7.17,0,0,0,1.33,4.77,5.29,5.29,0,0,0,4.2,1.54,10.44,10.44,0,0,0,2.71-.41l.48-.12.24,0c.25,0,.38.14.38.41v.43a.64.64,0,0,1-.35.65,9.06,9.06,0,0,1-3.54.71Zm8.05,6.44a4.8,4.8,0,0,1-1.43-.21.58.58,0,0,1-.46-.63v-.43c0-.27.12-.4.36-.4l.34,0a3.27,3.27,0,0,0,.41,0,6,6,0,0,0,.65,0,2.43,2.43,0,0,0,1.64-.53,5.23,5.23,0,0,0,1.16-1.9l1.06-2.6-6.12-15.06a1.61,1.61,0,0,1-.12-.41c0-.22.12-.34.36-.34h1a.51.51,0,0,1,.52.41l5.2,13.37L370,424.87a.52.52,0,0,1,.53-.41h.94c.24,0,.37.12.37.34a1.4,1.4,0,0,1-.13.41l-7.34,18.19a6.61,6.61,0,0,1-1.73,2.69,3.74,3.74,0,0,1-2.46.79Z" transform="translate(-41.19 -7.8)" fill="#535b64"/></svg>