<?xml version="1.0" encoding="utf-8"?>
<!-- Generator: Adobe Illustrator 24.0.3, SVG Export Plug-In . SVG Version: 6.00 Build 0)  -->
<svg version="1.1" id="Layer_1" xmlns="http://www.w3.org/2000/svg" xmlns:xlink="http://www.w3.org/1999/xlink" x="0px" y="0px"
	 viewBox="0 0 75 75" style="enable-background:new 0 0 75 75;" xml:space="preserve">
<style type="text/css">
	.st0{fill:#FF9900;}
</style>
<title>AWS-Lambda_dark-bg</title>
<g id="Reference">
	<g id="Product_Icon">
		<path class="st0" d="M60.5,62.5H48.2c-0.4,0-0.7-0.2-0.9-0.6L29.9,25.5h-7.4c-0.6,0-1-0.4-1-1v-11c0-0.6,0.4-1,1-1h15.4
			c0.4,0,0.7,0.2,0.9,0.6l17.3,36.4h4.4c0.6,0,1,0.4,1,1v11C61.5,62.1,61.1,62.5,60.5,62.5z M48.8,60.5h10.7v-9h-4
			c-0.4,0-0.7-0.2-0.9-0.6L37.3,14.5H23.5v9h7c0.4,0,0.7,0.2,0.9,0.6L48.8,60.5z"/>
		<path class="st0" d="M27.5,62.5h-13c-0.3,0-0.7-0.2-0.9-0.5c-0.2-0.3-0.2-0.7-0.1-1l13.6-28.4c0.2-0.3,0.5-0.6,0.9-0.6l0,0
			c0.4,0,0.7,0.2,0.9,0.6L35.5,46c0.1,0.3,0.1,0.6,0,0.9l-7.1,15C28.2,62.2,27.9,62.5,27.5,62.5z M16.1,60.5h10.8l6.6-14l-5.4-11.2
			L16.1,60.5z"/>
	</g>
</g>
</svg>
