<?xml version="1.0" encoding="utf-8"?>
<!-- Generator: Adobe Illustrator 24.0.3, SVG Export Plug-In . SVG Version: 6.00 Build 0)  -->
<svg version="1.1" id="Layer_1" xmlns="http://www.w3.org/2000/svg" xmlns:xlink="http://www.w3.org/1999/xlink" x="0px" y="0px"
	 viewBox="0 0 75 75" style="enable-background:new 0 0 75 75;" xml:space="preserve">
<style type="text/css">
	.st0{fill:#FF9900;}
</style>
<title>AWS-Fargate_dark-bg</title>
<g id="Reference">
	<g id="Product_Icon">
		<path class="st0" d="M24.8,36.4c0.1,0.1,0.2,0.2,0.2,0.2c0.1,0.1,0.3,0.2,0.5,0.4l0.1,0.1c0.2,0.1,0.3,0.2,0.5,0.3l0.3,0.1h0.1
			h0.1l0.2,0.1c0.5,0.2,1,0.4,1.6,0.5l0.9,0.3l0.5,0.1c2.5,0.6,5.1,0.9,7.6,0.9l0,0c3.9,0.1,7.8-0.7,11.4-2.2c1.6-0.7,2.6-2.3,2.6-4
			V18.9c0-0.6-0.4-1.2-0.9-1.4l-12.4-5.8c-0.4-0.2-0.9-0.2-1.3,0l-12.4,5.8c-0.5,0.3-0.9,0.8-0.9,1.4v14.4c0,1.1,0.4,2.1,1.1,2.9
			C24.7,36.3,24.7,36.3,24.8,36.4z M29.9,36.5l-0.8-0.2c-0.5-0.2-1-0.3-1.4-0.5l-0.4-0.2l0,0l-0.3-0.2c-0.1-0.1-0.2-0.1-0.3-0.2l0,0
			l-0.2-0.2L26.2,35c0,0,0-0.1-0.1-0.1l-0.1-0.1c-0.4-0.4-0.6-1-0.6-1.6V20.1l11,5.1v12.2c-2.1,0-4.1-0.3-6.1-0.8L29.9,36.5z
			 M48.1,35.5c-3,1.3-6.3,2-9.6,2V25.4l11-5v12.8C49.5,34.2,49,35.1,48.1,35.5z M37.5,13.6l11.1,5.2l-10.9,4.9l-0.1,0l-10.8-5
			L37.5,13.6z"/>
		<path class="st0" d="M54.8,27.7l-0.6,1.9c4.5,1.3,7.3,3.2,7.3,4.9c0,3.3-9.9,7-24,7s-24-3.7-24-7c0-1.7,2.8-3.6,7.3-4.9l-0.6-1.9
			c-5.6,1.6-8.7,4.1-8.7,6.8c0,5.8,13.4,9,26,9s26-3.2,26-9C63.5,31.8,60.4,29.3,54.8,27.7z"/>
		<path class="st0" d="M54.7,46.6l-4.7-2c-0.4-0.2-0.8-0.2-1.1,0l-4.8,2c-0.4,0.2-0.7,0.6-0.7,1.1v5.2L39.1,51
			c-0.4-0.2-0.8-0.2-1.1,0l-4.5,1.9v-5.2c0-0.5-0.3-0.9-0.7-1.1l-4.7-2c-0.4-0.2-0.8-0.2-1.1,0l-4.8,2c-0.4,0.2-0.7,0.6-0.7,1.1v6.1
			c0,0.5,0.3,0.9,0.7,1.1l4.6,2l0,0H27c0.2,0.1,0.3,0.1,0.5,0.1c0.2,0,0.3,0,0.5-0.1l4.5-1.9v5.2c0,0.5,0.3,0.9,0.7,1.1l4.6,2l0,0
			c0,0,0,0,0.1,0c0.2,0.1,0.4,0.1,0.5,0.1c0.2,0,0.4,0,0.5-0.1l4.8-2c0.4-0.2,0.7-0.6,0.7-1.1v-5.1l4.4,1.9l0,0H49
			c0.2,0.1,0.4,0.1,0.5,0.1c0.2,0,0.3,0,0.5-0.1l4.8-2c0.4-0.2,0.7-0.6,0.7-1.1v-6.1C55.5,47.3,55.2,46.8,54.7,46.6z M49.5,46.6
			l2.7,1.2l-2.6,1L47,47.6L49.5,46.6z M38.5,52.9l2.7,1.2l-2.6,1L36,54L38.5,52.9z M27.5,46.6l2.7,1.2l-2.6,1L25,47.6L27.5,46.6z
			 M23.5,49.2l3,1.3v4.2l-3-1.3V49.2z M28.5,54.6v-4l3-1.2v4L28.5,54.6z M34.5,55.5l3,1.3V61l-3-1.3V55.5z M39.5,61v-4l3-1.2v4
			L39.5,61z M45.5,49.2l3,1.3v4.2l-3-1.3V49.2z M50.5,54.6v-4l3-1.2v4L50.5,54.6z"/>
	</g>
</g>
</svg>
