<?xml version="1.0" encoding="utf-8"?>
<!-- Generator: Adobe Illustrator 24.0.3, SVG Export Plug-In . SVG Version: 6.00 Build 0)  -->
<svg version="1.1" id="Layer_1" xmlns="http://www.w3.org/2000/svg" xmlns:xlink="http://www.w3.org/1999/xlink" x="0px" y="0px"
	 viewBox="0 0 75 75" style="enable-background:new 0 0 75 75;" xml:space="preserve">
<style type="text/css">
	.st0{fill:#FF9900;}
</style>
<title>Amazon-Elastic-Container-Service-for-Kubernetes_dark-bg</title>
<g id="Reference">
	<g id="Product_Icon">
		<path class="st0" d="M37.5,64.5c-0.2,0-0.3,0-0.5-0.1L14,51.1c-0.3-0.2-0.5-0.5-0.5-0.9V23.7c0-0.4,0.2-0.7,0.5-0.9l21-12.2
			c0.3-0.2,0.7-0.2,1,0c0.3,0.2,0.5,0.5,0.5,0.9V23c0,0.4-0.2,0.7-0.5,0.9L25.5,30v13.9l12,6.9l10.5-6c0.3-0.2,0.7-0.2,1,0l10,5.8
			c0.5,0.3,0.6,0.9,0.4,1.4c-0.1,0.2-0.2,0.3-0.4,0.4L38,64.4C37.8,64.5,37.7,64.5,37.5,64.5z M15.5,49.7l22,12.7l19-11l-8-4.6
			L38,52.8c-0.3,0.2-0.7,0.2-1,0l-13-7.5c-0.3-0.2-0.5-0.5-0.5-0.9v-15c0-0.4,0.2-0.7,0.5-0.9l10.5-6.1v-9.2l-19,11V49.7z"/>
		<path class="st0" d="M60.5,48.9c-0.2,0-0.3,0-0.5-0.1L50,43c-0.3-0.2-0.5-0.5-0.5-0.9V30L39,24c-0.3-0.2-0.5-0.5-0.5-0.9V11.6
			c0-0.4,0.2-0.7,0.5-0.9c0.3-0.2,0.7-0.2,1,0l21,12.1c0.3,0.2,0.5,0.5,0.5,0.9v24.3C61.5,48.5,61.1,48.9,60.5,48.9z M51.5,41.6
			l8,4.6V24.2l-19-10.9v9.2l10.5,6c0.3,0.2,0.5,0.5,0.5,0.9V41.6z"/>
		<path class="st0" d="M32.5,44.5v-15h2v6.8l6.5-6.8h2.6l-6.8,7.3l7.4,7.7h-2.7l-7-7v7H32.5z"/>
	</g>
</g>
</svg>
