<svg viewBox="0 0 32 32" xmlns="http://www.w3.org/2000/svg"><path d="m15.242 18.883l.754-.754.754.754v9.178h3.177l-3.931 3.931-3.931-3.931h3.177v-9.179m2.262-14.198h3.177l2.247 2.247-5.424 5.423v-7.67m-5.439-.754l3.931-3.931 3.931 3.931h-3.177v9.178l-.754.754-.754-.754v-9.178h-3.177m-12.07 12.06l3.931-3.931v3.177h9.178l.754.754-.754.754h-9.178v3.177l-3.931-3.931m19.637-1.508l5.424-5.424 2.247 2.247v3.177h-7.671m8.425.754v-3.177l3.931 3.931-3.931 3.931v-3.177h-9.178l-.754-.754.754-.754h9.179m-18.997-8.31l2.246-2.247h3.177v7.67l-5.423-5.423m18.243-2.247v5.559l-2.247-2.247-6.49 6.49h-1.066v-1.067l6.49-6.49-2.247-2.247h5.56m0 17.06v5.559h-5.56l2.247-2.247-6.49-6.49v-1.067h1.067l6.49 6.49 2.247-2.247m-12.819 5.559h-3.177l-2.246-2.247 5.423-5.424v7.67m3.02-7.67l5.424 5.423-2.247 2.247h-3.177v-7.67m9.803-2.133v3.177l-2.247 2.247-5.424-5.424h7.67m-22.622-3.02v-3.177l2.247-2.247 5.424 5.424h-7.67m0-4.244v-5.559h5.559l-2.246 2.247 6.49 6.49v1.066h-1.066l-6.49-6.49-2.247 2.247m2.247 12.683l-2.247-2.247v-3.177h7.67l-5.423 5.424m1.066 2.133l2.247 2.247h-5.56v-5.56l2.247 2.247 6.49-6.49h1.066v1.066l-6.49 6.49"/></svg>