<svg height="1834pt" preserveAspectRatio="xMidYMid meet" viewBox="0 0 2916 1834" width="2916pt" xmlns="http://www.w3.org/2000/svg"><g transform="matrix(.1 0 0 -.1 0 1834)"><path d="m21561 17430c-13-11-34-20-48-20-13 0-32-4-41-9-25-14-194-19-213-7-12 7-32 4-72-12-30-11-57-18-60-15-8 8-112-25-163-52-25-13-52-21-60-18s-22-1-31-8c-10-9-43-14-88-14-71-1-72-1-106-40-19-22-57-65-84-95-28-30-63-72-78-92-16-21-46-48-67-60-33-19-40-28-40-55 0-17-3-38-6-46-8-21 25-50 50-44 12 3 40 11 64 16 39 10 47 9 87-15 50-29 54-43 30-108-14-41-13-48 15-81 25-29 31-77 14-109-8-16-14-38-14-50-1-26-18-48-50-62-45-20-178-147-185-179-4-16-14-39-21-50-8-11-14-29-14-41s-7-25-16-28c-8-3-13-10-9-16 3-5-7-28-22-51s-28-49-28-58c-1-9-2-26-3-38-1-13-18-41-37-62-36-40-55-85-55-131 0-15-16-42-40-69-27-29-42-57-47-83-3-22-14-45-24-51-11-7-19-18-19-25 0-14 47-35 61-26 10 6 11-1 9-75-3-91-39-122-160-136-92-10-96-11-123-31-15-10-29-27-32-36-4-10-11-18-17-18s-18-7-27-15c-75-71-110-101-143-121-21-13-38-29-38-34 0-15-48-2-95 25-22 13-65 26-95 29-40 5-80 20-145 56-49 28-94 49-100 46-18-7-235-506-235-540 0-21-16-55-47-101l-48-70 3-81 3-81-56-28c-38-20-54-33-51-44 2-9 7-38 11-65 6-42 15-58 62-108 31-32 63-58 70-58 8 0 35 21 60 46l44 46 56-7c32-4 81-2 117 5 55 11 66 10 106-8 25-11 66-38 92-61 25-22 50-41 55-41 4 0 31 28 58 62 28 34 64 77 81 96l30 34h105c140 0 156-6 204-77 32-47 51-63 90-80 70-28 73-31 85-74 7-28 17-41 34-45 14-3 28-16 32-29 4-12 40-53 79-92 75-72 95-100 95-132 0-11 11-34 25-53 21-28 25-43 22-82-3-27-6-50-8-51s-19-13-37-25c-30-21-37-22-63-12-17 7-43 10-64 6-43-8-143 18-152 39-3 8-15 15-27 15s-27 5-33 11c-8 8-15 5-24-9-16-23-77-27-146-10-33 8-47 7-70-5-15-8-49-25-75-36s-52-30-58-41c-15-27-64-27-84 1-11 16-21 20-43 15-24-6-31-14-42-54-7-26-14-53-17-59-4-15-36-16-122-3-58 8-67 6-112-17-27-14-57-37-66-51s-28-36-40-49c-38-38-76-130-68-167 5-28 1-37-26-59-17-15-38-27-47-27-8 0-40-24-71-54-31-29-67-59-80-65-37-20-251-35-290-21-19 6-49 9-68 6-28-6-37-14-53-52-24-53-170-204-198-204-11 0-28-8-39-17-83-76-95-83-113-73-11 5-45 12-77 15-63 7-206 41-239 57-11 6-38 30-60 54l-40 43-86 3c-118 3-141-11-196-123-23-46-42-97-43-112 0-16-9-41-19-56-32-45-36-77-13-106 11-14 23-39 27-54 6-27 39-67 98-119 14-12 35-43 47-68 21-43 22-46 5-64-10-11-28-20-39-20-13 0-36-17-59-45-21-25-50-48-65-51s-64-24-110-46c-68-33-90-50-121-92-21-28-45-57-54-65-10-7-17-19-17-27 0-25-101-129-148-152-25-12-51-27-56-32-6-6-22-10-38-10-33 0-150-54-174-81-15-16-31-19-121-19-62 0-111-5-122-12-15-9-31-9-71 0-61 14-229 16-297 3-49-9-131-23-250-42-112-17-177-31-188-38-5-4-26-14-45-21s-57-23-85-36c-27-12-72-32-100-44-51-22-140-67-255-127-36-19-82-51-102-70-35-34-39-35-55-20-13 11-41 17-88 19l-70 3-3 53c-2 37-7 52-15 49-7-2-52-12-102-21-49-9-109-22-132-28-28-7-47-7-55-1-26 20-204 111-238 121-19 5-78 20-130 32-263 59-252 54-309 138s-61 87-161 89c-48 1-184 18-304 38l-217 36-95-31c-53-17-103-29-112-26s-57 10-107 16c-49 6-119 15-155 20s-103 14-150 20-114 15-150 20c-219 30-252 31-378 19-202-19-186-21-190 29-3 39-12 52-93 137-66 70-89 101-89 120 0 15-13 57-29 93-16 37-39 96-50 132-29 89-41 110-65 110-40 0-49 15-44 66 3 27 9 57 13 67 7 18 4 18-58 12-54-6-75-3-124 15-32 12-71 35-88 52-16 17-47 39-68 48-21 10-51 32-66 51-23 28-34 33-64 31-40-3-83 27-117 84-12 19-38 43-59 53-39 20-142 43-206 46-22 1-48 6-59 10-10 5-51 4-90-2-83-12-161-6-192 14-16 10-49 13-118 12-86-2-99 0-119 19-16 15-27 18-37 12-23-15-36-12-70 16-26 22-38 26-75 21-38-4-45-2-45 13 0 10-7 23-15 30s-15 19-15 28c0 8-11 34-24 56-20 35-22 49-17 93 7 52 55 136 101 178 25 23 25 61 1 118l-20 45 29 73c18 46 25 79 20 89-4 8-8 32-8 53s-7 46-16 56-16 26-16 37c0 40-13 62-43 75-42 19-113 143-122 214-3 28-15 64-25 80-11 17-20 40-20 52 0 16-9 24-34 33-40 13-68 42-70 71-2 32-34 49-50 27-21-29-56-22-93 20-18 20-36 45-39 55-7 22-80 24-111 2-30-21-79-9-104 26-11 16-30 29-41 29-12 0-30 7-40 17-10 9-28 21-41 27-12 7-23 22-25 36-6 58-12 69-46 80-19 6-36 17-39 24s-31 23-64 36c-78 31-81 34-59 75 22 40 13 60-34 70-17 4-37 19-49 38l-20 32 27 21c24 20 25 24 13 47-7 14-10 30-7 36 13 20-4 51-27 51-28 0-90-22-110-38-11-10-24-10-58-1-42 11-67 12-135 6-57-4-109-98-74-133 15-15-4-101-27-127-11-12-27-34-36-49-11-18-29-29-54-34-21-4-47-13-58-19-11-7-56-15-99-18-45-3-84-11-92-19-20-21-60-129-74-201-11-53-11-80-2-130 7-36 12-88 12-116 0-29 6-64 14-79 26-50 25-118-3-127-10-3-22-20-27-37-9-30-14-33-67-43-32-5-61-16-65-22-15-25-116-93-137-93-18 0-21 5-17 28 2 17-2 33-10 40-13 10-134 17-263 13-43-1-155 33-195 60-39 26-130 69-145 69-21 0-28-17-35-89-4-37-21-100-38-141s-41-109-52-150c-12-41-33-98-46-127-14-28-31-87-39-131-7-44-22-98-33-119s-27-62-37-91c-20-62-13-77 43-87 61-10 76-27 69-78-13-95-43-119-87-72-29 31-58 32-112 4-41-21-43-21-75-4-18 10-33 26-33 36 0 34-12 49-39 49-15 0-31-4-37-10-18-18-249-94-294-96-74-3-131-16-137-30-3-7-31-15-66-19-53-6-69-13-107-46l-45-40 29-25c25-22 35-25 75-19 35 5 57 1 94-15 26-11 47-23 47-26 0-2-11-9-24-14-28-10-29-21-28-194 1-61 6-114 12-120 5-5 10-19 10-31 0-11 6-29 14-40 15-23 96-235 96-253 0-7-5-21-12-32-11-16-9-23 10-40 12-11 22-26 22-33s3-23 7-36c6-23 4-24-26-18-24 5-44 0-81-21-27-15-50-33-50-40s16-20 36-28c44-19 34-36-32-55-39-12-48-20-65-58-18-41-18-48-5-87 8-23 12-45 9-48-3-2 3-28 12-56 13-39 14-54 5-65-7-8-9-27-4-49l6-36h-60c-75 0-89-5-108-41-8-17-26-31-42-35-15-4-44-15-64-25-21-11-48-19-62-19s-27-4-30-8c-2-4-49-30-103-57s-107-57-118-67c-11-9-41-28-65-41-34-18-46-30-48-51-2-15-10-35-18-44s-29-34-46-56c-31-37-33-38-80-32-38 5-56 2-89-15-32-16-51-19-78-14-39 8-132 16-194 16-42 1-77-26-77-59 0-11-11-31-25-46-16-17-25-39-25-60 0-20-8-40-20-51-11-10-20-24-20-32 0-16-53-73-68-73-5 0-12 10-15 22-6 21-7 21-25 5-10-9-31-17-47-17s-37-8-47-17c-22-19-86-26-106-10-7 5-10 18-6 30 3 10 1 29-4 41-6 11-13 33-16 49-8 37-30 34-83-9-55-45-124-62-159-39-13 8-30 15-37 15-19 0-29-38-16-62 8-15 6-18-13-18-14 0-51-24-92-60-64-55-72-59-106-54-23 4-40 2-44-5-4-6-16-11-26-11-14 0-30-20-55-71-31-62-34-74-22-88 43-49 16-131-43-131-28 0-44-19-34-43 3-8 0-26-5-40-8-22-6-35 10-66 11-21 29-47 39-56 27-24 25-39-6-54-19-8-24-16-19-29 4-9 11-30 15-47 15-60 30-84 59-100 43-22 55-19 73 18 15 31 19 34 60 32 55-3 205-70 214-97 3-11-2-30-11-45-22-33-13-123 16-149 13-12 19-30 19-59 0-22 5-46 12-53 9-9 9-18 0-37-19-42-14-65 18-83 40-23 55-53 41-81-7-11-18-21-25-21-8 0-19-7-26-15-17-20-50-19-65 2-11 15-14 15-36 0-13-10-33-17-44-17-21-1-65-32-65-47 0-20 58-50 104-55 36-4 54-12 68-29 17-23 19-23 32-6 16 21 47 21 106 1 50-17 70-37 70-70 0-30 17-39 45-24 33 18 98-18 135-76 24-39 28-56 28-112 0-45-5-73-15-84-18-20-14-48 10-59 9-5 24-13 33-17s22-23 28-42c11-33 13-35 51-32 22 2 53 10 69 18 37 18 36 18 36-5 0-29 11-51 25-51 6 0 20-9 30-20s26-20 35-20c10 0 23-7 30-15s25-15 41-15c15 0 31-4 34-10 3-5 22-10 41-10s45-7 58-15c17-12 42-14 100-11 42 2 76 0 76-5 0-12 37-11 45 1 3 6 13 10 22 10 12 0 14-7 8-32-11-49-7-84 15-120 10-18 23-51 29-73 19-75 52-160 67-172 9-6 38-14 65-18 38-5 61-16 95-46 25-21 49-39 54-39s14-9 20-20c15-28-2-55-50-80-45-23-47-32-25-116 9-36 13-76 9-109-6-50-5-54 32-96 22-24 42-46 47-47 4-2 13-10 21-17 7-8 36-21 64-30l51-17-5-42c-5-33 0-52 24-96 25-47 28-59 18-77-16-30-60-63-85-63-20 0-54-26-62-47-2-6-16-13-31-16-21-6-31-1-57 28-17 20-31 47-31 60 0 25-23 35-35 15-3-5-20-10-36-10-17 0-39-4-49-10-16-9-17-13-4-47 7-21 13-49 14-64 0-15 20-50 51-88 50-62 51-64 41-103-12-45-7-65 20-92 19-18 19-19-3-42-17-19-20-26-10-38 7-8 11-27 9-43-2-23 1-29 20-31 13-2 29 2 37 8s18 9 24 6c5-4 12 3 16 14 13 41 48 17 82-57 11-24 39-58 68-81 47-37 54-40 97-35 44 5 51 3 96-36 28-22 59-41 70-41 20 0 38-25 23-34-16-10 1-54 22-59 48-11 154-61 177-83 14-13 40-28 57-34 23-9 36-23 52-59 23-53 58-74 76-45 6 9 20 28 33 42 13 15 22 38 22 57 0 38 8 49 27 34 10-9 18-7 33 6 17 15 26 17 58 7 20-6 59-14 86-19 43-7 49-11 60-44 7-19 11-40 8-47-2-6 9-17 25-23 75-30 126-63 176-114 36-36 64-55 79-55 13 0 33-7 45-15s29-12 38-9c18 7 55-22 55-43 0-7 7-13 15-13s21-15 29-34c8-18 19-37 26-41 6-4 15-18 20-31 11-27 44-32 69-11 9 7 33 18 53 25 30 11 43 10 72-2 23-10 36-22 36-34 0-10 7-27 15-38 8-10 15-32 15-47 0-22 6-30 28-38 16-5 39-23 51-39 12-17 29-30 37-30 9 0 34-16 57-35 44-38 79-44 111-20 42 32 79 11 52-30-25-38-21-74 10-85 30-12 170-18 179-8 17 16 115-111 115-148 0-17 22-23 43-12 14 7 17 16 12 39-4 18-2 36 5 44 14 17 31 11 25-8-7-18 6-31 48-51 45-21 70-18 75 9 2 11 9 26 14 33 14 17 57 15 64-3 4-8 14-15 24-15s23-7 30-15 22-15 34-15c13 0 32-12 45-26 18-20 30-25 61-23 22 2 42 0 46-3 3-4 16-3 29 2s25 6 29 3c15-15 77-9 93 9 13 14 28 19 59 17 23-2 48 2 56 8 7 6 36 17 63 24 28 6 66 20 86 31 49 27 95 9 114-45 13-38 4-109-16-131-19-21-10-82 16-106l25-23 15 36c8 21 24 43 36 49 11 7 29 33 40 58s36 61 55 80 53 56 76 82c22 27 49 48 59 48 9 0 30 10 46 23 53 43 77 48 145 32 67-15 82-29 65-57-17-27 5-37 67-33 54 4 111-7 163-33 32-16 33-16 63 13s31 29 60 11c17-9 49-23 73-30 39-11 42-15 45-49 3-30 7-37 24-37 11 0 38-5 59-11 33-10 42-9 74 11 27 17 45 21 72 17 19-3 42-2 51 2 109 52 125 67 105 100-10 15-9 22 6 35 10 9 26 16 36 16s41 20 69 44c38 32 56 57 69 95 19 56 15 54 133 70 92 14 184 64 181 100-2 18 3 24 21 26 20 2 51 29 52 47 0 4 25 19 56 34s65 35 76 46c16 16 22 17 36 6 9-7 21-19 25-26 10-16 73-42 101-42 12 0 39-9 61-20s50-20 63-20c25 0 61 35 62 60 0 16 110 85 153 95 15 4 30 11 33 17 9 14 33-11 49-49 12-28 19-33 42-31 36 4 38-22 2-39-41-20-56-44-50-81l6-33 33 31c35 32 82 41 82 15 0-8 9-30 20-50s20-40 20-46-17-28-39-49c-30-29-71-90-71-105 0-13 36-10 69 6 50 24 63 24 86-1 10-11 30-20 44-20s32-4 40-9c9-6 23-5 38 2 20 9 29 6 63-22 35-28 42-30 60-19 11 7 25 29 30 48 16 55 24 63 59 55 19-4 35-16 44-33 8-18 19-26 32-24 12 3 34-13 64-45 38-41 46-56 53-108 5-32 13-64 18-69 6-6 10-20 10-32 0-13 5-26 10-29 6-3 10-14 10-24 0-26 23-44 38-29 7 7 12 20 12 30 0 21 18 23 45 4 11-7 29-15 40-17 18-4 20-14 22-99 2-52 8-131 13-175 12-95 4-211-17-244-13-19-13-27-2-47 14-27 7-39-24-39-28 0-25-22 9-72 28-41 24-50-26-55-31-3-38-9-59-51-22-47-25-49-57-43-37 7-54-11-54-57 0-31-57-89-84-85-35 5-85-109-56-127 17-10 11-35-8-35-34 0-62-37-63-85-1-25-2-50-3-57s10-15 24-18c16-4 25-13 26-25 1-11 6-33 13-48 15-38 16-34-24-78-41-45-42-50-15-67 18-11 25-10 48 5 102 67 139 81 219 82 37 1 82 0 98-1 17 0 45 2 63 7 43 10 44-17 2-42-39-23-42-73-6-96 28-19 42-63 25-83-10-12-7-20 11-39 19-21 22-31 17-70-4-29-3-45 4-45 6 0 25-6 42-14 74-31 84-34 99-25 17 10 66-6 80-26 14-19 8-35-12-35-12 0-20-7-20-16s-9-27-20-41c-15-19-17-30-10-43 15-29 12-65-9-91-10-13-28-45-39-71-20-45-20-48-3-57 10-6 45-10 77-9 33 0 70-5 83-12 13-6 43-12 67-13 47 0 62-17 49-57-4-11-4-34 0-50 5-22 13-30 33-32 24-3 27-7 27-42 0-53 24-68 63-39 26 19 32 20 48 8 35-27 81-18 127 23 42 39 99 72 122 72 17 0 22-16 36-114 15-109 18-114 62-98 46 16 61 15 103-9l37-20 21 20 20 21-23 21c-20 18-22 28-17 62 4 23 12 47 18 54 8 10 8 17 0 25-7 7-12 27-12 44 0 19-10 44-24 61-48 58-61 119-31 149 8 9 15 23 15 33s9 26 19 35c19 17 20 17 33-3 15-24 30-26 57-9 15 9 25 9 46 0 40-18 51-15 77 25 12 20 28 44 33 52 6 9 15 25 21 35 11 19 13 19 50 2 84-38 107-52 116-72 6-12 21-27 34-32 20-10 26-7 46 19 13 16 35 44 51 61 15 18 27 36 27 40 0 22 27 4 45-30 24-44 36-44 51 1 6 17 17 33 25 35 8 1 36-20 63-48 27-27 52-50 57-50s11 12 14 28c16 71 70 108 95 63 14-27 50-27 78-1 12 12 35 20 55 20 44 0 75 33 79 84 3 35 8 42 53 67 28 15 58 28 67 28 9 1 24 11 32 22l15 22 39-31c22-18 45-45 52-62 8-20 19-30 34-30 12 0 37-13 56-29 34-28 35-28 77-13 33 13 47 13 67 4 14-6 26-18 26-27 0-18 19-19 72-3 29 9 41 9 50 0 7-7 19-12 27-12s22-7 32-16c17-16 17-18-2-56-13-25-26-38-37-36-12 2-19-8-26-39-8-38-6-45 13-60 17-14 22-30 24-75 2-53 4-58 25-58 13 0 36-7 52-15s35-14 42-13c8 2 12-5 10-18-2-16 7-27 33-43 20-11 42-21 49-21s21-9 31-20c10-12 24-19 31-16 6 2 16 0 22-6s30-5 72 3l62 12 35-38 34-37 22 19c24 22 67 36 67 22 0-23 21-6 27 21 6 35 26 35 31 1 4-26 29-25 45 1 8 12 7 23-2 41-17 31-11 61 12 65 13 3 18-2 17-15-4-33 0-42 20-48 11-3 20-12 20-20 0-18 20-24 47-14 13 5 25 4 28-1 4-6 19-10 34-10 16 0 35-7 42-16 11-14 10-19-11-34-23-17-23-18-3-24 26-8 165 21 175 37 4 7 8 18 8 25 0 21 20 13 30-12 7-20 17-25 52-28 51-4 58-25 16-46-19-9-28-21-28-37 0-13-6-28-14-32-10-5-16-29-18-70-2-52 1-65 16-76 13-10 17-22 14-40-3-16 0-31 8-38 8-6 14-17 14-24s7-18 15-25c9-7 15-20 14-29-4-46 9-56 82-59 72-3 101 6 131 42 19 23 24 61 8 71-5 3-10 16-10 28 0 15-3 18-11 10-6-6-18-9-25-6-19 7-18 33 1 33 16 0 19 9 9 34-4 11-19 16-44 16-31 0-40 4-45 21-8 24 24 64 32 41 3-9 16-11 39-6 21 4 40 2 49-6 11-9 15-9 17-1 5 39 7 37-55 40l-28 1 20 22c19 20 22 20 39 5 25-22 42-21 42 2 0 11 3 21 8 23 4 2 20 20 35 41 16 20 33 34 39 31 16-10 88 17 88 34 0 11 3 12 14 3 11-10 20-10 37 0 17 9 24 9 27 0 5-15 25-14 40 1 7 7 34 14 59 14 30 1 51 7 58 18 7 9 17 16 24 16 6 0 11 9 11 19 0 27 17 35 25 12 3-10 4-23 3-27-4-12 12-15 35-8 21 7 23 24 2 24-20 0-19 19 1 27 13 5 12 9-6 28-12 13-17 25-13 28 5 3 17-3 27-15 12-13 26-19 42-15 17 3 28-1 35-14 13-26 54-24 73 3 13 19 19 20 41 10 33-15 26-17 68 23 40 39 49 42 67 20 25-30 63-4 53 36-8 28 6 69 22 69 8 0 15-6 15-12 1-7 10-24 21-37 19-23 20-23 35-5 11 14 17 15 20 7 6-14 34-18 34-5 0 4-5 13-11 19-18 18-3 46 20 38 36-11 82 61 52 80-5 3-7 21-4 41 4 27 1 42-16 65-22 30-20 55 5 45 24-9 24 10 0 33-15 14-22 30-19 42 9 31 22 22 46-31 12-27 28-50 34-50 7 0 25-24 39-52 32-65 31-63 47-50 7 6 22 11 32 10 11-1 46 6 78 16 61 18 87 12 87-20 0-17 36-19 46-3 3 6 0 15-7 20-7 4-10 11-6 15s2 13-3 19c-12 14 12 39 48 50 21 6 23 4 17-14-9-28 3-61 20-55 7 3 16 1 20-5 9-16 23-13 30 7 11 34 53 71 88 77 28 6 39 3 57-15 26-26 72-41 91-30 9 6 10 12 2 22-9 10-7 19 7 38 16 21 21 23 44 12 14-6 26-18 26-27 0-19 10-19 46 0 16 8 41 15 55 15s36 11 49 25c19 20 30 24 56 19 46-9 74 10 74 49 0 27 6 36 34 51 19 10 39 15 45 12 14-9 14 17 1 30-7 7-2 18 15 34 14 13 25 31 25 41 0 24 18 33 35 19 13-10 15-8 15 14 0 30 8 33 26 8 10-14 15-15 25-5 7 7 21 13 31 13 12 0 18 8 18 24 0 32 16 42 29 18 7-13 7-22 0-29-8-8-7-13 2-18 18-11 50 35 44 63-8 34 10 60 37 55 18-3 27 3 41 27 17 28 20 30 31 14 12-15 15-14 32 11 10 16 36 45 57 65 20 20 37 42 37 47 0 17-32 38-58 38-14 0-27 6-30 14-4 11 6 13 52 8 31-3 56-2 56 3 0 39 114 75 137 44 15-20 43-12 43 13 0 10 9 27 21 36 23 20 21 44-4 39-20-3-33 16-19 30 6 6 12 6 16 0 6-11 86 7 86 20 0 4 7 8 15 8 24 0 18 38-7 42-24 3-38 28-15 28 18 0 30 27 17 35-6 4-10 10-10 16 0 19 16 8 38-26 25-39 42-45 42-15 0 13 7 20 20 20 23 0 61 30 54 42-3 5-21 15-40 23-40 16-44 37-10 53 20 9 25 8 31-6 6-15 7-15 17 3 6 11 12 22 14 24s18-14 37-34c24-26 40-36 51-32 15 6 15 10 1 44-15 35-30 52-47 53-5 0-8 6-8 14 0 19 25 27 39 13 11-11 16 12 12 56-1 9 7 29 19 44 21 27 21 28 3 43-19 15-23 51-9 82 4 9 24 22 44 28 21 6 43 14 51 16 11 4 9 9-7 25-12 11-22 25-22 32s-9 30-20 52c-24 48-13 63 28 38 29-18 30-20 11-31-25-16-24-32 1-32 11 0 20 5 20 10 0 17 50 32 65 20 11-9 12-2 8 32-3 24-12 48-20 54-12 10-12 14 2 28 9 9 25 16 35 16 12 0 21 10 25 31 4 18 16 34 30 39 37 14 75 55 81 89 4 17 12 31 18 31s16 8 23 19c9 15 8 21-8 34-19 17-18 18 17 69 20 29 43 60 50 69 8 8 14 24 14 33 0 10 9 20 19 23 11 3 22 17 26 31 3 14 15 32 26 40 10 7 19 24 19 36 0 32 28 56 41 35 14-23 10-43-11-57-29-18-27-54 3-50 14 2 22 10 22 23 0 14 6 19 21 17 14-2 25 7 37 33 18 39 32 43 59 19 16-16 18-16 24 0 3 9 1 23-6 31s-10 28-8 44c3 22 0 31-13 34-30 8-27 50 5 72 38 26 42 39 17 64l-21 21h25c29 0 31 10 10 50-11 21-23 30-40 30-33 0-37 11-14 40 18 23 20 24 30 8 13-23 45-23 58-1 8 14 10 11 16-20 4-20 13-38 21-38 8-1 19-2 26-3s13 16 14 41c1 24-2 43-6 43-10 0-10 40 0 55 3 6 6 28 5 50v40l-38-3-39-3 29 36c19 25 34 34 47 31 17-4 55 27 56 45 0 6-51 19-133 36-18 3-38 21-58 49-43 64-88 94-137 94-22 0-43-4-47-9-3-6-30-24-59-40-69-40-110-35-131 15-15 37-47 46-63 17-6-10-16-14-26-10-24 9-20 19 17 44 40 28 102 30 129 6 18-16 22-16 46-2 15 8 28 25 30 39 5 31 30 60 52 60 9 0 25 9 35 20s24 20 31 20 28 13 46 29c37 32 99 53 150 49 29-3 33 0 36 24 5 39-68 178-93 178-13 0-99 68-152 119-37 36-62 52-90 56-52 8-68 19-68 45-1 57-95 100-136 61-34-32-45-12-11 21 29 30 30 30 85 18 49-10 62-18 96-59 34-40 45-47 68-44 24 4 33-2 63-42 35-47 81-78 163-109 38-14 51-15 62-6 20 17 5 34-42 48-21 6-60 32-87 56-30 28-60 46-80 49l-31 4 33 1c21 1 57-11 99-33 107-57 139-47 112 36-18 54-91 119-132 119-6 0-18 7-28 16-14 13-16 20-7 40 20 44-2 68-106 117-94 45-96 46-96 81 0 19 5 38 11 42 16 10 4 72-26 128-14 26-25 53-25 60 0 8-6 19-14 25-7 6-16 25-20 42-3 17-15 43-26 59s-23 43-26 62c-4 18-12 44-20 58-7 14-20 52-29 85-32 116-47 142-90 164-22 12-47 25-55 30s-36 17-62 26c-63 22-126 69-130 97-3 20-8 23-50 22-53 0-60 10-53 79 4 41 20 67 41 67 16 0 34 31 34 60 0 11 12 32 26 46 15 13 39 48 53 77 18 35 31 51 43 49 9-1 19 2 23 7 3 6 12 8 20 5 9-4 19 4 26 20 7 14 16 26 21 26 4 0 16 17 25 37 10 21 27 39 38 41s26 9 33 15c12 9 11 13 0 21-25 19-51 73-44 91 4 12 14 16 31 12 16-3 29 1 34 11 7 13 10 12 19-4 7-13 7-26 1-35-26-42-2-48 76-20l50 17 1 56c0 31 6 64 13 72 15 18 41 21 41 6 0-22 29-8 38 19 9 25 7 30-15 42-20 11-26 11-32 0-6-8-11-9-15-3-5 9 18 42 30 42 3 0 16-7 29-16 23-15 27-15 67 9 24 13 57 28 74 31 18 4 40 16 49 26 16 18 19 18 41 3 22-14 24-14 24 1 0 9 8 20 18 23 9 4 28 15 41 25s32 18 42 18c11 0 19 7 19 15s7 15 15 15 15-7 15-16c0-11 5-14 18-9 31 12 35 10 42-15 8-34 58-40 85-10 10 11 24 20 32 20 22 0 16 48-7 55-31 10-23 33 19 54 18 10 22 18 17 41-3 20 1 36 15 54l20 26h-70c-38 0-73 5-76 10-4 6-14 9-23 8-11-2-18 5-20 20-4 28-42 30-60 2-11-18-23-20-101-20-83 0-90 2-105 25-9 13-16 32-16 41 0 12-4 14-12 7-39-30-88-20-88 18 0 11-10 23-22 28-13 5-32 18-42 30-23 26-70 27-123 5-82-35-121-58-117-69 7-16-77-91-126-112-39-17-50-35-30-48 14-9 2-32-28-51-34-23-143-35-191-22-20 6-55 24-78 41l-42 32-1 71c0 58 4 74 20 89 21 19 27 60 10 70-5 3-10 19-10 35 0 39-19 78-42 85-10 4-18 15-18 26 0 27-64 27-87 0-11-14-22-17-37-11-35 13-115 30-141 30-56 0-195 124-195 174 0 8-4 18-10 21-18 11-11 73 15 129 14 30 30 58 35 61 6 3 8 16 4 29-4 17 3 30 30 53 63 56 129 51 158-12 17-37 44-37 93 1 48 36 64 41 83 22 9-9 17-9 36 2 20 10 28 10 40 1 12-10 18-8 33 10 10 12 34 40 53 62s36 49 37 61c7 69 34 130 68 152 13 9 27 24 30 33 3 10 24 26 48 36 90 38 106 46 111 54 3 4 27 16 53 26s60 26 75 36c14 11 35 19 45 19 18 0 53 58 53 88 0 21 111 137 143 149 26 9 29 12 15 18-14 5-15 11-7 26 5 10 14 19 19 19s20 11 33 24c20 20 32 23 80 21 37-1 63-8 75-18 27-25 77-22 96 5l16 22 6-30c4-23 17-36 52-54 28-15 53-37 61-55 8-16 24-37 35-47 18-14 19-20 8-35-6-10-16-27-21-38-5-12-16-27-25-34s-16-18-16-23c0-6-19-33-42-61-24-28-48-60-53-71-6-12-28-29-50-39-62-28-69-32-82-58-10-19-9-28 3-46 14-22 13-24-23-39-61-26-66-29-64-39 1-6 13-10 26-10 14 0 25-4 25-10 0-5-6-10-12-10-14 0-37-24-38-39 0-5 6-3 14 3 11 9 15 8 21-6 6-17 7-17 19 0 12 16 14 16 27 1 10-12 24-15 61-10 26 4 48 4 48 0 0-3-17-21-37-40-34-32-36-35-20-52 9-10 17-24 17-31 0-15-65-43-90-39-11 2-25-5-32-15s-25-19-39-21c-41-4-48-13-42-54 8-52 19-60 46-34 15 14 36 22 60 22 20 0 39 5 42 10 3 6 17 10 30 10 30 0 42 18 21 33-19 14-10 32 22 41 15 5 24 3 28-8 8-22 27-20 42 4 7 12 24 25 38 30 14 6 31 25 39 42 18 43 88 118 110 118 9 0 38 14 63 32 26 17 59 40 74 50s36 18 46 18c11 0 25 7 33 16s21 13 35 10c31-8 54 3 54 25 0 25 27 35 53 20 14-9 22-10 30-2 6 6 19 11 29 11s18 7 18 16c0 13 7 15 33 10 66-12 146-9 171 8 41 26 76 69 76 92 0 20 15 36 153 160 25 23 47 34 67 34 23 0 30 4 30 20 0 21 83 70 119 70 11 0 25 8 30 19 6 10 26 26 46 35 19 9 35 23 35 31 0 15 9 18 85 33 31 6 45 16 60 42 11 18 34 47 51 64s43 50 58 74c14 23 33 42 41 42 9 0 15 9 15 23 1 12 9 47 20 77 19 56 17 54 119 106 7 4 21 3 29-3 20-12 62-85 58-99-2-6 27-16 68-23 39-7 82-19 96-25 28-13 83-14 116-3 14 5 27 3 36-6 7-8 23-19 34-25 24-13 40 0 68 55 22 43 20 58-8 85-33 32-80 122-74 140 10 25 82 41 127 27 30-9 51-9 85 0 25 6 63 11 85 11 21 0 41 4 43 9 2 6 20 22 42 38 27 20 43 42 55 76 10 32 26 55 43 65 26 15 28 15 52-7 24-23 24-23 35-3 6 11 21 22 33 24 19 2 24 12 31 53 5 28 8 61 8 75-1 28 26 118 42 138 7 9 13 10 21 2 5-5 20-10 33-10 12 0 26-6 30-13 4-8 16-16 26-20 12-5 17-17 17-48 0-37 6-48 46-86 47-45 76-52 82-20 5 24-25 57-51 57-16 0-17 2-6 16 18 22 64 44 93 44 14 0 28 4 31 10 3 5 19 7 35 4 18-4 39 0 60 12 26 16 31 24 26 46-3 18 2 35 16 53 12 15 22 37 22 48 1 12 10 48 21 79l19 58-22 23c-20 21-21 31-18 139 2 67 9 123 16 135 18 28-51 332-86 383-23 34-23 35-4 42 11 4 20 12 20 18 0 5 15 10 33 10 17 0 41 7 51 15 11 8 29 15 41 15 30 0 85 60 85 93 0 18 5 27 15 27 9 0 25 16 37 36l22 37 20-26c17-20 56-36 196-77 96-28 182-53 191-56s29 5 44 18c26 22 28 30 30 104 2 93 12 115 62 139 54 26 71 52 71 109 1 43 5 53 36 82 35 33 43 51 48 109 2 20 11 34 27 42 30 14 37 26 46 81 4 28 3 48-5 57-15 18 0 68 30 100 15 16 21 39 24 97 5 82 29 148 53 148 15 0 14 23-3 95-8 31 45 85 84 85 24 0 37 8 59 38 15 20 31 39 36 40 4 2 7 10 7 19 0 8 10 28 21 45l21 29-21 23c-11 12-21 29-21 38s-7 21-15 28-17 28-21 47c-5 26-2 39 13 56 11 12 23 38 26 58 5 31 1 40-26 65-18 16-39 30-47 31-8 2-30 6-48 9-33 6-96-8-137-31-11-7-39-18-62-25-24-7-59-30-80-52l-38-39-73 6-73 7-58-50c-46-40-62-49-84-45-21 4-27 1-27-12 0-10-10-40-22-67l-23-48-47 6c-27 3-55 1-68-6-11-6-64-13-117-15-52-2-98-6-100-9-3-3-17 4-31 14-30 24-54 25-121 3-71-22-101-9-101 45 0 31-9 49-50 97-53 63-58 76-37 94 8 6 22 29 32 52 18 38 18 42 1 69-9 17-16 35-15 42 3 27-2 35-23 34-15-1-24 6-26 19-2 11-10 27-17 35-12 13-9 26 15 83 27 65 27 72-9 67-8-1-25 4-38 11-17 9-32 10-58 2-33-10-37-9-89 36-30 25-55 50-55 55-1 5-16 27-34 50-19 23-36 49-40 58-3 9-18 18-33 20-21 2-30 10-36 33-7 28-32 55-50 55-5 0-13-11-18-25-9-24-11-25-33-10-20 13-26 13-43 1-20-15-44-5-44 19 0 18-59 47-82 39-20-6-24 6-7 23 6 6 8 16 4 23-9 15-47 29-60 22-5-4-28-7-50-8s-66-8-98-15c-54-12-58-11-80 9-16 15-27 18-39 11-21-12-73 30-82 66-4 14-20 32-37 41-28 14-31 19-26 51 3 19 1 45-4 57-9 18-6 32 10 64 12 23 21 48 21 57 0 8-20 28-45 43-37 21-45 32-44 52 1 14-2 38-6 53-5 18-3 37 5 51 10 19 9 29-4 54-9 17-16 42-16 57 0 14-5 25-11 25-5 0-17 17-26 38-8 20-29 52-45 71-56 64-71 127-43 181 18 35 3 50-26 24-28-25-36-8-10 20 24 25 21 46-6 46-12 0-14 7-9 33 5 29 3 35-18 45-21 9-23 15-19 56 4 34 2 47-9 51-8 3-32 42-53 85-35 73-37 81-23 92 10 7 20 25 24 40 6 26 2 29-41 48l-48 21 23 24c20 22 21 25 6 31-10 4-16 17-16 36 0 18-10 39-25 54-14 14-25 31-25 39 0 17-38 45-62 45-23 0-24 36-2 44 9 3 14 13 10 21-3 8-1 17 4 20 12 8 1 36-14 34-28-3-38 3-52 37s-18 36-50 31-46 5-24 18c27 17-9 75-47 75-12 0-25 4-28 10-3 5-37 28-75 51-60 35-75 40-106 34-23-4-38-13-41-24-6-23-45-17-69 10-9 10-27 19-39 19-44 0-83 21-96 52-19 47-37 60-61 47-18-10-25-7-52 24-34 39-64 57-94 57-11 0-25 6-31 14-13 16-68 19-77 5-3-5-18-2-34 6-38 19-50 19-79-5zm-1241-10807c-8-3-21-10-27-16-9-7-13-5-13 7 0 11 8 16 28 15 15 0 21-3 12-6zm27-35c-3-8-6-5-6 6-1 11 2 17 5 13 3-3 4-12 1-19zm41-78c16-21 18-30 9-30-24 0-51 26-44 44 8 21 10 21 35-14zm607-1075c-42-19-66-19-41 0 11 8 31 15 45 14 26-1 26-1-4-14zm-585-1131c0-13-21-44-30-44-11 0-14 33-3 43 8 8 33 9 33 1zm-136-26c7-12 6-21-3-32-18-22-34-20-26 3 3 11 1 22-5 26-13 8-2 27 13 22 6-2 15-10 21-19zm24-121c13-15-1-42-17-33-13 8-15 46-2 46 5 0 13-6 19-13zm-570-752c-9-10-43-9-46 0-4 12 42 25 47 13 1-5 1-11-1-13zm-581-481c-3-3-12-4-19-1-8 3-5 6 6 6 11 1 17-2 13-5zm-2600-676c-3-8-6-5-6 6-1 11 2 17 5 13 3-3 4-12 1-19zm320-150c-3-8-6-5-6 6-1 11 2 17 5 13 3-3 4-12 1-19zm-153-339c-3-5-10-7-15-3-5 3-7 10-3 15 3 5 10 7 15 3 5-3 7-10 3-15z"/><path d="m21490 9900c0-5 5-10 10-10 6 0 10 5 10 10 0 6-4 10-10 10-5 0-10-4-10-10z"/><path d="m21328 9783c7-3 16-2 19 1 4 3-2 6-13 5-11 0-14-3-6-6z"/><path d="m21360 9776c0-4 7-14 15-22 8-9 15-11 15-6s-7 15-15 22-15 9-15 6z"/><path d="m21256 9735c-3-8-1-15 4-15 6 0 10 7 10 15s-2 15-4 15-6-7-10-15z"/><path d="m21005 6235c11-8 25-19 32-25 7-5 22-10 33-10 29 0 20 24-11 28-13 2-28 8-33 13-6 5-17 9-25 9-13-1-11-4 4-15z"/><path d="m21290 5946c0-2 7-6 15-10 8-3 15-1 15 4 0 6-7 10-15 10s-15-2-15-4z"/><path d="m21240 5830c0-5 12-10 28-10 21 0 24 2 12 10-20 13-40 13-40 0z"/><path d="m21178 5783c-21-5-24-33-4-33 8 0 16-6 18-12 3-8 9-4 17 10 6 12 9 27 6 32-6 10-9 11-37 3z"/><path d="m21245 5750c-3-5 1-10 10-10s13 5 10 10c-3 6-8 10-10 10s-7-4-10-10z"/><path d="m21134 5719c-5-8-21-22-36-32-16-10-28-26-28-37 0-26 20-26 27 0s18 25 36-1c9-12 18-16 21-10 4 6 16 5 34-5 15-7 35-14 45-14 22 0 22-5-4-39-20-28-19-51 2-51 5 0 12 8 16 18 3 9 13 25 20 34 9 10 12 25 8 37-8 26-91 95-104 87-5-4-14 1-19 10-8 14-11 15-18 3z"/><path d="m21145 5540c-4-6-5-12-4-13 2-1 15-8 27-15 28-16 41-8 26 16-14 21-40 27-49 12z"/><path d="m20795 4790c-3-5-1-10 4-10 6 0 11 5 11 10 0 6-2 10-4 10-3 0-8-4-11-10z"/><path d="m20810 4739c0-5 5-7 10-4 6 3 10 8 10 11 0 2-4 4-10 4-5 0-10-5-10-11z"/><path d="m20515 4370c-3-5-1-10 4-10 6 0 11 5 11 10 0 6-2 10-4 10-3 0-8-4-11-10z"/><path d="m20282 3801c0-70 33-78 53-13 5 16 1 30-11 43-29 32-42 24-42-30z"/><path d="m20195 3670c-3-6 1-13 10-16 19-8 30 0 20 15-8 14-22 14-30 1z"/><path d="m19290 2955c0-9 9-15 25-15s25 6 25 15-9 15-25 15-25-6-25-15z"/><path d="m17995 2420c4-6 11-8 16-5 14 9 11 15-7 15-8 0-12-5-9-10z"/><path d="m17908 2343c7-3 16-2 19 1 4 3-2 6-13 5-11 0-14-3-6-6z"/><path d="m17723 2279c-7-7-7-17 1-35 14-30 26-31 26-1 0 13 5 28 12 35 9 9 8 12-8 12-11 0-25-5-31-11z"/><path d="m17660 2255c-7-9-10-18-7-21 10-11 37 5 37 21 0 19-14 19-30 0z"/><path d="m16920 1960c0-5 7-10 15-10s15 5 15 10c0 6-7 10-15 10s-15-4-15-10z"/><path d="m16945 1644c-11-8-19-22-17-30 4-17-6-17-37 0-30 17-107 9-141-15-22-15-35-16-99-8-86 11-98 8-110-25-9-22-12-23-50-13-35 9-43 8-61-8-12-11-20-28-18-41 3-22-17-54-34-54-6 0-25-12-42-27-18-16-53-42-77-59l-45-31 1-94c1-52 7-106 13-121s9-42 6-60c-5-32-4-34 58-61 35-16 76-35 91-43 16-8 46-14 67-14 47 0 70-8 70-25 0-15 48-26 56-13 3 5 13 7 22 6 12-2 18 6 20 27 5 38 16 44 67 41 45-3 65 8 65 34 0 22 62 70 91 70 36 0 69 45 69 95 0 24 5 47 10 50 6 3 10 14 10 24 0 38 81 171 104 171 4 0 20 10 35 23 21 17 25 27 19 47-3 14-10 43-15 65-6 33-13 41-33 43-14 2-36 16-50 32-23 26-27 27-45 14z"/></g></svg>