<svg viewBox="0 0 26 32" xmlns="http://www.w3.org/2000/svg"><path d="m14.09.587l-.207.1h.181l.026-.1m-.594-.153c.31.051.62.077.594.153.31-.077.362-.128-.594-.153m5.996 13.02c.052-.945-.207-.638-.284-.281.103.051.181.664.284.281m-1.06 2.733c.31-.434.543-.894.621-1.405-.078.358-.259.664-.44.996-1.01.613-.103-.383 0-.766-1.085 1.353-.155.817-.181 1.175m-2.894.715c.439.051.904.051 1.344-.051-.181.128-.336.281-.543.434-.698-.102-1.344-.383-.801-.383m7.469-3.065l-.285.563c.413-1.201.181-2.503.232-3.626l-.103-.026c-.103-2.809-2.559-5.823-4.756-6.819-1.912-.868-4.807-1.022-6.151-.383.181-.153.905-.23.698-.332-2.119.204-1.654.715-3.257 1.124-.439.409 1.292-.332.362.204-.879.23-1.266-.153-2.559 1.175.103.179.801-.536.233.179-1.215-.153-3.825 2.733-4.368 3.678l.284.051c-.465 1.175-1.111 1.941-1.189 2.63-.129 1.736-.723 4.903.129 5.874l-.103.792c.129.23.207.485.362.689l-.181.026c.879 2.784.956.051 2.119 2.937-.155-.051-.336-.128-.594-.46-.026.256.388 1.022.853 1.609l-.207.23c.258.485.491.587.672.741-.956-.536.905 1.736 1.086 2.02l.155-.281c-.026.383.259.868.827 1.558l.439-.026c.207.383.905 1.047 1.318 1.073l-.284.383c1.06.307.517.434 1.835.894l-.284-.46c.672.562.879 1.047 1.809 1.507 1.318.434 1.473.255 2.817.638-1.137-.026-2.455-.026-3.36-.332-6.1-1.634-11.682-8.708-11.268-16.01-.103-1.456.155-3.32-.103-3.678.336-1.123.749-2.477 1.577-4.111-.078-.128.129.306.543-.383.233-.536.439-1.149.775-1.66l.155-.051c.155-.92 2.197-2.375 2.817-3.09l.026.281c1.344-1.226 3.696-2.043 5.01-2.63-.336.383.801-.051 1.602-.102-.259.153-.517.255-.749.434.982-.23.93.077 1.938-.051-.361.051-.775.204-.723.256 1.137.128 1.292-.358 2.326 0l-.052-.306c1.422.511 1.732.434 3.283 1.251.568.025.62-.332 1.447 0 .129.23-.052.281.982.894.104-.051-.207-.332-.465-.562 2.042 1.073 4.265 3.371 4.962 5.848-.646-1.149-.077.588-.284.485.284.766.491 1.532.646 2.349-.181-.664-.594-2.247-1.318-3.269-.052.638-.93-.46-.439.996.362.511.077-.536.517.383 0 .434.181.868.258 1.455-.155-.026-.336-.638-.439-.46.155.715.413 1.072.491 1.123-.026.128-.155-.102-.181.383.052 1.124.31.638.439.689-.129.562-.62 1.2-.362 2.171-.077-.306-.206-.588-.31-.868-.103.817.181.97-.207 1.966.259-.894.233-1.686-.025-1.302.129 1.251-1.01 2.222-.879 3.01l-.336-.434c-.879 1.251 0 .689-.62 1.634.232-.358-.104-.153.181-.562-.181 0-.853.791-1.448 1.251-2.378 1.89-5.195 2.12-7.96 1.123-.104.077.49.536.93.766 1.06.383 2.223.383 3.153.358-1.99.843-5.841-.843-7.081-3.065.284.077 1.24 1.558 1.99 1.813-.439-.332-.775-.766-1.086-1.226.595.664 1.292 1.2 2.068 1.558-.052-.179.207-.23-.155-.46-2.326-1.762-3.696-3.269-3.231-6.717.362-.281.465-1.711 1.266-2.222.491-1.073 1.99-2.068 3.567-2.094 1.628-.102 2.998.843 3.67 1.736-1.241-1.149-3.282-1.507-5.04-.638-1.783.792-2.843 2.733-2.688 4.648.078-.077.129-.026.155-.256-.052 3.754 4.109 6.512 7.107 5.108l.026.077c1.215-.307 1.06-.588 1.861-1.124-.078.128-.543.434-.259.46.388-.102 1.577-1.226 2.171-1.736.285-.588-.129-.307.233-1.047l.465-.23c.259-.741.543-1.149.517-1.992m-22.976-3.447c.155-.511.181-.817.259-1.098-.465.587-.207.715-.259 1.098m.853-3.524c.077.766-.594 1.047.155.536.387-.868-.155-.23-.155-.536m12.742-6.691l-.233-.051c.491-.051 1.01-.077 1.499-.128-.387.102-.904.051-1.266.179m11.63 14.25c-.129 1.098-.465 2.171-1.01 3.141.487-.915.802-1.911.93-2.937l.078-.204m-14.732 3.167l.155.485c-.207-.358-.465-.741-.569-1.175.103.255.233.485.413.689m-.827.051c.439.843.672 1.098 1.01 1.711-.465-.357-.749-.868-1.086-1.353l.077-.358"/></svg>