<svg xmlns="http://www.w3.org/2000/svg" viewBox="0 0 60 52" enable-background="new 0 0 60 52"><path d="m20.4 48.2c.3-.6.5-1.2.5-1.9 0-1.3-.6-2.4-1.7-3.1-.6-.4-1.2-.6-1.9-.6-1.5 0-2.6.8-3.3 2.2-.2.5-.3 1-.3 1.5 0 1.4.7 2.5 1.8 3.2.5.3 1.2.5 1.8.5 1.4.1 2.4-.6 3.1-1.8m-3-7.4c2.1 0 3.7 1 4.7 3 .4.7.6 1.6.6 2.4v.4c0 2.1-1 3.7-2.7 4.7-.8.5-1.7.7-2.6.7h-.4c-2 0-3.5-1-4.5-2.8-.5-.8-.7-1.7-.7-2.7v-.4c0-2 1-3.6 2.7-4.7.8-.5 1.7-.7 2.6-.7l.3.1m14.7.8l.1.1c.1.1.2.3.2.5v.2c0 .5-.4.7-.8.8h-.1c-.3 0-.9-.3-1.1-.4-.3-.1-.8-.2-1.1-.2-1.5-.1-2.6.8-3.3 2.2-.2.5-.3 1-.3 1.5 0 1.6.8 2.7 2.2 3.4.5.3 1.1.3 1.7.3.5 0 1.2-.3 1.6-.5l.1-.1h.3c.4.1.8.3.8.8v.2c0 1.1-2 1.4-2.8 1.5-2.7.2-4.8-1.3-5.5-4.1-.1-.5-.2-.9-.2-1.4v-.4c0-2 1-3.6 2.7-4.7.8-.5 1.7-.7 2.6-.7h.4c.8.1 1.7.4 2.5 1m-22.1-4.3c.5 0 .8.4.8.9v8.3c0 2.1-1 3.7-2.7 4.7-.7.5-1.6.8-2.5.8h-.4c-2 0-3.5-1-4.5-2.8-.5-.8-.7-1.7-.7-2.7v-.4c0-2 1-3.6 2.7-4.7.8-.5 1.7-.7 2.6-.7h.4c1.3 0 2.5.5 3.4 1.4v-4c0-.5.3-.9.8-.9l.1.1m-1.5 10.9c.4-.6.5-1.2.5-1.9 0-1.3-.6-2.3-1.6-3-.6-.5-1.3-.7-2-.7-1.5 0-2.6.8-3.3 2.2-.2.5-.3 1-.3 1.5 0 1.5.7 2.6 1.9 3.3.5.3 1.1.4 1.6.4 1.5.1 2.5-.6 3.2-1.8m50.6-7.4c.5 0 .9.4.9.9 0 .8-.7 1-1.3 1-.8 0-1.6.5-2.2 1.1-.7.7-1 1.6-1 2.6v4.6c0 .5-.3.9-.9.9h-.1c-.5 0-.9-.4-.9-.9v-4.8c0-1.8.9-3.3 2.3-4.4.9-.6 1.9-1 2.9-1h.3m.3-27.2c-1.5 3.1-4.7 4-7.8 3.8-4.7 12-14.8 17.6-27.1 17.6-6.3 0-12.1-2.4-15.5-8.2l-.1-.1-.5-1c-1.1-2.6-1.5-5.4-1.2-8.2l.1-.8h4.7v-5.7h5.4v-5.5h10.7v-5.5h6.5v11.1h5.4v5.7h2.7c1.2 0 2.6-.2 3.7-.6.6-.2 1.2-.5 1.8-.8-.8-1-1.1-2.3-1.2-3.6-.2-1.7.2-4 1.3-5.3l.6-.7.7.6c1.7 1.4 3.1 3.4 3.4 5.6 2-.6 4.4-.5 6.2.6l.7.4-.5.6m-25 3.2h4.7v-4.8h-4.7v4.8m-5.4-11.1h4.7v-4.8h-4.7v4.8m4.7 5.6v-4.8h-4.7v4.8h4.7m0 5.5v-4.8h-4.7v4.8h4.7m-10-5.5h4.7v-4.8h-4.7v4.8m0 5.5h4.7v-4.8h-4.7v4.8m.9 17.4c.5 0 1 0 1.5 0-2.2-1.1-3.7-2.4-4.7-3.9-.4-.5-.7-1.2-1-1.8 0 0-.1-.1-.1-.1 0-.1 0-.1-.1-.2-.3.1-.6.2-.9.2-.1 0-.1 0-.2 0-.8.2-1.6.3-2.5.4-.2 0-.4 0-.6 0-.6 0-1.3.1-2 .1-.8 0-1.6 0-2.5-.1 2.9 3 6.5 5.3 13.1 5.4m-11.7-17.4h4.7v-4.8h-4.7v4.8m5.4 0h4.7v-4.8h-4.7v4.8m5.6 9.1c0-.7-.6-1.3-1.3-1.3-.7 0-1.3.6-1.3 1.3s.6 1.3 1.3 1.3c.8.1 1.3-.5 1.3-1.3m-2.2 0c0-.5.4-.9.9-.9.1 0 .2 0 .3.1-.1.1-.2.2-.2.3 0 .2.2.4.4.4.1 0 .3-.1.3-.2 0 .1.1.2.1.4 0 .5-.4.9-.9.9-.5 0-.9-.4-.9-1m-3.4-14.6h4.7v-4.8h-4.7v4.8m33.5 32.1l.1.2c.4.6-.1 1.2-.6 1.6-.6.4-1.1 1-1.7 1.5-1.2 1.1-2.4 2.2-3.6 3.2.7.2 1.4.2 2.1.1.4-.2 1.2-.6 1.6-.5h.1c.2.1.4.2.5.4.2.5.1 1-.4 1.3l-.2.1c-1.7 1-3.5.9-5.3-.1-.8-.4-1.5-1.1-1.9-2l-.1-.2c-1.1-2-.9-4.1.3-5.9.4-.6 1-1.1 1.6-1.6l.3-.1c1.6-1 3.4-.9 5-.1.9.5 1.7 1.2 2.2 2.1m-3.3 1.7c.5-.4.9-.8 1.4-1.2-.4-.5-1-.8-1.5-1-1-.4-2.1-.3-3 .3-1.2.7-1.8 2-1.7 3.4 0 .6.2 1.1.5 1.7.1.2.2.3.4.5 1.1-1.3 2.5-2.5 3.9-3.7m-8.5-4.3c.4.1.8.4.8.8v.2c0 .3-.4.7-.6.9-.4.4-.9.9-1.3 1.3l-2.2 2.3 2.8 2.9c.3.3.5.5.8.8.1.1.2.2.3.3.1.1.1.3.1.4v.2.1c-.1.4-.4.8-.8.8h-.1c-.3 0-.7-.4-.9-.6-.4-.4-.9-.8-1.3-1.2l-1.4-1.4v2.4c0 .5-.3.9-.9.9h-.1c-.5 0-.9-.4-.9-.9v-12.8c0-.5.3-.9.9-.9h.1c.5 0 .9.4.9.9v5.8c.7-.7 1.4-1.5 2.1-2.2.2-.2.9-1 1.2-1h.5"/></svg>