<?xml version="1.0" encoding="utf-8"?>
<!-- Generator: Adobe Illustrator 24.1.0, SVG Export Plug-In . SVG Version: 6.00 Build 0)  -->
<svg version="1.1" id="Layer_1" xmlns="http://www.w3.org/2000/svg" xmlns:xlink="http://www.w3.org/1999/xlink" x="0px" y="0px"
	 viewBox="0 0 65 60" enable-background="new 0 0 65 60" xml:space="preserve">
<path fill="#E24329" d="M32.5,59.9L32.5,59.9l12-36.8H20.6L32.5,59.9L32.5,59.9z"/>
<path fill="#FC6D26" d="M32.5,59.9l-12-36.8H3.8L32.5,59.9z"/>
<path fill="#FCA326" d="M3.8,23.1L3.8,23.1L0.2,34.3c-0.3,1,0,2.1,0.9,2.8l31.4,22.8L3.8,23.1z"/>
<path fill="#E24329" d="M3.8,23.1h16.7L13.4,1c-0.4-1.1-2-1.1-2.4,0L3.8,23.1z"/>
<path fill="#FC6D26" d="M32.5,59.9l12-36.8h16.7L32.5,59.9z"/>
<path fill="#FCA326" d="M61.2,23.1L61.2,23.1l3.6,11.2c0.3,1,0,2.1-0.9,2.8L32.5,59.9L61.2,23.1z"/>
<path fill="#E24329" d="M61.2,23.1H44.5L51.7,1c0.4-1.1,2-1.1,2.4,0L61.2,23.1z"/>
</svg>
