<?xml version="1.0" encoding="UTF-8"?>
<svg width="358px" height="283px" viewBox="0 0 358 283" version="1.1" xmlns="http://www.w3.org/2000/svg" xmlns:xlink="http://www.w3.org/1999/xlink">
    <title>FREEBSD_Logo_Vert_Pos_SPOT</title>
    <defs>
        <polygon id="path-1" points="0.06 0.096 357.771 0.096 357.771 75.94 0.06 75.94"></polygon>
    </defs>
    <g id="FREEBSD_Logo_Vert_Pos_SPOT" stroke="none" stroke-width="1" fill="none" fill-rule="evenodd">
        <path d="M202.798748,245.59 C202.798748,245.59 202.798748,271.538 202.798748,274.604 C202.798748,275.386 202.762,275.273 203.585,275.273 C205.494,275.273 217.918,275.273 219.822,275.273 C224.342,275.273 229.033,275.419 233.192,273.358 C238.467,270.741 241.566,263.753 241.009,258.074 C240.445,252.343 236.506,248.424 231.281,246.453 C228.672,245.469 225.025,245.59 222.245,245.59 C219.27,245.59 202.798748,245.59 202.798748,245.59 Z M202.804,229.675 L202.801,238.901 L224.604,238.902 C233.093,238.902 234.469,227.009 233.278,223.562 C232.035,219.962 228.636,217.529 225.174,216.43 C222.3,215.777 202.804,211.137 202.804,229.675 Z M227.615,209.642 C233.52,211.307 238.605,216.528 240.273,222.417 C242.091,228.832 240.06,235.283 235.741,240.199 C241.029,243.115 245.47,247.515 247.251,253.406 C248.896,258.856 248.499,265.148 245.737,270.172 C242.722,275.656 236.961,280.016 230.862,281.321 C227.513,282.036 223.978,281.791 220.57,281.791 C217.015,281.791 203.323,281.791 199.768,281.791 C197.118,281.791 195.706,279.905 195.706,277.481 C195.706,272.282 195.706,267.083 195.706,261.884 C195.706,246.703 195.706,243.816 195.706,228.634 C195.706,203.877 221.965,208.049 227.615,209.642 L227.615,209.642 Z" id="Fill-1" fill="#9A2D2C"></path>
        <g id="Group-7" transform="translate(0.000000, 207.000000)">
            <mask id="mask-2" fill="white">
                <use xlink:href="#path-1"></use>
            </mask>
            <g id="Clip-3"></g>
            <path d="M310.043,8.867 L310.043,67.931 L325.651,67.931 C341.465,67.931 349.915,53.414 349.915,38.697 C349.915,23.584 342.258,8.867 327.047,8.867 L310.043,8.867 Z M302.684,6.382 C302.684,3.2 304.573,1.609 308.451,1.609 L328.139,1.609 C347.728,1.609 357.771,20.501 357.771,38.697 C357.771,57.291 345.639,75.188 326.15,75.188 L306.86,75.188 C303.679,75.188 302.684,74.593 302.684,71.113 L302.684,6.382 L302.684,6.382 Z" id="Fill-2" fill="#9A2D2C" mask="url(#mask-2)"></path>
            <path d="M272.862,8.986 C266.459,8.986 260.547,14.223 260.547,21.109 C260.547,27.315 268.884,30.903 277.13,35.365 C285.854,40.117 295.164,44.868 295.164,54.955 C295.164,68.824 284.789,76 271.405,76 C265.297,76 259.671,74.35 254.725,71.151 C252.98,69.985 252.108,68.531 252.108,66.883 C252.108,64.652 253.175,63.586 255.403,63.586 C256.472,63.586 257.634,63.974 258.8,64.75 C262.58,67.075 267.429,68.434 271.697,68.434 C280.137,68.434 287.309,64.75 287.309,55.439 C287.309,49.621 280.328,45.935 272.764,41.958 C263.26,37.013 252.592,31.583 252.592,21.497 C252.592,8.792 262.29,1.423 274.412,1.423 C279.648,1.423 285.371,2.876 290.9,5.882 C292.74,6.95 293.613,8.695 293.613,10.345 C293.613,12.282 292.255,14.126 290.22,14.126 C289.056,14.126 287.893,13.253 286.536,12.381 C283.432,10.44 277.902,8.986 272.862,8.986" id="Fill-4" fill="#9A2D2C" mask="url(#mask-2)"></path>
            <path d="M47.347,71.725 C47.257,73.436 46.091,74.983 43.929,74.983 C41.768,74.983 40.596,73.361 40.596,71.649 L40.596,39.306 C40.596,30.208 46.902,23.002 58.884,23.002 C65.1,23.002 69.874,24.082 73.839,25.703 C75.369,26.335 76.362,27.776 76.362,28.947 C76.362,31.019 74.83,31.741 73.299,31.741 C70.505,31.741 66.721,29.578 60.866,29.578 C52.397,29.578 47.351,33.722 47.351,39.937 L47.347,71.725" id="Fill-5" fill="#9A2D2C" mask="url(#mask-2)"></path>
            <path d="M6.708,38.673 L6.708,71.808 C6.62,73.521 5.495,74.981 3.333,74.981 C1.173,74.981 0,73.359 0,71.649 L0,23.13 C0.394,7.773 10.702,0.096 21.549,0.096 L34.561,0.096 C37.477,0.096 38.985,1.303 38.985,3.615 C38.985,5.826 37.477,6.933 34.561,6.933 L21.822,6.893 C13.665,6.893 6.814,11.968 6.814,23.206 L6.757,27.997 C6.757,27.997 6.757,26.441 6.754,31.901 L29.127,31.901 C30.989,31.901 32.498,33.412 32.498,35.273 C32.498,37.135 30.989,38.644 29.127,38.644 L6.708,38.673" id="Fill-6" fill="#9A2D2C" mask="url(#mask-2)"></path>
        </g>
        <path d="M179.238,253.802 L141.975,253.802 L142.022,253.427 C142.666,248.484 145.466,243.79 149.703,240.544 C152.713,238.242 156.3,237.122 160.675,237.122 C165.175,237.122 168.979,238.496 172.646,241.443 C175.921,244.072 179.238,249.048 179.238,253.471 L179.238,253.802 Z M186.124,252.488 C185.283,245.993 181.842,239.963 176.431,235.511 C172.052,231.91 166.526,230.007 160.452,230.007 C148.431,230.007 137.119,239.6 135.237,251.393 C133.266,263.735 140.49,276.075 152.045,280.097 C157.127,281.865 162.846,281.844 169.056,280.03 C171.014,279.459 173.205,278.718 174.452,277.142 C175.4,275.949 175.398,273.898 174.447,272.838 C173.772,272.081 172.646,271.649 171.365,271.649 C170.935,271.649 170.573,271.835 170.15,272.048 C170.009,272.121 169.863,272.194 169.714,272.263 C168.793,272.676 167.939,273.021 167.1,273.312 C163.643,274.513 160.192,274.768 156.786,274.071 C153.077,273.309 150,271.664 147.384,269.045 C145.188,266.849 143.55,264.062 142.641,260.988 L142.517,260.563 L182.451,260.563 C183.693,260.563 184.609,260.209 185.25,259.48 C186.627,257.913 186.441,254.919 186.124,252.488 L186.124,252.488 Z" id="Fill-8" fill="#9A2D2C"></path>
        <path d="M120.689,253.802 L83.423,253.802 L83.471,253.427 C84.115,248.484 86.915,243.79 91.151,240.544 C94.161,238.242 97.749,237.122 102.123,237.122 C106.624,237.122 110.429,238.496 114.097,241.443 C117.374,244.072 120.689,249.048 120.689,253.471 L120.689,253.802 Z M127.575,252.488 C126.736,245.993 123.293,239.963 117.882,235.511 C113.505,231.91 107.976,230.007 101.901,230.007 C89.879,230.007 78.568,239.6 76.686,251.393 C74.713,263.735 81.939,276.075 93.492,280.097 C98.575,281.865 104.295,281.844 110.508,280.03 C112.464,279.459 114.657,278.718 115.902,277.142 C116.85,275.949 116.848,273.898 115.899,272.838 C115.223,272.081 114.099,271.649 112.817,271.649 C112.386,271.649 112.023,271.835 111.6,272.048 C111.458,272.121 111.314,272.194 111.164,272.263 C110.243,272.676 109.387,273.021 108.549,273.312 C105.092,274.513 101.64,274.768 98.235,274.071 C94.525,273.309 91.449,271.664 88.831,269.045 C86.636,266.849 84.997,264.062 84.09,260.988 L83.965,260.563 L123.902,260.563 C125.145,260.563 126.061,260.209 126.7,259.48 C128.078,257.913 127.892,254.919 127.575,252.488 L127.575,252.488 Z" id="Fill-9" fill="#9A2D2C"></path>
        <path d="M353.807,212.37 C353.94,212.37 354.068,212.365 354.191,212.355 C354.314,212.344 354.42,212.314 354.511,212.265 C354.602,212.216 354.676,212.148 354.732,212.06 C354.788,211.973 354.816,211.848 354.816,211.687 C354.816,211.554 354.786,211.449 354.727,211.371 C354.667,211.294 354.592,211.234 354.501,211.192 C354.41,211.15 354.308,211.124 354.196,211.114 C354.084,211.103 353.975,211.098 353.87,211.098 L353.008,211.098 L353.008,212.37 L353.807,212.37 Z M353.008,214.842 L352.293,214.842 L352.293,210.488 L353.944,210.488 C354.469,210.488 354.865,210.586 355.132,210.783 C355.398,210.979 355.531,211.298 355.531,211.74 C355.531,212.132 355.423,212.42 355.206,212.602 C354.988,212.784 354.718,212.893 354.396,212.928 L355.616,214.842 L354.806,214.842 L353.68,212.98 L353.008,212.98 L353.008,214.842 Z M356.794,212.592 C356.794,212.114 356.716,211.677 356.562,211.277 C356.408,210.877 356.194,210.534 355.921,210.246 C355.647,209.959 355.328,209.736 354.964,209.578 C354.599,209.42 354.207,209.341 353.786,209.341 C353.358,209.341 352.96,209.42 352.592,209.578 C352.224,209.736 351.903,209.959 351.63,210.246 C351.357,210.534 351.142,210.877 350.988,211.277 C350.834,211.677 350.757,212.114 350.757,212.592 C350.757,213.04 350.827,213.461 350.967,213.853 C351.107,214.246 351.309,214.59 351.572,214.884 C351.835,215.178 352.152,215.412 352.524,215.584 C352.895,215.755 353.316,215.841 353.786,215.841 C354.207,215.841 354.599,215.762 354.964,215.605 C355.328,215.447 355.647,215.224 355.921,214.936 C356.194,214.649 356.408,214.307 356.562,213.911 C356.716,213.515 356.794,213.075 356.794,212.592 Z M357.635,212.592 C357.635,213.18 357.531,213.717 357.325,214.2 C357.118,214.684 356.837,215.098 356.483,215.442 C356.129,215.785 355.719,216.051 355.253,216.241 C354.786,216.43 354.298,216.525 353.786,216.525 C353.218,216.525 352.697,216.425 352.224,216.225 C351.751,216.025 351.344,215.75 351.004,215.399 C350.664,215.049 350.398,214.633 350.205,214.153 C350.012,213.673 349.915,213.152 349.915,212.592 C349.915,212.002 350.019,211.466 350.226,210.982 C350.433,210.498 350.713,210.085 351.067,209.741 C351.421,209.398 351.833,209.131 352.303,208.942 C352.772,208.753 353.267,208.658 353.786,208.658 C354.298,208.658 354.786,208.753 355.253,208.942 C355.719,209.131 356.129,209.398 356.483,209.741 C356.837,210.085 357.118,210.498 357.325,210.982 C357.531,211.466 357.635,212.002 357.635,212.592 L357.635,212.592 Z" id="Fill-10" fill="#9A2D2C"></path>
        <g id="Group-15" transform="translate(77.000000, 0.000000)" fill="#9A2D2C">
            <path d="M195.427,14.531 C195.56,14.531 195.688,14.526 195.811,14.515 C195.934,14.505 196.041,14.475 196.132,14.426 C196.223,14.377 196.297,14.309 196.353,14.221 C196.409,14.133 196.437,14.009 196.437,13.847 C196.437,13.714 196.407,13.609 196.347,13.532 C196.288,13.455 196.213,13.395 196.122,13.353 C196.03,13.311 195.928,13.285 195.816,13.274 C195.704,13.264 195.595,13.259 195.49,13.259 L194.628,13.259 L194.628,14.531 L195.427,14.531 Z M194.628,17.002 L193.913,17.002 L193.913,12.648 L195.564,12.648 C196.09,12.648 196.486,12.746 196.752,12.943 C197.019,13.139 197.152,13.458 197.152,13.9 C197.152,14.293 197.043,14.58 196.826,14.762 C196.608,14.945 196.339,15.053 196.016,15.088 L197.236,17.002 L196.426,17.002 L195.301,15.141 L194.628,15.141 L194.628,17.002 Z M198.414,14.752 C198.414,14.275 198.337,13.837 198.183,13.437 C198.029,13.037 197.815,12.694 197.541,12.407 C197.268,12.119 196.949,11.896 196.584,11.739 C196.22,11.581 195.827,11.502 195.406,11.502 C194.978,11.502 194.581,11.581 194.213,11.739 C193.844,11.896 193.524,12.119 193.25,12.407 C192.977,12.694 192.763,13.037 192.609,13.437 C192.454,13.837 192.377,14.275 192.377,14.752 C192.377,15.201 192.448,15.621 192.588,16.014 C192.728,16.406 192.929,16.75 193.193,17.045 C193.455,17.339 193.772,17.572 194.144,17.744 C194.516,17.916 194.936,18.002 195.406,18.002 C195.827,18.002 196.22,17.923 196.584,17.765 C196.949,17.607 197.268,17.385 197.541,17.097 C197.815,16.81 198.029,16.468 198.183,16.072 C198.337,15.675 198.414,15.236 198.414,14.752 Z M199.255,14.752 C199.255,15.341 199.152,15.877 198.945,16.361 C198.738,16.845 198.458,17.258 198.104,17.602 C197.75,17.946 197.34,18.212 196.873,18.401 C196.407,18.59 195.918,18.685 195.406,18.685 C194.838,18.685 194.318,18.585 193.844,18.385 C193.371,18.186 192.964,17.911 192.624,17.56 C192.284,17.209 192.018,16.794 191.825,16.314 C191.632,15.833 191.536,15.313 191.536,14.752 C191.536,14.163 191.639,13.626 191.846,13.143 C192.053,12.659 192.334,12.245 192.687,11.902 C193.041,11.558 193.454,11.292 193.923,11.102 C194.393,10.913 194.887,10.818 195.406,10.818 C195.918,10.818 196.407,10.913 196.873,11.102 C197.34,11.292 197.75,11.558 198.104,11.902 C198.458,12.245 198.738,12.659 198.945,13.143 C199.152,13.626 199.255,14.163 199.255,14.752 L199.255,14.752 Z" id="Fill-11"></path>
            <path d="M185.171,3.633 C195.066,13.523 167.637,56.994 163.001,61.633 C158.363,66.263 146.587,62.004 136.695,52.111 C126.802,42.221 122.54,30.441 127.177,25.805 C131.812,21.166 175.281,-6.26 185.171,3.633" id="Fill-13"></path>
            <path d="M46.427,14.097 C31.322,5.527 9.83,-4.007 2.993,2.831 C-3.937,9.757 5.947,31.734 14.607,46.867 C22.314,33.467 33.278,22.187 46.427,14.097" id="Fill-14"></path>
        </g>
        <path d="M247.084,58.221 C248.474,62.939 248.223,66.837 245.969,69.088 C240.698,74.36 226.466,68.749 213.637,56.538 C212.74,55.736 211.853,54.902 210.979,54.027 C206.341,49.386 202.73,44.444 200.422,39.896 C195.928,31.836 194.804,24.715 198.201,21.319 C200.052,19.469 203.013,18.965 206.625,19.615 C208.982,18.126 211.761,16.465 214.811,14.766 C202.411,8.299 188.314,4.645 173.358,4.645 C123.757,4.645 83.544,44.851 83.544,94.457 C83.544,144.056 123.757,184.266 173.358,184.266 C222.96,184.266 263.172,144.056 263.172,94.457 C263.172,78.438 258.968,63.416 251.622,50.394 C250.036,53.291 248.492,55.946 247.084,58.221" id="Fill-16" fill="#9A2D2C"></path>
    </g>
</svg>