<svg xmlns="http://www.w3.org/2000/svg" viewBox="0 0 53 52" enable-background="new 0 0 53 52"><path d="m38.6 14.6c-2.8-2.8-4-6.1-2.7-7.4 1.3-1.3 13.7-9.1 16.5-6.3 2.8 2.8-5 15.1-6.3 16.4-1.3 1.3-4.7.1-7.5-2.7m-25.6-10.8c-3.7 2.3-6.8 5.5-9 9.3-2.5-4.3-5.3-10.5-3.3-12.4 1.9-2 8 .7 12.3 3.1m35.1 12.5c.4-.6.8-1.4 1.3-2.2 2.1 3.7 3.3 7.9 3.3 12.5 0 14-11.4 25.4-25.5 25.4-14.1 0-25.5-11.4-25.5-25.4 0-14 11.4-25.4 25.5-25.4 4.2 0 8.2 1 11.8 2.9-.9.5-1.7 1-2.3 1.4-1-.2-1.9 0-2.4.5-1 1-.6 3 .6 5.3.7 1.3 1.7 2.7 3 4 .2.2.5.5.8.7 3.6 3.5 7.7 5 9.2 3.5.5-.7.6-1.8.2-3.2"/></svg>