<?xml version="1.0" encoding="utf-8"?>
<!-- Generator: Adobe Illustrator 19.1.0, SVG Export Plug-In . SVG Version: 6.00 Build 0)  -->
<!DOCTYPE svg PUBLIC "-//W3C//DTD SVG 1.1//EN" "http://www.w3.org/Graphics/SVG/1.1/DTD/svg11.dtd">
<svg version="1.1" id="logo" fill="#446373" xmlns="http://www.w3.org/2000/svg" xmlns:xlink="http://www.w3.org/1999/xlink" x="0px" y="0px"
	 viewBox="520.1 138.5 894.8 250" style="enable-background:new 520.1 138.5 894.8 250;" xml:space="preserve">
<g>
	<g>
		<g>
			<path class="st0" d="M705,180c4-4.7,6.6-9.6,6.6-14.8c0-8.7-7.2-14.2-16-14.2c-8.2,0-15,5.3-16.3,14.2l-12-2.9
				c2.3-14.6,14.2-23.8,28.2-23.8c15.7,0,28.2,10.7,28.2,26.6c0,8.7-4,16.6-9.8,23.3c-11.6,13.5-11.9,14-24.4,28.8H724v12.4h-55.6
				v-5.3L705,180z"/>
		</g>
		<path class="st0" d="M668.6,290.3l0.1-45.2h98.1c1,6.3,1.5,12.8,1.5,19.3c0,68.4-55.7,124.1-124.1,124.1
			c-68.4,0.1-124.1-55.6-124.1-124s55.7-124.1,124.1-124.1v43.8c-44.3,0-80.3,36-80.3,80.3s36,80.3,80.3,80.3
			c35.2,0,65.3-22.8,76.1-54.5"/>
	</g>
	<g>
		<path class="st0" d="M860.1,259.1c0-32.7,2-46,7.4-54c6.8-10,19.9-15.5,37-15.5c15.1,0,27.7,4.4,34.4,12.3
			c5.1,5.6,7.2,13.4,7.2,25.7v7.4h-27.7c-0.4-14-0.8-16.5-2.8-19.5c-2.2-3.4-6.4-5.5-11.5-5.5c-5.5,0-10,2.4-11.9,6
			c-2.8,5.6-3.6,15.9-3.6,42.9c0,22.3,1,35.3,2.8,40.8c1.6,4.6,6.2,7.2,12.3,7.2c10.8,0,13.8-5.5,14.7-26.1H946
			c-0.2,17.4-1.2,24.5-4.9,31.3c-5.1,9.8-18.5,15.3-37.8,15.3c-22.5,0-36.1-8.3-40.6-24.3C861,296.6,860.1,280.9,860.1,259.1z"/>
		<path class="st0" d="M962,191.7h42.9c20.6,0,24.3,0.8,31.5,6.6c6.4,5.3,9.6,14,9.6,26.9c0,10.8-2.2,19.1-6.4,24.7
			c-3.6,4.9-8,7-17.4,9.1c17.9,2.2,24.1,10.6,24.3,33.1c0,3.6,0.4,11,0.8,20.2c0.4,6.4,0.6,7.6,2.2,13.2H1020
			c-1.2-8.7-1.2-8.9-1.2-25.3c0-16.1-1.2-24.1-4.4-27.7c-2.2-2.4-4.6-3-11.7-3h-13.4v56.1H962L962,191.7L962,191.7z M1000.5,249.7
			c12.5,0,17-5.3,17-19.3c0-7.4-2-13.4-5.3-16.3c-2.4-2-4.2-2.4-11-2.4h-12.1v38C989.2,249.7,1000.5,249.7,1000.5,249.7z"/>
		<path class="st0" d="M1063.4,258.4c0-31.2,1.4-42,6.8-51.4c6.4-11.5,19.7-17.4,38.6-17.4c20.9,0,35.1,7.8,40.6,22.5
			c2.8,7.2,4,21.3,4,47c0,28.1-1.4,41.4-5.3,49c-6.4,12.7-20.1,19.5-39.1,19.5s-32.1-5.8-38.7-17.4
			C1064.9,300.9,1063.4,289.8,1063.4,258.4z M1108.4,307c8.3,0,13.2-4,14.9-11.9c1-5.1,1.8-22.5,1.8-41.2c0-20.1-1-31.9-3-36.7
			c-1.8-4.4-7-7.2-13.6-7.2c-7.6,0-12.9,3.4-14.4,9.2c-1.4,5.6-2.2,19.5-2.2,40.8c0,17.7,0.6,29.3,1.6,34.9
			C1095,303,1099.9,307,1108.4,307z"/>
		<path class="st0" d="M1162.4,191.7h27.9l9.1,48.8c3.2,17.7,4,33.8,5.5,64.6c5.6-41,7.4-52.4,10-64.6l10.6-48.8h31.3l10,48.8
			c4.6,22.3,5.6,37.4,7,64.6c1.8-22.7,3.6-39.3,8-64.6l8.7-48.8h24.5l-27,133.9h-30.3l-12.7-62.2c-2.2-10.8-4.9-36.1-5.5-49.8
			c-4,30.1-4.2,34.4-7.4,49.8l-13,62.2h-31L1162.4,191.7z"/>
		<path class="st0" d="M1326.9,191.7h37.4c21.7,0,28.3,1.2,35.1,6c8.5,6.2,12.7,17,14.5,38.2c0.6,8.3,1,18.9,1,28.3
			c0,24.1-1.7,35.9-5.6,43.8c-5.6,11.3-18.5,17.7-35.1,17.7H1327L1326.9,191.7L1326.9,191.7z M1366.8,304.5c9.6,0,14.9-2.2,16.8-7.2
			c2-5.3,2.6-13,2.6-34.9c0-23.9-0.8-34.4-3-41c-2-5.6-7.4-8.7-15.7-8.7H1355v91.8H1366.8z"/>
	</g>
	<rect x="810.6" y="139" class="st0" width="8.9" height="247.1"/>
</g>
</svg>
