<svg width="173" height="164" viewBox="0 0 173 164" fill="none" xmlns="http://www.w3.org/2000/svg">
<path d="M136 158H155.8C163.09 158 169 152.851 169 146.5C169 140.149 163.09 135 155.8 135H136V158Z" fill="#AFA3C6"/>
<path fill-rule="evenodd" clip-rule="evenodd" d="M17.3 0H26.7167C28.3091 0 29.6 1.28817 29.6 2.87719V17.2632V23.0175V103.579C29.6 105.168 28.3091 106.456 26.7167 106.456H17.3C10.9303 106.456 5.76666 111.609 5.76666 117.965C5.76666 124.321 10.9303 129.474 17.3 129.474H155.7C159.958 129.471 164.067 131.042 167.233 133.883V34.5263C167.226 28.1732 162.067 23.0247 155.7 23.0175H40C40 23.0175 37 23 37 20C37 17 40 17.2632 40 17.2632H155.7C165.25 17.2739 172.989 24.9966 173 34.5263V146.737C172.989 156.267 165.25 163.989 155.7 164H136.517C134.924 164 133.633 162.712 133.633 161.123V142C133.633 142 133.5 139 136.5 139C138.375 139 138.883 140.172 139 141.051C139.07 141.578 139 142 139 142V158.018H156.3C162.67 158.018 167.833 152.865 167.833 146.509C167.833 140.153 162.67 135 156.3 135H139L17.3 135.228C7.74992 135.217 0.010726 127.495 0 117.965V17.2632C0.010726 7.73342 7.74992 0.0107029 17.3 0Z" fill="#380D75"/>
<path fill-rule="evenodd" clip-rule="evenodd" d="M43.6667 34H50.3333C51.2667 34 52 33.12 52 32C52 30.88 51.2667 30 50.3333 30H43.6667C42.7333 30 42 30.88 42 32C42 33.12 42.7333 34 43.6667 34ZM57.6667 34H64.3333C65.2667 34 66 33.12 66 32C66 30.88 65.2667 30 64.3333 30H57.6667C56.7333 30 56 30.88 56 32C56 33.12 56.7333 34 57.6667 34ZM71.6667 34H78.3333C79.2667 34 80 33.12 80 32C80 30.88 79.2667 30 78.3333 30H71.6667C70.7333 30 70 30.88 70 32C70 33.12 70.7333 34 71.6667 34ZM85.6667 34H92.3333C93.2667 34 94 33.12 94 32C94 30.88 93.2667 30 92.3333 30H85.6667C84.7333 30 84 30.88 84 32C84 33.12 84.7333 34 85.6667 34ZM99.6667 34H106.333C107.267 34 108 33.12 108 32C108 30.88 107.267 30 106.333 30H99.6667C98.7333 30 98 30.88 98 32C98 33.12 98.7333 34 99.6667 34ZM113.667 34H120.333C121.267 34 122 33.12 122 32C122 30.88 121.267 30 120.333 30H113.667C112.733 30 112 30.88 112 32C112 33.12 112.733 34 113.667 34ZM127.667 34H134.333C135.267 34 136 33.12 136 32C136 30.88 135.267 30 134.333 30H127.667C126.733 30 126 30.88 126 32C126 33.12 126.733 34 127.667 34ZM141.667 34H148.333C149.267 34 150 33.12 150 32C150 30.88 149.267 30 148.333 30H141.667C140.733 30 140 30.88 140 32C140 33.12 140.733 34 141.667 34Z" fill="#341472" fill-opacity="0.3"/>
<path fill-rule="evenodd" clip-rule="evenodd" d="M43 46.3333V39.6667C43 38.7333 42.12 38 41 38C39.88 38 39 38.7333 39 39.6667V46.3333C39 47.2667 39.88 48 41 48C42.12 48 43 47.2667 43 46.3333Z" fill="#341472" fill-opacity="0.3"/>
<path fill-rule="evenodd" clip-rule="evenodd" d="M43 60.3333V53.6667C43 52.7333 42.12 52 41 52C39.88 52 39 52.7333 39 53.6667V60.3333C39 61.2667 39.88 62 41 62C42.12 62 43 61.2667 43 60.3333Z" fill="#341472" fill-opacity="0.3"/>
<path fill-rule="evenodd" clip-rule="evenodd" d="M43 74.3333V67.6667C43 66.7333 42.12 66 41 66C39.88 66 39 66.7333 39 67.6667V74.3333C39 75.2667 39.88 76 41 76C42.12 76 43 75.2667 43 74.3333Z" fill="#341472" fill-opacity="0.3"/>
<path fill-rule="evenodd" clip-rule="evenodd" d="M43 88.3333V81.6667C43 80.7333 42.12 80 41 80C39.88 80 39 80.7333 39 81.6667V88.3333C39 89.2667 39.88 90 41 90C42.12 90 43 89.2667 43 88.3333Z" fill="#341472" fill-opacity="0.3"/>
<path fill-rule="evenodd" clip-rule="evenodd" d="M43 102.333V95.6667C43 94.7333 42.12 94 41 94C39.88 94 39 94.7333 39 95.6667V102.333C39 103.267 39.88 104 41 104C42.12 104 43 103.267 43 102.333Z" fill="#341472" fill-opacity="0.3"/>
<path fill-rule="evenodd" clip-rule="evenodd" d="M43 116.333V109.667C43 108.733 42.12 108 41 108C39.88 108 39 108.733 39 109.667V116.333C39 117.267 39.88 118 41 118C42.12 118 43 117.267 43 116.333Z" fill="#341472" fill-opacity="0.3"/>
<path fill-rule="evenodd" clip-rule="evenodd" d="M154 46.3333V39.6667C154 38.7333 153.12 38 152 38C150.88 38 150 38.7333 150 39.6667V46.3333C150 47.2667 150.88 48 152 48C153.12 48 154 47.2667 154 46.3333Z" fill="#341472" fill-opacity="0.3"/>
<path fill-rule="evenodd" clip-rule="evenodd" d="M154 60.3333V53.6667C154 52.7333 153.12 52 152 52C150.88 52 150 52.7333 150 53.6667V60.3333C150 61.2667 150.88 62 152 62C153.12 62 154 61.2667 154 60.3333Z" fill="#341472" fill-opacity="0.3"/>
<path fill-rule="evenodd" clip-rule="evenodd" d="M154 74.3333V67.6667C154 66.7333 153.12 66 152 66C150.88 66 150 66.7333 150 67.6667V74.3333C150 75.2667 150.88 76 152 76C153.12 76 154 75.2667 154 74.3333Z" fill="#341472" fill-opacity="0.3"/>
<path fill-rule="evenodd" clip-rule="evenodd" d="M154 88.3333V81.6667C154 80.7333 153.12 80 152 80C150.88 80 150 80.7333 150 81.6667V88.3333C150 89.2667 150.88 90 152 90C153.12 90 154 89.2667 154 88.3333Z" fill="#341472" fill-opacity="0.3"/>
<path fill-rule="evenodd" clip-rule="evenodd" d="M154 102.333V95.6667C154 94.7333 153.12 94 152 94C150.88 94 150 94.7333 150 95.6667V102.333C150 103.267 150.88 104 152 104C153.12 104 154 103.267 154 102.333Z" fill="#341472" fill-opacity="0.3"/>
<path fill-rule="evenodd" clip-rule="evenodd" d="M154 116.333V109.667C154 108.733 153.12 108 152 108C150.88 108 150 108.733 150 109.667V116.333C150 117.267 150.88 118 152 118C153.12 118 154 117.267 154 116.333Z" fill="#341472" fill-opacity="0.3"/>
<path fill-rule="evenodd" clip-rule="evenodd" d="M141.667 123H148.333C149.267 123 150 122.12 150 121C150 119.88 149.267 119 148.333 119H141.667C140.733 119 140 119.88 140 121C140 122.12 140.733 123 141.667 123ZM127.667 123H134.333C135.267 123 136 122.12 136 121C136 119.88 135.267 119 134.333 119H127.667C126.733 119 126 119.88 126 121C126 122.12 126.733 123 127.667 123ZM113.667 123H120.333C121.267 123 122 122.12 122 121C122 119.88 121.267 119 120.333 119H113.667C112.733 119 112 119.88 112 121C112 122.12 112.733 123 113.667 123ZM99.6667 123H106.333C107.267 123 108 122.12 108 121C108 119.88 107.267 119 106.333 119H99.6667C98.7333 119 98 119.88 98 121C98 122.12 98.7333 123 99.6667 123ZM85.6667 123H92.3333C93.2667 123 94 122.12 94 121C94 119.88 93.2667 119 92.3333 119H85.6667C84.7333 119 84 119.88 84 121C84 122.12 84.7333 123 85.6667 123ZM71.6667 123H78.3333C79.2667 123 80 122.12 80 121C80 119.88 79.2667 119 78.3333 119H71.6667C70.7333 119 70 119.88 70 121C70 122.12 70.7333 123 71.6667 123ZM57.6667 123H64.3333C65.2667 123 66 122.12 66 121C66 119.88 65.2667 119 64.3333 119H57.6667C56.7333 119 56 119.88 56 121C56 122.12 56.7333 123 57.6667 123ZM43.6667 123H50.3333C51.2667 123 52 122.12 52 121C52 119.88 51.2667 119 50.3333 119H43.6667C42.7333 119 42 119.88 42 121C42 122.12 42.7333 123 43.6667 123Z" fill="#341472" fill-opacity="0.3"/>
<path d="M105 110.842H87C85.8954 110.842 85 111.737 85 112.842C85 113.946 85.8954 114.842 87 114.842H105C106.105 114.842 107 113.946 107 112.842C107 111.737 106.105 110.842 105 110.842Z" fill="#380D75"/>
<path d="M55.8685 51.354L53.9151 57.0271C53.5555 58.0715 54.1106 59.2097 55.155 59.5693C56.1994 59.9289 57.3376 59.3738 57.6972 58.3294L59.6506 52.6563C60.0102 51.6119 59.4551 50.4737 58.4107 50.1141C57.3663 49.7545 56.2281 50.3096 55.8685 51.354Z" fill="#380D75"/>
<path d="M71.529 51.0924C71.4863 51.1201 71.4436 51.1479 71.4009 51.1756C70.7473 51.4774 69.9562 51.1938 69.6493 50.5344L68.4073 47.9677L61.6654 67.6792L64.2521 66.4288C64.9058 66.1269 65.6968 66.4105 66.0037 67.0699C66.2825 67.6862 66.0651 68.3794 65.5101 68.7398C65.4674 68.7675 65.4247 68.7952 65.3821 68.823L59.9673 71.4194C59.6404 71.5703 59.3002 71.6072 58.9614 71.4592C58.6506 71.3544 58.3691 71.1079 58.2157 70.7782L55.5782 65.315C55.2713 64.6556 55.5461 63.8638 56.1998 63.562C56.8535 63.2601 57.6446 63.5437 57.9514 64.2031L59.1934 66.7699L65.9353 47.0583L63.3913 48.2811C62.667 48.5675 61.9039 48.327 61.569 47.6245C61.2622 46.9651 61.537 46.1733 62.1907 45.8715L67.6055 43.275C68.2591 42.9732 69.0502 43.2568 69.3571 43.9162L71.9945 49.3794C72.2734 49.9957 72.0839 50.732 71.529 51.0924Z" fill="#AC7FFF"/>
<path d="M119.51 109.558C119.47 109.527 119.43 109.496 119.39 109.464C118.892 108.945 118.902 108.104 119.426 107.599L121.448 105.589L71.6158 105.632L73.6402 107.671C74.1384 108.191 74.1278 109.031 73.6043 109.536C73.1124 110 72.3861 110.02 71.8647 109.613C71.8246 109.581 71.7845 109.55 71.7444 109.519L67.5265 105.244C67.2774 104.984 67.1318 104.675 67.1613 104.306C67.1592 103.978 67.3007 103.632 67.5625 103.379L71.8694 99.107C72.393 98.6022 73.2311 98.6042 73.7293 99.124C74.2275 99.6438 74.2169 100.484 73.6933 100.989L71.6708 102.999L121.503 102.956L119.519 100.949C119.012 100.357 118.991 99.5573 119.547 99.012C120.07 98.5072 120.908 98.5092 121.406 99.029L125.624 103.304C126.122 103.823 126.112 104.664 125.588 105.168L121.281 109.441C120.789 109.905 120.032 109.966 119.51 109.558Z" fill="#AC7FFF"/>
<path d="M141.517 52.0804L141.495 52.0231L139.317 46.3573C139.272 46.2463 139.194 46.1521 139.093 46.0883C138.991 46.0255 138.873 45.9953 138.754 46.0017C138.635 46.0081 138.52 46.0507 138.426 46.124C138.333 46.1993 138.266 46.3014 138.233 46.4163L136.762 50.9011H130.808L129.338 46.4163C129.306 46.3008 129.238 46.1982 129.144 46.1231C129.05 46.0499 128.936 46.0072 128.817 46.0008C128.697 45.9945 128.579 46.0247 128.478 46.0874C128.377 46.1515 128.298 46.2456 128.254 46.3565L126.072 52.0198L126.05 52.0771C125.736 52.8937 125.698 53.7897 125.94 54.6301C126.182 55.4705 126.691 56.2097 127.391 56.7363L127.399 56.7421L127.419 56.7562L130.736 59.2328L132.378 60.4711L133.377 61.2236C133.494 61.3121 133.637 61.36 133.784 61.36C133.931 61.36 134.074 61.3121 134.191 61.2236L135.19 60.4711L136.832 59.2328L140.169 56.7413L140.177 56.7346C140.876 56.208 141.384 55.4695 141.626 54.6303C141.867 53.791 141.829 52.8962 141.517 52.0804Z" fill="#FC6D26"/>
<path d="M122.101 66.5853L122.025 66.3913L114.675 47.2098C114.526 46.8339 114.261 46.5149 113.919 46.2988C113.577 46.0864 113.178 45.984 112.775 46.0057C112.373 46.0273 111.987 46.1718 111.67 46.4197C111.356 46.6748 111.128 47.0203 111.017 47.4094L106.055 62.5927H85.9594L80.9967 47.4094C80.889 47.0182 80.6608 46.6709 80.3444 46.4169C80.0269 46.169 79.6409 46.0245 79.2387 46.0028C78.8364 45.9812 78.4372 46.0835 78.095 46.296C77.7537 46.513 77.4892 46.8316 77.3386 47.207L69.9748 66.3801L69.9017 66.5741C68.8436 69.3386 68.713 72.3721 69.5295 75.2173C70.3461 78.0625 72.0655 80.5651 74.4285 82.3478L74.4538 82.3675L74.5213 82.4153L85.7175 90.7998L91.2566 94.9921L94.6307 97.5395C95.0254 97.8392 95.5073 98.0014 96.0028 98.0014C96.4983 98.0014 96.9803 97.8392 97.3749 97.5395L100.749 94.9921L106.288 90.7998L117.552 82.3647L117.58 82.3422C119.938 80.5592 121.653 78.0591 122.468 75.2178C123.284 72.3764 123.155 69.3472 122.101 66.5853Z" fill="#E24329"/>
<path d="M122.101 66.5853L122.025 66.3913C118.444 67.1264 115.069 68.6434 112.142 70.8338L96 83.0395C101.497 87.198 106.282 90.8111 106.282 90.8111L117.546 82.3759L117.574 82.3534C119.935 80.5705 121.653 78.0688 122.47 75.2251C123.286 72.3813 123.157 69.3492 122.101 66.5853Z" fill="#FC6D26"/>
<path d="M85.7176 90.8111L91.2566 95.0033L94.6307 97.5508C95.0254 97.8504 95.5073 98.0126 96.0028 98.0126C96.4984 98.0126 96.9803 97.8504 97.3749 97.5508L100.749 95.0033L106.288 90.8111C106.288 90.8111 101.497 87.1868 96 83.0395C90.5031 87.1868 85.7176 90.8111 85.7176 90.8111Z" fill="#FCA326"/>
<path d="M79.8551 70.8338C76.9304 68.6389 73.5563 67.118 69.9748 66.3801L69.9017 66.5741C68.8436 69.3386 68.713 72.3721 69.5295 75.2173C70.3461 78.0625 72.0655 80.5651 74.4285 82.3478L74.4538 82.3675L74.5213 82.4153L85.7176 90.7998C85.7176 90.7998 90.4975 87.1868 96 83.0282L79.8551 70.8338Z" fill="#FC6D26"/>
<path d="M6 105.354C8.47119 102.513 11.6773 100.944 15 100.947H24V6H15C10.0318 6.0072 6.00563 11.1556 6 17.5088V105.354Z" fill="#CAB5FF"/>
</svg>
