<svg viewBox="0 0 56 52" xmlns="http://www.w3.org/2000/svg"><path d="m174.71 50.572l-17.03 12.435 4.566-5.885 10.561-13.605 2.091 6.459c.073.222-.003.462-.187.596m-49.49 0c-.185-.134-.261-.374-.19-.595l2.093-6.461 15.13 19.497-17.03-12.441m8.171-26.472l4.772 14.745h-9.528l4.756-14.745m24.26 17.745l-7.682 23.769-7.684-23.769h15.366m8.887-17.744l4.765 14.744h-9.53l4.765-14.744m-12.513 38.719l6.777-20.964h9.494l-15.829 20.395-.442.569m-14.897-20.964l6.775 20.959-16.261-20.959h9.486m38.623 7.197l-2.944-9.09c-.006-.022-.006-.044-.013-.066l-5.872-18.17c-.346-1.035-1.347-1.758-2.401-1.72-1.084.006-2.038.703-2.373 1.736l-5.527 17.11h-17.307l-5.538-17.11c-.334-1.032-1.287-1.729-2.371-1.735-1.113-.041-2.054.686-2.407 1.737l-5.85 18.14c-.002.005-.005.009-.007.015l-2.967 9.16c-.47 1.456.041 3.039 1.273 3.941l25.624 18.719c.054.039.115.056.171.087.006.003.011.007.016.01.004.002.006.005.01.007.002.001.004.002.005.003.029.014.057.027.086.04.083.036.165.067.251.087.001 0 .001.001.002.001.017.004.034.006.05.009.027.006.055.007.082.011.07.01.14.033.211.033.158 0 .315-.032.467-.081.004-.001.007-.002.011-.003.003-.001.006-.002.009-.003.055-.019.109-.041.162-.066.017-.008.033-.019.05-.027.001-.001.002-.001.003-.002.002-.001.003-.001.005-.002.001 0 .002-.001.003-.002.058-.032.114-.063.168-.102.006-.004.014-.006.02-.01 0-.001.001-.001.002-.001l25.625-18.709c1.231-.901 1.742-2.484 1.271-3.941" transform="translate(-122-20)"/></svg>
