<svg width="160" height="155" viewBox="0 0 160 155" fill="none" xmlns="http://www.w3.org/2000/svg">
<path d="M157.337 60.9936L157.112 60.4188L135.335 3.58462C134.892 2.4707 134.107 1.52576 133.094 0.885373C132.079 0.255869 130.897 -0.0473207 129.705 0.0167412C128.513 0.080803 127.369 0.509031 126.429 1.24361C125.498 1.99927 124.824 3.02322 124.496 4.17612L109.792 49.1636H50.25L35.5457 4.17612C35.2268 3.01694 34.5505 1.98786 33.6129 1.23527C32.6722 0.500699 31.5287 0.0724702 30.3368 0.00840838C29.145 -0.0556535 27.9622 0.247536 26.9481 0.87704C25.937 1.52001 25.1531 2.46412 24.7071 3.57629L2.88816 60.3854L2.67156 60.9603C-0.46338 69.1514 -0.850337 78.1396 1.56903 86.5699C3.98839 95.0001 9.08292 102.415 16.0845 107.697L16.1595 107.756L16.3594 107.897L49.5335 132.74L65.9456 145.162L75.9428 152.71C77.1122 153.598 78.5401 154.078 80.0083 154.078C81.4766 154.078 82.9045 153.598 84.0739 152.71L94.0711 145.162L110.483 132.74L143.857 107.747L143.941 107.681C150.926 102.398 156.009 94.9901 158.425 86.5712C160.84 78.1524 160.459 69.1769 157.337 60.9936Z" fill="#E24329"/>
<path d="M157.337 60.9935L157.112 60.4187C146.501 62.5968 136.501 67.0915 127.828 73.5817L80 109.747C96.2871 122.068 110.467 132.774 110.467 132.774L143.841 107.78L143.924 107.714C150.92 102.431 156.01 95.0187 158.429 86.5927C160.848 78.1667 160.465 69.1828 157.337 60.9935Z" fill="#FC6D26"/>
<path d="M49.5335 132.774L65.9456 145.195L75.9428 152.743C77.1122 153.631 78.5401 154.112 80.0083 154.112C81.4766 154.112 82.9045 153.631 84.0739 152.743L94.0711 145.195L110.483 132.774C110.483 132.774 96.2871 122.035 80 109.747C63.7129 122.035 49.5335 132.774 49.5335 132.774Z" fill="#FCA326"/>
<path d="M32.1633 73.5818C23.4974 67.0782 13.5002 62.5718 2.88816 60.3855L2.67156 60.9603C-0.46338 69.1514 -0.850337 78.1397 1.56903 86.5699C3.98839 95.0001 9.08292 102.415 16.0845 107.697L16.1595 107.756L16.3594 107.897L49.5335 132.74C49.5335 132.74 63.6962 122.035 80 109.713L32.1633 73.5818Z" fill="#FC6D26"/>
<path d="M80 117.143C93.2548 117.143 104 106.142 104 92.5714C104 79.001 93.2548 68 80 68C66.7452 68 56 79.001 56 92.5714C56 106.142 66.7452 117.143 80 117.143Z" fill="#CC0000" stroke="white" stroke-width="3"/>
<path fill-rule="evenodd" clip-rule="evenodd" d="M80.3125 97.8642L76.8849 110.553C76.79 110.904 76.9977 111.265 77.3487 111.36C77.6065 111.429 77.8808 111.336 78.0431 111.124L93.1524 91.3812C93.4838 90.9482 93.4014 90.3284 92.9684 89.997C92.7961 89.8651 92.5852 89.7937 92.3683 89.7937H79.9128C79.5493 89.7937 79.2546 89.499 79.2546 89.1354C79.2546 89.0603 79.2674 88.9858 79.2925 88.915L84.8023 73.4069C84.8631 73.2356 84.7736 73.0474 84.6023 72.9865C84.4695 72.9394 84.3213 72.982 84.2339 73.0926L66.4759 95.5527C66.2504 95.8379 66.2988 96.2519 66.584 96.4774C66.7003 96.5693 66.8441 96.6193 66.9923 96.6193H79.3593C79.9046 96.6193 80.3467 97.0614 80.3467 97.6067C80.3467 97.6937 80.3352 97.7803 80.3125 97.8642Z" fill="white"/>
</svg>
