<svg viewBox="0 0 362 486" xmlns="http://www.w3.org/2000/svg"><g fill="none" fill-rule="evenodd" transform="translate(3 3.175522)"><path d="m269.609552 252.117313-10.354925-31.812537-20.483284-63.100298c-1.049552-3.227463-5.626567-3.227463-6.714627 0l-20.483283 63.062686h-68.052537l-20.483284-63.062686c-1.050448-3.227463-5.627463-3.227463-6.715522 0l-20.4456721 63.062686-10.3540298 31.850149c-.937612 2.888956.0752238 6.077015 2.5513432 7.878806l89.4734327 65.013135 89.473433-65.013135c2.476119-1.801791 3.526567-4.98985 2.588955-7.878806" fill="#fc6d26"/><path d="m177.571881 324.97209 34.026268-104.705374h-68.052537z" fill="#e24329"/><path d="m177.546896 324.97209-34.026269-104.705374h-47.6444777z" fill="#fc6d26"/><path d="m95.860209 220.484597-10.3549254 31.812537c-.937612 2.888956.0752239 6.078806 2.5513433 7.878806l89.4743281 65.01403z" fill="#fca326"/><path d="m95.8724776 220.266806h47.6820894l-20.520895-63.062687c-1.050448-3.226567-5.627463-3.226567-6.715523 0z" fill="#e24329"/><path d="m177.571881 324.97209 34.026268-104.705374h47.68209z" fill="#fc6d26"/><path d="m259.245851 220.484597 10.35403 31.812537c.937612 2.888956-.074329 6.078806-2.551344 7.878806l-89.473433 64.976418z" fill="#fca326"/><path d="m259.270746 220.266806h-47.682089l20.483283-63.062687c1.050448-3.226567 5.627463-3.226567 6.715523 0z" fill="#e24329"/><g stroke="#555593" stroke-linecap="round" stroke-linejoin="round" stroke-width="6"><path d="m150.018806 210.344328h12.330448v-33.315224h-23.151045"/><path d="m100.158985 177.029015h-55.4561193v-176.30865679h-44.63552242v218.07492579h86.54776122"/><path d="m268.487015 218.794925h86.618507v-41.766268h-57.388656v-135.1800003h53.880895v-41.1286567h-152.715224v41.1286567h54.199702v129.4970153"/><path d="m215.878657 177.029015h-20.185075v33.315224h9.364478"/><path d="m134.865761 304.105701v11.44209l-44.3158207 112.544776h-1.2752239l-44.6355224-112.544776v-54.518507h-44.63552236v60.576716l65.67761196 157.498209h48.4611944l60.824776-145.86"/><path d="m202.772418 316.776806v162.327761h152.077612v-41.766268h-107.124179v-49.735523h87.357313v-40.491045h-87.357313v-44.953432h107.124179v-41.128657h-77.948955"/></g></g></svg>