<svg height="601" viewBox="0 0 1109 601" width="1109" xmlns="http://www.w3.org/2000/svg"><g fill="none" fill-rule="evenodd"><g transform="translate(644 3)"><g fill="#456473" stroke="#e75925"><path d="m101.1 330.8-86 191.2 108-38.4 42.1 105.6 85.9-191z" stroke-width="6.1656"/><path d="m361 330.8 85.9 191.2-108-38.4-42.1 105.6-85.8-191z" stroke-width="6.1656"/><circle cx="231" cy="231.1" r="230.3" stroke-width="6.166"/></g><path d="m30 172.1h401.9v118h-401.9z" fill="#e75925"/><path d="m96.1 255.1v-48.2h6v42.8h22.3v5.3zm40.5 0v-48.2h31.5v5.3h-25.6v15.5h25v5.3h-25v16.6h25.6v5.3h-31.5zm78.9 0-4.3-10.7h-23.9l-4.3 10.7h-6.9l19.3-48.2h7.4l19.5 48.2zm-16.2-41.8-10.2 25.9h20.4zm33 41.8v-48.2h16.5c14.9 0 24.7 10.4 24.7 24s-9.8 24-24.7 24zm34.9-24c0-10.4-6.6-18.7-18.4-18.7h-10.4v37.5h10.4c11.6-.1 18.4-8.6 18.4-18.8zm19.2 24v-48.2h31.5v5.3h-25.6v15.5h25v5.3h-25v16.6h25.6v5.3h-31.5zm72.4 0-12.4-19.2h-9.7v19.2h-6v-48.2h19.3c8.8 0 15.1 5.7 15.1 14.6 0 8.6-6 13.4-12.5 14l12.9 19.6zm.4-33.6c0-5.3-3.9-9.2-9.7-9.2h-12.6v18.4h12.6c5.7.1 9.7-3.7 9.7-9.2z" fill="#fff" fill-rule="nonzero"/><circle cx="68.2" cy="231.1" fill="#90d7ee" r="10.5"/><circle cx="393.8" cy="231.1" fill="#90d7ee" r="10.5"/><circle cx="231" cy="231.1" r="205.7" stroke="#90d7ee" stroke-width="9.167"/><path d="m171.5 93.9c.9-1.1 1.4-2.2 1.4-3.4 0-1.9-1.6-3.3-3.6-3.3-1.7 0-3.4 1.2-3.7 3.3l-2.7-.6c.6-3.3 3.3-5.3 6.4-5.3 3.6 0 6.4 2.4 6.4 6.1 0 1.9-.9 3.7-2.2 5.3-2.7 3.1-2.7 3.1-5.5 6.6h7.7v2.8h-12.6v-1.5z" fill="#fff"/><path d="m163.3 118.9v-10.2h22.3c.3 1.4.3 2.8.3 4.3 0 15.4-12.6 28.1-28.1 28.1s-28.1-12.6-28.1-28.1 12.6-28.1 28.1-28.1v9.9c-10.1 0-18.2 8.2-18.2 18.2s8.2 18.2 18.2 18.2c8 0 14.9-5.2 17.3-12.4zm43.5-7c0-7.4.5-10.4 1.6-12.2 1.4-2.2 4.4-3.6 8.3-3.6 3.4 0 6.3 1.1 7.7 2.8 1.2 1.4 1.6 3.1 1.6 5.8v1.6h-6.3c-.2-3.1-.2-3.7-.6-4.4-.5-.8-1.4-1.2-2.5-1.2-1.2 0-2.2.6-2.7 1.4-.6 1.4-.9 3.6-.9 9.8 0 5 .3 8 .6 9.2.3 1.1 1.4 1.6 2.8 1.6 2.5 0 3.1-1.2 3.3-6h6.3c0 4.1-.3 5.5-1.1 7.1-1.2 2.2-4.2 3.4-8.6 3.4-5 0-8.2-1.9-9.2-5.5-.2-1.3-.3-4.9-.3-9.8zm22.9-15.3h9.8c4.7 0 5.5.2 7.1 1.4 1.4 1.2 2.2 3.1 2.2 6.1 0 2.5-.5 4.3-1.4 5.7-.9 1.1-1.7 1.6-4.1 2.1 4.1.5 5.5 2.4 5.5 7.6 0 .9.2 2.5.2 4.6.2 1.4.2 1.7.5 3h-6.7c-.3-1.9-.3-1.9-.3-5.8 0-3.6-.3-5.5-1.1-6.3-.5-.6-1.1-.8-2.7-.8h-3.1v12.6h-6.3v-30.1zm8.8 13.1c2.8 0 3.9-1.2 3.9-4.3 0-1.6-.5-3.1-1.2-3.7-.6-.5-.9-.6-2.5-.6h-2.7v8.6zm14.3 2.1c0-7 .3-9.6 1.4-11.6 1.4-2.5 4.4-4.1 8.8-4.1 4.7 0 8 1.7 9.2 5 .6 1.6.9 4.7.9 10.7 0 6.4-.3 9.4-1.2 11.1-1.4 2.8-4.6 4.4-8.9 4.4s-7.2-1.4-8.8-4.1c-1.1-1.9-1.4-4.5-1.4-11.4zm10.1 11c1.9 0 3-.9 3.4-2.7.3-1.2.5-5 .5-9.4 0-4.6-.3-7.2-.8-8.3s-1.6-1.6-3.1-1.6c-1.7 0-3 .8-3.3 2.1-.3 1.4-.5 4.4-.5 9.2 0 4.1.2 6.7.3 7.9.5 1.8 1.7 2.8 3.5 2.8zm12.4-26.2h6.4l2.1 11c.8 4.1.9 7.6 1.2 14.7 1.4-9.2 1.6-11.9 2.2-14.7l2.4-11h7.1l2.2 11c1.1 5 1.4 8.5 1.6 14.7.5-5.2.9-8.9 1.7-14.7l1.9-11h5.5l-6.1 30.3h-6.9l-2.8-14.1c-.5-2.5-1.1-8.2-1.2-11.3-.9 6.9-.9 7.7-1.6 11.3l-3 14.1h-7zm37.3 0h8.5c4.9 0 6.4.3 8 1.4 1.9 1.4 2.8 3.9 3.3 8.6.2 1.9.3 4.3.3 6.4 0 5.5-.3 8.2-1.4 9.9-1.4 2.5-4.2 4.1-8 4.1h-10.7zm9 25.6c2.2 0 3.4-.5 3.9-1.6s.6-3 .6-7.9c0-5.3-.2-7.7-.8-9.2-.5-1.4-1.6-1.9-3.6-1.9h-2.8v20.9h2.7zm-126.1-37.6h2.1v56h-2.1z" fill="#fff" fill-rule="nonzero"/><path d="m147.73 344.13v2.26h-14.58v14.61h-2.65v-31.28h19.38v2.25h-16.73v12.16zm24 16.87-3.24-8.77h-14.2l-3.23 8.77h-2.77l11.84-31.28h2.51l11.84 31.28zm-10.35-28.06-6.28 17.04h12.55zm20.36-3.22v29.05h15.45v2.23h-18.11v-31.28zm23.19 0v29.05h15.44v2.23h-18.11v-31.28zm49.8 29.11v2.17h-19.6v-1.98l10.72-12.16c1.78-2.046667 3.013333-3.736667 3.7-5.07s1.03-2.63 1.03-3.89c0-1.973333-.58-3.536667-1.74-4.69s-2.756667-1.73-4.79-1.73c-2.106667 0-3.806667.673333-5.1 2.02-1.3 1.346667-1.95 3.093333-1.95 5.24h-2.56c0-1.76.4-3.363333 1.2-4.81.793333-1.446667 1.923333-2.583333 3.39-3.41 1.466667-.82 3.14-1.23 5.02-1.23 2.86 0 5.096667.75 6.71 2.25 1.613333 1.506667 2.42 3.556667 2.42 6.15 0 1.46-.456667 3.056667-1.37 4.79-.906667 1.733333-2.506667 3.896667-4.8 6.49l-8.72 9.86zm23.65-16.61v5.74c0 4.413333-.81 7.76-2.43 10.04-1.62 2.286667-4.003333 3.43-7.15 3.43-3.093333 0-5.463333-1.12-7.11-3.36s-2.493333-5.503333-2.54-9.79v-5.61c0-4.393333.816667-7.723333 2.45-9.99 1.633333-2.26 4.02-3.39 7.16-3.39 3.093333 0 5.453333 1.093333 7.08 3.28 1.633333 2.18 2.48 5.396667 2.54 9.65zm-2.58 6.15v-6.02c0-3.58-.583333-6.286667-1.75-8.12s-2.93-2.75-5.29-2.75c-2.326667 0-4.076667.896667-5.25 2.69-1.173333 1.786667-1.773333 4.426667-1.8 7.92v6.15c0 3.566667.603333 6.293333 1.81 8.18 1.213333 1.893333 2.973333 2.84 5.28 2.84 2.293333 0 4.03-.923333 5.21-2.77s1.776667-4.553333 1.79-8.12zm20.07-18.76v31.39h-2.58v-28.19l-8.51 3.16v-2.41l10.66-3.95zm30.85 8.17c0 1.613333-.473333 3.063333-1.42 4.35-.946667 1.28-2.193333 2.22-3.74 2.82 1.806667.613333 3.253333 1.61 4.34 2.99 1.093333 1.373333 1.64 2.963333 1.64 4.77 0 2.673333-.91 4.796667-2.73 6.37-1.82 1.566667-4.226667 2.35-7.22 2.35-3.02 0-5.436667-.78-7.25-2.34s-2.72-3.686667-2.72-6.38c0-1.78.523333-3.363333 1.57-4.75 1.046667-1.393333 2.48-2.396667 4.3-3.01-1.546667-.6-2.78-1.54-3.7-2.82-.913333-1.286667-1.37-2.736667-1.37-4.35 0-2.593333.833333-4.656667 2.5-6.19s3.876667-2.3 6.63-2.3c2.746667 0 4.963333.773333 6.65 2.32 1.68 1.546667 2.52 3.603333 2.52 6.17zm-1.76 14.95c0-1.946667-.696667-3.546667-2.09-4.8-1.386667-1.253333-3.16-1.88-5.32-1.88-2.166667 0-3.936667.613333-5.31 1.84-1.373333 1.233333-2.06 2.846667-2.06 4.84 0 1.986667.666667 3.573333 2 4.76 1.326667 1.18 3.13 1.77 5.41 1.77 2.22 0 4.003333-.586667 5.35-1.76s2.02-2.763333 2.02-4.77zm-.82-14.98c0-1.786667-.62-3.28-1.86-4.48-1.233333-1.193333-2.81-1.79-4.73-1.79-1.953333 0-3.533333.576667-4.74 1.73-1.213333 1.153333-1.82 2.666667-1.82 4.54 0 1.833333.606667 3.31 1.82 4.43 1.206667 1.12 2.793333 1.68 4.76 1.68 1.933333 0 3.51-.563333 4.73-1.69 1.226667-1.126667 1.84-2.6 1.84-4.42z" fill="#fff" fill-rule="nonzero"/></g><g transform="translate(-11.747907 14.422873)"><path d="m303.473302 551.931927 107.280482-330.174605h-214.560964z" fill="#e24329"/><path d="m303.473302 551.931292-107.280482-330.173025h-150.3516661z" fill="#fc6d26"/><path d="m45.8411539 221.757803-32.6023007 100.33697c-2.9733096 9.151803.2839229 19.177461 8.0697358 24.832264l282.164713 205.003791z" fill="#fca326"/><path d="m45.8411539 221.758112h150.3516661l-64.614666-198.8615725c-3.325059-10.232277-17.800424-10.232277-21.123906 0z" fill="#e24329"/><path d="m303.473302 551.931292 107.280482-330.173025h150.351676z" fill="#fc6d26"/><path d="m561.105306 221.757803 32.602305 100.33697c2.973305 9.151803-.283956 19.177461-8.069749 24.832264l-282.164715 205.003791z" fill="#fca326"/><path d="m561.105306 221.758112h-150.351676l64.614676-198.8615725c3.325062-10.232277 17.800422-10.232277 21.123904 0z" fill="#e24329"/></g></g></svg>