<svg height="48" viewBox="0 0 305 48" width="305" xmlns="http://www.w3.org/2000/svg"><g fill="none"><g fill="#5f636a" transform="translate(79 7)"><path d="m192 7.60712995 6.805556-6.63490773v33.05555558h-6.805556zm22.361111 4.05953675c-3.221661 0-5.833333-2.61167233-5.833333-5.83333337s2.611672-5.83333333 5.833333-5.83333333 5.833333 2.61167229 5.833333 5.83333333-2.611672 5.83333337-5.833333 5.83333337zm0 23.3333333c-5.906378 0-10.694444-4.7880659-10.694444-10.6944444 0-5.9063786 4.788066-10.6944445 10.694444-10.6944445 5.906379 0 10.694445 4.7880659 10.694445 10.6944445 0 5.9063785-4.788066 10.6944444-10.694445 10.6944444z"/><path d="m27 35h-27v-35l27 27v-27h8v35zm89.557776-17.5c5.81777 2.9864284 9.798473 9.1756954 9.798473 16.2964143v1.2035857h-7.279228v-1.2035857c0-6.0593305-4.685957-10.9188415-10.398897-10.9188415-5.712939 0-10.3988963 4.859511-10.3988963 10.9188415v1.2035857h-7.2792277v-1.2035857c0-7.1207189 3.9807027-13.3099859 9.798473-16.2964143-5.8177703-2.9864284-9.798473-9.17569538-9.798473-16.29641433v-1.20358567h7.2792277v1.20358567c0 6.05933052 4.6859573 10.91884153 10.3988963 10.91884153 5.71294 0 10.398897-4.85951101 10.398897-10.91884153v-1.20358567h7.279228v1.20358567c0 7.12071895-3.980703 13.30998593-9.798473 16.29641433zm-35.557776-3.5v8h-35v-8zm0-14v8h-35v-8zm0 27v8h-35v-8zm69-15h8v23h-8zm21-12v9h-35v-9z"/></g><g><path d="m37.0666667 13.1733333h1.7777777l5.0666667-5.06666663.2488889-2.15111111c-5.9009431-5.20838179-14.073001-7.00053297-21.6119909-4.73955951-7.53899 2.26097346-13.37608406 8.25452582-15.43689799 15.85067065.56444936-.2313573 1.18971459-.2688733 1.77777778-.1066667l10.13333331-1.6711111s.5155556-.8533333.7822222-.8c4.5075606-4.95045923 12.0933934-5.52738794 17.2977778-1.3155556z" fill="#ea4335"/><path d="m51.1288889 17.0666667c-1.1645983-4.2886524-3.5557175-8.14410044-6.88-11.09333337l-7.1111111 7.11111107c3.0027816 2.4535555 4.7132074 6.1496482 4.64 10.0266667v1.2622222c3.4953488 0 6.3288889 2.8335401 6.3288889 6.3288889s-2.8335401 6.3288889-6.3288889 6.3288889h-12.6577778l-1.2622222 1.28v7.5911111l1.2622222 1.2622222h12.6577778c7.2574931.0565032 13.6957296-4.6464668 15.8490989-11.5773686 2.1533694-6.9309017-.4862496-14.4542805-6.4979878-18.5204091z" fill="#4285f4"/><path d="m16.4444444 47.0933333h12.6577778v-10.1333333h-12.6577778c-.9018093-.0001993-1.7930435-.1942094-2.6133333-.5688889l-1.7777778.5511111-5.10222219 5.0666667-.44444444 1.7777778c2.86121217 2.1605458 6.35249523 3.3222249 9.93777773 3.3066666z" fill="#34a853"/><path d="m16.4444444 14.2222222c-7.0309635.0420001-13.25916059 4.544788-15.50304764 11.2082093s-.00809454 14.0164323 5.56526991 18.3029018l7.34222223-7.3422222c-2.5652762-1.158984-4.05675658-3.8729721-3.6599123-6.6597983.3968442-2.7868262 2.5866211-4.9766031 5.3734473-5.3734473 2.7868262-.3968443 5.5008143 1.0946361 6.6597983 3.6599123l7.3422222-7.3422222c-3.1239338-4.0839603-7.9782728-6.4716636-13.12-6.4533334z" fill="#fbbc05"/></g></g></svg>