<svg xmlns="http://www.w3.org/2000/svg" viewBox="0 0 58.6 52" enable-background="new 0 0 58.6 52"><circle cx="29.3" cy="26" r="8"/><path d="m20.2 10.3h28.4c.7 0 1.4.3 2.1.7l-5.2-9c-.6-1.1-2.2-2-3.4-2h-25.5c-1.3 0-2.8.9-3.4 2l-7 12.2 5.8 10.2 8.2-14.1m21.1-6.7c.8 0 1.4.6 1.4 1.4 0 .8-.6 1.4-1.4 1.4-.8 0-1.4-.6-1.4-1.4-.1-.7.6-1.4 1.4-1.4m-24-.1c.9 0 1.6.7 1.6 1.6 0 .9-.7 1.6-1.6 1.6-.9 0-1.6-.7-1.6-1.6 0-.9.7-1.6 1.6-1.6"/><path d="m58.2 24l-7.1-12.4h-12l8.1 14.2-14 24.7c-.3.5-.8 1-1.4 1.4h10.2c1.3 0 2.8-.9 3.4-2l12.7-22c.7-1 .7-2.8.1-3.9m-16.9 24.2c-.9 0-1.6-.7-1.6-1.6 0-.9.7-1.6 1.6-1.6.9 0 1.6.7 1.6 1.6-.1.9-.8 1.6-1.6 1.6m12-20.7c-.9 0-1.6-.7-1.6-1.6 0-.9.7-1.6 1.6-1.6.9 0 1.6.7 1.6 1.6 0 .9-.7 1.6-1.6 1.6"/><path d="m20.4 41.5l-14.2-24.3c-.4-.6-.5-1.5-.5-2.3l-5.3 9.1c-.6 1.1-.6 2.9 0 4l12.7 22c.6 1.1 2.2 2 3.4 2h14.1l6.1-10.5h-16.3m-15.2-14c-.9 0-1.6-.7-1.6-1.6 0-.9.7-1.6 1.6-1.6.9 0 1.6.7 1.6 1.6-.1.9-.8 1.6-1.6 1.6m12.1 20.7c-.9 0-1.6-.7-1.6-1.6 0-.9.7-1.6 1.6-1.6.9 0 1.6.7 1.6 1.6-.1.9-.8 1.6-1.6 1.6"/></svg>