<svg xmlns="http://www.w3.org/2000/svg" viewBox="0 0 50 52" enable-background="new 0 0 50 52"><path d="m7.9 19.8h3.7v13.3h-3.7v-5.3h-4.2v5.3h-3.7v-13.3h3.7v5h4.2v-5m15.3 2.9h-5.4v2.1h4.6v3h-4.6v2.4h5.6v3h-9.3v-13.4h9.1v2.9m2.4-2.9h3.7v10.4h5.3v3h-9v-13.4m20.4 0h3.8v13.3h-3.5v-3.9c0-.3 0-.7.1-1.1 0-.4.1-.8.1-1.3s.1-.9.2-1.3c.1-.4.1-.8.2-1.1h-.1l-1.2 3.1-2 4.5h-1.4l-1.9-4.5-1.1-3.1h-.1c0 .3.1.7.2 1.1.1.4.1.8.2 1.3 0 .4.1.9.1 1.3 0 .4.1.8.1 1.1v3.9h-3.4v-13.3h3.7l2.2 5.5.8 2.2h.1l.8-2.2 2.1-5.5m-33.5-6.9c-.9-.4-1.9-1.4-2.8-2.5-1.5-2.2-2.1-4.4-1.3-5 .8-.6 2.8.6 4.3 2.7.8 1.1 1.4 2.3 1.6 3.3 2.7-1.9 6-3.1 9.5-3.3-.4-.9-.6-2.1-.6-3.4 0-2.6.8-4.7 1.9-4.7s1.9 2.1 1.9 4.7c0 1.4-.2 2.6-.6 3.4 3.1.3 6 1.3 8.4 3 .2-.9.8-2 1.5-3 1.5-2.1 3.5-3.3 4.3-2.7s.3 2.8-1.3 4.9c-.8 1.1-1.7 1.9-2.5 2.4 1.3 1.2 2.4 2.5 3.4 4l-1.9 1.3c-2.8-4.6-7.8-7.7-13.6-7.7-5.6 0-10.5 2.9-13.3 7.3l-1.9-1.3c.8-1.2 1.8-2.4 3-3.4m24.6 26.3c.7.5 1.5 1.3 2.2 2.2 1.5 2.1 2.1 4.3 1.3 4.9-.8.6-2.8-.6-4.3-2.7-.7-.9-1.2-1.9-1.4-2.7-2.4 1.6-5.3 2.7-8.4 3 .3.8.4 1.9.4 3.1 0 2.6-.8 4.7-1.9 4.7s-1.9-2.1-1.9-4.7c0-1.1.2-2.2.4-3-3.5-.2-6.7-1.4-9.4-3.3-.2.9-.8 1.9-1.5 2.9-1.5 2.1-3.5 3.3-4.3 2.7-.8-.6-.3-2.8 1.3-4.9.8-1.1 1.7-1.9 2.5-2.4-.9-.8-1.6-1.7-2.3-2.7l1.9-1.3c2.9 4.1 7.6 6.8 13 6.8 5.4 0 10.1-2.7 13-6.8l1.9 1.3c-.7 1-1.5 2-2.5 2.9"/></svg>