<svg viewBox="0 0 572 208">
<path d="M99.2,0.8C44.5,0.8,0,45.2,0,100s44.4,99.2,99.2,99.2s99.2-44.4,99.2-99.2S154.1,0.8,99.2,0.8 M48.2,168.5
c-3.4,0-6.1-2.8-6.1-6.1c0-3.4,2.8-6.1,6.1-6.1s6.1,2.8,6.1,6.1C54.4,165.8,51.6,168.5,48.2,168.5 M62.5,80.2
c-4.7,0-8.5,3.8-8.5,8.5v62.4H42.7V88.7c0-10.9,8.9-19.8,19.8-19.8s19.8,8.9,19.8,19.8V100H71V88.7c0-2.3-0.9-4.4-2.5-6
C66.9,81,64.7,80.2,62.5,80.2 M110.7,134c0,5.3-2.1,10.3-5.8,14c-3.7,3.7-8.7,5.8-14,5.8c-10.9,0-19.8-8.9-19.8-19.8v-28.3h11.3
V134c0,4.7,3.8,8.5,8.5,8.5s8.5-3.8,8.5-8.5v-28.3h11.3V134 M105,100.5c-3.4,0-6.1-2.8-6.1-6.1c0-3.4,2.8-6.1,6.1-6.1
s6.1,2.8,6.1,6.1C111.1,97.7,108.4,100.5,105,100.5 M119.2,29.1c-4.7,0-8.5,3.8-8.5,8.5V83H99.4V37.6c0-10.9,8.9-19.8,19.8-19.8
S139,26.7,139,37.6v11.3h-11.3V37.6c0-2.3-0.9-4.4-2.5-6S121.4,29.1,119.2,29.1 M167.4,83c0,5.3-2.1,10.3-5.8,14
c-3.7,3.7-8.7,5.8-14,5.8c-10.9,0-19.8-8.9-19.8-19.8V54.7h11.3V83c0,4.7,3.8,8.5,8.5,8.5s8.5-3.8,8.5-8.5V54.7h11.3V83"/>
<path d="M311.5,125.2c0,6.7-0.7,13-2,18.7c-1.4,5.7-3.7,10.7-7,15c-3.3,4.2-7.7,7.6-13.1,9.9c-5.5,2.4-12.3,3.5-20.5,3.5
c-4.9,0-9.3-0.4-13.3-1.3s-7.6-1.9-10.7-3.1c-3.1-1.2-5.7-2.5-7.8-3.8c-2.1-1.3-3.7-2.6-4.8-3.6l6.5-11.1c1.2,1.1,2.7,2.3,4.6,3.5
c1.8,1.3,3.9,2.5,6.4,3.5c2.4,1.1,5.1,2,8.1,2.6c3,0.7,6.2,1,9.7,1c10.4,0,18-2.7,23-8.2c4.9-5.5,7.4-14.8,7.4-28V29.2h13.8
L311.5,125.2"/>
<path d="M420,165.8c-3.9,1.1-9.2,2.3-15.8,3.6c-6.6,1.3-14.7,2-24.3,2c-7.8,0-14.4-1.1-19.6-3.4c-5.3-2.3-9.5-5.5-12.7-9.7
s-5.6-9.2-7-15.2c-1.4-5.9-2.1-12.5-2.1-19.6V64.7h13.1v54.4c0,7.4,0.5,13.7,1.6,18.8c1.1,5.1,2.8,9.3,5.3,12.4
c2.4,3.2,5.6,5.5,9.4,6.9c3.8,1.4,8.5,2.1,14.1,2.1c6.2,0,11.6-0.3,16.2-1c4.6-0.7,7.5-1.3,8.7-1.8V64.7H420V165.8"/>
<path d="M430,207.2c-1.5,0-3.3-0.2-5.6-0.6c-2.2-0.4-3.9-0.9-5-1.4l1.8-10.7c0.9,0.3,2.2,0.5,3.8,0.8s3.2,0.4,4.7,0.4
c8,0,13.2-2.2,15.9-6.7s3.9-11.1,3.9-20V64.7h13.1v103.6c0,13.2-2.5,23-7.5,29.3C450.3,203.9,441.8,207.1,430,207.2"/>
<path d="M572,165.8c-3.9,1.1-9.2,2.3-15.8,3.6c-6.6,1.3-14.7,2-24.3,2c-7.8,0-14.4-1.1-19.6-3.4c-5.3-2.3-9.5-5.5-12.7-9.7
s-5.6-9.2-7-15.2c-1.4-5.9-2.1-12.5-2.1-19.6V64.7h13.1v54.4c0,7.4,0.5,13.7,1.6,18.8c1.1,5.1,2.8,9.3,5.3,12.4
c2.4,3.2,5.6,5.5,9.4,6.9c3.8,1.4,8.5,2.1,14.1,2.1c6.2,0,11.6-0.3,16.2-1c4.6-0.7,7.5-1.3,8.7-1.8V64.7H572V165.8"/>
</svg>
