<svg viewBox="0 0 71 52" xmlns="http://www.w3.org/2000/svg"><path d="m121.85 22.953l31.383 15.512 25.11-15.512h-56.49m34.511 17.07l9.672 4.786 12.445-18.465-22.12 13.679m-36.506-14.748l16.1 23.879 14.305-8.842-30.402-15.04m48.866 20.858l12.834 6.347c.355.17.457.119.457.119 0-.017.068-.153.068-.441v-25.847l-13.358 19.823m-51.741-19.823v34.27c0 .119.017.204.017.272.068-.017.135-.068.237-.119l16.182-10.01-16.436-24.405m-.118 34.571v1.493-1.493m20.747-9.266l11.481 17.04c.169.255.338.356.44.356.101 0 .271-.119.44-.356l14.406-21.367-10.974-5.431-15.793 9.759m11.921 20.383c-1.116 0-2.164-.611-2.892-1.663l-11.566-17.16-16.283 10.06c-.643.407-1.302.594-1.944.594-1.37 0-2.841-1.018-2.841-3.275v-36.12c0-1.629.913-3.157 2.35-3.92.609-.475 1.471-.526 2.097-.526h62.14c.829 0 1.471.153 1.944.458 1.505.747 2.469 2.308 2.469 3.988v27.714c0 .933-.27 1.765-.795 2.376-.558.662-1.37 1.035-2.266 1.035-.558 0-1.15-.136-1.725-.424l-13.206-6.534-14.626 21.706c-.693 1.069-1.741 1.68-2.857 1.68" transform="translate(-114-20)"/></svg>
