<svg xmlns="http://www.w3.org/2000/svg" viewBox="0 0 186 26" enable-background="new 0 0 186 26"><path d="m25.9 0v12.4h-14.1v-10.4l14.1-2m-25.9 3.6l10.6-1.5v10.3h-10.6v-8.8m0 10.1h10.6v10.2l-10.6-1.5v-8.7m11.8 0h14.1v12.3l-14.1-1.9v-10.4m62.3-3.7c.4 0 .8.1 1 .2v2.3c-.3-.2-.7-.3-1.3-.3-.7 0-1.3.3-1.8 1-.5.6-.7 1.5-.7 2.6v5h-2.4v-10.6h2.4v2.2c.2-.7.6-1.3 1.1-1.7s1.1-.7 1.7-.7m-14.3 1.5c1-1.1 2.4-1.6 4.2-1.6 1 0 1.8.2 2.6.5v2.2c-.7-.5-1.5-.8-2.4-.8-1 0-1.9.3-2.5 1s-1 1.6-1 2.7c0 1.1.3 1.9.9 2.6s1.4.9 2.5.9c.9 0 1.7-.3 2.5-.9v2.1c-.9.5-1.9.7-3 .7-1.6 0-2.9-.5-3.8-1.5-1-1-1.5-2.2-1.5-3.8-.1-1.7.4-3 1.5-4.1m-17.2 4.2l4-9.8h3.4v14.7h-2.5v-9.5c0-.8 0-1.7.1-2.9-.2.6-.3 1.1-.4 1.4l-4.5 11h-1.7l-4.5-10.8c-.1-.3-.3-.8-.4-1.5.1.6.1 1.5.1 2.9v9.5h-2.3v-14.7h3.5l3.9 9.8c.3.8.5 1.3.6 1.7h.1c.2-.8.4-1.4.6-1.8m10.7 5v-10.5h2.4v10.5h-2.4m1.2-15.4c.4 0 .8.1 1 .4.3.3.4.6.4 1 0 .4-.1.7-.4 1-.3.3-.6.4-1 .4-.4 0-.7-.1-1-.4-.3-.3-.4-.6-.4-1 0-.4.1-.7.4-1 .3-.3.6-.4 1-.4m27.3 4.6c1.7 0 3 .5 3.9 1.4.9 1 1.4 2.3 1.4 4 0 1.7-.5 3-1.5 4-1 1-2.3 1.5-4 1.5-1.6 0-3-.5-3.9-1.5-1-1-1.5-2.3-1.5-3.9 0-1.8.5-3.1 1.5-4.1s2.4-1.4 4.1-1.4m2.1 8.2c.5-.6.8-1.5.8-2.7 0-1.2-.3-2-.8-2.7-.5-.6-1.2-.9-2.2-.9-.9 0-1.7.3-2.2 1-.5.7-.8 1.5-.8 2.7 0 1.1.3 2 .8 2.6s1.3 1 2.2 1c.9-.1 1.6-.4 2.2-1m62.1-6.1v-1.9h8.6v1l-5.8 7.7h5.7v1.9h-9.1v-.9l5.9-7.8h-5.3m40 3.2v.9h-7.3c0 1 .3 1.7.9 2.2.6.5 1.4.8 2.4.8 1.1 0 2.2-.3 3.1-1v1.9c-1 .6-2.3.9-3.8.9-1.6 0-2.8-.5-3.7-1.4-.9-1-1.3-2.3-1.3-4 0-1.6.5-3 1.5-4 1-1 2.2-1.5 3.7-1.5s2.6.5 3.4 1.4c.7.8 1.1 2.1 1.1 3.8m-2.3-.8c0-.9-.2-1.5-.6-2-.4-.5-1-.7-1.7-.7-.7 0-1.3.2-1.8.8-.5.5-.8 1.2-.9 2l5-.1m-9.4-4.4c.4 0 .8.1 1 .2v2.3c-.3-.2-.7-.3-1.3-.3-.7 0-1.3.3-1.8 1-.5.6-.7 1.5-.7 2.6v5h-2.4v-10.6h2.4v2.2c.2-.7.6-1.3 1.1-1.7s1.1-.7 1.7-.7m-37.7-4.1h2.8l5.5 14.7h-2.7l-1.3-3.7h-5.9l-1.3 3.7h-2.7l5.6-14.7m3.6 9l-2.1-5.9c-.1-.2-.1-.5-.2-.9-.1.4-.1.7-.2.9l-2 5.9h4.5m23.3 1.3v-6h2.4v10.5h-2.4v-1.7c-.7 1.3-1.8 1.9-3.3 1.9-2.5 0-3.8-1.5-3.8-4.5v-6.3h2.4v6c0 1.9.7 2.8 2.2 2.8.7 0 1.3-.3 1.8-.8s.7-1.1.7-1.9m-41.6-9.2v3.1h2.5v1.9h-2.5v5.3c0 .6.1 1.1.3 1.3s.6.4 1.1.4c.4 0 .8-.1 1.1-.3v1.9c-.5.2-1.1.3-1.9.3-2.1 0-3.1-1-3.1-2.9v-6h-1.8v-1.9h1.8v-2.4l2.5-.7m-26.2 8.8c.3.2.5.5.6.8s.2.7.2 1.1c0 .5-.1 1-.4 1.4-.2.4-.6.7-1 1-.4.3-.9.5-1.4.6-.5.1-1.1.2-1.7.2-1.2 0-2.2-.2-3-.6v-2.2c.9.7 1.9 1 3 1 1.5 0 2.2-.4 2.2-1.3 0-.2-.1-.4-.2-.6s-.3-.3-.5-.4c-.2-.1-.5-.2-.7-.3-.3-.1-.6-.2-1-.3-.4-.2-.8-.3-1.2-.5-.4-.2-.6-.4-.9-.7-.2-.2-.4-.5-.5-.8s-.2-.7-.2-1.1c0-.5.1-1 .4-1.3.2-.4.6-.7 1-1 .4-.3.9-.5 1.4-.6.5-.1 1.1-.2 1.6-.2 1 0 1.9.1 2.6.4v2.1c-.7-.5-1.6-.8-2.6-.8-.3 0-.6 0-.8.1-.2.1-.5.1-.6.3-.2.1-.3.2-.4.4-.1.2-.1.3-.1.5 0 .2 0 .4.1.6.1.2.2.3.4.4.2.1.4.2.7.3.3.1.6.2.9.3.4.2.8.4 1.2.6.3.1.6.3.9.6m8-5.9c1.7 0 3 .5 3.9 1.4.9 1 1.4 2.3 1.4 4 0 1.7-.5 3-1.5 4-1 1-2.4 1.5-4 1.5-1.6 0-3-.5-3.9-1.5s-1.5-2.3-1.5-3.9c0-1.8.5-3.1 1.5-4.1 1-.9 2.4-1.4 4.1-1.4m2.1 8.2c.5-.6.8-1.5.8-2.7 0-1.2-.3-2-.8-2.7-.5-.6-1.2-.9-2.2-.9-.9 0-1.7.3-2.2 1-.5.7-.8 1.5-.8 2.7 0 1.1.3 2 .8 2.6.6.6 1.3 1 2.2 1 .9-.1 1.7-.4 2.2-1m7.5-12.3c.7-.6 1.7-1 2.8-1 .6 0 1.1.1 1.4.2v2c-.3-.2-.7-.3-1.1-.3-1.2 0-1.8.7-1.8 2v1.4h2.5v1.9h-2.5v8.6h-2.4v-8.6h-1.8v-1.9h1.8v-1.7c0-1.1.4-1.9 1.1-2.6"/></svg>