<svg xmlns="http://www.w3.org/2000/svg" viewBox="0 0 56 52" enable-background="new 0 0 56 52"><path d="m50.6 25.6l4.2-1.5c.4 4.5-.4 8.9-2.3 13-6 13-21.3 18.6-34.2 12.6-4-1.9-7.5-4.8-10-8.4l9-3.3c1.4 1.5 3.1 2.6 4.9 3.5 8.4 3.9 18.3.3 22.2-8.2.8-1.8 1.4-3.8 1.5-5.8l-4.2 1.5c.2-3.3-.5-6.6-2.1-9.5l8.5-3.1c1.3 2.7 2.2 5.9 2.5 9.2m-42.6 5.3c-.4-1.4-.6-2.8-.7-4.3l-3.8 1.4c-.7-9.1 3.4-17.9 10.7-23.2 11.6-8.3 27.6-5.6 35.8 6.1l3.7-1.4c.8 1.2 1.6 2.5 2.2 3.8l-8.6 3.1c-.7-1.3-1.6-2.5-2.6-3.6l-3.7 1.4c-1.4-1.5-3-2.6-4.9-3.5-1.8-.9-3.8-1.4-5.9-1.6-9.2-.7-17.2 6.3-17.9 15.6l-1.7.6 5.4-2c-.1 1.5 0 3 .3 4.5l-8 2.9c.8 3.3 2.4 6.3 4.7 8.7l-9 3.3c-1.8-2.7-3.2-5.7-4-8.8l8-3"/></svg>