<svg viewBox="-6 -3 60 30" xmlns="http://www.w3.org/2000/svg"><g fill-rule="evenodd"><path d="m48.812 6.997c-.56 0-1.013-.301-1.013-.669 0-.372.452-.67 1.013-.67.56 0 1.015.299 1.015.67 0 .367-.454.668-1.015.669m4.842 2.84c-.738.511-2.465 1.706-4.68 1.51-1.991-.173-4.59-1.302-7.724-3.344.139.321.791 1.85.902 2.107l.042.05c.455.233 4.809 2.427 6.97 2.383 1.743-.034 3.604-.876 4.349-1.319l.235-.043c.064.05.055.153.034.244-.044.212-.148.598-.219.78l-.06.151c-.083.223-.166.436-.325.563-.438.394-1.139.709-2.237 1.184-1.698.734-4.449 1.197-7 1.182-.916-.021-1.802-.121-2.579-.208-2.38-.269-4.101-.461-4.458 1.679-.452 2.682 2.099 5.94 2.125 5.969l-.003.089-.083.021c0 0-4.066-1.852-4.166-1.907l-.129-.091-.104-.098c-.307-.292-.923-.946-2.173-2.379-2.424-2.771-5.261-3.136-7.448-2.609-.533.125-1.211.511-1.651.944-1.141 1.113-1.013 3.355-.948 4.172.076.924.125.992.145 1.067l-.014.093-.081.009-.046-.032-3.335-1.613-.127-.538c-.085-.356-.185-.75-.374-1.245-1.192-3.109-3.873-5.447-6.825-5.951-1.995-.34-5.632-.378-7.559 3.216-.805 1.501-.756 3.455.127 5.102.899 1.686 2.507 2.767 4.41 2.974 1.887.203 3.305-.228 4.101-1.248.803-1.029.953-2.429.383-3.569-.611-1.225-1.534-1.875-2.816-1.982-.975-.087-1.7.315-1.961.725-.076.128-.215.365-.217.703v.012c0 .919.851 1.17 1.024 1.182.053 0 .309-.007.648-.091l.164-.052.113-.039.083-.016c.618-.112 1.213.249 1.386.844.03.109.046.219.046.328 0 .395-.203.762-.54.985l.014-.005-.037.021-.055.034c-.178.112-.341.174-.514.226-.484.157-.913.23-1.345.23-1.472-.002-3.522-1.255-3.55-3.606-.014-1.328.66-2.536 1.845-3.314 1.365-.892 3.725-1.195 5.914.132 2.694 1.631 3.397 4.824 2.694 7-1.022 3.155-3.896 4.84-7.69 4.505-2.687-.237-5.183-1.64-6.668-3.752-.66-.935-1.149-1.978-1.412-3.02-.607-2.379.007-4.907.464-6.03 1.453-3.561 4.235-6.624 8.26-9.108l.254-.157c8.561-5.203 14.62-4.993 19.06-4.841 5.231.18 10.811 1.964 11.581 2.217.003-.171.033-1.713.033-1.713l.023-.052.06-.016c.351.048 7.867 1.152 11.03 2.977.392.228.586.465.828.712.874.894 2.032 4.619 2.154 5.388l-.046.078c-.046.016-.155.096-.3.192m-5.492.159c.862.03 1.679-.271 2.307-.853.627-.579.987-1.364 1.019-2.213.06-1.752-1.331-3.23-3.105-3.292-.852-.032-1.682.274-2.304.851-.629.579-.989 1.366-1.019 2.215-.058 1.752 1.331 3.228 3.102 3.291m.277-5.472c1.262.043 2.249 1.092 2.207 2.34-.018.599-.278 1.166-.722 1.574-.445.409-1.035.628-1.642.607-1.259-.046-2.247-1.095-2.205-2.343.018-.6.279-1.167.724-1.574.441-.411 1.032-.629 1.638-.604"/></g></svg>
