<svg xmlns="http://www.w3.org/2000/svg" viewBox="0 0 544.8 115.2" enable-background="new 0 0 544.8 115.2"><path d="m117.8 41.5c-2.6-23.4-22.4-41.5-46.4-41.5-25.8 0-46.7 20.9-46.7 46.7 0 1.1.1 2.2.1 3.3-14.6 6.5-24.8 21.1-24.8 38.1 0 3.7.5 7.5 1.5 11.1.4 1.3.8 2.6 1.3 3.9.3.7.9 1.1 1.6 1.1h11.3c.9 0 1.7-.8 1.7-1.7 0-.3-.1-.6-.2-.8-.5-.8-.8-1.6-1.2-2.5-6.1-14.2.4-30.6 14.5-36.7 4-1.7 8.1-2.4 12.1-2.3-4.1 7.5-6.4 16.1-6.5 25.2 0 4.6.6 9.1 1.7 13.5.3 1.3.7 2.7 1.2 4 .2.7.9 1.1 1.6 1.1h11.2c.9 0 1.7-.7 1.7-1.7 0-.2-.1-.5-.2-.7-.4-.9-.8-1.8-1.1-2.8-4.4-11.9-2.5-24.6 3.9-34.6 4.7 2.9 8.5 7.2 10.9 12.6 1.5 3.5 2.3 7.2 2.3 11 0 3.8-.8 7.5-2.3 11-.4.9-.8 1.8-1.3 2.6-.4.8-.2 1.7.6 2.2.2.1.5.2.8.2h11.6c.7 0 1.3-.4 1.5-1 .5-1.3.9-2.6 1.3-4 1-3.6 1.5-7.3 1.5-11 0-13.9-6.8-26.2-17.3-33.8 2.9-2.2 6.3-4 9.9-5.3 9.7-3.5 19.9-3 28.6.8-.6 6.1-2.8 11.9-6.5 16.8-.6.8-.5 1.9.3 2.5.3.2.7.4 1.1.4h12c.7 0 1.3-.4 1.6-.9 1.7-3.3 3-6.7 3.9-10.3 3.8 3.9 6.9 8.6 8.9 14.1 3.1 8.6 3.1 18.1 0 26.7-.4 1-.7 1.9-1.2 2.9-.4.8 0 1.7.8 2.1.2.1.4.1.7.1h11.3c.7 0 1.3-.4 1.5-1 .5-1.3.9-2.7 1.2-4 6.1-22.4-3.5-45.3-22-57.4m-28.9-8.6c-14.4 0-27.4 5.7-36.9 15-3.4-.9-6.9-1.3-10.5-1.3-1.1 0-2.1.1-3.1.1.5-16.3 13-30.1 29.7-31.8 14.6-1.5 27.9 6.8 33.5 19.6-4.1-1.1-8.4-1.6-12.7-1.6"/><path d="m168 50.4v-37.7h15.1c7.6 0 11.8 5.2 11.8 11.4s-4.3 11.4-11.8 11.4h-10.4v15l-4.7-.1m22.1-26.3c0-4.2-3.1-7.2-7.5-7.2h-9.9v14.4h9.9c4.4 0 7.5-3 7.5-7.2"/><path d="m199.2 16.4c0-1.6 1.3-2.9 2.9-2.9 1.6 0 2.9 1.3 2.9 2.9s-1.3 2.9-2.9 2.9c-1.7-.1-2.9-1.3-2.9-2.9m.7 34v-27.3h4.2v27.3h-4.2"/><path d="m219.5 50.4l-11.4-27.3h4.6l9.1 22.4 9-22.4h4.6l-11.4 27.3h-4.5"/><path d="m236.9 36.7c0-7.9 5.2-14.3 13.5-14.3s13.5 6.4 13.5 14.3-5.2 14.4-13.5 14.4-13.5-6.4-13.5-14.4m22.5 0c0-5.5-3.2-10.5-9-10.5s-9.1 5-9.1 10.5 3.3 10.6 9.1 10.6 9-5 9-10.6"/><path d="m270.6 44.7v-17.9h-4.5v-3.7h4.5v-7.5h4.2v7.5h5.5v3.7h-5.5v17c0 2 .9 3.5 2.8 3.5 1.1 0 2.1-.4 2.9-1.1l1.2 3.2c-1.4 1.2-3.2 1.9-5.1 1.8-4-.1-6-2.4-6-6.5"/><path d="m302.9 50.4v-3.1c-2.3 2.5-5.6 3.9-9 3.8-4.6 0-9.5-3.1-9.5-9 0-6.1 4.9-9 9.5-9 3.4-.2 6.7 1.2 9 3.7v-5c0-3.7-2.9-5.8-6.9-5.8-3.2 0-6.3 1.3-8.4 3.8l-2-2.9c2.8-3 6.9-4.7 11-4.5 5.8 0 10.6 2.6 10.6 9.2v18.7h-4.3zm0-5.7v-5.2c-1.8-2.3-4.6-3.5-7.5-3.4-4 0-6.7 2.5-6.7 6s2.8 5.9 6.7 5.9c2.9.1 5.7-1.1 7.5-3.3"/><path d="m314.7 50.4v-37.7h4.2v37.7h-4.2"/><path d="m165.5 85.3c0-11.6 8.8-19.5 20.1-19.5 6.6-.2 12.7 3.4 15.8 9.2l-6.9 3.4c-1.7-3.3-5.1-5.4-8.8-5.5-6.8 0-11.8 5.3-11.8 12.4s5 12.4 11.8 12.4c3.7 0 7.2-2.2 8.9-5.5l6.9 3.3c-2.7 4.7-7.5 9.3-15.8 9.3-11.5 0-20.2-7.9-20.2-19.5"/><path d="m204.8 104.1v-37.6h7.2v37.7l-7.2-.1"/><path d="m216.4 90.5c0-7.7 5.4-14.3 14.4-14.3s14.5 6.6 14.5 14.3-5.4 14.4-14.5 14.4-14.4-6.7-14.4-14.4m21.4 0c0-4.2-2.5-7.9-7-7.9s-7 3.7-7 7.9 2.5 8 7 8 7-3.8 7-8"/><path d="m268.1 104.1v-3.5c-2.5 2.7-6 4.2-9.6 4.1-6 0-8.8-3.3-8.8-8.6v-19.3h7.2v16.6c0 3.8 2 5 5 5 2.4 0 4.7-1.2 6.2-3.1v-18.5h7.2v27.3h-7.2"/><path d="m300.5 104.1v-3.5c-2 2.6-5.1 4.2-8.4 4.2-6.9 0-12.1-5.2-12.1-14.3 0-8.9 5.1-14.4 12.1-14.4 3.3 0 6.4 1.5 8.4 4.2v-13.8h7.2v37.7l-7.2-.1m0-8.8v-9.7c-1.5-2-3.8-3.1-6.2-3.1-4.1 0-6.9 3.2-6.9 8s2.8 7.9 6.9 7.9c2.4 0 4.7-1.1 6.2-3.1"/><path d="m328.9 104.1v-37.6h26.7v7h-18.7v8h18.3v7.1h-18.3v15.6l-8-.1"/><path d="m358.3 90.5c0-7.7 5.4-14.3 14.4-14.3s14.5 6.6 14.5 14.3-5.4 14.4-14.5 14.4-14.4-6.7-14.4-14.4m21.5 0c0-4.2-2.5-7.9-7-7.9s-7 3.7-7 7.9 2.5 8 7 8 7-3.8 7-8"/><path d="m410 104.1v-3.5c-2.5 2.7-6 4.2-9.6 4.1-6 0-8.8-3.3-8.8-8.6v-19.3h7.2v16.6c0 3.8 2 5 5 5 2.4 0 4.7-1.2 6.2-3.1v-18.5h7.2v27.3h-7.2"/><path d="m441.8 104.1v-16.5c0-3.8-2-5.1-5-5.1-2.5 0-4.8 1.2-6.2 3.2v18.4h-7.2v-27.3h7.2v3.6c2.4-2.7 5.9-4.3 9.5-4.2 6 0 8.9 3.4 8.9 8.7v19.3l-7.2-.1"/><path d="m474 104.1v-3.5c-2 2.6-5.1 4.2-8.4 4.2-6.9 0-12.1-5.2-12.1-14.3 0-8.9 5.1-14.4 12.1-14.4 3.3 0 6.4 1.5 8.4 4.2v-13.8h7.2v37.7l-7.2-.1m0-8.8v-9.7c-1.5-2-3.8-3.1-6.2-3.1-4.1 0-6.9 3.2-6.9 8s2.8 7.9 6.9 7.9c2.4 0 4.7-1.1 6.2-3.1"/><path d="m487.4 104.1v-27.3h7.2v3.7c2.1-2.7 5.3-4.3 8.7-4.4v7c-.7-.1-1.3-.2-2-.2-2.4 0-5.5 1.4-6.7 3.1v18l-7.2.1"/><path d="m508.7 108.4c.7.3 1.5.4 2.3.4 1.9 0 3.1-.5 3.8-2l1-2.3-11.1-27.7h7.7l7.1 19 7.1-19h7.7l-12.8 31.8c-2 5.1-5.7 6.5-10.3 6.6-1.2 0-2.4-.2-3.6-.4l1.1-6.4"/><path d="m540.4 85.6c-2.5 0-4.4-2-4.4-4.4s2-4.4 4.4-4.4c2.5 0 4.4 2 4.4 4.4s-2 4.4-4.4 4.4m0-8.2c-2.1 0-3.8 1.7-3.8 3.8 0 2.1 1.7 3.8 3.8 3.8 2.1 0 3.8-1.7 3.8-3.8-.1-2.1-1.8-3.8-3.8-3.8m1.2 6.3l-1.3-2h-.9v2h-.7v-5.1h2.1c.9 0 1.6.6 1.6 1.5 0 .8-.5 1.4-1.3 1.5l1.4 2-.9.1m-.8-4.5h-1.4v1.8h1.4c.5 0 .9-.4.9-.9s-.5-.9-.9-.9"/></svg>
