<svg viewBox="0 0 25 32" xmlns="http://www.w3.org/2000/svg"><path d="m22.497 21.279c-1.321.588-2.397-6.583-.773-6.147 2.695 1.542 2.227 4.975.773 6.147m-1.216 4.584c-1.554 2.161-3.658 2.245-4.441 1.643-.82-.775-.194-3.181.93-4.5 1.286-1.455 2.66-2.405 3.617-1.663.645.644 1.023 3.068-.106 4.519m-7.353-7.434c-1.17-1.774-.899-4.01.606-5 1.504-.988 3.672-.35 4.842 1.424 1.17 1.774.899 4.01-.606 5-1.504.988-3.672.35-4.842-1.424m2.277 4.763c.011 1.853-1.606 3.363-3.611 3.373-2.01.01-3.639-1.485-3.65-3.338 0-.012 0-.024 0-.035-.011-1.853 1.606-3.363 3.611-3.373 2.01-.01 3.639 1.485 3.65 3.338v.035m-3.711 7.811c-1.803.078-3.572-1.481-3.548-2.02-.027-.792 2.196-1.41 3.645-1.374 1.458-.064 3.416.471 3.419 1.18.024.689-1.775 2.245-3.516 2.215m-6.256-10.971c-1.504-.988-1.775-3.227-.606-5 1.17-1.774 3.338-2.412 4.842-1.424 1.504.988 1.775 3.227.606 5-1.17 1.774-3.338 2.412-4.842 1.424m1.611 7.478c-.82.496-2.811.292-4.226-1.746-.954-1.71-.831-3.45-.161-3.961 1-.612 2.55.215 3.742 1.601 1.038 1.254 1.512 3.457.645 4.106m-5.666-6.142c-1.454-1.172-1.922-4.604.773-6.146 1.624-.436.548 6.735-.773 6.146m6.28-11.665c1.033.174-4.949 5.409-5.04 4.241-.094-3.046 2.238-4.716 5.04-4.241m-3.477-1.511c.225-.047.33-.092.435-.259-.553-.177-1.149-.329-1.5-.622.189.002.366.042.613-.129-.496-.268-1.025-.48-1.435-.889.256-.006.533-.003.613-.097-.454-.282-.836-.595-1.153-.938.359.043.51.006.597-.057-.343-.352-.777-.649-.984-1.083.266.092.51.127.685-.008-.117-.264-.616-.419-.903-1.035.28.027.578.061.637 0-.13-.531-.353-.83-.572-1.14.6-.009 1.509.002 1.468-.048l-.371-.38c.586-.158 1.186.025 1.621.162.195-.155-.004-.35-.242-.55.498.067.948.181 1.355.339.217-.197-.141-.393-.315-.59.769.146 1.095.352 1.419.558.235-.226.013-.418-.145-.614.58.215.879.493 1.194.768.107-.144.271-.25.073-.598.412.238.722.518.952.833.255-.163.152-.385.153-.59.428.349.7.721 1.032 1.083.067-.049.126-.215.177-.477 1.021.993 2.464 3.494.371 4.486-1.78-1.472-3.907-2.542-6.263-3.345 3.03 1.565 4.79 2.832 5.755 3.91-.494 1.986-3.073 2.077-4.02 2.02.193-.09.354-.198.411-.364-.237-.169-1.076-.018-1.661-.348m7.503.801c1.484-.016 3.322 1.11 3.315 2.172-.006.937-1.291 1.695-3.304 1.681-1.971-.024-3.298-.953-3.294-1.861.004-.747 1.609-2.035 3.282-1.992m2.192-7.162c.052.262.11.428.177.477.333-.363.604-.734 1.032-1.083.001.205-.102.427.153.59.229-.314.54-.595.952-.833-.198.348-.034.454.073.598.315-.274.613-.553 1.194-.768-.159.197-.38.388-.145.614.324-.206.65-.412 1.419-.558-.173.197-.532.393-.315.59.407-.158.857-.273 1.355-.339-.238.2-.437.395-.242.55.435-.136 1.035-.32 1.621-.162l-.371.38c-.041.051.868.04 1.468.048-.219.31-.442.608-.573 1.14.059.061.357.027.637 0-.287.616-.787.771-.903 1.035.176.135.419.1.686.008-.207.434-.641.731-.984 1.083.087.063.238.1.597.057-.317.343-.7.656-1.153.938.08.094.357.091.613.097-.411.409-.94.621-1.436.889.247.172.424.132.613.129-.35.293-.947.446-1.5.622.105.166.21.212.435.259-.586.33-1.425.179-1.661.348.057.166.218.274.411.364-.943.056-3.522-.035-4.02-2.02.965-1.079 2.727-2.346 5.757-3.912-2.358.803-4.485 1.873-6.265 3.346-2.093-.992-.65-3.493.371-4.486m6.567 12.203c-.092 1.168-6.074-4.067-5.04-4.241 2.803-.474 5.135 1.195 5.04 4.241m1.599.495l-.226-.404c.009-2.899-1.313-4.081-2.855-4.98.466-.125.948-.228 1.08-.824.801-.209.969-.586 1.05-.986.21-.142.911-.541.838-1.228.393-.276.612-.63.5-1.132.422-.469.533-.856.354-1.213.507-.641.282-.973.066-1.309.38-.701.045-1.452-1.016-1.326-.422-.631-1.342-.488-1.485-.485-.159-.203-.369-.376-1.016-.292-.419-.38-.887-.315-1.37-.129-.574-.454-.953-.09-1.387.047-.695-.227-.853.084-1.195.211-.757-.16-.988.189-1.351.557l-.422-.008c-1.142.675-1.71 2.049-1.911 2.755-.201-.707-.767-2.081-1.91-2.755l-.422.008c-.364-.369-.594-.718-1.351-.557-.341-.127-.5-.439-1.195-.211-.285-.09-.546-.278-.854-.268-.161.005-.335.065-.532.221-.483-.187-.951-.252-1.37.129-.647-.084-.857.089-1.016.292-.142-.003-1.062-.146-1.485.485-1.061-.126-1.396.625-1.016 1.326-.217.336-.441.668.065 1.309-.179.357-.068.744.354 1.213-.111.502.108.856.5 1.132-.074.687.628 1.086.838 1.228.08.4.248.778 1.05.986.132.596.614.699 1.08.824-1.542.898-2.864 2.08-2.855 4.98l-.226.404c-1.768 1.078-3.358 4.541-.871 7.356.162.881.435 1.514.677 2.215.363 2.823 2.731 4.144 3.355 4.301.915.699 1.89 1.362 3.209 1.826 1.243 1.285 2.59 1.775 3.945 1.774.02 0 2.761-.489 4-1.774 1.319-.464 2.294-1.127 3.209-1.826.624-.156 2.992-1.478 3.355-4.301.243-.7.515-1.333.678-2.215 2.487-2.815.897-6.279-.871-7.356"/></svg>