<?xml version="1.0" encoding="utf-8"?>
<!-- Generator: Adobe Illustrator 23.1.0, SVG Export Plug-In . SVG Version: 6.00 Build 0)  -->
<svg version="1.1" id="Layer_1" xmlns="http://www.w3.org/2000/svg" xmlns:xlink="http://www.w3.org/1999/xlink" x="0px" y="0px"
	 viewBox="0 0 612 370.55" style="enable-background:new 0 0 612 370.55;" xml:space="preserve">
<style type="text/css">
	.st0{fill:#EE2435;}
	.st1{fill:#77787B;}
	.st2{fill:#FFFFFF;}
	.st3{font-family:'RedHatDisplay-Medium';}
	.st4{font-size:49px;}
</style>
<g>
	<path class="st0" d="M127,135.02c12.51,0,30.62-2.59,30.62-17.47c0-1.16-0.03-2.29-0.31-3.42l-7.45-32.37
		c-1.73-7.12-3.24-10.35-15.74-16.6C124.42,60.2,103.29,52,97.03,52c-5.82,0-7.55,7.55-14.45,7.55c-6.68,0-11.64-5.61-17.9-5.61
		c-6.04,0-9.92,4.1-12.94,12.51c0,0-8.41,23.72-9.49,27.17c-0.22,0.65-0.22,1.38-0.22,1.94C42.04,104.78,78.35,135.02,127,135.02
		 M159.56,123.59c1.73,8.19,1.73,9.06,1.73,10.13c0,14.02-15.74,21.78-36.44,21.78c-46.79,0-87.76-27.38-87.76-45.5
		c0-2.81,0.65-5.39,1.51-7.33C21.78,103.54,0,106.55,0,125.75c0,31.48,74.61,70.29,133.69,70.29c45.28,0,56.71-20.48,56.71-36.65
		C190.4,146.66,179.4,132.22,159.56,123.59"/>
	<path d="M159.56,123.59c1.73,8.19,1.73,9.06,1.73,10.13c0,14.02-15.74,21.78-36.44,21.78c-46.79,0-87.76-27.38-87.76-45.5
		c0-2.81,0.65-5.39,1.51-7.33l3.67-9.06c-0.22,0.65-0.22,1.38-0.22,1.94c0,9.22,36.3,39.46,84.96,39.46
		c12.51,0,30.62-2.59,30.62-17.47c0-1.16-0.03-2.29-0.31-3.42L159.56,123.59z"/>
</g>
<path d="M579.39,144.33c0,11.89,7.15,17.67,20.2,17.67c3.16,0,8.63-0.74,11.89-1.68v-13.78c-2.84,0.84-4.94,1.16-7.68,1.16
	c-5.36,0-7.36-1.68-7.36-6.73v-21.14H612v-14.2h-15.57V87.63l-17.04,3.68v14.31h-11.26v14.2h11.26V144.33z M526.43,144.65
	c0-3.68,3.68-5.47,9.26-5.47c3.68,0,7.05,0.53,10.1,1.26v7.15c-3.16,1.79-6.84,2.63-10.62,2.63
	C529.69,150.22,526.43,148.12,526.43,144.65 M531.63,162.21c6,0,10.84-1.26,15.36-4.31v3.37h16.83v-35.66
	c0-13.57-9.15-21.04-24.41-21.04c-8.52,0-16.94,2-25.98,6.1l6.1,12.52c6.52-2.74,11.99-4.42,16.83-4.42
	c7.05,0,10.62,2.74,10.62,8.31v2.74c-4-1.05-8.21-1.58-12.62-1.58c-14.31,0-22.93,6-22.93,16.73
	C511.43,154.75,519.22,162.21,531.63,162.21 M439.16,161.27h18.09v-28.82h30.3v28.82h18.09V87.63h-18.09v28.3h-30.3v-28.3h-18.09
	V161.27z M370.22,133.39c0-7.99,6.31-14.1,14.62-14.1c4.63,0,8.84,1.58,11.78,4.31v19.46c-3.05,2.95-7.05,4.42-11.78,4.42
	C376.63,147.49,370.22,141.39,370.22,133.39 M396.83,161.27h16.83V83.95l-17.04,3.68v20.93c-4.21-2.42-9.05-3.68-14.2-3.68
	c-16.2,0-28.93,12.52-28.93,28.51c0,15.99,12.52,28.61,28.4,28.61c5.47,0,10.62-1.68,14.94-4.84V161.27z M319.62,118.56
	c5.36,0,9.89,3.47,11.68,8.84h-23.25C309.73,121.82,313.94,118.56,319.62,118.56 M290.9,133.5c0,16.2,13.25,28.82,30.3,28.82
	c9.36,0,16.2-2.52,23.25-8.42l-11.26-9.99c-2.63,2.74-6.52,4.21-11.15,4.21c-6.31,0-11.47-3.47-13.68-8.84h39.66v-4.21
	c0-17.67-11.89-30.4-28.09-30.4C303.63,104.67,290.9,117.3,290.9,133.5 M261.55,103.09c6,0,9.36,3.79,9.36,8.31
	s-3.37,8.31-9.36,8.31h-17.88v-16.62H261.55z M225.58,161.27h18.09v-26.82h13.78l13.89,26.82h20.2l-16.2-29.45
	c8.73-3.79,13.89-11.68,13.89-20.72c0-13.25-10.41-23.46-25.98-23.46h-37.66V161.27z"/>
<g>
	<polygon class="st1" points="22.93,305.73 70.52,251.74 0,251.74 0,283.92 	"/>
	<g>
		<polygon class="st1" points="91.01,257.22 24.13,333.1 0,310.14 0,341.16 91.01,341.16 		"/>
		<rect x="96.52" y="251.74" class="st1" width="515.48" height="89.43"/>
	</g>
	<text transform="matrix(1 0 0 1 118.0767 312.9742)" class="st2 st3 st4">Certified Technology</text>
</g>
</svg>
