<?xml version="1.0" encoding="utf-8"?>
<svg viewBox="0 0 56 52" xmlns="http://www.w3.org/2000/svg">
  <defs>
    <style id="bx-google-fonts">@import url(https://fonts.googleapis.com/css?family=Roboto:100,100italic,300,300italic,400,400italic,500,500italic,700,700italic,900,900italic);</style>
  </defs>
  <path d="M 45.801 23.317 L 33.703 32.151 L 36.947 27.97 L 44.449 18.305 L 45.935 22.894 C 45.986 23.051 45.932 23.222 45.802 23.317 M 10.644 23.317 C 10.512 23.222 10.458 23.051 10.509 22.894 L 11.996 18.304 L 22.744 32.155 L 10.646 23.317 M 16.451 4.511 L 19.841 14.986 L 13.072 14.986 L 16.451 4.511 M 33.685 17.117 L 28.228 34.003 L 22.769 17.117 L 33.685 17.117 M 39.998 4.512 L 43.384 14.986 L 36.613 14.986 L 39.998 4.512 M 31.109 32.018 L 35.924 17.125 L 42.668 17.125 L 31.423 31.614 L 31.109 32.018 M 20.526 17.125 L 25.339 32.015 L 13.787 17.125 L 20.526 17.125 M 47.964 22.238 L 45.873 15.78 C 45.869 15.765 45.869 15.749 45.864 15.733 L 41.692 2.825 C 41.446 2.09 40.735 1.576 39.986 1.603 C 39.216 1.608 38.539 2.103 38.301 2.837 L 34.374 14.992 L 22.079 14.992 L 18.145 2.837 C 17.908 2.104 17.231 1.608 16.46 1.604 C 15.67 1.575 15.001 2.091 14.751 2.838 L 10.595 15.725 C 10.593 15.728 10.591 15.731 10.59 15.736 L 8.482 22.243 C 8.148 23.277 8.511 24.402 9.386 25.043 L 27.59 38.341 C 27.628 38.368 27.671 38.381 27.711 38.403 C 27.715 38.405 27.719 38.408 27.723 38.41 C 27.725 38.411 27.727 38.413 27.73 38.415 C 27.731 38.415 27.733 38.416 27.733 38.417 C 27.754 38.427 27.774 38.436 27.794 38.445 C 27.853 38.471 27.912 38.493 27.973 38.507 C 27.973 38.507 27.973 38.508 27.974 38.508 C 27.986 38.511 27.998 38.512 28.01 38.514 C 28.029 38.518 28.049 38.519 28.068 38.522 C 28.118 38.529 28.167 38.545 28.218 38.545 C 28.33 38.545 28.442 38.523 28.549 38.488 C 28.552 38.487 28.554 38.486 28.557 38.486 C 28.559 38.485 28.562 38.484 28.564 38.484 C 28.603 38.47 28.641 38.454 28.679 38.437 C 28.691 38.431 28.702 38.423 28.714 38.417 C 28.715 38.417 28.716 38.417 28.716 38.416 C 28.718 38.415 28.719 38.415 28.72 38.415 C 28.721 38.415 28.721 38.414 28.722 38.413 C 28.763 38.39 28.803 38.368 28.841 38.341 C 28.846 38.338 28.851 38.336 28.856 38.334 C 28.856 38.333 28.856 38.333 28.857 38.333 L 47.061 25.042 C 47.936 24.402 48.299 23.277 47.964 22.242"/>
  <text x="6.499" y="48.506" style="font-size: 11px; white-space: pre;">RUNNER</text>
</svg>