<svg height="800pt" preserveAspectRatio="xMidYMid meet" viewBox="0 0 800 800" width="800pt" xmlns="http://www.w3.org/2000/svg"><g transform="matrix(.1 0 0 -.1 0 800)"><path d="m670 7237c-51-26-60-64-60-267 0-616 182-1112 553-1506l75-79-46-75c-25-41-80-149-122-240-186-398-259-509-425-645-96-79-96-82 17-84 31-1 59-5 62-9 4-6-84-127-257-353l-27-36 102-68c166-110 298-224 399-345 26-30 96-132 157-227 224-347 400-569 677-852 392-399 846-779 1410-1177 359-254 742-501 792-510 51-10 86 8 328 166 772 501 1418 1010 1910 1504 250 251 412 447 592 716 112 167 148 213 265 336 145 151 257 241 379 304l107 55-145 195-146 195 39 3c21 1 58 5 82 8l44 5-94 92c-155 151-228 269-324 522-68 182-139 332-203 429-28 43-51 89-51 102 0 15 22 48 55 86 341 388 508 815 534 1370 10 198 0 321-27 357-49 67-121 51-386-83-315-161-514-284-978-608-125-87-229-158-231-158-3 0-98 41-211 90-270 118-427 170-736 241-269 63-316 79-370 131-64 63-83 139-58 232 10 39 10 48-5 64-17 19-19 18-122-4-199-44-328-113-440-237-38-42-84-84-101-92s-112-26-210-40c-380-55-662-141-1037-316-92-44-175-79-183-79s-147 89-307 199c-654 445-783 524-1032 629-156 66-207 79-245 59zm6564-152c7-44 4-50-230-467-130-233-291-526-356-653-66-126-123-233-127-237-3-4-146 132-316 302s-307 311-305 313c17 16 294 207 495 342 238 160 438 280 564 338 108 49 245 106 257 107 7 0 15-20 18-45zm-6388 9c196-73 532-279 1018-624l186-132-61-66c-34-37-141-166-239-288-98-121-185-226-194-233-12-10-19-5-42 36-15 26-95 156-178 288-239 384-303 497-468 827-89 179-106 218-94 218 2 0 35-12 72-26zm3407-238c29-65 108-144 177-178 30-14 109-38 175-52 441-96 677-175 970-324 443-226 809-553 1089-972 79-119 162-285 246-495 85-213 136-313 206-411l52-72-70-9-71-8 139-165c77-91 158-189 181-217l43-51-78-57c-176-132-344-293-459-440-22-27-81-113-133-190-187-280-338-464-590-716-214-214-346-329-679-588-208-162-648-491-691-516-8-5 71 85 176 201 716 788 1754 2025 1754 2090 0 8-31 33-42 34-15 0-438-482-1198-1370-908-1060-1056-1226-1159-1299-108-77-249-161-280-167-22-5-54 12-165 83l-138 88-302 340c-166 187-554 630-861 985-430 496-959 1100-1186 1354-9 10-49-20-49-37 0-74 1398-1709 2019-2361 80-84 69-78-184 103-721 514-1271 1015-1705 1551-87 108-135 178-205 300-124 215-298 412-535 605-52 42-96 81-98 85s80 106 182 226c203 242 199 231 92 233l-49 1 27 33c78 96 167 247 261 441 124 256 171 340 276 496 326 481 797 831 1424 1058 191 69 344 106 646 156 140 24 272 51 292 61 23 11 53 40 81 80 75 104 136 147 296 206l75 27 13-46c7-26 23-69 35-96zm-3467-38c166-332 465-835 636-1072l50-69-97-96-96-96-61 65c-77 83-185 245-249 373-130 259-199 500-233 816-17 152-19 191-11 191 3 0 30-51 61-112zm6444-121c-50-431-226-847-470-1107-56-60-72-72-79-60-5 8-30 44-55 79l-46 65 24 25c83 88 367 577 531 912 55 113 102 201 103 196 2-4-1-54-8-110z"/><path d="m2293 5035c-165-36-297-162-333-317-62-271 179-647 514-798 160-73 326-99 642-100 219 0 286-60 341-304 13-61 27-113 29-115 5-6 5-7 62 82 86 132 125 261 125 412 0 168-52 314-176 487-173 242-381 417-652 548-143 69-195 87-312 106-106 17-158 17-240-1zm432-422c-4-10-10-56-12-103-6-109 17-182 94-298l55-84 55 54c33 32 68 81 90 125 30 62 36 85 41 162 2 50 8 91 11 91 10 0 171-98 209-126 68-52 78-131 30-235-66-144-234-236-413-227-108 6-178 39-261 124-112 113-183 262-192 406-4 69-2 78 17 95 31 27 54 31 175 32 99 1 108 0 101-16z"/><path d="m5368 5030c-478-106-829-380-1049-819-117-235-118-434-4-648 43-81 103-168 111-160 2 2 12 46 23 98 28 133 57 205 102 250 60 60 107 69 344 68 170-1 214 2 290 20 212 49 370 132 521 273 152 143 254 348 254 512 0 162-123 338-277 396-82 31-203 35-315 10zm126-374c15-9 34-32 43-50 14-31 14-40-2-112-34-155-95-265-200-363-109-102-199-132-328-111-201 32-362 186-362 345 0 88 20 111 164 184l120 61-6-53c-11-108 44-240 138-333l47-46 40 53c61 81 101 169 112 248 5 38 8 76 6 83-3 7-7 37-11 67l-6 54 110-5c81-3 116-9 135-22z"/><path d="m3593 3007-23-12 20-32c16-27 258-237 330-286 35-24 91-22 126 5 67 52 262 214 297 247 43 41 47 68 11 81-40 15-733 12-761-3z"/><path d="m3812 2050c-64-17-142-53-142-66 0-2 143-4 318-4 313 1 317 1 294 20-52 43-130 62-267 66-107 3-143 1-203-16z"/></g></svg>