<svg viewBox="0 0 250 60.15" xmlns="http://www.w3.org/2000/svg"><path d="m77.35 7.86v-3.23h-3v3.23h-1.46v-7.75h1.51v3.25h3v-3.25h1.51v7.75zm7 0h-1.2l-.11-.38a3.28 3.28 0 0 1 -1.7.52c-1.06 0-1.52-.7-1.52-1.66 0-1.14.51-1.57 1.7-1.57h1.4v-.62c0-.62-.18-.84-1.11-.84a8.46 8.46 0 0 0 -1.61.17l-.2-1.06a7.89 7.89 0 0 1 2-.26c1.83 0 2.37.62 2.37 2zm-1.43-2.11h-1.08c-.48 0-.61.13-.61.55s.13.56.59.56a2.37 2.37 0 0 0 1.1-.29zm4.51 2.25a7.12 7.12 0 0 1 -2-.32l.2-1.07a6.77 6.77 0 0 0 1.73.24c.65 0 .74-.14.74-.56s-.07-.52-1-.73c-1.42-.33-1.59-.68-1.59-1.76s.49-1.65 2.16-1.65a8 8 0 0 1 1.75.2l-.14 1.11a10.66 10.66 0 0 0 -1.6-.16c-.63 0-.74.14-.74.48s0 .48.82.68c1.63.41 1.78.62 1.78 1.77s-.35 1.77-2.11 1.77zm6.68-.11v-3.89c0-.3-.13-.45-.47-.45a4.14 4.14 0 0 0 -1.52.45v3.86h-1.46v-7.86l1.46.22v2.47a5.31 5.31 0 0 1 2.13-.54c1 0 1.32.65 1.32 1.65v4.06zm2.68-6.38v-1.4h1.46v1.37zm0 6.38v-5.62h1.46v5.59zm2.62-5.54c0-1.4.85-2.22 2.83-2.22a9.37 9.37 0 0 1 2.16.25l-.17 1.25a12.21 12.21 0 0 0 -1.95-.2c-1 0-1.37.34-1.37 1.16v2.91c0 .81.33 1.16 1.37 1.16a12.21 12.21 0 0 0 1.95-.2l.17 1.25a9.37 9.37 0 0 1 -2.16.25c-2 0-2.83-.81-2.83-2.22zm8.22 5.65c-2 0-2.53-1.06-2.53-2.2v-1.44c0-1.15.54-2.2 2.53-2.2s2.53 1.06 2.53 2.2v1.41c.01 1.15-.53 2.23-2.53 2.23zm0-4.63c-.78 0-1.08.33-1.08 1v1.5c0 .63.3 1 1.08 1s1.08-.33 1.08-1v-1.56c0-.63-.3-.96-1.08-.96zm6.64.09a11.57 11.57 0 0 0 -1.54.81v3.6h-1.46v-5.6h1.23l.1.62a6.63 6.63 0 0 1 1.53-.73zm5.83 2.54a1.73 1.73 0 0 1 -1.92 2 8.36 8.36 0 0 1 -1.55-.16v2.26l-1.46.22v-8h1.16l.14.47a3.15 3.15 0 0 1 1.84-.59c1.17 0 1.79.67 1.79 1.94zm-3.48.63a6.72 6.72 0 0 0 1.29.15c.53 0 .73-.24.73-.75v-2c0-.46-.18-.71-.72-.71a2.11 2.11 0 0 0 -1.3.51z"/><path d="m81.78 19.54h-8.89v-5.31h23.81v5.31h-8.9v26.53h-6z"/><path d="m102.19 41.77a24.39 24.39 0 0 0 7.12-1.1l.91 4.4a25 25 0 0 1 -8.56 1.48c-7.31 0-9.85-3.39-9.85-9v-6.15c0-4.92 2.2-9.08 9.66-9.08s9.13 4.35 9.13 9.37v5h-13v1.2c.05 2.78 1.05 3.88 4.59 3.88zm-4.54-9.77h7.41v-1.18c0-2.2-.67-3.73-3.54-3.73s-3.87 1.53-3.87 3.73z"/><path d="m126.19 27.67a45.65 45.65 0 0 0 -6.19 3.39v15h-5.83v-23.27h4.92l.38 2.58a26.09 26.09 0 0 1 6.12-3.06z"/><path d="m140.43 27.67a45.65 45.65 0 0 0 -6.17 3.39v15h-5.83v-23.27h4.92l.38 2.58a26.09 26.09 0 0 1 6.12-3.06z"/><path d="m159.94 46.07h-4.78l-.43-1.58a12.73 12.73 0 0 1 -6.93 2.06c-4.25 0-6.07-2.92-6.07-6.93 0-4.73 2.06-6.55 6.79-6.55h5.59v-2.44c0-2.58-.72-3.49-4.45-3.49a32.53 32.53 0 0 0 -6.45.72l-.72-4.45a30.38 30.38 0 0 1 8-1.1c7.31 0 9.47 2.58 9.47 8.41zm-5.83-8.8h-4.3c-1.91 0-2.44.53-2.44 2.29s.53 2.34 2.34 2.34a9.18 9.18 0 0 0 4.4-1.2z"/><path d="m177.86 17.48a17.11 17.11 0 0 0 -3.35-.38c-2.29 0-2.63 1-2.63 2.77v2.92h5.93l-.33 4.64h-5.59v18.64h-5.83v-18.64h-3.73v-4.64h3.73v-3.25c0-4.83 2.25-7.22 7.41-7.22a18.47 18.47 0 0 1 5 .67z"/><path d="m189.24 46.55c-8 0-10.13-4.4-10.13-9.18v-5.88c0-4.78 2.15-9.18 10.13-9.18s10.13 4.4 10.13 9.18v5.88c.01 4.78-2.15 9.18-10.13 9.18zm0-19.27c-3.11 0-4.3 1.39-4.3 4v6.26c0 2.63 1.2 4 4.3 4s4.3-1.39 4.3-4v-6.24c0-2.63-1.19-4.02-4.3-4.02z"/><path d="m214.38 27.67a45.65 45.65 0 0 0 -6.17 3.39v15h-5.83v-23.27h4.92l.38 2.58a26.08 26.08 0 0 1 6.12-3.06z"/><path d="m230.4 46.07v-16.25c0-1.24-.53-1.86-1.86-1.86a16.08 16.08 0 0 0 -6.07 2v16.11h-5.83v-23.28h4.45l.57 2a23.32 23.32 0 0 1 9.34-2.48 4.42 4.42 0 0 1 4.4 2.49 22.83 22.83 0 0 1 9.37-2.49c3.87 0 5.26 2.72 5.26 6.88v16.88h-5.83v-16.25c0-1.24-.53-1.86-1.86-1.86a15.43 15.43 0 0 0 -6.07 2v16.11z"/><g fill-rule="evenodd"><path d="m18.2 10.72 16.4 9.48v18.93l-16.4-9.47z"/><path d="m36.4 20.2v18.93l16.4-9.46v-18.95z" opacity=".7"/><path d="m0 .15v18.94l16.4 9.47v-18.94z"/><path d="m18.2 50.68 16.4 9.47v-18.81-.13l-16.4-9.47z"/></g></svg>