<svg viewBox="0 0 32 32" xmlns="http://www.w3.org/2000/svg"><path d="m22.502 22.617c-.812-.307-1.75-.261-2.561.208-.812.469-1.322 1.259-1.461 2.118-.789.219-1.62.338-2.479.338-1.477 0-2.873-.347-4.112-.962l1.484-2.66c.798.372 1.689.581 2.628.581 3.26 0 5.934-2.499 6.214-5.687l3.045.045c-.15 2.353-1.178 4.466-2.757 6.02m.006 4.655c-1.022.59-2.328.24-2.917-.782-.59-1.022-.24-2.327.782-2.917 1.021-.59 2.327-.239 2.917.782.59 1.022.24 2.328-.782 2.917m-15.493-8.945c.674-.551 1.106-1.388 1.106-2.326 0-.939-.432-1.777-1.106-2.327.578-2.236 1.968-4.145 3.837-5.394l1.562 2.616c-1.604 1.129-2.653 2.994-2.653 5.105 0 2.111 1.049 3.976 2.653 5.105l-1.562 2.616c-1.87-1.249-3.26-3.158-3.837-5.395m-1.894-.19c-1.18 0-2.137-.956-2.137-2.136 0-1.181.956-2.137 2.137-2.137 1.179 0 2.136.956 2.136 2.137 0 1.18-.956 2.136-2.136 2.136m10.879-11.416c.859 0 1.69.119 2.479.337.139.858.649 1.649 1.461 2.118.811.467 1.749.514 2.561.208 1.58 1.553 2.608 3.666 2.757 6.02l-3.044.045c-.28-3.188-2.955-5.687-6.215-5.687-.939 0-1.83.209-2.628.581l-1.484-2.66c1.239-.614 2.635-.961 4.112-.961m3.59-1.21c.59-1.022 1.896-1.372 2.918-.783 1.022.59 1.371 1.896.781 2.918-.59 1.022-1.895 1.371-2.917.781-1.021-.59-1.371-1.895-.782-2.917m-3.59-5.51c-8.837 0-16 7.163-16 16 0 8.836 7.163 16 16 16 8.837 0 16-7.164 16-16 0-8.837-7.163-16-16-16"/></svg>