<svg viewBox="0 0 142 42" xmlns="http://www.w3.org/2000/svg"><path d="m5.532 0l-5.532 3.212 9.159 5.374v3.274l7.377 16.614 3.688-1.791v-4.633l-5.532-12.97v-3.645l-9.159-5.435m25.695 8.585v3.274l-7.377 16.429-3.627 2.038v11.674l7.868-4.571 12.356-30.33v-3.891l-9.221 5.374"/><path d="m34.916 0l-9.159 5.373-.062.062h.062v3.645l-1.967 4.323-1.905 4.637-1.661 4.01v4.633l-3.688 1.79-.062-.123-7.253-16.491v-3.274l-9.221-5.373v3.952l3.627 8.956 1.905 4.509 6.886 16.863 7.806 4.508v-11.488-.182l3.627-2.04 7.379-16.431v-3.274l9.218-5.373z"/><path d="m141.45 31.994c-1.01.35-2.067.537-3.135.556-2.643 0-3.934-1.235-3.934-3.829v-8.03h-2.213v-2.903h2.152v-3.582l3.627-.494v4.076h3.688l-.247 2.903h-3.442v7.535c-.072.644.389 1.225 1.03 1.297.086.01.174.01.26 0 .606-.017 1.206-.121 1.783-.309l.43 2.779m-14.2.247v-10.07c0-.742-.307-1.174-1.168-1.174-1.319.162-2.592.582-3.75 1.235v10.01h-3.627v-14.453h2.766l.369 1.235c1.804-.888 3.771-1.392 5.778-1.482 2.397 0 3.259 1.668 3.259 4.262v10.438h-3.627m-14.876-5.435h-2.643c-1.168 0-1.475.309-1.475 1.42 0 .988.307 1.482 1.475 1.482.948-.023 1.877-.277 2.705-.741v-2.162h-.062m3.565 5.435h-2.951l-.245-.988c-1.277.846-2.774 1.296-4.303 1.297-2.644 0-3.75-1.791-3.75-4.324 0-2.964 1.292-4.076 4.18-4.076h3.443v-1.482c0-1.606-.431-2.162-2.766-2.162-1.343.022-2.68.166-3.996.432l-.431-2.779c1.6-.454 3.255-.683 4.918-.679 4.487 0 5.84 1.606 5.84 5.188v9.574h.061m-11.987-11.426c-1.321.602-2.596 1.304-3.811 2.1v9.326h-3.627v-14.453h3.01l.245 1.606c1.164-.797 2.424-1.44 3.75-1.915l.43 3.335m-15.921-.432c-1.783 0-2.398.679-2.398 2.038v1.112c0 1.421.738 1.976 2.398 1.976 1.66 0 2.397-.555 2.397-1.976v-1.112c0-1.359-.615-2.038-2.397-2.038m-.861 7.968c-.46.227-.781.665-.86 1.173 0 .371.245.556.799.618 1.598.185 2.459.247 4.179.432 2.336.248 3.074 1.421 3.074 3.521 0 3.088-1.106 4.324-6.515 4.324-1.869.001-3.73-.248-5.532-.741l.43-2.718c1.589.399 3.219.607 4.856.618 2.89 0 3.442-.185 3.442-1.174 0-.865-.245-1.05-1.352-1.174-1.66-.185-2.337-.246-4.181-.494-2.029-.247-2.828-.926-2.828-2.779.063-1.015.613-1.937 1.476-2.471-1.352-.803-1.967-2.162-1.967-3.891v-1.359c.061-2.965 1.598-4.818 5.778-4.818.83-.004 1.656.099 2.459.309h4.426v1.791c-.492.124-1.106.309-1.598.432.328.695.495 1.455.491 2.224v1.358c0 2.965-1.783 4.694-5.778 4.694-.232.164-.527.21-.799.124m-10.45-1.544h-2.643c-1.168 0-1.475.309-1.475 1.42 0 .988.307 1.482 1.475 1.482.948-.023 1.877-.277 2.705-.741v-2.162h-.062m3.627 5.435h-2.951l-.247-.988c-1.277.846-2.773 1.296-4.303 1.297-2.643 0-3.75-1.791-3.75-4.324 0-2.964 1.291-4.076 4.181-4.076h3.442v-1.482c0-1.606-.43-2.162-2.766-2.162-1.342.022-2.68.166-3.996.432l-.43-2.779c1.6-.454 3.256-.683 4.918-.679 4.488 0 5.84 1.606 5.84 5.188v9.574h.062m-15.799-19.765h3.873l-5.901 19.765h-5.472l-5.901-19.765h3.872l4.734 16.429 4.794-16.429"/></svg>