<svg width="120" height="27" viewBox="0 0 120 27" fill="none" xmlns="http://www.w3.org/2000/svg">
<path d="M44.5503 8.87036L41.0327 17.0371H39.7159L36.1982 8.87036H37.553L40.4052 15.5254L43.2573 8.89413L44.5503 8.87036Z" fill="black"/>
<path d="M46.0625 8.87036H47.2604L50.1126 14.2087L52.9647 8.87036H54.1912V17.0371H52.9885V11.2234L50.1363 16.5617L47.2842 11.2234V17.0371H46.0625V8.87036Z" fill="black"/>
<path d="M55.6172 10.8906H56.8151L58.2412 15.4683L59.7623 10.8906H60.7606L62.2817 15.4683L63.7078 10.8906H64.9105L62.7476 17.037H61.6685L60.2092 12.4736L58.7213 17.037H57.6375L55.6172 10.8906Z" fill="black"/>
<path d="M70.2112 11.4515C70.6735 11.9572 70.9163 12.6256 70.8862 13.3102V17.0322H69.7358V16.2051C69.5056 16.5182 69.1975 16.7656 68.8421 16.9229C68.4805 17.0919 68.0862 17.1796 67.687 17.1796C67.1024 17.1968 66.5309 17.0047 66.0755 16.6377C65.8661 16.4653 65.6993 16.247 65.588 15.9997C65.4767 15.7523 65.4239 15.4826 65.4338 15.2116C65.4285 14.8325 65.5434 14.4614 65.7618 14.1515C65.9861 13.8324 66.2935 13.5809 66.6507 13.4242C67.041 13.2505 67.4642 13.1629 67.8914 13.1676C68.5249 13.177 69.1526 13.2894 69.7501 13.5003V13.3102C69.7633 12.8997 69.6321 12.4977 69.3793 12.174C69.2272 12.0073 69.0387 11.8776 68.8286 11.7952C68.6184 11.7128 68.3921 11.6798 68.1671 11.6987C67.5612 11.7327 66.9718 11.9085 66.4463 12.2121L66.0042 11.3422C66.7225 10.9591 67.5198 10.7476 68.3335 10.7242C68.6798 10.7086 69.0255 10.7653 69.3488 10.8905C69.672 11.0157 69.9657 11.2067 70.2112 11.4515ZM69.0656 15.9484C69.2285 15.8621 69.372 15.7434 69.4873 15.5995C69.6026 15.4556 69.6871 15.2896 69.7358 15.1118V14.2894C69.1911 14.1287 68.6257 14.0486 68.0578 14.0517C67.6757 14.0414 67.3006 14.1548 66.9882 14.375C66.853 14.4617 66.7419 14.5814 66.6654 14.7227C66.589 14.864 66.5496 15.0224 66.5509 15.1831C66.5484 15.3343 66.5821 15.4839 66.6491 15.6195C66.716 15.7551 66.8144 15.8727 66.9359 15.9627C67.2251 16.1646 67.5723 16.2664 67.9247 16.2526C68.3256 16.2568 68.72 16.1516 69.0656 15.9484Z" fill="black"/>
<path d="M74.7408 11.1091C75.1649 10.8632 75.6482 10.7382 76.1384 10.7478V11.7699C75.7283 11.7635 75.3221 11.8496 74.95 12.0218C74.617 12.1737 74.336 12.4199 74.1418 12.7301C73.9491 13.0409 73.8501 13.4007 73.8566 13.7664V17.0368H72.6777V10.8904H73.8566V12.0931C74.044 11.6825 74.3525 11.3392 74.7408 11.1091Z" fill="black"/>
<path d="M81.2058 16.0007C81.5051 15.9029 81.7793 15.7406 82.0091 15.5253L82.7127 16.2289C82.4062 16.5421 82.0299 16.7783 81.6146 16.9181C81.1708 17.086 80.701 17.1745 80.2265 17.1796C79.6716 17.1802 79.1263 17.0353 78.645 16.7592C78.1637 16.4831 77.7632 16.0855 77.4837 15.6061C77.2049 15.1019 77.0586 14.5352 77.0586 13.959C77.0586 13.3828 77.2049 12.8161 77.4837 12.3119C77.7491 11.8366 78.1367 11.441 78.6064 11.166C79.0762 10.8911 79.6109 10.7467 80.1552 10.7479C80.7196 10.734 81.2755 10.8878 81.7524 11.19C82.2101 11.4935 82.5661 11.9274 82.7745 12.4355C83.0201 13.0387 83.1398 13.6858 83.1262 14.3369H78.192C78.2424 14.8498 78.4732 15.3282 78.8432 15.6869C79.0224 15.8589 79.2341 15.9933 79.4659 16.0823C79.6978 16.1713 79.9451 16.213 80.1933 16.2051C80.5407 16.2025 80.8845 16.1331 81.2058 16.0007ZM78.8765 12.1978C78.508 12.5287 78.2703 12.9807 78.2062 13.4718H81.9616C81.9178 13.0008 81.7189 12.5577 81.3959 12.2121C81.2339 12.0504 81.0397 11.9246 80.826 11.8427C80.6123 11.7608 80.3838 11.7247 80.1552 11.7367C79.6867 11.7276 79.2314 11.8918 78.8765 12.1978Z" fill="black"/>
<path d="M89.7815 9.98271H87.0957V8.87036H93.6462V9.98271H90.9699V17.0371H89.772L89.7815 9.98271Z" fill="black"/>
<path d="M99.1552 11.4515C99.3842 11.7017 99.5613 11.9947 99.6763 12.3137C99.7914 12.6328 99.8421 12.9714 99.8255 13.3101V17.0322H98.6704V16.2051C98.4431 16.5191 98.1362 16.7668 97.7814 16.9229C97.4198 17.0919 97.0255 17.1795 96.6263 17.1796C96.0401 17.198 95.4667 17.0057 95.0101 16.6377C94.8007 16.4653 94.6338 16.247 94.5225 15.9996C94.4112 15.7523 94.3585 15.4826 94.3684 15.2116C94.3631 14.8325 94.4779 14.4614 94.6964 14.1515C94.9196 13.8314 95.2273 13.5796 95.5853 13.4242C95.9754 13.25 96.3987 13.1625 96.826 13.1675C97.4579 13.1766 98.0842 13.289 98.6799 13.5003V13.3101C98.6944 12.9003 98.5649 12.4983 98.3138 12.174C98.1617 12.0072 97.9733 11.8776 97.7631 11.7952C97.5529 11.7128 97.3266 11.6798 97.1017 11.6987C96.4944 11.7333 95.9036 11.9091 95.3761 12.2121L94.9388 11.3422C95.6571 10.9591 96.4543 10.7476 97.268 10.7242C97.616 10.7064 97.9638 10.762 98.2889 10.8873C98.614 11.0126 98.9092 11.2048 99.1552 11.4515ZM98.0144 15.9484C98.1766 15.8618 98.3193 15.7429 98.4338 15.599C98.5483 15.4551 98.632 15.2893 98.6799 15.1118V14.2894C98.1368 14.1287 97.573 14.0486 97.0066 14.0517C96.6246 14.0414 96.2494 14.1548 95.937 14.375C95.8009 14.4612 95.6889 14.5805 95.6116 14.7219C95.5343 14.8633 95.4941 15.0219 95.495 15.1831C95.4906 15.3351 95.5239 15.4858 95.5919 15.6218C95.66 15.7578 95.7605 15.8749 95.8848 15.9627C96.1739 16.1646 96.5211 16.2664 96.8735 16.2526C97.2744 16.2568 97.6688 16.1516 98.0144 15.9484Z" fill="black"/>
<path d="M105.953 11.0474C106.301 11.2404 106.585 11.5313 106.77 11.884C106.967 12.2675 107.067 12.6936 107.06 13.1247V17.0369H105.919V13.3101C105.937 12.8993 105.796 12.4975 105.525 12.1882C105.397 12.0447 105.239 11.9311 105.063 11.8555C104.886 11.7799 104.695 11.7442 104.503 11.7509C104.206 11.7481 103.912 11.8166 103.647 11.9506C103.398 12.0689 103.185 12.2509 103.029 12.4782C102.883 12.6908 102.805 12.9428 102.806 13.2008V17.0036H101.627V10.8905H102.806V11.7937C103.003 11.4706 103.289 11.2101 103.628 11.0426C103.983 10.8471 104.383 10.7456 104.788 10.7479C105.196 10.7443 105.597 10.8475 105.953 11.0474Z" fill="black"/>
<path d="M108.297 16.1624L111.743 11.9554H108.382V10.8906H113.312V11.77L109.866 15.977H113.345V17.037H108.297V16.1624Z" fill="black"/>
<path d="M120 10.8906V17.037H118.84V16.1624C118.642 16.4776 118.363 16.7338 118.032 16.9039C117.676 17.0911 117.279 17.1874 116.877 17.1844C116.461 17.1902 116.051 17.0869 115.688 16.8849C115.342 16.6903 115.06 16.3997 114.875 16.0483C114.676 15.6656 114.577 15.2389 114.586 14.8076V10.8906H115.736V14.5984C115.719 15.0105 115.86 15.4134 116.13 15.725C116.259 15.8669 116.417 15.9791 116.594 16.0538C116.77 16.1285 116.961 16.1639 117.152 16.1576C117.446 16.1602 117.736 16.0934 117.999 15.9627C118.246 15.8423 118.458 15.6587 118.612 15.4303C118.761 15.2192 118.841 14.9665 118.84 14.7078V10.9049L120 10.8906Z" fill="black"/>
<path d="M17.9169 23.9723H9.53159C9.36957 23.9739 9.20929 23.9388 9.06276 23.8696C8.91623 23.8005 8.78724 23.6991 8.68544 23.573L3.4232 16.975C3.31771 16.8433 3.24503 16.6884 3.21115 16.5231C3.17726 16.3578 3.18314 16.1869 3.22831 16.0243L5.26285 7.94316C5.35793 7.65481 5.55146 7.40911 5.80951 7.24913L13.2537 3.52231C13.4011 3.44793 13.5639 3.40918 13.729 3.40918C13.8941 3.40918 14.057 3.44793 14.2044 3.52231L21.7483 7.24438C21.8952 7.31878 22.0243 7.42396 22.1268 7.55275C22.2294 7.68153 22.3029 7.83091 22.3425 7.99069L24.2773 16.0718C24.3205 16.2346 24.3254 16.4051 24.2916 16.5701C24.2578 16.7351 24.1862 16.8899 24.0824 17.0225L18.7631 23.573C18.544 23.8114 18.2403 23.9547 17.9169 23.9723ZM9.57912 22.879H17.8694L23.1792 16.281L21.2445 8.19985L13.748 4.46827L6.30389 8.19035L4.31688 16.2715L9.57912 22.879Z" fill="#0091DA"/>
<path d="M23.3258 5.70908L24.267 4.91523L14.2939 0V1.24069L23.3258 5.70908Z" fill="#1BC1D5"/>
<path d="M1.44023 17.3223L0.24707 17.5695L7.19684 26.3066L7.74351 25.2133L1.44023 17.3223Z" fill="#78BE20"/>
<path d="M13.2004 1.24069V0L3.32715 4.91523L4.26836 5.70908L13.2004 1.24069Z" fill="#1BC1D5"/>
<path d="M3.62225 6.65034L2.62874 5.8042L0 16.476L1.24069 16.2289L3.62225 6.65034Z" fill="#1D428A"/>
<path d="M26.2537 16.2289L27.4944 16.476L24.9655 5.8042L24.0195 6.6028L26.2537 16.2289Z" fill="#1D428A"/>
<path d="M26.0069 17.3223L19.6514 25.2133L20.198 26.3066L27.2476 17.5695L26.0069 17.3223Z" fill="#78BE20"/>
<path d="M8.73709 25.6599L8.19043 26.8008H19.2093L18.6626 25.6599H8.73709Z" fill="#1BC1D5"/>
</svg>
