<?xml version="1.0" encoding="utf-8"?>
<!-- Generator: Adobe Illustrator 24.1.0, SVG Export Plug-In . SVG Version: 6.00 Build 0)  -->
<svg version="1.1" id="Layer_1" xmlns="http://www.w3.org/2000/svg" xmlns:xlink="http://www.w3.org/1999/xlink" x="0px" y="0px"
	 viewBox="0 0 371 342" enable-background="new 0 0 371 342" height="36" xml:space="preserve">
<g>
	<path fill-rule="evenodd" clip-rule="evenodd" fill="#E24329" d="M185.4,341.1l68-209.3h-136L185.4,341.1L185.4,341.1z"/>
	<path fill-rule="evenodd" clip-rule="evenodd" fill="#FC6D26" d="M185.4,341.1l-68-209.3H22.1L185.4,341.1L185.4,341.1z"/>
	<path fill-rule="evenodd" clip-rule="evenodd" fill="#FCA326" d="M22.1,131.8L1.4,195.4c-1.9,5.8,0.2,12.2,5.1,15.7l178.9,130
		L22.1,131.8L22.1,131.8z"/>
	<path fill-rule="evenodd" clip-rule="evenodd" fill="#E24329" d="M22.1,131.8h95.3L76.4,5.7c-2.1-6.5-11.3-6.5-13.4,0L22.1,131.8
		L22.1,131.8z"/>
	<path fill-rule="evenodd" clip-rule="evenodd" fill="#FC6D26" d="M185.4,341.1l68-209.3h95.3L185.4,341.1L185.4,341.1z"/>
	<path fill-rule="evenodd" clip-rule="evenodd" fill="#FCA326" d="M348.7,131.8l20.7,63.6c1.9,5.8-0.2,12.2-5.1,15.7l-178.9,130
		L348.7,131.8L348.7,131.8z"/>
	<path fill-rule="evenodd" clip-rule="evenodd" fill="#E24329" d="M348.7,131.8h-95.3l41-126.1c2.1-6.5,11.3-6.5,13.4,0L348.7,131.8
		L348.7,131.8z"/>
</g>
</svg>
