<svg height="179" viewBox="0 0 189 179" width="189" xmlns="http://www.w3.org/2000/svg"><g fill="none" fill-rule="evenodd"><path d="m110.160166 47.6956996h50c5.522847 0 10 4.4771525 10 10v60.0000004c0 5.522847-4.477153 10-10 10h-50c-5.522848 0-10-4.477153-10-10v-60.0000004c0-5.5228475 4.477152-10 10-10z" fill="#fff" fill-rule="nonzero" transform="matrix(.98480775 .17364818 -.17364818 .98480775 17.281585 -22.138022)"/><path d="m110.160166 51.6956996c-3.313709 0-6 2.6862915-6 6v60.0000004c0 3.313708 2.686291 6 6 6h50c3.313708 0 6-2.686292 6-6v-60.0000004c0-3.3137085-2.686292-6-6-6zm0-4h50c5.522847 0 10 4.4771525 10 10v60.0000004c0 5.522847-4.477153 10-10 10h-50c-5.522848 0-10-4.477153-10-10v-60.0000004c0-5.5228475 4.477152-10 10-10z" fill="#eee" fill-rule="nonzero" transform="matrix(.98480775 .17364818 -.17364818 .98480775 17.281585 -22.138022)"/><rect fill="#000" fill-opacity=".03" height="80" rx="10" transform="matrix(.9961947 .08715574 -.08715574 .9961947 6.887135 -9.741318)" width="70" x="80" y="34"/><path d="m126.028 178h23.972c19.972-.543 36-16.9 36-37 0-20.435-16.565-37-37-37-.993 0-1.977.04-2.95.116-4.95-14.606-18.773-25.116-35.05-25.116-5.28489-.0075443-10.509625 1.1212986-15.32 3.31-6.65-9.84-17.91-16.31-30.68-16.31-20.435 0-37 16.565-37 37 0 .7.02 1.397.058 2.088-16.114 4-28.058 18.56-28.058 35.912 0 20.435 16.565 37 37 37 .324 0 .646-.004.968-.012z" fill="#000" fill-opacity=".03" fill-rule="nonzero"/><g transform="matrix(.9961947 .08715574 -.08715574 .9961947 86.972459 30)"><rect fill="#fff" height="80" rx="10" width="70"/><path d="m10 4c-3.3137085 0-6 2.6862915-6 6v60c0 3.3137085 2.6862915 6 6 6h50c3.3137085 0 6-2.6862915 6-6v-60c0-3.3137085-2.6862915-6-6-6zm0-4h50c5.5228475 0 10 4.4771525 10 10v60c0 5.5228475-4.4771525 10-10 10h-50c-5.5228475 0-10-4.4771525-10-10v-60c0-5.5228475 4.4771525-10 10-10z" fill="#eee" fill-rule="nonzero"/><rect fill="#fc6d26" height="4" rx="2" width="8" x="14" y="18"/><rect fill="#e1dbf1" height="4" rx="2" width="8" x="32" y="38"/><rect fill="#fee1d3" height="4" rx="2" width="8" x="45" y="48"/><rect fill="#fef0e8" height="4" rx="2" width="8" x="44" y="38"/><rect fill="#efedf8" height="4" rx="2" width="12" x="26" y="18"/><rect fill="#fef0e8" height="4" rx="2" width="6" x="15" y="48"/><rect fill="#fc6d26" height="4" rx="2" width="6" x="25" y="48"/><rect fill="#eee" height="4" rx="2" width="6" x="35" y="48"/><rect fill="#eee" height="4" rx="2" width="12" x="14" y="28"/><rect fill="#6b4fbb" height="4" rx="2" width="12" x="44" y="58"/><rect fill="#c3b8e3" height="4" rx="2" width="26" x="30" y="28"/><rect fill="#fee1d3" height="4" rx="2" width="26" x="15" y="58"/><rect fill="#e1dbf1" height="4" rx="2" width="14" x="42" y="18"/><rect fill="#6b4fbb" height="4" rx="2" width="14" x="14" y="38"/></g><g transform="translate(3 67)"><path d="m126.028 112h23.972c19.972-.543 36-16.9 36-37 0-20.435-16.565-37-37-37-.993 0-1.977.04-2.95.116-4.95-14.606-18.773-25.116-35.05-25.116-5.28489-.0075443-10.509625 1.1212986-15.32 3.31-6.65-9.84-17.91-16.31-30.68-16.31-20.435 0-37 16.565-37 37 0 .7.02 1.397.058 2.088-16.114 4-28.058 18.56-28.058 35.912 0 20.435 16.565 37 37 37 .324 0 .646-.004.968-.012z" fill="#fff" fill-rule="nonzero"/><path d="m126.028 110h23.918c18.93-.514 34.054-16.024 34.054-35 0-19.33-15.67-35-35-35-.936 0-1.867.037-2.793.11l-1.551.122-.5-1.474c-4.775-14.088-18.04-23.758-33.156-23.758-4.998944-.0073241-9.941005 1.0604828-14.491 3.131l-1.54.701-.947-1.401c-6.47-9.576-17.248-15.431-29.022-15.431-19.33 0-35 15.67-35 35 0 .661.018 1.32.055 1.977l.092 1.653-1.607.399c-15.48 3.841-26.54 17.798-26.54 33.971 0 19.33 15.67 35 35 35 .306 0 .612-.004.968-.012z" fill="#fff"/><path d="m149 38c20.434569 0 37 16.5654305 37 37 0 20.0477955-15.975056 36.45554-36.054 37h-23.918l-88.0150675-.012505c-.3781286.008497-.6972277.012505-1.0129325.012505-20.4345695 0-37-16.5654305-37-37 0-17.0227506 11.6188339-31.8330556 28.0580557-35.9120641-.0387999-.6898859-.0580557-1.3857225-.0580557-2.0879359 0-20.4345695 16.5654305-37 37-37 12.3556804 0 23.7905015 6.1156181 30.6789703 16.310978 4.8126657-2.1896559 10.0382387-3.3187201 15.3210297-3.310978 15.893041 0 29.974134 10.139867 35.049999 25.1155308.981472-.0767217 1.964766-.1155308 2.950001-.1155308zm.891715 70.000737c17.85898-.484919 32.108285-15.1201703 32.108285-33.000737 0-18.2254305-14.774569-33-33-33-.8803 0-1.758858.0346799-2.636167.1038413l-1.551.122c-.912266.0717579-1.756876-.4847879-2.050832-1.3513721l-.500157-1.4744622c-4.526799-13.3557164-17.08648-22.400007-31.264774-22.4000091-4.712168-.006904-9.370715.9996456-13.6594846 2.9512895l-1.54.701c-.888393.4043919-1.9389279.1084205-2.4855557-.7002654l-.9472293-1.4013393c-6.1472202-9.09826586-16.342005-14.5506827-27.3648004-14.5506827-18.2254305 0-33 14.7745695-33 33 0 .6282966.0172077 1.249659.0519095 1.8658592l.092 1.653c.0533813.9591224-.5826656 1.8207254-1.5149652 2.0522049l-1.6072964.3990735c-14.6578055 3.6369917-25.0216479 16.8475832-25.0216479 32.0298624 0 18.2254305 14.7745695 33 33 33 .2837952 0 .5733598-.003637.9682725-.012l88.0599775.012z" fill="#eee" fill-rule="nonzero"/></g><g fill-rule="nonzero" transform="matrix(.96592583 .25881905 -.25881905 .96592583 61.143012 91)"><path d="m12.275 10.57c1.711216-1.41369245 3.646048-2.53234637 5.725-3.31v-1.76c0-3.037 2.47-5.5 5.493-5.5h3.014c1.4578848.00053002 2.8558038.58038637 3.8860274 1.61192286 1.0302237 1.03153649 1.6082993 2.43019288 1.6069726 3.88807714v1.76c2.098.783 4.03 1.91 5.725 3.31l1.528-.882c2.6286141-1.51531504 5.9877537-.61760621 7.51 2.007l1.507 2.61c.7284289 1.2628669.9251495 2.7634426.5468566 4.1713972-.3782928 1.4079546-1.3005883 2.6078701-2.5638566 3.3356028l-1.525.881c.179 1.076.272 2.18.272 3.307s-.093 2.231-.272 3.307l1.525.88c2.6270379 1.518769 3.5292744 4.8772181 2.017 7.508l-1.507 2.61c-.7294156 1.2623849-1.9306168 2.1831439-3.3391513 2.5595658-1.4085344.3764219-2.9089242.1776461-4.1708487-.5525658l-1.528-.882c-1.711216 1.4136924-3.646048 2.5323464-5.725 3.31v1.76c0 3.037-2.47 5.5-5.493 5.5h-3.014c-1.4578848-.00053-2.8558038-.5803864-3.8860274-1.6119229-1.0302237-1.0315365-1.6082993-2.4301928-1.6069726-3.8880771v-1.76c-2.078952-.7776536-4.013784-1.8963076-5.725-3.31l-1.528.882c-2.62861406 1.515315-5.98775371.6176062-7.51-2.007l-1.507-2.61c-.72842887-1.2628669-.92514948-2.7634426-.54685663-4.1713972.37829284-1.4079546 1.30058835-2.6078701 2.56385663-3.3356028l1.525-.881c-.18148796-1.0929735-.2724634-2.199061-.272-3.307 0-1.127.093-2.231.272-3.307l-1.525-.88c-2.62703787-1.518769-3.52927441-4.8772181-2.017-7.508l1.507-2.61c.72941559-1.2623849 1.93061682-2.18314391 3.33915125-2.55956583 1.40853443-.37642191 2.90892428-.17764603 4.17084875.55256583z" fill="#fff"/><path d="m17.9996486 7.25963195.0003527-1.7619052c.0034446-3.03058794 2.4561465-5.48820502 5.4929987-5.49772675h3.014c3.035757 0 5.493 2.46161709 5.493 5.5v1.75850184c2.0799663.7781457 4.0149544 1.8970891 5.7260175 3.31095866l1.5287694-.88254176c2.6264218-1.51275572 5.9816103-.6174302 7.5082306 2.00802366l1.5076695 2.6111603c.7283031 1.2633143.9246004 2.7643095.545662 4.1724268s-1.3020345 2.6078726-2.5632808 3.3334819l-1.5252027.8806563c.1812362 1.0875774.2721345 2.1924144.2721345 3.3073323 0 1.1144218-.0908174 2.218078-.2721347 3.3073326l1.5269331.8816562c2.6230532 1.5180551 3.5253604 4.8709864 2.0152191 7.5060688l-1.5074858 2.610841c-.7298219 1.2625753-1.9315989 2.1832556-3.340628 2.5592523-1.4090291.3759966-2.9097317.1764677-4.1685499-.5528959l-1.528868-.8822761c-1.7107328 1.4136123-3.6450462 2.5323134-5.7241344 3.3103892l-.0003527 1.7619052c-.0034446 3.0305879-2.4561465 5.488205-5.4929987 5.4977267h-3.014c-3.035757 0-5.493-2.4616171-5.493-5.5v-1.7585012c-2.0799663-.7781463-4.0149544-1.8970897-5.7260175-3.3109593l-1.5287694.8825418c-2.62642183 1.5127557-5.98161033.6174302-7.50823063-2.0080237l-1.50766944-2.6111603c-.72830313-1.2633143-.92460043-2.7643095-.54566205-4.1724268s1.30203448-2.6078726 2.5632808-3.3334819l1.52520276-.8806563c-.18123629-1.0875774-.27213454-2.1924143-.27213435-3.3064562-.00048531-1.1078702.09045691-2.2138907.27213483-3.3082086l-1.52693345-.8816563c-2.62305321-1.5180551-3.52536038-4.8709864-2.0152191-7.5060688l1.50748584-2.610841c.72982193-1.2625753 1.93159894-2.18325561 3.34062799-2.55925227 1.40902906-.37599666 2.90973173-.17646776 4.1685499.55289587l1.5281556.881865c1.7461773-1.43325416 3.6644181-2.53888545 5.7248468-3.30997805zm-4.2478112 7.27823005c-.6437684.531861-1.5502211.6077719-2.2734836.190393l-2.73401381-1.5777427c-.34330096-.1989088-.75159041-.2531937-1.13493862-.150898-.38334822.1022957-.7103103.3527811-.90838384.6954433l-1.50377162 2.6043878c-.4117727.718518-.16521203 1.634726.54982231 2.0485432l2.726 1.574c.72223293.4170193 1.10988394 1.2384252.97268061 2.0610434l-.22776562 1.3655916c-.14546373.8759976-.2183724 1.7625074-.21798321 2.6513764 0 .8953847.0728258 1.7804297.21774883 2.649968l.228 1.367c.13720333.8226182-.25044768 1.6440241-.97268061 2.0610434l-2.72871745 1.5755662c-.34388095.1978394-.59502356.5242515-.69811963.9073516-.10309606.3831002-.04969034.7914692.14778639 1.1340132l1.50393834 2.6047161c.41632126.7159766 1.33314602.9606295 2.04912323.548245l2.73-1.576c.7232969-.4175516 1.6299004-.3417004 2.2737583.1902345l1.0702125.8841756c1.368805 1.1311807 2.9165981 2.0262755 4.5780367 2.647846l1.3.485c.7822571.2918421 1.3009134 1.0389165 1.3009134 1.8738404v3.147c0 .8308348.6679761 1.5 1.493 1.5l3.0077228.0000099c.8281222-.0025992 1.4983372-.6741574 1.4992772-1.5000099v-3.147c0-.8344298.5180515-1.581171 1.2996486-1.8733681l1.2993544-.4857585c1.662833-.6222969 3.2103195-1.5173881 4.5800167-2.649443l1.07-.883c.64375-.5312443 1.5497163-.606861 2.2726265-.1896854l2.7340138 1.5777427c.343301.1989088.7515904.2531937 1.1349386.150898s.7103103-.3527811.9083839-.6954433l1.5037716-2.6043878c.4117727-.718518.165212-1.634726-.5498223-2.0485432l-2.726-1.574c-.722233-.4170193-1.109884-1.2384252-.9726806-2.0610434l.2279065-1.3664392c.1450709-.8713154.2178423-1.7554765.2178423-2.6505288 0-.8953847-.0728258-1.7804297-.2177488-2.649968l-.228-1.367c-.1372034-.8226182.2504476-1.6440241.9726806-2.0610434l2.7287174-1.5755662c.343881-.1978394.5950236-.5242515.6981197-.9073516.103096-.3831002.0496903-.7914692-.1477864-1.1340132l-1.5039384-2.6047161c-.4163212-.7159766-1.333146-.9606295-2.0491232-.548245l-2.73 1.576c-.7232969.4175516-1.6299004.3417004-2.2737583-.1902345l-1.0702125-.8841756c-1.368805-1.1311807-2.9165981-2.0262755-4.5767709-2.6473742l-1.3-.484c-.7829174-.2914862-1.3021792-1.03889384-1.3021792-1.8743122v-3.148c0-.83083485-.6679761-1.5-1.493-1.5l-3.0077228-.00000985c-.8281222.00259918-1.4983372.67415733-1.4992772 1.50000985v3.147c0 .83442977-.5180515 1.581171-1.2996486 1.8733681l-1.2993544.4857585c-1.662833.6222969-3.2103195 1.5173881-4.578855 2.6484837-.0100292.0082891-.3667974.3027063-1.0703046.8832517z" fill="#e1dbf1"/><g transform="matrix(.96592583 .25881905 -.25881905 .96592583 19.298144 18.111726)"><circle cx="8.034981" cy="14.008422" fill="#fff" r="8"/><path d="m7.40192379 14.7679492c-4.418278 0-8-3.581722-8-8.00000001 0-4.418278 3.581722-8 8-8 4.41827801 0 8.00000001 3.581722 8.00000001 8 0 4.41827801-3.581722 8.00000001-8.00000001 8.00000001zm0-4c2.209139 0 4.00000001-1.79086101 4.00000001-4.00000001s-1.79086101-4-4.00000001-4-4 1.790861-4 4 1.790861 4.00000001 4 4.00000001z" fill="#6b4fbb"/></g></g><g fill-rule="nonzero" transform="matrix(.96592583 .25881905 -.25881905 .96592583 105.554821 120)"><path d="m9.82 8.53730769c1.3689728-1.14182851 2.9168384-2.04535668 4.58-2.67346154v-1.42153846c0-2.45296154 1.976-4.44230769 4.3944-4.44230769h2.4112c1.1663078.00042809 2.2846431.4687736 3.108822 1.30193769.8241789.8331641 1.2866393 1.9628481 1.285578 3.14037v1.42153846c1.6784.63242308 3.224 1.54269231 4.58 2.67346154l1.2224-.71238461c2.1028912-1.2239083 4.790203-.49883579 6.008 1.62103846l1.2056 2.10807696c.5827431 1.0200079.7401196 2.2320113.4374853 3.3692054s-1.0404707 2.1063567-2.0510853 2.6941407l-1.22.7115769c.1432.869077.2176 1.7607693.2176 2.6710385s-.0744 1.8019615-.2176 2.6710385l1.22.7107692c2.1016303 1.226698 2.8234195 3.9392915 1.6136 6.0641538l-1.2056 2.108077c-.5835325 1.0196185-1.5444935 1.7633085-2.671321 2.0673416s-2.3271394.1434833-3.336679-.4463032l-1.2224-.7123846c-1.3689728 1.1418285-2.9168384 2.0453567-4.58 2.6734615v1.4215385c0 2.4529615-1.976 4.4423077-4.3944 4.4423077h-2.4112c-1.1663078-.0004281-2.2846431-.4687736-3.108822-1.3019377s-1.2866393-1.9628481-1.285578-3.14037v-1.4215385c-1.6631616-.6281048-3.2110272-1.531633-4.58-2.6734615l-1.2224.7123846c-2.10289125 1.2239083-4.79020297.4988358-6.008-1.6210384l-1.2056-2.108077c-.5827431-1.0200079-.74011958-2.2320113-.43748531-3.3692054.30263428-1.1371941 1.04047069-2.1063567 2.05108531-2.6941407l1.22-.7115769c-.14519037-.8827864-.21797072-1.7761647-.2176-2.6710385 0-.9102692.0744-1.8019615.2176-2.6710385l-1.22-.7107692c-2.1016303-1.226698-2.82341953-3.9392915-1.6136-6.0641538l1.2056-2.10807696c.58353247-1.01961857 1.54449345-1.76330854 2.671321-2.06734163s2.32713943-.14348333 3.336679.44630317z" fill="#fff"/><path d="m14.0000007 5.6038043.0000006-1.16374821c.0029893-2.65530596 2.1390893-4.81626732 4.7943987-4.82467148h2.4112c2.6539941 0 4.7944 2.1648334 4.7944 4.82692308v1.16065037c1.5208716.60360148 2.9434678 1.43326042 4.2204219 2.46115476l.9765837-.56919178c2.2971853-1.33584575 5.2331242-.54486299 6.5639313 1.7658437l1.2062614 2.10923436c.6316426 1.1061821.8016557 2.4186945.4733763 3.650295-.3289464 1.2341028-1.1317756 2.2875794-2.2309207 2.9260099l-.9920818.5783388c.121512.8155189.1824279 1.6421166.1824279 2.4753572 0 .8329668-.060876 1.6588262-.1824599 2.4753391l.9938481.5793691c2.2830272 1.3339744 3.0652168 4.2685023 1.7551487 6.5764501l-1.2060801 2.1089159c-.635196 1.1094406-1.6836021 1.9203466-2.9151792 2.2521506-1.2341095.3324862-2.5488307.1560041-3.6497086-.487982l-.9763335-.5688381c-1.276582 1.0276149-2.6985549 1.8570406-4.2192362 2.460791l-.0000006 1.1637482c-.0029893 2.655306-2.1390893 4.8162673-4.7943987 4.8246715h-2.4112c-2.6539941 0-4.7944-2.1648334-4.7944-4.8269231v-1.1606504c-1.5208716-.6036014-2.9434678-1.4332604-4.22042185-2.4611547l-.97658373.5691918c-2.29718527 1.3358457-5.23312421.544863-6.56393129-1.7658437l-1.20626144-2.1092344c-.63164254-1.1061821-.80165569-2.4186945-.47337628-3.650295.32894638-1.2341028 1.1317756-2.2875794 2.23092065-2.9260099l.99208173-.5783387c-.12151192-.8155116-.18242777-1.6420345-.1824276-2.4744895-.00035951-.8285827.060617-1.655921.18254148-2.4761593l-.99392984-.5794167c-2.28302723-1.3339744-3.06521683-4.2685023-1.7551487-6.5764501l1.20608004-2.10891587c.63519598-1.10944064 1.68360216-1.92034664 2.91517921-2.25215062 1.23410949-.33248625 2.54883073-.15600409 3.64970859.487982l.97633089.56883656c1.27658464-1.02761332 2.69855754-1.85703902 4.21923884-2.46078947zm-2.7365261 6.4288191c-.6462416.5390379-1.5607773.6158792-2.28790557.1922348l-2.18782078-1.2746866c-.18020772-.1054165-.39268016-.1339378-.59247249-.080111-.20232477.0545091-.37690986.1895447-.48393889.3764824l-1.20241029 2.1024785c-.22807006.4017948-.09116539.9154179.29592736 1.1415976l2.1808 1.2713077c.71689235.4179158 1.10125309 1.2351089.96600117 2.0538244l-.18216988 1.1027194c-.11309859.6876403-.16978788 1.3835636-.16948523 2.0815294 0 .7031066.05662064 1.3978283.16925511 2.0801334l.1824 1.1041154c.13525192.8187155-.24910882 1.6359086-.96600117 2.0538244l-2.18352387 1.2728927c-.18440686.1071119-.3209686.2863089-.37764978.4989587-.05734814.2151521-.02759888.4448184.08125658.6354555l1.20257478 2.1028057c.22412206.3891445.70579373.5189135 1.08218208.3000395l2.184-1.272923c.72716167-.4238191 1.64184957-.3470384 2.28818087.1920743l.8562121.714177c1.0607638.8850444 2.2598 1.5851191 3.5460902 2.0709679l1.04.3917308c.7791812.2934896 1.2950231 1.0390102 1.2950231 1.8716323v2.5418077c0 .4630477.3597694.8269231.7944.8269231l2.4048624.00001c.437986-.0013879.8002195-.3678373.8007376-.8269331v-2.5418077c0-.8321246.5152346-1.5773088 1.2937506-1.8711525l1.0393506-.3922932c1.2877658-.4865662 2.4865649-1.1866383 3.5482794-2.0725829l.856-.7131923c.6462281-.5384169 1.5602747-.6149609 2.2870504-.1915219l2.1878207 1.2746866c.1802078.1054165.3926802.1339378.5924725.080111.2023248-.0545091.3769099-.1895447.4839389-.3764824l1.2024103-2.1024785c.2280701-.4017948.0911654-.9154179-.2959273-1.1415976l-2.1808-1.2713077c-.7168924-.4179158-1.1012531-1.2351089-.9660012-2.0538244l.1823082-1.1035595c.1127686-.6838156.1693469-1.3778434.1693469-2.0806893 0-.7031066-.0566206-1.3978283-.1692551-2.0801334l-.1824-1.1041154c-.1352519-.8187155.2491088-1.6359086.9660012-2.0538244l2.1835238-1.2728927c.1844069-.1071119.3209686-.2863089.3776498-.4989587.0573482-.2151521.0275989-.4448184-.0812566-.6354555l-1.2025748-2.1028057c-.224122-.3891445-.7057937-.5189135-1.082182-.3000395l-2.184 1.272923c-.7271617.4238191-1.6418496.3470384-2.2881809-.1920743l-.8562121-.714177c-1.0607638-.8850444-2.2598-1.58511908-3.5448167-2.07048875l-1.04-.39092308c-.7798467-.29313465-1.2962966-1.03899164-1.2962966-1.87211149v-2.54261539c0-.46304774-.3597694-.82692307-.7944-.82692307l-2.4048624-.00001005c-.437986.0013879-.8002195.36783731-.8007376.82693312v2.54180769c0 .83212461-.5152346 1.57730881-1.2937506 1.87115255l-1.0393506.3922932c-1.2877658.48656615-2.4865649 1.18663827-3.5471203 2.07161637-.0089691.0074842-.2944037.2452995-.8563039.7134459z" fill="#fee1d3"/><g transform="matrix(.96592583 .25881905 -.25881905 .96592583 15.461412 14.645624)"><ellipse cx="6.427985" cy="11.314494" fill="#fff" rx="6.4" ry="6.461538"/><path d="m5.92153903 11.9125743c-3.53806793 0-6.4-2.8894506-6.4-6.4461538s2.86193207-6.44615385 6.4-6.44615385 6.39999997 2.88945065 6.39999997 6.44615385-2.86193204 6.4461538-6.39999997 6.4461538zm0-3.19999995c1.76386567 0 3.2-1.44994332 3.2-3.24615385s-1.43613433-3.24615384-3.2-3.24615384c-1.76386566 0-3.2 1.44994331-3.2 3.24615384s1.43613434 3.24615385 3.2 3.24615385z" fill="#fc6d26"/></g></g><path d="m61.6792599 38.2517794 4.2010402 9.5824243c.4435057 1.0116207-.0170426 2.1912337-1.0286633 2.6347394-.1852035.0811953-.3816501.133833-.5826387.1561176l-8.4609905.9381119c-5.1325821 6.365019-12.9947839 10.4368274-21.8080076 10.4368274-15.463973 0-28-12.536027-28-28s12.536027-28 28-28 28 12.536027 28 28c0 1.4454567-.1095287 2.8653316-.3207394 4.251778z" fill="#000" fill-opacity=".03"/><path d="m63.6792599 34.2517794 4.2010402 9.5824243c.4435057 1.0116207-.0170426 2.1912337-1.0286633 2.6347394-.1852035.0811953-.3816501.133833-.5826387.1561176l-8.4609905.9381119c-5.1325821 6.365019-12.9947839 10.4368274-21.8080076 10.4368274-15.463973 0-28-12.536027-28-28s12.536027-28 28-28 28 12.536027 28 28c0 1.4454567-.1095287 2.8653316-.3207394 4.251778z" fill="#fff"/><g fill-rule="nonzero"><path d="m69.7120015 43.0311656c.8870113 2.0232415-.0340852 4.3824675-2.0573267 5.2694789-.370407.1623905-.7633002.2676659-1.1652773.3122351l-7.6580782.8490891c-5.6535456 6.6288406-13.9235236 10.5380313-22.8313193 10.5380313-16.5685425 0-30-13.4314575-30-30s13.4314575-30 30-30 30 13.4314575 30 30c0 1.335699-.0874149 2.6609639-.260573 3.9698636zm-8.0099298-9.0805918c.1978436-1.2987012.2979283-2.6179848.2979283-3.9505738 0-14.3594035-11.6405965-26-26-26s-26 11.6405965-26 26 11.6405965 26 26 26c7.969518 0 15.3430155-3.6056163 20.251122-9.6922585l.5173411-.6415651 9.2801357-1.0289347-4.2010395-9.5824257-.2328102-.5310318z" fill="#eee"/><g fill="#31af64" transform="translate(24 18)"><path d="m12.5 26.5c-7.7319865 0-14-6.2680135-14-14s6.2680135-14 14-14 14 6.2680135 14 14-6.2680135 14-14 14zm0-3c6.0751322 0 11-4.9248678 11-11 0-6.07513225-4.9248678-11-11-11-6.07513225 0-11 4.92486775-11 11 0 6.0751322 4.92486775 11 11 11z"/><path d="m11.18 13.81-1.932-1.932c-.57316757-.5725797-1.50183243-.5725797-2.075 0-.27590003.2745667-.43101163.6477601-.43101163 1.037s.1551116.7624333.43101163 1.037l2.875 2.874c.0156337.0163622.0316378.0323663.048.048.55.55 1.43.549 1.975.005l5.808-5.808c.2613709-.2624943.4076977-.6181078.4067599-.9885361-.0009378-.37042832-.1490633-.72529633-.4117599-.9864639-.2607729-.26343406-.6157868-.41207032-.9864607-.41300874-.370674-.00093841-.7264359.14589841-.9885393.40800874z"/></g></g></g></svg>