<svg xmlns="http://www.w3.org/2000/svg" viewBox="0 0 90 80" enable-background="new 0 0 90 80"><switch><g><path fill="#f9f9f9" d="m-150-237h274v665h-274z"/><g><g><path d="M20.253,79C18.459,79,17,77.541,17,75.747V4.253C17,2.459,18.459,1,20.253,1h49.494
					C71.541,1,73,2.459,73,4.253v71.494C73,77.541,71.541,79,69.747,79H20.253z" fill="#5ba2e8"/><path d="m69.75 2c1.242 0 2.253 1.01 2.253 2.253v71.49c0 1.242-1.01 2.253-2.253 2.253h-49.49c-1.242 0-2.253-1.01-2.253-2.253v-71.49c0-1.242 1.01-2.253 2.253-2.253h49.49m0-2h-49.49c-2.349 0-4.253 1.904-4.253 4.253v71.49c0 2.349 1.904 4.253 4.253 4.253h49.49c2.349 0 4.253-1.904 4.253-4.253v-71.49c0-2.349-1.904-4.253-4.253-4.253z" fill="#606060"/></g><g opacity=".1"><path fill="none" stroke="#fff" stroke-linejoin="round" stroke-linecap="round" stroke-width="4" stroke-miterlimit="10" d="m27 19h16"/><path fill="none" stroke="#fff" stroke-linejoin="round" stroke-linecap="round" stroke-width="4" stroke-miterlimit="10" d="m27 33h36"/><path fill="none" stroke="#fff" stroke-linejoin="round" stroke-linecap="round" stroke-width="4" stroke-miterlimit="10" d="m27 47h36"/><path fill="none" stroke="#fff" stroke-linejoin="round" stroke-linecap="round" stroke-width="4" stroke-miterlimit="10" d="m27 61h36"/></g><g><path fill="none" stroke="#fff" stroke-linejoin="round" stroke-linecap="round" stroke-width="2" stroke-miterlimit="10" d="m34.879 23.379h21v21"/><path fill="#fff" stroke="#fff" stroke-linejoin="round" stroke-linecap="round" stroke-width="2" stroke-miterlimit="10" d="m60.12 40.38l-4.241 4.241-4.243-4.241z"/><path fill="none" stroke="#fff" stroke-linejoin="round" stroke-linecap="round" stroke-width="2" stroke-miterlimit="10" d="m55.12 56.621h-21v-21"/><path fill="#fff" stroke="#fff" stroke-linejoin="round" stroke-linecap="round" stroke-width="2" stroke-miterlimit="10" d="m29.879 39.621l4.241-4.241 4.24 4.241z"/></g><g><circle cx="11" cy="19" r="10" fill="#43e6a3"/><path d="m11 10c4.963 0 9 4.04 9 9s-4.04 9-9 9-9-4.04-9-9 4.04-9 9-9m0-2c-6.075 0-11 4.925-11 11s4.925 11 11 11 11-4.925 11-11-4.925-11-11-11z" fill="#606060"/></g><path fill="none" fill-rule="evenodd" stroke="#606060" stroke-linejoin="round" stroke-linecap="round" stroke-width="1.706" stroke-miterlimit="10" d="m14.889 16.17l-5.657 5.658-2.121-2.121"/><g><circle cx="79" cy="61" r="10" fill="#43e6a3"/><path d="m79 52c4.963 0 9 4.04 9 9s-4.04 9-9 9-9-4.04-9-9 4.04-9 9-9m0-2c-6.075 0-11 4.925-11 11s4.925 11 11 11 11-4.925 11-11-4.925-11-11-11z" fill="#606060"/></g><path fill="none" fill-rule="evenodd" stroke="#606060" stroke-linejoin="round" stroke-linecap="round" stroke-width="1.706" stroke-miterlimit="10" d="m82.88 58.15l-5.62 5.689-2.14-2.108"/></g></g></switch></svg>