<svg xmlns="http://www.w3.org/2000/svg" viewBox="0 0 110 80" enable-background="new 0 0 110 80"><switch><g><path fill="#f9f9f9" d="m-140-28h274v665h-274z"/><g><g><path d="M30.253,79C28.459,79,27,77.541,27,75.747V4.253C27,2.459,28.459,1,30.253,1h49.494
					C81.541,1,83,2.459,83,4.253v71.494C83,77.541,81.541,79,79.747,79H30.253z" fill="#5ba2e8"/><path d="m79.75 2c1.242 0 2.253 1.01 2.253 2.253v71.49c0 1.242-1.01 2.253-2.253 2.253h-49.49c-1.242 0-2.253-1.01-2.253-2.253v-71.49c0-1.242 1.01-2.253 2.253-2.253h49.49m0-2h-49.49c-2.349 0-4.253 1.904-4.253 4.253v71.49c0 2.349 1.904 4.253 4.253 4.253h49.49c2.349 0 4.253-1.904 4.253-4.253v-71.49c0-2.349-1.904-4.253-4.253-4.253z" fill="#606060"/></g><g><path fill="none" stroke="#fff" stroke-linejoin="round" stroke-linecap="round" stroke-width="4" stroke-miterlimit="10" d="m37 19h16"/><path fill="none" stroke="#fff" stroke-linejoin="round" stroke-linecap="round" stroke-width="4" stroke-miterlimit="10" d="m37 33h36"/><path fill="none" stroke="#fff" stroke-linejoin="round" stroke-linecap="round" stroke-width="4" stroke-miterlimit="10" d="m37 47h36"/><path fill="none" stroke="#fff" stroke-linejoin="round" stroke-linecap="round" stroke-width="4" stroke-miterlimit="10" d="m37 61h36"/></g><path fill="none" stroke="#5e09cc" stroke-linejoin="round" stroke-linecap="round" stroke-miterlimit="10" d="m32 27.5v10"/><path fill="none" stroke="#fcbc4b" stroke-linejoin="round" stroke-linecap="round" stroke-miterlimit="10" d="m78 42v10"/><path fill="none" stroke="#43e6a3" stroke-linejoin="round" stroke-linecap="round" stroke-miterlimit="10" d="m32 55.5v10"/><path d="m32 25h-30c-1.105 0-2-.895-2-2v-10c0-1.105.895-2 2-2h28c1.105 0 2 .895 2 2v12" fill="#606060"/><g><path d="m6.833 21.12c-.46 0-.849-.094-1.165-.28-.317-.187-.579-.463-.785-.83l.8-.59c.133.24.286.415.46.525.173.109.36.165.56.165.307 0 .537-.094.69-.28s.23-.514.23-.98v-4.39h1.159v4.49c0 .3-.036.581-.109.845s-.19.493-.351.69c-.16.196-.363.352-.609.465-.247.113-.54.17-.88.17" fill="#fff"/><path d="m12.369 21.12c-.307 0-.601-.057-.88-.17-.28-.113-.528-.28-.745-.5s-.389-.49-.516-.811c-.126-.319-.189-.683-.189-1.09 0-.406.063-.77.189-1.09.127-.32.299-.59.516-.81.217-.221.465-.389.745-.506.279-.116.573-.175.88-.175s.602.059.885.175c.283.117.531.285.745.506.213.22.385.489.515.81s.195.684.195 1.09c0 .407-.065.771-.195 1.09-.13.32-.302.591-.515.811-.214.22-.462.387-.745.5s-.578.17-.885.17m0-.94c.359 0 .643-.148.85-.444.207-.297.311-.692.311-1.186 0-.5-.104-.898-.311-1.194-.207-.297-.49-.445-.85-.445-.36 0-.642.148-.846.445-.203.296-.305.694-.305 1.194 0 .493.102.889.305 1.186.205.295.486.444.846.444" fill="#fff"/><path d="m15.884 21v-7.06h1.149v1.819l-.04.95c.207-.193.436-.365.686-.515.25-.15.545-.226.885-.226.526 0 .91.169 1.149.505.24.337.36.818.36 1.445v3.082h-1.15v-2.93c0-.407-.06-.693-.18-.86s-.316-.25-.59-.25c-.214 0-.401.052-.565.155-.163.104-.348.255-.555.455v3.43h-1.149" fill="#fff"/><path d="m21.489 21v-4.91h.949l.08.66h.04c.22-.213.458-.396.715-.55s.556-.23.896-.23c.526 0 .91.169 1.149.505.24.337.36.818.36 1.445v3.08h-1.15v-2.93c0-.407-.06-.693-.18-.86s-.316-.25-.59-.25c-.214 0-.401.052-.565.155-.163.104-.348.255-.555.455v3.43h-1.149" fill="#fff"/></g><path d="m32 53h-30c-1.105 0-2-.895-2-2v-10c0-1.105.895-2 2-2h28c1.105 0 2 .895 2 2v12" fill="#606060"/><g><path d="m5.493 49v-6.54h3.939v.98h-2.779v1.67h2.35v.979h-2.35v1.93h2.88v.981h-4.04" fill="#fff"/><path d="m10.712 49v-4.91h.949l.08.87h.04c.174-.32.384-.565.63-.735.247-.17.5-.255.761-.255.232 0 .42.034.56.101l-.2 1c-.087-.027-.167-.047-.24-.061-.073-.013-.163-.02-.27-.02-.193 0-.396.075-.61.225-.213.15-.396.412-.55.785v3h-1.15" fill="#fff"/><path d="m15.15 43.23c-.206 0-.376-.061-.51-.181-.133-.12-.2-.276-.2-.47s.067-.352.2-.475c.134-.124.304-.186.51-.186.207 0 .377.062.511.186.133.123.199.281.199.475s-.066.35-.199.47c-.134.121-.304.181-.511.181m-.579 5.77v-4.91h1.149v4.91h-1.149" fill="#fff"/><path d="m19.269 49.12c-.334 0-.646-.057-.936-.17s-.541-.28-.755-.5c-.213-.22-.38-.49-.5-.811-.12-.319-.18-.683-.18-1.09 0-.406.066-.77.2-1.09.133-.32.312-.59.54-.81.227-.221.488-.389.784-.506.297-.116.608-.175.936-.175.32 0 .595.054.825.16.229.106.435.237.614.39l-.56.75c-.134-.113-.265-.201-.395-.265-.131-.063-.272-.095-.426-.095-.399 0-.723.148-.97.445-.247.296-.37.694-.37 1.194 0 .493.122.889.365 1.186.243.296.559.444.945.444.193 0 .375-.041.545-.125.17-.083.324-.182.465-.295l.47.76c-.233.2-.488.351-.765.45-.275.103-.553.153-.832.153" fill="#fff"/><path d="m23.1 49.12c-.434 0-.783-.132-1.05-.396-.267-.263-.4-.611-.4-1.045 0-.26.056-.491.165-.694.11-.204.283-.379.521-.525.236-.146.536-.27.899-.37.363-.1.799-.177 1.306-.229-.007-.127-.025-.249-.056-.365-.029-.116-.08-.22-.149-.311-.07-.09-.162-.159-.275-.21-.113-.05-.253-.074-.42-.074-.24 0-.475.046-.705.14-.229.094-.455.207-.675.34l-.42-.77c.273-.174.58-.323.92-.45s.706-.19 1.1-.19c.613 0 1.072.182 1.375.545.304.364.455.889.455 1.575v2.909h-.95l-.079-.54h-.04c-.221.187-.455.344-.705.47-.252.127-.524.19-.817.19m.37-.9c.2 0 .382-.046.545-.14s.338-.227.525-.4v-1.1c-.334.04-.614.094-.841.16s-.409.142-.55.225c-.14.084-.239.179-.3.285-.06.106-.09.22-.09.34 0 .22.066.38.2.48.134.1.304.15.511.15" fill="#fff"/></g><path d="m78 40h30c1.105 0 2-.895 2-2v-10c0-1.105-.895-2-2-2h-28c-1.105 0-2 .895-2 2v12" fill="#606060"/><g><path d="m82.81 36v-6.54h3.939v.98h-2.779v1.67h2.35v.979h-2.35v1.93h2.88v.981h-4.04" fill="#fff"/><path d="m88.03 36v-4.91h.949l.08.67h.04c.207-.22.432-.406.675-.56.244-.153.519-.23.825-.23.36 0 .648.077.865.23s.382.37.495.649c.233-.253.477-.463.729-.63.254-.166.537-.25.851-.25.52 0 .903.169 1.149.505.247.337.37.818.37 1.445v3.081h-1.16v-2.93c0-.407-.062-.693-.185-.86s-.312-.25-.565-.25c-.307 0-.649.203-1.029.61v3.43h-1.15v-2.93c0-.407-.062-.693-.185-.86-.124-.167-.315-.25-.575-.25-.307 0-.65.203-1.03.61v3.43h-1.149" fill="#fff"/><path d="m97.04 30.23c-.206 0-.376-.061-.51-.181-.133-.12-.2-.276-.2-.47s.067-.352.2-.475c.134-.124.304-.186.51-.186.207 0 .377.062.511.186.133.123.199.281.199.475s-.066.35-.199.47c-.134.121-.304.181-.511.181m-.579 5.77v-4.91h1.149v4.91h-1.149" fill="#fff"/><path d="m100.2 36.12c-.413 0-.703-.123-.869-.37-.167-.246-.25-.583-.25-1.01v-5.8h1.149v5.86c0 .141.026.238.08.295s.11.085.17.085c.026 0 .052 0 .075 0s.059-.006.104-.02l.15.859c-.152.068-.355.101-.609.101" fill="#fff"/><path d="m102.13 38.02c-.133 0-.25-.008-.35-.024s-.196-.042-.29-.075l.21-.9c.047.014.102.028.165.046.063.017.125.024.186.024.26 0 .468-.078.625-.234.156-.157.274-.359.354-.605l.09-.31-1.93-4.851h1.17l.85 2.41c.073.214.146.438.216.675.069.237.141.472.215.705h.04c.06-.227.121-.458.185-.695.063-.236.125-.465.186-.685l.739-2.41h1.11l-1.78 5.13c-.1.28-.21.53-.33.75-.12.221-.258.408-.415.565-.156.156-.336.276-.54.359-.204.084-.44.125-.706.125" fill="#fff"/></g></g></g></switch></svg>