<svg xmlns="http://www.w3.org/2000/svg" viewBox="0 0 76 80" enable-background="new 0 0 76 80"><switch><g><path fill="#f9f9f9" d="m-157-350h274v665h-274z"/><g><g><path d="M13.253,79C11.459,79,10,77.541,10,75.747V4.253C10,2.459,11.459,1,13.253,1h49.494
					C64.541,1,66,2.459,66,4.253v71.494C66,77.541,64.541,79,62.747,79H13.253z" fill="#5ba2e8"/><path d="m62.747 2c1.242 0 2.253 1.01 2.253 2.253v71.49c0 1.242-1.01 2.253-2.253 2.253h-49.49c-1.242 0-2.253-1.01-2.253-2.253v-71.49c0-1.242 1.01-2.253 2.253-2.253h49.49m0-2h-49.49c-2.349 0-4.253 1.904-4.253 4.253v71.49c0 2.349 1.904 4.253 4.253 4.253h49.49c2.349 0 4.253-1.904 4.253-4.253v-71.49c0-2.349-1.904-4.253-4.253-4.253z" fill="#606060"/></g><g opacity=".1"><path fill="none" stroke="#fff" stroke-linejoin="round" stroke-linecap="round" stroke-width="4" stroke-miterlimit="10" d="m20 19h16"/><path fill="none" stroke="#fff" stroke-linejoin="round" stroke-linecap="round" stroke-width="4" stroke-miterlimit="10" d="m20 33h36"/><path fill="none" stroke="#fff" stroke-linejoin="round" stroke-linecap="round" stroke-width="4" stroke-miterlimit="10" d="m20 47h36"/><path fill="none" stroke="#fff" stroke-linejoin="round" stroke-linecap="round" stroke-width="4" stroke-miterlimit="10" d="m20 61h36"/></g><g><g><path d="m13.03 22.772c-.186-.175-.431-.272-.686-.272h-8.348c-1.654 0-3-1.346-3-3v-8c0-1.654 1.346-3 3-3h15c1.654 0 3 1.346 3 3v8c0 1.654-1.346 3-3 3h-1.349c-.255 0-.5.098-.686.272l-1.965 1.854-1.966-1.854" fill="#fff"/><path d="m19 9.5c1.103 0 2 .897 2 2v8c0 1.103-.897 2-2 2h-1.348c-.51 0-1 .195-1.372.545l-1.28 1.206-1.28-1.206c-.371-.35-.862-.545-1.372-.545h-8.348c-1.103 0-2-.897-2-2v-8c0-1.103.897-2 2-2h15m0-2h-15c-2.209 0-4 1.791-4 4v8c0 2.209 1.791 4 4 4h8.348l2.652 2.5 2.652-2.5h1.348c2.209 0 4-1.791 4-4v-8c0-2.209-1.791-4-4-4z" fill="#606060"/></g><g><circle cx="6.5" cy="15.5" r=".5" fill="#fff"/><path d="m6.5 14c-.828 0-1.5.672-1.5 1.5s.672 1.5 1.5 1.5 1.5-.672 1.5-1.5-.672-1.5-1.5-1.5" fill="#606060"/></g><g><circle cx="11.5" cy="15.5" r=".5" fill="#fff"/><path d="m11.5 14c-.828 0-1.5.672-1.5 1.5s.672 1.5 1.5 1.5 1.5-.672 1.5-1.5-.672-1.5-1.5-1.5" fill="#606060"/></g><g><circle cx="16.5" cy="15.5" r=".5" fill="#fff"/><path d="m16.5 14c-.828 0-1.5.672-1.5 1.5s.672 1.5 1.5 1.5 1.5-.672 1.5-1.5-.672-1.5-1.5-1.5" fill="#606060"/></g></g><g><g><path d="m59.03 41.772c-.186-.175-.431-.272-.686-.272h-1.348c-1.654 0-3-1.346-3-3v-8c0-1.654 1.346-3 3-3h15c1.654 0 3 1.346 3 3v8c0 1.654-1.346 3-3 3h-8.349c-.255 0-.5.098-.686.272l-1.965 1.854-1.966-1.854" fill="#fff"/><path d="m72 28.5c1.103 0 2 .897 2 2v8c0 1.103-.897 2-2 2h-8.348c-.51 0-1 .195-1.372.545l-1.28 1.206-1.28-1.206c-.371-.35-.862-.545-1.372-.545h-1.348c-1.103 0-2-.897-2-2v-8c0-1.103.897-2 2-2h15m0-2h-15c-2.209 0-4 1.791-4 4v8c0 2.209 1.791 4 4 4h1.348l2.652 2.5 2.652-2.5h8.348c2.209 0 4-1.791 4-4v-8c0-2.209-1.791-4-4-4z" fill="#606060"/></g><path fill="none" stroke="#606060" stroke-linejoin="round" stroke-linecap="round" stroke-width="2" stroke-miterlimit="10" d="m59 33h11"/><path fill="none" stroke="#606060" stroke-linejoin="round" stroke-linecap="round" stroke-width="2" stroke-miterlimit="10" d="m59 36h7"/></g><g><g><path d="m26.03 67.772c-.186-.175-.431-.272-.686-.272h-8.348c-1.654 0-3-1.346-3-3v-8c0-1.654 1.346-3 3-3h15c1.654 0 3 1.346 3 3v8c0 1.654-1.346 3-3 3h-1.349c-.255 0-.5.098-.686.272l-1.965 1.854-1.966-1.854" fill="#fff"/><path d="m32 54.5c1.103 0 2 .897 2 2v8c0 1.103-.897 2-2 2h-1.348c-.51 0-1 .195-1.372.545l-1.28 1.206-1.28-1.206c-.371-.35-.862-.545-1.372-.545h-8.348c-1.103 0-2-.897-2-2v-8c0-1.103.897-2 2-2h15m0-2h-15c-2.209 0-4 1.791-4 4v8c0 2.209 1.791 4 4 4h8.348l2.652 2.5 2.652-2.5h1.348c2.209 0 4-1.791 4-4v-8c0-2.209-1.791-4-4-4z" fill="#606060"/></g><path fill="none" stroke="#606060" stroke-linejoin="round" stroke-linecap="round" stroke-width="2" stroke-miterlimit="10" d="m30 59h-11"/><path fill="none" stroke="#606060" stroke-linejoin="round" stroke-linecap="round" stroke-width="2" stroke-miterlimit="10" d="m26 62h-7"/></g></g></g></switch></svg>