<svg xmlns="http://www.w3.org/2000/svg" viewBox="0 0 58 80" enable-background="new 0 0 58 80"><switch><g><path fill="#f9f9f9" d="m-53-350h274v665h-274z"/><g><g><path d="M4.253,79C2.459,79,1,77.541,1,75.747V4.253C1,2.459,2.459,1,4.253,1h49.494C55.541,1,57,2.459,57,4.253
					v71.494C57,77.541,55.541,79,53.747,79H4.253z" fill="#fff"/><path d="M53.747,2C54.989,2,56,3.011,56,4.253v71.494C56,76.989,54.989,78,53.747,78H4.253
					C3.011,78,2,76.989,2,75.747V4.253C2,3.011,3.011,2,4.253,2H53.747 M53.747,0H4.253C1.904,0,0,1.904,0,4.253v71.494
					C0,78.096,1.904,80,4.253,80h49.494C56.096,80,58,78.096,58,75.747V4.253C58,1.904,56.096,0,53.747,0L53.747,0z" fill="#606060"/></g><g opacity=".36"><path fill="none" stroke="#5ba2e8" stroke-linejoin="round" stroke-linecap="round" stroke-width="4" stroke-miterlimit="10" d="m11 19h16"/><path fill="none" stroke="#5ba2e8" stroke-linejoin="round" stroke-linecap="round" stroke-width="4" stroke-miterlimit="10" d="m11 33h36"/><path fill="none" stroke="#5ba2e8" stroke-linejoin="round" stroke-linecap="round" stroke-width="4" stroke-miterlimit="10" d="m11 47h36"/><path fill="none" stroke="#5ba2e8" stroke-linejoin="round" stroke-linecap="round" stroke-width="4" stroke-miterlimit="10" d="m11 61h36"/></g><g><circle cx="29" cy="40" r="17" fill="#fff"/><path d="m29 24c8.822 0 16 7.177 16 16s-7.178 16-16 16-16-7.177-16-16 7.178-16 16-16m0-2c-9.941 0-18 8.06-18 18s8.06 18 18 18 18-8.06 18-18-8.06-18-18-18z" fill="#606060"/></g><path fill="none" stroke="#606060" stroke-linejoin="round" stroke-linecap="round" stroke-width="2.066" stroke-miterlimit="10" d="m33 40h-4v-8"/></g></g></switch></svg>