<svg xmlns="http://www.w3.org/2000/svg" viewBox="0 0 80 80" enable-background="new 0 0 80 80"><switch><g><path fill="#f9f9f9" d="m-42-132h274v665h-274z"/><g><g><g><path d="M2.649,49C1.74,49,1,48.26,1,47.351V2.649C1,1.74,1.74,1,2.649,1h30.701C34.26,1,35,1.74,35,2.649v44.701
						C35,48.26,34.26,49,33.351,49H2.649z" fill="#fff"/><path d="m33.35 2c.358 0 .649.291.649.649v44.702c0 .358-.291.649-.649.649h-30.702c-.358 0-.649-.291-.649-.649v-44.702c0-.358.291-.649.649-.649h30.702m0-2h-30.702c-1.463 0-2.649 1.186-2.649 2.649v44.702c0 1.463 1.186 2.649 2.649 2.649h30.702c1.463 0 2.649-1.186 2.649-2.649v-44.702c0-1.463-1.186-2.649-2.649-2.649z" fill="#606060"/></g><path fill="none" stroke="#5ba2e8" stroke-linejoin="round" stroke-linecap="round" stroke-width="2.5" stroke-miterlimit="10" d="m7.125 13h10"/><path fill="none" stroke="#5ba2e8" stroke-linejoin="round" stroke-linecap="round" stroke-width="2.472" stroke-miterlimit="10" d="m7.125 21h22"/><path fill="none" stroke="#5ba2e8" stroke-linejoin="round" stroke-linecap="round" stroke-width="2.472" stroke-miterlimit="10" d="m7.125 29h22"/><path fill="none" stroke="#5ba2e8" stroke-linejoin="round" stroke-linecap="round" stroke-width="2.472" stroke-miterlimit="10" d="m7.125 37h22"/></g><g><g><path d="m24.649 64c-.909 0-1.649-.74-1.649-1.649v-44.702c0-.909.74-1.649 1.649-1.649h30.701c.91 0 1.65.74 1.65 1.649v44.701c0 .91-.74 1.65-1.649 1.65h-30.702" fill="#fff"/><path d="m55.35 17c.358 0 .649.291.649.649v44.702c0 .358-.291.649-.649.649h-30.702c-.358 0-.649-.291-.649-.649v-44.702c0-.358.291-.649.649-.649h30.702m0-2h-30.702c-1.463 0-2.649 1.186-2.649 2.649v44.702c0 1.463 1.186 2.649 2.649 2.649h30.702c1.463 0 2.649-1.186 2.649-2.649v-44.702c0-1.463-1.186-2.649-2.649-2.649z" fill="#606060"/></g><path fill="none" stroke="#5ba2e8" stroke-linejoin="round" stroke-linecap="round" stroke-width="2.5" stroke-miterlimit="10" d="m29.13 28h10"/><path fill="none" stroke="#5ba2e8" stroke-linejoin="round" stroke-linecap="round" stroke-width="2.472" stroke-miterlimit="10" d="m29.13 36h22"/><path fill="none" stroke="#5ba2e8" stroke-linejoin="round" stroke-linecap="round" stroke-width="2.472" stroke-miterlimit="10" d="m29.13 44h22"/><path fill="none" stroke="#5ba2e8" stroke-linejoin="round" stroke-linecap="round" stroke-width="2.472" stroke-miterlimit="10" d="m29.13 52h22"/></g><g><g><path d="m46.649 79c-.909 0-1.649-.74-1.649-1.649v-44.702c0-.909.74-1.649 1.649-1.649h30.701c.91 0 1.65.74 1.65 1.649v44.701c0 .91-.74 1.65-1.649 1.65h-30.702" fill="#fff"/><path d="m77.35 32c.358 0 .649.291.649.649v44.702c0 .358-.291.649-.649.649h-30.702c-.358 0-.649-.291-.649-.649v-44.702c0-.358.291-.649.649-.649h30.702m0-2h-30.702c-1.463 0-2.649 1.186-2.649 2.649v44.702c0 1.463 1.186 2.649 2.649 2.649h30.702c1.463 0 2.649-1.186 2.649-2.649v-44.702c0-1.463-1.186-2.649-2.649-2.649z" fill="#606060"/></g><path fill="none" stroke="#5ba2e8" stroke-linejoin="round" stroke-linecap="round" stroke-width="2.5" stroke-miterlimit="10" d="m51.13 43h10"/><path fill="none" stroke="#5ba2e8" stroke-linejoin="round" stroke-linecap="round" stroke-width="2.472" stroke-miterlimit="10" d="m51.13 51h22"/><path fill="none" stroke="#5ba2e8" stroke-linejoin="round" stroke-linecap="round" stroke-width="2.472" stroke-miterlimit="10" d="m51.13 59h22"/><path fill="none" stroke="#5ba2e8" stroke-linejoin="round" stroke-linecap="round" stroke-width="2.472" stroke-miterlimit="10" d="m51.13 67h22"/></g></g></g></switch></svg>