<svg enable-background="new 0 0 102 80" viewBox="0 0 102 80" xmlns="http://www.w3.org/2000/svg"><switch><g><path d="m-31-237h274v665h-274z" fill="#f9f9f9"/><path d="m13.649 49c-.909 0-1.649-.74-1.649-1.649v-44.702c0-.909.74-1.649 1.649-1.649h30.701c.91 0 1.65.74 1.65 1.649v44.701c0 .91-.74 1.65-1.649 1.65z" fill="#fff"/><path d="m44.35 2c.358 0 .649.291.649.649v44.702c0 .358-.291.649-.649.649h-30.702c-.358 0-.649-.291-.649-.649v-44.702c0-.358.291-.649.649-.649zm0-2h-30.702c-1.463 0-2.649 1.186-2.649 2.649v44.702c0 1.463 1.186 2.649 2.649 2.649h30.702c1.463 0 2.649-1.186 2.649-2.649v-44.702c0-1.463-1.186-2.649-2.649-2.649z" fill="#606060"/><path d="m18.13 13h10" style="fill:none;stroke:#5ba2e8;stroke-linejoin:round;stroke-linecap:round;stroke-width:2.5;stroke-miterlimit:10"/><path d="m18.13 21h22" style="fill:none;stroke:#5ba2e8;stroke-linejoin:round;stroke-linecap:round;stroke-width:2.472;stroke-miterlimit:10"/><path d="m18.13 29h22" style="fill:none;stroke:#5ba2e8;stroke-linejoin:round;stroke-linecap:round;stroke-width:2.472;stroke-miterlimit:10"/><path d="m18.13 37h22" style="fill:none;stroke:#5ba2e8;stroke-linejoin:round;stroke-linecap:round;stroke-width:2.472;stroke-miterlimit:10"/><path d="m57.649 79c-.909 0-1.649-.74-1.649-1.649v-44.702c0-.909.74-1.649 1.649-1.649h30.701c.91 0 1.65.74 1.65 1.649v44.701c0 .91-.74 1.65-1.649 1.65z" fill="#fff"/><path d="m88.35 32c.358 0 .649.291.649.649v44.702c0 .358-.291.649-.649.649h-30.702c-.358 0-.649-.291-.649-.649v-44.702c0-.358.291-.649.649-.649zm0-2h-30.702c-1.463 0-2.649 1.186-2.649 2.649v44.702c0 1.463 1.186 2.649 2.649 2.649h30.702c1.463 0 2.649-1.186 2.649-2.649v-44.702c0-1.463-1.186-2.649-2.649-2.649z" fill="#606060"/><g stroke-linecap="round" stroke-linejoin="round" stroke-miterlimit="10"><path d="m62.13 43h10" fill="none" stroke="#5ba2e8" stroke-width="2.5"/><path d="m62.13 51h22" fill="none" stroke="#5ba2e8" stroke-width="2.472"/><path d="m62.13 59h22" fill="none" stroke="#5ba2e8" stroke-width="2.472"/><path d="m62.13 67h22" fill="none" stroke="#5ba2e8" stroke-width="2.472"/><path d="m52 14h21v11" fill="none" stroke="#606060" stroke-width="2"/><path d="m77.24 21-4.24 4.24-4.243-4.24z" fill="#606060" stroke="#606060" stroke-width="2"/><path d="m50 66h-21v-11" fill="none" stroke="#606060" stroke-width="2"/><path d="m25 59 4-4 4 4z" fill="#606060" stroke="#606060" stroke-width="2"/></g><circle cx="11" cy="69" fill="#f75b24" r="10"/><path d="m11 60c4.963 0 9 4.04 9 9s-4.04 9-9 9-9-4.04-9-9 4.04-9 9-9m0-2c-6.075 0-11 4.925-11 11s4.925 11 11 11 11-4.925 11-11-4.925-11-11-11z" fill="#606060"/><path d="m11 71c-.553 0-1-.447-1-1v-6c0-.553.447-1 1-1s1 .447 1 1v6c0 .553-.447 1-1 1" fill="#fff"/><path d="m11 75.5c-.4 0-.78-.16-1.061-.44-.14-.14-.25-.3-.33-.49-.069-.18-.109-.37-.109-.57 0-.101.01-.2.029-.29.021-.101.051-.19.08-.28.04-.09.091-.18.141-.26.06-.09.12-.16.189-.23.551-.56 1.57-.56 2.12 0 .07.07.13.141.19.23.05.08.1.17.13.26.04.09.07.18.09.28.021.09.031.189.031.29 0 .2-.04.39-.11.569-.08.19-.189.351-.33.49-.29.281-.661.441-1.06.441" fill="#fff"/><circle cx="91" cy="11" fill="#f75b24" r="10"/><path d="m91 2c4.963 0 9 4.04 9 9s-4.04 9-9 9-9-4.04-9-9 4.04-9 9-9m0-2c-6.075 0-11 4.925-11 11s4.925 11 11 11 11-4.925 11-11-4.925-11-11-11z" fill="#606060"/><path d="m91 13c-.553 0-1-.447-1-1v-6c0-.553.447-1 1-1s1 .447 1 1v6c0 .553-.447 1-1 1" fill="#fff"/><path d="m91 17.5c-.2 0-.391-.04-.58-.11-.18-.08-.34-.189-.48-.33-.14-.14-.25-.3-.33-.49-.07-.18-.11-.37-.11-.57 0-.391.16-.78.439-1.061.07-.069.141-.13.23-.189.08-.05.17-.101.26-.141.09-.029.18-.06.28-.08.479-.1 1 .061 1.35.41.28.28.44.67.44 1.061 0 .399-.16.779-.44 1.06-.14.141-.3.25-.49.33-.179.07-.369.11-.569.11" fill="#fff"/></g></switch></svg>