<svg xmlns="http://www.w3.org/2000/svg" viewBox="0 0 676 248" enable-background="new 0 0 676 248"><switch><g><g><path d="m363.31 106.42c-2.633-2.444-6.751-2.292-9.195.345l-16.768 18.07-4.471-4.03c-2.671-2.404-6.787-2.19-9.191.477-2.406 2.671-2.192 6.785.477 9.191l9.235 8.322c.173.156.364.273.548.407.139.102.269.219.414.308.191.117.393.199.592.294.164.079.322.175.491.238.225.086.458.136.689.195.151.038.298.096.451.124.387.071.778.107 1.17.107.441 0 .881-.046 1.313-.135.158-.032.308-.1.463-.144.27-.076.543-.142.803-.254.189-.082.361-.202.543-.302.212-.117.431-.216.632-.358.185-.131.347-.303.52-.455.166-.145.345-.269.498-.434l.06-.065c.001-.001.003-.002.004-.003.001-.001.002-.002.003-.003l21.06-22.704c2.443-2.632 2.289-6.75-.346-9.194z" fill="#fc6d26" stroke="#251b3f" stroke-linejoin="round" stroke-linecap="round" stroke-width="8" stroke-miterlimit="10"/><path fill="none" stroke="#251b3f" stroke-linejoin="round" stroke-linecap="round" stroke-width="8.85" stroke-miterlimit="10" d="m327.27 29.18l-13.3 20.94 20.94 13.3"/><path d="m319.33 48.46c7.667-2.519 15.859-3.882 24.37-3.882 43.08 0 78 34.922 78 78s-34.922 78-78 78h-112" fill="none" stroke="#251b3f" stroke-linejoin="round" stroke-linecap="round" stroke-width="8.85" stroke-miterlimit="10"/><path fill="none" stroke="#251b3f" stroke-linejoin="round" stroke-linecap="round" stroke-width="8.85" stroke-miterlimit="10" d="m468.7 200.58h-56"/><path d="m285.77 174.81c-12.476-13.827-20.07-32.14-20.07-52.23 0-23.844 10.699-45.19 27.557-59.5" fill="none" stroke="#251b3f" stroke-linejoin="round" stroke-linecap="round" stroke-width="8.85" stroke-miterlimit="10"/><path fill="none" stroke="#251b3f" stroke-linejoin="round" stroke-linecap="round" stroke-width="8.85" stroke-miterlimit="10" d="m196.7 185.58h30v30h-30z"/><path fill="none" stroke="#251b3f" stroke-linejoin="round" stroke-linecap="round" stroke-width="8.85" stroke-miterlimit="10" d="m461.76 218.82l17.54-17.54-17.54-17.54"/></g><g><path opacity=".3" fill="none" stroke="#000" stroke-linejoin="round" stroke-linecap="round" stroke-width="8" stroke-miterlimit="10" d="m522.09 41.13l-17.8-11.13 17.8-11.129"/><path opacity=".3" fill="none" stroke="#000" stroke-linejoin="round" stroke-linecap="round" stroke-width="8" stroke-miterlimit="10" d="M567.07 18.871 584.88 30 567.07 41.13"/><path fill="none" stroke="#251b3f" stroke-linejoin="round" stroke-linecap="round" stroke-width="8.85" stroke-miterlimit="10" d="m537.29 54.48l15.581-48.966"/></g><path fill="#e24329" stroke="#251b3f" stroke-linejoin="round" stroke-linecap="round" stroke-width="8" stroke-miterlimit="10" d="m545.92 204.64h14.76"/><path opacity=".3" fill="none" stroke="#000" stroke-linejoin="round" stroke-linecap="round" stroke-width="8" stroke-miterlimit="10" d="m578.16 204.64h47.09"/><path fill="none" stroke="#fc6d26" stroke-linejoin="round" stroke-linecap="round" stroke-width="8" stroke-miterlimit="10" d="m578.56 233.36h91.52"/><path opacity=".3" fill="none" stroke="#000" stroke-linejoin="round" stroke-linecap="round" stroke-width="8" stroke-miterlimit="10" d="m3.88 105.28h171.52"/><path fill="none" stroke="#251b3f" stroke-linejoin="round" stroke-linecap="round" stroke-width="8" stroke-miterlimit="10" d="m52.8 134.72h16.32"/><path fill="none" stroke="#fc6d26" stroke-linejoin="round" stroke-linecap="round" stroke-width="8" stroke-miterlimit="10" d="m165.8 134.72h32.32"/><path fill="none" stroke="#fca326" stroke-linejoin="round" stroke-linecap="round" stroke-width="8" stroke-miterlimit="10" d="m86.8 134.72h61.32"/></g></switch></svg>