<svg enable-background="new 0 0 676 248" viewBox="0 0 676 248" xmlns="http://www.w3.org/2000/svg"><switch><g><g stroke-linecap="round" stroke-linejoin="round" stroke-miterlimit="10" stroke-width="8"><path d="m335.48 216.15c-16.403-11.12-34.792-25.316-46.851-36.16-16.15-14.535-17.431-23.62-17.431-33.989v-93.25l66.801-24.409 66.801 24.409v93.25c0 10.37-1.285 19.457-17.433 33.989-12.06 10.847-30.451 25.04-46.849 36.16l-2.519 1.709-2.519-1.71z" fill="none" stroke="#251b3f"/><path d="m338 14-80.27 29.333v102.67c0 15.16 3.788 27.708 21.892 44 13.749 12.37 34.72 28.351 52.21 39.918 2.056 1.359 4.115 2.722 6.168 4.082 2.038-1.354 4.076-2.704 6.12-4.051 17.511-11.576 38.494-27.57 52.26-39.949 18.11-16.292 21.892-28.848 21.892-44v-102.67l-80.27-29.333zm66.801 132c0 10.369-1.285 19.457-17.433 33.989-12.06 10.847-30.451 25.04-46.849 36.16l-2.519 1.709-2.519-1.71c-16.403-11.122-34.792-25.317-46.851-36.16-16.15-14.535-17.431-23.62-17.431-33.989v-93.25l66.801-24.408 66.801 24.409z" fill="#fca326" stroke="#251b3f"/><g fill="none" opacity=".3" stroke="#000"><path d="m289.98 58.898h98.78"/><path d="m337.13 40.939h4.49"/><path d="m369.43 76.857h20.2"/><path d="m286.37 76.857h20.2"/><path d="m380.65 94.82h8.98"/><path d="m286.37 94.82h8.98"/><path d="m380.65 112.78h8.98"/><path d="m286.37 112.78h8.98"/><path d="m380.65 130.74h8.98"/><path d="m286.37 130.74h8.98"/><path d="m380.65 148.69h8.98"/><path d="m286.37 148.69h8.98"/><path d="m297.59 166.65h80.82"/><path d="m360.45 184.61h-44.898"/><path d="m341.62 202.57h-4.49"/></g><path d="m360.45 99.31h-44.898v-9.528c0-9.615 7.795-17.41 17.41-17.41h10.08c9.615 0 17.41 7.795 17.41 17.41v9.528z" fill="none" stroke="#251b3f"/><path d="m321.32 153.18h-11.538c-1.772 0-3.208-1.477-3.208-3.299v-47.28c0-1.822 1.436-3.299 3.208-3.299h56.44c1.772 0 3.208 1.477 3.208 3.299v47.28c0 1.822-1.436 3.299-3.208 3.299h-11.524-33.38z" fill="none" stroke="#251b3f"/><path d="m327.17 128.66 6.589 5.937" fill="none" stroke="#fc6d26"/><path d="m348.83 118.35-15.07 16.248" fill="none" stroke="#fc6d26"/><path d="m592.93 214.82h20" fill="none" stroke="#251b3f"/><path d="m511.35 214.82h20" fill="none" stroke="#251b3f"/><circle cx="480.48" cy="214.73" fill="none" r="29.18" stroke="#251b3f"/><circle cx="563" cy="214.65" fill="none" r="29.18" stroke="#251b3f"/><circle cx="643.08" cy="214.77" fill="none" r="29.18" stroke="#251b3f"/><path d="m481.46 57.28h14.76" fill="none" stroke="#fc6d26"/><path d="m513.7 57.28h47.09" fill="none" opacity=".3" stroke="#000"/><path d="m514.1 85.996h91.52" fill="none" stroke="#fc6d26"/><g fill="none" opacity=".3" stroke="#000"><path d="m552.17 216.83 6.59 5.937"/><path d="m573.83 206.52-15.08 16.248"/></g><g fill="none" opacity=".3" stroke="#000"><path d="m469.64 216.92 6.589 5.937"/><path d="m491.31 206.61-15.08 16.248"/></g><g fill="none" opacity=".3" stroke="#000"><path d="m632.25 216.96 6.59 5.938"/><path d="m653.91 206.65-15.07 16.249"/></g></g><path d="m-102.19 91.9 17.826-54.24h-35.651z" fill="#e24329" transform="translate(155.2 1.16)"/><path d="m24.466 91.9-17.826-54.24h-24.96z" fill="#fc6d26" transform="translate(28.531 1.161)"/><path d="m10.114 38.585-5.424 16.48c-.491 1.496.039 3.148 1.336 4.081l46.874 33.678-42.786-54.24" fill="#fca326" transform="translate(.089 .256)"/><path d="m-19.212-241.41h24.98l-10.75-32.668c-.55-1.671-2.948-1.671-3.518 0z" fill="#e24329" transform="translate(29.422 280.26)"/><path d="m-194.19 91.9 17.826-54.24h24.98z" fill="#fc6d26" transform="translate(247.2 1.161)"/><path d="m-150.51 38.585 5.424 16.48c.491 1.496-.039 3.148-1.336 4.081l-46.873 33.659z" fill="#fca326" transform="translate(246.31 .256)"/><path d="m-241.16-241.41h-24.98l10.731-32.668c.55-1.671 2.948-1.671 3.518 0z" fill="#e24329" transform="translate(336.97 280.26)"/><path d="m-102.19 91.9 17.826-54.24h-35.651z" style="fill:none;stroke:#251b3f;stroke-linejoin:round;stroke-linecap:round;stroke-width:8;stroke-miterlimit:10" transform="translate(155.2 1.16)"/><path d="m24.466 91.9-17.826-54.24h-24.96z" style="fill:none;stroke:#251b3f;stroke-linejoin:round;stroke-linecap:round;stroke-width:8;stroke-miterlimit:10" transform="translate(28.531 1.161)"/><path d="m10.114 38.585-5.424 16.48c-.491 1.496.039 3.148 1.336 4.081l46.874 33.678-42.786-54.24z" style="fill:none;stroke:#251b3f;stroke-linejoin:round;stroke-linecap:round;stroke-width:8;stroke-miterlimit:10" transform="translate(.089 .256)"/><path d="m-19.212-241.41h24.98l-10.75-32.668c-.55-1.671-2.948-1.671-3.518 0z" style="fill:none;stroke:#251b3f;stroke-linejoin:round;stroke-linecap:round;stroke-width:8;stroke-miterlimit:10" transform="translate(29.422 280.26)"/><path d="m-194.19 91.9 17.826-54.24h24.98z" style="fill:none;stroke:#251b3f;stroke-linejoin:round;stroke-linecap:round;stroke-width:8;stroke-miterlimit:10" transform="translate(247.2 1.161)"/><path d="m-150.51 38.585 5.424 16.48c.491 1.496-.039 3.148-1.336 4.081l-46.873 33.659z" style="fill:none;stroke:#251b3f;stroke-linejoin:round;stroke-linecap:round;stroke-width:8;stroke-miterlimit:10" transform="translate(246.31 .256)"/><path d="m-241.16-241.41h-24.98l10.731-32.668c.55-1.671 2.948-1.671 3.518 0z" style="fill:none;stroke:#251b3f;stroke-linejoin:round;stroke-linecap:round;stroke-width:8;stroke-miterlimit:10" transform="translate(336.97 280.26)"/><path d="m9.88 195.28h171.52" style="opacity:.3;fill:none;stroke:#000;stroke-linejoin:round;stroke-linecap:round;stroke-width:8;stroke-miterlimit:10"/><path d="m78.8 224.72h16.32" style="fill:none;stroke:#251b3f;stroke-linejoin:round;stroke-linecap:round;stroke-width:8;stroke-miterlimit:10"/><path d="m191.8 224.72h32.32" style="fill:none;stroke:#fc6d26;stroke-linejoin:round;stroke-linecap:round;stroke-width:8;stroke-miterlimit:10"/><path d="m112.8 224.72h61.32" style="opacity:.3;fill:none;stroke:#000;stroke-linejoin:round;stroke-linecap:round;stroke-width:8;stroke-miterlimit:10"/></g></switch></svg>