<svg width="8" height="38" viewBox="0 0 8 38" fill="none" xmlns="http://www.w3.org/2000/svg">
<path d="M0.625 4C0.625 2.13604 2.13604 0.625 4 0.625C5.86396 0.625 7.375 2.13604 7.375 4L7.375 11C7.375 12.864 5.86396 14.375 4 14.375C2.13604 14.375 0.625 12.864 0.625 11L0.625 4Z" fill="white" stroke="#C4C4C4" stroke-width="1.25"/>
<path d="M3.375 23.021C3.375 23.3662 3.65482 23.646 4 23.646C4.34518 23.646 4.625 23.3662 4.625 23.021L3.375 23.021ZM4.625 16.4436C4.625 16.0984 4.34518 15.8186 4 15.8186C3.65482 15.8186 3.375 16.0984 3.375 16.4436L4.625 16.4436ZM4.625 23.021L4.625 16.4436L3.375 16.4436L3.375 23.021L4.625 23.021Z" fill="#C4C4C4"/>
<path d="M3.375 31.7908C3.375 32.1359 3.65482 32.4158 4 32.4158C4.34518 32.4158 4.625 32.1359 4.625 31.7908L3.375 31.7908ZM4.625 27.4058C4.625 27.0607 4.34518 26.7808 4 26.7808C3.65482 26.7808 3.375 27.0607 3.375 27.4058L4.625 27.4058ZM4.625 31.7908L4.625 27.4058L3.375 27.4058L3.375 31.7908L4.625 31.7908Z" fill="#C4C4C4"/>
<path d="M3.375 37.272C3.375 37.6171 3.65482 37.897 4 37.897C4.34518 37.897 4.625 37.6172 4.625 37.272L3.375 37.272ZM4.625 35.0795C4.625 34.7343 4.34518 34.4545 4 34.4545C3.65482 34.4545 3.375 34.7343 3.375 35.0795L4.625 35.0795ZM4.625 37.272L4.625 35.0795L3.375 35.0795L3.375 37.272L4.625 37.272Z" fill="#C4C4C4"/>
</svg>
