<svg width="8" height="71" viewBox="0 0 8 71" fill="none" xmlns="http://www.w3.org/2000/svg">
<path d="M4.625 1C4.625 0.654822 4.34518 0.375 4 0.375C3.65482 0.375 3.375 0.654822 3.375 1L4.625 1ZM3.375 33C3.375 33.3452 3.65482 33.625 4 33.625C4.34518 33.625 4.625 33.3452 4.625 33L3.375 33ZM3.375 1L3.375 33L4.625 33L4.625 1L3.375 1Z" fill="#C4C4C4"/>
<path d="M3.375 55.5774C3.375 55.9226 3.65482 56.2024 4 56.2024C4.34518 56.2024 4.625 55.9226 4.625 55.5774L3.375 55.5774ZM4.625 49C4.625 48.6548 4.34518 48.375 4 48.375C3.65482 48.375 3.375 48.6548 3.375 49L4.625 49ZM4.625 55.5774L4.625 49L3.375 49L3.375 55.5774L4.625 55.5774Z" fill="#C4C4C4"/>
<path d="M3.375 64.3472C3.375 64.6923 3.65482 64.9722 4 64.9722C4.34518 64.9722 4.625 64.6923 4.625 64.3472L3.375 64.3472ZM4.625 59.9622C4.625 59.6171 4.34518 59.3372 4 59.3372C3.65482 59.3372 3.375 59.6171 3.375 59.9622L4.625 59.9622ZM4.625 64.3472L4.625 59.9622L3.375 59.9622L3.375 64.3472L4.625 64.3472Z" fill="#C4C4C4"/>
<path d="M3.375 69.8284C3.375 70.1735 3.65482 70.4534 4 70.4534C4.34518 70.4534 4.625 70.1735 4.625 69.8284L3.375 69.8284ZM4.625 67.6359C4.625 67.2907 4.34518 67.0109 4 67.0109C3.65482 67.0109 3.375 67.2907 3.375 67.6359L4.625 67.6359ZM4.625 69.8284L4.625 67.6359L3.375 67.6359L3.375 69.8284L4.625 69.8284Z" fill="#C4C4C4"/>
<path d="M7.375 44C7.375 45.864 5.86396 47.375 4 47.375C2.13604 47.375 0.624999 45.864 0.624999 44L0.625 37C0.625 35.136 2.13604 33.625 4 33.625C5.86396 33.625 7.375 35.136 7.375 37L7.375 44Z" fill="white" stroke="#C4C4C4" stroke-width="1.25"/>
</svg>
