<svg width="440" height="228" viewBox="0 0 440 228" fill="none" xmlns="http://www.w3.org/2000/svg">
<path d="M177.5 214L120.646 214C114.635 214 109.762 209.127 109.762 203.116V203.116C109.762 197.105 104.889 192.233 98.8784 192.233L50 192.233C44.4772 192.233 40 187.755 40 182.233L40 180.689L40 166" stroke="url(#paint0_linear)" stroke-width="2.5" stroke-linecap="round" stroke-linejoin="round"/>
<path d="M222 201.6C234.813 201.6 245.2 191.213 245.2 178.4C245.2 165.587 234.813 155.2 222 155.2C209.187 155.2 198.8 165.587 198.8 178.4C198.8 191.213 209.187 201.6 222 201.6Z" fill="white"/>
<path d="M177.5 214.2V165.4C177.5 162.7 179.6 160.6 182.3 160.6H193.9" stroke="#52CDB7" stroke-width="2.5" stroke-miterlimit="10" stroke-linecap="round" stroke-linejoin="round"/>
<path d="M266.5 211.2V164.4C266.5 161.7 264.4 159.6 261.7 159.6H249.6" stroke="#52CDB7" stroke-width="2.5" stroke-miterlimit="10" stroke-linecap="round" stroke-linejoin="round"/>
<path d="M168.8 226.2C166.1 226.2 164 223.99 164 221.148V214.2H280V221.148C280 223.99 277.9 226.2 275.2 226.2H168.8Z" stroke="#52CDB7" stroke-width="2.5" stroke-miterlimit="10" stroke-linecap="round" stroke-linejoin="round"/>
<path d="M210.3 218.2C209.569 218.2 209 217.648 209 216.937V215.2H235V216.937C235 217.648 234.431 218.2 233.7 218.2H210.3Z" fill="#52CDB7"/>
<path d="M266.5 214L322.839 214C328.85 214 333.722 209.127 333.722 203.116V203.116C333.722 197.105 338.595 192.233 344.606 192.233L393 192.233C398.523 192.233 403 187.755 403 182.233L403 180.689L403 162" stroke="url(#paint1_linear)" stroke-width="2.5" stroke-linecap="round" stroke-linejoin="round"/>
<path d="M388.489 151.865L390.021 145.156C391.625 138.083 387.177 133.125 387.177 133.198C384.771 130.281 384.917 127 384.989 127.073C384.917 117.448 376.385 119.781 372.156 111.687L369.969 108.479C374.198 95.1353 386.375 89.229 386.375 89.229C387.687 90.2498 388.271 91.6353 388.198 91.5623C390.021 95.5728 398.333 94.1873 398.26 94.1873C402.927 94.1873 403.365 99.5103 403.219 99.1457C403.219 100.604 402.562 101.917 401.469 102.864L392.135 110.885C388.125 114.312 389.583 119.125 389.583 118.979C391.989 128.531 408.76 124.667 408.76 135.239C407.521 142.021 401.177 145.521 394.833 154.125L388.489 151.865Z" fill="#2F80ED"/>
<path d="M427.938 95.4273L425.094 97.9793C422.104 100.677 417.219 99.2189 416.271 95.2085L414.302 86.896C414.302 86.896 423.417 90.1043 427.938 95.4273Z" fill="#2F80ED"/>
<path d="M427.792 144.573V137.646C427.792 131.959 423.198 133.781 421.521 127.802C421.521 127.875 419.771 120.729 419.771 120.729C418.021 116.136 421.375 111.177 426.333 111.177H436.615C436.615 111.177 442.01 130.136 427.792 144.573Z" fill="#2F80ED"/>
<path d="M369.969 108.479C374.708 94.7708 387.687 85 403 85C412.698 85 421.448 88.9375 427.719 95.2813" stroke="#2F80ED" stroke-width="2.5" stroke-miterlimit="10" stroke-linecap="round" stroke-linejoin="round"/>
<path d="M422.469 149.094C416.854 152.813 410.219 155 403 155C383.677 155 368 139.323 368 120C368 118.906 368.073 117.74 368.146 116.646" stroke="#2F80ED" stroke-width="2.5" stroke-miterlimit="10" stroke-linecap="round" stroke-linejoin="round"/>
<path d="M432.531 101.188C435.958 106.583 438 113.073 438 120C438 129.552 434.135 138.229 427.938 144.573" stroke="#2F80ED" stroke-width="2.5" stroke-miterlimit="10" stroke-linecap="round" stroke-linejoin="round"/>
<g clip-path="url(#clip0)">
<path d="M201.87 41.1054L197.45 27.6218L188.87 1.04725C188.48 -0.261843 186.53 -0.261843 186.01 1.04725L177.3 27.7527H148.57L139.99 1.04725C139.6 -0.261843 137.65 -0.261843 137.13 1.04725L128.55 27.7527L124.13 41.1054C123.74 42.2836 124.13 43.7236 125.17 44.3782L163 72L200.7 44.5091C201.87 43.7236 202.26 42.4145 201.87 41.1054Z" fill="#FA6E26"/>
<path d="M148.7 27.7529L163 72.0002L177.43 27.7529H148.7Z" fill="#E04229"/>
<path d="M128.55 27.7529L163 72.0002L148.57 27.7529H128.55Z" fill="#FA6E26"/>
<path d="M128.55 27.7524L124.13 41.1052C123.74 42.2834 124.13 43.7234 125.17 44.3779L163 71.9997L128.55 27.7524Z" fill="#FAA126"/>
<path d="M128.55 27.7537H148.7L139.99 1.04822C139.6 -0.260866 137.65 -0.260866 137.13 1.04822L128.55 27.7537Z" fill="#E04229"/>
<path d="M177.43 27.7529L163 72.0002L197.45 27.7529H177.43Z" fill="#FA6E26"/>
<path d="M197.45 27.7524L201.87 41.2361C202.26 42.4143 201.87 43.8543 200.83 44.5088L163 71.9997L197.45 27.7524Z" fill="#FAA126"/>
<path d="M197.45 27.7537H177.43L186.14 1.04822C186.53 -0.260866 188.48 -0.260866 189 1.04822L197.45 27.7537Z" fill="#E04229"/>
</g>
<path d="M236 120H361" stroke="url(#paint2_linear)" stroke-width="2.5" stroke-linecap="round"/>
<path d="M235.037 115.381C235.703 114.956 236.575 115.434 236.575 116.224L236.575 120.064L236.575 123.904C236.575 124.694 235.703 125.172 235.037 124.747L229.024 120.907C228.409 120.513 228.409 119.614 229.024 119.221L235.037 115.381Z" fill="#2F80ED"/>
<path d="M76.472 114.228L70.073 111.966C66.913 110.796 65.333 107.13 66.755 104.088L69.599 98.0041C67.308 94.8841 64.464 92.0761 61.304 89.8141L55.142 92.6221C52.061 94.0261 48.348 92.5441 47.163 89.3461L44.872 83.0281C40.922 82.4041 36.972 82.4041 33.101 83.0281L30.81 89.3461C29.625 92.4661 25.912 94.0261 22.831 92.6221L16.669 89.8141C13.509 92.0761 10.665 94.8841 8.374 98.0041L11.218 104.088C12.64 107.13 11.139 110.796 7.9 111.966L1.58 114.228C0.947999 118.206 1.027 122.106 1.58 125.85L7.979 128.112C11.218 129.282 12.719 132.948 11.297 135.99L8.453 142.074C10.744 145.194 13.588 148.002 16.748 150.264L22.91 147.456C25.991 146.052 29.704 147.534 30.889 150.732L33.18 157.05C37.13 157.674 41.08 157.674 44.951 157.05L47.242 150.732C48.427 147.612 52.14 146.052 55.221 147.456L61.383 150.264C64.543 148.002 67.387 145.194 69.678 142.074L66.834 135.99C65.412 132.948 66.913 129.282 70.152 128.112L76.551 125.85C77.104 121.95 77.104 118.05 76.472 114.228ZM53.72 115.554L38.552 130.53C37.209 131.856 35.076 131.856 33.733 130.53L25.28 122.262C24.411 121.404 24.411 120.078 25.28 119.298L28.835 115.788C29.704 114.93 31.047 114.93 31.837 115.788L36.024 119.922L47.084 109.08C47.953 108.222 49.296 108.222 50.086 109.08L53.641 112.59C54.51 113.448 54.51 114.774 53.72 115.554Z" fill="white"/>
<path d="M33.6541 83.0281C37.5251 82.4041 41.4751 82.4041 45.4251 83.0281L47.7161 89.3461C48.9011 92.4661 52.6141 94.0261 55.6951 92.6221L61.8571 89.8141C65.0171 92.0761 67.8611 94.8841 70.1521 98.0041L67.308 104.088C65.8861 107.13 67.3871 110.796 70.6261 111.966L77.0251 114.228C77.6571 118.05 77.6571 121.95 77.0251 125.85L70.6261 128.112C67.4661 129.282 65.8861 132.948 67.308 135.99L70.1521 142.074C67.8611 145.194 65.0171 148.002 61.8571 150.264L55.6951 147.456C52.6141 146.052 48.9011 147.534 47.7161 150.732L46.9261 152.916" stroke="#9B51E0" stroke-width="2.5" stroke-miterlimit="10" stroke-linecap="round" stroke-linejoin="round"/>
<path d="M45.346 156.972C41.475 157.596 37.525 157.596 33.575 156.972L31.284 150.654C30.099 147.534 26.386 145.974 23.305 147.378L17.143 150.186C13.983 147.924 11.139 145.116 8.84802 141.996L11.692 135.912C13.114 132.87 11.613 129.204 8.37402 128.034L1.97502 125.772C1.42202 122.028 1.34302 118.128 1.97502 114.15L8.37402 111.888C11.534 110.718 13.114 107.052 11.692 104.01L8.84802 97.926C11.139 94.806 13.983 91.998 17.143 89.736L23.305 92.544C26.386 93.948 30.099 92.466 31.284 89.268L31.995 87.396" stroke="#9B51E0" stroke-width="2.5" stroke-miterlimit="10" stroke-linecap="round" stroke-linejoin="round"/>
<path d="M53.72 112.59L50.086 109.08C49.217 108.222 47.874 108.222 47.084 109.08L36.103 119.922L31.916 115.788C31.047 114.93 29.704 114.93 28.914 115.788L25.28 119.298C24.411 120.156 24.411 121.482 25.28 122.262L33.654 130.53C34.997 131.856 37.13 131.856 38.473 130.53L53.72 115.554C54.51 114.774 54.51 113.448 53.72 112.59Z" fill="#9B51E0"/>
<path d="M86 118.75C85.3096 118.75 84.75 119.31 84.75 120C84.75 120.69 85.3096 121.25 86 121.25V118.75ZM164.741 80C164.741 79.3096 164.182 78.75 163.491 78.75C162.801 78.75 162.241 79.3096 162.241 80H164.741ZM282.25 80C282.25 79.3096 281.69 78.75 281 78.75C280.31 78.75 279.75 79.3096 279.75 80H282.25ZM269.914 97.2222V98.4722V97.2222ZM233.331 97.2222V95.9722V97.2222ZM86 121.25H210.606V118.75H86V121.25ZM162.241 80V86.1111H164.741V80H162.241ZM174.577 98.4722H211.16V95.9722H174.577V98.4722ZM211.16 98.4722C216.589 98.4722 220.996 102.884 220.996 108.333H223.496C223.496 101.509 217.976 95.9722 211.16 95.9722V98.4722ZM162.241 86.1111C162.241 92.9353 167.762 98.4722 174.577 98.4722V95.9722C169.148 95.9722 164.741 91.5599 164.741 86.1111H162.241ZM210.606 121.25C217.727 121.25 223.496 115.464 223.496 108.333H220.996C220.996 114.089 216.341 118.75 210.606 118.75V121.25ZM279.75 80V86.1111H282.25V80H279.75ZM269.914 95.9722H233.331V98.4722H269.914V95.9722ZM233.331 95.9722C226.516 95.9722 220.996 101.509 220.996 108.333H223.496C223.496 102.884 227.902 98.4722 233.331 98.4722V95.9722ZM279.75 86.1111C279.75 91.5599 275.344 95.9722 269.914 95.9722V98.4722C276.73 98.4722 282.25 92.9353 282.25 86.1111H279.75Z" fill="url(#paint3_linear)"/>
<g clip-path="url(#clip1)">
<path d="M243.722 191.401C242.096 193.723 240.078 195.814 237.836 197.497L233.463 195.407C231.277 194.362 228.643 195.465 227.802 197.846L226.176 202.548C223.429 203.013 220.627 203.013 217.824 202.548L216.198 197.846C215.357 195.523 212.723 194.362 210.536 195.407L206.164 197.497C203.922 195.814 201.904 193.723 200.278 191.401L202.296 186.873C203.305 184.608 202.24 181.88 199.942 181.009L195.401 179.325C195.009 176.538 194.953 173.635 195.401 170.674L199.942 168.991C202.184 168.12 203.305 165.391 202.296 163.127L201.736 161.85" stroke="#52CDB7" stroke-width="2.5" stroke-miterlimit="10" stroke-linecap="round" stroke-linejoin="round"/>
<path d="M200.278 158.599C201.848 156.334 203.754 154.36 205.94 152.677C206.108 152.56 206.276 152.56 206.5 152.619L210.593 154.593C212.779 155.638 215.413 154.534 216.254 152.154L217.88 147.451C220.627 146.987 223.429 146.987 226.232 147.451L227.858 152.154C228.699 154.534 231.333 155.638 233.519 154.593L237.892 152.502C240.134 154.186 242.152 156.276 243.778 158.599L241.76 163.127C240.751 165.391 241.816 168.12 244.114 168.991L248.655 170.675C249.103 173.519 249.103 176.422 248.655 179.325L244.114 181.009C241.872 181.88 240.751 184.609 241.76 186.873L242.432 188.266" stroke="#52CDB7" stroke-width="2.5" stroke-miterlimit="10" stroke-linecap="round" stroke-linejoin="round"/>
<path d="M237.001 175.652C237.001 167.368 230.285 160.606 222.001 160.549C213.717 160.492 207.001 167.161 207.001 175.445C207.001 183.73 213.717 190.492 222.001 190.549C230.285 190.606 237.001 183.936 237.001 175.652Z" fill="#52CDB7"/>
<path d="M216.139 178.244L213 174.993L216.139 171.742" stroke="white" stroke-width="2.5" stroke-miterlimit="10" stroke-linecap="round" stroke-linejoin="round"/>
<path d="M228 171.742L231.195 174.993L228 178.244" stroke="white" stroke-width="2.5" stroke-miterlimit="10" stroke-linecap="round" stroke-linejoin="round"/>
<path d="M223.987 170L220.68 180.044" stroke="white" stroke-width="2.5" stroke-miterlimit="10" stroke-linecap="round" stroke-linejoin="round"/>
</g>
<path d="M120.035 93.1277C120.682 93.5017 120.706 94.4276 120.078 94.8333L109.231 101.845C108.575 102.269 107.708 101.811 107.688 101.03L107.353 87.5554C107.333 86.7746 108.177 86.2739 108.853 86.6647L120.035 93.1277Z" fill="#2F80ED"/>
<rect x="149.919" y="162" width="11.36" height="11.36" rx="1" transform="rotate(55.8554 149.919 162)" fill="#EB5757"/>
<circle cx="330" cy="93" r="6" fill="#52CDB7"/>
<path d="M298.971 149.923C299.173 149.434 298.578 149.007 298.18 149.355L287.302 158.849C287.023 159.092 287.095 159.543 287.436 159.687L291.874 161.562C292.128 161.669 292.247 161.961 292.141 162.215L288.447 171.05C288.242 171.539 288.841 171.969 289.239 171.618L301.27 161.018C301.545 160.775 301.474 160.328 301.136 160.183L296.146 158.039C295.895 157.931 295.777 157.641 295.882 157.389L298.971 149.923Z" fill="#FCA326"/>
<g clip-path="url(#clip2)">
<path d="M293.248 28.5428L299.713 22.0285L300.138 19.2856C288.315 8.57135 269.687 9.85707 259.14 21.8571C256.163 25.1999 254.037 29.3999 252.846 33.6856L255.142 33.3428L267.986 31.1999L269.007 30.1714C274.706 23.8285 284.402 22.9714 291.037 28.3714L293.248 28.5428Z" fill="#EA4335"/>
<path d="M308.814 33.5144C307.368 28.0287 304.306 23.143 300.053 19.3716L291.037 28.4573C294.864 31.6287 296.991 36.343 296.906 41.3144V42.943C301.329 42.943 304.901 46.543 304.901 51.0859C304.901 55.543 301.329 59.0573 296.906 59.0573H280.83L279.214 60.7716V70.4573L280.83 72.0002H296.906C308.474 72.0859 317.915 62.8287 318 51.1716C318.085 44.143 314.598 37.543 308.814 33.5144Z" fill="#4285F4"/>
<path d="M264.754 72.0002H280.83V59.0573H264.754C263.648 59.0573 262.543 58.8002 261.437 58.3716L259.14 59.0573L252.676 65.5716L252.166 67.7144C255.823 70.4573 260.246 72.0002 264.754 72.0002Z" fill="#34A853"/>
<path d="M264.754 29.9141C253.271 29.9998 243.915 39.5141 244 51.0855C244 57.5998 247.062 63.7712 252.165 67.7141L261.522 58.2855C257.439 56.3998 255.653 51.5998 257.524 47.5712C259.31 43.4569 264.074 41.6569 268.156 43.5426C269.942 44.3141 271.388 45.7712 272.154 47.5712L281.51 38.1426C277.428 32.9141 271.303 29.9141 264.754 29.9141Z" fill="#FBBC05"/>
</g>
<defs>
<linearGradient id="paint0_linear" x1="164" y1="202.837" x2="56.7162" y2="202.837" gradientUnits="userSpaceOnUse">
<stop stop-color="#52CDB7"/>
<stop offset="1" stop-color="#9B51E0"/>
</linearGradient>
<linearGradient id="paint1_linear" x1="280" y1="202.837" x2="386.4" y2="202.837" gradientUnits="userSpaceOnUse">
<stop stop-color="#52CDB7"/>
<stop offset="1" stop-color="#2F80ED"/>
</linearGradient>
<linearGradient id="paint2_linear" x1="355" y1="120" x2="229.912" y2="120" gradientUnits="userSpaceOnUse">
<stop stop-color="#2F80ED"/>
<stop offset="1" stop-color="#2F80ED"/>
</linearGradient>
<linearGradient id="paint3_linear" x1="222.246" y1="120" x2="222.246" y2="80" gradientUnits="userSpaceOnUse">
<stop stop-color="#9B51E0"/>
<stop offset="1" stop-color="#FCA326"/>
</linearGradient>
<clipPath id="clip0">
<rect width="78" height="72" fill="white" transform="translate(124)"/>
</clipPath>
<clipPath id="clip1">
<rect width="56" height="58" fill="white" transform="translate(194 146)"/>
</clipPath>
<clipPath id="clip2">
<rect width="74" height="60" fill="white" transform="translate(244 12)"/>
</clipPath>
</defs>
</svg>
