<?xml version="1.0" encoding="utf-8"?>
<!-- Generator: Adobe Illustrator 25.2.3, SVG Export Plug-In . SVG Version: 6.00 Build 0)  -->
<svg version="1.1" id="Layer_1" xmlns="http://www.w3.org/2000/svg" xmlns:xlink="http://www.w3.org/1999/xlink" x="0px" y="0px"
	 viewBox="0 0 495.1 253.8" enable-background="new 0 0 495.1 253.8" xml:space="preserve">
<g>
	<path fill="#FFFFFF" d="M115.4,34.9L105.3,33c-2.2,0.1-4-1.6-4.1-3.7c-0.1-2.2,1.6-4,3.7-4.1c0.1,0,0.3,0,0.4,0c0.2,0,0.3,0,0.5,0
		c0.2,0,0.5,0,0.7-0.2c0.2-0.2,0.3-0.4,0.3-0.6c0.2-3,2.8-5.3,5.8-5.1c2.3,0.1,4.2,1.7,4.9,3.9c0.1,0.5,0.6,0.7,1.1,0.6
		c2.5-0.7,5.1,0.9,5.8,3.4c0.1,0.4,0.1,0.8,0.1,1.2c0,2.6-2.1,6.6-4.7,6.6"/>
	<path fill="#FFFFFF" d="M439,156.9c0-6.3-5.1-11.5-11.5-11.5c-6.3,0-11.5,5.1-11.5,11.5c0,4,2,7.7,5.4,9.8v4.9
		c-0.1,3.3,2.5,6,5.8,6.2c3.3,0.1,6-2.5,6.1-5.7l0-0.2v-1.6c0-1.4,0.6-2.7,1.7-3.6C437.5,164.5,439,160.4,439,156.9z"/>
	<path fill="#AC7FFF" d="M421.9,169.1h10.6v2.9c0,2.9-2.4,5.3-5.3,5.3s-5.3-2.4-5.3-5.3L421.9,169.1L421.9,169.1z"/>
	<path fill="#FC6D26" d="M369.2,73.6v-5.3c0-0.5-0.4-0.9-0.9-0.9h-3.1l3.6-7.4l0.3,4.7c0,0.5,0.4,0.9,0.9,0.9h3.1L369.2,73.6z"/>
	<path fill="#FC6D26" d="M435.7,45.4l-2.6,5.6c-0.2,0.4,0,0.9,0.4,1.2l3.5,1.9l-9.5,6.8l3.4-6.2c0.2-0.4,0.1-1-0.3-1.2l-3.5-1.9
		L435.7,45.4z"/>
	<polygon fill="#AC7FFF" points="443.7,59.4 445.6,63.8 440.8,63.2 	"/>
	<polygon fill="#AC7FFF" points="383.9,73.9 380.4,75.2 381.9,72.9 	"/>
	<polygon fill="#AC7FFF" points="354.4,72.6 355.8,74.7 352.5,73.3 	"/>
	<path fill="#AC7FFF" d="M298.5,53.8h23.9v14.4c0,1.9-1.6,3.5-3.5,3.5h-20.3V53.8z"/>
	<path fill="#AC7FFF" d="M323.7,26.3c0-0.5,0.5-1,1-1h12c0.5,0,0.9,0.4,1,1v8.8c0,0.5-0.4,1-1,1h-6c-0.3,0-0.6,0.2-0.8,0.4l-1.3,1.8
		l-1.3-1.8c-0.2-0.3-0.5-0.4-0.8-0.4h-1.8c-0.6,0-1-0.4-1-1L323.7,26.3z"/>
	<path fill="#AC7FFF" d="M330.6,46.2c1,0,1.8,0.8,1.8,1.8c0,1-0.8,1.8-1.8,1.8s-1.8-0.8-1.8-1.8C328.8,47,329.6,46.2,330.6,46.2z"/>
	<path fill="#AC7FFF" d="M397.9,71.8c1,0,1.8,0.8,1.8,1.8c0,1-0.8,1.8-1.8,1.8s-1.8-0.8-1.8-1.8C396,72.6,396.9,71.8,397.9,71.8z"/>
	<circle fill="#FC6D26" cx="353" cy="57" r="2.7"/>
	<polygon fill="#CAB5FF" points="331.9,58.3 327.6,76.4 333.3,74.8 334.1,84.1 342.5,81.8 338.9,73.6 344.8,71.5 	"/>
	<path fill="#FC6D26" d="M307.8,38.3L307.8,38.3c0.1,0.1,0.1,0.2,0.2,0.2l0.1,0.1l0.2,0.1h0.1h0.1h0.1h0.1l4.5-1.3l0.2-0.1l0.1-0.1
		l0.1-0.2l0.1-0.1l0.1-0.2v-0.2L314,34l1.4,2.1l1.1,1.7l-4,5.2l-6.3-2.2l0.1-2l0.1-2.5L307.8,38.3z"/>
	<path fill="#FC6D26" d="M389.3,27.3l2.5-2.1l-0.8,3.2l-0.5,2.3l-7.7,0.6l-3-7.1l1.9-1.5l2.5-2.1l-0.7,3.2c0,0.1,0,0.2,0,0.3v0.1
		l0.1,0.2l0.1,0.1l0,0.1l0.1,0.1l0.1,0.1l4.6,2.8l0.2,0.1h0.1h0.2h0.1"/>
	<path fill="#CAB5FF" d="M387.7,38c1.1-1,2.7-1.5,4.2-1.3c2.9,0.3,5,3,4.7,6c-0.2,1.8-1.4,3.4-3.1,4.2c-0.8,0.4-1.2,1.4-0.8,2.3
		c0.2,0.4,0.6,0.7,1,0.9c3.8,1.1,6.4,4.5,6.4,8.4c-5.9,1-11.9,1-17.8,0c0.1-3.9,2.7-7.3,6.5-8.4c0.7-0.2,1.2-0.9,1.2-1.6v-0.1
		c0-0.7-0.4-1.3-1-1.5c-2.7-1.3-3.8-4.4-2.6-7.1C386.7,39.1,387.2,38.5,387.7,38z"/>
	<path fill="#CAB5FF" d="M402.5,38c2.2-2,5.6-1.8,7.6,0.4c2,2.2,1.8,5.6-0.4,7.6c-0.4,0.4-0.9,0.7-1.3,0.9c-0.8,0.4-1.2,1.5-0.8,2.3
		c0.2,0.4,0.6,0.7,1,0.9c3.8,1.1,6.4,4.5,6.4,8.4c-5.9,1-11.9,1-17.8,0c0.1-3.9,2.7-7.3,6.4-8.4c0.7-0.2,1.2-0.9,1.2-1.6v-0.1
		c0-0.7-0.4-1.3-1-1.5c-2.7-1.3-3.8-4.5-2.5-7.1C401.5,39.1,402,38.5,402.5,38z"/>
	<path fill="#AC7FFF" d="M394.7,40.5c1.2-1.1,2.8-1.6,4.4-1.4c3.1,0.4,5.3,3.2,5,6.3c-0.2,2-1.5,3.6-3.2,4.5
		c-0.9,0.4-1.2,1.5-0.8,2.4c0.2,0.4,0.6,0.8,1.1,0.9c4,1.1,6.7,4.7,6.8,8.8c-6.2,1-12.6,1-18.8,0c0.1-4.1,2.9-7.7,6.8-8.8
		c0.7-0.2,1.2-0.9,1.2-1.7v-0.1c0-0.7-0.4-1.3-1-1.6c-2.8-1.3-4-4.7-2.7-7.5C393.7,41.6,394.2,41,394.7,40.5L394.7,40.5z"/>
	<path fill="#AC7FFF" d="M408.8,76.4h21.1v18.6c0,2.3-1.8,4.1-4.1,4.1h-12.9c-2.3,0-4.1-1.8-4.1-4.1V76.4z"/>
	<ellipse fill="#FFFFFF" cx="419.4" cy="76.3" rx="9.3" ry="2.2"/>
	<path fill="#CAB5FF" d="M441,71.5h19c1.5,0,2.7,1.2,2.7,2.7v13.5c0,1.5-1.2,2.7-2.7,2.7h-19c-1.5,0-2.7-1.2-2.7-2.7V74.2
		C438.3,72.7,439.5,71.5,441,71.5z"/>
	<path fill="#AC7FFF" d="M463.9,95.7l0.1-0.1c3.2-2.7,7.9-2.3,10.7,0.8c2.4,2.7,2.4,8,2.5,12.6c0,0.6,0,1.2,0,1.8l-1.8-0.2
		c-4.6-0.6-9.8-1.3-12.2-4C460.4,103.4,460.7,98.5,463.9,95.7z"/>
	<path fill="#CAB5FF" d="M461.7,117.3c11.3,0,20.5,9.2,20.5,20.5c0,11.3-9.2,20.5-20.5,20.5c-11.3,0-20.5-9.2-20.5-20.5
		C441.2,126.5,450.4,117.3,461.7,117.3z"/>
	<path fill="#FFFFFF" d="M461.7,122.8c8.3,0,15,6.7,15,15c0,8.3-6.7,15-15,15c-8.3,0-15-6.7-15-15
		C446.7,129.5,453.4,122.8,461.7,122.8z"/>
	<path fill="#CAB5FF" d="M360.2,21.8c5.4,0,9.8,4.4,9.8,9.8s-4.4,9.8-9.8,9.8s-9.8-4.4-9.8-9.8S354.8,21.8,360.2,21.8z"/>
	<path fill="#FC6D26" d="M461.3,140.4c-0.5-0.2-0.9-0.6-1.1-1c-0.2-0.5-0.1-1.1,0.1-1.5c0.3-0.5,0.7-0.8,1.2-0.9h0.3
		c0.4,0,0.9,0.2,1.2,0.5l7.4,6.3L461.3,140.4z"/>
	<path fill="#FC6D26" d="M441.7,105.7L441.7,105.7l1.7-1.9l-0.3,2.5c0,0.1,0,0.2,0,0.3v0.1l0.1,0.2l0.1,0.1l0,0.1l0.1,0.1l0.1,0.1
		l4.3,2h0.2h0.1h0.2h0.1l0.2-0.1l0.1-0.1l1.7-1.9l-0.3,2.5l-0.2,2l-6.6,1.3l-3.3-5.8L441.7,105.7z"/>
	<path fill="#FC6D26" d="M419.4,110.2c0.8,0,1.5,0.7,1.5,1.5c0,0.8-0.7,1.5-1.5,1.5c-0.8,0-1.5-0.7-1.5-1.5
		C417.8,110.9,418.5,110.2,419.4,110.2z"/>
	<path fill="#AC7FFF" d="M430.5,110.2c0.8,0,1.5,0.7,1.5,1.5c0,0.8-0.7,1.5-1.5,1.5c-0.8,0-1.5-0.7-1.5-1.5
		C429,110.9,429.7,110.2,430.5,110.2z"/>
	<path fill="#AC7FFF" d="M430.5,133.2c0.8,0,1.5,0.7,1.5,1.5c0,0.8-0.7,1.5-1.5,1.5c-0.8,0-1.5-0.7-1.5-1.5
		C429,133.9,429.7,133.2,430.5,133.2z"/>
	<path fill="#FFFFFF" d="M467.1,99.4L467.1,99.4c1.2-1,2.9-0.8,3.9,0.3s0.8,2.9-0.3,3.8c-0.5,0.4-1.2,0.7-1.9,0.6
		c-1.5-0.1-2.6-1.4-2.5-2.9C466.3,100.6,466.6,100,467.1,99.4L467.1,99.4z"/>
	<path fill="#AC7FFF" d="M187.3,187.9h0.2c5.6,0.1,10,4.6,10.1,10.2c0,4.8-4.6,10.2-8.6,14.9c-0.5,0.6-1.1,1.2-1.6,1.8
		c-0.5-0.6-1-1.2-1.6-1.8c-4.1-4.7-8.7-10-8.8-14.8C177.1,192.6,181.6,188,187.3,187.9z"/>
	<path fill="#FFFFFF" d="M187.3,193.4h0.1c2.6,0,4.7,2.2,4.7,4.9c0,2.6-2.2,4.7-4.9,4.7c-2.6,0-4.7-2.2-4.7-4.8
		C182.6,195.6,184.7,193.4,187.3,193.4z"/>
	<rect x="290.9" y="78.3" fill="#CAB5FF" width="6.9" height="4.5"/>
	<rect x="315.5" y="78.3" fill="#CAB5FF" width="6.9" height="4.5"/>
	<rect x="297.8" y="78.3" fill="#AC7FFF" width="17.7" height="4.5"/>
	<rect x="339.7" y="42.5" fill="#AC7FFF" width="5.4" height="5.4"/>
	<circle fill="#AC7FFF" cx="451.8" cy="174.5" r="10.5"/>
	<path fill="#FC6D26" d="M460.8,181.2l4.5,3.8v0.4c0.2,1.5-0.9,2.8-2.4,3c-0.1,0-0.3,0-0.4,0l-1.6,0.4l-3.7-4.4L460.8,181.2z"/>
	<path fill="#AC7FFF" d="M402.4,175.1c0-0.5,0.4-0.9,0.9-0.9h11.1c0.5,0,0.9,0.4,0.9,0.9v0v8.2c0,0.5-0.4,0.9-0.9,0.9h0h-5.5
		c-0.3,0-0.6,0.1-0.7,0.4l-1.2,1.7l-1.2-1.7c-0.2-0.2-0.4-0.4-0.7-0.4h-1.7c-0.5,0-0.9-0.4-0.9-0.9v0V175.1z"/>
	<path fill="#CAB5FF" d="M405.5,212.2c8.8-22.8,24.7-24.6,24.7-24.6l11.4,12.7c0,0-2,16.1-24.1,24.9L405.5,212.2z"/>
	<polygon fill="#AC7FFF" points="405.1,212.4 417.4,225.6 412.5,228.3 401.8,217.5 	"/>
	<polyline fill="#AC7FFF" points="430.2,187.6 442,200 442,188.8 	"/>
	<path fill="#FFFFFF" d="M425.9,198.7c3,0,5.3,2.4,5.3,5.3c0,3-2.4,5.4-5.3,5.4c-3,0-5.4-2.4-5.4-5.4
		C420.5,201.1,422.9,198.7,425.9,198.7z"/>
	<path fill="#FC6D26" d="M383.8,211.2l1.7-5.4c0.1-0.5-0.1-0.9-0.5-1.1l-3.4-1.3l7.7-7.4l-2.3,6c-0.1,0.3-0.1,0.7,0.2,1
		c0.1,0.1,0.2,0.2,0.3,0.2l3.4,1.3L383.8,211.2z"/>
	<path fill="#FC6D26" d="M470.4,164.6c0.8,0,1.4,0.6,1.4,1.4c0,0.8-0.6,1.4-1.4,1.4c-0.8,0-1.4-0.6-1.4-1.4
		C469,165.3,469.7,164.6,470.4,164.6z"/>
	<path fill="#FC6D26" d="M405.3,26.1c0.8,0,1.4,0.6,1.4,1.4c0,0.8-0.6,1.4-1.4,1.4c-0.8,0-1.4-0.6-1.4-1.4
		C403.9,26.7,404.6,26.1,405.3,26.1z"/>
	<path fill="#FC6D26" d="M395.8,240.2l-6.3-2.2l0.1-2l0.1-2.5l1.4,2.1c0.1,0.1,0.1,0.2,0.2,0.2l0.1,0.1l0.2,0.1h0.1h0.2h0.1l4.5-1.3
		l0.2-0.1l0.1-0.1l0.1-0.2l0.1-0.1l0.1-0.2v-0.2l0.1-2.5l1.4,2.1l1.1,1.7L395.8,240.2z"/>
	<circle fill="#CAB5FF" cx="365.4" cy="195.1" r="8.3"/>
	<path fill="#FFFFFF" d="M365.4,186.8v8.3l7-4.6C372.4,190.5,369.9,186.5,365.4,186.8z"/>
	<path fill="#AC7FFF" d="M372.4,190.5l-7,4.6l5.9,5.9C371.2,201,376,198,372.4,190.5z"/>
	<path fill="#CAB5FF" d="M275,64.7c4.6,0,8.3,3.7,8.3,8.3c0,4.6-3.7,8.3-8.3,8.3c-4.6,0-8.3-3.7-8.3-8.3
		C266.6,68.4,270.3,64.7,275,64.7z"/>
	<path fill="#FFFFFF" d="M275,64.7V73l7-4.6C282,68.4,279.4,64.4,275,64.7z"/>
	<path fill="#AC7FFF" d="M281.9,68.4L275,73l5.8,5.9C280.8,78.9,285.5,75.9,281.9,68.4z"/>
	<circle fill="#CAB5FF" cx="336.5" cy="208.8" r="13.8"/>
	<path fill="#AC7FFF" d="M347.6,201l-5.9,4.5v5.4l4.2,1.5v6C346,218.4,354.6,209.1,347.6,201z"/>
	<path fill="#AC7FFF" d="M332.4,195.8l5.4,4.2l-0.3,4.5l-6.9,2.5l-0.5,3.2l3.8,2.8l0.4,2.9l-10.2,1.2
		C324.3,217.1,316.9,200.9,332.4,195.8z"/>
	<path fill="#FC6D26" d="M321,184.2c-0.1,0-0.2,0-0.4,0l-3.6,0.6l2.8-9.4l1.3,5.5c0.1,0.5,0.5,0.8,1,0.7l3.6-0.6l-3,10.3l-1-6.3
		C321.6,184.6,321.3,184.3,321,184.2z"/>
	<path fill="#FC6D26" d="M310.3,228.2l-6.3-2.2l0.1-2l0.1-2.5l1.4,2.1c0.1,0.1,0.1,0.2,0.2,0.2l0.1,0.1l0.2,0.1h0.1h0.1h0.1h0.1
		l4.5-1.3l0.2-0.1l0.1-0.1l0.1-0.2l0.1-0.1l0.1-0.2v-0.2l0.1-2.5l1.4,2.1l1.1,1.7L310.3,228.2z"/>
	<circle fill="#CAB5FF" cx="367.9" cy="231.1" r="10.1"/>
	<polygon fill="#CAB5FF" points="385.1,186 387.1,187.1 383.6,188.4 	"/>
	<path fill="#FC6D26" d="M349,241c1.1,0,2,0.9,2,2s-0.9,2-2,2s-2-0.9-2-2S347.9,241,349,241z"/>
	<path fill="#CAB5FF" d="M342.4,236.7c0,0-3.9-6.8-3.5-6.5s7.1,1.3,7.1,1.3L342.4,236.7z"/>
	<circle fill="#AC7FFF" cx="343.6" cy="185.6" r="1.5"/>
	<path fill="#FC6D26" d="M291.8,208c1.6,0,3,1.3,3,3s-1.3,3-3,3c-1.6,0-3-1.3-3-3S290.1,208,291.8,208z"/>
	<polygon fill="#CAB5FF" points="269.3,158.1 267.5,162.2 275.2,200 279.5,202.6 309.2,196 311.3,192.2 302.8,154.5 299.2,151.9 	
		"/>
	<polygon fill="#FFFFFF" points="297.9,157.2 272.9,162.6 279.3,196.8 305.4,192.1 	"/>
	<path fill="#FC6D26" d="M279,155.2c0.5-0.1,0.8-0.5,0.7-1c-0.5-2.3,1-4.6,3.3-5.1l0,0c2.3-0.5,4.7,0.9,5.2,3.2
		c0.1,0.5,0.6,0.7,1.1,0.6l2.8-0.6l1.2,5.8l-16,3.4l-1.2-5.8L279,155.2z"/>
	<path fill="#CAB5FF" d="M434.8,153.9c1.5-1.2-2.8-6.8-4.9-5.1C428.2,150.2,432.7,155.7,434.8,153.9z"/>
	<path fill="#AC7FFF" d="M245.8,167.9c-0.5,0-0.9-0.4-2.7-0.9v-8.2c1.8-0.5,2.2-0.9,2.7-2.8H257c0.5,1.9,0.9,2.3,0.9,2.8v8.2
		c0,0.5-0.4,0.9-0.9,0.9h-1.7c-0.3,0-0.6,0.1-0.7,0.4l-1.2,1.7l-1.2-1.7c-0.2-0.2-0.4-0.4-0.7-0.4H245.8z"/>
	<path fill="#CAB5FF" d="M241,160.4c-0.3,0-0.6,0.1-0.7,0.4l-1.2,1.7l-1.2-1.7c-0.2-0.2-0.4-0.4-0.7-0.4h-1.6
		c-0.5,0-0.9-0.4-0.9-0.9v-8.2c0-0.5,0.4-0.9,0.9-0.9h11.1c0.5,0,0.9,0.4,0.9,0.9v8.2c0,0.5-0.4,0.9-0.9,0.9H241z"/>
	<path fill="#AC7FFF" d="M70.1,219.5c-0.5,0-0.9-0.4-2.4-0.9v-8.7c1.2-0.3,2.2-1.3,2.4-2.5h11.7c0.5,1.6,0.9,2,0.9,2.5v8.7
		c0,0.5-0.4,0.9-0.9,0.9h-1.7c-0.3,0-0.6,0.2-0.8,0.4l-1.3,1.8l-1.3-1.8c-0.2-0.2-0.5-0.4-0.8-0.4H70.1z"/>
	<path fill="#CAB5FF" d="M65.6,211.8c-0.3,0-0.6,0.2-0.8,0.4l-1.3,1.8l-1.3-1.8c-0.2-0.2-0.5-0.4-0.8-0.4h-1.7
		c-0.5,0-0.9-0.4-0.9-0.9v-8.7c0-0.5,0.4-0.9,0.9-0.9h11.7c0.5,0,0.9,0.4,0.9,0.9v8.7c0,0.5-0.4,0.9-0.9,0.9L65.6,211.8z"/>
	<path fill="#FFFFFF" d="M268,126.1c0-6.3-5.5-11.3-12.2-11.1c-6.1,0.2-11.1,5-11.3,10.7c-0.1,4,2,7.8,5.5,9.8v4.8
		c0,3.3,2.6,5.9,5.9,6c3.3,0.2,6.1-2.3,6.3-5.6l0-0.2v-1.6c0-1.3,0.6-2.6,1.7-3.4C266.5,133.1,268,129.7,268,126.1z"/>
	<path fill="#AC7FFF" d="M250.4,137.5H261v2.9c0,2.9-2.4,5.3-5.3,5.3c-2.9,0-5.3-2.4-5.3-5.3L250.4,137.5L250.4,137.5z"/>
	<path fill="#CAB5FF" d="M265.8,125c3.5,0,6.4,2.8,6.4,6.4c0,3.5-2.8,6.3-6.4,6.3s-6.3-2.8-6.3-6.3C259.5,127.9,262.3,125,265.8,125
		z"/>
	<circle fill="#CAB5FF" cx="247.5" cy="121" r="6.4"/>
	<polygon fill="#AC7FFF" points="227.7,140.8 220.9,137.7 214.3,140.8 214.3,129 227.7,129 	"/>
	<path fill="#FC6D26" d="M230.8,123.8c-0.5,0.5-0.9,1.1-1.2,1.8c-0.2,0.7-0.4,1.5-0.4,2.2c0.3,1.1-0.3,2.2-1.4,2.5
		c-0.4,0.1-0.7,0.1-1.1,0c-0.7,0-1.5,0.2-2.2,0.4c-0.7,0.3-1.2,0.7-1.8,1.2c-0.7,0.6-1.3,1.1-1.8,1.1c-0.6,0-1.2-0.5-1.8-1.1
		c-0.5-0.5-1.1-0.9-1.8-1.2c-0.7-0.2-1.5-0.4-2.2-0.4c-1.1,0.3-2.2-0.3-2.5-1.4c-0.1-0.4-0.1-0.7,0-1.1c0-0.8-0.1-1.5-0.4-2.2
		c-0.3-0.7-0.7-1.3-1.2-1.8c-0.6-0.6-1.1-1.2-1.1-1.8s0.5-1.2,1.1-1.8c1.1-1,1.7-2.5,1.6-4c0-0.7,0.1-1.4,0.5-2
		c0.6-0.4,1.3-0.5,2-0.5c0.8,0,1.5-0.1,2.2-0.4c0.7-0.3,1.3-0.7,1.8-1.2c0.6-0.6,1.2-1.1,1.8-1.1s1.2,0.5,1.8,1.1
		c0.5,0.5,1.1,0.9,1.8,1.2c0.7,0.3,1.5,0.4,2.2,0.4c0.7,0,1.4,0.1,2,0.5c0.4,0.6,0.5,1.3,0.5,2c0,0.7,0.2,1.5,0.4,2.2
		c0.3,0.7,0.7,1.3,1.2,1.8c0.6,0.6,1.1,1.2,1.1,1.8S231.4,123.1,230.8,123.8z"/>
	<polygon fill="#FC6D26" points="253.8,99.9 249.4,101.9 256.1,104.2 	"/>
	<polygon fill="#CAB5FF" points="260.4,187.2 262.1,180.1 255,182.4 	"/>
	<path fill="#CAB5FF" d="M266.3,149c0.6-0.3,2.7-6.5,2.7-6.5l4.7,4.7L266.3,149z"/>
	<path fill="#FC6D26" d="M239.1,134.4c1.1,0,1.9,0.9,1.9,1.9c0,1.1-0.9,1.9-1.9,1.9c-1.1,0-1.9-0.9-1.9-1.9
		C237.2,135.3,238,134.4,239.1,134.4z"/>
	<path fill="#AC7FFF" d="M214.3,101.2c1,0,1.8,0.8,1.8,1.8c0,1-0.8,1.8-1.8,1.8c-1,0-1.8-0.8-1.8-1.8
		C212.5,102,213.3,101.2,214.3,101.2z"/>
	<path fill="#AC7FFF" d="M226.2,75.7c6.1,0,11,4.9,11,11s-4.9,11-11,11c-6.1,0-11-4.9-11-11S220.2,75.7,226.2,75.7z"/>
	<ellipse fill="#FFFFFF" cx="226.3" cy="86.8" rx="6.3" ry="4.8"/>
	<path fill="#FC6D26" d="M235.6,93.4l4.5,3.8v0.4c0.2,1.5-0.9,2.8-2.4,3c-0.1,0-0.3,0-0.4,0l-1.6,0.4l-3.7-4.4L235.6,93.4z"/>
	<circle fill="#CAB5FF" cx="192.9" cy="101.3" r="9.5"/>
	<path fill="#FFFFFF" d="M220.9,114.3c4.3,0,7.7,3.5,7.7,7.7c0,4.3-3.5,7.7-7.7,7.7c-4.3,0-7.7-3.5-7.7-7.7
		C213.2,117.7,216.6,114.3,220.9,114.3z"/>
	<path fill="#AC7FFF" d="M209.6,71.6L209.6,71.6c-2.7-2.3-6.7-2.4-9.5-0.3c0.1-1.9,0-3.7-0.2-5.5c-0.6-4.6-2.2-8.2-4.6-10.7
		C202.6,55.9,209.6,61.2,209.6,71.6z"/>
	<path fill="#AC7FFF" d="M191.7,53.8c-2.8,2.9-4.6,7-5.2,12.3c-0.3,2.1-0.3,4.2-0.3,6.3c-1.5-1.1-3.3-1.7-5.2-1.7
		c-2.1,0-5.1,2-6.7,3.4C173.6,62,179.5,55.9,191.7,53.8z"/>
	<path fill="#FC6D26" d="M166.8,83.1L166.8,83.1L166,85l-6.7-0.7l-1.3-6.6l1.7-1l2.2-1.3l-1,2.3c0,0.1-0.1,0.2-0.1,0.3v0.1v0.2v0.1
		v0.1l0.1,0.1l0.1,0.1l3.6,3.2l0.2,0.1l0.1,0.1h0.2h0.1h0.2h0.1l2.2-1.3L166.8,83.1z"/>
	<path fill="#FC6D26" d="M144,73.6l4.6-5.3c0.3-0.4,0.3-0.9-0.1-1.3l0,0l-3-2.6l9.8-4.2l-3.8,4.9c-0.3,0.4-0.2,0.9,0.1,1.2l3,2.6
		L144,73.6z"/>
	<path fill="#CAB5FF" d="M168.5,56.5c1.1,0,1.9,0.9,1.9,1.9s-0.9,1.9-1.9,1.9s-1.9-0.9-1.9-1.9S167.5,56.5,168.5,56.5z"/>
	<path fill="#CAB5FF" d="M147.5,42.6c1.3,0,2.4,1.1,2.4,2.4s-1.1,2.4-2.4,2.4s-2.3-1.1-2.3-2.4S146.2,42.6,147.5,42.6z"/>
	<path fill="#CAB5FF" d="M181.4,42.6c1.3,0,2.3,1.1,2.3,2.4s-1.1,2.4-2.3,2.4s-2.4-1.1-2.4-2.4S180.1,42.6,181.4,42.6z"/>
	<path fill="#FC6D26" d="M66.9,48.9c1.7,0,3.1,1.4,3.1,3.1s-1.4,3-3.1,3s-3-1.4-3-3S65.2,48.9,66.9,48.9z"/>
	<path fill="#FC6D26" d="M181.4,31.3c1.2,0,2.1,0.9,2.1,2.1s-0.9,2.1-2.1,2.1s-2.1-0.9-2.1-2.1S180.3,31.3,181.4,31.3z"/>
	<path fill="#FC6D26" d="M157.3,29.6l5.1-3.4l-1.5,3c-0.2,0.4-0.1,1,0.4,1.2l2.1,1.2l-5.5,3.8l1.9-3.4c0.2-0.4,0.1-1-0.3-1.2l0,0
		L157.3,29.6z"/>
	<polygon fill="#FC6D26" points="138.6,26.6 138.6,26.6 138.9,26.8 139,26.8 139.2,26.9 139.3,26.9 139.4,26.9 139.5,26.9 
		139.6,26.9 144.8,25.5 145,25.4 145.1,25.3 145.2,25.1 145.3,25 145.4,24.8 145.4,24.7 145.5,21.4 147.3,24.2 148.6,26.2 
		143.8,32.2 136.5,29.5 136.6,27.2 136.8,23.9 	"/>
	<path fill="#FFFFFF" d="M451.8,183.2c-4.7,0-8.4-3.8-8.4-8.4c0-4.6,3.8-8.4,8.4-8.4s8.4,3.8,8.4,8.4
		C460.2,179.5,456.4,183.2,451.8,183.2z"/>
	<path fill="#CAB5FF" d="M118.8,59.1h11.1c1.3,0,2.4,1.1,2.4,2.4v11.1c0,1.3-1.1,2.4-2.4,2.4h-11.1c-1.3,0-2.4-1.1-2.4-2.4V61.4
		C116.4,60.1,117.5,59.1,118.8,59.1z"/>
	<path fill="#FC6D26" d="M111.2,45c1.6,0,2.9,1.3,2.9,2.9s-1.3,2.9-2.9,2.9s-2.9-1.3-2.9-2.9S109.6,45,111.2,45z"/>
	<path fill="#FC6D26" d="M91.5,35.5l-2.7-1.1l0.4-3.1l-1.4-1.6l-2.4,0.8L83,27.8h-2.8l-1.6,2.7l-2.5-1l-3.1,2.8l0.6,1.5l-1.4,1.7
		v3.9l2.4,1.2L74,43.4l1.5,2.5l3.2-1.8l0.7,2.8h3.1l2.1-2.8l3,1l1.5-2.5l-0.4-2.5l2.6-1.7V35.5z M81.5,40.2c-1.6,0-2.9-1.3-2.9-2.9
		s1.3-2.9,2.9-2.9c1.6,0,2.9,1.3,2.9,2.9C84.4,38.9,83.1,40.2,81.5,40.2L81.5,40.2z"/>
	<path fill="#FC6D26" d="M139.6,232l-3-1.2l0.5-3.5l-1.6-1.8l-2.7,0.8l-2.7-3H127l-1.8,3l-2.8-1.1l-3.5,3.1l0.6,1.7l-1.6,1.9v4.3
		l2.7,1.3l-0.6,3.2l1.7,2.8l3.6-2l0.8,3.1h3.5l2.4-3.1l3.4,1.2l1.7-2.8l-0.5-2.8l2.9-1.9V232z M128.4,237.3c-1.8,0-3.3-1.4-3.3-3.2
		c0-1.8,1.4-3.3,3.2-3.3c1.8,0,3.3,1.4,3.3,3.2v0C131.6,235.8,130.2,237.3,128.4,237.3L128.4,237.3z"/>
	<polygon fill="#CAB5FF" points="103.7,65.3 101.8,70.5 93.5,66.2 91.5,71.3 79.4,57.3 98.1,55 95.8,60.4 103.6,61.9 	"/>
	<path fill="#CAB5FF" d="M60,60.4l1.3,7.1c0,0,6-4.4,5.6-4.4C66.5,63.2,60,60.4,60,60.4z"/>
	<path fill="#CAB5FF" d="M58.4,39.2c0,0-0.2,4.5,0,4.2c0.2-0.3,4.8-5.4,4.8-5.4L58.4,39.2z"/>
	<path fill="#FC6D26" d="M44.1,55.8L44.1,55.8V56v0.2l0.1,0.1l0.1,0.2l0.1,0.1l0.2,0.1l4.2,2c0.1,0.1,0.2,0.1,0.3,0.1h0.1h0.2
		l0.1-0.1l0.2-0.1l1.8-1.8l-0.3,2.5l-0.3,2l-6.6,1.2l-3.2-5.9l1.4-1.4l1.8-1.8L44.1,55.8z"/>
	<path fill="#CAB5FF" d="M73.4,71.6c7.7,0,14,6.3,14,14s-6.3,14-14,14s-14-6.3-14-14S65.7,71.6,73.4,71.6z"/>
	<path fill="#AC7FFF" d="M84.8,77.7l-6,4.6v5.5l4.3,1.5v6.1C83.1,95.3,91.9,85.9,84.8,77.7z"/>
	<path fill="#AC7FFF" d="M69.3,72.3l5.5,4.3l-0.3,4.6l-7,2.6L67,87l3.9,2.9l0.4,2.9L61,94.1C61,94.1,53.5,77.6,69.3,72.3z"/>
	<circle fill="#CAB5FF" cx="39.3" cy="115.1" r="12.8"/>
	<path fill="#AC7FFF" d="M49.7,107.8l-5.5,4.2v5l3.9,1.4v5.6C48.1,124,56.2,115.3,49.7,107.8z"/>
	<path fill="#AC7FFF" d="M35.6,103l5,3.9l-0.3,4.1l-6.4,2.3l-0.4,3L37,119l0.4,2.6l-9.4,1.2C28,122.8,21.2,107.8,35.6,103z"/>
	<path fill="#CAB5FF" d="M122.3,24.3c-0.7,0.2,0.6,1.8,0.8,2.8c0.9,7.3-19.4,4.2-21,4.8c-1.1,0.4,2.8,1.7,2.3,1.9l11.1,1.1h4.5
		c2.6,0,4.7-4,4.7-6.6C124.7,26.7,123.8,25.1,122.3,24.3z"/>
	<path fill="#CAB5FF" d="M98.1,178.2c-1,0.3,1,2.7,1.2,4.3c1.3,11.2-29.6,6.5-32.2,7.4c-1.2,0.4,0.2,1.6,0.9,2.4
		c0.4,0.4,0.9,0.7,1.5,0.8l18,1.5h6.9c4,0,7.2-6.1,7.2-10.1C101.6,181.8,100.3,179.5,98.1,178.2z"/>
	<polygon fill="#FC6D26" points="47.2,75.5 38,84.5 43.7,89.8 52.4,80.5 	"/>
	<polygon fill="#CAB5FF" points="38,84.5 36.9,90.8 43.7,89.8 	"/>
	<polygon fill="#CAB5FF" points="47.2,75.5 50.6,72.3 55.1,76.9 52.4,80.5 	"/>
	<path fill="#AC7FFF" d="M30.4,73.1c-0.1,0.2-4,5-4,5h4.4L30.4,73.1z"/>
	<path fill="#AC7FFF" d="M12.7,134.5h52v3.3c0,1.4-1.2,2.6-2.6,2.6H15.3c-1.4,0-2.6-1.2-2.6-2.6L12.7,134.5L12.7,134.5z"/>
	<path fill="#AC7FFF" d="M188.1,154.1c6,0,10.9,4.9,10.9,11c0,6-4.9,10.9-10.9,10.9s-11-4.9-11-10.9
		C177.1,159,182,154.1,188.1,154.1z"/>
	<path fill="#FC6D26" d="M197.4,171.4l4.5,3.8v0.4c0.2,1.5-0.9,2.8-2.4,3c-0.1,0-0.3,0-0.4,0l-3-1l-2.1-3.2L197.4,171.4z"/>
	<path fill="#FFFFFF" d="M188.1,173.4c-4.6,0-8.4-3.8-8.4-8.4s3.8-8.4,8.4-8.4c4.7,0,8.4,3.8,8.4,8.4
		C196.5,169.6,192.8,173.4,188.1,173.4z"/>
	<path fill="#FFFFFF" d="M249.5,126c-0.5,0.8-6.8,0.6-4.9-1.7C246.7,121.9,250.6,124.3,249.5,126z"/>
	<path fill="#FFFFFF" d="M268.3,136.6c-0.5,0.8-6.8,0.6-4.9-1.7C265.5,132.5,269.5,134.8,268.3,136.6z"/>
	<path fill="#CAB5FF" d="M19,162c0.1,0.5,0.7,0.7,1.1,0.6c6.1-1.9,11.2-6,14.3-11.6c6.2,3.6,13.8,4.2,20.5,1.7
		c1,3.7,1.9,6.7,2.7,9.4c2,6.5,3.2,10.4,2.2,15.8c-0.9,5.1-6.9,13.5-12.7,17.8c-7.2-0.6-16.7-4.5-20.2-8.4
		c-3.7-4.1-4.7-8.1-6.5-14.7c-0.8-3-1.7-6.3-3-10.4l-0.5-0.6l2.6-0.8L19,162z"/>
	<path fill="#FFFFFF" d="M24.3,164.8c4.4-1.3,8.1-4.2,10.6-8c0.5-0.7,1.4-1,2.1-0.6c4.2,2,9,2.4,13.5,1.2c0.9-0.2,1.8,0.3,2,1.2
		c0.6,2.2,1.2,4.1,1.7,5.8c1.6,5.2,2.5,8.3,1.8,12.7c-0.7,4-5.2,10.3-9.6,13.8c-0.3,0.3-0.8,0.4-1.2,0.3c-5.6-0.6-12.8-3.7-15.5-6.7
		c-2.9-3.3-3.8-6.5-5.2-11.7c-0.5-2-0.9-3.5-1.6-5.8c-0.3-0.9,0.2-1.8,1.1-2.1L24.3,164.8z"/>
	<path fill="#FC6D26" d="M32.6,175.6l1.6-2.8c0.1-0.2,0.2-0.2,0.4-0.2l0.2,0.1l3.3,1.9c0.2,0.1,0.5,0.1,0.7,0.1
		c0.2-0.1,0.4-0.2,0.5-0.4l4.9-8.7c0.1-0.2,0.4-0.3,0.6-0.2l2.9,1.6c0.1,0.1,0.2,0.2,0.2,0.3c0,0.1,0,0.2,0,0.4l-6.7,12
		c-0.2,0.3-0.4,0.5-0.8,0.6c-0.3,0.1-0.7,0.1-1-0.1l-6.6-3.7C32.6,176.1,32.5,175.8,32.6,175.6z"/>
	<path fill="#FC6D26" d="M70.4,164.1l-1.4-3.6c-0.2-0.5-0.7-0.7-1.2-0.5l0,0l-2.2,0.9l0.5-6.1l1.4,3.1c0.2,0.4,0.7,0.6,1.1,0.5
		l2.2-0.9L70.4,164.1z"/>
	<circle fill="#CAB5FF" cx="175.2" cy="225" r="8.3"/>
	<path fill="#FFFFFF" d="M175.2,216.6v8.4l7-4.6C182.2,220.4,179.6,216.3,175.2,216.6z"/>
	<path fill="#AC7FFF" d="M182.2,220.4l-7,4.6l5.9,5.9C181,230.9,185.8,227.9,182.2,220.4z"/>
	<path fill="#CAB5FF" d="M158.9,207.6c1.3,0,2.4,1.1,2.4,2.3s-1.1,2.4-2.4,2.4s-2.4-1.1-2.4-2.4S157.6,207.6,158.9,207.6z"/>
	<path fill="#CAB5FF" d="M158.9,178.3c1.3,0,2.4,1.1,2.4,2.3s-1.1,2.4-2.4,2.4s-2.4-1.1-2.4-2.4S157.6,178.3,158.9,178.3z"/>
	<path fill="#FC6D26" d="M169.8,178.5c1.2,0,2.1,0.9,2.1,2.1s-0.9,2.1-2.1,2.1s-2.1-0.9-2.1-2.1S168.7,178.5,169.8,178.5z"/>
	<path fill="#FC6D26" d="M132,188c1.5,0,2.8,1.2,2.8,2.8s-1.2,2.8-2.8,2.8c-1.5,0-2.8-1.2-2.8-2.8S130.5,188,132,188z"/>
	<path fill="#FC6D26" d="M141.7,214.1l-6.3-2.2l0.1-2l0.1-2.5l1.4,2.1c0.1,0.1,0.1,0.2,0.2,0.2l0.1,0.1l0.2,0.1h0.1h0.1h0.1h0.2
		l4.5-1.3l0.2-0.1l0.1-0.1l0.1-0.2l0-0.1l0.1-0.2v-0.2l0.1-2.5l1.4,2.1l1.1,1.7L141.7,214.1z"/>
	<path fill="#FC6D26" d="M213,194.7l-3.2-5.9l1.4-1.4l1.8-1.8l-0.3,2.5v0.2v0.2l0.1,0.1l0.1,0.2l0.1,0.1l0.2,0.1l4.2,2
		c0.1,0,0.2,0.1,0.3,0.1h0.1l0.2,0h0.1l0.2-0.2l1.8-1.8l-0.3,2.5l-0.3,2L213,194.7z"/>
	<polygon fill="#FC6D26" points="149.7,223.8 152.5,234 155.4,231.5 161.2,238.3 158,226.1 154.5,227.8 	"/>
	<polygon fill="#FFFFFF" points="90.6,205.1 90.3,210.2 111.2,212.3 111.8,207.6 	"/>
	<path fill="#FFFFFF" d="M92.1,210.9l-0.4,4.2L91,237c0.9,3.3,3.9,5.6,7.3,5.6c6,0,8.1-7.2,8.1-7.2l2.8-19.1v-3.4L92.1,210.9z"/>
	<path fill="#CAB5FF" d="M104.2,228.5l-0.5,5.7c-0.1,1.1-0.5,2.2-1.3,3.1c-1.9,2-5,2.1-7,0.3c-1.1-1-1.7-2.5-1.6-4.1l0.6-6
		c0-0.3,0.3-0.5,0.5-0.4l0,0l8.9,0.9C104.1,228,104.3,228.2,104.2,228.5L104.2,228.5z"/>
	<path fill="#CAB5FF" d="M107.3,195.1c1.3,0,2.4,1.1,2.4,2.4c0,1.3-1.1,2.4-2.4,2.4s-2.4-1.1-2.4-2.4
		C104.9,196.2,106,195.1,107.3,195.1z"/>
	<polygon fill="#FC6D26" points="67.7,109.2 71.2,115.1 74.8,109.2 	"/>
	<polygon fill="#FC6D26" points="85.4,229.7 78.1,230.1 81.3,237.3 	"/>
	<path fill="#FC6D26" d="M15.8,149.6c1.2,0,2.2,1,2.2,2.2c0,1.2-1,2.2-2.2,2.2c-1.2,0-2.2-1-2.2-2.2
		C13.6,150.5,14.6,149.6,15.8,149.6z"/>
	<path fill="#FC6D26" d="M305.1,98.4c0.2-0.5,0-1-0.4-1.2l-2.8-1.3l6.4-5.2l-1.7,4.4c-0.2,0.4,0,0.9,0.5,1.1l2.8,1.3l-7,5.7
		L305.1,98.4z"/>
	<polygon fill="#FC6D26" points="282.4,87.7 280.8,95.4 275,90.5 	"/>
	<path fill="#380D75" d="M139.5,231.4l-1.9-0.7c-0.2-0.1-0.4-0.2-0.5-0.5c-0.1-0.2-0.1-0.4,0-0.7l0.8-1.8c0.1-0.3,0.1-0.7-0.1-0.9
		c-0.7-1-1.6-1.9-2.6-2.6c-0.3-0.2-0.6-0.2-0.9-0.1l-1.8,0.8c-0.2,0.1-0.4,0.1-0.6,0c-0.2-0.1-0.4-0.3-0.4-0.5l-0.7-1.9
		c-0.1-0.3-0.4-0.5-0.7-0.6c-1.2-0.2-2.5-0.2-3.7,0c-0.3,0.1-0.6,0.3-0.7,0.6l-0.7,1.9c-0.1,0.2-0.2,0.4-0.5,0.5
		c-0.2,0.1-0.4,0.1-0.6,0l-1.8-0.8c-0.3-0.1-0.6-0.1-0.9,0.1c-1,0.7-1.9,1.6-2.6,2.6c-0.3,0.4-0.2,1,0.2,1.2l0,0
		c0.4,0.3,1,0.3,1.3-0.1l0,0c0.5-0.7,1.1-1.4,1.8-1.9l1.3,0.6c1.3,0.6,2.9,0,3.5-1.3l0.1-0.2l0.5-1.4c0.7-0.1,1.4-0.1,2.1,0l0.5,1.4
		c0.5,1.4,2,2.1,3.4,1.5l0.2-0.1l1.3-0.6c0.5,0.4,1,0.9,1.5,1.5l-0.6,1.3c-0.3,0.7-0.3,1.4,0,2.1c0.3,0.7,0.8,1.2,1.5,1.5l1.4,0.5
		c0.1,0.7,0.1,1.4,0,2.1l-1.4,0.5c-1.4,0.5-2.1,2-1.6,3.4l0.1,0.2l0.6,1.3c-0.4,0.5-0.9,1-1.5,1.5l-1.3-0.6c-0.7-0.3-1.4-0.3-2.1,0
		c-0.7,0.3-1.2,0.8-1.5,1.5l-0.5,1.3c-0.7,0.1-1.4,0.1-2.1,0l-0.5-1.3c-0.5-1.4-2-2.1-3.4-1.6l-0.2,0.1l-1.3,0.6
		c-0.6-0.4-1.1-0.9-1.5-1.5l0.6-1.3c0.3-0.7,0.3-1.4,0-2.1c-0.3-0.7-0.8-1.2-1.5-1.5l-1.4-0.5c-0.1-0.7-0.1-1.4,0-2.1l1.4-0.5
		c0.7-0.2,1.3-0.8,1.5-1.5c0.2-0.5,0-1-0.5-1.2s-1,0-1.2,0.5c-0.1,0.2-0.2,0.4-0.5,0.5l-1.9,0.7c-0.3,0.1-0.5,0.4-0.6,0.7
		c-0.2,1.2-0.2,2.5,0,3.7c0,0.3,0.3,0.6,0.6,0.7l1.9,0.7c0.2,0.1,0.4,0.2,0.5,0.5c0.1,0.2,0.1,0.4,0,0.6l-0.8,1.8
		c-0.1,0.3-0.1,0.7,0.1,0.9c0.7,1,1.6,1.9,2.6,2.6c0.3,0.2,0.6,0.2,0.9,0.1l1.8-0.8c0.2-0.1,0.4-0.1,0.6,0c0.2,0.1,0.4,0.3,0.4,0.5
		l0.7,1.9c0.1,0.3,0.4,0.5,0.7,0.6c1.2,0.2,2.5,0.2,3.7,0c0.3-0.1,0.6-0.3,0.7-0.6l0.7-1.9c0.1-0.2,0.2-0.4,0.5-0.5
		c0.2-0.1,0.4-0.1,0.6,0l1.8,0.8c0.3,0.1,0.7,0.1,0.9-0.1c1-0.7,1.9-1.6,2.6-2.6c0.2-0.3,0.2-0.6,0.1-0.9l-0.8-1.8
		c-0.1-0.2-0.1-0.4,0-0.6c0.1-0.2,0.3-0.4,0.5-0.5l1.9-0.7c0.3-0.1,0.5-0.4,0.6-0.7c0.2-1.2,0.2-2.5,0-3.7
		C140.1,231.8,139.9,231.5,139.5,231.4z"/>
	<path fill="#380D75" d="M128.2,238.3c2.4,0,4.3-1.9,4.3-4.3s-1.9-4.3-4.3-4.3c-2.4,0-4.3,1.9-4.3,4.3v0
		C123.9,236.4,125.9,238.3,128.2,238.3z M128.2,231.5c1.4,0,2.5,1.1,2.5,2.5s-1.1,2.5-2.5,2.5c-1.4,0-2.5-1.1-2.5-2.5
		C125.8,232.6,126.9,231.5,128.2,231.5z"/>
	<path fill="#380D75" d="M71.5,39.7l1.6,0.6c0.2,0.1,0.3,0.2,0.4,0.3c0.1,0.2,0.1,0.3,0,0.5l-0.7,1.6c-0.1,0.3-0.1,0.7,0.1,0.9
		c0.7,0.9,1.4,1.7,2.3,2.4c0.3,0.2,0.6,0.2,0.9,0.1l1.6-0.7c0.2-0.1,0.3-0.1,0.5,0c0.2,0.1,0.3,0.2,0.3,0.4l0.6,1.6
		c0.1,0.3,0.4,0.5,0.7,0.6c1.1,0.2,2.2,0.2,3.3,0c0.3-0.1,0.6-0.3,0.7-0.6l0.6-1.6c0.1-0.2,0.2-0.3,0.3-0.4c0.2-0.1,0.3-0.1,0.5,0
		l1.6,0.7c0.3,0.1,0.7,0.1,0.9-0.1c0.9-0.7,1.7-1.5,2.4-2.4c0.2-0.3,0.2-0.6,0.1-0.9l-0.7-1.6c-0.1-0.2-0.1-0.3,0-0.5
		c0.1-0.2,0.2-0.3,0.4-0.3l1.6-0.6c0.3-0.1,0.5-0.4,0.6-0.7c0.2-1.1,0.2-2.2,0-3.3c-0.1-0.3-0.3-0.6-0.6-0.7l-1.6-0.6
		c-0.2-0.1-0.3-0.2-0.4-0.3c-0.1-0.2-0.1-0.3,0-0.5l0.7-1.6c0.1-0.3,0.1-0.7-0.1-0.9c-0.7-0.9-1.4-1.7-2.4-2.3
		c-0.3-0.2-0.6-0.2-0.9-0.1l-1.6,0.7c-0.2,0.1-0.3,0.1-0.5,0c-0.2-0.1-0.3-0.2-0.3-0.3l-0.6-1.7c-0.1-0.3-0.4-0.5-0.7-0.6
		c-1.1-0.2-2.2-0.2-3.3,0c-0.3,0.1-0.6,0.3-0.7,0.6L78.5,29c-0.1,0.3-0.5,0.5-0.8,0.4l0,0l-1.6-0.7c-0.3-0.1-0.7-0.1-0.9,0.1
		c-0.9,0.7-1.7,1.4-2.3,2.4c-0.3,0.4-0.2,1,0.2,1.3l0,0c0.4,0.3,1,0.2,1.2-0.2l0,0c0.4-0.6,1-1.1,1.5-1.6l1.1,0.5
		c0.6,0.3,1.4,0.3,2,0c0.6-0.3,1.1-0.8,1.4-1.4l0.4-1.1c0.6-0.1,1.1-0.1,1.7,0l0.4,1.1c0.5,1.3,1.9,1.9,3.2,1.4l0.1-0.1l1.1-0.5
		c0.4,0.4,0.8,0.8,1.2,1.2l-0.5,1.1c-0.6,1.2,0,2.7,1.2,3.2l0.1,0.1l1.1,0.4c0.1,0.6,0.1,1.1,0,1.7l-1.1,0.4
		c-1.3,0.5-1.9,1.9-1.4,3.1l0.1,0.2l0.5,1.1c-0.4,0.4-0.8,0.8-1.2,1.2l-1.1-0.5c-1.2-0.6-2.7,0-3.2,1.2L82.8,45l-0.4,1.1
		c-0.6,0-1.1,0-1.7,0L80.2,45c-0.5-1.3-1.9-1.9-3.1-1.4L77,43.6l-1.1,0.5c-0.4-0.4-0.8-0.8-1.2-1.2l0.5-1.1c0.6-1.2,0-2.7-1.2-3.2
		l-0.2-0.1l-1.1-0.4c-0.1-0.6-0.1-1.1,0-1.7l1.1-0.4c0.6-0.2,1.2-0.7,1.4-1.4c0.2-0.4,0.1-1-0.3-1.2c-0.4-0.2-1-0.1-1.2,0.3
		c0,0.1-0.1,0.2-0.1,0.3c-0.1,0.2-0.2,0.3-0.4,0.3l-1.6,0.6c-0.3,0.1-0.5,0.4-0.6,0.7c-0.2,1.1-0.2,2.2,0,3.3
		C71,39.3,71.2,39.5,71.5,39.7z"/>
	<path fill="#380D75" d="M81.5,41.2c2.1,0,3.9-1.7,3.9-3.9s-1.7-3.9-3.9-3.9c-2.1,0-3.9,1.7-3.9,3.9S79.4,41.2,81.5,41.2z
		 M81.5,35.2c1.1,0,2.1,0.9,2.1,2.1s-0.9,2.1-2.1,2.1c-1.1,0-2.1-0.9-2.1-2.1S80.4,35.2,81.5,35.2z"/>
	<path fill="#380D75" d="M105.3,34.9h10.1c0.5,0.1,0.9-0.3,1-0.8c0.1-0.5-0.3-0.9-0.8-1h-0.2h-10.1c-2.2,0-3.9-1.8-3.9-3.9
		c0-2.2,1.8-3.9,3.9-3.9c0.2,0,0.3,0,0.5,0c0.5,0,1-0.3,1-0.8c0.2-3,2.8-5.3,5.8-5.1c2.3,0.1,4.3,1.7,4.9,3.9
		c0.1,0.5,0.6,0.7,1.1,0.6c2.5-0.7,5.1,0.8,5.8,3.3c0.7,2.5-0.8,5.1-3.3,5.8c-0.4,0.1-0.8,0.2-1.2,0.2c-0.5,0.1-0.9,0.5-0.8,1
		c0,0.4,0.4,0.8,0.8,0.8c3.6,0,6.5-2.9,6.5-6.5s-2.9-6.5-6.5-6.5c-0.3,0-0.6,0-0.8,0c-1.6-3.7-5.9-5.4-9.6-3.8c-2.2,1-3.8,3-4.3,5.4
		c-3.2,0-5.7,2.6-5.7,5.8C99.5,32.4,102.1,34.9,105.3,34.9L105.3,34.9z"/>
	<path fill="#380D75" d="M72.3,180.3c0.3,0,0.6,0,0.8,0c0.5,0.1,0.9-0.3,1-0.8l0-0.1c0.3-4.7,4.4-8.2,9.1-7.8c3.5,0.2,6.5,2.6,7.5,6
		c0.1,0.5,0.6,0.7,1.1,0.6c0.6-0.2,1.2-0.2,1.9-0.2c4,0.1,7.2,3.6,7.1,7.6c-0.1,3.8-3.2,6.9-7.1,7.1c-0.5-0.1-0.9,0.3-1,0.8
		c-0.1,0.5,0.3,0.9,0.8,1h0.2c5,0,9.1-4.1,9.1-9.1c0-5-4.1-9.1-9.1-9.1c-0.5,0-1,0-1.5,0.1c-2.1-5.3-8-7.9-13.3-5.8
		c-3.4,1.3-5.8,4.4-6.4,8h-0.1c-4.4,0-8,3.6-8,8s3.6,8,8,8h14.8c0.5-0.1,0.9-0.5,0.8-1c0-0.4-0.4-0.8-0.8-0.8H72.3
		c-3.4-0.1-6.1-3-5.9-6.4C66.5,183,69.1,180.4,72.3,180.3z"/>
	<path fill="#380D75" d="M201.5,173.3l-3-2.1c3.4-5.7,1.6-13.1-4.1-16.5c-1.9-1.1-4-1.7-6.2-1.7c-0.8,0-1.6,0.1-2.4,0.2
		c-6.5,1.4-10.6,7.7-9.3,14.2c1.4,6.5,7.7,10.6,14.2,9.3c2.6-0.6,5-2,6.7-4l3.1,2.1c0.8,0.6,1,1.7,0.5,2.5c-0.6,0.8-1.7,1-2.5,0.5
		c-0.2-0.1-0.3-0.3-0.5-0.5L197,176c-0.2-0.5-0.7-0.7-1.2-0.5c-0.5,0.2-0.7,0.7-0.5,1.2c0,0.1,0.1,0.2,0.2,0.3l0.9,1.3
		c0.6,0.9,1.6,1.5,2.7,1.5h0.3c2,0,3.6-1.6,3.6-3.6C203,175.1,202.4,173.9,201.5,173.3L201.5,173.3z M188.1,175.2
		c-5.6,0-10.2-4.6-10.2-10.2c0-4.8,3.4-9,8.1-10c0.7-0.1,1.4-0.2,2.1-0.2c5.6,0,10.2,4.6,10.2,10.2
		C198.3,170.6,193.8,175.2,188.1,175.2z"/>
	<path fill="#380D75" d="M184.2,165.2l2.8-2.9c0.4-0.3,0.4-0.9,0.1-1.3c-0.3-0.4-0.9-0.4-1.3-0.1l-0.1,0.1l-3.4,3.6
		c-0.4,0.3-0.4,0.9,0,1.3l0,0l3.6,3.4c0.2,0.2,0.4,0.2,0.6,0.2c0.2,0,0.5-0.1,0.7-0.3c0.4-0.4,0.4-0.9,0-1.3L184.2,165.2z"/>
	<path fill="#380D75" d="M190.1,165l2.8-3c0.4-0.3,0.4-0.9,0.1-1.3s-0.9-0.4-1.3-0.1l-0.1,0.1l-3.4,3.6c-0.2,0.2-0.3,0.4-0.2,0.7
		c0,0.2,0.1,0.5,0.3,0.6l3.6,3.4c0.2,0.2,0.4,0.3,0.6,0.2c0.5,0,0.9-0.4,0.9-0.9c0-0.2-0.1-0.5-0.3-0.7L190.1,165z"/>
	<path fill="#380D75" d="M431.4,130.2v-15.3c1.8-0.5,2.8-2.3,2.3-4.1s-2.3-2.8-4.1-2.3c-1.8,0.5-2.8,2.3-2.3,4.1
		c0.3,1.1,1.2,2,2.3,2.3V126c-0.3-0.3-0.6-0.5-0.9-0.7l-6.6-4.4c-1.2-0.8-1.9-2.1-1.9-3.5v-2.5c1.8-0.5,2.8-2.3,2.3-4.1
		c-0.5-1.8-2.3-2.8-4.1-2.3s-2.8,2.3-2.3,4.1c0.3,1.1,1.2,2,2.3,2.3v2.5c0,2,1,3.9,2.7,5l6.6,4.4c1.2,0.7,1.9,2,1.9,3.4v1.3
		c-1.8,0.5-2.8,2.3-2.3,4.1c0.5,1.8,2.3,2.8,4.1,2.3c1.8-0.5,2.8-2.3,2.3-4.1c-0.3-1.1-1.2-2-2.3-2.3V130.2L431.4,130.2z
		 M417.8,111.7c0-0.8,0.7-1.5,1.5-1.5c0.8,0,1.5,0.7,1.5,1.5c0,0.8-0.7,1.5-1.5,1.5C418.5,113.2,417.8,112.5,417.8,111.7z
		 M429,111.7c0-0.8,0.7-1.5,1.5-1.5c0.8,0,1.5,0.7,1.5,1.5c0,0.8-0.7,1.5-1.5,1.5C429.7,113.2,429,112.5,429,111.7L429,111.7z
		 M432,134.7c0,0.8-0.7,1.5-1.5,1.5c-0.8,0-1.5-0.7-1.5-1.5c0-0.8,0.7-1.5,1.5-1.5C431.3,133.2,432,133.9,432,134.7L432,134.7
		L432,134.7z"/>
	<path fill="#380D75" d="M159.8,199.1c0-1.4,0.7-2.6,1.9-3.4l6.6-4.4c1.7-1.1,2.7-3,2.7-5v-2.5c1.8-0.5,2.8-2.3,2.3-4.1
		c-0.5-1.8-2.3-2.8-4.1-2.3c-1.8,0.5-2.8,2.3-2.3,4.1c0.3,1.1,1.2,2,2.3,2.3v2.5c0,1.4-0.7,2.7-1.9,3.5l-6.6,4.4
		c-0.3,0.2-0.6,0.5-0.9,0.7v-11.2c1.8-0.5,2.8-2.3,2.3-4.1c-0.5-1.8-2.3-2.8-4.1-2.3c-1.8,0.5-2.8,2.3-2.3,4.1
		c0.3,1.1,1.2,2,2.3,2.3V207c-1.8,0.5-2.8,2.3-2.3,4.1c0.5,1.8,2.3,2.8,4.1,2.3c1.8-0.5,2.8-2.3,2.3-4.1c-0.3-1.1-1.2-2-2.3-2.3
		V199.1L159.8,199.1z M168.5,180.6c0-0.8,0.7-1.5,1.5-1.5s1.5,0.7,1.5,1.5c0,0.8-0.7,1.5-1.5,1.5S168.5,181.4,168.5,180.6z
		 M157.4,180.6c0-0.8,0.7-1.5,1.5-1.5s1.5,0.7,1.5,1.5c0,0.8-0.7,1.5-1.5,1.5S157.4,181.4,157.4,180.6z M160.4,210.2
		c0,0.8-0.7,1.5-1.5,1.5c-0.8,0-1.5-0.7-1.5-1.5c0-0.8,0.7-1.5,1.5-1.5C159.7,208.6,160.4,209.3,160.4,210.2L160.4,210.2
		L160.4,210.2z"/>
	<path fill="#380D75" d="M163,44h-12.3c-0.5-1.8-2.3-2.8-4.1-2.3c-1.8,0.5-2.8,2.3-2.3,4.1c0.5,1.8,2.3,2.8,4.1,2.3
		c1.1-0.3,2-1.2,2.3-2.3h27.5c0.5,1.8,2.3,2.8,4.1,2.3c1.8-0.5,2.8-2.3,2.3-4.1c-0.5-1.8-2.3-2.8-4.1-2.3c-1.1,0.3-2,1.2-2.3,2.3
		h-11.1c0.3-0.3,0.5-0.6,0.7-0.9l4.4-6.6c0.8-1.2,2.1-1.9,3.5-1.9h2.5c0.5,1.8,2.3,2.8,4.1,2.3c1.8-0.5,2.8-2.3,2.3-4.1
		c-0.5-1.8-2.3-2.8-4.1-2.3c-1.1,0.3-2,1.2-2.3,2.3h-2.5c-2,0-3.9,1-5,2.7l-4.4,6.6C165.6,43.3,164.4,44,163,44z M147.6,46.4
		c-0.8,0-1.6-0.6-1.6-1.4c0-0.8,0.6-1.6,1.4-1.6c0.8,0,1.6,0.6,1.6,1.4l0,0.1C149,45.7,148.3,46.4,147.6,46.4L147.6,46.4z
		 M181.5,43.4c0.8,0,1.5,0.7,1.5,1.5c0,0.8-0.7,1.5-1.5,1.5c-0.8,0-1.5-0.7-1.5-1.5v0C179.9,44.1,180.6,43.4,181.5,43.4L181.5,43.4z
		 M181.5,32.3c0.8,0,1.5,0.7,1.5,1.5c0,0.8-0.7,1.5-1.5,1.5c-0.8,0-1.5-0.7-1.5-1.5v0C179.9,33,180.6,32.3,181.5,32.3L181.5,32.3z"
		/>
	<path fill="#380D75" d="M435,165.9c0.3,0.4,0.9,0.4,1.3,0l0,0c2.3-2.3,3.7-5.4,3.8-8.7c0.2-6.9-5.3-12.7-12.2-12.8
		c-6.9-0.2-12.7,5.3-12.8,12.2c-0.1,4.1,1.8,7.9,5.1,10.3c0.5,0.4,0.9,1,0.8,1.7l-0.1,3.1c-0.1,3.5,2.7,6.4,6.2,6.5h0.1
		c3.5,0,6.3-2.8,6.4-6.2l0.1-3.1c0-0.5-0.4-0.9-0.9-0.9h-0.1h-4.2v-8.8l1.5-1.7l1.7,2c0.3,0.4,0.9,0.4,1.3,0.1
		c0.4-0.3,0.4-0.9,0.1-1.3l-2.3-2.8c-0.2-0.2-0.4-0.3-0.7-0.3c-0.3,0-0.5,0.1-0.7,0.3l-1.7,2l-1.7-2c-0.4-0.4-1-0.4-1.4,0l-2.4,2.8
		c-0.3,0.4-0.3,1,0.1,1.3c0.2,0.1,0.4,0.2,0.6,0.2c0.3,0,0.5-0.1,0.7-0.3l1.7-2l1.4,1.7v8.8h-4c-0.2-1-0.7-1.9-1.5-2.5
		c-2.9-2.2-4.5-5.7-4.3-9.3c0.3-5.9,5.3-10.5,11.2-10.2s10.5,5.3,10.2,11.2c-0.1,2.8-1.2,5.5-3.2,7.4
		C434.6,165,434.6,165.5,435,165.9L435,165.9z M431.8,169.9v2.1v0.3h-9.1c0-0.2,0-0.3,0-0.5v-1.9H431.8z M427.1,176.5
		c-1.6,0-3.1-0.9-3.9-2.4h8C430.4,175.6,428.8,176.5,427.1,176.5L427.1,176.5z"/>
	<path fill="#380D75" d="M391,44.7c0,2.9,1.7,5.5,4.3,6.7c-4.9,1.5-8.2,6.2-8,11.3c0,0.4,0.3,0.8,0.8,0.9c3.5,0.6,7,0.9,10.5,0.9
		c3.5,0,7-0.3,10.5-0.9c0.4-0.1,0.7-0.5,0.8-0.9c0.2-5.2-3.1-9.8-8-11.3c3.7-1.8,5.3-6.2,3.5-10c-1.1-2.3-3.3-3.9-5.9-4.2
		c-2.1-0.2-4.2,0.4-5.8,1.9C391.9,40.6,391,42.6,391,44.7z M394.7,40.5c1.2-1.1,2.8-1.6,4.4-1.4c3.1,0.4,5.3,3.2,5,6.2
		c-0.2,2-1.4,3.6-3.2,4.5c-0.9,0.4-1.3,1.5-0.8,2.4c0.2,0.4,0.6,0.8,1.1,0.9c4,1.1,6.7,4.7,6.8,8.9c-6.2,1-12.6,1-18.8,0
		c0.1-4.1,2.9-7.7,6.8-8.8c0.7-0.2,1.2-0.9,1.2-1.7v-0.1c0-0.7-0.4-1.3-1-1.6c-2-0.9-3.2-2.9-3.2-5.1
		C392.8,43.1,393.5,41.6,394.7,40.5L394.7,40.5z"/>
	<path fill="#380D75" d="M405.3,37.3c0,0.5,0.3,0.9,0.8,1c2.5,0.3,4.2,2.5,3.9,5c-0.2,1.5-1.1,2.9-2.5,3.5c-0.6,0.3-0.9,0.9-0.9,1.5
		c0,0.7,0.5,1.3,1.1,1.5c3.2,0.9,5.4,3.7,5.4,7l-1.3,0.2c-0.5,0.1-0.8,0.5-0.8,1c0.1,0.4,0.4,0.8,0.9,0.8h0.1
		c0.7-0.1,1.4-0.2,2.1-0.3c0.4-0.1,0.7-0.5,0.8-0.9c0.2-4.2-2.4-8-6.3-9.3c3-1.7,4.1-5.5,2.4-8.6c-1-1.8-2.8-3-4.8-3.2
		C405.8,36.5,405.4,36.8,405.3,37.3z"/>
	<path fill="#380D75" d="M381.9,57.5c0,0.4,0.3,0.8,0.8,0.9c0.6,0.1,1.2,0.2,1.8,0.3h0.1c0.5,0,0.9-0.4,0.9-0.9
		c0-0.4-0.3-0.8-0.8-0.9l-0.9-0.1c0.1-3.3,2.3-6.1,5.4-7c0.9-0.3,1.3-1.2,1-2.1c-0.1-0.4-0.4-0.7-0.8-0.9c-2.2-1-3.2-3.7-2.2-5.9
		c0.7-1.4,2-2.4,3.5-2.5c0.5-0.1,0.9-0.5,0.8-1c-0.1-0.5-0.5-0.9-1-0.8c-3.5,0.4-5.9,3.5-5.5,7c0.2,2,1.4,3.8,3.2,4.8
		C384.3,49.6,381.7,53.4,381.9,57.5z"/>
	<path fill="#380D75" d="M368.5,216.6l0.9-0.9c0.4-0.4,0.4-0.9,0-1.3c-0.3-0.4-0.9-0.4-1.3,0l0,0l-2.4,2.4c-0.4,0.4-0.4,0.9,0,1.3
		l0,0l2.4,2.4c0.2,0.2,0.4,0.3,0.6,0.3c0.2,0,0.5-0.1,0.6-0.3c0.4-0.4,0.4-0.9,0-1.3l-0.8-0.8c7,0.6,12.2,6.7,11.6,13.7
		c-0.4,4.7-3.3,8.8-7.6,10.6c-0.5,0.2-0.7,0.7-0.5,1.2c0.1,0.3,0.5,0.5,0.8,0.5c0.1,0,0.2,0,0.4-0.1c7.4-3.2,10.8-11.7,7.6-19.1
		C378.7,220.4,373.9,217,368.5,216.6L368.5,216.6z"/>
	<path fill="#380D75" d="M367,241.7c-0.3-0.4-0.9-0.4-1.3,0l0,0c-0.4,0.4-0.4,0.9,0,1.3l0.8,0.8c-7-0.6-12.2-6.7-11.7-13.7
		c0.4-4.7,3.4-8.8,7.7-10.7c0.5-0.2,0.7-0.7,0.5-1.2l0,0c-0.2-0.5-0.7-0.7-1.2-0.5c-7.4,3.1-10.9,11.6-7.8,19
		c2.1,5.1,7,8.5,12.5,8.9l-0.9,0.9c-0.4,0.4-0.4,0.9,0,1.3c0.2,0.2,0.4,0.3,0.6,0.3c0.2,0,0.5-0.1,0.6-0.3l2.4-2.4
		c0.4-0.4,0.4-0.9,0-1.3l0,0L367,241.7z"/>
	<path fill="#380D75" d="M362.7,227.5c-0.3-0.4-0.9-0.4-1.3,0l0,0l-3,3c-0.4,0.3-0.4,0.9,0,1.3l0,0l3,3c0.2,0.2,0.4,0.3,0.6,0.3
		c0.5,0,0.9-0.4,0.9-0.9c0-0.2-0.1-0.5-0.3-0.6l-2.4-2.4l2.4-2.4C363,228.4,363,227.8,362.7,227.5z"/>
	<path fill="#380D75" d="M373.1,234.8c0.4,0.4,0.9,0.4,1.3,0l0,0l3-3c0.4-0.4,0.4-0.9,0-1.3l-3-3c-0.3-0.4-0.9-0.4-1.3-0.1
		c-0.4,0.3-0.4,0.9-0.1,1.3l0.1,0.1l2.4,2.4l-2.4,2.4C372.8,233.8,372.8,234.4,373.1,234.8z"/>
	<path fill="#380D75" d="M369.8,225.7c-0.5-0.2-1,0.1-1.1,0.6l-3.1,9.2c-0.2,0.5,0.1,1,0.5,1.1c0.1,0,0.2,0.1,0.3,0.1
		c0.4,0,0.7-0.2,0.9-0.6l3.1-9.2C370.5,226.4,370.2,225.8,369.8,225.7z"/>
	<path fill="#380D75" d="M294.7,72.7h10.9v4.8h-14.8c-0.5,0-0.9,0.4-0.9,0.9v0v4.5c0,0.5,0.4,0.9,0.9,0.9h0h31.4
		c0.2,0,0.5-0.1,0.6-0.3c0.2-0.2,0.3-0.4,0.3-0.6v-4.5c0-0.5-0.4-0.9-0.9-0.9h0h-14.8v-4.8h10.9c2.6,0,4.8-2.1,4.8-4.8V54.2
		c0-0.5-0.4-0.9-0.9-0.9h0h-23.7c-0.5,0-0.9,0.4-0.9,0.9v0v13.7c-0.3,1.6-1.8,2.8-3.4,2.5c-1.3-0.2-2.3-1.2-2.5-2.5v-20h10l2.4,2.4
		c0.2,0.2,0.4,0.3,0.6,0.3h13.4c0.5-0.1,0.9-0.5,0.8-1c0-0.4-0.4-0.8-0.8-0.8h-13l-2.4-2.4c-0.2-0.2-0.4-0.3-0.6-0.3h-11.3
		c-0.5,0-0.9,0.4-0.9,0.9v0v20.9C290,70.5,292.1,72.6,294.7,72.7z M314.8,79.3v2.6h-16.5v-2.6H314.8z M291.8,79.3h4.7v2.6h-4.7V79.3
		z M321.4,81.9h-4.7v-2.6h4.7V81.9z M299.5,67.9V55.1h21.8v12.8c0,1.7-1.3,3-3,3h-19.9C299.1,70,299.5,69,299.5,67.9L299.5,67.9z"/>
	<path fill="#380D75" d="M223.7,119.2l-4.1,4.1l-1.4-1.4c-0.3-0.4-0.9-0.5-1.3-0.1c-0.4,0.3-0.5,0.9-0.1,1.3l0.1,0.1l2,2
		c0.3,0.4,0.9,0.4,1.3,0l0,0l4.8-4.8c0.4-0.4,0.4-0.9,0-1.3C224.6,118.9,224,118.9,223.7,119.2L223.7,119.2z"/>
	<path fill="#380D75" d="M232.2,119c-0.9-0.8-1.3-1.9-1.2-3c0.3-2-1-3.8-3-4.1c-0.4-0.1-0.8-0.1-1.1,0c-0.6,0-1.1-0.1-1.6-0.3
		c-0.5-0.2-0.9-0.6-1.3-0.9c-0.8-0.9-1.8-1.4-3-1.5c-1.2,0.1-2.2,0.7-3,1.5c-0.4,0.4-0.8,0.7-1.3,0.9c-0.5,0.2-1.1,0.3-1.7,0.3
		c-2-0.3-3.8,1-4.1,3c-0.1,0.4-0.1,0.8,0,1.1c0,0.6-0.1,1.1-0.3,1.6c-0.2,0.5-0.6,0.9-0.9,1.3c-1.7,1.2-2,3.5-0.8,5.2
		c0.2,0.3,0.5,0.6,0.8,0.8c0.4,0.4,0.7,0.8,0.9,1.3c0.2,0.5,0.3,1.1,0.3,1.6c-0.1,1.1,0.3,2.2,1,3.1c0.9,0.7,2,1.1,3.1,1
		c0.6,0,1.1,0.1,1.6,0.3c0.5,0.2,0.9,0.6,1.3,0.9c0.8,0.9,1.8,1.4,3,1.5c1.2-0.1,2.2-0.7,3-1.5c0.4-0.4,0.8-0.7,1.3-0.9
		c0.4-0.1,0.9-0.2,1.3-0.2v8l-5.2-2.9c-0.3-0.1-0.6-0.1-0.9,0l-5.2,2.9v-4.5c0-0.5-0.4-0.9-0.9-0.9s-0.9,0.4-0.9,0.9v6
		c0,0.3,0.2,0.6,0.5,0.8c0.1,0.1,0.3,0.1,0.5,0.1c0.2,0,0.3,0,0.4-0.1l6.1-3.4l6.1,3.4c0.3,0.2,0.6,0.2,0.9,0
		c0.3-0.2,0.4-0.5,0.4-0.8v-9.8c0.6-0.1,1.2-0.4,1.7-0.8c0.7-0.9,1.1-2,1-3.1c0-0.6,0.1-1.1,0.3-1.6c0.2-0.5,0.6-0.9,0.9-1.3
		c1.7-1.2,2-3.5,0.9-5.1C232.8,119.5,232.5,119.2,232.2,119L232.2,119z M230.8,123.8c-0.5,0.5-0.9,1.1-1.2,1.8
		c-0.2,0.7-0.4,1.5-0.4,2.2c0.3,1.1-0.3,2.2-1.4,2.5c-0.4,0.1-0.7,0.1-1.1,0c-0.7,0-1.5,0.2-2.2,0.4c-0.7,0.3-1.2,0.7-1.8,1.2
		c-0.7,0.6-1.3,1.1-1.8,1.1c-0.6,0-1.2-0.5-1.8-1.1c-0.5-0.5-1.1-0.9-1.8-1.2c-0.7-0.2-1.5-0.4-2.2-0.4c-1.1,0.3-2.2-0.3-2.5-1.4
		c-0.1-0.4-0.1-0.7,0-1.1c0-0.8-0.1-1.5-0.4-2.2c-0.3-0.7-0.7-1.3-1.2-1.8c-0.6-0.6-1.1-1.2-1.1-1.8c0-0.6,0.5-1.2,1.1-1.8
		c1.1-1,1.7-2.5,1.6-4c0-0.7,0.1-1.4,0.5-2c0.6-0.4,1.3-0.5,2-0.5c0.8,0,1.5-0.1,2.2-0.4c0.7-0.3,1.3-0.7,1.8-1.2
		c0.6-0.6,1.2-1.1,1.8-1.1s1.2,0.5,1.8,1.1c0.5,0.5,1.1,0.9,1.8,1.2c0.7,0.3,1.5,0.4,2.2,0.4c0.7,0,1.4,0.1,2,0.5
		c0.4,0.6,0.5,1.3,0.5,2c0,0.7,0.2,1.5,0.4,2.2c0.3,0.7,0.7,1.3,1.2,1.8c0.6,0.6,1.1,1.2,1.1,1.8S231.4,123.1,230.8,123.8
		L230.8,123.8z"/>
	<path fill="#380D75" d="M187.3,192.5c-1.5,0-2.8,0.6-3.8,1.7c-2.1,2.2-2,5.6,0.2,7.7l0,0c1,1,2.4,1.5,3.8,1.5h0.1
		c3-0.1,5.4-2.6,5.3-5.6v0C192.8,194.8,190.3,192.4,187.3,192.5z M187.5,201.6c-2,0.1-3.7-1.5-3.7-3.5c0-1,0.3-1.9,1-2.6
		c0.7-0.7,1.6-1.1,2.5-1.1h0.1c2,0.1,3.6,1.8,3.5,3.8C190.8,200,189.3,201.5,187.5,201.6z"/>
	<path fill="#380D75" d="M187.1,186.3c-6.4,0.2-11.5,5.5-11.4,11.9c0.1,5.3,4.8,10.5,9,15c0.9,0.9,1.6,1.8,2.4,2.7
		c0.2,0.2,0.4,0.3,0.7,0.3c0.3,0,0.5-0.1,0.7-0.3c0.7-0.9,1.4-1.8,2.2-2.8c3.9-4.8,8.4-10.1,8.3-15.4
		C198.9,191.2,193.5,186.2,187.1,186.3L187.1,186.3z M189.4,211.9c-0.6,0.7-1.1,1.3-1.6,1.9l-1.7-1.9c-3.9-4.3-8.4-9.2-8.5-13.8
		c-0.1-5.4,4.2-9.9,9.6-10h0.2c5.3,0,9.7,4.3,9.8,9.6C197.3,202.3,193.1,207.4,189.4,211.9z"/>
	<path fill="#380D75" d="M468.6,106c1.2,0.1,2.3-0.3,3.2-1.1l0.1-0.1c1.9-1.7,2.1-4.5,0.4-6.4c-1.6-1.9-4.5-2.1-6.4-0.5
		c-0.9,0.8-1.5,2-1.6,3.2C464.2,103.7,466.1,105.8,468.6,106L468.6,106L468.6,106z M467.1,99.4L467.1,99.4c1.2-1,2.9-0.8,3.9,0.3
		s0.8,2.9-0.3,3.8c-0.5,0.4-1.2,0.7-1.9,0.6c-0.7,0-1.4-0.4-1.9-0.9c-0.5-0.5-0.7-1.3-0.7-2C466.3,100.6,466.6,99.9,467.1,99.4
		L467.1,99.4z"/>
	<path fill="#380D75" d="M461.8,107.8c2.8,3.2,8.4,4,13.3,4.6c1,0.1,1.9,0.3,2.8,0.4c0.3,0,0.5,0,0.7-0.2c0.2-0.2,0.3-0.4,0.3-0.7
		c0-0.9,0-1.8,0-2.8c0-5-0.1-10.6-2.9-13.8c-3.5-3.9-9.5-4.3-13.4-0.9C458.7,97.9,458.4,103.8,461.8,107.8z M463.9,95.8l0.1-0.1
		c3.2-2.7,7.9-2.3,10.7,0.8c2.4,2.7,2.4,8,2.5,12.6c0,0.6,0,1.2,0,1.8l-1.8-0.2c-4.6-0.6-9.8-1.3-12.2-4
		C460.3,103.5,460.6,98.6,463.9,95.8L463.9,95.8L463.9,95.8z"/>
	<path fill="#380D75" d="M198.7,96.9c-0.4-0.4-0.9-0.4-1.3,0l-6.7,6.7l-2.5-2.5c-0.4-0.4-0.9-0.4-1.3,0c-0.4,0.4-0.4,0.9,0,1.3
		l3.1,3.1c0.2,0.2,0.4,0.3,0.6,0.3c0.2,0,0.5-0.1,0.6-0.3l7.4-7.4C199.1,97.9,199.1,97.3,198.7,96.9L198.7,96.9z"/>
	<path fill="#380D75" d="M174.4,69.2c0,0.5,0.3,0.9,0.8,1c0.5,0,0.9-0.3,1-0.8c0.7-7.6,6.7-13.6,14.3-14.4c-2.4,2.5-4,6.1-4.6,10.8
		c-0.2,1.8-0.3,3.7-0.2,5.5c-1.3-1-2.9-1.5-4.6-1.5c-2.7,0-5.3,1.5-6.7,3.8v0.1l-0.1,0.2v0.2v0.2l0,0.2l0.1,0.2l0.1,0.1l0.1,0.1
		L190.8,88c-7.3,1.1-12.4,8-11.2,15.3c1,6.5,6.6,11.3,13.2,11.4c0.5,0,0.9-0.4,0.9-0.9c0-0.5-0.4-0.9-0.9-0.9h0
		c-6.4,0-11.6-5.2-11.6-11.6c0-6.4,5.2-11.6,11.6-11.6c6.4,0,11.6,5.2,11.6,11.6c0,4.8-2.9,9-7.4,10.8c-0.5,0.2-0.7,0.7-0.5,1.2
		c0.2,0.4,0.7,0.6,1.1,0.5c6.9-2.7,10.3-10.5,7.6-17.4c-1.7-4.4-5.7-7.6-10.4-8.4l12.8-10.4c0.4-0.3,0.4-0.9,0.1-1.3
		c-0.3-0.4-0.9-0.5-1.2-0.1l0,0L195,85.5l4.7-11.4c0.1-0.1,0.2-0.2,0.3-0.3c1.1-1.4,2.8-2.3,4.6-2.3c2.1,0,4,1.1,5.1,2.9
		c0.2,0.3,0.6,0.5,1,0.4c0.4-0.1,0.7-0.5,0.7-0.9v-2.5c0-12.2-8.8-18.1-17.5-18.5S175.6,58,174.4,69.2z M192.9,55.3
		c5.5,4.2,5.6,13.2,5.4,16.7c-3-2.9-7.7-2.9-10.7,0C187.3,68.5,187.4,59.5,192.9,55.3z M197.8,74.1l-4.9,12l-4.9-12
		c0.1-0.1,0.2-0.2,0.3-0.3c2-2.6,5.7-3,8.3-1c0.4,0.3,0.7,0.6,1,1C197.6,73.9,197.7,74,197.8,74.1z M181.1,71.6
		c1.8,0,3.5,0.8,4.6,2.3c0.1,0.1,0.2,0.2,0.3,0.3l4.7,11.4l-14.3-11.7C177.5,72.4,179.2,71.6,181.1,71.6z M209.6,71.6L209.6,71.6
		c-2.7-2.3-6.7-2.4-9.5-0.3c0.1-1.9,0-3.7-0.2-5.5c-0.6-4.6-2.2-8.2-4.6-10.7C202.6,55.9,209.6,61.2,209.6,71.6L209.6,71.6z"/>
	<path fill="#380D75" d="M424.4,51.7c0,0.3,0.2,0.6,0.5,0.7l3.9,2.2l-4.8,8.9c-0.2,0.4-0.1,0.8,0.2,1.1c0.2,0.1,0.4,0.2,0.6,0.2
		c0.2,0,0.4-0.1,0.5-0.2l13.8-10c0.3-0.2,0.4-0.5,0.4-0.8c0-0.3-0.2-0.6-0.5-0.7l-4-2.2l3.7-8c0.2-0.4,0.1-0.8-0.2-1.1
		c-0.3-0.2-0.8-0.2-1.1,0l-12.7,9C424.5,51.1,424.4,51.4,424.4,51.7z M435.7,45.4l-2.6,5.6c-0.2,0.4,0,1,0.4,1.2l3.5,1.9l-9.5,6.8
		l3.4-6.2c0.2-0.4,0.1-1-0.4-1.2l-3.5-1.9L435.7,45.4z"/>
	<path fill="#380D75" d="M157.3,69.4c0.1-0.3-0.1-0.6-0.3-0.8l-3.4-3l5.4-7c0.3-0.3,0.3-0.8,0-1.1c-0.3-0.3-0.7-0.4-1.1-0.3
		l-14.3,6.1c-0.5,0.2-0.7,0.7-0.5,1.2c0.1,0.1,0.1,0.2,0.2,0.3l3.4,3l-6.7,7.6c-0.3,0.3-0.3,0.8,0,1.1c0.1,0.2,0.3,0.3,0.5,0.4
		c0.2,0.1,0.4,0.1,0.5,0l15.7-6.7C157,70,157.3,69.7,157.3,69.4z M144,73.6l4.6-5.3c0.3-0.4,0.3-0.9-0.1-1.3l0,0l-3-2.6l9.8-4.2
		l-3.8,4.9c-0.3,0.4-0.2,0.9,0.1,1.2l3,2.6L144,73.6z"/>
	<path fill="#380D75" d="M365.7,204.5c5.2-0.2,9.2-4.5,9.1-9.6c0-1.6-0.5-3.3-1.4-4.6v-0.1l-0.1-0.1c-1.8-2.8-4.9-4.4-8.1-4.3
		c-5.2,0.1-9.3,4.3-9.2,9.5c0.1,5.2,4.3,9.3,9.5,9.2H365.7z M370.9,200.3l-4.1-5l5.5-3.5c0.4,0.9,0.7,2,0.7,3
		C373,196.8,372.3,198.8,370.9,200.3z M371.3,190.3l-5,3.1l-0.2-5.9C368.1,187.8,370,188.7,371.3,190.3z M357.9,195.3
		c-0.1-3.8,2.6-7.1,6.4-7.7l0.2,7.5v0.2c0,0.1,0.1,0.2,0.2,0.3l4.8,5.8c-3.5,2.3-8.2,1.2-10.4-2.3
		C358.3,198,357.9,196.6,357.9,195.3L357.9,195.3z"/>
	<path fill="#380D75" d="M274.9,82.5h0.3c5.2-0.2,9.2-4.5,9.1-9.6c0-1.6-0.5-3.3-1.4-4.6v-0.1l-0.1-0.1c-1.8-2.8-4.9-4.4-8.1-4.3
		c-5.2,0.1-9.3,4.3-9.2,9.5S269.8,82.6,274.9,82.5L274.9,82.5z M280.4,78.3l-4.1-5l5.5-3.4C283.1,72.7,282.6,76.1,280.4,78.3
		L280.4,78.3z M280.8,68.4l-5,3.1l-0.2-5.9C277.6,65.8,279.5,66.8,280.8,68.4z M273.8,65.7l0.2,7.5v0.2c0,0.1,0.1,0.2,0.2,0.3
		l4.8,5.8c-1.1,0.7-2.5,1.2-3.8,1.2c-4.2,0.2-7.7-3-7.9-7.2C267.1,69.6,269.9,66.2,273.8,65.7z"/>
	<path fill="#380D75" d="M183.1,220L183.1,220c-1.8-2.8-4.9-4.5-8.2-4.4c-5.2,0.2-9.2,4.6-8.9,9.8c0.2,5,4.3,8.9,9.2,9h0.3
		c5.2-0.2,9.2-4.5,9.1-9.6C184.5,223.1,184,221.5,183.1,220L183.1,220z M181,220.2l-5,3.1l-0.2-5.9
		C177.9,217.7,179.7,218.6,181,220.2L181,220.2z M175.4,232.5c-4.2,0.1-7.6-3.2-7.7-7.4c-0.1-3.8,2.6-7,6.3-7.6l0.2,7.5v0.2
		c0,0.1,0.1,0.2,0.1,0.3l4.8,5.8C178.1,232,176.8,232.5,175.4,232.5L175.4,232.5z M180.7,230.2l-4.1-5l5.5-3.4c0.5,0.9,0.7,2,0.7,3
		C182.8,226.7,182.1,228.7,180.7,230.2L180.7,230.2z"/>
	<path fill="#380D75" d="M147.4,208.1l-1.3-1.9l-2.6-3.8c-0.4-0.5-1.1-0.6-1.6-0.3c-0.3,0.2-0.5,0.5-0.5,0.9l-0.1,3.9l-3.2,0.9
		l-2.2-3.2c-0.4-0.5-1.1-0.7-1.6-0.3c-0.3,0.2-0.5,0.5-0.5,0.9l-0.1,4.6l-0.1,2.3c0,0.6,0.4,1.1,0.9,1.3l7.2,2.6
		c0.1,0,0.2,0.1,0.3,0.1c0.1,0,0.2,0,0.3-0.1l0.1,0c0.1-0.1,0.2-0.1,0.2-0.2l4.7-6C147.7,209.3,147.8,208.6,147.4,208.1z
		 M141.7,214.1l-6.3-2.2l0.1-2l0.1-2.5l1.4,2.1c0.1,0.1,0.1,0.2,0.2,0.2l0.1,0.1l0.2,0.1h0.1h0.1h0.1h0.2l4.5-1.3l0.2-0.1l0.1-0.1
		l0.1-0.2l0-0.1l0.1-0.2v-0.2l0.1-2.5l1.4,2.1l1.1,1.7L141.7,214.1z"/>
	<path fill="#380D75" d="M305.4,42.4l7.2,2.6c0.1,0,0.2,0.1,0.3,0.1c0.1,0,0.2,0,0.3-0.1l0.1,0c0.1-0.1,0.2-0.1,0.2-0.2l4.7-6.1
		c0.4-0.5,0.4-1.1,0-1.6l-1.2-1.9l-2.6-3.8c-0.4-0.5-1.1-0.6-1.6-0.3c-0.3,0.2-0.5,0.5-0.5,0.9l-0.1,3.9l-3.2,1l-2.2-3.2
		c-0.4-0.5-1.1-0.7-1.6-0.3c-0.3,0.2-0.5,0.5-0.5,0.9l-0.1,4.6l-0.1,2.3C304.4,41.7,304.8,42.2,305.4,42.4z M307.8,38.3L307.8,38.3
		c0.1,0.1,0.1,0.2,0.2,0.2l0.1,0.1l0.2,0.1h0.1h0.2h0.1l4.5-1.3l0.2-0.1l0.1-0.1l0.1-0.2l0.1-0.1l0.1-0.2v-0.2l0.1-2.5l1.4,2.1
		l1.1,1.7l-3.9,5.2l-6.3-2.2l0.1-2l0.1-2.5L307.8,38.3z"/>
	<path fill="#380D75" d="M314.7,220.2L314.7,220.2l-2.6-3.8c-0.3-0.4-0.8-0.6-1.3-0.5c-0.5,0.1-0.8,0.5-0.9,1l-0.1,3.9l-3.2,1
		l-2.2-3.2c-0.3-0.4-0.8-0.6-1.3-0.5c-0.5,0.1-0.8,0.6-0.8,1.1l-0.1,4.6l-0.1,2.3c0,0.6,0.4,1.1,0.9,1.4l7.2,2.6
		c0.1,0,0.2,0.1,0.3,0.1c0.1,0,0.2,0,0.3-0.1h0.1c0.1-0.1,0.2-0.1,0.2-0.2l4.7-6.1c0.4-0.5,0.4-1.1,0-1.6L314.7,220.2z M310.3,228.2
		L304,226l0.1-2l0.1-2.5l1.4,2.1c0.1,0.1,0.1,0.2,0.2,0.2l0.1,0.1l0.2,0.1h0.1h0.1h0.1h0.1l4.5-1.3l0.2-0.1l0.1-0.1l0.1-0.2l0.1-0.1
		l0.1-0.2v-0.2l0.1-2.5l1.4,2.1l1.1,1.7L310.3,228.2z"/>
	<path fill="#380D75" d="M164.1,73c-0.4-0.3-0.9-0.4-1.3-0.2l-4,2.3l-2,1.2c-0.5,0.3-0.8,0.9-0.7,1.5l1.6,7.5c0,0.1,0.1,0.2,0.1,0.3
		l0.2,0.2l0.1,0.1c0.1,0.1,0.2,0.1,0.3,0.1l7.6,0.8c0.6,0.1,1.2-0.3,1.4-0.8l0.9-2.1l1.9-4.2c0.3-0.6,0-1.3-0.6-1.5
		c-0.3-0.1-0.7-0.1-1,0.1l-3.4,2l-2.5-2.3l1.6-3.6C164.5,73.9,164.4,73.3,164.1,73z M166.8,83.1L166.8,83.1L166,85l-6.7-0.7
		l-1.3-6.6l1.7-1l2.2-1.3l-1,2.3c0,0.1-0.1,0.2-0.1,0.3v0.1v0.2v0.1v0.1l0.1,0.1l0.1,0.1l3.6,3.2l0.2,0.1l0.1,0.1h0.2h0.1h0.2h0.1
		l2.2-1.3L166.8,83.1z"/>
	<path fill="#380D75" d="M400.2,232.2L400.2,232.2l-2.6-3.8c-0.4-0.5-1.1-0.7-1.6-0.3c-0.3,0.2-0.5,0.6-0.5,0.9l-0.1,4l-3.2,1
		l-2.2-3.2c-0.4-0.5-1.1-0.7-1.6-0.3c-0.3,0.2-0.5,0.6-0.5,0.9l-0.1,4.6l-0.1,2.3c0,0.6,0.4,1.2,0.9,1.4l7.2,2.6
		c0.1,0,0.2,0,0.3,0.1c0.1,0,0.2,0,0.3-0.1l0.1,0l0.2-0.2l4.7-6.1c0.4-0.5,0.4-1.1,0-1.6L400.2,232.2z M395.8,240.2l-6.3-2.2l0.1-2
		l0.1-2.5l1.4,2.1c0.1,0.1,0.1,0.2,0.2,0.2l0.1,0.1l0.2,0.1h0.1h0.2h0.1l4.5-1.3l0.2-0.1l0.1-0.1l0.1-0.2l0.1-0.1l0.1-0.2v-0.2
		l0.1-2.5l1.4,2.1l1.1,1.7L395.8,240.2z"/>
	<path fill="#380D75" d="M442.3,114.5c0,0.1,0.1,0.2,0.2,0.2c0.1,0.1,0.2,0.1,0.3,0.1h0.1c0.1,0,0.2,0,0.3,0h0l7.5-1.5
		c0.6-0.1,1-0.6,1.1-1.2l0.3-2.3l0.5-4.6c0.1-0.5-0.2-1-0.7-1.2c-0.4-0.2-1-0.1-1.3,0.3l-2.7,2.9l-3-1.4l0.5-3.9
		c0.1-0.5-0.2-1-0.7-1.2c-0.5-0.2-1-0.1-1.3,0.3l-3.1,3.4l-1.6,1.7c-0.4,0.4-0.5,1.1-0.2,1.6L442.3,114.5L442.3,114.5z M441.7,105.7
		L441.7,105.7l1.7-1.9l-0.3,2.5c0,0.1,0,0.2,0,0.3v0.1l0.1,0.2l0.1,0.1l0.1,0.1l0.1,0.1l0.1,0.1l4.3,2h0.2h0.1h0.2h0.1l0.2-0.1
		l0.1-0.1l1.7-1.9l-0.3,2.5l-0.2,2l-6.6,1.3l-3.3-5.8L441.7,105.7z"/>
	<path fill="#380D75" d="M43.2,63.9L43.2,63.9L43.2,63.9l0.2,0.2l0.1,0.1l0.1,0.1h0.1h0.2h0.3l7.5-1.3c0.6-0.1,1.1-0.6,1.1-1.2
		l0.3-2.3l0.6-4.5c0.1-0.5-0.2-1-0.6-1.2c-0.4-0.2-1-0.1-1.3,0.2l-2.7,2.8L46,55.4l0.5-3.9c0.1-0.6-0.3-1.2-0.9-1.4
		c-0.4-0.1-0.8,0.1-1.1,0.4l-3.1,3.4l-1.6,1.7c-0.4,0.4-0.5,1.1-0.2,1.6L43.2,63.9z M44.1,55.8L44.1,55.8V56v0.2l0.1,0.1l0.1,0.2
		l0.1,0.1l0.2,0.1l4.2,2c0.1,0.1,0.2,0.1,0.3,0.1h0.1h0.2l0.1-0.1l0.2-0.1l1.8-1.8l-0.3,2.5l-0.3,2l-6.6,1.2l-3.2-5.9l1.4-1.4
		l1.8-1.8L44.1,55.8z"/>
	<path fill="#380D75" d="M221.6,186c-0.4-0.2-1-0.1-1.3,0.2l-2.7,2.8l-3.1-1.5l0.5-3.9c0.1-0.6-0.2-1.2-0.9-1.4
		c-0.4-0.1-0.9,0-1.1,0.4l-3.2,3.3l-1.6,1.7c-0.4,0.4-0.5,1.1-0.2,1.6l3.6,6.7l0.1,0.1l0.1,0.1l0.1,0.1l0.1,0.1l0.1,0.1h0.2h0.2
		l7.5-1.4c0.6-0.1,1-0.6,1.1-1.2l0.3-2.3l0.6-4.6C222.3,186.6,222,186.2,221.6,186z M213,194.7l-3.2-5.9l1.4-1.4l1.8-1.8l-0.3,2.5
		v0.2v0.2l0.1,0.1l0.1,0.2l0.1,0.1l0.2,0.1l4.2,2c0.1,0,0.2,0.1,0.3,0.1h0.1l0.2,0h0.1l0.2-0.2l1.8-1.8l-0.3,2.5l-0.3,2L213,194.7z"
		/>
	<path fill="#380D75" d="M135.7,31.1l8.1,3c0.1,0,0.2,0.1,0.3,0.1c0.1,0,0.2,0,0.3-0.1h0.1l0.2-0.2l5.5-6.9c0.4-0.5,0.4-1.2,0.1-1.7
		l-1.5-2.2l-2.9-4.3c-0.4-0.5-1.1-0.7-1.6-0.3c-0.3,0.2-0.5,0.6-0.5,0.9l-0.2,4.5l-3.9,1.1l-2.5-3.8c-0.3-0.4-0.8-0.6-1.3-0.5
		c-0.5,0.1-0.8,0.6-0.9,1.1l-0.2,5.2l-0.1,2.6C134.7,30.3,135.1,30.9,135.7,31.1z M138.6,26.6L138.6,26.6l0.2,0.2l0.1,0l0.2,0.1h0.1
		h0.1h0.1h0.1l5.1-1.4l0.2-0.1l0.1-0.1l0.1-0.2l0.1-0.1l0.1-0.2v-0.1l0.1-3.2l1.8,2.7l1.3,2l-4.8,6.1l-7.3-2.7l0.1-2.4l0.1-3.2
		L138.6,26.6z"/>
	<path fill="#380D75" d="M381.5,32.6L381.5,32.6c0,0.1,0.1,0.2,0.2,0.3c0.1,0.1,0.2,0.1,0.2,0.2l0.1,0c0.1,0,0.2,0,0.3,0h0.1
		l8.6-0.7c0.6-0.1,1.2-0.5,1.3-1.1l0.6-2.6l1.2-5.1c0.1-0.6-0.3-1.3-0.9-1.4c-0.4-0.1-0.7,0-1,0.3l-3.4,3l-3.4-2l1-4.4
		c0.1-0.6-0.3-1.3-0.9-1.4c-0.4-0.1-0.7,0-1,0.3l-3.9,3.4l-2,1.7c-0.5,0.4-0.6,1.1-0.4,1.7L381.5,32.6z M381.7,22.6L381.7,22.6
		l2.5-2.1l-0.8,3.2c0,0.1,0,0.2,0,0.3v0.1l0.1,0.2l0.1,0.1l0.1,0.1l0.1,0.1l0.1,0.1l4.6,2.8l0.2,0.1h0.1h0.2h0.1l0.2-0.1l0.1-0.1
		l2.5-2.1l-0.7,3.2l-0.5,2.3l-7.7,0.6l-3-7.1L381.7,22.6z"/>
	<path fill="#380D75" d="M71.6,155.2l-2.8,1.1l-2.5-5.4c-0.2-0.5-0.8-0.6-1.2-0.4c-0.3,0.1-0.5,0.4-0.5,0.8l-0.9,11
		c0,0.3,0.1,0.6,0.4,0.8c0.2,0.2,0.6,0.2,0.9,0.1l2.7-1.1l2.6,6.4c0.2,0.4,0.6,0.6,1,0.6c0.2,0,0.3-0.1,0.5-0.2
		c0.2-0.2,0.3-0.4,0.3-0.6l0.9-12.1c0-0.3-0.1-0.6-0.4-0.8C72.2,155.1,71.8,155.1,71.6,155.2z M70.4,164.1l-1.4-3.6
		c-0.2-0.5-0.7-0.7-1.2-0.5l0,0l-2.2,0.9l0.5-6.1l1.4,3.1c0.2,0.4,0.7,0.6,1.1,0.5l2.2-0.9L70.4,164.1z"/>
	<path fill="#380D75" d="M154.8,39.2c0.2,0,0.5,0,0.7-0.1l10-6.8c0.4-0.3,0.5-0.8,0.3-1.2c-0.1-0.1-0.2-0.2-0.3-0.3l-2.6-1.5
		l2.6-5.4c0.2-0.4,0.1-0.8-0.2-1.1c-0.3-0.3-0.8-0.3-1.1-0.1l-9.1,6.2c-0.4,0.3-0.6,0.8-0.3,1.2c0.1,0.1,0.2,0.2,0.3,0.3l2.5,1.5
		l-3.4,6c-0.2,0.4-0.1,0.8,0.2,1.1C154.5,39.1,154.6,39.2,154.8,39.2z M157.3,29.6l5.1-3.4l-1.5,3c-0.2,0.4-0.1,1,0.4,1.2l2.1,1.2
		l-5.5,3.8l1.9-3.4c0.2-0.4,0.1-1-0.3-1.2l0,0L157.3,29.6z"/>
	<path fill="#380D75" d="M299.9,107.2c0.2,0.2,0.5,0.2,0.7,0.2c0.1,0,0.3-0.1,0.4-0.2l11.1-9.1c0.2-0.2,0.4-0.5,0.3-0.8
		c0-0.3-0.2-0.6-0.5-0.7l-3.4-1.6l2.6-6.8c0.2-0.4,0-0.8-0.3-1.1c-0.3-0.2-0.8-0.2-1.1,0l-10.2,8.3c-0.2,0.2-0.4,0.5-0.3,0.8
		c0,0.3,0.2,0.6,0.5,0.7l3.3,1.6l-3.5,7.6C299.4,106.5,299.5,106.9,299.9,107.2z M305.1,98.4c0.2-0.5,0-1-0.4-1.2l-2.8-1.3l6.4-5.2
		l-1.7,4.4c-0.2,0.4,0,0.9,0.5,1.1l2.8,1.3l-7,5.7L305.1,98.4z"/>
	<path fill="#380D75" d="M375.4,64.1c-0.2-0.3-0.4-0.4-0.8-0.4h-3.7l-0.5-7.3c0-0.4-0.3-0.7-0.7-0.8c-0.4-0.1-0.8,0.1-1,0.5
		L363,67.8c-0.2,0.4,0,1,0.4,1.2c0.1,0.1,0.3,0.1,0.4,0.1h3.7v8.4c0,0.4,0.3,0.8,0.7,0.9h0.2c0.3,0,0.7-0.2,0.8-0.5l6.3-13
		C375.6,64.6,375.5,64.4,375.4,64.1z M369.2,73.6v-5.3c0-0.5-0.4-0.9-0.9-0.9h-3.1l3.6-7.4l0.3,4.7c0,0.5,0.4,0.9,0.9,0.9h3.1
		L369.2,73.6z"/>
	<path fill="#380D75" d="M322.2,196.2h0.2c0.4,0,0.8-0.2,0.9-0.6l4.5-15.5c0.1-0.5-0.1-1-0.6-1.1c-0.1,0-0.2,0-0.4,0l-4.2,0.7
		l-1.9-8c-0.1-0.4-0.4-0.7-0.9-0.7c-0.4,0-0.8,0.3-0.9,0.6l-4.2,14.1c-0.1,0.5,0.1,1,0.6,1.1c0.1,0,0.3,0,0.4,0l4.1-0.7l1.5,9.4
		C321.6,195.8,321.9,196.1,322.2,196.2z M321,184.2c-0.1,0-0.2,0-0.4,0l-3.6,0.6l2.8-9.4l1.3,5.5c0.1,0.5,0.5,0.8,1,0.7l3.6-0.6
		l-3,10.3l-1-6.3C321.6,184.6,321.3,184.3,321,184.2L321,184.2z"/>
	<path fill="#380D75" d="M393.5,204c-0.1-0.3-0.3-0.6-0.6-0.7l-4-1.5l3.3-8.9c0.1-0.3,0.1-0.7-0.2-1l-0.1-0.1
		c-0.4-0.2-0.8-0.2-1.1,0.1L379.2,203c-0.2,0.2-0.3,0.5-0.3,0.8c0.1,0.3,0.3,0.6,0.6,0.7l4,1.5l-2.4,7.9c-0.1,0.4,0.1,0.8,0.4,1
		c0.4,0.2,0.8,0.2,1.1-0.1l10.6-10.1C393.4,204.5,393.5,204.3,393.5,204z M383.8,211.3l1.7-5.4c0.1-0.5-0.1-0.9-0.5-1.1l-3.4-1.3
		l7.7-7.4l-2.3,6c-0.1,0.3-0.1,0.7,0.2,1c0.1,0.1,0.2,0.2,0.3,0.2l3.4,1.3L383.8,211.3z"/>
	<path fill="#380D75" d="M108.4,215.7c-0.5-0.1-0.9,0.3-1,0.8l0,0l-1.7,18.8c-0.5,3.8-4,6.5-7.8,6c-3.6-0.5-6.3-3.7-6.1-7.3l0.3-3.1
		l2.6,0.2h0.1c0.5,0,0.9-0.4,0.9-0.9c0-0.4-0.3-0.8-0.8-0.9l-2.6-0.2l0.3-3.2l2.6,0.2h0.1c0.5,0,0.9-0.5,0.9-1
		c0-0.4-0.4-0.8-0.8-0.9l-2.6-0.2l0.3-3.2l9.4,0.9h0.1c0.5,0,0.9-0.4,0.9-0.8c0.1-0.5-0.3-0.9-0.8-1l0,0l-9.4-0.9l0.3-3.2l2.6,0.2
		h0.1c0.5,0,0.9-0.4,0.9-0.8c0-0.5-0.3-1-0.8-1l-3.5-0.3c-0.5,0-1,0.3-1,0.8v0.1v0.1l-0.4,4.8l-1.3,14c-0.4,4.8,3.1,9.1,8,9.6l0,0
		c0.3,0,0.5,0,0.8,0c4.5,0,8.3-3.5,8.8-8l1.7-18.8C109.3,216.1,108.9,215.7,108.4,215.7z"/>
	<path fill="#380D75" d="M110.4,206l-17.9-1.6c-1.6-0.1-3,1-3.1,2.6l0,0l-0.2,1.7c-0.1,0.8,0.2,1.5,0.7,2.1c0.5,0.6,1.2,0.9,2,1
		l17.9,1.6h0.3c0.7,0,1.3-0.2,1.8-0.7c0.6-0.5,0.9-1.2,1-2l0.2-1.7C113.1,207.5,112,206.2,110.4,206L110.4,206z M111,210.7
		c0,0.3-0.2,0.5-0.4,0.7c-0.2,0.2-0.5,0.3-0.8,0.2L92,210c-0.6,0-1-0.5-1-1.1l0,0l0.2-1.7c0-0.6,0.5-1,1-1h0.1l17.9,1.6
		c0.6,0,1,0.5,1,1.1l0,0L111,210.7z"/>
	<path fill="#380D75" d="M311.9,191.5l-7.7-36c-0.6-2.6-3.1-4.2-5.7-3.7l0,0l-1.3,0.3c-0.5,0.1-0.8,0.6-0.7,1.1
		c0.1,0.5,0.6,0.8,1.1,0.7l0,0l1.3-0.3c0.8-0.2,1.6,0,2.2,0.4c0.7,0.4,1.1,1.1,1.3,1.9l7.7,36c0.3,1.6-0.7,3.2-2.3,3.5l-28.3,6.1
		c-1.6,0.3-3.2-0.7-3.6-2.3l-7.7-36c-0.2-0.8,0-1.6,0.4-2.2c0.4-0.7,1.1-1.1,1.9-1.3l1.6-0.4c0.5-0.1,0.8-0.6,0.7-1.1
		c-0.1-0.5-0.6-0.8-1.1-0.7l-1.6,0.3c-2.6,0.6-4.2,3.1-3.7,5.7l7.7,36c0.5,2.2,2.4,3.8,4.7,3.8c0.3,0,0.7,0,1-0.1l28.4-6.1
		C310.8,196.7,312.4,194.1,311.9,191.5z"/>
	<path fill="#380D75" d="M274.3,154.6c-0.1,0.2-0.2,0.5-0.1,0.7l1.6,7.6c0.1,0.4,0.5,0.7,0.9,0.7h0.2l17.8-3.8
		c0.5-0.1,0.8-0.6,0.7-1.1l-1.6-7.6c-0.1-0.5-0.6-0.8-1.1-0.7l0,0l-2.9,0.6c-1.1-2.8-4.1-4.3-7-3.7c-2.9,0.6-5,3.2-4.9,6.2l-2.9,0.6
		C274.7,154.3,274.5,154.4,274.3,154.6z M279,155.2c0.5-0.1,0.8-0.5,0.7-1c-0.5-2.3,1-4.6,3.3-5.1l0,0c2.3-0.5,4.7,0.9,5.2,3.2
		c0.1,0.5,0.6,0.7,1.1,0.6l2.8-0.6l1.2,5.8l-16,3.4l-1.2-5.8L279,155.2z"/>
	<path fill="#380D75" d="M282.1,171.8l3-4.6c0.3-0.4,0.2-1-0.2-1.2l0,0c-0.4-0.3-1-0.1-1.3,0.3l-2.5,3.9l-1.2-0.8
		c-0.4-0.3-1-0.2-1.3,0.3c-0.3,0.4-0.2,1,0.3,1.3l1.9,1.3c0.1,0.1,0.3,0.1,0.5,0.2C281.7,172.2,281.9,172,282.1,171.8z"/>
	<path fill="#380D75" d="M282.7,188.3l2,1.3c0.1,0.1,0.3,0.1,0.5,0.1h0.2c0.2,0,0.4-0.2,0.6-0.4l3-4.6c0.3-0.4,0.2-1-0.3-1.3l0,0
		c-0.4-0.3-1-0.2-1.2,0.3l0,0l-2.5,3.9l-1.2-0.8c-0.4-0.3-1-0.1-1.3,0.3C282.1,187.5,282.2,188,282.7,188.3z"/>
	<path fill="#380D75" d="M282,181.1c0.2,0.1,0.3,0.1,0.5,0.1c0.3,0,0.6-0.2,0.8-0.4l1-1.5l1.5,1c0.1,0.1,0.3,0.1,0.5,0.1
		c0.5,0,0.9-0.4,0.9-0.9c0-0.3-0.2-0.6-0.4-0.8l-1.5-1l1-1.5c0.3-0.4,0.2-1-0.2-1.2l0,0c-0.4-0.3-1-0.2-1.2,0.2l0,0l-1,1.5l-1.5-1
		c-0.4-0.3-1-0.2-1.3,0.3c-0.3,0.4-0.2,1,0.3,1.3l1.5,1l-1,1.5C281.5,180.3,281.6,180.8,282,181.1z"/>
	<path fill="#380D75" d="M294.5,166.1l-4.7,1c-0.5,0.1-0.9,0.5-0.8,1c0.1,0.5,0.5,0.9,1,0.8h0.2l4.7-1c0.5-0.1,0.8-0.6,0.7-1.1
		C295.5,166.3,295,166,294.5,166.1L294.5,166.1z"/>
	<path fill="#380D75" d="M296.3,174.3l-4.7,1c-0.5,0.1-0.8,0.6-0.7,1.1l0,0c0.1,0.4,0.5,0.7,0.9,0.7h0.2l4.7-1
		c0.5-0.1,0.8-0.6,0.7-1.1C297.3,174.5,296.8,174.2,296.3,174.3L296.3,174.3z"/>
	<path fill="#380D75" d="M293.7,185.8h0.2l4.7-1c0.5-0.1,0.8-0.6,0.7-1.1c-0.1-0.5-0.6-0.8-1.1-0.7l-4.7,1c-0.5,0.1-0.9,0.5-0.8,1
		C292.7,185.6,293.2,185.9,293.7,185.8L293.7,185.8z"/>
	<path fill="#380D75" d="M305.2,192.2h0.2c0.5-0.1,0.8-0.6,0.7-1.1l0,0l-7.1-33.2c-0.1-0.5-0.5-0.9-1-0.8c-0.5,0.1-0.9,0.5-0.8,1
		l0,0.2l7.1,33.1C304.4,191.9,304.8,192.2,305.2,192.2z"/>
	<path fill="#380D75" d="M272.9,162.6c-0.5,0.1-0.8,0.6-0.7,1.1l7.1,33.1c0.1,0.2,0.2,0.4,0.4,0.6c0.2,0.1,0.3,0.1,0.5,0.1h0.2
		l21.1-4.5c0.5-0.1,0.9-0.5,0.8-1c-0.1-0.5-0.5-0.9-1-0.8l-0.2,0l-20.2,4.3l-6.8-32.2C273.9,162.8,273.4,162.5,272.9,162.6
		L272.9,162.6z"/>
	<path fill="#380D75" d="M15.3,141.8h47.1c1.9,0,3.5-1.6,3.5-3.5v-3.6c0-0.5-0.4-0.9-0.9-0.9h-3.7v-24.7c0-1.9-1.6-3.5-3.5-3.5h-5
		c-0.5,0-0.9,0.4-0.9,0.9c0,0.5,0.4,0.9,0.9,0.9h5c0.9,0,1.7,0.8,1.7,1.7v24.7H18.2v-24.7c0-0.9,0.8-1.7,1.7-1.7l0.1,0h4.7
		c0.5,0,0.9-0.4,0.9-0.9c0-0.5-0.4-0.9-0.9-0.9H20c-1.9,0-3.5,1.6-3.5,3.5v24.7h-3.8c-0.5,0-0.9,0.4-0.9,0.9v3.6
		C11.8,140.3,13.4,141.8,15.3,141.8z M13.6,135.6h50.5v2.7c0,0.9-0.8,1.7-1.7,1.7H15.3c-0.9,0-1.7-0.8-1.7-1.7V135.6z"/>
	<path fill="#380D75" d="M38.9,101.5c-7.5,0-13.6,6.1-13.6,13.6c0,2.8,0.9,5.5,2.5,7.8v0.1c4.2,6.2,12.7,7.7,18.8,3.5
		c6-4.1,7.6-12.2,3.8-18.3V108l-0.1-0.1C47.9,104,43.5,101.6,38.9,101.5z M34.9,104l2.9,2c0.9,0.6,1.5,1.6,1.5,2.7v0.5
		c0,1.3-1.1,2.3-2.3,2.3h-1.8c-1.9,0-3.4,1.5-3.4,3.4v0.7c0,1.9,1.5,3.4,3.4,3.4c0.7,0,1.2,0.6,1.2,1.2c0,0.7-0.6,1.2-1.2,1.2H29
		c-3.5-5.4-1.9-12.7,3.6-16.2C33.3,104.7,34.1,104.3,34.9,104L34.9,104z M30.4,123.2h4.9c1.7,0,3.1-1.4,3.1-3.1s-1.4-3.1-3.1-3.1
		c-0.9,0-1.6-0.7-1.6-1.5v-0.7c0-0.9,0.7-1.5,1.6-1.5H37c2.3,0,4.1-1.8,4.1-4.1v-0.5c0-1.7-0.9-3.3-2.3-4.2l-1.5-1
		c0.5-0.1,1-0.1,1.5-0.1c3.7,0,7.3,1.8,9.5,4.8l-3.8,2.1c-1.2,0.6-1.9,1.9-1.9,3.2v2.3c0,1.4,1.1,2.6,2.6,2.6c0.7,0,1.3,0.6,1.3,1.3
		v4.2v0.1C41.8,128.1,34.7,127.8,30.4,123.2L30.4,123.2z M48.4,122v-2.4c0-1.7-1.4-3.1-3.1-3.1c-0.4,0-0.7-0.3-0.8-0.8v-2.3
		c0-0.7,0.4-1.3,1-1.6l3.9-2.2C51.4,113.7,51,118.5,48.4,122L48.4,122z"/>
	<path fill="#380D75" d="M47.4,197.5L47.4,197.5c0.1,0,0.2,0,0.3-0.1h0.1l0.1-0.1c5.6-4,12.6-12.9,13.7-19.2
		c1-5.9-0.3-10.2-2.3-16.7c-0.9-2.9-1.9-6.2-2.9-10.3c-0.1-0.5-0.6-0.8-1.1-0.7l-0.2,0.1c-6.7,2.8-14.4,2.2-20.6-1.6
		c-0.4-0.3-1-0.1-1.3,0.3l0,0.1c-2.8,5.6-7.7,9.7-13.6,11.5c-0.5,0.2-0.7,0.7-0.6,1.2c0.2,0.5,0.6,0.7,1.1,0.6
		c6.1-1.9,11.2-6.1,14.2-11.6c6.2,3.6,13.8,4.2,20.5,1.7c1,3.7,1.9,6.7,2.7,9.4c2,6.5,3.2,10.4,2.2,15.8
		c-0.9,5.1-6.9,13.5-12.7,17.8c-7.2-0.6-16.7-4.5-20.2-8.4c-3.7-4.1-4.7-8.1-6.5-14.7c-0.8-3-1.7-6.3-3-10.4
		c-0.2-0.5-0.7-0.7-1.1-0.6c-0.5,0.1-0.7,0.7-0.6,1.1l0,0c1.3,4.1,2.2,7.4,2.9,10.3c1.7,6.6,2.9,10.9,6.8,15.4
		C29.8,193.2,40.4,197.1,47.4,197.5L47.4,197.5z"/>
	<path fill="#380D75" d="M38.5,181.5c0.7,0.4,1.6,0.5,2.4,0.3c0.8-0.2,1.5-0.8,1.9-1.5l6.7-12c0.3-0.5,0.4-1.1,0.2-1.7
		c-0.2-0.6-0.6-1.1-1.1-1.4l-2.8-1.6c-1.1-0.6-2.5-0.2-3.1,0.9l-4.4,7.9l-2.5-1.4c-1.1-0.6-2.5-0.2-3.1,0.9l-1.6,2.8
		c-0.6,1.1-0.2,2.5,0.9,3.1L38.5,181.5z M32.6,175.6l1.6-2.8c0.1-0.2,0.2-0.2,0.4-0.2l0.2,0.1l3.3,1.9c0.2,0.1,0.5,0.1,0.7,0.1
		c0.2-0.1,0.4-0.2,0.5-0.4l4.9-8.7c0.1-0.2,0.4-0.3,0.6-0.2l2.9,1.6c0.1,0.1,0.2,0.2,0.2,0.3c0,0.1,0,0.2,0,0.4l-6.7,12
		c-0.2,0.3-0.4,0.5-0.8,0.6c-0.3,0.1-0.7,0.1-1-0.1l-6.6-3.7C32.6,176.1,32.5,175.8,32.6,175.6z"/>
	<path fill="#380D75" d="M470.8,137.2c0,0.5,0.4,0.9,0.9,0.9h0h4.1c0.5-0.1,0.9-0.5,0.8-1c0-0.4-0.4-0.8-0.8-0.8h-4.1
		C471.2,136.3,470.8,136.7,470.8,137.2L470.8,137.2z"/>
	<path fill="#380D75" d="M446.7,137.2c0,0.5,0.4,0.9,0.9,0.9h4.1c0.5,0.1,0.9-0.3,1-0.8s-0.3-0.9-0.8-1h-0.2h-4.1
		C447.1,136.3,446.7,136.7,446.7,137.2L446.7,137.2z"/>
	<path fill="#380D75" d="M461.7,122.2c-0.5,0-0.9,0.4-0.9,0.9v4.1c-0.1,0.5,0.3,0.9,0.8,1c0.5,0.1,0.9-0.3,1-0.8v-0.2v-4.1
		C462.6,122.6,462.2,122.2,461.7,122.2L461.7,122.2z"/>
	<path fill="#380D75" d="M453.5,131.4c0.2,0,0.5-0.1,0.7-0.3c0.4-0.4,0.4-0.9,0-1.3l-2.9-2.9c-0.3-0.4-0.9-0.4-1.3-0.1
		c-0.4,0.3-0.4,0.9-0.1,1.3l0.1,0.1l2.9,2.9C453.1,131.4,453.3,131.4,453.5,131.4z"/>
	<path fill="#380D75" d="M472.2,127l-2.9,2.9c-0.4,0.4-0.4,0.9,0,1.3c0.4,0.3,0.9,0.3,1.3,0l2.9-2.9c0.4-0.3,0.4-0.9,0.1-1.3
		C473.2,126.6,472.6,126.6,472.2,127L472.2,127z"/>
	<path fill="#380D75" d="M450.9,147.5c0.2,0,0.5-0.1,0.6-0.3l2.9-2.9c0.4-0.3,0.4-0.9,0.1-1.3c-0.3-0.4-0.9-0.4-1.3-0.1l-0.1,0.1
		l-2.9,3c-0.4,0.4-0.4,0.9,0,1.3C450.5,147.4,450.7,147.5,450.9,147.5z"/>
	<path fill="#380D75" d="M461.3,135.2c-2,0.3-3.3,2.1-3,4.1c0.2,1.3,1.1,2.4,2.4,2.8l13.8,5.1c0.1,0,0.2,0,0.3,0
		c0.5,0,0.9-0.4,0.9-0.9c0-0.3-0.1-0.5-0.3-0.7l-11.2-9.6C463.5,135.3,462.4,135,461.3,135.2z M461.3,140.4
		c-0.9-0.3-1.4-1.3-1.2-2.2c0-0.1,0.1-0.2,0.2-0.3c0.3-0.5,0.7-0.8,1.3-0.9h0.3c0.5,0,0.9,0.2,1.2,0.5l7.4,6.3L461.3,140.4z"/>
	<path fill="#380D75" d="M461.7,117.3c-0.5,0-0.9,0.4-0.9,0.9c0,0.5,0.4,0.9,0.9,0.9c10.3-0.1,18.8,8.3,18.8,18.6
		c0.1,8.8-6.1,16.5-14.7,18.4c-0.5,0.1-0.8,0.6-0.7,1.1l0,0c0.1,0.4,0.5,0.7,0.9,0.7h0.2c11.1-2.5,18-13.5,15.5-24.5
		C479.7,124,471.3,117.3,461.7,117.3L461.7,117.3z"/>
	<path fill="#380D75" d="M461.7,158.3c0.5,0,0.9-0.4,0.9-0.9s-0.4-0.9-0.9-0.9c-10.3,0-18.7-8.4-18.7-18.7c0-9.2,6.6-17,15.7-18.5
		c0.5-0.1,0.8-0.6,0.7-1.1c-0.1-0.4-0.5-0.7-1-0.7c-11.2,1.9-18.7,12.4-16.9,23.6C443.1,151.1,451.7,158.3,461.7,158.3z"/>
	<path fill="#380D75" d="M249.3,159.5v-8.2c0-1.5-1.2-2.7-2.7-2.7h-11.1c-1.5,0-2.7,1.2-2.7,2.7v8.2c0,1.5,1.2,2.7,2.7,2.7h1.2
		l1.7,2.3c0.2,0.2,0.4,0.4,0.7,0.4c0.3,0,0.6-0.1,0.7-0.4l1.7-2.3h5.1C248.1,162.2,249.3,161,249.3,159.5z M241,160.4
		c-0.3,0-0.6,0.1-0.7,0.4l-1.2,1.7l-1.2-1.7c-0.2-0.2-0.4-0.4-0.7-0.4h-1.6c-0.5,0-0.9-0.4-0.9-0.9v-8.2c0-0.5,0.4-0.9,0.9-0.9h11.1
		c0.5,0,0.9,0.4,0.9,0.9v8.2c0,0.5-0.4,0.9-0.9,0.9H241z"/>
	<path fill="#380D75" d="M243.9,154.5h-5.7c-0.5-0.1-0.9,0.3-1,0.8s0.3,0.9,0.8,1h0.2h5.7c0.5,0.1,0.9-0.3,1-0.8
		c0.1-0.5-0.3-0.9-0.8-1H243.9z"/>
	<path fill="#380D75" d="M249.4,163.1c0,0.5,0.4,0.9,0.9,0.9h0h4c0.5,0.1,0.9-0.3,1-0.8c0.1-0.5-0.3-0.9-0.8-1h-0.2h-4
		C249.8,162.2,249.4,162.6,249.4,163.1z"/>
	<path fill="#380D75" d="M255.8,169.7h1.2c1.5,0,2.7-1.2,2.7-2.7v-8.2c0-1.5-1.2-2.7-2.7-2.7h-5.2c-0.5,0.1-0.9,0.5-0.8,1
		c0,0.4,0.4,0.8,0.8,0.8h5.2c0.5,0,0.9,0.4,0.9,0.9v0v8.2c0,0.5-0.4,0.9-0.9,0.9h0h-1.7c-0.3,0-0.6,0.1-0.7,0.4l-1.2,1.7l-1.2-1.7
		c-0.2-0.2-0.4-0.4-0.7-0.4h-5.5c-0.5,0-0.9-0.4-0.9-0.9v-2.6c0-0.5-0.4-0.9-0.9-0.9c-0.5,0-0.9,0.4-0.9,0.9v2.6
		c0,1.5,1.2,2.7,2.7,2.7h5.1l1.7,2.3c0.2,0.2,0.4,0.4,0.7,0.4c0.3,0,0.6-0.1,0.7-0.4L255.8,169.7z"/>
	<path fill="#380D75" d="M73.9,210.9v-8.2c0-1.5-1.2-2.7-2.7-2.7H60.1c-1.5,0-2.7,1.2-2.7,2.7v8.2c0,1.5,1.2,2.7,2.7,2.7h1.2
		l1.7,2.4c0.3,0.4,0.9,0.5,1.3,0.2l0.2-0.2l1.7-2.4h5.1C72.7,213.6,73.9,212.4,73.9,210.9z M65.6,211.7c-0.3,0-0.6,0.1-0.7,0.4
		l-1.2,1.7l-1.2-1.7c-0.2-0.2-0.4-0.4-0.7-0.4h-1.6c-0.5,0-0.9-0.4-0.9-0.9v-8.2c0-0.5,0.4-0.9,0.9-0.9h11.1c0.5,0,0.9,0.4,0.9,0.9
		v8.2c0,0.5-0.4,0.9-0.9,0.9H65.6z"/>
	<path fill="#380D75" d="M68.5,205.8h-5.7c-0.5-0.1-0.9,0.3-1,0.8s0.3,0.9,0.8,1h0.2h5.7c0.5,0.1,0.9-0.3,1-0.8
		c0.1-0.5-0.3-0.9-0.8-1H68.5z"/>
	<path fill="#380D75" d="M78.8,215.3c0.5,0.1,0.9-0.3,1-0.8c0.1-0.5-0.3-0.9-0.8-1h-0.2h-3.9c-0.5-0.1-0.9,0.3-1,0.8s0.3,0.9,0.8,1
		h0.2H78.8z"/>
	<path fill="#380D75" d="M77.9,223.8L77.9,223.8c0.3,0,0.6-0.1,0.7-0.4l1.7-2.3h1.2c1.5,0,2.7-1.2,2.7-2.7v-8.2
		c0-1.5-1.2-2.7-2.7-2.7h-5.2c-0.5-0.1-0.9,0.3-1,0.8c-0.1,0.5,0.3,0.9,0.8,1h0.2h5.2c0.5,0,0.9,0.4,0.9,0.9v8.2
		c0,0.5-0.4,0.9-0.9,0.9h-1.6c-0.3,0-0.6,0.1-0.7,0.4l-1.2,1.7l-1.2-1.7c-0.2-0.2-0.4-0.4-0.7-0.4h-5.5c-0.5,0-0.9-0.4-0.9-0.9v0
		v-2.6c0-0.5-0.4-0.9-0.9-0.9c-0.5,0-0.9,0.4-0.9,0.9v2.6c0,1.5,1.2,2.7,2.7,2.7h5.1l1.7,2.3C77.3,223.6,77.6,223.8,77.9,223.8z"/>
	<path fill="#380D75" d="M351.1,209.1c0-1.4-0.2-2.7-0.6-4c-0.2-0.5-0.7-0.7-1.2-0.5c-0.4,0.2-0.6,0.6-0.6,1
		c1.1,3.9,0.3,8.1-2.1,11.3V214c0-1.8-1.5-3.3-3.3-3.3c-0.5,0-0.9-0.4-0.9-0.9v0v-2.5c0-0.7,0.4-1.4,1.1-1.8l5.1-2.8l0.1-0.1
		l0.1-0.1l0.1-0.2l0.1-0.2v-0.2v-0.1l-0.1-0.2v-0.1c-4.2-6.9-13.2-9-20.1-4.8c-5.9,3.6-8.5,10.9-6.1,17.5c0.1,0.4,0.5,0.6,0.8,0.6
		c0.1,0,0.2,0,0.3,0c0.5-0.2,0.7-0.7,0.5-1.1l0,0c-2.5-6.6,0.9-14,7.6-16.5l0.2-0.1l3.2,2.1c1,0.7,1.6,1.8,1.6,3v0.5
		c0,1.4-1.2,2.6-2.6,2.6h-1.9c-2,0-3.6,1.6-3.6,3.6v0.8c0,2,1.6,3.6,3.6,3.6c0.8,0,1.4,0.6,1.4,1.4s-0.6,1.4-1.4,1.4h0h-7.4h-0.1
		h-0.2l-0.2,0.1h-0.1l0,0.1l-0.1,0.1l-0.1,0.1l-0.1,0.2v0.2v0.1v0.1v0.2l0.1,0.2v0.1c4.6,6.6,13.7,8.3,20.4,3.7
		c4-2.7,6.3-7.2,6.3-12L351.1,209.1z M327.1,217.8h5.5c1.8,0,3.2-1.5,3.2-3.2c0-1.8-1.5-3.2-3.2-3.2c-1,0-1.8-0.8-1.8-1.8v-0.8
		c0-1,0.8-1.8,1.8-1.8h1.9c2.4,0,4.4-2,4.4-4.4v-0.5c0-1.8-0.9-3.5-2.4-4.5l-1.8-1.2c4.7-0.7,9.5,1.3,12.2,5.2l-4.2,2.3
		c-1.2,0.7-2,2-2,3.4v2.5c0,1.5,1.2,2.7,2.7,2.7c0.8,0,1.5,0.7,1.5,1.5v4.6v0.2C339.6,223.3,331.7,222.9,327.1,217.8L327.1,217.8z"
		/>
	<path fill="#380D75" d="M87.8,86c0-1.4-0.2-2.7-0.6-4.1c-0.1-0.5-0.6-0.8-1.1-0.6c-0.5,0.1-0.8,0.6-0.6,1.1
		c1.1,3.9,0.3,8.1-2.1,11.3v-2.9c0-1.8-1.5-3.3-3.3-3.3c-0.5,0-0.9-0.4-0.9-0.9v-2.4c0-0.7,0.4-1.4,1.1-1.8l5.1-2.8l0.1-0.1l0.1-0.1
		l0.1-0.2l0.1-0.1v-0.2v-0.1l-0.1-0.2v-0.1c-4.2-6.9-13.2-9.1-20.1-4.8c-5.9,3.6-8.5,10.9-6.1,17.4c0.1,0.4,0.5,0.6,0.9,0.6
		c0.1,0,0.2,0,0.3-0.1c0.5-0.2,0.7-0.7,0.6-1.1l0,0c-0.5-1.4-0.8-2.8-0.8-4.3c0-5.4,3.4-10.3,8.6-12.1l3.2,2.1c1,0.7,1.6,1.8,1.6,3
		v0.5c0,1.4-1.2,2.6-2.6,2.6h-1.9c-2,0-3.6,1.6-3.6,3.6v0.8c0,2,1.6,3.6,3.6,3.6c0.8-0.1,1.5,0.5,1.5,1.3c0.1,0.8-0.5,1.5-1.3,1.5
		h-0.2h-7.4h-0.1h-0.2l-0.2,0.1h-0.1V93l-0.1,0.1l-0.1,0.1L61,93.4v0.2v0.1v0.1l0,0.2l0.1,0.2v0.1c4.6,6.7,13.7,8.4,20.3,3.8
		C85.4,95.3,87.7,90.8,87.8,86z M63.8,94.7h5.4c1.8,0,3.2-1.5,3.2-3.2s-1.5-3.2-3.2-3.2c-1,0-1.8-0.8-1.8-1.8v0v-0.8
		c0-1,0.8-1.8,1.8-1.8h1.9c2.4,0,4.4-2,4.4-4.4V79c0-1.8-0.9-3.5-2.4-4.5l-1.8-1.2c0.6-0.1,1.2-0.1,1.9-0.2c4.1,0,8,2,10.4,5.3
		l-4.2,2.3c-1.2,0.7-2,2-2,3.4v2.4c0,1.5,1.2,2.7,2.7,2.7l0,0c0.8,0,1.5,0.7,1.5,1.5v4.6v0.2C76.3,100.2,68.4,99.7,63.8,94.7
		L63.8,94.7z"/>
	<path fill="#380D75" d="M350.3,41.4c0.5,0,0.9-0.4,0.9-0.9c0-0.2-0.1-0.4-0.2-0.6c-4.6-5.1-4.2-13,0.9-17.6
		c0.1-0.1,0.2-0.2,0.3-0.2c0.3-0.4,0.3-1-0.1-1.3c-0.3-0.2-0.7-0.3-1-0.1c-6,5.1-6.8,14.1-1.7,20.2c0.1,0.1,0.2,0.2,0.3,0.3
		C349.8,41.3,350,41.4,350.3,41.4z"/>
	<path fill="#380D75" d="M338.9,47.5c0,0.5,0.4,0.9,0.9,0.9h5.2c0.5,0,0.9-0.4,0.9-0.9v-1.7h14.3c7.9,0,14.3-6.4,14.3-14.3
		c0-7.9-6.4-14.3-14.3-14.3c-1.1,0-2.1,0.1-3.1,0.3l1-1.6c0.3-0.4,0.2-1-0.3-1.3c-0.4-0.3-1-0.2-1.3,0.3l-2.3,3.6
		c-0.3,0.4-0.1,1,0.3,1.2l3.6,2.3c0.1,0.1,0.3,0.1,0.5,0.1c0.5,0,0.9-0.4,0.9-0.9c0-0.3-0.2-0.6-0.4-0.7l-1.9-1.2
		c6.7-1.5,13.4,2.6,15,9.4s-2.6,13.4-9.4,15c-0.9,0.2-1.8,0.3-2.7,0.3h-14.3v-1.7c0-0.5-0.4-0.9-0.9-0.9h0h-5.2
		c-0.5,0-0.9,0.4-0.9,0.9v0V47.5z M340.7,43.2h3.3v3.3h-3.3L340.7,43.2z"/>
	<path fill="#380D75" d="M377.5,44H372c-0.5,0-0.9,0.4-0.9,0.9c0,0.5,0.4,0.9,0.9,0.9h0h5.7l-1.6,1.6c-0.4,0.3-0.5,0.9-0.1,1.3
		c0.3,0.4,0.9,0.5,1.3,0.1l0.1-0.1l3-3c0.4-0.3,0.4-0.9,0-1.3l0,0l-3-3c-0.4-0.3-1-0.3-1.3,0.1c-0.3,0.3-0.3,0.8,0,1.1L377.5,44z"/>
	<path fill="#380D75" d="M358.5,35.6c0.2,0,0.5-0.1,0.6-0.3l5.8-5.8c0.4-0.4,0.4-0.9,0-1.3c-0.4-0.4-0.9-0.4-1.3,0l-5.1,5.1
		l-1.7-1.7c-0.4-0.3-0.9-0.3-1.3,0.1c-0.3,0.3-0.3,0.9,0,1.2l2.4,2.4C358,35.5,358.2,35.6,358.5,35.6z"/>
	<path fill="#380D75" d="M448.4,172.1c-0.4-0.4-0.9-0.4-1.3,0l0,0l-2,2c-0.2,0.2-0.3,0.4-0.3,0.6c0,0.2,0.1,0.5,0.3,0.6l2,2
		c0.4,0.3,0.9,0.3,1.3-0.1c0.3-0.3,0.3-0.9,0-1.2l-1.4-1.4l1.4-1.4C448.7,173,448.7,172.5,448.4,172.1z"/>
	<path fill="#380D75" d="M456.4,172.1c-0.4-0.3-1-0.3-1.3,0.1c-0.3,0.3-0.3,0.8,0,1.1l1.4,1.4l-1.4,1.4c-0.4,0.3-0.5,0.9-0.1,1.3
		c0.3,0.4,0.9,0.5,1.3,0.1l0.1-0.1l2-2c0.2-0.2,0.3-0.4,0.3-0.6c0-0.2-0.1-0.5-0.3-0.6L456.4,172.1z"/>
	<path fill="#380D75" d="M453.2,170.8c-0.5-0.2-1,0.1-1.2,0.6l-2.1,6.3c-0.2,0.5,0.1,1,0.6,1.2c0.1,0,0.2,0,0.3,0
		c0.4,0,0.7-0.2,0.9-0.6l2.1-6.3C453.9,171.5,453.6,171,453.2,170.8z"/>
	<path fill="#380D75" d="M465.1,183.1l-3-2.1c3.2-5.7,1.2-12.9-4.5-16.2c-5.7-3.2-12.9-1.2-16.2,4.5c-3.2,5.7-1.2,12.9,4.5,16.2
		c5.1,2.9,11.6,1.6,15.2-3l3,2.1c0.4,0.3,0.7,0.8,0.8,1.3c0,0.5-0.1,1.1-0.5,1.4c-0.7,0.7-1.8,0.7-2.5,0c-0.1-0.1-0.2-0.2-0.2-0.3
		l-0.7-1c-0.3-0.4-0.8-0.5-1.3-0.2l0,0c-0.4,0.3-0.5,0.8-0.2,1.3l0.7,1c0.6,0.9,1.6,1.5,2.7,1.5h0.3c2,0,3.6-1.7,3.6-3.6
		C466.7,184.8,466.1,183.7,465.1,183.1L465.1,183.1z M451.8,185c-5.6,0-10.2-4.6-10.2-10.2s4.6-10.2,10.2-10.2s10.2,4.6,10.2,10.2v0
		C462,180.4,457.4,185,451.8,185z"/>
	<path fill="#380D75" d="M25.5,97.9h17.3c0.5,0,0.9-0.4,0.9-0.9v0v-3.1c0.1-0.5-0.3-0.9-0.8-1c-0.5-0.1-0.9,0.3-1,0.8v0.2v2.2H26.4
		V81.9c0.1-0.5-0.3-0.9-0.8-1s-0.9,0.3-1,0.8v0.2V97C24.5,97.5,24.9,97.9,25.5,97.9L25.5,97.9z"/>
	<path fill="#380D75" d="M25.5,79.2H31c0.5,0,0.9-0.4,0.9-0.9v-4.7h9.9v5.6v0.1l-4.5,4.5c-0.1,0.1-0.1,0.2-0.2,0.3v0.1v0.1l-0.2,1.2
		h-7.2c-0.5,0-0.9,0.4-0.9,0.9c0,0.5,0.4,0.9,0.9,0.9h6.8l-0.4,2c-0.1,0.1-0.1,0.3-0.1,0.4l-0.1,0.6h-6.2c-0.5,0-0.9,0.4-0.9,0.9
		c0,0.5,0.4,0.9,0.9,0.9h6.9h0.2l1.4-0.3c0.1,0,0.3,0,0.4-0.1l4.9-1h0.1h0.1c0.1,0,0.2-0.1,0.3-0.2l9.1-9.1l2-2
		c0.6-0.6,0.9-1.3,0.9-2.2c0-0.8-0.3-1.7-0.9-2.2l-2.2-2.2c-0.6-0.6-1.3-0.9-2.2-0.9c-0.8,0-1.6,0.3-2.2,0.9l-4.8,4.8v-4.8
		c0-0.5-0.4-0.9-0.9-0.9h0H31h-0.2h-0.1c-0.1,0-0.2,0.1-0.3,0.2l-5.6,5.6c-0.3,0.3-0.3,0.7-0.2,1C24.8,78.9,25.1,79.1,25.5,79.2z
		 M47.1,76.6l4,4l-7.8,7.8l-4-4L47.1,76.6z M38.5,89.8L38,89.3l0.6-3l2.9,2.9L38.5,89.8z M49.8,74c0.5-0.5,1.3-0.5,1.8,0l2.2,2.2
		c0.2,0.2,0.4,0.5,0.4,0.9c0,0.3-0.1,0.6-0.4,0.9l-1.3,1.3l-4-4L49.8,74z M30.1,74.9v2.5h-2.5L30.1,74.9z"/>
	<path fill="#380D75" d="M29.7,83.1h4.4c0.5,0.1,0.9-0.3,1-0.8c0.1-0.5-0.3-0.9-0.8-1h-0.2h-4.4c-0.5-0.1-0.9,0.3-1,0.8
		s0.3,0.9,0.8,1H29.7z"/>
	<path fill="#380D75" d="M441.9,187.8c-3.8-0.9-7.7-1-11.5-0.3h-0.1l-0.2,0.1l-0.2,0.1H430l-0.1,0.1l-0.1,0.2l-0.1,0.2v0.2v0.2v0.1
		v0.1c0,0.1,0.1,0.2,0.2,0.3v0.1l10.9,11.4c-1.6,7-6.3,13.2-14,18.6l-8.8,5.5l-0.2-0.2L406,212.4c-0.1-0.1-0.3-0.2-0.4-0.2l5.7-8.8
		c4.5-6.3,9.5-10.6,15-12.8c0.5-0.2,0.7-0.7,0.6-1.2s-0.7-0.7-1.2-0.6l-0.1,0c-5.8,2.3-11.2,6.8-15.9,13.5l-9,14l-5.4,4.1
		c-0.2-3.4,0.5-11.5,9.4-15.2c0.5-0.2,0.6-0.8,0.4-1.2c-0.2-0.4-0.7-0.6-1.1-0.5c-12.7,5.2-10.3,18.6-10.3,18.7
		c0.1,0.3,0.3,0.6,0.6,0.7c0.3,0.1,0.6,0,0.8-0.1l6.2-4.7l10.5,10.6l-4.7,6.2c-0.2,0.2-0.3,0.6-0.1,0.9c0.1,0.3,0.3,0.5,0.6,0.5h0.1
		c0.1,0,13.8,2.6,19-10.6c0.2-0.5-0.1-1-0.6-1.2c-0.4-0.2-0.9,0.1-1.1,0.5c-3.7,9.4-12,9.9-15.4,9.6l4.2-5.5l14.1-8.8
		c12.5-8.7,17.5-19.5,14.8-32C442.6,188.2,442.3,187.9,441.9,187.8z M404.6,213.6L404.6,213.6l11.8,11.9l-3.2,2l-10.6-10.7
		L404.6,213.6z M432.5,189c2.8-0.3,5.7-0.2,8.5,0.4c0.6,2.9,0.7,5.9,0.3,8.8L432.5,189z"/>
	<path fill="#380D75" d="M432.1,204.4c0-1.7-0.6-3.2-1.8-4.4c-2.3-2.5-6.3-2.7-8.8-0.4c-2.5,2.3-2.7,6.3-0.4,8.8
		c0.1,0.1,0.2,0.2,0.3,0.3c0.7,0.7,1.6,1.3,2.6,1.5c0.6,0.2,1.2,0.3,1.9,0.3c1.7,0,3.2-0.6,4.4-1.8
		C431.5,207.6,432.1,206,432.1,204.4z M429,207.5L429,207.5c-1.7,1.7-4.5,1.7-6.2,0s-1.7-4.5,0-6.2c1.7-1.7,4.5-1.7,6.2,0l0,0
		C430.8,203,430.8,205.8,429,207.5L429,207.5L429,207.5z"/>
	<path fill="#380D75" d="M159,225c-0.1-0.3-0.3-0.5-0.6-0.6c-0.3-0.1-0.6,0-0.9,0.2l-2.7,2.2l-4.8-5c-0.3-0.3-0.7-0.4-1.1-0.2
		c-0.4,0.2-0.5,0.6-0.4,1l3.1,12.2c0.1,0.3,0.3,0.5,0.6,0.6c0.3,0.1,0.6,0,0.9-0.2l2.7-2.2l5.2,6.1c0.2,0.2,0.4,0.3,0.7,0.3
		c0.1,0,0.3,0,0.4-0.1c0.4-0.2,0.6-0.6,0.5-1L159,225z M156.5,231.2c-0.3-0.4-0.9-0.4-1.3-0.1l0,0L153,233l-2-7.5l3,3.2
		c0.3,0.3,0.9,0.4,1.2,0.1l2.3-1.9l2.1,8.1L156.5,231.2z"/>
	<path fill="#380D75" d="M226.3,98.8c3.6,0,7-1.6,9.2-4.3l3,2.1c0.8,0.5,1.1,1.6,0.6,2.5c-0.5,0.8-1.6,1.1-2.5,0.6
		c-0.2-0.1-0.5-0.4-0.6-0.6l-0.9-1.3c-0.3-0.4-0.8-0.5-1.3-0.2l0,0c-0.4,0.3-0.5,0.8-0.2,1.2l0,0l0.9,1.3c0.6,0.9,1.6,1.5,2.6,1.5
		h0.3c2,0,3.6-1.7,3.6-3.6c0-1.2-0.6-2.3-1.6-2.9l-3-2.1c3.4-5.7,1.6-13.1-4.1-16.5c-5.7-3.4-13.1-1.6-16.5,4.1
		c-3.4,5.7-1.6,13.1,4.1,16.5C222,98.1,224.1,98.7,226.3,98.8L226.3,98.8z M226.3,76.6c5.6,0,10.2,4.6,10.2,10.2S232,97,226.3,97
		c-5.6,0-10.2-4.6-10.2-10.2v0C216.1,81.1,220.7,76.6,226.3,76.6z"/>
	<path fill="#380D75" d="M226.3,92.6c2.8,0,5.4-2,6.9-5.3c0.2-0.4,0.2-0.8,0-1.1c-1.6-3.3-4.2-5.3-6.9-5.3c-2,0.1-3.9,1-5.2,2.6
		c-0.4,0.4-0.4,0.9,0,1.3c0.4,0.4,0.9,0.4,1.3,0l0.1-0.1c0.9-1.2,2.3-1.9,3.8-2c2,0,3.9,1.5,5.2,4c-1.3,2.5-3.2,4-5.2,4
		c-2,0-4-1.6-5.3-4.2c-0.2-0.4-0.8-0.6-1.2-0.4c-0.4,0.2-0.6,0.7-0.4,1.1C221,90.7,223.5,92.6,226.3,92.6z"/>
	<path fill="#380D75" d="M228.1,86.8c0-1-0.8-1.8-1.8-1.8s-1.8,0.8-1.8,1.8s0.8,1.8,1.8,1.8h0C227.3,88.6,228.1,87.8,228.1,86.8
		L228.1,86.8z"/>
	<path fill="#380D75" d="M437,73.9V87c0,1.9,1.5,3.4,3.4,3.4h15.5c0.5,0.1,0.9-0.3,1-0.8s-0.3-0.9-0.8-1h-0.2h-15.6
		c-0.9,0-1.6-0.7-1.6-1.6V73.9c0-0.9,0.7-1.6,1.6-1.6h20.1c0.9,0,1.6,0.7,1.6,1.6V87c0,0.9-0.7,1.6-1.6,1.6c-0.5,0.1-0.9,0.5-0.8,1
		c0,0.4,0.4,0.8,0.8,0.8c1.9,0,3.4-1.5,3.4-3.4V73.9c0-1.9-1.5-3.4-3.4-3.4h-20.1C438.5,70.6,437,72.1,437,73.9z"/>
	<path fill="#380D75" d="M454.4,83.9c0.3,0.4,0.9,0.5,1.3,0.1l3.6-2.8c0.4-0.3,0.5-0.9,0.1-1.3l-0.1-0.1l-3.6-2.8
		c-0.4-0.3-1-0.2-1.3,0.2c-0.3,0.4-0.2,0.9,0.1,1.2l2.7,2.1l-2.7,2.1C454.2,82.9,454.1,83.5,454.4,83.9L454.4,83.9z"/>
	<path fill="#380D75" d="M446.5,77.1c-0.3-0.4-0.9-0.5-1.3-0.2l0,0l-3.6,2.8c-0.4,0.3-0.5,0.9-0.2,1.3l0.2,0.2l3.6,2.8
		c0.2,0.1,0.4,0.2,0.6,0.2c0.3,0,0.5-0.1,0.7-0.3c0.3-0.4,0.2-1-0.2-1.3l0,0l-2.7-2.1l2.7-2.1C446.7,78,446.7,77.5,446.5,77.1z"/>
	<path fill="#380D75" d="M451.5,75.9l-3.6,8.5c-0.2,0.5,0,1,0.5,1.2c0.1,0,0.2,0.1,0.3,0.1c0.4,0,0.7-0.2,0.8-0.5l3.6-8.5
		c0.2-0.5,0-1-0.5-1.2C452.2,75.2,451.7,75.4,451.5,75.9L451.5,75.9z"/>
	<path fill="#380D75" d="M118.8,48.9c0.5,0.1,0.9-0.3,1-0.8s-0.3-0.9-0.8-1h-0.2H115c-0.5-2.1-2.6-3.4-4.7-2.9
		c-1.5,0.3-2.6,1.5-2.9,2.9h-3.8c-0.5-0.1-0.9,0.3-1,0.8c-0.1,0.5,0.3,0.9,0.8,1h0.2h3.8c0.5,2.1,2.6,3.4,4.7,2.9
		c1.5-0.3,2.6-1.5,2.9-2.9H118.8z M111.2,50.1c-1.2,0-2.1-0.9-2.1-2.1c0-1.2,0.9-2.1,2.1-2.1c1.2,0,2.1,0.9,2.1,2.1v0
		C113.3,49.2,112.4,50.1,111.2,50.1z"/>
	<path fill="#380D75" d="M299.4,210h-3.8c-0.5-2.1-2.6-3.4-4.7-2.9c-1.5,0.3-2.6,1.5-2.9,2.9h-3.8c-0.5,0-0.9,0.4-0.9,0.9
		c0,0.5,0.4,0.9,0.9,0.9h3.8c0.5,2.1,2.6,3.4,4.7,2.9c1.5-0.3,2.6-1.5,2.9-2.9h3.8c0.5,0,0.9-0.4,0.9-0.9
		C300.3,210.4,299.9,210,299.4,210z M291.8,213c-1.2,0-2.1-1-2.1-2.1c0-1.2,1-2.1,2.1-2.1c1.2,0,2.1,1,2.1,2.1
		C293.9,212,293,213,291.8,213L291.8,213L291.8,213z"/>
	<path fill="#380D75" d="M353,61c1.8,0,3.4-1.3,3.8-3.1h3.8c0.5,0.1,0.9-0.3,1-0.8c0.1-0.5-0.3-0.9-0.8-1h-0.2h-3.8
		c-0.5-2.1-2.6-3.4-4.7-2.9c-1.5,0.3-2.6,1.5-2.9,2.9h-3.8c-0.5-0.1-0.9,0.3-1,0.8c-0.1,0.5,0.3,0.9,0.8,1h0.2h3.8
		C349.6,59.7,351.2,61,353,61z M353,54.9c1.2,0,2.1,1,2.1,2.1c0,1.2-1,2.1-2.1,2.1c-1.2,0-2.1-1-2.1-2.1l0,0
		C350.9,55.8,351.8,54.9,353,54.9L353,54.9z"/>
	<path fill="#380D75" d="M128.1,189.8h-3.8c-0.5,0-0.9,0.4-0.9,0.9s0.4,0.9,0.9,0.9h3.8c0.5,2.1,2.6,3.4,4.7,2.9
		c1.5-0.3,2.6-1.5,2.9-2.9h3.8c0.5,0,0.9-0.4,0.9-0.9s-0.4-0.9-0.9-0.9h-3.8c-0.5-2.1-2.6-3.4-4.7-2.9
		C129.6,187.2,128.4,188.4,128.1,189.8z M134.1,190.7c0,1.2-1,2.1-2.1,2.1c-1.2,0-2.1-1-2.1-2.1s1-2.1,2.1-2.1h0
		C133.1,188.6,134.1,189.6,134.1,190.7L134.1,190.7z"/>
	<path fill="#380D75" d="M63,51h-3.7c-0.5-0.1-0.9,0.3-1,0.8c-0.1,0.5,0.3,0.9,0.8,1h0.2H63c0.5,2.1,2.6,3.4,4.7,2.9
		c1.5-0.3,2.6-1.5,2.9-2.9h3.8c0.5,0.1,0.9-0.3,1-0.8c0.1-0.5-0.3-0.9-0.8-1h-0.2h-3.7c-0.4-2.1-2.5-3.5-4.7-3
		C64.5,48.3,63.3,49.5,63,51z M66.8,49.8c1.2,0,2.1,1,2.1,2.1c0,1.2-1,2.1-2.1,2.1c-1.2,0-2.1-1-2.1-2.1
		C64.7,50.7,65.7,49.8,66.8,49.8L66.8,49.8L66.8,49.8z"/>
	<path fill="#380D75" d="M118.8,76.7h11.1c2.3,0,4.2-1.9,4.2-4.2V61.4c0-2.3-1.9-4.2-4.2-4.2h-11.1c-2.3,0-4.2,1.9-4.2,4.2v11.1
		C114.6,74.9,116.5,76.7,118.8,76.7z M116.4,61.4c0-1.3,1.1-2.4,2.4-2.4h11.1c1.3,0,2.4,1.1,2.4,2.4v11.1c0,1.3-1.1,2.4-2.4,2.4
		h-11.1c-1.3,0-2.4-1.1-2.4-2.4V61.4z"/>
	<path fill="#380D75" d="M118.8,71.3c0.2,0.2,0.4,0.3,0.7,0.3c0.2,0,0.5-0.1,0.6-0.2l3.8-3.6c0.2-0.2,0.3-0.4,0.3-0.6
		c0-0.2-0.1-0.5-0.3-0.7l-3.8-3.6c-0.3-0.4-0.9-0.5-1.3-0.2s-0.5,0.9-0.2,1.3l0.2,0.2l3.2,3l-3.1,3
		C118.5,70.3,118.5,70.9,118.8,71.3z"/>
	<path fill="#380D75" d="M125.8,71.5h3.4c0.5,0,0.9-0.4,0.9-0.9c0-0.5-0.4-0.9-0.9-0.9h-3.4c-0.5,0-0.9,0.4-0.9,0.9
		C124.9,71.1,125.3,71.5,125.8,71.5z"/>
	<path fill="#380D75" d="M265.8,138.2c3.8,0,6.8-3,6.8-6.8s-3-6.8-6.8-6.8c-3.8,0-6.8,3-6.8,6.8c0,2.1,1,4.1,2.7,5.4
		c-0.1,0-0.2-0.1-0.3-0.1h-0.1h-9.5c-0.2-0.9-0.7-1.8-1.4-2.4c-1.4-1-2.5-2.4-3.2-4c-0.2-0.4-0.8-0.6-1.2-0.4
		c-0.4,0.2-0.6,0.7-0.4,1.1c0.8,1.9,2.1,3.5,3.8,4.7c0.5,0.4,0.8,0.9,0.8,1.6l-0.1,2.9c-0.1,3.4,2.6,6.2,6,6.3h0.1
		c3.3,0,6-2.7,6.1-6l0.1-2.9c0-0.2-0.1-0.4-0.2-0.6C263.1,137.8,264.4,138.2,265.8,138.2z M263.6,135.9c0.4-0.8,1.3-1.4,2.2-1.4
		c0.9,0,1.7,0.5,2.1,1.3C266.6,136.5,265,136.5,263.6,135.9z M260.8,131.4c-0.1-2.8,2.1-5.1,4.9-5.1c2.8-0.1,5.1,2.1,5.1,4.9
		c0,1.3-0.4,2.6-1.3,3.5c-1.2-2-3.8-2.6-5.8-1.4c-0.6,0.4-1.1,0.9-1.5,1.5C261.3,133.9,260.8,132.7,260.8,131.4z M251.7,140.3v-1.8
		h8.6v2v0.2h-8.6C251.7,140.6,251.7,140.5,251.7,140.3z M255.9,144.8c-1.5,0-2.9-0.9-3.6-2.2h7.5C259,143.9,257.5,144.8,255.9,144.8
		z"/>
	<path fill="#380D75" d="M265.8,131.6c0.9,0,1.7-0.7,1.7-1.7c0-0.9-0.7-1.7-1.7-1.7c-0.9,0-1.7,0.7-1.7,1.7v0
		C264.2,130.9,264.9,131.6,265.8,131.6z"/>
	<path fill="#380D75" d="M247,127.8c3.7,0,6.8-3,6.8-6.7c0-1.5-0.5-2.9-1.4-4.1c5.1-2.2,11.1,0.1,13.3,5.2c0.1,0.2,0.2,0.4,0.2,0.6
		c0.1,0.4,0.5,0.6,0.8,0.6c0.1,0,0.2,0,0.3,0c0.5-0.2,0.7-0.7,0.5-1.2c-2.3-6.2-9.2-9.4-15.4-7.1c-0.4,0.1-0.7,0.3-1,0.4l-0.2,0.1
		c-3-2.2-7.2-1.6-9.5,1.4s-1.6,7.2,1.4,9.5C244.1,127.4,245.6,127.8,247,127.8L247,127.8z M244.9,125.5c0.4-0.8,1.3-1.4,2.2-1.4
		c0.9,0,1.7,0.5,2.1,1.3C247.9,126.1,246.3,126.1,244.9,125.5z M247,116c2.8,0,5,2.2,5,5c0,1.2-0.4,2.4-1.3,3.3
		c-1.2-2-3.8-2.6-5.8-1.4c-0.6,0.4-1.1,0.9-1.5,1.5c-1.9-2-1.8-5.1,0.2-7C244.6,116.6,245.8,116.1,247,116L247,116z"/>
	<circle fill="#380D75" cx="247" cy="119.6" r="1.7"/>
	<path fill="#380D75" d="M78.2,57c-0.1,0.3,0,0.7,0.2,0.9l12.7,14.5c0.3,0.4,0.9,0.4,1.3,0.1c0.1-0.1,0.2-0.2,0.3-0.4l1.8-4.8
		l6.2,3.5c0.3,0.2,0.7,0.2,1,0c0.1-0.1,0.2-0.2,0.3-0.3c0.3-0.4,0.1-1-0.3-1.2l0,0l-7.1-4.1c-0.2-0.1-0.5-0.2-0.8-0.1
		c-0.3,0.1-0.4,0.3-0.5,0.5l-1.6,4.4L80.8,58l15.9-2.3l-1.8,4.8c-0.1,0.3-0.1,0.5,0.1,0.8c0.1,0.2,0.4,0.4,0.6,0.4l7.1,1.1l-1.4,3.8
		c-0.2,0.5,0.1,1,0.5,1.2c0.5,0.2,1-0.1,1.2-0.5l0,0l1.8-4.8c0.1-0.3,0.1-0.5-0.1-0.8c-0.1-0.2-0.4-0.4-0.6-0.4l-7-1.1l1.9-5.3
		c0.1-0.3,0.1-0.6-0.1-0.9c-0.2-0.2-0.5-0.4-0.8-0.3l-19,2.8C78.6,56.4,78.3,56.7,78.2,57z"/>
	<path fill="#380D75" d="M336.4,82.5c0.1,0.5,0.6,0.8,1.1,0.6l5-1.3c0.3-0.1,0.5-0.3,0.6-0.5c0.1-0.2,0.1-0.5,0-0.8l-3.2-6.4
		l5.4-1.5c0.3-0.1,0.5-0.3,0.6-0.6c0.1-0.3,0-0.6-0.2-0.9l-13.2-14c-0.2-0.2-0.6-0.3-0.9-0.2c-0.3,0.1-0.6,0.3-0.7,0.7l-4.6,18.8
		c-0.1,0.5,0.2,1,0.7,1.1c0.2,0,0.3,0,0.5,0l4.9-1.3l0.7,7.1c0,0.4,0.3,0.7,0.6,0.8c0.1,0,0.3,0,0.4,0c0.5,0,0.9-0.5,0.8-1l0,0
		l-0.8-8.2c0-0.3-0.2-0.5-0.4-0.7c-0.2-0.2-0.5-0.2-0.8-0.1l-4.5,1.2l3.8-15.6l11,11.6l-5,1.4c-0.5,0.1-0.8,0.6-0.6,1.1l0.1,0.2
		l3.2,6.5l-3.9,1c-0.5,0.1-0.8,0.6-0.7,1.1L336.4,82.5z"/>
	<path fill="#380D75" d="M51.5,210h-2.3v-2.3c0-0.5-0.4-0.9-0.9-0.9c-0.5,0-0.9,0.4-0.9,0.9v2.3H45c-0.5,0-0.9,0.4-0.9,0.9
		c0,0.5,0.4,0.9,0.9,0.9h2.3v2.3c0,0.5,0.4,0.9,0.9,0.9s0.9-0.4,0.9-0.9v0v-2.3h2.3c0.5,0,0.9-0.4,0.9-0.9
		C52.4,210.4,52,210,51.5,210z"/>
	<path fill="#380D75" d="M316.8,164.1c0-0.5-0.4-0.9-0.9-0.9h0h-2.3v-2.3c0-0.5-0.4-0.9-0.9-0.9c-0.5,0-0.9,0.4-0.9,0.9v2.3h-2.3
		c-0.5-0.1-0.9,0.3-1,0.8c-0.1,0.5,0.3,0.9,0.8,1h0.2h2.3v2.3c0,0.5,0.4,0.9,0.9,0.9c0.5,0,0.9-0.4,0.9-0.9V165h2.3
		C316.4,165,316.8,164.6,316.8,164.1z"/>
	<path fill="#380D75" d="M287.7,95.8h2.3v2.3c0,0.5,0.4,0.9,0.9,0.9c0.5,0,0.9-0.4,0.9-0.9v-2.3h2.3c0.5,0,0.9-0.4,0.9-0.9
		s-0.4-0.9-0.9-0.9h-2.4v-2.3c0-0.5-0.4-0.9-0.9-0.9c-0.5,0-0.9,0.4-0.9,0.9V94h-2.3c-0.5,0-0.9,0.4-0.9,0.9
		C286.7,95.4,287.1,95.8,287.7,95.8L287.7,95.8z"/>
	<path fill="#380D75" d="M175.8,92.7c0.5,0,0.9-0.4,0.9-0.9v0v-2.3h2.3c0.5,0,0.9-0.4,0.9-0.9c0-0.5-0.4-0.9-0.9-0.9h-2.3v-2.3
		c0.1-0.5-0.3-0.9-0.8-1c-0.5-0.1-0.9,0.3-1,0.8v0.2v2.3h-2.3c-0.5,0-0.9,0.4-0.9,0.9c0,0.5,0.4,0.9,0.9,0.9h0h2.3v2.3
		C174.9,92.3,175.3,92.7,175.8,92.7z"/>
	<path fill="#380D75" d="M321.3,98.8c0.5,0,0.9-0.4,0.9-0.9v-2.3h2.3c0.5,0,0.9-0.4,0.9-0.9c0-0.5-0.4-0.9-0.9-0.9h-2.3v-2.3
		c0-0.5-0.4-0.9-0.9-0.9c-0.5,0-0.9,0.4-0.9,0.9v2.3h-2.3c-0.5,0-0.9,0.4-0.9,0.9c0,0.5,0.4,0.9,0.9,0.9h0h2.3v2.3
		C320.4,98.4,320.8,98.8,321.3,98.8z"/>
	<path fill="#380D75" d="M417.5,44.2h2.3v2.3c0,0.5,0.4,0.9,0.9,0.9c0.5,0,0.9-0.4,0.9-0.9v-2.3h2.3c0.5,0,0.9-0.4,0.9-0.9
		c0-0.5-0.4-0.9-0.9-0.9h0h-2.3V40c0-0.5-0.4-0.9-0.9-0.9c-0.5,0-0.9,0.4-0.9,0.9v2.3h-2.3c-0.5,0-0.9,0.4-0.9,0.9
		C416.5,43.7,416.9,44.1,417.5,44.2z"/>
	<path fill="#380D75" d="M334.8,236.9h-2.3v-2.3c0.1-0.5-0.3-0.9-0.8-1c-0.5-0.1-0.9,0.3-1,0.8v0.2v2.3h-2.3c-0.5-0.1-0.9,0.3-1,0.8
		s0.3,0.9,0.8,1h0.2h2.3v2.3c0.1,0.5,0.5,0.9,1,0.8c0.4,0,0.8-0.4,0.8-0.8v-2.3h2.3c0.5-0.1,0.9-0.5,0.8-1
		C335.5,237.3,335.2,237,334.8,236.9z"/>
	<path fill="#380D75" d="M199.2,127.4c0.5,0,0.9-0.4,0.9-0.9v0v-2.3h2.3c0.5-0.1,0.9-0.5,0.8-1c0-0.4-0.4-0.8-0.8-0.8h-2.3V120
		c-0.1-0.5-0.5-0.9-1-0.8c-0.4,0-0.8,0.4-0.8,0.8v2.3H196c-0.5-0.1-0.9,0.3-1,0.8c-0.1,0.5,0.3,0.9,0.8,1h0.2h2.3v2.3
		C198.3,127,198.7,127.4,199.2,127.4L199.2,127.4z"/>
	<path fill="#380D75" d="M209.5,208.9h-2.3v-2.3c0-0.5-0.4-0.9-0.9-0.9s-0.9,0.4-0.9,0.9v2.3H203c-0.5,0-0.9,0.4-0.9,0.9
		c0,0.5,0.4,0.9,0.9,0.9h2.3v2.3c0,0.5,0.4,0.9,0.9,0.9s0.9-0.4,0.9-0.9v-2.3h2.3c0.5,0,0.9-0.4,0.9-0.9
		C210.4,209.3,210,208.9,209.5,208.9z"/>
	<path fill="#380D75" d="M216,66.3l2.1,1.1l-1.1,2.1c-0.2,0.4-0.1,1,0.4,1.2l0,0c0.4,0.2,1,0.1,1.2-0.4l1.1-2.1l2.1,1.1
		c0.4,0.2,1,0.1,1.2-0.4c0.2-0.4,0.1-1-0.4-1.2l-2.1-1.1l1.1-2.1c0.3-0.4,0.3-0.9-0.1-1.3c-0.4-0.3-0.9-0.3-1.3,0.1
		c-0.1,0.1-0.2,0.3-0.2,0.4l-1.1,2.1l-2.1-1.1c-0.4-0.2-1-0.1-1.2,0.4S215.6,66.1,216,66.3L216,66.3z"/>
	<path fill="#380D75" d="M125.9,41.7c-0.5,0-0.9,0.4-0.9,0.9c0,0.5,0.4,0.9,0.9,0.9h2.3v2.3c0,0.5,0.4,0.9,0.9,0.9
		c0.5,0,0.9-0.4,0.9-0.9v-2.3h2.3c0.5,0,0.9-0.4,0.9-0.9c0-0.5-0.4-0.9-0.9-0.9H130v-2.3c0-0.5-0.4-0.9-0.9-0.9
		c-0.5,0-0.9,0.4-0.9,0.9v2.3H125.9z"/>
	<path fill="#380D75" d="M310.8,210.3c0.5,0,0.9-0.4,0.9-0.9v-2.3h2.3c0.5,0,0.9-0.4,0.9-0.9c0-0.5-0.4-0.9-0.9-0.9h-2.3v-2.3
		c0-0.5-0.4-0.9-0.9-0.9c-0.5,0-0.9,0.4-0.9,0.9v2.3h-2.3c-0.5,0-0.9,0.4-0.9,0.9c0,0.5,0.4,0.9,0.9,0.9h2.3v2.3
		C309.9,209.9,310.3,210.3,310.8,210.3z"/>
	<path fill="#380D75" d="M455.6,199h-2.3v-2.3c0-0.5-0.4-0.9-0.9-0.9s-0.9,0.4-0.9,0.9v2.3h-2.3c-0.5-0.1-0.9,0.3-1,0.8
		s0.3,0.9,0.8,1h0.2h2.3v2.3c0,0.5,0.4,0.9,0.9,0.9s0.9-0.4,0.9-0.9v-2.3h2.3c0.5,0.1,0.9-0.3,1-0.8s-0.3-0.9-0.8-1H455.6z"/>
	<path fill="#380D75" d="M99.5,85.6c0.5,0,0.9-0.4,0.9-0.9v-2.3h2.3c0.5,0,0.9-0.4,0.9-0.9c0-0.5-0.4-0.9-0.9-0.9h-2.3v-2.3
		c0-0.5-0.4-0.9-0.9-0.9c-0.5,0-0.9,0.4-0.9,0.9v2.3h-2.3c-0.5,0-0.9,0.4-0.9,0.9c0,0.5,0.4,0.9,0.9,0.9h2.3v2.3
		C98.6,85.2,99,85.6,99.5,85.6z"/>
	<path fill="#380D75" d="M60.9,69.1L60.9,69.1c0.3,0.1,0.6,0,0.9-0.2l6-5.1c0.2-0.2,0.4-0.5,0.3-0.9c-0.1-0.3-0.3-0.6-0.6-0.7
		L60,59.7c-0.3-0.1-0.6,0-0.9,0.2c-0.2,0.2-0.4,0.5-0.3,0.9l1.5,7.7C60.4,68.7,60.6,69,60.9,69.1z M65.5,63.4l-3.6,3.1l-0.9-4.7
		L65.5,63.4z"/>
	<path fill="#380D75" d="M76,108.4c-0.2-0.3-0.5-0.5-0.8-0.5l-7.9-0.1c-0.3,0-0.6,0.2-0.8,0.4c-0.2,0.3-0.2,0.6,0,0.9l3.8,6.9
		c0.1,0.3,0.4,0.5,0.8,0.5c0.3,0,0.6-0.2,0.8-0.4l4.1-6.8C76.2,109.1,76.2,108.7,76,108.4z M71.1,113.8l-2.3-4.1l4.8,0.1L71.1,113.8
		z"/>
	<path fill="#380D75" d="M262,179l-7.5,2.5c-0.3,0.1-0.5,0.4-0.6,0.7c-0.1,0.3,0,0.6,0.3,0.9l5.9,5.2c0.2,0.2,0.6,0.3,0.9,0.2
		c0.3-0.1,0.5-0.4,0.6-0.7l1.6-7.8c0.1-0.5-0.3-1-0.8-1C262.3,179,262.1,179,262,179L262,179z M260.1,185.9l-3.6-3.1l4.5-1.5
		L260.1,185.9z"/>
	<path fill="#380D75" d="M266.9,150.6l7.7-2c0.3-0.1,0.6-0.3,0.6-0.6c0.1-0.3,0-0.6-0.2-0.9l-5.5-5.6c-0.2-0.2-0.6-0.3-0.9-0.2
		c-0.3,0.1-0.5,0.3-0.6,0.6l-2.1,7.6c-0.1,0.3,0,0.6,0.2,0.9C266.3,150.6,266.6,150.7,266.9,150.6z M269.2,143.8l3.3,3.4l-4.6,1.2
		L269.2,143.8z"/>
	<path fill="#380D75" d="M282.8,87c-0.2-0.2-0.6-0.3-0.9-0.2l-7.5,2.5c-0.3,0.1-0.5,0.4-0.6,0.7c-0.1,0.3,0,0.6,0.3,0.9l5.9,5.2
		c0.2,0.2,0.6,0.3,0.9,0.2c0.3-0.1,0.5-0.4,0.6-0.7l1.6-7.8C283.1,87.5,283,87.2,282.8,87z M280,93.7l-3.5-3.1l4.5-1.5L280,93.7z"/>
	<path fill="#380D75" d="M85.5,228.7l-7.9-0.1c-0.3,0-0.6,0.2-0.8,0.4c-0.2,0.3-0.2,0.6,0,0.9l3.8,6.9c0.2,0.3,0.5,0.5,0.8,0.5
		c0.3,0,0.6-0.2,0.8-0.4l4.1-6.8c0.2-0.3,0.2-0.6,0-0.9C86.1,228.9,85.8,228.7,85.5,228.7z M81.4,234.6l-2.3-4.1l4.8,0.1L81.4,234.6
		z"/>
	<path fill="#380D75" d="M438.3,64.3c0.1,0.3,0.4,0.5,0.7,0.5l7.9,0.9c0.1,0,0.3,0,0.4-0.1c0.2-0.1,0.3-0.2,0.4-0.3
		c0.2-0.3,0.2-0.6,0.1-0.9l-3.2-7.3c-0.2-0.5-0.7-0.7-1.2-0.5c-0.2,0.1-0.3,0.2-0.4,0.3l-4.7,6.3C438.2,63.7,438.2,64,438.3,64.3z
		 M443.6,59.4l1.9,4.4l-4.7-0.6L443.6,59.4z"/>
	<path fill="#380D75" d="M347.4,230.6c-0.1-0.3-0.4-0.5-0.8-0.5l-7.8-0.6c-0.5,0-0.9,0.3-1,0.8c0,0.2,0,0.3,0.1,0.5l3.4,7.2
		c0.1,0.3,0.4,0.5,0.8,0.5h0.1c0.3,0,0.6-0.2,0.8-0.4l4.5-6.5C347.5,231.3,347.6,230.9,347.4,230.6z M342.3,235.8l-2-4.3l4.7,0.4
		L342.3,235.8z"/>
	<path fill="#380D75" d="M400.9,73.6c0-1.7-1.4-3.1-3.1-3.1s-3.1,1.4-3.1,3.1c0,1.7,1.4,3.1,3.1,3.1
		C399.6,76.6,400.9,75.3,400.9,73.6z M397.9,74.8c-0.7,0-1.2-0.6-1.2-1.2c0-0.7,0.6-1.2,1.2-1.2s1.2,0.6,1.2,1.2
		C399.1,74.3,398.6,74.8,397.9,74.8z"/>
	<path fill="#380D75" d="M333.7,48c0-1.7-1.4-3.1-3.1-3.1c-1.7,0-3.1,1.4-3.1,3.1c0,1.7,1.4,3.1,3.1,3.1l0,0
		C332.3,51.1,333.7,49.7,333.7,48z M329.4,48c0-0.7,0.6-1.2,1.2-1.2s1.2,0.6,1.2,1.2c0,0.7-0.6,1.2-1.2,1.2S329.4,48.7,329.4,48z"/>
	<path fill="#380D75" d="M470.4,163c-1.7,0-3.1,1.4-3.1,3.1c0,1.7,1.4,3.1,3.1,3.1c1.7,0,3.1-1.4,3.1-3.1
		C473.5,164.4,472.1,163,470.4,163z M470.4,167.3c-0.7,0-1.2-0.6-1.2-1.3c0-0.7,0.6-1.2,1.3-1.2c0.7,0,1.2,0.6,1.2,1.2
		C471.7,166.8,471.1,167.3,470.4,167.3L470.4,167.3z"/>
	<path fill="#380D75" d="M214.3,106c1.7,0,3.1-1.4,3.1-3.1c0-1.7-1.4-3.1-3.1-3.1c-1.7,0-3.1,1.4-3.1,3.1v0
		C211.2,104.7,212.6,106,214.3,106z M214.3,101.7c0.7,0,1.3,0.6,1.3,1.2c0,0.7-0.6,1.3-1.2,1.3c-0.7,0-1.3-0.6-1.3-1.2v0
		C213,102.3,213.6,101.7,214.3,101.7z"/>
	<path fill="#380D75" d="M349,240c-1.7,0-3.1,1.4-3.1,3.1c0,1.7,1.4,3.1,3.1,3.1c1.7,0,3.1-1.4,3.1-3.1v0
		C352.1,241.4,350.8,240,349,240L349,240z M349,244.3c-0.7,0-1.3-0.6-1.3-1.3c0-0.7,0.6-1.3,1.3-1.3c0.7,0,1.2,0.5,1.3,1.2
		C350.3,243.7,349.8,244.3,349,244.3L349,244.3L349,244.3z"/>
	<path fill="#380D75" d="M171.6,58.5c0-1.7-1.4-3.1-3.1-3.1s-3.1,1.4-3.1,3.1c0,1.7,1.4,3.1,3.1,3.1
		C170.2,61.5,171.6,60.2,171.6,58.5z M167.3,58.5c0-0.7,0.6-1.2,1.2-1.2s1.2,0.6,1.2,1.2s-0.6,1.2-1.2,1.2S167.3,59.2,167.3,58.5z"
		/>
	<path fill="#380D75" d="M343.6,188.6c1.7,0,3.1-1.4,3.1-3.1c0-1.7-1.4-3.1-3.1-3.1c-1.7,0-3.1,1.4-3.1,3.1v0
		C340.6,187.3,341.9,188.6,343.6,188.6z M343.6,184.3c0.7,0,1.3,0.6,1.3,1.2c0,0.7-0.6,1.3-1.2,1.3c-0.7,0-1.3-0.6-1.3-1.2v0
		C342.4,184.9,342.9,184.3,343.6,184.3z"/>
	<path fill="#380D75" d="M405.3,30.6c1.7,0,3.1-1.4,3.1-3.1c0-1.7-1.4-3.1-3.1-3.1c-1.7,0-3.1,1.4-3.1,3.1
		C402.3,29.2,403.6,30.6,405.3,30.6L405.3,30.6z M405.3,26.3c0.7,0,1.3,0.6,1.3,1.3s-0.6,1.3-1.3,1.3c-0.7,0-1.3-0.6-1.3-1.3v0
		C404.1,26.8,404.6,26.3,405.3,26.3L405.3,26.3z"/>
	<path fill="#380D75" d="M236,136.5c0,1.7,1.4,3.1,3.1,3.1c1.7,0,3.1-1.4,3.1-3.1c0-1.7-1.4-3.1-3.1-3.1h0
		C237.4,133.4,236,134.8,236,136.5z M239.1,135.2c0.7,0,1.2,0.6,1.2,1.2s-0.6,1.2-1.2,1.2s-1.2-0.6-1.2-1.2S238.4,135.2,239.1,135.2
		z"/>
	<path fill="#380D75" d="M18.8,151.7c0-1.7-1.4-3.1-3.1-3.1c-1.7,0-3.1,1.4-3.1,3.1s1.4,3.1,3.1,3.1
		C17.5,154.8,18.8,153.4,18.8,151.7z M15.8,153c-0.7,0-1.3-0.5-1.3-1.2s0.5-1.3,1.2-1.3c0.7,0,1.2,0.5,1.3,1.2
		C17,152.4,16.5,153,15.8,153L15.8,153z"/>
	<path fill="#380D75" d="M17,98h0.2h0.2l0.2-0.1l0.1-0.1c0.2-0.2,0.3-0.4,0.3-0.6c0-0.2-0.1-0.5-0.3-0.6l-0.1-0.1l-0.2-0.1h-0.2
		c-0.3-0.1-0.6,0-0.8,0.2c-0.2,0.2-0.3,0.4-0.3,0.6C16.1,97.7,16.5,98,17,98z"/>
	<path fill="#380D75" d="M94.4,23.7h0.2l0.2-0.1l0.2-0.1l0.1-0.1c0.2-0.2,0.3-0.4,0.3-0.6c0-0.2-0.1-0.5-0.3-0.6l-0.1-0.1L94.7,22
		l-0.2-0.1c-0.3,0-0.6,0-0.8,0.2c-0.2,0.2-0.3,0.4-0.3,0.6c0,0.2,0.1,0.5,0.3,0.6C93.9,23.6,94.1,23.7,94.4,23.7z"/>
	<path fill="#380D75" d="M142,55.9h0.2l0.2-0.1l0.1-0.1c0.2-0.2,0.3-0.4,0.3-0.6c0-0.2-0.1-0.5-0.3-0.6l-0.1-0.1l-0.2-0.1l-0.2,0
		c-0.3,0-0.6,0-0.8,0.2c-0.2,0.2-0.3,0.4-0.3,0.6c0,0.2,0.1,0.5,0.3,0.6c0.2,0.2,0.4,0.3,0.6,0.3L142,55.9z"/>
	<path fill="#380D75" d="M76.1,65c0.2-0.2,0.3-0.4,0.3-0.7c0-0.5-0.4-0.9-0.9-0.9l-0.2,0h-0.2L75,63.5l-0.1,0.1
		c-0.2,0.2-0.3,0.4-0.3,0.6c0,0.5,0.4,0.9,0.9,0.9h0C75.7,65.2,76,65.1,76.1,65z"/>
	<path fill="#380D75" d="M195.4,42.6c0.2,0,0.5-0.1,0.6-0.3c0.3-0.4,0.3-0.9,0-1.3l-0.1-0.1l-0.1-0.1h-0.2c-0.3-0.1-0.6,0-0.8,0.2
		c-0.4,0.3-0.4,0.9,0,1.3l0,0C194.9,42.6,195.1,42.7,195.4,42.6z"/>
	<path fill="#380D75" d="M239.8,110.3c0.2-0.2,0.3-0.4,0.3-0.6c0-0.2-0.1-0.5-0.3-0.6l-0.1-0.1l-0.2-0.1h-0.2
		c-0.5-0.1-1,0.2-1.1,0.7l0,0.2c0,0.2,0.1,0.5,0.3,0.6c0.2,0.2,0.4,0.3,0.6,0.3C239.4,110.6,239.6,110.5,239.8,110.3z"/>
	<path fill="#380D75" d="M276.8,124.2c0.2,0,0.5-0.1,0.6-0.3c0.2-0.2,0.3-0.4,0.3-0.6c0-0.2-0.1-0.5-0.3-0.6l-0.1-0.1l-0.2-0.1H277
		c-0.3-0.1-0.6,0-0.8,0.2c-0.2,0.2-0.3,0.4-0.3,0.6c0,0.2,0.1,0.5,0.3,0.6C276.3,124.1,276.6,124.2,276.8,124.2z"/>
	<path fill="#380D75" d="M311.1,107.6c0.2-0.2,0.3-0.4,0.3-0.6c0-0.2-0.1-0.5-0.3-0.7l-0.1-0.1l-0.2-0.1l-0.2,0
		c-0.5-0.1-1,0.2-1.1,0.7l0,0.2c0,0.2,0.1,0.5,0.3,0.6c0.2,0.2,0.4,0.3,0.6,0.3C310.7,107.9,310.9,107.8,311.1,107.6z"/>
	<path fill="#380D75" d="M117.1,189.9c0.2-0.2,0.3-0.4,0.3-0.6c0-0.2-0.1-0.5-0.3-0.6l-0.1-0.1l-0.1-0.1l-0.2-0.1
		c-0.3-0.1-0.6,0-0.8,0.2l-0.1,0.1l-0.1,0.2v0.2v0.2v0.2v0.2l0.1,0.2l0.1,0.1c0.2,0.2,0.4,0.3,0.6,0.3
		C116.7,190.1,117,190,117.1,189.9z"/>
	<path fill="#380D75" d="M416,65.8c0.2,0,0.5-0.1,0.6-0.3l0.1-0.1l0.1-0.2l0-0.2c0-0.1,0-0.2,0-0.4l0-0.2l-0.1-0.1l-0.1-0.1
		c-0.4-0.3-0.9-0.3-1.3,0c-0.4,0.4-0.4,0.9,0,1.3l0,0C415.5,65.7,415.8,65.8,416,65.8z"/>
	<path fill="#380D75" d="M456.5,63.4c0.2,0,0.5-0.1,0.6-0.3l0.1-0.1l0.1-0.1l0-0.2c0-0.2,0-0.4,0-0.5l-0.1-0.1l-0.1-0.1
		c-0.4-0.3-0.9-0.3-1.3,0c-0.2,0.2-0.3,0.4-0.3,0.6C455.6,62.9,456,63.4,456.5,63.4L456.5,63.4z"/>
	<path fill="#380D75" d="M452.6,97l0.1-0.1l0.1-0.2l0-0.2c0-0.1,0-0.2,0-0.4l0-0.2l-0.1-0.2l-0.1-0.1c-0.4-0.3-0.9-0.3-1.3,0
		c-0.2,0.2-0.3,0.4-0.3,0.6c0,0.2,0.1,0.5,0.3,0.6c0.2,0.2,0.4,0.3,0.7,0.3C452.2,97.3,452.4,97.2,452.6,97z"/>
	<path fill="#380D75" d="M445.6,51.1c0.2,0,0.5-0.1,0.6-0.3l0.1-0.1l0.1-0.1l0-0.2c0-0.2,0-0.4,0-0.5l-0.1-0.1l-0.1-0.1
		c-0.4-0.3-0.9-0.3-1.3,0c-0.2,0.2-0.3,0.4-0.3,0.6c0,0.2,0.1,0.5,0.3,0.6C445.1,51,445.3,51.1,445.6,51.1z"/>
	<path fill="#380D75" d="M62.7,225.5c-0.2,0.2-0.3,0.4-0.3,0.6c0,0.2,0.1,0.5,0.3,0.6c0.2,0.2,0.4,0.3,0.6,0.3
		c0.5,0,0.9-0.4,0.9-0.9v0c0-0.2-0.1-0.5-0.3-0.6C63.6,225.2,63.1,225.2,62.7,225.5z"/>
	<path fill="#380D75" d="M37.5,202.7c-0.2,0.2-0.3,0.4-0.3,0.6c0,0.5,0.4,0.9,0.9,0.9c0.5,0,0.9-0.4,0.9-0.9v0
		c0-0.2-0.1-0.5-0.3-0.6C38.4,202.3,37.8,202.3,37.5,202.7z"/>
	<path fill="#380D75" d="M122.8,208.4c-0.4,0.4-0.4,0.9,0,1.3c0.4,0.4,0.9,0.4,1.3,0c0.4-0.4,0.4-0.9,0-1.3
		C123.7,208.1,123.1,208.1,122.8,208.4z"/>
	<path fill="#380D75" d="M149.1,194.4c-0.2,0.2-0.3,0.4-0.3,0.6c0,0.2,0.1,0.5,0.3,0.6c0.4,0.3,0.9,0.3,1.3,0
		c0.2-0.2,0.3-0.4,0.3-0.6c0-0.2-0.1-0.5-0.3-0.6C150,194.1,149.4,194.1,149.1,194.4z"/>
	<path fill="#380D75" d="M210.6,171.5c0.2-0.2,0.3-0.4,0.3-0.7c0-0.5-0.4-0.9-0.9-0.9c-0.2,0-0.5,0.1-0.6,0.3
		c-0.2,0.2-0.3,0.4-0.3,0.6c0,0.2,0.1,0.5,0.3,0.7c0.2,0.2,0.4,0.3,0.6,0.3C210.2,171.8,210.4,171.7,210.6,171.5z"/>
	<path fill="#380D75" d="M148.9,243.2l-0.2-0.1h-0.2c-0.3-0.1-0.6,0-0.8,0.2l-0.1,0.1l-0.1,0.1l-0.1,0.2v0.2v0.2l0.1,0.2l0.1,0.2
		l0.1,0.1c0.3,0.4,0.9,0.4,1.3,0l0,0c0.2-0.2,0.3-0.4,0.3-0.6c0-0.2-0.1-0.5-0.3-0.6L148.9,243.2z"/>
	<path fill="#380D75" d="M169.3,167.7h-0.2c-0.3,0-0.6,0-0.8,0.2l-0.1,0.1l-0.1,0.1l0,0.2v0.2c0,0.1,0,0.2,0.1,0.3l0.1,0.2l0.1,0.1
		c0.4,0.4,0.9,0.4,1.3,0l0,0c0.2-0.2,0.3-0.4,0.3-0.6c0-0.2-0.1-0.5-0.3-0.6l-0.1-0.1L169.3,167.7z"/>
	<path fill="#380D75" d="M399.2,197.1l0.1,0.2l0.1,0.1c0.4,0.3,0.9,0.3,1.3,0c0.4-0.4,0.4-0.9,0-1.3l0,0l-0.1-0.1l-0.2-0.1l-0.2,0
		c-0.3-0.1-0.6,0-0.8,0.2l-0.1,0.1l-0.1,0.2l0,0.2v0.2v0.2L399.2,197.1z"/>
	<path fill="#380D75" d="M411,166.6h-0.2c-0.3-0.1-0.6,0-0.8,0.2l-0.1,0.1l-0.1,0.2c-0.1,0.2-0.1,0.5,0,0.7l0.1,0.1l0.1,0.1
		c0.2,0.2,0.4,0.3,0.6,0.3c0.2,0,0.5-0.1,0.6-0.3c0.4-0.3,0.4-0.9,0-1.3l0,0l-0.1-0.1L411,166.6z"/>
	<path fill="#380D75" d="M332,186.7l-0.2-0.1h-0.2c-0.3-0.1-0.6,0-0.8,0.2l-0.1,0.1l-0.1,0.2l0,0.2v0.2v0.2l0,0.2l0.1,0.2l0.1,0.1
		c0.2,0.2,0.4,0.3,0.6,0.3c0.5,0,0.9-0.4,0.9-0.9v0c0-0.2-0.1-0.5-0.3-0.6L332,186.7z"/>
	<path fill="#380D75" d="M322.8,227.1l-0.2-0.1l-0.2,0c-0.3-0.1-0.6,0-0.8,0.2l-0.1,0.1l-0.1,0.2l0,0.2v0.2v0.2l0,0.2l0.1,0.2
		l0.1,0.1c0.2,0.2,0.4,0.3,0.6,0.3c0.2,0,0.5-0.1,0.6-0.3c0.2-0.2,0.3-0.4,0.3-0.6c0-0.2-0.1-0.5-0.3-0.6L322.8,227.1z"/>
	<path fill="#380D75" d="M360.9,209.9h-0.2c-0.3-0.1-0.6,0-0.8,0.2l-0.1,0.1l-0.1,0.2l0,0.2v0.2v0.2l0,0.2l0.1,0.2l0.1,0.1
		c0.3,0.4,0.9,0.5,1.3,0.1s0.5-0.9,0.1-1.3l-0.1-0.1L361,210L360.9,209.9z"/>
	<path fill="#380D75" d="M281.3,57.2l0.1,0.2l0.1,0.1c0.3,0.4,0.9,0.4,1.3,0l0,0c0.2-0.2,0.3-0.4,0.3-0.6c0-0.2-0.1-0.5-0.3-0.6
		l-0.1-0.1l-0.2-0.1l-0.2,0c-0.3-0.1-0.6,0-0.8,0.2l-0.1,0.1l-0.1,0.2l0,0.2v0.2C281.3,56.9,281.3,57.1,281.3,57.2L281.3,57.2z"/>
	<path fill="#380D75" d="M341.2,53.6l-0.1-0.1l-0.2-0.1h-0.2c-0.3-0.1-0.6,0-0.8,0.2l-0.1,0.1l-0.1,0.2v0.2c0,0.1,0,0.2,0,0.4v0.2
		l0.1,0.2l0.1,0.1c0.4,0.4,0.9,0.4,1.3,0l0,0C341.5,54.6,341.5,54,341.2,53.6L341.2,53.6z"/>
	<path fill="#380D75" d="M398.5,86l0.1,0.2l0.1,0.1c0.3,0.4,0.9,0.4,1.3,0l0,0c0.2-0.2,0.3-0.4,0.3-0.6c0-0.2-0.1-0.5-0.3-0.6
		l-0.1-0.1l-0.2-0.1h-0.2c-0.3-0.1-0.6,0-0.8,0.2l-0.1,0.1l-0.1,0.1l0,0.2v0.2C398.5,85.8,398.5,85.9,398.5,86L398.5,86z"/>
	<path fill="#380D75" d="M417.6,31.9l0.1,0.2l0.1,0.1c0.3,0.4,0.9,0.5,1.3,0.1c0.4-0.3,0.5-0.9,0.1-1.3l-0.1-0.1l-0.1-0.1l-0.2-0.1
		l-0.2,0c-0.3-0.1-0.6,0-0.8,0.2l-0.1,0.1l-0.1,0.1l0,0.2c0,0.1,0,0.2,0,0.4L417.6,31.9z"/>
	<path fill="#380D75" d="M409.7,80.1c-0.5,0-0.9,0.4-0.9,0.9v0v15.5c0,3.3,9.5,3.4,10.6,3.4s10.6-0.1,10.6-3.4c0-0.5-0.5-0.9-1-0.8
		c-0.4,0-0.8,0.4-0.8,0.8c-0.4,0.6-3.6,1.6-8.8,1.6s-8.3-1-8.8-1.6V85.1c2.8,1.3,8,1.3,8.8,1.3s5.9,0,8.8-1.3v4.6
		c-0.4,0.6-3.6,1.6-8.8,1.6c-2.5,0.1-4.9-0.2-7.3-0.9c-0.5-0.2-1,0.1-1.1,0.6c-0.2,0.5,0.1,1,0.6,1.1c2.6,0.7,5.2,1.1,7.9,1
		c0.8,0,5.9-0.1,8.8-1.3v0.2c0.1,0.5,0.5,0.9,1,0.8c0.4,0,0.8-0.4,0.8-0.8V76.4c0-3.3-9.5-3.4-10.6-3.4s-10.6,0.1-10.6,3.4
		s9.5,3.4,10.6,3.4c0.8,0,5.9-0.1,8.8-1.3V83c-0.4,0.6-3.6,1.6-8.8,1.6s-8.3-1-8.8-1.6v-2C410.6,80.5,410.2,80.1,409.7,80.1z
		 M419.4,77.9c-5,0-8.1-1-8.7-1.6c0.6-0.6,3.7-1.6,8.7-1.6c5,0,8.1,1,8.7,1.6C427.5,77,424.3,77.9,419.4,77.9z"/>
	<path fill="#380D75" d="M380.9,71.2l-3.6,5.4c-0.3,0.4-0.1,1,0.3,1.3c0.1,0.1,0.3,0.1,0.5,0.1c0.1,0,0.2,0,0.3-0.1l8-2.9
		c0.3-0.1,0.6-0.4,0.6-0.8c0-0.4-0.2-0.7-0.5-0.9l-4.4-2.5C381.7,70.6,381.1,70.8,380.9,71.2z M383.9,73.9l-3.5,1.3l1.6-2.4
		L383.9,73.9z"/>
	<path fill="#380D75" d="M381.3,191.1c0.1,0,0.2,0,0.3,0l8-2.9c0.3-0.1,0.6-0.4,0.6-0.8c0-0.4-0.2-0.7-0.5-0.9l-4.5-2.5
		c-0.4-0.2-0.9-0.1-1.2,0.3l-3.5,5.3c-0.3,0.4-0.2,1,0.2,1.3C380.9,191,381.1,191.1,381.3,191.1z M385.1,186l2,1.1l-3.5,1.3
		L385.1,186z"/>
	<path fill="#380D75" d="M349.7,74l8.2,3.6c0.1,0,0.2,0.1,0.4,0.1c0.3,0,0.5-0.1,0.7-0.3c0.3-0.3,0.3-0.7,0.1-1.1l-3.5-5.3
		c-0.2-0.4-0.7-0.5-1.1-0.4l-4.7,1.7c-0.3,0.1-0.6,0.5-0.6,0.8C349.2,73.6,349.4,73.9,349.7,74z M354.4,72.5l1.4,2.2l-3.3-1.5
		L354.4,72.5z"/>
	<path fill="#380D75" d="M248.9,102.3l8.2,3.6c0.1,0.1,0.2,0.1,0.4,0.1c0.5,0,0.9-0.4,0.9-0.9c0-0.2-0.1-0.3-0.1-0.5l-3.5-5.4
		c-0.2-0.3-0.7-0.5-1.1-0.4l-4.7,1.7c-0.3,0.1-0.6,0.5-0.6,0.8C248.3,101.8,248.5,102.2,248.9,102.3z M253.5,100.8l1.5,2.2l-3.3-1.5
		L253.5,100.8z"/>
	<path fill="#380D75" d="M57.8,45c0.4,0.1,0.7,0,1-0.2l6-6.7c0.1-0.1,0.1-0.2,0.2-0.3c0.1-0.3,0-0.5-0.1-0.8c-0.2-0.3-0.6-0.5-1-0.4
		l-6.2,1.7c-0.4,0.1-0.7,0.5-0.7,0.9l0.2,5C57.2,44.5,57.4,44.9,57.8,45z M61.3,39.1l-2.4,2.8l-0.1-2L61.3,39.1z"/>
	<path fill="#380D75" d="M325.1,37.6h1.2L328,40c0.2,0.2,0.4,0.4,0.7,0.4c0.3,0,0.6-0.1,0.7-0.4l1.7-2.4h5.1c1.5,0,2.7-1.2,2.7-2.7
		v-8.3c0-1.5-1.2-2.7-2.7-2.7h-11.2c-1.5,0-2.7,1.2-2.7,2.7v8.2C322.4,36.4,323.6,37.6,325.1,37.6z M324.2,26.7
		c0-0.5,0.4-0.9,0.9-0.9l0,0h11.1c0.5,0,0.9,0.4,0.9,0.9v0v8.2c0,0.5-0.4,0.9-0.9,0.9h-5.5c-0.3,0-0.6,0.1-0.7,0.4l-1.2,1.7
		l-1.2-1.7c-0.2-0.2-0.4-0.4-0.7-0.4h-1.6c-0.5,0-0.9-0.4-0.9-0.9V26.7z"/>
	<path fill="#380D75" d="M327.8,31.7h5.7c0.5,0,0.9-0.4,0.9-0.9c0-0.5-0.4-0.9-0.9-0.9h-5.7c-0.5,0-0.9,0.4-0.9,0.9
		C326.9,31.3,327.3,31.7,327.8,31.7z"/>
	<path fill="#380D75" d="M403.2,186.1h1.2l1.7,2.3c0.2,0.2,0.4,0.4,0.7,0.4c0.3,0,0.6-0.1,0.7-0.4l1.7-2.3h5.1
		c1.5,0,2.7-1.2,2.7-2.7v-8.2c0-1.5-1.2-2.7-2.7-2.7h-11.1c-1.5,0-2.7,1.2-2.7,2.7v8.2C400.5,184.9,401.8,186.1,403.2,186.1z
		 M402.4,175.1c0-0.5,0.4-0.9,0.9-0.9h11.1c0.5,0,0.9,0.4,0.9,0.9v0v8.2c0,0.5-0.4,0.9-0.9,0.9h0h-5.5c-0.3,0-0.6,0.1-0.7,0.4
		l-1.2,1.7l-1.2-1.7c-0.2-0.2-0.4-0.4-0.7-0.4h-1.7c-0.5,0-0.9-0.4-0.9-0.9v0V175.1z"/>
	<path fill="#380D75" d="M406,180.1h5.7c0.5-0.1,0.9-0.5,0.8-1c0-0.4-0.4-0.8-0.8-0.8H406c-0.5-0.1-0.9,0.3-1,0.8s0.3,0.9,0.8,1H406
		z"/>
	<path fill="#380D75" d="M281.7,133.2c-0.4-0.4-0.9-0.4-1.3,0l-3.4,3.6c-0.4,0.4-0.4,0.9,0,1.3l3.6,3.4c0.2,0.2,0.4,0.2,0.6,0.2
		c0.3,0,0.5-0.1,0.7-0.3c0.4-0.3,0.4-0.9,0-1.3l0,0l-2.9-2.8l2.8-2.9C282.1,134.1,282.1,133.5,281.7,133.2z"/>
	<path fill="#380D75" d="M282.8,137.3c0,0.2,0.1,0.5,0.3,0.6l3.6,3.4c0.4,0.3,1,0.2,1.3-0.2c0.3-0.3,0.2-0.8,0-1.2l-2.9-2.8l2.8-2.9
		c0.3-0.4,0.3-1,0-1.3c-0.4-0.3-1-0.3-1.3,0l-3.4,3.6C282.9,136.8,282.8,137,282.8,137.3z"/>
	<path fill="#380D75" d="M110.4,197.5c0-1.7-1.4-3.1-3.1-3.1c-1.7,0-3.1,1.4-3.1,3.1c0,1.7,1.4,3.1,3.1,3.1
		C109,200.6,110.4,199.2,110.4,197.5L110.4,197.5z M106.1,197.5c0.1-0.7,0.7-1.2,1.4-1.1c0.6,0.1,1.1,0.5,1.1,1.1
		c0.1,0.7-0.4,1.3-1.1,1.4c-0.7,0.1-1.3-0.4-1.4-1.1V197.5z"/>
</g>
</svg>
