<svg enable-background="new 0 0 676 248" viewBox="0 0 676 248" xmlns="http://www.w3.org/2000/svg"><switch><g><path d="m4 28.56h117.52" style="fill:none;stroke:#251b3f;stroke-linejoin:round;stroke-linecap:round;stroke-width:8;stroke-miterlimit:10"/><path d="m48.6 58h60.72" style="opacity:.3;fill:none;stroke:#000;stroke-linejoin:round;stroke-linecap:round;stroke-width:8;stroke-miterlimit:10"/><path d="m127.92 58h16.32" style="fill:none;stroke:#fc6d26;stroke-linejoin:round;stroke-linecap:round;stroke-width:8;stroke-miterlimit:10"/><path d="m589.38 36.661h14.76" style="opacity:.3;fill:none;stroke:#000;stroke-linejoin:round;stroke-linecap:round;stroke-width:8;stroke-miterlimit:10"/><path d="m486.63 36.661h84.76" style="fill:none;stroke:#fca326;stroke-linejoin:round;stroke-linecap:round;stroke-width:8;stroke-miterlimit:10"/><path d="m99.95 152.84c-2.633-2.444-6.751-2.292-9.195.345l-16.768 18.07-4.471-4.03c-2.671-2.404-6.787-2.19-9.191.477-2.406 2.671-2.192 6.785.477 9.191l9.235 8.322c.173.156.364.273.548.407.139.102.269.219.414.308.191.117.393.199.592.294.164.079.322.175.491.238.225.086.458.136.689.195.151.038.298.096.451.124.387.071.778.107 1.17.107.441 0 .881-.046 1.313-.135.158-.032.308-.1.463-.144.27-.076.543-.142.803-.254.189-.082.361-.202.543-.302.212-.117.431-.216.632-.358.185-.131.347-.303.52-.455.166-.145.345-.269.498-.434l.06-.065c.001-.001.003-.002.004-.003s.002-.002.003-.003l21.06-22.704c2.443-2.632 2.289-6.75-.346-9.194z" style="fill:#fc6d26;stroke:#251b3f;stroke-linejoin:round;stroke-linecap:round;stroke-width:8;stroke-miterlimit:10"/><path d="m163.26 174.8-6.617-6.14 6.141-6.618c2.444-2.633 2.29-6.751-.345-9.195-2.633-2.444-6.753-2.292-9.195.345l-6.14 6.617-6.618-6.141c-2.633-2.444-6.751-2.292-9.195.345-2.444 2.633-2.29 6.751.345 9.195l6.617 6.14-6.141 6.618c-2.444 2.633-2.29 6.751.345 9.195 1.252 1.163 2.838 1.737 4.423 1.737 1.747 0 3.491-.699 4.772-2.082l6.14-6.617 6.618 6.141c1.252 1.163 2.838 1.737 4.423 1.737 1.747 0 3.491-.699 4.772-2.082 2.445-2.633 2.29-6.751-.345-9.195z" style="opacity:.3;fill:none;stroke:#000;stroke-linejoin:round;stroke-linecap:round;stroke-width:8;stroke-miterlimit:10"/><path d="m182.81 163.51 16.573-50.06h-33.15l16.572 50.06" fill="#e24329" transform="translate(155.2 1.16)"/><path d="m309.47 163.51-16.573-50.06h-23.2l39.778 50.06" fill="#fc6d26" transform="translate(28.531 1.161)"/><path d="m298.12 114.37-5.04 15.211c-.457 1.381.037 2.906 1.242 3.767l43.579 31.09-39.778-50.06" fill="#fca326" transform="translate(.089 .256)"/><path d="m268.8-165.63h23.22l-9.995-30.15c-.512-1.543-2.741-1.543-3.271 0l-9.958 30.15" fill="#e24329" transform="translate(29.422 280.26)"/><path d="m90.81 163.51 16.573-50.06h23.22l-39.797 50.06" fill="#fc6d26" transform="translate(247.2 1.161)"/><path d="m131.48 114.37 5.04 15.211c.457 1.381-.037 2.906-1.242 3.767l-43.579 31.07 39.778-50.05" fill="#fca326" transform="translate(246.31 .256)"/><path d="m40.827-165.63h-23.22l9.976-30.15c.512-1.543 2.741-1.543 3.271 0l9.976 30.15" fill="#e24329" transform="translate(336.97 280.26)"/><g stroke-linecap="round" stroke-linejoin="round" stroke-miterlimit="10"><path d="m182.81 163.51 16.573-50.06h-33.15l16.572 50.06z" fill="none" stroke="#251b3f" stroke-width="8.909" transform="translate(155.2 1.16)"/><path d="m309.47 163.51-16.573-50.06h-23.2l39.778 50.06z" fill="none" stroke="#251b3f" stroke-width="8.909" transform="translate(28.531 1.161)"/><path d="m298.12 114.37-5.04 15.211c-.457 1.381.037 2.906 1.242 3.767l43.579 31.09-39.778-50.06z" fill="none" stroke="#251b3f" stroke-width="8.909" transform="translate(.089 .256)"/><path d="m268.8-165.63h23.22l-9.995-30.15c-.512-1.543-2.741-1.543-3.271 0l-9.958 30.15z" fill="none" stroke="#251b3f" stroke-width="8.909" transform="translate(29.422 280.26)"/><path d="m90.81 163.51 16.573-50.06h23.22l-39.797 50.06z" fill="none" stroke="#251b3f" stroke-width="8.909" transform="translate(247.2 1.161)"/><path d="m131.48 114.37 5.04 15.211c.457 1.381-.037 2.906-1.242 3.767l-43.579 31.07 39.778-50.05z" fill="none" stroke="#251b3f" stroke-width="8.909" transform="translate(246.31 .256)"/><path d="m40.827-165.63h-23.22l9.976-30.15c.512-1.543 2.741-1.543 3.271 0l9.976 30.15z" fill="none" stroke="#251b3f" stroke-width="8.909" transform="translate(336.97 280.26)"/><path d="m262.76 106.84c7.132-34.855 37.972-61.07 74.935-61.07 34.828 0 64.22 23.278 73.47 55.12" fill="none" stroke="#251b3f" stroke-width="8.85"/><path d="m422.86 80.63-10.26 22.59-22.59-10.25" fill="none" stroke="#251b3f" stroke-width="8.85"/><path d="m413.27 141.16c-7.132 34.855-37.972 61.07-74.935 61.07-34.828 0-64.22-23.278-73.47-55.12" fill="none" stroke="#251b3f" stroke-width="8.85"/><path d="m252.86 168.18 11.49-21.98 21.99 11.49" fill="none" stroke="#251b3f" stroke-width="8.85"/><g fill="none" opacity=".3" stroke="#000" stroke-width="8"><path d="m385.43 24.718c-40.889-19.531-91.34-12.371-125.21 21.496s-41.03 84.32-21.496 125.21"/><path d="m290.57 223.28c40.889 19.531 91.34 12.371 125.21-21.496s41.03-84.32 21.496-125.21"/></g><g fill="none" opacity=".3" stroke="#000" stroke-width="8"><path d="m549 140v6"/><path d="m549 146v6"/><path d="m555 146h-6"/><path d="m549 146h-6"/></g><g fill="none" opacity=".3" stroke="#000" stroke-width="8"><path d="m532.5 120.5v6"/><path d="m532.5 114.5v6"/><path d="m538.5 120.5h-6"/><path d="m532.5 120.5h-6"/></g><g fill="none" opacity=".3" stroke="#000" stroke-width="8"><path d="m598.5 102.5v6"/><path d="m598.5 96.5v6"/><path d="m604.5 102.5h-6"/><path d="m598.5 102.5h-6"/></g><path d="m547 180.5-22.5 18h7.5v45h30v-45h7.5z" fill="#fcd3a7" stroke="#251b3f" stroke-width="8"/><path d="m598 138.5-22.5 18h7.5v87h30v-87h7.5z" fill="#fcba72" stroke="#251b3f" stroke-width="8"/><path d="m649 96.5-22.5 18h7.5v129h30v-129h7.5z" fill="#fca326" stroke="#251b3f" stroke-width="8"/></g></g></switch></svg>