<svg width="135" height="133" viewBox="0 0 135 133" fill="none" xmlns="http://www.w3.org/2000/svg">
<circle cx="7" cy="19" r="4" fill="#FC6D26"/>
<path d="M14.426 131.023C14.2308 131.744 13.3414 132.005 12.7876 131.503L3.1675 122.793C2.58817 122.269 2.8091 121.312 3.56024 121.093L16.5647 117.301C17.3145 117.082 18.0142 117.767 17.8104 118.52L14.426 131.023Z" fill="#9B51E0"/>
<rect width="10.9484" height="10.9592" rx="1" transform="matrix(0.562307 0.826928 -0.828316 0.560261 128.078 0)" fill="#27AE60"/>
<path d="M65.9498 46.1243C65.8651 45.6027 66.5423 45.3247 66.8501 45.7547L75.6238 58.0103C75.839 58.311 75.6654 58.7324 75.3011 58.7936L70.3357 59.6282C70.0641 59.6739 69.881 59.9305 69.9261 60.2022L71.5686 70.0822C71.6556 70.6057 70.9744 70.885 70.6673 70.4517L60.994 56.8049C60.7816 56.5052 60.9535 56.0871 61.3151 56.0241L66.8996 55.0504C67.1691 55.0034 67.3503 54.7487 67.3065 54.4788L65.9498 46.1243Z" fill="#FCA326"/>
</svg>
