<svg xmlns="http://www.w3.org/2000/svg" viewBox="0 0 676 248" enable-background="new 0 0 676 248"><switch><g><path d="m380.54 109.53c-1.765-3.175-4.89-4.99-8.604-4.99h-.712c-3.296 0-6.23 1.593-7.849 4.261-.977 1.61-1.373 3.471-1.205 5.351h-10.879c.16-1.864-.238-3.719-1.213-5.328-1.627-2.683-4.587-4.284-7.918-4.284h-.631c-.077 0-.15.013-.227.014.848-1.539 1.336-3.355 1.336-5.344v-1.296c0-5.565-3.79-9.835-9.244-10.459-1.658-.23-3.272-.347-4.799-.347-12.982 0-21.717 7.993-22.787 20.771l-.075.784c-4.249 1.281-7.086 5.057-7.086 9.903v.862c0 4.146 2.075 7.507 5.334 9.194l-.846 9.513c-.021.268-.054.475-.085.631-.065.004-.138.007-.218.007-.937 0-1.316-.048-1.593-.082l-.162-.019c-.395-.042-.773-.061-1.139-.061-5.577 0-9.783 4.405-9.783 10.248v1.296c0 5.495 3.685 9.738 9 10.438 1.476.243 2.954.296 3.96.296 12.904 0 21.638-7.975 22.797-20.843l.883-10.265c.269-.016.531-.049.792-.083.098 7.26 1.993 14.592 5.389 20.708l.054.094c1.771 3.09 4.866 4.862 8.493 4.862h.716c3.161 0 6-1.49 7.67-3.986h.566c.39 0 .771-.028 1.148-.069h10.168c.377.041.757.069 1.147.069h.646c1.665 2.496 4.516 3.986 7.675 3.986h.628c3.706 0 6.858-1.82 8.648-4.994l.051-.093c3.392-6.203 5.259-13.719 5.259-21.16.002-6.92-1.785-13.508-5.31-19.582" fill="#251b3f"/><path d="m506.92 204.64h14.76" fill="#e24329" stroke="#251b3f" stroke-linejoin="round" stroke-linecap="round" stroke-width="8" stroke-miterlimit="10"/><path d="m539.16 204.64h47.09" opacity=".3" fill="none" stroke="#000" stroke-linejoin="round" stroke-linecap="round" stroke-width="8" stroke-miterlimit="10"/><path d="m539.56 233.36h91.52" fill="none" stroke="#fc6d26" stroke-linejoin="round" stroke-linecap="round" stroke-width="8" stroke-miterlimit="10"/><g opacity=".3"><path d="m437.28 171.43c19.531-40.889 12.371-91.34-21.496-125.21s-84.32-41.03-125.21-21.496" fill="none" stroke="#000" stroke-linejoin="round" stroke-linecap="round" stroke-width="8" stroke-miterlimit="10"/><path d="m238.72 76.58c-19.531 40.889-12.371 91.34 21.496 125.21s84.32 41.03 125.21 21.496" fill="none" stroke="#000" stroke-linejoin="round" stroke-linecap="round" stroke-width="8" stroke-miterlimit="10"/></g><path d="M3.88,25.28H175.4" opacity=".3" fill="none" stroke="#000" stroke-linejoin="round" stroke-linecap="round" stroke-width="8" stroke-miterlimit="10"/><path d="m52.8 54.72h16.32" fill="none" stroke="#251b3f" stroke-linejoin="round" stroke-linecap="round" stroke-width="8" stroke-miterlimit="10"/><path d="m165.8 54.72h32.32" fill="none" stroke="#fc6d26" stroke-linejoin="round" stroke-linecap="round" stroke-width="8" stroke-miterlimit="10"/><path d="m86.8 54.72h61.32" fill="none" stroke="#fca326" stroke-linejoin="round" stroke-linecap="round" stroke-width="8" stroke-miterlimit="10"/><circle cx="338" cy="124" r="82" fill="none" stroke="#251b3f" stroke-linejoin="round" stroke-linecap="round" stroke-width="8" stroke-miterlimit="10"/><g><path d="m302.83 146.77c2.664 0 7.701-.935 8.276-7.987l1.51-16.983h-3.595c-1.513 0-2.376-.791-2.376-2.375v-.863c0-1.584.863-2.375 2.376-2.375h4.03l.719-7.555c1.01-12.02 10.217-13.528 14.823-13.528 1.438 0 2.808.144 3.814.288 1.51.144 2.229 1.01 2.229 2.518v1.296c0 1.582-.719 2.375-1.87 2.231s-2.592-.288-3.814-.288c-2.736 0-7.701.935-8.348 7.987l-.647 7.05h6.115c1.513 0 2.376.791 2.376 2.375v.863c0 1.584-.863 2.375-2.376 2.375h-6.619l-1.51 17.558c-1.082 12.02-10.221 13.528-14.826 13.528-1.01 0-2.01-.072-2.804-.216-1.441-.144-2.16-1.01-2.16-2.518v-1.296c0-1.582.719-2.375 2.089-2.231.575.072 1.294.144 2.588.144" fill="#fca326"/><path d="m335.57 129.11c0-5.664 1.553-10.909 4.321-15.65.376-.713.879-.923 1.634-.923h.631c1.092 0 1.468.629.964 1.595-2.474 4.698-3.86 9.734-3.86 15.02 0 5.664 1.301 11.329 3.945 16.573.461.964.085 1.636-.964 1.636h-.716c-.755 0-1.216-.252-1.553-.84-2.725-4.908-4.402-11.03-4.402-17.41" fill="#fca326"/><path d="m354.21 132.47l-5.789-8.642c-.588-.966-.212-1.678.922-1.678h1.595c.755 0 1.258.294 1.592.964l3.442 5.496c.294.546.67 1.26.67 1.26h.085c0 0 .418-.714.713-1.26l3.399-5.496c.376-.67.882-.964 1.638-.964h1.549c1.134 0 1.553.713.925 1.678l-5.749 8.642 6.168 9.23c.631.966.209 1.678-.922 1.678h-1.51c-.755 0-1.258-.294-1.638-.964l-3.903-6.127c-.333-.503-.67-1.173-.67-1.173h-.085c0 0-.291.67-.628 1.173l-3.903 6.127c-.376.67-.879.964-1.638.964h-1.51c-1.131 0-1.553-.713-.922-1.678l6.169-9.23" fill="#fca326"/><path d="m374.15 129.16c0-5.285-1.34-10.32-3.818-15.02-.503-.966-.167-1.595.883-1.595h.713c.755 0 1.258.211 1.638.923 2.768 4.741 4.278 9.985 4.278 15.65 0 6.334-1.595 12.417-4.278 17.326-.379.672-.883.923-1.68.923h-.628c-1.092 0-1.428-.714-.964-1.721 2.598-5.201 3.856-10.865 3.856-16.486" fill="#fca326"/></g><path d="m536 105.67h112.2c13.144 0 23.799-10.656 23.799-23.8s-10.655-23.799-23.799-23.799c-6.911 0-13.13 2.946-17.482 7.65" fill="none" stroke="#251b3f" stroke-linejoin="round" stroke-linecap="round" stroke-width="8" stroke-miterlimit="10"/><path d="m637.96 59.92c-1.241-17.99-16.02-25.589-28.12-25.589-13.597 0-24.859 9.692-26.833 22.337l-.307.21c-10.838 0-19.628 8.784-19.628 19.622" fill="none" stroke="#251b3f" stroke-linejoin="round" stroke-linecap="round" stroke-width="8" stroke-miterlimit="10"/><path d="m548.06 37.05h-57.75c-4.549 0-8.25-3.7-8.25-8.249s3.701-8.25 8.25-8.25c2.327 0 4.479.942 6.06 2.652 1.499 1.624 4.03 1.723 5.652.223 1.622-1.499 1.722-4.03.223-5.652-.713-.772-1.502-1.458-2.34-2.071 1.436-5.747 6.861-7.37 10.144-7.37 4.898 0 9.137 3.488 9.859 8.113.17 1.089.782 2.06 1.691 2.683l.158.108c.666.456 1.454.7 2.261.7 3.365 0 6.103 2.736 6.103 6.1 0 2.209 1.791 4 4 4s4-1.791 4-4c0-6.725-4.733-12.365-11.04-13.766-2.429-6.978-9.276-11.938-17.03-11.938-7.337 0-15.02 4.242-17.599 12.379-.708-.095-1.42-.16-2.141-.16-8.96 0-16.25 7.29-16.25 16.25s7.29 16.249 16.25 16.249h57.75c2.209 0 4-1.791 4-4s-1.791-4-4-4" opacity=".3"/><g><path d="m92.42 213.98l17.826-54.24h-35.651l17.825 54.24" fill="#e24329"/><path d="m92.4 213.98l-17.826-54.24h-24.96l42.786 54.24" fill="#fc6d26"/><path d="m49.609 159.76l-5.424 16.48c-.491 1.496.039 3.148 1.336 4.081l46.873 33.678-42.785-54.24" fill="#fca326"/><path d="m49.612 159.76h24.98l-10.75-32.668c-.55-1.671-2.948-1.671-3.518 0l-10.712 32.668" fill="#e24329"/><path d="m92.42 213.98l17.826-54.24h24.98l-42.806 54.24" fill="#fc6d26"/><path d="m135.2 159.76l5.424 16.48c.491 1.496-.039 3.148-1.336 4.081l-46.873 33.659 42.785-54.22" fill="#fca326"/><path d="m135.21 159.76h-24.98l10.731-32.668c.55-1.671 2.948-1.671 3.518 0l10.731 32.668" fill="#e24329"/><g><path d="m92.42 213.98l17.826-54.24h-35.651l17.825 54.24z" fill="none" stroke="#251b3f" stroke-linejoin="round" stroke-linecap="round" stroke-width="8" stroke-miterlimit="10"/><path d="m92.4 213.98l-17.826-54.24h-24.96l42.786 54.24z" fill="none" stroke="#251b3f" stroke-linejoin="round" stroke-linecap="round" stroke-width="8" stroke-miterlimit="10"/><path d="m49.609 159.76l-5.424 16.48c-.491 1.496.039 3.148 1.336 4.081l46.873 33.678-42.785-54.24v.001z" fill="none" stroke="#251b3f" stroke-linejoin="round" stroke-linecap="round" stroke-width="8" stroke-miterlimit="10"/><path d="m49.612 159.76h24.98l-10.75-32.668c-.55-1.671-2.948-1.671-3.518 0 0 0-10.712 32.668-10.712 32.668z" fill="none" stroke="#251b3f" stroke-linejoin="round" stroke-linecap="round" stroke-width="8" stroke-miterlimit="10"/><path d="m92.42 213.98l17.826-54.24h24.98l-42.806 54.24z" fill="none" stroke="#251b3f" stroke-linejoin="round" stroke-linecap="round" stroke-width="8" stroke-miterlimit="10"/><path d="m135.2 159.76l5.424 16.48c.491 1.496-.039 3.148-1.336 4.081l-46.873 33.659 42.785-54.22z" fill="none" stroke="#251b3f" stroke-linejoin="round" stroke-linecap="round" stroke-width="8" stroke-miterlimit="10"/><path d="m135.21 159.76h-24.98l10.731-32.668c.55-1.671 2.948-1.671 3.518 0l10.731 32.668z" fill="none" stroke="#251b3f" stroke-linejoin="round" stroke-linecap="round" stroke-width="8" stroke-miterlimit="10"/></g></g></g></switch></svg>