<svg width="108" height="147" viewBox="0 0 108 147" fill="none" xmlns="http://www.w3.org/2000/svg">
<circle cx="105" cy="24" r="3" fill="#27AE60"/>
<circle cx="51" cy="62" r="5" fill="#9B51E0"/>
<path d="M14.426 145.023C14.2308 145.744 13.3414 146.005 12.7876 145.503L3.1675 136.793C2.58817 136.269 2.8091 135.312 3.56024 135.093L16.5647 131.301C17.3145 131.082 18.0142 131.767 17.8104 132.52L14.426 145.023Z" fill="#FCA121"/>
<path d="M20.2057 3.37183C20.121 2.85025 20.7982 2.57226 21.106 3.00224L29.8797 15.2579C30.0949 15.5585 29.9212 15.98 29.5569 16.0412L24.5916 16.8758C24.32 16.9214 24.1368 17.1781 24.182 17.4498L25.8245 27.3297C25.9115 27.8533 25.2303 28.1326 24.9231 27.6993L15.2498 14.0525C15.0374 13.7528 15.2094 13.3347 15.571 13.2716L21.1555 12.2979C21.4249 12.251 21.6062 11.9963 21.5624 11.7263L20.2057 3.37183Z" fill="#FC6D26"/>
</svg>
