<svg enable-background="new 0 0 1994 598" viewBox="0 0 1994 598" xmlns="http://www.w3.org/2000/svg" xmlns:xlink="http://www.w3.org/1999/xlink"><linearGradient id="a"><stop offset="0" stop-color="#1d083f"/><stop offset=".3198" stop-color="#331c67"/><stop offset=".7758" stop-color="#51379b"/><stop offset=".9995" stop-color="#5c41af"/></linearGradient><linearGradient id="b" gradientUnits="userSpaceOnUse" x1="699.9712" x2="699.0084" xlink:href="#a" y1="216.0119" y2="82.1809"/><linearGradient id="c" gradientUnits="userSpaceOnUse" x1="1635.9192" x2="1634.9564" xlink:href="#a" y1="181.2793" y2="47.4483"/><linearGradient id="d" gradientUnits="userSpaceOnUse" x1="291.554" x2="291.554" xlink:href="#a" y1="261.2334" y2="84.2384"/><linearGradient id="e" gradientUnits="userSpaceOnUse" x1="1625.9163" x2="1625.9163" xlink:href="#a" y1="335.3034" y2="158.3084"/><linearGradient id="f" gradientUnits="userSpaceOnUse" x1="486.3904" x2="486.3904" xlink:href="#a" y1="374.0706" y2="148.3962"/><linearGradient id="g" gradientUnits="userSpaceOnUse" x1="1701.6893" x2="1701.6893" xlink:href="#a" y1="468.8501" y2="243.1757"/><linearGradient id="h" gradientUnits="userSpaceOnUse" x1="727.3237" x2="727.3237" xlink:href="#a" y1="400.3471" y2="218.196"/><linearGradient id="i" gradientUnits="userSpaceOnUse" x1="412.8743" x2="411.2857" xlink:href="#a" y1="510.2909" y2="289.4688"/><linearGradient id="j" gradientUnits="userSpaceOnUse" x1="552.5778" x2="552.5778" xlink:href="#a" y1="597.3284" y2="393.1344"/><linearGradient id="k" gradientUnits="userSpaceOnUse" x1="1223.1091" x2="1223.1091" y1="575.2855" y2=".5578"><stop offset="0" stop-color="#1d083f"/><stop offset=".04036486" stop-color="#220c48"/><stop offset=".2359" stop-color="#371f6d"/><stop offset=".4316" stop-color="#472e8a"/><stop offset=".6252" stop-color="#53399e"/><stop offset=".8157" stop-color="#5a3fab"/><stop offset=".9995" stop-color="#5c41af"/></linearGradient><path d="m909.4 143c-2.2 0-4.3.1-6.4.2-3.6-5.2-14.9-9-28.3-9-11.7 0-21.8 2.9-26.6 7.1-6 .4-11.8.9-17.1 1.7-2.5-10.1-15-17.8-30.1-17.8-5.5 0-10.6 1-15.1 2.8-1.1-3.7-3.3-7.2-6.3-10.5 4.1-4.5 6.4-9.7 6.4-15.2 0-17.1-22.1-30.9-49.4-30.9-21.2 0-39.3 8.3-46.3 20.1-5.8-1.1-12-1.7-18.5-1.7-32.2 0-58.3 14.7-58.3 32.9 0 1.6.2 3.3.6 4.8-4.1-1.5-8.8-2.3-13.7-2.3-16.2 0-29.4 8.8-30.5 20-9.4-2.2-20-3.6-31.4-4-4.6-4.1-14.2-7-25.3-7-15.6 0-28.2 5.6-28.2 12.5 0 .2 0 .5.1.7-1.5-.1-2.9-.1-4.4-.1-29.1 0-52.7 16.6-52.7 37.1s23.6 37.1 52.7 37.1c22.6 0 41.8-10 49.3-24.1 4.9 2.5 11 4 17.6 4 7.7 0 14.8-2.1 20.1-5.5 4.5 13 21.2 22.6 41 22.6 22.5 0 40.8-12.4 42.1-28 12.9 4.2 31.5 6.8 52.2 6.8 27.2 0 50.8-4.6 62.7-11.2 5 11.5 25.6 20.1 50.2 20.1 20.6 0 38.4-6 46.5-14.7 11.3 6.3 28.2 10.3 46.9 10.3 34.2 0 61.9-13.2 61.9-29.5.2-16.2-27.5-29.3-61.7-29.3z" fill="url(#b)" opacity=".8"/><path d="m1845.4 108.2c-2.2 0-4.3.1-6.4.2-3.6-5.2-14.9-9-28.3-9-11.7 0-21.8 2.9-26.6 7.1-6 .4-11.8.9-17.1 1.7-2.5-10.1-15-17.8-30.1-17.8-5.5 0-10.6 1-15.1 2.8-1.1-3.7-3.3-7.2-6.3-10.5 4.1-4.5 6.4-9.7 6.4-15.2 0-17.1-22.1-30.9-49.4-30.9-21.2 0-39.3 8.3-46.3 20.1-5.8-1.1-12-1.7-18.5-1.7-32.2 0-58.3 14.7-58.3 32.9 0 1.6.2 3.3.6 4.8-4.1-1.5-8.8-2.3-13.7-2.3-16.2 0-29.4 8.8-30.5 20-9.4-2.2-20-3.6-31.4-4-4.6-4.1-14.2-7-25.3-7-15.6 0-28.2 5.6-28.2 12.5 0 .2 0 .5.1.7-1.5-.1-2.9-.1-4.4-.1-29.1 0-52.7 16.6-52.7 37.1s23.6 37.1 52.7 37.1c22.6 0 41.8-10 49.3-24.1 4.9 2.5 11 4 17.6 4 7.7 0 14.8-2.1 20.1-5.5 4.5 13 21.2 22.6 41 22.6 22.5 0 40.8-12.4 42.1-28 12.9 4.2 31.5 6.8 52.2 6.8 27.2 0 50.8-4.6 62.7-11.2 5 11.5 25.6 20.1 50.2 20.1 20.6 0 38.4-6 46.5-14.7 11.3 6.3 28.2 10.3 46.9 10.3 34.2 0 61.9-13.2 61.9-29.5.1-16.1-27.6-29.3-61.7-29.3z" fill="url(#c)" opacity=".8"/><path d="m559 228.9c-2.2 0-4.4.3-6.4.9-4.3-7.9-16.5-14.6-33.4-19.1-3.2-9.4-16.9-16.4-33.5-16.4-13.6 0-25.3 4.8-30.8 11.7-7 .6-13.6 1.5-19.8 2.7-2.9-16.7-17.4-29.3-34.9-29.3-6.1 0-11.8 1.6-16.8 4.2 3.8-6.2 6-13.4 6-21.2 0-22.4-18.1-40.5-40.5-40.5-9.3 0-17.9 3.2-24.7 8.5-.9-25.6-21.9-46.1-47.8-46.1-26.4 0-47.7 21.3-47.8 47.7-3.6-1.2-7.4-1.8-11.4-1.8-20.2 0-36.6 16.4-36.6 36.6 0 6.2 1.5 12 4.3 17.1-5.1-2.8-10.9-4.4-17.1-4.4-18.7 0-34.1 14.5-35.4 32.9-10.9-3.6-23.2-5.9-36.4-6.5-5.3-6.8-16.5-11.5-29.3-11.5-18 0-32.7 9.2-32.7 20.5 0 .5 0 1 .1 1.6-20.5 9.3-33.7 23.7-33.7 39.9 0 1.6.1 3.3.4 4.9h354.8 70.5 93 17.9 44c1.1-2.7 1.7-5.6 1.7-8.7-.1-13.1-10.6-23.7-23.7-23.7z" fill="url(#d)"/><path d="m1893.4 303c-2.2 0-4.4.3-6.4.9-4.3-7.9-16.5-14.6-33.4-19.1-3.2-9.4-16.9-16.4-33.5-16.4-13.6 0-25.3 4.8-30.8 11.7-7 .6-13.6 1.5-19.8 2.7-2.9-16.7-17.4-29.3-34.9-29.3-6.1 0-11.8 1.6-16.8 4.2 3.8-6.2 6-13.4 6-21.2 0-22.4-18.1-40.5-40.5-40.5-9.3 0-17.9 3.2-24.7 8.5-.9-25.6-21.9-46.1-47.8-46.1-26.4 0-47.7 21.3-47.8 47.7-3.6-1.2-7.4-1.8-11.4-1.8-20.2 0-36.6 16.4-36.6 36.6 0 6.2 1.5 12 4.3 17.1-5.1-2.8-10.9-4.4-17.1-4.4-18.7 0-34.1 14.5-35.4 32.9-10.9-3.6-23.2-5.9-36.4-6.5-5.3-6.8-16.5-11.5-29.3-11.5-18 0-32.7 9.2-32.7 20.5 0 .5 0 1 .1 1.6-20.5 9.3-33.7 23.7-33.7 39.9 0 1.6.1 3.3.4 4.9h354.8 70.5 93 17.8 43.9c1.1-2.7 1.7-5.6 1.7-8.7.1-13.1-10.5-23.7-23.5-23.7z" fill="url(#e)"/><path d="m777.5 275.2c0-13.1-10.6-23.6-23.6-23.6-2.2 0-4.4.3-6.4.9-4.3-7.9-16.5-14.6-33.4-19.1-3.2-9.4-16.9-16.4-33.5-16.4-13.6 0-25.3 4.8-30.8 11.7-7 .6-13.6 1.5-19.8 2.7-3-16.7-17.5-29.4-35-29.4-6.3 0-12.3 1.7-17.5 4.6-5-23.1-26.9-42.4-56.9-51.8 0 0-14-6.4-40.9-6.4-30.5 0-42.7 6.4-42.7 6.4-30 9.4-52 28.8-56.9 51.8-5.2-2.9-11.1-4.6-17.5-4.6-18.7 0-34.1 14.5-35.4 32.9-10.9-3.6-23.2-5.9-36.4-6.5-5.3-6.8-16.4-11.5-29.3-11.5-18 0-32.7 9.2-32.7 20.6 0 .5 0 1 .1 1.6-20.5 9.3-33.7 23.7-33.7 39.9v.8.7c0 13.1 4.1 63.3 96.9 58.2 13.6-.7 25.3-4.8 30.8-11.7 7-.6 13.6-1.5 19.8-2.7 2.9 16.7 17.4 29.3 34.9 29.3 6.3 0 12.3-1.7 17.5-4.6 5 23.1 36.7 28 59.3 23.5 30.9-6 36.3-30.4 36.3-30.4 5.2 2.9 207.6-3.4 220.4-3.4 18 0 32.7-9.2 32.7-20.6 0-.5 0-1-.1-1.6 20.5-9.3 33.7-23.7 33.7-39.9 0-.3 0-.6 0-.8.1-.2.1-.4.1-.6z" fill="url(#f)" opacity=".8"/><path d="m1992.8 369.9c0-13.1-10.6-23.6-23.6-23.6-2.2 0-4.4.3-6.4.9-4.3-7.9-16.5-14.6-33.4-19.1-3.2-9.4-16.9-16.4-33.5-16.4-13.6 0-25.3 4.8-30.8 11.7-7 .6-13.6 1.5-19.8 2.7-2.9-16.7-17.4-29.3-34.9-29.3-6.3 0-12.3 1.7-17.5 4.6-5-23.1-26.9-42.4-56.9-51.8 0 0-14-6.4-40.9-6.4-30.5 0-42.7 6.4-42.7 6.4-30 9.4-52 28.8-56.9 51.8-5.2-2.9-11.1-4.6-17.5-4.6-18.7 0-34.1 14.5-35.4 32.9-10.9-3.6-23.2-5.9-36.4-6.5-5.3-6.8-16.4-11.5-29.3-11.5-18 0-32.7 9.2-32.7 20.6 0 .5 0 1 .1 1.6-20.5 9.3-33.7 23.7-33.7 39.9v.8.7c0 13.1 4.1 63.3 96.9 58.2 13.6-.7 25.3-4.8 30.8-11.7 7-.6 13.6-1.5 19.8-2.7 2.9 16.7 17.4 29.3 34.9 29.3 6.3 0 12.3-1.7 17.5-4.6 5 23.1 36.7 28 59.3 23.5 30.9-6 36.3-30.4 36.3-30.4 5.2 2.9 207.6-3.4 220.4-3.4 18 0 32.7-9.2 32.7-20.6 0-.5 0-1-.1-1.6 20.5-9.3 33.7-23.7 33.7-39.9 0-.3 0-.6 0-.8-.1-.2 0-.4 0-.7z" fill="url(#g)" opacity=".8"/><path d="m917.2 313.6c-4.4 0-8.7.4-12.8 1.2-4.5-18.7-21.3-32.5-41.3-32.5-7.4 0-14.4 1.9-20.4 5.2-5.2-39.2-35.1-69.3-71.3-69.3-35.9 0-65.7 29.6-71.2 68.4-13.9-6-31.6-9.6-50.9-9.6-42.9 0-77.9 17.8-80.2 40.1-50.6 19.9-86.3 49.4-97.1 83.2h504.7c4-7.9 6.3-16.7 6.3-26-.2-33.5-29.6-60.7-65.8-60.7z" fill="url(#h)" opacity=".8"/><path d="m655.6 389.5c-2.5 0-5 .1-7.4.3-4.1-8.5-17.2-14.8-32.8-14.8-13.6 0-25.3 4.8-30.8 11.7-7 .6-13.6 1.5-19.8 2.7-2.9-16.7-17.4-29.3-34.9-29.3-6.3 0-12.3 1.7-17.5 4.6-1.3-6-3.8-11.8-7.3-17.2 4.7-7.4 7.4-15.9 7.4-25 0-28.1-25.6-50.8-57.3-50.8-24.6 0-45.5 13.7-53.6 33-6.7-1.8-14-2.8-21.5-2.8-37.3 0-67.5 24.2-67.5 54 0 2.7.3 5.4.7 8-4.8-2.4-10.2-3.8-15.9-3.8-18.7 0-34.1 14.5-35.4 32.9-10.9-3.6-23.2-5.9-36.4-6.5-5.3-6.8-16.4-11.5-29.3-11.5-18 0-32.7 9.2-32.7 20.6 0 .4 0 .8.1 1.2-1.7-.1-3.4-.2-5.2-.2-33.7 0-61.1 27.3-61.1 61.1 0 33.7 27.3 61.1 61.1 61.1 26.2 0 48.5-16.5 57.2-39.6 5.7 4.1 12.8 6.6 20.4 6.6 9 0 17.1-3.4 23.3-9 5.3 21.4 24.5 37.2 47.5 37.2 26 0 47.3-20.3 48.9-46 15 6.9 36.6 11.2 60.5 11.2 31.5 0 58.9-7.5 72.7-18.5 5.8 18.9 29.6 33 58.2 33 23.9 0 44.5-9.9 54-24.1 13.2 10.3 32.6 16.9 54.4 16.9 39.6 0 71.7-21.7 71.7-48.4 0-27-32.1-48.6-71.7-48.6z" fill="url(#i)" opacity=".8"/><path d="m765.4 500.1c-4.9 0-9.7.5-14.4 1.3-5-20.9-23.8-36.5-46.3-36.5-8.3 0-16.1 2.1-22.9 5.9-5.8-44-39.4-77.7-79.9-77.7-40.2 0-73.6 33.2-79.8 76.7-15.5-6.7-35.4-10.8-57.1-10.8-48.1 0-87.4 19.9-90 45-56.7 22.4-96.7 55.4-108.9 93.3h565.7c4.5-8.8 7.1-18.7 7.1-29.1.1-37.6-32.8-68.1-73.5-68.1z" fill="url(#j)" opacity=".8"/><path d="m1381.5 575.3h109.4 21 51.7c1.3-3.2 2-6.6 2-10.2 0-15.4-12.5-27.8-27.8-27.8-2.6 0-5.1.4-7.5 1.1-5-9.3-19.4-17.2-39.3-22.4-3.7-11-19.9-19.3-39.4-19.3-16 0-29.8 5.6-36.3 13.7-8.2.7-16 1.8-23.3 3.2-3.4-19.6-20.5-34.5-41.1-34.5-7.5 0-14.5 2-20.5 5.4-5.8-27.1-31.7-49.8-67-61l-31.1-191.2 11.9-.2 20.7 37.8c.9 1.6 2.4 2.4 4.2 2.5l13.5-.2c1.4-.2 2.5-.7 3.4-1.5.6-.6 1-1.3 1.2-2.1l16-64.3c.3-1.7-.1-3.2-1.1-4.4l-38.4-41.5c1.1-14.8 1.5-27.8 1.5-39.1-.4-25.1-4.5-46.6-12.2-64.5s-20.4-35.6-38.2-52.8c-.9-.9-2.1-1.3-3.4-1.3-1.4.1-2.5.6-3.5 1.6-18.1 18.6-30.5 36.4-37.2 53.4s-9.9 38.7-9.6 65.1c.2 11.3 1.1 24.3 2.5 39.1l-37.2 42.6c-1 1.3-1.3 2.8-1 4.4l17.8 63.8c.6 2.2 2.2 3.4 4.7 3.5l13.5-.2c1.3 0 2.4-.5 3.4-1.5.4-.4.7-.8.8-1.1l19.4-38.4 11.1-.2-31 190.7c-35.3 11.1-61.2 33.8-67 61-6.1-3.4-13.1-5.4-20.5-5.4-22 0-40.1 17.1-41.6 38.7-12.8-4.2-27.3-7-42.8-7.7-6.3-8-19.4-13.5-34.5-13.5-21.2 0-38.4 10.8-38.4 24.2 0 .6 0 1.2.1 1.8-24.1 10.9-39.6 27.9-39.6 46.9 0 1.9.2 3.9.5 5.8h417.4zm-149.8-505-19.2 14-19.2-14c-.5-.4-.7-1.1-.5-1.7l2.2-6.8 4.4-13.6c.2-.7 1.2-.7 1.4 0l4.4 13.6h14.6l4.4-13.6c.2-.7 1.2-.7 1.4 0l4.4 13.6 2.2 6.8c.3.6.1 1.3-.5 1.7z" fill="url(#k)"/><g fill="#db3b21"><path d="m1112.2 147.8c1.8-6.8 15.1-10.6 36.3-10.4 4.2 0 8.6.2 13.2.6-.1-.9-.1-1.9-.2-2.8-4.5-.3-8.9-.5-13-.6-29.4-.3-37.5 6.6-39 12.4-2.3 8.7 8.2 19.1 25.7 29.2 2.9 1.7 6.1 3.4 9.4 5l1.9-2.1c-23.7-11.9-36.3-23.7-34.3-31.3z"/><path d="m1267.4 162.4c14.9 5.6 27.6 11.5 37.5 17.3 17.8 10.3 26.9 20 25.2 26.5-1.6 6.1-12.5 9.8-30 10.3l-.7 2.8c24.8-.6 31.9-6.9 33.4-12.4 3.9-14.6-28.5-34-69.2-48.7v.1z"/><path d="m1106 113.4c-1.8-6.8 7.8-16.7 26.3-27.1 9.5-5.4 20.9-10.6 33.6-15.5.3-1.1.5-2.2.8-3.3-13.5 5.1-25.6 10.7-35.7 16.4-25.6 14.5-29.2 24.4-27.6 30.3 2.3 8.7 16.6 12.4 36.8 12.4 6.4 0 13.5-.4 20.9-1.1 0-.9-.1-1.8-.1-2.7-32 3-52.7-.9-55-9.4z"/><path d="m1288.9 44.7c20.5 0 33.3 3.8 35 10.4 1.8 6.8-7.8 16.7-26.3 27.1-9.7 5.4-21.2 10.7-34 15.7.1.9.2 1.9.3 2.8 13.2-5 25.1-10.5 35-16.1 25.6-14.5 29.2-24.4 27.6-30.3-3.7-13.9-38-15.1-78-8.7.4.8.9 1.7 1.3 2.5 14.9-2.3 28.1-3.4 39.1-3.4z"/><path d="m1264 100.7c-.1-1-.2-1.9-.3-2.8-12.8 4.9-26.8 9.5-41.5 13.4-23 6.2-43.8 9.9-61.2 11.5 0 .9 0 1.8.1 2.7 19.1-1.8 40.8-5.9 61.8-11.5 14.5-4 28.4-8.5 41.1-13.3z"/><path d="m1293.8 219.3h5.6l.7-2.8c-2 .1-4.1.1-6.3.1-22.2-.2-50.5-4.7-79.9-12.5-27.4-7.3-50.3-16.1-67.5-24.8l-1.9 2.1c19.1 9.6 43.7 18.7 68.6 25.4 29.7 7.8 58.3 12.3 80.7 12.5z"/></g></svg>