<?xml version="1.0" encoding="utf-8"?>
<!-- Generator: Adobe Illustrator 23.1.1, SVG Export Plug-In . SVG Version: 6.00 Build 0)  -->
<svg version="1.1" id="Layer_1" xmlns="http://www.w3.org/2000/svg" xmlns:xlink="http://www.w3.org/1999/xlink" x="0px" y="0px"
	 viewBox="0 0 690 575" enable-background="new 0 0 690 575" xml:space="preserve">
<g>
	<linearGradient id="SVGID_1_" gradientUnits="userSpaceOnUse" x1="345.5" y1="575.388" x2="345.5" y2="232.4085">
		<stop  offset="0" style="stop-color:#1D083F"/>
		<stop  offset="4.036486e-02" style="stop-color:#220C48"/>
		<stop  offset="0.2359" style="stop-color:#371F6D"/>
		<stop  offset="0.4316" style="stop-color:#472E8A"/>
		<stop  offset="0.6252" style="stop-color:#53399E"/>
		<stop  offset="0.8157" style="stop-color:#5A3FAB"/>
		<stop  offset="0.9995" style="stop-color:#5C41AF"/>
	</linearGradient>
	<path fill="url(#SVGID_1_)" d="M318.4,232.9l-31,190.7c-35.3,11.1-61.2,33.8-67,61c-6.1-3.4-13.1-5.4-20.5-5.4
		c-22,0-40.1,17.1-41.6,38.7c-12.8-4.2-27.3-7-42.8-7.7c-6.3-8-19.4-13.5-34.5-13.5c-21.2,0-38.4,10.8-38.4,24.2
		c0,0.6,0,1.2,0.1,1.8c-24.1,10.9-39.6,27.9-39.6,46.9c0,1.9,0.2,3.9,0.5,5.8H421h82.9h109.4h21H686c1.3-3.2,2-6.6,2-10.2
		c0-15.4-12.5-27.8-27.8-27.8c-2.6,0-5.1,0.4-7.5,1.1c-5-9.3-19.4-17.2-39.3-22.4c-3.7-11-19.9-19.3-39.4-19.3
		c-16,0-29.8,5.6-36.3,13.7c-8.2,0.7-16,1.8-23.3,3.2c-3.4-19.6-20.5-34.5-41.1-34.5c-7.5,0-14.5,2-20.5,5.4
		c-5.8-27.1-31.7-49.8-67-61l-31.1-191.2L318.4,232.9z"/>
	<linearGradient id="SVGID_2_" gradientUnits="userSpaceOnUse" x1="345.5" y1="575.388" x2="345.5" y2="232.4085">
		<stop  offset="0" style="stop-color:#1D083F"/>
		<stop  offset="4.036486e-02" style="stop-color:#220C48"/>
		<stop  offset="0.2359" style="stop-color:#371F6D"/>
		<stop  offset="0.4316" style="stop-color:#472E8A"/>
		<stop  offset="0.6252" style="stop-color:#53399E"/>
		<stop  offset="0.8157" style="stop-color:#5A3FAB"/>
		<stop  offset="0.9995" style="stop-color:#5C41AF"/>
	</linearGradient>
	<path fill="url(#SVGID_2_)" d="M318.4,232.9l-31,190.7c-35.3,11.1-61.2,33.8-67,61c-6.1-3.4-13.1-5.4-20.5-5.4
		c-22,0-40.1,17.1-41.6,38.7c-12.8-4.2-27.3-7-42.8-7.7c-6.3-8-19.4-13.5-34.5-13.5c-21.2,0-38.4,10.8-38.4,24.2
		c0,0.6,0,1.2,0.1,1.8c-24.1,10.9-39.6,27.9-39.6,46.9c0,1.9,0.2,3.9,0.5,5.8H421h82.9h109.4h21H686c1.3-3.2,2-6.6,2-10.2
		c0-15.4-12.5-27.8-27.8-27.8c-2.6,0-5.1,0.4-7.5,1.1c-5-9.3-19.4-17.2-39.3-22.4c-3.7-11-19.9-19.3-39.4-19.3
		c-16,0-29.8,5.6-36.3,13.7c-8.2,0.7-16,1.8-23.3,3.2c-3.4-19.6-20.5-34.5-41.1-34.5c-7.5,0-14.5,2-20.5,5.4
		c-5.8-27.1-31.7-49.8-67-61l-31.1-191.2"/>
	<linearGradient id="SVGID_3_" gradientUnits="userSpaceOnUse" x1="345.5" y1="575.388" x2="345.5" y2="232.4085">
		<stop  offset="0" style="stop-color:#1D083F"/>
		<stop  offset="4.036486e-02" style="stop-color:#220C48"/>
		<stop  offset="0.2359" style="stop-color:#371F6D"/>
		<stop  offset="0.4316" style="stop-color:#472E8A"/>
		<stop  offset="0.6252" style="stop-color:#53399E"/>
		<stop  offset="0.8157" style="stop-color:#5A3FAB"/>
		<stop  offset="0.9995" style="stop-color:#5C41AF"/>
	</linearGradient>
	<path fill="url(#SVGID_3_)" d="M318.4,232.9l-31,190.7c-35.3,11.1-61.2,33.8-67,61c-6.1-3.4-13.1-5.4-20.5-5.4
		c-22,0-40.1,17.1-41.6,38.7c-12.8-4.2-27.3-7-42.8-7.7c-6.3-8-19.4-13.5-34.5-13.5c-21.2,0-38.4,10.8-38.4,24.2
		c0,0.6,0,1.2,0.1,1.8c-24.1,10.9-39.6,27.9-39.6,46.9c0,1.9,0.2,3.9,0.5,5.8H421h82.9h109.4h21H686c1.3-3.2,2-6.6,2-10.2
		c0-15.4-12.5-27.8-27.8-27.8c-2.6,0-5.1,0.4-7.5,1.1c-5-9.3-19.4-17.2-39.3-22.4c-3.7-11-19.9-19.3-39.4-19.3
		c-16,0-29.8,5.6-36.3,13.7c-8.2,0.7-16,1.8-23.3,3.2c-3.4-19.6-20.5-34.5-41.1-34.5c-7.5,0-14.5,2-20.5,5.4
		c-5.8-27.1-31.7-49.8-67-61l-31.1-191.2"/>
</g>
</svg>
