<?xml version="1.0" encoding="utf-8"?>
<!-- Generator: Adobe Illustrator 23.1.1, SVG Export Plug-In . SVG Version: 6.00 Build 0)  -->
<svg version="1.1" id="Layer_1" xmlns="http://www.w3.org/2000/svg" xmlns:xlink="http://www.w3.org/1999/xlink" x="0px" y="0px"
	 viewBox="0 0 690 575" enable-background="new 0 0 690 575" xml:space="preserve">
<linearGradient id="SVGID_1_" gradientUnits="userSpaceOnUse" x1="336.5789" y1="274.1705" x2="336.5789" y2="0.6604">
	<stop  offset="0" style="stop-color:#1D083F"/>
	<stop  offset="4.036486e-02" style="stop-color:#220C48"/>
	<stop  offset="0.2359" style="stop-color:#371F6D"/>
	<stop  offset="0.4316" style="stop-color:#472E8A"/>
	<stop  offset="0.6252" style="stop-color:#53399E"/>
	<stop  offset="0.8157" style="stop-color:#5A3FAB"/>
	<stop  offset="0.9995" style="stop-color:#5C41AF"/>
</linearGradient>
<path fill="url(#SVGID_1_)" d="M354.7,232.4l11.9-0.2l20.7,37.8c0.9,1.6,2.4,2.4,4.2,2.5l13.5-0.2c1.4-0.2,2.5-0.7,3.4-1.5
	c0.6-0.6,1-1.3,1.2-2.1l16-64.3c0.3-1.7-0.1-3.2-1.1-4.4L386,158.4c1.1-14.8,1.5-27.8,1.5-39.1c-0.4-25.1-4.5-46.6-12.2-64.5
	c-7.7-17.9-20.4-35.6-38.2-52.8c-0.9-0.9-2.1-1.3-3.4-1.3c-1.4,0.1-2.5,0.6-3.5,1.6c-18.1,18.6-30.5,36.4-37.2,53.4
	c-6.7,17-9.9,38.7-9.6,65.1c0.2,11.3,1.1,24.3,2.5,39.1l-37.2,42.6c-1,1.3-1.3,2.8-1,4.4l17.8,63.8c0.6,2.2,2.2,3.4,4.7,3.5
	l13.5-0.2c1.3,0,2.4-0.5,3.4-1.5c0.4-0.4,0.7-0.8,0.8-1.1l19.6-38.3l11.1-0.2L354.7,232.4z M354.1,70.4l-19.2,14l-19.2-14
	c-0.5-0.4-0.7-1.1-0.5-1.7l2.2-6.8l4.4-13.6c0.2-0.7,1.2-0.7,1.4,0l4.4,13.6h14.6l4.4-13.6c0.2-0.7,1.2-0.7,1.4,0l4.4,13.6l2.2,6.8
	C354.9,69.3,354.7,70,354.1,70.4z"/>
<g>
	<linearGradient id="SVGID_2_" gradientUnits="userSpaceOnUse" x1="345.5" y1="575.388" x2="345.5" y2="232.4085">
		<stop  offset="0" style="stop-color:#1D083F"/>
		<stop  offset="4.036486e-02" style="stop-color:#220C48"/>
		<stop  offset="0.2359" style="stop-color:#371F6D"/>
		<stop  offset="0.4316" style="stop-color:#472E8A"/>
		<stop  offset="0.6252" style="stop-color:#53399E"/>
		<stop  offset="0.8157" style="stop-color:#5A3FAB"/>
		<stop  offset="0.9995" style="stop-color:#5C41AF"/>
	</linearGradient>
	<path fill="url(#SVGID_2_)" d="M318.4,232.9l-31,190.7c-35.3,11.1-61.2,33.8-67,61c-6.1-3.4-13.1-5.4-20.5-5.4
		c-22,0-40.1,17.1-41.6,38.7c-12.8-4.2-27.3-7-42.8-7.7c-6.3-8-19.4-13.5-34.5-13.5c-21.2,0-38.4,10.8-38.4,24.2
		c0,0.6,0,1.2,0.1,1.8c-24.1,10.9-39.6,27.9-39.6,46.9c0,1.9,0.2,3.9,0.5,5.8H421h82.9h109.4h21H686c1.3-3.2,2-6.6,2-10.2
		c0-15.4-12.5-27.8-27.8-27.8c-2.6,0-5.1,0.4-7.5,1.1c-5-9.3-19.4-17.2-39.3-22.4c-3.7-11-19.9-19.3-39.4-19.3
		c-16,0-29.8,5.6-36.3,13.7c-8.2,0.7-16,1.8-23.3,3.2c-3.4-19.6-20.5-34.5-41.1-34.5c-7.5,0-14.5,2-20.5,5.4
		c-5.8-27.1-31.7-49.8-67-61l-31.1-191.2L318.4,232.9z"/>
	<linearGradient id="SVGID_3_" gradientUnits="userSpaceOnUse" x1="345.5" y1="575.388" x2="345.5" y2="232.4085">
		<stop  offset="0" style="stop-color:#1D083F"/>
		<stop  offset="4.036486e-02" style="stop-color:#220C48"/>
		<stop  offset="0.2359" style="stop-color:#371F6D"/>
		<stop  offset="0.4316" style="stop-color:#472E8A"/>
		<stop  offset="0.6252" style="stop-color:#53399E"/>
		<stop  offset="0.8157" style="stop-color:#5A3FAB"/>
		<stop  offset="0.9995" style="stop-color:#5C41AF"/>
	</linearGradient>
	<path fill="url(#SVGID_3_)" d="M318.4,232.9l-31,190.7c-35.3,11.1-61.2,33.8-67,61c-6.1-3.4-13.1-5.4-20.5-5.4
		c-22,0-40.1,17.1-41.6,38.7c-12.8-4.2-27.3-7-42.8-7.7c-6.3-8-19.4-13.5-34.5-13.5c-21.2,0-38.4,10.8-38.4,24.2
		c0,0.6,0,1.2,0.1,1.8c-24.1,10.9-39.6,27.9-39.6,46.9c0,1.9,0.2,3.9,0.5,5.8H421h82.9h109.4h21H686c1.3-3.2,2-6.6,2-10.2
		c0-15.4-12.5-27.8-27.8-27.8c-2.6,0-5.1,0.4-7.5,1.1c-5-9.3-19.4-17.2-39.3-22.4c-3.7-11-19.9-19.3-39.4-19.3
		c-16,0-29.8,5.6-36.3,13.7c-8.2,0.7-16,1.8-23.3,3.2c-3.4-19.6-20.5-34.5-41.1-34.5c-7.5,0-14.5,2-20.5,5.4
		c-5.8-27.1-31.7-49.8-67-61l-31.1-191.2"/>
	<linearGradient id="SVGID_4_" gradientUnits="userSpaceOnUse" x1="345.5" y1="575.388" x2="345.5" y2="232.4085">
		<stop  offset="0" style="stop-color:#1D083F"/>
		<stop  offset="4.036486e-02" style="stop-color:#220C48"/>
		<stop  offset="0.2359" style="stop-color:#371F6D"/>
		<stop  offset="0.4316" style="stop-color:#472E8A"/>
		<stop  offset="0.6252" style="stop-color:#53399E"/>
		<stop  offset="0.8157" style="stop-color:#5A3FAB"/>
		<stop  offset="0.9995" style="stop-color:#5C41AF"/>
	</linearGradient>
	<path fill="url(#SVGID_4_)" d="M318.4,232.9l-31,190.7c-35.3,11.1-61.2,33.8-67,61c-6.1-3.4-13.1-5.4-20.5-5.4
		c-22,0-40.1,17.1-41.6,38.7c-12.8-4.2-27.3-7-42.8-7.7c-6.3-8-19.4-13.5-34.5-13.5c-21.2,0-38.4,10.8-38.4,24.2
		c0,0.6,0,1.2,0.1,1.8c-24.1,10.9-39.6,27.9-39.6,46.9c0,1.9,0.2,3.9,0.5,5.8H421h82.9h109.4h21H686c1.3-3.2,2-6.6,2-10.2
		c0-15.4-12.5-27.8-27.8-27.8c-2.6,0-5.1,0.4-7.5,1.1c-5-9.3-19.4-17.2-39.3-22.4c-3.7-11-19.9-19.3-39.4-19.3
		c-16,0-29.8,5.6-36.3,13.7c-8.2,0.7-16,1.8-23.3,3.2c-3.4-19.6-20.5-34.5-41.1-34.5c-7.5,0-14.5,2-20.5,5.4
		c-5.8-27.1-31.7-49.8-67-61l-31.1-191.2"/>
</g>
<path fill="#DB3B21" d="M234.6,147.9c1.8-6.8,15.1-10.6,36.3-10.4c4.2,0,8.6,0.2,13.2,0.6c-0.1-0.9-0.1-1.9-0.2-2.8
	c-4.5-0.3-8.9-0.5-13-0.6c-29.4-0.3-37.5,6.6-39,12.4c-2.3,8.7,8.2,19.1,25.7,29.2c2.9,1.7,6.1,3.4,9.4,5l1.9-2.1
	C245.2,167.3,232.5,155.5,234.6,147.9z"/>
<path fill="#DB3B21" d="M389.8,162.5c14.9,5.6,27.6,11.5,37.5,17.3c17.8,10.3,26.9,20,25.2,26.5c-1.6,6.1-12.5,9.8-30,10.3l-0.7,2.8
	c24.8-0.6,31.9-6.9,33.4-12.4c3.9-14.6-28.5-34-69.2-48.7c0,0,0,0.1,0,0.1L389.8,162.5z"/>
<path fill="#DB3B21" d="M228.4,113.5c-1.8-6.8,7.8-16.7,26.3-27.1c9.5-5.4,20.9-10.6,33.6-15.5c0.3-1.1,0.5-2.2,0.8-3.3
	c-13.5,5.1-25.6,10.7-35.7,16.4c-25.6,14.5-29.2,24.4-27.6,30.3c2.3,8.7,16.6,12.4,36.8,12.4c6.4,0,13.5-0.4,20.9-1.1
	c0-0.9-0.1-1.8-0.1-2.7C251.4,125.9,230.6,122,228.4,113.5z"/>
<path fill="#DB3B21" d="M411.3,44.8c20.5,0,33.3,3.8,35,10.4c1.8,6.8-7.8,16.7-26.3,27.1c-9.7,5.4-21.2,10.7-34,15.7
	c0.1,0.9,0.2,1.9,0.3,2.8c13.2-5,25.1-10.5,35-16.1C447,70.2,450.6,60.3,449,54.4c-3.7-13.9-38-15.1-78-8.7c0.4,0.8,0.9,1.7,1.3,2.5
	C387.1,45.9,400.3,44.8,411.3,44.8z"/>
<path fill="#DB3B21" d="M386.4,100.8c-0.1-1-0.2-1.9-0.3-2.8c-12.8,4.9-26.8,9.5-41.5,13.4c-23,6.2-43.8,9.9-61.2,11.5
	c0,0.9,0,1.8,0.1,2.7c19.1-1.8,40.8-5.9,61.8-11.5C359.8,110.1,373.7,105.6,386.4,100.8z"/>
<path fill="#DB3B21" d="M416.2,219.4c2,0,3.8,0,5.6,0l0.7-2.8c-2,0.1-4.1,0.1-6.3,0.1c-22.2-0.2-50.5-4.7-79.9-12.5
	c-27.4-7.3-50.3-16.1-67.5-24.8l-1.9,2.1c19.1,9.6,43.7,18.7,68.6,25.4C365.2,214.7,393.8,219.2,416.2,219.4z"/>
</svg>
