<?xml version="1.0" encoding="utf-8"?>
<!-- Generator: Adobe Illustrator 23.1.1, SVG Export Plug-In . SVG Version: 6.00 Build 0)  -->
<svg version="1.1" id="Layer_1" xmlns="http://www.w3.org/2000/svg" xmlns:xlink="http://www.w3.org/1999/xlink" x="0px" y="0px"
	 viewBox="0 0 80 41" enable-background="new 0 0 80 41" xml:space="preserve">
<g>
	<linearGradient id="cloudcity1_SVGID_1_" gradientUnits="userSpaceOnUse" x1="30.5796" y1="17.8784" x2="30.4675" y2="2.2896">
		<stop  offset="0" style="stop-color:#1D083F"/>
		<stop  offset="0.3198" style="stop-color:#331C67"/>
		<stop  offset="0.7758" style="stop-color:#51379B"/>
		<stop  offset="0.9995" style="stop-color:#5C41AF"/>
	</linearGradient>
	<path opacity="0.8" id="cc1-cloud-top-left" fill="url(#cloudcity1_SVGID_1_)" d="M47.7,9.3c-0.2,0-0.4,0-0.5,0c-0.3-0.6-1.2-1-2.3-1c-1,0-1.8,0.3-2.2,0.8
		c-0.5,0-1,0.1-1.4,0.2c-0.2-1.2-1.2-2.1-2.5-2.1c-0.4,0-0.9,0.1-1.2,0.3c-0.1-0.4-0.3-0.8-0.5-1.2c0.3-0.5,0.5-1.1,0.5-1.8
		c0-2-1.8-3.6-4-3.6c-1.7,0-3.2,1-3.8,2.3c-0.5-0.1-1-0.2-1.5-0.2c-2.6,0-4.8,1.7-4.8,3.8c0,0.2,0,0.4,0.1,0.6
		c-0.3-0.2-0.7-0.3-1.1-0.3c-1.3,0-2.4,1-2.5,2.3c-0.8-0.3-1.6-0.4-2.6-0.5c-0.4-0.5-1.2-0.8-2.1-0.8C14,8.3,13,9,13,9.8
		c0,0,0,0.1,0,0.1c-0.1,0-0.2,0-0.4,0c-2.4,0-4.3,1.9-4.3,4.3c0,2.4,1.9,4.3,4.3,4.3c1.8,0,3.4-1.2,4-2.8c0.4,0.3,0.9,0.5,1.4,0.5
		c0.6,0,1.2-0.2,1.6-0.6c0.4,1.5,1.7,2.6,3.4,2.6c1.8,0,3.3-1.4,3.4-3.2c1.1,0.5,2.6,0.8,4.3,0.8c2.2,0,4.2-0.5,5.1-1.3
		c0.4,1.3,2.1,2.3,4.1,2.3c1.7,0,3.1-0.7,3.8-1.7c0.9,0.7,2.3,1.2,3.8,1.2c2.8,0,5.1-1.5,5.1-3.4C52.8,10.9,50.5,9.3,47.7,9.3z"/>
	<linearGradient id="cloudcity1_SVGID_2_" gradientUnits="userSpaceOnUse" x1="27.3674" y1="33.8785" x2="27.3674" y2="14.433">
		<stop  offset="0" style="stop-color:#1D083F"/>
		<stop  offset="0.3198" style="stop-color:#331C67"/>
		<stop  offset="0.7758" style="stop-color:#51379B"/>
		<stop  offset="0.9995" style="stop-color:#5C41AF"/>
	</linearGradient>
	<path opacity="0.8" id="cc1-cloud-mid-left" fill="url(#cloudcity1_SVGID_2_)" d="M52.4,25.4c0-1.1-0.9-2-2-2c-0.2,0-0.4,0-0.6,0.1c-0.4-0.7-1.4-1.3-2.9-1.6
		c-0.3-0.8-1.5-1.4-2.9-1.4c-1.2,0-2.2,0.4-2.7,1c-0.6,0.1-1.2,0.1-1.7,0.2c-0.3-1.4-1.5-2.5-3-2.5c-0.5,0-1.1,0.1-1.5,0.4
		c-0.4-2-2.3-3.7-4.9-4.5c0,0-1.2-0.6-3.5-0.6c-2.6,0-3.7,0.6-3.7,0.6c-2.6,0.8-4.5,2.5-4.9,4.5c-0.4-0.3-1-0.4-1.5-0.4
		c-1.6,0-2.9,1.3-3,2.8c-0.9-0.3-2-0.5-3.1-0.6c-0.5-0.6-1.4-1-2.5-1c-1.6,0-2.8,0.8-2.8,1.8c0,0,0,0.1,0,0.1
		c-1.8,0.8-2.9,2-2.9,3.4c0,0,0,0,0,0.1c0,0,0,0,0,0.1c0,1.1,0.4,5.5,8.3,5c1.2-0.1,2.2-0.4,2.7-1c0.6-0.1,1.2-0.1,1.7-0.2
		c0.3,1.4,1.5,2.5,3,2.5c0.5,0,1.1-0.1,1.5-0.4c0.4,2,3.2,2.4,5.1,2c2.7-0.5,3.1-2.6,3.1-2.6c0.4,0.3,17.9-0.3,19-0.3
		c1.6,0,2.8-0.8,2.8-1.8c0,0,0-0.1,0-0.1c1.8-0.8,2.9-2,2.9-3.4C52.4,25.5,52.4,25.4,52.4,25.4C52.4,25.4,52.4,25.4,52.4,25.4z"/>
	<path fill="none" d="M59.6,13.3c0,0.1,0.1,0.2,0.2,0.3c0-0.6,0-1.2,0.1-1.8C59.5,12.4,59.4,12.9,59.6,13.3z"/>
	<path fill="none" d="M41.2,18.6c0.1,1.1,0.2,2.1,0.3,3.2c1.4,0.5,2.7,1.5,3.6,2.4c0.1-0.9,0.3-2,0.5-3.1c-0.7-0.4-1.5-0.9-2.3-1.3
		C42.6,19.4,41.8,19,41.2,18.6z"/>
	<path fill="none" d="M38.9,16c-0.1,0.4,0.3,0.7,0.6,1c0,0,0,0,0,0c0.3-0.2,0.6-0.4,0.8-0.5c0-0.5,0-0.9,0.1-1.3
		C39.5,15.4,39,15.7,38.9,16z"/>
	<path fill="none" d="M42.5,14.4c-0.1-0.4-0.6-0.7-1.5-0.9c0,0.8,0.1,1.6,0.1,2.5c0.3-0.2,0.6-0.5,0.9-0.7
		C42.4,15,42.6,14.7,42.5,14.4z"/>
	<path fill="none" d="M34.6,20.5c0,1.2,0.1,2.3,0.1,3.4c0.2,0.1,0.4,0.2,0.6,0.4v-4.4c-0.1,0-0.1,0.1-0.2,0.1
		C35,20.2,34.8,20.3,34.6,20.5z"/>
	<path fill="none" d="M40.3,17.6c0-0.3,0-0.5,0-0.8c-0.2,0.1-0.4,0.2-0.6,0.4C39.9,17.4,40.1,17.5,40.3,17.6z"/>
	<path fill="none" d="M66.3,14.1C66.3,14.1,66.3,14.1,66.3,14.1l-0.1,0.7c0-0.1,0.1-0.2,0.1-0.3C66.4,14.3,66.4,14.2,66.3,14.1z"/>
	<path fill="none" d="M66.2,13.3c0-0.1,0.1-0.2,0.1-0.3c0-0.1,0-0.2,0-0.2c0,0-0.1,0-0.1,0V13.3z"/>
	<path fill="none" d="M65.4,15.4v-0.2C65.4,15.2,65.3,15.3,65.4,15.4C65.3,15.4,65.4,15.4,65.4,15.4z"/>
	<path fill="none" d="M70.6,22.5c0,0,0.1,0,0.2,0v-0.1c-0.1,0-0.1,0-0.2,0C70.6,22.5,70.6,22.5,70.6,22.5z"/>
	<path fill="none" d="M70.4,23.1c0.1,0,0.2,0,0.3,0v-0.5c-0.1,0-0.2,0-0.2,0C70.5,22.8,70.5,23,70.4,23.1z"/>
	<path fill="none" d="M65.2,14.6c0,0,0.1,0,0.2,0v-0.9C65.1,14.2,65.1,14.5,65.2,14.6z"/>
	<g>
		<path fill="#7DCAFA" d="M65.6,10.5v-0.1V9.1c0,0,0-0.1-0.1-0.1c0,0-0.1,0-0.1,0.1v1.4c0,0,0,0,0,0v0
			C65.5,10.5,65.5,10.5,65.6,10.5L65.6,10.5z"/>
		<path fill="#DB3B21" d="M65.9,10.5L65.9,10.5V8.4c0,0,0-0.1-0.1-0.1c0,0-0.1,0-0.1,0.1v2.1c0,0,0,0,0,0v0
			C65.8,10.5,65.8,10.5,65.9,10.5C65.8,10.5,65.9,10.5,65.9,10.5L65.9,10.5z"/>
	</g>
	<linearGradient id="cloudcity1_SVGID_3_" gradientUnits="userSpaceOnUse" x1="66.3073" y1="13.0303" x2="66.3073" y2="11.4443">
		<stop  offset="0" style="stop-color:#1D083F"/>
		<stop  offset="0.3198" style="stop-color:#331C67"/>
		<stop  offset="0.7758" style="stop-color:#51379B"/>
		<stop  offset="0.9995" style="stop-color:#5C41AF"/>
	</linearGradient>
	<path opacity="0.44" fill="url(#cloudcity1_SVGID_3_)" d="M66.3,12.6C66.3,12.6,66.3,12.6,66.3,12.6l-0.1,0.2c0,0,0.1,0,0.1,0
		C66.4,12.7,66.4,12.7,66.3,12.6z"/>
	<linearGradient id="cloudcity1_SVGID_4_" gradientUnits="userSpaceOnUse" x1="64.3672" y1="13.0303" x2="64.3672" y2="11.4443">
		<stop  offset="0" style="stop-color:#1D083F"/>
		<stop  offset="0.3198" style="stop-color:#331C67"/>
		<stop  offset="0.7758" style="stop-color:#51379B"/>
		<stop  offset="0.9995" style="stop-color:#5C41AF"/>
	</linearGradient>
	<path opacity="0.44" fill="url(#cloudcity1_SVGID_4_)" d="M64.9,10.6c-0.5,0.1-0.8,0.4-1,0.7C64,11,64.4,10.7,64.9,10.6z"/>
	<linearGradient id="cloudcity1_SVGID_5_" gradientUnits="userSpaceOnUse" x1="67.3046" y1="13.0303" x2="67.3046" y2="11.4443">
		<stop  offset="0" style="stop-color:#1D083F"/>
		<stop  offset="0.3198" style="stop-color:#331C67"/>
		<stop  offset="0.7758" style="stop-color:#51379B"/>
		<stop  offset="0.9995" style="stop-color:#5C41AF"/>
	</linearGradient>
	<path opacity="0.44" fill="url(#cloudcity1_SVGID_5_)" d="M67.7,11.2c-0.2-0.2-0.5-0.4-0.8-0.6C67.3,10.8,67.6,11,67.7,11.2z"/>
	<linearGradient id="cloudcity1_SVGID_6_" gradientUnits="userSpaceOnUse" x1="52.7932" y1="33.3657" x2="52.7932" y2="11.2843">
		<stop  offset="0" style="stop-color:#1D083F"/>
		<stop  offset="0.3198" style="stop-color:#331C67"/>
		<stop  offset="0.7758" style="stop-color:#51379B"/>
		<stop  offset="0.9995" style="stop-color:#5C41AF"/>
	</linearGradient>
	<path fill="url(#cloudcity1_SVGID_6_)" d="M73.9,24.2c-0.1,0-0.2,0-0.3,0v-0.3c0.2,0,0.2,0,0.2,0s0,0-0.2,0v-0.1c0.2,0,0.2,0,0.2,0
		c0,0,0,0-0.2,0v0c0,0,0-0.1-0.1-0.1c0,0-0.1,0-0.1,0.1v0c-0.2,0-0.2,0-0.2,0c0,0,0,0,0.2,0v0.1c-0.2,0-0.2,0-0.2,0s0,0,0.2,0v0.4
		c-0.1,0-0.2,0.1-0.4,0.1c0,0,0,0,0,0c0,0,0,0,0,0v-5c0-0.3-0.2-0.5-0.5-0.5c-0.3,0-0.5,0.2-0.5,0.5v4.6c-0.1-0.1-0.2-0.2-0.4-0.3
		c0,0,0,0,0,0c-0.1,0-0.1-0.1-0.2-0.1c0,0,0,0,0,0c0,0,0,0,0,0c0,0,0,0,0,0c-0.2-0.1-0.3-0.2-0.5-0.2v-0.5c0.3,0,0.3-0.1,0.3-0.1
		c0,0,0-0.1-0.3-0.1v-0.1c0.3,0,0.3-0.1,0.3-0.1c0,0,0-0.1-0.3-0.1v0c0,0,0-0.1-0.1-0.1s-0.1,0-0.1,0.1v0c-0.1,0-0.1,0-0.2,0
		c0.2-1.8-0.7-3.7-1.9-4.9c-0.4-0.4-0.9-0.8-1.4-1.1c-0.3-0.2-0.7-0.4-1.1-0.6V15c0.1-0.2,0.1-0.3,0.2-0.5c0.1-0.2,0-0.4-0.1-0.5
		c0,0-0.1,0-0.1,0v-0.6c0.1-0.2,0.1-0.3,0.2-0.5c0-0.1,0-0.2,0-0.3c0-0.1,0-0.2-0.1-0.2c0,0-0.1,0-0.1,0V12h1.5h0.5c0,0,0,0,0,0
		v-0.5c0,0,0,0,0,0h-0.5c0,0,0-0.1-0.1-0.1c0,0,0,0,0,0c0,0,0,0,0-0.1c-0.2-0.2-0.5-0.4-0.8-0.6c0,0,0,0,0,0c0,0-0.1,0-0.1,0
		c0,0-0.1,0-0.1,0c0,0,0,0-0.1,0c-0.1,0-0.2,0-0.3-0.1c0,0-0.1,0-0.1,0c-0.1,0-0.2,0-0.3,0c-0.1,0-0.1,0-0.2,0c-0.3,0-0.5,0-0.8,0.1
		c0,0,0,0,0,0c0,0-0.1,0-0.1,0c-0.5,0.1-0.8,0.4-1,0.7c0,0,0,0,0,0c0,0,0,0,0,0c0,0,0,0.1-0.1,0.1h-0.5c0,0,0,0,0,0v0.5c0,0,0,0,0,0
		h0.5h1.5v0.8v0.7c0,0,0,0,0,0c-0.2,0.5-0.4,1-0.2,1.1c0,0,0,0,0.1,0c0,0,0.1,0,0.1,0V15c0,0,0,0,0,0c0,0.1-0.1,0.2-0.1,0.3
		c-1.2-0.5-2.5-0.8-3.7-1.1c-0.2-0.1-0.5-0.1-0.7-0.2l-0.1,0c-0.1,0-0.2-0.1-0.3-0.1c0-1.3-0.1-2.5-0.1-3.3c0-0.6-0.1-1-0.1-1.2
		c0,0,0.1-0.1,0.1-0.1c0.5-1.1,1.8-1.1,2.8-1.2c0.6,0,1.1,0,1.1-0.3c0-0.3-0.2-0.5-0.6-0.7V6.3c0-0.1-0.1-0.2-0.2-0.2
		c-0.1,0-0.1,0-0.2,0.1V6c0-0.1-0.1-0.2-0.2-0.2c-0.1,0-0.1,0-0.2,0.1V5.4c0-0.1-0.1-0.2-0.2-0.2c-0.1,0-0.2,0.1-0.2,0.2v1.3
		c-0.6-0.1-1.3-0.2-2-0.2c0,0,0-0.1,0-0.1c0,0,0-0.1,0-0.1c0,0,0,0,0,0c0,0,0-0.1,0-0.1c0,0,0,0,0,0c0,0,0-0.1,0-0.1c0,0,0,0,0,0
		c0,0,0,0,0-0.1c0,0,0,0,0,0c0,0,0,0,0-0.1c0,0,0,0,0-0.1c0,0,0,0-0.1-0.1c0,0,0,0,0,0c0,0,0,0-0.1,0c0,0,0,0,0,0c0,0-0.1,0-0.1-0.1
		c0,0,0,0,0,0c0,0,0,0,0,0c-0.1,0-0.1-0.1-0.2-0.1V5.3c0.1,0,0.1,0,0.1,0c0,0,0,0-0.1,0c0,0,0,0,0,0c0,0,0,0-0.1,0c0,0,0,0,0,0
		c0,0,0,0,0,0c-0.1,0-0.1,0-0.1,0c0,0,0,0,0,0c-0.1,0-0.1,0-0.1,0c0,0,0,0,0.1,0v0.1c0,0-0.1,0-0.1,0c-0.5,0-0.9,0.4-0.9,0.9
		c0,0.1,0,0.1,0,0.2c-0.2,0-0.4,0.1-0.6,0.1c0-1.2,0-0.6-0.1-1.9c-0.1-3.3-0.2-3.3-0.3-3.3c-0.1,0-0.2,0-0.3,3.3
		c0,1.4-0.1,0.8-0.1,2.1C57.1,6.9,57,7,56.8,7V6c0-0.1-0.1-0.2-0.2-0.2c-0.1,0-0.2,0.1-0.2,0.2v1.2C56.1,7.4,56,7.6,56,7.8
		c0,0.3,0.5,0.3,1.1,0.3c1,0,2.3,0.1,2.8,1.2c0,0,0,0.1,0.1,0.1c0,0.2,0,0.6-0.1,1.2c0,0.3,0,0.7,0,1.1c0,0,0,0,0,0l0,0
		c-0.2,0.3-0.4,0.7-0.5,1.1c-0.1,0.5,0.1,0.8,0.4,1.1v8.2c-0.1,0-0.1,0-0.1,0.1c0,0,0,0,0.1,0.1v0.1c-0.2,0-0.2,0.1-0.2,0.1
		s0,0.1,0.2,0.1V23c-0.1,0-0.2,0-0.3,0c-0.7,0-1.4,0.3-1.8,0.8v-3.6c0.9-2.3,1.1-3.6,0.6-4c0,0,0,0,0,0c0,0,0,0,0,0c0,0,0,0,0,0
		c0,0,0,0,0,0c0,0-0.1,0-0.2,0c-1.1-0.2-2.2,0-3.2,0.6v-4.1c0.2-0.1,0.4-0.2,0.6-0.3c0,0,0,0,0,0c0,0,0.1-0.1,0.1-0.1
		c0-0.1,0.1-0.1,0.1-0.2c0-0.1,0.1-0.1,0.1-0.2c0-0.1,0-0.1,0.1-0.2c0,0,0,0,0-0.1c0-0.1,0-0.2,0-0.3c0-0.4-0.2-0.8-0.4-1
		c0,0,0,0,0,0c-0.1-0.1-0.1-0.1-0.2-0.2C55.1,10,55,10,54.8,9.9V8.8c0-0.2-0.2-0.4-0.4-0.4c-0.2,0-0.4,0.2-0.4,0.4v1.1
		C54,10,53.9,10,53.8,10c-0.3,0.1-0.5,0.4-0.6,0.7c0,0,0,0,0,0c0,0,0,0.1-0.1,0.1c0,0,0,0.1,0,0.1c0,0,0,0.1,0,0.1
		c0,0.1,0,0.1,0,0.2c0,0.2,0.1,0.5,0.2,0.7c0,0,0,0.1,0.1,0.1c0.1,0.1,0.2,0.2,0.3,0.3c0,0,0.1,0,0.1,0.1c0.1,0,0.1,0.1,0.2,0.1
		c0.1,0,0.1,0.1,0.2,0.1v4.6c-0.9,0.6-1.8,1.4-2.6,2.3v-1.2v-0.4v-0.6v-0.4v-1h0.2c0.5,0,0.9-0.4,0.9-0.9c0-0.5-0.4-0.9-0.9-0.9
		h-0.2v-3c0-0.8-0.6-1.4-1.4-1.4s-1.4,0.6-1.4,1.4V11h-0.2c-0.5,0-0.9,0.4-0.9,0.9s0.4,0.9,0.9,0.9h0.2v6c-0.4-1.2-0.7-1.9-1.1-2.1
		c-0.1-0.1-0.3-0.1-0.4,0c-0.7,0.3-1.2,2-1.6,3.9c-0.3-0.2-0.6-0.3-0.9-0.5c-0.5-0.3-1-0.5-1.3-0.7c-0.3-0.2-0.7-0.4-1.1-0.6
		c-0.4-0.2-0.8-0.5-1.2-0.7c0-0.6-0.1-1.2-0.1-1.8c0.7-0.4,1.2-0.8,1.5-1.2c0.3-0.4,0.3-0.7,0.2-1c-0.3-0.7-1.7-0.8-1.8-0.8
		c0,0,0,0,0,0c-0.1-2.4-0.1-4.3-0.1-4.8c0,0,0.1,0,0.1-0.1l0.3-0.3c0.1-0.1,0.1-0.1,0.1-0.2V7.9c0.7,0,1.2,0,1.2-0.1
		c0,0-0.5-0.1-1.2-0.1V7.4c0-0.2,0.1-0.5,0.2-0.7c0.9,0,1.6,0,1.6-0.1c0,0-0.6-0.1-1.5-0.1c0.1-0.2,0.3-0.4,0.6-0.4h0.9
		c0.3,0,0.6-0.3,0.6-0.6V5.3c0-0.1-0.1-0.2-0.2-0.2h-0.1V4.8c0-0.1-0.1-0.1-0.1-0.1H43c0,0,0,0,0,0V3.9c0-0.1-0.1-0.1-0.1-0.1h-0.2
		c-0.1,0-0.1,0.1-0.1,0.1v1.3h-0.1V4.8c0-0.1-0.1-0.1-0.1-0.1H42c-0.1,0-0.1,0.1-0.1,0.1v0.3h-0.5V4.8c0-0.1-0.1-0.1-0.1-0.1h-0.4
		c0,0,0,0,0,0V3.9c0-0.1-0.1-0.1-0.1-0.1h-0.2c-0.1,0-0.1,0.1-0.1,0.1v1.3h-0.1V4.8c0-0.1-0.1-0.1-0.1-0.1H40
		c-0.1,0-0.1,0.1-0.1,0.1v0.3h-0.7c0-0.3-0.2-0.5-0.4-0.5c-0.1,0-0.1,0-0.2,0.1c-0.1-0.2-0.2-0.3-0.3-0.3c-0.2,0-0.4,0.3-0.4,0.6
		c-0.1,0-0.2,0.1-0.2,0.2v0.2c0,0.3,0.3,0.6,0.6,0.6h0.9c0.2,0,0.4,0.2,0.6,0.4c-0.9,0-1.5,0-1.5,0.1c0,0,0.6,0.1,1.6,0.1
		C40,6.9,40,7.1,40,7.4v0.4c-0.7,0-1.2,0-1.2,0.1c0,0,0.5,0.1,1.2,0.1V8c0,0.1,0,0.2,0.1,0.2l0.3,0.3c0,0,0.1,0.1,0.1,0.1
		c0,0.6,0,3.3-0.1,6.5c-0.2,0-1.5,0.2-1.8,0.8c-0.1,0.3-0.1,0.6,0.2,1c0.1,0.1,0.2,0.2,0.3,0.3c-0.4,0.2-0.8,0.5-1.1,0.7
		c-0.3,0.2-0.7,0.4-1.1,0.7v-1.4c0-0.4-0.4-0.8-0.8-0.8c-0.4,0-0.8,0.4-0.8,0.8v2.4c-0.2,0.1-0.5,0.3-0.7,0.4
		c-0.1-1.8-0.1-3.6-0.2-5.1c-0.3-5.1-0.5-5.1-0.6-5.1c0,0-0.1,0-0.1,0.1c-0.4,0.9-1,6.3-1.4,12c-0.1,0.1-0.1,0.3-0.1,0.4
		c0,0.2,0,0.3,0.1,0.5c0,0.5-0.1,1-0.1,1.4c-0.1-1.3-0.3-2.5-0.6-2.7c0,0,0,0,0,0c0,0,0,0-0.1,0c-0.4,0-1.2,2.7-1.4,4.6c0,0,0,0,0,0
		c0,0,0,0,0,0h0.6h1h0.4h0.2h0.5h1.2h0.7c0,0,0,0,0,0c0,0,0,0,0,0c0-0.3,0-0.7,0-1c0.2,0.1,0.4,0.2,0.6,0.3v0.7c0,0,0,0,0,0h1.5
		c0,0,0,0,0,0c0,0,0,0,0,0H39c0,0,0,0,0,0c0,0,0,0,0,0c0,0-0.2-0.1-0.5-0.2v-3.6c0-0.4-0.4-0.8-0.8-0.8c-0.3,0-0.6,0.2-0.7,0.5v-1.4
		v-0.2v-0.4v-0.2v-0.9c0.4-0.2,0.8-0.4,1.2-0.7c0.4-0.2,0.9-0.5,1.3-0.7c0.2,0.2,0.5,0.4,0.9,0.6c-0.1,1.2-0.2,2.3-0.3,3.5
		c-0.1,0-0.2,0-0.2,0c0,0-0.1,0-0.1,0c0,0-0.1,0-0.1,0c0,0,0,0,0,0c0,0,0,0,0,0c-0.1,0.2,0,0.7,0.3,1.2c-0.1,1.2-0.3,2.4-0.5,3.4
		c0,0,0,0,0,0c0,0,0,0,0,0h1.5h1.2h2.3c0,0,0,0,0,0h0.4H45h0.7h1h0.1h2h0.5h0.8h1.3h0.1h1.6h3.5h1.1H68c0,0,0,0,0.1,0h2.1h2.4
		c0,0,0,0,0,0h1.3h1.4c0,0,0,0,0,0c0-0.1,0.1-0.3,0.1-0.4C75.4,24.9,74.7,24.2,73.9,24.2z M35.3,24.3c-0.2-0.1-0.4-0.2-0.6-0.4
		c0-1.1-0.1-2.3-0.1-3.4c0.2-0.1,0.3-0.3,0.5-0.4c0.1,0,0.1-0.1,0.2-0.1V24.3z M40.3,17.6c-0.2-0.1-0.4-0.3-0.6-0.4
		c0.2-0.1,0.4-0.2,0.6-0.4C40.3,17.1,40.3,17.4,40.3,17.6z M40.4,16.5c-0.3,0.2-0.6,0.4-0.8,0.5c0,0,0,0,0,0c-0.3-0.2-0.6-0.6-0.6-1
		c0.1-0.4,0.6-0.7,1.5-0.9C40.4,15.6,40.4,16.1,40.4,16.5z M41,13.5c0.9,0.2,1.5,0.5,1.5,0.9c0.1,0.3-0.1,0.6-0.6,1
		c-0.3,0.2-0.6,0.5-0.9,0.7C41,15.2,41,14.3,41,13.5z M45.1,24.2c-0.9-0.9-2.2-1.9-3.6-2.4c-0.1-1-0.2-2.1-0.3-3.2
		c0.6,0.4,1.4,0.8,2.1,1.2c0.8,0.4,1.5,0.9,2.3,1.3C45.4,22.1,45.2,23.2,45.1,24.2z M59.8,13.6c-0.1-0.1-0.2-0.2-0.2-0.3
		c-0.2-0.4-0.1-0.9,0.3-1.4C59.8,12.4,59.8,13,59.8,13.6z M65.4,15.4C65.4,15.4,65.3,15.4,65.4,15.4c-0.1-0.1,0-0.1,0-0.2V15.4z
		 M65.4,14.6c-0.1,0.1-0.1,0.1-0.2,0c-0.1-0.1-0.1-0.4,0.2-0.9V14.6z M66.3,14.1c0.1,0,0.1,0.2,0,0.4c0,0.1-0.1,0.2-0.1,0.3
		L66.3,14.1C66.3,14.1,66.3,14.1,66.3,14.1z M66.2,12.6C66.3,12.6,66.3,12.6,66.2,12.6c0.1,0,0.1,0.1,0.1,0.1c0,0.1,0,0.1,0,0.2
		c0,0.1-0.1,0.2-0.1,0.3v-0.5V12.6z M70.7,23.2c-0.1,0-0.2,0-0.3,0c0-0.2,0.1-0.3,0.1-0.5c0,0,0.1,0,0.2,0V23.2z M70.7,22.5
		c-0.1,0-0.1,0-0.2,0c0,0,0-0.1,0-0.1C70.6,22.4,70.7,22.4,70.7,22.5L70.7,22.5z"/>
	<ellipse fill="#DB3B21" cx="40.7" cy="6.6" rx="2.5" ry="0.1"/>
	<ellipse fill="#7DCAFA" cx="40.7" cy="7.9" rx="1.9" ry="0.1"/>
	<linearGradient id="cloudcity1_SVGID_7_" gradientUnits="userSpaceOnUse" x1="56.9867" y1="33.001" x2="56.9867" y2="17.3058">
		<stop  offset="0" style="stop-color:#1D083F"/>
		<stop  offset="0.3198" style="stop-color:#331C67"/>
		<stop  offset="0.7758" style="stop-color:#51379B"/>
		<stop  offset="0.9995" style="stop-color:#5C41AF"/>
	</linearGradient>
	<path opacity="0.8" id="cc1-cloud-mid-right" fill="url(#cloudcity1_SVGID_7_)" d="M73.3,25.5c-0.4,0-0.7,0-1.1,0.1c-0.4-1.6-1.8-2.8-3.6-2.8c-0.6,0-1.2,0.2-1.8,0.5
		c-0.4-3.4-3-6-6.1-6c-3.1,0-5.7,2.6-6.1,5.9c-1.2-0.5-2.7-0.8-4.4-0.8c-3.7,0-6.7,1.5-6.9,3.5C39,27.5,35.9,30.1,35,33h43.5
		c0.3-0.7,0.5-1.4,0.5-2.2C79,27.9,76.5,25.5,73.3,25.5z"/>
	<linearGradient id="cloudcity1_SVGID_8_" gradientUnits="userSpaceOnUse" x1="30.5478" y1="39.8128" x2="30.5478" y2="21.661">
		<stop  offset="0" style="stop-color:#1D083F"/>
		<stop  offset="0.3198" style="stop-color:#331C67"/>
		<stop  offset="0.7758" style="stop-color:#51379B"/>
		<stop  offset="0.9995" style="stop-color:#5C41AF"/>
	</linearGradient>
	<path id="cc1-cloud-bottom-left" fill="url(#cloudcity1_SVGID_8_)" d="M58,36.5c-0.2,0-0.4,0-0.7,0.1c-0.4-0.8-1.7-1.5-3.4-2c-0.3-1-1.7-1.7-3.4-1.7
		c-1.4,0-2.6,0.5-3.2,1.2c-0.7,0.1-1.4,0.2-2,0.3c-0.3-1.7-1.8-3-3.6-3c-0.6,0-1.2,0.2-1.7,0.4c0.4-0.6,0.6-1.4,0.6-2.2
		c0-2.3-1.9-4.2-4.2-4.2c-1,0-1.8,0.3-2.5,0.9c-0.1-2.6-2.2-4.7-4.9-4.7c-2.7,0-4.9,2.2-4.9,4.9c-0.4-0.1-0.8-0.2-1.2-0.2
		c-2.1,0-3.8,1.7-3.8,3.8c0,0.6,0.2,1.2,0.4,1.8c-0.5-0.3-1.1-0.5-1.8-0.5c-1.9,0-3.5,1.5-3.6,3.4c-1.1-0.4-2.4-0.6-3.7-0.7
		c-0.5-0.7-1.7-1.2-3-1.2c-1.9,0-3.4,0.9-3.4,2.1c0,0.1,0,0.1,0,0.2c-2.1,1-3.5,2.4-3.5,4.1c0,0.2,0,0.3,0,0.5h36.4h7.2h9.5h1.8h4.5
		c0.1-0.3,0.2-0.6,0.2-0.9C60.4,37.6,59.3,36.5,58,36.5z"/>
</g>
</svg>
