<?xml version="1.0" encoding="utf-8"?>
<!-- Generator: Adobe Illustrator 23.1.1, SVG Export Plug-In . SVG Version: 6.00 Build 0)  -->
<svg version="1.1" id="Layer_1" xmlns="http://www.w3.org/2000/svg" xmlns:xlink="http://www.w3.org/1999/xlink" x="0px" y="0px"
	 viewBox="0 0 660 434" enable-background="new 0 0 660 434" xml:space="preserve">
<linearGradient id="SVGID_1_" gradientUnits="userSpaceOnUse" x1="301.9235" y1="145.171" x2="300.9607" y2="11.34">
	<stop  offset="0" style="stop-color:#1D083F"/>
	<stop  offset="0.3198" style="stop-color:#331C67"/>
	<stop  offset="0.7758" style="stop-color:#51379B"/>
	<stop  offset="0.9995" style="stop-color:#5C41AF"/>
</linearGradient>
<path opacity="0.8" fill="url(#SVGID_1_)" d="M511.4,72.1c-2.2,0-4.3,0.1-6.4,0.2c-3.6-5.2-14.9-9-28.3-9c-11.7,0-21.8,2.9-26.6,7.1
	c-6,0.4-11.8,0.9-17.1,1.7c-2.5-10.1-15-17.8-30.1-17.8c-5.5,0-10.6,1-15.1,2.8c-1.1-3.7-3.3-7.2-6.3-10.5c4.1-4.5,6.4-9.7,6.4-15.2
	c0-17.1-22.1-30.9-49.4-30.9c-21.2,0-39.3,8.3-46.3,20.1c-5.8-1.1-12-1.7-18.5-1.7c-32.2,0-58.3,14.7-58.3,32.9
	c0,1.6,0.2,3.3,0.6,4.8c-4.1-1.5-8.8-2.3-13.7-2.3c-16.2,0-29.4,8.8-30.5,20c-9.4-2.2-20-3.6-31.4-4c-4.6-4.1-14.2-7-25.3-7
	c-15.6,0-28.2,5.6-28.2,12.5c0,0.2,0,0.5,0.1,0.7c-1.5-0.1-2.9-0.1-4.4-0.1c-29.1,0-52.7,16.6-52.7,37.1c0,20.5,23.6,37.1,52.7,37.1
	c22.6,0,41.8-10,49.3-24.1c4.9,2.5,11,4,17.6,4c7.7,0,14.8-2.1,20.1-5.5c4.5,13,21.2,22.6,41,22.6c22.5,0,40.8-12.4,42.1-28
	c12.9,4.2,31.5,6.8,52.2,6.8c27.2,0,50.8-4.6,62.7-11.2c5,11.5,25.6,20.1,50.2,20.1c20.6,0,38.4-6,46.5-14.7
	c11.3,6.3,28.2,10.3,46.9,10.3c34.2,0,61.9-13.2,61.9-29.5C573.2,85.3,545.5,72.1,511.4,72.1z"/>
<linearGradient id="SVGID_2_" gradientUnits="userSpaceOnUse" x1="291.9205" y1="299.1951" x2="291.9205" y2="122.2001">
	<stop  offset="0" style="stop-color:#1D083F"/>
	<stop  offset="0.3198" style="stop-color:#331C67"/>
	<stop  offset="0.7758" style="stop-color:#51379B"/>
	<stop  offset="0.9995" style="stop-color:#5C41AF"/>
</linearGradient>
<path fill="url(#SVGID_2_)" d="M559.4,266.9c-2.2,0-4.4,0.3-6.4,0.9c-4.3-7.9-16.5-14.6-33.4-19.1c-3.2-9.4-16.9-16.4-33.5-16.4
	c-13.6,0-25.3,4.8-30.8,11.7c-7,0.6-13.6,1.5-19.8,2.7c-2.9-16.7-17.4-29.3-34.9-29.3c-6.1,0-11.8,1.6-16.8,4.2
	c3.8-6.2,6-13.4,6-21.2c0-22.4-18.1-40.5-40.5-40.5c-9.3,0-17.9,3.2-24.7,8.5c-0.9-25.6-21.9-46.1-47.8-46.1
	c-26.4,0-47.7,21.3-47.8,47.7c-3.6-1.2-7.4-1.8-11.4-1.8c-20.2,0-36.6,16.4-36.6,36.6c0,6.2,1.5,12,4.3,17.1
	c-5.1-2.8-10.9-4.4-17.1-4.4c-18.7,0-34.1,14.5-35.4,32.9c-10.9-3.6-23.2-5.9-36.4-6.5c-5.3-6.8-16.5-11.5-29.3-11.5
	c-18,0-32.7,9.2-32.7,20.5c0,0.5,0,1,0.1,1.6C14,263.7,0.8,278.1,0.8,294.3c0,1.6,0.1,3.3,0.4,4.9h354.8h70.5h93h17.8h43.9
	c1.1-2.7,1.7-5.6,1.7-8.7C583,277.4,572.4,266.9,559.4,266.9z"/>
<linearGradient id="SVGID_3_" gradientUnits="userSpaceOnUse" x1="367.6936" y1="432.7419" x2="367.6936" y2="207.0674">
	<stop  offset="0" style="stop-color:#1D083F"/>
	<stop  offset="0.3198" style="stop-color:#331C67"/>
	<stop  offset="0.7758" style="stop-color:#51379B"/>
	<stop  offset="0.9995" style="stop-color:#5C41AF"/>
</linearGradient>
<path opacity="0.8" fill="url(#SVGID_3_)" d="M658.8,333.8c0-13.1-10.6-23.6-23.6-23.6c-2.2,0-4.4,0.3-6.4,0.9
	c-4.3-7.9-16.5-14.6-33.4-19.1c-3.2-9.4-16.9-16.4-33.5-16.4c-13.6,0-25.3,4.8-30.8,11.7c-7,0.6-13.6,1.5-19.8,2.7
	c-2.9-16.7-17.4-29.3-34.9-29.3c-6.3,0-12.3,1.7-17.5,4.6c-5-23.1-26.9-42.4-56.9-51.8c0,0-14-6.4-40.9-6.4
	c-30.5,0-42.7,6.4-42.7,6.4c-30,9.4-52,28.8-56.9,51.8c-5.2-2.9-11.1-4.6-17.5-4.6c-18.7,0-34.1,14.5-35.4,32.9
	c-10.9-3.6-23.2-5.9-36.4-6.5c-5.3-6.8-16.4-11.5-29.3-11.5c-18,0-32.7,9.2-32.7,20.6c0,0.5,0,1,0.1,1.6
	c-20.5,9.3-33.7,23.7-33.7,39.9c0,0.3,0,0.6,0,0.8c0,0.2,0,0.5,0,0.7c0,13.1,4.1,63.3,96.9,58.2c13.6-0.7,25.3-4.8,30.8-11.7
	c7-0.6,13.6-1.5,19.8-2.7c2.9,16.7,17.4,29.3,34.9,29.3c6.3,0,12.3-1.7,17.5-4.6c5,23.1,36.7,28,59.3,23.5
	c30.9-6,36.3-30.4,36.3-30.4c5.2,2.9,207.6-3.4,220.4-3.4c18,0,32.7-9.2,32.7-20.6c0-0.5,0-1-0.1-1.6c20.5-9.3,33.7-23.7,33.7-39.9
	c0-0.3,0-0.6,0-0.8C658.8,334.3,658.8,334.1,658.8,333.8z"/>
</svg>
