<?xml version="1.0" encoding="utf-8"?>
<!-- Generator: Adobe Illustrator 23.1.1, SVG Export Plug-In . SVG Version: 6.00 Build 0)  -->
<svg version="1.1" id="Layer_1" xmlns="http://www.w3.org/2000/svg" xmlns:xlink="http://www.w3.org/1999/xlink" x="0px" y="0px"
	 viewBox="0 0 984 528" enable-background="new 0 0 984 528" xml:space="preserve">
<linearGradient id="SVGID_1_" gradientUnits="userSpaceOnUse" x1="700.0499" y1="145.8071" x2="699.087" y2="11.9761">
	<stop  offset="0" style="stop-color:#1D083F"/>
	<stop  offset="0.3198" style="stop-color:#331C67"/>
	<stop  offset="0.7758" style="stop-color:#51379B"/>
	<stop  offset="0.9995" style="stop-color:#5C41AF"/>
</linearGradient>
<path opacity="0.8" fill="url(#SVGID_1_)" d="M909.5,72.8c-2.2,0-4.3,0.1-6.4,0.2c-3.6-5.2-14.9-9-28.3-9c-11.7,0-21.8,2.9-26.6,7.1
	c-6,0.4-11.8,0.9-17.1,1.7c-2.5-10.1-15-17.8-30.1-17.8c-5.5,0-10.6,1-15.1,2.8c-1.1-3.7-3.3-7.2-6.3-10.5c4.1-4.5,6.4-9.7,6.4-15.2
	c0-17.1-22.1-30.9-49.4-30.9c-21.2,0-39.3,8.3-46.3,20.1c-5.8-1.1-12-1.7-18.5-1.7c-32.2,0-58.3,14.7-58.3,32.9
	c0,1.6,0.2,3.3,0.6,4.8c-4.1-1.5-8.8-2.3-13.7-2.3c-16.2,0-29.4,8.8-30.5,20c-9.4-2.2-20-3.6-31.4-4c-4.6-4.1-14.2-7-25.3-7
	c-15.6,0-28.2,5.6-28.2,12.5c0,0.2,0,0.5,0.1,0.7c-1.5-0.1-2.9-0.1-4.4-0.1c-29.1,0-52.7,16.6-52.7,37.1c0,20.5,23.6,37.1,52.7,37.1
	c22.6,0,41.8-10,49.3-24.1c4.9,2.5,11,4,17.6,4c7.7,0,14.8-2.1,20.1-5.5c4.5,13,21.2,22.6,41,22.6c22.5,0,40.8-12.4,42.1-28
	c12.9,4.2,31.5,6.8,52.2,6.8c27.2,0,50.8-4.6,62.7-11.2c5,11.5,25.6,20.1,50.2,20.1c20.6,0,38.4-6,46.5-14.7
	c11.3,6.3,28.2,10.3,46.9,10.3c34.2,0,61.9-13.2,61.9-29.5C971.4,85.9,943.7,72.8,909.5,72.8z"/>
<linearGradient id="SVGID_2_" gradientUnits="userSpaceOnUse" x1="291.6326" y1="191.0286" x2="291.6326" y2="14.0336">
	<stop  offset="0" style="stop-color:#1D083F"/>
	<stop  offset="0.3198" style="stop-color:#331C67"/>
	<stop  offset="0.7758" style="stop-color:#51379B"/>
	<stop  offset="0.9995" style="stop-color:#5C41AF"/>
</linearGradient>
<path fill="url(#SVGID_2_)" d="M559.1,158.7c-2.2,0-4.4,0.3-6.4,0.9c-4.3-7.9-16.5-14.6-33.4-19.1c-3.2-9.4-16.9-16.4-33.5-16.4
	c-13.6,0-25.3,4.8-30.8,11.7c-7,0.6-13.6,1.5-19.8,2.7c-2.9-16.7-17.4-29.3-34.9-29.3c-6.1,0-11.8,1.6-16.8,4.2
	c3.8-6.2,6-13.4,6-21.2c0-22.4-18.1-40.5-40.5-40.5c-9.3,0-17.9,3.2-24.7,8.5C323.4,34.5,302.4,14,276.5,14
	c-26.4,0-47.7,21.3-47.8,47.7c-3.6-1.2-7.4-1.8-11.4-1.8c-20.2,0-36.6,16.4-36.6,36.6c0,6.2,1.5,12,4.3,17.1
	c-5.1-2.8-10.9-4.4-17.1-4.4c-18.7,0-34.1,14.5-35.4,32.9c-10.9-3.6-23.2-5.9-36.4-6.5c-5.3-6.8-16.5-11.5-29.3-11.5
	c-18,0-32.7,9.2-32.7,20.5c0,0.5,0,1,0.1,1.6c-20.5,9.3-33.7,23.7-33.7,39.9c0,1.6,0.1,3.3,0.4,4.9h354.8h70.5h93h17.8h43.9
	c1.1-2.7,1.7-5.6,1.7-8.7C582.7,169.3,572.1,158.7,559.1,158.7z"/>
<linearGradient id="SVGID_3_" gradientUnits="userSpaceOnUse" x1="486.4691" y1="303.8658" x2="486.4691" y2="78.1914">
	<stop  offset="0" style="stop-color:#1D083F"/>
	<stop  offset="0.3198" style="stop-color:#331C67"/>
	<stop  offset="0.7758" style="stop-color:#51379B"/>
	<stop  offset="0.9995" style="stop-color:#5C41AF"/>
</linearGradient>
<path opacity="0.8" fill="url(#SVGID_3_)" d="M777.6,204.9c0-13.1-10.6-23.6-23.6-23.6c-2.2,0-4.4,0.3-6.4,0.9
	c-4.3-7.9-16.5-14.6-33.4-19.1c-3.2-9.4-16.9-16.4-33.5-16.4c-13.6,0-25.3,4.8-30.8,11.7c-7,0.6-13.6,1.5-19.8,2.7
	c-2.9-16.7-17.4-29.3-34.9-29.3c-6.3,0-12.3,1.7-17.5,4.6c-5-23.1-26.9-42.4-56.9-51.8c0,0-14-6.4-40.9-6.4
	c-30.5,0-42.7,6.4-42.7,6.4c-30,9.4-52,28.8-56.9,51.8c-5.2-2.9-11.1-4.6-17.5-4.6c-18.7,0-34.1,14.5-35.4,32.9
	c-10.9-3.6-23.2-5.9-36.4-6.5c-5.3-6.8-16.4-11.5-29.3-11.5c-18,0-32.7,9.2-32.7,20.6c0,0.5,0,1,0.1,1.6
	c-20.5,9.3-33.7,23.7-33.7,39.9c0,0.3,0,0.6,0,0.8c0,0.2,0,0.5,0,0.7c0,13.1,4.1,63.3,96.9,58.2c13.6-0.7,25.3-4.8,30.8-11.7
	c7-0.6,13.6-1.5,19.8-2.7c2.9,16.7,17.4,29.3,34.9,29.3c6.3,0,12.3-1.7,17.5-4.6c5,23.1,36.7,28,59.3,23.5
	c30.9-6,36.3-30.4,36.3-30.4c5.2,2.9,207.6-3.4,220.4-3.4c18,0,32.7-9.2,32.7-20.6c0-0.5,0-1-0.1-1.6c20.5-9.3,33.7-23.7,33.7-39.9
	c0-0.3,0-0.6,0-0.8C777.5,205.4,777.6,205.2,777.6,204.9z"/>
<linearGradient id="SVGID_4_" gradientUnits="userSpaceOnUse" x1="727.4024" y1="330.1423" x2="727.4024" y2="147.9912">
	<stop  offset="0" style="stop-color:#1D083F"/>
	<stop  offset="0.3198" style="stop-color:#331C67"/>
	<stop  offset="0.7758" style="stop-color:#51379B"/>
	<stop  offset="0.9995" style="stop-color:#5C41AF"/>
</linearGradient>
<path opacity="0.8" fill="url(#SVGID_4_)" d="M917.3,243.4c-4.4,0-8.7,0.4-12.8,1.2c-4.5-18.7-21.3-32.5-41.3-32.5
	c-7.4,0-14.4,1.9-20.4,5.2c-5.2-39.2-35.1-69.3-71.3-69.3c-35.9,0-65.7,29.6-71.2,68.4c-13.9-6-31.6-9.6-50.9-9.6
	c-42.9,0-77.9,17.8-80.2,40.1c-50.6,19.9-86.3,49.4-97.1,83.2h504.7c4-7.9,6.3-16.7,6.3-26C982.9,270.6,953.5,243.4,917.3,243.4z"/>
<linearGradient id="SVGID_5_" gradientUnits="userSpaceOnUse" x1="412.953" y1="440.0861" x2="411.3643" y2="219.264">
	<stop  offset="0" style="stop-color:#1D083F"/>
	<stop  offset="0.3198" style="stop-color:#331C67"/>
	<stop  offset="0.7758" style="stop-color:#51379B"/>
	<stop  offset="0.9995" style="stop-color:#5C41AF"/>
</linearGradient>
<path opacity="0.8" fill="url(#SVGID_5_)" d="M655.7,319.2c-2.5,0-5,0.1-7.4,0.3c-4.1-8.5-17.2-14.8-32.8-14.8
	c-13.6,0-25.3,4.8-30.8,11.7c-7,0.6-13.6,1.5-19.8,2.7c-2.9-16.7-17.4-29.3-34.9-29.3c-6.3,0-12.3,1.7-17.5,4.6
	c-1.3-6-3.8-11.8-7.3-17.2c4.7-7.4,7.4-15.9,7.4-25c0-28.1-25.6-50.8-57.3-50.8c-24.6,0-45.5,13.7-53.6,33c-6.7-1.8-14-2.8-21.5-2.8
	c-37.3,0-67.5,24.2-67.5,54c0,2.7,0.3,5.4,0.7,8c-4.8-2.4-10.2-3.8-15.9-3.8c-18.7,0-34.1,14.5-35.4,32.9
	c-10.9-3.6-23.2-5.9-36.4-6.5c-5.3-6.8-16.4-11.5-29.3-11.5c-18,0-32.7,9.2-32.7,20.6c0,0.4,0,0.8,0.1,1.2c-1.7-0.1-3.4-0.2-5.2-0.2
	c-33.7,0-61.1,27.3-61.1,61.1c0,33.7,27.3,61.1,61.1,61.1c26.2,0,48.5-16.5,57.2-39.6c5.7,4.1,12.8,6.6,20.4,6.6
	c9,0,17.1-3.4,23.3-9c5.3,21.4,24.5,37.2,47.5,37.2c26,0,47.3-20.3,48.9-46c15,6.9,36.6,11.2,60.5,11.2c31.5,0,58.9-7.5,72.7-18.5
	c5.8,18.9,29.6,33,58.2,33c23.9,0,44.5-9.9,54-24.1c13.2,10.3,32.6,16.9,54.4,16.9c39.6,0,71.7-21.7,71.7-48.4
	C727.4,340.9,695.3,319.2,655.7,319.2z"/>
<linearGradient id="SVGID_6_" gradientUnits="userSpaceOnUse" x1="552.6565" y1="527.1236" x2="552.6565" y2="322.9296">
	<stop  offset="0" style="stop-color:#1D083F"/>
	<stop  offset="0.3198" style="stop-color:#331C67"/>
	<stop  offset="0.7758" style="stop-color:#51379B"/>
	<stop  offset="0.9995" style="stop-color:#5C41AF"/>
</linearGradient>
<path opacity="0.8" fill="url(#SVGID_6_)" d="M765.5,429.9c-4.9,0-9.7,0.5-14.4,1.3c-5-20.9-23.8-36.5-46.3-36.5
	c-8.3,0-16.1,2.1-22.9,5.9c-5.8-44-39.4-77.7-79.9-77.7c-40.2,0-73.6,33.2-79.8,76.7c-15.5-6.7-35.4-10.8-57.1-10.8
	c-48.1,0-87.4,19.9-90,45c-56.7,22.4-96.7,55.4-108.9,93.3H832c4.5-8.8,7.1-18.7,7.1-29.1C839,460.4,806.1,429.9,765.5,429.9z"/>
</svg>
