<svg enable-background="new 0 0 280 150" viewBox="0 0 280 150" xmlns="http://www.w3.org/2000/svg" xmlns:xlink="http://www.w3.org/1999/xlink"><linearGradient id="a"><stop offset="0" stop-color="#1d083f"/><stop offset=".3198" stop-color="#331c67"/><stop offset=".7758" stop-color="#51379b"/><stop offset=".9995" stop-color="#5c41af"/></linearGradient><linearGradient id="b" gradientUnits="userSpaceOnUse" x1="85.0935" x2="85.0935" xlink:href="#a" y1="76.0089" y2="26.9061"/><linearGradient id="c" gradientUnits="userSpaceOnUse" x1="137.9585" x2="137.9585" xlink:href="#a" y1="107.3127" y2="44.7051"/><linearGradient id="d" gradientUnits="userSpaceOnUse" x1="172.9917" x2="172.9917" xlink:href="#a" y1="83.5529" y2="19.0037"/><linearGradient id="e" gradientUnits="userSpaceOnUse" x1="173.3584" x2="173.3584" xlink:href="#a" y1="83.5529" y2="19.0037"/><linearGradient id="f" gradientUnits="userSpaceOnUse" x1="170.7789" x2="170.7789" xlink:href="#a" y1="83.5529" y2="19.0037"/><linearGradient id="g" gradientUnits="userSpaceOnUse" x1="166.6966" x2="166.6966" xlink:href="#a" y1="83.5529" y2="19.0037"/><linearGradient id="h" gradientUnits="userSpaceOnUse" x1="178.9476" x2="178.9476" xlink:href="#a" y1="83.5529" y2="19.0037"/><linearGradient id="i" gradientUnits="userSpaceOnUse" x1="174.6108" x2="174.6108" xlink:href="#a" y1="83.5529" y2="19.0037"/><linearGradient id="j" gradientUnits="userSpaceOnUse" x1="168.998" x2="168.998" xlink:href="#a" y1="83.5529" y2="19.0037"/><linearGradient id="k" gradientUnits="userSpaceOnUse" x1="174.3793" x2="174.3793" xlink:href="#a" y1="83.5529" y2="19.0037"/><linearGradient id="l" gradientUnits="userSpaceOnUse" x1="169.0878" x2="169.0878" xlink:href="#a" y1="83.5529" y2="19.0037"/><linearGradient id="m" gradientUnits="userSpaceOnUse" x1="225.772" x2="225.772" xlink:href="#a" y1="83.5529" y2="19.0037"/><linearGradient id="n" gradientUnits="userSpaceOnUse" x1="230.72" x2="230.72" xlink:href="#a" y1="83.5529" y2="19.0037"/><linearGradient id="o" gradientUnits="userSpaceOnUse" x1="235.3994" x2="235.3994" xlink:href="#a" y1="83.5529" y2="19.0037"/><linearGradient id="p" gradientUnits="userSpaceOnUse" x1="224.0496" x2="224.0496" xlink:href="#a" y1="83.5529" y2="19.0037"/><linearGradient id="q" gradientUnits="userSpaceOnUse" x1="227.8119" x2="227.8119" xlink:href="#a" y1="83.5529" y2="19.0037"/><linearGradient id="r" gradientUnits="userSpaceOnUse" x1="231.1377" x2="231.1377" xlink:href="#a" y1="83.5529" y2="19.0037"/><linearGradient id="s" gradientUnits="userSpaceOnUse" x1="234.7651" x2="234.7651" xlink:href="#a" y1="83.5529" y2="19.0037"/><linearGradient id="t" gradientUnits="userSpaceOnUse" x1="225.1687" x2="225.1687" xlink:href="#a" y1="83.5529" y2="19.0037"/><linearGradient id="u" gradientUnits="userSpaceOnUse" x1="229.3497" x2="229.3497" xlink:href="#a" y1="83.5529" y2="19.0037"/><linearGradient id="v" gradientUnits="userSpaceOnUse" x1="232.2849" x2="232.2849" xlink:href="#a" y1="83.5529" y2="19.0037"/><linearGradient id="w" gradientUnits="userSpaceOnUse" x1="234.888" x2="234.888" xlink:href="#a" y1="83.5529" y2="19.0037"/><linearGradient id="x" gradientUnits="userSpaceOnUse" x1="205.9867" x2="205.9867" xlink:href="#a" y1="114.6025" y2="64.0693"/><linearGradient id="y" gradientUnits="userSpaceOnUse" x1="118.7507" x2="118.31" xlink:href="#a" y1="145.1036" y2="83.8421"/><path id="cc2-cloud-top-left" d="m159.3 67c-.6 0-1.2.1-1.8.2-1.2-2.2-4.6-4.1-9.3-5.3-.9-2.6-4.7-4.6-9.3-4.6-3.8 0-7 1.3-8.6 3.2-1.9.2-3.8.4-5.5.8-.8-4.6-4.8-8.1-9.7-8.1-1.7 0-3.3.4-4.7 1.2 1.1-1.7 1.7-3.7 1.7-5.9 0-6.2-5-11.2-11.2-11.2-2.6 0-5 .9-6.9 2.3-.2-7.1-6.1-12.8-13.2-12.8-7.3 0-13.2 5.9-13.3 13.2-1-.3-2.1-.5-3.2-.5-5.6 0-10.2 4.5-10.2 10.2 0 1.7.4 3.3 1.2 4.7-1.4-.8-3-1.2-4.7-1.2-5.2 0-9.4 4-9.8 9.1-3-1-6.4-1.6-10.1-1.8-1.5-1.9-4.6-3.2-8.1-3.2-5 0-9.1 2.6-9.1 5.7v.4c-5.5 2.8-9.2 6.8-9.2 11.3 0 .5 0 .9.1 1.4h98.4 19.6 25.8 4.9 12.2c.3-.7.5-1.6.5-2.4 0-3.7-2.9-6.7-6.5-6.7z" fill="url(#b)"/><path id="cc2-cloud-mid-left" d="m218.7 79.9c0-3.6-2.9-6.6-6.6-6.6-.6 0-1.2.1-1.8.2-1.2-2.2-4.6-4.1-9.3-5.3-.9-2.6-4.7-4.6-9.3-4.6-3.8 0-7 1.3-8.6 3.2-1.9.2-3.8.4-5.5.8-.8-4.6-4.8-8.1-9.7-8.1-1.8 0-3.4.5-4.8 1.3-1.4-6.4-7.5-11.8-15.8-14.4 0 0-3.9-1.8-11.4-1.8-8.5 0-11.8 1.8-11.8 1.8-8.3 2.6-14.4 8-15.8 14.4-1.4-.8-3.1-1.3-4.8-1.3-5.2 0-9.4 4-9.8 9.1-3-1-6.4-1.6-10.1-1.8-1.5-1.9-4.6-3.2-8.1-3.2-5 0-9.1 2.6-9.1 5.7v.4c-5.7 2.6-9.3 6.6-9.3 11.1v.2.2c0 3.6 1.1 17.5 26.9 16.2 3.8-.2 7-1.3 8.6-3.2 1.9-.2 3.8-.4 5.5-.8.8 4.6 4.8 8.1 9.7 8.1 1.8 0 3.4-.5 4.8-1.3 1.4 6.4 10.2 7.8 16.4 6.5 8.6-1.7 10.1-8.4 10.1-8.4 1.4.8 57.6-.9 61.1-.9 5 0 9.1-2.6 9.1-5.7 0-.1 0-.3 0-.4 5.7-2.6 9.3-6.6 9.3-11.1 0-.1 0-.2 0-.2.1 0 .1-.1.1-.1z" fill="url(#c)" opacity=".8"/><path d="m157.3 29.8 5.9 2.1h.1.2c.1 0 .2-.1.2-.3l.1-.3h.1.1c.1 0 .1-.1.2-.2l.1-.2c.1-.4.3-.7.6-.8.2-.1.5-.1.9 0s.7-.3.8-.5.1-.4.1-.5-.1-.2-.3-.3c0 0-.9-.3-1.5-.5l.1-.2c.1-.3 0-.5-.3-.6l-.5-.2c-.1 0-.3 0-.4 0-.1.1-.2.2-.2.3-.2-.1-.4-.2-.6-.3-1.6-.6-3.4-.3-4.5.6-.5.1-.9.3-1.1.8v.1.1.1l-.1.3c-.3.1-.2.3 0 .5z" fill="#db3b21"/><path d="m245.3 91.7c-.3 0-.6 0-.8.1v-1.1c.7 0 .8-.1.8-.2 0 0 0-.1-.8-.2v-.2c.6 0 .6-.1.6-.2 0 0 0-.1-.6-.2v-.1c0-.1-.1-.2-.2-.2s-.2.1-.2.2v.1c-.6 0-.6.1-.6.2 0 0 0 .1.6.2v.2c-.7 0-.8.1-.8.2 0 0 0 .1.8.2v1.2c-.4.1-.8.2-1.2.4v-16.3c0-.9-.8-1.7-1.7-1.7s-1.7.8-1.7 1.7v14.8c-.4-.4-.8-.7-1.2-1 0 0-.1 0-.1-.1-.2-.1-.3-.2-.5-.3-.1 0-.1-.1-.2-.1h-.1c-.5-.3-1.1-.5-1.7-.6v-1.7c1.1 0 1.1-.2 1.1-.2 0-.1 0-.2-1.1-.2v-.2c.8 0 .8-.2.8-.2s0-.2-.8-.2v-.1c0-.1-.1-.3-.2-.3s-.3.1-.3.3v.1c-.2 0-.4 0-.5 0 .5-6-2.2-12.1-6.2-16-1.3-1.3-2.9-2.5-4.5-3.5-1.1-.7-2.3-1.3-3.5-1.8v-2.7c.6-1.4.9-2.7.4-3-.1-.1-.2-.1-.4 0v-1.8c.6-1.4.9-2.7.4-3-.1-.1-.2-.1-.4 0v-1.9h6.7c.1 0 .1 0 .1-.1v-1.5c0-.1 0-.1-.1-.1h-1.5c-.6-1.8-3.2-3.1-6.3-3.2v-6.8c0-.1-.1-.3-.3-.3-.1 0-.3.1-.3.3v6.8c-.2 0-.4 0-.5 0v-4.6c0-.1-.1-.3-.3-.3s-.3.1-.3.3v4.6c-2.6.3-4.7 1.5-5.3 3.1h-1.5c-.1 0-.1 0-.1.1v1.5c0 .1 0 .1.1.1h6.7v5.1c-.8 1.5-1.3 3.2-.7 3.6.1 0 .2.1.2.1.1 0 .3-.1.5-.1v1.3c-.2.3-.3.6-.4.9-3.9-1.5-8-2.5-12-3.5-.8-.2-1.6-.4-2.4-.6l-.4-.1c-.3-.1-.6-.2-.9-.3-.1-4.2-.2-8-.4-10.8 0-.3 0-.5 0-.8 1.5-3.3 5.4-6.3 8.5-8.7 2.4-1.8 4.2-3.3 4.2-4.3 0-.6-.4-1.2-1.1-1.8.7-.7 1.1-1.2 1.1-1.7 0-.9-.7-1.7-2-2.3v-2.6c0-.4-.3-.7-.7-.7-.2 0-.4.1-.5.2v-.4c0-.4-.3-.7-.7-.7-.2 0-.4.1-.5.2v-1.6c0-.4-.3-.7-.7-.7s-.7.3-.7.7v4.3c-1.6-.4-3.4-.6-5.4-.7.5-1.3.9-2.5 1.2-3.7.7-3 .5-5-.5-5.6-1.8-1-5.7 2.1-9.6 7.8-.1-3.5-.1-7.6-.3-11.2-.3-10.5-.6-10.5-.8-10.5s-.5 0-.8 10.5c-.1 4.5-.3 9.8-.3 13.8-.5.2-1 .3-1.4.5v-3.1c0-.4-.3-.7-.7-.7s-.7.3-.7.7v3.9c-.8.6-1.3 1.2-1.3 1.9 0 .5.4 1 1.1 1.7-.7.5-1.1 1.1-1.1 1.8 0 .4.3.9.8 1.4-1.6 4.4-1.7 7.5-.3 8.3.2.1.5.2.8.2 1.3 0 3.3-1.4 5.4-3.6 1 .8 2.1 1.7 3 2.7 0 0 0 .1.1.1 1.2 1.3 2.3 2.6 2.9 4v.7c-.1 1.1-.1 2.3-.2 3.6 0 0 0 0-.1 0l-.1.1c-.7 1.1-1.3 2.2-1.5 3.5-.2 1.6.4 2.7 1.4 3.4v26.7c-.4.1-.4.2-.4.2s0 .1.4.2v.3c-.7 0-.7.2-.7.2 0 .1 0 .2.7.2v1.7c-.3 0-.6 0-.8 0-2.4 0-4.5 1-6 2.6v-11.6c2.3-5.9 3.8-11.5 2-13 0 0 0 0-.1 0s0-.1-.1-.1h-.1c-.2-.1-.3-.1-.5-.1-3.4-.8-7 .1-10.5 2v-13.4c.1 0 .1 0 .2-.1.6-.2 1.2-.6 1.7-1 .9-.8 1.4-2 1.4-3.3 0-2.1-1.4-3.8-3.3-4.4v-3.6c0-.7-.6-1.3-1.3-1.3s-1.3.6-1.3 1.3v3.6c-1.9.5-3.3 2.3-3.3 4.4 0 1 .3 2 .9 2.8s1.4 1.3 2.3 1.6v14.8c-3 2-5.8 4.6-8.4 7.3v-4-1.4-2.1-1.4-3.2h.6c1.6 0 3-1.3 3-3s-1.3-3-3-3h-.6v-9.7c0-2.5-2-4.4-4.4-4.4-2.5 0-4.4 2-4.4 4.4v.5h-.5c-1.6 0-3 1.3-3 3s1.3 3 3 3h.5v19.6c-1.1-3.8-2.3-6-3.4-6.7-.4-.2-.8-.3-1.2-.1-2.2.8-3.9 6.4-5.2 12.5-1-.5-2-1-2.9-1.5-1.7-.9-3.2-1.6-4.2-2.2-1.1-.7-2.3-1.3-3.4-2-1.3-.8-2.7-1.5-4-2.3-.1-1.9-.2-3.9-.3-5.7 2.3-1.5 4-2.7 4.8-3.7.9-1.2 1.1-2.3.7-3.2-1-2.3-5.6-2.7-5.8-2.7-.1-2.2-.1-4.2-.1-6.1.3-.4.6-.9.9-1.4 1.3-2.2 2.1-4.8 1.2-5.3-.5-.3-1.3.2-2.2 1.3 0-2 0-3.5 0-4.2.1-.1.3-.1.4-.2l1-1c.2-.2.3-.5.3-.7v-.5c2.3 0 3.9-.1 3.9-.2s-1.6-.2-3.9-.2v-1.4c0-.7.2-1.5.6-2.3 3 0 5.1-.1 5.1-.2s-2-.2-4.8-.2c.5-.7 1.1-1.3 1.8-1.3h2.9c1.1 0 2-.9 2-2v-.6c0-.3-.3-.6-.6-.6h-.3v-1.1c0-.3-.2-.5-.5-.5h-1.4v-2.6c0-.3-.2-.5-.5-.5h-.5c-.3 0-.5.2-.5.5v4.2h-.2v-1c0-.3-.2-.5-.5-.5h-.8c-.3 0-.5.2-.5.5v1h-1.5c-1.4-1.6-2-7.4-2.3-10.7.2-.2.5-.4.7-.5.1.3.2.7.4 1.1v.1c0 .1.1.3.3.3s.3-.1.3-.3c0-.1-.1-.3-.3-.3-.2-.4-.3-.7-.4-1.1.5-.2 1-.3 1.3-.3s0 .1.1.1c.1.1.3.1.4 0s.1-.3 0-.4-.3-.1-.4 0v.1c-.5 0-1-.2-1.3-.4.1-.8.7-1.4.9-1.7h.1c.1 0 .3-.1.3-.3 0-.1-.1-.3-.3-.3s-.3.1-.3.3v.1c-.6.5-1.2.8-1.9.8 0 0 0-.1-.1-.1-.3-.6-.4-1.1-.5-1.4.1-.1.1-.3 0-.4s-.3-.1-.4 0-.1.3 0 .4c0 0 0 0 .1.1 0 .5 0 1-.1 1.4-.1 0-.1 0-.2 0-.6-.2-1.1-.5-1.3-.7 0-.1-.1-.3-.3-.3s-.3.1-.3.3c0 .1.1.3.3.3h.1c.7.6 1.1 1.2 1.3 1.6-.1.2-.2.3-.3.4-.1 0-.2 0-.3.1s-.1.3 0 .4.3.1.4 0 .1-.2.1-.2c.1-.1.2-.2.3-.3.1.3.2.6.2.7-.1 0-.2.1-.2.2s.1.3.3.3c.1 0 .3-.1.3-.3 0-.1-.1-.2-.1-.2 0-.2 0-.5-.2-1 .1-.2.2-.5.3-.9.1 0 .3 0 .4.1 0 .3 0 1.3-.2 2.7-.2.3-.3.6-.4.9 0 0-.1 0-.1.1-.1.1-.1.3 0 .4s.3.1.4 0c0 0 0-.1.1-.1-.3 3.3-.9 7.7-2.2 9.1h-2.2c-.2-.9-.6-1.5-1.2-1.5-.2 0-.5.1-.7.3-.2-.5-.6-.8-1-.8-.7 0-1.2.9-1.3 2.1-.3 0-.5.3-.5.6v.6c0 1.1.9 2 2 2h2.9c.7 0 1.3.5 1.8 1.3-2.8 0-4.8.1-4.8.2s2.1.2 5.1.2c.4.7.6 1.6.6 2.3v1.4c-2.3 0-3.9.1-3.9.2s1.6.2 3.9.2v.3c0 .3.1.5.3.7l1 1c.1.1.2.2.4.2v5.6c-.2.3-.4.6-.6 1-.7 1.2-1.2 2.4-1.4 3.3-.3 1-.2 1.7.2 1.9.1.1.2.1.3.1.4 0 .9-.3 1.4-.8-.1 3-.2 6.3-.3 9.9-.7.1-4.7.6-5.7 2.7-.4.9-.2 2 .7 3.2.2.3.6.7 1 1.1-1.2.7-2.4 1.5-3.7 2.2-1 .6-2.3 1.4-3.5 2.2v-4.5c0-1.5-1.2-2.6-2.6-2.6-1.5 0-2.6 1.2-2.6 2.6v7.6c-2.6 1.6-4.9 3.1-6.7 4.5v-17.7c0-2.3-1.8-4.1-4-4.3v-7.6-6.7c.4-.1.7-.5.7-1s-.3-.8-.7-1v-6.6c.4-.1.7-.5.7-1 0-.1 0-.2 0-.2.2-.4.3-.8.5-1.2.3-.9.7-2 1.1-2.1 1.8-.6 3.3-1.9 4.2-3.5h.1c2.5-.2 6.8-.7 6.8-1.6 0-.3-.4-.6-1.2-.8v-2.1c0-.4-.3-.7-.7-.7-.2 0-.4.1-.5.2v-.4c0-.4-.3-.7-.7-.7-.2 0-.4.1-.5.2v-1.6c0-.4-.3-.7-.7-.7s-.7.3-.7.7v4.4c-.3 0-.5-.1-.8-.1 0-.3 0-.5 0-.8 0-4.2-3.3-7.6-7.5-7.8v-9.4c0-.2-.1-.3-.3-.3s-.7.1-.7.3v9.6c-.7 0-1.3.1-2 .3v-5.1c0-.2-.1-.3-.3-.3s-.3.1-.3.3v5.3c-2.9 1.2-4.9 4-4.9 7.2v.8c-3.4.3-5.9.8-5.9 1.6 0 1 4.3 1.4 6.8 1.6h.1.1c.9 1.6 2.5 2.9 4.4 3.5.3.1.7 1.2 1 2.1.1.4.3.8.4 1.1 0 .1-.1.2-.1.3 0 .5.3.8.7 1v6.6c-.4.1-.7.5-.7 1s.3.8.7 1v6.7 7.6c-2.2.2-4 2-4 4.3v34.5c0 .1 0 .1.1.1h2.4 1.2 1.2 1.2 2.4c.1 0 .1 0 .1-.1v-6.8c.8.7 1.7 1.4 2.8 2.1-.1.7-.1 1.4-.1 2.2-.2-1.5-.4-1.6-.5-1.6 0 0-.1 0-.2.1-.4.4-.9 2.4-1.1 4v.1h.1.5.8.3.2.5 1.1.6.1s0 0 0-.1c0-1.2-.1-2.3-.1-3.4.6.4 1.2.7 1.8 1v2.3c0 .1 0 .1.1.1h4.8.1 6.8c.1 0 .1 0 .1-.1 0 0 0-.1-.1-.1 0 0-.6-.3-1.5-.7v-11.7c0-1.5-1.2-2.6-2.6-2.6-1.1 0-2 .7-2.4 1.6v-4.7-.8-1.3-.8-3c1.3-.7 2.5-1.4 3.8-2.1 1.4-.8 2.8-1.5 4.1-2.3.8.6 1.8 1.3 2.9 2-.2 3.8-.5 7.6-.9 11.3-.2 0-.5 0-.7 0-.1 0-.2 0-.3 0-.1 0-.2 0-.3.1s-.1 0-.1.1c-.5.5.1 2.1 1.1 4-.5 3.9-1.1 7.7-1.8 10.9v.1h.1 5 4 7.6 1.4.4 2.3 3.1.3 6.5 1.7 2.7 4.3.3 5.1 11.2 3.5 23.9 9.8c.1 0 .2 0 .2-.1h7 7.7.1 4.2 4.6.1c.1-.5.2-1 .2-1.4-.4-2.8-2.7-5.1-5.5-5.1zm-24.8-37.4h.3c.3.2.2 1.1-.3 2.3zm0 4.9h.3c.3.2.2 1.1-.3 2.3zm-84-41.8c-.2-.3-.4-.6-.7-1 .3.1.6.2.9.3-.1.3-.2.6-.2.7zm.4-.8c0-.2.1-.4.1-.7.1.2.2.5.3.7-.1.1-.3.1-.4 0zm.2 4.1c0-.1 0-.1-.1-.1 0-.1.1-.3.1-.4zm-16.8 71.4c-.7-.4-1.3-.8-2-1.2-.2-4.5-.4-6-.5-6.5 0-.1 0-.2-.1-.2h-.1c-.1.1-.4.7-.8 4.4 0 .3-.1.7-.1 1.1-1.9-1.4-3.1-2.7-3.1-3.8 0-2.1 3.1-5.2 6.7-8zm16.1-21.5c-.7-.4-1.3-.9-1.9-1.3.7-.4 1.4-.8 2-1.2 0 .8 0 1.6-.1 2.5zm.2-3.6c-.9.6-1.8 1.2-2.7 1.7-.1 0-.1-.1-.2-.1-1-.8-2.1-2-1.8-3.2s1.9-2.1 4.9-2.8c0 1.4-.1 2.9-.2 4.4zm.5-14.9s-.1.1-.1.1c-.7.6-1.2.9-1.5.7s-.3-.8-.1-1.7c.2-1 .7-2.1 1.4-3.3.1-.2.3-.4.4-.7 0 1.6 0 3.2-.1 4.9zm2.1-33.8c-.2 0-.4.1-.6.2 0-.1 0-.3 0-.4.2 0 .4.1.6.2zm-.3-1.8c-.2.3-.4.7-.5 1.2-.3-.2-.6-.5-.8-.8.5 0 .9-.1 1.3-.4zm-1.4.6c.2.3.5.6.9.8v.6c-.2.1-.5.3-.7.5-.1-.9-.1-1.6-.2-1.9zm.8 28.7c.9-1.1 1.7-1.6 2.1-1.4.6.3.2 2.4-1.3 5-.2.4-.5.8-.8 1.2.1-1.8 0-3.4 0-4.8zm.3 11.4c3 .6 4.7 1.6 5 2.8s-.8 2.4-1.8 3.2c-.9.7-1.9 1.5-2.9 2.2-.2-2.8-.3-5.6-.3-8.2zm13.3 34.5c-3-3-7.1-6.2-11.7-7.7-.4-3.4-.6-6.9-.9-10.3 2.1 1.2 4.4 2.5 6.8 3.8 2.5 1.4 5 2.8 7.4 4.2-.6 3.5-1.2 7.1-1.6 10zm47.8-34.3c-.3-.3-.5-.6-.7-1-.5-1.2-.2-2.8.9-4.7-.1 1.8-.2 3.7-.2 5.7zm-11.7-13.9c-1.3-.7-1.1-3.7.3-7.9.8.8 1.9 1.7 3.2 2.7.7.6 1.5 1.2 2.3 1.8-2.4 2.7-4.6 4.1-5.8 3.4zm13-19.4c-.1-.1-.2-.3-.3-.4 0 0 0 0-.1-.1s-.3-.2-.4-.3h-.1c-.1-.1-.2-.1-.2-.2-.2-.1-.4-.2-.6-.2v-.6c.4 0 .4-.1.4-.2s0-.1-.2-.1c.1 0 .1-.1.1-.1 0-.1 0-.1-.3-.2 0-.1-.1-.1-.2-.1s-.1.1-.2.1c-.3 0-.3.1-.3.2s0 .1.1.1c-.2 0-.2.1-.2.1 0 .1 0 .1.4.2v.5c-.1 0-.3 0-.4 0-1.7 0-3 1.4-3 3 0 .2 0 .5.1.7-.6.1-1.2.2-1.8.3 0-.5 0-1.1 0-1.7 3.8-5.6 7.7-8.9 9.5-7.9 1 .6 1.1 2.5.4 5.3-.3 1.1-.7 2.4-1.2 3.7-.3 0-.6 0-.9 0 0-.1 0-.2 0-.4s0-.4-.1-.5v-.1c0-.2-.1-.3-.1-.5-.2-.3-.3-.4-.4-.6zm16.8 39.1c-.1 0-.2-.1-.3-.1.1-.2.2-.4.3-.6zm0-2.7c-.3.2-.5.2-.6.2-.3-.2-.2-1.4.6-2.9zm17.4 28c-.3-.1-.7-.1-1-.1.1-.5.2-1 .3-1.6h.7zm0-2.1c-.3 0-.5 0-.6 0 0-.1 0-.2 0-.3.1 0 .3 0 .6.1z" fill="url(#d)"/><path d="m236.4 36.3c0 .1.1.1.2.1h.1l.7-.3c.2.1.3.3.6.3.1 0 .2 0 .3.1h.3c.2 0 .4 0 .6-.1.1.1.1.5 0 1 0 .1 0 .2.1.2h.1.1l1.4-.9c.3-.2.5-.5.5-.8l.1-.8c.5-.3 1.1-.6 1.6-.9.6-.4 1.2-.7 1.8-1.1l1.1-.6c1.5-.9 2.9-1.8 3.5-3.4 0-.1.1-.2.1-.3l.2-.3c.1-.1 0-.3 0-.4-.1-.1-.2-.2-.3-.2h-.3c-.1-.1-.3-.1-.6-.1-1.7-.2-3.1.6-4.6 1.6-1 .6-1.9 1.3-2.9 1.9-.5.3-1 .6-1.4 1l-.7-.3c-.3-.1-.7-.1-1 .1l-1.4.9c-.1 0-.1.1-.1.2s.1.2.2.2c.5.1.9.3.9.4-.1.1-.2.2-.3.3-.2.4-.3.8-.3 1.1 0 .1.1.2.1.3l-.6.4c-.2.2-.2.3-.1.4z" fill="#db3b21"/><path d="m172.6 34.9 1.4.5s.1 0 .1-.1 0-.1-.1-.1l-1.4-.5c-.1 0-.1 0-.1.1.1 0 .1.1.1.1z" fill="url(#e)"/><path d="m169.3 33.6c0 .1 0 .1.1.1l2.7.9s.1 0 .1-.1 0-.1-.1-.1l-2.7-.9c0 .1 0 .1-.1.1z" fill="url(#f)"/><path d="m165.4 32.1c-.1 0-.1 0-.1.1s0 .1.1.1l2.6.9s.1 0 .1-.1 0-.1-.1-.1z" fill="url(#g)"/><path d="m177.7 35.7 2.4.9s.1 0 .1-.1 0-.1-.1-.1l-2.4-.9c-.1 0-.1 0-.1.1 0 0 0 .1.1.1z" fill="url(#h)"/><path d="m173.9 34.1c-.1 0-.1 0-.1.1s0 .1.1.1l1.5.5s.1 0 .1-.1 0-.1-.1-.1z" fill="url(#i)"/><path d="m166.2 31.5c0 .1 0 .1.1.1l5.3 1.9s.1 0 .1-.1 0-.1-.1-.1l-5.3-1.9s0 .1-.1.1z" fill="url(#j)"/><path d="m173 32.8 2.7.9s.1 0 .1-.1 0-.1-.1-.1l-2.7-.9c-.1 0-.1 0-.1.1 0 0 0 .1.1.1z" fill="url(#k)"/><path d="m167.1 30.7 4 1.4s.1 0 .1-.1 0-.1-.1-.1l-4-1.4c-.1 0-.1 0-.1.1 0 0 0 .1.1.1z" fill="url(#l)"/><path d="m226.7 43.6-1.9 1.1c-.1 0-.1.1 0 .1 0 0 .1.1.1.1h.1l1.9-1.1c.1 0 .1-.1 0-.1-.1-.2-.2-.2-.2-.1z" fill="url(#m)"/><path d="m232.3 40.4-3.3 1.9c-.1 0-.1.1 0 .1 0 0 .1.1.1.1h.1l3.3-1.9c.1 0 .1-.1 0-.1s-.1-.2-.2-.1z" fill="url(#n)"/><path d="m237.3 37.5-4 2.3c-.1 0-.1.1 0 .1 0 0 .1.1.1.1h.1l4-2.3c.1 0 .1-.1 0-.1 0-.1-.1-.1-.2-.1z" fill="url(#o)"/><path d="m222.7 44c.1 0 .1 0 0 0l2.7-1.5c.1 0 .1-.1 0-.1 0-.1-.1-.1-.1 0l-2.6 1.5c-.1-.1-.1 0 0 .1z" fill="url(#p)"/><path d="m229 40.4c0-.1-.1-.1-.1 0l-2.1 1.2c-.1 0-.1.1 0 .1 0 0 .1.1.1.1h.1l2.1-1.2c-.1-.1-.1-.2-.1-.2z" fill="url(#q)"/><path d="m232.7 38.2c0-.1-.1-.1-.1 0l-3 1.7c-.1 0-.1.1 0 .1 0 0 .1.1.1.1h.1l3-1.7c0-.1 0-.1-.1-.2z" fill="url(#r)"/><path d="m234.2 37.5s.1 0 0 0l1.1-.6c.1 0 .1-.1 0-.1 0-.1-.1-.1-.1 0l-1.1.6c0-.1 0 0 .1.1-.1 0 0 0 0 0z" fill="url(#s)"/><path d="m223.5 41.5c.1 0 .1 0 0 0l3.3-1.9c.1 0 .1-.1 0-.1 0-.1-.1-.1-.1 0l-3.3 1.8s0 .1.1.2z" fill="url(#t)"/><path d="m228.6 38.6 1.5-.9c.1 0 .1-.1 0-.1 0-.1-.1-.1-.1 0l-1.5.8s0 .1.1.2c-.1 0 0 0 0 0z" fill="url(#u)"/><path d="m230.7 37.5 3.3-1.9c.1 0 .1-.1 0-.1 0-.1-.1-.1-.1 0l-3.3 1.8c-.1 0-.1 0 .1.2-.1-.1-.1 0 0 0z" fill="url(#v)"/><path d="m234.5 35.3.9-.5c.1 0 .1-.1 0-.1s-.1-.1-.1 0l-.8.5c-.1-.1-.2 0 0 .1-.1 0-.1 0 0 0z" fill="url(#w)"/><path id="cc2-cloud-mid-right" d="m258.7 90.5c-1.2 0-2.4.1-3.6.3-1.2-5.2-5.9-9-11.5-9-2.1 0-4 .5-5.7 1.5-1.4-10.9-9.8-19.2-19.8-19.2s-18.2 8.2-19.7 19c-3.8-1.7-8.8-2.7-14.1-2.7-11.9 0-21.6 4.9-22.3 11.1-14 5.5-23.9 13.7-27 23.1h140c1.1-2.2 1.7-4.6 1.7-7.2.2-9.3-8-16.9-18-16.9z" fill="url(#x)" opacity=".8"/><path id="cc2-cloud-bottom-left" d="m186.1 111.6c-.7 0-1.4 0-2.1.1-1.2-2.4-4.8-4.1-9.1-4.1-3.8 0-7 1.3-8.6 3.2-1.9.2-3.8.4-5.5.8-.8-4.6-4.8-8.1-9.7-8.1-1.8 0-3.4.5-4.8 1.3-.4-1.7-1.1-3.3-2-4.8 1.3-2 2.1-4.4 2.1-6.9 0-7.8-7.1-14.1-15.9-14.1-6.8 0-12.6 3.8-14.9 9.2-1.9-.5-3.9-.8-6-.8-10.3 0-18.7 6.7-18.7 15 0 .8.1 1.5.2 2.2-1.3-.7-2.8-1.1-4.4-1.1-5.2 0-9.4 4-9.8 9.1-3-1-6.4-1.6-10.1-1.8-1.5-1.9-4.6-3.2-8.1-3.2-5 0-9.1 2.6-9.1 5.7v.3c-.5 0-.9-.1-1.4-.1-9.4 0-16.9 7.6-16.9 16.9 0 9.4 7.6 16.9 16.9 16.9 7.3 0 13.4-4.6 15.9-11 1.6 1.1 3.5 1.8 5.7 1.8 2.5 0 4.8-.9 6.5-2.5 1.5 5.9 6.8 10.3 13.2 10.3 7.2 0 13.1-5.6 13.6-12.8 4.2 1.9 10.1 3.1 16.8 3.1 8.8 0 16.3-2.1 20.2-5.1 1.6 5.2 8.2 9.2 16.1 9.2 6.6 0 12.3-2.7 15-6.7 3.7 2.9 9.1 4.7 15.1 4.7 11 0 19.9-6 19.9-13.4-.2-7.3-9.1-13.3-20.1-13.3z" fill="url(#y)" opacity=".8"/><path d="m109.3 25.3c-6.7 0-13.9.7-13.9 1.9 0 1 4.3 1.5 6.9 1.6h.1c1.6-.7 4.3-1.5 6.9-1.5 2.8 0 5.5.9 6.9 1.5 2.6-.2 6.9-.7 6.9-1.6.1-1.3-7.1-1.9-13.8-1.9z" fill="#7dcafa"/></svg>