<?xml version="1.0" encoding="UTF-8"?>
<svg width="44px" height="37px" viewBox="0 0 44 37" version="1.1" xmlns="http://www.w3.org/2000/svg" xmlns:xlink="http://www.w3.org/1999/xlink">
    <!-- Generator: Sketch 61 (89581) - https://sketch.com -->
    <title>Path</title>
    <desc>Created with Sketch.</desc>
    <g id="all-remote-landing-page" stroke="none" stroke-width="1" fill="none" fill-rule="evenodd">
        <g id="Desktop-HD" transform="translate(-1120.000000, -3037.000000)" fill="#9795F9" fill-rule="nonzero">
            <g id="Page" transform="translate(-81.000000, 0.000000)">
                <g id="Connect-Block" transform="translate(81.000000, 2888.866235)">
                    <g id="004-twitter" transform="translate(1120.000000, 148.558792)">
                        <path d="M44,4.27793727 C42.36375,5.0034354 40.62025,5.48432114 38.8025,5.71781479 C40.6725,4.58926214 42.09975,2.81582226 42.77075,0.678243465 C41.02725,1.7289649 39.10225,2.47114115 37.05075,2.88531441 C35.39525,1.10353547 33.03575,0 30.46175,0 C25.46775,0 21.44725,4.09725765 21.44725,9.12015086 C21.44725,9.84286931 21.50775,10.5377909 21.65625,11.1993562 C14.157,10.829658 7.52125,7.19660792 3.0635,1.66225243 C2.28525,3.02707842 1.82875,4.58926214 1.82875,6.27097237 C1.82875,9.42869604 3.4375,12.2278402 5.8355,13.8483973 C4.38625,13.8206004 2.9645,13.3953084 1.76,12.725404 C1.76,12.7532009 1.76,12.7893368 1.76,12.8254727 C1.76,17.2562928 4.88675,20.9365975 8.987,21.7844018 C8.25275,21.9873189 7.4525,22.0846079 6.622,22.0846079 C6.0445,22.0846079 5.4615,22.0512517 4.91425,21.9289455 C6.083,25.539758 9.3995,28.1943585 13.343,28.2805288 C10.274,30.7071949 6.37725,32.1693099 2.15875,32.1693099 C1.419,32.1693099 0.7095,32.1359537 0,32.044224 C3.99575,34.6487901 8.73125,36.1359223 13.838,36.1359223 C30.437,36.1359223 39.512,22.2374907 39.512,10.1903301 C39.512,9.78727558 39.49825,9.39811949 39.479,9.01174309 C41.26925,7.72752801 42.7735,6.12364899 44,4.27793727 Z" id="Path"></path>
                    </g>
                </g>
            </g>
        </g>
    </g>
</svg>