<?xml version="1.0" encoding="UTF-8"?>
<svg width="44px" height="45px" viewBox="0 0 44 45" version="1.1" xmlns="http://www.w3.org/2000/svg" xmlns:xlink="http://www.w3.org/1999/xlink">
    <!-- Generator: Sketch 61 (89581) - https://sketch.com -->
    <title>002-facebook-app-logo</title>
    <desc>Created with Sketch.</desc>
    <g id="all-remote-landing-page" stroke="none" stroke-width="1" fill="none" fill-rule="evenodd">
        <g id="Desktop-HD" transform="translate(-959.000000, -3032.000000)" fill="#FCA326" fill-rule="nonzero">
            <g id="Page" transform="translate(-81.000000, 0.000000)">
                <g id="Connect-Block" transform="translate(81.000000, 2888.866235)">
                    <g id="002-facebook-app-logo" transform="translate(959.000000, 143.539914)">
                        <path d="M41.5700454,0 L2.42850557,0 C1.08819074,0 0,1.09011764 0,2.43767468 L0,41.7269982 C0,43.0745552 1.08819074,44.1661273 2.42850557,44.1661273 L23.5011526,44.1661273 L23.5011526,27.0624069 L17.7675031,27.0624069 L17.7675031,20.3958902 L23.5011526,20.3958902 L23.5011526,15.479816 C23.5011526,9.77615177 26.9707568,6.66869833 32.0407693,6.66869833 C34.4714483,6.66869833 36.555819,6.85123304 37.1636699,6.9305011 L37.1636699,12.892332 L33.6469736,12.8937864 C30.890272,12.8937864 30.3584931,14.2093453 30.3584931,16.1386863 L30.3584931,20.3937086 L36.9354541,20.3937086 L36.0754792,27.059498 L30.3577686,27.059498 L30.3577686,44.1639456 L41.569321,44.1639456 C42.9110848,44.1639456 44,43.070919 44,41.7269982 L44,2.43622022 C43.9992755,1.09011764 42.9118093,0 41.5700454,0 Z" id="Path"></path>
                    </g>
                </g>
            </g>
        </g>
    </g>
</svg>