<?xml version="1.0" encoding="UTF-8"?>
<svg width="52px" height="37px" viewBox="0 0 52 37" version="1.1" xmlns="http://www.w3.org/2000/svg" xmlns:xlink="http://www.w3.org/1999/xlink">
    <!-- Generator: Sketch 61 (89581) - https://sketch.com -->
    <title>Shape</title>
    <desc>Created with Sketch.</desc>
    <g id="all-remote-landing-page" stroke="none" stroke-width="1" fill="none" fill-rule="evenodd">
        <g id="Desktop-HD" transform="translate(-875.000000, -3037.000000)" fill="#FC6D26" fill-rule="nonzero">
            <g id="Page" transform="translate(-81.000000, 0.000000)">
                <g id="Connect-Block" transform="translate(81.000000, 2888.866235)">
                    <g id="003-youtube" transform="translate(875.000000, 148.558792)">
                        <path d="M49.79,3.48218888 C48.3795,0.946104148 46.84875,0.479622242 43.732,0.302227714 C40.6185,0.0886972639 32.78925,0 26.0065,0 C19.21075,0 11.37825,0.0886972639 8.268,0.29894263 C5.15775,0.479622242 3.62375,0.942819064 2.20025,3.48218888 C0.7475,6.01498853 0,10.3775799 0,18.0581059 C0,18.0646761 0,18.0679612 0,18.0679612 C0,18.0745313 0,18.0778164 0,18.0778164 L0,18.0843866 C0,25.7320618 0.7475,30.127504 2.20025,32.6340229 C3.62375,35.1701077 5.1545,35.6300194 8.26475,35.8435499 C11.37825,36.0275146 19.21075,36.1359223 26.0065,36.1359223 C32.78925,36.1359223 40.6185,36.0275146 43.73525,35.846835 C46.852,35.6333045 48.38275,35.1733928 49.79325,32.637308 C51.259,30.1307891 52,25.7353469 52,18.0876717 C52,18.0876717 52,18.0778164 52,18.0712462 C52,18.0712462 52,18.0646761 52,18.061391 C52,10.3775799 51.259,6.01498853 49.79,3.48218888 Z M19.8545455,28.5283597 L19.8545455,8.55850792 L35.9272727,18.5434338 L19.8545455,28.5283597 Z" id="Shape"></path>
                    </g>
                </g>
            </g>
        </g>
    </g>
</svg>