<?xml version="1.0" encoding="UTF-8"?>
<svg width="42px" height="43px" viewBox="0 0 42 43" version="1.1" xmlns="http://www.w3.org/2000/svg" xmlns:xlink="http://www.w3.org/1999/xlink">
    <!-- Generator: Sketch 61 (89581) - https://sketch.com -->
    <title>001-linkedin 2</title>
    <desc>Created with Sketch.</desc>
    <g id="all-remote-landing-page" stroke="none" stroke-width="1" fill="none" fill-rule="evenodd">
        <g id="Desktop-HD" transform="translate(-1042.000000, -3032.000000)" fill="#55448D" fill-rule="nonzero">
            <g id="Page" transform="translate(-81.000000, 0.000000)">
                <g id="Connect-Block" transform="translate(81.000000, 2888.866235)">
                    <g id="001-linkedin-2" transform="translate(1042.000000, 143.539914)">
                        <g id="001-linkedin">
                            <path d="M10.3077956,14.0528587 L1.69220439,14.0528587 C1.30983069,14.0528587 1,14.3526219 1,14.7222719 L1,41.4891628 C1,41.8589467 1.30983069,42.1585761 1.69220439,42.1585761 L10.3077956,42.1585761 C10.6901693,42.1585761 11,41.8589467 11,41.4891628 L11,14.7222719 C11,14.3526219 10.6901693,14.0528587 10.3077956,14.0528587 Z" id="XMLID_802_"></path>
                            <path d="M5.50221075,0 C2.46826393,0 0,2.47609974 0,5.51962219 C0,8.56449019 2.46826393,11.0415318 5.50221075,11.0415318 C8.53374584,11.0415318 11,8.56435563 11,5.51962219 C11.000134,2.47609974 8.53374584,0 5.50221075,0 Z" id="XMLID_803_"></path>
                            <path d="M31.462762,13.0490831 C28.1517437,13.0490831 25.7041467,14.5045713 24.2195865,16.1583689 L24.2195865,14.3994564 C24.2195865,14.025459 23.9231249,13.7221702 23.5572504,13.7221702 L15.6623361,13.7221702 C15.2964617,13.7221702 15,14.025459 15,14.3994564 L15,41.4811543 C15,41.8552873 15.2964617,42.1585761 15.6623361,42.1585761 L23.8881535,42.1585761 C24.254028,42.1585761 24.5504896,41.8552873 24.5504896,41.4811543 L24.5504896,28.0819937 C24.5504896,23.566797 25.7498479,21.8077491 28.8278564,21.8077491 C32.180072,21.8077491 32.4464636,24.6276982 32.4464636,28.3143029 L32.4464636,41.4812898 C32.4464636,41.8554227 32.7429253,42.1585761 33.1087997,42.1585761 L41.3376639,42.1585761 C41.7035383,42.1585761 42,41.8554227 42,41.4812898 L42,26.6265055 C42,19.9125667 40.7480522,13.0490831 31.462762,13.0490831 Z" id="XMLID_804_"></path>
                        </g>
                    </g>
                </g>
            </g>
        </g>
    </g>
</svg>