<svg width="22" height="22" viewBox="0 0 22 22" fill="none" xmlns="http://www.w3.org/2000/svg">
<g clip-path="url(#clip0)">
<path d="M10.6161 16.4412C10.4312 16.4409 10.251 16.3824 10.1013 16.274L5.50326 12.9608C5.29289 12.8059 5.13701 12.5883 5.05796 12.3393C4.97891 12.0903 4.98076 11.8227 5.06326 11.5748L6.64286 6.7348C6.71364 6.52195 6.84931 6.33662 7.03082 6.20483C7.21233 6.07304 7.43056 6.00141 7.65486 6C7.87798 6.00192 8.09486 6.07389 8.27487 6.20574C8.45488 6.33759 8.58892 6.52265 8.65806 6.7348L9.51166 9.3748H11.7117L12.5653 6.7348C12.6349 6.52249 12.7698 6.33759 12.9507 6.20651C13.1317 6.07542 13.3494 6.00484 13.5729 6.00484C13.7963 6.00484 14.014 6.07542 14.195 6.20651C14.3759 6.33759 14.5108 6.52249 14.5805 6.7348L16.1601 11.5572C16.2426 11.8051 16.2444 12.0727 16.1654 12.3217C16.0863 12.5707 15.9304 12.7883 15.7201 12.9432L11.1265 16.274C10.9779 16.3816 10.7995 16.44 10.6161 16.4412ZM6.84526 11.742L10.6161 14.4744L14.3781 11.742L13.5817 9.2868L13.1989 10.466C13.1428 10.6411 13.0333 10.7943 12.8857 10.904C12.7381 11.0137 12.5599 11.0744 12.3761 11.0776H8.85606C8.67049 11.0775 8.48971 11.0187 8.33956 10.9096C8.18942 10.8006 8.07759 10.6468 8.02006 10.4704L7.63286 9.2824L6.84526 11.742Z" fill="#7D2BD9"/>
<path d="M11.0001 3.31321C10.6718 3.31321 10.351 3.21581 10.0781 3.03334C9.80519 2.85087 9.59258 2.59154 9.46716 2.28818C9.34174 1.98482 9.30914 1.65106 9.37351 1.32917C9.43787 1.00727 9.59629 0.711712 9.82872 0.479901C10.0611 0.24809 10.3571 0.0904523 10.6792 0.0269449C11.0013 -0.0365625 11.3349 -0.00308429 11.638 0.123141C11.941 0.249367 12.1997 0.462664 12.3815 0.736031C12.5632 1.0094 12.6598 1.33054 12.6589 1.65881C12.6577 2.09798 12.4825 2.51878 12.1715 2.82891C11.8605 3.13905 11.4393 3.31321 11.0001 3.31321ZM11.0001 1.55321C10.9864 1.55319 10.9729 1.55595 10.9603 1.56131C10.9478 1.56667 10.9364 1.57452 10.9269 1.58439C10.9175 1.59425 10.9101 1.60594 10.9053 1.61873C10.9005 1.63152 10.8983 1.64515 10.8989 1.65881C10.8989 1.76881 11.1013 1.76881 11.1013 1.65881C11.1019 1.64515 11.0997 1.63152 11.0949 1.61873C11.0901 1.60594 11.0827 1.59425 11.0733 1.58439C11.0638 1.57452 11.0524 1.56667 11.0399 1.56131C11.0273 1.55595 11.0138 1.55319 11.0001 1.55321Z" fill="#7D2BD9"/>
<path d="M11.0001 22.0002C10.672 22.0002 10.3513 21.9029 10.0785 21.7207C9.80574 21.5384 9.59313 21.2793 9.46758 20.9762C9.34203 20.6731 9.30918 20.3396 9.37318 20.0178C9.43719 19.696 9.59517 19.4005 9.82716 19.1685C10.0591 18.9365 10.3547 18.7785 10.6765 18.7145C10.9983 18.6505 11.3318 18.6833 11.6349 18.8089C11.938 18.9344 12.1971 19.1471 12.3794 19.4198C12.5616 19.6926 12.6589 20.0133 12.6589 20.3414C12.6589 20.7814 12.4841 21.2033 12.1731 21.5144C11.862 21.8255 11.4401 22.0002 11.0001 22.0002ZM11.0001 20.2402C10.9733 20.2402 10.9475 20.2509 10.9286 20.2699C10.9096 20.2888 10.8989 20.3146 10.8989 20.3414C10.8989 20.4558 11.1013 20.4558 11.1013 20.3414C11.1013 20.3146 11.0906 20.2888 11.0717 20.2699C11.0527 20.2509 11.027 20.2402 11.0001 20.2402Z" fill="#7D2BD9"/>
<path d="M20.3412 12.6589C20.0131 12.6589 19.6924 12.5616 19.4196 12.3794C19.1468 12.1971 18.9342 11.938 18.8086 11.6349C18.6831 11.3318 18.6502 10.9983 18.7142 10.6765C18.7783 10.3547 18.9362 10.0591 19.1682 9.82716C19.4002 9.59517 19.6958 9.43719 20.0176 9.37318C20.3393 9.30918 20.6729 9.34203 20.976 9.46758C21.2791 9.59313 21.5381 9.80574 21.7204 10.0785C21.9027 10.3513 22 10.672 22 11.0001C22 11.4401 21.8252 11.862 21.5141 12.1731C21.203 12.4841 20.7811 12.6589 20.3412 12.6589ZM20.3412 10.8989C20.3143 10.8989 20.2886 10.9096 20.2696 10.9286C20.2506 10.9475 20.24 10.9733 20.24 11.0001C20.24 11.1145 20.4468 11.1145 20.4468 11.0001C20.4468 10.9864 20.444 10.9729 20.4387 10.9603C20.4333 10.9478 20.4255 10.9364 20.4156 10.9269C20.4057 10.9175 20.394 10.9101 20.3813 10.9053C20.3685 10.9005 20.3548 10.8983 20.3412 10.8989Z" fill="#7D2BD9"/>
<path d="M1.65881 12.6589C1.33054 12.6598 1.0094 12.5632 0.736031 12.3815C0.462664 12.1997 0.249367 11.941 0.123141 11.638C-0.00308429 11.3349 -0.0365625 11.0013 0.0269449 10.6792C0.0904523 10.3571 0.24809 10.0611 0.479901 9.82872C0.711712 9.59629 1.00727 9.43787 1.32917 9.37351C1.65106 9.30914 1.98482 9.34174 2.28818 9.46716C2.59154 9.59258 2.85087 9.80519 3.03334 10.0781C3.21581 10.351 3.31321 10.6718 3.31321 11.0001C3.31321 11.4393 3.13905 11.8605 2.82891 12.1715C2.51878 12.4825 2.09798 12.6577 1.65881 12.6589ZM1.65881 10.8989C1.64515 10.8983 1.63152 10.9005 1.61873 10.9053C1.60594 10.9101 1.59425 10.9175 1.58439 10.9269C1.57452 10.9364 1.56667 10.9478 1.56131 10.9603C1.55595 10.9729 1.55319 10.9864 1.55321 11.0001C1.55321 11.1145 1.76001 11.1145 1.76001 11.0001C1.76001 10.9733 1.74934 10.9475 1.73037 10.9285C1.71139 10.9096 1.68565 10.8989 1.65881 10.8989Z" fill="#7D2BD9"/>
<path d="M17.5999 6.05002C17.2162 6.04916 16.8446 5.9153 16.5485 5.67123C16.2524 5.42716 16.0501 5.08798 15.976 4.71147C15.902 4.33497 15.9607 3.94442 16.1423 3.60637C16.3238 3.26831 16.617 3.00366 16.9718 2.85749C17.3265 2.71132 17.721 2.69267 18.088 2.80473C18.455 2.91679 18.7718 3.15262 18.9845 3.47204C19.1971 3.79147 19.2924 4.17474 19.2542 4.55655C19.2159 4.93836 19.0465 5.29511 18.7747 5.56602C18.4626 5.87647 18.0401 6.05052 17.5999 6.05002ZM17.5999 4.29002C17.5866 4.28949 17.5734 4.29199 17.5612 4.29733C17.549 4.30266 17.5382 4.31069 17.5295 4.32082C17.5132 4.33766 17.5033 4.35965 17.5014 4.38301C17.4995 4.40638 17.5058 4.42967 17.5191 4.44893C17.5325 4.46818 17.5522 4.48219 17.5747 4.48857C17.5973 4.49495 17.6213 4.4933 17.6428 4.48391C17.6643 4.47451 17.6818 4.45795 17.6925 4.43705C17.7031 4.41616 17.7061 4.39222 17.7011 4.36933C17.696 4.34645 17.6831 4.32603 17.6647 4.31156C17.6463 4.29709 17.6234 4.28948 17.5999 4.29002Z" fill="#7D2BD9"/>
<path d="M4.39998 19.2629C4.01606 19.2631 3.64398 19.1301 3.34717 18.8866C3.05036 18.6431 2.8472 18.3041 2.77233 17.9276C2.69746 17.5511 2.75552 17.1602 2.93661 16.8217C3.1177 16.4832 3.4106 16.2179 3.76538 16.0712C4.12015 15.9245 4.51483 15.9054 4.88212 16.0171C5.24941 16.1289 5.56657 16.3646 5.77952 16.684C5.99246 17.0035 6.08801 17.3869 6.04988 17.7689C6.01174 18.1509 5.84227 18.5079 5.57038 18.7789C5.25934 19.0883 4.83867 19.2622 4.39998 19.2629ZM4.32078 17.5337C4.30152 17.553 4.2907 17.5791 4.2907 17.6063C4.2907 17.6335 4.30152 17.6597 4.32078 17.6789C4.34003 17.6982 4.36615 17.709 4.39338 17.709C4.42061 17.709 4.44672 17.6982 4.46598 17.6789L4.32078 17.5337ZM4.39558 17.5029C4.38166 17.5026 4.36783 17.5052 4.35496 17.5105C4.34209 17.5158 4.33046 17.5237 4.32078 17.5337L4.46598 17.6789C4.48454 17.6593 4.49489 17.6333 4.49489 17.6063C4.49489 17.5793 4.48454 17.5533 4.46598 17.5337C4.45781 17.5242 4.4477 17.5165 4.43631 17.5112C4.42493 17.5059 4.41254 17.503 4.39998 17.5029H4.39558Z" fill="#7D2BD9"/>
<path d="M17.5999 19.2629C17.2162 19.2621 16.8446 19.1282 16.5485 18.8841C16.2524 18.64 16.0501 18.3009 15.976 17.9244C15.902 17.5479 15.9607 17.1573 16.1423 16.8193C16.3238 16.4812 16.617 16.2165 16.9718 16.0704C17.3265 15.9242 17.721 15.9056 18.088 16.0176C18.455 16.1297 18.7718 16.3655 18.9845 16.6849C19.1971 17.0044 19.2924 17.3876 19.2542 17.7694C19.2159 18.1513 19.0465 18.508 18.7747 18.7789C18.4626 19.0894 18.0401 19.2634 17.5999 19.2629ZM17.5999 17.5029C17.5866 17.5024 17.5734 17.5049 17.5612 17.5102C17.549 17.5156 17.5382 17.5236 17.5295 17.5337C17.5132 17.5506 17.5033 17.5725 17.5014 17.5959C17.4995 17.6193 17.5058 17.6426 17.5191 17.6618C17.5325 17.6811 17.5522 17.6951 17.5747 17.7015C17.5973 17.7078 17.6213 17.7062 17.6428 17.6968C17.6643 17.6874 17.6818 17.6708 17.6925 17.6499C17.7031 17.629 17.7061 17.6051 17.7011 17.5822C17.696 17.5593 17.6831 17.5389 17.6647 17.5244C17.6463 17.51 17.6234 17.5024 17.5999 17.5029Z" fill="#7D2BD9"/>
<path d="M4.39998 6.05002C4.01606 6.05018 3.64398 5.91717 3.34717 5.67367C3.05036 5.43017 2.8472 5.09125 2.77233 4.71471C2.69746 4.33816 2.75552 3.94731 2.93661 3.60879C3.1177 3.27026 3.4106 3.00503 3.76538 2.85832C4.12015 2.71161 4.51483 2.6925 4.88212 2.80425C5.24941 2.916 5.56657 3.15169 5.77952 3.47113C5.99246 3.79058 6.08801 4.17399 6.04988 4.55601C6.01174 4.93802 5.84227 5.29498 5.57038 5.56602C5.25907 5.87499 4.83858 6.04888 4.39998 6.05002ZM4.39998 4.29002C4.37538 4.28904 4.35121 4.29668 4.33165 4.31162C4.31209 4.32656 4.29836 4.34786 4.29284 4.37185C4.28732 4.39584 4.29035 4.421 4.30141 4.44299C4.31248 4.46498 4.33087 4.48242 4.35342 4.49228C4.37598 4.50215 4.40126 4.50383 4.42492 4.49703C4.44858 4.49023 4.46912 4.47538 4.48299 4.45504C4.49686 4.43471 4.50319 4.41016 4.50089 4.38566C4.49858 4.36115 4.48779 4.33822 4.47038 4.32082C4.46173 4.3107 4.45091 4.30267 4.43872 4.29733C4.42652 4.292 4.41328 4.2895 4.39998 4.29002Z" fill="#7D2BD9"/>
</g>
<defs>
<clipPath id="clip0">
<rect width="22" height="22" fill="white"/>
</clipPath>
</defs>
</svg>
