 <svg
    width="24"
    height="24"
    viewBox="0 0 24 24"
    fill="none"
    xmlns="http://www.w3.org/2000/svg"
  >
    <g clip-path="url(#clip0)">
      <path
        d="M18.12 24H5.88C5.19001 24 4.52829 23.7259 4.04039 23.238C3.5525 22.7501 3.2784 22.0884 3.2784 21.3984V5.856C3.27706 5.34388 3.42717 4.84278 3.70987 4.41575C3.99257 3.98871 4.39523 3.6548 4.8672 3.456C4.98411 3.40101 5.11092 3.37018 5.24003 3.36536C5.36914 3.36054 5.49789 3.38183 5.61857 3.42796C5.73926 3.47409 5.84939 3.5441 5.94237 3.63381C6.03535 3.72351 6.10927 3.83106 6.1597 3.95001C6.21012 4.06896 6.23602 4.19687 6.23583 4.32607C6.23565 4.45527 6.20938 4.5831 6.15862 4.70191C6.10785 4.82072 6.03362 4.92805 5.94039 5.01749C5.84715 5.10693 5.73682 5.17662 5.616 5.2224C5.49181 5.27526 5.38596 5.36356 5.31168 5.47625C5.23741 5.58894 5.198 5.72104 5.1984 5.856V21.3984C5.19966 21.5788 5.27187 21.7514 5.39943 21.879C5.52698 22.0065 5.69962 22.0787 5.88 22.08H18.12C18.3004 22.0787 18.473 22.0065 18.6006 21.879C18.7281 21.7514 18.8003 21.5788 18.8016 21.3984V5.856C18.8022 5.71913 18.7618 5.58521 18.6857 5.47145C18.6095 5.35769 18.5011 5.26929 18.3744 5.2176C18.2509 5.17582 18.1372 5.10932 18.0402 5.02215C17.9433 4.93499 17.8651 4.82899 17.8104 4.71061C17.7558 4.59224 17.7258 4.46397 17.7224 4.33364C17.7189 4.2033 17.7421 4.07363 17.7904 3.95253C17.8387 3.83143 17.9112 3.72144 18.0034 3.62927C18.0956 3.53709 18.2056 3.46467 18.3267 3.41641C18.4479 3.36816 18.5775 3.34508 18.7079 3.34858C18.8382 3.35209 18.9664 3.38211 19.0848 3.4368C19.5658 3.62816 19.9785 3.95888 20.2702 4.38651C20.5618 4.81415 20.719 5.31919 20.7216 5.8368V21.3984C20.7216 22.0884 20.4475 22.7501 19.9596 23.238C19.4717 23.7259 18.81 24 18.12 24Z"
        fill="#7D2BD9"
      />
      <path
        d="M15.84 7.34401H8.16C7.90539 7.34401 7.66121 7.24286 7.48118 7.06283C7.30114 6.88279 7.2 6.63861 7.2 6.38401V3.10081C7.2 2.8462 7.30114 2.60202 7.48118 2.42198C7.66121 2.24195 7.90539 2.14081 8.16 2.14081H8.976C9.1884 1.50972 9.59568 0.962373 10.1391 0.577634C10.6826 0.192895 11.3342 -0.00936397 12 6.30628e-06C12.6625 -8.88782e-05 13.3086 0.205945 13.8487 0.589539C14.3888 0.973133 14.7962 1.51528 15.0144 2.14081H15.84C16.0946 2.14081 16.3388 2.24195 16.5188 2.42198C16.6989 2.60202 16.8 2.8462 16.8 3.10081V6.38401C16.8 6.63861 16.6989 6.88279 16.5188 7.06283C16.3388 7.24286 16.0946 7.34401 15.84 7.34401ZM9.12 5.42401H14.88V4.06081H14.2368C13.9957 4.06168 13.7631 3.97181 13.5853 3.80907C13.4074 3.64632 13.2973 3.42262 13.2768 3.18241C13.273 2.84628 13.1368 2.52521 12.8978 2.28887C12.6587 2.05253 12.3361 1.91999 12 1.92001C11.8328 1.91872 11.6671 1.95078 11.5124 2.01431C11.3578 2.07783 11.2174 2.17156 11.0994 2.28999C10.9814 2.40843 10.8882 2.54921 10.8253 2.70408C10.7623 2.85896 10.7309 3.02484 10.7328 3.19201C10.71 3.43049 10.5989 3.65185 10.4213 3.81261C10.2437 3.97336 10.0124 4.06189 9.7728 4.06081H9.12V5.42401Z"
        fill="#7D2BD9"
      />
      <path
        d="M11.1024 16.584C10.8509 16.5881 10.6079 16.4933 10.4256 16.32L8.9568 14.856C8.86761 14.7668 8.79685 14.6609 8.74858 14.5444C8.70031 14.4279 8.67546 14.303 8.67546 14.1768C8.67546 14.0507 8.70031 13.9258 8.74858 13.8092C8.79685 13.6927 8.86761 13.5868 8.9568 13.4976C9.04599 13.4084 9.15188 13.3377 9.26842 13.2894C9.38496 13.2411 9.50986 13.2163 9.636 13.2163C9.76214 13.2163 9.88704 13.2411 10.0036 13.2894C10.1201 13.3377 10.226 13.4084 10.3152 13.4976L11.1024 14.2848L13.6848 11.7024C13.8649 11.5223 14.1092 11.4211 14.364 11.4211C14.6187 11.4211 14.8631 11.5223 15.0432 11.7024C15.2233 11.8825 15.3245 12.1269 15.3245 12.3816C15.3245 12.6364 15.2233 12.8807 15.0432 13.0608L11.784 16.32C11.6005 16.4945 11.3555 16.5893 11.1024 16.584Z"
        fill="#7D2BD9"
      />
    </g>
    <defs>
      <clipPath id="clip0">
        <rect width="24" height="24" fill="white" />
      </clipPath>
    </defs>
  </svg>