 <svg
    width="22"
    height="22"
    viewBox="0 0 22 22"
    fill="none"
    xmlns="http://www.w3.org/2000/svg"
  >
    <path
      d="M19.3292 13.7148C19.0958 13.7148 18.872 13.6221 18.7069 13.457C18.5419 13.292 18.4492 13.0682 18.4492 12.8348V5.93998C18.4492 5.69492 18.3519 5.4599 18.1786 5.28661C18.0053 5.11333 17.7703 5.01598 17.5252 5.01598H4.4748C4.22974 5.01598 3.99472 5.11333 3.82144 5.28661C3.64815 5.4599 3.5508 5.69492 3.5508 5.93998V12.8348C3.5508 13.0682 3.45809 13.292 3.29306 13.457C3.12802 13.6221 2.90419 13.7148 2.6708 13.7148C2.43741 13.7148 2.21358 13.6221 2.04855 13.457C1.88352 13.292 1.7908 13.0682 1.7908 12.8348V5.93998C1.79197 5.2285 2.07512 4.54649 2.57821 4.04339C3.08131 3.5403 3.76332 3.25714 4.4748 3.25598H17.5252C18.2367 3.25714 18.9187 3.5403 19.4218 4.04339C19.9249 4.54649 20.208 5.2285 20.2092 5.93998V12.8348C20.2092 13.0682 20.1165 13.292 19.9515 13.457C19.7864 13.6221 19.5626 13.7148 19.3292 13.7148Z"
      fill="#ffffff"
    />
    <path
      d="M19.712 18.744H2.288C1.68118 18.744 1.09922 18.503 0.67014 18.0739C0.241056 17.6448 0 17.0628 0 16.456L0 15.0524C0 14.819 0.092714 14.5952 0.257746 14.4302C0.422778 14.2651 0.646609 14.1724 0.88 14.1724H21.12C21.3534 14.1724 21.5772 14.2651 21.7423 14.4302C21.9073 14.5952 22 14.819 22 15.0524V16.456C22 17.0628 21.7589 17.6448 21.3299 18.0739C20.9008 18.503 20.3188 18.744 19.712 18.744ZM1.76 15.9324V16.456C1.76 16.5254 1.77366 16.594 1.80019 16.6581C1.82673 16.7221 1.86562 16.7803 1.91465 16.8294C1.96368 16.8784 2.02188 16.9173 2.08594 16.9438C2.15 16.9704 2.21866 16.984 2.288 16.984H19.712C19.7813 16.984 19.85 16.9704 19.9141 16.9438C19.9781 16.9173 20.0363 16.8784 20.0854 16.8294C20.1344 16.7803 20.1733 16.7221 20.1998 16.6581C20.2263 16.594 20.24 16.5254 20.24 16.456V15.9324H1.76Z"
      fill="#ffffff"
    />
    <path
      d="M9.4908 13.3936C9.3484 13.392 9.20832 13.3573 9.0816 13.2924C8.9396 13.2178 8.82069 13.1058 8.73771 12.9686C8.65473 12.8313 8.61085 12.674 8.6108 12.5136V6.76278C8.61026 6.60187 8.65385 6.44389 8.73683 6.30602C8.81981 6.16815 8.939 6.05568 9.08145 5.98082C9.22389 5.90597 9.38413 5.87161 9.54474 5.88148C9.70535 5.89134 9.86019 5.94506 9.9924 6.03678L14.1636 8.90998C14.2816 8.99079 14.3781 9.09914 14.4448 9.22564C14.5114 9.35214 14.5463 9.49298 14.5463 9.63598C14.5463 9.77898 14.5114 9.91982 14.4448 10.0463C14.3781 10.1728 14.2816 10.2812 14.1636 10.362L9.9924 13.2352C9.84526 13.3379 9.67024 13.3932 9.4908 13.3936ZM10.3708 8.43478V10.8372L12.1308 9.63598L10.3708 8.43478Z"
      fill="#ffffff"
    />
  </svg>