<svg width="22" height="22" viewBox="0 0 22 22" fill="none" xmlns="http://www.w3.org/2000/svg">
<path d="M19.2547 8.87635C17.6112 8.07908 15.7333 8.24779 14.1045 9.34029C12.9606 10.1063 12.0752 11.2777 11.2916 12.3103L11.2246 12.3987C9.53554 14.63 8.15723 16.1878 5.84396 15.8857C4.82999 15.7497 3.76109 15.2313 3.18244 14.5796C2.13363 13.3987 1.74787 11.8831 2.1256 10.4205C2.56896 8.69948 3.86691 7.37025 5.3564 7.11176C7.06824 6.81652 8.46531 7.27094 9.50875 8.46139C9.596 8.56073 9.70166 8.64164 9.81969 8.6995C9.93772 8.75737 10.0658 8.79105 10.1967 8.79863C10.3275 8.80621 10.4586 8.78754 10.5823 8.74368C10.706 8.69982 10.8201 8.63164 10.9179 8.54302C11.0157 8.4544 11.0953 8.34709 11.1523 8.2272C11.2093 8.10731 11.2424 7.9772 11.2499 7.8443C11.2574 7.71139 11.239 7.57829 11.1958 7.4526C11.1526 7.32691 11.0855 7.21109 10.9982 7.11176C9.50741 5.41383 7.38167 4.70363 5.01885 5.11315C2.77122 5.50226 0.831669 7.42603 0.19676 9.90762C-0.065853 10.9609 -0.0655824 12.0641 0.197547 13.1172C0.460677 14.1704 0.97835 15.1402 1.70366 15.9388C2.60647 16.9538 4.0973 17.7075 5.59482 17.898C9.22344 18.366 11.2983 15.6313 12.8105 13.6354L12.8775 13.5457C13.5633 12.6395 14.3402 11.6124 15.2055 11.0314C15.9449 10.5362 17.0982 10.0791 18.3961 10.7063C19.0471 11.0233 19.5481 11.5103 19.7677 12.0436C20.1696 13.0287 20.0464 14.0164 19.3981 14.9007C19.0775 15.3156 18.6485 15.6306 18.1601 15.8096C17.6717 15.9886 17.1436 16.0244 16.6361 15.913C15.9757 15.7538 15.3609 15.3497 15.0675 14.8858C14.9995 14.7686 14.9089 14.6666 14.8012 14.5858C14.6936 14.5049 14.571 14.447 14.4407 14.4153C14.3105 14.3836 14.1754 14.3788 14.0433 14.4013C13.9112 14.4237 13.785 14.473 13.672 14.546C13.5591 14.6191 13.4618 14.7145 13.3859 14.8266C13.31 14.9386 13.2571 15.065 13.2304 15.1983C13.2036 15.3316 13.2035 15.4689 13.2301 15.6022C13.2567 15.7355 13.3094 15.862 13.3852 15.9742C13.9585 16.8844 15.0006 17.5986 16.1726 17.8789C16.5097 17.9599 16.8549 18.0005 17.2013 18C17.9355 18.0002 18.6599 17.8292 19.3188 17.5002C19.9776 17.1711 20.5533 16.6928 21.0014 16.1021C22.073 14.6313 22.2926 12.9076 21.6095 11.2505C21.1943 10.26 20.3598 9.41239 19.2547 8.87635Z" fill="#7D2BD9"/>
</svg>
