<svg width="10" height="86" viewBox="0 0 10 86" fill="none" xmlns="http://www.w3.org/2000/svg">
<path d="M4 30C4 30.5523 4.44772 31 5 31C5.55228 31 6 30.5523 6 30H4ZM6 1C6 0.447716 5.55228 -2.41412e-08 5 0C4.44772 2.41411e-08 4 0.447716 4 1L6 1ZM6 30L6 1L4 1L4 30H6Z" fill="#E5E5E5"/>
<path d="M6 85C6 85.5523 5.55228 86 5 86C4.44772 86 4 85.5523 4 85L6 85ZM4 41C4 40.4477 4.44772 40 5 40C5.55229 40 6 40.4477 6 41L4 41ZM4 85L4 41L6 41L6 85L4 85Z" fill="#E5E5E5"/>
<rect x="-1" y="1" width="8" height="14" rx="4" transform="matrix(-1 -8.74228e-08 -8.74228e-08 1 8 30)" fill="white" stroke="#E5E5E5" stroke-width="2"/>
</svg>
