<svg fill="none" stroke-linecap="square" stroke-miterlimit="10" viewBox="0 0 749.29133858 123.64041995" xmlns="http://www.w3.org/2000/svg" xmlns:xlink="http://www.w3.org/1999/xlink"><clipPath id="a"><path d="m0 0h749.2913v123.64042h-749.2913z"/></clipPath><g clip-path="url(#a)"><path d="m0 0h749.2913v123.64042h-749.2913z" fill="none"/><path d="m379.78467 17.165668h110.078766v59.748028h-110.078766z" fill="#f3f3f3"/><path d="m379.78467 17.165668h110.078766v59.748028h-110.078766z" stroke="#b7b7b7" stroke-linecap="butt" stroke-linejoin="round"/><path d="m407.2563 53.959682v-13.59375h4.6875q1.578125 0 2.421875.1875 1.15625.265625 1.984375.96875 1.078125.921875 1.609375 2.34375.53125 1.40625.53125 3.21875 0 1.546875-.359375 2.75-.359375 1.1875-.921875 1.984375-.5625.78125-1.234375 1.234375-.671875.4375-1.625.671875-.953125.234375-2.1875.234375zm1.796875-1.609375h2.90625q1.34375 0 2.109375-.25.765625-.25 1.21875-.703125.640625-.640625 1-1.71875.359375-1.078125.359375-2.625 0-2.125-.703125-3.265625-.703125-1.15625-1.703125-1.546875-.71875-.28125-2.328125-.28125h-2.859375zm18.207306-1.5625 1.71875.21875q-.40625 1.5-1.515625 2.34375-1.09375.828125-2.8125.828125-2.15625 0-3.421875-1.328125-1.265625-1.328125-1.265625-3.734375 0-2.484375 1.265625-3.859375 1.28125-1.375 3.328125-1.375 1.984375 0 3.234375 1.34375 1.25 1.34375 1.25 3.796875 0 .140625-.015625.4375h-7.34375q.09375 1.625.921875 2.484375.828125.859375 2.0625.859375.90625 0 1.546875-.46875.65625-.484375 1.046875-1.546875zm-5.484375-2.703125h5.5q-.109375-1.234375-.625-1.859375-.796875-.96875-2.078125-.96875-1.140625 0-1.9375.78125-.78125.765625-.859375 2.046875zm9.110107 9.65625v-13.640625h1.53125v1.28125q.53125-.75 1.203125-1.125.6875-.375 1.640625-.375 1.265625 0 2.234375.65625.96875.640625 1.453125 1.828125.5 1.1875.5 2.59375 0 1.515625-.546875 2.734375-.546875 1.203125-1.578125 1.84375-1.03125.640625-2.171875.640625-.84375 0-1.515625-.34375-.65625-.359375-1.078125-.890625v4.796875zm1.515625-8.65625q0 1.90625.765625 2.8125.78125.90625 1.875.90625 1.109375 0 1.890625-.9375.796875-.9375.796875-2.921875 0-1.875-.78125-2.8125-.765625-.9375-1.84375-.9375-1.0625 0-1.890625 1-.8125 1-.8125 2.890625zm8.828827 4.875v-13.59375h1.671875v13.59375zm3.5510864-4.921875q0-2.734375 1.53125-4.0625 1.265625-1.09375 3.09375-1.09375 2.03125 0 3.3125 1.34375 1.296875 1.328125 1.296875 3.671875 0 1.90625-.578125 3-.5625 1.078125-1.65625 1.6875-1.078125.59375-2.375.59375-2.0625 0-3.34375-1.328125-1.28125-1.328125-1.28125-3.8125zm1.71875 0q0 1.890625.828125 2.828125.828125.9375 2.078125.9375 1.25 0 2.0625-.9375.828125-.953125.828125-2.890625 0-1.828125-.828125-2.765625-.828125-.9375-2.0625-.9375-1.25 0-2.078125.9375-.828125.9375-.828125 2.828125zm9.203827 8.71875-.171875-1.5625q.546875.140625.953125.140625.546875 0 .875-.1875.34375-.1875.5625-.515625.15625-.25.5-1.25.046875-.140625.15625-.40625l-3.734375-9.875h1.796875l2.046875 5.71875q.40625 1.078125.71875 2.28125.28125-1.15625.6875-2.25l2.09375-5.75h1.671875l-3.75 10.03125q-.59375 1.625-.9375 2.234375-.4375.828125-1.015625 1.203125-.578125.390625-1.375.390625-.484375 0-1.078125-.203125z" fill="#434343"/><path d="m506.1785 17.165668h110.078705v59.748028h-110.078705z" fill="#f3f3f3"/><path d="m506.1785 17.165668h110.078705v59.748028h-110.078705z" stroke="#b7b7b7" stroke-linecap="butt" stroke-linejoin="round"/><path d="m533.6592 53.959682v-13.59375h4.6875q1.578125 0 2.421875.1875 1.15625.265625 1.984375.96875 1.078125.921875 1.609375 2.34375.53125 1.40625.53125 3.21875 0 1.546875-.359375 2.75-.359375 1.1875-.921875 1.984375-.5625.78125-1.234375 1.234375-.671875.4375-1.625.671875-.953125.234375-2.1875.234375zm1.796875-1.609375h2.90625q1.34375 0 2.109375-.25.765625-.25 1.21875-.703125.640625-.640625 1-1.71875.359375-1.078125.359375-2.625 0-2.125-.703125-3.265625-.703125-1.15625-1.703125-1.546875-.71875-.28125-2.328125-.28125h-2.859375zm18.207336-1.5625 1.71875.21875q-.40625 1.5-1.515625 2.34375-1.09375.828125-2.8125.828125-2.15625 0-3.421875-1.328125-1.265625-1.328125-1.265625-3.734375 0-2.484375 1.265625-3.859375 1.28125-1.375 3.328125-1.375 1.984375 0 3.234375 1.34375 1.25 1.34375 1.25 3.796875 0 .140625-.015625.4375h-7.34375q.09375 1.625.921875 2.484375.828125.859375 2.0625.859375.90625 0 1.546875-.46875.65625-.484375 1.046875-1.546875zm-5.484375-2.703125h5.5q-.109375-1.234375-.625-1.859375-.796875-.96875-2.078125-.96875-1.140625 0-1.9375.78125-.78125.765625-.859375 2.046875zm9.078857 5.875v-13.59375h1.671875v13.59375zm4.1917114-11.6875v-1.90625h1.671875v1.90625zm0 11.6875v-9.859375h1.671875v9.859375zm6.8635254 0-3.75-9.859375h1.765625l2.125 5.90625q.34375.953125.625 1.984375.21875-.78125.625-1.875l2.1875-6.015625h1.71875l-3.734375 9.859375zm13.34375-3.171875 1.71875.21875q-.40625 1.5-1.515625 2.34375-1.09375.828125-2.8125.828125-2.15625 0-3.421875-1.328125-1.265625-1.328125-1.265625-3.734375 0-2.484375 1.265625-3.859375 1.28125-1.375 3.328125-1.375 1.984375 0 3.234375 1.34375 1.25 1.34375 1.25 3.796875 0 .140625-.015625.4375h-7.34375q.09375 1.625.921875 2.484375.828125.859375 2.0625.859375.90625 0 1.546875-.46875.65625-.484375 1.046875-1.546875zm-5.484375-2.703125h5.5q-.109375-1.234375-.625-1.859375-.796875-.96875-2.078125-.96875-1.140625 0-1.9375.78125-.78125.765625-.859375 2.046875zm9.094482 5.875v-9.859375h1.5v1.5q.578125-1.046875 1.0625-1.375.484375-.34375 1.078125-.34375.84375 0 1.71875.546875l-.578125 1.546875q-.609375-.359375-1.234375-.359375-.546875 0-.984375.328125-.421875.328125-.609375.90625-.28125.890625-.28125 1.953125v5.15625z" fill="#434343"/><path d="m126.99826 17.165668h110.078735v59.748028h-110.078735z" fill="#f3f3f3"/><path d="m126.99826 17.165668h110.078735v59.748028h-110.078735z" stroke="#b7b7b7" stroke-linecap="butt" stroke-linejoin="round"/><path d="m162.68593 53.959682v-13.59375h5.109375q1.546875 0 2.484375.40625.953125.40625 1.484375 1.265625.53125.859375.53125 1.796875 0 .875-.46875 1.65625-.46875.765625-1.4375 1.234375 1.234375.359375 1.890625 1.234375.671875.875.671875 2.0625 0 .953125-.40625 1.78125-.390625.8125-.984375 1.265625-.59375.4375-1.5.671875-.890625.21875-2.1875.21875zm1.796875-7.890625h2.9375q1.203125 0 1.71875-.15625.6875-.203125 1.03125-.671875.359375-.46875.359375-1.1875 0-.671875-.328125-1.1875-.328125-.515625-.9375-.703125-.59375-.203125-2.0625-.203125h-2.71875zm0 6.28125h3.390625q.875 0 1.21875-.0625.625-.109375 1.046875-.359375.421875-.265625.6875-.765625.265625-.5.265625-1.140625 0-.765625-.390625-1.328125-.390625-.5625-1.078125-.78125-.6875-.234375-1.984375-.234375h-3.15625zm16.959198 1.609375v-1.453125q-1.140625 1.671875-3.125 1.671875-.859375 0-1.625-.328125-.75-.34375-1.125-.84375-.359375-.5-.515625-1.234375-.09375-.5-.09375-1.5625v-6.109375h1.671875v5.46875q0 1.3125.09375 1.765625.15625.65625.671875 1.03125.515625.375 1.265625.375.75 0 1.40625-.375.65625-.390625.921875-1.046875.28125-.671875.28125-1.9375v-5.28125h1.671875v9.859375zm3.9382172-11.6875v-1.90625h1.671875v1.90625zm0 11.6875v-9.859375h1.671875v9.859375zm4.097946 0v-13.59375h1.671875v13.59375zm10.566696 0v-1.25q-.9375 1.46875-2.75 1.46875-1.171875 0-2.171875-.640625-.984375-.65625-1.53125-1.8125-.53125-1.171875-.53125-2.6875 0-1.46875.484375-2.671875.5-1.203125 1.46875-1.84375.984375-.640625 2.203125-.640625.890625 0 1.578125.375.703125.375 1.140625.984375v-4.875h1.65625v13.59375zm-5.28125-4.921875q0 1.890625.796875 2.828125.8125.9375 1.890625.9375 1.09375 0 1.859375-.890625.765625-.890625.765625-2.734375 0-2.015625-.78125-2.953125-.78125-.953125-1.921875-.953125-1.109375 0-1.859375.90625-.75.90625-.75 2.859375z" fill="#434343"/><path d="m253.39113 17.165668h110.07875v59.748028h-110.07875z" fill="#f3f3f3"/><path d="m253.39113 17.165668h110.07875v59.748028h-110.07875z" stroke="#b7b7b7" stroke-linecap="butt" stroke-linejoin="round"/><path d="m295.21082 53.959682v-12h-4.46875v-1.59375h10.765625v1.59375h-4.5v12zm14.474121-3.171875 1.71875.21875q-.40625 1.5-1.515625 2.34375-1.09375.828125-2.8125.828125-2.15625 0-3.421875-1.328125-1.265625-1.328125-1.265625-3.734375 0-2.484375 1.265625-3.859375 1.28125-1.375 3.328125-1.375 1.984375 0 3.234375 1.34375 1.25 1.34375 1.25 3.796875 0 .140625-.015625.4375h-7.34375q.09375 1.625.921875 2.484375.828125.859375 2.0625.859375.90625 0 1.546875-.46875.65625-.484375 1.046875-1.546875zm-5.484375-2.703125h5.5q-.109375-1.234375-.625-1.859375-.796875-.96875-2.078125-.96875-1.140625 0-1.9375.78125-.78125.765625-.859375 2.046875zm8.438202 2.9375 1.65625-.265625q.140625 1 .765625 1.53125.640625.515625 1.78125.515625 1.15625 0 1.703125-.46875.5625-.46875.5625-1.09375 0-.5625-.484375-.890625-.34375-.21875-1.703125-.5625-1.84375-.46875-2.5625-.796875-.703125-.34375-1.078125-.9375-.359375-.609375-.359375-1.328125 0-.65625.296875-1.21875.3125-.5625.828125-.9375.390625-.28125 1.0625-.484375.671875-.203125 1.4375-.203125 1.171875 0 2.046875.34375.875.328125 1.28125.90625.421875.5625.578125 1.515625l-1.625.21875q-.109375-.75-.65625-1.171875-.53125-.4375-1.5-.4375-1.15625 0-1.640625.390625-.484375.375-.484375.875 0 .328125.203125.59375.203125.265625.640625.4375.25.09375 1.46875.4375 1.765625.46875 2.46875.765625.703125.296875 1.09375.875.40625.578125.40625 1.4375 0 .828125-.484375 1.578125-.484375.734375-1.40625 1.140625-.921875.390625-2.078125.390625-1.921875 0-2.9375-.796875-1-.796875-1.28125-2.359375zm13.65625 1.4375.234375 1.484375q-.703125.140625-1.265625.140625-.90625 0-1.40625-.28125-.5-.296875-.703125-.75-.203125-.46875-.203125-1.984375v-5.65625h-1.234375v-1.3125h1.234375v-2.4375l1.65625-1v3.4375h1.6875v1.3125h-1.6875v5.75q0 .71875.078125.921875.09375.203125.296875.328125.203125.125.578125.125.265625 0 .734375-.078125z" fill="#434343"/><path d="m237.077 47.039684h8.156998v.0629921h8.157974" fill="none"/><path d="m237.077 47.039684h8.156982v.0629921h2.1579742" fill-rule="evenodd" stroke="#000" stroke-linecap="butt" stroke-linejoin="round"/><path d="m247.39195 48.754406 4.538101-1.6517296-4.538101-1.6517334z" fill="#000" fill-rule="evenodd" stroke="#000" stroke-linecap="butt"/><path d="m363.46988 47.039684h8.157471v.0629921h8.157471" fill="none"/><path d="m363.46985 47.039684h8.157501v.0629921h2.1574707" fill-rule="evenodd" stroke="#000" stroke-linecap="butt" stroke-linejoin="round"/><path d="m373.78482 48.754406 4.538086-1.6517296-4.538086-1.6517334z" fill="#000" fill-rule="evenodd" stroke="#000" stroke-linecap="butt"/><path d="m489.86343 47.039684h8.157471v.0629921h8.157471" fill="none"/><path d="m489.86343 47.039684h8.157471v.0629921h2.1575012" fill-rule="evenodd" stroke="#000" stroke-linecap="butt" stroke-linejoin="round"/><path d="m500.1784 48.754406 4.538086-1.6517296-4.538086-1.6517334z" fill="#000" fill-rule="evenodd" stroke="#000" stroke-linecap="butt"/><path d="m.6036661 17.165668h110.078735v59.748028h-110.078735z" fill="#f3f3f3"/><path d="m.6036661 17.165668h110.078735v59.748028h-110.078735z" stroke="#b7b7b7" stroke-linecap="butt" stroke-linejoin="round"/><path d="m44.514862 49.194057 1.796875.453125q-.5625 2.21875-2.03125 3.390625-1.46875 1.15625-3.59375 1.15625-2.203125 0-3.578125-.890625-1.375-.90625-2.09375-2.59375-.71875-1.703125-.71875-3.65625 0-2.125.796875-3.703125.8125-1.578125 2.3125-2.390625 1.5-.828125 3.296875-.828125 2.046875 0 3.4375 1.046875 1.390625 1.03125 1.9375 2.90625l-1.765625.421875q-.46875-1.484375-1.375-2.15625-.90625-.6875-2.265625-.6875-1.5625 0-2.625.75-1.046875.75-1.484375 2.03125-.421875 1.265625-.421875 2.609375 0 1.734375.5 3.03125.515625 1.28125 1.578125 1.921875 1.078125.640625 2.3125.640625 1.515625 0 2.5625-.859375 1.046875-.875 1.421875-2.59375zm2.9260712-.15625q0-2.734375 1.53125-4.0625 1.265625-1.09375 3.09375-1.09375 2.03125 0 3.3125 1.34375 1.296875 1.328125 1.296875 3.671875 0 1.90625-.578125 3-.5625 1.078125-1.65625 1.6875-1.078125.59375-2.375.59375-2.0625 0-3.34375-1.328125-1.28125-1.328125-1.28125-3.8125zm1.71875 0q0 1.890625.828125 2.828125.828125.9375 2.078125.9375 1.25 0 2.0625-.9375.828125-.953125.828125-2.890625 0-1.828125-.828125-2.765625-.828125-.9375-2.0625-.9375-1.25 0-2.078125.9375-.828125.9375-.828125 2.828125zm15.672592 4.921875v-1.25q-.9375 1.46875-2.75 1.46875-1.171875 0-2.171875-.640625-.984375-.65625-1.53125-1.8125-.53125-1.171875-.53125-2.6875 0-1.46875.484375-2.671875.5-1.203125 1.46875-1.84375.984375-.640625 2.203125-.640625.890625 0 1.578125.375.703125.375 1.140625.984375v-4.875h1.65625v13.59375zm-5.28125-4.921875q0 1.890625.796875 2.828125.8125.9375 1.890625.9375 1.09375 0 1.859375-.890625.765625-.890625.765625-2.734375 0-2.015625-.78125-2.953125-.78125-.953125-1.921875-.953125-1.109375 0-1.859375.90625-.75.90625-.75 2.859375zm16.016342 1.75 1.71875.21875q-.40625 1.5-1.515625 2.34375-1.09375.828125-2.8125.828125-2.15625 0-3.421875-1.328125-1.265625-1.328125-1.265625-3.734375 0-2.484375 1.265625-3.859375 1.28125-1.375 3.328125-1.375 1.984375 0 3.234375 1.34375 1.25 1.34375 1.25 3.796875 0 .140625-.015625.4375h-7.34375q.09375 1.625.921875 2.484375.828125.859375 2.0625.859375.90625 0 1.546875-.46875.65625-.484375 1.046875-1.546875zm-5.484375-2.703125h5.5q-.109375-1.234375-.625-1.859375-.796875-.96875-2.078125-.96875-1.140625 0-1.9375.78125-.78125.765625-.859375 2.046875z" fill="#434343"/><path d="m110.6824 47.039684h8.157974v.0629921h8.15699" fill="none"/><path d="m110.6824 47.039684h8.157974v.0629921h2.15699" fill-rule="evenodd" stroke="#000" stroke-linecap="butt" stroke-linejoin="round"/><path d="m120.99737 48.754406 4.5380936-1.6517296-4.5380936-1.6517334z" fill="#000" fill-rule="evenodd" stroke="#000" stroke-linecap="butt"/><path d="m632.5722 17.197165h110.078735v59.74803h-110.078735z" fill="#f3f3f3"/><path d="m632.5722 17.197165h110.078735v59.74803h-110.078735z" stroke="#b7b7b7" stroke-linecap="butt" stroke-linejoin="round"/><path d="m657.91345 53.991177v-13.59375h2.71875l3.21875 9.625q.4375 1.34375.640625 2.015625.234375-.75.734375-2.1875l3.25-9.453125h2.421875v13.59375h-1.734375v-11.390625l-3.953125 11.390625h-1.625l-3.9375-11.578125v11.578125zm14.7595215-4.921875q0-2.734375 1.53125-4.0625 1.265625-1.09375 3.09375-1.09375 2.03125 0 3.3125 1.34375 1.296875 1.328125 1.296875 3.671875 0 1.90625-.578125 3-.5625 1.078125-1.65625 1.6875-1.078125.59375-2.375.59375-2.0625 0-3.34375-1.328125-1.28125-1.328125-1.28125-3.8125zm1.71875 0q0 1.890625.828125 2.828125.828125.9375 2.078125.9375 1.25 0 2.0625-.9375.828125-.953125.828125-2.890625 0-1.828125-.828125-2.765625-.828125-.9375-2.0625-.9375-1.25 0-2.078125.9375-.828125.9375-.828125 2.828125zm9.281982 4.921875v-9.859375h1.5v1.40625q1.09375-1.625 3.140625-1.625.890625 0 1.640625.328125.75.3125 1.109375.84375.375.515625.53125 1.21875.09375.46875.09375 1.625v6.0625h-1.671875v-6q0-1.015625-.203125-1.515625-.1875-.515625-.6875-.8125-.5-.296875-1.171875-.296875-1.0625 0-1.84375.671875-.765625.671875-.765625 2.578125v5.375zm10.391357-11.6875v-1.90625h1.671875v1.90625zm0 11.6875v-9.859375h1.671875v9.859375zm7.7854614-1.5.234375 1.484375q-.703125.140625-1.265625.140625-.90625 0-1.40625-.28125-.5-.296875-.703125-.75-.203125-.46875-.203125-1.984375v-5.65625h-1.234375v-1.3125h1.234375v-2.4375l1.65625-1v3.4375h1.6875v1.3125h-1.6875v5.75q0 .71875.078125.921875.09375.203125.296875.328125.203125.125.578125.125.265625 0 .734375-.078125zm.9020386-3.421875q0-2.734375 1.53125-4.0625 1.265625-1.09375 3.09375-1.09375 2.03125 0 3.3125 1.34375 1.296875 1.328125 1.296875 3.671875 0 1.90625-.578125 3-.5625 1.078125-1.65625 1.6875-1.078125.59375-2.375.59375-2.0625 0-3.34375-1.328125-1.28125-1.328125-1.28125-3.8125zm1.71875 0q0 1.890625.828125 2.828125.828125.9375 2.078125.9375 1.25 0 2.0625-.9375.828125-.953125.828125-2.890625 0-1.828125-.828125-2.765625-.828125-.9375-2.0625-.9375-1.25 0-2.078125.9375-.828125.9375-.828125 2.828125zm9.266357 4.921875v-9.859375h1.5v1.5q.578125-1.046875 1.0625-1.375.484375-.34375 1.078125-.34375.84375 0 1.71875.546875l-.578125 1.546875q-.609375-.359375-1.234375-.359375-.546875 0-.984375.328125-.421875.328125-.609375.90625-.28125.890625-.28125 1.953125v5.15625z" fill="#434343"/><path d="m616.2572 47.039684h8.157532v.0629921h8.157471" fill="none"/><path d="m616.2572 47.039684h8.157471v.0629921h2.1575317" fill-rule="evenodd" stroke="#000" stroke-linecap="butt" stroke-linejoin="round"/><path d="m626.5722 48.754406 4.538086-1.6517296-4.538086-1.6517334z" fill="#000" fill-rule="evenodd" stroke="#000" stroke-linecap="butt"/><path d="m122.45407 21.774279c0-11.06309 8.968399-20.031496 20.031494-20.031496h205.95276c5.312683 0 10.407776 2.1104553 14.164398 5.8670893 3.7566528 3.7566342 5.867096 8.851725 5.867096 14.164408v80.125984c0 11.063095-8.968414 20.031494-20.031494 20.031494h-205.95276c-11.063095 0-20.031494-8.968399-20.031494-20.031494z" fill="none"/><path d="m122.45407 21.774279c0-11.06309 8.968399-20.031496 20.031494-20.031496h205.95276c5.312683 0 10.407776 2.1104553 14.164398 5.8670893 3.7566528 3.7566342 5.867096 8.851725 5.867096 14.164408v80.125984c0 11.063095-8.968414 20.031494-20.031494 20.031494h-205.95276c-11.063095 0-20.031494-8.968399-20.031494-20.031494z" stroke="#90f" stroke-linecap="butt" stroke-linejoin="round"/><path d="m247.3057 98.21911 1.796875.453125q-.5625 2.21875-2.03125 3.390625-1.46875 1.15625-3.59375 1.15625-2.203125 0-3.578125-.890625-1.375-.90625-2.09375-2.59375-.71875-1.703125-.71875-3.65625 0-2.125.796875-3.703125.8125-1.578125 2.3125-2.390625 1.5-.828125 3.296875-.828125 2.046875 0 3.4375 1.046875 1.390625 1.03125 1.9375 2.90625l-1.765625.421875q-.46875-1.484375-1.375-2.15625-.90625-.6875-2.265625-.6875-1.5625 0-2.625.75-1.046875.75-1.484375 2.03125-.421875 1.265625-.421875 2.609375 0 1.734375.5 3.03125.515625 1.28125 1.578125 1.921875 1.078125.640625 2.3125.640625 1.515625 0 2.5625-.859375 1.046875-.875 1.421875-2.59375zm4.066696 4.765625v-13.59375h1.8125v13.59375z" fill="#90f"/><path d="m373.3924 21.774279c0-11.06309 8.968414-20.031496 20.031494-20.031496h81.102356c5.312683 0 10.407776 2.1104553 14.164429 5.8670893 3.7566223 3.7566342 5.867096 8.851725 5.867096 14.164408v80.125984c0 11.063095-8.968414 20.031494-20.031525 20.031494h-81.102356c-11.06308 0-20.031494-8.968399-20.031494-20.031494z" fill="none"/><path d="m373.3924 21.774279c0-11.06309 8.968414-20.031496 20.031494-20.031496h81.102356c5.312683 0 10.407776 2.1104553 14.164429 5.8670893 3.7566223 3.7566342 5.867096 8.851725 5.867096 14.164408v80.125984c0 11.063095-8.968414 20.031494-20.031525 20.031494h-81.102356c-11.06308 0-20.031494-8.968399-20.031494-20.031494z" stroke="#90f" stroke-linecap="butt" stroke-linejoin="round"/><path d="m431.674 98.21911 1.796875.453125q-.5625 2.21875-2.03125 3.390625-1.46875 1.15625-3.59375 1.15625-2.203125 0-3.578125-.890625-1.375-.90625-2.09375-2.59375-.71875-1.703125-.71875-3.65625 0-2.125.796875-3.703125.8125-1.578125 2.3125-2.390625 1.5-.828125 3.296875-.828125 2.046875 0 3.4375 1.046875 1.390625 1.03125 1.9375 2.90625l-1.765625.421875q-.46875-1.484375-1.375-2.15625-.90625-.6875-2.265625-.6875-1.5625 0-2.625.75-1.046875.75-1.484375 2.03125-.421875 1.265625-.421875 2.609375 0 1.734375.5 3.03125.515625 1.28125 1.578125 1.921875 1.078125.640625 2.3125.640625 1.515625 0 2.5625-.859375 1.046875-.875 1.421875-2.59375zm3.769806 4.765625v-13.59375h4.6875q1.578125 0 2.421875.1875 1.15625.265625 1.984375.96875 1.078125.921875 1.609375 2.34375.53125 1.40625.53125 3.21875 0 1.546875-.359375 2.75-.359375 1.1875-.921875 1.984375-.5625.78125-1.234375 1.234375-.671875.4375-1.625.671875-.953125.234375-2.1875.234375zm1.796875-1.609375h2.90625q1.34375 0 2.109375-.25.765625-.25 1.21875-.703125.640625-.640625 1-1.71875.359375-1.078125.359375-2.625 0-2.125-.703125-3.265625-.703125-1.15625-1.703125-1.546875-.71875-.28125-2.328125-.28125h-2.859375z" fill="#90f"/><path d="m499.12674 21.508188c0-11.06309 8.968414-20.031496 20.031525-20.031496h208.94489c5.312683 0 10.407715 2.110455 14.164368 5.8670893 3.7566528 3.7566342 5.8671265 8.851725 5.8671265 14.164408v80.125984c0 11.063095-8.968445 20.031494-20.031494 20.031494h-208.94489c-11.06311 0-20.031525-8.968399-20.031525-20.031494z" fill="none"/><path d="m499.12674 21.508188c0-11.06309 8.968414-20.031496 20.031525-20.031496h208.94489c5.312683 0 10.407715 2.110455 14.164368 5.8670893 3.7566528 3.7566342 5.8671265 8.851725 5.8671265 14.164408v80.125984c0 11.063095-8.968445 20.031494-20.031494 20.031494h-208.94489c-11.06311 0-20.031525-8.968399-20.031525-20.031494z" stroke="#90f" stroke-linecap="butt" stroke-linejoin="round"/><path d="m577.3194 102.71864v-13.59375h5.109375q1.546875 0 2.484375.40625.953125.40625 1.484375 1.265625.53125.859375.53125 1.796875 0 .875-.46875 1.65625-.46875.765625-1.4375 1.234375 1.234375.359375 1.890625 1.234375.671875.875.671875 2.0625 0 .953125-.40625 1.78125-.390625.8125-.984375 1.265625-.59375.4375-1.5.671875-.890625.21875-2.1875.21875zm1.796875-7.890625h2.9375q1.203125 0 1.71875-.15625.6875-.203125 1.03125-.671875.359375-.46875.359375-1.1875 0-.671875-.328125-1.1875-.328125-.515625-.9375-.703125-.59375-.203125-2.0625-.203125h-2.71875zm0 6.28125h3.390625q.875 0 1.21875-.0625.625-.109375 1.046875-.359375.421875-.265625.6875-.765625.265625-.5.265625-1.140625 0-.765625-.390625-1.328125-.390625-.5625-1.078125-.78125-.6875-.234375-1.984375-.234375h-3.15625zm17.256104-1.5625 1.71875.21875q-.40625 1.5-1.515625 2.34375-1.09375.828125-2.8125.828125-2.15625 0-3.421875-1.328125-1.265625-1.328125-1.265625-3.734375 0-2.484375 1.265625-3.859375 1.28125-1.375 3.328125-1.375 1.984375 0 3.234375 1.34375 1.25 1.34375 1.25 3.796875 0 .140625-.015625.4375h-7.34375q.09375 1.625.921875 2.484375.828125.859375 2.0625.859375.90625 0 1.546875-.46875.65625-.484375 1.046875-1.546875zm-5.484375-2.703125h5.5q-.109375-1.234375-.625-1.859375-.796875-.96875-2.078125-.96875-1.140625 0-1.9375.78125-.78125.765625-.859375 2.046875zm9.031982 9.671875-.171875-1.5625q.546875.140625.953125.140625.546875 0 .875-.1875.34375-.1875.5625-.515625.15625-.25.5-1.25.046875-.140625.15625-.40625l-3.734375-9.875h1.796875l2.046875 5.71875q.40625 1.078125.71875 2.28125.28125-1.15625.6875-2.25l2.09375-5.75h1.671875l-3.75 10.03125q-.59375 1.625-.9375 2.234375-.4375.828125-1.015625 1.203125-.578125.390625-1.375.390625-.484375 0-1.078125-.203125zm8.78125-8.71875q0-2.734375 1.53125-4.0625 1.265625-1.09375 3.09375-1.09375 2.03125 0 3.3125 1.34375 1.296875 1.328125 1.296875 3.671875 0 1.90625-.578125 3-.5625 1.078125-1.65625 1.6875-1.078125.59375-2.375.59375-2.0625 0-3.34375-1.328125-1.28125-1.328125-1.28125-3.8125zm1.71875 0q0 1.890625.828125 2.828125.828125.9375 2.078125.9375 1.25 0 2.0625-.9375.828125-.953125.828125-2.890625 0-1.828125-.828125-2.765625-.828125-.9375-2.0625-.9375-1.25 0-2.078125.9375-.828125.9375-.828125 2.828125zm9.281921 4.921875v-9.859375h1.5v1.40625q1.09375-1.625 3.140625-1.625.890625 0 1.640625.328125.75.3125 1.109375.84375.375.515625.53125 1.21875.09375.46875.09375 1.625v6.0625h-1.671875v-6q0-1.015625-.203125-1.515625-.1875-.515625-.6875-.8125-.5-.296875-1.171875-.296875-1.0625 0-1.84375.671875-.765625.671875-.765625 2.578125v5.375zm16.766357 0v-1.25q-.9375 1.46875-2.75 1.46875-1.171875 0-2.171875-.640625-.984375-.65625-1.53125-1.8125-.53125-1.171875-.53125-2.6875 0-1.46875.484375-2.671875.5-1.203125 1.46875-1.84375.984375-.640625 2.203125-.640625.890625 0 1.578125.375.703125.375 1.140625.984375v-4.875h1.65625v13.59375zm-5.28125-4.921875q0 1.890625.796875 2.828125.8125.9375 1.890625.9375 1.09375 0 1.859375-.890625.765625-.890625.765625-2.734375 0-2.015625-.78125-2.953125-.78125-.953125-1.921875-.953125-1.109375 0-1.859375.90625-.75.90625-.75 2.859375zm24.371521.15625 1.796875.453125q-.5625 2.21875-2.03125 3.390625-1.46875 1.15625-3.59375 1.15625-2.203125 0-3.578125-.890625-1.375-.90625-2.09375-2.59375-.71875-1.703125-.71875-3.65625 0-2.125.796875-3.703125.8125-1.578125 2.3125-2.390625 1.5-.828125 3.296875-.828125 2.046875 0 3.4375 1.046875 1.390625 1.03125 1.9375 2.90625l-1.765625.421875q-.46875-1.484375-1.375-2.15625-.90625-.6875-2.265625-.6875-1.5625 0-2.625.75-1.046875.75-1.484375 2.03125-.421875 1.265625-.421875 2.609375 0 1.734375.5 3.03125.515625 1.28125 1.578125 1.921875 1.078125.640625 2.3125.640625 1.515625 0 2.5625-.859375 1.046875-.875 1.421875-2.59375zm3.7698364 4.765625v-13.59375h4.6875q1.578125 0 2.421875.1875 1.15625.265625 1.984375.96875 1.078125.921875 1.609375 2.34375.53125 1.40625.53125 3.21875 0 1.546875-.359375 2.75-.359375 1.1875-.921875 1.984375-.5625.78125-1.234375 1.234375-.671875.4375-1.625.671875-.953125.234375-2.1875.234375zm1.796875-1.609375h2.90625q1.34375 0 2.109375-.25.765625-.25 1.21875-.703125.640625-.640625 1-1.71875.359375-1.078125.359375-2.625 0-2.125-.703125-3.265625-.703125-1.15625-1.703125-1.546875-.71875-.28125-2.328125-.28125h-2.859375z" fill="#90f"/></g></svg>