<svg enable-background="new 0 0 714 184" viewBox="0 0 714 184" xmlns="http://www.w3.org/2000/svg"><ellipse cx="646.46" cy="44.577" fill="#fff" rx="18.312" ry="16.35"/><path d="m649.05 18.662c1.959.805 3.89 1.665 5.791 2.577 2.401-2.464 5.665-3.865 9.05-3.978 1.829 2.917 2.484 6.479 1.722 9.903 22.577 14.11 39.673 36.09 47.39 62.08h-8.397c-7.03-15.1-22.393-25.571-40.22-25.571-24.464 0-44.29 19.724-44.29 44.06 0 4.441.661 8.728 1.889 12.77h-14.798v-13.632h-4.39v13.632h-13.332v-13.632h-17.559v13.632h-13.336v-13.632h-4.39v13.632h-13.336v-13.632h-8.779v13.632h-36.01c0-60.828 49.579-110.14 110.74-110.14 10.852 0 21.339 1.553 31.25 4.446 1.441-2.13 3.479-3.8 5.848-4.801 2.76 2.074 4.653 5.178 5.166 8.661m-2.843 36.19c6.116 0 11.07-4.931 11.07-11.01s-4.958-11.01-11.07-11.01c-6.116 0-11.07 4.931-11.07 11.01s4.958 11.01 11.07 11.01m3.987-3.084c-2.446 0-4.43-1.972-4.43-4.406 0-2.433 1.983-4.406 4.43-4.406 2.446 0 4.429 1.972 4.429 4.406s-1.983 4.406-4.429 4.406" fill="#fb5252"/><path d="m496.47 173.41v-42.775h14.66c2.311 0 4.387.23 6.228.69s3.398 1.16 4.671 2.101c1.273.94 2.247 2.14 2.923 3.599s1.014 3.188 1.014 5.185c0 1.959-.529 3.721-1.586 5.288s-2.605 2.781-4.642 3.643c1.234.333 2.306.818 3.217 1.454.911.637 1.665 1.386 2.262 2.247s1.043 1.812 1.337 2.85.441 2.115.441 3.232c0 2.056-.338 3.863-1.014 5.42s-1.655 2.859-2.938 3.907-2.84 1.836-4.671 2.365-3.902.793-6.214.793h-15.688zm7.433-19.301v13.367h8.255c1.214 0 2.287-.157 3.217-.47s1.709-.759 2.336-1.337 1.097-1.268 1.41-2.071.47-1.694.47-2.673c0-2.115-.558-3.78-1.675-4.994s-2.928-1.821-5.435-1.821h-8.578zm0-5.464h7.286c2.311 0 4.118-.524 5.42-1.572s1.954-2.531 1.954-4.451c0-2.115-.602-3.643-1.807-4.583s-3.08-1.41-5.626-1.41h-7.227v12.02m61.811-18.01v28.614c0 2.448-.416 4.593-1.249 6.434-.832 1.841-1.973 3.378-3.423 4.612s-3.143 2.159-5.082 2.776-4.01.925-6.228.925c-2.292 0-4.412-.308-6.36-.925-1.949-.617-3.638-1.542-5.068-2.776s-2.546-2.771-3.349-4.612-1.204-3.986-1.204-6.434v-28.614h7.403v28.614c0 1.528.201 2.845.602 3.951s.974 2.02 1.719 2.747c.744.725 1.645 1.258 2.703 1.601s2.242.514 3.555.514 2.502-.171 3.569-.514 1.968-.876 2.703-1.601c.734-.725 1.302-1.64 1.704-2.747s.602-2.424.602-3.951v-28.614zm40.719 37.22c-.45.588-1.077 1.239-1.88 1.954s-1.836 1.381-3.099 1.998-2.781 1.136-4.554 1.557-3.853.632-6.243.632c-2.683 0-5.146-.46-7.389-1.381s-4.167-2.252-5.773-3.995-2.855-3.888-3.746-6.434-1.337-5.455-1.337-8.725v-2.82c0-3.251.401-6.155 1.205-8.711.803-2.556 1.959-4.715 3.467-6.478s3.349-3.104 5.523-4.03 4.642-1.381 7.403-1.381c2.605 0 4.877.338 6.816 1.014s3.574 1.621 4.906 2.835 2.38 2.659 3.143 4.333c.764 1.675 1.273 3.511 1.528 5.508h-7.286c-.176-1.116-.47-2.145-.881-3.085s-.974-1.753-1.689-2.438c-.715-.686-1.596-1.224-2.644-1.616s-2.296-.588-3.746-.588c-1.743 0-3.256.323-4.539.969s-2.35 1.591-3.202 2.835-1.488 2.771-1.91 4.583c-.421 1.812-.632 3.873-.632 6.184v2.879c0 2.35.255 4.431.764 6.243s1.239 3.334 2.189 4.568 2.105 2.174 3.467 2.82c1.361.646 2.904.969 4.627.969 1.273 0 2.365-.083 3.276-.25.911-.166 1.679-.377 2.306-.632s1.141-.534 1.542-.837c.401-.304.73-.592.984-.867v-8.373h-8.813v-5.641h16.217v16.396m30.524-5.464c0-.862-.127-1.63-.382-2.306s-.72-1.298-1.395-1.866-1.606-1.111-2.791-1.63-2.708-1.062-4.568-1.63c-2.037-.607-3.917-1.302-5.641-2.086-1.724-.783-3.207-1.694-4.451-2.732s-2.218-2.233-2.923-3.584-1.058-2.899-1.058-4.642c0-1.724.367-3.31 1.102-4.759.734-1.449 1.768-2.703 3.099-3.76 1.332-1.058 2.928-1.88 4.789-2.468s3.917-.881 6.169-.881c2.409 0 4.573.348 6.493 1.043 1.919.695 3.54 1.64 4.862 2.835s2.336 2.58 3.041 4.157 1.058 3.256 1.058 5.04h-7.403c0-1.038-.162-1.993-.485-2.864-.323-.872-.818-1.626-1.484-2.262-.666-.637-1.508-1.131-2.526-1.484s-2.223-.529-3.614-.529c-1.312 0-2.448.147-3.408.441s-1.758.705-2.394 1.234-1.107 1.156-1.41 1.88c-.304.725-.455 1.508-.455 2.35 0 1.586.749 2.908 2.247 3.966s3.785 2.037 6.86 2.938c2.409.705 4.495 1.488 6.258 2.35s3.227 1.836 4.392 2.923 2.032 2.311 2.6 3.672.852 2.894.852 4.598c0 1.802-.357 3.423-1.072 4.862-.715 1.44-1.733 2.664-3.055 3.672-1.322 1.01-2.923 1.782-4.803 2.321s-3.976.808-6.287.808c-2.056 0-4.084-.279-6.081-.837s-3.79-1.4-5.376-2.527-2.864-2.531-3.834-4.216-1.454-3.662-1.454-5.934h7.433c0 1.351.24 2.512.72 3.481s1.136 1.763 1.968 2.38 1.817 1.067 2.953 1.351 2.36.426 3.672.426c2.585 0 4.529-.524 5.832-1.572s1.95-2.434 1.95-4.157m38.955-8.08h-17.568v13.161h20.535v5.934h-27.968v-42.775h27.762v5.993h-20.33v11.81h17.568v5.877zm34.02 0h-17.568v13.161h20.535v5.934h-27.968v-42.775h27.762v5.993h-20.33v11.81h17.568v5.877z" fill="#1e3046"/><g fill="#8c929d"><path d="m107.83 127.37h-7.456l.034 55.58h30.2v-6.875h-22.745l-.034-48.704"/><path d="m-817.98 29.908c-1.881 1.95-4.994 3.899-9.235 3.899-5.678 0-7.969-2.805-7.969-6.464 0-5.507 3.831-8.14 11.971-8.14 1.539 0 4 .171 5.267.41v10.295zm-7.73-33.69c-6.02 0-11.56 2.121-15.87 5.712l2.634 4.583c3.044-1.779 6.772-3.557 12.142-3.557 6.122 0 8.824 3.147 8.824 8.414v2.702c-1.197-.239-3.66-.41-5.165-.41-13.07 0-19.701 4.583-19.701 14.16 0 8.585 5.267 12.894 13.236 12.894 5.37 0 10.534-2.463 12.313-6.464l1.368 5.438h5.267v-28.457c-.033-8.995-3.932-15.02-15.05-15.02" transform="translate(977.33 143.28)"/><path d="m-909.04 34.22c-2.805 0-5.267-.342-7.114-1.197v-23.02-2.668c2.531-2.121 5.678-3.66 9.679-3.66 7.217 0 9.987 5.096 9.987 13.339 0 11.698-4.48 17.205-12.552 17.205m3.147-37.828c-6.669 0-10.261 4.549-10.261 4.549v-7.183l-.034-9.508h-3.352-3.933l.034 54.21c3.66 1.539 8.653 2.36 14.09 2.36 13.921 0 20.624-8.893 20.624-24.25-.034-12.142-6.224-20.18-17.17-20.18" transform="translate(1099.77 143.13)"/><path d="m-557.4-10.235c6.601 0 10.876 2.189 13.647 4.412l3.215-5.575c-4.344-3.831-10.227-5.883-16.52-5.883-15.87 0-26.986 9.679-26.986 29.21 0 20.453 12 28.422 25.72 28.422 6.875 0 12.723-1.608 16.554-3.215l-.171-21.856v-2.565-4.31h-20.351v6.875h12.997l.171 16.588c-1.71.855-4.652 1.539-8.653 1.539-11.01 0-18.401-6.943-18.401-21.548-.034-14.876 7.594-22.09 18.778-22.09" transform="translate(584.04 143.63)"/><path d="m-714.41-15.22h-7.285l.034 9.337v3.831 2.223 3.899 22.23.068c0 8.995 3.899 15.02 15.01 15.02 1.539 0 3.044-.137 4.481-.41v-6.533c-1.06.171-2.189.239-3.386.239-6.122 0-8.824-3.147-8.824-8.414v-22.23h12.21v-6.088h-12.21l-.035-13.169" transform="translate(793.57 142.58)"/><path d="m53.34 182.94h7.285v-42.41h-7.285z"/><path d="m53.34 134.69h7.285v-7.285h-7.285z"/></g><path d="m162.34 59.871-6.451-19.822-12.763-39.32c-.654-2.01-3.506-2.01-4.184 0l-12.763 39.29h-42.4l-12.763-39.29c-.655-2.01-3.506-2.01-4.184 0l-12.739 39.29-6.451 19.845c-.584 1.8.047 3.787 1.589 4.909l55.749 40.509 55.749-40.509c1.543-1.122 2.197-3.109 1.613-4.909" fill="#fc6d26" transform="translate(.532 .775)"/><path d="m-49.668 104.88 21.2-65.24h-42.4z" fill="#e24329" transform="translate(155.2 1.16)"/><path d="m76.983 104.88-21.2-65.24h-29.686l50.887 65.24" fill="#fc6d26" transform="translate(28.531 1.161)"/><path d="m54.53 40.564-6.451 19.822c-.584 1.8.047 3.787 1.589 4.909l55.749 40.509z" fill="#fca326" transform="translate(.089 .256)"/><path d="m25.2-239.44h29.709l-12.786-39.29c-.654-2.01-3.506-2.01-4.184 0z" fill="#e24329" transform="translate(29.422 280.26)"/><path d="m-141.67 104.88 21.2-65.24h29.709l-50.91 65.24" fill="#fc6d26" transform="translate(247.2 1.161)"/><path d="m-89.89 40.564 6.451 19.822c.584 1.8-.047 3.787-1.589 4.909l-55.749 40.485 50.887-65.22" fill="#fca326" transform="translate(246.31 .256)"/><path d="m-180.54-239.44h-29.709l12.763-39.29c.654-2.01 3.506-2.01 4.184 0z" fill="#e24329" transform="translate(336.97 280.26)"/><path d="m360.593 94.089h-9.694v-4.55h9.694v-10.237h4.712v10.236h9.695v4.55h-9.695v10.235h-4.712z" opacity=".5"/></svg>