<svg viewBox="0 0 44 44" xmlns="http://www.w3.org/2000/svg" xmlns:xlink="http://www.w3.org/1999/xlink"><defs><circle id="3" cx="39" cy="22" r="5"/><circle id="2" cx="22" cy="39" r="5"/><circle id="0" cx="5" cy="22" r="5"/><circle id="1" cx="22" cy="5" r="5"/></defs><g fill="none" fill-rule="evenodd"><circle stroke="#fc6d26" stroke-width="3" cx="22" cy="22" r="17.5"/><path d="m26.98 20.944l-.559 1.722-1.109 3.412c-.057.176-.305.176-.362 0l-1.109-3.412h-3.682l-1.109 3.412c-.057.176-.305.176-.362 0l-1.109-3.412-.559-1.722c-.051-.157.005-.329.138-.426l4.842-3.518 4.842 3.518c.134.097.189.269.138.426" fill="#e24329" fill-rule="nonzero" transform="matrix(1 0 0-1 0 43.21)"/><g transform="matrix(.98481.17365-.17365.98481 3.896-.534)"><use fill="#fcba29" xlink:href="#0"/><circle stroke="#fc6d26" stroke-width="3" cx="5" cy="22" r="3.5"/></g><g transform="matrix(.98481.17365-.17365.98481 1.202-3.744)"><use fill="#fcba29" xlink:href="#1"/><circle stroke="#fc6d26" stroke-width="3" cx="22" cy="5" r="3.5"/></g><g transform="matrix(.98481.17365-.17365.98481 7.107-3.228)"><use fill="#fcba29" xlink:href="#2"/><circle stroke="#fc6d26" stroke-width="3" cx="22" cy="39" r="3.5"/></g><g transform="matrix(.98481.17365-.17365.98481 4.413-6.438)"><use fill="#fcba29" xlink:href="#3"/><circle stroke="#fc6d26" stroke-width="3" cx="39" cy="22" r="3.5"/></g></g></svg>