<svg xmlns="http://www.w3.org/2000/svg" viewBox="0 0 1265.9168 600"><defs><style>.cls-1{fill:#380d75;}.cls-2{fill:#6e49cb;}.cls-3{fill:#a686ff;}.cls-4{fill:#341472;}.cls-5{fill:#fff;}.cls-6{fill:#fc6d26;}</style></defs><g id="Layer_2" data-name="Layer 2"><g id="Layer_1-2" data-name="Layer 1"><path class="cls-1" d="M104.31,587.0907V488.6194h0V184.9311H17.8769V109.63C46.5556,104.12,61.492,100.195,81.3521,92.4631c19.86-7.7188,36.4693-19.7869,55.23-30.8283h80.4311V488.6194h0v98.4713Z"/><path class="cls-1" d="M219.9914,590.07h-118.66V187.91H14.8965V107.168l2.4178-.464c29.118-5.5949,43.8284-9.5693,62.9582-17.0161,14.2244-5.5295,26.68-13.2847,39.8656-21.4952,4.83-3.0084,9.8224-6.1172,14.9344-9.1256l.6982-.4117h84.2207ZM107.29,584.1113H214.0328V64.614H137.3971c-4.8064,2.844-9.5343,5.787-14.1109,8.6368-13.4273,8.3619-26.1126,16.26-40.8549,21.99-18.9727,7.3872-33.6336,11.4154-61.5762,16.8474v69.8638H107.29Z"/><path class="cls-1" d="M497.9293,587.0907v-125.78H270.37V377.7364L462.3479,61.6348H611.2985V368.6341h60.4066v92.677H611.2985v125.78ZM387.0462,368.6341H497.9293V186.4675Z"/><path class="cls-1" d="M614.2779,590.07H494.9486V464.29H267.39V376.9028l.4335-.7129L460.6721,58.6554H614.2779V365.6547h60.4066V464.29H614.2779Zm-113.3707-5.9587H608.3193v-125.78h60.4065V371.6133H608.3193V64.614H464.0238L273.3483,378.57v79.7618H500.9072Zm0-212.498H381.7438l119.1634-195.77Zm-108.5613-5.9586H494.9486V197.0927Z"/><path class="cls-1" d="M781.6,587.0907q-31.4573,0-52.5452-21.9287-21.1009-21.9171-21.1024-54.2007,0-33.085,21.1024-55.0269,21.101-21.9171,52.5452-21.9288,31.4354,0,52.5451,21.9288,21.1009,21.9345,21.0995,55.0269,0,32.2734-21.0995,54.2007Q813.0442,587.0789,781.6,587.0907Z"/><path class="cls-1" d="M781.599,590.07c-21.6989,0-40.0984-7.6854-54.6923-22.8423-14.5532-15.1177-21.9346-34.0482-21.9346-56.2664,0-22.7536,7.3784-41.9634,21.9346-57.0927,14.5939-15.1569,32.9934-22.8423,54.6923-22.8423s40.0984,7.6854,54.6924,22.8423c14.5532,15.1278,21.9316,34.3362,21.9316,57.0927,0,22.22-7.3784,41.15-21.9316,56.2664C821.6974,582.3846,803.2979,590.07,781.599,590.07Zm0-153.0851c-20.0172,0-36.9736,7.07-50.398,21.0152-13.4505,13.9815-20.27,31.8005-20.27,52.9612,0,20.6238,6.82,38.1636,20.27,52.1349,13.4244,13.9451,30.3808,21.0151,50.398,21.0151s36.9736-7.07,50.398-21.0151c13.4476-13.9684,20.2674-31.51,20.2674-52.1349,0-21.1636-6.82-38.9812-20.2674-52.9612C818.5726,444.0549,801.6162,436.9849,781.599,436.9849Z"/><path class="cls-1" d="M1056.9606,597.0207q-42.2019,0-76.9586-17.7914-34.7522-17.7841-59.1642-52.5452-24.4178-34.7566-38.0647-86.0594-13.6512-51.297-13.6542-118.3313,0-67.0257,13.6542-117.5036,13.6557-50.4635,38.0647-84.8171,24.396-34.329,59.1642-51.3043,34.7567-16.9506,76.9586-16.9637,42.2019,0,76.9557,16.9637,34.7565,16.97,59.1642,51.3043,24.4,34.3464,38.0647,84.8171,13.6556,50.4852,13.6542,117.5036,0,67.0278-13.6542,118.3313-13.6513,51.3187-38.0647,86.0594-24.4134,34.7523-59.1642,52.5452Q1099.164,597.0135,1056.9606,597.0207Z"/><path class="cls-1" d="M1056.9607,600c-28.4693,0-54.82-6.0954-78.3144-18.1188C955.1377,569.852,934.87,551.8569,918.4,528.3963c-16.4007-23.3442-29.3537-52.6164-38.5069-87.005-9.1241-34.2954-13.7531-74.3662-13.7531-119.098,0-44.7259,4.629-84.5217,13.7589-118.2819,9.159-33.8474,22.1149-62.7021,38.51-85.7655C934.8877,95.06,955.17,77.4783,978.6957,65.9917c23.4911-11.4576,49.8219-17.2663,78.265-17.2663s54.7738,5.8087,78.262,17.2648c23.5056,11.4779,43.7876,29.0584,60.2872,52.2557,16.4066,23.0969,29.3654,51.9516,38.51,85.7655,9.13,33.75,13.7589,73.5458,13.7589,118.2819,0,44.7434-4.629,84.8127-13.7531,119.098-9.1387,34.3551-22.0946,63.6274-38.5069,87.005-16.4909,23.4737-36.7584,41.4673-60.2466,53.4849C1111.781,593.9046,1085.4328,600,1056.9607,600Zm0-545.316c-27.53,0-52.9816,5.6065-75.6523,16.6626C958.69,82.3909,939.1617,99.3328,923.2673,121.698c-15.9876,22.4873-28.6438,50.7049-37.62,83.87-8.99,33.2524-13.5494,72.5245-13.5494,116.7253,0,44.2153,4.5591,83.77,13.5552,117.5647,8.9671,33.7092,21.6262,62.3457,37.6225,85.1139,15.9061,22.66,35.4491,40.0227,58.0819,51.6054,22.65,11.5884,48.0849,17.4641,75.6028,17.4641s52.9524-5.8757,75.6-17.4641c22.6125-11.571,42.1554-28.9348,58.0819-51.6054,16.0079-22.8016,28.6642-51.4367,37.6224-85.1124,8.9961-33.7863,13.5553-73.3407,13.5553-117.5662,0-44.2109-4.5592-83.4831-13.5494-116.7253-8.9641-33.1331-21.62-61.3507-37.62-83.87-15.9119-22.3754-35.44-39.3172-58.0411-50.3529C1109.9422,60.2905,1084.49,54.684,1056.9607,54.684Z"/><path class="cls-2" d="M89.4133,572.1942V473.7229h0V170.0346H2.98V94.733c28.6787-5.5091,43.6151-9.4345,63.4752-17.1664,19.86-7.7189,36.4693-19.7869,55.23-30.8284h80.4311V473.7229h0v98.4713Z"/><path class="cls-2" d="M483.0328,572.1942v-125.78H255.4739V362.84L447.4513,46.7382H596.402V353.7375h60.4066v92.6771H596.402v125.78ZM372.15,353.7375H483.0328V171.571Z"/><path class="cls-2" d="M766.7035,572.1942q-31.4573,0-52.5451-21.9288-21.101-21.9171-21.1025-54.2006,0-33.0852,21.1025-55.027,21.1009-21.9171,52.5451-21.9287,31.4355,0,52.5452,21.9287,21.101,21.9347,21.1,55.027,0,32.2734-21.1,54.2006Q798.1478,572.1825,766.7035,572.1942Z"/><polygon class="cls-3" points="104.31 184.931 89.413 184.931 89.413 473.723 89.413 572.194 104.31 572.194 104.31 488.619 104.31 184.931"/><path class="cls-3" d="M81.3522,92.463c19.86-7.7188,36.4692-19.7868,55.23-30.8282h65.5345V46.7382h-80.431c-18.76,11.0415-35.3694,23.11-55.2295,30.8283C46.5956,85.2984,31.6591,89.2239,2.98,94.733v75.3016H17.8769V109.63C46.5556,104.12,61.4921,100.195,81.3522,92.463Z"/><rect class="cls-3" x="483.0328" y="461.3111" width="14.8965" height="110.8831"/><rect class="cls-3" x="611.2985" y="353.7375" width="45.51" height="14.8965"/><polygon class="cls-3" points="483.033 353.738 396.114 353.738 387.046 368.634 497.929 368.634 497.929 186.468 483.033 210.941 483.033 353.738"/><polygon class="cls-3" points="462.348 61.635 596.402 61.635 596.402 46.738 447.451 46.738 255.474 362.84 255.474 446.415 270.37 446.415 270.37 377.736 462.348 61.635"/><path class="cls-3" d="M729.0549,455.9344q21.101-21.9171,52.5452-21.9288,24.98,0,43.4343,13.8679a77.0117,77.0117,0,0,0-5.7857-6.8357q-21.1009-21.9171-52.5452-21.9287-31.4573,0-52.5451,21.9287-21.101,21.9347-21.1025,55.027,0,32.2734,21.1025,54.2006a75.6332,75.6332,0,0,0,9.0745,8.0353c-10.1507-13.2967-15.28-29.0632-15.28-47.3394Q707.9525,477.8763,729.0549,455.9344Z"/><path class="cls-4" d="M205.0949,575.1734H86.4347V173.0139H0V92.2715l2.4178-.464c29.118-5.595,43.8283-9.5693,62.9581-17.0161,14.2245-5.5295,26.68-13.2847,39.8657-21.4952,4.83-3.0084,9.8224-6.1172,14.9344-9.1256l.6982-.4117h84.2207ZM92.3934,569.2148H199.1362V49.7175H122.5006c-4.8064,2.844-9.5343,5.787-14.1109,8.6368-13.4273,8.3618-26.1126,16.26-40.8549,21.99C48.5621,87.7313,33.9012,91.76,5.9586,97.1914v69.8639H92.3934Z"/><path class="cls-4" d="M599.3814,575.1734H480.0521v-125.78H252.4931V362.0062l.4336-.7128L445.7755,43.7589H599.3814V350.7582h60.4065v98.6356H599.3814Zm-113.3707-5.9586H593.4228v-125.78h60.4065V356.7168H593.4228V49.7175H449.1272L258.4518,363.6734v79.7618H486.0107Zm0-212.498H366.8472l119.1635-195.77Zm-108.5613-5.9586H480.0521V182.1962Z"/><path class="cls-4" d="M766.7025,575.1734c-21.6989,0-40.0984-7.6854-54.6924-22.8423-14.5532-15.1176-21.9345-34.0481-21.9345-56.2663,0-22.7536,7.3784-41.9634,21.9345-57.0927,14.594-15.1569,32.9935-22.8423,54.6924-22.8423s40.0984,7.6854,54.6923,22.8423c14.5532,15.1278,21.9317,34.3362,21.9317,57.0927,0,22.22-7.3785,41.15-21.9317,56.2663C806.8009,567.488,788.4014,575.1734,766.7025,575.1734Zm0-153.085c-20.0172,0-36.9736,7.07-50.398,21.0151-13.45,13.9815-20.27,31.8006-20.27,52.9613,0,20.6238,6.82,38.1636,20.27,52.1349,13.4244,13.9451,30.3808,21.0151,50.398,21.0151s36.9736-7.07,50.398-21.0151c13.4476-13.9684,20.2674-31.51,20.2674-52.1349,0-21.1636-6.82-38.9812-20.2674-52.9613C803.6761,429.1584,786.72,422.0884,766.7025,422.0884Z"/><path class="cls-2" d="M1042.0641,582.1242q-42.2021,0-76.9586-17.7914-34.7523-17.7843-59.1642-52.5452-24.4178-34.7567-38.0647-86.0594-13.6512-51.297-13.6542-118.3314,0-67.0255,13.6542-117.5036,13.6557-50.4633,38.0647-84.817,24.396-34.329,59.1642-51.3043,34.7567-16.9506,76.9586-16.9637,42.2019,0,76.9557,16.9637,34.7565,16.97,59.1642,51.3043,24.4,34.3463,38.0647,84.817,13.6555,50.4853,13.6541,117.5036,0,67.0278-13.6541,118.3314-13.6514,51.3187-38.0647,86.0594-24.4134,34.7523-59.1642,52.5452Q1084.2675,582.117,1042.0641,582.1242Z"/><path class="cls-4" d="M1042.0641,585.1035c-28.4692,0-54.82-6.0954-78.3144-18.1188-23.5085-12.0292-43.776-30.0243-60.2465-53.4849-16.4007-23.3442-29.3537-52.6164-38.5069-87.005-9.1242-34.2955-13.7531-74.3662-13.7531-119.098,0-44.7259,4.6289-84.5218,13.7589-118.2819,9.159-33.8474,22.1149-62.7021,38.51-85.7655,16.4793-23.1857,36.7613-40.7676,60.2873-52.2543,23.4911-11.4575,49.8219-17.2662,78.2649-17.2662s54.7738,5.8087,78.2621,17.2648c23.5056,11.4779,43.7876,29.0584,60.2872,52.2557,16.4066,23.0968,29.3654,51.9516,38.51,85.7655,9.13,33.75,13.7589,73.5458,13.7589,118.2819,0,44.7434-4.629,84.8127-13.7531,119.098-9.1387,34.3551-22.0946,63.6273-38.5069,87.005-16.491,23.4737-36.7584,41.4673-60.2466,53.4849C1096.8845,579.0081,1070.5363,585.1035,1042.0641,585.1035Zm0-545.316c-27.5294,0-52.9815,5.6065-75.6522,16.6625-22.6183,11.0444-42.1467,27.9863-58.0412,50.3514-15.9875,22.4874-28.6438,50.705-37.62,83.87-8.99,33.2524-13.5494,72.5245-13.5494,116.7253,0,44.2153,4.5591,83.77,13.5552,117.5647,8.967,33.7092,21.6262,62.3457,37.6225,85.1138,15.9061,22.6605,35.449,40.0228,58.0819,51.6054,22.65,11.5885,48.0849,17.4642,75.6027,17.4642s52.9525-5.8757,75.6-17.4642c22.6124-11.571,42.1554-28.9347,58.0819-51.6054,16.0079-22.8015,28.6641-51.4366,37.6224-85.1124,8.9961-33.7863,13.5553-73.3406,13.5553-117.5661,0-44.211-4.5592-83.4831-13.55-116.7253-8.9641-33.1331-21.62-61.3507-37.62-83.87-15.9119-22.3753-35.44-39.3172-58.0412-50.3528C1095.0457,45.394,1069.5936,39.7875,1042.0641,39.7875Z"/><path class="cls-3" d="M882.7731,440.6247q-13.6512-51.297-13.6542-118.3313,0-67.0257,13.6542-117.5036,13.6557-50.4635,38.0647-84.8171,24.396-34.329,59.1642-51.3043,34.7567-16.9506,76.9586-16.9637,42.2019,0,76.9557,16.9637a148.1562,148.1562,0,0,1,32.55,21.666A151.6506,151.6506,0,0,0,1119.02,53.7719q-34.7523-16.9506-76.9557-16.9637-42.2021,0-76.9586,16.9637-34.7523,16.97-59.1642,51.3043-24.4178,34.3463-38.0647,84.817-13.6512,50.4853-13.6542,117.5036,0,67.0278,13.6542,118.3314,13.6557,51.3187,38.0647,86.0594a174.7817,174.7817,0,0,0,27.5458,30.9756,185.2448,185.2448,0,0,1-12.6493-16.0791Q896.42,491.9275,882.7731,440.6247Z"/><path class="cls-2" d="M1133.1545,63.5108A57.1682,57.1682,0,0,1,1152.6454,76.16l-3.6807,9.481a40.0968,40.0968,0,0,1-22.1934-16.3949l-.1755,1.4749c-.0027.0224-.6871.0725-.67-.2811.0114-.2385.8658-.7048,1.0529-.8495q1.1451-.8859,2.2175-1.8608A36.45,36.45,0,0,0,1133.1545,63.5108Z"/><path class="cls-3" d="M952.6767,557.2146q6.0409,3.8445,12.4289,7.1182a159.8636,159.8636,0,0,0,47.6949,15.4951V557.2146Z"/><path class="cls-3" d="M928.7138,463.955a29.7812,29.7812,0,0,0-21.4311,4.173l-2.9241,1.8911-1.417-3.1815a54.0086,54.0086,0,0,0-31.6323-29.0451q13.1513,43.4125,34.632,73.9951a177.7646,177.7646,0,0,0,22.7725,26.616V463.955Z"/><path class="cls-3" d="M1181.1838,466.8376l-1.417,3.1815-2.9238-1.8911a29.7819,29.7819,0,0,0-21.4317-4.168V538.4a178.1029,178.1029,0,0,0,22.7725-26.612q21.4746-30.5892,34.6328-73.9961A53.9918,53.9918,0,0,0,1181.1838,466.8376Z"/><path class="cls-3" d="M1039.1887,408.29l-.0284-64.33a2.9794,2.9794,0,0,1,5.9588-.0029l.0281,64.3329h60.13l-46.749-246.9884h-5.8064v11.635l-5.2256-6.0009a7.3655,7.3655,0,0,0-10.8405.0917l-5.26,6.2525V161.3018h-5.8069L978.832,408.29Zm33.0322-32.0653a2.9679,2.9679,0,0,1,3.2471,2.6839l1.4023,14.7482a2.9774,2.9774,0,0,1-2.6826,3.2483c-.0962.0088-.1919.0132-.2852.0132a2.9779,2.9779,0,0,1-2.9619-2.697l-1.4023-14.7483A2.9773,2.9773,0,0,1,1072.2209,376.2249Zm-14.7774-155.6106a2.9655,2.9655,0,0,1,3.2471,2.6841l2.1763,22.9033a2.9776,2.9776,0,0,1-2.6826,3.2485c-.096.0087-.1919.0131-.2852.0131a2.9777,2.9777,0,0,1-2.9617-2.6972l-2.1762-22.9033A2.9776,2.9776,0,0,1,1057.4435,220.6143Zm-15.3881-2.92h.0029a2.9789,2.9789,0,0,1,2.9792,2.9766l.0613,74.1625a2.9814,2.9814,0,0,1-2.9765,2.9823h-.003a2.9789,2.9789,0,0,1-2.9792-2.9765l-.0611-74.1626A2.9814,2.9814,0,0,1,1042.0554,217.6946Zm-22.15,75.1111a2.9764,2.9764,0,0,1,2.6855,3.2456l-9.2812,98.3955a2.9793,2.9793,0,0,1-2.962,2.7c-.093,0-.186-.0044-.2822-.0131a2.9764,2.9764,0,0,1-2.6853-3.2456l9.2813-98.3955A2.9606,2.9606,0,0,1,1019.9055,292.8057Z"/><path class="cls-3" d="M1071.3249,579.8284a159.8321,159.8321,0,0,0,47.6948-15.4956q6.3912-3.27,12.4292-7.1182h-60.124Z"/><path class="cls-4" d="M1037.3537,159.4208v-4.0776h-14.2393a2.9287,2.9287,0,0,1,.5589.0523,2.9794,2.9794,0,0,1,2.3742,3.4812l-.4592,2.4251h5.8069V173.28l5.26-6.2525a7.3655,7.3655,0,0,1,10.8405-.0917l5.2256,6.0009v-11.635h5.8064l-.459-2.4251a2.9787,2.9787,0,0,1,5.8521-1.1151l-.458-2.4184h-16.7V159.38A13.3576,13.3576,0,0,0,1037.3537,159.4208Z"/><polygon class="cls-4" points="1111.341 408.29 1086.759 278.417 1111.341 408.29 1111.341 408.29"/><path class="cls-4" d="M1023.0375,155.3432h-2.3842l-.4581,2.4195A2.9728,2.9728,0,0,1,1023.0375,155.3432Z"/><polygon class="cls-4" points="983.671 350.696 972.768 408.29 972.768 408.29 983.671 350.696"/><path class="cls-4" d="M1155.4113,463.96a29.7819,29.7819,0,0,1,21.4317,4.168l2.9238,1.8911,1.417-3.1815a53.9918,53.9918,0,0,1,31.6328-29.0461q1.0246-3.3811,1.9951-6.8452a59.9849,59.9849,0,0,0-37.646,30.484,35.8329,35.8329,0,0,0-21.7544-3.5362Z"/><path class="cls-4" d="M902.9416,466.8376l1.417,3.1815,2.9241-1.8911a29.7812,29.7812,0,0,1,21.4311-4.173v-6.0671A35.8423,35.8423,0,0,0,906.96,461.43a60,60,0,0,0-37.6458-30.4832q.9741,3.46,1.9954,6.8454A54.0086,54.0086,0,0,1,902.9416,466.8376Z"/><path class="cls-4" d="M978.832,408.29l46.7563-246.9884.4592-2.4251a2.9794,2.9794,0,0,0-2.3742-3.4812,2.9287,2.9287,0,0,0-.5589-.0523c-.0258,0-.0512-.0006-.0769,0a2.9728,2.9728,0,0,0-2.8423,2.4195l-.0017.0055L983.6711,350.6963,972.7682,408.29Z"/><path class="cls-4" d="M1010.0656,397.1338c.0962.0087.1892.0131.2822.0131a2.9793,2.9793,0,0,0,2.962-2.7l9.2812-98.3955a2.9778,2.9778,0,1,0-5.9294-.5586l-9.2813,98.3955A2.9764,2.9764,0,0,0,1010.0656,397.1338Z"/><path class="cls-4" d="M1042.1193,297.816h.003a2.9814,2.9814,0,0,0,2.9765-2.9823l-.0613-74.1625a2.9789,2.9789,0,0,0-2.9792-2.9766h-.0029a2.9814,2.9814,0,0,0-2.9764,2.9823l.0611,74.1626A2.9789,2.9789,0,0,0,1042.1193,297.816Z"/><path class="cls-4" d="M1042.14,340.9794a2.98,2.98,0,0,0-2.9795,2.9808l.0284,64.33h5.9585l-.0281-64.3329A2.9792,2.9792,0,0,0,1042.14,340.9794Z"/><path class="cls-4" d="M1059.8991,249.4633c.0933,0,.1892-.0044.2852-.0131a2.9776,2.9776,0,0,0,2.6826-3.2485l-2.1763-22.9033a2.9781,2.9781,0,1,0-5.9294.5644l2.1762,22.9033A2.9777,2.9777,0,0,0,1059.8991,249.4633Z"/><path class="cls-4" d="M1073.9025,396.9185c.0933,0,.189-.0044.2852-.0132a2.9774,2.9774,0,0,0,2.6826-3.2483l-1.4023-14.7482a2.9783,2.9783,0,1,0-5.93.5644l1.4023,14.7483A2.9779,2.9779,0,0,0,1073.9025,396.9185Z"/><path class="cls-4" d="M1060.4433,155.3955a2.98,2.98,0,0,0-2.3743,3.4812l.459,2.4251L1105.277,408.29h6.064l-24.582-129.8729-22.836-120.6491-.0019-.0066A2.9783,2.9783,0,0,0,1060.4433,155.3955Z"/><path class="cls-5" d="M958.74,439.1452a9.4206,9.4206,0,0,1,9.4092-9.4093h147.8278a9.4208,9.4208,0,0,1,9.4092,9.4093v82.0167h24.0669v-98.57a8.3542,8.3542,0,0,0-8.3442-8.3429H943.0168a8.3541,8.3541,0,0,0-8.3443,8.3429v98.57H958.74Z"/><path class="cls-5" d="M1119.4269,469.8736H964.6982v51.2883h154.7287ZM1082.98,507.9368a2.97,2.97,0,0,1-2.1065-.8728L1070.09,496.2793l.9,6.7041a2.98,2.98,0,0,1-2.5576,3.3489,3.08,3.08,0,0,1-.3984.0261,2.98,2.98,0,0,1-2.95-2.5835l-2.0718-15.4377c-.0068-.05.0015-.0994-.0025-.1494a2.99,2.99,0,0,1-.0073-.4179c.0044-.0783.0117-.1549.0225-.2325a2.906,2.906,0,0,1,.0874-.4065c.02-.0709.0371-.1414.0625-.2106a2.91,2.91,0,0,1,.1929-.41c.03-.0549.0532-.1124.0869-.1655a2.8335,2.8335,0,0,1,.9145-.9141c.0528-.0337.11-.0569.1651-.0872a2.9857,2.9857,0,0,1,.4111-.193c.0708-.026.1426-.0433.2153-.0638a2.959,2.959,0,0,1,.397-.0854c.082-.0114.1626-.0188.2451-.0235a2.9794,2.9794,0,0,1,.4053.0077c.0513.0043.102-.0041.1528.0028l15.438,2.073a2.98,2.98,0,0,1-.7915,5.9063l-6.7036-.9,10.7827,10.7837a2.9793,2.9793,0,0,1-2.1064,5.0857Z"/><path class="cls-3" d="M1018.7592,557.2146v23.4638a188.5476,188.5476,0,0,0,46.6072,0V557.2146Z"/><path class="cls-3" d="M1149.4528,527.1205h-214.78v15.7926a8.3305,8.3305,0,0,0,.0555.9329q4.5179,3.8936,9.2653,7.41h123.3746a2.78,2.78,0,0,1,1.955,0h70.8077q4.7549-3.5073,9.267-7.413a8.35,8.35,0,0,0,.0552-.93Z"/><path class="cls-1" d="M1012.8005,554.2354a2.9787,2.9787,0,0,1,2.9795-2.9793H943.9933q4.2482,3.1328,8.6834,5.9585h60.1238Z"/><path class="cls-1" d="M1105.277,408.29h-162.26a14.3177,14.3177,0,0,0-14.303,14.3015V524.1411a2.9785,2.9785,0,0,1,2.9793-2.9792h2.9794v-98.57a8.3541,8.3541,0,0,1,8.3443-8.3429h198.0918a8.3542,8.3542,0,0,1,8.3442,8.3429v98.57h.419a2.9793,2.9793,0,1,1,0,5.9586h-.419v15.7926a8.35,8.35,0,0,1-.0552.93q3.0586-2.6369,6.0137-5.4435V422.5917a14.3174,14.3174,0,0,0-14.3027-14.3015H1105.277Z"/><path class="cls-1" d="M934.6725,527.1205h-2.9794a2.9786,2.9786,0,0,1-2.9793-2.9794v14.2625q2.95,2.814,6.0142,5.4424a8.3305,8.3305,0,0,1-.0555-.9329Z"/><path class="cls-1" d="M1069.3229,551.2561a2.97,2.97,0,0,1,2.002,2.8018v3.1567h60.124q4.4362-2.823,8.6817-5.9585Z"/><path class="cls-1" d="M1018.7592,554.2354v2.9792h46.6072v-3.1567a2.9693,2.9693,0,0,1,2.0015-2.8018H1015.78A2.9785,2.9785,0,0,1,1018.7592,554.2354Z"/><path class="cls-1" d="M1125.3859,524.1411a2.9786,2.9786,0,0,1-2.9795,2.9794h27.4654a2.9793,2.9793,0,1,0,0-5.9586h-24.4859Z"/><path class="cls-1" d="M1119.4269,524.1411v-2.9792H964.6982v2.9792a2.9786,2.9786,0,0,1-2.9793,2.9794h160.6875A2.9787,2.9787,0,0,1,1119.4269,524.1411Z"/><path class="cls-1" d="M931.6931,527.1205h30.0258a2.9786,2.9786,0,0,1-2.9792-2.9794v-2.9792H931.6931a2.9793,2.9793,0,1,0,0,5.9586Z"/><path class="cls-1" d="M1071.3249,554.0579a2.9793,2.9793,0,0,0-5.9585,0v26.6208q2.9992-.3771,5.9585-.85v-25.77Z"/><path class="cls-1" d="M1018.7592,554.2354a2.9794,2.9794,0,0,0-5.9587,0v25.5925q2.9578.4769,5.9587.8505v-26.443Z"/><path class="cls-6" d="M1119.4269,439.1452a3.4543,3.4543,0,0,0-3.45-3.4506H968.1489a3.4544,3.4544,0,0,0-3.4507,3.4506v24.77h154.7287Zm-16.3217,13.64-76.2517-.0014a2.9794,2.9794,0,0,1,0-5.9587l76.2517.0015a2.9793,2.9793,0,0,1,0,5.9586Z"/><rect class="cls-1" x="964.6982" y="463.9151" width="154.7288" height="5.9585"/><path class="cls-1" d="M1125.3859,524.1411V439.1452a9.4208,9.4208,0,0,0-9.4092-9.4093H968.1489a9.4206,9.4206,0,0,0-9.4092,9.4093v84.9959a2.9793,2.9793,0,1,0,5.9585,0V439.1452a3.4544,3.4544,0,0,1,3.4507-3.4506h147.8278a3.4543,3.4543,0,0,1,3.45,3.4506v84.9959a2.98,2.98,0,0,0,5.959,0Z"/><path class="cls-1" d="M1063.1125,487.1309c.02-.0706.0371-.1414.0625-.2106C1063.15,486.99,1063.1325,487.06,1063.1125,487.1309Z"/><path class="cls-1" d="M1063.0026,487.77c.0044-.0777.0117-.1551.0225-.2325C1063.0143,487.615,1063.007,487.6916,1063.0026,487.77Z"/><path class="cls-1" d="M1064.9455,485.1505c.07-.0257.1431-.0435.2153-.0638C1065.0881,485.1072,1065.0163,485.1245,1064.9455,485.1505Z"/><path class="cls-1" d="M1063.3679,486.51c.03-.0549.0532-.1123.0869-.1655C1063.4211,486.3979,1063.3981,486.4554,1063.3679,486.51Z"/><path class="cls-1" d="M1063.01,488.1878c.004.05-.0043.0993.0025.1494l2.0718,15.4377a2.98,2.98,0,0,0,2.95,2.5835,3.08,3.08,0,0,0,.3984-.0261,2.98,2.98,0,0,0,2.5576-3.3489l-.9-6.7041-6.2309-6.2314A2.9516,2.9516,0,0,1,1063.01,488.1878Z"/><path class="cls-1" d="M1074.3039,492.0674l6.7036.9a2.98,2.98,0,0,0,.7915-5.9063l-15.438-2.073c-.0508-.0069-.1015.0015-.1528-.0028a2.9532,2.9532,0,0,1,1.8638.8495Z"/><path class="cls-1" d="M1065.5578,485.0013q.1222-.0168.2451-.0235C1065.72,484.9825,1065.64,484.99,1065.5578,485.0013Z"/><path class="cls-1" d="M1064.3693,485.4307c.0532-.0339.11-.0569.1651-.0872C1064.48,485.3738,1064.4221,485.397,1064.3693,485.4307Z"/><path class="cls-1" d="M1085.0866,502.8511l-10.7827-10.7837-6.2319-6.2324a3.052,3.052,0,0,0-2.2691-.8572q-.123.0068-.2451.0235a2.959,2.959,0,0,0-.397.0854c-.0722.02-.145.0381-.2153.0638a2.9857,2.9857,0,0,0-.4111.193c-.0547.03-.1119.0533-.1651.0872a2.8335,2.8335,0,0,0-.9145.9141c-.0337.0532-.0567.1106-.0869.1655a2.91,2.91,0,0,0-.1929.41c-.0254.0692-.0425.14-.0625.2106a2.906,2.906,0,0,0-.0874.4065c-.0108.0774-.0181.1548-.0225.2325a2.99,2.99,0,0,0,.0073.4179,2.9516,2.9516,0,0,0,.8492,1.86l6.2309,6.2314,10.7837,10.7847a2.979,2.979,0,0,0,4.2129-4.2129Z"/><path class="cls-1" d="M1103.1052,446.8262l-76.2517-.0015a2.9794,2.9794,0,0,0,0,5.9587l76.2517.0014a2.9793,2.9793,0,0,0,0-5.9586Z"/><path class="cls-3" d="M925.4506,201.88l-6.405-13.4476a2.9782,2.9782,0,1,1,5.3767-2.5633l6.406,13.45,24.05-11.4538L950.852,179.41A19.9287,19.9287,0,0,1,933.91,143.83l-4.0266-8.4535L905.8342,146.83l6.4033,13.4492a2.98,2.98,0,0,1-5.3826,2.56l-6.4021-13.4468L877.2775,160.43q-4.1286,11.0849-7.6225,23.1205L894.9,171.5271a2.9789,2.9789,0,1,1,2.56,5.38l-29.91,14.2444q-1.4184,5.3318-2.6885,10.843l21.4724-10.2259a2.9789,2.9789,0,1,1,2.56,5.38l-25.4609,12.1252c-.0591.0282-.1216.0388-.1817.0628q-1.9452,9.3862-3.4631,19.29l1.7566,3.6883Z"/><path class="cls-1" d="M904.5534,144.14l1.2808,2.69,24.0493-11.453L933.91,143.83a19.9288,19.9288,0,0,0,16.9419,35.58l4.0266,8.4549-24.05,11.4538,1.2808,2.6892a2.9758,2.9758,0,0,1-1.4048,3.9693l29.426-14.0143a2.981,2.981,0,0,0,1.4111-3.9714l-6.4968-13.6353a2.9737,2.9737,0,0,0-3.9685-1.4082,13.9628,13.9628,0,0,1-18.6121-6.6045h-.0029a13.9665,13.9665,0,0,1,6.6045-18.6134,2.9812,2.9812,0,0,0,1.4111-3.9714l-6.4939-13.6353a2.9788,2.9788,0,0,0-3.9714-1.4082l-29.4243,14.0132A2.9791,2.9791,0,0,1,904.5534,144.14Z"/><path class="cls-1" d="M926.7326,204.5716l-1.282-2.6913-63.905,30.4344-1.7566-3.6883q-.765,4.9595-1.425,10.0458a2.959,2.959,0,0,0,3.0537.3039l69.28-32.9952a2.9758,2.9758,0,0,1-3.9651-1.4093Z"/><path class="cls-1" d="M877.2775,160.43l23.1753-11.0369-1.2817-2.6921a2.9783,2.9783,0,0,1,1.4062-3.9671l-20.1325,9.588C879.3618,154.9832,878.3017,157.68,877.2775,160.43Z"/><path class="cls-1" d="M898.8713,172.9353a2.9787,2.9787,0,0,0-3.9715-1.4082L869.655,183.55q-.91,3.14-1.7784,6.3432c-.1123.4152-.2153.8412-.3261,1.258l29.91-14.2444A2.98,2.98,0,0,0,898.8713,172.9353Z"/><path class="cls-1" d="M888.8947,197.148a2.9789,2.9789,0,1,0-2.56-5.38L864.862,201.9942q-.8349,3.6342-1.61,7.3418c.06-.024.1226-.0346.1817-.0628Z"/><path class="cls-1" d="M899.1711,146.7005l1.2817,2.6921,6.4021,13.4468a2.98,2.98,0,0,0,5.3826-2.56L905.8342,146.83l-1.2808-2.69a2.9791,2.9791,0,0,0-3.9663-1.4114l-.0049.0017-.0049.0029A2.9783,2.9783,0,0,0,899.1711,146.7005Z"/><path class="cls-1" d="M932.1091,202.0083l-1.2808-2.6892-6.406-13.45a2.9782,2.9782,0,1,0-5.3767,2.5633l6.405,13.4476,1.282,2.6913a2.9758,2.9758,0,0,0,3.9651,1.4093l.0032-.0011.0034-.0022A2.9758,2.9758,0,0,0,932.1091,202.0083Z"/><path class="cls-6" d="M964.1223,365.7827a2.4144,2.4144,0,0,0,1.6467-2.3188l-.5965-75.6174L936.1213,328.521a2.9848,2.9848,0,0,1-3.3225,1.11l-49.7229-15.7156a2.9835,2.9835,0,0,1-2.08-2.8162l-.4248-49.9908L854.299,297.8975c-.0466,3.1409-.0767,6.302-.0767,9.4993q0,22.9695,1.6172,44.0781l29.9014,40.47Z"/><path class="cls-1" d="M960.8141,283.699l-28.2832,39.5982L886.9367,308.885l-.4131-48.6654a5.6923,5.6923,0,0,0-10.3142-3.2572L854.5556,287.284q-.17,5.2559-.2566,10.6135l26.2717-36.7891.4248,49.9908a2.9835,2.9835,0,0,0,2.08,2.8162l49.7229,15.7156a2.9848,2.9848,0,0,0,3.3225-1.11l29.0512-40.6745.5965,75.6174a2.4144,2.4144,0,0,1-1.6467,2.3188l-78.3814,26.162-29.9014-40.47c.2906,3.8253.6084,7.6189.9778,11.3534l25.4148,34.3985a2.9819,2.9819,0,0,0,3.34,1.0562l80.4355-26.8472a8.3652,8.3652,0,0,0,5.72-8.0171v-.0014l-.6023-76.4916a5.6919,5.6919,0,0,0-10.3111-3.2267Z"/><path class="cls-4" d="M1042.0641,585.1035c-28.4692,0-54.82-6.0954-78.3144-18.1188-23.5085-12.0292-43.776-30.0243-60.2465-53.4849-16.4007-23.3442-29.3537-52.6164-38.5069-87.005-9.1242-34.2955-13.7531-74.3662-13.7531-119.098,0-44.7259,4.6289-84.5218,13.7589-118.2819,9.159-33.8474,22.1149-62.7021,38.51-85.7655,16.4793-23.1857,36.7613-40.7676,60.2873-52.2543,23.4911-11.4575,49.8219-17.2662,78.2649-17.2662s54.7738,5.8087,78.2621,17.2648c23.5056,11.4779,43.7876,29.0584,60.2872,52.2557,16.4066,23.0968,29.3654,51.9516,38.51,85.7655,9.13,33.75,13.7589,73.5458,13.7589,118.2819,0,44.7434-4.629,84.8127-13.7531,119.098-9.1387,34.3551-22.0946,63.6273-38.5069,87.005-16.491,23.4737-36.7584,41.4673-60.2466,53.4849C1096.8845,579.0081,1070.5363,585.1035,1042.0641,585.1035Zm0-545.316c-27.5294,0-52.9815,5.6065-75.6522,16.6625-22.6183,11.0444-42.1467,27.9863-58.0412,50.3514-15.9875,22.4874-28.6438,50.705-37.62,83.87-8.99,33.2524-13.5494,72.5245-13.5494,116.7253,0,44.2153,4.5591,83.77,13.5552,117.5647,8.967,33.7092,21.6262,62.3457,37.6225,85.1138,15.9061,22.6605,35.449,40.0228,58.0819,51.6054,22.65,11.5885,48.0849,17.4642,75.6027,17.4642s52.9525-5.8757,75.6-17.4642c22.6124-11.571,42.1554-28.9347,58.0819-51.6054,16.0079-22.8015,28.6641-51.4366,37.6224-85.1124,8.9961-33.7863,13.5553-73.3406,13.5553-117.5661,0-44.211-4.5592-83.4831-13.55-116.7253-8.9641-33.1331-21.62-61.3507-37.62-83.87-15.9119-22.3753-35.44-39.3172-58.0412-50.3528C1095.0457,45.394,1069.5936,39.7875,1042.0641,39.7875Z"/><circle class="cls-5" cx="1189.3407" cy="223.6569" r="29.4539"/><path class="cls-6" d="M1202.233,248.0853c-3.5521-5.9992-8.9467-10.3116-15.55-11.6885-6.576-1.3711-13.217.4057-18.8558,4.45,0,0,5.81,22.2988,33.0136,9.2434"/><circle class="cls-6" cx="1190.7523" cy="216.8871" r="9.743"/><path class="cls-3" d="M1252.8523,226.8767l-9.663-5.9806a9.8459,9.8459,0,0,1-2.6829-14.1665l6.7986-9.0872a63.6843,63.6843,0,0,0-10.7582-16.4261l-11.0463,2.6005a9.8462,9.8462,0,0,1-11.9139-8.1208l-1.62-11.2481a63.7632,63.7632,0,0,0-19.2118-4.0059l-5.98,9.6633a9.8457,9.8457,0,0,1-14.1666,2.6826l-9.0864-6.7984a63.68,63.68,0,0,0-16.4262,10.7582l2.6005,11.0462a9.8462,9.8462,0,0,1-8.1211,11.9141l-11.2482,1.62A63.7606,63.7606,0,0,0,1126.32,220.54l9.6635,5.9808a9.774,9.774,0,0,1,2.6825,14.1667l-6.7983,9.0865a63.6881,63.6881,0,0,0,10.7579,16.426l11.0465-2.6a9.8464,9.8464,0,0,1,11.9136,8.1211l1.62,11.2481a63.7767,63.7767,0,0,0,19.2118,4.0059l5.9806-9.6632a9.8459,9.8459,0,0,1,14.1666-2.6831l9.0864,6.7984a63.6659,63.6659,0,0,0,16.4265-10.7577l-2.6005-11.0466a9.8469,9.8469,0,0,1,8.1211-11.9144l11.2478-1.62A63.7449,63.7449,0,0,0,1252.8523,226.8767Zm-69.3214,25.8721a29.6654,29.6654,0,1,1,35.0961-22.9852A29.6651,29.6651,0,0,1,1183.5309,252.7488Z"/><path class="cls-4" d="M1186.1938,289.4511c-.05,0-.1018-.0014-.1513-.0043a66.2364,66.2364,0,0,1-19.9735-4.1635,2.9868,2.9868,0,0,1-1.9-2.3639l-1.609-11.1681a6.7939,6.7939,0,0,0-8.1931-5.5876l-10.9687,2.5822a2.9822,2.9822,0,0,1-2.8949-.902,66.1142,66.1142,0,0,1-11.1841-17.08,2.9818,2.9818,0,0,1,.3288-3.0127l6.75-9.0209a6.7269,6.7269,0,0,0-1.8475-9.7482l-9.5926-5.9382a2.9825,2.9825,0,0,1-1.4081-2.6855,66.2377,66.2377,0,0,1,4.1663-19.9706,2.9728,2.9728,0,0,1,2.3625-1.9l11.1666-1.6089a6.7951,6.7951,0,0,0,5.5891-8.1975l-2.5836-10.9673a2.9861,2.9861,0,0,1,.9048-2.8949,66.037,66.037,0,0,1,17.0787-11.184,2.9853,2.9853,0,0,1,3.0142.3287l9.0194,6.75a6.7945,6.7945,0,0,0,9.7467-1.846l5.9382-9.594a2.9607,2.9607,0,0,1,2.6855-1.4068,66.2251,66.2251,0,0,1,19.9736,4.1635,2.9868,2.9868,0,0,1,1.9,2.3639l1.609,11.1681a6.7907,6.7907,0,0,0,8.1931,5.5862l10.9687-2.5822a2.9983,2.9983,0,0,1,2.8949.9034,66.1061,66.1061,0,0,1,11.1841,17.0786,2.9753,2.9753,0,0,1-.3288,3.0128l-6.75,9.0223a6.8014,6.8014,0,0,0,1.8475,9.7482l9.5926,5.9382a2.9819,2.9819,0,0,1,1.4082,2.684,66.1806,66.1806,0,0,1-4.1664,19.9736,2.9754,2.9754,0,0,1-2.3625,1.8984l-11.1666,1.609a6.7939,6.7939,0,0,0-5.5862,8.1974l2.5807,10.9687a2.9826,2.9826,0,0,1-.9048,2.8935,66.1491,66.1491,0,0,1-17.0757,11.184,2.9759,2.9759,0,0,1-3.0114-.3287l-9.0222-6.75a6.7973,6.7973,0,0,0-9.75,1.846l-5.9382,9.594A2.9853,2.9853,0,0,1,1186.1938,289.4511Zm-16.38-9.1532a60.2792,60.2792,0,0,0,14.7889,3.0841l4.9956-8.0724a12.7576,12.7576,0,0,1,18.385-3.4812l7.5908,5.6779a60.0661,60.0661,0,0,0,12.6446-8.2818l-2.17-9.2274a12.7549,12.7549,0,0,1,10.5381-15.46l9.3947-1.3543a60.0622,60.0622,0,0,0,3.0841-14.7889l-8.0709-4.997a12.7532,12.7532,0,0,1-3.4826-18.3821l5.6793-7.5908a60.1874,60.1874,0,0,0-8.2833-12.6475l-9.226,2.1734a12.7588,12.7588,0,0,1-15.4609-10.5382l-1.3529-9.3961a60.2279,60.2279,0,0,0-14.7889-3.0841l-4.9956,8.0724a12.7576,12.7576,0,0,1-18.385,3.4812l-7.5879-5.6779a60.0271,60.0271,0,0,0-12.6475,8.2819l2.1734,9.2259a12.7565,12.7565,0,0,1-10.541,15.461l-9.3947,1.3543a60.3159,60.3159,0,0,0-3.0841,14.7889l8.0709,4.997A12.6866,12.6866,0,0,1,1141.17,242.3h0l-5.6793,7.5879a60.047,60.047,0,0,0,8.2833,12.6489l9.226-2.1734a12.7537,12.7537,0,0,1,15.4609,10.5382Zm-31.03-39.7827h0Z"/><path class="cls-4" d="M1202.2367,251.065a2.9763,2.9763,0,0,1-2.5662-1.4621c-3.25-5.4843-8.0767-9.14-13.596-10.2893-5.49-1.1449-11.3557.2575-16.5113,3.954a2.9794,2.9794,0,0,1-3.4739-4.8414c6.526-4.6814,14.0615-6.4343,21.2014-4.9461,7.1777,1.4955,13.3952,6.1433,17.5063,13.0883a2.9787,2.9787,0,0,1-2.56,4.4966Z"/><path class="cls-4" d="M1190.753,229.6105a12.7234,12.7234,0,1,1,12.4525-10.1265v.0015A12.7458,12.7458,0,0,1,1190.753,229.6105Zm-.0146-19.4892a6.7646,6.7646,0,1,0,6.6365,8.1466h0a6.7733,6.7733,0,0,0-6.6365-8.1466Zm9.5518,8.7547h0Z"/><path class="cls-4" d="M1189.4059,256.1013a32.74,32.74,0,0,1-6.686-.6939,32.4333,32.4333,0,1,1,38.37-25.1307h0a32.4579,32.4579,0,0,1-31.6842,25.8246Zm-.0728-58.9213a26.4754,26.4754,0,1,0,25.9264,31.8806h0a26.4878,26.4878,0,0,0-25.9264-31.8806Z"/><path class="cls-5" d="M1070.67,156.3223h-57.2143V55.5456A66.9742,66.9742,0,0,1,1036.3823,5.094h0a8.637,8.637,0,0,1,11.3607,0h0A66.9742,66.9742,0,0,1,1070.67,55.5456Z"/><path class="cls-5" d="M1013.4555,146.7288l-42.2189,6.533V139.949a70.061,70.061,0,0,1,23.5961-52.4363l7.0961-6.288A34.2242,34.2242,0,0,0,1013.4555,55.61V52.2975"/><path class="cls-5" d="M1070.67,146.7288l42.2189,6.533V139.949a70.0611,70.0611,0,0,0-23.5962-52.4363l-7.0961-6.288A34.2245,34.2245,0,0,1,1070.67,55.61V52.2975"/><polygon class="cls-3" points="1110.363 151.245 1072.801 144.594 1072.801 126.999 1110.363 133.65 1110.363 151.245"/><polygon class="cls-3" points="973.565 151.245 1011.127 144.594 1011.127 126.999 973.565 133.65 973.565 151.245"/><path class="cls-6" d="M1022.1822,156.3223c-11.0843,9.2742-7.3248,24.92,4.3889,30.621.8421-4.752,4.6464-9.25,8.9265-11.4794,0,0,8.8531,19.06-4.4453,35.13,30.33,2.0429,48.0774-32.8135,29.79-54.2719"/><path class="cls-4" d="M1070.67,159.3015h-57.2149a2.9786,2.9786,0,0,1-2.9793-2.9793V55.5452a69.9433,69.9433,0,0,1,23.9479-52.6965,11.6661,11.6661,0,0,1,15.2777,0,69.943,69.943,0,0,1,23.9479,52.6965v100.777A2.9785,2.9785,0,0,1,1070.67,159.3015Zm-54.2356-5.9586h51.2563V55.5452a63.9835,63.9835,0,0,0-21.9055-48.2071,5.6866,5.6866,0,0,0-7.4453,0,63.9835,63.9835,0,0,0-21.9055,48.2071Z"/><path class="cls-4" d="M971.2358,156.2407a2.9809,2.9809,0,0,1-2.9793-2.9793V139.9491a73.0913,73.0913,0,0,1,24.6-54.6661l7.0963-6.2889a31.2576,31.2576,0,0,0,10.5235-23.3849V52.2968a2.9793,2.9793,0,0,1,5.9586,0v3.3124a37.2239,37.2239,0,0,1-12.5311,27.8451l-7.0962,6.2889a67.1222,67.1222,0,0,0-22.5921,50.2059v9.837l38.7834-6.0023a2.98,2.98,0,0,1,.9135,5.8888l-42.2194,6.5332A3.0444,3.0444,0,0,1,971.2358,156.2407Z"/><path class="cls-4" d="M1112.89,156.2407a3.0444,3.0444,0,0,1-.4568-.0349l-42.2194-6.5332a2.98,2.98,0,0,1,.9136-5.8888l38.7833,6.0023v-9.837a67.1222,67.1222,0,0,0-22.5921-50.2059l-7.0962-6.2889a37.2243,37.2243,0,0,1-12.5311-27.8451V52.2968a2.9793,2.9793,0,0,1,5.9586,0v3.3124a31.2574,31.2574,0,0,0,10.5236,23.3849l7.0962,6.2889a73.0913,73.0913,0,0,1,24.6,54.6661v13.3123a2.9809,2.9809,0,0,1-2.9793,2.9793Z"/><path class="cls-4" d="M972.8709,135.9282a2.9795,2.9795,0,0,1-.4538-5.9237l40.5814-6.28a2.98,2.98,0,0,1,.9135,5.8888l-40.5814,6.28A3.0826,3.0826,0,0,1,972.8709,135.9282Z"/><path class="cls-4" d="M1110.3641,135.79a3.0826,3.0826,0,0,1-.46-.0349l-39.6911-6.1419a2.98,2.98,0,0,1,.9136-5.8888l39.6911,6.1419a2.9795,2.9795,0,0,1-.4539,5.9237Z"/><path class="cls-4" d="M1033.56,213.6578q-1.3441,0-2.7087-.0916a2.9787,2.9787,0,0,1-2.0948-4.872c8.871-10.717,6.9391-22.835,5.2458-28.603a13.5826,13.5826,0,0,0-4.4981,7.3711,2.9765,2.9765,0,0,1-4.2362,2.1589,22.4981,22.4981,0,0,1-12.534-17.211,20.4566,20.4566,0,0,1,7.5355-18.3734,2.9794,2.9794,0,0,1,3.8231,4.5708,14.4132,14.4132,0,0,0-5.4466,13.0781,16.2432,16.2432,0,0,0,6.2642,10.736,20.9975,20.9975,0,0,1,9.2114-9.6,2.9791,2.9791,0,0,1,4.079,1.3864c.355.7681,7.85,17.3536-1.4052,33.3455a31.5412,31.5412,0,0,0,25.1117-17.3725c5.4669-10.8669,4.19-23.1-3.3314-31.9271a2.9781,2.9781,0,1,1,4.533-3.8638c9.1066,10.6822,10.6836,25.423,4.1227,38.4691A37.2258,37.2258,0,0,1,1033.56,213.6578Z"/><path class="cls-4" d="M1052.2618,44.9431a2.9833,2.9833,0,0,1-2.7756-1.8985,7.9625,7.9625,0,0,0-14.8471,0,2.9791,2.9791,0,0,1-5.5512-2.1646,13.9207,13.9207,0,0,1,25.95,0,2.983,2.983,0,0,1-2.7757,4.0631Z"/><circle class="cls-1" cx="1084.0766" cy="163.9818" r="4.469"/><circle class="cls-1" cx="1098.9159" cy="176.4649" r="4.469"/><circle class="cls-1" cx="1087.0559" cy="193.7749" r="4.469"/><circle class="cls-1" cx="1000.0486" cy="163.9818" r="4.469"/><circle class="cls-1" cx="988.1887" cy="176.4649" r="4.469"/><circle class="cls-1" cx="1000.0486" cy="193.7749" r="4.469"/><path class="cls-6" d="M1080.9466,254.2207h0c-18.0089,3.908-29.5816,21.0222-25.8484,38.2255l3.63,16.7267,13.7146-2.9762-3.63-16.7266c-2.1631-9.9678,4.5422-19.8839,14.9768-22.1483h0c10.4345-2.2643,20.6469,3.9805,22.81,13.9484l3.63,16.7266,13.7145-2.9761-3.63-16.7267C1116.5809,261.0907,1098.9555,250.3127,1080.9466,254.2207Z"/><rect class="cls-5" x="1055.0421" y="301.4234" width="85.1437" height="59.2067" transform="translate(-45.235 240.2995) rotate(-12.2436)"/><path class="cls-1" d="M1062.2879,371.9639a2.9825,2.9825,0,0,1-2.9124-2.3479l-12.5544-57.8593a2.9778,2.9778,0,0,1,2.2811-3.5423l83.2052-18.0563a2.98,2.98,0,0,1,3.5437,2.28l12.5573,57.8593a2.9805,2.9805,0,0,1-2.281,3.5423l-83.2081,18.0562A2.9106,2.9106,0,0,1,1062.2879,371.9639Zm-9.0106-58.559,11.2916,52.036,77.3834-16.7921-11.2946-52.036Z"/><path class="cls-1" d="M1058.7238,312.1523a2.9821,2.9821,0,0,1-2.9095-2.3479l-3.6281-16.7266c-4.0733-18.7807,8.5422-37.5177,28.1288-41.7684,19.5837-4.2537,38.8357,7.5719,42.9119,26.3525l3.6281,16.7281a2.98,2.98,0,0,1-5.8248,1.2627l-3.6281-16.728c-3.3779-15.5716-19.45-25.3358-35.8244-21.7935-16.3745,3.5539-26.9446,19.1138-23.5667,34.6839l3.6281,16.7266a2.9825,2.9825,0,0,1-2.9153,3.6106Z"/><path class="cls-1" d="M1072.4391,309.1759a2.9821,2.9821,0,0,1-2.9095-2.3479l-3.6281-16.7266a20.9023,20.9023,0,0,1,3.2062-16.2625,22.9615,22.9615,0,0,1,30.7445-6.6714,20.8918,20.8918,0,0,1,9.6594,13.4708l3.6311,16.7266a2.98,2.98,0,0,1-5.8248,1.2627l-3.631-16.7265a14.9771,14.9771,0,0,0-6.945-9.6508,16.9981,16.9981,0,0,0-22.6968,4.9258,14.984,14.984,0,0,0-2.3189,11.6611l3.6282,16.7281a2.9826,2.9826,0,0,1-2.9153,3.6106Z"/><ellipse class="cls-1" cx="1095.4268" cy="322.7277" rx="9.1762" ry="8.7658" transform="translate(-43.5248 239.6471) rotate(-12.2437)"/><polygon class="cls-1" points="1107.362 345.246 1093.899 348.168 1092.015 323.09 1098.682 321.644 1107.362 345.246"/><rect class="cls-3" x="1172.997" y="357.1274" width="26.5839" height="26.5839" transform="translate(102.2528 -237.3286) rotate(11.9355)"/><path class="cls-6" d="M1177.8807,417.953h0a14.0981,14.0981,0,0,1-10.8777-16.709l4.4677-21.1361,27.5868,5.8313-4.4678,21.1361A14.098,14.098,0,0,1,1177.8807,417.953Z"/><path class="cls-1" d="M1180.75,421.9618a17.8234,17.8234,0,0,1-17.4482-21.4806l9.1823-43.4385a2.98,2.98,0,1,1,5.8306,1.2336l-9.1823,43.437a11.8358,11.8358,0,1,0,23.1595,4.8967l9.8165-46.4338a2.98,2.98,0,1,1,5.8306,1.2336l-9.8165,46.4323a17.81,17.81,0,0,1-17.3725,14.12Z"/><path class="cls-1" d="M1211.7274,365.1892a3.0315,3.0315,0,0,1-.62-.064l-42.394-8.9612a2.98,2.98,0,1,1,1.2336-5.8306l42.394,8.9612a2.98,2.98,0,0,1-.6139,5.8946Z"/><path class="cls-1" d="M1199.1555,389.703a3.0329,3.0329,0,0,1-.62-.064l-28.2947-5.98a2.98,2.98,0,0,1,1.2337-5.8306l28.2946,5.98a2.98,2.98,0,0,1-.6139,5.8946Z"/><path class="cls-3" d="M1131.6214,143.1112l32.5919-99.5281,71.4489,63.1339-94.7592,44.5956A6.7446,6.7446,0,0,1,1131.6214,143.1112Z"/><path class="cls-4" d="M1137.99,154.9577a9.7584,9.7584,0,0,1-9.2-12.7726h0l32.592-99.5289a2.979,2.979,0,0,1,4.8035-1.3063l71.451,63.1342a2.9783,2.9783,0,0,1-.7041,4.9286l-94.7617,44.595A9.7968,9.7968,0,0,1,1137.99,154.9577Zm-3.5379-10.9193a3.7655,3.7655,0,0,0,5.1817,4.5781l90.6623-42.6661-64.66-57.1363Z"/><ellipse class="cls-6" cx="1199.9378" cy="75.15" rx="11.1332" ry="47.673" transform="translate(349.0759 924.5806) rotate(-48.5354)"/><path class="cls-4" d="M1232.6174,110.754c-10.62,0-30.3458-14.7089-42.0245-25.0288-14.0964-12.4569-35.9873-35.7677-28.6118-44.1149,7.3785-8.3444,33.2059,10.509,47.3023,22.9645s35.9873,35.7676,28.6118,44.1149v.0015A6.6984,6.6984,0,0,1,1232.6174,110.754Zm-65.1723-65.3731a2.0465,2.0465,0,0,0-1.05.22c-1.1463,2.6345,7.3988,17.3274,28.1434,35.6585,20.5991,18.2046,36.1415,24.8906,38.8822,23.4752,1.0765-2.8979-7.4977-17.5049-28.0822-35.6935C1186.5226,52.416,1171.917,45.3809,1167.4451,45.3809Z"/><path class="cls-4" d="M1204.5846,122.952c-3.9074-2.7917-38.4691-28.21-49.0218-60.69l5.6677-1.8417c9.962,30.6674,43.0748,55.01,46.8164,57.6848Z"/><path class="cls-4" d="M1178.9638,134.6641c-.5121-.4627-1.1464-1.0184-1.8825-1.6643-6.718-5.8887-22.4466-19.68-31.6725-38.9055l5.3708-2.5778c8.6994,18.1275,23.785,31.354,30.2295,37.0027.7652.6707,1.4227,1.2482,1.9523,1.7283Z"/><path class="cls-4" d="M1154.4019,146.02c-.5469-.5673-1.2889-1.1943-2.1792-1.9551a64.4017,64.4017,0,0,1-16.421-20.3373l5.2545-2.8047a59.0261,59.0261,0,0,0,15.0391,18.6134c1.0619.9092,1.9406,1.6686,2.5952,2.3465Z"/><path class="cls-4" d="M1214.922,64.1485a2.98,2.98,0,0,1-2.9735-2.8513,36.2016,36.2016,0,0,1,34.57-37.6806,3.0129,3.0129,0,0,1,3.1044,2.8484,2.98,2.98,0,0,1-2.8484,3.1044,30.2369,30.2369,0,0,0-28.8736,31.4718,2.98,2.98,0,0,1-2.8484,3.1044C1215.0093,64.1471,1214.9656,64.1485,1214.922,64.1485Z"/><path class="cls-4" d="M1186.991,80.4154a2.9819,2.9819,0,0,1-2.8047-3.9874,54.5781,54.5781,0,0,0-7.1166-50.4009,2.9789,2.9789,0,1,1,4.83-3.4885,60.5436,60.5436,0,0,1,7.8963,55.9027A2.9813,2.9813,0,0,1,1186.991,80.4154Z"/><path class="cls-4" d="M1214.9685,90.18a2.98,2.98,0,0,1-1.0852-5.7549c6.1215-2.3974,14.8907-3.9991,24.0614-4.3934a86.2436,86.2436,0,0,1,20.9162,1.4446,2.979,2.979,0,1,1-1.2394,5.8277,80.3325,80.3325,0,0,0-19.4208-1.32c-8.5393.3681-16.61,1.8214-22.1469,3.9889A2.9668,2.9668,0,0,1,1214.9685,90.18Z"/><circle class="cls-4" cx="1235.9535" cy="52.473" r="4.469"/><circle class="cls-1" cx="1191.5382" cy="4.6062" r="4.469"/><rect class="cls-4" x="1198.1943" y="25.5761" width="8.4267" height="8.4267" transform="translate(149.9568 -552.4637) rotate(27.5337)"/><rect class="cls-4" x="1253.1152" y="58.9692" width="8.4267" height="8.4267" transform="translate(171.6138 -574.0698) rotate(27.5337)"/><polygon class="cls-1" points="1228.587 17.374 1217.842 21.794 1219.818 10.345 1228.587 17.374"/><polygon class="cls-4" points="1259.816 105.503 1254.327 95.263 1265.917 96.065 1259.816 105.503"/><circle class="cls-5" cx="1001.8765" cy="251.7701" r="28.8156"/><path class="cls-1" d="M1001.8755,283.5653a31.7948,31.7948,0,1,1,31.7948-31.7948A31.8306,31.8306,0,0,1,1001.8755,283.5653Zm0-57.6309a25.8362,25.8362,0,1,0,25.8362,25.8361A25.8661,25.8661,0,0,0,1001.8755,225.9344Z"/><path class="cls-1" d="M997.3862,262.5181a2.97,2.97,0,0,1-2.1065-.8728l-6.5114-6.5114a2.979,2.979,0,0,1,4.2129-4.213l4.405,4.405,13.3865-13.3865a2.979,2.979,0,0,1,4.2129,4.2129l-15.4929,15.493A2.97,2.97,0,0,1,997.3862,262.5181Z"/><path class="cls-1" d="M918.5976,257.5371a8.4087,8.4087,0,0,1-1.4664-.1309,8.2343,8.2343,0,1,1,1.4664.1309Zm-.0088-10.5119a2.2773,2.2773,0,1,0,2.2432,2.681h0a2.2734,2.2734,0,0,0-1.8358-2.6432A2.2889,2.2889,0,0,0,918.5888,247.0252Z"/><path class="cls-1" d="M946.9533,262.6505a8.2368,8.2368,0,1,1,8.0884-6.7762h0a8.2414,8.2414,0,0,1-8.0884,6.7762Zm-.0174-10.5134a2.2754,2.2754,0,0,0-.4015,4.5155,2.2755,2.2755,0,0,0,2.6418-1.8344,2.2788,2.2788,0,0,0-1.8359-2.6462A2.371,2.371,0,0,0,946.9359,252.1371Zm5.173,3.2092h0Z"/><path class="cls-1" d="M912.2316,287.5716a2.9066,2.9066,0,0,1-.5324-.048,2.9793,2.9793,0,0,1-2.4032-3.4594l5.432-30.12a2.98,2.98,0,0,1,5.8655,1.0576l-5.432,30.12A2.9824,2.9824,0,0,1,912.2316,287.5716Z"/><path class="cls-1" d="M912.348,287.25a2.9819,2.9819,0,0,1-2.8571-3.8216,13.351,13.351,0,0,1,6.0808-7.7843,3.0282,3.0282,0,0,1,.46-.2182l23.1973-8.7139a7.438,7.438,0,0,0,3.36-4.9825l.483-2.6738a2.98,2.98,0,0,1,5.8655,1.0591l-.483,2.6738a13.4029,13.4029,0,0,1-6.4125,9.1852,2.8894,2.8894,0,0,1-.46.2182l-23.1972,8.7139a7.4235,7.4235,0,0,0-3.18,4.2042A2.98,2.98,0,0,1,912.348,287.25Z"/><path class="cls-1" d="M908.33,429.4072a2.982,2.982,0,0,1-2.8047-1.977l-5.5775-15.5919a2.9789,2.9789,0,0,1,5.61-2.0075l5.5774,15.5918a2.9835,2.9835,0,0,1-2.8047,3.9846Z"/><path class="cls-1" d="M897.7453,424.4a2.98,2.98,0,0,1-1.0037-5.7855l15.5919-5.5775a2.9789,2.9789,0,1,1,2.0075,5.61l-15.5919,5.5774A2.9677,2.9677,0,0,1,897.7453,424.4Z"/><path class="cls-1" d="M1184.614,334.36a2.9639,2.9639,0,0,1-1.33-.3142l-16.7906-8.3968a2.9788,2.9788,0,0,1-1.3325-3.9991l8.4026-16.7877a2.9781,2.9781,0,0,1,3.9976-1.33l16.7848,8.4a2.9779,2.9779,0,0,1,1.3325,3.9961l-8.3968,16.7848A2.98,2.98,0,0,1,1184.614,334.36Zm-12.79-12.7072,11.46,5.73,5.7317-11.4561-11.4575-5.7331Z"/><path class="cls-1" d="M1101.1731,229.4956a9.8886,9.8886,0,1,1,9.8922-9.8879A9.9,9.9,0,0,1,1101.1731,229.4956Zm0-13.8186a3.93,3.93,0,1,0,3.9336,3.9307A3.9349,3.9349,0,0,0,1101.1731,215.677Z"/><path class="cls-3" d="M929.059,64.0873A21.581,21.581,0,0,0,904.3961,61.91l14.517,12.217-.7954,8.9747-8.707,2.3166-14.517-12.217a21.56,21.56,0,0,0,29.2009,27.041l21.923,18.45a9.2527,9.2527,0,0,0,13.0372-1.1217h0a9.2527,9.2527,0,0,0-1.1217-13.0372L936.02,86.0917A21.5745,21.5745,0,0,0,929.059,64.0873Z"/><path class="cls-4" d="M951.9634,123.8393a12.176,12.176,0,0,1-7.8643-2.8672l-20.55-17.294a24.5351,24.5351,0,0,1-31.4544-31.4994,2.9788,2.9788,0,0,1,4.7163-1.2569l13.3312,11.2189,5.19-1.38.4743-5.352-13.3283-11.219a2.9786,2.9786,0,0,1,.4306-4.8617,24.6486,24.6486,0,0,1,28.0677,2.48h0a24.6939,24.6939,0,0,1,8.3385,23.1638l20.5351,17.2823a12.2276,12.2276,0,0,1-7.8876,21.5854Zm-27.87-26.5766a2.97,2.97,0,0,1,1.9173.7l21.9229,18.45a6.2746,6.2746,0,0,0,8.0825-9.6L934.1022,88.3714a2.9787,2.9787,0,0,1-.966-3.0346,18.57,18.57,0,0,0-23.1245-22.595l10.8174,9.1052a2.9793,2.9793,0,0,1,1.05,2.5429l-.7942,8.9757a2.976,2.976,0,0,1-2.2025,2.6156l-8.7081,2.316a2.9853,2.9853,0,0,1-2.6825-.5994l-10.8175-9.1037A18.5674,18.5674,0,0,0,922.86,97.5289,2.9867,2.9867,0,0,1,924.0936,97.2627Z"/><circle class="cls-3" cx="1113.3021" cy="59.263" r="17.8758"/><path class="cls-4" d="M1113.3027,80.1186a20.8551,20.8551,0,1,1,20.8551-20.8551A20.88,20.88,0,0,1,1113.3027,80.1186Zm0-35.7516a14.8965,14.8965,0,1,0,14.8965,14.8965A14.914,14.914,0,0,0,1113.3027,44.367Z"/><path class="cls-4" d="M1119.1129,65.9378a2.953,2.953,0,0,1-1.5944-.4655l-5.8131-3.695a2.9743,2.9743,0,0,1-1.382-2.5138V51.165a2.9793,2.9793,0,1,1,5.9586,0v6.4619l4.4311,2.8179a2.9787,2.9787,0,0,1-1.6,5.493Z"/><circle class="cls-3" cx="970.8226" cy="59.263" r="17.8758"/><path class="cls-4" d="M970.8227,60.6833a2.9785,2.9785,0,0,1-2.9793-2.9793V51.5519a2.9793,2.9793,0,1,1,5.9586,0V57.704A2.9786,2.9786,0,0,1,970.8227,60.6833Z"/><path class="cls-4" d="M970.8169,68.923a2.9509,2.9509,0,0,1-2.9794-2.9793,3.08,3.08,0,0,1,.8642-2.1152,2.9794,2.9794,0,0,1,5.0945,2.1152,1.8744,1.8744,0,0,1-.0582.5659,1.7656,1.7656,0,0,1-.18.5658,1.6132,1.6132,0,0,1-.2677.5063,2.86,2.86,0,0,1-.3579.4772A3.1282,3.1282,0,0,1,970.8169,68.923Z"/><path class="cls-4" d="M970.8227,80.1186a20.8551,20.8551,0,1,1,20.8551-20.8551A20.88,20.88,0,0,1,970.8227,80.1186Zm0-35.7516a14.8965,14.8965,0,1,0,14.8965,14.8965A14.914,14.914,0,0,0,970.8227,44.367Z"/></g></g></svg>