<svg xmlns="http://www.w3.org/2000/svg" xmlns:xlink="http://www.w3.org/1999/xlink" viewBox="0 0 540 400"><defs><style>.cls-1{fill:none;}.cls-2{fill:#ff9769;}.cls-3{fill:#e0e0e0;}.cls-4{fill:#380d75;}.cls-5{fill:#6e49cb;}.cls-6{fill:#a686ff;}.cls-7{clip-path:url(#clip-path);}.cls-8{fill:#fc6d26;}.cls-9{fill:#341472;}.cls-10{fill:#fff;}</style><clipPath id="clip-path"><path class="cls-1" d="M359.31,374.9292V296.9868H218.2971V245.1977l118.9636-195.88h92.3009v190.24H466.994v57.43H429.5616v77.9424Z"/></clipPath></defs><g id="Layer_2" data-name="Layer 2"><g id="Layer_1-2" data-name="Layer 1"><rect class="cls-1" width="540" height="400"/><path class="cls-2" d="M146.5177,347.3235a2.2571,2.2571,0,0,1-2.2573-2.2572V276.8046a2.2635,2.2635,0,0,1,.022-.3152,25.74,25.74,0,0,0,.2569-3.5829,2.2573,2.2573,0,0,1,4.5145,0,30.2229,30.2229,0,0,1-.2788,4.0532v68.1066A2.2571,2.2571,0,0,1,146.5177,347.3235Z"/><path class="cls-3" d="M107.2178,250.4627a25.29,25.29,0,0,0-13.412,20.445,2.3928,2.3928,0,0,1-.878,1.7371,2.2607,2.2607,0,0,1-2.41.2242,17.5032,17.5032,0,0,0-8.06-1.9334A17.82,17.82,0,0,0,64.6561,288.728a19.1747,19.1747,0,0,0,.1214,2.0361,2.2554,2.2554,0,0,1-3.2316,2.2884,23.3779,23.3779,0,0,0-10.3672-2.391,24.5367,24.5367,0,0,0-3.24.2122,2.2422,2.2422,0,0,1-2.523-2.2345h0a2.25,2.25,0,0,1,1.9362-2.2377,28.9165,28.9165,0,0,1,3.8265-.2513,28.0539,28.0539,0,0,1,8.9942,1.4665,22.3433,22.3433,0,0,1,22.2849-21.2015,21.8513,21.8513,0,0,1,7.22,1.2049,29.7519,29.7519,0,0,1,15.42-21.1456,2.2583,2.2583,0,0,1,2.12,3.9882Z"/><path class="cls-3" d="M84.1,333.724a2.2587,2.2587,0,0,1-2.0152-3.2721,17.6769,17.6769,0,0,1,24.11-7.655,25.4118,25.4118,0,0,1,1.5736-2.2808,2.2571,2.2571,0,0,1,3.5711,2.7613,21.0764,21.0764,0,0,0-2.2874,3.6916,2.2574,2.2574,0,0,1-3.372.8318A13.153,13.153,0,0,0,86.1187,332.48,2.2581,2.2581,0,0,1,84.1,333.724Z"/><path class="cls-3" d="M515.1083,288.6348a23.9153,23.9153,0,0,1,11.4092,2.8837,2.275,2.275,0,0,1,1.2,1.9982v0a2.2511,2.2511,0,0,1-3.3351,1.97,19.4671,19.4671,0,0,0-9.2737-2.3412,20.3549,20.3549,0,0,0-3.4091.2987,2.2664,2.2664,0,0,1-2.4805-1.3665,2.3486,2.3486,0,0,1,.1011-1.9111,14.4508,14.4508,0,0,0-20.3164-18.6524,2.2579,2.2579,0,0,1-2.27-3.904,18.9841,18.9841,0,0,1,27.9075,21.0241Z"/><path class="cls-2" d="M386.8512,347.3235a2.2569,2.2569,0,0,1-2.2573-2.2572V278.16a2.2569,2.2569,0,0,1,2.2573-2.2573h43.4094a29.934,29.934,0,0,1,28.45-20.6323,2.2573,2.2573,0,0,1,0,4.5146,25.4121,25.4121,0,0,0-24.5774,18.9474,2.2579,2.2579,0,0,1-2.1838,1.6849H389.1085v64.6487A2.2569,2.2569,0,0,1,386.8512,347.3235Z"/><path class="cls-2" d="M392.9169,347.3235c-.0433,0-.0867-.0014-.1308-.0036a2.2572,2.2572,0,0,1-2.125-2.3822c.0764-1.3388.2748-5.0407.2748-6.0738a25.4384,25.4384,0,0,0-25.4092-25.4092,2.2573,2.2573,0,0,1,0-4.5146,29.958,29.958,0,0,1,29.9238,29.9238c0,1.3726-.27,6.1289-.2822,6.3309A2.2574,2.2574,0,0,1,392.9169,347.3235Z"/><path class="cls-3" d="M338.8508,333.7975a2.26,2.26,0,0,1-2.1787-2.854,29.96,29.96,0,0,1,12.1432-16.9025,2.2573,2.2573,0,0,1,2.5262,3.7416,25.4435,25.4435,0,0,0-10.315,14.3528A2.2586,2.2586,0,0,1,338.8508,333.7975Z"/><path class="cls-3" d="M338.8581,333.8a2.2468,2.2468,0,0,1-1.0236-.2469,17.604,17.604,0,0,0-8.0651-1.934,19.0246,19.0246,0,0,0-4.9047.6342,2.2572,2.2572,0,0,1-1.1639-4.3618,23.54,23.54,0,0,1,6.0686-.7869,22.075,22.075,0,0,1,10.1152,2.4262,2.2578,2.2578,0,0,1-1.0265,4.2692Z"/><path class="cls-3" d="M159.5257,295.5793a2.2568,2.2568,0,0,1-2.2572-2.2572,29.9271,29.9271,0,0,1,47.2171-24.4246,15.2082,15.2082,0,0,1,29.064,6.2678,2.2573,2.2573,0,1,1-4.5145,0,10.69,10.69,0,0,0-21.1842-2.0427,2.2569,2.2569,0,0,1-3.7224,1.2572,25.409,25.409,0,0,0-42.3455,18.9423A2.2569,2.2569,0,0,1,159.5257,295.5793Z"/><circle class="cls-3" cx="285.8771" cy="193.8164" r="67.7186"/><path class="cls-4" d="M125.9473,384.16V323.14h0V134.9522H72.387V88.29c17.7715-3.4139,27.0272-5.8463,39.334-10.6376,12.3068-4.7832,22.5991-12.2614,34.2244-19.1035h49.841V323.14h0v61.02Z"/><path class="cls-4" d="M197.6329,386.0068H124.101V136.7984h-53.56V86.7641l1.4979-.2873c18.044-3.4668,27.1591-5.93,39.0128-10.545,8.8142-3.4256,16.5306-8.23,24.7-13.3182,2.9939-1.8641,6.0892-3.7915,9.2573-5.6557l.4335-.2557h52.1906Zm-69.84-3.6931H193.94V60.3953h-47.49c-2.9793,1.762-5.9085,3.5858-8.7459,5.353-8.32,5.181-16.1787,10.0747-25.3137,13.6245-11.7582,4.5778-20.8424,7.0746-38.1567,10.4407v43.2919h53.56Z"/><path class="cls-4" d="M369.8632,384.16V306.2178H228.8508V254.4287l118.9635-195.88h92.301v190.24h37.4324v57.43H440.1153V384.16Zm-68.7114-135.372h68.7114V135.9042Z"/><path class="cls-4" d="M441.9615,386.0068H368.0169V308.0642H227.0041V253.9121l119.7714-197.21h95.186v190.24h37.4326v61.1223H441.9615ZM371.71,382.3137h66.5584V304.3712H475.701V250.6349H438.2684V60.3953H348.8535l-118.1563,194.55v49.426H371.71Zm0-131.6788H297.8669L371.71,129.32Zm-67.2726-3.693h63.5795V142.4879Z"/><path class="cls-5" d="M116.7163,374.9292v-61.02h0V125.7212H63.156V79.0587c17.7715-3.4139,27.0272-5.8463,39.334-10.6376,12.3068-4.7832,22.5991-12.2614,34.2244-19.1035h49.841V313.9091h0v61.02Z"/><path class="cls-5" d="M359.31,374.9292V296.9868H218.2971V245.1977l118.9636-195.88h92.3009v190.24H466.994v57.43H429.5616v77.9424Zm-68.7114-135.372H359.31V126.6732Z"/><polygon class="cls-6" points="347.814 58.549 430.884 58.549 430.884 49.318 338.583 49.318 219.62 245.198 219.62 296.987 228.851 296.987 228.851 254.429 347.814 58.549"/><g class="cls-7"><path class="cls-8" d="M296.0676,118.3066h0c-10.6478,4.1261-16.0844,15.7166-12.1429,25.8883l3.8323,9.89,8.1088-3.1422-3.8323-9.89a11.7216,11.7216,0,0,1,7.0358-15h0a11.7217,11.7217,0,0,1,15.306,6.3425l3.8323,9.89,8.1088-3.1422-3.8323-9.89C318.5425,119.0814,306.7155,114.1805,296.0676,118.3066Z"/><path class="cls-4" d="M287.7576,155.9663a1.8821,1.8821,0,0,1-1.7547-1.2022l-3.8319-9.89a21.0526,21.0526,0,0,1,.651-16.69,22.9106,22.9106,0,0,1,12.5657-11.6317c11.5995-4.494,24.54.8986,28.85,12.02l3.8327,9.89a1.881,1.881,0,1,1-3.5079,1.3593l-3.8327-9.89c-3.56-9.1871-14.3189-13.6142-23.9829-9.8719a19.1633,19.1633,0,0,0-10.5193,9.722,17.3223,17.3223,0,0,0-.5489,13.7326l3.8319,9.89a1.883,1.883,0,0,1-1.7532,2.5615Z"/><path class="cls-4" d="M295.8668,152.8243a1.8822,1.8822,0,0,1-1.7547-1.2021l-3.8327-9.89a12.9816,12.9816,0,0,1,.399-10.2923A14.2615,14.2615,0,0,1,308.9,124.38a12.9831,12.9831,0,0,1,7.23,7.3362l3.8319,9.89a1.881,1.881,0,0,1-3.5079,1.3593l-3.8319-9.89a9.2533,9.2533,0,0,0-5.1627-5.22,10.5,10.5,0,0,0-13.3747,5.1825,9.257,9.257,0,0,0-.2969,7.3354l3.8327,9.89a1.883,1.883,0,0,1-1.7532,2.5615Z"/></g><path class="cls-9" d="M270.9845,265.7327a3.6636,3.6636,0,0,0-.57.9815,10.94,10.94,0,0,1,6.1018,8.9889,1.8808,1.8808,0,0,0,2.5343,1.6247,17.68,17.68,0,0,1,13.8061.6238,1.8829,1.8829,0,0,0,2.3314-.5812,27.6475,27.6475,0,0,1,45.0267.6024,1.881,1.881,0,0,0,2.649.4506,17.6289,17.6289,0,0,1,22.0842,1.136,1.8808,1.8808,0,0,0,2.8922-.4793,29.7178,29.7178,0,0,1,49.251-3.8237,1.88,1.88,0,0,0,2.4976.4143,27.5312,27.5312,0,0,1,14.279-4.3929,30.6141,30.6141,0,0,1,2.8622-3.71c-.7157-.05-1.434-.077-2.1543-.077a31.3044,31.3044,0,0,0-15.599,4.1493,33.4753,33.4753,0,0,0-53.2689,3.71,21.3984,21.3984,0,0,0-23.4951-1.0015,31.4047,31.4047,0,0,0-49.13-.4027,21.4836,21.4836,0,0,0-13.17-.825,14.7367,14.7367,0,0,0-5.9971-8.7023l-.3361.0146A3.6089,3.6089,0,0,0,270.9845,265.7327Z"/><path class="cls-9" d="M433.8675,271.2778a30.041,30.041,0,0,0-3.9564,8.8421c-.25.9477-.4589,1.9118-.616,2.8936A21.8191,21.8191,0,0,0,401.9167,304.11c0,.1131.0007.2262.0029.34q-.539-.02-1.0676-.02a30.2369,30.2369,0,0,0-21.2342,8.7534,30.6034,30.6034,0,0,1,3.2859,2.0641,26.4516,26.4516,0,0,1,17.9483-7.0556,27.2429,27.2429,0,0,1,2.8892.1587,1.8805,1.8805,0,0,0,2.0692-2.09,18.3,18.3,0,0,1-.1316-2.1508,18.0531,18.0531,0,0,1,24.5348-16.85,1.8807,1.8807,0,0,0,2.5512-1.6057,26.4807,26.4807,0,0,1,35.5519-22.7415v-3.966a30.0534,30.0534,0,0,0-31.587,8.6213A30.6141,30.6141,0,0,0,433.8675,271.2778Z"/><path class="cls-9" d="M422.55,356.4591c.0022-.1137.0029-.2271.0029-.34a21.8215,21.8215,0,0,0-27.3784-21.0958,30.534,30.534,0,0,0-15.5564-21.84,29.7656,29.7656,0,0,0-18.9855-3.2852v3.8183a26.4155,26.4155,0,0,1,31.0722,23.9466,1.88,1.88,0,0,0,2.5512,1.6055,18.0551,18.0551,0,0,1,24.5348,16.85,18.3115,18.3115,0,0,1-.1316,2.1517,1.8809,1.8809,0,0,0,2.0692,2.0905,27.11,27.11,0,0,1,2.8892-.16,26.2362,26.2362,0,0,1,7.267,1.0268V357.335a29.9619,29.9619,0,0,0-7.267-.8957Q423.0895,356.4393,422.55,356.4591Z"/><path class="cls-10" d="M360.6323,309.8982a29.7656,29.7656,0,0,1,18.9855,3.2852A30.2369,30.2369,0,0,1,400.852,304.43q.5291,0,1.0676.02c-.0022-.114-.0029-.2271-.0029-.34a21.8191,21.8191,0,0,1,27.3784-21.0961c.1571-.9818.366-1.9459.616-2.8936a30.041,30.041,0,0,1,3.9564-8.8421,27.5312,27.5312,0,0,0-14.279,4.3929,1.88,1.88,0,0,1-2.4976-.4143A29.7178,29.7178,0,0,0,367.84,279.08a1.8808,1.8808,0,0,1-2.8922.4793,17.6289,17.6289,0,0,0-22.0842-1.136,1.881,1.881,0,0,1-2.649-.4506,27.6475,27.6475,0,0,0-45.0267-.6024,1.8829,1.8829,0,0,1-2.3314.5812,17.68,17.68,0,0,0-13.8061-.6238,1.8808,1.8808,0,0,1-2.5343-1.6247,10.94,10.94,0,0,0-6.1018-8.9889,3.53,3.53,0,0,0-.2549,1.7984l.8384,6.3183a1.8823,1.8823,0,0,1-.7488,1.7615,39.8941,39.8941,0,0,1-10.2937,5.3661,1.8791,1.8791,0,0,1-1.8723-.3947l-1.5764-1.4439-3.1233-2.8612a3.6489,3.6489,0,0,0-5.303.4674l-1.8325,2.3938-.1546.2018-1.8919,2.4716a1.8822,1.8822,0,0,1-1.4938.7376,1.8439,1.8439,0,0,1-.2822-.0212,37.6737,37.6737,0,0,1-11.066-3.4815,1.8811,1.8811,0,0,1-1.0456-1.6041l-.2792-6.3767a3.6478,3.6478,0,0,0-4.08-3.4181l-6.3177.8385c-.0059.0007-.0115-.0007-.0173,0v27.519H360.6323Z"/><path class="cls-10" d="M459.1909,261.2792a26.6391,26.6391,0,0,0-26.4261,24.3744,1.8807,1.8807,0,0,1-2.5512,1.6057,18.0531,18.0531,0,0,0-24.5348,16.85,18.3,18.3,0,0,0,.1316,2.1508,1.8805,1.8805,0,0,1-2.0692,2.09,27.2429,27.2429,0,0,0-2.8892-.1587,26.4516,26.4516,0,0,0-17.9483,7.0556,30.3516,30.3516,0,0,1,12.27,19.7756,21.8215,21.8215,0,0,1,27.3784,21.0958c0,.1131-.0007.2265-.0029.34q.539-.02,1.0676-.02a29.9619,29.9619,0,0,1,7.267.8957V296.9868h37.4324V262.9121A26.4214,26.4214,0,0,0,459.1909,261.2792Z"/><path class="cls-10" d="M420.7281,360.3611a1.8809,1.8809,0,0,1-2.0692-2.0905,18.3115,18.3115,0,0,0,.1316-2.1517,18.0551,18.0551,0,0,0-24.5348-16.85,1.88,1.88,0,0,1-2.5512-1.6055,26.4155,26.4155,0,0,0-31.0722-23.9466v61.2126h70.252V361.2283a26.2362,26.2362,0,0,0-7.267-1.0268A27.11,27.11,0,0,0,420.7281,360.3611Z"/><path class="cls-10" d="M246.3534,251.6967a15.2007,15.2007,0,0,1,8.8306,7.6717,14.77,14.77,0,0,0-2.7494-26.9983,14.6913,14.6913,0,0,0-11.2688.9928,14.7545,14.7545,0,0,0-6.4444,19.5665A15.2085,15.2085,0,0,1,246.3534,251.6967ZM242.121,240.519a7.3917,7.3917,0,1,1,.4967,5.6358A7.4009,7.4009,0,0,1,242.121,240.519Z"/><path class="cls-8" d="M245.2248,255.2854a11.4085,11.4085,0,0,0-8.4335.8038,14.7173,14.7173,0,0,0,14.8881,4.684A11.4027,11.4027,0,0,0,245.2248,255.2854Z"/><path class="cls-8" d="M248.0831,246.2a3.6294,3.6294,0,0,0,4.552-2.3726v-.0009a3.63,3.63,0,1,0-4.552,2.3735Z"/><path class="cls-6" d="M225.46,264.9a7.4109,7.4109,0,0,1,8.3341,6.9835l.2293,5.2448a33.9011,33.9011,0,0,0,7.8792,2.4793l3.1912-4.1685a7.41,7.41,0,0,1,10.8308-.9545l3.865,3.541a33.83,33.83,0,0,0,7.33-3.821l-.69-5.1962a7.4113,7.4113,0,0,1,6.9842-8.3343l5.2442-.2292a33.9039,33.9039,0,0,0,2.4792-7.8791l-4.1685-3.1912a7.4114,7.4114,0,0,1-.9545-10.8309l3.541-3.8657a33.845,33.845,0,0,0-3.8217-7.33l-5.1957.69a7.4112,7.4112,0,0,1-8.334-6.9835l-.2293-5.245a33.9223,33.9223,0,0,0-7.8792-2.4793l-3.1912,4.1685a7.41,7.41,0,0,1-10.8309.9545l-2.7054-2.4786-17.3294,28.534a7.3551,7.3551,0,0,1-.0552,9.8864l-.3633.3966V264.59c.2131.334.4189.6727.644.9994Zm6.0974-9.8588a18.5962,18.5962,0,1,1,10.8771,9.1153A18.42,18.42,0,0,1,231.5569,255.0407Z"/><path class="cls-9" d="M221.8907,248.7694a7.3885,7.3885,0,0,0-1.8524-4.2609l-.4185.6891v9.5939l.3633-.3966A7.388,7.388,0,0,0,221.8907,248.7694Z"/><path class="cls-9" d="M237.3677,215.9745l2.7054,2.4786a7.41,7.41,0,0,0,10.8309-.9545l3.1912-4.1685a33.9223,33.9223,0,0,1,7.8792,2.4793l.2293,5.245a7.4112,7.4112,0,0,0,8.334,6.9835l5.1957-.69a33.845,33.845,0,0,1,3.8217,7.33l-3.541,3.8657a7.4114,7.4114,0,0,0,.9545,10.8309l4.1685,3.1912a33.9039,33.9039,0,0,1-2.4792,7.8791l-5.2442.2292a7.4113,7.4113,0,0,0-6.9842,8.3343l.69,5.1962a33.83,33.83,0,0,1-7.33,3.821l-3.865-3.541a7.41,7.41,0,0,0-10.8308.9545l-3.1912,4.1685a33.9011,33.9011,0,0,1-7.8792-2.4793l-.2293-5.2448A7.4109,7.4109,0,0,0,225.46,264.9l-5.1957.69c-.2251-.3267-.4309-.6654-.644-.9994v4.8779c.0058-.0007.0114.0007.0173,0l6.3177-.8385a3.6478,3.6478,0,0,1,4.08,3.4181l.2792,6.3767a1.8811,1.8811,0,0,0,1.0456,1.6041,37.6737,37.6737,0,0,0,11.066,3.4815,1.8439,1.8439,0,0,0,.2822.0212,1.8822,1.8822,0,0,0,1.4938-.7376l1.8919-2.4716.1546-.2018,1.8325-2.3938a3.6489,3.6489,0,0,1,5.303-.4674l3.1233,2.8612,1.5764,1.4439a1.8791,1.8791,0,0,0,1.8723.3947,39.8941,39.8941,0,0,0,10.2937-5.3661,1.8823,1.8823,0,0,0,.7488-1.7615l-.8384-6.3183a3.53,3.53,0,0,1,.2549-1.7984,3.6636,3.6636,0,0,1,.57-.9815,3.6089,3.6089,0,0,1,2.5938-1.3l.3361-.0146,6.04-.2645a1.8829,1.8829,0,0,0,1.6041-1.0457,37.6813,37.6813,0,0,0,3.4814-11.066,1.8823,1.8823,0,0,0-.7164-1.7759l-5.0679-3.88a3.649,3.649,0,0,1-.4666-5.3023l4.3051-4.7005a1.88,1.88,0,0,0,.3946-1.872,37.57,37.57,0,0,0-5.3669-10.2939,1.8761,1.8761,0,0,0-1.7613-.748l-6.3178.8383a3.6477,3.6477,0,0,1-4.0795-3.4181l-.2793-6.3765a1.8817,1.8817,0,0,0-1.0463-1.6041,37.697,37.697,0,0,0-11.0653-3.4815,1.8785,1.8785,0,0,0-1.776.7164l-3.879,5.0672a3.6492,3.6492,0,0,1-5.3029.4672l-3.2554-2.9821Z"/><path class="cls-9" d="M246.3534,251.6967a15.2085,15.2085,0,0,0-11.632,1.2327c.06.1232.1079.25.1714.3722a14.8769,14.8769,0,0,0,1.8985,2.7876,10.8823,10.8823,0,0,1,14.8881,4.684,14.8724,14.8724,0,0,0,3.1521-1.1987c.1216-.0634.2332-.14.3525-.2061A15.2007,15.2007,0,0,0,246.3534,251.6967Z"/><path class="cls-9" d="M246.9538,249.7884a7.3917,7.3917,0,1,0-4.3361-3.6336A7.4005,7.4005,0,0,0,246.9538,249.7884Zm-1.2441-8.1407a3.63,3.63,0,1,1,6.9254,2.1786v.0009a3.63,3.63,0,0,1-6.9254-2.18Z"/><path class="cls-9" d="M242.434,264.156a18.5416,18.5416,0,1,0-10.8771-9.1153A18.6038,18.6038,0,0,0,242.434,264.156Zm-1.2682-30.7931a14.7727,14.7727,0,0,1,14.0182,26.0055c-.1193.0663-.2309.1427-.3525.2061a14.8724,14.8724,0,0,1-3.1521,1.1987,14.7173,14.7173,0,0,1-14.8881-4.684,14.8769,14.8769,0,0,1-1.8985-2.7876c-.0635-.122-.1114-.249-.1714-.3722a14.7545,14.7545,0,0,1,6.4444-19.5665Z"/><polygon class="cls-6" points="125.947 134.952 116.716 134.952 116.716 313.909 116.716 374.929 125.947 374.929 125.947 323.14 125.947 134.952"/><path class="cls-6" d="M111.721,77.6521c12.3068-4.7832,22.5991-12.2614,34.2243-19.1035h40.61v-9.231h-49.841c-11.6253,6.8421-21.9176,14.32-34.2244,19.1035-12.3068,4.7912-21.5625,7.2237-39.334,10.6376v46.6625h9.231V88.29C90.1585,84.8758,99.4142,82.4433,111.721,77.6521Z"/><rect class="cls-6" x="440.1153" y="239.5572" width="28.2014" height="9.231"/><polygon class="cls-6" points="360.632 239.557 306.771 239.557 301.152 248.788 369.863 248.788 369.863 135.904 360.632 151.07 360.632 239.557"/><path class="cls-6" d="M185.8167,250.6209,159.7329,112.8146h-2.1794v6.464l-3.2992-3.7863a3.1693,3.1693,0,0,0-4.8144.04l-3.3208,3.951v-6.6684H143.94l-2.3212,12.2613-22.3,117.7988a30.4468,30.4468,0,0,1,29.2659,25.4833,21.7886,21.7886,0,0,1,18.5833,3.6073,30.253,30.253,0,0,1,19.3881-8.1751V252.0109l-.49-.0711Zm-48.6952-14.2278a1.881,1.881,0,0,1-1.87,1.704c-.06,0-.119-.0029-.18-.0079a1.8815,1.8815,0,0,1-1.6951-2.05l3.1551-33.33a1.881,1.881,0,1,1,3.7453.3542Zm4.8813-51.5612a1.8812,1.8812,0,0,1-1.8705,1.704c-.0595,0-.119-.003-.18-.008a1.8815,1.8815,0,0,1-1.6952-2.05l1.7128-18.0944a1.881,1.881,0,1,1,3.7453.3543Zm7.9526-30.9759a1.8809,1.8809,0,1,1,3.7618,0l-.0044,58.9738a1.8811,1.8811,0,0,1-3.7621,0Zm3.7574,101.0855a1.8807,1.8807,0,0,1-1.8811,1.88h0a1.8809,1.8809,0,0,1-1.8806-1.8817l.0047-22.0166a1.8812,1.8812,0,0,1,1.8811-1.88h0a1.8816,1.8816,0,0,1,1.8811,1.8817Zm9.592-52.8021-3.3294-35.1864a1.8814,1.8814,0,0,1,3.746-.3544l3.3294,35.1864a1.8821,1.8821,0,0,1-1.6959,2.05c-.06.0052-.12.008-.1793.008A1.8817,1.8817,0,0,1,163.3048,202.1394Zm6.4809,48.5221c-.06.005-.12.008-.1793.008a1.8817,1.8817,0,0,1-1.8708-1.704l-2.923-30.8877a1.8813,1.8813,0,1,1,3.7459-.3544l2.9231,30.8879A1.8821,1.8821,0,0,1,169.7857,250.6615Z"/><path class="cls-9" d="M144.23,111.2834l-2.611,13.7925,2.3212-12.2613h2.1794v6.6684l3.3208-3.951a3.1693,3.1693,0,0,1,4.8144-.04l3.2992,3.7863v-6.464h2.1794l26.0838,137.8063L159.4435,111.2834a1.8808,1.8808,0,1,1,3.6959-.7l23.4161,123.7137v-.0023L162.85,109.0527h-9.0586v1.8625a7.0341,7.0341,0,0,0-3.91.0155v-1.878h-7.51a1.8622,1.8622,0,0,1,.36.0328A1.8809,1.8809,0,0,1,144.23,111.2834Z"/><path class="cls-9" d="M136.17,133.6305l4.3629-23.0466a1.88,1.88,0,0,1,1.8024-1.5312h-1.5125Z"/><path class="cls-9" d="M185.8167,250.6209l.2491,1.3189.49.0711v-.228A1.866,1.866,0,0,1,185.8167,250.6209Z"/><path class="cls-9" d="M140.5328,110.5839,136.17,133.6305,116.7163,236.3918v6.54c.6534-.0425,1.31-.0712,1.9709-.0712.2113,0,.42.01.631.0146l22.3-117.7988,2.611-13.7925a1.8809,1.8809,0,0,0-1.4986-2.1979,1.8622,1.8622,0,0,0-.36-.0328c-.0121,0-.0241-.0005-.0361,0A1.88,1.88,0,0,0,140.5328,110.5839Z"/><path class="cls-9" d="M160.9417,109.0855a1.881,1.881,0,0,0-1.4982,2.1979l26.3732,139.3375a1.866,1.866,0,0,0,.7388,1.162V234.2976L163.1394,110.5839A1.8805,1.8805,0,0,0,160.9417,109.0855Z"/><path class="cls-9" d="M142.02,164.6876a1.892,1.892,0,0,0-2.05,1.6958l-1.7128,18.0944a1.8815,1.8815,0,0,0,1.6952,2.05c.0606.005.12.008.18.008a1.8812,1.8812,0,0,0,1.8705-1.704l1.7128-18.0942A1.8814,1.8814,0,0,0,142.02,164.6876Z"/><path class="cls-9" d="M138.5815,201.0129a1.891,1.891,0,0,0-2.05,1.6958l-3.1551,33.33a1.8815,1.8815,0,0,0,1.6951,2.05c.0607.005.12.0079.18.0079a1.881,1.881,0,0,0,1.87-1.704l3.1552-33.33A1.8812,1.8812,0,0,0,138.5815,201.0129Z"/><path class="cls-9" d="M151.8317,214.7108a1.881,1.881,0,0,0,1.8811-1.881l.0044-58.9738a1.8809,1.8809,0,1,0-3.7618,0l-.0047,58.9738A1.8809,1.8809,0,0,0,151.8317,214.7108Z"/><path class="cls-9" d="M151.8341,231.0432h0a1.881,1.881,0,0,1,1.881,1.881v22.0163a1.8812,1.8812,0,0,1-1.8812,1.8812h0a1.8807,1.8807,0,0,1-1.8807-1.8807V232.9243a1.8811,1.8811,0,0,1,1.8811-1.8811Z"/><path class="cls-9" d="M165.3549,203.8352a1.8821,1.8821,0,0,0,1.6959-2.05l-3.3294-35.1864a1.8814,1.8814,0,0,0-3.746.3544l3.3294,35.1864a1.8817,1.8817,0,0,0,1.8708,1.7038C165.2351,203.8432,165.2946,203.84,165.3549,203.8352Z"/><path class="cls-9" d="M166.5085,216.0276a1.8821,1.8821,0,0,0-1.6959,2.05l2.923,30.8877a1.8817,1.8817,0,0,0,1.8708,1.704c.0595,0,.119-.003.1793-.008a1.8821,1.8821,0,0,0,1.6959-2.05l-2.9231-30.8879A1.888,1.888,0,0,0,166.5085,216.0276Z"/><path class="cls-10" d="M130.5418,310.6941c-.0019-.1138-.0029-.2278-.0029-.34a21.8191,21.8191,0,0,1,27.3784-21.0958,30.088,30.088,0,0,1,6.6371-14.5247,17.9783,17.9783,0,0,0-16.895-2.1259,1.89,1.89,0,0,1-2.55-1.6064,26.6354,26.6354,0,0,0-26.4224-24.3769c-.6617,0-1.3179.0328-1.9709.0816v66.8174a29.98,29.98,0,0,1,12.7582-2.8489Q130.0031,310.6742,130.5418,310.6941Z"/><path class="cls-9" d="M118.6872,246.6241A26.6354,26.6354,0,0,1,145.11,271.001a1.89,1.89,0,0,0,2.55,1.6064,17.9783,17.9783,0,0,1,16.895,2.1259,30.7656,30.7656,0,0,1,2.613-2.768,21.7886,21.7886,0,0,0-18.5833-3.6073,30.4468,30.4468,0,0,0-29.2659-25.4833c-.2105-.0046-.42-.0146-.631-.0146-.6613,0-1.3175.0287-1.9709.0712v3.7744C117.3693,246.6569,118.0255,246.6241,118.6872,246.6241Z"/><path class="cls-10" d="M161.387,291.898a1.8809,1.8809,0,0,1-2.5512,1.6056,18.0533,18.0533,0,0,0-24.5348,16.85,18.1933,18.1933,0,0,0,.1319,2.15,1.88,1.88,0,0,1-2.07,2.0912,27.1662,27.1662,0,0,0-2.8888-.1587,26.2751,26.2751,0,0,0-12.7582,3.3066v57.1861h69.8392V267.554A26.65,26.65,0,0,0,161.387,291.898Zm5.6616,30.7666,6.9371,21.3618a3.2651,3.2651,0,0,1-1.1852,3.6579l-20.1359,14.6282a1.6872,1.6872,0,0,1-1.9847,0L130.548,347.6857a3.2671,3.2671,0,0,1-1.187-3.6607l6.9309-21.3421a2.4917,2.4917,0,0,1,2.3646-1.712h.014a2.475,2.475,0,0,1,2.3436,1.7106l4.2368,13.0206h12.853l4.2287-13.02a2.4766,2.4766,0,0,1,2.3455-1.7113h.0125A2.4847,2.4847,0,0,1,167.0486,322.6646Z"/><path class="cls-9" d="M164.5544,274.7333a30.088,30.088,0,0,0-6.6371,14.5247,21.8191,21.8191,0,0,0-27.3784,21.0958c0,.1125.001.2265.0029.34q-.5384-.02-1.0673-.02a29.98,29.98,0,0,0-12.7582,2.8489v4.22a26.2751,26.2751,0,0,1,12.7582-3.3066,27.1662,27.1662,0,0,1,2.8888.1587,1.88,1.88,0,0,0,2.07-2.0912A18.027,18.027,0,0,1,152.3545,292.3a17.9708,17.9708,0,0,1,6.4813,1.2036,1.8809,1.8809,0,0,0,2.5512-1.6056,26.65,26.65,0,0,1,25.1685-24.344V263.79a30.253,30.253,0,0,0-19.3881,8.1751A30.7656,30.7656,0,0,0,164.5544,274.7333Z"/><path class="cls-8" d="M160.9358,337.9124a1.6881,1.6881,0,0,1-1.6055,1.1668H144.0249a1.689,1.689,0,0,1-1.6055-1.1662l-3.7648-11.57-6.06,18.6564L151.6723,358.86l19.08-13.8605-6.0584-18.6557Z"/><path class="cls-4" d="M164.6781,320.9709a2.4766,2.4766,0,0,0-2.3455,1.7113l-4.2287,13.02h-12.853l-4.2368-13.0206a2.475,2.475,0,0,0-2.3436-1.7106h-.014a2.4917,2.4917,0,0,0-2.3646,1.712L129.361,344.025a3.2671,3.2671,0,0,0,1.187,3.6607L150.68,362.3125a1.6872,1.6872,0,0,0,1.9847,0l20.1359-14.6282a3.2651,3.2651,0,0,0,1.1852-3.6579l-6.9371-21.3618a2.4847,2.4847,0,0,0-2.358-1.6937ZM151.6723,358.86l-19.0775-13.8605,6.06-18.6564,3.7648,11.57a1.689,1.689,0,0,0,1.6055,1.1662H159.33a1.6881,1.6881,0,0,0,1.6055-1.1668l3.7577-11.5688,6.0584,18.6557Z"/><path class="cls-9" d="M188.8124,377.1863H114.459V127.9787h-53.56V77.1934l1.8315-.352c18.012-3.4594,27.11-5.918,38.9408-10.5237,8.78-3.4124,16.4825-8.2091,24.6373-13.2865,2.9943-1.8649,6.09-3.793,9.261-5.6587l.53-.3123h52.713Zm-69.8388-4.5146h65.3243V51.5748h-46.967c-2.94,1.7415-5.8331,3.5432-8.6364,5.2883C120.3561,62.0559,112.48,66.96,103.3078,70.5252,91.5955,75.0845,82.5351,77.5836,65.4133,80.921v42.5431h53.56Z"/><path class="cls-9" d="M433.1417,377.1863H358.375V299.2438H217.3629V244.5655l.3277-.54L337.3136,47.06h95.8281V237.3h37.4319v61.9439H433.1417ZM362.89,372.6717h65.7376V294.7292H466.059V241.8145H428.6272V51.5748H339.853L221.8774,245.8294v48.9H362.89Zm0-130.8572h-74.985L362.89,118.6233ZM295.9373,237.3H358.375V134.7226Z"/><path class="cls-8" d="M378.7889,267.549A8.4767,8.4767,0,0,1,381.62,255.9l-3.93-6.4522-46.7119,28.4488,16.6775,27.3838,46.7119-28.4489-3.93-6.4523A8.4767,8.4767,0,0,1,378.7889,267.549Z"/><path class="cls-4" d="M347.6573,307.1619a1.88,1.88,0,0,1-1.6078-.9023L329.3719,278.876a1.88,1.88,0,0,1,.6275-2.585l46.7116-28.449a1.88,1.88,0,0,1,2.585.6275l3.93,6.4522a1.8807,1.8807,0,0,1-.6275,2.585,6.5956,6.5956,0,1,0,6.8608,11.2666,1.88,1.88,0,0,1,2.585.6275l3.93,6.4523a1.88,1.88,0,0,1-.6276,2.585l-46.7116,28.449A1.8693,1.8693,0,0,1,347.6573,307.1619Zm-14.0941-28.6364,14.7209,24.17,43.4983-26.4922-2.0611-3.3838a10.36,10.36,0,0,1-10.5979-17.4014l-2.0619-3.3852Z"/><path class="cls-4" d="M343.3426,286.01a1.8465,1.8465,0,0,1-.9619-3.4234l19.07-11.6149a1.8463,1.8463,0,1,1,1.9208,3.1538l-19.07,11.6149A1.8415,1.8415,0,0,1,343.3426,286.01Z"/><path class="cls-4" d="M347.1392,292.2441a1.8465,1.8465,0,0,1-.9618-3.4234l12.0477-7.3369a1.8463,1.8463,0,0,1,1.9207,3.1537l-12.0477,7.3369A1.84,1.84,0,0,1,347.1392,292.2441Z"/><path class="cls-4" d="M369.5269,269.2715a1.8791,1.8791,0,0,1-1.6077-.903l-5.7615-9.4613a1.8806,1.8806,0,0,1,3.2125-1.956l5.7615,9.4612a1.8813,1.8813,0,0,1-1.6048,2.8591Z"/><path class="cls-4" d="M380.4423,287.1946a1.879,1.879,0,0,1-1.6077-.9031l-5.7615-9.4612a1.8806,1.8806,0,0,1,3.2125-1.956l5.7615,9.4612a1.8813,1.8813,0,0,1-1.6048,2.8591Z"/><path class="cls-10" d="M169.3378,109.6937H133.8836V47.245a41.502,41.502,0,0,1,14.2072-31.2636h0a5.3521,5.3521,0,0,1,7.04,0h0A41.5022,41.5022,0,0,1,169.3378,47.245Z"/><path class="cls-9" d="M169.3382,111.9506H133.8836a2.2571,2.2571,0,0,1-2.2572-2.2573V47.2447a43.75,43.75,0,0,1,14.98-32.9636,7.6353,7.6353,0,0,1,10.009,0,43.7535,43.7535,0,0,1,14.98,32.9636v62.4486A2.2569,2.2569,0,0,1,169.3382,111.9506Zm-33.1973-4.5145h30.94V47.2447a39.24,39.24,0,0,0-13.4342-29.563,3.1062,3.1062,0,0,0-4.0712,0,39.2392,39.2392,0,0,0-13.4346,29.563Z"/><path class="cls-10" d="M133.8836,103.7489l-26.162,4.0483v-8.25a43.415,43.415,0,0,1,14.622-32.4934l4.3973-3.8965a21.2085,21.2085,0,0,0,7.1427-15.873v56.4642Z"/><path class="cls-9" d="M107.7217,110.0541a2.2574,2.2574,0,0,1-2.2573-2.2573V99.5473a45.6987,45.6987,0,0,1,15.3822-34.1826l4.397-3.8966a18.9629,18.9629,0,0,0,6.3828-14.1837V45.2321a2.2573,2.2573,0,1,1,4.5145,0v2.0523a23.48,23.48,0,0,1-7.9031,17.5623l-4.397,3.8966a41.1834,41.1834,0,0,0-13.8619,30.804v5.616l23.56-3.6453a2.2574,2.2574,0,1,1,.69,4.4617l-26.162,4.048A2.279,2.279,0,0,1,107.7217,110.0541Z"/><path class="cls-10" d="M169.3378,103.7489l26.162,4.0483v-8.25a43.4149,43.4149,0,0,0-14.6219-32.4934l-4.3973-3.8965a21.2082,21.2082,0,0,1-7.1428-15.873v56.4642Z"/><path class="cls-9" d="M195.5,110.0541a2.29,2.29,0,0,1-.3454-.0264l-26.1616-4.048a2.2574,2.2574,0,0,1,.6907-4.4617l23.559,3.6453v-5.616a41.1864,41.1864,0,0,0-13.8611-30.804l-4.3978-3.8966a23.4791,23.4791,0,0,1-7.9027-17.5623V45.2321a2.2573,2.2573,0,1,1,4.5146,0v2.0523a18.9642,18.9642,0,0,0,6.3817,14.1837l4.3977,3.8966a45.7011,45.7011,0,0,1,15.3822,34.1826v8.2495a2.2582,2.2582,0,0,1-2.2573,2.2573Z"/><polygon class="cls-6" points="195.5 107.797 169.338 103.749 169.338 91.267 195.345 95.894 195.5 107.797"/><path class="cls-9" d="M195.5,110.0541a2.29,2.29,0,0,1-.3454-.0264l-26.1616-4.048a2.2578,2.2578,0,0,1-1.9119-2.2308V91.2669a2.2574,2.2574,0,0,1,2.6526-2.2227l26.0073,4.627a2.2583,2.2583,0,0,1,1.862,2.1933l.1543,11.903a2.2585,2.2585,0,0,1-2.2573,2.2866Zm-23.9043-8.24,21.6125,3.344-.0956-7.3685-21.5169-3.8283Z"/><polygon class="cls-6" points="107.722 107.797 133.884 103.749 133.884 91.267 107.878 95.872 107.722 107.797"/><path class="cls-9" d="M107.7217,110.0541a2.2574,2.2574,0,0,1-2.257-2.2866l.1558-11.925a2.2569,2.2569,0,0,1,1.8635-2.1934L133.49,89.0442a2.2571,2.2571,0,0,1,2.6507,2.2227v12.482a2.2578,2.2578,0,0,1-1.9123,2.2308l-26.162,4.048A2.279,2.279,0,0,1,107.7217,110.0541Zm2.3884-12.285-.0966,7.3891,21.6129-3.344v-7.855Z"/><path class="cls-8" d="M139.2913,109.6937c-6.8686,5.747-4.5389,15.4424,2.72,18.9751a10.7424,10.7424,0,0,1,5.5314-7.1135s5.4861,11.8109-2.7546,21.7693c18.795,1.2659,29.7924-20.3337,18.46-33.6309Z"/><path class="cls-9" d="M146.3443,145.6351c-.5662,0-1.1345-.0191-1.7081-.0581a2.2572,2.2572,0,0,1-1.5875-3.6909c5.02-6.0671,4.2835-12.9757,3.34-16.6849a7.6973,7.6973,0,0,0-2.1548,3.8613,2.2574,2.2574,0,0,1-3.2106,1.6357,14.3631,14.3631,0,0,1-7.9957-10.9852,13.0811,13.0811,0,0,1,4.8151-11.7508,2.2573,2.2573,0,0,1,2.8973,3.4623,8.534,8.534,0,0,0-3.2313,7.74,9.5992,9.5992,0,0,0,3.332,6.0584,13.4783,13.4783,0,0,1,5.6586-5.6689,2.2572,2.2572,0,0,1,3.09,1.0507c.22.4732,4.7354,10.4679-.4956,20.3362A19.1789,19.1789,0,0,0,163.54,130.491a17.3267,17.3267,0,0,0-2.01-19.3332,2.2574,2.2574,0,0,1,3.4359-2.9289,21.7738,21.7738,0,0,1,2.6078,24.2908A23.4714,23.4714,0,0,1,146.3443,145.6351Z"/><path class="cls-9" d="M169.3382,111.9506H133.8836a2.2571,2.2571,0,0,1-2.2572-2.2573V47.2447a43.75,43.75,0,0,1,14.98-32.9636,7.6353,7.6353,0,0,1,10.009,0,43.7535,43.7535,0,0,1,14.98,32.9636v62.4486A2.2569,2.2569,0,0,1,169.3382,111.9506Zm-33.1973-4.5145h30.94V47.2447a39.24,39.24,0,0,0-13.4342-29.563,3.1062,3.1062,0,0,0-4.0712,0,39.2392,39.2392,0,0,0-13.4346,29.563Z"/><path class="cls-9" d="M107.7217,110.0541a2.2574,2.2574,0,0,1-2.2573-2.2573V99.5473a45.6987,45.6987,0,0,1,15.3822-34.1826l4.397-3.8966a18.9629,18.9629,0,0,0,6.3828-14.1837V45.2321a2.2573,2.2573,0,1,1,4.5145,0v2.0523a23.48,23.48,0,0,1-7.9031,17.5623l-4.397,3.8966a41.1834,41.1834,0,0,0-13.8619,30.804v5.616l23.56-3.6453a2.2574,2.2574,0,1,1,.69,4.4617l-26.162,4.048A2.279,2.279,0,0,1,107.7217,110.0541Z"/><path class="cls-9" d="M195.5,110.0541a2.29,2.29,0,0,1-.3454-.0264l-26.1616-4.048a2.2574,2.2574,0,0,1,.6907-4.4617l23.559,3.6453v-5.616a41.1864,41.1864,0,0,0-13.8611-30.804l-4.3978-3.8966a23.4791,23.4791,0,0,1-7.9027-17.5623V45.2321a2.2573,2.2573,0,1,1,4.5146,0v2.0523a18.9642,18.9642,0,0,0,6.3817,14.1837l4.3977,3.8966a45.7011,45.7011,0,0,1,15.3822,34.1826v8.2495a2.2582,2.2582,0,0,1-2.2573,2.2573Z"/><path class="cls-9" d="M146.3424,145.2581q-.8353,0-1.6808-.0566a1.8812,1.8812,0,0,1-1.323-3.0758c5.4588-6.597,4.3022-14.0522,3.2595-17.64a8.3619,8.3619,0,0,0-2.7349,4.5116,1.8812,1.8812,0,0,1-2.6753,1.3631,13.984,13.984,0,0,1-7.787-10.6928,12.71,12.71,0,0,1,4.6832-11.4165,1.8809,1.8809,0,1,1,2.4145,2.8848,8.9,8.9,0,0,0-3.3635,8.074,10.0255,10.0255,0,0,0,3.8338,6.6036,13.0447,13.0447,0,0,1,5.7042-5.9262,1.88,1.88,0,0,1,2.5751.8759c.2212.4754,4.854,10.73-.8377,20.6367a19.5164,19.5164,0,0,0,15.4652-10.74,17.6973,17.6973,0,0,0-2.06-19.7462,1.8811,1.8811,0,0,1,2.8628-2.4409,21.4034,21.4034,0,0,1,2.5578,23.8778A23.098,23.098,0,0,1,146.3424,145.2581Z"/><path class="cls-9" d="M157.932,41.0864a2.2581,2.2581,0,0,1-2.1037-1.438,4.5229,4.5229,0,0,0-8.4351,0,2.2572,2.2572,0,0,1-4.206-1.64,9.0372,9.0372,0,0,1,16.847,0,2.2592,2.2592,0,0,1-2.1022,3.0781Z"/><path class="cls-9" d="M151.5106,101.4526a2.2571,2.2571,0,0,1-2.2573-2.2573V74.7179a2.2573,2.2573,0,1,1,4.5146,0V99.1953A2.2569,2.2569,0,0,1,151.5106,101.4526Z"/><path class="cls-10" d="M372.9811,102.5553l26.391-61.3421,41.7631,44.1809-62.7288,22.9005A4.3005,4.3005,0,0,1,372.9811,102.5553Z"/><path class="cls-8" d="M389.18,104.8807,379.1289,92.5644a1.1069,1.1069,0,0,0-.7651-.5173c-.3379-.0016-.5915.2965-.7881.5712a25.348,25.348,0,0,0-4.5254,11.6209,3.6522,3.6522,0,0,0,.1741,2.0547c1.2841,2.6152,4.8708,1.6169,7.0157,1.19A53.5091,53.5091,0,0,0,389.18,104.8807Z"/><path class="cls-8" d="M399.718,66.0069c6.1536,9.3818,12.6294,18.7426,21.1846,26.0016a115.3208,115.3208,0,0,1-12.9943,5.0732,6.2675,6.2675,0,0,1-3.9785.3493,6.41,6.41,0,0,1-2.4262-1.9393,93.2707,93.2707,0,0,1-7.5313-9.1229,55.738,55.738,0,0,1-5.5338-10.2868,14.3787,14.3787,0,0,1-1.3171-4.8316,14.1975,14.1975,0,0,1,.963-5.0835,61.5889,61.5889,0,0,1,4.8337-10.8157c.8942-1.574,1.2471-2.426,1.6564-.2892a20.78,20.78,0,0,0,1.7479,5.22A51.9939,51.9939,0,0,0,399.718,66.0069Z"/><path class="cls-9" d="M376.8933,110.4134a6.1619,6.1619,0,0,1-5.608-8.5875l26.3909-61.3421a1.8462,1.8462,0,0,1,3.0376-.5386l41.7628,44.18a1.8465,1.8465,0,0,1-.7084,3.0023L379.04,110.0284A6.2491,6.2491,0,0,1,376.8933,110.4134Zm23.0651-65.8919-25.2813,58.7637h0a2.454,2.454,0,0,0,3.0957,3.275l60.0922-21.938Zm-26.9772,58.0341h0Z"/><ellipse class="cls-6" cx="420.2536" cy="63.3036" rx="7.0989" ry="30.3978" transform="translate(71.3644 305.9902) rotate(-43.3886)"/><path class="cls-9" d="M439.5469,87.784c-2.2381,0-5.2817-1.2852-9.1937-3.8716a100.9964,100.9964,0,0,1-16.6005-14.4637c-8.226-8.7037-20.7792-24.7266-15.6489-29.577,2.1544-2.0353,6.0966-1.1117,12.0506,2.8231a101.0518,101.0518,0,0,1,16.6,14.4637,100.967,100.967,0,0,1,13.5077,17.3874c3.5946,6.1657,4.2956,10.1527,2.1412,12.1895h0A3.9854,3.9854,0,0,1,439.5469,87.784ZM401.1253,42.47a1.0671,1.0671,0,0,0-.507.1021c-.9589,1.5872,3.5792,11.3915,15.8179,24.34,12.1792,12.8846,21.683,17.9789,23.4267,17.1361.94-1.6974-3.613-11.4687-15.7922-24.3533C412.7468,47.7157,403.74,42.47,401.1253,42.47Z"/><path class="cls-9" d="M420.4812,93.9129c-2.32-1.9964-22.8124-20.1179-27.6532-41.3366l3.6681-.8362c4.5726,20.0445,24.2144,37.4069,26.4394,39.32Z"/><path class="cls-9" d="M403.5435,99.8861c-.2969-.3219-.6665-.7091-1.097-1.161-3.929-4.123-13.1293-13.7781-17.8886-26.5158l3.5241-1.3168C392.5723,82.9086,401.4,92.1737,405.17,96.13c.4461.4688.83.8715,1.1375,1.205Z"/><path class="cls-9" d="M387.2965,105.6939c-.2895-.3593-.7451-.8259-1.2734-1.3668A41.08,41.08,0,0,1,376.76,90.4777l3.4653-1.4666a37.646,37.646,0,0,0,8.49,12.6877c.5959.61,1.11,1.1367,1.5122,1.6364Z"/><path class="cls-9" d="M430.5729,57.1637c-.0294,0-.06-.0008-.09-.0022a1.8807,1.8807,0,0,1-1.7907-1.9671,23.0723,23.0723,0,0,1,24.09-21.9343,1.8809,1.8809,0,1,1-.1764,3.7577A19.3262,19.3262,0,0,0,432.45,55.3708,1.8809,1.8809,0,0,1,430.5729,57.1637Z"/><path class="cls-9" d="M411.9,65.8952a1.8827,1.8827,0,0,1-1.7047-2.6732A34.8224,34.8224,0,0,0,408.557,30.79a1.8812,1.8812,0,1,1,3.236-1.9193,38.5828,38.5828,0,0,1,1.8142,35.9344A1.8814,1.8814,0,0,1,411.9,65.8952Z"/><path class="cls-9" d="M456.7529,74.3887a1.8767,1.8767,0,0,1-.5563-.0845,51.2949,51.2949,0,0,0-12.2629-1.9509,46.7783,46.7783,0,0,0-14.2984,1.2683,1.8812,1.8812,0,0,1-1.0522-3.6123A50.34,50.34,0,0,1,444.11,68.5956a55.1061,55.1061,0,0,1,13.1977,2.114,1.8816,1.8816,0,0,1-.5548,3.6791Z"/><circle class="cls-9" cx="444.423" cy="50.9624" r="2.8495"/><circle class="cls-4" cx="418.9546" cy="18.0236" r="2.8495"/><rect class="cls-9" x="421.7303" y="31.9516" width="5.3732" height="5.3732" transform="translate(85.8909 -223.6826) rotate(32.6806)"/><rect class="cls-9" x="454.6982" y="56.2998" width="5.3732" height="5.3732" transform="translate(104.2568 -237.6293) rotate(32.6806)"/><polygon class="cls-4" points="441.752 28.251 434.676 30.444 436.586 23.286 441.752 28.251"/><polygon class="cls-9" points="456.543 86.004 453.643 79.188 460.958 80.36 456.543 86.004"/><circle class="cls-10" cx="343.2346" cy="92.6796" r="19.2853"/><path class="cls-4" d="M343.2184,113.8471a21.1677,21.1677,0,1,1,21.054-23.4965h0a21.1794,21.1794,0,0,1-21.054,23.4965Zm.0507-38.5737a17.7444,17.7444,0,0,0-1.9487.1073,17.36,17.36,0,1,0,1.9487-.1073Z"/><path class="cls-4" d="M340.8193,100.06a1.8779,1.8779,0,0,1-1.1757-.413l-4.8107-3.8518a1.8808,1.8808,0,0,1,2.3514-2.9362l3.3425,2.6761,7.9894-9.9792a1.8809,1.8809,0,1,1,2.9363,2.3513l-9.1651,11.4474a1.8769,1.8769,0,0,1-1.2609.6936A1.7769,1.7769,0,0,1,340.8193,100.06Z"/><path class="cls-4" d="M379.9184,132.3757a4.761,4.761,0,1,1,4.1237-7.1275h0a4.7592,4.7592,0,0,1-4.1237,7.1275Zm-.011-6.511a1.7513,1.7513,0,1,0,1.5232.881v-.0007A1.7533,1.7533,0,0,0,379.9074,125.8647Z"/><path class="cls-4" d="M395.4042,123.5038a4.7592,4.7592,0,1,1,2.3594-.629A4.7659,4.7659,0,0,1,395.4042,123.5038Zm-.011-6.5117a1.7515,1.7515,0,1,0,1.5225.88A1.74,1.74,0,0,0,395.3932,116.9921Z"/><path class="cls-4" d="M390.9594,148.4016a1.5033,1.5033,0,0,1-1.3072-.7569l-9.4281-16.4557a1.5048,1.5048,0,1,1,2.6114-1.496l9.4282,16.4557a1.505,1.505,0,0,1-1.3043,2.2529Z"/><path class="cls-4" d="M390.8859,148.201a1.5062,1.5062,0,0,1-1.3792-.9016,7.9416,7.9416,0,0,1-.2086-5.8659,1.5955,1.5955,0,0,1,.1065-.2344l7.55-13.4107a4.9513,4.9513,0,0,0-.4085-4.01l-.837-1.4608a1.5048,1.5048,0,0,1,2.6115-1.496l.8369,1.4607a7.9584,7.9584,0,0,1,.5937,6.6294,1.6061,1.6061,0,0,1-.1065.2344l-7.55,13.4107a4.9417,4.9417,0,0,0,.169,3.5351,1.5064,1.5064,0,0,1-1.3778,2.11Z"/><path class="cls-4" d="M288.4659,221.5011a1.5048,1.5048,0,0,1-1.4166-.9986l-3.4558-9.6625a1.5047,1.5047,0,0,1,2.8334-1.0141l3.4557,9.6626a1.507,1.507,0,0,1-1.4167,2.0126Z"/><path class="cls-4" d="M281.9064,218.3973a1.5053,1.5053,0,0,1-.507-2.9223l9.6626-3.4557a1.5047,1.5047,0,1,1,1.014,2.8334l-9.6626,3.4557A1.4944,1.4944,0,0,1,281.9064,218.3973Z"/><path class="cls-4" d="M386.8505,244.0438a5.7861,5.7861,0,1,1,5.7879-5.7857A5.7927,5.7927,0,0,1,386.8505,244.0438Zm0-8.5625a2.7764,2.7764,0,1,0,2.7782,2.7768A2.78,2.78,0,0,0,386.8505,235.4813Z"/><path class="cls-4" d="M343.1743,131.8422a5.7861,5.7861,0,1,1,5.788-5.7857A5.792,5.792,0,0,1,343.1743,131.8422Zm0-8.5625a2.7764,2.7764,0,1,0,2.7783,2.7768A2.78,2.78,0,0,0,343.1743,123.28Z"/><path class="cls-4" d="M376.5023,358.6915a6.1627,6.1627,0,1,1,6.1642-6.1627A6.1692,6.1692,0,0,1,376.5023,358.6915Zm0-8.5632a2.4006,2.4006,0,1,0,2.4021,2.4A2.4031,2.4031,0,0,0,376.5023,350.1283Z"/><path class="cls-6" d="M446.4615,129.5433a13.3733,13.3733,0,0,0,14.7548-4.2056L450.108,121.485l-1.5286-5.37,4.5253-3.27,11.1082,3.8527a13.36,13.36,0,0,0-22.8908-9.1772l-16.7753-5.8182a5.7337,5.7337,0,0,0-7.296,3.5382h0a5.7337,5.7337,0,0,0,3.5383,7.296l16.7678,5.8157A13.3688,13.3688,0,0,0,446.4615,129.5433Z"/><path class="cls-9" d="M450.8062,132.12a15.0756,15.0756,0,0,1-4.95-.8325,15.299,15.299,0,0,1-9.9579-11.5569l-15.7143-5.45a7.58,7.58,0,1,1,4.9672-14.3226l15.7239,5.4536a15.2038,15.2038,0,0,1,25.1835,11.257,1.8456,1.8456,0,0,1-2.4505,1.7731l-10.2011-3.538-2.6982,1.95.9111,3.2022,10.2005,3.5373a1.8463,1.8463,0,0,1,.8273,2.91A15.2872,15.2872,0,0,1,450.8062,132.12Zm-28.1419-28.89a3.8882,3.8882,0,0,0-1.27,7.5618l16.768,5.8159a1.8463,1.8463,0,0,1,1.2307,1.543,11.586,11.586,0,0,0,7.6735,9.6479h.0007a11.5621,11.5621,0,0,0,10.7148-1.6981l-8.2782-2.8709a1.8467,1.8467,0,0,1-1.1705-1.2388l-1.5291-5.37a1.8455,1.8455,0,0,1,.6936-2.0016l4.5256-3.2706a1.8439,1.8439,0,0,1,1.6864-.2483l8.2789,2.8708a11.5086,11.5086,0,0,0-19.3515-5.1546,1.8475,1.8475,0,0,1-1.9193.4483l-16.7754-5.8181A3.8956,3.8956,0,0,0,422.6643,103.23Z"/><circle class="cls-10" cx="422.3542" cy="140.9668" r="13.2215"/><path class="cls-9" d="M422.3851,156.0743a15.2338,15.2338,0,0,1-3.1537-.3314,15.0243,15.0243,0,1,1,3.1537.3314Zm-.0536-26.4519a11.3431,11.3431,0,1,0,11.1174,13.69v-.0008a11.3575,11.3575,0,0,0-11.1174-13.6892Z"/><path class="cls-9" d="M425.9959,146.4117a1.8778,1.8778,0,0,1-1.316-.5364l-3.6417-3.5637a1.8835,1.8835,0,0,1-.5246-1.7334l1.2388-5.8607a1.8813,1.8813,0,1,1,3.6814.7774l-1.0258,4.85,2.9039,2.8407a1.8811,1.8811,0,0,1-1.316,3.2257Z"/><path class="cls-10" d="M384.7322,166.4673h64.2319a3.9041,3.9041,0,0,1,3.9041,3.9041v32.7559a0,0,0,0,1,0,0h-72.04a0,0,0,0,1,0,0V170.3714a3.9041,3.9041,0,0,1,3.9041-3.9041Z" transform="translate(67.8514 -108.6541) rotate(16.1499)"/><rect class="cls-10" x="388.4187" y="184.1459" width="52.1895" height="18.6747" transform="translate(70.1753 -107.6619) rotate(16.1499)"/><rect class="cls-6" x="399.0696" y="207.2269" width="17.8918" height="17.1046" transform="translate(76.1205 -104.9747) rotate(16.1499)"/><path class="cls-6" d="M374.2391,202.4312h72.3871a0,0,0,0,1,0,0v5.3954a4.8933,4.8933,0,0,1-4.8933,4.8933H379.1323a4.8933,4.8933,0,0,1-4.8933-4.8933v-5.3954A0,0,0,0,1,374.2391,202.4312Z" transform="translate(73.934 -105.9707) rotate(16.1499)"/><path class="cls-4" d="M441.1179,222.8149a5.534,5.534,0,0,1-1.5438-.22L377.775,204.7a5.5593,5.5593,0,0,1-3.7937-6.8857l10.87-37.537a5.5674,5.5674,0,0,1,6.8857-3.793L453.536,174.38a5.5578,5.5578,0,0,1,3.793,6.885l-10.87,37.537A5.5694,5.5694,0,0,1,441.1179,222.8149Zm-50.93-62.7889a1.8006,1.8006,0,0,0-1.7231,1.2977l-10.87,37.5369a1.7968,1.7968,0,0,0,1.2264,2.2257l61.7991,17.8952a1.7966,1.7966,0,0,0,2.2249-1.2257l10.87-37.5369a1.7963,1.7963,0,0,0-1.2249-2.225l-61.8-17.8959h0A1.8167,1.8167,0,0,0,390.1879,160.026Z"/><path class="cls-4" d="M445.5509,214.0738a1.8773,1.8773,0,0,1-.5239-.075L376.9609,194.288a1.8811,1.8811,0,1,1,1.0463-3.6137l68.0662,19.7108a1.8815,1.8815,0,0,1-.5225,3.6887Z"/><path class="cls-4" d="M414.295,226.8092a1.8664,1.8664,0,0,1-.5232-.0742l-16.3991-4.749a1.8817,1.8817,0,0,1-1.2837-2.33l3.1023-10.7125a1.8811,1.8811,0,1,1,3.6137,1.0463l-2.5791,8.9057,12.7854,3.7026,2.5946-8.9615a1.8811,1.8811,0,0,1,3.6137,1.0463l-3.1177,10.7684a1.882,1.882,0,0,1-1.8069,1.3579Z"/><path class="cls-9" d="M393.3758,222.4351h23.7714a4.176,4.176,0,0,1,4.176,4.176v1.82a0,0,0,0,1,0,0H389.2a0,0,0,0,1,0,0v-1.82A4.176,4.176,0,0,1,393.3758,222.4351Z" transform="translate(78.6971 -103.8277) rotate(16.1499)"/><path class="cls-9" d="M421.3953,235.5761l-35.1915-10.1909,1.1338-3.9164a6.434,6.434,0,0,1,7.9689-4.39l22.833,6.6117a6.4408,6.4408,0,0,1,4.39,7.9688Zm-29.5512-13.2572,26.4232,7.6514a1.9216,1.9216,0,0,0-1.3829-1.9428l-22.833-6.6117A1.92,1.92,0,0,0,391.8441,222.3189Z"/><path class="cls-8" d="M394.6365,173.7122H442.65a2.088,2.088,0,0,1,2.088,2.088v8.9316a0,0,0,0,1,0,0H392.5484a0,0,0,0,1,0,0V175.8A2.088,2.088,0,0,1,394.6365,173.7122Z" transform="translate(66.3715 -109.3734) rotate(16.1499)"/><path class="cls-4" d="M442.154,193.7325a1.8773,1.8773,0,0,1-.5239-.075L391.5,179.1409a1.8811,1.8811,0,1,1,1.0464-3.6137l50.13,14.5166a1.8815,1.8815,0,0,1-.5224,3.6887Z"/><path class="cls-4" d="M436.9818,211.5924a1.8835,1.8835,0,0,1-1.8076-2.405l7.6786-26.5172a.1991.1991,0,0,0-.0169-.1573.2036.2036,0,0,0-.1249-.0992l-46.1179-13.3549a.2072.2072,0,0,0-.2565.1418l-7.6786,26.5166a1.8811,1.8811,0,0,1-3.6137-1.0464l7.6786-26.5172a3.9747,3.9747,0,0,1,4.9158-2.7085L443.758,178.8a3.97,3.97,0,0,1,2.7085,4.9172l-7.6786,26.5166A1.8821,1.8821,0,0,1,436.9818,211.5924Z"/><path class="cls-4" d="M421.8979,200.2023a1.9293,1.9293,0,0,1-.2807-.02,1.8813,1.8813,0,0,1-1.582-2.139l.748-5.0032a1.8814,1.8814,0,0,1,2.62-1.4424l4.6285,2.0412a1.8809,1.8809,0,0,1-1.5181,3.4418l-2.3734-1.0463-.3836,2.5659A1.8816,1.8816,0,0,1,421.8979,200.2023Z"/><path class="cls-4" d="M426.4162,202.0445a1.879,1.879,0,0,1-1.6489-.9736l-3.771-6.8454a1.8808,1.8808,0,1,1,3.2949-1.8149l3.7709,6.8453a1.8813,1.8813,0,0,1-1.6459,2.7886Z"/><line class="cls-1" x1="399.2608" y1="173.6515" x2="399.2607" y2="173.6515"/><path class="cls-4" d="M404.0652,176.9211a1.8816,1.8816,0,0,1-1.3314-.55,1.6951,1.6951,0,0,1-.2337-.2858,1.6643,1.6643,0,0,1-.1727-.3233,1.9243,1.9243,0,0,1-.1058-.3535,1.7969,1.7969,0,0,1,0-.73,1.9072,1.9072,0,0,1,.1058-.3534,1.6387,1.6387,0,0,1,.1727-.3233,1.6951,1.6951,0,0,1,.2337-.2858,1.9983,1.9983,0,0,1,.2858-.2337,1.6993,1.6993,0,0,1,.3307-.1727,1.8471,1.8471,0,0,1,.346-.1131,1.9148,1.9148,0,0,1,1.7.52,1.6994,1.6994,0,0,1,.2336.2858,1.6387,1.6387,0,0,1,.1727.3233,1.9,1.9,0,0,1,.1058.3534,1.4765,1.4765,0,0,1,.0375.3616,1.4985,1.4985,0,0,1-.0375.3688,1.9166,1.9166,0,0,1-.1058.3535,1.6643,1.6643,0,0,1-.1727.3233,1.6994,1.6994,0,0,1-.2336.2858A1.882,1.882,0,0,1,404.0652,176.9211Z"/><path class="cls-4" d="M408.873,178.3128a1.53,1.53,0,0,1-.3682-.0374,1.81,1.81,0,0,1-.6774-.2785,1.6868,1.6868,0,0,1-.2859-.233,1.7946,1.7946,0,0,1-.2336-.2858,1.67,1.67,0,0,1-.1727-.324,1.8253,1.8253,0,0,1-.1051-.3535,1.4987,1.4987,0,0,1-.0382-.3688,1.8691,1.8691,0,0,1,.55-1.3241,1.6868,1.6868,0,0,1,.2859-.233,2.5721,2.5721,0,0,1,.3233-.1807,1.8967,1.8967,0,0,1,.3541-.1058,2.0331,2.0331,0,0,1,.737,0,2.0539,2.0539,0,0,1,.3535.1058,2.5946,2.5946,0,0,1,.324.1807,2.0317,2.0317,0,0,1,.2858.233,1.8812,1.8812,0,0,1,0,2.6562,2.0317,2.0317,0,0,1-.2858.233,1.9749,1.9749,0,0,1-.324.1734,2.1335,2.1335,0,0,1-.3535.1051A1.5351,1.5351,0,0,1,408.873,178.3128Z"/><path class="cls-4" d="M437.6762,186.6571a1.8761,1.8761,0,0,1-.5239-.0749l-23.7883-6.888a1.8811,1.8811,0,1,1,1.0464-3.6137l23.7882,6.888a1.8815,1.8815,0,0,1-.5224,3.6886Z"/><rect class="cls-6" x="287.2842" y="145.3744" width="52.7613" height="36.6889" transform="translate(-37.9644 124.3946) rotate(-21.1814)"/><path class="cls-4" d="M295.6948,192.2372a1.8807,1.8807,0,0,1-1.7539-1.2014l-13.2564-34.2106a1.8812,1.8812,0,0,1,1.0742-2.4336l49.1967-19.0635a1.88,1.88,0,0,1,2.4336,1.0743l13.2565,34.21a1.8813,1.8813,0,0,1-1.0743,2.4336L296.3745,192.11A1.8888,1.8888,0,0,1,295.6948,192.2372ZM284.8721,157.22l11.897,30.7027,45.6888-17.7049-11.8971-30.7019Z"/><path class="cls-10" d="M321.4,171.8812l-5.4247-9.7345a5.6759,5.6759,0,0,0,1.0326-5.7312,5.9927,5.9927,0,0,0-11.1639,4.3261,5.6754,5.6754,0,0,0,4.6248,3.5388l2.551,10.8481Z"/><path class="cls-4" d="M313.02,177.0093a1.88,1.88,0,0,1-1.8311-1.4505l-2.28-9.6993a7.5083,7.5083,0,0,1-4.818-4.4381,7.7464,7.7464,0,0,1,4.5895-9.9293,7.96,7.96,0,0,1,5.9526.0485,7.4187,7.4187,0,0,1,4.13,4.1949,7.5129,7.5129,0,0,1-.5687,6.5265l4.85,8.7036a1.8807,1.8807,0,0,1-.9633,2.6695l-8.38,3.2471A1.8743,1.8743,0,0,1,313.02,177.0093Zm-1.4093-22.3069A4.3474,4.3474,0,0,0,310.04,155a3.9836,3.9836,0,0,0-2.441,5.062,3.8147,3.8147,0,0,0,3.1111,2.3528,1.88,1.88,0,0,1,1.5909,1.4351l2.0559,8.7433,4.3485-1.6849-4.372-7.8461a1.8817,1.8817,0,0,1,.2079-2.1324,3.8145,3.8145,0,0,0,.7135-3.8349,3.6912,3.6912,0,0,0-2.0618-2.0787A4.1194,4.1194,0,0,0,311.6105,154.7024Z"/><path class="cls-3" d="M461.3483,336.2961c-.047,0-.0933-.0015-.1411-.0045a2.257,2.257,0,0,1-2.114-2.3917,12.9989,12.9989,0,0,1,13.7583-12.1616,12.7951,12.7951,0,0,1,3.4021.676,15.9093,15.9093,0,0,1,27.8281-.7245,2.257,2.257,0,1,1-3.8885,2.2926,11.395,11.395,0,0,0-20.6308,2.1566,2.2571,2.2571,0,0,1-3.2728,1.2352,8.3807,8.3807,0,0,0-3.7158-1.13,8.48,8.48,0,0,0-8.9748,7.9335A2.2572,2.2572,0,0,1,461.3483,336.2961Z"/><path class="cls-3" d="M261.3381,332.0222a2.2567,2.2567,0,0,1-2.0795-1.3785,8.6381,8.6381,0,0,0-12.9059-3.7232,2.2565,2.2565,0,0,1-3.31-.8384,11.4465,11.4465,0,0,0-21.2517,1.9729,2.2575,2.2575,0,1,1-4.3426-1.2359,16.0321,16.0321,0,0,1,15.36-11.5892,15.8643,15.8643,0,0,1,13.0573,6.7917,13.1586,13.1586,0,0,1,17.5506,6.863,2.2591,2.2591,0,0,1-2.078,3.1376Z"/><path class="cls-3" d="M58.2317,319.4315a2.2571,2.2571,0,0,1-2.2572-2.2573,12.7183,12.7183,0,0,1,24.2871-5.2817,2.2573,2.2573,0,1,1-4.106,1.8767,8.2037,8.2037,0,0,0-15.6666,3.405A2.2571,2.2571,0,0,1,58.2317,319.4315Z"/><path class="cls-3" d="M98.2134,300.1446a2.2581,2.2581,0,0,1-2.1794-1.676,5.1274,5.1274,0,0,0-9.4615-1.1309,2.2574,2.2574,0,0,1-3.9716-2.1471,9.6423,9.6423,0,0,1,17.7949,2.114,2.26,2.26,0,0,1-2.1824,2.84Z"/><circle class="cls-6" cx="427.117" cy="304.2157" r="11.9056"/><path class="cls-9" d="M427.4067,305.1a1.8835,1.8835,0,0,1-1.8076-2.405l1.14-3.9363a1.8811,1.8811,0,0,1,3.6138,1.0463l-1.14,3.9363A1.8821,1.8821,0,0,1,427.4067,305.1Z"/><path class="cls-9" d="M425.8783,310.3641a1.9712,1.9712,0,0,1-.7149-.1425,1.6882,1.6882,0,0,1-.3234-.1734,1.7143,1.7143,0,0,1-.2939-.233,1.7912,1.7912,0,0,1-.2329-.2858,2.747,2.747,0,0,1-.1734-.324,1.9445,1.9445,0,0,1-.1051-.3535,1.8328,1.8328,0,0,1,0-.7377,2.1728,2.1728,0,0,1,.1051-.3534,2.7222,2.7222,0,0,1,.1734-.3233,2.8233,2.8233,0,0,1,.2329-.2859,1.8181,1.8181,0,0,1,.6173-.4063,1.8179,1.8179,0,0,1,.346-.1058,1.9139,1.9139,0,0,1,1.7.5121,1.8884,1.8884,0,0,1,0,2.6636A1.9161,1.9161,0,0,1,425.8783,310.3641Z"/><path class="cls-9" d="M427.1363,318.0089a13.8454,13.8454,0,0,1-3.854-.55,13.7053,13.7053,0,1,1,3.854.55Zm-.0338-23.8227a10.0275,10.0275,0,1,0,9.6434,12.8177h0a10.0252,10.0252,0,0,0-6.8409-12.4173A10.0787,10.0787,0,0,0,427.1025,294.1862Z"/><rect class="cls-10" x="326.1467" y="228.7588" width="13.6835" height="13.6835" transform="translate(100.0251 -99.2382) rotate(19.8911)"/><path class="cls-8" d="M325.3157,259.233h0a7.2567,7.2567,0,0,1-4.3548-9.2928l3.7833-10.4563,13.6476,4.9379-3.7833,10.4564A7.2567,7.2567,0,0,1,325.3157,259.233Z"/><path class="cls-4" d="M327.7333,261.9111a9.5086,9.5086,0,0,1-8.9307-12.7413l7.7756-21.4891a1.8809,1.8809,0,0,1,3.5373,1.28L322.34,250.45a5.745,5.745,0,0,0,10.8045,3.9091l8.3112-22.97a1.8809,1.8809,0,1,1,3.5373,1.28l-8.3112,22.97A9.5232,9.5232,0,0,1,327.7333,261.9111Z"/><path class="cls-4" d="M346.54,235.11a1.8829,1.8829,0,0,1-.64-.1132l-20.9724-7.5882a1.8809,1.8809,0,1,1,1.28-3.5373L347.18,231.459a1.8815,1.8815,0,0,1-.64,3.65Z"/><path class="cls-4" d="M338.3849,246.71a1.88,1.88,0,0,1-.64-.1132l-13.9986-5.0649a1.8809,1.8809,0,0,1,1.28-3.5373l13.9985,5.0649a1.8815,1.8815,0,0,1-.64,3.65Z"/><path class="cls-4" d="M368.2815,78.7916a1.506,1.506,0,0,1-1.4549-1.1206l-2.7819-10.534a1.5052,1.5052,0,0,1,1.8435-1.8384l10.6024,2.8333a1.5051,1.5051,0,0,1,.6672,2.5262l-7.82,7.7007A1.5034,1.5034,0,0,1,368.2815,78.7916Zm-.665-9.9153,1.4578,5.5183,4.0965-4.034Z"/><path class="cls-4" d="M426.1105,259.9323a1.505,1.505,0,0,1-.7216-2.8268l4.8431-2.6371-3.7034-4.0862a1.505,1.505,0,1,1,2.2308-2.0207l4.9871,5.5036a1.5059,1.5059,0,0,1-.3953,2.3322l-6.5221,3.552A1.5032,1.5032,0,0,1,426.1105,259.9323Z"/><path class="cls-4" d="M411.358,257.431a1.5035,1.5035,0,0,1-1.1161-.4945l-4.9871-5.5028a1.505,1.505,0,0,1,.3954-2.3315l6.522-3.5528a1.5047,1.5047,0,0,1,1.44,2.6423l-4.843,2.638,3.7033,4.0861a1.5048,1.5048,0,0,1-1.1147,2.5152Z"/><path class="cls-4" d="M415.686,260.5076a1.5048,1.5048,0,0,1-1.27-2.31l8.0085-12.6421a1.5048,1.5048,0,1,1,2.5424,1.6107l-8.0086,12.6421A1.5046,1.5046,0,0,1,415.686,260.5076Z"/><path class="cls-4" d="M279.439,201.12a1.59,1.59,0,0,1-.1668-.0088l-11.7758-1.3057a1.5048,1.5048,0,0,1-1.3043-1.1765L263.563,186.52a1.5045,1.5045,0,0,1,2.29-1.5812l4.2346,2.7525,3.9833-4.9268a1.5047,1.5047,0,0,1,2.52.28l2.8069,5.6785,4.7343-1.7577a1.5051,1.5051,0,0,1,1.8892,2.0442l-5.2178,11.2394A1.5054,1.5054,0,0,1,279.439,201.12Zm-10.5355-4.1869L278.5286,198l3.2221-6.94-2.577.9567a1.508,1.508,0,0,1-1.873-.7443l-2.3667-4.7879-3.358,4.1538a1.5059,1.5059,0,0,1-1.9906.3152l-2.3058-1.4983Z"/></g></g></svg>