<svg xmlns="http://www.w3.org/2000/svg" viewBox="0 0 830 358" enable-background="new 0 0 830 358"><switch><g><g opacity=".3"><path d="m426.13 139.16v-25.42c0-3.512 1.551-6.2 4.65-8.06l28.21-17.67c4.752-2.892 8.781-4.34 12.09-4.34h24.799c4.34 0 6.51 2.17 6.51 6.51v186.31c0 2.479-.465 4.185-1.395 5.115-.93.93-2.533 1.395-4.805 1.395h-26.66c-4.34 0-6.51-2.17-6.51-6.51v-150.97l-30.381 17.36c-4.339 1.86-6.509.62-6.509-3.72" fill="#251b3f"/><path d="m521.11 139.16v-25.42c0-3.512 1.551-6.2 4.65-8.06l28.21-17.67c4.752-2.892 8.781-4.34 12.09-4.34h24.799c4.34 0 6.51 2.17 6.51 6.51v186.31c0 2.479-.465 4.185-1.395 5.115-.93.93-2.533 1.395-4.805 1.395h-26.66c-4.34 0-6.51-2.17-6.51-6.51v-150.97l-30.381 17.36c-4.339 1.86-6.509.62-6.509-3.72" fill="#251b3f"/><path d="m659.16 238.36v38.13c0 4.34-1.967 6.51-5.889 6.51h-27.59c-4.137 0-6.201-2.17-6.201-6.51v-37.82c0-4.132 2.064-6.2 6.201-6.2h27.59c3.922 0 5.889 1.967 5.889 5.89" fill="#251b3f"/><path d="m794.53 283h-24.18c-4.34 0-6.51-2.17-6.51-6.51v-29.76h-76.881c-3.516 0-6.307-1.032-8.369-3.101-2.068-2.063-3.1-4.854-3.1-8.37v-12.09c0-6.2 1.031-11.262 3.1-15.189l61.689-114.7c2.062-3.721 3.977-6.249 5.734-7.596 1.754-1.341 4.389-2.02 7.906-2.02h35.03c3.512 0 6.355 1.037 8.525 3.1 2.17 2.068 3.254 4.858 3.254 8.37v117.49h22.32c4.133 0 6.201 2.068 6.201 6.2v20.77c0 4.757-2.068 7.131-6.201 7.131h-22.32v29.76c0 2.479-.465 4.185-1.395 5.115-.927.93-2.53 1.395-4.802 1.395m-30.689-70.37v-95.79l-50.22 95.79h50.22" fill="#251b3f"/></g><path d="m-64.09 243.66l32.08-98.7h-64.15l32.08 98.7" fill="#e24329" transform="translate(155.2 1.16)"/><path d="m62.56 243.66l-32.08-98.7h-44.911l76.986 98.7" fill="#fc6d26" transform="translate(28.531 1.161)"/><path d="m13.997 145.9l-9.76 29.988c-.884 2.723.071 5.729 2.405 7.426l84.34 61.28-76.987-98.7" fill="#fca326" transform="translate(.089.256)"/><path d="m-15.324-134.1h44.947l-19.344-59.45c-.99-3.041-5.305-3.041-6.33 0l-19.273 59.45" fill="#e24329" transform="translate(29.422 280.26)"/><path d="m-156.09 243.66l32.08-98.7h44.947l-77.02 98.7" fill="#fc6d26" transform="translate(247.2 1.161)"/><path d="m-78.21 145.9l9.76 29.988c.884 2.723-.071 5.729-2.405 7.426l-84.34 61.25 76.987-98.66" fill="#fca326" transform="translate(246.31.256)"/><path d="m-168.85-134.1h-44.947l19.309-59.45c.99-3.041 5.305-3.041 6.33 0l19.308 59.45" fill="#e24329" transform="translate(336.97 280.26)"/><path d="m181.66 174.91l-9.591-29.466c-.047-.272-.132-.539-.237-.801l-19.231-59.21c-1.026-3.044-3.758-5-6.967-5-.015 0-.029 0-.043 0-3.21.018-5.924 1.997-6.915 5.05l-18.399 56.647h-58.34l-18.434-56.65c-.992-3.047-3.707-5.03-6.917-5.04-3.252-.012-5.978 1.947-7.02 5.05l-19.221 59.29c-.02.053-.045.102-.063.156l-9.761 29.99c-1.428 4.399.122 9.18 3.858 11.897l84.34 61.28c.706.513 1.53.764 2.351.764.603 0 1.197-.151 1.746-.418.019-.009.037-.018.056-.027.017-.008.034-.014.051-.023.045-.023.085-.053.129-.077.12-.068.239-.135.352-.216.014-.01.03-.017.044-.027.005-.004.011-.006.016-.01l84.34-61.25c3.733-2.716 5.283-7.497 3.854-11.9m-125.55-24.75l24.14 74.27-57.934-74.27h33.797m103.79 0l-57.966 74.29 24.14-74.29h33.825m-14.255-60.24l16.957 52.21h-33.914l16.957-52.21m-27.971 60.21l-26.568 81.76-26.569-81.76h53.14m-81.14-60.21l16.989 52.21h-33.915l16.926-52.21m-27.454 90.42c-.926-.673-1.309-1.86-.954-2.952l7.432-22.833 54.899 70.38-61.38-44.599m164.02-.001l-61.38 44.576 54.904-70.36 7.429 22.827c.356 1.095-.027 2.282-.95 2.954" fill="#251b3f"/><g><circle cx="216" cy="180" r="10" fill="#fc6d26"/><path d="m216 194c-7.72 0-14-6.28-14-14s6.28-14 14-14 14 6.28 14 14-6.28 14-14 14m0-20c-3.309 0-6 2.691-6 6s2.691 6 6 6 6-2.691 6-6-2.691-6-6-6" fill="#251b3f"/></g><path d="m341.22 53.28c-33.37-33.632-77.83-52.37-125.19-52.773-2.251-.017-4.02 1.756-4.03 3.966 0 .019.005.036.005.055 0 .017-.005.033-.005.05v165.42c0 2.209 1.791 4 4 4s4-1.791 4-4v-81.33c22.303 1.338 43.1 10.772 58.933 26.837 16.809 17.05 26.07 39.6 26.07 63.48 0 49.902-40.598 90.5-90.5 90.5-14.856 0-29.604-3.699-42.646-10.698-1.95-1.047-4.371-.312-5.416 1.633-1.045 1.947-.313 4.372 1.633 5.416 14.203 7.621 30.26 11.649 46.43 11.649 54.31 0 98.5-44.19 98.5-98.5 0-25.997-10.07-50.54-28.369-69.1-17.347-17.6-40.17-27.888-64.63-29.23v-32.03c32.978 1.368 63.814 14.986 87.21 38.621 24.369 24.617 37.79 57.2 37.79 91.75 0 71.958-58.54 130.5-130.5 130.5-26 0-51.13-7.661-72.67-22.16-1.834-1.233-4.318-.747-5.552 1.085-1.233 1.833-.748 4.318 1.085 5.552 22.863 15.387 49.53 23.52 77.13 23.52 76.37 0 138.5-62.13 138.5-138.5 0-36.667-14.242-71.25-40.1-97.37-24.909-25.16-57.766-39.629-92.9-41v-32.02c43.72 1.379 84.62 19.16 115.54 50.33 31.895 32.14 49.46 74.79 49.46 120.07 0 94.01-76.49 170.5-170.5 170.5-37.27 0-72.67-11.809-102.37-34.15-1.766-1.326-4.273-.973-5.602.793-1.327 1.766-.973 4.273.793 5.602 31.1 23.391 68.17 35.754 107.18 35.754 98.43 0 178.5-80.07 178.5-178.5 0-47.41-18.389-92.05-51.78-125.71" fill="#251b3f"/><g><circle cx="301" cy="140" r="15" fill="#fc6d26"/><path d="m301 159c-10.477 0-19-8.523-19-19s8.523-19 19-19 19 8.523 19 19-8.523 19-19 19m0-30c-6.06 0-11 4.935-11 11s4.935 11 11 11 11-4.935 11-11-4.935-11-11-11" fill="#251b3f"/></g><g><circle cx="264" cy="303" r="15" fill="#fc6d26"/><path d="m264 322c-10.477 0-19-8.523-19-19s8.523-19 19-19 19 8.523 19 19-8.523 19-19 19m0-30c-6.06 0-11 4.935-11 11s4.935 11 11 11 11-4.935 11-11-4.935-11-11-11" fill="#251b3f"/></g><g><path d="m419.13 133.16v-25.42c0-3.512 1.551-6.2 4.65-8.06l28.21-17.67c4.752-2.892 8.781-4.34 12.09-4.34h24.799c4.34 0 6.51 2.17 6.51 6.51v186.31c0 2.479-.465 4.185-1.395 5.115-.93.93-2.533 1.395-4.805 1.395h-26.66c-4.34 0-6.51-2.17-6.51-6.51v-150.97l-30.381 17.36c-4.339 1.86-6.509.62-6.509-3.72z" fill="none" stroke="#251b3f" stroke-linejoin="round" stroke-linecap="round" stroke-width="8" stroke-miterlimit="10"/><path d="m514.11 133.16v-25.42c0-3.512 1.551-6.2 4.65-8.06l28.21-17.67c4.752-2.892 8.781-4.34 12.09-4.34h24.799c4.34 0 6.51 2.17 6.51 6.51v186.31c0 2.479-.465 4.185-1.395 5.115-.93.93-2.533 1.395-4.805 1.395h-26.66c-4.34 0-6.51-2.17-6.51-6.51v-150.97l-30.381 17.36c-4.339 1.86-6.509.62-6.509-3.72z" fill="none" stroke="#251b3f" stroke-linejoin="round" stroke-linecap="round" stroke-width="8" stroke-miterlimit="10"/><path d="m652.16 232.36v38.13c0 4.34-1.967 6.51-5.889 6.51h-27.59c-4.137 0-6.201-2.17-6.201-6.51v-37.82c0-4.132 2.064-6.2 6.201-6.2h27.59c3.922 0 5.889 1.967 5.889 5.89z" fill="none" stroke="#251b3f" stroke-linejoin="round" stroke-linecap="round" stroke-width="8" stroke-miterlimit="10"/><path d="m787.53 277h-24.18c-4.34 0-6.51-2.17-6.51-6.51v-29.76h-76.881c-3.516 0-6.307-1.032-8.369-3.101-2.068-2.063-3.1-4.854-3.1-8.37v-12.09c0-6.2 1.031-11.262 3.1-15.189l61.689-114.7c2.062-3.721 3.977-6.249 5.734-7.596 1.754-1.341 4.389-2.02 7.906-2.02h35.03c3.512 0 6.355 1.037 8.525 3.1 2.17 2.068 3.254 4.858 3.254 8.37v117.49h22.32c4.133 0 6.201 2.068 6.201 6.2v20.77c0 4.757-2.068 7.131-6.201 7.131h-22.32v29.76c0 2.479-.465 4.185-1.395 5.115-.927.93-2.53 1.395-4.802 1.395zm-30.689-70.37v-95.79l-50.22 95.79h50.22z" fill="none" stroke="#251b3f" stroke-linejoin="round" stroke-linecap="round" stroke-width="8" stroke-miterlimit="10"/></g></g></switch></svg>