<svg xmlns="http://www.w3.org/2000/svg" viewBox="0 0 570 272" enable-background="new 0 0 570 272"><path d="m452.4 126.1c-.6-.6-.7-1.6-.1-2.3l.6-.7 7.5-8.3h-32.7c-9.7 0-18.9-3.9-25.8-10.7l-15.9-15.7-14.1.9-.4 13.8c0 0 0 0 0 0l15.8 15.8c5.3 5.3 11.6 9.5 18.5 12.4 6.9 2.9 14.3 4.3 21.8 4.3h33.6l-8.8-9.5" fill="#f79526"/><g fill="#df4329"><path d="m326.5 44.6c-.3.2-.5.3-.8.5l-.5.3.8.8.3-.5c.1-.2.3-.5.5-.8.2-.3.3-.5.5-.8-.3.2-.6.3-.8.5"/><path d="m320.8 38.9c.2-.2.3-.4.2-.6 0-.2-.2-.4-.4-.7l-.5-.5-1.2 1.2.5.5c.2.2.5.4.7.4.3 0 .5-.1.7-.3"/><path d="m334.2 36.6c-5.3-5.3-11.6-9.5-18.5-12.4-6.9-2.9-14.3-4.3-21.8-4.3h-32.7c0 .1-.1.2-.2.3l-9.6 10.3 9.1 10.2h33.4c9.7 0 19 3.9 25.8 10.7l20.1 20 .4-12.1c0-1.2 1-2.2 2.2-2.3h.9l10.8-.6-19.9-19.8"/></g><g fill="#ee7728"><path d="m460.6 20.2c-.1-.1-.2-.2-.2-.3h-32.7c-7.5 0-14.9 1.4-21.8 4.3-7 2.9-13.2 7-18.5 12.4l-26.5 26.4-6.5 6.5 12.3.4c.9 0 1.6.7 1.6 1.6v.9l.6 11.8 6.4-6.4 26.5-26.4c6.9-6.8 16.1-10.7 25.8-10.7h33.4l9.1-10.2-9.5-10.3"/><path d="m391.2 48.4l.3.5.8-.8-.5-.3c-.2-.1-.5-.3-.8-.5-.3-.2-.5-.3-.8-.5.2.3.3.5.5.8.2.3.4.5.5.8"/><path d="m377.8 59.6c-.2 0-.4.2-.6.4l-.5.5 1.1 1.1.5-.5c.2-.2.4-.5.4-.7 0-.2-.1-.4-.2-.6-.3-.2-.5-.2-.7-.2"/></g><g fill="#eb6c28"><path d="m329.7 109.3l.3.5.8-.8-.5-.3c-.2-.1-.5-.3-.8-.5-.3-.2-.5-.3-.8-.5.2.3.3.5.5.8.2.3.4.6.5.8"/><path d="m340.2 98.9l.3.5.8-.8-.5-.3c-.2-.1-.5-.3-.8-.5-.3-.2-.5-.3-.8-.5.2.3.3.5.5.8.2.3.4.5.5.8"/><path d="m364.1 88.7l-.7-13.8-14-.4-3.3 3.3-26.5 26.4c-6.9 6.8-16.1 10.7-25.8 10.7h-32.7l7.5 8.3.6.7c.6.7.6 1.7-.1 2.3l-8.8 9.4h33.6c7.5 0 14.9-1.5 21.8-4.4 6.9-2.9 13.2-7 18.5-12.4l26.5-26.4 3.4-3.4c0-.1 0-.2 0-.3"/><path d="m326.9 110.8c-.2-.2-.4-.3-.6-.2-.2 0-.4.2-.7.4l-.5.5 1.2 1.2.5-.5c.2-.2.4-.5.4-.7 0-.3-.1-.5-.3-.7"/></g><g fill="#e24d2b"><path d="m185.4 46.6c-.2-.2-.4-.2-.6-.1-.2.1-.4.2-.6.5l-.4.5 1.3.9.4-.5c.2-.3.3-.5.3-.7-.1-.3-.2-.5-.4-.6"/><path d="m192 41.1l.2.5.9-.8-.4-.3c-.2-.2-.5-.3-.7-.5-.3-.2-.5-.4-.8-.5.1.3.3.5.4.8.1.2.2.5.4.8"/><path d="m245.3 31.5c-.6-.7-.6-1.7.1-2.3l8.7-9.3h-33.2c-29 0-53.1 21.6-57.1 49.7l10.7 10.1 10.1-9.1c3.3-17 18.4-29.9 36.3-29.9h32.6l-7.6-8.5-.6-.7"/></g><g fill="#e75f29"><path d="m254.2 114.8h-33.3c-20.1 0-36.6-16.3-37-36.3l-7.6 6.9-.7.6c-.7.7-1.8.6-2.4-.1l-10-9.4c0 .4 0 .8 0 1.2 0 31.9 25.9 57.8 57.6 57.8h32.4c.1-.1.2-.3.2-.4l9.6-10.3-8.8-10"/><path d="m188.8 110.2c0-.2-.2-.4-.4-.7l-.4-.5-1.1 1.1.4.5c.2.2.4.4.7.4s.4 0 .6-.2.2-.4.2-.6"/></g><g fill="#f28227"><path d="m523.2 34.1c-.3-.2-.7-.2-1 0-.3.2-.6.5-.9 1-.3.5-.4.9-.3 1.3 0 .4.2.7.6.9.3.2.7.2 1 0 .3-.2.6-.5.9-1 .3-.5.4-.9.3-1.3-.1-.5-.3-.8-.6-.9"/><path d="m500.6 20h-33.2l8.7 9.3c.6.6.7 1.6.1 2.3l-.6.7-7.6 8.5h32.6c17.9 0 32.9 12.9 36.3 29.9l10.1 9.1 10.7-10.1c-4-28.1-28.1-49.7-57.1-49.7"/><path d="m543 56.4c.2.1.4.1.7-.1.2-.1.4-.3.4-.5 0-.2 0-.5-.2-.7l-.3-.6-1.4.7.3.6c.1.4.3.6.5.6"/></g><g fill="#f48c27"><path d="m538.8 104.1c-.5-.2-.9-.3-1.3-.3-.4.1-.6.3-.8.6-.2.3-.2.7 0 1 .2.3.5.6 1 .9.5.2.9.3 1.3.3.4-.1.7-.2.8-.6.2-.3.2-.7 0-1-.1-.4-.5-.7-1-.9"/><path d="m539.5 99.1c-.3-.1-.5 0-.6.1-.2.1-.3.4-.3.7l-.2.6 1.5.4.2-.6c.1-.3.1-.6 0-.8-.2-.2-.3-.3-.6-.4"/><path d="m548.3 85.9c-.7.7-1.7.7-2.4.1l-.7-.6-7.6-6.9c-.4 20-16.9 36.3-37 36.3h-33.2l-9 10 9.6 10.3c.1.1.2.3.2.4h32.4c31.8 0 57.7-25.9 57.7-57.8 0-.4 0-.8 0-1.2l-10 9.4"/><path d="m525.1 116.4c-.3-.2-.7-.2-1 0-.3.2-.5.4-.6.8-.1.4 0 .8.3 1.3.3.5.5.8.9 1 .3.2.7.2 1 0 .3-.2.5-.5.6-.8.1-.4 0-.8-.3-1.3-.3-.4-.6-.8-.9-1"/></g><g fill="#fff"><path d="m246.3 76.8c0 .8-.1 1.6-.4 2.3-.3.7-.7 1.3-1.2 1.8-.5.5-1.1.9-1.9 1.2-.7.3-1.5.4-2.4.4h-4.4v-11.5h4.4c.9 0 1.7.1 2.4.4.7.3 1.3.7 1.9 1.2.5.5.9 1.1 1.2 1.8.3.8.4 1.6.4 2.4m-2.2 0c0-.6-.1-1.2-.3-1.7-.2-.5-.4-.9-.7-1.3-.3-.3-.7-.6-1.2-.8-.5-.2-1-.3-1.5-.3h-2.3v8.2h2.3c.6 0 1.1-.1 1.5-.3.5-.2.8-.5 1.2-.8.3-.3.6-.8.7-1.3.2-.5.3-1.1.3-1.7"/><path d="M255.2,71v1.7H250v3.2h4v1.7h-4v3.3h5.1v1.7h-7.3V71H255.2z"/><path d="m255.9 71h1.7c.2 0 .3 0 .5.1s.2.2.3.4l2.7 7.1c.1.2.2.5.3.8.1.3.2.6.2.9.1-.6.3-1.2.5-1.6l2.7-7.1c0-.1.1-.2.3-.3.1-.1.3-.2.5-.2h1.7l-4.7 11.6h-1.9l-4.8-11.7"/><path d="m465.3 76.8c0 .8-.1 1.6-.4 2.4-.3.7-.7 1.4-1.2 1.9s-1.1.9-1.9 1.2c-.7.3-1.5.4-2.4.4-.9 0-1.7-.1-2.4-.4-.7-.3-1.3-.7-1.9-1.2-.5-.5-.9-1.2-1.2-1.9-.3-.7-.4-1.5-.4-2.4 0-.8.1-1.6.4-2.4.3-.7.7-1.4 1.2-1.9.5-.5 1.1-.9 1.9-1.2.7-.3 1.5-.4 2.4-.4.9 0 1.7.1 2.4.4.7.3 1.3.7 1.9 1.2.5.5.9 1.2 1.2 1.9.3.8.4 1.6.4 2.4m-2.2 0c0-.6-.1-1.2-.3-1.7-.2-.5-.4-.9-.7-1.3-.3-.4-.7-.6-1.2-.8-.5-.2-1-.3-1.5-.3-.6 0-1.1.1-1.5.3-.5.2-.8.5-1.2.8-.3.4-.6.8-.7 1.3-.2.5-.3 1.1-.3 1.7s.1 1.2.3 1.7c.2.5.4.9.7 1.3.3.4.7.6 1.2.8.5.2 1 .3 1.5.3.6 0 1.1-.1 1.5-.3.5-.2.8-.5 1.2-.8.3-.3.6-.8.7-1.3.2-.5.3-1.1.3-1.7"/><path d="m469.1 78.5v4.1h-2.2v-11.6h3.8c.8 0 1.4.1 2 .3s1 .4 1.4.8c.4.3.6.7.8 1.2.2.5.3 1 .3 1.5 0 .6-.1 1.1-.3 1.5-.2.5-.5.9-.8 1.2-.4.3-.8.6-1.4.8-.6.2-1.2.3-2 .3h-1.6zm0-1.7h1.6c.4 0 .7 0 1-.1s.5-.2.7-.4c.2-.2.3-.4.4-.7.1-.3.1-.6.1-.9 0-.3 0-.6-.1-.8-.1-.3-.2-.5-.4-.6-.2-.2-.4-.3-.7-.4-.3-.1-.6-.1-1-.1h-1.6v4"/><path d="m482.8 73.1c-.1.1-.1.2-.2.2-.1 0-.2.1-.3.1-.1 0-.2 0-.4-.1-.1-.1-.3-.2-.5-.3s-.4-.2-.6-.3c-.2-.1-.5-.1-.9-.1-.3 0-.6 0-.8.1-.2.1-.4.2-.6.3-.2.1-.3.3-.3.5-.1.2-.1.4-.1.6 0 .3.1.5.2.7s.4.3.6.5c.3.1.5.2.9.3.3.1.6.2 1 .3.3.1.7.2 1 .4.3.2.6.3.9.6.3.2.5.5.6.9.2.3.2.7.2 1.2 0 .5-.1 1-.3 1.5-.2.5-.4.9-.8 1.2-.3.3-.8.6-1.3.8-.5.2-1.1.3-1.7.3-.4 0-.7 0-1.1-.1-.4-.1-.7-.2-1-.3-.3-.1-.6-.3-.9-.5s-.5-.4-.8-.6l.6-1c.1-.1.1-.1.2-.2.1-.1.2-.1.3-.1.1 0 .3.1.4.2.2.1.3.2.5.4.2.1.5.3.7.4.3.1.6.2 1 .2.6 0 1.1-.1 1.4-.4.3-.3.5-.7.5-1.3 0-.3-.1-.6-.2-.7-.2-.2-.4-.4-.6-.5-.3-.1-.5-.2-.9-.3-.3-.1-.6-.2-1-.3-.3-.1-.7-.2-1-.4-.3-.1-.6-.3-.9-.6-.3-.2-.5-.5-.6-.9-.2-.4-.2-.8-.2-1.3 0-.4.1-.8.3-1.2.2-.4.4-.8.7-1.1.3-.3.7-.6 1.2-.7.5-.2 1-.3 1.6-.3.7 0 1.3.1 1.9.3.6.2 1.1.5 1.5.9l-.2.7"/></g><g fill="none" stroke="#322750" stroke-linejoin="round" stroke-linecap="round" stroke-width="3" stroke-miterlimit="10"><path d="m334.2 36.6c-5.3-5.3-11.6-9.5-18.5-12.4-6.9-2.9-14.3-4.3-21.8-4.3h-32.7c0 .1-.1.2-.2.3l-9.6 10.3 9.1 10.2h33.4c9.7 0 19 3.9 25.8 10.7l20.1 20 .4-12.1c0-1.2 1-2.2 2.2-2.3h.9l10.8-.6-19.9-19.8z"/><path d="m245.3 31.5c-.6-.7-.6-1.7.1-2.3l8.7-9.3h-33.2c-29 0-53.1 21.6-57.1 49.7l10.7 10.1 10.1-9.1c3.3-17 18.4-29.9 36.3-29.9h32.6l-7.6-8.5-.6-.7z"/><path d="m254.2 114.8h-33.3c-20.1 0-36.6-16.3-37-36.3l-7.6 6.9-.7.6c-.7.7-1.8.6-2.4-.1l-10-9.4c0 .4 0 .8 0 1.2 0 31.9 25.9 57.8 57.6 57.8h32.4c.1-.1.2-.3.2-.4l9.6-10.3-8.8-10z"/><path d="m364.1 88.7l-.7-13.8-14-.4-3.3 3.3-26.5 26.4c-6.9 6.8-16.1 10.7-25.8 10.7h-32.7l7.5 8.3.6.7c.6.7.6 1.7-.1 2.3l-8.8 9.4h33.6c7.5 0 14.9-1.5 21.8-4.4 6.9-2.9 13.2-7 18.5-12.4l26.5-26.4 3.4-3.4c0-.1 0-.2 0-.3z"/><path d="m460.6 20.2c-.1-.1-.2-.2-.2-.3h-32.7c-7.5 0-14.9 1.4-21.8 4.3-7 2.9-13.2 7-18.5 12.4l-26.5 26.4-6.5 6.5 12.3.4c.9 0 1.6.7 1.6 1.6v.9l.6 11.8 6.4-6.4 26.5-26.4c6.9-6.8 16.1-10.7 25.8-10.7h33.4l9.1-10.2-9.5-10.3z"/><path d="m452.4 126.1c-.6-.6-.7-1.6-.1-2.3l.6-.7 7.5-8.3h-32.7c-9.7 0-18.9-3.9-25.8-10.7l-15.9-15.7-14.1.9-.4 13.8c0 0 0 0 0 0l15.8 15.8c5.3 5.3 11.6 9.5 18.5 12.4 6.9 2.9 14.3 4.3 21.8 4.3h33.6l-8.8-9.5z"/><path d="m548.3 85.9c-.7.7-1.7.7-2.4.1l-.7-.6-7.6-6.9c-.4 20-16.9 36.3-37 36.3h-33.2l-9 10 9.6 10.3c.1.1.2.3.2.4h32.4c31.8 0 57.7-25.9 57.7-57.8 0-.4 0-.8 0-1.2l-10 9.4z"/><path d="m500.6 20h-33.2l8.7 9.3c.6.6.7 1.6.1 2.3l-.6.7-7.6 8.5h32.6c17.9 0 32.9 12.9 36.3 29.9l10.1 9.1 10.7-10.1c-4-28.1-28.1-49.7-57.1-49.7z"/></g><g fill="#322750"><path d="m326 116.4l-4-4 1.5-1.5c.2-.2.4-.4.7-.6.2-.2.5-.2.7-.3.3 0 .5 0 .8.1.3.1.5.2.8.5.2.2.4.5.5.8.1.3.1.5.1.8 0 .3-.1.5-.3.8-.1.2-.3.5-.5.7l-.4.4 1.3 1.3-1.2 1m-1-3.1l.4-.4c.2-.2.3-.4.3-.6 0-.2-.1-.4-.3-.6s-.4-.2-.5-.2c-.2 0-.4.2-.6.4l-.4.4 1.1 1"/><path d="m329.2 113.2l-2.8-5.2 1.3-1.3 5.2 2.8-1.1 1.1-1-.6-1.1 1.1.6 1-1.1 1.1m-.4-3.4l.2.3.7-.7-.3-.2c-.2-.1-.5-.3-.8-.5s-.5-.3-.8-.5c.2.2.3.5.5.8s.4.5.5.8"/><path d="m335.1 107.5c-.3.3-.5.5-.9.6-.3.1-.6.2-1 .2-.3 0-.7-.1-1-.2-.4-.2-.7-.4-1-.7-.3-.3-.6-.7-.7-1-.2-.4-.2-.7-.2-1.1 0-.4.1-.7.2-1s.3-.6.6-.9c.3-.3.6-.4.9-.6.3-.1.6-.2.9-.2l.1 1.2c-.2 0-.4 0-.5.1-.2 0-.3.1-.4.3-.1.1-.2.3-.3.4-.1.2-.1.3 0 .5 0 .2.1.4.2.6.1.2.2.4.4.6.4.4.7.6 1.1.6s.7-.1.9-.3c.2-.2.3-.3.3-.5.1-.2.1-.4.1-.6l1.2.1c0 .4 0 .7-.2 1s-.4.6-.7.9"/><path d="m337 105.5l-4-4 1.1-1.1 1.5 1.5-.5-2.5 1.2-1.2.4 2.8 3.8.9-1.2 1.2-2.4-.6.2.9 1 1-1.1 1.1"/><path d="m340.7 101.7l-2.8-5.2 1.3-1.3 5.2 2.8-1.1 1.1-1-.6-1.1 1.1.6 1-1.1 1.1m-.4-3.4l.2.3.7-.7-.3-.2c-.2-.1-.5-.3-.8-.5s-.5-.3-.8-.5c.2.2.3.5.5.8s.4.5.5.8"/><path d="m346.7 95.8c-.3.3-.6.5-.9.7-.3.2-.7.2-1 .3-.4 0-.7-.1-1.1-.2-.4-.2-.7-.4-1-.7-.3-.3-.6-.7-.7-1-.2-.4-.2-.7-.2-1.1 0-.4.1-.7.2-1 .1-.3.4-.6.6-.9.3-.3.6-.5.9-.6.3-.1.6-.2.9-.2l.1 1.2c-.2 0-.4 0-.5.1s-.3.2-.5.3c-.1.1-.2.3-.3.5-.1.2-.1.3-.1.5 0 .2.1.4.2.6.1.2.2.4.4.6.4.4.7.6 1.1.6.4 0 .7-.1 1.1-.5.1-.1.1-.1.1-.2 0-.1.1-.1.1-.2l-.6-.6-.6.6-.9-.9 1.5-1.5 1.9 1.9c0 .3-.1.6-.2.9 0 .3-.2.6-.5.8"/><path d="m348.9 93.5l-4-4 2.6-2.6.9.9-1.5 1.5.6.6 1.3-1.3.9.9-1.3 1.3.7.7 1.6-1.6.9.9-2.7 2.7"/><path d="m316.7 38.7l4-4 1.5 1.5c.2.2.4.4.6.7.2.2.3.5.3.7 0 .2 0 .5-.1.8-.1.3-.2.5-.5.8-.2.2-.5.4-.8.5-.3.1-.5.1-.8.1-.3 0-.5-.1-.8-.3-.2-.1-.5-.3-.7-.5l-.4-.4-1.3 1.3-1-1.2m3.1-1l.4.4c.2.2.4.3.6.3.2 0 .4-.1.6-.3s.2-.4.2-.5c0-.2-.2-.4-.4-.6l-.4-.4-1 1.1"/><path d="m320.5 42.5l4-4 1.1 1.1-3.1 3.1 1.5 1.5-1 .8-2.5-2.5"/><path d="m323.4 45.5l5.2-2.8 1.3 1.3-2.8 5.2-1.1-1.2.6-1-1.1-1.1-1 .6-1.1-1m3.5-.5l-.3.2.7.7.2-.3c.1-.2.3-.5.5-.8s.3-.5.5-.8c-.2.2-.5.3-.8.5-.3.2-.5.4-.8.5"/><path d="m327.7 49.7l4-4 1.1 1.1-.9 2.7-.5 1.3c.1-.1.2-.2.3-.4.1-.1.2-.3.3-.4.1-.1.2-.3.4-.4.1-.1.2-.3.4-.4l1.2-1.2 1 1-4 4-1.1-1.1.9-2.7.5-1.3c-.2.3-.4.5-.7.8-.2.3-.5.6-.7.8l-1.2 1.2-1-1"/><path d="m378.2 64.2l-4-4 1.5-1.5c.2-.2.4-.4.7-.5.2-.2.5-.3.7-.3.2 0 .5 0 .7 0 .2.1.5.2.7.5.3.3.5.6.5.9.1.3.1.6 0 .9l2.4.7-1.2 1.2-2-.6-.4.4 1.3 1.3-.9 1m-1.1-3.2l.4-.4c.4-.4.5-.8.1-1.2-.2-.2-.3-.2-.5-.2-.2 0-.4.2-.6.4l-.4.4 1 1"/><path d="m382.2 60.3l-4-4 2.6-2.6.9.9-1.5 1.5.6.6 1.3-1.3.9.9-1.3 1.3.7.7 1.6-1.6.9.9-2.7 2.7"/><path d="m385.7 56.8l-4-4 1.1-1.1 3.1 3.1 1.5-1.5.9.9-2.6 2.6"/><path d="m388.9 53.5l-4-4 2.6-2.6.9.9-1.5 1.5.6.6 1.3-1.3.9.9-1.3 1.3.7.7 1.6-1.6.9.9-2.7 2.7"/><path d="m392 50.4l-2.8-5.2 1.3-1.3 5.2 2.8-1.1 1.1-1-.6-1.1 1.1.6 1-1.1 1.1m-.4-3.4l.2.3.7-.7-.3-.2c-.2-.1-.5-.3-.8-.5-.3-.2-.5-.3-.8-.5.2.2.3.5.5.8s.4.5.5.8"/><path d="m397.7 44.9c-.3.3-.6.5-.9.6-.4.2-.7.3-1.2.3l-.1-1.3c.3 0 .5-.1.7-.2.2-.1.4-.2.6-.4.2-.2.2-.3.3-.4 0-.1 0-.2-.1-.3 0 0-.1-.1-.2-.1-.1 0-.1 0-.2 0s-.2 0-.3.1c-.1 0-.2.1-.3.1l-.7.3c-.1.1-.3.1-.5.1s-.3 0-.5 0-.3-.1-.5-.1c-.2-.1-.3-.2-.5-.3-.2-.2-.3-.4-.4-.6-.1-.2-.1-.5-.1-.7 0-.2.1-.5.2-.7s.3-.5.5-.7c.2-.2.5-.4.8-.6.3-.1.7-.2 1-.2l.1 1.2c-.2 0-.4.1-.6.2-.2.1-.3.2-.5.3-.1.1-.2.3-.2.4 0 .1 0 .2.1.3.1.1.2.1.4.1.2-.1.4-.1.6-.2l.7-.3c.3-.2.7-.2 1-.2.3 0 .6.2.9.5.2.2.3.4.4.6.1.2.1.5.1.7 0 .2-.1.5-.2.8 0 .2-.2.5-.4.7"/><path d="m399.9 42.6l-4-4 2.6-2.6.9.9-1.5 1.5.6.6 1.3-1.3.9.9-1.3 1.3.7.7 1.6-1.6.9.9-2.7 2.7"/><path d="m184.5 52.6c-.2.3-.4.6-.7.8s-.6.3-.9.4c-.3.1-.7.1-1.1 0-.4-.1-.8-.2-1.2-.5-.4-.3-.7-.6-.9-.9s-.4-.7-.4-1c-.1-.3-.1-.7 0-1s.2-.7.4-1c.2-.3.4-.6.7-.7.3-.2.6-.3.8-.3l.4 1.2c-.2 0-.3.1-.5.2-.1.1-.3.2-.4.4-.1.1-.1.3-.2.5 0 .2 0 .3.1.5.1.2.1.3.3.5s.3.3.5.5c.4.3.8.4 1.2.4s.6-.2.8-.5c.1-.2.2-.4.2-.6 0-.2 0-.4 0-.6l1.2-.1c.1.4.1.7.1 1 0 .2-.2.5-.4.8"/><path d="m185.8 50.6l-4.3-3.6 1.4-1.6c.2-.2.4-.4.6-.6.2-.2.4-.3.7-.4s.5-.1.7 0 .5.2.8.4c.3.3.5.5.6.8.1.3.1.6.1.9l2.5.5-1.1 1.3-2.1-.5-.4.4 1.4 1.2-.9 1.2m-1.4-3.1l.3-.4c.4-.5.4-.9 0-1.2-.2-.2-.4-.2-.5-.1s-.3.2-.5.4l-.3.4 1 .9"/><path d="m189.2 46.6l-3.9-4.1 2.7-2.5.9.9-1.6 1.5.6.6 1.3-1.3.9.9-1.3 1.3.7.7 1.6-1.5.9.9-2.8 2.6"/><path d="m192.2 43.7l-2-5.5 1.4-1.1 4.8 3.4-1.3 1-.9-.8-1.3 1 .5 1.1-1.2.9m0-3.4l.2.4.8-.6-.3-.3c-.2-.2-.5-.4-.7-.6s-.5-.4-.7-.6c.1.3.3.5.4.8.1.3.2.6.3.9"/><path d="m197.3 40l-2.3-3.7-1.3.8-.6-1.1 3.8-2.3.6 1.1-1.3.8 2.3 3.7-1.2.7"/><path d="m200.4 38.2l-2.4-5.1 3.3-1.5.5 1.1-1.9.9.4.8 1.7-.8.5 1.1-1.7.8.4.9 2-.9.5 1.1-3.3 1.6"/><path d="m178.5 103.8l3.9-4.4.8 1.3-1.8 1.8c-.2.2-.4.4-.6.6-.2.2-.4.4-.6.7.3-.1.6-.2.9-.3.3-.1.6-.2.9-.3l2.4-.8.8 1.3-5.6 1.6-1.1-1.5"/><path d="m181 107.6l4.4-3.5 2.3 2.8-1 .8-1.3-1.7-.7.5 1.1 1.4-1 .8-1.1-1.4-.8.6 1.4 1.7-1 .8-2.3-2.8"/><path d="m184.3 111.7l4-4 1.5 1.5c.2.2.4.4.5.7.2.2.3.5.3.7 0 .2 0 .5 0 .7-.1.2-.2.5-.5.7-.3.3-.6.5-.9.5-.3.1-.6.1-.9 0l-.7 2.4-1.2-1.2.7-2-.4-.4-1.3 1.3-1.1-.9m3.2-1.1l.4.4c.4.4.8.5 1.2.1.2-.2.2-.3.2-.5 0-.2-.2-.4-.4-.6l-.4-.4-1 1"/><path d="m188.5 115.7l3.6-4.3 1.1 1-3.6 4.3-1.1-1"/><path d="m190.9 117.7l3.2-4.6 3 2.1-.7 1-1.8-1.3-.6.9 1.5 1.1-.7 1-1.5-1.1-1.2 1.7-1.2-.8"/><path d="m196.2 121.2l.9-1.7.3-4 1.4.8-.2 1.2c0 .2-.1.4-.1.6 0 .2-.1.4-.1.7.2-.2.3-.3.5-.4.2-.1.3-.3.5-.4l.9-.8 1.4.8-3.3 2.4-.9 1.7-1.3-.9"/><path d="m518.9 124.2l-2.4-5.1 1.4-.7 1.7 1.7c.1.1.2.2.3.4.1.1.2.3.3.4 0-.2 0-.3-.1-.5s-.1-.3-.1-.5l-.2-2.4 1.4-.7 2.4 5.1-1.2.6-.7-1.5c-.1-.1-.1-.3-.2-.4-.1-.2-.1-.3-.2-.5-.1-.2-.1-.3-.2-.5-.1-.2-.1-.3-.1-.4l.1 1.4.2 2-.7.3-1.4-1.4-1-1c.1.1.2.3.3.4.1.1.2.3.3.5.1.2.2.3.3.5.1.2.2.3.2.4l.7 1.5-1.1.4"/><path d="m527.5 119.8c-.3.2-.7.4-1 .4-.3.1-.7.1-1 0-.3-.1-.6-.2-1-.5-.3-.2-.6-.6-.8-.9-.3-.4-.4-.8-.5-1.1-.1-.4-.1-.7 0-1.1.1-.3.2-.6.4-.9.2-.3.5-.5.8-.7.3-.2.7-.3 1-.4.3-.1.7-.1 1 0s.6.2.9.5c.3.2.6.5.8.9.3.4.4.8.5 1.1.1.4.1.7.1 1.1s-.2.6-.4.9c-.3.3-.5.5-.8.7m-.7-1.1c.3-.2.4-.5.4-.8 0-.4-.1-.7-.4-1.2s-.6-.7-.9-.8-.6-.1-.9.1c-.3.2-.4.4-.4.8 0 .3.1.7.4 1.2.3.4.6.7.9.9.3 0 .6 0 .9-.2"/><path d="m530.8 117.4l-3.6-4.3 1.2-1 2.6 1.1 1.2.6c-.1-.1-.2-.2-.4-.3s-.3-.2-.4-.4c-.1-.1-.3-.3-.4-.4-.1-.1-.3-.3-.4-.4l-1.1-1.2 1.1-.9 3.6 4.3-1.2 1-2.6-1.1-1.2-.6c.2.2.5.5.8.7.3.3.5.5.8.8l1.1 1.2-1.1.9"/><path d="m535.4 113.2l-4-3.9 1-1.1 4 3.9-1 1.1"/><path d="m538.2 110.2l-3.4-2.8-.9 1.2-1-.8 2.8-3.5 1 .8-.9 1.2 3.4 2.8-1 1.1"/><path d="m542.2 104.9c-.2.3-.5.6-.7.8-.3.2-.6.3-.9.4s-.7 0-1.1 0c-.4-.1-.8-.3-1.1-.5s-.7-.5-.9-.8c-.2-.3-.4-.6-.5-.9-.1-.3-.1-.7 0-1 .1-.3.2-.7.4-1 .2-.3.5-.6.7-.8s.6-.3.9-.4c.3-.1.7 0 1.1 0 .4.1.8.3 1.1.5.4.2.7.5.9.8.2.3.4.6.5.9s.1.7 0 1-.2.7-.4 1m-1.1-.6c.2-.3.2-.6.1-.9-.1-.3-.4-.6-.9-.9-.4-.3-.8-.4-1.2-.4s-.6.2-.8.4-.2.6-.1.9.4.6.8.9c.4.3.8.4 1.2.4.5 0 .7-.2.9-.4"/><path d="m544.2 101.4l-5.1-2.4.9-1.9c.1-.3.3-.5.4-.7.2-.2.4-.4.6-.5.2-.1.5-.2.7-.2.3 0 .6.1.9.2.4.2.6.4.8.7.2.3.3.5.3.9l2.5-.2-.7 1.5-2.1.1-.2.5 1.7.8-.7 1.2m-2.1-2.7l.2-.5c.3-.5.2-.9-.3-1.1-.2-.1-.4-.1-.6 0-.1.1-.3.3-.4.5l-.2.5 1.3.6"/><path d="m517.6 36.8c-.3-.1-.6-.3-.9-.6-.3-.2-.5-.5-.6-.8s-.2-.7-.2-1.1c0-.4.1-.8.3-1.2.2-.4.4-.8.7-1.1.3-.3.6-.5.9-.6s.7-.2 1-.2c.4 0 .7.1 1 .2.3.1.6.3.8.6.2.2.4.5.5.8l-1.1.6c-.1-.2-.2-.3-.3-.4-.1-.1-.2-.2-.4-.3-.2-.1-.3-.1-.5-.1-.2 0-.3.1-.5.1-.2.1-.3.2-.4.4s-.3.4-.4.6c-.2.5-.3.9-.2 1.3.1.3.3.6.7.7.2.1.4.1.6.1.2 0 .4-.1.5-.2l.4 1.2c-.3.2-.7.3-1 .3-.2-.1-.6-.1-.9-.3"/><path d="m521.8 38.9c-.3-.2-.6-.4-.8-.7-.2-.3-.4-.6-.4-.9s-.1-.7 0-1.1c.1-.4.2-.8.4-1.2s.5-.7.8-1c.3-.3.6-.4.9-.5.3-.1.6-.1 1-.1.3 0 .7.2 1 .4.3.2.6.4.8.7.2.3.4.6.4.9.1.3.1.7 0 1.1-.1.4-.2.8-.4 1.2-.2.4-.5.7-.8 1-.3.3-.6.4-.9.5s-.7.1-1 .1-.7-.2-1-.4m.6-1.1c.3.2.6.2.9 0s.6-.5.8-.9c.2-.4.4-.8.3-1.2 0-.3-.2-.6-.5-.8-.3-.2-.6-.2-.9 0-.3.2-.6.5-.8.9-.2.4-.4.8-.3 1.2s.2.6.5.8"/><path d="m524.7 40.5l3.3-4.5 1.2.9-.5 2.8-.3 1.3c.1-.1.2-.3.2-.4s.2-.3.3-.5.2-.3.3-.5c.1-.2.2-.3.3-.4l1-1.3 1.1.8-3.3 4.5-1.2-.9.5-2.8.3-1.3c-.2.3-.3.6-.5.9-.2.3-.4.6-.6.9l-1 1.3-1.1-.8"/><path d="m529.2 43.9l3.8-4.1 2.7 2.5-.9.9-1.6-1.5-.7.8 1.4 1.3-.9.9-1.4-1.3-1.4 1.5-1-1"/><path d="m532.4 47.1l4.2-3.8 1 1.1-4.2 3.8-1-1.1"/><path d="m535.6 51.1c-.2-.3-.4-.6-.5-1-.1-.3-.2-.7-.1-1 0-.3.2-.7.4-1s.5-.6.9-.9c.4-.3.8-.5 1.1-.6.4-.1.8-.1 1.1-.1.4.1.7.2 1 .4.3.2.6.4.8.7.2.3.4.7.5 1 .1.3.1.6 0 .9l-1.2-.1c0-.2 0-.4 0-.5s-.1-.3-.2-.5c-.1-.2-.2-.3-.4-.4-.2-.1-.3-.1-.5-.1-.2 0-.4 0-.6.1-.2.1-.4.2-.6.3-.4.3-.7.7-.8 1-.1.4 0 .7.3 1.1 0 .1.1.1.2.2.1.1.1.1.2.1l.6-.5-.5-.7 1-.7 1.3 1.7-2.1 1.6c-.3 0-.6-.2-.9-.4-.4 0-.7-.3-1-.6"/><path d="m538.4 55.3c-.4-.7-.5-1.3-.3-1.9.2-.6.7-1.1 1.6-1.6l2.5-1.4.7 1.3-2.7 1.5c-.4.2-.7.5-.8.7-.1.2-.1.5.1.7s.3.4.6.4c.2 0 .6-.1 1-.3l2.7-1.5.7 1.2-2.5 1.4c-.8.5-1.5.7-2.1.6-.6 0-1.1-.4-1.5-1.1"/><path d="m540 58.2l5.2-2.1.8 2c.1.3.2.6.2.8.1.3.1.5 0 .8s-.2.5-.3.7-.4.4-.7.5c-.4.2-.7.2-1 .2-.3 0-.6-.2-.8-.4l-1.5 2-.6-1.5 1.4-1.6-.2-.5-1.7.7-.8-1.6m3.4.2l.2.5c.2.6.6.7 1 .5.2-.1.3-.2.4-.4 0-.2 0-.4-.1-.7l-.2-.5-1.3.6"/><path d="m542 63.1l5.4-1.5 1 3.5-1.2.3-.6-2.1-.8.2.5 1.8-1.2.3-.5-1.8-1 .3.6 2.1-1.2.3-1-3.4"/></g><path d="m202.2 209h-153.7c-3.1 0-5.6-2.5-5.6-5.6v-104.2c0-3.1 2.5-5.6 5.6-5.6h153.7c3.1 0 5.6 2.5 5.6 5.6v104.3c0 3-2.5 5.5-5.6 5.5z" fill="#644ba6" stroke="#322750" stroke-linejoin="round" stroke-linecap="round" stroke-width="4" stroke-miterlimit="10"/><path d="m-29.8 187.8l14.5-44.5h-28.9l14.4 44.5" fill="#e95a35" transform="translate(155.2 1.16)"/><path d="m96.8 187.8l-14.5-44.5h-20.2l34.7 44.5" fill="#ff8231" transform="translate(28.531 1.161)"/><path d="m90.6 144.2l-4.4 13.5c-.4 1.2 0 2.6 1.1 3.3l38 27.6-34.7-44.4" fill="#fdb131" transform="translate(.089.256)"/><path d="m61.2-135.8h20.3l-8.7-26.8c-.4-1.4-2.4-1.4-2.9 0l-8.7 26.8" fill="#e95a35" transform="translate(29.422 280.26)"/><path d="m-121.8 187.8l14.5-44.5h20.3l-34.8 44.5" fill="#ff8231" transform="translate(247.2 1.161)"/><path d="m-86.2 144.2l4.4 13.5c.4 1.2 0 2.6-1.1 3.3l-38 27.6 34.7-44.4" fill="#fdb131" transform="translate(246.31.256)"/><path d="m-176.9-135.8h-20.3l8.7-26.8c.4-1.4 2.4-1.4 2.9 0l8.7 26.8" fill="#e95a35" transform="translate(336.97 280.26)"/><g stroke-linejoin="round" stroke-linecap="round" stroke-miterlimit="10"><g stroke="#322750"><g stroke-width="4"><g fill="none"><path d="m-29.8 187.8l14.5-44.5h-28.9l14.4 44.5z" transform="translate(155.2 1.16)"/><path d="m96.8 187.8l-14.5-44.5h-20.2l34.7 44.5z" transform="translate(28.531 1.161)"/><path d="m90.6 144.2l-4.4 13.5c-.4 1.2 0 2.6 1.1 3.3l38 27.6-34.7-44.4z" transform="translate(.089.256)"/><path d="m61.2-135.8h20.3l-8.7-26.8c-.4-1.4-2.4-1.4-2.9 0l-8.7 26.8z" transform="translate(29.422 280.26)"/><path d="m-121.8 187.8l14.5-44.5h20.3l-34.8 44.5z" transform="translate(247.2 1.161)"/><path d="m-86.2 144.2l4.4 13.5c.4 1.2 0 2.6-1.1 3.3l-38 27.6 34.7-44.4z" transform="translate(246.31.256)"/><path d="m-176.9-135.8h-20.3l8.7-26.8c.4-1.4 2.4-1.4 2.9 0l8.7 26.8z" transform="translate(336.97 280.26)"/></g><g fill="#4e4876"><path d="m218.8 220h-186.8c-3 0-5.5-2.5-5.5-5.5v-3.3c0-1.2 1-2.2 2.2-2.2h193.4c1.2 0 2.2 1 2.2 2.2v3.3c0 3-2.5 5.5-5.5 5.5z"/><path d="m42.7 174.6h-5.5c-6.1 0-11-4.9-11-11v-27.5c0-6.1 4.9-11 11-11h5.5v49.5z"/><path d="m26.2 166.4h-3.7c-4 0-7.3-3.3-7.3-7.3v-18.3c0-4 3.3-7.3 7.3-7.3h3.7v32.9z"/><path d="m208.1 125.2h5.5c6.1 0 11 4.9 11 11v27.5c0 6.1-4.9 11-11 11h-5.5v-49.5z"/><path d="m224.5 133.4h3.7c4 0 7.3 3.3 7.3 7.3v18.3c0 4-3.3 7.3-7.3 7.3h-3.7v-32.9z"/></g><path d="m222.8 130.1l7.3-20.8c0 0-23.1-51.1-103.3-50.5h-2.8c-80.2-.5-103.3 50.5-103.3 50.5l7.2 20.6" fill="none"/></g><path d="m199.2 77c-16-10-39.3-18.5-72.2-18.3h-2.7c-32.7-.2-55.9 8.1-71.9 18.1" fill="none" stroke-width="12"/></g><g stroke-width="4"><g fill="none"><path stroke="#ff8231" d="m289.6 181.4h11.1"/><path opacity=".3" stroke="#000" d="m313.8 181.4h35.3"/><g stroke="#322750"><path d="m314.1 202.9h68.7"/><path d="m1.9 2h88.2"/></g><path opacity=".3" stroke="#000" d="m35.2 23.8h45.5"/><path stroke="#ff8231" d="m94.7 23.8h12.2"/><path stroke="#322750" d="m457.5 253h76.6"/></g><g fill="#fdb131" stroke="#322750"><circle cx="441.3" cy="253" r="17.1"/><circle cx="495.9" cy="253" r="17.1"/><circle cx="550.7" cy="253" r="17.1"/><path d="m435.6 254.2l3.4 3.1"/><path d="m447 248.7l-8 8.6"/><path d="m490.2 254.2l3.4 3.1"/><path d="m501.6 248.7l-8 8.6"/><path d="m545 254.2l3.5 3.1"/><path d="m556.4 248.7l-7.9 8.6"/></g></g></g></svg>