<svg xmlns="http://www.w3.org/2000/svg" viewBox="0 0 570 277" enable-background="new 0 0 570 277"><path d="m453.8 126.8c-.7-.6-.7-1.7-.1-2.3l.6-.7 7.5-8.4h-32.8c-9.7 0-19-3.9-25.9-10.7l-15.9-15.9-14.2 1-.4 13.8c0 0 0 0 0 0l15.9 15.8c5.4 5.4 11.6 9.5 18.6 12.4 7 2.9 14.3 4.3 21.9 4.3h33.7l-8.9-9.3" fill="#f79526"/><g fill="#df4329"><path d="m327.4 45c-.3.2-.5.3-.8.5l-.5.3.8.8.3-.5c.1-.2.3-.5.5-.8.2-.3.3-.5.5-.8-.3.2-.5.3-.8.5"/><path d="m321.8 39.3c.2-.2.3-.4.2-.6 0-.2-.2-.4-.4-.7l-.5-.5-1.2 1.2.5.5c.2.2.5.4.7.4.3 0 .5-.1.7-.3"/><path d="m335.2 37c-5.4-5.4-11.6-9.5-18.6-12.4-7-2.9-14.3-4.3-21.9-4.3h-32.8c0 .1-.1.2-.2.3l-9.7 10.2 9.2 10.2h33.5c9.7 0 19 3.9 25.9 10.7l20.1 20.1.4-12.2c0-1.2 1-2.2 2.2-2.3h.9l10.9-.6-19.9-19.7"/></g><g fill="#ee7728"><path d="m462 20.5c-.1-.1-.2-.2-.2-.3h-32.8c-7.6 0-14.9 1.4-21.9 4.3-7 2.9-13.3 7-18.6 12.4l-26.6 26.5-6.5 6.5 12.4.4c.9 0 1.6.7 1.7 1.6v.9l.6 11.8 6.5-6.5 26.6-26.5c6.8-6.7 16.1-10.6 25.8-10.6h33.5l9.2-10.2-9.7-10.3"/><path d="m392.4 48.8l.3.5.8-.8-.5-.3c-.2-.1-.5-.3-.8-.5-.3-.2-.5-.3-.8-.5.2.3.3.5.5.8.2.3.3.5.5.8"/><path d="m378.9 60c-.2 0-.4.2-.6.4l-.5.5 1.1 1.1.5-.5c.2-.2.4-.5.4-.7 0-.2-.1-.4-.2-.6-.3-.1-.5-.2-.7-.2"/></g><g fill="#eb6c28"><path d="m330.7 109.9l.3.5.8-.8-.5-.3c-.2-.1-.5-.3-.8-.5-.3-.2-.5-.3-.8-.5.2.3.3.5.5.8.2.3.4.6.5.8"/><path d="m341.2 99.4l.3.5.8-.8-.5-.3c-.2-.1-.5-.3-.8-.5-.3-.2-.5-.3-.8-.5.2.3.3.5.5.8.2.3.4.6.5.8"/><path d="m365.1 89.2l-.7-13.8-14-.4-3.3 3.3-26.6 26.5c-6.9 6.9-16.2 10.7-25.9 10.7h-32.9l7.5 8.4.6.7c.6.7.6 1.7-.1 2.3l-8.9 9.5h33.7c7.6 0 14.9-1.5 21.9-4.4 7-2.9 13.3-7 18.6-12.4l26.8-26.6 3.5-3.4c-.1-.2-.1-.3-.2-.4"/><path d="m327.9 111.4c-.2-.2-.4-.3-.6-.2-.2 0-.4.2-.7.4l-.5.5 1.2 1.2.5-.5c.2-.2.4-.5.4-.7 0-.2-.1-.5-.3-.7"/></g><g fill="#e24d2b"><path d="m185.9 47c-.2-.2-.4-.2-.6-.1-.2.1-.4.2-.6.5l-.4.5 1.3.9.4-.5c.2-.3.3-.5.3-.7-.1-.3-.2-.5-.4-.6"/><path d="m192.5 41.4l.2.5.9-.8-.4-.3c-.2-.2-.5-.3-.7-.5-.3-.2-.5-.4-.8-.5.1.3.3.5.4.8.1.3.3.6.4.8"/><path d="m246 31.9c-.6-.7-.6-1.7.1-2.3l8.8-9.3h-33.4c-29.1 0-53.3 21.7-57.3 49.8l10.8 10.1 10.1-9.2c3.4-17 18.4-30 36.4-30h32.7l-7.6-8.5-.6-.6"/></g><g fill="#e75f29"><path d="m254.9 115.5h-33.4c-20.2 0-36.7-16.3-37.1-36.4l-7.6 6.9-.7.6c-.7.7-1.8.6-2.4-.1l-10-9.4c0 .4 0 .8 0 1.2 0 32 25.9 58 57.8 58h32.5c.1-.1.2-.3.2-.4l9.7-10.3-9-10.1"/><path d="m189.3 110.8c0-.2-.2-.4-.4-.7l-.4-.5-1.1 1.1.4.5c.2.2.4.4.7.4s.4 0 .6-.2.2-.4.2-.6"/></g><g fill="#f28227"><path d="m524.8 34.4c-.3-.2-.7-.2-1 0-.3.2-.6.5-.9 1-.3.5-.4.9-.3 1.3 0 .4.2.7.6.9.3.2.7.2 1 0 .3-.2.6-.5.9-1 .3-.5.4-.9.3-1.3-.1-.4-.3-.7-.6-.9"/><path d="m502.1 20.3h-33.3l8.8 9.3c.7.6.7 1.7.1 2.3l-.6.7-7.6 8.5h32.7c18 0 33 12.9 36.4 30l10.1 9.2 10.7-10.1c-4-28.2-28.1-49.9-57.3-49.9"/><path d="m544.7 56.9c.2.1.4.1.7-.1.2-.1.4-.3.4-.5 0-.2 0-.5-.2-.7l-.3-.6-1.4.7.3.6c.1.3.3.5.5.6"/></g><g fill="#f48c27"><path d="m540.5 104.7c-.5-.2-.9-.3-1.3-.3-.4.1-.6.3-.8.6-.2.3-.2.7 0 1 .2.3.5.6 1 .9.5.2 1 .3 1.3.3.4-.1.7-.2.8-.6.2-.3.2-.7 0-1-.2-.4-.5-.7-1-.9"/><path d="m541.1 99.7c-.3-.1-.5 0-.6.1-.2.1-.3.4-.3.7l-.2.6 1.5.4.2-.6c.1-.3.1-.6 0-.8-.1-.2-.3-.3-.6-.4"/><path d="m550 86.5c-.7.7-1.7.7-2.4.1l-.7-.6-7.6-6.9c-.4 20.1-17 36.4-37.1 36.4h-33.4l-9.1 10.1 9.7 10.3c.1.1.2.3.2.4h32.5c31.9 0 57.9-26 57.9-58 0-.4 0-.8 0-1.2l-10 9.4"/><path d="m526.7 117.1c-.3-.2-.7-.2-1 0-.3.2-.5.4-.6.8-.1.4 0 .8.3 1.3.3.5.5.8.9 1 .3.2.7.2 1 0 .3-.2.5-.5.6-.8.1-.4 0-.8-.3-1.3-.3-.5-.6-.9-.9-1"/></g><g fill="#fff"><path d="m247 77.3c0 .9-.1 1.6-.4 2.3-.3.7-.7 1.3-1.2 1.8-.5.5-1.1.9-1.9 1.2-.7.3-1.5.4-2.4.4h-4.4v-11.5h4.4c.9 0 1.7.1 2.4.4.7.3 1.3.7 1.9 1.2.5.5.9 1.1 1.2 1.8.3.8.4 1.6.4 2.4m-2.2 0c0-.6-.1-1.2-.3-1.7-.2-.5-.4-.9-.7-1.3-.3-.4-.7-.6-1.2-.8-.5-.2-1-.3-1.5-.3h-2.3v8.2h2.3c.6 0 1.1-.1 1.5-.3.5-.2.8-.5 1.2-.8.3-.4.6-.8.7-1.3.2-.5.3-1.1.3-1.7"/><path d="m255.9 71.5v1.7h-5.2v3.2h4.1v1.7h-4.1v3.3h5.2v1.7h-7.3v-11.6h7.3"/><path d="m256.6 71.5h1.7c.2 0 .3 0 .5.1.1.1.2.2.3.4l2.7 7.1c.1.2.2.5.3.8.1.3.2.6.2.9.1-.6.3-1.2.5-1.6l2.7-7.1c0-.1.1-.2.3-.3.1-.1.3-.2.5-.2h1.7l-4.7 11.6h-2l-4.7-11.7"/><path d="m466.8 77.3c0 .9-.1 1.6-.4 2.4-.3.7-.7 1.4-1.2 1.9-.5.5-1.1.9-1.9 1.2-.7.3-1.5.4-2.4.4-.9 0-1.7-.1-2.4-.4-.7-.3-1.3-.7-1.9-1.2-.5-.5-.9-1.2-1.2-1.9-.3-.7-.4-1.5-.4-2.4 0-.9.1-1.6.4-2.4.3-.7.7-1.4 1.2-1.9.5-.5 1.1-.9 1.9-1.2.7-.3 1.5-.4 2.4-.4.9 0 1.7.1 2.4.5.7.3 1.3.7 1.9 1.2.5.5.9 1.2 1.2 1.9.2.7.4 1.5.4 2.3m-2.3 0c0-.6-.1-1.2-.3-1.7-.2-.5-.4-.9-.7-1.3-.3-.4-.7-.6-1.2-.8-.5-.2-1-.3-1.5-.3-.6 0-1.1.1-1.5.3-.5.2-.8.5-1.2.8-.3.4-.6.8-.7 1.3-.2.5-.3 1.1-.3 1.7 0 .6.1 1.2.3 1.7.2.5.4.9.7 1.3.3.4.7.6 1.2.8.5.2 1 .3 1.5.3.6 0 1.1-.1 1.5-.3.5-.2.8-.5 1.2-.8.3-.4.6-.8.7-1.3.3-.5.3-1.1.3-1.7"/><path d="m470.5 79v4.1h-2.2v-11.6h3.8c.8 0 1.5.1 2 .3.6.2 1 .4 1.4.8.4.3.6.7.8 1.2.2.5.3 1 .3 1.5 0 .6-.1 1.1-.3 1.5-.2.5-.5.9-.8 1.2-.4.3-.8.6-1.4.8-.6.2-1.2.3-2 .3h-1.6zm0-1.7h1.6c.4 0 .7 0 1-.1.3-.1.5-.2.7-.4.2-.2.3-.4.4-.7.1-.3.1-.6.1-.9 0-.3 0-.6-.1-.8-.1-.3-.2-.5-.4-.6-.2-.2-.4-.3-.7-.4-.3-.1-.6-.1-1-.1h-1.6v4"/><path d="m484.3 73.6c-.1.1-.1.2-.2.2-.1 0-.2.1-.3.1-.1 0-.2 0-.4-.1-.1-.1-.3-.2-.5-.3-.2-.1-.4-.2-.6-.3-.2-.1-.5-.1-.9-.1-.3 0-.6 0-.8.1-.2.1-.4.2-.6.3s-.3.3-.3.5c-.1.2-.1.4-.1.6 0 .3.1.5.2.7s.4.3.6.5c.3.1.5.2.9.3.3.1.6.2 1 .3.3.1.7.2 1 .4.3.2.6.3.9.6.3.2.5.5.6.9.2.3.2.7.2 1.2 0 .5-.1 1-.3 1.5-.2.5-.4.9-.8 1.2-.3.3-.8.6-1.3.8-.5.2-1.1.3-1.7.3-.4 0-.7 0-1.1-.1s-.7-.2-1-.3c-.3-.1-.6-.3-.9-.5-.3-.2-.5-.4-.8-.6l.6-1c.1-.1.1-.1.2-.2.1-.1.2-.1.3-.1.1 0 .3.1.4.2.2.1.3.2.6.4.2.1.5.3.7.4.3.1.6.2 1 .2.6 0 1.1-.1 1.4-.4s.5-.7.5-1.3c0-.3-.1-.6-.2-.7-.2-.2-.4-.4-.6-.5-.3-.1-.5-.2-.9-.3-.3-.1-.6-.2-1-.3-.3-.1-.7-.2-1-.4-.3-.1-.6-.3-.9-.6-.3-.2-.5-.5-.6-.9-.2-.4-.2-.8-.2-1.3 0-.4.1-.8.3-1.2.2-.4.4-.8.7-1.1s.7-.6 1.2-.7c.5-.2 1-.3 1.6-.3.7 0 1.3.1 1.9.3.6.2 1.1.5 1.5.9l-.3.7"/></g><g fill="none" stroke="#322750" stroke-linejoin="round" stroke-linecap="round" stroke-width="3.01" stroke-miterlimit="10"><path d="m335.2 37c-5.4-5.4-11.6-9.5-18.6-12.4-7-2.9-14.3-4.3-21.9-4.3h-32.8c0 .1-.1.2-.2.3l-9.7 10.2 9.2 10.2h33.5c9.7 0 19 3.9 25.9 10.7l20.1 20.1.4-12.2c0-1.2 1-2.2 2.2-2.3h.9l10.9-.6-19.9-19.7z"/><path d="m246 31.9c-.6-.7-.6-1.7.1-2.3l8.8-9.3h-33.4c-29.1 0-53.3 21.7-57.3 49.8l10.8 10.1 10.1-9.2c3.4-17 18.4-30 36.4-30h32.7l-7.6-8.5-.6-.6z"/><path d="m254.9 115.5h-33.4c-20.2 0-36.7-16.3-37.1-36.4l-7.6 6.9-.7.6c-.7.7-1.8.6-2.4-.1l-10-9.4c0 .4 0 .8 0 1.2 0 32 25.9 58 57.8 58h32.5c.1-.1.2-.3.2-.4l9.7-10.3-9-10.1z"/><path d="m365.1 89.2l-.7-13.8-14-.4-3.3 3.3-26.6 26.5c-6.9 6.9-16.2 10.7-25.9 10.7h-32.9l7.5 8.4.6.7c.6.7.6 1.7-.1 2.3l-8.9 9.5h33.7c7.6 0 14.9-1.5 21.9-4.4 7-2.9 13.3-7 18.6-12.4l26.8-26.6 3.5-3.4c-.1-.2-.1-.3-.2-.4z"/><path d="m462 20.5c-.1-.1-.2-.2-.2-.3h-32.8c-7.6 0-14.9 1.4-21.9 4.3-7 2.9-13.3 7-18.6 12.4l-26.6 26.5-6.5 6.5 12.4.4c.9 0 1.6.7 1.7 1.6v.9l.6 11.8 6.5-6.5 26.6-26.5c6.8-6.7 16.1-10.6 25.8-10.6h33.5l9.2-10.2-9.7-10.3z"/><path d="m453.8 126.8c-.7-.6-.7-1.7-.1-2.3l.6-.7 7.5-8.4h-32.8c-9.7 0-19-3.9-25.9-10.7l-15.9-15.9-14.2 1-.4 13.8c0 0 0 0 0 0l15.9 15.8c5.4 5.4 11.6 9.5 18.6 12.4 7 2.9 14.3 4.3 21.9 4.3h33.7l-8.9-9.3z"/><path d="m550 86.5c-.7.7-1.7.7-2.4.1l-.7-.6-7.6-6.9c-.4 20.1-17 36.4-37.1 36.4h-33.4l-9.1 10.1 9.7 10.3c.1.1.2.3.2.4h32.5c31.9 0 57.9-26 57.9-58 0-.4 0-.8 0-1.2l-10 9.4z"/><path d="m502.1 20.3h-33.3l8.8 9.3c.7.6.7 1.7.1 2.3l-.6.7-7.6 8.5h32.7c18 0 33 12.9 36.4 30l10.1 9.2 10.7-10.1c-4-28.2-28.1-49.9-57.3-49.9z"/></g><g fill="#322750"><path d="m327 117l-4-4 1.5-1.5c.2-.2.4-.4.7-.6.2-.2.5-.3.7-.3.3 0 .5 0 .8.1s.5.2.8.5c.2.2.4.5.5.8.1.3.1.5.1.8 0 .3-.1.5-.3.8-.1.2-.3.5-.5.7l-.4.4 1.3 1.3-1.2 1m-1-3.1l.4-.4c.2-.2.3-.4.3-.6 0-.2-.1-.4-.3-.6-.2-.2-.4-.3-.5-.2-.2 0-.4.2-.6.4l-.4.4 1.1 1"/><path d="m330.1 114l-2.8-5.2 1.3-1.3 5.2 2.8-1.1 1.1-1-.7-1.1 1.1.7 1-1.2 1.2m-.4-3.5l.2.3.7-.7-.3-.2c-.2-.1-.5-.3-.8-.5-.3-.2-.5-.3-.8-.5.2.2.3.5.5.8.2.3.3.5.5.8"/><path d="m335.9 108.3c-.3.3-.5.5-.9.6-.3.1-.6.2-1 .2-.3 0-.7-.1-1.1-.2-.4-.2-.7-.4-1-.7-.3-.3-.6-.7-.7-1.1-.2-.4-.2-.7-.2-1.1 0-.4.1-.7.2-1 .1-.3.3-.6.6-.9.3-.3.6-.5.9-.6.3-.1.6-.2.9-.2l.1 1.2c-.2 0-.4 0-.5.1-.2 0-.3.1-.4.3-.1.1-.2.3-.3.4-.1.2-.1.3 0 .5 0 .2.1.4.2.6.1.2.2.4.4.6.4.4.7.6 1.1.6.4 0 .7-.1.9-.3.2-.2.3-.3.3-.5.1-.2.1-.4.1-.6l1.2.1c0 .4 0 .7-.2 1-.2.4-.3.7-.6 1"/><path d="m337.7 106.3l-4-4 1.1-1.1 1.5 1.5-.5-2.5 1.2-1.2.4 2.8 3.8.9-1.2 1.3-2.4-.7.2.9 1 1-1.1 1.1"/><path d="m341.4 102.7l-2.8-5.2 1.3-1.3 5.2 2.8-1.1 1.1-1-.7-1.1 1.1.7 1-1.2 1.2m-.5-3.5l.2.3.7-.7-.3-.2c-.2-.1-.5-.3-.8-.5-.3-.2-.5-.3-.8-.5.2.2.3.5.5.8.2.3.4.6.5.8"/><path d="m347.3 96.9c-.3.3-.6.5-.9.7-.3.2-.7.2-1 .3-.4 0-.7-.1-1.1-.2-.4-.2-.7-.4-1-.7-.3-.3-.6-.7-.7-1.1-.2-.4-.2-.7-.2-1.1 0-.4.1-.7.2-1 .1-.3.4-.6.6-.9.3-.3.6-.5.9-.6.3-.1.6-.2.9-.2l.1 1.2c-.2 0-.4 0-.5.1-.2.1-.3.2-.5.3-.1.1-.2.3-.3.5-.1.2-.1.3-.1.5 0 .2.1.4.2.6.1.2.2.4.4.6.4.4.7.6 1.1.6.4 0 .7-.1 1.1-.5.1-.1.1-.1.2-.2 0-.1.1-.1.1-.2l-.6-.6-.6.6-.9-.9 1.5-1.5 1.9 1.9c0 .3-.1.6-.2.9-.1.3-.3.6-.6.9"/><path d="m349.4 94.7l-4-4 2.6-2.6.9.9-1.5 1.5.6.6 1.3-1.3.9.9-1.3 1.3.7.7 1.6-1.6.8.9-2.6 2.7"/><path d="m317.6 39.1l4-4 1.5 1.5c.2.2.4.4.6.7.2.2.3.5.3.7 0 .3 0 .5-.1.8-.1.3-.2.5-.5.8-.2.2-.5.4-.8.5-.3.1-.5.1-.8.1-.3 0-.5-.1-.8-.3-.2-.1-.5-.3-.7-.5l-.4-.4-1.3 1.3-1-1.2m3.2-1.1l.4.4c.2.2.4.3.6.3.2 0 .4-.1.6-.3.2-.2.3-.4.2-.5 0-.2-.2-.4-.4-.6l-.4-.4-1 1.1"/><path d="m321.3 42.7l4-4 1.1 1.1-3.1 3.1 1.5 1.5-.9.9-2.6-2.6"/><path d="m324.2 45.7l5.2-2.8 1.3 1.3-2.8 5.2-1.1-1.1.7-1-1.1-1.1-1 .7-1.2-1.2m3.5-.4l-.3.2.7.7.2-.3c.1-.2.3-.5.5-.8.2-.3.3-.5.5-.8-.2.2-.5.3-.8.5-.3.2-.6.3-.8.5"/><path d="m328.4 49.8l4-4 1.1 1.1-.9 2.7-.5 1.3c.1-.1.2-.2.3-.4.1-.1.2-.3.3-.4.1-.1.2-.3.4-.4.1-.1.2-.3.4-.4l1.2-1.2 1 1-4 4-1.1-1.1.9-2.7.5-1.3c-.2.3-.4.5-.7.8-.2.3-.5.6-.7.8l-1.2 1.2-1-1"/><path d="m379.3 64.7l-4-4 1.5-1.5c.2-.2.4-.4.7-.5.2-.2.5-.3.7-.3.2 0 .5 0 .7 0 .3.1.5.2.8.5.3.3.5.6.5.9.1.3.1.6 0 .9l2.4.7-1.2 1.2-2-.7-.4.4 1.3 1.3-1 1.1m-1.1-3.2l.4-.4c.4-.4.5-.8.1-1.2-.2-.2-.3-.2-.5-.2-.2 0-.4.2-.6.4l-.4.4 1 1"/><path d="m383.2 60.8l-4-4 2.6-2.6.9.9-1.5 1.5.6.6 1.3-1.3.9.9-1.3 1.3.7.7 1.6-1.6.9.9-2.7 2.7"/><path d="m386.6 57.4l-4-4 1.1-1.1 3.1 3.1 1.5-1.5.9.9-2.6 2.6"/><path d="m389.8 54.2l-4-4 2.6-2.6.9.9-1.5 1.5.6.6 1.3-1.3.9.9-1.3 1.3.7.7 1.6-1.6.9.9-2.7 2.7"/><path d="m392.8 51.2l-2.8-5.2 1.3-1.3 5.2 2.8-1.1 1.1-1-.7-1.1 1.1.7 1-1.2 1.2m-.4-3.5l.2.3.7-.7-.3-.2c-.2-.1-.5-.3-.8-.5-.3-.2-.5-.3-.8-.5.2.2.3.5.5.8.2.3.4.6.5.8"/><path d="m398.4 45.8c-.3.3-.6.5-.9.6-.4.2-.7.3-1.2.3l-.1-1.3c.3 0 .5-.1.7-.2.2-.1.4-.2.6-.4.2-.2.3-.3.3-.4 0-.1 0-.2-.1-.3 0 0-.1-.1-.2-.1-.1 0-.1 0-.2 0-.1 0-.2 0-.3.1-.1 0-.2.1-.3.1l-.7.3c-.1.1-.3.1-.5.1-.2 0-.3 0-.5 0-.2 0-.3-.1-.5-.1-.2-.1-.3-.2-.5-.3-.2-.2-.3-.4-.4-.6-.1-.2-.1-.5-.1-.7 0-.2.1-.5.2-.7.1-.2.3-.5.5-.7.2-.2.5-.4.8-.6.3-.1.7-.2 1-.2l.1 1.2c-.2 0-.4.1-.6.2-.2.1-.3.2-.5.3-.1.1-.2.3-.2.4 0 .1 0 .2.1.3.1.1.2.1.4.1.2-.1.4-.1.6-.3l.7-.3c.3-.2.7-.2 1-.2.3 0 .6.2.9.5.2.2.3.4.4.6.1.2.1.5.1.7 0 .3-.1.5-.2.8 0 .3-.2.5-.4.8"/><path d="m400.5 43.5l-4-4 2.6-2.6.9.9-1.5 1.5.6.6 1.3-1.3.9.9-1.3 1.3.7.7 1.6-1.6.9.9-2.7 2.7"/><path d="m185 53c-.2.3-.4.6-.7.8-.3.2-.6.4-.9.4-.3.1-.7.1-1.1 0-.4-.1-.8-.2-1.2-.5-.4-.3-.7-.6-.9-.9-.2-.3-.4-.7-.4-1-.1-.3-.1-.7 0-1 .1-.3.2-.7.4-1 .2-.3.5-.6.7-.7.3-.2.6-.3.8-.3l.4 1.2c-.2 0-.3.1-.5.2-.1.1-.3.2-.4.4-.1.1-.1.3-.2.5 0 .2 0 .3.1.5.1.2.1.3.3.5.1.2.3.3.5.5.4.3.8.4 1.2.4.4 0 .6-.2.8-.5.1-.2.2-.4.2-.6 0-.2 0-.4 0-.6l1.2-.1c.1.4.1.7.1 1-.1.2-.2.5-.4.8"/><path d="m186.2 51.1l-4.3-3.6 1.4-1.6c.2-.2.4-.4.6-.6.2-.2.4-.3.7-.4.2-.1.5-.1.7 0s.5.2.8.4c.3.3.5.5.6.8.1.3.1.6.1.9l2.5.5-1.1 1.3-2.1-.5-.4.4 1.5 1.2-1 1.2m-1.4-3.1l.3-.4c.4-.5.4-.9 0-1.2-.2-.2-.4-.2-.5-.1-.2.1-.3.2-.5.4l-.3.4 1 .9"/><path d="m189.6 47.2l-3.9-4.1 2.6-2.5.9.9-1.5 1.5.6.6 1.3-1.3.9.9-1.3 1.3.7.7 1.6-1.6.9.9-2.8 2.7"/><path d="m192.4 44.4l-2.1-5.5 1.4-1.1 4.8 3.4-1.3 1-1-.8-1.3 1 .5 1.1-1 .9m.1-3.5l.2.4.8-.6-.3-.3c-.2-.2-.5-.4-.7-.6-.2-.2-.5-.4-.7-.6.1.3.3.5.4.8 0 .3.1.6.3.9"/><path d="m197.4 40.7l-2.3-3.7-1.3.8-.7-1.1 3.8-2.4.7 1.1-1.3.8 2.3 3.7-1.2.8"/><path d="m200.4 38.9l-2.5-5.1 3.3-1.6.5 1.1-1.9.9.4.8 1.7-.8.5 1.1-1.7.8.4.9 2-1 .5 1.1-3.2 1.8"/><path d="m178.9 104.4l3.9-4.4.8 1.3-1.8 1.8c-.2.2-.4.4-.6.6-.2.2-.4.4-.7.7.3-.1.6-.2.9-.3.3-.1.6-.2.9-.3l2.4-.8.8 1.3-5.7 1.6-.9-1.5"/><path d="m181.4 108.1l4.4-3.5 2.3 2.9-1 .8-1.3-1.7-.7.5 1.1 1.4-1 .8-1.1-1.4-.8.6 1.4 1.8-1 .8-2.3-3"/><path d="m184.6 112.1l4-4 1.5 1.5c.2.2.4.4.5.7.2.2.3.5.3.7 0 .2 0 .5-.1.7-.1.3-.2.5-.5.7-.3.3-.6.5-.9.5-.3.1-.6.1-.9 0l-.7 2.4-1.2-1.2.7-2-.4-.4-1.3 1.3-1-.9m3.2-1.1l.4.4c.4.4.8.5 1.2.1.2-.2.2-.3.2-.5 0-.2-.2-.4-.4-.6l-.4-.4-1 1"/><path d="m188.7 116.1l3.7-4.3 1.1 1-3.7 4.3-1.1-1"/><path d="m191 118l3.3-4.6 3 2.2-.7 1-1.8-1.3-.6.9 1.5 1.1-.7 1-1.5-1.1-1.2 1.7-1.3-.9"/><path d="m196.1 121.4l1-1.7.4-4.1 1.4.8-.2 1.2c0 .2-.1.4-.1.6 0 .2-.1.4-.1.7.2-.2.3-.3.5-.4.2-.1.3-.3.5-.4l.9-.8 1.4.8-3.3 2.4-1 1.7-1.4-.8"/><path d="m520.5 124.9l-2.4-5.1 1.4-.7 1.7 1.7c.1.1.2.2.3.4.1.1.2.3.3.4 0-.2 0-.3-.1-.5 0-.2-.1-.3-.1-.5l-.2-2.4 1.4-.7 2.4 5.1-1.2.6-.7-1.5c-.1-.1-.1-.3-.2-.4-.1-.2-.1-.3-.2-.5-.1-.2-.1-.3-.2-.5-.1-.2-.1-.3-.1-.5l.1 1.4.2 2-.7.3-1.4-1.4-1-1c.1.1.2.3.3.4s.2.3.3.5c.1.2.2.3.3.5.1.2.2.3.2.4l.7 1.5-1.1.5"/><path d="m528.9 120.5c-.3.2-.7.4-1 .4-.3.1-.7 0-1 0-.3-.1-.6-.3-1-.5-.3-.2-.6-.6-.8-.9-.3-.4-.4-.8-.5-1.1-.1-.4-.1-.7 0-1.1.1-.3.2-.6.4-.9.2-.3.5-.5.8-.7.3-.2.7-.3 1-.4.3-.1.7-.1 1 0 .3.1.6.2.9.5.3.2.6.5.8.9.3.4.4.8.5 1.2.1.4.1.7.1 1.1-.1.3-.2.6-.4.9-.2.2-.4.4-.8.6m-.7-1c.3-.2.4-.5.4-.8 0-.4-.1-.8-.4-1.2-.3-.4-.6-.7-.9-.8-.3-.1-.6-.1-.9.1-.3.2-.4.4-.4.8 0 .3.1.7.4 1.2.3.4.6.7.9.9.3 0 .6-.1.9-.2"/><path d="m532.2 118.2l-3.6-4.3 1.2-1 2.6 1.1 1.2.6c-.1-.1-.2-.2-.4-.3-.1-.1-.3-.2-.4-.4-.1-.1-.3-.3-.4-.4-.1-.1-.3-.3-.4-.4l-1.1-1.2 1.1-.9 3.6 4.3-1.2 1-2.6-1.1-1.2-.6c.2.2.5.5.8.7.3.3.5.5.8.8l1.1 1.2-1.1.9"/><path d="m536.7 114.2l-4-4 1-1.1 4 4-1 1.1"/><path d="m539.5 111.3l-3.4-2.8-1 1.1-1-.8 2.9-3.4 1 .8-1 1.1 3.4 2.8-.9 1.2"/><path d="m543.5 106.2c-.2.3-.5.6-.8.8-.3.2-.6.3-.9.4-.3.1-.7 0-1.1-.1-.4-.1-.8-.3-1.1-.5-.4-.3-.7-.5-.9-.8-.2-.3-.4-.6-.5-.9-.1-.3-.1-.7 0-1 .1-.3.2-.7.4-1 .2-.3.5-.6.7-.8.3-.2.6-.3.9-.4.3-.1.7 0 1.1.1s.7.3 1.1.5c.4.3.7.5.9.8.2.3.4.6.5 1 .1.3.1.7 0 1 0 .2-.1.5-.3.9m-1.1-.7c.2-.3.2-.6.1-.9-.1-.3-.4-.6-.9-.9-.4-.3-.8-.4-1.2-.4-.3 0-.6.2-.8.4-.2.3-.2.6-.1.9s.4.6.8.9c.4.3.8.4 1.2.4s.7-.2.9-.4"/><path d="m545.5 102.7l-5.1-2.5.9-1.9c.1-.3.3-.5.5-.7.2-.2.4-.4.6-.5.2-.1.5-.2.7-.2.3 0 .6.1.9.2.4.2.6.4.8.7.2.3.3.6.3.9l2.5-.1-.7 1.5h-2.1l-.3.5 1.7.8-.7 1.3m-2.1-2.7l.2-.5c.3-.5.2-.9-.3-1.1-.2-.1-.4-.1-.6 0s-.3.3-.4.5l-.2.5 1.3.6"/><path d="m519.2 37.2c-.3-.1-.6-.3-.9-.6-.3-.2-.5-.5-.6-.8-.1-.3-.2-.7-.2-1.1 0-.4.1-.8.3-1.3.2-.4.4-.8.7-1.1.3-.3.6-.5.9-.6.3-.1.7-.2 1-.2s.7.1 1 .2c.3.1.6.3.8.6.2.2.4.5.5.8l-1.1.6c-.1-.2-.2-.3-.3-.4-.1-.1-.2-.2-.4-.3-.2-.1-.3-.1-.5-.1-.2 0-.3.1-.5.1-.2.1-.3.2-.4.4-.1.2-.3.4-.4.6-.2.5-.3.9-.2 1.3.1.3.3.6.7.7.2.1.4.1.6.1.2 0 .4-.1.5-.2l.4 1.2c-.3.2-.7.3-1 .3-.2 0-.6 0-.9-.2"/><path d="m523.2 39.2c-.3-.2-.6-.4-.8-.7-.2-.3-.4-.6-.4-.9s-.1-.7 0-1.1c.1-.4.2-.8.4-1.2.2-.4.5-.7.8-1 .3-.3.6-.4.9-.5.3-.1.7-.1 1-.1.3 0 .7.2 1 .4.3.2.6.4.8.7.2.3.4.6.5.9.1.3.1.7 0 1.1-.1.4-.2.8-.4 1.2-.2.4-.5.7-.8 1-.3.3-.6.4-.9.6-.3.1-.7.1-1 .1-.4-.2-.7-.3-1.1-.5m.7-1.1c.3.2.6.2.9 0 .3-.2.6-.5.8-.9.2-.5.4-.8.3-1.2 0-.3-.2-.6-.5-.8-.3-.2-.6-.2-.9 0-.3.2-.6.5-.8.9-.2.5-.4.9-.3 1.2 0 .3.2.6.5.8"/><path d="m526.1 40.7l3.3-4.6 1.2.9-.5 2.8-.3 1.3c.1-.1.2-.3.2-.4.1-.2.2-.3.3-.5.1-.2.2-.3.3-.5s.2-.3.3-.5l1-1.3 1.1.8-3.3 4.6-1.2-.9.5-2.8.3-1.3c-.2.3-.3.6-.5.9-.2.3-.4.6-.6.9l-1 1.3-1.1-.7"/><path d="m530.5 44l3.8-4.2 2.7 2.5-.8.9-1.6-1.5-.7.8 1.4 1.3-.8.9-1.4-1.3-1.4 1.5-1.2-.9"/><path d="m533.7 47.1l4.1-3.8 1 1.1-4.1 3.8-1-1.1"/><path d="m536.9 51c-.2-.3-.4-.6-.5-1-.1-.3-.2-.7-.1-1 0-.4.1-.7.3-1 .2-.3.5-.7.9-.9.4-.3.8-.5 1.1-.6.4-.1.8-.1 1.1-.1.4 0 .7.2 1 .4.3.2.6.4.8.7.3.3.4.7.5 1 .1.3.1.6 0 .9h-1.2c0-.2 0-.4 0-.5 0-.2-.1-.3-.3-.5-.1-.2-.3-.3-.4-.3-.2-.1-.3-.1-.5-.1-.2 0-.4 0-.6.1-.2.1-.4.2-.6.3-.4.3-.7.7-.8 1-.1.4 0 .7.3 1.1 0 .1.1.1.2.2.1.1.1.1.2.1l.6-.5-.5-.7 1-.7 1.3 1.7-2.1 1.6c-.3 0-.6-.2-.9-.3-.3-.3-.6-.6-.8-.9"/><path d="m539.7 55.1c-.4-.7-.5-1.3-.3-1.9s.7-1.1 1.5-1.6l2.5-1.5.8 1.3-2.7 1.6c-.4.3-.7.5-.8.7-.1.2-.1.5.1.7.2.3.4.4.6.4.2 0 .6-.1 1-.4l2.7-1.6.7 1.2-2.5 1.5c-.8.5-1.5.7-2.1.6-.7.1-1.1-.3-1.5-1"/><path d="m541.3 57.8l5.2-2.3.9 2c.1.3.2.6.3.8.1.3.1.5 0 .8 0 .2-.1.5-.3.7-.2.2-.4.4-.7.5-.4.2-.7.2-1 .2-.3 0-.6-.2-.8-.4l-1.5 2-.7-1.5 1.3-1.7-.2-.5-1.7.8-.8-1.4m3.4.1l.2.5c.2.6.6.7 1 .5.2-.1.3-.2.4-.4 0-.2 0-.4-.1-.7l-.2-.5-1.3.6"/><path d="m543.3 62.6l5.4-1.7 1.1 3.5-1.2.4-.6-2.1-.8.3.5 1.8-1.2.4-.5-1.8-1 .3.7 2.1-1.2.4-1.2-3.6"/></g><g stroke-linejoin="round" stroke-linecap="round" stroke-width="4.01" stroke-miterlimit="10"><g fill="none"><path stroke="#ff8231" d="m290.5 182.2h11.1"/><path opacity=".3" stroke="#000" d="m314.7 182.2h35.5"/><g stroke="#322750"><path d="m315 203.8h68.9"/><path d="m1.6 2h88.5"/></g><path opacity=".3" stroke="#000" d="m35.2 24.2h45.7"/><path stroke="#ff8231" d="m94.9 24.2h12.3"/><path stroke="#322750" d="m457.4 254h76.8"/></g><g stroke="#322750"><g fill="#fdb131"><circle cx="441.1" cy="254" r="17.2"/><circle cx="495.9" cy="254" r="17.2"/><circle cx="550.9" cy="254" r="17.2"/><path d="m435.4 255.2l3.4 3.1"/><path d="m446.8 249.7l-8 8.6"/><path d="m490.1 255.2l3.5 3.1"/><path d="m501.6 249.7l-8 8.6"/><path d="m545.2 255.2l3.5 3.1"/><path d="m556.6 249.7l-7.9 8.6"/></g><path d="m202.8 209.9h-154.2c-3.1 0-5.6-2.5-5.6-5.6v-104.6c0-3.1 2.5-5.6 5.6-5.6h154.2c3.1 0 5.6 2.5 5.6 5.6v104.6c0 3.1-2.5 5.6-5.6 5.6z" fill="#644ba6"/></g></g><path d="m-29.5 188.7l14.5-44.7h-29l14.5 44.7" fill="#e95a35" transform="translate(155.2 1.16)"/><path d="m97.1 188.7l-14.5-44.7h-20.3l34.8 44.7" fill="#ff8231" transform="translate(28.531 1.161)"/><path d="m90.8 145l-4.4 13.6c-.4 1.2 0 2.6 1.1 3.4l38.1 27.7-34.8-44.7" fill="#fdb131" transform="translate(.089.256)"/><path d="m61.4-135h20.3l-8.7-26.9c-.4-1.4-2.4-1.4-2.9 0l-8.7 26.9" fill="#e95a35" transform="translate(29.422 280.26)"/><path d="m-121.5 188.7l14.5-44.7h20.3l-34.8 44.7" fill="#ff8231" transform="translate(247.2 1.161)"/><path d="m-85.8 145l4.4 13.6c.4 1.2 0 2.6-1.1 3.4l-38.1 27.7 34.8-44.7" fill="#fdb131" transform="translate(246.31.256)"/><path d="m-176.5-135h-20.3l8.7-26.9c.4-1.4 2.4-1.4 2.9 0l8.7 26.9" fill="#e95a35" transform="translate(336.97 280.26)"/><g stroke="#322750" stroke-linejoin="round" stroke-linecap="round" stroke-miterlimit="10"><g stroke-width="4.01"><g fill="none"><path d="m-29.5 188.7l14.5-44.7h-29l14.5 44.7z" transform="translate(155.2 1.16)"/><path d="m97.1 188.7l-14.5-44.7h-20.3l34.8 44.7z" transform="translate(28.531 1.161)"/><path d="m90.8 145l-4.4 13.6c-.4 1.2 0 2.6 1.1 3.4l38.1 27.7-34.8-44.7z" transform="translate(.089.256)"/><path d="m61.4-135h20.3l-8.7-26.9c-.4-1.4-2.4-1.4-2.9 0l-8.7 26.9z" transform="translate(29.422 280.26)"/><path d="m-121.5 188.7l14.5-44.7h20.3l-34.8 44.7z" transform="translate(247.2 1.161)"/><path d="m-85.8 145l4.4 13.6c.4 1.2 0 2.6-1.1 3.4l-38.1 27.7 34.8-44.7z" transform="translate(246.31.256)"/><path d="m-176.5-135h-20.3l8.7-26.9c.4-1.4 2.4-1.4 2.9 0l8.7 26.9z" transform="translate(336.97 280.26)"/></g><g fill="#4e4876"><path d="m219.4 220.9h-187.4c-3 0-5.5-2.5-5.5-5.5v-3.3c0-1.2 1-2.2 2.2-2.2h194c1.2 0 2.2 1 2.2 2.2v3.3c0 3.1-2.5 5.5-5.5 5.5z"/><path d="m42.7 175.4h-5.5c-6.1 0-11-4.9-11-11v-27.6c0-6.1 4.9-11 11-11h5.5v49.6z"/><path d="m26.2 167.2h-3.7c-4.1 0-7.3-3.3-7.3-7.3v-18.4c0-4.1 3.3-7.3 7.3-7.3h3.7v33z"/><path d="m208.6 125.8h5.5c6.1 0 11 4.9 11 11v27.6c0 6.1-4.9 11-11 11h-5.5v-49.6z"/><path d="m225.2 134.1h3.7c4.1 0 7.3 3.3 7.3 7.3v18.4c0 4.1-3.3 7.3-7.3 7.3h-3.7v-33z"/></g><path d="m223.4 130.8l7.3-20.9c0 0-23.1-51.3-103.6-50.7h-2.8c-80.5-.6-103.6 50.7-103.6 50.7l7.2 20.7" fill="none"/></g><path d="m199.7 77.5c-16.1-10.1-39.4-18.6-72.4-18.3h-2.8c-32.8-.2-56.1 8.2-72.1 18.2" fill="none" stroke-width="12.04"/></g><g fill="#fff"><path d="m164 265.3c-.9 0-1.5-.7-1.5-1.5 0-.9.7-1.5 1.5-1.5.9 0 1.5.7 1.5 1.5 0 .8-.7 1.5-1.5 1.5m0-2.9c-.8 0-1.4.6-1.4 1.4 0 .8.6 1.4 1.4 1.4.8 0 1.4-.6 1.4-1.4-.1-.8-.7-1.4-1.4-1.4m.4 2.2l-.4-.7h-.3v.7h-.2v-1.7h.5c.3 0 .5.2.5.5 0 .2-.2.4-.4.5l.4.7h-.1m-.4-1.5h-.3v.6h.3c.2 0 .3-.1.3-.3.1-.1 0-.3-.3-.3"/><path d="m141.9 262.3c-.1 0-.1 0-.5 0-.5 0-1.4 0-3.2 0h-2.2c-1.8 0-2.7 0-3.2 0-.5 0-.5 0-.5 0-.2 0-.2.1-.2.6v1.6c0 .1 0 .3.2.3s.2-.1.6-.7c.2-.5.6-1.1 3-1.1.3 0 .4.1.4.5v8.3c0 .7 0 1.2-.9 1.2-.4 0-.6.1-.6.3s.2.3.4.3c.3 0 1.8-.1 2.1-.1.6 0 1.5.1 2.1.1.1 0 .4 0 .4-.3 0-.3-.2-.3-.6-.3-.9-.1-.9-.5-.9-1.3v-8.1c0-.5.1-.6.6-.6 2.2.1 2.6.7 2.8 1.1.3.7.4.7.6.7s.2-.2.2-.3v-1.6c-.4-.5-.4-.6-.6-.6"/><path d="m122.7 270.6c-.2 0-.2.1-.5.7-.8 1.5-1.9 1.5-2.7 1.5-1.5 0-1.9-.2-1.9-1.5v-3.1c0-.5.1-.5 1-.5 1.5 0 2 0 2.3 1.4.1.3.2.4.3.4.2 0 .2-.2.2-.4 0-.1-.1-.8-.1-.9 0-.4.1-2.2.1-2.5 0-.2-.1-.3-.2-.3s-.2 0-.3.3c-.3.9-.5 1.3-2.5 1.3-1 0-1-.1-1-.7v-2.6c0-.9.1-1 1-1 2.5 0 2.9.7 3.2 1.1.3.7.4.7.6.7s.2-.2.2-.3v-1.6c0-.4 0-.6-.2-.6-.1 0-.1 0-.5 0-.5 0-1.4 0-3.2 0h-.8c-1.5 0-2.3 0-2.7 0-.1 0-.3 0-.4 0-.1 0-.4 0-.4.3s.3.3.6.3c.9.1.9.5.9 1.3v7.5c0 .7 0 1.2-.9 1.3-.4 0-.6.1-.6.3s.2.3.4.3.3 0 .6 0c.3 0 .7 0 1.5 0h.2c.1 0 .9 0 2 0 1 0 2.3 0 3.2 0 .5 0 .7-.2.7-.5.1-.7.3-1.8.3-2-.2 0-.3-.2-.4-.2"/><path d="m151.7 270.6c-.2 0-.2.1-.5.7-.8 1.5-1.9 1.5-2.7 1.5-1.5 0-1.9-.2-1.9-1.5v-3.1c0-.5.1-.5 1-.5 1.5 0 2 0 2.3 1.4.1.3.2.4.3.4.2 0 .2-.2.2-.4 0-.1-.1-.8-.1-.9 0-.4.1-2.2.1-2.5 0-.2-.1-.3-.2-.3s-.2 0-.3.3c-.3.9-.5 1.3-2.5 1.3-1 0-1-.1-1-.7v-2.6c0-.9.1-1 1-1 2.5 0 2.9.7 3.2 1.1.3.7.4.7.6.7s.2-.2.2-.3v-1.6c0-.4 0-.6-.2-.6-.1 0-.1 0-.5 0-.5 0-1.4 0-3.2 0h-.9c-1.5 0-2.3 0-2.7 0-.1 0-.3 0-.4 0-.1 0-.4 0-.4.3s.3.3.6.3c.9.1.9.5.9 1.3v7.5c0 .7 0 1.2-.9 1.3-.4 0-.6.1-.6.3s.2.3.4.3.3 0 .6 0c.3 0 .7 0 1.5 0h.2c.1 0 .9 0 2 0 1 0 2.3 0 3.2 0 .5 0 .7-.2.7-.5.1-.7.3-1.8.3-2-.1 0-.1-.2-.3-.2"/><path d="m128.3 266.6c-1.5-.6-2.5-1.1-2.5-2.3 0-.7.6-1.7 2-1.7 1.5 0 1.8 1 2 1.7.2.6.3.7.4.7.3 0 .3-.1.3-.5 0-1.6 0-1.8-.2-1.9-.3-.1-1.3-.4-2.4-.4-2.3 0-3.6 1.4-3.6 3.1 0 1.9 1.4 2.6 2.9 3.3 1.3.6 2.5 1.3 2.5 2.7 0 1.5-1.4 2-2.2 2-1.3 0-2.5-1.1-2.9-2.7 0-.2-.1-.3-.2-.3-.2 0-.2.3-.2.3 0 .6 0 1.1.1 1.7 0 .5.1.8.3 1 .3.2 1.2.6 2.6.6 2.4 0 3.9-1.7 3.9-3.7.1-2.3-1.8-3.2-2.8-3.6"/><path d="m85.5 262.1c-3.5 0-6.1 2.5-6.1 5.8 0 3.5 2.9 5.8 6.1 5.8 3.1 0 6-2.5 6-6 0-3.2-2.6-5.6-6-5.6m.1 11c-2.4 0-4.1-2.8-4.1-5.7 0-2.6 1.6-4.9 3.8-4.9 2.8 0 4.1 3 4.1 5.2 0 2.6-1.3 5.4-3.8 5.4"/><path d="m78.3 258c-.2 0-.5.1-.7.1-.7 0-2 .1-4.7.1h-.6c-2.5 0-3.5 0-4.1-.1-.2 0-.5 0-.7-.1-.2 0-.5 0-.5.4s.4.4.9.4c1.3.1 1.3.8 1.3 1.8v10.6c0 .9 0 1.4-1.1 1.5-.5 0-.8.1-.8.4 0 .3.3.3.5.3.4 0 2.2-.1 2.6-.1.7 0 1.9.1 2.6.1.2 0 .5 0 .5-.3 0-.3-.3-.4-.8-.4-1.1-.1-1.1-.7-1.1-1.6v-3.9c0-.7 0-1 .4-1.1.3-.1 1.5-.1 2.2-.1.6 0 2.3 0 2.6 1.4.1.1.2.8.3 1 0 .1.1.4.4.4.3 0 .3-.3.3-.5l-.1-1.2c-.1-.6-.1-1-.1-1.3 0-.4.1-2.1.1-2.5 0-.3-.1-.4-.3-.4-.2 0-.4.2-.4.4-.3 1.3-.7 1.9-2.8 1.9-.4 0-1.9 0-2.3-.1-.3-.1-.4-.1-.4-1.5v-3.6c0-1.2.4-1.3 1.3-1.3 4 0 4.3.5 5.1 2.3.1.2.2.5.5.5.3 0 .3-.4.3-.5v-2.7c0-.2 0-.3-.4-.3"/><path d="m101.9 272.9c-.5-.1-.7-.5-1.1-1.1l-1.7-3.1c-.4-.7-.6-.9-.9-1 .6-.1 2.4-.6 2.4-2.6 0-.6-.3-2.8-3.4-2.8-.5 0-2.9.1-3.4.1-.2 0-1.1-.1-1.3-.1-.6 0-.7 0-.7.3s.3.3.6.3c.9.1.9.5.9 1.3v7.5c0 .7 0 1.2-.9 1.3-.4 0-.6 0-.6.3s.2.2.4.2c.3 0 1.8-.1 2.1-.1.1 0 1.8.1 2.1.1.1 0 .4 0 .4-.2s-.3-.3-.6-.3c-.9-.1-.9-.5-.9-1.3v-3.2c0-.3 0-.4.3-.4.8 0 .9.1 1.3.8l2.2 4c.2.4.3.5.6.5h2.3c.1 0 .3 0 .3-.2s0-.3-.4-.3m-5.6-5.4c-.9 0-.9 0-.9-.7v-3c0-.7 0-1.1.8-1.1 2.2 0 2.5 1.9 2.5 2.5 0 2.3-1.8 2.3-2.4 2.3"/><path d="m113.1 272.9c-.5-.1-.7-.5-1.1-1.1l-1.7-3.1c-.4-.7-.6-.9-.9-1 .6-.1 2.4-.6 2.4-2.6 0-.6-.3-2.8-3.4-2.8-.5 0-2.9.1-3.4.1-.2 0-1.1-.1-1.3-.1-.6 0-.7 0-.7.3s.3.3.6.3c.9.1.9.5.9 1.3v7.5c0 .7 0 1.2-.9 1.3-.4 0-.6 0-.6.3s.2.2.4.2c.3 0 1.8-.1 2.1-.1.1 0 1.8.1 2.1.1.1 0 .4 0 .4-.2s-.3-.3-.6-.3c-.9-.1-.9-.5-.9-1.3v-3.2c0-.3 0-.4.3-.4.8 0 .9.1 1.3.8l2.2 4c.2.4.3.5.6.5h2.3c.1 0 .3 0 .3-.2s-.1-.3-.4-.3m-5.7-5.4c-.9 0-.9 0-.9-.7v-3c0-.7 0-1.1.8-1.1 2.2 0 2.5 1.9 2.5 2.5 0 2.3-1.8 2.3-2.4 2.3"/><path d="m162.9 272.9c-.5-.1-.7-.5-1.1-1.1l-1.7-3.1c-.4-.7-.6-.9-.9-1 .6-.1 2.4-.6 2.4-2.6 0-.6-.3-2.8-3.4-2.8-.5 0-2.9.1-3.4.1-.2 0-1.1-.1-1.3-.1-.6 0-.7 0-.7.3s.3.3.6.3c.9.1.9.5.9 1.3v7.5c0 .7 0 1.2-.9 1.3-.4 0-.6 0-.6.3s.2.2.4.2c.3 0 1.8-.1 2.1-.1.1 0 1.8.1 2.1.1.1 0 .4 0 .4-.2s-.3-.3-.6-.3c-.9-.1-.9-.5-.9-1.3v-3.2c0-.3 0-.4.3-.4.8 0 .9.1 1.3.8l2.2 4c.2.4.3.5.6.5h2.3c.1 0 .3 0 .3-.2s-.1-.3-.4-.3m-5.7-5.4c-.9 0-.9 0-.9-.7v-3c0-.7 0-1.1.8-1.1 2.2 0 2.5 1.9 2.5 2.5 0 2.3-1.8 2.3-2.4 2.3"/><path d="M0,273.5v-9.2h5.5v1.4H1.6v2.6H5v1.4H1.6v3.8H0z"/><path d="m9.7 273.6c-.5 0-.9-.1-1.3-.2-.4-.2-.8-.4-1.1-.7-.3-.3-.6-.7-.7-1.1-.2-.4-.3-1-.3-1.5 0-.6.1-1.1.3-1.5.2-.4.4-.8.7-1.1.3-.3.6-.5 1-.7.4-.2.8-.3 1.2-.3.5 0 .9.1 1.2.2.4.2.7.4.9.7.2.3.4.6.5 1 .1.4.2.8.2 1.3 0 .2 0 .3 0 .4 0 .1 0 .3 0 .3h-4.4c.1.6.3 1.1.7 1.4.4.3.8.5 1.4.5.3 0 .6 0 .8-.1.3-.1.5-.2.8-.4l.5 1c-.3.2-.7.4-1.1.5s-.8.3-1.3.3m-1.8-4.2h3.1c0-.5-.1-1-.3-1.3-.2-.3-.6-.5-1.1-.5-.4 0-.8.1-1.1.4-.4.4-.5.8-.6 1.4"/><path d="m15.4 273.6c-.6 0-1.1-.2-1.5-.6-.4-.4-.6-.9-.6-1.5 0-.4.1-.7.2-1s.4-.5.7-.7c.3-.2.8-.4 1.3-.5.5-.1 1.1-.2 1.8-.3 0-.2 0-.3-.1-.5 0-.2-.1-.3-.2-.4-.1-.1-.2-.2-.4-.3-.2-.1-.4-.1-.6-.1-.3 0-.7.1-1 .2-.3.1-.6.3-.9.5l-.6-1.1c.4-.2.8-.5 1.3-.6.5-.2 1-.3 1.5-.3.9 0 1.5.3 1.9.8.4.5.6 1.2.6 2.2v4.1h-1.3l-.1-.8h-.1c-.3.3-.6.5-1 .7-.1.2-.5.2-.9.2m.5-1.2c.3 0 .5-.1.8-.2.2-.1.5-.3.7-.6v-1.5c-.5.1-.9.1-1.2.2-.3.1-.6.2-.8.3-.2.1-.3.3-.4.4-.1.1-.1.3-.1.5 0 .3.1.5.3.7.2.1.4.2.7.2"/><path d="m23.2 273.6c-.4 0-.7-.1-1-.2-.3-.1-.5-.3-.7-.5-.2-.2-.3-.5-.4-.8-.1-.3-.1-.6-.1-1v-3.3h-1v-1.2l1.1-.1.2-1.9h1.3v1.9h1.8v1.3h-1.8v3.3c0 .8.3 1.2 1 1.2.1 0 .2 0 .4 0 .1 0 .2-.1.3-.1l.3 1.2c-.2.1-.4.1-.6.2-.3 0-.5 0-.8 0"/><path d="m27.7 273.6c-.7 0-1.3-.2-1.6-.7-.3-.5-.5-1.1-.5-2v-4.3h1.6v4.1c0 .6.1 1 .3 1.2s.4.4.8.4c.3 0 .6-.1.8-.2.2-.1.5-.4.7-.7v-4.7h1.6v6.9h-1.3l-.1-1c-.3.4-.6.6-1 .9-.4 0-.8.1-1.3.1"/><path d="m33.3 273.5v-6.9h1.3l.1 1.2h.1c.2-.4.5-.8.9-1 .3-.2.7-.4 1.1-.4.3 0 .6 0 .8.1l-.3 1.4c-.1 0-.2-.1-.3-.1s-.2 0-.4 0c-.3 0-.6.1-.9.3-.3.2-.6.6-.8 1.1v4.2h-1.6z"/><path d="m39.3 265.4c-.3 0-.5-.1-.7-.3-.2-.2-.3-.4-.3-.7 0-.3.1-.5.3-.7.2-.2.4-.3.7-.3.3 0 .5.1.7.3.2.2.3.4.3.7 0 .3-.1.5-.3.7-.1.2-.4.3-.7.3m-.8 8.1v-6.9h1.6v6.9h-1.6"/><path d="m42 273.5v-6.9h1.3l.1.9h.1c.3-.3.6-.6 1-.8.4-.2.8-.3 1.3-.3.7 0 1.3.2 1.6.7.3.5.5 1.1.5 2v4.3h-1.6v-4.1c0-.6-.1-1-.3-1.2-.2-.2-.4-.4-.8-.4-.3 0-.6.1-.8.2-.2.1-.5.4-.8.6v4.8h-1.6z"/><path d="m52.1 276.5c-.4 0-.8 0-1.1-.1-.4-.1-.7-.2-.9-.3-.3-.1-.5-.3-.6-.6-.1-.2-.2-.5-.2-.8 0-.3.1-.6.3-.8.2-.2.4-.5.7-.7v-.1c-.2-.1-.3-.3-.4-.4-.1-.2-.2-.4-.2-.7 0-.3.1-.5.2-.7.2-.2.3-.4.5-.5v-.1c-.2-.2-.4-.4-.6-.7-.2-.3-.3-.7-.3-1.1 0-.4.1-.7.2-1.1.1-.3.3-.6.6-.8.2-.2.5-.4.9-.5.3-.1.7-.2 1-.2.2 0 .4 0 .5 0 .2 0 .3.1.5.1h2.5v1.2h-1.3c.1.1.2.3.3.5.1.2.1.4.1.7 0 .4-.1.7-.2 1-.1.3-.3.5-.6.7-.2.2-.5.3-.8.4-.3.1-.7.2-1 .2-.1 0-.3 0-.5 0-.2 0-.3-.1-.5-.1-.1.1-.2.2-.2.3-.1.1-.1.2-.1.4 0 .2.1.4.2.5.2.1.5.2.9.2h1.2c.8 0 1.5.1 1.9.4.4.3.6.7.6 1.3 0 .3-.1.7-.3 1-.2.3-.4.6-.7.8-.3.2-.7.4-1.2.5-.3.1-.9.1-1.4.1m.2-1c.6 0 1-.1 1.4-.3.3-.2.5-.5.5-.8 0-.3-.1-.5-.3-.5-.2-.1-.5-.1-.9-.1h-1c-.4 0-.7 0-.9-.1-.4.3-.5.6-.5.9 0 .3.2.6.5.7.3.1.7.2 1.2.2m-.1-5.2c.3 0 .6-.1.8-.4.2-.2.4-.6.4-1 0-.4-.1-.8-.3-1-.2-.2-.5-.4-.8-.4s-.6.1-.9.4-.4.6-.4 1c0 .4.1.8.4 1 .1.3.4.4.8.4"/></g></svg>