<svg xmlns="http://www.w3.org/2000/svg" viewBox="0 0 1084 250" enable-background="new 0 0 1084 250"><g fill="#251b3f"><path d="m427.14 249.49h-181.21c-1.657 0-3-1.343-3-3v-243.52c0-1.657 1.343-3 3-3h49.843c1.657 0 3 1.343 3 3v193.88h128.37c1.657 0 3 1.343 3 3v46.639c0 1.656-1.344 2.999-3 2.999m-178.21-6h175.21v-40.639h-128.37c-1.657 0-3-1.343-3-3v-193.88h-43.843v237.52"/><path d="m642.38 249.49h-178.01c-1.657 0-3-1.343-3-3v-46.639c0-1.657 1.343-3 3-3h61.08v-144.95h-57.52c-1.657 0-3-1.343-3-3v-45.926c0-1.657 1.343-3 3-3h170.53c1.657 0 3 1.343 3 3v45.927c0 1.657-1.343 3-3 3h-57.17v144.95h61.08c1.657 0 3 1.343 3 3v46.639c.001 1.656-1.343 2.999-2.999 2.999m-175.01-6h172.01v-40.639h-61.08c-1.657 0-3-1.343-3-3v-150.95c0-1.657 1.343-3 3-3h57.17v-39.926h-164.53v39.927h57.52c1.657 0 3 1.343 3 3v150.95c0 1.657-1.343 3-3 3h-61.08v40.638"/><path d="m801.84 249.49h-54.12c-1.211 0-2.303-.728-2.769-1.846l-73.34-175.87c-.152-.365-.231-.758-.231-1.154v-67.64c0-1.657 1.343-3 3-3h49.843c1.657 0 3 1.343 3 3v60.31l47.547 119.89 47.21-119.88v-60.31c0-1.657 1.343-3 3-3h50.2c1.657 0 3 1.343 3 3v67.64c0 .396-.079.789-.231 1.154l-73.34 175.87c-.467 1.119-1.558 1.846-2.769 1.846m-52.12-6h50.12l72.34-173.47v-64.04h-44.2v57.879c0 .376-.071.749-.208 1.1l-49.49 125.67c-.452 1.146-1.559 1.9-2.792 1.9h-1.424c-1.23 0-2.335-.751-2.789-1.894l-49.842-125.67c-.14-.353-.211-.728-.211-1.106v-57.879h-43.843v64.04l72.34 173.47"/><path d="m1081.1 249.49h-169.82c-1.657 0-3-1.343-3-3v-243.52c0-1.657 1.343-3 3-3h169.82c1.657 0 3 1.343 3 3v45.927c0 1.657-1.343 3-3 3h-116.62v44.2h94.55c1.657 0 3 1.343 3 3v45.22c0 1.657-1.343 3-3 3h-94.55v49.54h116.62c1.657 0 3 1.343 3 3v46.639c0 1.656-1.343 2.999-3 2.999m-166.82-6h163.82v-40.639h-116.62c-1.657 0-3-1.343-3-3v-55.54c0-1.657 1.343-3 3-3h94.55v-39.22h-94.55c-1.657 0-3-1.343-3-3v-50.2c0-1.657 1.343-3 3-3h116.62v-39.926h-163.82v237.52"/></g><path d="m266.89 141.37l-14.811-45.506-29.3-90.26c-1.503-4.615-8.05-4.615-9.606 0l-29.3 90.21h-97.34l-29.3-90.21c-1.503-4.615-8.05-4.615-9.606 0l-29.25 90.21-14.811 45.56c-1.342 4.132.107 8.693 3.649 11.269l127.99 93 127.99-93c3.542-2.575 5.04-7.137 3.703-11.269" fill="#fc6d26" transform="translate(.532.775)"/><path d="m-19.425 245.19l48.672-149.77h-97.34l48.673 149.77" fill="#e24329" transform="translate(155.2 1.16)"/><path d="m107.2 245.19l-48.672-149.77h-68.15l116.82 149.77" fill="#fc6d26" transform="translate(28.531 1.161)"/><path d="m18.8 96.64l-14.811 45.506c-1.342 4.132.107 8.693 3.649 11.269l127.99 93-116.83-149.77" fill="#fca326" transform="translate(.089.256)"/><path d="m-10.515-183.68h68.21l-29.354-90.21c-1.503-4.615-8.05-4.615-9.606 0l-29.25 90.21" fill="#e24329" transform="translate(29.422 280.26)"/><path d="m-111.42 245.19l48.672-149.77h68.21l-116.88 149.77" fill="#fc6d26" transform="translate(247.2 1.161)"/><path d="m6.295 96.64l14.811 45.506c1.342 4.132-.107 8.693-3.649 11.269l-127.99 92.94 116.83-149.72" fill="#fca326" transform="translate(246.31.256)"/><path d="m-84.34-183.68h-68.21l29.3-90.21c1.503-4.615 8.05-4.615 9.606 0l29.3 90.21" fill="#e24329" transform="translate(336.97 280.26)"/><g fill="none" stroke="#251b3f" stroke-linejoin="round" stroke-linecap="round" stroke-width="6" stroke-miterlimit="10"><path d="m-19.707 245.79l48.784-150.12h-97.57l48.784 150.12z" transform="translate(155.2 1.16)"/><path d="m106.92 245.79l-48.784-150.12h-68.31l117.09 150.12z" transform="translate(28.531 1.161)"/><path d="m18.251 96.63l-14.845 45.61c-1.345 4.142.108 8.713 3.657 11.295l128.28 93.21-117.09-150.12z" transform="translate(.089.256)"/><path d="m-11.06-183.37h68.36l-29.421-90.41c-1.506-4.626-8.07-4.626-9.628 0l-29.31 90.41z" transform="translate(29.422 280.26)"/><path d="m-111.71 245.79l48.784-150.12h68.36l-117.15 150.12z" transform="translate(247.2 1.161)"/><path d="m6.281 96.63l14.845 45.61c1.345 4.142-.108 8.713-3.657 11.295l-128.28 93.16 117.09-150.06z" transform="translate(246.31.256)"/><path d="m-84.35-183.37h-68.36l29.367-90.41c1.506-4.626 8.07-4.626 9.628 0l29.367 90.41z" transform="translate(336.97 280.26)"/></g></svg>