<svg width="351px" height="168px" viewBox="0 0 351 168" xmlns="http://www.w3.org/2000/svg"><g fill="none" fill-rule="evenodd"><g transform="translate(0 28.82)"><path d="m119.97 63.68l-6.729-20.679-13.311-41.02c-.682-2.097-3.657-2.097-4.364 0l-13.312 40.991h-44.22l-13.312-40.991c-.682-2.097-3.657-2.097-4.364 0l-13.287 40.991-6.729 20.703c-.61 1.877.049 3.95 1.657 5.121l58.15 42.26 58.15-42.26c1.609-1.171 2.291-3.244 1.682-5.121" fill="#fc6d26"/><path fill="#e24329" d="m60.15 111.03l22.12-68.05h-44.23z"/><path fill="#fc6d26" d="m60.14 111.03l-22.12-68.05h-30.96z"/><path d="m7.05 42.999l-6.729 20.679c-.61 1.877.049 3.95 1.657 5.121l58.15 42.26-53.08-68.06" fill="#fca326"/><path d="m7.06 42.999h30.987l-13.336-40.992c-.683-2.097-3.657-2.097-4.364 0l-13.287 40.992" fill="#e24329"/><path fill="#fc6d26" d="m60.15 111.03l22.12-68.05h30.98z"/><path d="m113.23 42.999l6.729 20.679c.609 1.877-.049 3.95-1.657 5.121l-58.15 42.23 53.07-68.03" fill="#fca326"/><path d="m113.25 42.999h-30.987l13.311-40.992c.683-2.097 3.657-2.097 4.364 0l13.311 40.992" fill="#e24329"/></g><g transform="matrix(0 1-1 0 204.07.232)" fill="#6b4fb9"><path d="m96.39 12.99c-1.909 0-3.462 1.548-3.462 3.452 0 1.903 1.553 3.452 3.462 3.452 1.909 0 3.462-1.549 3.462-3.452 0-1.904-1.553-3.452-3.462-3.452m0 9.181c-3.168 0-5.746-2.571-5.746-5.73 0-3.159 2.578-5.73 5.746-5.73 3.168 0 5.746 2.571 5.746 5.73 0 3.159-2.578 5.73-5.746 5.73m2.042 4.352c.404 0 .785.215.991.573l1.575 2.744c1.064-.363 2.076-.849 3.02-1.452l-1.169-2.938c-.179-.448-.054-.96.31-1.278.934-.814 1.705-1.778 2.292-2.866.229-.425.702-.658 1.18-.586l3.133.483c.378-1.055.628-2.148.747-3.263l-3.03-.92c-.463-.14-.787-.557-.809-1.039-.056-1.234-.33-2.437-.818-3.574-.19-.444-.079-.959.277-1.285l2.332-2.141c-.592-.953-1.292-1.829-2.093-2.617l-2.612 1.791c-.398.272-.927.267-1.318-.017-1-.726-2.117-1.262-3.312-1.591-.466-.128-.801-.536-.835-1.017l-.225-3.153c-1.117-.134-2.24-.133-3.356 0l-.225 3.153c-.034.481-.369.888-.835 1.017-1.195.329-2.31.864-3.312 1.591-.392.284-.921.29-1.318.017l-2.613-1.791c-.801.788-1.501 1.664-2.093 2.617l2.332 2.141c.356.327.467.842.277 1.286-.488 1.136-.763 2.339-.818 3.573-.021.482-.346.898-.809 1.039l-3.03.92c.118 1.115.368 2.207.747 3.263l3.133-.483c.48-.072.951.161 1.18.586.587 1.088 1.359 2.053 2.292 2.866.364.317.488.83.31 1.278l-1.169 2.938c.948.603 1.96 1.089 3.02 1.452l1.575-2.744c.24-.418.719-.641 1.195-.555 1.219.221 2.455.221 3.675 0 .069-.012.137-.018.204-.018m2.028 5.812c-.402 0-.784-.212-.991-.573l-1.642-2.86c-.956.11-1.919.11-2.875 0l-1.641 2.86c-.259.451-.79.67-1.294.533-1.923-.528-3.717-1.389-5.329-2.56-.422-.306-.582-.858-.389-1.341l1.219-3.062c-.683-.677-1.283-1.427-1.793-2.242l-3.265.504c-.517.079-1.019-.2-1.225-.677-.785-1.828-1.228-3.763-1.316-5.751-.023-.519.31-.988.809-1.14l3.161-.959c.105-.954.319-1.89.64-2.796l-2.431-2.232c-.383-.352-.479-.918-.233-1.376.943-1.752 2.184-3.304 3.688-4.612.393-.341.968-.374 1.398-.08l2.723 1.867c.814-.513 1.681-.929 2.59-1.244l.235-3.287c.037-.519.422-.947.934-1.04 1.963-.356 3.953-.356 5.915 0 .512.093.897.521.934 1.04l.235 3.287c.91.315 1.776.731 2.59 1.244l2.723-1.867c.43-.294 1.01-.261 1.398.08 1.504 1.308 2.745 2.86 3.688 4.612.247.458.151 1.024-.233 1.376l-2.431 2.232c.321.906.535 1.841.64 2.796l3.161.959c.499.151.832.62.809 1.14-.088 1.987-.531 3.923-1.316 5.751-.205.478-.707.755-1.225.677l-3.265-.504c-.51.814-1.11 1.565-1.792 2.242l1.219 3.062c.193.483.032 1.035-.39 1.341-1.613 1.171-3.406 2.032-5.329 2.56-.101.027-.203.041-.303.041"/><path d="m71.35 36.615h.004-.004m.961 1.046c-.239 0-.481.024-.723.075-.917.191-1.704.724-2.217 1.501-.512.777-.689 1.704-.496 2.611.398 1.874 2.263 3.076 4.157 2.683 1.894-.394 3.111-2.238 2.713-4.112-.347-1.633-1.81-2.758-3.434-2.758m-.002 9.236c-2.696 0-5.124-1.866-5.7-4.578-.32-1.505-.028-3.044.823-4.334.851-1.289 2.157-2.174 3.68-2.491 3.141-.656 6.238 1.344 6.9 4.454.661 3.109-1.359 6.171-4.503 6.825-.402.084-.804.124-1.2.124m-5.072 7.569c1.067.397 2.173.667 3.304.805l.989-3.02c.151-.462.579-.779 1.07-.793 1.256-.034 2.483-.289 3.648-.758.455-.183.976-.063 1.302.299l2.136 2.376c.98-.577 1.882-1.265 2.696-2.054l-1.775-2.65c-.271-.405-.255-.934.041-1.322.756-.992 1.319-2.1 1.675-3.293.139-.465.559-.794 1.049-.821l3.209-.171c.155-1.117.174-2.244.059-3.366l-3.201-.28c-.489-.042-.897-.385-1.02-.855-.314-1.204-.838-2.331-1.559-3.349-.282-.397-.279-.927.006-1.322l1.866-2.589c-.787-.816-1.665-1.533-2.624-2.144l-2.217 2.301c-.338.352-.864.454-1.312.255-1.147-.508-2.364-.805-3.619-.882-.489-.03-.907-.362-1.041-.829l-.882-3.057c-1.136.1-2.25.331-3.331.693l.437 3.149c.066.481-.181.951-.616 1.174-1.117.57-2.111 1.327-2.953 2.248-.329.36-.852.477-1.305.289l-2.967-1.223c-.63.94-1.141 1.947-1.529 3.01l2.762 1.626c.422.248.64.732.544 1.209-.246 1.219-.268 2.459-.064 3.686.079.479-.156.955-.585 1.189l-2.816 1.532c.351 1.073.827 2.096 1.424 3.057l3.01-1.122c.458-.172.977-.037 1.294.333.81.95 1.777 1.739 2.874 2.348.428.238.658.716.575 1.194l-.545 3.133m4.122 3.175c-.023 0-.047 0-.071-.002-2.02-.123-3.978-.6-5.823-1.419-.482-.214-.757-.724-.667-1.239l.569-3.266c-.82-.526-1.571-1.14-2.247-1.837l-3.135 1.17c-.495.185-1.053.014-1.357-.414-1.162-1.638-2.01-3.451-2.509-5.388-.131-.507.101-1.037.564-1.289l2.936-1.596c-.095-.961-.079-1.926.05-2.884l-2.879-1.695c-.454-.268-.668-.806-.519-1.307.57-1.92 1.477-3.703 2.695-5.3.318-.418.883-.568 1.37-.367l3.092 1.275c.7-.673 1.473-1.262 2.31-1.76l-.456-3.283c-.071-.518.22-1.018.71-1.216 1.872-.756 3.847-1.167 5.869-1.221.53-.013.999.328 1.145.831l.92 3.187c.969.122 1.916.352 2.831.69l2.311-2.399c.365-.379.942-.465 1.404-.21 1.765.977 3.321 2.248 4.624 3.778.34.4.364.977.057 1.403l-1.945 2.699c.507.825.916 1.701 1.219 2.619l3.337.292c.527.046.955.439 1.041.955.329 1.975.293 3.97-.103 5.932-.103.513-.545.891-1.073.919l-3.345.178c-.335.907-.774 1.769-1.31 2.576l1.85 2.763c.292.436.249 1.012-.106 1.4-1.355 1.485-2.953 2.702-4.752 3.619-.469.24-1.045.134-1.395-.257l-2.227-2.476c-.926.306-1.881.504-2.853.593l-1.03 3.153c-.155.475-.602.793-1.102.793"/><path d="m6.865 46.862c-2.524 0-4.577-2.102-4.577-4.686 0-2.584 2.053-4.686 4.577-4.686 2.524 0 4.577 2.102 4.577 4.686 0 2.584-2.053 4.686-4.577 4.686m41.761-5.858h-35c-.547-3.319-3.367-5.858-6.762-5.858-3.786 0-6.865 3.153-6.865 7.03 0 3.876 3.079 7.03 6.865 7.03 3.395 0 6.214-2.539 6.762-5.858h35c.632 0 1.144-.524 1.144-1.172 0-.647-.513-1.172-1.144-1.172"/><path d="m160.67 17.339c-2.524 0-4.577-2.102-4.577-4.686 0-2.584 2.053-4.686 4.577-4.686 2.524 0 4.577 2.102 4.577 4.686 0 2.584-2.053 4.686-4.577 4.686m0-11.715c-3.395 0-6.214 2.539-6.762 5.858h-35c-.632 0-1.144.524-1.144 1.172 0 .647.513 1.172 1.144 1.172h35c.547 3.319 3.367 5.858 6.762 5.858 3.786 0 6.865-3.153 6.865-7.03 0-3.876-3.079-7.03-6.865-7.03"/></g><g transform="translate(233 33)"><path d="m77.49 83.07l-11.979 20.767h-31.32c-2.795.004-5.382-1.483-6.78-3.904l-25.33-44.15c-1.381-2.405-1.381-5.362 0-7.767l9.608-16.863 29.863 51.918h35.894.042" fill="#ffcc40"/><path d="m116.96 55.782l-25.33 44.15c-1.398 2.421-3.985 3.913-6.78 3.908h-19.34l11.979-20.767 17.926-31.15-17.926-31.15h23.624l15.68 27.29c1.418 2.363 1.481 5.3.166 7.725" fill="#da4437"/><path d="m101.12 20.767h-59.56l-17.926 31.15-11.937-20.767 15.722-27.25c1.398-2.417 3.985-3.904 6.78-3.904h50.659c2.795 0 5.382 1.487 6.78 3.904l9.483 16.863" fill="#4284f3"/><path fill="#dfdfdf" d="m77.49 20.767l17.93 31.15-17.97 31.15h-35.895l-17.927-31.15 17.968-31.15z"/><g fill="#fff"><path d="m59.52 36.34c8.614 0 15.597 6.974 15.597 15.575 0 8.602-6.983 15.575-15.597 15.575-8.614 0-15.597-6.974-15.597-15.575 0-8.602 6.983-15.575 15.597-15.575"/><path d="m27.413 4.569c1.398-2.421 3.985-3.908 6.78-3.904h50.659c2.795-.004 5.382 1.483 6.78 3.904l9.483 16.198-9.483-16.863c-1.398-2.417-3.985-3.908-6.78-3.904h-50.659c-2.795-.004-5.382 1.487-6.78 3.904l-15.722 27.25v.332l15.722-26.914" opacity=".2"/></g><g fill-opacity=".2"><path fill="#1a237e" d="m23.63 51.918l17.926-31.15 59.52-.008-.37-.669-59.15.01-17.926 31.15"/><path d="m2.149 48.679l9.649-16.614 11.895 20.767 17.822 30.864 35.591.066.374-.665-35.902-.021-29.88-51.926-9.591 16.614c-.715 1.263-1.061 2.704-.998 4.153.104-1.146.458-2.251 1.04-3.24" fill="#fff"/><path d="m65.886 103.17h-31.693c-2.795.004-5.382-1.483-6.78-3.9l-25.33-44.11c-.607-1.08-.948-2.289-.998-3.53-.062 1.45.283 2.891.998 4.153l25.33 44.15c1.398 2.421 3.985 3.908 6.78 3.904h31.32l.374-.665" fill="#be360c"/><g fill="#3e2723"><path d="m95.79 51.918l-17.923-31.15h-.377l17.93 31.15z"/><path d="m116.96 55.16l-25.33 44.11c-1.398 2.417-3.985 3.904-6.78 3.9h-18.966l-.374.665h19.34c2.795.004 5.382-1.483 6.78-3.904l25.33-44.11c.715-1.263 1.061-2.704.998-4.153-.054 1.225-.395 2.421-.998 3.489"/></g><g fill="#fff"><path d="m101.12 21.433l15.68 27.29c.611 1.08.952 2.293.998 3.53.062-1.45-.283-2.891-.998-4.153l-15.68-27.33h-23.624l.374.665"/><path d="m77.49 83.73l18.3-31.811h-.37l-17.93 31.15-11.98 20.77h.376z"/></g></g></g></g></svg>
