<svg xmlns="http://www.w3.org/2000/svg" viewBox="0 0 586 106" enable-background="new 0 0 586 106"><g fill="#fff"><g fill-rule="evenodd"><path d="m482.62 78.74v-42.644c0-5.887-4.773-10.66-10.66-10.66-5.888 0-10.661 4.773-10.661 10.66v42.644c0 5.887 4.773 10.661 10.661 10.66 5.887.001 10.66-4.772 10.66-10.66"/><path d="m574.5 25.434h-30.15c-5.888 0-10.661 4.773-10.66 10.66 0 5.888 4.773 10.661 10.66 10.661h4.417v31.982c0 5.888 4.774 10.661 10.662 10.661 5.887 0 10.66-4.773 10.66-10.661v-31.982h4.415c5.888 0 10.661-4.773 10.661-10.66.002-5.888-4.771-10.661-10.66-10.661"/><path d="m446.42 89.4c5.888 0 10.661-4.773 10.661-10.661 0-5.887-4.773-10.66-10.661-10.66h-11.404c-5.888 0-10.661-4.773-10.661-10.66 0-5.888 4.773-10.661 10.661-10.661h11.404c5.888 0 10.661-4.773 10.661-10.661 0-5.887-4.773-10.66-10.661-10.66h-11.404c-17.663 0-31.982 14.319-31.982 31.983 0 17.663 14.319 31.982 31.982 31.982h11.404z"/><path d="m490.73 55.794c-2.453 3.473-3.899 7.708-3.899 12.283 0 11.776 9.547 21.322 21.321 21.322 4.576 0 8.811-1.446 12.284-3.899l-29.706-29.706"/><path d="m541.42 71.2l-39.591-39.492c-3.434-3.434-3.391-9.05.096-12.531.437-.437.911-.814 1.407-1.143-2.277 3.454-1.93 8.108 1.067 11.11l21.15 21.1c2.465-3.478 3.919-7.723 3.919-12.31 0-11.775-9.546-21.321-21.322-21.321-11.775 0-21.321 9.546-21.321 21.321 0 5.889 2.387 11.219 6.245 15.08l30.15 30.15 3.122 3.122c4.164 4.164 10.914 4.164 15.08 0 4.163-4.164 4.163-10.914 0-15.08"/></g><path d="m214.47 28.734h-6.508l.03 48.51h26.359v-6h-19.851l-.03-42.508"/><path d="m-717.89-74.56c-1.642 1.702-4.358 3.403-8.06 3.403-4.955 0-6.955-2.448-6.955-5.642 0-4.806 3.343-7.105 10.448-7.105 1.343 0 3.493.149 4.597.358v8.985h-.03m-6.747-29.402c-5.254 0-10.09 1.851-13.851 4.985l2.299 4c2.657-1.552 5.911-3.105 10.597-3.105 5.343 0 7.702 2.746 7.702 7.343v2.358c-1.045-.209-3.194-.358-4.508-.358-11.403 0-17.194 4-17.194 12.358 0 7.493 4.597 11.254 11.552 11.254 4.687 0 9.194-2.149 10.746-5.642l1.194 4.746h4.597v-24.836c-.029-7.849-3.432-13.1-13.13-13.1" transform="translate(977.33 143.28)"/><path d="m-812.94-70.774c-2.448 0-4.597-.299-6.209-1.045v-20.09-2.328c2.209-1.851 4.955-3.194 8.448-3.194 6.299 0 8.717 4.448 8.717 11.642-.001 10.209-3.911 15.02-10.956 15.02m2.746-33.02c-5.821 0-8.955 3.97-8.955 3.97v-6.269l-.03-8.299h-2.925-3.433l.03 47.31c3.194 1.343 7.552 2.06 12.299 2.06 12.149 0 18-7.761 18-21.16-.03-10.596-5.433-17.611-14.986-17.611" transform="translate(1099.77 143.13)"/><path d="m-440.42-109.63c5.761 0 9.493 1.91 11.911 3.851l2.806-4.866c-3.791-3.343-8.926-5.134-14.418-5.134-13.851 0-23.553 8.448-23.553 25.493 0 17.851 10.478 24.806 22.448 24.806 6 0 11.11-1.403 14.448-2.806l-.149-19.08v-2.239-3.761h-17.762v6h11.344l.149 14.478c-1.493.746-4.06 1.343-7.552 1.343-9.612 0-16.06-6.06-16.06-18.806-.031-12.986 6.626-19.284 16.388-19.284" transform="translate(584.04 143.63)"/><path d="m-604.12-113.85h-6.358l.03 8.149v3.343 1.94 3.403 19.403.06c0 7.851 3.403 13.11 13.11 13.11 1.343 0 2.657-.119 3.911-.358v-5.702c-.925.149-1.911.209-2.955.209-5.343 0-7.702-2.746-7.702-7.343v-19.403h10.657v-5.314h-10.657l-.031-11.492" transform="translate(793.57 142.58)"/><path d="m166.92 77.24h6.358v-37.02h-6.358v37.02"/><path d="m166.92 35.12h6.358v-6.358h-6.358v6.358"/></g><path d="m100.9 58.89l-5.647-17.35-11.171-34.411c-.573-1.759-3.069-1.759-3.662 0l-11.17 34.391h-37.11l-11.171-34.391c-.573-1.759-3.069-1.759-3.662 0l-11.15 34.391-5.646 17.37c-.511 1.575.041 3.314 1.391 4.296l48.794 35.455 48.794-35.455c1.35-.982 1.923-2.721 1.412-4.296" fill="#fa6d26" transform="translate(.532.775)"/><path d="m-103.96 98.23l18.556-57.1h-37.11l18.556 57.1" fill="#e04329" transform="translate(155.2 1.16)"/><path d="m22.692 98.23l-18.556-57.1h-25.983l44.539 57.1" fill="#fa6d26" transform="translate(28.531 1.161)"/><path d="m6.588 42.06l-5.647 17.349c-.511 1.575.041 3.314 1.391 4.296l48.794 35.455-44.538-57.1" fill="#faa126" transform="translate(.089.256)"/><path d="m-22.739-237.94h26l-11.191-34.391c-.573-1.759-3.069-1.759-3.662 0l-11.15 34.391" fill="#e04329" transform="translate(29.422 280.26)"/><path d="m-195.96 98.23l18.556-57.1h26l-44.559 57.1" fill="#fa6d26" transform="translate(247.2 1.161)"/><path d="m-150.53 42.06l5.647 17.349c.511 1.575-.041 3.314-1.391 4.296l-48.794 35.435 44.538-57.08" fill="#faa126" transform="translate(246.31.256)"/><path d="m-241.18-237.94h-26l11.17-34.391c.573-1.759 3.069-1.759 3.662 0l11.171 34.391" fill="#e04329" transform="translate(336.97 280.26)"/><path fill="#251b3f" d="m353.84 0h2v106h-2z"/></svg>