<svg xmlns="http://www.w3.org/2000/svg" viewBox="0 0 830 260" enable-background="new 0 0 830 260"><switch><g><g><path d="m501 220h-180c-2.209 0-4-1.791-4-4v-120c0-2.209 1.791-4 4-4h180c2.209 0 4 1.791 4 4v120c0 2.209-1.791 4-4 4m-176-8h172v-112h-172v112" fill="#251b3f"/><path d="m519.67 79.67h-217.33c-1.876 0-3.499-1.303-3.905-3.135-.406-1.831.515-3.698 2.215-4.49l108.67-50.667c1.072-.5 2.309-.5 3.381 0l108.67 50.667c1.7.792 2.621 2.659 2.215 4.49-.407 1.832-2.03 3.135-3.906 3.135m-199.29-8h181.24l-90.62-42.25-90.62 42.25" fill="#251b3f"/><path d="m483 116h-144c-2.209 0-4-1.791-4-4s1.791-4 4-4h144c2.209 0 4 1.791 4 4s-1.791 4-4 4" fill="#251b3f"/><path d="m483 204h-144c-2.209 0-4-1.791-4-4s1.791-4 4-4h144c2.209 0 4 1.791 4 4s-1.791 4-4 4" fill="#251b3f"/><g><path fill="#3d3663" d="m296 216h230v20h-230z"/><path d="m526 240h-230c-2.209 0-4-1.791-4-4v-20c0-2.209 1.791-4 4-4h230c2.209 0 4 1.791 4 4v20c0 2.209-1.791 4-4 4m-226-8h222v-12h-222v12" fill="#251b3f"/></g><g><path fill="#3d3663" d="m296 76h230v20h-230z"/><path d="m526 100h-230c-2.209 0-4-1.791-4-4v-20c0-2.209 1.791-4 4-4h230c2.209 0 4 1.791 4 4v20c0 2.209-1.791 4-4 4m-226-8h222v-12h-222v12" fill="#251b3f"/></g><g><path fill="#3d3663" d="m276 236h270v20h-270z"/><path d="m546 260h-270c-2.209 0-4-1.791-4-4v-20c0-2.209 1.791-4 4-4h270c2.209 0 4 1.791 4 4v20c0 2.209-1.791 4-4 4m-266-8h262v-12h-262v12" fill="#251b3f"/></g><g><path fill="#3d3663" d="m355 112h20v88h-20z"/><path d="m375 204h-20c-2.209 0-4-1.791-4-4v-88c0-2.209 1.791-4 4-4h20c2.209 0 4 1.791 4 4v88c0 2.209-1.791 4-4 4m-16-8h12v-80h-12v80" fill="#251b3f"/></g><g><path fill="#3d3663" d="m401 112h20v88h-20z"/><path d="m421 204h-20c-2.209 0-4-1.791-4-4v-88c0-2.209 1.791-4 4-4h20c2.209 0 4 1.791 4 4v88c0 2.209-1.791 4-4 4m-16-8h12v-80h-12v80" fill="#251b3f"/></g><g><path fill="#3d3663" d="m448 112h20v88h-20z"/><path d="m468 204h-20c-2.209 0-4-1.791-4-4v-88c0-2.209 1.791-4 4-4h20c2.209 0 4 1.791 4 4v88c0 2.209-1.791 4-4 4m-16-8h12v-80h-12v80" fill="#251b3f"/></g><g><circle cx="411" cy="52" r="11" fill="#fca326"/><path d="m411 67c-8.271 0-15-6.729-15-15s6.729-15 15-15 15 6.729 15 15-6.729 15-15 15m0-22c-3.859 0-7 3.141-7 7s3.141 7 7 7 7-3.141 7-7-3.141-7-7-7" fill="#251b3f"/></g><path d="m470 54c-2.209 0-4-1.791-4-4v-46c0-2.209 1.791-4 4-4s4 1.791 4 4v46c0 2.209-1.791 4-4 4" fill="#251b3f"/><path d="m516 41h-46c-2.209 0-4-1.791-4-4v-28c0-2.209 1.791-4 4-4h46c2.209 0 4 1.791 4 4v28c0 2.209-1.791 4-4 4m-42-8h38v-20h-38v20" fill="#251b3f"/><g><path fill="#3d3663" d="m470 9h20v14h-20z"/><path d="m490 27h-20c-2.209 0-4-1.791-4-4v-14c0-2.209 1.791-4 4-4h20c2.209 0 4 1.791 4 4v14c0 2.209-1.791 4-4 4m-16-8h12v-6h-12v6" fill="#251b3f"/></g></g><path d="m121.76 116.06h-14.76c-2.209 0-4-1.791-4-4s1.791-4 4-4h14.76c2.209 0 4 1.791 4 4s-1.791 4-4 4" fill="#251b3f"/><path d="m89 116.06h-84.76c-2.209 0-4-1.791-4-4s1.791-4 4-4h84.76c2.209 0 4 1.791 4 4s-1.791 4-4 4" fill="#fca326"/><path d="m186.33 116.06h-47.09c-2.209 0-4-1.791-4-4s1.791-4 4-4h47.09c2.209 0 4 1.791 4 4s-1.791 4-4 4" opacity=".3"/><path d="m122.16 144.78h-117.52c-2.209 0-4-1.791-4-4s1.791-4 4-4h117.52c2.209 0 4 1.791 4 4s-1.791 4-4 4" fill="#251b3f"/><path d="m231.16 144.78h-91.52c-2.209 0-4-1.791-4-4s1.791-4 4-4h91.52c2.209 0 4 1.791 4 4s-1.792 4-4 4" fill="#251b3f"/><path d="m109.96 174.22h-60.72c-2.209 0-4-1.791-4-4s1.791-4 4-4h60.72c2.209 0 4 1.791 4 4s-1.791 4-4 4" fill="#fc6d26"/><path d="m144.88 174.22h-16.32c-2.209 0-4-1.791-4-4s1.791-4 4-4h16.32c2.209 0 4 1.791 4 4s-1.791 4-4 4" fill="#fc6d26"/><path d="m273.88 174.22h-32.32c-2.209 0-4-1.791-4-4s1.791-4 4-4h32.32c2.209 0 4 1.791 4 4s-1.791 4-4 4" opacity=".3"/><path d="m223.88 174.22h-61.32c-2.209 0-4-1.791-4-4s1.791-4 4-4h61.32c2.209 0 4 1.791 4 4s-1.791 4-4 4" fill="#fca326"/><path d="m89.96 203.22h-28.72c-2.209 0-4-1.791-4-4s1.791-4 4-4h28.72c2.209 0 4 1.791 4 4s-1.791 4-4 4" opacity=".3"/><path d="m273.88 203.22h-165.32c-2.209 0-4-1.791-4-4s1.791-4 4-4h165.32c2.209 0 4 1.791 4 4s-1.791 4-4 4" fill="#fc6d26"/><path d="m756.06 160.25h-39.27c-2.209 0-4-1.791-4-4s1.791-4 4-4h39.27c2.209 0 4 1.791 4 4s-1.791 4-4 4" opacity=".3"/><path d="m646.06 160.25h-39.27c-2.209 0-4-1.791-4-4s1.791-4 4-4h39.27c2.209 0 4 1.791 4 4s-1.791 4-4 4" opacity=".3"/><g><circle cx="572.25" cy="156.25" r="34.25" fill="#fc6d26"/><path d="m572.25 194.5c-21.09 0-38.25-17.16-38.25-38.25s17.16-38.25 38.25-38.25 38.25 17.16 38.25 38.25-17.16 38.25-38.25 38.25m0-68.5c-16.68 0-30.25 13.57-30.25 30.25s13.57 30.25 30.25 30.25 30.25-13.57 30.25-30.25-13.57-30.25-30.25-30.25" fill="#251b3f"/></g><g><circle cx="681.57" cy="156.25" r="34.25" fill="#fc6d26"/><path d="m681.56 194.5c-21.09 0-38.25-17.16-38.25-38.25s17.16-38.25 38.25-38.25 38.25 17.16 38.25 38.25-17.16 38.25-38.25 38.25m0-68.5c-16.68 0-30.25 13.57-30.25 30.25s13.57 30.25 30.25 30.25 30.25-13.57 30.25-30.25-13.57-30.25-30.25-30.25" fill="#251b3f"/></g><g><circle cx="791.45" cy="156.25" r="34.25" fill="#fc6d26"/><path d="m791.45 194.5c-21.09 0-38.25-17.16-38.25-38.25s17.16-38.25 38.25-38.25 38.25 17.16 38.25 38.25-17.16 38.25-38.25 38.25m0-68.5c-16.68 0-30.25 13.57-30.25 30.25s13.57 30.25 30.25 30.25 30.25-13.57 30.25-30.25-13.57-30.25-30.25-30.25" fill="#251b3f"/></g><g><path d="m567.78 168.81c-.954 0-1.912-.339-2.677-1.028l-6.945-6.258c-1.641-1.479-1.772-4.01-.294-5.649 1.479-1.64 4.01-1.773 5.649-.294l6.945 6.258c1.641 1.479 1.772 4.01.294 5.649-.789.876-1.878 1.322-2.972 1.322" fill="#251b3f"/><path d="m567.78 168.81c-.974 0-1.949-.354-2.72-1.067-1.619-1.503-1.714-4.03-.212-5.653l15.889-17.12c1.502-1.619 4.03-1.713 5.653-.212 1.619 1.503 1.714 4.03.212 5.653l-15.889 17.13c-.787.85-1.858 1.279-2.933 1.279" fill="#251b3f"/></g><g><path d="m677.09 168.81c-.954 0-1.912-.339-2.677-1.028l-6.945-6.258c-1.641-1.479-1.772-4.01-.294-5.649 1.48-1.64 4.01-1.773 5.649-.294l6.945 6.258c1.641 1.479 1.772 4.01.294 5.649-.79.876-1.878 1.322-2.972 1.322" fill="#251b3f"/><path d="m677.09 168.81c-.974 0-1.949-.354-2.72-1.067-1.619-1.503-1.714-4.03-.212-5.653l15.889-17.12c1.502-1.619 4.03-1.713 5.653-.212 1.619 1.503 1.714 4.03.212 5.653l-15.889 17.13c-.788.85-1.859 1.279-2.933 1.279" fill="#251b3f"/></g><g><path d="m786.98 168.81c-.954 0-1.912-.339-2.677-1.028l-6.945-6.258c-1.641-1.479-1.772-4.01-.294-5.649 1.48-1.64 4.01-1.773 5.649-.294l6.945 6.258c1.641 1.479 1.772 4.01.294 5.649-.79.876-1.879 1.322-2.972 1.322" fill="#251b3f"/><path d="m786.98 168.81c-.974 0-1.949-.354-2.72-1.067-1.619-1.503-1.714-4.03-.212-5.653l15.888-17.12c1.502-1.619 4.03-1.713 5.653-.212 1.619 1.503 1.714 4.03.212 5.653l-15.888 17.13c-.788.85-1.859 1.279-2.933 1.279" fill="#251b3f"/></g></g></switch></svg>