<svg xmlns="http://www.w3.org/2000/svg" viewBox="0 0 830 381" enable-background="new 0 0 830 381"><switch><g><path d="m-64.09 243.66l32.08-98.7h-64.15l32.08 98.7" fill="#e24329" transform="translate(155.2 1.16)"/><path d="m62.56 243.66l-32.08-98.7h-44.911l76.986 98.7" fill="#fc6d26" transform="translate(28.531 1.161)"/><path d="m13.997 145.9l-9.76 29.988c-.884 2.723.071 5.729 2.405 7.426l84.34 61.28-76.987-98.7" fill="#fca326" transform="translate(.089.256)"/><path d="m-15.324-134.1h44.947l-19.344-59.45c-.99-3.041-5.305-3.041-6.33 0l-19.273 59.45" fill="#e24329" transform="translate(29.422 280.26)"/><path d="m-156.09 243.66l32.08-98.7h44.947l-77.02 98.7" fill="#fc6d26" transform="translate(247.2 1.161)"/><path d="m-78.21 145.9l9.76 29.988c.884 2.723-.071 5.729-2.405 7.426l-84.34 61.25 76.987-98.66" fill="#fca326" transform="translate(246.31.256)"/><path d="m-168.85-134.1h-44.947l19.309-59.45c.99-3.041 5.305-3.041 6.33 0l19.308 59.45" fill="#e24329" transform="translate(336.97 280.26)"/><path d="m181.66 174.91l-9.591-29.466c-.047-.272-.132-.539-.237-.801l-19.231-59.21c-1.026-3.044-3.758-5-6.967-5-.015 0-.029 0-.043 0-3.21.018-5.924 1.997-6.915 5.05l-18.399 56.647h-58.34l-18.434-56.65c-.992-3.047-3.707-5.03-6.917-5.04-3.252-.012-5.978 1.947-7.02 5.05l-19.221 59.29c-.02.053-.045.102-.063.156l-9.761 29.99c-1.428 4.399.122 9.18 3.858 11.897l84.34 61.28c.706.513 1.53.764 2.351.764.603 0 1.197-.151 1.746-.418.019-.009.037-.018.056-.027.017-.008.034-.014.051-.023.045-.023.085-.053.129-.077.12-.068.239-.135.352-.216.014-.01.03-.017.044-.027.005-.004.011-.006.016-.01l84.34-61.25c3.733-2.716 5.283-7.497 3.854-11.9m-125.55-24.75l24.14 74.27-57.934-74.27h33.797m103.79 0l-57.966 74.29 24.14-74.29h33.825m-14.255-60.24l16.957 52.21h-33.914l16.957-52.21m-27.971 60.21l-26.568 81.76-26.569-81.76h53.14m-81.14-60.21l16.989 52.21h-33.915l16.926-52.21m-27.454 90.42c-.926-.673-1.309-1.86-.954-2.952l7.432-22.833 54.899 70.38-61.38-44.599m164.02-.001l-61.38 44.576 54.904-70.36 7.429 22.827c.356 1.095-.027 2.282-.95 2.954" fill="#251b3f"/><path d="m626.22 309c0-2.209-1.791-4-4-4h-68c-2.209 0-4 1.791-4 4s1.791 4 4 4h9.692l-9.406 23.515c-.82 2.051.177 4.379 2.229 5.199.487.195.989.287 1.484.287 1.587 0 3.089-.951 3.715-2.516l10-25c.195-.488.281-.99.28-1.485h12.01v15c0 2.209 1.791 4 4 4s4-1.791 4-4v-15h12.01c0 .495.085.998.28 1.485l10 25c.626 1.564 2.128 2.516 3.715 2.516.495 0 .997-.092 1.484-.287 2.052-.82 3.049-3.148 2.229-5.199l-9.406-23.515h9.692c2.209 0 4-1.791 4-4" opacity=".3" fill="#1c1330"/><g><circle cx="588.22" cy="242" r="10" fill="#fc6d26"/><path d="m588.22 256c-7.72 0-14-6.28-14-14s6.28-14 14-14 14 6.28 14 14-6.28 14-14 14m0-20c-3.309 0-6 2.691-6 6s2.691 6 6 6 6-2.691 6-6-2.692-6-6-6" fill="#251b3f"/></g><g><circle cx="216" cy="180" r="10" fill="#fc6d26"/><path d="m216 194c-7.72 0-14-6.28-14-14s6.28-14 14-14 14 6.28 14 14-6.28 14-14 14m0-20c-3.309 0-6 2.691-6 6s2.691 6 6 6 6-2.691 6-6-2.691-6-6-6" fill="#251b3f"/></g><g><circle cx="688.88" cy="141" r="15" fill="#fca326"/><path d="m688.88 160c-10.477 0-19-8.523-19-19s8.523-19 19-19 19 8.523 19 19-8.524 19-19 19m0-30c-6.07 0-11 4.935-11 11s4.935 11 11 11 11-4.935 11-11-4.935-11-11-11" fill="#251b3f"/></g><path d="m341.22 53.28c-33.37-33.632-77.83-52.37-125.19-52.773-2.251-.017-4.02 1.756-4.03 3.966 0 .019.005.036.005.055 0 .017-.005.033-.005.05v165.42c0 2.209 1.791 4 4 4s4-1.791 4-4v-81.33c22.303 1.338 43.1 10.772 58.933 26.837 16.809 17.05 26.07 39.6 26.07 63.48 0 49.902-40.598 90.5-90.5 90.5-14.856 0-29.604-3.699-42.646-10.698-1.95-1.047-4.371-.312-5.416 1.633-1.045 1.947-.313 4.372 1.633 5.416 14.203 7.621 30.26 11.649 46.43 11.649 54.31 0 98.5-44.19 98.5-98.5 0-25.997-10.07-50.54-28.369-69.1-17.347-17.6-40.17-27.888-64.63-29.23v-32.03c32.978 1.368 63.814 14.986 87.21 38.621 24.369 24.617 37.79 57.2 37.79 91.75 0 71.958-58.54 130.5-130.5 130.5-26 0-51.13-7.661-72.67-22.16-1.834-1.233-4.318-.747-5.552 1.085-1.233 1.833-.748 4.318 1.085 5.552 22.863 15.387 49.53 23.52 77.13 23.52 76.37 0 138.5-62.13 138.5-138.5 0-36.667-14.242-71.25-40.1-97.37-24.909-25.16-57.766-39.629-92.9-41v-32.02c43.72 1.379 84.62 19.16 115.54 50.33 31.895 32.14 49.46 74.79 49.46 120.07 0 94.01-76.49 170.5-170.5 170.5-37.27 0-72.67-11.809-102.37-34.15-1.766-1.326-4.273-.973-5.602.793-1.327 1.766-.973 4.273.793 5.602 31.1 23.391 68.17 35.754 107.18 35.754 98.43 0 178.5-80.07 178.5-178.5 0-47.41-18.389-92.05-51.78-125.71" fill="#251b3f"/><g><circle cx="301" cy="140" r="15" fill="#fc6d26"/><path d="m301 159c-10.477 0-19-8.523-19-19s8.523-19 19-19 19 8.523 19 19-8.523 19-19 19m0-30c-6.06 0-11 4.935-11 11s4.935 11 11 11 11-4.935 11-11-4.935-11-11-11" fill="#251b3f"/></g><g><circle cx="264" cy="303" r="15" fill="#fc6d26"/><path d="m264 322c-10.477 0-19-8.523-19-19s8.523-19 19-19 19 8.523 19 19-8.523 19-19 19m0-30c-6.06 0-11 4.935-11 11s4.935 11 11 11 11-4.935 11-11-4.935-11-11-11" fill="#251b3f"/></g><path d="m616.3 261.14c10.771 4.299 21.99 6.395 33.1 6.395 23.08-.001 45.686-9.04 62.799-26.16 1.562-1.562 1.562-4.095 0-5.656l-55.692-55.692 23.2-23.2c1.562-1.562 1.562-4.095 0-5.656-1.561-1.562-4.096-1.562-5.656 0l-23.2 23.2-58.859-58.859c-1.561-1.562-4.096-1.562-5.656 0-26.1 26.1-33.32 65.65-18.36 99.18-8.343 6.201-13.76 16.13-13.76 27.301 0 11.371 5.617 21.449 14.215 27.625l-42.689 85.37h-27.86c-2.209 0-4 1.791-4 4v18c0 2.209 1.791 4 4 4h180c2.209 0 4-1.791 4-4v-18c0-2.209-1.791-4-4-4h-27.19l-42.688-85.38c3.236-2.323 6.05-5.194 8.299-8.484m-27.07-137.07l114.41 114.41c-22.768 20.674-54.896 26.664-83.63 15.523 1.415-3.736 2.196-7.781 2.196-12.01 0-18.748-15.252-34-34-34-4.707 0-9.193.963-13.274 2.699-12.646-29.14-7.02-63.11 14.291-86.63m-27.02 117.93c0-14.337 11.663-26 26-26s26 11.663 26 26-11.663 26-26 26-26-11.663-26-26m111.67 131h-172v-10h26.333 120 25.667v10m-32.14-18h-107.06l40.751-81.5c3.948 1.607 8.259 2.5 12.777 2.5 4.518 0 8.83-.893 12.778-2.5l40.751 81.5" fill="#1c1330"/><path d="m807.07 22.531c-11.941-11.941-26.71-19.688-41.585-21.812-15.309-2.189-28.912 1.795-38.32 11.206-9.412 9.412-13.392 23.02-11.206 38.32.181 1.268.418 2.535.68 3.8-6.962.388-13.197 2.813-17.833 7.448-6.644 6.644-9.05 16.564-6.774 27.937 2.156 10.783 8.33 21.707 17.382 30.759s19.976 15.226 30.759 17.382c2.795.559 5.502.835 8.095.835 7.955 0 14.831-2.601 19.841-7.61 4.593-4.592 7.158-10.753 7.554-17.876 3.947.81 7.866 1.238 11.688 1.238 11.668 0 22.432-3.821 30.33-11.72 19.11-19.11 14.347-54.955-10.608-79.91m-44.627 102.6c-4.69 4.689-12.05 6.314-20.703 4.586-9.25-1.85-18.721-7.245-26.667-15.192-7.947-7.946-13.343-17.417-15.192-26.667-1.732-8.662-.104-16.02 4.585-20.704 3.604-3.604 8.611-5.324 14.289-5.327 3.667 10.812 10.191 21.18 19.01 30 8.995 8.995 19.403 15.353 29.933 18.928.031 5.897-1.762 10.876-5.259 14.373m-34.644-61.996c8.06 2.213 16.614 7.201 24.04 14.625 7.186 7.185 12.276 15.617 14.554 24-8.05-3.369-15.965-8.602-22.96-15.598-6.887-6.885-12.203-14.778-15.632-23.03m84.22 33.638c-8.997 8.997-22.676 11.422-36.809 7.931-.096-.612-.201-1.226-.325-1.847-2.156-10.783-8.33-21.707-17.382-30.759-9.859-9.859-21.64-15.886-32.558-17.6-.442-1.792-.802-3.588-1.059-5.386-1.821-12.746 1.354-23.943 8.941-31.529 6.189-6.19 14.78-9.443 24.656-9.443 2.229 0 4.525.166 6.873.502 13.171 1.881 26.331 8.823 37.05 19.548 21.834 21.832 26.592 52.599 10.608 68.58" opacity=".3" fill="#251b3f"/></g></switch></svg>
