<svg xmlns="http://www.w3.org/2000/svg" viewBox="0 0 32 32" enable-background="new 0 0 32 32"><path d="m13 2h18c.553 0 1-.447 1-1s-.447-1-1-1h-18c-.553 0-1 .447-1 1s.447 1 1 1"/><path d="m13 6h12c.553 0 1-.447 1-1s-.447-1-1-1h-12c-.553 0-1 .447-1 1s.447 1 1 1"/><path d="m31 13h-18c-.553 0-1 .447-1 1s.447 1 1 1h18c.553 0 1-.447 1-1s-.447-1-1-1"/><path d="m13 19h12c.553 0 1-.447 1-1s-.447-1-1-1h-12c-.553 0-1 .447-1 1s.447 1 1 1"/><path d="m31 26h-18c-.553 0-1 .447-1 1s.447 1 1 1h18c.553 0 1-.447 1-1s-.447-1-1-1"/><path d="m25 30h-12c-.553 0-1 .447-1 1s.447 1 1 1h12c.553 0 1-.447 1-1s-.447-1-1-1"/><path d="m6.336.253l-3.836 3.409-.836-.742c-.413-.369-1.044-.331-1.411.083-.367.413-.33 1.045.083 1.411l1.5 1.333c.189.169.427.253.664.253s.475-.084.664-.253l4.5-4c.413-.366.45-.999.083-1.411-.367-.413-.999-.451-1.411-.083"/><path d="m6.336 13.253l-3.836 3.409-.836-.742c-.413-.369-1.044-.332-1.411.083-.367.413-.33 1.045.083 1.411l1.5 1.333c.189.169.427.253.664.253s.475-.084.664-.253l4.5-4c.413-.366.45-.999.083-1.411-.367-.414-.999-.451-1.411-.083"/><path d="m6.336 26.25l-3.836 3.409-.836-.742c-.413-.368-1.044-.332-1.411.083-.367.413-.33 1.045.083 1.411l1.5 1.333c.189.169.427.253.664.253s.475-.084.664-.253l4.5-4c.413-.366.45-.999.083-1.411-.367-.414-.999-.451-1.411-.083"/></svg>
