<svg xmlns="http://www.w3.org/2000/svg" viewBox="0 0 32 32" enable-background="new 0 0 32 32"><path d="m11.292 12.899c-.277-.479-.89-.644-1.366-.364l-4.49 2.6c-.309.178-.499.509-.499.865s.19.687.499.865l4.49 2.6c.157.092.33.135.5.135.345 0 .681-.179.866-.499.277-.478.113-1.09-.364-1.366l-2.995-1.735 2.995-1.734c.477-.277.641-.889.364-1.367"/><path d="m26.564 15.13l-4.49-2.6c-.478-.278-1.09-.114-1.366.364-.277.478-.113 1.09.364 1.366l2.995 1.735-2.995 1.734c-.478.276-.642.889-.364 1.366.186.32.521.499.866.499.17 0 .343-.043.5-.135l4.49-2.6c.309-.179.499-.509.499-.865s-.19-.686-.499-.864"/><path d="m18.329 9.158c-.521-.183-1.091.102-1.269.624l-4.01 11.791c-.179.522.102 1.091.624 1.269.106.037.216.054.322.054.416 0 .805-.262.946-.678l4.01-11.791c.18-.523-.1-1.091-.623-1.269"/><path d="M28.631,0H3.369C1.512,0,0,1.445,0,3.222v25.557C0,30.555,1.512,32,3.369,32h25.262
		C30.488,32,32,30.555,32,28.778V3.222C32,1.445,30.488,0,28.631,0z M30,28.778C30,29.452,29.386,30,28.631,30H3.369
		C2.614,30,2,29.452,2,28.778V3.222C2,2.548,2.614,2,3.369,2h25.262C29.386,2,30,2.548,30,3.222V28.778z"/></svg>
