<svg xmlns="http://www.w3.org/2000/svg" viewBox="0 0 96 80" enable-background="new 0 0 96 80"><g fill="#fff"><path d="m44.497 80c-22.16 0-40.18-17.945-40.18-40 0-22.06 18.03-39.999 40.18-39.999 22.16 0 40.18 17.944 40.18 39.999 0 22.06-18.02 40-40.18 40m0-79.01c-21.61 0-39.19 17.5-39.19 39.01 0 21.512 17.581 39.01 39.19 39.01 21.609 0 39.19-17.501 39.19-39.01 0-21.511-17.58-39.01-39.19-39.01"/><path d="m53.45 60.792c16.908 6.932 14.03-10.594 4.973-24.06-5.121-7.62-11.8-13.967-16.01-17.03-14.02-10.198-22.578-3.961-12.731 16.04 3.189 6.479 7.286 10.851 10.487 14.973 2.443 3.146 7.203 4.722 5.526 6.215-1.89 1.685-6.465-5.742-6.465-5.742-3.381-4.06-6.602-8.394-9.921-14.338-7.585-13.583-6.49-27.445 7.236-21.405 11.649 5.126 22.776 19.505 27.25 29.716 2.074 4.733 7.659 23.354-10.243 15.83"/></g><path d="m.723 51.712c7.46-4.951 14.531-8.148 26.567-12.11 16.91-5.565 29.64-9.307 45.26-17.13 7.604-3.809 18.843-11.184 23.374-18.317-1.297 2.643-5.238 7.923-7.06 10.198-21.19 26.436-66.32 24.938-87.84 37.631" fill="#ccc"/><g fill="#fff"><path d="m11.544 32.389c6.794.053 6.157-.013 6.237.066.12 0 5.45 9.148 5.45 9.227 0 .04-.04-3.25-.04-7.366 0-.475-1.312-1.861-1.272-1.861 1.949 0 4.496.04 4.496.04-.954 1.109-1.145 1.017-1.153 1.704-.028 2.204-.052 6.277 0 10.852.007.685.517.951 1.352 2.138h-6.246c-2.029-3.366-5.747-9.681-5.729-9.663.029.03-.08 3.961.039 7.13.04 1.046.518 1.386 1.393 2.336 0 0 1.01-.027-4.894.04 1.79-.951 1.553-2.139 1.552-2.178-.065-4.377-.013-8.119-.013-10.535 0-.396-.027-.356-1.26-1.861"/><path d="m32.879 39.15c.572-1.983 1.062-3.755 1.293-4.911.041-.199-.437-.911-1.193-1.624l-.054-.109c3.645.011 7.453.031 7.453.031.995 2.416 3.262 9.188 4.973 13.347.453 1.1 1.233 1.307 1.233 1.307-3.104-.04-8.863-.014-8.832-.04 1.551-1.385 1.352-1.385.676-3.406h-4.854c-.995 2.298.31 3.376.477 3.367-1.105.057-4.854 0-4.854 0 2.029-1.426 1.91-1.862 1.91-1.862.559-1.976 1.206-4.14 1.772-6.1h1.99c-.428 1.366-.856 2.732-.856 2.732h3.86l-2.149-5.466c0 0-.428 1.367-.856 2.733h-1.989"/><path d="m66.22 39.35c.572-1.982 1.062-3.755 1.294-4.91.039-.198-.437-.911-1.193-1.624l-.054-.11c3.646.011 7.453.031 7.453.031.995 2.416 3.262 9.187 4.973 13.347.454 1.1 1.234 1.307 1.234 1.307-3.103-.039-8.863-.013-8.832-.04 1.551-1.386 1.352-1.386.676-3.405h-4.854c-.994 2.298.31 3.375.477 3.366-1.104.057-4.854 0-4.854 0 2.029-1.425 1.91-1.861 1.91-1.861.558-1.978 1.204-4.142 1.77-6.101h1.99c-.427 1.365-.855 2.732-.855 2.732h3.859l-2.148-5.465c0 0-.428 1.366-.856 2.732h-1.99"/><path d="m59.954 36.1c-.08-2.813 0-3.723 0-3.723-1.232.99-.611.865-3.7.356-8.912-1.465-9.589 6.812-4.734 8.674 4.066 1.559 5.505 1.865 4.893 3.326-.199.476-3.899 2.218-7.719-1.306l.079 4.91c.477-.49 1.791-1.387 1.791-1.387.04 0 4.139 1.8 7.838-.079 5.69-2.892 2.85-7.57-3.222-9.426-5.05-1.544-.279-5.149 4.735-1.307"/></g><path d="m96 4.299c-6.05 17.878-30.28 31.682-50.672 44.864-12.305 7.952-24.52 17.11-32.93 24.896-2.218 2.054.452-.767-.398.099 11.736-13.466 25.24-21.485 32.696-26.535 12.618-8.541 19.793-10.693 41.558-30.672" fill="#ccc"/><g fill="#fff"><path d="m53.45 60.792c16.908 6.932 14.03-10.594 4.973-24.06-5.121-7.62-11.439-13.664-16.01-17.03-5.344-3.932-5.868-4.257-5.868-4.257 11.935 5.643 22.776 19.505 27.25 29.716 2.074 4.733 7.659 23.354-10.243 15.83"/><path d="m45.04 4.083c0 .176-.146.321-.324.321s-.322-.146-.322-.321c0-.177.145-.322.322-.322.178 0 .324.146.324.322"/><path d="m47.28 8.959c0 .217-.18.397-.398.397-.218 0-.398-.179-.398-.397 0-.217.18-.396.398-.396.218.001.398.179.398.396"/><path d="m53.1 16.93c0 .217-.181.396-.399.396-.217 0-.397-.179-.397-.396 0-.217.18-.396.397-.396.218 0 .399.178.399.396"/><path d="m43.751 11.707c0 .177-.146.322-.324.322-.177 0-.323-.146-.323-.322 0-.176.146-.321.323-.321.178-.001.324.144.324.321"/><path d="m47.23 13.539c0 .176-.146.322-.322.322-.177 0-.323-.145-.323-.322s.146-.322.323-.322c.176 0 .322.145.322.322"/><path d="m42.706 8.415c0 .217-.179.396-.398.396-.218 0-.398-.179-.398-.396 0-.217.18-.396.398-.396.219 0 .398.179.398.396"/><path d="m37.435 11.608c0 .176-.146.322-.323.322-.178 0-.323-.146-.323-.322 0-.176.146-.322.323-.322.177 0 .323.146.323.322"/><path d="m38.38 12.251c0 .176-.146.321-.323.321-.178 0-.324-.145-.324-.321 0-.177.146-.322.324-.322.177.001.323.146.323.322"/><path d="m39.33 12.895c0 .177-.146.322-.323.322-.178 0-.323-.145-.323-.322 0-.177.146-.322.323-.322.177 0 .323.146.323.322"/><path d="m37.883 14.13c0 .177-.146.322-.323.322-.178 0-.323-.145-.323-.322s.146-.322.323-.322c.176.001.323.146.323.322"/><path d="m30.373 19.38c0 .176-.146.322-.323.322s-.323-.146-.323-.322c0-.176.146-.322.323-.322.177 0 .323.146.323.322"/><path d="m31.766 21.06c0 .176-.146.321-.324.321-.178 0-.323-.146-.323-.321 0-.176.146-.322.323-.322.178 0 .324.146.324.322"/><path d="m30.671 48.24c0 .176-.145.322-.322.322-.177 0-.322-.146-.322-.322 0-.176.145-.322.322-.322.177.001.322.146.322.322"/><path d="m30.871 55.742c0 .218-.18.396-.398.396-.218 0-.398-.178-.398-.396 0-.217.179-.396.398-.396.218 0 .398.179.398.396"/><path d="m26.593 59.58c0 .176-.146.322-.323.322-.178 0-.323-.146-.323-.322s.146-.322.323-.322c.177 0 .323.146.323.322"/><path d="m21.471 61.14c0 .216-.179.396-.397.396-.218 0-.398-.179-.398-.396 0-.218.18-.396.398-.396.218 0 .397.179.397.396"/><path d="m20.427 57.673c0 .217-.18.396-.398.396-.218 0-.398-.178-.398-.396 0-.216.18-.397.398-.397.218 0 .398.181.398.397"/><path d="m19.83 59.876c0 .177-.146.322-.324.322-.177 0-.323-.145-.323-.322 0-.176.146-.321.323-.321.178 0 .324.145.324.321"/><path d="m16 58.05c0 .176-.146.322-.323.322-.178 0-.323-.145-.323-.322 0-.176.145-.321.323-.321.177-.001.323.144.323.321"/><path d="m29.379 64.23c0 .176-.146.321-.323.321-.177 0-.323-.146-.323-.321 0-.176.146-.322.323-.322.177-.001.323.145.323.322"/><path d="m33.407 61.29c0 .218-.18.395-.398.395-.218 0-.398-.177-.398-.395 0-.217.179-.397.398-.397.218.001.398.18.398.397"/><path d="m33.854 65.07c0 .177-.146.323-.323.323-.177 0-.323-.146-.323-.323 0-.176.146-.322.323-.322.177 0 .323.146.323.322"/><path d="m50.42 61.46c0 .175-.146.321-.323.321-.178 0-.323-.145-.323-.321 0-.178.145-.322.323-.322.176 0 .323.144.323.322"/><path d="m42.706 64.18c0 .175-.146.321-.323.321-.177 0-.324-.145-.324-.321 0-.176.146-.323.324-.323.177.001.323.147.323.323"/><path d="m63.45 68.09c0 .176-.146.321-.323.321-.177 0-.323-.145-.323-.321 0-.176.146-.322.323-.322.177 0 .323.146.323.322"/><path d="m65.14 52.871c0 .217-.18.396-.398.396-.218 0-.399-.179-.399-.396 0-.217.18-.397.399-.397.219 0 .398.18.398.397"/><path d="m61.952 55.02c0 .177-.145.321-.321.321-.178 0-.323-.144-.323-.321 0-.176.145-.322.323-.322.175-.001.321.145.321.322"/><path d="m65.09 55.643c0 .218-.181.397-.398.397-.218 0-.399-.179-.399-.397 0-.217.181-.396.399-.396.217 0 .398.179.398.396"/><path d="m61.952 59.48c0 .178-.145.322-.321.322-.178 0-.323-.145-.323-.322 0-.175.145-.321.323-.321.175 0 .321.146.321.321"/><path d="m70.06 50.718c0 .176-.145.322-.322.322-.177 0-.324-.146-.324-.322 0-.177.146-.322.324-.322.177 0 .322.144.322.322"/><path d="m70.855 52.673c0 .217-.179.397-.397.397-.218 0-.399-.179-.399-.397 0-.217.18-.396.399-.396.218.001.397.179.397.396"/><path d="m76.43 55c0 .218-.181.395-.399.395-.218 0-.397-.177-.397-.395 0-.217.179-.396.397-.396.218 0 .399.179.399.396"/><path d="m70.76 59.13c0 .176-.147.321-.324.321-.177 0-.323-.145-.323-.321 0-.177.146-.322.323-.322.177 0 .324.145.324.322"/><path d="m74.34 55.767c0 .176-.146.322-.323.322-.177 0-.323-.145-.323-.322s.146-.322.323-.322c.177 0 .323.145.323.322"/><path d="m73.69 60.965c0 .177-.147.323-.323.323-.177 0-.324-.145-.324-.323 0-.175.147-.322.324-.322.176 0 .323.146.323.322"/><path d="m75.19 52.33c0 .272-.225.495-.498.495-.274 0-.497-.223-.497-.495 0-.271.223-.495.497-.495s.498.223.498.495"/><path d="m74.7 50.816l-.15 1.364-1.36.15 1.37.14.15 1.416.148-1.416 1.342-.17-1.354-.12-.146-1.364"/><path d="m71.71 60.941c0 .271-.225.495-.498.495-.272 0-.497-.223-.497-.495 0-.272.225-.496.497-.496.273 0 .498.223.498.496"/><path d="m71.22 59.43l-.15 1.362-1.36.149 1.37.149.15 1.41.15-1.41 1.34-.175-1.36-.123-.14-1.362"/><path d="m34.614 20.05c0 .272-.225.495-.498.495-.273 0-.497-.224-.497-.495s.225-.495.497-.495c.272-.001.498.223.498.495"/><path d="m34.12 18.539l-.154 1.361-1.355.15 1.367.15.152 1.408.15-1.408 1.34-.18-1.35-.12-.15-1.361"/><path d="m53.11 8.07c0 .271-.225.495-.498.495-.272 0-.497-.224-.497-.495 0-.272.226-.496.497-.496.273 0 .498.224.498.496"/><path d="m52.615 6.559l-.145 1.361-1.36.15 1.37.147.149 1.411.149-1.411 1.342-.177-1.354-.12-.151-1.361"/><path d="m30.634 68.862c0 .272-.224.495-.497.495-.273 0-.497-.223-.497-.495 0-.272.224-.496.497-.496.273 0 .497.224.497.496"/><path d="m30.14 67.35l-.152 1.36-1.355.152 1.367.148.15 1.41.15-1.41 1.342-.173-1.352-.127-.15-1.36"/></g><g fill="#ccc"><path d="m5.768 48.593c-2.172 1.059-4.117 2.105-5.768 3.127l1 .363c1.444-.885 3.177-1.81 5-2.624"/><path d="m17.235 68.6c-1.985 1.726-4.04 3.57-6.096 5.502l-.091 1.365c1.885-1.935 4.199-4.02 6.872-6.24"/></g></svg>