<svg xmlns="http://www.w3.org/2000/svg" viewBox="0 0 32 32" enable-background="new 0 0 32 32"><path d="m18.8 9c0-1.544-1.256-2.8-2.8-2.8s-2.8 1.256-2.8 2.8 1.256 2.8 2.8 2.8 2.8-1.256 2.8-2.8m-4 0c0-.662.538-1.2 1.2-1.2s1.2.538 1.2 1.2-.538 1.2-1.2 1.2-1.2-.538-1.2-1.2"/><path d="m28.22 26.15c-.616 0-1.208.144-1.74.414-1.094-1.519-2.864-2.451-4.778-2.451-.975 0-1.918.238-2.76.688l-1.443-5.799h1.413l1.246 3.349c.147.391.52.651.938.651h1.653c.468 0 .873-.324.976-.78l1.253-5.562c.078-.402-.024-.832-.308-1.188l-2.521-2.876c.072-.977.111-1.839.118-2.631-.008-4.04-1.134-6.836-3.886-9.661-.188-.193-.447-.302-.716-.302h-3.151c-.27 0-.528.109-.717.303-2.752 2.825-3.878 5.624-3.886 9.672.007.783.046 1.644.118 2.62l-2.553 2.915c-.251.316-.354.746-.27 1.177l1.247 5.533c.104.456.509.78.977.78h1.653c.418 0 .791-.26.938-.651l1.246-3.349h1.228l-1.442 5.799c-.842-.449-1.785-.688-2.76-.688-1.914 0-3.685.933-4.778 2.451-.532-.271-1.124-.414-1.74-.414-2.306 0-3.778 2.873-3.778 4.852 0 .553.447 1 1 1h30c.553 0 1-.447 1-1 0-1.979-1.472-4.852-3.777-4.852m-15.648-9.148c-.418 0-.791.26-.938.651l-1.245 3.349h-.159l-1-4.453 2.586-2.951c.179-.204.267-.471.245-.741-.091-1.104-.139-2.052-.146-2.887.007-3.407.835-5.609 3.03-7.968h2.294c2.196 2.359 3.02 4.561 3.03 7.957-.007.846-.055 1.794-.146 2.897-.021.271.066.537.245.741l2.586 2.949-1 4.456h-.159l-1.246-3.349c-.147-.391-.52-.651-.938-.651h-3.387-.445-3.202m-10.4 13c.308-.947.972-1.852 1.603-1.852.506 0 .979.201 1.331.566.231.24.566.353.894.29.328-.058.605-.274.74-.578.624-1.406 2.02-2.315 3.554-2.315 1 0 1.956.384 2.684 1.08.258.247.628.338.97.238.343-.1.606-.374.692-.72l1.357-5.461 1.358 5.462c.086.346.35.62.692.72.343.098.712.008.97-.238.728-.696 1.681-1.08 2.684-1.08 1.534 0 2.93.909 3.554 2.315.135.304.412.521.74.578.325.062.662-.051.894-.29.353-.365.825-.566 1.331-.566.631 0 1.295.904 1.603 1.852h-27.651z"/></svg>
