<svg xmlns="http://www.w3.org/2000/svg" viewBox="0 0 32 32" enable-background="new 0 0 32 32"><path d="M28.631,0H3.369C1.512,0,0,1.445,0,3.222v7.557C0,12.555,1.512,14,3.369,14h25.262
		C30.488,14,32,12.555,32,10.778V3.222C32,1.445,30.488,0,28.631,0z M30,10.778C30,11.452,29.386,12,28.631,12H3.369
		C2.614,12,2,11.452,2,10.778V3.222C2,2.548,2.614,2,3.369,2h25.262C29.386,2,30,2.548,30,3.222V10.778z"/><path d="m27 6h-17.18c-.414-1.161-1.514-2-2.816-2-1.654 0-3 1.346-3 3s1.346 3 3 3c1.302 0 2.402-.839 2.816-2h17.18c.553 0 1-.447 1-1s-.447-1-1-1m-20 2c-.552 0-1-.448-1-1s.448-1 1-1 1 .448 1 1-.448 1-1 1"/><path d="M28.631,18H3.369C1.512,18,0,19.445,0,21.222v7.557C0,30.555,1.512,32,3.369,32h25.262
		C30.488,32,32,30.555,32,28.778v-7.557C32,19.445,30.488,18,28.631,18z M30,28.778C30,29.452,29.386,30,28.631,30H3.369
		C2.614,30,2,29.452,2,28.778v-7.557C2,20.548,2.614,20,3.369,20h25.262C29.386,20,30,20.548,30,21.222V28.778z"/><path d="m27 24h-17.18c-.414-1.161-1.514-2-2.816-2-1.654 0-3 1.346-3 3s1.346 3 3 3c1.302 0 2.402-.839 2.816-2h17.18c.553 0 1-.447 1-1s-.447-1-1-1m-20 2c-.552 0-1-.448-1-1s.448-1 1-1 1 .448 1 1-.448 1-1 1"/></svg>
