<svg xmlns="http://www.w3.org/2000/svg" viewBox="0 0 74 80" enable-background="new 0 0 74 80"><g fill="#fff"><path d="m36.943 43.44l-15.05-20.598v14.979h6.02v14.79h-27.848v-14.79h5.644v-23.03h-5.644v-14.791h21.875l15.08 20.781 15.11-20.781h21.87v14.791h-5.64v23.03h5.64v14.79h-27.85v-14.79h6.02v-14.979z"/><path d="m53.691 75.37v.53c-.899.056-.899.308-.924 2.183v.742c-.772.475-1.874 1.162-3.823 1.162-3.418 0-5.05-2.576-5.05-5.164 0-3.162 2.152-5.219 4.849-5.219 1.697 0 2.672.629 3.482 1.119l.519-.588.075 3.092-.406.071c-.202-.588-.506-1.266-1.253-2.01-.329-.322-.962-.733-1.963-.733-1.734 0-3.176 1.455-3.176 4.297 0 2.267 1.126 4.212 3.063 4.212 1.101 0 1.671-.77 1.722-.826.177-.266.217-.503.202-.938-.044-1.258-.215-1.286-1.316-1.399v-.53h3.999zm9.802 4.366v-.53c.817-.043 1.126-.056 1.238-.617.14-.658.183-6.521.196-7.544-.548-.502-.773-.601-1.434-.657v-.531h2.982c.83 1.175 1.013 1.441 2.476 3.246l2.771 3.415v-4.422c-.015-1.568-.056-1.652-1.632-1.708v-.531h3.91v.531c-1.083.013-1.181.239-1.196 1.847l-.141 7.628h-.59l-.886-1.106c-.451-.561-.9-1.119-1.351-1.666l-3.924-4.816v5.124c0 1.596.113 1.652 1.632 1.806v.53h-4.051zm-54.809 0v-.53c1.253-.084 1.253-.14 1.267-1.973v-4.969l-3.474 7.6h-.873l-3.189-7.7-.074 5.81c0 .965.114 1.148 1.169 1.232v.53h-3.447v-.53c.802-.043 1.111-.155 1.167-.826.028-.267.071-1.093.086-1.638l.14-4.142c.015-.322.015-.798.015-1.148 0-.979-.197-1.049-1.083-1.063v-.531h3.121l3.095 7.5 3.403-7.5h3.02v.588c-1.181.07-1.194.196-1.181 1.735v4.072c0 .673.014 1.511.056 2.02.056.728.337.868 1.125.939v.53h-4.346zm5.32 0v-.53c.971-.127 1.167-.239 1.181-1.275v-1.259-4c-.014-2.056-.014-2.112-1.181-2.281v-.531h4.123v.531c-1.167.112-1.167.168-1.167 2.281v3.988c0 .35.014 1.455.042 1.75.071.601.352.742 1.126.798v.53h-4.124m25.479.001v-.53c.971-.127 1.169-.239 1.182-1.275v-1.259-4c-.014-2.056-.014-2.112-1.182-2.281v-.531h4.128v.531c-1.167.112-1.167.168-1.167 2.281v3.988c0 .35.014 1.455.043 1.75.07.601.352.742 1.125.798v.53h-4.129m-11.32.001v-.53c1.125-.099 1.139-.338 1.139-1.288.014-.35.014-.7.014-1.05v-4.143c0-.642 0-1.287-.042-1.596-.056-.586-.338-.672-1.111-.741v-.531h4.25v.531c-.829.084-1.138.112-1.237.657-.071.322-.085 1.051-.085 1.638v1.365c.858.042 1.456.07 2.285.07.844 0 1.512-.028 2.356-.07v-1.658c-.014-1.805-.028-1.876-1.378-2v-.531h4.307v.531c-1.155.14-1.155.155-1.155 2.029v4.171c0 .39.015 1.637.056 1.93.07.519.366.617 1.099.687v.53h-4.307v-.53c.998-.113 1.265-.14 1.35-.826.028-.279.028-.657.028-1.372v-1.812c-.788-.028-1.442-.068-2.257-.068-.859 0-1.527.026-2.384.068v1.812c.014 2.059.042 2.059 1.322 2.199v.53h-4.25zm-.735-2.196c-.44.713-1.495 2.462-4.235 2.462-2.992 0-4.93-2.197-4.93-5.079 0-2.673 1.644-5.305 4.997-5.305 1.763 0 2.699.742 3.273 1.19l.682-.616.053 2.995-.442.084c-.172-.574-.427-1.036-1.068-1.736-.308-.322-1.042-.964-2.083-.964-1.79 0-3.207 1.454-3.207 4.02 0 2.17 1.162 4.214 3.46 4.214 1.736 0 2.388-.965 2.909-1.707l.591.447m30.827-5.734l-1.46 4.095h2.853l-1.393-4.095m.888 7.93v-.53c.675-.043 1.196-.099 1.196-.645 0-.195-.056-.406-.113-.588l-.297-1.01h-3.501l-.308.854c-.071.211-.127.407-.127.617 0 .7.746.742 1.35.77v.53h-4.093v-.53c1.041-.043 1.379-.253 1.759-1.288l2.685-7.333-.154-.239c1.154-.378 1.477-.545 1.97-.909.197.672.224.756.45 1.455l2.195 6.717c.393 1.191.576 1.483 1.63 1.597v.53h-4.642z"/><path d="m33.2 64.62c.009 1.498.009 1.701.8 1.718v.362h-2.742v-.362c.707-.055.781-.166.79-.869.01-.268.01-.572.01-.841v-2.362c0-.786-.01-1.063-.037-1.276-.046-.36-.223-.426-.763-.471v-.352l2.975.011c1.617 0 2.129.768 2.129 1.674 0 .629-.391 1.448-1.292 1.726l1.163 2.01c.418.768.641.945 1.171 1.018v.222c-.14.009-.278.019-.428.019-1.236 0-1.748-.426-2.268-1.526l-.363-.769c-.39-.823-.519-.773-1.143-.782l-.002.848m.001-1.422c.176.036.427.064.613.064.747.002 1.312-.581 1.339-1.103.041-.758-.344-1.414-1.553-1.414-.167 0-.269.009-.399.037v2.416m-2.71 3.502c0-.471.083-1.249.139-1.693h-.317c-.223 1.166-.882 1.11-1.831 1.11-.874 0-1.05-.231-1.05-.657v-1.827h.707c.809 0 1.041.068 1.041.801h.316v-2.156h-.316c-.065.582-.186.772-1.033.772h-.714v-2.301h.809c1.114 0 1.516.084 1.663.972h.297l-.037-1.554h-4.676v.351c.474.047.678.074.744.379.046.204.056.925.056 1.184v2.296c0 .176-.01.962-.019 1.119-.019.713-.103.777-.781.842v.361h5m23.822.001v-.351c.512-.056.707-.075.837-.204.149-.148.149-.314.158-1.027v-1.147l-1.748-2.692c-.474-.703-.483-.722-1.116-.759v-.36h3.421v.36c-.687.019-.995.037-.995.351 0 .176.122.38.288.658l1.01 1.636.928-1.627c.168-.323.26-.518.26-.667 0-.314-.269-.323-.725-.351v-.36h2.566v.36c-.66.019-.855.213-1.608 1.434l-1.023 1.702v1.361c0 1.184.009 1.276.986 1.332v.351h-3.234m-29.11-6.531v.351c-.632.093-.717.269-1.255 1.563l-1.999 4.747h-.354l-1.794-4.82c-.446-1.24-.501-1.387-1.162-1.49v-.351h3.115v.351c-.53.019-.874.037-.874.417 0 .185.047.342.223.888l1.144 3.321 1.339-3.432c.085-.232.195-.527.195-.694 0-.472-.464-.49-.873-.5v-.351h2.295m-22.246 0v.351c-.873.065-.873.093-.882 1.481v1.535c0 .796.015 1.478.437 2.091.335.488.906.55 1.194.55.939 0 1.455-.487 1.678-1.254.186-.611.195-1.758.195-2.516 0-.241 0-1.018-.009-1.231-.037-.592-.344-.61-.93-.657v-.351h2.502v.351c-.614-.009-.745.13-.782.777-.009.158-.083 1.972-.092 2.248-.019.499-.046.99-.158 1.462-.447 1.758-2.167 1.85-2.622 1.85-.363 0-1.107-.055-1.721-.462-.976-.657-.985-1.638-.985-2.693v-1.479c-.01-.704-.01-1.018-.028-1.184-.056-.406-.261-.49-.753-.518v-.351h2.956m44.591 6.531v-.277c.605-.009.772-.231.772-.75v-4.811h-.818c-.745 0-1.237-.028-1.292 1.138h-.345l.056-1.832h5.969l.056 1.832h-.345c-.055-1.166-.548-1.138-1.291-1.138h-.819v4.811c0 .519.168.741.772.75v.277h-2.716m-10.127-2.036l.335-.036c.364 1.063.969 1.637 1.955 1.637.7 0 1.313-.296 1.313-.999 0-.74-.717-1.035-1.032-1.166-.261-.101-.541-.185-.801-.286-.54-.194-1.555-.61-1.555-1.878 0-1.222.969-1.905 2.095-1.905.437 0 .95.091 1.508.443l.399-.286.214 1.942-.325.065c-.112-.426-.196-.623-.456-.968-.316-.407-.763-.595-1.283-.595-.699 0-1.108.333-1.108.85 0 .777.772 1.036 1.508 1.277.372.12.679.222.949.379.521.306.949.88.949 1.666 0 1.128-.931 2.062-2.317 2.062-.894 0-1.443-.351-1.704-.517l-.547-.398-.097-1.287m-29.784 2.036v-.351c.54-.028.744-.038.818-.408.092-.435.121-4.31.131-4.986-.363-.332-.512-.398-.949-.435v-.351h1.971c.549.777.669.953 1.636 2.146l1.832 2.257v-2.922c-.01-1.037-.038-1.093-1.079-1.13v-.351h2.585v.351c-.716.01-.781.157-.79 1.221l-.092 5.04h-.391l-.586-.731c-.297-.371-.595-.741-.892-1.101l-2.594-3.184v3.387c0 1.055.074 1.092 1.078 1.194v.351h-2.678m34.877 0v-.351c.641-.084.772-.157.781-.843v-.832-2.645c-.009-1.361-.009-1.397-.781-1.509v-.351h2.725v.351c-.772.075-.772.112-.772 1.509v2.635c0 .232.01.963.028 1.158.046.397.233.489.744.527v.351h-2.725m-27.23 0v-.351c.641-.084.772-.157.781-.843v-.832-2.645c-.009-1.361-.009-1.397-.781-1.509v-.351h2.727v.351c-.772.075-.772.112-.772 1.509v2.635c0 .232.01.963.028 1.158.046.397.233.489.744.527v.351h-2.727m53.734-.314v.36h2.718v-.36c-.678-.065-.762-.131-.781-.842l.005-1.865h.726c.735 0 1.125.07 1.172.799h.316v-2.155h-.317c-.038.704-.233.774-1.032.774h-.865l.001-2.263c.233-.027.363-.037.782-.037 1.282 0 1.696-.004 1.868 1.018h.326l-.103-1.601h-4.815v.352c.473.046.678.074.743.379.047.204.056.925.056 1.184l-.001 2.295c0 .175-.009.962-.019 1.119-.019.712-.102.778-.78.843m-3.597-.075c.371-.01.894-.194 1.299-.807.464-.709.559-1.36.533-2.21-.026-.842-.263-1.565-.745-2.078-.212-.225-.628-.555-1.175-.539-.546 0-.952.343-1.157.574-.466.527-.679 1.258-.679 2.1 0 .852.115 1.498.601 2.193.424.601.951.767 1.323.767m3.278-2.84c0 2.258-1.546 3.442-3.286 3.442-1.908 0-3.401-1.369-3.401-3.451 0-1.786 1.201-3.395 3.313-3.386 1.988.009 3.374 1.415 3.374 3.395"/></g></svg>