<svg xmlns="http://www.w3.org/2000/svg" viewBox="0 0 110 80" enable-background="new 0 0 110 80"><g fill="#fff"><path d="m40.35 71.71h2.847v8.02h-2.847z"/><path d="m32.637 71.71l-3.438 8.02h3.116l.403-1.296h3.062l.43 1.296h3.089l-3.438-8.02h-3.224m.726 4.914l.886-2.7.94 2.7h-1.826"/><path d="m9.885 77.65h2.552v2.079h-2.552z"/><path d="m6.528 76.22c0 .729-.161 1.215-.483 1.539-.323.297-.752.486-1.343.486-.752 0-1.343-.27-1.666-.81-.134-.216-.214-.621-.214-1.161v-4.563h-2.822v5.13c0 1.215.456 2.079 1.343 2.538.672.405 1.8.621 3.358.621 2.202 0 3.572-.486 4.217-1.485.296-.486.483-1.404.483-2.619v-4.185h-2.873v4.509"/><path d="m23.773 77.65h2.606v2.079h-2.606z"/><path d="m21.839 75.22l-2.632-.622c-.86-.189-1.289-.351-1.424-.54l-.108-.27c0-.405.403-.621 1.263-.621.806 0 1.262.216 1.397.702l2.767-.135c-.215-1.026-.806-1.701-1.746-2.025l-2.417-.297c-1.558 0-2.686.297-3.358.973-.403.513-.618.999-.618 1.593 0 .945.537 1.62 1.558 2.025l3.411.756c.403.135.564.324.564.621 0 .243-.134.405-.403.594l-.967.189c-1.075 0-1.665-.324-1.746-.918l-2.82.108c.134.756.403 1.296.833 1.701.645.594 1.719.891 3.277.891 2.149 0 3.546-.486 4.163-1.432.269-.405.403-.864.403-1.404 0-.945-.457-1.566-1.397-1.889"/><path d="m88.24 75.76c.349-.405.537-.891.537-1.485 0-.891-.322-1.566-.94-2.025-.483-.351-1.209-.54-2.23-.54h-5.829v8.02h2.82v-2.916h1.558l1.612 2.916h3.143l-1.961-3.186c.564-.189 1.021-.459 1.29-.783m-3.492-.756h-2.149v-1.431h2.418c.322 0 .537.027.726.162l.161.54c-.001.513-.404.729-1.156.729"/><path d="m97.03 77.65c-.51.378-1.048.54-1.611.54-.779 0-1.397-.27-1.8-.81-.349-.432-.537-.972-.537-1.647 0-.81.215-1.458.725-1.89.43-.405 1.021-.648 1.693-.648.483 0 .94.135 1.343.378.322.216.537.486.672.837l2.632-.486c-.564-1.674-2.176-2.511-4.728-2.511-2.02 0-3.465.54-4.352 1.566-.618.756-.94 1.674-.94 2.754 0 2.025.994 3.321 2.955 3.942l2.282.324c2.203 0 3.707-.621 4.486-1.89l.43-.999-2.686-.27c-.135.324-.296.594-.564.81"/><path d="m104.36 77.894v-1.264h5.1v-1.814h-5.1v-1.296h5.56v-1.81h-8.38v8.02h8.46v-1.836z"/><path d="m53.778 75.76c.295-.405.483-.891.483-1.485 0-.891-.322-1.566-.887-2.025-.51-.351-1.209-.54-2.256-.54h-5.802v8.02h2.848v-2.916h1.477l1.665 2.916h3.143l-2.01-3.186c.564-.135 1.02-.405 1.343-.783m-3.466-.756h-2.149v-1.431h2.337c.349 0 .591.027.725.162.134.135.215.324.215.54 0 .513-.348.729-1.128.729"/><path d="m75.75 71.9c-.752-.324-1.746-.459-2.955-.459-2.095.054-3.572.648-4.432 1.863-.483.675-.725 1.512-.725 2.511 0 .945.269 1.701.779 2.376.832 1.215 2.31 1.809 4.459 1.809 1.666 0 2.955-.351 3.815-1.08l.94-1.08c.403-.621.591-1.35.591-2.16-.001-1.836-.807-3.105-2.472-3.78m-1.665 6.075c-.296.189-.672.27-1.101.27-.806 0-1.451-.27-1.854-.81-.403-.486-.564-1.026-.564-1.701 0-.675.161-1.215.537-1.674.43-.594 1.074-.864 1.88-.864.833.054 1.477.378 1.88.945.296.459.43.999.43 1.593 0 1.107-.403 1.836-1.208 2.241"/><path d="m58.828 79.73h2.822v-2.889h4.51v-1.781h-4.51v-1.54h4.91v-1.81h-7.732z"/><path d="m24.579 26.486l6.124 12.824 8.707 6.346h11.413z"/><path d="m48.674 52.41l-4.294-3.11-7.18 5.24 8.734 6.344z"/><path d="m61.51 61.829l-7.17-5.239-7.14 5.239 7.14 5.211z"/><path d="m85.64 23.301l6.15-12.825-36.64 26.784 2.2 6.695z"/><path d="m86.58 0l-8.95 18.711 13.3-9.671z"/><path d="m51.39 43.955l2.2-6.695-36.667-26.784 6.127 12.825z"/><path d="m50.37 50.57c0 1.08.403 2.025 1.155 2.781.779.783 1.719 1.188 2.821 1.188 1.129 0 2.068-.405 2.821-1.188.779-.756 1.182-1.701 1.182-2.781 0-1.134-.403-2.079-1.182-2.835-.752-.756-1.692-1.161-2.821-1.161-1.101 0-2.041.405-2.821 1.161-.752.756-1.155 1.702-1.155 2.835"/><path d="m71.51 54.54l-7.18-5.24-4.24 3.11 2.714 8.474z"/><path d="m22.16 0l-4.351 9.04 13.271 9.671z"/><path d="m84.13 26.486l-26.24 19.17h11.412l8.68-6.346z"/></g></svg>