<svg xmlns="http://www.w3.org/2000/svg" viewBox="0 0 60 80" enable-background="new 0 0 60 80"><g fill="#fff"><path d="m56.33 3.695l-.039-.039-.039-.039-.039-.04-.039-.039-.038-.038-.039-.039-.039-.039-.039-.039-.039-.04-.039-.039-.039-.039h-.078l-.039-.039h-.719-.043-50.09c-.489 0-.932.175-1.278.518-.338.348-.536.787-.536 1.282v47.21c0 .487.198.931.536 1.277.346.339.789.514 1.278.514h50.09c.489 0 .909-.175 1.27-.514.346-.347.517-.79.517-1.277v-47.26c0-.494-.171-.934-.517-1.281h.039m-11.681 45.798l-14.05-10.155-13.809 9.913 5.288-16.271-14.15-9.987h17.305l5.434-16.247 5.341 16.246h17.16l-13.707 9.818 5.185 16.683"/><path d="m55.02 61.805l-50.05.046h-.735l-.039.039h-.078l-.039.039h-.039l-.039.039-.039.039-.04.039-.039.039-.039.039-.039.039-.038.039-.039.039-.038.039-.039.039c-.338.343-.537.787-.537 1.277v11.409c0 .494.198.911.536 1.254.346.366.789.541 1.278.541h50.09c.489 0 .909-.175 1.27-.541.346-.343.517-.759.517-1.254v-11.409c0-.491-.171-.934-.517-1.277-.361-.343-.78-.514-1.27-.514m-42.68 11.198l-1.467 1.452h-2.549l-1.515-1.452v-8.426h2.272v7.994h.981v-7.982h2.278v8.414m3.03 1.441h-2.276v-1.92h2.276v1.92m6.416-6.705h-2.272v-1.324h-.932v2.01l1.665.148 1.539 1.421v2.994l-1.49 1.452h-2.502l-1.466-1.452v-1.717h2.253v1.3h.932v-2.06l-1.617-.121-1.569-1.429v-2.967l1.467-1.421h2.405l1.587 1.421v1.742m3.034 6.705h-2.248v-1.92h2.248v1.92m4.874 0l-.194-1.842h-1.302l-.194 1.842h-2.203l1.372-9.867h3.279l1.441 9.867h-2.199m8.542-5.868l-1.15.954 1.15.962v3.952h-2.199v-3.952h-.959v3.952h-2.253v-9.867h3.896l1.515 1.421v2.578m8.201 5.868h-2.055v-6.249h-.101l-.952 6.261h-.827l-.959-6.261h-.097v6.261h-2.059v-9.878h2.645l.808 4.758h.194l.738-4.758h2.665v9.866m5.143-4.155v4.155h-2.276v-4.155l-1.934-5.712h2.23l.804 3.559h.05l.835-3.559h2.249l-1.958 5.712"/><path d="m58.56 1.46l-.093-.086-.089-.09-.097-.086-.093-.078-.097-.086-.097-.07-.101-.074-.097-.074-.105-.066-.101-.066-.101-.062-.101-.058-.11-.054-.105-.051-.109-.055-.105-.043-.113-.047-.113-.043-.112-.037-.109-.039-.117-.039-.113-.039-.117-.039-.12-.039h-.117l-.122-.039h-.746-50.09c-1.375 0-2.548.491-3.5 1.468-.983.958-1.472 2.138-1.472 3.516v47.21c0 1.374.489 2.55 1.472 3.512.952.977 2.125 1.445 3.5 1.445h50.09c1.367 0 2.521-.467 3.5-1.445.975-.961 1.441-2.137 1.441-3.512v-47.22c0-1.378-.466-2.558-1.441-3.516m-.121 50.723c0 .931-.346 1.744-1.01 2.406-.637.662-1.441.977-2.373.977h-50.09c-.956 0-1.736-.315-2.397-.977s-.983-1.476-.983-2.406v-47.21c0-.934.322-1.725.983-2.41.66-.662 1.441-.985 2.397-.985h50.02c.932 0 1.736.323 2.373.985l.058.066.062.066.058.066.054.062.054.07.054.066.047.07.05.066.043.074.043.07.043.07.039.07.039.074.039.07.039.074.039.074.039.078.039.078.039.074.039.078.039.078.039.078.039.083.039.078v47.884"/><path d="m28.691 66.65l-.342 4.1h.979l-.415-4.1z"/><path d="m55.06 58.651h-50.84-.119l-.121.039-.117.039-.117.039-.117.039-.117.039-.111.038-.113.039-.109.039-.113.043-.109.047-.109.051-.109.054-.101.058-.107.059-.101.062-.101.062-.097.07-.101.066-.097.074-.097.078-.097.078-.093.082-.093.09-.093.086-.085.09c-.986.969-1.475 2.144-1.475 3.519v11.409c0 1.351.489 2.531 1.472 3.485.952.981 2.125 1.475 3.5 1.475h50.09c1.367 0 2.521-.495 3.5-1.476.975-.954 1.441-2.133 1.441-3.485v-11.408c0-1.374-.466-2.55-1.441-3.508-.979-.982-2.133-1.472-3.5-1.472m3.332 16.4c0 .935-.346 1.721-1.01 2.379-.637.666-1.441.985-2.373.985h-50.09c-.956 0-1.736-.319-2.397-.985-.66-.658-.983-1.445-.983-2.379v-12.09l.039-.078v-.082l.039-.078.04-.078.04-.082.039-.074.039-.078.039-.078.039-.074.039-.074.04-.07.039-.074.039-.074.039-.074.043-.066.047-.07.047-.066.047-.07.054-.066.054-.062.051-.07.058-.062.058-.062.066-.066c.66-.662 1.441-.977 2.396-.977h50.04c.932 0 1.736.315 2.373.977.66.662 1.01 1.472 1.01 2.406v11.408z"/><path d="m35.08 66.4h.959v2.235h-.959z"/><path d="m34.641 24.614l-3.991-12.172-4.059 12.172h-12.98l10.576 7.486-3.937 12.168 10.356-7.407 10.5 7.606-3.867-12.493 10.257-7.359h-12.855zm3.87 16.418l-7.933-5.744-7.785 5.592 2.962-9.175-7.983-5.646h9.794l3.059-9.174 3.01 9.174h9.69l-7.758 5.549 2.94 9.424"/></g></svg>