<svg xmlns="http://www.w3.org/2000/svg" viewBox="0 0 128 70" enable-background="new 0 0 128 70"><g fill="#fff"><path d="m124.28 15.463c.484-.181.874-.445 1.159-.805.513-.627.762-1.383.747-2.266-.007-.357-.11-.762-.308-1.214-.081-.182-.187-.381-.319-.597-.278-.459-.674-.924-1.187-1.396-.154-.148-.473-.408-.956-.779-.41-.31-.718-.58-.923-.809-.542-.6-.813-1.19-.813-1.771 0-.371.081-.681.242-.931.198-.31.487-.465.868-.465.359 0 .634.105.824.314.264.29.425.695.484 1.214l1.989-.334c-.051-.553-.203-1.042-.456-1.467-.253-.425-.585-.755-.995-.992-.527-.304-1.161-.455-1.901-.455-.769 0-1.414.179-1.934.537-.843.594-1.264 1.469-1.264 2.623 0 .641.154 1.236.462 1.782.286.486.773 1.036 1.462 1.651.821.716 1.436 1.252 1.846 1.61.52.52.78 1.043.78 1.57 0 .365-.07.645-.209.84-.271.398-.634.604-1.088.618-.322.013-.608-.105-.857-.356-.337-.332-.55-.868-.637-1.607l-1.978.132c.044.675.196 1.273.456 1.796.26.523.614.936 1.06 1.24.192.133.408.234.635.319h-6.06l-4.511 20.04-4.56-20.04h-2.308l-2.249-12.593h-2.803l-2.281 12.593h-11.773l-4.511 43.2-4.907-43.15-5.83-.002v-12.642h-2.067v12.64h-4.569l8.203 54.44h18.242l6.692-47.26 8.476 24.596v22.517h12.442v-22.568l10.905-31.772h-3.718m-23.914-9.688l.755 4.998h-1.51l.755-4.998m-1.07 6.86h2.128l.463 2.828h-3.071l.48-2.828"/><path d="m58.46 15.414l-1.515-5.4c.747-.621 1.12-1.379 1.12-2.277 0 0 0-.248 0-.941s0-.9 0-.9c0-.917-.24-1.632-.721-2.145-.547-.587-1.405-.88-2.573-.88h-3.305v12.582l-9.932.054v-1.881h-3.833v-3.46h2.8v-1.923h-2.8v-3.46h3.833v-1.922h-5.908v12.688h4.874l-7.876 54.45h12.343l1.041-10.05h7.287l1.041 10.05h12.392l-8.129-54.59h-.139m-4.897-10.591h1.264c.799 0 1.198.368 1.198 1.103v1.607c0 .304-.116.563-.349.779-.233.216-.516.324-.848.324h-1.264v-3.813zm-6.613 45.03l2.479-23.705 2.974 23.705h-5.453m6.613-34.417v-5.05h1.209l1.425 5.04-2.634.014"/><path d="m25.836 2.899h-2.641l-1.714 9.115-1.785-9.115h-2.749v12.688h1.837v26.568l-8.296-26.568h-3.25l-2.128-12.678h-2.635l-2.159 12.678h-.316v54.38h11.818v-26.922l8.218 26.845h10.488v-54.31h-4.688v-12.688m-22.05 2.914l.709 4.998h-1.419l.71-4.998m-1.472 9.774l.465-2.914h2l.448 2.914h-2.913m16.552 0v-7.953l1.855 7.953h-1.855m3.395 0l1.662-7.973v7.973h-1.662"/><path d="m83.59 15.711c.902 0 1.676-.293 2.322-.88.645-.587.968-1.302.968-2.145v-1.771h-2.157v1.75c0 .304-.117.562-.352.774-.235.212-.517.319-.847.319s-.611-.106-.842-.319c-.231-.213-.347-.471-.347-.774v-6.941c0-.304.116-.563.347-.779.231-.216.512-.324.842-.324s.612.108.847.324c.235.216.352.476.352.779v1.487h2.157v-1.447c0-.836-.319-1.551-.957-2.145-.638-.593-1.416-.89-2.333-.89-.91 0-1.687.295-2.333.885-.646.59-.968 1.307-.968 2.15v6.921c0 .836.321 1.55.963 2.14.641.591 1.421.886 2.338.886"/><path d="m108.99 7.469l2.43-1.763 2.43 1.763-.93-2.853 2.44-1.763h-3.01l-.93-2.853-.92 2.853h-3.01l2.43 1.763z"/></g></svg>