<svg enable-background="new 0 0 574 469" height="469" viewBox="0 0 574 469" width="574" xmlns="http://www.w3.org/2000/svg" xmlns:xlink="http://www.w3.org/1999/xlink"><filter id="a" filterUnits="userSpaceOnUse" height="177.38" width="200.745" x="186.746" y="105.044"><feFlood flood-color="#fff" result="back"/><feBlend in="SourceGraphic" in2="back" mode="normal"/></filter><linearGradient id="b" gradientUnits="userSpaceOnUse" x1="287" x2="287" y1="369" y2="469"><stop offset=".0004810653" stop-color="#151128" stop-opacity=".5"/><stop offset="1" stop-color="#151128" stop-opacity="0"/></linearGradient><mask id="c" height="177.38" maskUnits="userSpaceOnUse" width="200.745" x="186.746" y="105.044"><g filter="url(#a)"><image height="182" overflow="visible" transform="translate(183.9991 102.9844)" width="206" xlink:href="4CD61F72B1295332.jpg"/></g></mask><linearGradient id="d" gradientUnits="userSpaceOnUse" x1="287.1181" x2="287.1181" y1="282.4239" y2="105.0441"><stop offset="0" stop-color="#b7b7f9"/><stop offset="1" stop-color="#b7b7f9" stop-opacity="0"/></linearGradient><linearGradient id="e"><stop offset="0" stop-color="#151128" stop-opacity="0"/><stop offset="1" stop-color="#151128" stop-opacity=".9"/></linearGradient><linearGradient id="f" gradientUnits="userSpaceOnUse" x1="163.9602" x2="163.9602" xlink:href="#e" y1="205.0072" y2="155.9593"/><linearGradient id="g" gradientUnits="userSpaceOnUse" x1="410.1248" x2="410.1248" xlink:href="#e" y1="205.0072" y2="155.9593"/><linearGradient id="h"><stop offset="0" stop-color="#6262cc"/><stop offset="1" stop-color="#3f3177"/></linearGradient><linearGradient id="i" gradientTransform="matrix(-1 0 0 1 -2029.3016 0)" gradientUnits="userSpaceOnUse" x1="-2558.3252" x2="-2439.3413" xlink:href="#h" y1="162.0076" y2="162.0076"/><linearGradient id="j" gradientUnits="userSpaceOnUse" x1="44.9763" x2="163.9602" xlink:href="#h" y1="162.0076" y2="162.0076"/><linearGradient id="k" gradientUnits="userSpaceOnUse" x1="286.9625" x2="286.9625" y1="385.9611" y2="201.9611"><stop offset="0" stop-color="#6262cc"/><stop offset=".1004" stop-color="#5c59bd"/><stop offset=".3382" stop-color="#4f489e"/><stop offset=".5712" stop-color="#463b89"/><stop offset=".7952" stop-color="#41347b"/><stop offset="1" stop-color="#3f3177"/></linearGradient><linearGradient id="l" gradientUnits="userSpaceOnUse" x1="286.9625" x2="286.9625" xlink:href="#h" y1="275.9602" y2="201.9611"/><path d="m0 369h574v100h-574z" fill="url(#b)"/><path d="m465.471 412h-356.942c-3.606 0-6.529-2.686-6.529-6l15-34h340l15 34c0 3.314-2.923 6-6.529 6z" fill="#151128" opacity=".1"/><path d="m3 369h568" style="fill:none;stroke:#151128;stroke-width:6;stroke-linecap:round;stroke-linejoin:round;stroke-miterlimit:10"/><path d="m409.962 155.959h-245.999l-40.001 46.002h326z" fill="#272359"/><g mask="url(#c)"><path d="m186.746 105.044h200.745v177.38h-200.745z" fill="url(#d)"/></g><path d="m163.96 155.959v49.048" fill="none" stroke="url(#f)" stroke-miterlimit="10" stroke-width=".75"/><path d="m410.125 155.959v49.048" fill="none" stroke="url(#g)" stroke-miterlimit="10" stroke-width=".75"/><path d="m410.04 155.959 57.995-33.372c1.122-.646 2.488-.708 3.664-.168l53.828 24.716c4.419 2.029 4.716 8.196.512 10.64l-75.999 44.187z" fill="url(#i)"/><path d="m163.96 155.959-57.995-33.372c-1.122-.646-2.487-.708-3.664-.168l-53.828 24.716c-4.419 2.029-4.716 8.196-.512 10.64l75.999 44.187z" fill="url(#j)"/><path d="m443.962 385.961h-314c-3.314 0-6-2.686-6-6v-178h326v178c0 3.314-2.686 6-6 6z" fill="url(#k)"/><path d="m381.715 99.848-10.7-32.875-21.167-65.208c-1.086-3.334-5.815-3.334-6.94 0l-21.167 65.169h-70.326l-21.167-65.169c-1.086-3.334-5.815-3.334-6.939 0l-21.129 65.169-10.7 32.914c-.969 2.985.078 6.28 2.636 8.141l92.462 67.185 92.462-67.185c2.559-1.86 3.644-5.156 2.675-8.141" fill="#f7561e" transform="translate(.532 .774933)"/><path d="m131.938 174.745 35.163-108.202h-70.326z" fill="#d72d20" transform="translate(155.197863 1.160267)"/><path d="m258.579 174.745-35.163-108.203h-49.236z" fill="#f7561e" transform="translate(28.531199 1.1608)"/><path d="m202.606 67.484-10.7 32.875c-.969 2.985.078 6.28 2.636 8.141l92.462 67.185z" fill="#f8911e" transform="translate(.088533 .255867)"/><path d="m173.286-212.516h49.274l-21.206-65.169c-1.086-3.334-5.815-3.334-6.94 0z" fill="#d72d20" transform="translate(29.421866 280.255593)"/><path d="m39.938 174.745 35.163-108.203h49.274z" fill="#f7561e" transform="translate(247.19786 1.1608)"/><path d="m125.231 67.484 10.7 32.875c.969 2.985-.078 6.28-2.636 8.141l-92.462 67.147z" fill="#f8911e" transform="translate(246.307061 .255867)"/><path d="m34.59-212.516h-49.274l21.167-65.169c1.086-3.334 5.815-3.334 6.94 0z" fill="#d72d20" transform="translate(336.973725 280.255593)"/><path clip-rule="evenodd" d="m167.221 291.405v70.734h241.689v-70.734" fill="none"/><path clip-rule="evenodd" d="m167.221 291.405v70.734h241.689v-70.734" fill="none"/><path clip-rule="evenodd" d="m167.221 291.405v70.734h241.689v-70.734" fill="none"/><path d="m344.074 356.209c-.397-.38-.417-1.007-.038-1.406l.362-.399 4.568-5.093h-20.024c-5.916 0-11.586-2.357-15.777-6.518l-9.71-9.672-8.628.57-.265 8.418c0 .019 0 .019 0 0l9.69 9.654c3.264 3.269 7.073 5.796 11.341 7.564 4.247 1.767 8.742 2.642 13.35 2.642h20.555z" fill="#151128"/><path clip-rule="evenodd" d="m167.221 291.405v70.734h241.689v-70.734" fill="none"/><path clip-rule="evenodd" d="m167.221 291.405v70.734h241.689v-70.734" fill="none"/><path clip-rule="evenodd" d="m167.221 291.405v70.734h241.689v-70.734" fill="none"/><path clip-rule="evenodd" d="m167.221 291.405v70.734h241.689v-70.734" fill="none"/><path clip-rule="evenodd" d="m167.221 291.405v70.734h241.689v-70.734" fill="none"/><g fill="#151128"><path d="m271.747 301.497c-3.261-3.27-7.091-5.798-11.341-7.564-4.247-1.768-8.742-2.642-13.35-2.642h-20.004c-.02.076-.076.114-.114.17l-5.898 6.272 5.594 6.214h20.421c5.918 0 11.588 2.358 15.78 6.52l12.268 12.237.228-7.43c0-.742.586-1.368 1.327-1.406l.531-.02 6.618-.342z"/><path d="m349.062 291.461c-.038-.056-.096-.094-.114-.17h-20.007c-4.609 0-9.103.874-13.35 2.642-4.267 1.766-8.077 4.294-11.341 7.564l-16.212 16.154-3.984 3.952 7.549.228h.018c.533 0 .988.418 1.006.97l.02.532.379 7.222 3.944-3.934h-.02l16.215-16.154c4.191-4.162 9.862-6.52 15.777-6.52h20.424l5.594-6.214z"/><path d="m290.027 333.328-.417-8.417-8.59-.266-1.99 1.994h.018l-16.212 16.155c-4.191 4.181-9.862 6.518-15.78 6.518h-20.024l4.571 5.093.359.399c.379.399.361 1.026-.038 1.406l-5.402 5.777h20.535c4.609 0 9.103-.893 13.35-2.661 4.25-1.768 8.08-4.295 11.341-7.564l16.215-16.155 2.103-2.09c-.018-.075-.018-.131-.039-.189z"/><path d="m217.418 298.379c-.379-.398-.361-1.026.038-1.406l5.347-5.682h-20.328c-17.75 0-32.485 13.225-34.912 30.369l6.542 6.155 6.182-5.585c2.048-10.378 11.245-18.284 22.187-18.284h19.949l-4.647-5.168z"/><path d="m222.823 349.311h-20.348c-12.288 0-22.358-9.958-22.623-22.217l-4.627 4.2-.436.38c-.417.4-1.081.38-1.479-.038l-6.087-5.737v.722c0 19.498 15.816 35.348 35.253 35.348h19.817c.038-.076.094-.171.152-.247l5.898-6.271z"/><path d="m373.505 291.291h-20.31l5.349 5.682c.397.38.417 1.008.038 1.406l-.362.4-4.647 5.168h19.931c10.941 0 20.138 7.888 22.206 18.284l6.184 5.585 6.54-6.155c-2.426-17.145-17.159-30.37-34.929-30.37z"/><path d="m402.691 331.636c-.399.418-1.062.438-1.481.038l-.435-.38-4.646-4.2c-.245 12.259-10.335 22.217-22.623 22.217h-20.328l-5.519 6.138 5.898 6.271c.056.076.114.171.152.247h19.797c19.456 0 35.271-15.85 35.271-35.348 0-.228 0-.476 0-.704z"/><path d="m218.022 326.058c0 .52-.086.997-.26 1.431-.173.435-.417.809-.73 1.122-.314.314-.691.557-1.132.73s-.93.26-1.465.26h-2.706v-7.088h2.706c.536 0 1.024.087 1.465.262s.819.418 1.132.73c.314.312.557.685.73 1.12.173.437.26.914.26 1.433zm-1.348 0c0-.389-.052-.738-.157-1.047s-.253-.57-.446-.784-.427-.378-.703-.492-.587-.172-.934-.172h-1.378v4.99h1.378c.346 0 .657-.057.934-.172.276-.114.511-.279.703-.493.193-.214.342-.475.446-.784.105-.308.157-.657.157-1.046z"/><path d="m223.424 322.514v1.049h-3.142v1.966h2.475v1.015h-2.475v2.005h3.142v1.054h-4.47v-7.088h4.47z"/><path d="m223.879 322.514h1.064c.115 0 .208.028.279.083.072.056.126.127.162.216l1.667 4.323c.055.141.108.295.159.463s.099.346.145.532c.075-.376.168-.707.279-.995l1.662-4.323c.029-.075.081-.144.157-.206.075-.062.168-.093.279-.093h1.064l-2.863 7.088h-1.191z"/><path d="m351.962 326.058c0 .52-.087 1.001-.26 1.443-.173.443-.417.826-.73 1.15-.314.324-.691.576-1.132.757s-.93.272-1.466.272-1.025-.091-1.468-.272-.822-.434-1.137-.757c-.315-.324-.56-.707-.733-1.15s-.26-.924-.26-1.443c0-.52.086-1.001.26-1.444.173-.443.417-.826.733-1.15.315-.323.694-.576 1.137-.757s.932-.272 1.468-.272 1.024.091 1.466.274c.441.183.818.435 1.132.757s.557.704.73 1.147c.173.444.26.926.26 1.445zm-1.353 0c0-.389-.051-.738-.154-1.047s-.251-.571-.444-.787-.427-.381-.704-.495c-.276-.114-.587-.172-.934-.172s-.659.057-.936.172c-.278.115-.514.279-.708.495s-.344.478-.449.787c-.104.309-.157.658-.157 1.047s.052.738.157 1.047.254.57.449.784c.194.214.431.378.708.493.278.114.59.172.936.172s.658-.057.934-.172c.276-.114.511-.279.704-.493s.34-.475.444-.784c.103-.309.154-.658.154-1.047z"/><path d="m354.235 327.107v2.495h-1.318v-7.088h2.309c.474 0 .884.055 1.23.167s.632.267.858.466.392.438.5.716.162.582.162.912c0 .343-.057.658-.172.944s-.286.532-.515.738-.515.366-.858.48c-.343.115-.745.172-1.206.172h-.99zm0-1.029h.99c.242 0 .453-.03.632-.091s.328-.147.446-.26.206-.25.265-.412.088-.342.088-.542c0-.189-.029-.361-.088-.515-.059-.153-.147-.284-.265-.392s-.267-.19-.446-.248c-.18-.057-.391-.086-.632-.086h-.99z"/><path d="m362.634 323.803c-.036.072-.078.123-.125.152s-.104.044-.169.044-.139-.025-.221-.076-.178-.107-.289-.169-.241-.118-.39-.169-.324-.076-.527-.076c-.183 0-.342.022-.478.066-.135.044-.25.105-.343.184-.093.078-.162.172-.208.282s-.069.23-.069.36c0 .167.047.306.14.417s.216.206.37.284.328.149.525.211c.196.062.396.128.6.199.204.07.404.152.601.245.196.093.371.211.525.353.153.142.277.316.37.522s.14.456.14.75c0 .32-.055.62-.164.899-.11.279-.27.523-.48.73-.211.208-.468.371-.772.49s-.652.179-1.044.179c-.226 0-.448-.022-.667-.066s-.429-.107-.63-.189-.389-.18-.564-.294-.331-.242-.468-.382l.382-.632c.036-.046.079-.084.13-.115s.107-.047.169-.047c.082 0 .17.034.265.101s.207.141.336.223.281.156.456.223.385.101.63.101c.376 0 .667-.089.873-.267s.309-.434.309-.767c0-.186-.047-.338-.14-.456s-.216-.216-.37-.297c-.154-.08-.328-.148-.525-.203-.196-.055-.395-.116-.598-.181-.203-.066-.402-.144-.598-.235s-.371-.211-.525-.358-.277-.331-.37-.552-.14-.492-.14-.816c0-.258.051-.51.154-.755s.253-.462.451-.652c.198-.189.44-.341.728-.456.287-.114.616-.171.985-.171.418 0 .804.065 1.157.196s.654.314.902.549z"/></g><path d="m471.056 275.96h-368.187c-4.257 0-7.16-4.309-5.56-8.254l26.654-65.745h326l26.654 65.745c1.599 3.945-1.304 8.254-5.561 8.254z" fill="url(#l)"/></svg>