<svg width="40" height="40" viewBox="0 0 40 40" fill="none" xmlns="http://www.w3.org/2000/svg">
<circle cx="20" cy="20" r="20" fill="#F2F2F2"/>
<g clip-path="url(#clip0)">
<path d="M21.933 28.2051C18.4305 28.2051 15.5796 25.3542 15.5796 21.8516C15.5796 18.3491 18.4305 15.4982 21.933 15.4982C25.4356 15.4982 28.2865 18.3491 28.2865 21.8516C28.2458 25.3542 25.4356 28.2051 21.933 28.2051ZM21.933 17.168C19.3265 17.168 17.2087 19.2858 17.2087 21.8924C17.2087 24.4989 19.3265 26.6167 21.933 26.6167C24.5396 26.6167 26.6574 24.4989 26.6574 21.8924C26.6167 19.2858 24.5396 17.168 21.933 17.168Z" fill="#7D2BD9"/>
<path d="M27.8793 30.3636C27.7978 30.3636 27.7164 30.3636 27.6757 30.3636C26.9426 30.2822 26.2502 29.9156 25.8429 29.3047L25.3949 28.6531C25.1506 28.2865 25.232 27.7571 25.5986 27.5127C25.9651 27.2684 26.4946 27.3498 26.7389 27.7164L27.1869 28.368C27.3498 28.5716 27.5535 28.7345 27.8386 28.7345C28.0829 28.7753 28.368 28.6531 28.5309 28.4902C28.7346 28.2865 28.816 28.0422 28.7753 27.7978C28.7346 27.5535 28.6124 27.3091 28.4088 27.1462L26.2909 25.68C25.9244 25.4356 25.8429 24.9062 26.0873 24.5396C26.3317 24.1731 26.8611 24.0916 27.2277 24.336L29.3455 25.8022C29.9564 26.2095 30.3637 26.9018 30.4044 27.6349C30.4451 28.368 30.2008 29.1011 29.6713 29.6305C29.1826 30.1193 28.5309 30.3636 27.8793 30.3636Z" fill="#7D2BD9"/>
<path d="M21.5666 17.168C21.1186 17.168 20.752 16.8015 20.752 16.3535V11.6291H15.1317C14.6837 11.6291 14.3171 11.2625 14.3171 10.8145C14.3171 10.3665 14.6837 10 15.1317 10H21.5666C22.0146 10 22.3811 10.3665 22.3811 10.8145V16.3535C22.3811 16.8015 22.0146 17.168 21.5666 17.168Z" fill="#7D2BD9"/>
<path d="M17.9418 27.024H10.8145C10.3665 27.024 10 26.6574 10 26.2094V17.6974C10 17.2494 10.3665 16.8829 10.8145 16.8829C11.2625 16.8829 11.6291 17.2494 11.6291 17.6974V25.3949H17.9418C18.3898 25.3949 18.7564 25.7614 18.7564 26.2094C18.7564 26.6574 18.4305 27.024 17.9418 27.024Z" fill="#7D2BD9"/>
<path d="M15.1316 15.9462H10.8145C10.4887 15.9462 10.2036 15.7425 10.0815 15.4575C9.95927 15.1724 10.0407 14.8058 10.2444 14.5615L14.5615 10.2444C14.8058 10 15.1316 9.95928 15.4575 10.0815C15.7425 10.2036 15.9462 10.4887 15.9462 10.8145V15.1316C15.9462 15.5796 15.5796 15.9462 15.1316 15.9462ZM12.7695 14.3171H14.3171V12.7695L12.7695 14.3171Z" fill="#7D2BD9"/>
<path d="M24.0917 21.2407H20.1819C19.7339 21.2407 19.3673 20.8742 19.3673 20.4262C19.3673 19.9782 19.7339 19.6116 20.1819 19.6116H24.0917C24.5397 19.6116 24.9062 19.9782 24.9062 20.4262C24.9062 20.8742 24.5397 21.2407 24.0917 21.2407Z" fill="#7D2BD9"/>
<path d="M21.9331 23.9287H20.1819C19.7339 23.9287 19.3673 23.5622 19.3673 23.1142C19.3673 22.6662 19.7339 22.2996 20.1819 22.2996H21.9331C22.3811 22.2996 22.7477 22.6662 22.7477 23.1142C22.7477 23.5622 22.3811 23.9287 21.9331 23.9287Z" fill="#7D2BD9"/>
</g>
<defs>
<clipPath id="clip0">
<rect width="20.3636" height="20.3636" fill="white" transform="translate(10 10)"/>
</clipPath>
</defs>
</svg>
