<svg width="8" height="39" viewBox="0 0 8 39" fill="none" xmlns="http://www.w3.org/2000/svg">
<path d="M1 4C1 2.34315 2.34315 1 4 1C5.65685 1 7 2.34315 7 4L7 11C7 12.6569 5.65685 14 4 14C2.34315 14 1 12.6569 1 11L1 4Z" fill="white" stroke="#C4C4C4" stroke-width="2"/>
<path d="M3.25 23.021C3.25 23.4352 3.58579 23.771 4 23.771C4.41421 23.771 4.75 23.4352 4.75 23.021L3.25 23.021ZM4.75 16.4436C4.75 16.0294 4.41422 15.6936 4 15.6936C3.58579 15.6936 3.25 16.0294 3.25 16.4436L4.75 16.4436ZM4.75 23.021L4.75 16.4436L3.25 16.4436L3.25 23.021L4.75 23.021Z" fill="#C4C4C4"/>
<path d="M3.25 31.7908C3.25 32.205 3.58579 32.5408 4 32.5408C4.41421 32.5408 4.75 32.205 4.75 31.7908L3.25 31.7908ZM4.75 27.4058C4.75 26.9916 4.41422 26.6558 4 26.6558C3.58579 26.6558 3.25 26.9916 3.25 27.4058L4.75 27.4058ZM4.75 31.7908L4.75 27.4058L3.25 27.4058L3.25 31.7908L4.75 31.7908Z" fill="#C4C4C4"/>
<path d="M3.25 37.272C3.25 37.6862 3.58579 38.022 4 38.022C4.41421 38.022 4.75 37.6862 4.75 37.272L3.25 37.272ZM4.75 35.0795C4.75 34.6653 4.41422 34.3295 4 34.3295C3.58579 34.3295 3.25 34.6653 3.25 35.0795L4.75 35.0795ZM4.75 37.272L4.75 35.0795L3.25 35.0795L3.25 37.272L4.75 37.272Z" fill="#C4C4C4"/>
</svg>
