<svg width="8" height="38" viewBox="0 0 8 38" fill="none" xmlns="http://www.w3.org/2000/svg">
<path d="M3.25 22.5774C3.25 22.9916 3.58579 23.3274 4 23.3274C4.41421 23.3274 4.75 22.9916 4.75 22.5774L3.25 22.5774ZM4.75 16C4.75 15.5858 4.41422 15.25 4 15.25C3.58579 15.25 3.25 15.5858 3.25 16L4.75 16ZM4.75 22.5774L4.75 16L3.25 16L3.25 22.5774L4.75 22.5774Z" fill="#C4C4C4"/>
<path d="M3.25 31.3473C3.25 31.7615 3.58579 32.0973 4 32.0973C4.41421 32.0973 4.75 31.7615 4.75 31.3473L3.25 31.3473ZM4.75 26.9624C4.75 26.5481 4.41422 26.2124 4 26.2124C3.58579 26.2124 3.25 26.5481 3.25 26.9624L4.75 26.9624ZM4.75 31.3473L4.75 26.9624L3.25 26.9624L3.25 31.3473L4.75 31.3473Z" fill="#C4C4C4"/>
<path d="M3.25 36.8285C3.25 37.2427 3.58579 37.5785 4 37.5785C4.41421 37.5785 4.75 37.2427 4.75 36.8285L3.25 36.8285ZM4.75 34.636C4.75 34.2218 4.41422 33.886 4 33.886C3.58579 33.886 3.25 34.2218 3.25 34.636L4.75 34.636ZM4.75 36.8285L4.75 34.636L3.25 34.636L3.25 36.8285L4.75 36.8285Z" fill="#C4C4C4"/>
<path d="M7 11C7 12.6569 5.65685 14 4 14C2.34314 14 0.999999 12.6569 0.999999 11L1 4C1 2.34315 2.34315 1 4 1C5.65685 1 7 2.34315 7 4L7 11Z" fill="white" stroke="#C4C4C4" stroke-width="2"/>
</svg>
