<svg width="8" height="98" viewBox="0 0 8 98" fill="none" xmlns="http://www.w3.org/2000/svg">
<path d="M4.75 28C4.75 27.5858 4.41421 27.25 4 27.25C3.58579 27.25 3.25 27.5858 3.25 28L4.75 28ZM3.24999 97C3.24999 97.4142 3.58578 97.75 3.99999 97.75C4.41421 97.75 4.74999 97.4142 4.74999 97L3.24999 97ZM3.25 28L3.24999 97L4.74999 97L4.75 28L3.25 28Z" fill="#C4C4C4"/>
<path d="M4.75 14C4.75 13.5858 4.41421 13.25 4 13.25C3.58579 13.25 3.25 13.5858 3.25 14L4.75 14ZM3.25 20C3.25 20.4142 3.58578 20.75 4 20.75C4.41421 20.75 4.75 20.4142 4.75 20L3.25 20ZM3.25 14L3.25 20L4.75 20L4.75 14L3.25 14Z" fill="#C4C4C4"/>
<path d="M4.75 6C4.75 5.58579 4.41421 5.25 4 5.25C3.58579 5.25 3.25 5.58579 3.25 6L4.75 6ZM3.25 10C3.25 10.4142 3.58578 10.75 4 10.75C4.41421 10.75 4.75 10.4142 4.75 10L3.25 10ZM3.25 6L3.25 10L4.75 10L4.75 6L3.25 6Z" fill="#C4C4C4"/>
<path d="M4.75 1C4.75 0.585787 4.41421 0.25 4 0.25C3.58579 0.25 3.25 0.585786 3.25 0.999999L4.75 1ZM3.25 3C3.25 3.41421 3.58578 3.75 4 3.75C4.41421 3.75 4.75 3.41421 4.75 3L3.25 3ZM3.25 0.999999L3.25 3L4.75 3L4.75 1L3.25 0.999999Z" fill="#C4C4C4"/>
<path d="M7 31C7 32.6569 5.65685 34 4 34C2.34315 34 1 32.6569 1 31L1 26C1 24.3431 2.34315 23 4 23C5.65686 23 7 24.3431 7 26L7 31Z" fill="white" stroke="#C4C4C4" stroke-width="2"/>
</svg>
