<svg width="8" height="956" viewBox="0 0 8 956" fill="none" xmlns="http://www.w3.org/2000/svg">
<path d="M3.25005 955C3.25005 955.414 3.58584 955.75 4.00005 955.75C4.41427 955.75 4.75005 955.414 4.75005 955L3.25005 955ZM4.75 1C4.74999 0.585815 4.41421 0.25 3.99999 0.25C3.58578 0.25 3.24999 0.585815 3.25 1L4.75 1ZM4.75005 955L4.75 1L3.25 1L3.25005 955L4.75005 955Z" fill="#C4C4C4"/>
<path d="M1 16C1 14.3431 2.34315 13 4 13C5.65685 13 7 14.3431 7 16V22C7 23.6569 5.65685 25 4 25C2.34315 25 1 23.6569 1 22V16Z" fill="white" stroke="#C4C4C4" stroke-width="2"/>
</svg>
