<svg width="40" height="40" viewBox="0 0 40 40" fill="none" xmlns="http://www.w3.org/2000/svg">
<circle cx="20" cy="20" r="20" fill="#7D2BD9"/>
<g clip-path="url(#clip0)">
<path d="M30.365 17.6305H11.453C11.2216 17.6305 10.9996 17.5385 10.8359 17.3748C10.6723 17.2112 10.5803 16.9892 10.5803 16.7577C10.5803 16.5263 10.6723 16.3043 10.8359 16.1406C10.9996 15.977 11.2216 15.885 11.453 15.885H30.365C30.5965 15.885 30.8185 15.977 30.9822 16.1406C31.1458 16.3043 31.2378 16.5263 31.2378 16.7577C31.2378 16.9892 31.1458 17.2112 30.9822 17.3748C30.8185 17.5385 30.5965 17.6305 30.365 17.6305Z" fill="white"/>
<path d="M28.6196 30.909H13.1985C12.5041 30.909 11.8382 30.6331 11.3472 30.1421C10.8562 29.6511 10.5803 28.9852 10.5803 28.2908V19.4064C10.5803 19.175 10.6723 18.953 10.8359 18.7893C10.9996 18.6256 11.2216 18.5337 11.453 18.5337C11.6845 18.5337 11.9065 18.6256 12.0702 18.7893C12.2338 18.953 12.3258 19.175 12.3258 19.4064V28.2908C12.3258 28.5222 12.4177 28.7442 12.5814 28.9079C12.7451 29.0716 12.967 29.1635 13.1985 29.1635H28.6196C28.8511 29.1635 29.073 29.0716 29.2367 28.9079C29.4004 28.7442 29.4923 28.5222 29.4923 28.2908V19.4064C29.4923 19.175 29.5843 18.953 29.7479 18.7893C29.9116 18.6256 30.1336 18.5337 30.365 18.5337C30.5965 18.5337 30.8185 18.6256 30.9822 18.7893C31.1458 18.953 31.2378 19.175 31.2378 19.4064V28.2908C31.2378 28.9852 30.9619 29.6511 30.4709 30.1421C29.9799 30.6331 29.314 30.909 28.6196 30.909Z" fill="white"/>
<path d="M11.453 17.6305C11.2216 17.6305 10.9996 17.5386 10.8359 17.3749C10.6723 17.2112 10.5803 16.9892 10.5803 16.7578V13.2669C10.5803 12.5725 10.8562 11.9065 11.3472 11.4155C11.8382 10.9245 12.5041 10.6487 13.1985 10.6487H26.0407C26.2721 10.6487 26.4941 10.7406 26.6578 10.9043C26.8215 11.068 26.9134 11.2899 26.9134 11.5214C26.9134 11.7529 26.8215 11.9749 26.6578 12.1385C26.4941 12.3022 26.2721 12.3941 26.0407 12.3941H13.1985C12.967 12.3941 12.7451 12.4861 12.5814 12.6498C12.4177 12.8134 12.3258 13.0354 12.3258 13.2669V16.7578C12.3258 16.9892 12.2338 17.2112 12.0702 17.3749C11.9065 17.5386 11.6845 17.6305 11.453 17.6305Z" fill="white"/>
<path d="M30.3651 17.6305C30.1336 17.6305 29.9116 17.5386 29.7479 17.3749C29.5843 17.2112 29.4923 16.9892 29.4923 16.7578V13.2669C29.4923 13.0354 29.4004 12.8134 29.2367 12.6498C29.073 12.4861 28.8511 12.3941 28.6196 12.3941H26.0407C25.8092 12.3941 25.5873 12.3022 25.4236 12.1385C25.2599 11.9749 25.168 11.7529 25.168 11.5214C25.168 11.2899 25.2599 11.068 25.4236 10.9043C25.5873 10.7406 25.8092 10.6487 26.0407 10.6487H28.6196C29.314 10.6487 29.9799 10.9245 30.4709 11.4155C30.9619 11.9065 31.2378 12.5725 31.2378 13.2669V16.7578C31.2378 16.9892 31.1458 17.2112 30.9822 17.3749C30.8185 17.5386 30.5965 17.6305 30.3651 17.6305Z" fill="white"/>
<path d="M15.7775 13.9214C15.5461 13.9214 15.3241 13.8294 15.1604 13.6657C14.9967 13.5021 14.9048 13.2801 14.9048 13.0486V9.96355C14.9048 9.73209 14.9967 9.5101 15.1604 9.34644C15.3241 9.18277 15.5461 9.09082 15.7775 9.09082C16.009 9.09082 16.231 9.18277 16.3946 9.34644C16.5583 9.5101 16.6502 9.73209 16.6502 9.96355V13.0486C16.6502 13.2801 16.5583 13.5021 16.3946 13.6657C16.231 13.8294 16.009 13.9214 15.7775 13.9214Z" fill="white"/>
<path d="M26.0407 13.9214C25.8092 13.9214 25.5873 13.8294 25.4236 13.6657C25.2599 13.5021 25.168 13.2801 25.168 13.0486V9.96355C25.168 9.73209 25.2599 9.5101 25.4236 9.34644C25.5873 9.18277 25.8092 9.09082 26.0407 9.09082C26.2722 9.09082 26.4941 9.18277 26.6578 9.34644C26.8215 9.5101 26.9134 9.73209 26.9134 9.96355V13.0486C26.9134 13.2801 26.8215 13.5021 26.6578 13.6657C26.4941 13.8294 26.2722 13.9214 26.0407 13.9214Z" fill="white"/>
<path d="M21.8472 22.3214H19.9709C19.7394 22.3214 19.5174 22.2294 19.3538 22.0658C19.1901 21.9021 19.0981 21.6801 19.0981 21.4487C19.0981 21.2172 19.1901 20.9952 19.3538 20.8315C19.5174 20.6679 19.7394 20.5759 19.9709 20.5759H21.8472C22.0787 20.5759 22.3007 20.6679 22.4643 20.8315C22.628 20.9952 22.72 21.2172 22.72 21.4487C22.72 21.6801 22.628 21.9021 22.4643 22.0658C22.3007 22.2294 22.0787 22.3214 21.8472 22.3214Z" fill="white"/>
<path d="M21.8472 26.2137H19.9709C19.7394 26.2137 19.5174 26.1218 19.3538 25.9581C19.1901 25.7944 19.0981 25.5725 19.0981 25.341C19.0981 25.1095 19.1901 24.8875 19.3538 24.7239C19.5174 24.5602 19.7394 24.4683 19.9709 24.4683H21.8472C22.0787 24.4683 22.3007 24.5602 22.4643 24.7239C22.628 24.8875 22.72 25.1095 22.72 25.341C22.72 25.5725 22.628 25.7944 22.4643 25.9581C22.3007 26.1218 22.0787 26.2137 21.8472 26.2137Z" fill="white"/>
<path d="M26.3506 22.3214H24.4786C24.2471 22.3214 24.0251 22.2294 23.8615 22.0658C23.6978 21.9021 23.6058 21.6801 23.6058 21.4487C23.6058 21.2172 23.6978 20.9952 23.8615 20.8315C24.0251 20.6679 24.2471 20.5759 24.4786 20.5759H26.3506C26.582 20.5759 26.804 20.6679 26.9677 20.8315C27.1313 20.9952 27.2233 21.2172 27.2233 21.4487C27.2233 21.6801 27.1313 21.9021 26.9677 22.0658C26.804 22.2294 26.582 22.3214 26.3506 22.3214Z" fill="white"/>
<path d="M17.3396 26.2137H15.4676C15.2361 26.2137 15.0141 26.1218 14.8505 25.9581C14.6868 25.7944 14.5948 25.5725 14.5948 25.341C14.5948 25.1095 14.6868 24.8875 14.8505 24.7239C15.0141 24.5602 15.2361 24.4683 15.4676 24.4683H17.3396C17.571 24.4683 17.793 24.5602 17.9567 24.7239C18.1204 24.8875 18.2123 25.1095 18.2123 25.341C18.2123 25.5725 18.1204 25.7944 17.9567 25.9581C17.793 26.1218 17.571 26.2137 17.3396 26.2137Z" fill="white"/>
</g>
<defs>
<clipPath id="clip0">
<rect width="21.8182" height="21.8182" fill="white" transform="translate(10 9.09082)"/>
</clipPath>
</defs>
</svg>
