<svg width="86" height="47" viewBox="0 0 86 47" fill="none" xmlns="http://www.w3.org/2000/svg">
<ellipse cx="79.463" cy="30.2423" rx="6.5" ry="6.42244" fill="#2F80ED"/>
<path d="M12.6097 27.7228C13.2221 27.2945 14.0713 27.6649 14.1742 28.4051L15.8054 40.145C15.9123 40.9146 15.1384 41.5062 14.423 41.2016L2.97453 36.3273C2.25197 36.0196 2.14914 35.0381 2.79234 34.5883L12.6097 27.7228Z" fill="#27AE60"/>
<g clip-path="url(#clip0)">
<path d="M52.7807 11.9408C52.9399 12.2237 52.8991 12.5451 52.6865 12.7629L44.9722 20.6701L35.0368 15.6915C34.7605 15.5437 34.6013 15.2608 34.6421 14.9394L35.1299 11.6057L36.0993 5.02804C36.1401 4.70667 36.6138 4.59947 36.7513 4.93479L39.826 10.8552L46.5365 9.75735L47.5059 3.17966C47.5466 2.85829 47.9834 2.76624 48.1578 3.08641L51.2325 9.0068L52.7807 11.9408Z" fill="#FCA326"/>
</g>
<defs>
<clipPath id="clip0">
<rect width="18" height="18" fill="white" transform="translate(31.2213 6.82922) rotate(-22.2965)"/>
</clipPath>
</defs>
</svg>
