<svg width="40" height="40" viewBox="0 0 40 40" fill="none" xmlns="http://www.w3.org/2000/svg">
<circle cx="20" cy="20" r="20" fill="#F2F2F2"/>
<g clip-path="url(#clip0)">
<path d="M25.3745 30.3637H14.989C14.4036 30.3637 13.8421 30.1311 13.4282 29.7171C13.0142 29.3031 12.7816 28.7417 12.7816 28.1562V14.9687C12.7805 14.5342 12.9079 14.109 13.1477 13.7467C13.3876 13.3844 13.7292 13.1011 14.1297 12.9324C14.2289 12.8857 14.3365 12.8596 14.446 12.8555C14.5556 12.8514 14.6648 12.8695 14.7672 12.9086C14.8696 12.9477 14.9631 13.0071 15.042 13.0832C15.1209 13.1594 15.1836 13.2506 15.2264 13.3515C15.2691 13.4525 15.2911 13.561 15.291 13.6706C15.2908 13.7802 15.2685 13.8887 15.2254 13.9895C15.1824 14.0903 15.1194 14.1814 15.0403 14.2573C14.9612 14.3332 14.8676 14.3923 14.765 14.4311C14.6597 14.476 14.5699 14.5509 14.5068 14.6465C14.4438 14.7421 14.4104 14.8542 14.4107 14.9687V28.1562C14.4118 28.3093 14.4731 28.4558 14.5813 28.564C14.6895 28.6722 14.836 28.7335 14.989 28.7346H25.3745C25.5275 28.7335 25.674 28.6722 25.7823 28.564C25.8905 28.4558 25.9518 28.3093 25.9528 28.1562V14.9687C25.9533 14.8526 25.919 14.739 25.8545 14.6425C25.7899 14.5459 25.6979 14.4709 25.5904 14.4271C25.4856 14.3916 25.3891 14.3352 25.3068 14.2612C25.2246 14.1873 25.1582 14.0973 25.1118 13.9969C25.0655 13.8965 25.0401 13.7876 25.0371 13.677C25.0342 13.5665 25.0538 13.4564 25.0948 13.3537C25.1358 13.2509 25.1973 13.1576 25.2755 13.0794C25.3538 13.0012 25.4471 12.9397 25.5499 12.8988C25.6527 12.8578 25.7627 12.8383 25.8733 12.8412C25.9839 12.8442 26.0927 12.8697 26.1931 12.9161C26.6012 13.0785 26.9514 13.3591 27.1989 13.7219C27.4464 14.0847 27.5797 14.5133 27.5819 14.9525V28.1562C27.5819 28.7417 27.3493 29.3031 26.9354 29.7171C26.5214 30.1311 25.9599 30.3637 25.3745 30.3637Z" fill="#7D2BD9"/>
<path d="M23.44 16.2313H16.9237C16.7076 16.2313 16.5005 16.1455 16.3477 15.9927C16.1949 15.84 16.1091 15.6328 16.1091 15.4167V12.631C16.1091 12.415 16.1949 12.2078 16.3477 12.055C16.5005 11.9023 16.7076 11.8165 16.9237 11.8165H17.616C17.7952 11.2803 18.1405 10.8152 18.6018 10.4885C19.0632 10.1619 19.6166 9.9908 20.1819 10C20.744 9.99994 21.2922 10.1748 21.7505 10.5002C22.2087 10.8257 22.5544 11.2857 22.7395 11.8165H23.44C23.6561 11.8165 23.8633 11.9023 24.016 12.055C24.1688 12.2078 24.2546 12.415 24.2546 12.631V15.4167C24.2546 15.6328 24.1688 15.84 24.016 15.9927C23.8633 16.1455 23.6561 16.2313 23.44 16.2313ZM17.7382 14.6022H22.6255V13.4455H22.0797C21.8752 13.4463 21.6779 13.37 21.5269 13.2319C21.376 13.0939 21.2826 12.9041 21.2652 12.7002C21.262 12.415 21.1464 12.1426 20.9436 11.9421C20.7408 11.7416 20.4671 11.6291 20.1819 11.6291C20.0399 11.6275 19.899 11.6543 19.7675 11.708C19.636 11.7617 19.5167 11.8412 19.4165 11.9418C19.3162 12.0424 19.2372 12.1621 19.184 12.2937C19.1308 12.4254 19.1045 12.5664 19.1067 12.7084C19.0873 12.9107 18.9931 13.0986 18.8424 13.235C18.6916 13.3713 18.4954 13.4465 18.2921 13.4455H17.7382V14.6022Z" fill="#7D2BD9"/>
<path d="M18.8133 22.1653C18.6562 22.1636 18.5025 22.1185 18.3694 22.0349C18.1904 21.9148 18.0663 21.7286 18.0243 21.5171C17.9823 21.3057 18.0258 21.0862 18.1454 20.9068L19.2817 19.1637C19.3925 18.9922 19.5636 18.8685 19.7613 18.8172C19.9589 18.766 20.1685 18.7907 20.3488 18.8867L21.2529 19.3673L21.9168 18.4387C22.0431 18.2632 22.2341 18.1451 22.4475 18.1103C22.661 18.0755 22.8796 18.127 23.0551 18.2534C23.2306 18.3798 23.3487 18.5707 23.3835 18.7842C23.4182 18.9977 23.3668 19.2162 23.2404 19.3917L22.157 20.8986C22.0415 21.0578 21.8724 21.1698 21.6807 21.214C21.4891 21.2581 21.2879 21.2315 21.1144 21.1389L20.2266 20.6665L19.4976 21.8109C19.4216 21.9219 19.3194 22.0123 19.2 22.0741C19.0806 22.1359 18.9478 22.1673 18.8133 22.1653Z" fill="#7D2BD9"/>
<path d="M23.4074 24.2179H16.8421C16.6261 24.2179 16.4189 24.132 16.2662 23.9793C16.1134 23.8265 16.0276 23.6193 16.0276 23.4033V18.9233C16.0276 18.7073 16.1134 18.5001 16.2662 18.3473C16.4189 18.1946 16.6261 18.1088 16.8421 18.1088C17.0582 18.1088 17.2653 18.1946 17.4181 18.3473C17.5709 18.5001 17.6567 18.7073 17.6567 18.9233V22.5888H23.4074C23.6234 22.5888 23.8306 22.6746 23.9833 22.8273C24.1361 22.9801 24.2219 23.1873 24.2219 23.4033C24.2219 23.6193 24.1361 23.8265 23.9833 23.9793C23.8306 24.132 23.6234 24.2179 23.4074 24.2179Z" fill="#7D2BD9"/>
<path d="M17.8033 26.9181H16.8421C16.6261 26.9181 16.4189 26.8323 16.2662 26.6795C16.1134 26.5268 16.0276 26.3196 16.0276 26.1035C16.0276 25.8875 16.1134 25.6803 16.2662 25.5276C16.4189 25.3748 16.6261 25.289 16.8421 25.289H17.8033C18.0193 25.289 18.2265 25.3748 18.3793 25.5276C18.532 25.6803 18.6178 25.8875 18.6178 26.1035C18.6178 26.3196 18.532 26.5268 18.3793 26.6795C18.2265 26.8323 18.0193 26.9181 17.8033 26.9181Z" fill="#7D2BD9"/>
<path d="M23.4075 26.9181H20.1819C19.9658 26.9181 19.7586 26.8323 19.6059 26.6795C19.4531 26.5268 19.3673 26.3196 19.3673 26.1035C19.3673 25.8875 19.4531 25.6803 19.6059 25.5276C19.7586 25.3748 19.9658 25.289 20.1819 25.289H23.3993C23.6153 25.289 23.8225 25.3748 23.9753 25.5276C24.128 25.6803 24.2139 25.8875 24.2139 26.1035C24.2139 26.3196 24.128 26.5268 23.9753 26.6795C23.8225 26.8323 23.6153 26.9181 23.3993 26.9181H23.4075Z" fill="#7D2BD9"/>
</g>
<defs>
<clipPath id="clip0">
<rect width="20.3636" height="20.3636" fill="white" transform="translate(10 10)"/>
</clipPath>
</defs>
</svg>
