<svg width="26" height="26" viewBox="0 0 26 26" fill="none" xmlns="http://www.w3.org/2000/svg">
<path d="M13 26C20.1797 26 26 20.1797 26 13C26 5.8203 20.1797 0 13 0C5.8203 0 0 5.8203 0 13C0 20.1797 5.8203 26 13 26Z" fill="#F24F63"/>
<path d="M4.85333 11.0067C4.85333 9.70668 5.89333 8.58002 7.28 8.58002C8.66667 8.58002 9.70667 9.62002 9.70667 11.0067" stroke="white" stroke-width="2" stroke-miterlimit="10" stroke-linecap="round" stroke-linejoin="round"/>
<path d="M16.2933 11.0067C16.2933 9.70668 17.3333 8.58002 18.72 8.58002C20.02 8.58002 21.1467 9.62002 21.1467 11.0067" stroke="white" stroke-width="2" stroke-miterlimit="10" stroke-linecap="round" stroke-linejoin="round"/>
<path d="M17.16 15.2534C17.16 17.5067 15.34 19.4134 13 19.4134C10.66 19.4134 8.83997 17.5934 8.83997 15.2534H17.16Z" fill="white"/>
</svg>
