<svg width="26" height="26" viewBox="0 0 26 26" fill="none" xmlns="http://www.w3.org/2000/svg">
<path d="M13 26C20.1797 26 26 20.1797 26 13C26 5.8203 20.1797 0 13 0C5.8203 0 0 5.8203 0 13C0 20.1797 5.8203 26 13 26Z" fill="#FCA121"/>
<path fill-rule="evenodd" clip-rule="evenodd" d="M12.7771 8.6171L8.17142 13.2971C7.94856 13.52 8.09713 13.9657 8.46856 13.9657H10.6228C10.6971 13.9657 10.7714 14.04 10.7714 14.1142V26H15.4514V14.1142C15.4514 14.04 15.5257 13.9657 15.6 13.9657H17.7543C18.0514 13.9657 18.2743 13.5942 18.0514 13.2971L13.3714 8.6171C13.2228 8.46853 12.9257 8.46853 12.7771 8.6171Z" fill="white"/>
</svg>
