<svg width="40" height="40" viewBox="0 0 40 40" fill="none" xmlns="http://www.w3.org/2000/svg">
<circle cx="20" cy="20" r="20" fill="#F2F2F2"/>
<g clip-path="url(#clip0)">
<path d="M28.2603 22.6923C28.0288 22.6923 27.8068 22.6003 27.6432 22.4366C27.4795 22.273 27.3876 22.051 27.3876 21.8195V14.9817C27.3876 14.7387 27.291 14.5056 27.1192 14.3338C26.9473 14.1619 26.7142 14.0654 26.4712 14.0654H13.5286C13.2856 14.0654 13.0525 14.1619 12.8807 14.3338C12.7088 14.5056 12.6123 14.7387 12.6123 14.9817V21.8195C12.6123 22.051 12.5203 22.273 12.3567 22.4366C12.193 22.6003 11.971 22.6923 11.7395 22.6923C11.5081 22.6923 11.2861 22.6003 11.1224 22.4366C10.9588 22.273 10.8668 22.051 10.8668 21.8195V14.9817C10.868 14.2761 11.1488 13.5997 11.6477 13.1008C12.1467 12.6019 12.823 12.3211 13.5286 12.3199H26.4712C27.1768 12.3211 27.8532 12.6019 28.3521 13.1008C28.851 13.5997 29.1319 14.2761 29.133 14.9817V21.8195C29.133 22.051 29.0411 22.273 28.8774 22.4366C28.7137 22.6003 28.4917 22.6923 28.2603 22.6923Z" fill="#7D2BD9"/>
<path d="M28.6399 27.6799H11.3599C10.7581 27.6799 10.181 27.4408 9.75542 27.0153C9.32988 26.5898 9.09082 26.0126 9.09082 25.4108V24.0188C9.09082 23.7874 9.18277 23.5654 9.34644 23.4017C9.5101 23.238 9.73209 23.1461 9.96355 23.1461H30.0363C30.2677 23.1461 30.4897 23.238 30.6534 23.4017C30.8171 23.5654 30.909 23.7874 30.909 24.0188V25.4108C30.909 26.0126 30.6699 26.5898 30.2444 27.0153C29.8189 27.4408 29.2417 27.6799 28.6399 27.6799ZM10.8363 24.8915V25.4108C10.8363 25.4796 10.8498 25.5477 10.8761 25.6112C10.9024 25.6747 10.941 25.7325 10.9896 25.7811C11.0383 25.8297 11.096 25.8683 11.1595 25.8946C11.2231 25.9209 11.2911 25.9345 11.3599 25.9345H28.6399C28.7087 25.9345 28.7768 25.9209 28.8403 25.8946C28.9038 25.8683 28.9616 25.8297 29.0102 25.7811C29.0588 25.7325 29.0974 25.6747 29.1237 25.6112C29.15 25.5477 29.1635 25.4796 29.1635 25.4108V24.8915H10.8363Z" fill="#7D2BD9"/>
<path d="M18.5032 22.3737C18.362 22.3721 18.2231 22.3378 18.0974 22.2734C17.9566 22.1994 17.8387 22.0883 17.7564 21.9522C17.6741 21.8161 17.6305 21.6601 17.6305 21.501V15.7977C17.63 15.6381 17.6732 15.4815 17.7555 15.3447C17.8378 15.208 17.956 15.0965 18.0973 15.0222C18.2385 14.948 18.3974 14.9139 18.5567 14.9237C18.716 14.9335 18.8696 14.9868 19.0007 15.0777L23.1374 17.9272C23.2544 18.0073 23.3501 18.1148 23.4162 18.2402C23.4824 18.3657 23.5169 18.5054 23.5169 18.6472C23.5169 18.789 23.4824 18.9287 23.4162 19.0541C23.3501 19.1796 23.2544 19.287 23.1374 19.3672L19.0007 22.2166C18.8548 22.3185 18.6812 22.3733 18.5032 22.3737ZM19.376 17.4559V19.8384L21.1214 18.6472L19.376 17.4559Z" fill="#7D2BD9"/>
</g>
<defs>
<clipPath id="clip0">
<rect width="21.8182" height="21.8182" fill="white" transform="translate(9.09082 9.09082)"/>
</clipPath>
</defs>
</svg>
