<svg width="40" height="40" viewBox="0 0 40 40" fill="none" xmlns="http://www.w3.org/2000/svg">
<circle cx="20" cy="20" r="20" fill="#F2F2F2"/>
<g clip-path="url(#clip0)">
<path d="M24.0095 29.9091H11.7564C11.3404 29.9091 11 29.5687 11 29.1527V11.7564C11 11.3404 11.3404 11 11.7564 11H24.0095C24.4255 11 24.7658 11.3404 24.7658 11.7564V13.2691C24.7658 13.6851 24.4255 14.0255 24.0095 14.0255C23.5935 14.0255 23.2531 13.6851 23.2531 13.2691V12.5127H12.5127V28.3964H23.2531V27.64C23.2531 27.224 23.5935 26.8836 24.0095 26.8836C24.4255 26.8836 24.7658 27.224 24.7658 27.64V29.1527C24.7658 29.5687 24.4255 29.9091 24.0095 29.9091Z" fill="#7D2BD9"/>
<path d="M24.6902 23.1774C24.5011 23.1774 24.312 23.1018 24.1608 22.9505L22.6102 21.4C22.3077 21.0974 22.3077 20.6436 22.6102 20.3411C22.9128 20.0385 23.3666 20.0385 23.6691 20.3411L24.6902 21.3622L25.7113 20.3411C26.0138 20.0385 26.4677 20.0385 26.7702 20.3411C27.0728 20.6436 27.0728 21.0974 26.7702 21.4L25.2197 22.9505C25.0684 23.1396 24.8793 23.1774 24.6902 23.1774Z" fill="#7D2BD9"/>
<path d="M24.6902 23.1775C24.2742 23.1775 23.9338 22.8371 23.9338 22.4211V18.4502C23.9338 18.0342 24.2742 17.6938 24.6902 17.6938C25.1062 17.6938 25.4466 18.0342 25.4466 18.4502V22.4211C25.4466 22.8749 25.1062 23.1775 24.6902 23.1775Z" fill="#7D2BD9"/>
<path d="M17.9207 21.2109H14.5927C14.1767 21.2109 13.8363 20.8705 13.8363 20.4545C13.8363 20.0385 14.1767 19.6982 14.5927 19.6982H17.8828C18.2988 19.6982 18.6392 20.0385 18.6392 20.4545C18.6392 20.8705 18.3367 21.2109 17.9207 21.2109Z" fill="#7D2BD9"/>
<path d="M18.677 18.4502H14.5927C14.1767 18.4502 13.8363 18.1098 13.8363 17.6938C13.8363 17.2778 14.1767 16.9375 14.5927 16.9375H18.6392C19.0552 16.9375 19.3956 17.2778 19.3956 17.6938C19.3956 18.1098 19.093 18.4502 18.677 18.4502Z" fill="#7D2BD9"/>
<path d="M18.6771 23.9716H14.5549C14.1389 23.9716 13.7986 23.6313 13.7986 23.2153C13.7986 22.7993 14.1389 22.4589 14.5549 22.4589H18.6393C19.0553 22.4589 19.3957 22.7993 19.3957 23.2153C19.4335 23.6313 19.0931 23.9716 18.6771 23.9716Z" fill="#7D2BD9"/>
<path d="M24.6902 25.6735C21.816 25.6735 19.4713 23.3287 19.4713 20.4545C19.4713 17.5804 21.816 15.2356 24.6902 15.2356C27.5644 15.2356 29.9091 17.5804 29.9091 20.4545C29.9091 23.3287 27.5644 25.6735 24.6902 25.6735ZM24.6902 16.7484C22.648 16.7484 20.984 18.4124 20.984 20.4545C20.984 22.4967 22.648 24.1607 24.6902 24.1607C26.7324 24.1607 28.3964 22.4967 28.3964 20.4545C28.3964 18.4124 26.7324 16.7484 24.6902 16.7484Z" fill="#7D2BD9"/>
</g>
<defs>
<clipPath id="clip0">
<rect width="18.9091" height="18.9091" fill="white" transform="translate(11 11)"/>
</clipPath>
</defs>
</svg>
