<?xml version="1.0" encoding="UTF-8"?>
<svg width="43px" height="32px" viewBox="0 0 43 32" version="1.1" xmlns="http://www.w3.org/2000/svg" xmlns:xlink="http://www.w3.org/1999/xlink">
    <!-- Generator: Sketch 50.2 (55047) - http://www.bohemiancoding.com/sketch -->
    <title>Group</title>
    <desc>Created with Sketch.</desc>
    <defs></defs>
    <g id="Symbols" stroke="none" stroke-width="1" fill="none" fill-rule="evenodd">
        <g id="Icon-Copy-14" transform="translate(0.000000, -5.000000)">
            <g id="Group" transform="translate(0.000000, 5.000000)">
                <path d="M2,32 C0.8954305,32 -1.3527075e-16,31.1572419 0,30.1176471 L0,1.88235294 C1.3527075e-16,0.842758118 0.8954305,0 2,0 L41,0 C42.1045695,0 43,0.842758118 43,1.88235294 L43,30.1176471 C43,31.1572419 42.1045695,32 41,32 L2,32 Z" id="Rectangle-2" fill="#E24329"></path>
                <path d="M1.99955087,32 C1.44345538,32 0.912478593,31.7795406 0.534132709,31.3915644 C-0.217201688,30.6211057 -0.170188499,29.4167007 0.639139605,28.7014505 L18.0989761,13.2711796 C20.0168156,11.5762735 22.983193,11.5762735 24.9010325,13.2711796 L42.360869,28.7014505 C42.7684185,29.0616256 43,29.5671013 43,30.0964893 C43,31.1477692 42.1047744,32 41.0004577,32 L1.99955087,32 Z" id="Rectangle-2-Copy" fill="#FC6D26"></path>
                <path d="M1.99669638,0 L41.0033244,8.30185296e-15 C42.1060579,1.16225941e-14 43,0.836963856 43,1.8694111 C43,2.40279031 42.7566519,2.91076949 42.331206,3.26549134 L22.827892,19.5266692 C22.0709546,20.1577769 20.9290661,20.1577769 20.1721287,19.5266692 L0.668814706,3.26549134 C-0.154709062,2.57886617 -0.227794106,1.39720007 0.505574689,0.626166235 C0.884445067,0.227837482 1.42700612,0 1.99669638,0 Z" id="Rectangle-2-Copy-2" fill="#FCBA29"></path>
            </g>
        </g>
    </g>
</svg>