<svg enable-background="new 0 0 752 157" viewBox="0 0 752 157" xmlns="http://www.w3.org/2000/svg"><g fill="#e24329"><path d="m7.636 67c-3.866 0-7 3.134-7 7s3.134 7 7 7 7-3.134 7-7-3.134-7-7-7zm0 12c-2.761 0-5-2.239-5-5s2.239-5 5-5 5 2.239 5 5-2.239 5-5 5z"/><path d="m744.364 67c-3.866 0-7 3.134-7 7s3.134 7 7 7 7-3.134 7-7-3.134-7-7-7zm0 12c-2.761 0-5-2.239-5-5s2.239-5 5-5 5 2.239 5 5-2.239 5-5 5z"/><path d="m8.636 30h308.864v-2h-310.864v39h1 1z"/><path d="m745.364 28h-310.864v2h308.864v37h1 1z"/><path d="m406.66 32h-62.31c-3.774 0-6.844 3.108-6.844 6.928v8.143c0 3.821 3.07 6.929 6.844 6.929h10.257c.464 2.279 2.484 4 4.899 4 2.757 0 5-2.243 5-5s-2.243-5-5-5c-2.406 0-4.418 1.708-4.893 3.975h-10.263c-2.672 0-4.844-2.2-4.844-4.904v-8.143c0-2.704 2.172-4.903 4.844-4.903h62.31c2.672 0 4.844 2.199 4.844 4.903v8.143c0 2.704-2.172 4.904-4.844 4.904h-34.31c-.552 0-1 .453-1 1.013 0 .559.448 1.012 1 1.012h34.31c3.774 0 6.844-3.108 6.844-6.929v-8.143c0-3.82-3.07-6.928-6.844-6.928zm-47.16 18c1.654 0 3 1.346 3 3s-1.346 3-3 3-3-1.346-3-3 1.346-3 3-3z"/><path d="m397.5 47.994c2.757 0 5-2.243 5-5s-2.243-5-5-5v.006c-2.414 0-4.433 1.719-4.898 3.997h-43.11c-.548 0-.991.448-.991 1 0 .555.443 1 .991 1h43.11c.465 2.278 2.484 3.997 4.898 3.997zm0-7.994c1.654 0 3 1.346 3 3s-1.346 3-3 3-3-1.346-3-3 1.346-3 3-3z"/><path d="m344.344 26h62.31c3.775 0 6.845-3.108 6.845-6.929v-8.142c0-3.821-3.07-6.929-6.845-6.929h-34.254c-.464-2.28-2.484-4-4.898-4-2.758 0-5 2.243-5 5s2.242 5 5 5c2.405 0 4.418-1.709 4.892-3.975h34.26c2.672 0 4.845 2.2 4.845 4.904v8.142c0 2.704-2.173 4.904-4.845 4.904h-62.31c-2.672 0-4.845-2.2-4.845-4.904v-8.142c0-2.704 2.173-4.904 4.845-4.904h11.353c.553 0 1-.453 1-1.013 0-.559-.447-1.012-1-1.012h-11.353c-3.775 0-6.845 3.108-6.845 6.929v8.142c0 3.821 3.07 6.929 6.845 6.929zm23.156-18c-1.654 0-3-1.346-3-3s1.346-3 3-3 3 1.346 3 3-1.346 3-3 3z"/><path d="m348.501 14.997c0 .555.443 1 .991 1h43.11c.465 2.278 2.484 3.997 4.898 3.997 2.757 0 5-2.243 5-5s-2.243-5-5-5v.006c-2.414 0-4.433 1.719-4.898 3.997h-43.11c-.548 0-.991.448-.991 1zm48.999-2.997c1.654 0 3 1.346 3 3s-1.346 3-3 3-3-1.346-3-3 1.346-3 3-3z"/><path d="m688.383 131.909c.039 0 .072-.018.11-.022.413 1.769 1.994 3.094 3.887 3.094 2.206 0 4-1.794 4-4s-1.794-4-4-4c-1.843 0-3.383 1.259-3.845 2.958-.052-.008-.098-.031-.152-.031h-9.52c-1.919 0-3.48-1.669-3.48-3.72v-28.56c0-2.051 1.562-3.72 3.48-3.72h5.779l-1.311 1.311c-.391.39-.391 1.023 0 1.414.195.195.451.293.707.293s.512-.098.707-.293l2.974-2.973c.188-.188.293-.442.293-.707s-.105-.52-.293-.707l-2.974-2.973c-.391-.391-1.023-.391-1.414 0s-.391 1.024 0 1.414l1.221 1.221h-5.689c-3.021 0-5.48 2.566-5.48 5.72v28.561c0 3.154 2.459 5.72 5.48 5.72zm3.997-2.928c1.103 0 2 .897 2 2s-.897 2-2 2-2-.897-2-2 .897-2 2-2z"/><path d="m715.385 125.856v-28.19c0-3.174-2.602-5.757-5.8-5.757h-9.367c-.472-1.683-2.003-2.928-3.836-2.928-2.206 0-4 1.794-4 4s1.794 4 4 4c1.885 0 3.459-1.314 3.88-3.072h9.323c2.095 0 3.8 1.686 3.8 3.757v28.19c0 2.234-1.603 4.053-3.571 4.053h-5.801l1.167-1.167c.391-.391.391-1.023 0-1.414s-1.023-.391-1.414 0l-2.973 2.973c-.391.391-.391 1.023 0 1.414l2.973 2.974c.195.195.451.293.707.293s.512-.098.707-.293c.391-.391.391-1.023 0-1.414l-1.365-1.365h5.998c3.073-.001 5.572-2.716 5.572-6.054zm-19.003-30.875c-1.103 0-2-.897-2-2s.897-2 2-2 2 .897 2 2-.898 2-2 2z"/><path d="m707.384 113.469c0-.552-.447-1-1-1h-5.914l-2.928-8.68c-.134-.396-.5-.667-.918-.68-.429-.025-.799.236-.956.624l-5.569 13.753-2.755-4.537c-.181-.299-.505-.481-.854-.481h-4.105c-.553 0-1 .448-1 1s.447 1 1 1h3.543l3.497 5.759c.182.3.507.481.854.481.026 0 .054-.001.08-.003.377-.03.705-.271.847-.621l5.305-13.1 2.295 6.804c.137.406.519.68.947.68h6.632c.551.001.999-.447.999-.999z"/><path d="m279.983 103.023h-32c-.553 0-1 .448-1 1s.447 1 1 1h32c.553 0 1-.448 1-1s-.447-1-1-1z"/><path d="m277.983 110.023c-1.806 0-3.317 1.21-3.813 2.855h-5.374c-.496-1.646-2.008-2.855-3.813-2.855s-3.317 1.21-3.813 2.855h-5.374c-.496-1.646-2.008-2.855-3.813-2.855-2.206 0-4 1.794-4 4s1.794 4 4 4c1.912 0 3.509-1.35 3.903-3.145h5.194c.393 1.795 1.991 3.145 3.903 3.145s3.509-1.35 3.903-3.145h5.194c.393 1.795 1.991 3.145 3.903 3.145 2.206 0 4-1.794 4-4s-1.794-4-4-4zm-26 6c-1.103 0-2-.897-2-2s.897-2 2-2 2 .897 2 2-.897 2-2 2zm13 0c-1.103 0-2-.897-2-2 0-.029.007-.057.009-.086.001-.021.012-.038.012-.059 0-.007-.004-.013-.004-.019.085-1.025.937-1.836 1.983-1.836 1.103 0 2 .897 2 2s-.897 2-2 2zm13 0c-1.103 0-2-.897-2-2s.897-2 2-2 2 .897 2 2-.897 2-2 2z"/><path d="m277.983 122.023c-1.809 0-3.323 1.214-3.816 2.865h-5.368c-.493-1.651-2.007-2.865-3.816-2.865-1.859 0-3.411 1.28-3.858 3h-5.284c-.447-1.72-1.999-3-3.858-3-2.206 0-4 1.794-4 4s1.794 4 4 4c1.859 0 3.411-1.28 3.858-3h5.284c.447 1.72 1.999 3 3.858 3 1.908 0 3.503-1.345 3.9-3.135h5.2c.397 1.79 1.992 3.135 3.9 3.135 2.206 0 4-1.794 4-4s-1.794-4-4-4zm-26 6c-1.103 0-2-.897-2-2s.897-2 2-2 2 .897 2 2-.897 2-2 2zm13 0c-1.103 0-2-.897-2-2s.897-2 2-2 2 .897 2 2-.897 2-2 2zm13 0c-1.103 0-2-.897-2-2s.897-2 2-2 2 .897 2 2-.897 2-2 2z"/><path d="m284.622 93.022h-8.639c-.553 0-1 .448-1 1s.447 1 1 1h8.639c.751 0 1.361.6 1.361 1.336v36.329c0 .736-.61 1.336-1.361 1.336h-39.277c-.751 0-1.361-.6-1.361-1.336v-36.329c0-.737.61-1.336 1.361-1.336h15.78c.447 1.721 1.999 3.001 3.858 3.001 2.206 0 4-1.794 4-4s-1.794-4-4-4c-1.858 0-3.41 1.279-3.858 2.999h-15.781c-1.854 0-3.361 1.497-3.361 3.336v36.329c0 1.84 1.508 3.336 3.361 3.336h39.277c1.854 0 3.361-1.496 3.361-3.336v-36.329c.001-1.839-1.507-3.336-3.36-3.336zm-21.63.91c.049-1.06.919-1.909 1.991-1.909 1.103 0 2 .897 2 2s-.897 2-2 2c-1.072 0-1.943-.85-1.991-1.91.003-.031.018-.058.018-.091 0-.032-.015-.059-.018-.09z"/><path d="m104.069 113.429c0-.087-.034-.164-.101-.23l-4.681-4.681c-.067-.067-.144-.101-.231-.101s-.164.033-.231.101l-.502.502c-.067.067-.101.145-.101.231s.034.164.101.23l3.948 3.947-3.948 3.948c-.067.066-.101.144-.101.23s.034.164.101.231l.502.502c.067.067.144.101.231.101s.164-.033.231-.101l4.681-4.681c.068-.064.101-.141.101-.229z"/><path d="m104.591 108.518c-.067-.067-.144-.101-.231-.101s-.164.033-.231.101l-.502.502c-.067.067-.101.145-.101.231s.034.164.101.23l3.948 3.947-3.948 3.948c-.067.066-.101.144-.101.23s.034.164.101.231l.502.502c.067.067.144.101.231.101s.164-.033.231-.101l4.681-4.681c.067-.066.101-.144.101-.231s-.034-.164-.101-.23z"/><path d="m211.419 113.429c0-.087-.034-.164-.101-.23l-4.681-4.681c-.067-.067-.144-.101-.231-.101s-.164.033-.231.101l-.502.502c-.067.067-.101.145-.101.231s.034.164.101.23l3.948 3.947-3.948 3.948c-.067.066-.101.144-.101.23s.034.164.101.231l.502.502c.067.067.144.101.231.101s.164-.033.231-.101l4.681-4.681c.067-.064.101-.141.101-.229z"/><path d="m211.941 108.518c-.067-.067-.144-.101-.231-.101s-.164.033-.231.101l-.502.502c-.067.067-.101.145-.101.231s.034.164.101.23l3.948 3.947-3.948 3.948c-.067.066-.101.144-.101.23s.034.164.101.231l.502.502c.067.067.144.101.231.101s.164-.033.231-.101l4.681-4.681c.067-.066.101-.144.101-.231s-.034-.164-.101-.23z"/><path d="m318.769 113.429c0-.087-.034-.164-.101-.23l-4.681-4.681c-.067-.067-.144-.101-.231-.101s-.164.033-.231.101l-.502.502c-.067.067-.101.145-.101.231s.034.164.101.23l3.948 3.947-3.948 3.948c-.067.066-.101.144-.101.23s.034.164.101.231l.502.502c.067.067.144.101.231.101s.164-.033.231-.101l4.681-4.681c.067-.064.101-.141.101-.229z"/><path d="m319.291 108.518c-.067-.067-.144-.101-.231-.101s-.164.033-.231.101l-.502.502c-.067.067-.101.145-.101.231s.034.164.101.23l3.948 3.947-3.948 3.948c-.067.066-.101.144-.101.23s.034.164.101.231l.502.502c.067.067.144.101.231.101s.164-.033.231-.101l4.681-4.681c.067-.066.101-.144.101-.231s-.034-.164-.101-.23z"/><path d="m426.118 113.429c0-.087-.034-.164-.101-.23l-4.681-4.681c-.067-.067-.145-.101-.231-.101s-.164.033-.23.101l-.503.502c-.066.067-.101.145-.101.231s.034.164.101.23l3.948 3.947-3.948 3.948c-.066.066-.101.144-.101.23s.034.164.101.231l.503.502c.066.067.144.101.23.101s.164-.033.231-.101l4.681-4.681c.067-.064.101-.141.101-.229z"/><path d="m426.64 108.518c-.066-.067-.144-.101-.23-.101-.088 0-.164.033-.231.101l-.502.502c-.067.067-.101.145-.101.231s.033.164.101.23l3.947 3.947-3.947 3.948c-.067.066-.101.144-.101.23s.033.164.101.231l.502.502c.067.067.144.101.231.101s.164-.033.23-.101l4.681-4.681c.067-.066.101-.144.101-.231s-.033-.164-.101-.23z"/><path d="m533.468 113.429c0-.087-.034-.164-.101-.23l-4.681-4.681c-.067-.067-.145-.101-.231-.101s-.164.033-.23.101l-.503.502c-.066.067-.101.145-.101.231s.034.164.101.23l3.948 3.947-3.948 3.948c-.066.066-.101.144-.101.23s.034.164.101.231l.503.502c.066.067.144.101.23.101s.164-.033.231-.101l4.681-4.681c.067-.064.101-.141.101-.229z"/><path d="m533.989 108.518c-.066-.067-.144-.101-.23-.101-.088 0-.164.033-.231.101l-.502.502c-.067.067-.101.145-.101.231s.033.164.101.23l3.947 3.947-3.947 3.948c-.067.066-.101.144-.101.23s.033.164.101.231l.502.502c.067.067.144.101.231.101s.164-.033.23-.101l4.681-4.681c.067-.066.101-.144.101-.231s-.033-.164-.101-.23z"/><path d="m640.817 113.429c0-.087-.034-.164-.101-.23l-4.681-4.681c-.067-.067-.145-.101-.231-.101s-.164.033-.23.101l-.503.502c-.066.067-.101.145-.101.231s.034.164.101.23l3.948 3.947-3.948 3.948c-.066.066-.101.144-.101.23s.034.164.101.231l.503.502c.066.067.144.101.23.101s.164-.033.231-.101l4.681-4.681c.067-.064.101-.141.101-.229z"/><path d="m641.339 108.518c-.066-.067-.144-.101-.23-.101-.088 0-.164.033-.231.101l-.502.502c-.067.067-.101.145-.101.231s.033.164.101.23l3.947 3.947-3.947 3.948c-.067.066-.101.144-.101.23s.033.164.101.231l.502.502c.067.067.144.101.231.101s.164-.033.23-.101l4.681-4.681c.067-.066.101-.144.101-.231s-.033-.164-.101-.23z"/><path d="m46.281 118.58c0-2.206-1.794-4-3.999-4-.385 0-.751.072-1.104.174-.17-.367-.327-.742-.456-1.128-.331-1.024-.499-2.088-.499-3.161 0-1.358.26-2.671.788-3.935.506-1.212 1.267-2.345 2.199-3.274.97-.964 2.083-1.709 3.316-2.217 2.444-1.024 5.312-1.032 7.796.002 1.226.505 2.34 1.251 3.309 2.212 1.923 1.929 2.981 4.489 2.981 7.213.001 1.074-.167 2.141-.499 3.167-.328 1.009-.818 1.965-1.457 2.84-1.242 1.7-2.226 2.789-3.021 3.669l-.366.404c-1.202 1.32-1.993 2.188-2.27 4.033h-6.011c-.553 0-1 .447-1 1s.447 1 1 1h6.917c.532 0 .972-.417.999-.948.094-1.816.569-2.34 1.843-3.738l.377-.416c.821-.909 1.844-2.04 3.147-3.824.764-1.047 1.351-2.191 1.744-3.403.397-1.228.598-2.501.597-3.784 0-3.256-1.267-6.318-3.569-8.628-1.158-1.149-2.489-2.039-3.955-2.644-2.971-1.236-6.405-1.227-9.329-.002-1.472.606-2.803 1.497-3.96 2.647-1.117 1.114-2.028 2.47-2.648 3.956-.615 1.475-.928 3.046-.928 4.67 0 1.282.2 2.553.599 3.783.173.522.391 1.023.627 1.513-.719.724-1.165 1.719-1.165 2.818 0 2.206 1.794 4 3.998 4 2.205.001 3.999-1.793 3.999-3.999zm-5.997 0c0-1.103.896-2 1.998-2 1.103 0 1.999.897 1.999 2s-.896 2-1.999 2c-1.102 0-1.998-.898-1.998-2z"/><path d="m52.284 134.58c0-.553-.447-1-1-1h-2c-.553 0-1 .447-1 1s.447 1 1 1h2c.553 0 1-.447 1-1z"/><path d="m48.284 130.58c-.553 0-1 .447-1 1s.447 1 1 1h4c.553 0 1-.447 1-1s-.447-1-1-1z"/><path d="m54.284 128.58c0-.553-.447-1-1-1h-6c-.553 0-1 .447-1 1s.447 1 1 1h6c.553 0 1-.447 1-1z"/><path d="m49.284 90.58v4c0 .553.447 1 1 1s1-.447 1-1v-4c0-.553-.447-1-1-1s-1 .447-1 1z"/><path d="m38.698 98.994c.256 0 .512-.098.707-.293.391-.391.391-1.023 0-1.414l-2.828-2.828c-.391-.391-1.023-.391-1.414 0s-.391 1.023 0 1.414l2.828 2.828c.195.195.451.293.707.293z"/><path d="m33.284 108.58h-4c-.553 0-1 .447-1 1s.447 1 1 1h4c.553 0 1-.447 1-1s-.447-1-1-1z"/><path d="m62.991 94.459-2.828 2.828c-.391.391-.391 1.023 0 1.414.195.195.451.293.707.293s.512-.098.707-.293l2.828-2.828c.391-.391.391-1.023 0-1.414s-1.023-.391-1.414 0z"/><path d="m71.284 108.58h-4c-.553 0-1 .447-1 1s.447 1 1 1h4c.553 0 1-.447 1-1s-.447-1-1-1z"/><path d="m37.33 147.676h1.624v9.156h-1.624z"/><path d="m43.635 147.676h-2.45v9.156h2.534c.681 0 1.291-.098 1.827-.294s.994-.487 1.372-.875.667-.87.868-1.449c.2-.578.301-1.246.301-2.002 0-1.512-.392-2.646-1.176-3.402s-1.876-1.134-3.276-1.134zm2.037 7.035c-.5.537-1.216.805-2.149.805h-.714v-6.523h.714c.924 0 1.638.257 2.142.77.504.514.756 1.33.756 2.45 0 1.129-.25 1.962-.749 2.498z"/><path d="m51.481 152.758h3.29v-1.372h-3.29v-2.338h3.892v-1.372h-5.516v9.156h5.656v-1.372h-4.032z"/><path d="m59.51 147.676-2.982 9.156h1.652l.714-2.478h3.08l.714 2.478h1.708l-2.982-9.156zm-.239 5.404.322-1.12c.149-.485.289-.982.42-1.491.13-.509.261-1.02.392-1.533h.056c.131.505.264 1.014.399 1.526.135.514.277 1.013.427 1.498l.322 1.12z"/><path d="m139.491 147.676h-2.45v9.156h2.534c.681 0 1.291-.098 1.827-.294s.994-.487 1.372-.875.667-.87.868-1.449c.2-.578.301-1.246.301-2.002 0-1.512-.392-2.646-1.176-3.402s-1.875-1.134-3.276-1.134zm2.037 7.035c-.5.537-1.216.805-2.149.805h-.714v-6.523h.714c.924 0 1.638.257 2.142.77.504.514.756 1.33.756 2.45 0 1.129-.25 1.962-.749 2.498z"/><path d="m147.337 152.758h3.29v-1.372h-3.29v-2.338h3.892v-1.372h-5.516v9.156h5.656v-1.372h-4.032z"/><path d="m153.071 156.832h1.624v-3.822h3.332v-1.372h-3.332v-2.59h3.906v-1.372h-5.53z"/><path d="m160.07 147.676h1.624v9.156h-1.624z"/><path d="m169.231 151.652c0 .513.026 1.043.077 1.589s.096 1.057.133 1.533h-.056l-.938-1.946-2.856-5.152h-1.666v9.156h1.554v-4.004c0-.514-.025-1.036-.077-1.568-.052-.531-.096-1.04-.133-1.525h.056l.938 1.945 2.856 5.152h1.666v-9.156h-1.554z"/><path d="m174.641 152.758h3.29v-1.372h-3.29v-2.338h3.892v-1.372h-5.516v9.156h5.656v-1.372h-4.032z"/><path d="m142.633 129.938c0-1.861-1.283-3.416-3.007-3.86v-4.251c1.724-.445 3.007-1.999 3.007-3.86s-1.283-3.416-3.007-3.86v-4.251c1.724-.445 3.007-1.999 3.007-3.86s-1.283-3.416-3.007-3.86v-4.251c1.724-.445 3.007-1.999 3.007-3.86 0-2.206-1.794-4-4-4s-4 1.794-4 4c0 1.856 1.276 3.406 2.993 3.856v4.26c-1.717.45-2.993 2-2.993 3.856s1.276 3.406 2.993 3.856v4.26c-1.717.45-2.993 2-2.993 3.856s1.276 3.406 2.993 3.856v4.26c-1.717.45-2.993 2-2.993 3.856 0 2.206 1.794 4 4 4s4-1.797 4-4.003zm-6-35.915c0-1.103.897-2 2-2s2 .897 2 2c0 1.088-.874 1.972-1.956 1.996-.018-.001-.033-.01-.051-.01-.016 0-.03.008-.046.009-1.077-.029-1.947-.911-1.947-1.995zm0 11.972c0-1.103.897-2 2-2s2 .897 2 2c0 1.088-.874 1.972-1.956 1.996-.018-.001-.033-.01-.051-.01-.016 0-.03.008-.046.009-1.077-.03-1.947-.911-1.947-1.995zm0 11.971c0-1.103.897-2 2-2s2 .897 2 2c0 1.088-.874 1.972-1.956 1.996-.018-.001-.033-.01-.051-.01-.016 0-.03.008-.046.009-1.077-.029-1.947-.91-1.947-1.995zm0 11.972c0-1.103.897-2 2-2s2 .897 2 2-.897 2-2 2-2-.897-2-2z"/><path d="m179.633 90.856h-32c-.553 0-1 .447-1 1s.447 1 1 1h32c.553 0 1-.447 1-1s-.447-1-1-1z"/><path d="m147.633 96.856h20c.553 0 1-.447 1-1s-.447-1-1-1h-20c-.553 0-1 .447-1 1s.448 1 1 1z"/><path d="m179.633 102.856h-32c-.553 0-1 .447-1 1s.447 1 1 1h32c.553 0 1-.447 1-1s-.447-1-1-1z"/><path d="m147.633 108.856h20c.553 0 1-.447 1-1s-.447-1-1-1h-20c-.553 0-1 .447-1 1s.448 1 1 1z"/><path d="m179.605 114.856h-32c-.553 0-1 .447-1 1s.447 1 1 1h32c.553 0 1-.447 1-1s-.447-1-1-1z"/><path d="m147.633 120.856h20c.553 0 1-.447 1-1s-.447-1-1-1h-20c-.553 0-1 .447-1 1s.448 1 1 1z"/><path d="m179.605 126.856h-32c-.553 0-1 .447-1 1s.447 1 1 1h32c.553 0 1-.447 1-1s-.447-1-1-1z"/><path d="m167.605 132.856c.553 0 1-.447 1-1s-.447-1-1-1h-20c-.553 0-1 .447-1 1s.447 1 1 1z"/><path d="m255.374 148.292c-.308-.224-.674-.383-1.099-.476-.425-.094-.889-.141-1.393-.141h-3.08v9.156h1.624v-3.36h1.456c.495 0 .954-.058 1.379-.175.424-.116.793-.299 1.106-.546.312-.247.558-.558.735-.931s.266-.812.266-1.316c0-.532-.089-.978-.266-1.337s-.42-.65-.728-.874zm-2.618 3.878h-1.33v-3.191h1.33c.672 0 1.176.109 1.512.328.336.22.504.619.504 1.197 0 1.111-.672 1.666-2.016 1.666z"/><path d="m259.522 147.676h-1.624v9.156h5.433v-1.372h-3.809z"/><path d="m267.188 147.676-2.982 9.156h1.652l.714-2.478h3.08l.714 2.478h1.708l-2.982-9.156zm-.239 5.404.322-1.12c.149-.485.289-.982.42-1.491.13-.509.261-1.02.392-1.533h.056c.131.505.264 1.014.399 1.526.135.514.277 1.013.427 1.498l.322 1.12z"/><path d="m278.609 151.652c0 .513.026 1.043.077 1.589s.096 1.057.133 1.533h-.056l-.938-1.946-2.856-5.152h-1.666v9.156h1.554v-4.004c0-.514-.025-1.036-.077-1.568-.052-.531-.096-1.04-.133-1.525h.056l.938 1.945 2.856 5.152h1.666v-9.156h-1.554z"/><path d="m363.517 94.981h-9.185c-1.654 0-3 1.301-3 2.9v34.199c0 1.6 1.346 2.9 3 2.9h36c1.654 0 3-1.301 3-2.9v-34.199c0-1.6-1.346-2.9-3-2.9h-5.08c-.488-3.386-3.401-6-6.92-6-3.859 0-7 3.141-7 7s3.141 7 7 7c3.519 0 6.432-2.614 6.92-6h5.08c.552 0 1 .404 1 .9v34.199c0 .496-.448.9-1 .9h-36c-.552 0-1-.404-1-.9v-34.199c0-.496.448-.9 1-.9h9.185c.553 0 1-.447 1-1s-.447-1-1-1zm14.816 6c-2.757 0-5-2.243-5-5s2.243-5 5-5 5 2.243 5 5-2.244 5-5 5z"/><path d="m362.851 124.327c.195.195.451.293.707.293s.512-.098.707-.293l8.165-8.165c.391-.391.391-1.023 0-1.414l-8.165-8.166c-.391-.391-1.023-.391-1.414 0s-.391 1.023 0 1.414l7.458 7.459-7.458 7.458c-.391.391-.391 1.024 0 1.414z"/><path d="m381.107 124.981c.553 0 1-.447 1-1s-.447-1-1-1h-6c-.553 0-1 .447-1 1s.447 1 1 1z"/><path d="m355.128 155.348c-.303.159-.66.238-1.071.238-.775 0-1.389-.296-1.841-.889s-.679-1.412-.679-2.457c0-.514.063-.976.189-1.386.126-.411.303-.759.532-1.044.229-.284.499-.504.812-.657.313-.154.661-.231 1.043-.231.354 0 .665.068.931.203.266.136.516.32.749.553l.91-1.008c-.29-.308-.656-.578-1.099-.812s-.945-.351-1.505-.351c-.588 0-1.139.107-1.652.322-.514.215-.961.527-1.344.938s-.684.913-.903 1.506c-.22.593-.329 1.262-.329 2.009 0 .756.107 1.428.322 2.016s.509 1.083.882 1.484.812.705 1.316.91 1.05.308 1.638.308c.578 0 1.106-.114 1.582-.343s.901-.558 1.274-.987l-.91-.994c-.261.29-.544.513-.847.672z"/><path d="m364.269 152.086c.331-.429.497-.994.497-1.694 0-.513-.086-.942-.259-1.287-.173-.346-.408-.623-.707-.833-.299-.211-.653-.362-1.064-.455-.411-.094-.854-.141-1.33-.141h-3.094v9.156h1.624v-3.584h1.4l1.974 3.584h1.82l-2.184-3.822c.55-.187.991-.494 1.323-.924zm-3.032-.126h-1.302v-2.981h1.302c.625 0 1.104.103 1.435.308s.497.574.497 1.105c0 .523-.166.915-.497 1.177-.331.26-.809.391-1.435.391z"/><path d="m368.242 152.758h3.29v-1.372h-3.29v-2.338h3.892v-1.372h-5.516v9.156h5.655v-1.372h-4.031z"/><path d="m376.271 147.676-2.982 9.156h1.652l.714-2.478h3.08l.714 2.478h1.708l-2.982-9.156zm-.239 5.404.322-1.12c.148-.485.289-.982.42-1.491.13-.509.261-1.02.392-1.533h.056c.131.505.264 1.014.399 1.526.136.514.277 1.013.427 1.498l.322 1.12z"/><path d="m380.76 149.048h2.646v7.784h1.624v-7.784h2.646v-1.372h-6.916z"/><path d="m390.733 152.758h3.29v-1.372h-3.29v-2.338h3.893v-1.372h-5.517v9.156h5.657v-1.372h-4.033z"/><path d="m463.586 152.086c.331-.429.497-.994.497-1.694 0-.513-.086-.942-.259-1.287-.173-.346-.408-.623-.707-.833-.299-.211-.653-.362-1.064-.455-.41-.094-.854-.141-1.33-.141h-3.094v9.156h1.624v-3.584h1.4l1.974 3.584h1.82l-2.185-3.822c.551-.187.993-.494 1.324-.924zm-3.031-.126h-1.302v-2.981h1.302c.626 0 1.104.103 1.436.308.331.205.497.574.497 1.105 0 .523-.166.915-.497 1.177-.333.26-.81.391-1.436.391z"/><path d="m467.56 152.758h3.29v-1.372h-3.29v-2.338h3.891v-1.372h-5.515v9.156h5.655v-1.372h-4.031z"/><path d="m477.198 152.282c-.14.522-.269 1.018-.385 1.483-.117.467-.255.967-.413 1.498h-.056c-.159-.531-.297-1.031-.413-1.498-.117-.466-.25-.961-.399-1.483l-1.288-4.606h-1.722l2.855 9.156h1.918l2.843-9.156h-1.666z"/><path d="m481.354 147.676h1.624v9.156h-1.624z"/><path d="m486.834 152.758h3.29v-1.372h-3.29v-2.338h3.893v-1.372h-5.517v9.156h5.656v-1.372h-4.032z"/><path d="m500.28 152.296c-.075.485-.147.971-.217 1.456s-.143.976-.218 1.47h-.056c-.103-.494-.205-.986-.308-1.477-.104-.49-.206-.973-.309-1.449l-1.12-4.62h-1.414l-1.12 4.62c-.103.485-.202.973-.301 1.463-.098.49-.198.979-.301 1.463h-.056c-.075-.484-.149-.971-.225-1.456-.074-.484-.149-.975-.224-1.47l-.798-4.62h-1.666l1.819 9.156h1.975l1.105-4.816c.075-.354.147-.707.218-1.057.069-.35.138-.702.202-1.057h.057c.056.354.119.707.188 1.057.07.35.143.702.218 1.057l1.134 4.816h2.016l1.75-9.156h-1.554z"/><path d="m567.344 152.086c.331-.429.497-.994.497-1.694 0-.513-.086-.942-.259-1.287-.173-.346-.408-.623-.707-.833-.299-.211-.653-.362-1.064-.455-.41-.094-.854-.141-1.33-.141h-3.094v9.156h1.624v-3.584h1.4l1.974 3.584h1.82l-2.185-3.822c.551-.187.993-.494 1.324-.924zm-3.032-.126h-1.302v-2.981h1.302c.626 0 1.104.103 1.436.308.331.205.497.574.497 1.105 0 .523-.166.915-.497 1.177-.332.26-.81.391-1.436.391z"/><path d="m571.317 152.758h3.29v-1.372h-3.29v-2.338h3.892v-1.372h-5.516v9.156h5.656v-1.372h-4.032z"/><path d="m578.676 147.676h-1.624v9.156h5.431v-1.372h-3.807z"/><path d="m585.576 152.758h3.29v-1.372h-3.29v-2.338h3.892v-1.372h-5.516v9.156h5.655v-1.372h-4.031z"/><path d="m593.604 147.676-2.981 9.156h1.651l.714-2.478h3.08l.714 2.478h1.708l-2.981-9.156zm-.238 5.404.322-1.12c.149-.485.289-.982.42-1.491s.262-1.02.393-1.533h.056c.131.505.264 1.014.399 1.526.135.514.277 1.013.427 1.498l.322 1.12z"/><path d="m605.323 152.716c-.164-.195-.357-.368-.581-.518-.225-.149-.472-.28-.742-.393l-1.246-.518c-.187-.074-.369-.151-.546-.231-.178-.079-.334-.168-.469-.266-.136-.098-.243-.21-.322-.336s-.119-.277-.119-.455c0-.336.131-.6.392-.791.262-.191.611-.287 1.051-.287.392 0 .746.07 1.063.21.317.141.625.332.924.574l.826-1.036c-.354-.354-.779-.637-1.273-.847-.495-.21-1.009-.315-1.54-.315-.448 0-.861.065-1.239.196s-.702.312-.973.546c-.271.233-.483.507-.638.819-.153.312-.23.65-.23 1.015 0 .336.054.635.161.896.106.261.249.489.427.686.177.196.375.364.595.504s.441.257.665.351l1.26.546c.205.084.395.168.567.252s.322.175.448.272c.126.099.224.213.294.343.069.131.104.29.104.477 0 .354-.135.64-.405.854-.271.215-.668.322-1.19.322-.42 0-.84-.096-1.26-.287s-.794-.44-1.12-.749l-.952 1.106c.438.429.945.761 1.519.994.574.232 1.17.35 1.785.35.514 0 .974-.072 1.379-.217.406-.145.752-.341 1.036-.588.285-.247.502-.534.651-.861.149-.326.224-.677.224-1.05 0-.336-.047-.633-.14-.889-.095-.256-.223-.483-.386-.679z"/><path d="m609.092 152.758h3.29v-1.372h-3.29v-2.338h3.891v-1.372h-5.515v9.156h5.655v-1.372h-4.031z"/><path d="m473.84 108.667c-.276-.479-.89-.645-1.366-.364l-6.586 3.812c-.309.179-.499.509-.499.865s.19.687.499.865l6.586 3.812c.158.092.33.135.5.135.346 0 .681-.179.866-.499.277-.478.113-1.09-.364-1.366l-5.091-2.947 5.091-2.947c.477-.276.642-.888.364-1.366z"/><path d="m485.524 117.294c.186.32.521.499.866.499.17 0 .343-.043.5-.135l6.586-3.812c.309-.179.499-.509.499-.865s-.19-.687-.499-.865l-6.586-3.812c-.481-.28-1.09-.114-1.366.364-.277.478-.113 1.09.364 1.366l5.091 2.947-5.091 2.947c-.477.276-.642.888-.364 1.366z"/><path d="m481.679 104.012-5.887 17.293c-.179.522.102 1.091.624 1.269.106.037.216.054.322.054.416 0 .805-.262.946-.678l5.887-17.293c.179-.522-.102-1.091-.624-1.269-.522-.183-1.089.101-1.268.624z"/><path d="m499.707 102.803c-.512.207-.759.79-.552 1.302 1.013 2.503 1.526 5.152 1.526 7.876 0 11.579-9.421 21-21 21s-21-9.421-21-21 9.421-21 21-21c4.253 0 8.303 1.265 11.788 3.639-.504.682-.788 1.497-.788 2.361 0 1.068.416 2.073 1.172 2.828.755.756 1.76 1.172 2.828 1.172s2.073-.416 2.828-1.172c.756-.755 1.172-1.76 1.172-2.828s-.416-2.073-1.172-2.828c-1.145-1.146-2.936-1.419-4.394-.827-3.931-2.836-8.562-4.345-13.434-4.345-12.683 0-23 10.317-23 23s10.317 23 23 23 23-10.317 23-23c0-2.981-.562-5.884-1.673-8.626-.206-.513-.788-.76-1.301-.552zm-6.439-7.237c.378-.378.88-.586 1.414-.586s1.036.208 1.414.586.586.88.586 1.414-.208 1.036-.586 1.414c-.756.756-2.072.756-2.828 0-.378-.378-.586-.88-.586-1.414s.208-1.036.586-1.414z"/><path d="m670.897 152.184-.588 1.736h-.056l-.603-1.736-1.65-4.508h-1.792v9.156h1.498v-4.186c0-.215-.008-.448-.021-.7s-.033-.507-.056-.764c-.023-.256-.047-.508-.07-.756-.023-.247-.044-.478-.062-.692h.056l.728 2.086 1.582 4.158h.756l1.582-4.158.742-2.086h.057c-.02.215-.042.445-.07.692-.028.248-.052.5-.07.756-.019.257-.035.512-.049.764s-.021.485-.021.7v4.186h1.525v-9.156h-1.792z"/><path d="m678.174 152.758h3.29v-1.372h-3.29v-2.338h3.891v-1.372h-5.515v9.156h5.655v-1.372h-4.031z"/><path d="m686.202 147.676-2.981 9.156h1.651l.714-2.478h3.08l.714 2.478h1.708l-2.981-9.156zm-.238 5.404.322-1.12c.149-.485.289-.982.42-1.491s.262-1.02.393-1.533h.056c.131.505.264 1.014.399 1.526.135.514.277 1.013.427 1.498l.322 1.12z"/><path d="m697.92 152.716c-.163-.195-.356-.368-.581-.518-.224-.149-.471-.28-.742-.393l-1.245-.518c-.188-.074-.369-.151-.547-.231-.177-.079-.333-.168-.469-.266-.135-.098-.242-.21-.322-.336-.079-.126-.118-.277-.118-.455 0-.336.13-.6.392-.791.261-.191.611-.287 1.05-.287.393 0 .747.07 1.064.21.317.141.625.332.924.574l.826-1.036c-.355-.354-.779-.637-1.274-.847s-1.008-.315-1.54-.315c-.448 0-.86.065-1.239.196-.378.131-.702.312-.973.546s-.482.507-.637.819-.231.65-.231 1.015c0 .336.054.635.161.896s.25.489.427.686c.178.196.376.364.596.504.219.14.44.257.665.351l1.26.546c.205.084.395.168.566.252.173.084.322.175.448.272.126.099.225.213.294.343.07.131.105.29.105.477 0 .354-.136.64-.406.854-.271.215-.667.322-1.19.322-.42 0-.84-.096-1.26-.287s-.793-.44-1.12-.749l-.951 1.106c.438.429.944.761 1.519.994.574.232 1.169.35 1.785.35.513 0 .973-.072 1.379-.217s.751-.341 1.036-.588c.284-.247.501-.534.65-.861.149-.326.225-.677.225-1.05 0-.336-.047-.633-.141-.889s-.223-.483-.386-.679z"/><path d="m705.297 152.94c0 .494-.047.912-.14 1.253-.094.341-.225.613-.393.818-.168.206-.368.353-.602.441s-.49.133-.771.133c-.279 0-.531-.044-.756-.133-.224-.089-.418-.235-.581-.441-.163-.205-.289-.478-.378-.818s-.133-.759-.133-1.253v-5.265h-1.624v5.139c0 .756.082 1.397.245 1.925s.396.959.7 1.295c.303.336.667.581 1.092.734.425.154.903.231 1.435.231s1.011-.077 1.436-.231c.425-.153.788-.398 1.092-.734s.534-.768.693-1.295c.158-.527.237-1.169.237-1.925v-5.139h-1.554v5.265z"/><path d="m714.998 152.086c.331-.429.497-.994.497-1.694 0-.513-.087-.942-.26-1.287-.173-.346-.408-.623-.707-.833-.299-.211-.653-.362-1.063-.455-.411-.094-.854-.141-1.33-.141h-3.094v9.156h1.624v-3.584h1.399l1.975 3.584h1.819l-2.184-3.822c.552-.187.992-.494 1.324-.924zm-3.031-.126h-1.302v-2.981h1.302c.625 0 1.104.103 1.435.308s.497.574.497 1.105c0 .523-.166.915-.497 1.177-.332.26-.81.391-1.435.391z"/><path d="m718.971 152.758h3.29v-1.372h-3.29v-2.338h3.892v-1.372h-5.516v9.156h5.656v-1.372h-4.032z"/><path d="m578.707 125.836c-2.784 0-5.348 1.428-6.831 3.724-.799-.489-1.72-.751-2.683-.751-2.847 0-5.162 2.315-5.162 5.162 0 .553.447 1 1 1h44c.553 0 1-.447 1-1 0-2.847-2.315-5.162-5.162-5.162-.963 0-1.883.262-2.683.751-1.483-2.296-4.047-3.724-6.831-3.724-1.491 0-2.93.404-4.185 1.161l-1.197-8.08h.01l2.174 4.34c.27.475.763.778 1.378.812l1.703-.003c.399-.03.769-.198 1.041-.474.21-.212.344-.447.408-.705l2.047-7.839c.095-.479-.029-.987-.362-1.398l-4.276-4.786c.13-1.648.198-3.09.21-4.402-.014-6.368-1.74-10.584-6.159-15.035-.59-.596-1.659-.577-2.258.025-3.3 3.325-4.913 6.078-5.645 9.631-.759.143-1.479.496-2.042 1.059-.756.755-1.172 1.76-1.172 2.828s.416 2.073 1.172 2.828c.755.756 1.76 1.172 2.828 1.172s2.073-.416 2.828-1.172c.756-.755 1.172-1.76 1.172-2.828s-.416-2.073-1.172-2.828c-.451-.451-1.007-.751-1.599-.933.658-2.912 2.045-5.263 4.771-8.065 3.827 3.964 5.264 7.618 5.275 13.311-.012 1.364-.09 2.893-.237 4.673-.023.273.067.545.25.749l4.412 4.936-1.896 7.257-1.036.002-2.303-4.602c-.17-.339-.516-.553-.895-.553h-7.141c-.379 0-.725.214-.895.553l-2.303 4.6-1.036.001-1.897-7.255 4.413-4.938c.367-.411.332-1.044-.08-1.412-.411-.366-1.042-.333-1.412.08l-4.594 5.144c-.301.373-.425.882-.316 1.419l2.033 7.78c.173.662.781 1.147 1.526 1.182h1.626c.411 0 .818-.173 1.114-.472.062-.062.19-.189.289-.388l2.149-4.293h.009l-1.197 8.08c-1.251-.758-2.689-1.162-4.181-1.162zm3.739-24.279c.378.378.586.88.586 1.414s-.208 1.036-.586 1.414c-.756.756-2.072.756-2.828 0-.378-.378-.586-.88-.586-1.414s.208-1.036.586-1.414.88-.586 1.414-.586 1.036.208 1.414.586zm1.511 28.206c.354-.122.61-.43.665-.8l1.488-10.046h1.842l1.488 10.046c.055.37.312.678.665.8s.746.034 1.016-.224c1.148-1.099 2.652-1.703 4.234-1.703 2.422 0 4.622 1.434 5.606 3.651.135.305.412.521.739.579.328.061.664-.051.894-.289.604-.625 1.411-.969 2.274-.969 1.395 0 2.581.907 3 2.162h-41.676c.419-1.255 1.605-2.162 3-2.162.864 0 1.671.344 2.273.968.23.239.566.352.894.29.328-.058.605-.274.74-.579.984-2.218 3.185-3.651 5.606-3.651 1.582 0 3.086.604 4.234 1.703.273.258.666.345 1.018.224z"/></g></svg>