<svg height="104" viewBox="0 0 264 104" width="264" xmlns="http://www.w3.org/2000/svg"><path d="m301.135764 61.2769124c0-3.1245667-2.547094-5.708343-5.665545-5.708343-3.147258.0096141-5.696754 2.5573377-5.713558 5.708343.009603 3.1461983 2.5663 5.6867114 5.708757 5.6770973h.004801c3.142457 0 5.665545-2.5236885 5.665545-5.6770973zm-5.665545-6.5784146c3.615386.0120176 6.536983 2.9563208 6.52738 6.5784146.007202 3.6100763-2.911994 6.5423619-6.515377 6.5495725h-.012003c-3.624988 0-6.6018-2.9130576-6.6018-6.547169.014404-3.6389184 2.967209-6.5808181 6.6018-6.5808181zm1.680458 5.0473769c0-.8412294-.720196-1.233002-1.824497-1.233002h-1.296354v2.6150219h1.296354c1.17392 0 1.824497-.4518604 1.824497-1.3820199zm1.272347 5.1074648h-1.200327v-.9013173c0-1.5622834-.480131-1.9540559-1.800491-1.9540559h-1.296353v2.8553732h-1.152315v-7.2105385h2.448668c1.512413 0 3.070437.3292813 3.070437 2.1030737 0 1.2017565-.909848 1.6223712-1.776484 1.7401433 1.106702.2980356 1.634846.8989138 1.634846 2.1631616v1.2017564zm-49.527907 14.9017795-16.624534-24.8475156h19.867818l6.390543 11.4767738 7.44203-11.4767738h19.918232l-17.908884 24.9076034 18.821133 29.2627692h-19.466909l-9.045667-15.9545186-11.431918 15.9545186h-19.658962zm-24.484278-24.8451121h-16.264435zm-8.133418 58.7346431c5.615132 0 10.169174 4.55706 10.169174 10.178877 0 5.621816-4.554042 10.176473-10.169174 10.176473-5.612731 0-10.161971-4.554657-10.161971-10.17407 0-5.621816 4.54924-10.176473 10.161971-10.176473zm-32.677712-40.6794547c0-1.8026346-.448922-3.1558124-1.442793-4.1460596-1.918124-1.9228103-5.610331-2.1944073-8.373484-2.2256529v12.7698636c6.964299 0 9.816277-1.9228102 9.816277-6.4005546zm4.441211 14.5412526 16.533309 21.5715281h-20.463181l-10.322815-16.1636243v16.1636243h-16.238028v-54.1679691h21.279403c6.328126 0 11.429517 1.7689855 14.792834 5.1363069 3.000819 3.0043911 4.530036 7.0591172 4.530036 12.1088977 0 7.4508897-3.929872 13.2193205-10.111558 15.3512364zm-75.711848-18.446961v-14.14948h40.842338v14.14948h-12.334564v40.0184891h-16.17321v-40.0184891zm-4.349987-14.14948v54.1679691h-16.233227v-54.1655656zm-8.1310173-24.9076034c5.6079293-.009614 10.1619713 4.5354287 10.1715743 10.1500347v.004807c0 5.6482551-4.561244 10.2149295-10.1715743 10.2149295-5.6415386 0-10.1739748-4.5666744-10.1739748-10.2149295.0048013-5.6170095 4.5564427-10.1620522 10.1643721-10.1548417zm-13.0547604 32.3849318-8.5511322 13.8201988c-2.4006547-3.9946383-7.1155406-6.5784146-11.91685-6.5784146-6.8106575 0-11.792016 5.5569216-11.792016 12.378091 0 6.8163624 4.9813585 12.3780911 11.792016 12.3780911 4.8013094 0 9.5161953-2.5837763 11.91685-6.5784146l8.5511322 13.84183c-5.3366555 5.583361-12.7210694 8.736769-20.4367737 8.731962-15.6618714 0-28.3565336-12.6905473-28.3565336-28.3734685 0-15.6516755 12.6946622-28.392697 28.3565336-28.392697 8.0421933 0 15.2729654 3.364918 20.4367737 8.7728218zm121.3867057 46.6834297h16.230826v-54.1775827h-16.230826z" fill="#fff" fill-rule="evenodd" transform="translate(-38 -30)"/></svg>