<svg height="78" viewBox="0 0 146 78" width="146" xmlns="http://www.w3.org/2000/svg"><path d="m872.429647 40.9273899c-.148969 3.8506329-4.305762 3.8506329-4.305762 3.8506329h-2.969492v-7.4050633h2.969492s4.454237-.2962025 4.305762 3.5544304m4.602712-.1481013c0-5.9240506-8.908474-5.3316456-8.908474-5.3316456h-2.969492-4.157783v1.9253165 7.4050633 1.6291139 9.1822785h4.157783v-9.1822785h2.227119l6.24979 7.5788355s1.173939 1.603443 2.955139 1.603443h3.41541l-8.065634-9.6018987c2.419146-.5830254 5.096142-1.9608608 5.096142-5.2082279zm79.50581-5.3316949c-.695851 0-1.260054.5627848-1.260054 1.2563924v12.6493291l-13.807641-13.9057215h-.297444-2.078644-.296949v20.1417721h2.375593v-15.0688101l14.402529 14.6245063.000495-.0019747c.23063.2725064.576081.4462785.962115.4462785h1.412488v-20.1417721zm-130.13564 8.8860759h-10.244746v-8.8860759h-4.157783v20.1417721h4.157783v-9.478481h10.244746v7.4050633c0 1.1448228.93044 2.0734177 2.078149 2.0734177h2.078644v-20.1417721h-4.156793zm80.0274 11.2556469h2.078645v-20.1417722h-1.732204-2.375593-.048997v.0903418l-8.125518 14.8056835-8.355655-14.8960253h-1.781694-.593899-1.7812v20.1417722h2.375099v-15.2341899l8.46305 15.058443v.1757469h1.335777v-.0888608l8.46404-15.3181139v13.3335569c0 1.1453165.930441 2.0734178 2.078149 2.0734178zm-61.412994-15.1712469 3.465891 6.7297215h-5.599966l-1.039322 2.0734178h7.707316l2.559206 4.9687974s.497885 1.3990633 2.242461 1.3990633h2.783899l-10.393221-20.5855823h-1.484745l-10.689675 20.5855823h2.523573zm78.042444-5.4147304-10.690664 20.586076h2.524562l3.326326-6.3683544h7.660793l-1.039322-2.0734178h-5.538597l3.514888-6.7297215 7.093621 13.7724304s.497885 1.3990633 2.242461 1.3990633h2.783898l-10.39322-20.586076zm6.590687-17.9657696c.057411-.7010126.09057-1.4262152.09057-2.1761012 0-7.40506334-6.384407-14.5139241-20.341017-14.36582283-13.95661.14810126-29.101017 7.40506329-29.101017 7.40506329s-15.738305 6.51645574-30.437288 19.54936704h.296949 2.078644s22.568136-13.7832911 52.856949-13.6253164c7.656339.0399873 13.623532 1.0520127 18.256929 2.5073544.487987 4.597557-2.518624 11.117962-2.518624 11.117962h5.790509s2.041525-3.3954683 2.820522-8.6155443c7.382156 3.8861773 9.205919 8.6155443 9.205919 8.6155443h2.672542s-2.121702-6.046481-11.671587-10.4125063zm-24.259261-4.3976202c-21.500603 0-41.094298 7.921443-50.070576 12.1778734 7.286637-5.5483671 25.780631-17.31600002 43.092271-19.73103799 20.108407-2.80503797 23.436217 4.88388608 24.615105 9.60535439-4.655667-1.2415822-10.447166-2.0521898-17.6368-2.0521898zm-32.613183 61.3364354c9.117824-3.3327721 15.835309-7.7239747 15.835309-7.7239747h-5.493559s-7.695933 4.8784557-17.492285 7.8177722c-17.560088-.5632785-24.377051-7.8177722-24.377051-7.8177722h-1.039817s5.766753 7.1606962 22.01383 8.7320507c-2.525552.5973417-5.140189 1.0293038-7.760271 1.1912278-14.402034.8881139-17.965423-8.4422658-17.816949-9.9232785h-.742373s1.187797 11.2561899 18.114393 11.4042912c5.044672.0439367 10.155662-.9517975 14.845478-2.3706076 23.823241-.0370253 39.941641-9.0336836 39.941641-9.0336836h-1.633715c-10.530807 4.521038-22.139044 7.1305823-34.394631 7.7239747z" fill="#fff" fill-rule="evenodd" transform="translate(-812)"/></svg>