<svg height="84" viewBox="0 0 340 84" width="340" xmlns="http://www.w3.org/2000/svg"><path d="m589.223915 96.51024v16.0812c-9.026335 4.476-17.551744 6.7968-26.077153 6.7968-23.703203 0-38.027972-13.926-38.027972-31.4988 0-18.7332 16.33089-34.482 37.024911-34.482 5.182278 0 9.026335.9948 13.205552 2.3208 2.842206.8292 4.680142 1.9896 6.519288 1.9896 1.503986 0 2.006121-2.6532 2.173096-4.3104h2.340071l2.006121 21.7164h-2.674021c-1.170036-4.1436-3.176157-7.7916-5.850178-10.278-4.347402-4.1448-10.19758-6.4656-17.050819-6.4656-14.175943 0-22.533167 11.2728-22.533167 28.0176 0 16.578 10.19758 28.0164 23.703203 28.0164 4.011032 0 7.689324-.9948 12.202491-2.9832v-16.5792c0-5.304-.836085-7.2936-8.525409-7.2936v-2.4864h28.584199v2.4864c-7.188398 0-7.020213 2.1552-7.020213 8.952zm-78.798933-26.5248v48.2424h-3.828327l-48.559502-49.7352c.233523 1.3272.233523 2.4876.233523 3.8136v30.1716c0 9.45 0 12.7656 8.575018 12.7656v2.4864h-22.816299v-2.4864c8.593167 0 8.593167-3.9792 8.593167-12.7656v-34.482c0-5.1396 0-10.776-9.027544-10.776v-2.3208h21.446619l39.966335 40.6164c-.215374-.9948-.215374-1.6572-.215374-3.3156v-22.2144c0-8.952.215374-12.7656-8.358434-12.7656v-2.3208h22.817509v2.3208c-8.358435 0-8.826691 3.6468-8.826691 12.7656zm-110.424982 47.7444v-2.4864c5.415801 0 9.261068-.3312 9.261068-8.2884v-41.4456c0-7.9584-2.942634-8.2896-9.261068-8.2896v-2.3208h32.060427v2.3208c-6.551957 0-9.259858.3312-9.259858 8.2896v41.4456c0 7.9572 3.393951 8.2884 9.259858 8.2884v2.4864zm328.634804-55.7016c-3.176156-3.15-6.687473-4.6428-9.362704-7.7928-1.335801-1.326-2.507047-2.652-3.341922-4.476-1.170036-1.1604-1.839146-1.8228-3.176157-2.4864.166975.6636.502136 1.326.667901 1.9896h-.165765c-1.171246 0-2.341282-.6636-3.176157-1.326l.834875-.8292c-.165765-.4968-.834875-.4968-1.33701-.4968-3.511317-.6636-7.020214 1.326-10.530321 1.9884v.498c2.173097.6624 2.674022 3.3156 4.011033 4.6416h1.33822c.500925 0 1.168826.4968 1.669751.4968 0-.4968-.500925-1.326-.500925-1.326.500925-.4968.836085-.4968 1.33822 0 1.170036.6636 2.674022-.4968 3.845267 1.326-1.33822 0-2.675231 0-3.845267.6636 0 .1656.669111.6636.500926 1.1604-1.170036-.4968-2.507047 0-3.007972-.9948l-.168185.3324c1.337011 1.4916 3.344342 2.8176 5.349253 3.4812 3.009181.4968 5.349252-.8292 8.358434-.1668 10.363345 4.8084 17.551744 16.4124 17.551744 28.0176 0 16.578-9.52847 23.2092-15.546833 23.2092-1.170036 0-3.007972-.6624-3.677082-1.326.66911-2.4864 1.170036-5.1396 1.170036-9.1176 0-9.6156-3.845267-19.8948-9.026335-25.1988-2.341281-2.4864-5.181067-4.476-8.023274-4.476-1.337011 0-2.675231 0-3.678292 1.1604-1.00306.8292-1.670961 2.652-1.503985 3.8124-1.839146 1.326-4.680143 1.9896-7.021424 1.9896-2.507046 0-5.515018-.9948-8.524199-3.15v-3.3156c-.667901-.3312-2.840997-1.6572-1.839146-2.652.6679.1656 1.171245.6624 1.337011.828-.165766-1.4916-.165766-3.3156-1.337011-4.6416-.33395 0-1.001851 0-1.670961-.4968-.66911-.6636-1.338221-1.4928-1.338221-2.6532.669111 1.1604 1.672171.6636 2.341282 1.3272-1.003061-2.6532-.669111-3.8136-2.675232-7.7928-.33395-1.9884-2.507046-3.15-3.845267-4.476-.6679-.4968-.834875-1.1604-1.670961-1.1604-1.00306-.1656-1.00306-1.326-1.00306-1.9884.33516 0 1.00306.4968 1.338221.6624-1.338221-3.15-2.173096-6.4656-5.182278-8.2884l-.66911.4968h-3.510107c.502135-.4968 1.337011-.6636 2.006121-1.1604-.66911-.6636-1.170036-.8292-2.508256-.8292-.667901.1656-1.503986.8292-2.507047.8292h-.166975c0-.6636-.166975-1.4916 1.170036-1.9896-1.337011-.1656-2.507046-.1656-4.179217 0-.166975 1.1604-.834876 1.824-.834876 2.6532-.66911.4968-.837295 1.1604-1.503985 1.8228 0-1.326.66669-2.652.834875-3.978-.834875.1656-2.006121.828-2.507046.828-1.672171-.828-4.012242-1.6572-4.848328-1.6572 1.337011.8292.669111 2.3208.836086 3.4812l-.836086-.4968c-.33395-.8292-1.33701-1.4928-1.67096-2.6532-1.337011 0-2.173097.498-3.344342 1.1604v.1656c.66911 0 1.672171.6636 2.007331 1.3272-1.505196 0-2.675231-.6636-4.180427-.6636 0 0 0-.1656-.33395-.1656-.669111.1656-1.335801.8292-1.670961 1.326-1.672171 1.326-2.840997 2.4864-3.510107 4.476.500925 0 1.170036 0 1.337011.1656-.836086.3324-1.337011 1.326-2.174306 1.6584v3.3156c-.666691.6624-1.503986 1.326-2.004911 2.652-1.170036 3.648-1.337011 7.626-1.337011 12.102-.33516.8292-.66911.9948-1.170036 1.326v3.4824s1.337011-1.3272 2.004911-1.6584v2.8188c-.834875 0-1.503985 1.1604-1.503985 1.8228 0 .8292.168185 1.6584.168185 2.6532 0 .4968 0 .4968.165765.828 0-.3312.502135-.828 1.170035-.9936 0 0 .502136-.498 1.338221-.498-.66911.6636-.836085 1.4916-1.338221 2.4864l-.6679.6636s-.166975.3312-.166975.6636c.834875 4.6416 2.173096 8.6196 4.011032 13.0968-1.837936 2.9832-3.844057 8.454-5.181068 13.7592-1.170035-.9948-2.675231-1.326-4.011032-1.326-1.33822.3312-2.675231.6624-3.678291 1.9896-1.337011-.6636-3.009182-.3324-4.012242.4968-2.004911 1.824-2.004911 2.6532-2.004911 3.9792-.502136.4968-1.338221 1.6572-1.338221 3.15 0 1.9884.166975 3.3156 1.338221 5.1384h34.266192c-.33395-.6624-.834876-1.4916-1.170036-1.9884-.6679-1.3272-.33395-3.15-.33395-4.4772.66911-1.326 1.503986-2.652 2.341281-3.8124.165765-.6636 0-.6636.165765-.8292l1.672171-.4968c.836085 0 1.503986-.6636 2.674021-.6636.669111 1.1604.669111-.6636 1.840356-1.1604 2.338861-.3312 4.845908 0 6.184128 1.824 0 .4968.333951.4968.333951.6624h-1.170036c-1.337011-.6624-3.009182-1.326-4.513167-.6624 0 .6624-.168185.6624-.168185 1.326v1.1604c.837295 0 1.505195.8292 2.341281 1.326.500925-.6624 1.837936-1.326 2.842206-1.326 1.003061 0 2.674022.6636 2.674022 2.4864v2.4864c.836085.8292 2.006121.9948 3.009181 1.4928-.33516.8292-1.00306.8292-1.672171.8292h-1.839146c-.166975-.1656-.6679-.1656-.6679-.8292-.66911.8292-1.170036 1.824-1.503986 2.652h26.242918c-.500925-.828-1.00306-1.4916-1.170035-1.9884-.500926-1.3272-.500926-3.15-.500926-4.4772l2.507047-3.3156c1.33701 0 2.508256-.4968 5.015302-.6624.33395-.6636 0-1.1604 2.004911-1.1604 1.503986 0 2.675232.4968 3.176157.6624.168185.498.168185.498 0 .9948-.500925.3324-1.337011-.4968-2.004911-.3312-.502135.4968.166975.6636.166975 1.1604.500925.498-2.007331-.4968-2.007331-.4968s-.500925 1.326-.66669 1.8228l1.3358 1.326c.502135.6636-.66911 1.3272-.66911 1.9896-.500925-.1656-1.335801-.8292-1.335801-.6624-.502135 1.8228 0 3.3156-.33395 5.1384h2.507046l.33395-3.8124c.166976-2.1552 2.842207-6.1344 4.513168-6.1344.836085 0 1.503986.3324 2.173096.8292.502135.8292 1.505196 1.326 1.505196 1.824 0 .3312-.669111.6624-1.672171.6624-.502135 0-.502135-.6624-1.170036-1.1604l-1.337011 1.326s1.503986 1.3272 1.503986 2.3208c0 .9948-.166975 1.4928-.836085 2.1552l-1.337011-2.652c-.66911 0-1.839146 1.326-1.839146 1.9896 0 .8292-.502135 1.326-.502135 2.652h14.042847c1.503986 0 2.840996-.4968 4.511957-1.326h2.675232c5.516227 0 10.029395-1.4916 14.041637-5.6364 5.515017-5.3052 8.691174-13.7604 8.691174-22.0488 0-9.7812-4.178007-19.5624-11.365196-26.6904zm-21.899146-11.6052c-.500925-.6636-1.170035 0-1.67096 0-.502136 0-.667901 0-1.505196-.6636 1.33822 0 2.006121-.6624 3.176156-1.1604.837296.6636 1.672171.9948 2.341282 1.824zm7.188399 3.3156c-.6679-.8292-1.670961-1.9896-2.508256-1.9896.66911 0 1.505195-.6636 2.675231-.6636.500925 1.1616 1.338221 1.824 1.503986 2.6532l.33516 1.326c-.500925-.8292-1.338221-1.326-2.006121-1.326zm-37.108399 29.5092-1.171245.3312c-2.507046 0-3.677082-.6624-4.680143-1.4916.836086 0 2.006121-1.1604 2.006121-1.1604 1.170036 1.1604 2.674022 1.9896 3.845267 2.3208zm-11.701565-2.4864c-1.170036.1656-2.006121-.8292-3.176157-1.326-.500925-1.3272-.500925-2.6532-.836085-3.3168.836085.6636 2.842206.6636 2.340071 2.6532 0 .6636 1.00306 1.1604 1.672171 1.9896zm0 7.2936c.6679.3312 1.837935.9948 2.507046 1.3272h-.669111c-2.507046.9936-4.511957-.6636-6.518078-1.9896 1.003061-.3324 2.674022-.6636 4.011032-.6636zm.33395-3.4812c1.00306-.6636 2.173096-.6636 2.507046-.9948 1.00306.9948 1.839146 2.4864 3.343132 3.4812-.834876 0-2.340072 0-3.343132-.6624-1.337011-.8292-1.837936-1.1604-2.507046-1.824zm-2.340071 13.7604c0-.6636.33395-1.326 1.33701-1.824 1.337011.498 2.507046-2.3208 3.845267-.8292.6679.1656 1.337011.1656 1.672171.1656 1.669751.6636 2.004911 1.9896 2.839786 3.15-1.170035 0-2.173096 0-2.839786-1.1604-.168185 0-.66911-.6636-.837295-.1656-1.170036.8292-2.173097-.6624-3.677082-.498-.669111.6636-1.337011 1.1616-2.340071 1.3272zm11.19943-23.5416c-.166975.8292-1.170035 0-1.337011 0h-2.006121c-.33516-.4968-.500925-.6624-.500925-1.1604.834876-.3312 1.503986-.6624 2.338861-.3312.335161.8292.837296 1.4916 1.505196 1.4916zm-4.344982-9.6156c.500925.8292.500925 1.3272 1.00185 1.824.836086-.4968.836086.6636 1.003061.8292.33395.6624.834875 1.326.834875 1.9896-1.503985 0-2.173096-.6636-2.839786-1.9896 0-.6636-.168185-1.6584 0-2.6532zm-1.672171 10.9416 2.173096 1.9896c-1.33822 0-2.842206.6636-3.511317-.6624.335161-.3324.836086-.9948 1.338221-1.3272zm-.33516-17.0748c0 .3312-.33395 2.3208-.33395 2.3208l-1.839146.4968 1.170035-4.9728c.335161.8292 1.003061 1.8228 1.003061 2.1552zm-31.926121-16.2468c.500925 0 1.168826-.1656 1.335801-.6636 1.171245-.1656 1.840356-1.326 3.176156-.6624 1.003061 0 1.839146.4968 2.507047.6624 0 .498 0 .6636.502135 1.1616 1.33701 0 1.33701 1.326 2.006121 2.4864.6679.1656 1.33701.1656 1.837936.1656 1.33822.4968 2.341281.4968 2.842206 1.1604 1.839146-1.1604 3.510107-1.326 5.683203-1.1604.168185-.6636.66911-1.4916.836085-2.652.166975.6624.166975 0 .667901 0 .837295-.6636 2.006121-1.824 3.678292-1.3272.836085.6636 2.340071.1656 3.343131 1.3272.669111.828 1.003061 2.154 1.672171 3.3156-.66911 1.326 0 3.1488-1.338221 3.8124l-1.33701 1.326c-.33395 0-.33395.498-1.003061.498.669111 1.4916.166975 3.8124-.500925 5.304.500925-.1656 1.170036-.1656 1.170036-.828.166975.1656 0 .6624 0 .828v.6636c0 1.1604-.669111 2.3208-1.670961 3.15-.33516 1.326-1.505196 3.15-3.176157 3.3156v.4968c3.510107 0 6.184128.8292 9.360285 2.4876v1.4916c-2.842207-1.4916-5.683203-2.652-9.026335-2.9844 0 .8292 0 1.4928-.33395 1.6584 2.840997 1.326 5.181068 2.4864 7.521139 4.476v1.9896c-2.340071-2.3208-4.680142-4.476-7.689324-5.1396-.166975.4968-1.170036.8292-1.337011 1.824-1.505195-1.1604-3.343131-2.3208-5.182277-2.4876-.667901 0-1.170036-2.4864-1.170036-2.4864 1.170036-.4968 1.839146-1.1604 2.340071-2.1552h.836086c.66911 0 .66911-.4968.66911-1.1604 0-1.326-2.840996-1.326-4.179217-1.326-1.672171 0-2.675231 0-3.677082.6636-.502135 0-.168185.6624-.168185 1.1604 0 .1656.66911.6624.66911.6624.500926 0 .836086-.4968 1.338221-.4968-.168185 1.326.165765 1.9896 1.503986 2.652l-.168185 2.3208c-2.674022 0-4.511958.9948-6.519288 1.9896-.667901-.4968-1.168826-1.1604-1.503986-1.824-2.840997.8292-7.522349 4.4772-7.522349 4.4772v-1.6584c2.007331-1.6584 4.681352-2.652 6.853238-3.6468v-1.6584c-1.00306-.4968-1.837935 0-2.840996 0-2.004911.1656-4.012242 1.1604-5.349253 2.3208 0-.6624-.166975-1.6572-.166975-1.6572 2.508256-1.326 5.516228-2.4864 8.525409-1.9896v-.8292c-.168185-.4968-.168185-1.1604-.66911-1.1604-1.33701-1.326-2.675231-3.3156-2.675231-4.6416l.837295-.498c-.502135-1.326-.837295-4.6416 0-5.802-1.33822-.6636-2.675231-1.824-3.176156-2.652-.333951-1.1604-.837296-1.824-1.003061-3.15.66911-1.326 1.003061-1.824 1.672171-3.15zm20.893665 41.7768c-1.00306-.6636-3.176156-.9948-2.674021-2.3208.500925-.9948 1.170036-1.326 1.670961-1.6572.168185 1.4916.33395 2.652 1.00306 3.978zm-13.874661-6.4656-.667901 2.8188c-.6679-1.3272-1.337011-2.6532-1.505196-4.1448zm-2.840997 3.4812c-1.503986-.3312-3.009181-1.6572-3.677082-2.8176-.500925-.9948-.66911-1.9896-.66911-2.6532.836085 0 1.503986.6636 1.837936.9948v.3324c1.00427 1.326 2.173096 2.4864 2.508256 4.1436zm-2.508256 2.6532c0 .9948-.500925 2.1552-1.669751 3.15-.168185.3312-.837295.6624-.837295.6624 0-1.326.66911-2.4864.66911-3.4812.66911-.3312 1.337011-.6636 1.837936-.3312zm2.173096 2.8176c.33516-.3312.502135 0 1.00306 0l-1.00306 3.3156c-1.168826.8292-2.674021.3324-4.011032.3324 1.837936-.3324 3.176157-2.322 4.011032-3.648zm-7.856299-35.3112c.502135-.6636.66911-1.326 1.338221-1.9896v2.6532l-1.503986.4968zm0 4.476 1.840356-.6624-1.171246 1.326c.168185 2.1552-.66911 3.8124-.66911 5.802l-1.170036-3.6468c.335161-.8292.502136-1.6584 1.170036-2.8188zm-.165765 25.8624c.165765-.8292.834875-1.3272 1.00306-1.4916.667901.1644 1.168826.1644 2.173096.3312-1.170035 1.1604-2.341281 1.6572-2.842206 2.9832 0-.6624-.168185-1.326-.33395-1.8228zm-14.375587 29.8404c-.33516 0-1.003061-.6636-1.672171-.6636-.66911 1.3272 0 2.3208 0 3.8136 0 .6624-.166975 1.326-.166975 1.326-.502135 0-1.337011-.8292-1.505196-1.824v-3.4812l2.006121-2.4864c1.338221.8292 1.672171 2.1552 1.338221 3.3156zm5.181067 0c-.33395-.8292-1.00306-1.9896-2.173096-1.9896-.834875 1.824-1.00306 2.4864-.166975 5.1396-.6679.6624-1.170035.8292-2.006121 1.326-.500925-.8292-.500925-2.4864-.500925-3.3156 0-1.6572.33395-3.15.66911-4.476.667901-.6636 1.170036-1.824 1.837936-2.4864h2.508256c-1.171245 0-1.171245 1.1604-1.171245 1.8228.66911.1668 1.672171.498 1.672171 1.4928s-.335161 1.8228-.669111 2.4864zm5.516228 3.15c0-1.1604.66911-2.4864.66911-3.8136 0 0-.836085-.828-1.839146-.828-.6679.3312-.6679.828-.836085 1.4916-.6679 1.326-2.006121 2.652-2.173096 3.9792-.33395 0-.33395-.1668-.33395-.1668 0-2.1552.33395-5.9676 1.672171-7.6248 1.00306-1.3272 2.004911-1.3272 3.343131-1.4928l1.168826.1656-1.001851 1.3272c1.001851.4968 2.340072 1.326 2.340072 2.652 0 1.824-3.009182 4.3104-3.009182 4.3104zm8.525409-4.3104-1.505195-3.9792c-1.837936-1.8228-3.844057-1.9896-5.014093-2.8176-.836085-.3324-.836085.3312-1.337011 0 0-.498 0-1.1604.667901-1.824h1.33701l1.338221.6636c.66911.6624 2.338861.6624 2.338861 1.9884 0 .1668-.165765.498.503345 1.3272l2.171887.6624.166975 1.824zm2.508257-3.9792c-.502136-.6624 0-1.8228-.669111-2.4864 0-.3312.500926-.6636.166975-.8292-.166975-.4968-2.842206-1.326-2.842206-1.326-.834876-.6624-2.004911-1.326-3.007972-2.1552-.837295-.3312-1.505195.1656-2.675231.3312v-.3312c.502135-.9948.502135-2.1552 1.837936-2.1552.66911 0 1.505196 0 2.006121.6636 1.00427 0 1.338221.9948 2.007331 1.1604 1.168826 1.1604 2.004911 1.6572 2.674021 1.9896 0 .6624.333951 1.1604.667901 1.326 1.503985 0 1.00306 1.326 1.503985 2.3208zm2.507046-5.1384c-.502135-1.4928-1.505196-3.15-3.009182-3.15-.66911-.6636-1.33822-1.3272-1.505195-1.9896-.667901-.6636-1.337011 0-2.171887-.6636-1.00427 0-2.173096 0-3.010391.6636v-.6636l1.505196-1.6572c1.670961.1656 3.677082 0 4.178007.9948 1.00427.6624 2.173096 1.326 2.508256 1.8228v.6636c.33395.1656 1.337011.498 1.672171.6636 0 .6624-.166975 3.3156-.166975 3.3156zm2.507046-10.9416c-.66911 0-1.839146.4968-3.176157 0 .669111-.3324 1.337011-.6636 2.173097-1.326l1.839145-1.6584h1.837936c-.66911 1.326-1.33701 2.652-2.674021 2.9844zm.6679-9.948c.669111 0 1.337011 0 2.006121.498 0 .9948.500926 1.9896.500926 3.3156-1.503986-1.326-2.507047-2.4864-2.507047-3.8136zm.669111 13.4292c.166975-.6636.836085-.9948 1.33701-1.6584.500926-.6624 1.338221-1.8228 1.503986-2.4864 1.171246-.6624 1.672171-.6624 2.508256-.6624-.166975 1.326-.836085 1.8228-2.006121 3.3156-.6679.4968-2.006121.828-3.343131 1.4916zm3.176156 4.1448-1.33822-1.824h3.344341l.669111 1.326c-1.004271.6636-1.672171.6636-2.675232.498zm1.503986-13.0968-.500925-2.3208c.6679-.3324 1.337011-.8292 2.338861-1.9896 0 1.6572-.33274 3.6468-1.837936 4.3104zm2.675231-11.6052c-.168185 0 0 .6636-.168185.6636 0 .4968-.500925 1.326-.500925 2.1552-.500925.3312-1.337011.6624-2.173096.3312v-.6636c-.33395-.4968-.33395-1.326-.33395-1.8228l-.168185-.1656c-.667901.1656-.667901.6624-.667901.9936-.166975.498-.6679.9948-.6679 1.6584-.837295 0-1.338221-.3312-2.007331-.6636v-1.9884c0-.498 0-.498-.33395-.498l-1.003061 1.1604c-1.00185-.6624-1.170035-2.4864-1.170035-3.6468 3.677082-1.9896 8.024484-1.326 10.86669-.1656.33274.1656.834876.1656 1.335801.3312-.33395 1.326-.66911 3.4812-2.173096 4.3104 0-.8292-.33395-1.326-.834876-1.9896zm4.011032 24.0384c-.166975 0-1.67217-.6636-2.173096-1.1604-.165765-.6636-.165765-1.326-.165765-1.326h1.669751l1.170036 2.4864zm0-5.9676c-1.33701-1.1604-2.173096-2.4876-3.510106-4.3104l3.510106.6624c.669111.498 2.006121 1.9896 2.675232 2.6532-.33395.4968-1.672171.9948-2.675232.9948zm2.507047-8.4552c-1.337011-1.9896-.667901-3.8124 0-5.4708.502135 1.326.66911 2.8188 1.00427 3.8124.165765.9948 1.503986 1.3272 2.004911 1.9896-1.00185.3312-2.507046.6636-3.009181-.3312zm1.00427 19.728 1.003061-2.6532c1.00306 0 1.670961-.3312 2.004911-.3312 1.00306-.3312 1.672171-.3312 2.340071-.3312v.3312c2.508256 0 5.349253-.3312 7.188398 1.6584l.166976 1.8228c-.836086-.6624-2.173097-.6624-2.674022-1.8228-.836085-.1656-1.505196-.1656-2.675231-.1656-.836086.1656-2.006121.1656-3.009182.1656-.165765 0 0-.1656-.33395-.3324-1.33701.3324-2.674021.3324-4.011032 1.6584zm7.187189 8.2884-.669111.6636c-.834875-.6636-.33395-2.4864-1.503985-2.652-1.003061 0-2.006121-1.1604-2.340071-1.3272l.836085-.4968s.500925-.1656.834875 0c.500926.4968 1.003061.6636 1.003061 1.1604.33516.6636 1.170035 0 1.505196.6636.33395.6624.500925 1.4916.33395 1.9884zm6.853238-.4968c-.33395-1.326-.834875-3.3156-2.507046-3.3156-.166975-.8292-.33516-1.326-1.338221-1.9896l-1.670961-.1656c.166976.8292 1.505196.8292.669111 2.1552.836085.6636 1.503986.6636 2.004911 1.824.33516.6624 0 1.4916.168185 1.9884l-1.337011.6636c0-1.1604.165765-3.3156-1.33822-3.8124-1.337011.4968-1.503986-1.3272-2.507047-1.9896-.500925 0-.500925-1.1604-1.170035-.6636-1.003061.6636-2.340071 0-3.510107.6636l1.170036-1.824c.836085-.6636 1.67096-.3312 2.674021-.6636l1.839146-.1656c1.672171 0 3.343131.8292 5.181067 1.4928.837296.4968 1.338221 1.1604 1.338221 2.3208.33395.1656 1.337011.1656 1.337011.8292-.33395.4968-.669111 1.8228-1.003061 2.652zm3.176157-3.3156c-.500925-.6636-.669111-1.326-1.170036-1.326.669111-2.4876-.6679-4.476-1.00306-6.4656v-.6636c.66911 1.1604 2.340071 2.3208 2.173096 3.3156.168185 1.9896.168185 3.8136.168185 5.1396zm-2.173096-27.852 1.672171-.828c.6679.6636 1.67096.828 2.004911 1.1604-.669111.6636-2.338862.8292-3.677082-.3324zm15.210462 3.648c.502136.3312.837296.6624 1.338221 1.326v1.824c-2.004911-1.1604-3.176157-3.15-4.847117-5.1396 1.67096 0 2.173096 1.6584 3.510106 1.9896zm-10.029395.3312c.669111.6636 1.506406 1.6584 1.506406 2.3208 0 .6636-.503345.8292-.837295 1.326 0 0-1.003061-1.1604-1.003061-1.6572 0-.8292 0-1.326.33395-1.9896zm2.007331 16.7436c0-1.326-.33516-2.4864-1.170035-3.3144 0-.498.66911-.498.165765-1.1616 0 0-1.335801-.6624-1.335801-1.4916s1.001851-1.6572 1.335801-2.3208c0-.1656 1.00427.4968 1.00427 1.824 0 .3312 0 .9936-.33516 1.326-.165765.6624 1.338221.6624 1.338221 1.326 0 1.326-.836086 2.4864-1.003061 3.8124zm2.340071-9.6144c0 .4968-.66911.9948-.836085.9948 0 0-1.170036-1.1604-1.337011-2.3208-.166975-.8292.667901-2.322.667901-2.322.168185 0 .502135.3324.66911.3324.166975.3312 0 .9936.166975 1.6572.66911.3324 1.170036 1.326.66911 1.6584zm2.173097 11.604c.33395-.9948.33395-3.3156 0-3.3156-.502136-.1656-1.505196 0-1.505196-.4968 0-.6636.33395-1.4916.33395-1.9896 0-.8292-.66669-1.326-.66669-1.6584 0-1.326 1.503985-1.6572 2.004911-2.4864.166975.8292.166975 1.824.166975 2.8188 0 .4968.6679 1.824 0 2.9844 0 .6624 1.33701.1656 1.33701.828 0 1.1604-1.33701 2.4876-1.67096 3.3156zm3.508896-5.304c-.66669 0-.66669-.498-.66669-1.3272-.168185-1.326-.66911-2.4864-1.171246-3.8124-.33395-1.824-1.503985-3.3156-2.507046-5.3052-.166975-.9948-1.337011-1.326-2.173096-1.9896 1.171246 0 2.173096 0 3.176157.8292 0 .4968.166975.6624.834875 1.326 1.672171 0 1.171246 1.9896 2.507046 2.9844-.66669.6624-.834875.9948-1.3358 1.4916.66911.498 1.3358.6636 1.503985 1.326 0 1.3272-.168185 2.9844-.168185 4.4772zm3.176157-2.1564c-.500925-1.326-1.335801-2.8176-1.837936-4.1436 0-.1656-.166975-.1656.168185-.3324.33395 0 1.168826 0 1.168826.1668.33516.4968.66911 1.1604.66911 1.8228 0 .8292-.33395 1.4928-.168185 2.4864zm12.202491-6.7968c-.500925-.3312 0-1.326-1.168826-1.326-.500925 0-1.170035.6636-1.170035.6636-.500925.3312-1.839146-.6636-1.839146 0 0 1.1604-.836085 1.6572-2.006121 1.6572-.33395 0-.834876 0-1.337011-.3312v-2.1552c3.009182 0 2.675232-.9948 4.012242-.9948 1.001851 0 1.670961.4968 2.340071.4968 1.168826 0 .502136-.4968 1.503986-.4968 1.171246 0 1.672171.9948 2.340071 1.1604 0 .6636.669111 1.6572.669111 2.4864-1.672171 0-3.176157-.4968-3.344342-1.1604zm1.338221 6.1344c-.669111-.3312-2.340071-.498-2.340071-1.1604 0-.9948-.502136-1.1604-1.503986-1.1604-1.003061 0-1.672171.1656-3.009182.6624 0 0-.66911-.828-.836085-1.8228.500925-.1656 2.173096-.6636 3.176156-.6636 1.505196 0 3.174947 0 3.174947.6636 0 .9948 1.338221 1.1604 1.338221 3.4812zm-2.507047-12.6c.667901 0 1.168826-.3312 1.503986-.3312 1.171246 0 2.006121 1.6584 2.340071 2.9844-1.837936-.9948-4.513167-1.6584-6.184128-1.6584-.836085 0-3.510107.9948-4.513167 1.9896l-.33516-1.9896c1.33822-.3312 1.33822-1.326 2.173096-1.326.66911 0 1.672171-.3312 2.341281-.3312.6679 0 1.003061-.3312 1.335801-.3312 1.00306 0 .66911.9936 1.33822.9936zm-7.020213-2.8176c.6679-.6636 1.837936-1.6584 2.674021-1.6584 1.672171 0 3.009182 1.1604 3.009182 2.322-1.337011 0-1.672171-.3324-2.508256-.3324-1.170036 0-2.507047.4968-3.174947 1.6584-.502135-.8292-.168185-1.326 0-1.9896zm.6679-5.802c1.003061-.498 1.337011-.3324 1.839146 0 0 1.326 1.503986.6624 2.507046 1.1604.335161.6624.667901.9936.836086 1.9884-1.503986-.4968-2.507046-1.1604-3.845267-1.1604-.33395 0-2.507046.6636-2.674021 1.1604-.669111-.9948.500925-2.8176 1.33701-3.1488zm4.346192 33.8184c-1.170035-.6624-1.839145-.828-3.176156-.828 0-.9948-.667901-1.9896-1.170036-1.9896-1.33701 0-1.170035.828-2.173096.828l2.006121-1.9884c.166975-.498.166975-.498.66911-.498.667901.498.834876.6636 1.503986.6636 0 .4968 0 .6624-.166975 1.326.667901.4968 1.170036-.1656 1.503986.4968.66911.1668 1.338221.498 1.338221 1.3272 0 .3312-.335161.6624-.335161.6624zm2.173097-3.15c-1.503986-.1656-1.503986-1.9884-1.837936-2.154-1.003061-1.3272-2.675232-.1668-3.678292-.1668-.500926-1.326.166975-1.326.166975-2.3208.66911 0 1.337011-.4968 2.006121 0 1.170035-.4968 1.839146.6636 2.840996.6636.33516.4968.837296 1.6572 1.003061 1.824 0 .828-.165765 1.1604-.500925 2.154zm1.170035-4.6416c-1.672171 0-.66911-3.15-4.011032-3.15-.66911 0-1.171245 1.1616-2.007331 1.326 0-.1644.168185-1.4916.168185-1.4916 0-.4968.166975-1.326 1.170036-1.8228 1.672171 0 1.33701.6624 2.674021 1.1604.66911.1656 1.171246.6624 2.006121.6624zm3.176157 10.2792c0-1.1604-1.337011-1.824-2.341281-3.8136l1.00427-1.4916c.6679.3312 1.503986.9948 1.503986 2.1552 0 0-.166975.6624 0 1.1604 0 .1656.502135.1656.502135.6624-.502135.6636-.502135.6636-.66911 1.3272zm1.503985-4.4772-1.33701-1.9884c.502135-.6636.502135-1.4928 1.171245-2.6532.165765 0 .834876 1.4928.834876 1.824 0 1.326 0 1.6572-.669111 2.8176zm-22.064911 4.6428c1.003061.4968 1.003061 1.6572 1.003061 1.8228 0 .6636-.500925 1.3272-1.003061 1.824-.33395-.4968-.33395-1.1604-.836085-1.824-.500925 0-.6679 1.1604-.6679 1.6584 0 1.9896.834875 3.4812 1.503985 4.8072h2.006121c-.168185-1.8228-.66911-3.3156-.66911-5.3052 0-1.1604.66911-2.4864 1.003061-3.1488zm-28.918149 1.326c-.502135 0-1.670961.6636-1.670961 1.1604 0 .9948-.33516 5.802-.33516 5.802h1.503986c.66911-1.9884 2.007331-4.6416 2.007331-5.802 0-.8292-.669111-1.1604-1.505196-1.1604zm-5.348043-.8292c-.502135 0-1.171245 1.326-1.171245 1.824 0 1.8228.33395 4.1448 1.171245 5.9676h1.669751c0-1.9896.33516-4.1448.33516-5.9676-.33516 0 .166975.3312-2.004911-1.824zm-2.508256-1.8228-2.507046.4968c-.669111.8292-.836086 1.326-.836086 1.824l1.003061-.498c.33395 0 .500925.498.6679.8292-.166975 1.1604-1.503986 1.1604-2.006121 1.6572-.6679 2.1552 1.338221 3.4824 1.672171 5.3052h2.674021c-1.170035-1.9884-1.3358-5.1384-1.3358-5.802 0-1.1604 0-2.652.6679-3.8124zm9.695445-57.6924h.6679c.669111-.6636 1.003061 0 1.505196-.6636.500925-1.1604.500925-3.1488-.502135-4.3104-.33395-.828-1.503986-1.326-2.674022-2.154l-1.503985.828c-1.003061.498-1.338221 1.326-1.338221 2.4876 1.503986.6624 3.176157 2.4864 3.845267 3.8124zm-9.027545-1.1604c1.003061 0 .669111 1.6572 1.505196 1.8228h2.004911c0-.6624-.165765-.6624-.33395-.6624-1.170036 0-1.170036-1.824-2.173096-1.326-.33395 0-.834876-.498-1.503986 0 0 .1656 0 .1656.500925.1656zm.669111 4.9728h-.500926c.500926 1.824.500926 3.8136.500926 5.8032.836085.1656 1.837936.6624 1.837936 1.9896.837295.4968 1.67217.6624 2.675231 1.326.33516-.1656.66911-.8292.836085-1.4928-.836085-1.1604-2.842206-.4968-2.842206-2.4864l-1.335801-.4968c0-1.3272 0-2.6532-.33516-3.4812l.33516-.3324c0 .3324.165765.498.666691.9948.837295 0 1.67217.1656 2.675231-.4968.33516-.1656.33516-1.3272.836085-1.3272.502136 0 .836086 0 1.170036-.4968 0 0 .502135 0 0-.1656l-5.015303-.6636c-.33274.6636-1.503985.6636-1.503985 1.326zm-4.680143-5.1384c-.500925-.498-1.839146.1656-2.508256.4968-1.00306.1656-1.670961.8292-1.670961 1.4916h2.507047c.33395-.6624 1.171245-1.4916 1.67217-1.9884zm-9.361494.1656c1.00306-.6636 3.176156-2.1552 4.346192-2.652-.166975-2.1552-2.674022-2.4876-3.845267-3.3156h-.834875c-1.839146.6624-2.340072 2.4864-2.507047 3.978.667901 1.9896 2.006121.6636 2.840997 1.9896zm15.212882 16.9092 2.338861.9948v-1.1604h-2.173096zm-12.871601-11.9364c0 .8292.6679 1.1616.834875 1.3272.669111.4968 1.003061.4968 1.672171 0 .6679.4968.836085-.498 1.001851 0 0 1.326 0 1.9884-.165766 3.1488-.168185 1.4928-1.505195 1.3272-2.675231 1.9896 0 .6636-.6679 1.824 0 2.4876.667901-.498 1.170036-.6636 2.173096-1.1604 0-.6636.667901-1.3272 1.670961-1.824 0-1.9896.66911-3.9792.66911-5.9688 0-.4968-.500925-.9936-1.170035-1.326h-5.349253c0 .8292.66911 1.326 1.338221 1.326zm.6679 11.274c0 .4968 0 .9948.667901 1.4916.66911-.8292 1.839145-.9948 2.00733-.9948-.502135-.8292-1.505195 0-2.675231-.4968z" fill="#fff" fill-rule="evenodd" transform="translate(-400 -36)"/></svg>