<svg enable-background="new 0 0 188 160" viewBox="0 0 188 160" xmlns="http://www.w3.org/2000/svg"><g transform="translate(0 -1)"><path d="m162.9 81c0 41.6-34.2 75.8-75.7 75.8s-75.7-34.2-75.7-75.8 34.2-75.8 75.7-75.8c41.5 0 75.7 34.2 75.7 75.8h3.2c0-43.4-35.6-79-78.9-79s-79 35.6-79 79 35.6 79 78.9 79 78.9-35.7 78.9-79z" fill="#fff"/><path d="m104.6 121.8c33 13.6 27.3-20.8 9.7-47.2-10-14.9-23-27.4-31.2-33.4-27.3-20-44-7.8-24.8 31.4 6.2 12.7 14.2 21.3 20.4 29.3 4.8 6.2 14 9.3 10.8 12.2-3.7 3.3-12.6-11.3-12.6-11.3-6.6-7.8-12.9-16.3-19.3-28-14.8-26.6-12.7-53.8 14.1-41.9 22.7 10 44.4 38.2 53.1 58.2 4 9.3 14.9 45.8-20 31" fill="#fff"/><path d="m1.9 104c14.5-9.7 28.3-16 51.8-23.7 33-10.9 57.8-18.2 88.2-33.6 14.8-7.5 36.7-21.9 45.5-35.9-2.5 5.2-10.2 15.5-13.8 20-41.3 51.8-129.2 48.8-171.2 73.7" fill="#ccc"/><path d="m23 66.1c13.2.1 12 0 12.2.1.2 0 10.6 17.9 10.6 18.1 0 .1-.1-6.4-.1-14.4 0-.9-2.6-3.6-2.5-3.6 3.8 0 8.8.1 8.8.1-1.9 2.2-2.2 2-2.2 3.3-.1 4.3-.1 12.3 0 21.3 0 1.3 1 1.9 2.6 4.2h-12.3c-4-6.6-11.2-19-11.2-18.9.1.1-.2 7.8.1 14 .1 2 1 2.7 2.7 4.6 0 0 2-.1-9.5.1 3.5-1.9 3-4.2 3-4.3-.1-8.6 0-15.9 0-20.6 0-.8-.1-.7-2.5-3.6" fill="#fff"/><path d="m64.5 79.3c1.1-3.9 2.1-7.4 2.5-9.6.1-.4-.9-1.8-2.3-3.2l-.1-.2c7.1 0 14.5.1 14.5.1 1.9 4.7 6.4 18 9.7 26.2.9 2.2 2.4 2.6 2.4 2.6-6-.2-17.2-.1-17.2-.2 3-2.7 2.6-2.7 1.3-6.7h-9.5c-1.9 4.5.6 6.6.9 6.6-2.2.1-9.5 0-9.5 0 4-2.8 3.7-3.6 3.7-3.6 1.3-3.9 2.5-8.1 3.6-12h3.9c-.8 2.7-1.7 5.4-1.7 5.4h7.5l-4.1-10.7s-.8 2.7-1.7 5.4h-3.9" fill="#fff"/><path d="m129.5 79.7c1.1-3.9 2.1-7.4 2.5-9.6.1-.4-.9-1.8-2.3-3.2l-.1-.2c7.1 0 14.5.1 14.5.1 1.9 4.7 6.4 18 9.7 26.2.9 2.2 2.4 2.6 2.4 2.6-6-.1-17.3 0-17.2-.1 3-2.7 2.6-2.7 1.3-6.7h-9.5c-1.9 4.5.6 6.6.9 6.6-2.2.1-9.5 0-9.5 0 4-2.8 3.7-3.6 3.7-3.6 1.2-4 2.5-8.2 3.6-12.1h3.9c-.8 2.7-1.7 5.4-1.7 5.4h7.5l-4.2-10.7s-.8 2.7-1.7 5.4h-3.8" fill="#fff"/><path d="m117.3 73.4c-.2-5.5 0-7.3 0-7.3-2.4 1.9-1.2 1.7-7.2.7-17.4-2.9-18.7 13.3-9.2 17 7.9 3.1 10.7 3.7 9.5 6.5-.4.9-7.6 4.3-15-2.6l.2 9.6c.9-1 3.5-2.7 3.5-2.7.1 0 8.1 3.5 15.3-.2 11.1-5.7 5.6-14.8-6.3-18.5-10-2.9-.7-10 9.2-2.5" fill="#fff"/><path d="m187.5 11c-11.8 35-59 62.1-98.8 87.9-24 15.6-47.8 33.5-64.2 48.8-4.3 4 .9-1.5-.8.2 22.9-26.4 49.2-42.1 63.7-52 24.6-16.7 38.6-21 81-60.1" fill="#ccc"/><g fill="#fff"><path d="m104.6 121.8c33 13.6 27.3-20.8 9.7-47.2-10-14.9-22.3-26.8-31.2-33.4-10.4-7.7-11.4-8.3-11.4-8.3 23.3 11.1 44.4 38.2 53.1 58.2 4 9.3 14.9 45.8-20 31"/><path d="m88.2 10.6c0 .3-.3.6-.6.6s-.6-.3-.6-.6.3-.6.6-.6c.4 0 .6.3.6.6"/><path d="m92.6 20.2c0 .4-.3.8-.8.8s-.8-.4-.8-.8.3-.8.8-.8.8.3.8.8"/><path d="m103.9 35.8c0 .4-.4.8-.8.8s-.8-.4-.8-.8.3-.8.8-.8.8.4.8.8"/><path d="m85.7 25.5c0 .3-.3.6-.6.6s-.6-.3-.6-.6.3-.6.6-.6.6.3.6.6"/><path d="m92.5 29.1c0 .3-.3.6-.6.6s-.6-.3-.6-.6.3-.6.6-.6.6.3.6.6"/><path d="m83.7 19.1c0 .4-.3.8-.8.8s-.8-.4-.8-.8.4-.8.8-.8.8.4.8.8"/><path d="m73.4 25.4c0 .3-.3.6-.6.6s-.6-.3-.6-.6.3-.6.6-.6c.3-.1.6.2.6.6"/><path d="m75.3 26.6c0 .3-.3.6-.6.6s-.6-.3-.6-.6.3-.6.6-.6.6.3.6.6"/><path d="m77.1 27.9c0 .3-.3.6-.6.6s-.6-.3-.6-.6.3-.6.6-.6c.3-.1.6.2.6.6"/><path d="m74.3 30.3c0 .3-.3.6-.6.6s-.6-.3-.6-.6.3-.6.6-.6.6.3.6.6"/><path d="m59.6 40.6c0 .3-.3.6-.6.6s-.6-.3-.6-.6.3-.6.6-.6c.4 0 .6.2.6.6"/><path d="m62.4 43.9c0 .3-.3.6-.6.6s-.6-.3-.6-.6.3-.6.6-.6.6.2.6.6"/><path d="m60.2 97.2c0 .3-.3.6-.6.6s-.6-.3-.6-.6.3-.6.6-.6.6.2.6.6"/><path d="m60.6 111.9c0 .4-.4.8-.8.8s-.8-.3-.8-.8c0-.4.3-.8.8-.8s.8.3.8.8"/><path d="m52.3 119.4c0 .3-.3.6-.6.6s-.6-.3-.6-.6.3-.6.6-.6c.3-.1.6.2.6.6"/><path d="m42.3 122.4c0 .4-.3.8-.8.8-.4 0-.8-.4-.8-.8s.4-.8.8-.8c.5.1.8.4.8.8"/><path d="m40.3 115.6c0 .4-.4.8-.8.8s-.8-.3-.8-.8c0-.4.3-.8.8-.8.4.1.8.4.8.8"/><path d="m39.1 120c0 .3-.3.6-.6.6s-.6-.3-.6-.6.3-.6.6-.6c.3-.1.6.2.6.6"/><path d="m31.6 116.4c0 .3-.3.6-.6.6s-.6-.3-.6-.6.3-.6.6-.6.6.2.6.6"/><path d="m57.7 128.5c0 .3-.3.6-.6.6s-.6-.3-.6-.6.3-.6.6-.6.6.2.6.6"/><path d="m65.6 122.7c0 .4-.4.8-.8.8s-.8-.3-.8-.8c0-.4.3-.8.8-.8.4 0 .8.4.8.8"/><path d="m66.4 130.1c0 .3-.3.6-.6.6s-.6-.3-.6-.6.3-.6.6-.6.6.3.6.6"/><path d="m98.7 123.1c0 .3-.3.6-.6.6s-.6-.3-.6-.6.3-.6.6-.6c.3-.1.6.2.6.6"/><path d="m83.7 128.4c0 .3-.3.6-.6.6s-.6-.3-.6-.6.3-.6.6-.6.6.3.6.6"/><path d="m124.1 136.1c0 .3-.3.6-.6.6s-.6-.3-.6-.6.3-.6.6-.6c.3-.1.6.2.6.6"/><path d="m127.4 106.2c0 .4-.4.8-.8.8s-.8-.4-.8-.8.4-.8.8-.8.8.4.8.8"/><path d="m121.2 110.4c0 .3-.3.6-.6.6s-.6-.3-.6-.6.3-.6.6-.6.6.3.6.6"/><path d="m127.3 111.7c0 .4-.4.8-.8.8s-.8-.4-.8-.8.4-.8.8-.8.8.3.8.8"/><path d="m121.2 119.2c0 .3-.3.6-.6.6s-.6-.3-.6-.6.3-.6.6-.6c.3-.1.6.2.6.6"/><path d="m137 102c0 .3-.3.6-.6.6s-.6-.3-.6-.6.3-.6.6-.6.6.3.6.6"/><path d="m138.5 105.8c0 .4-.3.8-.8.8s-.8-.4-.8-.8.4-.8.8-.8c.5.1.8.4.8.8"/><path d="m149.4 110.4c0 .4-.4.8-.8.8s-.8-.3-.8-.8c0-.4.3-.8.8-.8s.8.4.8.8"/><path d="m138.3 118.5c0 .3-.3.6-.6.6s-.6-.3-.6-.6.3-.6.6-.6c.4 0 .6.3.6.6"/><path d="m145.3 111.9c0 .3-.3.6-.6.6s-.6-.3-.6-.6.3-.6.6-.6.6.3.6.6"/><path d="m144.1 122.1c0 .3-.3.6-.6.6s-.6-.3-.6-.6.3-.6.6-.6.6.2.6.6"/><path d="m147 105.2c0 .5-.4 1-1 1s-1-.4-1-1c0-.5.4-1 1-1s1 .4 1 1"/><path d="m146 102.2-.3 2.7-2.6.3 2.7.2.3 2.8.2-2.8 2.7-.3-2.7-.2z"/><path d="m140.2 122c0 .5-.4 1-1 1-.5 0-1-.4-1-1 0-.5.4-1 1-1 .6.1 1 .5 1 1"/><path d="m139.2 119.1-.2 2.7-2.7.2 2.7.3.3 2.8.3-2.8 2.6-.3-2.7-.2z"/><path d="m67.9 41.9c0 .5-.4 1-1 1-.5 0-1-.4-1-1 0-.5.4-1 1-1s1 .5 1 1"/><path d="m66.9 38.9-.2 2.7-2.7.3 2.7.3.3 2.8.3-2.8 2.6-.4-2.7-.2z"/><path d="m104 18.4c0 .5-.4 1-1 1-.5 0-1-.4-1-1 0-.5.4-1 1-1 .5 0 1 .5 1 1"/><path d="m103 15.5-.3 2.6-2.6.3 2.6.3.3 2.8.3-2.8 2.6-.3-2.6-.3z"/><path d="m60.2 137.6c0 .5-.4 1-1 1-.5 0-1-.4-1-1 0-.5.4-1 1-1 .5 0 1 .4 1 1"/><path d="m59.2 134.6-.3 2.7-2.6.3 2.6.3.3 2.7.3-2.7 2.6-.4-2.6-.2z"/></g><path d="m11.7 97.8c-4.2 2.1-8 4.1-11.2 6.1l2 .7c2.8-1.7 6.2-3.5 9.8-5.1" fill="#ccc"/><path d="m34 137.1c-3.9 3.4-7.9 7-11.9 10.8l-.2 2.7c3.7-3.8 8.2-7.9 13.4-12.2" fill="#ccc"/></g></svg>