<svg height="23" viewBox="0 0 145 23" width="145" xmlns="http://www.w3.org/2000/svg" xmlns:xlink="http://www.w3.org/1999/xlink"><mask id="a" fill="#fff"><path d="m145 22.8728v-22.8728h-144.9999v22.8728z" fill="#fff" fill-rule="evenodd"/></mask><path d="m143.2866 5.0883c-1.1085-.4035-2.1655-.705-3.174-.9575-1.0065-.201-1.9645-.302-2.8205-.302-1.1085 0-1.965.201-2.5695.5545-.6045.352-.9075.8055-.9075 1.3605 0 .402.1505.755.4535 1.057.3015.303.8565.5545 1.7135.857l4.0805 1.965c1.6125.7555 2.8215 1.6115 3.678 2.67.856 1.008 1.2595 2.2675 1.2595 3.728-.0505 2.0655-.9065 3.728-2.67 4.9375-1.713 1.2595-4.0815 1.864-7.003 1.9145-1.0585 0-2.2175-.05-3.477-.201-1.209-.102-2.469-.353-3.779-.6545v-4.4855c1.31.454 2.519.757 3.6785.958 1.159.201 2.216.3015 3.1735.3015 1.2095 0 2.066-.201 2.721-.553.6045-.3535.907-.807.907-1.3615 0-.4025-.1015-.806-.353-1.1075-.2515-.303-.654-.6045-1.1585-.807l-4.484-1.9145c-1.7135-.755-2.923-1.6115-3.728-2.6695-.756-1.0075-1.1595-2.267-1.1595-3.779.051-2.015.8575-3.6275 2.4685-4.7865 1.663-1.208 3.8805-1.7625 6.7015-1.813.958 0 2.015.101 3.124.252 1.108.1505 2.216.353 3.3245.5545zm-19.094 17.381h-7.0535l-7.9105-14.1565v14.1565h-4.4835v-22.067h7.254l7.7095 13.9055v-13.9055h4.4835zm-23.327-17.9855h-9.825v4.887h8.5655v3.677h-8.5655v5.14h10.026v4.2815h-16.475v-22.067h16.274zm-21.4125 17.9855h-6.197v-14.56l-6.4485 14.7625h-3.829l-6.197-14.7625v14.56h-4.484v-22.067h8.111l5.542 13.503 5.7935-13.503h7.709zm-31.0345-17.9855h-9.8755v4.887h8.5645v3.677h-8.5645v5.14h10.0765v4.2815h-16.4745v-22.067h16.2735zm-28.0635 17.9855h6.65v-22.067h-6.65zm-4.686-17.381c-1.1075-.4035-2.166-.705-3.1745-.9575-1.007-.201-1.9645-.302-2.821-.302-1.108 0-1.9145.201-2.519.5545-.6045.352-.907.8055-.907 1.3605 0 .402.152.755.504 1.057.353.303.9075.5545 1.6125.857l4.0805 1.9645c1.6125.756 2.822 1.612 3.678 2.62.8575 1.008 1.2595 2.2175 1.2595 3.5775-.05 2.1655-.9065 3.879-2.6695 5.1385-1.7135 1.2595-4.0305 1.8645-6.953 1.9145-1.1085 0-2.2675-.05-3.527-.201-1.209-.1015-2.469-.353-3.779-.6545v-4.4855c1.31.454 2.519.757 3.678.958 1.1595.201 2.2165.3015 3.1745.3015 1.209 0 2.1165-.201 2.72-.603.656-.3535.958-.8575.958-1.5125 0-.352-.101-.655-.3535-.9065-.251-.303-.6545-.5545-1.1575-.807l-4.5355-1.9145c-1.712-.755-2.972-1.6615-3.728-2.7705-.806-1.058-1.2095-2.2675-1.2095-3.678.05-2.015.9075-3.6275 2.519-4.7865 1.663-1.208 3.8805-1.7625 6.701-1.813 1.0085 0 2.116.101 3.2245.252 1.159.1505 2.217.353 3.2245.5545z" fill="#fff" fill-rule="evenodd" mask="url(#a)"/></svg>