<svg xmlns="http://www.w3.org/2000/svg" viewBox="0 0 560 329" enable-background="new 0 0 560 329"><g fill="none" stroke="#bebbc6" stroke-linejoin="round" stroke-linecap="round" stroke-width="10" stroke-miterlimit="10"><path d="m426.79 202.33v-12.611c0-10.448-8.462-18.918-18.9-18.918-10.438 0-18.9 8.47-18.9 18.918v12.611"/><path d="m481.17 202.33v-12.611c0-10.448-9.634-18.918-21.517-18.918-11.884 0-21.517 8.47-21.517 18.918v12.611"/><path d="m226.45 197.96l.362-121.07c0-6.269 5.077-11.351 11.34-11.351h32.04c6.263 0 11.34-5.082 11.34-11.351v-22.313c0-6.686-5.04-12.506-11.701-12.968-7.667-.532-13.999 5.806-13.468 13.48.462 6.67 6.276 11.712 12.956 11.712h36.692c6.263 0 11.34 5.082 11.34 11.351v66.2 50.38c0 8.358 6.769 15.13 15.12 15.13 8.351 0 15.12-6.776 15.12-15.13v-95.85c0-8.358 6.769-15.13 15.12-15.13 8.351 0 15.12 6.776 15.12 15.13v133.69"/><path d="m215.11 196.7v-18.38-71.16c0-6.269-5.077-11.351-11.34-11.351h-30.24c-6.263 0-11.34-5.082-11.34-11.351 0-6.269 5.077-11.351 11.34-11.351h30.24c6.263 0 11.34-5.082 11.34-11.351 0-6.269-5.077-11.351-11.34-11.351h-30.24c-6.263 0-11.34-5.082-11.34-11.351 0-6.269 5.077-11.351 11.34-11.351h30.24c6.263 0 11.34-5.082 11.34-11.351 0-6.267-5.077-11.349-11.34-11.349h-55.32-55.14c-6.263 0-11.34 5.082-11.34 11.351v101.35"/></g><ellipse cx="209.48" cy="182.31" rx="3.78" ry="3.784" fill="#e75a35"/><g stroke="#322750" stroke-linejoin="round" stroke-linecap="round" stroke-miterlimit="10"><g fill="none"><g stroke-width="5"><path d="m58.87 52.924h30.24"/><path d="m87.85 89.5h37.8"/></g><path stroke-width="10" d="m64.6 119.19h34.36v13.758h-34.36z"/></g><g stroke-width="5"><ellipse cx="73.99" cy="52.925" rx="7.56" ry="7.567" fill="#fbaf31"/><ellipse cx="106.75" cy="89.5" rx="11.34" ry="11.351" fill="#fd8131"/></g></g><ellipse cx="51.31" cy="99.59" rx="3.78" ry="3.784" fill="#a5a6f7"/><g stroke="#322750" stroke-linejoin="round" stroke-linecap="round" stroke-width="10" stroke-miterlimit="10"><path d="m93.02 174.78v-41.832h-22.491v41.832c-15.385 4.793-26.555 19.16-26.555 36.13 0 20.896 16.923 37.836 37.8 37.836s37.8-16.939 37.8-37.836c.001-16.977-11.169-31.34-26.554-36.13z" fill="none"/><path d="m99.25 218.94c0-3.801-3.077-6.879-6.873-6.879-3.797 0-6.873 3.079-6.873 6.879h-40.651c3.68 17.04 18.806 29.809 36.929 29.809s33.25-12.773 36.929-29.809h-19.461z" fill="#a5a6f7"/></g><ellipse cx="71.813" cy="232.47" rx="3.78" ry="3.784" fill="#322750"/><g stroke-linejoin="round" stroke-linecap="round" stroke-width="10" stroke-miterlimit="10"><path d="m63.91 308.95c0-10.448 8.462-18.918 18.9-18.918s18.9 8.47 18.9 18.918" fill="#bebbc6" stroke="#332b4e"/><path fill="none" stroke="#fbaf31" d="m82.81 267.33v7.567"/><path d="m241.96 261.39l18.671 31.01c3.036 5.04-.554 11.502-6.393 11.502h-68.17c-5.839 0-9.429-6.459-6.393-11.502l18.385-30.537 43.898-.476z" fill="#9ddae4" stroke="#322750"/></g><g fill="#322750"><ellipse cx="219.62" cy="265.86" rx="6.3" ry="6.306"/><ellipse cx="209.54" cy="278.47" rx="3.78" ry="3.784"/><ellipse cx="234.69" cy="284.47" rx="3.78" ry="3.784" opacity=".3"/></g><g stroke-linejoin="round" stroke-linecap="round" stroke-miterlimit="10"><g stroke="#322750"><g fill="none"><path d="m260.63 293.05l-28-46.513v-47.926h-24.948v47.926l-28 46.513c-3.036 5.04.554 11.502 6.393 11.502h68.17c5.839 0 9.429-6.459 6.393-11.502z" stroke-width="10"/><path stroke-width="5" d="m210.65 164.38h30.24"/></g><g stroke-width="5"><ellipse cx="225.77" cy="164.38" rx="7.56" ry="7.567" fill="#9ddae4"/><path fill="none" d="m352.13 162.83h30.24"/><ellipse cx="367.25" cy="162.83" rx="7.56" ry="7.567" fill="#fbaf31"/></g><g fill="none" stroke-width="10"><path d="m60.13 150.04h105.84"/><path d="m24.849 313.99h252"/><path d="m329.77 313.99h205.38"/><path d="m342.37 211.83h181.44"/><path d="m349.93 313.99v-110.98"/><path d="m514.99 313.99v-110.98"/><path d="m150.85 131.12v182.87"/></g></g><g stroke-width="10"><g fill="#bebbc6" stroke="#332b4e"><ellipse cx="150.17" cy="149.25" rx="7.56" ry="7.567"/><path d="m342.37 308.94c0-4.179 3.385-7.567 7.56-7.567 4.175 0 7.56 3.388 7.56 7.567"/><path d="m507.43 308.94c0-4.179 3.385-7.567 7.56-7.567 4.175 0 7.56 3.388 7.56 7.567"/></g><g stroke="#322750"><path d="m384.29 291.92c-6.959 0-12.6-5.641-12.6-12.6v-76.944h25.2v76.944c0 6.959-5.641 12.6-12.6 12.6z" fill="none"/><path d="m384.29 291.92c-6.959 0-12.6-5.641-12.6-12.6v-39.11h25.2v39.11c0 6.959-5.641 12.6-12.6 12.6z" fill="#fbaf31"/><path d="m432.17 291.92c-6.959 0-12.6-5.647-12.6-12.612v-30.27l25.2 3.784v26.484c0 6.966-5.641 12.612-12.6 12.612z" fill="#fd8131"/><path d="m480.05 291.92c-6.959 0-12.6-5.641-12.6-12.6v-76.944h25.2v76.944c0 6.959-5.641 12.6-12.6 12.6z" fill="none"/><path d="m480.05 291.92c-6.959 0-12.6-5.647-12.6-12.612v-46.664h25.2v46.664c0 6.966-5.641 12.612-12.6 12.612z" fill="#e75a35"/></g></g></g><g fill="#322750"><ellipse cx="391.62" cy="260.05" rx="3.78" ry="3.784"/><ellipse cx="431.13" cy="268.46" rx="3.78" ry="3.784" opacity=".3"/><ellipse cx="478.43" cy="248.44" rx="3.78" ry="3.784"/><ellipse cx="421.55" cy="187.6" rx="3.78" ry="3.784"/></g><g fill="#d3d1d8"><ellipse cx="219.62" cy="228.03" rx="3.78" ry="3.784"/><ellipse cx="128.91" cy="56.35" rx="3.78" ry="3.784"/><ellipse cx="99.3" cy="200.25" rx="3.78" ry="3.784"/><ellipse cx="461.53" cy="157.9" rx="3.78" ry="3.784"/></g><ellipse cx="471.1" cy="170.39" rx="3.78" ry="3.784" fill="#322750"/><g stroke-linejoin="round" stroke-linecap="round" stroke-miterlimit="10"><g stroke="#322750"><g fill="none"><path d="m432.17 291.92c-6.959 0-12.6-5.641-12.6-12.6v-76.944h25.2v76.944c0 6.959-5.641 12.6-12.6 12.6z" stroke-width="10"/><path stroke-width="5" d="m410.57 109.88h30.24"/></g><ellipse cx="425.69" cy="109.88" rx="7.56" ry="7.567" fill="#e75a35" stroke-width="5"/></g><g fill="none"><g stroke="#e8e8ec" stroke-width="5"><path d="m480.67 143.84l4.99 4.501"/><path d="m497.08 136.02l-11.418 12.318"/><path d="m254.38 116l-11.418 12.318"/><path d="m242.51 116.45l12.307 11.428"/><path d="m114.14 35.07l-5.94-4.99 5.94-5"/><path d="m129.14 25.08l5.94 5-5.94 4.99"/><path d="m119.2 40.814l5.197-21.473"/></g><path stroke="#bebbc6" stroke-width="10" d="m5 324h550"/></g></g></svg>