<svg xmlns="http://www.w3.org/2000/svg" viewBox="0 0 76 72" enable-background="new 0 0 76 72"><path d="m71 0h-46c-2.757 0-5 2.243-5 5v23h-15c-2.757 0-5 2.243-5 5v38c0 .384.221.735.566.901.139.066.287.099.434.099.223 0 .444-.075.625-.219l9.726-7.781h39.649c2.757 0 5-2.243 5-5v-23h8.649l9.726 7.781c.181.144.402.219.625.219.147 0 .296-.033.434-.099.345-.166.566-.517.566-.901v-38c0-2.757-2.243-5-5-5m-17 59c0 1.654-1.346 3-3 3h-40c-.228 0-.447.077-.625.219l-8.375 6.7v-35.919c0-1.654 1.346-3 3-3h46c1.654 0 3 1.346 3 3v26m20-18.08l-8.375-6.7c-.178-.142-.397-.219-.625-.219h-9v-1c0-2.757-2.243-5-5-5h-29v-23c0-1.654 1.346-3 3-3h46c1.654 0 3 1.346 3 3v35.919"/><path d="m35.5 13.917c-2.206 0-4 1.794-4 4s1.794 4 4 4 4-1.794 4-4-1.794-4-4-4m0 6c-1.103 0-2-.897-2-2s.897-2 2-2 2 .897 2 2-.897 2-2 2"/><path d="m47.5 13.917c-2.206 0-4 1.794-4 4s1.794 4 4 4 4-1.794 4-4-1.794-4-4-4m0 6c-1.103 0-2-.897-2-2s.897-2 2-2 2 .897 2 2-.897 2-2 2"/><path d="m59.5 13.917c-2.206 0-4 1.794-4 4s1.794 4 4 4 4-1.794 4-4-1.794-4-4-4m0 6c-1.103 0-2-.897-2-2s.897-2 2-2 2 .897 2 2-.897 2-2 2"/><path d="m20.12 40.759c-.275-.479-.886-.644-1.366-.368l-7.666 4.409c-.31.178-.501.509-.501.867s.191.688.501.867l7.666 4.409c.157.09.329.133.498.133.347 0 .683-.18.868-.501.275-.479.11-1.09-.368-1.365l-6.159-3.542 6.159-3.542c.479-.277.644-.889.368-1.367"/><path d="m44.08 44.8l-7.665-4.409c-.48-.276-1.09-.11-1.366.368-.275.479-.11 1.09.368 1.365l6.158 3.542-6.158 3.542c-.479.275-.644.887-.368 1.365.186.322.521.501.868.501.169 0 .341-.043.498-.133l7.665-4.409c.31-.178.501-.509.501-.867s-.191-.687-.501-.865"/><path d="m31.33 34.721c-.524-.181-1.092.1-1.271.622l-6.853 20c-.179.522.1 1.091.622 1.27.107.037.217.055.324.055.416 0 .804-.261.946-.676l6.853-20c.18-.524-.099-1.093-.621-1.271"/></svg>