<svg xmlns="http://www.w3.org/2000/svg" viewBox="0 0 76 72" enable-background="new 0 0 76 72"><path d="m71.22 44.02c-.538-.124-1.074.216-1.196.754-1.438 6.352-4.647 11.88-9.04 16.13-.22-.95-.647-1.801-1.315-2.488-.979-1.01-2.376-1.586-3.833-1.586-.963 0-1.883.261-2.683.751-1.483-2.296-4.047-3.724-6.831-3.724-1.458 0-2.865.387-4.1 1.111l-1.372-14.353.266-.004 2.276 4.159c.288.497.786.789 1.402.803l1.667-.023c.034 0 .067-.003.102-.007.401-.046.753-.214 1.015-.483.201-.206.337-.446.407-.72l1.99-8.03c.074-.48-.048-.95-.392-1.377l-4.454-4.812c.111-1.673.163-3.179.153-4.489-.055-3.214-.588-6.02-1.586-8.352-.999-2.33-2.659-4.632-4.935-6.845-.308-.299-.696-.453-1.164-.439-.426.017-.81.188-1.11.497-2.316 2.382-3.935 4.714-4.81 6.932-.873 2.215-1.297 5.05-1.259 8.426.026 1.308.12 2.811.277 4.473l-4.363 4.992c-.29.385-.396.845-.287 1.418l2.19 7.875c.188.707.75 1.147 1.56 1.179l1.665-.023c.425-.005.812-.175 1.119-.492.124-.127.216-.252.276-.373l2.146-4.198.243-.003-1.461 14.281c-1.237-.729-2.649-1.118-4.111-1.118-2.784 0-5.348 1.428-6.831 3.724-.799-.49-1.72-.751-2.683-.751-2.257 0-4.16 1.466-4.859 3.488-3.244-3.268-5.804-7.235-7.425-11.697l7.299 3.812c.487.256 1.094.067 1.35-.423.255-.49.065-1.094-.424-1.349l-9.612-5.02c-.487-.255-1.092-.066-1.349.422l-5.03 9.598c-.257.489-.067 1.093.422 1.35.148.078.307.114.463.114.36 0 .708-.195.887-.536l3.984-7.605c4.796 13.634 17.899 23.01 32.507 23.01 16.211 0 30.03-11.01 33.599-26.779.122-.539-.216-1.075-.755-1.196m-33.851-32.15c.001 0 .001.001.001.001m-2.995 26.838c-.371.005-.708.215-.877.545l-2.307 4.514-1.105.017-2.055-7.374 4.458-5.096c.182-.208.27-.482.242-.757-.178-1.782-.282-3.379-.31-4.738-.035-3.11.341-5.687 1.12-7.66.745-1.889 2.131-3.907 4.121-6 1.935 1.937 3.346 3.923 4.198 5.91.895 2.088 1.374 4.645 1.424 7.589.011 1.36-.05 2.959-.178 4.754-.021.276.075.547.263.75l4.597 4.963-1.846 7.432-1.104.016-2.434-4.447c-.176-.321-.512-.52-.877-.52-.005 0-.01 0-.014 0l-7.316.102m-17.369 23.22c.036-1.712 1.435-3.096 3.156-3.096.864 0 1.671.344 2.273.968.231.24.567.347.894.291.328-.058.605-.275.74-.579.984-2.219 3.186-3.652 5.606-3.652 1.581 0 3.085.605 4.234 1.704.276.264.681.348 1.037.216.358-.132.61-.457.649-.836l1.666-16.275 1.585-.022 1.556 16.29c.036.381.287.708.646.842.357.134.763.051 1.04-.214 1.149-1.099 2.653-1.704 4.234-1.704 2.421 0 4.622 1.434 5.606 3.652.135.304.412.521.739.579.332.056.663-.051.894-.29.604-.625 1.411-.968 2.274-.968.92 0 1.794.357 2.399.979.636.654.955 1.561.925 2.622-.001.033.014.061.016.093-5.658 4.704-12.926 7.466-20.799 7.466-8.03 0-15.578-3.01-21.37-8.07"/><path d="m75.46 14.982c-.491-.257-1.093-.067-1.35.422l-3.984 7.605c-4.796-13.636-17.899-23.01-32.507-23.01-16.211 0-30.03 11.01-33.599 26.779-.122.539.216 1.074.755 1.196.075.017.149.025.222.025.457 0 .869-.315.975-.779 3.362-14.85 16.377-25.22 31.647-25.22 13.651 0 25.894 8.694 30.5 21.371l-7.299-3.812c-.488-.256-1.094-.066-1.35.423-.255.49-.065 1.094.424 1.349l9.612 5.02c.147.077.306.114.462.114.36 0 .708-.195.887-.536l5.03-9.598c.257-.489.067-1.093-.422-1.349"/><path d="m37.972 18c-.549.008-1.016.211-1.403.608-.387.397-.576.871-.569 1.419.008.549.211 1.017.608 1.403.397.386.871.576 1.419.568.549-.007 1.017-.21 1.404-.608.386-.397.576-.871.568-1.42-.008-.548-.21-1.017-.608-1.403-.396-.385-.87-.574-1.419-.567"/></svg>