<svg xmlns="http://www.w3.org/2000/svg" viewBox="0 0 160 184" enable-background="new 0 0 160 184"><path fill="#e55f46" d="m156 136v-88l-76-44-76 44v88l76 44z"/><path d="m80 184c-.692 0-1.384-.18-2-.538l-76-44c-1.235-.716-1.996-2.034-1.996-3.462v-88c0-1.427.761-2.747 1.996-3.462l76-44c1.24-.718 2.77-.718 4.01 0l76 44c1.235.715 1.996 2.035 1.996 3.462v88c0 1.428-.761 2.746-1.996 3.462l-76 44c-.619.358-1.312.538-2 .538m-72-50.31l72 41.685 72-41.685v-83.39l-72-41.684-72 41.684v83.39m148 2.307h.01-.01" fill="#eee"/><g fill="#fca326"><path d="m125.85 105.86v-29.676c4.543-.916 7.972-4.886 7.972-9.632 0-5.42-4.474-9.83-9.972-9.83-2.924 0-5.55 1.254-7.375 3.237l-27.04-15.693c.344-.994.539-2.055.539-3.162 0-5.42-4.474-9.831-9.972-9.831-5.499 0-9.972 4.41-9.972 9.831 0 1.107.195 2.168.539 3.162l-27.04 15.693c-1.826-1.983-4.451-3.237-7.375-3.237-5.499 0-9.972 4.41-9.972 9.83 0 4.745 3.429 8.716 7.972 9.632v29.676c-4.543.916-7.972 4.886-7.972 9.632 0 5.42 4.474 9.83 9.972 9.83 2.807 0 5.342-1.153 7.155-2.999l27.371 17.11c-.415 1.08-.652 2.245-.652 3.467 0 5.42 4.474 9.83 9.972 9.83 5.498 0 9.972-4.41 9.972-9.83 0-1.221-.238-2.387-.652-3.467l27.372-17.11c1.814 1.846 4.349 2.999 7.156 2.999 5.498 0 9.972-4.41 9.972-9.83-.002-4.745-3.43-8.716-7.973-9.632m3.971-39.31c0 2.529-1.661 4.682-3.972 5.487-.305.106-.621.189-.946.247-.024.004-.048.007-.072.011-.32.054-.647.086-.982.086-.335 0-.663-.032-.982-.086-.024-.004-.048-.007-.072-.011-.325-.058-.641-.141-.946-.247-2.311-.806-3.973-2.958-3.973-5.487 0-.373.04-.737.109-1.091.064-.327.159-.644.276-.95.009-.023.017-.047.026-.07.116-.292.258-.572.419-.839.018-.03.037-.06.056-.089.164-.261.347-.51.55-.742.021-.024.043-.046.065-.069.213-.236.442-.458.691-.658 1.031-.826 2.348-1.322 3.782-1.322 3.293 0 5.971 2.615 5.971 5.83m-49.818-31.28c3.293 0 5.972 2.616 5.972 5.831 0 .373-.04.737-.109 1.09-.064.328-.159.644-.276.95-.009.023-.017.046-.026.069-.116.292-.257.572-.418.839-.018.031-.038.061-.057.091-.164.261-.346.509-.549.741-.021.024-.043.046-.064.069-.213.236-.442.458-.691.658-1.031.826-2.348 1.323-3.782 1.323-1.434 0-2.751-.497-3.782-1.322-.249-.2-.478-.422-.691-.658-.021-.023-.043-.045-.064-.068-.203-.232-.386-.481-.55-.742-.019-.03-.038-.06-.056-.09-.161-.267-.302-.547-.418-.839-.009-.023-.017-.047-.026-.07-.117-.306-.212-.622-.276-.949-.069-.354-.109-.718-.109-1.091 0-3.216 2.679-5.832 5.972-5.832m-49.818 31.28c0-3.215 2.679-5.83 5.972-5.83 1.434 0 2.751.497 3.782 1.322.249.2.478.422.691.658.021.023.043.045.064.068.203.232.386.481.55.742.019.03.038.06.056.09.161.267.302.547.418.839.009.023.017.047.026.07.117.306.213.622.276.95.069.354.109.718.109 1.091 0 2.529-1.661 4.682-3.972 5.487-.305.106-.621.189-.946.247-.024.004-.048.007-.072.011-.32.054-.647.086-.982.086s-.663-.032-.982-.086c-.024-.004-.048-.007-.072-.011-.325-.058-.641-.141-.946-.247-2.311-.805-3.972-2.957-3.972-5.487m5.972 54.77c-3.293 0-5.972-2.615-5.972-5.83 0-2.529 1.661-4.682 3.972-5.487.305-.106.621-.189.946-.247.024-.004.048-.007.071-.011.32-.054.647-.086.983-.086s.663.032.983.086c.024.004.048.007.071.011.325.058.641.141.946.247 2.311.806 3.972 2.958 3.972 5.487 0 .44-.055.868-.15 1.281-.234 1.012-.738 1.923-1.434 2.66-.003.003-.006.007-.009.01-.232.244-.484.47-.755.673-1.01.753-2.261 1.206-3.624 1.206m49.818 21.576c0 3.215-2.679 5.83-5.972 5.83s-5.972-2.615-5.972-5.83c0-.44.055-.868.15-1.281.234-1.012.738-1.923 1.433-2.66.003-.004.007-.007.01-.011.232-.244.484-.469.755-.672 1.01-.754 2.261-1.207 3.624-1.207 1.364 0 2.618.453 3.624 1.207.271.203.523.428.755.672.003.004.007.008.01.011.695.737 1.199 1.648 1.433 2.66.095.414.15.841.15 1.281m1.184-6.831c-1.814-1.846-4.349-3-7.156-3-2.807 0-5.342 1.154-7.156 3l-27.371-17.11c.415-1.08.653-2.245.653-3.467 0-4.746-3.429-8.717-7.972-9.632v-29.676c4.543-.916 7.972-4.886 7.972-9.632 0-1.107-.195-2.168-.539-3.162l27.04-15.693c1.826 1.983 4.451 3.237 7.375 3.237 2.924 0 5.549-1.255 7.375-3.237l27.04 15.693c-.344.994-.539 2.055-.539 3.162 0 4.745 3.429 8.716 7.973 9.632v29.676c-4.544.915-7.973 4.886-7.973 9.632 0 1.222.238 2.387.653 3.467l-27.372 17.11m36.691-14.745c-1.363 0-2.617-.453-3.624-1.207-.271-.203-.524-.428-.755-.672-.003-.003-.006-.007-.01-.01-.696-.737-1.2-1.648-1.434-2.66-.095-.413-.15-.84-.15-1.281 0-2.529 1.662-4.682 3.973-5.487.305-.106.621-.189.946-.247.024-.004.048-.007.071-.011.32-.054.647-.086.983-.086.335 0 .662.032.982.086.024.004.049.007.073.011.324.058.641.141.945.247 2.311.806 3.972 2.958 3.972 5.487-.001 3.215-2.679 5.83-5.972 5.83"/><path d="m94.26 97.18c-2.082-.394-4.442-.84-7.177-2.896-.176-.133-.388-.201-.601-.201-.148 0-.297.033-.435.1-.332.161-2.592 2.246-6.03 2.246-.007 0-.014 0-.021 0-.006 0-.013 0-.019 0-3.459 0-5.694-2.095-6.03-2.257-.133-.064-.276-.095-.419-.095-.218 0-.434.072-.615.208-2.735 2.056-5.095 2.502-7.177 2.896-2.677.506-5.206.984-6.221 5.172-.067.276-.013.567.147.801 4.421 6.442 10 13.337 20.292 13.591.008 0 .017 0 .025 0 .008 0 .015 0 .023 0 .006 0 .013 0 .019 0 .007 0 .014 0 .021 0 10.292-.255 15.87-7.149 20.292-13.591.161-.234.214-.526.147-.801-1.016-4.188-3.544-4.666-6.221-5.173"/><path d="m79.909 90.71c2.104 0 3.969-.8 5.543-2.377 3.059-3.066 4.079-8.196 4.075-10.06-.017-7.307-3.253-11.01-9.618-11.01-2.945 0-5.275.857-6.924 2.546-1.853 1.898-2.785 4.835-2.698 8.493.063 2.623 1.881 12.416 9.622 12.416"/></g></svg>