<svg xmlns="http://www.w3.org/2000/svg" viewBox="0 0 128 128" enable-background="new 0 0 128 128"><path d="m67.991 34.915l1.798-4.337c1.265.29 2.211 1.425 2.211 2.776v17.14c0 .552.448 1 1 1s1-.448 1-1v-17.14c0-2.674-2.175-4.849-4.849-4.849-.404 0-.769.244-.924.617l-1.771 4.273-12.456-2.411c-.331-.064-.675.044-.91.288s-.331.589-.255.919l.723 3.133-10.162-6.655c-.163-.107-.353-.164-.548-.164-2.674 0-4.849 2.175-4.849 4.849v17.14c0 .552.448 1 1 1s1-.448 1-1v-17.14c0-1.478 1.13-2.696 2.571-2.835l11.974 7.842c.341.224.786.217 1.12-.016.335-.233.495-.647.403-1.045l-.937-4.06 11.747 2.274c.465.089.932-.16 1.114-.599"/><path d="m117.18 79.38c-2.647-1.979-5.542-3.396-8.542-4.277 2.22-6.115 3.359-12.534 3.359-19.11 0-30.878-25.12-56-56-56s-56 25.12-56 56 25.12 56 56 56c6.571 0 12.99-1.138 19.1-3.358 1.63 5.563 4.994 10.431 9.719 13.964 4.719 3.538 10.333 5.398 16.13 5.398 1.291 0 2.591-.092 3.892-.279 7.139-1.024 13.451-4.767 17.773-10.539 8.917-11.923 6.48-28.881-5.433-37.802m-115.18-23.384c0-29.776 24.22-54 54-54s54 24.22 54 54c0 6.408-1.121 12.665-3.308 18.618-7.406-1.583-15.253.003-21.471 4.475-5.799-2.303-13.472-3.58-16.05-3.833.124-1.724.25-3.37.372-4.419 2.381-1.653 3.996-3.944 4.151-5.902.214-1.793.425-3.585.632-5.381.103.022.206.039.311.05 1.645.167 3.107-1.033 3.271-2.664l1.088-10.512c.084-.79-.145-1.565-.646-2.183-.503-.621-1.219-1.01-2.01-1.087-.036-.004-.071-.007-.107-.01.182-1.553.362-3.104.538-4.692.019-.272.05-.59.084-.948.313-3.266.966-10.06-4.119-14.601-7.979-7.834-25.501-7.834-33.443-.033-5.111 4.564-4.465 11.354-4.155 14.617.035.363.066.687.089 1.012l.108.926c.145 1.24.289 2.478.432 3.719-.035.002-.07.005-.105.009-.792.081-1.505.466-2.01 1.084-.502.617-.734 1.392-.652 2.182l1.088 10.51c.077.79.458 1.502 1.073 2.01.618.507 1.396.742 2.2.662.102-.011.204-.027.304-.048.189 1.628.38 3.253.572 4.878l.056.471c.175 1.998 1.794 4.288 4.165 5.933.129 1.118.262 2.909.393 4.757-2.349.349-8.479 1.963-13.33 3.432-12.778 3.869-12.778 5.202-12.778 6.085v7.908c-9.132-9.675-14.746-22.701-14.746-37.02m56.61 17.336h-4.854c-1.197 0-2.395-.283-3.464-.818l-6.46-3.23c-.047-.023-.097-.024-.146-.04-1.891-1.289-3.28-3.113-3.406-4.545l-.059-.5c-.248-2.107-.496-4.215-.739-6.329-.044-.386-.309-.711-.678-.834-.367-.123-.774-.021-1.042.261-.121.128-.325.287-.605.316-.262.028-.523-.051-.729-.219-.201-.165-.325-.397-.351-.661l-1.088-10.516c-.027-.258.049-.512.214-.714.166-.204.4-.331.666-.358.191-.02.388.019.553.112.328.186.73.17 1.043-.038.313-.207.483-.572.441-.945-.191-1.7-.388-3.386-.586-5.078l-.104-.876c-.02-.292-.052-.634-.088-1.019-.301-3.161-.86-9.05 3.531-12.968 7.309-7.179 23.363-7.179 30.709.033 4.364 3.896 3.798 9.787 3.494 12.951-.036.377-.068.713-.084.959-.206 1.851-.421 3.692-.639 5.546l-.052.447c-.043.372.124.736.434.945.311.21.713.227 1.04.048.18-.099.371-.14.571-.117.263.026.499.153.664.358.164.201.238.453.21.713l-1.089 10.52c-.054.538-.541.938-1.079.877-.287-.03-.494-.19-.617-.319-.268-.281-.673-.382-1.042-.258-.368.124-.631.449-.675.834-.26 2.28-.526 4.553-.802 6.866-.116 1.456-1.61 3.38-3.635 4.679-.245.157-.41.414-.45.702-.177 1.257-.348 3.667-.529 6.22-.168 2.366-.341 4.811-.507 6.03-.254.779-3.02 8.626-11.549 8.626-6.888 0-9.378-7.772-9.627-8.613-.161-1.212-.331-3.637-.496-5.984-.116-1.653-.228-3.244-.34-4.509l4.827 2.414c1.346.673 2.853 1.029 4.359 1.029h4.854c.552 0 1-.448 1-1s-.447-1-.999-1m-2.613 36.664c-14.438 0-27.559-5.706-37.26-14.968v-9.71c1.831-1.838 20.14-7.161 24.25-7.742.151 2.138.297 4.07.446 5.151.006.044.015.088.027.131.028.101 2.917 10.138 11.572 10.138 10.406 0 13.458-10.02 13.487-10.125.013-.046.023-.093.03-.141.161-1.135.316-3.208.478-5.477 2.056.22 8.771 1.257 14.365 3.279-1.459 1.255-2.808 2.68-4.01 4.282-4.322 5.775-6.138 12.887-5.111 20.02.09.625.208 1.24.339 1.852-5.952 2.187-12.208 3.307-18.615 3.307m65.02 5.987c-4 5.344-9.847 8.81-16.457 9.758-6.609.948-13.194-.735-18.537-4.74-5.347-3.998-8.815-9.839-9.766-16.448-.95-6.608.73-13.192 4.733-18.541 4.903-6.549 12.428-10 20.04-10 5.211 0 10.467 1.619 14.951 4.973 11.03 8.261 13.288 23.962 5.03 35"/><path d="m93.12 95.84c-.276-.478-.888-.641-1.366-.364l-8.04 4.655c-.309.179-.499.508-.499.865s.19.687.499.865l8.04 4.655c.158.091.33.135.5.135.345 0 .681-.179.866-.499.277-.478.114-1.09-.364-1.366l-6.547-3.79 6.546-3.79c.478-.276.641-.888.365-1.366"/><path d="m118.28 100.14l-8.04-4.655c-.478-.277-1.09-.114-1.366.364-.277.478-.114 1.09.364 1.366l6.546 3.79-6.546 3.79c-.478.276-.641.888-.364 1.366.185.32.521.499.866.499.17 0 .342-.043.5-.135l8.04-4.655c.309-.179.499-.508.499-.865s-.19-.687-.499-.865"/><path d="m104.92 89.5c-.525-.177-1.091.101-1.269.625l-7.188 21.12c-.178.523.102 1.091.625 1.269.107.036.215.054.322.054.417 0 .805-.262.947-.678l7.188-21.12c.177-.524-.103-1.092-.625-1.27"/></svg>