<svg enable-background="new 0 0 311 173" viewBox="0 0 311 173" xmlns="http://www.w3.org/2000/svg"><path d="m36.5 20h142v4.8h-142z" fill="#251b3f"/><circle cx="22.4" cy="22.4" fill="#fff" r="22.4"/><g fill="#31af64"><path d="m30.3 16.1c-.6-.6-1.6-.5-2.1.1l-8.6 9.2-3.1-2.8c-.6-.6-1.6-.5-2.1.1-.6.6-.5 1.6.1 2.1l4.2 3.8c.1.1.2.1.3.2.1 0 .1.1.2.1.2.1.4.1.5.1h.3.1c.1 0 .1 0 .2-.1 0 0 .1 0 .1-.1.1 0 .1-.1.2-.1 0 0 .1-.1.1-.1s.1-.1.1-.1l9.6-10.3c.5-.6.5-1.5-.1-2.1"/><path d="m22.4 41.1c-10.3 0-18.7-8.4-18.7-18.7s8.4-18.7 18.7-18.7 18.7 8.4 18.7 18.7-8.4 18.7-18.7 18.7m0-34.4c-8.7 0-15.7 7-15.7 15.7s7 15.7 15.7 15.7 15.7-7 15.7-15.7-7.1-15.7-15.7-15.7"/></g><circle cx="87.8" cy="22.4" fill="#fff" r="22.4"/><g fill="#31af64"><path d="m95.8 16.1c-.6-.6-1.6-.5-2.1.1l-8.6 9.2-3.1-2.7c-.6-.6-1.6-.5-2.1.1-.6.6-.5 1.6.1 2.1l4.2 3.8c.1.1.2.1.3.2.1 0 .1.1.2.1h.4.3.1c.1 0 .1 0 .2-.1 0 0 .1 0 .1-.1.1 0 .1-.1.2-.1 0 0 .1-.1.1-.1s.1-.1.1-.1l9.6-10.3c.6-.6.6-1.5 0-2.1"/><path d="m87.8 41.1c-10.3 0-18.7-8.4-18.7-18.7s8.4-18.7 18.7-18.7 18.7 8.4 18.7 18.7-8.3 18.7-18.7 18.7m0-34.4c-8.7 0-15.7 7-15.7 15.7s7 15.7 15.7 15.7 15.7-7 15.7-15.7-7-15.7-15.7-15.7"/></g><path d="m174 44.8h-20.7c-12.4 0-22.4-10-22.4-22.4s10.1-22.4 22.4-22.4h20.7c12.4 0 22.4 10 22.4 22.4-.1 12.3-10.1 22.4-22.4 22.4" fill="#fff"/><path d="m174 39.6h-20.7c-9.5 0-17.2-7.7-17.2-17.2s7.7-17.2 17.2-17.2h20.7c9.5 0 17.2 7.7 17.2 17.2s-7.7 17.2-17.2 17.2" fill="#f9c0c0"/><g fill="#e63e2f"><path d="m174 41.1h-20.7c-10.3 0-18.7-8.4-18.7-18.7s8.4-18.7 18.7-18.7h20.7c10.3 0 18.7 8.4 18.7 18.7s-8.4 18.7-18.7 18.7m-20.7-34.4c-8.7 0-15.7 7-15.7 15.7s7 15.7 15.7 15.7h20.7c8.7 0 15.7-7 15.7-15.7s-7-15.7-15.7-15.7z"/><path d="m159.2 26.1-4.1-3.8 3.8-4.1c.6-.6.5-1.6-.1-2.1-.6-.6-1.6-.5-2.1.1l-3.8 4.1-4.1-3.8c-.6-.6-1.6-.5-2.1.1-.6.6-.5 1.6.1 2.1l4.1 3.8-3.8 4.1c-.6.6-.5 1.6.1 2.1.3.3.7.4 1 .4.4 0 .8-.2 1.1-.5l3.8-4.1 4.1 3.8c.3.3.7.4 1 .4.4 0 .8-.2 1.1-.5.5-.6.5-1.6-.1-2.1"/><path d="m180.4 21.3-4.3 4.3c-.3.3-.7.3-1 0l-4.3-4.3c-.4-.4-.1-1.2.5-1.2h8.6c.6.1.9.8.5 1.2"/></g><path d="m257.6 111.7-8.1 8.1-10.9-10.8 8.2-8.1z" fill="#b3b3b3"/><path d="m253.8 115.5-4.3 4.3-10.9-10.8 4.4-4.3z" fill="#999"/><path d="m209.1 117.5c-12.5 0-24.2-4.8-33-13.6s-13.7-20.5-13.7-32.9 4.9-24.1 13.7-32.9 20.6-13.6 33-13.6 24.2 4.8 33 13.6 13.7 20.5 13.7 32.9-4.9 24.1-13.7 32.9-20.5 13.6-33 13.6" fill="#333"/><path d="m209.1 27.9c11.6 0 22.4 4.5 30.6 12.6s12.7 19 12.7 30.5-4.5 22.3-12.7 30.5c-8.2 8.1-19 12.6-30.6 12.6s-22.4-4.5-30.6-12.6-12.7-19-12.7-30.5 4.5-22.3 12.7-30.5c8.2-8.1 19.1-12.6 30.6-12.6m0-6.9c-12.8 0-25.7 4.9-35.5 14.6-19.6 19.5-19.6 51.1 0 70.7 9.8 9.8 22.6 14.6 35.5 14.6s25.7-4.9 35.5-14.6c19.6-19.5 19.6-51.1 0-70.7-9.8-9.7-22.6-14.6-35.5-14.6z" fill="#999"/><path d="m308.2 170.2c-3.7 3.7-9.8 3.7-13.5 0l-47.9-47.7c-1.8-1.8-1.8-4.7 0-6.5l7-7c1.8-1.8 4.7-1.8 6.5 0l47.9 47.7c3.7 3.8 3.7 9.8 0 13.5" fill="#4d4d4d"/><path d="m246.5 116.3c-1.5 1.8-1.4 4.5.3 6.2l47.9 47.7c2.3 2.3 5.6 3.2 8.6 2.6z" fill="#333"/><path d="m209.1 24.8c12.4 0 24 4.8 32.8 13.5 8.7 8.7 13.6 20.3 13.6 32.6s-4.8 23.9-13.6 32.6c-8.7 8.7-20.4 13.5-32.8 13.5s-24-4.8-32.8-13.5c-8.7-8.7-13.6-20.3-13.6-32.6s4.8-23.9 13.6-32.6 20.5-13.5 32.8-13.5m0-3.8c-12.8 0-25.7 4.9-35.5 14.6-19.6 19.5-19.6 51.1 0 70.7 9.8 9.8 22.6 14.6 35.5 14.6s25.7-4.9 35.5-14.6c19.6-19.5 19.6-51.1 0-70.7-9.8-9.7-22.6-14.6-35.5-14.6z" fill="#ccc"/><path d="m209.1 117.1c-12.4 0-24-4.8-32.7-13.5s-13.6-20.3-13.6-32.6 4.8-23.9 13.6-32.6l-2.7-2.7c-19.6 19.5-19.6 51.1 0 70.7.3.3.6.6.9.9 9.4 8.9 21.3 13.4 33.3 13.7h1.2c6.4 0 12.8-1.2 18.9-3.7 1.1-.5 2.3-1 3.4-1.5.7-.4 1.5-.7 2.2-1.1 4-2.2 7.7-5 11.1-8.3l-2.7-2.7c-8.9 8.6-20.5 13.4-32.9 13.4" fill="#b3b3b3"/><g opacity=".5"><path d="m200.1 98.6c-1.5 0-2.7-1.2-2.7-2.7s1.2-2.7 2.7-2.7h7.7c1.5 0 2.7 1.2 2.7 2.7s-1.2 2.7-2.7 2.7z" fill="#e24329"/><path d="m207.8 93.6c1.3 0 2.3 1 2.3 2.3s-1 2.3-2.3 2.3h-7.7c-1.3 0-2.3-1-2.3-2.3s1-2.3 2.3-2.3zm0-.7h-7.7c-1.7 0-3.1 1.4-3.1 3.1s1.4 3.1 3.1 3.1h7.7c1.7 0 3.1-1.4 3.1-3.1s-1.4-3.1-3.1-3.1z" fill="#f24c4c"/><path d="m182.4 37.6c2.7-2.1 5.6-3.9 8.7-5.4h36.2c3.1 1.4 6 3.2 8.7 5.4z" fill="#22b573"/><path d="m227.1 32.6c2.7 1.3 5.3 2.8 7.6 4.6h-51.3c2.4-1.8 4.9-3.3 7.6-4.6zm.2-.8h-36.3c-3.4 1.6-6.7 3.6-9.6 6.1h55.6c-3-2.4-6.3-4.5-9.7-6.1z" fill="#40cc7f"/><path d="m174.9 47.5c-.5 0-.9-.1-1.3-.3 1.2-1.8 2.5-3.4 4-5h5c1.5 0 2.7 1.2 2.7 2.7s-1.2 2.7-2.7 2.7h-7.7z" fill="#e24329"/><path d="m182.5 42.5c1.3 0 2.3 1 2.3 2.3s-1 2.3-2.3 2.3h-7.7c-.3 0-.5 0-.8-.1 1.1-1.6 2.3-3.1 3.6-4.5zm0-.8h-5.2c-1.6 1.7-3 3.6-4.3 5.5.5.4 1.1.6 1.8.6h7.7c1.7 0 3.1-1.4 3.1-3.1 0-1.6-1.4-3-3.1-3z" fill="#f24c4c"/><path d="m166.3 68.8c.1-1.8.3-3.6.6-5.4h7.9c1.5 0 2.7 1.2 2.7 2.7s-1.2 2.7-2.7 2.7z" fill="#6b4fbb"/><path d="m174.9 63.9c1.3 0 2.3 1 2.3 2.3s-1 2.3-2.3 2.3h-8.1c.1-1.5.3-3.1.5-4.6zm0-.8h-8.3c-.4 2-.6 4-.7 6.1h8.9c1.7 0 3.1-1.4 3.1-3.1s-1.3-3-3-3z" fill="#6b5fc4"/><path d="m184.8 68.8c-1.5 0-2.7-1.2-2.7-2.7s1.2-2.7 2.7-2.7h38.3c1.5 0 2.7 1.2 2.7 2.7s-1.2 2.7-2.7 2.7z" fill="#fca326"/><path d="m223.1 63.9c1.3 0 2.3 1 2.3 2.3s-1 2.3-2.3 2.3h-38.3c-1.3 0-2.3-1-2.3-2.3s1-2.3 2.3-2.3zm0-.8h-38.3c-1.7 0-3.1 1.4-3.1 3.1s1.4 3.1 3.1 3.1h38.3c1.7 0 3.1-1.4 3.1-3.1s-1.4-3.1-3.1-3.1z" fill="#f9b767"/><path d="m233 68.8c-1.5 0-2.7-1.2-2.7-2.7s1.2-2.7 2.7-2.7h18.3c.3 1.8.5 3.6.6 5.4z" fill="#22b573"/><path d="m251 63.9c.3 1.5.4 3.1.5 4.6h-18.5c-1.3 0-2.3-1-2.3-2.3s1-2.3 2.3-2.3zm.7-.8h-18.7c-1.7 0-3.1 1.4-3.1 3.1s1.4 3.1 3.1 3.1h19.3c0-2.2-.3-4.2-.6-6.2z" fill="#40cc7f"/><path d="m167 78.8c-.3-1.8-.5-3.6-.6-5.4h85.6c-.1 1.8-.3 3.6-.6 5.4z" fill="#22b573"/><path d="m251.5 73.8c-.1 1.5-.3 3.1-.6 4.6h-83.7c-.3-1.5-.5-3.1-.6-4.6zm.8-.8h-86.4c.1 2.1.3 4.1.7 6.1h85c.4-2 .6-4 .7-6.1z" fill="#40cc7f"/><path d="m170.1 88.7c-.8-1.7-1.5-3.5-2-5.4h50.4c1.5 0 2.7 1.2 2.7 2.7s-1.2 2.7-2.7 2.7z" fill="#22b573"/><path d="m218.5 83.7c1.3 0 2.3 1 2.3 2.3s-1 2.3-2.3 2.3h-48.2c-.7-1.5-1.3-3-1.8-4.6zm0-.8h-50.9c.6 2.1 1.4 4.1 2.3 6.1h48.6c1.7 0 3.1-1.4 3.1-3.1 0-1.6-1.4-3-3.1-3z" fill="#40cc7f"/><path d="m228.4 88.7c-1.5 0-2.7-1.2-2.7-2.7s1.2-2.7 2.7-2.7h21.8c-.5 1.8-1.2 3.6-2 5.4z" fill="#22b573"/><path d="m249.7 83.7c-.5 1.6-1.1 3.1-1.8 4.6h-19.5c-1.3 0-2.3-1-2.3-2.3s1-2.3 2.3-2.3zm1-.8h-22.3c-1.7 0-3.1 1.4-3.1 3.1s1.4 3.1 3.1 3.1h20c.9-2 1.7-4.1 2.3-6.2z" fill="#40cc7f"/><path d="m176.4 98.6c-1.2-1.5-2.4-3-3.4-4.6.5-.5 1.2-.8 1.9-.8h15.3c1.5 0 2.7 1.2 2.7 2.7s-1.2 2.7-2.7 2.7z" fill="#6b4fbb"/><path d="m190.2 93.6c1.3 0 2.3 1 2.3 2.3s-1 2.3-2.3 2.3h-13.6c-1.1-1.3-2.2-2.7-3.1-4.2.4-.3.9-.4 1.4-.4zm0-.7h-15.3c-.9 0-1.8.4-2.3 1.1 1.1 1.7 2.4 3.4 3.7 5h13.9c1.7 0 3.1-1.4 3.1-3.1s-1.4-3-3.1-3z" fill="#6b5fc4"/></g><path d="m214.3 56.8c.3-.5.5-1 .5-1.5 0-2.1-2.5-3.8-5.7-3.8s-5.7 1.7-5.7 3.8c0 .5.2 1 .5 1.5-4.7 2.8-8.1 9.3-8.1 16.9 0 10.2 5.9 18.4 13.3 18.4s13.3-8.3 13.3-18.4c0-7.5-3.3-14.1-8.1-16.9" fill="#333"/><g fill="#fff"><ellipse cx="209.1" cy="85" rx="1.9" ry="1.9"/><path d="m209.1 63.9c-.6 0-1.3.3-1.7.7-.4.5-.7 1.1-.6 1.7l.8 13.5c0 .8.7 1.3 1.4 1.3s1.4-.6 1.4-1.3l1-13.5c0-.6-.2-1.3-.6-1.8-.4-.3-1-.6-1.7-.6"/><path d="m235.1 73.1c-.4-.4-1-.4-1.3 0l-1 1-5.5-5.5c-.3-.3-.7-.3-1-.2l-3.2 1.3c-.4-2.5-1.1-4.8-2.2-6.9l4.9-1.9c.4-.2.7-.6.6-1l-1.3-7.5 2.1-.7c.5-.2.8-.7.6-1.2s-.7-.8-1.2-.6l-2.8.9c-.4.1-.7.6-.6 1.1l1.3 7.5-4.4 1.7c-1.2-1.9-2.7-3.5-4.4-4.7.1-.4.2-.8.2-1.2 0-1.4-.8-2.6-2-3.4l1.3-2c.2-.2.2-.5.1-.8l-.9-3.3c-.1-.5-.7-.8-1.2-.6-.5.1-.8.7-.6 1.2l.8 2.9-1.2 1.8c-.9-.3-1.9-.5-2.9-.5-1.1 0-2.1.2-3 .5l-1.2-1.9.8-2.9c.1-.5-.1-1-.6-1.2-.5-.1-1 .1-1.2.6l-.9 3.3c-.1.3 0 .6.1.8l1.4 2c-1.2.9-1.9 2-1.9 3.4 0 .4.1.8.2 1.2-1.7 1.2-3.1 2.7-4.3 4.6l-4.4-1.7 1.3-7.5c.1-.5-.2-.9-.6-1.1l-2.8-.9c-.5-.2-1 .1-1.2.6s.1 1 .6 1.2l2.1.7-1.3 7.5c-.1.4.2.9.6 1l4.8 1.9c-1 2-1.8 4.4-2.2 6.9l-3.1-1.3c-.3-.1-.8-.1-1 .2l-5.5 5.5-1-1c-.4-.4-1-.4-1.3 0-.4.4-.4 1 0 1.3l1.7 1.7c.2.2.4.3.7.3s.5-.1.7-.3l5.7-5.7 3 1.2c-.1.7-.1 1.4-.1 2.2 0 2.6.4 5.1 1.1 7.4l-4.8 1.9c-.3.1-.5.4-.6.7l-1.7 7.5h-2.1c-.5 0-.9.4-.9.9s.4.9.9.9h2.8c.4 0 .8-.3.9-.7l1.8-7.8 4.3-1.7c2.4 6.1 7.1 10.2 12.5 10.2s10.1-4.1 12.5-10.2l4.4 1.7 1.8 7.8c.1.4.5.7.9.7h2.8c.5 0 .9-.4.9-.9s-.4-.9-.9-.9h-2.1l-1.7-7.5c-.1-.3-.3-.6-.6-.7l-4.9-1.9c.7-2.3 1.1-4.8 1.1-7.4 0-.7 0-1.4-.1-2.1l3.1-1.3 5.7 5.7c.2.2.4.3.7.3s.5-.1.7-.3l1.7-1.7c-.1-.1-.1-.7-.5-1.1m-30.7-17.8c0-1.5 2.2-2.8 4.7-2.8 1 0 1.9.2 2.7.5 1.2.5 2 1.4 2 2.3v.2c-1.5-.7-3.1-1.1-4.7-1.1-1.7 0-3.2.4-4.7 1.1 0-.1 0-.1 0-.2m4.7 36c-6.8 0-12.3-7.8-12.3-17.5s5.5-17.5 12.3-17.5 12.3 7.8 12.3 17.5-5.5 17.5-12.3 17.5"/></g><g fill="#251b3f"><path d="m.1 53.5h1.8c.9 0 1.6.2 2 .5s.6.8.6 1.6-.2 1.2-.6 1.6c-.4.3-1 .5-2 .5h-.5v2.5h-1.3v-6.7m1.3 1.1v1.9h.5c.4 0 .7-.1.9-.2s.3-.4.3-.7-.1-.7-.3-.8-.5-.2-.9-.2z"/><path d="m5.8 55.1h2.5v3.9h1.6v1h-4.5v-1h1.6v-2.9h-1.2zm1.2-2.4h1.3v1.5h-1.3z"/><path d="m12.1 59.4v2.6h-1.3v-6.8h1.3v.7c.1-.3.3-.5.5-.6s.5-.2.8-.2c.6 0 1 .2 1.3.7s.5 1.1.5 1.9-.2 1.5-.5 1.9-.8.7-1.3.7c-.3 0-.5-.1-.7-.2-.2-.3-.4-.5-.6-.7m1.8-1.8c0-.5-.1-.8-.2-1.1-.2-.3-.4-.4-.7-.4s-.5.1-.7.4-.2.6-.2 1.1.1.8.2 1.1c.2.3.4.4.7.4s.5-.1.7-.4.2-.6.2-1.1"/><path d="m20.5 59.8c-.3.1-.6.2-.9.3s-.6.1-1 .1c-.8 0-1.5-.2-1.9-.7-.4-.4-.7-1.1-.7-1.9s.2-1.4.6-1.9 1-.7 1.7-.7 1.3.2 1.7.6.6 1 .6 1.8v.6h-3.3c0 .4.1.7.3.9s.6.3 1 .3c.3 0 .6 0 .9-.1s.6-.2.9-.4v1.1zm-1.1-2.8c0-.3-.1-.6-.3-.8s-.4-.3-.7-.3-.5.1-.7.3-.3.4-.3.8z"/><path d="m22.7 58v-3.8h-1.3v-1h2.6v4.8c0 .4.1.7.2.8.1.2.3.2.6.2h1v1h-1.4c-.6 0-1.1-.2-1.3-.5s-.4-.8-.4-1.5"/><path d="m27.4 55.1h2.6v3.9h1.6v1h-4.5v-1h1.6v-2.9h-1.3zm1.3-2.4h1.3v1.5h-1.3z"/><path d="m36.6 56.9v3.2h-1.3v-3c0-.4-.1-.6-.2-.8s-.3-.2-.5-.2-.4.1-.5.3-.2.5-.2.9v2.8h-1.3v-4.9h1.3v.7c.1-.3.2-.5.5-.6.2-.1.5-.2.8-.2.5 0 .8.2 1.1.5.2.2.3.6.3 1.3"/><path d="m42.1 59.8c-.3.1-.6.2-.9.3s-.6.1-1 .1c-.8 0-1.5-.2-1.9-.7-.4-.4-.7-1.1-.7-1.9s.2-1.4.6-1.9 1-.7 1.7-.7 1.3.2 1.7.6.6 1 .6 1.8v.6h-3.2c0 .4.1.7.3.9s.6.3 1 .3c.3 0 .6 0 .9-.1s.6-.2.9-.4zm-1.1-2.8c0-.3-.1-.6-.3-.8-.1-.1-.3-.2-.7-.2-.3 0-.5.1-.7.3s-.3.4-.3.8z"/><path d="m51.2 53.6-.4 1.6h.9l.4-1.6h1l-.4 1.6h.8v.9h-1.1l-.3 1.3h.9v.9h-1.1l-.4 1.6h-1l.4-1.6h-.9l-.4 1.6h-1l.4-1.6h-.9v-.9h1.1l.3-1.3h-1v-.9h1.2l.4-1.6zm.3 2.6h-.9l-.3 1.3h.9z"/><path d="m54.4 58.9h1.5v-4.3l-1.4.4v-1.2l1.4-.3h1.3v5.4h1.4v1.1h-4.2z"/><path d="m63.5 53.6v1.2c-.2-.1-.5-.2-.7-.3s-.4-.1-.6-.1c-.5 0-.8.2-1.1.5-.2.3-.4.8-.4 1.4.1-.2.3-.3.5-.4s.5-.1.8-.1c.6 0 1 .2 1.4.6.3.4.5.9.5 1.6s-.2 1.3-.5 1.7c-.4.4-.9.6-1.5.6-.8 0-1.4-.3-1.7-.8-.4-.5-.5-1.4-.5-2.6 0-1.1.2-2 .7-2.6.4-.6 1.1-.9 2-.9.2 0 .4 0 .6.1 0 0 .3.1.5.1m-1.7 3.2c-.3 0-.5.1-.6.3s-.2.5-.2.9.1.7.2.9.4.3.6.3.5-.1.6-.3c.2-.2.2-.5.2-.9s-.1-.7-.2-.9-.3-.3-.6-.3"/><path d="m66.1 56.6c-.3-.1-.6-.3-.8-.5s-.3-.5-.3-.9c0-.5.2-1 .5-1.3.4-.3.8-.5 1.4-.5s1.1.2 1.5.5.5.7.5 1.3c0 .4-.1.6-.3.9-.2.2-.4.4-.7.5.4.1.6.3.9.6.2.3.3.6.3 1 0 .6-.2 1.1-.6 1.5-.4.3-.9.5-1.6.5s-1.2-.2-1.6-.5-.3-.9-.3-1.5c0-.4.1-.8.3-1s.5-.5.8-.6m1 .5c-.3 0-.5.1-.7.3s-.3.4-.3.7.1.5.3.7.4.3.7.3.5-.1.7-.3.3-.4.3-.7-.1-.5-.3-.7-.4-.3-.7-.3m-.8-1.9c0 .3.1.5.2.6.1.2.3.2.6.2s.5-.1.6-.2c.1-.2.2-.4.2-.6 0-.3-.1-.5-.2-.6s-.4-.2-.6-.2c-.3 0-.5.1-.6.2-.2.2-.2.4-.2.6"/><path d="m71.7 58.9h2.8v1.1h-4.2v-1.1l.7-.7c.8-.9 1.3-1.4 1.5-1.6.2-.3.4-.5.5-.7s.1-.4.1-.6c0-.3-.1-.5-.3-.7s-.4-.2-.8-.2c-.2 0-.5 0-.8.1s-.6.2-.9.4v-1.2c.3-.1.6-.2.9-.3s.6-.1.9-.1c.7 0 1.2.2 1.6.5s.6.8.6 1.3c0 .3 0 .5-.1.7s-.2.5-.4.8c-.2.2-.6.6-1.3 1.3-.3.5-.6.8-.8 1"/><path d="m75.8 53.5h4.2v.9l-2.2 5.6h-1.3l2.1-5.4h-2.7v-1.1z"/><path d="m81.5 60v-1.2c.2.1.5.2.7.3s.4.1.6.1c.5 0 .8-.2 1.1-.5.2-.3.4-.8.4-1.4-.1.2-.3.3-.5.4s-.5.1-.8.1c-.6 0-1-.2-1.4-.6-.3-.4-.5-.9-.5-1.6s.2-1.3.5-1.7c.4-.4.9-.6 1.5-.6.8 0 1.4.3 1.7.8.4.5.5 1.4.5 2.6 0 1.1-.2 2-.7 2.6-.4.6-1.1.9-2 .9-.2 0-.4 0-.6-.1s-.2 0-.5-.1m1.7-3.2c.3 0 .5-.1.6-.3s.2-.5.2-.9-.1-.7-.2-.9-.4-.3-.6-.3c-.3 0-.5.1-.6.3-.2.2-.2.5-.2.9s.1.7.2.9.4.3.6.3"/></g></svg>