<svg xmlns="http://www.w3.org/2000/svg" xmlns:xlink="http://www.w3.org/1999/xlink" viewBox="0 0 32 32" enable-background="new 0 0 32 32"><defs><path id="K" d="m-85 186h223v4h-223z"/><path id="L" d="m-349 186h223v4h-223z"/><path id="M" d="m-106 133h1v15h-1z"/><path id="N" d="m-106 175h1v15h-1z"/><path id="O" d="m-105.5 174c6.904 0 12.5-5.596 12.5-12.5s-5.596-12.5-12.5-12.5-12.5 5.596-12.5 12.5 5.596 12.5 12.5 12.5m-23.5-36h47v47h-47v-47"/><path id="P" d="m-85 311h223v4h-223z"/><path id="Q" d="m-349 311h223v4h-223z"/><path id="R" d="m-106 258h1v15h-1z"/><path id="S" d="m-106 300h1v15h-1z"/><path id="T" d="m-105.5 299c6.904 0 12.5-5.596 12.5-12.5s-5.596-12.5-12.5-12.5-12.5 5.596-12.5 12.5 5.596 12.5 12.5 12.5m-23.5-36h47v47h-47v-47"/><path id="U" d="m-85 423h223v4h-223z"/><path id="V" d="m-349 423h223v4h-223z"/><path id="W" d="m-106 370h1v15h-1z"/><path id="X" d="m-106 412h1v15h-1z"/><path id="Y" d="m-105.5 411c6.904 0 12.5-5.596 12.5-12.5s-5.596-12.5-12.5-12.5-12.5 5.596-12.5 12.5 5.596 12.5 12.5 12.5m-23.5-36h47v47h-47v-47"/><path id="Z" d="m-85 543h223v4h-223z"/><path id="a" d="m-349 543h223v4h-223z"/><path id="b" d="m-106 490h1v15h-1z"/><path id="c" d="m-106 532h1v15h-1z"/><path id="d" d="m-105.5 531c6.904 0 12.5-5.596 12.5-12.5s-5.596-12.5-12.5-12.5-12.5 5.596-12.5 12.5 5.596 12.5 12.5 12.5m-23.5-36h47v47h-47v-47"/><use id="e" xlink:href="#y"/><use id="f" xlink:href="#y"/><use id="g" xlink:href="#y"/><use id="h" xlink:href="#y"/><use id="i" xlink:href="#y"/><path id="j" d="m-906-4585h1600v5980h-1600z"/><use id="k" xlink:href="#z"/><use id="l" xlink:href="#z"/><use id="m" xlink:href="#z"/><use id="n" xlink:href="#z"/><path id="o" d="m-906-4473h1600v5980h-1600z"/><use id="p" xlink:href="#10"/><use id="q" xlink:href="#10"/><use id="r" xlink:href="#10"/><use id="s" xlink:href="#10"/><path id="t" d="m-906-4353h1600v5980h-1600z"/><use id="u" xlink:href="#11"/><use id="v" xlink:href="#11"/><use id="w" xlink:href="#11"/><use id="x" xlink:href="#11"/><path id="y" d="m-906-4710h1600v5980h-1600z"/><path id="z" d="m-906-4585h1600v5980h-1600z"/><path id="10" d="m-906-4473h1600v5980h-1600z"/><path id="11" d="m-906-4353h1600v5980h-1600z"/><clipPath><use xlink:href="#x"/></clipPath><clipPath><use xlink:href="#k"/></clipPath><clipPath><use xlink:href="#m"/></clipPath><clipPath><use xlink:href="#l"/></clipPath><clipPath><use xlink:href="#j"/></clipPath><clipPath><use xlink:href="#i"/></clipPath><clipPath><use xlink:href="#f"/></clipPath><clipPath><use xlink:href="#h"/></clipPath><clipPath><use xlink:href="#g"/></clipPath><clipPath><use xlink:href="#n"/></clipPath><clipPath><use xlink:href="#o"/></clipPath><clipPath><use xlink:href="#u"/></clipPath><clipPath><use xlink:href="#w"/></clipPath><clipPath><use xlink:href="#v"/></clipPath><clipPath><use xlink:href="#t"/></clipPath><clipPath><use xlink:href="#s"/></clipPath><clipPath><use xlink:href="#p"/></clipPath><clipPath><use xlink:href="#r"/></clipPath><clipPath><use xlink:href="#q"/></clipPath><clipPath><use xlink:href="#e"/></clipPath><clipPath id="J"><use xlink:href="#d"/></clipPath><clipPath id="5"><use xlink:href="#P"/></clipPath><clipPath id="7"><use xlink:href="#R"/></clipPath><clipPath id="6"><use xlink:href="#Q"/></clipPath><clipPath id="4"><use xlink:href="#O"/></clipPath><clipPath id="3"><use xlink:href="#N"/></clipPath><clipPath id="0"><use xlink:href="#K"/></clipPath><clipPath id="2"><use xlink:href="#M"/></clipPath><clipPath id="1"><use xlink:href="#L"/></clipPath><clipPath id="8"><use xlink:href="#S"/></clipPath><clipPath id="9"><use xlink:href="#T"/></clipPath><clipPath id="G"><use xlink:href="#a"/></clipPath><clipPath id="I"><use xlink:href="#c"/></clipPath><clipPath id="H"><use xlink:href="#b"/></clipPath><clipPath id="F"><use xlink:href="#Z"/></clipPath><clipPath id="A"><use xlink:href="#U"/></clipPath><clipPath id="E"><use xlink:href="#Y"/></clipPath><clipPath id="B"><use xlink:href="#V"/></clipPath><clipPath id="D"><use xlink:href="#X"/></clipPath><clipPath id="C"><use xlink:href="#W"/></clipPath></defs><g clip-path="url(#0)"/><g clip-path="url(#1)"/><g clip-path="url(#2)"/><g clip-path="url(#3)"/><g clip-path="url(#4)"/><g clip-path="url(#5)"/><g clip-path="url(#6)"/><g clip-path="url(#7)"/><g clip-path="url(#8)"/><g clip-path="url(#9)"/><g clip-path="url(#A)"/><g clip-path="url(#B)"/><g clip-path="url(#C)"/><g clip-path="url(#D)"/><g clip-path="url(#E)"/><g clip-path="url(#F)"/><g clip-path="url(#G)"/><g clip-path="url(#H)"/><g clip-path="url(#I)"/><g clip-path="url(#J)"/><path d="m25 27c-2.32-.018-4.484-1.319-5.703-3.396l-1.896-3.23c-.279-.477-.12-1.089.356-1.368.477-.281 1.09-.12 1.368.356l1.896 3.23c.865 1.473 2.374 2.396 3.939 2.408 2.797 0 5.04-2.243 5.04-5v-8c0-2.757-2.243-5-5-5-1.377.008-2.688.808-3.451 2.086l-8.642 14.458c-.941 1.575-2.334 2.701-3.922 3.17-.644.189-1.311.286-1.985.286-3.859 0-7-3.141-7-7v-8c0-3.859 3.141-7 7-7 2.313.018 4.472 1.314 5.686 3.385l1.862 3.173c.279.476.12 1.089-.356 1.368-.474.28-1.088.12-1.368-.356l-1.862-3.173c-.861-1.466-2.364-2.384-3.923-2.397-2.796 0-5.04 2.243-5.04 5v8c0 2.757 2.243 5 5 5 .481 0 .959-.068 1.419-.204 1.104-.326 2.089-1.135 2.771-2.277l8.642-14.459c1.121-1.875 3.084-3.047 5.124-3.06 3.903 0 7.04 3.141 7.04 7v8c0 3.859-3.141 7-7 7"/></svg>