<svg xmlns="http://www.w3.org/2000/svg" xmlns:xlink="http://www.w3.org/1999/xlink" viewBox="0 0 32 32" enable-background="new 0 0 32 32"><defs><path id="K" d="m-290 849h223v4h-223z"/><path id="L" d="m-554 849h223v4h-223z"/><path id="M" d="m-311 796h1v15h-1z"/><path id="N" d="m-311 838h1v15h-1z"/><path id="O" d="m-310.5 837c6.904 0 12.5-5.596 12.5-12.5s-5.596-12.5-12.5-12.5-12.5 5.596-12.5 12.5 5.596 12.5 12.5 12.5m-23.5-36h47v47h-47v-47"/><path id="P" d="m-290 974h223v4h-223z"/><path id="Q" d="m-554 974h223v4h-223z"/><path id="R" d="m-311 921h1v15h-1z"/><path id="S" d="m-311 963h1v15h-1z"/><path id="T" d="m-310.5 962c6.904 0 12.5-5.596 12.5-12.5s-5.596-12.5-12.5-12.5-12.5 5.596-12.5 12.5 5.596 12.5 12.5 12.5m-23.5-36h47v47h-47v-47"/><path id="U" d="m-290 1086h223v4h-223z"/><path id="V" d="m-554 1086h223v4h-223z"/><path id="W" d="m-311 1033h1v15h-1z"/><path id="X" d="m-311 1075h1v15h-1z"/><path id="Y" d="m-310.5 1074c6.904 0 12.5-5.596 12.5-12.5s-5.596-12.5-12.5-12.5-12.5 5.596-12.5 12.5 5.596 12.5 12.5 12.5m-23.5-36h47v47h-47v-47"/><path id="Z" d="m-290 1206h223v4h-223z"/><path id="a" d="m-554 1206h223v4h-223z"/><path id="b" d="m-311 1153h1v15h-1z"/><path id="c" d="m-311 1195h1v15h-1z"/><path id="d" d="m-310.5 1194c6.904 0 12.5-5.596 12.5-12.5s-5.596-12.5-12.5-12.5-12.5 5.596-12.5 12.5 5.596 12.5 12.5 12.5m-23.5-36h47v47h-47v-47"/><use id="e" xlink:href="#y"/><use id="f" xlink:href="#y"/><use id="g" xlink:href="#y"/><use id="h" xlink:href="#y"/><use id="i" xlink:href="#y"/><path id="j" d="m-1111-3922h1600v5980h-1600z"/><use id="k" xlink:href="#z"/><use id="l" xlink:href="#z"/><use id="m" xlink:href="#z"/><use id="n" xlink:href="#z"/><path id="o" d="m-1111-3810h1600v5980h-1600z"/><use id="p" xlink:href="#10"/><use id="q" xlink:href="#10"/><use id="r" xlink:href="#10"/><use id="s" xlink:href="#10"/><path id="t" d="m-1111-3690h1600v5980h-1600z"/><use id="u" xlink:href="#11"/><use id="v" xlink:href="#11"/><use id="w" xlink:href="#11"/><use id="x" xlink:href="#11"/><path id="y" d="m-1111-4047h1600v5980h-1600z"/><path id="z" d="m-1111-3922h1600v5980h-1600z"/><path id="10" d="m-1111-3810h1600v5980h-1600z"/><path id="11" d="m-1111-3690h1600v5980h-1600z"/><clipPath><use xlink:href="#x"/></clipPath><clipPath><use xlink:href="#k"/></clipPath><clipPath><use xlink:href="#m"/></clipPath><clipPath><use xlink:href="#l"/></clipPath><clipPath><use xlink:href="#j"/></clipPath><clipPath><use xlink:href="#i"/></clipPath><clipPath><use xlink:href="#f"/></clipPath><clipPath><use xlink:href="#h"/></clipPath><clipPath><use xlink:href="#g"/></clipPath><clipPath><use xlink:href="#n"/></clipPath><clipPath><use xlink:href="#o"/></clipPath><clipPath><use xlink:href="#u"/></clipPath><clipPath><use xlink:href="#w"/></clipPath><clipPath><use xlink:href="#v"/></clipPath><clipPath><use xlink:href="#t"/></clipPath><clipPath><use xlink:href="#s"/></clipPath><clipPath><use xlink:href="#p"/></clipPath><clipPath><use xlink:href="#r"/></clipPath><clipPath><use xlink:href="#q"/></clipPath><clipPath><use xlink:href="#e"/></clipPath><clipPath id="J"><use xlink:href="#d"/></clipPath><clipPath id="5"><use xlink:href="#P"/></clipPath><clipPath id="7"><use xlink:href="#R"/></clipPath><clipPath id="6"><use xlink:href="#Q"/></clipPath><clipPath id="4"><use xlink:href="#O"/></clipPath><clipPath id="3"><use xlink:href="#N"/></clipPath><clipPath id="0"><use xlink:href="#K"/></clipPath><clipPath id="2"><use xlink:href="#M"/></clipPath><clipPath id="1"><use xlink:href="#L"/></clipPath><clipPath id="8"><use xlink:href="#S"/></clipPath><clipPath id="9"><use xlink:href="#T"/></clipPath><clipPath id="G"><use xlink:href="#a"/></clipPath><clipPath id="I"><use xlink:href="#c"/></clipPath><clipPath id="H"><use xlink:href="#b"/></clipPath><clipPath id="F"><use xlink:href="#Z"/></clipPath><clipPath id="A"><use xlink:href="#U"/></clipPath><clipPath id="E"><use xlink:href="#Y"/></clipPath><clipPath id="B"><use xlink:href="#V"/></clipPath><clipPath id="D"><use xlink:href="#X"/></clipPath><clipPath id="C"><use xlink:href="#W"/></clipPath></defs><path d="m30.572 9.402c-3.638-8.04-13.14-11.611-21.17-7.974-8.04 3.637-11.612 13.13-7.974 21.17 2.672 5.901 8.504 9.398 14.596 9.398 2.203 0 4.44-.458 6.574-1.424 8.04-3.637 11.612-13.13 7.974-21.17m-1.293 2.18l-.024-.003c-.189 1.739-1.938 3.905-4.6 5.934-.428-1.637-1.01-3.298-1.743-4.925-.138-.306-.284-.597-.428-.893 1.946-1.54 3.401-3.157 4.211-4.718.819.974 1.517 2.059 2.056 3.249.201.446.375.898.528 1.356m-5.796 12.04c-.027 2.717-.771 4.669-1.989 5.22-1.619.735-4.34-.725-7.02-4.186 1.634-.427 3.3-1 4.933-1.741 1.384-.627 2.679-1.318 3.876-2.047.132.955.205 1.883.195 2.754m-4.895-2.53c-1.829.828-3.632 1.419-5.335 1.815-.812-1.256-1.605-2.689-2.341-4.316-.133-.294-.255-.593-.378-.89 1.574-.441 3.212-1.032 4.879-1.786 2.01-.908 3.833-1.932 5.431-3.02.082.173.166.34.246.518.79 1.744 1.401 3.563 1.81 5.331-1.308.844-2.76 1.642-4.312 2.345m-15.338.684c-.497-1.097-.83-2.237-1.031-3.393.745.146 1.548.226 2.412.226 1.216 0 2.54-.148 3.934-.429.167.413.339.825.524 1.234.637 1.406 1.326 2.705 2.05 3.891-3.475.496-6.287.095-7.581-.929-.102-.199-.214-.393-.308-.6m5.251-13.347c.021-2.688.759-4.621 1.974-5.171.282-.128.597-.191.937-.191 2.249 0 5.648 2.763 8.518 8.02-1.562 1.085-3.375 2.116-5.341 3.01-1.617.733-3.224 1.293-4.769 1.709-.865-2.574-1.336-5.156-1.319-7.372m7.493-6.43c1.665 0 3.334.302 4.939.906 1.587.598 3.02 1.471 4.257 2.553-.514 1.374-1.812 2.916-3.65 4.418-2.067-3.709-4.494-6.433-6.846-7.807.433-.041.866-.07 1.3-.07m-9.144 3.411c-.214.889-.341 1.885-.349 3-.019 2.413.459 5.115 1.358 7.837-2.295.426-4.326.442-5.852.01-.032-1.749.26-3.505.896-5.191.837-2.223 2.196-4.151 3.947-5.659m4.216 23.691c-2.173-.819-4.066-2.134-5.559-3.828.853.165 1.792.249 2.797.249 1.263 0 2.628-.131 4.04-.387 1.558 2.172 3.224 3.811 4.855 4.804-2.058.178-4.145-.089-6.136-.838m18.03-8.164c-.838 2.227-2.2 4.156-3.955 5.665.206-.879.329-1.859.34-2.959.013-1.267-.107-2.609-.35-3.988 2.102-1.499 3.755-3.112 4.815-4.692.151 2-.12 4.04-.85 5.974"/><g clip-path="url(#0)"/><g clip-path="url(#1)"/><g clip-path="url(#2)"/><g clip-path="url(#3)"/><g clip-path="url(#4)"/><g clip-path="url(#5)"/><g clip-path="url(#6)"/><g clip-path="url(#7)"/><g clip-path="url(#8)"/><g clip-path="url(#9)"/><g clip-path="url(#A)"/><g clip-path="url(#B)"/><g clip-path="url(#C)"/><g clip-path="url(#D)"/><g clip-path="url(#E)"/><g clip-path="url(#F)"/><g clip-path="url(#G)"/><g clip-path="url(#H)"/><g clip-path="url(#I)"/><g clip-path="url(#J)"/></svg>