<svg xmlns="http://www.w3.org/2000/svg" viewBox="0 0 970 120" enable-background="new 0 0 970 120"><g transform="translate(-9.624-492.9)"><g fill="#413270"><path d="m9.6 545.9h13.9v13.9h-13.9z"/><path d="m9.6 563.6h13.9v13.9h-13.9z"/><path d="m9.6 581.3h13.9v13.9h-13.9z"/><path d="m9.6 599h13.9v13.9h-13.9z"/><path d="m27.3 492.8h13.9v13.9h-13.9z"/><path d="m27.3 510.5h13.9v13.9h-13.9z"/><path d="m27.3 528.2h13.9v13.9h-13.9z"/><path d="m27.3 545.9h13.9v13.9h-13.9z"/><path d="m27.3 563.6h13.9v13.9h-13.9z"/><path d="m27.3 581.3h13.9v13.9h-13.9z"/><path d="m27.3 599h13.9v13.9h-13.9z"/><path d="m45 492.8h13.9v13.9h-13.9z"/><path d="m45 510.5h13.9v13.9h-13.9z"/><path d="m45 528.2h13.9v13.9h-13.9z"/><path d="m45 545.9h13.9v13.9h-13.9z"/><path d="m45 563.6h13.9v13.9h-13.9z"/><path d="m45 581.3h13.9v13.9h-13.9z"/><path d="m45 599h13.9v13.9h-13.9z"/><path d="m62.7 492.8h13.9v13.9h-13.9z"/><path d="m62.7 510.5h13.9v13.9h-13.9z"/><path d="m62.7 528.2h13.9v13.9h-13.9z"/><path d="m62.7 545.9h13.9v13.9h-13.9z"/><path d="m62.7 563.6h13.9v13.9h-13.9z"/><path d="m62.7 581.3h13.9v13.9h-13.9z"/><path d="m62.7 599h13.9v13.9h-13.9z"/><path d="m80.4 492.8h13.9v13.9h-13.9z"/><path d="m80.4 510.5h13.9v13.9h-13.9z"/><path d="m80.4 528.2h13.9v13.9h-13.9z"/><path d="m80.4 545.9h13.9v13.9h-13.9z"/><path d="m80.4 563.6h13.9v13.9h-13.9z"/><path d="m80.4 581.3h13.9v13.9h-13.9z"/><path d="m80.4 599h13.9v13.9h-13.9z"/><path d="m98.1 492.8h13.9v13.9h-13.9z"/><path d="m98.1 510.5h13.9v13.9h-13.9z"/><path d="m98.1 528.2h13.9v13.9h-13.9z"/><path d="m98.1 545.9h13.9v13.9h-13.9z"/><path d="m98.1 563.6h13.9v13.9h-13.9z"/><path d="m98.1 581.3h13.9v13.9h-13.9z"/><path d="m98.1 599h13.9v13.9h-13.9z"/><path d="m115.9 492.8h13.9v13.9h-13.9z"/><path d="m115.9 510.5h13.9v13.9h-13.9z"/><path d="m115.9 528.2h13.9v13.9h-13.9z"/><path d="m115.9 545.9h13.9v13.9h-13.9z"/><path d="m115.9 563.6h13.9v13.9h-13.9z"/><path d="m115.9 581.3h13.9v13.9h-13.9z"/><path d="m115.9 599h13.9v13.9h-13.9z"/><path d="m133.6 492.8h13.9v13.9h-13.9z"/><path d="m133.6 510.5h13.9v13.9h-13.9z"/><path d="m133.6 528.2h13.9v13.9h-13.9z"/><path d="m133.6 545.9h13.9v13.9h-13.9z"/><path d="m133.6 563.6h13.9v13.9h-13.9z"/><path d="m133.6 581.3h13.9v13.9h-13.9z"/><path d="m133.6 599h13.9v13.9h-13.9z"/><path d="m151.3 492.8h13.9v13.9h-13.9z"/><path d="m151.3 510.5h13.9v13.9h-13.9z"/><path d="m151.3 528.2h13.9v13.9h-13.9z"/><path d="m151.3 545.9h13.9v13.9h-13.9z"/><path d="m151.3 563.6h13.9v13.9h-13.9z"/><path d="m151.3 581.3h13.9v13.9h-13.9z"/><path d="m151.3 599h13.9v13.9h-13.9z"/><path d="m169 492.8h13.9v13.9h-13.9z"/><path d="m169 510.5h13.9v13.9h-13.9z"/><path d="m169 528.2h13.9v13.9h-13.9z"/><path d="m169 545.9h13.9v13.9h-13.9z"/><path d="m169 563.6h13.9v13.9h-13.9z"/><path d="m169 581.3h13.9v13.9h-13.9z"/><path d="m169 599h13.9v13.9h-13.9z"/><path d="m186.7 492.8h13.9v13.9h-13.9z"/><path d="m186.7 599h13.9v13.9h-13.9z"/><path d="m204.4 492.8h13.9v13.9h-13.9z"/><path d="m204.4 510.5h13.9v13.9h-13.9z"/><path d="m204.4 528.2h13.9v13.9h-13.9z"/><path d="m204.4 563.6h13.9v13.9h-13.9z"/><path d="m204.4 581.3h13.9v13.9h-13.9z"/><path d="m204.4 599h13.9v13.9h-13.9z"/><path d="m222.1 492.8h13.9v13.9h-13.9z"/><path d="m222.1 599h13.9v13.9h-13.9z"/><path d="m239.8 492.8h13.9v13.9h-13.9z"/><path d="m239.8 510.5h13.9v13.9h-13.9z"/><path d="m239.8 528.2h13.9v13.9h-13.9z"/><path d="m239.8 545.9h13.9v13.9h-13.9z"/><path d="m239.8 563.6h13.9v13.9h-13.9z"/><path d="m239.8 581.3h13.9v13.9h-13.9z"/><path d="m239.8 599h13.9v13.9h-13.9z"/><path d="m257.5 492.8h13.9v13.9h-13.9z"/><path d="m257.5 599h13.9v13.9h-13.9z"/><path d="m275.2 492.8h13.9v13.9h-13.9z"/><path d="m275.2 528.2h13.9v13.9h-13.9z"/><path d="m275.2 563.6h13.9v13.9h-13.9z"/><path d="m275.2 581.3h13.9v13.9h-13.9z"/><path d="m275.2 599h13.9v13.9h-13.9z"/><path d="m292.9 492.8h13.9v13.9h-13.9z"/><path d="m292.9 599h13.9v13.9h-13.9z"/><path d="m310.6 492.8h13.9v13.9h-13.9z"/><path d="m310.6 510.5h13.9v13.9h-13.9z"/><path d="m310.6 528.2h13.9v13.9h-13.9z"/><path d="m310.6 545.9h13.9v13.9h-13.9z"/><path d="m310.6 563.6h13.9v13.9h-13.9z"/><path d="m310.6 581.3h13.9v13.9h-13.9z"/><path d="m310.6 599h13.9v13.9h-13.9z"/><path d="m328.3 492.8h13.9v13.9h-13.9z"/><path d="m328.3 599h13.9v13.9h-13.9z"/><path d="m346 492.8h13.9v13.9h-13.9z"/><path d="m346 528.2h13.9v13.9h-13.9z"/><path d="m346 545.9h13.9v13.9h-13.9z"/><path d="m346 563.6h13.9v13.9h-13.9z"/><path d="m346 599h13.9v13.9h-13.9z"/><path d="m363.7 492.8h13.9v13.9h-13.9z"/><path d="m363.7 528.2h13.9v13.9h-13.9z"/><path d="m363.7 545.9h13.9v13.9h-13.9z"/><path d="m363.7 563.6h13.9v13.9h-13.9z"/><path d="m363.7 599h13.9v13.9h-13.9z"/><path d="m381.4 492.8h13.9v13.9h-13.9z"/><path d="m381.4 510.5h13.9v13.9h-13.9z"/><path d="m381.4 528.2h13.9v13.9h-13.9z"/><path d="m381.4 545.9h13.9v13.9h-13.9z"/><path d="m381.4 563.6h13.9v13.9h-13.9z"/><path d="m381.4 581.3h13.9v13.9h-13.9z"/><path d="m381.4 599h13.9v13.9h-13.9z"/><path d="m399.1 492.8h13.9v13.9h-13.9z"/><path d="m399.1 599h13.9v13.9h-13.9z"/><path d="m416.8 492.8h13.9v13.9h-13.9z"/><path d="m416.8 510.5h13.9v13.9h-13.9z"/><path d="m416.8 528.2h13.9v13.9h-13.9z"/><path d="m416.8 563.6h13.9v13.9h-13.9z"/><path d="m416.8 581.3h13.9v13.9h-13.9z"/><path d="m416.8 599h13.9v13.9h-13.9z"/><path d="m434.5 492.8h13.9v13.9h-13.9z"/><path d="m434.5 545.9h13.9v13.9h-13.9z"/><path d="m434.5 599h13.9v13.9h-13.9z"/><path d="m452.2 492.8h13.9v13.9h-13.9z"/><path d="m452.2 510.5h13.9v13.9h-13.9z"/><path d="m452.2 528.2h13.9v13.9h-13.9z"/><path d="m452.2 545.9h13.9v13.9h-13.9z"/><path d="m452.2 563.6h13.9v13.9h-13.9z"/><path d="m452.2 581.3h13.9v13.9h-13.9z"/><path d="m452.2 599h13.9v13.9h-13.9z"/><path d="m469.9 492.8h13.9v13.9h-13.9z"/><path d="m469.9 599h13.9v13.9h-13.9z"/><path d="m487.7 492.8h13.9v13.9h-13.9z"/><path d="m487.7 528.2h13.9v13.9h-13.9z"/><path d="m487.7 563.6h13.9v13.9h-13.9z"/><path d="m487.7 581.3h13.9v13.9h-13.9z"/><path d="m487.7 599h13.9v13.9h-13.9z"/><path d="m505.4 492.8h13.9v13.9h-13.9z"/><path d="m505.4 599h13.9v13.9h-13.9z"/><path d="m523.1 492.8h13.9v13.9h-13.9z"/><path d="m523.1 510.5h13.9v13.9h-13.9z"/><path d="m523.1 528.2h13.9v13.9h-13.9z"/><path d="m523.1 545.9h13.9v13.9h-13.9z"/><path d="m523.1 563.6h13.9v13.9h-13.9z"/><path d="m523.1 581.3h13.9v13.9h-13.9z"/><path d="m523.1 599h13.9v13.9h-13.9z"/><path d="m540.8 492.8h13.9v13.9h-13.9z"/><path d="m540.8 528.2h13.9v13.9h-13.9z"/><path d="m540.8 545.9h13.9v13.9h-13.9z"/><path d="m540.8 563.6h13.9v13.9h-13.9z"/><path d="m540.8 581.3h13.9v13.9h-13.9z"/><path d="m540.8 599h13.9v13.9h-13.9z"/><path d="m558.5 492.8h13.9v13.9h-13.9z"/><path d="m558.5 599h13.9v13.9h-13.9z"/><path d="m576.2 492.8h13.9v13.9h-13.9z"/><path d="m576.2 528.2h13.9v13.9h-13.9z"/><path d="m576.2 545.9h13.9v13.9h-13.9z"/><path d="m576.2 563.6h13.9v13.9h-13.9z"/><path d="m576.2 581.3h13.9v13.9h-13.9z"/><path d="m576.2 599h13.9v13.9h-13.9z"/><path d="m593.9 492.8h13.9v13.9h-13.9z"/><path d="m593.9 510.5h13.9v13.9h-13.9z"/><path d="m593.9 528.2h13.9v13.9h-13.9z"/><path d="m593.9 545.9h13.9v13.9h-13.9z"/><path d="m593.9 563.6h13.9v13.9h-13.9z"/><path d="m593.9 581.3h13.9v13.9h-13.9z"/><path d="m593.9 599h13.9v13.9h-13.9z"/><path d="m611.6 492.8h13.9v13.9h-13.9z"/><path d="m611.6 599h13.9v13.9h-13.9z"/><path d="m629.3 492.8h13.9v13.9h-13.9z"/><path d="m629.3 510.5h13.9v13.9h-13.9z"/><path d="m629.3 528.2h13.9v13.9h-13.9z"/><path d="m629.3 563.6h13.9v13.9h-13.9z"/><path d="m629.3 581.3h13.9v13.9h-13.9z"/><path d="m629.3 599h13.9v13.9h-13.9z"/><path d="m647 492.8h13.9v13.9h-13.9z"/><path d="m647 599h13.9v13.9h-13.9z"/><path d="m664.7 492.8h13.9v13.9h-13.9z"/><path d="m664.7 510.5h13.9v13.9h-13.9z"/><path d="m664.7 528.2h13.9v13.9h-13.9z"/><path d="m664.7 545.9h13.9v13.9h-13.9z"/><path d="m664.7 563.6h13.9v13.9h-13.9z"/><path d="m664.7 581.3h13.9v13.9h-13.9z"/><path d="m664.7 599h13.9v13.9h-13.9z"/><path d="m682.4 492.8h13.9v13.9h-13.9z"/><path d="m682.4 599h13.9v13.9h-13.9z"/><path d="m700.1 492.8h13.9v13.9h-13.9z"/><path d="m700.1 528.2h13.9v13.9h-13.9z"/><path d="m700.1 545.9h13.9v13.9h-13.9z"/><path d="m700.1 563.6h13.9v13.9h-13.9z"/><path d="m700.1 599h13.9v13.9h-13.9z"/><path d="m717.8 492.8h13.9v13.9h-13.9z"/><path d="m717.8 599h13.9v13.9h-13.9z"/><path d="m735.5 492.8h13.9v13.9h-13.9z"/><path d="m735.5 510.5h13.9v13.9h-13.9z"/><path d="m735.5 528.2h13.9v13.9h-13.9z"/><path d="m735.5 545.9h13.9v13.9h-13.9z"/><path d="m735.5 563.6h13.9v13.9h-13.9z"/><path d="m735.5 581.3h13.9v13.9h-13.9z"/><path d="m735.5 599h13.9v13.9h-13.9z"/><path d="m753.2 492.8h13.9v13.9h-13.9z"/><path d="m753.2 599h13.9v13.9h-13.9z"/><path d="m770.9 492.8h13.9v13.9h-13.9z"/><path d="m770.9 528.2h13.9v13.9h-13.9z"/><path d="m770.9 545.9h13.9v13.9h-13.9z"/><path d="m770.9 563.6h13.9v13.9h-13.9z"/><path d="m770.9 581.3h13.9v13.9h-13.9z"/><path d="m770.9 599h13.9v13.9h-13.9z"/><path d="m788.6 492.8h13.9v13.9h-13.9z"/><path d="m788.6 599h13.9v13.9h-13.9z"/><path d="m806.3 492.8h13.9v13.9h-13.9z"/><path d="m806.3 510.5h13.9v13.9h-13.9z"/><path d="m806.3 528.2h13.9v13.9h-13.9z"/><path d="m806.3 545.9h13.9v13.9h-13.9z"/><path d="m806.3 563.6h13.9v13.9h-13.9z"/><path d="m806.3 581.3h13.9v13.9h-13.9z"/><path d="m806.3 599h13.9v13.9h-13.9z"/><path d="m824 492.8h13.9v13.9h-13.9z"/><path d="m824 510.5h13.9v13.9h-13.9z"/><path d="m824 528.2h13.9v13.9h-13.9z"/><path d="m824 545.9h13.9v13.9h-13.9z"/><path d="m824 563.6h13.9v13.9h-13.9z"/><path d="m824 581.3h13.9v13.9h-13.9z"/><path d="m824 599h13.9v13.9h-13.9z"/><path d="m841.7 492.8h13.9v13.9h-13.9z"/><path d="m841.7 510.5h13.9v13.9h-13.9z"/><path d="m841.7 528.2h13.9v13.9h-13.9z"/><path d="m841.7 545.9h13.9v13.9h-13.9z"/><path d="m841.7 563.6h13.9v13.9h-13.9z"/><path d="m841.7 581.3h13.9v13.9h-13.9z"/><path d="m841.7 599h13.9v13.9h-13.9z"/><path d="m859.5 492.8h13.9v13.9h-13.9z"/><path d="m859.5 510.5h13.9v13.9h-13.9z"/><path d="m859.5 528.2h13.9v13.9h-13.9z"/><path d="m859.5 545.9h13.9v13.9h-13.9z"/><path d="m859.5 563.6h13.9v13.9h-13.9z"/><path d="m859.5 581.3h13.9v13.9h-13.9z"/><path d="m859.5 599h13.9v13.9h-13.9z"/><path d="m877.2 492.8h13.9v13.9h-13.9z"/><path d="m877.2 510.5h13.9v13.9h-13.9z"/><path d="m877.2 528.2h13.9v13.9h-13.9z"/><path d="m877.2 545.9h13.9v13.9h-13.9z"/><path d="m877.2 563.6h13.9v13.9h-13.9z"/><path d="m877.2 581.3h13.9v13.9h-13.9z"/><path d="m877.2 599h13.9v13.9h-13.9z"/><path d="m894.9 492.8h13.9v13.9h-13.9z"/><path d="m894.9 510.5h13.9v13.9h-13.9z"/><path d="m894.9 528.2h13.9v13.9h-13.9z"/><path d="m894.9 545.9h13.9v13.9h-13.9z"/><path d="m894.9 563.6h13.9v13.9h-13.9z"/><path d="m894.9 581.3h13.9v13.9h-13.9z"/><path d="m894.9 599h13.9v13.9h-13.9z"/><path d="m912.6 492.8h13.9v13.9h-13.9z"/><path d="m912.6 510.5h13.9v13.9h-13.9z"/><path d="m912.6 528.2h13.9v13.9h-13.9z"/><path d="m912.6 545.9h13.9v13.9h-13.9z"/><path d="m912.6 563.6h13.9v13.9h-13.9z"/><path d="m912.6 581.3h13.9v13.9h-13.9z"/><path d="m912.6 599h13.9v13.9h-13.9z"/><path d="m930.3 492.8h13.9v13.9h-13.9z"/><path d="m930.3 510.5h13.9v13.9h-13.9z"/><path d="m930.3 528.2h13.9v13.9h-13.9z"/><path d="m930.3 545.9h13.9v13.9h-13.9z"/><path d="m930.3 563.6h13.9v13.9h-13.9z"/><path d="m930.3 581.3h13.9v13.9h-13.9z"/><path d="m930.3 599h13.9v13.9h-13.9z"/><path d="m948 492.8h13.9v13.9h-13.9z"/><path d="m948 510.5h13.9v13.9h-13.9z"/><path d="m948 528.2h13.9v13.9h-13.9z"/><path d="m948 545.9h13.9v13.9h-13.9z"/><path d="m948 563.6h13.9v13.9h-13.9z"/><path d="m948 581.3h13.9v13.9h-13.9z"/><path d="m948 599h13.9v13.9h-13.9z"/><path d="m965.7 492.8h13.9v13.9h-13.9z"/><path d="m965.7 510.5h13.9v13.9h-13.9z"/><path d="m965.7 528.2h13.9v13.9h-13.9z"/><path d="m965.7 545.9h13.9v13.9h-13.9z"/><path d="m965.7 563.6h13.9v13.9h-13.9z"/></g><g fill="#ece7f2"><path d="m257.5 510.5h13.9v13.9h-13.9z"/><path d="m292.9 510.5h13.9v13.9h-13.9z"/><path d="m770.9 510.5h13.9v13.9h-13.9z"/><path d="m186.7 510.5h13.9v13.9h-13.9z"/><path d="m186.7 528.2h13.9v13.9h-13.9z"/><path d="m186.7 545.9h13.9v13.9h-13.9z"/><path d="m186.7 563.6h13.9v13.9h-13.9z"/><path d="m186.7 581.3h13.9v13.9h-13.9z"/><path d="m204.4 545.9h13.9v13.9h-13.9z"/><path d="m222.1 510.5h13.9v13.9h-13.9z"/><path d="m222.1 528.2h13.9v13.9h-13.9z"/><path d="m222.1 545.9h13.9v13.9h-13.9z"/><path d="m222.1 563.6h13.9v13.9h-13.9z"/><path d="m222.1 581.3h13.9v13.9h-13.9z"/><path d="m257.5 528.2h13.9v13.9h-13.9z"/><path d="m257.5 545.9h13.9v13.9h-13.9z"/><path d="m257.5 563.6h13.9v13.9h-13.9z"/><path d="m257.5 581.3h13.9v13.9h-13.9z"/><path d="m275.2 510.5h13.9v13.9h-13.9z"/><path d="m275.2 545.9h13.9v13.9h-13.9z"/><path d="m292.9 528.2h13.9v13.9h-13.9z"/><path d="m292.9 545.9h13.9v13.9h-13.9z"/><path d="m292.9 563.6h13.9v13.9h-13.9z"/><path d="m292.9 581.3h13.9v13.9h-13.9z"/><path d="m328.3 510.5h13.9v13.9h-13.9z"/><path d="m328.3 528.2h13.9v13.9h-13.9z"/><path d="m328.3 545.9h13.9v13.9h-13.9z"/><path d="m328.3 563.6h13.9v13.9h-13.9z"/><path d="m328.3 581.3h13.9v13.9h-13.9z"/><path d="m346 510.5h13.9v13.9h-13.9z"/><path d="m346 581.3h13.9v13.9h-13.9z"/><path d="m363.7 510.5h13.9v13.9h-13.9z"/><path d="m363.7 581.3h13.9v13.9h-13.9z"/><path d="m399.1 510.5h13.9v13.9h-13.9z"/><path d="m399.1 528.2h13.9v13.9h-13.9z"/><path d="m399.1 545.9h13.9v13.9h-13.9z"/><path d="m399.1 563.6h13.9v13.9h-13.9z"/><path d="m399.1 581.3h13.9v13.9h-13.9z"/><path d="m416.8 545.9h13.9v13.9h-13.9z"/><path d="m434.5 510.5h13.9v13.9h-13.9z"/><path d="m434.5 528.2h13.9v13.9h-13.9z"/><path d="m434.5 563.6h13.9v13.9h-13.9z"/><path d="m434.5 581.3h13.9v13.9h-13.9z"/><path d="m469.9 510.5h13.9v13.9h-13.9z"/><path d="m469.9 528.2h13.9v13.9h-13.9z"/><path d="m469.9 545.9h13.9v13.9h-13.9z"/><path d="m469.9 563.6h13.9v13.9h-13.9z"/><path d="m469.9 581.3h13.9v13.9h-13.9z"/><path d="m487.7 510.5h13.9v13.9h-13.9z"/><path d="m487.7 545.9h13.9v13.9h-13.9z"/><path d="m505.4 510.5h13.9v13.9h-13.9z"/><path d="m505.4 528.2h13.9v13.9h-13.9z"/><path d="m505.4 545.9h13.9v13.9h-13.9z"/><path d="m505.4 563.6h13.9v13.9h-13.9z"/><path d="m505.4 581.3h13.9v13.9h-13.9z"/><path d="m540.8 510.5h13.9v13.9h-13.9z"/><path d="m558.5 510.5h13.9v13.9h-13.9z"/><path d="m558.5 528.2h13.9v13.9h-13.9z"/><path d="m558.5 545.9h13.9v13.9h-13.9z"/><path d="m558.5 563.6h13.9v13.9h-13.9z"/><path d="m558.5 581.3h13.9v13.9h-13.9z"/><path d="m576.2 510.5h13.9v13.9h-13.9z"/><path d="m611.6 510.5h13.9v13.9h-13.9z"/><path d="m611.6 528.2h13.9v13.9h-13.9z"/><path d="m611.6 545.9h13.9v13.9h-13.9z"/><path d="m611.6 563.6h13.9v13.9h-13.9z"/><path d="m611.6 581.3h13.9v13.9h-13.9z"/><path d="m629.3 545.9h13.9v13.9h-13.9z"/><path d="m647 510.5h13.9v13.9h-13.9z"/><path d="m647 528.2h13.9v13.9h-13.9z"/><path d="m647 545.9h13.9v13.9h-13.9z"/><path d="m647 563.6h13.9v13.9h-13.9z"/><path d="m647 581.3h13.9v13.9h-13.9z"/><path d="m682.4 510.5h13.9v13.9h-13.9z"/><path d="m682.4 528.2h13.9v13.9h-13.9z"/><path d="m682.4 545.9h13.9v13.9h-13.9z"/><path d="m682.4 563.6h13.9v13.9h-13.9z"/><path d="m682.4 581.3h13.9v13.9h-13.9z"/><path d="m700.1 510.5h13.9v13.9h-13.9z"/><path d="m700.1 581.3h13.9v13.9h-13.9z"/><path d="m717.8 510.5h13.9v13.9h-13.9z"/><path d="m717.8 528.2h13.9v13.9h-13.9z"/><path d="m717.8 545.9h13.9v13.9h-13.9z"/><path d="m717.8 563.6h13.9v13.9h-13.9z"/><path d="m717.8 581.3h13.9v13.9h-13.9z"/><path d="m753.2 510.5h13.9v13.9h-13.9z"/><path d="m753.2 528.2h13.9v13.9h-13.9z"/><path d="m753.2 545.9h13.9v13.9h-13.9z"/><path d="m753.2 563.6h13.9v13.9h-13.9z"/><path d="m753.2 581.3h13.9v13.9h-13.9z"/><path d="m788.6 510.5h13.9v13.9h-13.9z"/><path d="m788.6 528.2h13.9v13.9h-13.9z"/><path d="m788.6 545.9h13.9v13.9h-13.9z"/><path d="m788.6 563.6h13.9v13.9h-13.9z"/><path d="m788.6 581.3h13.9v13.9h-13.9z"/></g></g></svg>