<svg xmlns="http://www.w3.org/2000/svg" xmlns:xlink="http://www.w3.org/1999/xlink" viewBox="0 0 32 32" enable-background="new 0 0 32 32"><defs><path id="K" d="m115 186h223v4h-223z"/><path id="L" d="m-149 186h223v4h-223z"/><path id="M" d="m94 133h1v15h-1z"/><path id="N" d="m94 175h1v15h-1z"/><path id="O" d="m94.5 174c6.904 0 12.5-5.596 12.5-12.5s-5.596-12.5-12.5-12.5-12.5 5.596-12.5 12.5 5.596 12.5 12.5 12.5m-23.5-36h47v47h-47v-47"/><path id="P" d="m115 311h223v4h-223z"/><path id="Q" d="m-149 311h223v4h-223z"/><path id="R" d="m94 258h1v15h-1z"/><path id="S" d="m94 300h1v15h-1z"/><path id="T" d="m94.5 299c6.904 0 12.5-5.596 12.5-12.5s-5.596-12.5-12.5-12.5-12.5 5.596-12.5 12.5 5.596 12.5 12.5 12.5m-23.5-36h47v47h-47v-47"/><path id="U" d="m115 423h223v4h-223z"/><path id="V" d="m-149 423h223v4h-223z"/><path id="W" d="m94 370h1v15h-1z"/><path id="X" d="m94 412h1v15h-1z"/><path id="Y" d="m94.5 411c6.904 0 12.5-5.596 12.5-12.5s-5.596-12.5-12.5-12.5-12.5 5.596-12.5 12.5 5.596 12.5 12.5 12.5m-23.5-36h47v47h-47v-47"/><path id="Z" d="m115 543h223v4h-223z"/><path id="a" d="m-149 543h223v4h-223z"/><path id="b" d="m94 490h1v15h-1z"/><path id="c" d="m94 532h1v15h-1z"/><path id="d" d="m94.5 531c6.904 0 12.5-5.596 12.5-12.5s-5.596-12.5-12.5-12.5-12.5 5.596-12.5 12.5 5.596 12.5 12.5 12.5m-23.5-36h47v47h-47v-47"/><use id="e" xlink:href="#y"/><use id="f" xlink:href="#y"/><use id="g" xlink:href="#y"/><use id="h" xlink:href="#y"/><use id="i" xlink:href="#y"/><path id="j" d="m-706-4585h1600v5980h-1600z"/><use id="k" xlink:href="#z"/><use id="l" xlink:href="#z"/><use id="m" xlink:href="#z"/><use id="n" xlink:href="#z"/><path id="o" d="m-706-4473h1600v5980h-1600z"/><use id="p" xlink:href="#10"/><use id="q" xlink:href="#10"/><use id="r" xlink:href="#10"/><use id="s" xlink:href="#10"/><path id="t" d="m-706-4353h1600v5980h-1600z"/><use id="u" xlink:href="#11"/><use id="v" xlink:href="#11"/><use id="w" xlink:href="#11"/><use id="x" xlink:href="#11"/><path id="y" d="m-706-4710h1600v5980h-1600z"/><path id="z" d="m-706-4585h1600v5980h-1600z"/><path id="10" d="m-706-4473h1600v5980h-1600z"/><path id="11" d="m-706-4353h1600v5980h-1600z"/><clipPath><use xlink:href="#x"/></clipPath><clipPath><use xlink:href="#k"/></clipPath><clipPath><use xlink:href="#m"/></clipPath><clipPath><use xlink:href="#l"/></clipPath><clipPath><use xlink:href="#j"/></clipPath><clipPath><use xlink:href="#i"/></clipPath><clipPath><use xlink:href="#f"/></clipPath><clipPath><use xlink:href="#h"/></clipPath><clipPath><use xlink:href="#g"/></clipPath><clipPath><use xlink:href="#n"/></clipPath><clipPath><use xlink:href="#o"/></clipPath><clipPath><use xlink:href="#u"/></clipPath><clipPath><use xlink:href="#w"/></clipPath><clipPath><use xlink:href="#v"/></clipPath><clipPath><use xlink:href="#t"/></clipPath><clipPath><use xlink:href="#s"/></clipPath><clipPath><use xlink:href="#p"/></clipPath><clipPath><use xlink:href="#r"/></clipPath><clipPath><use xlink:href="#q"/></clipPath><clipPath><use xlink:href="#e"/></clipPath><clipPath id="J"><use xlink:href="#d"/></clipPath><clipPath id="5"><use xlink:href="#P"/></clipPath><clipPath id="7"><use xlink:href="#R"/></clipPath><clipPath id="6"><use xlink:href="#Q"/></clipPath><clipPath id="4"><use xlink:href="#O"/></clipPath><clipPath id="3"><use xlink:href="#N"/></clipPath><clipPath id="0"><use xlink:href="#K"/></clipPath><clipPath id="2"><use xlink:href="#M"/></clipPath><clipPath id="1"><use xlink:href="#L"/></clipPath><clipPath id="8"><use xlink:href="#S"/></clipPath><clipPath id="9"><use xlink:href="#T"/></clipPath><clipPath id="G"><use xlink:href="#a"/></clipPath><clipPath id="I"><use xlink:href="#c"/></clipPath><clipPath id="H"><use xlink:href="#b"/></clipPath><clipPath id="F"><use xlink:href="#Z"/></clipPath><clipPath id="A"><use xlink:href="#U"/></clipPath><clipPath id="E"><use xlink:href="#Y"/></clipPath><clipPath id="B"><use xlink:href="#V"/></clipPath><clipPath id="D"><use xlink:href="#X"/></clipPath><clipPath id="C"><use xlink:href="#W"/></clipPath></defs><g clip-path="url(#0)"/><g clip-path="url(#1)"/><g clip-path="url(#2)"/><g clip-path="url(#3)"/><g clip-path="url(#4)"/><g clip-path="url(#5)"/><g clip-path="url(#6)"/><g clip-path="url(#7)"/><g clip-path="url(#8)"/><g clip-path="url(#9)"/><g clip-path="url(#A)"/><g clip-path="url(#B)"/><g clip-path="url(#C)"/><g clip-path="url(#D)"/><g clip-path="url(#E)"/><g clip-path="url(#F)"/><g clip-path="url(#G)"/><g clip-path="url(#H)"/><g clip-path="url(#I)"/><g clip-path="url(#J)"/><path d="m10.08 20.617c-.155.374-.069.804.217 1.09l10 10c.391.391 1.023.391 1.414 0l10-10c.286-.286.372-.716.217-1.09-.154-.374-.52-.617-.924-.617h-20c-.404 0-.77.243-.924.617m18.51 1.383l-7.586 7.586-7.586-7.586h15.172"/><path d="m.076 11.383c.154.374.52.617.924.617h20c.404 0 .77-.243.924-.617.155-.374.069-.804-.217-1.09l-10-10c-.195-.195-.451-.293-.707-.293s-.512.098-.707.293l-10 10c-.286.286-.372.716-.217 1.09"/></svg>