<svg xmlns="http://www.w3.org/2000/svg" viewBox="0 0 76 72" enable-background="new 0 0 76 72"><path d="m71 0h-66c-2.757 0-5 2.243-5 5v62c0 2.757 2.243 5 5 5h66c2.757 0 5-2.243 5-5v-62c0-2.757-2.243-5-5-5m-49 8h52v50h-52v-50m52-3v1h-52v-4h49c1.654 0 3 1.346 3 3m-72 62v-62c0-1.654 1.346-3 3-3h15v68h-15c-1.654 0-3-1.346-3-3m69 3h-49v-10h52v7c0 1.654-1.346 3-3 3"/><path d="m7 8h8c.553 0 1-.448 1-1s-.447-1-1-1h-8c-.553 0-1 .448-1 1s.447 1 1 1"/><path d="m15 12h-8c-.553 0-1 .448-1 1s.447 1 1 1h8c.553 0 1-.448 1-1s-.447-1-1-1"/><path d="m15 24h-8c-.553 0-1 .448-1 1s.447 1 1 1h8c.553 0 1-.448 1-1s-.447-1-1-1"/><path d="m15 30h-8c-.553 0-1 .448-1 1s.447 1 1 1h8c.553 0 1-.448 1-1s-.447-1-1-1"/><path d="m15 18h-4c-.553 0-1 .448-1 1s.447 1 1 1h4c.553 0 1-.448 1-1s-.447-1-1-1"/><path d="m39.532 27.09c-.276-.478-.887-.645-1.366-.368l-7.665 4.409c-.31.179-.501.509-.501.867s.191.688.501.867l7.665 4.409c.157.09.329.133.498.133.347 0 .683-.18.868-.501.275-.479.11-1.09-.368-1.365l-6.158-3.543 6.158-3.542c.479-.276.644-.887.368-1.366"/><path d="m63.5 31.13l-7.665-4.409c-.48-.277-1.09-.111-1.366.368-.275.479-.11 1.09.368 1.365l6.158 3.543-6.158 3.542c-.479.275-.644.887-.368 1.365.186.322.521.501.868.501.169 0 .341-.043.498-.133l7.665-4.409c.31-.178.501-.508.501-.866s-.191-.688-.501-.867"/><path d="m50.751 21.05c-.524-.181-1.091.1-1.271.622l-6.854 20c-.179.522.1 1.091.622 1.27.108.037.218.054.325.054.416 0 .804-.261.946-.676l6.854-20c.179-.522-.1-1.091-.622-1.27"/></svg>