<svg width="48" height="48" viewBox="0 0 48 48" fill="none" xmlns="http://www.w3.org/2000/svg">
<g clip-path="url(#clip0_2225_2478)">
<path d="M7.45801 24.0384C8.70897 27.3344 10.9704 30.1503 13.9188 32.0831C14.3433 32.3676 14.6909 32.7527 14.9304 33.2041C15.17 33.6556 15.294 34.1593 15.2916 34.6703V39.2351C15.289 41.3008 16.1065 43.2831 17.5645 44.7465C19.0225 46.2099 21.0018 47.0347 23.0675 47.0398V47.0398C24.0924 47.0405 25.1073 46.839 26.0543 46.4469C27.0012 46.0549 27.8615 45.4799 28.586 44.755C29.3105 44.0301 29.8849 43.1694 30.2764 42.2222C30.6679 41.275 30.8687 40.26 30.8674 39.2351V34.6703C30.8657 33.974 31.0991 33.2974 31.5298 32.7503" stroke="#171321" stroke-width="1.91999" stroke-linecap="round" stroke-linejoin="round"/>
<path d="M37.0616 9.07692C35.4755 6.63092 33.2755 4.64375 30.6814 3.31381C28.0872 1.98387 25.1895 1.35769 22.2777 1.49777C20.7227 1.5672 19.1856 1.85813 17.7129 2.36177" stroke="#171321" stroke-width="1.91999" stroke-linecap="round" stroke-linejoin="round"/>
<path d="M15.2666 34.6703H30.8665" stroke="#171321" stroke-width="1.91999" stroke-linecap="round" stroke-linejoin="round"/>
<path d="M14.0898 38.7934H32.0417" stroke="#171321" stroke-width="1.91999" stroke-linecap="round" stroke-linejoin="round"/>
<path d="M15.1377 42.9166H31.2608" stroke="#171321" stroke-width="1.91999" stroke-linecap="round" stroke-linejoin="round"/>
<path d="M17.4948 18.3311C15.6772 16.7226 13.3339 15.8346 10.9068 15.8346C8.47969 15.8346 6.13643 16.7226 4.31885 18.3311" stroke="#171321" stroke-width="1.91999" stroke-linecap="round" stroke-linejoin="round"/>
<path d="M10.9008 12.3847C12.5075 12.3847 13.81 11.0822 13.81 9.47554C13.81 7.86887 12.5075 6.56641 10.9008 6.56641C9.29416 6.56641 7.9917 7.86887 7.9917 9.47554C7.9917 11.0822 9.29416 12.3847 10.9008 12.3847Z" stroke="#171321" stroke-width="1.91999" stroke-linecap="round" stroke-linejoin="round"/>
<path d="M10.9362 20.9135C16.4449 20.9135 20.9106 16.4478 20.9106 10.9392C20.9106 5.4305 16.4449 0.964844 10.9362 0.964844C5.42758 0.964844 0.961914 5.4305 0.961914 10.9392C0.961914 16.4478 5.42758 20.9135 10.9362 20.9135Z" stroke="#171321" stroke-width="1.91999" stroke-linecap="round" stroke-linejoin="round"/>
<path d="M43.6204 27.3599C41.8016 25.7461 39.4544 24.8549 37.0228 24.8549C34.5913 24.8549 32.2441 25.7461 30.4253 27.3599" stroke="#171321" stroke-width="1.91999" stroke-linecap="round" stroke-linejoin="round"/>
<path d="M37.0249 21.3271C38.6315 21.3271 39.934 20.0246 39.934 18.418C39.934 16.8113 38.6315 15.5089 37.0249 15.5089C35.4182 15.5089 34.1157 16.8113 34.1157 18.418C34.1157 20.0246 35.4182 21.3271 37.0249 21.3271Z" stroke="#171321" stroke-width="1.91999" stroke-linecap="round" stroke-linejoin="round"/>
<path d="M37.0573 29.9424C42.566 29.9424 47.0317 25.4767 47.0317 19.968C47.0317 14.4594 42.566 9.99371 37.0573 9.99371C31.5487 9.99371 27.083 14.4594 27.083 19.968C27.083 25.4767 31.5487 29.9424 37.0573 29.9424Z" stroke="#171321" stroke-width="1.91999" stroke-linecap="round" stroke-linejoin="round"/>
</g>
<defs>
<clipPath id="clip0_2225_2478">
<rect width="47.9997" height="47.9997" fill="white"/>
</clipPath>
</defs>
</svg>
