<svg xmlns="http://www.w3.org/2000/svg" viewBox="0 0 970 118" enable-background="new 0 0 970 118"><g fill="#413270"><path d="m247.89 34.706h13.857v13.882h-13.857z"/><path d="m212.48 69.41h13.857v13.882h-13.857z"/><path d="m283.3 69.41h13.857v13.882h-13.857z"/><path d="m35.413 69.41h13.857v13.882h-13.857z"/><path d="m35.413 86.77h13.857v13.882h-13.857z"/><path d="m35.413 52.06h13.857v13.882h-13.857z"/><path d="m35.413 17.353h13.857v13.882h-13.857z"/><path d="m35.413 34.706h13.857v13.882h-13.857z"/><path d="m159.36 52.06h13.857v13.882h-13.857z"/><path d="m141.65 52.06h13.857v13.882h-13.857z"/><path d="m141.65 86.77h13.857v13.882h-13.857z"/><path d="m159.36 86.77h13.857v13.882h-13.857z"/><path d="m141.65 17.353h13.857v13.882h-13.857z"/><path d="m159.36 17.353h13.857v13.882h-13.857z"/><path d="m141.65 34.706h13.857v13.882h-13.857z"/><path d="m407.25 86.77h13.857v13.882h-13.857z"/><path d="m407.25 17.353h13.857v13.882h-13.857z"/><path d="m407.25 52.06h13.857v13.882h-13.857z"/><path d="m478.07 52.06h13.857v13.882h-13.857z"/><path d="m495.78 52.06h13.857v13.882h-13.857z"/><path d="m478.07 17.353h13.857v13.882h-13.857z"/><path d="m460.37 52.06h13.857v13.882h-13.857z"/><path d="m460.37 69.41h13.857v13.882h-13.857z"/><path d="m495.78 69.41h13.857v13.882h-13.857z"/><path d="m495.78 86.77h13.857v13.882h-13.857z"/><path d="m460.37 34.706h13.857v13.882h-13.857z"/><path d="m495.78 17.353h13.857v13.882h-13.857z"/><path d="m495.78 34.706h13.857v13.882h-13.857z"/><path d="m566.6 52.06h13.857v13.882h-13.857z"/><path d="m106.24 17.353h13.857v13.882h-13.857z"/><path d="m88.53 17.353h13.857v13.882h-13.857z"/><path d="m70.825 52.06h13.857v13.882h-13.857z"/><path d="m88.53 52.06h13.857v13.882h-13.857z"/><path d="m106.24 52.06h13.857v13.882h-13.857z"/><path d="m70.825 34.706h13.857v13.882h-13.857z"/><path d="m70.825 17.353h13.857v13.882h-13.857z"/><path d="m106.24 69.41h13.857v13.882h-13.857z"/><path d="m70.825 86.77h13.857v13.882h-13.857z"/><path d="m88.53 86.77h13.857v13.882h-13.857z"/><path d="m106.24 86.77h13.857v13.882h-13.857z"/><path d="m123.94 0h13.857v13.882h-13.857z"/><path d="m194.77 0h13.857v13.882h-13.857z"/><path d="m336.42 0h13.857v13.882h-13.857z"/><path d="m371.83 0h13.857v13.882h-13.857z"/><path d="m442.66 0h13.857v13.882h-13.857z"/><path d="m531.19 0h13.857v13.882h-13.857z"/><path d="m548.9 0h13.857v13.882h-13.857z"/><path d="m584.31 0h13.857v13.882h-13.857z"/><path d="m637.43 0h13.857v13.882h-13.857z"/><path d="m655.13 0h13.857v13.882h-13.857z"/><path d="m725.96 0h13.857v13.882h-13.857z"/><path d="m761.37 0h13.857v13.882h-13.857z"/><path d="m779.08 0h13.857v13.882h-13.857z"/><path d="m796.79 0h13.857v13.882h-13.857z"/><path d="m832.2 0h13.857v13.882h-13.857z"/><path d="m920.73 0h13.857v13.882h-13.857z"/><path d="m53.12 17.353h13.857v13.882h-13.857z"/><path d="m265.6 17.353h13.857v13.882h-13.857z"/><path d="m336.42 17.353h13.857v13.882h-13.857z"/><path d="m584.31 17.353h13.857v13.882h-13.857z"/><path d="m814.49 17.353h13.857v13.882h-13.857z"/><path d="m832.2 17.353h13.857v13.882h-13.857z"/><path d="m920.73 17.353h13.857v13.882h-13.857z"/><path d="m159.36 34.706h13.857v13.882h-13.857z"/><path d="m301.01 34.706h13.857v13.882h-13.857z"/><path d="m371.83 34.706h13.857v13.882h-13.857z"/><path d="m708.25 34.706h13.857v13.882h-13.857z"/><path d="m725.96 34.706h13.857v13.882h-13.857z"/><path d="m832.2 34.706h13.857v13.882h-13.857z"/><path d="m885.32 34.706h13.857v13.882h-13.857z"/><path d="m53.12 52.06h13.857v13.882h-13.857z"/><path d="m584.31 52.06h13.857v13.882h-13.857z"/><path d="m725.96 52.06h13.857v13.882h-13.857z"/><path d="m849.9 52.06h13.857v13.882h-13.857z"/><path d="m867.61 52.06h13.857v13.882h-13.857z"/><path d="m956.14 52.06h13.857v13.882h-13.857z"/><path d="m123.94 69.41h13.857v13.882h-13.857z"/><path d="m159.36 69.41h13.857v13.882h-13.857z"/><path d="m371.83 69.41h13.857v13.882h-13.857z"/><path d="m442.66 69.41h13.857v13.882h-13.857z"/><path d="m548.9 69.41h13.857v13.882h-13.857z"/><path d="m690.55 69.41h13.857v13.882h-13.857z"/><path d="m832.2 69.41h13.857v13.882h-13.857z"/><path d="m903.02 69.41h13.857v13.882h-13.857z"/><path d="m53.12 86.77h13.857v13.882h-13.857z"/><path d="m123.94 86.77h13.857v13.882h-13.857z"/><path d="m194.77 86.77h13.857v13.882h-13.857z"/><path d="m478.07 86.77h13.857v13.882h-13.857z"/><path d="m619.72 86.77h13.857v13.882h-13.857z"/><path d="m832.2 86.77h13.857v13.882h-13.857z"/><path d="m849.9 86.77h13.857v13.882h-13.857z"/><path d="m123.94 104.12h13.857v13.882h-13.857z"/><path d="m177.06 104.12h13.857v13.882h-13.857z"/><path d="m212.48 104.12h13.857v13.882h-13.857z"/><path d="m230.18 104.12h13.857v13.882h-13.857z"/><path d="m265.6 104.12h13.857v13.882h-13.857z"/><path d="m336.42 104.12h13.857v13.882h-13.857z"/><path d="m442.66 104.12h13.857v13.882h-13.857z"/><path d="m460.37 104.12h13.857v13.882h-13.857z"/><path d="m478.07 104.12h13.857v13.882h-13.857z"/><path d="m495.78 104.12h13.857v13.882h-13.857z"/><path d="m17.706 0h13.857v13.882h-13.857z"/><path d="m35.413 0h13.857v13.882h-13.857z"/><path d="m53.12 0h13.857v13.882h-13.857z"/><path d="m354.13 0h13.857v13.882h-13.857z"/><path d="m389.54 0h13.857v13.882h-13.857z"/><path d="m407.25 0h13.857v13.882h-13.857z"/><path d="m424.95 0h13.857v13.882h-13.857z"/><path d="m495.78 0h13.857v13.882h-13.857z"/><path d="m513.48 0h13.857v13.882h-13.857z"/><path d="m566.6 0h13.857v13.882h-13.857z"/><path d="m602.02 0h13.857v13.882h-13.857z"/><path d="m619.72 0h13.857v13.882h-13.857z"/><path d="m690.55 0h13.857v13.882h-13.857z"/><path d="m743.67 0h13.857v13.882h-13.857z"/><path d="m814.49 0h13.857v13.882h-13.857z"/><path d="m849.9 0h13.857v13.882h-13.857z"/><path d="m867.61 0h13.857v13.882h-13.857z"/><path d="m885.32 0h13.857v13.882h-13.857z"/><path d="m123.94 17.353h13.857v13.882h-13.857z"/><path d="m194.77 17.353h13.857v13.882h-13.857z"/><path d="m194.77 34.706h13.857v13.882h-13.857z"/><path d="m230.18 34.706h13.857v13.882h-13.857z"/><path d="m318.71 34.706h13.857v13.882h-13.857z"/><path d="m336.42 34.706h13.857v13.882h-13.857z"/><path d="m655.13 34.706h13.857v13.882h-13.857z"/><path d="m761.37 34.706h13.857v13.882h-13.857z"/><path d="m796.79 34.706h13.857v13.882h-13.857z"/><path d="m849.9 34.706h13.857v13.882h-13.857z"/><path d="m867.61 34.706h13.857v13.882h-13.857z"/><path d="m920.73 34.706h13.857v13.882h-13.857z"/><path d="m938.44 34.706h13.857v13.882h-13.857z"/><path d="m123.94 52.06h13.857v13.882h-13.857z"/><path d="m336.42 52.06h13.857v13.882h-13.857z"/><path d="m141.65 69.41h13.857v13.882h-13.857z"/><path d="m230.18 69.41h13.857v13.882h-13.857z"/><path d="m265.6 69.41h13.857v13.882h-13.857z"/><path d="m301.01 69.41h13.857v13.882h-13.857z"/><path d="m407.25 69.41h13.857v13.882h-13.857z"/><path d="m478.07 69.41h13.857v13.882h-13.857z"/><path d="m584.31 69.41h13.857v13.882h-13.857z"/><path d="m920.73 69.41h13.857v13.882h-13.857z"/><path d="m938.44 69.41h13.857v13.882h-13.857z"/><path d="m956.14 69.41h13.857v13.882h-13.857z"/><path d="m265.6 86.77h13.857v13.882h-13.857z"/><path d="m584.31 86.77h13.857v13.882h-13.857z"/><path d="m814.49 86.77h13.857v13.882h-13.857z"/><path d="m867.61 86.77h13.857v13.882h-13.857z"/><path d="m885.32 86.77h13.857v13.882h-13.857z"/><path d="m903.02 86.77h13.857v13.882h-13.857z"/><path d="m920.73 86.77h13.857v13.882h-13.857z"/><path d="m938.44 86.77h13.857v13.882h-13.857z"/><path d="m35.413 104.12h13.857v13.882h-13.857z"/><path d="m53.12 104.12h13.857v13.882h-13.857z"/><path d="m70.825 104.12h13.857v13.882h-13.857z"/><path d="m88.53 104.12h13.857v13.882h-13.857z"/><path d="m513.48 104.12h13.857v13.882h-13.857z"/><path d="m531.19 104.12h13.857v13.882h-13.857z"/><path d="m548.9 104.12h13.857v13.882h-13.857z"/><path d="m566.6 104.12h13.857v13.882h-13.857z"/><path d="m584.31 104.12h13.857v13.882h-13.857z"/><path d="m637.43 104.12h13.857v13.882h-13.857z"/><path d="m690.55 104.12h13.857v13.882h-13.857z"/><path d="m708.25 104.12h13.857v13.882h-13.857z"/><path d="m761.37 104.12h13.857v13.882h-13.857z"/><path d="m159.36 0h13.857v13.882h-13.857z"/><path d="m177.06 0h13.857v13.882h-13.857z"/><path d="m708.25 0h13.857v13.882h-13.857z"/><path d="m903.02 0h13.857v13.882h-13.857z"/><path d="m17.706 17.353h13.857v13.882h-13.857z"/><path d="m885.32 17.353h13.857v13.882h-13.857z"/><path d="m903.02 17.353h13.857v13.882h-13.857z"/><path d="m53.12 34.706h13.857v13.882h-13.857z"/><path d="m88.53 34.706h13.857v13.882h-13.857z"/><path d="m106.24 34.706h13.857v13.882h-13.857z"/><path d="m123.94 34.706h13.857v13.882h-13.857z"/><path d="m478.07 34.706h13.857v13.882h-13.857z"/><path d="m548.9 34.706h13.857v13.882h-13.857z"/><path d="m584.31 34.706h13.857v13.882h-13.857z"/><path d="m690.55 34.706h13.857v13.882h-13.857z"/><path d="m903.02 34.706h13.857v13.882h-13.857z"/><path d="m956.14 34.706h13.857v13.882h-13.857z"/><path d="m513.48 52.06h13.857v13.882h-13.857z"/><path d="m920.73 52.06h13.857v13.882h-13.857z"/><path d="m194.77 69.41h13.857v13.882h-13.857z"/><path d="m513.48 69.41h13.857v13.882h-13.857z"/><path d="m619.72 69.41h13.857v13.882h-13.857z"/><path d="m725.96 69.41h13.857v13.882h-13.857z"/><path d="m0 86.77h13.857v13.882h-13.857z"/><path d="m513.48 86.77h13.857v13.882h-13.857z"/><path d="m655.13 86.77h13.857v13.882h-13.857z"/><path d="m725.96 86.77h13.857v13.882h-13.857z"/><path d="m796.79 86.77h13.857v13.882h-13.857z"/><path d="M 0,104.118 H13.857 V118 H0 z"/><path d="m354.13 104.12h13.857v13.882h-13.857z"/><path d="m371.83 104.12h13.857v13.882h-13.857z"/><path d="m814.49 104.12h13.857v13.882h-13.857z"/><path d="m832.2 104.12h13.857v13.882h-13.857z"/><path d="m849.9 104.12h13.857v13.882h-13.857z"/><path d="m70.825 0h13.857v13.882h-13.857z"/><path d="m318.71 0h13.857v13.882h-13.857z"/><path d="m460.37 0h13.857v13.882h-13.857z"/><path d="m478.07 0h13.857v13.882h-13.857z"/><path d="m672.84 0h13.857v13.882h-13.857z"/><path d="m371.83 17.353h13.857v13.882h-13.857z"/><path d="m761.37 17.353h13.857v13.882h-13.857z"/><path d="m796.79 17.353h13.857v13.882h-13.857z"/><path d="m849.9 17.353h13.857v13.882h-13.857z"/><path d="m867.61 17.353h13.857v13.882h-13.857z"/><path d="m619.72 34.706h13.857v13.882h-13.857z"/><path d="m17.706 52.06h13.857v13.882h-13.857z"/><path d="m194.77 52.06h13.857v13.882h-13.857z"/><path d="m265.6 52.06h13.857v13.882h-13.857z"/><path d="m832.2 52.06h13.857v13.882h-13.857z"/><path d="m53.12 69.41h13.857v13.882h-13.857z"/><path d="m70.825 69.41h13.857v13.882h-13.857z"/><path d="m88.53 69.41h13.857v13.882h-13.857z"/><path d="m655.13 69.41h13.857v13.882h-13.857z"/><path d="m672.84 69.41h13.857v13.882h-13.857z"/><path d="m814.49 69.41h13.857v13.882h-13.857z"/><path d="m849.9 69.41h13.857v13.882h-13.857z"/><path d="m761.37 86.77h13.857v13.882h-13.857z"/><path d="m17.706 104.12h13.857v13.882h-13.857z"/><path d="m141.65 104.12h13.857v13.882h-13.857z"/><path d="m159.36 104.12h13.857v13.882h-13.857z"/><path d="m194.77 104.12h13.857v13.882h-13.857z"/><path d="m247.89 104.12h13.857v13.882h-13.857z"/><path d="m301.01 104.12h13.857v13.882h-13.857z"/><path d="m318.71 104.12h13.857v13.882h-13.857z"/><path d="m424.95 104.12h13.857v13.882h-13.857z"/><path d="m743.67 104.12h13.857v13.882h-13.857z"/><path d="m885.32 104.12h13.857v13.882h-13.857z"/><path d="m903.02 104.12h13.857v13.882h-13.857z"/><path d="m920.73 104.12h13.857v13.882h-13.857z"/><path d="m88.53 0h13.857v13.882h-13.857z"/><path d="m106.24 0h13.857v13.882h-13.857z"/><path d="m141.65 0h13.857v13.882h-13.857z"/><path d="m212.48 0h13.857v13.882h-13.857z"/><path d="m230.18 0h13.857v13.882h-13.857z"/><path d="m247.89 0h13.857v13.882h-13.857z"/><path d="m265.6 0h13.857v13.882h-13.857z"/><path d="m283.3 0h13.857v13.882h-13.857z"/><path d="m301.01 0h13.857v13.882h-13.857z"/><path d="m938.44 0h13.857v13.882h-13.857z"/><path d="m956.14 0h13.857v13.882h-13.857z"/><path d="m513.48 17.353h13.857v13.882h-13.857z"/><path d="m655.13 17.353h13.857v13.882h-13.857z"/><path d="m725.96 17.353h13.857v13.882h-13.857z"/><path d="m938.44 17.353h13.857v13.882h-13.857z"/><path d="m956.14 17.353h13.857v13.882h-13.857z"/><path d="m17.706 34.706h13.857v13.882h-13.857z"/><path d="m265.6 34.706h13.857v13.882h-13.857z"/><path d="m407.25 34.706h13.857v13.882h-13.857z"/><path d="m442.66 34.706h13.857v13.882h-13.857z"/><path d="m513.48 34.706h13.857v13.882h-13.857z"/><path d="m814.49 34.706h13.857v13.882h-13.857z"/><path d="m0 52.06h13.857v13.882h-13.857z"/><path d="m371.83 52.06h13.857v13.882h-13.857z"/><path d="m655.13 52.06h13.857v13.882h-13.857z"/><path d="m796.79 52.06h13.857v13.882h-13.857z"/><path d="m814.49 52.06h13.857v13.882h-13.857z"/><path d="m885.32 52.06h13.857v13.882h-13.857z"/><path d="m903.02 52.06h13.857v13.882h-13.857z"/><path d="m938.44 52.06h13.857v13.882h-13.857z"/><path d="m0 69.41h13.857v13.882h-13.857z"/><path d="m17.706 69.41h13.857v13.882h-13.857z"/><path d="m336.42 69.41h13.857v13.882h-13.857z"/><path d="m761.37 69.41h13.857v13.882h-13.857z"/><path d="m796.79 69.41h13.857v13.882h-13.857z"/><path d="m867.61 69.41h13.857v13.882h-13.857z"/><path d="m885.32 69.41h13.857v13.882h-13.857z"/><path d="m17.706 86.77h13.857v13.882h-13.857z"/><path d="m336.42 86.77h13.857v13.882h-13.857z"/><path d="m106.24 104.12h13.857v13.882h-13.857z"/><path d="m283.3 104.12h13.857v13.882h-13.857z"/><path d="m389.54 104.12h13.857v13.882h-13.857z"/><path d="m407.25 104.12h13.857v13.882h-13.857z"/><path d="m602.02 104.12h13.857v13.882h-13.857z"/><path d="m619.72 104.12h13.857v13.882h-13.857z"/><path d="m655.13 104.12h13.857v13.882h-13.857z"/><path d="m672.84 104.12h13.857v13.882h-13.857z"/><path d="m725.96 104.12h13.857v13.882h-13.857z"/><path d="m779.08 104.12h13.857v13.882h-13.857z"/><path d="m796.79 104.12h13.857v13.882h-13.857z"/><path d="m867.61 104.12h13.857v13.882h-13.857z"/><path d="m938.44 104.12h13.857v13.882h-13.857z"/></g><g fill="#ece7f2"><path d="m761.37 52.06h13.857v13.882h-13.857z"/><path d="m779.08 69.41h13.857v13.882h-13.857z"/><path d="m743.67 86.77h13.857v13.882h-13.857z"/><path d="m779.08 86.77h13.857v13.882h-13.857z"/><path d="m743.67 17.353h13.857v13.882h-13.857z"/><path d="m779.08 17.353h13.857v13.882h-13.857z"/><path d="m743.67 34.706h13.857v13.882h-13.857z"/><path d="m779.08 34.706h13.857v13.882h-13.857z"/><path d="m743.67 52.06h13.857v13.882h-13.857z"/><path d="m779.08 52.06h13.857v13.882h-13.857z"/><path d="m743.67 69.41h13.857v13.882h-13.857z"/><path d="m354.13 17.353h13.857v13.882h-13.857z"/><path d="m354.13 34.706h13.857v13.882h-13.857z"/><path d="m389.54 52.06h13.857v13.882h-13.857z"/><path d="m354.13 86.77h13.857v13.882h-13.857z"/><path d="m389.54 34.706h13.857v13.882h-13.857z"/><path d="m389.54 69.41h13.857v13.882h-13.857z"/><path d="m354.13 69.41h13.857v13.882h-13.857z"/><path d="m371.83 86.77h13.857v13.882h-13.857z"/><path d="m389.54 86.77h13.857v13.882h-13.857z"/><path d="m389.54 17.353h13.857v13.882h-13.857z"/><path d="m354.13 52.06h13.857v13.882h-13.857z"/><path d="m424.95 34.706h13.857v13.882h-13.857z"/><path d="m424.95 86.77h13.857v13.882h-13.857z"/><path d="m424.95 69.41h13.857v13.882h-13.857z"/><path d="m424.95 17.353h13.857v13.882h-13.857z"/><path d="m442.66 17.353h13.857v13.882h-13.857z"/><path d="m460.37 17.353h13.857v13.882h-13.857z"/><path d="m424.95 52.06h13.857v13.882h-13.857z"/><path d="m442.66 52.06h13.857v13.882h-13.857z"/><path d="m442.66 86.77h13.857v13.882h-13.857z"/><path d="m460.37 86.77h13.857v13.882h-13.857z"/><path d="m177.06 69.41h13.857v13.882h-13.857z"/><path d="m177.06 86.77h13.857v13.882h-13.857z"/><path d="m177.06 52.06h13.857v13.882h-13.857z"/><path d="m177.06 17.353h13.857v13.882h-13.857z"/><path d="m177.06 34.706h13.857v13.882h-13.857z"/><path d="m301.01 52.06h13.857v13.882h-13.857z"/><path d="m318.71 52.06h13.857v13.882h-13.857z"/><path d="m283.3 52.06h13.857v13.882h-13.857z"/><path d="m283.3 86.77h13.857v13.882h-13.857z"/><path d="m301.01 86.77h13.857v13.882h-13.857z"/><path d="m318.71 86.77h13.857v13.882h-13.857z"/><path d="m318.71 17.353h13.857v13.882h-13.857z"/><path d="m318.71 69.41h13.857v13.882h-13.857z"/><path d="m283.3 17.353h13.857v13.882h-13.857z"/><path d="m301.01 17.353h13.857v13.882h-13.857z"/><path d="m283.3 34.706h13.857v13.882h-13.857z"/><path d="m531.19 17.353h13.857v13.882h-13.857z"/><path d="m531.19 52.06h13.857v13.882h-13.857z"/><path d="m531.19 69.41h13.857v13.882h-13.857z"/><path d="m566.6 69.41h13.857v13.882h-13.857z"/><path d="m548.9 86.77h13.857v13.882h-13.857z"/><path d="m566.6 86.77h13.857v13.882h-13.857z"/><path d="m548.9 17.353h13.857v13.882h-13.857z"/><path d="m566.6 17.353h13.857v13.882h-13.857z"/><path d="m548.9 52.06h13.857v13.882h-13.857z"/><path d="m531.19 86.77h13.857v13.882h-13.857z"/><path d="m531.19 34.706h13.857v13.882h-13.857z"/><path d="m566.6 34.706h13.857v13.882h-13.857z"/><path d="m619.72 52.06h13.857v13.882h-13.857z"/><path d="m637.43 52.06h13.857v13.882h-13.857z"/><path d="m602.02 17.353h13.857v13.882h-13.857z"/><path d="m619.72 17.353h13.857v13.882h-13.857z"/><path d="m602.02 52.06h13.857v13.882h-13.857z"/><path d="m602.02 69.41h13.857v13.882h-13.857z"/><path d="m637.43 69.41h13.857v13.882h-13.857z"/><path d="m637.43 86.77h13.857v13.882h-13.857z"/><path d="m602.02 34.706h13.857v13.882h-13.857z"/><path d="m602.02 86.77h13.857v13.882h-13.857z"/><path d="m637.43 17.353h13.857v13.882h-13.857z"/><path d="m637.43 34.706h13.857v13.882h-13.857z"/><path d="m708.25 52.06h13.857v13.882h-13.857z"/><path d="m708.25 69.41h13.857v13.882h-13.857z"/><path d="m708.25 86.77h13.857v13.882h-13.857z"/><path d="m690.55 17.353h13.857v13.882h-13.857z"/><path d="m672.84 52.06h13.857v13.882h-13.857z"/><path d="m690.55 52.06h13.857v13.882h-13.857z"/><path d="m672.84 86.77h13.857v13.882h-13.857z"/><path d="m690.55 86.77h13.857v13.882h-13.857z"/><path d="m672.84 17.353h13.857v13.882h-13.857z"/><path d="m708.25 17.353h13.857v13.882h-13.857z"/><path d="m672.84 34.706h13.857v13.882h-13.857z"/><path d="m247.89 17.353h13.857v13.882h-13.857z"/><path d="m230.18 17.353h13.857v13.882h-13.857z"/><path d="m212.48 52.06h13.857v13.882h-13.857z"/><path d="m230.18 52.06h13.857v13.882h-13.857z"/><path d="m247.89 52.06h13.857v13.882h-13.857z"/><path d="m212.48 34.706h13.857v13.882h-13.857z"/><path d="m212.48 17.353h13.857v13.882h-13.857z"/><path d="m247.89 69.41h13.857v13.882h-13.857z"/><path d="m212.48 86.77h13.857v13.882h-13.857z"/><path d="m230.18 86.77h13.857v13.882h-13.857z"/><path d="m247.89 86.77h13.857v13.882h-13.857z"/></g></svg>