<svg xmlns="http://www.w3.org/2000/svg" viewBox="0 0 128 128" enable-background="new 0 0 128 128"><path d="m117.18 79.38c-2.647-1.979-5.542-3.396-8.542-4.277 2.22-6.114 3.359-12.534 3.359-19.11 0-30.878-25.12-56-56-56s-56 25.12-56 56 25.12 56 56 56c6.571 0 12.99-1.138 19.1-3.358 1.63 5.563 4.994 10.431 9.719 13.964 4.719 3.538 10.333 5.398 16.13 5.398 1.291 0 2.591-.092 3.892-.279 7.139-1.024 13.451-4.767 17.773-10.539 8.917-11.923 6.48-28.881-5.433-37.802m-115.18-23.384c0-29.776 24.22-54 54-54s54 24.22 54 54c0 6.408-1.121 12.665-3.308 18.618-7.406-1.584-15.253.003-21.471 4.474-3.075-1.221-6.672-2.152-9.766-2.797-.614-.34-1.272-.598-1.96-.739l-4.279-.877c.11-1.507.221-2.907.33-3.838 2.381-1.653 3.996-3.944 4.151-5.902.214-1.793.425-3.585.632-5.381.103.022.207.039.311.05 1.642.167 3.107-1.033 3.271-2.664l1.088-10.512c.084-.79-.145-1.565-.646-2.183-.503-.621-1.219-1.01-2.01-1.087-.036-.004-.071-.007-.107-.01.182-1.553.362-3.104.538-4.692.019-.272.05-.59.084-.948.313-3.266.966-10.06-4.119-14.601-7.98-7.834-25.501-7.834-33.443-.033-5.111 4.564-4.465 11.354-4.155 14.617.035.363.066.687.089 1.012l.108.926c.145 1.24.289 2.477.431 3.718-.583.042-1.156.259-1.639.646-.809.648-1.223 1.701-1.107 2.815l1.069 10.326c.077.79.458 1.502 1.073 2.01.618.507 1.396.742 2.2.662.102-.011.204-.027.304-.048.189 1.628.38 3.253.572 4.878l.056.471c.175 1.998 1.794 4.288 4.165 5.933.106.914.214 2.278.321 3.753l-4.696.963c-1.108.228-2.155.729-3.03 1.452l-4.246 3.518c-.061.05-.109.112-.164.168-2.371.702-4.621 1.417-6.497 2.07-6.84 2.385-7.406 3.418-7.406 4.349v5.908c-9.133-9.675-14.747-22.701-14.747-37.02m79.6 26.23l-.001-.024c-.024-.653-.327-1.267-.83-1.684l-1.552-1.286c1.405.376 2.825.806 4.18 1.296-.621.534-1.22 1.101-1.797 1.698m-22.986-8.898h-4.854c-1.197 0-2.395-.283-3.464-.818l-6.46-3.23c-.047-.023-.097-.024-.146-.04-1.891-1.289-3.28-3.113-3.406-4.545l-.059-.5c-.248-2.107-.496-4.215-.739-6.329-.044-.386-.309-.711-.678-.834-.368-.123-.775-.021-1.042.261-.121.128-.325.287-.605.316-.263.028-.524-.051-.729-.219-.201-.165-.325-.397-.351-.661l-1.07-10.332c-.044-.429.097-.83.368-1.047.372-.297.796-.238 1.046-.096.129.073.271.105.413.117-.009.108-.022.223-.024.322-.021.521-.042 1.037-.054 1.54-.086 1.797.562 3.529 1.826 4.877 1.333 1.421 3.239 2.256 5.26 2.29l2.657-.033c3.542-.17 6.402-2.624 6.945-5.708h5.45c.224 1.279.822 2.477 1.753 3.465 1.331 1.413 3.232 2.243 5.244 2.276l2.66-.033c2.04-.092 3.973-.983 5.303-2.446 1.191-1.31 1.801-2.952 1.72-4.596-.01-.502-.024-1.01-.044-1.494-.006-.184-.025-.363-.049-.541.026-.012.054-.017.08-.03.18-.099.37-.14.571-.117.263.026.499.153.664.358.164.201.238.453.21.713l-1.089 10.518c-.054.538-.539.938-1.079.877-.287-.03-.494-.19-.617-.319-.268-.281-.673-.382-1.042-.258-.368.124-.631.449-.675.834-.26 2.28-.526 4.553-.802 6.866-.116 1.456-1.61 3.38-3.635 4.679-.245.157-.41.414-.45.702-.177 1.257-.348 3.667-.529 6.22-.154 2.17-.312 4.407-.466 5.706l-10.647 7.994c-.515.388-1.239.358-1.722-.069l-8.884-7.877c-.15-1.283-.307-3.521-.459-5.692-.116-1.653-.228-3.244-.34-4.509l4.827 2.414c1.346.673 2.853 1.029 4.359 1.029h4.854c.552 0 1-.448 1-1s-.448-1-1-1m16.252-36.02c-.036.377-.068.713-.084.959-.201 1.813-.413 3.617-.626 5.433-.239-.079-.478-.155-.719-.227v-11.394c0-2.631-2.141-4.771-4.771-4.771h-25.769c-2.631 0-4.771 2.14-4.771 4.771v11.484c-.095.03-.193.053-.288.084-.169-1.49-.341-2.975-.515-4.46l-.104-.876c-.02-.292-.052-.634-.088-1.019-.301-3.161-.86-9.05 3.531-12.968 7.309-7.179 23.363-7.178 30.709.033 4.364 3.897 3.799 9.787 3.495 12.951m-15.193 6.403c-.34.116-.591.405-.659.758-.087.452-.138.847-.156 1.234-.008.316-.023.634-.036.951h-5.31l-.029-.827c-.011-.391-.08-.759-.159-1.184-.065-.349-.309-.637-.642-.758-4.04-1.468-8.415-1.741-12.557-.849v-10.957c0-1.528 1.243-2.771 2.771-2.771h25.769c1.528 0 2.771 1.243 2.771 2.771v10.896c-3.918-.785-7.992-.551-11.763.736m-20.861 2.038c.002-.103.009-.211.023-.329 4.081-1.262 8.52-1.207 12.621.156.015.109.025.212.028.31l.052 1.499c.117 2.604-2.185 4.838-5.093 4.979l-2.595.032c-1.453-.024-2.84-.628-3.804-1.657-.891-.95-1.348-2.163-1.287-3.438.013-.516.034-1.021.055-1.552m22.04.03c.006-.113.016-.232.031-.359 4.08-1.259 8.517-1.205 12.62.155.014.111.024.219.027.323.02.484.034.974.044 1.491.056 1.139-.37 2.268-1.201 3.181-.975 1.072-2.402 1.726-3.879 1.793l-2.601.032c-1.468-.024-2.814-.609-3.792-1.647-.896-.952-1.36-2.169-1.307-3.425.025-.528.046-1.045.058-1.544m-42.11 49.24v-7.709c.845-.847 5.332-2.552 11.208-4.337l-.54 14.713c-.015.411.223.789.6.954l5.383 2.345-1.427 4.284c-5.656-2.54-10.796-6.02-15.224-10.25m18.289 4.497l-5.596-2.438.54-14.708c1.314-.382 2.68-.763 4.076-1.137l12.494 28.23c-4.439-.616-8.705-1.773-12.733-3.403l1.768-5.309c.164-.49-.075-1.025-.549-1.232m-.518-20.476c-.387.102-.776.206-1.167.311l.985-.816c.62-.514 1.365-.871 2.153-1.033l.32-.065-2.291 1.603m14.341 30.696l-12.94-29.23 5.03-3.524c.167 2.368.325 4.561.488 5.74.033.236.149.453.327.611l9.165 8.126c.632.56 1.431.843 2.232.843.709 0 1.42-.222 2.02-.67l10.984-8.248c.212-.16.353-.397.39-.66.16-1.132.315-3.199.477-5.463l4.633 3.244-12.96 29.28c-1.556.135-3.124.207-4.702.207-1.736 0-3.451-.09-5.146-.251m12.147-.205l12.824-28.973c.193-.437.05-.95-.341-1.224l-2-1.4c.412.077.841.161 1.282.251.167.106.327.223.479.35l4.246 3.518c.065.054.104.133.107.218l.08 2.167c-.096.124-.196.242-.291.368-4.322 5.775-6.138 12.887-5.111 20.02.09.625.208 1.24.339 1.852-3.762 1.382-7.646 2.337-11.614 2.85m58.01 6.443c-4 5.344-9.847 8.81-16.457 9.758-6.61.948-13.194-.735-18.537-4.74-5.347-3.998-8.815-9.839-9.766-16.448-.95-6.608.73-13.192 4.733-18.541 4.903-6.549 12.428-10 20.04-10 5.211 0 10.467 1.619 14.951 4.973 11.03 8.261 13.288 23.962 5.03 35"/><path d="m109.47 92.58l-1.839-1.84c-.522-.523-1.266-.788-2.04-.731-.729.055-1.429.383-1.971.925l-14.218 14.218c-.155.155-.255.357-.284.575l-.651 4.893c-.041.309.064.619.284.839.01.01.023.013.034.022l-.001.009.013-.001c.184.165.417.263.662.263.043 0 .087-.003.131-.009l4.891-.648c.218-.029.42-.129.576-.284l14.219-14.221c1.158-1.16 1.245-2.958.194-4.01m-15.587 16.577l-1.861.247c-.193-.601-.615-1.046-1.208-1.251l.243-1.826 10.608-10.608 2.827 2.827-10.609 10.611m13.979-13.982l-1.956 1.957-2.827-2.827 1.957-1.957c.2-.201.458-.326.706-.345.135-.016.333.007.476.15l1.839 1.84c.266.268.177.809-.195 1.182"/><path d="m113.01 110h-12c-.552 0-1 .448-1 1s.448 1 1 1h12c.552 0 1-.448 1-1s-.447-1-1-1"/></svg>