<svg xmlns="http://www.w3.org/2000/svg" xmlns:xlink="http://www.w3.org/1999/xlink" viewBox="0 0 32 32" enable-background="new 0 0 32 32"><defs><path id="K" d="m45 186h223v4h-223z"/><path id="L" d="m-219 186h223v4h-223z"/><path id="M" d="m24 133h1v15h-1z"/><path id="N" d="m24 175h1v15h-1z"/><path id="O" d="M24.5,174c6.904,0,12.5-5.596,12.5-12.5S31.404,149,24.5,149S12,154.596,12,161.5S17.596,174,24.5,174z
			 M1,138h47v47H1V138z"/><path id="P" d="m45 311h223v4h-223z"/><path id="Q" d="m-219 311h223v4h-223z"/><path id="R" d="m24 258h1v15h-1z"/><path id="S" d="m24 300h1v15h-1z"/><path id="T" d="M24.5,299c6.904,0,12.5-5.596,12.5-12.5S31.404,274,24.5,274S12,279.596,12,286.5S17.596,299,24.5,299z
			 M1,263h47v47H1V263z"/><path id="U" d="m45 423h223v4h-223z"/><path id="V" d="m-219 423h223v4h-223z"/><path id="W" d="m24 370h1v15h-1z"/><path id="X" d="m24 412h1v15h-1z"/><path id="Y" d="M24.5,411c6.904,0,12.5-5.596,12.5-12.5S31.404,386,24.5,386S12,391.596,12,398.5S17.596,411,24.5,411z
			 M1,375h47v47H1V375z"/><path id="Z" d="m45 543h223v4h-223z"/><path id="a" d="m-219 543h223v4h-223z"/><path id="b" d="m24 490h1v15h-1z"/><path id="c" d="m24 532h1v15h-1z"/><path id="d" d="M24.5,531c6.904,0,12.5-5.596,12.5-12.5S31.404,506,24.5,506S12,511.596,12,518.5S17.596,531,24.5,531z
			 M1,495h47v47H1V495z"/><use id="e" xlink:href="#y"/><use id="f" xlink:href="#y"/><use id="g" xlink:href="#y"/><use id="h" xlink:href="#y"/><use id="i" xlink:href="#y"/><path id="j" d="m-776-4585h1600v5980h-1600z"/><use id="k" xlink:href="#z"/><use id="l" xlink:href="#z"/><use id="m" xlink:href="#z"/><use id="n" xlink:href="#z"/><path id="o" d="m-776-4473h1600v5980h-1600z"/><use id="p" xlink:href="#10"/><use id="q" xlink:href="#10"/><use id="r" xlink:href="#10"/><use id="s" xlink:href="#10"/><path id="t" d="m-776-4353h1600v5980h-1600z"/><use id="u" xlink:href="#11"/><use id="v" xlink:href="#11"/><use id="w" xlink:href="#11"/><use id="x" xlink:href="#11"/><path id="y" d="m-776-4710h1600v5980h-1600z"/><path id="z" d="m-776-4585h1600v5980h-1600z"/><path id="10" d="m-776-4473h1600v5980h-1600z"/><path id="11" d="m-776-4353h1600v5980h-1600z"/><clipPath><use xlink:href="#x"/></clipPath><clipPath><use xlink:href="#k"/></clipPath><clipPath><use xlink:href="#m"/></clipPath><clipPath><use xlink:href="#l"/></clipPath><clipPath><use xlink:href="#j"/></clipPath><clipPath><use xlink:href="#i"/></clipPath><clipPath><use xlink:href="#f"/></clipPath><clipPath><use xlink:href="#h"/></clipPath><clipPath><use xlink:href="#g"/></clipPath><clipPath><use xlink:href="#n"/></clipPath><clipPath><use xlink:href="#o"/></clipPath><clipPath><use xlink:href="#u"/></clipPath><clipPath><use xlink:href="#w"/></clipPath><clipPath><use xlink:href="#v"/></clipPath><clipPath><use xlink:href="#t"/></clipPath><clipPath><use xlink:href="#s"/></clipPath><clipPath><use xlink:href="#p"/></clipPath><clipPath><use xlink:href="#r"/></clipPath><clipPath><use xlink:href="#q"/></clipPath><clipPath><use xlink:href="#e"/></clipPath><clipPath id="J"><use xlink:href="#d"/></clipPath><clipPath id="5"><use xlink:href="#P"/></clipPath><clipPath id="7"><use xlink:href="#R"/></clipPath><clipPath id="6"><use xlink:href="#Q"/></clipPath><clipPath id="4"><use xlink:href="#O"/></clipPath><clipPath id="3"><use xlink:href="#N"/></clipPath><clipPath id="0"><use xlink:href="#K"/></clipPath><clipPath id="2"><use xlink:href="#M"/></clipPath><clipPath id="1"><use xlink:href="#L"/></clipPath><clipPath id="8"><use xlink:href="#S"/></clipPath><clipPath id="9"><use xlink:href="#T"/></clipPath><clipPath id="G"><use xlink:href="#a"/></clipPath><clipPath id="I"><use xlink:href="#c"/></clipPath><clipPath id="H"><use xlink:href="#b"/></clipPath><clipPath id="F"><use xlink:href="#Z"/></clipPath><clipPath id="A"><use xlink:href="#U"/></clipPath><clipPath id="E"><use xlink:href="#Y"/></clipPath><clipPath id="B"><use xlink:href="#V"/></clipPath><clipPath id="D"><use xlink:href="#X"/></clipPath><clipPath id="C"><use xlink:href="#W"/></clipPath></defs><g clip-path="url(#0)"/><g clip-path="url(#1)"/><g clip-path="url(#2)"/><g clip-path="url(#3)"/><g clip-path="url(#4)"/><g clip-path="url(#5)"/><g clip-path="url(#6)"/><g clip-path="url(#7)"/><g clip-path="url(#8)"/><g clip-path="url(#9)"/><g clip-path="url(#A)"/><g clip-path="url(#B)"/><g clip-path="url(#C)"/><g clip-path="url(#D)"/><g clip-path="url(#E)"/><g clip-path="url(#F)"/><g clip-path="url(#G)"/><g clip-path="url(#H)"/><g clip-path="url(#I)"/><g clip-path="url(#J)"/><path d="m16 12c-2.206 0-4 1.794-4 4s1.794 4 4 4 4-1.794 4-4-1.794-4-4-4m0 6c-1.103 0-2-.897-2-2s.897-2 2-2 2 .897 2 2-.897 2-2 2"/><path d="m29 18.14v-4.284c1.721-.447 3-1.999 3-3.858 0-2.206-1.794-4-4-4-1.095 0-2.087.443-2.81 1.159l-5.234-2.725c.016-.145.044-.286.044-.434 0-2.206-1.794-4-4-4s-4 1.794-4 4c0 .148.028.289.044.433l-5.233 2.726c-.723-.715-1.716-1.159-2.811-1.159-2.206 0-4 1.794-4 4 0 1.859 1.279 3.411 3 3.858v4.284c-1.721.447-3 1.999-3 3.858 0 2.206 1.794 4 4 4 1.095 0 2.088-.444 2.811-1.159l5.233 2.726c-.016.144-.044.285-.044.433 0 2.206 1.794 4 4 4s4-1.794 4-4c0-.148-.028-.289-.044-.433l5.233-2.726c.723.715 1.716 1.159 2.811 1.159 2.206 0 4-1.794 4-4 0-1.859-1.279-3.411-3-3.858m-1-10.142c1.103 0 2 .897 2 2s-.897 2-2 2-2-.897-2-2 .897-2 2-2m-12-6c1.103 0 2 .897 2 2s-.897 2-2 2-2-.897-2-2 .897-2 2-2m-14 8c0-1.103.897-2 2-2s2 .897 2 2-.897 2-2 2-2-.897-2-2m2 14c-1.103 0-2-.897-2-2s.897-2 2-2 2 .897 2 2-.897 2-2 2m12 6c-1.103 0-2-.897-2-2s.897-2 2-2 2 .897 2 2-.897 2-2 2m0-6c-1.34 0-2.521.667-3.247 1.681l-4.93-2.568c.104-.355.177-.724.177-1.113 0-1.859-1.279-3.411-3-3.858v-4.284c1.721-.447 3-1.999 3-3.858 0-.389-.073-.758-.177-1.113l4.93-2.568c.726 1.014 1.907 1.681 3.247 1.681s2.521-.667 3.247-1.682l4.93 2.567c-.104.357-.177.726-.177 1.115 0 1.859 1.279 3.411 3 3.858v4.284c-1.721.447-3 1.999-3 3.858 0 .389.073.758.177 1.113l-4.93 2.568c-.726-1.014-1.907-1.681-3.247-1.681m12 0c-1.103 0-2-.897-2-2s.897-2 2-2 2 .897 2 2-.897 2-2 2"/></svg>