<svg xmlns="http://www.w3.org/2000/svg" viewBox="0 0 128 128" enable-background="new 0 0 128 128"><path d="m64.01 23c-.003 0-.005 0-.008 0-.001 0-.001 0-.002 0-.001 0-.002 0-.003 0-22.607 0-41 18.393-41 41s18.393 41 41 41c.001 0 .002 0 .003 0 .001 0 .001 0 .002 0 .002 0 .005 0 .008 0 22.602-.008 40.987-18.397 40.987-41s-18.385-40.993-40.987-41m35.983 26h-13.666c-2.392-10.358-7.18-18.665-13.195-22.91 12.158 2.931 22.12 11.565 26.861 22.91m-13.996 15c0 4.558-.447 8.932-1.261 13h-19.739v-26h19.739c.814 4.069 1.261 8.442 1.261 13m-44 0c0-4.557.448-8.931 1.262-13h19.738v26h-19.738c-.814-4.069-1.262-8.443-1.262-13m1.695-15c3.2-13.561 10.602-23.258 19.305-23.955v23.955h-19.305m19.305 30v23.954c-8.703-.697-16.1-10.394-19.305-23.954h19.305m2 0h19.306c-3.2 13.565-10.602 23.264-19.306 23.955v-23.955m0-30v-23.956c8.704.69 16.11 10.39 19.306 23.956h-19.306m-10.125-22.912c-6.02 4.245-10.81 12.552-13.204 22.912h-13.667c4.746-11.348 14.708-19.984 26.871-22.912m-27.639 24.912h14.01c-.803 4.088-1.244 8.456-1.244 13 0 4.544.442 8.912 1.244 13h-14.01c-1.443-4.069-2.236-8.443-2.236-13 0-4.558.793-8.931 2.236-13m.768 28h13.667c2.394 10.359 7.185 18.667 13.204 22.911-12.163-2.928-22.12-11.564-26.871-22.911m45.13 22.909c6.02-4.245 10.803-12.552 13.196-22.909h13.666c-4.745 11.344-14.703 19.979-26.862 22.909m27.63-24.909h-14.01c.803-4.088 1.244-8.457 1.244-13 0-4.543-.441-8.912-1.243-13h14.01c1.443 4.069 2.236 8.442 2.236 13-.001 4.557-.794 8.931-2.237 13"/><path d="m127.88 59.802c-.066-1.178-.175-2.354-.283-3.529l-.118-1.298c-.089-1.05-.75-1.351-1.288-1.418-2.735-.345-5.468-.704-8.202-1.064l-2.705-.355c-1.994-.261-3.274-1.271-3.913-3.089-1.014-2.89-2.095-5.499-3.304-7.975-.841-1.732-.671-3.342.523-4.923.797-1.059 1.607-2.108 2.418-3.158l4.557-5.926c.278-.363.275-.868-.007-1.227-3.953-5.03-8.468-9.542-13.419-13.425-.355-.278-.853-.284-1.215-.015l-2.702 2.068c-2.128 1.639-4.257 3.278-6.392 4.908-1.51 1.153-3.066 1.372-4.62.647-2.738-1.272-5.618-2.465-8.559-3.546-1.57-.578-2.495-1.745-2.75-3.468-.294-1.974-.549-3.954-.803-5.934-.111-.867-.223-1.733-.337-2.598l-.401-3.04c-.063-.474-.453-.837-.931-.866l-9.434-.571c-3.47.005-7.818.148-9.605.617-.314.083-.583.353-.697.658-.026.071-.069.234-.079.309l-.389 2.938c-.353 2.661-.706 5.321-1.039 7.984-.267 2.126-1.316 3.477-3.208 4.127-2.603.894-5.257 1.993-7.889 3.267-1.74.841-3.349.673-4.92-.516-1.419-1.075-2.828-2.162-4.238-3.25l-1.993-1.536c-.872-.673-1.747-1.344-2.641-2.029l-.212-.163c-.363-.278-.869-.274-1.227.008-5.03 3.962-9.545 8.48-13.418 13.429-.277.354-.284.85-.016 1.211.132.179.231.312.33.44l1.988 2.583c1.557 2.02 3.113 4.04 4.659 6.072 1.171 1.537 1.367 3.148.583 4.79-1.286 2.692-2.434 5.461-3.412 8.229-.596 1.687-1.816 2.675-3.627 2.937-3.561.515-7.197.966-10.712 1.403l-.272.034c-.889.108-1.407.655-1.46 1.539-.053.889-.113 1.777-.172 2.666-.119 1.767-.243 3.594-.303 5.402-.096 2.947.055 6.05.485 9.838.103 1.064.771 1.369 1.311 1.436 1.328.167 2.654.342 3.98.518 2.171.286 4.343.573 6.517.826 2.34.274 3.75 1.39 4.439 3.512.753 2.318 1.75 4.718 3.137 7.556.875 1.782.704 3.429-.522 5.04-1.274 1.67-2.555 3.333-3.835 4.995l-3.111 4.047c-.278.363-.275.868.008 1.227 3.949 5.01 8.463 9.528 13.417 13.419.354.278.85.286 1.212.018l2.862-2.188c2.08-1.603 4.161-3.206 6.25-4.797 1.518-1.155 3.103-1.357 4.708-.603 2.784 1.311 5.594 2.476 8.351 3.462 1.63.583 2.593 1.772 2.862 3.536.258 1.688.474 3.385.689 5.08l.843 6.458c.048.365.369.702.713.833.085.032.227.086.386.098l.871.096c.699.078 1.397.156 2.1.21 2.149.157 4.275.236 6.371.236 3.078 0 6.089-.17 9-.508.991-.118 1.279-.777 1.347-1.31.239-1.889.487-3.776.735-5.664.222-1.687.443-3.375.659-5.062.273-2.151 1.312-3.463 3.269-4.129 2.714-.925 5.297-1.998 7.677-3.188 1.827-.91 3.512-.74 5.154.521l8.97 6.892c.304.232.778.238 1.12.068.061-.03.181-.102.234-.144 4.843-3.8 9.252-8.194 13.1-13.06.326-.408.585-1.06-.054-1.878l-1.974-2.561c-1.602-2.076-3.204-4.152-4.783-6.242-1.108-1.47-1.294-3.02-.554-4.595 1.274-2.715 2.45-5.554 3.495-8.437.59-1.631 1.818-2.586 3.651-2.839 2.451-.339 4.906-.656 7.359-.973l2.929-.379c1.564-.206 1.924-.565 2.14-2.133.021-.144.038-.286.05-.423.408-4.063.503-8.153.282-12.157m-72.28-58.01c-.002.027-.005.052-.009.075l.009-.075m70 69.981c-.01.112-.023.22-.04.335-.018.128-.037.265-.054.376-.109.017-.242.034-.365.05l-2.925.379c-2.46.317-4.92.635-7.377.975-2.552.353-4.419 1.823-5.257 4.139-1.024 2.826-2.177 5.608-3.425 8.269-1.05 2.238-.778 4.6.768 6.65 1.583 2.095 3.189 4.177 4.795 6.258l1.779 2.308c-3.563 4.447-7.603 8.482-12 11.995l-8.372-6.434c-2.243-1.723-4.755-1.973-7.265-.724-2.301 1.15-4.801 2.188-7.429 3.084-2.688.914-4.238 2.855-4.609 5.77-.214 1.685-.436 3.37-.657 5.06-.231 1.76-.463 3.521-.688 5.288-4.664.519-9.586.594-14.634.224-.676-.052-1.352-.128-2.026-.204l-.307-.033-.746-5.715c-.217-1.712-.435-3.425-.695-5.13-.377-2.474-1.857-4.292-4.166-5.117-2.696-.965-5.445-2.105-8.172-3.389-2.303-1.083-4.644-.799-6.771.821-2.092 1.593-4.176 3.199-6.259 4.804l-2.216 1.707c-4.396-3.523-8.427-7.555-11.999-12l2.633-3.424c1.282-1.665 2.564-3.33 3.84-5 1.684-2.205 1.936-4.671.729-7.129-1.345-2.75-2.308-5.067-3.03-7.294-.933-2.873-2.988-4.515-6.109-4.88-2.166-.252-4.327-.537-6.488-.822-1.199-.159-2.397-.317-3.597-.469-.394-3.526-.534-6.479-.443-9.274.059-1.774.182-3.584.299-5.334.053-.788.106-1.575.157-2.388 3.525-.438 7.171-.891 10.752-1.408 2.532-.367 4.388-1.876 5.227-4.25.955-2.702 2.076-5.405 3.331-8.03 1.117-2.34.841-4.713-.797-6.864-1.548-2.031-3.107-4.055-4.665-6.08l-1.835-2.385c3.508-4.388 7.538-8.421 11.997-12 .751.576 1.491 1.144 2.229 1.714l1.991 1.535c1.415 1.092 2.828 2.183 4.253 3.262 2.167 1.641 4.587 1.889 6.999.721 2.561-1.239 5.14-2.308 7.668-3.175 2.611-.898 4.182-2.893 4.542-5.77.333-2.658.685-5.314 1.038-7.97l.311-2.361c1.63-.271 4.795-.417 8.413-.426l8.554.52.293 2.22c.114.864.225 1.728.336 2.592.256 1.994.512 3.986.808 5.973.36 2.431 1.793 4.225 4.04 5.05 2.891 1.062 5.719 2.233 8.406 3.482 2.251 1.049 4.56.748 6.678-.87 2.137-1.632 4.267-3.273 6.398-4.914l2.063-1.588c4.392 3.517 8.423 7.549 11.998 12l-4.078 5.302c-.815 1.056-1.631 2.112-2.432 3.176-1.643 2.176-1.893 4.597-.724 7 1.174 2.407 2.226 4.946 3.215 7.762.888 2.527 2.804 4.052 5.541 4.41l2.704.355c2.596.341 5.191.682 7.789 1.01l.088.97c.106 1.151.213 2.303.278 3.456.213 3.901.119 7.886-.281 11.857"/></svg>