<svg xmlns="http://www.w3.org/2000/svg" viewBox="0 0 76 72" enable-background="new 0 0 76 72"><path d="m60 8h-37.14c-.447-1.72-2-3-3.858-3-2.206 0-4 1.794-4 4s1.794 4 4 4c1.858 0 3.411-1.28 3.858-3h37.14c.552 0 1-.448 1-1s-.448-1-1-1m-41 3c-1.103 0-2-.897-2-2s.897-2 2-2 2 .897 2 2-.897 2-2 2"/><path d="M70,58.08V42c0-1.654-1.346-3-3-3H39V18h24.261C66.426,18,69,15.426,69,12.261V5.739C69,2.574,66.426,0,63.261,0H12.739
		C9.574,0,7,2.574,7,5.739v6.522C7,15.426,9.574,18,12.739,18H37v21H9c-1.654,0-3,1.346-3,3v16.08c-3.387,0.487-6,3.4-6,6.92
		c0,3.86,3.14,7,7,7s7-3.14,7-7c0-3.52-2.613-6.433-6-6.92V42c0-0.551,0.449-1,1-1h28v17.08c-3.387,0.487-6,3.4-6,6.92
		c0,3.86,3.14,7,7,7s7-3.14,7-7c0-3.52-2.613-6.433-6-6.92V41h28c0.551,0,1,0.449,1,1v16.08c-3.387,0.487-6,3.4-6,6.92
		c0,3.86,3.14,7,7,7s7-3.14,7-7C76,61.48,73.387,58.567,70,58.08z M9,12.261V5.739C9,3.677,10.677,2,12.739,2h50.522
		C65.323,2,67,3.677,67,5.739v6.522C67,14.323,65.323,16,63.261,16H12.739C10.677,16,9,14.323,9,12.261z M12,65c0,2.757-2.243,5-5,5
		s-5-2.243-5-5s2.243-5,5-5S12,62.243,12,65z M43,65c0,2.757-2.243,5-5,5s-5-2.243-5-5s2.243-5,5-5S43,62.243,43,65z M69,70
		c-2.757,0-5-2.243-5-5s2.243-5,5-5s5,2.243,5,5S71.757,70,69,70z"/></svg>