<svg height="470" viewBox="0 0 256 470" width="256" xmlns="http://www.w3.org/2000/svg"><path d="m1197.88406 373.965467c.65396.301927 1.0564.905782 1.0564 1.559957 0 .503212-.20122.956103-.65396 1.25803l-7.54569 6.088865h35.26351c1.00609 0 1.76066.754818 1.76066 1.761242s-.75457 1.761242-1.76066 1.761242h-35.26351l7.54569 6.088865c.40244.352249.65396.805139.65396 1.25803 0 .654176-.40244 1.25803-1.0564 1.559957-.65396.301928-1.35822.201285-1.91157-.201284l-11.21792-9.007495c-.05031-.050321-.10061-.050321-.15092-.100642l-.1006-.050322-.10061-.150963c-.25153-.301927-.40244-.704497-.40244-1.157388s.15091-.85546.45274-1.157387l.15091-.150964c.05031-.050321.15092-.100642.20122-.150964l11.21792-9.007494c.50305-.452891 1.25762-.503212 1.86127-.201285zm30.18275-30.192719c.65396.301927 1.0564.905781 1.0564 1.559957 0 .503212-.20122.956102-.65396 1.25803l-7.54569 6.088865h35.26351c1.00609 0 1.76066.754818 1.76066 1.761242s-.75457 1.761242-1.76066 1.761242h-35.26351l7.54569 6.088865c.40243.352248.65396.805139.65396 1.25803 0 .654175-.40244 1.25803-1.0564 1.559957s-1.35822.201285-1.91157-.201285l-11.21792-9.007494c-.05031-.050322-.10061-.050322-.15092-.100643l-.10061-.050321-.10061-.150964c-.25152-.301927-.40243-.704496-.40243-1.157387s.15091-.855461.45274-1.157388l.15091-.150963c.05031-.050322.15092-.100643.20122-.150964l11.21792-9.007495c.50305-.45289 1.25762-.503212 1.86127-.201284zm0 60.385438c.65396.301928 1.0564.905782 1.0564 1.559958 0 .503212-.20122.956102-.65396 1.25803l-7.54569 6.088865h35.26351c1.00609 0 1.76066.754818 1.76066 1.761242s-.75457 1.761242-1.76066 1.761242h-35.26351l7.54569 6.088865c.40243.352248.65396.805139.65396 1.25803 0 .654175-.40244 1.25803-1.0564 1.559957s-1.35822.201285-1.91157-.201285l-11.21792-9.007495c-.05031-.050321-.10061-.050321-.15092-.100642l-.10061-.050321-.10061-.150964c-.25152-.301927-.40243-.704497-.40243-1.157387 0-.452891.15091-.855461.45274-1.157388l.15091-.150963c.05031-.050322.15092-.100643.20122-.150964l11.21792-9.007495c.50305-.452891 1.25762-.503212 1.86127-.201285zm-30.18275 78.85332c.65396.301927 1.0564.905781 1.0564 1.559957 0 .503212-.20122.956103-.65396 1.25803l-7.54569 6.088865h35.26351c1.00609 0 1.76066.754818 1.76066 1.761242s-.75457 1.761242-1.76066 1.761242h-35.26351l7.54569 6.088865c.40244.352248.65396.805139.65396 1.25803 0 .654175-.40244 1.25803-1.0564 1.559957s-1.35822.201285-1.91157-.201285l-11.21792-9.007494c-.05031-.050322-.10061-.050322-.15092-.100643l-.1006-.050321-.10061-.150964c-.25153-.301927-.40244-.704496-.40244-1.157387s.15091-.855461.45274-1.157388l.15091-.150963c.05031-.050322.15092-.100643.20122-.150964l11.21792-9.007495c.50305-.402569 1.25762-.503212 1.86127-.201284zm30.18275-30.19272c.65396.301927 1.0564.905782 1.0564 1.559957 0 .503212-.20122.956103-.65396 1.25803l-7.54569 6.088865h35.26351c1.00609 0 1.76066.754818 1.76066 1.761242s-.75457 1.761242-1.76066 1.761242h-35.26351l7.54569 6.088865c.40243.352249.65396.80514.65396 1.25803 0 .654176-.40244 1.25803-1.0564 1.559957-.65396.301928-1.35822.201285-1.91157-.201284l-11.21792-9.007495c-.05031-.050321-.10061-.050321-.15092-.100642l-.10061-.050322-.10061-.150963c-.25152-.301927-.40243-.704497-.40243-1.157388s.15091-.85546.45274-1.157387l.15091-.150964c.05031-.050321.15092-.100642.20122-.150963l11.21792-9.007495c.50305-.40257 1.25762-.503212 1.86127-.201285zm0 60.385439c.65396.301927 1.0564.905782 1.0564 1.559957 0 .503212-.20122.956103-.65396 1.25803l-7.54569 6.088865h35.26351c1.00609 0 1.76066.754818 1.76066 1.761242s-.75457 1.761242-1.76066 1.761242h-35.26351l7.54569 6.088865c.40243.352249.65396.80514.65396 1.25803 0 .654176-.40244 1.25803-1.0564 1.559957-.65396.301928-1.35822.201285-1.91157-.201284l-11.21792-9.007495c-.05031-.050321-.10061-.050321-.15092-.100642l-.10061-.050322-.10061-.150963c-.25152-.301927-.40243-.704497-.40243-1.157388s.15091-.85546.45274-1.157387l.15091-.150964c.05031-.050321.15092-.100642.20122-.150964l11.21792-9.007494c.50305-.40257 1.25762-.503212 1.86127-.201285zm-30.18275 30.343683c.65396.301927 1.0564.905782 1.0564 1.559957 0 .503212-.20122.956103-.65396 1.25803l-7.54569 6.088865h35.26351c1.00609 0 1.76066.754818 1.76066 1.761242s-.75457 1.761242-1.76066 1.761242h-35.26351l7.54569 6.088865c.40244.352249.65396.80514.65396 1.25803 0 .654176-.40244 1.25803-1.0564 1.559958-.65396.301927-1.35822.201284-1.91157-.201285l-11.21792-9.007495c-.05031-.050321-.10061-.050321-.15092-.100642l-.1006-.050321-.10061-.150964c-.25153-.301927-.40244-.704497-.40244-1.157388 0-.45289.15091-.85546.45274-1.157387l.15091-.150964c.05031-.050321.15092-.100642.20122-.150963l11.21792-9.007495c.50305-.452891 1.25762-.503212 1.86127-.201285zm30.18275 30.19272c.65396.301927 1.0564.905781 1.0564 1.559957 0 .503212-.20122.956103-.65396 1.25803l-7.54569 6.088865h35.26351c1.00609 0 1.76066.754818 1.76066 1.761242s-.75457 1.761242-1.76066 1.761242h-35.26351l7.54569 6.088865c.40243.352248.65396.805139.65396 1.25803 0 .654175-.40244 1.25803-1.0564 1.559957s-1.35822.201285-1.91157-.201285l-11.21792-9.007494c-.05031-.050322-.10061-.050322-.15092-.100643l-.10061-.050321-.10061-.150964c-.25152-.301927-.40243-.704496-.40243-1.157387s.15091-.855461.45274-1.157388l.15091-.150963c.05031-.050322.15092-.100643.20122-.150964l11.21792-9.007495c.50305-.45289 1.25762-.503212 1.86127-.201284zm0 48.660599c.65396.301927 1.0564.905782 1.0564 1.559957 0 .503212-.20122.956103-.65396 1.25803l-7.54569 6.088865h35.26351c1.00609 0 1.76066.754818 1.76066 1.761242s-.75457 1.761242-1.76066 1.761242h-35.26351l7.54569 6.088865c.40243.352249.65396.80514.65396 1.25803 0 .654176-.40244 1.25803-1.0564 1.559958-.65396.301927-1.35822.201284-1.91157-.201285l-11.21792-9.007495c-.05031-.050321-.10061-.050321-.15092-.100642l-.10061-.050321-.10061-.150964c-.25152-.301927-.40243-.704497-.40243-1.157388 0-.45289.15091-.85546.45274-1.157387l.15091-.150964c.05031-.050321.15092-.100642.20122-.150963l11.21792-9.007495c.50305-.40257 1.25762-.503212 1.86127-.201285zm-30.18275-418.018201c.65396.301927 1.0564.905781 1.0564 1.559957 0 .503212-.20122.956103-.65396 1.25803l-7.54569 6.088865h35.26351c1.00609 0 1.76066.754818 1.76066 1.761242s-.75457 1.761242-1.76066 1.761242h-35.26351l7.54569 6.088865c.40244.352249.65396.805139.65396 1.25803 0 .654176-.40244 1.25803-1.0564 1.559957-.65396.301928-1.35822.201285-1.91157-.201284l-11.21792-9.007495c-.05031-.050321-.10061-.050321-.15092-.100643l-.1006-.050321-.10061-.150963c-.25153-.301928-.40244-.704497-.40244-1.157388s.15091-.85546.45274-1.157387l.15091-.150964c.05031-.050321.15092-.100642.20122-.150964l11.21792-9.007494c.50305-.452891 1.25762-.503212 1.86127-.201285zm30.18275-30.19272c.65396.301928 1.0564.905782 1.0564 1.559958 0 .503212-.20122.956102-.65396 1.25803l-7.54569 6.088865h35.26351c1.00609 0 1.76066.754818 1.76066 1.761242s-.75457 1.761242-1.76066 1.761242h-35.26351l7.54569 6.088865c.40243.352248.65396.805139.65396 1.25803 0 .654175-.40244 1.25803-1.0564 1.559957s-1.35822.201285-1.91157-.201285l-11.21792-9.007495c-.05031-.050321-.10061-.050321-.15092-.100642l-.10061-.050321-.10061-.150964c-.25152-.301927-.40243-.704497-.40243-1.157387 0-.452891.15091-.855461.45274-1.157388l.15091-.150964c.05031-.050321.15092-.100642.20122-.150963l11.16762-9.007495c.55335-.452891 1.30792-.503212 1.91157-.201285zm0 60.385439c.65396.301928 1.0564.905782 1.0564 1.559958 0 .503212-.20122.956102-.65396 1.25803l-7.54569 6.088865h35.26351c1.00609 0 1.76066.754818 1.76066 1.761242s-.75457 1.761242-1.76066 1.761242h-35.26351l7.54569 6.088865c.40243.352248.65396.805139.65396 1.25803 0 .654175-.40244 1.25803-1.0564 1.559957s-1.35822.201285-1.91157-.201285l-11.21792-9.007495c-.05031-.050321-.10061-.050321-.15092-.100642l-.10061-.050321-.10061-.150964c-.25152-.301927-.40243-.704497-.40243-1.157387 0-.452891.15091-.855461.45274-1.157388l.15091-.150964c.05031-.050321.15092-.100642.20122-.150963l11.21792-9.007495c.50305-.452891 1.25762-.503212 1.86127-.201285zm-30.18275 78.853319c.65396.301928 1.0564.905782 1.0564 1.559958 0 .503212-.20122.956102-.65396 1.25803l-7.54569 6.088865h35.26351c1.00609 0 1.76066.754818 1.76066 1.761242s-.75457 1.761242-1.76066 1.761242h-35.26351l7.54569 6.088865c.40244.352248.65396.805139.65396 1.25803 0 .654175-.40244 1.25803-1.0564 1.559957s-1.35822.201285-1.91157-.201285l-11.21792-9.007495c-.05031-.050321-.10061-.050321-.15092-.100642l-.1006-.050321-.10061-.150964c-.25153-.301927-.40244-.704497-.40244-1.157387 0-.452891.15091-.855461.45274-1.157388l.15091-.150964c.05031-.050321.15092-.100642.20122-.150963l11.21792-9.007495c.50305-.402569 1.25762-.503212 1.86127-.201285zm30.18275-30.192719c.65396.301927 1.0564.905782 1.0564 1.559957 0 .503212-.20122.956103-.65396 1.25803l-7.54569 6.088865h35.26351c1.00609 0 1.76066.754818 1.76066 1.761242s-.75457 1.761242-1.76066 1.761242h-35.26351l7.54569 6.088865c.40243.352249.65396.805139.65396 1.25803 0 .654176-.40244 1.25803-1.0564 1.559957-.65396.301928-1.35822.201285-1.91157-.201284l-11.21792-9.007495c-.05031-.050321-.10061-.050321-.15092-.100642l-.10061-.050322-.10061-.150963c-.25152-.301927-.40243-.704497-.40243-1.157388s.15091-.85546.45274-1.157387l.15091-.150964c.05031-.050321.15092-.100642.20122-.150964l11.21792-9.007494c.50305-.40257 1.25762-.503212 1.86127-.201285zm35.21321 145.277302c.65396.301927 1.05639.905781 1.05639 1.559957 0 .503212-.20122.956103-.65396 1.25803l-7.54568 6.088865h35.26351c1.00609 0 1.76066.754818 1.76066 1.761242s-.75457 1.761242-1.76066 1.761242h-35.26351l7.54568 6.088865c.40244.352249.65396.805139.65396 1.25803 0 .654176-.40243 1.25803-1.05639 1.559957-.65396.301928-1.35823.201285-1.91158-.201284l-11.21792-9.007495c-.0503-.050321-.10061-.050321-.15091-.100643l-.10061-.050321-.10061-.150963c-.25152-.301928-.40244-.704497-.40244-1.157388s.15092-.85546.45274-1.157387l.15092-.150964c.0503-.050321.15091-.100642.20122-.150964l11.21792-9.007494c.45274-.452891 1.20731-.553534 1.86127-.201285zm81.99646-54.54818c.65396.301927 1.05639.905782 1.05639 1.559957 0 .503212-.20121.956103-.65395 1.25803l-7.54569 6.088865h35.26351c1.00609 0 1.76066.754818 1.76066 1.761242s-.75457 1.761242-1.76066 1.761242h-35.26351l7.54569 6.088865c.40243.352249.65395.805139.65395 1.25803 0 .654176-.40243 1.25803-1.05639 1.559957-.65396.301928-1.35822.201285-1.91158-.201284l-11.21792-9.007495c-.0503-.050321-.10061-.050321-.15091-.100642l-.10061-.050322-.10061-.150963c-.25152-.301927-.40243-.704497-.40243-1.157388s.15091-.85546.45274-1.157387l.15091-.150964c.0503-.050321.15091-.100642.20122-.150964l11.21792-9.007494c.50305-.452891 1.25761-.503212 1.86127-.201285zm30.18275-30.192719c.65396.301927 1.05639.905781 1.05639 1.559957 0 .503212-.20122.956102-.65396 1.25803l-7.54568 6.088865h35.26351c1.00609 0 1.76066.754818 1.76066 1.761242s-.75457 1.761242-1.76066 1.761242h-35.26351l7.54568 6.088865c.40244.352248.65396.805139.65396 1.25803 0 .654175-.40243 1.25803-1.05639 1.559957s-1.35823.201285-1.91158-.201285l-11.21792-9.007494c-.0503-.050322-.10061-.050322-.15091-.100643l-.10061-.050321-.10061-.150964c-.25152-.301927-.40244-.704496-.40244-1.157387s.15092-.855461.45274-1.157388l.15092-.150963c.0503-.050322.15091-.100643.20122-.150964l11.21792-9.007495c.50304-.45289 1.25761-.503212 1.86127-.201284zm0 60.385438c.65396.301928 1.05639.905782 1.05639 1.559958 0 .503212-.20122.956102-.65396 1.25803l-7.54568 6.088865h35.26351c1.00609 0 1.76066.754818 1.76066 1.761242s-.75457 1.761242-1.76066 1.761242h-35.26351l7.54568 6.088865c.40244.352248.65396.805139.65396 1.25803 0 .654175-.40243 1.25803-1.05639 1.559957s-1.35823.201285-1.91158-.201285l-11.21792-9.007495c-.0503-.050321-.10061-.050321-.15091-.100642l-.10061-.050321-.10061-.150964c-.25152-.301927-.40244-.704497-.40244-1.157387 0-.452891.15092-.855461.45274-1.157388l.15092-.150963c.0503-.050322.15091-.100643.20122-.150964l11.21792-9.007495c.50304-.452891 1.25761-.503212 1.86127-.201285zm-112.17921-30.192719c.65396.301927 1.05639.905782 1.05639 1.559957 0 .503212-.20122.956103-.65396 1.25803l-7.54568 6.088865h35.26351c1.00609 0 1.76066.754818 1.76066 1.761242s-.75457 1.761242-1.76066 1.761242h-35.26351l7.54568 6.088865c.40244.352249.65396.805139.65396 1.25803 0 .654176-.40243 1.25803-1.05639 1.559957-.65396.301928-1.35823.201285-1.91158-.201284l-11.21792-9.007495c-.0503-.050321-.10061-.050321-.15091-.100642l-.10061-.050322-.10061-.150963c-.25152-.301927-.40244-.704497-.40244-1.157388s.15092-.85546.45274-1.157387l.15092-.150964c.0503-.050321.15091-.100642.20122-.150964l11.21792-9.007494c.45274-.452891 1.20731-.503212 1.86127-.201285zm35.2132-30.192719c.65396.301927 1.0564.905781 1.0564 1.559957 0 .503212-.20122.956102-.65396 1.25803l-7.54569 6.088865h35.26351c1.00609 0 1.76066.754818 1.76066 1.761242s-.75457 1.761242-1.76066 1.761242h-35.26351l7.54569 6.088865c.40243.352248.65396.805139.65396 1.25803 0 .654175-.40244 1.25803-1.0564 1.559957s-1.35822.201285-1.91157-.201285l-11.21792-9.007494c-.05031-.050322-.10061-.050322-.15092-.100643l-.10061-.050321-.10061-.150964c-.25152-.301927-.40243-.704496-.40243-1.157387s.15091-.855461.45274-1.157388l.15091-.150963c.05031-.050322.15092-.100643.20122-.150964l11.21792-9.007495c.45274-.45289 1.20731-.503212 1.86127-.201284zm0 60.385438c.65396.301928 1.0564.905782 1.0564 1.559958 0 .503212-.20122.956102-.65396 1.25803l-7.54569 6.088865h35.26351c1.00609 0 1.76066.754818 1.76066 1.761242s-.75457 1.761242-1.76066 1.761242h-35.26351l7.54569 6.088865c.40243.352248.65396.805139.65396 1.25803 0 .654175-.40244 1.25803-1.0564 1.559957s-1.35822.201285-1.91157-.201285l-11.21792-9.007495c-.05031-.050321-.10061-.050321-.15092-.100642l-.10061-.050321-.10061-.150964c-.25152-.301927-.40243-.704497-.40243-1.157387 0-.452891.15091-.855461.45274-1.157388l.15091-.150963c.05031-.050322.15092-.100643.20122-.150964l11.21792-9.007495c.45274-.452891 1.20731-.503212 1.86127-.201285zm46.78326 78.85332c.65396.301927 1.05639.905781 1.05639 1.559957 0 .503212-.20121.956103-.65395 1.25803l-7.54569 6.088865h35.26351c1.00609 0 1.76066.754818 1.76066 1.761242s-.75457 1.761242-1.76066 1.761242h-35.26351l7.54569 6.088865c.40243.352248.65395.805139.65395 1.25803 0 .654175-.40243 1.25803-1.05639 1.559957s-1.35822.201285-1.91158-.201285l-11.21792-9.007494c-.0503-.050322-.10061-.050322-.15091-.100643l-.10061-.050321-.10061-.150964c-.25152-.301927-.40243-.704496-.40243-1.157387s.15091-.855461.45274-1.157388l.15091-.150963c.0503-.050322.15091-.100643.20122-.150964l11.21792-9.007495c.50305-.402569 1.25761-.503212 1.86127-.201284zm30.18275-30.19272c.65396.301927 1.05639.905782 1.05639 1.559957 0 .503212-.20122.956103-.65396 1.25803l-7.54568 6.088865h35.26351c1.00609 0 1.76066.754818 1.76066 1.761242s-.75457 1.761242-1.76066 1.761242h-35.26351l7.54568 6.088865c.40244.352249.65396.80514.65396 1.25803 0 .654176-.40243 1.25803-1.05639 1.559957-.65396.301928-1.35823.201285-1.91158-.201284l-11.21792-9.007495c-.0503-.050321-.10061-.050321-.15091-.100642l-.10061-.050322-.10061-.150963c-.25152-.301927-.40244-.704497-.40244-1.157388s.15092-.85546.45274-1.157387l.15092-.150964c.0503-.050321.15091-.100642.20122-.150963l11.21792-9.007495c.50304-.40257 1.25761-.503212 1.86127-.201285zm0 60.385439c.65396.301927 1.05639.905782 1.05639 1.559957 0 .503212-.20122.956103-.65396 1.25803l-7.54568 6.088865h35.26351c1.00609 0 1.76066.754818 1.76066 1.761242s-.75457 1.761242-1.76066 1.761242h-35.26351l7.54568 6.088865c.40244.352249.65396.80514.65396 1.25803 0 .654176-.40243 1.25803-1.05639 1.559957-.65396.301928-1.35823.201285-1.91158-.201284l-11.21792-9.007495c-.0503-.050321-.10061-.050321-.15091-.100642l-.10061-.050322-.10061-.150963c-.25152-.301927-.40244-.704497-.40244-1.157388s.15092-.85546.45274-1.157387l.15092-.150964c.0503-.050321.15091-.100642.20122-.150964l11.21792-9.007494c.50304-.40257 1.25761-.503212 1.86127-.201285zm-112.17921-30.192719c.65396.301927 1.05639.905781 1.05639 1.559957 0 .503212-.20122.956103-.65396 1.25803l-7.54568 6.088865h35.26351c1.00609 0 1.76066.754818 1.76066 1.761242s-.75457 1.761242-1.76066 1.761242h-35.26351l7.54568 6.088865c.40244.352248.65396.805139.65396 1.25803 0 .654175-.40243 1.25803-1.05639 1.559957s-1.35823.201285-1.91158-.201285l-11.21792-9.007494c-.0503-.050322-.10061-.050322-.15091-.100643l-.10061-.050321-.10061-.150964c-.25152-.301927-.40244-.704496-.40244-1.157387s.15092-.855461.45274-1.157388l.15092-.150963c.0503-.050322.15091-.100643.20122-.150964l11.21792-9.007495c.45274-.402569 1.20731-.503212 1.86127-.201284zm35.2132-30.19272c.65396.301927 1.0564.905782 1.0564 1.559957 0 .503212-.20122.956103-.65396 1.25803l-7.54569 6.088865h35.26351c1.00609 0 1.76066.754818 1.76066 1.761242s-.75457 1.761242-1.76066 1.761242h-35.26351l7.54569 6.088865c.40243.352249.65396.80514.65396 1.25803 0 .654176-.40244 1.25803-1.0564 1.559957-.65396.301928-1.35822.201285-1.91157-.201284l-11.21792-9.007495c-.05031-.050321-.10061-.050321-.15092-.100642l-.10061-.050322-.10061-.150963c-.25152-.301927-.40243-.704497-.40243-1.157388s.15091-.85546.45274-1.157387l.15091-.150964c.05031-.050321.15092-.100642.20122-.150963l11.21792-9.007495c.45274-.40257 1.20731-.503212 1.86127-.201285zm0 60.385439c.65396.301927 1.0564.905782 1.0564 1.559957 0 .503212-.20122.956103-.65396 1.25803l-7.54569 6.088865h35.26351c1.00609 0 1.76066.754818 1.76066 1.761242s-.75457 1.761242-1.76066 1.761242h-35.26351l7.54569 6.088865c.40243.352249.65396.80514.65396 1.25803 0 .654176-.40244 1.25803-1.0564 1.559957-.65396.301928-1.35822.201285-1.91157-.201284l-11.21792-9.007495c-.05031-.050321-.10061-.050321-.15092-.100642l-.10061-.050322-.10061-.150963c-.25152-.301927-.40243-.704497-.40243-1.157388s.15091-.85546.45274-1.157387l.15091-.150964c.05031-.050321.15092-.100642.20122-.150964l11.21792-9.007494c.45274-.40257 1.20731-.503212 1.86127-.201285zm-35.2132 84.891863c.65396.301927 1.05639.905782 1.05639 1.559957 0 .503212-.20122.956103-.65396 1.25803l-7.54568 6.088865h35.26351c1.00609 0 1.76066.754818 1.76066 1.761242s-.75457 1.761242-1.76066 1.761242h-35.26351l7.54568 6.088865c.40244.352249.65396.805139.65396 1.25803 0 .654176-.40243 1.25803-1.05639 1.559957-.65396.301928-1.35823.201285-1.91158-.201284l-11.21792-9.007495c-.0503-.050321-.10061-.050321-.15091-.100642l-.10061-.050322-.10061-.150963c-.25152-.301927-.40244-.704497-.40244-1.157388s.15092-.85546.45274-1.157387l.15092-.150964c.0503-.050321.15091-.100642.20122-.150964l11.21792-9.007494c.45274-.452891 1.20731-.553533 1.86127-.201285zm81.99646-54.54818c.65396.301927 1.05639.905782 1.05639 1.559957 0 .503212-.20121.956103-.65395 1.25803l-7.54569 6.088865h35.26351c1.00609 0 1.76066.754818 1.76066 1.761242s-.75457 1.761242-1.76066 1.761242h-35.26351l7.54569 6.088865c.40243.352249.65395.80514.65395 1.25803 0 .654176-.40243 1.25803-1.05639 1.559958-.65396.301927-1.35822.201284-1.91158-.201285l-11.21792-9.007495c-.0503-.050321-.10061-.050321-.15091-.100642l-.10061-.050321-.10061-.150964c-.25152-.301927-.40243-.704497-.40243-1.157388 0-.45289.15091-.85546.45274-1.157387l.15091-.150964c.0503-.050321.15091-.100642.20122-.150963l11.21792-9.007495c.50305-.452891 1.25761-.503212 1.86127-.201285zm30.18275 30.19272c.65396.301927 1.05639.905781 1.05639 1.559957 0 .503212-.20122.956103-.65396 1.25803l-7.54568 6.088865h35.26351c1.00609 0 1.76066.754818 1.76066 1.761242s-.75457 1.761242-1.76066 1.761242h-35.26351l7.54568 6.088865c.40244.352248.65396.805139.65396 1.25803 0 .654175-.40243 1.25803-1.05639 1.559957s-1.35823.201285-1.91158-.201285l-11.21792-9.007494c-.0503-.050322-.10061-.050322-.15091-.100643l-.10061-.050321-.10061-.150964c-.25152-.301927-.40244-.704496-.40244-1.157387s.15092-.855461.45274-1.157388l.15092-.150963c.0503-.050322.15091-.100643.20122-.150964l11.21792-9.007495c.50304-.45289 1.25761-.503212 1.86127-.201284zm-112.17921-30.19272c.65396.301927 1.05639.905782 1.05639 1.559957 0 .503212-.20122.956103-.65396 1.25803l-7.54568 6.088865h35.26351c1.00609 0 1.76066.754818 1.76066 1.761242s-.75457 1.761242-1.76066 1.761242h-35.26351l7.54568 6.088865c.40244.352249.65396.80514.65396 1.25803 0 .654176-.40243 1.25803-1.05639 1.559958-.65396.301927-1.35823.201284-1.91158-.201285l-11.21792-9.007495c-.0503-.050321-.10061-.050321-.15091-.100642l-.10061-.050321-.10061-.150964c-.25152-.301927-.40244-.704497-.40244-1.157388 0-.45289.15092-.85546.45274-1.157387l.15092-.150964c.0503-.050321.15091-.100642.20122-.150963l11.21792-9.007495c.45274-.452891 1.20731-.503212 1.86127-.201285zm35.2132 30.19272c.65396.301927 1.0564.905781 1.0564 1.559957 0 .503212-.20122.956103-.65396 1.25803l-7.54569 6.088865h35.26351c1.00609 0 1.76066.754818 1.76066 1.761242s-.75457 1.761242-1.76066 1.761242h-35.26351l7.54569 6.088865c.40243.352248.65396.805139.65396 1.25803 0 .654175-.40244 1.25803-1.0564 1.559957s-1.35822.201285-1.91157-.201285l-11.21792-9.007494c-.05031-.050322-.10061-.050322-.15092-.100643l-.10061-.050321-.10061-.150964c-.25152-.301927-.40243-.704496-.40243-1.157387s.15091-.855461.45274-1.157388l.15091-.150963c.05031-.050322.15092-.100643.20122-.150964l11.21792-9.007495c.45274-.45289 1.20731-.503212 1.86127-.201284zm76.96601 48.660599c.65396.301927 1.05639.905782 1.05639 1.559957 0 .503212-.20122.956103-.65396 1.25803l-7.54568 6.088865h35.26351c1.00609 0 1.76066.754818 1.76066 1.761242s-.75457 1.761242-1.76066 1.761242h-35.26351l7.54568 6.088865c.40244.352249.65396.80514.65396 1.25803 0 .654176-.40243 1.25803-1.05639 1.559958-.65396.301927-1.35823.201284-1.91158-.201285l-11.21792-9.007495c-.0503-.050321-.10061-.050321-.15091-.100642l-.10061-.050321-.10061-.150964c-.25152-.301927-.40244-.704497-.40244-1.157388 0-.45289.15092-.85546.45274-1.157387l.15092-.150964c.0503-.050321.15091-.100642.20122-.150963l11.21792-9.007495c.50304-.40257 1.25761-.503212 1.86127-.201285zm-76.96601 0c.65396.301927 1.0564.905782 1.0564 1.559957 0 .503212-.20122.956103-.65396 1.25803l-7.54569 6.088865h35.26351c1.00609 0 1.76066.754818 1.76066 1.761242s-.75457 1.761242-1.76066 1.761242h-35.26351l7.54569 6.088865c.40243.352249.65396.80514.65396 1.25803 0 .654176-.40244 1.25803-1.0564 1.559958-.65396.301927-1.35822.201284-1.91157-.201285l-11.21792-9.007495c-.05031-.050321-.10061-.050321-.15092-.100642l-.10061-.050321-.10061-.150964c-.25152-.301927-.40243-.704497-.40243-1.157388 0-.45289.15091-.85546.45274-1.157387l.15091-.150964c.05031-.050321.15092-.100642.20122-.150963l11.21792-9.007495c.45274-.40257 1.20731-.503212 1.86127-.201285zm-35.2132-363.470021c.65396.301927 1.05639.905781 1.05639 1.559957 0 .503212-.20122.956103-.65396 1.25803l-7.54568 6.088865h35.26351c1.00609 0 1.76066.754818 1.76066 1.761242s-.75457 1.761242-1.76066 1.761242h-35.26351l7.54568 6.088865c.40244.352248.65396.805139.65396 1.25803 0 .654176-.40243 1.25803-1.05639 1.559957s-1.35823.201285-1.91158-.201285l-11.21792-9.007494c-.0503-.050321-.10061-.050321-.15091-.100643l-.10061-.050321-.10061-.150963c-.25152-.301928-.40244-.704497-.40244-1.157388s.15092-.85546.45274-1.157388l.15092-.150963c.0503-.050321.15091-.100643.20122-.150964l11.21792-9.007494c.45274-.452891 1.20731-.553534 1.86127-.201285zm81.99646-54.54818c.65396.301927 1.05639.905781 1.05639 1.559957 0 .503212-.20121.956103-.65395 1.25803l-7.54569 6.088865h35.26351c1.00609 0 1.76066.754818 1.76066 1.761242s-.75457 1.761242-1.76066 1.761242h-35.26351l7.54569 6.088865c.40243.352249.65395.805139.65395 1.25803 0 .654176-.40243 1.25803-1.05639 1.559957-.65396.301928-1.35822.201285-1.91158-.201284l-11.21792-9.007495c-.0503-.050321-.10061-.050321-.15091-.100643l-.10061-.050321-.10061-.150963c-.25152-.301928-.40243-.704497-.40243-1.157388s.15091-.85546.45274-1.157387l.15091-.150964c.0503-.050321.15091-.100642.20122-.150964l11.21792-9.007494c.50305-.452891 1.25761-.503212 1.86127-.201285zm30.18275-30.19272c.65396.301928 1.05639.905782 1.05639 1.559958 0 .503212-.20122.956102-.65396 1.25803l-7.54568 6.088865h35.26351c1.00609 0 1.76066.754818 1.76066 1.761242s-.75457 1.761242-1.76066 1.761242h-35.26351l7.54568 6.088865c.40244.352248.65396.805139.65396 1.25803 0 .654175-.40243 1.25803-1.05639 1.559957s-1.35823.201285-1.91158-.201285l-11.21792-9.007495c-.0503-.050321-.10061-.050321-.15091-.100642l-.10061-.050321-.10061-.150964c-.25152-.301927-.40244-.704497-.40244-1.157387 0-.452891.15092-.855461.45274-1.157388l.15092-.150964c.0503-.050321.15091-.100642.20122-.150963l11.16761-9.007495c.55335-.452891 1.30792-.503212 1.91158-.201285zm0 60.385439c.65396.301928 1.05639.905782 1.05639 1.559958 0 .503212-.20122.956102-.65396 1.25803l-7.54568 6.088865h35.26351c1.00609 0 1.76066.754818 1.76066 1.761242s-.75457 1.761242-1.76066 1.761242h-35.26351l7.54568 6.088865c.40244.352248.65396.805139.65396 1.25803 0 .654175-.40243 1.25803-1.05639 1.559957s-1.35823.201285-1.91158-.201285l-11.21792-9.007495c-.0503-.050321-.10061-.050321-.15091-.100642l-.10061-.050321-.10061-.150964c-.25152-.301927-.40244-.704497-.40244-1.157387 0-.452891.15092-.855461.45274-1.157388l.15092-.150964c.0503-.050321.15091-.100642.20122-.150963l11.21792-9.007495c.50304-.452891 1.25761-.503212 1.86127-.201285zm-112.17921-30.192719c.65396.301927 1.05639.905781 1.05639 1.559957 0 .503212-.20122.956103-.65396 1.25803l-7.54568 6.088865h35.26351c1.00609 0 1.76066.754818 1.76066 1.761242s-.75457 1.761242-1.76066 1.761242h-35.26351l7.54568 6.088865c.40244.352249.65396.805139.65396 1.25803 0 .654176-.40243 1.25803-1.05639 1.559957-.65396.301928-1.35823.201285-1.91158-.201284l-11.21792-9.007495c-.0503-.050321-.10061-.050321-.15091-.100643l-.10061-.050321-.10061-.150963c-.25152-.301928-.40244-.704497-.40244-1.157388s.15092-.85546.45274-1.157387l.15092-.150964c.0503-.050321.15091-.100642.20122-.150964l11.21792-9.007494c.45274-.452891 1.20731-.503212 1.86127-.201285zm35.2132-30.19272c.65396.301928 1.0564.905782 1.0564 1.559958 0 .503212-.20122.956102-.65396 1.25803l-7.54569 6.088865h35.26351c1.00609 0 1.76066.754818 1.76066 1.761242s-.75457 1.761242-1.76066 1.761242h-35.26351l7.54569 6.088865c.40243.352248.65396.805139.65396 1.25803 0 .654175-.40244 1.25803-1.0564 1.559957s-1.35822.201285-1.91157-.201285l-11.21792-9.007495c-.05031-.050321-.10061-.050321-.15092-.100642l-.10061-.050321-.10061-.150964c-.25152-.301927-.40243-.704497-.40243-1.157387 0-.452891.15091-.855461.45274-1.157388l.15091-.150964c.05031-.050321.15092-.100642.20122-.150963l11.16762-9.007495c.50304-.452891 1.25761-.503212 1.91157-.201285zm0 60.385439c.65396.301928 1.0564.905782 1.0564 1.559958 0 .503212-.20122.956102-.65396 1.25803l-7.54569 6.088865h35.26351c1.00609 0 1.76066.754818 1.76066 1.761242s-.75457 1.761242-1.76066 1.761242h-35.26351l7.54569 6.088865c.40243.352248.65396.805139.65396 1.25803 0 .654175-.40244 1.25803-1.0564 1.559957s-1.35822.201285-1.91157-.201285l-11.21792-9.007495c-.05031-.050321-.10061-.050321-.15092-.100642l-.10061-.050321-.10061-.150964c-.25152-.301927-.40243-.704497-.40243-1.157387 0-.452891.15091-.855461.45274-1.157388l.15091-.150964c.05031-.050321.15092-.100642.20122-.150963l11.21792-9.007495c.45274-.452891 1.20731-.503212 1.86127-.201285zm46.78326 78.853319c.65396.301928 1.05639.905782 1.05639 1.559958 0 .503212-.20121.956102-.65395 1.25803l-7.54569 6.088865h35.26351c1.00609 0 1.76066.754818 1.76066 1.761242s-.75457 1.761242-1.76066 1.761242h-35.26351l7.54569 6.088865c.40243.352248.65395.805139.65395 1.25803 0 .654175-.40243 1.25803-1.05639 1.559957s-1.35822.201285-1.91158-.201285l-11.21792-9.007495c-.0503-.050321-.10061-.050321-.15091-.100642l-.10061-.050321-.10061-.150964c-.25152-.301927-.40243-.704497-.40243-1.157387 0-.452891.15091-.855461.45274-1.157388l.15091-.150964c.0503-.050321.15091-.100642.20122-.150963l11.21792-9.007495c.50305-.402569 1.25761-.503212 1.86127-.201285zm30.18275-30.192719c.65396.301927 1.05639.905782 1.05639 1.559957 0 .503212-.20122.956103-.65396 1.25803l-7.54568 6.088865h35.26351c1.00609 0 1.76066.754818 1.76066 1.761242s-.75457 1.761242-1.76066 1.761242h-35.26351l7.54568 6.088865c.40244.352249.65396.805139.65396 1.25803 0 .654176-.40243 1.25803-1.05639 1.559957-.65396.301928-1.35823.201285-1.91158-.201284l-11.21792-9.007495c-.0503-.050321-.10061-.050321-.15091-.100642l-.10061-.050322-.10061-.150963c-.25152-.301927-.40244-.704497-.40244-1.157388s.15092-.85546.45274-1.157387l.15092-.150964c.0503-.050321.15091-.100642.20122-.150964l11.21792-9.007494c.50304-.40257 1.25761-.503212 1.86127-.201285zm-112.17921 30.192719c.65396.301928 1.05639.905782 1.05639 1.559958 0 .503212-.20122.956102-.65396 1.25803l-7.54568 6.088865h35.26351c1.00609 0 1.76066.754818 1.76066 1.761242s-.75457 1.761242-1.76066 1.761242h-35.26351l7.54568 6.088865c.40244.352248.65396.805139.65396 1.25803 0 .654175-.40243 1.25803-1.05639 1.559957s-1.35823.201285-1.91158-.201285l-11.21792-9.007495c-.0503-.050321-.10061-.050321-.15091-.100642l-.10061-.050321-.10061-.150964c-.25152-.301927-.40244-.704497-.40244-1.157387 0-.452891.15092-.855461.45274-1.157388l.15092-.150964c.0503-.050321.15091-.100642.20122-.150963l11.21792-9.007495c.45274-.402569 1.20731-.503212 1.86127-.201285zm35.2132-30.192719c.65396.301927 1.0564.905782 1.0564 1.559957 0 .503212-.20122.956103-.65396 1.25803l-7.54569 6.088865h35.26351c1.00609 0 1.76066.754818 1.76066 1.761242s-.75457 1.761242-1.76066 1.761242h-35.26351l7.54569 6.088865c.40243.352249.65396.805139.65396 1.25803 0 .654176-.40244 1.25803-1.0564 1.559957-.65396.301928-1.35822.201285-1.91157-.201284l-11.21792-9.007495c-.05031-.050321-.10061-.050321-.15092-.100642l-.10061-.050322-.10061-.150963c-.25152-.301927-.40243-.704497-.40243-1.157388s.15091-.85546.45274-1.157387l.15091-.150964c.05031-.050321.15092-.100642.20122-.150964l11.21792-9.007494c.45274-.40257 1.20731-.503212 1.86127-.201285zm111.67616 145.277302c.65396.301927 1.0564.905781 1.0564 1.559957 0 .503212-.20122.956103-.65396 1.25803l-7.54569 6.088865h35.21321c1.00609 0 1.76066.754818 1.76066 1.761242s-.75457 1.761242-1.76066 1.761242h-35.26351l7.54569 6.088865c.40243.352249.65396.805139.65396 1.25803 0 .654176-.40244 1.25803-1.0564 1.559957-.65396.301928-1.35822.201285-1.91157-.201284l-11.21792-9.007495c-.05031-.050321-.10061-.050321-.15092-.100643l-.10061-.050321-.10061-.150963c-.25152-.301928-.40243-.704497-.40243-1.157388s.15091-.85546.45274-1.157387l.15091-.150964c.05031-.050321.15092-.100642.20122-.150964l11.21792-9.007494c.50305-.452891 1.25762-.553534 1.91157-.201285zm0-54.54818c.65396.301927 1.0564.905782 1.0564 1.559957 0 .503212-.20122.956103-.65396 1.25803l-7.54569 6.088865h35.21321c1.00609 0 1.76066.754818 1.76066 1.761242s-.75457 1.761242-1.76066 1.761242h-35.26351l7.54569 6.088865c.40243.352249.65396.805139.65396 1.25803 0 .654176-.40244 1.25803-1.0564 1.559957-.65396.301928-1.35822.201285-1.91157-.201284l-11.21792-9.007495c-.05031-.050321-.10061-.050321-.15092-.100642l-.10061-.050322-.10061-.150963c-.25152-.301927-.40243-.704497-.40243-1.157388s.15091-.85546.45274-1.157387l.15091-.150964c.05031-.050321.15092-.100642.20122-.150964l11.21792-9.007494c.50305-.452891 1.25762-.503212 1.91157-.201285zm0 109.046039c.65396.301927 1.0564.905781 1.0564 1.559957 0 .503212-.20122.956103-.65396 1.25803l-7.54569 6.088865h35.21321c1.00609 0 1.76066.754818 1.76066 1.761242s-.75457 1.761242-1.76066 1.761242h-35.26351l7.54569 6.088865c.40243.352248.65396.805139.65396 1.25803 0 .654175-.40244 1.25803-1.0564 1.559957s-1.35822.201285-1.91157-.201285l-11.21792-9.007494c-.05031-.050322-.10061-.050322-.15092-.100643l-.10061-.050321-.10061-.150964c-.25152-.301927-.40243-.704496-.40243-1.157387s.15091-.855461.45274-1.157388l.15091-.150963c.05031-.050322.15092-.100643.20122-.150964l11.21792-9.007495c.50305-.402569 1.25762-.503212 1.91157-.201284zm0 115.084582c.65396.301927 1.0564.905782 1.0564 1.559957 0 .503212-.20122.956103-.65396 1.25803l-7.54569 6.088865h35.21321c1.00609 0 1.76066.754818 1.76066 1.761242s-.75457 1.761242-1.76066 1.761242h-35.26351l7.54569 6.088865c.40243.352249.65396.805139.65396 1.25803 0 .654176-.40244 1.25803-1.0564 1.559957-.65396.301928-1.35822.201285-1.91157-.201284l-11.21792-9.007495c-.05031-.050321-.10061-.050321-.15092-.100642l-.10061-.050322-.10061-.150963c-.25152-.301927-.40243-.704497-.40243-1.157388s.15091-.85546.45274-1.157387l.15091-.150964c.05031-.050321.15092-.100642.20122-.150964l11.21792-9.007494c.50305-.452891 1.25762-.553533 1.91157-.201285zm0-54.54818c.65396.301927 1.0564.905782 1.0564 1.559957 0 .503212-.20122.956103-.65396 1.25803l-7.54569 6.088865h35.21321c1.00609 0 1.76066.754818 1.76066 1.761242s-.75457 1.761242-1.76066 1.761242h-35.26351l7.54569 6.088865c.40243.352249.65396.80514.65396 1.25803 0 .654176-.40244 1.25803-1.0564 1.559958-.65396.301927-1.35822.201284-1.91157-.201285l-11.21792-9.007495c-.05031-.050321-.10061-.050321-.15092-.100642l-.10061-.050321-.10061-.150964c-.25152-.301927-.40243-.704497-.40243-1.157388 0-.45289.15091-.85546.45274-1.157387l.15091-.150964c.05031-.050321.15092-.100642.20122-.150963l11.21792-9.007495c.50305-.452891 1.25762-.503212 1.91157-.201285zm0-284.616702c.65396.301927 1.0564.905781 1.0564 1.559957 0 .503212-.20122.956103-.65396 1.25803l-7.54569 6.088865h35.21321c1.00609 0 1.76066.754818 1.76066 1.761242s-.75457 1.761242-1.76066 1.761242h-35.26351l7.54569 6.088865c.40243.352248.65396.805139.65396 1.25803 0 .654176-.40244 1.25803-1.0564 1.559957s-1.35822.201285-1.91157-.201285l-11.21792-9.007494c-.05031-.050321-.10061-.050321-.15092-.100643l-.10061-.050321-.10061-.150963c-.25152-.301928-.40243-.704497-.40243-1.157388s.15091-.85546.45274-1.157388l.15091-.150963c.05031-.050321.15092-.100643.20122-.150964l11.21792-9.007494c.50305-.452891 1.25762-.553534 1.91157-.201285zm0-54.54818c.65396.301927 1.0564.905781 1.0564 1.559957 0 .503212-.20122.956103-.65396 1.25803l-7.54569 6.088865h35.21321c1.00609 0 1.76066.754818 1.76066 1.761242s-.75457 1.761242-1.76066 1.761242h-35.26351l7.54569 6.088865c.40243.352249.65396.805139.65396 1.25803 0 .654176-.40244 1.25803-1.0564 1.559957-.65396.301928-1.35822.201285-1.91157-.201284l-11.21792-9.007495c-.05031-.050321-.10061-.050321-.15092-.100643l-.10061-.050321-.10061-.150963c-.25152-.301928-.40243-.704497-.40243-1.157388s.15091-.85546.45274-1.157387l.15091-.150964c.05031-.050321.15092-.100642.20122-.150964l11.21792-9.007494c.50305-.452891 1.25762-.503212 1.91157-.201285zm0 109.046038c.65396.301928 1.0564.905782 1.0564 1.559958 0 .503212-.20122.956102-.65396 1.25803l-7.54569 6.088865h35.21321c1.00609 0 1.76066.754818 1.76066 1.761242s-.75457 1.761242-1.76066 1.761242h-35.26351l7.54569 6.088865c.40243.352248.65396.805139.65396 1.25803 0 .654175-.40244 1.25803-1.0564 1.559957s-1.35822.201285-1.91157-.201285l-11.21792-9.007495c-.05031-.050321-.10061-.050321-.15092-.100642l-.10061-.050321-.10061-.150964c-.25152-.301927-.40243-.704497-.40243-1.157387 0-.452891.15091-.855461.45274-1.157388 0 0 0 0 .0503-.050321l.10061-.100643c.05031-.050321.15092-.100642.20122-.150963l11.21792-9.007495c.50305-.402569 1.25762-.503212 1.91157-.201285z" transform="translate(-1184 -174)"/></svg>