<svg height="470" viewBox="0 0 256 470" width="256" xmlns="http://www.w3.org/2000/svg"><path d="m242.115936 373.976445c.603655-.301927 1.358224-.251606 1.86127.201285l11.217921 9.007495c.050304.050321.150913.100642.201218.150963l.100609.100643c.050305.050321.050305.050321.050305.050321.301827.301927.452741.704497.452741 1.157388 0 .45289-.150914.85546-.402437 1.157387l-.100609.150964-.100609.050321c-.050305.050321-.100609.050321-.150914.100642l-11.217921 9.007495c-.55335.40257-1.257614.503212-1.911574.201285-.653959-.301927-1.056396-.905782-1.056396-1.559957 0-.452891.251523-.905782.65396-1.25803l7.545686-6.088865h-35.263509c-1.006092 0-1.76066-.754818-1.76066-1.761242s.754568-1.761242 1.76066-1.761242h35.263509l-7.545686-6.088865c-.452742-.301928-.65396-.754818-.65396-1.25803 0-.654176.402437-1.25803 1.056396-1.559958zm-30.182747-30.192719c.603655-.301927 1.358224-.251606 1.86127.201285l11.217921 9.007494c.050304.050322.150913.100643.201218.150964l.100609.100642c.050305.050322.050305.050322.050305.050322.301827.301927.452741.704496.452741 1.157387s-.150914.855461-.402437 1.157388l-.100609.150963-.100609.050322c-.050305.050321-.100609.050321-.150914.100642l-11.217921 9.007495c-.55335.402569-1.257614.503212-1.911574.201284-.653959-.301927-1.056396-.905781-1.056396-1.559957 0-.452891.251523-.905781.65396-1.25803l7.545686-6.088865h-35.263509c-1.006092 0-1.76066-.754818-1.76066-1.761242s.754568-1.761242 1.76066-1.761242h35.263509l-7.545686-6.088865c-.452742-.301927-.65396-.754818-.65396-1.25803 0-.654176.402437-1.25803 1.056396-1.559957zm0 60.385439c.603655-.301927 1.358224-.251606 1.86127.201285l11.217921 9.007494c.050304.050322.150913.100643.201218.150964l.100609.100642c.050305.050322.050305.050322.050305.050322.301827.301927.452741.704496.452741 1.157387s-.150914.85546-.402437 1.157388l-.100609.150963-.100609.050321c-.050305.050322-.100609.050322-.150914.100643l-11.217921 9.007495c-.55335.402569-1.257614.503212-1.911574.201284-.653959-.301927-1.056396-.905781-1.056396-1.559957 0-.452891.251523-.905781.65396-1.25803l7.545686-6.088865h-35.263509c-1.006092 0-1.76066-.754818-1.76066-1.761242s.754568-1.761242 1.76066-1.761242h35.263509l-7.545686-6.088865c-.452742-.301927-.65396-.754818-.65396-1.25803 0-.654176.402437-1.25803 1.056396-1.559957zm30.182747 78.853319c.603655-.301927 1.358224-.201285 1.86127.201285l11.217921 9.007494c.050304.050322.150913.100643.201218.150964l.100609.100642c.050305.050322.050305.050322.050305.050322.301827.301927.452741.704496.452741 1.157387s-.150914.855461-.402437 1.157388l-.100609.150963-.100609.050322c-.050305.050321-.100609.050321-.150914.100642l-11.217921 9.007495c-.55335.402569-1.257614.503212-1.911574.201284-.653959-.301927-1.056396-.905781-1.056396-1.559957 0-.452891.251523-.905781.65396-1.25803l7.545686-6.088865h-35.263509c-1.006092 0-1.76066-.754818-1.76066-1.761242s.754568-1.761242 1.76066-1.761242h35.263509l-7.545686-6.088865c-.452742-.301927-.65396-.754818-.65396-1.25803 0-.654175.402437-1.25803 1.056396-1.559957zm-30.182747-30.19272c.603655-.301927 1.358224-.201284 1.86127.201285l11.217921 9.007495c.050304.050321.150913.100642.201218.150963l.100609.100643c.050305.050321.050305.050321.050305.050321.301827.301927.452741.704497.452741 1.157388 0 .45289-.150914.85546-.402437 1.157387l-.100609.150964-.100609.050321c-.050305.050321-.100609.050321-.150914.100642l-11.217921 9.007495c-.55335.40257-1.257614.503212-1.911574.201285-.653959-.301927-1.056396-.905782-1.056396-1.559957 0-.452891.251523-.905782.65396-1.25803l7.545686-6.088865h-35.263509c-1.006092 0-1.76066-.754818-1.76066-1.761242s.754568-1.761242 1.76066-1.761242h35.263509l-7.545686-6.088865c-.452742-.301928-.65396-.754818-.65396-1.25803 0-.654176.402437-1.25803 1.056396-1.559958zm0 60.385439c.603655-.301927 1.358224-.201284 1.86127.201285l11.217921 9.007495c.050304.050321.150913.100642.201218.150963l.100609.100643c.050305.050321.050305.050321.050305.050321.301827.301927.452741.704497.452741 1.157388 0 .45289-.150914.85546-.402437 1.157387l-.100609.150964-.100609.050321c-.050305.050321-.100609.050321-.150914.100642l-11.217921 9.007495c-.55335.40257-1.257614.503212-1.911574.201285-.653959-.301927-1.056396-.905782-1.056396-1.559957 0-.452891.251523-.905782.65396-1.25803l7.545686-6.088865h-35.263509c-1.006092 0-1.76066-.754818-1.76066-1.761242s.754568-1.761242 1.76066-1.761242h35.263509l-7.545686-6.088865c-.452742-.301928-.65396-.754818-.65396-1.25803 0-.654176.402437-1.25803 1.056396-1.559958zm30.182747 30.343684c.603655-.301928 1.358224-.251606 1.86127.201284l11.217921 9.007495c.050304.050321.150913.100642.201218.150964l.100609.100642c.050305.050321.050305.050321.050305.050321.301827.301927.452741.704497.452741 1.157388s-.150914.85546-.402437 1.157387l-.100609.150964-.100609.050321c-.050305.050321-.100609.050321-.150914.100643l-11.217921 9.007494c-.55335.40257-1.257614.503212-1.911574.201285-.653959-.301927-1.056396-.905782-1.056396-1.559957 0-.452891.251523-.905782.65396-1.25803l7.545686-6.088865h-35.263509c-1.006092 0-1.76066-.754818-1.76066-1.761242s.754568-1.761242 1.76066-1.761242h35.263509l-7.545686-6.088865c-.452742-.301928-.65396-.754818-.65396-1.25803 0-.654176.402437-1.25803 1.056396-1.559957zm-30.182747 30.192719c.603655-.301927 1.358224-.251606 1.86127.201285l11.217921 9.007494c.050304.050322.150913.100643.201218.150964l.100609.100642c.050305.050322.050305.050322.050305.050322.301827.301927.452741.704496.452741 1.157387s-.150914.855461-.402437 1.157388l-.100609.150963-.100609.050322c-.050305.050321-.100609.050321-.150914.100642l-11.217921 9.007495c-.55335.402569-1.257614.503212-1.911574.201284-.653959-.301927-1.056396-.905781-1.056396-1.559957 0-.452891.251523-.905781.65396-1.25803l7.545686-6.088865h-35.263509c-1.006092 0-1.76066-.754818-1.76066-1.761242s.754568-1.761242 1.76066-1.761242h35.263509l-7.545686-6.088865c-.452742-.301927-.65396-.754818-.65396-1.25803 0-.654175.402437-1.25803 1.056396-1.559957zm0 48.6606c.603655-.301928 1.358224-.201285 1.86127.201284l11.217921 9.007495c.050304.050321.150913.100642.201218.150964l.100609.100642c.050305.050321.050305.050321.050305.050321.301827.301927.452741.704497.452741 1.157388s-.150914.85546-.402437 1.157387l-.100609.150964-.100609.050321c-.050305.050321-.100609.050321-.150914.100643l-11.217921 9.007494c-.55335.40257-1.257614.503212-1.911574.201285-.653959-.301927-1.056396-.905782-1.056396-1.559957 0-.452891.251523-.905782.65396-1.25803l7.545686-6.088865h-35.263509c-1.006092 0-1.76066-.754818-1.76066-1.761242s.754568-1.761242 1.76066-1.761242h35.263509l-7.545686-6.088865c-.452742-.301927-.65396-.754818-.65396-1.25803 0-.654176.402437-1.25803 1.056396-1.559957zm30.182747-418.018202c.603655-.301927 1.358224-.251606 1.86127.201285l11.217921 9.007495c.050304.050321.150913.100642.201218.150963l.100609.100643c.050305.050321.050305.050321.050305.050321.301827.301927.452741.704497.452741 1.157388 0 .45289-.150914.85546-.402437 1.157387l-.100609.150964-.100609.050321c-.050305.050321-.100609.050321-.150914.100642l-11.217921 9.007495c-.55335.40257-1.257614.503212-1.911574.201285-.653959-.301927-1.056396-.905782-1.056396-1.559957 0-.452891.251523-.905782.65396-1.25803l7.545686-6.088866h-35.263509c-1.006092 0-1.76066-.754818-1.76066-1.761241 0-1.006424.754568-1.761242 1.76066-1.761242h35.263509l-7.545686-6.088866c-.452742-.301927-.65396-.754818-.65396-1.25803 0-.654175.402437-1.25803 1.056396-1.559957zm-30.182747-30.192719c.603655-.301927 1.358224-.251606 1.911574.201285l11.167617 9.007494c.050304.050321.150913.100643.201218.150964l.100609.100642c.050305.050321.050305.050321.050305.050321.301827.301928.452741.704497.452741 1.157388s-.150914.85546-.402437 1.157388l-.100609.150963-.100609.050321c-.050305.050322-.100609.050322-.150914.100643l-11.217921 9.007494c-.55335.40257-1.257614.503212-1.911574.201285-.653959-.301927-1.056396-.905781-1.056396-1.559957 0-.452891.251523-.905782.65396-1.25803l7.545686-6.088865h-35.263509c-1.006092 0-1.76066-.754818-1.76066-1.761242s.754568-1.761242 1.76066-1.761242h35.263509l-7.545686-6.088865c-.452742-.301927-.65396-.754818-.65396-1.25803 0-.654176.402437-1.25803 1.056396-1.559957zm0 60.385439c.603655-.301927 1.358224-.251606 1.86127.201285l11.217921 9.007494c.050304.050321.150913.100643.201218.150964l.100609.100642c.050305.050321.050305.050321.050305.050321.301827.301928.452741.704497.452741 1.157388s-.150914.85546-.402437 1.157388l-.100609.150963-.100609.050321c-.050305.050322-.100609.050322-.150914.100643l-11.217921 9.007494c-.55335.40257-1.257614.503212-1.911574.201285-.653959-.301927-1.056396-.905781-1.056396-1.559957 0-.452891.251523-.905782.65396-1.25803l7.545686-6.088865h-35.263509c-1.006092 0-1.76066-.754818-1.76066-1.761242s.754568-1.761242 1.76066-1.761242h35.263509l-7.545686-6.088865c-.452742-.301927-.65396-.754818-.65396-1.25803 0-.654176.402437-1.25803 1.056396-1.559957zm30.182747 78.853319c.603655-.301927 1.358224-.201285 1.86127.201285l11.217921 9.007494c.050304.050321.150913.100643.201218.150964l.100609.100642c.050305.050321.050305.050321.050305.050321.301827.301928.452741.704497.452741 1.157388s-.150914.85546-.402437 1.157388l-.100609.150963-.100609.050321c-.050305.050322-.100609.050322-.150914.100643l-11.217921 9.007494c-.55335.40257-1.257614.503212-1.911574.201285-.653959-.301927-1.056396-.905781-1.056396-1.559957 0-.452891.251523-.905781.65396-1.25803l7.545686-6.088865h-35.263509c-1.006092 0-1.76066-.754818-1.76066-1.761242s.754568-1.761242 1.76066-1.761242h35.263509l-7.545686-6.088865c-.452742-.301927-.65396-.754818-.65396-1.25803 0-.654176.402437-1.25803 1.056396-1.559957zm-30.182747-30.19272c.603655-.301927 1.358224-.201284 1.86127.201285l11.217921 9.007495c.050304.050321.150913.100642.201218.150963l.100609.100643c.050305.050321.050305.050321.050305.050321.301827.301927.452741.704497.452741 1.157388 0 .45289-.150914.85546-.402437 1.157387l-.100609.150964-.100609.050321c-.050305.050321-.100609.050321-.150914.100642l-11.217921 9.007495c-.55335.40257-1.257614.503212-1.911574.201285-.653959-.301927-1.056396-.905782-1.056396-1.559957 0-.452891.251523-.905782.65396-1.25803l7.545686-6.088865h-35.263509c-1.006092 0-1.76066-.754818-1.76066-1.761242s.754568-1.761242 1.76066-1.761242h35.263509l-7.545686-6.088866c-.452742-.301927-.65396-.754817-.65396-1.258029 0-.654176.402437-1.25803 1.056396-1.559958zm-35.213205 145.277302c.65396-.352248 1.408528-.251606 1.86127.201285l11.217921 9.007495c.050304.050321.150913.100642.201218.150963l.100609.100643c.050305.050321.050305.050321.050305.050321.301827.301927.452741.704497.452741 1.157387 0 .452891-.150914.855461-.402437 1.157388l-.100609.150964-.100609.050321c-.050305.050321-.100609.050321-.150914.100642l-11.217921 9.007495c-.55335.40257-1.257614.503212-1.911574.201285-.653959-.301927-1.056396-.905782-1.056396-1.559957 0-.452891.251523-.905782.65396-1.25803l7.545686-6.088866h-35.263509c-1.006092 0-1.76066-.754818-1.76066-1.761242 0-1.006423.754568-1.761241 1.76066-1.761241h35.263509l-7.545686-6.088866c-.452742-.301927-.65396-.754818-.65396-1.25803 0-.654175.402437-1.25803 1.056396-1.559957zm-81.9964627-54.54818c.603655-.301927 1.3582236-.251606 1.8612694.201285l11.2179213 9.007495c.050304.050321.150913.100642.201218.150963l.100609.100643c.050305.050321.050305.050321.050305.050321.301827.301927.452741.704497.452741 1.157388 0 .45289-.150914.85546-.402437 1.157387l-.100609.150964-.100609.050321c-.050305.050321-.100609.050321-.150914.100642l-11.2179207 9.007495c-.5533504.40257-1.2576145.503212-1.911574.201285s-1.0563961-.905782-1.0563961-1.559957c0-.452891.2515229-.905782.6539595-1.25803l7.5456863-6.088865h-35.2635091c-1.0060915 0-1.7606602-.754818-1.7606602-1.761242s.7545687-1.761242 1.7606602-1.761242h35.2635091l-7.5456863-6.088865c-.4527412-.301928-.6539595-.754818-.6539595-1.25803 0-.654176.4024366-1.25803 1.0563961-1.559958zm-30.1827471-30.192719c.603655-.301927 1.3582236-.251606 1.8612694.201285l11.217921 9.007494c.0503046.050322.1509138.100643.2012183.150964l.1006092.100642c.0503046.050322.0503046.050322.0503046.050322.3018275.301927.4527412.704496.4527412 1.157387s-.1509137.855461-.4024366 1.157388l-.1006092.150963-.1006092.050322c-.0503045.050321-.1006091.050321-.1509137.100642l-11.217921 9.007495c-.5533504.402569-1.2576145.503212-1.911574.201284-.6539595-.301927-1.0563961-.905781-1.0563961-1.559957 0-.452891.2515229-.905781.6539595-1.25803l7.5456868-6.088865h-35.2635096c-1.0060915 0-1.7606602-.754818-1.7606602-1.761242s.7545687-1.761242 1.7606602-1.761242h35.2635096l-7.5456868-6.088865c-.4527412-.301927-.6539595-.754818-.6539595-1.25803 0-.654176.4024366-1.25803 1.0563961-1.559957zm0 60.385439c.603655-.301927 1.3582236-.251606 1.8612694.201285l11.217921 9.007494c.0503046.050322.1509138.100643.2012183.150964l.1006092.100642c.0503046.050322.0503046.050322.0503046.050322.3018275.301927.4527412.704496.4527412 1.157387s-.1509137.85546-.4024366 1.157388l-.1006092.150963-.1006092.050321c-.0503045.050322-.1006091.050322-.1509137.100643l-11.217921 9.007495c-.5533504.402569-1.2576145.503212-1.911574.201284-.6539595-.301927-1.0563961-.905781-1.0563961-1.559957 0-.452891.2515229-.905781.6539595-1.25803l7.5456868-6.088865h-35.2635096c-1.0060915 0-1.7606602-.754818-1.7606602-1.761242s.7545687-1.761242 1.7606602-1.761242h35.2635096l-7.5456868-6.088865c-.4527412-.301927-.6539595-.754818-.6539595-1.25803 0-.654176.4024366-1.25803 1.0563961-1.559957zm112.1792098-30.19272c.65396-.301927 1.408528-.251606 1.86127.201285l11.217921 9.007495c.050304.050321.150913.100642.201218.150963l.100609.100643c.050305.050321.050305.050321.050305.050321.301827.301927.452741.704497.452741 1.157388 0 .45289-.150914.85546-.402437 1.157387l-.100609.150964-.100609.050321c-.050305.050321-.100609.050321-.150914.100642l-11.217921 9.007495c-.55335.40257-1.257614.503212-1.911574.201285-.653959-.301927-1.056396-.905782-1.056396-1.559957 0-.452891.251523-.905782.65396-1.25803l7.545686-6.088865h-35.263509c-1.006092 0-1.76066-.754818-1.76066-1.761242s.754568-1.761242 1.76066-1.761242h35.263509l-7.545686-6.088865c-.452742-.301928-.65396-.754818-.65396-1.25803 0-.654176.402437-1.25803 1.056396-1.559958zm-35.213205-30.192719c.65396-.301927 1.408529-.251606 1.86127.201285l11.217921 9.007494c.050304.050322.150913.100643.201218.150964l.100609.100642c.050305.050322.050305.050322.050305.050322.301827.301927.452741.704496.452741 1.157387s-.150914.855461-.402437 1.157388l-.100609.150963-.100609.050322c-.050305.050321-.100609.050321-.150914.100642l-11.217921 9.007495c-.55335.402569-1.257614.503212-1.911574.201284-.653959-.301927-1.056396-.905781-1.056396-1.559957 0-.452891.251523-.905781.65396-1.25803l7.545686-6.088865h-35.263509c-1.006092 0-1.76066-.754818-1.76066-1.761242s.754568-1.761242 1.76066-1.761242h35.263509l-7.545686-6.088865c-.452742-.301927-.65396-.754818-.65396-1.25803 0-.654176.402437-1.25803 1.056396-1.559957zm0 60.385439c.65396-.301927 1.408529-.251606 1.86127.201285l11.217921 9.007494c.050304.050322.150913.100643.201218.150964l.100609.100642c.050305.050322.050305.050322.050305.050322.301827.301927.452741.704496.452741 1.157387s-.150914.85546-.402437 1.157388l-.100609.150963-.100609.050321c-.050305.050322-.100609.050322-.150914.100643l-11.217921 9.007495c-.55335.402569-1.257614.503212-1.911574.201284-.653959-.301927-1.056396-.905781-1.056396-1.559957 0-.452891.251523-.905781.65396-1.25803l7.545686-6.088865h-35.263509c-1.006092 0-1.76066-.754818-1.76066-1.761242s.754568-1.761242 1.76066-1.761242h35.263509l-7.545686-6.088865c-.452742-.301927-.65396-.754818-.65396-1.25803 0-.654176.402437-1.25803 1.056396-1.559957zm-46.7832577 78.853319c.603655-.301927 1.3582236-.201285 1.8612694.201285l11.2179213 9.007494c.050304.050322.150913.100643.201218.150964l.100609.100642c.050305.050322.050305.050322.050305.050322.301827.301927.452741.704496.452741 1.157387s-.150914.855461-.402437 1.157388l-.100609.150963-.100609.050322c-.050305.050321-.100609.050321-.150914.100642l-11.2179207 9.007495c-.5533504.402569-1.2576145.503212-1.911574.201284-.6539595-.301927-1.0563961-.905781-1.0563961-1.559957 0-.452891.2515229-.905781.6539595-1.25803l7.5456863-6.088865h-35.2635091c-1.0060915 0-1.7606602-.754818-1.7606602-1.761242s.7545687-1.761242 1.7606602-1.761242h35.2635091l-7.5456863-6.088865c-.4527412-.301927-.6539595-.754818-.6539595-1.25803 0-.654175.4024366-1.25803 1.0563961-1.559957zm-30.1827471-30.19272c.603655-.301927 1.3582236-.201284 1.8612694.201285l11.217921 9.007495c.0503046.050321.1509138.100642.2012183.150963l.1006092.100643c.0503046.050321.0503046.050321.0503046.050321.3018275.301927.4527412.704497.4527412 1.157388 0 .45289-.1509137.85546-.4024366 1.157387l-.1006092.150964-.1006092.050321c-.0503045.050321-.1006091.050321-.1509137.100642l-11.217921 9.007495c-.5533504.40257-1.2576145.503212-1.911574.201285s-1.0563961-.905782-1.0563961-1.559957c0-.452891.2515229-.905782.6539595-1.25803l7.5456868-6.088865h-35.2635096c-1.0060915 0-1.7606602-.754818-1.7606602-1.761242s.7545687-1.761242 1.7606602-1.761242h35.2635096l-7.5456868-6.088865c-.4527412-.301928-.6539595-.754818-.6539595-1.25803 0-.654176.4024366-1.25803 1.0563961-1.559958zm0 60.385439c.603655-.301927 1.3582236-.201284 1.8612694.201285l11.217921 9.007495c.0503046.050321.1509138.100642.2012183.150963l.1006092.100643c.0503046.050321.0503046.050321.0503046.050321.3018275.301927.4527412.704497.4527412 1.157388 0 .45289-.1509137.85546-.4024366 1.157387l-.1006092.150964-.1006092.050321c-.0503045.050321-.1006091.050321-.1509137.100642l-11.217921 9.007495c-.5533504.40257-1.2576145.503212-1.911574.201285s-1.0563961-.905782-1.0563961-1.559957c0-.452891.2515229-.905782.6539595-1.25803l7.5456868-6.088865h-35.2635096c-1.0060915 0-1.7606602-.754818-1.7606602-1.761242s.7545687-1.761242 1.7606602-1.761242h35.2635096l-7.5456868-6.088865c-.4527412-.301928-.6539595-.754818-.6539595-1.25803 0-.654176.4024366-1.25803 1.0563961-1.559958zm112.1792098-30.192719c.65396-.301927 1.408528-.201285 1.86127.201285l11.217921 9.007494c.050304.050322.150913.100643.201218.150964l.100609.100642c.050305.050322.050305.050322.050305.050322.301827.301927.452741.704496.452741 1.157387s-.150914.855461-.402437 1.157388l-.100609.150963-.100609.050322c-.050305.050321-.100609.050321-.150914.100642l-11.217921 9.007495c-.55335.402569-1.257614.503212-1.911574.201284-.653959-.301927-1.056396-.905781-1.056396-1.559957 0-.452891.251523-.905781.65396-1.25803l7.545686-6.088865h-35.263509c-1.006092 0-1.76066-.754818-1.76066-1.761242s.754568-1.761242 1.76066-1.761242h35.263509l-7.545686-6.088865c-.452742-.301927-.65396-.754818-.65396-1.25803 0-.654175.402437-1.25803 1.056396-1.559957zm-35.213205-30.19272c.65396-.301927 1.408529-.201284 1.86127.201285l11.217921 9.007495c.050304.050321.150913.100642.201218.150963l.100609.100643c.050305.050321.050305.050321.050305.050321.301827.301927.452741.704497.452741 1.157388 0 .45289-.150914.85546-.402437 1.157387l-.100609.150964-.100609.050321c-.050305.050321-.100609.050321-.150914.100642l-11.217921 9.007495c-.55335.40257-1.257614.503212-1.911574.201285-.653959-.301927-1.056396-.905782-1.056396-1.559957 0-.452891.251523-.905782.65396-1.25803l7.545686-6.088865h-35.263509c-1.006092 0-1.76066-.754818-1.76066-1.761242s.754568-1.761242 1.76066-1.761242h35.263509l-7.545686-6.088865c-.452742-.301928-.65396-.754818-.65396-1.25803 0-.654176.402437-1.25803 1.056396-1.559958zm0 60.385439c.65396-.301927 1.408529-.201284 1.86127.201285l11.217921 9.007495c.050304.050321.150913.100642.201218.150963l.100609.100643c.050305.050321.050305.050321.050305.050321.301827.301927.452741.704497.452741 1.157388 0 .45289-.150914.85546-.402437 1.157387l-.100609.150964-.100609.050321c-.050305.050321-.100609.050321-.150914.100642l-11.217921 9.007495c-.55335.40257-1.257614.503212-1.911574.201285-.653959-.301927-1.056396-.905782-1.056396-1.559957 0-.452891.251523-.905782.65396-1.25803l7.545686-6.088865h-35.263509c-1.006092 0-1.76066-.754818-1.76066-1.761242s.754568-1.761242 1.76066-1.761242h35.263509l-7.545686-6.088865c-.452742-.301928-.65396-.754818-.65396-1.25803 0-.654176.402437-1.25803 1.056396-1.559958zm35.213205 84.891863c.65396-.352248 1.408528-.251606 1.86127.201285l11.217921 9.007495c.050304.050321.150913.100642.201218.150963l.100609.100643c.050305.050321.050305.050321.050305.050321.301827.301927.452741.704497.452741 1.157388 0 .45289-.150914.85546-.402437 1.157387l-.100609.150964-.100609.050321c-.050305.050321-.100609.050321-.150914.100642l-11.217921 9.007495c-.55335.40257-1.257614.503212-1.911574.201285-.653959-.301927-1.056396-.905782-1.056396-1.559957 0-.452891.251523-.905782.65396-1.25803l7.545686-6.088865h-35.263509c-1.006092 0-1.76066-.754818-1.76066-1.761242s.754568-1.761242 1.76066-1.761242h35.263509l-7.545686-6.088865c-.452742-.301928-.65396-.754818-.65396-1.25803 0-.654176.402437-1.25803 1.056396-1.559958zm-81.9964627-54.548179c.603655-.301928 1.3582236-.251606 1.8612694.201284l11.2179213 9.007495c.050304.050321.150913.100642.201218.150964l.100609.100642c.050305.050321.050305.050321.050305.050321.301827.301927.452741.704497.452741 1.157388s-.150914.85546-.402437 1.157387l-.100609.150964-.100609.050321c-.050305.050321-.100609.050321-.150914.100643l-11.2179207 9.007494c-.5533504.40257-1.2576145.503212-1.911574.201285s-1.0563961-.905782-1.0563961-1.559957c0-.452891.2515229-.905782.6539595-1.25803l7.5456863-6.088865h-35.2635091c-1.0060915 0-1.7606602-.754818-1.7606602-1.761242s.7545687-1.761242 1.7606602-1.761242h35.2635091l-7.5456863-6.088865c-.4527412-.301928-.6539595-.754818-.6539595-1.25803 0-.654176.4024366-1.25803 1.0563961-1.559957zm-30.1827471 30.192719c.603655-.301927 1.3582236-.251606 1.8612694.201285l11.217921 9.007494c.0503046.050322.1509138.100643.2012183.150964l.1006092.100642c.0503046.050322.0503046.050322.0503046.050322.3018275.301927.4527412.704496.4527412 1.157387s-.1509137.855461-.4024366 1.157388l-.1006092.150963-.1006092.050322c-.0503045.050321-.1006091.050321-.1509137.100642l-11.217921 9.007495c-.5533504.402569-1.2576145.503212-1.911574.201284-.6539595-.301927-1.0563961-.905781-1.0563961-1.559957 0-.452891.2515229-.905781.6539595-1.25803l7.5456868-6.088865h-35.2635096c-1.0060915 0-1.7606602-.754818-1.7606602-1.761242s.7545687-1.761242 1.7606602-1.761242h35.2635096l-7.5456868-6.088865c-.4527412-.301927-.6539595-.754818-.6539595-1.25803 0-.654175.4024366-1.25803 1.0563961-1.559957zm112.1792098-30.192719c.65396-.301928 1.408528-.251606 1.86127.201284l11.217921 9.007495c.050304.050321.150913.100642.201218.150964l.100609.100642c.050305.050321.050305.050321.050305.050321.301827.301927.452741.704497.452741 1.157388s-.150914.85546-.402437 1.157387l-.100609.150964-.100609.050321c-.050305.050321-.100609.050321-.150914.100643l-11.217921 9.007494c-.55335.40257-1.257614.503212-1.911574.201285-.653959-.301927-1.056396-.905782-1.056396-1.559957 0-.452891.251523-.905782.65396-1.25803l7.545686-6.088865h-35.263509c-1.006092 0-1.76066-.754818-1.76066-1.761242s.754568-1.761242 1.76066-1.761242h35.263509l-7.545686-6.088865c-.452742-.301928-.65396-.754818-.65396-1.25803 0-.654176.402437-1.25803 1.056396-1.559957zm-35.213205 30.192719c.65396-.301927 1.408529-.251606 1.86127.201285l11.217921 9.007494c.050304.050322.150913.100643.201218.150964l.100609.100642c.050305.050322.050305.050322.050305.050322.301827.301927.452741.704496.452741 1.157387s-.150914.855461-.402437 1.157388l-.100609.150963-.100609.050322c-.050305.050321-.100609.050321-.150914.100642l-11.217921 9.007495c-.55335.402569-1.257614.503212-1.911574.201284-.653959-.301927-1.056396-.905781-1.056396-1.559957 0-.452891.251523-.905781.65396-1.25803l7.545686-6.088865h-35.263509c-1.006092 0-1.76066-.754818-1.76066-1.761242s.754568-1.761242 1.76066-1.761242h35.263509l-7.545686-6.088865c-.452742-.301927-.65396-.754818-.65396-1.25803 0-.654175.402437-1.25803 1.056396-1.559957zm-76.9660048 48.6606c.603655-.301928 1.3582236-.201285 1.8612694.201284l11.217921 9.007495c.0503046.050321.1509138.100642.2012183.150964l.1006092.100642c.0503046.050321.0503046.050321.0503046.050321.3018275.301927.4527412.704497.4527412 1.157388s-.1509137.85546-.4024366 1.157387l-.1006092.150964-.1006092.050321c-.0503045.050321-.1006091.050321-.1509137.100643l-11.217921 9.007494c-.5533504.40257-1.2576145.503212-1.911574.201285s-1.0563961-.905782-1.0563961-1.559957c0-.452891.2515229-.905782.6539595-1.25803l7.5456868-6.088865h-35.2635096c-1.0060915 0-1.7606602-.754818-1.7606602-1.761242s.7545687-1.761242 1.7606602-1.761242h35.2635096l-7.5456868-6.088865c-.4527412-.301927-.6539595-.754818-.6539595-1.25803 0-.654176.4024366-1.25803 1.0563961-1.559957zm76.9660048 0c.65396-.301928 1.408529-.201285 1.86127.201284l11.217921 9.007495c.050304.050321.150913.100642.201218.150964l.100609.100642c.050305.050321.050305.050321.050305.050321.301827.301927.452741.704497.452741 1.157388s-.150914.85546-.402437 1.157387l-.100609.150964-.100609.050321c-.050305.050321-.100609.050321-.150914.100643l-11.217921 9.007494c-.55335.40257-1.257614.503212-1.911574.201285-.653959-.301927-1.056396-.905782-1.056396-1.559957 0-.452891.251523-.905782.65396-1.25803l7.545686-6.088865h-35.263509c-1.006092 0-1.76066-.754818-1.76066-1.761242s.754568-1.761242 1.76066-1.761242h35.263509l-7.545686-6.088865c-.452742-.301927-.65396-.754818-.65396-1.25803 0-.654176.402437-1.25803 1.056396-1.559957zm35.213205-363.470022c.65396-.352248 1.408528-.251606 1.86127.201285l11.217921 9.007495c.050304.050321.150913.100642.201218.150963l.100609.100643c.050305.050321.050305.050321.050305.050321.301827.301927.452741.704497.452741 1.157387 0 .452891-.150914.855461-.402437 1.157388l-.100609.150964-.100609.050321c-.050305.050321-.100609.050321-.150914.100642l-11.217921 9.007495c-.55335.402569-1.257614.503212-1.911574.201285-.653959-.301928-1.056396-.905782-1.056396-1.559958 0-.45289.251523-.905781.65396-1.25803l7.545686-6.088865h-35.263509c-1.006092 0-1.76066-.754818-1.76066-1.761242s.754568-1.761242 1.76066-1.761242h35.263509l-7.545686-6.088865c-.452742-.301927-.65396-.754818-.65396-1.25803 0-.654175.402437-1.25803 1.056396-1.559957zm-81.9964627-54.54818c.603655-.301927 1.3582236-.251606 1.8612694.201285l11.2179213 9.007495c.050304.050321.150913.100642.201218.150963l.100609.100643c.050305.050321.050305.050321.050305.050321.301827.301927.452741.704497.452741 1.157388 0 .45289-.150914.85546-.402437 1.157387l-.100609.150964-.100609.050321c-.050305.050321-.100609.050321-.150914.100642l-11.2179207 9.007495c-.5533504.40257-1.2576145.503212-1.911574.201285s-1.0563961-.905782-1.0563961-1.559957c0-.452891.2515229-.905782.6539595-1.25803l7.5456863-6.088866h-35.2635091c-1.0060915 0-1.7606602-.754818-1.7606602-1.761241 0-1.006424.7545687-1.761242 1.7606602-1.761242h35.2635091l-7.5456863-6.088866c-.4527412-.301927-.6539595-.754818-.6539595-1.25803 0-.654175.4024366-1.25803 1.0563961-1.559957zm-30.1827471-30.192719c.603655-.301927 1.3582236-.251606 1.911574.201285l11.1676164 9.007494c.0503046.050321.1509138.100643.2012183.150964l.1006092.100642c.0503046.050321.0503046.050321.0503046.050321.3018275.301928.4527412.704497.4527412 1.157388s-.1509137.85546-.4024366 1.157388l-.1006092.150963-.1006092.050321c-.0503045.050322-.1006091.050322-.1509137.100643l-11.217921 9.007494c-.5533504.40257-1.2576145.503212-1.911574.201285s-1.0563961-.905781-1.0563961-1.559957c0-.452891.2515229-.905782.6539595-1.25803l7.5456868-6.088865h-35.2635096c-1.0060915 0-1.7606602-.754818-1.7606602-1.761242s.7545687-1.761242 1.7606602-1.761242h35.2635096l-7.5456868-6.088865c-.4527412-.301927-.6539595-.754818-.6539595-1.25803 0-.654176.4024366-1.25803 1.0563961-1.559957zm0 60.385439c.603655-.301927 1.3582236-.251606 1.8612694.201285l11.217921 9.007494c.0503046.050321.1509138.100643.2012183.150964l.1006092.100642c.0503046.050321.0503046.050321.0503046.050321.3018275.301928.4527412.704497.4527412 1.157388s-.1509137.85546-.4024366 1.157388l-.1006092.150963-.1006092.050321c-.0503045.050322-.1006091.050322-.1509137.100643l-11.217921 9.007494c-.5533504.40257-1.2576145.503212-1.911574.201285s-1.0563961-.905781-1.0563961-1.559957c0-.452891.2515229-.905782.6539595-1.25803l7.5456868-6.088865h-35.2635096c-1.0060915 0-1.7606602-.754818-1.7606602-1.761242s.7545687-1.761242 1.7606602-1.761242h35.2635096l-7.5456868-6.088865c-.4527412-.301927-.6539595-.754818-.6539595-1.25803 0-.654176.4024366-1.25803 1.0563961-1.559957zm112.1792098-30.19272c.65396-.301927 1.408528-.251606 1.86127.201285l11.217921 9.007495c.050304.050321.150913.100642.201218.150963l.100609.100643c.050305.050321.050305.050321.050305.050321.301827.301927.452741.704497.452741 1.157388 0 .45289-.150914.85546-.402437 1.157387l-.100609.150964-.100609.050321c-.050305.050321-.100609.050321-.150914.100642l-11.217921 9.007495c-.55335.40257-1.257614.503212-1.911574.201285-.653959-.301927-1.056396-.905782-1.056396-1.559957 0-.452891.251523-.905782.65396-1.25803l7.545686-6.088866h-35.263509c-1.006092 0-1.76066-.754818-1.76066-1.761241 0-1.006424.754568-1.761242 1.76066-1.761242h35.263509l-7.545686-6.088866c-.452742-.301927-.65396-.754818-.65396-1.25803 0-.654175.402437-1.25803 1.056396-1.559957zm-35.213205-30.192719c.65396-.301927 1.408529-.251606 1.911574.201285l11.167617 9.007494c.050304.050321.150913.100643.201218.150964l.100609.100642c.050305.050321.050305.050321.050305.050321.301827.301928.452741.704497.452741 1.157388s-.150914.85546-.402437 1.157388l-.100609.150963-.100609.050321c-.050305.050322-.100609.050322-.150914.100643l-11.217921 9.007494c-.55335.40257-1.257614.503212-1.911574.201285-.653959-.301927-1.056396-.905781-1.056396-1.559957 0-.452891.251523-.905782.65396-1.25803l7.545686-6.088865h-35.263509c-1.006092 0-1.76066-.754818-1.76066-1.761242s.754568-1.761242 1.76066-1.761242h35.263509l-7.545686-6.088865c-.452742-.301927-.65396-.754818-.65396-1.25803 0-.654176.402437-1.25803 1.056396-1.559957zm0 60.385439c.65396-.301927 1.408529-.251606 1.86127.201285l11.217921 9.007494c.050304.050321.150913.100643.201218.150964l.100609.100642c.050305.050321.050305.050321.050305.050321.301827.301928.452741.704497.452741 1.157388s-.150914.85546-.402437 1.157388l-.100609.150963-.100609.050321c-.050305.050322-.100609.050322-.150914.100643l-11.217921 9.007494c-.55335.40257-1.257614.503212-1.911574.201285-.653959-.301927-1.056396-.905781-1.056396-1.559957 0-.452891.251523-.905782.65396-1.25803l7.545686-6.088865h-35.263509c-1.006092 0-1.76066-.754818-1.76066-1.761242s.754568-1.761242 1.76066-1.761242h35.263509l-7.545686-6.088865c-.452742-.301927-.65396-.754818-.65396-1.25803 0-.654176.402437-1.25803 1.056396-1.559957zm-46.7832577 78.853319c.603655-.301927 1.3582236-.201285 1.8612694.201285l11.2179213 9.007494c.050304.050321.150913.100643.201218.150964l.100609.100642c.050305.050321.050305.050321.050305.050321.301827.301928.452741.704497.452741 1.157388s-.150914.85546-.402437 1.157388l-.100609.150963-.100609.050321c-.050305.050322-.100609.050322-.150914.100643l-11.2179207 9.007494c-.5533504.40257-1.2576145.503212-1.911574.201285s-1.0563961-.905781-1.0563961-1.559957c0-.452891.2515229-.905781.6539595-1.25803l7.5456863-6.088865h-35.2635091c-1.0060915 0-1.7606602-.754818-1.7606602-1.761242s.7545687-1.761242 1.7606602-1.761242h35.2635091l-7.5456863-6.088865c-.4527412-.301927-.6539595-.754818-.6539595-1.25803 0-.654176.4024366-1.25803 1.0563961-1.559957zm-30.1827471-30.19272c.603655-.301927 1.3582236-.201284 1.8612694.201285l11.217921 9.007495c.0503046.050321.1509138.100642.2012183.150963l.1006092.100643c.0503046.050321.0503046.050321.0503046.050321.3018275.301927.4527412.704497.4527412 1.157388 0 .45289-.1509137.85546-.4024366 1.157387l-.1006092.150964-.1006092.050321c-.0503045.050321-.1006091.050321-.1509137.100642l-11.217921 9.007495c-.5533504.40257-1.2576145.503212-1.911574.201285s-1.0563961-.905782-1.0563961-1.559957c0-.452891.2515229-.905782.6539595-1.25803l7.5456868-6.088865h-35.2635096c-1.0060915 0-1.7606602-.754818-1.7606602-1.761242s.7545687-1.761242 1.7606602-1.761242h35.2635096l-7.5456868-6.088866c-.4527412-.301927-.6539595-.754817-.6539595-1.258029 0-.654176.4024366-1.25803 1.0563961-1.559958zm112.1792098 30.19272c.65396-.301927 1.408528-.201285 1.86127.201285l11.217921 9.007494c.050304.050321.150913.100643.201218.150964l.100609.100642c.050305.050321.050305.050321.050305.050321.301827.301928.452741.704497.452741 1.157388s-.150914.85546-.402437 1.157388l-.100609.150963-.100609.050321c-.050305.050322-.100609.050322-.150914.100643l-11.217921 9.007494c-.55335.40257-1.257614.503212-1.911574.201285-.653959-.301927-1.056396-.905781-1.056396-1.559957 0-.452891.251523-.905781.65396-1.25803l7.545686-6.088865h-35.263509c-1.006092 0-1.76066-.754818-1.76066-1.761242s.754568-1.761242 1.76066-1.761242h35.263509l-7.545686-6.088865c-.452742-.301927-.65396-.754818-.65396-1.25803 0-.654176.402437-1.25803 1.056396-1.559957zm-35.213205-30.19272c.65396-.301927 1.408529-.201284 1.86127.201285l11.217921 9.007495c.050304.050321.150913.100642.201218.150963l.100609.100643c.050305.050321.050305.050321.050305.050321.301827.301927.452741.704497.452741 1.157388 0 .45289-.150914.85546-.402437 1.157387l-.100609.150964-.100609.050321c-.050305.050321-.100609.050321-.150914.100642l-11.217921 9.007495c-.55335.40257-1.257614.503212-1.911574.201285-.653959-.301927-1.056396-.905782-1.056396-1.559957 0-.452891.251523-.905782.65396-1.25803l7.545686-6.088865h-35.263509c-1.006092 0-1.76066-.754818-1.76066-1.761242s.754568-1.761242 1.76066-1.761242h35.263509l-7.545686-6.088866c-.452742-.301927-.65396-.754817-.65396-1.258029 0-.654176.402437-1.25803 1.056396-1.559958zm-111.6761639 145.277302c.6539595-.352248 1.4085282-.251606 1.9115739.201285l11.217921 9.007495c.0503046.050321.1509138.100642.2012184.150963l.1006091.100643c.0503046.050321.0503046.050321.0503046.050321.3018275.301927.4527412.704497.4527412 1.157387 0 .452891-.1509137.855461-.4024366 1.157388l-.1006092.150964-.1006091.050321c-.0503046.050321-.1006092.050321-.1509138.100642l-11.217921 9.007495c-.5533503.40257-1.2576144.503212-1.911574.201285-.6539595-.301927-1.0563961-.905782-1.0563961-1.559957 0-.452891.2515229-.905782.6539595-1.25803l7.5456868-6.088866h-35.26350955c-1.00609157 0-1.76066025-.754818-1.76066025-1.761242 0-1.006423.75456868-1.761241 1.76066025-1.761241h35.21320495l-7.5456868-6.088866c-.4527412-.301927-.6539595-.754818-.6539595-1.25803 0-.654175.4024366-1.25803 1.0563962-1.559957zm0-54.54818c.6539595-.301927 1.4085282-.251606 1.9115739.201285l11.217921 9.007495c.0503046.050321.1509138.100642.2012184.150963l.1006091.100643c.0503046.050321.0503046.050321.0503046.050321.3018275.301927.4527412.704497.4527412 1.157388 0 .45289-.1509137.85546-.4024366 1.157387l-.1006092.150964-.1006091.050321c-.0503046.050321-.1006092.050321-.1509138.100642l-11.217921 9.007495c-.5533503.40257-1.2576144.503212-1.911574.201285-.6539595-.301927-1.0563961-.905782-1.0563961-1.559957 0-.452891.2515229-.905782.6539595-1.25803l7.5456868-6.088865h-35.26350955c-1.00609157 0-1.76066025-.754818-1.76066025-1.761242s.75456868-1.761242 1.76066025-1.761242h35.21320495l-7.5456868-6.088865c-.4527412-.301928-.6539595-.754818-.6539595-1.25803 0-.654176.4024366-1.25803 1.0563962-1.559958zm0 109.046039c.6539595-.301927 1.4085282-.201285 1.9115739.201285l11.217921 9.007494c.0503046.050322.1509138.100643.2012184.150964l.1006091.100642c.0503046.050322.0503046.050322.0503046.050322.3018275.301927.4527412.704496.4527412 1.157387s-.1509137.855461-.4024366 1.157388l-.1006092.150963-.1006091.050322c-.0503046.050321-.1006092.050321-.1509138.100642l-11.217921 9.007495c-.5533503.402569-1.2576144.503212-1.911574.201284-.6539595-.301927-1.0563961-.905781-1.0563961-1.559957 0-.452891.2515229-.905781.6539595-1.25803l7.5456868-6.088865h-35.26350955c-1.00609157 0-1.76066025-.754818-1.76066025-1.761242s.75456868-1.761242 1.76066025-1.761242h35.21320495l-7.5456868-6.088865c-.4527412-.301927-.6539595-.754818-.6539595-1.25803 0-.654175.4024366-1.25803 1.0563962-1.559957zm0 115.084582c.6539595-.352248 1.4085282-.251606 1.9115739.201285l11.217921 9.007495c.0503046.050321.1509138.100642.2012184.150963l.1006091.100643c.0503046.050321.0503046.050321.0503046.050321.3018275.301927.4527412.704497.4527412 1.157388 0 .45289-.1509137.85546-.4024366 1.157387l-.1006092.150964-.1006091.050321c-.0503046.050321-.1006092.050321-.1509138.100642l-11.217921 9.007495c-.5533503.40257-1.2576144.503212-1.911574.201285-.6539595-.301927-1.0563961-.905782-1.0563961-1.559957 0-.452891.2515229-.905782.6539595-1.25803l7.5456868-6.088865h-35.26350955c-1.00609157 0-1.76066025-.754818-1.76066025-1.761242s.75456868-1.761242 1.76066025-1.761242h35.21320495l-7.5456868-6.088865c-.4527412-.301928-.6539595-.754818-.6539595-1.25803 0-.654176.4024366-1.25803 1.0563962-1.559958zm0-54.548179c.6539595-.301928 1.4085282-.251606 1.9115739.201284l11.217921 9.007495c.0503046.050321.1509138.100642.2012184.150964l.1006091.100642c.0503046.050321.0503046.050321.0503046.050321.3018275.301927.4527412.704497.4527412 1.157388s-.1509137.85546-.4024366 1.157387l-.1006092.150964-.1006091.050321c-.0503046.050321-.1006092.050321-.1509138.100643l-11.217921 9.007494c-.5533503.40257-1.2576144.503212-1.911574.201285-.6539595-.301927-1.0563961-.905782-1.0563961-1.559957 0-.452891.2515229-.905782.6539595-1.25803l7.5456868-6.088865h-35.26350955c-1.00609157 0-1.76066025-.754818-1.76066025-1.761242s.75456868-1.761242 1.76066025-1.761242h35.21320495l-7.5456868-6.088865c-.4527412-.301928-.6539595-.754818-.6539595-1.25803 0-.654176.4024366-1.25803 1.0563962-1.559957zm0-284.616703c.6539595-.352248 1.4085282-.251606 1.9115739.201285l11.217921 9.007495c.0503046.050321.1509138.100642.2012184.150963l.1006091.100643c.0503046.050321.0503046.050321.0503046.050321.3018275.301927.4527412.704497.4527412 1.157387 0 .452891-.1509137.855461-.4024366 1.157388l-.1006092.150964-.1006091.050321c-.0503046.050321-.1006092.050321-.1509138.100642l-11.217921 9.007495c-.5533503.402569-1.2576144.503212-1.911574.201285-.6539595-.301928-1.0563961-.905782-1.0563961-1.559958 0-.45289.2515229-.905781.6539595-1.25803l7.5456868-6.088865h-35.26350955c-1.00609157 0-1.76066025-.754818-1.76066025-1.761242s.75456868-1.761242 1.76066025-1.761242h35.21320495l-7.5456868-6.088865c-.4527412-.301927-.6539595-.754818-.6539595-1.25803 0-.654175.4024366-1.25803 1.0563962-1.559957zm0-54.54818c.6539595-.301927 1.4085282-.251606 1.9115739.201285l11.217921 9.007495c.0503046.050321.1509138.100642.2012184.150963l.1006091.100643c.0503046.050321.0503046.050321.0503046.050321.3018275.301927.4527412.704497.4527412 1.157388 0 .45289-.1509137.85546-.4024366 1.157387l-.1006092.150964-.1006091.050321c-.0503046.050321-.1006092.050321-.1509138.100642l-11.217921 9.007495c-.5533503.40257-1.2576144.503212-1.911574.201285-.6539595-.301927-1.0563961-.905782-1.0563961-1.559957 0-.452891.2515229-.905782.6539595-1.25803l7.5456868-6.088866h-35.26350955c-1.00609157 0-1.76066025-.754818-1.76066025-1.761241 0-1.006424.75456868-1.761242 1.76066025-1.761242h35.21320495l-7.5456868-6.088866c-.4527412-.301927-.6539595-.754818-.6539595-1.25803 0-.654175.4024366-1.25803 1.0563962-1.559957zm0 109.046039c.6539595-.301927 1.4085282-.201285 1.9115739.201285l11.217921 9.007494c.0503046.050321.1509138.100643.2012184.150964l.1006091.100642c.0503046.050321.0503046.050321.0503046.050321.3018275.301928.4527412.704497.4527412 1.157388s-.1509137.85546-.4024366 1.157388l-.1006092.150963-.1006091.050321c-.0503046.050322-.1006092.050322-.1509138.100643l-11.217921 9.007494c-.5533503.40257-1.2576144.503212-1.911574.201285-.6539595-.301927-1.0563961-.905781-1.0563961-1.559957 0-.452891.2515229-.905781.6539595-1.25803l7.5456868-6.088865h-35.26350955c-1.00609157 0-1.76066025-.754818-1.76066025-1.761242s.75456868-1.761242 1.76066025-1.761242h35.21320495l-7.5456868-6.088865c-.4527412-.301927-.6539595-.754818-.6539595-1.25803 0-.654176.4024366-1.25803 1.0563962-1.559957z" transform="translate(0 -174)"/></svg>