<svg id="Layer_1" data-name="Layer 1" xmlns="http://www.w3.org/2000/svg" viewBox="0 0 450 250"><defs><style>.cls-1{fill:#fc6d26;}.cls-2{fill:#380d75;}.cls-3{fill:#ac7fff;}.cls-4{fill:#e5e0fc;}.cls-5{fill:#5ac4ff;}.cls-11,.cls-13,.cls-14,.cls-15,.cls-16,.cls-17,.cls-6,.cls-7,.cls-9{fill:none;stroke-linecap:round;stroke-linejoin:round;stroke-width:3.42px;}.cls-6{stroke:#18a3ff;}.cls-7{stroke:#7c53bc;}.cls-8{fill:#ffc46c;}.cls-9{stroke:#fca121;}.cls-10{fill:#f968b3;}.cls-11{stroke:#c13880;}.cls-12{fill:#4beacc;}.cls-13{stroke:#04af92;}.cls-14{stroke:#d5c7ff;}.cls-15{stroke:#ffd8cc;}.cls-16{stroke:#ffcfec;}.cls-17{stroke:#e5e0fc;}</style></defs><circle class="cls-1" cx="256.67" cy="102.07" r="54.07"/><path class="cls-1" d="M203.23,133.52l-2.47-4.59a62.19,62.19,0,0,1,0-53.72V48H179a65.57,65.57,0,0,1-12.76,6.38,109.63,109.63,0,0,1-15.86,4.31V77H171.1v56.55H147.66v23.79h72.75v-4.94A62.44,62.44,0,0,1,203.23,133.52Z"/><path class="cls-2" d="M256.68,130.8l29.59-21.49a2.34,2.34,0,0,0,.84-2.61L276.92,75.32a1.17,1.17,0,0,0-2.22,0l-6.77,20.85h-22.5l-6.79-20.86a1.17,1.17,0,0,0-2.22,0L226.23,106.7a2.34,2.34,0,0,0,.84,2.61l29.61,21.49"/><path class="cls-3" d="M306.81,189.81v32.06s2.79,5,19.41,2.3c2.28-.38,24.76-6.88,24.76-6.88l-10.88-9L351,185.65S314,201.21,306.81,189.81Z"/><path class="cls-3" d="M110.92,147s5.24,12.52,10.34,11.8C121.26,158.8,146,144.55,110.92,147Z"/><path class="cls-3" d="M102.05,176.13,103,208.3S105,223,161.66,213c0,0,123.07-18.69,145.15-18.4,0,0-2.35-9.13,5.51-14,0,0,38.66-20.65-14.74-18.35L147.66,184S108.32,189.39,102.05,176.13Z"/><path class="cls-2" d="M220.41,158.85H147.66a1.54,1.54,0,0,1-1.54-1.54V133.52a1.54,1.54,0,0,1,1.54-1.54h21.9V78.51H150.42A1.53,1.53,0,0,1,148.88,77V58.69a1.54,1.54,0,0,1,1.23-1.51,107.8,107.8,0,0,0,15.63-4.24,65.12,65.12,0,0,0,12.47-6.23,1.5,1.5,0,0,1,.83-.25h21.72A1.54,1.54,0,0,1,202.3,48V74.11a1.54,1.54,0,0,1-3.08,0V49.54H179.48a67.61,67.61,0,0,1-12.67,6.29A108.56,108.56,0,0,1,152,60V75.43H171.1A1.53,1.53,0,0,1,172.64,77v56.55a1.53,1.53,0,0,1-1.54,1.54H149.2v20.71h69.67V153.6a1.54,1.54,0,0,1,3.08,0v3.71A1.54,1.54,0,0,1,220.41,158.85Z"/><path class="cls-2" d="M256.67,157.68a55.61,55.61,0,1,1,55.61-55.61A55.68,55.68,0,0,1,256.67,157.68Zm0-108.14a52.53,52.53,0,1,0,52.53,52.53A52.6,52.6,0,0,0,256.67,49.54Z"/><path class="cls-2" d="M256.68,132.34a1.53,1.53,0,0,1-.91-.3l-29.6-21.49a3.87,3.87,0,0,1-1.41-4.33L235,74.85a2.79,2.79,0,0,1,2.6-1.87,2.65,2.65,0,0,1,2.55,1.87l6.45,19.79h20.26l6.43-19.78A2.66,2.66,0,0,1,275.79,73h0a2.7,2.7,0,0,1,2.57,1.85l10.2,31.4a3.86,3.86,0,0,1-1.4,4.32L257.58,132A1.5,1.5,0,0,1,256.68,132.34ZM237.53,76.89l-9.84,30.29a.79.79,0,0,0,.29.88l28.7,20.83,28.68-20.83a.79.79,0,0,0,.29-.88l-9.84-30.29L269.4,96.64a1.55,1.55,0,0,1-1.47,1.07h-22.5A1.55,1.55,0,0,1,244,96.66Z"/><path class="cls-2" d="M317.62,226.46c-4.1,0-7.59-.63-9.79-2.22a6.11,6.11,0,0,1-2.54-5.87,1.54,1.54,0,1,1,3.06.31,3,3,0,0,0,1.29,3.06c5.78,4.18,27-.41,38.39-4.89l-10.11-8.36a1.54,1.54,0,0,1-.37-1.94l10-17.87c-12.44,4.5-35.67,9.58-40.76,2.87a6.13,6.13,0,0,1-1.36-5c.8-4.15,6.05-7.3,11.14-10.35,3.63-2.18,7.75-4.65,8.17-6.56s-.1-2.8-.54-3.27c-5.68-6.13-42.2-.83-130.45,12L179,180.43l-5.42.8c-29.3,4.33-69.43,10.26-72.84-6.31-2-9.68,7.93-13.29,16.06-16.15l-7.19-10.93a1.53,1.53,0,0,1-.18-1.3,1.51,1.51,0,0,1,.89-1c5.14-2.1,13.57-2.25,17.92.89a6.31,6.31,0,0,1,2.81,5.75c-.33,4.93-6.47,7.09-13,9.38-9.25,3.25-15.69,6.07-14.32,12.71,2.82,13.72,44.48,7.56,69.37,3.88l5.43-.79,14.7-2.14c100.17-14.53,126.64-18,133.15-11a6.35,6.35,0,0,1,1.29,6c-.72,3.19-4.83,5.66-9.6,8.52-4.29,2.57-9.16,5.5-9.7,8.29a3.12,3.12,0,0,0,.79,2.6c1.69,2.23,8.26,2.67,17.56,1.18a105.15,105.15,0,0,0,23.58-6.62,1.52,1.52,0,0,1,1.76.36,1.54,1.54,0,0,1,.21,1.79l-11.45,20.54L352,216.11a1.54,1.54,0,0,1-.36,2.59C345.17,221.57,329,226.46,317.62,226.46ZM113.3,147.82l6.5,9.89c4.28-1.58,8-3.31,8.2-5.71a3.28,3.28,0,0,0-1.55-3C123.75,147,117.9,146.57,113.3,147.82Z"/><path class="cls-2" d="M127.86,217.56c-14.31,0-25.38-2.64-27.1-11a1.54,1.54,0,1,1,3-.62c2.82,13.72,44.48,7.56,69.37,3.89l5.43-.8c12.75-1.85,24.35-3.55,34.89-5.09,55.72-8.17,81.15-11.89,93.47-10.83a1.54,1.54,0,0,1-.26,3.07c-12-1-39,2.92-92.76,10.8-10.55,1.55-22.14,3.25-34.9,5.1l-5.42.79C159.08,215,141.91,217.56,127.86,217.56Z"/><path class="cls-2" d="M111.89,207.89l.36-4.75-3.46-9.37,3.9.3.8,3c.13.54.26,1.06.39,1.57l.41,1.59h.09q.33-.78.66-1.5c.21-.49.43-1,.66-1.49l1.24-2.81,3.82.29-4.86,8.73-.36,4.75Z"/><path class="cls-2" d="M123,208.35l-.56-13.83,8.93-.37.13,3.07-5.28.21.09,2.17,4.51-.18.13,3.06-4.51.19.1,2.47,5.49-.23.12,3.06Z"/><path class="cls-2" d="M134.4,207.82l2.82-14.19,4.41-.44,5.57,13.36-3.86.38-1-2.86-3.85.39-.39,3ZM139,200.6l-.14,1,2.55-.25-.33-.93c-.24-.65-.48-1.35-.73-2.11s-.49-1.48-.72-2.15h-.09c-.08.72-.17,1.47-.26,2.26S139.13,199.92,139,200.6Z"/><path class="cls-2" d="M149.34,206.25l-1.82-13.72,5.19-.69a10.93,10.93,0,0,1,2.13-.06,4.9,4.9,0,0,1,1.84.48,3.63,3.63,0,0,1,1.38,1.21,4.73,4.73,0,0,1,.73,2.08,4.68,4.68,0,0,1-.28,2.53,4.33,4.33,0,0,1-1.41,1.73l3.68,4.93-4.06.53-3-4.28-1.39.18.61,4.6ZM152,198.3l1.3-.17c1.47-.2,2.12-.9,2-2.11a1.34,1.34,0,0,0-.72-1.15,3.15,3.15,0,0,0-1.68-.12l-1.31.17Z"/><path class="cls-2" d="M166.73,203.84l2.16-14.3,4.38-.65L179.46,202l-3.84.56-1.1-2.8-3.83.56-.25,3Zm4.29-7.43-.09,1,2.52-.37-.37-.91c-.26-.64-.54-1.33-.82-2.08s-.56-1.45-.83-2.11h-.08c0,.72-.1,1.48-.15,2.27S171.09,195.73,171,196.41Z"/><path class="cls-2" d="M181.61,201.67l-2-13.7,3.71-.54,3.92,5.67L189,196l.08,0c-.09-.35-.2-.75-.32-1.17s-.23-.87-.34-1.32-.22-.9-.32-1.35-.18-.89-.24-1.31l-.58-4,3.46-.51,2,13.7-3.71.54-3.92-5.69L183.34,192l-.08,0c.2.77.42,1.61.67,2.52a21.32,21.32,0,0,1,.55,2.63l.58,4Z"/><path class="cls-2" d="M196.6,199.48l-2-13.69,3.71-.54,3.93,5.66L204,193.8l.09,0-.33-1.17c-.12-.43-.23-.87-.34-1.32s-.21-.9-.32-1.35-.18-.89-.24-1.31l-.58-4,3.45-.51,2,13.7-3.71.54-3.93-5.69-1.75-2.86h-.09c.2.77.42,1.62.67,2.53a21,21,0,0,1,.56,2.63l.58,4Z"/><path class="cls-2" d="M211.61,197.29l-2-13.7,3.62-.53,2,13.7Z"/><path class="cls-2" d="M221.43,195.85l-6.05-13.1,3.83-.57,2.31,5.78c.3.7.58,1.4.82,2.08s.52,1.4.83,2.11h.08c.09-.77.16-1.53.2-2.26s.1-1.47.18-2.23l.51-6.19,3.71-.54-2,14.29Z"/><path class="cls-2" d="M232,194.3l-2-13.7,8.85-1.28.44,3-5.22.76.31,2.15,4.47-.65.44,3-4.47.65.36,2.45,5.43-.79.45,3Z"/><path class="cls-2" d="M244.57,192.48l-2-13.71,5.19-.74a11,11,0,0,1,2.13-.09,5,5,0,0,1,1.85.47,3.5,3.5,0,0,1,1.38,1.19,5.36,5.36,0,0,1,.5,4.6,4.26,4.26,0,0,1-1.39,1.75l3.73,4.89-4.05.58-3-4.26-1.39.2.66,4.6Zm2.55-8,1.31-.18c1.46-.21,2.1-.92,1.93-2.13a1.31,1.31,0,0,0-.73-1.14,3.18,3.18,0,0,0-1.68-.1l-1.31.18Z"/><path class="cls-2" d="M262.75,190.16a8.37,8.37,0,0,1-2.76-.11,7,7,0,0,1-2.7-1.14l1.72-2.77a7.34,7.34,0,0,0,1.73.74,4.22,4.22,0,0,0,1.66.14,2.07,2.07,0,0,0,1.16-.42.82.82,0,0,0,.27-.76.75.75,0,0,0-.19-.41,1.26,1.26,0,0,0-.41-.26,3.73,3.73,0,0,0-.62-.21l-.82-.2-1.81-.48a4.8,4.8,0,0,1-1.13-.41,3.91,3.91,0,0,1-1-.7,3.59,3.59,0,0,1-.75-1,3.93,3.93,0,0,1-.41-1.32,3.53,3.53,0,0,1,.15-1.71,4.21,4.21,0,0,1,.86-1.49,5.43,5.43,0,0,1,1.49-1.15,6,6,0,0,1,2-.62,7.09,7.09,0,0,1,2.46.11,6.15,6.15,0,0,1,2.35,1.09l-1.5,2.53a7.24,7.24,0,0,0-1.44-.55,3.83,3.83,0,0,0-1.44-.06,2.1,2.1,0,0,0-1,.38.76.76,0,0,0-.28.75.81.81,0,0,0,.64.67c.38.13.91.27,1.57.42l1.76.42a4.6,4.6,0,0,1,2.18,1.14,3.75,3.75,0,0,1,1,2.25,4.12,4.12,0,0,1-1,3.26,5.22,5.22,0,0,1-1.54,1.19A6.79,6.79,0,0,1,262.75,190.16Z"/><path class="cls-2" d="M269.34,189l2.4-14.27,4.39-.57,6,13.18-3.85.5L277.2,185l-3.85.5-.29,3Zm4.41-7.36-.11,1,2.54-.33-.36-.92c-.25-.64-.52-1.34-.79-2.09s-.53-1.46-.79-2.13h-.08c-.07.73-.13,1.48-.19,2.27S273.84,180.94,273.75,181.62Z"/><path class="cls-2" d="M284.2,187.06l-1.53-13.76,5.21-.57a10.15,10.15,0,0,1,2.13,0,4.82,4.82,0,0,1,1.83.53,3.61,3.61,0,0,1,1.35,1.23,5.4,5.4,0,0,1,.35,4.62,4.25,4.25,0,0,1-1.45,1.7l3.58,5-4.06.45-2.89-4.35-1.39.15.51,4.62Zm2.81-7.9,1.31-.14c1.47-.17,2.13-.85,2-2.07a1.32,1.32,0,0,0-.7-1.16,3.18,3.18,0,0,0-1.68-.16l-1.31.15Z"/><path class="cls-2" d="M300.23,185.43l-.33-4.76-4.8-8.76,3.91-.27,1.22,2.81c.21.52.42,1,.62,1.5l.64,1.51h.08c.15-.55.29-1.08.44-1.59l.43-1.57.82-3,3.83-.26-3.54,9.33.33,4.76Z"/><path class="cls-2" d="M128.22,185.5a1.51,1.51,0,0,1-.94-.32A1.54,1.54,0,0,1,127,183a4.3,4.3,0,0,0,1-2.22V151.48a1.54,1.54,0,0,1,3.08,0v29.38a.41.41,0,0,1,0,.11,7.3,7.3,0,0,1-1.63,3.93A1.51,1.51,0,0,1,128.22,185.5Z"/><path class="cls-2" d="M306.81,220.19a1.54,1.54,0,0,1-1.54-1.54V187.76a1.54,1.54,0,0,1,3.08,0v30.89A1.54,1.54,0,0,1,306.81,220.19Z"/><path class="cls-2" d="M102.27,207.79a1.53,1.53,0,0,1-1.54-1.53l-.18-32.88a1.54,1.54,0,0,1,1.53-1.55,1.57,1.57,0,0,1,1.55,1.53l.18,32.88a1.53,1.53,0,0,1-1.53,1.55Z"/><path class="cls-2" d="M326.22,194.06h0a1.53,1.53,0,0,1-1.53-1.55l.18-23.78a1.54,1.54,0,0,1,3.08,0l-.18,23.78A1.55,1.55,0,0,1,326.22,194.06Z"/><path class="cls-2" d="M325.27,171.73s-29.67,16.35-14.53,20.69c1.14.33,16.47,2.92,15.51-4.66Z"/><path class="cls-2" d="M128.88,154.08l.66,26.78L127,185.24s-35.87-.39-21.46-19.44C105.55,165.8,127.23,157.34,128.88,154.08Z"/><path class="cls-4" d="M233.91,22.12a1.54,1.54,0,0,1-1.54-1.54V13a1.54,1.54,0,1,1,3.08,0v7.55A1.54,1.54,0,0,1,233.91,22.12Z"/><path class="cls-4" d="M278.79,28.75a1.44,1.44,0,0,1-.77-.21,1.53,1.53,0,0,1-.56-2.1l3.84-6.63A1.54,1.54,0,0,1,284,21.35L280.12,28A1.52,1.52,0,0,1,278.79,28.75Z"/><path class="cls-4" d="M318.69,56.89a1.54,1.54,0,0,1-.76-2.89l7.72-4.3a1.54,1.54,0,1,1,1.5,2.69l-7.71,4.3A1.48,1.48,0,0,1,318.69,56.89Z"/><path class="cls-4" d="M333.05,100h-7.21a1.54,1.54,0,1,1,0-3.08h7.21a1.54,1.54,0,0,1,0,3.08Z"/><path class="cls-4" d="M327.73,147.11a1.51,1.51,0,0,1-.74-.19l-7.69-4.22a1.54,1.54,0,0,1,1.48-2.7l7.69,4.22a1.54,1.54,0,0,1-.74,2.89Z"/><path class="cls-4" d="M172.11,28.75a1.53,1.53,0,0,1-1.34-.77l-3.84-6.63a1.54,1.54,0,0,1,2.67-1.54l3.84,6.63a1.54,1.54,0,0,1-.56,2.1A1.47,1.47,0,0,1,172.11,28.75Z"/><path class="cls-4" d="M132.21,56.89a1.46,1.46,0,0,1-.75-.2l-7.72-4.3a1.54,1.54,0,0,1,1.5-2.69L133,54a1.54,1.54,0,0,1-.75,2.89Z"/><path class="cls-4" d="M125.05,100h-7.21a1.54,1.54,0,1,1,0-3.08h7.21a1.54,1.54,0,1,1,0,3.08Z"/><path class="cls-4" d="M147.57,175.44h-1.08a1.54,1.54,0,0,1-1.52-1.56,1.5,1.5,0,0,1,1.56-1.52A79.93,79.93,0,0,0,173.69,168a1.54,1.54,0,1,1,1,2.91A83,83,0,0,1,147.57,175.44Z"/><path class="cls-4" d="M314.16,238.51a50.33,50.33,0,0,1-10.11-1,1.54,1.54,0,1,1,.62-3,47.62,47.62,0,0,0,20-.22,1.54,1.54,0,1,1,.68,3A50.26,50.26,0,0,1,314.16,238.51Z"/><path class="cls-4" d="M334.36,179.84c-.62,0-1.24,0-1.87-.05a1.54,1.54,0,0,1,.18-3.08A29.25,29.25,0,0,0,346.73,174a1.54,1.54,0,1,1,1.3,2.79A32.45,32.45,0,0,1,334.36,179.84Z"/><path class="cls-4" d="M259.52,210.86a1.54,1.54,0,0,1-.24-3.06c8.36-1.36,16.87-2.49,25.3-3.37a1.54,1.54,0,1,1,.32,3.06c-8.37.88-16.83,2-25.13,3.35Z"/><path class="cls-4" d="M109,224.92a14.26,14.26,0,0,1-11.23-5.55,1.54,1.54,0,0,1,2.45-1.87,11.28,11.28,0,0,0,9.36,4.32,1.54,1.54,0,0,1,1.63,1.45,1.56,1.56,0,0,1-1.46,1.63Z"/><path class="cls-5" d="M357.33,63.11a23.11,23.11,0,0,0,9.53-18.68h11.32A34.39,34.39,0,0,1,364,72.27Z"/><path class="cls-6" d="M357.33,63.11a23.11,23.11,0,0,0,9.53-18.68h11.32A34.39,34.39,0,0,1,364,72.27Z"/><path class="cls-3" d="M384.71,149.19a23.08,23.08,0,0,0,17.1,12.13l-1.65,11.2a34.41,34.41,0,0,1-25.48-18.08Z"/><path class="cls-7" d="M384.71,149.19a23.08,23.08,0,0,0,17.1,12.13l-1.65,11.2a34.41,34.41,0,0,1-25.48-18.08Z"/><rect class="cls-8" x="407.36" y="70.4" width="9.5" height="22.03" transform="translate(121.4 384.65) rotate(-57.38)"/><rect class="cls-9" x="407.36" y="70.4" width="9.5" height="22.03" transform="translate(121.4 384.65) rotate(-57.38)"/><rect class="cls-10" x="421.91" y="171.41" width="10.41" height="22.03" transform="translate(891.04 160.8) rotate(154.2)"/><rect class="cls-11" x="421.91" y="171.41" width="10.41" height="22.03" transform="translate(891.04 160.8) rotate(154.2)"/><path class="cls-12" d="M379.36,98.31,377.8,107a36,36,0,0,0-22,3l-3.87-8A44.88,44.88,0,0,1,379.36,98.31Z"/><path class="cls-13" d="M379.36,98.31,377.8,107a36,36,0,0,0-22,3l-3.87-8A44.88,44.88,0,0,1,379.36,98.31Z"/><path class="cls-3" d="M91.73,82.7A23.12,23.12,0,0,1,103,65q-2.85-4.89-5.72-9.77A34.4,34.4,0,0,0,80.47,81.59Z"/><path class="cls-7" d="M91.73,82.7A23.12,23.12,0,0,1,103,65q-2.85-4.89-5.72-9.77A34.4,34.4,0,0,0,80.47,81.59Z"/><path class="cls-5" d="M68.44,169.45a23.07,23.07,0,0,1-12.08,17.13l5.28,10a34.41,34.41,0,0,0,18-25.54Z"/><path class="cls-6" d="M68.44,169.45a23.07,23.07,0,0,1-12.08,17.13l5.28,10a34.41,34.41,0,0,0,18-25.54Z"/><rect class="cls-8" x="40.44" y="68.39" width="9.5" height="22.03" transform="translate(124.03 125.58) rotate(150)"/><rect class="cls-9" x="40.44" y="68.39" width="9.5" height="22.03" transform="translate(124.03 125.58) rotate(150)"/><rect class="cls-12" x="14.9" y="181.91" width="10.41" height="22.03" transform="translate(50.51 1.35) rotate(14.97)"/><rect class="cls-13" x="14.9" y="181.91" width="10.41" height="22.03" transform="translate(50.51 1.35) rotate(14.97)"/><path class="cls-10" d="M62.14,113.28q-.7,4.38-1.43,8.75a36,36,0,0,1,19.77,10.21l6.3-6.24A44.94,44.94,0,0,0,62.14,113.28Z"/><path class="cls-11" d="M62.14,113.28q-.7,4.38-1.43,8.75a36,36,0,0,1,19.77,10.21l6.3-6.24A44.94,44.94,0,0,0,62.14,113.28Z"/><path class="cls-14" d="M397.9,53.5c9.12,1.14,18.44-12.28,14.52-16.1-5.62-5.5-17.06,7.46.28,10.43,5.83,1,12-3.23,13.61-8.91"/><line class="cls-15" x1="430.95" y1="107.47" x2="430.95" y2="125.68"/><line class="cls-15" x1="440.06" y1="116.58" x2="421.84" y2="116.58"/><line class="cls-15" x1="256.65" y1="16.37" x2="256.65" y2="27.87"/><line class="cls-15" x1="262.4" y1="22.12" x2="250.9" y2="22.12"/><path class="cls-16" d="M367.52,232.84a15.06,15.06,0,0,0,18.17-4.18,6.84,6.84,0,0,0,1.66-5.34c-.39-1.89-2.5-3.46-4.27-2.7-1.95.83-2.05,3.87-.56,5.39s3.86,1.77,6,1.51A16.23,16.23,0,0,0,401,218.44a6.94,6.94,0,0,0,.77-4.12,3.35,3.35,0,0,0-2.76-2.84c-2.34-.2-3.74,3.08-2.53,5.08s3.89,2.63,6.21,2.32a11,11,0,0,0,4.28-20.16"/><line class="cls-15" x1="375.07" y1="185.1" x2="375.07" y2="194.52"/><line class="cls-15" x1="379.78" y1="189.81" x2="370.36" y2="189.81"/><path class="cls-17" d="M397.61,123.25c6.36,5.7-4.77,8.64,1,15.1"/><path class="cls-17" d="M319.88,13.31c-.59,12.94-10.67.16-10.61,11.44"/><line class="cls-17" x1="344.35" y1="36.67" x2="344.35" y2="36.67"/><line class="cls-17" x1="367.52" y1="126.79" x2="367.52" y2="126.79"/><line class="cls-17" x1="427.11" y1="231.62" x2="427.11" y2="231.62"/><line class="cls-17" x1="435.11" y1="154.64" x2="435.11" y2="154.64"/><path class="cls-14" d="M72.75,233.51c-9.16.74-17.9-13-13.83-16.71,5.85-5.25,16.73,8.18-.71,10.41-5.87.76-11.85-3.73-13.23-9.49"/><line class="cls-15" x1="25.37" y1="129.24" x2="25.37" y2="147.45"/><line class="cls-15" x1="16.26" y1="138.35" x2="34.47" y2="138.35"/><line class="cls-15" x1="132.1" y1="16.91" x2="132.1" y2="28.42"/><line class="cls-15" x1="126.35" y1="22.66" x2="137.85" y2="22.66"/><path class="cls-16" d="M82.48,48.77a15.12,15.12,0,0,1-13.62-5.66,6.85,6.85,0,0,1-1.61-5.37c.4-1.88,2.53-3.42,4.29-2.65,1.95.85,2,3.89.51,5.39s-3.87,1.74-6,1.45a16.21,16.21,0,0,1-12.39-9.2A7,7,0,0,1,53,28.6a3.34,3.34,0,0,1,2.79-2.81c2.33-.18,3.71,3.12,2.48,5.11S54.3,33.49,52,33.15a11.25,11.25,0,0,1-9.15-8.66"/><line class="cls-15" x1="103.03" y1="231.65" x2="103.03" y2="241.07"/><line class="cls-15" x1="98.32" y1="236.36" x2="107.74" y2="236.36"/><path class="cls-17" d="M38.31,50.82c-10.63-11.4-12.41,7-20.73-.66"/><path class="cls-17" d="M63.45,144.44c3.24,7.9,9.75-1.59,13.88,6"/><path class="cls-17" d="M199,25.34c.9-12.93-10.58-1.39-9.23-12.59"/><line class="cls-17" x1="103.34" y1="40.93" x2="103.34" y2="40.93"/><line class="cls-17" x1="388.24" y1="82.7" x2="388.24" y2="82.7"/><line class="cls-17" x1="81.91" y1="104.74" x2="81.91" y2="104.74"/><line class="cls-17" x1="42.84" y1="167.2" x2="42.84" y2="167.2"/><line class="cls-17" x1="25.37" y1="231.62" x2="25.37" y2="231.62"/><line class="cls-17" x1="25.37" y1="92.02" x2="25.37" y2="92.02"/></svg>