<svg xmlns="http://www.w3.org/2000/svg" viewBox="0 0 530 100" enable-background="new 0 0 530 100"><defs><radialGradient id="0" cx="-1058.49" cy="-12022.53" r="77.926" gradientTransform="matrix(1.1852 0 0-1.1852 1564.41-14233.16)" gradientUnits="userSpaceOnUse"><stop stop-color="#fff" stop-opacity=".1"/><stop offset="1" stop-color="#fff" stop-opacity="0"/></radialGradient></defs><switch><g><path fill="none" stroke="#333" stroke-linejoin="round" stroke-linecap="round" stroke-width="2" stroke-miterlimit="10" d="m18 80v-60"/><path fill="none" stroke="#333" stroke-linejoin="round" stroke-linecap="round" stroke-width="2" stroke-miterlimit="10" d="m82 80v-60"/><path d="m93 62h-86c-3.314 0-6-2.686-6-6v-12c0-3.314 2.686-6 6-6h86c3.314 0 6 2.686 6 6v12c0 3.314-2.686 6-6 6z" fill="#fff" stroke="#333" stroke-linejoin="round" stroke-linecap="round" stroke-width="2" stroke-miterlimit="10"/><circle cx="82" cy="50" r="5" fill="#ccc" stroke="#333" stroke-linejoin="round" stroke-linecap="round" stroke-width="2" stroke-miterlimit="10"/><path fill="#fca326" stroke="#333" stroke-linejoin="round" stroke-linecap="round" stroke-width="2" stroke-miterlimit="10" d="m58.999 47h6v6h-6z"/><path fill="#fcba72" stroke="#333" stroke-linejoin="round" stroke-linecap="round" stroke-width="2" stroke-miterlimit="10" d="m46.999 47h6v6h-6z"/><path fill="#fcd3a7" stroke="#333" stroke-linejoin="round" stroke-linecap="round" stroke-width="2" stroke-miterlimit="10" d="m34.999 47h6v6h-6z"/><path fill="none" stroke="#ccc" stroke-linejoin="round" stroke-linecap="round" stroke-width="2" stroke-miterlimit="10" d="m23 55v-10"/><path fill="none" stroke="#ccc" stroke-linejoin="round" stroke-linecap="round" stroke-width="2" stroke-miterlimit="10" d="m18 55v-10"/><path fill="none" stroke="#ccc" stroke-linejoin="round" stroke-linecap="round" stroke-width="2" stroke-miterlimit="10" d="m13 55v-10"/><path d="m93 29h-86c-3.314 0-6-2.686-6-6v-12c0-3.314 2.686-6 6-6h86c3.314 0 6 2.686 6 6v12c0 3.313-2.686 6-6 6z" fill="#fff" stroke="#333" stroke-linejoin="round" stroke-linecap="round" stroke-width="2" stroke-miterlimit="10"/><circle cx="82" cy="17" r="5" fill="#ccc" stroke="#333" stroke-linejoin="round" stroke-linecap="round" stroke-width="2" stroke-miterlimit="10"/><path fill="#fca326" stroke="#333" stroke-linejoin="round" stroke-linecap="round" stroke-width="2" stroke-miterlimit="10" d="m58.999 14h6v6h-6z"/><path fill="#fcba72" stroke="#333" stroke-linejoin="round" stroke-linecap="round" stroke-width="2" stroke-miterlimit="10" d="m46.999 14h6v6h-6z"/><path fill="#fcd3a7" stroke="#333" stroke-linejoin="round" stroke-linecap="round" stroke-width="2" stroke-miterlimit="10" d="m34.999 14h6v6h-6z"/><path fill="none" stroke="#ccc" stroke-linejoin="round" stroke-linecap="round" stroke-width="2" stroke-miterlimit="10" d="m23 22v-10"/><path fill="none" stroke="#ccc" stroke-linejoin="round" stroke-linecap="round" stroke-width="2" stroke-miterlimit="10" d="m18 22v-10"/><path fill="none" stroke="#ccc" stroke-linejoin="round" stroke-linecap="round" stroke-width="2" stroke-miterlimit="10" d="m13 22v-10"/><path d="m93 95h-86c-3.314 0-6-2.686-6-6v-12c0-3.314 2.686-6 6-6h86c3.314 0 6 2.686 6 6v12c0 3.314-2.686 6-6 6z" fill="#fff" stroke="#333" stroke-linejoin="round" stroke-linecap="round" stroke-width="2" stroke-miterlimit="10"/><circle cx="82" cy="83" r="5" fill="#ccc" stroke="#333" stroke-linejoin="round" stroke-linecap="round" stroke-width="2" stroke-miterlimit="10"/><path fill="#fca326" stroke="#333" stroke-linejoin="round" stroke-linecap="round" stroke-width="2" stroke-miterlimit="10" d="m58.999 80h6v6h-6z"/><path fill="#fcba72" stroke="#333" stroke-linejoin="round" stroke-linecap="round" stroke-width="2" stroke-miterlimit="10" d="m46.999 80h6v6h-6z"/><path fill="#fcd3a7" stroke="#333" stroke-linejoin="round" stroke-linecap="round" stroke-width="2" stroke-miterlimit="10" d="m34.999 80h6v6h-6z"/><path fill="none" stroke="#ccc" stroke-linejoin="round" stroke-linecap="round" stroke-width="2" stroke-miterlimit="10" d="m23 88v-10"/><path fill="none" stroke="#ccc" stroke-linejoin="round" stroke-linecap="round" stroke-width="2" stroke-miterlimit="10" d="m18 88v-10"/><path fill="none" stroke="#ccc" stroke-linejoin="round" stroke-linecap="round" stroke-width="2" stroke-miterlimit="10" d="m13 88v-10"/><g><path d="m172.99 40.41c0 1.452.147 2.611.443 3.472.296.863.716 1.795 1.261 2.794.182.318.271.612.271.885 0 .409-.249.796-.75 1.159l-2.451 1.635c-.363.227-.703.34-1.023.34-.407 0-.794-.182-1.157-.545-.545-.545-1.012-1.148-1.397-1.806-.385-.656-.783-1.417-1.192-2.28-3.043 3.588-6.858 5.381-11.442 5.381-3.272 0-5.861-.932-7.768-2.794-1.909-1.862-2.863-4.36-2.863-7.494 0-3.314 1.183-5.981 3.546-8 2.358-2.02 5.539-3.03 9.536-3.03 1.317 0 2.689.102 4.122.307 1.43.205 2.916.489 4.46.852v-2.862c0-2.95-.612-5.03-1.84-6.233-1.226-1.201-3.337-1.804-6.335-1.804-1.361 0-2.758.169-4.189.509-1.43.343-2.827.783-4.189 1.33-.638.271-1.092.443-1.364.509-.274.069-.476.102-.612.102-.547 0-.819-.409-.819-1.226v-1.906c0-.636.091-1.09.271-1.364.182-.271.547-.545 1.09-.816 1.364-.683 2.998-1.272 4.907-1.773 1.906-.498 3.928-.75 6.06-.75 4.633 0 8.03 1.057 10.186 3.168 2.155 2.113 3.234 5.305 3.234 9.572v12.673zm-15.804 5.926c1.272 0 2.611-.238 4.02-.716 1.408-.476 2.634-1.303 3.679-2.487.634-.725 1.079-1.555 1.328-2.485.249-.932.374-2.055.374-3.372v-1.635c-1.134-.274-2.327-.487-3.575-.647-1.25-.158-2.465-.238-3.646-.238-2.589 0-4.52.523-5.79 1.566-1.272 1.045-1.908 2.545-1.908 4.495 0 1.817.478 3.192 1.43 4.122.954.932 2.317 1.397 4.088 1.397m31.27 4.224c-.681 0-1.181-.127-1.497-.376-.32-.249-.592-.761-.819-1.533l-9.129-30.11c-.229-.772-.34-1.295-.34-1.566 0-.636.318-.954.952-.954h3.817c.725 0 1.237.125 1.533.374.294.249.554.761.783 1.533l6.54 25.75 6.06-25.75c.18-.772.432-1.283.75-1.533.316-.249.839-.374 1.566-.374h3.134c.725 0 1.248.125 1.566.374.318.249.567.761.75 1.533l6.13 26.09 6.744-26.09c.227-.772.487-1.283.783-1.533.294-.249.807-.374 1.533-.374h3.61c.636 0 .954.318.954.954 0 .18-.022.385-.067.612-.047.229-.136.545-.274.954l-9.4 30.11c-.227.772-.501 1.283-.819 1.533-.318.249-.816.376-1.499.376h-3.337c-.727 0-1.25-.136-1.568-.409-.316-.274-.567-.794-.75-1.568l-6.06-25.07-5.995 25.07c-.182.774-.434 1.295-.75 1.568-.318.274-.841.409-1.566.409h-3.339zm50 1.021c-2.044 0-4.04-.227-5.995-.681-1.953-.454-3.452-.976-4.498-1.568-.634-.363-1.032-.725-1.19-1.09-.16-.363-.24-.725-.24-1.088v-1.978c0-.816.296-1.226.885-1.226.227 0 .467.047.716.136.249.093.578.229.99.409 1.315.592 2.745 1.045 4.289 1.364 1.544.318 3.09.476 4.633.476 2.453 0 4.349-.432 5.688-1.295 1.339-.861 2.01-2.089 2.01-3.679 0-1.09-.351-1.997-1.054-2.725-.705-.725-2.01-1.408-3.917-2.044l-5.654-1.771c-2.861-.908-4.938-2.224-6.233-3.951-1.295-1.726-1.942-3.61-1.942-5.654 0-1.635.352-3.076 1.057-4.326.705-1.248 1.635-2.316 2.792-3.201 1.159-.885 2.511-1.555 4.053-2.01 1.546-.452 3.179-.681 4.907-.681.861 0 1.737.058 2.62.171.888.113 1.728.263 2.522.443.794.182 1.533.387 2.213.612.681.229 1.228.456 1.635.683.545.318.93.636 1.159.954.227.318.34.75.34 1.295v1.837c0 .819-.296 1.228-.885 1.228-.318 0-.819-.16-1.499-.478-2.224-.997-4.725-1.497-7.494-1.497-2.224 0-3.951.363-5.176 1.088-1.226.727-1.84 1.886-1.84 3.477 0 1.088.387 2.01 1.159 2.758.772.75 2.202 1.464 4.291 2.147l5.517 1.771c2.816.908 4.827 2.158 6.03 3.746 1.201 1.59 1.804 3.406 1.804 5.45 0 1.682-.34 3.192-1.021 4.531-.681 1.339-1.624 2.487-2.827 3.439-1.203.954-2.645 1.682-4.326 2.18-1.68.5-3.52.749-5.518.749" fill="#1f2b3b"/><path d="m245.81 70.51c-12.817 9.458-31.397 14.487-47.4 14.487-22.424 0-42.617-8.288-57.896-22.09-1.201-1.086-.131-2.565 1.312-1.724 16.485 9.592 36.874 15.371 57.932 15.371 14.205 0 29.818-2.947 44.19-9.04 2.166-.919 3.983 1.425 1.863 2.994" fill="#f28318" fill-rule="evenodd"/><path d="m251.15 64.42c-1.639-2.098-10.837-.994-14.968-.498-1.252.149-1.446-.945-.318-1.737 7.336-5.152 19.359-3.666 20.756-1.94 1.406 1.742-.371 13.793-7.245 19.544-1.059.885-2.064.414-1.595-.754 1.546-3.864 5.01-12.515 3.37-14.615" fill="#f28318" fill-rule="evenodd"/></g><g><path d="m355.8 73.996l-9.204 15.999h-24.1c-2.15 0-4.136-1.151-5.205-3.02l-19.496-33.992c-1.058-1.848-1.058-4.119 0-5.967l7.419-12.931 9.158 15.912 13.805 23.996h27.626" fill="#f7af0c"/><path d="m386.19 52.986l-19.496 33.997c-1.068 1.866-3.055 3.02-5.205 3.02h-14.895l9.204-15.999 13.815-24-13.816-23.996h18.336l12.05 21.02c1.067 1.845 1.069 4.12.005 5.967" fill="#e12c29"/><path d="m374.14 26h-45.962l-13.805 23.996-9.158-15.917 12.08-21.06c1.068-1.866 3.055-3.02 5.205-3.02h38.998c2.15.002 4.135 1.152 5.205 3.02l7.44 12.982" fill="#346df0"/><path d="m355.8 26l13.806 23.996-13.811 23.996h-27.616l-13.81-23.996 13.805-23.996h27.626" fill="#d8d8d8"/><circle cx="341.99" cy="50" r="12" fill="#fff"/><path d="m317.29 13.518c1.068-1.866 3.055-3.02 5.205-3.02h38.998c2.15.002 4.135 1.152 5.205 3.02l7.158 12.486h.286l-7.445-12.982c-1.068-1.866-3.055-3.02-5.205-3.02h-38.998c-2.15 0-4.136 1.151-5.205 3.02l-12.08 21.06.143.251 11.935-20.816" opacity=".2" fill="#fff"/><path fill="#14146b" fill-opacity=".2" d="m314.37 50l13.81-24h45.96l-.29-.497h-45.67l-13.81 23.997"/><path d="m297.79 47.52l7.419-12.936 9.158 15.917 13.805 23.996h27.335l.291-.501h-27.626l-13.805-23.991-9.158-15.917-7.419 12.931c-.559.984-.83 2.106-.782 3.237.038-.962.306-1.9.782-2.736" opacity=".2" fill="#fff"/><path d="m346.88 89.49h-24.39c-2.15 0-4.136-1.151-5.205-3.02l-19.496-33.992c-.475-.836-.744-1.774-.782-2.736-.052 1.131.219 2.254.782 3.237l19.496 33.997c1.068 1.866 3.055 3.02 5.205 3.02h24.1l.287-.506" fill="#ae230d" opacity=".2"/><g opacity=".2"><path fill="#2f1d1a" d="m369.89 50l-13.8-24h-.29l13.81 24z"/><path d="m386.19 52.48l-19.496 33.997c-1.068 1.866-3.055 3.02-5.205 3.02h-14.603l-.292.501h14.895c2.15-.002 4.135-1.152 5.205-3.02l19.496-33.997c.561-.984.832-2.106.782-3.237-.039.962-.307 1.9-.782 2.736" fill="#2f1d1a"/></g><g opacity=".2"><path d="m374.14 26.5l12.05 21.02c.475.836.744 1.774.782 2.736.052-1.131-.219-2.254-.782-3.237l-12.05-21.02h-18.336l.291.501" fill="#fff"/><path fill="#fff" d="m355.8 74.5l14.09-24.5h-.28l-13.81 23.996-9.2 15.999h.28z"/></g><path d="m386.19 47.01l-12.05-21.02-7.445-12.982c-1.068-1.866-3.055-3.02-5.205-3.02h-38.993c-2.15 0-4.136 1.151-5.205 3.02l-19.496 33.997c-1.058 1.848-1.058 4.119 0 5.967l19.496 33.997c1.068 1.866 3.055 3.02 5.205 3.02h38.998c2.15-.002 4.135-1.152 5.205-3.02l19.496-33.997c1.06-1.848 1.058-4.12-.004-5.967" fill="url(#0)"/></g><g><path d="m474.78 85.73c13.27-2.344 24.23-4.284 24.356-4.311l.229-.049-12.528-14.902c-6.89-8.196-12.528-14.933-12.528-14.972 0-.074 12.936-35.697 13.01-35.824.024-.042 8.828 15.16 21.34 36.843 11.714 20.303 21.372 37.04 21.462 37.2l.163.287-39.815-.005-39.815-.005c0 0 24.13-4.262 24.13-4.262" fill="#0773b9"/><path d="m427 81.18c0-.021 5.903-10.268 13.12-22.772l13.12-22.734 15.287-12.829c8.408-7.06 15.31-12.838 15.338-12.848.028-.011-.083.268-.246.619-.163.351-7.633 16.373-16.6 35.605l-16.304 34.968-11.856.015c-6.52.008-11.855-.003-11.855-.024" fill="#0773b9"/></g></g></switch></svg>