<svg xmlns="http://www.w3.org/2000/svg" viewBox="0 0 34 34"><path d="M15.28,13.92H4.6A1.6,1.6,0,0,0,3,15.52v5.92A1.6,1.6,0,0,0,4.6,23H6.08L7.84,25,9.59,23h4.95a1.6,1.6,0,0,0,1.61-1.6V14.79A.87.87,0,0,0,15.28,13.92Z" fill="#ffc46c"/><g fill="#fc6d26"><path d="M9.1,26.49A1.53,1.53,0,0,1,8,26L6.22,24H5A3.53,3.53,0,0,1,1.5,20.51V13.05A3.53,3.53,0,0,1,5,9.53H17.56a3.53,3.53,0,0,1,3.52,3.52v7.46A3.53,3.53,0,0,1,17.56,24H12l-1.77,2A1.51,1.51,0,0,1,9.1,26.49ZM5,12.53a.52.52,0,0,0-.52.52v7.46A.53.53,0,0,0,5,21H6.89A1.51,1.51,0,0,1,8,21.53l1.1,1.22,1.1-1.22A1.51,1.51,0,0,1,11.31,21h6.25a.52.52,0,0,0,.52-.53V13.05a.52.52,0,0,0-.52-.52Z"/><path d="M24.9,34a1.48,1.48,0,0,1-1.11-.5l-1.77-2H16.44A3.53,3.53,0,0,1,12.92,28V22.54a1.5,1.5,0,0,1,3,0V28a.52.52,0,0,0,.52.52h6.25a1.48,1.48,0,0,1,1.11.5l1.1,1.22L26,29a1.48,1.48,0,0,1,1.11-.5H29A.52.52,0,0,0,29.5,28V21.47a.53.53,0,0,0-.52-.53h-9.4a1.5,1.5,0,0,1,0-3H29a3.53,3.53,0,0,1,3.52,3.53V28A3.53,3.53,0,0,1,29,31.54h-1.2L26,33.5A1.5,1.5,0,0,1,24.9,34Z"/><path d="M29,16.06H19.91a1.5,1.5,0,0,1,0-3H29a.53.53,0,0,0,.52-.53V6A.52.52,0,0,0,29,5.46H27.11A1.48,1.48,0,0,1,26,5L24.9,3.74,23.8,5a1.48,1.48,0,0,1-1.11.5H16.44a.52.52,0,0,0-.52.52v5a1.5,1.5,0,0,1-3,0V6a3.53,3.53,0,0,1,3.52-3.52H22l1.77-2A1.55,1.55,0,0,1,26,.5l1.76,2H29A3.53,3.53,0,0,1,32.5,6v6.55A3.53,3.53,0,0,1,29,16.06Z"/></g></svg>