<svg xmlns="http://www.w3.org/2000/svg" viewBox="0 0 34 34"><g fill="#ffc46c"><path d="M1.5,6.4H27.32a1.17,1.17,0,0,1,1.17,1.17V10a0,0,0,0,1,0,0H1.5a0,0,0,0,1,0,0V6.4A0,0,0,0,1,1.5,6.4Z"/><path d="m17.43 14.22l1.24 3.27 1.92 1.84-2.55 3.43.6 4.85-3.15-2.29-3.15 2.29.6-4.85-2.55-3.43 3.53-.7 3.51-4.41"/></g><g fill="#fc6d26"><path d="M28.5,34H5.5A5.51,5.51,0,0,1,0,28.5V7.5A5.51,5.51,0,0,1,5.5,2h23A5.51,5.51,0,0,1,34,7.5v21A5.51,5.51,0,0,1,28.5,34ZM5.5,5A2.5,2.5,0,0,0,3,7.5v21A2.5,2.5,0,0,0,5.5,31h23A2.5,2.5,0,0,0,31,28.5V7.5A2.5,2.5,0,0,0,28.5,5Z"/><path d="M31.91,11.46H1.5a1.5,1.5,0,0,1,0-3H31.91a1.5,1.5,0,0,1,0,3Z"/><path d="M8.92,7.2a1.5,1.5,0,0,1-1.5-1.5V1.5a1.5,1.5,0,0,1,3,0V5.7A1.5,1.5,0,0,1,8.92,7.2Z"/><path d="M25.08,7.2a1.5,1.5,0,0,1-1.5-1.5V1.5a1.5,1.5,0,0,1,3,0V5.7A1.5,1.5,0,0,1,25.08,7.2Z"/><path d="M13.08,29.11a1.5,1.5,0,0,1-.88-.29,1.53,1.53,0,0,1-.6-1.47l.7-4.06-3-2.88a1.5,1.5,0,0,1,.83-2.56l4.08-.59,1.82-3.7a1.51,1.51,0,0,1,1.35-.84h0a1.51,1.51,0,0,1,1.35.84l1.82,3.7,4.08.59a1.5,1.5,0,0,1,.83,2.56l-3,2.88.7,4.06a1.53,1.53,0,0,1-.6,1.47,1.5,1.5,0,0,1-1.58.11L17.43,27l-3.65,1.92A1.46,1.46,0,0,1,13.08,29.11Zm.54-8.73L15,21.69A1.52,1.52,0,0,1,15.39,23l-.32,1.84L16.73,24a1.51,1.51,0,0,1,1.4,0l1.66.87L19.47,23a1.52,1.52,0,0,1,.43-1.33l1.34-1.31-1.85-.27a1.5,1.5,0,0,1-1.13-.82l-.83-1.68-.83,1.68a1.5,1.5,0,0,1-1.13.82Z"/></g></svg>