<svg xmlns="http://www.w3.org/2000/svg" viewBox="0 0 34 34"><g fill="#ffc46c"><path d="m19.37 9.29l4.38-4.38a8.84 8.84 0 0 1 3.07 2.79 1 1 0 0 1 -.1 1.24l-3.89 3.9"/><path d="m14.49 24.87l-6.26 6.26a14.53 14.53 0 0 1 -5.35 -5.35l6.33-6.33"/><path d="m22.86 21.4l6.26 6.26a6.23 6.23 0 0 1 -3.47 3.47l-6.33-6.32"/><path d="M9.14,14.62,2.88,8.36h0A5.75,5.75,0,0,1,6.2,5l6.33,6.33"/></g><g fill="#fc6d26"><path d="M3.58,26.27a1.49,1.49,0,0,1-1.29-.75A17,17,0,0,1,2.23,8.57a1.5,1.5,0,1,1,2.61,1.49,14,14,0,0,0,0,14,1.49,1.49,0,0,1-1.3,2.25Z"/><path d="M17 34A17 17 0 0 1 8.28 31.6 1.5 1.5 0 0 1 9.82 29a14 14 0 0 0 14.24 .07 1.5 1.5 0 1 1 1.52 2.59A17 17 0 0 1 17 34"/><path d="M30.33,26.42a1.54,1.54,0,0,1-.77-.21A1.51,1.51,0,0,1,29,24.15,14,14,0,0,0,29,9.82,1.5,1.5,0,0,1,31.6,8.28a17,17,0,0,1,0,17.4A1.49,1.49,0,0,1,30.33,26.42Z"/><path d="M9,5.24a1.52,1.52,0,0,1-1.29-.72,1.5,1.5,0,0,1,.51-2.06,16.94,16.94,0,0,1,17.37-.15A1.5,1.5,0,1,1,24.05,4.9,14,14,0,0,0,9.74,5,1.46,1.46,0,0,1,9,5.24Z"/><path d="M17 25.45A8.45 8.45 0 1 1 23 23 8.46 8.46 0 0 1 17 25.45m0-13.9a5.45 5.45 0 1 0 3.86 1.59A5.46 5.46 0 0 0 17 11.55m4.92 10.37"/><path d="M24.18,16.68a1.48,1.48,0,0,1-1.06-.44,1.51,1.51,0,0,1,0-2.12l6-6a12.88,12.88,0,0,0-3.23-3.23l-6,6a1.5,1.5,0,1,1-2.12-2.12L24.59,2a1.5,1.5,0,0,1,1.81-.24,16,16,0,0,1,5.9,5.91,1.49,1.49,0,0,1-.24,1.8l-6.81,6.82A1.49,1.49,0,0,1,24.18,16.68Z"/><path d="M8.23,32.63a1.42,1.42,0,0,1-.74-.2,16,16,0,0,1-5.91-5.9,1.5,1.5,0,0,1,.24-1.81L8.9,17.64A1.5,1.5,0,0,1,11,19.76L4.79,26A13,13,0,0,0,8,29.22l6.49-6.48a1.49,1.49,0,0,1,2.12,0,1.51,1.51,0,0,1,0,2.12L9.29,32.19A1.47,1.47,0,0,1,8.23,32.63Z"/><path d="M25.65,32.63a1.49,1.49,0,0,1-1.06-.44l-6.8-6.8a1.5,1.5,0,0,1,2.12-2.12l5.95,5.95A12.88,12.88,0,0,0,29.09,26l-6-6a1.51,1.51,0,0,1,0-2.12,1.49,1.49,0,0,1,2.12,0l6.83,6.83a1.5,1.5,0,0,1,.24,1.81,16.05,16.05,0,0,1-5.9,5.9A1.43,1.43,0,0,1,25.65,32.63Z"/><path d="M9.72,16.7a1.48,1.48,0,0,1-1.06-.44L1.82,9.42a1.49,1.49,0,0,1-.24-1.8A16,16,0,0,1,7.49,1.71,1.48,1.48,0,0,1,9.29,2l7.19,7.18a1.5,1.5,0,1,1-2.12,2.12L8,4.92A13,13,0,0,0,4.79,8.15l6,6a1.49,1.49,0,0,1,0,2.12A1.45,1.45,0,0,1,9.72,16.7Z"/></g></svg>