<svg xmlns="http://www.w3.org/2000/svg" viewBox="0 0 34 34"><g fill="#ffc46c"><path d="M7.26,28.12h18a1.11,1.11,0,0,1,1.11,1.11V32.5a0,0,0,0,1,0,0H7.26a2.19,2.19,0,0,1-2.19-2.19v0A2.19,2.19,0,0,1,7.26,28.12Z"/><path d="M20.78,14.86a.37.37,0,0,1-.14.43l-5,3.6-4.95-3.6a.39.39,0,0,1-.14-.43l1.71-5.25a.19.19,0,0,1,.37,0l1.13,3.49h3.76l1.14-3.49a.19.19,0,0,1,.37,0Z"/></g><g fill="#fc6d26"><path d="M4.5 30.35A1.5 1.5 0 0 1 3 28.85V5.15A5.16 5.16 0 0 1 8.15 0H29.5A1.5 1.5 0 0 1 31 1.5V25.21a1.5 1.5 0 0 1 -3 0V3H8.15A2.15 2.15 0 0 0 6 5.15v23.7A1.5 1.5 0 0 1 4.5 30.35"/><path d="M29.5,34H8.15a5.15,5.15,0,1,1,0-10.29H29.5a1.5,1.5,0,0,1,1.5,1.5V32.5A1.5,1.5,0,0,1,29.5,34ZM8.15,26.71a2.15,2.15,0,1,0,0,4.29H28V26.71Z"/></g><g data-name="path74"><path d="M17,20.72a1.5,1.5,0,0,1-.88-.29L9.9,15.91a2,2,0,0,1-.72-2.22L11.32,7.1a1.75,1.75,0,0,1,3.32,0l1.09,3.34h2.54L19.36,7.1A1.73,1.73,0,0,1,21,5.9a1.69,1.69,0,0,1,1.66,1.19l2.15,6.6h0a2,2,0,0,1-.72,2.22l-6.22,4.52A1.5,1.5,0,0,1,17,20.72Zm-4.74-6.8L17,17.36l4.74-3.44L21,11.7l-.23.71a1.5,1.5,0,0,1-1.43,1H14.64a1.5,1.5,0,0,1-1.43-1L13,11.7Zm10-5.9h0Z" fill="#fc6d26"/></g></svg>