<svg xmlns="http://www.w3.org/2000/svg" viewBox="0 0 34 34"><path d="M28.5,9.15V25.54H22.87v5.11l-6.44-5.11H5.5a4,4,0,0,1-4-4V7.36H26.7A1.8,1.8,0,0,1,28.5,9.15Z" fill="#ffc46c"/><g fill="#fc6d26"><path d="M22.87,32.15a1.47,1.47,0,0,1-.93-.33l-6-4.78H5.5A5.51,5.51,0,0,1,0,21.54V7.35a5.51,5.51,0,0,1,5.5-5.5h23A5.51,5.51,0,0,1,34,7.35V21.54A5.51,5.51,0,0,1,28.5,27H24.37v3.61A1.49,1.49,0,0,1,23.53,32,1.52,1.52,0,0,1,22.87,32.15ZM5.5,4.85A2.5,2.5,0,0,0,3,7.35V21.54A2.5,2.5,0,0,0,5.5,24H16.43a1.53,1.53,0,0,1,.94.32l4,3.18v-2a1.5,1.5,0,0,1,1.5-1.5H28.5a2.5,2.5,0,0,0,2.5-2.5V7.35a2.5,2.5,0,0,0-2.5-2.5Z"/><path d="M24.15,13.5H9.85a1.5,1.5,0,0,1,0-3h14.3a1.5,1.5,0,0,1,0,3Z"/><path d="M19.4,18.66H9.85a1.5,1.5,0,1,1,0-3H19.4a1.5,1.5,0,0,1,0,3Z"/></g></svg>