<svg xmlns="http://www.w3.org/2000/svg" viewBox="0 0 34 34"><g fill="#ffc46c"><circle cx="15.89" cy="8.43" r="3.82"/><circle cx="5.33" cy="26.75" r="3.83"/><circle cx="26.45" cy="26.75" r="3.83"/></g><g fill="#fc6d26"><path d="M17 13.76a6.44 6.44 0 1 1 6.44 -6.44A6.45 6.45 0 0 1 17 13.76m0-9.88a3.44 3.44 0 1 0 3.44 3.44A3.44 3.44 0 0 0 17 3.88"/><path d="M6.44 32.08a6.44 6.44 0 1 1 6.44 -6.44A6.45 6.45 0 0 1 6.44 32.08m0-9.88a3.44 3.44 0 1 0 3.44 3.44A3.44 3.44 0 0 0 6.44 22.2"/><path d="M27.56 32.08A6.44 6.44 0 1 1 34 25.64 6.45 6.45 0 0 1 27.56 32.08m0-9.88A3.44 3.44 0 1 0 31 25.64 3.44 3.44 0 0 0 27.56 22.2"/><path d="M17,33.12a13.68,13.68,0,0,1-7.63-2.3A1.5,1.5,0,0,1,11,28.32a10.8,10.8,0,0,0,12.13-.13,1.5,1.5,0,0,1,1.71,2.46A13.65,13.65,0,0,1,17,33.12Z"/><path d="M29.22,22.1h-.16a1.51,1.51,0,0,1-1.34-1.65,10,10,0,0,0,.06-1.1,10.82,10.82,0,0,0-6.21-9.76,1.5,1.5,0,1,1,1.27-2.72,13.84,13.84,0,0,1,7.94,12.48,13.31,13.31,0,0,1-.07,1.41A1.5,1.5,0,0,1,29.22,22.1Z"/><path d="M4.81,22.2a1.5,1.5,0,0,1-1.49-1.34,12.73,12.73,0,0,1-.08-1.51A13.77,13.77,0,0,1,11.46,6.74a1.5,1.5,0,1,1,1.21,2.75,10.77,10.77,0,0,0-6.43,9.86,11.51,11.51,0,0,0,.06,1.18A1.51,1.51,0,0,1,5,22.19Z"/></g></svg>