<svg xmlns="http://www.w3.org/2000/svg" viewBox="0 0 34 34"><rect x="2.08" y="5.64" width="13.85" height="26.86" rx="2.11" fill="#ffc46c"/><g fill="#fc6d26"><path d="M17.42,34H5.13A5,5,0,0,1,.09,29V5.05a5,5,0,0,1,5-5H17.42a5.06,5.06,0,0,1,5,5.05V29A5.06,5.06,0,0,1,17.42,34ZM5.13,3a2.05,2.05,0,0,0-2,2.05V29a2.05,2.05,0,0,0,2,2.05H17.42a2.05,2.05,0,0,0,2-2.05V5.05a2.05,2.05,0,0,0-2-2Z"/><path d="M20.56,32a1.5,1.5,0,0,1-1.19-2.41L30.5,14.93a2,2,0,0,0,.39-1.52,2,2,0,0,0-.8-1.36L19.15,3.87a1.5,1.5,0,1,1,1.79-2.4l11,8.18a5,5,0,0,1,1,7.09L21.76,31.4A1.5,1.5,0,0,1,20.56,32Z"/></g></svg>