<svg xmlns="http://www.w3.org/2000/svg" viewBox="0 0 34 34"><path fill="#ffc46c" d="m13.71 1.5h6.73v5.36h-6.73z"/><g fill="#fc6d26"><path d="M20.29,8.36a1.5,1.5,0,0,1-1.5-1.5V3H15.21V6.21a1.5,1.5,0,1,1-3,0V1.5A1.5,1.5,0,0,1,13.71,0h6.58a1.5,1.5,0,0,1,1.5,1.5V6.86A1.5,1.5,0,0,1,20.29,8.36Z"/><path d="M26.45 11.75A1.5 1.5 0 0 1 25.38 9.2l1.46-1.47A1.5 1.5 0 0 1 29 9.85l-1.46 1.46A1.47 1.47 0 0 1 26.45 11.75"/><path d="M7.57,11.77a1.53,1.53,0,0,1-1.07-.44L5.05,9.87A1.5,1.5,0,0,1,7.18,7.75L8.63,9.21a1.5,1.5,0,0,1,0,2.12A1.48,1.48,0,0,1,7.57,11.77Z"/><path d="M17 34A14.45 14.45 0 1 1 31.45 19.55 14.46 14.46 0 0 1 17 34M17 8.1A11.45 11.45 0 1 0 28.45 19.55 11.47 11.47 0 0 0 17 8.1"/><path d="M22.54,23.84a1.5,1.5,0,0,1-1.1-2.52l1.64-1.77-1.64-1.77a1.5,1.5,0,1,1,2.2-2l2.58,2.79a1.51,1.51,0,0,1,0,2l-2.58,2.79A1.49,1.49,0,0,1,22.54,23.84Z"/><path d="M11.46,23.84a1.49,1.49,0,0,1-1.1-.48L7.78,20.57a1.51,1.51,0,0,1,0-2l2.58-2.79a1.5,1.5,0,0,1,2.2,2l-1.64,1.77,1.64,1.77a1.5,1.5,0,0,1-1.1,2.52Z"/><path d="M15.36 25.24A1.5 1.5 0 0 1 14 23.16l3.51-8.38a1.5 1.5 0 1 1 2.77 1.16l-3.51 8.38A1.51 1.51 0 0 1 15.36 25.24"/></g></svg>