<svg xmlns="http://www.w3.org/2000/svg" viewBox="0 0 34 34"><path d="m21.92 18c6-5.2 1.15-13.06-6.83-13a9.68 9.68 0 0 0 -9.51 9.2 9.54 9.54 0 0 0 3.84 8.07 3.93 3.93 0 0 1 1.32 3.06h8.72c.39-1.41-.52-4.73 2.46-7.33" fill="#ffc46c"/><g fill="#fc6d26"><path d="M21.92,26.86H11.46a1.5,1.5,0,0,1,0-3H21.92a1.5,1.5,0,0,1,0,3Z"/><path d="M16.42,34h0a6.81,6.81,0,0,1-6.65-7l.06-3A1.37,1.37,0,0,0,9.24,23a12.73,12.73,0,0,1-5.1-11.11A12.89,12.89,0,0,1,16.36,0h1.26A12.9,12.9,0,0,1,29.9,11.86,12.7,12.7,0,0,1,24.8,23a1.37,1.37,0,0,0-.56,1.11l.06,3a6.8,6.8,0,0,1-6.65,7Zm0-3h1.18a3.72,3.72,0,0,0,2.63-1.17A3.8,3.8,0,0,0,21.3,27.1l-.06-3A4.35,4.35,0,0,1,23,20.57a9.75,9.75,0,0,0,3.9-8.5A9.88,9.88,0,0,0,17.56,3H16.42a9.85,9.85,0,0,0-9.29,9.06,9.75,9.75,0,0,0,3.9,8.5,4.35,4.35,0,0,1,1.77,3.57l-.06,3a3.8,3.8,0,0,0,1,2.72A3.76,3.76,0,0,0,16.44,31Z"/><path d="M16.86,26.86a1.5,1.5,0,0,1-1.5-1.5V14.2a1.5,1.5,0,0,1,3,0V25.36A1.5,1.5,0,0,1,16.86,26.86Z"/><path d="M21.43,16.14a1.48,1.48,0,0,1-1.15-.54l-1.13-1.34L18,15.6a1.48,1.48,0,0,1-1.14.54h0a1.53,1.53,0,0,1-1.15-.53l-1.14-1.35-1.14,1.35a1.5,1.5,0,0,1-2.29-1.94L13.44,11a1.56,1.56,0,0,1,2.29,0l1.13,1.34L18,11a1.51,1.51,0,0,1,1.15-.53h0a1.47,1.47,0,0,1,1.14.53l2.28,2.7a1.49,1.49,0,0,1-.17,2.11A1.52,1.52,0,0,1,21.43,16.14Z"/></g></svg>