<svg xmlns="http://www.w3.org/2000/svg" viewBox="0 0 34 34"><g fill="#ffc46c"><path d="M13,27.74h7.94a2.68,2.68,0,0,1,2.68,2.68V32.5a0,0,0,0,1,0,0H10.33a0,0,0,0,1,0,0V30.42A2.68,2.68,0,0,1,13,27.74Z"/><path d="m23.62 7.19c.05 3.44-.51 10-5.08 13.58a5.25 5.25 0 0 1 -6.44 0c-6.37-5-4.93-15.83-4.93-15.83h14.15a2.3 2.3 0 0 1 2.3 2.25"/></g><g fill="#fc6d26"><path d="M17 23.36a7.79 7.79 0 0 1 -4.8 -1.64C4 15.26 5.64 1.87 5.71 1.3A1.5 1.5 0 0 1 7.2 0H26.83a1.49 1.49 0 0 1 1.48 1.3c.08.57 1.76 14-6.5 20.42A7.77 7.77 0 0 1 17 23.36M8.58 3c-.18 3.3-.07 12 5.48 16.36a4.83 4.83 0 0 0 5.9 0C25.52 15 25.62 6.3 25.45 3"/><path d="M17,28.94a1.5,1.5,0,0,1-1.5-1.5V22.17a1.5,1.5,0,0,1,3,0v5.27A1.5,1.5,0,0,1,17,28.94Z"/><path d="M23.62,34H10.33a1.5,1.5,0,0,1-1.5-1.5V30.42A4.18,4.18,0,0,1,13,26.24h7.94a4.18,4.18,0,0,1,4.18,4.18V32.5A1.5,1.5,0,0,1,23.62,34ZM11.83,31H22.12v-.58a1.18,1.18,0,0,0-1.18-1.18H13a1.18,1.18,0,0,0-1.17,1.18Z"/><path d="M21.78,21.27a1.5,1.5,0,0,1-.12-3c5.5-.44,9.34-4.21,9.34-9.17V7.71H27a1.5,1.5,0,1,1,0-3H32.5A1.5,1.5,0,0,1,34,6.21v2.9c0,6.59-5,11.6-12.1,12.16Z"/><path d="M12.22,21.27H12.1C5,20.71,0,15.7,0,9.11V6.21a1.5,1.5,0,0,1,1.5-1.5H7.05a1.5,1.5,0,1,1,0,3H3v1.4c0,5,3.84,8.73,9.34,9.17a1.5,1.5,0,0,1-.12,3Z"/></g></svg>