<svg xmlns="http://www.w3.org/2000/svg" viewBox="0 0 34 34"><path d="M22.25,16.3a4.85,4.85,0,0,1-4.84-4.85,5.49,5.49,0,0,1,.09-.9l-.5,0A6.47,6.47,0,1,0,23.47,17a6.11,6.11,0,0,0-.06-.86A4.92,4.92,0,0,1,22.25,16.3Z" fill="#ffc46c"/><g fill="#fc6d26"><path d="M22.84 17.27a6 6 0 1 1 6 -6A6 6 0 0 1 22.84 17.27m0-9a3 3 0 1 0 3 3A3 3 0 0 0 22.84 8.24"/><path d="M17,30.89c-6.76,0-13.07-5-16.86-13.27a1.42,1.42,0,0,1,0-1.24C3.93,8.07,10.24,3.11,17,3.11s13.07,5,16.86,13.27a1.49,1.49,0,0,1,0,1.24C30.07,25.93,23.76,30.89,17,30.89ZM3.16,17C6.47,23.84,11.61,27.89,17,27.89S27.53,23.84,30.84,17C27.53,10.16,22.39,6.11,17,6.11S6.47,10.16,3.16,17Z"/><path d="M17,24.58A7.58,7.58,0,0,1,17,9.42a7.93,7.93,0,0,1,1.29.11,1.5,1.5,0,1,1-.5,3,5.27,5.27,0,0,0-.79-.07A4.58,4.58,0,1,0,21.58,17a4.91,4.91,0,0,0,0-.67,1.5,1.5,0,1,1,3-.43,8,8,0,0,1,.08,1.1A7.59,7.59,0,0,1,17,24.58Z"/></g></svg>