<svg xmlns="http://www.w3.org/2000/svg" viewBox="0 0 34 34"><g fill="#ffc46c"><path d="m11.82 17.38c0-2.68-1.68-5-5.16-5s-5.16 2.25-5.16 5h10.32"/><circle cx="7.69" cy="5.4" r="1.86"/><path d="m28.62 32.5c0-2.53-1.73-4.68-5.27-4.68s-5.27 2.12-5.27 4.68h10.54"/><circle cx="24.17" cy="20.61" r="1.76"/></g><g fill="#fc6d26"><path d="M25.16,13.09a1.5,1.5,0,0,1-1.5-1.5V7.4H19.47a1.5,1.5,0,0,1,0-3h5.69a1.5,1.5,0,0,1,1.5,1.5v5.69A1.5,1.5,0,0,1,25.16,13.09Z"/><path d="M14.43,29.56H8.74a1.5,1.5,0,0,1-1.5-1.5V22.37a1.5,1.5,0,0,1,3,0v4.19h4.19a1.5,1.5,0,0,1,0,3Z"/><path d="M15.92,18.88H1.5A1.5,1.5,0,0,1,0,17.38C0,13.71,2.69,10,8.71,10s8.71,3.71,8.71,7.38A1.5,1.5,0,0,1,15.92,18.88Zm-12.67-3H14.18C13.52,14.05,11.58,13,8.71,13S3.9,14.05,3.25,15.88Z"/><path d="M8.71 8.75a4.38 4.38 0 1 1 4.38 -4.37A4.37 4.37 0 0 1 8.71 8.75M8.71 3a1.38 1.38 0 1 0 1.38 1.38A1.37 1.37 0 0 0 8.71 3"/><path d="M32.5,34H18.08a1.5,1.5,0,0,1-1.5-1.5c0-3.68,2.69-7.38,8.71-7.38S34,28.82,34,32.5A1.5,1.5,0,0,1,32.5,34ZM19.82,31H30.75c-.65-1.83-2.59-2.88-5.46-2.88S20.48,29.17,19.82,31Z"/><path d="M25.29 23.87a4.38 4.38 0 1 1 4.37 -4.38A4.39 4.39 0 0 1 25.29 23.87m0-5.75a1.38 1.38 0 1 0 1.37 1.37A1.37 1.37 0 0 0 25.29 18.12"/></g></svg>