<svg xmlns="http://www.w3.org/2000/svg" viewBox="0 0 34 34"><path d="m22.92 12.34c-.47-1.14-.06-2.9-.91-3.76s-2.63-.44-3.77-.92-2-2-3.31-2-2.21 1.57-3.31 2-2.91.06-3.77.92-.44 2.62-.91 3.76-2 2.05-2 3.31 1.56 2.21 2 3.31 0 2.91.91 3.77 2.63.44 3.77.91 2 2 3.31 2 2.21-1.56 3.31-2 2.91-.05 3.77-.91.44-2.63.91-3.77 2-2 2-3.31-1.55-2.21-2-3.31m-5.92 5.57a4.33 4.33 0 1 1 4.33 -4.33 4.33 4.33 0 0 1 -4.33 4.33" fill="#ffc46c"/><g fill="#fc6d26"><path d="M23.61,34a1.42,1.42,0,0,1-.61-.13l-6-2.68-6,2.68a1.49,1.49,0,0,1-1.43-.11,1.52,1.52,0,0,1-.68-1.26V22.83a1.5,1.5,0,0,1,3,0v7.36l4.5-2a1.52,1.52,0,0,1,1.22,0l4.5,2V23.1a1.5,1.5,0,0,1,3,0v9.4a1.49,1.49,0,0,1-1.5,1.5Z"/><path d="M17,27.16a5.33,5.33,0,0,1-3.43-1.7,5.73,5.73,0,0,0-1.14-.85,6.14,6.14,0,0,0-1.49-.23A5.26,5.26,0,0,1,7.4,23.19a5.31,5.31,0,0,1-1.2-3.55A5.69,5.69,0,0,0,6,18.15,5.73,5.73,0,0,0,5.12,17a5.33,5.33,0,0,1-1.7-3.43,5.33,5.33,0,0,1,1.7-3.43A5.73,5.73,0,0,0,6,9,5.62,5.62,0,0,0,6.2,7.52,5.27,5.27,0,0,1,7.4,4a5.27,5.27,0,0,1,3.54-1.2,5.69,5.69,0,0,0,1.49-.23,5.73,5.73,0,0,0,1.14-.85A5.33,5.33,0,0,1,17,0a5.33,5.33,0,0,1,3.43,1.7,5.73,5.73,0,0,0,1.14.85,5.69,5.69,0,0,0,1.49.23A5.27,5.27,0,0,1,26.6,4a5.27,5.27,0,0,1,1.2,3.54A5.62,5.62,0,0,0,28,9a5.73,5.73,0,0,0,.85,1.14,5.33,5.33,0,0,1,1.7,3.43A5.33,5.33,0,0,1,28.88,17,5.73,5.73,0,0,0,28,18.15a5.69,5.69,0,0,0-.23,1.49,5.31,5.31,0,0,1-1.2,3.55,5.26,5.26,0,0,1-3.54,1.19,6.14,6.14,0,0,0-1.49.23,5.73,5.73,0,0,0-1.14.85A5.33,5.33,0,0,1,17,27.16ZM17,3c-.35,0-1,.53-1.46,1a7.09,7.09,0,0,1-2,1.36,7.75,7.75,0,0,1-2.41.45,3.83,3.83,0,0,0-1.65.33,3.87,3.87,0,0,0-.33,1.65,7.75,7.75,0,0,1-.45,2.41,7.09,7.09,0,0,1-1.36,2c-.43.5-1,1.11-1,1.46s.53,1,1,1.46a7.09,7.09,0,0,1,1.36,2,7.75,7.75,0,0,1,.45,2.41,3.8,3.8,0,0,0,.33,1.65,3.69,3.69,0,0,0,1.65.33,7.75,7.75,0,0,1,2.41.45,7.54,7.54,0,0,1,2,1.36c.49.43,1.11,1,1.46,1s1-.53,1.46-1a7.54,7.54,0,0,1,2-1.36,7.75,7.75,0,0,1,2.41-.45,3.69,3.69,0,0,0,1.65-.33,3.8,3.8,0,0,0,.33-1.65A7.75,7.75,0,0,1,25.26,17a7.09,7.09,0,0,1,1.36-2c.43-.49,1-1.11,1-1.46s-.53-1-1-1.46a7.09,7.09,0,0,1-1.36-2,7.75,7.75,0,0,1-.45-2.41,3.87,3.87,0,0,0-.33-1.65,3.83,3.83,0,0,0-1.65-.33,7.75,7.75,0,0,1-2.41-.45,7.09,7.09,0,0,1-2-1.36C18,3.53,17.35,3,17,3Z"/><path d="M17 20.3a6.72 6.72 0 1 1 6.72 -6.72A6.72 6.72 0 0 1 17 20.3M17 9.86a3.72 3.72 0 1 0 3.72 3.72A3.73 3.73 0 0 0 17 9.86"/></g></svg>