<svg xmlns="http://www.w3.org/2000/svg" viewBox="0 0 34 34"><path d="M22.87,31.85a7.39,7.39,0,0,0-5.3-7.47.63.63,0,0,1-.09-1.16,4.67,4.67,0,1,0-4,0,.64.64,0,0,1,0,1.18,7.52,7.52,0,0,0-5.32,7.46h0a42,42,0,0,0,14.74,0Z" fill="#ffc46c"/><g fill="#fc6d26"><path d="M17 34a52 52 0 0 1 -9.13 -.81 1.5 1.5 0 0 1 -1.24 -1.48 10.36 10.36 0 0 1 6 -9.82 7.12 7.12 0 1 1 8.71 0 10.25 10.25 0 0 1 6 9.84 1.5 1.5 0 0 1 -1.24 1.48A52 52 0 0 1 17 34M9.71 30.45a48.48 48.48 0 0 0 14.58 0A7.26 7.26 0 0 0 19 24.17a2.26 2.26 0 0 1 -.3 -4.19 4.13 4.13 0 1 0 -3.51 0 2.29 2.29 0 0 1 1.3 2.22 2.24 2.24 0 0 1 -1.53 2A7.46 7.46 0 0 0 9.71 30.45"/><path d="M23.63,24.88c-.63,0-1.26,0-1.89,0a1.5,1.5,0,1,1,.11-3,49.11,49.11,0,0,0,9.07-.52,7.26,7.26,0,0,0-5.25-6.28,2.27,2.27,0,0,1-.3-4.19,4.12,4.12,0,1,0-5.86-3.74,4.07,4.07,0,0,0,1.25,3,1.5,1.5,0,1,1-2.09,2.15,7.06,7.06,0,0,1-2.16-5.11A7.12,7.12,0,1,1,28,12.75a10.25,10.25,0,0,1,6,9.84,1.5,1.5,0,0,1-1.24,1.48A51.74,51.74,0,0,1,23.63,24.88Zm3-11.3Z"/><path d="M10.37,24.88a51.74,51.74,0,0,1-9.13-.81A1.5,1.5,0,0,1,0,22.59a10.25,10.25,0,0,1,6-9.84A7.13,7.13,0,1,1,17.49,7.12a7.06,7.06,0,0,1-2.16,5.11,1.5,1.5,0,1,1-2.09-2.15,4.07,4.07,0,0,0,1.25-3,4.13,4.13,0,1,0-5.86,3.74,2.26,2.26,0,0,1-.31,4.19,7.26,7.26,0,0,0-5.24,6.28,49.11,49.11,0,0,0,9.07.52,1.5,1.5,0,0,1,.11,3C11.63,24.87,11,24.88,10.37,24.88Zm-3-11.3Z"/></g></svg>