<svg xmlns="http://www.w3.org/2000/svg" viewBox="0 0 34 34"><g fill="#ffc46c"><ellipse cx="9.19" cy="6.13" rx="2.16" ry="2.14"/><ellipse cx="9.19" cy="30.13" rx="2.16" ry="2.14"/><ellipse cx="22.29" cy="6.13" rx="2.16" ry="2.14"/></g><g fill="#fc6d26"><path d="M10.45,27.18A1.5,1.5,0,0,1,9,25.68V23.62a6.51,6.51,0,0,1,4.33-6.12l6.44-2.29a3.51,3.51,0,0,0,2.33-3.3V8.27a1.5,1.5,0,0,1,3,0v3.64A6.52,6.52,0,0,1,20.72,18l-6.44,2.29A3.5,3.5,0,0,0,12,23.62v2.06A1.5,1.5,0,0,1,10.45,27.18Z"/><path d="M23.55 9.77a4.89 4.89 0 1 1 4.92 -4.89A4.9 4.9 0 0 1 23.55 9.77m0-6.77a1.89 1.89 0 1 0 1.92 1.88A1.9 1.9 0 0 0 23.55 3"/><path d="M10.45 9.77a4.89 4.89 0 1 1 4.92 -4.89A4.91 4.91 0 0 1 10.45 9.77m0-6.77a1.89 1.89 0 1 0 1.92 1.88A1.9 1.9 0 0 0 10.45 3"/><path d="M10.45 34a4.89 4.89 0 1 1 4.92 -4.88A4.91 4.91 0 0 1 10.45 34m0-6.77a1.89 1.89 0 1 0 1.92 1.89A1.91 1.91 0 0 0 10.45 27.23"/><path d="M10.45 27.23A1.5 1.5 0 0 1 9 25.73V8.27a1.5 1.5 0 0 1 3 0V25.73A1.5 1.5 0 0 1 10.45 27.23"/></g></svg>