<svg xmlns="http://www.w3.org/2000/svg" viewBox="0 0 34 34"><path d="M15.85 4.49A10.71 10.71 0 0 0 5.14 15.19c0 8 10.71 17.28 10.71 17.28l3.7-3.69c3.1-3.43 7-8.73 7-13.59A10.7 10.7 0 0 0 15.85 4.49m1.15 14a4.83 4.83 0 1 1 4.83 -4.83A4.83 4.83 0 0 1 17 18.48" fill="#ffc46c"/><g fill="#fc6d26"><path d="M17 34a1.5 1.5 0 0 1 -1 -.36C15.51 33.2 3.64 22.85 3.64 13.36a13.36 13.36 0 0 1 26.72 0c0 9.49-11.87 19.84-12.38 20.28A1.5 1.5 0 0 1 17 34M17 3A10.37 10.37 0 0 0 6.64 13.36c0 6.69 7.61 14.5 10.36 17.11C19.75 27.86 27.36 20 27.36 13.36A10.37 10.37 0 0 0 17 3"/><path d="M17 20.2a6.85 6.85 0 1 1 6.85 -6.85A6.85 6.85 0 0 1 17 20.2M17 9.5a3.85 3.85 0 1 0 3.85 3.85A3.86 3.86 0 0 0 17 9.5"/></g></svg>