<svg id="Layer_1" data-name="Layer 1" xmlns="http://www.w3.org/2000/svg" viewBox="0 0 500 220"><defs><style>.cls-1{fill:#db3a21;}.cls-2{fill:#fca121;}</style></defs><polygon class="cls-1" points="94.41 15.17 94.41 204.83 68.81 210.89 68.81 9.11 94.41 15.17"/><polygon class="cls-2" points="495 110 444.34 121.99 413.24 129.35 352.95 143.63 267.23 163.92 265.58 164.32 243.03 169.65 94.41 204.84 94.41 15.17 243.03 50.36 265.58 55.69 267.23 56.09 352.94 76.37 352.95 76.37 413.23 90.64 413.24 90.64 444.32 98.01 444.34 98.01 495 110"/><path class="cls-1" d="M10,94.06l-5-21L34.88,66,5,59l5-21,64.63,15.3.13,0,9.37,2.22a10.76,10.76,0,0,1,0,21Z"/><path class="cls-1" d="M10,182,5,161,34.88,154,5,146.89l5-20.95,64.63,15.3.13,0,9.37,2.22a10.76,10.76,0,0,1,0,20.95Z"/><path class="cls-1" d="M240.16,122.3l-6.75-20.48L220,61.23a2.33,2.33,0,0,0-4.39,0l-13.39,40.59H157.77L144.36,61.23a2.33,2.33,0,0,0-4.39,0L126.6,101.82l-6.77,20.48a4.49,4.49,0,0,0,1.67,5.07L180,169.22l58.5-41.85A4.5,4.5,0,0,0,240.16,122.3Z"/><polygon class="cls-1" points="495 110 444.34 121.99 413.24 129.35 352.95 143.63 267.23 163.92 265.58 164.32 265.58 164.31 304.43 110 265.58 55.7 265.58 55.69 267.23 56.09 352.94 76.37 352.95 76.37 413.23 90.64 413.24 90.64 444.32 98.01 444.34 98.01 495 110"/></svg>