<svg id="Layer_1" data-name="Layer 1" xmlns="http://www.w3.org/2000/svg" viewBox="0 0 500 250"><defs><style>.cls-1{fill:#db3a21;}.cls-2{fill:#fca121;}</style></defs><g id="path14"><path class="cls-1" d="M83.23,192.85H78.17l0,37.75H98.7v-4.67H83.26l0-33.08Z"/></g><g id="g24"><g id="path26"><path class="cls-1" d="M118.22,224a8.65,8.65,0,0,1-6.27,2.64c-3.86,0-5.41-1.9-5.41-4.39,0-3.74,2.6-5.53,8.13-5.53a24.77,24.77,0,0,1,3.58.28v7ZM113,201.09A16.77,16.77,0,0,0,102.19,205l1.79,3.12a15.49,15.49,0,0,1,8.25-2.42c4.16,0,6,2.14,6,5.72v1.83a23.34,23.34,0,0,0-3.51-.28c-8.87,0-13.38,3.11-13.38,9.62,0,5.83,3.58,8.76,9,8.76,3.65,0,7.16-1.68,8.37-4.39l.93,3.69h3.57V211.29c0-6.11-2.67-10.2-10.22-10.2Z"/></g></g><g id="g28"><g id="path30"><path class="cls-1" d="M139.53,226.8a11.83,11.83,0,0,1-4.83-.82V208.54a10,10,0,0,1,6.58-2.49c4.9,0,6.78,3.46,6.78,9.06,0,7.95-3,11.69-8.53,11.69m2.14-25.69a9.29,9.29,0,0,0-7,3.08v-4.87l0-6.46h-5l0,36.82a25.72,25.72,0,0,0,9.57,1.6c9.46,0,14-6,14-16.47,0-8.25-4.23-13.7-11.66-13.7"/></g></g><g id="g32"><g id="path34"><path class="cls-1" d="M28.1,197a14.22,14.22,0,0,1,9.26,3l2.19-3.78a16.89,16.89,0,0,0-11.22-4C17.55,192.16,10,198.74,10,212c0,13.89,8.15,19.3,17.47,19.3a29.7,29.7,0,0,0,11.24-2.18l-.11-14.84v-4.67H24.77v4.67H33.6l.12,11.26a13.78,13.78,0,0,1-5.88,1.05c-7.48,0-12.5-4.72-12.5-14.64,0-10.1,5.16-15,12.76-15"/></g></g><g id="g36"><g id="path38"><path class="cls-1" d="M63.76,192.85H58.81l0,6.34v21.9c0,6.11,2.65,10.2,10.2,10.2a16,16,0,0,0,3-.28v-4.43a15.29,15.29,0,0,1-2.3.16c-4.16,0-6-2.14-6-5.72v-15.1h8.3v-4.13h-8.3l0-8.94Z"/></g></g><g id="path40"><path class="cls-1" d="M46.23,230.6h5V201.8h-5v28.8Z"/></g><g id="path42"><path class="cls-1" d="M46.23,197.82h5v-4.94h-5v4.94Z"/></g><path class="cls-1" d="M168.52,230.61V208.49h-3.84v-6.33l3.84-.29V200.3a16.29,16.29,0,0,1,.55-4.3,9.06,9.06,0,0,1,1.83-3.54,8.68,8.68,0,0,1,3.31-2.38,12.5,12.5,0,0,1,4.93-.87,13.87,13.87,0,0,1,3.28.35,24.5,24.5,0,0,1,2.47.69l-1.57,6.27a9,9,0,0,0-3-.58,3.13,3.13,0,0,0-2.44,1,4.68,4.68,0,0,0-.87,3.17v1.74h5.17v6.68h-5.17v22.12Z"/><path class="cls-1" d="M198.13,231.31a14.18,14.18,0,0,1-5.29-1,13.31,13.31,0,0,1-4.5-2.93,14.11,14.11,0,0,1-3.11-4.73,18.35,18.35,0,0,1,0-12.84,14.21,14.21,0,0,1,3.11-4.73,13.46,13.46,0,0,1,4.5-2.93,14.18,14.18,0,0,1,5.29-1,13.86,13.86,0,0,1,5.25,1,13.34,13.34,0,0,1,4.47,2.93,14.06,14.06,0,0,1,3.11,4.73,18.35,18.35,0,0,1,0,12.84,14,14,0,0,1-3.11,4.73,13.19,13.19,0,0,1-4.47,2.93A13.86,13.86,0,0,1,198.13,231.31Zm0-6.91a4.35,4.35,0,0,0,4-2.21,14.11,14.11,0,0,0,0-12,4.66,4.66,0,0,0-7.93,0,14.3,14.3,0,0,0,0,12A4.32,4.32,0,0,0,198.13,224.4Z"/><path class="cls-1" d="M217,230.61v-28.8h7l.58,5.05h.23a11.05,11.05,0,0,1,3.77-4.35,8.23,8.23,0,0,1,4.42-1.4,10.94,10.94,0,0,1,2,.15,5.9,5.9,0,0,1,1.42.43L235,209.07a13.36,13.36,0,0,0-1.51-.35,9.7,9.7,0,0,0-1.63-.12,6.25,6.25,0,0,0-3.39,1.16,8.48,8.48,0,0,0-2.94,4.13v16.72Z"/><path class="cls-1" d="M247.76,230.61V192.75h23.69V200H256.29v7.61h12.89v7.14H256.29v8.71H272v7.2Z"/><path class="cls-1" d="M287.44,231.31a11.19,11.19,0,0,1-4.85-1,10.43,10.43,0,0,1-3.71-3,13.93,13.93,0,0,1-2.38-4.73,21.6,21.6,0,0,1-.85-6.33,18.35,18.35,0,0,1,1-6.33,15.44,15.44,0,0,1,2.67-4.73,11.43,11.43,0,0,1,3.83-3,10.19,10.19,0,0,1,4.45-1,8.68,8.68,0,0,1,4,.81,14.47,14.47,0,0,1,3.08,2.21l-.35-4.41V189.9h8.54v40.71h-7l-.58-2.84h-.23a13.59,13.59,0,0,1-3.54,2.52A9.13,9.13,0,0,1,287.44,231.31Zm2.21-7a5.45,5.45,0,0,0,2.53-.58,6.37,6.37,0,0,0,2.17-2V209.94a6.64,6.64,0,0,0-2.38-1.45,7.49,7.49,0,0,0-2.38-.41A4.57,4.57,0,0,0,286,210c-1,1.29-1.57,3.32-1.57,6.06s.46,5,1.37,6.28A4.42,4.42,0,0,0,289.65,224.34Z"/><path class="cls-1" d="M318.08,231.31c-3.13,0-5.41-1-6.82-3.08s-2.12-4.9-2.12-8.53V201.81h8.54v16.78c0,2.09.29,3.53.87,4.3a3.2,3.2,0,0,0,2.73,1.16,4.76,4.76,0,0,0,2.73-.75,11.54,11.54,0,0,0,2.38-2.44V201.81h8.53v28.8h-7l-.63-4h-.18a15.46,15.46,0,0,1-4,3.45A9.84,9.84,0,0,1,318.08,231.31Z"/><path class="cls-1" d="M354,231.31a15.16,15.16,0,0,1-5.61-1,12.93,12.93,0,0,1-4.5-2.93,13.77,13.77,0,0,1-3-4.73,17.63,17.63,0,0,1-1.1-6.42,16.08,16.08,0,0,1,1.22-6.42,14,14,0,0,1,3.28-4.73,14.21,14.21,0,0,1,4.79-2.93,16.14,16.14,0,0,1,5.69-1,12.14,12.14,0,0,1,4.74.87,14.87,14.87,0,0,1,3.68,2.21l-4,5.52a6.22,6.22,0,0,0-3.89-1.69,6,6,0,0,0-4.94,2.21,9.17,9.17,0,0,0-1.8,6,9.07,9.07,0,0,0,1.83,6,5.76,5.76,0,0,0,4.62,2.21,6.32,6.32,0,0,0,2.7-.61,14,14,0,0,0,2.46-1.48l3.37,5.57a13.16,13.16,0,0,1-4.64,2.65A16.39,16.39,0,0,1,354,231.31Z"/><path class="cls-1" d="M374.58,231.31a9.14,9.14,0,0,1-3.58-.67,7.58,7.58,0,0,1-2.7-1.86,8.73,8.73,0,0,1-1.71-2.75,9.34,9.34,0,0,1-.61-3.43,8.09,8.09,0,0,1,3.83-7.09q3.84-2.55,12.37-3.42a4.84,4.84,0,0,0-1.13-3.05,4.37,4.37,0,0,0-3.4-1.13,10.3,10.3,0,0,0-3.68.69,27.51,27.51,0,0,0-3.92,1.92L367,204.89a29.44,29.44,0,0,1,5.83-2.73,19.78,19.78,0,0,1,6.48-1c3.72,0,6.55,1.06,8.51,3.17s2.93,5.39,2.93,9.84v16.49h-7l-.58-3h-.23a18.07,18.07,0,0,1-3.89,2.64A9.85,9.85,0,0,1,374.58,231.31Zm2.9-6.62a4.67,4.67,0,0,0,2.5-.64,11.79,11.79,0,0,0,2.2-1.8V217.2q-4.53.63-6.27,1.86a3.5,3.5,0,0,0-1.74,2.9,2.39,2.39,0,0,0,.9,2.06A3.92,3.92,0,0,0,377.48,224.69Z"/><path class="cls-1" d="M407.65,231.31a11.55,11.55,0,0,1-4.56-.81,7.92,7.92,0,0,1-3.08-2.27,9.33,9.33,0,0,1-1.74-3.51,17.59,17.59,0,0,1-.55-4.56V208.49h-4v-6.33l4.41-.35,1-7.67h7.08v7.67h6.91v6.68h-6.91V220a5,5,0,0,0,1,3.52,3.57,3.57,0,0,0,2.7,1.07,6.4,6.4,0,0,0,1.42-.17,9.22,9.22,0,0,0,1.31-.41l1.34,6.22q-1.17.34-2.73.69A17.22,17.22,0,0,1,407.65,231.31Z"/><path class="cls-1" d="M422.15,197.57a5.12,5.12,0,0,1-3.54-1.25,4.13,4.13,0,0,1-1.4-3.22,4.06,4.06,0,0,1,1.4-3.2,5.79,5.79,0,0,1,7.11,0,4.09,4.09,0,0,1,1.36,3.2,4.16,4.16,0,0,1-1.36,3.22A5.09,5.09,0,0,1,422.15,197.57Zm-4.24,33v-28.8h8.54v28.8Z"/><path class="cls-1" d="M445.19,231.31a14.09,14.09,0,0,1-5.28-1,13.12,13.12,0,0,1-4.5-2.93,14,14,0,0,1-3.11-4.73,18.35,18.35,0,0,1,0-12.84,14.06,14.06,0,0,1,3.11-4.73,13.27,13.27,0,0,1,4.5-2.93,14.12,14.12,0,0,1,10.54,0,13.54,13.54,0,0,1,4.47,2.93,14.21,14.21,0,0,1,3.11,4.73,18.35,18.35,0,0,1,0,12.84,14.11,14.11,0,0,1-3.11,4.73,13.39,13.39,0,0,1-4.47,2.93A14,14,0,0,1,445.19,231.31Zm0-6.91a4.34,4.34,0,0,0,3.95-2.21,14,14,0,0,0,0-12,4.66,4.66,0,0,0-7.93,0,14.4,14.4,0,0,0,0,12A4.32,4.32,0,0,0,445.19,224.4Z"/><path class="cls-1" d="M464,230.61v-28.8h7l.58,3.66h.23a23.37,23.37,0,0,1,4.07-3.05,10,10,0,0,1,5.17-1.31c3.13,0,5.41,1,6.82,3.08s2.12,4.9,2.12,8.54v17.88h-8.54V213.83c0-2.09-.28-3.52-.84-4.3a3.12,3.12,0,0,0-2.7-1.16,5.13,5.13,0,0,0-2.79.73,16.32,16.32,0,0,0-2.55,2.06v19.45Z"/><polygon class="cls-1" points="140.74 22.9 140.74 155.04 122.91 159.25 122.91 18.68 140.74 22.9"/><polygon class="cls-2" points="419.82 88.97 384.53 97.33 362.86 102.45 320.86 112.4 261.14 126.54 259.99 126.81 244.28 130.53 140.74 155.04 140.74 22.9 244.28 47.42 259.99 51.13 261.14 51.41 320.85 65.54 320.86 65.54 362.85 75.48 362.86 75.48 384.52 80.61 384.53 80.61 419.82 88.97"/><path class="cls-1" d="M81.91,77.86,78.45,63.27l20.81-4.93L78.45,53.41l3.46-14.6,45,10.66.09,0L133.55,51a7.5,7.5,0,0,1,0,14.6Z"/><path class="cls-1" d="M81.91,139.12l-3.46-14.59,20.81-4.93-20.81-4.93,3.46-14.59,45,10.65.09,0,6.53,1.54a7.5,7.5,0,0,1,0,14.6Z"/><path class="cls-1" d="M242.28,97.54l-4.71-14.27L228.25,55a1.62,1.62,0,0,0-3.06,0l-9.33,28.27h-31L175.54,55a1.62,1.62,0,0,0-3.06,0l-9.31,28.27-4.72,14.27a3.13,3.13,0,0,0,1.16,3.53l40.75,29.16,40.76-29.16A3.14,3.14,0,0,0,242.28,97.54Z"/><polygon class="cls-1" points="419.82 88.97 384.53 97.33 362.86 102.45 320.86 112.4 261.14 126.54 259.99 126.81 259.99 126.8 287.06 88.97 259.99 51.14 259.99 51.13 261.14 51.41 320.85 65.54 320.86 65.54 362.85 75.48 362.86 75.48 384.52 80.61 384.53 80.61 419.82 88.97"/></svg>