<svg id="Layer_10" data-name="Layer 10" xmlns="http://www.w3.org/2000/svg" xmlns:xlink="http://www.w3.org/1999/xlink" viewBox="0 0 242.72 345.82"><defs><clipPath id="clip-path" transform="translate(-3.09 -2.94)"><rect x="3.09" y="-2.91" width="245.81" height="351.67" fill="none"/></clipPath><clipPath id="clip-path-2" transform="translate(-3.09 -2.94)"><rect x="34.74" y="123.44" width="157.82" height="157.81" fill="none"/></clipPath><clipPath id="clip-path-3" transform="translate(-3.09 -2.94)"><rect x="34.74" y="123.44" width="157.81" height="157.82" fill="none"/></clipPath><clipPath id="clip-path-5" transform="translate(-3.09 -2.94)"><rect x="120.45" y="215.94" width="61.32" height="78.91" fill="none"/></clipPath></defs><title>ability</title><g clip-path="url(#clip-path)"><g opacity="0.6"><g clip-path="url(#clip-path-2)"><g clip-path="url(#clip-path-3)"><path d="M113.65,202.34l.07.06L175,252A78.9,78.9,0,1,0,35.43,191.92a78.85,78.85,0,0,0,78.22,89.33V202.34Z" transform="translate(-3.09 -2.94)" fill="#322f5b"/></g></g></g><path d="M160.77,202.34a47.12,47.12,0,1,1-47.12-47.11,47.12,47.12,0,0,1,47.12,47.11" transform="translate(-3.09 -2.94)" fill="#fff"/><polyline points="175.64 252.08 110.63 199.46 110.56 199.4 110.56 199.49 110.56 279.57" fill="none" stroke="#fff" stroke-miterlimit="10" stroke-width="0.62"/><path d="M113.65,202.34" transform="translate(-3.09 -2.94)" fill="#322f5b"/><path d="M3.45,6.53c0-1.77.92-2.8,2.2-2.8s2.21,1,2.21,2.8S6.93,9.36,5.65,9.36,3.45,8.31,3.45,6.53Zm3,0c0-1.26-.36-1.69-.81-1.69s-.82.43-.82,1.69.37,1.71.82,1.71S6.46,7.79,6.46,6.53Zm4.27-2.8h1.16L7.1,12.92H6ZM10,10.09c0-1.77.93-2.8,2.21-2.8s2.21,1,2.21,2.8-.93,2.83-2.21,2.83S10,11.87,10,10.09Zm3,0c0-1.26-.36-1.68-.81-1.68s-.82.42-.82,1.68.37,1.71.82,1.71S13,11.36,13,10.09Z" transform="translate(-3.09 -2.94)" fill="#e24329"/><path d="M18,9.38a3.29,3.29,0,1,1,6.57,0,3.29,3.29,0,1,1-6.57,0Zm4.53,0c0-1.16-.42-1.91-1.24-1.91S20,8.22,20,9.38s.41,1.92,1.24,1.92S22.48,10.55,22.48,9.38Z" transform="translate(-3.09 -2.94)" fill="#e24329"/><path d="M26.15,7.58h-.9V6.09l.9-.06V5.66a2.3,2.3,0,0,1,2.48-2.6A4,4,0,0,1,30,3.31l-.37,1.47a1.93,1.93,0,0,0-.69-.14c-.49,0-.78.27-.78,1V6h1.21V7.58H28.14v5.18h-2Z" transform="translate(-3.09 -2.94)" fill="#e24329"/><path d="M33.32,3.89h3.2c1.87,0,3.41.65,3.41,2.76a2.6,2.6,0,0,1-1.58,2.56l2,3.55H38.12l-1.7-3.2h-1.1v3.2h-2Zm3,4.08C37.4,8,38,7.52,38,6.65s-.57-1.17-1.62-1.17h-1V8Z" transform="translate(-3.09 -2.94)" fill="#e24329"/><path d="M41,9.38a3.31,3.31,0,0,1,3.18-3.53c1.92,0,2.87,1.4,2.87,3.24A4.46,4.46,0,0,1,47,10H43a1.63,1.63,0,0,0,1.75,1.43A2.71,2.71,0,0,0,46.17,11l.66,1.21a4.45,4.45,0,0,1-2.39.76A3.29,3.29,0,0,1,41,9.38Zm4.35-.73c0-.75-.33-1.28-1.13-1.28a1.34,1.34,0,0,0-1.31,1.28Z" transform="translate(-3.09 -2.94)" fill="#e24329"/><path d="M48.46,6H50.1l.13.87h.05a2.86,2.86,0,0,1,2-1A1.87,1.87,0,0,1,54.19,7a3,3,0,0,1,2.12-1.13c1.45,0,2.11,1,2.11,2.72v4.19h-2V8.83c0-1-.26-1.28-.83-1.28a1.82,1.82,0,0,0-1.16.65v4.56h-2V8.83c0-1-.25-1.28-.83-1.28a1.78,1.78,0,0,0-1.14.65v4.56h-2Z" transform="translate(-3.09 -2.94)" fill="#e24329"/><path d="M59.72,9.38a3.29,3.29,0,1,1,6.56,0,3.29,3.29,0,1,1-6.56,0Zm4.52,0c0-1.16-.42-1.91-1.23-1.91s-1.24.75-1.24,1.91S62.18,11.3,63,11.3,64.24,10.55,64.24,9.38Z" transform="translate(-3.09 -2.94)" fill="#e24329"/><path d="M67.89,10.31V7.58H67V6.09L68,6l.23-1.79h1.66V6H71.5V7.58H69.89v2.7c0,.76.34,1.08.87,1.08a1.82,1.82,0,0,0,.63-.14l.32,1.45a4.88,4.88,0,0,1-1.5.25C68.54,12.92,67.89,11.87,67.89,10.31Z" transform="translate(-3.09 -2.94)" fill="#e24329"/><path d="M72.37,9.38a3.32,3.32,0,0,1,3.18-3.53c1.92,0,2.87,1.4,2.87,3.24a4.46,4.46,0,0,1-.08.88h-4a1.64,1.64,0,0,0,1.76,1.43A2.7,2.7,0,0,0,77.51,11l.67,1.21a4.48,4.48,0,0,1-2.4.76A3.29,3.29,0,0,1,72.37,9.38Zm4.35-.73c0-.75-.32-1.28-1.13-1.28a1.33,1.33,0,0,0-1.3,1.28Z" transform="translate(-3.09 -2.94)" fill="#e24329"/><path d="M81.83,3.89h2L84.5,8c.1.92.24,1.86.35,2.8h.05c.18-.94.36-1.88.53-2.8l1-4.15h1.69L89,8l.53,2.8h.05c.12-.95.25-1.89.37-2.8l.61-4.15h1.92l-1.58,8.87H88.42l-.87-4c-.14-.68-.25-1.4-.35-2.05h0c-.11.65-.22,1.37-.37,2.05l-.83,4H83.48Z" transform="translate(-3.09 -2.94)" fill="#e24329"/><path d="M93.11,9.38a3.29,3.29,0,1,1,6.57,0,3.29,3.29,0,1,1-6.57,0Zm4.53,0c0-1.16-.42-1.91-1.24-1.91s-1.23.75-1.23,1.91.4,1.92,1.23,1.92S97.64,10.55,97.64,9.38Z" transform="translate(-3.09 -2.94)" fill="#e24329"/><path d="M101,6h1.63l.13,1.19h.06a2.24,2.24,0,0,1,1.92-1.35,1.79,1.79,0,0,1,.8.14l-.33,1.72a2.43,2.43,0,0,0-.73-.11A1.66,1.66,0,0,0,103,8.84v3.92h-2Z" transform="translate(-3.09 -2.94)" fill="#e24329"/><path d="M106.47,3.23h2V8.69h0L110.61,6h2.17l-2.36,2.78,2.54,4H110.8l-1.53-2.63-.85,1v1.66h-2Z" transform="translate(-3.09 -2.94)" fill="#e24329"/><path d="M113.26,9.38a3.31,3.31,0,0,1,3.18-3.53c1.91,0,2.87,1.4,2.87,3.24a3.7,3.7,0,0,1-.09.88h-4a1.62,1.62,0,0,0,1.75,1.43A2.74,2.74,0,0,0,118.4,11l.66,1.21a4.45,4.45,0,0,1-2.39.76A3.29,3.29,0,0,1,113.26,9.38Zm4.35-.73c0-.75-.33-1.28-1.13-1.28a1.34,1.34,0,0,0-1.31,1.28Z" transform="translate(-3.09 -2.94)" fill="#e24329"/><path d="M120.69,6h1.63l.14,1.19h.05a2.25,2.25,0,0,1,1.92-1.35,1.79,1.79,0,0,1,.8.14l-.32,1.72a2.5,2.5,0,0,0-.74-.11,1.67,1.67,0,0,0-1.48,1.24v3.92h-2Z" transform="translate(-3.09 -2.94)" fill="#e24329"/><path d="M125.52,12l.89-1.25a3,3,0,0,0,1.74.71c.6,0,.86-.22.86-.57s-.68-.66-1.37-.93-1.78-.87-1.78-2,1-2.11,2.58-2.11a3.87,3.87,0,0,1,2.38.86l-.9,1.19a2.51,2.51,0,0,0-1.43-.57c-.51,0-.76.19-.76.53s.63.6,1.32.86c.86.31,1.82.79,1.82,2s-1,2.18-2.77,2.18A4.34,4.34,0,0,1,125.52,12Z" transform="translate(-3.09 -2.94)" fill="#e24329"/><path d="M134.3,6h2l.65,3.13c.11.67.19,1.32.3,2h.06c.12-.68.23-1.36.39-2L138.43,6h1.73l.76,3.13c.16.67.28,1.32.42,2h0c.13-.68.19-1.33.32-2L142.34,6h1.85l-1.61,6.75h-2.34l-.62-2.7c-.13-.62-.24-1.25-.36-2h-.06c-.12.72-.21,1.35-.34,2l-.59,2.7H136Z" transform="translate(-3.09 -2.94)" fill="#e24329"/><path d="M145.14,4a1.06,1.06,0,0,1,1.16-1,1,1,0,1,1,0,2.08A1.07,1.07,0,0,1,145.14,4Zm.17,2h2v6.75h-2Z" transform="translate(-3.09 -2.94)" fill="#e24329"/><path d="M149.29,10.31V7.58h-.93V6.09l1-.08.23-1.79h1.66V6h1.62V7.58h-1.62v2.7c0,.76.34,1.08.87,1.08a1.87,1.87,0,0,0,.64-.14l.31,1.45a4.82,4.82,0,0,1-1.5.25C149.94,12.92,149.29,11.87,149.29,10.31Z" transform="translate(-3.09 -2.94)" fill="#e24329"/><path d="M154.25,3.23h2V5.56l-.1,1.21a3.15,3.15,0,0,1,2.08-.92c1.47,0,2.1,1,2.1,2.72v4.19h-2V8.83c0-1-.26-1.28-.83-1.28a1.7,1.7,0,0,0-1.25.65v4.56h-2Z" transform="translate(-3.09 -2.94)" fill="#e24329"/><path d="M3.72,25.86c0-2.94,1.94-4.65,4.18-4.65a3.75,3.75,0,0,1,2.67,1.15L9.51,23.64A2.26,2.26,0,0,0,8,22.94c-1.21,0-2.18,1.07-2.18,2.85s.84,2.88,2.15,2.88a2.35,2.35,0,0,0,1.73-.83l1.06,1.25A3.66,3.66,0,0,1,7.84,30.4C5.59,30.4,3.72,28.84,3.72,25.86Z" transform="translate(-3.09 -2.94)" fill="#e24329"/><path d="M11.85,20.71h2V23l-.09,1.21a3.13,3.13,0,0,1,2.08-.92c1.47,0,2.09,1,2.09,2.72v4.19h-2V26.31c0-1-.25-1.28-.82-1.28a1.72,1.72,0,0,0-1.26.65v4.56h-2Z" transform="translate(-3.09 -2.94)" fill="#e24329"/><path d="M19.59,23.49h1.64l.13,1.19h.05a2.25,2.25,0,0,1,1.92-1.35,1.79,1.79,0,0,1,.8.14l-.32,1.72a2.5,2.5,0,0,0-.74-.11,1.67,1.67,0,0,0-1.48,1.24v3.92h-2Z" transform="translate(-3.09 -2.94)" fill="#e24329"/><path d="M24.55,26.86a3.29,3.29,0,1,1,6.57,0,3.29,3.29,0,1,1-6.57,0Zm4.53,0c0-1.16-.42-1.91-1.24-1.91s-1.23.75-1.23,1.91.41,1.92,1.23,1.92S29.08,28,29.08,26.86Z" transform="translate(-3.09 -2.94)" fill="#e24329"/><path d="M32.48,23.49h1.63l.14.86h0a3.12,3.12,0,0,1,2.16-1c1.47,0,2.1,1,2.1,2.72v4.19h-2V26.31c0-1-.26-1.28-.83-1.28a1.7,1.7,0,0,0-1.25.65v4.56h-2Z" transform="translate(-3.09 -2.94)" fill="#e24329"/><path d="M40.05,21.45A1.16,1.16,0,1,1,41.2,22.5,1.05,1.05,0,0,1,40.05,21.45Zm.16,2h2v6.75h-2Z" transform="translate(-3.09 -2.94)" fill="#e24329"/><path d="M43.53,26.86A3.38,3.38,0,0,1,47,23.33a3,3,0,0,1,2,.72l-.94,1.29a1.39,1.39,0,0,0-.91-.39c-1,0-1.58.75-1.58,1.91s.64,1.92,1.51,1.92a2.05,2.05,0,0,0,1.21-.49l.79,1.31a3.4,3.4,0,0,1-2.23.8A3.25,3.25,0,0,1,43.53,26.86Z" transform="translate(-3.09 -2.94)" fill="#e24329"/><path d="M53.15,21.37h2v8.87h-2Z" transform="translate(-3.09 -2.94)" fill="#e24329"/><path d="M57,28.14V20.71h2v7.51c0,.43.19.56.35.56a.8.8,0,0,0,.25,0l.24,1.49a2.75,2.75,0,0,1-1,.16C57.5,30.4,57,29.5,57,28.14Z" transform="translate(-3.09 -2.94)" fill="#e24329"/><path d="M60.9,28.14V20.71h2v7.51c0,.43.19.56.35.56a.8.8,0,0,0,.25,0l.24,1.49a2.75,2.75,0,0,1-1,.16C61.36,30.4,60.9,29.5,60.9,28.14Z" transform="translate(-3.09 -2.94)" fill="#e24329"/><path d="M64.81,23.49h1.64l.13.86h.06a3.12,3.12,0,0,1,2.16-1c1.47,0,2.09,1,2.09,2.72v4.19h-2V26.31c0-1-.26-1.28-.83-1.28a1.72,1.72,0,0,0-1.25.65v4.56h-2Z" transform="translate(-3.09 -2.94)" fill="#e24329"/><path d="M72.19,26.86a3.32,3.32,0,0,1,3.19-3.53c1.91,0,2.86,1.4,2.86,3.24a4.46,4.46,0,0,1-.08.88h-4a1.64,1.64,0,0,0,1.76,1.43,2.7,2.7,0,0,0,1.45-.45L78,29.64a4.45,4.45,0,0,1-2.39.76A3.3,3.3,0,0,1,72.19,26.86Zm4.35-.73c0-.75-.32-1.28-1.12-1.28a1.34,1.34,0,0,0-1.31,1.28Z" transform="translate(-3.09 -2.94)" fill="#e24329"/><path d="M79,29.46l.9-1.25a2.92,2.92,0,0,0,1.74.71c.6,0,.85-.22.85-.57s-.68-.66-1.37-.93-1.78-.87-1.78-2,1-2.11,2.58-2.11a3.83,3.83,0,0,1,2.38.86l-.89,1.19A2.53,2.53,0,0,0,82,24.81c-.52,0-.76.19-.76.53s.62.6,1.32.86c.85.31,1.82.79,1.82,2s-1,2.18-2.78,2.18A4.34,4.34,0,0,1,79,29.46Z" transform="translate(-3.09 -2.94)" fill="#e24329"/><path d="M85.07,29.46,86,28.21a3,3,0,0,0,1.74.71c.6,0,.86-.22.86-.57s-.68-.66-1.37-.93-1.78-.87-1.78-2,1-2.11,2.58-2.11a3.87,3.87,0,0,1,2.38.86l-.9,1.19A2.51,2.51,0,0,0,88,24.81c-.51,0-.76.19-.76.53s.63.6,1.32.86c.86.31,1.82.79,1.82,2s-1,2.18-2.77,2.18A4.34,4.34,0,0,1,85.07,29.46Z" transform="translate(-3.09 -2.94)" fill="#e24329"/><path d="M94,26.86a3.29,3.29,0,1,1,6.57,0,3.29,3.29,0,1,1-6.57,0Zm4.53,0c0-1.16-.42-1.91-1.24-1.91s-1.24.75-1.24,1.91.41,1.92,1.24,1.92S98.54,28,98.54,26.86Z" transform="translate(-3.09 -2.94)" fill="#e24329"/><path d="M101.93,23.49h1.64l.13,1.19h0a2.27,2.27,0,0,1,1.92-1.35,1.79,1.79,0,0,1,.8.14l-.32,1.72a2.5,2.5,0,0,0-.74-.11,1.68,1.68,0,0,0-1.48,1.24v3.92h-2Z" transform="translate(-3.09 -2.94)" fill="#e24329"/><path d="M110.22,21.37h2.51c2.7,0,4.44,1.35,4.44,4.39s-1.74,4.48-4.34,4.48h-2.61Zm2.38,7.25c1.51,0,2.52-.74,2.52-2.86s-1-2.77-2.52-2.77h-.38v5.63Z" transform="translate(-3.09 -2.94)" fill="#e24329"/><path d="M118.52,21.45a1.16,1.16,0,0,1,2.31,0,1.16,1.16,0,0,1-2.31,0Zm.16,2h2v6.75h-2Z" transform="translate(-3.09 -2.94)" fill="#e24329"/><path d="M121.8,29.46l.9-1.25a2.92,2.92,0,0,0,1.74.71c.6,0,.86-.22.86-.57s-.68-.66-1.37-.93-1.79-.87-1.79-2,1-2.11,2.59-2.11a3.87,3.87,0,0,1,2.38.86l-.9,1.19a2.51,2.51,0,0,0-1.43-.57c-.51,0-.76.19-.76.53s.63.6,1.32.86c.86.31,1.82.79,1.82,2s-1,2.18-2.77,2.18A4.34,4.34,0,0,1,121.8,29.46Z" transform="translate(-3.09 -2.94)" fill="#e24329"/><path d="M128.11,28.36c0-1.41,1.13-2.19,3.8-2.46a.94.94,0,0,0-1.07-1,3.61,3.61,0,0,0-1.78.61l-.72-1.32a5.67,5.67,0,0,1,2.89-.88c1.72,0,2.67,1,2.67,3.05v3.86h-1.63l-.13-.7h-.06a2.89,2.89,0,0,1-2,.86A2,2,0,0,1,128.11,28.36Zm3.8-.08V27.1c-1.42.19-1.88.59-1.88,1.11s.3.64.77.64A1.54,1.54,0,0,0,131.91,28.28Z" transform="translate(-3.09 -2.94)" fill="#e24329"/><path d="M137.36,29.52h-.06l-.16.72h-1.57V20.71h2V23l0,1a2.75,2.75,0,0,1,1.78-.75c1.63,0,2.65,1.35,2.65,3.41,0,2.33-1.39,3.66-2.84,3.66A2.42,2.42,0,0,1,137.36,29.52Zm2.54-2.74c0-1.21-.37-1.82-1.17-1.82a1.54,1.54,0,0,0-1.16.61v2.76a1.56,1.56,0,0,0,1.08.44C139.34,28.77,139.9,28.17,139.9,26.78Z" transform="translate(-3.09 -2.94)" fill="#e24329"/><path d="M143.17,21.45a1.06,1.06,0,0,1,1.16-1,1,1,0,1,1,0,2.08A1.07,1.07,0,0,1,143.17,21.45Zm.16,2h2v6.75h-2Z" transform="translate(-3.09 -2.94)" fill="#e24329"/><path d="M147,28.14V20.71h2v7.51c0,.43.19.56.35.56a.8.8,0,0,0,.25,0l.24,1.49a2.75,2.75,0,0,1-1,.16C147.48,30.4,147,29.5,147,28.14Z" transform="translate(-3.09 -2.94)" fill="#e24329"/><path d="M150.76,21.45a1.16,1.16,0,1,1,1.15,1.05A1.05,1.05,0,0,1,150.76,21.45Zm.16,2h2v6.75h-2Z" transform="translate(-3.09 -2.94)" fill="#e24329"/><path d="M154.9,27.79V25.06H154V23.57l1-.08.23-1.79h1.66v1.79h1.62v1.57H156.9v2.7c0,.76.34,1.08.87,1.08a1.87,1.87,0,0,0,.64-.14l.31,1.45a4.75,4.75,0,0,1-1.49.25C155.55,30.4,154.9,29.35,154.9,27.79Z" transform="translate(-3.09 -2.94)" fill="#e24329"/><path d="M159.79,32.74l.36-1.52a2.79,2.79,0,0,0,.45.08,1.16,1.16,0,0,0,1.18-.89l.1-.35-2.6-6.57h2l1,2.9c.19.61.35,1.25.53,1.92h.05c.15-.64.3-1.28.46-1.92l.82-2.9H166L163.7,30.3c-.64,1.7-1.36,2.57-2.95,2.57A3.23,3.23,0,0,1,159.79,32.74Z" transform="translate(-3.09 -2.94)" fill="#e24329"/></g><path d="M102.23,116.23a2.36,2.36,0,0,1,1.46-2.12v-.06a2.5,2.5,0,0,1-1.15-2c0-1.47,1.15-2.38,2.76-2.38a2.3,2.3,0,0,1,1.49,4.26v0a2.48,2.48,0,0,1,1.5,2.26c0,1.36-1.22,2.39-3.06,2.39S102.23,117.63,102.23,116.23Zm4.2-.1c0-.76-.74-1-1.82-1.51a1.91,1.91,0,0,0-.67,1.38,1.23,1.23,0,0,0,1.33,1.21A1,1,0,0,0,106.43,116.13Zm-.13-4a1,1,0,0,0-1-1.11.92.92,0,0,0-1,1c0,.71.6,1,1.48,1.39A2,2,0,0,0,106.3,112.13Z" transform="translate(-3.09 -2.94)" fill="#322f5b"/><path d="M109.21,117.38l.9-1.26A2.8,2.8,0,0,0,112,117a1.28,1.28,0,0,0,1.46-1.34,1.24,1.24,0,0,0-1.36-1.33,2,2,0,0,0-1.28.43l-.9-.57.25-4.36H115v1.68h-3.17l-.15,1.62a2.19,2.19,0,0,1,1-.2,2.53,2.53,0,0,1,2.75,2.67,3,3,0,0,1-3.17,3A4.1,4.1,0,0,1,109.21,117.38Z" transform="translate(-3.09 -2.94)" fill="#322f5b"/><path d="M116.32,112.2c0-1.77.93-2.8,2.2-2.8s2.22,1,2.22,2.8-.94,2.83-2.22,2.83S116.32,114,116.32,112.2Zm3,0c0-1.26-.37-1.68-.82-1.68s-.81.42-.81,1.68.37,1.72.81,1.72S119.34,113.47,119.34,112.2Zm4.27-2.8h1.15L120,118.59h-1.16Zm-.75,6.36c0-1.76.93-2.8,2.2-2.8s2.22,1,2.22,2.8-.94,2.83-2.22,2.83S122.86,117.54,122.86,115.76Zm3,0c0-1.26-.37-1.68-.82-1.68s-.81.42-.81,1.68.36,1.72.81,1.72S125.88,117,125.88,115.76Z" transform="translate(-3.09 -2.94)" fill="#322f5b"/><g clip-path="url(#clip-path)"><path d="M181.77,265.57,120.52,216l-.07-.05v78.9a78.69,78.69,0,0,0,61.32-29.27" transform="translate(-3.09 -2.94)" fill="#fff"/><g opacity="0.8"><g clip-path="url(#clip-path-5)"><g clip-path="url(#clip-path-5)"><path d="M181.77,265.57,120.52,216l-.07-.05v78.9a78.69,78.69,0,0,0,61.32-29.27" transform="translate(-3.09 -2.94)" fill="#322f5b"/></g></g></g></g><path d="M191,252.18h1.88v-5h-1.62V246a6,6,0,0,0,2.15-.79h1.47v7h1.61v1.62H191Z" transform="translate(-3.09 -2.94)" fill="#322f5b"/><path d="M201.1,251.73h-3.73v-1.37l3.15-5.19H203v5h1v1.52h-1v2.07H201.1Zm0-1.52v-1.4c0-.56.06-1.39.09-1.93h-.06c-.22.48-.46,1-.71,1.46l-1.14,1.87Z" transform="translate(-3.09 -2.94)" fill="#322f5b"/><path d="M204.52,247.57c0-1.76.92-2.8,2.2-2.8s2.21,1,2.21,2.8-.93,2.83-2.21,2.83S204.52,249.36,204.52,247.57Zm3,0c0-1.26-.36-1.68-.81-1.68s-.82.42-.82,1.68.37,1.72.82,1.72S207.53,248.84,207.53,247.57Zm4.27-2.8H213L208.17,254H207Zm-.75,6.37c0-1.77.93-2.8,2.21-2.8s2.21,1,2.21,2.8-.93,2.82-2.21,2.82S211.05,252.92,211.05,251.14Zm3,0c0-1.27-.36-1.69-.81-1.69s-.82.42-.82,1.69.37,1.71.82,1.71S214.07,252.4,214.07,251.14Z" transform="translate(-3.09 -2.94)" fill="#322f5b"/><path d="M190.47,270.11l1.78-8.91h1.66a3.92,3.92,0,0,1,2.82.91,3.38,3.38,0,0,1,1,2.56,7.09,7.09,0,0,1-.33,2.22,5,5,0,0,1-1,1.72,4.13,4.13,0,0,1-1.52,1.11,5,5,0,0,1-2,.39Zm1.23-.87h1.17a3.57,3.57,0,0,0,1.56-.33,3.34,3.34,0,0,0,1.18-.93,3.93,3.93,0,0,0,.75-1.42,6.16,6.16,0,0,0,.26-1.82,2.67,2.67,0,0,0-.7-2,2.74,2.74,0,0,0-2-.71h-.73Z" transform="translate(-3.09 -2.94)" fill="#322f5b"/><path d="M198.47,270.11l1.32-6.6h1l-1.33,6.6Zm2.2-8a.75.75,0,0,1-.47-.15.57.57,0,0,1-.2-.46.73.73,0,0,1,.24-.56.78.78,0,0,1,.55-.23.71.71,0,0,1,.47.17.56.56,0,0,1,.2.46.74.74,0,0,1-.24.56A.81.81,0,0,1,200.67,262.13Z" transform="translate(-3.09 -2.94)" fill="#322f5b"/><path d="M203.39,270.27a2.5,2.5,0,0,1-.66-.09,2.56,2.56,0,0,1-.64-.27,2.73,2.73,0,0,1-.56-.4,2.1,2.1,0,0,1-.41-.49l.65-.51a2.62,2.62,0,0,0,.75.7,1.83,1.83,0,0,0,.95.26,1.61,1.61,0,0,0,.54-.09,1.42,1.42,0,0,0,.44-.23,1,1,0,0,0,.31-.35.89.89,0,0,0,.11-.43.83.83,0,0,0-.06-.32,1,1,0,0,0-.2-.3,2.07,2.07,0,0,0-.37-.29l-.58-.34a4.2,4.2,0,0,1-1.14-.83,1.39,1.39,0,0,1-.37-1,1.8,1.8,0,0,1,.18-.8,2.06,2.06,0,0,1,1.21-1,2.58,2.58,0,0,1,.88-.15,2.28,2.28,0,0,1,1.09.25,2.68,2.68,0,0,1,.85.64l-.59.58a3.3,3.3,0,0,0-.6-.46,1.5,1.5,0,0,0-.78-.19,1.35,1.35,0,0,0-.89.3.94.94,0,0,0-.36.73.66.66,0,0,0,.1.37,1,1,0,0,0,.26.3,3,3,0,0,0,.37.26l.44.24a5,5,0,0,1,.74.47,2.64,2.64,0,0,1,.48.45,1.49,1.49,0,0,1,.26.45,1.66,1.66,0,0,1,.07.51,2,2,0,0,1-.18.84,1.79,1.79,0,0,1-.52.64,2.2,2.2,0,0,1-.79.41A3.1,3.1,0,0,1,203.39,270.27Z" transform="translate(-3.09 -2.94)" fill="#322f5b"/><path d="M209,270.27a1.72,1.72,0,0,1-1.39-.61,2.7,2.7,0,0,1-.52-1.78,5.2,5.2,0,0,1,.3-1.78,5,5,0,0,1,.8-1.44,3.85,3.85,0,0,1,1.15-1,2.66,2.66,0,0,1,1.33-.36,1.67,1.67,0,0,1,.94.27,2,2,0,0,1,.65.72h0l.26-.82h.84l-1.31,6.6h-.86l.11-1h-.06a3.72,3.72,0,0,1-1.07.83A2.6,2.6,0,0,1,209,270.27Zm.38-.87a2.16,2.16,0,0,0,1-.3,3.39,3.39,0,0,0,1-1l.59-2.95a2.18,2.18,0,0,0-.62-.75,1.31,1.31,0,0,0-.72-.23,1.79,1.79,0,0,0-.95.29,3.06,3.06,0,0,0-.82.79,4.19,4.19,0,0,0-.56,1.12,4.13,4.13,0,0,0-.21,1.31,2.1,2.1,0,0,0,.32,1.27A1.07,1.07,0,0,0,209.33,269.4Z" transform="translate(-3.09 -2.94)" fill="#322f5b"/><path d="M215,270.11h-.85l1.93-9.68h1.05l-.54,2.59-.29,1.3h0a6.17,6.17,0,0,1,1.06-.68,2.53,2.53,0,0,1,1.19-.3,1.72,1.72,0,0,1,1.38.61,2.68,2.68,0,0,1,.52,1.78,5.25,5.25,0,0,1-.3,1.79,4.78,4.78,0,0,1-.8,1.44,3.84,3.84,0,0,1-1.14,1,2.66,2.66,0,0,1-1.32.35,1.7,1.7,0,0,1-1-.27,1.86,1.86,0,0,1-.64-.72h0Zm3.18-5.9a2.27,2.27,0,0,0-1,.29,3.74,3.74,0,0,0-1,.79l-.63,3.14a2,2,0,0,0,.61.74,1.25,1.25,0,0,0,.74.23,1.73,1.73,0,0,0,1-.29,2.72,2.72,0,0,0,.81-.78,4.33,4.33,0,0,0,.55-1.12,4.16,4.16,0,0,0,.21-1.33,2,2,0,0,0-.31-1.25A1.07,1.07,0,0,0,218.13,264.21Z" transform="translate(-3.09 -2.94)" fill="#322f5b"/><path d="M222.33,270.27a.87.87,0,0,1-.65-.22.85.85,0,0,1-.23-.63,2.85,2.85,0,0,1,.08-.57l1.68-8.42h1l-1.7,8.47a.59.59,0,0,0,0,.17v.09c0,.16.07.24.23.24h.08l.13,0,0,.81-.29.08A2,2,0,0,1,222.33,270.27Z" transform="translate(-3.09 -2.94)" fill="#322f5b"/><path d="M224.58,267.52a4.45,4.45,0,0,1,.31-1.71,4.59,4.59,0,0,1,.81-1.32,3.54,3.54,0,0,1,1.13-.85,3,3,0,0,1,1.28-.3,2.12,2.12,0,0,1,.95.19,1.82,1.82,0,0,1,.63.5,2,2,0,0,1,.35.76,4,4,0,0,1,.11.94,3.52,3.52,0,0,1-.08.75c-.06.24-.11.42-.15.55h-4.3a2.8,2.8,0,0,0,0,1.09,1.79,1.79,0,0,0,.36.76,1.51,1.51,0,0,0,.62.43,2.28,2.28,0,0,0,.8.14,2,2,0,0,0,.78-.17,4.27,4.27,0,0,0,.7-.4l.41.69a4.37,4.37,0,0,1-.94.49,3.29,3.29,0,0,1-1.2.21,2.52,2.52,0,0,1-1.89-.71A2.78,2.78,0,0,1,224.58,267.52Zm1.15-1.2h3.47c0-.11,0-.22.05-.33s0-.22,0-.35a2.51,2.51,0,0,0-.07-.55,1.45,1.45,0,0,0-.22-.47,1.14,1.14,0,0,0-.39-.33,1.4,1.4,0,0,0-.6-.12,1.74,1.74,0,0,0-.71.15,2.14,2.14,0,0,0-.65.44,3.11,3.11,0,0,0-.54.68A3,3,0,0,0,225.73,266.32Z" transform="translate(-3.09 -2.94)" fill="#322f5b"/><path d="M229.43,272.29l5.9-11.83h.76l-5.91,11.83Z" transform="translate(-3.09 -2.94)" fill="#322f5b"/><path d="M193.94,286.59a3.19,3.19,0,0,1-1.35-.27,2.63,2.63,0,0,1-1-.74,3.35,3.35,0,0,1-.62-1.13,4.83,4.83,0,0,1-.21-1.47,6.4,6.4,0,0,1,.34-2.06,6.14,6.14,0,0,1,.93-1.8,5,5,0,0,1,1.46-1.29,3.76,3.76,0,0,1,1.88-.49,2.26,2.26,0,0,1,1.32.38,2.9,2.9,0,0,1,.87.94l-.73.56a2.72,2.72,0,0,0-.64-.7,1.41,1.41,0,0,0-.87-.27,2.47,2.47,0,0,0-1.44.43,3.86,3.86,0,0,0-1.09,1.08,5.35,5.35,0,0,0-.69,1.49,5.54,5.54,0,0,0-.25,1.64A4.36,4.36,0,0,0,192,284a2.63,2.63,0,0,0,.4.88,1.91,1.91,0,0,0,.71.57,2.2,2.2,0,0,0,1,.22,2.36,2.36,0,0,0,1-.22,4.29,4.29,0,0,0,.89-.59l.48.68a4.84,4.84,0,0,1-1.12.74A3.31,3.31,0,0,1,193.94,286.59Z" transform="translate(-3.09 -2.94)" fill="#322f5b"/><path d="M197.69,286.42l1.93-9.67h1l-.65,3.19-.22.83h0A9.05,9.05,0,0,1,201,280a2.24,2.24,0,0,1,1.15-.32,1.5,1.5,0,0,1,1.21.44,1.84,1.84,0,0,1,.36,1.21c0,.15,0,.3,0,.43s0,.3-.09.48l-.85,4.21h-1l.82-4.07c0-.19.06-.33.08-.44a1.87,1.87,0,0,0,0-.34,1.08,1.08,0,0,0-.24-.76,1,1,0,0,0-.74-.26,1.75,1.75,0,0,0-.88.29,5.94,5.94,0,0,0-1.11.91l-.94,4.67Z" transform="translate(-3.09 -2.94)" fill="#322f5b"/><path d="M204.64,286.42l1.3-6.6h.86l-.15,1.26h0a4.13,4.13,0,0,1,.92-1,1.83,1.83,0,0,1,1.14-.41,1.44,1.44,0,0,1,.62.13l-.37.92a1.28,1.28,0,0,0-.57-.11,1.6,1.6,0,0,0-1,.42,3.81,3.81,0,0,0-.94,1.24l-.83,4.17Z" transform="translate(-3.09 -2.94)" fill="#322f5b"/><path d="M211.56,286.59a2.22,2.22,0,0,1-1.72-.71,2.81,2.81,0,0,1-.63-1.94,4.83,4.83,0,0,1,.29-1.73,4.12,4.12,0,0,1,.81-1.35,3.75,3.75,0,0,1,1.14-.89,2.92,2.92,0,0,1,1.32-.32,2.25,2.25,0,0,1,1.72.71,2.77,2.77,0,0,1,.64,1.94,4.8,4.8,0,0,1-.3,1.73,4.49,4.49,0,0,1-.81,1.35,3.75,3.75,0,0,1-1.14.89A3,3,0,0,1,211.56,286.59Zm.11-.87a1.68,1.68,0,0,0,.89-.27,2.82,2.82,0,0,0,.76-.71,3.79,3.79,0,0,0,.55-1.06,4.33,4.33,0,0,0,.2-1.31,2.27,2.27,0,0,0-.36-1.38,1.23,1.23,0,0,0-1.05-.48,1.68,1.68,0,0,0-.89.27,2.61,2.61,0,0,0-.77.72,3.53,3.53,0,0,0-.54,1.06,4,4,0,0,0-.21,1.31,2.24,2.24,0,0,0,.36,1.37A1.24,1.24,0,0,0,211.67,285.72Z" transform="translate(-3.09 -2.94)" fill="#322f5b"/><path d="M216,286.42l1.31-6.6h.85l-.09,1h.05a7.82,7.82,0,0,1,1.13-.82,2.27,2.27,0,0,1,1.18-.34,1.48,1.48,0,0,1,1.2.44,1.84,1.84,0,0,1,.37,1.21,2.9,2.9,0,0,1,0,.43,3.42,3.42,0,0,1-.08.48l-.85,4.21h-1l.82-4.07c0-.19.06-.33.08-.44a1.88,1.88,0,0,0,0-.34,1.08,1.08,0,0,0-.23-.76,1,1,0,0,0-.74-.26,1.75,1.75,0,0,0-.88.29,5.94,5.94,0,0,0-1.11.91l-.94,4.67Z" transform="translate(-3.09 -2.94)" fill="#322f5b"/><path d="M223,286.42l1.32-6.6h1l-1.33,6.6Zm2.2-8a.75.75,0,0,1-.47-.15.57.57,0,0,1-.2-.46.74.74,0,0,1,.24-.56.78.78,0,0,1,.55-.23.71.71,0,0,1,.47.17.57.57,0,0,1,.2.46.73.73,0,0,1-.24.56A.81.81,0,0,1,225.19,278.44Z" transform="translate(-3.09 -2.94)" fill="#322f5b"/><path d="M228.61,286.59a2.36,2.36,0,0,1-1.76-.69,2.72,2.72,0,0,1-.67-2,4.52,4.52,0,0,1,.31-1.71,4.34,4.34,0,0,1,.81-1.35,3.82,3.82,0,0,1,1.18-.9,3.06,3.06,0,0,1,1.39-.33,2.05,2.05,0,0,1,1,.23,2.86,2.86,0,0,1,.71.58l-.61.65a2.12,2.12,0,0,0-.52-.46,1.39,1.39,0,0,0-.65-.14,1.83,1.83,0,0,0-1,.27,3,3,0,0,0-.83.73,3.52,3.52,0,0,0-.57,1.07,3.92,3.92,0,0,0-.21,1.29,2.11,2.11,0,0,0,.39,1.37,1.42,1.42,0,0,0,1.17.48,1.77,1.77,0,0,0,.8-.18,4.14,4.14,0,0,0,.67-.41l.47.68a5,5,0,0,1-.87.52A2.86,2.86,0,0,1,228.61,286.59Z" transform="translate(-3.09 -2.94)" fill="#322f5b"/><path d="M190.47,302.73l1.78-8.91h1.07l-1.78,8.91Z" transform="translate(-3.09 -2.94)" fill="#322f5b"/><path d="M194.77,302.9a.9.9,0,0,1-.66-.23.85.85,0,0,1-.22-.63,2.39,2.39,0,0,1,.08-.57l1.67-8.41h1.05l-1.7,8.46a.75.75,0,0,0,0,.17v.09c0,.17.08.25.23.25h.08l.14,0v.8l-.28.08A2,2,0,0,1,194.77,302.9Z" transform="translate(-3.09 -2.94)" fill="#322f5b"/><path d="M198,302.9a.9.9,0,0,1-.66-.23.85.85,0,0,1-.22-.63,2.39,2.39,0,0,1,.08-.57l1.67-8.41h1.05l-1.7,8.46a.75.75,0,0,0,0,.17v.09c0,.17.08.25.23.25h.08l.14,0v.8l-.28.08A2,2,0,0,1,198,302.9Z" transform="translate(-3.09 -2.94)" fill="#322f5b"/><path d="M200.1,302.73l1.3-6.6h.86l-.1,1h.06a7.31,7.31,0,0,1,1.13-.82,2.27,2.27,0,0,1,1.18-.34,1.48,1.48,0,0,1,1.2.44,1.84,1.84,0,0,1,.36,1.21,3,3,0,0,1,0,.43,2.48,2.48,0,0,1-.09.48l-.84,4.21h-1l.81-4.07a4.3,4.3,0,0,0,.08-.44,1.87,1.87,0,0,0,0-.34,1.08,1.08,0,0,0-.23-.76,1,1,0,0,0-.75-.26,1.75,1.75,0,0,0-.87.29,5.94,5.94,0,0,0-1.11.91l-.94,4.67Z" transform="translate(-3.09 -2.94)" fill="#322f5b"/><path d="M207.23,300.14a4.45,4.45,0,0,1,.32-1.71,4.35,4.35,0,0,1,.8-1.32,3.82,3.82,0,0,1,1.13-.85,3,3,0,0,1,1.29-.3,2.22,2.22,0,0,1,.94.19,1.65,1.65,0,0,1,.63.5,2.06,2.06,0,0,1,.36.76,4.12,4.12,0,0,1,.11.95,2.94,2.94,0,0,1-.09.74c-.05.24-.1.42-.14.55h-4.3a3,3,0,0,0,0,1.09,2,2,0,0,0,.36.76,1.48,1.48,0,0,0,.62.43,2.32,2.32,0,0,0,.8.14,2,2,0,0,0,.79-.17,4.73,4.73,0,0,0,.7-.4l.4.69a4.08,4.08,0,0,1-.93.5,3.36,3.36,0,0,1-1.2.21,2.52,2.52,0,0,1-1.89-.72A2.76,2.76,0,0,1,207.23,300.14Zm1.16-1.2h3.46c0-.11,0-.22.05-.32a2.06,2.06,0,0,0,0-.36,2,2,0,0,0-.07-.55,1.26,1.26,0,0,0-.21-.47,1.07,1.07,0,0,0-.4-.32,1.2,1.2,0,0,0-.59-.13,1.79,1.79,0,0,0-.72.15,2.22,2.22,0,0,0-.64.44,3.23,3.23,0,0,0-.9,1.56Z" transform="translate(-3.09 -2.94)" fill="#322f5b"/><path d="M215.42,302.9a2.16,2.16,0,0,1-.66-.1,2.77,2.77,0,0,1-.64-.26,3.32,3.32,0,0,1-.56-.4,2.27,2.27,0,0,1-.41-.49l.65-.52a2.62,2.62,0,0,0,.75.7,1.74,1.74,0,0,0,.95.26A1.51,1.51,0,0,0,216,302a1.61,1.61,0,0,0,.45-.24,1.14,1.14,0,0,0,.31-.35.89.89,0,0,0,.11-.43.87.87,0,0,0-.06-.32,1.08,1.08,0,0,0-.2-.29,2,2,0,0,0-.37-.3l-.58-.34a4,4,0,0,1-1.14-.83,1.37,1.37,0,0,1-.37-1,1.85,1.85,0,0,1,.18-.81,2,2,0,0,1,.49-.62,2.3,2.3,0,0,1,.72-.4,2.58,2.58,0,0,1,.88-.15,2.4,2.4,0,0,1,1.09.25,3,3,0,0,1,.85.64l-.6.58a3.23,3.23,0,0,0-.59-.46,1.5,1.5,0,0,0-.78-.19,1.31,1.31,0,0,0-.89.31.91.91,0,0,0-.36.72.66.66,0,0,0,.1.37,1.18,1.18,0,0,0,.25.3,2.81,2.81,0,0,0,.38.26l.44.24a6,6,0,0,1,.74.47,3,3,0,0,1,.48.45,1.39,1.39,0,0,1,.25.46,1.59,1.59,0,0,1,.08.5,1.92,1.92,0,0,1-.18.84,2,2,0,0,1-.52.65,2.35,2.35,0,0,1-.79.4A3.1,3.1,0,0,1,215.42,302.9Z" transform="translate(-3.09 -2.94)" fill="#322f5b"/><path d="M221,302.9a2.25,2.25,0,0,1-.66-.1,3.18,3.18,0,0,1-.64-.26,3.23,3.23,0,0,1-.55-.4,2.67,2.67,0,0,1-.42-.49l.65-.52a2.62,2.62,0,0,0,.75.7,1.77,1.77,0,0,0,1,.26,1.55,1.55,0,0,0,1-.32,1.28,1.28,0,0,0,.31-.35.88.88,0,0,0,.1-.43.87.87,0,0,0-.06-.32.85.85,0,0,0-.19-.29,1.8,1.8,0,0,0-.38-.3l-.58-.34a4.31,4.31,0,0,1-1.14-.83,1.4,1.4,0,0,1-.36-1,1.81,1.81,0,0,1,.67-1.43,2.1,2.1,0,0,1,.72-.4A2.58,2.58,0,0,1,222,296a2.43,2.43,0,0,1,1.09.25,3.12,3.12,0,0,1,.85.64l-.6.58a3,3,0,0,0-.6-.46,1.44,1.44,0,0,0-.77-.19,1.31,1.31,0,0,0-.89.31.91.91,0,0,0-.36.72.75.75,0,0,0,.09.37,1.22,1.22,0,0,0,.26.3,2.29,2.29,0,0,0,.38.26l.44.24a6.93,6.93,0,0,1,.74.47,2.91,2.91,0,0,1,.47.45,1.26,1.26,0,0,1,.26.46,1.59,1.59,0,0,1,.08.5,1.79,1.79,0,0,1-.19.84,1.89,1.89,0,0,1-.51.65,2.56,2.56,0,0,1-.79.4A3.16,3.16,0,0,1,221,302.9Z" transform="translate(-3.09 -2.94)" fill="#322f5b"/><g clip-path="url(#clip-path)"><path d="M5.87,321.45h2.4l2.78,8.87H8.93l-.55-2.11H5.68l-.55,2.11h-2Zm.21,5.2H8l-.2-.82c-.24-.88-.49-1.93-.72-2.86H7c-.22.94-.45,2-.7,2.86Z" transform="translate(-3.09 -2.94)" fill="#322f5b"/><path d="M13.78,329.6h-.06l-.16.72H12v-9.53h2v2.33l-.05,1a2.77,2.77,0,0,1,1.78-.75c1.63,0,2.65,1.35,2.65,3.41,0,2.33-1.38,3.66-2.84,3.66A2.42,2.42,0,0,1,13.78,329.6Zm2.54-2.74c0-1.21-.37-1.82-1.17-1.82a1.56,1.56,0,0,0-1.16.61v2.76a1.56,1.56,0,0,0,1.08.44C15.76,328.85,16.32,328.25,16.32,326.86Z" transform="translate(-3.09 -2.94)" fill="#322f5b"/><path d="M19.6,321.53a1,1,0,0,1,1.15-1,1,1,0,1,1-1.15,1Zm.16,2h2v6.75h-2Z" transform="translate(-3.09 -2.94)" fill="#322f5b"/><path d="M23.44,328.22v-7.43h2v7.51c0,.43.19.56.35.56a.77.77,0,0,0,.25,0l.24,1.49a2.65,2.65,0,0,1-1,.16C23.9,330.48,23.44,329.58,23.44,328.22Z" transform="translate(-3.09 -2.94)" fill="#322f5b"/><path d="M27.18,321.53a1.16,1.16,0,1,1,1.15,1.05A1.05,1.05,0,0,1,27.18,321.53Zm.16,2h2v6.75h-2Z" transform="translate(-3.09 -2.94)" fill="#322f5b"/><path d="M31.32,327.87v-2.73H30.4v-1.48l1-.09.23-1.79h1.66v1.79h1.62v1.57H33.32v2.7c0,.76.34,1.08.87,1.08a1.82,1.82,0,0,0,.64-.14l.32,1.46a5.25,5.25,0,0,1-1.5.24C32,330.48,31.32,329.43,31.32,327.87Z" transform="translate(-3.09 -2.94)" fill="#322f5b"/><path d="M36.22,332.82l.35-1.52a2.79,2.79,0,0,0,.45.08,1.14,1.14,0,0,0,1.18-.89l.1-.35-2.6-6.57h2l1,2.9c.19.61.35,1.25.53,1.92h0c.15-.64.3-1.28.47-1.92l.81-2.9h1.92l-2.34,6.81c-.64,1.7-1.36,2.57-2.95,2.57A3.11,3.11,0,0,1,36.22,332.82Z" transform="translate(-3.09 -2.94)" fill="#322f5b"/><path d="M46.49,327.87v-2.73h-.92v-1.48l1-.09.23-1.79h1.66v1.79h1.62v1.57H48.49v2.7c0,.76.34,1.08.87,1.08a1.87,1.87,0,0,0,.64-.14l.31,1.46a5.11,5.11,0,0,1-1.49.24C47.15,330.48,46.49,329.43,46.49,327.87Z" transform="translate(-3.09 -2.94)" fill="#322f5b"/><path d="M50.94,327a3.29,3.29,0,1,1,3.29,3.53A3.31,3.31,0,0,1,50.94,327Zm4.53,0c0-1.17-.43-1.92-1.24-1.92S53,325.78,53,327s.41,1.91,1.24,1.91S55.47,328.11,55.47,327Z" transform="translate(-3.09 -2.94)" fill="#322f5b"/><path d="M61,323.57h2l.65,3.13c.11.67.19,1.32.3,2H64c.12-.68.23-1.36.39-2l.75-3.13H66.9l.76,3.13c.16.67.28,1.32.42,2h0c.13-.68.19-1.33.32-2l.64-3.13h1.84l-1.61,6.75H67l-.61-2.7c-.14-.62-.25-1.25-.37-2h-.06c-.12.72-.21,1.35-.34,2l-.59,2.7H62.72Z" transform="translate(-3.09 -2.94)" fill="#322f5b"/><path d="M71.58,327a3.29,3.29,0,1,1,3.29,3.53A3.31,3.31,0,0,1,71.58,327Zm4.53,0c0-1.17-.42-1.92-1.24-1.92s-1.23.75-1.23,1.92.41,1.91,1.23,1.91S76.11,328.11,76.11,327Z" transform="translate(-3.09 -2.94)" fill="#322f5b"/><path d="M79.49,323.57h1.64l.13,1.19h.06a2.24,2.24,0,0,1,1.91-1.35,1.87,1.87,0,0,1,.81.14l-.33,1.72a2.87,2.87,0,0,0-.74-.11,1.68,1.68,0,0,0-1.48,1.24v3.92h-2Z" transform="translate(-3.09 -2.94)" fill="#322f5b"/><path d="M84.93,320.79h1.95v5.46h.05l2.13-2.68h2.18l-2.37,2.78,2.55,4H89.25l-1.52-2.63-.85,1v1.66H84.93Z" transform="translate(-3.09 -2.94)" fill="#322f5b"/><path d="M6.6,342.28a1.76,1.76,0,1,1-1.75-1.76,1.76,1.76,0,0,1,1.75,1.76" transform="translate(-3.09 -2.94)" fill="#a3cc6c"/><path d="M11.48,342.28a1.75,1.75,0,1,1-1.75-1.76,1.76,1.76,0,0,1,1.75,1.76" transform="translate(-3.09 -2.94)" fill="#a3cc6c"/><path d="M16.36,342.28a1.75,1.75,0,1,1-1.75-1.76,1.75,1.75,0,0,1,1.75,1.76" transform="translate(-3.09 -2.94)" fill="#a3cc6c"/><path d="M21.24,342.28a1.75,1.75,0,1,1-1.75-1.76,1.75,1.75,0,0,1,1.75,1.76" transform="translate(-3.09 -2.94)" fill="#a3cc6c"/><path d="M26.13,342.28a1.76,1.76,0,1,1-1.76-1.76,1.76,1.76,0,0,1,1.76,1.76" transform="translate(-3.09 -2.94)" fill="#a3cc6c"/><path d="M31,342.28a1.76,1.76,0,1,1-1.75-1.76A1.76,1.76,0,0,1,31,342.28" transform="translate(-3.09 -2.94)" fill="#a3cc6c"/><path d="M35.89,342.28a1.75,1.75,0,1,1-1.75-1.76,1.75,1.75,0,0,1,1.75,1.76" transform="translate(-3.09 -2.94)" fill="#a3cc6c"/><path d="M40.77,342.28A1.75,1.75,0,1,1,39,340.52a1.75,1.75,0,0,1,1.75,1.76" transform="translate(-3.09 -2.94)" fill="#a3cc6c"/><path d="M45.65,342.28a1.75,1.75,0,1,1-1.75-1.76,1.75,1.75,0,0,1,1.75,1.76" transform="translate(-3.09 -2.94)" fill="#a3cc6c"/><path d="M50.53,342.28a1.75,1.75,0,1,1-1.75-1.76,1.75,1.75,0,0,1,1.75,1.76" transform="translate(-3.09 -2.94)" fill="#a3cc6c"/><path d="M55.42,342.28a1.76,1.76,0,1,1-1.75-1.76,1.76,1.76,0,0,1,1.75,1.76" transform="translate(-3.09 -2.94)" fill="#a3cc6c"/><path d="M60.3,342.28a1.75,1.75,0,1,1-1.75-1.76,1.76,1.76,0,0,1,1.75,1.76" transform="translate(-3.09 -2.94)" fill="#a3cc6c"/><path d="M65.18,342.28a1.75,1.75,0,1,1-1.75-1.76,1.75,1.75,0,0,1,1.75,1.76" transform="translate(-3.09 -2.94)" fill="#a3cc6c"/><path d="M70.06,342.28a1.75,1.75,0,1,1-1.75-1.76,1.75,1.75,0,0,1,1.75,1.76" transform="translate(-3.09 -2.94)" fill="#a3cc6c"/><path d="M74.94,342.28a1.75,1.75,0,1,1-1.75-1.76,1.75,1.75,0,0,1,1.75,1.76" transform="translate(-3.09 -2.94)" fill="#a3cc6c"/><path d="M79.83,342.28a1.76,1.76,0,1,1-1.75-1.76,1.76,1.76,0,0,1,1.75,1.76" transform="translate(-3.09 -2.94)" fill="#a3cc6c"/><path d="M84.71,342.28A1.75,1.75,0,1,1,83,340.52a1.76,1.76,0,0,1,1.75,1.76" transform="translate(-3.09 -2.94)" fill="#a3cc6c"/><path d="M89.59,342.28a1.75,1.75,0,1,1-1.75-1.76,1.75,1.75,0,0,1,1.75,1.76" transform="translate(-3.09 -2.94)" fill="#a3cc6c"/><path d="M94.47,342.28a1.75,1.75,0,1,1-1.75-1.76,1.75,1.75,0,0,1,1.75,1.76" transform="translate(-3.09 -2.94)" fill="#a3cc6c"/><path d="M99.35,342.28a1.75,1.75,0,1,1-1.75-1.76,1.75,1.75,0,0,1,1.75,1.76" transform="translate(-3.09 -2.94)" fill="#a3cc6c"/><path d="M104.24,342.28a1.76,1.76,0,1,1-1.76-1.76,1.76,1.76,0,0,1,1.76,1.76" transform="translate(-3.09 -2.94)" fill="#a3cc6c"/><path d="M109.12,342.28a1.75,1.75,0,1,1-1.75-1.76,1.76,1.76,0,0,1,1.75,1.76" transform="translate(-3.09 -2.94)" fill="#a3cc6c"/><path d="M114,342.28a1.75,1.75,0,1,1-1.75-1.76,1.75,1.75,0,0,1,1.75,1.76" transform="translate(-3.09 -2.94)" fill="#a3cc6c"/><path d="M118.88,342.28a1.75,1.75,0,1,1-1.75-1.76,1.75,1.75,0,0,1,1.75,1.76" transform="translate(-3.09 -2.94)" fill="#a3cc6c"/><path d="M123.76,342.28a1.75,1.75,0,1,1-1.75-1.76,1.75,1.75,0,0,1,1.75,1.76" transform="translate(-3.09 -2.94)" fill="#a3cc6c"/><path d="M128.65,342.28a1.76,1.76,0,1,1-1.76-1.76,1.76,1.76,0,0,1,1.76,1.76" transform="translate(-3.09 -2.94)" fill="#a3cc6c"/><path d="M133.53,342.28a1.75,1.75,0,1,1-1.75-1.76,1.76,1.76,0,0,1,1.75,1.76" transform="translate(-3.09 -2.94)" fill="#a3cc6c"/><path d="M138.41,342.28a1.75,1.75,0,1,1-1.75-1.76,1.75,1.75,0,0,1,1.75,1.76" transform="translate(-3.09 -2.94)" fill="#a3cc6c"/><path d="M143.29,342.28a1.75,1.75,0,1,1-1.75-1.76,1.75,1.75,0,0,1,1.75,1.76" transform="translate(-3.09 -2.94)" fill="#a3cc6c"/><path d="M148.17,342.28a1.75,1.75,0,1,1-1.75-1.76,1.75,1.75,0,0,1,1.75,1.76" transform="translate(-3.09 -2.94)" fill="#a3cc6c"/><path d="M153.06,342.28a1.76,1.76,0,1,1-1.76-1.76,1.76,1.76,0,0,1,1.76,1.76" transform="translate(-3.09 -2.94)" fill="#a3cc6c"/><path d="M157.94,342.28a1.75,1.75,0,1,1-1.75-1.76,1.76,1.76,0,0,1,1.75,1.76" transform="translate(-3.09 -2.94)" fill="#a3cc6c"/><path d="M162.82,342.28a1.75,1.75,0,1,1-1.75-1.76,1.75,1.75,0,0,1,1.75,1.76" transform="translate(-3.09 -2.94)" fill="#a3cc6c"/><path d="M167.7,342.28a1.75,1.75,0,1,1-1.75-1.76,1.75,1.75,0,0,1,1.75,1.76" transform="translate(-3.09 -2.94)" fill="#a3cc6c"/><path d="M172.58,342.28a1.75,1.75,0,1,1-1.75-1.76,1.75,1.75,0,0,1,1.75,1.76" transform="translate(-3.09 -2.94)" fill="#a3cc6c"/><path d="M177.47,342.28a1.76,1.76,0,1,1-1.76-1.76,1.76,1.76,0,0,1,1.76,1.76" transform="translate(-3.09 -2.94)" fill="#a3cc6c"/><path d="M182.35,342.28a1.76,1.76,0,1,1-1.75-1.76,1.76,1.76,0,0,1,1.75,1.76" transform="translate(-3.09 -2.94)" fill="#a3cc6c"/><path d="M187.23,342.28a1.75,1.75,0,1,1-1.75-1.76,1.75,1.75,0,0,1,1.75,1.76" transform="translate(-3.09 -2.94)" fill="#a3cc6c"/><path d="M192.11,342.28a1.75,1.75,0,1,1-1.75-1.76,1.75,1.75,0,0,1,1.75,1.76" transform="translate(-3.09 -2.94)" fill="#a3cc6c"/><path d="M197,342.28a1.75,1.75,0,1,1-1.75-1.76,1.75,1.75,0,0,1,1.75,1.76" transform="translate(-3.09 -2.94)" fill="#a3cc6c"/><path d="M201.88,342.28a1.76,1.76,0,1,1-1.76-1.76,1.76,1.76,0,0,1,1.76,1.76" transform="translate(-3.09 -2.94)" fill="#a3cc6c"/><path d="M206.76,342.28a1.76,1.76,0,1,1-1.75-1.76,1.76,1.76,0,0,1,1.75,1.76" transform="translate(-3.09 -2.94)" fill="#a3cc6c"/><path d="M211.64,342.28a1.75,1.75,0,1,1-1.75-1.76,1.75,1.75,0,0,1,1.75,1.76" transform="translate(-3.09 -2.94)" fill="#a3cc6c"/><path d="M216.52,342.28a1.75,1.75,0,1,1-1.75-1.76,1.75,1.75,0,0,1,1.75,1.76" transform="translate(-3.09 -2.94)" fill="#a3cc6c"/><path d="M221.4,342.28a1.75,1.75,0,1,1-1.75-1.76,1.75,1.75,0,0,1,1.75,1.76" transform="translate(-3.09 -2.94)" fill="#a3cc6c"/><path d="M226.29,342.28a1.76,1.76,0,1,1-1.76-1.76,1.76,1.76,0,0,1,1.76,1.76" transform="translate(-3.09 -2.94)" fill="#a3cc6c"/><path d="M231.17,342.28a1.76,1.76,0,1,1-1.75-1.76,1.76,1.76,0,0,1,1.75,1.76" transform="translate(-3.09 -2.94)" fill="#a3cc6c"/><path d="M236.05,342.28a1.75,1.75,0,1,1-1.75-1.76,1.75,1.75,0,0,1,1.75,1.76" transform="translate(-3.09 -2.94)" fill="#a3cc6c"/><path d="M240.93,342.28a1.75,1.75,0,1,1-1.75-1.76,1.75,1.75,0,0,1,1.75,1.76" transform="translate(-3.09 -2.94)" fill="#a3cc6c"/><path d="M245.81,342.28a1.75,1.75,0,1,1-1.75-1.76,1.75,1.75,0,0,1,1.75,1.76" transform="translate(-3.09 -2.94)" fill="#a3cc6c"/><path d="M201.88,347a1.76,1.76,0,1,1-1.76-1.75,1.75,1.75,0,0,1,1.76,1.75" transform="translate(-3.09 -2.94)" fill="#db3b21"/><path d="M206.76,347a1.76,1.76,0,1,1-1.75-1.75,1.75,1.75,0,0,1,1.75,1.75" transform="translate(-3.09 -2.94)" fill="#db3b21"/><path d="M211.64,347a1.75,1.75,0,1,1-1.75-1.75,1.75,1.75,0,0,1,1.75,1.75" transform="translate(-3.09 -2.94)" fill="#db3b21"/><path d="M216.52,347a1.75,1.75,0,1,1-1.75-1.75,1.75,1.75,0,0,1,1.75,1.75" transform="translate(-3.09 -2.94)" fill="#db3b21"/><path d="M221.4,347a1.75,1.75,0,1,1-1.75-1.75A1.75,1.75,0,0,1,221.4,347" transform="translate(-3.09 -2.94)" fill="#db3b21"/><path d="M226.29,347a1.76,1.76,0,1,1-1.76-1.75,1.75,1.75,0,0,1,1.76,1.75" transform="translate(-3.09 -2.94)" fill="#db3b21"/><path d="M231.17,347a1.76,1.76,0,1,1-1.75-1.75,1.75,1.75,0,0,1,1.75,1.75" transform="translate(-3.09 -2.94)" fill="#db3b21"/><path d="M236.05,347a1.75,1.75,0,1,1-1.75-1.75,1.75,1.75,0,0,1,1.75,1.75" transform="translate(-3.09 -2.94)" fill="#db3b21"/><path d="M240.93,347a1.75,1.75,0,1,1-1.75-1.75,1.75,1.75,0,0,1,1.75,1.75" transform="translate(-3.09 -2.94)" fill="#db3b21"/><path d="M245.81,347a1.75,1.75,0,1,1-1.75-1.75,1.75,1.75,0,0,1,1.75,1.75" transform="translate(-3.09 -2.94)" fill="#db3b21"/><path d="M6.6,347a1.76,1.76,0,1,1-1.75-1.75A1.75,1.75,0,0,1,6.6,347" transform="translate(-3.09 -2.94)" fill="#a3cc6c"/><path d="M11.48,347a1.75,1.75,0,1,1-1.75-1.75A1.75,1.75,0,0,1,11.48,347" transform="translate(-3.09 -2.94)" fill="#a3cc6c"/><path d="M16.36,347a1.75,1.75,0,1,1-1.75-1.75A1.75,1.75,0,0,1,16.36,347" transform="translate(-3.09 -2.94)" fill="#a3cc6c"/><path d="M21.24,347a1.75,1.75,0,1,1-1.75-1.75A1.75,1.75,0,0,1,21.24,347" transform="translate(-3.09 -2.94)" fill="#a3cc6c"/><path d="M26.13,347a1.76,1.76,0,1,1-1.76-1.75A1.75,1.75,0,0,1,26.13,347" transform="translate(-3.09 -2.94)" fill="#a3cc6c"/><path d="M31,347a1.76,1.76,0,1,1-1.75-1.75A1.75,1.75,0,0,1,31,347" transform="translate(-3.09 -2.94)" fill="#a3cc6c"/><path d="M35.89,347a1.75,1.75,0,1,1-1.75-1.75A1.75,1.75,0,0,1,35.89,347" transform="translate(-3.09 -2.94)" fill="#a3cc6c"/><path d="M40.77,347A1.75,1.75,0,1,1,39,345.26,1.75,1.75,0,0,1,40.77,347" transform="translate(-3.09 -2.94)" fill="#a3cc6c"/><path d="M45.65,347a1.75,1.75,0,1,1-1.75-1.75A1.75,1.75,0,0,1,45.65,347" transform="translate(-3.09 -2.94)" fill="#a3cc6c"/><path d="M50.53,347a1.75,1.75,0,1,1-1.75-1.75A1.75,1.75,0,0,1,50.53,347" transform="translate(-3.09 -2.94)" fill="#a3cc6c"/><path d="M55.42,347a1.76,1.76,0,1,1-1.75-1.75A1.75,1.75,0,0,1,55.42,347" transform="translate(-3.09 -2.94)" fill="#a3cc6c"/><path d="M60.3,347a1.75,1.75,0,1,1-1.75-1.75A1.75,1.75,0,0,1,60.3,347" transform="translate(-3.09 -2.94)" fill="#a3cc6c"/><path d="M65.18,347a1.75,1.75,0,1,1-1.75-1.75A1.75,1.75,0,0,1,65.18,347" transform="translate(-3.09 -2.94)" fill="#a3cc6c"/><path d="M70.06,347a1.75,1.75,0,1,1-1.75-1.75A1.75,1.75,0,0,1,70.06,347" transform="translate(-3.09 -2.94)" fill="#a3cc6c"/><path d="M74.94,347a1.75,1.75,0,1,1-1.75-1.75A1.75,1.75,0,0,1,74.94,347" transform="translate(-3.09 -2.94)" fill="#a3cc6c"/><path d="M79.83,347a1.76,1.76,0,1,1-1.75-1.75A1.75,1.75,0,0,1,79.83,347" transform="translate(-3.09 -2.94)" fill="#a3cc6c"/><path d="M84.71,347A1.75,1.75,0,1,1,83,345.26,1.75,1.75,0,0,1,84.71,347" transform="translate(-3.09 -2.94)" fill="#a3cc6c"/><path d="M89.59,347a1.75,1.75,0,1,1-1.75-1.75A1.75,1.75,0,0,1,89.59,347" transform="translate(-3.09 -2.94)" fill="#a3cc6c"/><path d="M94.47,347a1.75,1.75,0,1,1-1.75-1.75A1.75,1.75,0,0,1,94.47,347" transform="translate(-3.09 -2.94)" fill="#a3cc6c"/><path d="M99.35,347a1.75,1.75,0,1,1-1.75-1.75A1.75,1.75,0,0,1,99.35,347" transform="translate(-3.09 -2.94)" fill="#a3cc6c"/><path d="M104.24,347a1.76,1.76,0,1,1-1.76-1.75,1.75,1.75,0,0,1,1.76,1.75" transform="translate(-3.09 -2.94)" fill="#a3cc6c"/><path d="M109.12,347a1.75,1.75,0,1,1-1.75-1.75,1.75,1.75,0,0,1,1.75,1.75" transform="translate(-3.09 -2.94)" fill="#a3cc6c"/><path d="M114,347a1.75,1.75,0,1,1-1.75-1.75A1.75,1.75,0,0,1,114,347" transform="translate(-3.09 -2.94)" fill="#a3cc6c"/><path d="M118.88,347a1.75,1.75,0,1,1-1.75-1.75,1.75,1.75,0,0,1,1.75,1.75" transform="translate(-3.09 -2.94)" fill="#a3cc6c"/><path d="M123.76,347a1.75,1.75,0,1,1-1.75-1.75,1.75,1.75,0,0,1,1.75,1.75" transform="translate(-3.09 -2.94)" fill="#a3cc6c"/><path d="M128.65,347a1.76,1.76,0,1,1-1.76-1.75,1.75,1.75,0,0,1,1.76,1.75" transform="translate(-3.09 -2.94)" fill="#a3cc6c"/><path d="M133.53,347a1.75,1.75,0,1,1-1.75-1.75,1.75,1.75,0,0,1,1.75,1.75" transform="translate(-3.09 -2.94)" fill="#a3cc6c"/><path d="M138.41,347a1.75,1.75,0,1,1-1.75-1.75,1.75,1.75,0,0,1,1.75,1.75" transform="translate(-3.09 -2.94)" fill="#a3cc6c"/><path d="M143.29,347a1.75,1.75,0,1,1-1.75-1.75,1.75,1.75,0,0,1,1.75,1.75" transform="translate(-3.09 -2.94)" fill="#a3cc6c"/><path d="M148.17,347a1.75,1.75,0,1,1-1.75-1.75,1.75,1.75,0,0,1,1.75,1.75" transform="translate(-3.09 -2.94)" fill="#a3cc6c"/><path d="M153.06,347a1.76,1.76,0,1,1-1.76-1.75,1.75,1.75,0,0,1,1.76,1.75" transform="translate(-3.09 -2.94)" fill="#a3cc6c"/><path d="M157.94,347a1.75,1.75,0,1,1-1.75-1.75,1.75,1.75,0,0,1,1.75,1.75" transform="translate(-3.09 -2.94)" fill="#a3cc6c"/><path d="M162.82,347a1.75,1.75,0,1,1-1.75-1.75,1.75,1.75,0,0,1,1.75,1.75" transform="translate(-3.09 -2.94)" fill="#a3cc6c"/><path d="M167.7,347a1.75,1.75,0,1,1-1.75-1.75A1.75,1.75,0,0,1,167.7,347" transform="translate(-3.09 -2.94)" fill="#db3b21"/><path d="M172.58,347a1.75,1.75,0,1,1-1.75-1.75,1.75,1.75,0,0,1,1.75,1.75" transform="translate(-3.09 -2.94)" fill="#db3b21"/><path d="M177.47,347a1.76,1.76,0,1,1-1.76-1.75,1.75,1.75,0,0,1,1.76,1.75" transform="translate(-3.09 -2.94)" fill="#db3b21"/><path d="M182.35,347a1.76,1.76,0,1,1-1.75-1.75,1.75,1.75,0,0,1,1.75,1.75" transform="translate(-3.09 -2.94)" fill="#db3b21"/><path d="M187.23,347a1.75,1.75,0,1,1-1.75-1.75,1.75,1.75,0,0,1,1.75,1.75" transform="translate(-3.09 -2.94)" fill="#db3b21"/><path d="M192.11,347a1.75,1.75,0,1,1-1.75-1.75,1.75,1.75,0,0,1,1.75,1.75" transform="translate(-3.09 -2.94)" fill="#db3b21"/><path d="M197,347a1.75,1.75,0,1,1-1.75-1.75A1.75,1.75,0,0,1,197,347" transform="translate(-3.09 -2.94)" fill="#db3b21"/><line x1="201.56" y1="305.59" x2="201.56" y2="310.44" fill="none" stroke="#ccc" stroke-linecap="round" stroke-linejoin="round" stroke-width="0.97"/><polyline points="201.56 318.9 201.56 323.76 196.7 323.76" fill="none" stroke="#ccc" stroke-linecap="round" stroke-linejoin="round" stroke-width="0.97"/><line x1="186.86" y1="323.76" x2="113.01" y2="323.76" fill="none" stroke-dasharray="9.85 9.85" stroke-linecap="round" stroke-linejoin="round" stroke-width="0.97" stroke="#ccc"/><line x1="108.08" y1="323.76" x2="103.23" y2="323.76" fill="none" stroke="#ccc" stroke-linecap="round" stroke-linejoin="round" stroke-width="0.97"/><polygon points="104.64 318.92 96.26 323.76 104.64 328.6 104.64 318.92" fill="#ccc"/><path d="M6.15,45.58H7.43l3,8.92H9.24L8.4,51.78H5.15L4.29,54.5H3.14Zm-.72,5.29H8.11l-.42-1.36c-.33-1-.61-2-.9-3h0c-.27,1-.56,2-.89,3Z" transform="translate(-3.09 -2.94)" fill="#322f5b"/><path d="M12.7,53.82h0l-.09.68h-.9V44.82h1.12v2.64l0,1.2a3.27,3.27,0,0,1,2.06-.93c1.72,0,2.63,1.32,2.63,3.36,0,2.26-1.35,3.58-2.86,3.58A3,3,0,0,1,12.7,53.82Zm3.59-2.72c0-1.45-.49-2.43-1.74-2.43a2.69,2.69,0,0,0-1.76.9V53a2.58,2.58,0,0,0,1.61.69C15.49,53.73,16.29,52.74,16.29,51.1Z" transform="translate(-3.09 -2.94)" fill="#322f5b"/><path d="M18.89,45.82a.78.78,0,0,1,1.55,0,.78.78,0,0,1-1.55,0Zm.2,2.08h1.12v6.6H19.09Z" transform="translate(-3.09 -2.94)" fill="#322f5b"/><path d="M22.26,53.17V44.82h1.11v8.43c0,.36.15.49.32.49l.24,0,.15.84a1.47,1.47,0,0,1-.64.11C22.6,54.67,22.26,54.14,22.26,53.17Z" transform="translate(-3.09 -2.94)" fill="#322f5b"/><path d="M25.35,45.82a.78.78,0,0,1,1.55,0,.78.78,0,0,1-1.55,0Zm.2,2.08h1.11v6.6H25.55Z" transform="translate(-3.09 -2.94)" fill="#322f5b"/><path d="M29,52.46V48.81H28V48l1-.06.13-1.85h.94V47.9h1.78v.91H30.1v3.67c0,.81.26,1.28,1,1.28a2.49,2.49,0,0,0,.75-.18l.22.84a4.21,4.21,0,0,1-1.23.25C29.45,54.67,29,53.77,29,52.46Z" transform="translate(-3.09 -2.94)" fill="#322f5b"/><path d="M33,57.21l.21-.88a2,2,0,0,0,.51.09c.75,0,1.22-.6,1.49-1.41l.15-.49L32.75,47.9h1.16l1.34,3.65c.21.57.44,1.25.64,1.87H36c.19-.6.38-1.28.55-1.87l1.19-3.65h1.08l-2.48,7.15c-.47,1.3-1.15,2.3-2.48,2.3A2.16,2.16,0,0,1,33,57.21Z" transform="translate(-3.09 -2.94)" fill="#322f5b"/><path d="M43,52.46V48.81H42V48l1-.06.14-1.85h.94V47.9h1.78v.91H44.09v3.67c0,.81.26,1.28,1,1.28a2.49,2.49,0,0,0,.75-.18l.21.84a4.07,4.07,0,0,1-1.22.25C43.44,54.67,43,53.77,43,52.46Z" transform="translate(-3.09 -2.94)" fill="#322f5b"/><path d="M46.67,51.21a3.09,3.09,0,1,1,6.12,0,3.08,3.08,0,1,1-6.12,0Zm5,0c0-1.52-.76-2.55-1.9-2.55s-1.9,1-1.9,2.55.77,2.53,1.9,2.53S51.63,52.72,51.63,51.21Z" transform="translate(-3.09 -2.94)" fill="#322f5b"/><path d="M56.46,47.9H57.6l1,3.82c.15.62.27,1.22.39,1.83H59c.15-.61.28-1.22.45-1.83l1-3.82h1.09l1,3.82c.16.62.31,1.22.46,1.83h.05c.15-.61.27-1.21.41-1.83l1-3.82h1.06L63.8,54.5H62.44L61.49,51c-.17-.63-.29-1.24-.45-1.91H61c-.15.67-.28,1.29-.46,1.92L59.6,54.5H58.29Z" transform="translate(-3.09 -2.94)" fill="#322f5b"/><path d="M66.38,51.21a3.09,3.09,0,1,1,6.12,0,3.08,3.08,0,1,1-6.12,0Zm5,0c0-1.52-.76-2.55-1.9-2.55s-1.91,1-1.91,2.55.78,2.53,1.91,2.53S71.34,52.72,71.34,51.21Z" transform="translate(-3.09 -2.94)" fill="#322f5b"/><path d="M74.17,47.9h.92l.1,1.19h0a2.26,2.26,0,0,1,1.87-1.36,1.58,1.58,0,0,1,.71.14l-.22,1a1.75,1.75,0,0,0-.64-.11c-.55,0-1.22.41-1.67,1.52V54.5H74.17Z" transform="translate(-3.09 -2.94)" fill="#322f5b"/><path d="M79,44.82h1.1v6.56h0l2.82-3.48h1.23l-2.21,2.65,2.51,4H83.22l-1.93-3.18-1.24,1.44V54.5H79Z" transform="translate(-3.09 -2.94)" fill="#322f5b"/><path d="M88.4,47.9h.92l.1,1.19h0a2.26,2.26,0,0,1,1.87-1.36,1.58,1.58,0,0,1,.71.14l-.22,1a1.73,1.73,0,0,0-.63-.11c-.56,0-1.23.41-1.68,1.52V54.5H88.4Z" transform="translate(-3.09 -2.94)" fill="#322f5b"/><path d="M92.54,51.21a3.19,3.19,0,0,1,3-3.48c1.68,0,2.63,1.21,2.63,3.1a4,4,0,0,1,0,.64H93.64a2.2,2.2,0,0,0,2.21,2.3,2.93,2.93,0,0,0,1.64-.52l.4.74a4,4,0,0,1-2.18.68A3.16,3.16,0,0,1,92.54,51.21Zm4.63-.54c0-1.33-.6-2.05-1.64-2.05a2,2,0,0,0-1.9,2.05Z" transform="translate(-3.09 -2.94)" fill="#322f5b"/><path d="M99.76,47.9h.92l.1,1h0a2.88,2.88,0,0,1,2.05-1.12A1.75,1.75,0,0,1,104.7,49a3.11,3.11,0,0,1,2.17-1.27c1.36,0,2,.9,2,2.59V54.5h-1.11v-4c0-1.24-.4-1.77-1.23-1.77a2.42,2.42,0,0,0-1.65,1V54.5h-1.12v-4c0-1.24-.39-1.77-1.24-1.77a2.46,2.46,0,0,0-1.65,1V54.5H99.76Z" transform="translate(-3.09 -2.94)" fill="#322f5b"/><path d="M110.5,51.21a3.09,3.09,0,1,1,6.12,0,3.08,3.08,0,1,1-6.12,0Zm5,0c0-1.52-.76-2.55-1.9-2.55s-1.91,1-1.91,2.55.78,2.53,1.91,2.53S115.46,52.72,115.46,51.21Z" transform="translate(-3.09 -2.94)" fill="#322f5b"/><path d="M118.37,52.46V48.81h-1V48l1-.06.14-1.85h.94V47.9h1.78v.91H119.5v3.67c0,.81.25,1.28,1,1.28a2.36,2.36,0,0,0,.74-.18l.22.84a4.14,4.14,0,0,1-1.22.25C118.84,54.67,118.37,53.77,118.37,52.46Z" transform="translate(-3.09 -2.94)" fill="#322f5b"/><path d="M122.08,51.21a3.18,3.18,0,0,1,3-3.48c1.69,0,2.64,1.21,2.64,3.1a4,4,0,0,1,0,.64h-4.46a2.19,2.19,0,0,0,2.2,2.3,2.94,2.94,0,0,0,1.65-.52l.39.74a4,4,0,0,1-2.17.68A3.16,3.16,0,0,1,122.08,51.21Zm4.62-.54c0-1.33-.6-2.05-1.63-2.05a2,2,0,0,0-1.9,2.05Z" transform="translate(-3.09 -2.94)" fill="#322f5b"/><path d="M129.27,53.17V44.82h1.11v8.43c0,.36.15.49.32.49l.24,0,.15.84a1.47,1.47,0,0,1-.64.11C129.61,54.67,129.27,54.14,129.27,53.17Z" transform="translate(-3.09 -2.94)" fill="#322f5b"/><path d="M132,57.21l.22-.88a2,2,0,0,0,.5.09c.75,0,1.23-.6,1.5-1.41l.15-.49-2.65-6.62h1.15l1.35,3.65c.2.57.43,1.25.64,1.87h0c.19-.6.38-1.28.56-1.87l1.18-3.65h1.09l-2.49,7.15c-.46,1.3-1.14,2.3-2.47,2.3A2.26,2.26,0,0,1,132,57.21Z" transform="translate(-3.09 -2.94)" fill="#322f5b"/><path d="M141.71,44.82h1.11v2.64l0,1.36a3.16,3.16,0,0,1,2.2-1.09c1.39,0,2,.9,2,2.59V54.5h-1.11v-4c0-1.24-.38-1.77-1.25-1.77-.68,0-1.14.35-1.81,1V54.5h-1.11Z" transform="translate(-3.09 -2.94)" fill="#322f5b"/><path d="M148.54,52.79c0-1.44,1.24-2.16,4.05-2.47,0-.85-.27-1.66-1.36-1.66a3.62,3.62,0,0,0-2,.7l-.43-.77a4.91,4.91,0,0,1,2.59-.86c1.62,0,2.3,1.08,2.3,2.72v4h-.92l-.1-.78h0a3.55,3.55,0,0,1-2.19,1A1.8,1.8,0,0,1,148.54,52.79Zm4.05.1V51.05c-2.2.27-3,.82-3,1.66s.52,1.06,1.17,1.06A2.67,2.67,0,0,0,152.59,52.89Z" transform="translate(-3.09 -2.94)" fill="#322f5b"/><path d="M154.63,47.9h1.16L157,51.65c.19.65.41,1.32.61,1.94h0c.19-.62.41-1.29.6-1.94l1.25-3.75h1.1l-2.33,6.6H157Z" transform="translate(-3.09 -2.94)" fill="#322f5b"/><path d="M161.26,51.21a3.19,3.19,0,0,1,3-3.48c1.68,0,2.64,1.21,2.64,3.1a3.87,3.87,0,0,1-.05.64h-4.45a2.19,2.19,0,0,0,2.2,2.3,2.93,2.93,0,0,0,1.64-.52l.4.74a4,4,0,0,1-2.18.68A3.16,3.16,0,0,1,161.26,51.21Zm4.63-.54c0-1.33-.6-2.05-1.64-2.05a2,2,0,0,0-1.9,2.05Z" transform="translate(-3.09 -2.94)" fill="#322f5b"/><path d="M170.72,51.21a3.19,3.19,0,0,1,3-3.48c1.68,0,2.64,1.21,2.64,3.1a3.87,3.87,0,0,1-.05.64h-4.45a2.19,2.19,0,0,0,2.2,2.3,2.93,2.93,0,0,0,1.64-.52l.4.74a4,4,0,0,1-2.18.68A3.16,3.16,0,0,1,170.72,51.21Zm4.63-.54c0-1.33-.6-2.05-1.64-2.05a2,2,0,0,0-1.9,2.05Z" transform="translate(-3.09 -2.94)" fill="#322f5b"/><path d="M177.94,47.9h.93l.09,1h0a3.12,3.12,0,0,1,2.22-1.12c1.39,0,2,.9,2,2.59V54.5h-1.11v-4c0-1.24-.38-1.77-1.25-1.77a2.51,2.51,0,0,0-1.81,1V54.5h-1.12Z" transform="translate(-3.09 -2.94)" fill="#322f5b"/><path d="M184.81,52.79c0-1.44,1.23-2.16,4.05-2.47,0-.85-.28-1.66-1.36-1.66a3.59,3.59,0,0,0-2,.7l-.44-.77a5,5,0,0,1,2.6-.86c1.62,0,2.3,1.08,2.3,2.72v4h-.93l-.09-.78h-.05a3.52,3.52,0,0,1-2.18,1A1.8,1.8,0,0,1,184.81,52.79Zm4.05.1V51.05c-2.21.27-3,.82-3,1.66s.52,1.06,1.17,1.06A2.69,2.69,0,0,0,188.86,52.89Z" transform="translate(-3.09 -2.94)" fill="#322f5b"/><path d="M193,53.82h0l-.09.68H192V44.82h1.11v2.64l0,1.2a3.27,3.27,0,0,1,2.06-.93c1.72,0,2.63,1.32,2.63,3.36,0,2.26-1.35,3.58-2.86,3.58A3,3,0,0,1,193,53.82Zm3.59-2.72c0-1.45-.49-2.43-1.74-2.43a2.71,2.71,0,0,0-1.77.9V53a2.62,2.62,0,0,0,1.62.69C195.79,53.73,196.59,52.74,196.59,51.1Z" transform="translate(-3.09 -2.94)" fill="#322f5b"/><path d="M199.43,53.17V44.82h1.12v8.43c0,.36.15.49.31.49l.24,0,.15.84a1.47,1.47,0,0,1-.64.11C199.77,54.67,199.43,54.14,199.43,53.17Z" transform="translate(-3.09 -2.94)" fill="#322f5b"/><path d="M202.23,51.21a3.19,3.19,0,0,1,3-3.48c1.69,0,2.64,1.21,2.64,3.1a4,4,0,0,1,0,.64h-4.46a2.19,2.19,0,0,0,2.2,2.3,2.94,2.94,0,0,0,1.65-.52l.39.74a4,4,0,0,1-2.17.68A3.16,3.16,0,0,1,202.23,51.21Zm4.62-.54c0-1.33-.6-2.05-1.63-2.05a2,2,0,0,0-1.9,2.05Z" transform="translate(-3.09 -2.94)" fill="#322f5b"/><path d="M209,51.21c0-2.14,1.36-3.48,2.87-3.48a2.74,2.74,0,0,1,1.85.76l0-1.12V44.82h1.12V54.5h-.92l-.09-.77h0a3,3,0,0,1-2,.94C210.09,54.67,209,53.42,209,51.21Zm4.67,1.61V49.36a2.31,2.31,0,0,0-1.61-.69c-1.06,0-1.9,1-1.9,2.53s.66,2.53,1.82,2.53A2.26,2.26,0,0,0,213.68,52.82Z" transform="translate(-3.09 -2.94)" fill="#322f5b"/></g><path d="M219.07,52.3a2.37,2.37,0,0,1,1.46-2.12v0a2.51,2.51,0,0,1-1.15-2c0-1.47,1.15-2.38,2.76-2.38a2.36,2.36,0,0,1,2.62,2.36A2.32,2.32,0,0,1,223.63,50V50a2.47,2.47,0,0,1,1.5,2.25c0,1.36-1.22,2.4-3.06,2.4S219.07,53.7,219.07,52.3Zm4.2-.09c0-.77-.74-1.05-1.83-1.51a1.91,1.91,0,0,0-.66,1.37,1.23,1.23,0,0,0,1.33,1.21A1,1,0,0,0,223.27,52.21Zm-.13-4a1,1,0,0,0-1-1.12.92.92,0,0,0-1,1c0,.7.6,1,1.48,1.38A1.91,1.91,0,0,0,223.14,48.21Z" transform="translate(-3.09 -2.94)" fill="#322f5b"/><path d="M226.05,53.44l.93-1.26a2.73,2.73,0,0,0,1.89.87c.84,0,1.4-.37,1.4-1s-.45-1.24-2.33-1.24V49.38c1.55,0,2-.46,2-1.16s-.38-.95-1.06-.95a2.44,2.44,0,0,0-1.62.76l-1-1.22a4,4,0,0,1,2.71-1.1c1.79,0,3,.85,3,2.36A2,2,0,0,1,230.55,50v0a2.15,2.15,0,0,1,1.71,2.11c0,1.61-1.46,2.52-3.2,2.52A3.76,3.76,0,0,1,226.05,53.44Z" transform="translate(-3.09 -2.94)" fill="#322f5b"/><path d="M233.24,48.28c0-1.77.93-2.8,2.2-2.8s2.22,1,2.22,2.8-.94,2.82-2.22,2.82S233.24,50.06,233.24,48.28Zm3,0c0-1.27-.37-1.69-.82-1.69s-.81.42-.81,1.69S235,50,235.44,50,236.26,49.54,236.26,48.28Zm4.27-2.8h1.15l-4.78,9.19h-1.16Zm-.75,6.36c0-1.77.93-2.8,2.2-2.8s2.22,1,2.22,2.8-.94,2.83-2.22,2.83S239.78,53.62,239.78,51.84Zm3,0c0-1.27-.37-1.69-.82-1.69s-.81.42-.81,1.69.37,1.71.81,1.71S242.8,53.1,242.8,51.84Z" transform="translate(-3.09 -2.94)" fill="#322f5b"/><g clip-path="url(#clip-path)"><path d="M3.72,68.69c0-2.22,1.44-3.48,3.06-3.48s3.06,1.26,3.06,3.48a3.14,3.14,0,0,1-3.06,3.45A3.14,3.14,0,0,1,3.72,68.69Zm5,0c0-1.52-.76-2.56-1.9-2.56s-1.9,1-1.9,2.56.77,2.53,1.9,2.53S8.68,70.2,8.68,68.69Z" transform="translate(-3.09 -2.94)" fill="#322f5b"/><path d="M11.59,66.28h-.9v-.84l.9-.07v-1c0-1.35.61-2.19,1.93-2.19a3,3,0,0,1,1.1.21l-.24.86a1.88,1.88,0,0,0-.75-.16c-.63,0-.93.43-.93,1.28v1h1.4v.91H12.7V72H11.59Z" transform="translate(-3.09 -2.94)" fill="#322f5b"/><path d="M18.09,65.37H19l.1,1.2h0A2.26,2.26,0,0,1,21,65.21a1.58,1.58,0,0,1,.71.14l-.22,1a2,2,0,0,0-.64-.1c-.55,0-1.22.4-1.67,1.52V72H18.09Z" transform="translate(-3.09 -2.94)" fill="#322f5b"/><path d="M22.23,68.69a3.19,3.19,0,0,1,3-3.48c1.68,0,2.63,1.21,2.63,3.1a4,4,0,0,1,0,.64H23.33a2.2,2.2,0,0,0,2.21,2.3,3,3,0,0,0,1.64-.52l.4.73a3.94,3.94,0,0,1-2.18.68A3.16,3.16,0,0,1,22.23,68.69Zm4.62-.54c0-1.34-.59-2.06-1.63-2.06a2,2,0,0,0-1.9,2.06Z" transform="translate(-3.09 -2.94)" fill="#322f5b"/><path d="M29.45,65.37h.92l.1.95h0a2.91,2.91,0,0,1,2.05-1.11,1.73,1.73,0,0,1,1.82,1.26,3.17,3.17,0,0,1,2.18-1.26c1.36,0,2,.9,2,2.58V72H37.46v-4c0-1.23-.4-1.77-1.23-1.77a2.46,2.46,0,0,0-1.66,1V72H33.46v-4c0-1.23-.39-1.77-1.24-1.77a2.5,2.5,0,0,0-1.66,1V72H29.45Z" transform="translate(-3.09 -2.94)" fill="#322f5b"/><path d="M40.19,68.69c0-2.22,1.44-3.48,3.06-3.48a3.49,3.49,0,1,1-3.06,3.48Zm5,0c0-1.52-.76-2.56-1.9-2.56s-1.91,1-1.91,2.56.78,2.53,1.91,2.53S45.15,70.2,45.15,68.69Z" transform="translate(-3.09 -2.94)" fill="#322f5b"/><path d="M48.06,69.94V66.28h-1v-.84l1-.07.14-1.85h.94v1.85H51v.91H49.19V70c0,.82.25,1.28,1,1.28a2.41,2.41,0,0,0,.75-.17l.22.84a4.19,4.19,0,0,1-1.22.24C48.53,72.14,48.06,71.25,48.06,69.94Z" transform="translate(-3.09 -2.94)" fill="#322f5b"/><path d="M51.77,68.69a3.18,3.18,0,0,1,3-3.48c1.69,0,2.64,1.21,2.64,3.1a5.6,5.6,0,0,1,0,.64H52.87a2.19,2.19,0,0,0,2.2,2.3,3,3,0,0,0,1.65-.52l.39.73a3.91,3.91,0,0,1-2.17.68A3.16,3.16,0,0,1,51.77,68.69Zm4.62-.54c0-1.34-.6-2.06-1.63-2.06a2,2,0,0,0-1.91,2.06Z" transform="translate(-3.09 -2.94)" fill="#322f5b"/><path d="M61.23,68.69a3.18,3.18,0,0,1,3-3.48c1.69,0,2.64,1.21,2.64,3.1a5.6,5.6,0,0,1,0,.64H62.33a2.19,2.19,0,0,0,2.2,2.3,3,3,0,0,0,1.65-.52l.39.73a3.91,3.91,0,0,1-2.17.68A3.16,3.16,0,0,1,61.23,68.69Zm4.62-.54c0-1.34-.6-2.06-1.63-2.06a2,2,0,0,0-1.91,2.06Z" transform="translate(-3.09 -2.94)" fill="#322f5b"/><path d="M68.45,65.37h.92l.1.95h0a2.91,2.91,0,0,1,2-1.11,1.74,1.74,0,0,1,1.82,1.26,3.13,3.13,0,0,1,2.18-1.26c1.36,0,2,.9,2,2.58V72H76.45v-4c0-1.23-.39-1.77-1.22-1.77a2.42,2.42,0,0,0-1.66,1V72H72.46v-4c0-1.23-.4-1.77-1.24-1.77a2.48,2.48,0,0,0-1.66,1V72H68.45Z" transform="translate(-3.09 -2.94)" fill="#322f5b"/><path d="M79.59,65.37h.92l.1.76h0a3.43,3.43,0,0,1,2.11-.92c1.7,0,2.61,1.32,2.61,3.37,0,2.24-1.35,3.56-2.86,3.56a3,3,0,0,1-1.83-.76l0,1.16v2.23H79.59Zm4.62,3.21c0-1.45-.49-2.43-1.74-2.43a2.79,2.79,0,0,0-1.76.89v3.47a2.62,2.62,0,0,0,1.61.7C83.41,71.21,84.21,70.21,84.21,68.58Z" transform="translate(-3.09 -2.94)" fill="#322f5b"/><path d="M87.05,70.65V62.3h1.12v8.43c0,.35.15.49.31.49a.81.81,0,0,0,.24,0l.15.84a1.45,1.45,0,0,1-.63.11C87.39,72.14,87.05,71.61,87.05,70.65Z" transform="translate(-3.09 -2.94)" fill="#322f5b"/><path d="M89.85,68.69c0-2.22,1.44-3.48,3.06-3.48S96,66.47,96,68.69a3.08,3.08,0,1,1-6.12,0Zm5,0c0-1.52-.76-2.56-1.9-2.56s-1.9,1-1.9,2.56.77,2.53,1.9,2.53S94.81,70.2,94.81,68.69Z" transform="translate(-3.09 -2.94)" fill="#322f5b"/><path d="M96.84,74.69l.22-.89a1.93,1.93,0,0,0,.5.1c.75,0,1.22-.6,1.49-1.42L99.2,72l-2.65-6.62h1.16L99.05,69c.21.57.44,1.25.64,1.86h.06c.19-.6.38-1.28.55-1.86l1.19-3.66h1.09l-2.49,7.15c-.47,1.31-1.14,2.3-2.48,2.3A2.21,2.21,0,0,1,96.84,74.69Z" transform="translate(-3.09 -2.94)" fill="#322f5b"/><path d="M103.19,68.69a3.18,3.18,0,0,1,3-3.48c1.69,0,2.64,1.21,2.64,3.1a5.6,5.6,0,0,1,0,.64h-4.46a2.19,2.19,0,0,0,2.2,2.3,3,3,0,0,0,1.64-.52l.4.73a3.92,3.92,0,0,1-2.18.68A3.16,3.16,0,0,1,103.19,68.69Zm4.62-.54c0-1.34-.6-2.06-1.63-2.06a2,2,0,0,0-1.91,2.06Z" transform="translate(-3.09 -2.94)" fill="#322f5b"/><path d="M110,68.69a3.18,3.18,0,0,1,3-3.48c1.69,0,2.64,1.21,2.64,3.1a4,4,0,0,1,0,.64h-4.46a2.19,2.19,0,0,0,2.2,2.3,3,3,0,0,0,1.65-.52l.39.73a3.91,3.91,0,0,1-2.17.68A3.16,3.16,0,0,1,110,68.69Zm4.62-.54c0-1.34-.6-2.06-1.63-2.06a2,2,0,0,0-1.9,2.06Z" transform="translate(-3.09 -2.94)" fill="#322f5b"/><path d="M116.49,71.23l.56-.75a2.94,2.94,0,0,0,1.94.79c.87,0,1.31-.46,1.31-1s-.79-1-1.51-1.25c-.94-.34-2-.79-2-1.9s.84-1.88,2.27-1.88a3.27,3.27,0,0,1,2,.75l-.53.7a2.44,2.44,0,0,0-1.51-.58c-.83,0-1.21.45-1.21,1s.72.86,1.47,1.14c1,.36,2,.75,2,2,0,1.08-.85,2-2.42,2A4,4,0,0,1,116.49,71.23Z" transform="translate(-3.09 -2.94)" fill="#322f5b"/><path d="M124.85,65.37H126l1,3.82c.15.63.27,1.23.4,1.84h0c.15-.61.29-1.23.45-1.84l1-3.82H130l1,3.82.46,1.84h.06c.15-.61.27-1.21.4-1.84l1-3.82H134L132.19,72h-1.36l-1-3.55c-.16-.62-.28-1.24-.45-1.9h-.05c-.15.66-.29,1.29-.46,1.92L128,72h-1.3Z" transform="translate(-3.09 -2.94)" fill="#322f5b"/><path d="M135.1,63.29a.78.78,0,0,1,1.55,0,.78.78,0,0,1-1.55,0Zm.2,2.08h1.12V72H135.3Z" transform="translate(-3.09 -2.94)" fill="#322f5b"/><path d="M138.73,69.94V66.28h-1v-.84l1-.07.14-1.85h.94v1.85h1.78v.91h-1.78V70c0,.82.26,1.28,1,1.28a2.35,2.35,0,0,0,.74-.17l.22.84a4.07,4.07,0,0,1-1.22.24C139.21,72.14,138.73,71.25,138.73,69.94Z" transform="translate(-3.09 -2.94)" fill="#322f5b"/><path d="M143.11,62.3h1.11v2.64l0,1.36a3.14,3.14,0,0,1,2.2-1.09c1.39,0,2,.9,2,2.58V72h-1.11v-4c0-1.23-.38-1.77-1.25-1.77-.68,0-1.14.36-1.81,1V72h-1.11Z" transform="translate(-3.09 -2.94)" fill="#322f5b"/><path d="M152.81,70.27c0-1.44,1.24-2.16,4.05-2.48,0-.84-.27-1.66-1.36-1.66a3.63,3.63,0,0,0-2,.71l-.43-.77a4.83,4.83,0,0,1,2.59-.86c1.62,0,2.3,1.07,2.3,2.72v4h-.92l-.1-.79h0a3.52,3.52,0,0,1-2.19,1A1.79,1.79,0,0,1,152.81,70.27Zm4.05.09V68.53c-2.2.27-3,.81-3,1.66a1,1,0,0,0,1.17,1.06A2.68,2.68,0,0,0,156.86,70.36Z" transform="translate(-3.09 -2.94)" fill="#322f5b"/><path d="M162.3,68.69a3.2,3.2,0,0,1,3.18-3.48,2.74,2.74,0,0,1,1.93.77l-.57.74a1.94,1.94,0,0,0-1.32-.59c-1.2,0-2.07,1-2.07,2.56s.83,2.53,2,2.53a2.35,2.35,0,0,0,1.55-.67l.49.75a3.21,3.21,0,0,1-2.13.84C163.64,72.14,162.3,70.88,162.3,68.69Z" transform="translate(-3.09 -2.94)" fill="#322f5b"/><path d="M168.88,62.3H170v2.64l0,1.36a3.16,3.16,0,0,1,2.2-1.09c1.39,0,2,.9,2,2.58V72h-1.12v-4c0-1.23-.38-1.77-1.25-1.77-.68,0-1.14.36-1.81,1V72h-1.11Z" transform="translate(-3.09 -2.94)" fill="#322f5b"/><path d="M176.16,65.37h.93l.09,1.2h0a2.26,2.26,0,0,1,1.88-1.36,1.61,1.61,0,0,1,.71.14l-.22,1a2.1,2.1,0,0,0-.64-.1c-.56,0-1.22.4-1.67,1.52V72h-1.12Z" transform="translate(-3.09 -2.94)" fill="#322f5b"/><path d="M180.32,68.69c0-2.22,1.44-3.48,3.06-3.48s3.06,1.26,3.06,3.48a3.08,3.08,0,1,1-6.12,0Zm5,0c0-1.52-.76-2.56-1.9-2.56s-1.9,1-1.9,2.56.77,2.53,1.9,2.53S185.28,70.2,185.28,68.69Z" transform="translate(-3.09 -2.94)" fill="#322f5b"/><path d="M188.11,65.37H189l.1.95h0a3.11,3.11,0,0,1,2.22-1.11c1.38,0,2,.9,2,2.58V72h-1.12v-4c0-1.23-.38-1.77-1.25-1.77-.68,0-1.14.36-1.81,1V72h-1.11Z" transform="translate(-3.09 -2.94)" fill="#322f5b"/><path d="M195.18,63.29a.78.78,0,0,1,1.55,0,.78.78,0,0,1-1.55,0Zm.2,2.08h1.12V72h-1.12Z" transform="translate(-3.09 -2.94)" fill="#322f5b"/><path d="M198.11,68.69a3.2,3.2,0,0,1,3.18-3.48,2.74,2.74,0,0,1,1.93.77l-.57.74a1.93,1.93,0,0,0-1.32-.59c-1.19,0-2.06,1-2.06,2.56s.83,2.53,2,2.53a2.35,2.35,0,0,0,1.55-.67l.49.75a3.24,3.24,0,0,1-2.14.84C199.46,72.14,198.11,70.88,198.11,68.69Z" transform="translate(-3.09 -2.94)" fill="#322f5b"/><path d="M207.31,63.29a.78.78,0,1,1,.78.72A.73.73,0,0,1,207.31,63.29Zm.21,2.08h1.11V72h-1.11Z" transform="translate(-3.09 -2.94)" fill="#322f5b"/><path d="M210.69,70.65V62.3h1.11v8.43c0,.35.15.49.31.49a.87.87,0,0,0,.25,0l.15.84a1.47,1.47,0,0,1-.64.11C211,72.14,210.69,71.61,210.69,70.65Z" transform="translate(-3.09 -2.94)" fill="#322f5b"/><path d="M214,70.65V62.3h1.12v8.43c0,.35.14.49.31.49a.81.81,0,0,0,.24,0l.15.84a1.47,1.47,0,0,1-.64.11C214.3,72.14,214,71.61,214,70.65Z" transform="translate(-3.09 -2.94)" fill="#322f5b"/><path d="M217.26,65.37h.93l.09.95h0a3.15,3.15,0,0,1,2.22-1.11c1.39,0,2,.9,2,2.58V72h-1.11v-4c0-1.23-.38-1.77-1.25-1.77a2.54,2.54,0,0,0-1.81,1V72h-1.12Z" transform="translate(-3.09 -2.94)" fill="#322f5b"/><path d="M224.15,68.69a3.19,3.19,0,0,1,3-3.48c1.68,0,2.64,1.21,2.64,3.1a3.87,3.87,0,0,1,0,.64h-4.45a2.19,2.19,0,0,0,2.2,2.3,3,3,0,0,0,1.64-.52l.4.73a3.92,3.92,0,0,1-2.18.68A3.16,3.16,0,0,1,224.15,68.69Zm4.63-.54c0-1.34-.6-2.06-1.63-2.06a2,2,0,0,0-1.91,2.06Z" transform="translate(-3.09 -2.94)" fill="#322f5b"/><path d="M230.68,71.23l.56-.75a2.92,2.92,0,0,0,1.94.79c.87,0,1.31-.46,1.31-1s-.79-1-1.51-1.25c-.94-.34-2-.79-2-1.9s.85-1.88,2.28-1.88a3.29,3.29,0,0,1,2.05.75l-.53.7a2.46,2.46,0,0,0-1.51-.58c-.83,0-1.21.45-1.21,1s.72.86,1.47,1.14c.95.36,2,.75,2,2,0,1.08-.86,2-2.42,2A3.94,3.94,0,0,1,230.68,71.23Z" transform="translate(-3.09 -2.94)" fill="#322f5b"/><path d="M236.48,71.23l.56-.75a2.94,2.94,0,0,0,1.94.79c.87,0,1.31-.46,1.31-1s-.79-1-1.51-1.25c-.94-.34-2-.79-2-1.9s.84-1.88,2.27-1.88a3.27,3.27,0,0,1,2,.75l-.53.7a2.44,2.44,0,0,0-1.51-.58c-.83,0-1.21.45-1.21,1s.72.86,1.47,1.14c1,.36,2,.75,2,2,0,1.08-.85,2-2.42,2A4,4,0,0,1,236.48,71.23Z" transform="translate(-3.09 -2.94)" fill="#322f5b"/><path d="M3.72,86.17c0-2.22,1.44-3.48,3.06-3.48S9.84,84,9.84,86.17a3.14,3.14,0,0,1-3.06,3.45A3.14,3.14,0,0,1,3.72,86.17Zm5,0c0-1.52-.76-2.56-1.9-2.56s-1.9,1-1.9,2.56.77,2.53,1.9,2.53S8.68,87.68,8.68,86.17Z" transform="translate(-3.09 -2.94)" fill="#322f5b"/><path d="M11.51,82.85h.92l.1,1.2h0a2.26,2.26,0,0,1,1.87-1.36,1.73,1.73,0,0,1,.71.13l-.22,1a2,2,0,0,0-.63-.11c-.56,0-1.23.41-1.68,1.53v4.24H11.51Z" transform="translate(-3.09 -2.94)" fill="#322f5b"/><path d="M18.47,86.17c0-2.15,1.36-3.48,2.87-3.48a2.67,2.67,0,0,1,1.84.76l-.05-1.13V79.78h1.13v9.68h-.93l-.09-.78h0a3,3,0,0,1-2,.94C19.54,89.62,18.47,88.37,18.47,86.17Zm4.66,1.6V84.32a2.31,2.31,0,0,0-1.6-.69c-1.06,0-1.91,1-1.91,2.53s.67,2.52,1.82,2.52A2.2,2.2,0,0,0,23.13,87.77Z" transform="translate(-3.09 -2.94)" fill="#322f5b"/><path d="M26.12,80.77a.78.78,0,0,1,1.55,0,.78.78,0,0,1-1.55,0Zm.2,2.08h1.12v6.61H26.32Z" transform="translate(-3.09 -2.94)" fill="#322f5b"/><path d="M28.81,88.71l.56-.75a2.92,2.92,0,0,0,1.94.79c.87,0,1.31-.46,1.31-1s-.79-1-1.51-1.25c-.94-.34-2-.79-2-1.91s.84-1.87,2.27-1.87a3.27,3.27,0,0,1,2.05.75l-.53.7a2.46,2.46,0,0,0-1.51-.58c-.83,0-1.21.45-1.21,1s.72.86,1.47,1.14c1,.36,2,.75,2,2,0,1.08-.86,2-2.42,2A4,4,0,0,1,28.81,88.71Z" transform="translate(-3.09 -2.94)" fill="#322f5b"/><path d="M34.86,87.75c0-1.44,1.24-2.17,4-2.48,0-.84-.27-1.66-1.36-1.66a3.63,3.63,0,0,0-2,.71l-.44-.77a4.89,4.89,0,0,1,2.6-.86c1.62,0,2.3,1.07,2.3,2.72v4h-.93L39,88.67h0a3.52,3.52,0,0,1-2.19,1A1.79,1.79,0,0,1,34.86,87.75Zm4,.09V86c-2.2.27-3,.81-3,1.66s.51,1.06,1.17,1.06A2.7,2.7,0,0,0,38.91,87.84Z" transform="translate(-3.09 -2.94)" fill="#322f5b"/><path d="M43.06,88.78H43l-.09.68H42V79.78h1.12v2.64l0,1.19a3.26,3.26,0,0,1,2.07-.92c1.71,0,2.62,1.32,2.62,3.36,0,2.25-1.35,3.57-2.86,3.57A2.93,2.93,0,0,1,43.06,88.78Zm3.58-2.72c0-1.45-.49-2.43-1.74-2.43a2.72,2.72,0,0,0-1.76.89V88a2.58,2.58,0,0,0,1.61.69C45.84,88.68,46.64,87.69,46.64,86.06Z" transform="translate(-3.09 -2.94)" fill="#322f5b"/><path d="M49.24,80.77a.78.78,0,0,1,1.55,0,.78.78,0,0,1-1.55,0Zm.2,2.08h1.12v6.61H49.44Z" transform="translate(-3.09 -2.94)" fill="#322f5b"/><path d="M52.61,88.13V79.78h1.12v8.43c0,.35.14.49.31.49a.81.81,0,0,0,.24,0l.15.84a1.47,1.47,0,0,1-.64.11C53,89.62,52.61,89.09,52.61,88.13Z" transform="translate(-3.09 -2.94)" fill="#322f5b"/><path d="M55.7,80.77a.78.78,0,0,1,1.55,0,.78.78,0,0,1-1.55,0Zm.2,2.08H57v6.61H55.9Z" transform="translate(-3.09 -2.94)" fill="#322f5b"/><path d="M59.32,87.42V83.76h-1v-.84l1-.07L59.51,81h.94v1.85h1.78v.91H60.45v3.67c0,.82.26,1.28,1,1.28a2.47,2.47,0,0,0,.75-.17l.22.84a4.2,4.2,0,0,1-1.23.24C59.8,89.62,59.32,88.73,59.32,87.42Z" transform="translate(-3.09 -2.94)" fill="#322f5b"/><path d="M63.39,92.17l.22-.89a1.93,1.93,0,0,0,.5.1c.75,0,1.22-.6,1.49-1.42l.15-.49L63.1,82.85h1.16l1.34,3.66c.21.57.44,1.25.64,1.86h.06c.19-.6.38-1.28.56-1.86L68,82.85h1.09L66.64,90c-.46,1.31-1.14,2.3-2.48,2.3A2.21,2.21,0,0,1,63.39,92.17Z" transform="translate(-3.09 -2.94)" fill="#322f5b"/><path d="M73.31,87.42V83.76h-1v-.84l1-.07L73.5,81h.94v1.85h1.78v.91H74.44v3.67c0,.82.26,1.28,1,1.28a2.47,2.47,0,0,0,.75-.17l.21.84a4.07,4.07,0,0,1-1.22.24C73.79,89.62,73.31,88.73,73.31,87.42Z" transform="translate(-3.09 -2.94)" fill="#322f5b"/><path d="M77,86.17c0-2.22,1.44-3.48,3.06-3.48s3.06,1.26,3.06,3.48a3.08,3.08,0,1,1-6.12,0Zm5,0c0-1.52-.76-2.56-1.9-2.56s-1.9,1-1.9,2.56.77,2.53,1.9,2.53S82,87.68,82,86.17Z" transform="translate(-3.09 -2.94)" fill="#322f5b"/><path d="M87.11,86.17a3.2,3.2,0,0,1,3.18-3.48,2.74,2.74,0,0,1,1.93.77l-.57.74a1.94,1.94,0,0,0-1.32-.59c-1.2,0-2.07,1-2.07,2.56s.83,2.53,2,2.53A2.35,2.35,0,0,0,91.85,88l.49.75a3.23,3.23,0,0,1-2.13.84C88.45,89.62,87.11,88.36,87.11,86.17Z" transform="translate(-3.09 -2.94)" fill="#322f5b"/><path d="M93.07,86.17c0-2.22,1.44-3.48,3.06-3.48s3.06,1.26,3.06,3.48a3.08,3.08,0,1,1-6.12,0Zm5,0c0-1.52-.77-2.56-1.91-2.56s-1.9,1-1.9,2.56.77,2.53,1.9,2.53S98,87.68,98,86.17Z" transform="translate(-3.09 -2.94)" fill="#322f5b"/><path d="M100.86,82.85h.93l.09,1h0a3.15,3.15,0,0,1,2.22-1.11c1.38,0,2,.9,2,2.58v4.19H105v-4c0-1.24-.39-1.77-1.26-1.77-.68,0-1.14.36-1.8,1v4.79h-1.12Z" transform="translate(-3.09 -2.94)" fill="#322f5b"/><path d="M108.34,87.42V83.76h-1v-.84l1-.07.14-1.85h.94v1.85h1.78v.91h-1.78v3.67c0,.82.25,1.28,1,1.28a2.35,2.35,0,0,0,.74-.17l.22.84a4.19,4.19,0,0,1-1.22.24C108.81,89.62,108.34,88.73,108.34,87.42Z" transform="translate(-3.09 -2.94)" fill="#322f5b"/><path d="M112.71,82.85h.93l.09,1.2h0a2.26,2.26,0,0,1,1.88-1.36,1.73,1.73,0,0,1,.71.13l-.22,1a2.09,2.09,0,0,0-.64-.11c-.56,0-1.22.41-1.67,1.53v4.24h-1.12Z" transform="translate(-3.09 -2.94)" fill="#322f5b"/><path d="M117.29,80.77a.78.78,0,1,1,.78.72A.73.73,0,0,1,117.29,80.77Zm.21,2.08h1.11v6.61H117.5Z" transform="translate(-3.09 -2.94)" fill="#322f5b"/><path d="M121.7,88.78h0l-.1.68h-.89V79.78h1.11v2.64l0,1.19a3.26,3.26,0,0,1,2.07-.92c1.71,0,2.62,1.32,2.62,3.36,0,2.25-1.34,3.57-2.85,3.57A3,3,0,0,1,121.7,88.78Zm3.59-2.72c0-1.45-.49-2.43-1.74-2.43a2.74,2.74,0,0,0-1.77.89V88a2.58,2.58,0,0,0,1.62.69C124.49,88.68,125.29,87.69,125.29,86.06Z" transform="translate(-3.09 -2.94)" fill="#322f5b"/><path d="M128.06,87V82.85h1.13v4c0,1.24.36,1.77,1.23,1.77.68,0,1.16-.34,1.79-1.12V82.85h1.11v6.61h-.92l-.1-1h0a2.78,2.78,0,0,1-2.18,1.19C128.68,89.62,128.06,88.73,128.06,87Z" transform="translate(-3.09 -2.94)" fill="#322f5b"/><path d="M135.64,87.42V83.76h-1v-.84l1-.07.13-1.85h.94v1.85h1.78v.91h-1.78v3.67c0,.82.26,1.28,1,1.28a2.47,2.47,0,0,0,.75-.17l.22.84a4.2,4.2,0,0,1-1.23.24C136.12,89.62,135.64,88.73,135.64,87.42Z" transform="translate(-3.09 -2.94)" fill="#322f5b"/><path d="M139.35,86.17a3.19,3.19,0,0,1,3-3.48c1.68,0,2.64,1.21,2.64,3.1a4,4,0,0,1-.05.64h-4.45a2.19,2.19,0,0,0,2.2,2.3,3,3,0,0,0,1.64-.52l.4.73a3.92,3.92,0,0,1-2.18.68A3.16,3.16,0,0,1,139.35,86.17Zm4.63-.54c0-1.34-.6-2.06-1.64-2.06a2,2,0,0,0-1.9,2.06Z" transform="translate(-3.09 -2.94)" fill="#322f5b"/><path d="M149.49,87.42V83.76h-1v-.84l1-.07.13-1.85h.94v1.85h1.78v.91h-1.78v3.67c0,.82.26,1.28,1,1.28a2.47,2.47,0,0,0,.75-.17l.22.84a4.2,4.2,0,0,1-1.23.24C150,89.62,149.49,88.73,149.49,87.42Z" transform="translate(-3.09 -2.94)" fill="#322f5b"/><path d="M153.2,86.17a3.16,3.16,0,0,1,3.06-3.48c1.62,0,3.06,1.26,3.06,3.48a3.08,3.08,0,1,1-6.12,0Zm5,0c0-1.52-.76-2.56-1.91-2.56s-1.9,1-1.9,2.56.77,2.53,1.9,2.53S158.17,87.68,158.17,86.17Z" transform="translate(-3.09 -2.94)" fill="#322f5b"/><path d="M163.37,87.75c0-1.44,1.24-2.17,4-2.48,0-.84-.27-1.66-1.36-1.66a3.63,3.63,0,0,0-2,.71l-.43-.77a4.83,4.83,0,0,1,2.59-.86c1.62,0,2.3,1.07,2.3,2.72v4h-.92l-.1-.79h0a3.49,3.49,0,0,1-2.19,1A1.79,1.79,0,0,1,163.37,87.75Zm4,.09V86c-2.2.27-3,.81-3,1.66a1,1,0,0,0,1.17,1.06A2.68,2.68,0,0,0,167.42,87.84Z" transform="translate(-3.09 -2.94)" fill="#322f5b"/><path d="M172.56,82.85h1.14l1,3.82c.15.63.27,1.23.4,1.84h0c.15-.61.29-1.23.45-1.84l1-3.82h1.09l1,3.82.46,1.84h.06c.14-.61.27-1.21.4-1.84l1-3.82h1.06l-1.77,6.61h-1.36l-.95-3.55c-.16-.62-.29-1.24-.45-1.9h0c-.15.66-.29,1.29-.47,1.91l-.92,3.54h-1.3Z" transform="translate(-3.09 -2.94)" fill="#322f5b"/><path d="M182.48,86.17c0-2.22,1.44-3.48,3.06-3.48s3.06,1.26,3.06,3.48a3.08,3.08,0,1,1-6.12,0Zm5,0c0-1.52-.76-2.56-1.9-2.56s-1.9,1-1.9,2.56.77,2.53,1.9,2.53S187.44,87.68,187.44,86.17Z" transform="translate(-3.09 -2.94)" fill="#322f5b"/><path d="M190.27,82.85h.92l.1,1.2h0a2.26,2.26,0,0,1,1.88-1.36,1.68,1.68,0,0,1,.7.13l-.21,1a2.09,2.09,0,0,0-.64-.11c-.56,0-1.23.41-1.68,1.53v4.24h-1.11Z" transform="translate(-3.09 -2.94)" fill="#322f5b"/><path d="M195.05,79.78h1.11v6.55h0L199,82.85h1.24L198,85.5l2.52,4h-1.23l-1.93-3.18-1.23,1.44v1.74h-1.11Z" transform="translate(-3.09 -2.94)" fill="#322f5b"/><path d="M201.78,82.85h.93l.09.76h0a3.45,3.45,0,0,1,2.11-.92c1.7,0,2.61,1.32,2.61,3.37,0,2.24-1.35,3.56-2.85,3.56a3,3,0,0,1-1.84-.76l0,1.16v2.23h-1.12Zm4.63,3.21c0-1.45-.49-2.43-1.74-2.43a2.79,2.79,0,0,0-1.77.89V88a2.62,2.62,0,0,0,1.62.69C205.6,88.68,206.41,87.69,206.41,86.06Z" transform="translate(-3.09 -2.94)" fill="#322f5b"/><path d="M209.25,88.13V79.78h1.11v8.43c0,.35.15.49.31.49a.91.91,0,0,0,.25,0l.15.84a1.47,1.47,0,0,1-.64.11C209.58,89.62,209.25,89.09,209.25,88.13Z" transform="translate(-3.09 -2.94)" fill="#322f5b"/><path d="M212.15,87.75c0-1.44,1.24-2.17,4.06-2.48,0-.84-.28-1.66-1.37-1.66a3.63,3.63,0,0,0-2,.71l-.43-.77a4.83,4.83,0,0,1,2.6-.86c1.61,0,2.29,1.07,2.29,2.72v4h-.92l-.1-.79h0a3.49,3.49,0,0,1-2.19,1A1.79,1.79,0,0,1,212.15,87.75Zm4.06.09V86c-2.21.27-3,.81-3,1.66a1,1,0,0,0,1.17,1.06A2.7,2.7,0,0,0,216.21,87.84Z" transform="translate(-3.09 -2.94)" fill="#322f5b"/><path d="M218.88,86.17a3.2,3.2,0,0,1,3.18-3.48,2.74,2.74,0,0,1,1.93.77l-.57.74a1.94,1.94,0,0,0-1.32-.59c-1.19,0-2.06,1-2.06,2.56s.83,2.53,2,2.53a2.35,2.35,0,0,0,1.55-.67l.49.75a3.24,3.24,0,0,1-2.14.84C220.23,89.62,218.88,88.36,218.88,86.17Z" transform="translate(-3.09 -2.94)" fill="#322f5b"/><path d="M224.85,86.17a3.18,3.18,0,0,1,3-3.48c1.69,0,2.64,1.21,2.64,3.1a4.06,4.06,0,0,1,0,.64H226a2.19,2.19,0,0,0,2.2,2.3,3,3,0,0,0,1.65-.52l.39.73a3.91,3.91,0,0,1-2.17.68A3.16,3.16,0,0,1,224.85,86.17Zm4.62-.54c0-1.34-.6-2.06-1.63-2.06a2,2,0,0,0-1.9,2.06Z" transform="translate(-3.09 -2.94)" fill="#322f5b"/><path d="M231.74,88.78a.81.81,0,1,1,1.62,0,.81.81,0,1,1-1.62,0Z" transform="translate(-3.09 -2.94)" fill="#322f5b"/></g></svg>