<svg id="age" xmlns="http://www.w3.org/2000/svg" xmlns:xlink="http://www.w3.org/1999/xlink" viewBox="0 0 71.87 130.4"><defs><clipPath id="clip-path" transform="translate(-3.6 -2.89)"><rect x="5.1" y="80.79" width="18.51" height="41.59" fill="none"/></clipPath><clipPath id="clip-path-2" transform="translate(-3.6 -2.89)"><rect x="5.15" y="80.81" width="18.42" height="41.55" transform="translate(-0.22 0.03) rotate(-0.12)" fill="none"/></clipPath><clipPath id="clip-path-3" transform="translate(-3.6 -2.89)"><rect x="4.97" y="20.95" width="18.55" height="59.89" fill="none"/></clipPath><clipPath id="clip-path-4" transform="translate(-3.6 -2.89)"><rect x="5.03" y="20.97" width="18.42" height="59.85" transform="translate(-0.11 0.03) rotate(-0.12)" fill="none"/></clipPath></defs><title>age</title><path d="M5.2,126.56v6a.73.73,0,0,0,.73.73l17,0a.73.73,0,0,0,.72-.73V122.35l-18.42,0Z" transform="translate(-3.6 -2.89)" fill="#322f5b"/><g opacity="0.8"><g clip-path="url(#clip-path)"><g clip-path="url(#clip-path-2)"><polygon points="19.99 110.15 19.97 97.61 19.92 77.9 1.5 77.94 1.54 97.66 1.57 110.19 1.57 111.31 1.59 119.5 20.01 119.45 20 111.27 19.99 110.15" fill="#322f5b"/></g></g></g><g opacity="0.6"><g clip-path="url(#clip-path-3)"><g clip-path="url(#clip-path-4)"><path d="M23.5,71.38l-.1-44.82V21.68a.73.73,0,0,0-.73-.73l-17,0a.73.73,0,0,0-.73.73V26.6l.1,44.82,0,9.41,18.42,0Z" transform="translate(-3.6 -2.89)" fill="#322f5b"/></g></g></g><path d="M5.66,3.74H7.47l2.09,6.69H8L7.56,8.84h-2l-.4,1.59H3.6Zm.17,3.92H7.25L7.1,7c-.19-.67-.37-1.46-.55-2.16h0C6.35,5.59,6.18,6.37,6,7Z" transform="translate(-3.6 -2.89)" fill="#e24329"/><path d="M9.94,11.3a1.18,1.18,0,0,1,.72-1v0a1,1,0,0,1-.47-.87,1.2,1.2,0,0,1,.57-.95v0A1.66,1.66,0,0,1,10.07,7,1.88,1.88,0,0,1,12.15,5.2a2.43,2.43,0,0,1,.79.12h1.84v1.1H14a1.37,1.37,0,0,1,.17.67c0,1.17-.88,1.71-2,1.72a1.79,1.79,0,0,1-.61-.11.45.45,0,0,0-.18.38c0,.26.2.38.76.38H13c1.24,0,1.93.38,1.93,1.29,0,1.06-1.09,1.83-2.82,1.83C10.88,12.59,9.94,12.2,9.94,11.3ZM13.45,11c0-.32-.27-.4-.77-.4h-.52a3.08,3.08,0,0,1-.72-.06.69.69,0,0,0-.27.51c0,.38.45.58,1.12.58S13.45,11.36,13.45,11Zm-.6-4c0-.54-.3-.82-.69-.82s-.7.28-.69.82.29.85.69.85S12.85,7.6,12.85,7Z" transform="translate(-3.6 -2.89)" fill="#e24329"/><path d="M15.31,7.86a2.48,2.48,0,0,1,2.38-2.67c1.43,0,2.15,1,2.15,2.44a3.49,3.49,0,0,1-.06.67h-3a1.24,1.24,0,0,0,1.32,1.08A2.05,2.05,0,0,0,19.16,9l.5.91a3.28,3.28,0,0,1-1.79.58A2.47,2.47,0,0,1,15.31,7.86Zm3.26-.56c0-.56-.25-1-.85-1a1,1,0,0,0-1,1Z" transform="translate(-3.6 -2.89)" fill="#e24329"/><path d="M22.65,7.85c0-1.67,1-2.67,2.09-2.68A1.7,1.7,0,0,1,26,5.7l-.06-.78V3.19h1.5l0,7.19H26.21l-.1-.51h0a2,2,0,0,1-1.34.63C23.47,10.52,22.65,9.51,22.65,7.85Zm3.28,1V6.73a1.23,1.23,0,0,0-.84-.33c-.48,0-.9.46-.9,1.42s.34,1.46.92,1.46A.93.93,0,0,0,25.93,8.82Z" transform="translate(-3.6 -2.89)" fill="#e24329"/><path d="M28.6,3.75A.8.8,0,0,1,29.47,3a.78.78,0,0,1,.86.77.79.79,0,0,1-.86.8A.81.81,0,0,1,28.6,3.75Zm.13,1.54h1.5v5.09h-1.5Z" transform="translate(-3.6 -2.89)" fill="#e24329"/><path d="M31.08,9.79l.67-.95a2.19,2.19,0,0,0,1.3.54c.45,0,.65-.17.65-.44s-.51-.49-1-.69-1.34-.66-1.34-1.5.76-1.59,1.93-1.6A2.87,2.87,0,0,1,35,5.8l-.67.9a1.88,1.88,0,0,0-1.07-.43c-.38,0-.57.15-.57.41s.47.45,1,.64,1.37.59,1.37,1.53S34.37,10.49,33,10.5A3.25,3.25,0,0,1,31.08,9.79Z" transform="translate(-3.6 -2.89)" fill="#e24329"/><path d="M36.34,8.52V6.45h-.7V5.33l.78-.06.17-1.35h1.24V5.27h1.22V6.45H37.84v2c0,.58.26.81.65.81A1.41,1.41,0,0,0,39,9.2l.24,1.1a3.66,3.66,0,0,1-1.12.18C36.84,10.49,36.34,9.7,36.34,8.52Z" transform="translate(-3.6 -2.89)" fill="#e24329"/><path d="M40.05,5.26h1.23l.1.89h0a1.7,1.7,0,0,1,1.44-1,1.51,1.51,0,0,1,.6.1l-.24,1.31a2,2,0,0,0-.55-.08,1.25,1.25,0,0,0-1.11.94v2.95h-1.5Z" transform="translate(-3.6 -2.89)" fill="#e24329"/><path d="M44,3.71a.8.8,0,0,1,.87-.78.79.79,0,1,1,0,1.57A.8.8,0,0,1,44,3.71Zm.13,1.54h1.5v5.09h-1.5Z" transform="translate(-3.6 -2.89)" fill="#e24329"/><path d="M48.26,9.79h0l-.12.55H46.93l0-7.2h1.5V4.91l0,.78a2,2,0,0,1,1.33-.57c1.22,0,2,1,2,2.57,0,1.76-1,2.77-2.12,2.77A1.79,1.79,0,0,1,48.26,9.79Zm1.91-2.06c0-.92-.28-1.38-.88-1.38a1.15,1.15,0,0,0-.87.47V8.9a1.17,1.17,0,0,0,.81.33C49.75,9.23,50.17,8.77,50.17,7.73Z" transform="translate(-3.6 -2.89)" fill="#e24329"/><path d="M52.71,8.4V5.24h1.5v3c0,.73.19,1,.63,1s.6-.16.9-.56V5.23h1.5v5.09H56l-.12-.71h0a1.94,1.94,0,0,1-1.59.84C53.18,10.45,52.71,9.67,52.71,8.4Z" transform="translate(-3.6 -2.89)" fill="#e24329"/><path d="M58.76,8.47V6.4h-.7V5.29l.78-.07L59,3.87h1.24V5.22h1.22V6.4H60.26v2c0,.58.26.81.65.81a1.41,1.41,0,0,0,.48-.1l.24,1.1a3.94,3.94,0,0,1-1.12.19C59.25,10.44,58.76,9.65,58.76,8.47Z" transform="translate(-3.6 -2.89)" fill="#e24329"/><path d="M62.35,3.67a.87.87,0,0,1,1.73,0,.87.87,0,0,1-1.73,0Zm.12,1.54H64V10.3h-1.5Z" transform="translate(-3.6 -2.89)" fill="#e24329"/><path d="M65,7.76a2.47,2.47,0,1,1,4.93,0,2.47,2.47,0,1,1-4.93,0Zm3.4,0c0-.88-.32-1.45-.93-1.45s-.93.57-.93,1.45.31,1.45.93,1.45S68.36,8.63,68.36,7.75Z" transform="translate(-3.6 -2.89)" fill="#e24329"/><path d="M70.9,5.2h1.22l.1.65h0a2.33,2.33,0,0,1,1.62-.77c1.1,0,1.57.77,1.58,2.05v3.16H74v-3c0-.73-.2-1-.63-1a1.27,1.27,0,0,0-.93.5v3.44H70.91Z" transform="translate(-3.6 -2.89)" fill="#e24329"/><path d="M30.53,52.71l.67-1a2.08,2.08,0,0,0,1.4.64,1,1,0,0,0,1.09-1,.93.93,0,0,0-1-1,1.51,1.51,0,0,0-1,.33L31,50.27l.17-3.3h3.67v1.27H32.51l-.11,1.23a1.52,1.52,0,0,1,.72-.16,1.91,1.91,0,0,1,2.07,2,2.24,2.24,0,0,1-2.37,2.28A3,3,0,0,1,30.53,52.71Z" transform="translate(-3.6 -2.89)" fill="#322f5b"/><path d="M36,52.62c1.65-1.57,2.81-2.7,2.81-3.62a.87.87,0,0,0-.92-1,1.63,1.63,0,0,0-1.15.67l-.82-.81a2.72,2.72,0,0,1,2.17-1,2,2,0,0,1,2.14,2.07c0,1.09-1,2.27-2.06,3.38a10.48,10.48,0,0,1,1.08-.09h1.31v1.27H36Z" transform="translate(-3.6 -2.89)" fill="#322f5b"/><path d="M41.17,48.77c0-1.33.69-2.12,1.64-2.12s1.67.78,1.67,2.11-.7,2.14-1.66,2.14S41.17,50.12,41.17,48.77Zm2.26,0c0-1-.28-1.28-.61-1.28s-.61.32-.61,1.28.28,1.29.61,1.29S43.43,49.72,43.43,48.77Zm3.2-2.13h.86l-3.57,7h-.87Zm-.55,4.81c0-1.34.68-2.12,1.64-2.12s1.67.78,1.67,2.11-.7,2.14-1.66,2.14S46.08,52.79,46.08,51.45Zm2.26,0c0-.95-.28-1.27-.62-1.27s-.61.32-.6,1.28.27,1.29.61,1.29S48.34,52.4,48.34,51.44Z" transform="translate(-3.6 -2.89)" fill="#322f5b"/><path d="M51.57,53.45l.08-.47,1.7-1.47a15.29,15.29,0,0,0,1.2-1.14,4.9,4.9,0,0,0,.71-1,2,2,0,0,0,.24-.93,1.15,1.15,0,0,0-.26-.76,1,1,0,0,0-.8-.31,1.47,1.47,0,0,0-.66.17,3.49,3.49,0,0,0-.68.49l-.39-.49a3.67,3.67,0,0,1,.89-.6,2.27,2.27,0,0,1,.93-.22,2.13,2.13,0,0,1,.74.12,1.63,1.63,0,0,1,.54.33,1.51,1.51,0,0,1,.34.52,1.91,1.91,0,0,1,.11.64,2.53,2.53,0,0,1-.21,1,4.24,4.24,0,0,1-.63,1,10.4,10.4,0,0,1-1.05,1.08L52.9,52.77h2.81l-.12.68Z" transform="translate(-3.6 -2.89)" fill="#322f5b"/><path d="M56.67,53.44l.13-.66h1.42l1-4.92H58l.1-.52a3.65,3.65,0,0,0,1.43-.47h.6L59,52.78h1.33l-.12.66Z" transform="translate(-3.6 -2.89)" fill="#322f5b"/><path d="M61.2,51.15l.12-.61h2.23l-.13.6Z" transform="translate(-3.6 -2.89)" fill="#322f5b"/><path d="M65.81,53.54a2.12,2.12,0,0,1-1.18-.33,2.7,2.7,0,0,1-.82-.79l.52-.42a2.24,2.24,0,0,0,.61.62,1.44,1.44,0,0,0,.88.27,1.81,1.81,0,0,0,.63-.11,1.51,1.51,0,0,0,.5-.28,1.27,1.27,0,0,0,.33-.43,1.37,1.37,0,0,0,.11-.54,1.09,1.09,0,0,0-.1-.48,1,1,0,0,0-.33-.39,1.64,1.64,0,0,0-.58-.25,3.68,3.68,0,0,0-.87-.08l.12-.6a3.68,3.68,0,0,0,1-.12,2.19,2.19,0,0,0,.65-.32,1.21,1.21,0,0,0,.36-.44,1.18,1.18,0,0,0,.1-.48,1,1,0,0,0-.25-.71,1,1,0,0,0-.78-.27,1.5,1.5,0,0,0-.63.14,2.77,2.77,0,0,0-.64.38l-.4-.52a2.9,2.9,0,0,1,1.79-.65,1.78,1.78,0,0,1,1.27.41,1.41,1.41,0,0,1,.44,1.08,1.71,1.71,0,0,1-.38,1.1A2.17,2.17,0,0,1,67,50v0a1.66,1.66,0,0,1,.84.54,1.32,1.32,0,0,1,.31.88,1.93,1.93,0,0,1-.18.85,1.83,1.83,0,0,1-.49.64,2.23,2.23,0,0,1-.76.42A3.14,3.14,0,0,1,65.81,53.54Z" transform="translate(-3.6 -2.89)" fill="#322f5b"/><path d="M71,53.53a2.3,2.3,0,0,1-.69-.1,1.85,1.85,0,0,1-.61-.31,1.68,1.68,0,0,1-.44-.54,1.73,1.73,0,0,1-.17-.75,1.87,1.87,0,0,1,.13-.68,2.2,2.2,0,0,1,.34-.55,2.49,2.49,0,0,1,.48-.43,4,4,0,0,1,.57-.32v0a2.32,2.32,0,0,1-.44-.59,1.85,1.85,0,0,1-.15-.7,1.74,1.74,0,0,1,.57-1.31,1.79,1.79,0,0,1,.61-.36,2.19,2.19,0,0,1,.73-.12,2,2,0,0,1,.59.09,1.38,1.38,0,0,1,.52.28,1.22,1.22,0,0,1,.35.48,1.53,1.53,0,0,1,.14.66,1.72,1.72,0,0,1-.35,1.1,2.89,2.89,0,0,1-.89.76v0c.09.07.2.15.3.24a2.28,2.28,0,0,1,.29.33,2.35,2.35,0,0,1,.21.42,1.53,1.53,0,0,1,.08.49,1.7,1.7,0,0,1-.18.79,1.74,1.74,0,0,1-.47.6,2.13,2.13,0,0,1-.69.39A2.49,2.49,0,0,1,71,53.53Zm0-.58a1.54,1.54,0,0,0,.52-.09,1.48,1.48,0,0,0,.44-.25,1.13,1.13,0,0,0,.32-.4,1.23,1.23,0,0,0,.12-.55,1,1,0,0,0-.12-.5,1.52,1.52,0,0,0-.32-.4,3.28,3.28,0,0,0-.47-.33L71,50.12a3.08,3.08,0,0,0-.85.67,1.44,1.44,0,0,0-.32,1,1.12,1.12,0,0,0,.1.5,1,1,0,0,0,.26.38,1.09,1.09,0,0,0,.39.23A1.28,1.28,0,0,0,71.06,53Zm.83-3.09a2.93,2.93,0,0,0,.36-.28,1.72,1.72,0,0,0,.32-.34,2.32,2.32,0,0,0,.22-.41,1.51,1.51,0,0,0,.08-.48,1,1,0,0,0-.29-.76,1,1,0,0,0-.69-.27,1.22,1.22,0,0,0-.43.08,1,1,0,0,0-.36.23,1,1,0,0,0-.25.36,1.3,1.3,0,0,0-.09.49,1.13,1.13,0,0,0,.3.82A2.78,2.78,0,0,0,71.89,49.86Z" transform="translate(-3.6 -2.89)" fill="#322f5b"/><path d="M30.63,103.4l.69-1a2.06,2.06,0,0,0,1.42.66c.63,0,1-.28,1-.78s-.34-.93-1.75-.93v-1.06c1.16,0,1.53-.36,1.53-.88s-.29-.72-.8-.72a1.79,1.79,0,0,0-1.21.58l-.76-.92a3,3,0,0,1,2-.84c1.34,0,2.24.64,2.24,1.78A1.54,1.54,0,0,1,34,100.78v0a1.62,1.62,0,0,1,1.29,1.59c0,1.21-1.1,1.91-2.4,1.91A2.84,2.84,0,0,1,30.63,103.4Z" transform="translate(-3.6 -2.89)" fill="#322f5b"/><path d="M39,98.93H36.1V97.67h4.5v.92c-1.5,1.83-1.71,3.06-1.82,5.6h-1.5A8.74,8.74,0,0,1,39,98.93Z" transform="translate(-3.6 -2.89)" fill="#322f5b"/><path d="M41.37,99.47c0-1.33.69-2.11,1.65-2.12s1.66.78,1.66,2.12S44,101.6,43,101.61,41.37,100.82,41.37,99.47Zm2.26,0c0-1-.28-1.27-.61-1.27s-.61.32-.61,1.27.28,1.29.61,1.29S43.63,100.42,43.63,99.47Zm3.2-2.12h.87l-3.58,7h-.86Zm-.55,4.8c0-1.33.69-2.11,1.65-2.12s1.66.78,1.66,2.12-.7,2.13-1.66,2.14S46.28,103.5,46.28,102.15Zm2.26,0c0-1-.28-1.27-.61-1.27s-.61.32-.61,1.27.28,1.29.61,1.29S48.54,103.1,48.54,102.15Z" transform="translate(-3.6 -2.89)" fill="#322f5b"/><path d="M53.78,104.27a2.15,2.15,0,0,1-1.19-.33,2.78,2.78,0,0,1-.81-.79l.52-.42a2.35,2.35,0,0,0,.6.62,1.49,1.49,0,0,0,.89.27,2.08,2.08,0,0,0,.63-.11,1.51,1.51,0,0,0,.5-.28,1.22,1.22,0,0,0,.44-1,1.06,1.06,0,0,0-.1-.48,1,1,0,0,0-.33-.39,1.64,1.64,0,0,0-.58-.25,3.72,3.72,0,0,0-.88-.08l.12-.6a3.58,3.58,0,0,0,1-.12,2.26,2.26,0,0,0,.66-.32,1.17,1.17,0,0,0,.35-.44,1.05,1.05,0,0,0,.11-.48,1,1,0,0,0-.26-.71,1,1,0,0,0-.77-.27,1.58,1.58,0,0,0-.64.14,2.71,2.71,0,0,0-.63.38l-.4-.52a2.9,2.9,0,0,1,1.79-.65,1.78,1.78,0,0,1,1.27.41A1.44,1.44,0,0,1,56.52,99a1.71,1.71,0,0,1-.38,1.1,2.17,2.17,0,0,1-1.14.7v0a1.66,1.66,0,0,1,.84.54,1.37,1.37,0,0,1,.31.88,1.93,1.93,0,0,1-.18.85,1.83,1.83,0,0,1-.49.64,2.23,2.23,0,0,1-.76.42A3.14,3.14,0,0,1,53.78,104.27Z" transform="translate(-3.6 -2.89)" fill="#322f5b"/><path d="M58.36,104.26a1.42,1.42,0,0,1-.87-.25,2,2,0,0,1-.55-.58l.53-.42a1.55,1.55,0,0,0,.39.44,1,1,0,0,0,.55.16,1.46,1.46,0,0,0,.72-.21,2.19,2.19,0,0,0,.63-.56,3.53,3.53,0,0,0,.49-.88,5,5,0,0,0,.31-1.15,2.17,2.17,0,0,1-.74.56,1.93,1.93,0,0,1-.74.18,1.51,1.51,0,0,1-1.16-.45,1.78,1.78,0,0,1-.44-1.25,2.78,2.78,0,0,1,.16-.92,2.48,2.48,0,0,1,.44-.76,2.12,2.12,0,0,1,.67-.52,1.78,1.78,0,0,1,.83-.19,1.65,1.65,0,0,1,.75.16,1.51,1.51,0,0,1,.57.46,1.94,1.94,0,0,1,.36.7,3.13,3.13,0,0,1,.13.89,7.15,7.15,0,0,1-.23,1.85,4.93,4.93,0,0,1-.63,1.45,3.1,3.1,0,0,1-1,1A2.26,2.26,0,0,1,58.36,104.26Zm.89-3.3a1.11,1.11,0,0,0,.29,0,1.42,1.42,0,0,0,.35-.14,2,2,0,0,0,.38-.26,2.32,2.32,0,0,0,.37-.39,1.85,1.85,0,0,0,0-.23v-.25a2,2,0,0,0-.3-1.14.93.93,0,0,0-.81-.44,1,1,0,0,0-.52.15,1.51,1.51,0,0,0-.42.38,1.83,1.83,0,0,0-.38,1.13,1.4,1.4,0,0,0,.26.9A.92.92,0,0,0,59.25,101Z" transform="translate(-3.6 -2.89)" fill="#322f5b"/><path d="M62.26,101.85l.12-.61h2.23l-.13.61Z" transform="translate(-3.6 -2.89)" fill="#322f5b"/><path d="M66.89,104.24a1.9,1.9,0,0,1-1.15-.32,2.6,2.6,0,0,1-.77-.78l.51-.42a2.43,2.43,0,0,0,.24.32,1.38,1.38,0,0,0,.31.28,1.5,1.5,0,0,0,.4.2,2,2,0,0,0,.51.07,1.54,1.54,0,0,0,.6-.13,1.5,1.5,0,0,0,.51-.35,1.74,1.74,0,0,0,.49-1.27,1.28,1.28,0,0,0-.32-1,1.22,1.22,0,0,0-.85-.31,1.69,1.69,0,0,0-.54.09,3.65,3.65,0,0,0-.55.26l-.34-.27.81-3.1h3l-.14.68H67.29l-.52,1.93a2.77,2.77,0,0,1,.38-.14,1.73,1.73,0,0,1,.47-.06,2.15,2.15,0,0,1,.68.1,1.48,1.48,0,0,1,.54.33,1.5,1.5,0,0,1,.36.54,2.34,2.34,0,0,1,.13.75,2.61,2.61,0,0,1-.21,1.06,2.34,2.34,0,0,1-1.31,1.31A2.43,2.43,0,0,1,66.89,104.24Z" transform="translate(-3.6 -2.89)" fill="#322f5b"/><path d="M73.21,104.11h-.73l.36-1.81H70.07l.09-.54,3.48-4.22h.85l-.8,4.11h.85l-.13.64h-.85ZM71,101.67H73l.37-1.94q.06-.3.15-.63c.06-.23.11-.45.17-.68h0l-.4.56c-.14.19-.26.36-.39.51Z" transform="translate(-3.6 -2.89)" fill="#322f5b"/><path d="M30.84,130.73c1.65-1.57,2.81-2.69,2.81-3.62a.87.87,0,0,0-.92-1,1.65,1.65,0,0,0-1.15.67l-.82-.81a2.72,2.72,0,0,1,2.17-1A2,2,0,0,1,35.08,127c0,1.1-1,2.27-2.06,3.38a10,10,0,0,1,1.08-.08h1.3v1.28H30.85Z" transform="translate(-3.6 -2.89)" fill="#322f5b"/><path d="M36.26,130.72c1.65-1.57,2.81-2.69,2.81-3.62a.87.87,0,0,0-.92-1,1.63,1.63,0,0,0-1.15.67l-.82-.81a2.72,2.72,0,0,1,2.17-1A2,2,0,0,1,40.5,127c0,1.09-1,2.27-2.07,3.38a10.48,10.48,0,0,1,1.08-.09h1.31v1.27H36.27Z" transform="translate(-3.6 -2.89)" fill="#322f5b"/><path d="M41.47,126.87c0-1.33.69-2.12,1.65-2.12s1.66.78,1.66,2.11-.7,2.14-1.65,2.14S41.47,128.22,41.47,126.87Zm2.26,0c0-1-.27-1.28-.61-1.28s-.61.32-.61,1.28.28,1.29.61,1.29S43.74,127.82,43.73,126.87Zm3.2-2.13h.87l-3.58,7h-.86Zm-.55,4.81c0-1.34.69-2.12,1.65-2.12s1.66.78,1.66,2.11-.7,2.14-1.65,2.14S46.38,130.9,46.38,129.55Zm2.26,0c0-.95-.28-1.27-.61-1.27s-.61.32-.61,1.28.28,1.29.61,1.29S48.64,130.5,48.64,129.54Z" transform="translate(-3.6 -2.89)" fill="#322f5b"/><path d="M53.85,131.67a2,2,0,0,1-1.15-.32,2.75,2.75,0,0,1-.77-.79l.51-.42a2,2,0,0,0,.24.33,2.12,2.12,0,0,0,.31.28,1.48,1.48,0,0,0,.4.19,1.61,1.61,0,0,0,.51.07,1.53,1.53,0,0,0,.6-.12,1.57,1.57,0,0,0,.52-.36,1.92,1.92,0,0,0,.35-.55,1.81,1.81,0,0,0,.13-.72,1.26,1.26,0,0,0-.32-.94,1.17,1.17,0,0,0-.85-.31,1.71,1.71,0,0,0-.54.08,5,5,0,0,0-.55.26l-.34-.26.81-3.1h3l-.14.68H54.25l-.52,1.93a2.77,2.77,0,0,1,.38-.14,1.45,1.45,0,0,1,.47-.07,2.11,2.11,0,0,1,.68.11,1.46,1.46,0,0,1,.54.32,1.7,1.7,0,0,1,.36.54,2.2,2.2,0,0,1,.13.76,2.52,2.52,0,0,1-.21,1,2.42,2.42,0,0,1-.53.81,2.51,2.51,0,0,1-.78.51A2.43,2.43,0,0,1,53.85,131.67Z" transform="translate(-3.6 -2.89)" fill="#322f5b"/><path d="M58.75,131.66a2,2,0,0,1-1.15-.32,2.75,2.75,0,0,1-.77-.79l.51-.42a2,2,0,0,0,.24.33,2.12,2.12,0,0,0,.31.28,1.48,1.48,0,0,0,.4.19,1.61,1.61,0,0,0,.51.07,1.53,1.53,0,0,0,.6-.12,1.67,1.67,0,0,0,.52-.36,1.92,1.92,0,0,0,.35-.55,1.81,1.81,0,0,0,.13-.72,1.26,1.26,0,0,0-.32-.94,1.17,1.17,0,0,0-.85-.31,1.71,1.71,0,0,0-.54.08,4.28,4.28,0,0,0-.55.26l-.34-.27.81-3.09h3l-.14.68H59.15l-.52,1.93a1.88,1.88,0,0,1,.38-.14,1.41,1.41,0,0,1,.47-.07,2.11,2.11,0,0,1,.68.11,1.46,1.46,0,0,1,.54.32,1.6,1.6,0,0,1,.36.54,2.45,2.45,0,0,1,.13.75,2.54,2.54,0,0,1-.21,1.06,2.42,2.42,0,0,1-.53.81,2.51,2.51,0,0,1-.78.51A2.43,2.43,0,0,1,58.75,131.66Z" transform="translate(-3.6 -2.89)" fill="#322f5b"/><path d="M63.91,130.47v-2.05H62.13v-.58h1.78v-2h.61v2h1.79v.59h-1.8v2Z" transform="translate(-3.6 -2.89)" fill="#322f5b"/><line x1="0.31" y1="119.5" x2="23.23" y2="119.45" fill="none" stroke="#fff" stroke-miterlimit="10" stroke-width="0.73"/><line x1="0.21" y1="77.94" x2="23.14" y2="77.89" fill="none" stroke="#fff" stroke-miterlimit="10" stroke-width="0.73"/></svg>