<svg id="australia" xmlns="http://www.w3.org/2000/svg" xmlns:xlink="http://www.w3.org/1999/xlink" viewBox="0 0 112.1 130.45"><defs><clipPath id="clip-path" transform="translate(-2.92 -3.65)"><rect x="4.13" y="21.76" width="18.49" height="32.61" fill="none"/></clipPath><clipPath id="clip-path-2" transform="translate(-2.92 -3.65)"><rect x="4.17" y="21.78" width="18.42" height="32.57" transform="translate(-0.08 0.03) rotate(-0.12)" fill="none"/></clipPath></defs><title>australia</title><path d="M30.14,4.49h1.5V7.06h2.29V4.48h1.51l0,6.69H34V8.39H31.65v2.79H30.16Z" transform="translate(-2.92 -3.65)" fill="#e24329"/><path d="M36.6,8.63a2.47,2.47,0,1,1,4.92,0,2.47,2.47,0,1,1-4.92,0Zm3.39,0c0-.88-.32-1.45-.93-1.45s-.92.57-.92,1.45.31,1.45.93,1.45S40,9.5,40,8.62Z" transform="translate(-2.92 -3.65)" fill="#e24329"/><path d="M42.5,9.23V6.07H44V9c0,.73.19,1,.63,1s.6-.16.89-.56V6.06H47v5.09H45.8l-.11-.71h0a2,2,0,0,1-1.59.84C43,11.28,42.5,10.5,42.5,9.23Z" transform="translate(-2.92 -3.65)" fill="#e24329"/><path d="M47.89,10.56l.67-.94a2.23,2.23,0,0,0,1.31.53c.44,0,.64-.17.64-.44s-.51-.49-1-.69-1.34-.66-1.34-1.5.76-1.59,1.93-1.59a2.84,2.84,0,0,1,1.79.64l-.67.9a1.84,1.84,0,0,0-1.08-.42c-.38,0-.57.14-.57.4s.47.45,1,.64,1.37.6,1.37,1.53-.72,1.64-2.07,1.65A3.25,3.25,0,0,1,47.89,10.56Z" transform="translate(-2.92 -3.65)" fill="#e24329"/><path d="M52.55,8.59a2.49,2.49,0,0,1,2.38-2.67c1.44,0,2.15,1,2.15,2.43A2.77,2.77,0,0,1,57,9H54a1.21,1.21,0,0,0,1.31,1.07,2,2,0,0,0,1.09-.34l.51.92a3.3,3.3,0,0,1-1.8.57A2.47,2.47,0,0,1,52.55,8.59ZM55.81,8c0-.57-.25-1-.85-1a1,1,0,0,0-1,1Z" transform="translate(-2.92 -3.65)" fill="#e24329"/><path d="M58.11,3.93h1.5V5.69l-.07.91a2.32,2.32,0,0,1,1.56-.7c1.1,0,1.57.78,1.58,2.05v3.17H61.19v-3c0-.74-.2-1-.63-1a1.25,1.25,0,0,0-.93.49v3.44h-1.5Z" transform="translate(-2.92 -3.65)" fill="#e24329"/><path d="M63.64,8.57a2.47,2.47,0,1,1,4.92,0,2.47,2.47,0,1,1-4.92,0Zm3.39,0c0-.88-.31-1.45-.92-1.45s-.93.57-.93,1.45.31,1.45.93,1.45S67,9.44,67,8.56Z" transform="translate(-2.92 -3.65)" fill="#e24329"/><path d="M69.56,9.52V3.9h1.5V9.58c0,.32.14.42.27.42a.62.62,0,0,0,.18,0l.19,1.12a2,2,0,0,1-.76.12C69.91,11.22,69.56,10.55,69.56,9.52Z" transform="translate(-2.92 -3.65)" fill="#e24329"/><path d="M72.2,8.55c0-1.67,1-2.67,2.09-2.68a1.7,1.7,0,0,1,1.25.53l-.07-.78V3.89H77v7.19H75.76l-.1-.51h0a2,2,0,0,1-1.35.63C73,11.22,72.2,10.21,72.2,8.55Zm3.28,1V7.43a1.23,1.23,0,0,0-.84-.33c-.48,0-.91.46-.9,1.42s.34,1.46.92,1.46A.94.94,0,0,0,75.48,9.52Z" transform="translate(-2.92 -3.65)" fill="#e24329"/><path d="M80.2,4.44a.87.87,0,1,1,.87.79A.8.8,0,0,1,80.2,4.44ZM80.33,6h1.5v5.09h-1.5Z" transform="translate(-2.92 -3.65)" fill="#e24329"/><path d="M83.11,6h1.22l.11.65h0a2.3,2.3,0,0,1,1.62-.77c1.1,0,1.57.77,1.57,2.05v3.16h-1.5v-3c0-.74-.19-1-.62-1a1.29,1.29,0,0,0-.94.5v3.44h-1.5Z" transform="translate(-2.92 -3.65)" fill="#e24329"/><path d="M88.65,8.51a2.54,2.54,0,0,1,2.62-2.67,2.18,2.18,0,0,1,1.48.54l-.7,1a1.06,1.06,0,0,0-.68-.29c-.73,0-1.18.57-1.18,1.45S90.67,10,91.32,10a1.52,1.52,0,0,0,.91-.37l.59,1a2.52,2.52,0,0,1-1.67.61A2.44,2.44,0,0,1,88.65,8.51Z" transform="translate(-2.92 -3.65)" fill="#e24329"/><path d="M93.25,8.5a2.47,2.47,0,1,1,4.92,0,2.47,2.47,0,1,1-4.92,0Zm3.4,0c0-.88-.32-1.44-.93-1.44s-.93.57-.93,1.45.31,1.45.93,1.44S96.65,9.38,96.65,8.49Z" transform="translate(-2.92 -3.65)" fill="#e24329"/><path d="M99.19,5.94h1.22l.1.66h0a2.1,2.1,0,0,1,1.53-.79,1.41,1.41,0,0,1,1.4.85,2.2,2.2,0,0,1,1.59-.85c1.09,0,1.58.77,1.58,2.05V11h-1.5v-3c0-.74-.19-1-.62-1a1.35,1.35,0,0,0-.87.5V11h-1.5v-3c0-.74-.2-1-.63-1a1.29,1.29,0,0,0-.85.49V11H99.2Z" transform="translate(-2.92 -3.65)" fill="#e24329"/><path d="M107.62,8.47A2.49,2.49,0,0,1,110,5.8c1.44,0,2.16,1,2.16,2.44a3.37,3.37,0,0,1-.06.66h-3A1.22,1.22,0,0,0,110.39,10a2,2,0,0,0,1.09-.34l.5.92a3.27,3.27,0,0,1-1.79.57A2.48,2.48,0,0,1,107.62,8.47Zm3.27-.56c0-.57-.25-1-.85-1a1,1,0,0,0-1,1Z" transform="translate(-2.92 -3.65)" fill="#e24329"/><path d="M29.81,39.81c1.65-1.58,2.81-2.7,2.81-3.62a.88.88,0,0,0-.92-1,1.63,1.63,0,0,0-1.15.67l-.82-.81a2.72,2.72,0,0,1,2.17-1A2,2,0,0,1,34,36.09c0,1.1-1,2.27-2.06,3.38a10.38,10.38,0,0,1,1.08-.08h1.31v1.27H29.81Z" transform="translate(-2.92 -3.65)" fill="#322f5b"/><path d="M35.26,40l.79-.9a1.49,1.49,0,0,0,1,.46c.73,0,1.29-.52,1.34-2a1.84,1.84,0,0,1-1.3.69,1.8,1.8,0,0,1-1.93-2A2.1,2.1,0,0,1,37.31,34c1.25,0,2.46.94,2.46,3.23s-1.26,3.53-2.61,3.54A2.64,2.64,0,0,1,35.26,40Zm3.09-3.51c-.13-1-.55-1.35-1-1.35s-.82.32-.81,1.06.37.94.86.94A1.1,1.1,0,0,0,38.35,36.49Z" transform="translate(-2.92 -3.65)" fill="#322f5b"/><path d="M40.53,35.94c0-1.33.69-2.11,1.64-2.12s1.67.78,1.67,2.12-.7,2.13-1.66,2.14S40.53,37.29,40.53,35.94Zm2.26,0c0-1-.28-1.27-.61-1.27s-.61.32-.61,1.27.28,1.29.61,1.29S42.79,36.89,42.79,35.94ZM46,33.82h.86l-3.57,6.95h-.87Zm-.55,4.8c0-1.33.69-2.11,1.64-2.12s1.67.78,1.67,2.12-.7,2.13-1.66,2.14S45.44,40,45.44,38.62Zm2.26,0c0-1-.28-1.27-.61-1.27s-.62.32-.61,1.27.27,1.29.61,1.29S47.7,39.57,47.7,38.62Z" transform="translate(-2.92 -3.65)" fill="#322f5b"/><path d="M52,37.66l.75-3.78h.79l-.75,3.85a4.34,4.34,0,0,0-.09.81A1.74,1.74,0,0,0,53,39.66a1.28,1.28,0,0,0,1,.39,1.46,1.46,0,0,0,.55-.11,1.59,1.59,0,0,0,.48-.36,2.32,2.32,0,0,0,.39-.64A3.89,3.89,0,0,0,55.7,38l.82-4.13h.77L56.47,38a5.79,5.79,0,0,1-.38,1.25,3,3,0,0,1-.57.84,2,2,0,0,1-.71.47,2.4,2.4,0,0,1-.84.15,2.13,2.13,0,0,1-1.57-.53,2.16,2.16,0,0,1-.55-1.59,3.67,3.67,0,0,1,0-.46A4.61,4.61,0,0,1,52,37.66Z" transform="translate(-2.92 -3.65)" fill="#322f5b"/><path d="M57.53,40.61l1-5h.64l-.07.75h0a6.92,6.92,0,0,1,.84-.62,1.8,1.8,0,0,1,.89-.26,1.1,1.1,0,0,1,.9.33,1.4,1.4,0,0,1,.27.92c0,.11,0,.22,0,.32a1.75,1.75,0,0,1-.07.36l-.62,3.19h-.77l.6-3.08q0-.21.06-.33a2.11,2.11,0,0,0,0-.26.81.81,0,0,0-.18-.57.7.7,0,0,0-.55-.2,1.35,1.35,0,0,0-.66.22,4.92,4.92,0,0,0-.83.69l-.7,3.54Z" transform="translate(-2.92 -3.65)" fill="#322f5b"/><path d="M66.76,36.2l.16-1,.38-2h.79l-1.45,7.32H66l.08-.74h0a2.86,2.86,0,0,1-.8.63,1.91,1.91,0,0,1-.92.24,1.29,1.29,0,0,1-1-.46,2.17,2.17,0,0,1-.39-1.35,3.89,3.89,0,0,1,.23-1.34,3.35,3.35,0,0,1,.59-1.09,3.14,3.14,0,0,1,.86-.74,2.23,2.23,0,0,1,1-.27,1.24,1.24,0,0,1,.69.2,1.63,1.63,0,0,1,.48.53ZM64.6,40.06a1.56,1.56,0,0,0,.78-.23,2.75,2.75,0,0,0,.77-.73l.45-2.23a1.5,1.5,0,0,0-.47-.56.92.92,0,0,0-.54-.18,1.34,1.34,0,0,0-.71.22,2.2,2.2,0,0,0-.62.6,3.37,3.37,0,0,0-.42.85,3.21,3.21,0,0,0-.15,1,1.51,1.51,0,0,0,.25,1A.78.78,0,0,0,64.6,40.06Z" transform="translate(-2.92 -3.65)" fill="#322f5b"/><path d="M68.23,38.62a3.57,3.57,0,0,1,.23-1.29,3.38,3.38,0,0,1,.61-1,2.51,2.51,0,0,1,.84-.65,2.25,2.25,0,0,1,1-.23,1.66,1.66,0,0,1,.71.14,1.26,1.26,0,0,1,.47.38,1.37,1.37,0,0,1,.27.57,2.79,2.79,0,0,1,.08.72,2.47,2.47,0,0,1-.06.56,3,3,0,0,1-.11.42H69a2.25,2.25,0,0,0,0,.83,1.26,1.26,0,0,0,.27.57,1.09,1.09,0,0,0,.46.33,1.89,1.89,0,0,0,.6.1A1.57,1.57,0,0,0,71,40a2.65,2.65,0,0,0,.52-.31l.31.53a3.08,3.08,0,0,1-.7.37,2.37,2.37,0,0,1-.9.17,1.91,1.91,0,0,1-1.42-.54A2.14,2.14,0,0,1,68.23,38.62Zm.86-.9h2.6a1.87,1.87,0,0,0,0-.25,2.17,2.17,0,0,0,0-.26,1.93,1.93,0,0,0,0-.42,1,1,0,0,0-.16-.35.81.81,0,0,0-.3-.25,1,1,0,0,0-.45-.09,1.4,1.4,0,0,0-.53.11,1.76,1.76,0,0,0-.49.33,3.1,3.1,0,0,0-.4.52A2.68,2.68,0,0,0,69.09,37.72Z" transform="translate(-2.92 -3.65)" fill="#322f5b"/><path d="M73,40.58l1-5h.64l-.11,1h0a3.42,3.42,0,0,1,.69-.77,1.37,1.37,0,0,1,.85-.31,1.23,1.23,0,0,1,.47.09l-.28.7a1,1,0,0,0-.42-.08,1.22,1.22,0,0,0-.76.32,2.88,2.88,0,0,0-.7.94l-.61,3.15Z" transform="translate(-2.92 -3.65)" fill="#322f5b"/><path d="M77.62,40.57l3.61-6.75h.91l.79,6.74h-.82l-.19-2.11H79.56l-1.07,2.1Zm2.84-3.88-.59,1.15h2l-.11-1.15c0-.35-.06-.71-.1-1.07s-.06-.74-.08-1.13h0c-.17.4-.35.77-.52,1.12Z" transform="translate(-2.92 -3.65)" fill="#322f5b"/><path d="M84.9,41.68l.2-1a2.1,2.1,0,0,1-.83-.35,3.28,3.28,0,0,1-.65-.57l.5-.49a2.83,2.83,0,0,0,.59.55,1.36,1.36,0,0,0,.82.24,1.31,1.31,0,0,0,.92-.33,1.13,1.13,0,0,0,.35-.86,1.19,1.19,0,0,0-.16-.64,2.14,2.14,0,0,0-.41-.49,4.33,4.33,0,0,0-.52-.42,4.58,4.58,0,0,1-.53-.44,2.2,2.2,0,0,1-.4-.51,1.37,1.37,0,0,1-.17-.68,2,2,0,0,1,.13-.7,1.79,1.79,0,0,1,.38-.56,1.91,1.91,0,0,1,.56-.38,2.11,2.11,0,0,1,.72-.16l.2-1h.57L87,33.89a1.94,1.94,0,0,1,.67.31,2.47,2.47,0,0,1,.54.53l-.51.46a1.83,1.83,0,0,0-.5-.5,1.18,1.18,0,0,0-1.46.09,1,1,0,0,0-.31.75.9.9,0,0,0,.16.55,1.85,1.85,0,0,0,.41.43,5.31,5.31,0,0,0,.51.4,4.65,4.65,0,0,1,.53.45,2.16,2.16,0,0,1,.4.57,1.67,1.67,0,0,1,.16.76,2,2,0,0,1-.13.75,1.65,1.65,0,0,1-.38.62,1.9,1.9,0,0,1-.6.42,2.13,2.13,0,0,1-.78.19l-.2,1Z" transform="translate(-2.92 -3.65)" fill="#322f5b"/><path d="M90.48,40.66a2.37,2.37,0,0,1-.7-.1,1.8,1.8,0,0,1-.6-.31,1.68,1.68,0,0,1-.44-.54,1.6,1.6,0,0,1-.17-.75,1.68,1.68,0,0,1,.13-.68,2.17,2.17,0,0,1,.33-.55,2.56,2.56,0,0,1,.49-.43,4,4,0,0,1,.57-.32v0a2.32,2.32,0,0,1-.44-.59,1.54,1.54,0,0,1-.15-.7,1.79,1.79,0,0,1,.15-.75,1.68,1.68,0,0,1,.42-.56,1.79,1.79,0,0,1,.61-.36,2.13,2.13,0,0,1,.72-.12A2,2,0,0,1,92,34a1.46,1.46,0,0,1,.52.28,1.33,1.33,0,0,1,.35.48,1.53,1.53,0,0,1,.14.66,1.72,1.72,0,0,1-.35,1.1,3,3,0,0,1-.89.76v0l.3.24a3.11,3.11,0,0,1,.29.33,2.06,2.06,0,0,1,.21.42,1.53,1.53,0,0,1,.08.49,1.7,1.7,0,0,1-.18.79,1.87,1.87,0,0,1-.47.6,2.13,2.13,0,0,1-.69.39A2.53,2.53,0,0,1,90.48,40.66Zm0-.58A1.83,1.83,0,0,0,91,40a1.48,1.48,0,0,0,.44-.25,1.13,1.13,0,0,0,.32-.4,1.23,1.23,0,0,0,.11-.55,1.19,1.19,0,0,0-.11-.51,1.49,1.49,0,0,0-.33-.39,2.44,2.44,0,0,0-.47-.33c-.17-.11-.36-.21-.55-.31a3.18,3.18,0,0,0-.84.67,1.39,1.39,0,0,0-.32,1,1.28,1.28,0,0,0,.09.5,1.19,1.19,0,0,0,.27.38A1.09,1.09,0,0,0,90,40,1.28,1.28,0,0,0,90.52,40.08ZM91.35,37a4.39,4.39,0,0,0,.36-.28,2.58,2.58,0,0,0,.32-.34,1.77,1.77,0,0,0,.21-.41,1.1,1.1,0,0,0,.08-.48,1,1,0,0,0-.28-.76,1,1,0,0,0-.7-.27,1.2,1.2,0,0,0-.42.08,1,1,0,0,0-.36.23,1,1,0,0,0-.25.36,1.3,1.3,0,0,0-.09.49,1.17,1.17,0,0,0,.29.82A3,3,0,0,0,91.35,37Z" transform="translate(-2.92 -3.65)" fill="#322f5b"/><path d="M93,40.53l.08-.47,1.7-1.46A15.23,15.23,0,0,0,96,37.45a4.9,4.9,0,0,0,.71-1,2,2,0,0,0,.24-.93,1.17,1.17,0,0,0-.26-.76,1,1,0,0,0-.8-.31,1.47,1.47,0,0,0-.66.17,3.49,3.49,0,0,0-.68.49l-.39-.49a3.67,3.67,0,0,1,.89-.6,2.11,2.11,0,0,1,.93-.21,2.13,2.13,0,0,1,.74.11,1.5,1.5,0,0,1,.54.34,1.39,1.39,0,0,1,.34.51,1.93,1.93,0,0,1,.11.65,2.52,2.52,0,0,1-.21,1,4,4,0,0,1-.63,1,10.4,10.4,0,0,1-1,1.08l-1.47,1.31h2.81l-.12.67Z" transform="translate(-2.92 -3.65)" fill="#322f5b"/><path d="M97.72,42.21l-.12-.48a1.9,1.9,0,0,0,.78-.49,1.39,1.39,0,0,0,.35-.68h0a.55.55,0,0,1-.38-.13.43.43,0,0,1-.15-.36.69.69,0,0,1,.18-.46.6.6,0,0,1,.47-.2.5.5,0,0,1,.41.18.85.85,0,0,1,.14.5,2.1,2.1,0,0,1-.45,1.33A2.4,2.4,0,0,1,97.72,42.21Z" transform="translate(-2.92 -3.65)" fill="#322f5b"/><path d="M103.48,40.51h-.73l.36-1.81h-2.77l.09-.54L103.9,34h.86L104,38.06h.86l-.13.64h-.85Zm-2.19-2.44h1.94l.37-1.94q.06-.3.15-.63c0-.22.11-.45.16-.67h0l-.4.56-.38.51Z" transform="translate(-2.92 -3.65)" fill="#322f5b"/><path d="M107.08,40.62a2,2,0,0,1-1.19-.33,2.66,2.66,0,0,1-.81-.79l.51-.41a2.52,2.52,0,0,0,.61.61,1.46,1.46,0,0,0,.88.27,1.87,1.87,0,0,0,.64-.11,1.62,1.62,0,0,0,.5-.28,1.13,1.13,0,0,0,.32-.43,1.19,1.19,0,0,0,.12-.54,1.29,1.29,0,0,0-.1-.48.92.92,0,0,0-.33-.38,1.64,1.64,0,0,0-.58-.26,4.33,4.33,0,0,0-.88-.08l.12-.6a3.63,3.63,0,0,0,1-.12,2.26,2.26,0,0,0,.66-.32,1.19,1.19,0,0,0,.46-.92.92.92,0,0,0-1-1,1.77,1.77,0,0,0-.64.14,2.85,2.85,0,0,0-.63.38l-.4-.52a2.9,2.9,0,0,1,1.79-.65,1.74,1.74,0,0,1,1.26.41,1.38,1.38,0,0,1,.44,1.09,1.74,1.74,0,0,1-.37,1.1,2.22,2.22,0,0,1-1.14.69v0a1.73,1.73,0,0,1,.84.54,1.36,1.36,0,0,1,.3.88,1.93,1.93,0,0,1-.17.85,2,2,0,0,1-.5.65,2.26,2.26,0,0,1-.75.41A2.89,2.89,0,0,1,107.08,40.62Z" transform="translate(-2.92 -3.65)" fill="#322f5b"/><path d="M112.38,40.61a1.65,1.65,0,0,1-.75-.16,1.56,1.56,0,0,1-.56-.46,2,2,0,0,1-.37-.7,3.13,3.13,0,0,1-.13-.89,7.08,7.08,0,0,1,.23-1.84,5,5,0,0,1,.63-1.46,3.1,3.1,0,0,1,1-1,2.24,2.24,0,0,1,1.21-.34,1.42,1.42,0,0,1,.87.25,2.15,2.15,0,0,1,.55.58l-.53.42a1.44,1.44,0,0,0-.4-.44.83.83,0,0,0-.53-.15,1.36,1.36,0,0,0-.73.2,2.23,2.23,0,0,0-.64.56,3.76,3.76,0,0,0-.5.89,6,6,0,0,0-.31,1.17,2.18,2.18,0,0,1,.76-.58,1.8,1.8,0,0,1,.75-.19A1.51,1.51,0,0,1,114,37a1.73,1.73,0,0,1,.43,1.25,2.77,2.77,0,0,1-.15.92,2.48,2.48,0,0,1-.44.76,2.24,2.24,0,0,1-.67.52A1.78,1.78,0,0,1,112.38,40.61Zm0-.61a1,1,0,0,0,.52-.15,1.51,1.51,0,0,0,.43-.37,2.07,2.07,0,0,0,.28-.53,1.86,1.86,0,0,0,.1-.61,1.44,1.44,0,0,0-.26-.9.92.92,0,0,0-.78-.33,1.65,1.65,0,0,0-.64.18,2,2,0,0,0-.75.65,1.85,1.85,0,0,0,0,.23v.25a2,2,0,0,0,.29,1.14A1,1,0,0,0,112.42,40Z" transform="translate(-2.92 -3.65)" fill="#322f5b"/><path d="M30,93.71c0-2.43,1.24-3.54,2.61-3.54a2.57,2.57,0,0,1,1.89.78l-.78.9a1.54,1.54,0,0,0-1-.46c-.71,0-1.28.52-1.33,2a1.84,1.84,0,0,1,1.3-.69,1.8,1.8,0,0,1,1.93,2,2.1,2.1,0,0,1-2.15,2.19C31.17,96.94,30,96,30,93.71Zm3.23,1c0-.69-.36-.94-.85-.94a1.13,1.13,0,0,0-1,.64c.13,1,.56,1.36,1,1.36S33.2,95.49,33.2,94.75Z" transform="translate(-2.92 -3.65)" fill="#322f5b"/><path d="M35.2,96l.67-1a2.09,2.09,0,0,0,1.4.65,1,1,0,0,0,1.09-1,.94.94,0,0,0-1-1,1.54,1.54,0,0,0-.95.33l-.68-.43.18-3.29h3.67v1.27H37.18l-.11,1.22a1.64,1.64,0,0,1,.72-.16,1.9,1.9,0,0,1,2.06,2,2.24,2.24,0,0,1-2.37,2.29A3.07,3.07,0,0,1,35.2,96Z" transform="translate(-2.92 -3.65)" fill="#322f5b"/><path d="M40.52,92.09c0-1.33.69-2.11,1.65-2.11s1.66.77,1.66,2.11-.7,2.13-1.66,2.14S40.52,93.44,40.52,92.09Zm2.26,0c0-1-.28-1.27-.61-1.27s-.61.32-.61,1.27.28,1.3.61,1.29S42.78,93,42.78,92.09ZM46,90h.86l-3.57,7H42.4Zm-.55,4.8c0-1.33.69-2.11,1.64-2.12s1.67.78,1.67,2.12-.7,2.13-1.66,2.14S45.43,96.12,45.43,94.77Zm2.26,0c0-1-.28-1.27-.61-1.27s-.62.32-.61,1.27.27,1.29.61,1.29S47.69,95.72,47.69,94.77Z" transform="translate(-2.92 -3.65)" fill="#322f5b"/><path d="M54,96.89a2.25,2.25,0,0,1-1-.2,1.83,1.83,0,0,1-.72-.57,2.41,2.41,0,0,1-.45-.89,4.18,4.18,0,0,1-.15-1.16,5,5,0,0,1,.23-1.52,4.62,4.62,0,0,1,.67-1.33,3.33,3.33,0,0,1,1-1,2.47,2.47,0,0,1,1.32-.36,2.4,2.4,0,0,1,1,.2,1.83,1.83,0,0,1,.72.57,2.41,2.41,0,0,1,.45.89,4.11,4.11,0,0,1,.15,1.15A4.64,4.64,0,0,1,57,94.23a4.73,4.73,0,0,1-.67,1.35,3.42,3.42,0,0,1-1,1A2.52,2.52,0,0,1,54,96.89Zm0-.69a1.68,1.68,0,0,0,1-.31,2.92,2.92,0,0,0,.75-.81,4.39,4.39,0,0,0,.49-1.1,4.56,4.56,0,0,0,.17-1.19,3,3,0,0,0-.38-1.6,1.28,1.28,0,0,0-1.17-.6,1.68,1.68,0,0,0-1,.31,2.88,2.88,0,0,0-.75.8,4.39,4.39,0,0,0-.49,1.1A4.65,4.65,0,0,0,52.44,94a4.16,4.16,0,0,0,.09.9,2.17,2.17,0,0,0,.29.69,1.2,1.2,0,0,0,.48.44A1.41,1.41,0,0,0,54,96.2Z" transform="translate(-2.92 -3.65)" fill="#322f5b"/><path d="M58.79,96.76l-.73-5h.77l.38,2.89c0,.24,0,.49.07.75s0,.5.07.74h0c.12-.25.23-.5.36-.75s.24-.5.37-.74l1.45-2.89h.79l-2.63,5Z" transform="translate(-2.92 -3.65)" fill="#322f5b"/><path d="M62.28,94.79a3.49,3.49,0,0,1,.23-1.29,3.43,3.43,0,0,1,.61-1,2.76,2.76,0,0,1,.84-.65,2.24,2.24,0,0,1,1-.22,1.67,1.67,0,0,1,.71.13,1.29,1.29,0,0,1,.48.38,1.47,1.47,0,0,1,.26.58,3.21,3.21,0,0,1,.09.71,2.62,2.62,0,0,1-.06.57c-.05.18-.08.31-.12.41H63.07a2,2,0,0,0,0,.82,1.26,1.26,0,0,0,.27.57,1.15,1.15,0,0,0,.46.33,1.72,1.72,0,0,0,.6.1,1.37,1.37,0,0,0,.59-.13,2.62,2.62,0,0,0,.52-.3l.31.52a3.54,3.54,0,0,1-.7.38,2.57,2.57,0,0,1-.9.16,1.91,1.91,0,0,1-1.42-.54A2.12,2.12,0,0,1,62.28,94.79Zm.87-.91h2.59c0-.09,0-.17,0-.25a2.26,2.26,0,0,0,0-.27,1.4,1.4,0,0,0-.05-.41,1,1,0,0,0-.16-.36,1.05,1.05,0,0,0-.3-.25,1,1,0,0,0-.45-.09,1.24,1.24,0,0,0-.53.12,1.48,1.48,0,0,0-.48.33,2.35,2.35,0,0,0-.41.51A2.67,2.67,0,0,0,63.15,93.88Z" transform="translate(-2.92 -3.65)" fill="#322f5b"/><path d="M67.08,96.74l1-5h.64l-.11,1h0a3.27,3.27,0,0,1,.69-.78,1.36,1.36,0,0,1,.85-.3,1.07,1.07,0,0,1,.47.09l-.28.7a.87.87,0,0,0-.42-.09,1.24,1.24,0,0,0-.76.33,2.83,2.83,0,0,0-.7.93l-.61,3.16Z" transform="translate(-2.92 -3.65)" fill="#322f5b"/><path d="M71.67,96.73,75.28,90h.91L77,96.72h-.82L76,94.61H73.61l-1.07,2.11Zm2.84-3.88L73.92,94h2l-.11-1.15c0-.36-.06-.72-.1-1.08s-.06-.73-.08-1.12h-.05c-.17.39-.34.76-.52,1.11S74.7,92.48,74.51,92.85Z" transform="translate(-2.92 -3.65)" fill="#322f5b"/><path d="M79,97.84l.2-1a2.24,2.24,0,0,1-.83-.34,3,3,0,0,1-.65-.58l.5-.49a2.83,2.83,0,0,0,.59.55,1.37,1.37,0,0,0,.82.25,1.31,1.31,0,0,0,.92-.33,1.15,1.15,0,0,0,.35-.87,1.22,1.22,0,0,0-.16-.64,2.37,2.37,0,0,0-.41-.49,4.33,4.33,0,0,0-.52-.42,5.83,5.83,0,0,1-.53-.43,2.49,2.49,0,0,1-.4-.52,1.45,1.45,0,0,1-.17-.68,2,2,0,0,1,.13-.7,1.75,1.75,0,0,1,.38-.55,1.59,1.59,0,0,1,.56-.38,1.9,1.9,0,0,1,.72-.17l.2-1h.58L81,90.05a2,2,0,0,1,.67.32,2.43,2.43,0,0,1,.54.52l-.51.46a2,2,0,0,0-.5-.5,1.11,1.11,0,0,0-.65-.2,1.16,1.16,0,0,0-.81.29,1,1,0,0,0-.31.76.94.94,0,0,0,.16.55,2.74,2.74,0,0,0,.41.43c.15.13.33.26.52.4a4.32,4.32,0,0,1,.52.44,2.54,2.54,0,0,1,.4.57,1.68,1.68,0,0,1,.16.77,2.08,2.08,0,0,1-.13.75,1.81,1.81,0,0,1-1,1,2.13,2.13,0,0,1-.78.19l-.2,1Z" transform="translate(-2.92 -3.65)" fill="#322f5b"/><path d="M84.52,96.82a2.37,2.37,0,0,1-.7-.1,1.63,1.63,0,0,1-.6-.31,1.76,1.76,0,0,1-.44-.53,1.67,1.67,0,0,1-.17-.76,1.72,1.72,0,0,1,.13-.68,2.36,2.36,0,0,1,.33-.55,2.22,2.22,0,0,1,.49-.42,3.2,3.2,0,0,1,.57-.32v0a2.51,2.51,0,0,1-.44-.59,1.61,1.61,0,0,1-.15-.71,1.79,1.79,0,0,1,.15-.75,1.68,1.68,0,0,1,.42-.56,2.18,2.18,0,0,1,.61-.36,2.13,2.13,0,0,1,.72-.12,2,2,0,0,1,.6.09,1.63,1.63,0,0,1,.52.28,1.57,1.57,0,0,1,.35.48,1.54,1.54,0,0,1,.14.67,1.74,1.74,0,0,1-.35,1.1,3.14,3.14,0,0,1-.89.75v0l.3.25a2.26,2.26,0,0,1,.29.32,2,2,0,0,1,.2.42,1.33,1.33,0,0,1,.09.49,1.77,1.77,0,0,1-.18.8,2.12,2.12,0,0,1-.47.6,2.31,2.31,0,0,1-.69.38A2.53,2.53,0,0,1,84.52,96.82Zm0-.58a1.54,1.54,0,0,0,.52-.09,1.48,1.48,0,0,0,.44-.25,1.05,1.05,0,0,0,.32-.4A1.2,1.2,0,0,0,86,95a1.12,1.12,0,0,0-.11-.5,1.38,1.38,0,0,0-.33-.4,2.44,2.44,0,0,0-.47-.33l-.55-.31a3.39,3.39,0,0,0-.84.67,1.56,1.56,0,0,0-.23,1.47,1.26,1.26,0,0,0,.27.37,1.28,1.28,0,0,0,.39.24A1.51,1.51,0,0,0,84.56,96.24Zm.83-3.09a4.22,4.22,0,0,0,.36-.27,2.66,2.66,0,0,0,.32-.35,1.59,1.59,0,0,0,.21-.41,1.27,1.27,0,0,0,.08-.48,1,1,0,0,0-.28-.76.91.91,0,0,0-.7-.26,1.16,1.16,0,0,0-.42.07,1.11,1.11,0,0,0-.36.23,1,1,0,0,0-.25.37,1.21,1.21,0,0,0-.09.48,1.16,1.16,0,0,0,.29.82A2.79,2.79,0,0,0,85.39,93.15Z" transform="translate(-2.92 -3.65)" fill="#322f5b"/><path d="M87.07,96.7l.08-.48,1.7-1.46q.72-.63,1.2-1.14a5.25,5.25,0,0,0,.71-1,1.9,1.9,0,0,0,.24-.93,1.17,1.17,0,0,0-.26-.76,1,1,0,0,0-.8-.3,1.35,1.35,0,0,0-.66.17,2.81,2.81,0,0,0-.68.49l-.39-.49a3.45,3.45,0,0,1,.89-.61,2.24,2.24,0,0,1,1.67-.09,1.48,1.48,0,0,1,.54.33,1.39,1.39,0,0,1,.34.51,2,2,0,0,1,.11.65,2.52,2.52,0,0,1-.21,1,4,4,0,0,1-.63,1,10.4,10.4,0,0,1-1,1.08L88.4,96h2.81l-.12.68Z" transform="translate(-2.92 -3.65)" fill="#322f5b"/><path d="M91.76,98.37l-.12-.47a2,2,0,0,0,.78-.5,1.28,1.28,0,0,0,.35-.68h0a.6.6,0,0,1-.38-.12.47.47,0,0,1-.15-.37.69.69,0,0,1,.18-.46.6.6,0,0,1,.47-.2.48.48,0,0,1,.41.19.79.79,0,0,1,.14.49A2.08,2.08,0,0,1,93,97.58,2.34,2.34,0,0,1,91.76,98.37Z" transform="translate(-2.92 -3.65)" fill="#322f5b"/><path d="M97.52,96.67h-.74l.37-1.8H94.38l.09-.53,3.47-4.22h.86L98,94.23h.86l-.13.64h-.85Zm-2.19-2.44h1.94l.37-2q.06-.28.15-.63c0-.22.11-.44.16-.67h0l-.4.56-.38.51Z" transform="translate(-2.92 -3.65)" fill="#322f5b"/><path d="M101.11,96.79a2.14,2.14,0,0,1-1.18-.33,2.81,2.81,0,0,1-.81-.8l.51-.41a2.56,2.56,0,0,0,.61.62,1.52,1.52,0,0,0,.88.26,1.87,1.87,0,0,0,.64-.1,1.64,1.64,0,0,0,.5-.29,1.13,1.13,0,0,0,.32-.43,1.19,1.19,0,0,0,.12-.54,1.29,1.29,0,0,0-.1-.48,1.07,1.07,0,0,0-.33-.38,1.64,1.64,0,0,0-.58-.25,3.67,3.67,0,0,0-.88-.09l.12-.59a3.59,3.59,0,0,0,1-.13,2,2,0,0,0,.66-.32,1.19,1.19,0,0,0,.46-.92.93.93,0,0,0-1-1,1.6,1.6,0,0,0-.64.15,2.25,2.25,0,0,0-.63.38l-.4-.53a2.9,2.9,0,0,1,1.79-.65,1.78,1.78,0,0,1,1.26.41,1.41,1.41,0,0,1,.44,1.09,1.72,1.72,0,0,1-.37,1.1,2.09,2.09,0,0,1-1.14.69v0a1.8,1.8,0,0,1,.84.54,1.39,1.39,0,0,1,.3.89,1.82,1.82,0,0,1-.67,1.49,2.1,2.1,0,0,1-.75.41A2.91,2.91,0,0,1,101.11,96.79Z" transform="translate(-2.92 -3.65)" fill="#322f5b"/><path d="M106.42,96.78a1.66,1.66,0,0,1-.75-.17,1.53,1.53,0,0,1-.56-.45,2.23,2.23,0,0,1-.37-.7,3.26,3.26,0,0,1-.13-.9,7.13,7.13,0,0,1,.23-1.84,4.82,4.82,0,0,1,.63-1.45,3.14,3.14,0,0,1,1-1,2.33,2.33,0,0,1,1.21-.34,1.42,1.42,0,0,1,.87.25,2.15,2.15,0,0,1,.55.58l-.53.42a1.55,1.55,0,0,0-.39-.44,1,1,0,0,0-.54-.15,1.46,1.46,0,0,0-.73.2,2.41,2.41,0,0,0-.64.57,3.69,3.69,0,0,0-.5.88,5.56,5.56,0,0,0-.3,1.17,2.17,2.17,0,0,1,.75-.58,1.94,1.94,0,0,1,.75-.18,1.44,1.44,0,0,1,1.15.45,1.76,1.76,0,0,1,.44,1.25,2.72,2.72,0,0,1-.16.91,2.37,2.37,0,0,1-.44.76,2.16,2.16,0,0,1-.67.53A1.91,1.91,0,0,1,106.42,96.78Zm0-.62A1,1,0,0,0,107,96a1.73,1.73,0,0,0,.43-.38,1.92,1.92,0,0,0,.28-.53,1.81,1.81,0,0,0,.1-.61,1.48,1.48,0,0,0-.26-.9.92.92,0,0,0-.78-.33,1.65,1.65,0,0,0-.64.18,1.91,1.91,0,0,0-.75.66,1.69,1.69,0,0,0,0,.23v.24a2,2,0,0,0,.3,1.15A.91.91,0,0,0,106.46,96.16Z" transform="translate(-2.92 -3.65)" fill="#322f5b"/><path d="M4.22,58.86l0,13.37v3.33l0,6.08,0,19.72V115l0,8.19v10.17a.73.73,0,0,0,.73.73l17,0a.73.73,0,0,0,.73-.73V123.16l0-8.19V101.32l0-19.72,0-6.08V72.19l0-13.37V54.33l-18.42,0Z" transform="translate(-2.92 -3.65)" fill="#322f5b"/><g opacity="0.8"><g clip-path="url(#clip-path)"><g clip-path="url(#clip-path-2)"><path d="M22.57,27.37V22.49a.73.73,0,0,0-.73-.73l-17,0a.73.73,0,0,0-.72.73v4.88l0,12.36,0,14.6,18.42,0,0-14.6Z" transform="translate(-2.92 -3.65)" fill="#322f5b"/></g></g></g><line y1="50.72" x2="22.93" y2="50.67" fill="none" stroke="#fff" stroke-miterlimit="10" stroke-width="0.73"/><rect x="4.11" y="3.67" width="18.38" height="9.27" transform="translate(-2.94 -3.62) rotate(-0.13)" fill="#00008b"/><polygon points="1.19 4.67 10.38 4.66 10.37 0.02 13.43 0.01 13.44 6.19 1.19 6.22 1.19 4.67" fill="#00008b"/><polygon points="5.78 5.59 6.05 6.42 6.86 6.11 6.38 6.84 7.13 7.29 6.27 7.37 6.39 8.23 5.79 7.6 5.19 8.24 5.31 7.37 4.44 7.29 5.19 6.85 4.71 6.12 5.52 6.43 5.78 5.59" fill="#fff"/><rect x="4.1" y="3.68" width="9.22" height="4.65" transform="translate(-2.93 -3.63) rotate(-0.13)" fill="#fff"/><polygon points="6.56 1.53 6.55 0.03 9.54 0.02 6.56 1.53" fill="#00008b"/><polygon points="6.56 3.17 6.56 4.68 9.55 4.67 6.56 3.17" fill="#00008b"/><polygon points="5.03 3.18 5.03 4.68 2.04 4.69 5.03 3.18" fill="#00008b"/><polygon points="5.02 1.54 5.02 0.03 2.03 0.04 5.02 1.54" fill="#00008b"/><polygon points="1.18 0.47 1.18 1.59 3.4 1.58 1.18 0.47" fill="#00008b"/><polygon points="10.39 0.45 10.4 1.57 8.18 1.57 10.39 0.45" fill="#00008b"/><polygon points="10.4 4.24 10.4 3.12 8.19 3.13 10.4 4.24" fill="#00008b"/><polygon points="1.19 4.26 1.19 3.14 3.4 3.14 1.19 4.26" fill="#00008b"/><polygon points="5.33 2.82 5.33 4.68 6.26 4.68 6.25 2.82 10.4 2.81 10.4 1.88 6.25 1.89 6.25 0.03 5.33 0.03 5.33 1.89 1.18 1.9 1.18 2.83 5.33 2.82" fill="red"/><polyline points="10.39 0.02 9.88 0.02 6.82 1.58 7.33 1.58 10.4 0.02" fill="red"/><polyline points="4.76 3.13 4.25 3.13 1.19 4.69 1.7 4.69 4.77 3.13" fill="red"/><polygon points="3.74 1.59 4.25 1.58 1.18 0.04 1.18 0.3 3.74 1.59" fill="red"/><polygon points="7.84 3.13 7.33 3.13 10.4 4.67 10.4 4.41 7.84 3.13" fill="red"/><polygon points="14.97 7.07 15.1 7.47 15.49 7.32 15.26 7.67 15.62 7.88 15.21 7.92 15.26 8.33 14.98 8.03 14.69 8.33 14.75 7.92 14.34 7.88 14.69 7.67 14.46 7.32 14.85 7.47 14.97 7.07" fill="#fff"/><polygon points="12.67 3.41 12.8 3.81 13.18 3.66 12.96 4 13.31 4.22 12.9 4.25 12.96 4.67 12.67 4.37 12.39 4.67 12.44 4.25 12.03 4.22 12.39 4 12.16 3.66 12.54 3.81 12.67 3.41" fill="#fff"/><polygon points="14.96 0.89 15.09 1.29 15.47 1.14 15.25 1.49 15.6 1.7 15.19 1.74 15.25 2.15 14.96 1.85 14.68 2.15 14.74 1.74 14.32 1.7 14.68 1.49 14.45 1.14 14.84 1.29 14.96 0.89" fill="#fff"/><polygon points="17.01 2.78 17.14 3.18 17.52 3.03 17.29 3.38 17.65 3.59 17.24 3.63 17.3 4.04 17.01 3.74 16.73 4.04 16.78 3.63 16.37 3.59 16.73 3.38 16.5 3.03 16.88 3.18 17.01 2.78" fill="#fff"/><polygon points="15.89 4.64 15.99 4.89 16.25 4.91 16.05 5.08 16.12 5.34 15.89 5.2 15.66 5.34 15.73 5.08 15.53 4.91 15.79 4.89 15.89 4.64" fill="#fff"/></svg>