<svg id="beach" xmlns="http://www.w3.org/2000/svg" viewBox="0 0 190.39 100.81"><title>beach</title><path d="M81.61,35.38H117.9a3.79,3.79,0,0,1,3.79,3.79V59.25A3.79,3.79,0,0,1,117.9,63h-6.05v7.84L104,63H81.61a3.79,3.79,0,0,1-3.79-3.79V39.17A3.79,3.79,0,0,1,81.61,35.38Z" transform="translate(-4.59 -14.38)" fill="#fc6d26"/><path d="M99.23,107C69,106.24,65.74,83.78,65.74,83.78S79.36,92,99.23,91.68c0,0,24-.64,35-7.9C134.26,83.78,128.38,107.76,99.23,107Z" transform="translate(-4.59 -14.38)" fill="#fa9f21"/><path d="M67.78,114.36s5.1-35.21-22.28-60.19l-3,1.1-1,3.19c3.19,9.26,13.36,24.64,6.38,55.9Z" transform="translate(-4.59 -14.38)" fill="#6e49cb"/><path d="M42.49,36.72l4.95-21.51S24.91,26.75,35.14,47.45c0,0-24.76-7.93-29.72,13.73L21.54,57c-5.83,5-10.22,13.29-1.46,25.3l7.84-14c-.16,9.45,8,16.61,8,16.61l6.42-30.29,30.24-4.46s-8.08-10.1-18.29-8.51l13.33-6.86S53.14,25,42.49,36.72Z" transform="translate(-4.59 -14.38)" fill="#c4b6ff"/><path d="M131.78,114.36s-5.09-35.21,22.29-60.19l3,1.1,1,3.19c-3.06,8.88-12.54,23.39-7.16,52.12.08.45-1.46.88-2,1.48a7.41,7.41,0,0,0-1.52,2.3Z" transform="translate(-4.59 -14.38)" fill="#6e49cb"/><path d="M157.08,36.72l-5-21.51s22.53,11.54,12.3,32.24c0,0,24.76-7.93,29.72,13.73L178,57c5.83,5,10.22,13.29,1.45,25.3l-7.84-14c.17,9.45-8,16.61-8,16.61l-6.41-30.29L127,50.18s8.08-10.1,18.29-8.51L132,34.81S146.43,25,157.08,36.72Z" transform="translate(-4.59 -14.38)" fill="#c4b6ff"/><path d="M99.23,107C69,106.24,65.74,83.78,65.74,83.78S79.36,92,99.23,91.68c0,0,24-.64,35-7.9C134.26,83.78,128.38,107.76,99.23,107Z" transform="translate(-4.59 -14.38)" fill="none" stroke="#32195b" stroke-linecap="round" stroke-linejoin="round" stroke-width="1.66"/><path d="M132.37,113.72s-5.82-33.47,21.56-58.45" transform="translate(-4.59 -14.38)" fill="none" stroke="#32195b" stroke-linecap="round" stroke-linejoin="round" stroke-width="1.66"/><path d="M157.82,59c-3.19,9.26-12.56,23.43-5.57,54.68" transform="translate(-4.59 -14.38)" fill="none" stroke="#32195b" stroke-linecap="round" stroke-linejoin="round" stroke-width="1.66"/><path d="M157.07,37.11l-4.94-21.5s22.53,11.54,12.3,32.24c0,0,24.76-7.93,29.72,13.74L178,57.43" transform="translate(-4.59 -14.38)" fill="none" stroke="#32195b" stroke-linecap="round" stroke-linejoin="round" stroke-width="1.66"/><path d="M171.64,68.72l7.84,14c12-16.38-.66-25.86-7.84-29.61" transform="translate(-4.59 -14.38)" fill="none" stroke="#32195b" stroke-linecap="round" stroke-linejoin="round" stroke-width="1.66"/><path d="M145.29,42.08,132,35.21S148.54,24,159.27,39.92" transform="translate(-4.59 -14.38)" fill="none" stroke="#32195b" stroke-linecap="round" stroke-linejoin="round" stroke-width="1.66"/><path d="M153.18,45.24a27.53,27.53,0,0,0-7.89-3.16c-10.21-1.59-18.29,8.5-18.29,8.5L157.24,55l6.41,30.29s16.87-14.82,1.59-29.95" transform="translate(-4.59 -14.38)" fill="none" stroke="#32195b" stroke-linecap="round" stroke-linejoin="round" stroke-width="1.66"/><path d="M68,113.72s5.41-33.88-22-58.86" transform="translate(-4.59 -14.38)" fill="none" stroke="#32195b" stroke-linecap="round" stroke-linejoin="round" stroke-width="1.66"/><path d="M41.69,57.83c3.19,9.26,13.37,24.64,6.38,55.89" transform="translate(-4.59 -14.38)" fill="none" stroke="#32195b" stroke-linecap="round" stroke-linejoin="round" stroke-width="1.66"/><path d="M42.5,36.7l4.94-21.49S24.91,26.75,35.14,47.45c0,0-24.76-7.93-29.72,13.73L21.54,57" transform="translate(-4.59 -14.38)" fill="none" stroke="#32195b" stroke-linecap="round" stroke-linejoin="round" stroke-width="1.66"/><path d="M27.92,68.32l-7.84,14C8.13,66,20.75,56.48,27.92,52.73" transform="translate(-4.59 -14.38)" fill="none" stroke="#32195b" stroke-linecap="round" stroke-linejoin="round" stroke-width="1.66"/><path d="M54.28,41.67l13.33-6.86S51,23.59,40.3,39.52" transform="translate(-4.59 -14.38)" fill="none" stroke="#32195b" stroke-linecap="round" stroke-linejoin="round" stroke-width="1.66"/><path d="M46.38,44.84a27.53,27.53,0,0,1,7.9-3.17c10.21-1.59,18.29,8.51,18.29,8.51L42.33,54.64,35.91,84.93S19,70.11,34.33,55" transform="translate(-4.59 -14.38)" fill="none" stroke="#32195b" stroke-linecap="round" stroke-linejoin="round" stroke-width="1.66"/><path d="M48.76,72.15c.72-.29,1.45-.56,2.18-.81" transform="translate(-4.59 -14.38)" fill="none" stroke="#32195b" stroke-linecap="round" stroke-linejoin="round" stroke-width="1.66"/><path d="M50,83a19.22,19.22,0,0,1,4.83-1.21" transform="translate(-4.59 -14.38)" fill="none" stroke="#32195b" stroke-linecap="round" stroke-linejoin="round" stroke-width="1.66"/><path d="M51,92q5.37-.55,10.76-.89" transform="translate(-4.59 -14.38)" fill="none" stroke="#32195b" stroke-linecap="round" stroke-linejoin="round" stroke-width="1.66"/><path d="M50.32,103.21a78.36,78.36,0,0,1,14.53,0" transform="translate(-4.59 -14.38)" fill="none" stroke="#32195b" stroke-linecap="round" stroke-linejoin="round" stroke-width="1.66"/><path d="M45.5,65.65a8.76,8.76,0,0,1,2.37-1.23" transform="translate(-4.59 -14.38)" fill="none" stroke="#32195b" stroke-linecap="round" stroke-linejoin="round" stroke-width="1.66"/><path d="M151.54,72.15c-.72-.29-1.44-.56-2.18-.81" transform="translate(-4.59 -14.38)" fill="none" stroke="#32195b" stroke-linecap="round" stroke-linejoin="round" stroke-width="1.66"/><path d="M150.27,83a19.22,19.22,0,0,0-4.83-1.21" transform="translate(-4.59 -14.38)" fill="none" stroke="#32195b" stroke-linecap="round" stroke-linejoin="round" stroke-width="1.66"/><path d="M149.33,92q-5.37-.55-10.76-.89" transform="translate(-4.59 -14.38)" fill="none" stroke="#32195b" stroke-linecap="round" stroke-linejoin="round" stroke-width="1.66"/><path d="M150,103.21a78.25,78.25,0,0,0-14.52,0" transform="translate(-4.59 -14.38)" fill="none" stroke="#32195b" stroke-linecap="round" stroke-linejoin="round" stroke-width="1.66"/><path d="M154.81,65.65a8.82,8.82,0,0,0-2.38-1.23" transform="translate(-4.59 -14.38)" fill="none" stroke="#32195b" stroke-linecap="round" stroke-linejoin="round" stroke-width="1.66"/><path d="M81.61,35.38H117.9a3.79,3.79,0,0,1,3.79,3.79V59.25A3.79,3.79,0,0,1,117.9,63h-6.05v7.84L104,63H81.61a3.79,3.79,0,0,1-3.79-3.79V39.17A3.79,3.79,0,0,1,81.61,35.38Z" transform="translate(-4.59 -14.38)" fill="none" stroke="#32195b" stroke-linecap="round" stroke-linejoin="round" stroke-width="1.66"/><line x1="81.27" y1="37.79" x2="97.19" y2="37.79" fill="none" stroke="#32195b" stroke-linecap="round" stroke-linejoin="round" stroke-width="1.66"/><line x1="81.27" y1="31.02" x2="108.34" y2="31.02" fill="none" stroke="#32195b" stroke-linecap="round" stroke-linejoin="round" stroke-width="1.66"/><path d="M28,114.36h7a2.59,2.59,0,0,1,4.44-1.8,4.16,4.16,0,0,1,7.91,1.8h65.38a2.43,2.43,0,0,1,4.78-.59,1.34,1.34,0,0,1,2.46.59h27.9a3.43,3.43,0,1,1,6.86,0H163" transform="translate(-4.59 -14.38)" fill="none" stroke="#c4b6ff" stroke-linecap="round" stroke-linejoin="round" stroke-width="1.66"/></svg>