<svg id="boat" xmlns="http://www.w3.org/2000/svg" viewBox="0 0 126.73 111.28"><title>boat</title><path d="M105.08,111.73l10-20-104.19-2,12.93,24.15A11.69,11.69,0,0,0,31,109c4.92,6.65,13,6.65,17.86,0,4.92,6.65,13,6.65,17.87,0,4.92,6.65,13,6.65,17.87,0,4.92,6.65,13,6.65,17.87,0A27.25,27.25,0,0,0,105.08,111.73Z" transform="translate(-3.42 -3.73)" fill="#6e49cb"/><circle cx="92.99" cy="96.06" r="1.99" fill="#fff"/><circle cx="83.08" cy="96.06" r="1.99" fill="#fff"/><polyline points="100.66 87.77 100.66 80.8 54.88 80.8 50.23 86.77" fill="#fc6d26"/><path d="M72.89,32.12c-10.28,21.88,0,42.7,0,42.7s-17-3.85-27.69,1C45.2,75.78,43.25,50,72.89,32.12Z" transform="translate(-3.42 -3.73)" fill="#c4b6ff"/><path d="M78,9.13c15.7,33.4,0,65.18,0,65.18s26.49-5.88,42.77,1.47C120.81,75.78,123.28,36.34,78,9.13Z" transform="translate(-3.42 -3.73)" fill="#c4b6ff"/><path d="M72.87,32.12c-10.27,21.88,0,42.7,0,42.7s-17-3.84-27.69,1C45.21,75.8,43.25,50,72.87,32.12Z" transform="translate(-3.42 -3.73)" fill="none" stroke="#32195b" stroke-linecap="round" stroke-linejoin="round" stroke-width="1.66"/><path d="M78,9.12c15.73,33.39,0,65.19,0,65.19s26.48-5.9,42.77,1.44C120.82,75.75,123.27,36.31,78,9.12Z" transform="translate(-3.42 -3.73)" fill="none" stroke="#32195b" stroke-linecap="round" stroke-linejoin="round" stroke-width="1.66"/><polyline points="101.87 107.72 111.63 88.06 7.45 86.14 20.17 110.1" fill="none" stroke="#32195b" stroke-linecap="round" stroke-linejoin="round" stroke-width="1.66"/><line x1="72.04" y1="80.79" x2="71.99" y2="0.83" fill="none" stroke="#c4b6ff" stroke-linecap="round" stroke-linejoin="round" stroke-width="1.66"/><path d="M21.31,74.77a7.63,7.63,0,0,1,7.63-7.64" transform="translate(-3.42 -3.73)" fill="none" stroke="#fa9f21" stroke-linecap="round" stroke-linejoin="round" stroke-width="1.66"/><path d="M27.62,74.76a1.31,1.31,0,0,1,1.32-1.32" transform="translate(-3.42 -3.73)" fill="none" stroke="#fa9f21" stroke-linecap="round" stroke-linejoin="round" stroke-width="1.66"/><path d="M13,74.77A15.92,15.92,0,0,1,28.93,58.84" transform="translate(-3.42 -3.73)" fill="none" stroke="#fa9f21" stroke-linecap="round" stroke-linejoin="round" stroke-width="1.66"/><path d="M4.39,74.78A24.56,24.56,0,0,1,28.93,50.21" transform="translate(-3.42 -3.73)" fill="none" stroke="#fa9f21" stroke-linecap="round" stroke-linejoin="round" stroke-width="1.66"/><path d="M4.25,114.18c3.49,0,6.65-1.91,8.93-5,4.92,6.65,13,6.64,17.87,0,4.92,6.65,13,6.64,17.86,0,4.93,6.64,13,6.63,17.87,0,4.92,6.64,13,6.63,17.87,0,4.92,6.65,12.95,6.64,17.86,0,4.93,6.65,13,6.64,17.87,0,2.46,3.32,5.7,5,8.94,5" transform="translate(-3.42 -3.73)" fill="none" stroke="#c4b6ff" stroke-linecap="round" stroke-linejoin="round" stroke-width="1.66"/><polyline points="100.69 87.74 100.68 80.77 54.89 80.8 50.25 86.78" fill="none" stroke="#32195b" stroke-linecap="round" stroke-linejoin="round" stroke-width="1.66"/><line x1="11.87" y1="93.68" x2="65.49" y2="94.73" fill="none" stroke="#32195b" stroke-linecap="round" stroke-linejoin="round" stroke-width="1.66"/><circle cx="92.99" cy="96.06" r="2.36" fill="none" stroke="#32195b" stroke-linecap="round" stroke-linejoin="round" stroke-width="1.66"/><circle cx="83.16" cy="96.06" r="2.36" fill="none" stroke="#32195b" stroke-linecap="round" stroke-linejoin="round" stroke-width="1.66"/></svg>