<svg id="cafe" xmlns="http://www.w3.org/2000/svg" viewBox="0 0 146.61 90.62"><title>cafe</title><rect x="18.04" y="20.03" width="104.1" height="54.92" fill="#6e49cb"/><rect x="68.09" y="44.67" width="9.85" height="12.21" fill="#fa9f21"/><path d="M72.57,79.83H70.3a4.55,4.55,0,0,1-4.55-4.54v-.07a4.55,4.55,0,0,1,4.55-4.55h2.27v3.12H70.3a1.43,1.43,0,0,0-1.43,1.43v.07a1.43,1.43,0,0,0,1.43,1.43h2.27Z" transform="translate(-4.48 -24.47)" fill="#fa9f21"/><path d="M112.92,80.89H79.43A1.92,1.92,0,0,1,77.5,79V76.72h32l4.16-13.45,4.82.75Z" transform="translate(-4.48 -24.47)" fill="#c4b6ff"/><polygon points="105.05 52.62 83.09 52.62 88.52 38.78 109.2 38.78 105.05 52.62" fill="#fc6d26"/><rect x="87.06" y="63.29" width="4.4" height="21.39" fill="#c4b6ff"/><polygon points="37.28 89.79 33.46 89.79 37.36 72.08 41.18 72.08 37.28 89.79" fill="#c4b6ff"/><polygon points="58.94 89.79 55.11 89.79 51.22 72.08 55.04 72.08 58.94 89.79" fill="#c4b6ff"/><path d="M65.24,56.88h48a0,0,0,0,1,0,0v2a4.44,4.44,0,0,1-4.44,4.44H69.68a4.44,4.44,0,0,1-4.44-4.44v-2A0,0,0,0,1,65.24,56.88Z" fill="#fc6d26"/><path d="M82.65,84.68H95.87a4.07,4.07,0,0,1,4.07,4.07v1a0,0,0,0,1,0,0H78.58a0,0,0,0,1,0,0v-1A4.07,4.07,0,0,1,82.65,84.68Z" fill="#fa9f21"/><path d="M43.05,89.42V68.3a3.69,3.69,0,0,0-3.69-3.69H37.91V91.12a5.43,5.43,0,0,0,5.43,5.43H63.61V95.1a3.69,3.69,0,0,0-3.69-3.69H45A2,2,0,0,1,43.05,89.42Z" transform="translate(-4.48 -24.47)" fill="#fa9f21"/><path d="M13.76.83H30a0,0,0,0,1,0,0V21.27a8.14,8.14,0,0,1-8.14,8.14h0a8.14,8.14,0,0,1-8.14-8.14V.83A0,0,0,0,1,13.76.83Z" fill="#c4b6ff"/><path d="M30,.83H46.31a0,0,0,0,1,0,0V21.27a8.14,8.14,0,0,1-8.14,8.14h0A8.14,8.14,0,0,1,30,21.27V.83A0,0,0,0,1,30,.83Z" fill="#fff"/><path d="M46.31.83H62.59a0,0,0,0,1,0,0V21.27a8.14,8.14,0,0,1-8.14,8.14h0a8.14,8.14,0,0,1-8.14-8.14V.83A0,0,0,0,1,46.31.83Z" fill="#c4b6ff"/><path d="M62.59.83H78.86a0,0,0,0,1,0,0V21.27a8.14,8.14,0,0,1-8.14,8.14h0a8.14,8.14,0,0,1-8.14-8.14V.83A0,0,0,0,1,62.59.83Z" fill="#fff"/><path d="M78.86.83H95.14a0,0,0,0,1,0,0V21.27A8.14,8.14,0,0,1,87,29.41h0a8.14,8.14,0,0,1-8.14-8.14V.83A0,0,0,0,1,78.86.83Z" fill="#c4b6ff"/><path d="M95.14.83h16.28a0,0,0,0,1,0,0V21.27a8.14,8.14,0,0,1-8.14,8.14h0a8.14,8.14,0,0,1-8.14-8.14V.83A0,0,0,0,1,95.14.83Z" fill="#fff"/><path d="M111.41.83h16.28a0,0,0,0,1,0,0V21.27a8.14,8.14,0,0,1-8.14,8.14h0a8.14,8.14,0,0,1-8.14-8.14V.83A0,0,0,0,1,111.41.83Z" fill="#c4b6ff"/><path d="M13.76.83H30a0,0,0,0,1,0,0V21.27a8.14,8.14,0,0,1-8.14,8.14h0a8.14,8.14,0,0,1-8.14-8.14V.83a0,0,0,0,1,0,0Z" fill="none" stroke="#32195b" stroke-linecap="round" stroke-linejoin="round" stroke-width="1.66"/><path d="M30,.83H46.31a0,0,0,0,1,0,0V21.27a8.14,8.14,0,0,1-8.14,8.14h0A8.14,8.14,0,0,1,30,21.27V.83a0,0,0,0,1,0,0Z" fill="none" stroke="#32195b" stroke-linecap="round" stroke-linejoin="round" stroke-width="1.66"/><path d="M46.31.83H62.59a0,0,0,0,1,0,0V21.27a8.14,8.14,0,0,1-8.14,8.14h0a8.14,8.14,0,0,1-8.14-8.14V.83A0,0,0,0,1,46.31.83Z" fill="none" stroke="#32195b" stroke-linecap="round" stroke-linejoin="round" stroke-width="1.66"/><path d="M62.59.83H78.86a0,0,0,0,1,0,0V21.27a8.14,8.14,0,0,1-8.14,8.14h0a8.14,8.14,0,0,1-8.14-8.14V.83A0,0,0,0,1,62.59.83Z" fill="none" stroke="#32195b" stroke-linecap="round" stroke-linejoin="round" stroke-width="1.66"/><path d="M78.86.83H95.14a0,0,0,0,1,0,0V21.27A8.14,8.14,0,0,1,87,29.41h0a8.14,8.14,0,0,1-8.14-8.14V.83A0,0,0,0,1,78.86.83Z" fill="none" stroke="#32195b" stroke-linecap="round" stroke-linejoin="round" stroke-width="1.66"/><path d="M95.14.83h16.28a0,0,0,0,1,0,0V21.27a8.14,8.14,0,0,1-8.14,8.14h0a8.14,8.14,0,0,1-8.14-8.14V.83A0,0,0,0,1,95.14.83Z" fill="none" stroke="#32195b" stroke-linecap="round" stroke-linejoin="round" stroke-width="1.66"/><path d="M111.41.83h16.28a0,0,0,0,1,0,0V21.27a8.14,8.14,0,0,1-8.14,8.14h0a8.14,8.14,0,0,1-8.14-8.14V.83a0,0,0,0,1,0,0Z" fill="none" stroke="#32195b" stroke-linecap="round" stroke-linejoin="round" stroke-width="1.66"/><path d="M65.24,56.88h48a0,0,0,0,1,0,0V59A4.27,4.27,0,0,1,109,63.29H69.51A4.27,4.27,0,0,1,65.24,59V56.88A0,0,0,0,1,65.24,56.88Z" fill="none" stroke="#32195b" stroke-linecap="round" stroke-linejoin="round" stroke-width="1.66"/><path d="M82.65,84.68H95.87a4.07,4.07,0,0,1,4.07,4.07v1a0,0,0,0,1,0,0H78.58a0,0,0,0,1,0,0v-1A4.07,4.07,0,0,1,82.65,84.68Z" fill="none" stroke="#32195b" stroke-linecap="round" stroke-linejoin="round" stroke-width="1.66"/><rect x="87.06" y="63.29" width="4.4" height="21.39" stroke-width="1.66" stroke="#32195b" stroke-linecap="round" stroke-linejoin="round" fill="none"/><path d="M43.05,89.42V68.3a3.69,3.69,0,0,0-3.69-3.69H37.91V91.12a5.43,5.43,0,0,0,5.43,5.43H63.61V95.1a3.69,3.69,0,0,0-3.69-3.69H45A2,2,0,0,1,43.05,89.42Z" transform="translate(-4.48 -24.47)" fill="none" stroke="#32195b" stroke-linecap="round" stroke-linejoin="round" stroke-width="1.66"/><polygon points="37.28 89.79 33.46 89.79 37.36 72.08 41.18 72.08 37.28 89.79" fill="none" stroke="#32195b" stroke-linecap="round" stroke-linejoin="round" stroke-width="1.66"/><polygon points="58.94 89.79 55.11 89.79 51.22 72.08 55.04 72.08 58.94 89.79" fill="none" stroke="#32195b" stroke-linecap="round" stroke-linejoin="round" stroke-width="1.66"/><path d="M72.89,52.62H97.33a0,0,0,0,1,0,0v1.56a2.7,2.7,0,0,1-2.7,2.7h-19a2.7,2.7,0,0,1-2.7-2.7V52.62A0,0,0,0,1,72.89,52.62Z" fill="none" stroke="#32195b" stroke-linecap="round" stroke-linejoin="round" stroke-width="1.66"/><path d="M109.52,77.1h-22L92,64.87a2.41,2.41,0,0,1,2.28-1.61H112.3a1.54,1.54,0,0,1,1.45,2.06Z" transform="translate(-4.48 -24.47)" fill="none" stroke="#32195b" stroke-linecap="round" stroke-linejoin="round" stroke-width="1.66"/><path d="M112.3,63.26h4.4a1.59,1.59,0,0,1,1.5,2.13L112.92,79.6a2.69,2.69,0,0,1-2.53,1.76h-6.31" transform="translate(-4.48 -24.47)" fill="none" stroke="#32195b" stroke-linecap="round" stroke-linejoin="round" stroke-width="1.66"/><polyline points="77.95 51.74 77.95 44.67 68.09 44.67 68.09 56.88" fill="none" stroke="#32195b" stroke-linecap="round" stroke-linejoin="round" stroke-width="1.66"/><path d="M72.57,70.67H70.3a4.55,4.55,0,0,0-4.55,4.55v.07a4.55,4.55,0,0,0,4.55,4.54h2.27" transform="translate(-4.48 -24.47)" fill="none" stroke="#32195b" stroke-linecap="round" stroke-linejoin="round" stroke-width="1.66"/><path d="M72.57,73.79H70.3a1.43,1.43,0,0,0-1.43,1.43v.07a1.43,1.43,0,0,0,1.43,1.43h2.27" transform="translate(-4.48 -24.47)" fill="none" stroke="#32195b" stroke-linecap="round" stroke-linejoin="round" stroke-width="1.66"/><path d="M77.28,66c-1.79-1.45-.46-2.56.15-3.19,3-3-4.5-2.24-.58-5.29" transform="translate(-4.48 -24.47)" fill="none" stroke="#c4b6ff" stroke-linecap="round" stroke-linejoin="round" stroke-width="1.66"/><polyline points="91.46 74.95 122.15 74.95 122.15 29.21" fill="none" stroke="#32195b" stroke-linecap="round" stroke-linejoin="round" stroke-width="1.66"/><line x1="55.9" y1="74.95" x2="86.63" y2="74.95" fill="none" stroke="#32195b" stroke-linecap="round" stroke-linejoin="round" stroke-width="1.66"/><line x1="40.65" y1="74.95" x2="51.76" y2="74.95" fill="none" stroke="#32195b" stroke-linecap="round" stroke-linejoin="round" stroke-width="1.66"/><polyline points="18.04 29.41 18.04 74.95 36.11 74.95" fill="none" stroke="#32195b" stroke-linecap="round" stroke-linejoin="round" stroke-width="1.66"/><line x1="145.78" y1="89.79" x2="0.83" y2="89.79" fill="none" stroke="#c4b6ff" stroke-linecap="round" stroke-linejoin="round" stroke-width="1.66"/></svg>