<svg id="canada" xmlns="http://www.w3.org/2000/svg" xmlns:xlink="http://www.w3.org/1999/xlink" viewBox="0 0 118.01 130.45"><defs><clipPath id="clip-path" transform="translate(-2.83 -3.65)"><rect x="4.01" y="21.76" width="18.53" height="49.46" fill="none"/></clipPath><clipPath id="clip-path-2" transform="translate(-2.83 -3.65)"><rect x="4.07" y="21.78" width="18.42" height="49.41" transform="translate(-0.1 0.03) rotate(-0.12)" fill="none"/></clipPath></defs><title>canada</title><path d="M30,4.49h1.5V7.06h2.29V4.48h1.51v6.69H33.82V8.38h-2.3v2.79H30Z" transform="translate(-2.83 -3.65)" fill="#e24329"/><path d="M36.47,8.62a2.47,2.47,0,1,1,4.93,0,2.47,2.47,0,1,1-4.93,0Zm3.4,0c0-.89-.32-1.45-.93-1.45S38,7.74,38,8.62s.31,1.45.93,1.45S39.87,9.5,39.87,8.62Z" transform="translate(-2.83 -3.65)" fill="#e24329"/><path d="M42.37,9.23V6.07h1.5V9c0,.73.2,1,.64,1s.6-.16.89-.56V6.06h1.5v5.09H45.68l-.11-.71h0a2,2,0,0,1-1.59.84C42.85,11.28,42.38,10.5,42.37,9.23Z" transform="translate(-2.83 -3.65)" fill="#e24329"/><path d="M47.76,10.56l.68-.94a2.21,2.21,0,0,0,1.3.53c.45,0,.64-.17.64-.44s-.51-.49-1-.69S48,8.36,48,7.52,48.77,5.93,50,5.93a2.83,2.83,0,0,1,1.78.64l-.67.9A1.82,1.82,0,0,0,50,7.05c-.39,0-.57.14-.57.4s.47.45,1,.64,1.37.59,1.37,1.53-.72,1.64-2.08,1.65A3.3,3.3,0,0,1,47.76,10.56Z" transform="translate(-2.83 -3.65)" fill="#e24329"/><path d="M52.43,8.59A2.48,2.48,0,0,1,54.8,5.92,2.14,2.14,0,0,1,57,8.35,3.4,3.4,0,0,1,56.9,9h-3a1.22,1.22,0,0,0,1.32,1.07,2,2,0,0,0,1.09-.34l.5.92a3.27,3.27,0,0,1-1.79.57A2.46,2.46,0,0,1,52.43,8.59ZM55.69,8c0-.57-.25-1-.85-1a1,1,0,0,0-1,1Z" transform="translate(-2.83 -3.65)" fill="#e24329"/><path d="M58,3.93h1.5V5.69l-.07.91A2.3,2.3,0,0,1,61,5.9c1.1,0,1.57.78,1.57,2.05v3.17h-1.5v-3c0-.74-.19-1-.62-1a1.27,1.27,0,0,0-.94.49v3.44H58Z" transform="translate(-2.83 -3.65)" fill="#e24329"/><path d="M63.52,8.57a2.47,2.47,0,1,1,4.92,0,2.47,2.47,0,1,1-4.92,0Zm3.39,0c0-.88-.32-1.45-.93-1.45s-.92.57-.92,1.45S65.37,10,66,10,66.91,9.44,66.91,8.56Z" transform="translate(-2.83 -3.65)" fill="#e24329"/><path d="M69.44,9.52V3.9h1.49l0,5.68c0,.32.14.42.26.42a.72.72,0,0,0,.19,0l.18,1.12a1.94,1.94,0,0,1-.75.12C69.79,11.22,69.44,10.55,69.44,9.52Z" transform="translate(-2.83 -3.65)" fill="#e24329"/><path d="M72.07,8.55c0-1.67,1-2.67,2.1-2.68a1.66,1.66,0,0,1,1.24.53l-.06-.78V3.89h1.49l0,7.19H75.64l-.11-.51h0a2,2,0,0,1-1.34.63C72.9,11.22,72.08,10.21,72.07,8.55Zm3.29,1V7.43a1.21,1.21,0,0,0-.83-.33c-.48,0-.91.46-.91,1.42S74,10,74.53,10A1,1,0,0,0,75.36,9.52Z" transform="translate(-2.83 -3.65)" fill="#e24329"/><path d="M80.08,4.44a.87.87,0,1,1,.87.79A.8.8,0,0,1,80.08,4.44ZM80.21,6h1.5v5.09h-1.5Z" transform="translate(-2.83 -3.65)" fill="#e24329"/><path d="M83,6h1.22l.1.65h0A2.29,2.29,0,0,1,86,5.85c1.11,0,1.58.77,1.58,2.05v3.16h-1.5v-3c0-.74-.2-1-.62-1a1.29,1.29,0,0,0-.94.5v3.44H83Z" transform="translate(-2.83 -3.65)" fill="#e24329"/><path d="M88.53,8.51a2.54,2.54,0,0,1,2.62-2.67,2.18,2.18,0,0,1,1.48.54l-.7,1a1.06,1.06,0,0,0-.69-.29c-.72,0-1.18.57-1.18,1.45S90.55,10,91.2,10a1.49,1.49,0,0,0,.9-.37l.6,1a2.58,2.58,0,0,1-1.67.61A2.44,2.44,0,0,1,88.53,8.51Z" transform="translate(-2.83 -3.65)" fill="#e24329"/><path d="M93.13,8.5a2.47,2.47,0,1,1,4.92,0,2.47,2.47,0,1,1-4.92,0Zm3.39,0c0-.88-.32-1.44-.93-1.44s-.92.57-.92,1.45S95,10,95.6,9.94,96.52,9.38,96.52,8.49Z" transform="translate(-2.83 -3.65)" fill="#e24329"/><path d="M99.06,5.94h1.23l.1.66h0A2.08,2.08,0,0,1,102,5.81a1.41,1.41,0,0,1,1.4.85,2.18,2.18,0,0,1,1.58-.85c1.09,0,1.59.77,1.59,2.05V11H105v-3c0-.73-.2-1-.62-1a1.35,1.35,0,0,0-.87.5V11h-1.5v-3c0-.74-.19-1-.62-1a1.31,1.31,0,0,0-.86.49V11h-1.5Z" transform="translate(-2.83 -3.65)" fill="#e24329"/><path d="M107.5,8.47a2.49,2.49,0,0,1,2.38-2.67c1.44,0,2.15,1,2.16,2.43a3.4,3.4,0,0,1-.06.67h-3A1.21,1.21,0,0,0,110.27,10a2,2,0,0,0,1.09-.34l.5.92a3.27,3.27,0,0,1-1.79.57A2.48,2.48,0,0,1,107.5,8.47Zm3.26-.56c0-.57-.25-1-.85-1a1,1,0,0,0-1,1Z" transform="translate(-2.83 -3.65)" fill="#e24329"/><path d="M32.32,47.52h-2.8v-1l2.36-3.93h1.83v3.81h.74v1.15h-.74v1.56H32.33Zm0-1.15V45.31c0-.42,0-1.05.06-1.46h0L31.81,45,31,46.37Z" transform="translate(-2.83 -3.65)" fill="#322f5b"/><path d="M37.94,47.51H35.13v-1l2.36-3.93h1.83v3.81h.74V47.5h-.75v1.56h-1.4Zm0-1.15V45.3c0-.42,0-1,.06-1.46h0c-.16.36-.35.73-.53,1.1l-.85,1.42Z" transform="translate(-2.83 -3.65)" fill="#322f5b"/><path d="M40.47,44.36c0-1.34.69-2.12,1.65-2.12s1.66.78,1.67,2.11-.7,2.14-1.66,2.14S40.48,45.7,40.47,44.36Zm2.27,0c0-1-.28-1.27-.62-1.27s-.61.32-.61,1.28.28,1.29.62,1.29S42.74,45.31,42.74,44.35Zm3.19-2.12h.87l-3.57,7h-.87ZM45.38,47c0-1.34.69-2.12,1.65-2.12s1.66.78,1.67,2.11S48,49.17,47,49.17,45.39,48.38,45.38,47Zm2.27,0c0-1-.28-1.27-.62-1.27s-.61.32-.61,1.28.28,1.29.62,1.29S47.65,48,47.65,47Z" transform="translate(-2.83 -3.65)" fill="#322f5b"/><path d="M51.89,46.08l.74-3.79h.8l-.76,3.86a4.34,4.34,0,0,0-.09.81,1.68,1.68,0,0,0,.33,1.12,1.27,1.27,0,0,0,1,.39,1.25,1.25,0,0,0,.54-.12A1.27,1.27,0,0,0,55,48a2.35,2.35,0,0,0,.39-.63,5.31,5.31,0,0,0,.28-.94l.81-4.13h.78l-.83,4.17A5.05,5.05,0,0,1,56,47.69a3,3,0,0,1-.56.84,2.07,2.07,0,0,1-.72.48,2.32,2.32,0,0,1-.84.15,2.19,2.19,0,0,1-1.57-.53,2.17,2.17,0,0,1-.54-1.6,3.54,3.54,0,0,1,0-.45A4.71,4.71,0,0,1,51.89,46.08Z" transform="translate(-2.83 -3.65)" fill="#322f5b"/><path d="M57.46,49l1-5h.64l-.07.75h0a6.4,6.4,0,0,1,.85-.63,1.75,1.75,0,0,1,.88-.25,1.14,1.14,0,0,1,.91.33,1.39,1.39,0,0,1,.27.91,3.25,3.25,0,0,1,0,.33,3.35,3.35,0,0,1-.06.36L61.24,49h-.77l.6-3.09c0-.13,0-.24.06-.32a1.14,1.14,0,0,0,0-.26.89.89,0,0,0-.17-.58.72.72,0,0,0-.56-.19,1.26,1.26,0,0,0-.66.22,4.11,4.11,0,0,0-.83.69L58.24,49Z" transform="translate(-2.83 -3.65)" fill="#322f5b"/><path d="M66.69,44.62l.16-1,.39-2H68L66.57,49h-.64l.08-.74h0a3.05,3.05,0,0,1-.81.63,2,2,0,0,1-.91.23,1.28,1.28,0,0,1-1-.46,2,2,0,0,1-.39-1.34A4,4,0,0,1,63,46a3.69,3.69,0,0,1,.6-1.09,2.93,2.93,0,0,1,.85-.73,2,2,0,0,1,1-.27,1.22,1.22,0,0,1,.69.2,1.45,1.45,0,0,1,.48.53Zm-2.16,3.86a1.48,1.48,0,0,0,.78-.24,2.59,2.59,0,0,0,.78-.72l.44-2.23a1.63,1.63,0,0,0-.47-.57.91.91,0,0,0-.54-.17,1.29,1.29,0,0,0-.71.22,2.28,2.28,0,0,0-.61.59,2.93,2.93,0,0,0-.42.85,3,3,0,0,0-.16,1,1.55,1.55,0,0,0,.25,1A.79.79,0,0,0,64.53,48.48Z" transform="translate(-2.83 -3.65)" fill="#322f5b"/><path d="M68.17,47A3.42,3.42,0,0,1,69,44.75a2.68,2.68,0,0,1,.84-.64,2.26,2.26,0,0,1,1-.23,1.55,1.55,0,0,1,.71.14,1.17,1.17,0,0,1,.47.38,1.67,1.67,0,0,1,.27.57,3.22,3.22,0,0,1,.08.71,2.62,2.62,0,0,1-.06.57c0,.18-.08.31-.11.41H69a2.22,2.22,0,0,0,0,.82,1.51,1.51,0,0,0,.27.57,1,1,0,0,0,.47.33,1.64,1.64,0,0,0,.6.1,1.36,1.36,0,0,0,.58-.13,2.28,2.28,0,0,0,.53-.3l.3.52A2.89,2.89,0,0,1,71,49a2.36,2.36,0,0,1-.9.16,1.88,1.88,0,0,1-1.41-.54A2.06,2.06,0,0,1,68.17,47Zm.86-.91h2.6l0-.25a2.13,2.13,0,0,0,0-.27,1.4,1.4,0,0,0-.06-.41.9.9,0,0,0-.16-.36.73.73,0,0,0-.3-.24,1,1,0,0,0-.44-.09,1.24,1.24,0,0,0-.54.11,1.87,1.87,0,0,0-.48.33,2.58,2.58,0,0,0-.4.51A2.48,2.48,0,0,0,69,46.13Z" transform="translate(-2.83 -3.65)" fill="#322f5b"/><path d="M73,49l1-5h.65l-.11,1h0a2.83,2.83,0,0,1,.68-.77,1.33,1.33,0,0,1,.85-.31,1.19,1.19,0,0,1,.47.09l-.27.7a.89.89,0,0,0-.43-.08,1.13,1.13,0,0,0-.75.32,2.84,2.84,0,0,0-.71.93L73.74,49Z" transform="translate(-2.83 -3.65)" fill="#322f5b"/><path d="M81,49.1a2.49,2.49,0,0,1-1-.2,2,2,0,0,1-.74-.56,2.22,2.22,0,0,1-.46-.86,3.48,3.48,0,0,1-.16-1.1,4.89,4.89,0,0,1,.24-1.56,4.79,4.79,0,0,1,.7-1.37,3.61,3.61,0,0,1,1.09-1,2.7,2.7,0,0,1,1.41-.37,1.67,1.67,0,0,1,1,.28,2.11,2.11,0,0,1,.65.71l-.55.42a2,2,0,0,0-.47-.53,1,1,0,0,0-.66-.19,1.85,1.85,0,0,0-1.08.32,2.76,2.76,0,0,0-.81.82,3.89,3.89,0,0,0-.52,1.13,4.38,4.38,0,0,0-.18,1.24,3.17,3.17,0,0,0,.1.84,1.78,1.78,0,0,0,.3.67,1.4,1.4,0,0,0,.53.43,1.73,1.73,0,0,0,.78.16,1.64,1.64,0,0,0,.74-.17,3.36,3.36,0,0,0,.67-.44l.36.51a3.52,3.52,0,0,1-.84.56A2.45,2.45,0,0,1,81,49.1Z" transform="translate(-2.83 -3.65)" fill="#322f5b"/><path d="M83.36,49,87,42.22h.92L88.67,49h-.82l-.19-2.11H85.3L84.23,49Zm2.84-3.88-.59,1.15h2l-.11-1.15L87.4,44c0-.36-.07-.73-.09-1.12h0c-.18.39-.35.76-.53,1.11S86.39,44.72,86.2,45.09Z" transform="translate(-2.83 -3.65)" fill="#322f5b"/><path d="M90.64,50.08l.2-1a2.24,2.24,0,0,1-.83-.34,3,3,0,0,1-.65-.58l.5-.49a2.83,2.83,0,0,0,.59.55,1.37,1.37,0,0,0,.82.25,1.31,1.31,0,0,0,.92-.33,1.15,1.15,0,0,0,.35-.87,1.32,1.32,0,0,0-.16-.64,2.37,2.37,0,0,0-.41-.49,4.33,4.33,0,0,0-.52-.42,5.83,5.83,0,0,1-.53-.43,2.49,2.49,0,0,1-.4-.52,1.34,1.34,0,0,1-.17-.68,2,2,0,0,1,.13-.7,1.77,1.77,0,0,1,.37-.55,1.73,1.73,0,0,1,.57-.38,1.9,1.9,0,0,1,.72-.17l.2-1h.57l-.21,1.06a2,2,0,0,1,.67.32,2.43,2.43,0,0,1,.54.52l-.51.46a2,2,0,0,0-.5-.5,1.11,1.11,0,0,0-.65-.2,1.16,1.16,0,0,0-.81.29,1,1,0,0,0-.31.76.94.94,0,0,0,.16.55,3.19,3.19,0,0,0,.4.43l.53.4a4.32,4.32,0,0,1,.52.44,2.54,2.54,0,0,1,.4.57,1.68,1.68,0,0,1,.16.77,2.11,2.11,0,0,1-.13.75,1.81,1.81,0,0,1-1,1,2.13,2.13,0,0,1-.78.19l-.2,1Z" transform="translate(-2.83 -3.65)" fill="#322f5b"/><path d="M96.22,49.06a2.37,2.37,0,0,1-.7-.1,1.63,1.63,0,0,1-.6-.31,1.76,1.76,0,0,1-.44-.53,1.67,1.67,0,0,1-.17-.76,1.72,1.72,0,0,1,.13-.68,2.17,2.17,0,0,1,.33-.55,2.22,2.22,0,0,1,.49-.42,3.2,3.2,0,0,1,.57-.32v0a2.16,2.16,0,0,1-.44-.59,1.54,1.54,0,0,1-.15-.7,1.79,1.79,0,0,1,.15-.75,1.83,1.83,0,0,1,.42-.56,2.18,2.18,0,0,1,.61-.36,2.13,2.13,0,0,1,.72-.12,2,2,0,0,1,.6.09,1.63,1.63,0,0,1,.52.28,1.57,1.57,0,0,1,.35.48,1.54,1.54,0,0,1,.14.67,1.76,1.76,0,0,1-.35,1.1,3.14,3.14,0,0,1-.89.75v0l.3.25a2.26,2.26,0,0,1,.29.32,2.74,2.74,0,0,1,.21.42,1.57,1.57,0,0,1,.08.49,1.7,1.7,0,0,1-.18.79,1.88,1.88,0,0,1-.47.61,2.31,2.31,0,0,1-.69.38A2.53,2.53,0,0,1,96.22,49.06Zm0-.58a1.54,1.54,0,0,0,.52-.09,1.48,1.48,0,0,0,.44-.25,1.05,1.05,0,0,0,.32-.4,1.2,1.2,0,0,0,.11-.55,1.12,1.12,0,0,0-.11-.5,1.38,1.38,0,0,0-.33-.4,2.44,2.44,0,0,0-.47-.33l-.55-.31a3.18,3.18,0,0,0-.84.67,1.38,1.38,0,0,0-.32,1,1.36,1.36,0,0,0,.09.51,1.26,1.26,0,0,0,.27.37,1.28,1.28,0,0,0,.39.24A1.51,1.51,0,0,0,96.26,48.48Zm.83-3.09.36-.27a2.66,2.66,0,0,0,.32-.35,1.59,1.59,0,0,0,.21-.41,1.27,1.27,0,0,0,.08-.48,1,1,0,0,0-.28-.76.91.91,0,0,0-.7-.26,1.2,1.2,0,0,0-.42.07,1.08,1.08,0,0,0-.61.6A1.21,1.21,0,0,0,96,44a1.17,1.17,0,0,0,.29.82A2.79,2.79,0,0,0,97.09,45.39Z" transform="translate(-2.83 -3.65)" fill="#322f5b"/><path d="M102.23,48.93h-.73l.36-1.81H99.09l.09-.54,3.47-4.22h.86l-.81,4.11h.86l-.13.64h-.85Zm-2.18-2.44H102l.37-1.94q.06-.3.15-.63c.06-.23.11-.45.17-.68h0l-.4.56c-.14.19-.26.36-.39.51Z" transform="translate(-2.83 -3.65)" fill="#322f5b"/><path d="M103.7,50.61l-.11-.47a2.06,2.06,0,0,0,.77-.5,1.37,1.37,0,0,0,.36-.68h0a.61.61,0,0,1-.39-.12.5.5,0,0,1-.14-.37.67.67,0,0,1,.17-.46.63.63,0,0,1,.48-.2.46.46,0,0,1,.4.19.74.74,0,0,1,.15.49,2,2,0,0,1-.46,1.33A2.36,2.36,0,0,1,103.7,50.61Z" transform="translate(-2.83 -3.65)" fill="#322f5b"/><path d="M108,49a1.38,1.38,0,0,1-.87-.25,2.15,2.15,0,0,1-.55-.58l.53-.42a1.4,1.4,0,0,0,.39.44,1,1,0,0,0,.55.15,1.45,1.45,0,0,0,.72-.2,2.24,2.24,0,0,0,.63-.57,3.49,3.49,0,0,0,.49-.88,5.2,5.2,0,0,0,.31-1.15,2.11,2.11,0,0,1-.75.56,1.85,1.85,0,0,1-.74.18,1.51,1.51,0,0,1-1.16-.45,1.75,1.75,0,0,1-.43-1.25,2.49,2.49,0,0,1,.16-.91,2.45,2.45,0,0,1,.44-.77,2.28,2.28,0,0,1,.67-.52,1.9,1.9,0,0,1,.82-.19,1.73,1.73,0,0,1,.76.17,1.65,1.65,0,0,1,.57.45,2,2,0,0,1,.36.7,3.26,3.26,0,0,1,.12.9,7.09,7.09,0,0,1-.22,1.84,4.82,4.82,0,0,1-.64,1.45,3.14,3.14,0,0,1-1,1A2.32,2.32,0,0,1,108,49Zm.89-3.3a1.38,1.38,0,0,0,.64-.18,2.53,2.53,0,0,0,.37-.26,2.44,2.44,0,0,0,.38-.4,1.69,1.69,0,0,0,0-.23v-.24a2,2,0,0,0-.3-1.15.94.94,0,0,0-.82-.43,1,1,0,0,0-.51.14,1.57,1.57,0,0,0-.43.38,1.76,1.76,0,0,0-.27.53,1.83,1.83,0,0,0-.11.61,1.44,1.44,0,0,0,.27.9A.92.92,0,0,0,108.91,45.74Z" transform="translate(-2.83 -3.65)" fill="#322f5b"/><path d="M113.18,49a2,2,0,0,1-1.14-.32,2.79,2.79,0,0,1-.78-.79l.51-.42a2.85,2.85,0,0,0,.25.33,1.93,1.93,0,0,0,.3.27,1.36,1.36,0,0,0,.4.2,1.61,1.61,0,0,0,.51.07,1.46,1.46,0,0,0,.61-.13,1.6,1.6,0,0,0,.51-.35,1.87,1.87,0,0,0,.36-.55,2,2,0,0,0,.13-.72,1.25,1.25,0,0,0-.33-.95,1.18,1.18,0,0,0-.85-.3,1.71,1.71,0,0,0-.54.08,5,5,0,0,0-.55.26l-.33-.27.8-3.09h3L116,43h-2.37L113.06,45a2.26,2.26,0,0,1,.39-.15,1.73,1.73,0,0,1,.47-.06,2,2,0,0,1,.67.11,1.46,1.46,0,0,1,.54.32,1.29,1.29,0,0,1,.36.54,1.93,1.93,0,0,1,.13.75,2.74,2.74,0,0,1-.2,1.06,2.45,2.45,0,0,1-.54.8,2.32,2.32,0,0,1-.78.52A2.39,2.39,0,0,1,113.18,49Z" transform="translate(-2.83 -3.65)" fill="#322f5b"/><path d="M118.18,49a1.41,1.41,0,0,1-.69-.17,1.49,1.49,0,0,1-.5-.47,2.13,2.13,0,0,1-.31-.7,3.56,3.56,0,0,1-.11-.89,7.17,7.17,0,0,1,.21-1.75,5.86,5.86,0,0,1,.59-1.46,3.24,3.24,0,0,1,.85-1,1.71,1.71,0,0,1,1-.37,1.36,1.36,0,0,1,.67.17,1.56,1.56,0,0,1,.51.48,2.2,2.2,0,0,1,.3.71,3.62,3.62,0,0,1,.11.89,7.11,7.11,0,0,1-.21,1.75,5.56,5.56,0,0,1-.58,1.45,3.2,3.2,0,0,1-.85,1A1.68,1.68,0,0,1,118.18,49Zm0-.63A1,1,0,0,0,119,48a2.89,2.89,0,0,0,.61-.92,5.82,5.82,0,0,0,.4-1.28,6.74,6.74,0,0,0,.15-1.4,2.54,2.54,0,0,0-.23-1.14.74.74,0,0,0-.69-.44,1,1,0,0,0-.75.36,3.47,3.47,0,0,0-.6.93,5.82,5.82,0,0,0-.4,1.28,6.74,6.74,0,0,0-.15,1.4,3.13,3.13,0,0,0,.06.63,1.66,1.66,0,0,0,.17.49.91.91,0,0,0,.28.33A.73.73,0,0,0,118.22,48.39Z" transform="translate(-2.83 -3.65)" fill="#322f5b"/><path d="M29.69,104.44l.67-1a2,2,0,0,0,1.39.64,1,1,0,0,0,1.09-1,.93.93,0,0,0-1-1,1.51,1.51,0,0,0-1,.33l-.67-.43.18-3.3H34V100H31.66l-.11,1.23a1.55,1.55,0,0,1,.73-.16,1.9,1.9,0,0,1,2.06,2A2.24,2.24,0,0,1,32,105.35,3,3,0,0,1,29.69,104.44Z" transform="translate(-2.83 -3.65)" fill="#322f5b"/><path d="M35.12,104.36c1.65-1.57,2.81-2.69,2.81-3.62a.87.87,0,0,0-.92-1,1.65,1.65,0,0,0-1.15.67L35,99.62a2.74,2.74,0,0,1,2.17-1,2,2,0,0,1,2.15,2.07c0,1.09-1,2.27-2.07,3.38a10.44,10.44,0,0,1,1.09-.09h1.3v1.27H35.13Z" transform="translate(-2.83 -3.65)" fill="#322f5b"/><path d="M40.33,100.51c0-1.34.69-2.12,1.65-2.12s1.66.78,1.66,2.11S43,102.64,42,102.64,40.33,101.85,40.33,100.51Zm2.26,0c0-1-.27-1.28-.61-1.28s-.61.32-.61,1.28.28,1.29.62,1.29S42.6,101.46,42.59,100.51Zm3.2-2.13h.87l-3.58,7h-.86Zm-.55,4.81c0-1.34.69-2.12,1.65-2.12s1.66.78,1.66,2.11-.7,2.14-1.65,2.14S45.24,104.53,45.24,103.19Zm2.26,0c0-1-.28-1.28-.61-1.28s-.61.32-.61,1.28.28,1.29.61,1.29S47.5,104.14,47.5,103.19Z" transform="translate(-2.83 -3.65)" fill="#322f5b"/><path d="M53.75,105.31a2.41,2.41,0,0,1-1-.2,1.83,1.83,0,0,1-.72-.57,2.66,2.66,0,0,1-.45-.89,4.23,4.23,0,0,1-.15-1.16,4.92,4.92,0,0,1,.23-1.52,4.68,4.68,0,0,1,.67-1.34,3.42,3.42,0,0,1,1-.95,2.52,2.52,0,0,1,1.32-.36,2.25,2.25,0,0,1,1,.2,2,2,0,0,1,.73.56,2.75,2.75,0,0,1,.44.89,4.17,4.17,0,0,1,.16,1.16,5,5,0,0,1-.24,1.52,4.79,4.79,0,0,1-.66,1.34,3.44,3.44,0,0,1-1,1A2.43,2.43,0,0,1,53.75,105.31Zm0-.69a1.66,1.66,0,0,0,1-.32,3.11,3.11,0,0,0,.76-.81,4.07,4.07,0,0,0,.48-1.1,4.12,4.12,0,0,0,.17-1.19,3,3,0,0,0-.38-1.6A1.25,1.25,0,0,0,54.63,99a1.63,1.63,0,0,0-1,.31,2.65,2.65,0,0,0-.76.8,4.23,4.23,0,0,0-.49,1.1,4.57,4.57,0,0,0-.17,1.2,3.59,3.59,0,0,0,.1.9,2,2,0,0,0,.28.69,1.22,1.22,0,0,0,.48.45A1.42,1.42,0,0,0,53.79,104.62Z" transform="translate(-2.83 -3.65)" fill="#322f5b"/><path d="M58.58,105.17l-.73-5h.77l.38,2.89c0,.24,0,.48.07.74s0,.51.07.75h0l.36-.75.37-.75,1.45-2.89h.79l-2.63,5Z" transform="translate(-2.83 -3.65)" fill="#322f5b"/><path d="M62.06,103.2a3.57,3.57,0,0,1,.23-1.29,3.43,3.43,0,0,1,.61-1,2.84,2.84,0,0,1,.84-.64,2.26,2.26,0,0,1,1-.23,1.65,1.65,0,0,1,.7.14,1.21,1.21,0,0,1,.48.38,1.49,1.49,0,0,1,.26.57,2.78,2.78,0,0,1,.09.72,2.53,2.53,0,0,1-.06.56c0,.18-.08.32-.11.41H62.85a2.08,2.08,0,0,0,0,.83,1.26,1.26,0,0,0,.27.57,1.15,1.15,0,0,0,.46.33,2,2,0,0,0,.61.1,1.52,1.52,0,0,0,.58-.13,2.65,2.65,0,0,0,.52-.31l.31.53a2.88,2.88,0,0,1-.7.37,2.36,2.36,0,0,1-.9.16,1.83,1.83,0,0,1-1.41-.53A2.1,2.1,0,0,1,62.06,103.2Zm.87-.9h2.59a1.87,1.87,0,0,0,0-.25,2.17,2.17,0,0,0,0-.26,1.42,1.42,0,0,0,0-.42,1,1,0,0,0-.16-.35.73.73,0,0,0-.3-.25,1,1,0,0,0-.45-.09,1.4,1.4,0,0,0-.53.11,1.87,1.87,0,0,0-.48.33,2.32,2.32,0,0,0-.4.52A2.35,2.35,0,0,0,62.93,102.3Z" transform="translate(-2.83 -3.65)" fill="#322f5b"/><path d="M66.87,105.15l1-5h.64l-.11,1h0a3,3,0,0,1,.68-.77,1.39,1.39,0,0,1,.85-.31,1.19,1.19,0,0,1,.47.09l-.27.7a1,1,0,0,0-.43-.08,1.18,1.18,0,0,0-.75.32,2.89,2.89,0,0,0-.71.94l-.61,3.15Z" transform="translate(-2.83 -3.65)" fill="#322f5b"/><path d="M74.94,105.26a2.31,2.31,0,0,1-1-.2,2,2,0,0,1-.75-.56,2.48,2.48,0,0,1-.46-.85,3.81,3.81,0,0,1-.16-1.11,5,5,0,0,1,.25-1.56,4.61,4.61,0,0,1,.7-1.36,3.65,3.65,0,0,1,1.09-1A2.8,2.8,0,0,1,76,98.27a1.72,1.72,0,0,1,1,.28,2.2,2.2,0,0,1,.65.71l-.55.43a1.88,1.88,0,0,0-.47-.53A1,1,0,0,0,76,99a1.93,1.93,0,0,0-1.08.32,2.88,2.88,0,0,0-.81.82,4,4,0,0,0-.52,1.13,4.48,4.48,0,0,0-.18,1.24,3.25,3.25,0,0,0,.1.85,1.81,1.81,0,0,0,.3.66,1.4,1.4,0,0,0,.53.43,1.71,1.71,0,0,0,.77.16,1.68,1.68,0,0,0,.75-.16,3,3,0,0,0,.67-.45l.36.52A3.69,3.69,0,0,1,76,105,2.45,2.45,0,0,1,74.94,105.26Z" transform="translate(-2.83 -3.65)" fill="#322f5b"/><path d="M77.25,105.13l3.62-6.75h.91l.79,6.74h-.82l-.19-2.1H79.2l-1.07,2.11Zm2.85-3.88-.59,1.15h2l-.11-1.15c0-.36-.06-.71-.1-1.07s-.06-.74-.08-1.13h0c-.17.39-.35.76-.52,1.12S80.29,100.88,80.1,101.25Z" transform="translate(-2.83 -3.65)" fill="#322f5b"/><path d="M84.54,106.25l.2-1a2.26,2.26,0,0,1-.83-.35,3,3,0,0,1-.65-.57l.5-.5a2.64,2.64,0,0,0,.59.56,1.44,1.44,0,0,0,.82.24,1.27,1.27,0,0,0,.91-.33,1.12,1.12,0,0,0,.36-.86,1.26,1.26,0,0,0-.17-.65,2,2,0,0,0-.4-.49,5.6,5.6,0,0,0-.52-.42,3.69,3.69,0,0,1-.53-.43,2.25,2.25,0,0,1-.4-.52,1.31,1.31,0,0,1-.17-.67,1.75,1.75,0,0,1,.13-.7,1.66,1.66,0,0,1,.37-.56,1.9,1.9,0,0,1,.57-.38A2.11,2.11,0,0,1,86,98.4l.2-1h.57l-.21,1.06a2,2,0,0,1,.67.32,2.38,2.38,0,0,1,.53.52l-.5.47a2.2,2.2,0,0,0-.5-.51,1.19,1.19,0,0,0-.66-.2,1.16,1.16,0,0,0-.8.29,1,1,0,0,0-.31.76.92.92,0,0,0,.16.55,2.3,2.3,0,0,0,.4.43l.52.4a3.17,3.17,0,0,1,.52.45,2.19,2.19,0,0,1,.41.57,1.64,1.64,0,0,1,.16.76,2,2,0,0,1-.13.75,1.75,1.75,0,0,1-.38.61,1.77,1.77,0,0,1-.6.43,2.35,2.35,0,0,1-.78.19l-.2,1Z" transform="translate(-2.83 -3.65)" fill="#322f5b"/><path d="M90.12,105.23a2.75,2.75,0,0,1-.7-.1,1.73,1.73,0,0,1-.6-.32,1.53,1.53,0,0,1-.44-.53,1.63,1.63,0,0,1-.17-.75,1.65,1.65,0,0,1,.13-.68,1.79,1.79,0,0,1,.33-.55,2.26,2.26,0,0,1,.49-.43,4.48,4.48,0,0,1,.56-.32v0a2.27,2.27,0,0,1-.43-.59,1.57,1.57,0,0,1-.15-.7,1.84,1.84,0,0,1,.15-.76,1.65,1.65,0,0,1,.42-.56,2,2,0,0,1,.6-.35,2.08,2.08,0,0,1,1.33,0,1.61,1.61,0,0,1,.51.29,1.31,1.31,0,0,1,.36.47A1.81,1.81,0,0,1,92.3,101a2.85,2.85,0,0,1-.89.75v0l.3.25a1.81,1.81,0,0,1,.28.33,1.44,1.44,0,0,1,.21.41,1.37,1.37,0,0,1,.09.49,1.74,1.74,0,0,1-.18.8,1.87,1.87,0,0,1-.47.6,2.11,2.11,0,0,1-.69.38A2.54,2.54,0,0,1,90.12,105.23Zm0-.59a1.44,1.44,0,0,0,.51-.09,1.39,1.39,0,0,0,.45-.24,1.19,1.19,0,0,0,.32-.41,1.35,1.35,0,0,0,.11-.55,1,1,0,0,0-.12-.5,1.28,1.28,0,0,0-.32-.39,3,3,0,0,0-.47-.34l-.55-.3a2.85,2.85,0,0,0-.84.67,1.39,1.39,0,0,0-.33,1,1.36,1.36,0,0,0,.1.51,1.14,1.14,0,0,0,.27.37,1,1,0,0,0,.39.24A1.27,1.27,0,0,0,90.16,104.64Zm.83-3.08.36-.28a1.73,1.73,0,0,0,.31-.35A1.46,1.46,0,0,0,92,100a.93.93,0,0,0-1-1,1.16,1.16,0,0,0-.42.08,1,1,0,0,0-.61.59,1.06,1.06,0,0,0-.1.48,1.19,1.19,0,0,0,.3.82A2.8,2.8,0,0,0,91,101.56Z" transform="translate(-2.83 -3.65)" fill="#322f5b"/><path d="M96.13,105.09H95.4l.36-1.81H93l.09-.53,3.47-4.23h.86l-.81,4.12h.86l-.13.64h-.85Zm-2.19-2.44h1.94l.37-2q.06-.3.15-.63c.06-.22.11-.45.17-.67h0l-.4.56-.38.51Z" transform="translate(-2.83 -3.65)" fill="#322f5b"/><path d="M97.6,106.77l-.11-.47a2,2,0,0,0,.77-.49,1.35,1.35,0,0,0,.35-.68h0a.6.6,0,0,1-.38-.13.46.46,0,0,1-.15-.36.65.65,0,0,1,.18-.46.59.59,0,0,1,.47-.2.48.48,0,0,1,.41.18.75.75,0,0,1,.15.49,2,2,0,0,1-.46,1.33A2.24,2.24,0,0,1,97.6,106.77Z" transform="translate(-2.83 -3.65)" fill="#322f5b"/><path d="M101.92,105.2A1.43,1.43,0,0,1,101,105a2,2,0,0,1-.54-.58L101,104a1.3,1.3,0,0,0,.39.44.88.88,0,0,0,.54.15,1.36,1.36,0,0,0,.73-.2,2.19,2.19,0,0,0,.63-.56,3.88,3.88,0,0,0,.49-.88,5.45,5.45,0,0,0,.31-1.16,2.11,2.11,0,0,1-.75.57,1.85,1.85,0,0,1-.74.18,1.53,1.53,0,0,1-1.16-.45,1.74,1.74,0,0,1-.43-1.26,2.53,2.53,0,0,1,.16-.91,2.3,2.3,0,0,1,.44-.76,2.2,2.2,0,0,1,.66-.52,1.81,1.81,0,0,1,.83-.19,1.73,1.73,0,0,1,.76.16,1.68,1.68,0,0,1,.57.46,2,2,0,0,1,.36.7,3.14,3.14,0,0,1,.12.89,7.17,7.17,0,0,1-.22,1.85,5.21,5.21,0,0,1-.64,1.45,3.1,3.1,0,0,1-1,1A2.23,2.23,0,0,1,101.92,105.2Zm.88-3.3a1.06,1.06,0,0,0,.29,0,1.48,1.48,0,0,0,.36-.14,2.53,2.53,0,0,0,.37-.26,2.35,2.35,0,0,0,.38-.39c0-.08,0-.16,0-.24v-.24a2,2,0,0,0-.3-1.14,1,1,0,0,0-.82-.44,1,1,0,0,0-.52.15,1.47,1.47,0,0,0-.42.37,1.92,1.92,0,0,0-.28.53,2.11,2.11,0,0,0-.1.61,1.38,1.38,0,0,0,.27.9A.9.9,0,0,0,102.8,101.9Z" transform="translate(-2.83 -3.65)" fill="#322f5b"/><path d="M107.08,105.19a2,2,0,0,1-1.15-.32,3,3,0,0,1-.77-.78l.51-.43a2.85,2.85,0,0,0,.25.33,1.61,1.61,0,0,0,.3.28,1.64,1.64,0,0,0,.4.19,1.73,1.73,0,0,0,1.12,0,1.49,1.49,0,0,0,.51-.36,1.57,1.57,0,0,0,.35-.55,1.65,1.65,0,0,0,.13-.72,1.22,1.22,0,0,0-.32-.94,1.16,1.16,0,0,0-.85-.31,1.71,1.71,0,0,0-.54.08c-.15.06-.33.15-.55.26l-.33-.26.8-3.1h3l-.13.68h-2.38l-.52,1.93a2.49,2.49,0,0,1,.39-.14,1.64,1.64,0,0,1,.46-.07,2.11,2.11,0,0,1,.68.11,1.46,1.46,0,0,1,.54.32,1.55,1.55,0,0,1,.36.54,2,2,0,0,1,.13.76,2.78,2.78,0,0,1-.2,1.06,2.68,2.68,0,0,1-.54.8,2.29,2.29,0,0,1-.78.51A2.39,2.39,0,0,1,107.08,105.19Z" transform="translate(-2.83 -3.65)" fill="#322f5b"/><path d="M112.08,105.18a1.41,1.41,0,0,1-.69-.17,1.47,1.47,0,0,1-.5-.46,2.19,2.19,0,0,1-.31-.71,3.1,3.1,0,0,1-.11-.89,6.59,6.59,0,0,1,.21-1.74,5.93,5.93,0,0,1,.58-1.46,3.28,3.28,0,0,1,.86-1,1.72,1.72,0,0,1,1-.38,1.27,1.27,0,0,1,.67.18,1.4,1.4,0,0,1,.5.47,2.19,2.19,0,0,1,.31.71,3.68,3.68,0,0,1,.11.89,7.05,7.05,0,0,1-.21,1.75,5.43,5.43,0,0,1-.58,1.45,3.09,3.09,0,0,1-.85,1A1.62,1.62,0,0,1,112.08,105.18Zm0-.63a1,1,0,0,0,.74-.35,3.49,3.49,0,0,0,.61-.93,6.21,6.21,0,0,0,.4-1.28,6.59,6.59,0,0,0,.15-1.4,2.6,2.6,0,0,0-.23-1.13.73.73,0,0,0-.69-.45,1,1,0,0,0-.75.36,3.25,3.25,0,0,0-.6.93,6.62,6.62,0,0,0-.41,1.28,7.55,7.55,0,0,0-.14,1.4,3.06,3.06,0,0,0,.06.63,1.73,1.73,0,0,0,.17.5.91.91,0,0,0,.28.33A.78.78,0,0,0,112.12,104.55Z" transform="translate(-2.83 -3.65)" fill="#322f5b"/><path d="M4.12,72.23v9.41l.05,19.72v26l0,6a.73.73,0,0,0,.72.73l17,0a.72.72,0,0,0,.72-.73V123.16l0-8.19V101.32L22.56,81.6V71.17l-18.42,0Z" transform="translate(-2.83 -3.65)" fill="#322f5b"/><g opacity="0.8"><g clip-path="url(#clip-path)"><g clip-path="url(#clip-path-2)"><path d="M22.47,39.73l0-12.36V22.49a.73.73,0,0,0-.72-.73l-17,0a.73.73,0,0,0-.73.73v4.88l0,12.36,0,19.09,0,12.35,18.42,0,0-12.35Z" transform="translate(-2.83 -3.65)" fill="#322f5b"/></g></g></g><line y1="67.57" x2="22.93" y2="67.52" fill="none" stroke="#fff" stroke-miterlimit="10" stroke-width="0.73"/><rect x="3.98" y="3.67" width="18.38" height="9.27" transform="translate(-2.85 -3.62) rotate(-0.12)" fill="red"/><rect x="8.58" y="3.67" width="9.19" height="9.27" transform="matrix(1, 0, 0, 1, -2.85, -3.62)" fill="#fff"/><path d="M13.16,4.54l-.62,1.18c-.07.13-.2.12-.33,0l-.45-.23.34,1.81c.07.33-.16.33-.27.19L11,6.63l-.13.46a.16.16,0,0,1-.18.11L9.73,7,10,8c.06.22.11.3-.05.36l-.36.17,1.73,1.41a.24.24,0,0,1,.08.24l-.15.5c.59-.07,1.12-.18,1.72-.24,0,0,.14.08.14.14L13,12.36h.29l-.05-1.83c0-.06.08-.15.13-.14.6.06,1.13.16,1.72.23l-.15-.5A.24.24,0,0,1,15,9.88l1.72-1.41L16.4,8.3c-.15-.06-.11-.15-.06-.36l.27-1-1,.22a.16.16,0,0,1-.18-.11l-.13-.45-.79.89c-.11.15-.34.15-.27-.19l.33-1.81-.45.24c-.13.07-.26.08-.33,0" transform="translate(-2.83 -3.65)" fill="red"/></svg>