<svg id="caregiver" xmlns="http://www.w3.org/2000/svg" xmlns:xlink="http://www.w3.org/1999/xlink" viewBox="0 0 72.94 130.33"><defs><clipPath id="clip-path" transform="translate(-2.87 -3.73)"><rect x="4.1" y="21.72" width="18.47" height="23.62" fill="none"/></clipPath><clipPath id="clip-path-2" transform="translate(-2.87 -3.73)"><rect x="4.13" y="21.74" width="18.42" height="23.58" transform="translate(-0.07 0.03) rotate(-0.12)" fill="none"/></clipPath></defs><title>caregiver</title><path d="M4.21,72.19l0,9.41,0,19.72,0,12.53v13.48l0,6a.73.73,0,0,0,.73.73l17,0a.73.73,0,0,0,.73-.73l0-6V113.81l0-12.53-.05-19.72,0-9.41L22.57,45.3l-18.42,0Z" transform="translate(-2.87 -3.73)" fill="#322f5b"/><g opacity="0.8"><g clip-path="url(#clip-path)"><g clip-path="url(#clip-path-2)"><path d="M22.52,22.45a.73.73,0,0,0-.72-.73l-17,0a.73.73,0,0,0-.73.73l0,4.88,0,18,18.42,0,0-18Z" transform="translate(-2.87 -3.73)" fill="#322f5b"/></g></g></g><path d="M3.25,7.9A3.21,3.21,0,0,1,6.39,4.38a2.83,2.83,0,0,1,2,.87l-.8,1a1.67,1.67,0,0,0-1.17-.54c-.91,0-1.63.82-1.63,2.16S5.43,10,6.41,10A1.75,1.75,0,0,0,7.7,9.39l.8.94a2.71,2.71,0,0,1-2.15,1C4.67,11.33,3.26,10.15,3.25,7.9Z" transform="translate(-2.87 -3.73)" fill="#e24329"/><path d="M9.21,9.78c0-1.07.84-1.66,2.84-1.87a.71.71,0,0,0-.8-.74,2.62,2.62,0,0,0-1.33.47l-.55-1A4.17,4.17,0,0,1,11.53,6c1.3,0,2,.74,2,2.3v2.91H12.33l-.1-.53h0a2.21,2.21,0,0,1-1.47.65A1.45,1.45,0,0,1,9.21,9.78Zm2.84-.07v-.9c-1.06.15-1.41.46-1.41.85s.23.48.59.48A1.1,1.1,0,0,0,12.05,9.71Z" transform="translate(-2.87 -3.73)" fill="#e24329"/><path d="M14.79,6.09H16l.11.9h0a1.68,1.68,0,0,1,1.43-1,1.53,1.53,0,0,1,.61.1L18,7.36a1.87,1.87,0,0,0-.55-.08,1.27,1.27,0,0,0-1.11.94v3H14.8Z" transform="translate(-2.87 -3.73)" fill="#e24329"/><path d="M18.51,8.63A2.5,2.5,0,0,1,20.89,6a2.14,2.14,0,0,1,2.16,2.44,3.49,3.49,0,0,1-.06.67H20a1.24,1.24,0,0,0,1.32,1.08,2.08,2.08,0,0,0,1.09-.34l.5.91a3.28,3.28,0,0,1-1.79.58A2.48,2.48,0,0,1,18.51,8.63Zm3.27-.57c0-.56-.25-1-.85-1a1,1,0,0,0-1,1Z" transform="translate(-2.87 -3.73)" fill="#e24329"/><path d="M23.76,12a1.17,1.17,0,0,1,.72-1v0A1,1,0,0,1,24,10.1a1.2,1.2,0,0,1,.57-.95v0a1.64,1.64,0,0,1-.69-1.33A1.89,1.89,0,0,1,26,5.94a2.37,2.37,0,0,1,.78.12h1.85v1.1H27.8a1.26,1.26,0,0,1,.17.66c0,1.18-.88,1.72-2,1.72a2.09,2.09,0,0,1-.61-.1.45.45,0,0,0-.18.38c0,.26.2.38.77.38h.81c1.24,0,1.93.37,1.93,1.29s-1.09,1.83-2.82,1.83C24.7,13.33,23.76,12.94,23.76,12Zm3.51-.28c0-.32-.27-.4-.77-.4H26a3.08,3.08,0,0,1-.72-.06.68.68,0,0,0-.27.5c0,.38.45.59,1.12.59S27.27,12.1,27.27,11.75Zm-.6-4c0-.54-.29-.82-.69-.82s-.69.27-.69.82.29.85.69.85S26.67,8.34,26.67,7.78Z" transform="translate(-2.87 -3.73)" fill="#e24329"/><path d="M29.33,4.52a.87.87,0,1,1,.87.78A.8.8,0,0,1,29.33,4.52Zm.13,1.54H31v5.1h-1.5Z" transform="translate(-2.87 -3.73)" fill="#e24329"/><path d="M31.7,6.05h1.51l.66,2.4c.13.5.26,1,.4,1.57h0c.12-.54.25-1.07.38-1.57L35.35,6h1.44l-1.64,5.1H33.41Z" transform="translate(-2.87 -3.73)" fill="#e24329"/><path d="M37.11,8.58a2.49,2.49,0,0,1,2.38-2.67,2.14,2.14,0,0,1,2.16,2.44,3.49,3.49,0,0,1-.06.67h-3a1.24,1.24,0,0,0,1.32,1.08A2.08,2.08,0,0,0,41,9.76l.5.91a3.28,3.28,0,0,1-1.79.58A2.48,2.48,0,0,1,37.11,8.58ZM40.38,8c0-.56-.25-1-.85-1a1,1,0,0,0-1,1Z" transform="translate(-2.87 -3.73)" fill="#e24329"/><path d="M42.68,6H43.9l.11.9h0a1.68,1.68,0,0,1,1.43-1,1.44,1.44,0,0,1,.6.1l-.24,1.3a1.87,1.87,0,0,0-.55-.08,1.27,1.27,0,0,0-1.11.94v3h-1.5Z" transform="translate(-2.87 -3.73)" fill="#e24329"/><path d="M48.33,10.52,49,9.58a2.23,2.23,0,0,0,1.31.53c.45,0,.64-.17.64-.44s-.51-.49-1-.69-1.34-.66-1.34-1.5.76-1.59,1.93-1.59a2.84,2.84,0,0,1,1.79.64l-.67.9A1.84,1.84,0,0,0,50.56,7c-.39,0-.57.14-.57.4s.47.45,1,.64,1.36.59,1.37,1.53-.72,1.64-2.08,1.65A3.27,3.27,0,0,1,48.33,10.52Z" transform="translate(-2.87 -3.73)" fill="#e24329"/><path d="M53.6,9.25V7.18H52.9V6.07L53.67,6l.17-1.35h1.24V6H56.3V7.18H55.09v2c0,.58.26.81.66.81a1.52,1.52,0,0,0,.48-.1l.23,1.1a3.94,3.94,0,0,1-1.12.19C54.09,11.22,53.6,10.43,53.6,9.25Z" transform="translate(-2.87 -3.73)" fill="#e24329"/><path d="M57,9.67c0-1.07.84-1.65,2.84-1.86a.7.7,0,0,0-.8-.74,2.72,2.72,0,0,0-1.33.46l-.54-1a4.14,4.14,0,0,1,2.16-.67c1.29,0,2,.73,2,2.29v2.92H60.14l-.1-.52h0a2.21,2.21,0,0,1-1.47.65A1.46,1.46,0,0,1,57,9.67Zm2.84-.07V8.71c-1.06.15-1.4.46-1.4.85s.22.48.58.48A1.11,1.11,0,0,0,59.86,9.6Z" transform="translate(-2.87 -3.73)" fill="#e24329"/><path d="M62.75,9.23V7.16h-.69V6.05L62.83,6,63,4.63h1.24V6h1.21V7.16H64.25v2c0,.58.26.81.66.81a1.4,1.4,0,0,0,.47-.1l.24,1.1a3.94,3.94,0,0,1-1.12.19C63.25,11.2,62.76,10.41,62.75,9.23Z" transform="translate(-2.87 -3.73)" fill="#e24329"/><path d="M66.4,9.14V6h1.5v3c0,.73.19,1,.63,1s.6-.16.9-.56V6h1.5v5.1H69.71l-.12-.71h0a2,2,0,0,1-1.59.84C66.87,11.19,66.4,10.41,66.4,9.14Z" transform="translate(-2.87 -3.73)" fill="#e24329"/><path d="M71.79,10.47l.67-1a2.19,2.19,0,0,0,1.31.54c.45,0,.64-.17.64-.44s-.51-.49-1-.69S72,8.27,72,7.43,72.8,5.84,74,5.83a2.9,2.9,0,0,1,1.79.65l-.67.9A1.93,1.93,0,0,0,74,7c-.39,0-.58.15-.57.41s.47.45,1,.64,1.36.59,1.36,1.53-.72,1.64-2.07,1.64A3.2,3.2,0,0,1,71.79,10.47Z" transform="translate(-2.87 -3.73)" fill="#e24329"/><path d="M29.77,35.27c1.65-1.57,2.81-2.69,2.8-3.62a.87.87,0,0,0-.92-1,1.67,1.67,0,0,0-1.15.67l-.81-.81a2.72,2.72,0,0,1,2.17-1A2,2,0,0,1,34,31.56c0,1.1-1,2.27-2.06,3.38A10.18,10.18,0,0,1,33,34.86h1.3v1.28H29.77Z" transform="translate(-2.87 -3.73)" fill="#322f5b"/><path d="M35.36,34.9h1.41V31.13H35.55V30.2a4.52,4.52,0,0,0,1.61-.6h1.1l0,5.3h1.21v1.22H35.36Z" transform="translate(-2.87 -3.73)" fill="#322f5b"/><path d="M39.79,31.41c0-1.33.69-2.12,1.65-2.12s1.66.78,1.67,2.11-.7,2.14-1.66,2.14S39.8,32.76,39.79,31.41Zm2.27,0c0-1-.28-1.28-.62-1.28s-.61.32-.61,1.28.28,1.29.62,1.29S42.06,32.36,42.06,31.41Zm3.19-2.13h.87l-3.57,6.95h-.87Zm-.55,4.81c0-1.33.69-2.12,1.65-2.12S48,32.75,48,34.08s-.7,2.14-1.66,2.14S44.71,35.44,44.7,34.09Zm2.27,0c0-1-.28-1.28-.62-1.28s-.61.32-.61,1.28.28,1.29.62,1.29S47,35,47,34.09Z" transform="translate(-2.87 -3.73)" fill="#322f5b"/><path d="M51.72,36.09l.52-2.63-1.1-4.11H52l.46,1.94c.07.24.12.48.17.72s.11.48.17.74h0l.46-.74c.14-.24.29-.49.46-.74L55,29.34h.84L53,33.45l-.52,2.64Z" transform="translate(-2.87 -3.73)" fill="#322f5b"/><path d="M54.92,34.12a3.42,3.42,0,0,1,.83-2.29,2.68,2.68,0,0,1,.84-.64,2.13,2.13,0,0,1,1-.23,1.7,1.7,0,0,1,.71.13,1.36,1.36,0,0,1,.47.38,1.82,1.82,0,0,1,.27.58,3.22,3.22,0,0,1,.08.71,2.62,2.62,0,0,1-.06.57c0,.18-.08.31-.11.41H55.7a2.22,2.22,0,0,0,0,.82,1.51,1.51,0,0,0,.27.57,1.12,1.12,0,0,0,.47.33,1.64,1.64,0,0,0,.6.1,1.36,1.36,0,0,0,.58-.13,2.28,2.28,0,0,0,.53-.3l.3.52a2.89,2.89,0,0,1-.7.38,2.35,2.35,0,0,1-.89.16,1.88,1.88,0,0,1-1.42-.54A2.1,2.1,0,0,1,54.92,34.12Zm.86-.91h2.6l0-.25a2.13,2.13,0,0,0,0-.27,1.4,1.4,0,0,0-.06-.41.85.85,0,0,0-.16-.36.76.76,0,0,0-.29-.24,1.06,1.06,0,0,0-.45-.1,1.42,1.42,0,0,0-.54.12,1.48,1.48,0,0,0-.48.33,2.32,2.32,0,0,0-.4.51A2.48,2.48,0,0,0,55.78,33.21Z" transform="translate(-2.87 -3.73)" fill="#322f5b"/><path d="M61.05,36.19a1.71,1.71,0,0,1-.49-.07,2.3,2.3,0,0,1-.9-.5,1.74,1.74,0,0,1-.31-.37l.49-.39a1.89,1.89,0,0,0,.56.53,1.26,1.26,0,0,0,.71.19,1.29,1.29,0,0,0,.4-.06,1.56,1.56,0,0,0,.34-.18,1,1,0,0,0,.23-.27.67.67,0,0,0,0-.57.72.72,0,0,0-.15-.22,1.43,1.43,0,0,0-.28-.22l-.43-.25a3.19,3.19,0,0,1-.86-.63,1.07,1.07,0,0,1-.27-.74,1.32,1.32,0,0,1,.13-.6,1.62,1.62,0,0,1,.37-.48,1.57,1.57,0,0,1,.54-.3,2,2,0,0,1,.65-.11,1.87,1.87,0,0,1,.83.18,2.29,2.29,0,0,1,.63.48l-.44.45a2.1,2.1,0,0,0-.45-.35,1,1,0,0,0-.58-.14,1,1,0,0,0-.67.23.7.7,0,0,0-.27.55.68.68,0,0,0,.07.28.82.82,0,0,0,.2.22,2.26,2.26,0,0,0,.28.2l.33.18a4.08,4.08,0,0,1,.55.35,2.4,2.4,0,0,1,.36.34,1.13,1.13,0,0,1,.2.35,1.54,1.54,0,0,1-.08,1,1.25,1.25,0,0,1-.39.49,1.66,1.66,0,0,1-.59.31A2.5,2.5,0,0,1,61.05,36.19Z" transform="translate(-2.87 -3.73)" fill="#322f5b"/><path d="M32.86,87H30V85.76h4.51v.93c-1.5,1.83-1.71,3-1.81,5.6H31.14A8.74,8.74,0,0,1,32.86,87Z" transform="translate(-2.87 -3.73)" fill="#322f5b"/><path d="M35.2,90.61A1.76,1.76,0,0,1,36.29,89v0a1.92,1.92,0,0,1-.87-1.54,1.86,1.86,0,0,1,2.07-1.81,1.74,1.74,0,0,1,1.13,3.22v0a1.87,1.87,0,0,1,1.12,1.7c0,1-.91,1.81-2.29,1.81S35.2,91.67,35.2,90.61Zm3.15-.08c0-.57-.56-.79-1.37-1.14a1.46,1.46,0,0,0-.5,1,.91.91,0,0,0,1,.91A.77.77,0,0,0,38.35,90.53Zm-.1-3a.76.76,0,0,0-.79-.84.69.69,0,0,0-.72.75c0,.54.45.79,1.11,1A1.46,1.46,0,0,0,38.25,87.51Z" transform="translate(-2.87 -3.73)" fill="#322f5b"/><path d="M40.39,87.56c0-1.34.69-2.12,1.65-2.12s1.67.78,1.67,2.11-.7,2.14-1.66,2.14S40.4,88.9,40.39,87.56Zm2.27,0c0-1-.28-1.27-.62-1.27s-.61.32-.61,1.28.28,1.29.62,1.29S42.66,88.51,42.66,87.55Zm3.19-2.12h.87l-3.57,6.95h-.87Zm-.55,4.81c0-1.34.69-2.12,1.65-2.12s1.66.78,1.67,2.11-.7,2.14-1.66,2.14S45.31,91.58,45.3,90.24Zm2.27,0c0-1-.28-1.27-.62-1.27s-.61.32-.61,1.28.28,1.29.62,1.29S47.57,91.19,47.57,90.23Z" transform="translate(-2.87 -3.73)" fill="#322f5b"/><path d="M51.24,92.24l1.32-6.74h.8l1.54,4.32.43,1.4h0c0-.33.08-.69.12-1.06a9.53,9.53,0,0,1,.18-1.09l.69-3.57h.77l-1.32,6.74H55l-1.51-4.3-.45-1.45h0c0,.35-.08.71-.13,1.07s-.11.72-.18,1.06L52,92.24Z" transform="translate(-2.87 -3.73)" fill="#322f5b"/><path d="M59.29,92.35A1.62,1.62,0,0,1,58,91.81a2.14,2.14,0,0,1-.49-1.46A3.68,3.68,0,0,1,57.75,89a3,3,0,0,1,.59-1,2.87,2.87,0,0,1,.86-.67,2.08,2.08,0,0,1,1-.25,1.7,1.7,0,0,1,1.29.53A2.13,2.13,0,0,1,62,89.1a3.68,3.68,0,0,1-.22,1.31,3.62,3.62,0,0,1-.6,1,2.75,2.75,0,0,1-.86.67A2.34,2.34,0,0,1,59.29,92.35Zm.08-.66a1.3,1.3,0,0,0,.67-.2,2.27,2.27,0,0,0,.57-.55,2.62,2.62,0,0,0,.41-.8,3.19,3.19,0,0,0,.15-1,1.75,1.75,0,0,0-.27-1,.93.93,0,0,0-.79-.36,1.3,1.3,0,0,0-.67.2,2.31,2.31,0,0,0-.58.55,3.06,3.06,0,0,0-.4.81,3.1,3.1,0,0,0-.15,1,1.72,1.72,0,0,0,.27,1A.92.92,0,0,0,59.37,91.69Z" transform="translate(-2.87 -3.73)" fill="#322f5b"/><line y1="41.61" x2="22.93" y2="41.56" fill="none" stroke="#fff" stroke-miterlimit="10" stroke-width="0.73"/></svg>