<svg id="ethnicity" xmlns="http://www.w3.org/2000/svg" xmlns:xlink="http://www.w3.org/1999/xlink" viewBox="0 0 94.81 145.99"><defs><clipPath id="clip-path" transform="translate(-3.38 -3.24)"><rect x="4.67" y="106.7" width="18.43" height="4.53" fill="none"/></clipPath><clipPath id="clip-path-2" transform="translate(-3.38 -3.24)"><rect x="4.67" y="106.72" width="18.42" height="4.49" transform="matrix(1, 0, 0, 1, -0.24, 0.03)" fill="none"/></clipPath><clipPath id="clip-path-3" transform="translate(-3.38 -3.24)"><rect x="4.68" y="111.19" width="18.45" height="13.52" fill="none"/></clipPath><clipPath id="clip-path-4" transform="translate(-3.38 -3.24)"><rect x="4.69" y="111.22" width="18.42" height="13.48" transform="translate(-0.26 0.03) rotate(-0.12)" fill="none"/></clipPath><clipPath id="clip-path-5" transform="translate(-3.38 -3.24)"><rect x="4.48" y="21.35" width="18.61" height="85.39" fill="none"/></clipPath><clipPath id="clip-path-6" transform="translate(-3.38 -3.24)"><rect x="4.57" y="21.37" width="18.42" height="85.35" transform="translate(-0.14 0.03) rotate(-0.12)" fill="none"/></clipPath></defs><title>ethnicity</title><path d="M4.71,127v6a.73.73,0,0,0,.73.73l17,0a.72.72,0,0,0,.72-.73v-8.25l-18.42,0Z" transform="translate(-3.38 -3.24)" fill="#322f5b"/><g opacity="0.6"><g clip-path="url(#clip-path)"><g clip-path="url(#clip-path-2)"><rect x="4.67" y="106.72" width="18.42" height="4.49" transform="matrix(1, 0, 0, 1, -3.62, -3.21)" fill="#322f5b"/></g></g></g><g opacity="0.8"><g clip-path="url(#clip-path-3)"><g clip-path="url(#clip-path-4)"><polygon points="19.73 111.32 19.72 110.2 19.72 107.95 1.3 107.99 1.3 110.24 1.31 111.36 1.32 119.55 1.33 121.47 19.75 121.43 19.74 119.51 19.73 111.32" fill="#322f5b"/></g></g></g><g opacity="0.4"><g clip-path="url(#clip-path-5)"><g clip-path="url(#clip-path-6)"><path d="M23,81.2l0-9.42L22.91,27V22.09a.74.74,0,0,0-.73-.74l-17,0a.74.74,0,0,0-.73.74V27l.1,44.81,0,9.42,0,19.71,0,5.79,18.42,0,0-5.79Z" transform="translate(-3.38 -3.24)" fill="#322f5b"/></g></g></g><path d="M30.48,4.08h4.16V5.35H32V6.7h2.26V8H32V9.5h2.76v1.27H30.5Z" transform="translate(-3.38 -3.24)" fill="#e24329"/><path d="M36.05,8.92V6.86h-.69V5.74l.77-.07.17-1.35h1.25V5.67h1.21V6.85H37.54V8.9c0,.57.25.81.65.81a1.47,1.47,0,0,0,.48-.11l.24,1.1a3.75,3.75,0,0,1-1.13.19C36.54,10.89,36.05,10.1,36.05,8.92Z" transform="translate(-3.38 -3.24)" fill="#e24329"/><path d="M39.75,3.56h1.5V5.32l-.07.92a2.28,2.28,0,0,1,1.55-.7c1.11,0,1.58.77,1.58,2.05v3.16h-1.5v-3c0-.74-.2-1-.62-1a1.29,1.29,0,0,0-.94.5v3.44h-1.5Z" transform="translate(-3.38 -3.24)" fill="#e24329"/><path d="M45.56,5.65h1.23l.1.65h0a2.39,2.39,0,0,1,1.62-.78c1.1,0,1.57.78,1.57,2.05v3.17h-1.5v-3c0-.74-.2-1-.63-1a1.25,1.25,0,0,0-.93.49v3.44H45.58Z" transform="translate(-3.38 -3.24)" fill="#e24329"/><path d="M51.24,4.1a.8.8,0,0,1,.87-.78A.79.79,0,0,1,53,4.1a.87.87,0,0,1-1.74,0Zm.13,1.54h1.5v5.09h-1.5Z" transform="translate(-3.38 -3.24)" fill="#e24329"/><path d="M53.86,8.18a2.55,2.55,0,0,1,2.62-2.67A2.19,2.19,0,0,1,58,6.05l-.7,1a1,1,0,0,0-.68-.29c-.73,0-1.18.57-1.18,1.45s.48,1.45,1.13,1.44a1.5,1.5,0,0,0,.91-.37l.59,1a2.51,2.51,0,0,1-1.67.61A2.45,2.45,0,0,1,53.86,8.18Z" transform="translate(-3.38 -3.24)" fill="#e24329"/><path d="M58.7,4.08a.87.87,0,1,1,.87.79A.8.8,0,0,1,58.7,4.08Zm.13,1.54h1.49v5.09H58.84Z" transform="translate(-3.38 -3.24)" fill="#e24329"/><path d="M61.83,8.86V6.8h-.69V5.68l.77-.06.17-1.36h1.25V5.62h1.21V6.79H63.32v2c0,.57.25.81.65.81a1.46,1.46,0,0,0,.48-.1l.24,1.09a3.44,3.44,0,0,1-1.12.19C62.32,10.83,61.83,10,61.83,8.86Z" transform="translate(-3.38 -3.24)" fill="#e24329"/><path d="M65.5,12.59l.27-1.15a1.61,1.61,0,0,0,.33.06.87.87,0,0,0,.89-.67l.07-.26-2-5h1.51l.73,2.18c.14.47.26,1,.4,1.45h0c.11-.48.22-1,.34-1.45l.61-2.19h1.44l-1.75,5.15c-.47,1.28-1,1.94-2.2,1.94A2.4,2.4,0,0,1,65.5,12.59Z" transform="translate(-3.38 -3.24)" fill="#e24329"/><path d="M71.08,6.66l.6-1.07-1.1-.5.23-.74L72,4.59l.12-1.21h.79L73,4.6l1.18-.26.24.74-1.1.5L74,6.65l-.62.45-.82-.91-.82.92Z" transform="translate(-3.38 -3.24)" fill="#e24329"/><path d="M33.18,61.4H30.27V60.13h4.51v.93c-1.5,1.83-1.71,3-1.81,5.6H31.46A8.78,8.78,0,0,1,33.18,61.4Z" transform="translate(-3.38 -3.24)" fill="#322f5b"/><path d="M35.4,63.53C35.4,61.1,36.65,60,38,60a2.57,2.57,0,0,1,1.89.78l-.78.9a1.52,1.52,0,0,0-1-.46c-.71,0-1.28.52-1.33,2A1.81,1.81,0,0,1,40,64.57a2.09,2.09,0,0,1-2.14,2.19C36.6,66.76,35.41,65.82,35.4,63.53Zm3.24,1c0-.69-.36-.94-.85-.94a1.13,1.13,0,0,0-1,.65c.14,1,.56,1.35,1,1.35S38.64,65.31,38.64,64.57Z" transform="translate(-3.38 -3.24)" fill="#322f5b"/><path d="M40.63,61.93c0-1.34.69-2.12,1.65-2.12s1.66.77,1.67,2.11-.7,2.14-1.66,2.14S40.64,63.27,40.63,61.93Zm2.27,0c0-1-.28-1.27-.62-1.27s-.61.32-.61,1.27.28,1.3.62,1.3S42.9,62.88,42.9,61.92Zm3.19-2.12H47l-3.57,7h-.87Zm-.55,4.81c0-1.34.69-2.12,1.65-2.12s1.66.77,1.67,2.11-.7,2.14-1.66,2.14S45.55,66,45.54,64.61Zm2.27,0c0-.95-.28-1.27-.62-1.27s-.61.32-.61,1.27.28,1.3.62,1.3S47.81,65.56,47.81,64.6Z" transform="translate(-3.38 -3.24)" fill="#322f5b"/><path d="M52.1,66.6l.08-6.74H53l-.1,3.71c0,.36,0,.73,0,1.09s0,.73-.06,1.1h.05c.15-.37.31-.74.47-1.1s.32-.73.47-1.09l1.66-3.71h.72l.1,3.71c0,.36,0,.72,0,1.09v1.1h0c.13-.37.27-.73.42-1.1s.28-.72.42-1.09l1.44-3.71h.78l-2.73,6.74h-1l-.08-4.12V61.7q0-.41,0-.81h0c-.1.27-.2.53-.31.8s-.23.52-.34.79L53.09,66.6Z" transform="translate(-3.38 -3.24)" fill="#322f5b"/><path d="M59.06,66.59l1.43-7.32h.79l-.49,2.41-.16.63h0a6.58,6.58,0,0,1,.83-.6,1.72,1.72,0,0,1,.87-.25,1.1,1.1,0,0,1,.9.33,1.4,1.4,0,0,1,.27.92c0,.11,0,.22,0,.32a1.75,1.75,0,0,1-.07.36l-.62,3.19h-.77l.6-3.08q0-.21.06-.33a2.11,2.11,0,0,0,0-.26.86.86,0,0,0-.17-.57.73.73,0,0,0-.56-.2,1.35,1.35,0,0,0-.66.22,4.92,4.92,0,0,0-.83.69l-.7,3.54Z" transform="translate(-3.38 -3.24)" fill="#322f5b"/><path d="M64.27,66.58l1-5H66l-1,5Zm1.63-6a.55.55,0,0,1-.35-.12.39.39,0,0,1-.15-.34.58.58,0,0,1,.18-.43.6.6,0,0,1,.41-.17.48.48,0,0,1,.35.13.41.41,0,0,1,.15.35.57.57,0,0,1-.17.42A.6.6,0,0,1,65.9,60.54Z" transform="translate(-3.38 -3.24)" fill="#322f5b"/><path d="M68.14,66.69a1.73,1.73,0,0,1-.55-.08,1,1,0,0,1-.37-.24A.77.77,0,0,1,67,66a1.21,1.21,0,0,1-.07-.43,2.48,2.48,0,0,1,0-.29q0-.12,0-.27l.58-2.82h-.73l.11-.59.78-.05.36-1.38h.67l-.28,1.37h1.26l-.13.64H68.35l-.57,2.86a2.31,2.31,0,0,0,0,.37.62.62,0,0,0,.14.46.64.64,0,0,0,.49.16.67.67,0,0,0,.28-.06l.24-.1.17.56a2.56,2.56,0,0,1-.4.16A1.79,1.79,0,0,1,68.14,66.69Z" transform="translate(-3.38 -3.24)" fill="#322f5b"/><path d="M69.79,64.6a3.36,3.36,0,0,1,.84-2.29,2.84,2.84,0,0,1,.84-.64,2.25,2.25,0,0,1,1-.23,1.66,1.66,0,0,1,.71.14,1.29,1.29,0,0,1,.48.38,1.49,1.49,0,0,1,.26.57,2.78,2.78,0,0,1,.09.72,2.53,2.53,0,0,1-.06.56c0,.18-.08.32-.11.41H70.58a2.08,2.08,0,0,0,0,.83,1.26,1.26,0,0,0,.27.57,1.15,1.15,0,0,0,.46.33,2,2,0,0,0,.61.1,1.52,1.52,0,0,0,.58-.13,2.65,2.65,0,0,0,.52-.31l.31.53a3.08,3.08,0,0,1-.7.37,2.57,2.57,0,0,1-.9.17,1.88,1.88,0,0,1-1.41-.54A2.1,2.1,0,0,1,69.79,64.6Zm.87-.9h2.59a1.87,1.87,0,0,0,0-.25,2.17,2.17,0,0,0,0-.26,1.42,1.42,0,0,0,0-.42,1,1,0,0,0-.16-.35.73.73,0,0,0-.3-.25,1,1,0,0,0-.45-.09,1.4,1.4,0,0,0-.53.11,1.87,1.87,0,0,0-.48.33,2.32,2.32,0,0,0-.4.52A2.35,2.35,0,0,0,70.66,63.7Z" transform="translate(-3.38 -3.24)" fill="#322f5b"/><path d="M30.67,120.07h1.4V116.3H30.85v-.93a4.8,4.8,0,0,0,1.61-.6h1.1v5.3h1.22v1.22H30.67Z" transform="translate(-3.38 -3.24)" fill="#322f5b"/><path d="M35.71,120.42c1.65-1.58,2.81-2.7,2.81-3.62a.88.88,0,0,0-.92-1,1.63,1.63,0,0,0-1.15.67l-.82-.81a2.72,2.72,0,0,1,2.17-1,2,2,0,0,1,2.14,2.07c0,1.1-1,2.27-2.06,3.38A10.18,10.18,0,0,1,39,120h1.31v1.27H35.71Z" transform="translate(-3.38 -3.24)" fill="#322f5b"/><path d="M40.92,116.57c0-1.34.68-2.12,1.64-2.12s1.67.77,1.67,2.11-.7,2.14-1.66,2.14S40.92,117.91,40.92,116.57Zm2.26,0c0-1-.28-1.27-.61-1.27s-.62.32-.61,1.27.27,1.3.61,1.3S43.18,117.52,43.18,116.56Zm3.2-2.12h.86l-3.57,7H42.8Zm-.55,4.81c0-1.34.68-2.12,1.64-2.12s1.66.77,1.67,2.11-.7,2.14-1.66,2.14S45.83,120.59,45.83,119.25Zm2.26,0c0-.95-.28-1.27-.62-1.27s-.61.32-.61,1.27.28,1.3.62,1.3S48.09,120.2,48.09,119.24Z" transform="translate(-3.38 -3.24)" fill="#322f5b"/><path d="M50.87,121.25l3.61-6.75h.92l.79,6.74h-.83l-.19-2.11H52.81l-1.07,2.1Zm2.84-3.88-.59,1.15h2l-.1-1.15c0-.35-.07-.71-.1-1.07s-.06-.73-.09-1.12h0c-.18.39-.35.76-.53,1.11S53.9,117,53.71,117.37Z" transform="translate(-3.38 -3.24)" fill="#322f5b"/><path d="M57.3,116.88l.11-.59.66-.05.16-.84a2.4,2.4,0,0,1,.54-1.18,1.31,1.31,0,0,1,1-.43,1.73,1.73,0,0,1,.47.06,2.1,2.1,0,0,1,.4.18l-.27.57a1.15,1.15,0,0,0-.25-.12.7.7,0,0,0-.3-.06.68.68,0,0,0-.55.26,1.61,1.61,0,0,0-.28.7l-.18.86h1l-.12.64h-1l-.85,4.36h-.78l.86-4.36Z" transform="translate(-3.38 -3.24)" fill="#322f5b"/><path d="M59.78,121.23l1-5h.64l-.11,1h0a3.27,3.27,0,0,1,.69-.78,1.37,1.37,0,0,1,.85-.31,1.23,1.23,0,0,1,.47.09l-.28.7a1,1,0,0,0-.43-.08,1.22,1.22,0,0,0-.75.32,3,3,0,0,0-.7.94l-.61,3.16Z" transform="translate(-3.38 -3.24)" fill="#322f5b"/><path d="M63.22,121.22l1-5H65l-1,5Zm1.64-6a.54.54,0,0,1-.35-.11.43.43,0,0,1-.15-.35.54.54,0,0,1,.18-.42.59.59,0,0,1,.41-.18.54.54,0,0,1,.35.13.43.43,0,0,1,.15.35.54.54,0,0,1-.18.42A.57.57,0,0,1,64.86,115.18Z" transform="translate(-3.38 -3.24)" fill="#322f5b"/><path d="M67.44,121.33a1.75,1.75,0,0,1-1.32-.51,2.08,2.08,0,0,1-.51-1.49,3.65,3.65,0,0,1,.23-1.29,3.26,3.26,0,0,1,.61-1,2.74,2.74,0,0,1,.88-.68,2.25,2.25,0,0,1,1-.25,1.54,1.54,0,0,1,.75.17,2,2,0,0,1,.53.43l-.46.5a1.29,1.29,0,0,0-.38-.34.94.94,0,0,0-.49-.11,1.37,1.37,0,0,0-.72.21,2.11,2.11,0,0,0-.61.55,2.92,2.92,0,0,0-.43.8,3.19,3.19,0,0,0-.15,1,1.65,1.65,0,0,0,.29,1,1.06,1.06,0,0,0,.88.36,1.33,1.33,0,0,0,.6-.14,2.8,2.8,0,0,0,.5-.31l.35.51a3.84,3.84,0,0,1-.65.4A2.07,2.07,0,0,1,67.44,121.33Z" transform="translate(-3.38 -3.24)" fill="#322f5b"/><path d="M71.27,121.33a1.32,1.32,0,0,1-1-.46,2.05,2.05,0,0,1-.39-1.35,4,4,0,0,1,.22-1.35,3.82,3.82,0,0,1,.6-1.09,3,3,0,0,1,.86-.73,2,2,0,0,1,1-.27,1.24,1.24,0,0,1,.71.21,1.35,1.35,0,0,1,.49.54h0l.19-.63h.63l-1,5H73l.08-.74h0a3,3,0,0,1-.8.63A1.94,1.94,0,0,1,71.27,121.33Zm.29-.66a1.5,1.5,0,0,0,.78-.24,2.45,2.45,0,0,0,.77-.72l.45-2.23a1.64,1.64,0,0,0-.48-.57,1,1,0,0,0-.54-.17,1.29,1.29,0,0,0-.71.22,2.43,2.43,0,0,0-.61.59,3.55,3.55,0,0,0-.42.85,3.32,3.32,0,0,0-.15,1,1.58,1.58,0,0,0,.24,1A.84.84,0,0,0,71.56,120.67Z" transform="translate(-3.38 -3.24)" fill="#322f5b"/><path d="M75.13,121.19l1-5h.64l-.07.75h0a6.4,6.4,0,0,1,.85-.63,1.63,1.63,0,0,1,.88-.25,1.1,1.1,0,0,1,.9.33,1.37,1.37,0,0,1,.27.91c0,.12,0,.23,0,.33a3.35,3.35,0,0,1-.06.36l-.63,3.19h-.77l.6-3.09a3,3,0,0,0,.06-.33,2,2,0,0,0,0-.25.87.87,0,0,0-.17-.58.73.73,0,0,0-.56-.19,1.26,1.26,0,0,0-.66.22,4.11,4.11,0,0,0-.83.69l-.69,3.53Z" transform="translate(-3.38 -3.24)" fill="#322f5b"/><path d="M80.55,118.9l.12-.61H82.9l-.13.61Z" transform="translate(-3.38 -3.24)" fill="#322f5b"/><path d="M82.87,121.18l3.61-6.75h.92l.79,6.74h-.83l-.18-2.11H84.81l-1.06,2.11Zm2.85-3.88-.59,1.15h2l-.1-1.15c0-.35-.07-.71-.1-1.07s-.06-.73-.09-1.12h0c-.17.39-.35.76-.52,1.11S85.91,116.93,85.72,117.3Z" transform="translate(-3.38 -3.24)" fill="#322f5b"/><path d="M89,121.16l1-5h.64l-.07.75h0a4.38,4.38,0,0,1,.82-.63,1.55,1.55,0,0,1,.81-.25,1.22,1.22,0,0,1,.5.08.88.88,0,0,1,.34.2.92.92,0,0,1,.2.31,2.38,2.38,0,0,1,.11.38,4.37,4.37,0,0,1,.92-.72,1.66,1.66,0,0,1,.82-.26,1.1,1.1,0,0,1,.9.33,1.34,1.34,0,0,1,.28.91,3.25,3.25,0,0,1,0,.33,2.7,2.7,0,0,1-.06.36l-.63,3.19h-.78l.61-3.08c0-.14,0-.25.07-.33a2.11,2.11,0,0,0,0-.26c0-.51-.25-.77-.73-.77a1.21,1.21,0,0,0-.58.22,3.81,3.81,0,0,0-.81.69l-.7,3.54H91.9l.6-3.09a3,3,0,0,0,.06-.33,1,1,0,0,0,0-.25c0-.52-.24-.77-.71-.77a1.2,1.2,0,0,0-.59.22,3.59,3.59,0,0,0-.81.69l-.69,3.53Z" transform="translate(-3.38 -3.24)" fill="#322f5b"/><path d="M97.52,121.27a.45.45,0,0,1-.35-.14.52.52,0,0,1-.13-.37.75.75,0,0,1,.19-.5.65.65,0,0,1,.49-.23.43.43,0,0,1,.35.15.6.6,0,0,1,.12.38.72.72,0,0,1-.19.49A.61.61,0,0,1,97.52,121.27Z" transform="translate(-3.38 -3.24)" fill="#322f5b"/><path d="M32.93,110h-2.8v-1L32.48,105h1.83v3.81h.75V110h-.75v1.56h-1.4Zm0-1.15v-1c0-.43,0-1,.06-1.46h0c-.16.36-.34.73-.53,1.1l-.85,1.42Z" transform="translate(-3.38 -3.24)" fill="#322f5b"/><path d="M35.47,106.86c0-1.34.68-2.12,1.64-2.12s1.67.77,1.67,2.11-.7,2.14-1.66,2.14S35.47,108.2,35.47,106.86Zm2.26,0c0-.95-.28-1.27-.62-1.27s-.61.32-.6,1.27.27,1.3.61,1.3S37.73,107.81,37.73,106.85Zm3.19-2.12h.87l-3.57,7h-.87Zm-.54,4.81c0-1.34.68-2.12,1.64-2.12s1.66.77,1.67,2.11-.7,2.14-1.66,2.14S40.38,110.88,40.38,109.54Zm2.26,0c0-1-.28-1.27-.62-1.27s-.61.32-.61,1.27.28,1.3.62,1.3S42.64,110.49,42.64,109.53Z" transform="translate(-3.38 -3.24)" fill="#322f5b"/><path d="M45.44,111.54l3.61-6.75H50l.79,6.74h-.83l-.19-2.11H47.38l-1.07,2.11Zm2.84-3.88-.59,1.15h2l-.1-1.16c0-.35-.07-.71-.1-1.07s-.06-.73-.09-1.12h0c-.18.39-.35.76-.53,1.11S48.47,107.29,48.28,107.66Z" transform="translate(-3.38 -3.24)" fill="#322f5b"/><path d="M53,111.64a1.73,1.73,0,0,1-.5-.07,2,2,0,0,1-.48-.2,1.73,1.73,0,0,1-.41-.3,1.85,1.85,0,0,1-.32-.37l.49-.39a2,2,0,0,0,.56.53,1.39,1.39,0,0,0,.72.2,1.34,1.34,0,0,0,.4-.07,1,1,0,0,0,.33-.18.8.8,0,0,0,.23-.26.62.62,0,0,0,.08-.33.61.61,0,0,0,0-.24.62.62,0,0,0-.15-.22,1.09,1.09,0,0,0-.28-.22l-.43-.26a3,3,0,0,1-.86-.63,1,1,0,0,1-.28-.73,1.37,1.37,0,0,1,.14-.61,1.4,1.4,0,0,1,.36-.47,1.81,1.81,0,0,1,.54-.31,2.08,2.08,0,0,1,.66-.11,1.8,1.8,0,0,1,.82.18,2.54,2.54,0,0,1,.64.49l-.45.44a2.48,2.48,0,0,0-.45-.35,1.18,1.18,0,0,0-.58-.14,1,1,0,0,0-.67.23.71.71,0,0,0-.27.55.68.68,0,0,0,.27.5,2,2,0,0,0,.28.2l.33.18a4.22,4.22,0,0,1,.56.36,2,2,0,0,1,.36.34,1.05,1.05,0,0,1,.19.34,1.16,1.16,0,0,1,.06.38,1.53,1.53,0,0,1-.14.64,1.41,1.41,0,0,1-.39.49,1.77,1.77,0,0,1-.58.3A2.25,2.25,0,0,1,53,111.64Z" transform="translate(-3.38 -3.24)" fill="#322f5b"/><path d="M55.69,111.52l1-5h.79l-1,5Zm1.63-6a.55.55,0,0,1-.35-.12.41.41,0,0,1-.15-.34.57.57,0,0,1,.18-.43.6.6,0,0,1,.41-.17.53.53,0,0,1,.35.12.43.43,0,0,1,.15.35.54.54,0,0,1-.18.42A.57.57,0,0,1,57.32,105.48Z" transform="translate(-3.38 -3.24)" fill="#322f5b"/><path d="M59.52,111.63a1.26,1.26,0,0,1-1-.46,2.05,2.05,0,0,1-.39-1.35,3.73,3.73,0,0,1,.22-1.34,3.46,3.46,0,0,1,.59-1.09,2.94,2.94,0,0,1,.86-.73,2,2,0,0,1,1-.27,1.25,1.25,0,0,1,.71.2,1.56,1.56,0,0,1,.48.54h0l.19-.62h.63l-1,5H61.2l.08-.74h-.05a2.86,2.86,0,0,1-.8.63A1.91,1.91,0,0,1,59.52,111.63Zm.28-.66a1.62,1.62,0,0,0,.79-.23,2.75,2.75,0,0,0,.77-.73l.44-2.23a1.5,1.5,0,0,0-.47-.56.92.92,0,0,0-.54-.18,1.27,1.27,0,0,0-.71.23,2,2,0,0,0-.61.59,2.93,2.93,0,0,0-.42.85,3,3,0,0,0-.16,1,1.51,1.51,0,0,0,.25,1A.78.78,0,0,0,59.8,111Z" transform="translate(-3.38 -3.24)" fill="#322f5b"/><path d="M63.39,111.5l1-5H65l-.07.75h0a5.65,5.65,0,0,1,.84-.62,1.67,1.67,0,0,1,.88-.26,1.11,1.11,0,0,1,.91.33,1.39,1.39,0,0,1,.27.91,3.25,3.25,0,0,1,0,.33,2.7,2.7,0,0,1-.06.36l-.63,3.19h-.77l.6-3.08c0-.14.05-.25.07-.33a1.11,1.11,0,0,0,0-.26.81.81,0,0,0-.17-.57.72.72,0,0,0-.56-.2,1.26,1.26,0,0,0-.66.22,4.4,4.4,0,0,0-.83.69l-.69,3.54Z" transform="translate(-3.38 -3.24)" fill="#322f5b"/><path d="M30.36,131.72c1.64-1.57,2.8-2.69,2.8-3.62a.87.87,0,0,0-.92-1,1.65,1.65,0,0,0-1.15.67l-.82-.81a2.75,2.75,0,0,1,2.17-1A2,2,0,0,1,34.59,128c0,1.09-1,2.27-2.06,3.38.32,0,.77-.08,1.08-.09h1.3v1.28H30.36Z" transform="translate(-3.38 -3.24)" fill="#322f5b"/><path d="M35.55,127.87c0-1.33.69-2.12,1.65-2.12s1.66.78,1.67,2.11-.7,2.14-1.66,2.14S35.56,129.22,35.55,127.87Zm2.27,0c0-1-.28-1.28-.62-1.28s-.61.32-.61,1.28.28,1.29.62,1.29S37.82,128.82,37.82,127.87ZM41,125.74h.87l-3.57,7h-.87Zm-.55,4.81c0-1.33.69-2.12,1.65-2.12s1.66.78,1.66,2.11-.69,2.14-1.65,2.14S40.46,131.9,40.46,130.55Zm2.26,0c0-1-.27-1.28-.61-1.28s-.61.32-.61,1.28.28,1.29.62,1.29S42.73,131.5,42.72,130.55Z" transform="translate(-3.38 -3.24)" fill="#322f5b"/><path d="M49,132.67a2.41,2.41,0,0,1-1-.2,1.9,1.9,0,0,1-.72-.57,2.65,2.65,0,0,1-.44-.89,3.87,3.87,0,0,1-.16-1.16,4.93,4.93,0,0,1,.24-1.52,4.65,4.65,0,0,1,.66-1.34,3.54,3.54,0,0,1,1-.95,2.52,2.52,0,0,1,1.32-.36,2.25,2.25,0,0,1,1,.2,2,2,0,0,1,.73.56,2.75,2.75,0,0,1,.44.89,3.83,3.83,0,0,1,.16,1.16A5,5,0,0,1,52,130a4.79,4.79,0,0,1-.66,1.34,3.61,3.61,0,0,1-1,1A2.51,2.51,0,0,1,49,132.67Zm0-.69a1.64,1.64,0,0,0,1-.32,2.81,2.81,0,0,0,.76-.81,4.47,4.47,0,0,0,.65-2.29A2.86,2.86,0,0,0,51,127a1.24,1.24,0,0,0-1.17-.6,1.63,1.63,0,0,0-1,.31,2.65,2.65,0,0,0-.76.8,4,4,0,0,0-.48,1.1,4.21,4.21,0,0,0-.18,1.2,4.85,4.85,0,0,0,.1.9,2.1,2.1,0,0,0,.28.7,1.34,1.34,0,0,0,.48.44A1.42,1.42,0,0,0,49,132Z" transform="translate(-3.38 -3.24)" fill="#322f5b"/><path d="M54.38,132.66a1.47,1.47,0,0,1-.55-.09,1,1,0,0,1-.37-.24.92.92,0,0,1-.21-.34,1.56,1.56,0,0,1-.06-.44,2.3,2.3,0,0,1,0-.28l0-.28.58-2.81h-.73l.11-.59.78,0,.36-1.38H55l-.27,1.38H56l-.12.63H54.59L54,131a2.4,2.4,0,0,0,0,.37.66.66,0,0,0,.14.47.64.64,0,0,0,.49.15.81.81,0,0,0,.27-.05l.25-.11.17.57-.4.15A1.78,1.78,0,0,1,54.38,132.66Z" transform="translate(-3.38 -3.24)" fill="#322f5b"/><path d="M56.11,132.53l1.43-7.32h.78l-.48,2.41-.16.63h0a5.93,5.93,0,0,1,.83-.6,1.69,1.69,0,0,1,.87-.25,1.1,1.1,0,0,1,.9.33,1.4,1.4,0,0,1,.27.92c0,.11,0,.22,0,.32a1.75,1.75,0,0,1-.07.36l-.62,3.19h-.78l.61-3.08q0-.21.06-.33a2.11,2.11,0,0,0,0-.26.81.81,0,0,0-.18-.57.7.7,0,0,0-.56-.2,1.36,1.36,0,0,0-.65.22,4.11,4.11,0,0,0-.83.69l-.7,3.54Z" transform="translate(-3.38 -3.24)" fill="#322f5b"/><path d="M61.42,130.55a3.57,3.57,0,0,1,.23-1.29,3.38,3.38,0,0,1,.61-1,2.61,2.61,0,0,1,.84-.65,2.25,2.25,0,0,1,1-.23,1.66,1.66,0,0,1,.71.14,1.37,1.37,0,0,1,.48.38,1.47,1.47,0,0,1,.26.58,2.71,2.71,0,0,1,.08.71,1.69,1.69,0,0,1-.06.56,3,3,0,0,1-.11.42H62.2a2.25,2.25,0,0,0,0,.83,1.26,1.26,0,0,0,.27.57,1.09,1.09,0,0,0,.46.33,1.72,1.72,0,0,0,.6.1,1.37,1.37,0,0,0,.59-.13,3.22,3.22,0,0,0,.52-.3l.31.52a3.54,3.54,0,0,1-.7.38,2.57,2.57,0,0,1-.9.16A1.91,1.91,0,0,1,62,132.1,2.12,2.12,0,0,1,61.42,130.55Zm.87-.9h2.59a2,2,0,0,0,0-.24,2.35,2.35,0,0,0,0-.27,1.93,1.93,0,0,0-.05-.42,1,1,0,0,0-.16-.35.91.91,0,0,0-.3-.25A1,1,0,0,0,64,128a1.4,1.4,0,0,0-.53.11,1.58,1.58,0,0,0-.48.33,2.33,2.33,0,0,0-.67,1.19Z" transform="translate(-3.38 -3.24)" fill="#322f5b"/><path d="M66.22,132.51l1-5h.64l-.11,1h0a3.42,3.42,0,0,1,.69-.77,1.37,1.37,0,0,1,.85-.31,1.23,1.23,0,0,1,.47.09l-.28.7a1,1,0,0,0-.42-.08,1.22,1.22,0,0,0-.76.32,3,3,0,0,0-.7.94L67,132.5Z" transform="translate(-3.38 -3.24)" fill="#322f5b"/><line x1="0.04" y1="121.47" x2="22.97" y2="121.42" fill="none" stroke="#fff" stroke-miterlimit="10" stroke-width="0.73"/><line x1="0.01" y1="108" x2="22.94" y2="107.95" fill="none" stroke="#fff" stroke-miterlimit="10" stroke-width="0.73"/><line y1="103.5" x2="22.93" y2="103.45" fill="none" stroke="#fff" stroke-miterlimit="10" stroke-width="0.73"/><path d="M5,145l1.65-3.44h0L8.27,145H5Z" transform="translate(-3.38 -3.24)" fill="#a3cc6c"/><path d="M9.13,146.4l.67-1a2.12,2.12,0,0,0,1.4.64,1,1,0,0,0,1.09-1,.93.93,0,0,0-1-1,1.51,1.51,0,0,0-1,.33L9.64,144l.17-3.3h3.67v1.28H11.11L11,143.16a1.63,1.63,0,0,1,.72-.15,1.9,1.9,0,0,1,2.07,2,2.24,2.24,0,0,1-2.37,2.28A3.09,3.09,0,0,1,9.13,146.4Z" transform="translate(-3.38 -3.24)" fill="#322f5b"/><path d="M14.45,142.48c0-1.34.69-2.12,1.65-2.12s1.66.78,1.66,2.11-.7,2.14-1.65,2.14S14.45,143.82,14.45,142.48Zm2.26,0c0-.95-.28-1.27-.61-1.27s-.61.32-.61,1.28.28,1.29.61,1.29S16.71,143.43,16.71,142.47Zm3.2-2.12h.87l-3.58,7h-.86Zm-.55,4.81c0-1.34.69-2.12,1.65-2.12s1.66.77,1.66,2.11-.7,2.14-1.66,2.14S19.36,146.5,19.36,145.16Zm2.26,0c0-1-.28-1.27-.61-1.27s-.61.32-.61,1.27.28,1.3.61,1.3S21.62,146.11,21.62,145.15Z" transform="translate(-3.38 -3.24)" fill="#322f5b"/><path d="M25.32,147.16l1.32-6.75h.79l-.56,2.85h3l.57-2.85h.78l-1.32,6.75h-.79l.63-3.21h-3l-.63,3.21Z" transform="translate(-3.38 -3.24)" fill="#322f5b"/><path d="M31.56,147.14l1-5h.78l-1,5Zm1.64-6a.53.53,0,0,1-.35-.12.41.41,0,0,1-.15-.34.6.6,0,0,1,.59-.6.55.55,0,0,1,.35.12.43.43,0,0,1,.15.35.54.54,0,0,1-.18.42A.6.6,0,0,1,33.2,141.11Z" transform="translate(-3.38 -3.24)" fill="#322f5b"/><path d="M35.25,147.26a1.66,1.66,0,0,1-.49-.07,2.55,2.55,0,0,1-.48-.2,2.25,2.25,0,0,1-.42-.3,1.74,1.74,0,0,1-.31-.37l.48-.39a1.88,1.88,0,0,0,.57.52,1.25,1.25,0,0,0,.71.2,1.05,1.05,0,0,0,.4-.07,1,1,0,0,0,.34-.18.82.82,0,0,0,.23-.26.72.72,0,0,0,.08-.32.7.7,0,0,0,0-.25.72.72,0,0,0-.15-.22,1.82,1.82,0,0,0-.28-.22l-.43-.26a3.24,3.24,0,0,1-.86-.62,1.1,1.1,0,0,1-.28-.74,1.4,1.4,0,0,1,.51-1.08,1.62,1.62,0,0,1,.53-.3A1.83,1.83,0,0,1,36,142a1.8,1.8,0,0,1,.82.18,2.15,2.15,0,0,1,.64.48l-.45.44a1.9,1.9,0,0,0-.45-.34,1.06,1.06,0,0,0-.58-.15,1,1,0,0,0-.66.24.69.69,0,0,0-.27.55.5.5,0,0,0,.07.27.83.83,0,0,0,.19.23l.28.19.34.19a4.08,4.08,0,0,1,.55.35,2,2,0,0,1,.36.34,1,1,0,0,1,.19.34,1.21,1.21,0,0,1,.06.38,1.47,1.47,0,0,1-.14.64,1.41,1.41,0,0,1-.38.49,1.84,1.84,0,0,1-.59.31A2.55,2.55,0,0,1,35.25,147.26Z" transform="translate(-3.38 -3.24)" fill="#322f5b"/><path d="M38.77,146.53l-.18,1.07-.31,1.64H37.5l1.4-7.11h.64l-.06.66h0a4.44,4.44,0,0,1,.81-.55,1.89,1.89,0,0,1,.9-.24,1.3,1.3,0,0,1,1,.47,2,2,0,0,1,.39,1.34,4.24,4.24,0,0,1-.22,1.35,3.69,3.69,0,0,1-.6,1.09A2.93,2.93,0,0,1,41,147a2,2,0,0,1-1,.27,1.3,1.3,0,0,1-.7-.2,1.66,1.66,0,0,1-.5-.52Zm2.16-3.87a1.74,1.74,0,0,0-.76.22,2.87,2.87,0,0,0-.76.61l-.47,2.38a1.49,1.49,0,0,0,.46.56,1,1,0,0,0,.55.16,1.29,1.29,0,0,0,.72-.22,2.24,2.24,0,0,0,.6-.59,3.55,3.55,0,0,0,.42-.85,3.37,3.37,0,0,0,.15-1,1.52,1.52,0,0,0-.24-1A.79.79,0,0,0,40.93,142.66Z" transform="translate(-3.38 -3.24)" fill="#322f5b"/><path d="M44.85,147.24a1.29,1.29,0,0,1-1-.46,2.17,2.17,0,0,1-.39-1.35,3.89,3.89,0,0,1,.23-1.34,3.35,3.35,0,0,1,.59-1.09,3.14,3.14,0,0,1,.86-.74,2.23,2.23,0,0,1,1-.27,1.2,1.2,0,0,1,.7.21,1.49,1.49,0,0,1,.49.54h0l.19-.63h.63l-1,5h-.64l.08-.74h0a2.86,2.86,0,0,1-.8.63A1.91,1.91,0,0,1,44.85,147.24Zm.29-.66a1.62,1.62,0,0,0,.79-.23,2.6,2.6,0,0,0,.76-.73l.45-2.23a1.5,1.5,0,0,0-.47-.56.92.92,0,0,0-.54-.18,1.27,1.27,0,0,0-.71.23,2,2,0,0,0-.61.59,3.08,3.08,0,0,0-.43.85,3.21,3.21,0,0,0-.15,1,1.51,1.51,0,0,0,.25,1A.78.78,0,0,0,45.14,146.58Z" transform="translate(-3.38 -3.24)" fill="#322f5b"/><path d="M48.72,147.11l1-5h.64l-.07.75h0a5.52,5.52,0,0,1,.85-.62A1.67,1.67,0,0,1,52,142a1.11,1.11,0,0,1,.91.33,1.39,1.39,0,0,1,.27.91,3.25,3.25,0,0,1,0,.33,3.35,3.35,0,0,1-.06.36l-.63,3.19h-.77l.6-3.08c0-.14,0-.25.07-.33a2.26,2.26,0,0,0,0-.26.84.84,0,0,0-.17-.58.76.76,0,0,0-.56-.19,1.26,1.26,0,0,0-.66.22,4.4,4.4,0,0,0-.83.69l-.69,3.53Z" transform="translate(-3.38 -3.24)" fill="#322f5b"/><path d="M54,147.09l1-5h.78l-1,5Zm1.64-6a.51.51,0,0,1-.35-.12.41.41,0,0,1-.15-.34.6.6,0,0,1,.17-.43.61.61,0,0,1,.42-.17.55.55,0,0,1,.35.12.44.44,0,0,1,.15.35.54.54,0,0,1-.18.42A.6.6,0,0,1,55.6,141.06Z" transform="translate(-3.38 -3.24)" fill="#322f5b"/><path d="M58.17,147.21a1.73,1.73,0,0,1-1.32-.52,2,2,0,0,1-.51-1.48,3.37,3.37,0,0,1,.23-1.29,3,3,0,0,1,.61-1,2.89,2.89,0,0,1,.87-.69,2.4,2.4,0,0,1,1-.24,1.5,1.5,0,0,1,.76.17,2.22,2.22,0,0,1,.53.43l-.46.49a1.48,1.48,0,0,0-.39-.34,1,1,0,0,0-.49-.11,1.36,1.36,0,0,0-.71.21,2.26,2.26,0,0,0-.61.55,2.61,2.61,0,0,0-.43.81,3.14,3.14,0,0,0-.16,1,1.62,1.62,0,0,0,.3,1,1,1,0,0,0,.88.36,1.28,1.28,0,0,0,.59-.13,4.33,4.33,0,0,0,.51-.31l.35.51a4,4,0,0,1-.66.4A2.17,2.17,0,0,1,58.17,147.21Z" transform="translate(-3.38 -3.24)" fill="#322f5b"/><path d="M59.66,148.73l4.4-8.95h.57l-4.41,8.95Z" transform="translate(-3.38 -3.24)" fill="#322f5b"/><path d="M64.1,147.07l1.32-6.74h.79L65,146.39h2.81l-.13.67Z" transform="translate(-3.38 -3.24)" fill="#322f5b"/><path d="M70.13,147.18a1.28,1.28,0,0,1-1-.46,2,2,0,0,1-.39-1.34,4,4,0,0,1,.22-1.35,3.69,3.69,0,0,1,.6-1.09,2.93,2.93,0,0,1,.85-.73,2,2,0,0,1,1-.27,1.33,1.33,0,0,1,.71.2,1.51,1.51,0,0,1,.48.55h0l.19-.63h.64l-1,5h-.64l.08-.74h0a2.82,2.82,0,0,1-.81.62A1.91,1.91,0,0,1,70.13,147.18Zm.28-.66a1.52,1.52,0,0,0,.79-.23,2.56,2.56,0,0,0,.77-.72l.44-2.24a1.59,1.59,0,0,0-.47-.56.91.91,0,0,0-.54-.17,1.29,1.29,0,0,0-.71.22,2.28,2.28,0,0,0-.61.59,2.93,2.93,0,0,0-.42.85,3,3,0,0,0-.16,1,1.51,1.51,0,0,0,.25,1A.76.76,0,0,0,70.41,146.52Z" transform="translate(-3.38 -3.24)" fill="#322f5b"/><path d="M75.54,147.17a1.42,1.42,0,0,1-.54-.09.87.87,0,0,1-.37-.23.84.84,0,0,1-.21-.35,1.51,1.51,0,0,1-.06-.44,2.46,2.46,0,0,1,0-.28c0-.08,0-.18,0-.27l.58-2.82h-.73l.11-.58.78-.06.36-1.37h.66l-.27,1.37h1.25l-.12.64H75.76l-.57,2.86a2.22,2.22,0,0,0,0,.37.52.52,0,0,0,.63.61.65.65,0,0,0,.27-.05l.25-.1.17.56a2.34,2.34,0,0,1-.41.16A1.7,1.7,0,0,1,75.54,147.17Z" transform="translate(-3.38 -3.24)" fill="#322f5b"/><path d="M77.28,147l1-5H79l-1,5Zm1.63-6a.55.55,0,0,1-.35-.12.41.41,0,0,1-.15-.34.57.57,0,0,1,.18-.43A.6.6,0,0,1,79,140a.51.51,0,0,1,.35.12.43.43,0,0,1,.15.35.57.57,0,0,1-.17.42A.61.61,0,0,1,78.91,141Z" transform="translate(-3.38 -3.24)" fill="#322f5b"/><path d="M79.6,147l1-5h.64l-.07.75h0a5.65,5.65,0,0,1,.84-.62,1.8,1.8,0,0,1,.89-.26,1.1,1.1,0,0,1,.9.33,1.4,1.4,0,0,1,.27.92c0,.11,0,.22,0,.32a1.75,1.75,0,0,1-.07.36L83.38,147H82.6l.61-3.08c0-.14.05-.25.06-.33a2.11,2.11,0,0,0,0-.26.81.81,0,0,0-.18-.57.7.7,0,0,0-.56-.2,1.36,1.36,0,0,0-.65.22,4.92,4.92,0,0,0-.83.69l-.7,3.54Z" transform="translate(-3.38 -3.24)" fill="#322f5b"/><path d="M86.72,147.15a1.64,1.64,0,0,1-1.29-.54,2.09,2.09,0,0,1-.48-1.46,3.68,3.68,0,0,1,.22-1.31,3.2,3.2,0,0,1,.6-1,2.75,2.75,0,0,1,.86-.67,2.16,2.16,0,0,1,1-.25,1.64,1.64,0,0,1,1.29.54,2,2,0,0,1,.49,1.46,3.68,3.68,0,0,1-.22,1.31,3.62,3.62,0,0,1-.6,1,2.75,2.75,0,0,1-.86.67A2.2,2.2,0,0,1,86.72,147.15Zm.08-.66a1.3,1.3,0,0,0,.67-.2,2.42,2.42,0,0,0,.57-.54A3,3,0,0,0,88.6,144a1.75,1.75,0,0,0-.28-1.05.92.92,0,0,0-.79-.36,1.3,1.3,0,0,0-.66.2,2.31,2.31,0,0,0-.58.55,2.79,2.79,0,0,0-.4.81,3.14,3.14,0,0,0-.15,1,1.7,1.7,0,0,0,.27,1A.92.92,0,0,0,86.8,146.49Z" transform="translate(-3.38 -3.24)" fill="#322f5b"/><rect x="4.45" y="3.26" width="18.42" height="9.29" transform="translate(-3.39 -3.21) rotate(-0.12)" fill="#fff"/><rect x="4.44" y="3.26" width="18.42" height="0.71" transform="translate(-3.39 -3.21) rotate(-0.12)" fill="#b22234"/><rect x="4.44" y="4.69" width="18.42" height="0.71" transform="translate(-3.39 -3.21) rotate(-0.12)" fill="#b22234"/><rect x="4.45" y="6.12" width="18.42" height="0.71" transform="translate(-3.39 -3.21) rotate(-0.12)" fill="#b22234"/><rect x="4.45" y="7.55" width="18.42" height="0.71" transform="translate(-3.39 -3.21) rotate(-0.12)" fill="#b22234"/><rect x="4.45" y="8.98" width="18.42" height="0.71" transform="translate(-3.4 -3.21) rotate(-0.12)" fill="#b22234"/><rect x="4.46" y="10.41" width="18.42" height="0.71" transform="translate(-3.4 -3.21) rotate(-0.12)" fill="#b22234"/><rect x="4.46" y="11.84" width="18.42" height="0.71" transform="translate(-3.4 -3.21) rotate(-0.12)" fill="#b22234"/><rect x="4.45" y="3.27" width="7" height="5" transform="translate(-3.39 -3.22) rotate(-0.12)" fill="#3c3b6e"/><polygon points="1.39 0.45 1.56 0.57 1.5 0.77 1.66 0.64 1.83 0.77 1.76 0.57 1.93 0.44 1.73 0.44 1.66 0.25 1.6 0.44 1.39 0.45" fill="#fff"/><polygon points="2.55 0.44 2.72 0.56 2.66 0.76 2.82 0.64 2.99 0.76 2.93 0.56 3.09 0.44 2.89 0.44 2.82 0.24 2.76 0.44 2.55 0.44" fill="#fff"/><polygon points="3.71 0.44 3.88 0.56 3.82 0.76 3.98 0.64 4.15 0.76 4.09 0.56 4.25 0.44 4.05 0.44 3.98 0.24 3.92 0.44 3.71 0.44" fill="#fff"/><polygon points="4.87 0.44 5.04 0.56 4.98 0.76 5.14 0.64 5.31 0.76 5.25 0.56 5.41 0.44 5.21 0.44 5.14 0.24 5.08 0.44 4.87 0.44" fill="#fff"/><polygon points="6.03 0.43 6.2 0.56 6.14 0.76 6.3 0.63 6.47 0.76 6.41 0.56 6.57 0.43 6.37 0.43 6.3 0.24 6.24 0.43 6.03 0.43" fill="#fff"/><polygon points="7.2 0.43 7.36 0.55 7.3 0.75 7.46 0.63 7.63 0.75 7.57 0.55 7.73 0.43 7.53 0.43 7.46 0.23 7.4 0.43 7.2 0.43" fill="#fff"/><polygon points="1.97 0.94 2.14 1.07 2.08 1.26 2.24 1.14 2.41 1.26 2.35 1.07 2.51 0.94 2.31 0.94 2.24 0.75 2.18 0.94 1.97 0.94" fill="#fff"/><polygon points="3.13 0.94 3.3 1.06 3.24 1.26 3.4 1.14 3.57 1.26 3.51 1.06 3.67 0.94 3.47 0.94 3.4 0.74 3.34 0.94 3.13 0.94" fill="#fff"/><polygon points="4.29 0.94 4.46 1.06 4.4 1.26 4.57 1.14 4.73 1.26 4.67 1.06 4.83 0.94 4.63 0.94 4.56 0.74 4.5 0.94 4.29 0.94" fill="#fff"/><polygon points="5.46 0.94 5.62 1.06 5.56 1.26 5.72 1.14 5.89 1.26 5.83 1.06 5.99 0.94 5.79 0.94 5.72 0.74 5.66 0.94 5.46 0.94" fill="#fff"/><polygon points="6.62 0.94 6.78 1.06 6.72 1.25 6.89 1.13 7.05 1.25 6.99 1.06 7.16 0.93 6.95 0.94 6.88 0.74 6.82 0.94 6.62 0.94" fill="#fff"/><polygon points="1.4 1.45 1.56 1.57 1.5 1.77 1.66 1.65 1.83 1.77 1.77 1.57 1.93 1.45 1.73 1.45 1.66 1.25 1.6 1.45 1.4 1.45" fill="#fff"/><polygon points="2.56 1.45 2.72 1.57 2.66 1.77 2.83 1.64 2.99 1.76 2.93 1.57 3.09 1.45 2.89 1.45 2.82 1.25 2.76 1.45 2.56 1.45" fill="#fff"/><polygon points="3.71 1.44 3.88 1.56 3.82 1.76 3.99 1.64 4.15 1.76 4.09 1.56 4.25 1.44 4.05 1.44 3.98 1.25 3.92 1.44 3.71 1.44" fill="#fff"/><polygon points="4.88 1.44 5.04 1.56 4.98 1.76 5.15 1.64 5.31 1.76 5.25 1.56 5.42 1.44 5.21 1.44 5.14 1.24 5.08 1.44 4.88 1.44" fill="#fff"/><polygon points="6.04 1.44 6.2 1.56 6.14 1.76 6.31 1.64 6.47 1.76 6.41 1.56 6.58 1.44 6.37 1.44 6.3 1.24 6.24 1.44 6.04 1.44" fill="#fff"/><polygon points="7.2 1.44 7.36 1.56 7.3 1.75 7.47 1.63 7.63 1.75 7.57 1.56 7.74 1.44 7.53 1.44 7.47 1.24 7.4 1.44 7.2 1.44" fill="#fff"/><polygon points="1.99 1.95 2.16 2.07 2.09 2.27 2.26 2.15 2.43 2.27 2.36 2.07 2.53 1.95 2.32 1.95 2.26 1.75 2.2 1.95 1.99 1.95" fill="#fff"/><polygon points="3.15 1.95 3.32 2.07 3.25 2.27 3.42 2.15 3.59 2.27 3.52 2.07 3.69 1.95 3.48 1.95 3.42 1.75 3.36 1.95 3.15 1.95" fill="#fff"/><polygon points="4.31 1.95 4.48 2.07 4.42 2.27 4.58 2.14 4.75 2.27 4.68 2.07 4.85 1.94 4.64 1.95 4.58 1.75 4.52 1.95 4.31 1.95" fill="#fff"/><polygon points="5.47 1.94 5.64 2.06 5.58 2.26 5.74 2.14 5.91 2.26 5.84 2.06 6.01 1.94 5.8 1.94 5.74 1.74 5.68 1.94 5.47 1.94" fill="#fff"/><polygon points="6.63 1.94 6.8 2.06 6.74 2.26 6.9 2.14 7.07 2.26 7 2.06 7.17 1.94 6.96 1.94 6.9 1.74 6.84 1.94 6.63 1.94" fill="#fff"/><polygon points="1.41 2.45 1.58 2.57 1.52 2.77 1.68 2.65 1.85 2.77 1.79 2.57 1.95 2.45 1.75 2.45 1.68 2.25 1.62 2.45 1.41 2.45" fill="#fff"/><polygon points="2.58 2.45 2.74 2.57 2.68 2.77 2.85 2.64 3.01 2.77 2.95 2.57 3.11 2.44 2.91 2.45 2.84 2.25 2.78 2.45 2.58 2.45" fill="#fff"/><polygon points="3.73 2.44 3.9 2.57 3.84 2.77 4.01 2.64 4.17 2.76 4.11 2.57 4.27 2.44 4.07 2.44 4 2.25 3.94 2.44 3.73 2.44" fill="#fff"/><polygon points="4.89 2.44 5.06 2.56 5 2.76 5.17 2.64 5.33 2.76 5.27 2.56 5.43 2.44 5.23 2.44 5.17 2.24 5.1 2.44 4.89 2.44" fill="#fff"/><polygon points="6.06 2.44 6.22 2.56 6.16 2.76 6.33 2.64 6.49 2.76 6.43 2.56 6.6 2.44 6.39 2.44 6.33 2.24 6.26 2.44 6.06 2.44" fill="#fff"/><polygon points="7.22 2.44 7.38 2.56 7.32 2.76 7.49 2.63 7.65 2.76 7.59 2.56 7.76 2.44 7.55 2.44 7.49 2.24 7.42 2.44 7.22 2.44" fill="#fff"/><polygon points="1.43 3.44 1.59 3.56 1.53 3.76 1.7 3.63 1.86 3.76 1.8 3.56 1.97 3.44 1.76 3.44 1.7 3.24 1.63 3.44 1.43 3.44" fill="#fff"/><polygon points="2.59 3.43 2.75 3.56 2.69 3.75 2.86 3.63 3.02 3.75 2.96 3.56 3.13 3.43 2.92 3.43 2.86 3.24 2.79 3.43 2.59 3.43" fill="#fff"/><polygon points="3.75 3.43 3.92 3.55 3.85 3.75 4.02 3.63 4.19 3.75 4.12 3.55 4.29 3.43 4.08 3.43 4.02 3.23 3.95 3.43 3.75 3.43" fill="#fff"/><polygon points="4.91 3.43 5.08 3.55 5.01 3.75 5.18 3.63 5.35 3.75 5.28 3.55 5.45 3.43 5.24 3.43 5.18 3.23 5.12 3.43 4.91 3.43" fill="#fff"/><polygon points="6.07 3.43 6.24 3.55 6.17 3.75 6.34 3.62 6.51 3.75 6.44 3.55 6.61 3.42 6.4 3.43 6.34 3.23 6.28 3.43 6.07 3.43" fill="#fff"/><polygon points="7.23 3.42 7.4 3.55 7.33 3.75 7.5 3.62 7.67 3.74 7.6 3.55 7.77 3.42 7.56 3.42 7.5 3.23 7.43 3.42 7.23 3.42" fill="#fff"/><polygon points="1.42 4.44 1.58 4.56 1.52 4.76 1.69 4.63 1.85 4.76 1.79 4.56 1.95 4.43 1.75 4.43 1.69 4.24 1.62 4.44 1.42 4.44" fill="#fff"/><polygon points="2.58 4.43 2.74 4.56 2.68 4.75 2.85 4.63 3.01 4.75 2.95 4.55 3.12 4.43 2.91 4.43 2.85 4.24 2.78 4.43 2.58 4.43" fill="#fff"/><polygon points="3.74 4.43 3.9 4.55 3.84 4.75 4.01 4.63 4.17 4.75 4.11 4.55 4.28 4.43 4.07 4.43 4.01 4.23 3.94 4.43 3.74 4.43" fill="#fff"/><polygon points="4.9 4.43 5.06 4.55 5 4.75 5.17 4.63 5.33 4.75 5.27 4.55 5.44 4.43 5.23 4.43 5.17 4.23 5.1 4.43 4.9 4.43" fill="#fff"/><polygon points="6.06 4.43 6.22 4.55 6.16 4.75 6.33 4.62 6.5 4.75 6.43 4.55 6.6 4.42 6.39 4.42 6.33 4.23 6.26 4.42 6.06 4.43" fill="#fff"/><polygon points="7.22 4.42 7.38 4.55 7.32 4.74 7.49 4.62 7.66 4.74 7.59 4.54 7.76 4.42 7.55 4.42 7.49 4.22 7.42 4.42 7.22 4.42" fill="#fff"/><polygon points="2 2.94 2.16 3.06 2.1 3.26 2.27 3.13 2.43 3.26 2.37 3.06 2.54 2.94 2.33 2.94 2.27 2.74 2.2 2.94 2 2.94" fill="#fff"/><polygon points="3.16 2.93 3.32 3.06 3.26 3.25 3.43 3.13 3.59 3.25 3.53 3.06 3.7 2.93 3.49 2.93 3.42 2.74 3.36 2.93 3.16 2.93" fill="#fff"/><polygon points="4.32 2.93 4.48 3.05 4.42 3.25 4.59 3.13 4.75 3.25 4.69 3.05 4.86 2.93 4.65 2.93 4.59 2.73 4.52 2.93 4.32 2.93" fill="#fff"/><polygon points="5.48 2.93 5.64 3.05 5.58 3.25 5.75 3.13 5.91 3.25 5.85 3.05 6.02 2.93 5.81 2.93 5.75 2.73 5.68 2.93 5.48 2.93" fill="#fff"/><polygon points="6.64 2.93 6.8 3.05 6.74 3.25 6.91 3.12 7.08 3.25 7.01 3.05 7.18 2.92 6.97 2.93 6.91 2.73 6.84 2.93 6.64 2.93" fill="#fff"/><polygon points="1.99 3.93 2.16 4.06 2.1 4.25 2.26 4.13 2.43 4.25 2.37 4.06 2.53 3.93 2.33 3.93 2.26 3.74 2.2 3.93 1.99 3.93" fill="#fff"/><polygon points="3.15 3.93 3.32 4.05 3.26 4.25 3.42 4.13 3.59 4.25 3.53 4.05 3.69 3.93 3.49 3.93 3.42 3.73 3.36 3.93 3.15 3.93" fill="#fff"/><polygon points="4.32 3.93 4.48 4.05 4.42 4.25 4.59 4.13 4.75 4.25 4.69 4.05 4.85 3.93 4.65 3.93 4.58 3.73 4.52 3.93 4.32 3.93" fill="#fff"/><polygon points="5.48 3.93 5.64 4.05 5.58 4.25 5.75 4.12 5.91 4.25 5.85 4.05 6.02 3.93 5.81 3.93 5.75 3.73 5.68 3.93 5.48 3.93" fill="#fff"/><polygon points="6.64 3.92 6.8 4.05 6.74 4.25 6.91 4.12 7.07 4.24 7.01 4.05 7.18 3.92 6.97 3.92 6.91 3.73 6.84 3.92 6.64 3.92" fill="#fff"/></svg>