<svg id="family" xmlns="http://www.w3.org/2000/svg" xmlns:xlink="http://www.w3.org/1999/xlink" viewBox="0 0 97.36 130.43"><defs><clipPath id="clip-path" transform="translate(-2.78 -3.65)"><rect x="3.95" y="21.74" width="18.53" height="51.7" fill="none"/></clipPath><clipPath id="clip-path-2" transform="translate(-2.78 -3.65)"><rect x="4.01" y="21.75" width="18.42" height="51.66" transform="translate(-0.1 0.03) rotate(-0.12)" fill="none"/></clipPath></defs><title>family</title><path d="M4.08,81.62l0,19.71,0,12.54V115l0,8.18v10.17a.74.74,0,0,0,.73.74l17,0a.72.72,0,0,0,.72-.74V123.13l0-8.18v-1.12l0-12.54L22.5,81.58l0-8.18-18.42,0Z" transform="translate(-2.78 -3.65)" fill="#322f5b"/><g opacity="0.8"><g clip-path="url(#clip-path)"><g clip-path="url(#clip-path-2)"><path d="M22.38,27.35V22.47a.72.72,0,0,0-.73-.73l-17,0a.74.74,0,0,0-.73.74v4.88l.1,44.81v1.24l18.42,0V72.16Z" transform="translate(-2.78 -3.65)" fill="#322f5b"/></g></g></g><path d="M3.41,4.53H7.6V5.79H4.91V7.35h2.3V8.62H4.92v2.6H3.43Z" transform="translate(-2.78 -3.65)" fill="#e24329"/><path d="M8.05,9.79c0-1.06.84-1.65,2.84-1.86a.71.71,0,0,0-.8-.74,2.62,2.62,0,0,0-1.33.47l-.55-1A4.17,4.17,0,0,1,10.37,6c1.3,0,2,.73,2,2.3V11.2H11.17l-.1-.52h0a2.21,2.21,0,0,1-1.47.65A1.46,1.46,0,0,1,8.05,9.79Zm2.84-.06v-.9c-1.06.15-1.41.46-1.41.85s.23.48.59.48A1.13,1.13,0,0,0,10.89,9.73Z" transform="translate(-2.78 -3.65)" fill="#e24329"/><path d="M13.63,6.1h1.22l.11.66h0A2.11,2.11,0,0,1,16.53,6a1.37,1.37,0,0,1,1.39.85A2.2,2.2,0,0,1,19.51,6C20.6,6,21.09,6.75,21.1,8v3.16H19.61v-3c0-.74-.2-1-.63-1a1.35,1.35,0,0,0-.86.5v3.44h-1.5v-3c0-.73-.19-1-.62-1a1.35,1.35,0,0,0-.86.49V11.2h-1.5Z" transform="translate(-2.78 -3.65)" fill="#e24329"/><path d="M22.21,4.55a.87.87,0,1,1,.87.78A.8.8,0,0,1,22.21,4.55Zm.13,1.54h1.5v5.1h-1.5Z" transform="translate(-2.78 -3.65)" fill="#e24329"/><path d="M25.11,9.59V4h1.49l0,5.68c0,.32.14.42.26.42a.72.72,0,0,0,.19,0l.18,1.12a2,2,0,0,1-.75.12C25.46,11.3,25.11,10.62,25.11,9.59Z" transform="translate(-2.78 -3.65)" fill="#e24329"/><path d="M27.79,13.06l.27-1.15a1.61,1.61,0,0,0,.33.06.86.86,0,0,0,.89-.67l.07-.27-2-4.95H28.9l.73,2.19c.14.46.27.94.4,1.45h0c.11-.49.22-1,.34-1.45L31,6.07h1.44l-1.74,5.15c-.48,1.29-1,1.95-2.21,1.95A2.4,2.4,0,0,1,27.79,13.06Z" transform="translate(-2.78 -3.65)" fill="#e24329"/><path d="M35,8.61a2.54,2.54,0,0,1,2.62-2.68,2.23,2.23,0,0,1,1.48.54l-.7,1a1,1,0,0,0-.69-.3c-.72,0-1.18.57-1.17,1.45s.48,1.45,1.13,1.45a1.59,1.59,0,0,0,.91-.37l.59,1a2.52,2.52,0,0,1-1.67.61A2.44,2.44,0,0,1,35,8.61Z" transform="translate(-2.78 -3.65)" fill="#e24329"/><path d="M39.59,8.6a2.47,2.47,0,1,1,4.92,0,2.47,2.47,0,1,1-4.92,0Zm3.39,0c0-.88-.31-1.45-.93-1.45s-.92.57-.92,1.45.31,1.45.93,1.45S43,9.47,43,8.59Z" transform="translate(-2.78 -3.65)" fill="#e24329"/><path d="M45.51,6h1.23l.1.66h0a2.13,2.13,0,0,1,1.53-.78,1.39,1.39,0,0,1,1.4.85,2.16,2.16,0,0,1,1.58-.86C52.48,5.9,53,6.68,53,8v3.16h-1.5v-3c0-.74-.2-1-.62-1a1.39,1.39,0,0,0-.87.5v3.44H48.5v-3c0-.74-.19-1-.62-1a1.31,1.31,0,0,0-.85.5v3.44h-1.5Z" transform="translate(-2.78 -3.65)" fill="#e24329"/><path d="M54.24,6h1.23l.1.51h0a2.23,2.23,0,0,1,1.44-.63c1.22,0,2,1,2,2.58,0,1.75-1,2.75-2.13,2.76a1.8,1.8,0,0,1-1.2-.53l0,.81V13h-1.5ZM57.49,8.5c0-.92-.28-1.38-.88-1.38a1.2,1.2,0,0,0-.87.46V9.67a1.14,1.14,0,0,0,.81.33C57.07,10,57.49,9.54,57.49,8.5Z" transform="translate(-2.78 -3.65)" fill="#e24329"/><path d="M59.79,8.55a2.47,2.47,0,1,1,4.92,0,2.47,2.47,0,1,1-4.92,0Zm3.39,0c0-.88-.32-1.44-.93-1.44s-.92.57-.92,1.45.31,1.45.93,1.44S63.19,9.43,63.18,8.54Z" transform="translate(-2.78 -3.65)" fill="#e24329"/><path d="M65.23,10.5l.67-.95a2.19,2.19,0,0,0,1.31.54c.45,0,.64-.17.64-.44s-.51-.49-1-.69-1.34-.66-1.34-1.5.76-1.59,1.93-1.6a2.9,2.9,0,0,1,1.79.65l-.67.9A1.93,1.93,0,0,0,67.46,7c-.39,0-.57.15-.57.41s.47.45,1,.64,1.36.59,1.37,1.53-.72,1.64-2.08,1.65A3.27,3.27,0,0,1,65.23,10.5Z" transform="translate(-2.78 -3.65)" fill="#e24329"/><path d="M70.06,4.44a.87.87,0,1,1,.87.79A.81.81,0,0,1,70.06,4.44ZM70.18,6h1.5v5.09h-1.5Z" transform="translate(-2.78 -3.65)" fill="#e24329"/><path d="M73.18,9.22V7.16h-.69V6L73.25,6l.17-1.35h1.24V6h1.21V7.15H74.67v2c0,.57.26.81.66.81a1.53,1.53,0,0,0,.48-.11L76,11a3.62,3.62,0,0,1-1.12.19C73.67,11.19,73.18,10.4,73.18,9.22Z" transform="translate(-2.78 -3.65)" fill="#e24329"/><path d="M76.76,4.43a.8.8,0,0,1,.87-.78.78.78,0,0,1,.86.77.87.87,0,0,1-1.73,0ZM76.89,6h1.49l0,5.1H76.9Z" transform="translate(-2.78 -3.65)" fill="#e24329"/><path d="M79.38,8.51a2.47,2.47,0,1,1,4.92,0,2.47,2.47,0,1,1-4.92,0Zm3.39,0c0-.88-.32-1.45-.93-1.45s-.93.57-.92,1.45.3,1.45.93,1.45S82.77,9.38,82.77,8.5Z" transform="translate(-2.78 -3.65)" fill="#e24329"/><path d="M85.3,6h1.22l.11.64h0a2.3,2.3,0,0,1,1.62-.77c1.1,0,1.57.78,1.57,2.05V11h-1.5v-3c0-.74-.19-1-.62-1a1.32,1.32,0,0,0-.94.5V11h-1.5Z" transform="translate(-2.78 -3.65)" fill="#e24329"/><path d="M32.25,42.19h-2.8v-1l2.35-3.93h1.84V41h.74v1.15h-.74v1.56h-1.4Zm0-1.15V40c0-.42,0-1,0-1.46h0c-.16.36-.34.73-.52,1.1L30.88,41Z" transform="translate(-2.78 -3.65)" fill="#322f5b"/><path d="M35.17,40.63c0-2.43,1.25-3.54,2.61-3.54a2.57,2.57,0,0,1,1.89.78l-.78.9a1.54,1.54,0,0,0-1-.46c-.72,0-1.29.52-1.33,2a1.81,1.81,0,0,1,3.22,1.32,2.09,2.09,0,0,1-2.15,2.19C36.37,43.86,35.18,42.92,35.17,40.63Zm3.23,1c0-.69-.36-.94-.84-.94a1.13,1.13,0,0,0-1,.65c.13,1,.56,1.35,1,1.35S38.4,42.41,38.4,41.67Z" transform="translate(-2.78 -3.65)" fill="#322f5b"/><path d="M40.4,39c0-1.34.69-2.12,1.65-2.12s1.66.77,1.66,2.11-.69,2.14-1.65,2.14S40.41,40.37,40.4,39Zm2.27,0c0-1-.28-1.27-.62-1.27s-.61.32-.61,1.27.28,1.3.62,1.3S42.67,40,42.67,39Zm3.19-2.12h.87l-3.58,7h-.86Zm-.55,4.81c0-1.34.69-2.12,1.65-2.12s1.66.77,1.66,2.11-.69,2.14-1.65,2.14S45.31,43.05,45.31,41.71Zm2.26,0c0-1-.27-1.27-.61-1.27s-.61.32-.61,1.27S46.63,43,47,43,47.58,42.66,47.57,41.7Z" transform="translate(-2.78 -3.65)" fill="#322f5b"/><path d="M51.28,43.71,52.6,37h.79l1.54,4.31.43,1.41h0c0-.34.08-.69.13-1.06s.1-.74.17-1.09L56.4,37h.76L55.84,43.7h-.78l-1.52-4.3L53.1,38h0c0,.35-.09.7-.14,1.07s-.11.71-.17,1.06L52,43.71Z" transform="translate(-2.78 -3.65)" fill="#322f5b"/><path d="M59.33,43.81A1.63,1.63,0,0,1,58,43.28a2.12,2.12,0,0,1-.48-1.47,3.62,3.62,0,0,1,.22-1.3,3.36,3.36,0,0,1,.6-1,3,3,0,0,1,.85-.67,2.19,2.19,0,0,1,1-.24,1.67,1.67,0,0,1,1.29.53A2.14,2.14,0,0,1,62,40.57a3.72,3.72,0,0,1-.23,1.31,3.43,3.43,0,0,1-.6,1,2.74,2.74,0,0,1-.85.67A2.19,2.19,0,0,1,59.33,43.81Zm.08-.66a1.16,1.16,0,0,0,.66-.2,2,2,0,0,0,.58-.54,2.61,2.61,0,0,0,.4-.8,3.21,3.21,0,0,0,.15-1,1.72,1.72,0,0,0-.27-1,.92.92,0,0,0-.79-.36,1.3,1.3,0,0,0-.66.2,2,2,0,0,0-.58.54,3.24,3.24,0,0,0-.41.81,3.21,3.21,0,0,0-.15,1,1.72,1.72,0,0,0,.28,1A.89.89,0,0,0,59.41,43.15Z" transform="translate(-2.78 -3.65)" fill="#322f5b"/><path d="M66.57,43.8a1.73,1.73,0,0,1-1.32-.52,2,2,0,0,1-.51-1.48A3.37,3.37,0,0,1,65,40.51a3.2,3.2,0,0,1,.61-1,2.78,2.78,0,0,1,.88-.68,2.33,2.33,0,0,1,1-.25,1.5,1.5,0,0,1,.76.18,2,2,0,0,1,.53.43l-.46.49a1.32,1.32,0,0,0-.39-.34,1,1,0,0,0-.49-.11,1.36,1.36,0,0,0-.71.21,2.11,2.11,0,0,0-.61.55,2.84,2.84,0,0,0-.43.81,3.13,3.13,0,0,0-.16,1,1.63,1.63,0,0,0,.3,1,1.06,1.06,0,0,0,.88.36A1.28,1.28,0,0,0,67.3,43a3.3,3.3,0,0,0,.51-.31l.35.52a4,4,0,0,1-.66.39A2,2,0,0,1,66.57,43.8Z" transform="translate(-2.78 -3.65)" fill="#322f5b"/><path d="M69,43.67l1.43-7.32h.79l-.49,2.41-.16.63h0a6.64,6.64,0,0,1,.84-.6,1.59,1.59,0,0,1,.86-.25,1.1,1.1,0,0,1,.9.33,1.45,1.45,0,0,1,.28.91,3.25,3.25,0,0,1,0,.33,2.7,2.7,0,0,1-.06.36l-.63,3.19H72l.6-3.08q0-.21.06-.33a1.1,1.1,0,0,0,0-.26.86.86,0,0,0-.17-.57.73.73,0,0,0-.56-.2,1.26,1.26,0,0,0-.66.22,4.11,4.11,0,0,0-.83.69l-.69,3.54Z" transform="translate(-2.78 -3.65)" fill="#322f5b"/><path d="M74.22,43.66l1-5H76l-1,5Zm1.63-6a.55.55,0,0,1-.35-.12.41.41,0,0,1-.15-.34.58.58,0,0,1,.18-.43.6.6,0,0,1,.41-.17.56.56,0,0,1,.36.12.47.47,0,0,1,.14.35.54.54,0,0,1-.17.43A.6.6,0,0,1,75.85,37.62Z" transform="translate(-2.78 -3.65)" fill="#322f5b"/><path d="M77.3,43.77a.59.59,0,0,1-.66-.64,2,2,0,0,1,.06-.43l1.24-6.37h.78l-1.25,6.4a.45.45,0,0,0,0,.13.2.2,0,0,1,0,.07c0,.12,0,.19.17.19h.06l.1,0v.61a.73.73,0,0,1-.21.06A1.19,1.19,0,0,1,77.3,43.77Z" transform="translate(-2.78 -3.65)" fill="#322f5b"/><path d="M82.87,39.25l.16-1,.38-2h.78l-1.45,7.32H82.1l.08-.74h0a3,3,0,0,1-.8.63,1.94,1.94,0,0,1-.92.24,1.32,1.32,0,0,1-1-.46A2.05,2.05,0,0,1,79,42a4,4,0,0,1,.22-1.35,3.82,3.82,0,0,1,.6-1.09,3,3,0,0,1,.86-.73,2,2,0,0,1,1-.27,1.25,1.25,0,0,1,.7.2,1.75,1.75,0,0,1,.48.53Zm-2.16,3.86a1.62,1.62,0,0,0,.78-.23,2.89,2.89,0,0,0,.77-.73l.44-2.23a1.63,1.63,0,0,0-.47-.57,1,1,0,0,0-.54-.17,1.37,1.37,0,0,0-.71.22,2.31,2.31,0,0,0-.61.6,3.3,3.3,0,0,0-.42.84,3,3,0,0,0-.15,1,1.58,1.58,0,0,0,.24,1A.84.84,0,0,0,80.71,43.11Z" transform="translate(-2.78 -3.65)" fill="#322f5b"/><path d="M84.27,43.63l1-5h.64l-.11,1h0a3,3,0,0,1,.69-.77,1.31,1.31,0,0,1,.85-.31,1.14,1.14,0,0,1,.46.09l-.27.7a1,1,0,0,0-.43-.08,1.22,1.22,0,0,0-.75.32,2.88,2.88,0,0,0-.7.94L85,43.63Z" transform="translate(-2.78 -3.65)" fill="#322f5b"/><path d="M87.69,41.66a3.37,3.37,0,0,1,.83-2.28,2.64,2.64,0,0,1,.85-.65,2.19,2.19,0,0,1,1-.23,1.66,1.66,0,0,1,.71.14,1.26,1.26,0,0,1,.47.38,1.37,1.37,0,0,1,.27.57,3.38,3.38,0,0,1,.08.72,2.47,2.47,0,0,1-.06.56,3,3,0,0,1-.11.42H88.47a2.52,2.52,0,0,0,0,.83,1.39,1.39,0,0,0,.28.57,1.09,1.09,0,0,0,.46.33,1.89,1.89,0,0,0,.6.1,1.4,1.4,0,0,0,.59-.13,3,3,0,0,0,.52-.31l.31.53a3.08,3.08,0,0,1-.7.37,2.4,2.4,0,0,1-.9.17,1.91,1.91,0,0,1-1.42-.54A2.12,2.12,0,0,1,87.69,41.66Zm.86-.9h2.6c0-.08,0-.16,0-.24a2.44,2.44,0,0,0,0-.27,1.93,1.93,0,0,0,0-.42,1,1,0,0,0-.17-.35.79.79,0,0,0-.29-.25,1,1,0,0,0-.45-.09,1.24,1.24,0,0,0-.53.12,1.41,1.41,0,0,0-.49.33,2.32,2.32,0,0,0-.4.51A2.35,2.35,0,0,0,88.55,40.76Z" transform="translate(-2.78 -3.65)" fill="#322f5b"/><path d="M92.49,43.62l1-5h.64l-.07.75h0a5.52,5.52,0,0,1,.85-.62,1.64,1.64,0,0,1,.88-.26,1.1,1.1,0,0,1,.9.33,1.39,1.39,0,0,1,.27.91c0,.12,0,.23,0,.33a2.7,2.7,0,0,1-.06.36l-.63,3.19H95.5l.6-3.08q0-.21.06-.33a2.28,2.28,0,0,0,0-.26.84.84,0,0,0-.17-.57.73.73,0,0,0-.56-.2,1.26,1.26,0,0,0-.66.22,4.11,4.11,0,0,0-.83.69l-.69,3.54Z" transform="translate(-2.78 -3.65)" fill="#322f5b"/><path d="M34.32,52l-1,5H32.7l.08-.76h0a6.73,6.73,0,0,1-.83.63,1.69,1.69,0,0,1-.88.26,1.1,1.1,0,0,1-.9-.33,1.49,1.49,0,0,1-.28-.91,3.25,3.25,0,0,1,0-.33,2,2,0,0,1,.07-.36L30.56,52h.78l-.61,3.09c0,.13-.05.24-.06.32a2.28,2.28,0,0,0,0,.26.89.89,0,0,0,.17.58.73.73,0,0,0,.56.19,1.26,1.26,0,0,0,.66-.22,4.38,4.38,0,0,0,.81-.69L33.54,52Z" transform="translate(-2.78 -3.65)" fill="#322f5b"/><path d="M34.89,57l1-5h.64l-.07.75h0a5.47,5.47,0,0,1,.84-.62,1.7,1.7,0,0,1,.89-.26,1.1,1.1,0,0,1,.9.33,1.39,1.39,0,0,1,.27.91c0,.12,0,.23,0,.33a1.75,1.75,0,0,1-.07.36L38.67,57h-.78l.61-3.08q0-.21.06-.33a2.11,2.11,0,0,0,0-.26.81.81,0,0,0-.18-.57.7.7,0,0,0-.56-.2,1.26,1.26,0,0,0-.65.22,4.11,4.11,0,0,0-.83.69L35.66,57Z" transform="translate(-2.78 -3.65)" fill="#322f5b"/><path d="M44.12,52.55l.16-1,.38-2h.79L44,56.94h-.65l.08-.74h0a2.86,2.86,0,0,1-.8.63,2,2,0,0,1-.92.24,1.32,1.32,0,0,1-1-.46,2.17,2.17,0,0,1-.39-1.35,4,4,0,0,1,.23-1.35,3.57,3.57,0,0,1,.59-1.09,3.13,3.13,0,0,1,.86-.73,2,2,0,0,1,1-.27,1.24,1.24,0,0,1,.69.2,1.45,1.45,0,0,1,.48.53ZM42,56.41a1.56,1.56,0,0,0,.78-.23,2.75,2.75,0,0,0,.77-.73L44,53.22a1.74,1.74,0,0,0-.47-.57,1,1,0,0,0-.54-.17,1.41,1.41,0,0,0-.72.22,2.43,2.43,0,0,0-.61.59,3.55,3.55,0,0,0-.42.85,3.32,3.32,0,0,0-.15,1,1.58,1.58,0,0,0,.24,1A.84.84,0,0,0,42,56.41Z" transform="translate(-2.78 -3.65)" fill="#322f5b"/><path d="M45.59,55a3.57,3.57,0,0,1,.23-1.29,3.43,3.43,0,0,1,.61-1,2.61,2.61,0,0,1,.84-.64,2.25,2.25,0,0,1,1-.23,1.66,1.66,0,0,1,.71.14,1.37,1.37,0,0,1,.48.38,1.49,1.49,0,0,1,.26.57,2.74,2.74,0,0,1,.08.72,2.6,2.6,0,0,1-.06.56,2.52,2.52,0,0,1-.11.41H46.37a2.25,2.25,0,0,0,0,.83,1.26,1.26,0,0,0,.27.57,1,1,0,0,0,.46.32,1.73,1.73,0,0,0,.6.11,1.57,1.57,0,0,0,.59-.13,2.65,2.65,0,0,0,.52-.31l.31.53a3.53,3.53,0,0,1-.7.37,2.36,2.36,0,0,1-.9.16,1.91,1.91,0,0,1-1.42-.53A2.14,2.14,0,0,1,45.59,55Zm.86-.91h2.6c0-.08,0-.16,0-.25a2.17,2.17,0,0,0,0-.26,1.86,1.86,0,0,0-.05-.42,1,1,0,0,0-.16-.35.81.81,0,0,0-.3-.25,1,1,0,0,0-.45-.09,1.4,1.4,0,0,0-.53.11,1.76,1.76,0,0,0-.49.33,3.1,3.1,0,0,0-.4.52A2.41,2.41,0,0,0,46.45,54.06Z" transform="translate(-2.78 -3.65)" fill="#322f5b"/><path d="M50.39,56.92l1-5H52l-.11,1h0a3.22,3.22,0,0,1,.69-.77,1.31,1.31,0,0,1,.85-.31,1.23,1.23,0,0,1,.47.09l-.28.7a1,1,0,0,0-.42-.08,1.22,1.22,0,0,0-.76.32,2.78,2.78,0,0,0-.7.94l-.61,3.15Z" transform="translate(-2.78 -3.65)" fill="#322f5b"/><path d="M55.78,56.91l.13-.66h1.42l1-4.91H57.14l.1-.52a3.65,3.65,0,0,0,1.43-.47h.6l-1.17,5.9h1.33l-.13.65Z" transform="translate(-2.78 -3.65)" fill="#322f5b"/><path d="M62.36,57a2.37,2.37,0,0,1-.7-.1,1.8,1.8,0,0,1-.6-.31,1.68,1.68,0,0,1-.44-.54,1.6,1.6,0,0,1-.17-.75,1.68,1.68,0,0,1,.13-.68,1.79,1.79,0,0,1,.33-.55,2.56,2.56,0,0,1,.49-.43,4,4,0,0,1,.57-.32v0a2.32,2.32,0,0,1-.44-.59,1.54,1.54,0,0,1-.15-.7,1.79,1.79,0,0,1,.15-.75A1.68,1.68,0,0,1,62,50.7a1.79,1.79,0,0,1,.61-.36,2.13,2.13,0,0,1,.72-.12,2,2,0,0,1,.6.09,1.34,1.34,0,0,1,.51.28,1.4,1.4,0,0,1,.36.47,1.6,1.6,0,0,1,.14.67,1.72,1.72,0,0,1-.35,1.1,3,3,0,0,1-.89.76v0l.3.24a2.22,2.22,0,0,1,.28.33,1.38,1.38,0,0,1,.21.42,1.28,1.28,0,0,1,.09.48,1.71,1.71,0,0,1-.18.8,1.87,1.87,0,0,1-.47.6,2.13,2.13,0,0,1-.69.39A2.53,2.53,0,0,1,62.36,57Zm0-.58a1.83,1.83,0,0,0,.52-.09,1.48,1.48,0,0,0,.44-.25,1.26,1.26,0,0,0,.32-.4,1.38,1.38,0,0,0,.11-.55,1.19,1.19,0,0,0-.11-.51,1.49,1.49,0,0,0-.33-.39,2.44,2.44,0,0,0-.47-.33c-.17-.11-.36-.21-.55-.31a3,3,0,0,0-.84.67,1.34,1.34,0,0,0-.32.95,1.29,1.29,0,0,0,.09.51,1.19,1.19,0,0,0,.27.38,1.09,1.09,0,0,0,.39.23A1.28,1.28,0,0,0,62.4,56.44Zm.83-3.09a2.93,2.93,0,0,0,.36-.28,2.58,2.58,0,0,0,.32-.34,1.77,1.77,0,0,0,.21-.41,1.27,1.27,0,0,0,.08-.48,1,1,0,0,0-.28-.76,1,1,0,0,0-.7-.27,1.16,1.16,0,0,0-.42.08,1,1,0,0,0-.36.23,1,1,0,0,0-.25.36,1.3,1.3,0,0,0-.09.49,1.17,1.17,0,0,0,.29.82A3,3,0,0,0,63.23,53.35Z" transform="translate(-2.78 -3.65)" fill="#322f5b"/><path d="M29.61,99.11l.67-1a2.12,2.12,0,0,0,1.4.64,1,1,0,0,0,1.09-1,.93.93,0,0,0-1-1,1.51,1.51,0,0,0-1,.33l-.67-.43.17-3.3H34v1.28H31.59l-.11,1.22a1.68,1.68,0,0,1,.73-.15,1.9,1.9,0,0,1,2.06,2A2.24,2.24,0,0,1,31.9,100,3.09,3.09,0,0,1,29.61,99.11Z" transform="translate(-2.78 -3.65)" fill="#322f5b"/><path d="M35,99.1l.67-1a2.09,2.09,0,0,0,1.4.65,1,1,0,0,0,1.09-1,.94.94,0,0,0-1-1,1.59,1.59,0,0,0-1,.34l-.67-.43.17-3.3H39.3v1.27H36.93l-.11,1.22a1.63,1.63,0,0,1,.72-.15,1.9,1.9,0,0,1,2.07,2A2.25,2.25,0,0,1,37.24,100,3.09,3.09,0,0,1,35,99.1Z" transform="translate(-2.78 -3.65)" fill="#322f5b"/><path d="M40.28,95.18c0-1.34.69-2.12,1.65-2.12s1.66.77,1.66,2.11-.7,2.14-1.65,2.14S40.28,96.52,40.28,95.18Zm2.26,0c0-1-.28-1.27-.61-1.27s-.61.32-.61,1.27.28,1.3.61,1.3S42.54,96.13,42.54,95.17Zm3.2-2.12h.86L43,100h-.86Zm-.55,4.81c0-1.34.69-2.12,1.64-2.12s1.67.77,1.67,2.11S47.8,100,46.84,100,45.19,99.2,45.19,97.86Zm2.26,0c0-.95-.28-1.27-.61-1.27s-.61.32-.61,1.27.28,1.3.61,1.3S47.45,98.81,47.45,97.85Z" transform="translate(-2.78 -3.65)" fill="#322f5b"/><path d="M51.13,99.86l1.32-6.75h.79L52.68,96h3l.57-2.85H57l-1.32,6.75h-.79l.63-3.21h-3l-.63,3.2Z" transform="translate(-2.78 -3.65)" fill="#322f5b"/><path d="M58.87,100a1.28,1.28,0,0,1-1-.46,2,2,0,0,1-.39-1.34,4,4,0,0,1,.22-1.35,3.69,3.69,0,0,1,.6-1.09,2.93,2.93,0,0,1,.85-.73,2,2,0,0,1,1-.27,1.31,1.31,0,0,1,.71.2,1.35,1.35,0,0,1,.48.55h0l.2-.63h.63l-1,5h-.64l.08-.74h0a2.93,2.93,0,0,1-.8.62A1.94,1.94,0,0,1,58.87,100Zm.28-.65a1.64,1.64,0,0,0,.79-.24,2.45,2.45,0,0,0,.77-.72l.44-2.24a1.59,1.59,0,0,0-.47-.56,1,1,0,0,0-.54-.17,1.29,1.29,0,0,0-.71.22,2.27,2.27,0,0,0-.61.59,2.93,2.93,0,0,0-.42.85,3,3,0,0,0-.16,1,1.65,1.65,0,0,0,.25,1A.8.8,0,0,0,59.15,99.31Z" transform="translate(-2.78 -3.65)" fill="#322f5b"/><path d="M63.77,99.83l-.73-5h.77l.37,2.89c0,.24,0,.49.07.75s0,.5.08.74h0c.11-.25.23-.49.35-.74l.38-.75,1.45-2.89h.78l-2.62,5Z" transform="translate(-2.78 -3.65)" fill="#322f5b"/><path d="M67.25,97.86a3.37,3.37,0,0,1,.23-1.29,3.41,3.41,0,0,1,.6-1,2.61,2.61,0,0,1,.85-.64,2.06,2.06,0,0,1,1-.23,1.55,1.55,0,0,1,.71.14,1.23,1.23,0,0,1,.47.37,1.63,1.63,0,0,1,.27.58,3.22,3.22,0,0,1,.08.71,2.62,2.62,0,0,1-.06.57c0,.18-.08.31-.11.41H68a2.46,2.46,0,0,0,0,.82,1.39,1.39,0,0,0,.28.57,1.09,1.09,0,0,0,.46.33,1.64,1.64,0,0,0,.6.1,1.4,1.4,0,0,0,.59-.13,2.43,2.43,0,0,0,.52-.3l.31.52a3,3,0,0,1-.71.38,2.35,2.35,0,0,1-.89.16,1.9,1.9,0,0,1-1.42-.54A2.1,2.1,0,0,1,67.25,97.86Zm.86-.91h2.6a1.87,1.87,0,0,1,0-.25c0-.08,0-.17,0-.27a1.84,1.84,0,0,0-.05-.41,1.09,1.09,0,0,0-.17-.36.76.76,0,0,0-.29-.24.88.88,0,0,0-.45-.1,1.5,1.5,0,0,0-.54.12,1.87,1.87,0,0,0-.48.33,2.58,2.58,0,0,0-.4.51A2.48,2.48,0,0,0,68.11,97Z" transform="translate(-2.78 -3.65)" fill="#322f5b"/><path d="M31.61,113.24a1.76,1.76,0,0,1-1.32-.52,2,2,0,0,1-.51-1.48A3.57,3.57,0,0,1,30,110a3.2,3.2,0,0,1,.61-1,3.06,3.06,0,0,1,.88-.68,2.37,2.37,0,0,1,1-.24,1.46,1.46,0,0,1,.75.17,2,2,0,0,1,.53.43l-.46.49a1.63,1.63,0,0,0-.38-.34,1,1,0,0,0-.49-.11,1.37,1.37,0,0,0-.72.21,2.26,2.26,0,0,0-.61.55,2.84,2.84,0,0,0-.43.81,3.14,3.14,0,0,0-.15,1,1.62,1.62,0,0,0,.29,1,1.06,1.06,0,0,0,.88.36,1.47,1.47,0,0,0,.6-.13,4.19,4.19,0,0,0,.5-.31l.35.51a4.29,4.29,0,0,1-.65.4A2.22,2.22,0,0,1,31.61,113.24Z" transform="translate(-2.78 -3.65)" fill="#322f5b"/><path d="M34,113.11l1.43-7.32h.79l-.48,2.41-.17.63h0a6.64,6.64,0,0,1,.84-.6,1.67,1.67,0,0,1,.86-.24,1.09,1.09,0,0,1,.91.32,1.4,1.4,0,0,1,.27.92c0,.11,0,.22,0,.32a2.7,2.7,0,0,1-.06.36l-.63,3.19h-.77l.6-3.08q0-.21.06-.33a1.1,1.1,0,0,0,0-.26.81.81,0,0,0-.17-.57.72.72,0,0,0-.56-.2,1.35,1.35,0,0,0-.66.22,4.83,4.83,0,0,0-.83.69l-.69,3.54Z" transform="translate(-2.78 -3.65)" fill="#322f5b"/><path d="M39.26,113.1l1-5H41l-1,5Zm1.64-6a.56.56,0,0,1-.36-.12.42.42,0,0,1-.14-.34.61.61,0,0,1,.17-.43A.61.61,0,0,1,41,106a.51.51,0,0,1,.35.13.41.41,0,0,1,.15.34.55.55,0,0,1-.18.43A.59.59,0,0,1,40.9,107.06Z" transform="translate(-2.78 -3.65)" fill="#322f5b"/><path d="M42.35,113.21a.58.58,0,0,1-.67-.64,2.07,2.07,0,0,1,.06-.43L43,105.77h.79l-1.26,6.41a.3.3,0,0,0,0,.12v.07c0,.13.06.19.17.19h.06l.1,0v.61a.65.65,0,0,1-.21.06A1.1,1.1,0,0,1,42.35,113.21Z" transform="translate(-2.78 -3.65)" fill="#322f5b"/><path d="M47.91,108.69l.16-1,.38-1.95h.79l-1.45,7.32h-.65l.08-.74h0a2.86,2.86,0,0,1-.8.63,1.91,1.91,0,0,1-.92.24,1.32,1.32,0,0,1-1-.46A2.05,2.05,0,0,1,44,111.4a4.14,4.14,0,0,1,.22-1.34,3.75,3.75,0,0,1,.6-1.1,3.13,3.13,0,0,1,.86-.73,2,2,0,0,1,1-.27,1.25,1.25,0,0,1,.7.2,1.63,1.63,0,0,1,.48.53Zm-2.16,3.86a1.56,1.56,0,0,0,.78-.23,2.75,2.75,0,0,0,.77-.73l.45-2.23a1.74,1.74,0,0,0-.47-.57,1,1,0,0,0-.54-.17,1.38,1.38,0,0,0-.72.22,2.31,2.31,0,0,0-.61.6,3.47,3.47,0,0,0-.42.84,3.32,3.32,0,0,0-.15,1,1.58,1.58,0,0,0,.24,1A.81.81,0,0,0,45.75,112.55Z" transform="translate(-2.78 -3.65)" fill="#322f5b"/><path d="M49.32,113.08l1-5h.64l-.11,1h0a3.42,3.42,0,0,1,.69-.77,1.37,1.37,0,0,1,.85-.31,1.23,1.23,0,0,1,.47.09l-.28.7a1,1,0,0,0-.42-.08,1.22,1.22,0,0,0-.76.32,2.88,2.88,0,0,0-.7.94l-.61,3.15Z" transform="translate(-2.78 -3.65)" fill="#322f5b"/><path d="M52.75,111.11a3.49,3.49,0,0,1,.23-1.29,3.43,3.43,0,0,1,.61-1,2.61,2.61,0,0,1,.84-.65,2.24,2.24,0,0,1,1-.22,1.67,1.67,0,0,1,.71.13,1.37,1.37,0,0,1,.48.38,1.47,1.47,0,0,1,.26.58,2.71,2.71,0,0,1,.08.71,2.13,2.13,0,0,1-.05.57c0,.17-.08.31-.12.41H53.53a2.25,2.25,0,0,0,0,.83,1.26,1.26,0,0,0,.27.57,1.09,1.09,0,0,0,.46.33,1.72,1.72,0,0,0,.6.1,1.37,1.37,0,0,0,.59-.13,3.22,3.22,0,0,0,.52-.3l.31.52a3.54,3.54,0,0,1-.7.38,2.57,2.57,0,0,1-.9.16,1.91,1.91,0,0,1-1.42-.54A2.12,2.12,0,0,1,52.75,111.11Zm.87-.91h2.59a2,2,0,0,0,0-.24,2.35,2.35,0,0,0,0-.27,1.51,1.51,0,0,0,0-.42,1,1,0,0,0-.16-.35.91.91,0,0,0-.3-.25,1,1,0,0,0-.45-.09,1.24,1.24,0,0,0-.53.12,1.38,1.38,0,0,0-.48.33,2.35,2.35,0,0,0-.41.51A2.67,2.67,0,0,0,53.62,110.2Z" transform="translate(-2.78 -3.65)" fill="#322f5b"/><path d="M57.55,113.06l1-5h.64l-.07.75h0a6.28,6.28,0,0,1,.85-.62,1.67,1.67,0,0,1,.88-.26,1.14,1.14,0,0,1,.91.33,1.39,1.39,0,0,1,.27.91,3.25,3.25,0,0,1,0,.33,2.7,2.7,0,0,1-.06.36l-.63,3.19h-.77l.6-3.08q0-.21.06-.33a1.1,1.1,0,0,0,0-.26.86.86,0,0,0-.17-.57.72.72,0,0,0-.56-.2,1.35,1.35,0,0,0-.66.22,4.11,4.11,0,0,0-.83.69l-.69,3.54Z" transform="translate(-2.78 -3.65)" fill="#322f5b"/><path d="M69.57,108l-1,5H68l.08-.77h0a5.35,5.35,0,0,1-.83.63,1.67,1.67,0,0,1-.88.26,1.1,1.1,0,0,1-.9-.33,1.39,1.39,0,0,1-.27-.91c0-.11,0-.22,0-.33a2,2,0,0,1,.07-.36l.62-3.18h.79L66,111.13q0,.21-.06.33a2,2,0,0,0,0,.25.82.82,0,0,0,.18.58.7.7,0,0,0,.56.19,1.33,1.33,0,0,0,.65-.21,4.52,4.52,0,0,0,.81-.69l.7-3.54Z" transform="translate(-2.78 -3.65)" fill="#322f5b"/><path d="M70.14,113l1-5h.64l-.07.75h0a7.28,7.28,0,0,1,.85-.62,1.66,1.66,0,0,1,.88-.25,1.13,1.13,0,0,1,.91.32,1.42,1.42,0,0,1,.27.92c0,.11,0,.22,0,.33a3.35,3.35,0,0,1-.06.36L73.92,113h-.77l.6-3.08q0-.21.06-.33a1.1,1.1,0,0,0,0-.26.86.86,0,0,0-.17-.57.72.72,0,0,0-.56-.2,1.35,1.35,0,0,0-.66.22,4.92,4.92,0,0,0-.83.69L70.92,113Z" transform="translate(-2.78 -3.65)" fill="#322f5b"/><path d="M79.37,108.62l.16-1,.39-2h.78L79.25,113h-.64l.08-.74h0a3.05,3.05,0,0,1-.81.63,1.91,1.91,0,0,1-.91.24,1.28,1.28,0,0,1-1-.46,2.05,2.05,0,0,1-.39-1.35,3.92,3.92,0,0,1,.22-1.34,3.69,3.69,0,0,1,.6-1.09,2.78,2.78,0,0,1,.85-.73,2,2,0,0,1,1-.27,1.23,1.23,0,0,1,.69.19,1.53,1.53,0,0,1,.48.53Zm-2.16,3.86a1.56,1.56,0,0,0,.78-.23,2.77,2.77,0,0,0,.78-.73l.44-2.23a1.5,1.5,0,0,0-.47-.56.92.92,0,0,0-.54-.18,1.3,1.3,0,0,0-.71.23,2,2,0,0,0-.61.59,2.93,2.93,0,0,0-.42.85,3,3,0,0,0-.16,1,1.51,1.51,0,0,0,.25,1A.78.78,0,0,0,77.21,112.48Z" transform="translate(-2.78 -3.65)" fill="#322f5b"/><path d="M80.84,111a3.37,3.37,0,0,1,.24-1.29,3.16,3.16,0,0,1,.6-1,2.72,2.72,0,0,1,.84-.65,2.26,2.26,0,0,1,1-.23,1.65,1.65,0,0,1,.7.14,1.21,1.21,0,0,1,.48.38,1.49,1.49,0,0,1,.26.57,2.84,2.84,0,0,1,.09.72,2.47,2.47,0,0,1-.06.56c0,.18-.08.32-.11.42H81.63a2.07,2.07,0,0,0,0,.83,1.26,1.26,0,0,0,.27.57,1.12,1.12,0,0,0,.47.33,1.64,1.64,0,0,0,.6.1,1.36,1.36,0,0,0,.58-.13,2.73,2.73,0,0,0,.53-.31l.3.53a2.88,2.88,0,0,1-.7.37,2.57,2.57,0,0,1-.9.17,1.88,1.88,0,0,1-1.41-.54A2.13,2.13,0,0,1,80.84,111Zm.87-.9h2.6l0-.24a2.45,2.45,0,0,0,0-.27,2,2,0,0,0-.06-.42,1,1,0,0,0-.16-.35.82.82,0,0,0-.3-.25,1,1,0,0,0-.44-.09,1.41,1.41,0,0,0-.54.11,1.69,1.69,0,0,0-.48.34,2.06,2.06,0,0,0-.4.51A2.35,2.35,0,0,0,81.71,110.14Z" transform="translate(-2.78 -3.65)" fill="#322f5b"/><path d="M85.65,113l1-5h.65l-.11,1h0a3.16,3.16,0,0,1,.68-.77,1.39,1.39,0,0,1,.85-.31,1.19,1.19,0,0,1,.47.09l-.27.7a1,1,0,0,0-.43-.08,1.18,1.18,0,0,0-.75.32,2.85,2.85,0,0,0-.7.94L86.42,113Z" transform="translate(-2.78 -3.65)" fill="#322f5b"/><path d="M91,113l.14-.66h1.41l1-4.91H92.4l.1-.51a3.65,3.65,0,0,0,1.42-.48h.6l-1.16,5.9h1.32l-.12.66Z" transform="translate(-2.78 -3.65)" fill="#322f5b"/><path d="M97.61,113.09a2.3,2.3,0,0,1-.69-.1,1.85,1.85,0,0,1-.61-.31,1.6,1.6,0,0,1-.43-.53,1.55,1.55,0,0,1-.17-.76,1.91,1.91,0,0,1,.12-.68,2.16,2.16,0,0,1,.82-1,2.68,2.68,0,0,1,.57-.32v0a2.21,2.21,0,0,1-.43-.59,1.61,1.61,0,0,1-.15-.71,1.79,1.79,0,0,1,.15-.75,1.66,1.66,0,0,1,.41-.56,2,2,0,0,1,1.34-.48,2,2,0,0,1,.59.09,1.53,1.53,0,0,1,.52.28,1.44,1.44,0,0,1,.36.48,1.7,1.7,0,0,1,.13.67,1.74,1.74,0,0,1-.34,1.1,3.19,3.19,0,0,1-.9.75v0a2.21,2.21,0,0,1,.3.25,1.78,1.78,0,0,1,.29.32,2.74,2.74,0,0,1,.21.42,1.57,1.57,0,0,1,.08.49,1.77,1.77,0,0,1-.18.8,1.82,1.82,0,0,1-.47.6,2.19,2.19,0,0,1-.69.38A2.49,2.49,0,0,1,97.61,113.09Zm0-.58a1.54,1.54,0,0,0,.52-.09,1.66,1.66,0,0,0,.45-.25,1.13,1.13,0,0,0,.31-.4,1.2,1.2,0,0,0,.12-.55,1,1,0,0,0-.12-.5,1.52,1.52,0,0,0-.32-.4,3.28,3.28,0,0,0-.47-.33l-.55-.31a3.28,3.28,0,0,0-.85.67,1.46,1.46,0,0,0-.32,1,1.19,1.19,0,0,0,.1.51,1.08,1.08,0,0,0,.26.37,1.41,1.41,0,0,0,.39.24A1.51,1.51,0,0,0,97.65,112.51Zm.83-3.09a2.93,2.93,0,0,0,.36-.28,1.72,1.72,0,0,0,.32-.34,2,2,0,0,0,.22-.41,1.51,1.51,0,0,0,.08-.48,1,1,0,0,0-.28-.76,1,1,0,0,0-.7-.27,1.26,1.26,0,0,0-.43.08,1,1,0,0,0-.36.23,1,1,0,0,0-.25.36,1.3,1.3,0,0,0-.09.49,1.13,1.13,0,0,0,.3.82A2.61,2.61,0,0,0,98.48,109.42Z" transform="translate(-2.78 -3.65)" fill="#322f5b"/><line y1="69.79" x2="22.93" y2="69.74" fill="none" stroke="#fff" stroke-miterlimit="10" stroke-width="0.73"/></svg>