<svg id="gender" xmlns="http://www.w3.org/2000/svg" xmlns:xlink="http://www.w3.org/1999/xlink" viewBox="0 0 91.59 158.58"><defs><clipPath id="clip-path" transform="translate(-3.39 -3.66)"><rect x="4.55" y="21.7" width="18.54" height="56.19" fill="none"/></clipPath><clipPath id="clip-path-2" transform="translate(-3.39 -3.66)"><rect x="4.62" y="21.72" width="18.42" height="56.15" transform="translate(-0.11 0.03) rotate(-0.13)" fill="none"/></clipPath><clipPath id="clip-path-3" transform="translate(-3.39 -3.66)"><rect x="4.68" y="77.85" width="18.54" height="54.34" fill="none"/></clipPath><clipPath id="clip-path-4" transform="translate(-3.39 -3.66)"><rect x="4.74" y="77.87" width="18.42" height="54.3" transform="translate(-0.23 0.03) rotate(-0.12)" fill="none"/></clipPath></defs><title>gender</title><path d="M4.8,133.31a.73.73,0,0,0,.73.73l17,0a.73.73,0,0,0,.73-.73v-1.12l-18.42,0Z" transform="translate(-3.39 -3.66)" fill="#322f5b"/><g opacity="0.6"><g clip-path="url(#clip-path)"><g clip-path="url(#clip-path-2)"><path d="M23.09,72.12,23,27.31V22.43a.73.73,0,0,0-.73-.73l-17,0a.73.73,0,0,0-.72.73v4.88l.1,44.81v5.73l18.42,0Z" transform="translate(-3.39 -3.66)" fill="#322f5b"/></g></g></g><g opacity="0.8"><g clip-path="url(#clip-path-3)"><g clip-path="url(#clip-path-4)"><polygon points="19.81 121.36 19.81 119.43 19.79 111.25 19.79 110.12 19.78 107.88 19.77 103.39 19.76 97.59 19.72 77.88 19.71 74.19 1.29 74.23 1.3 77.92 1.34 97.63 1.35 103.43 1.36 107.92 1.37 110.17 1.37 111.29 1.39 119.47 1.39 121.39 1.4 123.64 1.41 128.52 19.83 128.48 19.82 123.6 19.81 121.36" fill="#322f5b"/></g></g></g><path d="M3.71,7.88A3.22,3.22,0,0,1,6.94,4.36,2.87,2.87,0,0,1,9,5.23l-.78,1A1.81,1.81,0,0,0,7,5.66c-1,0-1.75.82-1.74,2.16S5.87,10,7.12,10a1.27,1.27,0,0,0,.71-.21V8.64H6.73V7.41H9.15v3.08A3.17,3.17,0,0,1,7,11.3,3.12,3.12,0,0,1,3.71,7.88Z" transform="translate(-3.39 -3.66)" fill="#e24329"/><path d="M10.15,8.62A2.48,2.48,0,0,1,12.52,6c1.44,0,2.16,1,2.16,2.44a3.37,3.37,0,0,1-.06.66h-3a1.24,1.24,0,0,0,1.32,1.08A2.05,2.05,0,0,0,14,9.8l.5.91a3.28,3.28,0,0,1-1.79.58A2.47,2.47,0,0,1,10.15,8.62Zm3.26-.56c0-.56-.25-1-.85-1a1,1,0,0,0-1,1Z" transform="translate(-3.39 -3.66)" fill="#e24329"/><path d="M15.71,6.06h1.23l.1.65h0a2.39,2.39,0,0,1,1.62-.78c1.1,0,1.57.78,1.57,2.05v3.17h-1.5v-3c0-.74-.19-1-.62-1a1.31,1.31,0,0,0-.94.49v3.44h-1.5Z" transform="translate(-3.39 -3.66)" fill="#e24329"/><path d="M21.28,8.6c0-1.66,1-2.67,2.09-2.68a1.67,1.67,0,0,1,1.25.54l-.07-.78V3.94h1.5v7.2H24.84l-.1-.5h0a2,2,0,0,1-1.35.62C22.1,11.27,21.28,10.26,21.28,8.6Zm3.28,1V7.48a1.18,1.18,0,0,0-.84-.32c-.48,0-.9.45-.9,1.41s.34,1.46.92,1.46A.94.94,0,0,0,24.56,9.57Z" transform="translate(-3.39 -3.66)" fill="#e24329"/><path d="M27.07,8.59a2.5,2.5,0,0,1,2.38-2.68,2.14,2.14,0,0,1,2.16,2.44,3.49,3.49,0,0,1-.06.67h-3a1.24,1.24,0,0,0,1.32,1.08,2,2,0,0,0,1.09-.34l.5.91a3.28,3.28,0,0,1-1.79.58A2.48,2.48,0,0,1,27.07,8.59ZM30.33,8c0-.56-.24-1-.84-1a1,1,0,0,0-1,1Z" transform="translate(-3.39 -3.66)" fill="#e24329"/><path d="M32.65,6h1.22l.11.9h0a1.68,1.68,0,0,1,1.43-1,1.53,1.53,0,0,1,.61.1l-.25,1.3a1.87,1.87,0,0,0-.55-.08,1.27,1.27,0,0,0-1.11.94v3h-1.5Z" transform="translate(-3.39 -3.66)" fill="#e24329"/><path d="M38.3,10.52,39,9.58a2.17,2.17,0,0,0,1.31.53c.45,0,.64-.17.64-.44s-.51-.49-1-.69-1.34-.66-1.34-1.5.76-1.59,1.93-1.59a2.89,2.89,0,0,1,1.79.64l-.67.91A1.86,1.86,0,0,0,40.53,7c-.39,0-.57.14-.57.4s.47.45,1,.64,1.37.6,1.37,1.53-.72,1.64-2.08,1.65A3.27,3.27,0,0,1,38.3,10.52Z" transform="translate(-3.39 -3.66)" fill="#e24329"/><path d="M43.26,6h1.23l.1.5h0a2.28,2.28,0,0,1,1.44-.63c1.22,0,2,1,2,2.59,0,1.74-1,2.75-2.12,2.75a1.71,1.71,0,0,1-1.21-.53l.05.81V13h-1.5Zm3.25,2.48c0-.91-.28-1.37-.88-1.37a1.15,1.15,0,0,0-.86.46V9.66a1.19,1.19,0,0,0,.81.32C46.1,10,46.51,9.53,46.51,8.48Z" transform="translate(-3.39 -3.66)" fill="#e24329"/><path d="M49.1,9.5V3.89h1.5V9.56c0,.32.14.42.26.42a.68.68,0,0,0,.19,0l.18,1.12a2,2,0,0,1-.75.12C49.45,11.21,49.1,10.53,49.1,9.5Z" transform="translate(-3.39 -3.66)" fill="#e24329"/><path d="M51.89,4.44a.87.87,0,1,1,.87.79A.8.8,0,0,1,51.89,4.44ZM52,6h1.5v5.09H52Z" transform="translate(-3.39 -3.66)" fill="#e24329"/><path d="M55,9.22V7.16h-.69V6L55.08,6l.17-1.36h1.24V6h1.21V7.15H56.5v2c0,.57.26.81.66.81a1.46,1.46,0,0,0,.48-.1L57.87,11a3.34,3.34,0,0,1-1.12.19C55.5,11.19,55,10.4,55,9.22Z" transform="translate(-3.39 -3.66)" fill="#e24329"/><path d="M30.11,51.61l.67-1a2.08,2.08,0,0,0,1.4.64,1,1,0,0,0,1.09-1,.93.93,0,0,0-1-1,1.51,1.51,0,0,0-1,.33l-.67-.43.17-3.3h3.67v1.27H32.09L32,48.37a1.52,1.52,0,0,1,.72-.16,1.91,1.91,0,0,1,2.07,2,2.24,2.24,0,0,1-2.37,2.28A3,3,0,0,1,30.11,51.61Z" transform="translate(-3.39 -3.66)" fill="#322f5b"/><path d="M35.65,49.1c0-2.22.92-3.36,2.3-3.37s2.32,1.14,2.33,3.36S39.35,52.5,38,52.5,35.65,51.32,35.65,49.1Zm3.21,0c0-1.79-.39-2.19-.9-2.18s-.9.4-.9,2.18.41,2.24.91,2.24S38.86,50.87,38.86,49.09Z" transform="translate(-3.39 -3.66)" fill="#322f5b"/><path d="M41,47.67c0-1.34.69-2.12,1.65-2.12s1.66.78,1.67,2.11-.7,2.14-1.66,2.14S41,49,41,47.67Zm2.27,0c0-.95-.28-1.27-.62-1.27s-.61.32-.61,1.28.28,1.29.62,1.29S43.28,48.62,43.28,47.66Zm3.19-2.12h.87l-3.57,7H42.9Zm-.55,4.81c0-1.34.69-2.12,1.65-2.12s1.66.78,1.66,2.11-.69,2.14-1.65,2.14S45.92,51.69,45.92,50.35Zm2.26,0c0-1-.27-1.27-.61-1.27s-.61.32-.61,1.28.28,1.29.62,1.29S48.19,51.3,48.18,50.34Z" transform="translate(-3.39 -3.66)" fill="#322f5b"/><path d="M51.89,52.35l1.32-6.75h.95l.58,3.64.23,1.4h0l.71-1.4,2-3.64h.95l-1.32,6.75h-.77l.77-3.8c.06-.31.13-.65.22-1s.17-.68.25-1h0l-.8,1.5-2,3.58h-.44l-.63-3.57-.23-1.5h0c0,.31-.08.64-.13,1s-.1.69-.15,1l-.75,3.81Z" transform="translate(-3.39 -3.66)" fill="#322f5b"/><path d="M60.48,52.45a1.26,1.26,0,0,1-1-.46,2,2,0,0,1-.39-1.34,3.75,3.75,0,0,1,.22-1.35,3.69,3.69,0,0,1,.6-1.09,2.93,2.93,0,0,1,.85-.73,2,2,0,0,1,1-.27,1.33,1.33,0,0,1,.71.2,1.51,1.51,0,0,1,.48.55h0l.19-.63h.63l-1,5h-.64l.08-.74h0a3.05,3.05,0,0,1-.81.63A2,2,0,0,1,60.48,52.45Zm.28-.65a1.54,1.54,0,0,0,.79-.24,2.56,2.56,0,0,0,.77-.72l.44-2.23a1.63,1.63,0,0,0-.47-.57,1,1,0,0,0-.54-.17,1.26,1.26,0,0,0-.71.22,2.28,2.28,0,0,0-.61.59,2.93,2.93,0,0,0-.42.85,3,3,0,0,0-.16,1,1.51,1.51,0,0,0,.25,1A.79.79,0,0,0,60.76,51.8Z" transform="translate(-3.39 -3.66)" fill="#322f5b"/><path d="M65.13,52.44a.66.66,0,0,1-.49-.16.64.64,0,0,1-.17-.48,2,2,0,0,1,.06-.43L65.77,45h.78l-1.26,6.4a1.05,1.05,0,0,0,0,.13v.07c0,.12.06.19.17.19h.07l.1,0v.61l-.21.06A1.19,1.19,0,0,1,65.13,52.44Z" transform="translate(-3.39 -3.66)" fill="#322f5b"/><path d="M66.81,50.35A3.37,3.37,0,0,1,67,49.06a3.16,3.16,0,0,1,.6-1,2.64,2.64,0,0,1,.85-.65,2.19,2.19,0,0,1,1-.23,1.7,1.7,0,0,1,.71.14,1.26,1.26,0,0,1,.47.38,1.67,1.67,0,0,1,.27.57A3.31,3.31,0,0,1,71,49a2.47,2.47,0,0,1-.06.56c0,.18-.08.32-.11.42H67.59a2.28,2.28,0,0,0,0,.83,1.51,1.51,0,0,0,.27.57,1.12,1.12,0,0,0,.47.33,1.89,1.89,0,0,0,.6.1,1.33,1.33,0,0,0,.58-.13,2.73,2.73,0,0,0,.53-.31l.3.53a2.88,2.88,0,0,1-.7.37,2.35,2.35,0,0,1-.89.17,1.9,1.9,0,0,1-1.42-.54A2.12,2.12,0,0,1,66.81,50.35Zm.86-.9h2.6l0-.24a2.45,2.45,0,0,0,0-.27,1.93,1.93,0,0,0,0-.42,1,1,0,0,0-.17-.35.79.79,0,0,0-.29-.25,1.06,1.06,0,0,0-.45-.09,1.45,1.45,0,0,0-.54.11,1.87,1.87,0,0,0-.48.33,2.65,2.65,0,0,0-.4.52A2.35,2.35,0,0,0,67.67,49.45Z" transform="translate(-3.39 -3.66)" fill="#322f5b"/><path d="M30.78,136.5h1.4v-3.77H31v-.94a4.59,4.59,0,0,0,1.61-.59h1.1v5.3h1.21v1.22H30.78Z" transform="translate(-3.39 -3.66)" fill="#322f5b"/><path d="M35.22,133c0-1.34.69-2.12,1.65-2.12s1.66.78,1.66,2.11-.7,2.14-1.65,2.14S35.22,134.35,35.22,133Zm2.26,0c0-.95-.28-1.27-.61-1.27s-.61.32-.61,1.27.28,1.3.61,1.3S37.48,134,37.48,133Zm3.2-2.12h.86l-3.57,7h-.86Zm-.55,4.81c0-1.34.69-2.12,1.64-2.12s1.67.77,1.67,2.11-.7,2.14-1.66,2.14S40.13,137,40.13,135.69Zm2.26,0c0-1-.28-1.27-.61-1.27s-.61.32-.61,1.27.28,1.3.61,1.3S42.39,136.64,42.39,135.68Z" transform="translate(-3.39 -3.66)" fill="#322f5b"/><path d="M46.08,137.69l1.32-6.75h.79l1.54,4.31.43,1.41h0c0-.34.08-.69.13-1.07s.1-.73.17-1.08l.7-3.58H52l-1.32,6.75h-.78l-1.52-4.3-.44-1.45h0c0,.35-.09.7-.14,1.07s-.11.71-.17,1.05l-.71,3.63Z" transform="translate(-3.39 -3.66)" fill="#322f5b"/><path d="M54.13,137.79a1.63,1.63,0,0,1-1.29-.53,2.12,2.12,0,0,1-.48-1.47,3.62,3.62,0,0,1,.22-1.3,3.36,3.36,0,0,1,.6-1,2.86,2.86,0,0,1,.85-.67,2.19,2.19,0,0,1,1-.24,1.63,1.63,0,0,1,1.29.53,2.12,2.12,0,0,1,.49,1.47,3.62,3.62,0,0,1-.23,1.3,3.36,3.36,0,0,1-.6,1,2.86,2.86,0,0,1-.85.67A2.22,2.22,0,0,1,54.13,137.79Zm.08-.66a1.16,1.16,0,0,0,.66-.2,2,2,0,0,0,.58-.54,2.61,2.61,0,0,0,.4-.8,3.21,3.21,0,0,0,.15-1,1.72,1.72,0,0,0-.27-1,.92.92,0,0,0-.79-.36,1.21,1.21,0,0,0-.66.2,2,2,0,0,0-.58.54,2.8,2.8,0,0,0-.41.81,3.21,3.21,0,0,0-.15,1,1.65,1.65,0,0,0,.28,1A.94.94,0,0,0,54.21,137.13Z" transform="translate(-3.39 -3.66)" fill="#322f5b"/><path d="M57.46,137.66l1-5h.64l-.06.75h0a6.46,6.46,0,0,1,.84-.62,1.67,1.67,0,0,1,.89-.25,1.1,1.1,0,0,1,.9.32,1.42,1.42,0,0,1,.27.92c0,.11,0,.22,0,.33a3.35,3.35,0,0,1-.06.36l-.63,3.18h-.77l.6-3.08c0-.14,0-.25.07-.33a2.11,2.11,0,0,0,0-.26.86.86,0,0,0-.18-.57.72.72,0,0,0-.56-.2,1.35,1.35,0,0,0-.66.22,4.9,4.9,0,0,0-.82.69l-.7,3.54Z" transform="translate(-3.39 -3.66)" fill="#322f5b"/><path d="M65.4,137.64h-.64l1.43-7.31H67l-.39,2-.22,1h0a4.69,4.69,0,0,1,.79-.52,1.89,1.89,0,0,1,.89-.22,1.29,1.29,0,0,1,1,.46,2.05,2.05,0,0,1,.39,1.35,3.92,3.92,0,0,1-.22,1.34,3.69,3.69,0,0,1-.6,1.09,2.67,2.67,0,0,1-.85.73,2,2,0,0,1-1,.27,1.23,1.23,0,0,1-.71-.2,1.49,1.49,0,0,1-.49-.54h0Zm2.37-4.46a1.55,1.55,0,0,0-.75.22,2.83,2.83,0,0,0-.77.59l-.46,2.38a1.39,1.39,0,0,0,.45.56,1,1,0,0,0,.55.18,1.31,1.31,0,0,0,.72-.23,2,2,0,0,0,.6-.59,3.55,3.55,0,0,0,.42-.85,3.32,3.32,0,0,0,.15-1,1.56,1.56,0,0,0-.24-.95A.79.79,0,0,0,67.77,133.18Z" transform="translate(-3.39 -3.66)" fill="#322f5b"/><path d="M70.16,137.63l1-5h.79l-1,5Zm1.63-6a.55.55,0,0,1-.35-.12.41.41,0,0,1-.15-.34.57.57,0,0,1,.18-.43.6.6,0,0,1,.41-.17.56.56,0,0,1,.36.12.45.45,0,0,1,.14.35.57.57,0,0,1-.17.42A.61.61,0,0,1,71.79,131.6Z" transform="translate(-3.39 -3.66)" fill="#322f5b"/><path d="M72.48,137.63l1-5h.64l-.07.75h0a5.47,5.47,0,0,1,.84-.62,1.7,1.7,0,0,1,.89-.26,1.1,1.1,0,0,1,.9.33,1.39,1.39,0,0,1,.27.91c0,.12,0,.23,0,.33a1.75,1.75,0,0,1-.07.36l-.62,3.19h-.78l.61-3.08q0-.21.06-.33a2.11,2.11,0,0,0,0-.26.86.86,0,0,0-.17-.57.74.74,0,0,0-.57-.2,1.26,1.26,0,0,0-.65.22,4.11,4.11,0,0,0-.83.69l-.7,3.54Z" transform="translate(-3.39 -3.66)" fill="#322f5b"/><path d="M79.26,137.74a1.32,1.32,0,0,1-1-.46,2.17,2.17,0,0,1-.39-1.35,4,4,0,0,1,.23-1.35,3.57,3.57,0,0,1,.59-1.09,3.13,3.13,0,0,1,.86-.73,2,2,0,0,1,1-.27,1.2,1.2,0,0,1,.7.21,1.35,1.35,0,0,1,.49.54h0l.19-.63h.63l-1,5h-.65l.08-.74h0a2.86,2.86,0,0,1-.8.63A1.91,1.91,0,0,1,79.26,137.74Zm.29-.66a1.62,1.62,0,0,0,.79-.23,2.72,2.72,0,0,0,.76-.73l.45-2.23a1.74,1.74,0,0,0-.47-.57,1,1,0,0,0-.54-.17,1.34,1.34,0,0,0-.71.22,2.14,2.14,0,0,0-.61.59,3.39,3.39,0,0,0-.43.85,3.32,3.32,0,0,0-.15,1,1.51,1.51,0,0,0,.25,1A.81.81,0,0,0,79.55,137.08Z" transform="translate(-3.39 -3.66)" fill="#322f5b"/><path d="M83.12,137.6l1-5h.64l-.11.95h0a3.22,3.22,0,0,1,.69-.77,1.31,1.31,0,0,1,.85-.31,1.19,1.19,0,0,1,.47.09l-.28.7a1,1,0,0,0-.42-.08,1.22,1.22,0,0,0-.76.32,3,3,0,0,0-.7.94l-.61,3.15Z" transform="translate(-3.39 -3.66)" fill="#322f5b"/><path d="M86.51,139.75a1,1,0,0,1-.27,0,.73.73,0,0,1-.3-.11l.25-.58a.87.87,0,0,0,.37.09,1.06,1.06,0,0,0,.71-.31,2.89,2.89,0,0,0,.58-.84l.18-.36-.85-5H88l.4,2.81c0,.22.06.47.09.73s0,.51.07.75h0c.12-.24.24-.48.36-.74l.37-.75,1.42-2.81h.78L88.57,138a5.68,5.68,0,0,1-.4.69,3.11,3.11,0,0,1-.46.54,2,2,0,0,1-.55.37A1.68,1.68,0,0,1,86.51,139.75Z" transform="translate(-3.39 -3.66)" fill="#322f5b"/><path d="M90,139.23l4.4-8.94H95l-4.42,8.95Z" transform="translate(-3.39 -3.66)" fill="#322f5b"/><path d="M46.06,149.91l1-5h.64l-.07.75h0a6.28,6.28,0,0,1,.85-.62,1.66,1.66,0,0,1,.88-.25,1.09,1.09,0,0,1,.91.32,1.4,1.4,0,0,1,.27.92c0,.11,0,.22,0,.32a2.7,2.7,0,0,1-.06.36l-.63,3.19h-.77l.6-3.08q0-.21.06-.33a1.1,1.1,0,0,0,0-.26.86.86,0,0,0-.17-.57.72.72,0,0,0-.56-.2,1.35,1.35,0,0,0-.66.22,4.48,4.48,0,0,0-.83.69l-.69,3.54Z" transform="translate(-3.39 -3.66)" fill="#322f5b"/><path d="M53.18,150a1.66,1.66,0,0,1-1.28-.53,2.13,2.13,0,0,1-.48-1.47,3.68,3.68,0,0,1,.22-1.31,3.2,3.2,0,0,1,.6-1,2.71,2.71,0,0,1,.85-.67,2.34,2.34,0,0,1,1-.25,1.64,1.64,0,0,1,1.29.54,2.14,2.14,0,0,1,.49,1.46,3.68,3.68,0,0,1-.23,1.31,3.2,3.2,0,0,1-.6,1,2.71,2.71,0,0,1-.85.67A2.15,2.15,0,0,1,53.18,150Zm.08-.66a1.25,1.25,0,0,0,.67-.2,2.45,2.45,0,0,0,.58-.54,3.06,3.06,0,0,0,.4-.81,3.1,3.1,0,0,0,.15-1,1.72,1.72,0,0,0-.27-1,.9.9,0,0,0-.79-.37,1.24,1.24,0,0,0-.66.2,2.15,2.15,0,0,0-.58.55,2.8,2.8,0,0,0-.41.81,3.14,3.14,0,0,0-.15,1,1.7,1.7,0,0,0,.27,1A.93.93,0,0,0,53.26,149.36Z" transform="translate(-3.39 -3.66)" fill="#322f5b"/><path d="M58,150a1.51,1.51,0,0,1-.55-.09,1.08,1.08,0,0,1-.37-.24.83.83,0,0,1-.2-.34,1.56,1.56,0,0,1-.06-.44,2.44,2.44,0,0,1,0-.28c0-.09,0-.18,0-.28l.57-2.81h-.72l.11-.59.77-.05.37-1.38h.66l-.27,1.38h1.25l-.12.63H58.24l-.58,2.85a2.4,2.4,0,0,0,0,.37.71.71,0,0,0,.14.47.66.66,0,0,0,.5.15.86.86,0,0,0,.27-.05l.24-.11.18.57-.41.15A1.69,1.69,0,0,1,58,150Z" transform="translate(-3.39 -3.66)" fill="#322f5b"/><path d="M62.51,150a.68.68,0,0,1-.49-.17.65.65,0,0,1-.17-.48,2.07,2.07,0,0,1,.06-.43l1.24-6.36h.78L62.68,149a.19.19,0,0,0,0,.12v.07c0,.13.05.19.17.19h.06l.1,0v.6l-.21.07Z" transform="translate(-3.39 -3.66)" fill="#322f5b"/><path d="M64.12,149.87l1-5h.79l-1,5Zm1.64-6a.52.52,0,0,1-.35-.11.43.43,0,0,1-.15-.35.6.6,0,0,1,.59-.59.53.53,0,0,1,.35.12.43.43,0,0,1,.15.35.54.54,0,0,1-.18.42A.57.57,0,0,1,65.76,143.83Z" transform="translate(-3.39 -3.66)" fill="#322f5b"/><path d="M67.81,150a1.89,1.89,0,0,1-1-.28,1.79,1.79,0,0,1-.42-.3,1.53,1.53,0,0,1-.31-.37l.49-.39a1.77,1.77,0,0,0,.56.53,1.36,1.36,0,0,0,.71.2,1.05,1.05,0,0,0,.4-.07,1,1,0,0,0,.34-.18.82.82,0,0,0,.23-.26.73.73,0,0,0,.08-.33.64.64,0,0,0,0-.24.62.62,0,0,0-.15-.22,1.14,1.14,0,0,0-.28-.22L68,147.6a3.41,3.41,0,0,1-.86-.62,1.11,1.11,0,0,1-.27-.74,1.39,1.39,0,0,1,.13-.61,1.43,1.43,0,0,1,.37-.47,1.59,1.59,0,0,1,.54-.31,2,2,0,0,1,.65-.11,1.68,1.68,0,0,1,.82.19,2,2,0,0,1,.64.48l-.45.44a2.12,2.12,0,0,0-.44-.35,1.22,1.22,0,0,0-.59-.14,1,1,0,0,0-.66.23.71.71,0,0,0-.27.55.51.51,0,0,0,.07.28.69.69,0,0,0,.2.22,1.55,1.55,0,0,0,.28.2l.33.18a4,4,0,0,1,.55.36,1.69,1.69,0,0,1,.36.34.89.89,0,0,1,.19.34,1.16,1.16,0,0,1,.06.38,1.5,1.5,0,0,1-.13.64,1.54,1.54,0,0,1-.39.49,2.06,2.06,0,0,1-.59.31A2.87,2.87,0,0,1,67.81,150Z" transform="translate(-3.39 -3.66)" fill="#322f5b"/><path d="M72.12,150a1.47,1.47,0,0,1-.55-.09,1.08,1.08,0,0,1-.37-.24.87.87,0,0,1-.2-.35,1.44,1.44,0,0,1-.06-.43,2.44,2.44,0,0,1,0-.28c0-.09,0-.18,0-.28l.57-2.81h-.72l.11-.59.77,0,.37-1.38h.66l-.27,1.38h1.25l-.12.64H72.33l-.57,2.86a2.4,2.4,0,0,0,0,.37.67.67,0,0,0,.14.46.6.6,0,0,0,.49.16.87.87,0,0,0,.28-.05l.24-.11.18.57-.41.15A2.11,2.11,0,0,1,72.12,150Z" transform="translate(-3.39 -3.66)" fill="#322f5b"/><path d="M73.77,147.89A3.13,3.13,0,0,1,74,146.6a3.21,3.21,0,0,1,.6-1,2.72,2.72,0,0,1,.84-.65,2.25,2.25,0,0,1,1-.22,1.7,1.7,0,0,1,.71.13,1.26,1.26,0,0,1,.47.38,1.64,1.64,0,0,1,.27.58,3.22,3.22,0,0,1,.08.71,2.62,2.62,0,0,1-.06.57c0,.17-.08.31-.11.41H74.55a2.27,2.27,0,0,0,0,.83,1.51,1.51,0,0,0,.27.57,1.12,1.12,0,0,0,.47.33,1.64,1.64,0,0,0,.6.1,1.36,1.36,0,0,0,.58-.13,3.34,3.34,0,0,0,.53-.3l.3.52a3.28,3.28,0,0,1-.7.38,2.56,2.56,0,0,1-.89.16,1.88,1.88,0,0,1-1.42-.54A2.07,2.07,0,0,1,73.77,147.89Zm.86-.91h2.6l0-.24a2.28,2.28,0,0,0,0-.27,1.52,1.52,0,0,0-.06-.42.86.86,0,0,0-.16-.35.75.75,0,0,0-.3-.25,1,1,0,0,0-.44-.09,1.25,1.25,0,0,0-.54.12,1.48,1.48,0,0,0-.48.33,2.32,2.32,0,0,0-.4.51A2.35,2.35,0,0,0,74.63,147Z" transform="translate(-3.39 -3.66)" fill="#322f5b"/><path d="M82.54,145.44l.16-1,.38-2h.79l-1.45,7.32h-.64l.08-.74h0a2.86,2.86,0,0,1-.8.63,1.91,1.91,0,0,1-.91.24,1.26,1.26,0,0,1-1-.46,2.05,2.05,0,0,1-.39-1.35,3.66,3.66,0,0,1,.22-1.34,3.51,3.51,0,0,1,.59-1.1,3.28,3.28,0,0,1,.86-.73,2.23,2.23,0,0,1,1-.27,1.24,1.24,0,0,1,.69.2,1.53,1.53,0,0,1,.48.53Zm-2.16,3.86a1.56,1.56,0,0,0,.78-.23,2.91,2.91,0,0,0,.78-.73l.44-2.23a1.5,1.5,0,0,0-.47-.56.92.92,0,0,0-.54-.18,1.34,1.34,0,0,0-.71.22,2.17,2.17,0,0,0-.61.6,2.81,2.81,0,0,0-.42.85,3,3,0,0,0-.16,1,1.51,1.51,0,0,0,.25,1A.78.78,0,0,0,80.38,149.3Z" transform="translate(-3.39 -3.66)" fill="#322f5b"/><path d="M82.78,151.47l4.4-8.95h.57l-4.41,8.95Z" transform="translate(-3.39 -3.66)" fill="#322f5b"/><path d="M46.09,162.13l1-5h.64l-.07.75h0a8.17,8.17,0,0,1,.84-.62,1.69,1.69,0,0,1,.89-.25,1.13,1.13,0,0,1,.9.32,1.42,1.42,0,0,1,.27.92c0,.11,0,.22,0,.33a2,2,0,0,1-.07.36l-.62,3.18H49.1l.6-3.08q0-.21.06-.33a2.11,2.11,0,0,0,0-.25.87.87,0,0,0-.17-.58.74.74,0,0,0-.57-.19,1.33,1.33,0,0,0-.65.21,4.92,4.92,0,0,0-.83.69l-.7,3.54Z" transform="translate(-3.39 -3.66)" fill="#322f5b"/><path d="M53.21,162.24a1.64,1.64,0,0,1-1.28-.53,2.19,2.19,0,0,1-.49-1.47,3.72,3.72,0,0,1,.23-1.31,3.21,3.21,0,0,1,.59-1,3,3,0,0,1,.86-.67,2.19,2.19,0,0,1,1-.24,1.66,1.66,0,0,1,1.29.53,2.1,2.1,0,0,1,.48,1.47,3.66,3.66,0,0,1-.22,1.3,3.82,3.82,0,0,1-.6,1,2.94,2.94,0,0,1-.86.67A2.19,2.19,0,0,1,53.21,162.24Zm.08-.66a1.3,1.3,0,0,0,.67-.2,2.07,2.07,0,0,0,.57-.54,2.74,2.74,0,0,0,.41-.8,3.21,3.21,0,0,0,.15-1,1.72,1.72,0,0,0-.27-1,.92.92,0,0,0-.79-.37,1.32,1.32,0,0,0-.67.21,2.1,2.1,0,0,0-.58.54,3.06,3.06,0,0,0-.4.81,3.21,3.21,0,0,0-.15,1,1.69,1.69,0,0,0,.27,1A.92.92,0,0,0,53.29,161.58Z" transform="translate(-3.39 -3.66)" fill="#322f5b"/><path d="M59.94,162.22a1.26,1.26,0,0,1-1-.46,2.12,2.12,0,0,1-.39-1.34,4.24,4.24,0,0,1,.22-1.35,3.82,3.82,0,0,1,.6-1.09,3,3,0,0,1,.86-.73,2,2,0,0,1,1-.27,1.2,1.2,0,0,1,.7.21,1.35,1.35,0,0,1,.49.54h0l.19-.63h.63l-1,5h-.65l.08-.74h0a2.86,2.86,0,0,1-.8.63A1.9,1.9,0,0,1,59.94,162.22Zm.29-.65a1.54,1.54,0,0,0,.79-.24,2.54,2.54,0,0,0,.76-.72l.45-2.23a1.74,1.74,0,0,0-.47-.57,1,1,0,0,0-.54-.17,1.29,1.29,0,0,0-.72.22,2.43,2.43,0,0,0-.61.59,3.55,3.55,0,0,0-.42.85,3.3,3.3,0,0,0-.15,1,1.54,1.54,0,0,0,.24,1A.82.82,0,0,0,60.23,161.57Z" transform="translate(-3.39 -3.66)" fill="#322f5b"/><path d="M63.8,162.09l1-5h.64l-.07.75h0a6.4,6.4,0,0,1,.85-.63,1.66,1.66,0,0,1,.88-.25,1.17,1.17,0,0,1,.91.32,1.42,1.42,0,0,1,.27.92,3.25,3.25,0,0,1,0,.33,3.35,3.35,0,0,1-.06.36l-.63,3.18h-.77l.6-3.09a3,3,0,0,0,.06-.33,1,1,0,0,0,0-.25.87.87,0,0,0-.17-.58.72.72,0,0,0-.56-.19,1.33,1.33,0,0,0-.66.21,4.92,4.92,0,0,0-.83.69l-.69,3.54Z" transform="translate(-3.39 -3.66)" fill="#322f5b"/><path d="M70.41,162.2a1.71,1.71,0,0,1-.49-.07,2.3,2.3,0,0,1-.9-.5,2.1,2.1,0,0,1-.31-.37l.49-.39a2,2,0,0,0,.56.53,1.39,1.39,0,0,0,.71.2,1.2,1.2,0,0,0,.74-.25.83.83,0,0,0,.23-.27.57.57,0,0,0,.08-.32.69.69,0,0,0,0-.25,1.23,1.23,0,0,0-.15-.22,1.82,1.82,0,0,0-.28-.22l-.44-.25a3.12,3.12,0,0,1-.85-.63,1,1,0,0,1-.28-.74,1.21,1.21,0,0,1,.14-.6,1.44,1.44,0,0,1,.36-.48,1.57,1.57,0,0,1,.54-.3,2.08,2.08,0,0,1,.66-.11,1.83,1.83,0,0,1,.82.18,2.75,2.75,0,0,1,.64.48l-.45.45a2.1,2.1,0,0,0-.45-.35,1.09,1.09,0,0,0-.58-.14,1,1,0,0,0-.67.23.7.7,0,0,0-.27.55.68.68,0,0,0,.07.28,1,1,0,0,0,.2.22,1.55,1.55,0,0,0,.28.2l.33.18a4.26,4.26,0,0,1,.56.35,2.86,2.86,0,0,1,.35.34,1,1,0,0,1,.2.35,1.12,1.12,0,0,1,.06.38,1.46,1.46,0,0,1-.14.63,1.25,1.25,0,0,1-.39.49,1.58,1.58,0,0,1-.59.31A2.17,2.17,0,0,1,70.41,162.2Z" transform="translate(-3.39 -3.66)" fill="#322f5b"/><path d="M73.86,162.07l-.37-5h.77l.17,2.93c0,.24,0,.48,0,.71s0,.46,0,.69h0c.1-.23.2-.46.29-.69s.19-.47.3-.71l1.29-2.94h.77l.18,2.94c0,.24,0,.47,0,.7l0,.7h0l.28-.7c.08-.23.18-.46.29-.7l1.29-2.94H80l-2.24,5h-1l-.15-2.74c0-.24,0-.48,0-.73s0-.49,0-.74h0l-.3.74-.3.73-1.2,2.74Z" transform="translate(-3.39 -3.66)" fill="#322f5b"/><path d="M80.19,160.09a3.37,3.37,0,0,1,.83-2.28,2.64,2.64,0,0,1,.85-.65,2.33,2.33,0,0,1,1-.23,1.7,1.7,0,0,1,.71.14,1.26,1.26,0,0,1,.47.38,1.48,1.48,0,0,1,.27.58,3.22,3.22,0,0,1,.08.71,2.47,2.47,0,0,1-.06.56,3,3,0,0,1-.11.42H81a2.52,2.52,0,0,0,0,.83,1.39,1.39,0,0,0,.28.57,1.09,1.09,0,0,0,.46.33,1.64,1.64,0,0,0,.6.1,1.4,1.4,0,0,0,.59-.13,3.72,3.72,0,0,0,.52-.3l.31.52A3.37,3.37,0,0,1,83,162a2.56,2.56,0,0,1-.89.16,1.91,1.91,0,0,1-1.42-.54A2.12,2.12,0,0,1,80.19,160.09Zm.86-.9h2.6c0-.08,0-.16,0-.24a2.44,2.44,0,0,0,0-.27,2,2,0,0,0,0-.42,1,1,0,0,0-.17-.35.79.79,0,0,0-.29-.25,1,1,0,0,0-.45-.09,1.4,1.4,0,0,0-.53.11,1.6,1.6,0,0,0-.49.34,2.32,2.32,0,0,0-.4.51A2.35,2.35,0,0,0,81.05,159.19Z" transform="translate(-3.39 -3.66)" fill="#322f5b"/><path d="M85,162.05l1-5h.64l-.11.95h0a3.2,3.2,0,0,1,.69-.77,1.37,1.37,0,0,1,.85-.31,1.14,1.14,0,0,1,.46.09l-.27.7a1,1,0,0,0-.43-.08,1.22,1.22,0,0,0-.75.32,3,3,0,0,0-.7.94l-.62,3.16Z" transform="translate(-3.39 -3.66)" fill="#322f5b"/><path d="M33,106.05h-2.8v-1l2.35-3.92h1.84v3.81h.74v1.15h-.74v1.56H33Zm0-1.15v-1.05c0-.42,0-1,.06-1.46h0l-.53,1.1-.86,1.42Z" transform="translate(-3.39 -3.66)" fill="#322f5b"/><path d="M35.83,107l.8-.9a1.45,1.45,0,0,0,1,.46c.72,0,1.28-.52,1.33-2a1.84,1.84,0,0,1-1.29.69,1.81,1.81,0,0,1-1.94-2A2.1,2.1,0,0,1,37.88,101c1.25,0,2.46.94,2.46,3.23s-1.25,3.54-2.61,3.54A2.66,2.66,0,0,1,35.83,107Zm3.1-3.51c-.14-1-.56-1.35-1-1.35s-.81.32-.81,1.06.37.94.86.94A1.11,1.11,0,0,0,38.93,103.44Z" transform="translate(-3.39 -3.66)" fill="#322f5b"/><path d="M41.1,102.89c0-1.33.69-2.11,1.65-2.12s1.66.78,1.67,2.12-.7,2.13-1.66,2.14S41.11,104.24,41.1,102.89Zm2.27,0c0-1-.28-1.27-.62-1.27s-.61.32-.61,1.27.28,1.3.62,1.29S43.37,103.84,43.37,102.89Zm3.19-2.12h.87l-3.58,6.94H43Zm-.55,4.8c0-1.33.69-2.11,1.65-2.12s1.66.78,1.66,2.12-.69,2.13-1.65,2.14S46,106.92,46,105.57Zm2.26,0c0-1-.27-1.27-.61-1.27s-.61.32-.61,1.27.28,1.29.62,1.29S48.28,106.52,48.27,105.57Z" transform="translate(-3.39 -3.66)" fill="#322f5b"/><path d="M52,107.57l1.32-6.74H57l-.13.67H54l-.45,2.34H56l-.14.68H53.38l-.61,3Z" transform="translate(-3.39 -3.66)" fill="#322f5b"/><path d="M56.69,105.6a3.57,3.57,0,0,1,.23-1.29,3.43,3.43,0,0,1,.61-1,2.72,2.72,0,0,1,.84-.64,2.25,2.25,0,0,1,1-.23,1.66,1.66,0,0,1,.71.14,1.29,1.29,0,0,1,.48.38,1.49,1.49,0,0,1,.26.57,2.73,2.73,0,0,1,.09.72,2.6,2.6,0,0,1-.06.56,2.36,2.36,0,0,1-.12.41H57.48a2.08,2.08,0,0,0,0,.83,1.26,1.26,0,0,0,.27.57,1,1,0,0,0,.46.32,1.53,1.53,0,0,0,1.19,0,2.65,2.65,0,0,0,.52-.31l.31.52a3.09,3.09,0,0,1-.7.38,2.36,2.36,0,0,1-.9.16,1.91,1.91,0,0,1-1.41-.53A2.1,2.1,0,0,1,56.69,105.6Zm.87-.91h2.59a1.87,1.87,0,0,0,0-.25,2.26,2.26,0,0,0,0-.27,1.4,1.4,0,0,0-.05-.41,1,1,0,0,0-.16-.35.81.81,0,0,0-.3-.25,1,1,0,0,0-.45-.09,1.4,1.4,0,0,0-.53.11,1.87,1.87,0,0,0-.48.33,2.69,2.69,0,0,0-.41.52A2.75,2.75,0,0,0,57.56,104.69Z" transform="translate(-3.39 -3.66)" fill="#322f5b"/><path d="M61.49,107.55l1-5h.64l-.07.75h0a4.38,4.38,0,0,1,.82-.63,1.55,1.55,0,0,1,.81-.25,1.47,1.47,0,0,1,.5.07,1,1,0,0,1,.34.21.83.83,0,0,1,.2.31,1.64,1.64,0,0,1,.1.38,5,5,0,0,1,.92-.72,1.73,1.73,0,0,1,.83-.26,1.1,1.1,0,0,1,.9.33,1.34,1.34,0,0,1,.28.91,3.25,3.25,0,0,1,0,.33,3.35,3.35,0,0,1-.06.36l-.63,3.19h-.78l.61-3.08c0-.14,0-.25.07-.33a2.26,2.26,0,0,0,0-.26c0-.51-.24-.77-.72-.77a1.21,1.21,0,0,0-.58.22,3.59,3.59,0,0,0-.81.69l-.7,3.53h-.77l.6-3.09a3,3,0,0,0,.06-.33,2,2,0,0,0,0-.25c0-.52-.24-.77-.71-.77a1.27,1.27,0,0,0-.59.21A3.92,3.92,0,0,0,63,104l-.69,3.54Z" transform="translate(-3.39 -3.66)" fill="#322f5b"/><path d="M71.07,107.66a1.31,1.31,0,0,1-1-.46,2.05,2.05,0,0,1-.39-1.35,4,4,0,0,1,.22-1.35,3.82,3.82,0,0,1,.6-1.09,2.93,2.93,0,0,1,.85-.73,2,2,0,0,1,1-.27,1.24,1.24,0,0,1,.71.21,1.26,1.26,0,0,1,.48.54h0l.2-.63h.63l-1,5h-.64l.08-.74h0a3.18,3.18,0,0,1-.8.63A1.94,1.94,0,0,1,71.07,107.66Zm.28-.66a1.54,1.54,0,0,0,.79-.24,2.45,2.45,0,0,0,.77-.72l.44-2.23a1.63,1.63,0,0,0-.47-.57,1,1,0,0,0-.54-.17,1.29,1.29,0,0,0-.71.22,2.43,2.43,0,0,0-.61.59,2.93,2.93,0,0,0-.42.85,3,3,0,0,0-.16,1,1.57,1.57,0,0,0,.25,1A.81.81,0,0,0,71.35,107Z" transform="translate(-3.39 -3.66)" fill="#322f5b"/><path d="M75.72,107.65a.68.68,0,0,1-.49-.17.67.67,0,0,1-.17-.48,2.07,2.07,0,0,1,.06-.43l1.24-6.37h.78l-1.25,6.41a.19.19,0,0,0,0,.12v.07c0,.13,0,.19.17.19h.06l.1,0v.6a.73.73,0,0,1-.21.06A1.14,1.14,0,0,1,75.72,107.65Z" transform="translate(-3.39 -3.66)" fill="#322f5b"/><path d="M77.4,105.56a3.49,3.49,0,0,1,.23-1.29,3.43,3.43,0,0,1,.61-1,2.51,2.51,0,0,1,.84-.65,2.24,2.24,0,0,1,1-.22,1.67,1.67,0,0,1,.71.13,1.37,1.37,0,0,1,.48.38,1.47,1.47,0,0,1,.26.58,2.71,2.71,0,0,1,.08.71,2.62,2.62,0,0,1-.06.57,3.27,3.27,0,0,1-.11.41H78.18a2.25,2.25,0,0,0,0,.83,1.26,1.26,0,0,0,.27.57,1.09,1.09,0,0,0,.46.33,1.72,1.72,0,0,0,.6.1,1.4,1.4,0,0,0,.59-.13,3.22,3.22,0,0,0,.52-.3l.31.52a3.54,3.54,0,0,1-.7.38,2.57,2.57,0,0,1-.9.16,1.91,1.91,0,0,1-1.42-.54A2.12,2.12,0,0,1,77.4,105.56Zm.86-.91h2.6a2,2,0,0,0,0-.24,2.35,2.35,0,0,0,0-.27,2,2,0,0,0,0-.42,1,1,0,0,0-.16-.35.91.91,0,0,0-.3-.25A1,1,0,0,0,80,103a1.24,1.24,0,0,0-.53.12,1.41,1.41,0,0,0-.49.33,2.66,2.66,0,0,0-.4.51A2.35,2.35,0,0,0,78.26,104.65Z" transform="translate(-3.39 -3.66)" fill="#322f5b"/><line x1="0.12" y1="128.53" x2="23.05" y2="128.48" fill="none" stroke="#fff" stroke-miterlimit="10" stroke-width="0.73"/><line y1="74.23" x2="22.93" y2="74.18" fill="none" stroke="#fff" stroke-miterlimit="10" stroke-width="0.73"/></svg>