<svg id="marital" xmlns="http://www.w3.org/2000/svg" xmlns:xlink="http://www.w3.org/1999/xlink" viewBox="0 0 111.15 146.2"><defs><clipPath id="clip-path" transform="translate(-3.37 -3.39)"><rect x="4.61" y="21.36" width="18.48" height="26.69" fill="none"/></clipPath><clipPath id="clip-path-2" transform="translate(-3.37 -3.39)"><rect x="4.63" y="21.38" width="18.42" height="26.65" transform="translate(-0.08 0.03) rotate(-0.12)" fill="none"/></clipPath><clipPath id="clip-path-3" transform="translate(-3.37 -3.39)"><rect x="4.66" y="48.01" width="18.59" height="76.71" fill="none"/></clipPath><clipPath id="clip-path-4" transform="translate(-3.37 -3.39)"><rect x="4.75" y="48.03" width="18.42" height="76.67" transform="translate(-0.19 0.03) rotate(-0.12)" fill="none"/></clipPath></defs><title>marital</title><path d="M4.83,127l0,6a.73.73,0,0,0,.73.73l17,0a.73.73,0,0,0,.73-.73v-8.25l-18.42,0Z" transform="translate(-3.37 -3.39)" fill="#322f5b"/><g opacity="0.6"><g clip-path="url(#clip-path)"><g clip-path="url(#clip-path-2)"><path d="M23,27V22.09a.73.73,0,0,0-.73-.73l-17,0a.73.73,0,0,0-.72.73V27l0,21,18.42,0Z" transform="translate(-3.37 -3.39)" fill="#322f5b"/></g></g></g><g opacity="0.8"><g clip-path="url(#clip-path-3)"><g clip-path="url(#clip-path-4)"><polygon points="19.85 111.18 19.85 110.06 19.82 97.53 19.78 77.81 19.76 68.39 19.71 44.62 1.29 44.66 1.34 68.44 1.36 77.85 1.4 97.56 1.43 110.1 1.43 111.22 1.45 119.41 1.46 121.33 19.88 121.29 19.87 119.36 19.85 111.18" fill="#322f5b"/></g></g></g><path d="M4.07,4.15H5.71l1.07,3c.14.39.26.82.39,1.23h0c.13-.41.25-.84.38-1.23l1-3h1.63l0,6.69H8.91V8.38A21.66,21.66,0,0,1,9.09,6.1h0L8.52,7.69l-.95,2.56H6.75l-1-2.55L5.26,6.11h0c.07.65.2,1.62.2,2.28v2.45H4.08Z" transform="translate(-3.37 -3.39)" fill="#e24329"/><path d="M11.45,9.41c0-1.07.84-1.65,2.84-1.86a.71.71,0,0,0-.8-.74,2.76,2.76,0,0,0-1.33.46l-.54-1a4.14,4.14,0,0,1,2.16-.67c1.29,0,2,.73,2,2.29v2.92H14.57l-.1-.52h0A2.21,2.21,0,0,1,13,11,1.47,1.47,0,0,1,11.45,9.41Zm2.84-.07V8.45c-1.06.15-1.4.46-1.4.85s.22.48.58.48A1.1,1.1,0,0,0,14.29,9.34Z" transform="translate(-3.37 -3.39)" fill="#e24329"/><path d="M17,5.72h1.23l.1.89h0a1.7,1.7,0,0,1,1.44-1,1.48,1.48,0,0,1,.6.1L20.2,7a2,2,0,0,0-.55-.08,1.25,1.25,0,0,0-1.11.94v3H17Z" transform="translate(-3.37 -3.39)" fill="#e24329"/><path d="M21,4.17a.87.87,0,1,1,.87.79A.8.8,0,0,1,21,4.17Zm.13,1.54h1.5V10.8h-1.5Z" transform="translate(-3.37 -3.39)" fill="#e24329"/><path d="M24.11,9V6.89h-.7V5.77l.78-.06.17-1.36H25.6V5.7h1.22V6.88H25.6v2c0,.57.26.81.65.81a1.21,1.21,0,0,0,.48-.11l.24,1.1a3.39,3.39,0,0,1-1.12.19C24.6,10.92,24.11,10.13,24.11,9Z" transform="translate(-3.37 -3.39)" fill="#e24329"/><path d="M27.53,9.38c0-1.07.85-1.66,2.84-1.87a.7.7,0,0,0-.79-.74,2.68,2.68,0,0,0-1.34.47l-.54-1a4.14,4.14,0,0,1,2.16-.67c1.29,0,2,.74,2,2.3v2.91H30.66l-.11-.53h0a2.18,2.18,0,0,1-1.46.65A1.46,1.46,0,0,1,27.53,9.38Zm2.85-.07V8.42c-1.06.14-1.41.45-1.41.84s.23.48.58.48A1.12,1.12,0,0,0,30.38,9.31Z" transform="translate(-3.37 -3.39)" fill="#e24329"/><path d="M33.11,9.2l0-5.62h1.5V9.26c0,.32.15.42.27.42a.62.62,0,0,0,.18,0l.19,1.12a2,2,0,0,1-.75.12C33.46,10.9,33.11,10.23,33.11,9.2Z" transform="translate(-3.37 -3.39)" fill="#e24329"/><path d="M37.61,10.19l.67-.95a2.17,2.17,0,0,0,1.31.53c.44,0,.64-.16.64-.43s-.51-.49-1-.7S37.86,8,37.86,7.15s.76-1.6,1.93-1.6a3,3,0,0,1,1.79.64l-.67.91a1.86,1.86,0,0,0-1.08-.43c-.38,0-.57.14-.57.4s.47.45,1,.65,1.37.59,1.37,1.52-.72,1.65-2.07,1.65A3.26,3.26,0,0,1,37.61,10.19Z" transform="translate(-3.37 -3.39)" fill="#e24329"/><path d="M42.87,8.91V6.85h-.69V5.73L43,5.67l.17-1.36h1.24V5.66h1.21V6.84H44.37V8.89c0,.57.26.81.66.81a1.2,1.2,0,0,0,.47-.11l.24,1.1a3.62,3.62,0,0,1-1.12.19C43.37,10.88,42.88,10.09,42.87,8.91Z" transform="translate(-3.37 -3.39)" fill="#e24329"/><path d="M46.3,9.34c0-1.07.84-1.66,2.84-1.87a.71.71,0,0,0-.8-.74A2.62,2.62,0,0,0,47,7.2l-.55-1a4.17,4.17,0,0,1,2.16-.67c1.3,0,2,.74,2,2.3v2.91H49.42l-.1-.53h0a2.16,2.16,0,0,1-1.46.65A1.45,1.45,0,0,1,46.3,9.34Zm2.84-.07v-.9c-1.06.15-1.41.46-1.41.85s.23.48.59.48A1.1,1.1,0,0,0,49.14,9.27Z" transform="translate(-3.37 -3.39)" fill="#e24329"/><path d="M52,8.89V6.83h-.7V5.71l.78-.06.17-1.36h1.24V5.64h1.22V6.82H53.52v2c0,.57.26.81.65.81a1.21,1.21,0,0,0,.48-.11l.24,1.1a3.67,3.67,0,0,1-1.12.19C52.52,10.86,52,10.07,52,8.89Z" transform="translate(-3.37 -3.39)" fill="#e24329"/><path d="M55.67,8.8V5.64h1.5v3c0,.73.19,1,.63,1s.6-.17.89-.57V5.63h1.5v5.09H59L58.86,10h0a2,2,0,0,1-1.59.83C56.14,10.85,55.67,10.08,55.67,8.8Z" transform="translate(-3.37 -3.39)" fill="#e24329"/><path d="M61.06,10.14l.67-1a2.17,2.17,0,0,0,1.3.53c.45,0,.65-.17.65-.43s-.51-.49-1-.7-1.33-.65-1.33-1.49.76-1.6,1.93-1.6A2.86,2.86,0,0,1,65,6.14l-.67.91a1.81,1.81,0,0,0-1.07-.43c-.39,0-.57.14-.57.4s.47.45,1,.65,1.37.59,1.37,1.52-.72,1.65-2.07,1.65A3.31,3.31,0,0,1,61.06,10.14Z" transform="translate(-3.37 -3.39)" fill="#e24329"/><path d="M30.26,30.74c1.65-1.57,2.81-2.69,2.81-3.62a.88.88,0,0,0-.92-1,1.63,1.63,0,0,0-1.15.67L30.18,26a2.72,2.72,0,0,1,2.17-1A2,2,0,0,1,34.49,27c0,1.1-1,2.27-2.06,3.38a10.38,10.38,0,0,1,1.08-.08h1.31V31.6H30.26Z" transform="translate(-3.37 -3.39)" fill="#322f5b"/><path d="M38.3,30H35.49V29l2.36-3.93h1.83v3.82h.75V30h-.75v1.57H38.3Zm0-1.15V27.82c0-.42,0-1.05.06-1.46h0c-.16.36-.34.73-.53,1.1l-.85,1.42Z" transform="translate(-3.37 -3.39)" fill="#322f5b"/><path d="M40.84,26.88c0-1.33.68-2.12,1.64-2.12s1.67.78,1.67,2.11S43.45,29,42.49,29,40.84,28.23,40.84,26.88Zm2.26,0c0-1-.28-1.28-.62-1.28s-.61.32-.6,1.28.27,1.29.61,1.29S43.1,27.83,43.1,26.88Zm3.2-2.13h.86l-3.57,7h-.87Zm-.56,4.81c0-1.33.69-2.12,1.65-2.12s1.66.78,1.67,2.11-.7,2.14-1.66,2.14S45.75,30.91,45.74,29.56Zm2.27,0c0-1-.28-1.28-.62-1.28s-.61.32-.61,1.28.28,1.29.62,1.29S48,30.51,48,29.56Z" transform="translate(-3.37 -3.39)" fill="#322f5b"/><path d="M53.7,31.68a2.54,2.54,0,0,1-2.23-1.19l.58-.44a2.21,2.21,0,0,0,.73.7,1.92,1.92,0,0,0,1,.25,1.75,1.75,0,0,0,.57-.09,1.4,1.4,0,0,0,.45-.26,1.25,1.25,0,0,0,.42-.93A.92.92,0,0,0,55,29.1a2.82,2.82,0,0,0-.6-.49l-.78-.47a3,3,0,0,1-.73-.63,1.46,1.46,0,0,1-.3-1,1.64,1.64,0,0,1,.16-.72,1.76,1.76,0,0,1,.43-.59,1.89,1.89,0,0,1,.65-.41,2.27,2.27,0,0,1,.83-.15,2.31,2.31,0,0,1,1.09.26,2.58,2.58,0,0,1,.81.68L56,26.1a2.56,2.56,0,0,0-.62-.51,1.54,1.54,0,0,0-.82-.21,1.36,1.36,0,0,0-.51.09,1.19,1.19,0,0,0-.38.25,1.21,1.21,0,0,0-.24.35,1.1,1.1,0,0,0-.08.4.87.87,0,0,0,.26.63,3.48,3.48,0,0,0,.61.47L55,28a2.55,2.55,0,0,1,.75.65,1.57,1.57,0,0,1,.26.93,2.05,2.05,0,0,1-.17.83,2.07,2.07,0,0,1-.48.65,2,2,0,0,1-.73.43A2.61,2.61,0,0,1,53.7,31.68Z" transform="translate(-3.37 -3.39)" fill="#322f5b"/><path d="M56.78,31.55l1-5h.79l-1,5Zm1.63-6a.61.61,0,0,1-.35-.11.46.46,0,0,1-.15-.35.58.58,0,0,1,.18-.43.6.6,0,0,1,.41-.17.52.52,0,0,1,.36.13.44.44,0,0,1,.14.35.54.54,0,0,1-.17.42A.6.6,0,0,1,58.41,25.51Z" transform="translate(-3.37 -3.39)" fill="#322f5b"/><path d="M59.1,31.54l1-5h.64l-.07.75h0a6.34,6.34,0,0,1,.84-.63,1.69,1.69,0,0,1,.89-.25,1.1,1.1,0,0,1,.9.33,1.37,1.37,0,0,1,.27.91c0,.12,0,.23,0,.33a2,2,0,0,1-.07.36l-.62,3.19H62.1l.61-3.09a3,3,0,0,0,.06-.33,2,2,0,0,0,0-.25.82.82,0,0,0-.18-.58.7.7,0,0,0-.56-.19,1.33,1.33,0,0,0-.65.21,4.92,4.92,0,0,0-.83.69l-.7,3.54Z" transform="translate(-3.37 -3.39)" fill="#322f5b"/><path d="M65.76,33.83a2.26,2.26,0,0,1-.94-.19,3.81,3.81,0,0,1-.8-.49l.37-.55A3.46,3.46,0,0,0,65,33a1.64,1.64,0,0,0,.77.17,1.31,1.31,0,0,0,1-.4,2.49,2.49,0,0,0,.54-1.09l.25-1.07a3.5,3.5,0,0,1-.81.62,2,2,0,0,1-.91.23,1.34,1.34,0,0,1-1-.44,1.9,1.9,0,0,1-.41-1.32,3.64,3.64,0,0,1,.22-1.29,3.55,3.55,0,0,1,.58-1.05,3.12,3.12,0,0,1,.84-.71,2,2,0,0,1,1-.26,1.33,1.33,0,0,1,.71.2,1.45,1.45,0,0,1,.49.55h0l.19-.63h.64l-1,5.23a2.65,2.65,0,0,1-.79,1.53A2.16,2.16,0,0,1,65.76,33.83Zm.37-3a1.71,1.71,0,0,0,.76-.22,2.58,2.58,0,0,0,.76-.66l.43-2.14a1.82,1.82,0,0,0-.47-.56.88.88,0,0,0-.53-.17,1.32,1.32,0,0,0-.7.21,2.23,2.23,0,0,0-.59.56,3.16,3.16,0,0,0-.55,1.77,1.5,1.5,0,0,0,.23.91A.8.8,0,0,0,66.13,30.82Z" transform="translate(-3.37 -3.39)" fill="#322f5b"/><path d="M70.44,31.64a.66.66,0,0,1-.5-.17.64.64,0,0,1-.17-.47,2.15,2.15,0,0,1,.06-.44l1.24-6.36h.79L70.6,30.6a.37.37,0,0,0,0,.13v.07c0,.12.06.18.17.18h.06l.1,0,0,.61a.79.79,0,0,1-.22.06Z" transform="translate(-3.37 -3.39)" fill="#322f5b"/><path d="M72.11,29.55a3.57,3.57,0,0,1,.23-1.29,3.43,3.43,0,0,1,.61-1,2.84,2.84,0,0,1,.84-.64,2.25,2.25,0,0,1,1-.23,1.66,1.66,0,0,1,.71.14,1.21,1.21,0,0,1,.48.38,1.49,1.49,0,0,1,.26.57,2.78,2.78,0,0,1,.09.72,2.53,2.53,0,0,1-.06.56c0,.18-.08.32-.11.41H72.9a2.08,2.08,0,0,0,0,.83,1.26,1.26,0,0,0,.27.57,1.15,1.15,0,0,0,.46.33,2,2,0,0,0,.61.1,1.52,1.52,0,0,0,.58-.13,3.07,3.07,0,0,0,.53-.31l.3.53a3.08,3.08,0,0,1-.7.37,2.36,2.36,0,0,1-.9.16,1.83,1.83,0,0,1-1.41-.53A2.14,2.14,0,0,1,72.11,29.55Zm.87-.9h2.59a1.87,1.87,0,0,0,0-.25,2.17,2.17,0,0,0,0-.26,1.42,1.42,0,0,0-.05-.42,1,1,0,0,0-.16-.35.73.73,0,0,0-.3-.25,1,1,0,0,0-.44-.09,1.41,1.41,0,0,0-.54.11,1.87,1.87,0,0,0-.48.33,2.32,2.32,0,0,0-.4.52A2.35,2.35,0,0,0,73,28.65Z" transform="translate(-3.37 -3.39)" fill="#322f5b"/><path d="M75.76,33.15l4.4-8.95h.57l-4.41,9Z" transform="translate(-3.37 -3.39)" fill="#322f5b"/><path d="M30.27,44.82l1.32-6.74h.79l1.54,4.31.43,1.41h0c0-.34.09-.7.13-1.07s.1-.73.17-1.08l.7-3.58h.76l-1.32,6.74h-.78l-1.52-4.3-.44-1.45h0c0,.35-.08.71-.13,1.07s-.11.72-.18,1.06L31,44.82Z" transform="translate(-3.37 -3.39)" fill="#322f5b"/><path d="M36.54,42.85a3.49,3.49,0,0,1,.23-1.29,3.3,3.3,0,0,1,.61-1,2.61,2.61,0,0,1,.84-.65,2.41,2.41,0,0,1,1-.23,1.66,1.66,0,0,1,.71.14,1.37,1.37,0,0,1,.48.38,1.47,1.47,0,0,1,.26.58,2.71,2.71,0,0,1,.08.71,2.12,2.12,0,0,1-.06.57,3.27,3.27,0,0,1-.11.41H37.32a2.25,2.25,0,0,0,0,.83,1.26,1.26,0,0,0,.27.57,1.09,1.09,0,0,0,.46.33,1.68,1.68,0,0,0,.6.1,1.37,1.37,0,0,0,.59-.13,3.22,3.22,0,0,0,.52-.3l.31.52a3.54,3.54,0,0,1-.7.38,2.57,2.57,0,0,1-.9.16,1.91,1.91,0,0,1-1.42-.54A2.12,2.12,0,0,1,36.54,42.85Zm.87-.91H40a2,2,0,0,0,0-.24,2.35,2.35,0,0,0,0-.27A2,2,0,0,0,40,41a1,1,0,0,0-.16-.35.91.91,0,0,0-.3-.25,1,1,0,0,0-.45-.09,1.24,1.24,0,0,0-.53.12,1.41,1.41,0,0,0-.49.33,2.66,2.66,0,0,0-.4.51A2.08,2.08,0,0,0,37.41,41.94Z" transform="translate(-3.37 -3.39)" fill="#322f5b"/><path d="M42.29,44.8l-.73-5h.77l.37,2.89c0,.24.06.49.08.74s0,.51.07.75h0c.11-.25.23-.5.35-.75s.25-.5.38-.74l1.45-2.89h.78l-2.62,5Z" transform="translate(-3.37 -3.39)" fill="#322f5b"/><path d="M45.77,42.83a3.42,3.42,0,0,1,.83-2.29,2.64,2.64,0,0,1,.85-.65,2.33,2.33,0,0,1,1-.23,1.66,1.66,0,0,1,.71.14,1.26,1.26,0,0,1,.47.38,1.48,1.48,0,0,1,.27.58,2.71,2.71,0,0,1,.08.71,2.62,2.62,0,0,1-.06.57,3.27,3.27,0,0,1-.11.41H46.55a2.25,2.25,0,0,0,0,.83,1.26,1.26,0,0,0,.27.57,1.09,1.09,0,0,0,.46.33,1.64,1.64,0,0,0,.6.1,1.4,1.4,0,0,0,.59-.13,3.72,3.72,0,0,0,.52-.3l.31.52a3.54,3.54,0,0,1-.7.38,2.62,2.62,0,0,1-.9.16,1.91,1.91,0,0,1-1.42-.54A2.12,2.12,0,0,1,45.77,42.83Zm.86-.91h2.6c0-.08,0-.16,0-.24a2.35,2.35,0,0,0,0-.27,2,2,0,0,0-.05-.42,1,1,0,0,0-.17-.35.79.79,0,0,0-.29-.25,1,1,0,0,0-.45-.09,1.24,1.24,0,0,0-.53.12,1.41,1.41,0,0,0-.49.33,2.32,2.32,0,0,0-.4.51A2.35,2.35,0,0,0,46.63,41.92Z" transform="translate(-3.37 -3.39)" fill="#322f5b"/><path d="M50.58,44.78l1-5h.64l-.11,1h0a3.27,3.27,0,0,1,.69-.78,1.37,1.37,0,0,1,.85-.31,1.07,1.07,0,0,1,.47.1l-.28.69a1,1,0,0,0-.43-.08,1.22,1.22,0,0,0-.75.32,3,3,0,0,0-.7.94l-.61,3.16Z" transform="translate(-3.37 -3.39)" fill="#322f5b"/><path d="M56,44.77l1-5h.64l-.07.75h0a4.66,4.66,0,0,1,.81-.63,1.72,1.72,0,0,1,.82-.25,1.46,1.46,0,0,1,.5.08,1.13,1.13,0,0,1,.34.2,1.1,1.1,0,0,1,.2.31,1.64,1.64,0,0,1,.1.38,6,6,0,0,1,.92-.72,1.81,1.81,0,0,1,.83-.26A1.11,1.11,0,0,1,63,40a1.48,1.48,0,0,1,.28.92c0,.11,0,.22,0,.32s0,.23-.06.36l-.63,3.19h-.78l.61-3.08q0-.21.06-.33a1.1,1.1,0,0,0,0-.26c0-.51-.24-.77-.72-.77a1.28,1.28,0,0,0-.58.22,4.22,4.22,0,0,0-.82.69l-.69,3.54h-.78l.61-3.08c0-.14,0-.25.06-.33a2.28,2.28,0,0,0,0-.26c0-.51-.24-.77-.72-.77a1.23,1.23,0,0,0-.59.22,3.57,3.57,0,0,0-.8.69l-.7,3.53Z" transform="translate(-3.37 -3.39)" fill="#322f5b"/><path d="M65.6,44.87a1.26,1.26,0,0,1-1-.46,2.05,2.05,0,0,1-.39-1.35,3.88,3.88,0,0,1,.22-1.34,3.57,3.57,0,0,1,.6-1.09,3,3,0,0,1,.85-.74,2.11,2.11,0,0,1,1-.27,1.26,1.26,0,0,1,.71.21,1.47,1.47,0,0,1,.48.54h0l.19-.62h.64l-1,5h-.64l.08-.74h0a3.05,3.05,0,0,1-.81.63A1.91,1.91,0,0,1,65.6,44.87Zm.28-.66a1.62,1.62,0,0,0,.79-.23,2.75,2.75,0,0,0,.77-.73L67.88,41a1.5,1.5,0,0,0-.47-.56.92.92,0,0,0-.54-.18,1.34,1.34,0,0,0-.71.22,2.17,2.17,0,0,0-.61.6,2.81,2.81,0,0,0-.42.85,2.94,2.94,0,0,0-.16,1,1.51,1.51,0,0,0,.25,1A.78.78,0,0,0,65.88,44.21Z" transform="translate(-3.37 -3.39)" fill="#322f5b"/><path d="M69.46,44.74l1-5h.64l-.11.95h0a3.16,3.16,0,0,1,.68-.77,1.39,1.39,0,0,1,.85-.31,1.19,1.19,0,0,1,.47.09l-.27.7a1.06,1.06,0,0,0-.43-.08,1.22,1.22,0,0,0-.76.32,3,3,0,0,0-.7.94l-.61,3.15Z" transform="translate(-3.37 -3.39)" fill="#322f5b"/><path d="M72.91,44.73l1-5h.64l-.11,1h0a2.83,2.83,0,0,1,.68-.77A1.34,1.34,0,0,1,76,39.6a1,1,0,0,1,.47.1l-.27.7a.89.89,0,0,0-.43-.09,1.22,1.22,0,0,0-.75.32,3,3,0,0,0-.7.94l-.62,3.16Z" transform="translate(-3.37 -3.39)" fill="#322f5b"/><path d="M76.35,44.72l1-5h.78l-1,5Zm1.64-6a.53.53,0,0,1-.35-.12.41.41,0,0,1-.15-.35.6.6,0,0,1,.59-.59.55.55,0,0,1,.35.12.43.43,0,0,1,.15.35.54.54,0,0,1-.18.42A.58.58,0,0,1,78,38.69Z" transform="translate(-3.37 -3.39)" fill="#322f5b"/><path d="M78.74,42.75A3.57,3.57,0,0,1,79,41.46a3.38,3.38,0,0,1,.61-1,2.61,2.61,0,0,1,.84-.65,2.25,2.25,0,0,1,1-.23,1.66,1.66,0,0,1,.71.14,1.37,1.37,0,0,1,.48.38,1.49,1.49,0,0,1,.26.57,2.79,2.79,0,0,1,.08.72,2,2,0,0,1-.06.56,3,3,0,0,1-.11.42H79.52a2.25,2.25,0,0,0,0,.83,1.26,1.26,0,0,0,.27.57,1.09,1.09,0,0,0,.46.33,2,2,0,0,0,.6.1,1.53,1.53,0,0,0,.59-.13,2.65,2.65,0,0,0,.52-.31l.31.53a3.08,3.08,0,0,1-.7.37,2.57,2.57,0,0,1-.9.17,1.91,1.91,0,0,1-1.42-.54A2.14,2.14,0,0,1,78.74,42.75Zm.87-.9H82.2a1.87,1.87,0,0,0,0-.25,2.17,2.17,0,0,0,0-.26,1.86,1.86,0,0,0,0-.42,1,1,0,0,0-.16-.35.81.81,0,0,0-.3-.25,1,1,0,0,0-.45-.09,1.4,1.4,0,0,0-.53.11,1.76,1.76,0,0,0-.49.33,3.1,3.1,0,0,0-.4.52A2.34,2.34,0,0,0,79.61,41.85Z" transform="translate(-3.37 -3.39)" fill="#322f5b"/><path d="M87.52,40.31l.16-1,.38-1.95h.78L87.39,44.7h-.64l.08-.74h0a3,3,0,0,1-.8.63,1.94,1.94,0,0,1-.92.24,1.32,1.32,0,0,1-1-.46A2.05,2.05,0,0,1,83.64,43a4,4,0,0,1,.22-1.35,3.82,3.82,0,0,1,.6-1.09,3.06,3.06,0,0,1,.85-.73,2,2,0,0,1,1-.27,1.19,1.19,0,0,1,.69.2,1.56,1.56,0,0,1,.49.53Zm-2.17,3.86a1.54,1.54,0,0,0,.79-.24,2.69,2.69,0,0,0,.77-.72L87.35,41a1.63,1.63,0,0,0-.47-.57,1,1,0,0,0-.54-.17,1.29,1.29,0,0,0-.71.22,2.43,2.43,0,0,0-.61.59,3.55,3.55,0,0,0-.42.85,3.32,3.32,0,0,0-.15,1,1.58,1.58,0,0,0,.24,1A.83.83,0,0,0,85.35,44.17Z" transform="translate(-3.37 -3.39)" fill="#322f5b"/><path d="M30.41,79.42c0-2.43,1.24-3.53,2.61-3.53a2.53,2.53,0,0,1,1.89.77l-.79.91a1.45,1.45,0,0,0-1-.46c-.71,0-1.28.51-1.33,2a1.84,1.84,0,0,1,1.3-.69,1.81,1.81,0,0,1,1.93,2,2.09,2.09,0,0,1-2.15,2.19C31.61,82.66,30.41,81.71,30.41,79.42Zm3.23,1c0-.68-.36-.94-.85-.94a1.14,1.14,0,0,0-1,.65c.13,1,.56,1.35,1,1.35S33.64,81.2,33.64,80.46Z" transform="translate(-3.37 -3.39)" fill="#322f5b"/><path d="M35.85,80.86a1.79,1.79,0,0,1,1.1-1.6v-.05a1.87,1.87,0,0,1-.87-1.53,1.84,1.84,0,0,1,2.06-1.81,1.77,1.77,0,0,1,2,1.79,1.75,1.75,0,0,1-.84,1.43v0a1.88,1.88,0,0,1,1.13,1.7c0,1-.92,1.81-2.29,1.81S35.85,81.92,35.85,80.86ZM39,80.78c0-.57-.55-.79-1.37-1.14a1.5,1.5,0,0,0-.5,1,.92.92,0,0,0,1,.91A.77.77,0,0,0,39,80.78Zm-.1-3a.76.76,0,0,0-.79-.84.69.69,0,0,0-.72.75c0,.54.45.79,1.12,1A1.49,1.49,0,0,0,38.9,77.76Z" transform="translate(-3.37 -3.39)" fill="#322f5b"/><path d="M41,77.81c0-1.34.69-2.12,1.64-2.12s1.67.78,1.67,2.11-.7,2.14-1.66,2.14S41,79.15,41,77.81Zm2.26,0c0-1-.28-1.27-.61-1.27s-.61.32-.61,1.28.28,1.29.61,1.29S43.3,78.76,43.3,77.8Zm3.2-2.12h.86l-3.57,6.95h-.87ZM46,80.49c0-1.34.69-2.12,1.64-2.12s1.67.78,1.67,2.11-.7,2.14-1.66,2.14S46,81.83,46,80.49Zm2.26,0c0-1-.28-1.27-.61-1.27s-.62.32-.61,1.28.27,1.29.61,1.29S48.21,81.44,48.21,80.48Z" transform="translate(-3.37 -3.39)" fill="#322f5b"/><path d="M51.92,82.49l1.32-6.74h.94l.59,3.64.23,1.4h0l.71-1.4,2-3.64h1l-1.32,6.75h-.77l.77-3.81c.06-.3.13-.64.22-1s.17-.68.25-1h0l-.8,1.5-2,3.58h-.45L54,78.2l-.23-1.5h0c0,.31-.09.64-.13,1s-.1.69-.15,1l-.75,3.81Z" transform="translate(-3.37 -3.39)" fill="#322f5b"/><path d="M60.5,82.59a1.29,1.29,0,0,1-1-.46,2.06,2.06,0,0,1-.38-1.34,3.75,3.75,0,0,1,.22-1.35,3.46,3.46,0,0,1,.59-1.09,3.1,3.1,0,0,1,.86-.73,2,2,0,0,1,1-.27,1.27,1.27,0,0,1,.7.2,1.45,1.45,0,0,1,.49.55h0l.19-.63h.63l-1,5h-.65l.09-.74h-.05a2.65,2.65,0,0,1-.8.62A1.91,1.91,0,0,1,60.5,82.59Zm.29-.65a1.54,1.54,0,0,0,.79-.24,2.54,2.54,0,0,0,.76-.72l.45-2.23a1.63,1.63,0,0,0-.47-.57.91.91,0,0,0-.54-.17,1.26,1.26,0,0,0-.71.22,2.14,2.14,0,0,0-.61.59,3.23,3.23,0,0,0-.43.85,3.3,3.3,0,0,0-.15,1,1.49,1.49,0,0,0,.25,1A.79.79,0,0,0,60.79,81.94Z" transform="translate(-3.37 -3.39)" fill="#322f5b"/><path d="M64.37,82.46l1-5H66l-.11,1h0a3,3,0,0,1,.69-.77,1.31,1.31,0,0,1,.85-.31,1.19,1.19,0,0,1,.47.09l-.27.7a.92.92,0,0,0-.43-.08,1.17,1.17,0,0,0-.76.32,3,3,0,0,0-.7.93l-.61,3.16Z" transform="translate(-3.37 -3.39)" fill="#322f5b"/><path d="M67.83,82.45l1-5h.65l-.11,1h0a3,3,0,0,1,.68-.77,1.33,1.33,0,0,1,.85-.31,1.19,1.19,0,0,1,.47.09l-.27.7a1,1,0,0,0-.43-.08,1.2,1.2,0,0,0-.75.32,2.78,2.78,0,0,0-.7.94l-.62,3.15Z" transform="translate(-3.37 -3.39)" fill="#322f5b"/><path d="M71.27,82.45l1-5H73l-1,5Zm1.64-6a.51.51,0,0,1-.35-.12.39.39,0,0,1-.15-.34.61.61,0,0,1,.17-.43.61.61,0,0,1,.42-.17.51.51,0,0,1,.35.13.41.41,0,0,1,.15.34.55.55,0,0,1-.18.43A.59.59,0,0,1,72.91,76.41Z" transform="translate(-3.37 -3.39)" fill="#322f5b"/><path d="M73.66,80.48a3.57,3.57,0,0,1,.23-1.29,3.43,3.43,0,0,1,.61-1,2.48,2.48,0,0,1,.84-.64,2.25,2.25,0,0,1,1-.23,1.53,1.53,0,0,1,.71.14,1.23,1.23,0,0,1,.47.37,1.47,1.47,0,0,1,.27.58,2.71,2.71,0,0,1,.08.71,2.62,2.62,0,0,1-.06.57,2.85,2.85,0,0,1-.11.41H74.44a2.19,2.19,0,0,0,0,.82,1.26,1.26,0,0,0,.27.57,1.09,1.09,0,0,0,.46.33,1.64,1.64,0,0,0,.6.1,1.4,1.4,0,0,0,.59-.13,2.21,2.21,0,0,0,.52-.3l.31.52a3.09,3.09,0,0,1-.7.38,2.36,2.36,0,0,1-.9.16A1.91,1.91,0,0,1,74.19,82,2.1,2.1,0,0,1,73.66,80.48Zm.86-.91h2.6c0-.09,0-.17,0-.25a2.26,2.26,0,0,0,0-.27,1.84,1.84,0,0,0,0-.41,1.31,1.31,0,0,0-.16-.36.89.89,0,0,0-.75-.33,1.23,1.23,0,0,0-.53.11,1.76,1.76,0,0,0-.49.33,2.58,2.58,0,0,0-.4.51A2.48,2.48,0,0,0,74.52,79.57Z" transform="translate(-3.37 -3.39)" fill="#322f5b"/><path d="M82.44,78l.16-1,.38-2h.78l-1.45,7.32h-.64l.08-.74h0a2.82,2.82,0,0,1-.8.63,1.94,1.94,0,0,1-.92.24,1.29,1.29,0,0,1-1-.46,2,2,0,0,1-.39-1.34,4,4,0,0,1,.22-1.35,3.69,3.69,0,0,1,.6-1.09,3.06,3.06,0,0,1,.85-.73,2,2,0,0,1,1-.27,1.13,1.13,0,0,1,.69.2,1.63,1.63,0,0,1,.49.52Zm-2.17,3.86a1.62,1.62,0,0,0,.79-.23,2.89,2.89,0,0,0,.77-.73l.44-2.23a1.5,1.5,0,0,0-.47-.56.92.92,0,0,0-.54-.18,1.39,1.39,0,0,0-.71.23,2.27,2.27,0,0,0-.61.59,2.93,2.93,0,0,0-.42.85,3.31,3.31,0,0,0-.16,1,1.65,1.65,0,0,0,.25,1A.79.79,0,0,0,80.27,81.89Z" transform="translate(-3.37 -3.39)" fill="#322f5b"/><path d="M82.67,84.07l4.4-8.95h.57l-4.41,9Z" transform="translate(-3.37 -3.39)" fill="#322f5b"/><path d="M30.38,95.75,31.7,89h.8l-1.19,6.06h2.81l-.13.68Z" transform="translate(-3.37 -3.39)" fill="#322f5b"/><path d="M35,95.74l1-5h.79l-1,5Zm1.63-6a.55.55,0,0,1-.35-.12.41.41,0,0,1-.15-.35.54.54,0,0,1,.18-.42.56.56,0,0,1,.41-.17.53.53,0,0,1,.35.12.43.43,0,0,1,.15.35.57.57,0,0,1-.17.42A.61.61,0,0,1,36.6,89.71Z" transform="translate(-3.37 -3.39)" fill="#322f5b"/><path d="M38.33,95.73l-.74-5h.78l.37,2.89c0,.24,0,.48.07.74s0,.51.08.75h0c.11-.25.23-.5.35-.75s.25-.5.38-.75l1.45-2.89h.78l-2.62,5Z" transform="translate(-3.37 -3.39)" fill="#322f5b"/><path d="M41.82,95.73l1-5h.78l-1,5Zm1.64-6a.51.51,0,0,1-.35-.12.41.41,0,0,1-.15-.34.58.58,0,0,1,.18-.43.57.57,0,0,1,.41-.17.55.55,0,0,1,.35.12.44.44,0,0,1,.15.35.53.53,0,0,1-.18.42A.56.56,0,0,1,43.46,89.69Z" transform="translate(-3.37 -3.39)" fill="#322f5b"/><path d="M44.14,95.72l1-5h.64l-.07.75h0a7.28,7.28,0,0,1,.85-.62,1.66,1.66,0,0,1,.88-.25,1.1,1.1,0,0,1,.9.32,1.37,1.37,0,0,1,.28.92c0,.11,0,.22,0,.33a3.35,3.35,0,0,1-.06.36l-.63,3.18h-.77l.6-3.08q0-.21.06-.33a1.1,1.1,0,0,0,0-.26.86.86,0,0,0-.17-.57.68.68,0,0,0-.56-.19,1.33,1.33,0,0,0-.66.21,4.92,4.92,0,0,0-.83.69l-.69,3.54Z" transform="translate(-3.37 -3.39)" fill="#322f5b"/><path d="M50.8,98a2.47,2.47,0,0,1-.94-.19,3.21,3.21,0,0,1-.79-.5l.36-.54a3.46,3.46,0,0,0,.63.42,1.81,1.81,0,0,0,.77.17,1.33,1.33,0,0,0,1-.41,2.29,2.29,0,0,0,.53-1.08l.26-1.07a3.35,3.35,0,0,1-.82.62,2,2,0,0,1-.9.23,1.37,1.37,0,0,1-1-.44,1.91,1.91,0,0,1-.4-1.32,3.88,3.88,0,0,1,.21-1.29,3.57,3.57,0,0,1,.59-1,2.93,2.93,0,0,1,.83-.71,2.08,2.08,0,0,1,1-.26,1.22,1.22,0,0,1,.7.2,1.41,1.41,0,0,1,.49.54h0l.19-.62h.65l-1,5.23a2.8,2.8,0,0,1-.79,1.53A2.2,2.2,0,0,1,50.8,98Zm.37-3a1.58,1.58,0,0,0,.76-.23,2.43,2.43,0,0,0,.77-.65L53.13,92a1.85,1.85,0,0,0-.48-.56.87.87,0,0,0-.53-.18,1.28,1.28,0,0,0-.69.22,2.09,2.09,0,0,0-.59.56,3.07,3.07,0,0,0-.56,1.77,1.43,1.43,0,0,0,.24.91A.77.77,0,0,0,51.17,95Z" transform="translate(-3.37 -3.39)" fill="#322f5b"/><path d="M57.52,95.69l-.37-5h.77l.17,2.94c0,.24,0,.47,0,.7s0,.46,0,.69h0l.29-.69c.09-.23.19-.47.3-.71l1.29-2.94h.77L61,93.63c0,.24,0,.47,0,.7l0,.7h0c.1-.24.19-.47.27-.7s.19-.46.3-.7L63,90.69h.73l-2.24,5h-1L60.32,93c0-.24,0-.48,0-.73s0-.49,0-.74h0l-.3.74-.3.73-1.2,2.74Z" transform="translate(-3.37 -3.39)" fill="#322f5b"/><path d="M63.75,95.68l1-5h.78l-1,5Zm1.64-6a.58.58,0,0,1-.35-.11.43.43,0,0,1-.15-.35.58.58,0,0,1,.18-.43.57.57,0,0,1,.41-.17.51.51,0,0,1,.35.13.43.43,0,0,1,.15.35.54.54,0,0,1-.18.42A.57.57,0,0,1,65.39,89.64Z" transform="translate(-3.37 -3.39)" fill="#322f5b"/><path d="M67.62,95.79a1.49,1.49,0,0,1-.55-.08,1,1,0,0,1-.36-.24.78.78,0,0,1-.21-.35,1.49,1.49,0,0,1-.06-.43,2.62,2.62,0,0,1,0-.29c0-.08,0-.17,0-.27l.57-2.82h-.72l.11-.59.77,0,.37-1.38h.66L68,90.68h1.25l-.12.64H67.84l-.58,2.86a2.31,2.31,0,0,0,0,.37.64.64,0,0,0,.91.56l.25-.1.17.57-.41.15A1.7,1.7,0,0,1,67.62,95.79Z" transform="translate(-3.37 -3.39)" fill="#322f5b"/><path d="M69.35,95.67l1.43-7.32h.79l-.49,2.42-.16.63h0a6.64,6.64,0,0,1,.84-.6,1.59,1.59,0,0,1,.86-.25,1.1,1.1,0,0,1,.9.33,1.34,1.34,0,0,1,.28.91,3.25,3.25,0,0,1,0,.33,3.35,3.35,0,0,1-.06.36l-.63,3.19h-.77l.6-3.08q0-.21.06-.33A1.14,1.14,0,0,0,73,92a.89.89,0,0,0-.17-.58.72.72,0,0,0-.56-.19,1.26,1.26,0,0,0-.66.22,4.11,4.11,0,0,0-.83.69l-.69,3.53Z" transform="translate(-3.37 -3.39)" fill="#322f5b"/><path d="M77.45,95.05l-.18,1.07L77,97.76h-.78l1.39-7.11h.64l-.06.66h0a4.74,4.74,0,0,1,.8-.55,1.84,1.84,0,0,1,.91-.23,1.26,1.26,0,0,1,1,.46,2.16,2.16,0,0,1,.39,1.34,4,4,0,0,1-.23,1.35,3.46,3.46,0,0,1-.59,1.09,2.93,2.93,0,0,1-.85.73,2.06,2.06,0,0,1-1,.27,1.24,1.24,0,0,1-.69-.2,1.66,1.66,0,0,1-.5-.52Zm2.16-3.87a1.74,1.74,0,0,0-.76.22,2.87,2.87,0,0,0-.76.61l-.47,2.38a1.49,1.49,0,0,0,.46.56,1,1,0,0,0,.55.16,1.26,1.26,0,0,0,.71-.22A2.28,2.28,0,0,0,80,94.3a3.19,3.19,0,0,0,.41-.85,3,3,0,0,0,.16-1,1.52,1.52,0,0,0-.24-1A.79.79,0,0,0,79.61,91.18Z" transform="translate(-3.37 -3.39)" fill="#322f5b"/><path d="M83.53,95.76a1.29,1.29,0,0,1-1-.46A2.05,2.05,0,0,1,82.1,94a4.14,4.14,0,0,1,.22-1.34,3.57,3.57,0,0,1,.6-1.09,3,3,0,0,1,.86-.74,2.09,2.09,0,0,1,1-.26,1.14,1.14,0,0,1,.71.2,1.49,1.49,0,0,1,.49.54h0l.19-.62h.63l-1,5h-.64l.08-.74h0a2.86,2.86,0,0,1-.8.63A1.91,1.91,0,0,1,83.53,95.76Zm.29-.66a1.65,1.65,0,0,0,.79-.23,2.72,2.72,0,0,0,.76-.73l.45-2.23a1.6,1.6,0,0,0-.47-.56.92.92,0,0,0-.54-.18,1.31,1.31,0,0,0-.72.23,2.13,2.13,0,0,0-.61.59,3.37,3.37,0,0,0-.42.85,3.25,3.25,0,0,0-.15,1,1.58,1.58,0,0,0,.24,1A.81.81,0,0,0,83.82,95.1Z" transform="translate(-3.37 -3.39)" fill="#322f5b"/><path d="M87.39,95.63l1-5H89l-.11,1h0a3.42,3.42,0,0,1,.69-.77,1.37,1.37,0,0,1,.85-.31,1.19,1.19,0,0,1,.47.09l-.28.7a1,1,0,0,0-.42-.08,1.22,1.22,0,0,0-.76.32,3.15,3.15,0,0,0-.7.94l-.61,3.16Z" transform="translate(-3.37 -3.39)" fill="#322f5b"/><path d="M92.68,95.74a1.47,1.47,0,0,1-.55-.09.86.86,0,0,1-.57-.58,1.56,1.56,0,0,1-.06-.44,2.44,2.44,0,0,1,0-.28,2.51,2.51,0,0,1,0-.27l.57-2.82H91.4l.11-.58.77-.06.37-1.38h.66L93,90.62h1.25l-.12.64H92.89l-.57,2.86a2.22,2.22,0,0,0,0,.37.68.68,0,0,0,.14.46.65.65,0,0,0,.49.15.87.87,0,0,0,.28,0l.24-.1.18.56a2.7,2.7,0,0,1-.41.16A2.13,2.13,0,0,1,92.68,95.74Z" transform="translate(-3.37 -3.39)" fill="#322f5b"/><path d="M94.41,95.61l1-5H96l-.07.75h0a8.17,8.17,0,0,1,.84-.62,1.69,1.69,0,0,1,.89-.25,1.13,1.13,0,0,1,.9.32,1.42,1.42,0,0,1,.27.92,1.82,1.82,0,0,1,0,.33,2,2,0,0,1-.07.36l-.62,3.18h-.77l.6-3.08q0-.21.06-.33a2.11,2.11,0,0,0,0-.25.87.87,0,0,0-.17-.58.73.73,0,0,0-.56-.19,1.33,1.33,0,0,0-.66.21,4.92,4.92,0,0,0-.83.69l-.69,3.54Z" transform="translate(-3.37 -3.39)" fill="#322f5b"/><path d="M99.76,93.64a3.13,3.13,0,0,1,.23-1.29,3.21,3.21,0,0,1,.6-1,2.88,2.88,0,0,1,.84-.65,2.25,2.25,0,0,1,1-.22,1.62,1.62,0,0,1,.7.13,1.31,1.31,0,0,1,.48.38,1.72,1.72,0,0,1,.27.58,3.22,3.22,0,0,1,.08.71,2.62,2.62,0,0,1-.06.57c0,.18-.08.31-.11.41h-3.22a2.22,2.22,0,0,0,0,.82,1.37,1.37,0,0,0,.27.57,1.12,1.12,0,0,0,.47.33,1.64,1.64,0,0,0,.6.1,1.36,1.36,0,0,0,.58-.13,2.71,2.71,0,0,0,.53-.3l.3.52a2.89,2.89,0,0,1-.7.38,2.57,2.57,0,0,1-.9.16,1.88,1.88,0,0,1-1.41-.54A2.07,2.07,0,0,1,99.76,93.64Zm.86-.91h2.6l0-.25a2.13,2.13,0,0,0,0-.27,1.4,1.4,0,0,0-.06-.41.85.85,0,0,0-.16-.36.73.73,0,0,0-.3-.24.87.87,0,0,0-.44-.1,1.25,1.25,0,0,0-.54.12,1.48,1.48,0,0,0-.48.33,2.32,2.32,0,0,0-.4.51A2.35,2.35,0,0,0,100.62,92.73Z" transform="translate(-3.37 -3.39)" fill="#322f5b"/><path d="M104.56,95.59l1-5h.65l-.11,1h0a2.83,2.83,0,0,1,.68-.77,1.33,1.33,0,0,1,.85-.31,1,1,0,0,1,.47.09l-.27.7a.89.89,0,0,0-.43-.09,1.19,1.19,0,0,0-.75.33,2.84,2.84,0,0,0-.71.93l-.61,3.16Z" transform="translate(-3.37 -3.39)" fill="#322f5b"/><path d="M33.45,129h-2.9v-1.27h4.51v.92c-1.49,1.83-1.7,3-1.81,5.6H31.73A8.8,8.8,0,0,1,33.45,129Z" transform="translate(-3.37 -3.39)" fill="#322f5b"/><path d="M35.81,129.57c0-1.33.69-2.11,1.65-2.12s1.66.78,1.67,2.12-.7,2.13-1.66,2.13S35.82,130.92,35.81,129.57Zm2.27,0c0-1-.28-1.28-.62-1.27s-.61.32-.61,1.27.28,1.29.62,1.29S38.08,130.52,38.08,129.57Zm3.19-2.13h.87l-3.57,6.95H37.7Zm-.55,4.81c0-1.33.69-2.12,1.65-2.12s1.66.78,1.67,2.12-.7,2.13-1.66,2.13S40.73,133.6,40.72,132.25Zm2.27,0c0-1-.28-1.28-.62-1.27s-.61.31-.61,1.27.28,1.29.62,1.29S43,133.2,43,132.25Z" transform="translate(-3.37 -3.39)" fill="#322f5b"/><path d="M46.69,134.25,48,127.51h1.25a2.88,2.88,0,0,1,2.11.68,2.62,2.62,0,0,1,.73,1.94,5.59,5.59,0,0,1-.25,1.68,3.88,3.88,0,0,1-.71,1.3A3.19,3.19,0,0,1,50,134a3.63,3.63,0,0,1-1.51.3Zm.91-.66h.88a2.79,2.79,0,0,0,1.17-.25,2.73,2.73,0,0,0,.88-.7,3.08,3.08,0,0,0,.56-1.08,4.65,4.65,0,0,0,.19-1.38,1.84,1.84,0,0,0-2.06-2h-.55Z" transform="translate(-3.37 -3.39)" fill="#322f5b"/><path d="M52.67,134.24l1-5h.79l-1,5Zm1.64-6a.61.61,0,0,1-.35-.11.43.43,0,0,1-.15-.35.54.54,0,0,1,.18-.42.59.59,0,0,1,.41-.18.54.54,0,0,1,.35.13.43.43,0,0,1,.15.35.54.54,0,0,1-.18.42A.57.57,0,0,1,54.31,128.2Z" transform="translate(-3.37 -3.39)" fill="#322f5b"/><path d="M56,134.23l-.74-5h.78l.37,2.88c0,.24,0,.49.07.75s0,.5.08.74h0l.35-.74.37-.75,1.46-2.89h.78l-2.63,5Z" transform="translate(-3.37 -3.39)" fill="#322f5b"/><path d="M61.28,134.34a1.59,1.59,0,0,1-1.28-.53,2.1,2.1,0,0,1-.48-1.47,3.66,3.66,0,0,1,.22-1.3,3.18,3.18,0,0,1,.6-1,3,3,0,0,1,.85-.67,2.19,2.19,0,0,1,1-.24,1.7,1.7,0,0,1,1.29.53A2.13,2.13,0,0,1,64,131.1a3.5,3.5,0,0,1-.22,1.31,3.31,3.31,0,0,1-.6,1,2.64,2.64,0,0,1-.86.67A2.19,2.19,0,0,1,61.28,134.34Zm.08-.65a1.2,1.2,0,0,0,.67-.21,2.07,2.07,0,0,0,.57-.54,2.62,2.62,0,0,0,.41-.8,3.21,3.21,0,0,0,.15-1,1.72,1.72,0,0,0-.27-1,.93.93,0,0,0-.79-.36,1.24,1.24,0,0,0-.66.2,1.89,1.89,0,0,0-.58.55,2.87,2.87,0,0,0-.41.8,3.21,3.21,0,0,0-.15,1,1.72,1.72,0,0,0,.27,1A.93.93,0,0,0,61.36,133.69Z" transform="translate(-3.37 -3.39)" fill="#322f5b"/><path d="M64.61,134.21l1-5h.64l-.11.95h0a3,3,0,0,1,.69-.77,1.31,1.31,0,0,1,.85-.31,1.23,1.23,0,0,1,.47.09l-.28.7a1,1,0,0,0-.43-.08,1.22,1.22,0,0,0-.75.32,2.78,2.78,0,0,0-.7.94l-.61,3.15Z" transform="translate(-3.37 -3.39)" fill="#322f5b"/><path d="M69.84,134.33a1.78,1.78,0,0,1-1.32-.52,2,2,0,0,1-.51-1.48,3.57,3.57,0,0,1,.23-1.29,3.2,3.2,0,0,1,.61-1,2.78,2.78,0,0,1,.88-.68,2.34,2.34,0,0,1,1-.25,1.49,1.49,0,0,1,.75.18,1.82,1.82,0,0,1,.53.43l-.46.49a1.32,1.32,0,0,0-.39-.34,1,1,0,0,0-.49-.11,1.36,1.36,0,0,0-.71.21,2.11,2.11,0,0,0-.61.55,2.84,2.84,0,0,0-.43.81,3.08,3.08,0,0,0-.15,1,1.59,1.59,0,0,0,.29,1,1.06,1.06,0,0,0,.88.36,1.25,1.25,0,0,0,.59-.14,3.3,3.3,0,0,0,.51-.31l.35.52a4.29,4.29,0,0,1-.65.39A2.21,2.21,0,0,1,69.84,134.33Z" transform="translate(-3.37 -3.39)" fill="#322f5b"/><path d="M72.2,132.23A3.37,3.37,0,0,1,73,130a2.64,2.64,0,0,1,.85-.65,2.19,2.19,0,0,1,1-.23,1.7,1.7,0,0,1,.71.14,1.26,1.26,0,0,1,.47.38,1.64,1.64,0,0,1,.27.58,3.15,3.15,0,0,1,.08.71,2.47,2.47,0,0,1-.06.56c0,.18-.08.32-.11.42H73a2.28,2.28,0,0,0,0,.83,1.51,1.51,0,0,0,.27.57,1.12,1.12,0,0,0,.47.33,1.64,1.64,0,0,0,.6.1,1.4,1.4,0,0,0,.59-.13,3,3,0,0,0,.52-.31l.31.53a3.16,3.16,0,0,1-.71.37,2.35,2.35,0,0,1-.89.17,1.9,1.9,0,0,1-1.42-.54A2.12,2.12,0,0,1,72.2,132.23Zm.86-.9h2.6l0-.24a2.45,2.45,0,0,0,0-.27,1.93,1.93,0,0,0,0-.42,1,1,0,0,0-.17-.35.79.79,0,0,0-.29-.25,1,1,0,0,0-.45-.09,1.45,1.45,0,0,0-.54.11,1.87,1.87,0,0,0-.48.33,2.65,2.65,0,0,0-.4.52A2.35,2.35,0,0,0,73.06,131.33Z" transform="translate(-3.37 -3.39)" fill="#322f5b"/><path d="M81,129.79l.16-1,.39-2h.78l-1.45,7.32h-.64l.08-.74h0a3.05,3.05,0,0,1-.81.63,1.88,1.88,0,0,1-.91.24,1.31,1.31,0,0,1-1-.46,2.05,2.05,0,0,1-.39-1.35,4,4,0,0,1,.22-1.35,3.82,3.82,0,0,1,.6-1.09,2.93,2.93,0,0,1,.85-.73,2,2,0,0,1,1-.27,1.22,1.22,0,0,1,.69.2,1.45,1.45,0,0,1,.48.53Zm-2.16,3.86a1.56,1.56,0,0,0,.78-.23,2.77,2.77,0,0,0,.78-.73l.44-2.23a1.63,1.63,0,0,0-.47-.57,1,1,0,0,0-.54-.17,1.29,1.29,0,0,0-.71.22,2.17,2.17,0,0,0-.61.6,2.76,2.76,0,0,0-.42.84,3,3,0,0,0-.16,1,1.51,1.51,0,0,0,.25,1A.81.81,0,0,0,78.81,133.65Z" transform="translate(-3.37 -3.39)" fill="#322f5b"/><path d="M81.21,135.82l4.4-8.95h.57l-4.41,8.95Z" transform="translate(-3.37 -3.39)" fill="#322f5b"/><path d="M32.49,147.62a2.66,2.66,0,0,1-1.26-.29,2.58,2.58,0,0,1-1-.9l.58-.44a2.12,2.12,0,0,0,.73.7,1.92,1.92,0,0,0,1,.25,1.75,1.75,0,0,0,.57-.09,1.24,1.24,0,0,0,.45-.26,1.08,1.08,0,0,0,.3-.4,1,1,0,0,0,.11-.52.88.88,0,0,0-.23-.63,2.8,2.8,0,0,0-.6-.48l-.78-.47a3,3,0,0,1-.73-.64,1.43,1.43,0,0,1-.3-.94,1.58,1.58,0,0,1,.16-.72,1.7,1.7,0,0,1,.43-.6,2.06,2.06,0,0,1,.65-.41,2.27,2.27,0,0,1,.83-.15,2.2,2.2,0,0,1,1.09.27,2.43,2.43,0,0,1,.81.67l-.52.48a2.38,2.38,0,0,0-.62-.52,1.54,1.54,0,0,0-.82-.21,1.36,1.36,0,0,0-.51.09,1.67,1.67,0,0,0-.38.25,1.21,1.21,0,0,0-.24.35,1.14,1.14,0,0,0-.08.4.87.87,0,0,0,.26.63,3.48,3.48,0,0,0,.61.47l.78.46a2.55,2.55,0,0,1,.75.65,1.57,1.57,0,0,1,.26.93,2.05,2.05,0,0,1-.17.83,2,2,0,0,1-.48.66,2.18,2.18,0,0,1-.73.42A2.61,2.61,0,0,1,32.49,147.62Z" transform="translate(-3.37 -3.39)" fill="#322f5b"/><path d="M35.67,145.53a3.42,3.42,0,0,1,.83-2.29,2.68,2.68,0,0,1,.84-.64,2.13,2.13,0,0,1,1-.23,1.65,1.65,0,0,1,.7.13,1.31,1.31,0,0,1,.48.38,1.72,1.72,0,0,1,.27.58,3.22,3.22,0,0,1,.08.71,2.62,2.62,0,0,1-.06.57c0,.18-.08.31-.11.41H36.45a2.22,2.22,0,0,0,0,.82,1.51,1.51,0,0,0,.27.57,1.12,1.12,0,0,0,.47.33,1.64,1.64,0,0,0,.6.1,1.36,1.36,0,0,0,.58-.13,2.28,2.28,0,0,0,.53-.3l.3.52a2.89,2.89,0,0,1-.7.38,2.35,2.35,0,0,1-.89.16,1.88,1.88,0,0,1-1.42-.54A2.07,2.07,0,0,1,35.67,145.53Zm.86-.91h2.6l0-.25a2.13,2.13,0,0,0,0-.27,1.4,1.4,0,0,0-.06-.41.9.9,0,0,0-.16-.36.76.76,0,0,0-.29-.24.83.83,0,0,0-.45-.09,1.27,1.27,0,0,0-.54.11,1.65,1.65,0,0,0-.48.33,2.32,2.32,0,0,0-.4.51A2.48,2.48,0,0,0,36.53,144.62Z" transform="translate(-3.37 -3.39)" fill="#322f5b"/><path d="M41.31,146.88,41.13,148l-.31,1.64H40l1.39-7.11h.65l-.06.66h0a4.44,4.44,0,0,1,.81-.55,1.77,1.77,0,0,1,.9-.23,1.26,1.26,0,0,1,1,.46,2.1,2.1,0,0,1,.39,1.34,4,4,0,0,1-.23,1.35,3.46,3.46,0,0,1-.59,1.09,2.93,2.93,0,0,1-.85.73,2,2,0,0,1-1,.27,1.3,1.3,0,0,1-.7-.2,1.66,1.66,0,0,1-.5-.52ZM43.47,143a1.74,1.74,0,0,0-.76.22,2.87,2.87,0,0,0-.76.61l-.47,2.38a1.49,1.49,0,0,0,.46.56,1,1,0,0,0,.55.16,1.32,1.32,0,0,0,.72-.22,2.24,2.24,0,0,0,.6-.59,3.55,3.55,0,0,0,.42-.85,3.32,3.32,0,0,0,.15-1,1.52,1.52,0,0,0-.24-.95A.79.79,0,0,0,43.47,143Z" transform="translate(-3.37 -3.39)" fill="#322f5b"/><path d="M47.39,147.59a1.29,1.29,0,0,1-1-.46,2.05,2.05,0,0,1-.39-1.35,4.14,4.14,0,0,1,.22-1.34,3.69,3.69,0,0,1,.6-1.09,3,3,0,0,1,.86-.74,2.09,2.09,0,0,1,1-.26,1.14,1.14,0,0,1,.71.2,1.49,1.49,0,0,1,.49.54h0l.19-.62h.63l-1,5h-.65l.08-.74h0a2.86,2.86,0,0,1-.8.63A1.91,1.91,0,0,1,47.39,147.59Zm.29-.66a1.65,1.65,0,0,0,.79-.23,2.72,2.72,0,0,0,.76-.73l.45-2.23a1.6,1.6,0,0,0-.47-.56.92.92,0,0,0-.54-.18,1.33,1.33,0,0,0-.72.23,2.13,2.13,0,0,0-.61.59,3.37,3.37,0,0,0-.42.85,3.25,3.25,0,0,0-.15,1,1.58,1.58,0,0,0,.24,1A.81.81,0,0,0,47.68,146.93Z" transform="translate(-3.37 -3.39)" fill="#322f5b"/><path d="M51.25,147.46l1-5h.64l-.11,1h0a3.27,3.27,0,0,1,.69-.78,1.37,1.37,0,0,1,.85-.31,1.19,1.19,0,0,1,.47.09l-.28.7a1,1,0,0,0-.42-.08,1.22,1.22,0,0,0-.76.32,3.15,3.15,0,0,0-.7.94L52,147.46Z" transform="translate(-3.37 -3.39)" fill="#322f5b"/><path d="M56.07,147.57a1.29,1.29,0,0,1-1-.46,2.05,2.05,0,0,1-.39-1.35,4,4,0,0,1,.22-1.34,3.69,3.69,0,0,1,.6-1.09,2.82,2.82,0,0,1,.86-.73,2,2,0,0,1,1-.27,1.23,1.23,0,0,1,.71.2,1.49,1.49,0,0,1,.49.54h0l.19-.62h.63l-1,5h-.64l.08-.74h0a3,3,0,0,1-.8.63A1.94,1.94,0,0,1,56.07,147.57Zm.29-.66a1.65,1.65,0,0,0,.79-.23,2.72,2.72,0,0,0,.76-.73l.45-2.23a1.6,1.6,0,0,0-.47-.56.92.92,0,0,0-.54-.18,1.31,1.31,0,0,0-.72.23,2.13,2.13,0,0,0-.61.59,3.55,3.55,0,0,0-.42.85,3.3,3.3,0,0,0-.15,1,1.58,1.58,0,0,0,.24,1A.81.81,0,0,0,56.36,146.91Z" transform="translate(-3.37 -3.39)" fill="#322f5b"/><path d="M61.49,147.56a1.47,1.47,0,0,1-.55-.09,1.23,1.23,0,0,1-.37-.23.94.94,0,0,1-.2-.35,1.56,1.56,0,0,1-.06-.44,2.44,2.44,0,0,1,0-.28,2.51,2.51,0,0,1,0-.27l.57-2.82h-.72l.11-.59.77-.05.37-1.38h.66l-.27,1.38H63.1l-.12.63H61.71l-.58,2.86a2.22,2.22,0,0,0,0,.37.68.68,0,0,0,.14.46.65.65,0,0,0,.49.15.87.87,0,0,0,.28,0l.24-.1.18.56a2.74,2.74,0,0,1-.41.15A1.74,1.74,0,0,1,61.49,147.56Z" transform="translate(-3.37 -3.39)" fill="#322f5b"/><path d="M63.14,145.47a3.37,3.37,0,0,1,.23-1.29,3.41,3.41,0,0,1,.6-1,2.61,2.61,0,0,1,.85-.64,2.06,2.06,0,0,1,1-.23,1.7,1.7,0,0,1,.71.13,1.36,1.36,0,0,1,.47.38,1.82,1.82,0,0,1,.27.58,3.22,3.22,0,0,1,.08.71,2.62,2.62,0,0,1-.06.57c0,.18-.08.31-.11.41H63.92a2.22,2.22,0,0,0,0,.82,1.51,1.51,0,0,0,.27.57,1.12,1.12,0,0,0,.47.33,1.64,1.64,0,0,0,.6.1,1.33,1.33,0,0,0,.58-.13,2.28,2.28,0,0,0,.53-.3l.31.52a3.17,3.17,0,0,1-.71.38,2.35,2.35,0,0,1-.89.16,1.9,1.9,0,0,1-1.42-.54A2.1,2.1,0,0,1,63.14,145.47Zm.86-.91h2.6l0-.25a2.13,2.13,0,0,0,0-.27,1.84,1.84,0,0,0-.05-.41,1.09,1.09,0,0,0-.17-.36.76.76,0,0,0-.29-.24.93.93,0,0,0-.45-.09,1.27,1.27,0,0,0-.54.11,1.48,1.48,0,0,0-.48.33,2.32,2.32,0,0,0-.4.51A2.48,2.48,0,0,0,64,144.56Z" transform="translate(-3.37 -3.39)" fill="#322f5b"/><path d="M71.91,143l.16-1,.39-2h.78l-1.45,7.32h-.64l.08-.74h0a3.05,3.05,0,0,1-.81.63,1.91,1.91,0,0,1-.91.24,1.26,1.26,0,0,1-1-.46,2,2,0,0,1-.39-1.34,4,4,0,0,1,.22-1.35,3.69,3.69,0,0,1,.6-1.09,2.93,2.93,0,0,1,.85-.73,2,2,0,0,1,1-.27,1.17,1.17,0,0,1,.69.2,1.5,1.5,0,0,1,.48.52Zm-2.16,3.86a1.56,1.56,0,0,0,.78-.23,2.77,2.77,0,0,0,.78-.73l.44-2.23a1.5,1.5,0,0,0-.47-.56.92.92,0,0,0-.54-.18,1.39,1.39,0,0,0-.71.23,2.13,2.13,0,0,0-.61.59,2.93,2.93,0,0,0-.42.85,3,3,0,0,0-.16,1,1.51,1.51,0,0,0,.25,1A.78.78,0,0,0,69.75,146.88Z" transform="translate(-3.37 -3.39)" fill="#322f5b"/><path d="M72.15,149.06l4.4-8.95h.57l-4.41,9Z" transform="translate(-3.37 -3.39)" fill="#322f5b"/><path d="M77.49,147.4l.08-6.74h.81l-.09,3.71c0,.36,0,.72,0,1.09s0,.73-.06,1.1h0l.48-1.1c.16-.37.32-.73.47-1.1l1.66-3.71h.72l.1,3.71c0,.36,0,.72,0,1.08v1.11h0c.13-.37.27-.74.42-1.1l.42-1.09L84,140.64h.78l-2.73,6.75H81L81,143.27v-.77c0-.27,0-.54,0-.81h0a7.61,7.61,0,0,1-.31.79c-.11.26-.22.53-.34.79l-1.81,4.13Z" transform="translate(-3.37 -3.39)" fill="#322f5b"/><path d="M84.51,147.38l1-5h.78l-1,5Zm1.64-6a.51.51,0,0,1-.35-.12.41.41,0,0,1-.15-.34.6.6,0,0,1,.59-.6.55.55,0,0,1,.35.12.43.43,0,0,1,.15.35.54.54,0,0,1-.18.42A.6.6,0,0,1,86.15,141.35Z" transform="translate(-3.37 -3.39)" fill="#322f5b"/><path d="M90.79,143l.16-1,.38-2h.78l-1.45,7.32H90l.08-.74h0a3,3,0,0,1-.8.63,1.94,1.94,0,0,1-.92.24,1.29,1.29,0,0,1-1-.46,2.05,2.05,0,0,1-.39-1.35,3.92,3.92,0,0,1,.22-1.34,3.69,3.69,0,0,1,.6-1.09,2.9,2.9,0,0,1,.85-.73,2,2,0,0,1,1-.27,1.18,1.18,0,0,1,.7.2,1.61,1.61,0,0,1,.48.52Zm-2.17,3.86a1.62,1.62,0,0,0,.79-.23,2.89,2.89,0,0,0,.77-.73l.44-2.23a1.5,1.5,0,0,0-.47-.56.92.92,0,0,0-.54-.18,1.3,1.3,0,0,0-.71.23,2.13,2.13,0,0,0-.61.59,3.55,3.55,0,0,0-.42.85,3.31,3.31,0,0,0-.16,1,1.65,1.65,0,0,0,.25,1A.79.79,0,0,0,88.62,146.84Z" transform="translate(-3.37 -3.39)" fill="#322f5b"/><path d="M94,147.49a1.67,1.67,0,0,1-1.29-.53,2.13,2.13,0,0,1-.48-1.47,3.68,3.68,0,0,1,.22-1.31,3.2,3.2,0,0,1,.6-1,2.71,2.71,0,0,1,.85-.67,2.34,2.34,0,0,1,1-.25,1.64,1.64,0,0,1,1.29.54,2.09,2.09,0,0,1,.49,1.46,3.68,3.68,0,0,1-.23,1.31,3.2,3.2,0,0,1-.6,1,2.71,2.71,0,0,1-.85.67A2.2,2.2,0,0,1,94,147.49Zm.08-.66a1.24,1.24,0,0,0,.66-.2,2.28,2.28,0,0,0,.58-.54,2.79,2.79,0,0,0,.4-.81,3.1,3.1,0,0,0,.15-1,1.77,1.77,0,0,0-.27-1.05.92.92,0,0,0-.79-.36,1.3,1.3,0,0,0-.66.2,2.15,2.15,0,0,0-.58.55,2.8,2.8,0,0,0-.41.81,3.14,3.14,0,0,0-.15,1,1.63,1.63,0,0,0,.28,1A.92.92,0,0,0,94.12,146.83Z" transform="translate(-3.37 -3.39)" fill="#322f5b"/><path d="M98.1,147.35l-.37-5h.78l.17,2.94c0,.24,0,.47,0,.7s0,.46,0,.7h0c.1-.24.2-.47.29-.7s.19-.46.3-.7l1.29-2.94h.77l.18,2.94,0,.71c0,.23,0,.46,0,.69h0c.1-.23.19-.46.28-.69s.18-.47.29-.71l1.29-2.94h.73l-2.24,5h-1l-.15-2.73c0-.24,0-.49,0-.73s0-.5,0-.74h0l-.3.74-.3.73L99,147.35Z" transform="translate(-3.37 -3.39)" fill="#322f5b"/><path d="M104.42,145.38a3.57,3.57,0,0,1,.23-1.29,3.64,3.64,0,0,1,.6-1,2.61,2.61,0,0,1,.85-.64,2.12,2.12,0,0,1,1-.23,1.67,1.67,0,0,1,.71.13,1.36,1.36,0,0,1,.47.38,1.47,1.47,0,0,1,.27.58,2.71,2.71,0,0,1,.08.71,2.62,2.62,0,0,1-.06.57,2.85,2.85,0,0,1-.11.41H105.2a2.2,2.2,0,0,0,0,.82,1.26,1.26,0,0,0,.27.57,1.09,1.09,0,0,0,.46.33,1.64,1.64,0,0,0,.6.1,1.4,1.4,0,0,0,.59-.13,2.21,2.21,0,0,0,.52-.3l.31.52a3.09,3.09,0,0,1-.7.38,2.36,2.36,0,0,1-.9.16,1.91,1.91,0,0,1-1.42-.54A2.12,2.12,0,0,1,104.42,145.38Zm.86-.91h2.6c0-.09,0-.17,0-.25a2.26,2.26,0,0,0,0-.27,1.84,1.84,0,0,0-.05-.41,1.09,1.09,0,0,0-.17-.36.76.76,0,0,0-.29-.24.88.88,0,0,0-.45-.09,1.23,1.23,0,0,0-.53.11,1.76,1.76,0,0,0-.49.33,2.32,2.32,0,0,0-.4.51A2.48,2.48,0,0,0,105.28,144.47Z" transform="translate(-3.37 -3.39)" fill="#322f5b"/><path d="M113.2,142.93l.16-1,.38-2h.78l-1.45,7.32h-.64l.08-.74h0a3.18,3.18,0,0,1-.8.63,1.94,1.94,0,0,1-.92.24,1.29,1.29,0,0,1-1-.46,2,2,0,0,1-.39-1.34,4,4,0,0,1,.22-1.35,3.69,3.69,0,0,1,.6-1.09,2.93,2.93,0,0,1,.85-.73,2,2,0,0,1,1-.27,1.13,1.13,0,0,1,.69.2,1.63,1.63,0,0,1,.49.52ZM111,146.79a1.62,1.62,0,0,0,.79-.23,2.89,2.89,0,0,0,.77-.73l.44-2.23a1.5,1.5,0,0,0-.47-.56.92.92,0,0,0-.54-.18,1.39,1.39,0,0,0-.71.23,2.13,2.13,0,0,0-.61.59,2.93,2.93,0,0,0-.42.85,3.31,3.31,0,0,0-.16,1,1.57,1.57,0,0,0,.25,1A.78.78,0,0,0,111,146.79Z" transform="translate(-3.37 -3.39)" fill="#322f5b"/><line x1="0.17" y1="121.33" x2="23.1" y2="121.28" fill="none" stroke="#fff" stroke-miterlimit="10" stroke-width="0.73"/><line y1="44.96" x2="22.93" y2="44.91" fill="none" stroke="#fff" stroke-miterlimit="10" stroke-width="0.73"/></svg>