<svg id="percent" xmlns="http://www.w3.org/2000/svg" xmlns:xlink="http://www.w3.org/1999/xlink" viewBox="0 0 497.25 225.15"><defs><clipPath id="clip-path" transform="translate(-7.5 -6.25)"><rect x="7.5" y="6.25" width="498.12" height="229.16" fill="none"/></clipPath><clipPath id="clip-path-4" transform="translate(-7.5 -6.25)"><rect x="125.83" y="73.53" width="77.44" height="78.91" fill="none"/></clipPath><clipPath id="clip-path-6" transform="translate(-7.5 -6.25)"><rect x="111.22" y="137.23" width="93.51" height="94.11" fill="none"/></clipPath><clipPath id="clip-path-8" transform="translate(-7.5 -6.25)"><rect x="47.6" y="88.52" width="78.22" height="63.92" fill="none"/></clipPath><clipPath id="clip-path-9" transform="translate(-7.5 -6.25)"><rect x="47.6" y="88.52" width="78.22" height="63.92" fill="none"/></clipPath><clipPath id="clip-path-10" transform="translate(-7.5 -6.25)"><rect x="79.55" y="73.53" width="46.27" height="78.91" fill="none"/></clipPath><clipPath id="clip-path-11" transform="translate(-7.5 -6.25)"><rect x="79.55" y="73.53" width="46.27" height="78.91" fill="none"/></clipPath><clipPath id="clip-path-12" transform="translate(-7.5 -6.25)"><rect x="125.83" y="152.34" width="0.1" height="0.1" fill="none"/></clipPath><clipPath id="clip-path-13" transform="translate(-7.5 -6.25)"><path d="M125.83,152.44" fill="none"/></clipPath></defs><title>percent</title><rect x="259.46" y="0.06" width="54.48" height="27.24" fill="#fff"/><rect x="259.46" y="0.06" width="54.48" height="2.1" fill="#b22234"/><rect x="259.46" y="4.25" width="54.48" height="2.1" fill="#b22234"/><rect x="259.46" y="8.44" width="54.48" height="2.1" fill="#b22234"/><rect x="259.46" y="12.64" width="54.48" height="2.1" fill="#b22234"/><rect x="259.46" y="16.83" width="54.48" height="2.1" fill="#b22234"/><rect x="259.46" y="21.02" width="54.48" height="2.1" fill="#b22234"/><rect x="259.46" y="25.21" width="54.48" height="2.1" fill="#b22234"/><rect x="259.46" y="0.06" width="20.7" height="14.67" fill="#3c3b6e"/><polygon points="261.04 1.25 260.43 1.25 260.93 1.61 260.74 2.19 261.23 1.83 261.72 2.19 261.54 1.61 262.03 1.25 261.42 1.25 261.23 0.67 261.04 1.25" fill="#fff"/><polygon points="264.47 1.25 263.87 1.25 264.36 1.61 264.17 2.19 264.66 1.83 265.16 2.19 264.97 1.61 265.46 1.25 264.85 1.25 264.66 0.67 264.47 1.25" fill="#fff"/><polygon points="267.91 1.25 267.3 1.25 267.79 1.61 267.6 2.19 268.1 1.83 268.59 2.19 268.4 1.61 268.89 1.25 268.29 1.25 268.1 0.67 267.91 1.25" fill="#fff"/><polygon points="271.34 1.25 270.73 1.25 271.22 1.61 271.04 2.19 271.53 1.83 272.02 2.19 271.83 1.61 272.33 1.25 271.72 1.25 271.53 0.67 271.34 1.25" fill="#fff"/><polygon points="274.77 1.25 274.16 1.25 274.66 1.61 274.47 2.19 274.96 1.83 275.45 2.19 275.27 1.61 275.76 1.25 275.15 1.25 274.96 0.67 274.77 1.25" fill="#fff"/><polygon points="278.21 1.25 277.6 1.25 278.09 1.61 277.9 2.19 278.39 1.83 278.89 2.19 278.7 1.61 279.19 1.25 278.58 1.25 278.39 0.67 278.21 1.25" fill="#fff"/><polygon points="262.15 2.73 262.64 3.08 262.45 3.66 262.95 3.31 263.44 3.66 263.25 3.08 263.75 2.73 263.14 2.73 262.95 2.14 262.76 2.73 262.15 2.73" fill="#fff"/><polygon points="265.58 2.73 266.07 3.08 265.89 3.66 266.38 3.31 266.87 3.66 266.69 3.08 267.18 2.73 266.57 2.73 266.38 2.14 266.19 2.73 265.58 2.73" fill="#fff"/><polygon points="269.01 2.73 269.51 3.08 269.32 3.66 269.81 3.31 270.31 3.66 270.12 3.08 270.61 2.73 270 2.73 269.81 2.14 269.62 2.73 269.01 2.73" fill="#fff"/><polygon points="272.45 2.73 272.94 3.08 272.75 3.66 273.24 3.31 273.74 3.66 273.55 3.08 274.04 2.73 273.43 2.73 273.24 2.14 273.06 2.73 272.45 2.73" fill="#fff"/><polygon points="275.88 2.73 276.37 3.08 276.18 3.66 276.68 3.31 277.17 3.66 276.98 3.08 277.48 2.73 276.87 2.73 276.68 2.14 276.49 2.73 275.88 2.73" fill="#fff"/><polygon points="260.43 4.2 260.93 4.55 260.74 5.13 261.23 4.78 261.72 5.13 261.54 4.55 262.03 4.2 261.42 4.2 261.23 3.62 261.04 4.2 260.43 4.2" fill="#fff"/><polygon points="263.87 4.2 264.36 4.55 264.17 5.13 264.66 4.78 265.16 5.13 264.97 4.55 265.46 4.2 264.85 4.2 264.66 3.62 264.48 4.2 263.87 4.2" fill="#fff"/><polygon points="267.3 4.2 267.79 4.55 267.6 5.13 268.1 4.78 268.59 5.13 268.4 4.55 268.89 4.2 268.28 4.2 268.1 3.62 267.91 4.2 267.3 4.2" fill="#fff"/><polygon points="270.73 4.2 271.22 4.55 271.04 5.13 271.53 4.78 272.02 5.13 271.83 4.55 272.33 4.2 271.72 4.2 271.53 3.62 271.34 4.2 270.73 4.2" fill="#fff"/><polygon points="274.16 4.2 274.66 4.55 274.47 5.13 274.96 4.78 275.45 5.13 275.27 4.55 275.76 4.2 275.15 4.2 274.96 3.62 274.77 4.2 274.16 4.2" fill="#fff"/><polygon points="277.6 4.2 278.09 4.55 277.9 5.13 278.39 4.78 278.89 5.13 278.7 4.55 279.19 4.2 278.58 4.2 278.39 3.62 278.21 4.2 277.6 4.2" fill="#fff"/><polygon points="262.19 5.67 262.68 6.03 262.5 6.61 262.99 6.25 263.48 6.61 263.29 6.03 263.79 5.67 263.18 5.67 262.99 5.09 262.8 5.67 262.19 5.67" fill="#fff"/><polygon points="265.62 5.67 266.12 6.03 265.93 6.61 266.42 6.25 266.92 6.61 266.73 6.03 267.22 5.67 266.61 5.67 266.42 5.09 266.23 5.67 265.62 5.67" fill="#fff"/><polygon points="269.06 5.67 269.55 6.03 269.36 6.61 269.85 6.25 270.35 6.61 270.16 6.03 270.65 5.67 270.04 5.67 269.85 5.09 269.67 5.67 269.06 5.67" fill="#fff"/><polygon points="272.49 5.67 272.98 6.03 272.79 6.61 273.29 6.25 273.78 6.61 273.59 6.03 274.08 5.67 273.48 5.67 273.29 5.09 273.1 5.67 272.49 5.67" fill="#fff"/><polygon points="275.92 5.67 276.42 6.03 276.23 6.61 276.72 6.25 277.21 6.61 277.02 6.03 277.52 5.67 276.91 5.67 276.72 5.09 276.53 5.67 275.92 5.67" fill="#fff"/><polygon points="260.49 7.13 260.98 7.49 260.79 8.07 261.28 7.71 261.78 8.07 261.59 7.49 262.08 7.13 261.47 7.13 261.28 6.55 261.1 7.13 260.49 7.13" fill="#fff"/><polygon points="263.92 7.13 264.41 7.49 264.22 8.07 264.71 7.71 265.21 8.07 265.02 7.49 265.51 7.13 264.9 7.13 264.71 6.55 264.53 7.13 263.92 7.13" fill="#fff"/><polygon points="267.35 7.13 267.84 7.49 267.65 8.07 268.15 7.71 268.64 8.07 268.45 7.49 268.95 7.13 268.34 7.13 268.15 6.55 267.96 7.13 267.35 7.13" fill="#fff"/><polygon points="270.78 7.13 271.27 7.49 271.09 8.07 271.58 7.71 272.07 8.07 271.88 7.49 272.38 7.13 271.77 7.13 271.58 6.55 271.39 7.13 270.78 7.13" fill="#fff"/><polygon points="274.21 7.13 274.71 7.49 274.52 8.07 275.01 7.71 275.51 8.07 275.32 7.49 275.81 7.13 275.2 7.13 275.01 6.55 274.82 7.13 274.21 7.13" fill="#fff"/><polygon points="277.65 7.13 278.14 7.49 277.95 8.07 278.45 7.71 278.94 8.07 278.75 7.49 279.24 7.13 278.63 7.13 278.44 6.55 278.26 7.13 277.65 7.13" fill="#fff"/><polygon points="260.52 10.03 261.01 10.38 260.82 10.96 261.31 10.61 261.81 10.96 261.62 10.38 262.11 10.03 261.5 10.03 261.31 9.45 261.13 10.03 260.52 10.03" fill="#fff"/><polygon points="263.95 10.03 264.44 10.38 264.25 10.96 264.75 10.61 265.24 10.96 265.05 10.38 265.55 10.03 264.94 10.03 264.75 9.45 264.56 10.03 263.95 10.03" fill="#fff"/><polygon points="267.38 10.03 267.88 10.38 267.69 10.96 268.18 10.61 268.67 10.96 268.49 10.38 268.98 10.03 268.37 10.03 268.18 9.45 267.99 10.03 267.38 10.03" fill="#fff"/><polygon points="270.81 10.03 271.31 10.38 271.12 10.96 271.61 10.61 272.11 10.96 271.92 10.38 272.41 10.03 271.8 10.03 271.61 9.45 271.43 10.03 270.81 10.03" fill="#fff"/><polygon points="274.25 10.03 274.74 10.38 274.55 10.96 275.05 10.61 275.54 10.96 275.35 10.38 275.84 10.03 275.23 10.03 275.05 9.45 274.86 10.03 274.25 10.03" fill="#fff"/><polygon points="277.68 10.03 278.17 10.38 277.98 10.96 278.48 10.61 278.97 10.96 278.78 10.38 279.28 10.03 278.67 10.03 278.48 9.45 278.29 10.03 277.68 10.03" fill="#fff"/><polygon points="260.48 12.96 260.97 13.31 260.78 13.89 261.27 13.54 261.76 13.89 261.58 13.31 262.07 12.96 261.46 12.96 261.27 12.38 261.08 12.96 260.48 12.96" fill="#fff"/><polygon points="263.91 12.96 264.4 13.31 264.21 13.89 264.71 13.54 265.2 13.89 265.01 13.31 265.5 12.96 264.89 12.96 264.71 12.38 264.52 12.96 263.91 12.96" fill="#fff"/><polygon points="267.34 12.96 267.83 13.31 267.64 13.89 268.14 13.54 268.63 13.89 268.44 13.31 268.94 12.96 268.33 12.96 268.14 12.38 267.95 12.96 267.34 12.96" fill="#fff"/><polygon points="270.77 12.96 271.27 13.31 271.08 13.89 271.57 13.54 272.06 13.89 271.88 13.31 272.37 12.96 271.76 12.96 271.57 12.38 271.38 12.96 270.77 12.96" fill="#fff"/><polygon points="274.2 12.96 274.7 13.31 274.51 13.89 275 13.54 275.5 13.89 275.31 13.31 275.8 12.96 275.19 12.96 275 12.38 274.81 12.96 274.2 12.96" fill="#fff"/><polygon points="277.64 12.96 278.13 13.31 277.94 13.89 278.44 13.54 278.93 13.89 278.74 13.31 279.23 12.96 278.62 12.96 278.44 12.38 278.25 12.96 277.64 12.96" fill="#fff"/><polygon points="262.2 8.56 262.69 8.92 262.51 9.5 263 9.14 263.49 9.5 263.31 8.92 263.8 8.56 263.19 8.56 263 7.98 262.81 8.56 262.2 8.56" fill="#fff"/><polygon points="265.63 8.56 266.13 8.92 265.94 9.5 266.43 9.14 266.93 9.5 266.74 8.92 267.23 8.56 266.62 8.56 266.43 7.98 266.24 8.56 265.63 8.56" fill="#fff"/><polygon points="269.07 8.56 269.56 8.92 269.37 9.5 269.86 9.14 270.36 9.5 270.17 8.92 270.66 8.56 270.05 8.56 269.86 7.98 269.68 8.56 269.07 8.56" fill="#fff"/><polygon points="272.5 8.56 272.99 8.92 272.8 9.5 273.3 9.14 273.79 9.5 273.6 8.92 274.1 8.56 273.49 8.56 273.3 7.98 273.11 8.56 272.5 8.56" fill="#fff"/><polygon points="275.93 8.56 276.43 8.92 276.24 9.5 276.73 9.14 277.22 9.5 277.04 8.92 277.53 8.56 276.92 8.56 276.73 7.98 276.54 8.56 275.93 8.56" fill="#fff"/><polygon points="262.19 11.49 262.68 11.85 262.5 12.43 262.99 12.07 263.48 12.43 263.29 11.85 263.79 11.49 263.18 11.49 262.99 10.91 262.8 11.49 262.19 11.49" fill="#fff"/><polygon points="265.62 11.49 266.12 11.85 265.93 12.43 266.42 12.07 266.92 12.43 266.73 11.85 267.22 11.49 266.61 11.49 266.42 10.91 266.23 11.49 265.62 11.49" fill="#fff"/><polygon points="269.06 11.49 269.55 11.85 269.36 12.43 269.85 12.07 270.35 12.43 270.16 11.85 270.65 11.49 270.04 11.49 269.85 10.91 269.67 11.49 269.06 11.49" fill="#fff"/><polygon points="272.49 11.49 272.98 11.85 272.79 12.43 273.29 12.07 273.78 12.43 273.59 11.85 274.08 11.49 273.48 11.49 273.29 10.91 273.1 11.49 272.49 11.49" fill="#fff"/><polygon points="275.92 11.49 276.42 11.85 276.23 12.43 276.72 12.07 277.21 12.43 277.02 11.85 277.52 11.49 276.91 11.49 276.72 10.91 276.53 11.49 275.92 11.49" fill="#fff"/><rect x="320.43" y="0.06" width="54.46" height="27.24" fill="#fff"/><polygon points="352.19 0.06 352.19 8.88 369.83 0.06 352.19 0.06" fill="#00008b"/><polygon points="352.19 18.48 352.19 27.3 369.83 27.3 352.19 18.48" fill="#00008b"/><polygon points="343.12 18.48 343.12 27.3 325.49 27.3 343.12 18.48" fill="#00008b"/><polygon points="325.49 0.06 343.12 8.88 343.12 0.06 325.49 0.06" fill="#00008b"/><polygon points="320.43 2.6 320.43 9.14 333.52 9.14 320.43 2.6" fill="#00008b"/><polygon points="374.88 2.6 374.88 9.14 361.79 9.14 374.88 2.6" fill="#00008b"/><polygon points="374.88 24.77 374.88 18.22 361.79 18.22 374.88 24.77" fill="#00008b"/><polygon points="320.43 24.77 320.43 18.22 333.52 18.22 320.43 24.77" fill="#00008b"/><polygon points="344.93 0.06 344.93 10.95 320.43 10.95 320.43 16.4 344.93 16.4 344.93 27.3 350.38 27.3 350.38 16.4 374.88 16.4 374.88 10.95 350.38 10.95 350.38 0.06 344.93 0.06" fill="red"/><polygon points="374.88 0.06 371.86 0.06 353.74 9.14 356.76 9.14 374.91 0.06 374.88 0.06" fill="red"/><polyline points="341.58 18.22 338.55 18.22 320.43 27.3 323.45 27.3 341.6 18.22" fill="red"/><polygon points="320.43 1.59 335.55 9.15 338.57 9.15 320.43 0.06 320.43 1.59" fill="red"/><polygon points="359.75 18.22 356.73 18.22 374.87 27.3 374.87 25.78 359.75 18.22" fill="red"/><rect x="381.8" width="54.49" height="27.24" fill="red"/><rect x="395.42" width="27.24" height="27.24" fill="#fff"/><g clip-path="url(#clip-path)"><path d="M416.54,8.8l-1.86,3.47c-.21.38-.59.34-1,.13l-1.35-.7,1,5.33c.21,1-.47,1-.8.55L410.22,15l-.38,1.34a.46.46,0,0,1-.53.31l-3-.62.78,2.83c.17.63.3.89-.17,1.06l-1.06.5L411,24.52a.68.68,0,0,1,.23.7l-.45,1.47c1.76-.21,3.34-.51,5.1-.7.15,0,.42.24.41.42l-.23,5.38h.86l-.14-5.37c0-.18.24-.45.39-.43,1.76.19,3.34.49,5.1.7l-.45-1.47a.67.67,0,0,1,.24-.7l5.11-4.15-1.06-.5c-.47-.17-.34-.43-.17-1.06l.78-2.83-3,.62a.46.46,0,0,1-.53-.31L422.85,15l-2.35,2.63c-.33.42-1,.42-.8-.55l1-5.33-1.35.7c-.38.21-.75.25-1-.13" transform="translate(-7.5 -6.25)" fill="red"/><rect x="442.76" width="54.49" height="27.24" fill="#00008b"/><polygon points="442.76 13.62 470.01 13.62 470.01 0 479.08 0 479.08 18.16 442.76 18.16 442.76 13.62" fill="#00008b"/><polygon points="456.38 16.34 457.17 18.8 459.58 17.88 458.15 20.03 460.37 21.34 457.8 21.56 458.16 24.11 456.38 22.25 454.61 24.11 454.96 21.56 452.4 21.34 454.61 20.03 453.19 17.88 455.6 18.8 456.38 16.34" fill="#fff"/><rect x="442.76" width="27.33" height="13.67" fill="#fff"/><polygon points="458.7 4.42 458.7 0 467.55 0 458.7 4.42" fill="#00008b"/><polygon points="458.7 9.24 458.7 13.67 467.55 13.67 458.7 9.24" fill="#00008b"/><polygon points="454.15 9.24 454.15 13.67 445.3 13.67 454.15 9.24" fill="#00008b"/><polygon points="454.15 4.42 454.15 0 445.3 0 454.15 4.42" fill="#00008b"/><polygon points="442.76 1.27 442.76 4.55 449.33 4.55 442.76 1.27" fill="#00008b"/><polygon points="470.09 1.27 470.09 4.55 463.52 4.55 470.09 1.27" fill="#00008b"/><polygon points="470.09 12.4 470.09 9.11 463.52 9.11 470.09 12.4" fill="#00008b"/><polygon points="442.76 12.4 442.76 9.11 449.33 9.11 442.76 12.4" fill="#00008b"/><polygon points="455.06 8.2 455.06 13.67 457.79 13.67 457.79 8.2 470.09 8.2 470.09 5.47 457.79 5.47 457.79 0 455.06 0 455.06 5.47 442.76 5.47 442.76 8.2 455.06 8.2" fill="red"/><polyline points="470.09 0 468.57 0 459.48 4.55 461 4.55 470.11 0" fill="red"/><polyline points="453.38 9.11 451.86 9.11 442.76 13.67 444.28 13.67 453.39 9.11" fill="red"/><polygon points="450.35 4.56 451.87 4.56 442.76 0 442.76 0.77 450.35 4.56" fill="red"/><polygon points="462.5 9.11 460.98 9.11 470.09 13.67 470.09 12.91 462.5 9.11" fill="red"/><polygon points="483.63 20.75 484 21.92 485.15 21.49 484.47 22.51 485.52 23.14 484.3 23.24 484.47 24.46 483.63 23.57 482.78 24.46 482.95 23.24 481.73 23.14 482.78 22.51 482.11 21.49 483.25 21.92 483.63 20.75" fill="#fff"/><polygon points="476.82 9.97 477.19 11.14 478.34 10.71 477.66 11.72 478.71 12.35 477.49 12.46 477.66 13.67 476.82 12.78 475.97 13.67 476.14 12.46 474.92 12.35 475.97 11.72 475.3 10.71 476.44 11.14 476.82 9.97" fill="#fff"/><polygon points="483.63 2.59 484 3.76 485.15 3.33 484.47 4.35 485.52 4.97 484.3 5.08 484.47 6.29 483.63 5.41 482.78 6.29 482.95 5.08 481.73 4.97 482.78 4.35 482.11 3.33 483.25 3.76 483.63 2.59" fill="#fff"/><polygon points="489.68 8.16 490.06 9.32 491.2 8.89 490.52 9.91 491.58 10.54 490.36 10.64 490.52 11.86 489.68 10.97 488.84 11.86 489 10.64 487.78 10.54 488.84 9.91 488.16 8.89 489.31 9.32 489.68 8.16" fill="#fff"/><polygon points="486.35 13.62 486.65 14.35 487.43 14.4 486.83 14.91 487.02 15.67 486.35 15.26 485.68 15.67 485.87 14.91 485.27 14.4 486.05 14.35 486.35 13.62" fill="#fff"/></g><path d="M285.65,89.29a1.61,1.61,0,0,1-.71-.16,1.45,1.45,0,0,1-.52-.43,2.27,2.27,0,0,1-.33-.66,2.66,2.66,0,0,1-.12-.82,5,5,0,0,1,.17-1.26,4.29,4.29,0,0,1,.48-1.16,2.86,2.86,0,0,1,.78-.84,1.78,1.78,0,0,1,1.05-.31,1.64,1.64,0,0,1,.71.15,1.57,1.57,0,0,1,.52.44,1.88,1.88,0,0,1,.32.65,2.66,2.66,0,0,1,.12.82A5.1,5.1,0,0,1,288,87a3.84,3.84,0,0,1-.49,1.15,2.82,2.82,0,0,1-.78.83A1.8,1.8,0,0,1,285.65,89.29Zm.06-.68a1,1,0,0,0,.68-.26,2.2,2.2,0,0,0,.51-.67,3.89,3.89,0,0,0,.31-.91,4.77,4.77,0,0,0,.11-1,2.16,2.16,0,0,0-.22-1,.73.73,0,0,0-.72-.41,1,1,0,0,0-.68.25,2.07,2.07,0,0,0-.5.68,3.61,3.61,0,0,0-.31.91,4.32,4.32,0,0,0-.11,1,2.25,2.25,0,0,0,.21,1A.77.77,0,0,0,285.71,88.61ZM285,93l6.58-9.3h.7L285.67,93Zm5.92,0a1.57,1.57,0,0,1-.7-.16,1.48,1.48,0,0,1-.53-.43,2,2,0,0,1-.32-.66,2.66,2.66,0,0,1-.12-.82,5.44,5.44,0,0,1,.16-1.26,4,4,0,0,1,.49-1.16,3,3,0,0,1,.77-.84,1.83,1.83,0,0,1,1.06-.31,1.6,1.6,0,0,1,.7.15,1.48,1.48,0,0,1,.52.44,1.9,1.9,0,0,1,.33.65,2.66,2.66,0,0,1,.12.82,5.12,5.12,0,0,1-.17,1.28,4.23,4.23,0,0,1-.48,1.15,2.82,2.82,0,0,1-.78.83A1.83,1.83,0,0,1,290.89,93Zm.07-.68a1,1,0,0,0,.68-.26,2,2,0,0,0,.5-.67,3.9,3.9,0,0,0,.32-.91,4.77,4.77,0,0,0,.11-1,2.29,2.29,0,0,0-.22-1,.75.75,0,0,0-.72-.41,1,1,0,0,0-.68.25,2.25,2.25,0,0,0-.51.68,4.06,4.06,0,0,0-.31.91,4.94,4.94,0,0,0-.11,1,2.24,2.24,0,0,0,.22,1A.77.77,0,0,0,291,92.28Z" transform="translate(-7.5 -6.25)" fill="#322f5b"/><path d="M299.39,93a2.22,2.22,0,0,1-1.72-.71,2.81,2.81,0,0,1-.63-1.94,5.06,5.06,0,0,1,.29-1.73,4.12,4.12,0,0,1,.81-1.35,3.75,3.75,0,0,1,1.14-.89A2.92,2.92,0,0,1,300.6,86a2.23,2.23,0,0,1,1.72.71,2.77,2.77,0,0,1,.64,1.94,4.8,4.8,0,0,1-.3,1.73,4.29,4.29,0,0,1-.81,1.35,3.75,3.75,0,0,1-1.14.89A3,3,0,0,1,299.39,93Zm.11-.87a1.68,1.68,0,0,0,.89-.27,2.82,2.82,0,0,0,.76-.71,3.66,3.66,0,0,0,.55-1.06,4.28,4.28,0,0,0,.2-1.31,2.27,2.27,0,0,0-.36-1.38,1.23,1.23,0,0,0-1.05-.48,1.68,1.68,0,0,0-.89.27,2.61,2.61,0,0,0-.77.72,3.53,3.53,0,0,0-.54,1.06,4,4,0,0,0-.21,1.31,2.24,2.24,0,0,0,.36,1.37A1.24,1.24,0,0,0,299.5,92.09Z" transform="translate(-7.5 -6.25)" fill="#322f5b"/><path d="M304.25,87l.15-.78.89-.06.21-1.1a3.19,3.19,0,0,1,.73-1.57A1.78,1.78,0,0,1,307.6,83a2.15,2.15,0,0,1,.64.09,2.53,2.53,0,0,1,.53.24l-.37.75a1.71,1.71,0,0,0-.33-.17,1.19,1.19,0,0,0-.4-.07.91.91,0,0,0-.73.34,2,2,0,0,0-.39.93l-.23,1.13h1.33l-.16.84h-1.35L305,92.79h-1L305.11,87Z" transform="translate(-7.5 -6.25)" fill="#322f5b"/><path d="M312.75,93a2.34,2.34,0,0,1-1.76-.69,2.68,2.68,0,0,1-.67-2,4.73,4.73,0,0,1,.3-1.71,4.56,4.56,0,0,1,.82-1.35,3.9,3.9,0,0,1,1.17-.9A3.12,3.12,0,0,1,314,86a2,2,0,0,1,1,.23,2.69,2.69,0,0,1,.71.58l-.61.65a1.81,1.81,0,0,0-.52-.46,1.39,1.39,0,0,0-.65-.14,1.85,1.85,0,0,0-.95.27,3,3,0,0,0-.82.73,3.52,3.52,0,0,0-.57,1.07,3.88,3.88,0,0,0-.21,1.29,2.11,2.11,0,0,0,.38,1.37,1.43,1.43,0,0,0,1.18.48,1.73,1.73,0,0,0,.79-.18,4.23,4.23,0,0,0,.68-.41l.46.68a5.7,5.7,0,0,1-.87.53A3,3,0,0,1,312.75,93Z" transform="translate(-7.5 -6.25)" fill="#322f5b"/><path d="M318.25,93a2.21,2.21,0,0,1-1.71-.71,2.82,2.82,0,0,1-.64-1.94,4.84,4.84,0,0,1,.3-1.73,4.28,4.28,0,0,1,.8-1.35,4,4,0,0,1,1.14-.89,3,3,0,0,1,1.32-.32,2.22,2.22,0,0,1,1.72.71,2.77,2.77,0,0,1,.65,1.94,4.59,4.59,0,0,1-.31,1.73,4.28,4.28,0,0,1-.8,1.35,3.75,3.75,0,0,1-1.14.89A3,3,0,0,1,318.25,93Zm.11-.87a1.63,1.63,0,0,0,.89-.27,2.86,2.86,0,0,0,.77-.71,3.42,3.42,0,0,0,.54-1.06,4,4,0,0,0,.21-1.31,2.27,2.27,0,0,0-.36-1.38,1.24,1.24,0,0,0-1.06-.48,1.67,1.67,0,0,0-.88.27,2.49,2.49,0,0,0-.77.72,3.79,3.79,0,0,0-.55,1.06,4.33,4.33,0,0,0-.2,1.31,2.24,2.24,0,0,0,.36,1.37A1.23,1.23,0,0,0,318.36,92.09Z" transform="translate(-7.5 -6.25)" fill="#322f5b"/><path d="M322.7,92.79l1.3-6.6h.86l-.1,1h.06a5.56,5.56,0,0,1,1.09-.82A2.09,2.09,0,0,1,327,86a1.84,1.84,0,0,1,.67.11,1.13,1.13,0,0,1,.45.27,1,1,0,0,1,.27.41,2.36,2.36,0,0,1,.14.51,6.26,6.26,0,0,1,1.23-1,2.29,2.29,0,0,1,1.1-.34,1.48,1.48,0,0,1,1.2.44,1.84,1.84,0,0,1,.37,1.21,2.9,2.9,0,0,1,0,.43c0,.14-.05.3-.08.48l-.84,4.21h-1.05l.83-4.08c0-.18.06-.32.08-.43a1.87,1.87,0,0,0,0-.34c0-.68-.32-1-1-1a1.69,1.69,0,0,0-.77.29,5.07,5.07,0,0,0-1.09.91l-.94,4.67h-1l.81-4.08c0-.18.07-.32.09-.43s0-.22,0-.34c0-.68-.31-1-1-1a1.74,1.74,0,0,0-.79.29,5,5,0,0,0-1.07.91l-.94,4.67Z" transform="translate(-7.5 -6.25)" fill="#322f5b"/><path d="M334.55,92l-.24,1.42-.43,2.16h-1l1.88-9.39h.85l-.08.87h0a6.4,6.4,0,0,1,1.08-.73,2.62,2.62,0,0,1,1.21-.31,1.7,1.7,0,0,1,1.38.62,2.68,2.68,0,0,1,.52,1.78,5.24,5.24,0,0,1-.3,1.78,4.78,4.78,0,0,1-.8,1.44,3.84,3.84,0,0,1-1.14,1,2.68,2.68,0,0,1-1.32.36,1.66,1.66,0,0,1-.93-.27,2.08,2.08,0,0,1-.66-.69Zm2.9-5.11a2.27,2.27,0,0,0-1,.29,3.79,3.79,0,0,0-1,.8l-.63,3.15a2,2,0,0,0,.61.74,1.39,1.39,0,0,0,.74.22,1.74,1.74,0,0,0,.95-.3,2.72,2.72,0,0,0,.81-.78,4.45,4.45,0,0,0,.77-2.44,2,2,0,0,0-.32-1.26A1.06,1.06,0,0,0,337.45,86.89Z" transform="translate(-7.5 -6.25)" fill="#322f5b"/><path d="M342.67,93a1.71,1.71,0,0,1-1.39-.62,2.65,2.65,0,0,1-.52-1.78,5.24,5.24,0,0,1,.3-1.78,5,5,0,0,1,.8-1.44,4,4,0,0,1,1.14-1,2.72,2.72,0,0,1,1.34-.36,1.6,1.6,0,0,1,.94.28,1.88,1.88,0,0,1,.65.72H346l.26-.83h.84l-1.32,6.6h-.85l.11-1H345a3.55,3.55,0,0,1-1.07.83A2.62,2.62,0,0,1,342.67,93Zm.38-.87a2.18,2.18,0,0,0,1.05-.31,3.39,3.39,0,0,0,1-1l.59-2.95a2.18,2.18,0,0,0-.62-.75,1.31,1.31,0,0,0-.72-.23,1.69,1.69,0,0,0-.95.3,2.88,2.88,0,0,0-.82.78,4.19,4.19,0,0,0-.56,1.12,4.13,4.13,0,0,0-.21,1.31,2.08,2.08,0,0,0,.32,1.27A1.06,1.06,0,0,0,343.05,92.09Z" transform="translate(-7.5 -6.25)" fill="#322f5b"/><path d="M347.82,92.79l1.3-6.6H350l-.1,1h.06a7.31,7.31,0,0,1,1.13-.82,2.18,2.18,0,0,1,1.18-.34,1.48,1.48,0,0,1,1.2.44,1.84,1.84,0,0,1,.36,1.21c0,.15,0,.3,0,.43a2.48,2.48,0,0,1-.09.48l-.84,4.21h-1l.81-4.08a3.76,3.76,0,0,0,.08-.43,1.87,1.87,0,0,0,0-.34,1.13,1.13,0,0,0-.23-.76,1,1,0,0,0-.75-.26,1.75,1.75,0,0,0-.87.29,5.36,5.36,0,0,0-1.11.91l-.94,4.67Z" transform="translate(-7.5 -6.25)" fill="#322f5b"/><path d="M354.8,92.79l1.32-6.6h1.05l-1.33,6.6Zm2.2-8a.73.73,0,0,1-.46-.15.54.54,0,0,1-.2-.46.74.74,0,0,1,.24-.56.78.78,0,0,1,.55-.23.73.73,0,0,1,.47.17.56.56,0,0,1,.19.46.75.75,0,0,1-.23.56A.83.83,0,0,1,357,84.81Z" transform="translate(-7.5 -6.25)" fill="#322f5b"/><path d="M358,90.2a4.45,4.45,0,0,1,.31-1.71,4.59,4.59,0,0,1,.81-1.32,3.7,3.7,0,0,1,1.13-.85,3,3,0,0,1,1.28-.3,2.12,2.12,0,0,1,1,.19,1.82,1.82,0,0,1,.63.5,2,2,0,0,1,.35.76,4.12,4.12,0,0,1,.11,1,3.5,3.5,0,0,1-.08.74c-.06.24-.11.42-.15.55H359a2.8,2.8,0,0,0,0,1.09,1.74,1.74,0,0,0,.36.76A1.37,1.37,0,0,0,360,92a2.28,2.28,0,0,0,.8.14,2,2,0,0,0,.78-.17,4.27,4.27,0,0,0,.7-.4l.41.69a4.38,4.38,0,0,1-.94.5,3.29,3.29,0,0,1-1.2.21,2.52,2.52,0,0,1-1.89-.72A2.78,2.78,0,0,1,358,90.2Zm1.15-1.2h3.47c0-.11,0-.22.05-.33a3.49,3.49,0,0,0,0-.35,2.51,2.51,0,0,0-.07-.55,1.45,1.45,0,0,0-.22-.47A1.12,1.12,0,0,0,362,87a1.26,1.26,0,0,0-.6-.13,1.74,1.74,0,0,0-.71.15,2.14,2.14,0,0,0-.65.44,3.11,3.11,0,0,0-.54.68A3,3,0,0,0,359.15,89Z" transform="translate(-7.5 -6.25)" fill="#322f5b"/><path d="M366.18,93a2.51,2.51,0,0,1-.66-.1,3,3,0,0,1-.64-.26,3.78,3.78,0,0,1-.56-.4,3,3,0,0,1-.41-.49l.65-.52a2.62,2.62,0,0,0,.75.7,1.77,1.77,0,0,0,.95.26,1.91,1.91,0,0,0,.54-.08,1.61,1.61,0,0,0,.45-.24,1.1,1.1,0,0,0,.3-.35.89.89,0,0,0,.11-.43.87.87,0,0,0-.06-.32,1,1,0,0,0-.2-.3,2.07,2.07,0,0,0-.37-.29l-.58-.34a4,4,0,0,1-1.14-.83,1.37,1.37,0,0,1-.37-1,1.73,1.73,0,0,1,.19-.81,1.85,1.85,0,0,1,.49-.62,2.1,2.1,0,0,1,.72-.4,2.57,2.57,0,0,1,2,.1,2.93,2.93,0,0,1,.85.64l-.6.58A3,3,0,0,0,368,87a1.49,1.49,0,0,0-.77-.19,1.33,1.33,0,0,0-.9.31.91.91,0,0,0-.36.72.76.76,0,0,0,.1.37,1,1,0,0,0,.26.3,4,4,0,0,0,.37.26l.44.24a6,6,0,0,1,.74.47,2.64,2.64,0,0,1,.48.45,1.49,1.49,0,0,1,.26.45,1.7,1.7,0,0,1,.07.51,1.84,1.84,0,0,1-.7,1.49,2.4,2.4,0,0,1-.78.4A3.21,3.21,0,0,1,366.18,93Z" transform="translate(-7.5 -6.25)" fill="#322f5b"/><path d="M372.46,92.79l1.32-6.6h1l-1.33,6.6Zm2.2-8a.75.75,0,0,1-.47-.15.57.57,0,0,1-.2-.46.74.74,0,0,1,.24-.56.78.78,0,0,1,.55-.23.71.71,0,0,1,.47.17.57.57,0,0,1,.2.46.73.73,0,0,1-.24.56A.81.81,0,0,1,374.66,84.81Z" transform="translate(-7.5 -6.25)" fill="#322f5b"/><path d="M375.56,92.79l1.3-6.6h.86l-.1,1h.06a7.31,7.31,0,0,1,1.13-.82A2.18,2.18,0,0,1,380,86a1.48,1.48,0,0,1,1.2.44,1.84,1.84,0,0,1,.36,1.21,3,3,0,0,1,0,.43,2.48,2.48,0,0,1-.09.48l-.84,4.21h-1l.81-4.08a3.76,3.76,0,0,0,.08-.43,1.87,1.87,0,0,0,0-.34,1.08,1.08,0,0,0-.23-.76,1,1,0,0,0-.75-.26,1.75,1.75,0,0,0-.87.29,5.94,5.94,0,0,0-1.11.91l-.94,4.67Z" transform="translate(-7.5 -6.25)" fill="#322f5b"/><path d="M386.31,92.79l-.48-6.6h1l.21,3.88c0,.32,0,.63,0,.94s0,.61,0,.91h.06l.39-.91c.12-.31.25-.62.4-.94l1.74-3.88h1l.23,3.88c0,.32,0,.63,0,.94s0,.61,0,.91h.05c.13-.3.25-.61.37-.91s.25-.62.39-.94l1.73-3.88h1l-3,6.6h-1.29l-.19-3.61c0-.32,0-.64,0-1s0-.65,0-1h0c-.14.33-.27.66-.41,1s-.26.65-.4,1l-1.6,3.61Z" transform="translate(-7.5 -6.25)" fill="#322f5b"/><path d="M394.63,92.79l1.93-9.67h1L397,86.31l-.22.83h.06a9,9,0,0,1,1.11-.8,2.3,2.3,0,0,1,1.16-.32,1.48,1.48,0,0,1,1.2.44,1.84,1.84,0,0,1,.36,1.21,3,3,0,0,1,0,.43,2.48,2.48,0,0,1-.09.48l-.84,4.21h-1l.81-4.08a3.76,3.76,0,0,0,.08-.43,1.87,1.87,0,0,0,0-.34,1.13,1.13,0,0,0-.23-.76,1,1,0,0,0-.75-.26,1.75,1.75,0,0,0-.87.29,5.36,5.36,0,0,0-1.11.91l-.94,4.67Z" transform="translate(-7.5 -6.25)" fill="#322f5b"/><path d="M401.59,92.79l1.32-6.6h1l-1.33,6.6Zm2.2-8a.75.75,0,0,1-.47-.15.57.57,0,0,1-.2-.46.74.74,0,0,1,.24-.56.78.78,0,0,1,.55-.23.71.71,0,0,1,.47.17.57.57,0,0,1,.2.46.73.73,0,0,1-.24.56A.81.81,0,0,1,403.79,84.81Z" transform="translate(-7.5 -6.25)" fill="#322f5b"/><path d="M407.21,93a2.36,2.36,0,0,1-1.76-.69,2.68,2.68,0,0,1-.67-2,4.52,4.52,0,0,1,.31-1.71,4.34,4.34,0,0,1,.81-1.35,3.82,3.82,0,0,1,1.18-.9,3,3,0,0,1,1.38-.33,2.07,2.07,0,0,1,1,.23,2.86,2.86,0,0,1,.71.58l-.62.65a1.93,1.93,0,0,0-.51-.46,1.39,1.39,0,0,0-.65-.14,1.89,1.89,0,0,0-1,.27,3.12,3.12,0,0,0-.82.73,3.52,3.52,0,0,0-.57,1.07,3.88,3.88,0,0,0-.21,1.29,2.11,2.11,0,0,0,.39,1.37,1.42,1.42,0,0,0,1.17.48,1.77,1.77,0,0,0,.8-.18,4.14,4.14,0,0,0,.67-.41l.46.68a4.86,4.86,0,0,1-.87.53A2.93,2.93,0,0,1,407.21,93Z" transform="translate(-7.5 -6.25)" fill="#322f5b"/><path d="M410.46,92.79l1.93-9.67h1.05l-.65,3.19-.22.83h.05a9.05,9.05,0,0,1,1.12-.8,2.27,2.27,0,0,1,1.15-.32,1.49,1.49,0,0,1,1.21.44,1.84,1.84,0,0,1,.36,1.21c0,.15,0,.3,0,.43s-.05.3-.09.48l-.85,4.21h-1l.82-4.08c0-.18.06-.32.08-.43a1.87,1.87,0,0,0,0-.34,1.13,1.13,0,0,0-.23-.76,1,1,0,0,0-.75-.26,1.79,1.79,0,0,0-.88.29,5.94,5.94,0,0,0-1.11.91l-.93,4.67Z" transform="translate(-7.5 -6.25)" fill="#322f5b"/><path d="M419.57,92.79l.11-.62L422,90.24c.64-.56,1.18-1.06,1.6-1.51a6,6,0,0,0,1-1.27,2.62,2.62,0,0,0,.32-1.23,1.51,1.51,0,0,0-.35-1,1.31,1.31,0,0,0-1.06-.41,1.93,1.93,0,0,0-.88.23,4.11,4.11,0,0,0-.91.64l-.52-.65a5.07,5.07,0,0,1,1.18-.79,2.85,2.85,0,0,1,1.25-.28,2.93,2.93,0,0,1,1,.15,2.15,2.15,0,0,1,.73.45,1.76,1.76,0,0,1,.45.68,2.34,2.34,0,0,1,.15.85,3.24,3.24,0,0,1-.29,1.35,5.49,5.49,0,0,1-.84,1.3,12.48,12.48,0,0,1-1.41,1.42c-.56.51-1.22,1.08-2,1.74h3.75l-.16.89Z" transform="translate(-7.5 -6.25)" fill="#322f5b"/><path d="M429.14,93a2.3,2.3,0,0,1-1-.22,2.25,2.25,0,0,1-.76-.61,2.91,2.91,0,0,1-.48-.93,4,4,0,0,1-.17-1.18,8.88,8.88,0,0,1,.31-2.43,6.45,6.45,0,0,1,.85-1.93,4.11,4.11,0,0,1,1.28-1.25,3.06,3.06,0,0,1,1.61-.45,2,2,0,0,1,1.17.33,2.76,2.76,0,0,1,.72.77l-.71.56a1.78,1.78,0,0,0-.52-.59,1.24,1.24,0,0,0-.71-.2,2,2,0,0,0-1,.26,3.12,3.12,0,0,0-.85.75,4.66,4.66,0,0,0-.67,1.17,7.35,7.35,0,0,0-.41,1.54,2.81,2.81,0,0,1,1-.76,2.54,2.54,0,0,1,1-.24,2.06,2.06,0,0,1,1.54.59,2.32,2.32,0,0,1,.57,1.66,3.46,3.46,0,0,1-.21,1.21,3.27,3.27,0,0,1-.59,1,3,3,0,0,1-.89.69A2.58,2.58,0,0,1,429.14,93Zm.05-.82a1.34,1.34,0,0,0,.7-.19,2.21,2.21,0,0,0,.95-1.2A2.44,2.44,0,0,0,431,90a1.89,1.89,0,0,0-.34-1.19,1.25,1.25,0,0,0-1-.44,2.21,2.21,0,0,0-.86.24,2.82,2.82,0,0,0-1,.86c0,.1,0,.2,0,.31v.32a2.57,2.57,0,0,0,.4,1.51A1.23,1.23,0,0,0,429.19,92.14Z" transform="translate(-7.5 -6.25)" fill="#322f5b"/><path d="M435.1,89.29a1.6,1.6,0,0,1-.7-.16,1.48,1.48,0,0,1-.53-.43,2,2,0,0,1-.32-.66,2.66,2.66,0,0,1-.12-.82A5,5,0,0,1,433.6,86a4,4,0,0,1,.48-1.16,3,3,0,0,1,.77-.84,1.83,1.83,0,0,1,1.06-.31,1.6,1.6,0,0,1,.7.15,1.51,1.51,0,0,1,.53.44,1.88,1.88,0,0,1,.32.65,2.66,2.66,0,0,1,.12.82,5.61,5.61,0,0,1-.16,1.28,3.84,3.84,0,0,1-.49,1.15,2.82,2.82,0,0,1-.78.83A1.83,1.83,0,0,1,435.1,89.29Zm.07-.68a1,1,0,0,0,.68-.26,2.2,2.2,0,0,0,.51-.67,4.41,4.41,0,0,0,.31-.91,4.77,4.77,0,0,0,.11-1,2.29,2.29,0,0,0-.22-1,.75.75,0,0,0-.72-.41,1,1,0,0,0-.68.25,2.07,2.07,0,0,0-.5.68,4.07,4.07,0,0,0-.32.91,4.94,4.94,0,0,0-.11,1,2.24,2.24,0,0,0,.22,1A.77.77,0,0,0,435.17,88.61ZM434.42,93l6.58-9.3h.71L435.13,93Zm5.93,0a1.65,1.65,0,0,1-.71-.16,1.54,1.54,0,0,1-.52-.43,2.27,2.27,0,0,1-.33-.66,3,3,0,0,1-.11-.82,5,5,0,0,1,.16-1.26,4,4,0,0,1,.49-1.16,3,3,0,0,1,.77-.84,1.78,1.78,0,0,1,1-.31,1.61,1.61,0,0,1,.71.15,1.48,1.48,0,0,1,.52.44,2.09,2.09,0,0,1,.33.65,2.66,2.66,0,0,1,.12.82,5.12,5.12,0,0,1-.17,1.28,4.23,4.23,0,0,1-.48,1.15,2.82,2.82,0,0,1-.78.83A1.83,1.83,0,0,1,440.35,93Zm.07-.68a1,1,0,0,0,.68-.26,2,2,0,0,0,.5-.67,3.48,3.48,0,0,0,.31-.91,4.17,4.17,0,0,0,.11-1,2.29,2.29,0,0,0-.21-1,.76.76,0,0,0-.73-.41,1,1,0,0,0-.67.25,2.25,2.25,0,0,0-.51.68,4.06,4.06,0,0,0-.31.91,4.94,4.94,0,0,0-.11,1,2.12,2.12,0,0,0,.22,1A.75.75,0,0,0,440.42,92.28Z" transform="translate(-7.5 -6.25)" fill="#322f5b"/><path d="M448.48,93a1.92,1.92,0,0,1-.73-.12,1.33,1.33,0,0,1-.49-.31,1.21,1.21,0,0,1-.28-.46,2.14,2.14,0,0,1-.08-.58c0-.14,0-.26,0-.38s0-.23.05-.36l.78-3.72h-1l.15-.78,1-.06.49-1.82h.89L449,86.19h1.67l-.16.84h-1.7L448,90.81a3.89,3.89,0,0,0,0,.49.86.86,0,0,0,.19.61.88.88,0,0,0,.66.2.92.92,0,0,0,.36-.07,2.52,2.52,0,0,0,.33-.13l.23.75a4.12,4.12,0,0,1-.54.2A2.59,2.59,0,0,1,448.48,93Z" transform="translate(-7.5 -6.25)" fill="#322f5b"/><path d="M453,93a2.21,2.21,0,0,1-1.71-.71,2.77,2.77,0,0,1-.64-1.94,4.84,4.84,0,0,1,.3-1.73,4.28,4.28,0,0,1,.8-1.35,4,4,0,0,1,1.14-.89,3,3,0,0,1,1.32-.32,2.22,2.22,0,0,1,1.72.71,2.77,2.77,0,0,1,.65,1.94,4.59,4.59,0,0,1-.31,1.73,4.28,4.28,0,0,1-.8,1.35,3.75,3.75,0,0,1-1.14.89A3,3,0,0,1,453,93Zm.11-.87a1.63,1.63,0,0,0,.89-.27,2.86,2.86,0,0,0,.77-.71,3.42,3.42,0,0,0,.54-1.06,4,4,0,0,0,.21-1.31,2.27,2.27,0,0,0-.36-1.38,1.24,1.24,0,0,0-1.06-.48,1.64,1.64,0,0,0-.88.27,2.49,2.49,0,0,0-.77.72,3.79,3.79,0,0,0-.55,1.06,4.33,4.33,0,0,0-.2,1.31,2.24,2.24,0,0,0,.36,1.37A1.23,1.23,0,0,0,453.14,92.09Z" transform="translate(-7.5 -6.25)" fill="#322f5b"/><path d="M462.26,93a2.7,2.7,0,0,1-1.53-.43,3.6,3.6,0,0,1-1-1l.68-.56a4.48,4.48,0,0,0,.32.44,2.86,2.86,0,0,0,.41.36,1.75,1.75,0,0,0,.53.26,2.37,2.37,0,0,0,.68.1,2.06,2.06,0,0,0,.81-.17,2.12,2.12,0,0,0,.69-.47,2.35,2.35,0,0,0,.65-1.67,1.66,1.66,0,0,0-.43-1.25,1.57,1.57,0,0,0-1.14-.41,2,2,0,0,0-.72.11,4.91,4.91,0,0,0-.73.34l-.45-.36,1.09-4.09h4.06L466,85h-3.17l-.71,2.55a5.19,5.19,0,0,1,.52-.19,2.45,2.45,0,0,1,.62-.08,2.94,2.94,0,0,1,.91.14,2.19,2.19,0,0,1,.72.43,1.92,1.92,0,0,1,.47.72,2.54,2.54,0,0,1,.17,1,3.55,3.55,0,0,1-.27,1.41,3.16,3.16,0,0,1-.72,1.05,3,3,0,0,1-1,.68A3.21,3.21,0,0,1,462.26,93Z" transform="translate(-7.5 -6.25)" fill="#322f5b"/><path d="M468.94,93a1.85,1.85,0,0,1-.92-.23,2,2,0,0,1-.68-.62,3,3,0,0,1-.41-.93,4.37,4.37,0,0,1-.14-1.17,8.71,8.71,0,0,1,.29-2.31,7.55,7.55,0,0,1,.78-1.93A4.39,4.39,0,0,1,469,84.45a2.26,2.26,0,0,1,1.38-.49,1.83,1.83,0,0,1,.9.23,2,2,0,0,1,.67.62,3.16,3.16,0,0,1,.4,1,4.47,4.47,0,0,1,.15,1.17,9.16,9.16,0,0,1-.29,2.32,7.7,7.7,0,0,1-.77,1.91,4.47,4.47,0,0,1-1.14,1.31A2.25,2.25,0,0,1,468.94,93Zm.05-.83a1.4,1.4,0,0,0,1-.47,4.11,4.11,0,0,0,.81-1.23,7.88,7.88,0,0,0,.54-1.68,8.41,8.41,0,0,0,.2-1.86,3.34,3.34,0,0,0-.3-1.5,1,1,0,0,0-.92-.59,1.36,1.36,0,0,0-1,.48,4.11,4.11,0,0,0-.81,1.23A7.79,7.79,0,0,0,468,88.2a9,9,0,0,0-.19,1.85,4.35,4.35,0,0,0,.07.83,2.44,2.44,0,0,0,.23.66,1.14,1.14,0,0,0,.38.43A.89.89,0,0,0,469,92.13Z" transform="translate(-7.5 -6.25)" fill="#322f5b"/><path d="M475.28,89.29a1.6,1.6,0,0,1-.7-.16,1.48,1.48,0,0,1-.53-.43,2,2,0,0,1-.32-.66,2.66,2.66,0,0,1-.12-.82,5.44,5.44,0,0,1,.16-1.26,4,4,0,0,1,.49-1.16A3,3,0,0,1,475,84a1.8,1.8,0,0,1,1.05-.31,1.47,1.47,0,0,1,1.24.59,2.08,2.08,0,0,1,.32.65,2.66,2.66,0,0,1,.12.82,5.12,5.12,0,0,1-.17,1.28,3.82,3.82,0,0,1-.48,1.15,2.82,2.82,0,0,1-.78.83A1.83,1.83,0,0,1,475.28,89.29Zm.07-.68a1,1,0,0,0,.68-.26,2,2,0,0,0,.5-.67,3.9,3.9,0,0,0,.32-.91,4.77,4.77,0,0,0,.11-1,2.29,2.29,0,0,0-.22-1,.75.75,0,0,0-.72-.41,1,1,0,0,0-.68.25,2.25,2.25,0,0,0-.51.68,4.06,4.06,0,0,0-.31.91,4.94,4.94,0,0,0-.11,1,2.24,2.24,0,0,0,.22,1A.77.77,0,0,0,475.35,88.61ZM474.6,93l6.58-9.3h.71L475.31,93Zm5.93,0a1.65,1.65,0,0,1-.71-.16,1.45,1.45,0,0,1-.52-.43,2.27,2.27,0,0,1-.33-.66,3,3,0,0,1-.11-.82,5,5,0,0,1,.16-1.26,4.29,4.29,0,0,1,.48-1.16,3,3,0,0,1,.78-.84,1.78,1.78,0,0,1,1.05-.31,1.64,1.64,0,0,1,.71.15,1.48,1.48,0,0,1,.52.44,2.09,2.09,0,0,1,.33.65,3,3,0,0,1,.11.82,5.1,5.1,0,0,1-.16,1.28,4.23,4.23,0,0,1-.48,1.15,3.1,3.1,0,0,1-.78.83A1.83,1.83,0,0,1,480.53,93Zm.07-.68a1,1,0,0,0,.68-.26,2.18,2.18,0,0,0,.5-.67,3.48,3.48,0,0,0,.31-.91,4.17,4.17,0,0,0,.11-1,2.16,2.16,0,0,0-.22-1,.73.73,0,0,0-.72-.41,1,1,0,0,0-.68.25,2.22,2.22,0,0,0-.5.68,4.06,4.06,0,0,0-.31.91,4.94,4.94,0,0,0-.11,1,2.12,2.12,0,0,0,.22,1A.75.75,0,0,0,480.6,92.28Z" transform="translate(-7.5 -6.25)" fill="#322f5b"/><path d="M300.86,110.27l-.48-6.6h1l.22,3.88c0,.32,0,.63,0,.94s0,.6,0,.91h.06c.13-.31.26-.61.38-.91l.4-.94,1.74-3.88h1l.23,3.88c0,.32,0,.63,0,.94s0,.6,0,.91h.06c.12-.31.25-.61.36-.91s.25-.62.4-.94l1.72-3.88h1l-3,6.6H304.8l-.19-3.61c0-.32,0-.64,0-1s0-.65,0-1h-.06c-.13.33-.27.66-.4,1s-.26.65-.4,1l-1.6,3.61Z" transform="translate(-7.5 -6.25)" fill="#322f5b"/><path d="M311.68,110.44a2.22,2.22,0,0,1-1.72-.71,2.82,2.82,0,0,1-.64-1.94,4.8,4.8,0,0,1,.3-1.73,4.28,4.28,0,0,1,.8-1.35,3.91,3.91,0,0,1,1.15-.89,2.91,2.91,0,0,1,1.31-.32,2.22,2.22,0,0,1,1.72.71,2.73,2.73,0,0,1,.65,1.94,4.63,4.63,0,0,1-.31,1.73,4.28,4.28,0,0,1-.8,1.35,3.75,3.75,0,0,1-1.14.89A3,3,0,0,1,311.68,110.44Zm.1-.87a1.63,1.63,0,0,0,.89-.27,2.72,2.72,0,0,0,.77-.71,3.79,3.79,0,0,0,.55-1.06,4.33,4.33,0,0,0,.2-1.31,2.27,2.27,0,0,0-.36-1.38,1.23,1.23,0,0,0-1.05-.48,1.76,1.76,0,0,0-.89.26,2.66,2.66,0,0,0-.77.73,3.66,3.66,0,0,0-.55,1.06,4.28,4.28,0,0,0-.2,1.31,2.24,2.24,0,0,0,.36,1.37A1.23,1.23,0,0,0,311.78,109.57Z" transform="translate(-7.5 -6.25)" fill="#322f5b"/><path d="M316.12,110.27l1.3-6.6h.86l-.15,1.26h.06a3.91,3.91,0,0,1,.91-1,1.83,1.83,0,0,1,1.14-.41,1.44,1.44,0,0,1,.62.13l-.36.92a1.35,1.35,0,0,0-.57-.11,1.6,1.6,0,0,0-1,.42,4,4,0,0,0-.94,1.24l-.83,4.17Z" transform="translate(-7.5 -6.25)" fill="#322f5b"/><path d="M320.71,110.27l1.93-9.68h1.05l-1.3,6.57h0l3.39-3.49H327l-2.63,2.76,1.59,3.84h-1.06l-1.27-3.22-1.52,1.55-.35,1.67Z" transform="translate(-7.5 -6.25)" fill="#322f5b"/><path d="M329.79,110.27l1.31-6.6H332l-.16,1.26h.06a3.94,3.94,0,0,1,.92-1,1.81,1.81,0,0,1,1.13-.41,1.45,1.45,0,0,1,.63.13l-.37.92a1.31,1.31,0,0,0-.57-.11,1.63,1.63,0,0,0-1,.42,3.94,3.94,0,0,0-.93,1.24l-.83,4.17Z" transform="translate(-7.5 -6.25)" fill="#322f5b"/><path d="M334.36,107.68a4.45,4.45,0,0,1,.31-1.71,4.59,4.59,0,0,1,.81-1.32,3.7,3.7,0,0,1,1.13-.85,3,3,0,0,1,1.28-.3,2.09,2.09,0,0,1,.95.19,1.65,1.65,0,0,1,.63.5,2,2,0,0,1,.35.76,3.64,3.64,0,0,1,.11,1,3,3,0,0,1-.08.74,3.68,3.68,0,0,1-.15.55h-4.29a2.82,2.82,0,0,0,0,1.09,1.79,1.79,0,0,0,.36.76,1.42,1.42,0,0,0,.62.43,2.28,2.28,0,0,0,.8.14,2,2,0,0,0,.78-.17,4.27,4.27,0,0,0,.7-.4l.41.69a4.14,4.14,0,0,1-.94.49,3.07,3.07,0,0,1-1.19.22,2.52,2.52,0,0,1-1.89-.72A2.78,2.78,0,0,1,334.36,107.68Zm1.16-1.2H339c0-.11,0-.22,0-.33s0-.22,0-.35a2,2,0,0,0-.07-.55,1.27,1.27,0,0,0-.22-.47,1.12,1.12,0,0,0-.39-.32,1.21,1.21,0,0,0-.6-.13,1.78,1.78,0,0,0-.71.15,2.26,2.26,0,0,0-.65.44,2.81,2.81,0,0,0-.53.68A3,3,0,0,0,335.52,106.48Z" transform="translate(-7.5 -6.25)" fill="#322f5b"/><path d="M340.76,110.27l1.31-6.6h.85l-.09,1h.05a5.87,5.87,0,0,1,1.09-.82,2.09,2.09,0,0,1,1.09-.34,1.82,1.82,0,0,1,.66.11,1.13,1.13,0,0,1,.45.27,1,1,0,0,1,.27.41,1.94,1.94,0,0,1,.14.5,7.3,7.3,0,0,1,1.23-1,2.29,2.29,0,0,1,1.11-.34,1.47,1.47,0,0,1,1.19.44,1.79,1.79,0,0,1,.37,1.21,2.9,2.9,0,0,1,0,.43,3.42,3.42,0,0,1-.08.48l-.84,4.21h-1l.83-4.08a3.76,3.76,0,0,0,.08-.43,1.87,1.87,0,0,0,0-.34q0-1-1-1a1.71,1.71,0,0,0-.78.29,5.07,5.07,0,0,0-1.09.91l-.93,4.67h-1l.82-4.08c0-.18.06-.32.08-.43a1.87,1.87,0,0,0,0-.34q0-1-1-1a1.71,1.71,0,0,0-.78.29,4.82,4.82,0,0,0-1.08.91l-.94,4.67Z" transform="translate(-7.5 -6.25)" fill="#322f5b"/><path d="M354,110.44a2.22,2.22,0,0,1-1.72-.71,2.81,2.81,0,0,1-.63-1.94,5,5,0,0,1,.29-1.73,4.12,4.12,0,0,1,.81-1.35,3.75,3.75,0,0,1,1.14-.89,2.92,2.92,0,0,1,1.32-.32,2.23,2.23,0,0,1,1.72.71,2.77,2.77,0,0,1,.64,1.94,4.84,4.84,0,0,1-.3,1.73,4.29,4.29,0,0,1-.81,1.35,3.75,3.75,0,0,1-1.14.89A3,3,0,0,1,354,110.44Zm.11-.87a1.68,1.68,0,0,0,.89-.27,2.82,2.82,0,0,0,.76-.71,3.79,3.79,0,0,0,.55-1.06,4.33,4.33,0,0,0,.2-1.31,2.27,2.27,0,0,0-.36-1.38,1.23,1.23,0,0,0-1.05-.48,1.76,1.76,0,0,0-.89.26,2.79,2.79,0,0,0-.77.73,3.42,3.42,0,0,0-.54,1.06,4,4,0,0,0-.21,1.31,2.24,2.24,0,0,0,.36,1.37A1.24,1.24,0,0,0,354.1,109.57Z" transform="translate(-7.5 -6.25)" fill="#322f5b"/><path d="M360.44,110.44a2,2,0,0,1-.73-.12,1.42,1.42,0,0,1-.49-.31,1.06,1.06,0,0,1-.27-.47,1.71,1.71,0,0,1-.08-.57,2.3,2.3,0,0,1,0-.38c0-.11,0-.23,0-.36l.78-3.72h-1l.15-.78,1-.06.49-1.82h.88l-.37,1.82h1.67l-.16.84h-1.7l-.77,3.78a2.63,2.63,0,0,0,0,.49.91.91,0,0,0,.18.61.88.88,0,0,0,.66.2.94.94,0,0,0,.37-.07l.32-.13.23.75a3.65,3.65,0,0,1-.54.2A2.53,2.53,0,0,1,360.44,110.44Z" transform="translate(-7.5 -6.25)" fill="#322f5b"/><path d="M362.65,107.68A4.45,4.45,0,0,1,363,106a4.59,4.59,0,0,1,.81-1.32,3.66,3.66,0,0,1,1.12-.85,3,3,0,0,1,1.29-.3,2,2,0,0,1,.94.19,1.76,1.76,0,0,1,.64.5,2,2,0,0,1,.35.76,4.12,4.12,0,0,1,.11,1,3.5,3.5,0,0,1-.08.74c-.06.24-.11.42-.15.55h-4.3a2.8,2.8,0,0,0,0,1.09,1.79,1.79,0,0,0,.36.76,1.39,1.39,0,0,0,.61.43,2.38,2.38,0,0,0,.81.14,2,2,0,0,0,.78-.17,4.27,4.27,0,0,0,.7-.4l.41.69a4.37,4.37,0,0,1-.94.49,3.09,3.09,0,0,1-1.2.22,2.52,2.52,0,0,1-1.89-.72A2.78,2.78,0,0,1,362.65,107.68Zm1.15-1.2h3.47c0-.11,0-.22,0-.33a1.94,1.94,0,0,0,0-.35,2.51,2.51,0,0,0-.06-.55,1.45,1.45,0,0,0-.22-.47,1.12,1.12,0,0,0-.39-.32,1.26,1.26,0,0,0-.6-.13,1.79,1.79,0,0,0-.72.15,2.22,2.22,0,0,0-.64.44,3.11,3.11,0,0,0-.54.68A3,3,0,0,0,363.8,106.48Z" transform="translate(-7.5 -6.25)" fill="#322f5b"/><path d="M371.71,110.27l1.32-6.6h1.05l-1.34,6.6Zm2.2-8a.78.78,0,0,1-.47-.15.56.56,0,0,1-.19-.46.74.74,0,0,1,.24-.56.76.76,0,0,1,.55-.23.69.69,0,0,1,.46.17.54.54,0,0,1,.2.46.73.73,0,0,1-.24.56A.79.79,0,0,1,373.91,102.29Z" transform="translate(-7.5 -6.25)" fill="#322f5b"/><path d="M374.81,110.27l1.31-6.6H377l-.09,1h.05a7.82,7.82,0,0,1,1.13-.82,2.18,2.18,0,0,1,1.18-.34,1.48,1.48,0,0,1,1.2.44,1.84,1.84,0,0,1,.36,1.21,3,3,0,0,1,0,.43,3.42,3.42,0,0,1-.08.48l-.85,4.21h-1l.82-4.08c0-.18.06-.32.08-.43a1.88,1.88,0,0,0,0-.34,1.06,1.06,0,0,0-.23-.76,1,1,0,0,0-.74-.26,1.75,1.75,0,0,0-.88.29,5.94,5.94,0,0,0-1.11.91l-.94,4.67Z" transform="translate(-7.5 -6.25)" fill="#322f5b"/><path d="M384.64,107.68A4.45,4.45,0,0,1,385,106a4.59,4.59,0,0,1,.81-1.32,3.7,3.7,0,0,1,1.13-.85,3,3,0,0,1,1.28-.3,2.12,2.12,0,0,1,.95.19,1.73,1.73,0,0,1,.63.5,2,2,0,0,1,.35.76,4.12,4.12,0,0,1,.11,1,3.5,3.5,0,0,1-.08.74c-.06.24-.11.42-.15.55h-4.3a2.8,2.8,0,0,0,0,1.09,1.79,1.79,0,0,0,.36.76,1.42,1.42,0,0,0,.62.43,2.28,2.28,0,0,0,.8.14,2,2,0,0,0,.78-.17,4.27,4.27,0,0,0,.7-.4l.41.69a4.37,4.37,0,0,1-.94.49,3.09,3.09,0,0,1-1.2.22,2.56,2.56,0,0,1-1.89-.72A2.78,2.78,0,0,1,384.64,107.68Zm1.15-1.2h3.47c0-.11,0-.22.05-.33s0-.22,0-.35a2.51,2.51,0,0,0-.07-.55,1.45,1.45,0,0,0-.22-.47,1.12,1.12,0,0,0-.39-.32,1.24,1.24,0,0,0-.6-.13,1.74,1.74,0,0,0-.71.15,2.14,2.14,0,0,0-.65.44,3.11,3.11,0,0,0-.54.68A3.31,3.31,0,0,0,385.79,106.48Z" transform="translate(-7.5 -6.25)" fill="#322f5b"/><path d="M393.08,110.44a1.74,1.74,0,0,1-1.39-.62,2.7,2.7,0,0,1-.52-1.78,5.24,5.24,0,0,1,.3-1.78,4.81,4.81,0,0,1,.81-1.44,3.7,3.7,0,0,1,1.14-1,2.66,2.66,0,0,1,1.33-.36,1.6,1.6,0,0,1,.94.28,1.81,1.81,0,0,1,.65.72h.05l.26-.83h.85l-1.32,6.6h-.86l.11-1h-.05a3.72,3.72,0,0,1-1.08.83A2.62,2.62,0,0,1,393.08,110.44Zm.38-.87a2.18,2.18,0,0,0,1.05-.31,3.39,3.39,0,0,0,1-1l.6-3a2.2,2.2,0,0,0-.63-.75,1.31,1.31,0,0,0-.72-.23,1.72,1.72,0,0,0-1,.3,2.88,2.88,0,0,0-.82.78,4.19,4.19,0,0,0-.56,1.12,4.13,4.13,0,0,0-.21,1.31,2.08,2.08,0,0,0,.32,1.27A1.08,1.08,0,0,0,393.46,109.57Z" transform="translate(-7.5 -6.25)" fill="#322f5b"/><path d="M400.78,110.44a2.36,2.36,0,0,1-1.76-.69,2.72,2.72,0,0,1-.67-2,4.52,4.52,0,0,1,.31-1.71,4.34,4.34,0,0,1,.81-1.35,3.82,3.82,0,0,1,1.18-.9,3.06,3.06,0,0,1,1.39-.33,2.05,2.05,0,0,1,1,.23,2.86,2.86,0,0,1,.71.58l-.61.65a2.12,2.12,0,0,0-.52-.46,1.39,1.39,0,0,0-.65-.14,1.83,1.83,0,0,0-1,.27,3,3,0,0,0-.83.73,3.52,3.52,0,0,0-.57,1.07,3.88,3.88,0,0,0-.21,1.29,2.11,2.11,0,0,0,.39,1.37,1.42,1.42,0,0,0,1.17.48,1.77,1.77,0,0,0,.8-.18,4.14,4.14,0,0,0,.67-.41l.47.68a5,5,0,0,1-.87.52A2.86,2.86,0,0,1,400.78,110.44Z" transform="translate(-7.5 -6.25)" fill="#322f5b"/><path d="M404,110.27l1.93-9.68H407l-.65,3.2-.22.83h.05a9.05,9.05,0,0,1,1.12-.8,2.27,2.27,0,0,1,1.15-.32,1.49,1.49,0,0,1,1.21.44,1.84,1.84,0,0,1,.36,1.21c0,.15,0,.3,0,.43s-.05.3-.09.48l-.84,4.21h-1l.82-4.08c0-.18.06-.32.08-.43a1.87,1.87,0,0,0,0-.34,1.11,1.11,0,0,0-.23-.76,1,1,0,0,0-.75-.26,1.79,1.79,0,0,0-.88.29,5.94,5.94,0,0,0-1.11.91l-.93,4.67Z" transform="translate(-7.5 -6.25)" fill="#322f5b"/><path d="M416.21,110.44a2.36,2.36,0,0,1-1.76-.69,2.68,2.68,0,0,1-.67-2,4.73,4.73,0,0,1,.3-1.71,4.56,4.56,0,0,1,.82-1.35,3.82,3.82,0,0,1,1.18-.9,3,3,0,0,1,1.38-.33,2.07,2.07,0,0,1,1,.23,2.81,2.81,0,0,1,.7.58l-.61.65a1.93,1.93,0,0,0-.51-.46,1.43,1.43,0,0,0-.66-.14,1.88,1.88,0,0,0-.95.27,3,3,0,0,0-.82.73,3.52,3.52,0,0,0-.57,1.07,3.88,3.88,0,0,0-.21,1.29,2.11,2.11,0,0,0,.39,1.37,1.41,1.41,0,0,0,1.17.48,1.77,1.77,0,0,0,.8-.18,4.14,4.14,0,0,0,.67-.41l.46.68a4.34,4.34,0,0,1-.87.52A2.78,2.78,0,0,1,416.21,110.44Z" transform="translate(-7.5 -6.25)" fill="#322f5b"/><path d="M421.72,110.44a2.22,2.22,0,0,1-1.72-.71,2.81,2.81,0,0,1-.63-1.94,4.8,4.8,0,0,1,.29-1.73,4.12,4.12,0,0,1,.81-1.35,3.75,3.75,0,0,1,1.14-.89,2.92,2.92,0,0,1,1.32-.32,2.25,2.25,0,0,1,1.72.71,2.77,2.77,0,0,1,.64,1.94,4.84,4.84,0,0,1-.3,1.73,4.49,4.49,0,0,1-.81,1.35,3.75,3.75,0,0,1-1.14.89A3,3,0,0,1,421.72,110.44Zm.11-.87a1.68,1.68,0,0,0,.89-.27,2.82,2.82,0,0,0,.76-.71,3.79,3.79,0,0,0,.55-1.06,4.33,4.33,0,0,0,.2-1.31,2.27,2.27,0,0,0-.36-1.38,1.23,1.23,0,0,0-1.05-.48,1.76,1.76,0,0,0-.89.26,2.79,2.79,0,0,0-.77.73,3.42,3.42,0,0,0-.54,1.06,4,4,0,0,0-.21,1.31,2.24,2.24,0,0,0,.36,1.37A1.24,1.24,0,0,0,421.83,109.57Z" transform="translate(-7.5 -6.25)" fill="#322f5b"/><path d="M432.44,103.67l-1.32,6.6h-.85l.11-1h-.06a8.34,8.34,0,0,1-1.11.82,2.19,2.19,0,0,1-1.17.35,1.47,1.47,0,0,1-1.21-.45,1.83,1.83,0,0,1-.36-1.2c0-.15,0-.3,0-.43s.05-.3.09-.48l.85-4.21h1l-.83,4.07c0,.19-.06.33-.08.44a1.87,1.87,0,0,0,0,.34,1.08,1.08,0,0,0,.24.76,1,1,0,0,0,.74.26,1.69,1.69,0,0,0,.87-.29,5.6,5.6,0,0,0,1.09-.91l.94-4.67Z" transform="translate(-7.5 -6.25)" fill="#322f5b"/><path d="M433.19,110.27l1.3-6.6h.86l-.1,1h.06a7.31,7.31,0,0,1,1.13-.82,2.18,2.18,0,0,1,1.18-.34,1.48,1.48,0,0,1,1.2.44,1.84,1.84,0,0,1,.36,1.21,3,3,0,0,1,0,.43,2.48,2.48,0,0,1-.09.48l-.84,4.21h-1l.81-4.08a3.76,3.76,0,0,0,.08-.43,1.87,1.87,0,0,0,0-.34,1.11,1.11,0,0,0-.23-.76,1,1,0,0,0-.75-.26,1.75,1.75,0,0,0-.87.29,5.94,5.94,0,0,0-1.11.91l-.94,4.67Z" transform="translate(-7.5 -6.25)" fill="#322f5b"/><path d="M442.21,110.44a2,2,0,0,1-.73-.12A1.42,1.42,0,0,1,441,110a1.06,1.06,0,0,1-.27-.47,1.71,1.71,0,0,1-.08-.57,2.3,2.3,0,0,1,0-.38c0-.11,0-.23,0-.36l.77-3.72h-1l.15-.78,1-.06.49-1.82h.88l-.37,1.82h1.68l-.17.84h-1.7l-.77,3.78a2.63,2.63,0,0,0,0,.49.91.91,0,0,0,.18.61.88.88,0,0,0,.66.2.94.94,0,0,0,.37-.07l.32-.13.23.75a3.65,3.65,0,0,1-.54.2A2.53,2.53,0,0,1,442.21,110.44Z" transform="translate(-7.5 -6.25)" fill="#322f5b"/><path d="M444.52,110.27l1.31-6.6h.86l-.15,1.26h0a3.94,3.94,0,0,1,.92-1,1.81,1.81,0,0,1,1.13-.41,1.45,1.45,0,0,1,.63.13l-.37.92a1.28,1.28,0,0,0-.57-.11,1.63,1.63,0,0,0-1,.42,3.94,3.94,0,0,0-.93,1.24l-.83,4.17Z" transform="translate(-7.5 -6.25)" fill="#322f5b"/><path d="M449,113.11a1.71,1.71,0,0,1-.36,0,1.14,1.14,0,0,1-.4-.15l.34-.77a1.07,1.07,0,0,0,.48.12,1.4,1.4,0,0,0,.95-.41,3.83,3.83,0,0,0,.78-1.1l.25-.47L450,103.67h1l.52,3.71c0,.3.08.62.12,1s.07.68.09,1h.06q.23-.48.48-1c.17-.34.33-.67.5-1l1.9-3.71h1l-3.88,7.16a9.31,9.31,0,0,1-.55.9,3.66,3.66,0,0,1-.62.72,2.63,2.63,0,0,1-.72.49A2.29,2.29,0,0,1,449,113.11Z" transform="translate(-7.5 -6.25)" fill="#322f5b"/><path d="M456,110.44a.62.62,0,0,1-.47-.19.68.68,0,0,1-.17-.49,1,1,0,0,1,.26-.66.81.81,0,0,1,.65-.3.57.57,0,0,1,.46.2.75.75,0,0,1,.16.5.94.94,0,0,1-.25.64A.8.8,0,0,1,456,110.44Zm4.47,0a.62.62,0,0,1-.47-.19.68.68,0,0,1-.17-.49,1,1,0,0,1,.26-.66.82.82,0,0,1,.65-.3.57.57,0,0,1,.46.2.75.75,0,0,1,.16.5.94.94,0,0,1-.25.64A.79.79,0,0,1,460.43,110.44Zm4.47,0a.62.62,0,0,1-.47-.19.73.73,0,0,1-.17-.49,1,1,0,0,1,.26-.66.82.82,0,0,1,.65-.3.57.57,0,0,1,.46.2.76.76,0,0,1,.17.5,1,1,0,0,1-.26.64A.79.79,0,0,1,464.9,110.44Z" transform="translate(-7.5 -6.25)" fill="#322f5b"/><path d="M282.42,58.5l.93-1.27a2.7,2.7,0,0,0,1.89.87c.84,0,1.4-.36,1.4-1s-.45-1.23-2.33-1.23V54.43c1.56,0,2-.46,2-1.15s-.38-1-1.06-1a2.36,2.36,0,0,0-1.61.76l-1-1.23a4.06,4.06,0,0,1,2.72-1.1c1.78,0,3,.86,3,2.37a2,2,0,0,1-1.45,1.92v.05a2.14,2.14,0,0,1,1.72,2.11c0,1.6-1.47,2.51-3.21,2.51A3.79,3.79,0,0,1,282.42,58.5Z" transform="translate(-7.5 -6.25)" fill="#6e49cb"/><path d="M289.71,58.42c2.2-2.08,3.75-3.56,3.75-4.79a1.15,1.15,0,0,0-1.22-1.3,2.22,2.22,0,0,0-1.54.88l-1.08-1.07a3.64,3.64,0,0,1,2.89-1.38,2.65,2.65,0,0,1,2.86,2.75c0,1.45-1.36,3-2.76,4.47a14.39,14.39,0,0,1,1.44-.11h1.74v1.69h-6.08Z" transform="translate(-7.5 -6.25)" fill="#6e49cb"/><path d="M296.67,53.33c0-1.76.92-2.8,2.2-2.8s2.22,1,2.22,2.8-.94,2.83-2.22,2.83S296.67,55.11,296.67,53.33Zm3,0c0-1.26-.37-1.68-.82-1.68s-.81.42-.81,1.68.36,1.72.81,1.72S299.69,54.6,299.69,53.33Zm4.27-2.8h1.15l-4.78,9.19h-1.16Zm-.75,6.36c0-1.76.92-2.8,2.2-2.8s2.22,1,2.22,2.8-.94,2.83-2.22,2.83S303.21,58.68,303.21,56.89Zm3,0c0-1.26-.37-1.68-.82-1.68s-.81.42-.81,1.68.36,1.72.81,1.72S306.23,58.16,306.23,56.89Z" transform="translate(-7.5 -6.25)" fill="#6e49cb"/><path d="M343.3,58.5l.93-1.27a2.7,2.7,0,0,0,1.89.87c.84,0,1.4-.36,1.4-1s-.45-1.23-2.33-1.23V54.43c1.56,0,2-.46,2-1.15s-.38-1-1.06-1a2.36,2.36,0,0,0-1.61.76l-1-1.23a4.06,4.06,0,0,1,2.72-1.1c1.78,0,3,.86,3,2.37a2,2,0,0,1-1.45,1.92v.05a2.14,2.14,0,0,1,1.72,2.11c0,1.6-1.47,2.51-3.21,2.51A3.79,3.79,0,0,1,343.3,58.5Z" transform="translate(-7.5 -6.25)" fill="#6e49cb"/><path d="M350.71,55.21c0-2.94,1.24-4.45,3.09-4.45s3.09,1.51,3.09,4.45-1.24,4.51-3.09,4.51S350.71,58.15,350.71,55.21Zm4.29,0c0-2.37-.52-2.9-1.2-2.9s-1.2.53-1.2,2.9.53,3,1.2,3S355,57.56,355,55.21Z" transform="translate(-7.5 -6.25)" fill="#6e49cb"/><path d="M357.88,53.33c0-1.76.92-2.8,2.2-2.8s2.21,1,2.21,2.8-.93,2.83-2.21,2.83S357.88,55.11,357.88,53.33Zm3,0c0-1.26-.36-1.68-.81-1.68s-.82.42-.82,1.68.37,1.72.82,1.72S360.89,54.6,360.89,53.33Zm4.27-2.8h1.16l-4.79,9.19h-1.15Zm-.74,6.36c0-1.76.92-2.8,2.2-2.8s2.21,1,2.21,2.8-.93,2.83-2.21,2.83S364.42,58.68,364.42,56.89Zm3,0c0-1.26-.36-1.68-.81-1.68s-.82.42-.82,1.68.37,1.72.82,1.72S367.43,58.16,367.43,56.89Z" transform="translate(-7.5 -6.25)" fill="#6e49cb"/><path d="M404.76,58.42c2.2-2.08,3.75-3.56,3.75-4.79a1.16,1.16,0,0,0-1.22-1.3,2.2,2.2,0,0,0-1.54.88l-1.09-1.07a3.67,3.67,0,0,1,2.9-1.38,2.65,2.65,0,0,1,2.85,2.75c0,1.45-1.36,3-2.76,4.47.44,0,1-.11,1.44-.11h1.74v1.69h-6.07Z" transform="translate(-7.5 -6.25)" fill="#6e49cb"/><path d="M411.88,55.44c0-3.22,1.67-4.68,3.49-4.68a3.45,3.45,0,0,1,2.52,1L416.84,53a2,2,0,0,0-1.34-.61c-1,0-1.72.68-1.79,2.69a2.44,2.44,0,0,1,1.73-.91A2.39,2.39,0,0,1,418,56.83a2.77,2.77,0,0,1-2.87,2.89C413.47,59.72,411.88,58.47,411.88,55.44Zm4.31,1.39c0-.91-.48-1.25-1.13-1.25a1.54,1.54,0,0,0-1.31.85c.18,1.36.75,1.8,1.35,1.8S416.19,57.81,416.19,56.83Z" transform="translate(-7.5 -6.25)" fill="#6e49cb"/><path d="M418.87,53.33c0-1.76.92-2.8,2.2-2.8s2.21,1,2.21,2.8-.93,2.83-2.21,2.83S418.87,55.11,418.87,53.33Zm3,0c0-1.26-.36-1.68-.81-1.68s-.82.42-.82,1.68.37,1.72.82,1.72S421.88,54.6,421.88,53.33Zm4.27-2.8h1.16l-4.79,9.19h-1.15Zm-.75,6.36c0-1.76.93-2.8,2.21-2.8s2.21,1,2.21,2.8-.94,2.83-2.21,2.83S425.4,58.68,425.4,56.89Zm3,0c0-1.26-.36-1.68-.81-1.68s-.82.42-.82,1.68.37,1.72.82,1.72S428.42,58.16,428.42,56.89Z" transform="translate(-7.5 -6.25)" fill="#6e49cb"/><path d="M465.69,58.5l.93-1.27a2.68,2.68,0,0,0,1.88.87c.85,0,1.41-.36,1.41-1s-.45-1.23-2.33-1.23V54.43c1.55,0,2-.46,2-1.15s-.38-1-1.06-1a2.4,2.4,0,0,0-1.62.76l-1-1.23a4,4,0,0,1,2.71-1.1c1.79,0,3,.86,3,2.37a2,2,0,0,1-1.44,1.92v.05a2.15,2.15,0,0,1,1.71,2.11c0,1.6-1.46,2.51-3.2,2.51A3.77,3.77,0,0,1,465.69,58.5Z" transform="translate(-7.5 -6.25)" fill="#6e49cb"/><path d="M473,58.42c2.2-2.08,3.75-3.56,3.75-4.79a1.15,1.15,0,0,0-1.22-1.3,2.22,2.22,0,0,0-1.54.88l-1.09-1.07a3.67,3.67,0,0,1,2.9-1.38,2.65,2.65,0,0,1,2.86,2.75c0,1.45-1.36,3-2.77,4.47.44,0,1-.11,1.45-.11h1.74v1.69H473Z" transform="translate(-7.5 -6.25)" fill="#6e49cb"/><path d="M480,53.33c0-1.76.92-2.8,2.2-2.8s2.22,1,2.22,2.8-.94,2.83-2.22,2.83S480,55.11,480,53.33Zm3,0c0-1.26-.37-1.68-.82-1.68s-.81.42-.81,1.68.36,1.72.81,1.72S483,54.6,483,53.33Zm4.27-2.8h1.15l-4.78,9.19h-1.16Zm-.75,6.36c0-1.76.92-2.8,2.2-2.8s2.22,1,2.22,2.8-.94,2.83-2.22,2.83S486.49,58.68,486.49,56.89Zm3,0c0-1.26-.37-1.68-.82-1.68s-.81.42-.81,1.68.36,1.72.81,1.72S489.51,58.16,489.51,56.89Z" transform="translate(-7.5 -6.25)" fill="#6e49cb"/><g clip-path="url(#clip-path)"><path d="M7.85,15.69c0-1.77.93-2.8,2.2-2.8s2.22,1,2.22,2.8-.94,2.83-2.22,2.83S7.85,17.47,7.85,15.69Zm3,0c0-1.26-.37-1.68-.82-1.68s-.81.42-.81,1.68.37,1.72.81,1.72S10.87,17,10.87,15.69Zm4.27-2.8h1.15l-4.78,9.19H10.35Zm-.75,6.36c0-1.76.93-2.8,2.2-2.8s2.22,1,2.22,2.8-.94,2.83-2.22,2.83S14.39,21,14.39,19.25Zm3,0c0-1.26-.37-1.68-.82-1.68s-.81.42-.81,1.68.37,1.72.81,1.72S17.41,20.52,17.41,19.25Z" transform="translate(-7.5 -6.25)" fill="#e24329"/><path d="M22.35,18.55a3.29,3.29,0,1,1,6.57,0,3.29,3.29,0,1,1-6.57,0Zm4.53,0c0-1.17-.42-1.92-1.24-1.92s-1.23.75-1.23,1.92.4,1.91,1.23,1.91S26.88,19.72,26.88,18.55Z" transform="translate(-7.5 -6.25)" fill="#e24329"/><path d="M30.55,16.74h-.9V15.26l.9-.07v-.37A2.3,2.3,0,0,1,33,12.23a3.92,3.92,0,0,1,1.34.24L34,13.94a2.23,2.23,0,0,0-.7-.14c-.49,0-.77.27-.77,1v.41h1.21v1.56H32.55v5.18h-2Z" transform="translate(-7.5 -6.25)" fill="#e24329"/><path d="M37.31,17.54c0-2.94,1.94-4.65,4.18-4.65a3.76,3.76,0,0,1,2.67,1.16L43.1,15.33a2.27,2.27,0,0,0-1.57-.71c-1.21,0-2.17,1.07-2.17,2.85s.84,2.89,2.15,2.89a2.35,2.35,0,0,0,1.72-.83l1.06,1.25a3.66,3.66,0,0,1-2.87,1.3C39.18,22.08,37.31,20.52,37.31,17.54Z" transform="translate(-7.5 -6.25)" fill="#e24329"/><path d="M45,18.55a3.29,3.29,0,1,1,6.57,0,3.29,3.29,0,1,1-6.57,0Zm4.53,0c0-1.17-.42-1.92-1.23-1.92S47,17.38,47,18.55s.41,1.91,1.24,1.91S49.51,19.72,49.51,18.55Z" transform="translate(-7.5 -6.25)" fill="#e24329"/><path d="M52.91,15.18h1.63l.14.87h0a2.83,2.83,0,0,1,2-1,1.87,1.87,0,0,1,1.86,1.13A3,3,0,0,1,60.75,15c1.46,0,2.11,1,2.11,2.72v4.19h-2V18c0-1-.26-1.28-.83-1.28a1.78,1.78,0,0,0-1.15.65v4.56h-2V18c0-1-.26-1.28-.83-1.28a1.76,1.76,0,0,0-1.14.65v4.56h-2Z" transform="translate(-7.5 -6.25)" fill="#e24329"/><path d="M64.56,15.18h1.63l.14.66h0A3,3,0,0,1,68.3,15c1.63,0,2.63,1.35,2.63,3.43,0,2.31-1.38,3.64-2.84,3.64a2.36,2.36,0,0,1-1.6-.7l.07,1.07v2h-2Zm4.32,3.29c0-1.21-.37-1.83-1.17-1.83a1.52,1.52,0,0,0-1.15.62V20a1.56,1.56,0,0,0,1.07.43C68.32,20.45,68.88,19.85,68.88,18.47Z" transform="translate(-7.5 -6.25)" fill="#e24329"/><path d="M71.94,20c0-1.41,1.13-2.19,3.79-2.46a.93.93,0,0,0-1.06-1,3.58,3.58,0,0,0-1.78.61l-.72-1.31A5.55,5.55,0,0,1,75.05,15c1.73,0,2.68,1,2.68,3v3.86H76.1L76,21.23h0a3,3,0,0,1-2,.85A1.94,1.94,0,0,1,71.94,20ZM75.73,20V18.78c-1.41.19-1.88.6-1.88,1.11s.3.64.78.64A1.5,1.5,0,0,0,75.73,20Z" transform="translate(-7.5 -6.25)" fill="#e24329"/><path d="M79.4,15.18H81l.14.85h0a3.12,3.12,0,0,1,2.16-1c1.47,0,2.1,1,2.1,2.72v4.19h-2V18c0-1-.26-1.28-.83-1.28a1.7,1.7,0,0,0-1.25.65v4.56h-2Z" transform="translate(-7.5 -6.25)" fill="#e24329"/><path d="M86.7,24.42l.35-1.52a3,3,0,0,0,.45.08,1.13,1.13,0,0,0,1.18-.88l.1-.36-2.6-6.56h2l1,2.89c.19.61.35,1.25.53,1.92h0c.15-.64.3-1.28.47-1.92L91,15.18h1.92L90.6,22c-.64,1.7-1.36,2.57-2.95,2.57A3.08,3.08,0,0,1,86.7,24.42Z" transform="translate(-7.5 -6.25)" fill="#e24329"/><path d="M96,13.05h2l.61,4.15c.11.93.25,1.86.36,2.8h0c.18-.94.36-1.87.53-2.8l1-4.15h1.7l1,4.15.53,2.8h0c.12-.95.24-1.89.37-2.8l.61-4.15h1.92l-1.58,8.87H102.6l-.87-4c-.15-.68-.25-1.4-.35-2.05h0c-.11.65-.22,1.37-.37,2.05l-.83,4H97.66Z" transform="translate(-7.5 -6.25)" fill="#e24329"/><path d="M107.29,18.55a3.29,3.29,0,1,1,6.57,0,3.29,3.29,0,1,1-6.57,0Zm4.53,0c0-1.17-.42-1.92-1.24-1.92s-1.24.75-1.24,1.92.41,1.91,1.24,1.91S111.82,19.72,111.82,18.55Z" transform="translate(-7.5 -6.25)" fill="#e24329"/><path d="M115.22,15.18h1.63l.13,1.18H117A2.26,2.26,0,0,1,119,15a2,2,0,0,1,.81.14l-.33,1.73a2.43,2.43,0,0,0-.73-.11A1.67,1.67,0,0,0,117.21,18v3.92h-2Z" transform="translate(-7.5 -6.25)" fill="#e24329"/><path d="M120.65,12.39h1.95v5.46h.05l2.14-2.67H127L124.6,18l2.54,4H125l-1.53-2.63-.85,1v1.66h-1.95Z" transform="translate(-7.5 -6.25)" fill="#e24329"/><path d="M127.94,13.14a1.16,1.16,0,1,1,1.15,1A1.06,1.06,0,0,1,127.94,13.14Zm.16,2h2v6.74h-2Z" transform="translate(-7.5 -6.25)" fill="#e24329"/><path d="M131.81,15.18h1.63l.14.85h0a3.12,3.12,0,0,1,2.16-1c1.47,0,2.1,1,2.1,2.72v4.19h-2V18c0-1-.26-1.28-.83-1.28a1.72,1.72,0,0,0-1.25.65v4.56h-2Z" transform="translate(-7.5 -6.25)" fill="#e24329"/><path d="M139.1,23.07a1.6,1.6,0,0,1,1-1.36v-.05a1.29,1.29,0,0,1-.62-1.14,1.62,1.62,0,0,1,.76-1.27V19.2a2.16,2.16,0,0,1-.91-1.75A2.51,2.51,0,0,1,142.07,15a3.12,3.12,0,0,1,1.05.17h2.46v1.45h-1.07a1.81,1.81,0,0,1,.22.88c0,1.55-1.17,2.27-2.66,2.27a2.83,2.83,0,0,1-.81-.13.57.57,0,0,0-.25.5c0,.34.28.5,1,.5h1.09c1.66,0,2.57.51,2.57,1.72,0,1.4-1.45,2.42-3.77,2.42C140.35,24.79,139.1,24.27,139.1,23.07Zm4.69-.36c0-.42-.37-.53-1-.53h-.69a4.2,4.2,0,0,1-.95-.08.86.86,0,0,0-.37.66c0,.5.6.78,1.5.78S143.79,23.17,143.79,22.71ZM143,17.45c0-.71-.4-1.09-.93-1.09s-.92.37-.92,1.09.39,1.12.92,1.12S143,18.19,143,17.45Z" transform="translate(-7.5 -6.25)" fill="#e24329"/><path d="M149.66,13.05h3.19c1.88,0,3.42.66,3.42,2.76a2.6,2.6,0,0,1-1.58,2.56l2,3.55h-2.24l-1.7-3.2h-1.1v3.2h-2Zm3,4.08c1.05,0,1.62-.45,1.62-1.32s-.57-1.16-1.62-1.16h-1v2.48Z" transform="translate(-7.5 -6.25)" fill="#e24329"/><path d="M157.36,18.55A3.32,3.32,0,0,1,160.55,15c1.91,0,2.86,1.4,2.86,3.24a4.46,4.46,0,0,1-.08.88h-4a1.64,1.64,0,0,0,1.76,1.43,2.7,2.7,0,0,0,1.45-.45l.67,1.21a4.36,4.36,0,0,1-2.39.76A3.29,3.29,0,0,1,157.36,18.55Zm4.35-.74c0-.74-.32-1.27-1.12-1.27a1.34,1.34,0,0,0-1.31,1.27Z" transform="translate(-7.5 -6.25)" fill="#e24329"/><path d="M164.8,15.18h1.63l.14.87h.05a2.83,2.83,0,0,1,2-1,1.87,1.87,0,0,1,1.86,1.13A3,3,0,0,1,172.64,15c1.46,0,2.11,1,2.11,2.72v4.19h-2V18c0-1-.26-1.28-.83-1.28a1.78,1.78,0,0,0-1.15.65v4.56h-2V18c0-1-.26-1.28-.83-1.28a1.76,1.76,0,0,0-1.14.65v4.56h-2Z" transform="translate(-7.5 -6.25)" fill="#e24329"/><path d="M176.05,18.55a3.29,3.29,0,1,1,6.57,0,3.29,3.29,0,1,1-6.57,0Zm4.53,0c0-1.17-.42-1.92-1.24-1.92s-1.23.75-1.23,1.92.4,1.91,1.23,1.91S180.58,19.72,180.58,18.55Z" transform="translate(-7.5 -6.25)" fill="#e24329"/><path d="M184.22,19.47V16.74h-.92V15.26l1-.08.23-1.8h1.66v1.8h1.62v1.56h-1.62v2.7c0,.77.34,1.08.87,1.08a1.87,1.87,0,0,0,.64-.14l.31,1.46a4.79,4.79,0,0,1-1.49.24C184.88,22.08,184.22,21,184.22,19.47Z" transform="translate(-7.5 -6.25)" fill="#e24329"/><path d="M188.71,18.55A3.31,3.31,0,0,1,191.89,15c1.92,0,2.87,1.4,2.87,3.24a4.46,4.46,0,0,1-.08.88h-4a1.64,1.64,0,0,0,1.75,1.43,2.71,2.71,0,0,0,1.46-.45l.66,1.21a4.36,4.36,0,0,1-2.39.76A3.28,3.28,0,0,1,188.71,18.55Zm4.35-.74c0-.74-.33-1.27-1.13-1.27a1.34,1.34,0,0,0-1.31,1.27Z" transform="translate(-7.5 -6.25)" fill="#e24329"/><path d="M8.45,88h1.88V83H8.71V81.79A6.08,6.08,0,0,0,10.86,81h1.46v7h1.62v1.62H8.45Z" transform="translate(-7.5 -6.25)" fill="#322f5b"/><path d="M15.06,88.58,16,87.31a2.76,2.76,0,0,0,1.89.87c.84,0,1.4-.37,1.4-1s-.45-1.24-2.32-1.24V84.51c1.55,0,2-.46,2-1.16s-.38-.95-1.06-.95a2.4,2.4,0,0,0-1.61.76l-1-1.22A4.06,4.06,0,0,1,18,80.84c1.78,0,3,.86,3,2.37a2,2,0,0,1-1.44,1.91v.06a2.13,2.13,0,0,1,1.71,2.1c0,1.61-1.47,2.52-3.21,2.52A3.75,3.75,0,0,1,15.06,88.58Z" transform="translate(-7.5 -6.25)" fill="#322f5b"/><path d="M22.25,83.41c0-1.77.92-2.8,2.2-2.8s2.21,1,2.21,2.8-.93,2.83-2.21,2.83S22.25,85.19,22.25,83.41Zm3,0c0-1.27-.36-1.69-.81-1.69s-.82.42-.82,1.69.37,1.71.82,1.71S25.26,84.67,25.26,83.41Zm4.27-2.8h1.16L25.9,89.8H24.75ZM28.79,87c0-1.77.92-2.8,2.2-2.8s2.21,1,2.21,2.8S32.27,89.8,31,89.8,28.79,88.75,28.79,87Zm3,0c0-1.26-.36-1.68-.81-1.68s-.82.42-.82,1.68.37,1.71.82,1.71S31.8,88.24,31.8,87Z" transform="translate(-7.5 -6.25)" fill="#322f5b"/><path d="M9.13,106a23.19,23.19,0,0,1,.64-2.28,15.5,15.5,0,0,1,.82-2,12.82,12.82,0,0,1,1.08-1.82,12.35,12.35,0,0,1,1.44-1.68H9l.19-.9H14.5l-.14.68a13.79,13.79,0,0,0-1.69,1.91,12.5,12.5,0,0,0-1.16,1.93,13.17,13.17,0,0,0-.76,2c-.2.69-.38,1.4-.53,2.15Z" transform="translate(-7.5 -6.25)" fill="#322f5b"/><path d="M16.71,106.11a2.19,2.19,0,0,1-1-.22,2.29,2.29,0,0,1-.75-.6,2.73,2.73,0,0,1-.48-.93,3.81,3.81,0,0,1-.17-1.19,9.3,9.3,0,0,1,.3-2.43,6.77,6.77,0,0,1,.85-1.92,4.17,4.17,0,0,1,1.29-1.26,3,3,0,0,1,1.61-.45,1.92,1.92,0,0,1,1.16.33,3,3,0,0,1,.73.77l-.71.56a1.85,1.85,0,0,0-.52-.58A1.22,1.22,0,0,0,18.3,98a1.87,1.87,0,0,0-1,.27,2.8,2.8,0,0,0-.85.74,5,5,0,0,0-.67,1.17,6.74,6.74,0,0,0-.41,1.55,2.81,2.81,0,0,1,1-.77,2.59,2.59,0,0,1,1-.24,2,2,0,0,1,1.53.6,2.31,2.31,0,0,1,.57,1.66,3.5,3.5,0,0,1-.21,1.21,3,3,0,0,1-.59,1,2.85,2.85,0,0,1-.89.69A2.44,2.44,0,0,1,16.71,106.11Zm.06-.82a1.33,1.33,0,0,0,.69-.19,1.91,1.91,0,0,0,.57-.49,2.26,2.26,0,0,0,.38-.7,2.5,2.5,0,0,0,.14-.8,1.87,1.87,0,0,0-.35-1.19,1.23,1.23,0,0,0-1-.45,2.17,2.17,0,0,0-.85.24,2.68,2.68,0,0,0-1,.87,2.91,2.91,0,0,0,0,.3v.32a2.68,2.68,0,0,0,.39,1.52A1.25,1.25,0,0,0,16.77,105.29Z" transform="translate(-7.5 -6.25)" fill="#322f5b"/><path d="M20.9,102.93l.16-.8h3l-.18.8Z" transform="translate(-7.5 -6.25)" fill="#322f5b"/><path d="M26.62,106.11a1.92,1.92,0,0,1-1.16-.33,3,3,0,0,1-.73-.77l.71-.56A1.9,1.9,0,0,0,26,105a1.3,1.3,0,0,0,.73.2,1.9,1.9,0,0,0,1-.27,3,3,0,0,0,.84-.74,5,5,0,0,0,.66-1.17,7.16,7.16,0,0,0,.41-1.52,2.8,2.8,0,0,1-1,.74,2.46,2.46,0,0,1-1,.24,2,2,0,0,1-1.55-.6,2.31,2.31,0,0,1-.57-1.66,3.54,3.54,0,0,1,.21-1.21,3.22,3.22,0,0,1,.59-1,2.85,2.85,0,0,1,.89-.69,2.58,2.58,0,0,1,1.11-.25,2.19,2.19,0,0,1,1,.22,2.14,2.14,0,0,1,.76.6,2.73,2.73,0,0,1,.48.93,4.13,4.13,0,0,1,.16,1.19,9.32,9.32,0,0,1-.3,2.44,6.7,6.7,0,0,1-.85,1.91,4.17,4.17,0,0,1-1.29,1.26A3,3,0,0,1,26.62,106.11Zm1.2-4.36a1.55,1.55,0,0,0,.39-.06,1.9,1.9,0,0,0,.46-.18,3,3,0,0,0,.51-.34,3.56,3.56,0,0,0,.5-.52c0-.1,0-.21,0-.31V100a2.68,2.68,0,0,0-.39-1.52,1.25,1.25,0,0,0-1.09-.57,1.33,1.33,0,0,0-.69.19,1.76,1.76,0,0,0-.56.49,2.4,2.4,0,0,0-.51,1.51,1.87,1.87,0,0,0,.34,1.19A1.25,1.25,0,0,0,27.82,101.75Z" transform="translate(-7.5 -6.25)" fill="#322f5b"/><path d="M33.15,106.11a2,2,0,0,1-1.17-.33,2.9,2.9,0,0,1-.72-.77l.7-.56a1.92,1.92,0,0,0,.53.59,1.25,1.25,0,0,0,.72.2,1.9,1.9,0,0,0,1-.27,2.77,2.77,0,0,0,.84-.74,4.36,4.36,0,0,0,.66-1.17,6.61,6.61,0,0,0,.42-1.52,2.89,2.89,0,0,1-1,.74,2.54,2.54,0,0,1-1,.24,2,2,0,0,1-1.55-.6,2.31,2.31,0,0,1-.57-1.66,3.54,3.54,0,0,1,.21-1.21,3.22,3.22,0,0,1,.59-1,3,3,0,0,1,.89-.69,2.58,2.58,0,0,1,1.11-.25,2.22,2.22,0,0,1,1.77.82,2.55,2.55,0,0,1,.47.93,4.12,4.12,0,0,1,.17,1.19,8.9,8.9,0,0,1-.31,2.44A6.44,6.44,0,0,1,36,104.4a4.15,4.15,0,0,1-1.28,1.26A3.06,3.06,0,0,1,33.15,106.11Zm1.19-4.36a1.55,1.55,0,0,0,.39-.06,2,2,0,0,0,.47-.18,3.41,3.41,0,0,0,.5-.34,4.21,4.21,0,0,0,.51-.52c0-.1,0-.21,0-.31V100a2.6,2.6,0,0,0-.4-1.52,1.24,1.24,0,0,0-1.08-.57,1.34,1.34,0,0,0-.7.19,2,2,0,0,0-.56.49,2.47,2.47,0,0,0-.37.7,2.51,2.51,0,0,0-.14.81,1.87,1.87,0,0,0,.35,1.19A1.23,1.23,0,0,0,34.34,101.75Z" transform="translate(-7.5 -6.25)" fill="#322f5b"/><path d="M40,102.44a1.49,1.49,0,0,1-.71-.16,1.45,1.45,0,0,1-.52-.43,2.21,2.21,0,0,1-.33-.65,2.73,2.73,0,0,1-.11-.83,5.06,5.06,0,0,1,.16-1.26A4.29,4.29,0,0,1,39,98a2.7,2.7,0,0,1,.78-.83,1.79,1.79,0,0,1,1.05-.32,1.51,1.51,0,0,1,.71.16,1.43,1.43,0,0,1,.52.43,2.21,2.21,0,0,1,.33.65,3.07,3.07,0,0,1,.11.82,5,5,0,0,1-.16,1.28,4.1,4.1,0,0,1-.48,1.15,2.85,2.85,0,0,1-.79.83A1.78,1.78,0,0,1,40,102.44Zm.07-.68a1,1,0,0,0,.68-.26,2.29,2.29,0,0,0,.5-.66,4.14,4.14,0,0,0,.31-.92,4.77,4.77,0,0,0,.11-1,2.19,2.19,0,0,0-.22-1,.75.75,0,0,0-.72-.41,1,1,0,0,0-.68.26,2.06,2.06,0,0,0-.5.67,3.69,3.69,0,0,0-.31.92,4.17,4.17,0,0,0-.11,1,2.1,2.1,0,0,0,.22,1A.75.75,0,0,0,40.11,101.76Zm-.75,4.35,6.58-9.3h.7l-6.58,9.3Zm5.92,0a1.55,1.55,0,0,1-1.23-.59,2,2,0,0,1-.32-.65,2.73,2.73,0,0,1-.12-.83,5.09,5.09,0,0,1,.17-1.26,3.74,3.74,0,0,1,.48-1.16,2.79,2.79,0,0,1,.77-.83,1.84,1.84,0,0,1,1.06-.32,1.6,1.6,0,0,1,.7.15,1.51,1.51,0,0,1,.53.44,2,2,0,0,1,.32.65,2.71,2.71,0,0,1,.12.82,5.06,5.06,0,0,1-.17,1.28,3.59,3.59,0,0,1-.48,1.15,2.7,2.7,0,0,1-.78.83A1.83,1.83,0,0,1,45.28,106.11Zm.07-.68a1,1,0,0,0,.68-.26,2,2,0,0,0,.5-.66,4.15,4.15,0,0,0,.32-.92,4.77,4.77,0,0,0,.11-1,2.32,2.32,0,0,0-.22-1,.77.77,0,0,0-.72-.41,1,1,0,0,0-.68.26,1.93,1.93,0,0,0-.5.67,4.15,4.15,0,0,0-.32.92,4.77,4.77,0,0,0-.11,1,2.21,2.21,0,0,0,.22,1A.77.77,0,0,0,45.35,105.43Z" transform="translate(-7.5 -6.25)" fill="#322f5b"/></g><path d="M75.94,49.43h1.88v-5H76.2V43.2a6,6,0,0,0,2.15-.79h1.47v7h1.62V51h-5.5Z" transform="translate(-7.5 -6.25)" fill="#322f5b"/><path d="M82.45,46.69c0-2.93,1.24-4.44,3.09-4.44s3.09,1.51,3.09,4.44-1.24,4.52-3.09,4.52S82.45,49.63,82.45,46.69Zm4.29,0c0-2.36-.52-2.89-1.2-2.89s-1.2.53-1.2,2.89.53,3,1.2,3S86.74,49.05,86.74,46.69Z" transform="translate(-7.5 -6.25)" fill="#322f5b"/><path d="M89.62,44.82c0-1.77.92-2.8,2.2-2.8s2.22,1,2.22,2.8-.94,2.83-2.22,2.83S89.62,46.6,89.62,44.82Zm3,0c0-1.27-.37-1.69-.82-1.69s-.82.42-.82,1.69.37,1.71.82,1.71S92.64,46.08,92.64,44.82ZM96.9,42h1.16l-4.79,9.19H92.12Zm-.74,6.36c0-1.77.92-2.8,2.2-2.8s2.22,1,2.22,2.8-.94,2.83-2.22,2.83S96.16,50.16,96.16,48.38Zm3,0c0-1.26-.37-1.69-.82-1.69s-.82.43-.82,1.69.37,1.71.82,1.71S99.18,49.64,99.18,48.38Z" transform="translate(-7.5 -6.25)" fill="#322f5b"/><path d="M75.35,67.36l.17-.87h1.89L78.72,60H77.18l.14-.68a4.89,4.89,0,0,0,1.9-.63H80l-1.58,7.81h1.77l-.16.87Z" transform="translate(-7.5 -6.25)" fill="#322f5b"/><path d="M83.73,67.52a1.87,1.87,0,0,1-.92-.23,2,2,0,0,1-.67-.61,3,3,0,0,1-.41-.93,4.38,4.38,0,0,1-.15-1.18,8.71,8.71,0,0,1,.3-2.31,7.21,7.21,0,0,1,.78-1.93A4.5,4.5,0,0,1,83.8,59a2.21,2.21,0,0,1,1.37-.49,1.84,1.84,0,0,1,.91.23,2,2,0,0,1,.66.63,2.79,2.79,0,0,1,.41.94,4.49,4.49,0,0,1,.14,1.18A9.14,9.14,0,0,1,87,63.81a7.34,7.34,0,0,1-.78,1.91A4.35,4.35,0,0,1,85.1,67,2.26,2.26,0,0,1,83.73,67.52Zm.06-.83a1.4,1.4,0,0,0,1-.47A4.18,4.18,0,0,0,85.59,65a8.17,8.17,0,0,0,.54-1.69,9,9,0,0,0,.2-1.85A3.36,3.36,0,0,0,86,60a1,1,0,0,0-.93-.59,1.37,1.37,0,0,0-1,.48,4.61,4.61,0,0,0-.81,1.23,8,8,0,0,0-.54,1.69,9.1,9.1,0,0,0-.2,1.85,4.25,4.25,0,0,0,.08.83,2.44,2.44,0,0,0,.22.66,1.23,1.23,0,0,0,.38.43A.94.94,0,0,0,83.79,66.69Z" transform="translate(-7.5 -6.25)" fill="#322f5b"/><path d="M90.42,67.52a1.85,1.85,0,0,1-.92-.23,2,2,0,0,1-.67-.61,3.3,3.3,0,0,1-.42-.93,4.83,4.83,0,0,1-.14-1.18,9.14,9.14,0,0,1,.29-2.31,7.56,7.56,0,0,1,.79-1.93A4.36,4.36,0,0,1,90.49,59a2.21,2.21,0,0,1,1.37-.49,1.8,1.8,0,0,1,.9.23,2,2,0,0,1,.67.63,3,3,0,0,1,.41.94A5,5,0,0,1,94,61.5a8.71,8.71,0,0,1-.29,2.31,7.33,7.33,0,0,1-.77,1.91A4.49,4.49,0,0,1,91.79,67,2.28,2.28,0,0,1,90.42,67.52Zm0-.83a1.4,1.4,0,0,0,1-.47,4.37,4.37,0,0,0,.8-1.22,7.61,7.61,0,0,0,.55-1.69,9,9,0,0,0,.2-1.85,3.36,3.36,0,0,0-.3-1.51,1,1,0,0,0-.93-.59,1.37,1.37,0,0,0-1,.48A4.38,4.38,0,0,0,90,61.07a8,8,0,0,0-.54,1.69,9.1,9.1,0,0,0-.2,1.85,3.6,3.6,0,0,0,.08.83,2.14,2.14,0,0,0,.22.66,1.23,1.23,0,0,0,.38.43A.91.91,0,0,0,90.47,66.69Z" transform="translate(-7.5 -6.25)" fill="#322f5b"/><path d="M96.77,63.85a1.49,1.49,0,0,1-.71-.16,1.45,1.45,0,0,1-.52-.43,2.27,2.27,0,0,1-.33-.66,2.63,2.63,0,0,1-.11-.82,5,5,0,0,1,.16-1.26,4.29,4.29,0,0,1,.48-1.16,2.7,2.7,0,0,1,.78-.83,1.72,1.72,0,0,1,1-.32,1.64,1.64,0,0,1,.71.15,1.57,1.57,0,0,1,.52.44,2.21,2.21,0,0,1,.33.65,3,3,0,0,1,.11.82,5,5,0,0,1-.16,1.28,4.1,4.1,0,0,1-.48,1.15,2.85,2.85,0,0,1-.79.83A1.78,1.78,0,0,1,96.77,63.85Zm.06-.68a1,1,0,0,0,.68-.26,2.15,2.15,0,0,0,.51-.66,4.14,4.14,0,0,0,.31-.92,4.77,4.77,0,0,0,.11-1,2.16,2.16,0,0,0-.22-1,.75.75,0,0,0-.72-.41,1,1,0,0,0-.68.26,1.93,1.93,0,0,0-.5.67,3.55,3.55,0,0,0-.31.92,4.17,4.17,0,0,0-.11,1,2.22,2.22,0,0,0,.21,1A.77.77,0,0,0,96.83,63.17Zm-.74,4.35,6.58-9.3h.7l-6.58,9.3Zm5.92,0a1.55,1.55,0,0,1-1.23-.59,2,2,0,0,1-.32-.66,2.62,2.62,0,0,1-.12-.82,5.51,5.51,0,0,1,.16-1.26A4,4,0,0,1,101,63a2.79,2.79,0,0,1,.77-.83,1.77,1.77,0,0,1,1.06-.32,1.6,1.6,0,0,1,.7.15,1.51,1.51,0,0,1,.53.44,2.19,2.19,0,0,1,.32.65,2.66,2.66,0,0,1,.12.82,5.06,5.06,0,0,1-.17,1.28,3.82,3.82,0,0,1-.48,1.15,2.7,2.7,0,0,1-.78.83A1.83,1.83,0,0,1,102,67.52Zm.07-.68a1,1,0,0,0,.68-.26,2,2,0,0,0,.5-.66,4.15,4.15,0,0,0,.32-.92,4.77,4.77,0,0,0,.11-1,2.29,2.29,0,0,0-.22-1,.77.77,0,0,0-.72-.41,1,1,0,0,0-.68.26,2.08,2.08,0,0,0-.51.67,4.51,4.51,0,0,0-.31.92,4.77,4.77,0,0,0-.11,1,2.21,2.21,0,0,0,.22,1A.77.77,0,0,0,102.08,66.84Z" transform="translate(-7.5 -6.25)" fill="#322f5b"/><path d="M172.22,62.53c2.2-2.08,3.75-3.56,3.75-4.78a1.16,1.16,0,0,0-1.22-1.31,2.22,2.22,0,0,0-1.54.88l-1.09-1.07a3.67,3.67,0,0,1,2.9-1.37,2.64,2.64,0,0,1,2.85,2.74c0,1.46-1.36,3-2.76,4.48a12.25,12.25,0,0,1,1.44-.11h1.74v1.68h-6.07Z" transform="translate(-7.5 -6.25)" fill="#322f5b"/><path d="M179.45,62.53c2.2-2.08,3.75-3.56,3.75-4.78A1.16,1.16,0,0,0,182,56.44a2.22,2.22,0,0,0-1.54.88l-1.09-1.07a3.67,3.67,0,0,1,2.9-1.37,2.64,2.64,0,0,1,2.85,2.74c0,1.46-1.35,3-2.76,4.48a12.25,12.25,0,0,1,1.45-.11h1.74v1.68h-6.08Z" transform="translate(-7.5 -6.25)" fill="#322f5b"/><path d="M186.39,57.45c0-1.77.93-2.8,2.21-2.8s2.21,1,2.21,2.8-.93,2.82-2.21,2.82S186.39,59.23,186.39,57.45Zm3,0c0-1.27-.36-1.69-.81-1.69s-.82.42-.82,1.69.37,1.71.82,1.71S189.41,58.71,189.41,57.45Zm4.27-2.8h1.16l-4.79,9.19H188.9ZM192.93,61c0-1.77.93-2.8,2.21-2.8s2.21,1,2.21,2.8-.94,2.83-2.21,2.83S192.93,62.79,192.93,61Zm3,0c0-1.27-.37-1.69-.81-1.69s-.82.42-.82,1.69.37,1.71.82,1.71S196,62.27,196,61Z" transform="translate(-7.5 -6.25)" fill="#322f5b"/><path d="M172.07,80l.18-.87h1.88l1.31-6.49H173.9l.14-.68a4.89,4.89,0,0,0,1.9-.63h.8l-1.57,7.8h1.76l-.16.87Z" transform="translate(-7.5 -6.25)" fill="#322f5b"/><path d="M178.12,77l.16-.81h3l-.18.81Z" transform="translate(-7.5 -6.25)" fill="#322f5b"/><path d="M181.13,80l.11-.62,2.27-1.93a20.83,20.83,0,0,0,1.61-1.51,6.32,6.32,0,0,0,.95-1.27,2.51,2.51,0,0,0,.32-1.23,1.51,1.51,0,0,0-.34-1A1.34,1.34,0,0,0,185,72a2,2,0,0,0-.88.23,4,4,0,0,0-.9.65l-.53-.66a5.33,5.33,0,0,1,1.19-.79,2.81,2.81,0,0,1,1.24-.28,3,3,0,0,1,1,.15,2.25,2.25,0,0,1,.73.45,1.86,1.86,0,0,1,.44.68,2.34,2.34,0,0,1,.15.85,3.23,3.23,0,0,1-.28,1.35,5.49,5.49,0,0,1-.84,1.3,14.4,14.4,0,0,1-1.41,1.42l-2,1.74h3.76l-.17.89Z" transform="translate(-7.5 -6.25)" fill="#322f5b"/><path d="M190.28,80.15a2.7,2.7,0,0,1-1.53-.43,3.6,3.6,0,0,1-1-1l.68-.56a3.54,3.54,0,0,0,.32.44,2.86,2.86,0,0,0,.41.36,1.75,1.75,0,0,0,.53.26,2.16,2.16,0,0,0,1.49-.07,1.89,1.89,0,0,0,.68-.47,2.27,2.27,0,0,0,.48-.72,2.4,2.4,0,0,0,.18-1,1.66,1.66,0,0,0-.43-1.25,1.55,1.55,0,0,0-1.14-.41,2,2,0,0,0-.72.11,4.91,4.91,0,0,0-.73.34L189,75.4l1.09-4.09h4.06l-.17.9h-3.17l-.71,2.55a5.19,5.19,0,0,1,.52-.19,2.45,2.45,0,0,1,.62-.08,2.94,2.94,0,0,1,.91.14,2.19,2.19,0,0,1,.72.43,1.92,1.92,0,0,1,.47.72,2.56,2.56,0,0,1,.17,1,3.53,3.53,0,0,1-.27,1.4,3.31,3.31,0,0,1-.72,1.06,3.15,3.15,0,0,1-1,.67A3.21,3.21,0,0,1,190.28,80.15Z" transform="translate(-7.5 -6.25)" fill="#322f5b"/><path d="M196.63,76.48a1.65,1.65,0,0,1-.71-.16,1.45,1.45,0,0,1-.52-.43,2.27,2.27,0,0,1-.33-.66,3,3,0,0,1-.11-.82,5,5,0,0,1,.16-1.26A4.29,4.29,0,0,1,195.6,72a2.82,2.82,0,0,1,.78-.83,1.72,1.72,0,0,1,1.05-.32,1.64,1.64,0,0,1,.71.15,1.48,1.48,0,0,1,.52.44,2.09,2.09,0,0,1,.33.65,3,3,0,0,1,.11.82,5.1,5.1,0,0,1-.16,1.28,4.1,4.1,0,0,1-.48,1.15,3.1,3.1,0,0,1-.78.83A1.83,1.83,0,0,1,196.63,76.48Zm.07-.68a1,1,0,0,0,.68-.26,2.18,2.18,0,0,0,.5-.67,3.48,3.48,0,0,0,.31-.91,4.17,4.17,0,0,0,.11-1,2.16,2.16,0,0,0-.22-1,.73.73,0,0,0-.72-.41,1,1,0,0,0-.68.25,2.22,2.22,0,0,0-.5.68,3.61,3.61,0,0,0-.31.91,4.94,4.94,0,0,0-.11,1,2.12,2.12,0,0,0,.22,1A.75.75,0,0,0,196.7,75.8ZM196,80.15l6.58-9.3h.71l-6.58,9.3Zm5.93,0a1.61,1.61,0,0,1-.71-.16,1.45,1.45,0,0,1-.52-.43,2.27,2.27,0,0,1-.33-.66,2.66,2.66,0,0,1-.12-.82,5,5,0,0,1,.17-1.26,4.29,4.29,0,0,1,.48-1.16,2.79,2.79,0,0,1,.77-.83,1.77,1.77,0,0,1,1.06-.32,1.57,1.57,0,0,1,.7.15,1.51,1.51,0,0,1,.53.44,1.88,1.88,0,0,1,.32.65,2.66,2.66,0,0,1,.12.82,5.1,5.1,0,0,1-.16,1.28A3.84,3.84,0,0,1,203.7,79a2.82,2.82,0,0,1-.78.83A1.8,1.8,0,0,1,201.88,80.15Zm.06-.68a1,1,0,0,0,.68-.26,2.2,2.2,0,0,0,.51-.67,3.89,3.89,0,0,0,.31-.91,4.77,4.77,0,0,0,.11-1,2.16,2.16,0,0,0-.22-1,.73.73,0,0,0-.72-.41,1,1,0,0,0-.68.25,2.07,2.07,0,0,0-.5.68,4.07,4.07,0,0,0-.32.91,4.92,4.92,0,0,0-.1,1,2.25,2.25,0,0,0,.21,1A.77.77,0,0,0,201.94,79.47Z" transform="translate(-7.5 -6.25)" fill="#322f5b"/><path d="M204,201.63l.93-1.26a2.73,2.73,0,0,0,1.89.87c.84,0,1.4-.37,1.4-1s-.45-1.24-2.33-1.24v-1.41c1.55,0,2-.46,2-1.16s-.38-.95-1.06-.95a2.44,2.44,0,0,0-1.62.76l-1-1.22a4.06,4.06,0,0,1,2.72-1.1c1.78,0,3,.85,3,2.36a2,2,0,0,1-1.44,1.92v.06a2.13,2.13,0,0,1,1.72,2.1c0,1.61-1.47,2.52-3.21,2.52A3.76,3.76,0,0,1,204,201.63Z" transform="translate(-7.5 -6.25)" fill="#322f5b"/><path d="M211.62,201.08h1.88v-5h-1.62v-1.24a6,6,0,0,0,2.15-.79h1.47v7h1.61v1.61h-5.49Z" transform="translate(-7.5 -6.25)" fill="#322f5b"/><path d="M217.56,196.47c0-1.77.93-2.8,2.2-2.8s2.22,1,2.22,2.8-.94,2.83-2.22,2.83S217.56,198.25,217.56,196.47Zm3,0c0-1.27-.37-1.69-.82-1.69s-.81.42-.81,1.69.37,1.71.81,1.71S220.58,197.73,220.58,196.47Zm4.27-2.8H226l-4.78,9.19h-1.16ZM224.1,200c0-1.77.93-2.8,2.2-2.8s2.22,1,2.22,2.8-.94,2.83-2.22,2.83S224.1,201.81,224.1,200Zm3,0c0-1.26-.37-1.69-.82-1.69s-.81.43-.81,1.69.36,1.71.81,1.71S227.12,201.29,227.12,200Z" transform="translate(-7.5 -6.25)" fill="#322f5b"/><path d="M203.59,219l.11-.62,2.27-1.93a20.5,20.5,0,0,0,1.6-1.51,6,6,0,0,0,1-1.27,2.56,2.56,0,0,0,.32-1.23,1.53,1.53,0,0,0-.35-1,1.31,1.31,0,0,0-1.06-.4,1.91,1.91,0,0,0-.88.22,4.18,4.18,0,0,0-.91.65l-.53-.66a5.33,5.33,0,0,1,1.19-.79,2.85,2.85,0,0,1,1.25-.28,2.69,2.69,0,0,1,1,.16,2,2,0,0,1,.73.44,1.76,1.76,0,0,1,.45.68,2.37,2.37,0,0,1,.15.85,3.29,3.29,0,0,1-.29,1.36,5.65,5.65,0,0,1-.84,1.29,13.36,13.36,0,0,1-1.41,1.43l-2,1.73h3.75L209,219Z" transform="translate(-7.5 -6.25)" fill="#322f5b"/><path d="M213.16,219.17a2.16,2.16,0,0,1-1-.22,2.23,2.23,0,0,1-.76-.6,2.92,2.92,0,0,1-.48-.93,4.12,4.12,0,0,1-.17-1.19,8.88,8.88,0,0,1,.31-2.43,6.25,6.25,0,0,1,.85-1.92,4.15,4.15,0,0,1,1.28-1.26,3.06,3.06,0,0,1,1.61-.45,1.92,1.92,0,0,1,1.16.33,2.66,2.66,0,0,1,.73.77l-.71.56a1.78,1.78,0,0,0-.52-.59,1.24,1.24,0,0,0-.71-.2,2,2,0,0,0-1,.26,3.12,3.12,0,0,0-.85.75,4.66,4.66,0,0,0-.67,1.17,7.35,7.35,0,0,0-.41,1.54,2.93,2.93,0,0,1,1-.76,2.54,2.54,0,0,1,1-.24,2,2,0,0,1,1.54.6A2.28,2.28,0,0,1,216,216a3.46,3.46,0,0,1-.21,1.21,3.27,3.27,0,0,1-.59,1,3.09,3.09,0,0,1-.89.69A2.58,2.58,0,0,1,213.16,219.17Zm.05-.82a1.34,1.34,0,0,0,.7-.19,2.19,2.19,0,0,0,.57-.49,2.4,2.4,0,0,0,.51-1.51,1.91,1.91,0,0,0-.34-1.19,1.25,1.25,0,0,0-1-.44,2.21,2.21,0,0,0-.86.24,2.82,2.82,0,0,0-1,.86c0,.1,0,.21,0,.31v.32a2.64,2.64,0,0,0,.39,1.51A1.25,1.25,0,0,0,213.21,218.35Z" transform="translate(-7.5 -6.25)" fill="#322f5b"/><path d="M217.34,216l.17-.8h3l-.17.8Z" transform="translate(-7.5 -6.25)" fill="#322f5b"/><path d="M223.51,219.17a2.61,2.61,0,0,1-1.52-.43,3.52,3.52,0,0,1-1-1l.68-.56a3.61,3.61,0,0,0,.33.44,2,2,0,0,0,.4.36,1.87,1.87,0,0,0,.53.26,2.16,2.16,0,0,0,1.49-.07,2,2,0,0,0,.69-.46,2.23,2.23,0,0,0,.47-.73,2.4,2.4,0,0,0,.18-.95,1.63,1.63,0,0,0-.43-1.25,1.53,1.53,0,0,0-1.13-.41,2.18,2.18,0,0,0-.72.11,5,5,0,0,0-.74.34l-.45-.36,1.09-4.09h4.07l-.18.9h-3.17l-.7,2.56a3,3,0,0,1,.51-.2,2.47,2.47,0,0,1,.63-.08,2.66,2.66,0,0,1,.9.15,1.85,1.85,0,0,1,.72.42,2.07,2.07,0,0,1,.48.72,2.75,2.75,0,0,1,.17,1,3.37,3.37,0,0,1-.28,1.4,3.31,3.31,0,0,1-.72,1.06,3.05,3.05,0,0,1-1,.67A3.21,3.21,0,0,1,223.51,219.17Z" transform="translate(-7.5 -6.25)" fill="#322f5b"/><path d="M230.19,219.17a1.85,1.85,0,0,1-.92-.23,2,2,0,0,1-.67-.61,3.24,3.24,0,0,1-.42-.94,4.75,4.75,0,0,1-.14-1.17,9.14,9.14,0,0,1,.29-2.31,7.93,7.93,0,0,1,.78-1.93,4.4,4.4,0,0,1,1.15-1.32,2.21,2.21,0,0,1,1.37-.49,1.8,1.8,0,0,1,.9.23,1.92,1.92,0,0,1,.67.63,3,3,0,0,1,.41.94,5,5,0,0,1,.14,1.18,9.14,9.14,0,0,1-.29,2.31,7.33,7.33,0,0,1-.77,1.91,4.52,4.52,0,0,1-1.14,1.32A2.24,2.24,0,0,1,230.19,219.17Zm.05-.83a1.4,1.4,0,0,0,1-.47,4.37,4.37,0,0,0,.8-1.22,8.17,8.17,0,0,0,.55-1.69,9,9,0,0,0,.19-1.85,3.36,3.36,0,0,0-.29-1.51,1,1,0,0,0-.93-.59,1.37,1.37,0,0,0-1,.48,4.38,4.38,0,0,0-.81,1.23,8,8,0,0,0-.54,1.69,9.1,9.1,0,0,0-.2,1.85,4.35,4.35,0,0,0,.07.83,2.44,2.44,0,0,0,.23.66,1.14,1.14,0,0,0,.38.43A.89.89,0,0,0,230.24,218.34Z" transform="translate(-7.5 -6.25)" fill="#322f5b"/><path d="M236.54,215.5a1.49,1.49,0,0,1-.71-.16,1.45,1.45,0,0,1-.52-.43,2.27,2.27,0,0,1-.33-.66,2.66,2.66,0,0,1-.12-.82,5,5,0,0,1,.17-1.26,4.29,4.29,0,0,1,.48-1.16,2.79,2.79,0,0,1,.77-.83,1.77,1.77,0,0,1,1.06-.32,1.57,1.57,0,0,1,.7.15,1.51,1.51,0,0,1,.53.44,1.88,1.88,0,0,1,.32.65,2.66,2.66,0,0,1,.12.82,5,5,0,0,1-.16,1.28,3.84,3.84,0,0,1-.49,1.15,2.7,2.7,0,0,1-.78.83A1.8,1.8,0,0,1,236.54,215.5Zm.06-.68a1,1,0,0,0,.68-.26,2.08,2.08,0,0,0,.51-.67,3.89,3.89,0,0,0,.31-.91,4.77,4.77,0,0,0,.11-1,2.16,2.16,0,0,0-.22-1,.73.73,0,0,0-.72-.41,1,1,0,0,0-.68.25,2.07,2.07,0,0,0-.5.68,4,4,0,0,0-.32.92,4.75,4.75,0,0,0-.1,1,2.25,2.25,0,0,0,.21,1A.77.77,0,0,0,236.6,214.82Zm-.74,4.35,6.58-9.3h.7l-6.58,9.3Zm5.92,0a1.45,1.45,0,0,1-.7-.16,1.48,1.48,0,0,1-.53-.43,2,2,0,0,1-.32-.66,2.66,2.66,0,0,1-.12-.82,5.51,5.51,0,0,1,.16-1.26,4,4,0,0,1,.49-1.16,2.79,2.79,0,0,1,.77-.83,1.74,1.74,0,0,1,1.05-.32,1.61,1.61,0,0,1,.71.15,1.48,1.48,0,0,1,.52.44,1.9,1.9,0,0,1,.33.65,2.66,2.66,0,0,1,.12.82,5.06,5.06,0,0,1-.17,1.28,4.1,4.1,0,0,1-.48,1.15,2.7,2.7,0,0,1-.78.83A1.83,1.83,0,0,1,241.78,219.17Zm.07-.68a1,1,0,0,0,.68-.26,1.93,1.93,0,0,0,.5-.67,3.9,3.9,0,0,0,.32-.91,4.75,4.75,0,0,0,.1-1,2.29,2.29,0,0,0-.21-1,.75.75,0,0,0-.72-.41,1,1,0,0,0-.68.25,2.25,2.25,0,0,0-.51.68,4,4,0,0,0-.31.92,4.77,4.77,0,0,0-.11,1,2.24,2.24,0,0,0,.22,1A.77.77,0,0,0,241.85,218.49Z" transform="translate(-7.5 -6.25)" fill="#322f5b"/><g clip-path="url(#clip-path)"><path d="M8.06,182.91c2.2-2.08,3.75-3.56,3.75-4.78a1.17,1.17,0,0,0-1.23-1.31,2.17,2.17,0,0,0-1.53.89L8,176.63a3.67,3.67,0,0,1,2.9-1.37A2.65,2.65,0,0,1,13.71,178c0,1.45-1.36,3-2.76,4.47a12.09,12.09,0,0,1,1.44-.11h1.74v1.69H8.06Z" transform="translate(-7.5 -6.25)" fill="#322f5b"/><path d="M18.78,182H15v-1.37l3.16-5.2h2.44v5.05h1V182h-1v2.07H18.78Zm0-1.52v-1.4c0-.56,0-1.39.08-1.93h-.05c-.22.47-.46,1-.71,1.45L17,180.47Z" transform="translate(-7.5 -6.25)" fill="#322f5b"/><path d="M22.19,177.83c0-1.77.93-2.8,2.2-2.8s2.22,1,2.22,2.8-.94,2.83-2.22,2.83S22.19,179.61,22.19,177.83Zm3,0c0-1.27-.37-1.69-.82-1.69s-.81.42-.81,1.69.37,1.71.81,1.71S25.21,179.09,25.21,177.83Zm4.27-2.8h1.15l-4.78,9.19H24.69Zm-.75,6.36c0-1.77.93-2.8,2.2-2.8s2.22,1,2.22,2.8-.94,2.83-2.22,2.83S28.73,183.17,28.73,181.39Zm3,0c0-1.26-.37-1.68-.82-1.68s-.81.42-.81,1.68.36,1.71.81,1.71S31.75,182.66,31.75,181.39Z" transform="translate(-7.5 -6.25)" fill="#322f5b"/><path d="M10.05,200.53a2.67,2.67,0,0,1-1.53-.43,3.48,3.48,0,0,1-1-1l.68-.56a5,5,0,0,0,.32.44,2.41,2.41,0,0,0,.41.37,1.85,1.85,0,0,0,.53.25,2.23,2.23,0,0,0,1.49-.06,2.17,2.17,0,0,0,.69-.47,2.4,2.4,0,0,0,.65-1.68,1.63,1.63,0,0,0-.43-1.25,1.57,1.57,0,0,0-1.13-.41,2.1,2.1,0,0,0-.72.11,6.23,6.23,0,0,0-.74.34l-.45-.35,1.09-4.1H14l-.17.9H10.61l-.71,2.56a2.66,2.66,0,0,1,.52-.19,2.09,2.09,0,0,1,.63-.08,2.65,2.65,0,0,1,.9.14,1.87,1.87,0,0,1,.72.43,2,2,0,0,1,.48.71,2.79,2.79,0,0,1,.17,1,3.53,3.53,0,0,1-.28,1.4,3.21,3.21,0,0,1-.72,1.06,3.15,3.15,0,0,1-1,.67A3.21,3.21,0,0,1,10.05,200.53Z" transform="translate(-7.5 -6.25)" fill="#322f5b"/><path d="M14,200.37l.17-.87H16.1l1.31-6.5H15.87l.14-.68a4.89,4.89,0,0,0,1.9-.63h.8l-1.58,7.81H18.9l-.16.87Z" transform="translate(-7.5 -6.25)" fill="#322f5b"/><path d="M20.08,197.35l.17-.8h3l-.17.8Z" transform="translate(-7.5 -6.25)" fill="#322f5b"/><path d="M24.73,200.37c.19-.82.41-1.58.64-2.28a18,18,0,0,1,.82-2,15.72,15.72,0,0,1,1.08-1.81,11.77,11.77,0,0,1,1.45-1.68H24.56l.19-.9H30.1l-.13.68a13.27,13.27,0,0,0-1.7,1.91,12.43,12.43,0,0,0-1.15,1.93,13.22,13.22,0,0,0-.77,2c-.2.69-.38,1.4-.53,2.15Z" transform="translate(-7.5 -6.25)" fill="#322f5b"/><path d="M31.85,200.53a2.61,2.61,0,0,1-1.52-.43,3.4,3.4,0,0,1-1-1l.68-.56a3.61,3.61,0,0,0,.33.44,2,2,0,0,0,.4.37,1.85,1.85,0,0,0,.53.25,2.23,2.23,0,0,0,1.49-.06,2.17,2.17,0,0,0,.69-.47,2.23,2.23,0,0,0,.47-.73,2.4,2.4,0,0,0,.18-1,1.63,1.63,0,0,0-.43-1.25,1.57,1.57,0,0,0-1.13-.41,2.18,2.18,0,0,0-.72.11,6.23,6.23,0,0,0-.74.34l-.45-.35,1.09-4.1h4.07l-.18.9H32.41l-.7,2.56a2.35,2.35,0,0,1,.51-.19,2.09,2.09,0,0,1,.63-.08,2.65,2.65,0,0,1,.9.14,1.87,1.87,0,0,1,.72.43,1.9,1.9,0,0,1,.48.71,2.79,2.79,0,0,1,.17,1,3.53,3.53,0,0,1-.27,1.4,3.39,3.39,0,0,1-.73,1.06,3.05,3.05,0,0,1-1,.67A3.21,3.21,0,0,1,31.85,200.53Z" transform="translate(-7.5 -6.25)" fill="#322f5b"/><path d="M38.2,196.86a1.45,1.45,0,0,1-.7-.16,1.48,1.48,0,0,1-.53-.43,2,2,0,0,1-.32-.65,2.73,2.73,0,0,1-.12-.83,5.06,5.06,0,0,1,.16-1.26,4,4,0,0,1,.49-1.16,2.79,2.79,0,0,1,.77-.83,1.81,1.81,0,0,1,1-.32,1.49,1.49,0,0,1,.71.16,1.35,1.35,0,0,1,.52.43,2,2,0,0,1,.33.65,2.71,2.71,0,0,1,.12.82,5.06,5.06,0,0,1-.17,1.28,4.1,4.1,0,0,1-.48,1.15,2.7,2.7,0,0,1-.78.83A1.83,1.83,0,0,1,38.2,196.86Zm.07-.68a1,1,0,0,0,.68-.26,2,2,0,0,0,.5-.66,4.15,4.15,0,0,0,.32-.92,4.75,4.75,0,0,0,.1-1,2.32,2.32,0,0,0-.21-1,.77.77,0,0,0-.72-.41,1,1,0,0,0-.68.26,2.08,2.08,0,0,0-.51.67,4.14,4.14,0,0,0-.31.92,4.77,4.77,0,0,0-.11,1,2.21,2.21,0,0,0,.22,1A.76.76,0,0,0,38.27,196.18Zm-.75,4.35,6.58-9.3h.71l-6.58,9.3Zm5.93,0a1.51,1.51,0,0,1-.71-.16,1.45,1.45,0,0,1-.52-.43,2.21,2.21,0,0,1-.33-.65,3.09,3.09,0,0,1-.11-.83,5,5,0,0,1,.16-1.26,4.29,4.29,0,0,1,.48-1.16,2.82,2.82,0,0,1,.78-.83,1.79,1.79,0,0,1,1-.32A1.64,1.64,0,0,1,45,195a1.48,1.48,0,0,1,.52.44,2.21,2.21,0,0,1,.33.65,3.07,3.07,0,0,1,.11.82,5,5,0,0,1-.16,1.28,4.1,4.1,0,0,1-.48,1.15,3,3,0,0,1-.78.83A1.83,1.83,0,0,1,43.45,200.53Zm.07-.68a1,1,0,0,0,.68-.26,2.13,2.13,0,0,0,.5-.66A3.69,3.69,0,0,0,45,198a4.77,4.77,0,0,0,.11-1,2.19,2.19,0,0,0-.22-1,.75.75,0,0,0-.72-.41,1,1,0,0,0-.68.26,2.06,2.06,0,0,0-.5.67,3.69,3.69,0,0,0-.31.92,4.77,4.77,0,0,0-.11,1,2.1,2.1,0,0,0,.22,1A.75.75,0,0,0,43.52,199.85Z" transform="translate(-7.5 -6.25)" fill="#322f5b"/><g opacity="0.4"><g clip-path="url(#clip-path-4)"><g clip-path="url(#clip-path-4)"><path d="M203.26,137.23a78.93,78.93,0,0,0-77.44-63.7v78.91Z" transform="translate(-7.5 -6.25)" fill="#322f5b"/></g></g></g><path d="M125.82,152.44,47.6,142a79,79,0,0,0,63.62,88Z" transform="translate(-7.5 -6.25)" fill="#322f5b"/><g opacity="0.2"><g clip-path="url(#clip-path-6)"><g clip-path="url(#clip-path-6)"><path d="M204.73,152.44a79.32,79.32,0,0,0-1.47-15.21l-77.44,15.21L111.22,230a79,79,0,0,0,93.51-77.55" transform="translate(-7.5 -6.25)" fill="#322f5b"/></g></g></g><g opacity="0.8"><g clip-path="url(#clip-path-8)"><g clip-path="url(#clip-path-9)"><path d="M47.6,142l78.22,10.43L79.55,88.52A78.88,78.88,0,0,0,47.6,142" transform="translate(-7.5 -6.25)" fill="#322f5b"/></g></g></g><g opacity="0.6"><g clip-path="url(#clip-path-10)"><g clip-path="url(#clip-path-11)"><path d="M125.82,73.53a78.54,78.54,0,0,0-46.27,15l46.27,63.92Z" transform="translate(-7.5 -6.25)" fill="#322f5b"/></g></g></g><path d="M172.94,152.44a47.12,47.12,0,1,1-47.12-47.12,47.11,47.11,0,0,1,47.12,47.12" transform="translate(-7.5 -6.25)" fill="#fff"/><polyline points="118.33 61.8 118.33 146.19 204.34 129.3" fill="none" stroke="#fff" stroke-miterlimit="10" stroke-width="0.62"/><polyline points="30.35 134.47 118.33 146.19 118.33 61.8" fill="none" stroke="#fff" stroke-miterlimit="10" stroke-width="0.62"/><polyline points="118.33 61.8 118.33 146.19 65.74 73.55" fill="none" stroke="#fff" stroke-miterlimit="10" stroke-width="0.62"/><polyline points="118.33 61.8 118.33 146.19 103.47 225.1" fill="none" stroke="#fff" stroke-miterlimit="10" stroke-width="0.62"/><g opacity="0.3"><g clip-path="url(#clip-path-12)"><g clip-path="url(#clip-path-13)"><path d="M125.82,152.44" transform="translate(-7.5 -6.25)" fill="#322f5b"/></g></g></g><line x1="249.06" y1="201.11" x2="253.92" y2="201.11" fill="none" stroke="#ccc" stroke-linecap="round" stroke-linejoin="round" stroke-width="0.97"/><path d="M271.51,207.36h112.4a1.94,1.94,0,0,0,1.94-2V144.17" transform="translate(-7.5 -6.25)" fill="none" stroke="#ccc" stroke-linecap="round" stroke-linejoin="round" stroke-width="0.97" stroke-dasharray="10.1 10.1"/><line x1="378.35" y1="132.87" x2="378.35" y2="128.02" fill="none" stroke="#ccc" stroke-linecap="round" stroke-linejoin="round" stroke-width="0.97"/><polygon points="383.19 129.44 378.35 121.05 373.51 129.44 383.19 129.44" fill="#ccc"/></g></svg>