<?xml version="1.0" encoding="utf-8"?>
<!-- Generator: Adobe Illustrator 24.0.3, SVG Export Plug-In . SVG Version: 6.00 Build 0)  -->
<svg version="1.1" id="Layer_1" xmlns:sketch="http://www.bohemiancoding.com/sketch/ns"
	 xmlns="http://www.w3.org/2000/svg" xmlns:xlink="http://www.w3.org/1999/xlink" x="0px" y="0px" viewBox="0 0 210 194"
	 style="enable-background:new 0 0 210 194;" xml:space="preserve">
<style type="text/css">
	.st0{fill-rule:evenodd;clip-rule:evenodd;fill:#707070;}
	.st1{fill-rule:evenodd;clip-rule:evenodd;fill:#909090;}
	.st2{fill-rule:evenodd;clip-rule:evenodd;fill:#B0B0B0;}
</style>
<title>Group</title>
<desc>Created with Sketch.</desc>
<g id="Page-1" sketch:type="MSPage">
	<g id="Fill-1-_x2B_-Group-24" sketch:type="MSLayerGroup">
		<g id="Group-24" sketch:type="MSShapeGroup">
			<g id="Group">
				<path id="Fill-4" class="st0" d="M105.1,193.7L105.1,193.7l38.6-118.9H66.4L105.1,193.7L105.1,193.7z"/>
				<path id="Fill-6" class="st0" d="M0,0"/>
				<path id="Fill-8" class="st1" d="M105.1,193.7L66.4,74.7H12.3L105.1,193.7z"/>
				<path id="Fill-10" class="st1" d="M0,0"/>
				<path id="Fill-12" class="st2" d="M12.3,74.7L12.3,74.7L0.5,110.9c-1.1,3.3,0.1,6.9,2.9,8.9l101.6,73.8L12.3,74.7z"/>
				<path id="Fill-14" class="st2" d="M0,0"/>
				<path id="Fill-16" class="st0" d="M12.3,74.7h54.2L43.1,3.1c-1.2-3.7-6.4-3.7-7.6,0L12.3,74.7z"/>
				<path id="Fill-18" class="st1" d="M105.1,193.7l38.6-118.9h54.2L105.1,193.7z"/>
				<path id="Fill-20" class="st2" d="M197.9,74.7L197.9,74.7l11.7,36.1c1.1,3.3-0.1,6.9-2.9,8.9l-101.6,73.8L197.9,74.7z"/>
				<path id="Fill-22" class="st0" d="M197.9,74.7h-54.2L167,3.1c1.2-3.7,6.4-3.7,7.6,0L197.9,74.7z"/>
			</g>
		</g>
	</g>
</g>
</svg>
