<svg id="support" xmlns="http://www.w3.org/2000/svg" xmlns:xlink="http://www.w3.org/1999/xlink" viewBox="0 0 183.07 401.86"><defs><clipPath id="clip-path" transform="translate(0.06 -6.62)"><rect x="6.36" y="30.43" width="24.61" height="121.95" fill="none"/></clipPath><clipPath id="clip-path-3" transform="translate(0.06 -6.62)"><rect x="6.36" y="152.37" width="24.61" height="17.85" fill="none"/></clipPath><clipPath id="clip-path-5" transform="translate(0.06 -6.62)"><rect x="6.36" y="244.19" width="24.61" height="97.97" fill="none"/></clipPath><clipPath id="clip-path-7" transform="translate(0.06 -6.62)"><rect x="6.36" y="342.16" width="24.61" height="37.36" fill="none"/></clipPath></defs><title>support</title><path d="M5.68,7.57h2v8.87h-2Z" transform="translate(0.06 -6.62)" fill="#e24329"/><path d="M9.57,9.69h1.64l.13.86h.06a3.12,3.12,0,0,1,2.16-1c1.47,0,2.1,1,2.1,2.72v4.19h-2V12.51c0-1-.26-1.28-.83-1.28a1.69,1.69,0,0,0-1.25.65v4.56h-2Z" transform="translate(0.06 -6.62)" fill="#e24329"/><path d="M17.24,12.29h3.34v1.42H17.24Z" transform="translate(0.06 -6.62)" fill="#e24329"/><path d="M22.19,9.69h1.63l.14.67H24a2.94,2.94,0,0,1,1.92-.83c1.63,0,2.64,1.35,2.64,3.43,0,2.31-1.39,3.65-2.84,3.65a2.35,2.35,0,0,1-1.61-.71L24.19,17v2h-2ZM26.52,13c0-1.21-.37-1.83-1.17-1.83a1.54,1.54,0,0,0-1.16.62v2.76a1.52,1.52,0,0,0,1.08.43C26,15,26.52,14.38,26.52,13Z" transform="translate(0.06 -6.62)" fill="#e24329"/><path d="M29.59,13.07a3.32,3.32,0,0,1,3.19-3.54c1.92,0,2.87,1.4,2.87,3.24a4.46,4.46,0,0,1-.08.88H31.52a1.64,1.64,0,0,0,1.76,1.43,2.74,2.74,0,0,0,1.46-.45l.66,1.22a4.45,4.45,0,0,1-2.39.76A3.3,3.3,0,0,1,29.59,13.07ZM34,12.33c0-.74-.33-1.28-1.13-1.28a1.35,1.35,0,0,0-1.31,1.28Z" transform="translate(0.06 -6.62)" fill="#e24329"/><path d="M37,9.69h1.63l.14,1.19h0a2.26,2.26,0,0,1,1.92-1.35,1.79,1.79,0,0,1,.8.14l-.32,1.72a2.88,2.88,0,0,0-.74-.1A1.66,1.66,0,0,0,39,12.52v3.92H37Z" transform="translate(0.06 -6.62)" fill="#e24329"/><path d="M41.87,15.67l.9-1.25a2.91,2.91,0,0,0,1.74.7c.6,0,.85-.21.85-.57s-.68-.65-1.37-.92-1.78-.87-1.78-2,1-2.11,2.58-2.11a3.83,3.83,0,0,1,2.38.86l-.89,1.2A2.48,2.48,0,0,0,44.85,11c-.52,0-.76.19-.76.53s.62.6,1.31.86c.86.31,1.83.79,1.83,2s-1,2.18-2.78,2.18A4.34,4.34,0,0,1,41.87,15.67Z" transform="translate(0.06 -6.62)" fill="#e24329"/><path d="M48.1,13.07a3.29,3.29,0,1,1,6.57,0,3.29,3.29,0,1,1-6.57,0Zm4.53,0c0-1.17-.42-1.92-1.24-1.92s-1.24.75-1.24,1.92S50.56,15,51.39,15,52.63,14.24,52.63,13.07Z" transform="translate(0.06 -6.62)" fill="#e24329"/><path d="M56,9.69h1.63l.14.86h.06a3.12,3.12,0,0,1,2.16-1c1.47,0,2.1,1,2.1,2.72v4.19h-2V12.51c0-1-.25-1.28-.83-1.28a1.72,1.72,0,0,0-1.25.65v4.56H56Z" transform="translate(0.06 -6.62)" fill="#e24329"/><path d="M66.37,7.65a1.17,1.17,0,1,1,1.16,1A1.07,1.07,0,0,1,66.37,7.65Zm.17,2h2v6.75h-2Z" transform="translate(0.06 -6.62)" fill="#e24329"/><path d="M70.25,9.69h1.64l.13.86h.06a3.12,3.12,0,0,1,2.16-1c1.47,0,2.1,1,2.1,2.72v4.19h-2V12.51c0-1-.26-1.28-.83-1.28a1.72,1.72,0,0,0-1.26.65v4.56h-2Z" transform="translate(0.06 -6.62)" fill="#e24329"/><path d="M78.24,14V11.26h-.93V9.77l1-.08.23-1.79h1.66V9.69h1.62v1.57H80.24V14c0,.76.34,1.07.87,1.07a2.14,2.14,0,0,0,.64-.13l.31,1.45a4.75,4.75,0,0,1-1.49.25C78.89,16.61,78.24,15.56,78.24,14Z" transform="translate(0.06 -6.62)" fill="#e24329"/><path d="M82.73,13.07a3.32,3.32,0,0,1,3.18-3.54c1.92,0,2.88,1.4,2.88,3.24a3.7,3.7,0,0,1-.09.88h-4a1.64,1.64,0,0,0,1.76,1.43,2.7,2.7,0,0,0,1.45-.45l.67,1.22a4.45,4.45,0,0,1-2.39.76A3.29,3.29,0,0,1,82.73,13.07Zm4.36-.74c0-.74-.33-1.28-1.13-1.28a1.34,1.34,0,0,0-1.31,1.28Z" transform="translate(0.06 -6.62)" fill="#e24329"/><path d="M90.17,9.69h1.64l.13,1.19H92a2.26,2.26,0,0,1,1.92-1.35,1.79,1.79,0,0,1,.8.14l-.33,1.72a2.8,2.8,0,0,0-.73-.1,1.67,1.67,0,0,0-1.49,1.23v3.92h-2Z" transform="translate(0.06 -6.62)" fill="#e24329"/><path d="M95.29,14.57c0-1.42,1.13-2.2,3.8-2.47a.93.93,0,0,0-1.06-1,3.61,3.61,0,0,0-1.79.61l-.72-1.32a5.67,5.67,0,0,1,2.89-.88c1.73,0,2.68,1,2.68,3.05v3.86H99.45l-.13-.69h-.06a2.94,2.94,0,0,1-2,.86A2,2,0,0,1,95.29,14.57Zm3.8-.09V13.3c-1.42.19-1.88.6-1.88,1.12s.3.64.77.64A1.51,1.51,0,0,0,99.09,14.48Z" transform="translate(0.06 -6.62)" fill="#e24329"/><path d="M102.37,13.07a3.39,3.39,0,0,1,3.51-3.54,3,3,0,0,1,2,.72l-.94,1.29a1.37,1.37,0,0,0-.91-.39c-1,0-1.58.75-1.58,1.92s.64,1.92,1.51,1.92a2.05,2.05,0,0,0,1.21-.49l.79,1.3a3.33,3.33,0,0,1-2.23.81A3.25,3.25,0,0,1,102.37,13.07Z" transform="translate(0.06 -6.62)" fill="#e24329"/><path d="M109.55,14V11.26h-.92V9.77l1-.08.23-1.79h1.66V9.69h1.62v1.57h-1.62V14c0,.76.34,1.07.87,1.07a2.08,2.08,0,0,0,.64-.13l.32,1.45a4.88,4.88,0,0,1-1.5.25C110.2,16.61,109.55,15.56,109.55,14Z" transform="translate(0.06 -6.62)" fill="#e24329"/><path d="M114.35,7.65a1.17,1.17,0,1,1,1.16,1A1.07,1.07,0,0,1,114.35,7.65Zm.17,2h2v6.75h-2Z" transform="translate(0.06 -6.62)" fill="#e24329"/><path d="M117.84,13.07a3.29,3.29,0,1,1,6.57,0,3.29,3.29,0,1,1-6.57,0Zm4.53,0c0-1.17-.42-1.92-1.24-1.92s-1.24.75-1.24,1.92S120.3,15,121.13,15,122.37,14.24,122.37,13.07Z" transform="translate(0.06 -6.62)" fill="#e24329"/><path d="M125.77,9.69h1.63l.14.86h.06a3.12,3.12,0,0,1,2.16-1c1.47,0,2.1,1,2.1,2.72v4.19h-2V12.51c0-1-.25-1.28-.83-1.28a1.72,1.72,0,0,0-1.25.65v4.56h-2Z" transform="translate(0.06 -6.62)" fill="#e24329"/><path d="M135.68,15.67l.9-1.25a2.91,2.91,0,0,0,1.74.7c.6,0,.86-.21.86-.57s-.68-.65-1.38-.92-1.78-.87-1.78-2,1-2.11,2.58-2.11a3.88,3.88,0,0,1,2.39.86l-.9,1.2a2.46,2.46,0,0,0-1.43-.58c-.52,0-.76.19-.76.53s.62.6,1.32.86c.85.31,1.82.79,1.82,2s-1,2.18-2.78,2.18A4.34,4.34,0,0,1,135.68,15.67Z" transform="translate(0.06 -6.62)" fill="#e24329"/><path d="M142.25,13.89V9.69h2v3.94c0,1,.26,1.28.85,1.28s.8-.22,1.19-.75V9.69h2v6.75h-1.63l-.15-.93h0a2.63,2.63,0,0,1-2.12,1.1C142.88,16.61,142.25,15.57,142.25,13.89Z" transform="translate(0.06 -6.62)" fill="#e24329"/><path d="M150,9.69h1.63l.14.67h.05a2.94,2.94,0,0,1,1.92-.83c1.63,0,2.64,1.35,2.64,3.43,0,2.31-1.39,3.65-2.84,3.65a2.35,2.35,0,0,1-1.61-.71L152,17v2h-2Zm4.33,3.3c0-1.21-.37-1.83-1.18-1.83a1.54,1.54,0,0,0-1.15.62v2.76a1.51,1.51,0,0,0,1.07.43C153.78,15,154.34,14.38,154.34,13Z" transform="translate(0.06 -6.62)" fill="#e24329"/><path d="M157.8,9.69h1.64l.13.67h.06a2.94,2.94,0,0,1,1.92-.83c1.63,0,2.64,1.35,2.64,3.43,0,2.31-1.39,3.65-2.85,3.65a2.32,2.32,0,0,1-1.6-.71l.07,1.08v2h-2Zm4.33,3.3c0-1.21-.36-1.83-1.17-1.83a1.52,1.52,0,0,0-1.15.62v2.76a1.51,1.51,0,0,0,1.07.43C161.57,15,162.13,14.38,162.13,13Z" transform="translate(0.06 -6.62)" fill="#e24329"/><path d="M165.21,13.07a3.29,3.29,0,1,1,6.57,0,3.29,3.29,0,1,1-6.57,0Zm4.53,0c0-1.17-.42-1.92-1.24-1.92s-1.24.75-1.24,1.92S167.67,15,168.5,15,169.74,14.24,169.74,13.07Z" transform="translate(0.06 -6.62)" fill="#e24329"/><path d="M173.14,9.69h1.63l.14,1.19H175a2.27,2.27,0,0,1,1.92-1.35,1.84,1.84,0,0,1,.81.14l-.33,1.72a2.88,2.88,0,0,0-.74-.1,1.66,1.66,0,0,0-1.48,1.23v3.92h-2Z" transform="translate(0.06 -6.62)" fill="#e24329"/><path d="M179.18,14V11.26h-.92V9.77l1-.08.23-1.79h1.66V9.69h1.62v1.57h-1.62V14c0,.76.34,1.07.87,1.07a2.08,2.08,0,0,0,.64-.13l.32,1.45a4.88,4.88,0,0,1-1.5.25C179.84,16.61,179.18,15.56,179.18,14Z" transform="translate(0.06 -6.62)" fill="#e24329"/><path d="M40.67,92.69a2.35,2.35,0,0,1,1.47-2.12v-.06a2.51,2.51,0,0,1-1.16-2c0-1.47,1.16-2.38,2.77-2.38a2.36,2.36,0,0,1,2.62,2.37,2.32,2.32,0,0,1-1.13,1.89v.06a2.44,2.44,0,0,1,1.5,2.25c0,1.37-1.22,2.4-3.06,2.4S40.67,94.09,40.67,92.69Zm4.21-.09c0-.77-.74-1-1.83-1.51a1.91,1.91,0,0,0-.66,1.37,1.23,1.23,0,0,0,1.33,1.21A1,1,0,0,0,44.88,92.6Zm-.12-4a1,1,0,0,0-1-1.12.92.92,0,0,0-1,1c0,.71.6,1,1.48,1.39A1.94,1.94,0,0,0,44.76,88.6Z" transform="translate(0.06 -6.62)" fill="#322f5b"/><path d="M47.79,93.75c2.2-2.08,3.75-3.56,3.75-4.79a1.15,1.15,0,0,0-1.22-1.3,2.22,2.22,0,0,0-1.54.88l-1.09-1.07a3.64,3.64,0,0,1,2.9-1.38,2.65,2.65,0,0,1,2.86,2.75c0,1.46-1.36,3-2.76,4.48a11.93,11.93,0,0,1,1.44-.11h1.74V94.9H47.79Z" transform="translate(0.06 -6.62)" fill="#322f5b"/><path d="M54.74,88.66c0-1.77.93-2.8,2.21-2.8s2.22,1,2.22,2.8-.94,2.83-2.22,2.83S54.74,90.45,54.74,88.66Zm3,0C57.76,87.4,57.4,87,57,87s-.82.42-.82,1.68.37,1.72.82,1.72S57.76,89.93,57.76,88.66ZM62,85.86h1.15l-4.79,9.2H57.25Zm-.75,6.37c0-1.77.92-2.8,2.2-2.8s2.22,1,2.22,2.8-.94,2.83-2.22,2.83S61.29,94,61.29,92.23Zm3,0c0-1.27-.37-1.69-.82-1.69s-.81.42-.81,1.69.36,1.71.81,1.71S64.31,93.5,64.31,92.23Z" transform="translate(0.06 -6.62)" fill="#322f5b"/><path d="M70.65,94.9l.7-3.49L69.89,86H71l.61,2.57c.08.33.16.65.22.95s.15.64.23,1h0l.61-1c.19-.31.4-.64.62-1L75,86h1.13l-3.73,5.44L71.7,94.9Z" transform="translate(0.06 -6.62)" fill="#322f5b"/><path d="M74.94,92.3a4.45,4.45,0,0,1,.31-1.71,4.59,4.59,0,0,1,.81-1.32,3.54,3.54,0,0,1,1.13-.85,3,3,0,0,1,1.29-.3,2.22,2.22,0,0,1,.94.18,1.67,1.67,0,0,1,.63.51,1.85,1.85,0,0,1,.36.76,4.06,4.06,0,0,1,.11,1,3.5,3.5,0,0,1-.08.74c-.06.24-.11.42-.15.55H76a2.82,2.82,0,0,0,0,1.09,1.74,1.74,0,0,0,.36.76,1.42,1.42,0,0,0,.62.43,2.07,2.07,0,0,0,.8.14,2,2,0,0,0,.78-.17,3.74,3.74,0,0,0,.71-.4l.4.69a4,4,0,0,1-.94.5,3.27,3.27,0,0,1-1.19.21,2.56,2.56,0,0,1-1.89-.71A2.76,2.76,0,0,1,74.94,92.3Zm1.15-1.2h3.47c0-.11,0-.22,0-.33a1.89,1.89,0,0,0,0-.35,2,2,0,0,0-.07-.55,1.26,1.26,0,0,0-.21-.47,1.08,1.08,0,0,0-.4-.33,1.34,1.34,0,0,0-.6-.12,1.78,1.78,0,0,0-.71.15,2.08,2.08,0,0,0-.65.44,3.11,3.11,0,0,0-.54.68A3.68,3.68,0,0,0,76.09,91.1Z" transform="translate(0.06 -6.62)" fill="#322f5b"/><path d="M83.13,95.06a2.16,2.16,0,0,1-.66-.1,3,3,0,0,1-.64-.26,3.17,3.17,0,0,1-.56-.4,2.6,2.6,0,0,1-.41-.49l.65-.52a2.62,2.62,0,0,0,.75.7,1.78,1.78,0,0,0,.95.27,1.61,1.61,0,0,0,.54-.09,1.76,1.76,0,0,0,.45-.24,1,1,0,0,0,.3-.35.78.78,0,0,0,.11-.42.88.88,0,0,0-.06-.33.89.89,0,0,0-.2-.29,1.71,1.71,0,0,0-.37-.3l-.58-.34a4,4,0,0,1-1.14-.83,1.39,1.39,0,0,1-.37-1,1.8,1.8,0,0,1,.18-.8,2.32,2.32,0,0,1,.49-.63,2.45,2.45,0,0,1,.73-.4,2.74,2.74,0,0,1,.87-.14,2.32,2.32,0,0,1,1.1.25,3.08,3.08,0,0,1,.85.63l-.6.59a2.66,2.66,0,0,0-.6-.46,1.47,1.47,0,0,0-.77-.19,1.36,1.36,0,0,0-.9.3.94.94,0,0,0-.36.73.76.76,0,0,0,.1.37,1,1,0,0,0,.26.3,4,4,0,0,0,.37.26l.44.24a5.83,5.83,0,0,1,.75.47,2.91,2.91,0,0,1,.47.45,1.42,1.42,0,0,1,.26.46,1.59,1.59,0,0,1,.07.5,1.92,1.92,0,0,1-.18.84,1.73,1.73,0,0,1-.52.65,2.41,2.41,0,0,1-.78.41A3.53,3.53,0,0,1,83.13,95.06Z" transform="translate(0.06 -6.62)" fill="#322f5b"/><path d="M41.05,163.18h1.88v-5H41.31V157a6,6,0,0,0,2.15-.79h1.47v7h1.62v1.62h-5.5Z" transform="translate(0.06 -6.62)" fill="#322f5b"/><path d="M47.79,163.66c2.2-2.08,3.75-3.57,3.75-4.79a1.16,1.16,0,0,0-1.22-1.31,2.22,2.22,0,0,0-1.54.88l-1.09-1.07a3.67,3.67,0,0,1,2.9-1.37,2.65,2.65,0,0,1,2.86,2.74c0,1.46-1.36,3-2.76,4.48a14.39,14.39,0,0,1,1.44-.11h1.74v1.69H47.79Z" transform="translate(0.06 -6.62)" fill="#322f5b"/><path d="M54.74,158.57c0-1.77.93-2.81,2.21-2.81s2.22,1,2.22,2.81-.94,2.83-2.22,2.83S54.74,160.35,54.74,158.57Zm3,0c0-1.27-.36-1.69-.81-1.69s-.82.42-.82,1.69.37,1.71.82,1.71S57.76,159.83,57.76,158.57ZM62,155.76h1.15L58.4,165H57.25Zm-.75,6.37c0-1.77.92-2.8,2.2-2.8s2.22,1,2.22,2.8S64.77,165,63.49,165,61.29,163.92,61.29,162.13Zm3,0c0-1.26-.37-1.68-.82-1.68s-.81.42-.81,1.68.36,1.72.81,1.72S64.31,163.4,64.31,162.13Z" transform="translate(0.06 -6.62)" fill="#322f5b"/><path d="M69.24,164.8,71,155.87h1.06l2,5.72.57,1.86h.06c0-.44.11-.91.17-1.4s.14-1,.23-1.44l.94-4.74h1l-1.78,8.93h-1l-2-5.7-.58-1.92h-.06c0,.46-.11.94-.18,1.42s-.15.94-.24,1.4l-.95,4.8Z" transform="translate(0.06 -6.62)" fill="#322f5b"/><path d="M80,165a2.21,2.21,0,0,1-1.72-.7,2.83,2.83,0,0,1-.64-1.95,4.87,4.87,0,0,1,.3-1.73,4.51,4.51,0,0,1,.8-1.35,3.91,3.91,0,0,1,1.15-.89A2.92,2.92,0,0,1,81.2,158a2.23,2.23,0,0,1,1.72.71,2.78,2.78,0,0,1,.64,2,4.87,4.87,0,0,1-.3,1.73,4.73,4.73,0,0,1-.8,1.35,3.91,3.91,0,0,1-1.15.89A3,3,0,0,1,80,165Zm.11-.87a1.66,1.66,0,0,0,.89-.26,3.06,3.06,0,0,0,.77-.72,3.91,3.91,0,0,0,.54-1.06,4,4,0,0,0,.2-1.3,2.32,2.32,0,0,0-.36-1.39,1.23,1.23,0,0,0-1-.48,1.68,1.68,0,0,0-.89.27,2.49,2.49,0,0,0-.77.72,3.72,3.72,0,0,0-.55,1.07,4.21,4.21,0,0,0-.2,1.3,2.27,2.27,0,0,0,.36,1.38A1.23,1.23,0,0,0,80.1,164.09Z" transform="translate(0.06 -6.62)" fill="#322f5b"/><path d="M44.58,171.78H40.7v-1.69h6v1.23c-2,2.42-2.29,4-2.44,7.42h-2A11.58,11.58,0,0,1,44.58,171.78Z" transform="translate(0.06 -6.62)" fill="#322f5b"/><path d="M47.73,172.5c0-1.77.93-2.8,2.21-2.8s2.22,1,2.22,2.8-.94,2.83-2.22,2.83S47.73,174.29,47.73,172.5Zm3,0c0-1.26-.37-1.69-.82-1.69s-.82.43-.82,1.69.37,1.72.82,1.72S50.76,173.77,50.76,172.5ZM55,169.7h1.16l-4.79,9.2H50.24Zm-.75,6.37c0-1.77.93-2.81,2.21-2.81s2.21,1,2.21,2.81-.93,2.83-2.21,2.83S54.28,177.85,54.28,176.07Zm3,0c0-1.27-.36-1.69-.81-1.69s-.82.42-.82,1.69.37,1.71.82,1.71S57.3,177.33,57.3,176.07Z" transform="translate(0.06 -6.62)" fill="#322f5b"/><path d="M62.24,178.74,64,169.81h1.06l2,5.71.57,1.87h.06c0-.45.11-.92.17-1.41a13.5,13.5,0,0,1,.23-1.44l.94-4.73h1l-1.78,8.93h-1l-2-5.71-.59-1.91h0l-.18,1.41c-.07.48-.15.95-.24,1.4l-.95,4.81Z" transform="translate(0.06 -6.62)" fill="#322f5b"/><path d="M73,178.9a2.21,2.21,0,0,1-1.71-.71,2.77,2.77,0,0,1-.64-1.94,4.8,4.8,0,0,1,.3-1.73,4.44,4.44,0,0,1,.8-1.36,3.88,3.88,0,0,1,1.15-.88,2.92,2.92,0,0,1,1.32-.32,2.23,2.23,0,0,1,1.72.71,2.77,2.77,0,0,1,.64,1.94,4.84,4.84,0,0,1-.3,1.73,4.29,4.29,0,0,1-.81,1.35,3.6,3.6,0,0,1-1.14.89A3,3,0,0,1,73,178.9Zm.11-.87a1.63,1.63,0,0,0,.89-.27,2.58,2.58,0,0,0,.77-.71,3.66,3.66,0,0,0,.55-1.06,4.33,4.33,0,0,0,.2-1.31,2.27,2.27,0,0,0-.36-1.38,1.23,1.23,0,0,0-1.05-.48,1.66,1.66,0,0,0-.89.26,2.76,2.76,0,0,0-.77.72,3.86,3.86,0,0,0-.55,1.07,4.28,4.28,0,0,0-.2,1.31,2.24,2.24,0,0,0,.36,1.37A1.23,1.23,0,0,0,73.1,178Z" transform="translate(0.06 -6.62)" fill="#322f5b"/><path d="M79.44,178.9a2,2,0,0,1-.73-.12,1.29,1.29,0,0,1-.49-.31A1.08,1.08,0,0,1,78,178a1.81,1.81,0,0,1-.08-.58,2.12,2.12,0,0,1,0-.37c0-.12,0-.24,0-.37l.78-3.72h-1l.15-.78,1-.07.49-1.82h.88l-.36,1.82h1.67l-.17.85h-1.7L79,176.75a2.7,2.7,0,0,0,0,.49.89.89,0,0,0,.18.61.84.84,0,0,0,.66.21,1.16,1.16,0,0,0,.37-.07l.33-.14.23.75a4.3,4.3,0,0,1-.55.2A2.21,2.21,0,0,1,79.44,178.9Z" transform="translate(0.06 -6.62)" fill="#322f5b"/><path d="M86.18,178.9a2.16,2.16,0,0,1-.66-.1,2.95,2.95,0,0,1-1.2-.66,2.6,2.6,0,0,1-.41-.49l.65-.52a2.62,2.62,0,0,0,.75.7,1.78,1.78,0,0,0,1,.27,1.64,1.64,0,0,0,1-.33,1.28,1.28,0,0,0,.31-.35.88.88,0,0,0,.1-.43.87.87,0,0,0-.06-.32.76.76,0,0,0-.2-.29,1.71,1.71,0,0,0-.37-.3l-.58-.34a4.36,4.36,0,0,1-1.14-.83,1.39,1.39,0,0,1-.37-1,1.66,1.66,0,0,1,.19-.8,1.88,1.88,0,0,1,.49-.63,2.28,2.28,0,0,1,.72-.4,2.78,2.78,0,0,1,.87-.14,2.44,2.44,0,0,1,1.1.24,3.17,3.17,0,0,1,.85.64l-.6.59A2.66,2.66,0,0,0,88,173a1.44,1.44,0,0,0-.77-.19,1.33,1.33,0,0,0-.89.3.94.94,0,0,0-.36.73.75.75,0,0,0,.09.37,1,1,0,0,0,.26.3,2.65,2.65,0,0,0,.37.25,4.79,4.79,0,0,0,.45.25,6.41,6.41,0,0,1,.74.47,2.91,2.91,0,0,1,.47.45,1.31,1.31,0,0,1,.26.45,1.7,1.7,0,0,1,.08.51,1.92,1.92,0,0,1-.7,1.49,2.81,2.81,0,0,1-.79.41A3.53,3.53,0,0,1,86.18,178.9Z" transform="translate(0.06 -6.62)" fill="#322f5b"/><path d="M96,172.12l-1.32,6.62h-.86l.11-1h-.06a7.55,7.55,0,0,1-1.11.82,2.21,2.21,0,0,1-1.17.35,1.49,1.49,0,0,1-1.21-.44,1.88,1.88,0,0,1-.36-1.21c0-.15,0-.3,0-.43a2.48,2.48,0,0,1,.09-.48l.84-4.22h1l-.83,4.08c0,.19-.06.33-.08.44a1.87,1.87,0,0,0,0,.34,1.11,1.11,0,0,0,.23.76,1,1,0,0,0,.75.26,1.67,1.67,0,0,0,.87-.28A6.11,6.11,0,0,0,94,176.8l.94-4.68Z" transform="translate(0.06 -6.62)" fill="#322f5b"/><path d="M96.75,178.74l1.31-6.62h.86l-.15,1.27h0a3.94,3.94,0,0,1,.92-1,1.83,1.83,0,0,1,1.14-.41,1.59,1.59,0,0,1,.62.12l-.36.93a1.23,1.23,0,0,0-.58-.11,1.6,1.6,0,0,0-1,.42,3.7,3.7,0,0,0-.94,1.24l-.83,4.18Z" transform="translate(0.06 -6.62)" fill="#322f5b"/><path d="M101.33,176.14a4.45,4.45,0,0,1,.31-1.71,4.59,4.59,0,0,1,.81-1.32,3.54,3.54,0,0,1,1.13-.85,3,3,0,0,1,1.28-.3,2.24,2.24,0,0,1,1,.18,1.67,1.67,0,0,1,.63.51,2,2,0,0,1,.36.76,4,4,0,0,1,.11.94,3,3,0,0,1-.09.75,3.68,3.68,0,0,1-.15.55h-4.3a2.8,2.8,0,0,0,0,1.09,1.74,1.74,0,0,0,.36.76,1.42,1.42,0,0,0,.62.43,2.28,2.28,0,0,0,.8.14,2,2,0,0,0,.78-.17,3.65,3.65,0,0,0,.7-.4l.41.69a4,4,0,0,1-.94.5,3.27,3.27,0,0,1-1.19.21,2.56,2.56,0,0,1-1.9-.72A2.76,2.76,0,0,1,101.33,176.14Zm1.15-1.2H106c0-.11,0-.22,0-.33s0-.22,0-.35a2,2,0,0,0-.07-.55,1.08,1.08,0,0,0-.22-.47,1,1,0,0,0-.39-.33,1.34,1.34,0,0,0-.6-.12,1.78,1.78,0,0,0-.71.15,2.23,2.23,0,0,0-.65.43,3.37,3.37,0,0,0-.54.68A3.53,3.53,0,0,0,102.48,174.94Z" transform="translate(0.06 -6.62)" fill="#322f5b"/><g opacity="0.6"><g clip-path="url(#clip-path)"><g clip-path="url(#clip-path)"><path d="M31,135.78V31.4a1,1,0,0,0-1-1H7.33a1,1,0,0,0-1,1v121H31Z" transform="translate(0.06 -6.62)" fill="#322f5b"/></g></g></g><path d="M6.36,178.17a1,1,0,0,0,1,1H30a1,1,0,0,0,1-1v-7.95H6.36Z" transform="translate(0.06 -6.62)" fill="#322f5b"/><g opacity="0.8"><g clip-path="url(#clip-path-3)"><g clip-path="url(#clip-path-3)"><polygon points="31.02 145.76 6.42 145.76 6.42 147.24 6.42 163.6 31.02 163.6 31.02 147.24 31.02 145.76" fill="#322f5b"/></g></g></g><line y1="163.6" x2="35.33" y2="163.6" fill="none" stroke="#fff" stroke-miterlimit="10" stroke-width="0.97"/><line y1="145.76" x2="35.33" y2="145.76" fill="none" stroke="#fff" stroke-miterlimit="10" stroke-width="0.97"/><path d="M5.26,206.39c0-2.94,2-4.66,4.19-4.66a3.76,3.76,0,0,1,2.67,1.16l-1.06,1.28a2.25,2.25,0,0,0-1.56-.71c-1.22,0-2.18,1.08-2.18,2.86s.84,2.89,2.15,2.89a2.39,2.39,0,0,0,1.73-.83l1.06,1.25a3.65,3.65,0,0,1-2.87,1.3C7.14,210.93,5.26,209.37,5.26,206.39Z" transform="translate(0.06 -6.62)" fill="#e24329"/><path d="M13,207.4a3.29,3.29,0,1,1,3.29,3.53A3.31,3.31,0,0,1,13,207.4Zm4.53,0c0-1.17-.42-1.92-1.24-1.92S15,206.23,15,207.4s.4,1.91,1.23,1.91S17.48,208.57,17.48,207.4Z" transform="translate(0.06 -6.62)" fill="#e24329"/><path d="M20.88,204h1.64l.13.86h.06a3.08,3.08,0,0,1,2.16-1c1.47,0,2.1,1,2.1,2.72v4.19H25v-3.93c0-1-.26-1.28-.83-1.28a1.69,1.69,0,0,0-1.25.65v4.56h-2Z" transform="translate(0.06 -6.62)" fill="#e24329"/><path d="M28.65,204h1.64l.13.86h.06a3.08,3.08,0,0,1,2.16-1c1.47,0,2.1,1,2.1,2.72v4.19h-2v-3.93c0-1-.26-1.28-.83-1.28a1.72,1.72,0,0,0-1.26.65v4.56h-2Z" transform="translate(0.06 -6.62)" fill="#e24329"/><path d="M36,207.4a3.32,3.32,0,0,1,3.19-3.54c1.92,0,2.87,1.4,2.87,3.24A4.46,4.46,0,0,1,42,208H38a1.62,1.62,0,0,0,1.75,1.43,2.71,2.71,0,0,0,1.46-.45l.66,1.21a4.36,4.36,0,0,1-2.39.76A3.29,3.29,0,0,1,36,207.4Zm4.36-.74c0-.75-.33-1.28-1.13-1.28A1.34,1.34,0,0,0,38,206.66Z" transform="translate(0.06 -6.62)" fill="#e24329"/><path d="M43.11,207.4a3.39,3.39,0,0,1,3.51-3.54,3,3,0,0,1,2,.72l-.94,1.29a1.39,1.39,0,0,0-.91-.39c-1,0-1.58.75-1.58,1.92s.64,1.91,1.51,1.91a2,2,0,0,0,1.21-.49l.79,1.31a3.32,3.32,0,0,1-2.23.8A3.24,3.24,0,0,1,43.11,207.4Z" transform="translate(0.06 -6.62)" fill="#e24329"/><path d="M50.29,208.32v-2.73h-.93V204.1l1-.08.23-1.8h1.66V204h1.62v1.57H52.29v2.7c0,.77.34,1.08.87,1.08a1.87,1.87,0,0,0,.64-.14l.31,1.46a4.79,4.79,0,0,1-1.49.24C50.94,210.93,50.29,209.89,50.29,208.32Z" transform="translate(0.06 -6.62)" fill="#e24329"/><path d="M55.09,202A1.17,1.17,0,1,1,56.25,203,1.07,1.07,0,0,1,55.09,202Zm.17,2h2v6.75h-2Z" transform="translate(0.06 -6.62)" fill="#e24329"/><path d="M58.58,207.4a3.29,3.29,0,1,1,3.29,3.53A3.31,3.31,0,0,1,58.58,207.4Zm4.53,0c0-1.17-.42-1.92-1.24-1.92s-1.24.75-1.24,1.92.41,1.91,1.24,1.91S63.11,208.57,63.11,207.4Z" transform="translate(0.06 -6.62)" fill="#e24329"/><path d="M66.51,204h1.63l.14.86h.06a3.08,3.08,0,0,1,2.16-1c1.47,0,2.1,1,2.1,2.72v4.19h-2v-3.93c0-1-.25-1.28-.83-1.28a1.72,1.72,0,0,0-1.25.65v4.56h-2Z" transform="translate(0.06 -6.62)" fill="#e24329"/><path d="M77.29,208.32v-2.73h-.93V204.1l1-.08.23-1.8h1.66V204h1.62v1.57H79.29v2.7c0,.77.34,1.08.87,1.08a1.87,1.87,0,0,0,.64-.14l.31,1.46a4.79,4.79,0,0,1-1.49.24C77.94,210.93,77.29,209.89,77.29,208.32Z" transform="translate(0.06 -6.62)" fill="#e24329"/><path d="M81.74,207.4A3.29,3.29,0,1,1,85,210.93,3.31,3.31,0,0,1,81.74,207.4Zm4.53,0c0-1.17-.42-1.92-1.24-1.92s-1.24.75-1.24,1.92.41,1.91,1.24,1.91S86.27,208.57,86.27,207.4Z" transform="translate(0.06 -6.62)" fill="#e24329"/><path d="M92.41,204H94l.14,1.18h0a2.26,2.26,0,0,1,1.92-1.34,2,2,0,0,1,.8.13l-.32,1.73a2.5,2.5,0,0,0-.74-.11,1.67,1.67,0,0,0-1.48,1.24v3.92h-2Z" transform="translate(0.06 -6.62)" fill="#e24329"/><path d="M97.37,207.4a3.32,3.32,0,0,1,3.19-3.54c1.92,0,2.87,1.4,2.87,3.24a4.46,4.46,0,0,1-.08.88h-4a1.62,1.62,0,0,0,1.75,1.43,2.71,2.71,0,0,0,1.46-.45l.67,1.21a4.42,4.42,0,0,1-2.4.76A3.29,3.29,0,0,1,97.37,207.4Zm4.36-.74c0-.75-.33-1.28-1.13-1.28a1.34,1.34,0,0,0-1.31,1.28Z" transform="translate(0.06 -6.62)" fill="#e24329"/><path d="M104.83,204h1.63l.14.87h.05a2.83,2.83,0,0,1,2-1,1.87,1.87,0,0,1,1.86,1.13,2.94,2.94,0,0,1,2.12-1.13c1.46,0,2.11,1,2.11,2.72v4.19h-2v-3.93c0-1-.26-1.28-.83-1.28a1.78,1.78,0,0,0-1.15.65v4.56h-2v-3.93c0-1-.26-1.28-.84-1.28a1.78,1.78,0,0,0-1.14.65v4.56h-2Z" transform="translate(0.06 -6.62)" fill="#e24329"/><path d="M116.1,207.4a3.29,3.29,0,1,1,3.29,3.53A3.31,3.31,0,0,1,116.1,207.4Zm4.53,0c0-1.17-.42-1.92-1.24-1.92s-1.24.75-1.24,1.92.41,1.91,1.24,1.91S120.63,208.57,120.63,207.4Z" transform="translate(0.06 -6.62)" fill="#e24329"/><path d="M124.28,208.32v-2.73h-.93V204.1l1-.08.24-1.8h1.66V204h1.62v1.57h-1.62v2.7c0,.77.34,1.08.87,1.08a1.93,1.93,0,0,0,.64-.14l.31,1.46a4.81,4.81,0,0,1-1.5.24C124.93,210.93,124.28,209.89,124.28,208.32Z" transform="translate(0.06 -6.62)" fill="#e24329"/><path d="M128.77,207.4a3.31,3.31,0,0,1,3.18-3.54c1.92,0,2.87,1.4,2.87,3.24a4.46,4.46,0,0,1-.08.88h-4a1.64,1.64,0,0,0,1.76,1.43,2.7,2.7,0,0,0,1.45-.45l.67,1.21a4.4,4.4,0,0,1-2.4.76A3.28,3.28,0,0,1,128.77,207.4Zm4.35-.74c0-.75-.32-1.28-1.13-1.28a1.33,1.33,0,0,0-1.3,1.28Z" transform="translate(0.06 -6.62)" fill="#e24329"/><path d="M5,221.52H7l.65,3.13c.11.67.19,1.32.3,2H8c.12-.68.23-1.36.39-2l.75-3.13h1.73l.76,3.13c.16.67.29,1.32.42,2h.06c.12-.68.19-1.33.31-2l.64-3.13h1.85l-1.62,6.75H10.91l-.61-2.69c-.14-.63-.25-1.26-.37-2h0c-.13.72-.22,1.35-.34,2l-.6,2.69H6.65Z" transform="translate(0.06 -6.62)" fill="#e24329"/><path d="M15.52,224.9a3.3,3.3,0,1,1,3.3,3.53A3.31,3.31,0,0,1,15.52,224.9Zm4.54,0c0-1.17-.43-1.92-1.24-1.92s-1.24.75-1.24,1.92.41,1.91,1.24,1.91S20.06,226.07,20.06,224.9Z" transform="translate(0.06 -6.62)" fill="#e24329"/><path d="M23.46,221.52h1.63l.14,1.18h.05a2.25,2.25,0,0,1,1.92-1.34,2,2,0,0,1,.8.13l-.32,1.73a2.5,2.5,0,0,0-.74-.11,1.67,1.67,0,0,0-1.48,1.24v3.92h-2Z" transform="translate(0.06 -6.62)" fill="#e24329"/><path d="M28.9,218.73h2v5.47h0L33,221.52h2.17l-2.36,2.78,2.54,4H33.23l-1.53-2.63-.85,1v1.66h-2Z" transform="translate(0.06 -6.62)" fill="#e24329"/><path d="M38.68,224.9a3.39,3.39,0,0,1,3.51-3.54,3,3,0,0,1,2,.72l-.94,1.29a1.39,1.39,0,0,0-.91-.39c-1,0-1.58.75-1.58,1.92s.64,1.91,1.51,1.91a2,2,0,0,0,1.21-.49l.79,1.31a3.35,3.35,0,0,1-2.23.8A3.25,3.25,0,0,1,38.68,224.9Z" transform="translate(0.06 -6.62)" fill="#e24329"/><path d="M44.83,224.9a3.3,3.3,0,1,1,3.3,3.53A3.31,3.31,0,0,1,44.83,224.9Zm4.54,0c0-1.17-.43-1.92-1.24-1.92s-1.24.75-1.24,1.92.41,1.91,1.24,1.91S49.37,226.07,49.37,224.9Z" transform="translate(0.06 -6.62)" fill="#e24329"/><path d="M52.77,221.52H54.4l.14.87h.05a2.82,2.82,0,0,1,2-1,1.87,1.87,0,0,1,1.87,1.13,2.92,2.92,0,0,1,2.12-1.13c1.46,0,2.11,1,2.11,2.72v4.19h-2v-3.93c0-1-.26-1.28-.83-1.28a1.82,1.82,0,0,0-1.16.65v4.56h-2v-3.93c0-1-.26-1.28-.83-1.28a1.76,1.76,0,0,0-1.14.65v4.56h-2Z" transform="translate(0.06 -6.62)" fill="#e24329"/><path d="M64.43,221.52h1.63l.14.87h0a2.82,2.82,0,0,1,2-1,1.87,1.87,0,0,1,1.87,1.13,2.92,2.92,0,0,1,2.12-1.13c1.46,0,2.11,1,2.11,2.72v4.19h-2v-3.93c0-1-.26-1.28-.83-1.28a1.82,1.82,0,0,0-1.16.65v4.56h-2v-3.93c0-1-.25-1.28-.83-1.28a1.78,1.78,0,0,0-1.14.65v4.56h-2Z" transform="translate(0.06 -6.62)" fill="#e24329"/><path d="M76,225.71v-4.19h2v3.93c0,1,.26,1.28.85,1.28s.8-.21,1.2-.75v-4.46h2v6.75H80.43l-.15-.94h0a2.63,2.63,0,0,1-2.12,1.1C76.65,228.43,76,227.4,76,225.71Z" transform="translate(0.06 -6.62)" fill="#e24329"/><path d="M83.79,221.52h1.64l.13.86h.06a3.08,3.08,0,0,1,2.16-1c1.47,0,2.1,1,2.1,2.72v4.19h-2v-3.93c0-1-.26-1.28-.83-1.28a1.72,1.72,0,0,0-1.26.65v4.56h-2Z" transform="translate(0.06 -6.62)" fill="#e24329"/><path d="M91.39,219.48a1.16,1.16,0,1,1,1.15,1.05A1.06,1.06,0,0,1,91.39,219.48Zm.16,2h2v6.75h-2Z" transform="translate(0.06 -6.62)" fill="#e24329"/><path d="M95.55,225.82v-2.73h-.93V221.6l1-.08.23-1.8h1.66v1.8h1.62v1.57H97.55v2.7c0,.77.34,1.08.87,1.08a1.87,1.87,0,0,0,.64-.14l.31,1.46a4.79,4.79,0,0,1-1.49.24C96.2,228.43,95.55,227.39,95.55,225.82Z" transform="translate(0.06 -6.62)" fill="#e24329"/><path d="M100.34,219.48a1.07,1.07,0,0,1,1.16-1,1,1,0,1,1,0,2.09A1.07,1.07,0,0,1,100.34,219.48Zm.16,2h2v6.75h-2Z" transform="translate(0.06 -6.62)" fill="#e24329"/><path d="M103.82,224.9a3.32,3.32,0,0,1,3.19-3.54c1.92,0,2.87,1.4,2.87,3.24a4.46,4.46,0,0,1-.08.88h-4a1.62,1.62,0,0,0,1.75,1.43,2.71,2.71,0,0,0,1.46-.45l.67,1.21a4.42,4.42,0,0,1-2.4.76A3.29,3.29,0,0,1,103.82,224.9Zm4.36-.74c0-.75-.33-1.28-1.13-1.28a1.34,1.34,0,0,0-1.31,1.28Z" transform="translate(0.06 -6.62)" fill="#e24329"/><path d="M110.65,227.5l.9-1.26a2.89,2.89,0,0,0,1.75.71c.59,0,.85-.22.85-.57s-.68-.65-1.37-.93-1.79-.87-1.79-2,1-2.11,2.59-2.11a3.91,3.91,0,0,1,2.38.85l-.9,1.2a2.51,2.51,0,0,0-1.42-.57c-.52,0-.77.19-.77.53s.63.6,1.32.86c.86.31,1.83.79,1.83,2s-1,2.17-2.78,2.17A4.45,4.45,0,0,1,110.65,227.5Z" transform="translate(0.06 -6.62)" fill="#e24329"/><path d="M6.36,384v7.94a1,1,0,0,0,1,1H30a1,1,0,0,0,1-1V379.52H6.36Z" transform="translate(0.06 -6.62)" fill="#322f5b"/><g opacity="0.6"><g clip-path="url(#clip-path-5)"><g clip-path="url(#clip-path-5)"><path d="M31,311V245.16a1,1,0,0,0-1-1H7.33a1,1,0,0,0-1,1v97H31Z" transform="translate(0.06 -6.62)" fill="#322f5b"/></g></g></g><g opacity="0.8"><g clip-path="url(#clip-path-7)"><g clip-path="url(#clip-path-7)"><polygon points="31.02 359.52 31.02 342.92 31.02 335.54 6.42 335.54 6.42 342.92 6.42 359.52 6.42 361 6.42 372.9 31.02 372.9 31.02 361 31.02 359.52" fill="#322f5b"/></g></g></g><path d="M40.66,292.86c0-3.22,1.67-4.68,3.5-4.68a3.44,3.44,0,0,1,2.51,1l-1,1.2a2,2,0,0,0-1.35-.61c-1,0-1.72.68-1.78,2.7a2.41,2.41,0,0,1,4.3,1.75,2.78,2.78,0,0,1-2.88,2.9C42.25,297.15,40.66,295.9,40.66,292.86ZM45,294.25c0-.91-.47-1.25-1.13-1.25a1.5,1.5,0,0,0-1.3.86c.17,1.36.74,1.79,1.34,1.79S45,295.23,45,294.25Z" transform="translate(0.06 -6.62)" fill="#322f5b"/><path d="M47.9,292.86c0-3.22,1.67-4.68,3.5-4.68a3.44,3.44,0,0,1,2.51,1l-1,1.2a2,2,0,0,0-1.35-.61c-1,0-1.72.68-1.79,2.7A2.42,2.42,0,0,1,54,294.25a2.78,2.78,0,0,1-2.88,2.9C49.49,297.15,47.9,295.9,47.9,292.86Zm4.31,1.39c0-.91-.47-1.25-1.13-1.25a1.5,1.5,0,0,0-1.3.86c.17,1.36.74,1.79,1.34,1.79S52.21,295.23,52.21,294.25Z" transform="translate(0.06 -6.62)" fill="#322f5b"/><path d="M54.89,290.75c0-1.77.93-2.8,2.21-2.8s2.22,1,2.22,2.8-.94,2.83-2.22,2.83S54.89,292.54,54.89,290.75Zm3,0c0-1.26-.36-1.68-.81-1.68s-.82.42-.82,1.68.37,1.72.82,1.72S57.91,292,57.91,290.75Zm4.28-2.8h1.16l-4.8,9.2H57.4Zm-.75,6.37c0-1.77.92-2.8,2.2-2.8s2.22,1,2.22,2.8-.94,2.83-2.22,2.83S61.44,296.1,61.44,294.32Zm3,0c0-1.27-.37-1.69-.82-1.69s-.81.42-.81,1.69.36,1.71.81,1.71S64.46,295.58,64.46,294.32Z" transform="translate(0.06 -6.62)" fill="#322f5b"/><path d="M70.83,297l.69-3.49-1.45-5.44h1.09l.61,2.57c.08.33.16.65.22.95s.15.64.23,1h0l.61-1c.19-.31.4-.63.62-1l1.68-2.56h1.13l-3.73,5.44-.7,3.49Z" transform="translate(0.06 -6.62)" fill="#322f5b"/><path d="M75.12,294.39a4.45,4.45,0,0,1,.31-1.71,4.59,4.59,0,0,1,.81-1.32,3.54,3.54,0,0,1,1.13-.85,3,3,0,0,1,1.28-.3,2.24,2.24,0,0,1,.95.18,1.67,1.67,0,0,1,.63.51,2.06,2.06,0,0,1,.36.76,4.06,4.06,0,0,1,.11.95,2.94,2.94,0,0,1-.09.74,3.68,3.68,0,0,1-.15.55h-4.3a2.8,2.8,0,0,0,0,1.09,1.74,1.74,0,0,0,.36.76,1.42,1.42,0,0,0,.62.43,2.07,2.07,0,0,0,.8.14,2,2,0,0,0,.78-.17,3.65,3.65,0,0,0,.7-.4l.41.69a4,4,0,0,1-.94.5,3.27,3.27,0,0,1-1.19.21,2.6,2.6,0,0,1-1.9-.71A2.8,2.8,0,0,1,75.12,294.39Zm1.15-1.2h3.47c0-.11,0-.22.05-.33s0-.22,0-.35a2,2,0,0,0-.07-.55,1.13,1.13,0,0,0-.22-.47,1,1,0,0,0-.39-.33,1.34,1.34,0,0,0-.6-.12,1.78,1.78,0,0,0-.71.15,2.08,2.08,0,0,0-.65.44,3.11,3.11,0,0,0-.54.68A3.31,3.31,0,0,0,76.27,293.19Z" transform="translate(0.06 -6.62)" fill="#322f5b"/><path d="M83.31,297.15a2.16,2.16,0,0,1-.66-.1,3,3,0,0,1-.64-.26,2.84,2.84,0,0,1-.56-.4,2.67,2.67,0,0,1-.42-.49l.66-.52a2.49,2.49,0,0,0,.75.7,1.75,1.75,0,0,0,1,.27,1.61,1.61,0,0,0,.54-.09,2,2,0,0,0,.45-.24,1,1,0,0,0,.3-.35.89.89,0,0,0,0-.75.89.89,0,0,0-.2-.29,1.71,1.71,0,0,0-.37-.3l-.58-.34a4,4,0,0,1-1.14-.83,1.39,1.39,0,0,1-.37-1,1.8,1.8,0,0,1,.18-.8,2.32,2.32,0,0,1,.49-.63,2.52,2.52,0,0,1,.72-.4,2.84,2.84,0,0,1,.88-.14,2.34,2.34,0,0,1,1.1.25,3.08,3.08,0,0,1,.85.63l-.6.59a2.66,2.66,0,0,0-.6-.46,1.5,1.5,0,0,0-.78-.19,1.35,1.35,0,0,0-.89.3.94.94,0,0,0-.36.73.66.66,0,0,0,.1.37,1,1,0,0,0,.26.3,3,3,0,0,0,.37.26l.44.24a5,5,0,0,1,.74.47,2.64,2.64,0,0,1,.48.45,1.42,1.42,0,0,1,.26.46,1.59,1.59,0,0,1,.07.5,1.92,1.92,0,0,1-.18.84,1.73,1.73,0,0,1-.52.65,2.37,2.37,0,0,1-.79.41A3.41,3.41,0,0,1,83.31,297.15Z" transform="translate(0.06 -6.62)" fill="#322f5b"/><path d="M40.6,363.5c2.21-2.08,3.76-3.56,3.76-4.79a1.16,1.16,0,0,0-1.22-1.3,2.2,2.2,0,0,0-1.54.88l-1.09-1.08a3.67,3.67,0,0,1,2.9-1.37,2.65,2.65,0,0,1,2.86,2.75c0,1.46-1.37,3-2.77,4.48A12.25,12.25,0,0,1,45,363h1.74v1.69H40.6Z" transform="translate(0.06 -6.62)" fill="#322f5b"/><path d="M47.75,363.6l.9-1.27a2.75,2.75,0,0,0,1.86.86A1.28,1.28,0,0,0,52,361.84a1.24,1.24,0,0,0-1.36-1.33,2.05,2.05,0,0,0-1.28.43l-.9-.57.24-4.37h4.9v1.69H50.4l-.15,1.62a2.17,2.17,0,0,1,1-.2A2.53,2.53,0,0,1,54,361.79a3,3,0,0,1-3.17,3A4.1,4.1,0,0,1,47.75,363.6Z" transform="translate(0.06 -6.62)" fill="#322f5b"/><path d="M54.86,358.41c0-1.77.93-2.8,2.21-2.8s2.22,1,2.22,2.8-.94,2.83-2.22,2.83S54.86,360.2,54.86,358.41Zm3,0c0-1.26-.37-1.69-.82-1.69s-.82.43-.82,1.69.37,1.72.82,1.72S57.89,359.68,57.89,358.41Zm4.27-2.8h1.16l-4.79,9.2H57.37ZM61.41,362c0-1.77.93-2.81,2.21-2.81s2.22,1,2.22,2.81-.94,2.83-2.22,2.83S61.41,363.76,61.41,362Zm3,0c0-1.27-.36-1.69-.81-1.69s-.82.42-.82,1.69.37,1.71.82,1.71S64.43,363.24,64.43,362Z" transform="translate(0.06 -6.62)" fill="#322f5b"/><path d="M69.37,364.65l1.78-8.93h1.07l2,5.71.57,1.87h0c.06-.45.11-.91.17-1.41s.14-1,.24-1.43l.94-4.74h1l-1.78,8.93h-1l-2-5.71L71.82,357h0c-.06.46-.12.93-.19,1.41s-.14.95-.24,1.4l-1,4.81Z" transform="translate(0.06 -6.62)" fill="#322f5b"/><path d="M80.12,364.81a2.18,2.18,0,0,1-1.71-.71,2.77,2.77,0,0,1-.64-1.94,4.8,4.8,0,0,1,.3-1.73,4.25,4.25,0,0,1,.8-1.36,4,4,0,0,1,1.14-.88,3,3,0,0,1,1.32-.32,2.22,2.22,0,0,1,1.72.71,2.77,2.77,0,0,1,.65,1.94,4.59,4.59,0,0,1-.31,1.73,4.44,4.44,0,0,1-.8,1.36,3.72,3.72,0,0,1-1.14.88A3,3,0,0,1,80.12,364.81Zm.11-.87a1.63,1.63,0,0,0,.89-.27,2.71,2.71,0,0,0,.77-.71,3.66,3.66,0,0,0,.55-1.06,4.33,4.33,0,0,0,.2-1.31,2.27,2.27,0,0,0-.36-1.38,1.24,1.24,0,0,0-1.06-.48,1.72,1.72,0,0,0-.88.26,2.94,2.94,0,0,0-.78.72,4.13,4.13,0,0,0-.54,1.07,4,4,0,0,0-.21,1.31,2.21,2.21,0,0,0,.37,1.37A1.23,1.23,0,0,0,80.23,363.94Z" transform="translate(0.06 -6.62)" fill="#322f5b"/><path d="M40.69,389.94l1.06-1.19a1.94,1.94,0,0,0,1.33.61c1,0,1.72-.68,1.78-2.7a2.44,2.44,0,0,1-1.72.92,2.41,2.41,0,0,1-2.58-2.67,2.78,2.78,0,0,1,2.88-2.9c1.67,0,3.28,1.25,3.28,4.29,0,3.22-1.69,4.68-3.5,4.68A3.48,3.48,0,0,1,40.69,389.94Zm4.13-4.64c-.17-1.36-.73-1.79-1.34-1.79s-1.09.42-1.09,1.4.49,1.25,1.14,1.25A1.5,1.5,0,0,0,44.82,385.3Z" transform="translate(0.06 -6.62)" fill="#322f5b"/><path d="M47.73,384.58c0-1.77.93-2.8,2.21-2.8s2.22,1,2.22,2.8-.94,2.83-2.22,2.83S47.73,386.36,47.73,384.58Zm3,0c0-1.27-.37-1.69-.82-1.69s-.82.42-.82,1.69.37,1.72.82,1.72S50.76,385.85,50.76,384.58Zm4.27-2.8h1.16L51.4,391H50.24Zm-.75,6.37c0-1.77.93-2.81,2.21-2.81s2.21,1,2.21,2.81S57.77,391,56.49,391,54.28,389.93,54.28,388.15Zm3,0c0-1.27-.36-1.69-.81-1.69s-.82.42-.82,1.69.37,1.71.82,1.71S57.3,389.41,57.3,388.15Z" transform="translate(0.06 -6.62)" fill="#322f5b"/><path d="M62.25,390.81,64,381.89H65.1l2,5.71.57,1.87h.05c.06-.45.11-.92.17-1.41s.14-1,.24-1.44l.94-4.73h1l-1.78,8.92h-1l-2-5.7-.59-1.92h0c-.06.47-.12.94-.19,1.42s-.15.95-.24,1.4l-.95,4.8Z" transform="translate(0.06 -6.62)" fill="#322f5b"/><path d="M73,391a2.18,2.18,0,0,1-1.71-.71,2.78,2.78,0,0,1-.64-1.95,4.78,4.78,0,0,1,.3-1.72,4.25,4.25,0,0,1,.8-1.36,4,4,0,0,1,1.14-.88,2.85,2.85,0,0,1,1.32-.32,2.18,2.18,0,0,1,1.72.71,2.77,2.77,0,0,1,.65,1.94,4.63,4.63,0,0,1-.31,1.73,4.28,4.28,0,0,1-.8,1.35,3.6,3.6,0,0,1-1.14.89A3,3,0,0,1,73,391Zm.11-.87a1.63,1.63,0,0,0,.89-.27,2.71,2.71,0,0,0,.77-.71,3.53,3.53,0,0,0,.54-1.06,4,4,0,0,0,.21-1.31,2.27,2.27,0,0,0-.36-1.38,1.24,1.24,0,0,0-1.06-.49,1.64,1.64,0,0,0-.88.27,2.94,2.94,0,0,0-.78.72A4.13,4.13,0,0,0,71.9,387a4,4,0,0,0-.21,1.31,2.19,2.19,0,0,0,.37,1.37A1.23,1.23,0,0,0,73.11,390.11Z" transform="translate(0.06 -6.62)" fill="#322f5b"/><path d="M76.72,393.05l-.15-.63a2.64,2.64,0,0,0,1-.65,1.89,1.89,0,0,0,.48-.9h0a.77.77,0,0,1-.51-.17.61.61,0,0,1-.2-.48.89.89,0,0,1,.24-.61.8.8,0,0,1,.63-.27.67.67,0,0,1,.55.25,1.07,1.07,0,0,1,.19.65,2.75,2.75,0,0,1-.61,1.76A3.11,3.11,0,0,1,76.72,393.05Z" transform="translate(0.06 -6.62)" fill="#322f5b"/><path d="M84.17,390.81h-.85l1.93-9.68h1l-.53,2.58-.3,1.31h0a6.22,6.22,0,0,1,1.06-.69,2.68,2.68,0,0,1,1.19-.29,1.73,1.73,0,0,1,1.39.61,2.72,2.72,0,0,1,.51,1.78,5.16,5.16,0,0,1-.3,1.78,4.7,4.7,0,0,1-.79,1.45,3.62,3.62,0,0,1-1.15,1,2.68,2.68,0,0,1-1.32.36,1.7,1.7,0,0,1-1-.27,2,2,0,0,1-.64-.73h0Zm3.19-5.9a2.25,2.25,0,0,0-1,.28,4,4,0,0,0-1,.79l-.63,3.15a2.16,2.16,0,0,0,.61.75,1.32,1.32,0,0,0,.74.23,1.74,1.74,0,0,0,.95-.3,2.72,2.72,0,0,0,.81-.78,4.25,4.25,0,0,0,.77-2.45,2.09,2.09,0,0,0-.32-1.26A1.07,1.07,0,0,0,87.36,384.91Z" transform="translate(0.06 -6.62)" fill="#322f5b"/><path d="M96.8,384.2l-1.32,6.61h-.86l.11-1h0a9,9,0,0,1-1.11.82,2.25,2.25,0,0,1-1.18.35,1.48,1.48,0,0,1-1.2-.44,1.88,1.88,0,0,1-.36-1.21,3,3,0,0,1,0-.43,2.48,2.48,0,0,1,.09-.48l.84-4.22h1L92,388.28a3.87,3.87,0,0,0-.08.44,1.87,1.87,0,0,0,0,.34,1.13,1.13,0,0,0,.23.76,1,1,0,0,0,.75.26,1.75,1.75,0,0,0,.87-.29,5.6,5.6,0,0,0,1.09-.91l.94-4.68Z" transform="translate(0.06 -6.62)" fill="#322f5b"/><path d="M99.62,391a2,2,0,0,1-.74-.12,1.29,1.29,0,0,1-.49-.31,1.33,1.33,0,0,1-.27-.46,2.14,2.14,0,0,1-.08-.58c0-.14,0-.26,0-.38s0-.23,0-.36l.77-3.73h-1l.15-.77,1-.07.49-1.82h.89l-.37,1.82h1.67l-.16.84h-1.7l-.78,3.79a2.63,2.63,0,0,0,0,.49.86.86,0,0,0,.19.61.83.83,0,0,0,.65.2,1.15,1.15,0,0,0,.37-.06l.33-.14.23.75a4.12,4.12,0,0,1-.54.2A2.26,2.26,0,0,1,99.62,391Z" transform="translate(0.06 -6.62)" fill="#322f5b"/><path d="M105.7,390l-.24,1.41L105,393.6h-1l1.88-9.4h.85l-.08.87h0a6.69,6.69,0,0,1,1.09-.73,2.54,2.54,0,0,1,1.2-.3,1.71,1.71,0,0,1,1.39.62,2.71,2.71,0,0,1,.52,1.77,5.4,5.4,0,0,1-.3,1.78,4.94,4.94,0,0,1-.8,1.45,3.7,3.7,0,0,1-1.14,1,2.71,2.71,0,0,1-1.33.36,1.68,1.68,0,0,1-.93-.27,2,2,0,0,1-.66-.68Zm2.9-5.12a2.25,2.25,0,0,0-1,.28,3.64,3.64,0,0,0-1,.81l-.63,3.15a2,2,0,0,0,.61.74,1.42,1.42,0,0,0,.74.22,1.74,1.74,0,0,0,1-.3A2.72,2.72,0,0,0,109,389a4.25,4.25,0,0,0,.77-2.45,2.09,2.09,0,0,0-.32-1.26A1.07,1.07,0,0,0,108.6,384.91Z" transform="translate(0.06 -6.62)" fill="#322f5b"/><path d="M112.8,391a.9.9,0,0,1-.66-.23.85.85,0,0,1-.22-.63,3,3,0,0,1,.08-.57l1.68-8.42h1L113,389.6a.75.75,0,0,0,0,.17v.09c0,.17.08.25.24.25h.08l.13,0,0,.8a1.38,1.38,0,0,1-.29.08A1.9,1.9,0,0,1,112.8,391Z" transform="translate(0.06 -6.62)" fill="#322f5b"/><path d="M117,391a1.75,1.75,0,0,1-1.39-.61,2.69,2.69,0,0,1-.52-1.79,5.2,5.2,0,0,1,.3-1.78,5,5,0,0,1,.8-1.44,4,4,0,0,1,1.15-1,2.75,2.75,0,0,1,1.33-.35,1.7,1.7,0,0,1,1,.27,1.86,1.86,0,0,1,.64.72h.06l.26-.83h.84l-1.32,6.61h-.86l.11-1h0a3.94,3.94,0,0,1-1.08.84A2.73,2.73,0,0,1,117,391Zm.38-.87a2.18,2.18,0,0,0,1.05-.31,3.39,3.39,0,0,0,1-1l.6-2.95a2,2,0,0,0-.63-.75,1.26,1.26,0,0,0-.72-.23,1.81,1.81,0,0,0-1,.29,3.18,3.18,0,0,0-.82.78,4.26,4.26,0,0,0-.56,1.13,4.13,4.13,0,0,0-.21,1.31,2.08,2.08,0,0,0,.32,1.27A1.08,1.08,0,0,0,117.35,390.11Z" transform="translate(0.06 -6.62)" fill="#322f5b"/><path d="M122.13,390.81l1.3-6.61h.86l-.1,1h.06a8.66,8.66,0,0,1,1.13-.82,2.26,2.26,0,0,1,1.18-.33,1.5,1.5,0,0,1,1.21.43,1.86,1.86,0,0,1,.36,1.21c0,.16,0,.3,0,.44s-.05.3-.09.48l-.85,4.21h-1l.82-4.08c0-.18.06-.32.08-.43a1.94,1.94,0,0,0,0-.34,1.11,1.11,0,0,0-.23-.77,1,1,0,0,0-.74-.25,1.73,1.73,0,0,0-.88.28,6.37,6.37,0,0,0-1.11.91l-.94,4.68Z" transform="translate(0.06 -6.62)" fill="#322f5b"/><path d="M134,391a2,2,0,0,1-.74-.12,1.29,1.29,0,0,1-.49-.31,1.19,1.19,0,0,1-.27-.46,2.14,2.14,0,0,1-.08-.58,2.3,2.3,0,0,1,0-.38c0-.11,0-.23.05-.36l.77-3.73h-1l.15-.77,1-.07.49-1.82h.88l-.36,1.82h1.67L136,385h-1.7l-.78,3.79a2.63,2.63,0,0,0,0,.49.91.91,0,0,0,.18.61.87.87,0,0,0,.66.2,1.15,1.15,0,0,0,.37-.06l.33-.14.23.75a4.3,4.3,0,0,1-.55.2A2.15,2.15,0,0,1,134,391Z" transform="translate(0.06 -6.62)" fill="#322f5b"/><path d="M138.54,391a2.22,2.22,0,0,1-1.72-.71,2.83,2.83,0,0,1-.64-1.95,4.78,4.78,0,0,1,.3-1.72,4.44,4.44,0,0,1,.8-1.36,3.88,3.88,0,0,1,1.15-.88,2.8,2.8,0,0,1,1.32-.32,2.2,2.2,0,0,1,1.72.71,2.77,2.77,0,0,1,.64,1.94,4.84,4.84,0,0,1-.3,1.73,4.47,4.47,0,0,1-.8,1.35,3.75,3.75,0,0,1-1.15.89A3,3,0,0,1,138.54,391Zm.11-.87a1.68,1.68,0,0,0,.89-.27,2.84,2.84,0,0,0,.77-.71,4.06,4.06,0,0,0,.54-1.06,4.33,4.33,0,0,0,.2-1.31,2.27,2.27,0,0,0-.36-1.38,1.24,1.24,0,0,0-1.05-.49,1.68,1.68,0,0,0-.89.27,2.76,2.76,0,0,0-.77.72,3.86,3.86,0,0,0-.55,1.07,4.28,4.28,0,0,0-.2,1.31,2.26,2.26,0,0,0,.36,1.37A1.24,1.24,0,0,0,138.65,390.11Z" transform="translate(0.06 -6.62)" fill="#322f5b"/><path d="M151,385l.21-1.29.52-2.58h1.05l-2,9.68H150l.11-1H150a3.94,3.94,0,0,1-1.08.84,2.73,2.73,0,0,1-1.22.31,1.75,1.75,0,0,1-1.39-.61,2.75,2.75,0,0,1-.52-1.79,5.2,5.2,0,0,1,.3-1.78,5,5,0,0,1,.8-1.44,4,4,0,0,1,1.15-1,2.75,2.75,0,0,1,1.33-.35,1.69,1.69,0,0,1,.93.26,2.16,2.16,0,0,1,.64.7Zm-2.9,5.11a2.18,2.18,0,0,0,1-.31,3.51,3.51,0,0,0,1-1l.6-2.95a2,2,0,0,0-.63-.75,1.26,1.26,0,0,0-.72-.23,1.81,1.81,0,0,0-.95.29,3.18,3.18,0,0,0-.82.78,4.26,4.26,0,0,0-.56,1.13,4.13,4.13,0,0,0-.21,1.31,2.08,2.08,0,0,0,.32,1.27A1.08,1.08,0,0,0,148.09,390.11Z" transform="translate(0.06 -6.62)" fill="#322f5b"/><path d="M155.31,391a2.21,2.21,0,0,1-1.71-.71,2.78,2.78,0,0,1-.64-1.95,4.78,4.78,0,0,1,.3-1.72,4.44,4.44,0,0,1,.8-1.36,3.88,3.88,0,0,1,1.15-.88,2.79,2.79,0,0,1,1.31-.32,2.21,2.21,0,0,1,1.73.71,2.77,2.77,0,0,1,.64,1.94,4.84,4.84,0,0,1-.3,1.73,4.49,4.49,0,0,1-.81,1.35,3.6,3.6,0,0,1-1.14.89A3,3,0,0,1,155.31,391Zm.11-.87a1.63,1.63,0,0,0,.89-.27,2.58,2.58,0,0,0,.77-.71,3.79,3.79,0,0,0,.55-1.06,4.33,4.33,0,0,0,.2-1.31,2.27,2.27,0,0,0-.36-1.38,1.24,1.24,0,0,0-1.05-.49,1.68,1.68,0,0,0-.89.27,2.76,2.76,0,0,0-.77.72,3.86,3.86,0,0,0-.55,1.07,4.28,4.28,0,0,0-.2,1.31,2.26,2.26,0,0,0,.36,1.37A1.23,1.23,0,0,0,155.42,390.11Z" transform="translate(0.06 -6.62)" fill="#322f5b"/><path d="M42.32,408.48a2.16,2.16,0,0,1-.66-.1,3,3,0,0,1-.64-.26,3.32,3.32,0,0,1-.56-.4,2.27,2.27,0,0,1-.41-.49l.65-.52a2.62,2.62,0,0,0,.75.7,1.77,1.77,0,0,0,.95.26,1.61,1.61,0,0,0,.54-.08,2,2,0,0,0,.45-.24,1.1,1.1,0,0,0,.3-.35.79.79,0,0,0,.11-.43.87.87,0,0,0-.06-.32,1,1,0,0,0-.2-.3,2.07,2.07,0,0,0-.37-.29l-.58-.34a4.2,4.2,0,0,1-1.14-.83,1.39,1.39,0,0,1-.37-1,1.77,1.77,0,0,1,.18-.8,2.05,2.05,0,0,1,.49-.63,2.45,2.45,0,0,1,.73-.4,2.48,2.48,0,0,1,.87-.14,2.44,2.44,0,0,1,1.1.24,3.33,3.33,0,0,1,.85.64l-.6.59a3,3,0,0,0-.6-.47,1.61,1.61,0,0,0-.78-.19,1.36,1.36,0,0,0-.89.31.93.93,0,0,0-.36.73.69.69,0,0,0,.1.37,1.16,1.16,0,0,0,.26.29,2,2,0,0,0,.37.26c.14.09.29.17.44.25A5,5,0,0,1,44,405a2.64,2.64,0,0,1,.48.45,1.49,1.49,0,0,1,.26.45,1.66,1.66,0,0,1,.07.51,1.92,1.92,0,0,1-.18.84,1.81,1.81,0,0,1-.52.65,2.4,2.4,0,0,1-.78.4A3.21,3.21,0,0,1,42.32,408.48Z" transform="translate(0.06 -6.62)" fill="#322f5b"/><path d="M48.33,408.48a2.2,2.2,0,0,1-1.71-.71,2.78,2.78,0,0,1-.64-1.95,4.78,4.78,0,0,1,.3-1.72,4.25,4.25,0,0,1,.8-1.36,4,4,0,0,1,1.14-.88,2.85,2.85,0,0,1,1.32-.32,2.22,2.22,0,0,1,1.73.71,2.77,2.77,0,0,1,.64,1.94,4.63,4.63,0,0,1-.31,1.73,4.28,4.28,0,0,1-.8,1.35,3.6,3.6,0,0,1-1.14.89A3,3,0,0,1,48.33,408.48Zm.11-.87a1.63,1.63,0,0,0,.89-.27,2.71,2.71,0,0,0,.77-.71,3.79,3.79,0,0,0,.55-1.06,4.33,4.33,0,0,0,.2-1.31,2.27,2.27,0,0,0-.36-1.38,1.24,1.24,0,0,0-1.05-.49,1.68,1.68,0,0,0-.89.27,2.94,2.94,0,0,0-.78.72,4.13,4.13,0,0,0-.54,1.07,4,4,0,0,0-.2,1.31,2.26,2.26,0,0,0,.36,1.37A1.23,1.23,0,0,0,48.44,407.61Z" transform="translate(0.06 -6.62)" fill="#322f5b"/><path d="M55.49,408.31l1.32-6.61h1l-1.34,6.61Zm2.2-8a.73.73,0,0,1-.46-.16.53.53,0,0,1-.2-.46.74.74,0,0,1,.24-.56.78.78,0,0,1,.55-.23.71.71,0,0,1,.47.17.56.56,0,0,1,.19.46.75.75,0,0,1-.23.56A.84.84,0,0,1,57.69,400.33Z" transform="translate(0.06 -6.62)" fill="#322f5b"/><path d="M58.59,408.31l1.31-6.61h.86l-.1,1h.06a8,8,0,0,1,1.13-.82,2.26,2.26,0,0,1,1.18-.33,1.47,1.47,0,0,1,1.2.43,1.86,1.86,0,0,1,.36,1.21,3.1,3.1,0,0,1,0,.44,3.42,3.42,0,0,1-.08.48l-.85,4.21h-1l.81-4.08c0-.18.07-.32.09-.43s0-.23,0-.34a1.11,1.11,0,0,0-.23-.77,1,1,0,0,0-.75-.25,1.73,1.73,0,0,0-.87.28,5.71,5.71,0,0,0-1.11.91l-.94,4.68Z" transform="translate(0.06 -6.62)" fill="#322f5b"/><path d="M70.45,408.48a2,2,0,0,1-.74-.12,1.29,1.29,0,0,1-.49-.31,1.08,1.08,0,0,1-.27-.46,1.81,1.81,0,0,1-.08-.58,2.3,2.3,0,0,1,0-.38c0-.11,0-.23,0-.36l.77-3.73h-1l.15-.77,1-.07.49-1.82h.88l-.36,1.82h1.67l-.16.84H70.74L70,406.33a2.63,2.63,0,0,0,0,.49.91.91,0,0,0,.18.61.84.84,0,0,0,.66.2,1.15,1.15,0,0,0,.37-.06l.33-.14.23.75a4.3,4.3,0,0,1-.55.2A2.19,2.19,0,0,1,70.45,408.48Z" transform="translate(0.06 -6.62)" fill="#322f5b"/><path d="M72.76,408.31l1.93-9.68h1l-.65,3.19-.22.83h0a8.92,8.92,0,0,1,1.12-.79,2.17,2.17,0,0,1,1.15-.32,1.48,1.48,0,0,1,1.21.43,1.86,1.86,0,0,1,.36,1.21c0,.16,0,.3,0,.44a2.48,2.48,0,0,1-.09.48l-.84,4.21h-1l.82-4.08c0-.18.06-.32.08-.43a2,2,0,0,0,0-.34,1.16,1.16,0,0,0-.23-.77,1,1,0,0,0-.75-.25,1.73,1.73,0,0,0-.88.28,6.37,6.37,0,0,0-1.11.91l-.94,4.68Z" transform="translate(0.06 -6.62)" fill="#322f5b"/><path d="M79.86,405.71a4.44,4.44,0,0,1,.32-1.7,4.24,4.24,0,0,1,.8-1.32,3.66,3.66,0,0,1,1.13-.85,3,3,0,0,1,1.29-.3,2.27,2.27,0,0,1,.95.18,1.73,1.73,0,0,1,.63.5,2.09,2.09,0,0,1,.35.77,3.56,3.56,0,0,1,.11.94,3.52,3.52,0,0,1-.08.75,3.68,3.68,0,0,1-.15.55h-4.3a3,3,0,0,0,0,1.09,2.06,2.06,0,0,0,.36.76,1.48,1.48,0,0,0,.62.43,2.38,2.38,0,0,0,.81.14,2,2,0,0,0,.78-.17,4.27,4.27,0,0,0,.7-.4l.41.69a4.38,4.38,0,0,1-.94.5,3.29,3.29,0,0,1-1.2.21,2.52,2.52,0,0,1-1.89-.72A2.79,2.79,0,0,1,79.86,405.71ZM81,404.52h3.47c0-.11,0-.22.05-.33s0-.23,0-.35a2.43,2.43,0,0,0-.07-.55,1.36,1.36,0,0,0-.22-.47,1,1,0,0,0-.39-.33,1.4,1.4,0,0,0-.6-.12,1.79,1.79,0,0,0-.72.15,2.18,2.18,0,0,0-.64.43,3.37,3.37,0,0,0-.54.68A3.2,3.2,0,0,0,81,404.52Z" transform="translate(0.06 -6.62)" fill="#322f5b"/><path d="M88.94,408.31l1.3-6.61h.86l-.09,1h0a8.66,8.66,0,0,1,1.13-.82,2.29,2.29,0,0,1,1.18-.33,1.48,1.48,0,0,1,1.21.43,1.86,1.86,0,0,1,.36,1.21c0,.16,0,.3,0,.44a3.58,3.58,0,0,1-.09.48L94,408.31H93l.82-4.08c0-.18.06-.32.08-.43a2,2,0,0,0,0-.34,1.16,1.16,0,0,0-.23-.77,1,1,0,0,0-.75-.25,1.73,1.73,0,0,0-.88.28,6.37,6.37,0,0,0-1.11.91L90,408.31Z" transform="translate(0.06 -6.62)" fill="#322f5b"/><path d="M96.08,405.71a4.44,4.44,0,0,1,.32-1.7,4.24,4.24,0,0,1,.8-1.32,3.66,3.66,0,0,1,1.13-.85,3,3,0,0,1,1.29-.3,2.27,2.27,0,0,1,.95.18,1.73,1.73,0,0,1,.63.5,2.09,2.09,0,0,1,.35.77,3.56,3.56,0,0,1,.11.94,3.52,3.52,0,0,1-.08.75,5.5,5.5,0,0,1-.15.55h-4.3a3,3,0,0,0,0,1.09,2.06,2.06,0,0,0,.36.76,1.48,1.48,0,0,0,.62.43,2.38,2.38,0,0,0,.81.14,2,2,0,0,0,.78-.17,4.27,4.27,0,0,0,.7-.4l.41.69a4.38,4.38,0,0,1-.94.5,3.29,3.29,0,0,1-1.2.21,2.52,2.52,0,0,1-1.89-.72A2.79,2.79,0,0,1,96.08,405.71Zm1.16-1.19h3.47c0-.11,0-.22.05-.33s0-.23,0-.35a2.43,2.43,0,0,0-.07-.55,1.36,1.36,0,0,0-.22-.47,1,1,0,0,0-.39-.33,1.4,1.4,0,0,0-.6-.12,1.79,1.79,0,0,0-.72.15,2.18,2.18,0,0,0-.64.43,3.37,3.37,0,0,0-.54.68A3.2,3.2,0,0,0,97.24,404.52Z" transform="translate(0.06 -6.62)" fill="#322f5b"/><path d="M104.53,408.48a1.72,1.72,0,0,1-1.38-.61,2.69,2.69,0,0,1-.52-1.79,5.2,5.2,0,0,1,.3-1.78,4.78,4.78,0,0,1,.8-1.44,4.15,4.15,0,0,1,1.14-1,2.79,2.79,0,0,1,1.34-.35,1.67,1.67,0,0,1,.94.27,1.81,1.81,0,0,1,.65.72h0l.26-.83H109l-1.32,6.61h-.86l.11-1h-.06a3.75,3.75,0,0,1-1.07.84A2.73,2.73,0,0,1,104.53,408.48Zm.38-.87a2.18,2.18,0,0,0,1.06-.31,3.39,3.39,0,0,0,1-1l.6-2.95a2.12,2.12,0,0,0-.63-.75,1.31,1.31,0,0,0-.72-.23,1.76,1.76,0,0,0-1,.29,3,3,0,0,0-.82.78,4,4,0,0,0-.57,1.13,4.13,4.13,0,0,0-.21,1.31,2,2,0,0,0,.33,1.27A1.06,1.06,0,0,0,104.91,407.61Z" transform="translate(0.06 -6.62)" fill="#322f5b"/><path d="M109.69,408.31,111,401.7h.85L111.7,403h.06a3.94,3.94,0,0,1,.92-1,1.75,1.75,0,0,1,1.13-.41,1.61,1.61,0,0,1,.63.12l-.37.93a1.16,1.16,0,0,0-.57-.11,1.63,1.63,0,0,0-1,.42,4,4,0,0,0-.94,1.24l-.83,4.17Z" transform="translate(0.06 -6.62)" fill="#322f5b"/><path d="M117.42,402.54l.15-.77.88-.07.22-1.1a3.19,3.19,0,0,1,.73-1.57,1.77,1.77,0,0,1,1.37-.57,2.15,2.15,0,0,1,.64.09,2.53,2.53,0,0,1,.53.24l-.37.75a1.71,1.71,0,0,0-.33-.17,1.22,1.22,0,0,0-.41-.06.88.88,0,0,0-.72.34,1.9,1.9,0,0,0-.39.92l-.23,1.13h1.33l-.16.84h-1.35l-1.16,5.77h-1l1.16-5.77Z" transform="translate(0.06 -6.62)" fill="#322f5b"/><path d="M127,401.7l-1.32,6.61h-.86l.11-1h0a9,9,0,0,1-1.11.82,2.25,2.25,0,0,1-1.18.35,1.48,1.48,0,0,1-1.2-.44,1.88,1.88,0,0,1-.36-1.21,3,3,0,0,1,0-.43,2.48,2.48,0,0,1,.09-.48l.84-4.22h1l-.83,4.08c0,.18-.07.33-.09.44s0,.22,0,.34a1.08,1.08,0,0,0,.23.76,1,1,0,0,0,.75.26,1.75,1.75,0,0,0,.87-.29,5.6,5.6,0,0,0,1.09-.91l.94-4.68Z" transform="translate(0.06 -6.62)" fill="#322f5b"/><path d="M129.86,408.48a2,2,0,0,1-.74-.12,1.29,1.29,0,0,1-.49-.31,1.19,1.19,0,0,1-.27-.46,2.14,2.14,0,0,1-.08-.58,2.3,2.3,0,0,1,0-.38c0-.11,0-.23,0-.36l.77-3.73h-1l.15-.77,1-.07.49-1.82h.88l-.36,1.82H132l-.16.84h-1.7l-.78,3.79a2.63,2.63,0,0,0,0,.49.91.91,0,0,0,.18.61.87.87,0,0,0,.66.2,1.15,1.15,0,0,0,.37-.06l.33-.14.23.75a4.3,4.3,0,0,1-.55.2A2.15,2.15,0,0,1,129.86,408.48Z" transform="translate(0.06 -6.62)" fill="#322f5b"/><path d="M138.33,401.7,137,408.31h-.85l.11-1h-.06a8.34,8.34,0,0,1-1.11.82,2.21,2.21,0,0,1-1.17.35,1.49,1.49,0,0,1-1.21-.44,1.88,1.88,0,0,1-.36-1.21c0-.15,0-.3,0-.43a2.48,2.48,0,0,1,.09-.48l.84-4.22h1.05l-.83,4.08c0,.18-.06.33-.08.44a1.87,1.87,0,0,0,0,.34,1.13,1.13,0,0,0,.23.76,1,1,0,0,0,.75.26,1.75,1.75,0,0,0,.87-.29,5.6,5.6,0,0,0,1.09-.91l.94-4.68Z" transform="translate(0.06 -6.62)" fill="#322f5b"/><path d="M139.08,408.31l1.31-6.61h.86L141.1,403h.05a3.94,3.94,0,0,1,.92-1,1.78,1.78,0,0,1,1.14-.41,1.59,1.59,0,0,1,.62.12l-.37.93a1.16,1.16,0,0,0-.57-.11,1.6,1.6,0,0,0-1,.42,3.7,3.7,0,0,0-.94,1.24l-.83,4.17Z" transform="translate(0.06 -6.62)" fill="#322f5b"/><path d="M143.66,405.71a4.45,4.45,0,0,1,1.12-3,3.54,3.54,0,0,1,1.13-.85,3,3,0,0,1,1.28-.3,2.27,2.27,0,0,1,.95.18,1.65,1.65,0,0,1,.63.5,2.11,2.11,0,0,1,.36.77,4,4,0,0,1,.1.94,3,3,0,0,1-.08.75,3.68,3.68,0,0,1-.15.55h-4.3a2.8,2.8,0,0,0,0,1.09,1.79,1.79,0,0,0,.36.76,1.42,1.42,0,0,0,.62.43,2.28,2.28,0,0,0,.8.14,2,2,0,0,0,.78-.17,4.27,4.27,0,0,0,.7-.4l.41.69a4.16,4.16,0,0,1-.94.5,3.29,3.29,0,0,1-1.2.21,2.54,2.54,0,0,1-1.89-.72A2.79,2.79,0,0,1,143.66,405.71Zm1.15-1.19h3.47c0-.11,0-.22.05-.33s0-.23,0-.35a2,2,0,0,0-.07-.55,1.2,1.2,0,0,0-.22-.47,1,1,0,0,0-.39-.33,1.34,1.34,0,0,0-.6-.12,1.78,1.78,0,0,0-.71.15,2.23,2.23,0,0,0-.65.43,3.37,3.37,0,0,0-.54.68A3.2,3.2,0,0,0,144.81,404.52Z" transform="translate(0.06 -6.62)" fill="#322f5b"/><line y1="372.9" x2="35.33" y2="372.9" fill="none" stroke="#fff" stroke-miterlimit="10" stroke-width="0.97"/><line y1="335.72" x2="35.33" y2="335.72" fill="none" stroke="#fff" stroke-miterlimit="10" stroke-width="0.97"/></svg>