<svg id="train" xmlns="http://www.w3.org/2000/svg" viewBox="0 0 170.6 103.53"><title>train</title><circle cx="139.57" cy="95.84" r="6.22" fill="#fc6d26"/><circle cx="48.95" cy="95.84" r="6.22" fill="#fc6d26"/><circle cx="29.36" cy="96.41" r="6.22" fill="#fc6d26"/><circle cx="75.25" cy="95.84" r="6.22" fill="#fc6d26"/><circle cx="93.91" cy="95.84" r="6.22" fill="#fc6d26"/><circle cx="120.91" cy="95.84" r="6.22" fill="#fc6d26"/><path d="M119.14,94.88h22.19a0,0,0,0,1,0,0v0a3.06,3.06,0,0,1-3.06,3.06H122.2a3.06,3.06,0,0,1-3.06-3.06v0a0,0,0,0,1,0,0Z" fill="#6e49cb"/><path d="M73.95,94.88H96.14a0,0,0,0,1,0,0v0a3.06,3.06,0,0,1-3.06,3.06H77a3.06,3.06,0,0,1-3.06-3.06v0A0,0,0,0,1,73.95,94.88Z" fill="#6e49cb"/><path d="M28,94.88H50.17a0,0,0,0,1,0,0v0a3.06,3.06,0,0,1-3.06,3.06H31A3.06,3.06,0,0,1,28,94.88v0a0,0,0,0,1,0,0Z" fill="#6e49cb"/><rect x="14.74" y="36.75" width="140.61" height="58.13" rx="6.84" fill="#c4b6ff"/><path d="M160.08,101.64H19.47l-.25-1.58a6.84,6.84,0,0,0,6.84,6.84H153a6.84,6.84,0,0,0,6.84-6.84Z" transform="translate(-4.48 -12.02)" fill="#6e49cb"/><path d="M136.26,15,125,23.3V16.48a4,4,0,0,0-4-4H98a4,4,0,0,0-4,4v23a4,4,0,0,0,4,4h2.35l0,11.49,9.76-11.49h10.89a4,4,0,0,0,4-4V32.41l11.25,7.88Z" transform="translate(-4.48 -12.02)" fill="#fc6d26"/><circle cx="105.05" cy="15.95" r="9.03" fill="#fa9f21"/><rect x="24.06" y="49.43" width="38.48" height="21.53" rx="4.13" fill="#fff"/><path d="M123.41,47.7H141.9A4.13,4.13,0,0,1,146,51.82V94.88a0,0,0,0,1,0,0H119.29a0,0,0,0,1,0,0V51.82A4.13,4.13,0,0,1,123.41,47.7Z" fill="#6e49cb"/><rect x="71.67" y="49.43" width="38.48" height="21.53" rx="4.13" fill="#fff"/><rect x="124.57" y="52.98" width="16.17" height="18.84" rx="1.39" fill="#fff"/><path d="M106.45,49.1H153a6.84,6.84,0,0,1,6.84,6.84v44.45a6.84,6.84,0,0,1-6.84,6.84H26.06a6.84,6.84,0,0,1-6.84-6.84V55.94a6.84,6.84,0,0,1,6.84-6.84h74" transform="translate(-4.48 -12.02)" fill="none" stroke="#32195b" stroke-linecap="round" stroke-linejoin="round" stroke-width="1.66"/><line x1="24.06" y1="76.92" x2="110.15" y2="76.92" fill="none" stroke="#32195b" stroke-linecap="round" stroke-linejoin="round" stroke-width="1.66"/><line x1="15.4" y1="89.95" x2="119.14" y2="89.95" fill="none" stroke="#32195b" stroke-linecap="round" stroke-linejoin="round" stroke-width="1.66"/><line x1="146.02" y1="89.95" x2="154.68" y2="89.95" fill="none" stroke="#32195b" stroke-linecap="round" stroke-linejoin="round" stroke-width="1.66"/><line x1="149.28" y1="76.92" x2="152.31" y2="76.92" fill="none" stroke="#32195b" stroke-linecap="round" stroke-linejoin="round" stroke-width="1.66"/><rect x="24.06" y="49.77" width="38.48" height="21.53" rx="4.13" stroke-width="1.66" stroke="#32195b" stroke-linecap="round" stroke-linejoin="round" fill="none"/><path d="M123.41,48H141.9A4.13,4.13,0,0,1,146,52.16V95.21a0,0,0,0,1,0,0H119.29a0,0,0,0,1,0,0V52.16A4.13,4.13,0,0,1,123.41,48Z" fill="none" stroke="#32195b" stroke-linecap="round" stroke-linejoin="round" stroke-width="1.66"/><rect x="71.67" y="49.77" width="38.48" height="21.53" rx="4.13" stroke-width="1.66" stroke="#32195b" stroke-linecap="round" stroke-linejoin="round" fill="none"/><rect x="124.57" y="53.32" width="16.17" height="18.84" rx="1.39" stroke-width="1.66" stroke="#32195b" stroke-linecap="round" stroke-linejoin="round" fill="none"/><path d="M40.16,110.46a6.57,6.57,0,0,1-6.06,4c-3.64,0-6.58-3.61-6.58-7.25" transform="translate(-4.48 -12.02)" fill="none" stroke="#32195b" stroke-linecap="round" stroke-linejoin="round" stroke-width="1.66"/><path d="M59.34,107.23c0,3.64-3,7.25-6.58,7.25a6.59,6.59,0,0,1-6.07-4" transform="translate(-4.48 -12.02)" fill="none" stroke="#32195b" stroke-linecap="round" stroke-linejoin="round" stroke-width="1.66"/><path d="M28,95.21H50.17a0,0,0,0,1,0,0v0a3.06,3.06,0,0,1-3.06,3.06H31A3.06,3.06,0,0,1,28,95.21v0a0,0,0,0,1,0,0Z" fill="none" stroke="#32195b" stroke-linecap="round" stroke-linejoin="round" stroke-width="1.66"/><path d="M85.75,110.46a6.59,6.59,0,0,1-6.07,4c-3.63,0-6.58-3.61-6.58-7.25" transform="translate(-4.48 -12.02)" fill="none" stroke="#32195b" stroke-linecap="round" stroke-linejoin="round" stroke-width="1.66"/><path d="M104.92,107.23c0,3.64-3,7.25-6.58,7.25a6.59,6.59,0,0,1-6.07-4" transform="translate(-4.48 -12.02)" fill="none" stroke="#32195b" stroke-linecap="round" stroke-linejoin="round" stroke-width="1.66"/><path d="M73.56,95.21H95.75a0,0,0,0,1,0,0v0a3.06,3.06,0,0,1-3.06,3.06H76.62a3.06,3.06,0,0,1-3.06-3.06v0A0,0,0,0,1,73.56,95.21Z" fill="none" stroke="#32195b" stroke-linecap="round" stroke-linejoin="round" stroke-width="1.66"/><path d="M131.33,110.46a6.59,6.59,0,0,1-6.07,4c-3.63,0-6.58-3.61-6.58-7.25" transform="translate(-4.48 -12.02)" fill="none" stroke="#32195b" stroke-linecap="round" stroke-linejoin="round" stroke-width="1.66"/><path d="M150.51,107.23c0,3.64-2.95,7.25-6.59,7.25a6.57,6.57,0,0,1-6.06-4" transform="translate(-4.48 -12.02)" fill="none" stroke="#32195b" stroke-linecap="round" stroke-linejoin="round" stroke-width="1.66"/><path d="M119.14,95.21h22.19a0,0,0,0,1,0,0v0a3.06,3.06,0,0,1-3.06,3.06H122.2a3.06,3.06,0,0,1-3.06-3.06v0A0,0,0,0,1,119.14,95.21Z" fill="none" stroke="#32195b" stroke-linecap="round" stroke-linejoin="round" stroke-width="1.66"/><path d="M136.26,15.31,125,23.63V16.81a4,4,0,0,0-4-4H98a4,4,0,0,0-4,4v23a4,4,0,0,0,4,4h2.35l0,11.5,9.76-11.5h10.89a4,4,0,0,0,4-4V32.75l11.25,7.87Z" transform="translate(-4.48 -12.02)" fill="none" stroke="#32195b" stroke-linecap="round" stroke-linejoin="round" stroke-width="1.66"/><circle cx="105.05" cy="16.29" r="9.03" fill="none" stroke="#32195b" stroke-linecap="round" stroke-linejoin="round" stroke-width="1.66"/><line x1="169.77" y1="102.7" x2="0.83" y2="102.7" fill="none" stroke="#c4b6ff" stroke-linecap="round" stroke-linejoin="round" stroke-width="1.66"/></svg>