<svg id="uk" xmlns="http://www.w3.org/2000/svg" xmlns:xlink="http://www.w3.org/1999/xlink" viewBox="0 0 109.25 130.45"><defs><clipPath id="clip-path" transform="translate(-3.12 -3.65)"><rect x="4.34" y="21.76" width="18.48" height="28.12" fill="none"/></clipPath><clipPath id="clip-path-2" transform="translate(-3.12 -3.65)"><rect x="4.37" y="21.78" width="18.42" height="28.08" transform="translate(-0.08 0.03) rotate(-0.12)" fill="none"/></clipPath></defs><title>uk</title><path d="M30.35,4.49h1.5V7.06h2.3V4.48h1.51v6.69h-1.5V8.39H31.86v2.79h-1.5Z" transform="translate(-3.12 -3.65)" fill="#e24329"/><path d="M36.81,8.63a2.47,2.47,0,1,1,4.92,0,2.47,2.47,0,1,1-4.92,0Zm3.39,0c0-.88-.32-1.45-.93-1.45s-.93.57-.92,1.45.3,1.45.93,1.45S40.2,9.5,40.2,8.62Z" transform="translate(-3.12 -3.65)" fill="#e24329"/><path d="M42.71,9.23V6.07h1.5V9c0,.73.2,1,.64,1s.6-.16.89-.56V6.06h1.49v5.09H46l-.11-.71h0a2,2,0,0,1-1.59.84C43.18,11.28,42.71,10.5,42.71,9.23Z" transform="translate(-3.12 -3.65)" fill="#e24329"/><path d="M48.1,10.56l.67-.94a2.21,2.21,0,0,0,1.3.53c.45,0,.64-.17.64-.44s-.51-.49-1-.69-1.33-.66-1.34-1.5.77-1.59,1.94-1.59a2.83,2.83,0,0,1,1.78.64l-.67.9a1.82,1.82,0,0,0-1.07-.42c-.39,0-.57.14-.57.4s.47.45,1,.64,1.37.6,1.37,1.53-.72,1.64-2.08,1.65A3.24,3.24,0,0,1,48.1,10.56Z" transform="translate(-3.12 -3.65)" fill="#e24329"/><path d="M52.76,8.59a2.48,2.48,0,0,1,2.38-2.67c1.43,0,2.15,1,2.15,2.43a3.4,3.4,0,0,1-.06.67h-3a1.21,1.21,0,0,0,1.31,1.07,2,2,0,0,0,1.09-.34l.5.92a3.25,3.25,0,0,1-1.79.57A2.46,2.46,0,0,1,52.76,8.59ZM56,8c0-.57-.25-1-.85-1a1,1,0,0,0-1,1Z" transform="translate(-3.12 -3.65)" fill="#e24329"/><path d="M58.32,3.93h1.5V5.69l-.07.91a2.32,2.32,0,0,1,1.56-.7c1.1,0,1.57.78,1.57,2.05v3.17h-1.5v-3c0-.74-.2-1-.63-1a1.25,1.25,0,0,0-.93.49v3.44h-1.5Z" transform="translate(-3.12 -3.65)" fill="#e24329"/><path d="M63.85,8.57a2.47,2.47,0,1,1,4.92,0,2.47,2.47,0,1,1-4.92,0Zm3.39,0c0-.88-.31-1.45-.93-1.45s-.92.57-.92,1.45S65.7,10,66.32,10,67.25,9.44,67.24,8.56Z" transform="translate(-3.12 -3.65)" fill="#e24329"/><path d="M69.77,9.52V3.9h1.5V9.58c0,.32.14.42.26.42a.65.65,0,0,0,.19,0l.18,1.12a1.94,1.94,0,0,1-.75.12C70.12,11.22,69.77,10.55,69.77,9.52Z" transform="translate(-3.12 -3.65)" fill="#e24329"/><path d="M72.41,8.55c0-1.67,1-2.67,2.09-2.68a1.66,1.66,0,0,1,1.24.53l-.06-.78V3.89h1.5v7.19H76l-.1-.51h0a2,2,0,0,1-1.35.63C73.23,11.22,72.41,10.21,72.41,8.55Zm3.28,1V7.43a1.25,1.25,0,0,0-.84-.33c-.48,0-.91.46-.9,1.42s.33,1.46.92,1.46A.94.94,0,0,0,75.69,9.52Z" transform="translate(-3.12 -3.65)" fill="#e24329"/><path d="M80.41,4.44a.87.87,0,1,1,.87.79A.8.8,0,0,1,80.41,4.44ZM80.54,6H82v5.09h-1.5Z" transform="translate(-3.12 -3.65)" fill="#e24329"/><path d="M83.32,6h1.22l.11.65h0a2.3,2.3,0,0,1,1.62-.77c1.1,0,1.57.77,1.57,2.05v3.16h-1.5v-3c0-.74-.19-1-.62-1a1.29,1.29,0,0,0-.94.5v3.44h-1.5Z" transform="translate(-3.12 -3.65)" fill="#e24329"/><path d="M88.86,8.51a2.54,2.54,0,0,1,2.62-2.67A2.18,2.18,0,0,1,93,6.38l-.7,1a1.06,1.06,0,0,0-.69-.29c-.72,0-1.18.57-1.17,1.45S90.88,10,91.53,10a1.52,1.52,0,0,0,.91-.37l.59,1a2.52,2.52,0,0,1-1.67.61A2.44,2.44,0,0,1,88.86,8.51Z" transform="translate(-3.12 -3.65)" fill="#e24329"/><path d="M93.46,8.5a2.47,2.47,0,1,1,4.92,0,2.47,2.47,0,1,1-4.92,0Zm3.39,0c0-.88-.31-1.44-.93-1.44S95,7.62,95,8.5s.31,1.45.93,1.44S96.86,9.38,96.85,8.49Z" transform="translate(-3.12 -3.65)" fill="#e24329"/><path d="M99.39,5.94h1.23l.1.66h0a2.08,2.08,0,0,1,1.53-.79,1.41,1.41,0,0,1,1.4.85,2.18,2.18,0,0,1,1.58-.85c1.09,0,1.59.77,1.59,2.05V11h-1.5v-3c0-.74-.19-1-.62-1a1.35,1.35,0,0,0-.87.5V11h-1.5v-3c0-.74-.19-1-.62-1a1.29,1.29,0,0,0-.85.49V11H99.4Z" transform="translate(-3.12 -3.65)" fill="#e24329"/><path d="M107.83,8.47a2.49,2.49,0,0,1,2.38-2.67c1.44,0,2.15,1,2.16,2.44a3.37,3.37,0,0,1-.06.66h-3A1.22,1.22,0,0,0,110.6,10a2,2,0,0,0,1.09-.34l.5.92a3.27,3.27,0,0,1-1.79.57A2.48,2.48,0,0,1,107.83,8.47Zm3.26-.56c0-.57-.24-1-.84-1a1,1,0,0,0-1,1Z" transform="translate(-3.12 -3.65)" fill="#e24329"/><path d="M30,37.56c1.65-1.58,2.81-2.7,2.81-3.62a.88.88,0,0,0-.92-1,1.63,1.63,0,0,0-1.15.67l-.82-.81a2.72,2.72,0,0,1,2.17-1,2,2,0,0,1,2.15,2.07c0,1.1-1,2.27-2.07,3.38a10.38,10.38,0,0,1,1.08-.08h1.31v1.27H30Z" transform="translate(-3.12 -3.65)" fill="#322f5b"/><path d="M35.36,37.62l.67-1a2,2,0,0,0,1.4.64,1,1,0,0,0,1.09-1,.94.94,0,0,0-1-1,1.51,1.51,0,0,0-1,.33l-.67-.43L36,31.89h3.67v1.27H37.34l-.11,1.22a1.52,1.52,0,0,1,.72-.16,1.91,1.91,0,0,1,2.07,2,2.25,2.25,0,0,1-2.37,2.29A3.09,3.09,0,0,1,35.36,37.62Z" transform="translate(-3.12 -3.65)" fill="#322f5b"/><path d="M40.68,33.69c0-1.33.69-2.11,1.65-2.12S44,32.35,44,33.69s-.7,2.13-1.65,2.14S40.68,35,40.68,33.69Zm2.26,0c0-1-.27-1.27-.61-1.27s-.61.32-.61,1.27S42,35,42.33,35,43,34.64,42.94,33.69Zm3.2-2.12H47l-3.58,7h-.86Zm-.55,4.8c0-1.33.69-2.11,1.65-2.12s1.66.78,1.66,2.12-.7,2.13-1.66,2.13S45.59,37.72,45.59,36.37Zm2.26,0c0-1-.28-1.27-.61-1.27s-.61.32-.61,1.27.28,1.29.61,1.29S47.85,37.32,47.85,36.37Z" transform="translate(-3.12 -3.65)" fill="#322f5b"/><path d="M52.09,35.41l.75-3.78h.79l-.75,3.85a4.34,4.34,0,0,0-.09.81,1.68,1.68,0,0,0,.33,1.12,1.26,1.26,0,0,0,1,.39,1.41,1.41,0,0,0,.54-.11,1.59,1.59,0,0,0,.48-.36,2.32,2.32,0,0,0,.39-.64,3.89,3.89,0,0,0,.28-.94l.82-4.13h.77l-.82,4.16A5.79,5.79,0,0,1,56.23,37a3,3,0,0,1-.57.84,2,2,0,0,1-.71.47,2.36,2.36,0,0,1-.84.15A2.19,2.19,0,0,1,52.54,38,2.16,2.16,0,0,1,52,36.37a3.67,3.67,0,0,1,0-.46A4.61,4.61,0,0,1,52.09,35.41Z" transform="translate(-3.12 -3.65)" fill="#322f5b"/><path d="M57.66,38.36l1-5h.64l-.07.75h0a6.92,6.92,0,0,1,.84-.62,1.7,1.7,0,0,1,.89-.26,1.1,1.1,0,0,1,.9.33,1.4,1.4,0,0,1,.27.92c0,.11,0,.22,0,.32a1.75,1.75,0,0,1-.07.36l-.62,3.19h-.77l.6-3.08q0-.21.06-.33a2.11,2.11,0,0,0,0-.26.86.86,0,0,0-.17-.57.73.73,0,0,0-.56-.2,1.35,1.35,0,0,0-.66.22,4.48,4.48,0,0,0-.83.69l-.69,3.54Z" transform="translate(-3.12 -3.65)" fill="#322f5b"/><path d="M66.89,34l.16-1L67.43,31h.79l-1.45,7.32h-.64l.08-.74h0a2.86,2.86,0,0,1-.8.63,1.91,1.91,0,0,1-.92.24,1.29,1.29,0,0,1-1-.46A2.11,2.11,0,0,1,63,36.66a3.66,3.66,0,0,1,.22-1.34,3.51,3.51,0,0,1,.59-1.1,3.28,3.28,0,0,1,.86-.73,2,2,0,0,1,1-.27,1.24,1.24,0,0,1,.69.2,1.53,1.53,0,0,1,.48.53Zm-2.16,3.86a1.56,1.56,0,0,0,.78-.23,2.91,2.91,0,0,0,.78-.73l.44-2.23a1.63,1.63,0,0,0-.47-.57,1,1,0,0,0-.54-.17,1.34,1.34,0,0,0-.71.22,2,2,0,0,0-.61.6,2.88,2.88,0,0,0-.42.84,3,3,0,0,0-.16,1,1.51,1.51,0,0,0,.25,1A.78.78,0,0,0,64.73,37.81Z" transform="translate(-3.12 -3.65)" fill="#322f5b"/><path d="M68.36,36.37a3.36,3.36,0,0,1,.84-2.29,2.72,2.72,0,0,1,.84-.64,2.25,2.25,0,0,1,1-.23,1.66,1.66,0,0,1,.71.14,1.29,1.29,0,0,1,.48.38,1.49,1.49,0,0,1,.26.57,2.78,2.78,0,0,1,.09.72,2.47,2.47,0,0,1-.06.56,2.36,2.36,0,0,1-.12.41H69.15a2.08,2.08,0,0,0,0,.83,1.26,1.26,0,0,0,.27.57,1.09,1.09,0,0,0,.46.33,2,2,0,0,0,.6.1,1.53,1.53,0,0,0,.59-.13,2.65,2.65,0,0,0,.52-.31l.31.53a3.08,3.08,0,0,1-.7.37,2.57,2.57,0,0,1-.9.17,1.88,1.88,0,0,1-1.41-.54A2.1,2.1,0,0,1,68.36,36.37Zm.87-.9h2.59a1.87,1.87,0,0,0,0-.25,2.17,2.17,0,0,0,0-.26,1.42,1.42,0,0,0-.05-.42,1,1,0,0,0-.16-.35.81.81,0,0,0-.3-.25,1,1,0,0,0-.45-.09,1.4,1.4,0,0,0-.53.11,1.71,1.71,0,0,0-.48.33,2.33,2.33,0,0,0-.67,1.19Z" transform="translate(-3.12 -3.65)" fill="#322f5b"/><path d="M73.16,38.33l1-5h.64l-.11,1h0a3.22,3.22,0,0,1,.69-.77,1.31,1.31,0,0,1,.85-.31,1.23,1.23,0,0,1,.47.09l-.28.7a1,1,0,0,0-.42-.08,1.22,1.22,0,0,0-.76.32,3,3,0,0,0-.7.94l-.61,3.15Z" transform="translate(-3.12 -3.65)" fill="#322f5b"/><path d="M78.32,38.31l.09-.47a2.53,2.53,0,0,0,1.1-1,2.7,2.7,0,0,0,.36-1.37V35.4h-1l.11-.55.83-.05c0-.17,0-.33,0-.49a3.54,3.54,0,0,1,0-.45,2.54,2.54,0,0,1,.15-.94,2.11,2.11,0,0,1,.43-.71,1.8,1.8,0,0,1,.66-.45,2,2,0,0,1,.83-.16,1.41,1.41,0,0,1,.86.25,1.92,1.92,0,0,1,.57.6l-.53.42a1.49,1.49,0,0,0-.41-.45.83.83,0,0,0-.53-.18,1.14,1.14,0,0,0-.93.45,1.82,1.82,0,0,0-.37,1.22c0,.14,0,.28,0,.43s0,.3,0,.45h1.58L82,35.4H80.59a3.29,3.29,0,0,1-.22,1.23,2.66,2.66,0,0,1-.67,1v0h2.64l-.12.68Z" transform="translate(-3.12 -3.65)" fill="#322f5b"/><path d="M85.08,38.42a2.12,2.12,0,0,1-1.18-.33,3,3,0,0,1-.82-.79l.52-.42a2.39,2.39,0,0,0,.61.62,1.46,1.46,0,0,0,.88.27,2.2,2.2,0,0,0,.64-.11,1.62,1.62,0,0,0,.5-.28,1.51,1.51,0,0,0,.32-.43,1.22,1.22,0,0,0,.12-.54,1.06,1.06,0,0,0-.11-.48.91.91,0,0,0-.32-.39,1.72,1.72,0,0,0-.58-.25,3.72,3.72,0,0,0-.88-.08l.12-.6a3.63,3.63,0,0,0,1-.12,2.07,2.07,0,0,0,.65-.32,1.16,1.16,0,0,0,.47-.92,1,1,0,0,0-.26-.71,1,1,0,0,0-.77-.27,1.58,1.58,0,0,0-.64.14,2.77,2.77,0,0,0-.64.38l-.4-.52a2.93,2.93,0,0,1,1.8-.65,1.74,1.74,0,0,1,1.26.41,1.41,1.41,0,0,1,.44,1.08,1.7,1.7,0,0,1-.37,1.1,2.17,2.17,0,0,1-1.14.7v0a1.66,1.66,0,0,1,.84.54,1.36,1.36,0,0,1,.3.88,1.93,1.93,0,0,1-.18.85,1.72,1.72,0,0,1-.49.64,2.28,2.28,0,0,1-.75.42A3.21,3.21,0,0,1,85.08,38.42Z" transform="translate(-3.12 -3.65)" fill="#322f5b"/><path d="M90.15,38.41a1.3,1.3,0,0,1-.68-.17,1.49,1.49,0,0,1-.51-.46,2.42,2.42,0,0,1-.31-.71,3.48,3.48,0,0,1-.11-.88,6.66,6.66,0,0,1,.22-1.75A5.7,5.7,0,0,1,89.34,33a3.38,3.38,0,0,1,.85-1,1.67,1.67,0,0,1,1-.37,1.3,1.3,0,0,1,.68.17,1.5,1.5,0,0,1,.5.47,2.72,2.72,0,0,1,.31.71,3.68,3.68,0,0,1,.1.89,6.61,6.61,0,0,1-.21,1.75A5.77,5.77,0,0,1,92,37.05a3.35,3.35,0,0,1-.85,1A1.65,1.65,0,0,1,90.15,38.41Zm0-.62a1.07,1.07,0,0,0,.75-.36,3.25,3.25,0,0,0,.6-.93A6.31,6.31,0,0,0,92,35.23a7.49,7.49,0,0,0,.14-1.41,2.52,2.52,0,0,0-.23-1.13.73.73,0,0,0-.69-.45,1,1,0,0,0-.74.37,3.49,3.49,0,0,0-.61.93,6.21,6.21,0,0,0-.4,1.28,6.71,6.71,0,0,0-.15,1.39,3.06,3.06,0,0,0,.06.63,2.09,2.09,0,0,0,.17.5.94.94,0,0,0,.29.33A.68.68,0,0,0,90.19,37.79Z" transform="translate(-3.12 -3.65)" fill="#322f5b"/><path d="M92.8,40l-.12-.47a2,2,0,0,0,.78-.5,1.39,1.39,0,0,0,.35-.68h0a.53.53,0,0,1-.38-.13.43.43,0,0,1-.15-.36.69.69,0,0,1,.18-.46.6.6,0,0,1,.47-.2.5.5,0,0,1,.41.18.85.85,0,0,1,.14.5A2.1,2.1,0,0,1,94,39.18,2.4,2.4,0,0,1,92.8,40Z" transform="translate(-3.12 -3.65)" fill="#322f5b"/><path d="M98.56,38.27h-.74l.37-1.81H95.42l.09-.54L99,31.71h.86L99,35.82h.86l-.13.64h-.85Zm-2.19-2.44h1.94l.37-1.94q.06-.3.15-.63c0-.22.11-.45.16-.67h0l-.4.56-.38.51Z" transform="translate(-3.12 -3.65)" fill="#322f5b"/><path d="M99.94,38.27l.08-.48,1.7-1.46q.72-.63,1.2-1.14a5.19,5.19,0,0,0,.72-1,1.83,1.83,0,0,0,.23-.93,1.08,1.08,0,0,0-.26-.76,1,1,0,0,0-.8-.31,1.47,1.47,0,0,0-.65.17,3.11,3.11,0,0,0-.68.49l-.4-.49a4.16,4.16,0,0,1,.89-.61,2.18,2.18,0,0,1,.93-.21,2.09,2.09,0,0,1,.74.12,1.58,1.58,0,0,1,.55.33,1.32,1.32,0,0,1,.33.51,1.75,1.75,0,0,1,.12.65,2.52,2.52,0,0,1-.21,1,5.08,5.08,0,0,1-.63,1,11.5,11.5,0,0,1-1,1.07l-1.47,1.32h2.81l-.12.68Z" transform="translate(-3.12 -3.65)" fill="#322f5b"/><path d="M106.88,38.38a1.41,1.41,0,0,1-.69-.17,1.5,1.5,0,0,1-.5-.47,2.37,2.37,0,0,1-.32-.7,3.57,3.57,0,0,1-.1-.89,6.71,6.71,0,0,1,.21-1.75,6.26,6.26,0,0,1,.58-1.46,3.41,3.41,0,0,1,.86-1,1.63,1.63,0,0,1,1-.37,1.36,1.36,0,0,1,.67.17,1.6,1.6,0,0,1,.5.47,2.15,2.15,0,0,1,.31.72,3.62,3.62,0,0,1,.11.89,7,7,0,0,1-.21,1.74,5.29,5.29,0,0,1-.58,1.45,3.38,3.38,0,0,1-.85,1A1.68,1.68,0,0,1,106.88,38.38Zm0-.63a1,1,0,0,0,.74-.36,3.27,3.27,0,0,0,.61-.92,6.41,6.41,0,0,0,.4-1.28,6.74,6.74,0,0,0,.15-1.4,2.68,2.68,0,0,0-.23-1.14.72.72,0,0,0-.69-.44,1,1,0,0,0-.75.36,3.25,3.25,0,0,0-.6.93,6.41,6.41,0,0,0-.41,1.28,7.47,7.47,0,0,0-.14,1.4,3.21,3.21,0,0,0,.06.63,1.42,1.42,0,0,0,.17.49.91.91,0,0,0,.28.33A.71.71,0,0,0,106.92,37.75Z" transform="translate(-3.12 -3.65)" fill="#322f5b"/><path d="M33.1,89.32H30.2V88.05h4.5V89c-1.49,1.83-1.7,3.06-1.81,5.6H31.38A8.76,8.76,0,0,1,33.1,89.32Z" transform="translate(-3.12 -3.65)" fill="#322f5b"/><path d="M35.39,93.76l.69-1a2,2,0,0,0,1.42.65c.63,0,1-.28,1-.77s-.34-.93-1.75-.93V90.68c1.16,0,1.53-.35,1.53-.87s-.29-.72-.8-.72a1.79,1.79,0,0,0-1.21.58l-.76-.93a3.05,3.05,0,0,1,2-.83c1.34,0,2.24.64,2.24,1.78a1.54,1.54,0,0,1-1.08,1.45v0a1.62,1.62,0,0,1,1.29,1.59c0,1.21-1.1,1.9-2.4,1.91A2.84,2.84,0,0,1,35.39,93.76Z" transform="translate(-3.12 -3.65)" fill="#322f5b"/><path d="M40.78,89.84c0-1.33.69-2.11,1.65-2.12s1.66.78,1.67,2.12S43.4,92,42.44,92,40.79,91.19,40.78,89.84Zm2.27,0c0-1-.28-1.28-.62-1.27s-.61.32-.61,1.27.28,1.29.62,1.29S43.05,90.79,43.05,89.84Zm3.19-2.12h.87l-3.58,7h-.86Zm-.55,4.8c0-1.33.69-2.11,1.65-2.12S49,91.18,49,92.52s-.69,2.13-1.65,2.13S45.69,93.87,45.69,92.52Zm2.26,0c0-1-.27-1.28-.61-1.27s-.61.32-.61,1.27.28,1.29.61,1.29S48,93.47,48,92.52Z" transform="translate(-3.12 -3.65)" fill="#322f5b"/><path d="M54.22,94.64a2.41,2.41,0,0,1-1-.2,1.9,1.9,0,0,1-.72-.57,2.56,2.56,0,0,1-.44-.89,3.87,3.87,0,0,1-.16-1.16,5,5,0,0,1,.24-1.52A4.78,4.78,0,0,1,52.8,89a3.42,3.42,0,0,1,1-.95,2.52,2.52,0,0,1,1.32-.36,2.4,2.4,0,0,1,1,.2,1.93,1.93,0,0,1,.73.57,2.6,2.6,0,0,1,.44.88,3.87,3.87,0,0,1,.16,1.16,5.12,5.12,0,0,1-.9,2.87,3.57,3.57,0,0,1-1,1A2.51,2.51,0,0,1,54.22,94.64Zm0-.69a1.65,1.65,0,0,0,1-.31,2.81,2.81,0,0,0,.76-.81,4,4,0,0,0,.48-1.1,4.24,4.24,0,0,0,.17-1.2,2.88,2.88,0,0,0-.38-1.59,1.28,1.28,0,0,0-1.17-.6,1.63,1.63,0,0,0-1,.31,2.77,2.77,0,0,0-.76.8,4,4,0,0,0-.48,1.1,4.28,4.28,0,0,0-.18,1.21,4.84,4.84,0,0,0,.1.89,2,2,0,0,0,.28.7,1.34,1.34,0,0,0,.48.44A1.42,1.42,0,0,0,54.26,94Z" transform="translate(-3.12 -3.65)" fill="#322f5b"/><path d="M59.06,94.51l-.74-5h.78l.37,2.89c0,.24.05.49.07.74s.05.51.08.75h0c.11-.25.23-.5.35-.75s.25-.5.38-.74l1.45-2.89h.78L60,94.5Z" transform="translate(-3.12 -3.65)" fill="#322f5b"/><path d="M62.55,92.54a3.3,3.3,0,0,1,.23-1.29,3.21,3.21,0,0,1,.6-1,2.64,2.64,0,0,1,.85-.65,2.17,2.17,0,0,1,1-.22,1.7,1.7,0,0,1,.71.13,1.26,1.26,0,0,1,.47.38,1.64,1.64,0,0,1,.27.58,3.22,3.22,0,0,1,.08.71,2.62,2.62,0,0,1-.06.57c0,.17-.08.31-.11.41H63.33a2.27,2.27,0,0,0,0,.83,1.51,1.51,0,0,0,.27.57,1.12,1.12,0,0,0,.47.33,1.64,1.64,0,0,0,.6.1,1.33,1.33,0,0,0,.58-.13,3.34,3.34,0,0,0,.53-.3l.3.52a3.28,3.28,0,0,1-.7.38,2.56,2.56,0,0,1-.89.16,1.9,1.9,0,0,1-1.42-.54A2.12,2.12,0,0,1,62.55,92.54Zm.86-.91H66l0-.24a2.28,2.28,0,0,0,0-.27,2,2,0,0,0,0-.42,1,1,0,0,0-.17-.35.79.79,0,0,0-.29-.25A1.06,1.06,0,0,0,65.1,90a1.29,1.29,0,0,0-.54.12,1.48,1.48,0,0,0-.48.33,2.32,2.32,0,0,0-.4.51A2.35,2.35,0,0,0,63.41,91.63Z" transform="translate(-3.12 -3.65)" fill="#322f5b"/><path d="M67.35,94.49l1-5H69l-.11,1h0a3,3,0,0,1,.68-.78,1.39,1.39,0,0,1,.85-.31,1,1,0,0,1,.47.1l-.27.69a1,1,0,0,0-.43-.08,1.2,1.2,0,0,0-.75.32,3,3,0,0,0-.7.94l-.62,3.16Z" transform="translate(-3.12 -3.65)" fill="#322f5b"/><path d="M72.5,94.48l.09-.48a2.58,2.58,0,0,0,1.1-1,2.72,2.72,0,0,0,.36-1.37v-.08h-1l.11-.56L74,91c0-.16,0-.33,0-.49s0-.31,0-.45a2.81,2.81,0,0,1,.16-.94,2.41,2.41,0,0,1,.43-.71,1.93,1.93,0,0,1,.66-.45,2,2,0,0,1,.83-.16,1.41,1.41,0,0,1,.86.25,2.16,2.16,0,0,1,.57.6l-.53.42a1.78,1.78,0,0,0-.41-.45.82.82,0,0,0-.53-.17,1.16,1.16,0,0,0-.93.44,1.83,1.83,0,0,0-.37,1.22c0,.14,0,.28,0,.43s0,.3,0,.46h1.58l-.12.61H74.77a3.22,3.22,0,0,1-.22,1.23,2.66,2.66,0,0,1-.67,1v0h2.64l-.12.68Z" transform="translate(-3.12 -3.65)" fill="#322f5b"/><path d="M79.25,94.58a2,2,0,0,1-1.18-.33,2.82,2.82,0,0,1-.82-.79l.52-.41a2.36,2.36,0,0,0,.61.61,1.46,1.46,0,0,0,.88.27,1.91,1.91,0,0,0,.64-.11,1.44,1.44,0,0,0,.5-.28,1.38,1.38,0,0,0,.32-.43,1.19,1.19,0,0,0,.12-.54,1.13,1.13,0,0,0-.11-.48.89.89,0,0,0-.32-.38,1.54,1.54,0,0,0-.58-.25,3.72,3.72,0,0,0-.88-.09l.12-.6a3.63,3.63,0,0,0,1-.12,1.88,1.88,0,0,0,.65-.32,1.13,1.13,0,0,0,.36-.44,1.2,1.2,0,0,0,.11-.48,1.07,1.07,0,0,0-.26-.71,1,1,0,0,0-.78-.27,1.76,1.76,0,0,0-.63.14,2.81,2.81,0,0,0-.64.39l-.4-.53a2.93,2.93,0,0,1,1.8-.65,1.78,1.78,0,0,1,1.26.41A1.42,1.42,0,0,1,82,89.28a1.74,1.74,0,0,1-.37,1.1,2.31,2.31,0,0,1-1.14.69v0a1.8,1.8,0,0,1,.84.54,1.37,1.37,0,0,1,.3.89,1.92,1.92,0,0,1-.18.84A1.83,1.83,0,0,1,81,94a2.26,2.26,0,0,1-.75.41A2.91,2.91,0,0,1,79.25,94.58Z" transform="translate(-3.12 -3.65)" fill="#322f5b"/><path d="M84.32,94.57a1.29,1.29,0,0,1-.68-.16,1.63,1.63,0,0,1-.51-.47,2.13,2.13,0,0,1-.31-.7,3.56,3.56,0,0,1-.11-.89,6.72,6.72,0,0,1,.22-1.75,5.5,5.5,0,0,1,.58-1.46,3.38,3.38,0,0,1,.85-1,1.67,1.67,0,0,1,1-.37,1.4,1.4,0,0,1,.68.17,1.72,1.72,0,0,1,.5.47,2.36,2.36,0,0,1,.3.72A3.15,3.15,0,0,1,87,90a7,7,0,0,1-.21,1.74,5.77,5.77,0,0,1-.57,1.45,3.54,3.54,0,0,1-.85,1A1.72,1.72,0,0,1,84.32,94.57Zm0-.62a1,1,0,0,0,.75-.36,3.19,3.19,0,0,0,.6-.92,5.82,5.82,0,0,0,.4-1.28,6.74,6.74,0,0,0,.15-1.4A2.54,2.54,0,0,0,86,88.85a.72.72,0,0,0-.69-.44,1,1,0,0,0-.74.36,3.49,3.49,0,0,0-.61.93,6.41,6.41,0,0,0-.4,1.28,6.74,6.74,0,0,0-.15,1.4,3,3,0,0,0,.06.62,1.63,1.63,0,0,0,.17.5.94.94,0,0,0,.29.33A.68.68,0,0,0,84.36,94Z" transform="translate(-3.12 -3.65)" fill="#322f5b"/><path d="M87,96.13l-.12-.47a2,2,0,0,0,.78-.5,1.43,1.43,0,0,0,.35-.68h0a.58.58,0,0,1-.38-.12.47.47,0,0,1-.15-.37.64.64,0,0,1,.18-.45.58.58,0,0,1,.47-.21.48.48,0,0,1,.41.19.81.81,0,0,1,.14.49,2.08,2.08,0,0,1-.45,1.33A2.34,2.34,0,0,1,87,96.13Z" transform="translate(-3.12 -3.65)" fill="#322f5b"/><path d="M92.73,94.43H92l.37-1.81H89.59l.09-.53,3.47-4.22H94L93.2,92h.86l-.13.64h-.85ZM90.54,92h1.94L92.85,90q.06-.29.15-.63c0-.22.11-.44.16-.67h0l-.4.56-.38.51Z" transform="translate(-3.12 -3.65)" fill="#322f5b"/><path d="M94.11,94.43l.08-.47,1.7-1.47a15.29,15.29,0,0,0,1.2-1.14,4.61,4.61,0,0,0,.72-1,1.94,1.94,0,0,0,.23-.93,1.1,1.1,0,0,0-.26-.76,1,1,0,0,0-.8-.31,1.43,1.43,0,0,0-.65.17,3.21,3.21,0,0,0-.68.49l-.4-.49a4.1,4.1,0,0,1,.89-.6,2.19,2.19,0,0,1,.93-.22,2.09,2.09,0,0,1,.74.12,1.68,1.68,0,0,1,.55.33,1.36,1.36,0,0,1,.33.52,1.69,1.69,0,0,1,.12.64,2.53,2.53,0,0,1-.21,1,5,5,0,0,1-.63,1,10.56,10.56,0,0,1-1.06,1.08l-1.46,1.31h2.81l-.12.68Z" transform="translate(-3.12 -3.65)" fill="#322f5b"/><path d="M101.05,94.54a1.38,1.38,0,0,1-1.19-.64,2.26,2.26,0,0,1-.32-.7,3.57,3.57,0,0,1-.1-.89,6.31,6.31,0,0,1,.21-1.75,5.85,5.85,0,0,1,.58-1.46,3.36,3.36,0,0,1,.86-1,1.64,1.64,0,0,1,1-.38,1.28,1.28,0,0,1,.68.18,1.4,1.4,0,0,1,.5.47,2.31,2.31,0,0,1,.31.71,3.68,3.68,0,0,1,.11.89,7.05,7.05,0,0,1-.21,1.75,5.78,5.78,0,0,1-.58,1.45,3.22,3.22,0,0,1-.85,1A1.62,1.62,0,0,1,101.05,94.54Zm0-.63a1,1,0,0,0,.74-.36,3.27,3.27,0,0,0,.61-.92,6.41,6.41,0,0,0,.4-1.28A6,6,0,0,0,103,90a2.47,2.47,0,0,0-.22-1.13.73.73,0,0,0-.7-.45,1,1,0,0,0-.74.36,3.25,3.25,0,0,0-.6.93,6.41,6.41,0,0,0-.41,1.28,7.55,7.55,0,0,0-.14,1.4,3.06,3.06,0,0,0,.06.63,1.47,1.47,0,0,0,.17.5.8.8,0,0,0,.28.32A.71.71,0,0,0,101.09,93.91Z" transform="translate(-3.12 -3.65)" fill="#322f5b"/><path d="M4.42,58.86l0,13.37v9.41l0,19.72V115l0,8.19v4.17l0,6a.73.73,0,0,0,.73.73l17,0a.73.73,0,0,0,.73-.73l0-6v-26L22.89,81.6V72.19l0-13.37,0-9-18.41.05Z" transform="translate(-3.12 -3.65)" fill="#322f5b"/><g opacity="0.8"><g clip-path="url(#clip-path)"><g clip-path="url(#clip-path-2)"><path d="M22.78,27.37V22.49a.74.74,0,0,0-.73-.73l-17,0a.73.73,0,0,0-.72.73v4.88l0,12.36,0,10.11,18.41,0,0-10.11Z" transform="translate(-3.12 -3.65)" fill="#322f5b"/></g></g></g><line y1="46.23" x2="22.93" y2="46.18" fill="none" stroke="#fff" stroke-miterlimit="10" stroke-width="0.73"/><rect x="4.31" y="3.67" width="18.37" height="9.27" transform="translate(-3.14 -3.62) rotate(-0.12)" fill="#fff"/><polygon points="11.91 3.02 11.9 0.02 17.85 0 11.91 3.02" fill="#00008b"/><polygon points="11.91 6.29 11.92 9.29 17.87 9.27 11.91 6.29" fill="#00008b"/><polygon points="8.85 6.29 8.86 9.29 2.91 9.3 8.85 6.29" fill="#00008b"/><polygon points="8.85 3.02 8.84 0.02 2.89 0.04 8.85 3.02" fill="#00008b"/><polygon points="1.19 0.9 1.19 3.13 5.61 3.12 1.19 0.9" fill="#00008b"/><polygon points="19.56 0.86 19.56 3.09 15.15 3.1 19.56 0.86" fill="#00008b"/><polygon points="19.57 8.41 19.57 6.18 15.15 6.19 19.57 8.41" fill="#00008b"/><polygon points="1.21 8.45 1.2 6.22 5.62 6.21 1.21 8.45" fill="#00008b"/><polygon points="9.46 5.58 9.47 9.29 11.31 9.29 11.3 5.58 19.57 5.56 19.56 3.71 11.3 3.72 11.29 0.02 9.45 0.02 9.46 3.73 1.2 3.75 1.2 5.6 9.46 5.58" fill="red"/><polyline points="19.55 0 18.53 0 12.43 3.1 13.45 3.1 19.56 0" fill="red"/><polyline points="8.33 6.2 7.31 6.21 1.21 9.31 2.23 9.31 8.34 6.2" fill="red"/><polygon points="6.29 3.12 7.31 3.12 1.19 0.04 1.19 0.56 6.29 3.12" fill="red"/><polygon points="14.46 6.19 13.44 6.19 19.57 9.27 19.57 8.75 14.46 6.19" fill="red"/></svg>