<svg id="usa" xmlns="http://www.w3.org/2000/svg" xmlns:xlink="http://www.w3.org/1999/xlink" viewBox="0 0 109.27 130.45"><defs><clipPath id="clip-path" transform="translate(-3.11 -3.65)"><rect x="4.47" y="75.52" width="18.49" height="30.51" fill="none"/></clipPath><clipPath id="clip-path-2" transform="translate(-3.11 -3.65)"><rect x="4.44" y="58.82" width="18.46" height="16.74" fill="none"/></clipPath><clipPath id="clip-path-3" transform="translate(-3.11 -3.65)"><rect x="4.35" y="21.76" width="18.46" height="18.01" fill="none"/></clipPath><clipPath id="clip-path-4" transform="translate(-3.11 -3.65)"><rect x="4.37" y="21.78" width="18.42" height="17.97" transform="translate(-0.07 0.03) rotate(-0.13)" fill="none"/></clipPath><clipPath id="clip-path-5" transform="translate(-3.11 -3.65)"><rect x="4.39" y="39.73" width="18.46" height="19.13" fill="none"/></clipPath></defs><title>usa</title><g opacity="0.8"><g clip-path="url(#clip-path)"><polygon points="1.43 102.38 1.42 97.71 1.38 78 1.37 71.91 19.79 71.87 19.85 102.34 1.43 102.38" fill="#322f5b"/></g></g><g opacity="0.6"><g clip-path="url(#clip-path-2)"><polygon points="1.37 71.91 1.36 68.58 1.33 55.21 19.75 55.17 19.79 71.87 1.37 71.91" fill="#322f5b"/></g></g><g opacity="0.2"><g clip-path="url(#clip-path-3)"><g clip-path="url(#clip-path-4)"><path d="M22.79,27.37V22.49a.73.73,0,0,0-.73-.73l-17,0a.73.73,0,0,0-.72.73v4.88l0,12.36,18.42,0Z" transform="translate(-3.11 -3.65)" fill="#322f5b"/></g></g></g><g opacity="0.4"><g clip-path="url(#clip-path-5)"><rect x="4.41" y="39.75" width="18.42" height="19.09" transform="matrix(1, 0, 0, 1, -3.21, -3.62)" fill="#322f5b"/></g></g><path d="M4.54,107.15V115l0,8.19v10.17a.73.73,0,0,0,.73.73l17,0a.73.73,0,0,0,.73-.73V123.16L23,115v-9L4.54,106Z" transform="translate(-3.11 -3.65)" fill="#322f5b"/><path d="M30.36,4.49h1.5V7.06h2.3V4.48h1.51l0,6.69H34.17V8.39H31.87v2.79H30.38Z" transform="translate(-3.11 -3.65)" fill="#e24329"/><path d="M36.82,8.63a2.47,2.47,0,1,1,4.92,0,2.47,2.47,0,1,1-4.92,0Zm3.39,0c0-.88-.32-1.45-.93-1.45s-.93.57-.92,1.45.31,1.45.93,1.45S40.21,9.5,40.21,8.62Z" transform="translate(-3.11 -3.65)" fill="#e24329"/><path d="M42.72,9.23V6.07h1.5V9c0,.73.2,1,.64,1s.6-.16.89-.56V6.06h1.5v5.09H46l-.11-.71h0a2,2,0,0,1-1.59.84C43.19,11.28,42.72,10.5,42.72,9.23Z" transform="translate(-3.11 -3.65)" fill="#e24329"/><path d="M48.11,10.56l.67-.94a2.23,2.23,0,0,0,1.3.53c.45,0,.65-.17.65-.44s-.52-.49-1-.69-1.33-.66-1.33-1.5.76-1.59,1.93-1.59a2.81,2.81,0,0,1,1.78.64l-.67.9a1.79,1.79,0,0,0-1.07-.42c-.39,0-.57.14-.57.4s.47.45,1,.64,1.37.6,1.37,1.53-.72,1.64-2.07,1.65A3.25,3.25,0,0,1,48.11,10.56Z" transform="translate(-3.11 -3.65)" fill="#e24329"/><path d="M52.77,8.59a2.49,2.49,0,0,1,2.38-2.67c1.43,0,2.15,1,2.15,2.44a3.37,3.37,0,0,1-.06.66h-3a1.21,1.21,0,0,0,1.31,1.07,2,2,0,0,0,1.09-.34l.51.92a3.3,3.3,0,0,1-1.8.57A2.47,2.47,0,0,1,52.77,8.59ZM56,8c0-.57-.25-1-.85-1a1,1,0,0,0-1,1Z" transform="translate(-3.11 -3.65)" fill="#e24329"/><path d="M58.33,3.93h1.5V5.69l-.07.91a2.32,2.32,0,0,1,1.56-.7c1.1,0,1.57.78,1.58,2.05v3.17H61.4v-3c0-.74-.2-1-.63-1a1.25,1.25,0,0,0-.93.49v3.44H58.35Z" transform="translate(-3.11 -3.65)" fill="#e24329"/><path d="M63.86,8.57a2.47,2.47,0,1,1,4.92,0,2.47,2.47,0,1,1-4.92,0Zm3.4,0c0-.88-.32-1.45-.94-1.45s-.92.57-.92,1.45.31,1.45.93,1.45S67.26,9.44,67.26,8.56Z" transform="translate(-3.11 -3.65)" fill="#e24329"/><path d="M69.78,9.52V3.9h1.5V9.58c0,.32.14.42.27.42a.62.62,0,0,0,.18,0l.19,1.12a2,2,0,0,1-.76.12C70.13,11.22,69.78,10.55,69.78,9.52Z" transform="translate(-3.11 -3.65)" fill="#e24329"/><path d="M72.42,8.55c0-1.67,1-2.67,2.09-2.68a1.7,1.7,0,0,1,1.25.53l-.07-.78V3.89h1.5v7.19H76l-.1-.51h0a2,2,0,0,1-1.35.63C73.24,11.22,72.42,10.21,72.42,8.55Zm3.28,1V7.43a1.23,1.23,0,0,0-.84-.33c-.48,0-.91.46-.9,1.42S74.3,10,74.88,10A.94.94,0,0,0,75.7,9.52Z" transform="translate(-3.11 -3.65)" fill="#e24329"/><path d="M80.42,4.44a.87.87,0,1,1,.87.79A.8.8,0,0,1,80.42,4.44ZM80.55,6h1.5v5.09h-1.5Z" transform="translate(-3.11 -3.65)" fill="#e24329"/><path d="M83.33,6h1.22l.11.65h0a2.31,2.31,0,0,1,1.62-.77c1.1,0,1.57.77,1.57,2.05v3.16H86.4v-3c0-.74-.19-1-.62-1a1.29,1.29,0,0,0-.94.5v3.44h-1.5Z" transform="translate(-3.11 -3.65)" fill="#e24329"/><path d="M88.87,8.51a2.54,2.54,0,0,1,2.62-2.67A2.18,2.18,0,0,1,93,6.38l-.7,1a1.06,1.06,0,0,0-.68-.29c-.73,0-1.19.57-1.18,1.45S90.89,10,91.54,10a1.52,1.52,0,0,0,.91-.37l.59,1a2.52,2.52,0,0,1-1.67.61A2.44,2.44,0,0,1,88.87,8.51Z" transform="translate(-3.11 -3.65)" fill="#e24329"/><path d="M93.47,8.5a2.47,2.47,0,1,1,4.92,0,2.47,2.47,0,1,1-4.92,0Zm3.4,0c0-.88-.32-1.44-.93-1.44S95,7.62,95,8.5s.31,1.45.93,1.44S96.87,9.38,96.87,8.49Z" transform="translate(-3.11 -3.65)" fill="#e24329"/><path d="M99.4,5.94h1.23l.1.66h0a2.1,2.1,0,0,1,1.53-.79,1.41,1.41,0,0,1,1.4.85,2.2,2.2,0,0,1,1.59-.85c1.09,0,1.58.77,1.58,2.05V11h-1.5v-3c0-.74-.19-1-.62-1a1.35,1.35,0,0,0-.87.5V11h-1.5v-3c0-.74-.2-1-.63-1a1.29,1.29,0,0,0-.85.49V11H99.42Z" transform="translate(-3.11 -3.65)" fill="#e24329"/><path d="M107.84,8.47a2.49,2.49,0,0,1,2.38-2.67c1.44,0,2.16,1,2.16,2.44a3.37,3.37,0,0,1-.06.66h-3A1.22,1.22,0,0,0,110.61,10a2,2,0,0,0,1.09-.34l.5.92a3.37,3.37,0,0,1-1.79.58A2.49,2.49,0,0,1,107.84,8.47Zm3.26-.56c0-.57-.24-1-.84-1a1,1,0,0,0-1,1Z" transform="translate(-3.11 -3.65)" fill="#e24329"/><path d="M30.35,32.14h1.41V28.37H30.54v-.93a4.52,4.52,0,0,0,1.61-.6h1.1v5.29h1.22v1.22H30.35Z" transform="translate(-3.11 -3.65)" fill="#322f5b"/><path d="M35.23,30.24c0-2.43,1.25-3.53,2.62-3.54a2.55,2.55,0,0,1,1.88.78l-.78.9a1.49,1.49,0,0,0-1-.46c-.71,0-1.28.52-1.33,2a1.84,1.84,0,0,1,1.29-.69,1.8,1.8,0,0,1,1.93,2,2.08,2.08,0,0,1-2.14,2.19C36.43,33.47,35.24,32.53,35.23,30.24Zm3.24,1c0-.69-.36-.94-.85-.94a1.14,1.14,0,0,0-1,.65c.14,1,.57,1.35,1,1.35S38.47,32,38.47,31.28Z" transform="translate(-3.11 -3.65)" fill="#322f5b"/><path d="M40.47,28.64c0-1.34.69-2.12,1.64-2.12s1.67.78,1.67,2.11-.7,2.14-1.66,2.14S40.47,30,40.47,28.64Zm2.26,0c0-.95-.28-1.27-.61-1.27s-.62.32-.61,1.28.27,1.29.61,1.29S42.73,29.59,42.73,28.63Zm3.2-2.12h.86l-3.57,7h-.87Zm-.55,4.81c0-1.34.68-2.12,1.64-2.12s1.67.78,1.67,2.11S48,33.45,47,33.45,45.38,32.66,45.38,31.32Zm2.26,0c0-.95-.28-1.27-.62-1.27s-.61.32-.6,1.27.27,1.3.61,1.3S47.64,32.27,47.64,31.31Z" transform="translate(-3.11 -3.65)" fill="#322f5b"/><path d="M51.88,30.36l.74-3.79h.8l-.76,3.86a4.34,4.34,0,0,0-.09.81,1.68,1.68,0,0,0,.33,1.12,1.27,1.27,0,0,0,1,.39,1.37,1.37,0,0,0,1-.48,2.12,2.12,0,0,0,.39-.63,5.31,5.31,0,0,0,.28-.94l.81-4.14h.78l-.83,4.17A5.19,5.19,0,0,1,56,32a2.93,2.93,0,0,1-.56.84,2,2,0,0,1-.72.47,2.56,2.56,0,0,1-.84.16,2.11,2.11,0,0,1-1.56-.54,2.09,2.09,0,0,1-.55-1.59c0-.14,0-.29,0-.45S51.85,30.53,51.88,30.36Z" transform="translate(-3.11 -3.65)" fill="#322f5b"/><path d="M58.32,32.71l-.18,1.07-.31,1.63h-.78l1.39-7.1h.65L59,29h0a5,5,0,0,1,.81-.55,1.88,1.88,0,0,1,.9-.23,1.29,1.29,0,0,1,1,.46A2.06,2.06,0,0,1,62.2,30,4.24,4.24,0,0,1,62,31.33a3.69,3.69,0,0,1-.6,1.09,2.93,2.93,0,0,1-.85.73,2,2,0,0,1-1,.27,1.22,1.22,0,0,1-.7-.2,1.62,1.62,0,0,1-.5-.51Zm2.16-3.87a1.72,1.72,0,0,0-.76.21,2.87,2.87,0,0,0-.76.61l-.47,2.39a1.45,1.45,0,0,0,.46.55,1,1,0,0,0,.55.17,1.39,1.39,0,0,0,.72-.23,2,2,0,0,0,.6-.59,3.55,3.55,0,0,0,.42-.85,3.32,3.32,0,0,0,.15-1,1.54,1.54,0,0,0-.24-1A.79.79,0,0,0,60.48,28.84Z" transform="translate(-3.11 -3.65)" fill="#322f5b"/><path d="M66.44,33.41a1.47,1.47,0,0,1-.55-.09,1.23,1.23,0,0,1-.37-.23.94.94,0,0,1-.2-.35,1.56,1.56,0,0,1-.06-.44,2.44,2.44,0,0,1,0-.28,2.51,2.51,0,0,1,0-.27l.57-2.82h-.72l.11-.59.77-.05.37-1.38h.66l-.27,1.38h1.25l-.12.63H66.66l-.58,2.85a2.43,2.43,0,0,0,0,.38.7.7,0,0,0,.14.46.65.65,0,0,0,.49.15.87.87,0,0,0,.28-.05l.24-.11.18.57a2.74,2.74,0,0,1-.41.15A1.74,1.74,0,0,1,66.44,33.41Z" transform="translate(-3.11 -3.65)" fill="#322f5b"/><path d="M69.85,33.4a1.66,1.66,0,0,1-1.28-.53,2.13,2.13,0,0,1-.48-1.47,3.71,3.71,0,0,1,.22-1.31,3.43,3.43,0,0,1,.6-1,2.86,2.86,0,0,1,.85-.67,2.19,2.19,0,0,1,1-.24,1.65,1.65,0,0,1,1.29.53,2.1,2.1,0,0,1,.48,1.47,3.42,3.42,0,0,1-.22,1.3,3.36,3.36,0,0,1-.6,1,2.86,2.86,0,0,1-.85.67A2.26,2.26,0,0,1,69.85,33.4Zm.08-.66a1.27,1.27,0,0,0,.67-.2,1.94,1.94,0,0,0,.57-.54,2.74,2.74,0,0,0,.41-.8,3.21,3.21,0,0,0,.15-1,1.72,1.72,0,0,0-.27-1,.92.92,0,0,0-.79-.37A1.25,1.25,0,0,0,70,29a2,2,0,0,0-.58.54,2.8,2.8,0,0,0-.41.81,3.21,3.21,0,0,0-.15,1,1.67,1.67,0,0,0,.27,1A.93.93,0,0,0,69.93,32.74Z" transform="translate(-3.11 -3.65)" fill="#322f5b"/><path d="M76.34,34.39l.21-1a2.22,2.22,0,0,1-.84-.34,3,3,0,0,1-.64-.58l.49-.49a2.66,2.66,0,0,0,.6.55,1.34,1.34,0,0,0,.81.25,1.3,1.3,0,0,0,.92-.33,1.12,1.12,0,0,0,.35-.87,1.22,1.22,0,0,0-.16-.64,2.38,2.38,0,0,0-.4-.49,4.45,4.45,0,0,0-.53-.42,5.83,5.83,0,0,1-.53-.43,2.49,2.49,0,0,1-.4-.52,1.34,1.34,0,0,1-.16-.68,1.82,1.82,0,0,1,.13-.7,1.49,1.49,0,0,1,.37-.55,1.87,1.87,0,0,1,.56-.39,2.11,2.11,0,0,1,.72-.16l.21-1h.57l-.21,1.06a1.92,1.92,0,0,1,.66.32,2.43,2.43,0,0,1,.54.52l-.51.46a2,2,0,0,0-.5-.5,1.09,1.09,0,0,0-.65-.2,1.12,1.12,0,0,0-.81.29,1,1,0,0,0-.31.76,1,1,0,0,0,.16.55,2.74,2.74,0,0,0,.41.43l.52.4a4.32,4.32,0,0,1,.52.44,2.54,2.54,0,0,1,.4.57,1.68,1.68,0,0,1,.17.77,2.36,2.36,0,0,1-.13.75,1.87,1.87,0,0,1-.39.61,1.67,1.67,0,0,1-.59.42,2.23,2.23,0,0,1-.78.19l-.21,1Z" transform="translate(-3.11 -3.65)" fill="#322f5b"/><path d="M81.67,33.38a2,2,0,0,1-1.15-.33,2.72,2.72,0,0,1-.77-.78l.51-.42a2.51,2.51,0,0,0,.25.32,1.33,1.33,0,0,0,.3.28,1.66,1.66,0,0,0,.4.2,2,2,0,0,0,.51.07,1.65,1.65,0,0,0,1.12-.48,1.67,1.67,0,0,0,.35-.55,1.88,1.88,0,0,0,.13-.72A1.24,1.24,0,0,0,83,30a1.2,1.2,0,0,0-.85-.31,1.69,1.69,0,0,0-.54.09,3.65,3.65,0,0,0-.55.26l-.34-.27.81-3.09h3l-.13.68H82.07l-.52,1.93a2.49,2.49,0,0,1,.39-.14,1.65,1.65,0,0,1,.46-.06,2.11,2.11,0,0,1,.68.1,1.48,1.48,0,0,1,.54.33,1.5,1.5,0,0,1,.36.54,2.1,2.1,0,0,1,.13.75,2.78,2.78,0,0,1-.2,1.06,2.68,2.68,0,0,1-.54.8,2.29,2.29,0,0,1-.78.51A2.61,2.61,0,0,1,81.67,33.38Z" transform="translate(-3.11 -3.65)" fill="#322f5b"/><path d="M86.67,33.36A1.41,1.41,0,0,1,86,33.2a1.5,1.5,0,0,1-.5-.47,2.13,2.13,0,0,1-.31-.7,3.15,3.15,0,0,1-.11-.89,6.66,6.66,0,0,1,.21-1.75,6.09,6.09,0,0,1,.58-1.46,3.41,3.41,0,0,1,.86-1,1.65,1.65,0,0,1,1-.37,1.36,1.36,0,0,1,.67.17,1.5,1.5,0,0,1,.5.47,2.15,2.15,0,0,1,.31.72,3.56,3.56,0,0,1,.11.89,7,7,0,0,1-.21,1.74A5.43,5.43,0,0,1,88.54,32a3.24,3.24,0,0,1-.85,1A1.67,1.67,0,0,1,86.67,33.36Zm0-.62a1,1,0,0,0,.74-.36,3.49,3.49,0,0,0,.61-.93,6.31,6.31,0,0,0,.4-1.27,6.74,6.74,0,0,0,.15-1.4,2.68,2.68,0,0,0-.23-1.14.72.72,0,0,0-.69-.44,1,1,0,0,0-.75.36,3.25,3.25,0,0,0-.6.93,6.2,6.2,0,0,0-.41,1.28,7.47,7.47,0,0,0-.14,1.4,3,3,0,0,0,.06.62,1.47,1.47,0,0,0,.17.5.91.91,0,0,0,.28.33A.71.71,0,0,0,86.71,32.74Z" transform="translate(-3.11 -3.65)" fill="#322f5b"/><path d="M89.9,33.23l1.43-7.32h.78l-1,5h0l2.53-2.65h.89l-2,2.09,1.2,2.9H93l-1-2.44L90.94,32l-.27,1.26Z" transform="translate(-3.11 -3.65)" fill="#322f5b"/><path d="M30.15,92.59C31.79,91,33,89.89,33,89A.88.88,0,0,0,32,88a1.65,1.65,0,0,0-1.15.67l-.82-.81a2.72,2.72,0,0,1,2.17-1,2,2,0,0,1,2.15,2.07c0,1.1-1,2.27-2.06,3.38a10,10,0,0,1,1.08-.08h1.3v1.27H30.15Z" transform="translate(-3.11 -3.65)" fill="#322f5b"/><path d="M38.31,88.18H35.4V86.92h4.5v.92c-1.5,1.83-1.71,3-1.82,5.6h-1.5A8.74,8.74,0,0,1,38.31,88.18Z" transform="translate(-3.11 -3.65)" fill="#322f5b"/><path d="M40.67,88.72c0-1.33.69-2.11,1.65-2.12S44,87.38,44,88.72s-.7,2.13-1.65,2.13S40.67,90.07,40.67,88.72Zm2.26,0c0-1-.28-1.27-.61-1.27s-.61.32-.61,1.27S42,90,42.32,90,42.93,89.67,42.93,88.72Zm3.2-2.12H47l-3.57,7h-.86Zm-.55,4.8c0-1.33.69-2.11,1.64-2.12s1.67.78,1.67,2.12-.7,2.13-1.66,2.14S45.58,92.75,45.58,91.4Zm2.26,0c0-1-.28-1.28-.61-1.27s-.61.32-.61,1.27.28,1.29.61,1.29S47.84,92.35,47.84,91.4Z" transform="translate(-3.11 -3.65)" fill="#322f5b"/><path d="M52.63,94.53l.2-1a2.1,2.1,0,0,1-.83-.35,3,3,0,0,1-.65-.57l.5-.49a2.6,2.6,0,0,0,.59.55,1.36,1.36,0,0,0,.82.24,1.27,1.27,0,0,0,.91-.33,1.1,1.1,0,0,0,.36-.86,1.2,1.2,0,0,0-.17-.64,2.38,2.38,0,0,0-.4-.5,5.53,5.53,0,0,0-.52-.41,3.87,3.87,0,0,1-.53-.44,2.2,2.2,0,0,1-.4-.51,1.37,1.37,0,0,1-.17-.68,1.78,1.78,0,0,1,.13-.7,1.76,1.76,0,0,1,.37-.56,2.1,2.1,0,0,1,.57-.38,2.05,2.05,0,0,1,.72-.16l.2-1h.57l-.21,1.06a1.94,1.94,0,0,1,.67.31,2.47,2.47,0,0,1,.54.53l-.51.46a2,2,0,0,0-.5-.5,1.18,1.18,0,0,0-1.46.09.94.94,0,0,0-.31.75.9.9,0,0,0,.16.55,2,2,0,0,0,.4.43c.16.14.34.27.52.4a4.54,4.54,0,0,1,.52.45,2.19,2.19,0,0,1,.41.57,1.67,1.67,0,0,1,.16.76,2,2,0,0,1-.13.75,1.79,1.79,0,0,1-.38.62,2.15,2.15,0,0,1-.6.42,2.13,2.13,0,0,1-.78.19l-.2,1Z" transform="translate(-3.11 -3.65)" fill="#322f5b"/><path d="M56.07,93.39l.13-.66h1.42l1-4.91H57.43l.1-.51A3.82,3.82,0,0,0,59,86.83h.6l-1.17,5.9h1.33l-.13.65Z" transform="translate(-3.11 -3.65)" fill="#322f5b"/><path d="M62.34,93.5a1.3,1.3,0,0,1-.68-.17,1.49,1.49,0,0,1-.51-.46,2.42,2.42,0,0,1-.31-.71,3.48,3.48,0,0,1-.11-.88A6.66,6.66,0,0,1,61,89.53a5.7,5.7,0,0,1,.58-1.46,3.38,3.38,0,0,1,.85-1,1.67,1.67,0,0,1,1-.37,1.3,1.3,0,0,1,.68.17,1.5,1.5,0,0,1,.5.47,2.65,2.65,0,0,1,.31.72,3.54,3.54,0,0,1,.1.88,6.22,6.22,0,0,1-.21,1.75,5.77,5.77,0,0,1-.57,1.45,3.54,3.54,0,0,1-.85,1A1.7,1.7,0,0,1,62.34,93.5Zm0-.62a1.07,1.07,0,0,0,.75-.36,3.25,3.25,0,0,0,.6-.93,6.31,6.31,0,0,0,.41-1.27,7.49,7.49,0,0,0,.14-1.41,2.52,2.52,0,0,0-.23-1.13.73.73,0,0,0-.69-.45,1.08,1.08,0,0,0-.74.37,3.49,3.49,0,0,0-.61.93,6.21,6.21,0,0,0-.4,1.28,6.71,6.71,0,0,0-.15,1.39,3.06,3.06,0,0,0,.06.63,2.09,2.09,0,0,0,.17.5.94.94,0,0,0,.29.33A.68.68,0,0,0,62.38,92.88Z" transform="translate(-3.11 -3.65)" fill="#322f5b"/><path d="M67.36,93.49a1.31,1.31,0,0,1-.69-.17,1.6,1.6,0,0,1-.51-.46,2.42,2.42,0,0,1-.31-.71,3.48,3.48,0,0,1-.11-.88A6.61,6.61,0,0,1,66,89.52a5.7,5.7,0,0,1,.58-1.46,3.38,3.38,0,0,1,.85-1,1.67,1.67,0,0,1,1-.37,1.3,1.3,0,0,1,.68.17,1.5,1.5,0,0,1,.5.47,2.72,2.72,0,0,1,.31.71,4.25,4.25,0,0,1,.11.89,7.05,7.05,0,0,1-.21,1.75,6.18,6.18,0,0,1-.58,1.45,3.35,3.35,0,0,1-.85,1A1.62,1.62,0,0,1,67.36,93.49Zm0-.63a1,1,0,0,0,.74-.35,3.25,3.25,0,0,0,.6-.93,5.73,5.73,0,0,0,.41-1.27,6.74,6.74,0,0,0,.14-1.41,2.5,2.5,0,0,0-.22-1.13.74.74,0,0,0-.7-.45,1,1,0,0,0-.74.36,3.55,3.55,0,0,0-.61.94,6.21,6.21,0,0,0-.4,1.28,6,6,0,0,0-.14,1.39,4,4,0,0,0,0,.63,2.09,2.09,0,0,0,.17.5.94.94,0,0,0,.29.33A.68.68,0,0,0,67.4,92.86Z" transform="translate(-3.11 -3.65)" fill="#322f5b"/><path d="M70.59,93.36,72,86h.78l-1,5h0l2.53-2.64h.9l-2,2.09,1.2,2.9h-.8l-.95-2.43L71.62,92.1l-.26,1.26Z" transform="translate(-3.11 -3.65)" fill="#322f5b"/><path d="M75.24,91.07l.12-.61h2.23l-.13.6Z" transform="translate(-3.11 -3.65)" fill="#322f5b"/><path d="M77.72,93.35l.13-.66h1.41l1-4.92H79.08l.1-.51a3.6,3.6,0,0,0,1.42-.48h.61L80,92.68h1.32l-.12.66Z" transform="translate(-3.11 -3.65)" fill="#322f5b"/><path d="M84.13,93.45A1.87,1.87,0,0,1,83,93.13a2.49,2.49,0,0,1-.77-.78l.5-.42a3.92,3.92,0,0,0,.25.32,1.38,1.38,0,0,0,.31.28,1.43,1.43,0,0,0,.39.2,2,2,0,0,0,.51.07,1.42,1.42,0,0,0,.61-.13,1.6,1.6,0,0,0,.51-.35,1.74,1.74,0,0,0,.49-1.27,1.28,1.28,0,0,0-.32-1,1.17,1.17,0,0,0-.86-.3,1.46,1.46,0,0,0-.54.08,3.65,3.65,0,0,0-.55.26l-.33-.27.81-3.1h3l-.13.68H84.54L84,89.39a2.26,2.26,0,0,1,.39-.15,1.73,1.73,0,0,1,.47-.06,2.15,2.15,0,0,1,.68.1,1.67,1.67,0,0,1,.54.33,1.37,1.37,0,0,1,.35.54,1.9,1.9,0,0,1,.13.75,2.6,2.6,0,0,1-.2,1.06,2.36,2.36,0,0,1-.54.8,2.29,2.29,0,0,1-.78.51A2.39,2.39,0,0,1,84.13,93.45Z" transform="translate(-3.11 -3.65)" fill="#322f5b"/><path d="M89.13,93.44a1.39,1.39,0,0,1-.68-.16,1.63,1.63,0,0,1-.51-.47,2.13,2.13,0,0,1-.31-.7,3.56,3.56,0,0,1-.11-.89,6.66,6.66,0,0,1,.22-1.75A5.5,5.5,0,0,1,88.32,88a3.38,3.38,0,0,1,.85-1,1.67,1.67,0,0,1,1-.37,1.4,1.4,0,0,1,.68.17,1.72,1.72,0,0,1,.5.47,2.36,2.36,0,0,1,.3.72,3.15,3.15,0,0,1,.11.89,7,7,0,0,1-.21,1.74A5.77,5.77,0,0,1,91,92.08a3.54,3.54,0,0,1-.85,1A1.7,1.7,0,0,1,89.13,93.44Zm0-.62a1,1,0,0,0,.75-.36,3.11,3.11,0,0,0,.6-.93,6.31,6.31,0,0,0,.41-1.27,7.47,7.47,0,0,0,.14-1.4,2.54,2.54,0,0,0-.23-1.14.72.72,0,0,0-.69-.44,1,1,0,0,0-.74.36,3.49,3.49,0,0,0-.61.93,6.41,6.41,0,0,0-.4,1.28,6.74,6.74,0,0,0-.15,1.4,3,3,0,0,0,.06.62,2,2,0,0,0,.17.5.94.94,0,0,0,.29.33A.68.68,0,0,0,89.17,92.82Z" transform="translate(-3.11 -3.65)" fill="#322f5b"/><path d="M92.37,93.31,93.8,86h.79l-1,5h0l2.53-2.65h.9l-2,2.09,1.19,2.91H95.5l-1-2.44-1.14,1.18-.26,1.26Z" transform="translate(-3.11 -3.65)" fill="#322f5b"/><path d="M30.43,68.64h1.41V64.87H30.61v-.93a4.52,4.52,0,0,0,1.61-.6h1.1v5.3h1.22v1.23H30.43Z" transform="translate(-3.11 -3.65)" fill="#322f5b"/><path d="M35.39,69.06l.67-1a2.08,2.08,0,0,0,1.4.64,1,1,0,0,0,1.09-1,.93.93,0,0,0-1-1,1.51,1.51,0,0,0-1,.33l-.67-.43.17-3.3h3.67V64.6H37.37l-.11,1.22a1.63,1.63,0,0,1,.72-.15,1.91,1.91,0,0,1,2.07,2A2.24,2.24,0,0,1,37.68,70,3.05,3.05,0,0,1,35.39,69.06Z" transform="translate(-3.11 -3.65)" fill="#322f5b"/><path d="M40.72,65.14c0-1.34.69-2.12,1.65-2.12S44,63.8,44,65.13s-.7,2.14-1.65,2.14S40.72,66.48,40.72,65.14Zm2.26,0c0-.95-.28-1.27-.61-1.27s-.61.32-.61,1.28.28,1.29.61,1.29S43,66.09,43,65.13ZM46.18,63H47L43.47,70h-.86Zm-.55,4.81c0-1.34.69-2.12,1.64-2.12s1.67.78,1.67,2.11S48.24,70,47.28,70,45.63,69.16,45.63,67.82Zm2.26,0c0-1-.28-1.27-.61-1.27s-.61.32-.61,1.28.28,1.29.61,1.29S47.89,68.77,47.89,67.81Z" transform="translate(-3.11 -3.65)" fill="#322f5b"/><path d="M52.67,71l.2-1a2.26,2.26,0,0,1-.83-.35,3,3,0,0,1-.65-.57l.5-.5a2.64,2.64,0,0,0,.59.56,1.44,1.44,0,0,0,.82.24,1.27,1.27,0,0,0,.91-.33,1.12,1.12,0,0,0,.36-.86,1.23,1.23,0,0,0-.17-.65A2,2,0,0,0,54,67a4.33,4.33,0,0,0-.52-.42A4.52,4.52,0,0,1,53,66.1a2.25,2.25,0,0,1-.4-.52,1.32,1.32,0,0,1-.17-.68,1.73,1.73,0,0,1,.13-.69,1.66,1.66,0,0,1,.37-.56,1.73,1.73,0,0,1,.57-.38,2.11,2.11,0,0,1,.72-.17l.2-1h.57l-.21,1.06a2,2,0,0,1,.67.32,2.43,2.43,0,0,1,.54.52l-.51.47a2.2,2.2,0,0,0-.5-.51,1.19,1.19,0,0,0-.66-.2,1.16,1.16,0,0,0-.8.29,1,1,0,0,0-.31.76.92.92,0,0,0,.16.55,2.3,2.3,0,0,0,.4.43l.52.4a3.17,3.17,0,0,1,.52.45,2.19,2.19,0,0,1,.41.57,1.64,1.64,0,0,1,.16.76,2,2,0,0,1-.13.75,1.75,1.75,0,0,1-.38.61,1.88,1.88,0,0,1-.6.43,2.35,2.35,0,0,1-.78.19l-.2,1Z" transform="translate(-3.11 -3.65)" fill="#322f5b"/><path d="M57.15,69.81c.14-.62.3-1.19.47-1.73a11.94,11.94,0,0,1,.62-1.51,10.54,10.54,0,0,1,.8-1.38,10.41,10.41,0,0,1,1.08-1.27H57l.15-.68h4l-.1.52a10.93,10.93,0,0,0-1.27,1.44,9.14,9.14,0,0,0-.86,1.46,10.3,10.3,0,0,0-.57,1.52c-.15.52-.28,1.06-.4,1.62Z" transform="translate(-3.11 -3.65)" fill="#322f5b"/><path d="M62.49,69.92a2,2,0,0,1-1.15-.32,2.75,2.75,0,0,1-.77-.79l.51-.42a2,2,0,0,0,.24.33,1.63,1.63,0,0,0,.31.27,1.36,1.36,0,0,0,.4.2,1.61,1.61,0,0,0,.51.07,1.53,1.53,0,0,0,.6-.12,1.62,1.62,0,0,0,.87-.91,1.81,1.81,0,0,0,.13-.72,1.28,1.28,0,0,0-.32-1,1.19,1.19,0,0,0-.85-.3,1.71,1.71,0,0,0-.54.08,5,5,0,0,0-.55.26l-.34-.27.81-3.09H65.4l-.13.68H62.89l-.52,1.93a2.74,2.74,0,0,1,.38-.15,1.78,1.78,0,0,1,.47-.06,2.11,2.11,0,0,1,.68.11,1.46,1.46,0,0,1,.54.32,1.5,1.5,0,0,1,.36.54,2.14,2.14,0,0,1,.13.75,2.74,2.74,0,0,1-.2,1.06,2.61,2.61,0,0,1-.54.81,2.51,2.51,0,0,1-.78.51A2.43,2.43,0,0,1,62.49,69.92Z" transform="translate(-3.11 -3.65)" fill="#322f5b"/><path d="M65.68,69.79l1.43-7.32h.78l-1,5h0l2.53-2.64h.9l-2,2.09,1.2,2.91h-.8l-1-2.43-1.14,1.17-.26,1.27Z" transform="translate(-3.11 -3.65)" fill="#322f5b"/><path d="M70.33,67.5l.12-.61h2.23l-.13.61Z" transform="translate(-3.11 -3.65)" fill="#322f5b"/><path d="M72.82,69.77l.13-.66h1.41l1-4.91H74.18l.1-.51a3.76,3.76,0,0,0,1.42-.48h.61l-1.17,5.9h1.32l-.12.65Z" transform="translate(-3.11 -3.65)" fill="#322f5b"/><path d="M79.09,69.88a1.31,1.31,0,0,1-.69-.17,1.38,1.38,0,0,1-.5-.46,2.43,2.43,0,0,1-.32-.71,3.49,3.49,0,0,1-.1-.88,6.66,6.66,0,0,1,.21-1.75,6.09,6.09,0,0,1,.58-1.46,3.41,3.41,0,0,1,.86-1,1.65,1.65,0,0,1,1-.37,1.26,1.26,0,0,1,.67.17,1.5,1.5,0,0,1,.5.47,2.15,2.15,0,0,1,.31.72,3.53,3.53,0,0,1,.11.88,7.05,7.05,0,0,1-.21,1.75A5.43,5.43,0,0,1,81,68.52a3.09,3.09,0,0,1-.85,1A1.62,1.62,0,0,1,79.09,69.88Zm0-.63a1,1,0,0,0,.74-.35,3.49,3.49,0,0,0,.61-.93,6.31,6.31,0,0,0,.4-1.27A6.76,6.76,0,0,0,81,65.29a2.67,2.67,0,0,0-.23-1.13.73.73,0,0,0-.69-.45,1,1,0,0,0-.75.37,3.25,3.25,0,0,0-.6.93,6.2,6.2,0,0,0-.41,1.28,7.45,7.45,0,0,0-.14,1.39,3.06,3.06,0,0,0,.06.63,1.47,1.47,0,0,0,.17.5.91.91,0,0,0,.28.33A.64.64,0,0,0,79.13,69.25Z" transform="translate(-3.11 -3.65)" fill="#322f5b"/><path d="M84.1,69.87a1.31,1.31,0,0,1-.69-.17,1.46,1.46,0,0,1-.5-.46,2.19,2.19,0,0,1-.31-.71,3.1,3.1,0,0,1-.11-.89,7,7,0,0,1,.21-1.74,5.57,5.57,0,0,1,.59-1.46,3.24,3.24,0,0,1,.85-1,1.65,1.65,0,0,1,1-.37,1.18,1.18,0,0,1,.67.17,1.33,1.33,0,0,1,.5.47,2.19,2.19,0,0,1,.31.71,3.68,3.68,0,0,1,.11.89,7.05,7.05,0,0,1-.21,1.75A5.43,5.43,0,0,1,86,68.51a3.09,3.09,0,0,1-.85,1A1.62,1.62,0,0,1,84.1,69.87Zm0-.63a1,1,0,0,0,.74-.35,3.26,3.26,0,0,0,.61-.93,5.73,5.73,0,0,0,.4-1.27A6.76,6.76,0,0,0,86,65.28a2.49,2.49,0,0,0-.23-1.13.73.73,0,0,0-.69-.45,1,1,0,0,0-.75.36,3.31,3.31,0,0,0-.6.94,5.66,5.66,0,0,0-.4,1.28,6.64,6.64,0,0,0-.15,1.39,3.06,3.06,0,0,0,.06.63,1.73,1.73,0,0,0,.17.5.91.91,0,0,0,.28.33A.72.72,0,0,0,84.14,69.24Z" transform="translate(-3.11 -3.65)" fill="#322f5b"/><path d="M87.33,69.74l1.43-7.32h.79l-1,5h0l2.53-2.64H92l-2,2.09,1.2,2.9h-.79l-.95-2.43-1.14,1.17-.27,1.27Z" transform="translate(-3.11 -3.65)" fill="#322f5b"/><path d="M30.39,50.67H31.8V46.9H30.58V46a4.71,4.71,0,0,0,1.61-.6h1.1l0,5.3h1.21v1.22H30.39Z" transform="translate(-3.11 -3.65)" fill="#322f5b"/><path d="M37.83,46.63H34.92V45.36h4.51v.92c-1.5,1.84-1.71,3.06-1.81,5.61H36.11A8.76,8.76,0,0,1,37.83,46.63Z" transform="translate(-3.11 -3.65)" fill="#322f5b"/><path d="M40.19,47.17c0-1.34.69-2.12,1.65-2.12s1.66.77,1.66,2.11-.69,2.14-1.65,2.14S40.19,48.51,40.19,47.17Zm2.26,0c0-.95-.27-1.27-.61-1.27s-.61.32-.61,1.27.28,1.3.62,1.3S42.46,48.12,42.45,47.16ZM45.65,45h.87l-3.58,7h-.86Zm-.55,4.81c0-1.34.69-2.12,1.65-2.12s1.66.77,1.66,2.11S47.71,52,46.76,52,45.1,51.19,45.1,49.85Zm2.26,0c0-1-.28-1.27-.61-1.27s-.61.32-.61,1.27.28,1.3.61,1.3S47.37,50.8,47.36,49.84Z" transform="translate(-3.11 -3.65)" fill="#322f5b"/><path d="M52.14,53l.2-1a2.45,2.45,0,0,1-.83-.35,3,3,0,0,1-.65-.58l.5-.49a2.83,2.83,0,0,0,.59.55,1.37,1.37,0,0,0,.82.25,1.31,1.31,0,0,0,.92-.33,1.15,1.15,0,0,0,.35-.87,1.32,1.32,0,0,0-.16-.64,2.37,2.37,0,0,0-.41-.49,4.33,4.33,0,0,0-.52-.42,4.52,4.52,0,0,1-.53-.43,2.49,2.49,0,0,1-.4-.52,1.34,1.34,0,0,1-.17-.68,2,2,0,0,1,.13-.7,1.64,1.64,0,0,1,.38-.55,1.59,1.59,0,0,1,.56-.38,1.9,1.9,0,0,1,.72-.17l.2-1h.57l-.21,1.06a2,2,0,0,1,.67.32,2.43,2.43,0,0,1,.54.52l-.51.46a2.16,2.16,0,0,0-.5-.5,1.11,1.11,0,0,0-.65-.2,1.16,1.16,0,0,0-.81.29,1,1,0,0,0-.31.76.94.94,0,0,0,.16.55,3.19,3.19,0,0,0,.4.43l.53.4a4.32,4.32,0,0,1,.52.44,2.54,2.54,0,0,1,.4.57,1.68,1.68,0,0,1,.16.77,2,2,0,0,1-.13.75,1.81,1.81,0,0,1-1,1,2.35,2.35,0,0,1-.78.2l-.2,1Z" transform="translate(-3.11 -3.65)" fill="#322f5b"/><path d="M57.47,52a2,2,0,0,1-1.15-.33,2.6,2.6,0,0,1-.77-.78l.51-.42a3.43,3.43,0,0,0,.24.33,1.63,1.63,0,0,0,.31.27,1.5,1.5,0,0,0,.4.2,2,2,0,0,0,.51.07,1.38,1.38,0,0,0,.6-.13,1.54,1.54,0,0,0,.52-.35,2.06,2.06,0,0,0,.35-.55,1.88,1.88,0,0,0,.13-.72,1.28,1.28,0,0,0-.32-.95,1.17,1.17,0,0,0-.85-.3,1.46,1.46,0,0,0-.54.08,3.65,3.65,0,0,0-.55.26l-.34-.27.81-3.09h3.05l-.14.68H57.87l-.52,1.94a1.88,1.88,0,0,1,.38-.15,1.78,1.78,0,0,1,.47-.06,1.87,1.87,0,0,1,.68.11,1.34,1.34,0,0,1,.54.32,1.5,1.5,0,0,1,.36.54,2.1,2.1,0,0,1,.13.75,2.57,2.57,0,0,1-.21,1.06,2.38,2.38,0,0,1-.53.8,2.51,2.51,0,0,1-.78.51A2.65,2.65,0,0,1,57.47,52Z" transform="translate(-3.11 -3.65)" fill="#322f5b"/><path d="M62.47,51.94a1.31,1.31,0,0,1-.69-.16,1.63,1.63,0,0,1-.51-.47,2.36,2.36,0,0,1-.31-.7,3.56,3.56,0,0,1-.11-.89A6.72,6.72,0,0,1,61.07,48a5.85,5.85,0,0,1,.58-1.46,3.41,3.41,0,0,1,.86-1,1.62,1.62,0,0,1,1-.37,1.4,1.4,0,0,1,.68.17,1.6,1.6,0,0,1,.5.47,2.37,2.37,0,0,1,.31.72,3.56,3.56,0,0,1,.11.89,7,7,0,0,1-.21,1.74,5.63,5.63,0,0,1-.58,1.45,3.38,3.38,0,0,1-.85,1A1.67,1.67,0,0,1,62.47,51.94Zm0-.62a1,1,0,0,0,.74-.36,3.19,3.19,0,0,0,.6-.92,6,6,0,0,0,.41-1.28,6.72,6.72,0,0,0,.14-1.4,2.55,2.55,0,0,0-.22-1.14.73.73,0,0,0-.7-.44,1,1,0,0,0-.74.36,3.25,3.25,0,0,0-.6.93,5.82,5.82,0,0,0-.41,1.28,6.72,6.72,0,0,0-.14,1.4,3,3,0,0,0,.06.62,1.63,1.63,0,0,0,.16.5.94.94,0,0,0,.29.33A.71.71,0,0,0,62.51,51.32Z" transform="translate(-3.11 -3.65)" fill="#322f5b"/><path d="M65.7,51.81l1.43-7.32h.78l-1,5h0l2.53-2.65h.89l-2,2.09,1.2,2.91h-.8l-.95-2.44-1.14,1.18-.26,1.26Z" transform="translate(-3.11 -3.65)" fill="#322f5b"/><path d="M70.35,49.52l.12-.6H72.7l-.13.61Z" transform="translate(-3.11 -3.65)" fill="#322f5b"/><path d="M73.85,51.8c.14-.62.3-1.2.47-1.73a13.59,13.59,0,0,1,.61-1.51,11.87,11.87,0,0,1,.81-1.38,9.59,9.59,0,0,1,1.08-1.27H73.7l.14-.68h4l-.11.52a10.14,10.14,0,0,0-1.26,1.44,9.14,9.14,0,0,0-.86,1.46,9.33,9.33,0,0,0-.58,1.52q-.21.78-.39,1.62Z" transform="translate(-3.11 -3.65)" fill="#322f5b"/><path d="M79.18,51.91A2,2,0,0,1,78,51.59a2.63,2.63,0,0,1-.77-.79l.5-.42a2.85,2.85,0,0,0,.25.33,1.63,1.63,0,0,0,.31.27,1.2,1.2,0,0,0,.39.2,1.61,1.61,0,0,0,.51.07,1.58,1.58,0,0,0,.61-.12,1.82,1.82,0,0,0,.51-.36,1.75,1.75,0,0,0,.36-.55,1.81,1.81,0,0,0,.13-.72,1.26,1.26,0,0,0-.32-.94,1.18,1.18,0,0,0-.86-.31,1.71,1.71,0,0,0-.54.08,5,5,0,0,0-.54.26l-.34-.27.81-3.09h3L82,45.9H79.59l-.53,1.93a3.53,3.53,0,0,1,.39-.15,1.73,1.73,0,0,1,.47-.06,2.15,2.15,0,0,1,.68.11,1.64,1.64,0,0,1,.54.32,1.37,1.37,0,0,1,.35.54,1.93,1.93,0,0,1,.13.75,2.57,2.57,0,0,1-.2,1.06,2.38,2.38,0,0,1-1.32,1.32A2.39,2.39,0,0,1,79.18,51.91Z" transform="translate(-3.11 -3.65)" fill="#322f5b"/><path d="M82.37,51.78l1.43-7.32h.79l-1,5h0l2.53-2.64h.9l-2,2.09,1.2,2.91H85.5l-1-2.43-1.14,1.17-.26,1.27Z" transform="translate(-3.11 -3.65)" fill="#322f5b"/><path d="M30.21,121.78c1.65-1.57,2.81-2.69,2.8-3.62a.86.86,0,0,0-.92-1,1.67,1.67,0,0,0-1.15.67l-.81-.81a2.72,2.72,0,0,1,2.17-1,2,2,0,0,1,2.14,2.07c0,1.1-1,2.27-2.06,3.38.33,0,.77-.08,1.08-.09h1.3v1.27H30.21Z" transform="translate(-3.11 -3.65)" fill="#322f5b"/><path d="M38.25,121.07H35.44v-1l2.36-3.93h1.83v3.81h.74v1.15h-.75v1.56h-1.4Zm0-1.15v-1.06c0-.42,0-1,.06-1.46h0c-.16.36-.35.73-.53,1.1l-.85,1.42Z" transform="translate(-3.11 -3.65)" fill="#322f5b"/><path d="M40.78,117.92c0-1.34.69-2.12,1.65-2.12s1.66.78,1.67,2.11-.7,2.14-1.66,2.14S40.79,119.26,40.78,117.92Zm2.27,0c0-1-.28-1.27-.62-1.27s-.61.32-.61,1.28.28,1.29.62,1.29S43.05,118.87,43.05,117.91Zm3.19-2.12h.87l-3.57,6.95h-.87Zm-.55,4.81c0-1.34.69-2.12,1.65-2.12s1.66.78,1.66,2.11-.69,2.14-1.65,2.14S45.7,121.94,45.69,120.6Zm2.27,0c0-1-.28-1.27-.62-1.27s-.61.32-.61,1.28.28,1.29.62,1.29S48,121.55,48,120.59Z" transform="translate(-3.11 -3.65)" fill="#322f5b"/><path d="M52.74,123.73l.21-1a2.24,2.24,0,0,1-.84-.35,3,3,0,0,1-.64-.57l.5-.5a2.23,2.23,0,0,0,.59.55,1.34,1.34,0,0,0,.81.25,1.3,1.3,0,0,0,.92-.33,1.12,1.12,0,0,0,.35-.87,1.22,1.22,0,0,0-.16-.64,2.32,2.32,0,0,0-.4-.49,4.45,4.45,0,0,0-.53-.42,4.52,4.52,0,0,1-.53-.43,2.25,2.25,0,0,1-.4-.52,1.34,1.34,0,0,1-.16-.68,1.82,1.82,0,0,1,.13-.7,1.72,1.72,0,0,1,.37-.55,1.79,1.79,0,0,1,.56-.38,2.11,2.11,0,0,1,.73-.17l.2-1H55l-.21,1.06a1.92,1.92,0,0,1,.66.32,2.43,2.43,0,0,1,.54.52l-.51.47a2,2,0,0,0-.5-.51,1.22,1.22,0,0,0-1.46.09,1.06,1.06,0,0,0-.15,1.31,2.36,2.36,0,0,0,.41.43c.16.13.33.27.52.4a3.67,3.67,0,0,1,.52.44,2.54,2.54,0,0,1,.4.57,1.68,1.68,0,0,1,.17.77,2.27,2.27,0,0,1-.13.75,1.91,1.91,0,0,1-.38.61,2,2,0,0,1-.6.43,2.48,2.48,0,0,1-.78.19l-.2,1Z" transform="translate(-3.11 -3.65)" fill="#322f5b"/><path d="M56.19,122.59l.13-.66h1.41l1-4.92H57.55l.1-.52a3.45,3.45,0,0,0,1.42-.48h.61l-1.17,5.91h1.32l-.12.66Z" transform="translate(-3.11 -3.65)" fill="#322f5b"/><path d="M62.6,122.7a2,2,0,0,1-1.14-.32,2.63,2.63,0,0,1-.77-.79l.5-.42a2.85,2.85,0,0,0,.25.33,1.93,1.93,0,0,0,.3.27,1.36,1.36,0,0,0,.4.2,1.73,1.73,0,0,0,1.12,0,1.82,1.82,0,0,0,.51-.36,1.87,1.87,0,0,0,.36-.55,2,2,0,0,0,.13-.72,1.28,1.28,0,0,0-.32-1,1.22,1.22,0,0,0-.86-.3,1.71,1.71,0,0,0-.54.08,5,5,0,0,0-.55.26l-.33-.27.81-3.09h3l-.13.68H63l-.53,1.94a2.26,2.26,0,0,1,.39-.15,1.73,1.73,0,0,1,.47-.06,2,2,0,0,1,.67.11,1.46,1.46,0,0,1,.54.32,1.29,1.29,0,0,1,.36.54,1.93,1.93,0,0,1,.13.75,2.57,2.57,0,0,1-.2,1.06,2.18,2.18,0,0,1-.54.8,2.32,2.32,0,0,1-.78.52A2.39,2.39,0,0,1,62.6,122.7Z" transform="translate(-3.11 -3.65)" fill="#322f5b"/><path d="M67.6,122.69a1.4,1.4,0,0,1-.68-.17,1.52,1.52,0,0,1-.51-.47,2.13,2.13,0,0,1-.31-.7,3.56,3.56,0,0,1-.11-.89,6.72,6.72,0,0,1,.22-1.75,5.5,5.5,0,0,1,.58-1.46,3.38,3.38,0,0,1,.85-1,1.73,1.73,0,0,1,1-.37,1.4,1.4,0,0,1,.68.17,1.63,1.63,0,0,1,.5.48,2.2,2.2,0,0,1,.3.71,3.19,3.19,0,0,1,.11.89,7.11,7.11,0,0,1-.21,1.75,5.93,5.93,0,0,1-.57,1.45,3.49,3.49,0,0,1-.85,1A1.73,1.73,0,0,1,67.6,122.69Zm0-.63a1,1,0,0,0,.75-.36,3.05,3.05,0,0,0,.6-.92,5.82,5.82,0,0,0,.4-1.28,6.74,6.74,0,0,0,.15-1.4,2.54,2.54,0,0,0-.23-1.14.74.74,0,0,0-.69-.44,1,1,0,0,0-.74.36,3.26,3.26,0,0,0-.61.93,5.82,5.82,0,0,0-.4,1.28,6.74,6.74,0,0,0-.15,1.4,3.13,3.13,0,0,0,.06.63,1.66,1.66,0,0,0,.17.49.85.85,0,0,0,.29.33A.68.68,0,0,0,67.64,122.06Z" transform="translate(-3.11 -3.65)" fill="#322f5b"/><path d="M70.83,122.56l1.43-7.32h.79l-1,5h0l2.53-2.65h.9l-2,2.09,1.19,2.91H74L73,120.12l-1.14,1.17-.26,1.26Z" transform="translate(-3.11 -3.65)" fill="#322f5b"/><path d="M77.33,121.48v-2H75.55v-.58h1.78v-2h.61v2h1.79v.58H77.94v2Z" transform="translate(-3.11 -3.65)" fill="#322f5b"/><line x1="0.15" y1="102.38" x2="23.07" y2="102.33" fill="none" stroke="#fff" stroke-miterlimit="10" stroke-width="0.73"/><line x1="0.08" y1="72.06" x2="23.01" y2="72.01" fill="none" stroke="#fff" stroke-miterlimit="10" stroke-width="0.73"/><line x1="0.04" y1="55.21" x2="22.97" y2="55.16" fill="none" stroke="#fff" stroke-miterlimit="10" stroke-width="0.73"/><line y1="36.12" x2="22.93" y2="36.07" fill="none" stroke="#fff" stroke-miterlimit="10" stroke-width="0.73"/><rect x="4.33" y="3.67" width="18.42" height="9.29" transform="translate(-3.12 -3.62) rotate(-0.12)" fill="#fff"/><rect x="4.32" y="3.67" width="18.42" height="0.71" transform="translate(-3.11 -3.62) rotate(-0.12)" fill="#b22234"/><rect x="4.32" y="5.1" width="18.42" height="0.71" transform="translate(-3.12 -3.62) rotate(-0.12)" fill="#b22234"/><rect x="4.32" y="6.53" width="18.42" height="0.72" transform="translate(-3.12 -3.62) rotate(-0.12)" fill="#b22234"/><rect x="4.33" y="7.96" width="18.42" height="0.71" transform="translate(-3.12 -3.62) rotate(-0.12)" fill="#b22234"/><rect x="4.33" y="9.39" width="18.42" height="0.71" transform="translate(-3.13 -3.62) rotate(-0.12)" fill="#b22234"/><rect x="4.33" y="10.82" width="18.42" height="0.71" transform="translate(-3.13 -3.62) rotate(-0.12)" fill="#b22234"/><rect x="4.33" y="12.25" width="18.42" height="0.71" transform="translate(-3.13 -3.62) rotate(-0.12)" fill="#b22234"/><rect x="4.32" y="3.68" width="7" height="5" transform="translate(-3.12 -3.63) rotate(-0.12)" fill="#3c3b6e"/><polygon points="1.54 0.45 1.71 0.57 1.64 0.77 1.81 0.64 1.98 0.77 1.91 0.57 2.08 0.45 1.87 0.45 1.81 0.25 1.75 0.45 1.54 0.45" fill="#fff"/><polygon points="2.7 0.44 2.87 0.56 2.8 0.76 2.97 0.64 3.14 0.76 3.07 0.56 3.24 0.44 3.03 0.44 2.97 0.24 2.91 0.44 2.7 0.44" fill="#fff"/><polygon points="3.86 0.44 4.03 0.56 3.96 0.76 4.13 0.64 4.3 0.76 4.23 0.56 4.4 0.44 4.19 0.44 4.13 0.24 4.07 0.44 3.86 0.44" fill="#fff"/><polygon points="5.02 0.44 5.19 0.56 5.12 0.76 5.29 0.64 5.46 0.76 5.39 0.56 5.56 0.44 5.35 0.44 5.29 0.24 5.23 0.44 5.02 0.44" fill="#fff"/><polygon points="6.18 0.44 6.35 0.56 6.29 0.76 6.45 0.63 6.62 0.76 6.55 0.56 6.72 0.43 6.51 0.43 6.45 0.24 6.39 0.43 6.18 0.44" fill="#fff"/><polygon points="7.34 0.43 7.51 0.55 7.45 0.75 7.61 0.63 7.78 0.75 7.71 0.55 7.88 0.43 7.67 0.43 7.61 0.23 7.55 0.43 7.34 0.43" fill="#fff"/><polygon points="2.12 0.95 2.29 1.07 2.22 1.27 2.39 1.14 2.56 1.26 2.49 1.07 2.66 0.94 2.45 0.94 2.39 0.75 2.33 0.95 2.12 0.95" fill="#fff"/><polygon points="3.28 0.94 3.45 1.06 3.38 1.26 3.55 1.14 3.72 1.26 3.65 1.06 3.82 0.94 3.62 0.94 3.55 0.74 3.49 0.94 3.28 0.94" fill="#fff"/><polygon points="4.44 0.94 4.61 1.06 4.55 1.26 4.71 1.14 4.88 1.26 4.81 1.06 4.98 0.94 4.78 0.94 4.71 0.74 4.65 0.94 4.44 0.94" fill="#fff"/><polygon points="5.6 0.94 5.77 1.06 5.71 1.26 5.87 1.14 6.04 1.26 5.97 1.06 6.14 0.94 5.93 0.94 5.87 0.74 5.81 0.94 5.6 0.94" fill="#fff"/><polygon points="6.76 0.94 6.93 1.06 6.87 1.26 7.03 1.13 7.2 1.25 7.14 1.06 7.3 0.94 7.09 0.94 7.03 0.74 6.97 0.94 6.76 0.94" fill="#fff"/><polygon points="1.54 1.45 1.71 1.57 1.65 1.77 1.81 1.65 1.98 1.77 1.91 1.57 2.08 1.45 1.88 1.45 1.81 1.25 1.75 1.45 1.54 1.45" fill="#fff"/><polygon points="2.7 1.45 2.87 1.57 2.81 1.77 2.97 1.64 3.14 1.77 3.08 1.57 3.24 1.45 3.04 1.45 2.97 1.25 2.91 1.45 2.7 1.45" fill="#fff"/><polygon points="3.86 1.44 4.03 1.57 3.97 1.76 4.13 1.64 4.3 1.76 4.24 1.56 4.4 1.44 4.2 1.44 4.13 1.25 4.07 1.44 3.86 1.44" fill="#fff"/><polygon points="5.02 1.44 5.19 1.56 5.13 1.76 5.29 1.64 5.46 1.76 5.4 1.56 5.56 1.44 5.36 1.44 5.29 1.24 5.23 1.44 5.02 1.44" fill="#fff"/><polygon points="6.18 1.44 6.35 1.56 6.29 1.76 6.45 1.64 6.62 1.76 6.56 1.56 6.72 1.44 6.52 1.44 6.45 1.24 6.39 1.44 6.18 1.44" fill="#fff"/><polygon points="7.34 1.44 7.51 1.56 7.45 1.76 7.61 1.63 7.78 1.76 7.72 1.56 7.88 1.44 7.68 1.44 7.61 1.24 7.55 1.44 7.34 1.44" fill="#fff"/><polygon points="2.14 1.95 2.3 2.07 2.24 2.27 2.41 2.15 2.58 2.27 2.51 2.07 2.68 1.95 2.47 1.95 2.41 1.75 2.34 1.95 2.14 1.95" fill="#fff"/><polygon points="3.3 1.95 3.46 2.07 3.4 2.27 3.57 2.15 3.73 2.27 3.67 2.07 3.84 1.95 3.63 1.95 3.57 1.75 3.5 1.95 3.3 1.95" fill="#fff"/><polygon points="4.46 1.95 4.63 2.07 4.56 2.27 4.73 2.14 4.89 2.27 4.83 2.07 5 1.95 4.79 1.95 4.73 1.75 4.66 1.95 4.46 1.95" fill="#fff"/><polygon points="5.62 1.94 5.79 2.06 5.72 2.26 5.89 2.14 6.05 2.26 5.99 2.06 6.16 1.94 5.95 1.94 5.89 1.75 5.82 1.94 5.62 1.94" fill="#fff"/><polygon points="6.78 1.94 6.95 2.06 6.88 2.26 7.05 2.14 7.22 2.26 7.15 2.06 7.32 1.94 7.11 1.94 7.05 1.74 6.98 1.94 6.78 1.94" fill="#fff"/><polygon points="1.56 2.45 1.73 2.57 1.67 2.77 1.83 2.65 2 2.77 1.93 2.57 2.1 2.45 1.9 2.45 1.83 2.25 1.77 2.45 1.56 2.45" fill="#fff"/><polygon points="2.72 2.45 2.89 2.57 2.83 2.77 2.99 2.65 3.16 2.77 3.1 2.57 3.26 2.45 3.06 2.45 2.99 2.25 2.93 2.45 2.72 2.45" fill="#fff"/><polygon points="3.88 2.44 4.05 2.57 3.99 2.77 4.15 2.64 4.32 2.76 4.26 2.57 4.42 2.44 4.21 2.44 4.15 2.25 4.09 2.44 3.88 2.44" fill="#fff"/><polygon points="5.04 2.44 5.21 2.56 5.15 2.76 5.31 2.64 5.48 2.76 5.42 2.56 5.58 2.44 5.38 2.44 5.31 2.24 5.25 2.44 5.04 2.44" fill="#fff"/><polygon points="6.2 2.44 6.37 2.56 6.31 2.76 6.47 2.64 6.64 2.76 6.58 2.56 6.74 2.44 6.54 2.44 6.47 2.24 6.41 2.44 6.2 2.44" fill="#fff"/><polygon points="7.36 2.44 7.53 2.56 7.47 2.76 7.63 2.63 7.8 2.76 7.74 2.56 7.9 2.44 7.7 2.44 7.63 2.24 7.57 2.44 7.36 2.44" fill="#fff"/><polygon points="1.57 3.44 1.74 3.56 1.68 3.76 1.84 3.63 2.01 3.76 1.95 3.56 2.11 3.44 1.91 3.44 1.84 3.24 1.78 3.44 1.57 3.44" fill="#fff"/><polygon points="2.73 3.44 2.9 3.56 2.84 3.75 3 3.63 3.17 3.75 3.11 3.56 3.27 3.43 3.07 3.43 3 3.24 2.94 3.44 2.73 3.44" fill="#fff"/><polygon points="3.9 3.43 4.06 3.55 4 3.75 4.17 3.63 4.33 3.75 4.27 3.55 4.43 3.43 4.23 3.43 4.16 3.23 4.1 3.43 3.9 3.43" fill="#fff"/><polygon points="5.05 3.43 5.22 3.55 5.16 3.75 5.33 3.63 5.49 3.75 5.43 3.55 5.59 3.43 5.39 3.43 5.33 3.23 5.26 3.43 5.05 3.43" fill="#fff"/><polygon points="6.22 3.43 6.38 3.55 6.32 3.75 6.49 3.63 6.65 3.75 6.59 3.55 6.75 3.43 6.55 3.43 6.49 3.23 6.42 3.43 6.22 3.43" fill="#fff"/><polygon points="7.38 3.42 7.54 3.55 7.48 3.75 7.65 3.62 7.81 3.74 7.75 3.55 7.92 3.42 7.71 3.42 7.65 3.23 7.58 3.42 7.38 3.42" fill="#fff"/><polygon points="1.56 4.44 1.73 4.56 1.67 4.76 1.83 4.63 2 4.76 1.94 4.56 2.1 4.44 1.9 4.44 1.83 4.24 1.77 4.44 1.56 4.44" fill="#fff"/><polygon points="2.72 4.43 2.89 4.56 2.83 4.75 2.99 4.63 3.16 4.75 3.1 4.55 3.26 4.43 3.06 4.43 2.99 4.24 2.93 4.43 2.72 4.43" fill="#fff"/><polygon points="3.88 4.43 4.05 4.55 3.99 4.75 4.15 4.63 4.32 4.75 4.26 4.55 4.42 4.43 4.22 4.43 4.15 4.23 4.09 4.43 3.88 4.43" fill="#fff"/><polygon points="5.04 4.43 5.21 4.55 5.15 4.75 5.31 4.63 5.48 4.75 5.42 4.55 5.58 4.43 5.38 4.43 5.31 4.23 5.25 4.43 5.04 4.43" fill="#fff"/><polygon points="6.2 4.43 6.37 4.55 6.31 4.75 6.47 4.62 6.64 4.75 6.58 4.55 6.74 4.42 6.54 4.43 6.47 4.23 6.41 4.43 6.2 4.43" fill="#fff"/><polygon points="7.37 4.42 7.53 4.55 7.47 4.74 7.63 4.62 7.8 4.74 7.74 4.54 7.9 4.42 7.7 4.42 7.63 4.22 7.57 4.42 7.37 4.42" fill="#fff"/><polygon points="2.14 2.94 2.31 3.06 2.25 3.26 2.41 3.13 2.58 3.26 2.52 3.06 2.68 2.94 2.48 2.94 2.41 2.74 2.35 2.94 2.14 2.94" fill="#fff"/><polygon points="3.3 2.94 3.47 3.06 3.41 3.25 3.57 3.13 3.74 3.25 3.68 3.06 3.84 2.93 3.64 2.93 3.57 2.74 3.51 2.94 3.3 2.94" fill="#fff"/><polygon points="4.46 2.93 4.63 3.05 4.57 3.25 4.73 3.13 4.9 3.25 4.84 3.05 5 2.93 4.8 2.93 4.73 2.73 4.67 2.93 4.46 2.93" fill="#fff"/><polygon points="5.62 2.93 5.79 3.05 5.73 3.25 5.89 3.13 6.06 3.25 6 3.05 6.16 2.93 5.96 2.93 5.89 2.73 5.83 2.93 5.62 2.93" fill="#fff"/><polygon points="6.78 2.93 6.95 3.05 6.89 3.25 7.05 3.13 7.22 3.25 7.16 3.05 7.32 2.93 7.12 2.93 7.05 2.73 6.99 2.93 6.78 2.93" fill="#fff"/><polygon points="2.14 3.94 2.31 4.06 2.25 4.25 2.41 4.13 2.58 4.25 2.52 4.06 2.68 3.93 2.48 3.94 2.41 3.74 2.35 3.94 2.14 3.94" fill="#fff"/><polygon points="3.3 3.93 3.47 4.05 3.41 4.25 3.57 4.13 3.74 4.25 3.67 4.05 3.84 3.93 3.63 3.93 3.57 3.73 3.51 3.93 3.3 3.93" fill="#fff"/><polygon points="4.46 3.93 4.63 4.05 4.57 4.25 4.73 4.13 4.9 4.25 4.84 4.05 5 3.93 4.8 3.93 4.73 3.73 4.67 3.93 4.46 3.93" fill="#fff"/><polygon points="5.62 3.93 5.79 4.05 5.73 4.25 5.89 4.13 6.06 4.25 6 4.05 6.16 3.93 5.96 3.93 5.89 3.73 5.83 3.93 5.62 3.93" fill="#fff"/><polygon points="6.78 3.92 6.95 4.05 6.89 4.25 7.05 4.12 7.22 4.24 7.16 4.05 7.32 3.92 7.12 3.92 7.05 3.73 6.99 3.92 6.78 3.92" fill="#fff"/></svg>