<svg xmlns="http://www.w3.org/2000/svg" viewBox="0 0 831 347" enable-background="new 0 0 831 347"><g opacity=".3"><path d="m261 48h-179c-2.2 0-4-1.8-4-4s1.8-4 4-4h179c2.2 0 4 1.8 4 4s-1.8 4-4 4"/></g><g fill="#251b3f"><path d="m819.2 290h-225.7c-2.2 0-4-1.8-4-4s1.8-4 4-4h225.7c2.1 0 3.8-1.7 3.8-3.8v-266.4c0-2.1-1.7-3.8-3.8-3.8h-246.4c-2.1 0-3.8 1.7-3.8 3.8v186.2c0 2.2-1.8 4-4 4s-4-1.8-4-4v-186.2c0-6.5 5.3-11.8 11.8-11.8h246.3c6.5 0 11.8 5.3 11.8 11.8v266.3c.1 6.6-5.2 11.9-11.7 11.9"/><circle cx="796.7" cy="24.2" r="6.1"/><circle cx="778.4" cy="24.2" r="6.1"/><circle cx="760.2" cy="24.2" r="6.1"/><path d="m809.4 48h-227c-2.2 0-4-1.8-4-4s1.8-4 4-4h227c2.2 0 4 1.8 4 4s-1.8 4-4 4"/><path d="m700.8 83.1h-14.8c-2.2 0-4-1.8-4-4s1.8-4 4-4h14.8c2.2 0 4 1.8 4 4s-1.8 4-4 4"/></g><g fill="#fca326"><path d="m668 83.1h-84.8c-2.2 0-4-1.8-4-4s1.8-4 4-4h84.8c2.2 0 4 1.8 4 4s-1.8 4-4 4"/><path d="m807.8 83.1h-24.4c-2.2 0-4-1.8-4-4s1.8-4 4-4h24.4c2.2 0 4 1.8 4 4s-1.8 4-4 4"/></g><g opacity=".3"><path d="m765.3 83.1h-47.1c-2.2 0-4-1.8-4-4s1.8-4 4-4h47.1c2.2 0 4 1.8 4 4s-1.8 4-4 4"/></g><g fill="#251b3f"><path d="m701.2 111.8h-117.6c-2.2 0-4-1.8-4-4s1.8-4 4-4h117.5c2.2 0 4 1.8 4 4s-1.7 4-3.9 4"/><path d="m810.2 111.8h-91.5c-2.2 0-4-1.8-4-4s1.8-4 4-4h91.5c2.2 0 4 1.8 4 4s-1.8 4-4 4"/></g><g opacity=".3"><path d="m649.2 140.5h-66.3c-2.2 0-4-1.8-4-4s1.8-4 4-4h66.3c2.2 0 4 1.8 4 4s-1.8 4-4 4"/></g><path d="m723.2 140.5h-56.3c-2.2 0-4-1.8-4-4s1.8-4 4-4h56.3c2.2 0 4 1.8 4 4s-1.8 4-4 4" fill="#fc6d26"/><g fill="#fca326"><path d="m767.2 140.5h-26.3c-2.2 0-4-1.8-4-4s1.8-4 4-4h26.3c2.2 0 4 1.8 4 4s-1.8 4-4 4"/><path d="m624 169.2h-40.7c-2.2 0-4-1.8-4-4s1.8-4 4-4h40.7c2.2 0 4 1.8 4 4s-1.8 4-4 4"/></g><path d="m698.9 169.2h-56.3c-2.2 0-4-1.8-4-4s1.8-4 4-4h56.3c2.2 0 4 1.8 4 4s-1.8 4-4 4" fill="#fc6d26"/><path d="m807.9 169.2h-91.3c-2.2 0-4-1.8-4-4s1.8-4 4-4h91.3c2.2 0 4 1.8 4 4s-1.8 4-4 4" fill="#251b3f"/><g fill="#fc6d26"><path d="m644 227.2h-56.7c-2.2 0-4-1.8-4-4s1.8-4 4-4h56.7c2.2 0 4 1.8 4 4s-1.8 4-4 4"/><path d="m678.9 227.2h-16.3c-2.2 0-4-1.8-4-4s1.8-4 4-4h16.3c2.2 0 4 1.8 4 4s-1.8 4-4 4"/></g><g opacity=".3"><path d="m807.9 227.2h-32.3c-2.2 0-4-1.8-4-4s1.8-4 4-4h32.3c2.2 0 4 1.8 4 4s-1.8 4-4 4"/></g><path d="m757.9 227.2h-61.3c-2.2 0-4-1.8-4-4s1.8-4 4-4h61.3c2.2 0 4 1.8 4 4s-1.8 4-4 4" fill="#fca326"/><g opacity=".3"><path d="m624 256.2h-28.7c-2.2 0-4-1.8-4-4s1.8-4 4-4h28.7c2.2 0 4 1.8 4 4s-1.8 4-4 4"/></g><path d="m807.9 256.2h-165.3c-2.2 0-4-1.8-4-4s1.8-4 4-4h165.3c2.2 0 4 1.8 4 4s-1.8 4-4 4" fill="#fc6d26"/><g opacity=".3"><path d="m698.9 198.2h-115.7c-2.2 0-4-1.8-4-4s1.8-4 4-4h115.6c2.2 0 4 1.8 4 4s-1.7 4-3.9 4"/></g><path d="m787.9 198.2h-18.5c-2.2 0-4-1.8-4-4s1.8-4 4-4h18.5c2.2 0 4 1.8 4 4s-1.8 4-4 4" fill="#fca326"/><path d="m751.3 198.2h-34.8c-2.2 0-4-1.8-4-4s1.8-4 4-4h34.8c2.2 0 4 1.8 4 4s-1.8 4-4 4" fill="#251b3f"/><path d="m397.4 206.4c0-.2-.1-.3-.3-.4-2.1-.3-4.3-.6-6.4-1-1.3-.2-2.2-.9-2.6-2.2-.5-1.6-1.2-3.2-1.9-4.8-.5-1.2-.4-2.4.5-3.4 1.3-1.7 2.7-3.3 4-5 .1-.1.1-.1.2-.2-2.2-3-4.7-5.6-7.6-7.9-.1 0-.1.1-.2.1-.1 0-.1 0-.2.1-1.7 1.3-3.5 2.6-5.2 3.9-.2.2-.5.3-.7.4-.8.3-1.7.3-2.6-.2-1.5-.7-3-1.4-4.5-2-1.4-.5-2.1-1.5-2.2-3-.2-2.1-.5-4.3-.7-6.4 0 0 0-.1 0-.1l-.1.1c0 0 0 0 0-.1-3.6-.5-7.3-.6-11-.2-.1.7-.2 1.4-.3 2.1-.2 1.5-.4 3-.7 4.6-.1.9-.5 1.6-1.2 2.1l-.6.4c-.2.1-.3.2-.5.2-1.6.5-3.1 1.1-4.6 1.8-.2.1-.4.2-.7.2-1 .2-1.9 0-2.7-.7-1.7-1.3-3.3-2.7-5-4-.1-.1-.1-.1-.2-.2 0 0-.1.1-.1.1-2.9 2.2-5.5 4.7-7.8 7.5.7.9 1.3 1.8 2 2.7.7.9 1.3 1.8 2 2.7.4.5.6 1 .6 1.6l-.4 1.8c-.8 1.6-1.5 3.3-2.2 4.9-.2.6-.6 1.1-1 1.4 0 0-.1 0-.1 0-.2.1-.4.2-.6.3-.3.1-.6.2-.9.2-2.1.2-4.3.5-6.4.7-.1 0-.1 0-.1 0-.1 0-.1 0-.2 0-.5 3.7-.6 7.3-.2 11 1.1.2 2.2.3 3.3.5 1.1.2 2.2.3 3.3.5 1.3.2 2.3 1 2.7 2.3.5 1.6 1.1 3.1 1.8 4.7.6 1.2.4 2.4-.5 3.5-1.3 1.7-2.7 3.4-4 5-.1.2-.1.3 0 .4.6.7 1.2 1.5 1.8 2.2 1.5 1.8 3.2 3.4 5 5 .1.1.1.1.2.1.3.2.4.3.6.3 0 0 0 0 .1 0 .5-.4 1-.7 1.5-1.1 1.3-.9 2.6-1.9 3.8-2.8.3-.2.6-.4.8-.5.8-.3 1.6-.3 2.4.1 1.6.8 3.2 1.5 4.9 2.1 1.2.5 1.9 1.4 2 2.7.3 2.2.5 4.3.7 6.5 0 .2 0 .3.2.3 2.8.4 5.6.4 8.4.3.2 0 .5 0 .7 0 .2 0 .3 0 .5 0 .4 0 .8 0 1.1 0 0 0 0 0 .1 0 0 0 .1 0 .1 0 .1-.9.3-1.7.4-2.6.2-1.4.4-2.8.6-4.1.2-1 .7-1.7 1.5-2.2.2-.1.4-.2.7-.3 1.5-.5 3-1.1 4.5-1.7 1.3-.6 2.5-.4 3.7.5 1.6 1.3 3.3 2.6 4.9 4 .1.1.2.1.3 0 1.1-.8 2.1-1.7 3.1-2.7.1-.1.3-.2.4-.3.9-.8 1.7-1.7 2.6-2.6.2-.2.4-.4.5-.5.1-.1.2-.3.3-.4.3-.4.7-.7 1-1.1-.2-.2-.3-.4-.5-.6-1.2-1.6-2.3-3.2-3.5-4.8-.8-1.1-.9-2.3-.3-3.6.7-1.4 1.4-2.8 1.9-4.3.4-1.1 1.1-1.8 2-2.1.2-.1.5-.1.7-.2 2.1-.2 4.2-.5 6.3-.7.1 0 .2 0 .3 0 0 0 0 0 0-.1.1-.1.2-.2.2-.3.2-1.9.4-3.8.4-5.6.1-1.8 0-3.3-.1-4.9" fill="#fc6d26"/><path d="m360.2 251.9c-2.2 0-4.2-.1-6.1-.4-2-.3-3.5-1.8-3.7-3.9l-.2-1.8c-.2-1.4-.3-2.8-.5-4.2-1.4-.6-2.8-1.2-4.2-1.8l-5 3.7c-1.1.8-2.5 1-3.7.6-.9-.3-1.5-.7-1.8-1-.1-.1-.2-.2-.3-.3-1.9-1.6-3.8-3.5-5.4-5.4-.5-.6-.9-1.1-1.4-1.7l-.5-.6c-1.3-1.6-1.3-3.8 0-5.4 1-1.3 2-2.5 3-3.8l.8-1c-.7-1.5-1.2-2.9-1.7-4.3-.7-.1-1.3-.2-1.9-.3l-4.3-.6c-1.8-.3-3.2-1.7-3.4-3.6-.4-4-.3-8 .2-12 .2-1.7 1.5-3.1 3.2-3.4.2-.1.4-.1.6-.1 1.5-.2 3-.3 4.6-.5l1.4-.2c.6-1.4 1.2-2.9 1.9-4.3v-.1c-.4-.5-.7-1-1.1-1.5l-2.6-3.5c-1.1-1.5-1-3.5.1-4.9 2.4-3 5.2-5.7 8.3-8 .1-.1.2-.2.3-.3 0 0 .1 0 .1-.1 1.4-1 3.4-1 4.8.1l1.8 1.4c1.1.9 2.1 1.7 3.2 2.6 1.3-.6 2.7-1.1 4.2-1.6.1-.9.3-1.9.4-2.8l.5-3.5c.3-1.8 1.7-3.2 3.6-3.4 3.9-.4 7.8-.3 11.6.2.5 0 .9.1 1.3.3 1.1.4 2 1.3 2.4 2.5.1.3.2.6.2.9l.2 1.7c.2 1.5.3 3 .5 4.5 1.4.5 2.8 1.1 4.2 1.8 1.6-1.1 3.1-2.3 4.7-3.5.2-.2.5-.3.7-.4 1.4-.9 3.3-.8 4.6.3 3.1 2.6 5.9 5.5 8.3 8.6 1.1 1.4 1.1 3.4 0 4.8-.1.1-.2.2-.3.3l-1.2 1.6c-.8 1-1.7 2.1-2.5 3.1.6 1.4 1.2 2.9 1.7 4.3 1.9.3 3.9.6 5.8.9h.1c2.2.3 3.7 2 3.8 4.2 0 .5 0 1 .1 1.5.1 1.1.1 2.2.1 3.3 0 1.9-.1 3.9-.4 6.2-.1.9-.5 1.8-1.1 2.4-.6.7-1.5 1.3-2.5 1.4l-2.2.3c-1.3.1-2.7.3-4 .5-.5 1.3-1.1 2.7-1.8 4.2.7.9 1.4 1.9 2.1 2.8l1.7 2.3c1.1 1.5 1 3.5-.1 4.9-.2.3-.5.6-.8.9-.1.1-.2.2-.3.3v.1c-.1.1-.2.2-.3.4-.2.2-.3.3-.5.5l-.1.1c-.8.9-1.8 1.9-2.8 2.9-.1.1-.2.2-.4.3l-.1.1c-1 .9-2.1 1.9-3.3 2.8-.8.6-1.7.9-2.7.8-.9 0-1.8-.4-2.6-1-.9-.7-1.7-1.4-2.6-2.1-.7-.6-1.4-1.1-2.1-1.7-1.4.7-2.8 1.2-4.2 1.6-.1.8-.2 1.6-.4 2.4l-.6 3.8c-.2 1.3-1 2.4-2.1 2.9-.3.2-.6.3-.9.4 0 0-.4.1-.8.2-.3 0-.7 0-1 .1-.1 0-.2 0-.3 0h-.1c-.1 0-.3 0-.4 0-.2 0-.4 0-.6 0h-.1c-1.2.2-2.2.2-3.1.2m-1.9-5.2c0 .1 0 0 0 0m-.3-2.9c1.3.1 2.6.1 4 0l.1-.6c.2-1 .3-2 .5-3.1.4-2.2 1.6-3.9 3.5-5 .4-.2.9-.5 1.5-.7 1.3-.4 2.6-.9 4-1.6 2.7-1.3 5.5-.9 7.9 1 .8.6 1.5 1.2 2.3 1.8.1.1.2.1.3.2.2-.2.3-.3.5-.5l.1-.1c.1-.1.2-.2.3-.3.7-.6 1.4-1.3 2-2-.7-.9-1.3-1.8-2-2.7-1.7-2.4-2-5.2-.6-7.8.7-1.4 1.3-2.7 1.7-3.8.8-2.2 2.3-3.8 4.4-4.6.1 0 .1-.1.2-.1.4-.1.9-.3 1.5-.3 1.2-.1 2.4-.3 3.6-.4.1-.8.1-1.6.1-2.3 0-.5 0-1.1 0-1.6-1.2-.2-2.4-.4-3.6-.6-2.8-.5-4.8-2.2-5.7-4.9-.5-1.5-1.1-3-1.7-4.4-1.2-2.6-.8-5.3 1-7.5.7-.9 1.5-1.8 2.2-2.8-.9-1-1.8-1.9-2.7-2.8-1 .8-2 1.5-3 2.2-.4.3-.9.6-1.5.8-.1 0-.1 0-.2.1-1.9.7-3.9.6-5.8-.4-1.4-.7-2.7-1.3-4.1-1.8-2.7-1-4.5-3.3-4.8-6.3-.1-1.1-.2-2.2-.4-3.3-1.3-.1-2.7-.1-4-.1v.3c-.2 1.1-.3 2.1-.5 3.2-.3 1.8-1.2 3.4-2.6 4.5-.1.1-.2.2-.4.3l-.6.4c-.1.1-.2.1-.4.2-.3.1-.6.3-1.1.5-1.5.5-2.9 1-4.2 1.6-.5.3-1 .4-1.3.4 0 0-.1 0-.1 0-2.2.5-4.3 0-6.2-1.4-.9-.7-1.8-1.5-2.7-2.2-1 .9-1.9 1.8-2.8 2.7l.7.9c.5.7 1 1.3 1.4 2 .7 1 1.2 2.2 1.4 3.4.1.5 0 .9-.1 1.4l-.4 1.8c-.1.3-.2.6-.3.9-.7 1.5-1.4 3.1-2 4.6-.5 1.3-1.3 2.4-2.4 3.2 0 0-.1 0-.1.1-.1.1-.2.1-.3.2-.3.2-.8.4-1.2.6 0 0-.1 0-.1 0-.6.2-1.2.3-1.8.4l-1.8.2c-.6.1-1.1.1-1.7.2-.1 1.3-.1 2.6-.1 4l1.1.2c.8.1 1.6.2 2.4.4 2.8.5 5 2.3 5.9 5 .4 1.4 1 2.8 1.7 4.2 1.2 2.6.8 5.4-1 7.7l-1 1.2c-.4.5-.8 1-1.2 1.5.9 1 1.8 1.9 2.7 2.8l2.9-2.1c.5-.4 1.1-.7 1.7-.9 0 0 .1 0 .1 0 1.8-.7 3.9-.6 5.7.3 1.5.7 3 1.4 4.5 2 2.6 1 4.2 3.1 4.5 5.9-.2 1.4 0 2.5.1 3.7m-2.9-.2c0 0 0 0 0 0m-21.5-8.9c0 0 0 0 0 0m.1-4.6c0 0 0 0 0 0m62.8-20.1c0 0 0 0 0 0m-3-3.5c0 0 0 0 0 0m-71.3-5.2c-.1.1-.2.1-.3.2.1-.1.2-.2.3-.2m7.5-.8c0 0 0 0 0 0m45.6-18.2c0 0 0 0 0 0m-36.1-1.6" fill="#251b3f"/><path d="m459 280.5c-1.9-1-3.8-2.1-5.8-3.1-1-.5-1.6-1.4-1.7-2.4 0-.2-.1-.4-.1-.6.1-1.7 0-3.4-.1-5 0-.2 0-.4 0-.7l.1-.6c.2-.8.7-1.5 1.5-2 1.3-.8 2.7-1.6 4-2.5.6-.4 1.2-.7 1.8-1.1-1.1-3.6-2.6-7-4.6-10.3-.1 0-.1 0-.1 0v-.2c-2.1.6-4.2 1.2-6.3 1.9-1.4.4-2.6.2-3.7-.9-1.1-1.2-2.4-2.4-3.7-3.5-.8-.6-1.2-1.4-1.2-2.3 0-.3 0-.5.1-.8.5-2.2 1-4.3 1.6-6.5 0-.1 0-.2 0-.3 0-.1 0-.2.1-.2-3.4-1.8-6.8-3.1-10.5-4-.1.1-.1.2-.2.3-1 1.9-2.1 3.8-3.1 5.7-.7 1.2-1.7 1.8-3 1.8-1.8 0-3.5 0-5.3.1-1.3.1-2.4-.4-3-1.6-1.2-1.9-2.3-3.8-3.5-5.7-.1-.2-.3-.3-.5-.2-1.5.6-3 1.1-4.5 1.7-1.8.7-3.5 1.6-5.2 2.6-.1.1-.2.2-.2.3 0 0 0 0-.1 0 0 .1.1.2.1.3.6 2.1 1.2 4.2 1.8 6.2.1.3.1.5.1.7 0 1-.3 1.9-1.2 2.7-1.2 1.1-2.3 2.3-3.3 3.5-.9 1.1-2.1 1.5-3.5 1.1-2-.5-3.9-.9-5.9-1.4-.3-.1-.5-.1-.8-.2-.3.5-.5 1.1-.8 1.7 0 .1-.1.1-.1.2 0 .1-.1.2-.1.3-1.3 2.7-2.3 5.4-3.1 8.3 0 .1 0 .2.2.3 1.9 1 3.8 2.1 5.7 3.1 1.3.7 2 1.8 1.9 3.3-.1 1.6 0 3.3.1 4.9 0 .2 0 .5 0 .7-.1 1-.6 1.8-1.5 2.4-1.2.8-2.4 1.5-3.7 2.2-.8.5-1.5.9-2.3 1.4 0 .1 0 .1 0 .1v.1c.1.4.3.8.5 1.3 0 .1.1.2.1.3 0 .1.1.2.1.4 1 2.8 2.2 5.5 3.7 8.1.1.2.2.1.4.1 2.1-.6 4.3-1.3 6.4-1.9 1.2-.4 2.4-.1 3.3.8 1.3 1.3 2.6 2.5 3.9 3.7.7.6 1.1 1.4 1.1 2.2 0 .3 0 .6-.1 1-.4 1.6-.8 3.2-1.2 4.7-.1.6-.3 1.2-.4 1.8 0 0 .1 0 .1.1 0 .2.2.2.5.4.1 0 .1.1.2.1 2.1 1.1 4.4 2 6.7 2.7.9.3 1.8.5 2.8.8.1 0 .3.1.4-.1 1-1.9 2.1-3.9 3.2-5.8.7-1.2 1.7-1.9 3.1-1.8 1.7.1 3.4 0 5.1-.1 1.4-.1 2.5.4 3.2 1.6.6 1 1.2 1.9 1.8 2.9.6 1 1.2 1.9 1.8 2.9 3.6-1.1 7-2.6 10.3-4.6 0-.1 0-.2-.1-.2 0 0 0-.1 0-.1-.6-2.1-1.3-4.2-1.9-6.3-.1-.3-.1-.6-.2-.9 0-.9.3-1.6.9-2.3 1.3-1.3 2.6-2.6 3.8-4l1.6-1.1c.5-.1 1.1-.1 1.7 0 1.1.3 2.2.5 3.3.8 1.1.3 2.2.5 3.3.8 1.8-3.3 3.1-6.8 4-10.5.4.5.3.5.2.4" fill="#fc6d26"/><path d="m414 313.5c-.4 0-.9-.1-1.3-.2l-.7-.2c-.7-.2-1.4-.4-2.2-.6-2.5-.8-4.9-1.8-7.2-3-.1 0-.2-.1-.4-.2-.4-.2-1.2-.7-1.9-1.7-.6-.9-.9-2.1-.6-3.2l1.5-6.2c-1.2-1.1-2.4-2.2-3.5-3.3-1.4.4-2.8.8-4.2 1.2l-1.8.5c-2 .6-3.9-.2-5-1.9-1.5-2.6-2.8-5.4-4-8.7-.1-.2-.1-.3-.2-.4 0-.1-.1-.2-.1-.3-.1-.2-.1-.3-.2-.4-.1-.3-.3-.7-.4-1 0 0 0-.1 0-.1-.1-.2-.1-.5-.1-.7 0-.2 0-.4 0-.6 0-1.4.7-2.7 1.9-3.4l3.4-2c.7-.4 1.5-.9 2.2-1.3-.1-1.5-.2-3.1-.1-4.6-.9-.5-1.7-.9-2.6-1.4-1-.5-2-1.1-2.9-1.6-1.1-.6-1.8-1.5-2.1-2.6-.2-.7-.3-1.5-.1-2.2.7-2.8 1.8-5.8 3.3-9 .1-.1.1-.3.2-.4 0-.1.1-.2.1-.3.1-.1.1-.3.2-.5.2-.4.4-.9.6-1.3.9-1.6 2.7-2.4 4.5-2l3 .7c1.1.3 2.2.5 3.3.8 1.2-1.4 2.2-2.5 3.3-3.5-.4-1.4-.8-2.7-1.2-4.1l-.6-2.1c-.3-1-.1-2.1.3-3 .4-.8 1-1.4 1.8-1.9 2.1-1.2 3.9-2.1 5.7-2.9 1-.4 2.1-.8 3.1-1.2.5-.2 1-.4 1.5-.5 2-.8 4.2 0 5.3 1.9l.1.1c1 1.7 2.1 3.5 3.2 5.2 1.6-.1 3.2-.2 4.8-.1.7-1.3 1.4-2.5 2-3.7l.9-1.7c.1-.1.1-.2.2-.4.9-1.6 2.7-2.3 4.4-1.9 3.9 1 7.7 2.5 11.4 4.4 1.5.8 2.3 2.5 2.1 4.1 0 .3-.1.6-.1.9l-.1.3c-.5 1.9-.9 3.7-1.4 5.6 1.2 1.1 2.4 2.2 3.5 3.3 1.5-.5 3-.9 4.5-1.3l1.6-.5c1.3-.4 2.8-.1 3.8.8.2.1.3.3.5.5.2.2.3.4.4.6 2.1 3.5 3.7 7.2 5 11.1.5 1.7-.2 3.6-1.7 4.6l-3.1 1.9c-.8.5-1.6 1-2.4 1.5.1 1.6.2 3.1.1 4.7 1.3.7 2.7 1.4 4 2.2l1.4.8c0 0 0 0 0 0l.3.2c1.6.9 2.4 2.7 1.9 4.5-1 3.9-2.5 7.7-4.4 11.4-.9 1.6-2.7 2.4-4.5 2l-4.3-1c-.6-.2-1.2-.3-1.9-.5l-.1.1c-1.1 1.2-2.2 2.4-3.3 3.5l.4 1.3c.4 1.5.9 3 1.4 4.6.1.2.1.5.2.8.3 1.6-.4 3.3-1.9 4.2-3.5 2.1-7.2 3.7-11.2 4.9-1.7.5-3.6-.2-4.6-1.7l-2.3-3.8c-.4-.6-.7-1.2-1.1-1.8-1.6.1-3.1.2-4.8.1l-.7 1.3c-.8 1.4-1.5 2.8-2.3 4.2-.8 1.3-2.2 2.1-3.7 2.1m.9-7.9c0 .1 0 .1 0 0m-6.7-2.3c1.3.6 2.6 1.1 3.9 1.5.3-.5.6-1.1.9-1.6l.9-1.6c1.4-2.6 3.9-4 6.8-3.9 1.7 0 3.2 0 4.6-.1 2.9-.2 5.4 1 6.9 3.5.4.7.9 1.4 1.3 2.1l.6 1c1.3-.5 2.6-1.1 3.8-1.7-.2-.6-.4-1.2-.5-1.8l-.5-1.7c-.2-.6-.3-1.2-.3-1.8 0-.1 0-.1 0-.2 0-2 .7-3.9 2.2-5.2 1.2-1.2 2.4-2.4 3.6-3.7.2-.2.4-.4.7-.6l1.6-1.1c.4-.3.9-.5 1.3-.6 1.2-.3 2.4-.3 3.6 0 .8.2 1.6.4 2.4.6l1.2.3c.6-1.3 1.1-2.6 1.5-3.9-1.1-.6-2.1-1.2-3.2-1.7-2.1-1.2-3.5-3.1-3.8-5.4l3.9-.7-4 .6c0-.2-.1-.6-.1-1.1.1-1.5 0-3-.1-4.6 0-.5 0-1 0-1.2 0-.1 0-.3.1-.4l.1-.6c0-.1 0-.2.1-.4.5-1.8 1.6-3.3 3.3-4.3.9-.6 1.9-1.1 2.8-1.7l.4-.2c-.5-1.3-1.1-2.7-1.8-3.9-1.1.3-2.2.6-3.3 1-2.9.9-5.7.1-7.7-2-1-1.1-2.1-2.1-3.3-3.1-1.6-1.4-2.5-3.1-2.6-5.2 0-.1 0-.1 0-.2 0-.6.1-1.1.2-1.7.3-1.3.6-2.6.9-3.8-1.3-.6-2.6-1.1-3.9-1.5-.6 1.1-1.2 2.1-1.8 3.2-1.4 2.5-3.8 4-6.6 3.9-1.6 0-3.3 0-4.9.1-2.8.2-5.2-1-6.7-3.4-.7-1.1-1.3-2.1-2-3.2-.5.2-1.1.4-1.6.6-.7.3-1.5.6-2.2 1 .4 1.2.7 2.5 1.1 3.7.2.6.2 1 .3 1.5 0 .1 0 .2 0 .3.1 2.2-.8 4.2-2.5 5.8-.9.8-1.9 1.8-2.9 3.1-1.9 2.2-4.6 3.1-7.5 2.5-1.2-.3-2.3-.6-3.5-.8-.6 1.4-1.2 2.7-1.6 4 .1.1.2.1.3.2.9.5 1.8 1 2.7 1.5 2.7 1.4 4.1 4 4 7-.1 1.5 0 3 .1 4.4.1.5 0 1 0 1.3 0 0 0 .1 0 .2-.2 2.2-1.4 4.1-3.3 5.4-.9.6-1.8 1.1-2.7 1.7l-.6.4c.5 1.4 1.1 2.7 1.7 3.9 1.2-.4 2.4-.7 3.6-1.1 2.7-.8 5.4-.1 7.3 1.9 1.1 1.2 2.4 2.4 3.7 3.5 1.5 1.3 2.4 3.1 2.5 5.1 0 0 0 .1 0 .1 0 .6-.1 1.3-.2 1.9l-1.2 2.9m-14.6-12.6c0 0 0 0 0 0m-4.2-1.6c0 0 0 0 0 0m-.1-24.4c0 0 0 0 0 0m19.7-26.4c0 0 0 0 0 0" fill="#251b3f"/><circle cx="360.6" cy="210.9" r="9.2" fill="#fca326"/><path d="m360.6 224.1c-.1 0-.2 0-.3 0-3.5-.1-6.8-1.5-9.3-4.1-5.1-5.3-4.9-13.7.4-18.7 2.5-2.5 5.9-3.7 9.4-3.7 3.5.1 6.8 1.5 9.3 4.1 5.1 5.3 4.9 13.7-.4 18.7-2.4 2.4-5.6 3.7-9.1 3.7m0-18.5c-1.4 0-2.7.5-3.6 1.5-2.1 2-2.2 5.3-.1 7.4 1 1 2.3 1.6 3.7 1.6 1.4 0 2.7-.5 3.7-1.5 2.1-2 2.2-5.3.1-7.4-1-1-2.3-1.6-3.7-1.6 0 0 0 0-.1 0" fill="#251b3f"/><circle cx="422.3" cy="272.5" r="9.2" fill="#fca326"/><g fill="#251b3f"><path d="m422.3 285.8c-1.6 0-3.2-.3-4.8-.9-3.3-1.3-5.9-3.8-7.3-7-1.4-3.2-1.5-6.8-.3-10.1 1.3-3.3 3.8-5.9 7-7.3 6.7-3 14.5.1 17.5 6.7 1.4 3.2 1.5 6.8.3 10.1-1.3 3.3-3.8 5.9-7 7.3-1.7.8-3.6 1.2-5.4 1.2m0-18.5c-.7 0-1.4.2-2.1.5-1.3.6-2.3 1.6-2.8 2.9-.5 1.3-.5 2.7.1 4 .6 1.3 1.6 2.3 2.9 2.8 1.3.5 2.7.5 4-.1 1.3-.6 2.3-1.6 2.8-2.9s.5-2.7-.1-4c-.6-1.3-1.6-2.3-2.9-2.8-.6-.3-1.3-.4-1.9-.4"/><path d="m516.2 178.9c-10.6 0-21.1 2-30.8 5.9-2.8-26.8-14.8-49.1-34.8-64.6-17.4-13.5-40.5-21.2-63.5-21.2s-45.1 8-62.4 22.6c-16.5 13.8-27.5 32.7-31.4 53.3-37.5 1.3-67.6 32.2-67.6 70 0 2.2 1.8 4 4 4s4-1.8 4-4c0-34.2 27.8-62 62-62 .8 0 1.6-.2 2.3-.7l1-.7c.9-.6 1.5-1.6 1.7-2.7 3.1-19.8 13.4-37.9 29.1-51.1 15.9-13.3 36.2-20.7 57.2-20.7 40.6 0 86.1 25.4 90.5 81.2-8.6 4.5-16.5 10.4-23.2 17.6-1.5 1.6-1.4 4.2.2 5.7 1.6 1.5 4.2 1.4 5.7-.2 14.4-15.5 34.7-24.5 55.9-24.5 41.9 0 76.1 34.1 76.1 76.1s-34.1 76.1-76 76.1h-377.5c-2.2 0-4 1.8-4 4s1.8 4 4 4h377.5c46.4 0 84.1-37.7 84.1-84.1s-37.8-84-84.1-84"/></g><circle cx="44" cy="44" r="40" fill="#fca326"/><path d="M44,88C19.7,88,0,68.3,0,44S19.7,0,44,0s44,19.7,44,44S68.3,88,44,88z M44,8C24.1,8,8,24.1,8,44
			s16.1,36,36,36s36-16.1,36-36S63.9,8,44,8z" fill="#251b3f"/><circle cx="171.7" cy="44" r="40" fill="#fca326"/><path d="m171.7 88c-24.3 0-44-19.7-44-44s19.7-44 44-44 44 19.7 44 44-19.8 44-44 44m0-80c-19.9 0-36 16.1-36 36s16.1 36 36 36 36-16.1 36-36-16.2-36-36-36" fill="#251b3f"/><circle cx="300" cy="44" r="40" fill="#fca326"/><g fill="#251b3f"><path d="m300 88c-24.3 0-44-19.7-44-44s19.7-44 44-44 44 19.7 44 44-19.7 44-44 44m0-80c-19.9 0-36 16.1-36 36s16.1 36 36 36 36-16.1 36-36-16.1-36-36-36"/><path d="m60.1 31.1c-1.6-1.5-4.2-1.4-5.7.2l-15.9 17.1-5.2-4.7c-1.6-1.5-4.2-1.3-5.6.3-1.5 1.6-1.3 4.2.3 5.6l8.1 7.3c.1.1.2.2.3.2.1.1.2.1.3.2.1.1.3.1.4.2.1 0 .2.1.3.1.2.1.3.1.5.1.1 0 .1 0 .2.1.2 0 .5.1.7.1.3 0 .5 0 .8-.1.1 0 .2-.1.2-.1.2 0 .4-.1.5-.2.1 0 .2-.1.3-.1.2-.1.3-.2.5-.3.1-.1.2-.2.3-.2.1-.1.3-.2.4-.3l18.6-20c1.4-1.5 1.3-4-.3-5.5"/><path d="m187.7 31.1c-1.6-1.5-4.2-1.4-5.7.2l-15.9 17.1-5.2-4.7c-1.6-1.5-4.2-1.3-5.6.3-1.5 1.6-1.3 4.2.3 5.6l8.1 7.3c.1.1.2.2.3.2.1.1.2.1.3.2.1.1.3.1.4.2.1 0 .2.1.2.1.2.1.3.1.5.1.1 0 .1 0 .2.1.2 0 .5.1.7.1.3 0 .5 0 .8-.1.1 0 .2-.1.2-.1.2 0 .4-.1.5-.2.1 0 .2-.1.3-.1.2-.1.3-.2.5-.3.1-.1.2-.2.3-.2.1-.1.3-.2.4-.3l18.6-20c1.5-1.5 1.4-4-.2-5.5"/><path d="m316.1 31.1c-1.6-1.5-4.2-1.4-5.7.2l-15.9 17.1-5.2-4.7c-1.6-1.5-4.2-1.3-5.6.3-1.5 1.6-1.3 4.2.3 5.6l8.1 7.3c.1.1.2.2.3.2.1.1.2.1.3.2.1.1.3.1.4.2.1 0 .2.1.3.1.2.1.3.1.5.1.1 0 .1 0 .2.1.2 0 .5.1.7.1.3 0 .5 0 .8-.1.1 0 .2-.1.2-.1.2 0 .4-.1.5-.2.1 0 .2-.1.3-.1.2-.1.3-.2.5-.3.1-.1.2-.2.3-.2.1-.1.3-.2.4-.3l18.6-20c1.4-1.5 1.3-4-.3-5.5"/></g></svg>