<svg enable-background="new 0 0 135 38" viewBox="0 0 135 38" xmlns="http://www.w3.org/2000/svg"><path d="m23.351.155h.475v37.689h-.475z"/><path d="m.449 12.771 8.643 6.277-8.643 6.263v2.115l11.515-8.378-11.515-8.359z"/><path d="m.26 8.809 14.378 10.239-14.378 10.324v2.113l17.255-12.437-17.255-12.322z"/><path d="m.449 16.962 2.886 2.087-2.886 2.084v2.089l5.764-4.173-5.764-4.207z"/><path d="m30.166 1.766h4.941c1.435 0 3.068 0 3.96 1.241.544.74.762 1.676.762 2.589 0 2.329-1.393 2.851-2.068 3.112.48.174.936.326 1.458.893.523.566 1.001 1.436 1.001 2.655 0 1.262-.545 2.721-1.588 3.351-1.11.675-2.219.675-3.525.675h-4.941zm3.069 5.855h1.023c.87 0 2.328 0 2.328-1.806 0-1.698-1.458-1.698-2.089-1.698h-1.262zm0 6.158h1.567c1.37 0 2.176-.478 2.176-1.916 0-1.893-1.479-1.893-2.198-1.893h-1.545z"/><path d="m44.114 11.406c-.022 1.459-.044 3.026 1.437 3.026 1.284 0 1.435-1.153 1.523-1.85l2.676.174c-.217 1-.805 3.742-4.265 3.742-3.286 0-4.461-2.589-4.461-5.44 0-.696.088-2.394.805-3.7.761-1.37 2.177-2.044 3.635-2.044 1.87 0 3.023 1.045 3.503 1.958.761 1.457.783 2.829.783 4.134zm2.807-1.719c.022-.588.065-2.394-1.392-2.394-1.35 0-1.371 1.632-1.392 2.394z"/><path d="m53.666 5.553v1.458c.435-.892 1.002-1.697 2.677-1.697.413 0 1.631 0 2.371 1.131.435.674.435 1.72.435 2.785v7.051h-2.981v-7.051c0-.956-.086-1.587-1.022-1.587-1.327 0-1.327 1.045-1.327 2.35v6.288h-2.982v-10.728z"/><path d="m68.725 1.766v14.515h-2.764v-1.762c-.306.783-.763 1.916-2.46 1.916-2.873 0-3.416-3.331-3.416-5.464 0-.849 0-5.571 3.546-5.571 1.437 0 1.872.697 2.154 1.132v-4.766zm-2.94 8.291c0-.957 0-2.676-1.305-2.676-1.154 0-1.306 1.393-1.306 3.112 0 2.09 0 3.873 1.285 3.873 1.326 0 1.326-1.632 1.326-2.415z"/><path d="m70.268 1.679h3.023v2.96h-3.023zm3.003 14.603h-2.981v-10.728h2.981z"/><path d="m83.932 5.727c-.173-.044-.369-.086-.653-.086-.346 0-.937.042-1.132.978.807.827.807 1.915.807 2.155 0 2.154-1.829 3.219-3.873 3.219-.653 0-1.047-.108-1.416-.195-.696.392-.696.805-.696.892 0 .588.631.631 1.784.719 2.437.13 3.178.174 3.941.718.825.565 1.107 1.457 1.107 2.371 0 3.329-3.503 3.569-5.244 3.569-.914 0-4.395 0-4.395-2.547 0-1.326 1.067-1.761 1.741-2.001-.349-.173-1.393-.653-1.393-1.85 0-1.306 1.132-1.959 1.849-2.371-.652-.349-1.588-.872-1.588-2.677 0-2.546 2.155-3.307 4.004-3.307 1.177 0 1.785.26 2.305.5.156-1.111.393-2.134 2.025-2.134.414 0 .61.066.827.11zm-7.291 11.38c0 .762.763 1.088 2.374 1.088 1.545 0 2.198-.326 2.198-1.13 0-.829-.719-1.024-1.175-1.045-.35-.044-2.067-.153-2.46-.196-.347.175-.937.479-.937 1.283m1.22-8.378c0 .653.065 1.655 1.023 1.655.782 0 .979-.588.979-1.719 0-1.327-.326-1.742-.935-1.742-.784 0-1.067.566-1.067 1.806"/><path d="m91.877 10.906c0 3.438-1.241 5.592-4.373 5.592-3.092 0-4.354-2.133-4.354-5.592 0-3.351 1.175-5.593 4.374-5.593 3.177 0 4.353 2.242 4.353 5.593m-4.373-3.504c-.958 0-1.263.871-1.263 3.504 0 2.851.39 3.503 1.283 3.503.871 0 1.264-.63 1.264-3.503 0-2.764-.352-3.504-1.264-3.504z"/><path d="m93.159 8.012c.109-.522.348-1.588 1.742-2.306.305-.153 1.001-.457 2.066-.457 1.287 0 2.286.457 2.83 1.13.653.785.653 2.091.653 3.309v3.155c0 2.154.021 2.59.195 3.439h-1.525c-.108-.784-.132-1.132-.132-1.893-.432.847-1.128 2.197-3.087 2.197-1.871 0-3.156-1.239-3.156-3.221 0-.891.282-1.761.807-2.393.802-.958 2.132-1.372 3.894-1.372.609 0 1.023.044 1.413.088v-.457c0-.761 0-2.656-2.002-2.656-1.674 0-2 1.242-2.132 1.699zm4.46 2.808c-2.197 0-3.199.849-3.199 2.589 0 1.11.545 1.85 1.788 1.85 1.065 0 1.759-.609 2.195-1.371.524-.979.524-1.785.457-2.937-.477-.088-.738-.131-1.241-.131"/><path d="m102.667 5.553h1.48v1.654c.282-.631.871-1.959 2.765-1.959 1.218 0 2.174.567 2.567 1.436.305.654.326 1.567.326 2.764v6.833h-1.589v-6.615c0-1.785 0-3.09-1.653-3.09-1.283 0-2.306.892-2.306 3.917v5.788h-1.59z"/><path d="m119.53 1.766v14.516h-1.435v-1.502c-.283.522-.957 1.718-2.873 1.718-3.417 0-3.765-3.829-3.765-5.44 0-3.72 1.589-5.723 3.81-5.723 1.826 0 2.393 1.132 2.675 1.676v-5.245zm-1.588 8.139c0-.544 0-1.458-.608-2.308-.502-.695-1.176-.935-1.785-.935-1.937 0-2.328 2.177-2.328 4.177 0 2.482.565 4.332 2.414 4.332.676 0 1.328-.327 1.741-.87.521-.653.566-1.544.566-2.612z"/><path d="m35.933 21.711 4.135 14.517h-3.242l-.74-2.983h-4.07l-.717 2.983h-2.938l4.352-14.517zm-.434 9.032-1.458-5.918-1.415 5.918z"/><path d="m48.532 21.71v14.517h-2.765v-1.763c-.304.784-.761 1.915-2.458 1.915-2.873 0-3.418-3.33-3.418-5.462 0-.85 0-5.569 3.548-5.569 1.437 0 1.872.693 2.155 1.13v-4.768zm-2.938 8.293c0-.958 0-2.675-1.307-2.675-1.153 0-1.305 1.39-1.305 3.111 0 2.089 0 3.873 1.284 3.873 1.328 0 1.328-1.634 1.328-2.417z"/><path d="m52.731 31.351c-.022 1.458-.045 3.029 1.436 3.029 1.284 0 1.435-1.156 1.524-1.852l2.676.174c-.218 1-.805 3.743-4.266 3.743-3.285 0-4.461-2.591-4.461-5.441 0-.695.087-2.394.805-3.7.762-1.37 2.176-2.044 3.635-2.044 1.871 0 3.024 1.042 3.503 1.958.761 1.459.784 2.83.784 4.133zm2.807-1.718c.022-.588.064-2.393-1.393-2.393-1.35 0-1.371 1.632-1.392 2.393z"/><path d="m59.454 21.711h2.981v14.517h-2.981z"/><path d="m64.022 28.611c.086-.61.26-1.892 1.784-2.763.762-.434 1.654-.588 2.547-.588 1.13 0 2.305.283 3.11 1.132.655.652.698 1.872.698 3.175v4.267c0 1.826.066 2.023.173 2.394h-2.764c-.13-.435-.152-.675-.152-1.653-.391.694-1.087 1.87-2.959 1.87-1.435 0-2.807-.828-2.807-2.937 0-2.983 2.329-3.766 5.528-3.941v-.412c0-.938 0-1.914-1.067-1.914-1 0-1.197.802-1.284 1.655zm5.158 2.48c-1.72.22-2.438.631-2.438 2.026 0 .758.283 1.348 1.001 1.348.37 0 .697-.176.979-.59.413-.609.458-1.282.458-2.261z"/><path d="m73.704 21.625h3.025v2.959h-3.025zm3.005 14.603h-2.981v-10.731h2.981z"/><path d="m86.414 21.71v14.517h-2.766v-1.763c-.304.784-.759 1.915-2.458 1.915-2.872 0-3.416-3.33-3.416-5.462 0-.85 0-5.569 3.547-5.569 1.436 0 1.872.693 2.155 1.13v-4.768zm-2.938 8.293c0-.958 0-2.675-1.307-2.675-1.152 0-1.305 1.39-1.305 3.111 0 2.089 0 3.873 1.284 3.873 1.328 0 1.328-1.634 1.328-2.417z"/><path d="m90.613 31.351c-.023 1.458-.045 3.029 1.435 3.029 1.283 0 1.436-1.156 1.524-1.852l2.675.174c-.218 1-.804 3.743-4.265 3.743-3.285 0-4.461-2.591-4.461-5.441 0-.695.087-2.394.804-3.7.763-1.37 2.178-2.044 3.634-2.044 1.875 0 3.026 1.042 3.505 1.958.762 1.459.783 2.83.783 4.133zm2.806-1.718c.021-.588.065-2.393-1.394-2.393-1.348 0-1.368 1.632-1.39 2.393z"/><path d="m97.748 21.71h3.939c1.328 0 2.676 0 3.569 1.047.805.935.868 2.111.868 2.548 0 2.347-1.608 2.978-2.217 3.219.651.174 2.721.762 2.721 3.656 0 2.284-1.198 4.048-4.83 4.048h-4.05zm1.762 6.163h1.937c1.154 0 2.852-.112 2.852-2.398 0-2.305-1.808-2.305-2.612-2.305h-2.177zm0 6.897h2.241c1.807 0 3.047-.741 3.047-2.677 0-.61-.131-1.59-1.023-2.221-.695-.5-1.413-.543-2.373-.543h-1.892z"/><path d="m108.344 27.959c.11-.525.348-1.59 1.743-2.309.304-.154.999-.457 2.065-.457 1.286 0 2.286.457 2.831 1.134.65.783.65 2.088.65 3.306v3.156c0 2.154.023 2.59.196 3.439h-1.522c-.109-.783-.131-1.133-.131-1.894-.436.849-1.131 2.196-3.09 2.196-1.87 0-3.155-1.238-3.155-3.218 0-.891.282-1.766.806-2.395.803-.957 2.131-1.37 3.893-1.37.61 0 1.024.043 1.418.086v-.458c0-.76 0-2.656-2.005-2.656-1.674 0-2 1.242-2.133 1.698zm4.464 2.805c-2.2 0-3.2.849-3.2 2.59 0 1.11.544 1.851 1.783 1.851 1.065 0 1.765-.611 2.198-1.372.523-.978.523-1.783.459-2.935-.48-.091-.742-.134-1.24-.134"/><path d="m117.853 25.496h1.481v1.655c.281-.632.869-1.958 2.763-1.958 1.218 0 2.175.566 2.568 1.436.303.655.326 1.568.326 2.764v6.834h-1.589v-6.614c0-1.785 0-3.094-1.653-3.094-1.284 0-2.307.895-2.307 3.92v5.788h-1.589z"/><path d="m128.798 21.71v9.12l3.829-5.334h1.741l-2.807 3.79 3.179 6.941h-1.72l-2.527-5.702-1.695 2.33v3.372h-1.588v-14.517z"/></svg>
