<svg xmlns="http://www.w3.org/2000/svg" x="0" y="0" version="1.1" viewBox="0 0 652.2 142" xml:space="preserve"><defs></defs><path d="M101.4 22.6l-6.8 67.1-1.6 14.7c-.3 1.4-1.2 2.7-3.8 3.4-.7.2-1.4.4-2.2.5-1.4.3-2.8-.8-2.6-2.3l5.9-77c.2-2.1-1.4-3.9-3.5-4h-.4c-2.1-.2-3.9 1.4-4 3.5l-6 78.8c-.1 1.7-1.4 3-3.1 3.2-1 .1-2.1.2-3.1.3-1.5.1-2.8-1.1-2.8-2.6l1.6-82c.1-2.1-1.6-3.8-3.6-3.9H65c-2.1-.1-3.8 1.6-3.9 3.6l-1.6 82.6c-.1 1.6-1.4 2.9-2.9 2.9h-3.3c-1.6 0-2.9-1.3-3-2.9l-1.9-76.8c-.1-2.1-1.8-3.7-3.9-3.6h-.4c-2.1.1-3.7 1.8-3.6 3.9l1.9 76.2c0 1.5-1.2 2.7-2.8 2.6l-3-.3c-1.7-.2-3-1.5-3.1-3.2l-5.8-77.9c-.2-2.1-2-3.6-4-3.5h-.4c-2.1.2-3.6 2-3.5 4l5.7 76.1c.1 1.5-1.2 2.6-2.6 2.3l-2.4-.6c-2.7-.8-3.5-2.1-3.8-3.6-.2-2.1-1.4-14-1.5-14.4-1.5-14.6-6.7-65.8-6.7-65.8-.1-4.9-.2-7 4.8-9.5 13.5-6.7 30.7-.3 30.7-.3l8.9-3.4C64.8 6.4 82 6.8 94.6 14.1c2.4 1.4 7.2 3.7 6.8 8.5M92.2 119s0 3.4-.1 5.1c-.1 2.1-.1 4.6-4.2 5.6-21.6 5.7-44.3 5.5-66 0-4.2-1.1-4.1-3.3-4.2-5.3-.1-1.7-.1-5.4-.1-5.5-.1-2.1 1.5-3.3 3.6-2.9 22.2 4.4 45.1 4.4 67.3 0 2.1-.4 3.8.9 3.7 3m15.9-105.1C105.5 10.3 97 5.9 91 3.5 75.5-2.1 57.9-.6 44.1 5.7l-1.8-.5C30.6 1.4 16.7 3.4 8.7 7.7c-5 2.7-7.3 4.9-8.1 8.4-.5 1.4-.8 3.9-.4 8.4 0 .2 0 .3.1.5 1.2 14.2 9 84.2 9.1 84.3 1.3 13.9-.7 19.5 2.1 23.2.2.3.4.5.6.7 1.2 1.2 2.9 2.2 5.6 3.2.5.2 1.1.4 1.6.6 2.2.8 4.6 1.5 7.1 2.1 9.4 2.2 19.4 2.8 28.5 2.8s19.2-.6 28.5-2.8c2.5-.6 5-1.3 7.1-2.1.5-.2 1.1-.4 1.6-.6 2.7-1.1 4.5-2.1 5.6-3.2.2-.2.4-.4.6-.7 2.8-3.7.9-9.3 2.1-23.2 0-.1 7.9-70.1 9.1-84.3 0-.2 0-.4.1-.5.7-7.5-.5-9.1-1.5-10.6M178.5 106.6c-4.6 0-8.9-.8-13-2.3s-7.6-3.7-10.6-6.7c-3-2.9-5.3-6.6-7.1-10.9-1.7-4.4-2.6-9.4-2.6-15.2 0-5.6.9-10.6 2.7-15.1 1.8-4.4 4.3-8.2 7.4-11.3 3.1-3.1 6.7-5.4 10.9-7 4.1-1.6 8.5-2.4 13.2-2.4 4.4 0 8.4.9 12 2.6 1.3.6 2.4 1.2 3.5 1.9 3.2 1.9 3.8 6.3 1.3 9l-.3.3c-1.9 2.1-5.1 2.6-7.5 1.1-.6-.4-1.3-.8-2-1.1-2-.9-4.3-1.4-7-1.4-5.5 0-10.1 2-13.7 6-3.6 4-5.4 9.6-5.4 16.8 0 7.5 1.7 13.3 5 17.2 3.3 4 7.8 6 13.5 6 3.1 0 5.8-.6 8.2-1.7.9-.4 1.7-.9 2.5-1.4 2.4-1.6 5.6-1.2 7.6.9l.3.3c2.5 2.6 2 6.8-1 8.9-4.8 3.7-10.9 5.5-17.9 5.5M282.4 98.1V44.7c0-3.9 3.2-7.1 7.1-7.1h31.7c3.1 0 5.5 2.5 5.5 5.5v.6c0 3.1-2.5 5.5-5.5 5.5h-23.9v14.5h19c3.4 0 6.2 2.8 6.2 6.1v.6c0 3.4-2.8 6.2-6.2 6.2h-19v17h25.1c3.1 0 5.5 2.5 5.5 5.5v.6c0 3.1-2.5 5.5-5.5 5.5h-33c-3.8.1-7-3.1-7-7.1M340.2 98.1V44.7c0-3.9 3.2-7.1 7.1-7.1h32c3.1 0 5.5 2.5 5.5 5.5v.6c0 3.1-2.5 5.5-5.5 5.5h-24.1v14.5h19.2c3.4 0 6.1 2.7 6.1 6.1v.6c0 3.4-2.7 6.2-6.2 6.2h-19.2v21.5c0 3.9-3.2 7.1-7.1 7.1h-.7c-3.9.1-7.1-3.1-7.1-7.1M210.6 98.1V44.7c0-3.9 3.2-7.1 7.1-7.1h.7c3.9 0 7.1 3.2 7.1 7.1v19h27.2v-19c0-3.9 3.2-7.1 7.1-7.1h.7c3.9 0 7.1 3.2 7.1 7.1v53.4c0 3.9-3.2 7.1-7.1 7.1h-.7c-3.9 0-7.1-3.2-7.1-7.1V76.6h-27.2v21.5c0 3.9-3.2 7.1-7.1 7.1h-.7c-3.9.1-7.1-3.1-7.1-7.1M563.2 106.6c-4.6 0-8.9-.8-13-2.3s-7.6-3.7-10.6-6.7c-3-2.9-5.3-6.6-7.1-10.9-1.7-4.4-2.6-9.4-2.6-15.2 0-5.6.9-10.6 2.7-15.1 1.8-4.4 4.3-8.2 7.4-11.3 3.1-3.1 6.7-5.4 10.9-7 4.1-1.6 8.5-2.4 13.2-2.4 4.4 0 8.4.9 12 2.6 1.3.6 2.4 1.2 3.5 1.9 3.2 1.9 3.8 6.3 1.3 9l-.3.3c-1.9 2.1-5.1 2.6-7.5 1.1-.6-.4-1.3-.8-2-1.1-2-.9-4.3-1.4-7-1.4-5.5 0-10.1 2-13.7 6-3.6 4-5.4 9.6-5.4 16.8 0 7.5 1.7 13.3 5 17.2 3.3 4 7.8 6 13.5 6 3.1 0 5.8-.6 8.2-1.7.9-.4 1.7-.9 2.5-1.4 2.4-1.6 5.6-1.2 7.6.9l.3.3c2.5 2.6 2 6.8-1 8.9-4.8 3.7-10.9 5.5-17.9 5.5M595.2 98.1V44.7c0-3.9 3.2-7.1 7.1-7.1h.7c3.9 0 7.1 3.2 7.1 7.1v19h27.2v-19c0-3.9 3.2-7.1 7.1-7.1h.7c3.9 0 7.1 3.2 7.1 7.1v53.4c0 3.9-3.2 7.1-7.1 7.1h-.7c-3.9 0-7.1-3.2-7.1-7.1V76.6h-27.2v21.5c0 3.9-3.2 7.1-7.1 7.1h-.7c-3.9.1-7.1-3.1-7.1-7.1M396.2 98.1V44.7c0-3.9 3.2-7.1 7.1-7.1h.7c3.9 0 7.1 3.2 7.1 7.1v21.2h.4l21.6-26.2c1.1-1.4 2.8-2.2 4.6-2.2h.8c5.1 0 7.9 5.9 4.7 9.8l-14 17.1 19.4 31c2.7 4.3-.4 9.8-5.5 9.8h-.8c-2.3 0-4.4-1.2-5.5-3.1l-16.3-27.3L411 85v13.1c0 3.9-3.2 7.1-7.1 7.1h-.7c-3.8.1-7-3.1-7-7.1M488.6 94.2c5.3 0 9.5-2.1 12.6-6.2 3.1-4.1 4.7-9.8 4.7-17.1 0-7.2-1.6-12.7-4.7-16.7s-7.3-6-12.6-6c-5.4 0-9.7 2-12.8 6s-4.6 9.5-4.6 16.7c0 7.3 1.5 12.9 4.6 17.1 3.1 4.1 7.3 6.2 12.8 6.2m0 12.4c-4.8 0-9.3-.8-13.3-2.5-4-1.6-7.5-4-10.4-7.1s-5.1-6.8-6.7-11.2c-1.6-4.4-2.4-9.4-2.4-15 0-5.5.8-10.5 2.4-14.8 1.6-4.4 3.8-8 6.7-11.1 2.9-3 6.3-5.3 10.4-6.9s8.4-2.3 13.3-2.3c4.7 0 9.1.8 13.1 2.4s7.5 3.9 10.4 6.9 5.1 6.6 6.7 11c1.6 4.4 2.4 9.3 2.4 14.8 0 5.6-.8 10.6-2.4 15-1.6 4.4-3.8 8.1-6.7 11.2-2.9 3.1-6.3 5.4-10.4 7.1-4 1.7-8.4 2.5-13.1 2.5"></path></svg>
