<svg id="Layer_1" data-name="Layer 1" xmlns="http://www.w3.org/2000/svg" viewBox="0 0 400 400"><path d="M200,0C89.72,0,0,89.72,0,200S89.72,400,200,400s200-89.72,200-200S310.28,0,200,0Zm0,391.82C94.23,391.82,8.18,305.77,8.18,200S94.23,8.18,200,8.18,391.82,94.23,391.82,200,305.77,391.82,200,391.82Z"/><path d="M347.24,205.09A12.39,12.39,0,0,0,335.12,215a2.94,2.94,0,0,0-1.72-.55H275.79V188.07h25.73a12.21,12.21,0,0,0,12.2-12.2V151.39a12.37,12.37,0,1,0-6,0v24.48a6.21,6.21,0,0,1-6.2,6.2H275.79V169.59a3,3,0,0,0-3-3H127.21a3,3,0,0,0-3,3v12.48H98.48a6.21,6.21,0,0,1-6.2-6.2V151.4a12.39,12.39,0,1,0-6,0v24.48a12.21,12.21,0,0,0,12.2,12.2h25.73v26.39H64.75a12.37,12.37,0,1,0,0,6h59.46v26.39H98.48a12.21,12.21,0,0,0-12.2,12.2V280a12.37,12.37,0,1,0,6,0V259.05a6.21,6.21,0,0,1,6.2-6.2h25.73v17.94a3,3,0,0,0,3,3h36.54v18.35a6.21,6.21,0,0,1-6.2,6.2h-8.79a12.22,12.22,0,0,0-12.2,12.2v16.8a12.37,12.37,0,1,0,6,0v-16.8a6.21,6.21,0,0,1,6.2-6.2h8.79a12.21,12.21,0,0,0,12.2-12.2V273.79H197v29a12.37,12.37,0,1,0,6,0v-29h27.25v18.35a12.21,12.21,0,0,0,12.2,12.2h8.79a6.21,6.21,0,0,1,6.2,6.2v16.8a12.36,12.36,0,1,0,6,0v-16.8a12.22,12.22,0,0,0-12.2-12.2h-8.79a6.21,6.21,0,0,1-6.2-6.2V273.79h36.54a3,3,0,0,0,3-3V252.85h25.73a6.21,6.21,0,0,1,6.2,6.2V280a12.37,12.37,0,1,0,6,0V259.05a12.21,12.21,0,0,0-12.2-12.2H275.79V220.46H333.4a3,3,0,0,0,1.72-.55,12.36,12.36,0,1,0,12.12-14.82Zm-42.89-65.68a6.37,6.37,0,1,1,6.37,6.37A6.38,6.38,0,0,1,304.35,139.41ZM89.28,145.78a6.38,6.38,0,1,1,4.1-1.5A6.38,6.38,0,0,1,89.28,145.78ZM52.76,223.83a6.37,6.37,0,1,1,6.37-6.37A6.37,6.37,0,0,1,52.76,223.83ZM95.65,292a6.37,6.37,0,1,1-6.37-6.37A6.37,6.37,0,0,1,95.65,292Zm50.28,47.34a6.37,6.37,0,1,1-6.37-6.37A6.38,6.38,0,0,1,145.93,339.32Zm60.44-24.51a6.37,6.37,0,1,1-6.37-6.37A6.38,6.38,0,0,1,206.37,314.81Zm3.12-74.64A1.5,1.5,0,0,1,208,242H192a1.5,1.5,0,0,1-1.47-1.8L193.65,225a11.62,11.62,0,1,1,12.7,0ZM260.44,333a6.37,6.37,0,1,1-6.37,6.37A6.37,6.37,0,0,1,260.44,333Zm50.28-47.34a6.37,6.37,0,1,1-6.37,6.37A6.37,6.37,0,0,1,310.72,285.61Zm36.52-61.78a6.37,6.37,0,1,1,6.36-6.37A6.38,6.38,0,0,1,347.24,223.83Z"/><path d="M109.78,91a12.37,12.37,0,0,0,12-9.36h35.79a6.21,6.21,0,0,1,6.2,6.2v14.49a56.42,56.42,0,0,0-20.27,43.32v10a3,3,0,0,0,3,3h27.11a3,3,0,0,0,3-3V144.45a23.41,23.41,0,0,1,46.82,0v11.13a3,3,0,0,0,3,3h27.11a3,3,0,0,0,3-3v-10a56.42,56.42,0,0,0-20.27-43.32V87.82a6.21,6.21,0,0,1,6.2-6.2h35.79a12.37,12.37,0,1,0,0-6H242.45a12.21,12.21,0,0,0-12.2,12.2V97.93A56.14,56.14,0,0,0,203,89.19V61a12.37,12.37,0,1,0-6,0V89.19a56.14,56.14,0,0,0-27.25,8.74V87.82a12.21,12.21,0,0,0-12.2-12.2H121.76a12.36,12.36,0,1,0-12,15.36ZM290.22,72.25a6.37,6.37,0,1,1-6.37,6.37A6.38,6.38,0,0,1,290.22,72.25ZM193.63,49A6.37,6.37,0,1,1,200,55.34,6.38,6.38,0,0,1,193.63,49ZM109.78,72.25a6.37,6.37,0,1,1-6.37,6.37A6.38,6.38,0,0,1,109.78,72.25Z"/></svg>