<?xml version="1.0" encoding="UTF-8"?>
<svg width="473px" height="171px" viewBox="0 0 473 171" version="1.1" xmlns="http://www.w3.org/2000/svg" xmlns:xlink="http://www.w3.org/1999/xlink">
    <title>Combined Shape</title>
    <g id="Page-1" stroke="none" stroke-width="1" fill="none" fill-rule="evenodd">
        <g id="ESA_logo_2020_Deep" transform="translate(-170.000000, -170.000000)" fill="#002937">
            <path d="M172.709,234.976 C184.26,189.464 230.512,161.929 276.024,173.472 C314.58,183.256 340.236,217.944 340.158177,255.99 C340.127,278.949 325.029,292.973 304.742,292.973 C290.736,292.973 276.179,286.603 271.417,270.571 C266.655,254.54 272.753,236.307 281.641,231.196 C288.773,227.095 299.742,226.998 307.392,235.417 C313.128,241.729 312.167,248.367 312.167,248.367 L312.167,248.367 L277.691,248.367 L277.691,265.391 L337.095,265.391 C337.095,265.391 339.555,233.507 316.381,216.883 C293.217,200.266 259.835,211.842 250.305,236.642 C240.76,261.443 247.845,296.868 286.14,310.089 C298.83,314.468 310.277,313.803 319.912,310.957 C299.561,334.863 266.698,346.531 234.21,338.291 C188.697,326.745 161.166,280.487 172.709,234.976 Z M495.648,210.003 C513.745,207.292 528.34,214.054 534.547,220.537 C539.414,225.671 542.659,233.778 542.386,241.612 L542.386,241.612 L522.391,241.612 C522.2,237.452 520.31,226.755 506.449,225.938 C491.137,225.034 485.291,234.7 489.971,241.344 C493.086,245.767 502.666,246.478 509.966,247.828 L509.966,247.828 L510.911619,247.992262 C511.859044,248.156791 512.81147,248.322515 513.765105,248.492986 L514.719001,248.66517 L514.719001,248.66517 L515.67286,248.841308 C526.320943,250.833192 536.80443,253.712152 541.843,262.423 C548.604,274.309 544.376,287.493 540.498,293.222 C533.099,304.148 520.882,307.953 506.118,307.953 C494.877,307.953 485.148,305.531 476.587,298.647 C470.814,294.005 465.113,283.893 465.113,274.309 L465.113,274.309 L486.183,274.309 C487.533,281.871 490.542,287.453 497.533,289.71 C507.34,292.875 522.162,290.153 523.271,280.591 C524.327,271.492 517.976,270.349 509.423,268.641 C502.349,267.229 485.104,265.124 475.914,258.096 C468.619,252.418 464.835,241.612 468.619,229.727 C472.947,217.021 485.915,211.348 495.648,210.003 Z M401.341,209.725 C416.635,207.293 431.663,212.89 440.246,222.699 C448.288,231.89 455.735,249.365 454.297,265.391 L454.297,265.391 L395.391,265.391 L395.391,248.367 L429.443,248.367 C430.058,239.338 422.245,228.465 409.608,228.465 C395.643,228.465 387.557,238.883 387.557,256.474 C387.557,269.178 390.257,278.092 397.552,283.493 C402.419,287.01 413.493,291.6 423.226,284.576 C427.549,281.336 429.443,277.009 430.249,273.764 L430.249,273.764 L454.297,273.764 C453.758,281.336 446.462,293.488 439.167,298.9 C426.199,308.356 409.17,310.245 395.668,305.116 C366.755,294.304 361.89,266.704 364.321,250.262 C365.62,241.479 372.645,214.288 401.341,209.725 Z M599.15,209.108 C611.097,209.108 616.741,209.766 624.078,213.423 C632.497,217.62 636.894,225.355 637.869,230.455 C639.224,237.538 639.759,248.187 639.759,252.612 L639.758428,282.095479 C639.73954,287.260609 639.281615,297.873173 642.73,304.767 L642.73,304.767 L620.034,304.767 C618.95,303.41 617.601,298.277 617.334,296.927 C611.626,302.151 601.363,307.467 589.154,307.467 C579.584,307.467 572.402,305.301 565.642,300.167 C555.646,292.333 554.567,280.444 555.918,273.959 C559.701,257.474 575.504,252.02 587.264,250.451 C589.117731,250.203677 591.162859,249.990872 593.279069,249.755736 L594.028722,249.671727 C603.306015,248.621899 613.661968,247.022237 615.173,240.184 C617.071,231.59 608.819,226.35 599.089,226.35 C589.145,226.35 582.65,231.886 582.65,241.261 L582.65,241.261 L561.038,241.261 C561.865,215.353 581.193,209.108 599.15,209.108 Z M616.518,257.747 C613.329023,260.822625 608.060836,262.0791 602.510299,263.145301 L601.556348,263.326518 C593.429954,264.856189 584.922068,266.179489 581.592,272.336 C575.869,282.915 584.91,291.131 598.145,289.393 C608.176,288.074 613.473,283.931 615.435,278.287 C616.867,274.162 616.518,259.907 616.518,257.747 Z M210.889,247.179 C205.531,247.179 201.189,251.522 201.189,256.879 C201.189,262.235 205.531,266.578 210.889,266.578 C216.246,266.578 220.588,262.235 220.588,256.879 C220.588,251.522 216.246,247.179 210.889,247.179 Z" id="Combined-Shape"></path>
        </g>
    </g>
</svg>