<svg id="レイヤー_1" data-name="レイヤー 1" xmlns="http://www.w3.org/2000/svg" viewBox="0 0 915.87 325.32"><path d="M419.38,34.72c-3.32-3-8.69-4.75-14-4.77a23.07,23.07,0,1,0,0,46.13,22.09,22.09,0,0,0,17.55-8V55.33c-2.25,4-6.8,9-10.91,10.73a16.65,16.65,0,0,1-6.64,1.42,14.46,14.46,0,1,1,0-28.92,14.5,14.5,0,0,1,10.14,4.24c2.72,2.68,7,8.23,9,10.43A28.34,28.34,0,0,0,473.7,33.82c0-15.82-12.77-28.95-28.42-28.95-9.11,0-17.12,4.79-22.34,11.51V33.57c4-10.91,11.12-19.61,22.34-19.61a19.75,19.75,0,1,1-12.65,34.83c-4.21-3.33-8.88-10.36-13.25-14.07"/><path d="M233.07,82.49h62.76v17.64s-3.21-7-10-7H256.77V123.6h31.5v16.14s-1-5.15-8.62-5.16H256.77v41.59c0,6.13,6.58,9.76,6.58,9.76H233.48s6.27-3.19,6.27-9.76V93.33C239.76,86.38,233.07,82.49,233.07,82.49Z"/><path d="M390.86,82.53H422.8s-7.16,3.42-7.16,9v97c0,32.8-32.59,38.18-34.29,38.08,2.78-1.8,16.32-13.44,16.37-38.08v-97C397.73,86.27,390.86,82.53,390.86,82.53Z"/><path d="M427.29,82.51h32s-7.11,3.45-7.11,9.15v84.53c0,6.05,7.11,9.82,7.11,9.82h-32s7.12-3.74,7.12-9.82V91.66C434.41,86,427.29,82.51,427.29,82.51Z"/><path d="M465.73,82.51h70.49l-6,18.79s-1.8-7.9-8.59-7.9H507v82.78c0,5.23,6.88,9.77,6.88,9.77H482.51s6.81-4.08,6.8-9.77V93.4H471.66c-5,0-12.18,9.47-12.18,9.47Z"/><path d="M653.94,82.51H684.8s-6.6,3.53-6.61,9.13v62.64c0,25.45-20.94,33.29-35.43,33.29s-37-7.93-36.94-33.29V91.64c0-5.6-6.8-9.13-6.8-9.13h31.75s-7.07,3.43-7.07,9.13v62.64c0,13.35,8.78,22.09,19.06,22.09s18.13-9.09,18.15-22.09V91.64C660.91,86,653.94,82.51,653.94,82.51Z"/><path d="M353.87,82.51h31.44s-6.68,3.68-6.68,9.24c0,0,0,62.48,0,62.48,0,25.57-21.9,33.61-36.56,33.61-14.4,0-36.95-8.16-36.95-33.61l0-62.48c0-5.59-6.42-9.24-6.42-9.24h31.76s-7.35,3.65-7.35,9.24l0,62.48c0,13.24,8.74,22.37,19,22.42s18.55-9.31,18.55-22.42l0-62.48C360.65,86.15,353.87,82.51,353.87,82.51Z"/><path d="M589.58,99.06s-4.45-7.86-17.33-7.9S552.37,98,552.34,106.8c0,10,7.43,13.81,19,19.41,11,5.33,27.51,12.69,27.46,31.19,0,16.61-14.63,30.48-40.79,30.48-8,0-19.17-2.68-19.17-2.68l-6-19.87c5.53,5.43,15.35,11.27,25.46,11.27,10.45,0,23-6.53,23-17,0-20.23-46.64-16.85-46.64-50.69,0-11.65,8-28.51,35.87-28.51a87.17,87.17,0,0,1,19.1,2.68Z"/><path d="M15.79,318.44V278.9H35.55v3.19H20.72v14.13H33.14v3.19H20.72v19Z"/><path d="M40.62,278.9h4.94v24.39c0,4.46.37,7.5,1.12,9.15,1.09,2.39,3.25,3.59,6.46,3.59q5.27,0,6.81-4.26c.58-1.59.86-4.42.86-8.48V278.9h4.24v24.58a42.89,42.89,0,0,1-.27,5.58q-1.37,10.15-11.88,10.16-8.65,0-11.15-6.57c-.75-1.95-1.13-5-1.13-9.17Z"/><path d="M74.67,278.9h4.94v28.47a82,82,0,0,1-.46,10.32q-1,6.87-6,8.74a17.21,17.21,0,0,1-4.77.89V324.5a6.61,6.61,0,0,0,3.54-1c1.25-1,2.06-2.91,2.44-5.71a52.53,52.53,0,0,0,.29-6.28Z"/><path d="M89.37,318.44V278.9H94.3v39.54Z"/><path d="M108.75,318.44V282.09H99.21V278.9h24.05v3.19h-9.57v36.35Z"/><path d="M125.94,317.64v-4a18.44,18.44,0,0,0,8.71,2.25q4.35,0,6.52-1.88a6.8,6.8,0,0,0,2.17-5.47,7.39,7.39,0,0,0-1.45-4.58,9.38,9.38,0,0,0-2.36-2.17c-.82-.54-1.86-1.16-3.11-1.85a30.44,30.44,0,0,1-7-4.91,9.63,9.63,0,0,1-2.79-7,9.24,9.24,0,0,1,2.87-7.16q3.06-2.76,8.77-2.76a20.14,20.14,0,0,1,7.07,1.12v3.54a17.36,17.36,0,0,0-6.51-1.47,9,9,0,0,0-5.31,1.37,5.48,5.48,0,0,0-2.17,4.8,5.58,5.58,0,0,0,1.9,4.34,32.88,32.88,0,0,0,5.26,3.49,39.15,39.15,0,0,1,5.28,3.4,11.59,11.59,0,0,1,4.24,9.44,11.94,11.94,0,0,1-1.85,6.83q-2.85,4.25-11.18,4.24A23.59,23.59,0,0,1,125.94,317.64Z"/><path d="M153.85,278.9h4.94v24.39c0,4.46.37,7.5,1.12,9.15,1.09,2.39,3.25,3.59,6.46,3.59q5.26,0,6.81-4.26.85-2.38.86-8.48V278.9h4.24v24.58a42.89,42.89,0,0,1-.27,5.58q-1.37,10.15-11.88,10.16-8.65,0-11.15-6.57c-.75-1.95-1.13-5-1.13-9.17Z"/><path d="M225,314.88v3.43a19.62,19.62,0,0,1-6.44.91q-9,0-12.7-5.58-3.28-4.9-3.28-13.72,0-9.74,3.36-15.45,3.69-6.35,13-6.35a15.72,15.72,0,0,1,5.44.88v3.46a15,15,0,0,0-5.34-1.15q-6.41,0-8.87,5.23-2.35,4.93-2.36,13.35,0,7.49,2.25,11.58,2.52,4.56,9.12,4.56A15.88,15.88,0,0,0,225,314.88Z"/><path d="M231.76,318.44V278.9h4.93v36.35h15.12v3.19Z"/><path d="M269.56,278.12q14.19,0,14.19,20.54t-14.29,20.56c-5.37,0-9.17-2-11.43-6.06q-2.94-5.31-2.95-14.74Q255.08,278.11,269.56,278.12Zm-.13,3.19a7.36,7.36,0,0,0-7.32,4.91q-1.85,4.41-1.85,12.22,0,8.26,1.85,12.71a7.91,7.91,0,0,0,14.61,0q1.86-4.47,1.85-12.49t-1.85-12.44A7.39,7.39,0,0,0,269.43,281.31Z"/><path d="M289.91,278.9h4.94v24.39c0,4.46.37,7.5,1.12,9.15q1.63,3.58,6.47,3.59,5.25,0,6.81-4.26.86-2.38.85-8.48V278.9h4.24v24.58a42.89,42.89,0,0,1-.27,5.58q-1.36,10.15-11.88,10.16-8.65,0-11.15-6.57c-.75-1.95-1.13-5-1.13-9.17Z"/><path d="M320.94,318.44V278.9a83.91,83.91,0,0,1,9.52-.78,17.12,17.12,0,0,1,9.2,2.2,15.06,15.06,0,0,1,6.19,8.52,32.35,32.35,0,0,1,1.39,9.84q0,10.79-4.69,15.93a13.22,13.22,0,0,1-6.67,4,22.83,22.83,0,0,1-5.82.64A54.89,54.89,0,0,1,320.94,318.44Zm4.93-2.84a16.81,16.81,0,0,0,3.84.43q7.13,0,10.11-5.47,2.25-4.15,2.25-12.14c0-5.89-1-10.27-3.08-13.17a8.54,8.54,0,0,0-3.7-3.08,13.72,13.72,0,0,0-5.23-.86,27.75,27.75,0,0,0-4.19.32Z"/><path d="M377.61,318.44V282.09h-9.54V278.9h24.05v3.19h-9.57v36.35Z"/><path d="M398,318.44V278.9h20.64v3.19H402.92v13.67H415.5V299H402.92v16.3H419.3v3.19Z"/><path d="M445.56,314.88v3.43a19.62,19.62,0,0,1-6.44.91q-9,0-12.71-5.58-3.27-4.9-3.27-13.72,0-9.74,3.35-15.45,3.7-6.35,12.95-6.35a15.78,15.78,0,0,1,5.45.88v3.46a15,15,0,0,0-5.34-1.15q-6.41,0-8.87,5.23-2.37,4.93-2.36,13.35,0,7.49,2.25,11.58,2.52,4.56,9.12,4.56A15.88,15.88,0,0,0,445.56,314.88Z"/><path d="M452.37,318.44V278.9h4.93v17.26h16.06V278.9h4.93v39.54h-4.93V299.35H457.3v19.09Z"/><path d="M486.74,318.44V278.9h5.66l13.48,27.59a51.76,51.76,0,0,1,2.42,6q-.17-3.23-.16-6.28V278.9h4.23v39.54H507.2l-14.4-29.22a41.92,41.92,0,0,1-2-4.77c0,.46,0,1.17.08,2.11.05,1.22.08,2.27.08,3.14v28.74Z"/><path d="M533.23,278.12q14.19,0,14.19,20.54t-14.3,20.56q-8,0-11.42-6.06-2.94-5.31-3-14.74Q518.75,278.11,533.23,278.12Zm-.13,3.19a7.35,7.35,0,0,0-7.32,4.91q-1.86,4.41-1.85,12.22,0,8.26,1.85,12.71a7.91,7.91,0,0,0,14.61,0q1.85-4.47,1.85-12.49t-1.85-12.44A7.39,7.39,0,0,0,533.1,281.31Z"/><path d="M554.33,318.44V278.9h4.93v36.35h15.13v3.19Z"/><path d="M591,278.12q14.18,0,14.18,20.54t-14.29,20.56q-8,0-11.42-6.06-3-5.31-3-14.74Q576.56,278.11,591,278.12Zm-.14,3.19a7.36,7.36,0,0,0-7.32,4.91q-1.85,4.41-1.85,12.22,0,8.26,1.85,12.71a7.91,7.91,0,0,0,14.61,0q1.86-4.47,1.85-12.49t-1.85-12.44A7.39,7.39,0,0,0,590.9,281.31Z"/><path d="M632.4,298.17h4.93v20.27a46.12,46.12,0,0,1-9,.78,19.4,19.4,0,0,1-9.23-1.88q-6.86-3.75-6.86-17.4,0-11.62,4.75-17c2.78-3.2,7-4.8,12.54-4.8a22.23,22.23,0,0,1,6.65.91v3.43a23.35,23.35,0,0,0-6.59-1.15q-6.5,0-9.31,4.67t-2.87,14.34q0,8.25,2.39,12t8.31,3.7a18.75,18.75,0,0,0,4.29-.51Z"/><path d="M646.26,318.44V278.9h4.93v39.54Z"/><path d="M660.3,318.44V278.9H681v3.19H665.24v13.67h12.57V299H665.24v16.3h16.38v3.19Z"/><path d="M687.09,317.64v-4a18.44,18.44,0,0,0,8.71,2.25q4.35,0,6.52-1.88a6.8,6.8,0,0,0,2.17-5.47,7.39,7.39,0,0,0-1.45-4.58,9.38,9.38,0,0,0-2.36-2.17c-.82-.54-1.86-1.16-3.11-1.85a30.44,30.44,0,0,1-7-4.91,9.63,9.63,0,0,1-2.79-7,9.24,9.24,0,0,1,2.87-7.16q3.06-2.76,8.77-2.76a20.23,20.23,0,0,1,7.08,1.12v3.54a17.44,17.44,0,0,0-6.52-1.47,9,9,0,0,0-5.31,1.37,5.48,5.48,0,0,0-2.17,4.8,5.58,5.58,0,0,0,1.9,4.34,32.88,32.88,0,0,0,5.26,3.49,39.15,39.15,0,0,1,5.28,3.4,11.59,11.59,0,0,1,4.24,9.44,11.94,11.94,0,0,1-1.85,6.83q-2.85,4.25-11.18,4.24A23.59,23.59,0,0,1,687.09,317.64Z"/><path d="M726.25,318.44V278.9h4.93v36.35H746.3v3.19Z"/><path d="M752.87,318.44V278.9h4.93v39.54Z"/><path d="M765.44,318.44l3.46-39.54h6l7.82,26.54a59.11,59.11,0,0,1,1.61,6.49c.4-2.06.89-4.12,1.48-6.2l7.77-26.83h5.8l3.37,39.54h-4.58L795.9,291.5q-.1-1.39-.27-5.77l-.08-1.85q-1.12,4.53-2,7.59l-7.61,27H782l-7.59-27q-.27-.88-2-7.56c-.11,3.6-.26,6.34-.43,8.23l-2.28,26.33Z"/><path d="M809.34,318.44V278.9h4.93v39.54Z"/><path d="M827.62,318.44V282.09h-9.54V278.9h24v3.19h-9.58v36.35Z"/><path d="M848,318.44V278.9h20.64v3.19H852.93v13.67h12.58V299H852.93v16.3h16.38v3.19Z"/><path d="M875.78,318.44V278.9a83.77,83.77,0,0,1,9.51-.78,17.1,17.1,0,0,1,9.2,2.2,15.06,15.06,0,0,1,6.19,8.52,32.35,32.35,0,0,1,1.4,9.84q0,10.79-4.69,15.93a13.25,13.25,0,0,1-6.68,4,22.83,22.83,0,0,1-5.82.64A54.86,54.86,0,0,1,875.78,318.44Zm4.93-2.84a16.66,16.66,0,0,0,3.83.43q7.14,0,10.11-5.47,2.25-4.15,2.25-12.14c0-5.89-1-10.27-3.08-13.17a8.49,8.49,0,0,0-3.7-3.08,13.69,13.69,0,0,0-5.23-.86,27.62,27.62,0,0,0-4.18.32Z"/></svg>