<svg xmlns="http://www.w3.org/2000/svg" viewBox="0 0 110 40" enable-background="new 0 0 110 40"><path d="m1.435 40v-18.668l-1.323.262v-3.082l6.273-1.178v7.322c.393-.761 1.317-1.276 2.806-1.579 2.152-.438 3.228.182 3.228 1.887l.005 12.276-4.741 1.191-.027-10.527c0-.551-.207-.783-.646-.689-.417.089-.625.412-.625.966v10.575l-4.95 1.244m18.548-13.576v-1.928c0-.531-.192-.754-.597-.668-.384.082-.578.389-.578.921v1.937l1.175-.262m4.376 2.505l.027 1.984c0 2.21-1.453 3.691-4.403 4.431l-1.239.31c-2.989.75-4.505-.024-4.505-2.307v-7.86c0-2.283 1.538-3.751 4.569-4.368l1.239-.253c2.907-.591 4.339.257 4.339 2.514v4.395l-5.578 1.282v2.951c0 .533.258.737.792.609.533-.13.808-.461.808-.99v-1.796l3.951-.902m7.631 3.509v-9.71c0-.509-.175-.725-.548-.645-.355.077-.532.37-.532.88v9.748l-4.2 1.053v-11.298l-1.12.239v-2.835l5.32-1.084v.928c.335-.695 1.12-1.156 2.386-1.414 1.101-.224 1.812.066 2.157.84.476-.943 1.331-1.55 2.52-1.793 1.773-.361 2.661.221 2.661 1.771l-.008 11.139-3.92 1 .003-9.557c0-.501-.17-.714-.532-.636-.342.074-.513.363-.513.865v9.589l-3.674.92m29.568-15.08v-1.664c0-.458-.143-.657-.445-.592-.287.061-.429.322-.429.781v1.669l.874-.194m3.258 2.355l.03 1.603c0 1.909-1.089 3.188-3.288 3.74l-.922.231c-2.22.557-3.344-.154-3.344-2.12v-6.763c0-1.966 1.14-3.192 3.393-3.651l.921-.187c2.167-.442 3.238.327 3.238 2.278v3.801l-4.159.954v2.547c0 .459.191.641.588.546.397-.096.601-.375.601-.832l.005-1.469 2.937-.678m1.874 4.053v-9.79l-.84.179v-2.456l4-.815v.806c.251-.596.843-.979 1.799-1.173 1.384-.282 1.591.298 1.591 1.667v3.095l-2.576.64v-1.584c0-.443-.133-.635-.415-.574-.266.057-.4.307-.4.75v8.462l-3.159.793m14.09-6.272c0 1.792-.763 2.889-2.319 3.28l-2.026.508c-1.43.36-2.144-.411-2.144-2.29v-1.33l2.552-.566v1.147c0 .43.224.592.672.484.431-.104.654-.373.654-.8v-1.033c0-.545-.417-.78-1.27-.7l-.379.088c-1.472.339-2.215-.419-2.215-2.02v-1.543c0-1.84.799-2.932 2.398-3.258l2.02-.411c1.388-.284 2.07.503 2.07 2.333l-.002 1.274-2.46.565-.009-1.17c0-.428-.221-.595-.667-.5-.433.092-.658.355-.658.785v1.038c0 .547.42.787 1.27.713l.374-.083c1.43-.32 2.139.447 2.139 1.988v1.502m4.06-1.635c.014.5.188.551.531.497.373-.059.549-.296.549-.711v-5.211c-.013-.584-.402-.569-.725-.484l-.126.048c-.159.089-.218.25-.227.517l-.001 5.286v.058zm0-11.798v4.697c.222-.653.746-1.062 1.59-1.235 1.238-.251 2.185.45 2.185 2.149v6.749c0 1.288-.947 2.08-2.185 2.39-.844.212-1.368.097-1.59-.359v.758l-2.789.7v-13.03l-.673.133v-2.305l3.462-.649m8.62 4.702c0-.202-.052-.323-.148-.371-.107-.087-.267-.101-.469-.002-.292.179-.361.419-.361.767l-.037 4.888c0 .404.274.588.624.532l.143-.039c.191-.084.245-.268.247-.546v-5.229zm2.545-3.081l.025 10.853-1.35.339c-.559.14-.926-.042-1.097-.567-.343.653-.885 1.064-1.627 1.25-1.199.301-2.097-.213-2.097-1.493v-6.687c0-1.69.899-2.626 2.097-2.871.791-.161 1.296.03 1.505.572v-.878l2.544-.518m7.102 4.387v2.178c0 1.632-.793 2.657-2.396 3.06l-.671.169c-1.612.404-2.796-.153-2.796-1.827l-.002-5.803c0-1.674 1.198-2.727 2.833-3.06l.671-.136c1.58-.322 2.361.362 2.361 2.03v2.038l-2.396.537v-1.936c-.016-.462-.212-.598-.431-.552-.209.044-.585.242-.556.722l-.018 5.287c.02.558.474.583.682.532.22-.052.324-.273.324-.664v-2.024l2.395-.551m1.272 4.335v-11.877l-.616.122v-2.102l2.937-.552v4.149c.185-.505.622-.819 1.326-.962 1.022-.207 1.866.263 1.866 1.441v8.397l-2.243.565-.002-7.15c0-.379-.256-.553-.462-.508-.197.042-.485.257-.485.637v7.258l-2.321.582m-56.52 14.08v-9.184c0-.482-.158-.688-.491-.617-.317.069-.475.344-.475.827v9.216l-3.751.942v-10.674l-1 .212v-2.678l4.751-.967v.878c.299-.654 1-1.082 2.133-1.313.987-.201 1.622.081 1.931.818.427-.887 1.193-1.454 2.257-1.67 1.589-.324 2.385.237 2.385 1.703l-.006 10.551-3.515.897.003-9.04c0-.473-.153-.677-.475-.609-.307.067-.461.337-.461.812v9.07l-3.286.825"/></svg>