<svg enable-background="new 0 0 114 57" viewBox="0 0 114 57" xmlns="http://www.w3.org/2000/svg"><path d="m8.735 28.943h.001v-.001z"/><path d="m14.883 38.838-.001.001z"/><path d="m11.208 33.575h.001v-.001z"/><path d="m107.839 19.618c.269.044.542.053.812.092.188.028.476.055.575.247.132.257-.123.441-.347.495-.308.074-.632.008-.941-.012-.467-.03-.935-.053-1.402-.07-.537-.018-1.074-.029-1.611-.032-.595-.004-1.19 0-1.786.013-.457.011-.914.026-1.371.049-.268.013-.535.03-.802.049-.265.019-.548.063-.812.018-.213-.036-.46-.197-.396-.449.063-.242.386-.28.589-.306.521-.066 1.044-.084 1.533-.295.417-.18.75-.481.893-.92.162-.492.147-1.019.149-1.53l.018-13.108c-.005-.612.009-1.107-.023-1.659-.012-.207-.051-.419-.216-.559-.219-.188-.513-.209-.787-.225-.724-.043-1.466-.018-2.19.009-.472.018-.944.066-1.408.155-.586.113-1.179.305-1.6.749-.519.547-.613 1.292-.726 2.003-.036.226-.091.806-.456.706-.183-.05-.204-.252-.217-.411-.017-.196-.01-.393-.008-.589.012-.828.001-1.656.002-2.484 0-.271-.059-.649.127-.879.151-.188.42-.212.644-.224.314-.016.639.023.954.038 1.088.051 2.175.098 3.265.123.602.013 1.205.023 1.808.03.746.008 1.492.012 2.238.013.764 0 1.528-.003 2.292-.01 1.796-.018 3.613-.061 5.415-.159.323-.018.646-.052.97-.029.184.014.393.053.515.204.076.095.11.216.126.334.036.252.005.512.005.765-.002.799-.003 1.598-.003 2.398 0 .225.037.488-.034.705-.016.051-.042.101-.083.137-.148.13-.339-.005-.412-.147-.145-.281-.143-.656-.199-.963-.11-.596-.302-1.212-.752-1.643-.402-.385-.95-.568-1.488-.667-1.02-.188-2.073-.183-3.107-.171-.276.001-.552.001-.825.042-.181.026-.381.081-.5.23-.125.157-.165.378-.177.573-.03.503-.016 1.016-.016 1.52 0 0-.004 13.612.041 14.097.037.39.12.802.382 1.109.331.388.854.556 1.341.638"/><path d="m87.95 43.383c.269.044.542.053.812.092.188.028.476.055.575.247.132.257-.123.441-.347.495-.308.074-.631.008-.941-.012-.467-.03-.935-.053-1.402-.07-.537-.018-1.074-.029-1.611-.032-.595-.004-1.19 0-1.786.013-.457.01-.914.026-1.371.049-.268.013-.535.03-.802.049-.265.019-.548.063-.812.018-.213-.036-.46-.197-.395-.449.062-.242.385-.28.588-.306.521-.066 1.044-.084 1.533-.295.417-.18.75-.481.893-.92.162-.492.147-1.019.149-1.53l.018-13.108c-.005-.612.009-1.107-.023-1.659-.012-.207-.051-.419-.216-.559-.219-.188-.513-.209-.787-.225-.724-.043-1.466-.018-2.19.009-.472.018-.944.066-1.408.155-.585.113-1.179.305-1.6.749-.519.547-.613 1.292-.726 2.003-.036.226-.091.806-.456.706-.183-.05-.204-.252-.217-.411-.016-.196-.01-.393-.008-.59.012-.827.002-1.655.002-2.483 0-.271-.059-.649.127-.879.151-.188.42-.212.644-.224.314-.016.639.023.954.038 1.088.051 2.175.098 3.265.123.602.013 1.205.023 1.808.03.746.008 1.492.012 2.238.012.764.001 1.528-.002 2.292-.01.62-.006 1.24-.015 1.86-.028.492-.01.984-.023 1.476-.04.376-.012.751-.027 1.127-.044.317-.014.634-.029.952-.046.323-.018.646-.052.97-.029.184.014.393.053.515.204.076.095.11.216.126.334.036.252.005.512.005.765-.001.267-.001.533-.001.799-.001.533-.002 1.066-.002 1.599 0 .225.037.488-.034.705-.016.051-.042.101-.082.137-.149.13-.34-.005-.413-.147-.145-.281-.143-.656-.199-.963-.11-.596-.302-1.212-.752-1.643-.402-.385-.95-.568-1.488-.667-.488-.09-.984-.135-1.481-.154-.56-.021-1.122-.016-1.683-.017h.147c-.306-.002-.611-.003-.915.042-.181.026-.381.081-.5.23-.125.157-.165.378-.177.573-.03.503-.016 1.016-.016 1.52l.013 12.637c0 .486-.017.975.028 1.46.037.39.12.802.382 1.109.331.388.854.556 1.341.638"/><path d="m112.488 49.893c-.005-.038-.026-.073-.068-.098-.093-.055-.231-.02-.332-.01-.196.018-.393.026-.59.027-.297.002-.6-.051-.895-.03-.152.011-.441.128-.25.317.137.136.382.071.533.188.226.174.045.552-.053.745-.344.672-.75 1.312-1.143 1.957-.098.161-.186.339-.298.489-.175-.267-.303-.58-.451-.865-.15-.29-.3-.58-.45-.87-.137-.265-.272-.53-.413-.793-.096-.18-.245-.445-.107-.64.149-.212.419-.082.603-.206.09-.061.117-.176.049-.265-.08-.103-.236-.082-.352-.082-.626.001-1.255.077-1.881.019-.179-.017-.529-.092-.634.115-.127.252.274.307.419.347.272.077.406.286.534.524.145.27.288.541.436.809.315.568.629 1.137.943 1.705.068.124.136.247.213.366.065.102.14.213.154.337.023.186.002.387.002.575 0 .31.001.619.001.928-.001.225-.013.482-.223.615-.116.074-.254.099-.389.108-.115.008-.248.009-.315.118-.062.102-.031.227.073.284.117.066.263.029.389.015.188-.021.378-.024.567-.029.395-.01.792-.012 1.187.009.17.009.34.028.51.032.104.002.245 0 .298-.107.1-.198-.136-.286-.282-.318-.192-.041-.403-.034-.533-.204-.145-.188-.12-.46-.12-.683 0-.443-.021-.891-.007-1.333.005-.174.134-.316.228-.455.111-.164.216-.332.321-.5.211-.338.418-.678.621-1.021.202-.341.398-.684.598-1.025.171-.293.332-.606.649-.762.119-.059.265-.082.373-.16.056-.041.093-.11.085-.173"/><path d="m103.877 50.355c0-.034 0-.068 0-.102.001-.128.034-.316-.039-.432-.062-.097-.196-.107-.3-.108-.198-.001-.398.016-.596.024-.468.018-.936.03-1.404.037-.69.011-1.38.012-2.071.005-.518-.006-1.035-.017-1.553-.036-.246-.008-.491-.023-.737-.029-.162-.003-.352.012-.39.2-.034.165-.008.356-.008.524 0 .189-.007.377-.006.565.001.112-.024.338.109.393.1.041.171-.034.19-.121.047-.221.054-.456.165-.657.272-.495 1.056-.431 1.534-.433.154-.001.31-.001.465 0 .12.001.262-.013.374.04.129.061.141.207.143.333.017.719.016 3.634.016 4.372 0 .296.033.649-.069.933-.087.244-.343.311-.575.343-.117.016-.265.008-.359.09-.111.095-.084.259.047.317.137.061.301.013.444.004.184-.012.37-.018.555-.023.379-.01.758-.011 1.137-.001.181.005.361.017.541.034.14.014.351.042.452-.081.252-.306-.429-.338-.562-.372-.315-.078-.439-.27-.458-.585-.022-.351-.024-.707-.024-1.058 0-.745.007-3.696.013-3.908.004-.17-.013-.311.173-.374.283-.096.615-.066.909-.063.294.002.595.003.883.067.281.062.497.208.599.484.056.151.07.308.098.464.025.141.174.314.278.117.074-.14.028-.361.026-.512-.001-.151-.001-.301 0-.451"/><path d="m88.406 53.32c-.058-.062-.12-.122-.187-.178-.509-.431-1.141-.674-1.74-.948-.486-.222-1.081-.506-1.082-1.125-.001-.504.403-.912.88-1.007.547-.109 1.13.096 1.467.544.191.253.26.553.381.839.047.11.136.216.265.144.114-.064.11-.216.111-.33.004-.36-.034-.719-.008-1.078.009-.125.033-.274-.031-.389-.065-.116-.189-.114-.278-.025-.085.085-.128.231-.158.344-.271-.138-.516-.302-.81-.395-.291-.092-.596-.12-.9-.092-.588.055-1.166.325-1.502.826-.322.481-.381 1.107-.201 1.652.191.58.648.972 1.184 1.231.492.238 1.033.389 1.484.704.429.301.669.761.584 1.29-.082.51-.458.887-.958.997-.572.125-1.197-.028-1.613-.45-.219-.223-.377-.505-.47-.802-.042-.133-.113-.811-.402-.602-.106.078-.087.239-.078.352.014.166.019.332.023.498.008.313-.015.614-.046.924-.014.129.026.374.217.306.126-.045.175-.218.242-.32.27.147.523.31.814.417.293.108.6.159.911.159.61.001 1.242-.175 1.718-.568.45-.37.707-.905.722-1.487.014-.545-.177-1.043-.539-1.431"/><path d="m77.865 52.077c0-.4-.001-.801-.004-1.202-.001-.171-.005-.345.01-.516.014-.162.119-.217.274-.231.293-.027.617.006.899.092.536.165.827.6.894 1.144.065.527-.003 1.159-.486 1.475-.427.279-.99.29-1.481.29-.026 0-.086.012-.103-.009-.017-.019-.002-.115-.002-.141 0-.1 0-.201 0-.301 0-.198 0-.397-.001-.601m4.505 4.206c-.074-.041-.155-.067-.232-.101-.189-.083-.429-.205-.634-.443l-2.035-2.384.185-.042c.67-.149 1.3-.526 1.491-1.222.187-.684.049-1.518-.566-1.935-.416-.281-1.058-.415-1.896-.414-.549 0-1.186.049-1.899.049-.179 0-.358-.002-.536-.008-.109-.004-.224-.014-.332.007-.041.008-.088.023-.12.052-.061.056-.061.185-.001.239.064.056.168.067.249.078.062.008.128.016.193.029.178.035.349.103.411.292.041.119.051.261.052.484v4.42c-.001.229-.008.373-.049.495-.083.249-.361.309-.59.335-.069.008-.142.016-.204.05-.079.042-.133.146-.103.235.033.096.156.128.246.134.105.007.211-.012.315-.019.104-.008.209-.012.314-.016.218-.009.435-.013.653-.012.216 0 .432.003.648.012.123.004.246.016.368.024.116.008.248.027.363-.001.16-.039.191-.283.048-.368-.046-.027-.105-.021-.155-.03-.137-.026-.279-.032-.408-.091-.097-.042-.197-.128-.235-.253-.041-.122-.048-.266-.049-.495v-1.697-.053-.087l.14.003c.163-.009.318.06.411.198l2.147 2.695c.151.179.266.178.481.182 0 0 .465-.009.467-.009.166 0 .333.004.499.015.129.009.359.067.459-.045.088-.099-.002-.251-.096-.303"/><path d="m73.38 54.89c-.011-.003-.023-.004-.036-.004-.158 0-.184.23-.214.341-.041.152-.098.301-.188.43-.157.225-.393.359-.655.426-.279.073-.572.085-.859.087-.276.001-.565.005-.836-.057-.191-.044-.371-.134-.475-.306-.124-.204-.133-.457-.138-.689-.007-.302-.004-.605-.004-.908v-.819-.141c.427.002.972-.018 1.282.332.11.124.175.283.22.441.03.104.037.288.148.347.152.079.226-.13.23-.241.013-.322-.046-.654-.055-.977-.009-.337.005-.671.031-1.007.011-.143.039-.33-.009-.469-.043-.125-.179-.17-.269-.065-.064.073-.076.183-.093.274-.024.126-.053.256-.108.373-.229.488-.81.537-1.282.572-.032.003-.063.004-.094.009-.014-.48-.001-.961-.001-1.441 0-.237-.01-.475-.003-.713.004-.141-.035-.418.139-.462.2-.049.439-.025.643-.024.207.001.415.004.622.018.33.023.689.065.951.286.15.127.24.296.283.486.031.139.062.496.299.394.192-.083.078-.426.067-.577-.017-.243.027-.483.021-.725-.005-.199-.127-.268-.308-.287-.222-.024-.444-.018-.666-.017-.49.003-.98.011-1.469.02-.494.009-.989.014-1.483.007-.242-.003-.483-.012-.725-.026-.138-.008-.452-.062-.476.148-.02.175.174.23.307.247.151.019.299.016.432.102.232.152.213.467.213.708v.752 1.381 1.402.82.042c-.001.22.019.523-.176.679-.191.153-.439.097-.649.189-.126.055-.18.248-.06.337.138.103.362.03.518.023.184-.008.368-.018.552-.022.36-.008.719-.004 1.079-.002.561.002 1.121.008 1.682.018.337.006.674.013 1.01.022.172.005.511.061.64-.053.069-.061.066-.183.068-.266.004-.185.01-.368.02-.553.009-.158.123-.806-.126-.862"/><path d="m65.848 49.793c-.123-.039-.277 0-.4.01-.157.013-.315.021-.473.024-.269.006-.537-.006-.805-.027-.135-.011-.329-.06-.446.029-.095.073-.087.214.013.275.117.071.277.062.408.091.286.065.358.292.299.562-.061.279-.159.552-.261.819-.088.233-.179.465-.271.697-.119.303-.238.605-.358.907-.123.309-.246.617-.369.925-.1.251-.2.502-.301.752-.033.084-.067.167-.1.251-.011.027-.03.119-.055.136-.003.002-.005.013-.007.018-.044-.123-.088-.245-.132-.366-.107-.295-.214-.59-.32-.885-.129-.356-.258-.712-.387-1.068-.113-.311-.225-.621-.337-.932-.056-.154-.112-.307-.17-.469-.075-.211-.154-.43-.223-.646-.058-.18-.156-.44-.003-.599.137-.142.346-.092.519-.129.162-.034.278-.268.091-.364-.073-.038-.178-.021-.257-.016-.12.008-.241.015-.362.021-.247.012-.494.018-.741.019-.246.002-.491-.001-.737-.014-.199-.009-.413-.056-.611-.037-.141.015-.266.112-.188.266.075.151.345.147.485.176.395.079.507.498.632.833.343.916.694 1.829 1.042 2.743.174.46.349.92.524 1.38.087.228.173.456.26.684.08.21.147.434.251.635.086.163.241.361.432.216.129-.098.205-.264.272-.407.113-.24.215-.491.313-.735.057-.141.113-.283.17-.424.134-.333.267-.665.401-.998.16-.4.321-.799.481-1.199.139-.347.278-.693.418-1.04.069-.172.137-.344.21-.524.109-.262.219-.538.368-.784.07-.116.153-.232.266-.308.126-.084.26-.092.401-.131.157-.045.289-.266.088-.355-.009-.005-.02-.009-.03-.012"/><path d="m94.74 56.281c-.027-.02-.058-.034-.09-.042-.167-.041-.34-.041-.504-.093-.349-.111-.372-.453-.373-.764v-.449-1.052-1.267-1.099c0-.181-.001-.363 0-.554.001-.175-.001-.382.084-.545.113-.216.363-.224.576-.258.121-.019.5-.072.372-.283-.113-.185-.513-.094-.687-.086-.554.025-1.11.026-1.664.006-.141-.006-.281-.013-.422-.02-.115-.006-.252-.018-.358.036-.089.045-.158.152-.094.246.05.075.154.082.236.09.208.02.446.024.621.157.157.118.174.334.18.516.002.046.003.099.003.141v.449 1.051 1.268 1.099.554c-.001.295-.015.634-.343.754-.16.059-.322.063-.488.09-.09.015-.167.047-.206.135-.141.324.353.264.517.254.192-.011.383-.02.575-.025.384-.01.768-.009 1.151.004.184.006.368.014.551.03.137.011.326.035.421-.093.068-.091.022-.192-.058-.25"/><path d="m49.677 56.424c.065.081.134.157.204.234.116.127.387.162.459-.036.023-.064.019-.135.019-.202v-.054-5.271c.001-.248.011-.412.054-.547.041-.136.139-.236.269-.3 0 0 .168-.058.178-.06.118-.022.368-.041.41-.181.018-.059.005-.124-.036-.17-.024-.028-.053-.044-.089-.052-.057-.012-.118-.012-.176-.01-.06.003-.121.007-.181.011-.178.01-.355.017-.533.017-.219 0-.438-.013-.656-.028-.084-.007-.167-.013-.251-.018-.078-.004-.163-.006-.238.019-.129.043-.177.24-.054.319.115.074.269.04.395.074.116.032.226.093.301.19.133.171.168.403.17.725v3.848s-3.961-4.955-3.962-4.956c-.108-.14-.221-.19-.388-.193-.169 0-.358.019-.566.02-.165 0-.328-.018-.492-.028-.104-.006-.214-.014-.321-.005-.105.009-.196.047-.223.157-.036.15.086.214.217.234.14.022.284.045.412.108.156.077.281.199.377.341l.024.036v4.571c0 .264-.011.441-.054.585-.041.144-.137.252-.27.322l-.163.062-.012.002s-.18.033-.181.033c-.137.025-.332.126-.227.294.096.153.386.11.535.103.182-.009.364-.02.547-.02.211 0 .422.007.633.02.113.008.234.029.348.005.203-.042.286-.307.047-.375-.129-.037-.27-.044-.392-.104-.144-.071-.26-.18-.316-.333-.056-.152-.066-.33-.067-.585v-4.087z"/><path d="m41.778 49.881c-.057-.124-.295-.108-.412-.1-.486.033-.963.027-1.449-.001-.155-.009-.515-.026-.435.234.055.179.313.139.456.167.142.028.289.075.379.197.119.161.11.4.111.586.001.112 0 .224 0 .335v1.665c0 .357.002.723 0 1.077-.006.868-.249 1.77-1.156 2.074-.766.258-1.969.241-2.431-.54-.272-.461-.25-1.008-.25-1.524v-1.641-1.363-.083c0-.236-.003-.559.231-.7.176-.107.689-.023.72-.298.035-.315-.664-.171-.836-.166-.371.013-.742.015-1.113.007-.234-.004-.468-.014-.702-.027-.151-.008-.472-.018-.408.223.052.201.374.157.529.195.253.062.382.221.413.48.023.197.012.4.012.6v.931 1.139.91c0 .192-.005.386.009.579.038.53.224 1.047.639 1.398.804.68 2.105.672 3.072.432.686-.17 1.21-.594 1.456-1.264.207-.566.223-1.175.223-1.77v-1.43c0-.404-.001-.808 0-1.212v-.027c.001-.183-.007-.422.102-.586.109-.165.289-.172.465-.194.13-.016.352-.039.383-.199.008-.043.005-.077-.008-.104"/><path d="m56.82 56.281c-.027-.02-.058-.034-.09-.042-.167-.041-.34-.041-.504-.093-.349-.111-.372-.453-.373-.764v-.449-1.052-1.267-1.099c0-.181-.001-.363 0-.554.001-.175-.001-.382.084-.545.113-.216.363-.224.576-.258.121-.019.5-.072.372-.283-.113-.185-.513-.094-.687-.086-.554.025-1.11.026-1.664.006-.141-.006-.281-.013-.422-.02-.115-.006-.252-.018-.358.036-.089.045-.158.152-.094.246.05.075.154.082.236.09.208.02.446.024.621.157.157.118.174.334.18.516.002.046.003.099.003.141v.449 1.051 1.268 1.099.554c-.001.295-.015.634-.343.754-.16.059-.322.063-.488.09-.09.015-.167.047-.206.135-.141.324.353.264.517.254.192-.011.383-.02.575-.025.384-.01.768-.009 1.151.004.184.006.368.014.551.03.137.011.326.035.421-.093.068-.091.022-.192-.058-.25"/><path d="m107.85 43.383c.269.044.542.053.812.092.188.028.476.055.575.247.132.257-.123.441-.347.495-.308.074-.632.008-.941-.012-.467-.03-.935-.053-1.402-.07-.537-.018-1.074-.029-1.611-.032-.595-.004-1.19 0-1.786.013-.457.01-.914.026-1.371.049-.268.013-.535.03-.802.049-.265.019-.548.063-.812.018-.213-.036-.46-.197-.396-.449.063-.242.386-.28.589-.306.521-.066 1.044-.084 1.533-.295.417-.18.75-.481.893-.92.162-.492.147-1.019.149-1.53l.018-13.108c-.005-.612.009-1.107-.023-1.659-.012-.207-.051-.419-.216-.559-.219-.188-.513-.209-.787-.225-.724-.043-1.466-.018-2.19.009-.472.018-.944.066-1.408.155-.586.113-1.179.305-1.6.749-.519.547-.613 1.292-.726 2.003-.036.226-.091.806-.456.706-.183-.05-.204-.252-.217-.411-.017-.196-.01-.393-.008-.59.012-.827.001-1.655.002-2.483 0-.271-.059-.649.127-.879.151-.188.42-.212.644-.224.314-.016.639.023.954.038 1.088.051 2.175.098 3.265.123.602.013 1.205.023 1.808.03.746.008 1.492.012 2.238.012.764.001 1.528-.002 2.292-.01 1.796-.017 3.613-.06 5.415-.158.323-.018.646-.052.97-.029.184.014.393.053.515.204.076.095.11.216.126.334.036.252.005.512.005.765-.002.799-.003 1.598-.003 2.398 0 .225.037.488-.034.705-.016.051-.042.101-.083.137-.148.13-.339-.005-.412-.147-.145-.281-.143-.656-.199-.963-.11-.596-.302-1.212-.752-1.643-.402-.385-.95-.568-1.488-.667-1.02-.188-2.073-.183-3.107-.171-.276.001-.552.001-.825.042-.181.026-.381.081-.5.23-.125.157-.165.378-.177.573-.03.503-.016 1.016-.016 1.52 0 0-.004 13.612.041 14.097.037.39.12.802.381 1.109.331.388.855.556 1.342.638"/><path d="m78.647 3.468c1.27-1.653 3.079-2.56 5.096-2.557 2.051-.004 3.852.863 5.099 2.509 1.249 1.644 1.958 4.037 1.958 7.106 0 3.068-.754 5.47-2.031 7.12-1.275 1.651-3.084 2.527-5.086 2.524-2.017.003-3.811-.935-5.065-2.619-1.257-1.683-1.992-4.097-1.992-7.084 0-2.968.749-5.347 2.021-6.999m-5.744 7.146c.007 3.089.996 5.39 3.191 7.445 1.983 1.833 4.667 2.836 7.649 2.837 2.798.002 5.707-1.125 7.648-2.955 1.921-1.8 3.075-4.524 3.074-7.386-.003-2.872-.823-5.13-2.572-7.003-2.006-2.126-4.935-3.368-8.031-3.367-3.046.001-5.784 1.091-7.916 3.19-2.01 2.014-3.041 4.485-3.043 7.239"/><path d="m2.246 19.418c-.2.099-.413.157-.629.195-.23.041-.463.053-.693.089-.181.029-.444.057-.557.221-.118.17-.055.395.122.493.236.13.534.068.789.05.241-.018.483-.034.725-.048.644-.037 1.555-.074 2.738-.074s2.094.037 2.739.074c.244.014.487.041.731.06.287.023.919.127.979-.298.012-.086-.017-.174-.069-.243-.065-.085-.166-.143-.268-.172-.313-.091-.643-.095-.963-.152-.213-.038-.425-.096-.629-.197-.351-.162-.642-.438-.773-.825-.136-.384-.163-.842-.164-1.505v-6.382h10.5v6.382c-.002.668-.022 1.123-.149 1.506-.122.385-.41.664-.763.826-.2.099-.413.157-.63.195-.321.057-.652.059-.968.148-.143.04-.283.104-.33.259-.054.178.054.345.219.412.308.125.672.042.991.017 1.09-.087 2.184-.107 3.277-.102 1.088.005 2.179.022 3.264.113.301.026.893.134 1.073-.202.061-.114.041-.266-.048-.361-.065-.069-.158-.105-.25-.131-.536-.154-1.102-.096-1.614-.351-.348-.16-.635-.438-.757-.823-.127-.383-.148-.838-.15-1.506v-13.224c.002-.652.029-1.1.158-1.475.302-.868 1.248-.944 2.028-1.061.221-.033.623-.036.662-.331.012-.095-.041-.189-.117-.247-.076-.057-.172-.083-.266-.097-.279-.042-.56.006-.839.016-.28.01-.559.026-.838.037-.789.032-1.58.047-2.37.047-1.167 0-2.077-.029-2.724-.059-.291-.013-.582-.03-.873-.046-.247-.015-.654-.074-.783.21-.047.104-.035.229.055.304.061.051.139.075.215.095.536.141 1.104.109 1.619.334.338.148.624.42.749.798.131.374.157.823.159 1.475v5.823h-10.5v-5.823c.002-.721.053-1.219.235-1.616.179-.404.541-.646.93-.742.411-.103.835-.157 1.253-.227.119-.02.243-.048.324-.144.168-.196-.027-.429-.23-.482-.171-.045-.355-.014-.529-.004-.281.016-.561.032-.842.045-.648.03-1.557.059-2.724.059-1.07 0-2.14-.029-3.209-.087-.306-.016-.679-.081-.973.014-.278.09-.32.414-.051.547.159.08.364.089.538.111.199.024.399.045.596.079.216.037.419.087.609.174.338.148.624.42.749.798.13.375.157.823.159 1.475v13.224c-.002.668-.023 1.123-.15 1.506-.122.385-.41.664-.763.826"/><path d="m38.074 19.191c-.797.272-1.794.367-3.101.368-1.069-.001-1.862-.052-2.482-.214-.616-.158-1.084-.463-1.357-.934-.182-.309-.281-.669-.34-1.081-.078-.55-.086-1.204-.087-2.009l.026-4.823c.91 0 1.849-.014 2.73.25.101.031.2.065.297.103.654.256 1.12.711 1.398 1.32.123.261.216.537.285.816.057.229.085.473.201.683.12.216.386.263.522.037.146-.241.095-.538.076-.804-.021-.279-.044-.559-.064-.838-.06-.833-.093-1.667-.093-2.502.001-.867.062-1.728.122-2.591.018-.263.074-.579-.014-.831-.079-.227-.337-.378-.545-.201-.195.165-.22.472-.26.707-.034.2-.073.444-.144.708-.069.253-.165.513-.318.771-.326.533-.782.914-1.388 1.145-.606.233-1.353.342-2.349.411l-.482.032c0-.235-.038-6.98.03-7.441.019-.13.049-.261.11-.378.162-.31.498-.36.815-.39.319-.029.703-.028 1.195-.029h.235c1.422.001 2.941.043 3.809.249.864.201 1.53.603 1.951 1.284.149.235.243.478.304.711.063.242.092.46.12.636.028.16.049.331.116.481.074.164.253.267.432.216.158-.045.244-.188.265-.342.034-.243-.021-.5-.049-.741-.036-.32-.06-.64-.06-.961.001-.842.091-1.386.089-1.587-.001-.194-.041-.33-.104-.427-.125-.19-.36-.252-.573-.283-.588-.086-1.195-.05-1.788-.05-2.755 0-5.56.088-7.686.088-2.763 0-4.359-.119-4.614-.118-.175.001-.424.02-.533.187-.106.162.016.348.175.414.341.14.749.12 1.109.182.216.037.419.087.608.173.339.148.625.421.75.799.13.374.157.823.158 1.474v13.225c-.001.668-.022 1.123-.149 1.505-.122.386-.41.664-.762.827-.36.165-.756.22-1.144.273-.27.036-.857.049-.798.472.022.158.175.268.33.304.207.046.431.011.641-.001.849-.048 1.695-.1 2.546-.115.306-.005.612-.007.919-.007 6.73 0 10.367.147 10.903.146.189 0 .379-.004.567-.032.25-.037.404-.171.437-.427.031-.246.019-.501.025-.748.006-.276.02-.551.036-.827.032-.55.072-1.101.078-1.652.003-.296.032-.631-.09-.909-.054-.123-.159-.201-.298-.192-.137.009-.255.113-.319.235-.078.15-.101.336-.137.499-.04.181-.085.361-.141.538-.076.24-.186.507-.352.789-.399.683-.992 1.158-1.789 1.427"/><path d="m49.64 10.558-.686-.003v-8.23c0-.235.022-.404.069-.548.044-.141.138-.264.222-.324l-.001.001.001-.001c.238-.17.521-.213 1.094-.22 1.691 0 2.976.349 3.846 1.169.869.822 1.244 2.056 1.242 3.656.005 1.559-.389 2.745-1.369 3.489-.974.737-2.406 1.008-4.418 1.011m21.48 9.242c-.2-.097-.447-.096-.663-.121-.361-.041-.701-.086-1.045-.208-.449-.159-.841-.403-1.023-.867-.156-.388-.194-.856-.196-1.526v-13.224c.002-.721.053-1.218.235-1.616.178-.404.54-.646.929-.742.367-.092.756-.115 1.134-.165.225-.03.808-.006.828-.339.009-.144-.131-.243-.251-.29-.183-.073-.386-.075-.58-.077-.081-.001-.492.029-1.14.058-.655.03-1.571.06-2.737.06-.879 0-1.757-.019-2.635-.059-.291-.014-.581-.033-.872-.043-.281-.01-.577-.033-.851.043-.143.039-.341.116-.347.292-.01.27.346.323.546.346.338.038.678.034 1.015.085.248.038.461.088.653.174.341.15.63.42.764.799.138.376.171.828.173 1.474v13.224c-.002.654-.033 1.113-.184 1.503-.15.393-.463.664-.842.828-.392.17-.833.239-1.257.263-.464.027-.95 0-1.381-.187-.631-.274-1.194-.749-1.638-1.267l-6.29-7.363c.958-.203 1.91-.401 2.788-.853.53-.273 1.022-.625 1.426-1.065.769-.841 1.176-1.931 1.178-3.32-.009-1.865-.62-3.067-1.815-3.879-1.201-.811-3.06-1.203-5.527-1.201-1.625 0-3.511.147-5.613.147-1.442 0-2.272-.06-2.381-.059-.157.001-.339.017-.468.117-.124.097-.145.273-.035.393.135.145.364.177.551.194.235.021.469.038.703.078.216.037.419.087.608.174.338.148.624.42.75.798.13.375.157.823.158 1.475v13.224c-.002.668-.022 1.123-.149 1.506-.122.385-.41.664-.763.826-.499.248-1.052.2-1.579.336-.241.062-.491.295-.3.553.046.062.113.106.185.133.196.074.403.048.607.034.281-.019.562-.04.843-.056.645-.037 1.556-.074 2.738-.074 1.183 0 2.094.037 2.739.074.221.013.451.032.675.046.219.013.464.047.679 0 .14-.031.282-.093.328-.24.058-.186-.078-.365-.242-.437-.192-.085-.423-.083-.629-.114-.523-.077-1.101-.166-1.493-.553-.148-.147-.261-.329-.324-.528-.127-.383-.147-.838-.149-1.505l-.012-5.736c.417 0 .887-.04 1.278.135.245.11.428.293.604.518l6.349 7.967c.205.252.375.354.57.418.195.062.434.073.737.072.425.001.896-.028 1.381-.029 1.831 0 4.132-.067 5.963-.084 1.23-.011 2.46.004 3.689.07.252.013.504.03.756.046.274.018.619.081.871-.057.201-.11.252-.362.086-.526-.03-.03-.066-.054-.106-.073"/><path d="m33.545 24.457c-.088.044-.149.133-.163.231-.011.089.016.182.075.249.129.147.383.186.566.22.23.042.467.057.695.11.344.079.665.268.885.588.223.317.381.731.577 1.345 0 0 5.085 15.9 5.085 15.901.11.332.219.663.361.983.072.163.165.322.303.436.379.313.798.069 1.031-.28.173-.267.336-.694.494-1.229l4.238-13.992s4.181 14.196 4.181 14.198c.08.278.164.559.28.825.093.214.228.468.451.569.225.102.501.006.679-.166.223-.214.343-.521.457-.802.186-.455.32-.928.466-1.396.098-.315.197-.63.295-.945.131-.421.262-.842.393-1.262.155-.499.31-.997.466-1.496.171-.549.342-1.098.513-1.647.178-.572.356-1.143.534-1.715.177-.567.353-1.134.53-1.701.166-.534.333-1.068.499-1.602.148-.475.295-.949.443-1.423.12-.386.241-.772.361-1.159.085-.271.169-.541.253-.812.04-.128.08-.256.12-.384.002-.006.004-.013.006-.019.246-.798.439-1.378.681-1.825.236-.445.559-.771.992-.934.218-.082.447-.13.67-.197.175-.052.37-.104.5-.241.116-.121.133-.338-.027-.432-.117-.068-.265-.067-.396-.076-.213-.013-.425.013-.637.029-.386.028-.772.049-1.159.049-.692 0-1.384-.014-2.076-.044-.437-.019-.874-.056-1.312-.07-.259-.008-.778.007-.78.374.005.19.143.305.32.349.155.039.319.04.477.063.489.07 1.013.181 1.376.544.248.262.356.609.353.954-.001 1.09-.29 2.742-.966 4.891l-2.652 8.619-4.445-14.523c-.047-.154-.095-.308-.142-.462-.073-.235-.145-.506-.337-.673-.129-.111-.308-.162-.476-.135-.195.031-.326.153-.429.312-.116.188-.225.517-.336.898l-4.446 14.936-.341-1.121-.096-.314c-1.061-3.466-1.905-6.224-2.507-8.288-.351-1.204-.612-2.151-.787-2.863-.175-.716-.266-1.174-.269-1.483 0-.137.009-.277.057-.423.047-.146.142-.291.271-.398.193-.158.43-.248.669-.311.269-.072.544-.125.821-.159.178-.022.357-.037.532-.078.145-.033.31-.097.322-.27.011-.148-.102-.284-.234-.336-.136-.053-.373-.078-.641-.077-1.056-.001-2.296.146-3.644.147-1.998 0-3.209-.118-3.552-.117-.136.004-.304-.002-.428.06"/><path d="m66.482 28.611.337-.812 3.215 8.293h-6.656zm-4.191 14.705c-.291-.122-.551-.297-.743-.574-.186-.269-.218-.626-.194-.943.023-.305.076-.602.158-.897.061-.22.132-.438.217-.65l1.28-3.199h7.36s1.34 3.552 1.339 3.549c.129.335.238.677.318 1.026.078.339.169.701.078 1.047-.158.599-.925.707-1.44.782-.028.004-.056.008-.083.012-.243.038-.82.075-.889.388-.053.238.222.355.406.39.249.047.504.042.756.031.248-.011.497-.019.746-.035.821-.053 1.639-.129 2.462-.136.826-.006 1.652.038 2.477.075.112.005.225.016.338.016.371.016.762.07 1.132.018.161-.022.362-.102.413-.273.055-.182-.109-.326-.264-.385-.262-.099-.544-.113-.816-.169-.193-.041-.393-.096-.597-.181-.379-.155-.695-.432-.964-.813-.272-.383-.511-.873-.77-1.509l-6.491-16.365c-.086-.2-.179-.379-.269-.482-.103-.115-.198-.17-.341-.173-.144.002-.242.059-.339.165-.086.097-.169.255-.24.427l-6.555 15.635c-.267.63-.541 1.267-.898 1.853-.326.534-.777 1.018-1.372 1.251-.365.143-.756.203-1.133.303-.126.033-.264.079-.328.192-.058.103-.035.239.038.333.073.093.187.148.303.171.177.036.377.032.558.025.406-.014.809-.058 1.214-.081.416-.023.833-.033 1.249-.031.374.001.748.022 1.122.049.191.014.381.031.572.048.188.017.383.055.572.055.223.022.458.051.675-.021.102-.034.219-.104.254-.212.017-.049.016-.103.003-.154-.065-.265-.41-.304-.628-.353-.235-.052-.469-.114-.686-.205"/><path d="m23.771 28.009.06-.018c.125-.036.429-.109.744-.108.176-.001.354.022.505.079.473.174.893.267 1.194.269.129-.005.239-.002.378-.103.109-.089.125-.25.036-.359-.081-.1-.219-.111-.326-.046l-.003-.008-.001-.001-.084.007c-.192.002-.589-.077-1.017-.238-.228-.084-.464-.111-.682-.111-.519.001-.952.149-.967.153-.133.045-.205.19-.16.323.045.134.189.206.323.161"/><path d="m23.727 30.808.072-.025c.149-.05.51-.152.888-.151.137 0 .277.013.409.044.464.108.866.181 1.156.182.138-.006.252.001.4-.104.109-.089.126-.25.037-.359-.081-.101-.219-.112-.327-.048l-.003-.008-.024.004-.083.005c-.204.001-.597-.064-1.039-.168-.178-.043-.357-.058-.526-.059-.62.002-1.131.207-1.147.212-.132.052-.196.2-.144.331.052.132.2.196.331.144"/><path d="m21.432 28.806c-.195 0-.402.021-.606.082-.437.133-.832.206-1.03.204l-.089-.006-.005-.001-.004.008c-.107-.065-.245-.053-.326.047-.089.11-.072.27.037.359.142.102.254.097.387.103.296-.001.707-.084 1.177-.225.143-.043.302-.061.459-.061.229 0 .454.038.618.076l.196.053.066.021c.132.048.279-.02.327-.152.048-.133-.02-.279-.153-.327-.015-.005-.487-.18-1.054-.181"/><path d="m21.375 30.167c-.17 0-.348.016-.527.058-.442.105-.834.17-1.039.168l-.098-.007-.009-.001-.003.008c-.107-.065-.246-.053-.327.047-.089.109-.072.27.037.359.148.105.262.098.4.105.291-.002.693-.074 1.156-.182.133-.032.272-.045.41-.045.252 0 .496.044.675.089l.212.062.072.025c.131.052.279-.013.331-.144.051-.131-.013-.279-.144-.331-.016-.005-.527-.209-1.146-.211"/><path d="m23.749 29.42.066-.022c.137-.042.469-.129.813-.128.157 0 .316.018.46.061.468.14.88.224 1.176.225.133-.006.245-.001.388-.104.109-.089.126-.25.037-.359-.082-.1-.22-.111-.327-.046l-.004-.009h-.001l-.093.008c-.199.001-.593-.071-1.029-.204-.205-.061-.412-.082-.607-.082-.567.001-1.038.176-1.054.181-.132.048-.201.194-.152.327.048.132.195.2.327.152"/><path d="m19.786 28.277c.301-.002.721-.095 1.194-.27.151-.056.329-.079.506-.079.209 0 .414.032.565.064l.178.045.06.018c.134.045.278-.027.323-.161.045-.133-.027-.278-.16-.323-.015-.004-.447-.152-.966-.153-.219 0-.455.027-.683.111-.428.16-.825.24-1.017.238l-.08-.006-.004-.001-.003.008c-.107-.064-.245-.053-.327.046-.089.11-.073.27.036.36.139.1.249.097.378.103"/><path d="m12.548 49.092c-.141.075-.299.149-.508.258-.48.253-.858.393-1.195.678-.338.286-.577.701-.771 1.402-.031.112.016.229.115.288l.309-.036c.697-.662 1.024-.674 1.445-.684l.268.002c.102 0 .211-.002.328-.015.141-.016.274-.059.403-.11-.045.061-.086.118-.138.192-.394.565-.498 1.16-.497 1.625 0 .527.13.893.136.911l.23.17.243-.149c.29-.639.519-1.054.725-1.334.208-.28.385-.428.611-.562.273-.164.655-.212.94-.21h.013v4.157c-1.207-.409-4.366-1.677-7.365-4.542-.634-.607-1.262-1.285-1.863-2.041zm-6.07-4.771c.011.227.096.439.263.565.18.136.395.173.615.174.209-.002.399-.077.563-.175.161-.105.302-.217.376-.411.018-.053.019-.099.029-.15h5.748c0 .046.002.09.002.138 0 .604-.039 1.345-.104 1.965-.032.309-.07.59-.112.804-.037.21-.098.371-.104.371-.145.213-.243.397-.336.566h-8.129c-.792-1.121-1.516-2.399-2.127-3.847zm-5.185-9.556c.668 0 1.85.001 2.484.001.031.054.058.112.097.155-.03.011-.062.012-.092.027-.359.175-.494.543-.485.859l.003.096c.026.443.327.758.665.953.139.081.291.138.444.192-.132.136-.187.301-.207.424l-.011.131c.007.389.263.678.547.902.058.045.125.076.187.116h-3.334c-.178-1.201-.277-2.488-.298-3.856m-.011-4.741h4.903c-.143.203-.198.444-.207.702v.025c.003.247.094.535.179.793.017.049.033.094.048.138-.26.081-.509.295-.636.643-.036.094-.055.2-.055.313-.002.347.198.764.664 1.102-.012.006-.025.007-.038.014-.046.021-.09.053-.133.086h-.595c-.026-.07-.049-.141-.095-.205-.135-.188-.357-.312-.624-.357l-.156-.013c-.329-.007-.676.204-.82.575h-2.435zm13.923-1.704c-.033-.063-.063-.128-.105-.181-.09-.112-.204-.193-.329-.254.025-.084.041-.172.041-.268.006-.567-.367-1.141-1.02-1.231l-.169-.012c-.243-.002-.475.088-.633.255-.16.166-.247.387-.289.634l-.002.023c-.026-.003-.049-.017-.077-.016-.258-.004-.481.123-.609.289-.131.166-.191.356-.226.532l-.017.191c.003.167.039.341.109.503-.034.003-.072.007-.097.01l-.002.001c-.051.005-.112.035-.171.061-.121-.125-.266-.227-.455-.262l-.119-.012c-.029.001-.051.013-.079.016.04-.133.066-.259.066-.375.002-.249-.1-.46-.243-.588-.142-.13-.306-.187-.45-.203l-.058-.003c-.215.005-.449.098-.668.289-.01.009-.016.026-.026.036-.106-.05-.221-.082-.345-.081l-.077.003c-.106.008-.201.055-.29.108-.029-.167-.08-.325-.181-.452-.147-.186-.383-.296-.633-.293-.316-.004-.589.16-.749.393-.162.233-.235.524-.235.832 0 .1.031.187.05.279-.039-.013-.083-.023-.144-.025-.233-.002-.448.098-.585.259-.08.093-.129.203-.162.321h-4.944v-3.868h13.923zm14.755 5.528h-13.923v-8.616h13.923zm-19.975 9.319c.01-.063.021-.098.033-.137.064.05.129.122.195.157.143.076.299.106.444.105l.054-.002h.001c.288-.005.53-.148.665-.339.205-.283.258-.617.355-.915.094-.302.208-.548.43-.698.169-.121.471-.172.777-.208.316.309.526.58.66.817.298.523.286.934.397 1.452h-4.046c.013-.083.024-.166.035-.232m-2.871-1.542c.033-.051.049-.096.075-.144.008.006.012.016.019.021.029.024.067.038.099.059-.08.038-.162.077-.228.109.011-.015.025-.03.035-.045m1.966-1.063.001-.001zm-1.722-4.501.002.005zm-.039.043.009.003zm-.86-3.949.064.005.241-.092.037-.257c-.001 0-.081-.194-.161-.43-.081-.232-.156-.524-.152-.63v-.006-.002c.006-.216.054-.365.115-.44.062-.072.137-.121.343-.126l.006.001.203.042.115.137c.014.024.026.054.039.086.052.134.091.266.115.394.024.123.033.234.038.344.002.032.008.07.009.101l-.002.176-.001.017v.016l.086.125.066.108.008-.001.004.006.173-.041.102-.021c.005-.004.011-.008.016-.013.046-.047.1-.091.16-.124.054-.029.104-.042.153-.047.009 0 .02-.006.029-.006l.193.047c.007.003.009.005.015.008l.15.161c.002.006.005.012.008.018.031.086.045.201.045.311v.008l-.006.181c-.03.199-.097.398-.369.757l.029.342.342.005.042-.033.362-.181h.008c.093.019.147.042.195.074.011.007.023.013.033.022.018.016.031.048.046.07-.027.038-.053.061-.078.109-.047.093-.072.22-.09.352-.005.036-.024.058-.025.098v.012c0 .004-.002.006-.002.01 0 .003.001.006.001.009v.022c.001.157.04.292.089.417.003.01.007.021.011.03.009.022.016.047.026.068-.027.005-.054.012-.081.02-.017.004-.03.001-.048.007-.115.039-.245.121-.321.263-.005.01-.003.021-.008.031-.046.094-.069.194-.076.295-.001.018-.013.034-.013.051 0 .02.014.036.015.055l.012.12c.015.071.047.131.074.194.013.032.021.069.037.099.069.121.162.232.27.335.008.008.012.018.02.026.014.013.035.022.049.035.107.089.217.168.323.232-.02.009-.041.026-.061.037-.059.03-.118.064-.176.11-.007.005-.013.007-.02.012-.002.002-.004.006-.006.008-.036.029-.079.051-.11.085-.047.053-.072.114-.099.174-.001.002-.002.003-.002.004-.049.108-.08.219-.088.326l-.002.055c0 .002-.001.003-.001.005v.017c0 .004.003.006.003.01.001.126.038.245.093.359.009.021.007.048.017.068-.019-.005-.039-.013-.058-.018l-.116-.013c-.013-.002-.034-.009-.046-.01h-.027c-.074-.002-.147.017-.215.046-.025.01-.046.025-.069.039-.02.013-.044.02-.061.036l-.023.035c-.003.003-.007.005-.01.008-.006-.002-.011-.003-.017-.004l-.089-.027c-.112-.041-.239-.098-.366-.163-.026-.014-.049-.03-.075-.044-.086-.051-.17-.101-.242-.155-.069-.053-.131-.106-.185-.159-.029-.029-.057-.056-.081-.084-.038-.046-.074-.088-.097-.132-.037-.067-.067-.133-.067-.189.037-.006.105-.013.208-.03l.013-.007.023-.003c.052-.01.117-.044.177-.094l.032-.015c.088-.081.131-.211.128-.321l-.001-.029v-.002c-.001-.038-.014-.067-.018-.103l-.001-.046-.004-.043c-.005-.026-.018-.05-.024-.075-.014-.057-.031-.112-.053-.166-.02-.047-.043-.092-.068-.136-.017-.03-.028-.063-.046-.091l-.048-.057-.019-.017c-.012-.013-.017-.03-.03-.043-.021-.022-.055-.033-.079-.053l-.091-.08-.044-.032c-.014-.007-.036-.005-.051-.012-.074-.035-.164-.049-.255-.063-.045-.006-.076-.03-.125-.031l-.029.003c-.001 0-.003-.001-.004-.001h-.012-.001-.004v.001c-.005 0-.008.002-.013.002l-.019.002c-.152-.018-.232-.065-.288-.127l-.05-.156-.07-.172c-.007-.015-.008-.029-.015-.044l-.006-.008-.014-.034c-.006-.01-.022-.016-.028-.026l-.007-.01-.08-.076c.017-.089.05-.133.143-.19.118-.063.318-.1.514-.135.107-.02.19-.106.206-.215.015-.108-.04-.215-.138-.264l-.395-.199c-.439-.282-.534-.575-.536-.757l.021-.13c.123-.298.27-.345.413-.353m2.858-4.023c.012-.028.024-.052.037-.078-.013.026-.025.05-.037.078m6.814 15.267-.094-.281v-2.173l.08.002.139.044.044.058-.001.013c-.002.048-.068.312-.068.594 0 .224.038.488.205.721.258.354.656.465.979.464.137 0 .266-.019.381-.051l.259-.038c.128-.001.22.033.27.071l.303.002.091-.289-.015-.103c-.001-.105.042-.256.147-.412.129-.196.233-.465.235-.77.001-.214-.057-.448-.207-.654-.194-.264-.476-.38-.711-.445-.231-.064-.457-.082-.492-.092l-.002-.001-.039-.024-.019-.104.005-.061.066-.101.066-.046.027.007c.027.011.172.096.341.171.174.076.392.152.638.153l.31-.047c.294-.096.5-.302.624-.519.125-.218.181-.45.189-.65.009-.265.111-.441.196-.497l.094-.287c-.034-.106-.134-.177-.246-.176h-.005c-.098.004-.283-.079-.442-.285-.199-.25-.551-.514-1.01-.519-.108 0-.22.016-.333.053-.31.103-.507.336-.642.54-.131.201-.218.41-.239.442l-.054.032-.112-.025-.032-.015-.098-.159.019-.037c.024-.03.195-.178.345-.365.152-.192.311-.451.314-.778 0-.309-.131-.569-.298-.754-.168-.188-.371-.312-.559-.383-.132-.049-.263-.113-.355-.179l-.141-.147c-.033-.106-.13-.179-.241-.181h-.006v-.346h13.91c-.051 3.373-.621 6.222-1.51 8.627zm-.149-8.008.055-.017zm.746 3.105.018.014.009.007.016.011c.02.008.182.119.43.124.158.007.382-.081.494-.284.061-.107.12-.26.227-.422.103-.16.235-.292.372-.334h.001l.174-.028c.235-.006.491.169.608.323.126.159.272.283.431.367-.078.161-.127.343-.136.544-.004.118-.043.282-.121.415-.079.135-.186.238-.34.289l-.152.022c-.133.001-.293-.048-.432-.11-.143-.063-.248-.128-.343-.172l-.231-.049c-.242.003-.395.149-.48.255-.087.11-.127.207-.133.22l-.013.04c-.002.013-.021.091-.021.203.001.094.011.214.077.341.062.127.203.25.38.285.122.026.285.036.471.087.183.049.349.134.432.252.078.11.109.228.11.355.001.179-.072.373-.15.487-.112.17-.173.348-.203.526-.056-.008-.11-.022-.168-.023-.129 0-.262.02-.398.058l-.242.032c-.22-.001-.435-.071-.566-.254-.075-.102-.108-.255-.108-.421 0-.218.051-.411.066-.546v-.001l.003-.06c.003-.287-.21-.47-.357-.53-.154-.071-.28-.079-.297-.082h-.017l-.102-.002v-.377c.03.003.058.016.089.016.404 0 .732-.327.732-.732 0-.375-.283-.685-.646-.727.18.102.302.296.302.519 0 .287-.207.515-.477.572v-3.926c.032.027.06.059.093.083.144.101.308.179.473.241.111.04.253.128.355.243.103.117.168.251.168.415.003.144-.082.311-.202.459-.12.151-.247.256-.33.347-.097.109-.147.25-.145.374.019.362.268.531.279.554m-3.481-7.552c-.034.02-.064.04-.094.061.03-.021.06-.041.094-.061m-.364 6.421c.023-.047.043-.097.07-.138-.027.041-.047.091-.07.138m-1.131-1.551c.098-.096.202-.186.319-.253-.117.067-.221.157-.319.253m.452-.142c-.001.013-.002.029-.004.042.002-.013.003-.029.004-.042m-.401-1.822c-.008-.006-.015-.011-.023-.018.008.007.015.012.023.018m.995 5.918c-.164-.031-.318-.075-.46-.128-.171-.064-.299-.131-.385-.194-.005-.004-.009-.007-.014-.011-.038-.028-.067-.055-.092-.08l-.118-.234-.067-.119-.029-.07-.012-.002-.005-.01-.191-.024-.037-.006c-.096.034-.228.054-.354.059-.012.001-.024.003-.036.003-.114.001-.225-.017-.303-.05l-.093-.082-.028-.029-.039-.089v-.004l.121-.253.099-.1.032-.026.007-.006.009-.021c.053-.043.095-.099.1-.171.002-.016-.009-.028-.011-.044l.005-.011-.011-.012c-.018-.088-.069-.166-.157-.195-.23-.075-.422-.153-.585-.23-.018-.01-.034-.019-.052-.028-.147-.074-.272-.147-.36-.218-.184-.152-.232-.265-.239-.382 0-.007-.004-.011-.004-.018l.001-.015c.004-.128.047-.192.124-.261l.253-.122c.007-.003.01-.005.018-.008l.23-.074.202-.064c.107-.033.179-.131.179-.243s-.072-.21-.179-.244l-.066-.024c-.092-.033-.176-.072-.258-.112-.086-.042-.171-.091-.262-.15-.055-.037-.112-.073-.158-.112-.041-.033-.073-.068-.107-.102-.043-.046-.081-.091-.109-.134-.032-.05-.059-.099-.071-.147-.006-.021-.015-.042-.018-.06l-.007-.072.039-.116.185-.041h.002l.044.003.166.019.103-.044.162-.064v-.004l.004-.002-.006-.121-.002-.163c-.008-.01-.012-.019-.019-.029-.09-.121-.151-.228-.192-.324-.028-.061-.039-.122-.049-.183-.006-.037-.023-.081-.023-.113v-.005c.009-.117.029-.188.058-.244.03-.059.071-.11.119-.155l.006-.002c.005-.006.015-.011.021-.016.046-.048.123-.088.223-.111.029-.007.053-.019.087-.02.019 0 .034.003.052.004.087.004.162.018.211.043.004.002.01.003.014.005l.087.091c.005.011.009.027.014.04.013.04.023.096.027.171.001.016.004.027.004.046 0 .093-.015.217-.043.36l-.004.017c-.001.003.001.006 0 .009v.003l.001.002c-.024.109.02.221.118.277l.101-.015.183-.007.024-.024.004-.001.058-.061.02-.02.104-.108.094-.05.147.062c.008.008.018.021.027.031.024.026.048.062.075.108.009.015.018.025.026.042.043.094.076.204.103.315.021.086.036.162.046.233.004.028.008.054.01.081.012.116.019.231.019.339 0 .073-.003.138-.007.203-.002.042-.004.08-.007.117-.001.012-.002.025-.003.037-.012.097-.027.199-.044.332-.004.033.009.062.017.093.005.017.002.036.01.052.017.034.048.058.079.082.011.009.016.024.029.03h.002c.002.001.002.003.004.004l.293-.049.002-.002h.001c.077-.081.144-.133.205-.172.01-.007.021-.016.031-.022.058-.034.108-.051.141-.048l.034.004c.015.003.024.007.036.011.035.011.065.021.083.031.007.005.012.008.017.012.012.009.021.018.028.026.003.004.007.015.011.022.012.022.02.067.026.133.002.017.005.027.006.048 0 .12-.023.281-.045.457-.019.111-.037.221-.038.339-.001.111.016.227.053.343.02.061.063.122.095.183.029.054.045.109.084.162l.008.003c.004.006.005.012.009.017l.141.048.08.036.007-.006.009.003.162-.135.028-.021c0-.001.001-.002.001-.003h.001c.004-.011.009-.017.013-.027.033-.074.065-.127.096-.167.063-.08.121-.104.163-.106.065-.005.21.069.335.267.119.197.213.515.221.936v.002.016l.001.165c.001.086-.002.176-.005.265-.001.033-.001.071-.003.102-.003.047-.007.091-.01.136-.021.222-.052.389-.087.521-.142.037-.323.064-.537.063-.063 0-.132-.014-.198-.018-.162-.009-.325-.019-.491-.054m-.943.213c-.12-.064-.216-.133-.297-.204.081.071.177.14.297.204m-2.269-2.387c-.062-.027-.122-.053-.184-.075.062.022.122.048.184.075m.128-1.346c-.054-.027-.107-.053-.158-.083.051.03.104.056.158.083m-.254-3.555c.075.037.142.084.203.14-.061-.056-.128-.103-.203-.14m.098.459.001-.001zm5.28 4.904c-.02.047-.041.097-.06.136-.002.003-.003.004-.004.007l-.079.129-.042.052h-.005l-.022-.004c-.018-.393-.117-.745-.284-1.011-.001-.001-.001-.002-.001-.003-.181-.298-.446-.504-.761-.507-.003 0-.005.001-.007.001h-.002c-.16-.001-.305.06-.429.163 0-.107.015-.224.033-.35.024-.15.042-.29.042-.409 0-.006-.002-.011-.002-.017 0-.005.001-.011.001-.016 0-.084-.012-.174-.037-.263-.005-.021-.019-.043-.027-.064-.017-.046-.028-.093-.057-.138-.009-.012-.025-.02-.034-.032s-.012-.028-.022-.04c-.026-.029-.057-.041-.086-.064-.031-.024-.061-.051-.094-.069-.062-.035-.13-.063-.203-.082-.012-.003-.021-.011-.033-.013l-.011-.002c-.007-.001-.014-.005-.021-.007l-.133-.014c-.084.001-.163.039-.244.07 0-.001 0-.003 0-.004.004-.058.011-.11.011-.175 0-.11-.006-.232-.019-.377-.001-.009-.005-.027-.006-.038-.004-.041-.014-.099-.022-.153-.011-.072-.027-.145-.043-.219-.012-.051-.016-.102-.031-.153-.018-.061-.041-.11-.062-.162-.004-.011-.005-.022-.01-.033-.001-.004-.005-.008-.007-.012-.019-.043-.038-.083-.059-.12l.08.005.116.011c.122.022.242-.047.285-.163.042-.113-.004-.238-.105-.302-.001 0-.001-.002-.002-.002l-.001-.001c-.001-.001-.002-.003-.003-.004l-.015-.009c-.092-.064-.185-.135-.276-.213-.077-.066-.152-.139-.224-.219-.023-.025-.041-.049-.063-.076-.071-.086-.136-.182-.197-.288-.025-.043-.052-.08-.074-.125-.072-.149-.129-.312-.15-.489-.002-.008-.004-.017-.005-.025l-.006-.1c0-.04.003-.067.008-.089l.003-.016c.005-.019.011-.034.017-.044l.041-.031.099-.026c.055 0 .133.016.217.038.021.006.04.011.062.018.093.03.194.068.303.122h.002c.001.001.002.002.003.002h.001c.005.002.008.005.012.007.125.056.272.003.333-.12s.014-.272-.106-.337c-.005-.003-.012-.006-.017-.008v-.001c-.002-.001-.004-.002-.005-.002-.256-.121-.426-.246-.53-.356-.102-.114-.142-.215-.138-.283.002-.083.058-.187.218-.298.04-.024.088-.048.143-.071.052-.018.125-.028.199-.034l.017-.002c.117-.001.247.029.359.077.036.016.071.029.11.052.047.035.087.072.116.119.003.005.008.009.011.014.033.058.052.133.055.241l-.001.009c-.001.081-.013.18-.049.3-.004.017.005.033.003.051-.003.039-.008.078.006.115.004.009.014.013.019.022.021.039.043.078.084.103l.005-.001c.001.001.001.002.003.003l.228-.035.082-.011.002-.002c.074-.08.133-.121.187-.158.032-.021.054-.037.077-.047.031-.014.064-.028.076-.027l.106.099c.012.022.024.045.035.077.006.014.011.03.015.046.015.049.028.106.037.17.004.036.009.072.01.108l.004.065-.009.1c-.004.068-.017.131-.029.195-.018.099-.041.197-.074.285-.004.01-.008.018-.011.028-.039.099-.083.192-.126.268l-.122.191-.037.049-.01.013-.001.168-.004.156c.001.001.002.001.003.002v.002l.006.001c.078.09.208.117.313.059l.01-.005c.092-.053.189-.09.284-.119l.029-.01c.101-.027.199-.041.285-.041.002 0 .003.001.004.001l.22.039c.006.003.007.006.012.008l.104.11c.012.024.023.04.036.076l.096.427c.009.064.015.102.017.126l.008.128c-.001.114-.016.24-.115.481-.092.224-.188.404-.202.676-.006.132.091.242.22.261l-.001.004c.01.01.291.056.511.739v.506c-.053.24-.118.496-.199.752-.063.19-.119.342-.168.458m3.828 14.88-2.629-1.664v-6.542l1.239 3.714c.035.103.133.174.242.174h2.672l-2.157 1.574-.094.278zm-6.499-23.657.182.013c.121.023.241-.044.286-.158.044-.114.001-.245-.103-.31-.132-.07-.258-.339-.252-.542l.008-.095c.024-.127.07-.244.124-.309.057-.065.097-.094.21-.098l.062.021.119.182c0 .001 0 .001.001.002l.005.007c.084.111.241.135.354.053.113-.081.139-.238.059-.352l-.034-.17.017-.175v-.001c.03-.181.089-.299.152-.363.064-.063.132-.097.266-.1l.099.008c.368.052.573.355.579.725l-.027.155-.086.063c-.105.053-.161.173-.133.287.027.115.13.196.248.196h.211l.187.138.11.285-.136.209c-.092.072-.232.124-.399.134-.033.001-.06.004-.105.004h-.029c-.138-.002-.251.106-.257.244s.098.255.235.265l.017.001h.003l.089.004c.016 0 .029-.007.046-.008.117-.005.203-.013.241-.012l.15.028c.126.041.195.105.253.205.057.1.089.239.094.384l.007.251c0 .198-.019.417-.078.578-.063.163-.135.249-.277.295-.115.035-.19.145-.181.265.01.12.102.216.221.232.191.03.233.068.278.131.047.068.088.228.104.485.012.165.02.362.02.552.001.077-.001.153-.004.227-.016-.036-.039-.064-.06-.095-.017-.029-.024-.061-.046-.089-.004-.005-.011-.005-.016-.011-.073-.078-.156-.14-.243-.178-.012-.006-.024-.007-.037-.012-.027-.011-.054-.016-.081-.024-.123-.037-.244-.056-.35-.057l-.152.013c.002-.004.003-.008.005-.012.012-.029.024-.055.035-.085.036-.099.061-.213.085-.329.006-.033.019-.06.024-.094h.001c.001-.002 0-.005.001-.008 0-.002.001-.004.001-.006l-.001-.001c.013-.065.015-.133.02-.201.001-.028.011-.05.011-.078l-.002-.026c0-.004.001-.008.001-.012 0-.017-.004-.035-.005-.052l-.009-.148c-.002-.015-.007-.028-.009-.042-.011-.072-.026-.139-.044-.205-.012-.042-.025-.082-.041-.123-.013-.032-.018-.068-.033-.1s-.038-.063-.059-.094c-.003-.005-.004-.011-.007-.016-.001-.002-.004-.003-.006-.005-.045-.069-.11-.129-.182-.178-.018-.011-.038-.021-.057-.031-.077-.04-.16-.07-.251-.07-.003 0-.006-.002-.009-.002h-.001c-.003 0-.005-.001-.008-.001-.086.003-.151.031-.217.057-.005-.041-.012-.08-.021-.122-.002-.006-.004-.012-.005-.018-.033-.136-.101-.273-.217-.393-.013-.013-.027-.025-.041-.038-.028-.024-.048-.052-.08-.074-.011-.007-.021-.008-.031-.015-.009-.006-.018-.016-.028-.022-.048-.031-.099-.04-.149-.062-.192-.089-.382-.142-.546-.141-.083 0-.156.011-.225.023 0-.004 0-.006 0-.011 0-.155-.028-.343-.079-.54-.017-.065-.038-.127-.062-.189.066-.009.18-.02.29-.019m-1.883-.413.023.291.282.078c.151-.059.356-.147.446-.141l.023.002h.001c.119.022.218.11.304.275.036.075.059.151.079.227.038.14.065.29.064.442 0 .083-.011.159-.022.235-.003.003-.006.005-.009.008-.033.025-.064.051-.092.079-.04.04-.076.082-.108.127-.017.023-.031.048-.045.073-.026.043-.049.087-.066.134-.022.068-.038.137-.041.211 0 .008-.004.015-.004.024v.002c0 .004-.002.008-.002.012 0 .151.061.294.144.43h-.001c-.007.003-.013.009-.02.012-.011.004-.02.012-.03.017-.065.025-.126.062-.18.112-.008.007-.018.008-.026.015-.014.015-.019.037-.031.053-.025.029-.056.054-.073.087-.016.029-.022.059-.033.088-.004.009-.007.018-.01.027-.033.095-.052.191-.052.283 0 .037.014.067.017.103l.005.067c.005.037.018.068.024.104.018.097.038.192.067.28.019.054.037.1.057.145.016.038.033.091.047.121.008.016.017.027.025.043.055.108.114.208.177.3.014.02.026.042.04.062.09.122.183.229.276.322-.01.003-.02.006-.029.01-.064-.025-.134-.037-.206-.042-.013-.001-.028-.012-.041-.012-.003 0-.004.002-.007.002-.002 0-.003 0-.004 0l-.045.001c-.042.003-.068.023-.103.033-.007-.114-.023-.232-.074-.353-.043-.105-.13-.2-.236-.28-.013-.01-.019-.031-.034-.04-.022-.014-.043-.014-.064-.025-.019-.009-.03-.025-.049-.032v-.001h-.001c-.025-.009-.047-.006-.071-.014-.114-.037-.226-.061-.33-.065-.013 0-.028-.008-.041-.008-.006 0-.01.003-.016.004-.004 0-.011-.002-.015-.002l-.036.001c-.072.002-.143.028-.213.05-.018-.036-.029-.076-.064-.101-.002-.002-.021-.013-.027-.017v-.001c-.168-.089-.494-.409-.647-.572l.004-.049-.004-.069v-.007c0-.004-.001-.009-.002-.013l-.012-.196-.029-.148-.023-.112c-.002-.005-.007-.011-.009-.017-.003-.008-.003-.016-.007-.025-.016-.044-.053-.086-.079-.13-.024-.04-.04-.081-.072-.118-.024-.028-.059-.045-.088-.07l.009-.023c.012-.015.025-.03.041-.042.006-.004.013-.008.02-.012.044-.024.109-.046.211-.059l.016-.001.136-.013c.106-.008.221-.018.347-.034l.049-.005h.001c.005-.001.009-.001.015-.002l.145-.135.062-.053-.002-.003.003-.003-.102-.266-.127-.098c-.118-.095-.297-.253-.437-.427-.017-.021-.025-.041-.041-.063-.11-.152-.185-.307-.182-.417l.002-.037v-.001c.005-.043.014-.066.021-.094.005-.018.013-.048.016-.059.006-.014.011-.022.016-.029.004-.005.006-.012.011-.018l.057-.017c.063-.002.183.042.291.088.006.003.011.004.017.007h.001c.004.001.008.003.012.005l.17-.032.1-.014.001-.004.005-.001.062-.273c0-.003-.001-.004-.002-.006-.061-.166-.084-.305-.085-.422 0-.008-.001-.014-.001-.023.002-.109.025-.197.058-.274.008-.021.017-.04.027-.058.038-.07.082-.132.136-.182.119-.113.287-.162.326-.158l.004.001.158.07c.042.042.076.089.079.213 0 .127-.051.34-.228.642m-3.582.597-.009-.101c0-.112.035-.198.081-.25l.191-.079c.02.005.135.055.235.113.118.065.215.126.276.158l.301-.054.034-.303c-.15-.257-.234-.465-.234-.682-.001-.225.057-.419.143-.538.088-.119.179-.173.331-.177.119.003.179.037.235.103.055.067.101.189.101.366l-.018.204.119.26.286-.014c.159-.119.265-.199.332-.24l.091-.044.035-.001.051.02c-.04.11-.07.234-.07.376-.001.01.002.017.002.027 0 .005-.003.009-.003.014 0 .012.007.027.007.039.002.046.007.087.011.129-.025-.003-.049-.012-.075-.012h-.003-.001c-.068-.001-.144.011-.218.04-.028.01-.05.034-.077.049-.041.023-.085.04-.12.077-.003.002-.003.005-.005.008-.003.003-.007.003-.01.006-.05.055-.084.12-.114.188-.004.009-.012.017-.015.025-.006.015-.009.032-.014.048-.014.048-.027.098-.037.13l-.009.068c-.001.011-.005.02-.007.031v-.001.001l-.002.04-.008.062c.007.258.115.475.25.666.087.124.182.239.276.337.004.004.008.008.012.012-.014.001-.029.007-.043.009-.037.004-.073.006-.11.015-.019.005-.038.015-.057.021-.061.02-.122.045-.182.082-.007.005-.014.005-.021.01-.008.005-.013.015-.02.02-.035.025-.071.044-.103.076-.028.029-.046.069-.069.103-.011.018-.024.033-.034.052-.008.014-.02.025-.027.04-.039-.005-.075-.028-.115-.028-.002 0-.005.002-.007.002-.001 0-.002-.001-.003-.001-.11.001-.205.024-.291.055-.005-.066-.018-.134-.031-.205-.003-.019-.006-.037-.01-.056-.008-.039-.01-.076-.021-.115-.036-.121-.074-.25-.124-.379-.009-.024-.011-.047-.021-.072h.001c-.001-.001-.001-.001-.001-.001-.001-.003-.001-.004-.002-.005h-.001c-.012-.031-.034-.052-.049-.081-.014-.024-.019-.049-.034-.073-.006-.01-.019-.015-.026-.024-.058-.087-.137-.165-.237-.223-.007-.004-.012-.011-.019-.015-.001 0-.002-.001-.002-.001-.137-.072-.274-.094-.4-.099-.004 0-.007-.003-.012-.003h.002l-.023-.001c-.005 0-.011-.001-.016-.001-.048 0-.083.01-.126.015-.061-.07-.099-.126-.117-.218m-1.997 8.097.073-.165c.045-.045.158-.115.404-.174.119-.029.2-.138.195-.259-.006-.122-.096-.223-.217-.242-.321-.048-.678-.151-.937-.304-.263-.157-.401-.332-.414-.544l-.002-.065c.009-.22.049-.318.206-.404.033-.024.201-.049.499-.074.108-.01.198-.088.224-.194l-.111-.274c-.16-.102-.29-.184-.365-.268-.073-.085-.113-.158-.117-.333l.011-.144c.037-.243.203-.333.383-.341l.067.006c.178.033.251.089.3.154.049.066.08.171.08.325 0 .092-.011.197-.031.31s.038.226.142.275l.302-.063.271-.106.075.01.079.027.095.091c.036.087.071.195.1.293l.043.28c-.002.15-.035.279-.163.416l-.013.338c.082.1.225.123.334.054l.045-.043.003.003c.006-.005.007-.012.012-.018l.046-.045c.074-.097.161-.237.266-.355.101-.118.204-.173.236-.169l.016-.001c.069.001.121.013.166.029.007.002.017.002.022.005.014.005.022.015.033.022l.104.091c.058.069.107.162.131.283l.002.08c-.025.002-.043.01-.086.016-.035.005-.065.008-.108.016l-.062.035c-.023.008-.037.006-.06.017-.015.008-.021.025-.034.034l-.092.051c-.017.017-.012.045-.026.065-.067.092-.115.196-.111.301.002.051.029.095.04.143.014.06.023.121.049.177.013.031.029.061.045.091.102.193.255.357.423.491.03.023.064.039.094.061.091.065.183.124.278.178.039.023.077.047.119.07.041.022.075.049.119.07.105.049.196.08.284.109.005.002.01.005.015.007l.002.001c.007.002.02.006.027.009.02.007.046.016.073.026l.006.079c.005.039.014.083.022.125-.085-.031-.176-.061-.266-.083-.031-.008-.063-.006-.095-.012-.206-.044-.421-.08-.613-.08-.005 0-.009.001-.014.001-.017 0-.032-.006-.049-.006-.039 0-.074.014-.111.019-.04.005-.08.009-.119.019-.046.011-.092.031-.138.053-.024.01-.047.011-.07.026-.012.007-.016.019-.026.026-.098.07-.182.149-.236.237h-.001c-.053.088-.075.182-.079.274-.001.011-.01.021-.01.033.001.005.003.009.003.015-.22-.12-.445-.23-.689-.289-.226-.054-.529-.195-.754-.37-.231-.175-.357-.38-.349-.499zm.988 3.107-.257.087c-.103.127-.219.271-.341.374-.124.105-.238.158-.346.158l-.236-.074c-.091-.059-.115-.111-.121-.223-.012-.236.263-.655.642-.797l.159-.208-.107-.238c-.127-.091-.142-.158-.142-.187l.077-.112c.065-.047.187-.092.358-.091l.107.005c.061.014.461.101.869.102.139-.004.279-.012.414-.047h.004c.016-.003.025-.011.04-.015.044-.013.085-.028.12-.046.063-.033.111-.065.125-.077l.004-.008c.008-.006.016-.009.023-.015l.054-.126.027-.048-.003-.007.002-.004-.08-.185-.082-.143.034-.059c.011-.014.033-.034.059-.055l.147-.047c.026-.002.05-.005.08-.005.226.004.453.037.66.095.006.001.01.004.017.006.214.061.409.141.562.225l.006.003.28-.029.007-.022.076-.247s-.002-.009-.003-.01c-.024-.078-.041-.148-.058-.22-.012-.047-.024-.093-.033-.136-.016-.088-.028-.171-.028-.231l.015-.101.005-.01.001-.001.013-.001.079.01c.228.051.472.14.672.258.072.042.132.09.188.14.037.031.08.06.109.094.064.075.102.152.122.227.003.01.012.019.015.029l-.003.04c0 .002-.001.003-.001.005l.02.125-.095-.005c-.002 0-.004-.001-.006-.001s-.003.001-.004.001c-.17.001-.331.027-.481.071-.046.014-.083.04-.127.058-.091.036-.186.067-.266.119-.007.005-.012.014-.02.019-.005.004-.012.005-.017.009-.041.029-.066.073-.103.107-.065.059-.133.115-.18.187-.04.061-.05.134-.073.203-.022.064-.063.118-.068.189l-.002.055c0 .015.009.025.01.04.006.079.025.155.057.229.009.022.012.049.024.069-.138-.004-.276-.016-.407-.034-.089-.013-.178-.026-.25-.039l-.077-.007c-.031-.005-.071-.012-.099-.015l-.1-.004-.022-.003c-.002 0-.004.001-.006.001h-.003c-.095-.002-.183.011-.264.033-.018.005-.033.015-.05.021-.061.019-.119.044-.171.076-.007.005-.017.007-.024.012-.016.01-.024.025-.038.036-.045.036-.088.074-.122.118-.011.013-.022.027-.031.041-.011.016-.027.031-.035.048-.014.023-.014.041-.024.063-.011.025-.029.048-.038.073l-.012.064c-.03.108-.042.201-.043.239v.008c.008.012-.06.26-.185.432-.126.186-.283.302-.424.297l-.092-.012-.09-.071c-.054-.07-.105-.206-.136-.34-.033-.137-.047-.26-.067-.351zm1.438 3.276.187-.191c.067-.084.128-.216.126-.361 0-.137-.111-.251-.248-.255-.213-.012-.257-.07-.304-.136l-.058-.244v-.006c-.01-.228.24-.518.449-.612.203-.099.523-.247.76-.367.097-.049.152-.156.136-.265-.016-.108-.099-.194-.207-.214-.181-.031-.342-.103-.442-.186l-.137-.233.033-.123.07-.097c.006-.006.009-.013.017-.018.006-.004.016-.007.023-.01.04-.021.096-.038.189-.04.003 0 .004-.001.006-.001l.029.002.125.012c.091.012.208.031.349.051.04.005.082.01.124.015.127.015.26.027.399.027.095 0 .194-.029.291-.042.093-.012.186-.009.277-.039l.002-.001h.001l.01-.012.158-.18-.004-.012.009-.012-.042-.083-.047-.136-.034-.024-.002-.003c-.033-.021-.055-.039-.08-.058-.041-.029-.076-.062-.107-.096-.008-.009-.02-.02-.026-.029-.03-.042-.04-.079-.045-.112-.001-.009-.004-.02-.004-.029-.001-.011.011-.027.013-.04.006-.035.015-.072.042-.114.024-.037.066-.074.108-.11.019-.017.031-.034.054-.05.054-.038.125-.067.195-.095.028-.01.048-.025.077-.034.103-.03.214-.048.328-.049.003 0 .005-.001.008-.001l.011.001c.083 0 .172.023.259.042.066.014.129.022.201.046.037.013.073.027.11.041.116.044.236.095.36.158.018.01.037.019.054.028.056.03.112.065.169.098.505.32.914.609 1.248.874.03.025.058.048.086.071-.193.043-.386.11-.563.227-.498.348-.604.897-.722 1.284-.056.197-.116.358-.183.446-.071.085-.118.122-.277.134l-.035.001-.207-.046c-.07-.036-.165-.11-.298-.247l-.319-.037c-.173.107-.266.278-.308.425-.062.223-.061.424-.105.57-.048.145-.086.225-.28.316l-.093.018c-.104-.002-.257-.058-.395-.339l-.245-.146c-.152.006-.307.078-.395.191-.13.171-.136.341-.153.483-.011.144-.021.272-.046.338v.001l-.006.009c-.039.082-.327.248-.451.233-.159.001-.261-.034-.303-.068-.039-.035-.071-.07-.075-.218.007-.182.051-.215.153-.321m5.688 8.718c.004-.386.092-.854.404-1.302.314-.45.454-.6.572-.748.123-.152.211-.303.349-.639.047-.114.006-.246-.099-.313l-.326.043-.11.112c-.213.213-.739.633-1.125.664l-.273.012-.268-.002c-.299-.007-.648.053-1.046.265.087-.14.178-.25.279-.337.24-.209.592-.35 1.1-.614.442-.234.803-.343 1.18-.776.35-.406.455-.758.719-1.135.097-.151.134-.321.184-.563.137-.708.224-1.926.225-2.866-.001-.474-.02-.863-.08-1.119-.111-.445-.085-.982-.461-1.648-.24-.422-.634-.882-1.305-1.423.218.039.436.065.65.072.03 0 .065.01.094.01.158-.001.299-.013.432-.032.007-.001.015 0 .021-.001.046-.007.084-.023.128-.032.089-.018.181-.034.259-.063l.018-.019c.003-.002.008-.002.011-.004l.116-.121c.002-.005.002-.011.004-.016l.004-.004c.041-.132.084-.305.117-.528.008-.056.015-.12.021-.183.014-.136.024-.287.026-.459.003 0 .004.001.007.001l.022-.007.215-.048c.011-.007.015-.017.026-.023l.025-.008c.042-.031.075-.071.11-.11.017-.018.038-.032.054-.052.038-.049.072-.112.107-.176v12.539c-.005 0-.008-.001-.013-.001-.333.002-.793.044-1.199.281-.274.161-.523.372-.763.699-.133.182-.268.405-.411.674m-11.068-13.115h2.686c0 .005-.004.009-.004.013 0 .121.038.235.102.339-.387.269-.643.673-.653 1.091-.006.25.121.519.371.662.163.097.333.146.496.145.279-.001.505-.134.676-.279.027-.023.038-.045.063-.069.006.019.008.036.014.055.039.118.091.241.175.354.082.112.206.217.37.26l.221.028c.109-.001.208-.024.299-.059-.137.179-.234.4-.243.657v.013c.001.111.011.309.132.51.031.055.097.095.148.142l-3.806-.002c-.434-1.176-.788-2.462-1.047-3.86m20.953 12.205c-1.812 1.578-3.628 2.603-4.987 3.232-.68.314-1.245.529-1.637.665-.016.005-.027.009-.043.014v-3.786l2.929 1.854.29-.012.091-.276-.868-2.944 2.644-1.929.092-.285c-.034-.105-.132-.176-.242-.176h-3.271l-1.262-3.784h11.634c-1.391 3.289-3.379 5.689-5.37 7.427m-7.083-27.488h-15.308v10.04c-.006 9.217 3.779 14.88 7.568 18.178 3.787 3.303 7.554 4.281 7.598 4.293l.121.032.122-.032c.043-.012 3.821-.99 7.618-4.293 3.799-3.297 7.594-8.961 7.588-18.178v-10.04z"/><path d="m18.511 26.893v5.026l.129.222c.155.083.306.09.483.093.463-.001 1.118-.124 1.731-.202.194-.025.369-.035.527-.035.618.001.976.161 1.182.305l.209.192.016.023-.004.179c-.491-.19-1.038-.319-1.639-.319-.331 0-.676.038-1.034.124-.314.074-.612.102-.881.102-.361 0-.667-.05-.881-.099l-.165-.044v-5.594c.097.015.203.028.317.028.004 0 .007-.001.01-.001m.975-.272c.347 0 .8-.059 1.356-.247.303-.102.578-.14.822-.14.384 0 .695.094.908.188l.218.114v5.311c-.296-.191-.743-.365-1.409-.361-.181 0-.378.013-.592.04-.626.081-1.289.199-1.666.198-.042.001-.069-.004-.102-.007v-5.077c.003-.018.016-.032.015-.051l-.001-.009c.124.023.267.041.451.041m5.762-.247c.556.188 1.009.247 1.356.247.184 0 .327-.018.45-.041v.009c-.001.019.012.035.015.054v5.074l-.102.007c-.377.001-1.04-.117-1.666-.198-.214-.027-.41-.04-.592-.04-.666-.004-1.113.17-1.409.361v-5.311c.167-.103.561-.303 1.126-.302.244 0 .519.038.822.14m2.345.52c.124 0 .238-.014.342-.03v5.591c-.212.056-.606.139-1.093.139-.269 0-.562-.025-.862-.094-.342-.078-.672-.113-.989-.113-.62 0-1.183.136-1.686.332l-.004-.199c.089-.125.422-.517 1.408-.523.158 0 .333.01.527.035.613.078 1.268.201 1.731.202.178-.003.328-.01.484-.093l.129-.222v-5.027c.004 0 .009.002.013.002m-8.363 6.219c.303 0 .642-.031.999-.116.319-.076.624-.109.916-.109.656 0 1.246.17 1.767.415l.009.014.244.014c.535-.253 1.147-.433 1.826-.433.279 0 .571.03.875.1.344.078.675.106.976.106.821 0 1.416-.21 1.433-.216.102-.036.17-.132.17-.24v-6.095l-.1-.203-.223-.042-.169.037c-.103.02-.24.039-.36.039l-.013-.002v-.141l-.081-.142-.037-.073h-.004l-.001-.003-.249-.008h-.001c-.022.01-.219.096-.603.096-.289 0-.685-.049-1.193-.22-.356-.121-.688-.167-.985-.167-.674.001-1.151.233-1.381.371-.23-.138-.707-.37-1.381-.371-.297 0-.629.046-.985.167-.508.171-.904.22-1.193.22-.219 0-.377-.028-.477-.054l-.105-.034-.021-.008-.249.008-.001.003h-.004l-.038.073-.08.142v.141l-.01.002c-.115 0-.244-.019-.342-.038l-.158-.038-.225.041-.102.204v6.095l.161.237c.02.007.58.227 1.395.228"/><path d="m25.552 38.349.037-.048zm-1.5-.048-.039-.045zm3.398 1.24c-.133.001-.292-.048-.431-.109-.143-.063-.247-.129-.343-.172l-.231-.05c-.242.003-.394.149-.479.255-.088.11-.127.207-.133.22l-.013.04c-.003.012-.021.091-.021.203 0 .093.011.214.076.341.062.127.203.25.38.286h.002c.119.025.283.035.469.086.183.049.349.135.432.253.079.11.11.228.111.355.001.179-.072.372-.149.485-.113.171-.174.349-.205.528-.056-.009-.11-.023-.168-.023-.129 0-.263.019-.398.058l-.242.032c-.218-.002-.434-.072-.565-.255-.075-.102-.108-.255-.108-.421 0-.219.051-.411.066-.547l.003-.06c.002-.292-.218-.472-.366-.531-.156-.069-.285-.078-.301-.08h-.042c-.017.002-.144.011-.298.081-.147.06-.362.242-.359.53l.003.061c.016.134.066.327.066.546 0 .166-.032.319-.108.421-.131.183-.347.253-.566.255l-.241-.032c-.136-.039-.271-.059-.399-.059-.058 0-.112.015-.168.023-.03-.178-.091-.356-.204-.526-.077-.114-.15-.307-.148-.486 0-.127.031-.245.11-.356.082-.117.249-.203.432-.252.186-.051.35-.061.469-.086h.001c.178-.036.319-.16.381-.287.065-.127.076-.248.077-.341-.001-.112-.019-.189-.021-.202l-.014-.04c-.005-.013-.045-.11-.133-.221-.085-.105-.237-.251-.479-.254l-.232.05c-.095.043-.199.109-.342.172-.139.061-.298.11-.431.109l-.154-.023c-.154-.051-.261-.154-.34-.289-.078-.133-.117-.296-.121-.413-.009-.201-.057-.384-.135-.544.158-.084.304-.208.43-.367.117-.154.374-.33.609-.324l.174.028c.137.042.27.175.373.334.106.162.166.316.227.423.111.201.334.289.492.281.253-.005.42-.12.44-.128l.034-.025c.011-.023.261-.192.28-.555.002-.124-.048-.264-.146-.373-.083-.091-.209-.196-.33-.347-.119-.148-.204-.316-.202-.46.001-.164.065-.297.168-.414.102-.116.245-.204.356-.244.188-.071.347-.175.475-.3.129.125.287.229.476.3.11.04.253.128.355.244.103.117.168.251.168.414.003.144-.082.312-.202.46-.121.151-.247.256-.33.347-.098.108-.148.249-.146.373.019.364.27.532.28.555l.011.009.008.006.024.016c.02.008.181.119.429.124.159.008.382-.08.494-.283.061-.107.121-.26.227-.422.103-.16.236-.293.373-.335l.174-.028c.235-.006.492.169.609.324.126.159.272.283.43.367-.078.161-.126.343-.135.544-.004.117-.043.28-.121.413-.079.135-.186.238-.34.289zm1.169-1.665h-.005c-.099.004-.283-.08-.442-.285-.2-.25-.552-.514-1.011-.52-.108 0-.22.016-.332.052-.311.104-.507.337-.642.541-.132.202-.218.411-.239.443l-.055.032-.112-.025-.031-.015-.098-.16.018-.036c.024-.031.196-.178.346-.366.152-.191.311-.451.314-.778 0-.309-.131-.569-.299-.754-.168-.188-.37-.312-.558-.383-.247-.089-.383-.241-.41-.339-.033-.107-.132-.18-.244-.18-.111 0-.211.074-.243.181-.026.097-.162.249-.408.338-.188.071-.391.195-.559.383-.167.185-.299.445-.298.754.002.327.162.587.313.778.151.188.322.335.346.366l.019.036-.048.105-.04.047-.156.046-.052-.03c-.022-.033-.108-.241-.24-.443-.135-.204-.331-.437-.642-.541-.112-.036-.224-.052-.332-.052-.459.006-.811.269-1.011.52-.16.206-.344.289-.445.285h-.008c-.111.001-.208.073-.241.179l.097.285c.083.053.186.231.194.496.009.2.064.431.19.649.124.217.329.423.622.518l.313.048c.245-.001.463-.077.637-.152.169-.075.313-.161.34-.171l.028-.008.081.064.048.072.003.006.004.065-.018.105-.041.025c-.038.01-.262.029-.493.092-.235.065-.516.181-.711.445-.15.207-.207.441-.207.655.002.305.105.573.235.769.104.157.148.308.147.414l-.015.103.092.288.303-.003c.05-.038.142-.072.269-.071l.259.039c.115.032.244.051.381.051.324.001.721-.111.98-.466.166-.232.204-.496.204-.72 0-.283-.066-.548-.068-.595v-.012l.063-.067.091-.029.009-.002.136.042.045.056v.013c-.002.046-.068.311-.068.594 0 .224.038.488.205.72.257.355.655.467.978.466.138 0 .267-.019.381-.051l.259-.039c.127 0 .22.033.27.072l.303.002.092-.289-.016-.103c-.001-.105.043-.256.148-.413.13-.196.233-.464.235-.769.001-.214-.057-.448-.207-.655-.194-.264-.476-.38-.711-.445-.231-.063-.454-.082-.494-.092l-.04-.025-.018-.104.004-.062.066-.1.066-.046.027.008c.028.01.172.096.341.171.174.075.392.151.637.152l.312-.048c.294-.095.499-.301.623-.518.126-.218.181-.449.19-.649.008-.265.111-.443.194-.496l.096-.288c-.034-.106-.134-.177-.246-.176"/><path d="m24.895 38.615c.18.103.302.296.302.519 0 .33-.267.597-.597.597-.222 0-.414-.12-.518-.299.044.362.353.643.727.643.405 0 .733-.328.733-.732 0-.376-.283-.686-.647-.728"/></svg>