<svg enable-background="new 0 0 240 93" viewBox="0 0 240 93" xmlns="http://www.w3.org/2000/svg"><path d="m184.2 86c.1-.9.4-1.6.8-2.1s1-.7 1.7-.7 1.3.2 1.7.7.7 1.2.8 2.1zm-2.4-1.4c-.2.7-.4 1.5-.4 2.3 0 1.7.5 3.1 1.5 4.1s2.4 1.5 4.1 1.5c.8 0 1.5-.1 2.1-.3s1.1-.5 1.5-.8.7-.6.9-1c.2-.3.3-.6.3-.9s-.1-.5-.3-.7-.4-.2-.7-.2-.5.1-.6.2c-.3.3-.6.6-.8.8s-.5.4-.7.5c-.3.2-.5.3-.8.4s-.6.1-.9.1c-.5 0-.9-.1-1.4-.4-.4-.2-.7-.6-1-1.1-.2-.5-.4-1-.4-1.7h5.4c.7 0 1.3-.1 1.7-.3s.6-.7.6-1.4c0-.8-.2-1.5-.6-2.2s-1-1.3-1.7-1.8c-.8-.5-1.7-.7-2.8-.7-.8 0-1.6.1-2.3.4s-1.3.7-1.7 1.1c-.4.8-.8 1.4-1 2.1m-20.6-2.7c-.1.2-.2.4-.2.6 0 .1 0 .3.1.4 0 .2.1.3.2.5s.1.3.2.5l2.6 6.5c.3.6.5 1 .6 1.3.1.2.3.4.5.6s.5.3.9.3c.3 0 .6-.1.8-.2s.4-.3.5-.5.3-.5.4-.7c.1-.3.2-.5.3-.7l2.7-6.6c.1-.2.1-.3.2-.5.1-.1.1-.3.2-.5 0-.2.1-.3.1-.4 0-.3-.1-.6-.4-.8-.2-.2-.5-.4-.9-.4s-.6.1-.8.3-.4.6-.6 1.1l-2.4 6.6-2.2-6.3c-.2-.6-.4-1.1-.6-1.3-.2-.3-.5-.4-.9-.4-.2 0-.5.1-.7.2-.3.1-.4.3-.6.4m-13.5-.2c-.3.3-.4.7-.4 1.2v7.9c0 .5.1 1 .4 1.2.3.3.6.4 1 .4s.7-.1 1-.4.4-.7.4-1.3v-8c0-.5-.1-.9-.4-1.2s-.6-.4-1-.4-.8.4-1 .6m0-4c-.3.3-.4.6-.4 1s.1.8.4 1 .6.4 1 .4.7-.1 1-.4c.3-.2.4-.6.4-1s-.1-.8-.4-1-.6-.3-1-.3c-.4-.1-.7 0-1 .3m-36.2 9.2c0-.7.1-1.4.3-1.9s.5-1 1-1.2c.4-.3.9-.4 1.4-.4.8 0 1.5.3 2 .9s.7 1.5.7 2.6-.2 2-.7 2.6-1.2.9-2 .9c-.6 0-1-.1-1.4-.4s-.7-.7-.9-1.2c-.3-.5-.4-1.1-.4-1.9m-2.4-2.3c-.3.7-.4 1.5-.4 2.3s.1 1.6.4 2.3.6 1.3 1.1 1.8 1.1.9 1.7 1.2c.7.3 1.4.4 2.3.4.8 0 1.6-.1 2.3-.4s1.3-.6 1.7-1.1c.5-.5.9-1.1 1.1-1.8s.4-1.5.4-2.3-.1-1.6-.4-2.3-.6-1.3-1.1-1.8-1.1-.9-1.8-1.2-1.4-.4-2.3-.4c-.8 0-1.6.1-2.3.4s-1.3.6-1.7 1.1-.7 1.1-1 1.8m-46.5 2.3c0-.7.1-1.4.3-1.9s.5-1 1-1.2c.4-.3.9-.4 1.4-.4.8 0 1.5.3 2 .9s.7 1.5.7 2.6-.2 2-.7 2.6-1.2.9-2 .9c-.6 0-1-.1-1.4-.4s-.7-.7-.9-1.2c-.3-.5-.4-1.1-.4-1.9m-2.4-2.3c-.3.7-.4 1.5-.4 2.3s.1 1.6.4 2.3.6 1.3 1.1 1.8 1.1.9 1.7 1.2c.7.3 1.4.4 2.3.4.8 0 1.6-.1 2.3-.4s1.3-.6 1.7-1.1c.5-.5.9-1.1 1.1-1.8.3-.7.4-1.5.4-2.3s-.1-1.6-.4-2.3-.6-1.3-1.1-1.8-1.1-.9-1.8-1.2-1.4-.4-2.3-.4c-.8 0-1.6.1-2.3.4s-1.3.6-1.7 1.1-.8 1.1-1 1.8m-16.9-2.8c-.2.2-.3.5-.3.7 0 .3.1.5.3.7s.5.3.9.3h.4v5.3c0 .9.1 1.5.2 2.1.1.5.4.9.9 1.2.4.3 1.1.4 2 .4s1.6-.1 2.1-.4c.5-.2.7-.6.7-1 0-.3-.1-.5-.3-.7s-.4-.3-.6-.3-.4 0-.6.1c-.3.1-.5.1-.7.1-.3 0-.5-.1-.6-.2s-.2-.3-.2-.6c0-.2 0-.6 0-1v-5.1h.5c.5 0 1-.1 1.3-.2s.4-.4.4-.8c0-.3-.1-.5-.3-.7s-.5-.3-.9-.3h-1v-1.9c0-.5 0-.8-.1-1.1s-.2-.5-.4-.6c-.3-.3-.6-.4-1-.4-.2 0-.5.1-.7.2s-.4.3-.5.5-.2.4-.2.7v1 1.7h-.3c-.5.1-.8.1-1 .3m-39.9 7.4c0-.4.1-.7.4-.9s.6-.4.9-.5.8-.2 1.6-.4c.7-.1 1.3-.3 1.7-.4v.4c0 1-.1 1.6-.4 2.1-.2.4-.6.7-1 .9-.5.2-1 .4-1.5.4s-.9-.1-1.2-.4c-.4-.4-.5-.7-.5-1.2m-2.1-1.7c-.5.5-.7 1.2-.7 1.9 0 .6.2 1.1.4 1.6.3.5.7.9 1.2 1.1.5.3 1.2.4 1.9.4.8 0 1.5-.1 2.1-.4s1.3-.7 1.9-1.2c.3.5.6.9.9 1.2s.6.4.8.4c.3 0 .6-.1.9-.4.3-.2.4-.5.4-.8 0-.2-.1-.5-.3-1.1s-.3-1.1-.3-1.6c0-.6 0-1.1 0-1.5 0-.5 0-1 0-1.7 0-1-.1-1.8-.4-2.5-.1-.4-.6-.9-1.3-1.2s-1.7-.4-2.9-.4c-1.1 0-2 .1-2.7.4s-1.2.7-1.6 1.2c-.3.5-.5.9-.5 1.4 0 .3.1.6.3.8s.5.3.8.3.6-.1.7-.2c.1-.2.3-.4.6-.8.2-.4.5-.7.9-.9s.9-.3 1.6-.3c.8 0 1.4.2 1.6.5.2.4.4.9.4 1.6-.6.2-1.1.3-1.6.4s-1.1.2-1.8.4c-.7.1-1.1.2-1.3.3-.8.2-1.5.6-2 1.1m24.7 2.5c-.3-.2-.5-.6-.6-1s-.2-1-.2-1.6v-4.4c0-.5-.1-1-.4-1.2-.3-.3-.6-.4-1-.4s-.7.1-1 .4-.4.7-.4 1.2v5.5c0 1.1.2 1.9.5 2.5.3.5.7.9 1.2 1.1.5.3 1.1.4 1.8.4.6 0 1-.1 1.5-.2.4-.1.8-.3 1.2-.6s.7-.6 1-1.1v.4c0 .5.1.9.4 1.1.2.3.6.4.9.4.4 0 .7-.1.9-.4s.4-.7.4-1.2v-8c0-.6-.1-1-.4-1.2-.3-.3-.6-.4-1-.4s-.7.1-1 .4-.4.7-.4 1.2v3.4c0 1.3-.1 2.2-.2 2.6-.2.4-.5.8-.9 1.1s-.9.4-1.3.4-.7-.1-1-.4m58.5-7.3c0-.4-.1-.8-.4-1-.3-.3-.6-.4-.9-.4-.4 0-.7.1-.9.4s-.4.7-.4 1.2v7.9c0 .6.1 1 .4 1.3s.6.4 1 .4.8-.1 1-.4c.3-.3.4-.7.4-1.3v-3.7c0-1.2.1-2.1.4-2.7s.9-.9 1.8-.9c.5 0 .8.1 1 .4.2.2.3.6.4.9 0 .4.1.9.1 1.6v4.4c0 .6.1 1 .4 1.3s.6.4 1 .4.8-.1 1-.4c.3-.3.4-.7.4-1.3v-3.7c0-1.2.1-2 .3-2.5.2-.4.4-.7.8-.9.3-.2.7-.3 1-.3.5 0 .8.1 1 .4.2.2.4.5.4.9.1.4.1.8.1 1.4v4.6c0 .6.1 1 .4 1.3s.6.4 1 .4.8-.1 1-.4c.3-.3.4-.7.4-1.3v-5.4c0-1.1-.1-1.9-.4-2.4-.3-.6-.7-1-1.2-1.3s-1.2-.4-2-.4c-.6 0-1.2.1-1.8.4-.5.3-1 .7-1.5 1.3-.3-.6-.7-1-1.2-1.3s-1.1-.4-1.8-.4-1.3.1-1.8.4c-.4.4-.9.8-1.4 1.4zm52.8 8.5c0-.3-.1-.5-.3-.7s-.4-.3-.6-.3-.4 0-.6.1c-.3.1-.5.1-.7.1-.3 0-.5-.1-.6-.2s-.2-.3-.2-.6c0-.2 0-.6 0-1v-5.1h.5c.5 0 1-.1 1.3-.2s.4-.4.4-.8c0-.3-.1-.5-.3-.7s-.5-.3-.9-.3h-1v-1.9c0-.5 0-.8-.1-1.1s-.2-.5-.4-.6c-.3-.3-.6-.4-1-.4-.3 0-.5.1-.7.2s-.4.3-.5.5-.2.4-.2.7v1 1.7h-.3c-.4 0-.7.1-1 .3-.2.2-.3.4-.3.7s.1.5.3.7.5.3.9.3h.4v5.3c0 .9.1 1.5.2 2.1.1.5.4.9.9 1.2.4.3 1.1.4 2 .4s1.6-.1 2.1-.4c.4-.2.7-.6.7-1"/><path d="m240 46.5c0-16.9-7-32.6-18.7-45.2l-24.1 18.5c2.6 3.8 4.7 7.9 6.1 12.2.2.5.3 1 .5 1.6.1.3.2.7.3 1 .5 1.9.9 3.8 1.2 5.8.1.6.2 1.2.2 1.8 0 .4.1.8.1 1.2.1 1 .1 2.1.1 3.1 0 1.1 0 2.2-.1 3.2 0 .4-.1.7-.1 1.1-.1.7-.1 1.4-.2 2.1-.1.4-.1.8-.2 1.2-.1.9-.3 1.7-.5 2.6-.1.5-.3 1-.4 1.6-.1.5-.3 1-.4 1.5-.1.4-.2.8-.4 1.2-1.3 4.1-3.2 7.9-5.6 11.5l23.4 19.3c11.8-12.6 18.8-28.3 18.8-45.3"/><path d="m11 12c1.3-1.1 1.9-2.7 1.9-4.7s-.6-3.6-1.9-4.7-2.8-1.6-4.5-1.6-3.2.6-4.5 1.8-2 2.7-2 4.5c0 2 .6 3.6 1.9 4.7s2.8 1.7 4.6 1.7c1.8-.1 3.3-.6 4.5-1.7"/><path d="m11.1 70.1c1.2-1.3 1.8-3.3 1.8-5.9v-37.2c0-2.3-.6-4.1-1.8-5.4s-2.8-1.9-4.7-1.9-3.4.6-4.6 1.9-1.8 3.2-1.8 5.7v36.9c0 2.5.6 4.5 1.8 5.8 1.2 1.4 2.7 2 4.6 2 1.9.1 3.4-.6 4.7-1.9"/><path d="m73.7 31.6c-1.8-3.9-4.3-6.8-7.5-8.8s-7-3-11.3-3c-3.7 0-6.8.7-9.4 2-2.5 1.3-5 3.3-7.4 5.8v-19.8c0-2.4-.5-4.2-1.6-5.5s-2.6-1.9-4.6-1.9c-1.9 0-3.4.7-4.4 2-1.1 1.3-1.6 3.3-1.6 5.9v56.3c0 2.4.5 4.3 1.6 5.5s2.5 1.9 4.4 1.9c1.8 0 3.3-.6 4.4-1.9 1.2-1.2 1.7-3.1 1.7-5.5v-1.3c1.4 1.6 2.6 2.9 3.4 3.7.9.8 1.9 1.6 3.1 2.4s2.7 1.4 4.5 1.9c1.7.5 3.6.7 5.6.7 3.2 0 6.2-.7 8.9-2s5-3.2 6.9-5.6 3.3-5.2 4.3-8.5 1.5-6.8 1.5-10.8c.2-5.1-.7-9.6-2.5-13.5zm-13.8 26.3c-2.3 2.8-5.1 4.2-8.4 4.2-3.8 0-6.9-1.4-9.2-4.1-2.3-2.8-3.5-6.7-3.5-11.8 0-3.5.6-6.5 1.7-9.1 1.1-2.5 2.6-4.5 4.5-5.8s4.1-2 6.6-2c2.4 0 4.5.7 6.3 2s3.2 3.2 4.2 5.7 1.5 5.4 1.5 8.8c-.2 5.2-1.4 9.3-3.7 12.1z"/><path d="m128.2 54.4c-1.2 0-2.2.3-2.8.9-1.6 1.5-2.9 2.7-3.9 3.6s-2.1 1.7-3.3 2.5-2.4 1.3-3.7 1.7-2.7.5-4.2.5c-2.3 0-4.4-.6-6.3-1.7s-3.4-2.8-4.6-5.1c-1.2-2.2-1.7-4.8-1.8-7.8h25.2c3.4 0 6-.5 7.8-1.4 1.9-1 2.8-3.1 2.8-6.3 0-3.5-.9-6.9-2.7-10.3s-4.5-6.1-8.1-8.2-7.9-3.2-13-3.2c-3.9 0-7.4.6-10.6 1.9-3.2 1.2-5.9 3-8 5.4-2.2 2.3-3.8 5.1-5 8.4-1.1 3.3-1.7 6.8-1.7 10.6 0 8.1 2.3 14.5 6.9 19.2s11 7.1 19.3 7.1c3.6 0 6.8-.5 9.6-1.4s5.1-2.1 6.9-3.6 3.2-2.9 4.1-4.5 1.4-2.9 1.4-4.1c0-1.3-.4-2.3-1.2-3.1-.7-.8-1.8-1.1-3.1-1.1zm-26.9-22.6c2.1-2.2 4.7-3.3 7.9-3.3 3.4 0 6.1 1.1 8.2 3.3s3.3 5.5 3.6 9.9h-23.5c.4-4.3 1.7-7.6 3.8-9.9z"/><path d="m190.8 35.2c-1.2-3.2-2.9-6-5.2-8.3s-5-4.1-8.2-5.4-6.7-1.9-10.6-1.9c-3.8 0-7.4.6-10.5 1.9-3.2 1.2-5.9 3-8.1 5.3s-4 5.1-5.2 8.3-1.8 6.8-1.8 10.7.6 7.4 1.8 10.6 2.9 6 5.2 8.3 5 4.2 8.1 5.4c3.1 1.3 6.6 1.9 10.5 1.9s7.5-.6 10.6-1.9c3.1-1.2 5.9-3 8.1-5.4 2.3-2.3 4-5.1 5.2-8.4 1.2-3.2 1.8-6.8 1.8-10.6 0-3.7-.6-7.3-1.7-10.5zm-14.7 22.9c-2.3 2.9-5.4 4.4-9.3 4.4-2.6 0-4.8-.7-6.7-2s-3.4-3.3-4.4-5.8-1.5-5.5-1.5-8.8c0-3.4.5-6.4 1.6-8.9 1-2.6 2.5-4.5 4.4-5.8s4.1-2 6.7-2c3.9 0 7 1.5 9.3 4.4s3.5 7 3.5 12.3c-.1 5.2-1.3 9.2-3.6 12.2z"/></svg>
