<?xml version="1.0" encoding="utf-8"?>
<!-- Generator: Adobe Illustrator 25.4.1, SVG Export Plug-In . SVG Version: 6.00 Build 0)  -->
<svg version="1.0" id="Logo" xmlns="http://www.w3.org/2000/svg" xmlns:xlink="http://www.w3.org/1999/xlink" x="0px" y="0px"
	 viewBox="0 0 430.9 181.4" style="enable-background:new 0 0 430.9 181.4;" xml:space="preserve">
<path class="st0" d="M40,119.4V54.7h18.7v64.7H40z"/>
<path class="st0" d="M111.5,119.4V74.2c0-4.6-2-9-9.6-9c-3.7,0-5.8,0.6-7.9,1.3v52.9H75.3V58.3c6.5-2.9,15.6-4.8,27.1-4.8
	c20.5,0,27.8,8.8,27.8,20.5v45.4H111.5z"/>
<path class="st0" d="M176,119.4h-19.8l-19.8-64.7h19.8l10.8,47l11.3-47h17.5L176,119.4z"/>
<path class="st0" d="M216.8,94.1c1.4,9,6.1,13.7,15.6,13.7c7.6,0,13.3-1.7,16.8-3.5l4.2,11.6c-5,2.5-12.2,4.7-23.2,4.7
	c-19.8,0-31.2-13.1-31.2-33.7c0-20.3,10.6-33.4,29.2-33.4c18.7,0,28.3,12.7,27.4,35L216.8,94.1z M238.1,80.6
	c-0.1-11-3.8-16.1-10.7-16.1c-7.7,0-12.4,6.6-11.9,19.4L238.1,80.6z"/>
<path class="st0" d="M301.8,119.4V74.2c0-4.6-2-9-9.6-9c-3.7,0-5.8,0.6-7.9,1.3v52.9h-18.7V58.3c6.5-2.9,15.6-4.8,27.1-4.8
	c20.5,0,27.8,8.8,27.8,20.5v45.4H301.8z"/>
<path class="st0" d="M410.3,84.7l18.6-30h-17.4l-10.1,19l-9.5-19h-40.3V36.2L332.9,41v60c0,10.3,6.7,19.3,22,19.3
	c4.8,0,8.6-1.1,10.4-1.8V107c-2.2,0.5-3.2,0.7-5.4,0.7c-5.8,0-8.3-2.9-8.3-8.2V66.8h27.7L390.5,86l-20.3,33.4h19l10.7-21l10.3,21
	h20.6L410.3,84.7z"/>
<rect class="st1" width="40" height="40"/>
<path class="st1" d="M46.8,181.4c-2.6,0-4.7-0.4-6.2-1.2v-19c1.3-0.7,3.4-1.2,5.9-1.2c5,0,7.5,2.3,7.5,5.4c0,2.8-2.1,4.3-3.9,4.7
	v0.1c1.9,0.4,4.6,2.2,4.6,5.2C54.7,179.6,51.5,181.4,46.8,181.4z M46.5,162.2c-0.9,0-1.6,0.1-2.3,0.4v6.7l1.2,0
	c3.7,0.1,4.9-1.2,4.9-3.7C50.3,163.4,49,162.2,46.5,162.2z M45.4,171.2l-1.2,0v7.4c0.7,0.3,1.4,0.4,2.4,0.4c2.5,0,4.2-1,4.2-3.7
	C50.9,172.5,49.3,171.1,45.4,171.2z"/>
<path class="st1" d="M77.6,181.1l-1.6-5.3h-6.7l-1.7,5.3h-3.4l6.9-20.7h3.6l6.8,20.7H77.6z M73.3,166.3c-0.5-1.5-0.5-2.5-0.5-2.5
	h-0.1c0,0-0.1,1-0.6,2.5l-2.2,7.3h5.5L73.3,166.3z"/>
<path class="st1" d="M104.1,181.1l-7.9-13.4c-0.7-1.2-1.2-2.3-1.2-2.3H95c0,0,0.1,1.2,0.1,2.4v13.3h-3.2v-20.7h3.6l7.4,12.6
	c0.7,1.2,1.1,2.1,1.1,2.1h0.1c0,0-0.1-1-0.1-2.2v-12.5h3.2v20.7H104.1z"/>
<path class="st1" d="M130.1,181.1l-5.9-10.5h-0.1v10.5h-3.8v-20.7h3.8v9.5h0.1l5.9-9.5h3.9l-6.5,9.6l6.8,11.2H130.1z"/>
<path class="st1" d="M164.4,181.4c-5.6,0-7.8-4.8-7.8-10.7c0-5.9,2.2-10.7,7.8-10.7c5.6,0,7.8,4.8,7.8,10.7
	C172.1,176.7,169.9,181.4,164.4,181.4z M164.4,162.6c-3.2,0-3.9,4.1-3.9,8c0,3.9,0.6,8,3.9,8c3.3,0,3.9-4.1,3.9-8
	C168.2,166.7,167.6,162.6,164.4,162.6z"/>
<path class="st1" d="M195.8,181.1l-7.9-13.4c-0.7-1.2-1.2-2.3-1.2-2.3h-0.1c0,0,0.1,1.2,0.1,2.4v13.3h-3.2v-20.7h3.6l7.4,12.6
	c0.7,1.2,1.1,2.1,1.1,2.1h0.1c0,0-0.1-1-0.1-2.2v-12.5h3.2v20.7H195.8z"/>
<path class="st1" d="M225.9,181.1v-20.7h3.9v20.7H225.9z"/>
<path class="st1" d="M248.5,162.9v18.2h-3.8v-18.2h-3.9v-2.6h11.6v2.6H248.5z"/>
</svg>
