<svg enable-background="new 0 0 130 84" viewBox="0 0 130 84" xmlns="http://www.w3.org/2000/svg"><path d="m65 0c-35.9 0-65 18.8-65 42s29.1 42 65 42 65-18.8 65-42-29.1-42-65-42zm.1 79.7c-33.3 0-60.4-16.9-60.4-37.6 0-20.8 27-37.6 60.4-37.6 33.3 0 60.4 16.9 60.4 37.6s-27.1 37.6-60.4 37.6z"/><path clip-rule="evenodd" d="m95.6 64.8-7.7-3.4v-17l-8.6-17.8 5.3-2.3 5.9 12.1 3.8-16.3 7.1-3-5.8 25.6zm-12.6-5.6-14.9-6.7v-21.1l7-3v21.3l7.9 3.1zm-21.6-22.5-5-1.7v4.5l5 .9v3.4l-5 .9v4.1l5.1-1.9v5.3l-10.8 4.8v-30.2l10.7 4.6zm-14.5 22.1-16.9 7.7v-48.7l7.8 3.4v34.5l9.2-3.4z" fill-rule="evenodd"/></svg>