<svg xmlns="http://www.w3.org/2000/svg" viewBox="0 0 340 160" enable-background="new 0 0 340 160"><path d="m208.03 93.79c5.445-.92 6.432-4.084 6.432-15.01v-.024c0-15.852-2.153-15.399-16.828-15.399h-.015c-14.678 0-16.884-.452-16.884 15.399v.027c0 15.852 2.206 15.396 16.884 15.396h.015c1.955 0 3.723.009 5.267-.018v10.49h10.316v-10.327h-5.19l.003-.532m-15.731-20.321h10.617v10.62h-10.617v-10.62m-64.41-9.783l-16.71.009-.041 30.432h16.724c14.651 0 16.801.612 16.801-15.13v-.033c.001-15.74-2.12-15.278-16.774-15.278m5.246 20.563h-10.602v-10.6h10.602v10.6zm35.519-20.543h-11.732l-14.196 30.432h11.957l1.668-3.528 12.886-.003 1.671 3.528 11.957.003-14.211-30.432m-9.203 18.14l3.348-7.272 3.342 7.272h-6.69m-75.39 1.183l15.503.009v2.073h-22.04v9.01h21.13 3.085c7.961-.127 7.74-5.421 7.74-9.795v.012c0-4.371.21-9.659-7.74-9.786l-16.17-.003.006-2.055h21.604v-8.795l-23.11-.003c-7.802.121-7.743 5.211-7.737 9.535 0 4.37-.228 9.667 7.737 9.794m-59.5-19.321l-.009 14.246-14.261-14.246h-10.286v30.429h10.866l-.009-14.252 14.258 14.252h10.298v-30.429h-10.857zm37.749.003h-11.733l-14.192 30.433h11.957l1.665-3.528 12.889-.003 1.671 3.528 11.96.003-14.217-30.433m-9.204 18.14l3.351-7.272 3.345 7.272h-6.696m192.25-18.419h-.012c-14.654 0-16.772-.455-19.561 15.364l-.006.033c-2.786 15.819-.512 15.364 14.14 15.364h.012c1.979 0 3.709.006 5.261-.018l5.196-.358c5.56-.929 7.133-4.114 9.05-14.988l.006-.033c2.786-15.819.562-15.364-14.09-15.364m1.626 20.694h-10.6l1.872-10.599h10.599l-1.871 10.599zm93.02-20.475h-12.726l-7.539 7.536-4.877-7.536h-12.728l9.887 15.255-11.783 11.774-.192-27.01h-9.828l-9.168 15.811-3.605-15.811h-9.834l-10.969 30.491h8.943l5.329-14.604 4.436 14.518h6.252l9.535-14.518.186 14.604h18.16l7.536-7.533 4.883 7.533h12.723l-9.881-15.255 15.261-15.255"/></svg>
