<svg xmlns="http://www.w3.org/2000/svg" viewBox="0 0 340 160" enable-background="new 0 0 340 160"><path d="m220.99 71.28c-1.676-.671-4.274-1.256-6.367-1.256-2.43 0-4.357.671-4.357 2.85 0 5.194 13.492 2.01 13.492 12.738 0 7.29-5.951 10.05-12.569 10.05-3.101 0-6.116-.503-8.883-1.342l.503-6.367c0 0 4.357 1.508 8.04 1.508 2.598 0 4.691-.754 4.691-3.101 0-5.614-13.492-2.01-13.492-12.738 0-6.704 5.614-9.468 11.898-9.468 3.686 0 6.704.671 8.463 1.342l-1.423 5.78m-24.633 0c-1.759-.671-4.274-1.256-6.367-1.256-2.43 0-4.357.671-4.357 2.85 0 5.194 13.492 2.01 13.492 12.738 0 7.29-5.951 10.05-12.569 10.05-3.101 0-6.116-.503-9.05-1.342l.585-6.367c0 0 4.44 1.508 8.129 1.508 2.513 0 4.609-.754 4.609-3.101 0-5.614-13.492-2.01-13.492-12.738 0-6.704 5.696-9.468 11.898-9.468 3.686 0 6.787.671 8.546 1.342l-1.425 5.78m124.34-7.121c5.865 0 9.3 3.184 9.3 10.05v20.781h-7.792v-19.19c0-3.101-.922-5.194-4.189-5.194-3.352 0-6.202 2.932-6.202 8.129v16.256h-7.709v-19.19c0-2.932-.922-5.194-4.274-5.194-3.521 0-6.202 3.184-6.202 8.463v15.921h-7.961v-30.25c5.194-.671 7.121 1.508 7.373 4.86 1.927-3.352 5.194-5.445 9.468-5.445 5.445 0 7.624 3.02 8.38 5.865 1.262-3.02 4.697-5.865 9.808-5.865m-159.12.585c-1.676 8.966-6.03 23.13-8.797 30.25h-8.212l-5.782-20.19h-.083l-5.782 20.19h-8.212c-2.598-7.04-7.373-21.618-8.797-30.25h7.792l5.111 20.781h.083l6.116-20.781h7.792l5.951 20.613h.086l5.194-20.613h7.54m-50.28 6.536c-1.676-.671-4.274-1.256-6.367-1.256-2.43 0-4.274.671-4.274 2.85 0 5.194 13.406 2.01 13.406 12.738 0 7.29-5.951 10.05-12.569 10.05-3.101 0-6.116-.503-8.883-1.342l.503-6.367c0 0 4.44 1.508 8.129 1.508 2.598 0 4.691-.754 4.691-3.101 0-5.614-13.492-2.01-13.492-12.738 0-6.704 5.614-9.468 11.898-9.468 3.686 0 6.619.671 8.463 1.342l-1.505 5.78m155.18 24.385c-8.632 0-14.579-4.691-14.579-15.25 0-9.468 6.367-16.256 15.502-16.256 8.546 0 14.08 4.777 14.08 15.08-.086 9.888-6.03 16.424-15 16.424m.252-24.888c-3.521 0-6.787 2.598-6.787 9.217 0 5.782 2.179 8.966 6.704 8.966 3.855 0 6.787-3.101 6.787-9.217 0-5.865-2.096-8.966-6.704-8.966m-101.56 24.22h7.792v-30.25c-3.603-.334-7.792.671-7.792 6.367v23.883m4.274-34.02c2.764 0 4.943-2.096 4.943-4.777 0-2.598-2.179-4.609-4.943-4.609-2.513 0-4.777 2.01-4.777 4.609-.082 2.681 2.179 4.777 4.777 4.777m72.31 34.604c-8.966 0-14.831-4.526-14.831-15.168 0-9.05 5.03-16.09 16-16.09 2.347 0 5.362.503 7.373 1.256l-1.676 6.367c-1.759-.671-3.521-1.088-5.531-1.088-5.614 0-7.961 3.686-7.961 9.217 0 5.362 2.096 8.966 7.624 8.966 2.598 0 4.357-.671 6.116-1.342l.922 6.202c-1.421.923-4.605 1.677-8.04 1.677"/><path d="m71.17 80.75c-.42-.503-.837-.922-1.256-1.425h-6.367c.083-.168.083-.334.168-.503h-23.462v.503 1.425.503h22.623c0 0 0-.083.083-.083.083-.168.083-.251.168-.42h8.04"/><path d="m74.61 85.7c-.168-.334-.334-.671-.585-1-.083-.168-.168-.334-.251-.42h-12.233c.083-.168.168-.334.251-.503h-21.534v2.43h20.444c.083-.168.168-.334.251-.503h13.657"/><path d="m76.78 90.64c-.168-.503-.334-.922-.503-1.425h-17.1c.083-.168.168-.334.251-.503h-19.19v.503.671 1.174h17.932c0 0 0 0 0-.083l.251-.42h18.351v.083"/><path d="m77.54 95.58c0-.503 0-.922-.083-1.425h-20.947c.083-.168.168-.334.334-.503h-16.59v2.43h15.08v-.083l.251-.42c-.002.001 21.953.001 21.953.001"/><path d="m38.91 34.753c-1.01.083-2.261.251-3.267.671-.505.166-1.01.417-1.51.668h6.03v-1.256c-.25-.083-.753-.083-1.256-.083"/><path d="m31.369 39.695c-.086.42-.086.922-.086 1.425h8.966v-1.425h-8.88"/><path d="m58.684 120.39c1.01-.42 1.927-.922 2.85-1.425h-21.284v1.425h18.434"/><path d="m40.25 123.91v1.342c2.681-.251 5.445-.671 8.212-1.342h-8.212"/><path d="m51.982 101.03l.334-.503h24.636c.083-.503.168-.922.251-1.425h-23.879l.083-.168.251-.334h-13.405v.503.671c0 0 0 0-.083 0l-.251-.083c-.168 0-.334-.083-.334-.083-3.441-1.091-4.03-4.109-4.697-7.375-.334-1.676-.671-3.435-1.508-4.86-1.01-1.759-2.932-3.101-4.777-4.357-2.681-1.845-5.531-3.772-5.531-7.29 0-3.772 2.598-4.777 5.28-5.782 1.759-.671 3.521-1.342 4.691-2.85.922-1.174 1.342-2.513 1.845-3.772.922-2.513 1.759-4.86 5.28-5.362 0-.334-.168-.837-.251-1.01-.083-.168-.168-.334-.251-.585h3.603l.168.168 1.01.922 1.342 1.174.42.334h-6.03v.671 1.759h8.966l.837.671.42.334 1.845 1.508h-11.983v1.174.671.503h15.168l.334.334c.251.168 1.425 1.174 2.764 2.261h-18.266v.503 1.425.503h21.2c.083.083.251.168.334.251 1.01.922 2.01 1.759 2.598 2.261h-24.13v.503.671 1.174h24.22c.083-.168.083-.334.168-.503h1.845c-.503-.42-1-.922-1.508-1.425.334-1.508.585-3.101.754-4.691.168-2.01.251-4.02.083-5.865-.251-3.02-.922-5.696-2.096-8.212-1.01-2.261-2.43-4.274-4.189-6.03l-.585-.42c-1.01-.922-2.096-1.759-3.184-2.43-1.088-.671-2.261-1.342-3.521-1.845-2.096-.837-4.357-1.342-6.367-1.425-2.764-.168-4.189.503-5.696 1.256h-7.887c-.083-.166-.166-.417-.251-.583-.086-.166-.166-.337-.251-.588l-2.764 2.264-.922.671c-1.927 1.425-3.938 2.932-5.865 4.44-1.593 1.256-3.02 2.43-4.274 3.603-1.508 1.342-2.764 2.598-3.772 3.855-2.598 3.101-3.938 6.03-4.189 9.05 0 .585 0 1.088 0 1.676 0 .585.083 1.174.251 1.759.42 2.01 1.256 3.855 2.598 5.696 1.425 1.927 3.184 3.521 4.86 5.03l.922.754 1 .837c1.759 1.508 3.521 3.02 5.194 4.609.585.503 1.088 1.088 1.593 1.593-.42.42-.837.837-1.256 1.425h2.513c1 1.174 1.927 2.347 2.681 3.521h-6.953c-.168.503-.251.922-.334 1.425h8.129c.334.585.585 1.088.922 1.676.251.585.503 1.256.754 1.845h-9.891c.083.503.168.922.251 1.425h10.141c.334 1.174.671 2.347.922 3.521h-9.554c0 .083.083.168.083.251.251.42.503.837.754 1.174h9.05c.251 1 .503 2.01.754 3.02 0 0 .083.251.168.503h-6.867c.083.083.083.083.168.168.503.42.922.837 1.508 1.256h5.696c.168.334.251.754.42 1 .168.42.671 1.593 1.088 2.513h-1.676c0 0 0 0 .083 0 .585.334 1.342.671 2.179 1 .334.671.754 1.342 1.256 1.676.251.168.585.334.922.42v-1.256c0 0 .168-.168.251-.251s.251-.251.251-.251h26.14c.42-.334.837-.671 1.256-1.088.168-.083.251-.251.42-.334h-26.729l.42-.503h-2.096v-2.513h4.274c.083-.168.251-.334.42-.503h27.15c.42-.503.754-.922 1.088-1.425h-27.15c.168-.168.251-.334.42-.503h-6.202v-2.513h8.129c.168-.168.251-.334.42-.503h26.478c.251-.503.42-.922.671-1.425h-26.14l.334-.503h-9.888v-2.513h11.73v.074h.002zm-13.491-47.01c-.251-.42-.503-.922-.837-1.342-.334-.503-.671-1.088-.922-1.425l-.168-.168h3.603v2.932h-1.676v.003m1.759-7.96v3.521h-4.609l-.42-.585-.083-.168-1.425-2.096c-.168-.251-.334-.42-.503-.671h7.04"/></svg>
