<svg xmlns="http://www.w3.org/2000/svg" viewBox="0 0 340 160" enable-background="new 0 0 340 160"><path d="m23.857 61.34c-6.634 4.672-8.274 11.446-6.289 15.1l5.491-4.094c-1.778-2.643-1.477-6.721 1.502-9.555 3.226-3.07 8.918-4.409 14.02-3.085-3.082 8.595-8.367 22.17-12.348 30.01-3.886 7.651-7.482 10.202-12.572 10.456-4.205.21-7.281-1.76-9.1-5.057l-4.565 5.121c.943 1.524 2.597 2.647 4.42 3.212 2.904.898 6.243.705 9.318-.229 6.04-1.833 11.663-6.111 16.678-15.386h20.959l4.751 11.285h11.544l-19.1-43.14c-7.871-.12-18.06.671-24.717 5.36m17.344 2.486l7.142 16.747h-14.364c3.961-8.677 6.04-13.931 7.222-16.747"/><path d="m178.94 79.89c0 4.287 2.848 7.215 7.109 7.215 4.257 0 7.109-2.927 7.109-7.215s-2.851-7.216-7.109-7.216c-4.261 0-7.109 2.929-7.109 7.216m2.995 0c0-3.259 1.591-5.344 4.113-5.344 2.519 0 4.11 2.084 4.11 5.344 0 3.258-1.591 5.344-4.11 5.344-2.522 0-4.113-2.086-4.113-5.344"/><path d="m97.93 72.7c-2.247 0-3.944 1.085-4.887 1.782v-9.414h-2.722v21.694h2.722v-10.232c1.099-.821 2.741-1.638 4.05-1.602 1.648.049 2.116 1.031 2.116 2.581v9.253h2.717v-9.449c0-3.079-1.241-4.613-3.996-4.613"/><path d="m166.32 82.57v-7.648h3.879v-1.915h-3.879v-5.541h-1.812l-.846 5.541h-2.823v1.915h2.763v8.06c0 3.074 1.327 3.699 2.318 3.973 1.012.275 3.4.081 4.717-.244l-.198-1.668c-3.036.373-4.119-.057-4.119-2.472"/><path d="m221.21 83.67v-6.357c0-3.079-1.366-4.613-4.259-4.613-2.586 0-4.338.765-5.323 1.374l.568 1.63c.977-.574 2.393-1.047 3.835-1.047 1.727 0 2.458.617 2.458 2.851v1.2c-.498-.003-1.351-.002-1.798.006-2.973.054-6.179 1.338-6.179 4.596 0 3.24 2.701 3.759 4.072 3.759.977 0 2.688-.354 4.243-1.808.185.903 1.034 1.88 2.733 1.89l1.074-1.678c-1-.246-1.424-.608-1.424-1.803m-2.721.153c-1.123.856-1.972 1.219-3.07 1.219-1.123 0-2.282-.481-2.282-1.996 0-2.168 2.337-2.593 4.056-2.676.335-.013.919-.002 1.295.005v3.448"/><path d="m158.77 83.67v-6.357c0-3.079-1.366-4.613-4.259-4.613-2.587 0-4.338.765-5.325 1.374l.569 1.63c.977-.574 2.39-1.047 3.833-1.047 1.727 0 2.458.617 2.458 2.851v1.2c-.497-.003-1.351-.002-1.797.006-2.973.054-6.175 1.338-6.175 4.596 0 3.24 2.696 3.759 4.066 3.759.984 0 2.692-.354 4.251-1.808.182.903 1.026 1.88 2.728 1.89l1.069-1.678c-.999-.246-1.418-.608-1.418-1.803m-2.724.153c-1.121.856-1.97 1.219-3.071 1.219-1.121 0-2.277-.481-2.277-1.996 0-2.168 2.336-2.593 4.05-2.676.34-.013.924-.002 1.298.005v3.448"/><path d="m173.26 73.01h2.726v13.758h-2.726z"/><path d="m174.63 65.997c-.928 0-1.683.75-1.683 1.681 0 .928.754 1.681 1.683 1.681.927 0 1.678-.753 1.678-1.681 0-.931-.751-1.681-1.678-1.681"/><path d="m203.71 72.7c-2.325 0-4.052 1.164-4.974 1.858l-.082-1.555h-2.54v13.758h2.723v-10.231c1.096-.821 2.739-1.638 4.04-1.602 1.645.049 2.111 1.031 2.111 2.581v9.253h2.725v-9.449c0-3.079-1.241-4.613-4-4.613"/><path d="m225.27 65.07h2.721v21.694h-2.721z"/><path d="m261.26 75.29l-.123-2.284h-2.541v13.758h2.725v-9.292c.848-1.3 1.8-2.405 3.155-2.405.939 0 1.528.484 1.771.682l1.109-2.031c-.633-.609-1.458-1.028-2.503-1.028-.947.001-2.277.545-3.593 2.6"/><path d="m297.59 73.01h2.721v13.758h-2.721z"/><path d="m298.96 65.996c-.933 0-1.684.751-1.684 1.679 0 .93.751 1.681 1.684 1.681.924 0 1.673-.751 1.673-1.681 0-.928-.749-1.679-1.673-1.679"/><path d="m289.72 72.7c-2.252 0-3.943 1.085-4.888 1.782v-9.414h-2.723v21.694h2.723v-10.232c1.098-.821 2.742-1.638 4.048-1.602 1.653.049 2.119 1.028 2.119 2.581v9.253h2.723v-9.449c.001-3.079-1.241-4.613-4-4.613"/><path d="m322.4 72.78c-3.497.127-6.111 3.073-6.183 6.887-.068 3.53 1.286 7.504 6.795 7.504 2.315 0 3.922-.533 5.056-1.238l-.58-1.71c-.966.457-2.182.985-3.949.985-3.737 0-4.474-2.877-4.49-5.089h9.357c.105-3.794-1.584-7.504-6.01-7.339m-3.243 5.494c.223-1.925 1.29-3.546 3.319-3.593 2.382-.049 3.036 2.084 3.077 3.593h-6.396"/><path d="m275.15 74.67c1.532-.078 2.711.316 3.652.776l.671-1.735c-1.086-.628-2.646-1.151-5.04-1-2.627.164-6.682 2.065-6.682 7.181 0 5.317 3.659 7.08 6.682 7.175 2.393.085 3.949-.367 5.04-1l-.671-1.735c-.941.465-2.119.856-3.652.783-1.917-.093-4.438-1.42-4.438-5.22.001-3.808 2.521-5.127 4.438-5.218"/><path d="m308.94 82.73l-3.64-9.72h-2.84l5.37 13.76h1.87l5.47-13.76h-2.6z"/><path d="m337.8 79.73c-1.079-.669-1.526-.906-2.676-1.559-1.15-.656-1.79-1.183-1.684-2.088.112-.988 1.115-1.319 2.409-1.319 1.335 0 2.521.538 3.03.93l.784-1.79c-.479-.307-1.874-1.047-4.03-1.047-2.733 0-4.311 1.34-4.642 3.106-.318 1.698.402 2.851 1.075 3.394 1.226.99 2.44 1.589 3.776 2.377 1.333.788 1.61 1.319 1.545 2.035-.062.727-.827 1.517-2.684 1.517-1.412 0-2.756-.474-3.678-1.052l-.778 1.907c1.098.574 2.348 1.079 4.766 1.079 2.878 0 4.885-1.741 4.982-3.824.087-1.898-1.081-2.976-2.191-3.666"/><path d="m110.93 72.71c-3.498.127-6.114 3.074-6.182 6.889-.07 3.528 1.283 7.502 6.792 7.502 2.315 0 3.924-.533 5.056-1.24l-.58-1.708c-.968.459-2.184.984-3.943.984-3.742 0-4.48-2.872-4.494-5.086h9.361c.101-3.795-1.589-7.502-6.01-7.341m-3.24 5.495c.22-1.923 1.287-3.547 3.318-3.592 2.377-.057 3.035 2.083 3.076 3.592h-6.394"/><path d="m88.2 65.787h-15.67v2.793h6.08v18.3h2.79v-18.3h6.8z"/><path d="m130.44 65.757h-2.73v21.13h2.73v-16.82l12.25 16.81v.01h2.73v-21.13h-2.73v16.393z"/><path d="m247.93 65.876h-1.54l-8.01 21.02h2.685c0 0 1.883-5.258 1.969-5.497h8.02c.089.229 2.124 5.497 2.124 5.497h2.807l-8.05-21.02m2.166 13.12h-6.089c.172-.468 2.47-6.745 2.47-6.745.261-.72.467-1.344.645-1.956.152.561.342 1.186.626 1.986.002 0 2.187 6.25 2.348 6.715"/></svg>
