<svg xmlns="http://www.w3.org/2000/svg" viewBox="0 0 1200 1000" enable-background="new 0 0 1200 1000"><path d="m17.1 762.9h64.5v231.1h-64.5v-231.1"/><path d="m17.1 679.2h64.5v57.4h-64.5v-57.4"/><path d="M174.1,939.2V994H121v-54.8H174.1"/><path d="m190.4 809v-46h44.2c0-1.2 0-2.3 0-3.5 0-1.2 0-2.5 0-3.9 0-25.1 2.6-44 7.7-56.6 5.1-12.6 23.8-19 55.9-19.3l58.4-.4v44.7c-1.2.3-2.7.4-4.4.2-1.8-.1-3.7-.2-5.7-.2-2.4 0-4.9-.1-7.5-.2-2.6-.1-5.2-.2-7.5-.2-5.3 0-10.3.4-15 1.1-4.7.7-8.3 2.1-10.6 4.2-3.3 2.3-5.4 5.4-6.4 9.2-1 3.8-1.5 7.6-1.5 11.4 0 1.5 0 2.8 0 3.9 0 1.2.1 2.3.4 3.5 0 1.2 0 2.4 0 3.5 0 1.2 0 2.2 0 3.1l58.4-.4v46h-58.4v185h-63.7v-185.1h-44.3"/><path d="m513.1 762.9c13.6.3 26.6 1.8 39.1 4.6 12.5 2.8 23.8 9.1 33.8 19.1 8.5 8.2 14.5 17.8 17.9 28.9 3.4 11.1 5.1 22.5 5.1 34.2v144.3h-165.3c-23.9 0-42.1-6.5-54.8-19.5-12.7-13-18.4-31.1-17.2-54.2 2.1-27.8 11.9-45.8 29.6-53.9 17.7-8.2 38.8-12.3 63.2-12.3l80.9-.4c.9-19-4.1-30.8-14.8-35.5-10.8-4.7-24.4-7-40.9-7l-102.6-.4v-47.8l126-.1m-44.2 184.6h76.9v-47.8h-72.5c-.6.3-1.2.4-1.8.4-.6 0-1.2 0-1.8 0-8.3.3-15.9 1.8-23 4.6-7.1 2.8-10.8 9.3-11.1 19.5-.6 11.4 2.6 18.1 9.5 20.2 6.9 2.1 14.8 3.2 23.6 3.5l.2-.4"/><path d="m762 762.9c33.3.3 52.6 7.9 57.9 22.8 5.3 14.9 7.8 34.9 7.5 60.1 0 2.3 0 4.7 0 7 0 2.3 0 4.8 0 7.5l-58.8-.4c0-1.5 0-3.1 0-4.8s0-3.4 0-4.8c0-21.3-1.7-33.8-5.1-37.3-3.4-3.5-15.7-5.3-36.9-5.3-1.2 0-2.3 0-3.3 0-1 0-2.1 0-3.3 0v186.3h-61.4v-231.1h103.4"/><path d="m1098 762.9c30.1.6 53.6 6.7 70.7 18.4 17.1 11.7 25.8 33.9 26.1 66.7v146h-61.9v-138.6c0-21.6-4.6-34.1-13.9-37.5-9.3-3.4-23.2-4.7-41.8-4.2-2.9.3-6 .4-9.1.4-3.1 0-6.3 0-9.5 0v179.9h-62.8v-180.2h-72.1v180.2h-61.9v-231.1h236.2"/><path d="m362.9 270.3c48.3 30.3 98.6 61 151.1 91.8 57.1-20.9 112.5-45.8 165.7-74.6-53.1-27.3-104-54.5-152.8-81.5-52.8 25.5-107.6 47-164 64.3"/><path d="m262.6 104.8c-68.2 22.8-139.1 38.9-211.6 48 53.9 39 110.4 79.3 170.1 120.4 73.9-14.5 145.8-35.9 214.7-63.8-60.8-35.6-118.3-70.7-173.2-104.6"/><path d="m590.8 132.6c-34.8-17.9-68.5-35.7-101.2-53.3-36.3 19.9-73.6 37.7-111.9 53.5 32.7 19.2 66.3 38.6 100.9 58.2 38.5-17.4 75.9-36.9 112.2-58.4"/><path d="m807.2 5.3c-75 69.3-158.7 128.3-248.7 175.7 84.7 45.4 175.7 91.7 273.9 137.4 91-57.8 174.5-127 248.7-206.2-98.3-34.9-189.3-71.1-273.9-106.9"/><path d="m794.7 574.3c-60.4 25.4-122.8 46.7-186.8 63.7-60.4-36.2-118.2-72.7-173.6-109 62.6-13 123.8-30.4 183.2-51.8 56.6 32.5 115.6 64.9 177.2 97.1"/><path d="m935.5 377.9c75.8 33.9 155.6 67.2 239.9 99.4-68.5 50.8-141.4 95.6-217.9 133.9-83.1-39-161.8-78.9-236.5-119 75-31.7 146.8-70 214.5-114.3"/><path d="m554 398.4c42-15.3 83.1-32.8 123-52.3 39.4 21 80 41.9 121.9 62.8-40.3 21.5-81.8 40.9-124.3 58.1-41.4-22.9-81.6-45.8-120.6-68.6"/><path d="m315.9 281.3c83.2 54.7 172.4 110.8 269 167-102.7 36.6-210.7 60.6-321.8 71.2-92.6-67.7-178-134.6-257.6-199.7 106.3.5 210.6-12.7 310.4-38.5"/><path d="m1109.8 126.3v-49.1h-18.5v-6.6h44.5v6.6h-18.6v49.1h-7.4"/><path d="m1142.4 126.3v-55.6h11.2l13.3 39.4c1.2 3.7 2.1 6.4 2.7 8.2.6-2 1.6-5 3-8.9l13.4-38.7h10v55.7h-7.2v-46.7l-16.3 46.6h-6.7l-16.2-47.4v47.4h-7.2"/></svg>