<?xml version="1.0" encoding="utf-8"?>
<!-- Generator: Adobe Illustrator 23.0.6, SVG Export Plug-In . SVG Version: 6.00 Build 0)  -->
<svg version="1.1" id="Layer_1" xmlns="http://www.w3.org/2000/svg" xmlns:xlink="http://www.w3.org/1999/xlink" x="0px" y="0px"
	 viewBox="0 0 340 160" enable-background="new 0 0 340 160" xml:space="preserve">
<path fill="currentColor" d="M214.9,44.9h1.1v-5.3h2v-0.9h-5v0.9h2L214.9,44.9z M219.7,40.1l1.7,4.8h0.9l1.7-4.8v4.8h1v-6.2h-1.5
	l-1.7,4.8l-1.7-4.8h-1.5v6.2h1v-4.8H219.7z M188.4,38.7h-67.8l-10.3,16.5H178L188.4,38.7z M202.2,38.8l-41.4,66h-46l10.6-16.5H153
	l10.5-16.5H99.8L89.3,88.3h15.1l-20.9,33h87.4l32.3-50.9L215,88.3h-10.6l-10,16.5h31.4l10.9,16.5h20L202.2,38.8L202.2,38.8z"/>
</svg>
