<svg xmlns="http://www.w3.org/2000/svg" viewBox="0 0 526 240" enable-background="new 0 0 526 240"><path d="m401.6 63.2c32.6 2.7 58.5 28.6 61.2 61.2 0 .3.3.6.6.6.3 0 .6-.3.6-.6v-62.4h-62.4c-.3 0-.6.3-.6.6 0 .4.2.6.6.6"/><path d="m323 161c-.6 0-1-.4-1-1v-38.7c0-7.1 2.2-12.6 6.5-16.5s10.5-5.8 18.3-5.8c4.1-.2 8.2.5 12 2 2.8 1.2 4.2 3.2 4.2 5.7 0 1.2-.4 2.5-1 3.5-.5.8-1.3 1.3-2.2 1.3-.3 0-.6-.1-.9-.2-.9-.3-1.8-.6-2.8-.9-2.3-.6-4.7-.9-7.1-.9-9.9 0-14.9 5.3-14.9 15.7v34.8c0 .6-.4 1-1 1h-10.1m-88.8-.6c1.9-.4 3.7-.9 5.5-1.6 1.4-.5 2.8-1.2 4.1-2 1.1-.7 1.5-2.2.8-3.3l-2.2-3.7c-.4-.7-1.1-1.2-1.9-1.3h-.3c-.3 0-.7.1-1 .2-.6.2-1.2.5-1.9.7-2.2.8-4.5 1.1-6.8 1.1-1.5 0-2.9-.2-4.3-.5-1.4-.3-2.7-.9-3.8-1.8-1.1-.9-2-2.1-2.6-3.5-.7-1.7-1-3.6-.9-5.4v-25.5c0-1.1.9-2 2-2h11.5c3.1 0 5.5-2.5 5.5-5.6 0-1-.3-2-.8-2.8-.9-1.6-2.6-2.5-4.4-2.5h-11.7c-1.1 0-2-.9-2-2v-10.9c0-2.8-2.2-5-5-5h-2c-2.8 0-5 2.2-5 5v54c0 5.7 1.7 10.3 5.2 13.8s8.6 5.2 15.4 5.2c2.2 0 4.4-.2 6.6-.6m192.8-30.4c0 17.1-13.9 31-31 31s-31-13.9-31-31 13.9-31 31-31c17.1 0 31 13.9 31 31m-11.5 0c0-10.8-8.7-19.5-19.5-19.5s-19.5 8.7-19.5 19.5 8.7 19.5 19.5 19.5c10.8 0 19.5-8.7 19.5-19.5m-104.5 0c0 17.1-13.9 31-31 31s-31-13.9-31-31 13.9-31 31-31c17.1 0 31 13.9 31 31m-11.5 0c0-10.8-8.7-19.5-19.5-19.5s-19.5 8.7-19.5 19.5 8.7 19.5 19.5 19.5c10.8 0 19.5-8.7 19.5-19.5m-175.5 0c0 17.1-13.9 31-31 31s-31-13.9-31-31 13.9-31 31-31c17.1 0 31 13.9 31 31m-11.5 0c0-10.8-8.7-19.5-19.5-19.5s-19.5 8.7-19.5 19.5 8.7 19.5 19.5 19.5c10.8 0 19.5-8.7 19.5-19.5m83.3 3.2c-1.8 17-17 29.4-34 27.6-5.8-.6-11.2-2.8-15.8-6.3v21.5c0 .6-.4 1-1 1h-10c-.6 0-1-.4-1-1v-47.5c-.1-11 6.2-21.2 16.1-26 24.3-11.6 48.1 7.3 45.7 30.7m-11.3-3.2c0-10.8-8.7-19.5-19.5-19.5s-19.5 8.7-19.5 19.5 8.7 19.5 19.5 19.5c10.8 0 19.5-8.7 19.5-19.5"/><path d="m455.1 146.7c-4.1-.1-7.6 3.2-7.7 7.3s3.2 7.6 7.3 7.7c4.1.1 7.6-3.2 7.7-7.3 0-.1 0-.1 0-.2.1-4.1-3.2-7.4-7.3-7.5m6 7.5c-.1 3.3-2.9 5.9-6.2 5.8-3.3-.1-5.9-2.9-5.8-6.2.1-3.2 2.8-5.8 6-5.8 3.4.1 6 2.9 6 6.2"/><path d="m456 155.1l1.7 2.6c0 .1.1.2.1.3 0 .3-.2.5-.5.5-.2 0-.3-.1-.4-.2l-2-3.1h-1.6v2.9c-.1.3-.3.5-.6.4-.2 0-.4-.2-.4-.4v-7c0-.4.3-.7.7-.7h2.5c1.3-.1 2.4.9 2.6 2.2 0 .1 0 .2 0 .3.1 1-.9 2.1-2.1 2.2m-2.7-4v3.1h2.1c.9 0 1.6-.7 1.6-1.6 0-.9-.7-1.6-1.6-1.6h-2.1z"/></svg>