<svg xmlns="http://www.w3.org/2000/svg" viewBox="0 0 451 137" enable-background="new 0 0 451 137"><path d="m-4.4 44.6l-.3.2-.2.2c-4.8 3.3-11.9 5.5-17.7 5.5-8.5-.2-11.7-3.2-11.8-11.4.2-9.5 3.4-12.4 14-13.1l14.7-.7h.7.6v19.3m26.9 4.7c-.5-1.6-1.8-2.6-3.4-2.6-.4 0-.8 0-1.3.2-2.3.5-3.6.7-5.3.8-3.3.2-3.9-1.1-4.1-4.9v-51.2c-.1-1.2-.7-2.4-1.6-3.1l-.3-.2c-.1-.1-.2-.2-.4-.3-2.9-1.6-7.6-3-11.5-4h-.3c-4.7-1.1-9.8-1.7-14.9-1.7-3 0-5.7.2-6.8.4-2.2.2-8.3 1.2-10.3 1.9-.6.2-2.5 1.1-2.6 2.9 0 .9 1.1 3.9 1.1 3.9.7 2.1 1.4 2.6 2.7 2.9 1.1.1 3.4-.4 4.9-.6 4-.7 6.5-1 8.4-1 2.4 0 5.4-.1 8.9.4 6.7.9 9.3 3 9.3 3v19.9h-.6l-14.3.4c-19.1.6-28 8.2-27.8 23.5 0 6.9 2.1 12.5 6.3 16.1 3.8 3.4 9.5 5.2 16.3 5.2 7.8 0 14.5-2.4 21-7.6l.6-.5.3.7c1.6 3.5 4.3 5.7 7.9 6.6 1.6.5 3.5.7 5.9.7.6 0 1.2 0 1.8-.1 2.2-.3 5.1-.7 8.3-2.2 1.8-.8 3-1.9 2.9-3.8.1-1.6-1.1-5.7-1.1-5.7" transform="translate(48.02 46.29)"/><path d="m55.2 72.9h-7c-1.1 0-2-.4-2.5-1-.6-.7-.8-1.5-.8-2.7v-65.8c-.1-1.2.3-2.1.9-2.7.6-.6 1.4-.8 2.5-.8h6.3c1.2 0 2 .2 2.6.7.6.5 1 1.4.9 2.5l.1 1.7.1 1.5 1-1.1c2.9-3.2 8-7 15.3-7 1 0 2.8.2 4.4.4 1.3.2 1.8 1.6 1.7 2.3 0 .4 0 .6-.1.9l-1 6.6c-.1 1.2-1.1 2-2 2-.8 0-1.3-.1-1.8-.2-.8-.1-1.6-.3-3.1-.3-4.9 0-10.3 3.2-13.9 8.2l-.1.1v.2 50.7c0 1.1-.3 2-.8 2.7-.7.8-1.6 1.1-2.7 1.1" transform="translate(226.66 34.14)"/><path d="m44.5-5.1h-32c.4-16.1 6.6-22.7 16.7-22.7 9.8 0 15.4 5.4 15.4 18 0 1 0 3.6-.1 4.7m-15-32.9c-17.9 0-31.3 12.4-31.3 40.7 0 25.9 12.2 38.7 35 38.7 3.6 0 7.9-.4 12-1.3.6-.1 1.3-.3 2-.4 2.6-.7 5.2-1.8 6.2-2.2 1.4-.5 2.5-1.7 2.6-3-.4-2.1-.9-4.2-1.5-6.2-.5-1.4-1.8-2.2-3-2.1-.4 0-6.6 1.3-6.9 1.4-3.5.9-7.4 1.4-11 1.4-16.3 0-21.1-7.8-21.1-23.8v-1.2h42.5c1.3-.1 2.2-1.1 2.4-2.3 0-.2 0-.4 0-.6.1-2.8.2-5.7.2-8.1 0-19.6-9.5-31-28.1-31" transform="translate(194.47 67.58)"/><path d="m65.9 124.8h-.5c-2.5 0-4.6-.2-6.6-.6-1.2-.2-1.7-1.8-1.5-4.1 0 0 .2-2.4.5-4 .3-1.7 1.1-2.5 2-2.5h.2.7c.4 0 1 .1 1.5.2 1.2.1 2.5.3 3.5.3 8.3-.1 12.8-3.1 16-10.8l3.8-9.4.4-1 .1-.4v-.4l-25.5-67.6c-.1-.3-.1-.6-.1-.9 0-.3 0-.7.4-1.1.3-.3.7-.5 1.2-.5h9.7c1.4 0 2.5.7 2.8 1.8l16.8 48.4 1.1 3.2 1.2-3.2 17.4-48.1c.4-1.3 1.5-2.2 2.7-2.2h.1.3 8c.7 0 1.1.1 1.5.4.3.3.5.7.4 1 0 .5-.1.9-.2 1.2l-28.6 76.8c-6.4 17.2-14.3 23.5-29.3 23.5" transform="translate(258.87 11.903)"/><path d="m94.7 72.6c-1.7 0-3-.8-3.8-2.2l-15.3-23.6-.5-.8-.5.8-15.3 23.6c-.8 1.5-2.2 2.2-3.9 2.2h-.2-8.2c-.7 0-1.1-.2-1.6-.5-.4-.3-.7-.9-.6-1.5 0-.7.2-1.4.6-2l22.1-33.6.3-.3-.3-.3-20.3-31.4c-.4-.6-.5-1.1-.5-1.5 0-1.3 1.2-2.1 2.4-2.1h7.7c1.7 0 3 .7 3.5 1.8l14.3 21.8.5.8.5-.8 14.3-21.7c.6-1.3 1.9-2 3.4-2h7.9c1.1 0 2.4.8 2.4 2.1 0 .5-.2 1-.5 1.5l-20.5 31.5-.2.3.2.3 22.1 33.5c.5.7.7 1.3.7 2 0 .6-.2 1.2-.6 1.5-.4.3-.9.5-1.6.5h-8.2l-.3.1" transform="translate(345.34 34.28)"/><path d="m12 72.9c-3.6 0-7.1-.6-10.1-1.7-2.8-1-5-2.3-6.5-4.1-4.4-4.7-4.8-10.6-4.9-18.5v-75.1c0-.4.2-.9.5-1.2 2.6-2.9 5.9-5 9.9-6.4.2-.1.4-.1.6-.1.3 0 1.2.1 1.9.7.6.6.9 1.5.9 2.7v79.8c0 4.2 1 7.5 2.8 9.5 1.6 1.7 4.1 2.6 7.3 2.6.8 0 1.7-.1 2.7-.2 2.3-.3 4.6-1 6.1-1.5.4-.2.8-.2 1.2-.2 1.3 0 2.4.9 2.8 2.2 0 0 1.1 3.8 1.3 5.6.1 1.6-1.3 2.6-2.6 3.1-1.7.8-7.5 2.8-13.9 2.8" transform="translate(97 34.14)"/><path d="m29.5 52.9c-.4-1.3-1.5-2.2-2.8-2.2-.4 0-.8.1-1.2.2-2.2.7-5.4 1.6-8.5 1.6h-.3c-3.3 0-5.8-.9-7.4-2.6-1.5-1.6-2.6-4.3-2.6-9.3v-.3l.4-39.4h16.2c.9 0 1.6-.1 2.3-.6.8-.6.9-1.7.9-2.2v-5c0-1.1-.3-1.8-.9-2.3-.7-.5-1.5-.6-2.1-.6h-16.4v-.2-16.7-7.7c0-1.2-.3-2-.9-2.6-.7-.7-1.5-.7-1.9-.7-.2 0-.4 0-.7.1-.9.4-3.5 1.2-6.3 3.2-1 .7-1.9 1.6-2.9 2.6-.3.3-.4.8-.4 1.2l-.4 20.7h-8.4c-.8 0-1.7.2-2.3.9-.6.7-.8 1.5-.8 2.4v4.5c0 1 0 1.8.7 2.7.9.8 1.7.7 2.7.8h7.8l-.7 37.2v1.6c0 7.9.4 13.9 4.8 18.7 3.4 3.6 9.5 5.7 16.7 5.8 6.6 0 11.7-1.7 14-2.7 1.2-.5 2.6-1.5 2.6-3.1.1-1.8-1.2-6-1.2-6" transform="translate(149.6 42.729)"/></svg>