<svg width="66" height="30" viewBox="0 0 66 30" fill="none" xmlns="http://www.w3.org/2000/svg">
<path d="M4.06108 11.8119C5.23858 11.2627 6.542 11.0021 7.85272 11.0536C10.388 11.1368 11.7807 12.3575 11.8359 14.7525C11.8976 17.2615 11.8781 19.7489 11.8683 22.2548C11.8683 23.2752 11.5859 23.5094 10.5244 23.5094H9.0538C8.1156 23.5094 7.82345 23.2381 7.80396 22.3412V15.6248C7.80396 14.586 7.28777 14.1575 6.18087 14.2007C5.98815 14.2038 5.79608 14.2213 5.60621 14.2531C4.15518 14.5336 4.07072 14.6322 4.07072 16.0378V22.0237C4.07072 23.3029 3.84026 23.5186 2.51253 23.5186H1.04208C0.350621 23.5186 0.0454792 23.2104 0 22.5323V6.7167C0 5.56081 0.259735 5.31738 1.4576 5.31738H2.75606C3.76244 5.31738 4.07079 5.58549 4.09036 6.55028C4.11956 7.9959 4.09036 9.44145 4.09036 10.884C4.06108 11.1492 4.06108 11.4358 4.06108 11.8119Z" fill="black"/>
<path d="M25.7334 17.6717C25.6458 18.3374 25.5938 19.1911 25.4087 20.0235C25.116 21.8984 23.5831 23.3802 21.6138 23.6915C20.268 23.9659 18.8745 23.9491 17.5365 23.6421C15.8412 23.3319 14.4904 22.1142 14.076 20.5227C13.4629 18.5153 13.4629 16.3841 14.076 14.3766C14.7253 12.2683 16.423 11.137 18.9097 11.0568C19.8069 11.0114 20.7066 11.0641 21.5911 11.214C23.9381 11.661 25.2691 13.1713 25.5711 15.6371C25.6458 16.263 25.6684 16.8671 25.7334 17.6717ZM21.6366 17.721C21.5911 17.0335 21.5652 16.565 21.5196 16.1026C21.4912 15.8602 21.4389 15.621 21.3638 15.3875C21.2149 14.6098 20.4702 14.0652 19.6402 14.1269C18.8306 14.0688 18.1058 14.6013 17.9617 15.3598C17.5936 16.7457 17.5936 18.1968 17.9617 19.5826C18.1132 20.3543 18.8675 20.8834 19.6888 20.794C20.4669 20.845 21.163 20.3373 21.3119 19.6105C21.4559 18.9856 21.5642 18.3538 21.6366 17.7179V17.721Z" fill="black"/>
<path d="M51.7 15.8033C51.8786 14.5149 51.5767 14.1173 50.2685 14.1758C49.2023 14.2612 48.143 14.4105 47.0968 14.6226C46.2106 14.7737 45.5614 14.561 45.4381 13.9077C45.2367 12.8289 45.3147 11.9041 46.2268 11.6453C48.3342 10.987 50.5894 10.8804 52.7551 11.3369C54.7223 11.7838 55.6767 13.0198 55.6767 15.0357V22.1743C55.6767 22.7138 55.6767 23.2687 55.0016 23.4783C54.2498 23.7385 53.4069 23.5183 52.9012 22.9296L52.6934 22.643C51.5422 23.5174 50.0912 23.9566 48.6193 23.8759C45.4218 23.7649 43.5843 20.8706 44.9737 18.1181C45.623 16.8082 46.9216 16.3951 48.2624 16.1917C49.4179 16.0282 50.5639 15.9265 51.7 15.8033ZM51.7618 17.9053C50.9859 18.0163 50.3042 18.0779 49.642 18.2137C48.9514 18.2988 48.4299 18.8502 48.4148 19.5113C48.2689 20.1755 48.639 20.8449 49.2978 21.1079C49.9471 21.3483 51.3267 21.1079 51.6448 20.6888C51.7059 20.6076 51.7398 20.5109 51.7422 20.4113C51.7618 19.6006 51.7618 18.793 51.7618 17.8961V17.9053Z" fill="black"/>
<path d="M28.5152 11.4852V9.89162C28.4562 9.40316 28.7884 8.94902 29.2912 8.83126C29.9531 8.62054 30.6261 8.4415 31.3071 8.2949C31.7987 8.13985 32.3298 8.39271 32.4932 8.85954C32.5368 8.9843 32.5509 9.11683 32.5342 9.24735C32.5569 9.93474 32.5342 10.616 32.5342 11.3804H34.4592C35.3974 11.402 35.7188 11.6885 35.7578 12.6132C35.8097 14.4873 35.7026 14.5922 33.7516 14.5922H32.6186C32.5884 14.7594 32.5678 14.9283 32.5569 15.0976V19.0524C32.5569 20.2853 32.9465 20.6613 34.2093 20.7476C35.3162 20.8247 35.6183 21.0559 35.6183 21.9128C35.6572 23.2782 35.3649 23.7406 34.2093 23.8053C33.2926 23.8708 32.3711 23.8263 31.4661 23.6729C29.5866 23.3121 28.5738 22.1531 28.512 20.2668C28.4568 18.6208 28.4893 16.9717 28.4829 15.335V14.5952H27.3467C26.8119 14.636 26.343 14.2584 26.2982 13.7507C26.2982 13.7218 26.2982 13.6942 26.2982 13.6674C26.1423 12.4068 26.3793 12.0708 27.6422 11.7316L28.5152 11.4852Z" fill="black"/>
<path d="M42.6323 19.1507C42.6323 21.2865 42.6745 23.4227 42.6323 25.5586C42.6214 28.0219 40.5093 30.0105 37.9152 29.9999C37.6684 29.9989 37.4221 29.9796 37.1785 29.9418C36.2729 29.8339 35.9514 29.4949 35.9385 28.6041V27.8118C35.9775 27.0659 36.221 26.807 37 26.6713C38.2011 26.4588 38.594 26.0302 38.5971 24.8375V12.69C38.5971 11.6604 38.8732 11.3861 39.9607 11.3523H41.4377C42.311 11.3892 42.6387 11.6913 42.6452 12.5265V19.1104L42.6323 19.1507Z" fill="black"/>
<path d="M60.7673 12.2241C61.8308 11.4997 63.098 11.0928 64.4064 11.0559C65.7049 11.0559 66.0036 11.3149 66.0003 12.5355V13.0842C66.0003 13.8733 65.6563 14.1538 64.8446 14.2339C64.0807 14.3224 63.3222 14.449 62.5723 14.613C62.0692 14.7149 61.8776 15.0045 61.8873 15.5378C61.9262 17.7663 61.8873 19.9763 61.8873 22.1926C61.8873 23.2807 61.6372 23.5087 60.4784 23.5303H58.8066C58.326 23.5676 57.9045 23.2279 57.8652 22.7714C57.8605 22.7163 57.8615 22.6607 57.8685 22.6057V12.3536C57.8312 11.8971 58.1909 11.4983 58.6717 11.4629C58.6723 11.4628 58.6729 11.4628 58.6735 11.4628H58.7124C59.5208 11.3334 60.3712 11.2132 60.7673 12.2241Z" fill="black"/>
<path d="M42.1983 9.18241C42.932 6.67954 42.6691 5.41885 41.3802 5.17528C41.5782 6.02604 41.7989 6.89836 40.8576 7.48705C40.3641 7.79529 39.9746 7.67815 39.1013 7.04011C38.6987 7.82614 38.8352 8.60904 39.0201 9.4474C37.7672 9.24091 36.7802 8.74767 36.3226 7.59802C35.8505 6.55352 36.109 5.3406 36.9718 4.55263C37.2732 4.26207 37.599 3.99507 37.9457 3.75427C39.3546 2.74942 39.6272 1.77541 38.8839 0.265056C38.8506 0.178552 38.8236 0.0900393 38.8028 0C40.3693 0.226034 41.8508 0.822829 43.1105 1.73542C45.857 3.86836 45.526 7.69971 42.4938 9.10845C42.3912 9.11594 42.2911 9.14089 42.1983 9.18241Z" fill="#EE4854"/>
</svg>
