<svg xmlns="http://www.w3.org/2000/svg" viewBox="0 0 340 160" enable-background="new 0 0 340 160"><path d="m128.67 36.06l-2.47 13.02h12.24l2.47-13.02h7.02l-6.34 33.36h-7.01l2.62-14h-12.19l-2.67 14h-6.9l6.33-33.36z"/><path d="m153.29 68.35c.214-.363.214-.66.115-1.205l-4.801-21.929h7.524l1.485 10.544c.347 2.475.594 4.208.792 5.742h.099c.544-1.435 1.089-3.02 2.129-5.643l4.405-10.643h7.525l-15.722 31.545-8.552.016 5-8.427"/><path d="m191.52 35.08l-2.079 10.14c-1.04-.396-2.327-.545-3.317-.545-9.157 0-15.246 7.722-15.246 16.14 0 5.891 3.416 9.158 7.524 9.158 2.821 0 5.791-1.238 7.92-4.455h.099l-.347 3.911h6.534c.099-2.871.545-6.336 1.139-9.405l4.672-24.941h-6.899m-4.356 22.367c-.94 4.604-3.465 6.782-5.494 6.782-2.079 0-3.366-1.634-3.366-4.554 0-4.653 3.02-9.603 7.277-9.603 1.188 0 2.277.396 2.821.841l-1.238 6.534"/><path d="m197.42 69.42l2.723-14.405c.693-3.663.99-7.722 1.238-9.801h5.732c-.149 1.634-.297 3.267-.446 4.95h.149c1.683-3.217 4.933-5.494 7.722-5.494.445 0 .891 0 1.336.05l-.899 6.874c0 0-1.229-.108-1.625-.108-4.09 0-6.341 4.173-7.232 8.925l-1.683 9.01h-7.02"/><path d="m229.59 44.674c-8.613 0-14.454 6.881-14.454 15.296 0 5.99 4.109 9.999 10.246 9.999 8.415 0 14.454-6.485 14.454-15.345 0-5.495-3.762-9.95-10.246-9.95m-3.218 19.85c-2.475 0-3.861-1.881-3.861-4.703-.049-3.762 2.029-9.751 6.138-9.751 2.871 0 3.811 2.376 3.811 4.603.001 4.158-2.177 9.851-6.088 9.851"/><path d="m222.46 85.8l-4.865 24.328h-5.824l.415-4.704h-.269c-.897 1.538-1.625 2.8-3.097 3.786-1.472.986-3.444 1.478-5.461 1.478-1.658 0-3.269-.441-4.374-1.322-1.106-.881-1.659-2.322-1.659-4.323 0-.851.09-1.725.269-2.621l3.324-16.622h6.624l-3.035 15.179c-.12.61-.179 1.138-.179 1.584 0 1.37.74 2.396 2.219 2.396 1.061 0 2.151-.361 3.272-1.082 1.121-.722 2.114-1.916 2.753-2.898l3.035-15.179h6.852"/><path d="m244.16 87.54c-1.445-1.528-3.581-2.292-6.178-2.292-2.556 0-4.829.635-7.05 1.906-2.221 1.271-4.02 3.196-5.394 5.774-1.376 2.578-2.063 5.213-2.063 7.903 0 3.289.98 5.755 2.942 7.399 1.961 1.645 4.526 2.467 7.695 2.467 2.442 0 5.303-.305 8.538-1.475l-.185-4.991c-1.779.889-3.666 1.379-6.108 1.379-1.886 0-3.4-.364-4.545-1.319-1.144-.956-1.717-2.133-1.717-3.533l15.701-2.378.197-1.053c.223-1.208.335-2.371.335-3.49-.001-2.67-.723-4.769-2.169-6.297m-4.334 7.265l-9.09 1.149c.321-1.602.941-2.897 1.861-3.887.92-.989 2.078-1.556 3.473-1.697 2.286-.232 3.536.715 3.752 2.843.049.484.05.862.003 1.592"/><path d="m295.67 87.54c-1.445-1.528-3.581-2.292-6.178-2.292-2.556 0-4.829.635-7.05 1.906-2.221 1.271-4.02 3.196-5.394 5.774-1.375 2.578-2.063 5.213-2.063 7.903 0 3.289.98 5.755 2.942 7.399 1.961 1.645 4.526 2.467 7.695 2.467 2.442 0 5.303-.305 8.538-1.475l-.185-4.991c-1.779.889-3.666 1.379-6.108 1.379-1.886 0-3.4-.364-4.545-1.319-1.144-.956-1.717-2.133-1.717-3.533l15.701-2.378.197-1.053c.223-1.208.335-2.371.335-3.49-.001-2.67-.724-4.769-2.169-6.297m-4.335 7.265l-9.09 1.149c.321-1.602.941-2.897 1.861-3.887.92-.989 2.078-1.556 3.473-1.697 2.286-.232 3.536.715 3.752 2.843.049.484.05.862.003 1.592"/><path d="m240.07 82.944h-5.47l5.12-7.314h6.86z"/><path d="m270.67 87.58c-1.269-1.477-2.721-2.355-4.904-2.355-.797 0-1.546.101-2.246.302-.701.202-1.442.534-2.224.996-.753.463-1.398.936-1.937 1.421-.25.225-1.416.964-1.8.9-.231-.039-.072-1.09-.072-1.09l2.491-12.198h-6.545l-6.507 33.743c0 0 6.39 2.333 12.721 1.328 2.319-.368 4.245-1.212 6.194-2.592 1.949-1.38 3.494-2.795 4.946-5.488 1.533-2.843 2.06-5.901 2.06-8.93.001-2.64-.908-4.559-2.177-6.04m-7.94 15.31c-.434.613-1.652 2.033-3.64 2.626-.802.239-3.791-.016-4.237-.657l1.969-9.339c.635-2.731 2.943-4.737 5.727-4.368 2.277.302 3.075 2.622 3.042 3.862-.13 4.764-2.114 6.86-2.861 7.876"/><path d="m316.58 109.98c-.426.094-.854.176-1.283.247-.905.148-1.794.264-2.666.345-.872.082-1.668.123-2.386.123-3.301 0-5.904-.826-7.807-2.479-1.904-1.652-2.856-4.049-2.856-7.19 0-2.724.612-5.329 1.837-7.816 1.225-2.486 2.924-4.418 5.101-5.795 2.176-1.377 4.854-2.066 8.04-2.066 1.938 0 3.752.173 5.444.52l-1.376 6.01c-.765-.208-9.183-3.418-11.326 5.357-2.602 10.663 8.04 7.213 9.336 6.887l-.053 5.856"/><path d="m187.3 105.68l-.029-.073c1.195-.952 2.264-2.072 3.206-3.36.942-1.287 1.727-2.695 2.356-4.223.628-1.528 1.086-3.133 1.372-4.816.286-1.683.38-3.388.28-5.116-.12-2.076-.529-3.89-1.226-5.441-.698-1.551-1.638-2.83-2.821-3.837-1.183-1.01-2.587-1.734-4.213-2.182-1.625-.447-3.419-.615-5.378-.502-2.143.124-4.085.552-5.825 1.286-1.741.734-3.282 1.681-4.624 2.842-1.341 1.161-2.49 2.489-3.445 3.985-.955 1.497-1.731 3.079-2.326 4.746-.596 1.668-1.014 3.367-1.256 5.097-.242 1.73-.316 3.401-.223 5.01.12 2.076.536 3.885 1.25 5.427.714 1.542 1.666 2.808 2.856 3.797 1.19.99 2.594 1.704 4.211 2.144 1.617.44 3.38.605 5.291.495.598-.034 1.339-.106 2.225-.215.885-.11 1.692-.214 2.419-.314.727-.101 1.567-.207 2.519-.32.951-.114 1.838-.031 2.703-.081 2.192-.127 4.417.017 7.03.216l.703-5.083c-1.531 0-3.684-.278-7.05.516m-1.748-6.389c-.579 1.027-1.263 1.932-2.054 2.717-.791.786-1.682 1.42-2.673 1.903-.991.483-2.089.757-3.294.823-2.182.12-3.899-.383-5.155-1.507-1.255-1.124-1.947-2.846-2.074-5.165-.064-1.175-.019-2.371.136-3.587.155-1.217.419-2.402.792-3.555.373-1.153.849-2.242 1.427-3.269.578-1.026 1.263-1.932 2.054-2.717.791-.786 1.686-1.42 2.684-1.903.999-.483 2.093-.757 3.283-.823 2.181-.12 3.899.382 5.155 1.507 1.255 1.124 1.946 2.846 2.073 5.165.063 1.159.018 2.351-.137 3.576-.154 1.225-.419 2.414-.791 3.566-.372 1.154-.848 2.243-1.426 3.269"/><path d="m113.4 108.75l25.43 10.795-34.479-26.13 1.233 13.616-11.997-9.04c5.254-6.89 8.376-15.493 8.378-24.828-.004-22.636-18.347-40.98-40.984-40.983-22.635.002-40.979 18.345-40.982 40.982.003 22.638 18.347 40.981 40.983 40.986 9.349-.002 17.964-3.134 24.858-8.403l29.28 22.07-1.716-19.06m-52.42-6.338c-8.093-.002-15.371-3.265-20.681-8.566-5.3-5.31-8.563-12.588-8.566-20.683.003-8.093 3.266-15.37 8.566-20.681 5.31-5.302 12.588-8.564 20.681-8.566 8.094.002 15.371 3.265 20.681 8.566 5.301 5.31 8.564 12.588 8.566 20.681-.002 6.699-2.241 12.834-6.02 17.762l-13.268-10h-18.04l23.04 17.368c-4.377 2.615-9.484 4.118-14.969 4.119"/></svg>
