<svg xmlns="http://www.w3.org/2000/svg" viewBox="0 0 340 160" enable-background="new 0 0 340 160"><g fill-rule="evenodd"><path d="m51.813 56.37h13.944l-20.457 17.82 15.15 19.81h-14.573l-11.547-16.32h-.11l-2.98 16.32h-11.24l6.85-37.63h11.25l-2.83 15.521h.11l16.433-15.521"/><path d="m176.04 78.81c1.112-2.648 3.889-4.045 6.935-4.045 2.81 0 5.102 1.597 5.169 4.045h-12.1m21.02 4.29c1.591-8.732-3.32-14.222-13.537-14.222-9.582 0-17.232 5.141-18.787 13.673-1.606 8.831 4.808 13.624 14.565 13.624 6.712 0 13.812-2.746 16.573-8.784h-10.04c-1.459 1.697-3.182 2.347-5.423 2.347-4.303 0-6.178-1.995-5.502-5.69h21.975l.174-.948"/><path d="m211.59 73.02h.114c2.974-3.094 6.091-4.142 10.168-4.142 7.917 0 10.284 4.342 9.14 10.63l-2.884 15.817h-10.443l2.273-12.473c.446-2.448 1.684-6.738-3.479-6.738-4.245 0-5.951 2.745-6.534 5.939l-2.416 13.272h-10.445l4.662-25.597h10.446l-.602 3.292"/><path d="m256.88 78.06c-1.368-.999-3.058-1.797-5.066-1.797-4.02 0-7.662 2.696-8.31 6.24-.672 3.691 1.895 6.288 6.202 6.288 1.837 0 3.96-.653 5.538-1.748l-1.4 7.685c-2.476.996-5.082 1.449-7.608 1.449-8.723 0-14.981-5.642-13.576-13.376 1.5-8.232 9.768-13.921 19-13.921 2.411 0 4.73.501 6.614 1.497l-1.399 7.683"/><path d="m276.64 76.76c4.249 0 6.234 2.645 5.661 5.788-.591 3.242-3.514 5.737-7.759 5.737-4.249 0-6.26-2.496-5.671-5.737.572-3.144 3.524-5.788 7.769-5.788m1.435-7.886c-9.467 0-18.632 4.94-20.223 13.673-1.587 8.732 5.839 13.624 15.254 13.624 9.468 0 18.633-4.941 20.21-13.624 1.59-8.733-5.775-13.673-15.245-13.673"/><path d="m307.52 73.915h.116c2.583-3.142 6.278-4.539 10.356-4.539h2.01l-1.594 8.733c-1.306-.702-2.657-.85-4.261-.85-5.797 0-7.844 3.343-8.642 7.733l-1.882 10.33h-10.443l4.662-25.597h10.446l-.766 4.19"/><path d="m154.43 57.698c.207-9.03-2.17-15.823-7.223-18.17-8.51-3.967-21.768 5.893-32.01 22.751l-1.481-5.903h-12.283l-18.324 29.34h-6.858l5.345-29.34h-11.248l-6.854 37.623h26.353l15.495-25.997h.114l4.645 20.646h-8.309v5.267h-.016c-2.183 13.11-.091 23.517 6.414 26.559 9.664 4.523 25.471-8.859 36.01-30.11h-2.832c-8 14.714-19.18 23.693-26.16 20.42-4.377-2.046-6.14-8.458-5.361-16.796h1.458l.003.01h11.855l-7.04-28.04c7.773-12.501 17.682-19.763 24.08-16.782 4.361 2.03 6.12 8.383 5.364 16.647l-.029.158h9.298l-5.347 29.341h11.248l5.344-29.341h9.299l1.507-8.283h-22.448v.001"/></g></svg>
