<svg xmlns="http://www.w3.org/2000/svg" viewBox="0 0 340 160" enable-background="new 0 0 340 160"><g fill-rule="evenodd"><path d="m77.03 70.19c-4.369 0-7.679 3.805-7.679 8.436 0 4.386 3.215 8.458 7.679 8.458 4.517 0 7.679-4 7.679-8.458 0-4.212-2.964-8.436-7.679-8.436"/><path d="m114.99 94.64c-2.776-2.613-4.617-2.977-6.868-4.626-6.889-5.05-8.55-15.617-3.262-22.509 1.512-1.971 3.393-3.361 5.509-4.767 2.199-1.461 4.204-3.582 5.243-5.785 2.087-4.424 1.591-10.02-1.647-14.194-3.081-3.973-7.926-6.05-13.22-5.07-2.496.459-4.597 1.492-6.716 3.383-2.176 1.943-2.731 3.938-5.222 6.379-3.929 3.85-8.638 5.738-14.219 5.358-2.734-.186-5.04-.836-7.789-2.387-2.955-1.668-4.109-3.665-6.386-4.185-2.366-.54-4.995.119-6.572 1.932-2.15 2.47-1.867 4.771-.932 7.725.884 2.793 1.641 5.501 1.786 8.451.143 2.9-.191 5.825-1.017 8.61-1.509 5.091-5.223 9.871-8.78 13.02-2.931 2.596-5 3.01-6.883 4.824-1.828 1.765-3.02 4.188-3.02 6.928 0 4.743 3.4 8.699 7.897 9.535 3.516.653 6.871-.95 7.919-1.281 7.302-2.302 16.472-2.02 23.1-.087 5.48 1.598 10.22 4.429 14.642 8.01 2.127 1.724 3.741 4.04 5.977 5.636 5.751 4.105 15.683 4.901 22.03-3.285 4.301-5.542 5.333-15.11-1.578-21.616m-24.44-4.807c0 1.145-.86 2.92-2.898 2.92-2.063 0-2.942-1.739-2.942-2.834v-2.444c-1.878 2.592-4.906 4.975-9.28 4.975-3.332 0-6.172-1.348-8.523-4.04-2.35-2.683-3.526-5.914-3.526-9.691 0-3.793 1.175-7.03 3.526-9.713 2.351-2.682 5.191-4.02 8.523-4.02 4.08 0 7.07 1.979 9.28 4.954v-2.272c0-1.229.825-2.92 2.967-2.92 1.263 0 2.873 1.04 2.873 2.92v22.17"/><path d="m201.74 59.57c-2.726-1.072-4.748.979-5.246 2.298l-9.847 25.825-9.845-25.824c-.498-1.32-2.521-3.371-5.247-2.298-2.942 1.157-2.8 3.924-2.306 5.162 0 0 8.202 21.535 10.86 28.495 1.529 4 4.527 4.85 6.537 4.854 2.01-.004 5.01-.851 6.538-4.854 2.658-6.96 10.861-28.495 10.861-28.495.496-1.238.637-4.01-2.305-5.163"/><path d="m159.99 59.27c-2.969 0-4.111 2.343-4.111 4.046v3.147c-3.064-4.121-7.204-6.863-12.857-6.863-4.616 0-8.552 1.858-11.808 5.574-3.256 3.716-4.885 8.202-4.885 13.456 0 5.234 1.629 9.711 4.885 13.427 3.257 3.737 7.193 5.605 11.808 5.605 6.06 0 10.255-3.302 12.857-6.893v3.386c0 1.516 1.219 3.926 4.076 3.926 2.824 0 4.01-2.46 4.01-4.046v-30.719c.001-2.606-2.231-4.046-3.98-4.046m-14.87 31.08c-6.185 0-10.639-5.642-10.639-11.718 0-6.417 4.585-11.688 10.639-11.688 6.533 0 10.639 5.852 10.639 11.688 0 6.17-4.38 11.718-10.639 11.718"/><path d="m239.57 59.27c-2.969 0-4.111 2.343-4.111 4.046v3.147c-3.064-4.121-7.204-6.863-12.857-6.863-4.616 0-8.552 1.858-11.808 5.574-3.256 3.716-4.885 8.202-4.885 13.456 0 5.234 1.629 9.711 4.885 13.427 3.257 3.737 7.192 5.605 11.808 5.605 6.06 0 10.254-3.302 12.857-6.893v3.386c0 1.516 1.219 3.926 4.076 3.926 2.825 0 4.01-2.46 4.01-4.046v-30.719c0-2.606-2.231-4.046-3.98-4.046m-14.87 31.08c-6.185 0-10.639-5.642-10.639-11.718 0-6.417 4.585-11.688 10.639-11.688 6.533 0 10.639 5.852 10.639 11.688 0 6.17-4.38 11.718-10.639 11.718"/></g><path d="m250.37 93.61c-.922-.497-1.632-1.562-1.632-2.98 0-1.915 1.489-3.476 3.477-3.476.71 0 1.348.213 1.844.496 3.618 2.413 7.378 3.619 10.784 3.619 3.689 0 5.817-1.561 5.817-4.04v-.142c0-2.909-3.973-3.76-8.371-5.107-5.534-1.563-11.707-3.976-11.707-11.143v-.142c0-7.095 5.889-11.423 13.339-11.423 3.973 0 8.158 1.135 11.776 3.05 1.205.639 2.058 1.774 2.058 3.263 0 1.987-1.561 3.478-3.548 3.478-.709 0-1.136-.142-1.703-.426-3.051-1.561-6.173-2.555-8.797-2.555-3.334 0-5.25 1.561-5.25 3.69v.142c0 2.767 4.04 3.76 8.443 5.179 5.462 1.703 11.635 4.329 11.635 11.07v.142c0 7.876-6.103 11.778-13.905 11.778-4.753.001-9.932-1.488-14.26-4.469"/><path d="m286.31 87.17v-19.47h-1.636c-2.054 0-3.682-1.626-3.682-3.678 0-2.05 1.629-3.677 3.682-3.677h1.636v-5.779c0-2.333 1.692-4.243 4.099-4.243 2.337 0 4.01 1.91 4.01 4.243v5.779h6.401c2.054 0 3.753 1.626 3.753 3.677 0 2.051-1.699 3.678-3.753 3.678h-6.401v18.13c0 3.324 1.94 4.669 4.843 4.669.991 0 1.841-.212 2.124-.212 1.912 0 3.611 1.556 3.611 3.536 0 1.556-1.062 2.829-2.266 3.324-1.841.635-3.611.989-5.877.989-6.303-.001-10.543-2.758-10.543-10.962"/></svg>
