<svg xmlns="http://www.w3.org/2000/svg" viewBox="0 0 478 123" enable-background="new 0 0 478 123"><g transform="matrix(1.19326 0 0 1.19326-30.81-247.61)" fill="#231f20" fill-rule="evenodd"><path d="m84.3 228.5h31.6l-.4 33 27.8-33h35.1l-23.3 57.4h-34.2l11-28.8-21.9 28.8h-26l-1.6-28.9-11.7 28.9h-9.8l23.4-57.4"/><path d="m209 228.5h43.2c0 0 2.7.7 5.1 2 2.4 1.2 4 3.1 4 3.1l-11.3 11.2c0 0-1.6-3.7-2.7-5.3-1.1-1.6-4.3-4.9-4.3-4.9l-17.6.1c0 0-7 1.5-13.1 13.1-6.1 11.6-8.2 21.2-7.1 26.4 1.1 5.2 10.2 3.8 11.8 2.1 1.7-1.8 3.8-3.7 5.4-8.3 1.6-4.6 1.6-6.1 1.7-6.1h33.4l-9.7 24.1h-50.8c0 0-19.7-4.8-14.9-28.9 4-19.7 17.8-28.6 26.9-28.6"/><path d="m315.2 228.4h29.4v57.5h-29.4v-5.9h-28.9l-5.5 5.9h-16.7c.1 0 51-57.5 51.1-57.5m-20.5 41.9l20.6-23.7v23.8c0 0-20.7 0-20.6-.1"/><path d="m72.9 207.5h353.1l-2 4.9h-351.1c-3.9 0-6.7 1.8-8.9 4.4-2.4 2.9-4.3 7-6 11.2l-26.5 63.8c-.3.8-.5 1.6-.5 2.4 0 1.9.9 3.8 2.4 5.5 1.6 1.8 3.9 3.4 6.4 4.4 2.1.9 4.4 1.4 6.6 1.4h339.4l-2 4.9h-337.4c-2.8 0-5.7-.6-8.4-1.8-3.1-1.3-6-3.3-8.2-5.7-2.3-2.5-3.7-5.6-3.7-8.8 0-1.4.3-2.9.9-4.3l26.5-63.8c1.9-4.5 3.9-9 6.8-12.5 3.1-3.5 7.1-6 12.6-6"/></g></svg>