<svg xmlns="http://www.w3.org/2000/svg" viewBox="0 0 124 40" enable-background="new 0 0 124 40"><g fill="currentColor"><path d="m4.329 18.01c.07 1.715.281 4.906 6.099 4.906 5.259 0 5.924-3.191 5.924-4.426 0-2.779-2.278-3.328-5.818-4.185-3.856-.927-5.573-1.339-6.871-2.196-2.068-1.373-2.629-3.226-2.629-4.872 0-5.04 4.873-7.239 9.64-7.239 1.682 0 5.083.274 7.116 2.436 1.403 1.509 1.472 3.19 1.543 4.219h-3.645c-.175-3.087-2.84-3.774-5.328-3.774-3.505 0-5.609 1.544-5.609 4.01 0 2.196 1.472 2.951 4.557 3.672 6.03 1.509 6.696 1.646 8.168 2.607 2.349 1.509 2.524 3.911 2.524 4.94 0 4.392-3.505 7.72-9.991 7.72-1.928 0-5.854-.308-7.852-2.813-1.437-1.819-1.472-3.809-1.472-5.01h3.644"/><path d="m22.07.48h15.88v2.916h-12.375v7.72h11.779v2.882h-11.779v8.234h12.655v3.02h-16.16v-24.771"/><path d="m43.904.48l5.469 20.379 6.03-20.379h4.347l5.714 20.55 5.748-20.55h3.436l-7.501 24.77h-3.891l-5.854-21.17-6.275 21.17h-3.786l-7.186-24.77h3.751"/><path d="m76.19.48h8.483c3.085 0 5.187.171 6.906 1.989 1.262 1.27 1.858 2.951 1.858 4.803 0 1.887-.631 3.499-1.998 4.838-1.332 1.304-3.085 2.127-7.642 2.127h-4.101v11.01h-3.505v-24.77zm3.506 10.876h4.171c2.313 0 5.854-.172 5.854-4.22 0-3.877-3.295-3.877-5.118-3.877h-4.907v8.097"/><path d="m114.68 25.25h-3.856l-9.01-24.77h3.891l7.186 21.17 7.572-21.17h3.54l-9.324 24.771"/><path d="m99.59 32.721c-.792 0-1.363.65-1.363 1.531 0 .91.562 1.54 1.353 1.54.811 0 1.392-.64 1.392-1.53.001-.91-.57-1.541-1.382-1.541"/><path d="m76.51 32.721c-.762 0-1.353.65-1.353 1.491 0 .92.572 1.58 1.363 1.58.832 0 1.392-.64 1.392-1.57.001-.88-.58-1.501-1.402-1.501"/><path d="m88.67 32.721c-.762 0-1.353.65-1.353 1.491 0 .92.571 1.58 1.363 1.58.83 0 1.392-.64 1.392-1.57 0-.88-.581-1.501-1.402-1.501"/><path d="m59.42 32.721c-.822 0-1.393.64-1.393 1.571 0 .87.591 1.5 1.403 1.5.762 0 1.352-.66 1.352-1.49 0-.93-.571-1.581-1.362-1.581"/><path d="m44.2 32.721c-.601 0-1.122.451-1.222 1.071h2.444c-.13-.65-.611-1.071-1.222-1.071"/><path d="m106.64 32.732c-.841 0-1.453.65-1.453 1.531 0 .88.621 1.53 1.453 1.53.861 0 1.483-.64 1.483-1.53.001-.902-.611-1.531-1.483-1.531"/><path d="m0 28.799v11.201h123.89v-11.201h-123.89m12.1 7.814l-1.282-3.09-1.282 3.09-2.043-4.441h.801l1.233 2.81 1.303-3.131 1.292 3.131 1.242-2.81h.801l-2.065 4.441m8.534 0l-1.282-3.09-1.282 3.09-2.044-4.441h.802l1.232 2.81 1.303-3.131 1.292 3.131 1.242-2.81h.802l-2.065 4.441m8.534 0l-1.282-3.09-1.282 3.09-2.044-4.441h.801l1.233 2.81 1.303-3.131 1.292 3.131 1.242-2.81h.801l-2.064 4.441m4.544-.19c-.27 0-.491-.22-.491-.491 0-.28.22-.5.491-.5.281 0 .501.22.501.5.001.27-.22.491-.501.491m4.658.02c-.701 0-1.192-.35-1.463-1.06l.631-.261c.24.51.441.67.841.67.381 0 .671-.28.671-.65 0-.321-.15-.47-.671-.69-.962-.42-1.202-.661-1.202-1.211 0-.67.521-1.161 1.242-1.161.481 0 .862.25 1.112.751l-.591.31c-.15-.28-.331-.41-.571-.41-.281 0-.511.201-.511.45 0 .25.13.38.671.6 1 .42 1.252.68 1.252 1.311.002.76-.619 1.351-1.411 1.351m7.804-2.05h-3.246c.04.85.571 1.4 1.323 1.4.551 0 .881-.23 1.282-.87l.601.341c-.471.81-1.072 1.18-1.924 1.18-1.212 0-2.034-.9-2.034-2.21 0-1.26.841-2.161 2.024-2.161 1.182 0 1.974.88 1.974 2.18v.14m6.649 2.22l-1.282-3.09-1.282 3.09-2.044-4.441h.801l1.233 2.81 1.303-3.131 1.292 3.131 1.242-2.81h.801l-2.064 4.441m6.681-.17c-.581 0-1.022-.21-1.443-.7v2.92h-.711v-6.491h.711v.59c.411-.48.852-.691 1.453-.691 1.162 0 1.994.93 1.994 2.24-.001 1.221-.862 2.132-2 2.132m5.248-.02c-.27 0-.491-.22-.491-.491 0-.28.22-.5.491-.5.281 0 .501.22.501.5 0 .27-.22.491-.501.491m6.862-.1h-.712v-2.451c0-.85-.23-1.16-.882-1.16-.72 0-1.032.461-1.032 1.54v2.07h-.712v-4.151h.712v.5c.361-.439.681-.6 1.202-.6.502 0 .963.22 1.193.571.16.259.23.57.23 1.11v2.571zm6.952 0h-.712v-.58c-.401.49-.841.7-1.442.7-1.143 0-1.994-.94-1.994-2.201 0-1.26.842-2.17 1.994-2.17.591 0 1.031.21 1.442.691v-.59h.712v4.15m4.197.12c-.701 0-1.193-.35-1.463-1.06l.631-.261c.241.51.44.67.841.67.381 0 .672-.28.672-.65 0-.321-.15-.47-.672-.69-.961-.42-1.202-.661-1.202-1.211 0-.67.521-1.161 1.243-1.161.481 0 .861.25 1.112.751l-.591.31c-.151-.28-.33-.41-.571-.41-.282 0-.512.201-.512.45 0 .25.131.38.672.6 1 .42 1.252.68 1.252 1.311-.001.76-.621 1.351-1.412 1.351m7.963-.12h-.71v-.58c-.402.49-.842.7-1.444.7-1.141 0-1.993-.94-1.993-2.201 0-1.26.841-2.17 1.993-2.17.591 0 1.033.21 1.444.691v-.59h.71v4.15m3.514.1c-.27 0-.49-.22-.49-.491 0-.28.22-.5.49-.5.282 0 .502.22.502.5-.001.27-.221.491-.502.491m7.412-.191c0 .82-.1 1.23-.401 1.63-.361.5-.961.781-1.652.781-1.203 0-1.984-.741-2.025-1.911h.701c.07.82.531 1.261 1.332 1.261.872 0 1.334-.571 1.334-1.641v-.601c-.402.45-.902.691-1.463.691-1.133 0-1.984-.94-1.984-2.17 0-1.271.851-2.201 2.01-2.201.581 0 1.042.22 1.434.691v-.59h.71v4.06zm4.999.211c-1.243 0-2.194-.97-2.194-2.221 0-1.17.992-2.141 2.194-2.141 1.243 0 2.204.951 2.204 2.181 0 1.231-.961 2.181-2.204 2.181m6.27.16l-2.044-4.431h.801l1.243 2.79 1.233-2.79h.801l-2.034 4.431"/></g></svg>