<svg xmlns="http://www.w3.org/2000/svg" viewBox="0 0 340 160" enable-background="new 0 0 340 160"><path d="m273.25 90.23v-14.896h7.613v-9.577h-7.613v-10.721h-10.803v28.576c-1.667-12.09-10.619-18.92-21.08-18.92-10.421 0-19.2 7.701-21.19 17.835-.458-10.426-7.321-17.664-18.68-17.664-11.242 0-18.688 7.817-18.938 18.25-1.691-10.557-10.836-18.621-21.867-18.621-10.664 0-19.567 7.538-21.675 17.576-2.19-11.126-10.813-17.375-20.815-17.375-10.49 0-19.311 7.802-21.22 18.03v-31.622h-10.886v40.43l-23.08-40.43h-13.02v56.806h10.806v-40.44l23.16 40.44h13.02v-16.893c1.91 10.201 10.731 17.875 21.22 17.875 10.478 0 17.925-5.809 20.383-14.406h-11.543c-1.799 3.356-5.32 4.912-8.921 4.912-5.075 0-9.167-3.193-10.56-8.35h31.421c2.043 10.121 10.987 17.742 21.71 17.742 11.01 0 20.14-8.03 21.854-18.555v17.674h10.783v-24.586c0-4.655 3.43-8 8.167-8 7.107 0 7.925 5.636 7.925 8v24.587h10.782v-16.555c2.039 10.03 10.785 17.537 21.16 17.537 10.478 0 17.927-5.809 20.384-14.406h-11.543c-1.801 3.356-5.32 4.912-8.923 4.912-5.074 0-9.167-3.193-10.558-8.35h31.734c.334 11.03 6.855 18.06 18.891 16.782v-9.823c-5.404.326-8.105-1.885-8.105-7.778m-165.52-8.02c1.556-4.911 5.485-8.02 10.395-8.02 5.155 0 9.249 3.112 10.56 8.02h-20.955zm52.966 15.818c-6.289 0-11.387-5.098-11.387-11.385 0-6.29 5.098-11.387 11.387-11.387 6.289 0 11.387 5.097 11.387 11.387 0 6.287-5.098 11.385-11.387 11.385m70.19-15.818c1.554-4.911 5.483-8.02 10.394-8.02 5.157 0 9.25 3.112 10.56 8.02h-20.954zm57.29-12.13v-.018c0-.312-.104-.566-.292-.745-.245-.245-.613-.387-1.085-.387h-1.593v3.573h.678v-1.236h.745l.868 1.236h.811l-.962-1.349c.491-.141.83-.498.83-1.074m-2.291.594v-1.13h.887c.444 0 .706.197.706.556v.018c0 .339-.263.556-.706.556h-.887zm.707-3.27c-1.913 0-3.422 1.554-3.422 3.412v.018c0 1.858 1.489 3.394 3.402 3.394 1.915 0 3.423-1.554 3.423-3.412v-.02c.001-1.856-1.49-3.392-3.403-3.392m3.045 3.412c0 1.688-1.319 3.073-3.065 3.073-1.734 0-3.045-1.367-3.045-3.055v-.018c0-1.688 1.321-3.073 3.064-3.073 1.735 0 3.045 1.367 3.045 3.053v.02z"/></svg>
