<svg image-rendering="optimizeQuality" shape-rendering="geometricPrecision" xmlns="http://www.w3.org/2000/svg" viewBox="0 0 418.3 98.5" enable-background="new 0 0 418.3 98.5"><path d="m302.5 30.8v21.4l18.6-21.4h18.4l-20.8 22.3 21 35.9h-18.4l-10.7-19.7c-2.2-3.9-4.1-5.6-5.7-5-1.6.6-2.4 1.5-2.4 2.6v8.1 14h-15.3v-75.3h7.9c2 0 3.8.7 5.2 2.2 1.5 1.5 2.2 3.1 2.2 5v9.9m-108 58.2c-4.8.3-10 .2-15.6-.2-5.6-.4-8.4-4-8.4-10.7v-36.6h-8.9v-3.1c0-2.2.7-4 2.2-5.4 1.5-1.4 3.2-2.1 5.2-2.1h1.5v-17.2h7.9c1.9 0 3.6.7 5 2.2 1.5 1.5 2.2 3.2 2.2 5.2v9.9h14.8v3c0 2.2-.7 4-2.2 5.4-1.5 1.4-3.2 2.1-5.2 2.1h-7.4v32.4c0 2.5 1.5 3.7 4.4 3.7h4.6l-.1 11.4m3.1 0v-28.3c0-5.7.8-10.5 2.5-14.3 1.7-3.9 4-7 6.9-9.3 2.8-2.2 6-3.8 9.7-4.8 3.7-1 7.5-1.5 11.5-1.5h1.1 10.7c-1.8 1.2-3.6 2.8-5.1 4.6-2.8 3.2-4.7 7-5.9 11h-3.6c-4.2 0-7.4 1-9.4 3.1-2 2-3.1 5.2-3.1 9.6v30l-15.3-.1m48.6-35h22.3c-.3-3.9-1.3-6.9-3.1-8.8-1.9-2-4.6-3.1-8.1-3.1-3.2 0-5.8 1-7.9 3.1-2 2.1-3.1 5-3.2 8.8m26.2 17h10.9c-1.6 6.1-4.7 10.8-9.2 14-4.5 3.4-10.2 5-17.1 5-8.3 0-14.8-2.7-19.5-8.1-4.7-5.2-7-12.8-7-22.5 0-9.3 2.3-16.6 6.8-21.9 4.7-5.4 11.2-8.1 19.5-8.1 8.8 0 15.5 2.6 20.4 7.9 4.7 5.4 7 12.9 7 22.5v1.5.9c0 .7-.1 1.2-.2 1.5h-37.8c.1 4.5 1.2 7.9 3.3 10.1 1.9 2.3 4.7 3.5 8.5 3.5 2.5 0 4.6-.5 6.3-1.5.4-.1.8-.4 1.2-.8.4-.4.8-.8 1.2-1.2.1-.4.7-1 1.6-1.7 1-.7 2.4-1.1 4.1-1.1"/><path d="m359 16.5h-3.6l-11.5 12.3 2.2 2.2 9.1-9.6-.2 67.7h4v-72.6m33 73.8c5.3 0 9.6-1.1 12.9-3.4 3.4-2.3 6-5.2 8-8.8 2-3.6 3.4-7.6 4.2-12.1.8-4.5 1.2-8.9 1.2-13.2 0-4.3-.4-8.7-1.2-13.2-.8-4.5-2.2-8.5-4.2-12.1-2-3.6-4.7-6.6-8-8.8-3.4-2.3-7.7-3.4-12.9-3.4-5.3 0-9.6 1.1-12.9 3.4-3.4 2.3-6 5.2-8 8.8-2 3.6-3.4 7.6-4.2 12.1-.8 4.5-1.2 8.9-1.2 13.2 0 4.3.4 8.7 1.2 13.2.8 4.5 2.2 8.5 4.2 12.1 2 3.6 4.7 6.6 8 8.8 3.3 2.3 7.7 3.4 12.9 3.4m0-3.5c-4.6 0-8.3-1.1-11.1-3.3-2.9-2.2-5.1-4.9-6.8-8.3-1.6-3.4-2.8-7-3.4-11-.6-4-.9-7.8-.9-11.5 0-3.6.3-7.5.9-11.5.6-4 1.8-7.7 3.4-11 1.6-3.4 3.9-6.1 6.8-8.3 2.9-2.2 6.6-3.3 11.1-3.3 4.6 0 8.3 1.1 11.1 3.3 2.9 2.2 5.1 4.9 6.8 8.3 1.6 3.4 2.8 7 3.4 11 .6 4 .9 7.8.9 11.5 0 3.6-.3 7.5-.9 11.5-.6 4-1.8 7.7-3.4 11-1.6 3.4-3.9 6.1-6.8 8.3-2.8 2.3-6.5 3.3-11.1 3.3"/><g fill-rule="evenodd"><path d="m143.5 45.2l-3-1.1v-3.2c.3-19.7-13.8-36.9-33.3-40.4-16.7-3-33.8 5-42.2 19.7l-2.1 3.8-3.8-1.9c-7.3-3.7-16-3-22.6 1.9-5 3.8-8 9.5-8.4 15.7l-.1 3.7-3.7.4c-13.7 1.7-24.3 13.4-24.3 27.3 0 15.1 12.3 27.4 27.4 27.4h107c15.1 0 27.4-12.3 27.4-27.4 0-11.6-7.4-22-18.3-25.9m-9.1 48.9c-40.4 0-79 0-107 0-12.7 0-23-10.3-23-23 0-15.8 15.6-26.8 30.3-21.8-4.2-7.3-2.2-16.7 4.5-21.8 8.5-6.4 20.9-3.4 25.5 6.3 3.6-19.5 22.4-32.3 41.8-28.8 20.2 3.6 33.2 23.3 28.8 43.2 12.3.5 22.1 10.6 22.1 23 0 12.6-10.3 22.9-23 22.9"/><path d="m106.1 31.4l-31.2 29.1-20.4-16.9-39.4 30.7c3.3 8.5 10.3 14.4 18.4 14.4 24.8 0 59 0 94.8 0 9.1 0 16.9-7.5 19.4-17.8l-41.6-39.5m-49.8 35c-7.5-4.9-18.4-3.2-32.6 5.2 0 0 0 0 0 0 10.2-8 20.5-15.9 30.7-23.9l15.3 12.7c-6.3-.2-10.9 1.6-13.4 6m48.6-2.8c-10.1-9-19 1.3-44.6 15.9 15.3-14.3 30.7-28.5 46-42.8l23.9 22.4c-12.7-3.6-20.6-1.5-25.3 4.5"/></g></svg>