<svg xmlns="http://www.w3.org/2000/svg" viewBox="0 0 340 160" enable-background="new 0 0 340 160"><path d="m0 46.47v67.06h74.949v-67.06h-74.949m49.2 52.581h-17.459v-31.49h8.764v25.898h8.439c5.831 0 8.269-3.956 8.269-14.424s-2.796-13.503-8.695-13.503h-19.249v33.519h-8.678v-33.486h-12.736v-5.575h43.37c10.452 0 15.43 5.337 15.43 18.976 0 17.902-7.433 20.09-17.458 20.09"/><path d="m305.03 87.37v-3.666c-.972 2.754-3.69 4.496-6.598 4.228-6.564 0-8.985-5.115-8.985-11.08 0-5.558 2.557-10.417 8.712-10.417 2.467-.139 4.821 1.05 6.172 3.12v-11.747h9.889v29.564h-9.19m-2.95-14.867c-2.08 0-2.438 2.131-2.438 4.262s.358 4.45 2.506 4.45 2.438-2.285 2.438-4.211c.017-2.37-.307-4.501-2.506-4.501"/><path d="m101.38 59.941h14.492l9.769 27.415h-10.98l-1.807-5.933h-8.934l-1.705 5.933h-10.451l9.616-27.415m4.01 14.885h6.087l-2.984-8.985-3.103 8.985"/><path d="m127.22 66.88h9.343v3.529c1.248-2.719 4.103-4.329 7.08-3.99 2.745 0 5.609 1.057 6.411 3.495.665-2.353 4.126-3.495 6.564-3.495 7.229 0 7.229 4.672 7.229 8.678v12.259h-9.889v-11.78c0-1.176 0-2.779-1.705-2.779-1.705 0-1.705 1.603-1.705 2.779v11.781h-9.889v-11.781c0-1.176 0-2.779-1.705-2.779-1.705 0-1.705 1.603-1.705 2.779v11.781h-9.889v-20.459l-.136-.018"/><path d="m176.04 79.5c.153 2.557 2.557 3.137 5.456 3.137 2.308.083 4.606-.36 6.717-1.296v5.302c-3 .845-6.108 1.242-9.224 1.176-8.286 0-12.685-4.01-12.685-11.06s4.399-10.332 12.685-10.332c7.928 0 10.724 4.944 10.724 11.935v1.211h-13.64l-.033-.068m5.114-4.313c0-1.569-.239-4.04-2.472-4.04s-2.779 2.438-2.66 4.04h5.115.017"/><path d="m201.61 66.88v4.637c1.176-2.898 3.137-5.115 6.24-5.115.54-.006 1.079.057 1.603.188v8.201c-.722-.225-1.477-.329-2.233-.307-2.899.074-5.19 2.484-5.116 5.383 0 .013.001.026.001.039v7.417h-9.889v-20.46h9.394v.017"/><path d="m222.32 64.732h-9.889v-6.82h9.889v6.82m-9.889 2.148h9.889v20.46h-9.889c0 0 0-20.46 0-20.46"/><path d="m228.39 66.88v-4.706l9.889-3.02v7.74h4.484v5.899h-4.484v5.797c-.236 1.22.563 2.401 1.783 2.636.126.024.254.038.382.04.787.011 1.571-.11 2.319-.358v5.899c-2.21.681-4.507 1.037-6.82 1.057-5.115 0-7.587-2.557-7.587-7.962v-7.124h-3.495v-5.9h3.495.034"/><path d="m254.87 66.88v4.637c1.176-2.898 3.154-5.115 6.24-5.115.54-.006 1.079.057 1.603.188v8.201c-.722-.225-1.477-.329-2.233-.307-2.908.083-5.198 2.509-5.115 5.417 0 .001 0 .003 0 .004v7.417h-9.889v-20.459h9.275l.119.017"/><path d="m265.97 67.6c2.758-.854 5.638-1.251 8.525-1.176 5.66 0 12.531 1.023 12.531 8.525v12.446h-9.19v-2.984c-1.449 2.26-4 3.563-6.683 3.41-3.802 0-7.502-1.705-7.502-6 0-6.291 5.643-7.536 10.571-7.536 1.364 0 2.95.205 3.853.273 0-2.626-2.745-2.95-5.217-2.95-2.372.054-4.702.637-6.82 1.705v-5.712h-.068m12.05 10.758h-.989c-2.046 0-4.399.188-4.399 2.319-.073 1.033.706 1.93 1.739 2 .183.013.366-.001.545-.042 1.822-.131 3.193-1.714 3.062-3.536-.003-.037-.006-.075-.01-.112v-.631h.052"/><path d="m326.33 79.41c.153 2.557 2.557 3.137 5.456 3.137 2.308.079 4.604-.364 6.717-1.296v5.302c-3 .845-6.108 1.241-9.224 1.176-8.286 0-12.685-4.01-12.685-11.06 0-7.06 4.399-10.332 12.685-10.332 7.928 0 10.724 4.944 10.724 11.935v1.211h-13.64l-.033-.068m5.115-4.314c0-1.569-.239-4.04-2.472-4.04-2.233 0-2.779 2.438-2.66 4.04h5.115.017"/></svg>
