<svg xmlns="http://www.w3.org/2000/svg" viewBox="0 0 340 160" enable-background="new 0 0 340 160"><path d="m292.37 90.65h11.01v4.206h.094c1.394-3.385 4.607-4.729 7.894-4.735 6.203 0 8.472 3.245 8.472 7.874v16.812h-11.665v-13.93c0-1.394 0-3.298-2.05-3.298-2.095 0-2.095 1.904-2.095 3.298v13.93h-11.665v-24.16m-272.37 24.16h12.365l1.991-6.987h10.466l2.133 6.987h13.01l-11.532-32.33h-17.09l-11.347 32.33m19.661-25.4h.093l3.523 10.658h-7.184l3.568-10.658m48.27 25.4h-11.02v-4.147h-.091c-1.394 3.383-4.609 4.729-7.895 4.673-6.203 0-8.47-3.242-8.47-7.871v-16.812h11.666v13.931c0 1.394 0 3.301 2.046 3.301 2.098 0 2.098-1.907 2.098-3.301v-13.931h11.665v24.16h-.002m24.67-12.518c0 8.34 5.192 13.05 14.953 13.05 9.711 0 14.997-4.711 14.997-13.05 0-8.109-5.286-12.174-14.997-12.174-9.761 0-14.953 4.065-14.953 12.174m12.422 0c0-2.878.278-5.246 2.531-5.246 2.251 0 2.573 2.368 2.573 5.246 0 3.527-.322 6.123-2.573 6.123-2.254 0-2.531-2.596-2.531-6.123m20.437-11.639h11.02v4.206h.094c1.394-3.385 4.606-4.729 8.264-4.735 3.241 0 6.619 1.253 7.546 4.128h.089c.791-2.781 4.888-4.128 7.757-4.128 8.518 0 8.518 5.515 8.518 10.197v14.488h-11.666v-13.93c0-1.394 0-3.298-2.094-3.298-2.05 0-2.05 1.904-2.05 3.298v13.93h-11.665v-13.93c0-1.394 0-3.298-2.051-3.298-2.094 0-2.094 1.904-2.094 3.298v13.93h-11.664v-24.16m99.75 24.16v-24.11h11.666v24.11h-11.666m0-26.969v-5.34h11.666v5.34h-11.666m14.181 14.451c0 8.34 5.194 13.05 14.955 13.05 9.712 0 14.996-4.711 14.996-13.05 0-8.109-5.283-12.174-14.996-12.174-9.761 0-14.955 4.065-14.955 12.174m12.426 0c0-2.878.274-5.246 2.529-5.246 2.252 0 2.573 2.368 2.573 5.246 0 3.527-.32 6.123-2.573 6.123-2.255 0-2.529-2.596-2.529-6.123m-29.379-11.67h-5.02v-8.134h-11.685v8.134h-4.967v6.784h4.967v17.404h11.685v-17.404h5.02v-6.784m-135.29-8.133h-11.685v8.184h-4.967v6.733h4.966v17.404h11.685v-17.404h5.02v-6.733h-5.02v-8.184h.001"/><path d="m308.8 76.49v-31.795h11.203v31.795h-11.203m-186.61-14.804v-.091c4.565-1.095 7.62-3.561 7.62-8.447 0-6.111-4.699-8.481-12.319-8.481h-19.723v31.823h12.228v-10.84h2.726c1.5 0 2.726.183 3.454 1.647.999 1.919 1.134 6.905 1.683 9.193h12.728c-1.278-3.098-1.142-8.02-3.01-11.389-1.144-1.683-2.738-2.959-5.387-3.415m0 0v-.091.091m-12.741-9.907h3.363c2.454 0 4.771.41 4.771 3.287 0 3.198-2.453 3.474-4.95 3.474h-3.184v-6.761m21.46 12.388c0 8.21 5.109 12.846 14.715 12.846 9.559 0 14.762-4.635 14.762-12.846 0-7.979-5.203-11.981-14.762-11.981-9.607 0-14.715 4-14.715 11.981m12.226 0c0-2.83.271-5.161 2.488-5.161 2.216 0 2.534 2.33 2.534 5.161 0 3.47-.318 6.03-2.534 6.03-2.217 0-2.488-2.559-2.488-6.03m42.27 11.664c-2.554.817-5.106 1.181-8.526 1.181-9.626 0-14.737-4.635-14.737-12.846 0-7.979 5.111-11.981 14.737-11.981 3.42 0 5.973.319 8.347.992v7.02c-1.414-.642-3.104-1.187-5.155-1.187-3.42 0-5.701 1.78-5.701 5.341 0 3.7 2.282 5.847 5.701 5.847 2.052 0 3.741-.456 5.335-1.416v7.05h-.001m14.41-12.629h.091l5.635-10.492h12.532l-6.628 10.492 7.881 13.288h-12.946l-6.474-13.288h-.091v13.288h-11.482v-31.797h11.482v18.509m31.901 5.075h.091l2.463-15.567h13.818l2.645 15.567h.092l2.088-15.567h10.489l-5.326 23.779h-14.319l-2.828-16.15h-.091l-2.936 16.15h-14.41l-5.327-23.779h11.264l2.287 15.567m62.36 8.213v-31.795h11.204v31.795h-11.204"/><path d="m291.1 65.924c0-7.993-3.241-13.739-12.477-13.739-9.632 0-14.731 4.02-14.731 11.96 0 8.228 5.099 12.864 14.731 12.864 4.03 0 7.682-.408 10.742-1.362v-6.154c-1.826.965-4.657 1.517-7.809 1.517-3.39 0-6.189-.689-6.371-3.674h15.915v-1.412m-15.962-3.6c-.136-1.858.459-4.665 3.118-4.665 2.615 0 2.889 2.853 2.889 4.665h-6.01"/><path d="m204.3 90.11c-4.538 0-6.622.417-10.1 1.387v6.781c2.318-1.174 5.284-2.067 8.06-2.067 2.914 0 6.104.376 6.151 3.52-1.065-.091-2.913-.325-4.533-.325-5.788 0-12.461 1.475-12.461 8.863 0 5.03 4.357 7.06 8.852 7.06 3.276.003 6.242-1.29 7.865-4.02h.09v3.489h10.843v-14.651c-.001-8.838-8.109-10.04-14.774-10.04m4.117 14.833c0 2.08-1.203 4.297-3.608 4.297-1.803 0-2.73-.645-2.73-2.311 0-2.493 2.776-2.725 5.18-2.725h1.157v.739"/></svg>
