<?xml version="1.0" encoding="utf-8"?>
<!-- Generator: Adobe Illustrator 23.0.6, SVG Export Plug-In . SVG Version: 6.00 Build 0)  -->
<svg version="1.1" id="Layer_1" xmlns="http://www.w3.org/2000/svg" xmlns:xlink="http://www.w3.org/1999/xlink" x="0px" y="0px"
	 viewBox="0 0 166 80" enable-background="new 0 0 166 80" xml:space="preserve">
<path fill="currentColor" d="M114.1,10.4v20.1l-4.6,1.6V8.8L95.8,4v32.9l-4.6,1.6V2.4L84.3,0l-6.9,2.4v36.1l-4.6-1.6V4L59.1,8.8v23.3l-4.6-1.6V10.4
	L49.9,12v21.7l13.8,4.8V12.1l4.6-1.6v29.7L82,44.9V5.7l2.3-0.8l2.3,0.8V45l13.8-4.8V10.5l4.6,1.6v26.5l13.8-4.8V12L114.1,10.4z"/>
<path fill="currentColor" d="M2.7,71.1h8.2v-2.2H2.7v-4.8h12.2v-2.2H0.2v16.9h15.1v-2.2H2.7V71.1z"/>
<path fill="currentColor" d="M67.1,72c0,3-2,5-5,5c-2.9,0-4.7-2-4.7-5V61.9H55v10.2c0,4.6,3.3,7.1,7.1,7.1c5.6,0,7.4-3.8,7.4-7.1V61.9h-2.4L67.1,72"/>
<path fill="currentColor" d="M83.1,61.9h2.4v16.9h-2.4V61.9z"/>
<path fill="currentColor" d="M114.5,75.1l-12-13.2h-2.4v16.9h2.4V65.4l12,13.3h2.4V61.9h-2.4V75.1z"/>
<path fill="currentColor" d="M131.6,61.9h2.4v16.9h-2.4V61.9z"/>
<path fill="currentColor" d="M157.6,69.6l7-7.7h-3L156,68l-5.4-6.1h-3.2l6.8,7.7l-8.5,9.2h3.1l7-7.5l6.6,7.5h3.4L157.6,69.6"/>
<path fill="currentColor" d="M33.7,61.2c-5,0-8.9,3.8-8.9,9.2v0.1c0,5.3,4,9,9,9c1.3,0,2.8-0.3,3.9-0.9l1.4,1.6h2.8l-2.4-2.8c2-1.5,3.2-4,3.2-7v-0.1
	C42.7,64.9,38.7,61.1,33.7,61.2 M40.2,70.3c0,2.4-0.8,3.9-2.2,5.3L36.7,74h-2.8l2.3,2.6c-0.6,0.3-1.6,0.5-2.4,0.5
	c-3.6,0-6.5-2.9-6.5-6.9v-0.1c0-4,2.7-6.9,6.3-6.9C37.3,63.3,40.2,66.2,40.2,70.3"/>
</svg>
