<svg xmlns="http://www.w3.org/2000/svg" viewBox="0 0 753.3 387.5" enable-background="new 0 0 753.3 387.5"><path d="m194.2 28.3c-14.1 5.8-27.2 13.6-39.8 21.7-36.1 23.1-67.5 53-89 86.4l23.1 10.8-36.3 12.8c-15.6 32.9-21.3 68.1-12.5 103l82.5-50.7c0 0 0 0 0 0l4.6-2.9c-.1-.1-.1-.3-.2-.4-.5-1-1.1-2.1-1.5-3.1 0 0 0-.1 0-.1-.5-1-.9-2.1-1.3-3.1 0-.1 0-.1-.1-.2-.4-1-.7-2.1-1-3.1 0-.1-.1-.2-.1-.3-.3-1-.6-2-.8-3.1 0-.1-.1-.3-.1-.4-.2-1-.4-2-.6-3 0-.2-.1-.4-.1-.6-.2-1-.3-1.9-.4-2.9 0-.2-.1-.5-.1-.7-.1-.9-.1-1.9-.2-2.8 0-.3 0-.6 0-.9 0-.9 0-1.8 0-2.7 0-.2 0-.4 0-.6 0 .2 0 .4 0 .6 0-.4 0-.7 0-1.1 0-.9.1-1.7.1-2.6 0-.4.1-.8.1-1.3.1-.8.2-1.6.2-2.4.1-.5.1-1 .2-1.4.1-.8.2-1.5.4-2.3.1-.5.2-1.1.3-1.6.1-.7.3-1.4.4-2.1.1-.6.3-1.2.4-1.8.2-.7.3-1.3.5-2 .2-.6.4-1.3.6-1.9.2-.6.4-1.2.6-1.9.2-.7.5-1.4.7-2.1.2-.6.4-1.2.6-1.8.3-.7.5-1.4.8-2.1.2-.6.5-1.1.7-1.7.2-.5.4-.9.6-1.4 0 .1-.1.2-.1.3 9.7-22.1 28.9-43.9 55.9-60.5 21.6-12.9 45.7-21.2 68.3-24.4 3.1-.4 5.7-.7 8.9-1l29.5-45-8 42.7-.4 2c0 0 0 0 0 0 19.8.4 38.3 6.3 52.1 16.8l74.5-45.9c-58.3-35.1-125.7-44.1-214-7.2"/><path d="m136.4 338.9l26.7-22.3 2.6 23.4c46.3-1.8 100.3-20.3 153.5-59.7l-42.6-59.6c-21.1 11.7-42.5 18.9-62.5 21.6l-34.6 48.2-9.7 13.5 12.8-61.1c-3.5-.5-4.3-.6-7.6-1.2-3.7-.7-7.3-1.7-10.7-2.8-3.8-1.2-7.4-2.7-10.8-4.4.4.2.9.4 1.4.6-2.7-1.3-5.3-2.8-7.8-4.4.3.2.7.4 1 .7-.9-.5-1.7-1.1-2.6-1.7-.8-.6-1.7-1.2-2.5-1.8-1.6-1.2-3.2-2.5-4.7-3.9-1.5-1.4-2.9-2.8-4.2-4.3-.7-.8-1.3-1.5-2-2.3-.5-.7-1-1.3-1.5-2l-88.9 54.6c12.3 38.2 47.6 63.1 94.7 68.9"/><path d="m29.9 271.9c-29.6-103.1 74-217.7 181.5-256.3-97.8 19.9-250.1 157.6-202.3 291.1 32.9 92 195.2 118.8 335.5 9l-10.6-14.7c24.2-20.3 40.6-39.4 47.2-52.1h-6.3c-151.9 155.2-317.8 117.6-345 23"/><path d="m752.1 122.8c-5-18.8-19.8-26.4-40.7-25.8-5.2.2-11.3 1-17.6 2.2l18.4-48.2h-35.6l-59.8 155.8-.5 1.1v.1-.1h24.9l10.3-7.5c0 0 5.7 7.2 17.8 8.9 30.9 4.4 57-14.3 70.9-35.8 9.8-15.1 15.7-36.1 11.9-50.7m-31.2 12.8c-.2 6.9-3.6 21.9-12.5 34.7-7.2 10.3-17.1 18-27.7 18.2-9.3.2-18.1-5.2-12.7-22.2 5.6-17.7 17.1-44.7 17.1-44.7 27.2-11 36.1 3.1 35.8 14"/><path d="m248.3 97c-23.7 2.3-42.1 9.1-60.9 26.2-14.4 13.2-23.9 33.9-24.3 50.3-.5 21.3 15.4 40.2 47.1 35.3 8.6-1.3 19.4-8.4 19.4-8.4l5 7.5h24.9l39.3-102.6c-7.6-3.7-26.4-10.6-50.5-8.3m-8.2 69.3c-8 17-19.1 22.8-27.9 22.2-9.7-.7-15.4-7.4-15.2-18.2.3-13.4 8.6-27.9 14.5-34.7 5.4-6.3 21.1-21.3 48.2-17.5 0 0-11.3 30.5-19.6 48.2"/><path d="m595.6 99.9l-27.6 72c-7.7 18.2-22.8 20.6-36.8 16l33.8-88h-35.5l-27.5 72c-8.1 18.2-26.9 21.1-36.9 15.9l33.6-87.8h-35.3l-35.8 93.6c5.9 12.8 30.6 17.7 44.2 17.7s31.7-5.5 40.3-10.8c7.6 6.1 19.6 10.8 32.8 10.8 39.3 0 50.8-22.3 57.9-38.6l28.1-72.7h-35.3z"/><path d="m382.7 97.5c-10.9 0-20.6.7-26.8 1.4-5.7.7-15.9 2.1-29.8 6l-39.6 103.1h36.2l33.4-86.6c4.7-1.2 11.9-2.2 17.8-2.2 11.7 0 16.7 4.5 15.9 10.4-.2 1.4-.6 2.7-1.3 4.3l-28.4 74h36.2l28-72.7c1.1-2.9 2-5.7 2.3-8.4 2.2-15.7-9.3-29.3-43.9-29.3"/></svg>