<svg viewBox="0 0 524.2 104.3" xmlns="http://www.w3.org/2000/svg"><path d="m86 75.8 2 8-30.8 17.8-5.9-5.8.5-22h15.4c4.4 0 7.6-2 9.3-3.4.3.1 9.5 5.4 9.5 5.4zm-38.8 19.9-5.9 5.8-30.8-17.9 2-8s7.5-4.3 7.8-4.5c2.1 1.8 4.6 2.6 7.6 2.6h19.2zm-36.7-23.6-7.9-2.2v-35.6l7.9-2.2 16.8 9.7s-1.1 2.4-.7 5.4c-11.7 2-13.1 14-9 20.7-.5.4-7.1 4.2-7.1 4.2zm2-43.6-2-8 30.8-17.7 5.9 5.8v21.1s-3.7 1.6-6.4 5.8c-6.8-2.1-11.1 2.9-11.1 2.9z"/><path d="m51.4 8.7 5.9-5.8 30.8 17.8-2 8-15.8 9.1s-1.7-4.8-7.5-7.8c-5.9-3.1-11.4-1.7-11.4-1.7zm36.6 23.5 7.9 2.2v35.6l-7.9 2.2s-8.4-4.9-8.5-4.9c6-8.6 1.5-20.1-7.8-23 0-1.1-.1-1.8-.3-2.5.1 0 16.6-9.6 16.6-9.6zm28.3.2h10.2l15.3 23.4v-23.4h9.6v39.5h-10.1l-15.4-23.5v23.5h-9.7v-39.5zm41.4 0h26.1v8.6h-16.4v7h15.2v8.4h-15.2v7.1h17.2v8.3h-26.8v-39.4zm32.9 0h15.9c6.6 0 11.8 4.9 11.8 11.1 0 3.7-1.5 6-4.3 8.1v.1c4.1 2.9 5.8 5.7 5.8 9.7 0 5.5-4.3 10.5-11.8 10.5h-17.4zm14.2 15.7c2.2 0 3.8-1.5 3.8-3.7 0-2-1.6-3.6-3.8-3.6h-4.6v7.3zm1.2 15.1c2.2 0 3.7-1.3 3.7-3.4 0-1.9-1.4-3.5-3.7-3.5h-5.9v6.9zm17.9-30.8h9.6v24.7c0 5.3 2.5 7.1 5.9 7.1 3.7 0 6-1.8 6-7.1v-24.7h9.7v26.2c0 9.3-7 14.6-15.7 14.6-9 0-15.5-5.5-15.5-14.6zm37.4 0h9.7v31.2h17.2v8.3h-26.8v-39.5zm48.6-1.4h1.7l19.4 40.8h-10.4l-2-4.1h-15.6l-1.9 4.1h-10.4zm5.4 29.9-4.5-10h-.1l-4.6 10zm6.2-28.5h10.1l8 18.6 4.8-12.4-2.5-6.3h10l7.9 18.6 7.2-18.6h10.1l-16.4 40.8h-1.3l-9.7-22.8-9.4 22.8h-1.2zm75.2-1.4c12.4 0 21.3 9.3 21.3 21.1s-8.8 21.1-21.3 21.1-21.3-9.3-21.3-21.1 8.8-21.1 21.3-21.1zm0 33c7 0 11.4-5.3 11.4-11.9s-4.5-11.9-11.4-11.9c-7 0-11.4 5.3-11.4 11.9-.1 6.6 4.3 11.9 11.4 11.9zm25.3-31.6h16.5c8.5 0 14 5.1 14 12.6 0 6.9-3.5 10.8-9.3 12.2l10.7 14.7h-12.1l-10.1-14.7v14.7h-9.7zm17.4 17.1c2.2 0 3.6-2.2 3.6-4.5s-1.7-4.3-3.9-4.3h-7.5v8.9h7.8zm17.9-17.1h9.7v17.6h.1l11.4-17.6h10.7l-13.6 18.8 14.3 20.7h-10.7l-12.1-19.1h-.1v19.1h-9.7zm43.5 27.9c0 2.3 2 4.1 4.3 4.1 2.6 0 4.2-1.4 4.2-3.4 0-3-4.1-3.8-7.6-4.9-7.1-2.4-11-5.5-11-12.2 0-7 6.4-12.8 14.3-12.8 9.3 0 13.7 5.6 14.3 12.9h-9.7c0-2.2-1.5-4.1-4.3-4.1-2.2 0-4.4 1.3-4.4 3.8 0 3 3.9 3.5 7.4 4.5 7.5 2.1 11 6.1 11 12.2 0 7-6.3 12.8-14.2 12.8-9.2 0-14.4-5.8-14.4-12.9z"/></svg>