<?xml version="1.0" encoding="UTF-8"?>
<svg width="160" height="48" version="1.1" xmlns="http://www.w3.org/2000/svg" xmlns:cc="http://creativecommons.org/ns#" xmlns:dc="http://purl.org/dc/elements/1.1/" xmlns:rdf="http://www.w3.org/1999/02/22-rdf-syntax-ns#" xmlns:xlink="http://www.w3.org/1999/xlink">
 <defs>
  <radialGradient id="radialGradient5220" cx="-98.234" cy="3.4696" r="22.671" gradientTransform="matrix(0 1.9748 -2.1172 3.9784e-8 18.677 1199.6)" gradientUnits="userSpaceOnUse">
   <stop stop-color="#fff" stop-opacity=".098039" offset="0"/>
   <stop stop-color="#fff" stop-opacity="0" offset="1"/>
  </radialGradient>
  <filter id="filter2214" color-interpolation-filters="sRGB">
   <feColorMatrix values="0.21 0.151976 0.072 0 0 0.21 0.151976 0.072 0 0 0.21 0.151976 0.072 0 0 0 0 0 1 0 "/>
  </filter>
 </defs>
 <metadata>
  <rdf:RDF>
   <cc:Work rdf:about="">
    <dc:format>image/svg+xml</dc:format>
    <dc:type rdf:resource="http://purl.org/dc/dcmitype/StillImage"/>
    <dc:title/>
   </cc:Work>
  </rdf:RDF>
 </metadata>
 <g transform="translate(-289 -514.36)" filter="url(#filter2214)">
  <g transform="matrix(.90948 0 0 .90948 31.22 47.172)" color="#000000" fill="#4d4d4d" stroke-width="1.0995px">
   <path d="m343.57 549.3 2.2485-0.43519v-15.159l-2.2485-0.43519v-2.5531h16.813v5.788h-3.2494l-0.18858-2.5241h-6.8905v5.817h7.3982v3.2639h-7.3982v5.8025l2.263 0.43519v2.5386h-8.7473z"/>
   <path d="m371.18 544.44h-8.1815v-3.2639h8.1815z"/>
   <path d="m383.24 530.71q3.8732 0 6.3828 2.4806 2.5096 2.4661 2.5096 6.3392v3.496q0 3.8877-2.5096 6.3538-2.5096 2.4516-6.3828 2.4516h-9.5016v-2.5386l2.2485-0.43519v-15.159l-2.2485-0.43519v-2.5531h2.2485zm-3.0173 3.2639v14.608h2.7997q2.2775 0 3.5685-1.5377 1.291-1.5377 1.291-4.0182v-3.525q0-2.4516-1.291-3.9892-1.2911-1.5377-3.5685-1.5377z"/>
   <path d="m394.65 549.3 2.0309-0.43519v-9.7337l-2.2485-0.43519v-2.5531h6.1942l0.18858 2.292q0.55124-1.2185 1.4216-1.9003 0.87037-0.6818 2.0164-0.6818 0.33364 0 0.6963 0.058 0.37716 0.0435 0.62377 0.11605l-0.4497 3.8587-1.7408-0.0435q-0.9284 0-1.5377 0.36265-0.60927 0.36266-0.9284 1.03v7.6303l2.0309 0.43519v2.5386h-8.2976z"/>
   <path d="m406.57 543.84q0-3.5105 1.9583-5.7445 1.9728-2.2485 5.4398-2.2485 3.4815 0 5.4398 2.234 1.9728 2.234 1.9728 5.759v0.30464q0 3.5395-1.9728 5.7735-1.9584 2.2194-5.4108 2.2194-3.496 0-5.4689-2.2194-1.9583-2.234-1.9583-5.7735zm4.2358 0.30464q0 2.1469 0.75433 3.4525 0.75433 1.291 2.437 1.291 1.6392 0 2.3935-1.3056 0.76884-1.3056 0.76884-3.438v-0.30464q0-2.0889-0.76884-3.409-0.76883-1.3201-2.4225-1.3201t-2.408 1.3201-0.75433 3.409z"/>
   <path d="m423.09 549.3 2.0454-0.43519v-9.7337l-2.263-0.43519v-2.5531h6.4988v12.722l2.0309 0.43519v2.5386h-8.3121zm6.2812-16.914h-4.2358v-3.1769h4.2358z"/>
   <path d="m443.01 549.92q-0.73982 1.088-1.7553 1.6537-1.0009 0.56574-2.292 0.56574-2.9012 0-4.5114-2.1179-1.5957-2.1179-1.5957-5.5994v-0.30463q0-3.7136 1.6102-5.9911 1.6102-2.2775 4.526-2.2775 1.175 0 2.1179 0.52223 0.9429 0.50772 1.6537 1.4506v-5.6284l-2.263-0.43519v-2.5531h6.4988v19.656l2.0309 0.43519v2.5386h-5.701zm-5.9186-5.4979q0 2.0599 0.6818 3.2494 0.6963 1.175 2.263 1.175 0.9284 0 1.6102-0.37716 0.68179-0.37716 1.117-1.088v-6.6584q-0.43519-0.75433-1.117-1.1605-0.66729-0.42068-1.5812-0.42068-1.5522 0-2.263 1.3781-0.71081 1.3781-0.71081 3.5976z"/>
  </g>
  <g transform="matrix(1 0 0 1 277.67 -490.58)">
   <g transform="translate(10)">
    <g transform="matrix(-1 0 0 1 48 0)" fill-rule="evenodd">
     <path d="m2.5889 1006.9 4.25 5.5" fill="#8ab000" stroke="#769616" stroke-linecap="round" stroke-width="2.5"/>
     <g shape-rendering="auto">
      <path d="m2.6113 1005.6c-0.45346 0.012-0.7617 0.189-0.98075 0.4486 2.0269 2.4089 2.3684 2.7916 5.1355 6.2214 1.0195 1.319 2.0816 0.6373 1.0621-0.6817l-4.25-5.5c-0.22899-0.3056-0.58508-0.478-0.9668-0.4883z" color="#000000" color-rendering="auto" fill="#fff" fill-opacity=".29804" image-rendering="auto" solid-color="#000000" style="isolation:auto;mix-blend-mode:normal;text-decoration-color:#000000;text-decoration-line:none;text-decoration-style:solid;text-indent:0;text-transform:none;white-space:normal"/>
      <path d="m1.6221 1006.1c-0.12389 0.1479-0.56118 0.8046-0.02249 1.5562l4.25 5.5c1.0195 1.319 1.1499-0.6123 1.1499-0.6123s-3.7345-4.51-5.3774-6.4439z" color="#000000" color-rendering="auto" fill="#263238" fill-opacity=".2" image-rendering="auto" solid-color="#000000" style="isolation:auto;mix-blend-mode:normal;text-decoration-color:#000000;text-decoration-line:none;text-decoration-style:solid;text-indent:0;text-transform:none;white-space:normal"/>
      <path d="m2.3379 1005.8c-0.43818 0-0.95986 0.1416-0.82422 0.7986 0.10356 0.5016 4.6608 6.0744 4.6608 6.0744 1.0195 1.319 2.4935 0.6763 1.4739-0.6425l-4.2344-5.4727c-0.26024-0.29-0.60852-0.7436-1.0762-0.7578z" color="#000000" color-rendering="auto" fill="#8ab000" image-rendering="auto" solid-color="#000000" style="isolation:auto;mix-blend-mode:normal;text-decoration-color:#000000;text-decoration-line:none;text-decoration-style:solid;text-indent:0;text-transform:none;white-space:normal"/>
     </g>
    </g>
    <g fill-rule="evenodd">
     <path d="m2.5889 1006.9 4.25 5.5" fill="#8ab000" stroke="#769616" stroke-linecap="round" stroke-width="2.5"/>
     <g shape-rendering="auto">
      <path d="m2.6113 1005.6c-0.45346 0.012-0.7617 0.189-0.98075 0.4486 2.0269 2.4089 2.3684 2.7916 5.1355 6.2214 1.0195 1.319 2.0816 0.6373 1.0621-0.6817l-4.25-5.5c-0.22899-0.3056-0.58508-0.478-0.9668-0.4883z" color="#000000" color-rendering="auto" fill="#fff" fill-opacity=".29804" image-rendering="auto" solid-color="#000000" style="isolation:auto;mix-blend-mode:normal;text-decoration-color:#000000;text-decoration-line:none;text-decoration-style:solid;text-indent:0;text-transform:none;white-space:normal"/>
      <path d="m1.6221 1006.1c-0.12389 0.1479-0.56118 0.8046-0.02249 1.5562l4.25 5.5c1.0195 1.319 1.1499-0.6123 1.1499-0.6123s-3.7345-4.51-5.3774-6.4439z" color="#000000" color-rendering="auto" fill="#263238" fill-opacity=".2" image-rendering="auto" solid-color="#000000" style="isolation:auto;mix-blend-mode:normal;text-decoration-color:#000000;text-decoration-line:none;text-decoration-style:solid;text-indent:0;text-transform:none;white-space:normal"/>
      <path d="m2.3379 1005.8c-0.43818 0-0.95986 0.1416-0.82422 0.7986 0.10356 0.5016 4.6608 6.0744 4.6608 6.0744 1.0195 1.319 2.4935 0.6763 1.4739-0.6425l-4.2344-5.4727c-0.26024-0.29-0.60852-0.7436-1.0762-0.7578z" color="#000000" color-rendering="auto" fill="#8ab000" image-rendering="auto" solid-color="#000000" style="isolation:auto;mix-blend-mode:normal;text-decoration-color:#000000;text-decoration-line:none;text-decoration-style:solid;text-indent:0;text-transform:none;white-space:normal"/>
     </g>
    </g>
    <g transform="translate(42)">
     <rect x="-37" y="1010.4" width="38" height="13" rx="3" ry="3" fill="#aeea00"/>
     <rect x="-37" y="1013.4" width="38" height="10" rx="3" ry="3" fill="#263238" fill-opacity=".2"/>
     <rect x="-37" y="1010.4" width="38" height="10" rx="3" ry="3" fill="#fff" fill-opacity=".29804"/>
     <rect x="-37" y="1011.4" width="38" height="11" rx="3" ry="2.5385" fill="#aeea00"/>
    </g>
    <rect x="5" y="1024.4" width="38" height="26" rx="3" ry="3" fill="#1976d2"/>
    <rect x="5" y="1037.4" width="38" height="13" rx="3" ry="3" fill="#263238" fill-opacity=".2"/>
    <rect x="5" y="1024.4" width="38" height="13" rx="3" ry="3" fill="#fff" fill-opacity=".2"/>
    <rect x="5" y="1025.4" width="38" height="24" rx="3" ry="2.7692" fill="#1976d2"/>
    <g transform="translate(0 1013.4)">
     <path d="m24 17.75c-2.8807 0-5.3198 1.9847-6.0332 4.6504h3.2129c0.55432-0.98535 1.5951-1.6504 2.8203-1.6504 1.8127 0 3.25 1.4373 3.25 3.25 0 1.8127-1.4373 3.25-3.25 3.25-1.3074 0-2.4113-0.75269-2.9297-1.8496h-3.1543c0.64225 2.7658 3.1319 4.8496 6.084 4.8496 3.434 0 6.25-2.816 6.25-6.25 0-3.434-2.816-6.25-6.25-6.25z" color="#000000" color-rendering="auto" fill="#0d47a1" image-rendering="auto" shape-rendering="auto" solid-color="#000000" style="isolation:auto;mix-blend-mode:normal;text-decoration-color:#000000;text-decoration-line:none;text-decoration-style:solid;text-indent:0;text-transform:none;white-space:normal"/>
     <circle cx="24" cy="24" r="9.55" fill="none" stroke="#0d47a1" stroke-linecap="round" stroke-width="1.9"/>
    </g>
    <g transform="translate(0 .50002)">
     <ellipse cx="14.375" cy="1016.5" rx="3.375" ry="3.875" fill="#263238" fill-opacity=".2"/>
     <circle cx="14.375" cy="1017" r="3.375" fill="#fff"/>
    </g>
    <g transform="translate(19.5 .50002)">
     <ellipse cx="14.375" cy="1016.5" rx="3.375" ry="3.875" fill="#263238" fill-opacity=".2"/>
     <circle cx="14.375" cy="1017" r="3.375" fill="#fff"/>
    </g>
   </g>
   <path d="m12.613 1005.6a1.2501 1.2501 0 0 0-1.0117 2.0293l3.6035 4.6641c-0.12699 0.3331-0.20312 0.6915-0.20312 1.0703v7c0 1.662 1.338 3 3 3h32c1.662 0 3-1.338 3-3v-7c0-0.3803-0.0771-0.74-0.20508-1.0742l3.6016-4.6602a1.2501 1.2501 0 0 0-1.0488-2.0273 1.2501 1.2501 0 0 0-0.92969 0.498l-3.4316 4.4414c-0.31022-0.1079-0.63841-0.1777-0.98633-0.1777h-32c-0.34857 0-0.67757 0.069-0.98828 0.1777l-3.4336-4.4414a1.2501 1.2501 0 0 0-0.96679-0.5zm5.3887 18.764c-0.20775 0-0.40983 0.021-0.60547 0.061-1.3695 0.2761-2.3945 1.4698-2.3945 2.9101v20.029c0 1.662 1.338 3 3 3h32c1.662 0 3-1.338 3-3v-20.029c0-1.4403-1.025-2.634-2.3945-2.9101-0.19565-0.039-0.39772-0.061-0.60547-0.061h-32z" color="#000000" color-rendering="auto" fill="url(#radialGradient5220)" fill-rule="evenodd" image-rendering="auto" shape-rendering="auto" solid-color="#000000" style="isolation:auto;mix-blend-mode:normal;text-decoration-color:#000000;text-decoration-line:none;text-decoration-style:solid;text-indent:0;text-transform:none;white-space:normal"/>
  </g>
 </g>
</svg>
