<?xml version="1.0" encoding="utf-8"?>
<!-- Generator: Adobe Illustrator 23.0.6, SVG Export Plug-In . SVG Version: 6.00 Build 0)  -->
<svg version="1.1" id="Layer_1" xmlns="http://www.w3.org/2000/svg" xmlns:xlink="http://www.w3.org/1999/xlink" x="0px" y="0px"
	 viewBox="0 0 340 160" enable-background="new 0 0 340 160" xml:space="preserve">
<g>
	<path fill="currentColor" d="M258.9,58.3h-30.7l7.6-28.1l-26.1,28.1H87.3c0,0-0.5,0-0.5,0.3c0,0.2,0.2,0.3,0.5,0.3l120.1,1.9L192.3,77
		c0,0-0.3,0.3-0.1,0.5c0.1,0.1,0.3,0,0.5-0.1l17.1-16.5l15.3,0.3l-2.9,13.1l-49.3,26.5c0,0-0.4,0.2-0.3,0.4c0.1,0.2,0.3,0.1,0.5,0
		l48.4-24l-5.5,24.8c0,0-0.1,0.4,0.1,0.5c0.2,0,0.3-0.1,0.4-0.3l6.9-25.9L258.9,58.3 M212.4,58.3L229.2,42l-3.7,16.3H212.4z
		 M227.5,61.1l18.3,0.3l-21.5,11.5L227.5,61.1L227.5,61.1z M2.8,114h5.4l-2.1,9.8h4.9l-0.8,3.7H0L2.8,114 M26.9,120.7
		c0.6-3,1.4-3.6,2.2-3.6s1.4,0.5,0.6,3.6c-0.6,3.1-1.4,3.6-2.2,3.6S26.1,123.8,26.9,120.7 M21.3,120.6c-0.9,4.2,0.8,7.1,5.5,7.1
		s7.6-2.9,8.5-7.1s-0.8-7.1-5.5-7.1C25.1,113.6,22.2,116.4,21.3,120.6z M58.1,122.4c-0.8,3.7-4.1,5.3-7.4,5.3
		c-4.8,0-6.3-2.8-5.4-7.1c0.7-4.2,3.8-7,8.4-7c3.4,0,5.9,1.4,5.1,5.3h-4.9c0.3-1.6-0.3-1.8-0.9-1.8c-1.4,0-1.8,1.4-2.3,3.6
		c-0.5,2-0.6,3.6,0.7,3.6c0.7,0,1.3-0.4,1.6-1.8L58.1,122.4 M71.7,114h5.2l-1.2,5.8l4-5.8h5.6l-4.9,6.3l2.6,7.1h-5.8l-1.8-6l-1.3,6
		h-5.2L71.7,114 M102.5,122.5h-2.3l-1.1,4.9h-5.3l2.8-13.4h5.4l-1,4.5h2.3l1-4.5h5.3l-2.8,13.4h-5.4L102.5,122.5 M122,114h10.2
		l-0.7,3.5h-5.1l-0.4,1.5h4.8l-0.7,3.5h-4.8l-0.3,1.6h5.3l-0.7,3.5h-10.4L122,114 M145.1,114h10.2l-0.7,3.5h-5.1l-0.4,1.5h4.8
		l-0.7,3.5h-4.8l-0.3,1.6h5.3l-0.8,3.5h-10.4L145.1,114 M172.8,117h0.5c0.8,0,1.3,0.3,1.6,0.8c0.3,0.5,0.2,1.6-0.2,2.8
		c-0.3,1.3-0.5,2.3-1.1,2.8c-0.5,0.5-1,0.8-1.9,0.8h-0.5L172.8,117 M165.3,127.4h6.7c4.1,0,7.3-2.6,8.2-6.6c0.8-4-0.3-6.9-5.7-6.9
		h-6.3L165.3,127.4z M215.7,117.8L215.7,117.8l-4,9.6h-4.9l0.2-9.6l-2.1,9.6h-4.5l2.8-13.4h7.4l-0.2,8l3.2-8h7.4l-2.8,13.4h-4.6
		L215.7,117.8 M236.6,121.9l2.3-5.1v5.1H236.6 M229,127.4h5.1l1-2.2h3.8l0.1,2.2h5.5l-1.5-13.4h-6.9L229,127.4L229,127.4z
		 M263.3,119.6l0.5-2.6h0.5c1,0,1.6,0.2,1.5,1.2c-0.2,1-1,1.4-2.1,1.4L263.3,119.6 M256.3,127.4h5.2l1-4.8h0.6
		c0.9,0,1.1,0.3,1.1,0.9c-0.1,1.2-0.3,2.8-0.2,3.8h5.2c-0.2-2,0.3-3.9,0.2-5.1c0-1-0.6-1.6-1.9-1.7c2.1-0.5,3-1.6,3.4-3.2
		c0.5-2.6-1-3.4-3.8-3.4h-7.9L256.3,127.4L256.3,127.4z M286.3,117.5H283l0.7-3.6h12l-0.7,3.6h-3.4l-2.1,9.9h-5.3L286.3,117.5
		 M308,114h5.4l-2.9,13.4h-5.3L308,114 M326.4,114h6.4l1.1,8.1h0.1l1.7-8.1h4.3l-2.8,13.4h-6.4l-1.1-8.2h-0.1l-1.7,8.2h-4.3
		L326.4,114"/>
</g>
</svg>
