<svg xmlns="http://www.w3.org/2000/svg" viewBox="0 0 340 160" enable-background="new 0 0 340 160"><path d="m276.33 98.81c-.154.132-.354.204-.558.204h-10.905c-.345 0-.681-.182-.823-.497-.164-.362-.069-.785.228-1.03l19.9-16.759c.443-.374.445-1.057.002-1.432l-19.872-16.872c-.241-.205-.381-.519-.327-.831.075-.429.443-.722.858-.722h10.494c.201 0 .397.071.558.203l21.655 18.217.196.167c.333.284.342.795.019 1.091l-.214.196-21.21 18.07"/><path d="m63.695 61.13h-6.654c-.798 0-1.451.653-1.451 1.452v21.506c0 .505-.595.776-.976.444l-24.628-21.44c-1.679-1.461-3.504-2.205-5.429-2.205-1.7 0-4.557.694-4.557 5.335v31.11c0 .802.65 1.451 1.451 1.451h6.65c.801 0 1.451-.65 1.451-1.451v-21.594c0-.506.596-.776.977-.443l24.888 21.765c1.543 1.369 3.22 2.063 4.986 2.063 1.772 0 4.743-.725 4.743-5.579v-30.967c-.001-.798-.654-1.451-1.451-1.451"/><path d="m112.37 61.13h-7.734c-.473 0-.861.385-.861.861v25.19c0 2.075-2.576 3.127-7.66 3.127h-10.519c-5.179 0-7.809-1.052-7.809-3.127v-25.19c0-.476-.385-.861-.862-.861h-7.829c-.477 0-.864.385-.864.861v25.574c0 1.774.301 3.305.884 4.551.581 1.232 1.373 2.293 2.355 3.152.962.839 2.092 1.506 3.351 1.978 1.222.462 2.51.81 3.821 1.039 1.305.236 2.662.377 4.04.429 1.338.049 2.596.074 3.774.074h8.559c6.283 0 10.754-.869 13.673-2.654 3.02-1.846 4.547-4.727 4.547-8.568v-25.575c.002-.476-.387-.862-.862-.862"/><path d="m157.58 67.782v-4.957c0-.96-.777-1.737-1.737-1.737h-37.827c-.96 0-1.738.778-1.738 1.738v4.956c0 .96.778 1.738 1.738 1.738h13.232c.484 0 .876.392.876.876v26.66c0 .96.778 1.738 1.738 1.738h6.079c.96 0 1.739-.779 1.739-1.738v-26.66c0-.484.392-.876.876-.876h13.285c.961 0 1.739-.778 1.739-1.738"/><path d="m167.5 79.872l4.846-6.965c.221-.32.693-.321.918-.004l4.904 6.916c.228.321-.002.766-.396.766h-9.898c-.367-.001-.583-.413-.374-.713m10.663-16.188c-1.303-1.819-3.03-2.743-5.127-2.743-2.071 0-3.779.941-5.085 2.803l-23.333 33.693c-.223.32-.207.757.063 1.064.175.199.443.292.707.292h9.173c.292 0 .566-.149.725-.394l5.86-9.02c.128-.197.347-.316.583-.316 0 0 19.537-.005 22.494-.001.235 0 .451.117.581.313l5.992 9.03c.159.242.429.387.719.387h8.803c.316 0 .611-.176.759-.461.151-.282.132-.622-.046-.886l-22.868-33.762"/><path d="m246.99 61.13h-6.837c-.749 0-1.358.608-1.358 1.359v21.802c0 .427-.502.655-.824.375l-24.779-21.574c-1.678-1.461-3.506-2.205-5.434-2.205-1.7 0-4.555.694-4.555 5.335v31.21c0 .748.611 1.359 1.359 1.359h6.835c.751 0 1.36-.609 1.36-1.36v-21.888c0-.427.503-.655.825-.374l25.04 21.899c1.541 1.369 3.22 2.063 4.986 2.063 1.77 0 4.742-.725 4.742-5.579v-31.06c.001-.751-.609-1.361-1.36-1.361"/><path d="m260.09 61.13h-7.826c-.477 0-.862.385-.862.861v35.934c0 .475.385.862.862.862h7.826c.476 0 .864-.387.864-.862v-35.933c0-.476-.388-.862-.864-.862"/><path d="m300.88 76.856c.347.296.859.296 1.206.001l17.37-14.435c.241-.205.381-.519.327-.831-.075-.429-.443-.722-.858-.722h-10.494c-.201 0-.397.071-.558.203l-12.189 9.936c-.441.371-.443 1.049-.004 1.423l5.2 4.425"/><path d="m300.83 83.17c.348-.296.859-.297 1.207-.001l17.628 14.397c.241.205.381.519.327.831-.075.428-.443.722-.858.722h-10.495c-.201 0-.397-.071-.558-.203l-12.11-10.08c-.441-.371-.443-1.049-.004-1.423l4.865-4.238"/></svg>
