<svg xmlns="http://www.w3.org/2000/svg" viewBox="0 0 431 345"><defs><linearGradient id="a" gradientUnits="userSpaceOnUse" x1="319.208" y1="235.149" x2="657.653" y2="269.494" gradientTransform="translate(-270.926 -65.7)"><stop offset="0" stop-color="#444"/><stop offset="1" stop-color="#969898"/></linearGradient></defs><path d="M71.148 325.001l111.097-145.256L67.868 20.032l73.515.061 91.138 125.583L96.25 325.001zm217.447.103l-90.508-125.798L335.49 19.896h24.482l-111.55 145.942L362.11 325.104z" fill="#444"/><path d="M215.484 78.126c-8.85 0-18.307.685-26.82 1.502 15.166 19.78 27.75 36.53 42.233 55.552-8.129-17.493-24.835-34.268-19.06-42.895 5.717-8.54 16.251-7.102 17.054-7.102 16.888 0 33.145 1.907 48.343 5.438l3.563-4.907c-20.27-5.218-42.289-7.588-65.313-7.588zm91.47 15.963l-3.282 4.688c46.826 18.336 78.5 53.36 78.5 93.5 0 59.106-68.665 107.062-153.281 107.062-84.617 0-153.313-47.956-153.313-107.062 0-32.188 20.372-61.08 52.594-80.719l-9.906-15.094c-50.546 21.432-84.094 59.05-84.094 101.875 0 66.634 81.222 120.688 181.312 120.688 100.09 0 181.344-54.054 181.344-120.688 0-44.433-36.122-83.292-89.875-104.25z" fill="url(#a)"/></svg>