<svg xmlns="http://www.w3.org/2000/svg" viewBox="0 0 340 160" enable-background="new 0 0 340 160"><g transform="matrix(1.25 0 0-1.25-503.27 83.22)"><path d="m432.58 12.864c-.541-.294-.734-.979-.448-1.518.287-.553.971-.749 1.511-.46.541.299.739.977.45 1.527-.198.372-.584.587-.982.587-.18 0-.363-.043-.531-.136m2.995-.047c-.484-.259-.655-.862-.401-1.349.255-.484.855-.665 1.333-.4.49.264.662.865.406 1.35-.173.331-.512.524-.865.524-.159.001-.322-.041-.473-.125m-5.836-.802c-.611-.334-.843-1.107-.507-1.72.333-.616 1.095-.856 1.715-.521.613.334.836 1.107.507 1.72-.227.43-.663.675-1.115.675-.202 0-.409-.05-.6-.154m8.709-.141c-.423-.237-.586-.773-.359-1.192.227-.423.764-.579 1.172-.348.43.23.584.759.353 1.181-.153.296-.455.462-.766.462-.136-.001-.274-.035-.4-.103m-10.963-1.781c-.549-.302-.751-.972-.455-1.528.296-.541.961-.744 1.503-.45.551.294.751.979.458 1.518-.2.378-.588.596-.984.596-.178 0-.357-.043-.522-.136m13.435-.013c-.368-.203-.5-.655-.309-1.016.195-.361.643-.494 1.014-.307.358.205.499.657.302 1.021-.138.25-.395.395-.657.395-.118-.001-.237-.031-.35-.093m1.827-2.452c-.289-.17-.408-.558-.242-.853.161-.304.539-.413.831-.252.304.163.416.536.252.84-.114.215-.329.334-.554.334-.095 0-.194-.022-.287-.069m-16.871-.079c-.48-.264-.658-.872-.406-1.354.265-.48.865-.667 1.343-.401.482.257.667.865.406 1.352-.183.331-.526.521-.877.521-.157 0-.316-.039-.466-.118m17.802-2.605c-.368-.193-.506-.655-.306-1.018.188-.363.648-.497.996-.311.366.213.505.668.314 1.028-.136.25-.393.391-.655.391-.119.001-.24-.029-.349-.09m-18.588-.342c-.416-.225-.571-.756-.348-1.176.232-.428.754-.584 1.177-.356.418.23.578.767.351 1.184-.156.292-.452.458-.759.458-.142.001-.286-.036-.421-.11m18.591-2.502c-.423-.235-.573-.759-.354-1.191.223-.416.764-.569 1.181-.346.422.23.573.761.344 1.182-.154.294-.448.458-.757.458-.14.001-.28-.035-.414-.103m-18.466-.555c-.356-.2-.49-.658-.296-1.019.198-.368.65-.495 1-.294.361.185.507.65.302 1.01-.139.247-.393.391-.658.391-.117 0-.238-.028-.352-.089m17.568-2.164c-.485-.257-.66-.875-.405-1.359.264-.48.863-.662 1.335-.403.494.269.663.868.413 1.357-.181.333-.522.524-.875.524-.158 0-.319-.037-.468-.119m-16.531-.734c-.302-.16-.411-.539-.249-.851.161-.297.534-.413.841-.254.299.171.411.549.247.851-.113.208-.329.327-.551.327-.096.001-.195-.023-.288-.073m14.806-1.592c-.544-.297-.742-.979-.45-1.522.285-.546.964-.749 1.51-.448.541.282.741.976.447 1.516-.205.373-.588.591-.982.591-.177 0-.357-.043-.525-.137m-13.08-.647c-.363-.191-.497-.652-.302-1.013.19-.364.642-.499 1-.297.359.188.495.643.302 1.01-.131.249-.388.388-.653.388-.119 0-.239-.027-.35-.086m10.673-1.018c-.613-.329-.848-1.1-.507-1.72.333-.616 1.098-.843 1.715-.517.61.339.836 1.115.509 1.718-.228.43-.663.677-1.113.677-.204 0-.411-.05-.604-.158m-8.315-.552c-.43-.233-.583-.756-.351-1.179.218-.427.747-.589 1.167-.361.423.24.581.773.354 1.192-.16.287-.46.453-.764.453-.137.001-.278-.031-.406-.105m5.618-.558c-.544-.291-.734-.969-.437-1.522.282-.541.956-.756 1.5-.448.546.287.741.971.452 1.515-.205.376-.588.589-.984.589-.18.001-.361-.043-.531-.134m-2.875-.174c-.482-.262-.653-.872-.398-1.352.264-.487.863-.668 1.345-.408.487.255.663.867.403 1.357-.176.333-.521.517-.877.517-.161 0-.322-.035-.473-.114"/><path d="m433.08 15.929c-.223-.756.205-1.543.956-1.77.751-.223 1.535.215 1.757.962.225.756-.205 1.553-.952 1.772-.136.042-.272.06-.406.06-.616.001-1.172-.404-1.355-1.024m3.791-.46c-.25-.873.227-1.777 1.102-2.035.862-.257 1.763.237 2.01 1.1.262.877-.232 1.79-1.098 2.047-.153.044-.306.065-.457.065-.706 0-1.356-.465-1.561-1.177m-7.596-.332c-.195-.673.19-1.375.857-1.574.665-.198 1.369.181 1.562.858.19.668-.193 1.374-.853 1.572-.118.034-.235.05-.351.05-.548.001-1.051-.359-1.215-.906m11.433-1.468c-.223-.754.21-1.545.959-1.768.751-.223 1.537.217 1.757.969.223.754-.205 1.547-.956 1.77-.133.04-.265.059-.398.059-.614-.001-1.177-.41-1.362-1.03m-14.705-.554c-.154-.532.141-1.082.67-1.239.524-.155 1.075.151 1.231.677.153.527-.15 1.082-.675 1.239-.092.029-.186.042-.279.042-.429-.001-.822-.284-.947-.719m17.778-2.269c-.2-.68.186-1.377.85-1.575.67-.196 1.364.193 1.564.863.2.665-.181 1.37-.853 1.565-.118.035-.237.052-.354.052-.54 0-1.04-.358-1.207-.905m-20.365-.727c-.128-.423.121-.875.544-.998.425-.126.865.118.994.544.131.423-.119.873-.541 1-.072.02-.146.03-.22.03-.351.001-.673-.224-.777-.58m22.55-2.906c-.163-.539.15-1.09.67-1.244.529-.156 1.076.146 1.231.677.155.531-.144 1.083-.668 1.236-.094.029-.19.042-.284.042-.43 0-.826-.282-.949-.711m-24.07-.814c-.092-.322.082-.662.401-.754.321-.094.652.092.746.411.092.319-.087.653-.408.751-.057.015-.112.024-.168.024-.258-.001-.495-.17-.571-.432m25-3.226c-.128-.425.114-.88.544-1 .427-.128.87.119.996.549.123.422-.116.873-.544 1-.074.02-.15.032-.222.032-.35 0-.676-.229-.774-.581m-25.719-.736c-.128-.425.123-.872.546-.999.423-.128.868.113.994.544.128.427-.114.875-.541 1-.074.024-.148.032-.222.032-.348 0-.668-.232-.777-.581m25.394-3.344c-.087-.317.089-.658.403-.747.322-.094.652.087.742.41.097.317-.084.657-.403.751-.054.015-.109.022-.163.022-.257-.001-.502-.172-.579-.436m-24.822-.589c-.148-.527.136-1.085.67-1.239.519-.16 1.073.149 1.228.682.153.527-.149 1.082-.67 1.228-.097.03-.195.044-.292.044-.427-.001-.817-.282-.936-.715m22.909-3.01c-.124-.43.119-.88.537-1 .432-.128.878.119 1 .544.123.423-.119.878-.544 1.01-.074.022-.149.032-.225.032-.348 0-.669-.228-.771-.581m-21.243-.468c-.198-.67.18-1.372.85-1.574.673-.2 1.365.186 1.567.858.197.67-.191 1.379-.858 1.579-.118.035-.237.052-.354.052-.543 0-1.04-.361-1.205-.915m18.292-2.422c-.151-.526.155-1.082.675-1.239.522-.156 1.071.149 1.224.672.16.534-.141 1.088-.665 1.243-.096.029-.19.042-.282.042-.43-.001-.824-.286-.952-.718m-15.517-.323c-.218-.747.203-1.54.957-1.765.752-.218 1.535.215 1.76.967.215.749-.212 1.548-.966 1.768-.134.04-.269.059-.4.059-.613.001-1.172-.402-1.351-1.029m3.432-1.665c-.249-.878.235-1.78 1.103-2.039.862-.25 1.772.249 2.02 1.11.254.87-.235 1.782-1.103 2.039-.153.045-.307.065-.458.065-.706 0-1.354-.46-1.559-1.175m8.295.12c-.195-.673.193-1.379.855-1.574.672-.198 1.367.185 1.564.86.197.665-.181 1.372-.851 1.569-.119.037-.24.054-.359.054-.546 0-1.05-.359-1.209-.909m-4.103-.71c-.218-.749.213-1.535.962-1.762.752-.227 1.54.208 1.753.959.218.757-.203 1.55-.954 1.772-.136.039-.27.059-.403.059-.612 0-1.175-.403-1.358-1.028"/><path d="m435.8 20.821c-.608-.652-.579-1.681.072-2.297.648-.616 1.671-.586 2.277.067.611.657.578 1.681-.069 2.299-.311.294-.707.44-1.102.44-.429 0-.859-.171-1.178-.509m-5.108-.398c-.48-.517-.457-1.325.057-1.812.505-.482 1.312-.455 1.795.057.475.512.453 1.327-.055 1.809-.247.233-.559.346-.872.346-.338 0-.675-.134-.925-.4m10.115-.972c-.687-.734-.657-1.888.072-2.585.729-.694 1.886-.657 2.568.074.685.736.655 1.896-.074 2.585-.354.336-.803.502-1.248.502-.482 0-.961-.195-1.318-.576m-14.991-1.014c-.388-.416-.369-1.066.042-1.464.418-.39 1.066-.371 1.456.045.39.415.368 1.07-.042 1.461-.202.19-.455.284-.709.284-.271-.001-.543-.111-.747-.326m19.226-1.848c-.794-.841-.762-2.168.082-2.967.838-.801 2.161-.757 2.947.079.794.856.756 2.185-.082 2.983-.403.383-.917.569-1.427.569-.558 0-1.11-.222-1.52-.664m-23.275-1.64c-.294-.312-.279-.798.03-1.092.312-.297.796-.279 1.082.03.292.311.279.799-.029 1.093-.151.139-.341.208-.531.208-.201.001-.402-.08-.552-.239m26.753-2.82c-.689-.732-.657-1.891.077-2.585.731-.695 1.879-.652 2.563.079.69.736.658 1.886-.079 2.586-.346.331-.789.495-1.236.495-.484.001-.967-.192-1.325-.575m-29.967-1.46c-.393-.416-.371-1.068.047-1.464.408-.39 1.058-.373 1.451.039.385.418.369 1.071-.045 1.464-.198.19-.452.284-.704.284-.274 0-.546-.109-.749-.323m31.92-3.765c-.615-.653-.583-1.683.069-2.296.647-.621 1.671-.583 2.279.069.616.65.583 1.679-.067 2.297-.312.294-.712.44-1.108.44-.429.001-.857-.169-1.173-.51m-33.596-1.259c-.472-.519-.46-1.32.055-1.805.505-.487 1.315-.46 1.795.049.482.512.453 1.33-.052 1.812-.247.233-.561.349-.875.349-.337-.001-.674-.137-.923-.405m34-4.378c-.479-.514-.45-1.323.057-1.805.517-.489 1.313-.462 1.797.054.479.512.462 1.32-.057 1.807-.243.232-.556.346-.87.346-.338-.001-.677-.135-.927-.402m-34.09-.781c-.608-.65-.578-1.684.071-2.299.652-.618 1.669-.586 2.281.067.611.65.581 1.681-.069 2.302-.311.297-.705.442-1.102.442-.431 0-.862-.173-1.181-.512m32.773-4.573c-.39-.415-.371-1.073.042-1.469.42-.391 1.07-.369 1.459.05.386.415.371 1.071-.044 1.466-.2.188-.453.28-.707.28-.271 0-.547-.111-.75-.327m-31.11-.38c-.687-.729-.665-1.888.069-2.585.734-.689 1.886-.652 2.568.079.685.732.653 1.896-.074 2.583-.351.336-.796.499-1.238.499-.484 0-.968-.196-1.325-.576m3.081-4.079c-.788-.855-.751-2.171.091-2.976.838-.796 2.16-.759 2.947.089.793.846.752 2.173-.087 2.974-.405.383-.92.573-1.433.574-.554.001-1.108-.223-1.518-.661m25.19-.185c-.289-.312-.274-.801.034-1.093.311-.289.793-.279 1.082.039.292.307.28.798-.034 1.087-.144.141-.334.212-.522.212-.208-.001-.411-.084-.56-.245m-20.564-3.058c-.684-.724-.652-1.883.082-2.578.729-.697 1.879-.658 2.561.074.685.741.66 1.893-.077 2.586-.348.331-.796.495-1.241.495-.003 0-.005 0-.005 0h-.002c-.482.001-.962-.194-1.318-.577m16.13-.069c-.391-.416-.373-1.073.04-1.464.418-.393 1.07-.373 1.456.044.39.413.371 1.068-.044 1.463-.198.19-.452.284-.707.284-.272-.001-.544-.11-.745-.327m-10.841-1.573c-.611-.65-.581-1.686.069-2.294.657-.621 1.671-.591 2.281.064.613.65.588 1.683-.064 2.296-.312.299-.709.443-1.107.443-.432-.001-.862-.172-1.179-.509m5.611-.081c-.479-.507-.453-1.323.055-1.807.512-.485 1.317-.455 1.797.059.48.507.462 1.32-.052 1.805-.247.233-.559.348-.872.348-.339 0-.676-.136-.928-.405"/><path d="m437.15 26.563c-.757-.151-1.248-.885-1.097-1.653.151-.759.888-1.253 1.644-1.1.756.153 1.244.892 1.093 1.651-.134.673-.714 1.13-1.364 1.13-.09.001-.182-.009-.276-.028m-5.784-.381c-.593-.089-1.01-.643-.92-1.246.089-.601.643-1.013 1.238-.927.596.089 1.01.643.922 1.246-.077.547-.544.939-1.078.939-.054 0-.106-.005-.162-.012m11.358-.804c-.904-.232-1.453-1.155-1.219-2.071.23-.91 1.154-1.464 2.057-1.228.902.232 1.449 1.16 1.218 2.069-.197.774-.883 1.283-1.636 1.283-.14 0-.279-.017-.42-.053m-17.274-.964c-.514-.223-.754-.823-.531-1.345.22-.517.821-.754 1.335-.532.514.225.754.826.532 1.344-.166.388-.541.618-.932.618-.136-.001-.273-.028-.404-.085m22.21-1.556c-1.107-.348-1.733-1.537-1.384-2.658.346-1.118 1.532-1.743 2.638-1.394 1.113.351 1.731 1.542 1.385 2.658-.284.91-1.113 1.491-2.01 1.491-.211.001-.422-.031-.632-.097m-27.554-1.566c-.47-.378-.553-1.063-.18-1.542.374-.477 1.061-.556 1.532-.181.474.378.556 1.066.181 1.545-.215.274-.532.416-.853.416-.236 0-.477-.079-.68-.238m31.613-2.4c-1.204-.448-1.824-1.789-1.374-3.01.445-1.216 1.783-1.834 2.983-1.385 1.204.447 1.822 1.797 1.375 3.01-.349.951-1.236 1.528-2.177 1.528-.268 0-.542-.047-.807-.146m-35.855-1.574c-.63-.448-.783-1.322-.332-1.96.447-.631 1.317-.781 1.943-.333.63.45.779 1.327.333 1.958-.272.388-.7.595-1.135.595-.282 0-.564-.084-.809-.26m38.678-3.389c-1.285-.559-1.878-2.047-1.323-3.345.554-1.293 2.04-1.889 3.324-1.333 1.281.558 1.876 2.059 1.32 3.349-.411.966-1.342 1.538-2.318 1.538-.336-.001-.677-.066-1-.209m-41.649-1.506c-.786-.505-1.026-1.55-.522-2.349.499-.794 1.543-1.031 2.331-.529.793.5 1.024 1.557.524 2.353-.322.512-.867.791-1.426.791-.311-.001-.625-.088-.907-.266m43.23-4.451c-1.147-.573-1.619-1.978-1.051-3.132.574-1.169 1.965-1.634 3.115-1.061 1.149.571 1.622 1.972 1.05 3.134-.405.825-1.229 1.302-2.086 1.302-.346-.001-.697-.078-1.028-.243m-44.803-.901c-1.016-.573-1.377-1.864-.804-2.889.569-1.019 1.852-1.387 2.868-.811 1.016.573 1.377 1.869.806 2.892-.388.694-1.1 1.082-1.837 1.082 0 0-.005 0-.008 0-.348-.001-.701-.09-1.025-.274m44.882-5.287c-1.01-.571-1.375-1.867-.806-2.894.573-1.024 1.859-1.379 2.868-.806 1.016.574 1.379 1.862.806 2.889-.386.694-1.102 1.085-1.837 1.085-.349 0-.704-.088-1.031-.274m-44.803-.408c-1.144-.569-1.622-1.97-1.051-3.135.571-1.159 1.968-1.632 3.119-1.058 1.149.573 1.619 1.978 1.048 3.137-.406.828-1.224 1.305-2.076 1.305-.35-.001-.704-.081-1.04-.249m1.648-5.473c-1.28-.554-1.878-2.049-1.322-3.347.551-1.291 2.045-1.886 3.325-1.33 1.278.558 1.869 2.056 1.315 3.349-.413.964-1.342 1.537-2.318 1.537-.334-.001-.673-.067-1-.209m41.842-.291c-.789-.502-1.026-1.557-.524-2.348.5-.799 1.543-1.031 2.331-.529.788.502 1.028 1.55.526 2.349-.322.511-.873.791-1.434.791-.308.001-.619-.085-.899-.263m-38.63-4.958c-1.202-.448-1.82-1.799-1.374-3.01.448-1.224 1.787-1.832 2.984-1.382 1.207.45 1.824 1.785 1.375 3.01-.348.942-1.234 1.528-2.18 1.528-.266 0-.539-.047-.805-.148m35.855-.525c-.631-.448-.778-1.325-.333-1.958.447-.636 1.317-.784 1.948-.338.626.448.776 1.323.327 1.963-.27.386-.702.591-1.139.593-.277 0-.559-.086-.803-.26m-31.441-3.78c-1.112-.348-1.73-1.537-1.382-2.657.348-1.127 1.525-1.745 2.637-1.392 1.11.346 1.733 1.533 1.386 2.653-.28.91-1.115 1.493-2.01 1.493-.207 0-.419-.032-.627-.097m27.454-.763c-.469-.378-.549-1.068-.178-1.542.374-.48 1.061-.556 1.533-.18.472.376.552 1.063.181 1.542-.215.274-.534.416-.857.416-.235.001-.475-.076-.679-.236m-22.09-2.511c-.904-.233-1.448-1.157-1.218-2.067.23-.919 1.15-1.463 2.054-1.231.905.233 1.453 1.155 1.221 2.071-.193.769-.883 1.281-1.636 1.281-.138 0-.28-.018-.421-.054m17.306-.458c-.514-.222-.752-.823-.531-1.34.225-.524.821-.759 1.335-.537.516.223.756.826.534 1.345-.166.386-.542.616-.935.616-.134 0-.272-.027-.403-.084m-11.445-1.271c-.754-.153-1.244-.897-1.093-1.654.151-.766.888-1.258 1.642-1.105.754.153 1.248.893 1.095 1.659-.134.665-.717 1.127-1.37 1.127-.09 0-.181-.009-.274-.027m6.01-.199c-.591-.091-1.01-.648-.919-1.248.087-.603.645-1.014 1.236-.927.598.089 1.013.643.924 1.246-.077.547-.546.939-1.085.939-.051.001-.103-.001-.156-.01"/><path d="m433.5 31.727c0-.725.584-1.31 1.3-1.31.719 0 1.303.584 1.303 1.31 0 .727-.584 1.307-1.303 1.307-.715 0-1.3-.58-1.3-1.307m-6.549.363c-.746-.2-1.189-.967-.991-1.72.202-.754.971-1.196 1.711-.996.747.202 1.191.971.993 1.725-.168.63-.731 1.041-1.345 1.041-.122 0-.246-.016-.368-.05m13.991-.992c-.2-.752.243-1.522.987-1.723.746-.202 1.515.242 1.715.994.198.752-.247 1.52-.994 1.721-.121.034-.244.049-.363.049-.615 0-1.179-.41-1.345-1.041m-20.983-1.512c-.967-.207-1.585-1.155-1.379-2.135.205-.971 1.154-1.59 2.119-1.384.967.207 1.584 1.162 1.377 2.136-.178.848-.917 1.424-1.742 1.424-.123.001-.249-.012-.375-.041m27.566-1.382c-.207-.974.41-1.93 1.377-2.136.964-.207 1.914.413 2.118 1.384.21.979-.41 1.928-1.375 2.133-.126.029-.254.042-.38.042-.825-.001-1.562-.575-1.74-1.423m-33.524-2.86c-1.181-.188-1.987-1.296-1.799-2.494.186-1.189 1.295-2 2.475-1.815 1.182.188 1.988 1.308 1.802 2.499-.17 1.078-1.088 1.837-2.134 1.837-.114 0-.228-.009-.344-.027m39.12-1.812c-.185-1.191.62-2.311 1.8-2.499 1.179-.188 2.292.626 2.477 1.815.19 1.197-.621 2.306-1.797 2.494-.114.018-.23.027-.343.027-1.045 0-1.966-.757-2.137-1.837m4.049-6.096c-.154-1.491.927-2.83 2.403-2.988 1.485-.158 2.811.93 2.967 2.422.158 1.5-.919 2.83-2.4 2.988-.097.01-.191.015-.287.015-1.36 0-2.535-1.035-2.683-2.437m-47.715 2.421c-1.486-.158-2.558-1.488-2.401-2.988.154-1.491 1.479-2.58 2.966-2.42 1.481.156 2.559 1.495 2.403 2.986-.146 1.402-1.318 2.437-2.679 2.437-.096.001-.192-.005-.289-.015m50.33-9.574c-.086-1.654 1.176-3.067 2.811-3.154 1.644-.084 3.048 1.186 3.134 2.84.086 1.663-1.181 3.063-2.818 3.149-.054.003-.107.005-.161.005-1.569 0-2.882-1.233-2.966-2.84m-53.11 2.835c-1.634-.086-2.902-1.486-2.815-3.149.086-1.654 1.491-2.924 3.132-2.84 1.641.087 2.902 1.5 2.816 3.154-.084 1.607-1.396 2.84-2.973 2.84-.052 0-.106-.002-.16-.005m53.818-10.536c0-1.804 1.448-3.266 3.234-3.266 1.792 0 3.243 1.463 3.243 3.263 0 1.812-1.451 3.261-3.238 3.261-1.792 0-3.239-1.45-3.239-3.258m-57.877-.004c0-1.8 1.458-3.263 3.243-3.263 1.782 0 3.233 1.463 3.233 3.266 0 1.809-1.451 3.258-3.233 3.258-1.785.001-3.243-1.449-3.243-3.261m59.976-4.551c-1.636-.087-2.897-1.498-2.811-3.151.087-1.664 1.488-2.92 3.127-2.836 1.637.087 2.902 1.486 2.816 3.151-.082 1.597-1.401 2.84-2.974 2.84-.052-.001-.104-.002-.158-.004m-58.73-2.836c-.086-1.664 1.179-3.063 2.815-3.151 1.646-.086 3.045 1.172 3.134 2.836.084 1.653-1.177 3.063-2.816 3.151-.054.002-.106.003-.158.003-1.573 0-2.893-1.242-2.975-2.839m55.707-4.483c-1.478-.156-2.558-1.495-2.403-2.989.158-1.5 1.491-2.575 2.969-2.418 1.483.158 2.559 1.486 2.402 2.988-.146 1.396-1.318 2.435-2.682 2.435-.093-.001-.188-.006-.286-.016m-52.52-2.42c-.156-1.501.917-2.83 2.401-2.988 1.481-.156 2.811.919 2.967 2.418.156 1.495-.922 2.833-2.403 2.989-.097.01-.193.015-.289.015-1.363.001-2.532-1.038-2.676-2.434m47.869-4.166c-1.182-.19-1.99-1.307-1.802-2.496.188-1.196 1.298-2 2.479-1.812 1.177.188 1.987 1.298 1.799 2.494-.17 1.075-1.093 1.841-2.138 1.841-.111 0-.226-.011-.338-.027m-42.722-1.814c-.19-1.196.618-2.307 1.797-2.494 1.181-.188 2.291.616 2.48 1.812.185 1.187-.621 2.306-1.804 2.494-.116.017-.228.027-.341.027-1.044 0-1.966-.766-2.132-1.839m36.698-3.218c-.967-.207-1.585-1.165-1.379-2.135.207-.979 1.154-1.597 2.121-1.389.966.205 1.584 1.159 1.375 2.138-.178.843-.922 1.426-1.748 1.426-.122.001-.246-.011-.369-.04m-30.32-1.387c-.208-.977.41-1.931 1.375-2.138.966-.207 1.915.411 2.119 1.391.207.969-.41 1.928-1.377 2.135-.123.029-.247.04-.369.04-.826 0-1.57-.583-1.748-1.428m23.345-1.921c-.742-.202-1.186-.971-.989-1.725.202-.751.969-1.192 1.711-.991.749.2 1.191.967.993 1.721-.166.628-.734 1.043-1.352 1.043-.119.001-.242-.015-.363-.048m-15.967-.998c-.198-.751.247-1.518.991-1.718.747-.202 1.513.24 1.713.993.198.752-.245 1.522-.993 1.723-.119.032-.24.049-.359.049-.615 0-1.184-.415-1.352-1.047m7.54-1.355c0-.695.537-1.26 1.212-1.305h.176c.677.045 1.214.61 1.214 1.307 0 .722-.584 1.308-1.303 1.308-.714 0-1.299-.586-1.299-1.31"/></g><path d="m-492.18-73.65c0-3.963.147-4.068 3.73-4.068h11.972c.508 0 .94-.426.94-.945v-3.02c0-.668-.239-.905-.94-.995-1.52-.239-4.595-.661-10.217-.661-7.86 0-12.01-.055-12.01 9.688v14.957c0 9.74 4.154 9.684 12.01 9.684 5.622 0 8.697-.426 10.217-.657.701-.09.94-.332.94-.997v-3.02c0-.516-.432-.949-.94-.949h-11.972c-3.583 0-3.73-.107-3.73-4.062v-4.335h15.13c.525 0 .938-.43.938-.943v-3.413c0-.514-.414-.94-.938-.94h-15.13v-5.326m69.911-9.711c-4.18 0-8.414.72-10.685 1.243-.468.094-.898.42-.898.94v3.405c0 .516.43.901.898.901h.094c1.894-.237 6.317-.854 10.687-.854 4.203 0 5.492 1.505 5.492 4.247 0 3.546-8.464 5.506-12.595 7.211-4.112 1.698-5.569 4.958-5.569 8.263 0 5.204 4.186 8.983 12.977 8.983 4.505 0 8.63-.856 10.238-1.241.474-.092.848-.424.848-.894v-3.499c0-.468-.323-.85-.804-.85h-.09c-3.124.281-6.359.859-10.467.859-3.506 0-6.126-1.23-6.126-3.357 0-1.556 1.776-2.985 3.875-3.819 2.099-.827 4.849-1.9 7.994-3.164 3.982-1.612 6.564-3.957 6.564-8.491 0-4.774-2.976-9.883-12.433-9.883m-25.13 23.671c0 3.546-2.752 5.059-7.488 5.059-.987 0-5.288-.094-6.14-.189v-10.251c.766-.048 5.351-.143 6.14-.143 4.881 0 7.488.938 7.488 5.095v.429zm7.094-23.275h-5.773c-.521 0-.705.481-.938.947l-6.816 11.464h-1.054c-1.222 0-5.05.134-6.14.189v-11.653c0-.516-.374-.947-.89-.947h-4.723c-.521 0-.947.43-.947.947v30.981c0 .949.561 1.281 1.507 1.417 2.456.378 7.75.611 11.193.611 7.286 0 14.01-2.601 14.01-10.681v-.428c0-5-2.509-7.744-6.384-9.249l7.429-12.65c.094-.143.094-.277.094-.382 0-.324-.191-.566-.564-.566m-64.2 28.1h-9.43v-27.15c0-.516-.435-.947-.957-.947h-4.677c-.521 0-.947.43-.947.947v27.15h-9.438c-.512 0-.94.325-.94.848v3.735c0 .525.428.898.94.898h25.449c.512 0 .938-.374.938-.898v-3.735c0-.523-.426-.848-.938-.848m-45.25-28.474c-7.606 0-14.157 3.308-14.157 13.383v19.674c0 .525.43.898.951.898h4.671c.525 0 .947-.374.947-.898v-19.674c0-5.393 2.492-7.948 7.589-7.948 5.109 0 7.597 2.555 7.597 7.948v19.674c0 .525.422.898.943.898h4.679c.525 0 .951-.374.951-.898v-19.674c-.002-10.08-6.557-13.383-14.171-13.383m-37.869 9.688c0-3.963.151-4.068 3.726-4.068h11.97c.521 0 .947-.426.947-.945v-3.02c0-.668-.239-.905-.947-.995-1.514-.239-4.593-.661-10.215-.661-7.847 0-12.01-.055-12.01 9.688v14.957c0 9.74 4.161 9.684 12.01 9.684 5.622 0 8.701-.426 10.215-.657.707-.09.947-.332.947-.997v-3.02c0-.516-.426-.949-.947-.949h-11.97c-3.575 0-3.726-.107-3.726-4.062v-4.335h15.13c.521 0 .947-.43.947-.943v-3.413c0-.514-.426-.94-.947-.94h-15.13v-5.326zm-20.261 13.96c0 3.546-2.752 5.059-7.48 5.059-.995 0-5.296-.094-6.142-.189v-10.251c.752-.048 5.33-.143 6.142-.143 4.864 0 7.48.938 7.48 5.095v.429m7.093-23.275h-5.773c-.516 0-.71.481-.945.947l-6.81 11.464h-1.045c-1.234 0-5.05.134-6.142.189v-11.653c0-.516-.38-.947-.901-.947h-4.727c-.516 0-.943.43-.943.947v30.981c0 .949.56 1.281 1.511 1.417 2.46.378 7.746.611 11.202.611 7.278 0 14-2.601 14-10.681v-.428c0-5-2.504-7.744-6.38-9.249l7.417-12.65c.099-.143.099-.277.099-.382 0-.324-.189-.566-.565-.566m-91.85 19.211c0 6.239-3.772 9.03-8.405 9.03-4.633 0-8.405-2.79-8.405-9.03v-4.837c0-6.241 3.772-9.03 8.405-9.03 4.633 0 8.405 2.786 8.405 9.03v4.837zm-8.405-19.584c-7.799 0-15.02 4.348-15.02 14.747v4.837c0 10.398 7.221 14.745 15.02 14.745s15.02-4.348 15.02-14.745v-4.837c0-10.4-7.22-14.747-15.02-14.747m-33.416-.023c-4.173 0-8.414.72-10.685 1.243-.472.094-.898.42-.898.94v3.405c0 .516.426.901.898.901h.094c1.889-.237 6.314-.854 10.685-.854 4.211 0 5.485 1.505 5.485 4.247 0 3.546-8.449 5.506-12.579 7.211-4.121 1.698-5.576 4.958-5.576 8.263 0 5.204 4.19 8.983 12.98 8.983 4.507 0 8.632-.856 10.234-1.241.477-.092.848-.424.848-.894v-3.499c0-.468-.327-.85-.798-.85h-.094c-3.126.281-6.361.859-10.477.859-3.489 0-6.121-1.23-6.121-3.357 0-1.556 1.78-2.989 3.871-3.819 2.099-.827 4.86-1.9 8-3.164 3.993-1.612 6.573-3.957 6.573-8.491 0-4.774-2.977-9.883-12.44-9.883m82.76.396h-4.782c-1.136 0-2.131 0-2.874 1.7l-12.824 21.479c-.136.281-.283.384-.422.384-.136 0-.239-.103-.239-.384v-22.23c0-.516-.38-.947-.901-.947h-4.01c-.529 0-.945.43-.945.947v30.745c0 1.041.842 1.889 1.883 1.889h5.107c.993 0 1.509-.283 2.085-1.52l13.332-22.747c.09-.231.231-.38.378-.38.094 0 .229.149.229.428v23.32c0 .525.378.898.903.898h4.066c.521 0 .903-.374.903-.898v-30.789c0-1.041-.852-1.892-1.889-1.892m-103.84 0h-4.776c-.422 0-.749.481-.749.947v20.44c0 .33-.05.47-.153.47-.036 0-.132-.141-.233-.281l-7.633-16.903c-.279-.514-.89-.806-1.503-.806h-2.458c-.615 0-1.23.292-1.507.806l-7.683 16.903c-.099.141-.197.281-.237.281-.094 0-.145-.141-.145-.47v-20.44c0-.466-.332-.947-.758-.947h-4.769c-.428 0-.81.241-.81.71v30.983c0 1.041.854 1.889 1.894 1.889h3.877c.752 0 1.417-.47 1.749-1.134l9.07-18.467c.233-.424.332-.661.529-.661.185 0 .279.237.518.661l9.07 18.467c.332.663.999 1.134 1.751 1.134h3.879c1.039 0 1.889-.848 1.889-1.889v-30.983c-.002-.468-.382-.71-.808-.71m-47.35 19.211c0 6.239-3.768 9.03-8.403 9.03-4.631 0-8.403-2.79-8.403-9.03v-4.837c0-6.241 3.772-9.03 8.403-9.03 4.635 0 8.403 2.786 8.403 9.03v4.837zm-8.404-19.584c-7.799 0-15.02 4.348-15.02 14.747v4.837c0 10.398 7.219 14.745 15.02 14.745 7.803 0 15.03-4.348 15.03-14.745v-4.837c.001-10.4-7.223-14.747-15.03-14.747m-23.427.373h-4.675c-.527 0-.955.43-.955.947v13.693h-14.974v-13.693c0-.516-.424-.947-.936-.947h-4.683c-.525 0-.949.43-.949.947v31.736c0 .525.424.898.949.898h4.683c.512 0 .936-.374.936-.898v-12.276h14.974v12.276c0 .525.428.898.955.898h4.675c.514 0 .943-.374.943-.898v-31.736c0-.516-.429-.947-.943-.947m-34.11 28.1h-9.432v-27.15c0-.516-.424-.947-.951-.947h-4.671c-.521 0-.945.43-.945.947v27.15h-9.442c-.518 0-.947.325-.947.848v3.735c0 .525.428.898.947.898h25.441c.521 0 .947-.374.947-.898v-3.735c-.001-.523-.427-.848-.947-.848" transform="matrix(.50012 0 0-.50377 544.97 46.654)"/></svg>