<svg xmlns="http://www.w3.org/2000/svg" viewBox="0 0 340 160" enable-background="new 0 0 340 160"><path d="m200.44 66.38v-6.574h-23.45v33.824h23.45v-6.86h-13.95v-7.5h11.61v-6.57h-11.61v-6.32h13.95"/><path d="m241.8 86.954h-14.65v-27.15h-9.62v33.824h24.27v-6.676"/><path d="m319.2 72.7c-6.484-1.461-8.754-1.631-8.754-4.211 0-2.394 3.214-3.139 5.061-3.139 2.99 0 6.522.697 10.12 2.542l2.615-6.224c-3.688-2.01-8.417-2.847-12.97-2.847-8.944 0-14.943 3.629-15.197 10.703-.256 6.452 4.992 8.865 9.812 9.861 4.647.96 9.361 1.782 9.458 4.543.085 2.546-2.204 3.637-6.526 3.637-4 0-7.721-1.286-11.522-2.879l-2.221 6.765c4.369 1.858 8.807 2.883 13.378 2.883 6.353 0 10.989-.992 14.404-4.196 2.366-2.2 3.139-4.856 3.139-7.392.005-5.346-3.325-8.357-10.797-10.05"/><path d="m163.36 66.48v-6.674h-29.5v6.674h9.97v27.15h9.55v-27.15h9.98"/><path d="m274.59 59.806v21.489c0 1.683 0 2.149-.099 2.804-.311 2.048-2.294 3.237-5.46 3.279-2.345-.038-4.061-.731-4.86-1.956-.402-.629-.598-1.761-.598-3.568v-22.05h-9.968v23.309c0 3.23.43 4.688 1.891 6.532 2.405 3.01 7.096 4.589 13.554 4.589.072 0 .136 0 .213 0 .033 0 .091 0 .14 0 8.651 0 13.12-3.372 14.406-6.528.646-1.53.693-2.255.693-5.342v-22.56h-9.912"/><path d="m138.37 50.55l-44.814 8.922c1.488-2.461 2.415-4.781 2.564-6.801.003-.06.003-.129.003-.194 0-.756-.327-1.533-.901-2.107-.616-.628-1.427-.941-2.299-.885-2.717.155-7.749 4.179-10.51 6.57-2.895 2.505-5.589 4.955-8.104 7.375l-50.83 10.926-2.268 6.116 47.71-11.602c-4.581 4.871-8.431 9.678-11.628 14.604-12.395 6.639-28.2 13.466-43.889 18.794l-.378.127-3.02 8.135 1.724-.667c9.981-3.804 26.641-10.947 41.743-18.888-.851 2.268-1.279 4.353-1.279 6.255 0 1.416.237 2.735.711 3.934.949 2.393 2.821 4.205 5.417 5.236 3.865 1.541 9.138 1.569 15.15-.251 15.369-4.66 33.6-18.963 37.569-21.808l.152-.107c.156-.113.167-.282.102-.397-.086-.132-.27-.167-.42-.075l-.195.118c-4.259 2.557-24.957 14.846-38.41 18.453-6.854 1.838-12.08.836-14.05-1.921-.684-.941-1.014-2.132-1.014-3.521 0-2.712 1.277-6.164 3.735-10 2.263-1.287 4.376-2.546 6.28-3.743 8.458-4.754 17.74-12.399 23.449-19.579 31.616-7.792 47.706-12.414 47.846-12.449.209-.054.282-.217.254-.354-.034-.144-.184-.263-.407-.214m-62.43 22.13c-3.672 3.01-6.284 4.696-11.571 7.827 3.372-4.725 7.347-9.265 11.287-13.278l6.817-1.658v.001l.178-.046c.556-.135 1.094-.267 1.641-.4-2.151 2.189-4.879 4.703-8.352 7.554m16.376-18.604c-.227.558-.916 2.671-3.885 6.413l-5.958 1.186v.037h-.183l-1.173.252c4.135-3.77 7.867-6.701 10.344-8.309.86-.556 1.108-.208.855.422"/></svg>
