<svg version="1.1" id="Layer_1" xmlns="http://www.w3.org/2000/svg" xmlns:xlink="http://www.w3.org/1999/xlink" x="0px" y="0px"
	 viewBox="0 0 570.1 140.8" enable-background="new 0 0 570.1 140.8" xml:space="preserve">
<g id="Livello_2">
	<g id="Livello_1-2">
		<path fill="currentColor" d="M347.4,53.5h-17.6l0,32.9c0,9.6-4.1,17.4-13.8,17.4c-9.6,0-13.8-7.8-13.8-17.4V53.5h-17.6l0,32.9
			c0,19,12.2,34.4,31.3,34.4c19,0,31.4-15.4,31.4-34.4L347.4,53.5z"/>
		<rect fill="currentColor" x="506.1" y="33.4" width="17.5" height="85.7"/>
		<polygon fill="currentColor" points="536.6,36.6 536.6,33.5 550.2,33.5 550.2,36.6 545.3,36.6 545.3,50.2 541.6,50.2 541.6,36.6 		"/>
		<polygon fill="currentColor" points="557.3,33.5 561.2,45 561.3,45 564.9,33.5 570.1,33.5 570.1,50.2 566.7,50.2 566.7,38.4 566.6,38.4 562.5,50.2 
			559.7,50.2 555.6,38.5 555.6,38.5 555.6,50.2 552.2,50.2 552.2,33.5 		"/>
		<path fill="currentColor" d="M270.4,52.8c-15.1-3.5-24.6,11.5-25,12.3c-0.2,0.4-0.2,0.6-0.9,0.6c-0.6,0-0.6-0.6-0.6-0.6L242,53.6h-15.7v65.5h17.6V83.7
			c0-2.9,7.8-16.8,22.9-13.2c7.6,1.8,10.9,5.1,10.9,5.1v-20C275.4,54.3,273,53.4,270.4,52.8"/>
		<path fill="currentColor" d="M388.3,69.4c9.7,0,17.6,7.9,17.6,17.5s-7.9,17.6-17.5,17.6c-9.7,0-17.6-7.9-17.6-17.5c0,0,0,0,0,0
			C370.8,77.2,378.6,69.4,388.3,69.4 M371.3,140.7v-23.6l0,0l0-8.8c0,0,0-0.7,0.7-0.7c0.6,0,0.7,0.4,0.8,0.7c1.3,3.3,8.7,16,24.9,12
			c18.4-5.2,29.2-24.4,24-42.8s-24.4-29.2-42.8-24c-14.9,4.2-25.3,17.8-25.3,33.4v53.8H371.3z"/>
		<path fill="currentColor" d="M481.9,86.9c0,9.7-7.9,17.6-17.5,17.6c-9.7,0-17.6-7.9-17.6-17.5s7.9-17.6,17.5-17.6c0,0,0,0,0,0
			C474,69.4,481.9,77.2,481.9,86.9 M481.4,119.1H499V86.9c0-19.2-15.5-34.7-34.7-34.7c-19.2,0-34.7,15.5-34.7,34.7
			c0,15.5,10.3,29.2,25.3,33.4c16.3,4,23.6-8.7,24.9-12c0.1-0.3,0.3-0.7,0.8-0.7c0.6,0,0.7,0.7,0.7,0.7"/>
		<path fill="currentColor" d="M176,48.2h-7.1v55.9l7.3,0.2c14.9,0,24.5-1.4,24.5-28.1C200.7,50.5,192.2,48.2,176,48.2 M171.2,119h-20V33.4h21.5
			c26,0,45.7,4.8,45.7,42.8C218.4,113.9,197.5,119,171.2,119"/>
		<path fill="currentColor" d="M76.1,30c-9.9-9.9-19.4-19.3-22.2-30c-2.8,10.6-12.3,20.1-22.2,30C16.8,44.8,0,61.7,0,86.9c0,29.8,24.1,53.9,53.9,53.9
			c29.8,0,53.9-24.1,53.9-53.9c0,0,0,0,0,0C107.8,61.7,90.9,44.8,76.1,30 M22.9,99.5C19.6,99.4,7.4,78.3,30,56l15,16.3
			c0.5,0.5,0.5,1.3,0,1.8c0,0-0.1,0.1-0.1,0.1c-3.6,3.7-18.8,18.9-20.7,24.2C23.8,99.5,23.2,99.5,22.9,99.5 M53.9,127.2
			c-10.2,0-18.5-8.3-18.5-18.5c0,0,0,0,0,0c0.1-4.5,1.7-8.8,4.6-12.2c3.3-4.1,13.9-15.6,13.9-15.6s10.4,11.7,13.9,15.5
			c3,3.4,4.7,7.7,4.6,12.3C72.4,118.9,64.1,127.2,53.9,127.2 M89.3,97.1c-0.4,0.9-1.3,2.3-2.5,2.4c-2.2,0.1-2.4-1-4-3.4
			c-3.5-5.2-34.4-37.5-40.2-43.7c-5.1-5.5-0.7-9.4,1.3-11.4c2.5-2.5,10-10,10-10S76,52,85.2,66.3S91.2,93,89.3,97.1"/>
	</g>
</g>
</svg>
