<svg xmlns="http://www.w3.org/2000/svg" viewBox="0 0 80 80" enable-background="new 0 0 80 80"><g fill="currentColor"><g fill-rule="evenodd"><path d="M40,0C17.969,0,0,17.969,0,40s17.969,40,40,40s40-17.969,40-40S62.031,0,40,0z M40,77.996
			C19.072,77.996,2.004,60.928,2.004,40S19.072,2.004,40,2.004S77.996,19.072,77.996,40S60.928,77.996,40,77.996z"/><path d="M40,9.603C23.255,9.603,9.603,23.255,9.603,40S23.255,70.397,40,70.397S70.397,56.745,70.397,40
			S56.745,9.603,40,9.603z M40,68.998c-15.979,0-28.998-13.019-28.998-28.998S24.021,11.002,40,11.002S68.998,24.021,68.998,40
			S55.979,68.998,40,68.998z"/><path d="m35.911 6.2c-.215-.121-.471-.121-.242-.444.296-.43.498-.578.309-1.157-.296-.914-1.264-.928-2.044-.767l-1.695.336.928 4.882 2.313-.444c.713-.134 1.17-.592 1.17-1.318-.012-.603-.268-.819-.739-1.088m-2.152-1.331l.336-.054c.659-.108.847.82.188.941l-.35.054-.174-.941m.942 2.905l-.377.067-.188-.982.363-.054c.74-.134.995.821.202.969"/><path d="m38.16 3.43l-1.574 4.99 1.103-.04.282-.995 1.56-.027.282.969 1.358-.04-1.641-4.882-1.37.025m.095 2.918l.363-1.305c.027-.067.188-.067.215 0l.39 1.291-.968.014"/><path d="m41.36 8.326l.498-4.923 1.21.148 1.52 2.582.255-2.381 1.049.121-.47 4.883-1.035-.134-1.506-2.717c-.027-.054-.161 0-.161.067l-.27 2.488-1.09-.134"/><path d="m45.824 8.837l1.076-4.815 1.278.269-.242 1.278c-.014.067.148.094.202.04l1.197-1.103 1.211.282-1.412 1.224.551 3.672-1.399-.377-.323-2c-.013-.121-.336-.148-.363-.027l-.444 1.856-1.332-.295"/><path d="m54.889 6.133c-1.089-.309-2.02.067-2.676.995-.794 1.143-.847 3.067.552 3.78.74.363 1.695.242 2.434-.296.767-.551 1.184-1.735 1.13-2.65-.041-.887-.579-1.587-1.44-1.829m-.807 3.658c-.202.215-.619.282-.888.121-.39-.229-.309-.646-.175-1.01.161-.471.498-1.224.928-1.627.444-.39 1.116-.134 1.09.457-.027.66-.538 1.642-.955 2.058"/><path d="m54.97 11.876l2.61-4.263 1.99 1.25-.5.888-.87-.538-.5.817.81.569-.528.874-.852-.525-.99 1.655-1.17-.727"/><path d="m58.3 14.08l3.12-3.833 1.022.82-.794 1.022c-.04.054.094.161.161.135l1.574-.444.941.793-1.802.457-1.143 3.524-1.089-.955.605-1.937c.04-.121-.229-.296-.309-.202l-1.224 1.466-1.062-.846"/><path d="m66.25 14.485l-4.775 2.125.74.807.942-.457 1.049 1.157-.525.861.928.982 2.555-4.452-.914-1.023m-2.125 2l1.21-.578c.067-.04.175.094.134.161l-.699 1.143-.645-.726"/><path d="m64.65 20.01l4.05-2.83.61.84-.96 2.76 1.97-1.358.642.901-4.03 2.877-.617-.846.98-2.758-1.99 1.319-.65-.905"/><path d="m67.747 22.892l.914.403c-.202.538-.242 1.601.659 1.896.161.054.39-.094.363-.43-.054-.552-.309-1.076-.296-1.641.013-.578.202-1.089.74-1.372.793-.403 1.695 0 2.152.713.484.74.498 1.372.31 2.233l-.861-.31c.108-.457.067-1.17-.43-1.56-.282-.229-.619.134-.565.43.094.565.363 1.103.323 1.708-.04.847-.632 1.601-1.574 1.506-.955-.094-1.627-1.103-1.856-1.95-.148-.537-.121-1.129.121-1.626"/><path d="m74.1 26.416l-5.232.256.404 1.022 1.035-.081.565 1.453-.794.605.511 1.264 3.995-3.241-.484-1.278m-2.717 1.102l1.345-.108c.067-.013.134.148.081.202l-1.076.807-.35-.901"/><path d="m71.3 30.639l.767.632c-.336.471-.659 1.479.121 2 .148.094.39.013.457-.31.107-.538 0-1.116.161-1.654.175-.551.498-1.01 1.103-1.13.861-.175 1.614.457 1.87 1.264.255.847.108 1.453-.309 2.233l-.74-.525c.229-.404.377-1.116 0-1.627-.215-.296-.632-.027-.659.269-.054.578.054 1.157-.148 1.735-.282.807-1.049 1.358-1.923 1.022-.901-.35-1.264-1.506-1.264-2.381-.001-.55.187-1.115.564-1.532"/><path d="m72.21 37.34c.82-.982 2.367-1.089 3.47-.551.901.431 1.358 1.439 1.01 2.408-.282.82-.807 1.089-1.628 1.237v-1.197c.323-.121.713-.175.767-.605.04-.35-.403-.565-.672-.646-.498-.148-1.197-.121-1.695 0-.309.067-.699.229-.726.578-.013.336.229.565.471.74.094.067.202.094.296.134l-.229.915c-.511-.121-1.036-.377-1.372-.995-.363-.7-.202-1.426.309-2.02"/><path d="m71.796 40.578l-.056 1.386 4.94.176.04-1.36-4.924-.202"/><path d="m71.66 42.959l-.16 1.381 3.9.408-.07.874 1.03.108.29-3.161-1.02-.119-.1.9-3.87-.391"/><path d="m71.08 46.577l-.293 1.251 2.138.522 2.365 2.09.23-1.13-1.38-1.29 1.86-.58.3-1.468-3.15 1.038-2.07-.433"/><path d="m72.31 49.791c.511 0 .941.431.941.942 0 .511-.43.942-.941.942-.525 0-.942-.43-.942-.942 0-.511.417-.942.942-.942"/><path d="m7.653 49.791c.511 0 .941.431.941.942 0 .511-.43.942-.941.942-.525 0-.942-.43-.942-.942 0-.511.417-.942.942-.942"/><path d="m72.898 53.45l.175-.377-.82-.417-.175.377-2.555-1.251-.551 1.022 1.547 3.094.901.484.955-1.856.955.43.511-1.049-.943-.457m-1.775 1.56c-.04.067-.202.108-.229.04l-.686-1.412c-.027-.054.04-.215.094-.175l1.291.659-.47.888"/><path d="m67.3 55.777l4.24 2.573.58-1.05-4.238-2.505-.582.982"/><path d="m65.878 58.736c.014-1.089.74-1.762 1.775-1.856.995-.081 2.02.592 2.529 1.412.35.578.471 1.6.148 2.219-.35.686-1.157.861-1.843.673l.256-.955c.282.027.713.067.82-.269.108-.363-.255-.807-.511-1.022-.215-.161-.256.054-.269.229-.067.646-.995 1.318-1.816 1.103-.686-.203-1.103-.835-1.089-1.534m2.273-.027c.296-.645-.726-.888-1.063-.699-.699.362.565 1.748 1.063.699"/><path d="m64.41 60.31l3.92 2.97.655-.9-3.885-3-.69.93"/><path d="m66.792 64.842l-.807-.78.753-.888c.847.39 1.116 1.264 1.17 2.327l-.255-.013c-.229-.659-.498-1.01-.861-.646"/><path d="m65.864 64.65c-.35-.928-1.17-.955-1.721-.793-.148.04-.148-.027-.161-.175-.013-.43.081-.82-.309-1.13-.552-.43-1.278-.148-1.802.229-.498.363-.874.82-.968 1.453-.081.686.323 1.385.995 1.56.188.054.498-.094.659 0 .148.081.013.377 0 .498-.027.511.215 1.049.767 1.157.565.108 1.143-.175 1.56-.524.59-.5 1.276-1.468.98-2.275m-2.649-.39c-.229.121-.498.323-.767.323-.336 0-.619-.229-.417-.699.134-.309.699-.646 1.022-.363.215.187.162.483.162.739m1.425 1.762c-.256.282-.74.511-1.076.215-.202-.161-.188-.471-.215-.699.282-.242.457-.377.834-.457.686-.149.888.47.457.941"/><path d="m58.39 65.824l2.87 4.01 1.07-.847-2.87-3.995-1.07.834"/><path d="m53.46 68.58l2.89 1.76 1 1.79 1.14-.6-.99-1.87.01-3.24-1.01.534-.02 1.977-1.699-1.063-1.321.712"/><path d="m51.876 69.28l.444 5.138.955-.431-.094-.955 1.466-.659.605.74 1.251-.552-3.376-3.847-1.251.566m1.197 2.69l-.148-1.399c0-.067.148-.121.202-.067l.847 1.049-.901.417"/><path d="m46.34 70.975l1.305 4.842.955-.282-.498-1.937c0-.04.081-.094.108-.054l1.237 1.748.619-.188.121-2.139c.013-.054.135-.04.148 0l.632 1.87 1.157-.35-1.372-4.721-1.385.377-.135 2.125c-.013.081-.188.134-.229.067l-1.116-1.789-1.547.431"/><path d="m27.29 5.635l1.506 4.748 2.324-.78-.306-.982-.969.323-.282-.874.928-.309-.311-1.05-.95.339-.259-.85.982-.322-.323-1.01-2.34.766"/><path d="m23.01 7.572l3.513 3.847 1.197-.592-.61-5.205-1.07.511.443 3.268-2.192-2.434-1.281.605"/><path d="m19.731 9.536l2.677 4.264 1.143-.753-1.01-1.654c-.04-.054.121-.175.175-.121l1.56 1.291 1.237-.807-1.789-1.439c-.04-.027-.067-.108-.04-.148.35-.565.498-2-1.063-2.125-.632-.054-1.426.457-1.91.793l-.981.699m2.233.901l-.525-.847.296-.202c.713-.498 1.224.457.538.874l-.309.175"/><path d="m17.14 11.446l2.93 4.04 1.96-1.481-.604-.832-.821.618-.555-.736.797-.595-.637-.902-.788.619-.511-.713.833-.618-.614-.861-1.99 1.466"/><path d="m11.594 17.16l3.806 3.217 1.56-1.91-.79-.659-.649.793-.713-.591.632-.767-.833-.713-.619.794-.673-.565.659-.807-.806-.686-1.574 1.894"/><path d="m8.984 20.726l4.062 2.946.78-1.116-1.547-1.157c-.054-.04.04-.202.108-.175l1.937.619.847-1.21-2.206-.673c-.04-.013-.094-.067-.094-.121.121-.659-.282-2.044-1.776-1.574-.605.188-1.143.955-1.466 1.453l-.645 1.01m2.395.014l-.793-.605.202-.296c.471-.726 1.291-.027.807.605l-.216.296"/><path d="m16.449 17.714l.134-.982c.578.04 1.6-.242 1.627-1.17 0-.188-.202-.35-.511-.229-.511.202-.942.605-1.493.753-.551.148-1.103.121-1.533-.323-.605-.646-.471-1.614.067-2.259.578-.686 1.17-.874 2.058-.928l-.054.901c-.457.027-1.143.269-1.372.861-.135.336.309.551.578.417.511-.256.955-.659 1.547-.793.82-.202 1.708.148 1.896 1.076.175.941-.605 1.87-1.331 2.327-.483.295-1.048.443-1.613.349"/><path d="m9.603 48.27l-4.828 1.23-.606-2.44 1.023-.227.228 1.062.942-.229-.215-1.022 1.022-.224.242.99 1.869-.47.323 1.33"/><path d="m3.954 34.943l4.936.995.242-1.345-1.896-.403c-.067-.013-.04-.202.027-.202l2.02-.242.269-1.466-2.287.323c-.054 0-.121-.027-.135-.081-.161-.646-1.103-1.748-2.273-.699-.471.431-.646 1.345-.726 1.937l-.175 1.183m2.193-.982l-.982-.215.054-.35c.134-.861 1.184-.565 1.01.215l-.081.35"/><path d="m5.393 29.02l4.237 3.067.309-1.049-.847-.578.471-1.493.995.027.39-1.291-5.138.012-.417 1.305m2.798.834l-1.116-.753c-.054-.04 0-.202.067-.202l1.345.04-.296.915"/><path d="m3.551 38.521l4.976.457.188-2.556-1.01-.092-.108 1.128-.914-.078.094-1.09-1.09-.11-.08 1.1-.875-.08.108-1.14-1.063-.095-.228 2.556"/><path d="m3.995 46.43l4.949-.62-.35-2.54-1.022.13.148 1.119-.914.121-.135-1.076-1.089.121.161 1.09-.874.107-.135-1.129-1.062.121.323 2.556"/><path d="m6.617 25.366l4.483 2.058 1.099-2.344-.915-.453-.524 1.13-3.551-1.657-.592 1.266"/><path d="m8.487 41.587c-.081-3.43-5.07-3.188-4.99.242l.027 1.224 4.99-.256-.027-1.21m-3.874.04c-.081-1.224 2.73-1.466 2.825-.108l-2.825.108"/><path d="m6.133 53.53l4.519-1.882.485 1.143-4.52 1.937-.484-1.198"/><path d="m6.873 55.41l4.466-2.044.403.726-1.224 2.219c-.04.081.04.256.108.215l1.896-.982.525.955-4.331 2.313-.498-.915 1.049-2.206c.027-.054-.04-.188-.094-.161l-1.775.847-.525-.967"/><path d="m12.13 60.901l.309.955c-1.453.457-3.228-.43-2.609-2.434.35-1.143 1.6-2.125 2.838-2.02.78.054 1.385.417 1.722 1.13.403.861.121 1.601-.457 2.233l-.78-.861c.215-.296.43-.511.336-.915-.175-.699-1.089-.323-1.479-.081-.525.323-.955.659-1.13 1.264-.121.43.161.807.592.821.227.014.443-.053.658-.094"/><path d="m16.853 61.681c-.282-.592-.928-.968-1.574-1.01-1.345-.094-2.529.888-2.919 2.125-.242.74-.094 1.695.565 2.166 1.09.794 2.233.444 3.161-.336.861-.726 1.264-1.897.767-2.946m-1.144 1.238c-.296.417-.874.914-1.331 1.116-.74.309-1.022-.013-.928-.403.148-.659.955-1.399 1.587-1.654.282-.121.565-.134.78.081.202.201.04.644-.108.86"/><path d="m19.408 63.995l-1.318-1.103-3.161 3.766.995.888 1.143-1.372c.121-.148.269.04.188.215l-.672 1.748 1.13.995.713-2.138c.013-.067.081-.161.161-.148.282.027.672.108 1.049-.081.498-.242.767-.645.74-1.197-.026-.713-.443-1.13-.968-1.573m-1.264 1.479l-.282-.242.646-.78.269.242c.645.565.026 1.318-.633.78"/><path d="m18.359 69.59l2.676-4.129.968.646c.377.242.726.511 1.022.793.74.74.713 2.071-.376 2.529-.592.255-1.426-.027-2.058-.498l-.148-.121-.995 1.547-1.089-.767m2.65-1.668l.35.256c.673.484 1.251-.431.578-.915l-.336-.242-.592.901"/><path d="m26.644 68.53c-.484-.444-1.224-.551-1.843-.35-1.278.43-2 1.789-1.897 3.08.067.767.552 1.601 1.345 1.789 1.305.323 2.233-.43 2.798-1.506.525-.995.445-2.233-.403-3.01m-.591 1.574c-.121.498-.458 1.184-.82 1.533-.565.578-.942.376-1.01-.013-.108-.672.363-1.654.847-2.139.215-.215.471-.336.753-.215.255.108.282.578.229.834"/><path d="m31.31 71c-.269-.659-.794-.928-1.439-1.17l-1.601-.605-1.776 4.586 1.237.511.632-1.668c.081-.175.269-.04.256.148l-.081 1.856 1.399.592-.027-2.26c0-.067.04-.188.108-.202.282-.054.673-.108.982-.404.391-.389.499-.859.31-1.384m-2.152.632l-.349-.134.363-.941.336.148c.794.322.457 1.236-.35.927"/><path d="m30.13 75.21l1.022.242.524-.901 1.506.35.027 1.022 1.412.323-.43-5.192-1.399-.336-2.662 4.492m2.071-1.601l.646-1.13c.067-.121.269-.081.282.067l.027 1.305-.955-.242"/><path d="m34.674 71.16l3.066.35-.08 1.02-.915-.09-.405 3.97-1.37-.15.36-3.98-.791-.08.135-1.04"/><path d="m37.982 71.54l-.121 4.95 2.479.12.02-1.01-1.11-.07.02-.94 1.11.07.02-1.09-1.09-.05.03-.88 1.09.06.027-1.07-2.475-.09"/><path d="m41.843 71.61l-1.01.054.269 4.977 1.103-.04c3.282-.135 2.972-5.192-.363-4.991m.645 3.847h-.135l-.134-2.677.121.013c.875.108 1.036 2.664.148 2.664"/></g><path d="m42.905 34.05l-.363-1.125-.362 1.125h-1.198l.968.705-.376 1.129.968-.694.955.694-.367-1.129.96-.705z"/><path d="m38.32 34.05l-.364-1.125-.377 1.125h-1.179l.95.705-.363 1.129.969-.694.955.694-.364-1.129.955-.705z"/><path d="m33.36 29.05l-.367 1.13h-1.184l.955.701-.363 1.129.959-.7.96.7-.372-1.129.968-.701h-1.184z"/><path d="m29.993 41.29h1.856v7.518h-1.856z"/><path d="m37.956 29.05l-.377 1.13h-1.179l.95.701-.363 1.129.969-.7.955.7-.364-1.129.955-.701h-1.182z"/><path d="m29.13 34.05l-.361-1.125-.363 1.125h-1.196l.97.705-.379 1.129.968-.694.955.694-.363-1.129.959-.705z"/><path d="m28.769 29.05l-.363 1.13h-1.196l.97.701-.379 1.129.968-.7.955.7-.363-1.129.959-.701h-1.19z"/><path d="m33.732 34.05l-.372-1.125-.367 1.125h-1.184l.955.705-.363 1.129.959-.694.96.694-.372-1.129.968-.705z"/><path d="m48.46 46.631c0 .686-1.076.619-1.076 0v-1.735h-1.506v2.192c0 2.206 4.143 2.206 4.143 0v-5.797h-1.56v5.34"/><path d="m41.01 43.739h3.591v1.305h-3.591z"/><path d="m50.76 32.01l.968-.7.955.7-.363-1.129.95-.701h-1.18l-.362-1.13-.378 1.13h-1.18l.95.701z"/><path d="m50.76 35.884l.968-.694.955.694-.363-1.129.95-.705h-1.18l-.362-1.125-.378 1.125h-1.18l.95.705z"/><path d="m47.13 29.05l-.365 1.13h-1.183l.955.701-.367 1.129.96-.7.97.7-.38-1.129.969-.701h-1.179z"/><path d="m47.51 34.05l-.38-1.125-.365 1.125h-1.183l.955.705-.367 1.129.96-.694.97.694-.38-1.129.969-.705z"/><path d="m37.969 41.29h-2.367c-.592 0-1.076.484-1.076 1.076v5.367c0 .592.484 1.076 1.076 1.076h2.367c.592 0 1.076-.484 1.076-1.076v-5.367c0-.592-.484-1.076-1.076-1.076m-.471 6.214c0 .161-.121.296-.282.296h-1.157c-.161 0-.296-.135-.296-.296v-4.869c0-.161.135-.282.296-.282h1.157c.161 0 .282.121.282.282v4.869"/><path d="m42.542 29.05l-.362 1.13h-1.198l.968.701-.376 1.129.968-.7.955.7-.367-1.129.96-.701h-1.185z"/><path d="m59.14 19.529c-.511-.309-1.036-.578-1.56-.861-.726-.39-1.372-.861-2.071-1.291-1.964-1.184-3.981-2.26-6.106-3.12-1.358-.552-3.255-1.493-4.748-.767-1.264.605-1.278 2.071-1.426 3.241-.108.794-.229 1.493-.807 1.48-.309-.014-.498-.202-.551-.578 1.035-.134-.646-.592-.377-.995.363 0 .484-.081.35-.269-.417-.229-.726-.403-.915-.874-.067-.161 0-.189.148-.189.121 0 .282.135.282-.094 0-.175-.161-.336-.161-.498.013-.256.202-.43.417-.538.067-.027.161.027.229-.027.256-.161-1.453-.753-1.748-.847-.43-.134-.968-.336-1.426-.229-.161.04-.269.188-.417.229-.094.027-.188-.027-.282-.027-.457.054-.915.134-1.264.471-.215.202-.121.794-.067 1.036.027.094.148.471.296.431.121-.027.202-.202.35-.202.309-.013.619.148.834.363.188.202.363.605.202.861-.377.605-.699 1.036-.874 1.654-.081.269-.377-.081-.457-.202-.363-.511-.538-.941-.619-1.574-.134-1.076.215-2.125-1.13-2.636-1.224-.471-3.03-.215-4.237.229-3.349 1.251-8.04 3.739-9.738 6.55-.309.511.108.484.578.363.282.336.605.552 1.211.067.363.323.901.242 1.587-.255.565.511 1.103.013 2.703-.43.498.713 1.547-.255 3.107-.847.134.188.363.269.672.296-.094.296-.04.578.282.713-.04.404.121.552.484.457.135.417.336.686.713.619.067.511.309.74.699.672.121.43.269.794.713.646.081.444.323.632.74.578.215.498.43.538.915.498.054.444.35.578.888.363.39.672.659 0 1.076 0 .135 0 .256.121.229.323-.054.43-.296.807-.336 1.264-.013.121.041.256.027.377-.027.309-.148.43-.457.484-.161.027-.336-.148-.538-.067-.108.054-.148.175-.242.256-.296.229-.619.377-.861.686-.067.081-.202.309-.269.511-2.542.121-5.757-.794-9.939-3.188-5.313 16.88-.942 29.549 14.956 36.664 15.895-7.116 20.28-19.786 14.967-36.666-2.327 1.318-4.344 2.192-6.12 2.69-.35-.121-.632-.309-.888-.524-.686-.686-1.372-1.372-2.058-2.071-.511-.538-.269-1.412 0-1.331.552.148.552-.054.767-.336.592-.013.794-.336.847-.699.417-.148.578-.457.457-.807.35-.161.578-.323.524-.632.282-.094.323-.296.121-.592.296-.269.336-.525.363-.78.417 0 .686-.134.78-.404 3.093 1.264 3.793 2.031 4.6 1.506.498.215.915.161 1.278-.148.767.121 1.251.807 1.843.148.646.269 1.049.202 1.224-.202.956-.014 1.064-.418.23-.929m-18.265-2.3c.108-.04.215.094.256.175.027.081.054.229-.054.269-.108.027-.202-.094-.242-.175-.04-.08-.067-.242.04-.269m-3.725 2.166c-.067.121-.444.161-.578.215-.067.04-.135.081-.188.135-.175.175-.134.39-.255.551-.108.135-.296.041-.31-.121-.013-.35.282-.35.417-.524.067-.081.081-.202.148-.296.161-.188.404-.43.673-.43.16-.014.133.389.093.47m-13.894-.78c.982-1.01 2.3-1.843 3.524-2.502 2.273-1.237 5.286-2.771 7.949-2.313.498.081.807.511.915.982.121.552-.027 1.157.121 1.735.148.578.444 1.103.861 1.52.108.108.269.148.377.256.215.188-.363.578-.524.605-.256.04.175-.363-.108-.484-1.197-.511-1.116-.74-1.143-1.896 0-.511-.081-1.722-.552-2-.255-.148-.498.094-.74.067-.242-.014-.484-.121-.726-.175-.955-.202-1.977.309-2.851.686-.968.417-1.964.672-2.905 1.224-.968.538-1.95 1.143-2.878 1.748-.363.242-.699.511-1.062.753-.514.349-.662.228-.258-.202m9.939-2.784c.175-.202.578-.713.861-.794.121-.027.188.134.161.242-.027.161-.188.215-.296.309-.161.161-.323.323-.457.498-.054.054-.067.148-.121.188-.336.216-.282-.282-.148-.443m-.309-.068c-.161.148-.43-.013-.336-.215.081-.202.296-.484.525-.552.094-.027.242.067.215.175-.041.175-.283.485-.404.592m.457 1.01c.175-.404.565-.471.888-.74.135-.108.282.04.242.188-.027.108-.081.229-.161.309-.108.108-.256.148-.363.229-.175.108-.309.255-.484.35-.162.067-.162-.269-.122-.336m.081.726c.121-.161.309-.269.471-.39.134-.108.282-.229.444-.296.148-.054.215.148.215.256 0 .269-.202.39-.404.525-.148.121-.484.417-.699.323-.108-.041-.081-.351-.027-.418m.471.552c.161-.121.35-.202.538-.256.148-.054.336 0 .39.148.04.121-.161.242-.242.282-.108.054-.242.054-.35.121-.067.04-.256.39-.377.282-.174-.147-.134-.443.041-.577m.672.672c.121-.135.296-.229.471-.309.134-.067.188.04.188.148 0 .081.027.175-.013.255-.135.202-.363.498-.632.484-.283.001-.108-.47-.014-.578m.834.431c.188-.067.296.134.229.282-.054.121-.269.35-.417.35-.04 0-.054-.067-.054-.108-.04-.228 0-.43.242-.524m-5.662-2.125c.175-.175.565-.296.794-.484.067-.067.108-.188.202-.229.309-.135.726-.336 1.049-.525.148-.081.269-.013.282.161.027.242-.255.457-.43.592-.188.148-.417.242-.605.377-.148.108-.242.255-.39.35-.188.108-.551.081-.753.027-.069-.014-.23-.202-.149-.269m-.121-.511c-.094-.054-.309-.336-.229-.444.296-.417.659-.363 1.089-.538.202-.081.39-.229.605-.323.229-.081.471.094.269.296-.161.148-.336.282-.524.403-.094.067-.215.094-.31.161-.161.121-.296.282-.457.403-.134.095-.309.136-.443.042m2.38-1.05c-.108.013-.229-.121-.269-.242-.04-.121.35-.498.538-.282.054.054.027.148.027.229-.027.174-.107.282-.296.295m-8.661 4.412c-.215.161-.377.457-.672.511-.256.054-.309-.067-.121-.202.471-.336.955-.646 1.439-.955.269-.175.578-.296.834-.498.659-.484 1.305-.942 1.95-1.358.175-.108.31-.256.471-.377.336-.242.7-.457 1.103-.619.215-.081.229-.013.054.135-.161.121-.309.269-.457.417-.753.699-1.601 1.103-2.461 1.628-.161.094-.282.229-.444.323-.553.349-1.158.618-1.696.995m1.56.027c-.188.121-.336.282-.525.39-.121.067-.242.148-.377.108-.067-.013-.081-.135-.04-.202.175-.215.403-.377.632-.551.336-.256.699-.498 1.049-.74.807-.551 1.641-1.076 2.475-1.587.188-.121.39-.215.565-.35.202-.148.255-.121.242.121-.027.336-.578.659-.915.888-.713.498-1.547.969-2.34 1.453-.255.16-.524.295-.766.47m2.528-.565c-.363.256-1.668 1.09-1.426.538.242-.525.686-.632 1.251-.888.484-.202 1.143-.659 1.614-.968.363-.229.484-.417.874-.417.511 0-.323.672-.39.713-.631.309-1.439.699-1.923 1.022m3.067-.78c-.363.215-.888.444-1.318.713-.282.175-.538.31-.834.471-.269.161-.471.013-.242-.215.229-.242.511-.39.793-.565.417-.229.861-.403 1.251-.659.121-.067.309-.094.377-.027.081.08.04.255-.027.282m.188-.605c-.215-.377.202-.605.471-.78.121-.067.269-.081.39-.161.269-.188.471-.471.74-.659.081-.067.35-.175.39 0 .067.215-.013.35-.161.498-.403.39-.753.713-1.237 1.01-.149.093-.445.335-.593.093m.606.914c-.202.108-.161-.498-.081-.592.148-.202.377-.35.578-.525.242-.202.498-.403.767-.592.108-.081.336-.215.336.04-.013.148-.054.296-.108.43-.108.282-.632.619-.874.794-.202.163-.39.324-.618.445m.403.148c.161-.202.39-.35.592-.511.202-.148.39-.323.605-.43.269-.134.309.121.242.309-.134.35-.807.74-1.143.995-.269.215-.471-.148-.296-.363m.376.915c.269-.403.726-.807 1.076-1.13.081-.067.175-.121.269-.134.242-.04.121.417.04.511-.296.35-.646.686-.995 1.01-.201.174-.551.013-.39-.256m.66.793c-.094-.04-.242-.282-.161-.377.175-.229.444-.39.646-.578.215-.175.377-.39.619-.525.175-.108.269.067.269.229-.013.39-.309.605-.592.861-.19.189-.486.538-.781.39m1.01.579c-.108.081-.256.121-.377.094-.148-.04-.094-.417-.027-.498.215-.269.511-.457.753-.699.161-.161.269-.39.471-.525.269-.202.35.067.323.296-.04.282-.39.619-.578.82-.175.189-.349.377-.565.512m.269.887c-.188-.108-.081-.363.014-.498.161-.229.363-.404.538-.619.215-.269.457-.753.807-.888.188-.067.148.377.135.457-.054.282-.471.7-.686.982-.149.203-.498.741-.808.566m1.332.243c-.094.121-.309.323-.471.242-.121-.067-.067-.363-.013-.444.229-.444.659-.794.968-1.184.054-.067.256-.498.31-.511.202-.04.054.417.027.484-.189.498-.485.996-.821 1.413m.78.309c-.081.121-.309.363-.457.175-.121-.161.161-.632.255-.767.121-.188.323-.336.444-.524.242-.39.323-.874.699-1.157.148-.108.336.121.35.256.014.296-.484.78-.645 1.01-.216.335-.404.685-.646 1.01m.699.753c-.256.336-.578-.014-.39-.363.135-.242.309-.457.457-.686.121-.188.242-.377.336-.578.054-.081.04-.202.094-.282.04-.067.269-.282.35-.161.148.202.108.457-.013.659-.134.255-.336.484-.484.74-.134.214-.202.469-.35.671m1.09 2.798c.323-.027.134.269.148.444 0 .121.094.242.081.363-.027.269-.134.39-.255.121-.094-.188-.242-.35-.229-.565.013-.148.093-.35.255-.363m-1.682.712c.215-.188.565-.336.861-.242.188.054.202.296.148.444-.054.148-.229.417-.39.471-.188.067-.121-.444-.39-.323-.121.067-.269.404-.484.242-.161-.134.161-.511.255-.592m-11.634 16.517c-.511-2.112-.753-4.344-.7-6.725h.7v6.725m1.09 3.282c-.242-.592-.471-1.197-.672-1.816v-8.191h.672v10.01m1.089 2.219c-.242-.417-.457-.847-.672-1.291v-10.935h.672v12.226m1.09 1.735c-.229-.336-.457-.672-.672-1.022v-12.939h.672v13.961m4.425 4.842c-.229-.202-.457-.39-.673-.592v-5.972h-.417v5.582c-.229-.215-.457-.43-.673-.659v-4.923h-.417v4.492c-.659-.699-1.278-1.439-1.829-2.179v-14.552h1.829v4.25h.417v-4.25h.673v4.25h.417v-4.25h.673v18.803m1.089.888c-.229-.175-.457-.363-.673-.538v-19.15h.673v19.691m18.776-5.138c-.565.753-1.17 1.48-1.829 2.179v-4.492h-.417v4.923c-.215.229-.444.444-.672.659v-5.582h-.417v5.972c-.215.202-.444.39-.672.592v-6.564h-.418v6.913c-.215.175-.444.363-.672.538v-7.451h-.417v7.774c-.578.43-1.197.861-1.829 1.278v-12.617h-.417v12.885c-.215.134-.444.282-.673.417v-13.302h-.417v13.558c-.215.134-.444.255-.673.39v-13.948h-.417v14.176c-.215.121-.444.242-.673.363v-14.539h-.417v14.755c-.296.161-.605.309-.915.471-.309-.161-.605-.309-.915-.471v-11.19h-.404v10.975c-.229-.121-.457-.242-.686-.363v-10.613h-.404v10.383c-.229-.135-.457-.269-.686-.39v-9.993h-.404v9.738c-.229-.135-.457-.282-.686-.417v-9.321h-.404v9.05c-.646-.417-1.251-.847-1.829-1.278v-20.01h1.829v4.25h.404v-4.25h.686v4.25h.404v-4.25h.686v4.25h.404v-4.25h.686v4.25h.404v-4.25h1.829v6.496h.417v-6.496h.673v6.496h.417v-6.496h.673v6.496h.417v-6.496h.673v6.496h.417v-6.496h1.829v7.868h.417v-7.868h.672v9.845h.417v-9.845h.672v4.25h.417v-4.25h.672v4.25h.417v-4.25h1.829v14.553zm1.09-1.614c-.215.35-.444.686-.672 1.022v-13.961h.672v12.939m1.089-2c-.215.444-.444.874-.672 1.291v-12.226h.672v10.935m1.09-2.744c-.202.619-.43 1.224-.686 1.829l.013-10.02h.672v8.191zm.403-1.466v-6.725h.7c.053 2.381-.175 4.613-.7 6.725m-6.335-15.427c.04 0 .054-.027.067-.067 1.479-.417 3.134-1.116 5-2.206 1.17 3.753 1.829 7.223 1.95 10.464h-32.588c.121-3.241.767-6.711 1.937-10.464 4.115 2.367 7.196 2.946 9.63 2.636.094.067.202.108.282.094.04 0 .081-.04.094-.081.027-.161-.121-.417.027-.538.188-.175.417.229.471.35.081.148.013.417.269.457.256.04.336-.309.377-.471.094-.296.108-.686.323-.928.081-.081.282 0 .282.108 0 .081-.094.148-.094.229 0 .323.121.659.256.941.04.081.215.229.255.081.081-.363.121-.767.377-1.076.377-.444.847-.646 1.359-.915.282-.148.659-.242.982-.161.229.054.686.242.82.457.148.215-.04.39-.027.605.04.511.229.282.35.188.081-.04.135-.067.188-.067 0-.013 0-.013 0-.013.094-.161.161-.336.215-.524.067-.202.202-.565.108-.794-.054-.121-.202-.188-.282-.309-.202-.336-.121-.471-.161-.807-.04-.323-.229-.565-.404-.834-.229-.35-.471-.619-.524-1.049-.054-.336.081-.605.108-.928.013-.135-.134-.135-.215-.054-.363.404-.282.955-.081 1.399.108.215.39.471.39.726 0 .108-.108.296-.229.215-.135-.067-.229-.202-.35-.296-.282-.202-.619-.363-.874-.619-.094-.108-.256-.296-.04-.377.094-.027.457.054.417-.148-.014-.094-.094-.161-.161-.229-.161-.161-.484-.565-.753-.524-.202.013-.256.256-.229.43.067.323.363.834.215 1.13-.067.134-.282.027-.376.094-.027.027-.014.081 0 .121.067.148.215.242.282.417.054.148.067.376-.161.376-.067 0-.229-.202-.256-.161-.04.027-.013.094.014.134.121.256.323.43.376.74.027.188.081.592-.242.498-.121-.027-.202-.135-.31-.202-.148-.094-.336-.148-.457-.282-.175-.202-.094-.645-.013-.874.054-.161.215-.296.256-.457.04-.188-.054-.363-.027-.552.027-.363.215-.753.242-1.089 0-.161-.202-.148-.296-.094-.309.188-.525.511-.713.794-.054.067-.094.256-.229.175-.148-.108-.027-.471.027-.592.161-.377.403-.726.699-1.01.094-.094.269-.094.202-.269-.161-.39-.417-.713-.498-1.143-.148-.888-.094-1.708.081-2.596.175-.82.632-1.466.915-2.112.296-.699-.256-.874-.551-.82-.175.04-.134-.229-.202-.363-.121-.242-.188-.323-.457-.35-.229-.013-.39.108-.484-.188-.067-.256.04-.538.323-.592.296-.054.605.054.914.04.242 0 .39-.161.592-.188.363-.054.296.161.511.309.242.148.565.013.807.013.108-.013.417-.027.444.134.013.175 0 .35-.027.511-.04.175-.161.202-.296.121-.107-.067-.255-.35-.417-.202-.124.11.078.459.105.58.04.188-.161.148-.229.255-.013.041.027.094.054.148.134.242.323.35.255.659-.04.202-.134.067-.229.135-.134.067.188.551.215.645.148.525.336.807.807 1.211.282.242.431.027.646-.054.134-.04.242.215.323.296.336.35.82.377 1.17.013.471-.511.471-1.157.605-1.816.134-.645.215-1.506.605-2.071.282-.43.794-.807 1.318-.874.578-.081 1.13.135 1.668.296.43.121.874.215 1.305.35 1.103.39 2.206.874 3.282 1.358 1.076.484 2.044 1.01 3.067 1.614.726.417 1.412.874 2.085 1.345.108.081.256.081.363.161.027.027.309.282.134.282-.094-.013-.148-.04-.242-.081-.404-.175-.807-.471-1.197-.672-.78-.403-1.641-.807-2.408-1.17-1.426-.699-2.69-1.412-4.062-1.977-.968-.403-2.246-.928-3.349-1.01-.296-.013-.982.094-1.157.457-.081.175.013.377-.067.551-.067.108-.269.108-.309.229-.081.188.027.417-.041.619-.04.094-.202.121-.242.215-.041.107.04.242.013.35-.013.108-.108.188-.134.282-.04.108 0 .242-.04.35-.054.108-.188.175-.215.296-.04.175.094.363-.013.511-.094.148-.242.296-.309.444-.108.282-.404.74-.673 1.049-.161.161.054.377.094.525.067.269-.054.296-.067.484-.04.35.296.632.457.914.135.229.35.578.283.861-.067.242-.363.013-.457-.081-.282-.323-.309-.605-.484-.955-.04-.094-.202-.202-.242-.04-.107.35.161.605.336.874.323.471.659.914.942 1.399.054.094.108.242-.067.161-.108-.04-.215-.094-.296-.175-.229-.229-.377-.645-.659-.807-.215-.134-.296.081-.256.255.054.31.282.39.484.592.229.215.43.444.646.672.188.175.256.363.282.619.027.229-.094.242-.229.081-.309-.309-.498-.713-.807-1.01-.081-.081-.377-.323-.498-.188-.148.202.04.309.121.444.108.229.175.471.296.672.108.175.282.255.43.363.148.108.35.242.444.39.081.161-.229.067-.269.027-.094-.067-.282-.39-.43-.309-.175.094.148.255.188.296.256.229.148.229.188.524.027.242.229.282.363.457.121.161.188.404.04.579-.094.107-.323.013-.309.255 0 .081.215.134.256.202.04.081.04.323.027.511 0 .013.013.013.013.013.081.067-.027.256.175.296.229.04.363-.377.592-.309.726.229 1.748.296 2.623.309.821.03 1.654-.037 2.273-.252m-8.245-2.152c.013.081.013.175-.013.255-.04.108-.457-.121-.511-.161-.229-.148-.377-.336-.377-.605 0-.188-.013-.74.296-.672.256.054.363.659.444.847.04.121.121.215.161.336m.054-.915c.121-.027.255.175.296.255.108.242.161.524.202.78.014.081.04.229-.108.121-.161-.121-.417-.377-.471-.592-.026-.12-.121-.537.081-.564m8.662-9.01c.054-.134.229-.188.404-.134.161.067.269.229.215.363-.054.134-.229.202-.404.134-.161-.054-.255-.215-.215-.363m.134.888c-.04.04-.094.027-.135-.014-.04-.027-.04-.094-.013-.121.04-.04.094-.04.134 0 .041.04.041.094.014.135m-1.587-.646c-.552-.188-1.184-.511-1.748-.726-.202-.081-.39-.161-.524-.323-.215-.242.242-.336.35-.323.43.081.847.39 1.251.565.444.202.78.323 1.13.363.081.014.323.188.255.296-.176.242-.458.242-.714.148m.565.861c-.269.054-.659.013-.888-.121-.336-.188-.565-.457-.955-.632-.43-.188-.968-.094-1.372-.256-.242-.094-.323-.444-.256-.673.04-.121.202-.161.309-.094.498.282.955.592 1.466.807.484.215.955.363 1.453.565.082.027.62.337.243.404m-.941-1.991c.067-.148.377 0 .309.148-.067.148-.376 0-.309-.148m-2.986 5.165c-.134-.054-.242-.175-.377-.229-.108-.054-.256-.054-.363-.134-.202-.148-.363-.349-.511-.565-.094-.134.148-.282.242-.202.229.161.404.35.646.43.229.067.511.148.645.363.148.256-.027.445-.282.337m.107.659c-.269.094-.551-.027-.767-.175-.323-.229-.753-.565-.915-.942-.04-.094.013-.282.148-.242.242.067.336.269.511.417.148.121.35.175.511.242.188.094.39.188.525.363.055.081.135.283-.013.337m.081-1.52c-.363-.134-.807-.363-1.022-.699-.094-.135.108-.35.255-.336.242.04.484.229.686.323.108.054.242.067.336.134.121.081.094.309.054.43-.026.108-.201.188-.309.148m1.412 8.231c.161.296-.161.309-.336.175-.135-.108-.256-.269-.377-.404-.175-.229-.323-.457-.484-.699-.215-.336-.659-.713-.82-1.036-.067-.148.054-.377.215-.242.255.188.471.431.659.686.363.471.861.982 1.143 1.52m-.645-1.452c.417.39.901.888 1.224 1.291.161.202.094.444-.148.215-.444-.417-.82-.928-1.157-1.385-.081-.094-.027-.229.081-.121m-1.829-.928c-.027-.067-.027-.148.013-.175.04-.013.094.027.135.108.04.067.04.148 0 .175-.041.013-.108-.028-.148-.108m.027 2.475c-.027.027-.081 0-.108-.04-.04-.054-.054-.108-.04-.121.027-.027.081 0 .121.04.04.053.053.107.027.121m.417-.659c.108.148.175.282.148.309-.027.027-.148-.081-.269-.229-.108-.148-.175-.282-.148-.309.026-.027.147.08.269.229m-.014-.404c-.04-.081-.094-.161-.121-.256-.148-.511.35.014.43.108.161.175.296.363.417.565.081.121.161.256.215.404.108.31-.094.336-.296.121-.108-.107-.175-.255-.269-.376-.12-.189-.255-.364-.376-.566m-.175-2.865c-.242-.202-.417-.444-.484-.74-.054-.175.134-.121.215-.067.215.161.511.498.511.78-.013.162-.175.095-.242.027m2.717 2.515c.202.188.726.753 1.049 1.157.188.242.081.498-.202.229-.215-.215-.39-.471-.605-.699-.444-.471-.942-.901-1.412-1.345-.229-.215-.632-.511-.767-.807-.067-.148.04-.377.215-.242.633.457 1.157 1.169 1.722 1.707m-1.17-3.376c-.135.04-.377-.161-.471-.242-.148-.134-.309-.269-.417-.444-.202-.35-.672-.807-.646-.672.067.309.336.672.471.915.081.175.269.269.403.417.081.108.121.336.067.457-.081.175-.551-.43-.646-.525-.148-.148-.35-.282-.444-.471-.336-.645-.619-1.345-.915-1.896-.04-.081-.054-.296.108-.188.471.296.982.713 1.264 1.036.135.134.148.296.309.444.202.175.43.215.632.363.215.148.255.309.35.538.043.107.123.228-.065.268m1.076-.497c-.659.484-1.748-.928-1.896-1.251-.108-.229.296-.161.39-.081.135.121.229.282.35.404.175.148.471.202.673.323.229.121.363.215.457.444.012.053.08.134.026.161m.309-.579c-.39-.094-.78-.296-1.13-.511-.309-.175-.551-.336-.699-.672-.108-.256.188-.498.417-.363.215.135.39.404.605.552.215.175.417.269.619.484.054.054.081.135.134.188.041.04.471.417.054.322m.619-.659c-.39 0-.915-.256-1.237-.457-.269-.161-.498-.417-.753-.605-.067-.04-.161-.054-.202-.108-.054-.094-.054-.417.121-.363.471.148.915.565 1.331.834.269.161.659.188.807.296.121.081.121.417-.067.403m-1.991-2.205c.134.04.511.255.659.323.108.054.175.175.269.242.215.134.417.175.672.242.161.04.417.054.525.229.054.094-.027.242-.121.282-.188.094-.376.067-.551-.04-.229-.108-.43-.269-.659-.39-.309-.175-.645-.256-.928-.471-.094-.081-.027-.471.134-.417m2.408.672c-.309.027-.753-.161-1.022-.296-.35-.175-.619-.417-1.01-.578-.229-.108-.484-.161-.726-.269-.35-.135-.78-.323-1.022-.632-.108-.148.081-.256.202-.215.377.081.793.35 1.17.43.175.04.363.027.538.094.377.134.713.471 1.076.659.323.175.713.229.941.524.094.122-.014.27-.148.283m.497-.726c-.43.027-.794-.242-1.143-.444-.39-.215-.713-.538-1.157-.686-.471-.148-1.049-.094-1.479-.35-.282-.161-.229-.524.108-.417.323.108.901.229 1.224.296.578.121 1.184.699 1.762.874.309.108.847-.067.955.377.04.188-.081.336-.27.35m.135-1.036c-.282.027-.672-.108-.928-.215-.525-.215-1.036-.552-1.574-.726-.323-.108-.726-.067-1.049-.202-.215-.094-.269-.242-.255-.457 0-.135.107-.175.229-.135.242.094.404.256.686.31.242.054.538.027.766.121.323.161.632.35.942.538.309.188 1.143.229 1.278.404.093.147.147.349-.095.362m3.03 1.762c-.296-.108-.552-.296-.834-.404-.363-.135-.753-.188-1.103-.336-.242-.108-.471-.256-.659-.444-.134-.148.094-.309.242-.269.242.054.471.161.7.282.323.148.605.363.928.511.296.148.632.242.928.39.282.136.014.337-.202.27m.659.296c-.094 0-.161-.054-.161-.108 0-.067.067-.121.161-.121.081 0 .161.054.161.121.001.054-.08.108-.161.108m1.843.202c-.511-.081-.861-.377-1.305-.632-.686-.39-1.466-.619-2.125-1.01-.296-.189-.632-.35-.888-.579-.188-.175-.013-.511.256-.403.323.135.605.336.914.525.552.323 1.076.686 1.668.955.565.242 1.116.444 1.614.794.323.228.364.416-.134.349m2.892.04c-.175-.054-.403-.108-.592-.188.094.081.242.202.242.323 0 .188-.336.121-.444.081-.565-.188-1.103-.525-1.627-.794-.726-.377-1.439-.794-2.165-1.157-.686-.336-1.439-.538-2.044-1.01-.148-.121.013-.377.175-.336.565.161 1.52.498 1.937.767.296.202.484.457.821.619.175.081.363.135.538.215.484.215.955.511 1.439.753.202.094.457.188.686.282-.215-.175-.39-.404-.619-.551-.444-.296-1.049-.471-1.547-.686-.726-.296-1.318-.753-2-1.211-.282-.175-.619-.229-.901-.404-.202-.134-.121-.511.135-.417.484.188.941.444 1.426.673.592.296 1.197.578 1.762.915.282.161.538.35.82.498.578.296 1.197.498 1.749.847.309.188.551.309.565.699-.003.175-.245.108-.352.081m1.264-.134c-.282-.081-.552-.323-.753-.552-.108-.108-.027-.242.094-.175.188.081.646.336.74.484.04.081.053.283-.081.243"/><path d="m39.583 18.695c0-.04-.121-.202-.175-.161-.108.108-.094.309-.054.43.027.067.148.202.229.108.04-.04.027-.256 0-.377"/><path d="m39.637 20.377c-.054 0-.054.242 0 .242.04 0 .04-.242 0-.242"/><path d="m39.637 21.17c.054 0 .054-.202 0-.202s-.054.202 0 .202"/><path d="m39.502 21.749c-.04 0-.04.175 0 .175.054-.001.054-.175 0-.175"/><path d="m39.06 17.458c-.027-.081-.081-.148-.134-.202-.054-.04-.202.108-.188.161.067.188.027.484.202.43.12-.026.134-.295.12-.389"/><path d="m39.13 20.632c-.108 0-.108.269 0 .269.107 0 .107-.269 0-.269"/><path d="m39.476 17.243c-.121.054-.094.242-.067.336.013.04.121.296.202.282.094-.04.067-.417.054-.484-.015-.094-.109-.175-.189-.134"/><path d="m38.763 18.669c-.134.027-.121.35-.027.403.054.04.148.04.175-.014.027-.04-.041-.403-.148-.389"/><path d="m39.879 21.56c-.081 0-.081.215 0 .215.081 0 .081-.215 0-.215"/><path d="m38.682 21.533c-.121 0-.121.229 0 .229.121 0 .121-.229 0-.229"/><path d="m38.28 20.18c-.014-.027-.094-.081-.121-.081-.054.013-.04.242-.04.323 0 .054.108.309.215.202.013-.013.081-.175.054-.202-.027-.013-.067-.054-.081-.081 0-.027-.013-.148-.027-.161"/><path d="m38.18 17.498c-.013.04.04.067.054.108.027.04 0 .134.054.134.108.013.215-.377.121-.444-.067-.04-.229.149-.229.202"/><path d="m38.23 18.951c-.027-.175-.027-.296 0-.471.013-.081.108-.35.054-.417-.108-.134-.256-.04-.282.108-.054.256-.013.511-.04.767 0 .054-.04.108-.04.175-.013.161.161.444.309.202.052-.109.012-.257-.001-.364"/><path d="m38.494 13.988c-.054.04-.027.108.014.148.054.054.148.094.229.067.108-.027.081-.135.013-.188-.068-.041-.189-.081-.256-.027"/><path d="m42.529 19.973c-.027-.094-.121-.148-.121-.256-.013-.081.054-.336-.067-.363-.067-.014-.134-.014-.161.04-.108.175-.175.43-.067.619.081.175.202.256.39.242.106 0 .052-.228.026-.282"/><path d="m42.959 27.05c.121-.39.269-.578-.041-.915-.081-.094-.403-.457-.551-.404-.135.04.054.296.081.35.161.215.296.283.282.592-.013.121-.067.242-.081.363-.04.39-.014.78 0 1.17.108.027.242.027.269-.04.041-.067.108-.161.202-.229-.013-.108-.04-.202-.094-.323-.121-.228-.161-.295-.067-.564"/><path d="m42.488 66.67c-1.184-.928-2.542-1.869-4.075-2.69 1.17-1.412-.444-2.878-1.614-1.789-2.246-2.327-4.6-4.358-7.626-4.304-.928-2.327-2.421-3.86-4.438-4.734.148-.847-.148-1.412-.928-1.816-.108-1.345-.861-4.869-2.192-6.12-.202.35-.363.699-.484 1.049-.121-.444-.417-.807-1.157-1.01.82-2.65.888-4.963.229-6.819-.74.309-.404.565-.915.094-.121-.121-.161-.256-.04-.525 1.264-1.789 1.722-5.904 1.251-6.442-.121.013-.242.027-.35.04.874-2.071.874-2.986.753-3.725-.296.081-.619.215-.982.376.269-1.17.269-1.964.081-2.515-1.063.417-1.964 1.479-2.798 2.972-.377-.578-.78-1.17-1.157-1.533-.565 1.062-.713 2.663-.43 4.802-.148.161-.296.323-.43.484-.202-.148-.39-.282-.578-.43-1.103 2.529-.215 5.272.35 6.321-1.345 1.022-.995 2.556.74 2.394.135.067.256.175.377.309 0 .229 0 .444-.081.578-.928-.632-1.695-1.036-2.085-.982-.524 2.112.834 4.344 1.883 5.541-.605.256-.888.713-.726 1.506-.04.013-.094.013-.148.027-.108 2.475 2.031 4.896 4.102 5.891-1.17 1.977.847 3.241 2.112 1.439.552.82 1.116 1.52 1.695 2.085-.968.013-1.923.148-2.825.538 1.345 2.031 4.04 3.053 6.174 3.645 0 .619.215 1.09.672 1.412-.148.121-.255.242-.323.377 3.349 2.165 6.994 2.192 9.294 1.721.659 1.533 2.313.821 2.394-.255 1.748.861 3.174 1.923 4.681 2.946.188-.309.498-.014.74-.35-.393-.173-.756-.348-1.146-.509m-6.725-4.734c-1.439-.78-2.878-1.453-4.317-1.722-.39-.457-.632-1.076-.847-1.695 1.856.417 4.277 2.193 5.164 3.417m-5.111-2.3c.014.161.04.309.135.403-.188-.054-.377-.054-.592-.014.229-.093.377-.214.457-.389m-1.035-1.399c.861-.013.942 1.493.04 1.466-.901-.027-.928-1.453-.04-1.466m-.955-.081c-.027.672-.121.888-.255.874-1.036-1.762-1.681-2.609-2.3-3.376-.027.027-.054.04-.081.067.578.794 1.143 1.856 1.722 2.878-.525-.215-1.063-.471-1.641-.847-.659-1.372-1.13-2.69-1.318-3.968 1.438.7 2.756 1.938 3.873 4.372m-4.237-5.568c0 .39-.323.713-.699.713-.39 0-.7-.323-.7-.713 0-.39.309-.699.7-.699.376 0 .699.309.699.699m-.04 1.695c-.175.04-.592-.269-.592-.457 0-.121.484-.242.551-.134.068.107.094.577.041.591m-2.731-8.178c.861 1.466 1.399 3.255 1.627 5.353-.498.363-.914.767-.82 1.466-.161.336-.323.377-.484.135-.081-1.506-.43-2.811-1.143-3.86.215-1.359.497-2.314.82-3.094m-1.022.323c0 .404-.309.74-.686.74-.377 0-.686-.336-.686-.74 0-.403.309-.726.686-.726.377 0 .686.323.686.726m.027.982c-.121.323-.175.659-.161.995-.175-.269-.417-.525-.659-.78.322.04.645-.027.82-.215m-.713-8.393c.699 3.605-.552 7.03-1.103 6.752-.403-.242.175-.982.444-3.618-.027-.013-.054-.027-.081-.04-.282 1.197-.619 2.905-.767 2.663-.135-.323-.323-.646-.511-.968.485-2.744 1.198-4.143 2.02-4.789m-2.811 3.712c-.175-.134-.404-.363-.686-.646-.148-1.856.107-3.04.565-3.712 1.708 2.367.807 4.802.565 4.761-.108-.027-.242-.982-.309-1.56-.013 0-.027 0-.054 0 .04.579.107 1.211-.081 1.157m-.013-7.289c-.04-.013-.108.013-.148.013.054.619.081 1.291.067 2.031-.229.054-.457.43-.672.968-.565-1.439-.054-4.25.995-5.38.78 1.439.78 4.842.296 5.582-.121.027-.336-.35-.538-.686.067-.955.053-1.775 0-2.528m2.165 3.86c0 .323-.242.592-.538.592-.309 0-.552-.269-.552-.592s.242-.578.552-.578c.296-.001.538.255.538.578m-1.372-.377c-.161-.175.014-.484.511-1.385.538-.955.726-2 .955-3.04-.04-.013-.067-.027-.094-.04-.255.888-.538 2.125-.995 2.609.054-.82 0-1.896-.081-2.717.686-1.01 1.305-1.641 1.869-2.192.324 3.524-1.829 7.142-2.165 6.765m2.596-10.598c-.202 2.125-1.372 4.264-2.448 5.313-.134-.215-.229-.471-.269-.78.726-.847 1.17-1.789 1.641-2.73-.04-.013-.067-.04-.094-.067-.376.78-.753 1.574-1.331 2.206-.054-.444-.108-.874-.161-1.318.792-1.333 1.68-2.208 2.662-2.624m-.915-1.937c0 .659-.108 1.453-.417 2.542-.471.39-.942.955-1.412 1.601-.067-.404-.229-.901-.417-1.305.74-1.588 1.507-2.475 2.246-2.838m-3.483 1.56c1.345 1.318 1.695 4.479 1.291 4.748-.323-.444-.888-.914-1.453-.659-.188-1.843-.134-3.282.162-4.089m-.229 11.984c-.188.39-.619.551-.955.376-.323-.188-.431-.632-.242-1.01.202-.39.632-.552.955-.377.336.189.444.633.242 1.01m-.161-3.78c-.215-.363-.43-.861-.619-1.278-.027.013-.094.04-.121.054.39.915.753 2.058.807 3.726-.968-.941-1.654-3.753-1.036-5.972.417.404.834.995 1.251 2-.027.579-.121 1.063-.282 1.466m-.148-3.214c0-.363.282-.659.646-.659.35 0 .646.296.646.659 0 .363-.296.659-.646.659-.364 0-.646-.296-.646-.659m-1.426 8.218c1.601.511 4.183 3.228 4.358 5.568-.256.202-.942-1.116-2.461-2.69-.04.013-.04 0-.081.027.578.74 1.13 1.412 1.748 2.448-.108.148-.175.309-.202.498-1.559-.915-3.671-3.404-3.362-5.851m3.322 8.08c-.215-.202-.511-.444-.888-.686.242-.242.511-.404.807-.484.028.35.014.74.081 1.17m-1.291-2.69c.188.135.377.269.565.404.525.713-.202 1.506-.793 1.184-.902-.472-.485-1.79.228-1.588m-.766 1.964c1.668.74 2.757 2.031 2.555 2.273-.108.121-.874-.565-1.52-1.103-.014.027-.027.054-.027.081 1.628 1.695 1.991 1.574 3.228 3.443-1.546-.323-4.129-2.717-4.236-4.694m4.317 6.926c-1.076-.013-.699-1.614.256-1.628.887-.026.726 1.642-.256 1.628m-1.829-8.715c2.394 1.439 3.941 5.447 3.497 6.322-.161.188-.444-1.291-2.515-4.04-.027.013-.04.04-.067.054.632 1.439 1.426 2.165 2.192 3.968-.041.161-.202.135-.31.161-.793.147-3.631-3.511-2.797-6.47m2.959 6.765c1.049.054 2.192.336 3.82 1.695.215.726.511 1.439.659 2.058-1.089-.995-2.179-1.95-3.282-2.784-.013.014-.04.081-.054.094.982.955 1.937 1.843 2.865 2.798-2.34.174-3.416-2.408-4.01-3.861m5.501 7.371c-2.569-.592-4.533-1.56-5.756-2.986 3.309-.605 6.779.78 8.097 2.179.108.511-2.972-.834-5.299-1.385-.027.054-.027.094-.04.148 1.681.484 3.362 1.076 5.04 1.654-.013.054-.027.121-.04.175-.688-.377-1.361-.296-2.01.215m.255.699c-.013-.403.471-.686.834-.646.404.027.874.296.915.713.054.417-.363.766-.82.807-.458.027-.915-.363-.929-.874m.727 1.641c.874-.309 1.775-.538 2.757-.498.377.283.794.524 1.062.807-.659.013-1.318.027-2.071-.135-.013.027-.027.054-.04.081.78.444 1.87.336 2.905.309.901.39 1.91.632 2.972.807-1.6.485-5.433.001-7.585-1.371m1.425-1.883c.242.148.444.403.592.794-.148.081-.309.04-.538 0 .027-.337-.027-.565-.054-.794m7.209 2.583c-.027.202-4.936.134-7.115-3.268 2.811-.202 5.407.659 7.761 2.704.081.255 0 .336-.256.242-2.663-1.278-4.277-1.762-5.662-2.071 0 .04-.013.094-.013.134 2.569.94 4.976 1.841 5.285 2.259m1.063 1.412c-.377 0-.686-.282-.686-.632 0-.336.309-.619.686-.619.377 0 .686.282.686.619 0 .349-.309.632-.686.632m.78-1.803c-.336 0-.619-.282-.619-.605 0-.336.282-.605.619-.605.35 0 .632.269.632.605 0 .323-.282.605-.632.605"/><path d="m22.26 52.47c-.054-1.399-.229-2.703-.444-4.01-.013-.013-.054 0-.067-.027.175 1.332.309 2.636.35 4.04.053 0 .107 0 .161 0"/><path d="m18.588 28.447c-.027-.04-.04-.081-.067-.108-.175.592-.336 1.022-.484 1.251.04.013.081.013.121.027.201-.35.349-.74.43-1.17"/><path d="m66.765 37.808c-.04-.081-.04-.188-.094-.269-.161-.269-.202-.135-.417-.054-.148.054-.296.054-.43.121-.323.161-.457.417-.632.713-.054.081-.081.269-.175.081-.094-.229-.04-.43.014-.659.134-.498.35-.955.511-1.453.108-.35-.188-.699-.054-1.076.121-.336.39-.605.282-.982-.067-.202-.31-.309-.363-.551-.054-.31.148-.619.094-.901-.04-.282-.269-.471-.551-.444-.269.027-.43.31-.632.43-.134.081-.175-.256-.175-.309.027-.269.108-.35.35-.43.202-.081.484-.014.578-.269.081-.215.067-.471.161-.699.148-.336.229-.363.161-.767-.013-.134-.094-.646-.188-.74-.148-.121-.632.202-.847.161-.242-.04-.282-1.143-.296-1.345-.013-.296.081-.632-.148-.861-.148-.134-.309-.067-.457-.148-.148-.094.013-.256.013-.377.04-.444-.013-.74-.215-1.116-.323-.565-1.17-.874-1.627-.202-.242.35-.081.296-.525.43-.403.121-.376.296-.39.7-.014.309.188.444.215.498.094.215-.094.457-.081.686 0 .269.161.39.202.605.067.296-.175.403-.363.148-.269-.377-.296-.753-.955-.713-.659.04-.794.296-.982.82-.054.175.121.35.108.538-.054.444-.404.713-.309 1.224.081.43.457.726.794.955.296.215.161-.04.135.282-.027.552-.013.982.39 1.412.148.161.915.538.955.686 0 .013-.726.067-.847.161-.35.269-.31.686-.135 1.036.067.148.471.511.377.659-.175.336-.404.39-.404.847 0 .713.767.794.565 1.237-.094.202-.282.363-.403.565-.511.847-.404 1.184.161 1.802.027.027.027.067 0 .081-.457.39-.659.363-.767 1.049-.04.269.134.834.067 1.01-.471 1.305.39.982-1.089 1.533-.538.215.161 1.049.242 1.372.04.175-.013.35-.027.525-.686.511-.605.767-.632 1.681-1.372.74-.915 1.237-.915 2.058 0 .215-.175.431-.363.699.081.457.296.928-.027.942-.404-.35-1.237-.188-1.278 1.627-.013.148-.108.229-.255.242-.336-.108-.646.067-.915.901-.296.081-.525.417-.686 1.01-.403-.497-.578-.497-.524 0-.525.229-.807.847-.901 1.722-.982.027-1.291-.027-1.695.955-.659-.027-1.251.108-1.466 1.412-.632.094-1.022.215-1.237 1.049-.538-.094-.914.013-1.345.255-.592.067-1.197-.175-1.52.955-.323-.108-.686.013-1.063.229-.148-.336-.498-.323-.861-.188-.874.336-1.385.807-1.412 1.748 0 .457.175.551.161.874-2 .699-3.887 1.614-5.595 2.825.363.027.74.054 1.103.081 3.255-1.627 4.613-2.138 4.68-1.896.215.901.565 1.211 1.197 1.089 1.224.619 1.627.134 2.125-.134.874.094 1.01.067 1.332-.188.417.229.915.148 1.453-.081.955-.282 1.775-.552 1.641-.713-.336-.175-.444-.323-.323-.444.134-.269.188-.04.551.027 1.547.121 1.829-.336 1.776-.942.202-.242.403-.377.592-.39.834.175 1.358-.336 1.802-1.022.995-.135 1.251-.632 1.547-1.103.888-.296.982.027 1.426-.78.713-.148.753-.269.874-.726.659-.511.081-.498.094-.928.269-.255.498-.497.713-.753.807-.336 1.13-1.022 1.479-1.681 1.17-1.224-.04-1.466-.511-1.627-.04-.067 0-.108.094-.135 1.493.35 2.152.175 2.26-.363.659-.363.888-.888.928-1.506-.094-.256-.363-.336-.592-.444-.148-.282.282-.538.632-.834.296-.242.377-.565.457-.874.565-.363.888-.726.659-1.089-.04-.498-.027-.834.054-.995.309-.417.726-.108 1.01-1.197.807-1.412.242-1.654.498-2.461.713-.888.713-1.076.417-1.789.632-.941.444-1.466-.632-1.6-.067-.229-.013-.457.175-.672 1.036.215 1.493-.121 1.278-1.01-.013-.578.108-.713.202-1.022.105-.392-.083-.513-.258-.795m-2.448-4.641c.175-.202.35-.484.646-.471.121 0 .081.39.067.471-.04.269-.215.444-.04.726.121.229.457.282.35.592-.175.524-.336.646-.202 1.197.054.215.041.444.027.659 0 .067-.054.121-.081.188-.175.444-.215.888-.377 1.331-.081.229-.202.457-.336.659-.081.121-.256.108-.269-.04-.013-.269-.027-.524.027-.78.067-.323.376-.565.498-.861.148-.35.175-.753.081-1.116-.094-.377-.457-.713-.242-1.116.121-.255.242-.296.148-.619-.067-.269-.309-.242-.457-.404-.109-.133.08-.335.16-.416m-.296 8.528c.027.148.013.309-.027.457-.067.215-.215.377-.377.578-.094.108-.175.309-.282.39-.242.175-.121-.269-.121-.323-.013-.888.134-1.923.067-2.851-.027-.188-.148-.39-.202-.081-.081.444.081 3.255-.309 3.336-.188.054-.282-.229-.269-.363.027-.269.242-.578.134-.847-.067-.148-.242-.229-.296-.39-.054-.175.04-.363 0-.538-.04-.161-.175-.269-.215-.43-.121-.39.269-.511.457-.794.135-.229 0-.511.094-.713.148-.296.794-.296.874.04.081.269-.188.484.094.78.229.242.659.148.471.659-.054.134-.242.202-.296.336-.16.323.136.485.203.754m.189-2.341c.188.027.35.471.054.484-.256.001-.202-.497-.054-.484m.511 1.063c.215-.202.484.027.43.296-.067.309-.256.74-.444.982-.161.202-.323.04-.336-.161 0-.364.067-.848.35-1.117m-.175-10.464c.74-.175.753 1.466-.148 1.116-.578-.228-.39-.995.148-1.116m-.363 1.251c.403.148.578.699-.027.552-.43-.108-.632-.794.027-.552m-.565 2.327c.094.188.457.269.471.498.013.215-.215.471-.242.686-.04.35.175.538.296.834.121.296.215.632.027.915-.229.35-.417.471-.497 1.076-.014.121.027.255-.027.377-.121.269-.39.578-.672.686-.282.094-.323-.161-.457-.323-.121-.148-.336-.242-.215-.484.094-.175.377-.04.471.04.067.054.242.43.376.283.121-.148.121-.417 0-.552-.296-.363-.592-.081-.941-.188-.296-.108-.323-.457-.282-.713.04-.296.242-.498.323-.753.067-.255-.108-.444-.189-.659-.148-.363-.229-.659.067-.968.148-.161.551-.336.43-.578-.134-.269-.229-.296-.229-.632-.013-.215.013-.471.242-.565.121-.054.646-.054.767 0 .336.135.269.323.269.605-.001.146-.042.294.012.415m-2.192-7.089c.524-.202.417.094.538-.551.027-.148.309-.296.457-.215.296.175.376.511.43.834.054.296 0 .578-.04.874-.027.108-.081.255.094.296.188.04.444-.134.605.067.134.175.04.538 0 .726-.054.215-.188.296-.256.471-.054.135.148.296.188.417.107.309-.135.672-.202.968-.094.457-.027.861 0 1.318.04.43-.296.457-.431.121-.121-.282-.094-.78-.242-1.022-.161-.269-.457-.39-.511-.726-.054-.323.013-.511-.175-.82-.121-.202-.309-.363-.404-.592-.175-.376.067-.511.175-.82.067-.215-.229-.404-.323-.578-.078-.203-.172-.66.097-.768m-1.291 6.376c-.242-.43-.215-.834-.094-1.022.148-.229-.215-.403-.363-.498-.376-.256-.619-.31-.713-.807-.081-.404.108-.565.323-.861.04-.04.094-.081.094-.121.04-.242-.134-.323-.215-.511-.081-.215-.121-.444.148-.538.269-.108.632-.121.874.094.202.175.094.471.108.699 0 .161.04.255.229.202.242-.067.363-.323.672-.134.282.161.296.498.269.794-.027.202-.175.43-.148.632.027.229.215.121.35.215.242.148.256.417.269.686 0 .336.081.928-.094 1.251-.108.175-.269-.323-.282-.363-.215-.605-.377-1.184-.659-1.762-.175-.39-.35-.834-.672-1.116-.121-.108-.175-.054-.108.094.081.188.202.363.296.551.31.619.592 1.264.834 1.923.108.309.323.767.323 1.103 0 .229-.188.148-.35.107-.446-.107-.836-.188-1.091-.618m1.331 3.389c-.067-.094-.175-.256-.081-.336.081-.081.229.04.323.121.148.134-.094.471-.242.215m-1.291-1.21c-.067-.229-.04-1.143.417-.807.161.108.282.269.431.39.108.108.39.282.43.43.04.215.013.457-.054.659-.027.094-.121.067-.175-.013-.135-.242-.135-.458-.363-.686-.134-.121-.282.336-.336.404-.095.134-.337-.31-.35-.377m0 1.654c-.094-.323.148-.39.296-.605.094-.148.121-.363.229-.498.081-.081.188.054.215.121.296.686.484 1.439.861 2.112.135.229.35.417.484.659.108.188.094.471.054.672-.014.108-.094.269-.229.175-.121-.094-.188-.457-.31-.592-.242-.282-.417-.161-.713-.242-.175-.054-.148-.296-.161-.444 0-.202.081-.457-.081-.632-.215-.255-.538-.376-.645-.726m1.533 4.196c.013.054.027.43-.013.471-.148.121-.31-.565-.39-.659-.121-.148-.336-.135-.39-.35-.04-.107.027-.35.229-.457.067-.04.054-.269.094-.35.054-.121.377-.134.417.027.054.255 0 .538-.067.673-.095.215.08.444.12.645m-1.654-1.25c-.094-.363 0-.794.282-1.049.242-.215.578.404.632.552.134.363-.054.753-.363.955-.282.174-.497-.257-.551-.458m.565.927c.457.054.363.242.525.592.148.336.269.497.605.659.148.081.484.094.498.309.027.282-.202.444-.31.672-.094.175-.134.417-.013.605.134.188.417.282.444.552.013.108-.027.202-.081.296-.148.296-.054.229-.013.498.067.43-.175.336-.35.578-.175.242-.121.417-.175.686-.054.282-.202.457-.457.605-.121.067-.242-.04-.229-.175.067-.363.296-.7.336-1.063.054-.511-.027-.995-.094-1.493-.081-.565-.108-1.157-.269-1.695-.081-.269-.323-.256-.255.041.134.524.269 1.049.296 1.654.027.497.108 1.022.027 1.52-.027.161-.175.982-.363 1.01-.161.013-.417-.538-.484-.632-.134-.188.04-.404.054-.605.027-.404 0-.726-.161-1.089-.161-.39-.309-.511-.256-.968.04-.323.161-.511.081-.888-.067-.296-.242-.444-.215-.794.038-.456.267-.954.859-.874m-.713 4.937c-.807.955-1.426-.188-.888-.215.444-.027.323.014.713-.282.35-.284.296.349.175.497m-1.237-1.036c.094-.363.255-.524.605-.511.175.013.377.013.39.242.04.336.027.726-.323.861-.498.202-.753-.256-.672-.592m-1.238 5.326c.148-.242.323-.188.282-.551-.04-.309-.242-.592-.188-.915.054-.35.471-.35.7-.498.255-.148.309-.323.269-.605-.04-.309-.242-.511-.094-.847.148-.323.498-.43.82-.363.363.081.592.323.632.686.04.363.067.861-.148 1.197-.229.35-.404.39-.417.847-.013.121.067.538-.027.632-.108.094-.229.161-.363.188-.242.054-.215-.309-.202-.457.054-.457.256-.901.336-1.358.013-.067.067-.592-.013-.7-.108-.134-.161.525-.175.619-.081.404-.175.794-.282 1.184-.189.767-.444 1.52-.632 2.286-.04.135-.188.525-.04.619.135.108.202-.161.229-.242.054-.134.067-.565.215-.632.161-.081.229.121.229.242.027.31-.054.175-.189.336-.215.256-.229.471-.215.78.013.121.067.229.067.35-.013.202-.148.39-.363.242-.269-.175-.417-.471-.39-.807.013-.108.121-.202.148-.309.081-.417-.229-.726-.336-1.103-.068-.269-.001-.592.147-.821m1.022 5.784c-.161.188-.484.282-.659.471-.188.202-.148.403-.255.632-.135.282-.511.323-.78.403-.336.094-.323.027-.524.336-.215.323-.161.336-.551.377-.242.04-.417.054-.646.121-.336.094.121-.269.161-.31.578-.498 1.09-1.01 1.587-1.587.525-.605.995-1.224 1.358-1.95.081-.161-.067-.229-.161-.094-.296.43-.578.874-.901 1.278-.552.713-1.143 1.412-1.829 2-.43.363-1.049.888-1.587 1.103-.43.175-.592.067-.175-.242.444-.323.619-.404.834-.982.121-.336.148-1.022.457-1.251.256-.202.592-.202.753-.457.175-.282.148-.565.269-.847.081-.188.229-.404.457-.323.31.135.417.35.807.269.43-.094.35-.35.471-.659.121-.296.242-.565.578-.632.255-.054.726-.121.874.161.135.256.041.551-.121.767-.188.282-.377.296-.39.659-.013.174.081.618-.027.753m-.847-2.488c-.041.229-.35.511-.552.605-.35.161-1.022-.121-.794-.565.121-.229.578-.202.794-.269.149-.041.606-.054.552.229m-1.843-.996c.175-.43.673-.861 1.063-.35.403.525.215.968-.363 1.049-.215.014-.592.148-.74-.054-.081-.107-.014-.537.04-.645m-.39 2.058c.108-.188.296-.282.309.014 0 .229-.161.269-.229.43-.094.215-.013.525-.134.74-.135.256-.538.094-.403-.229.108-.269.377-.43.457-.726.027-.068-.04-.162 0-.229m-1.089.215c.161-.215.43-.202.525-.498.067-.175.013-.524.255-.592.417-.108.256.471.188.632-.134.309-.444.538-.619.834-.121.188-.014.417-.04.632-.054.471-.404.377-.471 0-.053-.308-.04-.766.162-1.01m-1.655 1.466c.094-.202.309-.565.552-.592.242-.027.645.282.686.525.027.148.013.551-.054.686-.134.296-.968.605-1.21.188-.121-.202-.054-.592.026-.807m.108 1.157c.471.027.672-.067 1.036-.229.094-.04.242-.04.269.094.054.202-.121.417-.255.551-.202.202-.43.282-.713.269-.269 0-.417-.094-.551-.336-.109-.201-.001-.376.214-.349m-4.6 3.107c.229-.484.551-.363.955-.525.323-.135.188-.565.296-.82.229-.551.592-.269 1.022-.35.511-.094.498-.498.767-.847.175-.255.39-.525.699-.296.363.269.215.471.134.834-.04.161-.121.323-.108.484.014.202.282.323.067.578-.175.215-.471.296-.659.578-.067.094-.108.242-.215.323-.161.135-.35.161-.524.269-.121.081-.229.202-.309.323-.054.081-.094.645-.377.524-.202-.094-.094-.498.013-.659.121-.188.309-.323.471-.498.296-.323.632-.646.82-1.049.04-.081-.013-.148-.094-.081-.161.148-.296.323-.471.471-.524.471-.982.914-1.681 1.089-.16.042-.954-.025-.806-.348m-.834.296c.175.013.336.121.229.336-.135.283-.834.377-.78-.027.04-.323.309-.323.551-.309m-2.165.901c.148-.377.417-.538.793-.471.457.081-.081.632-.148.713-.161.202-.363.511-.592.377-.134-.081-.093-.525-.053-.619m-1.359.699c.108-.067.229-.202.336-.282.135-.108.296-.148.457-.054.121.081.121.282.054.39-.027.054-.094.067-.148.121-.135.121-.377.646-.592.713-.308.094-.241-.807-.107-.888m.243 1.305c.121-.081.309-.081.417-.202.148-.161.175-.404.269-.605.04-.081.067-.175.148-.229.081-.04.175-.04.269-.04.417 0 .592.135.914-.242.148-.188.094-.444.39-.592.269-.135.417.04.619.054.565.054.551-.188.928-.525.282-.256.498-.269.847-.229.309.027.551.094.659.417.081.255-.215.484-.377.632-.242.215-.363.282-.511.619-.161.39-.121.605-.484.888-.256.202-.484.121-.753.215-.363.134-.39.363-.619.619-.404.457-.915.202-1.453.242-.323.027-.498.215-.861.135-.363-.067.04-.511.094-.605.107-.148-.161-.108-.229-.067-.309.161-.309.255-.484.43-.121.121-.296.161-.296-.067.015-.404.203-.62.513-.848m-1.453-1.359c.135-.121.471-.296.659-.229.255.081.242.431.229.646-.013.282-.013.605-.377.659-.242.04-.632-.121-.753-.363-.135-.296.013-.524.242-.713m-.471 1.076c.04-.027.121.027.161.054.336.215.498.296.955.336.04 0 .148-.027.148.027-.067.498-.861.632-1.103.269-.067-.094-.295-.565-.161-.686m.753 2.65c-.363.067-.39-.229-.323-.498.094-.336.376-.565.699-.659.296-.081.511.067.242.296-.281.229-.47.834-.618.861m1.977.215c-.242.336-.578.43-.968.309-.39-.134-.417-.484-.35-.834.054-.269.256-.511.525-.579.229-.067.552.067.686.256.175.23.282.593.107.848m3.955-1.479c-.094.242-.323.134-.511.148-.471.027-.807.457-1.251.498-.215.027-.377 0-.592.013-.229 0-.403.161-.605.256-.188.081-.417.175-.605.027-.161-.148-.148-.43.013-.565.242-.175.525 0 .753.054.229.054.431-.013.646-.094.35-.148.363-.296.565-.498.081-.067.202-.081.296-.135.215-.134.39-.108.605-.148.081-.027.148-.108.229-.148.134-.054.282-.067.376.067.121.148.161.35.081.525m.847-.955c-.054.121-.081.269-.148.377-.148.202-.323.215-.404-.04-.067-.188.013-.471.134-.619.081-.094.417-.363.552-.282.243.147-.067.443-.134.564m.753.874c-.35.014-.7-.175-.511-.565.148-.336.565-.457.861-.269.471.296.094.834-.35.834m3.497-3.497c-.269.202-.054.551-.175.794-.081.188-.417.161-.578.175-.538.027-.498.578-.874.686-.323.094-.646-.027-.955.188-.296.202-.323.39-1.116.35-.148-.013-.188-.188-.229-.309-.067-.242.444-.377.592-.444.726-.39 1.439-.794 2.125-1.237.255-.161.511-.323.726-.524.121-.121-.027-.255-.161-.215-.161.054-.296.148-.444.229-.592.363-1.183.74-1.775 1.103-.35.215-.699.444-1.049.659-.134.081-.296.242-.296-.027 0-.309.135-.215.323-.336.188-.121.39-.296.471-.524.081-.242-.013-.484.215-.7.229-.202.417-.081.659-.134.242-.054.363-.296.471-.498.094-.215.027-.35.296-.39.215-.04.296.081.484.161.148.054.417.161.551-.013.148-.202.081-.511.31-.672.255-.175.619-.134.847.067.296.256.417.686.296 1.049-.149.455-.418.347-.714.562m1.01.242c-.229.336-.296.417-.511.444.013-.121-.027-.256.027-.363.081-.161.323-.471.524-.444.202.027 0 .309-.04.363m-.081-2.461c0-.296.672-.417.672.013.014.363-.658.377-.672-.013m1.399 1.896c-.067.175-.457.188-.605.121-.525-.282-.592-1.01-.188-1.466.175-.188.525-.054.592.175.04.135.027.282.054.417.066.242.255.484.147.753m1.157-.739c-.094.161-.403.404-.592.444-.188.027-.35-.242-.363-.377-.04-.242-.04-.484 0-.713.027-.229.215-.242.403-.229.202.027.484.094.592.296.067.121.014.471-.04.579m2.757-4.547c.081.215 0 .403-.161.552-.161.148-.498.282-.619.471-.054.081-.067.188-.107.282-.121.296-.188.592-.457.794-.202.148-.484.134-.699.255-.256.135-.175.242-.309.417-.175.215-.444.403-.713.498-.161.04-.323.04-.498.081-.148.04-.296.121-.457.148-.175.027-.229-.215-.134-.296.215-.175.471-.309.659-.524.04-.067.054-.148.121-.202.39-.282 1.103-.229 1.358-.659.134-.215.202-.471.336-.686.108-.202.35-.35.444-.565.04-.094 0-.202.027-.282.133-.337 1.021-.754 1.209-.284m-.753-2.38c-.067.054-.578.134-.498-.081.081-.215.202-.43.363-.592.081-.094.255-.054.336-.148.054-.094-.04-.229.014-.323.148-.296.404-.538.592-.807.282-.431.619-.834.82-1.305.215-.484.404-1.13.471-1.628.027-.229-.215-.269-.282-.067-.175.632-.35 1.21-.659 1.829-.309.619-.672 1.237-1.143 1.762-.081.081-.229.175-.269 0-.027-.108.04-.229 0-.336-.121-.309-.363-.336-.336-.753.04-.404.256-.444.538-.632.188-.134.336-.215.377-.457.04-.242-.094-.592-.027-.794.121-.417.404-.242.699-.336.282-.081.484-.229.592-.511.135-.35.067-.659.498-.82.309-.121.578.027.726.323.161.35-.108.511-.215.78-.148.363-.014.538.094.874.081.269.161.511-.027.753-.161.202-.417.134-.511.484-.054.202.04.726-.135.861-.202.148-.457.215-.645.35-.215.148-.256.511-.484.673-.23.161-.607.686-.889.901m1.775 1.399c-.309.108-.672 0-.861-.269-.188-.256-.121-.578.013-.834.04-.081.256-.148.336-.108.296.135.511.498.659.767.069.148.041.39-.147.444m1.184-1.413c.054.296 0 .552-.202.767-.121.148-.323.336-.524.215-.255-.161-.35-.39-.296-.699.04-.282.269-.471.538-.511.201-.041.443 0 .484.228m1.156-3.483c-.027.35-.35.444-.538.632-.188.202-.067.43-.121.659-.054.296-.323.363-.498.565-.188.229-.215.578-.417.807-.148.148-.35.202-.511.323-.175.121-.269.323-.659.377-.188.027-.457.081-.605-.081-.161-.175.498-.444.605-.538.229-.242.229-.552.565-.74.296-.161.457-.148.525-.659.108-.713.323-.74.767-1.224.215-.229.108-.565.229-.834.094-.188.403-.417.605-.309.175.107.067.901.053 1.022m-.618-1.493c.054-.161.323-.269.39-.04.054.242-.471.322-.39.04m1.506-.108c-.202.081-.551.027-.726-.094-.296-.175-.538-.511-.619-.847-.067-.282.027-.699.202-.915.121-.161.363-.027.43.108.148.255.161.578.35.82.121.148.269.269.403.404.162.161.283.417-.04.524m.484-.995c-.121.121-.309.067-.417-.04-.363-.376-.282-.834.35-1.022.121-.04.471-.013.457.175-.026.295-.188.672-.39.887m1.01-4.855c.081.202-.04.444-.108.619-.108.256-.161.309-.108.592.04.309.135.484-.027.807-.134.256-.457.309-.524.619-.027.148.081.471-.067.565-.108.067-.242.067-.363.134-.202.108-.39.242-.605.363-.094.054-.35.255-.43.054-.067-.134.054-.35.121-.457.161-.229.35-.444.498-.672.242-.377.552-.78.699-1.157.081-.175-.013-.255-.134-.094-.296.404-.552.847-.847 1.251-.229.336-.484.659-.726.968-.121.134-.699 1.076-.928.807-.108-.135-.081-.551-.027-.686.108-.282.309-.256.471-.43.134-.134.013-.525.04-.699.04-.242.175-.215.35-.283.229-.094.336-.161.39-.43.027-.135-.054-.404.027-.511.175-.188.43-.202.673-.242.256-.027.377 0 .484-.296.081-.215.027-.457.121-.699.094-.256.161-.39.457-.417.24-.029.456.065.563.294m.363-1.601c-.296.175-.619.067-.874-.108-.269-.202-.632-.444-.551-.807.067-.296.39-.148.511-.013.269.242.659.377.914.498.135.054.135.336 0 .43m.135-1.049c-.04.134-.377.094-.484.054-.309-.094-.578-.242-.524-.619.054-.363.296-.632.659-.726.242-.067.525.054.552.336.025.256-.136.753-.203.955"/><path d="m62.44 29.24c.027.121.161.094.175-.014 0-.39-.094-.861-.215-1.237-.054-.188-.121-.377-.202-.565-.054-.134-.148-.282-.135-.013.027.404.161.807.256 1.197.04.215.053.43.121.632"/><path d="m45.77 63.34c.296-.094.713-.282.955-.39.282-.135.632-.35.874-.471.027-.014.309-.242.256-.242-.309.027-.565.242-.834.377-.417.202-1.036.404-1.345.632-.041.026.054.107.094.094"/><path d="m63.34 34.62c-.121-.282-.269.538-.175.767.108.229.067.982.134 1.372.121.686.188-1.251.067-1.749-.026-.134.014-.269-.026-.39"/></g></svg>