<svg xmlns="http://www.w3.org/2000/svg" viewBox="0 0 250.86 70"><g data-name="Layer 1"><path d="M99.6,30.23,83.45,21.08V14.22H80.64v5.27L68.77,12.77,37.94,30.21l1.34,2.47,6-3.33s0,27.13,0,27.13c1.5,0,2.49,0,2.67,0V28L68.72,16,89.31,27.42s0,38.72,0,42.58h2.81V29.08l6,3.57Z"/><path d="m3 40.72v-2.25h41v-3h-44v8.2h4.35s0 24 0 26.3h3c0-.35 0-26.3 0-26.3h36.73c0-.65 0-1.67 0-3"/><path d="M48.51,2.48H48V0H28.12V6.82h-7.3v5.79A42.9,42.9,0,0,0,7.1,34.05H23.49V9.49h4.63V34.05h2.31v0h.36V2.67H45.31V24.22L68.77,11l10.29,5.82V15.26A42.78,42.78,0,0,0,48.51,2.48Z"/><path d="m28.12 34.05h2.31"/><path d="M146.87,15a2.11,2.11,0,0,0-1.67.71,2.83,2.83,0,0,0-.62,1.93,2.89,2.89,0,0,0,.6,2,2.08,2.08,0,0,0,1.68.69A5.8,5.8,0,0,0,148.4,20v.65a4.66,4.66,0,0,1-1.65.25,2.79,2.79,0,0,1-2.2-.86,3.58,3.58,0,0,1-.77-2.45,3.86,3.86,0,0,1,.37-1.75,2.67,2.67,0,0,1,1.08-1.15,3.26,3.26,0,0,1,1.65-.41,3.91,3.91,0,0,1,1.77.37l-.31.64A3.43,3.43,0,0,0,146.87,15Z"/><path d="M156.26,17.62a3.55,3.55,0,0,1-.78,2.43,2.77,2.77,0,0,1-2.18.88,2.8,2.8,0,0,1-2.2-.87,3.6,3.6,0,0,1-.77-2.45,3.51,3.51,0,0,1,.78-2.44,2.78,2.78,0,0,1,2.2-.87,2.73,2.73,0,0,1,2.17.88A3.56,3.56,0,0,1,156.26,17.62Zm-5.14,0a3.05,3.05,0,0,0,.56,2,2.27,2.27,0,0,0,3.24,0,3.12,3.12,0,0,0,.54-2,3.12,3.12,0,0,0-.54-2,2,2,0,0,0-1.61-.67,2,2,0,0,0-1.63.68A3,3,0,0,0,151.12,17.62Z"/><path d="M164,17.62a3.55,3.55,0,0,1-.78,2.43,2.75,2.75,0,0,1-2.17.88,2.8,2.8,0,0,1-2.2-.87,3.55,3.55,0,0,1-.77-2.45,3.5,3.5,0,0,1,.77-2.44A2.8,2.8,0,0,1,161,14.3a2.73,2.73,0,0,1,2.16.88A3.56,3.56,0,0,1,164,17.62Zm-5.13,0a3.05,3.05,0,0,0,.56,2,2,2,0,0,0,1.62.68,2,2,0,0,0,1.61-.68,3.05,3.05,0,0,0,.55-2,3.12,3.12,0,0,0-.54-2,2.28,2.28,0,0,0-3.24,0A3,3,0,0,0,158.83,17.62Z"/><path d="M170.73,20.85h-.88l-2.35-3.13-.67.6v2.53h-.75V14.4h.75v3.2l2.92-3.2h.88L168,17.2Z"/><path d="M178.07,15a2.1,2.1,0,0,0-1.67.71,2.83,2.83,0,0,0-.62,1.93,2.94,2.94,0,0,0,.59,2,2.12,2.12,0,0,0,1.69.69A5.8,5.8,0,0,0,179.6,20v.65a4.7,4.7,0,0,1-1.65.25,2.79,2.79,0,0,1-2.2-.86,3.58,3.58,0,0,1-.77-2.45,3.86,3.86,0,0,1,.37-1.75,2.67,2.67,0,0,1,1.08-1.15,3.23,3.23,0,0,1,1.65-.41,3.91,3.91,0,0,1,1.77.37l-.31.64A3.43,3.43,0,0,0,178.07,15Z"/><path d="M187.28,17.62a3.5,3.5,0,0,1-.79,2.43,2.73,2.73,0,0,1-2.17.88,2.8,2.8,0,0,1-2.2-.87,3.6,3.6,0,0,1-.77-2.45,3.55,3.55,0,0,1,.77-2.44,2.82,2.82,0,0,1,2.21-.87,2.75,2.75,0,0,1,2.17.88A3.56,3.56,0,0,1,187.28,17.62Zm-5.14,0a3.05,3.05,0,0,0,.56,2,2.27,2.27,0,0,0,3.24,0,3.12,3.12,0,0,0,.54-2,3.12,3.12,0,0,0-.54-2,2.28,2.28,0,0,0-3.24,0A3,3,0,0,0,182.14,17.62Z"/><path d="M194.25,14.4v4.17a2.27,2.27,0,0,1-.66,1.73,2.54,2.54,0,0,1-1.83.63,2.44,2.44,0,0,1-1.8-.63,2.38,2.38,0,0,1-.64-1.75V14.4h.75v4.21a1.65,1.65,0,0,0,.44,1.23,1.79,1.79,0,0,0,1.3.44,1.7,1.7,0,0,0,1.25-.44,1.64,1.64,0,0,0,.45-1.24V14.4Z"/><path d="m201.67 20.85h-.86l-3.52-5.41c0 .63.07 1.21.07 1.74v3.67h-.69v-6.45h.84l3.49 5.39c0-.08 0-.34 0-.77s0-.74 0-.92v-3.7h.7"/><path d="m206.1 20.85h-.75v-5.78h-2v-.67h4.83v.67h-2"/><path d="m211.43 17.62l1.71-3.22h.86l-2.16 4v2.5h-.75v-2.52l-2.15-4h.82"/><path d="m113.25 30.4h4.09l5.08 15.2 1.25.23v1.49h-7.15v-1.49l1.61-.23-.77-2.72h-5.42l-.77 2.74 1.77.21v1.49h-6v-1.49l1.31-.25m6.68-11.24l-.34-1.58-.36 1.61-1.84 6.76h4.49"/><path d="M128.1,47.37c-.7-.14-1.44-.32-2.21-.55a6.05,6.05,0,0,0-1.09-.25l.21-4.24h2.11l.56,2.91a2.14,2.14,0,0,0,.92.52,5.07,5.07,0,0,0,1.6.22,3.08,3.08,0,0,0,2.08-.61,2.14,2.14,0,0,0,.69-1.68,2,2,0,0,0-.44-1.3,4.58,4.58,0,0,0-1.23-1,21.84,21.84,0,0,0-2.14-1.08,10,10,0,0,1-3-2.08,4.5,4.5,0,0,1-1.24-3.32,4.21,4.21,0,0,1,.66-2.31,4.54,4.54,0,0,1,2-1.68,7.64,7.64,0,0,1,3.33-.64,11.81,11.81,0,0,1,2.1.16c.6.11,1.24.25,1.92.43a4.2,4.2,0,0,0,.84.21l-.14,4h-2.06L133,32.3a1.46,1.46,0,0,0-.71-.37,4,4,0,0,0-1.24-.17,2.65,2.65,0,0,0-1.87.59,2,2,0,0,0-.62,1.52,2.14,2.14,0,0,0,.52,1.43,4.7,4.7,0,0,0,1.26,1c.49.28,1.24.67,2.26,1.17a17.09,17.09,0,0,1,2.09,1.19,5.68,5.68,0,0,1,1.54,1.55,4,4,0,0,1,.63,2.23,5.14,5.14,0,0,1-.6,2.4,4.7,4.7,0,0,1-2.05,1.93,8.08,8.08,0,0,1-3.82.77A12.71,12.71,0,0,1,128.1,47.37Z"/><path d="M142.15,47.37c-.71-.14-1.44-.32-2.22-.55a6.05,6.05,0,0,0-1.09-.25l.21-4.24h2.11l.57,2.91a2.07,2.07,0,0,0,.92.52,5,5,0,0,0,1.6.22,3,3,0,0,0,2.07-.61,2.14,2.14,0,0,0,.69-1.68,2,2,0,0,0-.44-1.3,4.37,4.37,0,0,0-1.22-1,23.43,23.43,0,0,0-2.15-1.08,10.24,10.24,0,0,1-3-2.08,4.54,4.54,0,0,1-1.23-3.32,4.2,4.2,0,0,1,.65-2.31,4.6,4.6,0,0,1,2-1.68,7.65,7.65,0,0,1,3.34-.64,11.61,11.61,0,0,1,2.09.16c.6.11,1.24.25,1.92.43a4.2,4.2,0,0,0,.84.21l-.14,4h-2.06l-.52-2.79a1.56,1.56,0,0,0-.72-.37,4,4,0,0,0-1.23-.17,2.64,2.64,0,0,0-1.87.59,2,2,0,0,0-.63,1.52,2.14,2.14,0,0,0,.52,1.43,4.7,4.7,0,0,0,1.26,1c.49.28,1.25.67,2.26,1.17a18.07,18.07,0,0,1,2.1,1.19,5.51,5.51,0,0,1,1.53,1.55,4,4,0,0,1,.64,2.23,5.15,5.15,0,0,1-.61,2.4,4.65,4.65,0,0,1-2.05,1.93,8.06,8.06,0,0,1-3.81.77A12.63,12.63,0,0,1,142.15,47.37Z"/><path d="m154.18 32.37l-1.77-.32v-1.58h12.41l.3 4h-1.79l-.8-2.29-4.47-.18v5.9l2.77-.07.41-1.86h1.56v5.7h-1.56l-.39-2-2.79-.06v6.17l5-.32 1.39-2.93 1.92.55-.54 4.26h-13.39v-1.51l1.74-.23"/><path d="M171.32,47.37c-.7-.14-1.44-.32-2.21-.55a6.05,6.05,0,0,0-1.09-.25l.21-4.24h2.11l.56,2.91a2.2,2.2,0,0,0,.92.52,5.07,5.07,0,0,0,1.6.22,3.06,3.06,0,0,0,2.08-.61,2.14,2.14,0,0,0,.69-1.68,2,2,0,0,0-.44-1.3,4.58,4.58,0,0,0-1.23-1,21.84,21.84,0,0,0-2.14-1.08,10,10,0,0,1-3-2.08,4.55,4.55,0,0,1-1.24-3.32,4.21,4.21,0,0,1,.66-2.31,4.54,4.54,0,0,1,2-1.68,7.64,7.64,0,0,1,3.33-.64,11.81,11.81,0,0,1,2.1.16c.6.11,1.24.25,1.92.43a4.2,4.2,0,0,0,.84.21l-.14,4h-2.06l-.52-2.79a1.56,1.56,0,0,0-.72-.37,4,4,0,0,0-1.24-.17,2.65,2.65,0,0,0-1.87.59,2,2,0,0,0-.62,1.52,2.14,2.14,0,0,0,.52,1.43,4.7,4.7,0,0,0,1.26,1c.49.28,1.24.67,2.26,1.17a18.07,18.07,0,0,1,2.1,1.19,5.79,5.79,0,0,1,1.53,1.55,4,4,0,0,1,.63,2.23,5.14,5.14,0,0,1-.6,2.4,4.65,4.65,0,0,1-2.05,1.93,8.06,8.06,0,0,1-3.81.77A12.74,12.74,0,0,1,171.32,47.37Z"/><path d="M185.82,47.37c-.7-.14-1.44-.32-2.21-.55a6.05,6.05,0,0,0-1.09-.25l.2-4.24h2.12l.56,2.91a2.14,2.14,0,0,0,.92.52,5.07,5.07,0,0,0,1.6.22,3.08,3.08,0,0,0,2.08-.61,2.14,2.14,0,0,0,.69-1.68,2,2,0,0,0-.44-1.3,4.58,4.58,0,0,0-1.23-1,23.05,23.05,0,0,0-2.14-1.08,10,10,0,0,1-3-2.08,4.5,4.5,0,0,1-1.24-3.32,4.21,4.21,0,0,1,.66-2.31,4.54,4.54,0,0,1,2-1.68,7.64,7.64,0,0,1,3.33-.64,11.81,11.81,0,0,1,2.1.16c.6.11,1.24.25,1.92.43a4.2,4.2,0,0,0,.84.21l-.14,4h-2.06l-.53-2.79a1.46,1.46,0,0,0-.71-.37,4,4,0,0,0-1.24-.17,2.65,2.65,0,0,0-1.87.59,2,2,0,0,0-.62,1.52,2.14,2.14,0,0,0,.52,1.43,4.7,4.7,0,0,0,1.26,1c.49.28,1.24.67,2.26,1.17a17.09,17.09,0,0,1,2.09,1.19A5.68,5.68,0,0,1,194,40.24a4,4,0,0,1,.63,2.23,5.14,5.14,0,0,1-.6,2.4,4.7,4.7,0,0,1-2.05,1.93,8.08,8.08,0,0,1-3.82.77A12.71,12.71,0,0,1,185.82,47.37Z"/><path d="M197.79,45.27A9.89,9.89,0,0,1,196,38.93a10.12,10.12,0,0,1,1-4.57,7.08,7.08,0,0,1,2.71-3,7.66,7.66,0,0,1,4.08-1.07q3.9,0,5.75,2.17a9.2,9.2,0,0,1,1.85,6.18,10.74,10.74,0,0,1-1,4.69,7.44,7.44,0,0,1-2.76,3.15,7.6,7.6,0,0,1-4.14,1.12Q199.63,47.57,197.79,45.27Zm3.32-11.72a12.55,12.55,0,0,0-.89,5.35,12.5,12.5,0,0,0,.88,5.39,2.74,2.74,0,0,0,2.52,1.76,2.78,2.78,0,0,0,2.51-1.91,13.4,13.4,0,0,0,.89-5.51,11.76,11.76,0,0,0-.86-5.25,2.71,2.71,0,0,0-2.52-1.62A2.78,2.78,0,0,0,201.11,33.55Z"/><path d="M212.92,45.83l1.75-.23V32.35L213,32V30.47h3.5l.94,0,.78,0c.82-.06,1.51-.09,2.09-.09a12.94,12.94,0,0,1,3.86.46,3.78,3.78,0,0,1,2.07,1.45,4.7,4.7,0,0,1,.65,2.6,5.37,5.37,0,0,1-.82,2.88,4.11,4.11,0,0,1-2.4,1.84A3.72,3.72,0,0,1,225.44,41a20.41,20.41,0,0,1,1.48,2.69c.3.64.55,1.11.73,1.42a1,1,0,0,0,.57.53l.65.21v1.49h-4.31c-.22,0-.46-.24-.7-.72s-.55-1.24-.93-2.27a30.08,30.08,0,0,0-1.22-2.92,2.33,2.33,0,0,0-1.12-1.26h-2V45.6l2,.23v1.49h-7.65Zm9.21-8.07a4.77,4.77,0,0,0,.66-2.78,3.63,3.63,0,0,0-.64-2.39,2.72,2.72,0,0,0-2.17-.76,7.63,7.63,0,0,0-1.43.11v6.67a4.54,4.54,0,0,0,1,.07h.77A2.12,2.12,0,0,0,222.13,37.76Z"/><path d="M231.19,37.77v-.39a4.13,4.13,0,0,0,.64-1,9.29,9.29,0,0,0,.64-1.77,8.14,8.14,0,0,0,.26-2,1,1,0,0,0-.15-.57,5,5,0,0,0-.46-.57,3.47,3.47,0,0,1-.63-.76,2,2,0,0,1-.21-1,1.64,1.64,0,0,1,.51-1.23,1.74,1.74,0,0,1,1.26-.5,2.07,2.07,0,0,1,1.35.5,3.37,3.37,0,0,1,.94,1.33,4.62,4.62,0,0,1,.34,1.8,8.16,8.16,0,0,1-.57,3,9.37,9.37,0,0,1-1.4,2.46,5.64,5.64,0,0,1-1.61,1.43Z"/><path d="M242.09,47.37c-.7-.14-1.44-.32-2.21-.55a6.25,6.25,0,0,0-1.09-.25l.2-4.24h2.11l.57,2.91a2.14,2.14,0,0,0,.92.52,5,5,0,0,0,1.6.22,3,3,0,0,0,2.07-.61,2.11,2.11,0,0,0,.7-1.68,2,2,0,0,0-.45-1.3,4.37,4.37,0,0,0-1.22-1,22.19,22.19,0,0,0-2.15-1.08,10.07,10.07,0,0,1-3-2.08,4.5,4.5,0,0,1-1.24-3.32,4.21,4.21,0,0,1,.66-2.31,4.51,4.51,0,0,1,2-1.68,7.68,7.68,0,0,1,3.34-.64,11.81,11.81,0,0,1,2.1.16c.59.11,1.23.25,1.91.43a4.56,4.56,0,0,0,.84.21l-.13,4h-2.07L247,32.3a1.51,1.51,0,0,0-.71-.37,4,4,0,0,0-1.24-.17,2.64,2.64,0,0,0-1.87.59,2,2,0,0,0-.63,1.52,2.15,2.15,0,0,0,.53,1.43,4.5,4.5,0,0,0,1.25,1c.5.28,1.25.67,2.26,1.17a18.07,18.07,0,0,1,2.1,1.19,5.51,5.51,0,0,1,1.53,1.55,3.89,3.89,0,0,1,.64,2.23,5.14,5.14,0,0,1-.6,2.4,4.68,4.68,0,0,1-2.06,1.93,8,8,0,0,1-3.81.77A12.63,12.63,0,0,1,242.09,47.37Z"/><path d="M137.28,67.7a9.89,9.89,0,0,1-1.84-6.34,10.19,10.19,0,0,1,1-4.58,7.11,7.11,0,0,1,2.71-3,7.57,7.57,0,0,1,4.08-1.07q3.9,0,5.75,2.17A9.2,9.2,0,0,1,150.8,61a10.67,10.67,0,0,1-1,4.68,7.41,7.41,0,0,1-2.76,3.16A7.6,7.6,0,0,1,142.93,70C140.39,70,138.5,69.23,137.28,67.7ZM140.6,56a12.52,12.52,0,0,0-.89,5.35,12.53,12.53,0,0,0,.88,5.39,2.64,2.64,0,0,0,5-.16,13.32,13.32,0,0,0,.89-5.5,11.76,11.76,0,0,0-.86-5.25,2.71,2.71,0,0,0-2.52-1.62A2.76,2.76,0,0,0,140.6,56Z"/><path d="m154.16 54.8l-1.82-.32v-1.59h12.76l.24 4.25h-2l-.9-2.48-4.44-.27v6.29l3-.07.46-2h1.58v6.06h-1.56l-.48-2.16-3-.09v5.58l3.47.25v1.5h-9v-1.5l1.7-.25"/><path d="M169.45,54.8l-1.81-.32V52.89h12.75l.25,4.25h-2l-.9-2.48-4.36-.27v6.29l3-.07.46-2h1.59v6.06h-1.57l-.48-2.11-3-.09V68l3.47.25v1.5h-9.05v-1.5l1.7-.25Z"/><path d="M185,54.8l-1.86-.32V52.89h7.65v1.59l-1.91.32V68l1.91.25v1.47h-7.62v-1.5L185,68Z"/><path d="M194.54,67.72a9,9,0,0,1-2-6.25,9.61,9.61,0,0,1,1.09-4.66,7.51,7.51,0,0,1,3-3,8.66,8.66,0,0,1,4.31-1.06,17.88,17.88,0,0,1,1.83.1l2.14.29c.65.1,1.09.16,1.34.18l-.28,5.06h-2.42l-.78-3.47a2.82,2.82,0,0,0-2.08-.55,3.07,3.07,0,0,0-2.76,1.74,10.33,10.33,0,0,0-1,5.09,11.73,11.73,0,0,0,1,5.24,3.1,3.1,0,0,0,2.87,2,4,4,0,0,0,1.42-.19,2.29,2.29,0,0,0,.83-.52l1-2.42,2.22.2-.41,3.7a7.05,7.05,0,0,0-1.61.34c-.61.16-1.18.29-1.71.38a11.24,11.24,0,0,1-2,.14A7.62,7.62,0,0,1,194.54,67.72Z"/><path d="m210.13 54.8l-1.77-.32v-1.59h12.41l.3 4h-1.79l-.8-2.29-4.48-.21v5.9l2.77-.07.41-1.86h1.56v5.7h-1.56l-.39-2-2.79-.06v6.17l5-.31 1.39-2.93 1.92.55-.54 4.26h-13.39v-1.5l1.75-.22"/></g></svg>