<svg xmlns="http://www.w3.org/2000/svg" viewBox="0 0 340 160" enable-background="new 0 0 340 160"><path d="m282.25 56.55c2.754-1.449 7.01-3.06 9.885-3.793 2.798-.712 3.474-.868 6.459-1.333 2.981-.45 8.17-.927 12.611-.927.888 0 1.787.008 2.682.028 9.05.279 18.474 2.372 26.09 5.763v-1.652c-8.914-4.282-20.256-6.841-32.3-7.199-1.035-.024-2.065-.04-3.084-.04-2.985 0-5.906.127-8.72.378 0 0-4.545.458-7.227.947-2.682.478-5.385 1.071-7.816 1.783-1.703.537-3.263 1.039-5.48 1.982-1.847.768-3.621 1.576-5.432 2.643-4.756 2.925-7.617 6.495-7.792 10.423 0 .123-.008.251-.008.374 0 2.563 1.09 5.062 3.291 7.442 6.726 7.354 22.632 12.44 40.509 12.97 1.118.032 2.241.056 3.351.056 11.967 0 22.963-1.938 30.711-5.408v-1.695c-.032.012-.056.016-.099.032-7.299 2.746-16.651 4.33-25.394 4.33-.7 0-1.405-.016-2.097-.036-15.469-.462-29.21-4.843-34.997-11.151-1.839-2.01-2.766-4.099-2.766-6.216 0-.111 0-.211.016-.322.052-1.262.358-2.547 1.142-3.669.792-1.114 1.369-1.894 2.71-3.128 1.066-.975 1.564-1.448 3.753-2.582"/><path d="m288.29 42.587c-1.827.637-3.65 1.683-3.928 1.878-2.344 1.596-3.701 3.586-4.04 5.902-.056.37-.084.744-.084 1.13 0 8.855 14.43 19.473 33.22 24.16 5.289 1.321 10.841 2.01 16.1 2.01 3.299 0 6.463-.267 9.388-.812l.275-.044c.302-.06.545-.103.752-.127v1.52c-.127.04-.243.088-.406.135-3.45.963-7.542 1.441-12.03 1.441-6.228 0-13.216-.907-20.388-2.706-21.765-5.428-38.503-17.845-38.503-28.23.016-.442.036-.883.108-1.321.398-2.802 2.037-5.178 4.843-7.092 2.213-1.512 5.07-2.643 8.397-3.391 0 0 2.643-.601 4.895-.84 2.252-.235 4.951-.247 4.951-.247.394-.012.792-.032 1.206-.032 6.069 0 12.819.856 19.711 2.575 10.212 2.543 19.695 6.833 27.22 12.226v2.026c-4.624-3.188-12.17-7.514-21.832-9.917-5.981-1.496-11.828-2.233-17.08-2.233-3.064 0-5.902.267-8.461.76-.001 0-2.485.589-4.319 1.226"/><path d="m320.92 30.899c-9.707-5.683-19.449-8.799-26.811-8.799-2.563 0-4.847.37-6.733 1.154-2.83 1.166-4.62 3.052-5.388 5.854-.239.891-.358 1.843-.358 2.837.008 1.421.346 3.188.748 4.521.577 1.922 1.421 4.067 3.606 7.625 3.813 6.26 14 16.456 24.965 22.883 9.913 5.806 19.449 8.879 27.579 8.879h.171c.557-.012.971-.028 1.281-.036v-1.417l-1.612-.056c-6.841-.493-14.772-3.12-21.773-7.231-12.07-7.07-21.395-17.03-24.34-25.16-.442-1.313-.784-2.627-.907-3.701-.06-.438-.199-2.177.227-3.653.649-2.229 2.109-3.872 4.449-4.839 1.604-.665 3.542-.979 5.719-.979 6.34 0 14.749 2.698 23.14 7.613 5.353 3.136 10.558 7.434 15.1 12.377v-2.535c-5.334-5.83-11.893-11.131-19.06-15.338"/><path d="m109.47 128.27c-3.602 0-3.673-1.596-3.673-3.295v-15.636c0-1.608 1.397-2.901 3.307-2.977v-1.397h-13.977v1.397c1.926.076 3.315 1.369 3.315 2.977v16.822c0 2.161-.991 3.01-3.311 3.1v1.405h22.35l1.146-9.555h-1.922c0 0-1.178 7.159-7.235 7.159"/><path d="m133.8 130.66v-1.401c-2.32-.092-3.311-.943-3.311-3.1v-16.826c0-1.608 1.393-2.897 3.311-2.977v-1.397h-14.13v1.397c1.918.08 3.311 1.369 3.311 2.977v16.826c0 2.157-.995 3.01-3.311 3.1v1.401h14.13"/><path d="m148.48 129c2.133 0 5.965-1.449 5.965-11.41 0-6.825-2.431-10.793-6.125-10.793-4.346 0-6.248 4.891-6.248 10.801.001 9.949 4.227 11.402 6.408 11.402m-14.717-11.05c.008-8.198 6.324-13.63 14.995-13.626 8.672 0 14.01 6.05 14.01 13.467 0 9.336-7.872 13.817-14.717 13.817-3.843 0-14.306-2.809-14.29-13.658"/><path d="m172.79 104.96l14.418 15.425v-11.05c0-1.604-1.393-2.897-3.315-2.973v-1.401h9.591v1.401c-1.922.076-3.311 1.369-3.311 2.973v21.355h-3.864c-1.015 0-1.771-1.019-2.758-2.133l-14.486-15.752-.004 13.356c0 2.157.991 3.01 3.311 3.1v1.409h-9.492v-1.409c2.32-.088 3.315-.943 3.315-3.1v-16.297c0-2.794-1.727-3.438-3.064-3.502v-1.401h9.659z"/><path d="m93.09 130.66v-1.401c-2.316-.096-3.311-.943-3.311-3.104v-16.83c0-1.6 1.393-2.893 3.311-2.969v-1.405h-14.13v1.405c1.922.076 3.315 1.369 3.315 2.969v16.83c0 2.161-.995 3.01-3.315 3.104v1.401h14.13"/><path d="m38.965 130.66v-1.405c2.42 0 2.957-1.043 2.332-2.921l-.991-2.849h-8.03c-1.457 3.538-6.129 8.616-14.16 8.616l-.123.016c-9.459-.005-17.952-6.428-17.992-18.498-.024-8.05 4.66-17.877 19.743-17.845 6.097.004 11.648 2.101 11.648 2.101v8.497h-3c-.147-.501-.318-7.474-8.305-7.474-6.487 0-9.703 5.985-9.75 14.339-.044 8.767 3.824 14.685 10.407 14.645 2.678-.024 6.746-1.847 9.209-6.785 0 0 4.051-8.05 7.124-16.13l4.497-.004c1.902 4.481 6.614 17.06 8.06 20.873.752 2.034 1.373 3.01 2.842 3.01 1.126-.048 1.655-1.321 1.663-1.855.004-.513.008-17.479.008-17.479 0-2.643-1.719-3.02-3.176-3.08v-1.472h.008 16.615c3.486 0 7.796.458 7.796 6.264 0 4.796-4.175 5.898-5.898 6.344v.04c1.926 1.345 4.589 7.255 10.415 15.549.605.688 2.026 3.506 5.205 3.196v1.552l-9.117-.004c-3.299 0-4.179-3.084-5.707-5.79-2.638-4.656-5.472-11.11-8.333-15.732 0 0 1.126.155 1.707-.012 2.826-.808 3.598-2.834 3.598-4.903 0-2.873-1.747-4.394-3.725-4.394h-1.783v19.5c0 1.695 1.102 2.623 3.116 2.702v1.393l-25.896-.004m.537-9.579l-2.806-7.967-3.299 7.967h6.105"/><path d="m228.78 120.72l-1.21 6.861c-.239 1.035-1.11 1.281-2.71 1.874-1.365.442-5.241 1.819-9.161 1.815-12.04.012-18.975-6.451-18.987-17.928-.004-7.553 3.968-17.562 19.775-17.578 4.314-.004 6.551.88 8.93 1.663 1.353.442 1.882 1.126 1.89 1.91v6.324l-1.5.004c-1.751-3.578-4.278-7.939-9.08-7.939-5.818.004-9.448 6.387-9.487 15.214-.048 8.974 2.531 16.384 9.277 16.368 4.218.004 8.242-3.546 10.761-8.588h1.504"/><path d="m340 123.15l-.915 5.217c-.187.784-.852.971-2.069 1.421-1.023.334-3.98 1.385-6.977 1.389-9.141.004-14.418-4.911-14.422-13.646-.012-5.743 3.01-13.36 15.04-13.368 3.283 0 4.979.673 6.79 1.27 1.035.33 1.441.852 1.445 1.445v4.815h-1.146c-1.329-2.714-3.255-6.05-6.901-6.03-4.433 0-7.191 4.847-7.223 11.569-.032 6.825 1.934 12.456 7.05 12.456 3.212-.012 6.268-2.702 8.186-6.539h1.145"/><path d="m243.81 128.26c-3.606.004-3.681-1.584-3.681-3.287l-.012-15.64c0-1.604 1.385-2.897 3.307-2.981l-.008-1.397-13.973.012.004 1.397c1.918.076 3.311 1.369 3.311 2.969l.016 16.834c0 2.149-.991 3.01-3.303 3.096v1.409l22.346-.016 1.142-9.559-1.926.004c0 0-1.17 7.155-7.223 7.159"/><path d="m315.92 130.6l-.004-1.409c-2.324-.092-3.311-.939-3.319-3.096l-.008-16.83c-.004-1.608 1.389-2.901 3.315-2.973l-.008-1.405-14.13.016.008 1.401c1.918.068 3.311 1.365 3.315 2.961l.012 16.842c0 2.145-.991 2.997-3.315 3.1v1.397l14.14-.004"/><path d="m267.92 130.64l-.004-1.405c-2.316-.092-3.307-.943-3.315-3.092l-.008-16.83c-.004-1.608 1.385-2.897 3.299-2.977l.008-1.405-14.13.008.008 1.409c1.918.072 3.307 1.369 3.307 2.969l.016 16.826c.004 2.157-.999 3.01-3.307 3.104l-.004 1.409 14.13-.016"/><path d="m279.71 104.92l14.422 15.413-.012-11.05c0-1.596-1.393-2.893-3.311-2.969v-1.401l9.587-.008v1.401c-1.918.076-3.315 1.373-3.311 2.973l.02 21.355-3.86.004c-1.015.004-1.775-1.019-2.766-2.129l-14.49-15.744.004 13.364c.004 2.157.991 3 3.311 3.096v1.405l-9.487.008-.004-1.405c2.32-.095 3.319-.947 3.311-3.1l-.016-16.305c.004-2.798-1.719-3.434-3.064-3.498v-1.405l9.666-.007"/></svg>
