<svg xmlns="http://www.w3.org/2000/svg" viewBox="0 0 340 160" enable-background="new 0 0 340 160"><g transform="translate(-214.79-504.81)"><path d="M5.301-7.636h7.379V-9.15H9.966v-7.599H8.013v7.599H5.301V-7.636z" transform="matrix(3.73071 0 0-3.73071 331.37 529.48)"/><path d="m5.376-7.646h2.413c.854-.013 1.359-.351 1.359-1.153 0-.804-.505-1.232-1.359-1.243h-2.413v2.396m0-3.981h2.064c0 0 1.28-2.807 1.444-3.617h2.406l-1.848 3.747c1.303.336 1.64 1.89 1.64 3.069 0 1.849-2.063 2.354-3.792 2.296h-3.869v-9.113h1.955c0 0 0 3.618 0 3.618" transform="matrix(3.73071 0 0-3.73071 372.94 535.09)"/><path d="m5.431-7.636h6.536v-1.514h-4.581v-2.142h4.214v-1.514h-4.214v-2.428h4.717v-1.514h-6.672v9.112" transform="matrix(3.73071 0 0-3.73071 403.84 529.48)"/><path d="m5.528-7.697l-3.346 6.06-.027-.025v-6.03h-1.828v9.113h2.423l3.327-5.955.025.024v5.931h1.828v-9.113h-2.402z" transform="matrix(3.73071 0 0-3.73071 457.69 563.25)"/><path d="m5.576-7.646h1.01c2.32.024 2.662-1.52 2.662-2.971 0-1.453-.341-3.069-2.662-3.043h-1.01v6.01m-1.955-7.529h3.103c2.84-.025 4.607 1.387 4.607 4.557 0 3.167-1.767 4.581-4.607 4.555h-3.103c0 .001 0-9.112 0-9.112" transform="matrix(3.73071 0 0-3.73071 484.36 535.35)"/><path d="m5.342-7.746h-.946v3.984l-.995-3.984h-.982l-.996 3.983-.015-3.983h-.946v5.058h1.526l.91-3.446.912 3.445h1.531v-5.057" transform="matrix(3.73071 0 0-3.73071 354 591)"/><path d="m402.68 619.9h-3.801v-18.869h3.801v18.869"/><path d="m5.527-7.725c-.064-.137-.172-.23-.326-.283-.082-.029-.178-.044-.291-.049-.117-.01-.288-.013-.508-.013h-.12-.755v1.284h.798c.366 0 .602-.004.706-.013.107-.009.205-.042.295-.099.097-.057.162-.127.201-.212.04-.09.06-.191.06-.303 0-.118-.02-.222-.06-.312m.089-1.16l.315.094c.246.098.437.28.569.501.139.227.172.617.172.899 0 .269-.099.559-.229.789-.151.264-.36.445-.628.544-.127.044-.245.071-.354.086-.194.027-.463.041-.806.041h-2.147v-5.058h1.019v1.993l.971.011 1.078-2h1.223c0 .001-1.183 2.104-1.183 2.104z" transform="matrix(3.73071 0 0-3.73071 457.04 578.91)"/><path d="m5.594-7.739c-.24-.216-.539-.325-.897-.325-.286 0-.533.068-.74.205-.165.108-.3.251-.405.43-.078.137-.135.276-.173.418-.053.191-.079.42-.079.683 0 .472.091.856.268 1.153.236.389.613.585 1.129.585.547 0 .935-.215 1.167-.649.15-.282.227-.639.227-1.074 0-.65-.165-1.126-.497-1.426m.944 3.27c-.436.505-1.051.756-1.846.756-.781 0-1.385-.237-1.809-.707-.424-.471-.636-1.116-.636-1.935 0-.698.172-1.272.517-1.731.426-.569 1.075-.854 1.941-.854.831 0 1.459.269 1.887.804.367.462.553 1.063.553 1.801 0 .774-.204 1.396-.607 1.866" transform="matrix(3.73071 0 0-3.73071 494.54 586.87)"/><path d="m5.459-7.724c-.083.301-.245.868-1.112.868-.504 0-1.244-.336-1.244-1.758 0-.904.355-1.714 1.244-1.714.581 0 .986.329 1.111.944h1.049c-.208-1.091-.922-1.849-2.181-1.849-1.336 0-2.293.897-2.293 2.633 0 1.759 1.013 2.65 2.306 2.65 1.503 0 2.113-1.031 2.167-1.773h-1.047" transform="matrix(3.73071 0 0-3.73071 419.22 578.41)"/><path d="m5.617-7.7h-.545v-1.449h-.217v1.449h-.541v.195h1.303v-.195" transform="matrix(3.73071 0 0-3.73071 507.16 565.39)"/><path d="m5.629-7.71h-.206v1.376l-.479-1.376h-.195l-.47 1.399-.006-1.399h-.209v1.644h.328l.387-1.164.043-.136.029-.108.095.264.394 1.144h.289v-1.644" transform="matrix(3.73071 0 0-3.73071 513.79 570.76)"/><path d="m5.109-7.701l.018.046.054.145.052.131.023.06c.253.623.571 1.264.956 1.914.05.108.103.213.155.32l-1.622-.004.394.87c1.341.365 3.575 1.112 5.707 3.18l.063.004h1.122l-1.451-3.11 2.332.007-.428-.926-2.328-.008c0 0-1.092-2.183-1.463-3.744-.287-1.743-.005-3.043 1.556-3.531.964-.299 2.167-.231 3.464.137 3.02.939 6.243 3.01 8.602 5.759 3.885 4.513 3.96 9.131.172 10.31-2.431.755-5.859-.085-9.03-1.975 3.955 2.551 8.304 3.749 11.305 2.815.563-.175 1.05-.417 1.465-.715-2.48 2.733-6.06 4.449-10.04 4.449-7.48 0-13.546-6.07-13.546-13.546 0-2.762.829-5.331 2.247-7.473-.536 1.323-.46 3.02.222 4.885" transform="matrix(3.73071 0 0-3.73071 224.94 565.73)"/><path d="m5.26-7.636c.906-2.461-.228-6.135-3.356-9.771-4.697-5.462-12.12-8.765-16.571-7.379-.553.172-1.033.409-1.443.702 2.471-2.638 5.985-4.285 9.884-4.285 7.483 0 13.548 6.06 13.548 13.546-.001 2.642-.759 5.104-2.062 7.187" transform="matrix(3.73071 0 0-3.73071 308.56 529.51)"/></g></svg>
