<svg xmlns="http://www.w3.org/2000/svg" viewBox="0 0 342 90" enable-background="new 0 0 342 90"><path d="m143.8 37.536v-20.8h13.568v4.608h-8.06v3.968h6.912v4.607h-6.912v7.616h-5.504z"/><path d="m162.25 37.536v-20.8h5.504v20.8h-5.504"/><path d="m173.79 37.536v-20.8h5.632l4.608 9.28 1.983 4.672h.128c-.063-.555-.139-1.163-.224-1.824s-.16-1.339-.224-2.032c-.064-.692-.123-1.386-.176-2.08-.054-.692-.08-1.359-.08-2v-6.02h5.248v20.8h-5.633l-4.607-9.312-1.984-4.641h-.128c.128 1.195.277 2.496.448 3.904.17 1.408.256 2.752.256 4.03v6.02h-5.247"/><path d="m194.5 37.536l6.336-20.8h6.656l6.336 20.8h-5.824l-1.023-4.416h-5.824l-1.024 4.416h-5.633m8-10.112l-.352 1.439h3.84l-.353-1.439c-.256-1-.512-2.091-.768-3.265-.256-1.173-.512-2.282-.769-3.328h-.128c-.234 1.067-.475 2.182-.72 3.345s-.494 2.245-.75 3.248"/><path d="m217.66 37.536v-20.8h5.632l4.607 9.28 1.984 4.672h.128c-.064-.555-.139-1.163-.224-1.824-.086-.661-.16-1.339-.225-2.032-.063-.692-.123-1.386-.176-2.08-.054-.692-.08-1.359-.08-2v-6.02h5.248v20.8h-5.632l-4.608-9.312-1.983-4.641h-.128c.128 1.195.276 2.496.447 3.904s.256 2.752.256 4.03v6.02h-5.246"/><path d="m249.54 37.92c-1.323 0-2.587-.219-3.792-.655-1.206-.438-2.262-1.099-3.168-1.984-.907-.885-1.627-1.994-2.16-3.328-.534-1.333-.8-2.885-.8-4.656 0-1.748.276-3.301.832-4.655.554-1.354 1.296-2.496 2.224-3.424.928-.929 1.994-1.638 3.2-2.129 1.205-.49 2.469-.735 3.792-.735 1.386 0 2.624.271 3.712.815s2 1.189 2.752 1.937l-2.88 3.52c-.513-.447-1.04-.815-1.584-1.104s-1.168-.433-1.872-.433c-.619 0-1.2.14-1.744.416-.544.278-1.024.673-1.44 1.185s-.747 1.142-.991 1.888c-.246.747-.368 1.59-.368 2.528 0 1.963.41 3.467 1.231 4.512.821 1.046 1.904 1.568 3.248 1.568.811 0 1.53-.176 2.16-.528.629-.352 1.168-.772 1.616-1.264l2.88 3.456c-.896 1.023-1.926 1.792-3.088 2.304-1.163.51-2.416.766-3.76.766"/><path d="m260.64 37.536v-20.8h5.504v20.8h-5.504"/><path d="m269.97 37.536l6.336-20.8h6.655l6.336 20.8h-5.823l-1.024-4.416h-5.824l-1.023 4.416h-5.633m8-10.112l-.353 1.439h3.84l-.352-1.439c-.256-1-.512-2.091-.769-3.265-.256-1.173-.512-2.282-.768-3.328h-.128c-.235 1.067-.476 2.182-.72 3.345-.245 1.163-.495 2.245-.75 3.248"/><path d="m293.13 37.536v-20.8h5.504v16.192h7.872v4.607h-13.376z"/><path d="m143.8 71.54v-20.8h5.504v20.8h-5.504"/><path d="m155.35 71.54v-20.8h5.632l4.608 9.28 1.984 4.672h.128c-.064-.555-.139-1.163-.224-1.824-.085-.661-.16-1.339-.224-2.032-.064-.692-.123-1.386-.176-2.08-.054-.692-.08-1.359-.08-2v-6.02h5.248v20.8h-5.632l-4.608-9.312-1.984-4.641h-.128c.128 1.195.277 2.496.448 3.904.17 1.408.256 2.752.256 4.03v6.02h-5.248"/><path d="m184.73 71.92c-1.322 0-2.683-.239-4.08-.72-1.397-.479-2.661-1.231-3.792-2.256l3.137-3.776c.746.598 1.552 1.083 2.416 1.456.863.374 1.68.561 2.447.561.832 0 1.435-.128 1.809-.384.373-.257.56-.619.56-1.089 0-.256-.063-.469-.191-.64-.129-.17-.315-.33-.561-.479s-.539-.293-.88-.433c-.342-.139-.736-.293-1.184-.464l-2.593-1.088c-.555-.213-1.088-.496-1.6-.848-.512-.353-.96-.769-1.344-1.248-.385-.48-.688-1.029-.912-1.648-.225-.618-.336-1.301-.336-2.048 0-.896.192-1.733.577-2.512.384-.779.917-1.461 1.6-2.048s1.498-1.051 2.448-1.393c.949-.341 1.988-.512 3.12-.512 1.194 0 2.404.224 3.632.672 1.227.448 2.319 1.152 3.28 2.112l-2.753 3.456c-.703-.491-1.381-.864-2.031-1.12-.651-.256-1.36-.385-2.128-.385-.684 0-1.217.118-1.601.353-.384.235-.576.587-.576 1.056 0 .491.272.87.816 1.137s1.296.581 2.256.943l2.528.992c1.301.512 2.304 1.227 3.01 2.144.704.918 1.056 2.102 1.056 3.553 0 .875-.182 1.717-.544 2.527-.362.812-.891 1.521-1.584 2.128-.693.608-1.541 1.094-2.544 1.456-1 .364-2.155.545-3.456.545"/><path d="m201.78 71.54v-16.192h-5.504v-4.608h16.512v4.608h-5.504v16.191h-5.504z"/><path d="m217.13 71.54v-20.8h5.504v20.8h-5.504"/><path d="m232.49 71.54v-16.192h-5.504v-4.608h16.512v4.608h-5.504v16.191h-5.504z"/><path d="m256.42 71.92c-2.923 0-5.093-.848-6.512-2.544-1.419-1.695-2.128-4.324-2.128-7.888v-10.752h5.504v11.392c0 1.856.251 3.163.752 3.921.501.757 1.296 1.136 2.384 1.136 1.088 0 1.894-.379 2.416-1.136.522-.758.784-2.064.784-3.921v-11.392h5.312v10.752c0 3.563-.694 6.192-2.08 7.888-1.387 1.696-3.531 2.544-6.432 2.544"/><path d="m274.73 71.54v-16.192h-5.504v-4.608h16.512v4.608h-5.504v16.191h-5.504z"/><path d="m290.07 71.54v-20.8h5.504v20.8h-5.504"/><path d="m310.42 71.92c-1.451 0-2.768-.245-3.952-.735-1.184-.49-2.197-1.2-3.04-2.128-.843-.929-1.499-2.069-1.968-3.424-.47-1.354-.704-2.886-.704-4.593 0-1.706.234-3.227.704-4.56.469-1.333 1.125-2.453 1.968-3.36.843-.906 1.856-1.595 3.04-2.063 1.185-.47 2.501-.704 3.952-.704 1.429 0 2.741.234 3.936.704 1.195.469 2.214 1.163 3.057 2.08s1.498 2.037 1.968 3.359c.469 1.323.704 2.838.704 4.544 0 1.707-.235 3.238-.704 4.593-.47 1.354-1.125 2.495-1.968 3.424-.843.928-1.861 1.638-3.057 2.128-1.195.489-2.507.735-3.936.735m0-4.736c1.259 0 2.245-.549 2.96-1.648.715-1.099 1.072-2.597 1.072-4.496 0-1.898-.357-3.364-1.072-4.399s-1.701-1.553-2.96-1.553-2.245.518-2.96 1.553-1.072 2.501-1.072 4.399c0 1.899.357 3.397 1.072 4.496.715 1.099 1.701 1.648 2.96 1.648"/><path d="m325.2 71.54v-20.8h5.632l4.608 9.28 1.983 4.672h.128c-.063-.555-.139-1.163-.224-1.824s-.16-1.339-.224-2.032c-.064-.692-.123-1.386-.176-2.08-.054-.692-.08-1.359-.08-2v-6.02h5.248v20.8h-5.633l-4.607-9.312-1.984-4.641h-.128c.128 1.195.277 2.496.448 3.904.17 1.408.256 2.752.256 4.03v6.02h-5.247"/><path d="m124.64 55.29c-.283-4.225-4.32-7.876-12.02-10.874.033-.161.053-.326.053-.496v-12.03h-.024c-.217-3.537-3.427-6.567-9.581-9.03.001-.022.005-.044.005-.066v-9.628h-.023c-.495-8.538-21.413-12.434-40.877-12.434s-40.38 3.896-40.877 12.433h-.023v9.628c0 .024.005.046.006.07-6.151 2.462-9.365 5.491-9.582 9.03h-.024v12.03c0 .17.02.335.053.495-7.703 2.999-11.74 6.65-12.02 10.875h-.03v15.04c0 .331.064.647.182.938 2.629 11.704 33.34 17.998 62.32 17.998s59.689-6.294 62.32-17.998c.117-.29.182-.606.182-.938v-15.04h-.03m-107.97-15.986c2.762 1.745 6.533 3.223 11 4.422v6.532c-7.273-2.279-11-4.99-11-6.898v-4.056m15.999 5.591c3.429.7 7.13 1.266 11 1.692v6.929c-4.131-.502-7.803-1.154-11-1.902v-6.719m16 2.156c3.6.279 7.293.446 11 .498v7c-3.93-.055-7.595-.238-11-.523v-6.975m16 .498c3.707-.051 7.4-.219 11-.498v6.975c-3.405.284-7.07.468-11 .523v-7m16-.962c3.87-.426 7.571-.992 11-1.692v6.719c-3.197.747-6.87 1.4-11 1.901v-6.928m16-2.862c4.467-1.199 8.237-2.676 11-4.422v4.056c0 1.908-3.727 4.619-11 6.898v-6.532m-70.4-23.717c2.093 1.188 4.748 2.2 7.8 3.038v4.163c-5.127-1.66-7.8-3.549-7.8-4.868v-2.333m12.8 4.198c2.465.479 5.088.869 7.8 1.174v4.522c-2.894-.367-5.496-.826-7.8-1.343v-4.353m12.799 1.633c2.576.186 5.192.301 7.8.345v4.599c-2.762-.049-5.364-.177-7.8-.37v-4.574m12.801.345c2.609-.044 5.225-.159 7.8-.345v4.574c-2.436.193-5.04.321-7.8.37v-4.599m12.8-.805c2.712-.305 5.335-.694 7.8-1.174v4.353c-2.303.517-4.905.976-7.8 1.343v-4.522m12.8-2.333c3.052-.838 5.707-1.85 7.8-3.038v2.333c0 1.318-2.673 3.207-7.8 4.868v-4.163m-28.1-17.318c23.686 0 35.9 5.426 35.9 7.74s-12.214 7.74-35.9 7.74-35.9-5.426-35.9-7.74 12.214-7.74 35.9-7.74m-38.53 21.575c2.134 2.032 5.7 3.771 10.69 5.196 7.47 2.134 17.357 3.309 27.839 3.309s20.37-1.175 27.839-3.309c4.991-1.425 8.558-3.164 10.692-5.197 5.431 2.078 6.969 4.052 6.969 4.966 0 1.17-2.55 4.062-12.203 6.636-8.862 2.362-20.687 3.664-33.3 3.664s-24.435-1.302-33.3-3.664c-9.653-2.574-12.203-5.466-12.203-6.636.001-.905 1.533-2.882 6.971-4.965m-9.438 21.513c7.02 7.078 27.59 10.752 47.967 10.752 20.378 0 40.95-3.674 47.968-10.753 6.994 2.606 9.532 5.267 9.532 6.952 0 2.171-4.116 5.805-15.718 8.898-11.127 2.969-25.966 4.603-41.781 4.603-35.1 0-57.5-7.995-57.5-13.5 0-1.682 2.538-4.344 9.532-6.952m25.468 24.306v9.898c-5.615-.658-10.635-1.541-15-2.572v-9.614c4.632.963 9.691 1.728 15 2.288m5 .462c4.896.389 9.941.612 15 .668v9.998c-5.335-.061-10.343-.314-15-.72v-9.946m20 .667c5.141-.055 10.171-.28 15-.666v9.944c-4.657.407-9.665.66-15 .72v-9.998m20-1.133c5.353-.569 10.396-1.344 15-2.309v9.638c-4.365 1.031-9.386 1.915-15 2.572v-9.901m-80-3.486v-6.138c3.521 2.481 8.714 4.544 15 6.178v9.451c-9.67-2.876-15-6.477-15-9.491m100 9.491v-9.481c.188-.049.384-.095.57-.145 6.371-1.699 11.184-3.688 14.429-5.948v6.083c.001 3.01-5.33 6.615-14.999 9.491"/></svg>