<svg xmlns="http://www.w3.org/2000/svg" viewBox="0 0 234.064 49.456" enable-background="new 0 0 234.064 49.456"><switch><g transform="matrix(.1404 0 0 .1404.02.02)"><path d="m896.9 168.22c40.06 0 67.28 30.992 67.28 77.1v85.8c0 1.134-1.134 2.268-2.268 2.268h-39.31c-1.134 0-2.268-1.134-2.268-2.268v-85.42c0-17.764-8.693-37.04-33.26-37.04h-.756c-18.52.378-34.394 17.01-34.394 35.906v86.55c0 1.134-1.134 2.268-2.268 2.268h-38.929c-1.134 0-2.268-1.134-2.268-2.268v-158.74c0-1.134 1.134-2.268 2.268-2.268h37.795c1.134 0 2.268 1.134 2.268 2.268v13.984c14.363-12.473 29.1-18.14 46.11-18.14m599.05 136.44c-.756.756-.378 2.268.378 3.02 23.433 23.433 48.756 26.457 70.68 26.457 30.992 0 54.05-11.717 63.874-32.504 3.02-6.425 4.535-13.228 4.535-20.409 0-41.953-36.28-49.51-67.65-51.4-24.945-1.512-24.945-10.205-24.945-13.228 0-10.583 17.01-11.717 24.19-11.717 13.984 0 24.567 3.402 33.26 10.961.756.756 2.268.756 3.02-.378l22.299-25.701c.756-.756.756-2.268-.378-3.02-16.252-13.606-33.638-19.276-58.961-19.276-16.252 0-32.13 4.157-43.843 10.961-15.12 9.07-23.06 22.677-23.06 39.31 0 29.1 23.06 46.866 65.39 49.89 23.811 1.512 26.835 8.315 26.835 14.362 0 8.693-11.717 13.228-23.06 13.228h-1.134c-18.519-.378-36.28-7.181-48-18.14-1.134-.756-2.646-.756-3.401.378l-20.03 27.21zm-394.96-26.835c6.425-7.559 9.449-18.14 9.449-29.48 0-20.409-12.472-41.953-42.709-41.953-24.945 0-41.575 17.01-41.575 42.33s16.63 42.709 41.575 42.709c12.85 0 25.701-4.914 33.26-13.607m8.315-105.83c0-1.134 1.134-2.268 2.268-2.268h38.929c1.134 0 2.268 1.134 2.268 2.268v159.12c0 1.134-1.134 2.268-2.268 2.268h-38.929c-1.134 0-2.268-1.134-2.268-2.268v-12.09c-13.606 12.472-29.858 12.85-43.843 13.228h-2.268c-23.433 0-43.09-7.181-57.45-21.17-15.12-14.74-22.677-36.28-22.677-61.984 0-49.89 31.748-82.02 81.26-82.02h.756c15.496 0 31.748 1.512 44.598 12.09l-.377-7.181zm-484.16-41.575v-38.17c0-1.512-1.134-2.646-2.646-2.646h-141.73c-1.512 0-2.646 1.134-2.646 2.646v238.11c0 1.512 1.134 2.646 2.646 2.646h38.17c1.512 0 2.646-1.134 2.646-2.646v-97.13c0-1.512 1.134-2.646 2.646-2.646h71.43c1.512 0 2.646-1.134 2.646-2.646v-38.55c0-1.512-1.134-2.646-2.646-2.646h-71.43c-1.512 0-2.646-1.134-2.646-2.646v-48c0-1.512 1.134-2.646 2.646-2.646h97.89c1.889.001 3.02-1.51 3.02-3.02m833.39 151.94c-.756-.756-2.268-.756-3.02 0-7.559 6.425-17.386 9.827-26.835 9.827-23.811 0-40.441-17.01-40.441-41.575s16.63-41.575 40.441-41.575c9.449 0 18.898 3.402 26.835 9.827.756.756 2.268.756 3.02 0l25.323-26.457c.756-.756.756-2.268 0-3.02-16.252-15.496-32.882-21.921-55.56-21.921-51.02 0-83.91 32.882-83.91 83.91s32.882 83.91 83.91 83.91c22.677 0 39.31-6.425 55.56-21.921.756-.756.756-2.268 0-3.02l-25.323-27.969zm-203.34 51.02c1.134 0 2.268-1.134 2.268-2.268v-35.528c0-1.134-1.134-2.268-2.268-2.268-4.158 0-16.63 0-19.276 0-11.339-.378-16.63-6.05-16.63-18.14v-60.85h35.906c1.134 0 2.268-1.134 2.268-2.268v-39.685c0-1.134-1.134-2.268-2.268-2.268h-35.528v-34.394c0-1.134-1.134-2.268-2.268-2.268h-39.31c-1.134 0-2.268 1.134-2.268 2.268v139.47c0 37.04 20.787 58.2 57.45 58.2h7.181 14.741m-522.33-55.56c6.425-7.559 9.449-18.14 9.449-29.48 0-20.409-12.472-41.953-42.709-41.953-24.945 0-41.575 17.01-41.575 42.33s16.63 42.709 41.575 42.709c13.229 0 26.08-4.914 33.26-13.607m8.693-105.83c0-1.134 1.134-2.268 2.268-2.268h38.929c1.134 0 2.268 1.134 2.268 2.268v159.12c0 1.134-1.134 2.268-2.268 2.268h-38.929c-1.134 0-2.268-1.134-2.268-2.268v-12.09c-13.606 12.472-29.858 12.85-43.843 13.228h-2.268c-23.433 0-43.09-7.181-57.45-21.17-15.12-14.74-22.677-36.28-22.677-61.984-.378-49.89 31.37-82.39 80.5-82.39h.756c15.496 0 31.748 1.512 44.599 12.09l.378-6.803zm539.34 161.39h39.31c1.134 0 2.268-1.134 2.268-2.268v-159.12c0-1.134-1.134-2.268-2.268-2.268h-39.31c-1.134 0-2.268 1.134-2.268 2.268v159.12c.378 1.134 1.134 2.267 2.268 2.268m44.599-211.65c0-32.13-48.38-32.13-48.38 0-.378 31.748 48.38 31.748 48.38 0"/><path d="m411.61 43.491l-40.819 63.5c-.756 1.134-2.646 1.89-3.78 1.134-94.11-47.24-202.96 39.685-298.96 18.898-.756-.378-1.512-.756-2.268-1.512.378 0-46.11-71.06-61.61-94.87-1.89-3.02.378-7.181 4.535-6.803 8.315 1.89 44.598 9.827 72.57 12.09 145.51 7.937 224.5-79.37 329.95 3.402 1.135.755 1.513 2.645.379 4.157m-118.68 181.8c.756.378 1.512 0 2.268-.756l49.13-76.72c.756-1.134 0-2.268-1.134-2.646-71.43-24.567-138.33 22.677-240.38 25.323-2.646 0-5.291 3.02-3.402 6.425l109.98 170.08c1.512 3.02 5.291 1.134 4.913-1.512l-23.811-107.72c-.378-1.134.378-1.89 1.134-2.268 9.449-2.645 71.812-23.81 101.29-10.204"/><path d="m1663.39 152.72c0 7.937-4.913 14.362-13.984 14.362s-13.984-6.425-13.984-14.362c0-7.937 4.913-14.362 13.984-14.362 9.07 0 13.984 6.425 13.984 14.362m-13.985 12.09c7.559 0 11.717-5.291 11.717-12.09 0-6.803-4.157-12.09-11.717-12.09s-11.717 5.291-11.717 12.09c.001 6.804 4.158 12.09 11.717 12.09m2.268-10.204c5.669-.756 5.291-9.449-1.134-9.449-2.268 0-4.536 0-6.803 0v14.74h2.268v-5.291h3.02l4.536 5.291h2.646v-.378l-4.537-4.913m-1.134-7.181c3.78 0 3.78 5.291 0 5.291h-4.536v-5.291h4.536"/></g></switch></svg>