<svg enable-background="new 0 0 62 60" viewBox="0 0 62 60" xmlns="http://www.w3.org/2000/svg"><g clip-rule="evenodd" fill-rule="evenodd"><path d="m45.6 1.7c.6.4 1.3 1.1 2.2 2.1.9.9 1.9 2 3 3.2s2.2 2.5 3.3 3.9c1.1 1.3 2.2 2.7 3.1 4 1 1.3 1.9 2.5 2.6 3.6s1.3 2 1.6 2.6.5 1.4.5 2.1-.1 1.7-.3 3c-.2 1.2-.4 2.7-.8 4.3-.3 1.6-.7 3.2-1.1 4.9s-.8 3.3-1.2 4.9-.8 3-1.2 4.2-.8 2.2-1.1 2.8c-.2.7-.7 1.3-1.3 1.7s-1.5 1-2.6 1.6-2.5 1.3-3.9 2.1c-1.5.7-3 1.5-4.6 2.3-1.6.7-3.2 1.5-4.7 2.1-1.5.7-2.9 1.2-4.1 1.7s-2.2.8-2.9 1-1.5.2-2.2 0-1.7-.5-2.9-1-2.6-1-4.1-1.7-3.1-1.4-4.7-2.1-3.2-1.5-4.6-2.3c-1.5-.7-2.8-1.5-3.9-2.1-1.2-.6-2.1-1.1-2.7-1.6-.5-.4-1-1-1.4-1.7-.3-.6-.7-1.6-1.1-2.8s-.8-2.7-1.2-4.2c-.4-1.6-.8-3.2-1.2-4.9s-.8-3.4-1.1-4.9c-.3-1.6-.6-3-.8-4.3-.2-1.2-.3-2.3-.3-3s.2-1.5.5-2.1.9-1.5 1.6-2.6 1.6-2.3 2.6-3.6 2.1-2.6 3.1-4c1.2-1.3 2.3-2.7 3.4-3.9s2.1-2.3 3-3.2 1.7-1.6 2.2-2.1c.6-.4 1.3-.8 2-.9.7-.2 1.8-.3 3.1-.4s2.8-.2 4.5-.3c1.6-.1 3.3-.1 5.1-.1s3.5 0 5.1.1 3.2.1 4.5.3c1.3.1 2.3.3 3.1.4.6.1 1.4.5 1.9.9"/><path d="m30.9 26.2c-.8 0-1.5-.6-1.5-1.4s.7-1.5 1.5-1.5 1.5.6 1.5 1.5c-.1.8-.7 1.4-1.5 1.4m13.2 5.6c-.2-1.8-1.2-4.6-2.7-7.4-.4.7-1.2 1.1-2 1.1-1.4 0-2.5-1.1-2.5-2.4s1-2.3 2.3-2.4c-.2-.3-.3-.5-.3-.5-2.4-3.3-4.2-6.2-7.9-6.2-4.3.1-7.8 1.2-9 4.5-1.3 3.6-1.3 9.3-1.8 13.1-.9 7.2 4.5 10.3 11 10.5h.4c6.5.3 13.2-3.1 12.5-10.3" fill="#fff"/></g></svg>
