<svg xmlns="http://www.w3.org/2000/svg" viewBox="0 0 800.000000 268.000000"><g transform="matrix(.1 0 0-.1 0 268)"><path d="m1970 1640v-1040h130 130v1040 1040h-130-130v-1040"/><path d="m2784 2611c-59-27-87-72-92-146-3-50 0-66 20-95 39-57 82-80 150-80 72 0 130 27 158 73 93 152-70 323-236 248"/><path d="m3875 1999c-249-36-401-158-436-347-38-202 84-366 318-427 32-9 128-24 213-35 271-35 337-59 378-142 20-40 22-51 12-87-22-85-93-132-235-158-190-35-440 12-583 108-25 17-48 26-51 21-3-5-31-46-61-92l-54-82 24-21c43-35 187-97 288-125 89-23 114-26 297-26 179-1 208 1 278 22 167 48 273 125 330 241 29 60 32 74 32 161 0 114-19 165-88 234-90 89-216 134-472 166-234 30-304 55-345 122-49 81-1 176 115 230 45 21 64 23 195 22 127 0 156-4 232-27 48-15 117-41 154-58 36-17 69-27 74-23 15 18 100 169 100 180 0 17-164 90-255 113-148 38-327 49-460 30"/><path d="m5615 1995c-102-19-191-58-273-120l-72-55v80 80h-130-130v-975-975h130 130v371 371l51-45c68-59 154-102 259-128 72-18 103-21 220-16 94 4 153 11 196 25 240 77 417 266 475 508 29 122 23 292-15 409-111 344-462 540-841 470m291-245c228-79 361-317 311-556-50-237-233-384-477-384-244 0-427 147-477 384-57 273 125 537 402 580 56 8 183-4 241-24"/><path d="m7181 1985c-123-27-268-89-340-144l-25-19 53-81c30-45 59-81 65-81 6 0 29 12 50 26 96 66 253 114 369 114 237 0 388-123 413-335l7-55h-282c-319 0-389-9-509-65-95-45-171-117-208-198-24-54-28-74-27-152 1-116 26-184 95-260 56-62 106-94 194-127 52-19 79-22 219-22 153 0 164 1 252 31 82 27 179 76 241 119l22 16v-76-76h115 115v473c0 392-3 483-15 532-39 150-126 260-259 325-44 22-114 47-154 55-91 19-304 19-391 0m589-879v-115l-50-43c-69-59-160-113-239-140-54-19-87-23-181-23-100 0-122 3-168 24-193 87-177 320 27 385 74 24 74 24 349 25l262 1v-114"/><path d="m568 1970c-282-48-483-223-548-476-27-106-27-282 0-388 31-123 81-209 179-306 100-99 188-148 328-181 74-18 109-20 218-16 182 7 295 48 408 148l47 41v-79c0-154-45-269-137-353-174-159-483-172-767-31-55 28-103 48-107 46-7-5-109-181-109-189 0-12 130-81 202-108 125-45 259-68 401-68 147 0 225 12 335 49 167 58 293 163 362 305 77 157 74 118 78 909l3 707-423-1c-233-1-444-5-470-9m652-463c0-284-6-330-56-429-139-274-547-333-768-112-255 256-136 706 209 790 33 8 147 13 333 13l282 1v-263"/><path d="m2740 1290v-690h130 130v690 690h-130-130v-690"/></g></svg>