<svg height="40" viewBox="0 0 142 40" width="142" xmlns="http://www.w3.org/2000/svg"><g fill-rule="evenodd"><path d="m138.158488 13.6684493c-.169211-1.7547921-.585557-3.3547397-1.237063-4.82559466 1.112802-2.24708371 2.256322-3.0789963 2.256322-3.0789963s2.351948 5.83526066.28844 11.83205456c-1.27646 3.7104138-2.804046 5.9504743-3.623028 6.9128174-.182921.2147087-.344496.2812617-.244705.1513329 1.929007-2.5206534 2.991306-6.529218 2.560034-10.9916139m1.868265 7.0726785c-.952789 1.1128398-1.915817 2.192236-2.979678 3.0179615-.152898.1180563-.249565.1095282-.132419-.014548 3.764471-3.9824785 7.853306-12.8072735 2.553787-21.50464799 0 0-2.095268 1.40212806-3.815668 4.30905641-1.696103-2.53152257-4.16537-4.65319232-7.237724-6.54894972 0 0-7.773646 8.39738426-4.334928 20.561535-9.916467 1.3257091-6.315654 8.7462023-4.743813 9.8138931.072891.0499984.135369.0245811.034016-.1259156-.557616-.8285682-2.11592-3.726634 1.096488-6.5061418 1.723177-1.4909211 5.336138-1.8797044 5.336138-1.8797044-.821411-5.8404445-.763446-11.1173622 3.354372-16.95780666.52603.3377816 6.549252 2.90425285 6.775561 11.54443856.503815 5.4190535-2.399327 9.7565371-5.216215 11.4449434-4.99303 2.5954001-10.59522 3.8686026-15.465376 4.9765932-.413396.0946457-.252516.1381225.023255.12625 11.571091-.4717237 21.857912-5.5157059 25.812941-10.3290937.761883-.9248861 1.102388-1.9442508.589028-2.5084464-.513187-.5641956-1.4422.3361095-1.649765.5805831"/><path d="m98.4140231 24.2553605c.2869287-1.7571134 1.0987227-2.5953947 4.5112039-2.5953947 3.639284 0 4.498699.9110052 4.678394 2.5953947zm4.5112039-5.2553605c-2.371315 0-7.925227 0-7.925227 6.9989401 0 7.0010599 5.553912 7.0010599 7.925227 7.0010599h7.347773v-2.6620855h-7.347773c-3.7321283 0-4.514116-.8992651-4.678736-3.4225882h12.753509v-.9163862c0-6.9989401-5.452844-6.9989401-8.074773-6.9989401z"/><path d="m80.4132648 24.255483c.2876077-1.7571544 1.1004122-2.5949661 4.5121353-2.5949661 3.6381779 0 4.4975751.9105373 4.6772657 2.5949661zm4.5121353-5.255483c-2.3712649 0-7.9254001 0-7.9254001 6.9991032 0 7.0008968 5.5541352 7.0008968 7.9254001 7.0008968h7.3465875v-2.6614953h-7.3465875c-3.7327338 0-4.5143621-.899286-4.6796638-3.4226679h12.7542637v-.9167336c0-6.9991032-5.4544403-6.9991032-8.0745999-6.9991032z"/><path d="m66.4981743 30.3624586c-5.01301 0-5.2190527-.9005323-5.2190527-4.3484057 0-3.3754843.2225609-4.3479154 5.2190527-4.3479154 4.9989261 0 5.2223563.9724311 5.2223563 4.3479154 0 3.3756478-.2234302 4.3484057-5.2223563 4.3484057m0-11.3624586c-4.4779945 0-8.4981743.536463-8.4981743 7.0140529v13.9859471h3.2791216v-7.70902c1.5657506.67928 3.5068988.7385965 5.2190527.7385965 4.4811243 0 8.5018257-.5353191 8.5018257-7.0155236 0-6.4775899-4.0207014-7.0140529-8.5018257-7.0140529"/><path d="m43.4132031 24.255483c.2869318-1.7571544 1.1004476-2.5949661 4.5112525-2.5949661 3.6386373 0 4.498576.9105373 4.6791289 2.5949661zm4.5112525-5.255483c-2.3713411 0-7.9244556 0-7.9244556 6.9991032 0 7.0008968 5.5531145 7.0008968 7.9244556 7.0008968h7.3485364v-2.6614953h-7.3485364c-3.7318259 0-4.5134794-.899286-4.6787863-3.4226679h12.7543307v-.9167336c0-6.9991032-5.455472-6.9991032-8.0755444-6.9991032z"/><path d="m25.4124449 24.255483c.288296-1.7571544 1.1004239-2.5949661 4.5128688-2.5949661 3.6382168 0 4.4989936.9105373 4.6780009 2.5949661zm4.5128688-5.255483c-2.3712903 0-7.9253137 0-7.9253137 6.9991032 0 7.0008968 5.5540234 7.0008968 7.9253137 7.0008968h7.3466661v-2.6614953h-7.3466661c-3.7327738 0-4.513554-.899286-4.6797139-3.4226679h12.7544002v-.9167336c0-6.9991032-5.4538135-6.9991032-8.0746863-6.9991032z"/><path d="m21.4282788 11-8.9219635 17.360366-8.88902166-17.2704904-.04915682-.0898756h-3.56813682l11.0135181 20.915517.0505223.084483h2.8876221l11.0483375-21z"/></g></svg>
