<svg xmlns="http://www.w3.org/2000/svg" viewBox="0 0 1018 240" enable-background="new 0 0 1018 240"><path d="m810.9 185.9c0-20.9 4.5-26.7 34.4-28.3l73.6-3.9c68.2-3.7 89-12.1 94.2-52.7 0 0 0 0 .1 0 1.2-9 1.6-19.3 1.6-31.7 0-48.6-17.4-68.3-84.2-68.3h-93.9c-64.3 0-91.1 15.2-91.1 61.2v26.8h67.3l-.1-9.5c0-24.1 9.3-29.3 39.6-29.3h47.3c45.7 0 47.6 4.5 47.6 23.5 0 18.3-2.3 22.7-29.9 25.3.7 0 1.3 0 2 0-7.2.8-16.4 1.3-27.9 2.1l-81.7 5.1c-46 3.2-64.6 22.2-64.6 50.8v79.1h272.8v-50.2h-207.1"/><path d="m255.6 116.7l-9.6 6.5v.1 1.7 7.2c0 33.8-6.5 47.3-40.2 47.3h-91.3c-29.2 0-39.2-10.2-41.3-34.9-.3-3.8-.6-7.9-.6-12.4v-25.1c0-28.9 8.1-46.6 45.7-46.6h83.6c5.2 0 10.2.3 14.2 1l-19.3-60.6h-93.9c-64.4 0-102.8 15.9-102.8 84v69.5c0 68.2 38.4 84.7 102.8 84.7h114.5c64.3 0 103.7-16.5 103.7-84.7v-35.9-33.6c0-4.1-.2-8-.4-11.8l-65.1 43.6"/><path d="m673.2 3.5l-27.4 94.6-22.1 76.2-26-74.3h-.1l-34.2-96.5h-66.2l-36.3 105c0 0 0 0 .1 0l-23 65.8-19.8-67.1h-.2l-29.6-103.7h-69.8l35.3 107.6 40.3 124.9h82l46.3-131.1c0 0 0 0 .1 0l.6-1.9 6.9-21.9 8.2 23.4c.1 0 .1 0 .2 0l47 131.5h82l45.2-138.8h-.2l30.5-93.7h-69.8"/><path d="M315.6 55.1 298 1 213.4 1 246.5 103.1z"/></svg>