<svg xmlns="http://www.w3.org/2000/svg" viewBox="0 0 80 80" enable-background="new 0 0 80 80"><g fill="currentColor"><path d="m65.43 43.28l-1.958.603.443.181-.686.434c.073-.4.144-.8.199-1.205l1.073-.897.025.472 1.208-1.651-1.862.855.458.12-.856.716c.061-.494.103-.992.136-1.492l1.057-1.17.089.466.977-1.798-1.734 1.095.477.053-.844.909c.008-.315.017-.626.017-.941 0-2.359-.347-4.636-.991-6.789-1.07.099-2.143-.243-2.658-.342 1.37.804 1.845 1.672 2.049 2.67-1.096.245-2.563-.114-3.366-.742.786.686 1.281 1.766 1.316 2.879-1.131.057-2.175-.472-2.942-1.243.492.55 1.115 1.94.969 2.93-.946-.101-2.054-.721-2.661-1.459.502 1.106.74 2 .679 2.994-.937-.177-1.649-.443-2.49-1.247.405 1.01.554 2.027.463 2.861-1.083-.383-1.804-.818-2.415-1.838.326.901.537 2.083.312 2.774-.918-.275-1.525-.828-2-1.766.471.995.412 2.151.255 2.75-.385-.075-.888-.342-1.151-.637-.016.182-.029.356-.037.526-.049.673-.181 1.303-.401 1.881.076.083.258.295.264.304.482.518 1.143 1.01 1.663 1.177-.225.033-.534.225-.844.261.344.39 1.045.477 1.478.92-.336.04-.416.284-.826.238.782.604 1.498.624 1.898.672.162.017.688.068 1.021.015.44-.067.89.132 1.101.247-.014-.008-.029-.016-.044-.024l4.276-8.665-.468.083 1.34-1.548-.416 2.01-.221-.422-4.296 8.702c-.006-.007-.015-.011-.021-.018.096.106.135.247.142.383 0-.006 0-.011 0-.017.009-.004.021-.004.028-.005l.163-.132 6.926-5.47-.46-.128 1.875-.824-1.236 1.636-.016-.478-6.873 5.421c.186.036.352.1.401.18.117.187.085.282-.024.606-.104.31-.179.42-.387.443-.059.009-.163.022-.283-.028.062.039.104.076.135.159.031.083.081.227-.172.518-.224.253-.435.347-.615.247-.099-.06-.13-.122-.177-.174.026.071.053.144.065.223.043.258-.155.352-.401.44-.463.161-.689.091-.798-.074-.237-.353-.107-.807.052-.884-.039.138-.038.288-.011.456.022.134.088.36.339.336.136-.013.385-.073.538-.167.105-.07.109-.253.054-.406-.025-.076-.054-.187-.148-.267.155.041.247.125.366.223.119.1.3.123.405.014.135-.139.217-.244.261-.342.119-.245-.2-.435-.38-.538.322.013.373.135.633.1.263-.038.341-.455.341-.594.004-.1-.116-.199-.267-.241-.115-.03-.248-.03-.345-.025-.005.033-.012.063-.02.09-.035.12-.086.264-.304.376-.124.037-.206.048-.079-.046.113-.083.217-.588-.045-.786-.192-.139-.461-.255-.779-.238-.353.016-.892.046-1.153.022-.238-.027-.389.287-.422.42-.085.315-.183.703-.637.511-.558-.32-1.352-.293-2.264-.662.128.28.074.524.213.837-.813-.2-1.019-.614-1.794-.886.13.282.091.503.267.769-.652-.113-1.261-.701-2.168-.943-.029.009-.054.021-.082.026-.33.099-.634.193-.909.281.642.727 1.174 1.62 1.422 2.7 0 0-.453.013-1.122-.22.192.59.309 1.222.32 1.9 0 0-.508-.094-1.206-.527.064.641.041 1.308-.093 1.993 0 0-.588-.243-1.282-.948-.08.662-.245 1.329-.529 1.995 0 0-.539-.365-1.089-1.215-.227.663-.545 1.314-.982 1.936 0 0-.586-.616-.983-1.857-.529.796-1.033 1.137-1.033 1.137-.284-.666-.451-1.333-.531-1.999-.693.709-1.281.952-1.281.952-.136-.685-.158-1.352-.096-1.993-.696.433-1.208.527-1.208.527.012-.677.13-1.31.326-1.9-.674.233-1.126.22-1.126.22.256-1.102.978-2.235 1.463-2.743-.238-.076-.493-.152-.771-.237-.026-.005-.051-.017-.083-.026-.906.242-1.512.83-2.168.943.173-.266.139-.487.267-.769-.772.272-.981.686-1.79.886.135-.313.08-.557.213-.837-.754.369-1.785.625-2.242.723-.506.105-.536-.648-.701-.814-.071-.072-.478-.101-.648-.075-.251.042-.738.021-1.102.014-.366-.008-.617.1-.806.246-.269.194-.142.72-.026.806.125.09.048.078-.077.045-.216-.111-.271-.257-.306-.377-.005-.019-.009-.041-.013-.062.001.003.001.007.002.01-.095-.009-.268-.022-.413.01-.149.037-.274.135-.274.236-.001.138.065.556.329.6.256.044.311-.078.634-.082-.186.097-.505.282-.4.529.044.095.125.204.254.347.105.111.285.093.407-.002.123-.096.217-.176.372-.213-.094.077-.127.188-.156.261-.06.156-.06.338.045.41.147.099.396.165.531.182.253.029.322-.194.347-.329.033-.168.039-.315.004-.455.154.078.272.54.028.884-.118.163-.347.231-.804.049-.243-.093-.434-.193-.387-.447.015-.075.045-.152.073-.22-.047.049-.085.111-.186.168-.176.097-.389-.002-.603-.262-.25-.299-.194-.44-.158-.523.031-.083.074-.119.138-.159-.122.046-.232.031-.287.024-.204-.031-.278-.143-.373-.457-.097-.327-.128-.421-.008-.606.096-.144.604-.231.864-.171-.001.06.005.116.012.168-.03-.211-.006-.515.241-.654.185-.114.674-.347 1.146-.274.331.051.856 0 1.015-.018.16-.019 1.339-.231 2.117-.835-.408.046-.488-.198-.827-.238.438-.443 1.138-.53 1.481-.92-.307-.036-.579-.282-.804-.317.687-.381 1.142-.603 1.626-1.121.005-.009.186-.212.258-.296-.219-.578-.354-1.216-.401-1.889-.011-.164-.022-.333-.034-.506-.168.186-.514.373-1.075.576-.262-.638-.137-1.828.198-2.75-.48.938-1.019 1.549-1.939 1.823-.224-.688-.089-1.889.232-2.79-.61 1.02-1.262 1.538-2.348 1.921-.091-.833-.004-1.935.397-2.945-.838.804-1.551 1.069-2.491 1.247-.058-.991.182-1.888.679-2.994-.601.738-1.852 1.243-2.798 1.344.073-.859.675-2.034 1.026-2.722-.889.638-1.836 1.095-2.861 1.15.128-.974.564-2.028 1.315-2.879-.883.654-2.229 1.01-3.244.869.245-1.069.904-2.111 1.791-2.67-.515.102-1.448.315-2.522.216-.633 2.118-.979 4.36-.987 6.68-.537-.421-.911-.528-1.278-.892.068.503.134.777.188 1.398.099 1.119.525 1.759 1.227 2.161.032.318.073.632.12.948-.519-.332-1.217-.539-2.136-.528.558 1.821 1.359 1.957 2.43 2.128.037.168.077.333.116.499-.571-.149-1.257-.151-2.037.064.539.837 1.287 1.341 2.48 1.521.002.008.005.013.01.021-.735-.059-1.529.05-2.165.372.906.779 1.796 1.077 2.644.986.043.113.087.224.133.335-.671.177-1.263.525-1.594.849.707.223 1.432.342 2.087.274.004.016.014.032.02.048-.383.294-.716.769-.925 1.51.504-.125 1.021-.16 1.536-.307.102.193.208.38.318.566-.272.517-.367 1.166-.208 1.887.433-.102.789-.27 1.085-.487.101.15.204.297.31.447-.109.825.082 1.655.571 2.208.15-.169.279-.333.393-.493 1.209-1.71.521-2.923.547-4.01.005-.022.015-.043.024-.064.091 1.256 1.179 2.496-.101 4.02-.025.03-.047.055-.07.081 4.336 5.04 10.758 8.23 17.926 8.23 10.18 0 18.856-6.432 22.19-15.449l1.074-.466-.082.47 1.55-1.341-2.01.416.422.218-.826.341c.064-.182.125-.367.185-.552l-.939.822.081-.469-5.946 2.974c-.009-.016-.016-.034-.028-.051-.027-.04-.059-.076-.099-.108.05-.04.132-.105.231-.184l5.727-2.867-.428-.217 1.535-.327c.029-.095.059-.19.087-.285l1.177-.652-.041.478 1.424-1.478-1.961.593.442.185-.943.517c.052-.188.1-.378.147-.569l-1.012 1.119.025-.477-3.808 2.484c-.459.232-.912.46-1.306.659.256-.204.534-.424.83-.655l4.139-2.707-.445-.168 1.65-.557c.041-.176.082-.352.119-.528l.896-.568-.038.474 1.417-1.486m-11.377 7.955c-.028.226-.107.659-.564.73.068-.185.059-.573-.065-.802.181-.113.496-.094.629.072m-.447 1.026c-.121.093-.295.142-.442.136-.147-.005-.15-.027-.143-.084.035-.244.127-.588.183-.685.026.142.077.28.165.407.07.104.165.164.237.226m-.678-1.333c.048.127.148.259.414.28-.193.111-.39.097-.5.04-.11-.052-.108-.138-.106-.333 0-.198.143-.116.192.013m-30.01-6.505c-.077.786.026 1.48.01 2.153.446-.701 1.225-1.173 1.875-1.37-.093 2.808-1.375 3.02-1.939 3.739.093-.868.537-2.02 1.314-3-1.061.705-1.402 1.716-1.433 2.738-.085-.22-.132-.428-.158-.633-.122.242-.286.482-.506.733-.204-1.283.113-2.676.285-3.34-.556.558-.739 1.885-.517 2.947.102.064.175.171.205.299.052.251-.113.499-.365.549-.255.051-.502-.113-.552-.363-.05-.255.112-.5.365-.551.06-.015.116-.012.174-.003-.556-1.198-.098-2.914 1.242-3.894m-2.1-.686c1.365 2.839-.197 3.317-.488 4.401-.19-1.019.01-2.655.143-3.505-.429.58-.551 1.385-.499 2.161.002.009.008.015.008.026.01.037.007.078.004.118.035.347.099.686.186.993-.143-.209-.269-.452-.361-.716-.037.022-.078.041-.126.05-.202.043-.403-.091-.445-.296-.041-.205.09-.403.299-.446.037-.007.075-.007.116-.002-.107-.916.171-1.955 1.163-2.784m-1.184 5.233c-.254.053-.5-.11-.551-.364-.05-.254.114-.5.365-.551.253-.049.501.114.55.367.05.249-.112.499-.364.548m.259-7.479c.605 2.722-.736 2.94-1.449 3.954-.78-1.392-.072-3.289 1.449-3.954m-1.24 5c-.241.047-.48-.11-.529-.355-.05-.244.108-.48.353-.529.243-.051.48.109.528.353.052.245-.108.482-.352.531m-.308-7.85c.472 1.423.149 2.893-.782 3.746.023-.66-.194-1.386-.705-1.977.31-.891.999-1.567 1.487-1.769m-2.651 1.385c1.185.814 1.441 1.626 1.71 2.672.01-.005.02-.006.027-.008.222-.047.439.096.483.317.043.223-.1.439-.32.484-.223.044-.44-.099-.483-.321-.039-.196.07-.385.246-.458-.385-.817-1.072-1.924-1.663-2.686m-.486 3.452c1.179.12 1.887.832 2.379 1.498.149 0 .287.111.313.266.032.176-.089.343-.261.375-.179.028-.346-.089-.378-.265-.027-.168.077-.325.237-.367-.673-.607-1.644-1.204-2.29-1.507m1.01 2.54c.553.025 1.275.031 2.322.958.046-.066.12-.113.206-.128.18-.029.344.091.373.264.033.179-.088.345-.265.378-.173.029-.345-.09-.373-.269-.012-.072 0-.14.032-.198-.764-.542-1.962-.887-2.295-1.01m.807 1.614c.982-.133 1.487.006 2.202.404.069.022.084.028.022.02-.657-.228-1.303-.357-2.224-.424m.298 1.986c.836-.465 1.829-.591 2.742-.471.04-.096.13-.168.243-.185.175-.029.342.087.371.265.031.175-.086.345-.266.373-.175.032-.343-.091-.378-.266-.004-.047-.002-.093.01-.136-.001 0-.001 0-.005 0-.801.001-1.781.203-2.717.42m.946 1.285c.69-.819 1.816-.996 2.491-.973.014.002.021.005.029.005-.045-.227.105-.451.331-.492.23-.048.454.099.499.329.043.229-.103.451-.331.497-.219.043-.432-.093-.489-.305-.006 0-.014.002-.019 0-.677.093-1.804.522-2.511.939m1.42 2.18c.106-.686.561-1.503 1.229-2.054.465-.385.728-.527.339-.117-.591.616-1.278 1.619-1.568 2.171m1.461 1.869c-.256-.645-.033-1.68.244-2.359.194-.466.671-1.176.822-1.242-.529.814-1.094 2.976-1.066 3.601m1.263-4.485c-.188.037-.375-.086-.412-.274-.037-.19.085-.373.274-.412.191-.038.372.085.412.274.036.188-.086.375-.274.412m.854 1.05c-.268.051-.525-.119-.577-.384-.054-.264.119-.52.38-.575.265-.051.523.12.577.385.054.26-.117.522-.38.574m.169-1.48c-.264.054-.524-.114-.577-.378-.053-.269.117-.524.383-.578.264-.054.518.117.574.384.055.263-.115.516-.38.572m.602.238c-.039-.204.095-.404.298-.445.209-.041.406.094.451.295.039.204-.093.405-.299.449-.206.041-.403-.092-.45-.299m1.692 1.124c.13-.164.447-.185.627-.071-.122.231-.134.614-.066.802-.453-.069-.535-.504-.561-.731m.887 1.163c-.146.006-.32-.047-.443-.138.071-.064.168-.122.236-.22.09-.131.142-.268.167-.41.054.096.15.441.183.685.008.056 0 .075-.143.083m.325-1.148c-.112.056-.31.072-.501-.041.267-.02.367-.153.414-.284.048-.126.19-.206.195-.011 0 .196.002.284-.108.336m2.919 5.257c-.25-1.71-1.142-3.094-2.542-4.216.058-.259.139-.438.218-.56 1.927 1.451 3.02 3.465 3.3 5.085-.242-.177-.697-.361-.976-.309m18.784-3.094l.38.117 2.974-1.483c-.006.003-.011.008-.017.01 0 0-.016.011-.046.032-.551.36-2.819 1.758-2.819 1.758l-.318-.06-.929.633-.997.622-.063-.307-.534-.196 2.369-1.126m-1.602 2.776l-.069-.422-.56-.115 1.994-1.245.227-.143.39.08-.002-.002 3.109-2.053c-.109.121-.424.457-.708.771l-2.49 1.754-.285-.014-1.606 1.389m2.22-.348l-.465.022-.025.005.009-.005-.089.005 1.891-1.891v-.002l.035-.034.402-.033 1.359-1.484c-.009.117 0 .234.031.348l-1.193 1.404-.303.065-1.568 2.061-.084-.461m2.728-.011l-1.148 2.357-.211-.576-.589.177 1.214-2.324.373-.124-.005-.003 1.024-2.124c.064.058.139.1.227.128l-1.019 2.11.134.379m9.796-15.861l1.633-1.238-.819 1.877-.13-.46-4.88 6.18c-.27.297-.536.588-.798.873l-.006-.006c.346-.522.715-1.081 1.058-1.605l4.422-5.602-.48-.019m-5.383 6.841l2.683-4.079-.478.025 1.524-1.372-.661 1.941-.163-.446-3.758 5.686c-.012.016-.025.031-.039.046.27-.543.576-1.164.892-1.801m-1.489 3.01c.059-.113.12-.239.186-.377l6.994-7.652-.474-.052 1.718-1.113-.957 1.81-.091-.467-6.683 7.302c-.287.229-.528.42-.693.549m7.474-5.934l-.06-.475-4.065 3.761c-.419.333-.845.67-1.254.995.339-.372.698-.765 1.061-1.169l4.08-3.779-.467-.09 1.799-.974-1.094 1.731"/><path d="m64.3 25.631c-.449.153-.896.276-1.33.372 2.491 4.078 3.923 8.869 3.923 13.997 0 14.852-12.04 26.892-26.89 26.892-14.854 0-26.892-12.04-26.892-26.892 0-5.354 1.562-10.341 4.258-14.532-.427-.122-.847-.285-1.266-.486-2.739 4.349-4.325 9.499-4.325 15.02 0 15.586 12.639 28.22 28.23 28.22 15.585 0 28.22-12.639 28.22-28.23 0-5.246-1.431-10.159-3.926-14.368"/><path d="m24.369 18.12c4.408-3.154 9.805-5.01 15.638-5.01 6.511 0 12.485 2.318 17.14 6.171.524-.149 1.035-.285 1.559-.418-4.98-4.407-11.527-7.083-18.698-7.083-6.432 0-12.361 2.152-17.11 5.774.224.082.451.163.68.251.271.106.536.21.789.317"/><path d="m39.999 77.53c-20.721 0-37.52-16.803-37.52-37.523 0-20.723 16.8-37.521 37.52-37.521 20.723 0 37.522 16.798 37.522 37.521 0 20.72-16.799 37.523-37.522 37.523m0-77.53c-22.09 0-39.999 17.911-39.999 40 0 22.09 17.909 40 39.999 40 22.09 0 40-17.909 40-40 0-22.09-17.909-40-40-40z"/><path d="m30.347 31.982c-.567-.292-1.065-.63-1.6-1.118-1.716-1.565-2.123-3.208-1.613-5.096.301-1.128.76-1.692.603-2.866-.09-.671-.567-1.213-1.042-1.669-1.147-1.102-2.508-1.782-4.518-2.461-1.243-.417-4.853-1.538-6.445-2.979-.364 1.06.406 2.469 1.327 2.656-.814.083-1.507.506-1.83.967.614.711 1.838 1.45 2.848 1.471-.466.311-1.038.974-1.227 1.347.874.466 2.27.857 3.342.779-.452.361-.843.821-1.096 1.241.723.331 2.135.809 3.477.909-.495.244-1.201 1.089-1.565 1.609.756.336 2.391.54 3.405.643-.726.381-1.486 1.142-1.904 1.831.736.353 2.12.747 3.249.709-.558.537-.925 1.185-1.135 1.813.855.176 1.753.18 2.797.039-.633.802-.886 1.863-.974 2.617.847-.022 1.972-.217 2.765-.691-.172.648-.135 1.525.146 2.143.333-.076.72-.214 1.141-.441-.059-1.207-.114-2.438-.151-3.453"/><path d="m64.818 17.737c-1.595 1.444-4.143 1.83-6.818 2.714-2.02.663-3.266 1.053-5.07 2.491-.515.41-1.01 1.014-.95 2.05.061 1.151.247 1.647.28 3.256.021 1.148-.376 2.074-.859 2.617-.508.578-1.169 1.079-1.764 1.389-.034.978-.078 1.963-.133 3.106.419.229.955.44 1.289.516.276-.618.316-1.496.143-2.143.795.475 1.921.67 2.767.691-.09-.754-.343-1.815-.975-2.617 1.041.14 1.941.137 2.797-.039-.213-.627-.581-1.276-1.139-1.813 1.133.038 2.514-.356 3.251-.709-.418-.689-1.176-1.45-1.902-1.831 1.014-.103 2.694-.301 3.449-.638-.365-.518-1.119-1.37-1.609-1.614 1.341-.1 2.75-.578 3.478-.909-.256-.42-.648-.88-1.094-1.241 1.257-.082 2.464-.313 3.337-.779-.19-.372-.759-1.035-1.225-1.347 2.697-.753 2.742-2.099 2.747-3.15"/><path d="m53.48 20.585c-3.823-2.654-8.468-4.214-13.479-4.214-4.564 0-8.831 1.299-12.445 3.538.937.729 1.494 1.501 1.632 2.301.116.7.197 1.546-.207 2.779-.429 1.308-.665 2.653.303 4.02.96 1.36 2.21 1.945 3.243 2.143 1.356-.237 2.857-.431 4.354-.551.193-.635.769-1.185 1.35-1.633.839-.655.655-1.226.457-1.67-.158-.348-.457-.629-.89-.853-.378-.195-1.764-.342-1.724.546-.228-.322-.41-.756-.276-1.31.185-.774 1.449-.969 1.764-.947-.244-.206-.094-.537.459-.691.673-.186 1.308-.214 1.926-.198 1.266.031 1.464.342 2.108.911.774.689 1.801.929 2.203.513-.291.66-1.211 1.01-1.802.909.288.912.392 1.705.494 2.664.048.435.139 1.167.257 1.765 1.695.14 3.402.373 4.887.659.615-.179 1.254-.539 1.823-1.201.545-.627 1.045-1.425.838-3.429-.059-.565-.34-2.01-.301-2.685.088-1.541 1.231-2.545 3.03-3.364"/><path d="m37.771 24.806c.233.177.37.201.447.183.008.045.088.098.103.116.05.043.078.085.09.133.106-.045.389-.16.648-.249.259-.098.619-.201.619-.201-1.117-.238-1.287.103-1.907.018"/><path d="m71.31 29.42c1.395-.611 2.025-2.169 1.436-3.512-.588-1.344-2.158-1.925-3.551-1.313-1.395.61-2.037 2.161-1.448 3.507.586 1.342 2.169 1.928 3.563 1.318m-1.663-3.796c1.102-.484 2.363-.262 2.682.467.324.738-.367 1.816-1.472 2.298-1.107.486-2.374.267-2.698-.471-.316-.729.375-1.808 1.488-2.294z"/><path d="m69.36 33.05l-.531-2.1.321-.085.15.589 4.45-1.124-.15-.592.327-.082.803 3.184.221-.056.109.416-1.235.314-.105-.414.56-.137-.409-1.606-1.821.464.31 1.239.529-.137.111.417-1.52.383-.11-.413.537-.14-.317-1.234-2.03.518.12.515-.32.081"/><path d="m7.136 27.41l-.192.642 2.872.856c.865.259 1.318.721 1.43 1.459.052.38.023.782-.091 1.178-.371 1.236-1.29 1.834-2.345 1.523l-3.083-.921-.175.58-.322-.097.639-2.136.319.095-.169.574 2.848.85c.773.229 1.164.196 1.488-.132.144-.157.266-.364.332-.593.275-.915-.107-1.61-1.042-1.89l-2.841-.849-.188.636-.33-.096.53-1.772.32.093"/><path d="m12.187 28.654c-.117.269-.428.396-.702.285-.27-.114-.4-.429-.285-.7.114-.272.43-.402.699-.288.273.115.4.427.288.703"/><path d="m13.178 26.378l-.212.381-1.251-.704.216-.38.513.29c.424-.174.648-.357.841-.698.241-.431.158-.888-.2-1.092-.316-.176-.647-.098-1.428.313-.815.438-.931.482-1.241.546-.299.059-.627-.005-.934-.177-.765-.433-.957-1.28-.478-2.126.153-.272.316-.465.573-.665l-.207-.117.21-.373 1.188.666-.211.376-.481-.27c-.348.188-.524.335-.666.593-.204.36-.105.782.22.966.281.158.541.095 1.343-.334.387-.204.625-.333.724-.377.202-.1.434-.158.689-.171.291-.012.553.057.824.206.793.445 1.024 1.336.568 2.149-.228.402-.475.649-.844.862l.244.136"/><path d="m15.269 22.767c0 .292-.232.524-.523.524-.291 0-.519-.232-.519-.524 0-.288.229-.52.519-.52.291 0 .523.232.523.52"/><path d="m27.6 12.516l-3.37 1.738-.16-.3.543-.275-2.104-4.081-.537.277-.153-.298 2.92-1.507-.103-.194.384-.197.579 1.125-.379.192-.259-.508-1.474.758.86 1.673 1.135-.585-.252-.481.383-.204.718 1.401-.379.199-.254-.496-1.136.584.903 1.753 1.535-.795-.266-.524.376-.195.49.94"/><path d="m30.847 11.342l-2.192.729-.108-.319.576-.19-1.447-4.358-.574.19-.106-.319 2.294-.758c.936-.313 1.739.052 2.026.923.276.824-.227 1.746-1.113 2.038-.128.045-.214.064-.423.094l-.122-.372c.105-.01.145-.024.211-.042.515-.171.68-.64.455-1.312-.233-.712-.638-.992-1.183-.809l-.454.151 1.412 4.252.64-.213.108.315"/><path d="m37.32 9.573l-.332.056-2.818-4.679-.477.084-1.156 5.37-.489.084.059.329 1.625-.282-.058-.33-.628.11.291-1.36 1.908-.331.709 1.187-.553.094.058.331 1.917-.332-.056-.331m-3.877-1.131l.452-2.102 1.086 1.835-1.538.267z"/><path d="m42.829 9.577h-.331c-.158 0-.254-.072-.44-.352l-1.123-1.742c.749-.231 1.116-.688 1.118-1.407 0-.423-.124-.765-.386-1.032-.285-.285-.671-.391-1.353-.394l-2.353-.002v.332l.604.003-.008 4.59h-.61l-.003.332 2.236.005v-.333h-.6l.005-2.01.217.005 1.191 1.873c.271.421.349.469.82.47l1.01.003.005-.339m-3.234-4.479h.497c.568.001.898.367.896 1.01 0 .626-.381 1.066-.931 1.066l-.469-.005.007-2.069z"/><path d="m46.44 10.55l-2.538-.428.057-.328.76.125.741-4.391-1.36-.229-.107.652-.433-.074.226-1.335.434.071-.04.222 3.724.629.042-.219.434.071-.23 1.335-.435-.07.114-.651-1.349-.231-.746 4.391.756.129-.05.331"/><path d="m53.883 13.07l-2.211-.862.121-.312.627.248 1.244-3.214-3.03 2.962-.426-4.224-1.217 3.145.627.237-.12.317-1.721-.665.122-.313.619.24 1.67-4.279-.628-.242.12-.314 1.315.512.423 4.137 2.89-2.852 1.47.568-.118.316-.622-.242-1.66 4.28.63.24-.127.317"/><path d="m57.763 15.605l-3.193-2.043.178-.282.512.327 2.468-3.873-.508-.321.18-.285 2.76 1.768.12-.188.37.23-.684 1.072-.356-.229.308-.482-1.398-.895-1.01 1.586 1.07.688.294-.457.366.223-.84 1.325-.37-.226.3-.473-1.07-.683-1.06 1.653 1.451.936.319-.495.37.23-.577.894"/><path d="m21.385 15.826l-.52.379-2.589-3.524.543-.403c.753-.551 1.988-.214 2.681.73.744 1.01.695 2.224-.115 2.818m1.022-3.483c-.873-1.188-2.495-1.418-3.71-.526l-2 1.471.197.271.489-.36 2.713 3.694c.128.051.258.097.384.145l1.327-.977c.629-.462.96-.97 1.08-1.655.126-.742-.043-1.472-.476-2.063z"/><path d="m64.55 14.512l-.224.249.466.42-2.252 2.472.568-4.456-1.17-1.07-.227.248.426.386-.088.471-2.819 3.092-.487-.446-.229.247 1.331 1.215.227-.248-.464-.424 2.346-2.573-.504 4.089c.488-.128 1.01-.265 1.569-.421.05-.014.09-.028.137-.038l2-2.202.499.45.225-.245-1.334-1.216"/><path d="m69.915 20.308l-.176.134-2.294-3 .177-.137-.266-.349-1.078.825.266.349.527-.403.836 1.096-3.54 2.707-.182-.242c-.103.057-.205.108-.31.15l1.314 1.717.268-.204-.464-.605 3.539-2.709.833 1.093-.526.402.265.346 1.077-.822-.266-.347"/><path d="m46.613 75.04l-.428.094-.308-1.4.429-.095.124.576c.413.2.699.246 1.084.162.481-.106.767-.469.678-.874-.076-.349-.357-.552-1.183-.862-.869-.312-.98-.37-1.233-.561-.245-.183-.415-.469-.49-.813-.187-.857.32-1.564 1.271-1.773.302-.066.555-.07.878-.013l-.052-.234.42-.09.292 1.333-.42.093-.119-.534c-.375-.143-.599-.174-.887-.112-.404.09-.655.449-.576.812.071.31.292.466 1.143.782.412.15.666.241.765.284.207.087.408.221.585.403.204.211.329.451.396.757.193.887-.317 1.65-1.23 1.851-.45.097-.798.075-1.2-.057l.061.271"/><path d="m54.716 72.49l-3.536 1.385-.12-.315.565-.22-1.677-4.27-.568.22-.12-.31 3.06-1.203-.08-.207.398-.16.462 1.18-.393.16-.207-.54-1.55.609.692 1.751 1.186-.47-.196-.5.398-.17.573 1.465-.393.165-.211-.52-1.184.47.715 1.829 1.61-.629-.212-.55.402-.16.386.99"/><path d="m60.03 69.25c-.45.563-.765.858-1.284 1.17-1.436.871-3.048.526-3.87-.83-.815-1.343-.397-2.964.972-3.797.44-.269.782-.394 1.284-.465l-.174-.284.376-.229.738 1.222-.373.228-.266-.438c-.555-.034-.82.023-1.178.239-.947.576-1.13 1.767-.442 2.899.67 1.103 1.917 1.522 2.859.952.34-.209.541-.431.741-.824l-.316-.516.382-.231.551.904"/><path d="m62.43 61.03l-.497.451 2.02 2.214c.608.666.759 1.292.474 1.982-.15.355-.381.685-.686.961-.954.874-2.05.91-2.792.102l-2.171-2.38-.447.406-.223-.246 1.646-1.503.227.247-.442.401 2.01 2.199c.541.593.895.767 1.339.654.208-.061.416-.172.592-.336.708-.642.737-1.439.079-2.158l-1.998-2.189-.488.446-.23-.255 1.362-1.245.231.249"/><path d="m71.38 56.38l-1.06 1.96-.3-.16.29-.535-4.04-2.185-.289.534-.291-.161 1.063-1.962.297.159-.291.52 4.04 2.192.28-.522.3.16"/><path d="m73.42 51.607l-.91 2.403-.31-.12.27-.72-4.17-1.573-.488 1.289.628.234-.16.41-1.27-.48.15-.407.22.078 1.33-3.531-.21-.08.15-.414 1.269.474-.154.416-.615-.236-.49 1.284 4.173 1.566.267-.71.32.117"/><path d="m74.827 45.742l-.427 2.191-.33-.064.12-.589-2.16-.421-2.65 1.091-.1.49-.329-.06.429-2.19.33.06-.12.582 1.93-.772-1.5-1.38-.136.66-.324-.06.353-1.82.327.062-.11.568 1.89 1.719 2.36.461.12-.591.327.063"/><path d="m63.935 59.19l.298-.404c.336-.457.828-.497 1.339-.117.504.377.636.936.306 1.378l-.278.376-1.665-1.233m5.527.059l-.197.265c-.096.127-.21.164-.545.143l-2.071-.128c.264-.737.109-1.31-.465-1.737-.341-.25-.692-.354-1.06-.299-.403.06-.711.305-1.121.858l-1.4 1.888.266.198.365-.486 3.685 2.736-.36.486.268.2 1.331-1.793-.27-.198-.356.482-1.612-1.204.126-.171 2.216.158c.5.034.587-.003.869-.38l.602-.814-.271-.204z"/><path d="m6.298 50.673l-.534-2.173.327-.08.145.59 2.033-.5-.616-2.516-2.035.496.143.58-.323.08-.53-2.167.322-.08.147.587 4.46-1.09-.143-.588.326-.077.524 2.166-.325.079-.139-.58-1.968.48.618 2.52 1.966-.485-.146-.585.33-.07.528 2.16-.328.08-.142-.583-4.46 1.083.147.595-.327.078"/><path d="m11.05 55.658c1.388-.63 1.995-2.194 1.388-3.529-.611-1.336-2.188-1.896-3.573-1.264-1.383.633-2.01 2.191-1.398 3.527.606 1.335 2.198 1.898 3.583 1.266m-1.718-3.772c1.096-.5 2.36-.297 2.69.43.334.731-.343 1.82-1.437 2.321-1.105.501-2.372.298-2.704-.433-.331-.729.346-1.815 1.451-2.318z"/><path d="m13.08 63.23l-1.39-1.92.268-.19.394.54 2.788-2.02-4.152.84 1.935-3.773-2.73 1.978.396.545-.272.19-1.083-1.484.271-.197.395.541 3.713-2.7-.393-.54.272-.195.827 1.139-1.887 3.709 3.978-.832.929 1.279-.269.2-.397-.546-3.716 2.696.395.54-.272.2"/><path d="m17.226 67.31l-2.792-2.573.229-.247.447.409 3.11-3.379-.445-.41.225-.241 2.419 2.221.146-.162.322.292-.857.93-.315-.283.385-.417-1.216-1.13-1.275 1.383.938.867.369-.4.32.29-1.066 1.15-.318-.28.375-.417-.936-.863-1.336 1.45 1.272 1.17.4-.43.316.29-.717.78"/><path d="m21.972 70.56l-3.124-2.1.192-.28.501.34 2.559-3.808-.5-.332.188-.28 1.851 1.24-.188.28-.493-.33-2.489 3.694 1.409.951.332-.495.354.25-.592.87"/><path d="m27.717 73l-.305-.138.311-5.454-.442-.201-3.981 3.784-.45-.205-.138.304 1.5.684.142-.304-.583-.265 1.01-.961 1.761.801-.086 1.381-.505-.23-.142.303 1.77.806.139-.305m-2.566-3.119l1.56-1.479-.137 2.127-1.423-.648z"/><path d="m33.23 74.887l-.54-.127-1.789-4.45-.811 3.39.613.145-.077.325-1.752-.42.078-.33.642.16.976-4.07-.155-.45-.559-.138.078-.332 1.545.375 1.651 4.175.782-3.248-.612-.152.077-.32 1.753.418-.08.322-.653-.15-1.167 4.877"/><path d="m38.21 75.28c.781.028 1.353-.164 1.872-.625.561-.508.882-1.18.909-1.914.052-1.474-1.078-2.662-2.584-2.716l-2.485-.093-.01.338.605.02-.167 4.587-.605-.021-.011.335 2.476.089m-.608-4.661l.674.027c.934.035 1.694 1.067 1.655 2.236-.048 1.251-.841 2.171-1.84 2.136l-.648-.024.159-4.375z"/><path d="m39.34 43.492l-.471-.236-.304-.794-.689-.302-.777-.693-.462.508-.689.162-.367.58-.554.589-.754.402-.521.883-.296.391-.508.397-.282-.298-.302.287-.377.698c-.198-.521-.318-.925-.378-1.759-.111-1.546-.223-3.486-.332-5.472 2.55-.55 5.795-.913 8.429-.938v6.02c-.121-.073-.242-.131-.366-.426"/><path d="m39.706 46.39h-7.582c.112.235.239.453.387.66.545.766 1.323 1.333 2.309 1.635 1.338.41 2.192.679 2.814.878l.742.232c.606.187 1.031.462 1.329.762l.001-4.167"/><path d="m47.713 43.46c.208-.165.446-.358.761-.472.045-.709.09-1.465.138-2.249-.084.057-.171.128-.279.213-.361.293-.813.661-1.609.661-.745 0-1.228-.298-1.615-.538-.315-.195-.568-.347-.94-.347-.409 0-.761.209-1.135.434-.404.239-.86.513-1.418.513-.573 0-.986-.176-1.325-.36v2.128c.076.043.151.089.224.134.34.209.634.39 1.101.39.288 0 .575-.172.912-.376.45-.268.961-.573 1.642-.573.647 0 1.074.26 1.457.493.338.211.633.389 1.098.389.445 0 .687-.193.988-.44"/><path d="m41.615 48.31c-.573 0-.986-.174-1.325-.363v2.606c.297-.299.721-.574 1.33-.761l.739-.232c.623-.198 1.473-.467 2.815-.878.391-.121.75-.281 1.076-.482-.488-.089-.843-.307-1.142-.491-.315-.195-.568-.348-.94-.348-.409 0-.761.212-1.135.435-.403.24-.859.514-1.418.514"/><path d="m47.713 40.19c.248-.199.549-.439.961-.534.016-.271.032-.545.047-.82-2.55-.55-5.792-.913-8.43-.938v2.274c.076.046.151.088.224.135.34.207.634.391 1.101.391.288 0 .575-.176.912-.377.45-.272.961-.576 1.642-.576.647 0 1.074.267 1.457.495.338.21.633.39 1.098.39.445.001.687-.193.988-.44"/><path d="m40.29 44.59v2.217c.076.042.151.09.224.134.34.209.634.391 1.101.391.288 0 .575-.174.912-.375.45-.269.961-.575 1.642-.575.647 0 1.074.262 1.457.493.338.211.633.391 1.098.391.363 0 .589-.13.825-.308.487-.721.77-1.613.838-2.651.001-.046.005-.088.009-.13-.021.014-.041.033-.063.049-.361.293-.813.656-1.609.656-.745 0-1.228-.294-1.615-.531-.315-.198-.568-.352-.94-.352-.409 0-.761.21-1.135.438-.404.239-.86.512-1.418.512-.574.001-.988-.173-1.326-.359"/><path d="m39.998 31.04c-2.798 0-6.358.403-9.05 1.015.066 1.758.172 3.989.293 6.203 2.533-.535 5.883-.934 8.755-.934 2.874 0 6.223.4 8.755.934.123-2.214.231-4.445.292-6.203-2.685-.612-6.25-1.015-9.05-1.015m6.624 1.715l.199-.449.047.485.483.052-.444.202.102.476-.324-.363-.418.245.241-.423-.358-.326.472.101m-2.244-.293l.179-.456.072.481.483.029-.432.222.124.472-.344-.35-.406.268.223-.435-.376-.31.477.079m-2.239-.187l.151-.465.099.481.482.002-.422.244.147.466-.356-.334-.393.285.198-.444-.387-.291.481.056m-2.255-.066l.125-.471.123.471.483-.026-.402.269.171.455-.376-.306-.373.306.171-.455-.407-.269.485.026m-2.254.079l.099-.479.152.464.479-.053-.39.288.201.446-.393-.285-.356.331.146-.465-.42-.242.482-.005m-2.249.199l.074-.481.175.453.478-.077-.372.311.223.433-.408-.266-.341.35.122-.472-.43-.22.479-.031m-2.234.301l.049-.483.198.445.47-.098-.357.326.244.424-.42-.247-.322.364.098-.477-.442-.202.482-.052m-.877 2.534l.098-.48-.445-.197.479-.054.048-.484.2.442.474-.097-.358.326.244.424-.419-.246-.321.366m1.799 1.666l-.417-.249-.321.361.099-.476-.438-.205.479-.046.057-.484.194.447.47-.095-.358.322.235.425m.651-2.355l-.334.353.113-.475-.434-.214.483-.036.064-.484.181.451.474-.083-.365.315.23.431-.412-.258m1.481 2.105l-.406-.269-.343.345.124-.469-.428-.225.481-.026.076-.481.175.458.476-.076-.377.307.222.436m.652-2.331l-.353.341.139-.472-.428-.232.486-.012.084-.482.163.46.479-.065-.382.299.209.442-.397-.279m1.476 2.177l-.395-.287-.355.331.147-.467-.418-.243h.482l.097-.479.15.463.483-.054-.391.292.2.445m.656-2.297l-.365.321.159-.461-.414-.255.48.01.112-.475.139.465.481-.036-.397.28.19.448-.385-.297m1.473 2.257l-.377-.308-.374.308.174-.459-.406-.267.48.026.126-.472.124.472.482-.026-.404.267.175.459m.668-2.253l-.383.295.187-.449-.394-.28.48.038.139-.466.11.477.483-.011-.414.255.158.464-.366-.323m1.457 2.344l-.355-.33-.392.285.196-.445-.384-.289.48.053.151-.462.098.476.486.01-.424.236.144.466m.676-2.216l-.396.275.208-.44-.381-.301.48.064.161-.458.086.478.484.021-.427.227.133.47-.348-.336m1.45 2.414l-.34-.346-.407.268.223-.435-.375-.308.478.074.173-.454.074.483.484.025-.432.222.122.471m.686-2.188l-.415.262.232-.435-.371-.315.476.084.187-.451.062.485.48.036-.432.211.112.475-.331-.352m1.44 2.483l-.325-.363-.418.248.242-.424-.359-.326.471.095.196-.442.05.482.482.049-.441.202.102.479m1.01-1.785l-.313-.372-.427.237.251-.415-.348-.335.468.109.205-.444.039.486.481.063-.447.189.091.482"/></g></svg>