<svg enable-background="new 0 0 187 45" viewBox="0 0 187 45" xmlns="http://www.w3.org/2000/svg"><g fill="#231f20"><path d="m106.9 15h-2.7c-.1 0-.2.1-.3.2l-2 3.3-4.2-7.2c-.1-.1-.2-.2-.3-.2h-3.3c-.1 0-.3.1-.3.2-.1.1-.1.3 0 .4l5.9 10.1v7.4c0 .2.2.4.4.4h2.9c.2 0 .4-.2.4-.4v-7.2l3.9-6.4c.1-.1.1-.3 0-.4s-.2-.2-.4-.2z"/><path d="m120.8 11h-14.2c-.1 0-.2.1-.3.2l-1.3 2.2c-.1.1-.1.3 0 .4s.2.2.3.2h5.7v15.2c0 .2.2.4.4.4h2.9c.2 0 .4-.2.4-.4v-15.3h5.3c.1 0 .3-.1.3-.2l.9-2.2c0-.1 0-.2 0-.3-.2-.1-.3-.2-.4-.2z"/><path d="m79.3 28.8-8.9-9 8.1-8.2c.1-.1.1-.3.1-.4-.1-.1-.2-.2-.3-.2h-3.6c-.1 0-.2 0-.3.1l-7.8 8.5v-8.3c0-.2-.2-.4-.4-.4h-2.9c-.2 0-.4.2-.4.4v17.7c0 .2.2.4.4.4h2.9c.2 0 .4-.2.4-.4v-8.3l8.2 8.6c.1.1.2.1.3.1h4.2c.2 0 .4-.2.4-.4-.2 0-.3-.1-.4-.2z"/><path d="m170.4 13.3c-.9-.8-2-1.5-3.3-1.9s-2.7-.7-4.3-.7c-1.3 0-2.4.1-3.3.2s-1.8.2-2.6.4c-.2 0-.3.2-.3.4v17.1c0 .2.1.3.3.4.7.2 1.6.4 2.6.5s2.1.2 3.3.2c1.6 0 3-.2 4.3-.7s2.4-1.1 3.3-2c.9-.8 1.6-1.8 2.1-3s.7-2.5.7-3.9c0-1.5-.2-2.8-.7-4-.5-1.1-1.2-2.1-2.1-3zm-1.5 9.6c-.3.8-.7 1.5-1.3 2.2-.6.6-1.2 1.1-2.1 1.5-.8.4-1.8.6-2.8.6-.5 0-1.1 0-1.6-.1-.4-.1-.7-.1-1-.2v-13.4h1.9c1.2 0 2.2.2 3.2.5.9.3 1.7.8 2.3 1.4s1.1 1.3 1.4 2.2c.3.8.5 1.8.5 2.8 0 .9-.2 1.7-.5 2.5z"/><path d="m92.7 26.6h-7.9v-5.1h5.1c.1 0 .3-.1.3-.2l.9-2c0-.1 0-.2 0-.3-.1-.1-.2-.2-.3-.2h-6v-5h6.4c.1 0 .3-.1.3-.2l.9-2c.1-.1 0-.2 0-.3-.1-.1-.2-.2-.3-.2h-10.6c-.2 0-.4.2-.4.4v17.7c0 .2.2.4.4.4h9.9c.1 0 .2-.1.3-.2l1.2-2.1c.1-.1.1-.2 0-.4 0-.2-.1-.3-.2-.3z"/><path d="m147.6 11.2c-.1-.1-.2-.2-.3-.2h-3.1c-.1 0-.2.1-.3.2s-.1.2 0 .3l.6 1.3-6.8 16.2v.3c.1.1.2.2.3.2h2.7c.1 0 .3-.1.3-.2l1.6-3.9h6.6l1.6 3.9c.1.1.2.2.3.2h3.2c.2 0 .4-.2.4-.4 0-.1 0-.2-.1-.2zm-3.9 11.4 2.2-5.7 2.2 5.7z"/><path d="m186.6 26.6h-7.9v-5.1h5.1c.1 0 .3-.1.3-.2l.9-2c.1-.1 0-.2 0-.3-.1-.1-.2-.2-.3-.2h-6v-5h6.4c.1 0 .3-.1.3-.2l.9-2c.1-.1 0-.2 0-.3-.1-.1-.2-.2-.3-.2h-10.6c-.2 0-.4.2-.4.4v17.7c0 .2.2.4.4.4h9.9c.1 0 .2-.1.3-.2l1.2-2.1c.1-.1.1-.3 0-.4.1-.2 0-.3-.2-.3z"/><path d="m137.8 28.8-6.3-7.6c.3-.1.5-.3.8-.4.5-.3.9-.7 1.4-1.1.4-.4.8-1 1.1-1.5.3-.6.4-1.3.4-2 0-.9-.2-1.7-.6-2.4s-.9-1.2-1.6-1.7c-.6-.4-1.4-.8-2.3-1s-1.8-.3-2.8-.3c-1.2 0-2.3.1-3.1.2s-1.6.2-2.4.4c-.2 0-.3.2-.3.4v17.5c0 .2.2.4.4.4h2.9c.2 0 .4-.2.4-.4v-6.8h2.3l5.6 7c.1.1.2.1.3.1h3.6c.2 0 .4-.2.4-.4s-.1-.3-.2-.4zm-7-10.3c-.2.3-.5.5-.8.7s-.5.3-.7.4h-3.5v-6.2h1.3c1.6 0 2.7.2 3.5.7.7.4 1 1.2 1 2.2 0 .4-.1.8-.2 1.1-.2.5-.4.8-.6 1.1z"/><path d="m68.5 37.9c.1 0 .2-.1.2-.1.2-.1.4-.3.6-.4.2-.2.4-.4.5-.6.1-.2.2-.5.2-.9 0-.3-.1-.7-.3-.9-.2-.3-.5-.5-.8-.7s-.8-.3-1.2-.4c-.5-.1-1-.2-1.5-.2-.7 0-1.3 0-1.8.1-.6 0-1 .1-1.4.2-.1 0-.1.1-.1.1v8.3c0 .1 0 .1.1.1s.3.1.6.1c.2 0 .5.1.8.1s.6.1 1 .1h1c.6 0 1.1-.1 1.6-.2s.9-.3 1.3-.5.7-.5.9-.8c.2-.3.3-.7.3-1.1 0-.6-.2-1.1-.6-1.6-.4-.3-.8-.5-1.4-.7zm-1-2.7c.4.2.6.5.6.9s-.1.6-.3.9c-.2.2-.4.4-.7.6h-.2-.6-.8-.7v-2.7h.9c.8 0 1.4.1 1.8.3zm-2.7 3.5h1.2c.8 0 1.3.1 1.8.3.2.1.4.2.5.4s.2.4.2.6c0 .5-.2.8-.6 1.1s-1 .4-1.7.4c-.4 0-.8 0-1-.1-.2 0-.3-.1-.4-.1z"/><path d="m76.3 33.8-.1-.1h-1.8s-.1 0-.1.1v.1l.3.7-3.8 7.8v.1l.1.1h1.6c.1 0 .1 0 .1-.1l.9-1.9h3.9l.9 1.9.1.1h1.8s.1 0 .1-.1v-.1zm-.9 2.6 1.4 2.9h-2.7z"/><path d="m90.2 33.8h-1.4-.1v.1 5.6l-5.9-5.7h-.1-2.1c-.1 0-.1 0-.1.1s0 .1 0 .1l1.1 1v7.5.1h.1 1.4.1v-.1-5.8l6.2 5.9h.1.8.1v-.1-8.6z"/><path d="m101.3 42.4-5.2-4.4 4.6-4s.1-.1 0-.1c0-.1-.1-.1-.1-.1h-2.1-.1l-4.6 4.3v-4.2-.1h-.1-1.7-.1v.1 8.6.1h.1 1.7.1v-.1-4.2l4.8 4.3h.1 2.4c.1 0 .1 0 .1-.1.2 0 .2-.1.1-.1z"/><path d="m30.8 9.7c.7 0 1.2-.6 1.1-1.3l-1.2-6.7c-.1-.7-.8-1.3-1.6-1.3h-1.1c-.7 0-1.4.6-1.6 1.3l-1.2 6.7c-.1.7.4 1.3 1.1 1.3z"/><path d="m31.2 13.9c-.4-.6-1.3-1.1-2-1.1h-1.1c-.7 0-1.7.5-2 1.1l-16.6 27.1c-.4.6-.2 1.5.3 2l1.7 1.3c.6.5 1.4.4 1.8-.2l14.5-20.2c.4-.6 1.1-.6 1.6 0l14.5 20.2c.4.6 1.2.7 1.8.2l1.7-1.3c.6-.5.7-1.4.3-2z"/><path d="m21.6 13c.4-.6.1-1.3-.6-1.4l-16.4-3c-.8-.1-1.6.4-1.9 1l-.8 1.8c-.3.7.1 1.4.8 1.7l14.4 4.9c.7.2 1.6-.1 2-.7z"/><path d="m38.2 17.3c.4.6 1.3 1 2 .7l14.4-4.8c.7-.2 1.1-1 .8-1.7l-.8-1.8c-.3-.7-1.2-1.1-1.9-1l-16.4 3c-.7.1-1 .8-.6 1.4z"/></g></svg>