<?xml version="1.0" encoding="utf-8"?>
<!-- Generator: Adobe Illustrator 23.0.6, SVG Export Plug-In . SVG Version: 6.00 Build 0)  -->
<svg version="1.1" id="Layer_1" xmlns="http://www.w3.org/2000/svg" xmlns:xlink="http://www.w3.org/1999/xlink" x="0px" y="0px"
	 viewBox="0 0 340 160" enable-background="new 0 0 340 160" xml:space="preserve">
<path fill="currentColor" d="M140.7,143.4h5.7v16h-5.7V143.4"/>
<path fill="currentColor" d="M125.3,143.4l-6.9,16h6.2l0.8-2.6h6.1l0.9,2.6h6.2l-6.9-16L125.3,143.4 M126.7,153.2l1.8-5.4l1.9,5.4H126.7"/>
<path fill="currentColor" d="M79.8,155.3h5.1v4.2h-5.1V155.3z"/>
<path fill="currentColor" d="M73.1,152.4c0,1.5-0.3,2.4-1,3.1c-0.6,0.6-1.5,1-2.7,1c-1.5,0-2.7-0.5-3.3-1.6c-0.3-0.4-0.4-1.2-0.4-2.3v-9.1H60v10.3
	c0,2.4,0.9,4.2,2.7,5.1c1.3,0.8,3.6,1.2,6.7,1.2c4.4,0,7.1-1,8.4-3c0.6-1,1-2.8,1-5.2v-8.4h-5.7V152.4"/>
<path fill="currentColor" d="M107.6,155.3h5.2v4.2h-5.2V155.3"/>
<path fill="currentColor" d="M103.7,150.4l-5.3-1.2c-1.7-0.4-2.6-0.7-2.8-1.1l-0.2-0.5c0-0.8,0.8-1.2,2.5-1.2c1.6,0,2.5,0.4,2.8,1.4l5.5-0.3
	c-0.4-2.1-1.6-3.4-3.5-4.1l-4.8-0.6c-3.1,0-5.4,0.6-6.7,1.9c-0.8,1-1.2,2-1.2,3.2c0,1.9,1.1,3.2,3.1,4.1l6.8,1.5
	c0.8,0.3,1.1,0.6,1.1,1.2c0,0.5-0.3,0.8-0.8,1.2l-1.9,0.4c-2.2,0-3.3-0.6-3.5-1.8l-5.6,0.2c0.3,1.5,0.8,2.6,1.7,3.4
	c1.3,1.2,3.4,1.8,6.6,1.8c4.3,0,7.1-1,8.3-2.9c0.5-0.8,0.8-1.7,0.8-2.8C106.5,152.3,105.6,151.1,103.7,150.4"/>
<path fill="currentColor" d="M236.5,151.5c0.7-0.8,1.1-1.8,1.1-3c0-1.8-0.6-3.1-1.9-4.1c-1-0.7-2.4-1.1-4.5-1.1h-11.7v16h5.6v-5.8h3.1l3.2,5.8h6.3
	l-3.9-6.4C235,152.7,235.9,152.2,236.5,151.5 M229.5,150h-4.3v-2.9h4.8c0.6,0,1.1,0.1,1.5,0.3l0.3,1.1
	C231.8,149.6,231,150,229.5,150"/>
<path fill="currentColor" d="M254.1,155.3c-1,0.8-2.1,1.1-3.2,1.1c-1.6,0-2.8-0.5-3.6-1.6c-0.7-0.9-1.1-1.9-1.1-3.3c0-1.6,0.4-2.9,1.4-3.8
	c0.9-0.8,2-1.3,3.4-1.3c1,0,1.9,0.3,2.7,0.8c0.6,0.4,1.1,1,1.3,1.7l5.3-1c-1.1-3.3-4.4-5-9.5-5c-4,0-6.9,1.1-8.7,3.1
	c-1.2,1.5-1.9,3.3-1.9,5.5c0,4.1,2,6.6,5.9,7.9l4.6,0.6c4.4,0,7.4-1.2,9-3.8l0.9-2l-5.4-0.5C254.9,154.3,254.6,154.9,254.1,155.3"/>
<path fill="currentColor" d="M268.7,155.8v-2.5h10.2v-3.6h-10.2V147h11.1v-3.6h-16.8v16H280v-3.7L268.7,155.8"/>
<path fill="currentColor" d="M167.6,151.5c0.6-0.8,1-1.8,1-3c0-1.8-0.6-3.1-1.8-4.1c-1-0.7-2.4-1.1-4.5-1.1h-11.6v16h5.7v-5.8h3l3.3,5.8h6.3l-4-6.4
	C166,152.8,166.9,152.3,167.6,151.5 M160.6,150h-4.3v-2.9h4.7c0.7,0,1.2,0.1,1.4,0.3c0.3,0.3,0.4,0.6,0.4,1.1
	C162.9,149.6,162.2,150,160.6,150"/>
<path fill="currentColor" d="M211.5,143.8c-1.5-0.6-3.5-0.9-5.9-0.9c-4.2,0.1-7.1,1.3-8.9,3.7c-1,1.4-1.4,3-1.4,5c0,1.9,0.5,3.4,1.6,4.8
	c1.7,2.4,4.6,3.6,8.9,3.6c3.3,0,5.9-0.7,7.6-2.2l1.9-2.2c0.8-1.2,1.2-2.7,1.2-4.3C216.4,147.7,214.8,145.1,211.5,143.8 M208.2,155.9
	c-0.6,0.4-1.3,0.5-2.2,0.5c-1.6,0-2.9-0.5-3.7-1.6c-0.8-1-1.1-2.1-1.1-3.4c0-1.4,0.3-2.4,1.1-3.3c0.9-1.2,2.1-1.7,3.8-1.7
	c1.7,0.1,3,0.8,3.8,1.9c0.6,0.9,0.9,2,0.9,3.2C210.6,153.7,209.8,155.1,208.2,155.9"/>
<path fill="currentColor" d="M177.7,159.5h5.6v-5.8h9v-3.6h-9V147h9.8v-3.6h-15.5L177.7,159.5"/>
<path fill="currentColor" d="M109.2,53l12.2,25.6l17.4,12.7h22.8L109.2,53"/>
<path fill="currentColor" d="M157.4,104.8l-8.6-6.2l-14.4,10.5l17.5,12.7L157.4,104.8"/>
<path fill="currentColor" d="M183,123.7l-14.3-10.5l-14.3,10.5l14.3,10.4L183,123.7"/>
<path fill="currentColor" d="M231.3,46.6L243.6,21l-73.3,53.6l4.4,13.4L231.3,46.6"/>
<path fill="currentColor" d="M233.2,0l-17.9,37.4l26.6-19.3L233.2,0"/>
<path fill="currentColor" d="M162.8,87.9l4.4-13.4L93.8,21l12.3,25.7L162.8,87.9"/>
<path fill="currentColor" d="M160.7,101.1c0,2.2,0.8,4.1,2.3,5.6c1.6,1.6,3.4,2.4,5.6,2.4c2.3,0,4.1-0.8,5.6-2.4c1.6-1.5,2.4-3.4,2.4-5.6
	c0-2.3-0.8-4.2-2.4-5.7c-1.5-1.5-3.4-2.3-5.6-2.3c-2.2,0-4.1,0.8-5.6,2.3C161.5,97,160.7,98.9,160.7,101.1"/>
<path fill="currentColor" d="M203,109.1l-14.4-10.5l-8.5,6.2l5.4,16.9L203,109.1"/>
<path fill="currentColor" d="M104.3,0l-8.7,18.1l26.5,19.3L104.3,0z"/>
<path fill="currentColor" d="M228.3,53l-52.5,38.3h22.8L216,78.6L228.3,53"/>
</svg>
