<svg xmlns="http://www.w3.org/2000/svg" viewBox="0 0 340 200" enable-background="new 0 0 340 200"><path d="m0 180.7c0-11.288 8.439-19.2 20.04-19.2 4.627 0 7.994 1.112 9.969 2.02 1.188.545 1.749 1.913 1.259 3.124l-.421 1.043c-.504 1.247-1.925 1.855-3.166 1.336-1.614-.675-4.06-1.402-7.113-1.402-7.174 0-13.187 5.064-13.187 13.08s6.01 12.87 13.187 12.87c3 0 5.416-.703 7.03-1.368 1.273-.525 2.722.119 3.194 1.412l.369 1.01c.424 1.16-.083 2.469-1.196 3-1.901.913-5.224 2.061-9.925 2.061-11.604.001-20.04-7.805-20.04-18.988"/><path d="m52.33 199.69c-10.971 0-19.833-7.279-19.833-18.883 0-11.709 8.861-19.305 19.833-19.305s19.938 7.595 19.938 19.305c0 11.604-8.967 18.883-19.938 18.883m12.764-18.989c0-8.123-5.802-13.292-12.765-13.292-6.857 0-12.659 5.169-12.659 13.292s5.802 13.08 12.659 13.08c6.963 0 12.765-4.958 12.765-13.08"/><path d="m83.91 167.62c2.637-3.798 6.646-6.118 13.608-6.118 10.233 0 16.246 6.646 16.246 16.562v18.356c0 1.34-1.086 2.426-2.426 2.426h-2.427c-1.34 0-2.426-1.086-2.426-2.426v-17.407c0-6.54-3.587-11.393-10.549-11.393-7.701 0-10.971 5.802-10.971 9.917v18.883c0 1.34-1.086 2.426-2.426 2.426h-2.427c-1.34 0-2.426-1.086-2.426-2.426v-31.648c0-1.34 1.086-2.426 2.426-2.426h.528c1.21 0 2.235.891 2.403 2.09l.515 3.677c.199-.319.352-.493.352-.493"/><path d="m135.68 187.56l10.852-23.793c.394-.865 1.257-1.419 2.207-1.419h2.562c1.796 0 2.969 1.884 2.177 3.496l-15.55 31.648c-.408.83-1.252 1.356-2.177 1.356h-2.042c-.925 0-1.769-.526-2.177-1.356l-15.55-31.648c-.792-1.612.381-3.496 2.177-3.496h2.667c.95 0 1.813.555 2.207 1.419l10.811 23.703.885 2.127.951-2.037"/><path d="m161.9 185.35c1.813 5.601 6.839 8.435 12.861 8.435 4.112 0 7.189-1.071 9.04-1.968 1.184-.572 2.602-.084 3.2 1.087l.401.784c.583 1.141.187 2.549-.923 3.191-2.144 1.24-6.103 2.919-11.826 2.919-12.448 0-20.572-7.912-20.572-19.09 0-11.08 7.807-19.2 19.09-19.2 11.393 0 17.934 7.912 17.934 18.25 0 1.34-1.086 2.426-2.426 2.426h-27.15c.049 1.584.049 1.41.364 3.169m20.895-12.05c-1.772-3.531-5.188-5.892-9.722-5.892-4.608 0-8.141 2.115-10.235 5.811-.321.566-.77 1.392-1.293 3.577h22.17c-.206-1.626-.453-2.293-.919-3.496"/><path d="m202.47 167.62c1.371-2.11 4.536-5.274 10.76-5.274 1.796 0 3.262.248 4.377.548 1.433.385 2.17 1.969 1.567 3.325l-.591 1.329c-.48 1.081-1.663 1.649-2.811 1.365-.766-.19-1.758-.343-2.965-.343-4.43 0-9.178 3.27-9.178 7.912v19.938c0 1.34-1.086 2.426-2.426 2.426h-2.426c-1.34 0-2.426-1.086-2.426-2.426v-31.648c0-1.34 1.086-2.426 2.426-2.426h.527c1.21 0 2.235.892 2.403 2.09l.497 3.573c.077-.097.266-.389.266-.389"/><path d="m222.02 192.2c.631-1.081 1.975-1.507 3.11-.98 2.282 1.06 6.406 2.562 11.457 2.562 6.01 0 9.495-1.688 9.495-4.853 0-7.595-25.11-3.797-25.11-16.879 0-5.908 4.747-10.549 15.507-10.549 6.106 0 10.449 1.074 12.934 1.926 1.361.467 2.01 2.01 1.406 3.315l-.61 1.313c-.55 1.185-1.938 1.732-3.137 1.215-1.951-.841-5.265-1.862-9.854-1.862-5.697 0-9.283 1.055-9.283 4.536 0 7.279 25.11 3.06 25.11 16.773 0 5.908-4.747 10.971-16.457 10.971-7.092 0-11.765-1.782-14.235-3.086-1.214-.641-1.634-2.172-.942-3.358l.609-1.044"/><path d="m260.61 162.35h2.426c1.34 0 2.426 1.086 2.426 2.426v31.648c0 1.34-1.086 2.426-2.426 2.426h-2.426c-1.34 0-2.426-1.086-2.426-2.426v-31.648c0-1.34 1.086-2.426 2.426-2.426"/><path d="m270.7 180.7c0-11.288 8.439-19.2 20.04-19.2 4.627 0 7.993 1.112 9.968 2.02 1.188.545 1.749 1.912 1.259 3.124l-.421 1.043c-.504 1.247-1.925 1.855-3.166 1.336-1.614-.675-4.06-1.402-7.113-1.402-7.174 0-13.187 5.064-13.187 13.08s6.01 12.87 13.187 12.87c3 0 5.416-.703 7.03-1.367 1.273-.525 2.722.118 3.195 1.412l.369 1.01c.424 1.16-.083 2.469-1.196 3-1.901.913-5.224 2.061-9.925 2.061-11.604 0-20.04-7.806-20.04-18.989"/><path d="m333.04 180.27v-2.52c0-6.435-3.481-10.127-12.238-10.127-3.814 0-6.759.973-8.576 1.802-1.202.548-2.615.034-3.188-1.157l-.553-1.151c-.587-1.222-.065-2.684 1.165-3.254 2.243-1.038 6.316-2.359 12.524-2.359 12.87 0 17.828 7.279 17.828 17.195v17.723c0 1.34-1.086 2.426-2.426 2.426h-.591c-1.182 0-2.192-.852-2.391-2.02l-.48-2.814c-.157.28-.336.507-.336.507-.949 1.371-4.642 5.169-13.926 5.169-10.866 0-15.718-5.38-15.718-11.815 0-6.224 5.274-11.288 16.667-11.288 6.752 0 10.233 2 11.604 3.059.002 0 .354.319.635.622m-11.921 14.04c6.857 0 11.71-4.114 11.71-6.646 0-3.587-4.853-6.119-11.71-6.119-6.118 0-9.706 2.426-9.706 6.33 0 3.586 3.165 6.435 9.706 6.435"/><path d="m148.87 134.43c-30.27 0-54.902-24.629-54.902-54.902s24.628-54.902 54.902-54.902c12.569 0 24.855 4.357 34.596 12.268 9.594 7.794 16.342 18.699 19 30.708 1.168 5.266-1.01 10.01-7.422 11.648-5.228 1.332-9.752-1.488-11.648-7.422-4.999-15.643-18.08-27.67-34.531-27.67-19.502 0-35.37 15.867-35.37 35.37s15.867 35.37 35.37 35.37c4.536 0 8.774-1.374 13.12-2.509 5.381-1.407 10.679.442 12.693 5.446 2.388 5.934-.437 10.692-5.446 12.693-6.483 2.592-13.334 3.904-20.362 3.904"/><path d="m151.08 85.33c16.673 25.27 50.793 32.26 76.06 15.589s32.26-50.793 15.589-76.06c-6.922-10.491-17.325-18.347-29.29-22.12-11.789-3.716-24.608-3.342-36.1 1.049-5.04 1.926-7.804 6.355-5.635 12.61 1.767 5.097 6.612 7.321 12.61 5.635 15.81-4.443 33.05-.151 42.11 13.583 10.74 16.278 6.235 38.26-10.04 49s-38.26 6.235-49-10.04c-2.498-3.786-3.685-8.08-5.129-12.328-1.789-5.266-6.25-8.67-11.536-7.595-6.268 1.274-8.684 6.253-7.595 11.536 1.408 6.838 4.085 13.279 7.956 19.15"/></svg>