<svg xmlns="http://www.w3.org/2000/svg" viewBox="0 0 340 160" enable-background="new 0 0 340 160"><path d="m66.71 68.769c-6.171-1.01-17-1.384-20.659 4.283-2.896 4.407 2.519 10.457 7.434 16.373 4.03 4.662 8.314 9.07 6.553 11.717-1.515 2.14-10.712 2.14-13.859 2.267-3.779.252-9.449.252-10.329.756-.883.501-1.384 1.891 1.891 2.519 2.644.504 8.815 1.387 15.365 1.387 6.933 0 14.11-1.135 15.748-6.426 1.257-4.283-3.151-8.818-6.93-13.477-4.283-5.04-8.438-8.693-8.186-12.345.376-2.771 5.795-2.896 14.864-3.02 2.02-.124 5.795-.124 5.04-1.636-.627-1.387-3.529-1.764-6.928-2.395"/><path d="m38.622 81.49c-3.907-2.647-10.83-3.651-16.5-3.275-5.166.252-13.853 1.888-13.605 3.527.379 1.636 5.922 1.132 8.438 1.132 5.543 0 14.488.379 15.872 4.03 3.02 7.682-17.505 21.667-21.791 20.279-2.02-.631 4.03-10.706 6.171-14.36 1.263-2.14 3.278-5.539 1.512-5.795-1.764-.249-3.904 2.899-5.16 4.79-3.655 5.04-7.437 10.581-10.457 16.12-.883 1.767-3.906 7.05-2.899 7.683 1.01.631 5.67-.252 11.592-2.516 18.768-7.434 27.08-17.13 29.346-25.07.756-2.772-.504-5.291-2.519-6.551"/><path d="m31.694 48.615c6.423 0 12.721 1.132 14.233 2.896 2.392 2.647-1.636 9.325-13.981 18.391-2.392 1.636-4.155 3.272-4.532 4.03-.255.504-.128 1.01.504 1.135.628.124 2.264-.252 5.04-1.515 10.958-5.415 23.555-16.248 21.04-23.679-1.515-4.538-9.701-5.922-16.503-5.67-6.927.379-13.1 2.02-12.721 3.275.503 1.513 5.163 1.136 6.926 1.136"/><path d="m119.07 76.04h-21.284l-1.235 5.609h11.905l-9.08 7.482-1.035 4.717h3.949c3.336 0 5.04 1.138 4.371 4.143-.768 3.475-3.151 4.568-6.195 4.568-2.953 0-5.737-.571-8.196-1.284l-1.924 5.716c2.483.804 5.512 1.333 9.61 1.333 7.758 0 13.428-3.287 15.07-10.715 1.278-5.81-1.918-8.141-6.981-8.714l9.901-7.768 1.122-5.087"/><path d="m139.41 76.04h-17.287l-.088.51c-.398 2.192-.225 4.702 3.233 4.702h12.794c5.075 0 7.01 3.679 5.761 10.563-1.15 6.305-4.556 11.128-9.719 11.128h-6.948l3.315-18.07h-5.91c-.798 0-1.36.568-1.439 1.093l-4.052 22.19h13.541c10.01 0 16.974-4.687 19.13-16.576 1.678-9.116-2.134-15.539-12.327-15.539"/><path d="m308.24 76.02h-34.913c-1.767 0-1.861.547-1.912.841l-.34 1.924h16.464l-5.172 29.3h2.186c1.49 0 1.849-.483 2.02-1.442l4.911-27.856h15.09c1.068 0 1.217-.206 1.378-1.093l.291-1.672"/><path d="m184.36 78.922c.983 0 1.964 0 2.173-1.196l.431-1.782h-24.338c-1.524 0-2.404.656-2.653 2.073l-5.145 30.07h27.343l.155-1.354c.24-1.305-.115-1.748-1.751-1.748h-21.566l1.912-10.481h19.07c.543 0 .929-.325 1-.762l.215-1.402c.076-.437-.203-.771-.741-.771h-19.07l2.152-12.645h20.811z"/><path d="m315.66 75.946c-1.527 0-2.404.653-2.653 2.073l-5.145 30.07h27.343l.152-1.357c.243-1.305-.112-1.748-1.748-1.748h-21.566l1.912-10.478h19.07c.543 0 .929-.328 1-.765l.212-1.399c.079-.437-.2-.771-.738-.771h-19.07l2.155-12.648h20.811c.983 0 1.964 0 2.17-1.196l.434-1.779h-24.338"/><path d="m265.8 76.59c-.334-.249-.683-.297-1-.306h-1.824l-5.898 31.808h3.864l5.297-29.762c.073-.24.131-.398.109-.704-.021-.344-.218-.796-.543-1.036"/><path d="m228.11 75.9h-1.654c-2.632 0-5.886 1.706-6.89 2.623l-12.782 10.994-10.1-11.504c-1.269-1.481-3.066-2.113-6.01-2.113h-.665l13.935 16.06-19.05 16.16h1.903c3.224 0 4.471-.376 6.365-1.918l13.04-11.574 9.95 11.38c1.269 1.484 3.069 2.113 6.02 2.113h.662l-13.823-15.972 19.1-16.243"/><path d="m244.51 76.5c-11.277 0-18.753 5.655-20.507 15.514-.911 5.172-.261 9.112 1.934 11.704 2.456 2.905 7.04 4.374 13.611 4.374h12.639l.176-1.035c.179-1.184-.124-1.651-1.606-1.651h-11.252c-2.829 0-7.871-.98-9.446-2.838-2.058-2.425-2.413-6.274-1.621-10.836 1.466-8.08 7.816-12.53 14.579-12.53h11.128c2.422 0 2.565-.786 2.662-1.308l.264-1.393h-12.561"/></svg>
