<?xml version="1.0" encoding="utf-8"?>
<!-- Generator: Adobe Illustrator 25.0.0, SVG Export Plug-In . SVG Version: 6.00 Build 0)  -->
<svg version="1.1" id="Layer_1" xmlns="http://www.w3.org/2000/svg" xmlns:xlink="http://www.w3.org/1999/xlink" x="0px" y="0px"
	 viewBox="0 0 540 79.2" enable-background="new 0 0 540 79.2" xml:space="preserve">
<path fill="#EC1D23" d="M111.7,18.1v35l-8,2.8V15.3L79.9,7v57.3l-8,2.8V4.2L59.8,0l-12,4.2v62.9l-8-2.8V7L16,15.3v40.6l-8-2.8v-35
	l-8,2.8v37.8l24,8.4v-46l8-2.8V70l23.9,8.2V9.9l4-1.4l4,1.4v68.4l24-8.4V18.3l8,2.8v46.2l24-8.4v-38L111.7,18.1z"/>
<path d="M181.4,41.3h18v-4.8h-18V25.9h26.8v-4.8h-32.3v37.1h33.2v-4.8h-27.7V41.3z"/>
<path d="M323,43.3c0,6.6-4.4,11-11,11c-6.4,0-10.3-4.4-10.3-11V21.1h-5.3v22.4c0,10.1,7.3,15.6,15.6,15.6c12.3,0,16.3-8.4,16.3-15.6
	V21.1H323V43.3"/>
<path d="M358.2,21.1h5.3v37.1h-5.3V21.1z"/>
<path d="M427.2,50.1l-26.4-29h-5.3v37.1h5.3V28.7L427.2,58h5.3V21.1h-5.3V50.1z"/>
<path d="M464.8,21.1h5.3v37.1h-5.3V21.1z"/>
<path d="M521.9,38l15.4-16.9h-6.6l-12.3,13.4l-11.9-13.4h-7L514.4,38l-18.7,20.2h6.8L518,41.7l14.5,16.5h7.5L521.9,38"/>
<path d="M249.6,19.5c-11,0-19.6,8.4-19.6,20.2V40c0,11.6,8.8,19.8,19.8,19.8c2.9,0,6.2-0.7,8.6-2l3.1,3.5h6.2l-5.3-6.2
	c4.4-3.3,7-8.8,7-15.4v-0.2C269.4,27.6,260.6,19.3,249.6,19.5 M263.9,39.5c0,5.3-1.8,8.6-4.8,11.6l-2.9-3.5H250l5.1,5.7
	c-1.3,0.7-3.5,1.1-5.3,1.1c-7.9,0-14.3-6.4-14.3-15.2v-0.2c0-8.8,5.9-15.2,13.8-15.2C257.5,24.1,263.9,30.5,263.9,39.5"/>
<path fill="#EC1D23" d="M143.2,41.8c3.8,0,6.9,3.1,6.9,6.9s-3.1,6.9-6.9,6.9s-6.9-3.1-6.9-6.9C136.2,44.9,139.4,41.8,143.2,41.8
	 M143.2,54.6c3.2,0,5.6-2.6,5.6-5.9s-2.4-5.9-5.6-5.9s-5.6,2.6-5.6,5.9C137.6,52.1,140,54.6,143.2,54.6 M140.5,44.7h3.1
	c1.9,0,2.8,0.8,2.8,2.3c0,1.3-0.8,2.2-2.1,2.2l2.3,3.6h-1.4l-2.3-3.6h-1.1v3.6h-1.3V44.7L140.5,44.7z M141.8,48.2h1.6
	c1,0,1.7-0.2,1.7-1.3c0-0.9-0.8-1.2-1.7-1.2h-1.6V48.2"/>
</svg>
