<svg xmlns="http://www.w3.org/2000/svg" viewBox="0 0 340 160" enable-background="new 0 0 340 160"><path d="m202.65 78.79c5.637-1.284 9.273-5.349 9.273-11.554 0-7.561-4.921-12.625-15.12-12.625h-16.475v49.927h17.05c10.627 0 16.332-4.993 16.332-13.48.002-6.777-4.064-11.127-11.05-12.268m-19.19-21.611h13.267c8.06 0 11.911 3.924 11.911 10.27s-3.853 10.198-11.911 10.198h-13.267v-20.468m13.767 44.793h-13.766v-21.755h13.766c8.914 0 13.195 4.064 13.195 10.841 0 6.847-4.28 10.914-13.195 10.914"/><path d="m231.61 69.02c-6.56 0-11.269 3.636-12.981 8.914l2.709.857c1.783-4.921 5.492-7.347 10.272-7.347 5.992 0 9.414 2.854 9.414 10.344v1.995l-4.566.215c-15.336.499-19.685 5.28-19.685 11.342 0 6.205 4.992 10.06 11.626 10.06 5.848 0 10.343-2.782 12.624-7.775v6.919h2.997v-22.04c.002-9.342-4.564-13.479-12.41-13.479m9.414 22.04c0 6.633-4.706 11.913-12.268 11.913-5.278 0-8.916-3.068-8.916-7.632 0-4.853 3.353-8.7 16.763-9.131l4.421-.142v4.992"/><path d="m265.78 69.02c-6.348 0-11.06 4.064-13.198 9.701v-8.846h-3.065v34.665h3.065v-17.404c0-9.202 5.138-15.55 12.627-15.55 5.849 0 8.843 3.496 8.843 10.341v22.611h3.068v-23.25c0-7.418-3.996-12.267-11.34-12.267"/><path d="m295.52 83.5l12.48-13.623h-3.7l-18.62 20.543v-35.807h-3.07v49.927h3.07v-10.41l7.84-8.49 12.99 18.9h3.49z"/><path d="m127.34 68.07h3.052c0 0-.025-10.909 9.942-10.909 0 0 2.517 0 3.034 0 0 .516 0 44.829 0 44.829h-4.772c-3.049-.299-5.588-2.264-8.04-4.593l-3.582-3.465c.782-1.059 1.823-2.668 2.549-4.339.827-1.899 1.433-5.472 1.806-6.353.122-.286.263-.565.429-.828.471-.745 1.265-1.378 2.072-1.729.614-.266 1.373-.443 2.049-.443h.456v-2.586h-14.948v2.586h1.013c2.726.008 4.938 2.218 4.938 4.989 0 3.562-2.668 6.487-2.668 6.487l-13.664-13.272c6.1-2.214 11.238-5.261 11.238-11 0-6.04-4.599-10.279-12.912-10.279-8.429 0-14.05 4.661-14.05 12.196 0 4.961 2.272 8.189 4.482 10.403-6.935 2.689-11.06 6.217-11.06 12.673 0 9.09 8.191 12.733 17.279 12.733 5.977 0 10.998-1.795 14.887-4.663.054-.04 2.58 4.065 10.04 4.065.543 0 28.374-.022 28.374-.022v-2.558h-5.461c0 0 0-44.37 0-44.829.516 0 3.036 0 3.036 0 9.938 0 9.942 10.909 9.942 10.909h3.052v-13.456h-42.52v13.457zm-18.306-8.37c3.289 0 5.323 2.646 5.323 6.411 0 4.185-1.856 7.784-5.859 9.939-2.571-2.511-4.786-5.932-4.786-10.06-.001-3.705 2.036-6.292 5.322-6.292m-.298 41.11c-5.917 0-10.343-4.376-10.343-10.233 0-4.124.956-6.636 3.707-8.428l16.495 16.198c-2.688 1.855-6.153 2.463-9.859 2.463"/><path d="m83.65 57.16h5.914v-2.558h-15.935c0 0-13.183 32.926-13.607 33.991-.429-1.065-13.681-33.991-13.681-33.991h-16.342v2.558h5.914l-.011 44.817h-4.89v2.558h14.422v-2.558h-6.399c0 0 0-37.39 0-39.1.754 1.898 16.07 40.524 16.07 40.524h2.586c0 0 15.11-38.623 15.856-40.524 0 2.089-.018 39.12-.018 39.12h-5.03v2.546h20.19v-2.546h-5.05c0-.001 0-44.83 0-44.83"/></svg>
