<?xml version="1.0" encoding="utf-8"?>
<!-- Generator: Adobe Illustrator 23.0.6, SVG Export Plug-In . SVG Version: 6.00 Build 0)  -->
<svg version="1.1" id="Layer_1" xmlns="http://www.w3.org/2000/svg" xmlns:xlink="http://www.w3.org/1999/xlink" x="0px" y="0px"
	 viewBox="0 0 340 160" enable-background="new 0 0 340 160" xml:space="preserve">
<path fill="currentColor" d="M91.5,53.8c-5.8,0-11.8,1.9-16,5.9c-5.2,5-7.5,12.2-7.6,19.2c-0.2,5.9,1,12,4.2,17.1c2.5,4.1,6.4,7.2,11,8.8
	c5,1.7,10.6,1.8,15.8,0.4c5.5-1.6,10.3-5.4,12.9-10.5c3.4-6.2,4-13.5,3-20.4c-0.9-5.5-3.2-10.9-7.4-14.8c-4.1-3.8-9.7-5.7-15.2-5.7
	C92.2,53.8,91.5,53.8,91.5,53.8z M21.6,55.8v48.5H30V71.7l25.4,32.6h6.9V55.8h-7.9v26.7L33.3,55.7C33.3,55.7,21.6,55.7,21.6,55.8z
	 M131.1,55.8l-17.8,48.5h8.6l12-32.8l12.2,32.8h13l-18.4-48.5H131.1L131.1,55.8z M149.6,55.8l-3.1,8.3l4.4,11.6l1.6-4.2l11.9,32.8
	h13.7l-18.3-48.5H149.6L149.6,55.8z M179.2,55.8c0,11.2-0.1,22.5,0,33.7c0.2,4.4,1.7,9,5.1,12c3.5,3.2,8.5,4.4,13.1,4.6
	c4.5,0.2,9-0.3,13.1-2.3c3.8-1.9,6.5-5.5,7.6-9.4c1.4-4.6,0.7-9.4,0.8-14.1V55.6H210v31.8c0,3.1-0.3,6.6-2.7,9
	c-2.5,2.2-6.1,2.2-9.3,1.8c-3-0.4-5.4-2.7-5.9-5.6c-1-3.8-0.4-7.8-0.6-11.7V55.8L179.2,55.8L179.2,55.8z M227,55.8v48.5h12.2V62.5
	c2.6,0.1,5.3-0.2,7.8,0.3s4.6,2.2,5.4,4.6c0.9,2.5,0.9,5.5-0.1,8c-1,2.4-3.6,3.7-6.1,4.2c-1.6,0.4-3.3,0.5-4.9,0.7
	c4.2,8,8.5,16,12.7,24h13.1c-3.9-7.1-7.7-14.3-11.6-21.4c3.3-1.2,6.5-3,8.2-6.1c1.5-2.7,1.8-5.8,1.6-8.8c-0.4-4-2.7-7.8-6.3-9.9
	c-3-2-6.8-2.5-10.4-2.3C241.4,55.7,234.2,55.7,227,55.8L227,55.8z M287.6,55.8l-19.2,48.5h8.4l5.2-13.4h17.6l5.4,13.4h13.5
	l-19.6-48.5H287.6z M91.8,60.5c0.7,0,1.5,0.2,2.2,0.4c4,1.2,6.6,5,7.7,8.8c1.3,3.8,1.5,7.8,1.4,11.8c-0.2,5.3-1.2,10.9-4.9,15
	c-1.8,1.8-4.2,3.2-6.8,3.1c-4.6,0.1-8.1-3.7-9.7-7.6c-2.2-5.3-2.4-11.2-1.8-16.9c0.6-4.5,2-9.3,5.6-12.4
	C87.3,61.2,89.5,60.5,91.8,60.5z M290.7,68.8l6,15.2h-12L290.7,68.8z M137.3,87.3l-6.2,16.9h7.8l2.4-6.4L137.3,87.3z"/>
</svg>
