<svg xmlns="http://www.w3.org/2000/svg" viewBox="0 0 602.4 163" enable-background="new 0 0 602.4 163"><path d="m56.4 118.9c-6.6-3.8-11.8-9-15.6-15.6s-5.7-13.7-5.7-21.4c0-7.8 1.9-15 5.7-21.6s9-11.8 15.6-15.6 13.7-5.7 21.5-5.7v-21c-11.5 0-22.2 2.9-32 8.5-9.9 5.7-17.6 13.5-23.3 23.3-5.7 9.9-8.5 20.6-8.5 32.1 0 11.6 2.8 22.2 8.5 32s13.5 17.5 23.3 23.3 20.5 8.6 32 8.7v-21.2c-7.7-.1-14.9-2-21.5-5.8"/><path d="M78,42.5v78.9c21.8,0,39.4-17.7,39.4-39.4S99.7,42.5,78,42.5z"/><path d="m183.1 43.8c-6.1 0-11.7 1.7-16.5 5.1l-1.3-4.2h-11.3v73.1h14v-44.8c0-4.2 1.4-7.7 4.4-10.7 2.9-2.9 6.5-4.4 10.7-4.4 1.4 0 2.1.1 2.5.1l1.2.2v-14.1l-.8-.1c-.7-.2-1.6-.2-2.9-.2"/><path d="m257.5 59.2c-3.5-4.7-7.9-8.5-13.2-11.3-5.3-2.7-11-4.1-17.1-4.1-6.7 0-13 1.7-18.8 5-5.7 3.3-10.3 7.9-13.6 13.6s-5 12-5 18.8c0 6.7 1.7 13 5 18.8 3.3 5.7 7.9 10.3 13.6 13.6 5.7 3.3 12 5 18.8 5 6.1 0 11.8-1.4 17.1-4.2 5.3-2.8 9.7-6.6 13.1-11.3l.5-.7-10.2-9.4-.6 1c-2.2 3.3-5.1 5.9-8.5 7.8s-7.2 2.9-11.2 2.9c-5.4 0-10.3-1.7-14.5-4.9-3.9-3-6.5-6.8-8-11.4h59.1l.2-.8c.4-1.8.6-3.9.6-6.3 0-2.2-.1-4.2-.4-6-1.1-6-3.3-11.4-6.9-16.1m-44.7 3.4c4.2-3.4 9.1-5.1 14.5-5.1s10.3 1.7 14.5 5.1c3.9 3.1 6.6 7 7.9 11.7h-44.9c1.4-4.6 4.1-8.6 8-11.7"/><path d="m363.4 47.7c-4.4-2.6-9.4-4-14.6-4-4.6 0-8.9 1-12.9 2.9-3.6 1.8-6.7 4.2-9.3 7.3-2.5-3.1-5.7-5.5-9.3-7.3-4-2-8.4-2.9-12.9-2.9-6.1 0-11.7 1.7-16.5 5.1l-1.3-4.2h-11.3v73.1h14.1v-44.7c0-4.2 1.4-7.7 4.4-10.7 2.9-2.9 6.5-4.4 10.7-4.4 4.3 0 7.8 1.4 10.8 4.4 3 3 4.4 6.5 4.4 10.7v44.8h14.1v-44.8c0-4.2 1.4-7.7 4.4-10.8 3-3 6.5-4.5 10.7-4.5s7.7 1.5 10.7 4.5c3 3 4.5 6.5 4.5 10.7v44.8h14v-44.7c0-5.3-1.3-10.2-4-14.6-2.7-4.5-6.2-8.1-10.7-10.7"/><path d="m443.6 48.8c-5.7-3.3-12-5-18.7-5s-13 1.7-18.8 5c-5.7 3.3-10.3 7.9-13.6 13.6-3.3 5.7-5 12-5 18.8 0 6.7 1.7 13 5 18.7s7.9 10.3 13.6 13.6c5.7 3.4 12 5.1 18.8 5.1 6.7 0 13-1.7 18.7-5.1s10.3-7.9 13.6-13.6c3.4-5.7 5.1-12 5.1-18.7s-1.7-13-5.1-18.8c-3.3-5.7-7.9-10.3-13.6-13.6m-18.7 55.7c-4.2 0-8.2-1.1-11.8-3.1-3.6-2.1-6.4-4.9-8.5-8.5s-3.1-7.5-3.1-11.6c0-4.2 1.1-8.2 3.1-11.8 2.1-3.6 4.9-6.4 8.5-8.5s7.5-3.1 11.8-3.1c4.1 0 8.1 1.1 11.6 3.1 3.6 2.1 6.4 4.9 8.5 8.5s3.1 7.5 3.1 11.8c0 4.2-1.1 8.1-3.1 11.6-2.1 3.6-4.9 6.4-8.5 8.5-3.5 2-7.4 3.1-11.6 3.1"/><path d="m587.6 75.2c-.9-5.9-3.2-11.3-6.7-16s-7.9-8.5-13.2-11.3c-5.3-2.7-11-4.1-17.1-4.1-6.7 0-13 1.7-18.8 5-5.7 3.3-10.3 7.9-13.6 13.6s-5 12-5 18.8c0 6.7 1.7 13 5 18.8 3.3 5.7 7.9 10.3 13.6 13.6 5.7 3.3 12 5 18.8 5 6.1 0 11.8-1.4 17.1-4.2 5.3-2.8 9.7-6.6 13.1-11.3l.5-.7-10.3-9.4-.6 1c-2.2 3.3-5.1 5.9-8.5 7.8s-7.2 2.9-11.2 2.9c-5.4 0-10.3-1.7-14.5-4.9-3.9-3-6.5-6.8-8-11.4h59.1l.2-.8c.4-1.8.6-3.9.6-6.3-.1-2.3-.2-4.3-.5-6.1m-51.5-12.6c4.2-3.4 9.1-5.1 14.5-5.1s10.3 1.7 14.5 5.1c3.9 3.1 6.6 7 7.9 11.7h-44.9c1.4-4.6 4.1-8.6 8-11.7"/><path d="m465.2 44.6v.4 13.7h11.1v31.3c0 9.7 2.7 17.1 8.1 21.8 4.7 4.4 11.3 6.7 19.7 6.7 1.5 0 2.7 0 3.6-.1l.9-.1v-13.7l-1.1.1c-.7.1-1.7.1-2.9.1-9.6 0-14.3-4.9-14.3-14.8v-31.3h18.3v-13.7-.4h-43.4"/><circle cx="483" cy="30.9" r="8.2"/></svg>