<svg width="102" height="24" viewBox="0 0 102 24" fill="none" xmlns="http://www.w3.org/2000/svg">
<g clip-path="url(#clip0)">
<path d="M73.6853 7.49235V12.7133L78.2152 7.49235H82.6904L77.6284 12.9272L82.745 21.6684H78.2697L75.6592 16.8703C75.1225 15.9106 74.6631 15.5058 74.272 15.6468C73.8808 15.7879 73.6853 16.0016 73.6853 16.2836V18.2574V21.6684H69.956V3.33545H71.8753C72.371 3.33545 72.7986 3.51276 73.1533 3.86744C73.508 4.2222 73.6853 4.63163 73.6853 5.09541V7.49231L73.6853 7.49235ZM47.3876 21.6684C46.2141 21.7413 44.9452 21.723 43.5762 21.6139C42.2072 21.5093 41.5251 20.636 41.5251 19.0033V10.1029H39.3477V9.35685C39.3477 8.82485 39.5251 8.38828 39.8798 8.04706C40.2345 7.7106 40.6621 7.5422 41.1578 7.5422H41.5251V3.3355H43.4444C43.9082 3.3355 44.3177 3.5128 44.6723 3.86749C45.0271 4.22224 45.2045 4.64977 45.2045 5.14551V7.54227H48.8124V8.2883C48.8124 8.82016 48.635 9.25687 48.2803 9.59809C47.9256 9.93455 47.4979 10.1029 47.0023 10.1029H45.2046V17.9937C45.2046 18.5985 45.5592 18.8987 46.2687 18.8987H47.3876V21.6684L47.3876 21.6684ZM48.1313 21.6684V14.7918C48.1313 13.4093 48.3359 12.2449 48.7453 11.3035C49.1546 10.3621 49.714 9.60718 50.4235 9.03859C51.0966 8.5066 51.8879 8.11546 52.793 7.86517C53.6981 7.61508 54.6303 7.49232 55.59 7.49232H55.8583H58.4562C58.0067 7.79564 57.5889 8.16434 57.2086 8.60492C56.5255 9.39645 56.0693 10.3077 55.7808 11.2761H54.8987C53.8665 11.2761 53.1022 11.5266 52.6066 12.0222C52.111 12.5178 51.8606 13.3001 51.8606 14.3688V21.6684H48.1313L48.1313 21.6684ZM59.9652 13.1409H65.4001C65.3318 12.1813 65.0818 11.4718 64.6542 11.0079C64.1949 10.5122 63.5355 10.2621 62.685 10.2621C61.9027 10.2621 61.2615 10.5122 60.7657 11.0079C60.2654 11.5082 60.0016 12.2177 59.9652 13.1409H59.9652ZM66.3598 17.2977H69.0249C68.6337 18.7896 67.8879 19.9266 66.7873 20.7089C65.6865 21.5274 64.2995 21.9368 62.6303 21.9368C60.6066 21.9368 59.0237 21.2773 57.8868 19.9629C56.7497 18.685 56.1814 16.8567 56.1814 14.4734C56.1814 12.1995 56.7316 10.4213 57.8322 9.14323C58.9692 7.82896 60.5519 7.16944 62.5757 7.16944C64.7089 7.16944 66.3598 7.81067 67.5331 9.08869C68.6701 10.403 69.2385 12.2313 69.2385 14.5781V14.9511V15.1648C69.2385 15.3422 69.2204 15.465 69.184 15.5378H59.9651C60.0016 16.6384 60.2653 17.4571 60.7657 17.9891C61.2251 18.5577 61.9208 18.8441 62.8441 18.8441C63.449 18.8441 63.9629 18.7212 64.3904 18.4712C64.495 18.4348 64.595 18.3711 64.6815 18.2847C64.7725 18.1937 64.868 18.0983 64.9771 17.9891C65.0089 17.8845 65.1455 17.7436 65.3728 17.5661C65.6048 17.3887 65.9368 17.2977 66.3598 17.2977L66.3598 17.2977Z" fill="#244D85"/>
<path d="M87.4422 4.01507H86.5713L83.7651 7.02129L84.2975 7.55363L86.5029 5.21666L86.4688 21.6906H87.4422V4.01515V4.01507ZM95.4849 21.9981C96.7657 21.9981 97.816 21.7205 98.6357 21.1656C99.4554 20.6108 100.109 19.8932 100.595 19.0137C101.082 18.1342 101.419 17.1523 101.607 16.0679C101.795 14.9836 101.889 13.9119 101.889 12.8529C101.889 11.7942 101.795 10.7223 101.607 9.63804C101.419 8.55362 101.082 7.57166 100.595 6.69217C100.109 5.81268 99.4554 5.09516 98.6357 4.54024C97.816 3.98539 96.7657 3.70776 95.4849 3.70776C94.204 3.70776 93.1536 3.98539 92.334 4.54024C91.5142 5.09516 90.8608 5.81267 90.3742 6.69217C89.8877 7.57167 89.5503 8.55363 89.3625 9.63804C89.1746 10.7225 89.0806 11.7942 89.0806 12.8529C89.0806 13.9119 89.1746 14.9834 89.3625 16.0679C89.5503 17.1523 89.8877 18.1343 90.3742 19.0137C90.8608 19.8932 91.5142 20.6108 92.334 21.1656C93.1535 21.7205 94.204 21.9981 95.4849 21.9981ZM95.4849 21.1528C94.3747 21.1528 93.4697 20.8878 92.7695 20.3587C92.0693 19.8294 91.5185 19.1546 91.1171 18.3349C90.7158 17.5152 90.4384 16.6185 90.2846 15.6451C90.131 14.6717 90.0541 13.741 90.0541 12.8529C90.0541 11.9649 90.131 11.0342 90.2846 10.0608C90.4384 9.08739 90.7158 8.19063 91.1171 7.37093C91.5183 6.55129 92.0693 5.87644 92.7695 5.34721C93.4697 4.81805 94.3747 4.55305 95.4849 4.55305C96.5948 4.55305 97.5 4.81805 98.2003 5.34721C98.9005 5.87644 99.4512 6.55129 99.8525 7.37093C100.254 8.19063 100.531 9.08739 100.685 10.0608C100.838 11.0342 100.916 11.9649 100.916 12.8529C100.916 13.741 100.838 14.6717 100.685 15.6451C100.531 16.6185 100.254 17.5153 99.8525 18.3349C99.4511 19.1546 98.9005 19.8294 98.2003 20.3587C97.5 20.8878 96.5948 21.1528 95.4849 21.1528Z" fill="#00BFFF"/>
<path fill-rule="evenodd" clip-rule="evenodd" d="M14.4166 5.37949C12.6473 4.48149 10.5105 4.64285 8.9189 5.84617C7.70592 6.7635 6.9654 8.16835 6.87123 9.68204L6.81523 10.5807L5.92103 10.6871C2.57662 11.0844 0 13.9312 0 17.3219C0 21.0096 2.99007 23.9999 6.67777 23.9999H32.73C36.4179 23.9999 39.4081 21.0097 39.4081 17.3219C39.4081 14.4887 37.6156 11.9601 34.9488 11.0215L34.2162 10.7636L34.2277 9.98709C34.2987 5.18589 30.8585 0.990989 26.1181 0.150156C22.0408 -0.573231 17.8959 1.36383 15.8423 4.95293L15.3323 5.8443L14.4165 5.37949L14.4166 5.37949Z" fill="#00BFFF"/>
<path fill-rule="evenodd" clip-rule="evenodd" d="M15.7734 8.24718C16.6462 3.4939 21.2071 0.377427 25.929 1.21473C30.8485 2.08781 34.0057 6.8975 32.9425 11.7298C35.9358 11.8417 38.3278 14.3031 38.3278 17.3234C38.3278 20.4154 35.8214 22.9218 32.7294 22.9218C22.8946 22.9218 13.4935 22.9218 6.67721 22.9218C3.58552 22.9218 1.0791 20.4154 1.0791 17.3234C1.0791 13.469 4.8772 10.8061 8.46789 12.0178C7.45562 10.2326 7.92458 7.95311 9.56958 6.70906C11.6389 5.1445 14.6612 5.87651 15.7735 8.24718L15.7734 8.24718Z" fill="url(#paint0_linear)"/>
<path fill-rule="evenodd" clip-rule="evenodd" d="M3.68213 18.0858L13.284 10.6178L18.2354 14.7313L25.8531 7.64697L35.9875 17.2567C35.3568 19.7676 33.4747 21.5895 31.2502 21.5895C22.5323 21.5895 14.1986 21.5895 8.15658 21.5895C6.18555 21.5895 4.48317 20.1588 3.68218 18.0858L3.68213 18.0858Z" fill="#244D85"/>
<path fill-rule="evenodd" clip-rule="evenodd" d="M5.77148 17.4502C9.22933 15.4008 11.8738 14.9783 13.7069 16.179C14.3193 15.1075 15.4516 14.6717 16.9783 14.7174L13.2583 11.627C10.7628 13.5681 8.26713 15.5091 5.7715 17.4502H5.77148ZM31.715 14.3829L25.8883 8.93579C22.1582 12.4122 18.4284 15.8884 14.6983 19.3648C20.9326 15.8148 23.0893 13.3135 25.5524 15.4935C26.7036 14.0301 28.6338 13.5104 31.715 14.3829L31.715 14.3829Z" fill="white"/>
</g>
<defs>
<linearGradient id="paint0_linear" x1="19.7034" y1="22.9217" x2="19.7034" y2="0.377409" gradientUnits="userSpaceOnUse">
<stop stop-color="#00BFFF"/>
<stop offset="0.490196" stop-color="#00BFFF"/>
<stop offset="1" stop-color="white"/>
</linearGradient>
<clipPath id="clip0">
<rect width="101.89" height="24" fill="white"/>
</clipPath>
</defs>
</svg>
