<svg xmlns="http://www.w3.org/2000/svg" viewBox="0 0 242 38" enable-background="new 0 0 242 38"><g fill="currentColor"><path d="m165.57 10.272h7.47v-2.386h-4.76v-7.428h-2.71z"/><path d="m173.9.457h2.739v9.814h-2.739z"/><path d="m178.23 10.272h2.72v-3.506h4.63v-2.255h-4.63v-1.67h5.12v-2.383h-7.84z"/><path d="m187.1.458h7.89v2.313h-5.2v1.483h4.71v2.147h-4.71v1.556h5.27v2.315h-7.96z"/><path d="m164.88 18.898v-.028c0-2.861 2.206-5.103 5.171-5.103 2 0 3.294.842 4.161 2.047l-2.052 1.584c-.553-.701-1.196-1.147-2.135-1.147-1.372 0-2.339 1.164-2.339 2.593v.026c0 1.472.967 2.623 2.339 2.623 1.019 0 1.621-.478 2.217-1.193l2.042 1.461c-.926 1.275-2.17 2.216-4.346 2.216-2.796 0-5.058-2.147-5.058-5.079"/><path d="m175.12 23.779h2.71v-3.729h3.48v3.729h2.73v-9.815h-2.73v3.675h-3.48v-3.675h-2.71z"/><path d="m191.2 19.908l-1.095-2.788-1.105 2.788h2.2m-2.38-6.01h2.616l4.178 9.884h-2.913l-.719-1.753h-3.784l-.7 1.753h-2.856l4.178-9.884"/><path d="m196.23 23.779h2.68v-5.385l4.19 5.385h2.38v-9.815h-2.69v5.186l-4.03-5.186h-2.53z"/><path d="m206.63 18.898v-.028c0-2.861 2.241-5.103 5.28-5.103 1.727 0 2.95.534 3.979 1.431l-1.6 1.92c-.696-.589-1.396-.926-2.362-.926-1.415 0-2.508 1.192-2.508 2.692v.026c0 1.584 1.109 2.722 2.666 2.722.654 0 1.16-.139 1.563-.409v-1.19h-1.925v-1.991h4.504v4.419c-1.038.853-2.481 1.515-4.254 1.515-3.059.001-5.343-2.105-5.343-5.078"/><path d="m217.66 13.963h2.739v9.815h-2.739z"/><path d="m221.99 23.779h2.68v-5.385l4.2 5.385h2.38v-9.815h-2.69v5.186l-4.03-5.186h-2.54z"/><path d="m232.4 18.898v-.028c0-2.861 2.243-5.103 5.282-5.103 1.723 0 2.941.534 3.973 1.431l-1.591 1.92c-.707-.589-1.402-.926-2.367-.926-1.417 0-2.508 1.192-2.508 2.692v.026c0 1.584 1.107 2.722 2.663 2.722.659 0 1.164-.139 1.571-.409v-1.19h-1.938v-1.991h4.518v4.419c-1.043.853-2.486 1.515-4.265 1.515-3.052.001-5.338-2.105-5.338-5.078"/><path d="m165.57 27.469h2.87l2.34 3.801 2.34-3.801h2.87v9.811h-2.71v-5.633l-2.5 3.842h-.06l-2.49-3.813v5.604h-2.66z"/><path d="m177.59 37.28h7.96v-2.31h-5.27v-1.556h4.7v-2.144h-4.7v-1.484h5.19v-2.317h-7.88z"/><path d="m190.69 34.872c1.625 0 2.701-.9 2.701-2.484v-.028c0-1.565-1.077-2.48-2.701-2.48h-1.11v4.991h1.11zm-3.832-7.403h3.782c3.511 0 5.537 2.023 5.537 4.854v.028c0 2.829-2.055 4.93-5.579 4.93h-3.739v-9.812z"/><path d="m197.35 27.468h2.735v9.814h-2.735z"/><path d="m201.25 32.401v-.024c0-2.861 2.196-5.101 5.169-5.101 2 0 3.29.84 4.163 2.047l-2.05 1.582c-.561-.699-1.205-1.147-2.137-1.147-1.38 0-2.343 1.162-2.343 2.593v.026c0 1.47.964 2.621 2.343 2.621 1.017 0 1.625-.478 2.209-1.19l2.041 1.457c-.919 1.275-2.165 2.214-4.345 2.214-2.794.001-5.05-2.143-5.05-5.078"/><path d="m211.5 27.468h2.731v9.814h-2.731z"/><path d="m215.82 37.28h2.69v-5.381l4.19 5.381h2.38v-9.811h-2.68v5.191l-4.04-5.191h-2.54z"/><path d="m226.68 37.28h7.96v-2.31h-5.27v-1.556h4.71v-2.144h-4.71v-1.484h5.2v-2.317h-7.89z"/><path d="m52.12 18.324v-12.02c-.05-4.285.418-4.285 4.334-4.285 5.058 0 8.465 3.77 8.465 9.09 0 5.941-4.23 9.189-9.857 9.189-2.63-.001-2.942-.776-2.942-1.966m18.367-7.636c0-2.119-1.287-10.224-13.617-10.224-2.687 0-6.862.117-7.33.117-3.247 0-6.964.028-7.373.028h-.68c-.724 0-5.111-.028-6.71-.028-3.357 0-6.712-.117-7.583-.117-.26 0-.416.156-.416.775 0 .468 0 .777.416.777 5.314 0 6.808 0 6.808 7.176v10.218c0 12.293-5.212 15.641-11.248 15.641-8.667 0-11.558-6.03-11.558-12.955v-9.345c0-3.664.052-4.904.104-7.278.05-3.045.926-3.458 5.418-3.458.566 0 .566-.413.566-.877 0-.309-.102-.675-.46-.675-.416 0-4.904.208-8.208.208-3.247 0-7.737-.208-8.155-.208-.358 0-.46.367-.46.675 0 .465 0 .877.568.877 4.491 0 5.366.413 5.416 3.458.052 2.374.102 3.614.102 7.278v11.827c0 5.677 3.249 13.422 14.809 13.422 5.986 0 14.859-3.72 14.859-17.658v-12.233c0-6.094 1.034-6.094 5.988-6.094h.524c3.713 0 4.59.413 4.645 3.458.046 2.374.1 3.614.1 7.278v12.652c0 2.22-.054 5.571-.156 8.157-.052 1.39-.358 2.27-4.436 2.27-1.444 0-1.444.309-1.444.879 0 .467 0 .667.418.667.358 0 .559-.104 8.145-.104 7.635 0 9.08.104 9.445.104.41 0 .41-.201.41-.667 0-.571 0-.879-1.441-.879-5.318 0-5.624-1.238-5.728-3.305-.056-1.55-.106-2.997-.106-11.204 2.115.413 4.181.521 6.244.521 7.02 0 12.12-3.772 12.12-11.154"/><path d="m106.36 1.033c.15-.415.301-.571.616-.571.256 0 4.02.21 5.212.21.875 0 5.256-.21 5.626-.21.511 0 .564.415.564.881 0 .463-.206.671-.622.671-4.642 0-5.21.361-5.21 2.733 0 3.361.568 14.201 1.086 28.658.052 1.751 1.495 2.424 2.835 2.424 2.893 0 2.941.31 2.941.675 0 .77-.256.872-.568.872-.462 0-1.027-.102-8.203-.102-6.71 0-7.02.102-7.423.102-.576 0-.576-.357-.576-.825 0-.359.104-.721 2.475-.721 3.411 0 3.459-.827 3.459-2.883 0-3.106-.774-19.778-1.185-29.437h-.104c-3.767 9.659-8.517 20.754-11.922 29.06-1.957 4.761-1.957 5.324-2.629 5.324-.676 0-.774-.459-1.857-4.03-1.134-3.714-9.543-26.533-9.757-26.533-.873 3.768-4.274 20.91-4.274 26.07 0 1.597.871 2.424 2.577 2.424 1.29 0 2.785.104 2.785.413 0 .983 0 1.134-.568 1.134-.412 0-.926-.102-6.24-.102-4.697 0-5.056.102-5.368.102-.408 0-.57-.046-.57-.872 0-.521.262-.675 2.735-.675 1.808 0 2.17-.673 2.735-3.616 1.396-7.428 2.635-14.918 4.235-22.351.514-2.322.665-3.772.665-4.854 0-.312-.719-2.221-1.339-2.582-.412-.258-2.839-.413-4.436-.413-.616 0-.616-.411-.616-.775 0-.413.102-.777.564-.777.98 0 5.418.21 5.982.21 1.346 0 3.511-.21 4.181-.21.572 0 .722.571 1.237 2.433 1.088 3.87 8.567 24.778 9.495 26.686 3.87-9.131 7.796-18.582 11.462-28.548"/><path d="m154.56 27.675c.312 0 .564.052.564.615 0 .623-.715 5.731-.715 6.819 0 .467-.212.775-.732.931-2.631.825-6.859 1.959-14.183 1.959-13.882 0-19.09-11.05-19.09-17.967.001-12.442 9.236-20.03 19.09-20.03 8.771 0 10.266 1.963 11.666 1.963.921 0 1.283-.877 2-.877.106 0 .362.104.362.619 0 3.153.978 7.849.978 8.261 0 .467-.616.673-.978.673-.152 0-.414 0-.566-.416-2.219-5.675-5.468-8.879-12.12-8.879-6.398 0-14.298 6.092-14.298 18.48 0 11.416 8.155 16.833 15.225 16.833 3.919 0 9.03-2.169 11.972-8.57.107-.252.311-.412.825-.412"/></g></svg>