<?xml version="1.0" encoding="utf-8"?>
<!-- Generator: Adobe Illustrator 23.0.6, SVG Export Plug-In . SVG Version: 6.00 Build 0)  -->
<svg version="1.1" id="Layer_1" xmlns="http://www.w3.org/2000/svg" xmlns:xlink="http://www.w3.org/1999/xlink" x="0px" y="0px"
	 viewBox="0 0 340 160" enable-background="new 0 0 340 160" xml:space="preserve">
<path fill="currentColor" d="M56.3,67.3c-2.2-0.8-4.3-1.4-6.3-1.9c-2-0.4-3.9-0.6-5.6-0.6c-2.2,0-3.8,0.4-5,1.1s-1.8,1.6-1.8,2.7
	c0,0.8,0.3,1.5,1,2.1s1.8,1.1,3.2,1.7l8.2,3.9c3.2,1.5,5.6,3.2,7.4,5.2c1.7,2,2.5,4.4,2.5,7.2c-0.1,4.3-1.8,7.8-5.3,10.3
	c-3.4,2.5-8.1,3.7-13.9,3.8c-2.2,0-4.5-0.1-7.1-0.4c-2.4-0.2-4.9-0.7-7.6-1.3v-9c2.6,0.9,5,1.5,7.4,1.9c2.3,0.4,4.4,0.6,6.3,0.6
	c2.4,0,4.2-0.4,5.4-1.2c1.3-0.7,1.9-1.7,1.9-3c0-0.7-0.2-1.3-0.7-1.8C45.8,88,45,87.5,44,87l-9.1-3.8c-3.4-1.5-5.9-3.3-7.5-5.5
	c-1.6-2.1-2.4-4.5-2.4-7.4c0.1-4,1.8-7.3,5-9.6c3.3-2.4,7.8-3.5,13.4-3.6c2,0,4.2,0.2,6.4,0.5c2.3,0.3,4.4,0.7,6.4,1.1
	C56.3,58.7,56.3,67.3,56.3,67.3z M79,102.1H65.7V57.9H79V102.1z M121.8,66.1H102v9.8h17.1v7.4H102v10.3h20.2v8.6H89.3V57.9h32.5
	V66.1L121.8,66.1z M183.9,102.1h-12.4V72.9l-12.9,29.5H151l-12.4-29.5V102h-9V57.9h16.2l11.1,27l11.6-27h15.4L183.9,102.1
	L183.9,102.1z M226.7,66.1H207v9.8h17.1v7.4H207v10.3h20.1v8.6h-32.9V57.9h32.5C226.7,57.9,226.7,66.1,226.7,66.1z M273.4,102.1
	h-14.1l-15.8-28.3v28.3h-9V57.9H249l15.4,27.8V57.9h9V102.1L273.4,102.1z M311.6,67.3c-2.2-0.8-4.3-1.4-6.3-1.9
	c-2-0.4-3.9-0.6-5.6-0.6c-2.2,0-3.9,0.4-5.1,1.1s-1.8,1.6-1.8,2.7c0,0.8,0.3,1.5,0.9,2.1s1.7,1.1,3.4,1.7l8.2,3.9
	c3.2,1.5,5.6,3.2,7.4,5.3c1.7,2,2.5,4.5,2.5,7.5c-0.1,4.1-1.8,7.5-5.3,9.9c-3.4,2.5-8.2,3.7-14,3.8c-2.1,0-4.4-0.1-7-0.4
	c-2.4-0.2-4.9-0.7-7.6-1.3v-9c2.6,0.9,5,1.5,7.4,1.9c2.3,0.4,4.4,0.6,6.3,0.6c2.4,0,4.1-0.4,5.4-1.1c1.2-0.7,1.8-1.6,1.8-2.7
	c0-0.8-0.2-1.6-0.7-2.2s-1.3-1.2-2.3-1.6l-9-3.8c-3.4-1.5-5.8-3.2-7.5-5.3c-1.5-2-2.3-4.5-2.3-7.6c0.1-4,1.7-7.3,4.9-9.6
	c3.3-2.4,7.8-3.5,13.4-3.6c1.9,0,4,0.2,6.2,0.5s4.4,0.7,6.7,1.1V67.3L311.6,67.3z"/>
</svg>
