<?xml version="1.0" encoding="utf-8"?>
<!-- Generator: Adobe Illustrator 23.0.6, SVG Export Plug-In . SVG Version: 6.00 Build 0)  -->
<svg version="1.1" id="Layer_1" xmlns="http://www.w3.org/2000/svg" xmlns:xlink="http://www.w3.org/1999/xlink" x="0px" y="0px"
	 viewBox="0 0 112 44.8" enable-background="new 0 0 112 44.8" xml:space="preserve">
<path fill="currentColor" d="M108.3,11.1c1.5,0,2.7,1.2,2.7,2.7s-1.2,2.7-2.7,2.7c-1.5,0-2.7-1.2-2.7-2.7S106.8,11.1,108.3,11.1z
	 M110.6,13.8c0-1.3-1.1-2.4-2.4-2.4s-2.4,1.1-2.4,2.4c0,1.3,1.1,2.4,2.4,2.4S110.6,15.1,110.6,13.8z"/>
<path fill="currentColor" d="M109.5,15.3H109c0-0.1,0-0.2,0-0.4c0-0.6-0.2-0.8-0.8-0.8h-0.5v1.2h-0.5v-3h1c0.6,0,1.3,0.1,1.3,0.9
	c0,0.5-0.4,0.7-0.7,0.7c0.4,0.1,0.7,0.4,0.7,0.9C109.4,15,109.5,15.2,109.5,15.3L109.5,15.3z M109,13.2c0-0.4-0.3-0.5-0.8-0.5h-0.5
	v1.1h0.5C108.7,13.8,109,13.6,109,13.2L109,13.2z M96.8,21.5l7.8,12.2h-8.1l-3.8-6.6L88,33.7h-8.2l9-12.2l-6.9-10.3h8.3l2.7,4.8
	l3.1-4.8h8.3 M71.9,11.2h6.8 M75.3,35.6c2.3,0,4.2,1.9,4.2,4.2s-1.9,4.2-4.2,4.2S71,42.2,71,39.8C71,37.5,72.9,35.6,75.3,35.6z
	 M63.5,24.7l6.9,9h-8.5L57.6,27v6.7h-6.8V11.2h8.9c2.6,0,4.8,0.7,6.2,2.1c1.2,1.2,1.9,2.9,1.9,5C67.7,21.5,66.1,23.9,63.5,24.7z
	 M61.7,18.7c0-0.8-0.2-1.3-0.6-1.7c-0.8-0.8-2.3-0.9-3.5-0.9v5.3C60.5,21.3,61.7,20.5,61.7,18.7z M49,11.2v5.9h-5.1v16.6h-6.7V17.1
	H32v-5.9 M30.2,11.2v22.5h-6.8V11.2 M26.8,0.8C29.1,0.8,31,2.7,31,5c0,2.3-1.9,4.2-4.2,4.2c-2.4,0-4.2-1.9-4.2-4.2
	C22.5,2.7,24.4,0.8,26.8,0.8z M21.3,14.3L17.8,20c-1-1.7-3-2.7-5-2.7c-2.8,0-4.9,2.3-4.9,5.1s2.1,5.1,4.9,5.1c2,0,4-1.1,5-2.7
	l3.6,5.8c-2.1,2.2-5.2,3.6-8.5,3.6C6.3,34.3,1,29,1,22.5s5.3-11.8,11.8-11.8C16.2,10.6,19.2,12,21.3,14.3z M78.7,11.2v22.5h-6.8
	V11.2"/>
</svg>
