<svg xmlns="http://www.w3.org/2000/svg" viewBox="0 0 132.4 50.8" enable-background="new 0 0 132.4 50.8"><path d="M50.7,25.4c0,14-11.3,25.3-25.3,25.3S0.1,39.4,0.1,25.4S11.4,0.1,25.4,0.1S50.7,11.4,50.7,25.4"/><path d="M60.3,36.9h3.5V14.6h-3.5v-2.2h18.9v5.5h-2.4v-3.3H66.5v9.8h10.1v2.3H66.5v10h11v-3.5h2.4v5.7H60.3V36.9z"/><path d="m82.5 36.9h2.7l9-24.5h2.9l9 24.5h2.7v2.2h-8.5v-2.2h3.1l-2.5-6.9h-10.4l-2.5 6.9h3v2.2h-8.5v-2.2m17.7-9.2l-4-10.9c-.3-.9-.4-1.7-.4-1.7h-.1c0 0-.1.8-.4 1.7l-4.1 10.9h9"/><path d="m111.4 36.9h3.5v-22.3h-3.5v-2.2h12c1.9 0 3.3.3 4.6.9 1.9.9 3.3 3.1 3.3 5.9 0 2.7-1.4 4.7-3.4 5.8 2.7.8 4.5 3.4 4.5 6.6 0 3.3-1.9 6-4.5 7-1.2.5-2.5.6-4 .6h-12.5c0 0 0-2.3 0-2.3m12.6-13c2.7 0 4.5-1.9 4.5-4.7 0-1.7-.7-3.2-1.9-4-.8-.5-1.9-.7-3.2-.7h-5.9v9.4h6.5m-.1 12.9c.8 0 1.9-.1 2.8-.4 1.8-.8 2.9-2.6 2.9-4.9 0-3.2-2.2-5.3-5.3-5.3h-6.8v10.6c0 0 6.4 0 6.4 0"/><g fill="#fff"><path d="m25.4 10c5.3 0 10.4 3.7 12.1 8.6l-3-1.3c-1.6-2.6-4.8-5.2-9.2-5.2-3.7 0-7.1 1.9-9.1 5.1l-3 1.3c1.8-4.9 6.9-8.5 12.2-8.5"/><path d="m25.4 17.9l-12.1 5.4v-2.2l12.1-5.4 12.1 5.4v2.2z"/><path d="m13.3 37.2h24.2v2h-24.2z"/><path d="m27.8 25.4h2.4v9.2h-2.4z"/><path d="m20.5 25.4h2.4v9.2h-2.4z"/><path d="m13.3 25.4h2.4v9.2h-2.4z"/><path d="m35.1 25.4h2.4v9.2h-2.4z"/></g></svg>