<svg width="103" height="24" viewBox="0 0 103 24" fill="none" xmlns="http://www.w3.org/2000/svg">
<g clip-path="url(#clip0)">
<path d="M59.4382 18.1283C59.4382 18.4137 59.2049 18.6469 58.9188 18.6469H57.5181C56.4708 18.6394 55.6245 17.7893 55.6245 16.7406V10.9955C55.6245 9.18961 54.8221 8.2617 53.392 8.2617C51.9629 8.2617 51.0844 9.18961 51.0844 10.9955V16.7406C51.0844 17.7939 50.2309 18.6469 49.1778 18.6469C48.1242 18.6469 47.2715 17.7939 47.2715 16.7406V10.9955C47.2715 9.18961 46.4693 8.2617 45.039 8.2617C43.6088 8.2617 42.7313 9.18961 42.7313 10.9955V16.7406C42.7313 17.7893 41.8842 18.6394 40.8373 18.6469H39.4373C39.1511 18.6469 38.9185 18.4136 38.9185 18.1283V5.42245C38.9185 5.13724 39.1511 4.90439 39.4373 4.90439L40.8246 4.90072C41.8779 4.90072 42.7315 5.75339 42.7315 6.80655V6.95814C43.6088 5.82914 44.7634 4.80017 46.6949 4.80017C48.4507 4.80017 49.7808 5.5773 50.4831 6.93201C51.6623 5.55281 53.0659 4.80017 54.897 4.80017C57.7324 4.80017 59.4384 6.50542 59.4384 9.74186V18.1287L59.4382 18.1283Z" fill="white"/>
<path d="M60.7642 22.0942C60.7642 23.1476 61.6171 24.0005 62.6713 24.0005C63.7244 24.0005 64.5776 23.1476 64.5776 22.0942V16.7411C65.4805 17.8201 66.7345 18.7476 68.7659 18.7476C71.9518 18.7476 74.8868 16.2895 74.8868 11.799V11.7487C74.8868 7.25872 71.902 4.80115 68.7659 4.80115C66.7846 4.80115 65.5055 5.72905 64.5776 6.98331V6.80712C64.5776 5.75396 63.7244 4.90129 62.6713 4.90129C62.6476 4.90129 62.6257 4.90313 62.6032 4.90496H61.2835C60.9976 4.90496 60.7642 5.13791 60.7642 5.42302V22.0947V22.0942ZM71.0742 11.7989C71.0742 14.0559 69.5691 15.5116 67.7883 15.5116C66.0075 15.5116 64.5273 14.0313 64.5273 11.7989V11.7486C64.5273 9.51632 66.0076 8.03596 67.7883 8.03596C69.5691 8.03596 71.0742 9.51622 71.0742 11.7486V11.7989Z" fill="white"/>
<path d="M85.5969 6.24321L84.5147 5.713L84.5134 5.71535C83.1935 5.11645 81.7358 4.79459 80.3392 4.84349C77.6319 4.93965 75.479 6.54567 75.5756 9.27886L75.5772 9.32918C75.6689 11.9362 77.8311 12.7392 79.7308 13.2246C81.2257 13.6236 82.5393 13.8532 82.568 14.6804L82.5702 14.7307C82.5918 15.3323 82.1033 15.751 81.0009 15.7897C79.9229 15.8283 78.6296 15.4716 77.323 14.7148C77.1188 14.5965 76.8393 14.5307 76.5643 14.5406C76.0245 14.559 75.5762 14.8371 75.3253 15.2534L74.7863 16.2164C74.6629 16.4329 74.7386 16.7122 74.9546 16.837L75.8661 17.3654L75.8669 17.364C75.8732 17.3686 75.8797 17.3723 75.886 17.3756C77.5531 18.3712 79.3492 18.785 81.0043 18.7266C83.9122 18.6248 86.095 17.1923 85.9903 14.2085L85.9887 14.1588C85.9026 11.7017 83.6892 10.8759 81.7881 10.3154C80.3162 9.86541 79.0259 9.55907 78.9991 8.80755L78.9976 8.75672C78.9788 8.23121 79.4401 7.81258 80.3688 7.77961C81.1696 7.75184 82.2093 8.04155 83.3063 8.52959C83.5612 8.64668 83.7383 8.69037 84.0143 8.68026C84.6464 8.6578 85.1689 8.2799 85.3848 7.73878L85.8107 6.84925C85.918 6.62407 85.8217 6.35141 85.5976 6.24331" fill="white"/>
<path d="M99.1687 16.6309C99.3959 16.459 99.4404 16.1322 99.2678 15.9049L98.7037 15.1627L98.6995 15.164C98.439 14.7776 98.002 14.5328 97.4789 14.5328C97.0777 14.5328 96.8273 14.6324 96.551 14.833C95.773 15.4104 94.8955 15.7369 93.8413 15.7369C92.1363 15.7369 90.932 14.833 90.5553 13.1024H98.1064C99.1099 13.1024 99.8864 12.3752 99.8864 11.2713C99.8864 8.48656 97.9061 4.79944 93.4155 4.79944C89.5007 4.79944 86.7681 7.95993 86.7681 11.798V11.8482C86.7681 15.962 89.7529 18.7978 93.7924 18.7978C95.5936 18.7978 97.0337 18.264 98.1714 17.396L99.1687 16.631V16.6309ZM90.5062 10.7197C90.8076 8.9891 91.8353 7.85938 93.4158 7.85938C95.0211 7.85938 96.0249 9.0134 96.251 10.7197H90.5059" fill="white"/>
<path d="M22.5271 18.1283C22.5271 18.4137 22.294 18.6468 22.0077 18.6468H20.5543V18.6434C19.5315 18.6081 18.7148 17.7718 18.7148 16.7405V0.552666C18.7148 0.266944 18.948 0.0336914 19.2327 0.0336914H20.6886V0.0366517C21.7104 0.0726859 22.528 0.909027 22.528 1.93983V18.1287L22.5271 18.1283Z" fill="white"/>
<path d="M25.5517 22.9864C27.1328 23.6139 28.4801 23.9143 30.2616 23.9143C32.8702 23.9143 34.5939 23.3625 35.8492 22.1087C36.9771 20.9797 37.5543 19.2239 37.5543 16.8152V6.79099V6.77874V5.39995C37.5543 5.10953 37.3165 4.87158 37.0269 4.87158H35.643C34.5922 4.87475 33.7414 5.7266 33.7414 6.75322V6.77864L33.7917 12.4257V12.4756C33.7917 14.3066 32.5701 15.5863 30.713 15.5863C28.8562 15.5863 27.6599 14.3315 27.6599 12.4756V12.4257H27.6556V6.80212C27.6556 5.73467 26.793 4.87168 25.727 4.87168C25.7227 4.87168 25.7206 4.87332 25.7166 4.87332V4.87158L24.3673 4.88189C24.0822 4.88189 23.8481 5.11535 23.8481 5.40127L23.8508 12.6837C23.9481 16.543 26.5284 18.7472 29.6101 18.7472C31.642 18.7472 32.6628 17.9196 33.7916 16.5647V17.217C33.7916 19.625 32.7698 20.8792 30.1611 20.8792C28.7319 20.8792 27.7597 20.5784 26.6556 20.0764C26.4799 20.0014 26.2799 19.9515 26.0293 19.9515C25.384 19.9515 24.8262 20.3524 24.592 20.9159L24.198 21.877C24.0899 22.1411 24.2164 22.4451 24.4811 22.5538L25.5517 22.9868" fill="white"/>
<path d="M16.149 4.9574L14.4297 0.0831884C14.3918 -0.0230768 14.3183 -0.0283849 14.267 0.0721638L13.4572 1.63848C12.212 1.01436 10.7735 0.68056 8.83503 0.68056C4.23531 0.68056 0.752344 3.86443 0.101074 7.99867C3.41663 3.5143 8.86769 4.09615 8.86769 4.09615L8.86239 4.10585C10.0636 4.12759 10.9725 4.4029 11.7873 4.86726L10.9449 6.4987C10.8924 6.59946 10.9396 6.6557 11.0488 6.62467L16.0187 5.20831C16.1276 5.17748 16.1856 5.06438 16.148 4.95812" fill="white"/>
<path d="M0.402943 7.93566C0.402943 7.93566 0.0823096 8.06999 0.0565855 8.55324C-0.0257929 9.45124 0.00605598 9.84026 0.00605598 9.84026C0.00605598 14.7411 3.9933 18.7284 8.89415 18.7284C13.7938 18.7284 17.7822 14.7411 17.7822 9.84026C17.7822 8.85856 16.9857 8.06295 16.0039 8.06295C15.9926 8.06295 15.9815 8.06438 15.9695 8.06438H9.8927C8.88119 8.06438 8.06108 8.8851 8.06108 9.89651C8.06108 10.9079 8.88078 11.7278 9.8927 11.7278H13.8789C13.1155 13.7394 11.1694 15.1735 8.89364 15.1735C5.95252 15.1735 3.56099 12.7812 3.56099 9.83985C3.56099 9.83985 3.44727 8.79231 4.0623 7.23641C4.36466 6.43539 3.44033 6.62393 3.44033 6.62393C1.56543 7.02817 0.402738 7.93617 0.402738 7.93617L0.402943 7.93566ZM1.03921 13.8884L1.03972 13.8906C1.04206 13.8991 1.04421 13.9074 1.04737 13.916C1.04421 13.9069 1.04186 13.8982 1.03921 13.8884Z" fill="white"/>
<path d="M102.08 6.07273C102.08 6.73942 101.543 7.2685 100.862 7.2685C100.181 7.2685 99.6377 6.73942 99.6377 6.07273C99.6377 5.40605 100.181 4.88452 100.87 4.88452C101.544 4.88452 102.08 5.40605 102.08 6.07273H102.08ZM99.9429 6.07273C99.9429 6.60212 100.341 7.02187 100.87 7.02187C101.384 7.02871 101.775 6.60212 101.775 6.07947C101.775 5.5511 101.384 5.12369 100.856 5.12369C100.341 5.1238 99.9431 5.55121 99.9431 6.07273H99.9429ZM100.675 6.68827H100.399V5.50017C100.508 5.48577 100.66 5.46362 100.856 5.46362C101.08 5.46362 101.182 5.50017 101.261 5.55835C101.334 5.60929 101.385 5.69595 101.385 5.81171C101.385 5.95667 101.276 6.05078 101.138 6.09417V6.10907C101.254 6.14511 101.312 6.23912 101.349 6.39837C101.385 6.57935 101.413 6.64509 101.435 6.68827H101.145C101.109 6.64509 101.087 6.54363 101.051 6.39837C101.03 6.27516 100.957 6.21738 100.804 6.21738H100.675V6.68827H100.675ZM100.682 6.02159H100.812C100.964 6.02159 101.087 5.97075 101.087 5.84775C101.087 5.73934 101.008 5.66676 100.834 5.66676C100.761 5.66676 100.711 5.67421 100.682 5.68115V6.02159Z" fill="white"/>
</g>
<defs>
<clipPath id="clip0">
<rect width="102.08" height="24" fill="white"/>
</clipPath>
</defs>
</svg>
