<?xml version="1.0" encoding="utf-8"?>
<!-- Generator: Adobe Illustrator 23.0.1, SVG Export Plug-In . SVG Version: 6.00 Build 0)  -->
<svg version="1.1" id="Calque_1" xmlns="http://www.w3.org/2000/svg" xmlns:xlink="http://www.w3.org/1999/xlink" x="0px" y="0px"
	 viewBox="0 0 473 254" style="enable-background:new 0 0 473 254;" xml:space="preserve">
<g>
	<g>
		<path d="M18.1,212.3c2.9,0,5.5,0.3,7.9,0.9c2.4,0.6,4.4,1.5,6.1,2.7c1.7,1.2,3,2.7,3.9,4.6c0.9,1.8,1.4,4,1.4,6.5v17.9
			c0,1.4-0.4,2.5-1.2,3.4c-0.8,0.9-1.7,1.6-2.8,2.3c-3.5,2.1-8.3,3.1-14.6,3.1c-2.8,0-5.4-0.3-7.6-0.8c-2.3-0.5-4.2-1.3-5.8-2.4
			c-1.6-1.1-2.9-2.4-3.8-4.1s-1.3-3.6-1.3-5.8c0-3.7,1.1-6.5,3.3-8.5s5.6-3.2,10.2-3.7l10.5-1.1v-0.6c0-1.5-0.7-2.7-2-3.3
			c-1.4-0.7-3.3-1-5.9-1c-2,0-4,0.2-5.9,0.6c-1.9,0.4-3.7,1-5.2,1.6c-0.7-0.5-1.3-1.2-1.8-2.2s-0.7-2-0.7-3.1c0-1.4,0.3-2.5,1-3.3
			s1.7-1.5,3.1-2.1c1.5-0.6,3.4-1,5.5-1.3C14.3,212.5,16.3,212.3,18.1,212.3z M18.8,243.8c0.9,0,1.9-0.1,3-0.3
			c1.1-0.2,1.9-0.4,2.4-0.8v-6.4l-5.8,0.5c-1.5,0.1-2.7,0.4-3.7,1s-1.4,1.3-1.4,2.4s0.4,1.9,1.2,2.6
			C15.4,243.4,16.8,243.8,18.8,243.8z"/>
		<path d="M79.9,240.8c0,4.1-1.5,7.2-4.6,9.5c-3,2.3-7.5,3.4-13.4,3.4c-2.2,0-4.3-0.2-6.2-0.5c-1.9-0.3-3.6-0.8-4.9-1.5
			c-1.4-0.7-2.4-1.5-3.2-2.5c-0.8-1-1.2-2.2-1.2-3.6c0-1.3,0.3-2.4,0.8-3.2c0.5-0.9,1.2-1.6,1.9-2.2c1.5,0.9,3.3,1.6,5.3,2.3
			c2,0.7,4.3,1,6.9,1c1.7,0,2.9-0.2,3.8-0.7s1.3-1.1,1.3-1.9c0-0.7-0.3-1.3-1-1.8c-0.6-0.4-1.7-0.8-3.2-1l-2.4-0.5
			c-4.6-0.9-8.1-2.3-10.4-4.3c-2.3-1.9-3.4-4.7-3.4-8.4c0-2,0.4-3.8,1.3-5.4c0.9-1.6,2.1-2.9,3.6-4s3.4-1.9,5.6-2.5s4.5-0.9,7.2-0.9
			c2,0,3.8,0.1,5.6,0.4c1.7,0.3,3.2,0.7,4.5,1.3s2.3,1.3,3,2.3c0.7,0.9,1.1,2,1.1,3.3c0,1.2-0.2,2.3-0.7,3.2s-1,1.6-1.7,2.2
			c-0.4-0.3-1.1-0.5-1.9-0.8c-0.9-0.3-1.8-0.6-2.8-0.8s-2-0.4-3.1-0.6c-1-0.2-2-0.2-2.8-0.2c-1.8,0-3.1,0.2-4.1,0.6
			c-1,0.4-1.4,1-1.4,1.9c0,0.6,0.3,1.1,0.8,1.4c0.5,0.4,1.5,0.7,3,1l2.5,0.6c5.1,1.2,8.8,2.8,10.9,4.8
			C78.8,234.9,79.9,237.6,79.9,240.8z"/>
		<path d="M120.7,240.8c0,4.1-1.5,7.2-4.6,9.5c-3,2.3-7.5,3.4-13.4,3.4c-2.2,0-4.3-0.2-6.2-0.5c-1.9-0.3-3.6-0.8-4.9-1.5
			c-1.4-0.7-2.4-1.5-3.2-2.5c-0.8-1-1.2-2.2-1.2-3.6c0-1.3,0.3-2.4,0.8-3.2c0.5-0.9,1.2-1.6,1.9-2.2c1.5,0.9,3.3,1.6,5.3,2.3
			c2,0.7,4.3,1,6.9,1c1.7,0,2.9-0.2,3.8-0.7c0.9-0.5,1.3-1.1,1.3-1.9c0-0.7-0.3-1.3-1-1.8c-0.6-0.4-1.7-0.8-3.2-1l-2.4-0.5
			c-4.6-0.9-8.1-2.3-10.4-4.3c-2.3-1.9-3.4-4.7-3.4-8.4c0-2,0.4-3.8,1.3-5.4c0.9-1.6,2.1-2.9,3.6-4s3.4-1.9,5.6-2.5s4.5-0.9,7.2-0.9
			c2,0,3.8,0.1,5.6,0.4c1.7,0.3,3.2,0.7,4.5,1.3s2.3,1.3,3,2.3c0.7,0.9,1.1,2,1.1,3.3c0,1.2-0.2,2.3-0.7,3.2s-1,1.6-1.7,2.2
			c-0.4-0.3-1.1-0.5-1.9-0.8c-0.9-0.3-1.8-0.6-2.8-0.8s-2-0.4-3.1-0.6c-1-0.2-2-0.2-2.8-0.2c-1.8,0-3.1,0.2-4.1,0.6
			c-1,0.4-1.4,1-1.4,1.9c0,0.6,0.3,1.1,0.8,1.4c0.5,0.4,1.5,0.7,3,1l2.5,0.6c5.1,1.2,8.8,2.8,10.9,4.8
			C119.6,234.9,120.7,237.6,120.7,240.8z"/>
		<path d="M169.3,233c0,3.3-0.5,6.3-1.5,8.8c-1,2.6-2.4,4.8-4.3,6.5c-1.8,1.8-4,3.1-6.6,4s-5.4,1.4-8.6,1.4c-3.1,0-6-0.5-8.6-1.4
			s-4.8-2.3-6.6-4.1c-1.8-1.8-3.3-4-4.3-6.5c-1-2.6-1.5-5.4-1.5-8.6c0-3.1,0.5-6,1.5-8.6c1-2.6,2.4-4.7,4.3-6.5
			c1.8-1.8,4-3.2,6.6-4.1s5.4-1.4,8.6-1.4c3.1,0,6,0.5,8.6,1.5s4.8,2.4,6.6,4.2s3.3,4,4.3,6.5C168.8,227.1,169.3,229.9,169.3,233z
			 M141.3,233c0,3.3,0.6,5.7,1.9,7.5c1.3,1.7,3,2.6,5.2,2.6s4-0.9,5.2-2.6c1.2-1.8,1.8-4.2,1.8-7.4s-0.6-5.7-1.8-7.4s-3-2.6-5.2-2.6
			s-4,0.9-5.2,2.6C142,227.3,141.3,229.8,141.3,233z"/>
		<path d="M199.3,223.1c-1.3,0-2.6,0.2-3.8,0.6c-1.2,0.4-2.2,1.1-3.1,1.9c-0.9,0.8-1.6,1.9-2.1,3.1c-0.5,1.2-0.8,2.7-0.8,4.3
			c0,3.3,0.9,5.8,2.8,7.4c1.9,1.7,4.2,2.5,6.9,2.5c1.6,0,3-0.2,4.2-0.6s2.2-0.8,3.1-1.2c1.1,0.7,1.9,1.6,2.4,2.4
			c0.5,0.9,0.8,1.9,0.8,3.2c0,2.2-1,3.9-3.1,5.1s-5,1.8-8.6,1.8c-3.4,0-6.4-0.5-9.1-1.5c-2.7-1-5.1-2.4-7-4.2
			c-1.9-1.8-3.5-3.9-4.5-6.4c-1.1-2.5-1.6-5.3-1.6-8.3c0-3.5,0.6-6.6,1.7-9.2c1.1-2.6,2.7-4.8,4.7-6.5s4.3-3,6.8-3.8
			c2.6-0.9,5.3-1.3,8.2-1.3c3.8,0,6.8,0.7,8.9,2.1c2.1,1.4,3.1,3.2,3.1,5.4c0,1-0.2,2-0.7,2.8c-0.5,0.9-1,1.6-1.7,2.3
			c-0.9-0.4-2-0.8-3.3-1.2C202.2,223.3,200.8,223.1,199.3,223.1z"/>
		<path d="M257,233c0,3.3-0.5,6.3-1.5,8.8c-1,2.6-2.4,4.8-4.3,6.5c-1.8,1.8-4,3.1-6.6,4s-5.4,1.4-8.6,1.4c-3.1,0-6-0.5-8.6-1.4
			s-4.8-2.3-6.6-4.1c-1.8-1.8-3.3-4-4.3-6.5c-1-2.6-1.5-5.4-1.5-8.6c0-3.1,0.5-6,1.5-8.6s2.4-4.7,4.3-6.5c1.8-1.8,4-3.2,6.6-4.1
			s5.4-1.4,8.6-1.4c3.1,0,6,0.5,8.6,1.5s4.8,2.4,6.6,4.2c1.8,1.8,3.3,4,4.3,6.5C256.5,227.1,257,229.9,257,233z M229,233
			c0,3.3,0.6,5.7,1.9,7.5c1.3,1.7,3,2.6,5.2,2.6s4-0.9,5.2-2.6c1.2-1.8,1.8-4.2,1.8-7.4s-0.6-5.7-1.8-7.4c-1.2-1.7-3-2.6-5.2-2.6
			s-4,0.9-5.2,2.6C229.6,227.3,229,229.8,229,233z"/>
		<path d="M289.7,227.8c0-1.7-0.5-2.9-1.4-3.6c-0.9-0.8-2.2-1.2-3.8-1.2c-1.1,0-2.1,0.1-3.2,0.4c-1,0.3-1.9,0.7-2.7,1.2v27.8
			c-0.5,0.2-1.4,0.3-2.5,0.5s-2.3,0.2-3.6,0.2c-1.2,0-2.2-0.1-3.2-0.2c-0.9-0.2-1.7-0.5-2.4-1c-0.6-0.5-1.1-1.1-1.5-2
			c-0.3-0.8-0.5-1.9-0.5-3.2v-24c0-1.4,0.3-2.6,0.9-3.5s1.5-1.7,2.5-2.5c1.8-1.3,4.1-2.3,6.8-3.1c2.7-0.8,5.8-1.2,9.2-1.2
			c6,0,10.7,1.3,13.9,4c3.3,2.6,4.9,6.3,4.9,11v25c-0.5,0.2-1.4,0.3-2.5,0.5s-2.3,0.2-3.6,0.2c-1.2,0-2.2-0.1-3.2-0.2
			c-0.9-0.2-1.7-0.5-2.4-1c-0.6-0.5-1.1-1.1-1.5-2c-0.3-0.8-0.5-1.9-0.5-3.2v-18.9H289.7z"/>
		<path d="M337.8,227.8c0-1.7-0.5-2.9-1.4-3.6c-0.9-0.8-2.2-1.2-3.8-1.2c-1.1,0-2.1,0.1-3.2,0.4c-1,0.3-1.9,0.7-2.7,1.2v27.8
			c-0.5,0.2-1.4,0.3-2.5,0.5s-2.3,0.2-3.6,0.2c-1.2,0-2.2-0.1-3.2-0.2c-0.9-0.2-1.7-0.5-2.4-1c-0.6-0.5-1.1-1.1-1.5-2
			c-0.3-0.8-0.5-1.9-0.5-3.2v-24c0-1.4,0.3-2.6,0.9-3.5s1.5-1.7,2.5-2.5c1.8-1.3,4.1-2.3,6.8-3.1c2.7-0.8,5.8-1.2,9.2-1.2
			c6,0,10.7,1.3,13.9,4c3.3,2.6,4.9,6.3,4.9,11v25c-0.5,0.2-1.4,0.3-2.5,0.5s-2.3,0.2-3.6,0.2c-1.2,0-2.2-0.1-3.2-0.2
			c-0.9-0.2-1.7-0.5-2.4-1c-0.6-0.5-1.1-1.1-1.5-2c-0.3-0.8-0.5-1.9-0.5-3.2v-18.9H337.8z"/>
		<path d="M381.8,253.7c-3.1,0-6.1-0.4-8.8-1.3c-2.7-0.9-5-2.2-7-4s-3.6-4-4.7-6.6c-1.1-2.7-1.7-5.8-1.7-9.4c0-3.5,0.6-6.5,1.7-9.1
			c1.1-2.5,2.7-4.6,4.5-6.2c1.9-1.6,4-2.8,6.4-3.6s4.9-1.2,7.4-1.2c2.8,0,5.4,0.4,7.7,1.3c2.3,0.9,4.3,2,6,3.5s3,3.3,3.9,5.4
			c0.9,2.1,1.4,4.3,1.4,6.8c0,1.8-0.5,3.2-1.5,4.2s-2.4,1.6-4.2,1.8l-19.8,3c0.6,1.8,1.8,3.1,3.6,4c1.8,0.9,3.9,1.3,6.2,1.3
			c2.2,0,4.3-0.3,6.2-0.8c1.9-0.6,3.5-1.2,4.8-2c0.9,0.5,1.6,1.3,2.2,2.2c0.6,1,0.9,2,0.9,3c0,2.4-1.1,4.2-3.4,5.4
			c-1.7,0.9-3.6,1.5-5.8,1.8C385.7,253.5,383.7,253.7,381.8,253.7z M379.6,222.3c-1.3,0-2.4,0.2-3.3,0.6c-0.9,0.4-1.7,1-2.3,1.6
			c-0.6,0.7-1,1.4-1.3,2.2s-0.5,1.7-0.5,2.5L386,227c-0.2-1.1-0.7-2.1-1.8-3.2C383,222.8,381.6,222.3,379.6,222.3z"/>
		<path d="M428.5,223.1c-1.3,0-2.6,0.2-3.8,0.6c-1.2,0.4-2.2,1.1-3.1,1.9c-0.9,0.8-1.6,1.9-2.1,3.1c-0.5,1.2-0.8,2.7-0.8,4.3
			c0,3.3,0.9,5.8,2.8,7.4c1.9,1.7,4.2,2.5,6.9,2.5c1.6,0,3-0.2,4.2-0.6s2.2-0.8,3.1-1.2c1.1,0.7,1.9,1.6,2.4,2.4s0.8,1.9,0.8,3.2
			c0,2.2-1,3.9-3.1,5.1s-5,1.8-8.6,1.8c-3.4,0-6.4-0.5-9.1-1.5s-5.1-2.4-7-4.2c-1.9-1.8-3.5-3.9-4.5-6.4c-1.1-2.5-1.6-5.3-1.6-8.3
			c0-3.5,0.6-6.6,1.7-9.2c1.1-2.6,2.7-4.8,4.7-6.5s4.3-3,6.8-3.8c2.6-0.9,5.3-1.3,8.2-1.3c3.8,0,6.8,0.7,8.9,2.1
			c2.1,1.4,3.1,3.2,3.1,5.4c0,1-0.2,2-0.7,2.8c-0.5,0.9-1,1.6-1.7,2.3c-0.9-0.4-2-0.8-3.3-1.2C431.4,223.3,430,223.1,428.5,223.1z"
			/>
		<path d="M460.8,239.1c0,1.4,0.4,2.4,1.3,3s2.1,0.9,3.7,0.9c0.8,0,1.6-0.1,2.5-0.2s1.6-0.3,2.2-0.5c0.5,0.6,0.9,1.2,1.2,2
			c0.3,0.7,0.5,1.6,0.5,2.6c0,2-0.8,3.7-2.3,5s-4.2,1.9-8,1.9c-4.7,0-8.3-1.1-10.8-3.2s-3.8-5.6-3.8-10.4V206
			c0.6-0.2,1.4-0.3,2.5-0.5s2.3-0.3,3.5-0.3c2.3,0,4.2,0.4,5.5,1.2s2,2.6,2,5.2v5.1h10.5c0.3,0.6,0.6,1.3,0.9,2.2s0.4,1.9,0.4,2.9
			c0,1.9-0.4,3.2-1.2,4c-0.8,0.8-1.9,1.2-3.3,1.2h-7.3L460.8,239.1L460.8,239.1z"/>
	</g>
	<line x1="103.1" y1="143.5" x2="103.9" y2="142.8"/>
	<polygon points="236,151 235.9,150.9 235.9,151 	"/>
	<g>
		<polygon points="236.2,151.1 236.1,151 236,151.1 		"/>
		<path d="M282,82.3c0,0,8.2,15.3-5.4,28.1l-40.5,40.5l0.1,0.1h-0.1l0.1-0.1l-40.5-40.5c-8.4-8.4-9.7-21-2.7-28
			c3.2-3.2,7.8-4.8,13-4.5c5.7,0.3,10.3,3.1,15.1,7.1l15.1,15.3v-33c-18-15.6-44.2-17-59.7-1.4c-16.2,16.2-15.6,43.9,2.2,61.6
			l24,23.9l33.5,33.8l35.8-34.9l20.9-20.9c11.1-11.1,16-21.3,15.5-36.4c-0.4-13.4-4-23.3-15.9-36.7L236.4,0v33.8l30.5,30.8
			C266.9,64.6,279.2,76.5,282,82.3z"/>
	</g>
</g>
</svg>
