<svg xmlns="http://www.w3.org/2000/svg" viewBox="0 0 499.84 161.28"><g fill="#444" stroke-width=".32"><path d="M431.734 111.139c-2.522.195-3.894 1.998-3.894 5.181 0 3.465 1.61 5.158 4.65 4.893.874-.076 1.843-.253 2.15-.39.81-.363.732.605-.115 1.452-.58.58-.951.655-2.64.528-1.081-.082-2.218-.258-2.526-.39-.486-.21-.558-.051-.558 1.212 0 1.397.04 1.46 1.039 1.602 2.062.292 5.512 0 6.586-.557 1.704-.885 1.974-1.985 1.974-8.037v-5.307h-1.84c-1.011 0-2.666-.077-3.675-.172a6.732 6.732 0 00-1.15-.015zm1.979 2.277c.248-.015.49.004.709.059.735.184.777.323.777 2.525 0 1.83-.108 2.373-.506 2.525-.696.267-2.133.236-2.593-.056-1.012-.644-1.191-3.067-.309-4.182.385-.487 1.179-.826 1.922-.871zM306.977 111.04c-.94 0-1.86.213-2.327.54-.547.383-.806.43-.896.16-.077-.23-.808-.38-1.861-.38h-1.733v13.76h3.52v-3.71l2.06.131c1.755.112 2.21.023 3.076-.594 2.609-1.857 2.94-6.68.618-9.002-.745-.745-1.179-.906-2.457-.906zm-1.37 2.56c1.922 0 2.694 3.408 1.127 4.974-.538.539-1.142.785-1.92.785h-1.134v-2.685c0-2.914.1-3.074 1.927-3.074zM292.54 111.078c-.316-.01-.648-.004-.999.016-3.54.2-5.144 1.9-5.14 5.455.001 2.505 1.25 4.372 3.359 5.02 3.225.99 6.666-.443 7.465-3.108.549-1.832.462-3.2-.3-4.772-.835-1.727-2.18-2.54-4.386-2.61zm-.563 2.201c1.751 0 2.85 3.59 1.632 5.33-1.185 1.693-3.53.851-3.707-1.33-.212-2.615.505-4 2.075-4zM319.322 111.078a11.443 11.443 0 00-1.281.027c-3.016.219-4.767 1.91-5.01 4.838-.243 2.938 1.17 4.943 3.975 5.639 1.335.331 4.503.16 5.744-.312.637-.243.77-.516.77-1.582 0-.709-.055-1.288-.122-1.288-.066 0-.637.217-1.27.48-2.493 1.043-5.623.287-5.644-1.36-.003-.298.952-.4 3.721-.4h3.725l-.182-1.759c-.293-2.835-1.644-4.17-4.426-4.283zm-.922 1.883c.243 0 .484.11.88.33.483.27.926.81.982 1.2.096.666-.016.708-1.862.708s-1.959-.042-1.863-.709c.056-.39.499-.93.983-1.199.395-.22.638-.33.88-.33zM343.448 121.61c-2.598-.618-3.926-2.407-3.926-5.29 0-2.431.782-3.806 2.645-4.652 1.477-.67 4.454-.832 5.812-.316.714.272.821.5.821 1.76 0 .796-.042 1.448-.092 1.448-.051 0-.658-.288-1.348-.64-1.582-.806-2.42-.808-3.44-.006-1.433 1.127-1.375 4.347.093 5.132.943.505 2.627.36 3.747-.323l1.04-.634v3.115l-1.422.358c-1.583.398-2.41.408-3.93.047zM355.674 111.064c-.96.018-1.55.186-2.37.604-1.806.921-2.72 2.865-2.513 5.352.174 2.098.919 3.204 2.828 4.203 1.17.611 1.757.715 3.31.586 3.075-.256 4.705-1.897 4.926-4.961.262-3.621-1.439-5.549-5.076-5.754a15.022 15.022 0 00-1.105-.03zm.55 2.168c.495-.031 1.03.181 1.536.688.866.866.92 4.14.08 4.861-1.837 1.578-3.6.451-3.6-2.3 0-1.925.897-3.18 1.985-3.249zM380.244 111.064c-.33-.005-.721.008-1.205.032-3.702.18-5.344 1.86-5.344 5.47 0 1.387.17 2.142.614 2.735.917 1.228 2.146 2.044 3.51 2.326h.001c1.376.284 4.566.085 5.73-.357.638-.243.77-.516.77-1.582 0-1.408-.292-1.554-1.6-.807-.44.251-1.561.463-2.493.469-1.382.009-1.84-.135-2.48-.776-.433-.432-.786-.935-.786-1.119 0-.213 1.333-.336 3.68-.336h3.68l-.007-1.52c-.005-1.903-.498-2.892-1.92-3.857-.722-.49-1.16-.662-2.15-.678zm-.904 1.897c.637 0 1.78 1.13 1.78 1.76 0 .377-.445.478-2.08.478-2.061 0-2.443-.239-1.835-1.15.318-.476 1.519-1.088 2.135-1.088zM389.28 121.78c-.176-.07-.86-.218-1.52-.328-1.182-.198-1.2-.223-1.2-1.66 0-1.268.074-1.43.56-1.223 2.836 1.202 4.082 1.37 5.028.68.798-.584.397-1.103-1.04-1.344-3.317-.556-4.548-1.458-4.548-3.334 0-2.342 1.796-3.553 5.19-3.5 3.2.052 3.593.244 3.708 1.822.054.74.036 1.347-.04 1.347-.077 0-.657-.216-1.289-.48-1.434-.6-3.533-.622-4.014-.043-.526.634.188 1.118 2.019 1.369 1.824.25 3.396 1.25 3.778 2.404.396 1.198-.411 2.978-1.639 3.613-.936.484-4.326.944-4.993.677zM410.629 111.041c-3.08 0-4.903 1.293-5.486 3.897-.357 1.592-.193 3.1.482 4.445.535 1.066 1.133 1.549 2.611 2.1 1.442.537 4.093.377 5.457-.329 1.561-.807 2.307-2.34 2.307-4.744 0-3.487-1.882-5.368-5.371-5.369zm.078 2.24c.904.132 1.74 1.007 1.941 2.348.214 1.422-.458 3.73-1.086 3.73-.17 0-.501.064-.736.141-.755.248-1.866-.419-2.219-1.332-.46-1.19-.178-3.486.524-4.262.467-.516 1.034-.704 1.576-.625zM225.92 121.48c0-.082-.648-2.237-1.44-4.788-.792-2.55-1.44-4.794-1.44-4.985 0-.206.69-.347 1.696-.347h1.695l.73 3.238c.402 1.781.844 3.113.982 2.96.138-.153.653-1.61 1.145-3.238l.893-2.96h3.054l.524 1.84c1.1 3.862 1.228 4.24 1.429 4.24.113 0 .536-1.368.939-3.04l.733-3.04h1.73c.951 0 1.727.036 1.724.08-.003.044-.694 2.312-1.535 5.04l-1.53 4.96-1.807.095-1.806.096-.677-2.336c-1.485-5.115-1.236-4.99-2.373-1.198l-1.003 3.343-1.831.096c-1.008.053-1.832.028-1.832-.055zM243.215 117.04a508.41 508.41 0 01-1.537-5.12c-.132-.484.087-.56 1.609-.56h1.761l.718 2.96c.395 1.628.807 3.06.916 3.184.109.123.63-1.215 1.158-2.972l.96-3.195 1.56.092 1.559.091.879 2.972c.483 1.634.956 3.048 1.05 3.142.093.093.504-1.28.914-3.052l.745-3.222h1.724c1.486 0 1.703.077 1.573.56a419.36 419.36 0 01-1.552 5.12l-1.402 4.56h-3.598l-.924-3.2c-.508-1.76-.998-3.2-1.088-3.2-.09 0-.58 1.44-1.088 3.2l-.924 3.2H244.6zM263.256 121.36c-.077-.132-.753-2.256-1.5-4.72-.748-2.464-1.428-4.66-1.512-4.88-.11-.29.334-.4 1.62-.4 1.925 0 1.782-.145 2.437 2.48.186.748.505 1.972.708 2.72l.369 1.36 1.044-3.2 1.045-3.2 1.546-.092 1.547-.091.92 3.224c.507 1.773.985 3.16 1.063 3.083.078-.078.357-.984.62-2.013 1.22-4.781.884-4.27 2.815-4.27h1.714l-1.246 3.92c-.686 2.155-1.398 4.466-1.583 5.135l-.336 1.215-1.815-.095-1.815-.096-1.005-3.35c-.67-2.232-1.066-3.14-1.189-2.72-.101.347-.562 1.89-1.023 3.43l-.839 2.8h-1.721c-.947 0-1.786-.108-1.864-.24zM280 119.84v-1.76h3.52v3.52H280zM326.4 116.48v-5.12h1.6c1.246 0 1.6.112 1.6.506 0 .43.163.406 1.078-.16.692-.428 1.616-.666 2.584-.666 1.24 0 1.674.166 2.443.935l.935.936v8.689h-3.2v-3.497c0-2.753-.107-3.604-.503-4-.597-.597-1.407-.64-2.522-.132-.804.367-.815.422-.815 4v3.629h-3.2zM364.8 116.48v-5.12h1.6c1.383 0 1.6.086 1.6.635 0 .634.003.634 1.04.001.572-.348 1.508-.634 2.08-.635 1.034-.001 1.04.008 1.04 1.59v1.593l-.949-.19c-.521-.104-1.457-.094-2.08.023l-1.131.212V121.6h-3.2v-5.12zM398.72 119.84v-1.76h3.52v3.52h-3.52zM418.88 116.48v-5.12h1.6c1.383 0 1.6.086 1.6.635 0 .634.003.634 1.04.001.572-.348 1.508-.634 2.08-.635 1.032-.001 1.04.01 1.04 1.568v1.57l-1.2-.157c-.66-.086-1.596-.004-2.08.183l-.88.339v6.736h-3.2v-5.12z"/></g><g fill="#444" stroke-width=".32"><path d="M234.818 45.793c-3.11.038-4.909.675-7.828 2.58l-2.35 1.533V46.4h-10.88v46.08h10.88v-6.914c0-6.462.036-6.899.56-6.675 7.72 3.296 13.747 2.526 18.67-2.387 3.84-3.833 5.275-8.173 4.985-15.065-.242-5.771-1.592-9.539-4.478-12.486-2.16-2.205-4.25-3.01-8.139-3.14a31.114 31.114 0 00-1.42-.02zm-3.517 8.043c1.656.085 3.122.616 4.115 1.578 1.703 1.65 2.184 3.364 2.184 7.785 0 3.49-.077 4.006-.852 5.658-1.02 2.177-2.775 3.582-5.1 4.08-1.525.328-3.604.416-4.289.184-.176-.06-.862-.2-1.525-.31l-1.205-.202.086-8.543.086-8.54 1.254-.592c1.745-.822 3.59-1.183 5.246-1.098zM269.6 45.447c-11.574-.014-18.69 6.14-19.278 16.67-.503 9.033 3.486 15.157 11.573 17.764 2.022.652 3.527.876 6.906 1.035 2.376.112 5.399.097 6.719-.035 2.174-.218 6.466-1.266 8.72-2.129l.881-.336v-4.328c0-4.129-.03-4.328-.646-4.328-.356 0-1.184.338-1.84.75-1.708 1.072-5.217 2.416-7.358 2.818-1.01.19-2.994.265-4.41.168-4.868-.333-8.119-2.275-9.22-5.508-1.013-2.972-2.16-2.709 11.792-2.709h12.32l-.003-3.44c-.006-4.046-.585-6.813-1.969-9.41-2.414-4.528-7.38-6.973-14.187-6.982zm-.965 6.748c1.675.01 3.3.485 4.392 1.455.903.803 1.837 2.924 1.846 4.19l.008 1.04H268c-5.292 0-6.88-.092-6.879-.4.005-1.168.813-2.99 1.817-4.101 1.304-1.444 3.543-2.197 5.697-2.184zM384.854 45.5c-9.13.092-15.267 4.44-17.315 12.344-.672 2.595-.688 8.577-.03 11.062 1.66 6.26 6.265 10.633 12.493 11.87 5 .992 11.073.392 14.877-1.47 3.92-1.918 6.96-5.79 8.158-10.388.64-2.456.64-8.66 0-11.115-1.086-4.17-3.331-7.373-6.691-9.545-2.68-1.732-5.43-2.51-9.625-2.72a30.986 30.986 0 00-1.867-.038zm.294 7.553c3.525-.036 5.676 1.66 6.692 5.279.724 2.578.752 7.773.053 10.178-.61 2.096-2.38 4.28-3.819 4.717-1.315.398-2.86.645-3.273.521-.176-.053-.869-.188-1.54-.3-.745-.126-1.707-.647-2.478-1.343-1.767-1.596-2.573-4.287-2.582-8.626-.014-7.095 2.172-10.377 6.947-10.426zM186.56 34.813c-7.372.02-12.345 1.822-16.501 5.978-2.77 2.77-4.956 6.885-5.73 10.795-.643 3.237-.634 9.498.017 12.668.664 3.239 2.505 7.11 4.54 9.55 2.77 3.321 7.151 5.826 11.936 6.825.78.163 3.794.253 6.698.2 4.397-.082 5.653-.217 7.52-.811 5.553-1.77 9.654-5.252 12.112-10.288 1.845-3.777 2.448-6.718 2.448-11.935 0-7.889-2.13-13.4-6.827-17.66-4.054-3.677-9.127-5.342-16.212-5.322zm.221 8.39c2.59.002 5.185.923 7.094 2.832 2.522 2.522 3.885 6.692 3.885 11.885 0 6.81-2.39 11.748-6.674 13.79-1.993.951-5.69 1.134-7.844.39-2.11-.73-4.756-3.2-5.81-5.428-2.626-5.55-2.235-14.205.863-19.067 1.84-2.887 5.157-4.404 8.486-4.402zM343.52 80.486c-8.137-1.795-13.513-6.984-15.753-15.206-.802-2.942-.787-11.761.024-14.68 3.123-11.233 12.59-17.048 25.603-15.725 3.969.404 6.242.953 9.566 2.31l2.48 1.012v5.541c0 6.496.092 6.38-3.16 3.973-4.477-3.313-7.33-4.335-11.528-4.13-4.62.224-7.895 2.207-9.92 6.007-3.297 6.186-2.192 15.679 2.297 19.735 2.04 1.842 4.36 2.737 7.57 2.92 4.275.244 7.49-.88 11.654-4.07 1.157-.887 2.325-1.613 2.595-1.613.423 0 .492.756.492 5.397v5.397l-2.32 1.04c-4.223 1.892-7.688 2.57-13 2.54-2.599-.014-5.534-.213-6.6-.448zM450.701 45.516c-.464.002-.938.015-1.422.039-2.024.098-4.399.378-5.279.623-6.003 1.67-10.6 6.275-12.04 12.062-.638 2.57-.551 8.654.16 11.04 1.766 5.934 6.061 9.561 13.32 11.241 1.183.275 3.697.375 7.68.311 5.981-.097 7.886-.42 12.24-2.08l.88-.336v-4.328c0-4.13-.029-4.328-.646-4.328-.356 0-1.19.358-1.854.797-.663.438-2.423 1.258-3.912 1.82-2.486.937-3.023 1.022-6.549 1.031-3.242.009-4.12-.102-5.638-.707-2.897-1.153-4.71-3.302-5.25-6.22l-.223-1.202h24.713v-3.611c0-4.134-.502-6.476-1.977-9.242-2.466-4.627-7.24-6.948-14.203-6.91zm-.834 6.703c1.65.038 3.24.508 4.28 1.431.902.803 1.836 2.924 1.845 4.19l.008 1.04h-6.88c-5.623 0-6.88-.081-6.88-.44 0-1.04 1.065-3.318 2.004-4.288 1.28-1.32 3.502-1.982 5.623-1.933zM474.325 80.294c-1.625-.341-3.641-.89-4.48-1.22l-1.525-.598-.089-4.518c-.073-3.711-.008-4.518.361-4.518.248 0 1.287.504 2.31 1.12 3.904 2.35 8.239 3.492 12.46 3.281 3.24-.162 4.84-.778 5.142-1.982.518-2.063-.555-2.836-5.144-3.704-7.677-1.453-10.005-2.285-12.114-4.333-2.036-1.978-2.594-3.416-2.6-6.702-.004-2.228.137-3.17.625-4.16 1.54-3.126 5.517-5.787 10.089-6.75 3.463-.731 11.665-.459 15.187.503 3.981 1.088 3.693.65 3.693 5.618 0 2.702-.121 4.309-.325 4.309-.179 0-1.091-.433-2.029-.962-4.342-2.45-10.135-3.479-13.722-2.436-2.698.784-3.548 2.363-2.069 3.842.772.772 2.44 1.238 8.705 2.432 7.804 1.489 10.855 4.324 10.851 10.084 0 2.134-.14 2.829-.837 4.173-1.666 3.213-5.438 5.732-10.042 6.707-3.269.693-10.72.597-14.447-.186zM289.28 63.36V46.4h10.88v1.76c0 .968.067 1.76.15 1.76.083 0 1.176-.664 2.43-1.475 3.283-2.123 5.115-2.685 8.76-2.685 5.075 0 8.44 1.825 10.242 5.555 1.25 2.587 1.453 5.014 1.456 17.405l.003 11.6h-10.88l-.006-9.36c-.01-12.956-.317-14.656-2.897-16.02-1.578-.834-5.013-.598-7.435.51l-1.822.835V80.32h-10.88V63.36zM407.36 63.36V46.4h10.88v4.832l2.043-1.457c1.123-.802 2.671-1.735 3.44-2.075 1.837-.81 5.447-1.422 6.845-1.16l1.112.209v10.243l-2-.256c-2.968-.38-6.736-.22-9.23.392l-2.21.54V80.32h-10.88z"/></g><g fill="#444" stroke-width=".32"><path d="M-.001 80.798l25.812-25.806-.146 4.317c-.24 7.088.803 11.974 3.806 17.811 5.048 9.814 14.204 16.667 25.01 18.716 1.405.267 4.31.484 6.472.484h3.923l.173 5.04c.213 6.194 1.018 9.488 3.578 14.64 3.587 7.22 8.965 12.61 16.13 16.167 5.415 2.687 10.256 3.662 17.163 3.454l4.677-.14c-8.832 8.399-16.96 17.58-25.956 25.799-28.5-28.256-50.084-49.923-80.642-80.482zM116.62 116.786l-4.14-4.136-1.421 1.128c-5.082 4.032-12.231 4.807-18.259 1.979-2.667-1.251-6.516-5.044-7.766-7.653-3.295-6.876-2.039-14.525 3.253-19.817 3.297-3.297 7.517-5.078 12.033-5.078 3.761 0 8.118 1.518 10.698 3.726.684.586 1.366 1.065 1.516 1.065.15 0 3.126-2.857 6.614-6.348l6.342-6.348-1.705-1.534c-3.785-3.404-9.14-6.284-14.345-7.713-2.451-.673-4.016-.868-8.08-1.008l-5.04-.173v-3.923c0-6.233-1.133-10.901-3.972-16.37-5.177-9.972-15.082-17.07-26.063-18.676-1.563-.228-4.434-.328-6.964-.243l-4.304.146C63.621 17.198 74.018 6.766 80.802.001l80.634 80.636c-13.99 14.062-29.045 28.83-40.678 40.284z"/><path d="M56.707 77.602c-4.134-1.161-7.976-3.947-10.152-7.362-2.257-3.543-3.198-8.375-2.428-12.48 1.242-6.63 7.038-12.428 13.633-13.64 4.126-.759 8.943.181 12.48 2.435 2.172 1.384 5.041 4.559 6.053 6.698 2.642 5.585 2.281 12.2-.93 17.043-2.101 3.17-5.197 5.618-8.669 6.857-2.498.891-7.596 1.12-9.987.449z"/></g></svg>