<?xml version="1.0" encoding="utf-8"?>
<!-- Generator: Adobe Illustrator 23.0.6, SVG Export Plug-In . SVG Version: 6.00 Build 0)  -->
<svg version="1.1" id="Layer_1" xmlns="http://www.w3.org/2000/svg" xmlns:xlink="http://www.w3.org/1999/xlink" x="0px" y="0px"
	 viewBox="0 0 340 160" enable-background="new 0 0 340 160" xml:space="preserve">
<g>
	<path fill="currentColor" d="M52.6,40.7V96l35.5-25.2l19,13.5V40.7H52.6z"/>
	<path fill="currentColor" d="M88.1,81.1l-35.5,25.2v15.9h54.5V94.6L88.1,81.1z M93.4,110.4H82.8V95.7h10.5L93.4,110.4L93.4,110.4z
		 M121.3,47.4c0-3.9,0.2-5-4.1-5c-0.6,0-2-0.1-2-0.9c0-0.6,0.5-0.8,1.1-0.8c2,0,3.9,0.2,5.9,0.2c7.1,0,14.3-0.2,21.5-0.2
		c1.2,0,1,1.3,1,2.2v4.4c0,0.5,0.3,2.4-0.6,2.4c-0.6,0-0.9-0.9-1-1.3c-1.7-5.9-5.5-6-11-6c-1.1,0-4.3,0-5.3,0.4
		c-0.9,0.4-0.8,2.2-0.8,3v8.9c0,2.9,0.6,2.9,3.1,2.9c1.9,0,5.1,0.1,7.6-0.2c1.6-0.2,1.9-2.5,2.2-4.3c0.1-0.4,0.2-1.1,0.8-1.1
		c0.3,0,0.7,0.1,0.7,0.6l-0.3,5.4c0.1,2,0.3,3.9,0.3,5.9c0,1-0.4,1.1-0.7,1.1c-0.6,0-0.8-0.7-0.8-1.1c-0.3-1.8-0.8-3.7-2.2-4
		c-2.4-0.6-5.7-0.6-7.6-0.6c-2.5,0-3.1,0-3.1,2.1V73c0,4-0.2,5.1,4.1,5.2c0.6,0,1.6-0.1,1.6,0.8c0,0.7-0.5,0.8-1.1,0.8
		c-2.4,0-4.6-0.3-7-0.3s-4.8,0.3-7.1,0.3c-0.6,0-1.1-0.1-1.1-0.8c0-0.8,1.3-0.8,1.9-0.8c4.4,0,4.1-1.3,4.1-5.2V47.4
		C121.4,47.4,121.3,47.4,121.3,47.4z M148.9,63c0-0.8,0.1-3.1-0.6-3.7c-0.3-0.4-1.2-0.5-1.7-0.5h-0.7c-0.3,0-0.7-0.1-0.7-0.5
		c0-0.7,0.8-0.8,1.3-1c1.4-0.4,3.9-1.9,4.8-3c0.3-0.3,0.6-0.7,1-0.7c0.6,0,0.5,0.5,0.5,0.9v2.8c0,0.2-0.1,1.2,0.3,1.2
		c0.6,0,2.8-4.6,6.8-4.6c1.7,0,3.3,1,3.3,2.8c0,1.4-1,2.3-2.4,2.3c-2,0-2.1-2.2-3.7-2.2c-1.3,0-2.3,1.2-2.9,2.1
		c-1.4,2-1.3,3.5-1.3,5.8v9.1c0,2.5-0.5,4.4,2.6,4.7c0.6,0.1,1.6,0,1.6,0.7c0,0.5-0.3,0.6-0.7,0.6c-1.8,0-3.7-0.2-5.4-0.2
		c-1.8,0-3.7,0.2-5.5,0.2c-0.4,0-0.8-0.1-0.8-0.6c0-0.9,1-0.7,1.6-0.8c3.1-0.3,2.6-2.3,2.6-4.7L148.9,63L148.9,63z M169.3,64.1
		c-1.8,0-2.4-0.1-2.4,1.8c0,6.5,4.2,12,11.2,12c5.7,0,7.8-3.7,8.5-3.7c0.3,0,0.5,0.2,0.5,0.5c0,0.7-1.8,2.2-2.2,2.6
		c-2.7,2.3-5.5,3.2-9.1,3.2c-7.6,0-13.1-6.1-13.1-13.3c0-3.9,1.1-7,4.1-9.6c2.9-2.5,6.5-3.9,10.4-3.9c3.1,0,6.3,1.1,8.3,3.6
		c1.2,1.4,2,3.9,2,5.8c0,0.5-0.1,1-0.7,1C186.8,64.1,169.3,64.1,169.3,64.1z M174.1,62.7c1.8,0,5-0.1,6.7-0.5
		c1.3-0.3,2.1-0.9,2.1-2.3c0-1.2-0.7-2.5-1.5-3.4c-1.3-1.3-3.2-1.4-5-1.4c-2.9,0-5.8,1.4-7.5,3.8c-0.5,0.6-1.4,2.1-1.4,3
		s1.3,0.8,2,0.8L174.1,62.7L174.1,62.7z M269.3,64.1c-1.8,0-2.4-0.1-2.4,1.8c0,6.5,4.2,12,11.2,12c5.7,0,7.8-3.7,8.5-3.7
		c0.3,0,0.5,0.2,0.5,0.5c0,0.7-1.8,2.2-2.2,2.6c-2.7,2.3-5.5,3.2-9.1,3.2c-7.6,0-13.1-6.1-13.1-13.3c0-3.9,1.1-7,4.1-9.6
		c2.9-2.5,6.5-3.9,10.4-3.9c3.1,0,6.3,1.1,8.3,3.6c1.2,1.4,2,3.9,2,5.8c0,0.5-0.1,1-0.7,1L269.3,64.1L269.3,64.1z M274,62.7
		c1.8,0,5-0.1,6.7-0.5c1.3-0.3,2.1-0.9,2.1-2.3c0-1.2-0.7-2.5-1.5-3.4c-1.3-1.3-3.2-1.4-5-1.4c-2.9,0-5.8,1.4-7.5,3.8
		c-0.5,0.6-1.4,2.1-1.4,3s1.3,0.8,2,0.8L274,62.7L274,62.7z M258.8,73.9c0,2.5-0.5,4.4,2.6,4.7c0.6,0.1,1.6,0,1.6,0.7
		c0,0.5-0.3,0.6-0.7,0.6c-1.9,0-3.7-0.2-5.4-0.2c-1.8,0-3.7,0.2-5.5,0.2c-0.4,0-0.8-0.1-0.8-0.6c0-0.9,1-0.8,1.6-0.8
		c3.1-0.3,2.6-2.2,2.6-4.7V63c0-0.8,0.1-3.1-0.6-3.7c-0.3-0.4-1.2-0.5-1.7-0.5h-0.7c-0.3,0-0.7-0.1-0.7-0.5c0-0.7,0.8-0.8,1.3-1
		c1.4-0.4,3.9-1.9,4.8-3c0.3-0.3,0.6-0.7,1-0.7c0.6,0,0.5,0.5,0.5,0.9L258.8,73.9L258.8,73.9z M254.3,45.9c0-1.5,1-2.9,2.6-2.9
		c1.5,0,2.4,1.4,2.4,2.8c0,1.6-0.9,2.9-2.5,2.9C255.3,48.7,254.3,47.4,254.3,45.9 M220.2,76.4c-0.5,0-1.2,1.4-2.6,1.4
		c-1.8,0-2-2.8-2-3.5v-34c0-0.5,0.1-0.9-0.5-0.9c-0.4,0-0.9,0.4-1.2,0.6c-1.4,0.9-3.6,1.5-5.2,1.8c-0.3,0.1-0.8,0.2-0.8,0.6
		c0,0.7,1,0.6,1.5,0.6c2.8,0,2.2,2.5,2.2,4.7v5.5c0,0.3,0.2,2.1-0.5,2.1c-0.3,0-0.8-0.2-1.1-0.3c-1.9-0.7-4-1.3-6.2-1.2
		c-4.7,0.1-7.3,1.7-9.8,4.1c-2.6,2.5-4,5.6-4,9.3c0,6.9,5.1,13.3,12.4,13.3c4.7,0,8-3.9,8.9-3.9c0.6,0,1,1.6,1.2,1.9
		c0.5,1.5,1.2,1.9,2.6,1.9c1.5,0,2.9-0.9,4.1-1.7c0.4-0.3,1.4-1.1,1.4-1.8C220.6,76.6,220.5,76.4,220.2,76.4 M211.1,75.2
		c-1.6,1.9-4.4,2.7-6.8,2.7c-6.4,0-10-5.9-10-11.7s3.8-10.7,10-11.3c1.9-0.2,4.5,0.5,5.9,1.8c1.5,1.4,1.4,3.3,1.4,5.1v10.4
		C211.7,73.5,211.9,74.3,211.1,75.2"/>
	<path fill="currentColor" d="M249.4,76.4c-0.5,0-1.2,1.4-2.6,1.4c-1.8,0-2-2.8-2-3.5v-34c0-0.5,0.1-0.9-0.5-0.9c-0.4,0-0.9,0.4-1.2,0.6
		c-1.4,0.9-3.6,1.5-5.2,1.8c-0.3,0.1-0.8,0.2-0.8,0.6c0,0.7,1,0.6,1.5,0.6c2.8,0,2.3,2.5,2.3,4.7v5.5c0,0.3,0.2,2.1-0.5,2.1
		c-0.3,0-0.8-0.2-1.1-0.3c-1.9-0.7-4-1.3-6.2-1.2c-4.7,0.1-7.3,1.7-9.8,4.1c-2.6,2.5-4,5.6-4,9.3c0,6.9,5.1,13.3,12.4,13.3
		c4.7,0,8-3.9,8.9-3.9c0.6,0,1,1.6,1.2,1.9c0.5,1.5,1.2,1.9,2.6,1.9c1.5,0,2.9-0.9,4.1-1.7c0.4-0.3,1.4-1.1,1.4-1.8
		C249.8,76.6,249.7,76.4,249.4,76.4 M240.3,75.2c-1.6,1.9-4.4,2.7-6.8,2.7c-6.4,0-10-5.9-10-11.7s3.7-10.7,10-11.3
		c1.9-0.2,4.6,0.5,5.9,1.8c1.5,1.4,1.4,3.3,1.4,5.1v10.4C240.9,73.5,241.1,74.3,240.3,75.2 M138.1,114L150,86.8
		c0.3-0.7,0.9-0.7,1.6-0.7h6.4c0.6,0,1.7-0.3,1.7,0.6c0,0.8-0.8,0.9-1.4,0.9c-0.7,0-2-0.2-2.5,0.5c-0.7,0.8-0.5,3-0.5,4.1V116
		c0,0.9-0.1,3.2,0.6,4c0.6,0.7,1.4,0.8,2.2,0.8c0.6,0,1.8-0.1,1.8,0.7c0,0.6-0.6,0.7-1.1,0.7c-1.9,0-3.7-0.2-5.5-0.2
		c-2.3,0-4.6,0.2-6.9,0.2c-0.5,0-1.1-0.1-1.1-0.7c0-0.9,1.2-0.7,1.8-0.7c0.9,0,2.1-0.3,2.7-0.8c1-0.8,0.9-2.9,0.9-4V89.9h-0.4
		l-12.8,30c-0.2,0.4-0.4,1-0.9,1c-0.6,0-0.8-0.7-0.9-1.1l-11.4-29.2H124v23.7c0.1,3.6-0.3,6.5,3.8,6.5c0.6,0,1.8-0.1,1.8,0.7
		c0,0.7-0.8,0.7-1.3,0.7c-1.7,0-3.5-0.2-5.2-0.2s-3.5,0.2-5.1,0.2c-0.5,0-0.9-0.1-0.9-0.7c0-0.7,1-0.7,1.5-0.7
		c3.2,0,3.4-1.5,3.6-4.3V90.9c0-3.1,0-3.3-3.1-3.3c-0.6,0-1.4-0.1-1.4-0.9c0-0.9,1-0.6,1.7-0.6h6.7c1.1,0,1.2,0.7,1.5,1.7L138.1,114
		z M174.3,108c2.1-1,2.1-1,2.1-3.2v-2.5c0-2.8-0.1-4.9-3.7-4.9c-3.5,0-5.3,1.6-6.6,4.5c-0.4,0.9-0.7,1.7-1.6,2.1
		c-0.6,0.3-1.8,0.7-2.5,0.7c-0.5,0-0.7-0.1-0.7-0.7c0-1.5,1.3-3.2,2.4-4.1c2.7-2.4,6.6-4,10.3-4c1.8,0,3.9,0.3,5.3,1.5
		s1.1,2.7,1.1,4.2v13.6c0,1.3-0.1,4.6,2,4.6c1.4,0,2.1-1.4,2.6-1.4c0.2,0,0.4,0.2,0.4,0.5c0,0.6-1,1.4-1.4,1.8
		c-1.1,0.8-2.6,1.7-4.1,1.7c-2.8,0-3.1-4-3.9-4c-0.5,0-4.3,4.4-9.3,4.4c-2.7,0-5.4-1.7-5.4-4.6c0-4.1,5.4-6.5,8.5-8.1L174.3,108
		L174.3,108z M170.2,111.2c-2.2,1.1-4.5,2.6-4.5,5.4c0,2.3,1.8,3.3,4,3.3c2,0,4-0.9,5.4-2.3s1.4-2.3,1.4-4.2v-3.5
		c0-0.2,0.2-1.6-0.4-1.6c-0.2,0-0.5,0.2-0.6,0.2L170.2,111.2L170.2,111.2z M206.4,103.3c-1.8,0-2.9-6.2-7.5-6.2c-2,0-4.3,1-5.8,2.3
		c-2.7,2.3-4.2,5.8-4.2,9.3c0,5.9,4.3,11.9,10.8,11.9c2.5,0,4.8-0.8,6.6-2.5c0.2-0.2,0.6-0.7,0.9-0.7c0.2,0,0.4,0.2,0.4,0.5
		c0,0.6-1.3,1.7-1.7,2.1c-2.4,1.9-5.2,2.8-8.4,2.8c-7.1,0-12.9-5.9-12.9-12.8c0-7.8,7.3-13.9,15-13.9c2.2,0,5.2,0.6,7.1,1.9
		c0.7,0.5,0.5,1.8,0.5,2.5C207.1,100.8,207.4,103.3,206.4,103.3"/>
</g>
</svg>
