<svg xmlns="http://www.w3.org/2000/svg" viewBox="0 0 340 160" enable-background="new 0 0 340 160"><path d="m174.33 53.1c1.099 4.062 2.894 7.183 5.726 9.956 2.422 2.371 4.889 3.888 8.101 4.982 2.979 1.015 7.159 2.029 9.861 2.394.175.023.397.055.495.069.559.083 1.294.177 1.695.216.252.024.546.055.653.068.107.013.472.044.812.069s.729.059.865.075c.136.016.883.05 1.659.075.777.025 1.426.057 1.442.071.069.061 3.9-.054 5.091-.152.818-.067 2.058-.186 2.178-.208.064-.012.333-.043.597-.07.265-.027.538-.059.607-.073.069-.013.295-.046.501-.072.206-.026.425-.057.487-.068.062-.011.447-.074.854-.14 3.333-.535 7.892-1.731 10.249-2.69 2.754-1.121 5.04-2.65 7.159-4.797 2.297-2.323 3.967-5.05 5.02-8.195.604-1.804 1.309-4.871 1.729-7.521l.207-1.306c.749-5.871.691-10.275.001-15.456l-.181-1.17c-.522-3.373-1.372-6.847-2.156-8.815-2.103-5.281-6.156-9.478-11.294-11.697-2.073-.896-5.762-1.94-9.214-2.611-8.789-1.706-18.11-1.301-26.73 1.163-3.765 1.076-5.917 2.039-8.192 3.664-3.55 2.536-6.251 6.169-7.699 10.356-.941 2.721-1.936 7.744-2.256 11.395-.042.486-.092 1.01-.109 1.157-.179 1.529-.178 6.656.002 8.624.382 4.168.922 7.309 1.841 10.707m18.804-17.52c.266-2.568.886-5.123 1.602-6.603.77-1.593 1.893-2.874 3.388-3.864 1.485-.984 2.743-1.389 5.474-1.764.915-.125 4.934-.124 5.932.001 1.159.146 2.524.413 3.143.615 1.25.408 2.619 1.203 3.583 2.08.918.837 1.847 2.15 2.351 3.324.576 1.342 1.128 3.711 1.391 5.963.137 1.177.112 4.638-.041 5.791-.292 2.182-.908 4.636-1.464 5.822-1.096 2.339-3.18 4.208-5.67 5.083-.771.271-2.167.534-3.553.67-2.647.26-5.293.148-7.613-.319-3.459-.697-6.21-3.069-7.363-6.348-.481-1.367-.953-3.593-1.153-5.438-.114-1.032-.117-3.952-.007-5.01"/><path d="m166.94 29.614c-.39-2.722-1.184-6.298-1.825-8.216-.763-2.282-2.066-4.678-3.577-6.579-.642-.807-2.447-2.605-3.286-3.274-2-1.597-4.407-2.871-6.982-3.703-4.837-1.563-9.863-2.495-14.971-2.775-1.698-.093-5.824-.051-7.31.075-5.02.426-9.86 1.412-14.159 2.887-5.367 1.841-9.681 5.617-12.145 10.631-.916 1.864-1.351 3.124-1.979 5.728-.799 3.314-1.346 6.983-1.537 10.311-.069 1.213-.067 5.53.003 6.78.226 3.983.992 8.482 2.101 12.336.774 2.691 1.973 5.02 3.764 7.328.723.929 2.322 2.541 3.295 3.32 1.521 1.219 3.522 2.395 5.332 3.134 2.31.943 6.97 2.167 10.275 2.698.408.066.794.129.859.141s.271.043.459.069.421.058.519.072c.097.014.367.045.6.07.233.024.503.057.6.071.233.035 1.506.156 2.26.215.331.026 1.188.072 1.907.102 1.22.052 3.951.031 5.155-.04.794-.047 1.699-.11 1.977-.139.136-.014.47-.045.742-.068.44-.038 1.765-.196 2.437-.292 3.233-.46 6.932-1.334 10.126-2.392 1.608-.532 2.952-1.144 4.316-1.963 4.373-2.627 7.666-6.754 9.253-11.598.409-1.248.905-3.218.829-3.293-.059-.059-19.392-9.09-19.416-9.07-.007.005-.108.486-.226 1.069-.638 3.156-1.464 4.895-3.089 6.497-1.378 1.359-3.063 2.247-5.01 2.64-2.984.603-6.71.604-9.824.003-2.965-.572-5.558-2.531-6.913-5.222-.701-1.393-1.349-4.03-1.618-6.602-.151-1.442-.105-4.378.091-5.837.264-1.961.769-4.04 1.277-5.258 1.085-2.598 3.283-4.622 5.971-5.499.619-.202 1.984-.469 3.143-.615 1.152-.145 5.088-.122 6.214.036 2.569.362 3.995.862 5.473 1.919 1.498 1.071 2.765 2.679 3.384 4.293.772 2.01 1.377 5.225 1.389 7.364.002.347.021.701.042.789l.039.159h10.342 10.342l-.039-1.183c-.091-2.662-.262-4.661-.614-7.115"/><path d="m167.34 103.59c-.24-3.486-1.388-9.24-2.403-12.04-.924-2.55-2.436-5.05-4.302-7.118-2.35-2.603-5.612-4.703-9.08-5.846-11.415-3.763-23.609-3.92-35.03-.451-1.667.506-2.551.826-3.602 1.3-4.824 2.179-8.654 6.072-10.739 10.915-1.44 3.344-2.72 9.685-3.01 14.929-.07 1.249-.069 5.554.001 6.825.123 2.226.526 5.343 1.015 7.836.283 1.446.923 4.053 1.239 5.05 1.736 5.464 5.496 9.904 10.58 12.495 1.205.615 1.855.88 3.354 1.373 5.05 1.658 10.232 2.581 15.854 2.823 2.822.121 6.529-.053 9.604-.452 4.777-.619 10.329-2.068 13.277-3.466 2.797-1.325 5.472-3.424 7.369-5.781 1.155-1.435 2.416-3.561 3.122-5.261 1.429-3.445 2.673-9.995 2.91-15.325.09-2.02.04-6.187-.083-6.956-.016-.098-.05-.479-.075-.848m-21.268 11.473c-.628 2.492-1.497 4.089-2.991 5.496-1.853 1.744-3.804 2.501-7.327 2.843-.917.089-3.547.125-4.255.058-2.909-.274-4.192-.565-5.593-1.267-1.945-.974-3.409-2.435-4.382-4.374-.733-1.46-1.365-4.02-1.637-6.637-.136-1.307-.103-4.458.06-5.65.38-2.788 1.01-5.01 1.832-6.483.666-1.191 1.845-2.442 3.068-3.256 2.035-1.355 4.41-1.894 8.383-1.904 4.967-.011 7.816.873 10.07 3.127 1.392 1.392 2.168 2.874 2.78 5.309 1.045 4.164 1.043 8.569-.008 12.738"/><path d="m240.32 100.95l-.181-1.17c-.555-3.593-1.49-7.267-2.374-9.327-.724-1.69-1.858-3.587-2.998-5.01-.628-.788-2.446-2.605-3.205-3.205-1.863-1.473-4.135-2.74-6.214-3.466-4.554-1.589-9.752-2.634-15.01-3.02-1.521-.11-6.083-.109-7.521.001-4.862.374-8.757 1.086-13.05 2.385-2.036.616-2.992.985-4.407 1.703-4.648 2.356-8.102 6.088-10.07 10.883-.445 1.083-.684 1.826-1.092 3.402-.799 3.081-1.357 6.312-1.63 9.428-.058.66-.127 1.423-.154 1.695-.027.272-.061 11.577-.075 25.12v-.001l-.027 24.628h10.348 10.348l.003-23.428c.002-12.886.018-23.698.036-24.03.171-3.195.858-6.28 1.814-8.148 1.357-2.651 3.833-4.47 6.931-5.092 1.58-.317 2.747-.419 4.81-.419 2.031 0 3.05.089 4.733.415 2.032.394 3.623 1.2 5.05 2.562 1.529 1.455 2.351 2.999 2.991 5.618.513 2.098.678 3.438.709 5.77.033 2.387-.084 3.663-.533 5.833-.676 3.265-1.594 5.03-3.49 6.722-1.287 1.147-2.926 1.933-4.732 2.271-3.707.692-8.446.517-11.05-.409-.329-.117-.604-.207-.609-.199-.006.007 1.565 4.347 3.492 9.644l3.503 9.631 1.379-.047c4.986-.17 9.303-.805 13.773-2.027 4.124-1.127 6.376-2.107 8.784-3.823 3.189-2.271 5.713-5.452 7.243-9.126.832-1.999 1.711-5.484 2.263-8.971l.212-1.342c.719-5.641.777-10.419.001-15.456"/></svg>
