<svg xmlns="http://www.w3.org/2000/svg" viewBox="0 0 306 251" enable-background="new 0 0 306 251"><path d="m26.6 211.5c0 3.6-1 6.3-2.9 8.3-1.6 1.6-4 2.8-7.2 3.4-2.2.4-5.1.6-8.8.6h-4.4c-2.2 0-3.3-1.1-3.3-3.3v-.8c0-2.2 1.1-3.3 3.3-3.3h4.2c2.7 0 5-.4 7.1-1.2 2.1-.8 3.1-1.8 3.1-2.9v-31c0-2.2 1.1-3.3 3.3-3.3h2.3c2.2 0 3.3 1.1 3.3 3.3v30.2m1.2-39c0 1.4-.6 2.5-1.7 3.3-1.1.9-2.5 1.3-4 1.3-1.6 0-2.9-.4-4-1.2-1.3-.9-1.9-2-1.9-3.4 0-1.4.6-2.5 1.8-3.3 1.2-.8 2.6-1.2 4.1-1.2 1.5 0 2.9.4 4 1.2 1.2.8 1.7 1.9 1.7 3.3"/><path d="m91.9 203.1c0 3.5-1.1 6.3-3.4 8.3-3 2.6-8 3.9-14.9 3.9h-21.8c-2.1 0-4.4-.3-6.9-.9-3.4-.8-6.2-2-8.2-3.5-2.6-2-3.9-4.4-3.9-7.3v-5.2c0-3.4 1.6-6.2 4.7-8.4 3.4-2.4 8.1-3.5 14-3.5h31.5c-.2-1.4-1.3-2.5-3.2-3.2-1.9-.7-4.3-1-7.4-1h-6.7c-2.2 0-3.3-1.1-3.3-3.3v-.9c0-2.2 1.1-3.3 3.3-3.3h4.9c7.1 0 12.4 1.1 16 3.4 3.5 2.1 5.2 5.2 5.2 9.1l.1 15.8m-8.9.4v-9.6h-31.8c-1.7 0-3.5.3-5.5.9-2.7.9-4.1 2-4.1 3.5v5.1c0 1.7 1.6 2.9 4.8 3.6 1.1.2 2.8.5 5.1.8h22.2c2.9 0 5.1-.3 6.7-.9 1.7-.8 2.6-1.9 2.6-3.4"/><path d="m149.3 203.7c0 3.8-1.3 6.7-4 8.5-2.9 2-7.4 3-13.7 3h-30.2c-2.2 0-3.3-1.1-3.3-3.3v-.8c0-2.2 1.1-3.3 3.3-3.3h30.2c2.8 0 4.8-.3 6.1-.8 1.5-.6 2.2-1.7 2.2-3.2v-1.5c0-1.4-.6-2.3-1.8-2.8-1.2-.5-3.2-.8-5.8-.8h-14.3c-7.1 0-12.3-1-15.5-2.9-3-1.8-4.5-4.6-4.5-8.3v-2.2c0-3 1.3-5.4 4-7.2 3.2-2.1 8.3-3.2 15.3-3.2h6.6c2.2 0 3.3 1.1 3.3 3.3v.9c0 2.2-1.1 3.3-3.3 3.3h-6.4c-4 0-6.8.2-8.3.6s-2.2 1.2-2.2 2.3v2.1c0 1.5 1 2.4 3 3 1.6.4 4.3.6 8.2.6h14.8c5.4 0 9.5 1 12.3 2.9 2.8 1.9 4.2 4.6 4.2 8.1l-.2 1.7"/><path d="m210.4 202.4c0 4.3-1.7 7.4-5.1 9.6-3.3 2-8 3-14.1 3h-27.9v8.2c0 2.2-1.1 3.3-3.3 3.3h-2.3c-2.2 0-3.3-1.1-3.3-3.3v-36.4c0-3.9 1.4-6.8 4.1-8.7 3.2-2.2 8.6-3.3 16.2-3.3h14.3c7.6 0 13.1 1 16.6 3.1 3.2 2 4.9 4.9 4.9 8.8l-.1 15.7m-9 .1v-15.7c0-1.7-.9-2.8-2.7-3.5-1.8-.7-5-1-9.7-1h-13.9c-4 0-6.9.3-8.6.9-2.1.7-3.2 2-3.2 3.9v20.5h27.9c3.4 0 5.9-.3 7.5-1 1.8-.9 2.7-2.2 2.7-4.1"/><path d="m273.2 195.8c0 1-.2 1.8-.6 2.6-.4.7-1 1.1-1.8 1.1h-44.4c0 5.5 3.9 8.3 11.6 8.3h6.7c2.2 0 3.3 1.1 3.3 3.3v.8c0 2.2-1.1 3.3-3.3 3.3h-5.7c-4 0-7.5-.3-10.3-1-2.8-.7-5-1.6-6.5-2.7-3.3-2.6-4.9-5.6-4.9-9.1v-14.9c0-4 1.9-7.1 5.7-9.4 3.8-2.3 9-3.5 15.6-3.5h16.7c5 0 9.2.9 12.5 2.8 3.7 2 5.5 4.9 5.5 8.5l-.1 9.9m-8.7-4.1v-5c0-1.2-1.2-2.2-3.6-3.1-2.4-.9-5.2-1.3-8.5-1.3h-12.9c-3.9 0-7 .4-9.4 1.1-2.7.8-4.1 2.1-4.1 3.7v4.7l38.5-.1"/><path d="m306 179c0 2.2-1.1 3.3-3.3 3.3h-4.1c-3.8 0-6.5.5-8.1 1.5-1.3.8-1.9 2-1.9 3.5v24.6c0 2.2-1.1 3.3-3.3 3.3h-2.4c-2.2 0-3.3-1.1-3.3-3.4l.1-24.6c0-4 1.7-7 5.2-9.3 3.5-2.2 8.2-3.3 14.2-3.3h3.6c2.2 0 3.3 1.1 3.3 3.3v1.1"/><path d="m46.6 245.5l3.1-.3c.2 1.1.6 1.8 1.1 2.3.6.5 1.4.7 2.3.7 1 0 1.8-.2 2.3-.7.5-.4.8-1 .8-1.5 0-.4-.1-.7-.3-1-.2-.3-.6-.5-1.2-.7-.4-.1-1.2-.4-2.6-.7-1.7-.4-2.9-1-3.6-1.6-1-.9-1.5-1.9-1.5-3.2 0-.8.2-1.6.7-2.3.5-.7 1.1-1.2 2-1.6.9-.4 1.9-.6 3.1-.6 2 0 3.5.4 4.5 1.3 1 .9 1.5 2.1 1.6 3.5l-3.2.1c-.1-.8-.4-1.4-.9-1.8-.5-.4-1.1-.5-2-.5-.9 0-1.7.2-2.2.6-.3.2-.5.6-.5 1 0 .4.2.7.5 1 .4.3 1.4.7 3 1.1 1.6.4 2.7.8 3.5 1.1.8.4 1.3.9 1.8 1.6.4.7.6 1.5.6 2.5 0 .9-.3 1.8-.8 2.6-.5.8-1.2 1.4-2.2 1.8s-2.1.6-3.5.6c-2 0-3.6-.5-4.7-1.4-.8-.8-1.5-2.1-1.7-3.9"/><path d="m72.8 242.8c0-1.6.2-3 .7-4.1.4-.8.9-1.5 1.5-2.2.6-.6 1.3-1.1 2.1-1.4 1-.4 2.1-.6 3.4-.6 2.4 0 4.2.7 5.6 2.2 1.4 1.5 2.1 3.5 2.1 6.1 0 2.6-.7 4.6-2.1 6.1-1.4 1.5-3.3 2.2-5.6 2.2-2.4 0-4.3-.7-5.7-2.2-1.3-1.6-2-3.6-2-6.1m3.4-.1c0 1.8.4 3.2 1.3 4.1.8.9 1.9 1.4 3.2 1.4 1.3 0 2.3-.5 3.2-1.4.8-.9 1.2-2.3 1.2-4.2 0-1.8-.4-3.2-1.2-4.1-.8-.9-1.9-1.4-3.2-1.4-1.3 0-2.4.5-3.2 1.4-.9 1-1.3 2.4-1.3 4.2"/><path d="m102.1 250.7v-15.9h3.2v13.2h8v2.7h-11.2"/><path d="m126.8 234.7h3.2v8.7c0 1.4 0 2.3.1 2.7.1.7.5 1.2 1 1.6.5.4 1.2.6 2.1.6.9 0 1.6-.2 2.1-.6.5-.4.7-.8.8-1.4.1-.5.1-1.5.1-2.7v-8.8h3.2v8.4c0 1.9-.1 3.3-.3 4.1s-.5 1.5-1 2c-.5.5-1.1 1-1.9 1.3-.8.3-1.8.5-3.1.5-1.5 0-2.7-.2-3.5-.5-.8-.4-1.4-.8-1.9-1.4-.5-.6-.8-1.2-.9-1.8-.2-.9-.3-2.3-.3-4.1l.3-8.6"/><path d="m157.7 250.7v-13.3h-4.7v-2.7h12.7v2.7h-4.7v13.3h-3.3"/><path d="m178.8 250.7v-16h3.2v16h-3.2"/><path d="m195.6 242.8c0-1.6.2-3 .7-4.1.4-.8.9-1.5 1.5-2.2.6-.6 1.3-1.1 2.1-1.4 1-.4 2.1-.6 3.4-.6 2.4 0 4.2.7 5.6 2.2 1.4 1.5 2.1 3.5 2.1 6.1 0 2.6-.7 4.6-2.1 6.1-1.4 1.5-3.3 2.2-5.6 2.2-2.4 0-4.3-.7-5.7-2.2-1.3-1.6-2-3.6-2-6.1m3.3-.1c0 1.8.4 3.2 1.3 4.1.8.9 1.9 1.4 3.2 1.4 1.3 0 2.3-.5 3.2-1.4.8-.9 1.2-2.3 1.2-4.2 0-1.8-.4-3.2-1.2-4.1-.8-.9-1.9-1.4-3.2-1.4-1.3 0-2.4.5-3.2 1.4-.9 1-1.3 2.4-1.3 4.2"/><path d="m224.8 250.7v-16h3.1l6.6 10.7v-10.7h3v16h-3.2l-6.5-10.4v10.4h-3"/><path d="m251.2 245.5l3.1-.3c.2 1.1.6 1.8 1.1 2.3.6.5 1.4.7 2.3.7 1 0 1.8-.2 2.3-.7.5-.4.8-1 .8-1.5 0-.4-.1-.7-.3-1-.2-.3-.6-.5-1.2-.7-.4-.1-1.2-.4-2.6-.7-1.7-.4-2.9-1-3.6-1.6-1-.9-1.5-1.9-1.5-3.2 0-.8.2-1.6.7-2.3.5-.7 1.1-1.2 2-1.6.9-.4 1.9-.6 3.1-.6 2 0 3.5.4 4.5 1.3 1 .9 1.5 2.1 1.6 3.5l-3.2.1c-.1-.8-.4-1.4-.9-1.8-.5-.4-1.1-.5-2-.5-.9 0-1.7.2-2.2.6-.3.2-.5.6-.5 1 0 .4.2.7.5 1 .4.3 1.4.7 3 1.1 1.6.4 2.7.8 3.5 1.1.8.4 1.3.9 1.8 1.6.4.7.6 1.5.6 2.5 0 .9-.3 1.8-.8 2.6-.5.8-1.2 1.4-2.2 1.8s-2.1.6-3.5.6c-2 0-3.6-.5-4.7-1.4-.8-.8-1.5-2.1-1.7-3.9"/><path d="m132.5 157.4c35.5 9.9 61.6 7.4 77.5 4 16.4-3.7 22.8-8.3 22.8-8.3 2.1-4.3 4.2-8.5 6.2-12.9-22 11.3-49.6 15.8-72 15.8-6.9 0-13.1-.4-18.3-1-5.3 2.1-10.9 2.9-16.2 2.4"/><path d="m182.3 2.9c-51-10.3-99.2 8.1-107.6 41.1-.1.5-.2.9-.3 1.4-3.7 17.2 4 34.8 19.6 49.1 3.1 8.7 9.9 17.1 19.5 24.3.6.4 1.2.8 1.8 1.3 4 2.8 8.4 5.4 13.2 7.8 3.9 1.9 8.1 3.7 12.5 5.2 2.9 1 6 2 9.1 2.8 2.8.8 5.6 1.4 8.5 2 2.9.6 5.8 1 8.7 1.4 30.6 4.1 58.5-2.9 72.1-17.2 3.8-4 6.5-8.5 7.8-13.6.6-2.5.9-5.1.8-7.6 5.5-5.8 9.4-12.5 11.3-19.9.1-.6.2-1.1.4-1.7 6.9-32.4-27.3-66.4-77.4-76.4m50.6 118.6c-12.7 11.9-36.8 17.8-63.3 14.7-3.3-.4-6.6-.9-10-1.6-2.3-.5-4.5-1-6.7-1.5-3.3-.9-6.6-1.8-9.7-2.9-4.7-1.6-9.1-3.5-13.2-5.6-4.1-2.1-7.9-4.4-11.4-6.9-.1-.1-.2-.2-.4-.3-6.3-4.6-11.4-9.8-14.9-15.2 8.3 5.9 18.1 10.9 28.9 14.8 4.9 1.7 10.1 3.3 15.4 4.5 1.3.3 2.7.6 4.1.9 2.5.5 5 .9 7.5 1.3 5.4.8 10.8 1.3 16.1 1.5 26.5.9 50.4-5.9 66.2-18.2 0 .2-.1.4-.1.6-1.2 5.1-4.2 9.8-8.5 13.9m19.7-41.8c-1.2 4.6-3.2 8.9-5.9 12.8-6.2-19.5-31.6-37.6-65.1-44.4-.5-.1-1-.2-1.5-.3.3 1.2.5 2.4.8 3.6 34.1 6.9 59 26.5 61.3 46.5-13.5 14.3-37.6 22.7-64.7 22.3-5.2-.1-10.5-.4-15.9-1.2-2.8-.4-5.7-.9-8.5-1.4-1.2-.2-2.4-.5-3.6-.8-5.6-1.3-11-2.9-16.1-4.8-13.8-5.1-25.6-12.3-34.5-20.7 0-.2-.1-.3-.1-.5-.9-4.1-1-8.2.1-12.3 3.6-14.3 19.2-24.3 39.9-28l2.6-4.2c-25.1 3.3-44.2 14.7-48.4 31.2-.6 2.3-.8 4.6-.8 6.9-9.8-12-14-25.7-10.6-39.1 7.8-30.5 52.3-47.5 99.6-38.1 45.2 9.1 76.4 39.2 72.2 68.5-.2 1.4-.5 2.7-.8 4"/><path d="m118.3 117.3c.1.1.2.2.4.3 1.2-.7 2.1-1 2.1-1l-2.5.7"/><path d="m115.9 149.2c.1 0 .3 0 .5 0 0-.1-.1-.1-.1-.2-.2 0-.3 0-.5 0-1.2-1.5-2.3-3.2-3.1-5 .1 0 .2-.1.3-.1-.5-.9-.9-1.7-1.3-2.5-3.8-11.2 0-17.8 3.8-21.3-.6-.4-1.2-.8-1.8-1.3l-17.4 5.4c0 0-9.1 3.2-4.9 14.5.9 2.3 2.2 4 3.9 5.3v.5l29.6 11.7c-2-.9-3.8-2.2-5.4-3.6-1.4-1.1-2.6-2.1-3.6-3.4"/><path d="m150.2 135.9c-7.9 7.8-18.5 12.5-31.3 13.1-1 .2-1.9.2-2.6.2-.2 0-.3 0-.5 0 1.1 1.2 2.3 2.3 3.6 3.3 3.7 2.8 8.2 4.5 13.1 4.9 5.2.5 10.8-.3 16.2-2.5 6.1-2.4 11.9-6.5 16.3-12.3.8-1.1 1.7-2.2 2.5-3.4-2.9-.4-5.8-.8-8.7-1.4-3-.5-5.8-1.1-8.6-1.9"/><path d="m132.4 116.8c-.6 2.7-1.4 5.3-2.4 7.6 4.1 2.1 8.5 4 13.2 5.6 1.7-2.7 3.3-5.6 4.6-8.8-5.3-1.1-10.5-2.6-15.4-4.4"/><path d="m141.2 46.5l-2.6 4.2-11.8 18.9c7.1 16.3 8.3 30.9 6.5 42.6 5.1 1.9 10.5 3.5 16.1 4.8 4.9-14.7 5.3-33.5-1.8-54l8.4-13.9 2.1-3.5 1.9-3.2c0 0 .5 1.2 1.3 3.3.4 1 .8 2.2 1.2 3.5 2.8 8.7 6.7 24.9 5.2 44-.7 9.6-2.8 18.3-6.2 25.9 5.4.7 10.7 1.1 15.9 1.2 7.2-18.7 9-41.7 3.4-68.8-.2-1.2-.5-2.4-.8-3.6-2.9-12.9-7.5-26.7-13.9-41.4l-24.9 40"/><path d="m159.4 123.5c-1.9 3.5-4.1 6.7-6.6 9.6 2.2.6 4.4 1.1 6.7 1.5 3.4.7 6.7 1.2 10 1.6 2.2-3.5 4.3-7.3 6-11.2-5.2-.2-10.6-.7-16.1-1.5"/><path d="m120.8 138.8c-2.5 2.1-5.2 3.9-8 5.2-.1 0-.2.1-.3.1.8 1.9 1.9 3.5 3.1 5 .2 0 .3 0 .5 0 .9 0 1.8 0 2.7-.1 4.2-.7 11.1-3.4 19.4-12.5 1-1.1 1.9-2.3 2.9-3.5-4.4-1.6-8.6-3.3-12.5-5.2-2.3 4.9-5.1 8.6-7.8 11"/></svg>