<svg xmlns="http://www.w3.org/2000/svg" viewBox="0 0 340 160" enable-background="new 0 0 340 160"><path d="m131.65 54.36c3.994 0 8.213 1.47 8.213 5.177 0 2.237-1.884 4.217-4.727 4.951 3.864 1.181 5.875 3.26 5.875 6.103 0 4.534-5.367 6.131-10.475 6.131h-10.384c.285-2.938.348-7.152.348-11.724 0-3.067-.031-7.698-.315-10.638h11.465m-3.45 2.495c-.734 0-1.564.059-1.98.125-.127 2.97-.193 4.567-.193 8.02 0 4.059 0 5.753.162 9.04.736.033 1.917.033 2.589.033 4.311 0 6.451-1.247 6.451-3.74 0-2.938-3.544-3.991-6.23-3.991h-1.244l1.244-3.163h.767c1.82 0 4.412-.835 4.412-3.072.001-2.361-1.599-3.253-5.978-3.253"/><path d="m165.94 65.923c-.127 2.239-.256 6.778-.285 9.459-2.173 1.181-5.02 1.79-8.599 1.79-8.116 0-13.194-5.111-13.194-11.534 0-6.773 5.369-11.729 14.25-11.729 2.044 0 4.059.322 6.04.8l-1.409 3.742c-1.211-.736-2.714-1.341-4.727-1.341-5.814 0-7.86 4.661-7.86 8.594 0 6.548 3.74 8.526 7.891 8.526.736 0 1.437-.127 2.077-.285-.031-2.653-.19-6.103-.287-8.02h6.103"/><path d="m189.01 76.72h-17.507c.32-3.097.32-9.746.32-11.691 0-2.176-.132-8.09-.32-10.671h6.134c-.16 2.585-.287 8.464-.287 10.671 0 1.47.031 5.623.127 8.815h3.29c3.387 0 5.88-.19 8.243-.381v3.257"/><path d="m120.23 86.06c.153 2.093.268 7.34.268 9.259 0 1.757-.026 7.66-.296 10.214l-.031.209 9.245.005c4.509 0 9.33-1.437 9.33-5.454 0-2.526-1.825-4.389-5.242-5.416 2.505-.659 4.212-2.406 4.212-4.407 0-3.281-3.777-4.525-7.307-4.6-.009 0-10.198-.009-10.198-.009l.019.199m7.138 2.02c3.855.014 5.292.809 5.292 2.916 0 .562-.172 1.054-.517 1.468-.738.887-2.204 1.338-4.03 1.251h-.089l-1.063 2.789h1.075c2.128-.066 3.975.602 4.918 1.766.44.534.656 1.141.656 1.802 0 2.208-1.926 3.335-5.732 3.335-.637 0-1.672 0-2.331-.042-.139-2.912-.146-6.868-.146-8.05 0-1.385.056-4.476.151-7.114.427-.075 1.156-.129 1.819-.125"/><path d="m160.06 85.86h-4.48l.186 5c.082 2.495.165 5.04.329 7.5-.308-.75-.557-1.167-1.896-3.14-.045-.071-4.704-7.27-6.322-9.304l-.047-.056h-5.228l.016.195c.148 2.091.259 7.329.259 9.259 0 1.757-.019 7.665-.292 10.217l-.021.205h4.638l-.007-.191c-.273-4.871-.273-9.758-.273-14.492v-.009c.158.569.379 1.082 1.112 2.164.075.127 8.05 11.764 8.45 12.453l.042.075h3.735l-.026-.205c-.27-2.554-.294-8.46-.294-10.217 0-1.931.115-7.176.261-9.259l.014-.195h-.156"/><path d="m165.45 86.05c.153 2.103.259 7.336.259 9.262 0 1.757-.016 7.662-.292 10.214l-.019.202h5.536l-.026-.202c-.186-1.818-.259-5.313-.285-8.01.23.009 1.016.049 1.016.049l.778.038c7.291 0 10.833-1.95 10.833-5.986 0-4.605-4.965-5.673-9.125-5.765l-8.688-.002.013.196m6.776 2.196c2.587-.04 4.412.489 5.285 1.569.395.494.597 1.098.597 1.806 0 2.883-3.222 3.483-5.922 3.483l-1.101-.038c0 0-.266-.04-.435-.063-.014-.659-.026-1.519-.026-2.514 0-1.265.021-2.721.061-4.109.346-.061.948-.119 1.541-.134"/><path d="m193.82 86.05c.155 2.103.268 7.336.268 9.262 0 1.757-.026 7.662-.299 10.214l-.021.202h5.536l-.026-.202c-.188-1.818-.259-5.313-.28-8.01.228.009 1.01.049 1.01.049l.786.038c7.281 0 10.833-1.95 10.833-5.986 0-4.605-4.967-5.673-9.137-5.765l-8.676-.002.007.196m6.781 2.196c2.587-.04 4.412.489 5.287 1.569.39.494.595 1.098.595 1.806 0 2.883-3.217 3.483-5.927 3.483l-1.098-.038c0 0-.266-.04-.43-.063-.024-.659-.038-1.531-.038-2.524 0-1.268.024-2.712.071-4.099.34-.061.945-.119 1.54-.134"/><path d="m219.03 85.87h-.092l-.038.108c-1.028 2.822-7.648 17.279-8.681 19.497l-.127.273h4.748l.031-.115c.409-1.352.941-2.893 1.569-4.56.174 0 3.918-.059 3.918-.059l3.234.038c0 0 .567.021.701.021.863 2.14 1.496 3.765 1.773 4.57l.038.106h5.494l-8.857-19.878h-.085-3.626m1.35 5.853c.44.931 1.576 3.596 2.858 6.738-.198 0-.428.009-.428.009l-2.43.033c0 0-2.519-.042-2.914-.054 1.027-2.524 2.041-4.798 2.914-6.726"/><path d="m233.79 86.05c.143 2.093.263 7.336.263 9.259 0 1.757-.021 7.665-.301 10.214l-.021.209h5.536l-.019-.207c-.278-2.561-.299-8.46-.299-10.217 0-1.376.061-4.478.16-6.94.456-.052 1.077-.111 1.496-.12 2.585-.045 4.41.499 5.28 1.569.397.489.604 1.094.604 1.804 0 2.288-2.161 3.453-4.165 3.568-.661.026-1.176-.061-1.176-.061l-.379-.068.242.355c1.938 2.869 4.887 7.865 6.127 10.245l.047.085h5.922l-.174-.299c-.207-.322-4.085-6.01-5.736-8.448 0 0-.059-.082-.108-.155 3.02-.905 4.499-2.615 4.499-5.221 0-4.6-4.972-5.668-9.137-5.755l-8.678-.012.017.195"/><path d="m260.97 85.85h-5.301l.021.191c.148 2.105.261 7.345.261 9.266 0 1.755-.024 7.653-.294 10.212l-.021.207h5.529l-.023-.207c-.268-2.559-.292-8.457-.292-10.212 0-1.924.113-7.169.259-9.266l.019-.191h-.158"/><path d="m266.15 86.06c.148 2.093.259 7.34.259 9.259 0 1.757-.021 7.66-.294 10.214l-.021.209 9.238.005c4.513 0 9.332-1.437 9.332-5.454 0-2.526-1.823-4.389-5.247-5.416 2.509-.659 4.217-2.406 4.217-4.407 0-3.281-3.77-4.525-7.305-4.6-.002 0-10.195-.009-10.195-.009l.016.199m7.136 2.02c3.855.014 5.296.809 5.296 2.916 0 .562-.181 1.054-.525 1.468-.727.887-2.199 1.338-4.03 1.251h-.096l-1.058 2.789h1.08c2.131-.066 3.963.602 4.913 1.766.437.534.656 1.141.656 1.802 0 2.208-1.924 3.335-5.725 3.335-.649 0-1.684 0-2.345-.042-.132-2.912-.136-6.868-.136-8.05 0-1.39.059-4.485.158-7.114.416-.075 1.143-.129 1.811-.125"/><path d="m298.27 85.85h-3.725l-.035.104c-1.091 3.01-8.102 18.248-8.681 19.502l-.129.27h4.751l.028-.115c.412-1.355.945-2.888 1.573-4.563.165-.005 3.916-.061 3.916-.061l3.236.049c0 0 .562.007.708.012.856 2.145 1.484 3.754 1.764 4.57l.038.108h5.494l-8.853-19.876h-.085m-2.284 5.85c.442.941 1.571 3.598 2.858 6.731-.198.002-.419.019-.419.019l-2.441.038c0 0-2.507-.054-2.907-.056 1.018-2.53 2.036-4.795 2.909-6.732"/><path d="m308.75 91c0 3.502 3.521 4.911 6.618 6.169 2.413.976 4.901 1.985 4.901 3.645 0 .515-.12.917-.386 1.228-.572.682-1.762.971-3.629.882-1.823-.089-3.914-.682-6.223-1.755l-.971-.447.009.771v3.57l.623.139.386.078c1.164.28 3.37.804 5.602.804 5.833 0 9.316-2.31 9.316-6.169 0-3.582-3.596-5.02-6.766-6.282-2.345-.934-4.763-1.896-4.763-3.424 0-.444 0-1.778 2.999-1.778 2.241 0 4.436.908 5.623 1.406l1.141.468-.012-.753v-3.612l-1.129-.202c-1.124-.219-3-.579-4.96-.579-5.01.001-8.379 2.346-8.379 5.841"/><path d="m15 36.843v86.31h86.31v-86.31h-86.31m20.285 73.46c-2.281-2.255-3.7-4.224-5.05-7.15-2.526-1.181-4.37-2.248-6.637-3.634 1.623-.736 3.02-1.216 4.998-1.755-.623-3.474-.44-6.574.019-10.92.898 4.106 1.684 7.06 3.429 10.116 2.152-.416 3.984-.68 6.475-1.07-1.359 2.01-2.19 3.58-2.898 5.59 2.413 2.251 4.615 3.584 7.681 4.718-3.213-.092-5.647-.515-8.476-1.352-.216 2-.075 3.522.463 5.457m8.674-26.833c-1.253-3.02-3.062-9.102-3.062-9.102-3.483 1.867-11.494 9.403-11.494 9.403 4.403-8.822 8.878-12.834 8.878-12.834-1.547-1.55-5.581-2.331-8.523-2.453 1.531-.633 5.449-1.369 8.471-1.491 3.02-.096 4.835.075 4.835.075 2.695-2.126 6.79-3.921 8.201-4.125-.957 1.23-2.053 3.547-2.352 4.621 7.881 1.068 14.215 5.104 14.215 5.104-6.896-1.207-10.529-1.058-13.11-.832-2.556.242-3.081.534-3.081.534-1.864 4.082-2.974 11.1-2.974 11.1m16.79 25.07c-.941.183-2.223.268-3.605.216-2.643 1.555-6.183 2.714-8.902 3.351 1.63-1.023 3.02-2.096 4.687-3.591-1.663-.35-3.208-.842-4.791-1.67 2.594 0 4.701-.263 7.357-1 1.545-1.733 2.749-3.222 4.137-5.115.061 1.331.125 2.319.235 3.502 2.547-1.216 4.445-2.352 6.649-3.876-2.07 2.079-3.866 3.824-6.357 5.75.202 1.036.357 1.631.59 2.433m27.09-52.52c.887 2.368-1.221 15.379-2.97 18.815-.066-5.431-.536-12.3-2.566-15.29-5.337 3.133-6.959 3.401-12.764 6.858 3.375-3.657 4.556-5.214 6.632-8.281-5.332.292-13.09.929-18.629 2.15 4.819-2.566 14.38-5.426 19.424-6.11-1.164-1.621-10.645-6.752-12.992-7.742 7.493.604 16.656 3.396 21.1 6.101 1.747-.548 3.568-.567 6.823-.854-.833 1.432-.861 2.246-4.062 4.353"/></svg>
