<svg xmlns="http://www.w3.org/2000/svg" viewBox="0 0 1000 235.11" enable-background="new 0 0 1000 235.11"><path d="m582.27 177.59c0 2.796-2.285 5.08-5.088 5.08h-13.722c-10.259-.073-18.55-8.401-18.55-18.675v-56.28c0-17.691-7.86-26.781-21.87-26.781-14 0-22.606 9.09-22.606 26.781v56.28c0 10.319-8.361 18.675-18.677 18.675-10.321 0-18.675-8.356-18.675-18.675v-56.28c0-17.691-7.858-26.781-21.87-26.781-14.01 0-22.606 9.09-22.606 26.781v56.28c0 10.274-8.299 18.602-18.555 18.675h-13.714c-2.804 0-5.083-2.285-5.083-5.08v-124.47c0-2.794 2.279-5.075 5.083-5.075l13.59-.036c10.318 0 18.68 8.353 18.68 18.67v1.485c8.595-11.06 19.905-21.14 38.827-21.14 17.2 0 30.23 7.613 37.11 20.884 11.552-13.511 25.302-20.884 43.24-20.884 27.776 0 44.488 16.705 44.488 48.41v82.16z"/><path d="m595.26 216.44c0 10.319 8.356 18.675 18.683 18.675 10.316 0 18.674-8.356 18.674-18.675v-52.44c8.845 10.57 21.13 19.656 41.03 19.656 31.21 0 59.962-24.08 59.962-68.07v-.493c0-43.985-29.24-68.06-59.962-68.06-19.409 0-31.94 9.09-41.03 21.377v-1.726c0-10.317-8.358-18.67-18.674-18.67-.232 0-.447.018-.667.036h-12.928c-2.801 0-5.088 2.282-5.088 5.075v163.32m101-100.86c0 22.11-14.745 36.37-32.19 36.37-17.445 0-31.945-14.501-31.945-36.37v-.493c0-21.868 14.501-36.37 31.945-36.37 17.445 0 32.19 14.501 32.19 36.37v.493"/><path d="m838.53 61.16l-10.602-5.194-.013.023c-12.93-5.867-27.21-9.02-40.891-8.541-26.522.942-47.612 16.675-46.666 43.45l.016.493c.898 25.539 22.08 33.405 40.69 38.16 14.644 3.909 27.513 6.158 27.794 14.262l.021.493c.212 5.893-4.574 9.995-15.373 10.374-10.56.378-23.23-3.116-36.03-10.53-2-1.159-4.738-1.804-7.432-1.707-5.288.181-9.68 2.905-12.138 6.983l-5.28 9.434c-1.209 2.121-.467 4.857 1.649 6.079l8.929 5.177.008-.014c.062.045.125.081.187.114 16.331 9.753 33.926 13.807 50.14 13.234 28.487-.997 49.87-15.03 48.844-44.26l-.015-.487c-.844-24.07-22.527-32.16-41.15-37.651-14.42-4.408-27.06-7.409-27.322-14.771l-.015-.498c-.184-5.148 4.335-9.249 13.433-9.572 7.845-.272 18.03 2.566 28.776 7.347 2.497 1.147 4.232 1.575 6.936 1.476 6.192-.22 11.311-3.922 13.426-9.223l4.172-8.714c1.051-2.206.108-4.877-2.088-5.936"/><path d="m971.48 162.92c2.225-1.684 2.661-4.885.971-7.112l-5.527-7.271-.041.013c-2.552-3.785-6.833-6.184-11.957-6.184-3.93 0-6.383.976-9.09 2.941-7.621 5.657-16.218 8.855-26.545 8.855-16.702 0-28.5-8.855-32.19-25.808h73.972c9.831 0 17.437-7.124 17.437-17.938 0-27.28-19.399-63.4-63.39-63.4-38.35 0-65.12 30.961-65.12 68.56v.491c0 40.3 29.24 68.08 68.812 68.08 17.645 0 31.753-5.229 42.898-13.732l9.77-7.494m-84.86-57.909c2.952-16.953 13.02-28.02 28.503-28.02 15.726 0 25.559 11.305 27.774 28.02h-56.28"/><path d="m220.68 177.59c0 2.796-2.284 5.08-5.088 5.08h-14.238v-.034c-10.02-.345-18.02-8.538-18.02-18.641v-158.58c0-2.799 2.284-5.084 5.073-5.084h14.262v.029c10.01.353 18.02 8.546 18.02 18.644v158.59z"/><path d="m250.31 225.18c15.489 6.147 28.688 9.09 46.14 9.09 25.554 0 42.44-5.405 54.737-17.688 11.05-11.06 16.704-28.26 16.704-51.856v-98.2-.12-13.507c0-2.845-2.329-5.176-5.166-5.176h-13.558c-10.293.031-18.628 8.376-18.628 18.433v.249l.493 55.32v.489c0 17.937-11.967 30.473-30.16 30.473-18.19 0-29.909-12.292-29.909-30.473v-.489h-.042v-55.09c0-10.457-8.45-18.911-18.893-18.911-.042 0-.063.016-.102.016v-.017l-13.218.101c-2.793 0-5.086 2.287-5.086 5.088l.026 71.34c.953 37.807 26.23 59.4 56.42 59.4 19.905 0 29.905-8.107 40.963-21.38v6.39c0 23.589-10.01 35.876-35.566 35.876-14 0-23.524-2.947-34.34-7.865-1.722-.735-3.681-1.223-6.136-1.223-6.321 0-11.786 3.927-14.08 9.447l-3.86 9.415c-1.059 2.588.181 5.566 2.774 6.63l10.487 4.242"/><path d="m158.2 48.564l-16.843-47.749c-.371-1.041-1.091-1.093-1.594-.108l-7.933 15.344c-12.198-6.114-26.29-9.384-45.28-9.384-45.06 0-79.18 31.19-85.56 71.69 32.48-43.93 85.88-38.23 85.88-38.23l-.052.095c11.767.213 20.671 2.91 28.653 7.459l-8.252 15.982c-.514.987-.052 1.538 1.018 1.234l48.686-13.875c1.067-.302 1.635-1.41 1.267-2.451"/><path d="m3.948 77.74c0 0-3.141 1.316-3.393 6.05-.807 8.797-.495 12.608-.495 12.608 0 48.01 39.06 87.07 87.07 87.07 47.998 0 87.07-39.06 87.07-87.07 0-9.617-7.803-17.411-17.421-17.411-.111 0-.22.014-.337.014h-59.53c-9.909 0-17.943 8.04-17.943 17.948s8.03 17.94 17.943 17.94h39.05c-7.479 19.706-26.543 33.755-48.837 33.755-28.812 0-52.24-23.436-52.24-52.25 0 0-1.114-10.262 4.911-25.504 2.962-7.847-6.093-6-6.093-6-18.367 3.96-29.757 12.855-29.757 12.855m6.235 58.31l.005.021c.023.083.044.165.075.249-.031-.089-.054-.174-.08-.27"/><path d="m1000 59.49c0 6.531-5.258 11.714-11.928 11.714-6.671 0-11.995-5.183-11.995-11.714 0-6.531 5.324-11.64 12.07-11.64 6.6 0 11.858 5.109 11.858 11.64m-20.938 0c0 5.186 3.899 9.298 9.08 9.298 5.04.067 8.87-4.112 8.87-9.232 0-5.176-3.829-9.363-9.01-9.363-5.04.001-8.938 4.188-8.938 9.297m7.167 6.03h-2.697v-11.639c1.064-.141 2.554-.358 4.468-.358 2.203 0 3.201.358 3.976.928.709.499 1.207 1.348 1.207 2.482 0 1.42-1.064 2.342-2.417 2.767v.146c1.137.353 1.708 1.274 2.064 2.834.353 1.773.636 2.417.846 2.84h-2.837c-.351-.423-.571-1.417-.922-2.84-.212-1.207-.924-1.773-2.417-1.773h-1.272v4.613zm.073-6.531h1.272c1.492 0 2.694-.498 2.694-1.703 0-1.062-.776-1.773-2.482-1.773-.711 0-1.204.073-1.484.141v3.335"/></svg>