<svg xmlns="http://www.w3.org/2000/svg" viewBox="0 0 500 250"><path d="m83.61 147.64l1.924 7.552-29.12 16.811-5.578-5.443.473-20.833h14.6a14.01921 14.01921 0 0 0 8.83328 -3.18148c.133.076 8.864 5.094 8.864 5.094"/><path d="m46.895 166.42l-5.578 5.443-29.12-16.811 1.924-7.552s7.07-4.06 7.382-4.242a10.83339 10.83339 0 0 0 7.21858 2.46635c.091 0 18.13.008 18.13.008"/><path d="m12.238 144.16l-7.503-2.109v-33.622l7.503-2.11 15.866 9.204a10.25491 10.25491 0 0 0 -.63237 5.12956c-11.1 1.862-12.369 13.275-8.52 19.612-.505.307-6.714 3.895-6.714 3.895"/><path d="m14.12 102.97l-1.924-7.552 29.12-16.811 5.578 5.443-.041 19.988a15.354 15.354 0 0 0 -6.08731 5.48135 10.29449 10.29449 0 0 0 -10.5365 2.70546"/><path d="m50.835 84.18l5.578-5.443 29.12 16.811-1.924 7.552-14.915 8.57a15.109 15.109 0 0 0 -7.06446 -7.38046 16.50085 16.50085 0 0 0 -10.75271 -1.61305"/><path d="m85.49 106.44l7.503 2.11v33.622l-7.503 2.11s-7.926-4.598-8.05-4.669a14.34692 14.34692 0 0 0 -7.34563 -21.77973 17.57886 17.57886 0 0 0 -.23671 -2.32472c.034-.02 15.631-9.07 15.631-9.07"/><path d="m112.2 106.58h9.641l14.493 22.14v-22.14h9.08v37.32h-9.517l-14.556-22.21v22.21h-9.144"/><path d="m151.39 106.58h24.695v8.09h-15.551v6.718h14.369v7.962h-14.369v6.718h16.235v7.838h-25.379"/><path d="m182.43 106.58h15.05c6.221 0 11.197 4.603 11.197 10.45 0 3.483-1.431 5.66-4.04 7.651v.125c3.856 2.737 5.474 5.35 5.474 9.206 0 5.162-4.106 9.89-11.197 9.89h-16.484m13.436-22.4556a3.45569 3.45569 0 1 0 0 -6.90467h-4.354v6.905m5.536 14.307c2.115 0 3.483-1.244 3.483-3.234a3.28842 3.28842 0 0 0 -3.48341 -3.29693h-5.536v6.531"/><path d="m213.91 106.58h9.08v23.389c0 4.976 2.364 6.718 5.536 6.718 3.483 0 5.661-1.742 5.661-6.718v-23.389h9.144v24.757c0 8.833-6.594 13.809-14.805 13.809-8.522 0-14.618-5.225-14.618-13.809"/><path d="m249.3 106.58h9.144v29.485h16.235v7.838h-25.38"/><path d="m295.27 105.34h1.618l18.288 38.567h-9.828l-1.866-3.857h-14.743l-1.804 3.857h-9.828m23.264-10.388l-4.292-9.455h-.125l-4.354 9.455"/><path d="m306.22 106.58h9.579l7.527 17.604 4.541-11.694-2.363-5.909h9.455l7.465 17.541 6.843-17.541h9.517l-15.551 38.566h-1.244l-9.206-21.522-8.896 21.522h-1.181"/><path d="m377.26 105.34c11.756 0 20.09 8.771 20.09 19.905 0 11.135-8.336 19.905-20.09 19.905-11.819 0-20.09-8.771-20.09-19.905 0-11.134 8.273-19.905 20.09-19.905m0 31.16c6.594 0 10.824-4.976 10.824-11.259 0-6.282-4.23-11.259-10.824-11.259-6.656 0-10.824 4.976-10.824 11.259 0 6.283 4.168 11.259 10.824 11.259"/><path d="m401.21 106.58h15.613c8.02 0 13.25 4.852 13.25 11.881 0 6.531-3.297 10.201-8.833 11.57l10.08 13.871h-11.445l-9.517-13.934v13.934h-9.144m16.484-21.15c2.053 0 3.421-2.115 3.421-4.292a3.9464 3.9464 0 0 0 -3.6699 -4.10538h-7.091v8.398"/><path d="m434.55 106.58h9.144v16.67h.124l10.761-16.67h10.08l-12.814 17.728 13.498 19.594h-10.08l-11.445-18.1h-.124v18.1h-9.144"/><path d="M475.68506 132.95935a4.016 4.016 0 0 0 4.10441 3.91856c2.449 0 3.971-1.306 3.971-3.234 0-2.799-3.906-3.607-7.149-4.665-6.686-2.239-10.394-5.163-10.394-11.57 0-6.594 6.02-12.07 13.505-12.07 8.805 0 12.975 5.287 13.505 12.192H484.09a3.73734 3.73734 0 0 0 -4.10441 -3.85673c-2.118 0-4.17 1.182-4.17 3.608 0 2.799 3.641 3.297 7.02 4.23 7.083 1.991 10.393 5.723 10.393 11.57 0 6.594-5.958 12.07-13.438 12.07-8.672 0-13.571-5.474-13.571-12.192"/></svg>