<svg width="108" height="24" viewBox="0 0 108 24" fill="none" xmlns="http://www.w3.org/2000/svg">
<path d="M7.93641 18.9253C6.69635 18.2003 5.72337 17.2273 4.99841 15.9873C4.27345 14.7472 3.93005 13.4118 3.93005 11.9809C3.93005 10.5119 4.29253 9.15739 4.99841 7.93641C5.72337 6.69634 6.69635 5.72337 7.93641 4.99841C9.17648 4.29253 10.5119 3.93005 11.9619 3.93005V0C9.80605 0 7.80287 0.534183 5.97139 1.60255C4.12083 2.67091 2.67091 4.12083 1.60255 5.97138C0.534182 7.82194 0 9.82512 0 12C0 14.1749 0.534182 16.159 1.60255 18.0095C2.67091 19.841 4.12083 21.2909 5.97139 22.3784C7.80287 23.4658 9.80605 24 11.9619 24V19.9936C10.5119 19.9936 9.17648 19.6312 7.93641 18.9253Z" fill="#624DE3"/>
<path d="M11.9805 4.57886V19.3833C16.0631 19.3833 19.3827 16.0637 19.3827 11.9811C19.3636 7.8984 16.0631 4.57886 11.9805 4.57886Z" fill="#624DE3"/>
<path d="M31.7078 4.8269C30.5631 4.8269 29.5138 5.15123 28.5981 5.7808L28.3501 4.97952H26.2324V18.6965H28.8843V10.3023C28.8843 9.52006 29.1513 8.85234 29.7237 8.29908C30.2769 7.74582 30.9447 7.45965 31.7269 7.45965C31.994 7.45965 32.1275 7.47873 32.1847 7.47873L32.3946 7.51689V4.86506L32.242 4.84598C32.1084 4.84598 31.9367 4.8269 31.7078 4.8269Z" fill="#051228"/>
<path d="M45.6536 7.72675C45.0049 6.84916 44.1655 6.1242 43.1735 5.6091C42.1814 5.094 41.1131 4.8269 39.9684 4.8269C38.7092 4.8269 37.5264 5.15123 36.458 5.76172C35.3897 6.39129 34.5312 7.24979 33.9016 8.31816C33.272 9.38652 32.9668 10.5693 32.9668 11.8476C32.9668 13.1067 33.2911 14.2895 33.9016 15.377C34.5312 16.4453 35.3897 17.3038 36.458 17.9334C37.5264 18.563 38.7092 18.8682 39.9684 18.8682C41.1131 18.8682 42.1814 18.6011 43.1735 18.086C44.1655 17.5709 45.0049 16.846 45.6345 15.9493L45.7299 15.8158L43.784 14.0797L43.6695 14.2514C43.2498 14.8619 42.7156 15.3579 42.086 15.7204C41.4565 16.0829 40.7315 16.2546 39.9684 16.2546C38.9573 16.2546 38.0415 15.9493 37.2593 15.3388C36.5344 14.7856 36.0383 14.0606 35.7712 13.2021H46.8555L46.8937 13.0495C46.97 12.7061 47.0081 12.3054 47.0081 11.8666C47.0081 11.466 46.989 11.0845 46.9318 10.741C46.741 9.61545 46.3213 8.60433 45.6536 7.72675ZM37.2593 8.37539C38.0606 7.74582 38.9763 7.4215 39.9875 7.4215C40.9986 7.4215 41.9143 7.74582 42.7156 8.37539C43.4406 8.94773 43.9557 9.69177 44.2037 10.5693H35.7903C36.0383 9.69177 36.5344 8.94773 37.2593 8.37539Z" fill="#051228"/>
<path d="M65.5132 5.57094C64.6738 5.07492 63.758 4.8269 62.766 4.8269C61.9075 4.8269 61.0871 5.01768 60.3431 5.38016C59.6563 5.70449 59.084 6.16236 58.607 6.75377C58.1301 6.18143 57.5386 5.72356 56.8709 5.38016C56.1269 5.01768 55.3065 4.8269 54.448 4.8269C53.3033 4.8269 52.2541 5.15123 51.3383 5.7808L51.0903 4.97952H48.9727V18.6965H51.6245V10.3023C51.6245 9.52006 51.8916 8.85234 52.4639 8.29908C53.0172 7.74582 53.6849 7.45965 54.4671 7.45965C55.2684 7.45965 55.9361 7.72674 56.4894 8.29908C57.0426 8.85234 57.3288 9.52006 57.3288 10.3023V18.6965H59.9806V10.3023C59.9806 9.52006 60.2477 8.85234 60.82 8.28C61.3733 7.70767 62.041 7.44058 62.8232 7.44058C63.6054 7.44058 64.2731 7.70767 64.8455 8.28C65.4178 8.85234 65.6849 9.50099 65.6849 10.3023V18.6965H68.2986V10.3023C68.2986 9.31021 68.0506 8.39447 67.5545 7.55504C67.0204 6.73469 66.3526 6.06697 65.5132 5.57094Z" fill="#051228"/>
<path d="M80.5661 5.76172C79.4978 5.13215 78.3149 4.8269 77.0558 4.8269C75.7966 4.8269 74.6138 5.15123 73.5454 5.76172C72.4771 6.39129 71.6186 7.24979 70.989 8.31816C70.3594 9.38652 70.0542 10.5693 70.0542 11.8476C70.0542 13.1067 70.3785 14.2895 70.989 15.3579C71.6186 16.4263 72.4771 17.2848 73.5454 17.9143C74.6138 18.5439 75.7966 18.8682 77.0749 18.8682C78.334 18.8682 79.5168 18.5439 80.5852 17.9143C81.6535 17.2848 82.5121 16.4263 83.1416 15.3579C83.7712 14.2895 84.0955 13.1067 84.0955 11.8476C84.0955 10.5884 83.7712 9.40559 83.1416 8.31816C82.493 7.24979 81.6345 6.39129 80.5661 5.76172ZM77.0558 16.2164C76.2545 16.2164 75.5105 16.0256 74.8427 15.625C74.175 15.2434 73.6408 14.6902 73.2402 14.0224C72.8586 13.3547 72.6488 12.6107 72.6488 11.8285C72.6488 11.0272 72.8396 10.2832 73.2402 9.61546C73.6218 8.94773 74.175 8.41355 74.8427 8.01291C75.5105 7.63136 76.2545 7.4215 77.0558 7.4215C77.838 7.4215 78.5629 7.61228 79.2497 8.01291C79.9175 8.39447 80.4516 8.94773 80.8523 9.61546C81.2338 10.2832 81.4437 11.0272 81.4437 11.8285C81.4437 12.6107 81.2529 13.3356 80.8523 14.0224C80.4707 14.6902 79.9175 15.2244 79.2497 15.625C78.5629 16.0065 77.838 16.2164 77.0558 16.2164Z" fill="#051228"/>
<path d="M107.561 10.722C107.389 9.61545 106.951 8.60433 106.302 7.72675C105.653 6.84916 104.814 6.1242 103.822 5.6091C102.83 5.094 101.761 4.8269 100.617 4.8269C99.3577 4.8269 98.1749 5.15123 97.1065 5.76172C96.0381 6.39129 95.1796 7.24979 94.5501 8.31816C93.9205 9.38652 93.6152 10.5693 93.6152 11.8476C93.6152 13.1067 93.9396 14.2895 94.5501 15.377C95.1796 16.4453 96.0381 17.3038 97.1065 17.9334C98.1749 18.563 99.3577 18.8682 100.617 18.8682C101.761 18.8682 102.83 18.6011 103.822 18.086C104.814 17.5709 105.653 16.846 106.283 15.9493L106.378 15.8158L104.432 14.0797L104.318 14.2514C103.898 14.8619 103.364 15.3579 102.734 15.7204C102.105 16.0829 101.38 16.2546 100.617 16.2546C99.6057 16.2546 98.6899 15.9493 97.9078 15.3388C97.1828 14.7856 96.6868 14.0606 96.4197 13.2021H107.504L107.542 13.0495C107.618 12.7061 107.657 12.3054 107.657 11.8666C107.637 11.4279 107.618 11.0463 107.561 10.722ZM97.9078 8.37539C98.709 7.74582 99.6248 7.4215 100.636 7.4215C101.647 7.4215 102.563 7.74582 103.364 8.37539C104.089 8.94773 104.604 9.69177 104.852 10.5693H96.4388C96.6868 9.69177 97.1828 8.94773 97.9078 8.37539Z" fill="#051228"/>
<path d="M84.6104 4.97949V5.05581V7.61224H86.6898V13.5073C86.6898 15.3197 87.2049 16.7124 88.2161 17.609C89.0936 18.4294 90.3528 18.8682 91.9172 18.8682C92.2033 18.8682 92.4323 18.8682 92.5849 18.8491L92.7566 18.83V16.2545L92.5467 16.2736C92.4132 16.2927 92.2415 16.2927 91.9935 16.2927C90.2002 16.2927 89.3226 15.3769 89.3226 13.5073V7.63132H92.7566V5.07488V4.99857H84.6104V4.97949Z" fill="#051228"/>
<path d="M87.9496 3.94902C88.8031 3.94902 89.4949 3.25716 89.4949 2.40371C89.4949 1.55026 88.8031 0.858398 87.9496 0.858398C87.0962 0.858398 86.4043 1.55026 86.4043 2.40371C86.4043 3.25716 87.0962 3.94902 87.9496 3.94902Z" fill="#051228"/>
</svg>
