<svg xmlns="http://www.w3.org/2000/svg" viewBox="0 0 340 160" enable-background="new 0 0 340 160"><path d="m228.93 68.45h9.878v-3.155h-6.294v-9.822h-3.583v12.977z"/><path d="m239.95 55.47h3.622v12.977h-3.622v-12.977"/><path d="m245.67 68.45h3.597v-4.636h6.122v-2.982h-6.122v-2.208h6.77v-3.151h-10.367v12.977"/><path d="m257.4 55.48h10.433v3.058h-6.876v1.961h6.228v2.839h-6.228v2.058h6.969v3.061h-10.526v-12.977"/><path d="m228.02 79.86v-.037c0-3.783 2.917-6.748 6.838-6.748 2.645 0 4.356 1.113 5.502 2.707l-2.713 2.095c-.731-.927-1.581-1.517-2.823-1.517-1.814 0-3.093 1.539-3.093 3.429v.034c0 1.946 1.279 3.468 3.093 3.468 1.347 0 2.143-.632 2.932-1.578l2.7 1.932c-1.224 1.686-2.869 2.93-5.747 2.93-3.698 0-6.689-2.838-6.689-6.715"/><path d="m241.56 86.31h3.583v-4.931h4.602v4.931h3.61v-12.979h-3.61v4.859h-4.602v-4.859h-3.583v12.979"/><path d="m262.82 81.19l-1.448-3.687-1.461 3.687h2.909m-3.147-7.947h3.459l5.525 13.07h-3.852l-.951-2.318h-5l-.926 2.318h-3.777l5.526-13.07"/><path d="m269.47 86.31h3.544v-7.121l5.54 7.121h3.147v-12.979h-3.557v6.857l-5.329-6.857h-3.345v12.979"/><path d="m283.23 79.86v-.037c0-3.783 2.963-6.748 6.982-6.748 2.284 0 3.901.706 5.261 1.892l-2.116 2.539c-.92-.779-1.846-1.224-3.123-1.224-1.871 0-3.316 1.576-3.316 3.56v.034c0 2.095 1.466 3.599 3.525 3.599.865 0 1.534-.184 2.067-.541v-1.574h-2.545v-2.633h5.956v5.843c-1.373 1.128-3.281 2-5.625 2-4.046.002-7.07-2.782-7.07-6.713"/><path d="m297.81 73.33h3.622v12.978h-3.622v-12.978"/><path d="m303.54 86.31h3.544v-7.121l5.554 7.121h3.147v-12.979h-3.557v6.857l-5.329-6.857h-3.359v12.979"/><path d="m317.3 79.86v-.037c0-3.783 2.966-6.748 6.984-6.748 2.278 0 3.889.706 5.254 1.892l-2.104 2.539c-.935-.779-1.854-1.224-3.13-1.224-1.874 0-3.316 1.576-3.316 3.56v.034c0 2.095 1.464 3.599 3.521 3.599.871 0 1.539-.184 2.077-.541v-1.574h-2.563v-2.633h5.975v5.843c-1.379 1.128-3.287 2-5.64 2-4.04.002-7.06-2.782-7.06-6.713"/><path d="m228.93 91.19h3.795l3.094 5.03 3.094-5.03h3.795v12.973h-3.583v-7.449l-3.306 5.08h-.079l-3.293-5.04v7.41h-3.517v-12.972"/><path d="m244.83 104.17h10.526v-3.055h-6.969v-2.058h6.215v-2.835h-6.215v-1.962h6.863v-3.064h-10.42v12.974"/><path d="m262.15 100.98c2.149 0 3.572-1.19 3.572-3.285v-.037c0-2.069-1.424-3.279-3.572-3.279h-1.468v6.6h1.468v.001m-5.067-9.789h5c4.643 0 7.322 2.675 7.322 6.418v.037c0 3.741-2.717 6.519-7.377 6.519h-4.944v-12.974h-.002"/><path d="m270.95 91.19h3.616v12.977h-3.616v-12.977"/><path d="m276.11 97.71v-.032c0-3.783 2.904-6.745 6.835-6.745 2.645 0 4.35 1.111 5.505 2.707l-2.711 2.092c-.742-.924-1.593-1.517-2.826-1.517-1.825 0-3.098 1.537-3.098 3.429v.034c0 1.944 1.275 3.466 3.098 3.466 1.345 0 2.149-.632 2.921-1.574l2.699 1.927c-1.215 1.686-2.863 2.928-5.745 2.928-3.695.001-6.678-2.834-6.678-6.715"/><path d="m289.67 91.19h3.611v12.977h-3.611v-12.977"/><path d="m295.38 104.17h3.557v-7.115l5.54 7.115h3.147v-12.973h-3.544v6.864l-5.342-6.864h-3.359v12.973"/><path d="m309.74 104.17h10.526v-3.055h-6.969v-2.058h6.228v-2.835h-6.228v-1.962h6.876v-3.064h-10.433v12.974"/><path d="m78.917 79.1v-15.895c-.066-5.666.553-5.666 5.731-5.666 6.688 0 11.193 4.985 11.193 12.02 0 7.856-5.593 12.151-13.03 12.151-3.478-.001-3.89-1.026-3.89-2.6m24.287-10.1c0-2.802-1.702-13.519-18.01-13.519-3.553 0-9.07.155-9.692.155-4.294 0-9.209.037-9.749.037h-.899c-.957 0-6.758-.037-8.873-.037-4.439 0-8.875-.155-10.03-.155-.344 0-.55.206-.55 1.025 0 .619 0 1.027.55 1.027 7.03 0 9 0 9 9.489v13.511c0 16.255-6.892 20.682-14.873 20.682-11.46 0-15.283-7.973-15.283-17.13v-12.357c0-4.845.069-6.485.138-9.624.066-4.03 1.224-4.573 7.164-4.573.748 0 .748-.546.748-1.16 0-.409-.135-.893-.608-.893-.55 0-6.485.275-10.853.275-4.294 0-10.231-.275-10.783-.275-.473 0-.608.485-.608.893 0 .615 0 1.16.751 1.16 5.938 0 7.095.546 7.162 4.573.069 3.139.135 4.779.135 9.624v15.639c0 7.507 4.296 17.748 19.582 17.748 7.915 0 19.648-4.919 19.648-23.349v-16.18c0-8.06 1.367-8.06 7.918-8.06h.693c4.91 0 6.069.546 6.142 4.573.061 3.139.132 4.779.132 9.624v16.73c0 2.936-.071 7.367-.206 10.786-.069 1.838-.473 3-5.866 3-1.909 0-1.909.409-1.909 1.162 0 .618 0 .882.553.882.473 0 .739-.138 10.77-.138 10.1 0 12.01.138 12.489.138.542 0 .542-.266.542-.882 0-.755 0-1.162-1.905-1.162-7.03 0-7.437-1.637-7.574-4.37-.074-2.05-.14-3.963-.14-14.815 2.797.546 5.529.689 8.256.689 9.283 0 16.03-4.988 16.03-14.749"/><path d="m150.64 56.24c.198-.549.398-.755.815-.755.339 0 5.316.278 6.892.278 1.157 0 6.95-.278 7.439-.278.676 0 .746.549.746 1.165 0 .612-.272.887-.822.887-6.138 0-6.889.477-6.889 3.614 0 4.444.751 18.778 1.436 37.895.069 2.315 1.977 3.205 3.749 3.205 3.825 0 3.889.41 3.889.893 0 1.018-.339 1.153-.751 1.153-.611 0-1.358-.135-10.847-.135-8.873 0-9.283.135-9.815.135-.762 0-.762-.472-.762-1.091 0-.475.138-.953 3.273-.953 4.51 0 4.574-1.094 4.574-3.812 0-4.107-1.023-26.15-1.567-38.925h-.138c-4.981 12.772-11.262 27.443-15.764 38.426-2.588 6.295-2.588 7.04-3.476 7.04-.894 0-1.023-.607-2.456-5.329-1.499-4.911-12.619-35.09-12.902-35.09-1.154 4.982-5.652 27.649-5.652 34.472 0 2.112 1.152 3.205 3.408 3.205 1.706 0 3.683.138 3.683.546 0 1.3 0 1.499-.751 1.499-.545 0-1.224-.135-8.251-.135-6.211 0-6.686.135-7.098.135-.539 0-.754-.061-.754-1.153 0-.689.346-.893 3.616-.893 2.391 0 2.869-.89 3.617-4.781 1.846-9.822 3.484-19.726 5.6-29.555.68-3.07.879-4.988.879-6.418 0-.413-.951-2.937-1.771-3.414-.545-.341-3.754-.546-5.866-.546-.815 0-.815-.543-.815-1.025 0-.546.135-1.027.746-1.027 1.296 0 7.164.278 7.91.278 1.78 0 4.643-.278 5.529-.278.756 0 .955.755 1.636 3.217 1.439 5.117 11.328 32.764 12.555 35.29 5.117-12.07 10.309-24.571 15.16-37.749"/><path d="m214.37 91.46c.413 0 .746.069.746.813 0 .824-.945 7.578-.945 9.02 0 .618-.28 1.025-.968 1.231-3.479 1.091-9.07 2.59-18.754 2.59-18.356 0-25.24-14.611-25.24-23.758.001-16.452 12.213-26.486 25.24-26.486 11.598 0 13.575 2.596 15.426 2.596 1.218 0 1.697-1.16 2.645-1.16.14 0 .479.138.479.819 0 4.169 1.293 10.379 1.293 10.924 0 .618-.815.89-1.293.89-.201 0-.547 0-.748-.55-2.934-7.504-7.23-11.741-16.03-11.741-8.46 0-18.906 8.05-18.906 24.436 0 15.09 10.783 22.258 20.13 22.258 5.182 0 11.94-2.868 15.831-11.332.141-.333.411-.545 1.091-.545"/></svg>
