<?xml version="1.0" encoding="UTF-8" standalone="no"?>
<svg
   xmlns:dc="http://purl.org/dc/elements/1.1/"
   xmlns:cc="http://creativecommons.org/ns#"
   xmlns:rdf="http://www.w3.org/1999/02/22-rdf-syntax-ns#"
   xmlns:svg="http://www.w3.org/2000/svg"
   xmlns="http://www.w3.org/2000/svg"
   xmlns:sodipodi="http://sodipodi.sourceforge.net/DTD/sodipodi-0.dtd"
   xmlns:inkscape="http://www.inkscape.org/namespaces/inkscape"
   version="1"
   viewBox="0 0 512 512"
   id="svg22"
   sodipodi:docname="logo_kali.svg"
   inkscape:version="1.0.1 (c497b03c, 2020-09-10)"
   inkscape:export-filename="/home/daniruiz/Repositorios/Kali/graphic-resources/kali-logo2.png"
   inkscape:export-xdpi="96"
   inkscape:export-ydpi="96">
  <metadata
     id="metadata26">
    <rdf:RDF>
      <cc:Work
         rdf:about="">
        <dc:format>image/svg+xml</dc:format>
        <dc:type
           rdf:resource="http://purl.org/dc/dcmitype/StillImage" />
        <dc:title></dc:title>
      </cc:Work>
    </rdf:RDF>
  </metadata>
  <sodipodi:namedview
     pagecolor="#ffffff"
     bordercolor="#666666"
     borderopacity="1"
     objecttolerance="10"
     gridtolerance="10"
     guidetolerance="10"
     inkscape:pageopacity="0"
     inkscape:pageshadow="2"
     inkscape:window-width="1882"
     inkscape:window-height="1035"
     id="namedview24"
     showgrid="false"
     inkscape:zoom="0.87109375"
     inkscape:cx="105.0618"
     inkscape:cy="223.82956"
     inkscape:window-x="1440"
     inkscape:window-y="23"
     inkscape:window-maximized="1"
     inkscape:current-layer="svg22"
     inkscape:snap-global="false"
     inkscape:document-rotation="0" />
  <defs
     id="defs10">
    <filter
       id="a"
       x="-.057299"
       y="-.096849"
       width="1.1146"
       height="1.1937"
       color-interpolation-filters="sRGB">
      <feGaussianBlur
         stdDeviation="8.9351949"
         id="feGaussianBlur7" />
    </filter>
    <filter
       inkscape:collect="always"
       style="color-interpolation-filters:sRGB"
       id="filter2071"
       x="-0.038199451"
       width="1.0763989"
       y="-0.064564948"
       height="1.1291299">
      <feGaussianBlur
         inkscape:collect="always"
         stdDeviation="4.2495336"
         id="feGaussianBlur2073" />
    </filter>
    <filter
       inkscape:collect="always"
       style="color-interpolation-filters:sRGB"
       id="filter945"
       x="-0.010461428"
       width="1.0209229"
       y="-0.014069165"
       height="1.0281383">
      <feGaussianBlur
         inkscape:collect="always"
         stdDeviation="6.5134838"
         id="feGaussianBlur947" />
    </filter>
  </defs>
  <rect
     style="opacity:1;fill:#ffffff;fill-opacity:1;stroke:none;stroke-width:10;stroke-opacity:0"
     id="rect1498"
     width="512"
     height="512"
     x="0"
     y="0" />
  <path
     d="m -83.375131,-129.29585 c 0,0 -122.710579,-8.16508 -331.674319,57.220472 -212.95317,66.6328801 -333.72914,161.078688 -333.72914,161.078688 0,0 317.39899,-177.216596 675.65338,-187.286283 z M 374.32633,63.385763 390.27919,62.344668 c 0,0 -91.39846,-110.893792 -266.34162,-164.911948 98.34034,39.974691 183.93375,92.9402157 250.38398,165.945351 z m 26.10784,46.075327 c 2.45267,-4.25254 10.37034,13.50999 16.38306,20.97212 0.25468,1.49002 0.67773,2.39929 -2.80854,1.68202 -0.29313,-1.53171 -0.79911,-1.97597 -0.79911,-1.97597 0,0 -8.41489,-5.0068 -10.99479,-8.5585 -2.58194,-3.55152 -3.04015,-9.76384 -1.78142,-12.11967 z m 214.69556,527.87676 c 0,0 19.4026,-222.75843 -330.58086,-274.11616 C 240.19063,356.71328 184.09366,351.70403 127.35141,351.56056 -153.15746,355.26939 -163.38337,28.03329 47.990822,11.510856 135.591,4.2827857 240.19182,51.538382 342.45069,99.159034 c -0.37972,12.700076 0.14537,23.985796 8.48902,34.414736 8.341,10.42559 40.38323,21.80002 50.62235,27.67478 10.23825,5.87684 43.03763,26.73031 63.13732,52.8922 4.3589,-8.15349 40.76053,-31.84802 40.76053,-31.84802 0,0 -8.72034,0.18983 -29.00736,-7.39234 -20.28957,-7.58202 -44.36544,-30.52261 -44.93502,-31.84802 -0.56836,-1.32805 -0.94689,-3.41275 3.79449,-4.36132 3.60011,-3.03097 -4.5533,-12.8899 -8.15593,-16.49 -3.60009,-3.60248 -27.6808,-44.548062 -28.24798,-45.497367 -0.56832,-0.948588 -0.75941,-1.894986 -2.46415,-3.033268 -5.31004,-1.707512 -28.63008,2.464044 -28.63008,2.464044 0,0 -35.8651,-17.614688 -48.22751,-55.592279 0.18031,6.652004 -6.14994,13.914908 0,29.197248 -18.69976,-7.910568 -34.76197,-21.402256 -47.43078,-54.7427351 -7.54034,18.9629561 0,31.0201151 0,31.0201151 0,0 -44.035,-12.304708 -51.08018,-52.915053 -7.7325,18.2299562 0,29.1948735 0,29.1948735 0,0 -71.78783,-37.4572865 -191.071421,-38.0004235 -79.860444,-7.325266 -96.486233,-147.812675 -89.087786,-171.460795 0,0 -115.188393,-60.70762 -341.936253,-87.52805 -226.74788,-26.82281 -412.71235,-4.04204 -412.71235,-4.04204 0,0 401.59726,-19.27296 723.322087,110.97788 10.937002,48.91722 43.837912,130.389048 61.558374,169.550192 -50.705256,35.057629 -107.883651,68.023185 -116.787751,184.943128 -8.90096,116.91516 91.6184,219.75438 216.269644,222.9267 118.363116,6.30485 200.143736,7.20031 299.266326,58.59036 94.61526,52.31542 172.19383,211.72749 179.87226,355.09413 8.29222,-106.37326 -31.62695,-335.123 -217.90387,-404.57731 260.3575,45.56225 283.26061,238.5719 283.26061,238.5719 z m -704.636766,-784.10061 -9.368311,-30.21746 c 0,0 -154.577843,-27.45007 -362.412033,-12.6772 -207.83422,14.77282 -417.67514,87.52563 -417.67514,87.52563 0,0 429.36702,-108.03871 789.447879,-44.63218"
     style="opacity:0.5;fill:#265ab1;fill-opacity:1;stroke-width:12.0163;paint-order:stroke fill markers;filter:url(#filter945)"
     id="path935" />
  <path
     id="path1988"
     style="clip-rule:evenodd;opacity:0.5;fill:#2b62c0;fill-opacity:1;fill-rule:evenodd;stroke-width:0.713394;filter:url(#filter2071)"
     d="m 133.27832,181.01862 c -3.73326,0.0291 -7.00998,2.38667 -8.25,5.89649 -0.40539,1.14115 -0.52344,2.29721 -0.52344,3.49414 v 117.65234 c 0.13805,4.90237 3.97251,8.7242 8.83008,8.73633 10.18227,0.0135 31.15039,-0.0352 31.15039,-0.0352 l -0.0371,-9.10547 h -30.58398 c -0.16231,-0.97807 -0.12095,-116.11857 0.0371,-116.64648 0.9369,-0.13077 247.47735,-0.0838 248.01953,0.043 0.1491,0.88803 0.10647,116.04009 -0.0566,116.64648 H 175.67871 v 9.10547 c 0,0 0.80356,1.7e-4 1.17188,0.0137 h 205.90039 c 3.6926,-0.0367 6.96437,-2.35276 8.22265,-5.83398 0.40535,-1.1089 0.52149,-2.25284 0.52149,-3.42188 V 189.6905 c -0.0776,-3.89399 -2.72761,-7.31447 -6.47656,-8.34961 l -0.006,-0.008 c -0.99276,-0.26558 -1.98405,-0.31445 -3.00977,-0.31445 z m 114.81445,34.54492 c -0.0771,0.14803 -0.13359,0.25623 -0.16406,0.35743 -8.35598,22.40698 -16.70351,44.82314 -25.05664,67.22656 -0.0367,0.0367 -0.0371,0.1053 -0.0371,0.14844 v 0.0723 c 0,0.0291 0.0365,0.0426 0.043,0.0762 h 11.4707 l 0.0215,0.004 c 0.0884,-0.2556 0.19048,-0.47502 0.26758,-0.71289 1.77607,-5.04583 3.55307,-10.0827 5.33398,-15.13281 0.29627,-0.8117 0.59165,-1.62831 0.85938,-2.44336 0.10597,-0.34022 0.27796,-0.5177 0.63671,-0.47461 0.11622,0.0135 0.25107,0 0.36914,0 h 25.07227 c 2.26638,6.27915 4.5175,12.51175 6.75977,18.74609 h 11.73632 C 276.93877,260.7464 268.5073,238.1526 260.09282,215.5637 Z m -44.11523,0.22852 c -0.65406,0 -1.06645,0.18963 -1.49805,0.69726 -8.73907,10.34921 -17.49877,20.70003 -26.25781,31.03711 -0.11621,0.13238 -0.26713,0.25169 -0.51953,0.48438 v -25.7461 c 0,-2.13091 0.0367,-4.26842 0,-6.40039 h -10.99024 v 67.50782 c 0.87248,0.15315 10.41731,0.12147 11.00586,-0.0371 v -0.85938 l -0.0293,-0.004 v -23.54688 c 0,-0.53108 0.14825,-0.90351 0.58203,-1.24023 1.81865,-1.43813 3.61358,-2.91863 5.4082,-4.38672 0.17903,-0.13293 0.35289,-0.25112 0.57617,-0.41406 0.1936,0.25021 0.35554,0.4547 0.50586,0.67968 3.05062,4.40114 6.1038,8.79762 9.15235,13.19141 3.74082,5.4128 7.48751,10.8019 11.2207,16.18945 0.20734,0.31271 0.39773,0.54883 0.85742,0.54883 3.93066,-0.0135 7.8574,-0.0137 11.7832,-0.0137 0.12997,0 0.26366,-0.043 0.47071,-0.0899 -8.6927,-12.65989 -17.34978,-25.23043 -26.03321,-37.8789 1.74697,-2.02796 3.43691,-3.9804 5.125,-5.98047 1.69254,-1.95819 3.37861,-3.92271 5.06836,-5.89453 1.68724,-1.96683 3.36302,-3.93743 5.05469,-5.90625 1.68818,-1.97339 3.37985,-3.94233 5.04883,-5.91016 1.68062,-1.95298 3.34749,-3.90681 5.12891,-6.01367 h -0.99024 c -3.55719,0 -7.11222,0.0213 -10.66992,-0.0137 z m 89.06055,0.0703 c -0.18335,0.84408 -0.13818,67.03287 0.0371,67.58789 h 39.53515 v -9.40429 h -19.07031 c -1.60328,0 -3.22019,0.0135 -4.81641,0 -1.57331,-0.0135 -3.13966,0.0592 -4.77148,-0.0352 v -52.92578 l -0.01,-0.01 c 0,-1.74817 0.066,-3.48134 -0.0488,-5.21289 z m 47.09375,0.0215 v 67.54882 h 10.94922 c 0.0364,-0.11351 0.0645,-0.17538 0.0645,-0.25195 v -66.90234 h -0.006 c 0,-0.10488 -7.1e-4,-0.19196 -0.0371,-0.30078 0,-0.0291 -0.0371,-0.0359 -0.0371,-0.0566 0,-0.0135 -0.043,-0.0371 -0.043,-0.0371 z m -86.16016,9.45507 c 0.11621,0.17741 0.20868,0.2855 0.24023,0.40235 1.83592,6.85507 4.34411,13.50602 6.62305,20.23047 0.94667,2.79793 1.92878,5.57774 2.89258,8.37695 0.0733,0.25049 0.14539,0.5008 0.23437,0.81055 h -19.69335 c 0.0879,-0.29175 0.16284,-0.54205 0.24804,-0.79297 2.31139,-6.69299 4.65596,-13.35552 6.90821,-20.06641 0.90373,-2.69713 1.58412,-5.47991 2.35351,-8.23047 0.065,-0.20843 0.10572,-0.41671 0.19336,-0.73047 z"
     sodipodi:nodetypes="ccscccccccccccccsccccccccsscccccccscccccccccsccccccscccccccscccccccsccccccscccccccccscccscccccccccccc" />
  <path
     id="path16"
     style="clip-rule:evenodd;fill:#6f6f6f;fill-opacity:1;fill-rule:evenodd;stroke-width:0.713394"
     d="m 131.27832,177.01862 c -3.73326,0.0291 -7.00998,2.38667 -8.25,5.89649 -0.40539,1.14115 -0.52344,2.29721 -0.52344,3.49414 v 117.65234 c 0.13805,4.90237 3.97251,8.7242 8.83008,8.73633 10.18227,0.0135 31.15039,-0.0352 31.15039,-0.0352 l -0.0371,-9.10547 h -30.58398 c -0.16231,-0.97807 -0.12095,-116.11857 0.0371,-116.64648 0.9369,-0.13077 247.47735,-0.0838 248.01953,0.043 0.1491,0.88803 0.10647,116.04009 -0.0566,116.64648 H 173.67871 v 9.10547 c 0,0 0.80356,1.7e-4 1.17188,0.0137 h 205.90039 c 3.6926,-0.0367 6.96437,-2.35276 8.22265,-5.83398 0.40535,-1.1089 0.52149,-2.25284 0.52149,-3.42188 V 185.6905 c -0.0776,-3.89399 -2.72761,-7.31447 -6.47656,-8.34961 l -0.006,-0.008 c -0.99276,-0.26558 -1.98405,-0.31445 -3.00977,-0.31445 z m 114.81445,34.54492 c -0.0771,0.14803 -0.13359,0.25623 -0.16406,0.35743 -8.35598,22.40698 -16.70351,44.82314 -25.05664,67.22656 -0.0367,0.0367 -0.0371,0.1053 -0.0371,0.14844 v 0.0723 c 0,0.0291 0.0365,0.0426 0.043,0.0762 h 11.4707 l 0.0215,0.004 c 0.0884,-0.2556 0.19048,-0.47502 0.26758,-0.71289 1.77607,-5.04583 3.55307,-10.0827 5.33398,-15.13281 0.29627,-0.8117 0.59165,-1.62831 0.85938,-2.44336 0.10597,-0.34022 0.27796,-0.5177 0.63671,-0.47461 0.11622,0.0135 0.25107,0 0.36914,0 h 25.07227 c 2.26638,6.27915 4.5175,12.51175 6.75977,18.74609 h 11.73632 C 274.93877,256.7464 266.5073,234.1526 258.09282,211.5637 Z m -44.11523,0.22852 c -0.65406,0 -1.06645,0.18963 -1.49805,0.69726 -8.73907,10.34921 -17.49877,20.70003 -26.25781,31.03711 -0.11621,0.13238 -0.26713,0.25169 -0.51953,0.48438 v -25.7461 c 0,-2.13091 0.0367,-4.26842 0,-6.40039 h -10.99024 v 67.50782 c 0.87248,0.15315 10.41731,0.12147 11.00586,-0.0371 v -0.85938 l -0.0293,-0.004 v -23.54688 c 0,-0.53108 0.14825,-0.90351 0.58203,-1.24023 1.81865,-1.43813 3.61358,-2.91863 5.4082,-4.38672 0.17903,-0.13293 0.35289,-0.25112 0.57617,-0.41406 0.1936,0.25021 0.35554,0.4547 0.50586,0.67968 3.05062,4.40114 6.1038,8.79762 9.15235,13.19141 3.74082,5.4128 7.48751,10.8019 11.2207,16.18945 0.20734,0.31271 0.39773,0.54883 0.85742,0.54883 3.93066,-0.0135 7.8574,-0.0137 11.7832,-0.0137 0.12997,0 0.26366,-0.043 0.47071,-0.0899 -8.6927,-12.65989 -17.34978,-25.23043 -26.03321,-37.8789 1.74697,-2.02796 3.43691,-3.9804 5.125,-5.98047 1.69254,-1.95819 3.37861,-3.92271 5.06836,-5.89453 1.68724,-1.96683 3.36302,-3.93743 5.05469,-5.90625 1.68818,-1.97339 3.37985,-3.94233 5.04883,-5.91016 1.68062,-1.95298 3.34749,-3.90681 5.12891,-6.01367 h -0.99024 c -3.55719,0 -7.11222,0.0213 -10.66992,-0.0137 z m 89.06055,0.0703 c -0.18335,0.84408 -0.13818,67.03287 0.0371,67.58789 h 39.53515 v -9.40429 h -19.07031 c -1.60328,0 -3.22019,0.0135 -4.81641,0 -1.57331,-0.0135 -3.13966,0.0592 -4.77148,-0.0352 v -52.92578 l -0.01,-0.01 c 0,-1.74817 0.066,-3.48134 -0.0488,-5.21289 z m 47.09375,0.0215 v 67.54882 h 10.94922 c 0.0364,-0.11351 0.0645,-0.17538 0.0645,-0.25195 v -66.90234 h -0.006 c 0,-0.10488 -7.1e-4,-0.19196 -0.0371,-0.30078 0,-0.0291 -0.0371,-0.0359 -0.0371,-0.0566 0,-0.0135 -0.043,-0.0371 -0.043,-0.0371 z m -86.16016,9.45507 c 0.11621,0.17741 0.20868,0.2855 0.24023,0.40235 1.83592,6.85507 4.34411,13.50602 6.62305,20.23047 0.94667,2.79793 1.92878,5.57774 2.89258,8.37695 0.0733,0.25049 0.14539,0.5008 0.23437,0.81055 h -19.69335 c 0.0879,-0.29175 0.16284,-0.54205 0.24804,-0.79297 2.31139,-6.69299 4.65596,-13.35552 6.90821,-20.06641 0.90373,-2.69713 1.58412,-5.47991 2.35351,-8.23047 0.065,-0.20843 0.10572,-0.41671 0.19336,-0.73047 z m -85.7207,99.41211 c -2.08718,0 -3.69591,0.61142 -4.81836,1.83399 -1.12681,1.22468 -1.69141,2.97507 -1.69141,5.25586 0,2.28108 0.56117,4.03977 1.68164,5.27929 1.11824,1.23831 2.71996,1.85743 4.80664,1.85743 2.06613,0 3.65861,-0.62714 4.78321,-1.8711 1.12659,-1.24936 1.68945,-2.99283 1.68945,-5.24609 0,-2.25539 -0.55857,-4.0053 -1.68555,-5.2461 -1.1226,-1.24202 -2.71162,-1.86328 -4.76562,-1.86328 z m 69.50586,0.0234 c -1.38013,0 -2.48123,0.33386 -3.30078,0.99219 -0.82004,0.66197 -1.23047,1.57014 -1.23047,2.7207 0,0.92234 0.26007,1.70784 0.77929,2.36524 0.51464,0.65555 1.40558,1.23566 2.66993,1.74609 1.2184,0.49237 2.02652,0.91789 2.41796,1.2793 0.38958,0.36157 0.58594,0.79789 0.58594,1.31054 0,0.57358 -0.2115,1.033 -0.63867,1.375 -0.42411,0.33878 -1.08857,0.50782 -1.98437,0.50782 -0.60804,0 -1.27242,-0.0844 -1.98047,-0.25391 -0.7116,-0.17094 -1.37796,-0.40238 -2.00782,-0.69922 v 2.13477 c 0.99597,0.48164 2.27468,0.72851 3.83594,0.72851 1.56555,0 2.79104,-0.3513 3.68164,-1.04883 0.88853,-0.6972 1.33399,-1.66273 1.33399,-2.89062 0,-0.62821 -0.11308,-1.16809 -0.33204,-1.62695 -0.2176,-0.4629 -0.56718,-0.87356 -1.03906,-1.24024 h 0.004 c -0.47652,-0.36602 -1.22073,-0.76036 -2.23047,-1.17969 -0.90572,-0.3716 -1.53079,-0.67379 -1.875,-0.90234 -0.3492,-0.22622 -0.5948,-0.46647 -0.74414,-0.71875 -0.15503,-0.2575 -0.23242,-0.56437 -0.23242,-0.92383 0,-0.52182 0.19058,-0.94566 0.56836,-1.25976 0.37737,-0.32275 0.9312,-0.47852 1.66406,-0.47852 0.96166,0 2.06144,0.25459 3.29297,0.77344 l 0.71484,-1.83789 c -1.30551,-0.58076 -2.62685,-0.87305 -3.95312,-0.87305 z m 54.13867,0 c -1.38084,0 -2.47798,0.33386 -3.29688,0.99219 -0.81962,0.66197 -1.23242,1.57014 -1.23242,2.7207 0,0.92234 0.25938,1.70784 0.77735,2.36524 0.51464,0.65555 1.40276,1.23566 2.66796,1.74609 1.2219,0.49237 2.02813,0.91789 2.41993,1.2793 0.38956,0.36157 0.58398,0.79789 0.58398,1.31054 0,0.57358 -0.21008,1.033 -0.63476,1.375 -0.42487,0.33878 -1.08931,0.50782 -1.98633,0.50782 -0.60737,0 -1.27071,-0.0844 -1.97461,-0.25391 -0.71589,-0.17094 -1.38142,-0.40238 -2.01563,-0.69922 v 2.13477 c 1.00011,0.48164 2.27825,0.72851 3.8418,0.72851 1.56361,0 2.79297,-0.3513 3.68164,-1.04883 0.88718,-0.6972 1.33203,-1.66273 1.33203,-2.89062 0,-0.62821 -0.11445,-1.16809 -0.33203,-1.62695 -0.22353,-0.4629 -0.57103,-0.87341 -1.04102,-1.24024 -0.47368,-0.36602 -1.22002,-0.76036 -2.23632,-1.17969 -0.89524,-0.3716 -1.52557,-0.67379 -1.86914,-0.90234 -0.34488,-0.22622 -0.59659,-0.46647 -0.7461,-0.71875 -0.14911,-0.2575 -0.22656,-0.56437 -0.22656,-0.92383 0,-0.52182 0.18785,-0.94566 0.56836,-1.25976 0.37732,-0.32275 0.93374,-0.47852 1.66211,-0.47852 0.96594,0 2.06374,0.25459 3.29492,0.77344 l 0.71289,-1.83789 c -1.30686,-0.58076 -2.6269,-0.87305 -3.95117,-0.87305 z m 27.42383,0 c -1.34318,0 -2.51697,0.28559 -3.51172,0.85938 -0.99362,0.57284 -1.75427,1.39884 -2.28125,2.47656 -0.52683,1.08108 -0.79102,2.33756 -0.79102,3.77148 0,2.28314 0.54243,4.03506 1.62891,5.25781 1.08393,1.22932 2.6395,1.8418 4.66211,1.8418 1.37143,0 2.60452,-0.20878 3.68945,-0.61133 v -1.94336 c -0.59074,0.18713 -1.16582,0.33687 -1.71484,0.45704 -0.54628,0.11513 -1.11662,0.17187 -1.70117,0.17187 -1.35295,0 -2.38954,-0.43838 -3.10743,-1.30859 -0.71447,-0.86763 -1.07226,-2.15284 -1.07226,-3.8418 0,-1.62354 0.37322,-2.88678 1.11719,-3.81055 0.74379,-0.92228 1.76338,-1.38086 3.06054,-1.38086 0.57212,0 1.11952,0.079 1.64258,0.25 0.51969,0.16609 1.01241,0.36017 1.48047,0.58008 l 0.8125,-1.8789 c -1.19636,-0.59443 -2.50639,-0.89063 -3.91406,-0.89063 z m -179.08594,0.19336 4.58398,8.53711 v 5.2832 h 2.26953 v -5.35937 l 4.60743,-8.46094 h -2.46094 l -3.26953,6.30664 -3.27344,-6.30664 z m 63.86328,0 v 13.82031 h 7.82227 v -1.91797 h -5.5586 v -4.33789 h 5.20899 v -1.89062 h -5.20899 v -3.76367 h 5.5586 v -1.91016 z m 64.27734,0 v 13.82422 h 7.81641 v -1.92188 h -5.5625 v -4.33593 h 5.21484 v -1.89258 h -5.21484 v -3.76367 h 5.5625 v -1.91016 z m 32.29688,0 v 13.82422 h 7.82031 v -1.92188 h -5.56054 v -4.33593 h 5.20898 v -1.89258 h -5.20898 v -3.76367 h 5.56054 v -1.91016 z m -173.33399,0.002 v 13.82032 h 4.99024 c 1.54385,0 2.75008,-0.34625 3.61914,-1.05469 0.86577,-0.70444 1.29883,-1.67614 1.29883,-2.91602 0,-0.92221 -0.23117,-1.64818 -0.68555,-2.1875 -0.45853,-0.54196 -1.16988,-0.90146 -2.13867,-1.08593 v -0.0938 c 0.78095,-0.13643 1.38142,-0.47373 1.79883,-1.00781 0.41186,-0.53478 0.61914,-1.20813 0.61914,-2.01562 0,-1.19686 -0.42205,-2.07365 -1.27149,-2.62696 -0.84694,-0.55349 -2.2259,-0.83203 -4.12695,-0.83203 z m 52.26954,0 v 13.81836 h 2.24414 v -5.67383 h 5.21093 v -1.91601 h -5.21093 v -4.32031 h 5.55859 v -1.90821 z m 12.24609,0 v 13.81836 h 2.24219 v -5.67383 h 5.20898 v -1.91601 h -5.20898 v -4.32031 h 5.56054 v -1.90821 z m 25,0 v 13.82032 h 2.05078 v -7.18164 c 0,-0.97171 -0.0489,-2.04282 -0.13281,-3.21485 l -0.0449,-0.61328 h 0.0723 l 6.80469,11.00977 h 2.76367 v -13.82033 h -2.0664 v 7.24219 h -0.01 c 0,0.50818 -5.5e-4,1.21627 0.0644,2.12891 0.0367,0.91272 0.065,1.44225 0.0723,1.58593 h -0.0508 l -6.78321,-10.95703 z m 29.68164,0.002 v 13.82031 h 2.26172 V 320.9718 Z m 6.01953,0 4.82422,13.81836 h 2.38477 l 4.84375,-13.81836 h -2.34766 l -2.87891,8.55273 c -0.10974,0.30404 -0.24818,0.77384 -0.42187,1.40234 -0.16744,0.62818 -0.29561,1.18504 -0.37695,1.66016 -0.0574,-0.31402 -0.16242,-0.79275 -0.33204,-1.43945 -0.17391,-0.64686 -0.32878,-1.17321 -0.48632,-1.58399 l -2.88282,-8.59179 z m 74.95508,0 v 8.90625 c 0,1.58388 0.4757,2.83372 1.42773,3.74023 0.95388,0.90972 2.28341,1.36328 3.99805,1.36328 1.15349,0 2.14709,-0.20944 2.97656,-0.61914 0.82725,-0.41111 1.45956,-1.00307 1.89844,-1.76562 0.4399,-0.76461 0.6582,-1.65983 0.6582,-2.67969 v -8.94531 h -2.25781 v 8.72461 h -0.002 c 0,2.23706 -1.06408,3.35742 -3.19727,3.35742 -1.0952,0 -1.91399,-0.27405 -2.4414,-0.81446 -0.53044,-0.53909 -0.79297,-1.37941 -0.79297,-2.52148 v -8.74609 z m 30.74414,0 v 13.82031 h 2.25977 V 320.9718 Z m 6.30274,0 v 1.9414 h 0.002 4.06055 v 11.87891 h 2.25781 V 322.9132 h 4.06836 v -1.9414 z m -20.61524,0.002 v 13.82031 h 2.25977 v -5.52148 h 2.23047 l 3.30664,5.51758 h 2.57617 l -3.9043,-6.11524 c 1.79228,-0.73101 2.68485,-1.95136 2.68555,-3.67578 0,0 0,-0.002 0,-0.002 -4.4e-4,-1.34592 -0.43078,-2.35119 -1.28321,-3.02344 -0.85985,-0.66483 -2.18058,-1 -3.96484,-1 z m 33.23047,0 4.58984,8.53711 v 5.2832 h 2.26953 v -5.36133 l 4.60743,-8.45898 h -2.46094 l -3.27149,6.30664 -3.27343,-6.30664 z m -208.91992,1.7207 c 1.34347,0 2.34989,0.43399 3.03125,1.3125 0.67345,0.87512 1.01367,2.16094 1.01367,3.85547 0,1.71913 -0.33992,3.01323 -1.02149,3.88086 -0.68931,0.87084 -1.69939,1.30859 -3.04492,1.30859 -1.34782,0 -2.36468,-0.44113 -3.05468,-1.32031 -0.68348,-0.87833 -1.02735,-2.16941 -1.02735,-3.86914 0,-1.69446 0.34401,-2.97942 1.03711,-3.85547 0.68785,-0.87726 1.71125,-1.3125 3.06641,-1.3125 z m -38.6543,0.16211 h 1.95508 c 1.02372,0 1.76497,0.14433 2.24023,0.4375 0.46724,0.28983 0.70117,0.76119 0.70118,1.41016 0,0.71732 -0.21509,1.22291 -0.6504,1.52539 -0.4327,0.29628 -1.12816,0.45117 -2.07226,0.45117 h -2.17383 z m 216.60352,0.0274 h 1.49023 c 1.02893,0 1.80087,0.16985 2.30859,0.50781 0.51464,0.34196 0.76563,0.90178 0.76563,1.68359 0,0.76889 -0.23124,1.35082 -0.70508,1.74219 -0.46998,0.38816 -1.23725,0.58594 -2.29101,0.58594 h -1.56836 z m -216.60352,5.62695 h 2.28516 c 1.00332,0 1.75232,0.17352 2.23828,0.52148 0.49593,0.34199 0.74023,0.8802 0.74023,1.59766 0,0.78181 -0.23445,1.35022 -0.7207,1.71484 -0.48512,0.36158 -1.19412,0.54492 -2.14258,0.54492 h -2.40039 z" />
  <path
     d="m -83.375131,-129.29585 c 0,0 -122.710579,-8.16508 -331.674319,57.220472 -212.95317,66.6328801 -333.72914,161.078688 -333.72914,161.078688 0,0 317.39899,-177.216596 675.65338,-187.286283 z M 374.32633,63.385763 390.27919,62.344668 c 0,0 -91.39846,-110.893792 -266.34162,-164.911948 98.34034,39.974691 183.93375,92.9402157 250.38398,165.945351 z m 26.10784,46.075327 c 2.45267,-4.25254 10.37034,13.50999 16.38306,20.97212 0.25468,1.49002 0.67773,2.39929 -2.80854,1.68202 -0.29313,-1.53171 -0.79911,-1.97597 -0.79911,-1.97597 0,0 -8.41489,-5.0068 -10.99479,-8.5585 -2.58194,-3.55152 -3.04015,-9.76384 -1.78142,-12.11967 z m 214.69556,527.87676 c 0,0 19.4026,-222.75843 -330.58086,-274.11616 C 240.19063,356.71328 184.09366,351.70403 127.35141,351.56056 -153.15746,355.26939 -163.38337,28.03329 47.990822,11.510856 135.591,4.2827857 240.19182,51.538382 342.45069,99.159034 c -0.37972,12.700076 0.14537,23.985796 8.48902,34.414736 8.341,10.42559 40.38323,21.80002 50.62235,27.67478 10.23825,5.87684 43.03763,26.73031 63.13732,52.8922 4.3589,-8.15349 40.76053,-31.84802 40.76053,-31.84802 0,0 -8.72034,0.18983 -29.00736,-7.39234 -20.28957,-7.58202 -44.36544,-30.52261 -44.93502,-31.84802 -0.56836,-1.32805 -0.94689,-3.41275 3.79449,-4.36132 3.60011,-3.03097 -4.5533,-12.8899 -8.15593,-16.49 -3.60009,-3.60248 -27.6808,-44.548062 -28.24798,-45.497367 -0.56832,-0.948588 -0.75941,-1.894986 -2.46415,-3.033268 -5.31004,-1.707512 -28.63008,2.464044 -28.63008,2.464044 0,0 -35.8651,-17.614688 -48.22751,-55.592279 0.18031,6.652004 -6.14994,13.914908 0,29.197248 -18.69976,-7.910568 -34.76197,-21.402256 -47.43078,-54.7427351 -7.54034,18.9629561 0,31.0201151 0,31.0201151 0,0 -44.035,-12.304708 -51.08018,-52.915053 -7.7325,18.2299562 0,29.1948735 0,29.1948735 0,0 -71.78783,-37.4572865 -191.071421,-38.0004235 -79.860444,-7.325266 -96.486233,-147.812675 -89.087786,-171.460795 0,0 -115.188393,-60.70762 -341.936253,-87.52805 -226.74788,-26.82281 -412.71235,-4.04204 -412.71235,-4.04204 0,0 401.59726,-19.27296 723.322087,110.97788 10.937002,48.91722 43.837912,130.389048 61.558374,169.550192 -50.705256,35.057629 -107.883651,68.023185 -116.787751,184.943128 -8.90096,116.91516 91.6184,219.75438 216.269644,222.9267 118.363116,6.30485 200.143736,7.20031 299.266326,58.59036 94.61526,52.31542 172.19383,211.72749 179.87226,355.09413 8.29222,-106.37326 -31.62695,-335.123 -217.90387,-404.57731 260.3575,45.56225 283.26061,238.5719 283.26061,238.5719 z m -704.636766,-784.10061 -9.368311,-30.21746 c 0,0 -154.577843,-27.45007 -362.412033,-12.6772 -207.83422,14.77282 -417.67514,87.52563 -417.67514,87.52563 0,0 429.36702,-108.03871 789.447879,-44.63218"
     style="opacity:1;fill:#878787;fill-opacity:1;stroke-width:12.0163;paint-order:stroke fill markers"
     id="path6" />
  <path
     id="path2431"
     style="opacity:0.1;fill:#272a34;fill-opacity:1;stroke-width:12.0163;paint-order:stroke fill markers"
     d="M -631.25 -307.75977 C -741.09015 -307.63425 -813.73242 -298.73438 -813.73242 -298.73438 C -813.73242 -298.73438 -780.15045 -300.32316 -724.83203 -299.47656 C -649.04455 -303.1247 -531.86769 -304.17185 -401.01953 -288.69336 C -185.38854 -263.18787 -70.875315 -207.14968 -60.142578 -201.70508 C -59.880294 -203.90402 -59.526805 -205.74865 -59.083984 -207.16406 C -59.083984 -207.16406 -174.27167 -267.87293 -401.01953 -294.69336 C -486.04999 -304.75191 -565.34591 -307.83508 -631.25 -307.75977 z M -333.60156 -194.01953 C -372.90791 -194.09953 -415.82338 -192.88977 -461.28711 -189.6582 C -669.12133 -174.88538 -878.96289 -102.13086 -878.96289 -102.13086 C -878.96289 -102.13086 -854.66461 -108.22001 -813.13477 -116.625 C -734.88082 -139.31156 -597.65299 -173.96534 -461.28711 -183.6582 C -253.45292 -198.43107 -98.875 -170.98047 -98.875 -170.98047 L -91.472656 -147.10156 C -90.820233 -146.98788 -90.165644 -146.87848 -89.513672 -146.76367 L -89.507812 -146.76367 L -98.875 -176.98047 C -98.875 -176.98047 -193.22176 -193.73383 -333.60156 -194.01953 z M -60.628906 -188.07617 C -61.596603 -145.814 -40.316361 -36.15331 30.003906 -29.703125 C 149.2875 -29.159988 221.07617 8.296875 221.07617 8.296875 C 221.07617 8.296875 219.25528 5.6859985 218.26562 0.92773438 C 204.23262 -5.7045351 135.90079 -35.220942 30.003906 -35.703125 C -37.189431 -41.86649 -59.611439 -142.28516 -60.628906 -188.07617 z M -96.076172 -129.61914 C -132.42317 -129.77277 -245.26579 -125.20193 -415.04883 -72.076172 C -628.002 -5.4432918 -748.7793 89.003906 -748.7793 89.003906 C -748.7793 89.003906 -736.75523 82.308955 -714.96094 71.519531 C -665.2589 39.248936 -562.16606 -20.043306 -415.04883 -66.076172 C -206.08509 -131.46172 -83.375 -123.29492 -83.375 -123.29492 L -75.087891 -98.220703 C -74.433252 -98.240226 -73.779913 -98.264795 -73.125 -98.283203 L -83.375 -129.29492 C -83.375 -129.29492 -87.688404 -129.58369 -96.076172 -129.61914 z M 123.9375 -102.56641 C 149.84108 -92.036774 174.84936 -80.595922 198.86719 -68.134766 C 304.83051 -20.079739 367.87495 43.601432 385.27344 62.671875 L 390.2793 62.34375 C 390.2793 62.34375 298.88066 -48.54825 123.9375 -102.56641 z M 221.07617 -26.898438 C 217.88911 -19.384699 217.34405 -13.130067 217.78711 -8.34375 C 218.12471 -12.007809 219.08779 -16.210682 221.07617 -20.898438 C 228.12135 19.711908 272.15625 32.017578 272.15625 32.017578 C 272.15625 32.017578 270.64508 29.576963 269.65234 25.193359 C 260.32699 21.919613 227.1214 7.9479081 221.07617 -26.898438 z M -30.902344 -16.798828 C -81.089855 17.749188 -136.85578 51.382377 -145.64062 166.73633 C -146.08096 172.5202 -146.24312 178.26805 -146.1582 183.97266 C -146.09549 180.24377 -145.92695 176.49719 -145.64062 172.73633 C -136.73653 55.816385 -79.556818 22.850598 -28.851562 -12.207031 C -29.501878 -13.644189 -30.212974 -15.251404 -30.902344 -16.798828 z M 272.15625 -5.0039062 C 269.07138 2.7541337 268.527 9.3302552 268.94141 14.423828 C 269.24913 10.483673 270.17176 5.9868182 272.15625 0.99609375 C 284.82506 34.336573 300.88618 47.829666 319.58594 55.740234 C 318.5703 53.216412 317.92042 50.928352 317.5 48.808594 C 299.69332 40.772413 284.34976 27.085719 272.15625 -5.0039062 z M 319.58594 20.542969 C 319.72283 25.593066 316.1208 31.003996 317.0625 40 C 317.65906 34.383603 319.68937 30.358838 319.58594 26.542969 C 331.94835 64.52056 367.81445 82.134766 367.81445 82.134766 C 367.81445 82.134766 391.13332 77.96241 396.44336 79.669922 C 398.1481 80.808204 398.33988 81.754537 398.9082 82.703125 C 399.47538 83.65243 423.55616 124.59869 427.15625 128.20117 C 429.34277 130.38616 433.19381 134.87198 435.08789 138.74219 C 435.16514 138.72551 435.23235 138.70744 435.3125 138.69141 C 438.91261 135.66044 430.75888 125.80127 427.15625 122.20117 C 423.55616 118.59869 399.47538 77.65243 398.9082 76.703125 C 398.33988 75.754537 398.1481 74.808204 396.44336 73.669922 C 391.13332 71.96241 367.81445 76.134766 367.81445 76.134766 C 367.81445 76.134766 331.94835 58.52056 319.58594 20.542969 z M 342.37109 105.12109 C 342.3761 105.8502 342.39147 106.57507 342.41211 107.29492 C 342.42658 106.58184 342.42958 105.88033 342.45117 105.1582 C 342.42452 105.14579 342.39775 105.13351 342.37109 105.12109 z M 400.10156 116.32227 C 399.29772 119.08869 399.90146 124.39797 402.21484 127.58008 C 404.79474 131.13178 413.20898 136.13867 413.20898 136.13867 C 413.20898 136.13867 413.71468 136.58352 414.00781 138.11523 C 417.49408 138.8325 417.07109 137.92361 416.81641 136.43359 C 415.32054 134.57714 413.70803 132.08118 412.08984 129.44727 C 409.81502 128.0256 404.26231 124.39878 402.21484 121.58008 C 401.15648 120.12428 400.47426 118.22335 400.10156 116.32227 z M 433.49609 145.19922 C 430.70253 146.25947 431.03581 147.92702 431.51758 149.05273 C 432.08716 150.37814 456.16355 173.31837 476.45312 180.90039 C 486.19012 184.53954 493.23636 186.37772 497.95898 187.31641 C 502.32273 184.35107 505.45898 182.29297 505.45898 182.29297 C 505.45898 182.29297 496.74014 182.48256 476.45312 174.90039 C 459.3691 168.51625 439.65611 151.28904 433.49609 145.19922 z M -98.287109 169.56445 C -99.721678 261.14371 -27.232095 359.60442 127.35156 357.56055 C 184.09381 357.70402 240.19059 362.71425 284.54883 369.22266 C 591.21956 414.22453 614.27167 590.80758 615.28125 633.83008 C 615.9912 605.7157 609.07598 410.84484 284.54883 363.22266 C 240.19059 356.71425 184.09381 351.70402 127.35156 351.56055 C -23.86025 353.55984 -96.53153 259.38986 -98.287109 169.56445 z M 331.86523 404.76953 C 501.84273 468.14652 549.94382 664.14536 550.76172 778.78516 C 551.5627 671.07516 509.61653 484.19987 358.04297 410.02148 C 349.59194 408.10544 340.87625 406.34645 331.86523 404.76953 z " />
</svg>
