<svg xmlns="http://www.w3.org/2000/svg" viewBox="0 0 256 256"><path fill="#444" d="M128 8L23.8 68.1v120.3L128 248.6l104.2-60.1V68.1L128 8zM92.1 149.1v37.3l-32.4-18.7v-37.3l32.4 18.7zm-32.4-21.4V90.3L92.1 109v37.3l-32.4-18.6zm34.7 60.1v-37.3l32.4 18.7v37.3l-32.4-18.7zm32.4-21.5l-32.4-18.7v-37.3l32.4 18.7v37.3zM95.6 68.1L128 49.5l32.4 18.7L128 86.8 95.6 68.1zm65.9 158.4l-32.4 18.7v-35.9l32.4-18.7v35.9zm0-38.7l-32.3 18.7v-37.3l32.4-18.7-.1 37.3zm0-40.1l-32.4 18.7V129l32.4-18.7v37.4zm-31.1-59.5l32.4-18.7 32.4 18.7-32.4 18.7-32.4-18.7zm65.9 118.3l-32.4 18.7v-35.9l32.4-18.7v35.9zm0-38.8l-32.4 18.7V149l32.4-18.7v37.4zm0-40l-32.4 18.7V109l32.4-18.7v37.4zm33.5 59.4l-31.1 18v-35.9l31.1-18v35.9zm0-38.7l-31.1 18V129l31.1-18v37.4zm0-40.1l-31.1 18V88.9l31.1-18v37.4z"/></svg>