<?xml version="1.0" encoding="UTF-8"?>
<svg width="461.52" height="331.5" version="1.1" xmlns="http://www.w3.org/2000/svg" xmlns:cc="http://creativecommons.org/ns#" xmlns:dc="http://purl.org/dc/elements/1.1/" xmlns:rdf="http://www.w3.org/1999/02/22-rdf-syntax-ns#">
 <metadata>
  <rdf:RDF>
   <cc:Work rdf:about="">
    <dc:format>image/svg+xml</dc:format>
    <dc:type rdf:resource="http://purl.org/dc/dcmitype/StillImage"/>
    <dc:title>The CentOS Logo Vertical Version</dc:title>
   </cc:Work>
  </rdf:RDF>
 </metadata>
 <title>The CentOS Logo Vertical Version</title>
 <defs>
  <clipPath>
   <g transform="matrix(.99477 0 0 1 1.7861 0)">
    <path d="m322.54 2800.9-4.435 5.7298-4.435-5.7298v-43.143h-18.94l23.375-25.537 23.131 25.537h-18.696v43.143z" fill="#efa724" fill-rule="evenodd"/>
   </g>
  </clipPath>
  <filter id="filter1181" color-interpolation-filters="sRGB">
   <feColorMatrix values="0.21 0.151976 0.072 0.151976 0 0.21 0.151976 0.072 0.151976 0 0.21 0.151976 0.072 0.151976 0 0 0 0 1 0 "/>
  </filter>
 </defs>
 <g transform="translate(56.228 -432.25)" filter="url(#filter1181)">
  <g transform="matrix(1.0009 0 0 1.0095 -.056512 -6.1848)">
   <rect x="-56.122" y="434.33" width="461.11" height="328.4" fill-opacity="0"/>
   <path d="m34.586 736.57h-34.425c-3.4908 0-6.9444-0.50099-10.361-1.5032-6.6102-2.081-11.846-6.86-15.708-14.337-3.4908-6.783-5.2361-14.684-5.2361-23.702 0-8.7099 1.5597-16.418 4.6791-23.124 3.4164-7.3996 8.2812-12.448 14.594-15.146 4.9019-2.0811 9.9152-3.1216 15.04-3.1217h31.194v15.493h-32.419c-5.2733 8e-5 -9.0983 2.9676-11.475 8.9027-1.8568 4.6248-2.7852 10.676-2.7852 18.152 0 6.3206 1.1883 11.678 3.565 16.071 2.748 5.1644 6.6101 7.7465 11.586 7.7465l31.751-0.11569v14.684m57.333 0.34681h-27.183c-6.6102 0-12.366-2.929-17.268-8.787-4.8276-5.9352-7.2414-12.757-7.2414-20.465 0-8.4017 2.6366-15.647 7.9099-21.736 5.3475-6.1664 11.289-9.2495 17.825-9.2496h25.846v12.371h-18.939c-2.3767 6e-5 -4.4191 0.23118-6.1274 0.69373-1.634 0.38543-3.1566 1.1948-4.5677 2.428-2.5995 2.3125-3.8992 5.4342-3.8992 9.3652h33.422v12.487h-33.311c-3e-5 1.8499 0.18564 3.4301 0.55698 4.7404 0.44565 1.2333 1.2998 2.5051 2.5624 3.8155 1.2626 1.2333 2.748 2.0812 4.4562 2.5436 1.7825 0.38546 3.9364 0.57827 6.4617 0.57827h19.496v11.215m63.53-0.34681h-15.486v-39.426c-5e-5 -1.002-0.22282-1.8884-0.6684-2.6592-0.44569-0.84783-1.077-1.6572-1.894-2.428-1.4854-1.3103-3.1937-1.9655-5.1247-1.9655h-15.151v46.479h-15.486v-59.891h29.634c5.2732 4e-5 9.0982 0.30834 11.475 0.92492 3.7135 0.92504 6.6844 2.9676 8.9126 6.1278 2.5252 3.6999 3.7878 7.7466 3.7878 12.14v40.698m44.476-47.404h-15.04v27.171c-1e-5 2.4666 0.81694 4.5092 2.4509 6.1279 1.8568 1.6187 4.3077 2.428 7.3529 2.428h4.5677v11.678h-14.371c-4.3078 0-7.9842-1.6188-11.029-4.856-1.7825-1.927-2.9337-4.0468-3.4536-6.3592-0.51991-2.3123-0.77984-5.0487-0.7798-8.2089v-27.98h-9.8038v-12.487h9.8038v-21.043h15.263v21.043h15.04v12.487m90.913 6.8215c-1.1e-4 15.724-4.1965 26.978-12.589 33.761-6.833 5.4726-16.785 8.209-29.857 8.209-14.483 0-25.178-3.1602-32.085-9.4808-7.5756-6.9372-11.363-18.075-11.363-33.414 0-12.564 3.3793-22.353 10.138-29.367 7.3528-7.6308 18.345-11.446 32.976-11.446 16.117 6e-5 27.48 3.6614 34.09 10.984 5.7931 6.4748 8.6897 16.726 8.6898 30.755m-19.83-0.46248c-6e-5 -7.9391-1.8197-14.26-5.4589-18.962-4.085-5.2414-10.138-7.8621-18.159-7.8622-7.8728 9e-5 -13.814 2.8135-17.825 8.4402-3.3423 4.7019-5.0133 10.83-5.0133 18.384-2e-5 8.7101 1.3369 15.146 4.0106 19.308 3.7135 5.781 10.584 8.6715 20.61 8.6714 8.4668 3e-5 14.409-2.8134 17.825-8.4402 2.6737-4.3935 4.0106-10.907 4.0106-19.54m109.01 15.956c-9e-5 7.0914-2.2654 13.065-6.7958 17.921-4.5307 4.856-10.287 7.284-17.268 7.284l-55.146-0.11569v-14.568h45.454c3.0451 3e-5 5.6074-0.73224 7.6871-2.1968 2.3766-1.6957 3.565-4.0081 3.565-6.9372-5e-5 -6.8601-4.6791-10.29-14.037-10.29h-22.95c-6.6101 2e-5 -12.403-2.1197-17.379-6.3591-4.9762-4.2393-7.4643-9.6349-7.4643-16.187 0-7.2454 2.4138-13.103 7.2414-17.574 4.9019-4.5476 11.326-6.8215 19.273-6.8216h52.695v13.874h-46.457c-2.0796 7e-5 -4.1964 0.92504-6.3502 2.7749-2.0796 1.7729-3.1194 3.8926-3.1194 6.3591-2e-5 2.7749 1.0026 5.1258 3.008 7.0528 2.0796 1.85 4.5677 2.7749 7.4642 2.7749h25.289c7.8727 4e-5 14.037 2.1197 18.494 6.3591 4.5304 4.1623 6.7957 9.7121 6.7958 16.649"/>
   <g transform="matrix(1.0627 0 0 1.0537 198.76 -518.48)">
    <g transform="matrix(0 -1 1 0 -1934.5 1337.5)">
     <g transform="translate(16.28 -899.17)">
      <g transform="matrix(1.0667 0 0 1 -26.936 -4.1328e-5)">
       <path d="m323.37 2798.2-5.4062 5.8005-5.4062-5.8005v-40.826h-18.013l23.419-24.898 23.025 24.898h-17.619l-1e-5 40.826z" fill="#932279" fill-rule="evenodd"/>
      </g>
     </g>
    </g>
    <g transform="translate(-351.31 -902.56)">
     <g transform="translate(16.28 -899.17)">
      <g transform="matrix(1.0667 0 0 1 -26.936 -4.1328e-5)">
       <path d="m323.37 2798.2-5.4062 5.8005-5.4062-5.8005v-40.826h-18.013l23.419-24.898 23.025 24.898h-17.619l-1e-5 40.826z" fill="#efa724" fill-rule="evenodd"/>
      </g>
     </g>
    </g>
    <g transform="matrix(0 1 -1 0 2787.9 696.93)">
     <g transform="matrix(1.0667 0 0 1 -26.936 -4.1328e-5)">
      <path d="m323.37 2798.2-5.4062 5.8005-5.4062-5.8005v-40.826h-18.013l23.419-24.898 23.025 24.898h-17.619l-1e-5 40.826z" fill="#262577" fill-rule="evenodd"/>
     </g>
    </g>
    <g transform="matrix(-1 0 0 -1 305.52 2920.7)">
     <g transform="translate(16.28 -899.17)">
      <g transform="matrix(1.0667 0 0 1 -26.936 -4.1328e-5)">
       <path d="m323.37 2798.2-5.4062 5.8005-5.4062-5.8005v-40.826h-18.013l23.419-24.898 23.025 24.898h-17.619l-1e-5 40.826z" fill="#9ccd2a" fill-rule="evenodd"/>
      </g>
     </g>
    </g>
    <g transform="translate(-749.8 -1331.6)" stroke="#fff" stroke-width="3.5433">
     <path d="m671.98 2285.8h49.606v49.606h-49.606v-49.606z" fill="#9ccd2a"/>
     <path d="m732.22 2285.8h49.606v49.606h-49.606v-49.606z" fill="#932279"/>
     <path d="m732.22 2346h49.606v49.606h-49.606v-49.606z" fill="#efa724"/>
     <path d="m671.98 2346h49.606v49.606h-49.606v-49.606z" fill="#262577"/>
    </g>
    <g fill="none" stroke="#fff">
     <path transform="matrix(.70711 -.70711 .70711 .70711 0 0)" d="m-784.63 642.41h49.606v49.606h-49.606v-49.606z" stroke-width="3.5433"/>
     <path transform="matrix(.70711 -.70711 .70711 .70711 0 0)" d="m-724.39 642.41h49.606v49.606h-49.606v-49.606z" stroke-width="3.5431"/>
     <path d="m-15.378 1009.1 35.077-35.077 35.077 35.077-35.077 35.077-35.077-35.077z" stroke-width="3.5433"/>
     <path transform="matrix(.70711 -.70711 .70711 .70711 0 0)" d="m-784.63 702.65h49.606v49.606h-49.606v-49.606z" stroke-width="3.5433"/>
    </g>
   </g>
  </g>
 </g>
</svg>
