<svg xmlns="http://www.w3.org/2000/svg" viewBox="0 0 340 160" enable-background="new 0 0 340 160"><path d="m93.07 72.42l29.24-10.993c.46 2.175.876 4.453 1.056 6.972l-30.1 4.641c-.066-.18-.104-.35-.193-.62"/><path d="m70.28 72.27l-34.636-8.255c.537-2.942 1.754-7.219 2.99-9.76l31.865 17.383c-.118.238-.175.437-.219.632"/><path d="m89.4 66.84l19.378-27.684c2.247 1.995 4.88 4.604 6.376 7.02l-25.27 21.11c-.127-.134-.287-.305-.489-.438"/><path d="m72.61 68.15l-30.989-19.582c1.588-2.885 6.411-8.234 8.937-10.152l22.475 29.27c-.162.135-.296.278-.423.464"/><path d="m83.83 64.2l.835-35.771c3.98.438 9.447 1.84 12.516 3.371l-12.785 32.51c-.183-.066-.347-.095-.566-.11"/><path d="m77.37 64.782l-19.86-31.09c4.959-2.799 10.829-4.62 15.904-5.235l4.589 36.12c-.118.024-.446.125-.633.21"/><path d="m38.12 87.42c0 0-.598-1.533-1.194-3.483-.559-1.827-1.1-4.01-1.1-4.01 11.289-1.439 28.891-1.518 41.02-1.518.001 0-23.432 2.171-38.723 9.01"/><path d="m63.15 111.9c0 0-2.76-.863-6.179-2.78-3.15-1.765-5.969-4.26-5.969-4.26 6.792-8.542 28.873-25.375 49.586-26.477-.001.001-21.344 7.503-37.438 33.517"/><path d="m90.84 113.3c0 0-5.193 1.54-11.585 1.494-6.26-.044-9.125-.92-9.125-.92 1.295-4.409 16.1-30.11 33.832-35.486 0 0-13.683 14.419-13.12 34.912"/><path d="m46.31 100.44c0 0-1.36-1.196-3.614-4.398-2.081-2.953-2.964-4.946-2.964-4.946 5.581-3.542 25.23-12.717 53.09-12.717.001-.001-24.17 4.317-46.514 22.06"/><path d="m95.41 130.85l24.804-52.43h13.961l-2.646 52.43h-11.129l1.027-10.615h-10.319l-4.365 10.615h-11.333m28.91-41.3l-9.911 23.12h7.69l2.221-23.12"/><path d="m134.14 130.85l10-40.12h10.904l-.723 2.902c.97-.653 4.657-3.7 9.706-3.7 4.948 0 5.932 3.338 6.201 4.28 1.091-.725 6.118-4.28 10.558-4.28 7.471 0 6.02 5.805 5.518 7.835l-8.249 33.09h-10.904l7.87-31.563c.217-.87-.118-1.958-2.239-1.958-1.514 0-2.777 1.016-3.373 1.378l-8.01 32.14h-10.804l7.87-31.563c.107-.436.523-2.105-2.201-2.105-1.01 0-2.642.872-3.154 1.308l-8.07 32.36h-10.904z"/><path d="m195.95 131.57c-10.297 0-13.158-3.919-11.169-11.9l4.488-17.994c1.538-6.166 7.171-11.753 16.864-11.753 12.314 0 12.03 8.418 11.528 10.448l-3.156 12.262h-17.567l-2.118 8.49c-.506 2.03-.015 3.699 2.309 3.699 2.322 0 4.133-1.595 4.622-3.555l1.014-4.063h10.398l-.994 3.991c-1.318 4.063-5.618 10.375-16.219 10.375m4.17-31.708l-1.503 6.02h6.968l1.5-6.02c.219-.87.743-2.974-2.488-2.974-2.422 0-4.078 1.378-4.477 2.974"/><path d="m213.88 130.85l10-40.12h10.398l-.994 3.991c4.33-3.191 7.436-4.716 13.714-4.788l-1.919 7.69c-1.358-.217-2.819-.436-4.232-.436-8.08 0-9.445 5.082-10.09 7.693l-6.475 25.975h-10.4"/><path d="m69.71 76.47l-34.428.011c-.322-2.972-.37-5.412-.134-7.942l34.553 7.241c0 .193-.011.414.009.69"/><path d="m251.13 131.57c-10.299 0-13.158-3.919-11.169-11.9l4.486-17.994c1.538-6.166 7.171-11.753 16.864-11.753 12.316 0 12.04 8.418 11.53 10.448l-3.159 12.262h-17.567l-2.116 8.49c-.508 2.03-.015 3.699 2.306 3.699s4.133-1.595 4.624-3.555l1.012-4.063h10.398l-.994 3.991c-1.314 4.063-5.616 10.375-16.215 10.375m4.168-31.708l-1.5 6.02h6.965l1.5-6.02c.219-.87.743-2.974-2.488-2.974-2.422 0-4.078 1.378-4.477 2.974"/><path d="m269.26 130.85l10-40.12h10.803l-.778 3.121c1.244-.944 4.611-3.919 9.458-3.919 7.975 0 6.411 6.676 5.452 10.52l-7.579 30.402h-10.904l7.09-28.442c.832-3.338 1.231-4.935-1.192-4.935-1.211 0-2.504.725-3.557 1.305l-7.995 32.07h-10.801z"/></svg>
