<svg xmlns="http://www.w3.org/2000/svg" viewBox="0 0 340 160" enable-background="new 0 0 340 160"><path d="m296.58 93.29c.524 0 .824-.15.824-.708 0-.55-.292-.677-.841-.677h-1.168v1.385h1.185m-.12.476h-1.065v1.467h-.507v-3.812h1.7c.962 0 1.339.397 1.339 1.151 0 .615-.266 1.039-.927 1.161l.867 1.503h-.55l-.857-1.47m-.215-3.314c-1.597 0-2.892 1.293-2.894 2.89.003 1.596 1.298 2.888 2.894 2.888 1.589 0 2.885-1.297 2.885-2.889-.001-1.594-1.291-2.886-2.885-2.891m0 6.208c-1.832-.002-3.318-1.485-3.323-3.318 0-1.829 1.494-3.32 3.323-3.32s3.314 1.491 3.314 3.32c0 1.83-1.483 3.315-3.314 3.318m-261.41 11.153c20.386 0 21.254-9.136 21.254-22.02v-41.974h-4.808v41.975c0 9.711.383 17.504-16.446 17.504-.637 0-1.24-.026-1.829-.043v4.534c.591.017 1.2.026 1.829.026m198.68-41.39h35.771c-.481-10.481-1.151-19.425-16.443-19.425-14.708 0-18.752 7.982-19.328 19.425m-4.808 3.559c0-15.481 4.422-27.408 24.24-27.408 20.479 0 21.15 13.75 21.05 28.27h-40.58c.094 12.792 3.263 22.313 19.903 22.313 8.853 0 12.888-2.407 17.216-5.578l2.688 3.557c-4.808 3.557-10.475 6.347-19.903 6.347-20.771 0-24.617-12.02-24.617-27.504m-23.13 3.475c8.492 0 12.717-4.139 12.717-12.502 0-8.356-4.559-12.327-12.923-12.327h-19.74v24.829h19.946zm-24.652-29.539h24.583c12.184 0 17.714 6.06 17.714 16.829 0 10.842-5.452 17.432-17.783 17.432h-19.809v18.246h-4.705v-52.51m-13.523 0h4.697v52.5h-4.697v-52.5m-8.922 20.478v32.03h-4.903v-32.12c0-9.232.094-17.02-16.829-17.02-16.829 0-16.443 7.79-16.443 17.504v31.64h-4.808v-31.641c0-12.887.867-22.02 21.251-22.02 20.479 0 21.732 9.136 21.732 21.635m-94.11 11.446v-32.02h4.905v32.12c0 9.232-.094 17.02 16.829 17.02 16.829 0 16.445-7.79 16.445-17.504v-31.638h4.808v31.639c0 12.888-.867 22.02-21.254 22.02-20.484 0-21.732-9.136-21.732-21.638m237.8-33.07c-20.393 0-21.251 9.134-21.251 22.02v31.639h4.8v-31.642c0-9.714-.378-17.504 16.452-17.504 1.803 0 3.4.094 4.843.264v-4.579c-1.486-.129-3.092-.201-4.844-.2m-26.97 72.984l.781-1.172c1.743 1.094 3.443 1.467 5.186 1.467 2.997 0 4.328-.841 4.328-2.838 0-2.056-1.726-2.348-4.328-2.818-3.134-.548-5.246-1.077-5.246-4.01 0-2.802 1.803-3.896 5.246-3.896 2.275 0 3.898.507 5.05 1.292l-.824 1.252c-1.03-.684-2.576-1.135-4.225-1.135-2.602 0-3.718.725-3.718 2.447 0 1.84 1.511 2.19 4.096 2.66 3.168.567 5.452 1.037 5.452 4.149 0 2.876-1.837 4.265-5.787 4.265-2.19 0-4.173-.446-6.01-1.661m-8.225-6.223l-2.894 3.168v4.523h-1.511v-14.503h1.511v8l7.333-8h1.786l-5.203 5.693 5.907 8.81h-1.743l-5.186-7.691zm-12.562.358c2.052 0 3.323-.627 3.323-2.916 0-2.252-1.228-2.839-3.383-2.839h-4.714v5.753l4.774.002m-.429 1.409h-4.345v5.912h-1.511v-14.504h6.268c3.366 0 4.894 1.351 4.894 4.228 0 2.504-1.202 3.973-3.727 4.304l3.503 5.97h-1.64l-3.442-5.91m-10.536-1.337c0-3.915-1.82-6.03-5.779-6.03-3.933 0-5.727 2.112-5.727 6.03 0 3.934 1.795 6.05 5.727 6.05 3.959 0 5.779-2.115 5.779-6.05m-13.05-.017c0-5.167 2.636-7.475 7.273-7.475 4.662 0 7.324 2.308 7.324 7.475 0 5.186-2.662 7.496-7.324 7.496-4.637 0-7.273-2.31-7.273-7.496m-21.234-7.11h1.589l3.812 11.997 3.898-11.995h1.331l3.872 11.995 3.838-11.995h1.485l-4.662 14.599h-1.322l-3.915-12.07-3.898 12.07h-1.348l-4.68-14.601zm-8.87 1.468h-5.444v-1.468h12.433v1.468h-5.444v13.04h-1.546v-13.04m-17.352-1.468h9.591v1.47h-8.05v4.791h7.848v1.451h-7.848v5.381h8.123v1.408h-9.668v-14.501m-15.55 0h1.683l8.672 11.958v-11.958h1.485v14.503h-1.408l-8.947-12.31v12.31h-1.485v-14.503"/></svg>
