<svg xmlns="http://www.w3.org/2000/svg" viewBox="0 0 174 60" enable-background="new 0 0 174 60"><g fill="currentColor"><path d="m74.18 46.688c1.49.974 3.575 1.731 5.851 1.731 3.01 0 4.442-1.352 4.442-3.219 0-5.139-11.11-1.812-11.11-9.114 0-2.894 2.411-5.193 6.501-5.193 2.519 0 4.605.622 6.284 1.433l-.895 1.894c-1.463-.73-3.278-1.271-5.309-1.271-2.627 0-4.171 1.352-4.171 3.11 0 5.166 11.08 1.731 11.08 9.142 0 2.975-2.221 5.274-6.826 5.274-2.79 0-5.363-.893-6.988-1.947l1.138-1.84"/><path d="m94.74 35.788c1.869 0 3.413.595 4.578 1.515l-1.192 1.542c-.786-.595-1.869-1.163-3.332-1.163-2.6 0-4.469 2.028-4.469 5.301 0 3.489 1.787 5.626 4.469 5.626 1.544 0 2.573-.541 3.521-1.352l1.3 1.379c-1.381 1.217-2.817 1.839-4.876 1.839-3.954 0-6.69-2.84-6.69-7.492.001-4.436 2.791-7.195 6.691-7.195"/><path d="m101.24 29.73h2.248v8.276c1.192-1.244 2.817-2.245 4.767-2.245 3.196 0 4.442 1.948 4.442 4.868v9.52h-2.221v-9.548c0-1.812-.732-3.03-2.709-3.03-1.706 0-3.142.838-4.28 2.218v10.36h-2.248v-20.42z"/><path d="m121.21 35.761c3.955 0 5.769 2.705 5.769 6.275 0 .352-.054.893-.108 1.19h-10.13c.054 3.435 1.598 5.409 4.632 5.409 1.517 0 2.979-.568 4.117-1.325l1 1.514c-1.436 1.028-3.304 1.677-5.228 1.677-4.28 0-6.771-2.84-6.771-7.519 0-4.408 2.871-7.221 6.717-7.221m-4.388 5.95h7.991c.027-2.326-.948-4.219-3.548-4.219-2.276 0-4.01 1.596-4.443 4.219"/><path d="m128.2 42.902c0-4.517 2.275-7.113 5.715-7.113 1.815 0 3.304.92 4.469 2.137v-8.196h2.248v20.42h-1.95l-.217-1.866c-1.192 1.298-2.654 2.191-4.577 2.191-3.521 0-5.688-2.759-5.688-7.573m10.184 3.705v-6.924c-1.138-1.271-2.411-2.083-3.981-2.083-2.492 0-3.955 1.948-3.955 5.328 0 3.543 1.381 5.734 3.955 5.734 1.543 0 2.816-.73 3.981-2.055"/><path d="m143.18 36.11h2.248v9.548c0 1.812.65 3.03 2.682 3.03 1.734 0 3.169-.838 4.334-2.245v-10.332h2.248v14.04h-2.032l-.189-1.893c-1.192 1.217-2.844 2.218-4.821 2.218-3.196 0-4.469-1.947-4.469-4.868v-9.494"/><path d="m157.31 29.73h2.248v20.42h-2.248v-20.42"/><path d="m168.23 35.761c3.955 0 5.769 2.705 5.769 6.275 0 .352-.054.893-.108 1.19h-10.13c.054 3.435 1.598 5.409 4.632 5.409 1.517 0 2.979-.568 4.117-1.325l1 1.514c-1.436 1.028-3.304 1.677-5.228 1.677-4.28 0-6.771-2.84-6.771-7.519 0-4.408 2.871-7.221 6.717-7.221m-4.388 5.95h7.991c.027-2.326-.948-4.219-3.548-4.219-2.276 0-4.01 1.596-4.443 4.219"/><path d="m0 0v60h60v-60h-60m14.552 47.24c1.124 0 2.081-.082 2.767-.263v-4.989h-3.628v-2.812h6.877v10.02c-1.215.414-3.075.904-6.04.904-6.091 0-10.168-3.93-10.168-10.05 0-5.935 4.327-9.884 10.195-9.884 2.786 0 4.03.412 5.788 1.019l-.264 3.323c-1.621-1.056-3-1.478-5.39-1.478-4.195 0-6.996 3.03-6.976 7.1.02 4.381 3.069 7.104 6.842 7.104m16.07-9.38c2.8 1.395 5.667 2.54 5.667 6.397 0 4.21-3.311 5.968-7.132 5.846-1.356-.043-2.677-.385-4.115-.855l.326-3.03c1.218.5 2.796 1.043 4.117 1.022 1.726-.027 3.451-.827 3.451-2.821 0-1.536-1.232-2.292-2.424-2.895-2.635-1.333-5.666-2.261-5.666-5.988 0-3.524 2.808-5.361 6.289-5.361 1.265 0 2.776.219 4.292.754l-.455 2.984c-1.651-.646-2.372-.875-3.729-.875-1.501 0-3.044.526-3.044 2.255 0 1.352 1.389 2.053 2.423 2.568m14.1 4.447l-1.696 3.869 4.074-2.132 2.346 1.803-8.02 3.919h-3.304l4.307-9.607 2.296 2.148m-2.243-2.268l4.628-10.288 4.627 10.288h-3.224l-1.403-3.42-1.405 3.42h-3.223m10.229 9.726l-3.219-7.459 2.296-2.148 4.306 9.607h-3.383"/><path d="m64.67 2.452c.398-.03.67-.302.67-.682 0-.219-.16-.45-.368-.539-.166-.065-.279-.077-.641-.077h-.807v2.347h.38v-.996h.226c.291 0 .398.101.7.628l.208.368h.463l-.285-.457c-.237-.379-.368-.521-.546-.592m-.302-.273h-.463v-.705h.433c.44 0 .6.089.6.35 0 .249-.179.355-.57.355"/><path d="m64.48.111c-1.211 0-2.19.978-2.19 2.181 0 1.209.979 2.187 2.19 2.187 1.205 0 2.184-.978 2.184-2.187 0-1.203-.979-2.181-2.184-2.181m0 4.01c-1.01 0-1.828-.818-1.828-1.826 0-1 .82-1.82 1.828-1.82 1 0 1.822.818 1.822 1.82 0 1.01-.819 1.826-1.822 1.826"/></g></svg>