<?xml version="1.0" encoding="UTF-8" standalone="no"?>
<!-- Created with Inkscape (http://www.inkscape.org/) -->

<svg
   xmlns:dc="http://purl.org/dc/elements/1.1/"
   xmlns:cc="http://creativecommons.org/ns#"
   xmlns:rdf="http://www.w3.org/1999/02/22-rdf-syntax-ns#"
   xmlns:svg="http://www.w3.org/2000/svg"
   xmlns="http://www.w3.org/2000/svg"
   xmlns:sodipodi="http://sodipodi.sourceforge.net/DTD/sodipodi-0.dtd"
   xmlns:inkscape="http://www.inkscape.org/namespaces/inkscape"
   version="1.1"
   id="svg2"
   width="499.84"
   height="161.28"
   viewBox="0 0 499.84 161.28"
   sodipodi:docname="logo_opencores.svg"
   inkscape:version="0.92.5 (2060ec1f9f, 2020-04-08)">
  <metadata
     id="metadata8">
    <rdf:RDF>
      <cc:Work
         rdf:about="">
        <dc:format>image/svg+xml</dc:format>
        <dc:type
           rdf:resource="http://purl.org/dc/dcmitype/StillImage" />
        <dc:title></dc:title>
      </cc:Work>
    </rdf:RDF>
  </metadata>
  <defs
     id="defs6" />
  <sodipodi:namedview
     pagecolor="#ffffff"
     bordercolor="#666666"
     borderopacity="1"
     objecttolerance="10"
     gridtolerance="10"
     guidetolerance="10"
     inkscape:pageopacity="0"
     inkscape:pageshadow="2"
     inkscape:window-width="1608"
     inkscape:window-height="986"
     id="namedview4"
     showgrid="false"
     inkscape:zoom="1.6805378"
     inkscape:cx="199.35743"
     inkscape:cy="1.2816506"
     inkscape:window-x="72"
     inkscape:window-y="27"
     inkscape:window-maximized="1"
     inkscape:current-layer="svg2" />
  <g
     id="g4721">
    <path
       id="path4670"
       d="M 431.73438 111.13867 C 429.21156 111.33423 427.83984 113.13683 427.83984 116.32031 C 427.83984 119.7849 429.44911 121.47849 432.49023 121.21289 C 433.36425 121.13656 434.33263 120.96032 434.64062 120.82227 C 435.44929 120.45983 435.37243 121.42834 434.52539 122.27539 C 433.94504 122.85572 433.57402 122.93006 431.88477 122.80273 C 430.80403 122.72127 429.66737 122.54476 429.35938 122.41211 C 428.87278 122.20258 428.80078 122.36173 428.80078 123.625 C 428.80078 125.02179 428.84074 125.08491 429.83984 125.22656 C 431.90202 125.51891 435.35176 125.22733 436.42578 124.66992 C 438.13035 123.78522 438.40039 122.68526 438.40039 116.63281 L 438.40039 111.32617 L 436.56055 111.32617 C 435.54855 111.32627 433.89389 111.2493 432.88477 111.1543 C 432.47801 111.116 432.09478 111.11074 431.73438 111.13867 z M 433.71289 113.41602 C 433.96054 113.4009 434.20266 113.41959 434.42188 113.47461 C 435.15656 113.659 435.19922 113.79815 435.19922 116 C 435.19922 117.83044 435.09084 118.37287 434.69336 118.52539 C 433.99743 118.79242 432.55968 118.76129 432.09961 118.46875 C 431.08752 117.82521 430.9089 115.40244 431.79102 114.28711 C 432.17624 113.80002 432.96993 113.46136 433.71289 113.41602 z "
       style="fill:#000000;stroke-width:0.31999999" />
    <path
       id="path4666"
       d="M 306.97656 111.03906 C 306.03678 111.03906 305.11692 111.25331 304.65039 111.58008 C 304.10348 111.96315 303.84381 112.00982 303.75391 111.74023 C 303.67686 111.50909 302.9465 111.35938 301.89258 111.35938 L 300.16016 111.35938 L 300.16016 118.24023 L 300.16016 125.11914 L 301.91992 125.11914 L 303.67969 125.11914 L 303.67969 123.26562 L 303.67969 121.41016 L 305.74023 121.54102 C 307.49465 121.65273 307.95007 121.56417 308.81641 120.94727 C 311.42457 119.09011 311.75528 114.267 309.43359 111.94531 C 308.6886 111.20031 308.25502 111.03906 306.97656 111.03906 z M 305.60742 113.59961 C 307.52862 113.59961 308.30084 117.00776 306.73438 118.57422 C 306.19582 119.11278 305.59237 119.35938 304.81445 119.35938 L 303.67969 119.35938 L 303.67969 116.67383 C 303.67969 113.76019 303.78011 113.59961 305.60742 113.59961 z "
       style="fill:#000000;stroke-width:0.31999999" />
    <path
       id="path4662"
       d="M 292.53906 111.07812 C 292.22403 111.06809 291.89216 111.07391 291.54102 111.09375 C 288.00144 111.29375 286.39739 112.99351 286.40039 116.54883 C 286.40216 119.05379 287.65116 120.92064 289.75977 121.56836 C 292.98511 122.55911 296.42615 121.12595 297.22461 118.46094 C 297.77355 116.62872 297.68692 115.26176 296.92578 113.68945 C 296.08953 111.96198 294.74426 111.14839 292.53906 111.07812 z M 291.97656 113.2793 C 293.72815 113.2793 294.82786 116.86974 293.60938 118.60938 C 292.42379 120.30205 290.07943 119.4603 289.90234 117.2793 C 289.68997 114.66368 290.40711 113.2793 291.97656 113.2793 z "
       style="fill:#000000;stroke-width:0.31999999" />
    <path
       id="path4658"
       d="M 319.32227 111.07812 C 318.92491 111.06206 318.49782 111.07243 318.04102 111.10547 C 315.02493 111.32364 313.27412 113.01475 313.03125 115.94336 C 312.78762 118.88127 314.20083 120.88619 317.00586 121.58203 C 318.34087 121.91321 321.50916 121.7413 322.75 121.26953 C 323.38747 121.02717 323.51953 120.75353 323.51953 119.6875 C 323.51953 118.97914 323.46494 118.40039 323.39844 118.40039 C 323.33195 118.40039 322.76075 118.61686 322.12891 118.88086 C 319.63513 119.92283 316.50457 119.16724 316.48438 117.51953 C 316.48073 117.22216 317.43598 117.11914 320.20508 117.11914 L 323.92969 117.11914 L 323.74805 115.36133 C 323.45539 112.52596 322.10375 111.19061 319.32227 111.07812 z M 318.40039 112.96094 C 318.6427 112.96094 318.88392 113.07056 319.2793 113.29102 C 319.7633 113.56091 320.20552 114.10012 320.26172 114.49023 C 320.35779 115.15674 320.24631 115.19922 318.40039 115.19922 C 316.55443 115.19922 316.44101 115.15672 316.53711 114.49023 C 316.59335 114.10012 317.03553 113.56091 317.51953 113.29102 C 317.91491 113.07056 318.15808 112.96094 318.40039 112.96094 z "
       style="fill:#000000;stroke-width:0.31999999" />
    <path
       id="path4654"
       d="m 343.448,121.6093 c -2.59766,-0.61718 -3.9256,-2.40644 -3.9256,-5.2893 0,-2.43133 0.78141,-3.80597 2.64422,-4.65158 1.4777,-0.6708 4.45418,-0.83279 5.81255,-0.31634 0.71417,0.27153 0.82083,0.5002 0.82083,1.76 0,0.79636 -0.0416,1.44792 -0.0924,1.44792 -0.0508,0 -0.65722,-0.288 -1.34765,-0.64 -1.58154,-0.80631 -2.42051,-0.80768 -3.44019,-0.006 -1.43287,1.1271 -1.37466,4.34701 0.0928,5.13237 0.94339,0.50488 2.62739,0.35962 3.74739,-0.32325 l 1.04,-0.6341 v 1.55731 1.55731 l -1.4217,0.35799 c -1.58323,0.39866 -2.40953,0.4086 -3.9303,0.0473 z"
       style="fill:#000000;stroke-width:0.31999999" />
    <path
       id="path4652"
       d="M 355.67383 111.06445 C 354.71372 111.08183 354.12347 111.25027 353.30469 111.66797 C 351.49848 112.58945 350.58488 114.53342 350.79102 117.01953 C 350.96507 119.1183 351.71002 120.22431 353.61914 121.22266 C 354.78832 121.83406 355.37574 121.93801 356.92969 121.80859 C 360.004 121.55254 361.63384 119.91188 361.85547 116.84766 C 362.11739 113.22675 360.41623 111.29925 356.7793 111.09375 C 356.35463 111.06975 355.99386 111.05866 355.67383 111.06445 z M 356.22461 113.23242 C 356.71903 113.20088 357.25333 113.41349 357.75977 113.91992 C 358.62582 114.78597 358.67978 118.05988 357.83984 118.78125 C 356.00333 120.35853 354.24023 119.23197 354.24023 116.48047 C 354.24023 114.55602 355.13689 113.30182 356.22461 113.23242 z "
       style="fill:#000000;stroke-width:0.31999999" />
    <path
       id="path4648"
       d="M 380.24414 111.06445 C 379.91396 111.05924 379.52301 111.07205 379.03906 111.0957 C 375.33746 111.27662 373.69531 112.95617 373.69531 116.56641 C 373.69531 117.95272 373.86567 118.70755 374.30859 119.30078 C 375.22564 120.52907 376.45507 121.34528 377.81836 121.62695 L 377.82031 121.62695 C 379.19612 121.91119 382.38624 121.71229 383.55078 121.26953 C 384.18825 121.02717 384.32031 120.75353 384.32031 119.6875 C 384.32031 118.28008 384.02796 118.13355 382.7207 118.88086 C 382.2807 119.13239 381.15856 119.34361 380.22656 119.34961 C 378.84515 119.35885 378.38644 119.21455 377.74609 118.57422 C 377.31409 118.14222 376.96094 117.63908 376.96094 117.45508 C 376.96094 117.24175 378.29397 117.11914 380.64062 117.11914 L 384.32031 117.11914 L 384.31445 115.59961 C 384.30853 113.69604 383.81619 112.70696 382.39453 111.74219 C 381.67208 111.25217 381.23468 111.08009 380.24414 111.06445 z M 379.33984 112.96094 C 379.97724 112.96094 381.11914 114.09081 381.11914 114.7207 C 381.11914 115.09814 380.67461 115.19922 379.03906 115.19922 C 376.9789 115.19922 376.59656 114.96019 377.20508 114.04883 C 377.52293 113.5728 378.72387 112.96094 379.33984 112.96094 z "
       style="fill:#000000;stroke-width:0.31999999" />
    <path
       id="path4644"
       d="m 389.28,121.78029 c -0.176,-0.0703 -0.86,-0.2182 -1.52,-0.32858 -1.18195,-0.19769 -1.2,-0.22265 -1.2,-1.66045 0,-1.26735 0.0738,-1.42844 0.56,-1.22228 2.83565,1.20239 4.08227,1.37089 5.02771,0.67956 0.79811,-0.58357 0.39683,-1.10234 -1.03894,-1.34309 -3.31799,-0.55638 -4.54877,-1.45864 -4.54877,-3.33459 0,-2.34191 1.79603,-3.55281 5.18973,-3.49896 3.20105,0.0508 3.59347,0.24346 3.70867,1.82085 0.0541,0.74099 0.0357,1.34725 -0.0409,1.34725 -0.0766,0 -0.65629,-0.216 -1.28813,-0.48 -1.43443,-0.59935 -3.5335,-0.62156 -4.01411,-0.0425 -0.52582,0.6336 0.1881,1.11759 2.01866,1.3685 1.824,0.25 3.39635,1.25055 3.77817,2.40418 0.39639,1.19757 -0.4112,2.97776 -1.63881,3.61259 -0.93635,0.4842 -4.32602,0.94411 -4.99325,0.67748 z"
       style="fill:#000000;stroke-width:0.31999999" />
    <path
       id="path4642"
       d="M 410.62891 111.04102 C 407.5482 111.04011 405.7261 112.33375 405.14258 114.9375 C 404.78578 116.52964 404.94983 118.03755 405.625 119.38281 C 406.16007 120.44898 406.75831 120.93154 408.23633 121.48242 C 409.67774 122.01966 412.3292 121.85974 413.69336 121.1543 C 415.25397 120.34727 416 118.81314 416 116.41016 C 416 112.92272 414.11816 111.04198 410.62891 111.04102 z M 410.70703 113.28125 C 411.61063 113.4129 412.44738 114.28809 412.64844 115.62891 C 412.86172 117.05101 412.18982 119.35938 411.5625 119.35938 C 411.3919 119.35937 411.06057 119.423 410.82617 119.5 C 410.07077 119.74813 408.96006 119.08102 408.60742 118.16797 C 408.14758 116.97738 408.42917 114.68162 409.13086 113.90625 C 409.59839 113.38963 410.16487 113.20226 410.70703 113.28125 z "
       style="fill:#000000;stroke-width:0.31999999" />
    <path
       id="path4638"
       d="m 225.92,121.48093 c 0,-0.0831 -0.648,-2.2381 -1.44,-4.78898 -0.792,-2.55088 -1.44,-4.79412 -1.44,-4.98496 0,-0.20567 0.69062,-0.34699 1.69564,-0.34699 h 1.69564 l 0.73025,3.23811 c 0.40164,1.78095 0.84332,3.11295 0.9815,2.96 0.13819,-0.15296 0.65323,-1.61011 1.14455,-3.23811 l 0.8933,-2.96 h 1.52685 1.52686 l 0.52439,1.84 c 1.10053,3.86159 1.22804,4.24 1.42869,4.24 0.1135,0 0.53615,-1.368 0.93924,-3.04 l 0.73287,-3.04 h 1.73011 c 0.95156,0 1.72759,0.036 1.7245,0.08 -0.003,0.044 -0.69422,2.312 -1.53587,5.04 l -1.53026,4.96 -1.80598,0.0954 -1.80599,0.0954 -0.67779,-2.33542 c -1.48466,-5.11561 -1.23551,-4.98973 -2.37248,-1.19862 l -1.00264,3.34319 -1.83169,0.096 c -1.00743,0.0528 -1.83169,0.028 -1.83169,-0.055 z"
       style="fill:#000000;stroke-width:0.31999999" />
    <path
       id="path4636"
       d="m 243.21496,117.04 c -0.76184,-2.508 -1.45367,-4.812 -1.53739,-5.12 -0.13154,-0.48395 0.087,-0.56 1.6093,-0.56 h 1.76151 l 0.71767,2.96 c 0.39472,1.628 0.80683,3.06061 0.91581,3.18358 0.10898,0.12297 0.63014,-1.21415 1.15814,-2.97139 l 0.96,-3.19497 1.55939,0.0914 1.55939,0.0914 0.87912,2.97184 c 0.48351,1.63451 0.95567,3.0484 1.04924,3.14197 0.0936,0.0936 0.50535,-1.27976 0.91506,-3.05184 l 0.74492,-3.22197 h 1.72376 c 1.48565,0 1.70299,0.0773 1.57333,0.56 -0.0827,0.308 -0.78119,2.612 -1.5521,5.12 l -1.40167,4.56 h -1.79902 -1.79902 l -0.92412,-3.2 c -0.50827,-1.76 -0.998,-3.2 -1.08828,-3.2 -0.0903,0 -0.58001,1.44 -1.08828,3.2 l -0.92412,3.2 h -1.81373 -1.81373 z"
       style="fill:#000000;stroke-width:0.31999999" />
    <path
       id="path4634"
       d="m 263.25631,121.36 c -0.0778,-0.132 -0.75312,-2.256 -1.50071,-4.72 -0.74759,-2.464 -1.42783,-4.66 -1.51166,-4.88 -0.11058,-0.2902 0.33417,-0.4 1.62026,-0.4 1.92502,0 1.78227,-0.14528 2.43675,2.48 0.18648,0.748 0.50501,1.972 0.70786,2.72 l 0.36881,1.36 1.04465,-3.2 1.04464,-3.2 1.54655,-0.0917 1.54654,-0.0917 0.9209,3.22417 c 0.5065,1.7733 0.98451,3.16057 1.06226,3.08282 0.0778,-0.0778 0.35638,-0.98334 0.61917,-2.01243 1.22101,-4.78154 0.88444,-4.27107 2.81596,-4.27107 h 1.71362 l -1.24627,3.92 c -0.68545,2.156 -1.39756,4.46696 -1.58246,5.13548 l -0.33618,1.21547 -1.81519,-0.0955 -1.81519,-0.0955 -1.00461,-3.34975 c -0.66943,-2.23216 -1.06613,-3.13965 -1.189,-2.72 -0.10141,0.34636 -0.56179,1.88975 -1.02306,3.42975 l -0.83868,2.8 h -1.72175 c -0.94696,0 -1.78541,-0.108 -1.86321,-0.24 z"
       style="fill:#000000;stroke-width:0.31999999" />
    <path
       id="path4632"
       d="m 280,119.84 v -1.76 h 1.76 1.76 v 1.76 1.76 H 281.76 280 Z"
       style="fill:#000000;stroke-width:0.31999999" />
    <path
       id="path4630"
       d="m 326.4,116.48 v -5.12 h 1.6 c 1.24557,0 1.6,0.11211 1.6,0.5061 0,0.42979 0.1625,0.40567 1.07776,-0.16 0.69238,-0.42791 1.61661,-0.6661 2.58464,-0.6661 1.23878,0 1.67322,0.16639 2.44221,0.93539 l 0.93539,0.93538 v 4.34462 4.34461 h -1.6 -1.6 v -3.49714 c 0,-2.75256 -0.10707,-3.60421 -0.50285,-4 -0.59728,-0.59727 -1.40717,-0.63949 -2.52208,-0.13149 -0.80368,0.36617 -0.81507,0.42211 -0.81507,4 V 121.6 h -1.6 -1.6 z"
       style="fill:#000000;stroke-width:0.31999999" />
    <path
       id="path4628"
       d="m 364.8,116.48 v -5.12 h 1.6 c 1.38272,0 1.6,0.0863 1.6,0.6353 0,0.63348 0.003,0.63348 1.04,0.001 0.572,-0.34876 1.508,-0.63464 2.08,-0.6353 1.03414,-0.001 1.04,0.008 1.04,1.5908 v 1.592 l -0.94867,-0.18973 c -0.52179,-0.10436 -1.45779,-0.0942 -2.08,0.0225 L 368,114.58908 v 3.5055 3.5055 h -1.6 -1.6 v -5.12 z"
       style="fill:#000000;stroke-width:0.31999999" />
    <path
       id="path4626"
       d="m 398.72,119.84 v -1.76 h 1.76 1.76 v 1.76 1.76 h -1.76 -1.76 z"
       style="fill:#000000;stroke-width:0.31999999" />
    <path
       id="path4624"
       d="m 418.88,116.48 v -5.12 h 1.6 c 1.38272,0 1.6,0.0863 1.6,0.6353 0,0.63348 0.003,0.63348 1.04,0.001 0.572,-0.34876 1.508,-0.63464 2.08,-0.6353 1.03213,-0.001 1.04,0.0107 1.04,1.56835 v 1.56955 l -1.2,-0.15676 c -0.66,-0.0862 -1.596,-0.004 -2.08,0.18253 l -0.88,0.33929 v 3.36792 3.36792 h -1.6 -1.6 v -5.12 z"
       style="fill:#000000;stroke-width:0.31999999" />
  </g>
  <g
     id="g4702">
    <path
       id="path4620"
       d="M 234.81836 45.792969 C 231.70891 45.831391 229.90907 46.467607 226.99023 48.373047 L 224.64062 49.90625 L 224.64062 48.154297 L 224.64062 46.400391 L 219.19922 46.400391 L 213.75977 46.400391 L 213.75977 69.439453 L 213.75977 92.480469 L 219.19922 92.480469 L 224.64062 92.480469 L 224.64062 85.566406 C 224.64062 79.103664 224.67579 78.66713 225.19922 78.890625 C 232.9199 82.187153 238.947 81.416536 243.86914 76.503906 C 247.70945 72.671023 249.14468 68.331456 248.85547 61.439453 C 248.61326 55.667709 247.26305 51.900341 244.37695 48.953125 C 242.21775 46.748206 240.12779 45.942964 236.23828 45.8125 C 235.73356 45.79557 235.26257 45.78748 234.81836 45.792969 z M 231.30078 53.835938 C 232.9567 53.920985 234.4234 54.451979 235.41602 55.414062 C 237.11915 57.064805 237.59961 58.777558 237.59961 63.199219 C 237.59961 66.689446 237.52257 67.205192 236.74805 68.857422 C 235.72754 71.034411 233.97287 72.438998 231.64844 72.9375 C 230.12266 73.264722 228.04449 73.353452 227.35938 73.121094 C 227.18338 73.061401 226.49684 72.921471 225.83398 72.810547 L 224.62891 72.609375 L 224.71484 64.066406 L 224.80078 55.525391 L 226.05469 54.933594 C 227.79977 54.11212 229.64486 53.75089 231.30078 53.835938 z "
       style="fill:#000000;stroke-width:0.31999999" />
    <path
       id="path4616"
       d="M 269.59961 45.447266 C 258.02561 45.433074 250.90945 51.586506 250.32227 62.117188 C 249.81863 71.149606 253.80846 77.27437 261.89453 79.880859 C 263.91668 80.532683 265.42152 80.756996 268.80078 80.916016 C 271.17678 81.027827 274.19953 81.012821 275.51953 80.880859 C 277.69427 80.663445 281.98586 79.615054 284.24023 78.751953 L 285.12109 78.416016 L 285.12109 74.087891 C 285.12109 69.95911 285.09123 69.759766 284.47461 69.759766 C 284.11911 69.759766 283.29127 70.097584 282.63477 70.509766 C 280.92692 71.582041 277.41792 72.925987 275.27734 73.328125 C 274.26712 73.517896 272.28283 73.593054 270.86719 73.496094 C 265.99914 73.162692 262.74796 71.220963 261.64648 67.988281 C 260.63388 65.016463 259.48643 65.279297 273.43945 65.279297 L 285.75977 65.279297 L 285.75586 61.839844 C 285.7503 57.792778 285.17097 55.026078 283.78711 52.429688 C 281.37323 47.900799 276.4063 45.455666 269.59961 45.447266 z M 268.63477 52.195312 C 270.31022 52.20538 271.9355 52.679541 273.02734 53.650391 C 273.93035 54.453329 274.86405 56.574202 274.87305 57.839844 L 274.88086 58.880859 L 268 58.880859 C 262.70838 58.880859 261.12009 58.78812 261.12109 58.480469 C 261.1263 57.312485 261.9342 55.48944 262.9375 54.378906 C 264.24215 52.934813 266.48061 52.182368 268.63477 52.195312 z "
       style="fill:#000000;stroke-width:0.31999999" />
    <path
       id="path4612"
       d="M 384.85352 45.5 C 375.72364 45.59188 369.58719 49.939767 367.53906 57.84375 C 366.8666 60.439356 366.8506 66.420944 367.50977 68.90625 C 369.1698 75.165319 373.77427 79.539445 380.00195 80.775391 C 385.00131 81.767573 391.07507 81.168485 394.87891 79.306641 C 398.79814 77.388305 401.83961 73.515543 403.03711 68.917969 C 403.67676 66.462196 403.67676 60.258507 403.03711 57.802734 C 401.95123 53.633739 399.70576 50.429508 396.3457 48.257812 C 393.66554 46.52552 390.916 45.748073 386.7207 45.537109 C 386.08576 45.505181 385.46217 45.493875 384.85352 45.5 z M 385.14844 53.052734 C 388.67317 53.01652 390.82362 54.713605 391.83984 58.332031 C 392.56386 60.910015 392.59165 66.105113 391.89258 68.509766 C 391.2833 70.605648 389.5131 72.790735 388.07422 73.226562 C 386.75873 73.62502 385.21416 73.871557 384.80078 73.748047 C 384.62478 73.695458 383.93224 73.559624 383.26172 73.447266 C 382.51586 73.322274 381.55351 72.801402 380.7832 72.105469 C 379.01642 70.509267 378.21017 67.817556 378.20117 63.478516 C 378.1868 56.383844 380.37298 53.101794 385.14844 53.052734 z "
       style="fill:#000000;stroke-width:0.31999999" />
    <path
       id="path4608"
       d="M 186.56055 34.8125 C 179.18773 34.833038 174.21501 36.634604 170.05859 40.791016 C 167.28932 43.560287 165.10324 47.6762 164.32812 51.585938 C 163.68647 54.822555 163.6954 61.084431 164.3457 64.253906 C 165.01025 67.492793 166.85085 71.36311 168.88672 73.804688 C 171.65545 77.125171 176.03696 79.630212 180.82227 80.628906 C 181.60218 80.791676 184.61553 80.881595 187.51953 80.828125 C 191.91701 80.747161 193.17346 80.61208 195.03906 80.017578 C 200.59267 78.24783 204.69353 74.766002 207.15234 69.730469 C 208.99689 65.952901 209.59961 63.012157 209.59961 57.794922 C 209.59961 49.906371 207.47008 44.394235 202.77344 40.134766 C 198.71948 36.458142 193.64567 34.79276 186.56055 34.8125 z M 186.78125 43.203125 C 189.37029 43.204628 191.96631 44.126465 193.875 46.035156 C 196.39714 48.557294 197.75977 52.727061 197.75977 57.919922 C 197.75977 64.729167 195.37015 69.668148 191.08594 71.710938 C 189.09312 72.661153 185.39635 72.843529 183.24219 72.099609 C 181.13167 71.370758 178.48565 68.899865 177.43164 66.671875 C 174.80569 61.121065 175.19727 52.467338 178.29492 47.605469 C 180.13438 44.718364 183.45248 43.201193 186.78125 43.203125 z "
       style="fill:#000000;stroke-width:0.31999999" />
    <path
       id="path4604"
       d="M 343.52,80.485734 C 335.38301,78.69143 330.00707,73.502314 327.76672,65.28 c -0.80147,-2.941568 -0.78694,-11.761379 0.0243,-14.679171 3.12307,-11.234157 12.5904,-17.049155 25.60259,-15.725555 3.96893,0.403718 6.24288,0.952604 9.56647,2.30912 l 2.48,1.012211 v 5.541699 c 0,6.49544 0.0915,6.380451 -3.16087,3.973184 -4.47616,-3.313094 -7.32918,-4.335552 -11.52768,-4.131229 -4.61939,0.2248 -7.89405,2.208119 -9.91913,6.007533 -3.29722,6.186214 -2.19232,15.678998 2.29699,19.734826 2.03981,1.842838 4.35907,2.737686 7.57005,2.920768 4.2742,0.243702 7.48992,-0.879588 11.65334,-4.070692 1.15725,-0.886982 2.32531,-1.612694 2.59568,-1.612694 0.42272,0 0.49162,0.756403 0.49162,5.397155 v 5.397159 l -2.32,1.039587 c -4.22304,1.892336 -7.68845,2.569545 -13.00103,2.540659 -2.59763,-0.01411 -5.53305,-0.213773 -6.59897,-0.448826 z"
       style="fill:#000000;stroke-width:0.31999999" />
    <path
       id="path4602"
       d="M 450.70117 45.515625 C 450.23696 45.518134 449.76293 45.531199 449.2793 45.554688 C 447.2553 45.652985 444.88 45.933021 444 46.177734 C 437.99686 47.847104 433.39989 52.453364 431.96094 58.240234 C 431.32187 60.810375 431.40899 66.893524 432.11914 69.279297 C 433.88563 75.214017 438.18131 78.84108 445.43945 80.521484 C 446.62335 80.795582 449.13687 80.896391 453.11914 80.832031 C 459.101 80.735347 461.00644 80.412241 465.35938 78.751953 L 466.24023 78.416016 L 466.24023 74.087891 C 466.24023 69.958003 466.211 69.759766 465.59375 69.759766 C 465.23798 69.759766 464.40308 70.117988 463.74023 70.556641 C 463.07738 70.995294 461.3175 71.815365 459.82812 72.376953 C 457.34204 73.314357 456.80464 73.398903 453.2793 73.408203 C 450.03671 73.416731 449.15945 73.305981 447.64062 72.701172 C 444.74435 71.54785 442.93084 69.399007 442.39062 66.480469 L 442.16797 65.279297 L 454.52344 65.279297 L 466.88086 65.279297 L 466.88086 61.667969 C 466.88086 57.534241 466.37883 55.192303 464.9043 52.425781 C 462.438 47.798531 457.66428 45.477989 450.70117 45.515625 z M 449.86719 52.21875 C 451.51719 52.257036 453.10746 52.726506 454.14648 53.650391 C 455.04949 54.453329 455.98319 56.574202 455.99219 57.839844 L 456 58.880859 L 449.11914 58.880859 C 443.49668 58.880859 442.24023 58.798838 442.24023 58.439453 C 442.24023 57.399376 443.30452 55.121756 444.24414 54.152344 C 445.52421 52.831641 447.74576 52.169526 449.86719 52.21875 z "
       style="fill:#000000;stroke-width:0.31999999" />
    <path
       id="path4598"
       d="m 474.32515,80.293952 c -1.62518,-0.341331 -3.64118,-0.889997 -4.48,-1.219254 L 468.32,78.476048 468.2312,73.958022 C 468.1583,70.247034 468.2232,69.44 468.59245,69.44 c 0.24752,0 1.28678,0.503878 2.3095,1.119728 3.90359,2.350618 8.23904,3.49247 12.45981,3.28161 3.2399,-0.161863 4.83994,-0.778557 5.14195,-1.981847 0.51789,-2.063433 -0.55513,-2.836201 -5.14371,-3.704403 -7.67715,-1.452589 -10.00502,-2.285293 -12.11363,-4.333133 -2.03658,-1.977913 -2.59463,-3.415817 -2.60087,-6.701955 -0.004,-2.22777 0.13735,-3.169882 0.62525,-4.16 1.54019,-3.125526 5.51747,-5.786774 10.08925,-6.750813 3.46342,-0.730329 11.66541,-0.457974 15.18726,0.504307 3.98119,1.08778 3.69274,0.648967 3.69274,5.617764 0,2.702025 -0.12112,4.308742 -0.32483,4.308742 -0.17869,0 -1.09165,-0.432739 -2.0288,-0.961645 -4.34227,-2.450617 -10.13539,-3.479302 -13.72208,-2.436627 -2.69818,0.784384 -3.54842,2.363232 -2.06922,3.842435 0.77152,0.771533 2.43946,1.237581 8.70493,2.432304 7.80413,1.488122 10.85501,4.32312 10.85139,10.083533 0,2.133546 -0.14089,2.828672 -0.83785,4.172848 -1.66586,3.212835 -5.43728,5.732022 -10.04157,6.707434 -3.26864,0.69246 -10.72029,0.596352 -14.44682,-0.18633 z"
       style="fill:#000000;stroke-width:0.31999999" />
    <path
       id="path4596"
       d="M 289.28,63.36 V 46.4 h 5.44 5.44 v 1.76 c 0,0.968 0.0675,1.76 0.15002,1.76 0.0825,0 1.17579,-0.663565 2.42951,-1.474589 C 306.02251,46.321658 307.85478,45.76 311.5,45.76 c 5.07462,0 8.43981,1.82513 10.24186,5.554717 1.2502,2.587465 1.45315,5.013965 1.45571,17.405283 l 0.003,11.6 h -5.44 -5.44 l -0.006,-9.36 c -0.009,-12.956301 -0.31611,-14.656163 -2.8964,-16.019933 -1.57823,-0.834137 -5.01328,-0.598432 -7.43476,0.51016 l -1.8225,0.834365 V 68.302298 80.32 h -5.44 -5.44 V 63.36 Z"
       style="fill:#000000;stroke-width:0.31999999" />
    <path
       id="path4594"
       d="M 407.36,63.36 V 46.4 h 5.44 5.44 v 2.41617 2.416166 l 2.04278,-1.457699 c 1.12352,-0.801731 2.67152,-1.735127 3.44,-2.074205 1.83712,-0.810608 5.44676,-1.422397 6.84487,-1.160112 l 1.11235,0.208682 v 5.121388 5.121389 l -2,-0.255888 c -2.96758,-0.379689 -6.73565,-0.219808 -9.23085,0.391671 L 418.24,57.668941 V 68.99447 80.32 h -5.44 -5.44 z"
       style="fill:#000000;stroke-width:0.31999999" />
  </g>
  <g
     id="g4691"
     style="fill:#103466;fill-opacity:1">
    <path
       id="path4672"
       d="M -0.00101,80.798045 25.811175,54.991763 25.664772,59.308509 C 25.42435,66.39744 26.468238,71.282698 29.470756,77.12 34.518874,86.934227 43.675181,93.786502 54.480115,95.836163 55.886298,96.102912 58.790637,96.32 60.953155,96.32 h 3.922455 l 0.173561,5.04 c 0.213312,6.1944 1.01817,9.48786 3.577731,14.64 3.586679,7.21962 8.965111,12.61026 16.130186,16.16682 5.41457,2.68764 10.255709,3.662 17.162482,3.45421 l 4.67718,-0.14071 C 97.765411,143.87983 89.636258,153.06011 80.641005,161.28 52.140476,133.02423 30.556935,111.35671 -0.00101,80.798045 Z"
       style="fill:#103466;stroke-width:0.31999999;fill-opacity:1" />
    <path
       id="path4622"
       d="m 116.61924,116.78592 -4.13924,-4.13557 -1.42142,1.12779 c -5.08181,4.03204 -12.230631,4.80679 -18.25858,1.97877 -2.667069,-1.25126 -6.516221,-5.04431 -7.766112,-7.65293 -3.294486,-6.87582 -2.038816,-14.525257 3.253008,-19.817084 3.296794,-3.29679 7.516774,-5.077437 12.033104,-5.077437 3.76138,0 8.11758,1.517203 10.69803,3.725968 C 111.70207,87.520944 112.3842,88 112.53387,88 c 0.14967,0 3.12601,-2.85656 6.61409,-6.347907 l 6.34195,-6.347907 -1.70495,-1.533786 c -3.7847,-3.404726 -9.14019,-6.284314 -14.34496,-7.71313 -2.45105,-0.672864 -4.01641,-0.868166 -8.08,-1.008099 L 96.32,64.87561 V 60.953155 C 96.32,54.720013 95.187344,50.0516 92.34817,44.582672 87.171286,34.610749 77.265549,27.512844 66.285059,25.907284 64.72168,25.678687 61.851053,25.578541 59.321238,25.66434 l -4.304016,0.145972 C 63.620592,17.197795 74.018026,6.7662465 80.802099,0.00114551 107.68013,26.879813 134.55816,53.758476 161.43619,80.637139 147.44683,94.699313 132.3907,109.46687 120.75847,120.92149 Z"
       style="fill:#103466;stroke-width:0.31999999;fill-opacity:1" />
    <path
       id="path868"
       d="M 56.707034,77.601942 C 52.57255,76.44079 48.730765,73.654861 46.554947,70.24 44.297574,66.697142 43.357456,61.865325 44.126733,57.76 45.368941,51.130822 51.164675,45.332173 57.76,44.119872 c 4.126029,-0.758416 8.943066,0.181475 12.48,2.435075 2.172458,1.384208 5.041219,4.558554 6.053494,6.69833 2.641866,5.584445 2.280848,12.200643 -0.929939,17.042582 -2.102019,3.169888 -5.19775,5.618499 -8.669389,6.857175 -2.498073,0.891308 -7.59598,1.120454 -9.987132,0.448908 z"
       style="fill:#103466;stroke-width:0.31999999;fill-opacity:1" />
  </g>
</svg>
