<svg xmlns="http://www.w3.org/2000/svg" viewBox="0 0 340 160" enable-background="new 0 0 340 160"><path d="m179.46 111.88v-1.145h39.03l.023 1.193-39.05-.048m21.16 5.981c-6.49.658-13.183-1.98-19.708-5.242l35.38-.017c0 0-5.792 4.255-15.671 5.259m-15.68-10.624c2.924-.654 5.502-1.581 7.934-2.727h.193c-.95 2.592 3.134 3.119 3.096.679.837.093 2.516 0 2.516 0l-.162 4.89h-14.53c.001-.001.582-1.954.953-2.842m-15.16.853c-10.693-.017-21.411-2.748-27.602-7.739 1.337-2.598 2.814-5.056 4.355-7.449 5.987 3.36 13.587 6.386 23.12 6.289 8.939-.096 17.1-2.302 23.12-6 1.571 2.366 2.908 4.962 4.45 7.353-6.276 4.91-16.846 7.563-27.443 7.546m2.31 12l-1.839 2.432.004-13.324 1.835-.054v10.946zm-4.657-.064l.039-10.892 2.041.039.114 13.328-2.194-2.475m-11.792-9.935l-14.787.009-.029-5.276c0 0 2.204.228 3.277.039-.288 2.586 3.9 2.256 2.914-.255 2.567.882 4.811 2.09 7.739 2.611.36 1.027.886 2.872.886 2.872m2.405.61c.442 0 2.584.021 2.584.021l.026 1.195c0 0-1.027.041-2.03.041-13.674 0-37.23.06-37.23.06l.025-1.28c0 .001 23.849-.037 36.627-.037m-17.12 7.255c-6.911.038-12.681-2.544-16.855-5.311-.017-.083 22.438.056 33.498-.008-3.973 3.03-9.779 5.287-16.643 5.319m-10.158-22.05c1.755 1.503 3.857 2.656 6.481 3.29-1.271.826-2.527 1.664-4.352 1.934 1.921 2.783 7.357 3.578 7.357 3.578l.059 5.396c0 0-9.787-.009-14.721-.009 1.601-4.977 3.462-9.325 5.176-14.189m-4.741-5.999c6.329-.043 11.139 1.438 14.898 3.966-.367.558-1.042 1.137-.678 2.127-2.064-.774-3.783-1.891-5.998-2.513 1.945 1.312 5.03 2.324 6.965 3.964-1.056-.029-1.59.766-2.321.872-1.347.195-3.075-.481-4.257-.967-3.85-1.585-5.752-4.885-8.609-7.449m2.322-4.742c-1.356-2.046-2.464-4.224-2.901-6.77 1.516.578 2.792 1.399 5.03 1.256.474.742 1.03 1.729 2.32 1.356-.116 1.375.619 1.896 1.741 2.033 2.03 2 2.371 5.689 4.45 7.642-3.395-2.15-6.86-5.072-9.769-8.03 2.732 3.779 7.06 6.803 10.834 9.868-1.194-.247-2.116-.897-3.29-1.357-1.168-.459-2.518-.585-3.674-1.063-1.684-.697-3.728-3.405-4.742-4.935m3.483-5.32c-1.04.061-.758-1.883.481-1.063.28.572-.091 1.041-.481 1.063m2.612.775c.203 2.636-2.536-.737 0 0m1.16 1.935v.871c-.381-.124-.77-.9 0-.871m-7.255-5.611c-1.985-3.279-3.577-7.319-3.192-12.577v-.289c.495.312.935 1.211 1.645 2.127.519.669 1.356 1.33 1.547 1.74.251.54.138 1.097.678 1.452.281.185.669.057.967.193.724.336 2.691 2.319 2.999 3.097.238.6.208 1.39.386 2.032.517 1.849 1.184 3.511 2.032 5.224-.457.138-.99-.331-1.645-.098.02-.373.004-.712-.096-.967-.264-.542-.686-.927-1.356-1.063-1.464-1.6-2.584-3.543-3.867-5.321.464 1.955 1.938 3.736 3.094 5.321-.308.466-.736.811-.967 1.354-1.154-.056-1.688-1.336-2.225-2.225m1.257-8.514c-.299-.017-.274-.117-.58-.288-.027-2.496 2.283.388.58.288m3.097 2.904c-.813-.415-1.168-1.284-1.935-1.743.613.225 1.45 1.064 1.935 1.743m-1.645-22.639c.468.3 1.754 2.612 1.74 3.579-.008.602-.406 1.452-.58 2.129-.523 2.026-.616 4.778-.098 7.06.314 1.377 1.135 2.505.484 4.257-.996-1.551-1.362-3.734-1.74-5.901-.219 3.699 1.772 6.03 1.643 9.963-.33.31-1-.659-1.257-1.063.574-1.218-.252-2.542-1.742-2.323-3.1-4.891-2.337-14.28 1.55-17.703m6.578-2.127c.669 1.297.884 3.05 1.258 4.644-1.039 1.411-2.085 2.816-2.903 4.449-.292-1.163.146-2.431.291-3.481-1.02 1.592-.754 3.504-1.258 5.417-.404 1.537-1.567 3.084-1.741 4.644-.584-1.188-.89-2.563-.969-4.063-.272-5.287 2.857-8.605 5.322-11.61m3.192 48.949c-.219-1.312 1.215-1.133 1.258-.386.032.569-.74.961-1.258.386m4.775 8.974c1.641-.228-.326 2.515-.679.776-.103-.514.235-.713.679-.776m-4.582-3.362c-.846.38-2.176.274-3.288.386 1.167.577 2.963-.336 3.965.195 1.159.608 3.484 1.932 3.484 1.932s-.708.61-1.452.679c-3.598.324-8.05-1-9.771-2.806 2.975-.897 4.677-3.578 8.222-3.578-.433.984-1.055 1.779-1.547 2.706-.072.366.253.329.387.486m2.129-6.674c.359.095.963.34.774.676-.34.191-.737-.259-.774-.676m.388-2.516c.421.585-.091 1.414-.872 1.063-.542-.577.079-1.54.872-1.063m-.292 3.773c.266.291-.388 1.772-1.065 1.451.29-.552 1.034-.645 1.065-1.451m-1.547-3.191c-3.128-2.387-5.372-5.655-5.61-10.933 2.718 3.956 5.81 7.538 9.576 10.448-.172.473-.461.826-.676 1.258.349-2.403-2.879-2.728-3.29-.773m-.374-43.16c2.61-3.038 5.528-5.559 8.241-6.857-.004.076-.029.212-.061.378.178-.102.357-.203.538-.304-.183-.078-.334-.136-.361-.144.529-.347 2.14-1.02 2.843-1.32 2.176-.933 4.731-1.768 7.485-2.399 3.096-.75 6.365-1.164 9.742-1.194.069-.002.733-.002.897 0 .463.004 1.967.061 2.258.081.038.002.077.004.112.006.276.019 1.59.132 1.751.148 15.316 1.62 26.818 10.89 30.94 23.608.93 2.959 1.347 6.228.901 9.775-.687 5.462-3.36 10.655-6.386 14.03-.081.091-.205.332-.374.4-.409.479-.832.946-1.272 1.405-.114.257-.371.459-.577.712-.027-.023-.046-.044-.064-.065-.241.239-.486.473-.737.706-1.351 1.602-3.204 3.038-5.199 4.197-1.629.944-3.4 1.816-5.189 2.497-4.993 2.15-10.655 3.364-16.657 3.364-4.989 0-9.741-.839-14.07-2.358.011.025.015.05.026.075-6.134-1.513-11.03-5.072-15.187-9.385-4.135-4.292-7.627-10.462-7.933-17.896-.04-1 .203-2.02.193-2.999-.029-2.722 1.205-5.727 2.91-8.888.284-.524.589-1.049.903-1.572 1.167-2.146 2.625-4.154 4.327-5.997m-2.818-10.826c3.56-3.198 7.661-5.906 12.66-7.667 4.346-1.535 9.395-2.317 15.01-2.587.221 2.798.263 6.406.202 8.926-9.383.872-16.645 3.751-22.355 8.294-2.02-2.139-3.727-4.589-5.513-6.966m27.757-14.677c.952-.004 3.506.03 3.506.03l-.056 13.161-2.678.158c0 0 .138-9.933-.772-13.349m6.875 13.323l-2.64-.095-.039-13.197c0 0 2.395-.023 3.456-.021-.862 3.678-.777 13.313-.777 13.313m-13.161-13.875v-.74l20.319.009.012.737-20.331-.006zm7.938-18.532h4.158l.872 17.221h-5.708l.678-17.221m-1.279-.516l-.011-1.143 6.723-.01-.016 1.185-6.696-.032m1.865-2.425c-.64-1.553 2.764-1.855 2.854-.42.083 1.343-2.436 1.436-2.854.42m12.332 19.1h1.108v4.064h-1.108v-4.064zm2.076 1.065c1.056-.459 1.268 1.966.291 2.03-.914.061-.98-1.733-.291-2.03m6.272 9.293c4.62 1.783 8.663 4.518 12.01 7.538-1.477 2.555-3.493 4.874-5.165 7.231-5.909-4.982-12.704-8.03-22.21-8.811-.002-2.946-.129-6.289.272-8.985 5.648.494 10.636 1.306 15.09 3.03m12.979 15.568c1.735 3.075 5.232 5.143 5.61 9.48.175 2-.292 4.066-1.16 5.514-1.368-2.823-2.065-6.32-3.192-9.384.058.877.533 2.174.676 3.289-.51-.636-.928-1.675-1.513-2.529-.431-.627-1.426-1.628-1.361-2.245.191-1.836.334-2.315.94-4.125m6.82 1.882c3.578 5.133 3.771 11.984 1.305 17.563-2.183-.28-1.224 3.09-2.901 2.999.091-.543.023-1.827-.098-2.709 1.01-2.215 1.652-4.797 1.936-7.738-.66 2.178-.9 4.775-2.129 6.384-.043-.633-.085-1.269-.29-1.74 1.627-2.087 1.785-4.661 1.506-7.929-.128-1.535-1.384-3.201-1.311-3.39.633-1.693 1.741-3.083 1.982-3.44m1.789 18.239c.311.314.322.764.098 1.163-1.121.622-1.584-1.516-.098-1.163m-2.611 2.999c.083.376-.579.842-.774 1.258-.297-.591.612-.804.774-1.258m3.385-2.805c1.021-1.109 1.876-2.381 2.999-3.386.191 7.221-1.839 12.22-5.224 15.864.019-.266.054-.346-.164-.692-.587-.561-.705-.372-.965-.511 1.198-2.061 2.482-4.15 3.259-6.632-1.449 2.389-3.059 6.234-4.559 7.04-.509.339-.814 1-.762 1.47-.928-.215-1.472.098-2.032.485 1.254-2.312 2.21-5.269 2.806-8.03.265-1.225 2.044-2.444 2.708-3.385 1.39.364 2.494-.949 1.934-2.224m-3.236 12.13c.508.673-.249 1.434-.924.929-.389-.701.227-1.32.924-.929m-2.469 2.863c-.359.249-.544.181-.679 0-1.204-1.461 1.891-1.467.679 0m-1.646 1.354v-.481c.259.034.452.514 0 .481m9.866-5.127c.12.043.199.123.195.289-.84 3.612-2.2 6.746-4.549 9.09-.751.753-1.484 1.737-2.321 2.129-1.089.507-2.509.544-3.678.967-1.123.405-2.01 1.027-3.192 1.355 2.638-2.395 5.398-4.666 7.451-7.644-2.781 2.795-5.624 5.531-8.804 7.934.747-1.25 1.795-2.163 2.708-3.485.457-.662.797-1.339 1.16-2.032.67-1.272 1.077-2.611 2.129-3.483 1.193-.062 1.758-.76 1.839-1.934 1.486.231 1.972-.544 2.32-1.451 1.93-.231 3.458-.864 4.742-1.738m-.29 11.608c-2.412 2.281-4.751 5.929-8.511 7.449-1.172.473-2.997 1.067-4.354.872-.766-.11-1.255-.818-2.32-.772 1.986-1.689 4.778-2.578 7.156-3.873-2.411.585-4.296 1.702-6.481 2.515.1-1.067-.317-1.615-.967-1.934 3.892-2.619 8.912-4.629 15.477-4.257m-15.283 5.419c-.077 1.469-2.204-.129-.774-.581.346-.113.803.012.774.581m-3.871-1.355c-.398-.536-.751-1.119-1.063-1.741 4-2.706 7.11-6.305 9.769-10.352.083-.017.091.039.097.096.662 4.645-3.211 8.519-5.805 10.645-.713-1.689-3.784-.855-2.998 1.352m2.322 3.289c-.556.108-1.096-1.071-1.064-1.549.473.397.527 1.213 1.064 1.549m-.902-4.487c.349-.108.803.012.776.581-.079 1.47-2.206-.129-.776-.581m-.162 2.165c-.123.166-.199.38-.484.388-.083-.079-.058-.266-.195-.291.054-.332.469-.149.679-.097m-1.561 9.602c.502-.149.733.17.832.604.376 1.617-2.536-.095-.832-.604m.496-.994c.793-.313 1.571-1.405 2.611-1.641 1.569-.361 3.296.158 4.742-.486-.886-.141-2.557.168-3.578-.098-.467-.035.205-.289.193-.484-.637-.942-1.32-1.841-1.743-2.997 4.02.075 5.03 2.735 8.922 3.62-2.268 1.872-5.743 3.188-9.889 2.862-.401-.275-.633-.721-1.258-.776m19 6.434c-4.904 0-14.436.006-14.436.006l-.166-4.962c0 0 4.379-.365 7.886-3.798-1.934-.419-3.574-1.133-5.03-2.032 2.511-.809 5.141-1.503 6.772-3.192 1.836 4.55 3.403 9.165 4.974 13.978m-55.56-85.06v-3.987h1.247v3.974l-1.247.013zm-1.304-.884c-.914.062-.98-1.732-.292-2.031 1.056-.457 1.269 1.968.292 2.031m62.22 85.951c0 0-2.987.002-4.502.002-1.841-4.769-3.659-9.551-5.352-14.47 1.752-2.212 3.889-4.04 5.707-6.189-1.683-.299-3.926.174-5.707 0 3.177-2.725 4.775-7.03 5.612-12.09-1.113.472-2.487 1.511-4.064 1.839 2.796-4.08 4.51-9.734 4.064-16.736-1.362 1.154-2.306 3.241-3.676 4.063 2.555-5.589 1.965-15.615-2.42-18.671-1.085.85-1.619 2.253-2.225 3.581-1.563-1.758-3.123-3.52-4.45-5.515-.916 1.213-1.299 3.042-1.646 4.739-1.085-1.46-2.304-2.892-4.02-4.278 1.968-2.58 3.786-5.149 5.755-7.727-6.884-6.371-15.773-10.231-28.14-11.12.145-1.64.544-3.654.544-3.654h5.647v1.639l2.15-.002c0 0 .008-.748.008-1.183 2.729 1.083 2.613-3.875-.008-2.683v-1.172l-2.15-.007v1.533h-6.554l-.99-17.204 1.042.015.023-2.143c0 0-1.549 0-2.341-.023 2-2.763-3.284-3.551-3.561-1.332-.081.645.232 1.126.654 1.343-.739.024-2.499.013-2.499.013l.021 2.121 1.161.011-.793 17.205-6.478.01v-1.451l-2.246.01c0 0 .013 1.069-.007 1.302-1.85-1.347-2.622 1.913-1.283 2.608.603.215 1.075.026 1.276-.215.013.385.02 1.318.02 1.318h2.249l-.014-1.713 5.607.014c0 0 .503 2.446.493 3.545-12.609.676-21.609 4.628-28.567 10.957 1.892 2.784 4.106 5.04 5.984 7.84-1.352 1.324-2.731 3.06-4.182 4.631-.397-1.7-.88-3.654-1.484-5.145-1.636 1.878-3.107 3.81-4.561 5.967-.393-1.41-1.142-2.813-2.02-3.742-3.57 2.894-5.206 9.955-3.676 15.671.344 1.288 1.176 2.414.967 3.677-1.515-1.227-2.539-2.942-3.579-4.644-1.132 6.62 1.338 12.477 3.579 16.349-1.608-.195-2.647-.962-3.772-1.645.785 5.375 3.569 9.263 6.384 12.286-2.034-.07-4.197-.502-6.288-.193.904 1.034 1.904 2.146 2.873 3.115.977.977 1.768 1.899 2.739 2.978-1.955 4.881-5.597 14.577-5.597 14.577l-4.081.017.004 2.53h2.321c5.124 3.51 11.259 6.218 19.348 5.805 5.179-.266 9.421-1.831 12.865-3.773.685-.386 3.144-2.023 3.144-2.023l2.892-.008.036-2.567-5.061.01c0 0-.591-1.525-.913-2.667 3.717 1.154 11.414 1.644 11.414 1.644l.018 11.06 3.131 3.684 2.661-3.559v-11.138c0 0 7.43-.467 11.52-1.669-.399.903-1.125 2.648-1.125 2.648l-4.313-.006.039 2.524h1.438c0 0 1.34.884 2.229 1.295 5.307 2.451 10.91 4.558 16.466 4.512 10.846-.089 18.06-5.778 18.06-5.778l2.231-.029-.034-2.528z"/><path d="m173.84 37.662c.149.013.295.028.442.044-.147-.016-.292-.031-.442-.044"/><path d="m185.32 94.73c-.162-.386-.336-.761-.386-1.258-.894-.297-1.712-.052-2.515-.193-.666-.116-1.16-.612-1.837-.676-.959-.091-1.812.307-2.999.29-1.424-1.876-3.68.116-5.709.967-.548.228-1.189.689-1.837.676-1.435-.029-2.413-1.465-4.258-.871-.493.311-.272 1.34-.485 1.936-.839-.334-1.783-1.222-2.9-.679-.801-.262-1.027-1.102-2.032-1.16-.723-1.019-1.422-2.061-2.517-2.709-.861.855.593 1.32.58 2.225-.466-.048-.791.05-.676.581-.472.083-.448-.328-.774-.388-.266.156-.558.28-.871.388-.192.979-.318 1.403-.026 2.15 4.329 1.519 9.08 2.358 14.07 2.358 6 0 11.665-1.216 16.655-3.364-.687.262-1.378.496-2.063.693-.042-.557.552-.482.581-.966"/><path d="m180.39 54.59c-.502-1.308-1.027-2.88.581-2.323.191.294-.015.98.193 1.259.008.347.633.077.772.288-.01.504.089 1.196.099 1.936-.91.164-1.339-.367-1.645-1.16m-2.032-.485c-.851-.552-1.677.128-2.513-.098.517-.4.025-1.401.193-1.934.452.03.39.576.774.678.388-.031.382-.457.868-.386.193.484.355 1 .969 1.063.044.365-.191.454-.291.677m8.514-11.899c-.176-.211-.286-.487-.579-.58-.589.219-.913.701-1.26 1.16-.869-.654-1.849-.473-2.225.485-1.027-.034-1.989-1.012-2.899-.291-.347-.64-1.195-1.235-1.839-.774.006.412.162.675.096 1.16-.156.166-.405.241-.774.194-.112.404-.093.939-.484 1.065-.178-.187-.176-.077-.095-.387-.166-.127-.542.077-.774-.098-.143-.367.432-.02.289-.387-.127-.138-.43-.255-.579-.096.313 1.046-.805 1.673-1.162 2.612-.268-.497.216-.984.388-1.354-.479-.614-1.717-.078-2.129-.871-2.21-.149-1.679 2.448-3.094 3.096.181.14.01.631.193.773.579.03.734-.361 1.258-.387.27.245.141.892.484 1.063.212-.11.394-.248.772-.193-.175-.47-.351-.939-.579-1.354.317-.293.315-.909.776-1.065.818.92.969 3.522-.871 3.676-.272-.404-.567-.461-.967-.87-.127.295-.201.639-.39.87-.718.217-1.445.424-1.739 1.066-.699-.468-.965.301-1.646.386-.004.489.685.283.872.58.128.708-.3.863-.58 1.161-.387-.097-.752-.215-1.065-.387-.71.59-.829 1.938-.095 2.612.489-.149 1.385-.385 1.74-.096.146-.241.187-.589.193-.969.984-.257 1.571-1.537 2.71-1.45.789.057 1.322.916 1.839 1.547.067.359-.166.414-.098.773.37-.08.5-.4.677-.676-.205-.795-.845-1.156-1.065-1.936.55.152.841.545 1.353.485-.274 1.403 1.133 1.42 1.065 2.321.531-.211.265-1.218 1.162-1.065-.037.746.301 1.118.677 1.451.5-.015.548-.482 1.16-.386.365.344.127 1.294.193 1.936-.33.52-.969.131-1.353.58-.536-.014-.637-.462-1.065-.58-1.436.886-2.16-.541-3.675-.583-.226-.321-.183-.911-.581-1.063-.679.119-1.407.315-1.934-.098-.673.457-1.963.592-2.902.485-1.233.604-1.456 2.219-2.9 2.612-.294 1.531-2.436 3.955-1.259 5.513.274.365.619.457.774.871.161.438-.117.935.29 1.354 1.192.825 3.648 1.056 5.03.193 1.093.387 1.908.196 3.094.387-.058.48.222.62.293.969-.205.395-.442.606-.486.967-.158 1.383 1.303 1.785 1.453 3.385.118 1.301-.768 2.742-.774 3.677-.004.371.342.761.386 1.16.11.995-.459 2.334.486 2.903.048.789.297 1.379.675 1.838.763-.522 1.588-.373 2.322-.678 1.312-.544 1.604-2.174 2.613-2.998-.307-2.457 2.218-3.097 2.032-5.224-.044-.46-.37-.689-.486-1.259.998-2.293 2.663-3.916 3.58-6.288-.402-.461-1.287.083-2.032-.095-1.702-1.458-2.391-3.93-3.288-6.193.793.026 1.052 1.058.967 1.645.642 1.194 1.534 2.142 1.934 3.581 1.148-.302 3.273-.988 3.483-2.129.033-.185-.031-.947-.098-1.16-.118-.381-.322-.572-.677-.872-.139.249-.262.515-.579.58-.6-.505-1.322-1.377-1.164-2.32.884-.141.716.769 1.067 1.16.486.068.45-.389.965-.29.162.324.324.644.486.967 1.152-.718 2.337-.215 2.32 1.257.104.221.293.353.581.388.515 1.677 1.442 2.942 2.227 4.353.328-.253.234-.922.579-1.161-.84-1.328.419-2.613 1.16-3.483.563.278.645 1.033 1.355 1.16.031.225-.015.371-.096.485.164.191.448.259.772.29.168.994.216 2.108.869 2.611-.128.774.056 1.333.195 2.13-.284.025-.297-.219-.581-.194.444 1.395.608 3.07 1.548 3.966.324-1.527-.542-2.279-.872-3.579.523.191.426-.776.388-1.064-.102-.782-1.119-1.866-.774-2.612.567-.017.245.852.581 1.065 1.992-.763.021-2.701-.678-3.579.172-.99 1.641-.682 1.936-1.549-.067-.905-.262-.957 0-1.74-.069-.385-.459-.444-.581-.774.274-1.728-.845-2.573-1.258-3.29.892-.483.782 1.082 1.548 1.354.423-.338.019-1.318-.484-1.354-.081-1.286-.971-3.058-1.258-4.739-.789-.181-1.341-.595-1.646-1.258-1.171.14-1.249-.815-1.837-1.259-.112-.318.129-1.113-.096-1.547.782.31 1.125 1.067 1.449 1.839.921.659 2.034 1.126 2.903 1.838-.054-.402-.641-1.101-.871-1.645-1-.123-.953-1.304-2.128-1.258-.305-.407-.674-.744-.581-1.547-.755-1.245-2.407-1.967-2.963-3.409-.06-.361-.471-.196-.38-.151-.406-.079-.597.653-.914.659"/><path d="m198.19 86.9c-.992.461-1.907.992-2.71 1.644.737.089 1.641-.49 2.227-.872-.162.216-.332.432-.512.644.251-.233.498-.469.741-.706-.217-.287.557-.457.254-.71"/><path d="m157.56 43.37c.392.261-.713.62-1.354.483.276-.336 1.19-.034 1.354-.483m-8.223.967c-1.669-.057-1.881 1.343-3.29 1.547.446.761 1.721-.716 2.418 0-1.105 1.475-1.76 3.401-3.385 4.355-.351 1.453-1.501 2.11-2.321 3.093-.17 1.62-.427 2.638-.969 3.775.241.597.285 1.392.776 1.74-.62 1.505.835 2.31.87 3.772.365.14.187-.266.483-.193.101.353.338.566.387.969.223.161.742.029.872.288-.018.513-.166.799 0 1.259.246.203.74.161 1.063.288.026.298.211.436.292.678-.304.502-.48 1.133-.774 1.646.319.828-.077 1.989.095 2.9.198 1.038 1.352 2.01 1.356 3.484 1.552.478 1.507 2.556 2.32 3.772-.093 1.908 1.02 2.88.678 4.742.496.921 1.059 1.777 1.45 2.804.963.492 1.445 1.459 2.323 2.032-.332-1.287-1.227-2.74-1.16-4.354.039-.988.665-2.054 1.063-3.094.724-1.892.333-3.03 1.935-3.579-1.018-2.11 1.111-3.693.774-5.224-.192-.866-1.052-.973-1.065-2.129-.714.073-.742.064-1.547 0-.525-.99-1.754-1.277-1.741-2.805-.487-.318-1.173-.44-1.162-1.259-.797.154-.988-.79-1.643-1.063-.41.107-.676.358-.969.58-.659-.343-1.264-.106-1.838.29-.351-.068-.525-.312-.774-.483.01-.886.241-1.577-.288-2.129.138-.695.51-1.3 0-1.74-.523-.073-.318.586-.967.387-.417-1.112 1.089-1.898.967-3.096.603-.137 1.381-.101 1.933-.29.393.215.393 1.137 0 1.354.085.142.145.305.387.289.639-.469.342-1.201.58-1.836.243-.644 1.192-1.133 1.645-1.839.134-.209.075-.525.194-.678.072-.091.4-.083.58-.289.106-.121.114-.416.193-.485.457-.395 1.348-.654 1.936-.967.393-.21.637-.477 1.258-.58.385-.582.158-1.777 1.063-1.838-.108.454.03.59-.096 1.063 1.247-.347.635-1.991 1.645-2.612-.274-1.133.559-1.507.967-2.225-.314-.259-1.308-.269-.872-.967.541-.183.342.367.679.387.645-.064.645-.772 1.063-1.063.345-.054.238.341.582.288.172-.57.128-1.356.387-1.839-1.174-.163-1.117 1.717-2.516 1.646-1.713 1.092-2.119 3.491-3.677 4.741-.119-.676-.542-1.511-.483-2.032.036-.325.55-1.271.87-1.549.262-.225.767-.2 1.064-.387.556-.347.703-.88 1.16-1.063 1.762.132 2.346-1.093 3.194-2.225-.594-.476-1.22.077-1.742.387.068-.261-.2-.188-.289-.292-.321-.296.385-.507.095-.773-.418.675-1.532.658-2.127 1.16-.166.34.213 1.075-.485 1.065-.282-.31.221-.424.292-.679-.695-.66-1.511-.607-2.323-.095-.025-.382.415-.295.387-.678-.231-.121-.515-.195-.675-.387-.527.225-.991.886-1.645.679.01-.073-.421-.272-.748-.411-.183.101-.361.202-.54.304-.086.447-.227 1.106-.165 1.463"/><path d="m172.9 37.594c.038.002.077.004.112.006-.035-.001-.074-.003-.112-.006"/><path d="m141.32 49.35c-1.702 1.842-3.16 3.853-4.327 5.995 1.252-2.085 2.729-4.136 4.327-5.995"/><path d="m160 38.707c3.076-.706 6.401-1.156 9.742-1.195-3.377.031-6.646.445-9.742 1.195"/><path d="m170.15 37.508c-.027 0-.056 0-.083 0 .193 0 .384.004.575.004-.163 0-.326-.004-.492-.004"/><path d="m199.64 85.55c.201-.089.295-.284.291-.579-.589-.056-.762 1.096-1.451 1.258.178.315.176.544.091.739.44-.459.868-.926 1.272-1.405-.06.023-.129.027-.203-.013"/><path d="m164.46 31.491l-1.477.448c-.087-.296-.229-.507-.428-.639-.197-.132-.44-.181-.728-.147-.383.044-.669.213-.868.504-.195.289-.256.744-.185 1.363.083.686.255 1.158.519 1.412.266.257.593.362.982.314.292-.033.519-.144.684-.331.166-.189.264-.489.292-.901l1.533.08c-.075.706-.31 1.263-.712 1.667-.403.404-.975.65-1.719.738-.846.1-1.551-.085-2.117-.559-.566-.474-.906-1.184-1.016-2.127-.115-.955.051-1.726.493-2.316.44-.594 1.093-.94 1.953-1.042.704-.083 1.282.002 1.734.257.453.252.806.679 1.06 1.279"/><path d="m185.56 33.805l-1.559-.179c.039-.31-.006-.567-.137-.771-.133-.202-.338-.347-.618-.432-.374-.11-.712-.072-1.015.119-.299.191-.54.588-.722 1.194-.201.671-.23 1.182-.089 1.525.145.347.407.576.787.691.284.085.541.075.772-.032.23-.108.444-.349.637-.722l1.395.697c-.355.627-.801 1.049-1.339 1.262-.538.215-1.172.213-1.899-.006-.828-.249-1.412-.71-1.747-1.379-.334-.671-.363-1.468-.087-2.393.284-.935.75-1.588 1.399-1.959.652-.372 1.399-.432 2.244-.176.687.205 1.191.518 1.511.939.316.419.472.959.467 1.622"/><path d="m143.84 38.22c.075-.368.257-.606.549-.713.293-.106.603-.046.928.176.324.224.604.608.84 1.159.243.562.328 1.028.257 1.394-.072.367-.255.606-.546.712-.294.107-.604.049-.931-.174-.326-.223-.608-.612-.848-1.168-.239-.556-.322-1.019-.249-1.386m.044 3.262c.377.381.791.625 1.241.729.453.104.874.085 1.261-.055.629-.23 1.028-.697 1.203-1.405.174-.708.079-1.486-.285-2.334-.361-.839-.862-1.46-1.509-1.862-.645-.402-1.29-.485-1.929-.253-.415.151-.74.411-.971.774-.232.365-.34.811-.328 1.339.016.527.128 1.037.34 1.531.276.641.602 1.156.977 1.536"/><path d="m193.86 38.799c.336-.503.676-.824 1.025-.963.349-.138.65-.114.899.075.247.187.367.478.357.872-.012.395-.183.84-.515 1.337-.342.511-.687.833-1.034.973s-.645.117-.895-.073c-.249-.187-.367-.478-.359-.875.011-.393.184-.843.522-1.346m-.891 3.314c.533.404 1.143.485 1.83.247.689-.239 1.291-.742 1.804-1.507.511-.762.755-1.52.741-2.281-.012-.761-.292-1.345-.837-1.758-.351-.266-.745-.398-1.177-.393-.431.005-.865.156-1.301.453-.434.3-.799.671-1.1 1.115-.388.582-.641 1.135-.758 1.657-.116.523-.093 1 .067 1.439.156.437.401.78.731 1.028"/><path d="m186.52 102.55c-.135.349-.355.552-.662.604-.307.054-.602-.06-.884-.334-.282-.281-.492-.71-.629-1.304-.137-.587-.139-1.058 0-1.405.135-.351.357-.554.664-.606.307-.052.602.06.882.338.282.276.488.706.623 1.287.141.598.141 1.071.006 1.42m.042-3.734c-.565-.508-1.183-.705-1.855-.587-.436.075-.799.27-1.092.589-.293.32-.479.739-.558 1.258-.079.523-.056 1.044.064 1.567.158.683.388 1.243.693 1.686.301.442.666.753 1.094.936.426.183.843.237 1.249.166.658-.112 1.135-.502 1.432-1.167.295-.666.338-1.448.131-2.347-.208-.891-.594-1.59-1.158-2.101"/><path d="m170.65 103.11h.043c.621-.027 1.01-.071 1.16-.133.151-.058.267-.153.349-.286.081-.133.12-.297.112-.49-.01-.216-.077-.39-.195-.517-.122-.127-.291-.205-.5-.23-.106-.009-.421-.004-.946.017l-.096.006.073 1.633m-1.133 3.771l-.284-6.438 1.81-.081c.687-.029 1.19.006 1.503.108.317.104.575.297.774.585.199.286.309.621.326 1 .021.484-.073.859-.276 1.229-.249.452-.625.747-.625.747l1.627 2.636-1.546.066-1.393-2.623-.737.025.12 2.688-1.299.058"/><path d="m177.51 101.07l.228 1.768.133-.019c.61-.079 1.013-.166 1.21-.257.197-.093.344-.216.442-.37.1-.156.139-.322.114-.508-.031-.226-.137-.4-.32-.527-.183-.127-.402-.193-.656-.197-.191-.004-.564.031-1.121.106l-.03.004m-.882 5.382l-.811-6.237 1.773-.233c.944-.124 1.563-.172 1.857-.145.452.033.847.191 1.185.465.339.274.54.658.604 1.156.048.382.006.716-.133.998-.135.282-.328.517-.571.699-.245.183-.5.318-.766.4-.361.108-.895.208-1.596.299l-.293.037.305 2.356-1.554.205"/><path d="m153.92 32.974c.472-.162.791-.255.957-.28.225-.039.43-.014.614.074.183.089.31.236.382.444.058.17.058.334 0 .495-.055.162-.159.302-.314.419-.152.118-.489.266-1 .442l-.113.038-.548-1.624.027-.008m1.581 4.76l-.731-2.16.248-.084c.596-.202 1.04-.383 1.334-.545.217-.12.413-.289.59-.499.178-.213.297-.463.363-.752.063-.286.036-.608-.083-.959-.156-.454-.406-.783-.754-.986-.349-.201-.724-.282-1.127-.242-.264.023-.793.171-1.594.442l-1.499.509 1.935 5.721 1.318-.445"/><path d="m189.21 34.473l.025.012c.457.2.758.347.897.436.193.123.326.28.403.47.079.189.072.384-.015.586-.073.164-.183.284-.332.365-.152.083-.322.115-.517.1-.193-.017-.539-.134-1.04-.352l-.108-.048.687-1.569m-1.096 2.508l.241.106c.575.251 1.025.416 1.353.497.241.055.498.064.772.026.274-.038.531-.143.772-.312.243-.17.438-.425.585-.763.193-.442.228-.855.106-1.237-.122-.387-.344-.699-.67-.94-.21-.157-.702-.406-1.473-.743l-1.455-.636-2.42 5.534 1.275.557.914-2.089"/><path d="m241.99 138.12c-.064-1.623-.135-3.279-.212-4.964.332.05.654.096.959.133.305.038.614.058.919.058.307 0 .614-.021.921-.058.307-.037.627-.083.959-.133-.077 1.685-.147 3.341-.212 4.964-.062 1.625-.096 3.279-.096 4.969 0 3.221.012 6.01.039 8.381.025 2.364.05 4.481.077 6.346 1.814 0 3.553-.019 5.213-.058 1.663-.038 3.454-.185 5.371-.44-.127.461-.191.845-.191 1.15 0 .282.064.627.191 1.036-1.175-.052-2.353-.077-3.528-.077h-3.53-3.547c-1.137 0-2.32.025-3.547.077.077-1.586.147-3.196.212-4.834.062-1.633.096-3.298.096-4.985v-6.596c.002-1.69-.031-3.344-.094-4.969m-9.839 2.762c-.537-1.546-1.285-2.825-2.244-3.833-.959-1.01-2.084-1.76-3.375-2.245-1.293-.486-2.69-.729-4.198-.729-1.484 0-2.872.243-4.161.729-1.293.486-2.418 1.235-3.377 2.245-.959 1.01-1.708 2.287-2.244 3.833-.537 1.546-.805 3.383-.805 5.504 0 2.123.268 3.958.805 5.504.536 1.546 1.285 2.827 2.244 3.837.959 1.01 2.084 1.756 3.377 2.241 1.289.486 2.677.729 4.161.729 1.509 0 2.906-.243 4.198-.729 1.291-.486 2.416-1.233 3.375-2.241.959-1.01 1.706-2.292 2.244-3.837.54-1.546.807-3.381.807-5.504 0-2.121-.267-3.957-.807-5.504m-23.11-.304c.7-1.702 1.688-3.14 2.951-4.317 1.266-1.175 2.781-2.071 4.545-2.685 1.764-.61 3.694-.919 5.792-.919 2.121 0 4.066.309 5.828.919 1.764.614 3.279 1.511 4.547 2.685 1.264 1.177 2.247 2.615 2.951 4.317.703 1.698 1.056 3.636 1.056 5.809 0 2.173-.353 4.111-1.056 5.809-.704 1.704-1.688 3.14-2.951 4.317-1.268 1.175-2.783 2.05-4.547 2.627-1.762.577-3.707.863-5.828.863-2.098 0-4.03-.286-5.792-.863-1.764-.577-3.279-1.453-4.545-2.627-1.264-1.177-2.252-2.613-2.951-4.317-.705-1.698-1.056-3.636-1.056-5.809 0-2.174.351-4.112 1.056-5.809m-20.33-2.458c-.064-1.623-.135-3.279-.209-4.964.614.05 1.235.096 1.862.133.625.038 1.245.058 1.859.058.305 0 .674-.013 1.111-.039.436-.025.876-.044 1.324-.056.447-.012.876-.033 1.285-.058.409-.025.753-.038 1.036-.038.384 0 .857.012 1.417.038.565.025 1.158.101 1.787.228.625.131 1.245.322 1.859.577.613.255 1.169.626 1.667 1.112.5.486.903 1.094 1.208 1.823.307.726.46 1.631.46 2.702 0 1.689-.363 3.057-1.092 4.105-.728 1.048-1.627 1.865-2.687 2.455-1.059.587-2.184.984-3.375 1.187-1.187.205-2.244.309-3.163.309-.589 0-1.125-.008-1.612-.021-.484-.012-.984-.044-1.494-.096v2.109c0 1.688.031 3.352.098 4.985.06 1.638.133 3.248.21 4.834-.59-.052-1.216-.077-1.878-.077-.666 0-1.293.025-1.88.077.075-1.586.145-3.196.209-4.834.064-1.633.098-3.298.098-4.985v-6.596c-.003-1.689-.036-3.343-.1-4.968m5.965 8.152c.793 0 1.612-.091 2.455-.27.844-.179 1.617-.505 2.32-.98.702-.471 1.278-1.123 1.727-1.955.446-.83.671-1.897.671-3.2 0-1.1-.154-1.994-.461-2.685-.305-.691-.735-1.229-1.283-1.61-.552-.386-1.222-.647-2.01-.787-.792-.139-1.687-.209-2.683-.209h-3.454v11.39c.867.203 1.778.306 2.723.306m-24.988-.844c.424.027.888.039 1.401.039.792 0 1.617-.091 2.474-.27.857-.179 1.641-.492 2.36-.938.716-.448 1.308-1.05 1.783-1.806.473-.751.71-1.706.71-2.856 0-.996-.185-1.822-.558-2.474-.37-.652-.849-1.171-1.438-1.552-.585-.386-1.227-.647-1.918-.787-.689-.139-1.368-.209-2.03-.209-.899 0-1.64.019-2.227.056-.587.039-1.088.083-1.494.135-.052 1.407-.104 2.798-.154 4.18-.052 1.382-.077 2.76-.077 4.142v2.187c.356.076.747.128 1.168.153m-4.409-7.308c-.064-1.623-.134-3.279-.213-4.964.742.05 1.47.096 2.186.133.716.038 1.446.058 2.186.058.743 0 1.471-.033 2.188-.096.714-.064 1.442-.096 2.185-.096 1.075 0 2.096.1 3.067.305.972.205 1.822.544 2.551 1.019.729.471 1.306 1.092 1.727 1.86.421.766.633 1.725.633 2.874 0 1.229-.274 2.281-.826 3.165-.55.88-1.22 1.61-2.01 2.187-.792.575-1.646 1.021-2.553 1.341-.907.32-1.733.531-2.474.631.307.386.729.924 1.266 1.613.538.691 1.137 1.451 1.804 2.281.664.832 1.355 1.702 2.071 2.609.714.911 1.405 1.778 2.069 2.609.666.832 1.293 1.594 1.882 2.283.585.689 1.061 1.214 1.418 1.571-.384-.052-.768-.077-1.15-.077h-1.15-1.114c-.382 0-.753.025-1.111.077-.386-.536-.967-1.341-1.745-2.416-.782-1.073-1.646-2.223-2.59-3.452-.946-1.227-1.911-2.449-2.895-3.661-.984-1.216-1.886-2.245-2.704-3.088h-1.457v2.798c0 1.688.032 3.352.096 4.985.064 1.638.135 3.248.21 4.834-.587-.052-1.213-.077-1.878-.077-.665 0-1.292.025-1.88.077.079-1.586.148-3.196.213-4.834.063-1.633.096-3.298.096-4.985v-6.596c-.002-1.689-.034-3.343-.097-4.968m-19.18-.056c-.064-1.638-.135-3.273-.211-4.909 1.15.05 2.295.096 3.432.133 1.137.038 2.283.058 3.433.058 1.152 0 2.289-.021 3.415-.058 1.124-.037 2.261-.083 3.413-.133-.077.382-.115.766-.115 1.15 0 .384.039.766.115 1.15-.818-.05-1.566-.1-2.245-.152-.678-.052-1.394-.102-2.148-.156-.754-.05-1.579-.096-2.474-.133-.894-.039-1.969-.058-3.222-.058-.025.818-.057 1.598-.095 2.341-.038.739-.057 1.583-.057 2.53 0 .996.006 1.969.019 2.916.012.946.02 1.66.02 2.146 1.124 0 2.136-.012 3.03-.038.894-.025 1.713-.058 2.454-.095.742-.039 1.427-.079 2.052-.116.627-.037 1.221-.083 1.785-.133-.077.382-.114.78-.114 1.187 0 .386.037.768.114 1.152-.665-.077-1.438-.139-2.32-.191-.882-.052-1.764-.083-2.646-.098-.884-.012-1.715-.025-2.494-.038-.78-.012-1.399-.021-1.86-.021 0 .233-.007.481-.02.747-.013.272-.019.61-.019 1.017v1.496 2.302c0 1.457.006 2.661.019 3.607.012.946.032 1.66.057 2.146h2.686c.971 0 1.924-.019 2.857-.058.933-.038 1.815-.087 2.645-.154.831-.062 1.553-.158 2.168-.286-.051.178-.083.378-.095.594-.012.22-.019.417-.019.596 0 .409.039.741.114.996-1.15-.052-2.295-.077-3.432-.077h-3.473-3.489c-1.15 0-2.315.025-3.49.077.076-1.633.146-3.267.211-4.89.063-1.625.096-3.279.096-4.966v-6.598c-.001-1.685-.034-3.346-.097-4.983m-16.01-2.916c-.665 0-1.36.006-2.089.019-.729.015-1.458.039-2.187.077-.728.037-1.432.085-2.108.137-.679.05-1.286.114-1.824.191.128-.461.194-.869.194-1.229 0-.28-.066-.676-.194-1.187 1.688.05 3.337.096 4.948.133 1.612.038 3.26.058 4.95.058 1.687 0 3.336-.021 4.948-.058 1.61-.037 3.259-.083 4.948-.133-.13.511-.194.919-.194 1.225 0 .334.064.73.194 1.191-.539-.077-1.146-.141-1.824-.191-.675-.052-1.379-.1-2.108-.137-.729-.038-1.458-.062-2.187-.077-.728-.012-1.426-.019-2.089-.019-.079 2.636-.117 5.28-.117 7.94v6.596c0 1.688.032 3.352.099 4.985.061 1.638.134 3.248.21 4.834-.588-.052-1.215-.077-1.878-.077-.667 0-1.292.025-1.88.077.076-1.586.146-3.196.21-4.834.064-1.633.098-3.298.098-4.985v-6.596c-.003-2.66-.041-5.304-.12-7.94m-22.858 14.403c-3.325-3.565-6.649-7.115-9.972-10.642-.025.714-.051 1.672-.076 2.876-.026 1.2-.039 2.837-.039 4.91 0 .536.006 1.2.019 1.992.012.793.026 1.623.038 2.492.013.87.032 1.752.057 2.646.026.897.052 1.727.077 2.492.026.768.051 1.438.077 2.01.025.577.051.965.077 1.169-.409-.052-.857-.077-1.342-.077-.512 0-.986.025-1.42.077.051-.255.109-.729.172-1.418.063-.691.121-1.515.172-2.474.051-.961.108-2 .172-3.125.063-1.127.116-2.25.155-3.375.039-1.127.071-2.225.096-3.3.026-1.075.038-2.034.038-2.876 0-2.455-.006-4.566-.019-6.33-.012-1.764-.045-3.08-.095-3.949h.612c1.56 1.687 3.228 3.497 5.01 5.427 1.777 1.932 3.541 3.835 5.291 5.716 1.752 1.878 3.413 3.657 4.986 5.331 1.572 1.675 2.947 3.101 4.123 4.275v-5.215c0-2.686-.02-5.301-.057-7.843-.038-2.544-.121-4.941-.249-7.191.513.127.945.191 1.305.191.305 0 .714-.065 1.225-.191-.051.563-.108 1.407-.172 2.53-.063 1.127-.128 2.326-.191 3.605-.065 1.279-.123 2.532-.174 3.759-.051 1.229-.077 2.212-.077 2.953v2.304c0 .868.006 1.777.02 2.723.012.944.025 1.897.038 2.856.013.959.025 1.855.037 2.685.014.83.02 1.552.02 2.167v1.267h-.535c-2.941-3.399-6.072-6.886-9.396-10.452m-22.955-11.431c-.063-1.623-.134-3.279-.211-4.964.332.05.653.096.959.133.306.038.614.058.92.058.306 0 .614-.021.92-.058.307-.037.627-.083.958-.133-.076 1.685-.146 3.341-.211 4.964-.063 1.625-.095 3.279-.095 4.969v6.596c0 1.688.032 3.352.095 4.985.064 1.638.135 3.248.211 4.834-.588-.052-1.213-.077-1.878-.077s-1.292.025-1.879.077c.077-1.586.147-3.196.211-4.834.064-1.633.095-3.298.095-4.985v-6.596c0-1.69-.031-3.344-.095-4.969"/></svg>
