<svg width="120" height="26" viewBox="0 0 120 26" fill="none" xmlns="http://www.w3.org/2000/svg">
<g clip-path="url(#clip0)">
<path d="M64.5706 12.1187C67.4544 12.1187 69.4132 14.3496 69.4132 17.6687V23.8444C69.4132 23.926 69.3315 24.0076 69.2499 24.0076H66.4205C66.3389 24.0076 66.2573 23.926 66.2573 23.8444V17.6959C66.2573 16.4172 65.6316 15.0297 63.8632 15.0297H63.8088C62.4757 15.057 61.3331 16.254 61.3331 17.6143V23.8444C61.3331 23.926 61.2515 24.0076 61.1698 24.0076H58.3677C58.286 24.0076 58.2044 23.926 58.2044 23.8444V12.418C58.2044 12.3364 58.286 12.2548 58.3677 12.2548H61.0882C61.1698 12.2548 61.2515 12.3364 61.2515 12.418V13.4246C62.2853 12.5268 63.3463 12.1187 64.5706 12.1187ZM107.692 21.94C107.637 21.9944 107.664 22.1032 107.719 22.1576C109.406 23.8444 111.228 24.062 112.806 24.062C115.037 24.062 116.697 23.2187 117.404 21.7223C117.622 21.2598 117.73 20.7701 117.73 20.2532C117.73 17.2334 115.119 16.6893 112.861 16.5533C111.065 16.4444 111.065 15.8187 111.065 15.6011C111.065 14.8393 112.289 14.7577 112.806 14.7577C113.813 14.7577 114.575 15.0025 115.2 15.5467C115.255 15.6011 115.364 15.6011 115.418 15.5195L117.023 13.6695C117.078 13.6151 117.078 13.5062 116.996 13.4518C115.826 12.4724 114.575 12.0643 112.752 12.0643C111.582 12.0643 110.439 12.3636 109.596 12.8533C108.508 13.5062 107.936 14.4856 107.936 15.6827C107.936 17.7775 109.596 19.0562 112.643 19.2738C114.357 19.3827 114.575 19.8724 114.575 20.3076C114.575 20.9334 113.731 21.2598 112.915 21.2598H112.833C111.5 21.2326 110.222 20.7429 109.378 19.954C109.297 19.8996 109.188 19.8996 109.133 19.9812L107.692 21.94ZM79.2616 20.0084C79.7241 19.4643 79.9418 18.7025 79.9418 17.8863C79.9418 16.4172 79.044 14.8665 76.8675 14.8665C75.0719 14.8665 73.8749 16.0908 73.8749 17.9135C73.8749 19.7363 75.0719 20.9878 76.8675 20.9878C77.7925 20.9878 78.7175 20.6341 79.2616 20.0084ZM79.8601 12.3908C79.8601 12.3092 79.9418 12.2276 80.0234 12.2276H82.8256C82.9072 12.2276 82.9888 12.3092 82.9888 12.3908V23.8444C82.9888 23.926 82.9072 24.0076 82.8256 24.0076H80.0234C79.9418 24.0076 79.8601 23.926 79.8601 23.8444V22.9738C78.8807 23.8716 77.7109 23.8988 76.7043 23.926H76.5411C74.8543 23.926 73.4396 23.4091 72.4058 22.4025C71.3176 21.3415 70.7734 19.7907 70.7734 17.9408C70.7734 14.3496 73.0587 12.0371 76.6227 12.0371H76.6771C77.7925 12.0371 78.9624 12.1459 79.8874 12.9077L79.8601 12.3908ZM45.0097 9.39817V6.6504C45.0097 6.54158 44.9281 6.45996 44.8192 6.45996H34.6171C34.5083 6.45996 34.4267 6.54158 34.4267 6.6504V23.79C34.4267 23.8988 34.5083 23.9804 34.6171 23.9804H37.3649C37.4737 23.9804 37.5553 23.8988 37.5553 23.79V16.7981C37.5553 16.6893 37.6369 16.6077 37.7458 16.6077H42.8876C42.9965 16.6077 43.0781 16.5261 43.0781 16.4172V13.6423C43.0781 13.5334 42.9965 13.4518 42.8876 13.4518H37.7458C37.6369 13.4518 37.5553 13.3702 37.5553 13.2614V9.80626C37.5553 9.69744 37.6369 9.61582 37.7458 9.61582H44.792C44.9281 9.61582 45.0097 9.507 45.0097 9.39817ZM104.998 20.3349C104.944 20.2804 104.835 20.2804 104.781 20.3349C104.236 20.7973 103.529 21.0422 102.849 21.0422C101.135 21.0422 99.9379 19.8179 99.9379 18.0496C99.9379 16.2812 101.135 15.057 102.849 15.057C103.529 15.057 104.209 15.3018 104.781 15.7643C104.835 15.8187 104.944 15.8187 104.998 15.7643L106.821 13.8599C106.875 13.8055 106.875 13.6967 106.821 13.6423C105.651 12.5268 104.454 12.0643 102.822 12.0643C99.149 12.0643 96.7821 14.4312 96.7821 18.104C96.7821 21.7768 99.149 24.1436 102.822 24.1436C104.454 24.1436 105.651 23.6812 106.821 22.5657C106.875 22.5113 106.875 22.4025 106.821 22.3481L104.998 20.3349ZM90.3615 24.0076C90.4432 24.0076 90.5248 23.926 90.5248 23.8444V21.2871C90.5248 21.2054 90.4432 21.1238 90.3615 21.1238C90.0623 21.1238 89.1645 21.1238 88.974 21.1238C88.1579 21.0966 87.777 20.6885 87.777 19.8179V15.4378H90.3615C90.4432 15.4378 90.5248 15.3562 90.5248 15.2746V12.418C90.5248 12.3364 90.4432 12.2548 90.3615 12.2548H87.8042V9.77905C87.8042 9.69744 87.7226 9.61582 87.641 9.61582H84.8116C84.73 9.61582 84.6483 9.69744 84.6483 9.77905V19.8179C84.6483 22.4841 86.1447 24.0076 88.7836 24.0076H89.3005H90.3615ZM52.7633 20.0084C53.2258 19.4643 53.4434 18.7025 53.4434 17.8863C53.4434 16.4172 52.5456 14.8665 50.3692 14.8665C48.5736 14.8665 47.3766 16.0908 47.3766 17.9135C47.3766 19.7363 48.5736 20.9878 50.3692 20.9878C51.3214 20.9878 52.2464 20.6341 52.7633 20.0084ZM53.389 12.3908C53.389 12.3092 53.4706 12.2276 53.5523 12.2276H56.3544C56.4361 12.2276 56.5177 12.3092 56.5177 12.3908V23.8444C56.5177 23.926 56.4361 24.0076 56.3544 24.0076H53.5523C53.4706 24.0076 53.389 23.926 53.389 23.8444V22.9738C52.4096 23.8716 51.2398 23.8988 50.2332 23.926H50.0699C48.3832 23.926 46.9685 23.4091 45.9347 22.4025C44.8464 21.3415 44.3023 19.7907 44.3023 17.9408C44.2751 14.3496 46.5604 12.0099 50.0971 12.0099H50.1515C51.267 12.0099 52.4368 12.1187 53.3618 12.8805L53.389 12.3908ZM92.2115 24.0076H95.0409C95.1225 24.0076 95.2041 23.926 95.2041 23.8444V12.3908C95.2041 12.3092 95.1225 12.2276 95.0409 12.2276H92.2115C92.1299 12.2276 92.0483 12.3092 92.0483 12.3908V23.8444C92.0755 23.926 92.1299 24.0076 92.2115 24.0076ZM95.4218 8.77244C95.4218 6.45996 91.9395 6.45996 91.9395 8.77244C91.9123 11.0577 95.4218 11.0577 95.4218 8.77244Z" fill="#09203F"/>
<path d="M29.6385 3.14099L26.7003 7.71155C26.6458 7.79316 26.5098 7.84757 26.4282 7.79316C19.654 4.39245 11.8188 10.6498 4.90852 9.15345C4.85411 9.12624 4.7997 9.09903 4.74529 9.04462C4.77249 9.04462 1.42619 3.92996 0.310762 2.216C0.174733 1.99835 0.337967 1.69909 0.63723 1.7263C1.23575 1.86233 3.8475 2.43365 5.86072 2.59688C16.3349 3.1682 22.0209 -3.11631 29.6113 2.84173C29.6929 2.89614 29.7201 3.03217 29.6385 3.14099ZM21.0959 16.2269C21.1503 16.2541 21.2047 16.2269 21.2591 16.1725L24.7959 10.6498C24.8503 10.5681 24.7959 10.4865 24.7142 10.4593C19.5724 8.69095 14.757 12.0917 7.41144 12.2821C7.221 12.2821 7.03056 12.4997 7.16659 12.7446L15.0834 24.9871C15.1923 25.2048 15.4643 25.0688 15.4371 24.8783L13.7232 17.1247C13.696 17.0431 13.7504 16.9887 13.8048 16.9615C14.4849 16.771 18.9739 15.2475 21.0959 16.2269Z" fill="#E53D2E"/>
<path d="M119.744 11.0035C119.744 11.5749 119.39 12.0374 118.737 12.0374C118.084 12.0374 117.73 11.5749 117.73 11.0035C117.73 10.4322 118.084 9.96973 118.737 9.96973C119.39 9.96973 119.744 10.4322 119.744 11.0035ZM118.737 11.8741C119.281 11.8741 119.58 11.4932 119.58 11.0035C119.58 10.5138 119.281 10.133 118.737 10.133C118.193 10.133 117.894 10.5138 117.894 11.0035C117.894 11.4932 118.193 11.8741 118.737 11.8741ZM118.9 11.1396C119.308 11.0852 119.281 10.4594 118.819 10.4594C118.655 10.4594 118.492 10.4594 118.329 10.4594V11.5204H118.492V11.1396H118.71L119.036 11.5204H119.227V11.4932L118.9 11.1396ZM118.819 10.6227C119.091 10.6227 119.091 11.0035 118.819 11.0035H118.492V10.6227H118.819Z" fill="#09203F"/>
</g>
<defs>
<clipPath id="clip0">
<rect width="120" height="25.355" fill="white"/>
</clipPath>
</defs>
</svg>
