<svg xmlns="http://www.w3.org/2000/svg" viewBox="0 0 340 160" enable-background="new 0 0 340 160"><path d="m85.29 112.83l1.198-1.437c.83.685 1.7 1.118 2.753 1.118.83 0 1.329-.328 1.329-.867v-.027c0-.512-.315-.777-1.855-1.171-1.856-.474-3.055-.986-3.055-2.818v-.024c0-1.673 1.343-2.78 3.225-2.78 1.343 0 2.489.423 3.422 1.171l-1.052 1.53c-.816-.568-1.618-.91-2.397-.91-.775 0-1.184.355-1.184.803v.029c0 .605.396.8 1.988 1.21 1.869.487 2.923 1.158 2.923 2.763v.027c0 1.831-1.395 2.857-3.384 2.857-1.395-.001-2.804-.487-3.911-1.474"/><path d="m100.74 104.89h1.869l3.951 9.282h-2.118l-.845-2.067h-3.898l-.841 2.067h-2.067l3.949-9.282m2.134 5.424l-1.226-2.989-1.223 2.989h2.449"/><path d="m112.36 106.82h-2.804v-1.871h7.634v1.871h-2.804v7.347h-2.027v-7.347z"/><path d="m122.17 104.95h6.951v1.805h-4.939v1.871h4.345v1.803h-4.345v1.937h5v1.802h-7.02v-9.218"/><path d="m134.42 104.95h2.028v7.376h4.594v1.842h-6.623v-9.218z"/><path d="m145.99 104.95h2.028v7.376h4.594v1.842h-6.623v-9.218z"/><path d="m157.66 104.95h2.027v9.218h-2.027v-9.218"/><path d="m167.56 106.82h-2.806v-1.871h7.636v1.871h-2.804v7.347h-2.027v-7.347z"/><path d="m177.37 104.95h6.951v1.805h-4.937v1.871h4.345v1.803h-4.345v1.937h5v1.802h-7.02v-9.218"/><path d="m196.98 104.95h4.215c1.171 0 2.08.331 2.685.936.515.515.792 1.237.792 2.106v.027c0 1.488-.804 2.422-1.975 2.857l2.251 3.291h-2.37l-1.975-2.949h-.024-1.569v2.949h-2.028v-9.217zm4.083 4.479c.986 0 1.554-.528 1.554-1.305v-.024c0-.869-.605-1.317-1.594-1.317h-2.01v2.646h2.054"/><path d="m213.09 104.89h1.871l3.949 9.282h-2.12l-.841-2.067h-3.898l-.845 2.067h-2.065l3.949-9.282m2.133 5.424l-1.224-2.989-1.224 2.989h2.448"/><path d="m223.75 104.95h3.597c2.897 0 4.898 1.99 4.898 4.585v.026c0 2.593-2 4.607-4.898 4.607h-3.597v-9.218m3.597 7.387c1.659 0 2.777-1.118 2.777-2.751v-.026c0-1.633-1.118-2.778-2.777-2.778h-1.569v5.555h1.569"/><path d="m237.56 104.95h2.027v9.218h-2.027v-9.218"/><path d="m244.91 109.59v-.026c0-2.621 2.067-4.768 4.911-4.768 2.843 0 4.885 2.122 4.885 4.742v.026c0 2.619-2.069 4.765-4.911 4.765-2.845 0-4.885-2.119-4.885-4.739m7.677 0v-.026c0-1.579-1.158-2.897-2.791-2.897-1.633 0-2.765 1.29-2.765 2.871v.026c0 1.58 1.158 2.896 2.791 2.896 1.632 0 2.765-1.291 2.765-2.87"/><path d="m316.21 50.25c5.199 7.596 7.948 16.498 7.948 25.743 0 9.271-2.765 18.19-7.987 25.798-.914 1.332-.576 3.148.754 4.062 1.324.918 3.145.579 4.059-.75 5.894-8.585 9.01-18.651 9.01-29.11 0-10.43-3.101-20.473-8.97-29.05-.91-1.329-2.728-1.67-4.059-.758-1.327.91-1.667 2.731-.755 4.061"/><path d="m306.96 97.85c1.29.967 3.124.703 4.094-.583 4.615-6.143 7.05-13.468 7.05-21.17 0-7.778-2.476-15.15-7.168-21.323-.973-1.287-2.807-1.535-4.091-.565-1.287.983-1.538 2.81-.564 4.096 3.915 5.152 5.982 11.304 5.982 17.792 0 6.43-2.03 12.539-5.885 17.666-.968 1.286-.712 3.118.578 4.09"/><path d="m296.56 90.7c1.258 1.01 3.098.809 4.11-.449 3.251-4.04 5.04-9.132 5.04-14.333 0-5.164-1.676-10.04-4.847-14.09-1-1.276-2.836-1.498-4.104-.5-1.272.991-1.499 2.83-.502 4.099 2.363 3.02 3.611 6.65 3.611 10.495 0 3.927-1.297 7.619-3.751 10.672-1.014 1.26-.812 3.099.443 4.109"/><path d="m23.839 101.79c-5.231-7.604-7.989-16.527-7.989-25.798 0-9.245 2.746-18.15 7.95-25.743.912-1.33.571-3.151-.762-4.06-1.327-.912-3.147-.571-4.059.758-5.874 8.571-8.979 18.614-8.979 29.04 0 10.459 3.119 20.525 9.02 29.11.911 1.329 2.733 1.668 4.062.75 1.33-.913 1.668-2.729.754-4.061"/><path d="m33.724 58.3c.975-1.285.729-3.113-.556-4.096-1.284-.97-3.116-.722-4.092.565-4.689 6.172-7.171 13.545-7.171 21.323 0 7.705 2.44 15.03 7.06 21.17.968 1.285 2.797 1.549 4.089.583 1.289-.972 1.549-2.804.579-4.089-3.848-5.127-5.886-11.237-5.886-17.666-.001-6.489 2.066-12.64 5.978-17.793"/><path d="m34.3 75.916c0 5.201 1.794 10.291 5.05 14.333 1.012 1.258 2.854 1.459 4.109.449 1.255-1.01 1.459-2.849.442-4.11-2.453-3.053-3.75-6.745-3.75-10.672 0-3.845 1.249-7.475 3.613-10.495.993-1.269.764-3.108-.502-4.099-1.274-.997-3.106-.775-4.1.5-3.179 4.058-4.857 8.931-4.857 14.09"/><path d="m62.49 82.4c0 1.351.515 2.384 1.416 3.092.838.643 1.998 1.031 3.288 1.031 2.06 0 4.252-.644 4.252-3.03 0-5.412-20.683-1.094-20.683-14.172 0-8.634 8.956-11.15 15.979-11.15 7.345 0 15.979 1.678 16.753 10.633h-12.178c-.13-1.095-.581-1.869-1.288-2.45-.709-.579-1.676-.836-2.706-.836-2.32 0-3.801.709-3.801 2.384 0 4.704 21.326 1.544 21.326 14.172 0 7.03-5.799 11.791-18.17 11.791-7.731 0-16.234-2.384-16.942-11.467h12.756"/><path d="m87.11 58.23h10.884v5.198h-10.884v-5.198m0 34.855v-27.423h10.884v27.423h-10.884"/><path d="m100.87 65.66h9.891v5.545h.103c1.519-4.289 4.187-6.33 8.426-6.33.469 0 .942.104 1.412.156v10.884c-.732-.104-1.517-.314-2.25-.314-4.446 0-6.695 2.095-6.695 8.01v9.473h-10.887v-27.422"/><path d="m123.02 58.23h10.884v5.198h-10.884v-5.198m0 34.855v-27.423h10.884v27.423h-10.884"/><path d="m166.41 93.08h-10.1v-4.03c-2.72 3.768-5.39 4.815-9.89 4.815-5.967 0-9.839-3.662-9.839-11.512v-16.695h10.886v14.809c0 3.767 1.31 4.972 3.924 4.972 3.138 0 4.134-2.357 4.134-6.592v-13.19h10.884v27.424"/><path d="m177.92 84.55c0 1.099.42 1.937 1.152 2.511.68.526 1.623.84 2.667.84 1.676 0 3.454-.526 3.454-2.461 0-4.396-16.798-.889-16.798-11.513 0-7.01 7.275-9.05 12.977-9.05 5.97 0 12.98 1.359 13.609 8.634h-9.892c-.104-.89-.471-1.517-1.049-1.989-.573-.469-1.361-.679-2.196-.679-1.885 0-3.087.574-3.087 1.935 0 3.821 17.32 1.256 17.32 11.513 0 5.704-4.709 9.576-14.758 9.576-6.28 0-13.186-1.935-13.763-9.314h10.364"/><path d="m206.66 75.25l-11.146-16.11h14.883l4.253 8.441 4.511-8.441h14.689l-11.534 16.04 11.661 17.716h-14.946l-4.768-9.665-4.895 9.665h-14.821l12.11-17.653"/><path d="m234.82 59.14h12.308v5.02c1.675-2.577 4.721-5.987 9.554-5.987 5.589 0 8.97 2.572 10.582 6.182 2.9-4.059 5.441-6.177 10.326-6.179 8.495-.003 12.675 5.535 12.675 14.747v19.973h-13.398v-17.202c0-4.961-.323-6.957-3.869-6.948-3.764.011-3.737 3.404-3.737 7.463v16.686h-13.402v-17.201c0-4.961-.293-6.862-3.862-6.954-3.679-.095-3.774 3.41-3.774 7.469v16.686h-13.402v-33.759"/><path d="m289.79 53.09c-1.989 0-3.605 1.613-3.605 3.595v.019c0 1.971 1.607 3.575 3.586 3.575 1.987 0 3.603-1.612 3.603-3.594v-.02c0-1.971-1.608-3.575-3.584-3.575m-.019 6.718c-1.736 0-3.095-1.363-3.095-3.103v-.02c0-1.752 1.368-3.124 3.115-3.124 1.734 0 3.092 1.364 3.092 3.105v.02c-.001 1.749-1.368 3.122-3.112 3.122"/><path d="m291.42 55.919v-.021c0-.322-.108-.586-.302-.771-.254-.256-.636-.401-1.123-.401h-1.651v3.7h.703v-1.279h.753.018l.899 1.279h.84l-.994-1.396c.507-.145.857-.517.857-1.111m-1.454.615h-.919v-1.172h.919c.459 0 .732.206.732.576v.019c0 .352-.273.577-.732.577"/></svg>
