<?xml version="1.0" encoding="UTF-8" standalone="no"?>
<!-- Generator: Adobe Illustrator 22.1.0, SVG Export Plug-In . SVG Version: 6.00 Build 0)  -->

<svg
   xmlns:dc="http://purl.org/dc/elements/1.1/"
   xmlns:cc="http://creativecommons.org/ns#"
   xmlns:rdf="http://www.w3.org/1999/02/22-rdf-syntax-ns#"
   xmlns:svg="http://www.w3.org/2000/svg"
   xmlns="http://www.w3.org/2000/svg"
   xmlns:sodipodi="http://sodipodi.sourceforge.net/DTD/sodipodi-0.dtd"
   xmlns:inkscape="http://www.inkscape.org/namespaces/inkscape"
   version="1.1"
   id="Layer_1"
   x="0px"
   y="0px"
   viewBox="0 0 576 720"
   style="enable-background:new 0 0 576 720;"
   xml:space="preserve"
   sodipodi:docname="logo_finos_color.svg"
   inkscape:version="0.92.5 (2060ec1f9f, 2020-04-08)"><metadata
   id="metadata29"><rdf:RDF><cc:Work
       rdf:about=""><dc:format>image/svg+xml</dc:format><dc:type
         rdf:resource="http://purl.org/dc/dcmitype/StillImage" /><dc:title></dc:title></cc:Work></rdf:RDF></metadata><defs
   id="defs27" /><sodipodi:namedview
   pagecolor="#ffffff"
   bordercolor="#666666"
   borderopacity="1"
   objecttolerance="10"
   gridtolerance="10"
   guidetolerance="10"
   inkscape:pageopacity="0"
   inkscape:pageshadow="2"
   inkscape:window-width="1109"
   inkscape:window-height="645"
   id="namedview25"
   showgrid="false"
   inkscape:zoom="0.32777778"
   inkscape:cx="629.69492"
   inkscape:cy="360"
   inkscape:window-x="2196"
   inkscape:window-y="168"
   inkscape:window-maximized="0"
   inkscape:current-layer="Layer_1" />
<style
   type="text/css"
   id="style2">
	.st0{fill:#00B5E2;}
	.st1{fill:#0086BF;}
</style>
<g
   id="g8">
	<polygon
   class="st0"
   points="374.1,136.8 374.1,212.1 184.7,272.8 184.7,197.7 373.9,136.9  "
   id="polygon4" />
	<polygon
   class="st0"
   points="184.7,320.2 184.7,453.5 258.3,453.5 258.3,371.7 374.1,334.7 374.1,259.6  "
   id="polygon6" />
</g>
<g
   id="g20">
	<path
   class="st1"
   d="M114.1,527.6h56.2v14.8h-40V558h35.2v14.8h-35.2v28.6h-16.2V527.6z"
   id="path10" />
	<path
   class="st1"
   d="M184.8,527.6h16.2v73.8h-16.2V527.6z"
   id="path12" />
	<path
   class="st1"
   d="M219.5,527.6h15l34.6,45.5v-45.5h16v73.8h-13.8l-35.8-46.9v46.9h-16V527.6z"
   id="path14" />
	<path
   class="st1"
   d="M299,564.7v-0.2c0-21,16.6-38.2,39.3-38.2c22.8,0,39.1,17,39.1,38v0.2c0,21-16.6,38.2-39.3,38.2   S299,585.7,299,564.7z M360.5,564.7v-0.2c0-12.7-9.3-23.2-22.4-23.2s-22.1,10.3-22.1,23v0.2c0,12.7,9.3,23.2,22.4,23.2   S360.5,577.3,360.5,564.7z"
   id="path16" />
	<path
   class="st1"
   d="M385.8,590.6l9.6-11.5c6.6,5.5,13.6,9,22,9c6.6,0,10.7-2.6,10.7-7v-0.2c0-4.1-2.5-6.2-14.9-9.4   c-14.9-3.8-24.5-7.9-24.5-22.6v-0.2c0-13.4,10.8-22.3,25.8-22.3c10.8,0,19.9,3.4,27.4,9.4l-8.4,12.2c-6.5-4.5-13-7.3-19.2-7.3   c-6.2,0-9.5,2.8-9.5,6.4v0.2c0,4.9,3.2,6.4,15.9,9.7c15,3.9,23.4,9.3,23.4,22.1v0.2c0,14.7-11.2,22.9-27.1,22.9   C406,602.5,394.7,598.5,385.8,590.6z"
   id="path18" />
</g>
<path
   class="st1"
   d="M374.1,259.2c0-0.1,0-0.2-0.1-0.2c-0.1-0.1-0.1-0.1-0.1-0.1L301,235.5l-116.3,37.2l0,0.4c0,0.1,0,0.2,0.1,0.2  c0,0,0.1,0.1,0.1,0.1l72.9,23.3l116.2-37.2C374.1,259.6,374.1,259.2,374.1,259.2z"
   id="path22" />
</svg>