<svg xmlns="http://www.w3.org/2000/svg" viewBox="0 0 340 160" enable-background="new 0 0 340 160"><path d="m57.03 131.15h-9.437v-41.39h9.437v41.39"/><path d="m33.26 80.06h-9.409v-31.954h9.409v31.954m-18.905 31.07h-9.35v-21.249h9.35v21.249" opacity=".4"/><path d="m33.26 28.851h14.335v34.06h-14.335v-34.06m-18.905 14.302h9.497v29.634h-9.497v-29.634" opacity=".3"/><path d="m71.33 118.37h-14.307v-42.21h14.307v42.21m-23.744 6.891h-14.335v-62.35h14.335v62.35" opacity=".8"/><path d="m80.77 84.28h-9.437v-21.16h9.437v21.16m-66.42-11.49h9.497v33.975h-9.497v-33.975" opacity=".5"/><path d="m80.77 106.76h-9.437v-22.485h9.437v22.485m-33.18-61.09h9.437v44.08h-9.437v-44.08" opacity=".7"/><path d="M90.18,76.159H80.77V56.844h9.409V76.159z M5,63.116h9.35v26.762H5V63.116z" opacity=".2"/><path d="m90.18 98.58h-9.41v-22.425h9.409v22.425zm-33.15-61.38h14.307v38.956h-14.307v-38.956m-23.772 80.29h-9.409v-37.43h9.409v37.43" opacity=".6"/><path d="m112.41 63.888c0-.299.202-.501.501-.501h18.336c.303 0 .501.202.501.501v4.466c0 .303-.198.501-.501.501h-11.817c-.198 0-.299.101-.299.299v7.925c0 .198.101.303.299.303h10.08c.303 0 .505.198.505.501v4.163c0 .299-.202.496-.505.496h-10.08c-.198 0-.299.106-.299.308v8.775c0 .179.101.289.299.289h12.239c.299 0 .501.221.501.505v4.562c0 .294-.202.505-.501.505h-18.759c-.299 0-.501-.184-.501-.505l.001-33.09"/><path d="m162.09 89.81c0 5.417-4.962 8.173-12.235 8.173-8.27 0-12.134-2.757-12.134-8.173v-25.926c0-.299.198-.501.501-.501h5.665c.303 0 .505.202.505.501v23.973c0 3.905 2.554 4.512 5.564 4.512s5.518-.606 5.518-4.567v-23.918c0-.299.198-.501.501-.501h5.614c.303 0 .501.202.501.501v25.926"/><path d="m244.8 97.49c-.4 0-.551-.184-.703-.602l-9.07-24.571c-.257-.657-.404-1-.703-1-.294 0-.368.096-.368.951v24.722c0 .294-.184.501-.501.501h-4.81c-.294 0-.505-.184-.505-.501v-33.1c0-.299.221-.501.505-.501h8.578c.363 0 .501.253.652.602l8.523 23.721c.257.749.331.799.602.799.257 0 .331-.101.331-.501v-24.12c0-.299.221-.501.501-.501h4.957c.294 0 .505.202.505.501v33.1c0 .294-.184.501-.505.501h-7.985"/><path d="m259.55 63.888c0-.299.184-.501.496-.501h18.336c.294 0 .501.202.501.501v4.466c0 .299-.184.501-.501.501h-11.812c-.221 0-.294.101-.294.299v7.925c0 .198.11.303.294.303h10.08c.294 0 .501.198.501.496v4.162c0 .299-.184.501-.501.501h-10.08c-.221 0-.294.101-.294.303v8.775c0 .184.11.294.294.294h12.235c.289 0 .501.179.501.505v4.562c0 .289-.184.501-.501.501h-18.759c-.294 0-.496-.184-.496-.501v-33.09"/><path d="m309.93 96.86l-10.259-17.592 8.83-15.272c.147-.276-.106-.611-.487-.611h-5.798c-.331 0-.616.156-.836.611l-5.288 9.198-5.412-9.189c-.216-.427-.542-.62-1.038-.62h-5.881c-.391 0-.556.303-.404.629l8.807 15.212-9.896 17.647c-.184.331 0 .62.331.62h6c.423 0 .634-.147.887-.606l6.345-11.38 6.717 11.366c.294.501.528.62.91.62h6.097c.388.001.54-.33.375-.633"/><path d="m319.87 69.16c0-.198-.11-.299-.294-.299h-7.659c-.294 0-.501-.198-.501-.501v-4.47c0-.299.184-.501.501-.501h22.581c.294 0 .501.202.501.501v4.47c0 .303-.184.501-.501.501h-7.65c-.184 0-.294.101-.294.299v27.828c0 .294-.184.501-.501.501h-5.697c-.294 0-.496-.184-.496-.501l.01-27.828"/><path d="m193.43 96.98l-6.667-12.285c-.547-.905-.804-1.456-.804-1.957 0-.202.138-.404.505-.703 3.46-2 4.415-4.714 4.415-9.226 0-6.869-3.864-9.428-11.486-9.428h-10.475c-.317 0-.501.202-.501.501v33.1c0 .317.207.501.501.501h5.669c.312 0 .496-.207.496-.501v-12.04c0-.248.147-.349.404-.349h3.804c.299.046.404.202.804.951l5.807 11.486c.152.34.308.45.602.45h6.671c.402 0 .402-.243.255-.501m-15.226-16.902h-2.752c-.257-.046-.368-.147-.368-.4v-11.132c0-.198.106-.299.652-.299h2.453c4.512 0 5.715 1.149 5.715 5.665h.014c.001 4.461-1.405 6.166-5.714 6.166"/><path d="m219.33 66.05c-2.109-2.509-5.01-3.161-9.878-3.161-4.865 0-7.925.652-10.08 3.161-2.155 2.605-3.363 8.02-3.363 14.394 0 6.368 1.208 11.78 3.363 14.385 2.155 2.513 5.068 3.161 9.924 3.161 4.865 0 7.925-.648 10.03-3.161 2.21-2.605 3.409-8.02 3.409-14.385.001-6.372-1.199-11.789-3.409-14.394m-5.168 25.17c-.799 1.107-2.155 1.254-4.81 1.254-2.559 0-3.965-.152-4.764-1.254-1.103-1.553-1.608-6.02-1.608-10.778 0-4.815.505-9.23 1.608-10.788.799-1.103 2.205-1.25 4.865-1.25 2.554 0 3.91.147 4.709 1.25 1.103 1.558 1.608 5.973 1.608 10.788 0 4.76-.506 9.226-1.608 10.778"/></svg>
