<svg xmlns="http://www.w3.org/2000/svg" viewBox="0 0 340 160" enable-background="new 0 0 340 160"><g fill-rule="evenodd"><path d="m220.28 80.69c.533.692 1.986 2.378 1.205 3.09-.494.436-.895.161-1.815-.555-1.798-1.418-6.397-5.02-11.934-8.185-4.604-2.817-9.318-4.295-11.599-5.254-3.494-1.326-1.909-5.378 1.629-5.376.501 0 1.039.079 1.607.258 11.05 3.739 18.762 13.211 20.907 16.02"/><path d="m297.04 82.27c-4.158-.855-6.995-1.034-14.927-1.034-5.073 0-9.739.417-13.836 1.01 3.261-2.669 6.462-4.666 10.06-6.12 3.754-1.52 7.937-2.48 13.06-3.102 4.322-.431 5.222-1.998 4.959-3.285-.226-1.133-1.389-2.098-3.752-2.098-.337 0-.697.017-1.081.06h.01c-4.644.409-9.07 1.386-13.208 3.045-4.131 1.646-7.987 3.965-11.468 7.05-1.727 1.53-3.317 3.439-4.655 5.53-6.223 1.316-10.462 2.887-11.341 3.224.192-1.353.42-2.656.644-3.963 14.792-5.379 22.01-17.752 26.958-26.457 4.389-7.729 7.734-18.388 7.248-24.39l.002-.001c-.198-2.896-1.376-4.128-3.169-4.128-.538 0-1.133.112-1.77.322h-.003c-16.688 5.967-28.05 21.64-33.01 48.836-.613-.796-1.678-2.416-2.884-4.479.027-.08.056-.157.082-.236 2.299-6.943 3.724-13.548 3.724-18.06 0-8.423-2.97-15.284-7.81-24.685 0-.001.002-.01.002-.011-.585-1.23-1.483-1.751-2.343-1.751-1.046 0-2.036.771-2.343 1.976-3.67 12.422-3.779 21.936-2.311 28.07 1.21 5.03 3.979 10.508 6.697 15.07-.433 1.341-.908 2.604-1.417 3.76-.889-1.41-1.893-2.825-2.952-4.216-4.173-5.465-15.517-19.472-16.598-20.808h-.004c0-.002-.001-.003-.001-.005 0 0-.102-.139-.196-.253-1.855-2.14-4.099-.848-4.193 1.297-.102 2.802 3.484 13.578 5.623 18.718 4.533 10.912 8.242 16.504 11.954 16.33 1.894-.092 3.745-1.209 5.466-3.03.274.758.459 1.448.607 2.106-.688 2.78-5.847 5.768-13.08 4.772-4.168-.364-8.797-2.68-12.472-5.01-3.66-2.311-5.507-3.98-6.253-4.55-.774-.645-1.589-.917-2.341-.917-2.594 0-4.419 3.251-.962 5.713l.002.007c5.373 4.161 14.761 8.101 21.661 8.696 4.413.379 9.296-.255 12.846-2.589l.037-.026c0 0 0 0 0 .001 1.57-.994 3.159-2.603 3.88-4.374.921-2.285.398-5.04-.907-7.958.657-1.114 1.287-2.304 1.866-3.589 1.651 2.502 3.061 4.426 3.764 5.356-.349 2.417-.666 4.891-.923 7.475-.241 2.75 2.368 2.442 4.27 1.84.001-.007.001-.013.002-.02 3.374-1.163 6.412-2.289 9.461-3.159-.356.935-.662 1.877-.891 2.817.008-.002.017.019.025.02-6.806 1.667-10.2 5.618-6.665 12.784-.022-.067-.016-.124-.034-.19.016.054.028.116.044.168.984 1.951 2.395 3.727 4.262 5.909.28.32 1.274 1.572 2.621 3.27.003.002.005.013.007.015-2.684-1.526-5.586-3-8.52-4.338-.901-6.491-2.728-13.488-9.449-13.49-3.427 0-8.134 1.828-14.636 6.47-2.84-.328-5.759-.545-8.688-.545-6.437-.002-12.822.875-18 3.01-6.05 2.333-4.401 8.128 2.063 5.542 6.865-2.832 13.279-4.046 19.507-3.987-5.096 4.467-9.417 9.747-11.317 13.915.001 0 .002.002.002.002-.005 0-.01 0-.015.001-1.671 3.603-.689 5.4 4.205 4.366 10.201-2.152 15.566-7.882 21.929-13.9.28-.268.496-.474.682-.66-.362 2.301-.575 4.959-.682 7.907-.201 5.943 1.24 14.356 3.883 18.43 1.17 1.701 2.918 2.036 5.279-.528-.002-.005-.005-.012-.007-.017.003.005.017.004.02.009 3.729-4 6.111-12.911 5.771-21.23 5.03 2.629 9.697 6.194 15.16 12.186 3.141 3.677 6.757 1.902 5.631-1.989-.057-.238-.152-.483-.259-.731.003.005.013.001.016.007-.702-2.165-2.383-4.84-4.654-8.04-.935-1.309-7.439-8.983-8.807-10.669-1.916-2.392-4.18-5.535-1.431-8.296.471-.205.975-.388 1.501-.557.474 9.933 12.222 10.951 17.556 9.975.847.89 1.706 1.769 2.543 2.669 2.38 2.584 4.833 5.519 10.669 11.862 4.428 4.376 8.155-.054 3.806-4.391-3.482-3.605-8.227-8.12-12.08-11.453 4.111-1.49 8.291-3.885 12.183-6.58-.003-.001-.003-.011-.005-.013 2.153-1.558 2.259-3.925-2.417-4.946-7.592-1.81-15.499-2.909-22.246-2.909h-.02l.002-.012c-2.038 0-3.954.112-5.738.323.004-.003.007-.025.011-.025.258-.836.593-1.671 1.046-2.517.118-.223.264-.446.396-.67 14.442-2.928 27.03-.961 31.377-.201 5.955 1.036 5.858-3.876 1.702-4.729m-69.12 23.928c1.753.276 3.497.68 5.239 1.147-6.546 7.07-12.07 10.264-17.34 11.531 3.194-4.67 7.669-9.253 12.1-12.678m18.19.568c-3.06-1.239-6.04-2.293-8.699-3.041-1.396-.393-2.881-.752-4.43-1.069 6.857-4.491 11.515-5.59 13.13 4.11m-2.959 23.18c.002.004-.006.016-.005.02-.736-1.995-1.425-4.196-1.931-6.544-.9-4.185-1.198-8.842-.134-13.59-.015-.005-.018-.016-.032-.022 1.972.675 3.832 1.353 5.608 2.088.366 6.296-.364 13.452-3.506 18.05m-6.566-49.21c-1 1.152-2.08 1.839-3.23 1.835-2.331-.005-5.428-6.38-8.259-12.998-1.263-2.945-2.183-5.554-2.901-7.857 2.951 3.585 6.06 7.334 7.466 9.04 3.214 3.931 5.436 7.216 6.924 9.977m7.084-26.362c-.022 3.506-.594 8.171-1.594 12.697-1.552-3.142-2.982-6.56-3.705-9.575-1.575-6.561-1.298-13.09.674-21.17 3.01 6.463 4.618 11.705 4.625 18.05m8.866 22.896c4.925-22.8 15.08-37.739 28.15-43.736.122 1.801-.356 4.788-1.706 8.789-3.905 11.591-12.46 29.07-26.44 34.947m9.399 17.768c7.39-1.181 17.46-.184 24.893 1.357-3.41 2.279-6.817 3.968-10.04 4.869-1.126-.888-2.267-1.757-3.434-2.591-.791-.57-1.597-1.126-2.445-1.622-.285-.174-.573-.327-.873-.464-.255-.099-.54-.179-.818-.179-.201 0-.399.042-.58.144h-.007c-.523.322-.429.935-.149 1.396.186.288.402.54.625.803.707.818 1.47 1.602 2.227 2.385.3.313.597.63.898.942-3.833.207-10.01-1.37-10.293-7.04"/><path d="m256.98 38.554c-.588 2.581-1.175 5.098-1.679 6.96-.248.952-.484 1.741-.674 2.281-.094.273-.196.518-.303.707-.36.642-.905.637-1.153.573-.201-.059-.545-.248-.662-.791-.047-.166-.072-.404-.087-.694-.03-.511-.02-1.225.007-2.09.069-1.701.238-3.985.439-6.409.402-4.83.905-9.71 1.096-12.03h-.007c.159-2.792 1.736-4.138 3.184-4.138 1.56 0 2.97 1.557 2.318 4.538-.28 1.175-1.378 6.211-2.479 11.09"/></g><path d="m324.01 466.11c1.36-.046 3.544-.091 5.709-.091 6.118 0 9.933 3.322 9.933 8.658 0 5.916-5.06 8.555-10.05 8.555h-5.59v-17.12m5.63-19.668h-16.06v4.684h4.155c.641-.006 1.178.587 1.18 1.182l-.014 30.924h-5.321v4.694h15.777c9.06 0 15.409-5.42 15.409-13.186 0-8.141-5.961-13.412-15.16-13.412-2 0-4.204.044-5.594.085-.002-3.175 0-8.914 0-9.106 0-.601.456-1.18 1.18-1.182h4.454v-4.683m-91.13 18.907h12.317l-6.138 16.628-6.179-16.628m72.827-18.907h-15.579v4.684h5.182l-.944 26.78-12.259-26.314h-2.384l-12.258 26.314-.938-26.78h5.178v-4.684h-25.546v4.684h4.291l-3.558 9.598h-15.728l-3.552-9.598h4.474v-4.684h-14.06v4.684h3.228c.668 0 1.243.621 1.458 1.182.212.557 11.706 30.924 11.706 30.924h-4.228v4.694h8.872c2.979 0 4.04-2.709 4.361-3.595 0 0 11.952-31.658 12.12-32.02.27-.595.732-1.182 1.466-1.182h3.462c.72 0 1.148.587 1.18 1.182.032.531 1.239 27.476 1.396 30.924h-5.465v4.694h7.948c1.935 0 3.127-1.107 4.25-3.595 1.12-2.489 11.203-24.479 11.203-24.479s10.229 22.23 11.256 24.479c1.134 2.495 2.128 3.595 4.067 3.595h8.02v-4.694h-5.469l1.352-30.924c.03-.583.577-1.188 1.18-1.188l4.323.006v-4.684" transform="matrix(1.25 0 0-1.25-239.57 679.44)"/></svg>
