<svg xmlns="http://www.w3.org/2000/svg" viewBox="0 0 340 160" enable-background="new 0 0 340 160"><path d="m155.85 83.04c0-10.58-15.87-9.522-15.87-9.522h-5.29-7.406v3.438 13.225 2.909 16.399h7.406v-16.398h3.967l11.134 13.535c0 0 2.091 2.863 5.265 2.863h6.083l-14.368-17.15c4.311-1.039 9.08-3.5 9.08-9.3m-8.199.265c-.264 6.877-7.67 6.877-7.67 6.877h-5.29v-13.225h5.29c0 0 7.935-.529 7.67 6.348"/><path d="m297.48 73.52c-1.24 0-2.244 1-2.244 2.244v22.59l-24.598-24.835h-.529-3.703-.529v35.972h4.232v-26.912l25.656 26.12v-.004c.412.487 1.026.797 1.714.797h2.517v-35.97h-2.517"/><path d="M65.656,89.39h-18.25v-15.87H40v35.972h7.406V92.564h18.25v13.225c0,2.045,1.658,3.703,3.703,3.703h3.703
			V73.521h-7.406V89.39z"/><path d="m208.22 109.49h3.703v-35.971h-3.086-4.232-.088v.161l-14.475 26.442-14.884-26.603h-3.174-1.058-3.174v35.972h4.232v-27.21l15.08 26.893v.315h2.38v-.159l15.08-27.357v23.813c0 2.044 1.658 3.702 3.703 3.702"/><path d="m98.82 82.4l6.175 12.02h-9.976l-1.851 3.703h13.73l4.559 8.875c0 0 .887 2.499 3.995 2.499h4.959l-18.515-36.765h-2.645l-19.04 36.765h4.497l14.12-27.09"/><path d="m237.84 72.73l-19.04 36.765h4.496l5.926-11.373h13.647l-1.851-3.703h-9.866l6.262-12.02 12.636 24.596c0 0 .887 2.499 3.995 2.499h4.959l-18.515-36.765h-2.646"/><path d="m249.58 40.642c.102-1.252.162-2.548.162-3.886 0-13.225-11.373-25.921-36.24-25.656-24.863.264-51.841 13.225-51.841 13.225s-28.04 11.638-54.22 34.914h.529 3.703c0 0 40.2-24.616 94.16-24.334 13.639.071 24.269 1.878 32.523 4.478.87 8.21-4.487 19.856-4.487 19.856h10.315c0 0 3.637-6.06 5.03-15.387 13.15 6.941 16.4 15.387 16.4 15.387h4.761c-.001-.001-3.781-10.8-20.793-18.597m-43.22-7.854c-38.3 0-73.21 14.15-89.2 21.749 12.98-9.909 45.926-30.925 76.76-35.24 35.822-5.01 41.75 8.722 43.85 17.15-8.292-2.217-18.61-3.665-31.418-3.665"/><path d="m148.27 142.33c16.243-5.952 28.21-13.794 28.21-13.794h-9.786c0 0-13.711 8.712-31.16 13.962-31.28-1.01-43.43-13.962-43.43-13.962h-1.851c0 0 10.273 12.788 39.22 15.594-4.499 1.067-9.157 1.839-13.824 2.127-25.656 1.587-32-15.08-31.74-17.721h-1.322c0 0 2.116 20.1 32.27 20.366 8.987.079 18.09-1.699 26.446-4.234 42.44-.066 71.15-16.13 71.15-16.13h-2.909c-18.762 8.08-39.442 12.735-61.27 13.795"/></svg>
