<svg viewBox="0 0 290 49" xmlns="http://www.w3.org/2000/svg">
  <g fill="#444" fill-rule="nonzero">
    <path d="M32.638 48.325c-2.838-.263-4.263-4.925-4.1-10.7.187-5.9 1.375-11.35 4.275-11.85l1.15-.163c.612 6.863 2.862 11.863 6.6 12.2l14.987-.087c-.712 6.475-3.1 10.237-5.7 10.487l-17.212.113"/>
    <path d="M32.638 48.325c-2.838-.263-4.263-4.925-4.1-10.7.187-5.9 1.375-11.35 4.275-11.85l1.15-.163c.612 6.863 2.862 11.863 6.6 12.2l14.987-.087c-.712 6.475-3.1 10.237-5.7 10.487l-17.212.113M14.725 27.738c-1.825-.163-2.75-3.175-2.65-6.9.125-3.813.888-7.325 2.763-7.638l11.787-1.7c.15-.05.288-.075.438-.075 1.662 0 2.8 3.45 2.562 8.138-.25 5.012-1.937 7.925-3.788 8.1l-11.112.075"/>
    <path d="M14.725 27.738c-1.825-.163-2.75-3.175-2.65-6.9.125-3.813.888-7.325 2.763-7.638l11.787-1.7c.15-.05.288-.075.438-.075 1.662 0 2.8 3.45 2.562 8.138-.25 5.012-1.937 7.925-3.788 8.1l-11.112.075M2.113 11.7C.825 11.588.188 9.488.263 6.887c.074-2.662.612-5.112 1.924-5.35L10.425.362c.1-.037.212-.05.313-.05 1.175 0 1.95 2.425 1.787 5.688-.175 3.5-1.35 5.537-2.65 5.662l-7.763.038"/>
    <path d="M2.113 11.7C.825 11.588.188 9.488.263 6.887c.074-2.662.612-5.112 1.924-5.35L10.425.362c.1-.037.212-.05.313-.05 1.175 0 1.95 2.425 1.787 5.688-.175 3.5-1.35 5.537-2.65 5.662l-7.763.038M41.413 34.725c-3.138-.275-4.725-5.45-4.538-11.825.212-6.55 1.525-12.562 4.725-13.112l20.237-2.913c.25-.088.5-.125.75-.125 2.863 0 4.775 5.937 4.376 13.962-.4 8.6-3.325 13.575-6.5 13.888l-19.05.125"/>
    <path d="M41.413 34.725c-3.138-.275-4.725-5.45-4.538-11.825.212-6.55 1.525-12.562 4.725-13.112l20.237-2.913c.25-.088.5-.125.75-.125 2.863 0 4.775 5.937 4.376 13.962-.4 8.6-3.325 13.575-6.5 13.888l-19.05.125M117.6 24.888L111.625 35.9l-7.05-.012 8.15-14.1-7.313-13.025h7.325l4.876 10.037L122.5 8.763h7.325l-7.337 13.012 8.125 14.113-7.05-.013-5.963-10.987M142.813 27.238c0 .537.012 1.05.05 1.525.037.475.174.875.412 1.225.237.35.6.612 1.112.787.5.188 1.226.275 2.175.275h3.85l.538.55v1.35c0 1.088-.325 1.85-.95 2.3-.637.45-1.762.675-3.387.675h-1.625c-1.625 0-2.988-.162-4.1-.487-1.1-.326-2-.788-2.688-1.388a4.884 4.884 0 0 1-1.462-2.2c-.288-.863-.438-1.825-.438-2.875l.012-15.3h-3.8V9.337l3.8-.275 1.638-7.324h4.888l-.013 7.05h7.6v4.887h-7.6l-.012 13.562M168.6 13.425h-6.512l-.013 22.512h-6.512l.025-26.85c2.174-.137 3.887-.25 5.15-.325a203.89 203.89 0 0 1 3.174-.162c.85-.037 1.6-.05 2.25-.05h2.438v4.875M188.65 31.337l.012-7.05-7.537-.012c-.762 0-1.363.075-1.787.25-.438.163-.775.375-1 .65a1.77 1.77 0 0 0-.438.925c-.05.35-.088.712-.088 1.112v1.2c0 .363.025.726.075 1.088.05.363.2.675.438.95.238.275.563.488 1 .65.438.163 1.038.25 1.788.25 0-.012 7.537-.013 7.537-.013zM174.025 13.7l-.537-.55v-1.362c0-1.088.312-1.85.95-2.3.637-.45 1.762-.675 3.387-.675l8.138.012c1.625 0 3.025.187 4.174.575 1.163.388 2.113.913 2.875 1.575.763.675 1.313 1.463 1.65 2.387a8.56 8.56 0 0 1 .513 2.95l-.013 19.363c-2.162.138-4.012.25-5.5.325-1.5.075-2.812.125-3.937.163-1.125.037-2.137.05-3.037.05h-2.713c-1.625 0-2.987-.163-4.1-.488-1.1-.325-2-.787-2.688-1.387a4.952 4.952 0 0 1-1.462-2.2 8.734 8.734 0 0 1-.425-2.875v-3.475c0-1.05.15-2.013.437-2.875.288-.863.775-1.6 1.476-2.2.687-.6 1.587-1.05 2.687-1.375 1.1-.325 2.475-.488 4.1-.488h1.9c.475 0 .963.025 1.463.05.512.038 1.15.088 1.924.163.775.075 1.913.187 3.388.325V18.3c0-.612-.038-1.2-.138-1.762a3.09 3.09 0 0 0-.625-1.463c-.325-.412-.8-.75-1.412-1-.613-.25-1.425-.375-2.438-.387l-10.037.012zM220.65 35.975l.012-14.75-13.025-.012-.012 14.762-6.787-.012.025-33.638 6.774.012-.012 13.675 13.025.013.012-13.675 6.788.012L227.425 36l-6.775-.025M246.213 31.112c1.625 0 2.75-.262 3.362-.787.613-.525.925-1.35.925-2.463l.012-10.85c0-1.125-.3-1.937-.924-2.462-.613-.525-1.738-.788-3.363-.788h-2.275c-1.625 0-2.75.263-3.362.788-.613.525-.925 1.35-.925 2.462l-.013 10.85c0 1.125.3 1.95.925 2.475.613.525 1.738.788 3.363.788l2.275-.013zm-4.4 4.875c-1.625 0-2.988-.162-4.1-.487-1.1-.325-2-.787-2.688-1.387a4.884 4.884 0 0 1-1.463-2.2c-.287-.863-.437-1.825-.437-2.875l.012-13.238c0-1.05.15-2.012.438-2.875.288-.862.775-1.6 1.463-2.2.687-.6 1.587-1.05 2.687-1.387 1.1-.326 2.475-.488 4.1-.488h6.513c1.625 0 2.987.162 4.1.488 1.1.325 2 .787 2.687 1.387a4.884 4.884 0 0 1 1.462 2.2c.288.875.438 1.825.425 2.875L257 29.038c0 1.05-.15 2.012-.437 2.875a4.952 4.952 0 0 1-1.463 2.2c-.687.6-1.575 1.062-2.688 1.387-1.1.325-2.475.488-4.1.488h-6.5zM280.063 27.612l.012-10.637c0-.513-.012-.975-.025-1.413a2.119 2.119 0 0 0-.325-1.112c-.2-.313-.525-.538-.975-.7-.45-.163-1.113-.25-1.975-.25h-7.537l-.013 17.9 7.112.012c.938 0 1.663-.087 2.163-.275.512-.175.875-.437 1.113-.787.237-.338.375-.75.412-1.213.025-.475.038-.987.038-1.524zm-2.175 8.675h-1.35c-.513 0-1.1-.012-1.763-.05a88.026 88.026 0 0 1-2.362-.162c-.9-.075-1.976-.188-3.2-.325l-.013 11.125h-6.512l.024-37.7c2.175-.137 4.013-.25 5.513-.325 1.5-.075 2.813-.125 3.938-.163a88.989 88.989 0 0 1 2.987-.05h2.763c1.625 0 2.987.163 4.1.488 1.1.325 2 .788 2.687 1.388a4.884 4.884 0 0 1 1.463 2.2c.287.862.437 1.825.437 2.875l-.013 13.775c0 1.05-.15 2.012-.437 2.875a4.952 4.952 0 0 1-1.462 2.2c-.688.6-1.588 1.05-2.688 1.374-1.125.313-2.488.476-4.113.476zM85.513 8.45c.674-.7 1.937-1.05 3.825-1.05l13.887.012.55-.537V5.25c0-1.088-.313-1.85-.95-2.3-.638-.45-1.763-.675-3.388-.688L86.425 2.25c-1.625 0-2.987.162-4.1.488-1.1.324-2 .787-2.688 1.375a4.884 4.884 0 0 0-1.462 2.2c-.287.862-.437 1.825-.437 2.874v4.288c0 .175.025.337.037.512v9.25c-.025.2-.038.4-.038.613v5.1c0 1.05.138 2.012.438 2.875.288.862.775 1.6 1.463 2.2.687.6 1.575 1.062 2.687 1.387 1.1.326 2.462.488 4.1.488l13.025.012c1.625 0 2.763-.225 3.388-.675.637-.45.95-1.225.95-2.312V31.3l-.538-.538-13.888-.012c-1.887 0-3.162-.35-3.825-1.063-.675-.7-1-1.612-1-2.737v-2.063c0-1.05.3-1.95.9-2.687.6-.738 1.725-1.113 3.388-1.113l9 .013v-4.825l-9.013-.013c-1.662 0-2.787-.375-3.387-1.112-.6-.738-.9-1.638-.888-2.688v-1.25c-.025-1.15.313-2.062.975-2.762"/>
  </g>
</svg>
