<svg xmlns="http://www.w3.org/2000/svg" viewBox="0 0 340 160" enable-background="new 0 0 340 160"><path d="m212.21 460.96c-4.131 0-7.481-3.351-7.481-7.483s3.35-7.481 7.481-7.481c4.133 0 7.481 3.348 7.481 7.481s-3.349 7.483-7.481 7.483m53.641-.026l-.133-.058-.366-.147c-1.812-.744-8.844-2.841-12.07-3.742l-.784-.216v-3.387l1.191.133c.714.081 1.267.081 2.029.081.797 0 1.362-.168 1.684-.496.541-.548.526-1.632.513-2.505 0-.005-.006-.389-.006-.389v-40.37c0-5.489-.341-5.967-4.534-6.411l-.966-.101v-3.324h19.916v3.407l-.176.017c-3.847.41-4.88.522-4.88 6.325v20.351c.482.598 4.02 4.771 8.371 4.771 3.777 0 5.457-2.557 5.457-8.291v-16.919c0-5.328-.92-5.94-4.852-6.235l-.078-.006v-3.422h19.439v3.26l-.882.153c-3.78.668-4.269.759-4.269 6.25v17.264c0 9.773-3.918 14.728-11.632 14.728-4.361 0-8.34-1.859-11.554-5.339v23.77l-1.415.848v.003m-74.69-.049l-.104-.037-.28-.101v.004c-1.541-.552-7.617-2.541-12.517-3.747l-.819-.205v-3.404l1.179.124c2.753.282 3.797-.076 4.186-.427.452-.408.476-1.234.476-2.543v-11.459c-2.518 1.786-4.952 2.563-8.03 2.563-4.885 0-9.743-2.452-13.318-6.728-3.516-4.205-5.532-9.843-5.532-15.471 0-19.741 14.995-20.309 16.705-20.309 4.177 0 7.591 1.299 10.176 3.834v-3.047l1.234-.922 13.877 4.912v3.289l-1.153-.089c-2.697-.21-3.73.183-4.125.545-.4.371-.473 1.018-.473 2.168v50.46l-1.481.591m48.02-19.23c-7.49 0-12.929-4.894-12.929-11.637 0-6.839 5.01-10.235 10.597-13.39l4.978-2.831c2.712-1.528 3.923-3.254 3.923-5.595 0-3.101-2.289-5.03-5.973-5.03-6.793 0-8.834 5.644-9.94 11.168l-.173.859h-3.324v-15.544h2.583l.32.36c.596.672.594.672 1.173.672.998.033 2.287-.271 3.771-.62 1.863-.434 3.978-.925 6.192-.925 5.618 0 13.529 3.768 13.529 12.148 0 5.845-3.5 8.464-7.729 11.05-.004.004-9.288 5.503-9.288 5.503-2.129 1.269-3.168 2.965-3.168 5.177 0 1.812 1.453 4.509 5.457 4.509 2.972 0 6.625-1.103 8.481-9.715l.184-.85h3.26l-.409 13.915h-2.606l-.311-.539c-.14-.253-.372-.404-.614-.404-.135.006-.868.241-1.309.383-1.659.531-4.153 1.331-6.675 1.331m-31.744-2.113c-.173.065-.235-.06-.167-.193.876-1.751 2.203-3.505 4.935-3.505 2.73 0 4.062 1.755 4.938 3.505.065.133.002.258-.173.193-.118-.044-2.02-.747-4.765-.747-2.745 0-4.65.703-4.768.747m-31.932-2.439c4.867 0 7.775-4.083 7.775-8.03v-19.08c-.59-2.461-3.351-4.249-6.573-4.249-4.972 0-10.781 4.318-10.781 16.457 0 10.997 5.159 14.901 9.579 14.901m29.569-6.864c-.107-.015-.134-.134-.066-.268 1.332-2.607 3.278-4.993 7.198-4.993 3.922 0 5.867 2.386 7.195 4.993.094.179.013.331-.199.242-.624-.279-3.351-1.418-6.996-1.418s-6.376 1.14-6.999 1.418c-.053.023-.098.031-.133.026m-2.399-9.919c-.129-.015-.162-.16-.069-.337 1.81-3.509 4.411-6.573 9.599-6.573 5.19 0 7.789 3.064 9.599 6.573.122.236.025.413-.228.303-1.159-.531-4.767-2.139-9.372-2.139-4.603 0-8.213 1.608-9.372 2.139-.061.027-.114.039-.157.034m-2.62-10.822c-.152-.013-.191-.185-.075-.406 2.336-4.502 5.656-8.296 12.226-8.296 6.57 0 9.89 3.795 12.226 8.296.155.295.034.502-.265.363-1.742-.804-6.315-2.926-11.96-2.926-5.647 0-10.217 2.122-11.96 2.926-.076.035-.141.048-.192.043" transform="matrix(1.25 0 0-1.25-112.5 617.48)"/></svg>
