<svg xmlns="http://www.w3.org/2000/svg" viewBox="0 0 340 160" enable-background="new 0 0 340 160"><path d="m55 57.828c0-2.494 1.908-4.474 4.401-4.474 2.491 0 4.474 1.978 4.474 4.474v1.903c2.486-3.588 6.084-6.74 12.1-6.74 8.718 0 13.783 5.864 13.783 14.814v20.664c0 2.499-1.905 4.401-4.406 4.401-2.491 0-4.474-1.903-4.474-4.401v-17.957c0-6.01-3.01-9.459-8.278-9.459-5.133 0-8.721 3.593-8.721 9.602v17.814c0 2.499-1.983 4.401-4.474 4.401-2.419 0-4.401-1.903-4.401-4.401v-30.641"/><path d="m96.05 43.02c0-2.494 1.908-4.404 4.394-4.404 2.499 0 4.481 1.91 4.481 4.404v17.223c2.852-4.03 6.888-7.261 13.195-7.261 9.09 0 17.955 7.188 17.955 20.09v.15c0 12.827-8.793 20.09-17.955 20.09-6.457 0-10.488-3.232-13.195-6.823v1.973c0 2.421-1.983 4.401-4.481 4.401-2.411 0-4.394-1.98-4.394-4.401v-45.44m31.01 30.2v-.15c0-7.471-5.06-12.389-11.07-12.389-6.02 0-11.287 4.99-11.287 12.389v.15c0 7.404 5.271 12.384 11.287 12.384 6.087 0 11.07-4.752 11.07-12.384"/><path d="m140.85 57.828c0-2.494 1.901-4.474 4.397-4.474 2.494 0 4.474 1.978 4.474 4.474v1.903c2.491-3.588 6.079-6.74 12.1-6.74 8.721 0 13.778 5.864 13.778 14.814v20.664c0 2.499-1.905 4.401-4.399 4.401-2.496 0-4.474-1.903-4.474-4.401v-17.957c0-6.01-3-9.459-8.28-9.459-5.135 0-8.721 3.593-8.721 9.602v17.814c0 2.499-1.978 4.401-4.474 4.401-2.419 0-4.397-1.903-4.397-4.401v-30.641"/><path d="m174.57 44.11h-2.085c-.395 0-.702-.32-.702-.697 0-.375.307-.705.702-.705h5.704c.373 0 .68.329.68.705 0 .378-.307.697-.68.697h-2.094v6.501c0 .421-.353.755-.765.755-.421 0-.758-.334-.758-.755v-6.501h-.002"/><path d="m180.42 43.42c0-.416.334-.753.76-.753h.16c.329 0 .547.165.695.397l2.6 4.077 2.617-4.087c.157-.259.378-.385.688-.385h.155c.433 0 .76.337.76.753v7.191c0 .419-.329.755-.76.755-.404 0-.753-.349-.753-.755v-5.154l-2.092 3.155c-.16.249-.353.392-.642.392-.264 0-.46-.145-.62-.392l-2.089-3.126v5.135c0 .416-.327.741-.741.741-.419 0-.741-.324-.741-.741v-7.203h.003"/><path d="m262.1 75.51c.77-.416 1.3-1.227 1.295-2.179.005-.944-.525-1.758-1.295-2.186.685-.557 1.06-1.46.891-2.377-.162-.932-.816-1.641-1.654-1.937.579-.666.794-1.615.47-2.494-.322-.896-1.094-1.482-1.971-1.622.455-.755.511-1.721.029-2.54-.467-.821-1.327-1.261-2.213-1.252.315-.826.194-1.787-.421-2.508-.6-.726-1.528-1.012-2.397-.857.169-.855-.119-1.779-.843-2.397-.731-.6-1.683-.726-2.515-.412.019-.881-.424-1.743-1.249-2.21-.809-.475-1.784-.431-2.545.022-.14-.869-.719-1.639-1.61-1.966-.889-.329-1.833-.104-2.499.465-.295-.828-1-1.484-1.932-1.656-.937-.162-1.825.218-2.382.891-.433-.758-1.237-1.283-2.186-1.283s-1.753.525-2.189 1.295c-.564-.685-1.457-1.063-2.385-.903-.937.169-1.639.828-1.925 1.656-.673-.569-1.617-.787-2.503-.465-.891.327-1.477 1.094-1.61 1.968-.758-.453-1.736-.501-2.549-.027-.823.467-1.266 1.332-1.249 2.215-.823-.315-1.787-.194-2.511.407-.729.62-1.01 1.545-.845 2.407-.867-.162-1.794.121-2.399.847-.61.724-.731 1.683-.416 2.508-.876-.007-1.741.431-2.223 1.252-.467.818-.416 1.784.044 2.54-.879.145-1.658.731-1.973 1.622-.324.879-.104 1.828.467 2.494-.835.295-1.496 1-1.661 1.937-.162.92.215 1.821.903 2.377-.775.431-1.3 1.244-1.3 2.186 0 .949.525 1.765 1.3 2.179-.688.564-1.065 1.462-.903 2.392.162.932.826 1.641 1.661 1.927-.579.656-.799 1.617-.467 2.491.317.893 1.094 1.474 1.966 1.617-.45.765-.501 1.726-.034 2.552.477.813 1.344 1.259 2.223 1.244-.315.826-.194 1.796.416 2.513.605.721 1.533 1.01 2.399.845-.174.864.116 1.787.845 2.397.724.608 1.687.731 2.511.416-.019.879.426 1.746 1.249 2.218.813.465 1.789.424 2.542-.022.14.864.726 1.639 1.617 1.954.886.332 1.83.116 2.501-.465.288.84.99 1.496 1.927 1.663.93.165 1.821-.215 2.385-.901.426.77 1.24 1.295 2.189 1.295.949 0 1.76-.525 2.186-1.295.557.685 1.448 1.065 2.377.905.935-.169 1.641-.828 1.937-1.666.668.581 1.61.804 2.494.472.896-.322 1.479-1.094 1.617-1.961.755.445 1.733.494 2.542.029.821-.479 1.266-1.346 1.249-2.22.833.31 1.784.194 2.515-.414.724-.617 1.012-1.54.843-2.397.869.155 1.796-.131 2.397-.852.608-.717.736-1.687.421-2.506.886.007 1.746-.438 2.213-1.252.482-.826.429-1.784-.029-2.552.876-.143 1.651-.724 1.971-1.61.324-.881.102-1.835-.47-2.499.838-.283 1.489-.995 1.654-1.922.165-.93-.208-1.824-.893-2.393m-4.346 1.47c-.138.763.097 1.496.559 2.041-.673.252-1.247.765-1.506 1.484-.266.731-.167 1.489.199 2.111-.712.128-1.363.545-1.748 1.208-.385.673-.424 1.441-.174 2.104-.719.007-1.431.3-1.927.893-.494.588-.661 1.346-.535 2.051-.714-.116-1.457.048-2.06.542-.583.501-.867 1.211-.874 1.927-.673-.245-1.448-.215-2.116.172-.671.385-1.087 1.039-1.206 1.746-.622-.363-1.382-.458-2.111-.201-.726.271-1.244.84-1.491 1.503-.554-.453-1.288-.695-2.048-.552-.76.128-1.37.593-1.729 1.215-.465-.537-1.15-.901-1.915-.901-.767 0-1.457.356-1.917.901-.363-.622-.973-1.087-1.736-1.215-.758-.145-1.494.092-2.039.552-.252-.671-.765-1.24-1.494-1.503-.731-.264-1.489-.162-2.116.194-.123-.7-.533-1.353-1.201-1.738-.671-.387-1.438-.416-2.111-.172 0-.717-.298-1.433-.884-1.927-.596-.494-1.346-.663-2.051-.542.123-.705-.041-1.462-.55-2.051-.494-.593-1.194-.886-1.91-.893.235-.663.203-1.431-.179-2.104-.39-.671-1.039-1.08-1.746-1.208.358-.622.458-1.38.194-2.109-.261-.721-.833-1.237-1.503-1.487.462-.545.692-1.276.554-2.041-.133-.763-.6-1.373-1.223-1.731.55-.462.905-1.148.903-1.92 0-.772-.353-1.45-.903-1.92.629-.356 1.092-.959 1.23-1.731.133-.758-.097-1.487-.559-2.041.671-.247 1.242-.76 1.503-1.487.264-.724.165-1.484-.194-2.116.707-.126 1.356-.54 1.746-1.201.383-.666.414-1.448.179-2.118.717 0 1.421-.291 1.917-.884.501-.591.663-1.344.542-2.041.705.119 1.455-.053 2.051-.552.586-.489.881-1.203.884-1.915.673.232 1.441.203 2.111-.182.673-.385 1.077-1.029 1.211-1.741.617.361 1.375.458 2.106.196.729-.266 1.247-.83 1.494-1.506.545.458 1.278.692 2.039.554.76-.133 1.37-.598 1.733-1.22.462.552 1.152.905 1.92.905.765 0 1.45-.353 1.915-.905.356.62.966 1.085 1.729 1.218.758.136 1.494-.094 2.048-.554.249.668.758 1.237 1.491 1.508.729.261 1.489.162 2.111-.196.119.709.535 1.356 1.206 1.738.668.385 1.436.416 2.116.182.007.712.291 1.424.874 1.917.603.494 1.346.666 2.06.545-.128.702.041 1.453.535 2.048.496.593 1.208.884 1.927.884-.249.671-.211 1.45.174 2.118.383.661 1.036 1.075 1.748 1.201-.366.632-.465 1.39-.199 2.111.259.731.833 1.247 1.506 1.491-.462.554-.697 1.281-.559 2.041.14.77.61 1.373 1.225 1.731-.55.47-.903 1.148-.905 1.92.002.772.356 1.457.908 1.92-.619.36-1.083.97-1.229 1.733"/><path d="m220.07 96.63c0 1.409-1.143 2.557-2.561 2.557-1.404 0-2.554-1.148-2.554-2.557 0-1.419 1.15-2.557 2.554-2.557 1.418.001 2.561 1.138 2.561 2.557"/><path d="m216.33 92.89c0 1.419-1.148 2.557-2.561 2.557-1.407 0-2.559-1.138-2.559-2.557 0-1.407 1.152-2.547 2.559-2.547 1.413.002 2.561 1.14 2.561 2.547"/><path d="m213.28 88.53c0 1.404-1.14 2.557-2.554 2.557-1.409 0-2.554-1.152-2.554-2.557 0-1.411 1.145-2.557 2.554-2.557 1.414.003 2.554 1.146 2.554 2.557"/><path d="m211.04 83.73c0 1.411-1.143 2.547-2.552 2.547-1.409 0-2.559-1.135-2.559-2.547 0-1.419 1.15-2.559 2.559-2.559 1.41 0 2.552 1.141 2.552 2.559"/><path d="m209.67 78.61c0 1.409-1.14 2.564-2.552 2.564-1.411 0-2.552-1.155-2.552-2.564 0-1.402 1.14-2.552 2.552-2.552 1.411.001 2.552 1.151 2.552 2.552"/><path d="m209.21 73.33c0 1.404-1.14 2.557-2.547 2.557-1.421 0-2.561-1.152-2.561-2.557 0-1.404 1.14-2.559 2.561-2.559 1.409 0 2.547 1.155 2.547 2.559"/><path d="m209.67 68.05c0 1.419-1.14 2.561-2.552 2.561-1.411 0-2.552-1.143-2.552-2.561 0-1.404 1.14-2.552 2.552-2.552 1.411 0 2.552 1.145 2.552 2.552"/><path d="m211.04 62.922c0 1.419-1.143 2.559-2.552 2.559-1.409 0-2.559-1.14-2.559-2.559 0-1.409 1.15-2.554 2.559-2.554 1.41 0 2.552 1.145 2.552 2.554"/><path d="m213.28 58.12c0 1.414-1.14 2.557-2.554 2.557-1.409 0-2.554-1.143-2.554-2.557 0-1.409 1.145-2.564 2.554-2.564 1.414 0 2.554 1.155 2.554 2.564"/><path d="m216.33 53.78c0 1.404-1.148 2.554-2.561 2.554-1.407 0-2.559-1.15-2.559-2.554 0-1.414 1.152-2.559 2.559-2.559 1.413 0 2.561 1.145 2.561 2.559"/><path d="m239.63 42.912c0 1.404-1.143 2.557-2.552 2.557-1.414 0-2.554-1.152-2.554-2.557 0-1.409 1.14-2.561 2.554-2.561 1.41-.001 2.552 1.152 2.552 2.561"/><path d="m244.91 43.37c0 1.407-1.138 2.552-2.557 2.552-1.407 0-2.554-1.145-2.554-2.552 0-1.414 1.148-2.559 2.554-2.559 1.421 0 2.557 1.146 2.557 2.559"/><path d="m259.19 50.02c0 1.414-1.135 2.559-2.554 2.559-1.404 0-2.559-1.145-2.559-2.559 0-1.411 1.155-2.557 2.559-2.557 1.418 0 2.554 1.145 2.554 2.557"/><path d="m262.94 53.78c0 1.404-1.138 2.554-2.552 2.554-1.416 0-2.559-1.15-2.559-2.554 0-1.414 1.143-2.559 2.559-2.559 1.414 0 2.552 1.145 2.552 2.559"/><path d="m265.96 58.12c0 1.414-1.15 2.557-2.559 2.557-1.411 0-2.557-1.143-2.557-2.557 0-1.409 1.145-2.564 2.557-2.564 1.409 0 2.559 1.155 2.559 2.564"/><path d="m268.22 62.922c0 1.419-1.148 2.559-2.554 2.559-1.409 0-2.559-1.14-2.559-2.559 0-1.409 1.15-2.554 2.559-2.554 1.409.002 2.554 1.145 2.554 2.554"/><path d="m269.6 68.05c0 1.419-1.14 2.561-2.559 2.561-1.407 0-2.552-1.143-2.552-2.561 0-1.404 1.145-2.552 2.552-2.552 1.419 0 2.559 1.145 2.559 2.552"/><path d="m270.06 73.33c0 1.404-1.143 2.557-2.559 2.557-1.409 0-2.549-1.152-2.549-2.557 0-1.404 1.14-2.559 2.549-2.559 1.416 0 2.559 1.155 2.559 2.559"/><path d="m269.6 78.61c0 1.409-1.14 2.564-2.559 2.564-1.407 0-2.552-1.155-2.552-2.564 0-1.402 1.145-2.552 2.552-2.552 1.419.001 2.559 1.151 2.559 2.552"/><path d="m268.22 83.73c0 1.411-1.138 2.547-2.552 2.547-1.411 0-2.559-1.135-2.559-2.547 0-1.419 1.148-2.559 2.559-2.559 1.417 0 2.552 1.141 2.552 2.559"/><path d="m265.98 88.53c0 1.404-1.148 2.557-2.561 2.557-1.397 0-2.557-1.152-2.557-2.557 0-1.411 1.16-2.557 2.557-2.557 1.413.003 2.561 1.146 2.561 2.557"/><path d="m262.94 92.87c0 1.411-1.138 2.564-2.547 2.564-1.419 0-2.564-1.152-2.564-2.564 0-1.409 1.145-2.547 2.564-2.547 1.409.003 2.547 1.138 2.547 2.547"/><path d="m259.18 96.63c0 1.404-1.135 2.557-2.549 2.557-1.404 0-2.564-1.152-2.564-2.557 0-1.411 1.16-2.557 2.564-2.557 1.414.001 2.549 1.146 2.549 2.557"/><path d="m254.84 99.67c0 1.411-1.143 2.557-2.559 2.557-1.404 0-2.552-1.145-2.552-2.557 0-1.409 1.148-2.554 2.552-2.554 1.416 0 2.559 1.145 2.559 2.554"/><path d="m250.03 101.91c0 1.419-1.138 2.554-2.552 2.554-1.409 0-2.557-1.135-2.557-2.554 0-1.409 1.148-2.557 2.557-2.557 1.414 0 2.552 1.148 2.552 2.557"/><path d="m234.34 43.37c0 1.419-1.135 2.552-2.554 2.552-1.404 0-2.559-1.133-2.559-2.552 0-1.407 1.155-2.554 2.559-2.554 1.419 0 2.554 1.148 2.554 2.554"/><path d="m210.8 97.22c0 1.223-.995 2.206-2.218 2.206-1.215 0-2.201-.983-2.201-2.206 0-1.223.985-2.203 2.201-2.203 1.223 0 2.218.981 2.218 2.203"/><path d="m257.88 105.52c0 1.225-.993 2.218-2.208 2.218-1.223 0-2.206-.993-2.206-2.218 0-1.211.983-2.198 2.206-2.198 1.216 0 2.208.988 2.208 2.198"/><path d="m263.19 101.81c0 1.218-.995 2.203-2.213 2.203-1.215 0-2.201-.985-2.201-2.203 0-1.223.985-2.21 2.201-2.21 1.218 0 2.213.988 2.213 2.21"/><path d="m267.77 97.22c0 1.223-1 2.21-2.215 2.21-1.218 0-2.198-.988-2.198-2.21 0-1.215.98-2.196 2.198-2.196 1.215 0 2.215.981 2.215 2.196"/><path d="m271.49 91.92c0 1.218-.993 2.206-2.208 2.206-1.223 0-2.206-.988-2.206-2.206 0-1.225.983-2.21 2.206-2.21 1.215 0 2.208.985 2.208 2.21"/><path d="m274.23 86.04c0 1.223-.988 2.21-2.198 2.21-1.227 0-2.215-.988-2.215-2.21 0-1.218.988-2.206 2.215-2.206 1.211.001 2.198.988 2.198 2.206"/><path d="m275.9 79.78c0 1.225-.985 2.206-2.203 2.206-1.22 0-2.206-.981-2.206-2.206 0-1.215.985-2.208 2.206-2.208 1.218 0 2.203.993 2.203 2.208"/><path d="m276.47 73.33c0 1.22-.99 2.206-2.196 2.206-1.23 0-2.213-.985-2.213-2.206 0-1.22.983-2.203 2.213-2.203 1.203 0 2.196.983 2.196 2.203"/><path d="m275.9 66.873c0 1.218-.985 2.201-2.203 2.201-1.22 0-2.206-.983-2.206-2.201 0-1.223.985-2.203 2.206-2.203 1.218 0 2.203.98 2.203 2.203"/><path d="m274.23 60.61c0 1.215-.995 2.203-2.208 2.203-1.22 0-2.203-.988-2.203-2.203 0-1.218.983-2.21 2.203-2.21 1.213 0 2.208.992 2.208 2.21"/><path d="m271.49 54.736c0 1.223-.993 2.203-2.206 2.203-1.225 0-2.208-.981-2.208-2.203 0-1.223.983-2.206 2.208-2.206 1.213.001 2.206.986 2.206 2.206"/><path d="m267.77 49.43c0 1.22-1 2.203-2.208 2.203-1.225 0-2.206-.983-2.206-2.203 0-1.225.981-2.201 2.206-2.201 1.208.001 2.208.976 2.208 2.201"/><path d="m263.19 44.841c0 1.225-.995 2.208-2.213 2.208-1.215 0-2.201-.983-2.201-2.208 0-1.215.985-2.201 2.201-2.201 1.218-.002 2.213.986 2.213 2.201"/><path d="m257.88 41.12c0 1.223-.993 2.21-2.208 2.21-1.223 0-2.206-.988-2.206-2.21 0-1.223.983-2.198 2.206-2.198 1.216-.001 2.208.978 2.208 2.198"/><path d="m207.08 91.92c0 1.218-.99 2.196-2.196 2.196-1.23 0-2.218-.978-2.218-2.196 0-1.232.988-2.21 2.218-2.21 1.206 0 2.196.978 2.196 2.21"/><path d="m204.34 86.04c0 1.218-.99 2.21-2.208 2.21-1.22 0-2.201-.993-2.201-2.21s.981-2.206 2.201-2.206c1.215.001 2.208.988 2.208 2.206"/><path d="m202.66 79.78c0 1.227-.983 2.208-2.203 2.208s-2.196-.981-2.196-2.208c0-1.218.976-2.206 2.196-2.206s2.203.988 2.203 2.206"/><path d="m202.1 73.33c0 1.22-.985 2.206-2.203 2.206-1.223 0-2.208-.985-2.208-2.206 0-1.22.985-2.203 2.208-2.203 1.218 0 2.203.983 2.203 2.203"/><path d="m202.66 66.873c0 1.218-.983 2.201-2.203 2.201s-2.196-.983-2.196-2.201.976-2.203 2.196-2.203 2.203.985 2.203 2.203"/><path d="m204.34 60.61c0 1.213-.99 2.208-2.208 2.208-1.22 0-2.201-.995-2.201-2.208 0-1.22.981-2.208 2.201-2.208 1.215 0 2.208.988 2.208 2.208"/><path d="m269.17 120.86c0 .714-.567 1.288-1.278 1.288-.717 0-1.283-.574-1.283-1.288 0-.702.567-1.281 1.283-1.281.712 0 1.278.579 1.278 1.281"/><path d="m264.04 120.86c0 .714-.576 1.288-1.278 1.288-.712 0-1.288-.574-1.288-1.288 0-.702.576-1.281 1.288-1.281.701 0 1.278.579 1.278 1.281"/><path d="m267.23 125.1c0 .709-.579 1.288-1.288 1.288-.707 0-1.278-.579-1.278-1.288 0-.707.571-1.286 1.278-1.286.71 0 1.288.579 1.288 1.286"/><path d="m270.29 111.5c0 .702-.576 1.281-1.286 1.281-.714 0-1.286-.579-1.286-1.281 0-.707.571-1.281 1.286-1.281.71-.002 1.286.575 1.286 1.281"/><path d="m276.53 105.25c0 .707-.579 1.286-1.278 1.286-.712 0-1.288-.579-1.288-1.286 0-.717.576-1.288 1.288-1.288.7-.002 1.278.572 1.278 1.288"/><path d="m281.6 98c0 .714-.576 1.295-1.281 1.295-.712 0-1.283-.581-1.283-1.295 0-.709.571-1.273 1.283-1.273.702-.003 1.281.564 1.281 1.273"/><path d="m285 90.33c0 .707-.571 1.286-1.281 1.286-.717 0-1.293-.579-1.293-1.286 0-.717.576-1.281 1.293-1.281.71-.002 1.281.564 1.281 1.281"/><path d="m205.15 101.57c0 .959-.78 1.738-1.746 1.738-.951 0-1.731-.777-1.731-1.738 0-.961.78-1.741 1.731-1.741.964 0 1.746.782 1.746 1.741"/><path d="m200.75 95.3c0 .954-.78 1.733-1.736 1.733-.959 0-1.731-.78-1.731-1.733 0-.959.772-1.738 1.731-1.738.956.002 1.736.782 1.736 1.738"/><path d="m197.52 88.35c0 .966-.772 1.738-1.738 1.738-.959 0-1.736-.77-1.736-1.738 0-.954.775-1.731 1.736-1.731.965 0 1.738.779 1.738 1.731"/><path d="m195.54 80.959c0 .959-.777 1.736-1.743 1.736-.959 0-1.738-.775-1.738-1.736 0-.966.78-1.743 1.738-1.743.966.002 1.743.777 1.743 1.743"/><path d="m194.87 73.33c0 .959-.78 1.741-1.736 1.741-.959 0-1.738-.78-1.738-1.741 0-.959.777-1.741 1.738-1.741.956 0 1.736.785 1.736 1.741"/><path d="m195.54 65.7c0 .959-.777 1.736-1.743 1.736-.959 0-1.738-.775-1.738-1.736s.78-1.743 1.738-1.743c.966 0 1.743.78 1.743 1.743"/><path d="m267.06 39.731c0 .954-.777 1.743-1.738 1.743-.961 0-1.741-.789-1.741-1.743 0-.959.777-1.741 1.741-1.741.961 0 1.738.782 1.738 1.741"/><path d="m282.73 73.33c0 .961-.78 1.743-1.736 1.743-.961 0-1.743-.78-1.743-1.743 0-.959.78-1.738 1.743-1.738.954-.001 1.736.779 1.736 1.738"/><path d="m282.09 80.959c0 .956-.782 1.736-1.733 1.736-.959 0-1.741-.78-1.741-1.736 0-.961.782-1.738 1.741-1.738.951.002 1.733.777 1.733 1.738"/><path d="m280.11 88.35c0 .966-.787 1.738-1.743 1.738-.961 0-1.741-.77-1.741-1.738 0-.954.777-1.731 1.741-1.731.956 0 1.743.779 1.743 1.731"/><path d="m276.88 95.3c0 .954-.782 1.733-1.733 1.733-.966 0-1.743-.78-1.743-1.733 0-.959.775-1.738 1.743-1.738.949.002 1.733.782 1.733 1.738"/><path d="m272.48 101.57c0 .959-.78 1.738-1.741 1.738-.959 0-1.741-.777-1.741-1.738 0-.954.782-1.733 1.741-1.733.962 0 1.741.782 1.741 1.733"/><path d="m267.06 106.98c0 .959-.775 1.741-1.731 1.741-.964 0-1.741-.78-1.741-1.741 0-.954.775-1.738 1.741-1.738.956.002 1.731.787 1.731 1.738"/><path d="m260.78 111.38c0 .959-.78 1.743-1.731 1.743-.956 0-1.738-.782-1.738-1.743 0-.959.782-1.738 1.738-1.738.952 0 1.731.78 1.731 1.738"/><path d="m260.83 35.35c0 .959-.782 1.736-1.741 1.736-.966 0-1.743-.775-1.743-1.736 0-.956.775-1.741 1.743-1.741.957 0 1.741.785 1.741 1.741"/><path d="m247.49 73.2c0 5.639-4.561 10.207-10.202 10.207-5.631 0-10.2-4.569-10.2-10.207 0-5.636 4.569-10.205 10.2-10.205 5.641.002 10.202 4.568 10.202 10.205"/><path d="m221.23 63.706c0 1.535 1.252 2.789 2.799 2.789s2.791-1.257 2.791-2.789c0-1.545-1.244-2.799-2.791-2.799s-2.799 1.255-2.799 2.799"/><path d="m255.82 73.33c0-1.395-1.043-2.511-2.382-2.712.845-.487 1.424-1.353 1.424-2.382 0-1.484-1.16-2.673-2.627-2.765.407-.482.685-1.082.685-1.765 0-1.545-1.252-2.799-2.794-2.799-.346 0-.668.082-.978.196.051-.211.128-.414.128-.637 0-1.547-1.249-2.799-2.796-2.799-.724 0-1.382.298-1.876.753.015-.104.065-.201.065-.3 0-1.554-1.254-2.801-2.796-2.801-.893 0-1.656.448-2.167 1.097-.37-1.123-1.387-1.947-2.629-1.947-1.249 0-2.271.823-2.627 1.947-.506-.651-1.261-1.097-2.167-1.097-1.549 0-2.796 1.249-2.796 2.801 0 .099.048.196.058.3-.501-.455-1.148-.753-1.881-.753-1.542 0-2.794 1.254-2.794 2.799s1.254 2.789 2.794 2.789c1.545 0 2.799-1.244 2.799-2.789 0-.116-.051-.201-.061-.31.496.455 1.15.755 1.881.755 1.244 0 2.269-.83 2.624-1.963.513.659 1.269 1.104 2.169 1.104.896 0 1.651-.445 2.167-1.099.361 1.128 1.38 1.959 2.629 1.959.729 0 1.373-.3 1.871-.755-.007.109-.058.194-.058.31 0 1.547 1.252 2.789 2.794 2.789.356 0 .673-.085.976-.191-.053.211-.123.412-.123.642 0 1.477 1.155 2.663 2.624 2.76-.416.482-.688 1.087-.688 1.77 0 1.402 1.041 2.501 2.377 2.712-.828.475-1.416 1.346-1.416 2.382s.588 1.898 1.416 2.38c-1.339.208-2.377 1.312-2.377 2.707 0 .688.271 1.286.688 1.779-1.47.097-2.624 1.269-2.624 2.753 0 .23.068.433.123.639-.303-.107-.62-.194-.976-.194-1.545 0-2.794 1.247-2.794 2.791 0 .116.051.208.058.315-.499-.458-1.145-.753-1.871-.753-1.249 0-2.269.826-2.629 1.949-.516-.654-1.269-1.104-2.167-1.104-.898 0-1.656.453-2.169 1.104-.356-1.123-1.38-1.949-2.624-1.949-.734 0-1.385.293-1.881.753.012-.107.061-.199.061-.315 0-1.547-1.257-2.791-2.799-2.791-.339 0-.663.087-.968.194.044-.206.126-.409.126-.639 0-1.482-1.165-2.656-2.624-2.753.409-.494.68-1.092.68-1.779 0-1.395-1.041-2.499-2.38-2.707.828-.482 1.424-1.346 1.424-2.38 0-1.039-.596-1.908-1.424-2.382 1.341-.211 2.38-1.31 2.38-2.712 0-1.547-1.249-2.791-2.791-2.791-1.557 0-2.799 1.247-2.799 2.791 0 1.031.581 1.896 1.416 2.382-1.336.201-2.38 1.317-2.38 2.712 0 1.392 1.046 2.503 2.38 2.709-.835.487-1.416 1.353-1.416 2.377 0 1.487 1.165 2.673 2.624 2.772-.404.484-.68 1.082-.68 1.763 0 1.549 1.249 2.799 2.799 2.799.344 0 .668-.077.976-.201-.053.218-.136.416-.136.639 0 1.554 1.254 2.806 2.794 2.806.736 0 1.38-.3 1.881-.753-.012.099-.058.191-.058.3 0 1.545 1.249 2.799 2.796 2.799.903 0 1.661-.453 2.167-1.104.356 1.126 1.378 1.956 2.627 1.956 1.24 0 2.259-.83 2.629-1.956.511.654 1.271 1.104 2.167 1.104 1.545 0 2.796-1.257 2.796-2.799 0-.109-.051-.201-.065-.3.494.453 1.155.753 1.876.753 1.549 0 2.796-1.254 2.796-2.806 0-.223-.077-.421-.128-.639.31.123.634.201.978.201 1.545 0 2.794-1.252 2.794-2.799 0-.678-.278-1.276-.685-1.763 1.467-.099 2.627-1.283 2.627-2.772 0-1.027-.579-1.891-1.424-2.377 1.34-.207 2.381-1.318 2.381-2.71"/></svg>
