<svg enable-background="new 0 0 352 153" viewBox="0 0 352 153" xmlns="http://www.w3.org/2000/svg"><path clip-rule="evenodd" d="m37.5 33.4c-8.4 0-14.8 3-18.2 7.7v-6h-19.1v63.5h19.1v-34.6c0-9 4.8-13.1 11.8-13.1 6.1 0 11.1 3.7 11.1 11.6v36.2h19.1v-39c0-17.2-10.9-26.3-23.8-26.3zm50.4 26.9c1.8-6.5 6.6-10 13.9-10 5.7 0 11.4 2.7 13.5 10zm14-26.9c-20.1 0-33.9 14.6-33.9 33.5s13.5 33.5 35.2 33.5c12.1 0 21.5-4.4 27.7-13.1l-15.3-8.8c-2.5 2.8-7 4.8-12.2 4.8-7 0-12.8-2.3-15.3-8.9h45.2c.5-2.4.8-4.9.8-7.6.1-19.1-13.7-33.4-32.2-33.4zm118.8 1.7h-11.5l-9.2 34-9.9-34h-17.8l-9.9 34-9.2-34h-20.3l20.3 63.5h17.8l10.2-33.9 10.2 33.9h17.8l11.5-36z" fill-rule="evenodd"/><path d="m312.5 79c-11.6 0-17.2-10-17.2-28.6s5.6-28.6 17.2-28.6 17.2 10 17.2 28.6c0 18.5-5.6 28.6-17.2 28.6zm0-78.7c-24.9 0-39.2 20.3-39.2 50s14.3 50 39.2 50 39.2-20.3 39.2-50c.1-29.6-14.3-50-39.2-50zm-70.1 2c-3.5 7.9-10.4 12.2-21.7 12.2v20.8c1.3 0 2.6 0 3.8-.1 2-.1 3.8-.3 5.4-.6 4.8-.9 8.3-2.7 11.3-5.8v69.8h22.5v-96.3z" fill="none"/><g clip-rule="evenodd" fill-rule="evenodd"><path d="m131.7 125.5v27.2l-13.9-13.7v-22.7h27.6v22.7z" opacity=".5"/><path d="m131.7 152.7v-27.2l13.7 13.5z" opacity=".25"/><path d="m189.6 119.7 4.2 10.5v-10.5h2.9v14.8h-4.1l-4.3-11v11h-2.9v-14.8zm36 0 2.5 10.3 2.5-10.3h4.9v14.8h-3v-11.7l-3.1 11.7h-2.9l-3-11.6v11.6h-3v-14.8zm20.6 0c1.2.1 2.3.8 2.7 1.9.5 1.4.5 3.4-.5 4.6-.5.5-1.2.8-2.1 1 .2 0 .5.1.8.2.9.2 1.5.6 1.8 1.3.6 1.4.2 3.2.5 4.8l.2 1h-3.1c-.5-1.6.1-3.9-.6-5.3-.5-.9-1.9-.8-2.9-.8v6.1h-3v-14.8s5-.1 6.2 0zm-3.2 2.2v4.2s2 .3 2.8-.6c.5-.7.4-2 .2-2.8-.6-1-2-.8-3-.8zm-79.8-2.2 4.1 14.8h-3.2l-.9-3.3h-4.4l-.9 3.3h-3l4.1-14.8zm-2.2 2.7-1.5 6.6h3.1l-1.5-6.3zm17.4-2.5c.9.1 1.9 1 2.2 2 .3 1.3.3 2.8-.6 3.9-.4.5-1 .7-1.6 1 .5.1.9.3 1.4.5 1.4.9 1.5 2.8 1.3 4.4-.2 1.2-1.4 2.4-2.5 2.6-.5.1-1.1.2-1.6.2h-6v-14.8c2.1 0 5.7-.1 7.4.2zm-2.3 5.8c1.1 0 1.4-.7 1.6-1.2.2-.7.1-1.6-.6-2.2l-.3-.2c-.4-.3-1.9-.2-2.9-.2v3.8zm-2.2 2.3v4.3c1.2-.1 2.5.3 3.4-.4.8-.7.7-2 .4-2.9-.6-1.3-2.5-1-3.8-1zm27.6-.2 2-1.9-1.9-1.9-2 1.9zm11.6-8.1 4.1 14.8h-3.2l-.9-3.3h-4.4l-.9 3.3h-3l4.1-14.8zm-2.1 2.7-1.5 6.6h3.1l-1.5-6.3c-.1 0-.1-.3-.1-.3zm52-.8c1 2.2.8 5.1.8 7.6 0 1.2-.3 3.6-1.8 4.7-1 .7-2.3.9-3.7.9-1.8 0-3.6-.7-4.4-2.4-.8-1.9-.6-4.6-.6-7 0-1.7.2-3.9 1.8-5.1 1.6-1 4.3-1 6.1-.3.7.3 1.4.9 1.8 1.6zm-2.5 2.9c-.1-2.9-1.5-2.8-2.1-2.8s-1.7.3-1.8 2.8v5.2c.2 2.6.8 3.1 2 3.1s1.9-.5 1.9-3.3c0-.1 0-5 0-5zm-260.1 10.2h1.9v-11.8h-1.9zm-.2-14.9h2.2v-2.1h-2.2zm11.8 14.9v-8.2c0-1.3-.4-2.3-2.1-2.3-2.1 0-2.4 1.9-2.4 3.5v7h-1.9v-9.4c0-.8 0-1.6-.1-2.5h2v1.5h.1c.8-1.3 1.6-1.8 3.2-1.8 2.5 0 3.2 1.5 3.2 3.9v8.2zm5.3 0h1.9v-11.8h-1.9zm-.2-14.9h2.2v-2.1h-2.2zm5.6 3.1v-2.3l1.9-.9v3.1h2.6v1.5h-2.6v7.2c0 .8 0 1.7 1.8 1.7.1 0 .4 0 .9-.1v1.5c-.6.1-1.3.2-1.9.2-1.8 0-2.6-.7-2.6-2.1v-8.4h-1.9v-1.5zm6.3 11.8h1.9v-11.8h-1.9zm-.1-14.9h2.1v-2.1h-2.2zm7.1 11.4c0 1.1.6 2.2 1.9 2.2 1.2 0 2.6-.7 2.4-4.5-1.9-.1-4.3-.2-4.3 2.3zm4.3 1.8c-.6 1.4-1.5 1.9-3 1.9-2.5 0-3.2-1.6-3.2-3.9 0-3.6 3.5-3.7 6.2-3.7 0-1.6.1-3.3-2-3.3-1.3 0-2 .9-1.8 2.1h-2.1c.1-2.6 1.5-3.6 4-3.6 3 0 3.8 1.6 3.8 3.6v5.7c0 .9.1 1.9.2 2.8h-2.1zm5.8-10.1v-2.3l1.9-.9v3.1h2.6v1.5h-2.6v7.2c0 .8 0 1.7 1.8 1.7.1 0 .4 0 .9-.1v1.5c-.6.1-1.3.2-1.9.2-1.8 0-2.6-.7-2.6-2.1v-8.4h-1.9v-1.5zm12.8 5c0-3.4-1-3.9-2.4-3.9-1.2 0-2.2.6-2.2 3.9zm-4.6 1.5c0 3.3.9 4 2.4 4 1.3 0 2-1.1 2.1-2.2h2.1c0 2.6-1.6 3.8-4.1 3.8s-4.5-.8-4.5-6c0-3.5.4-6.3 4.5-6.3 3.4 0 4.2 1.8 4.2 5.8v1zm13.9-5.2c-2.1 0-2.3 1.6-2.3 4.8 0 1.8 0 4.4 2.4 4.4 2.2 0 2.2-2.7 2.2-5.1-.1-1.6-.2-4.1-2.3-4.1zm2.2-6.4h1.9v16.9h-1.9v-1.4c-.7 1.1-1.5 1.6-2.7 1.6-1.9 0-3.8-.8-3.8-5.9 0-2.9.1-6.3 3.9-6.3 1.1 0 1.9.5 2.6 1.4h.1zm14.9 15.5c2.4 0 2.4-2.6 2.4-4.4 0-3.2-.3-4.8-2.3-4.8-2.1 0-2.2 2.5-2.2 4.1-.1 1.9-.3 5.1 2.1 5.1zm-2.2 1.4h-1.9v-16.9h1.9v6.3h.1c.7-.9 1.5-1.4 2.6-1.4 3.8 0 3.9 3.4 3.9 6.3 0 5.2-1.9 5.9-3.8 5.9-1.2 0-2.1-.5-2.7-1.6zm13.2-2.2 2.9-9.6h2.1l-5.4 16.3h-2l1.3-4.5-4-11.8h2.2z" opacity=".5"/><path d="m37.5 33.4c-8.4 0-14.8 3-18.2 7.7v-6h-19.1v63.5h19.1v-34.6c0-9 4.8-13.1 11.8-13.1 6.1 0 11.1 3.7 11.1 11.6v36.2h19.1v-39c0-17.2-10.9-26.3-23.8-26.3zm50.4 26.9c1.8-6.5 6.6-10 13.9-10 5.7 0 11.4 2.7 13.5 10zm14-26.9c-20.1 0-33.9 14.6-33.9 33.5s13.5 33.5 35.2 33.5c12.1 0 21.5-4.4 27.7-13.1l-15.3-8.8c-2.5 2.8-7 4.8-12.2 4.8-7 0-12.8-2.3-15.3-8.9h45.2c.5-2.4.8-4.9.8-7.6.1-19.1-13.7-33.4-32.2-33.4zm118.8 1.7h-11.5l-9.2 34-9.9-34h-17.8l-9.9 34-9.2-34h-20.3l20.3 63.5h17.8l10.2-33.9 10.2 33.9h17.8l11.5-36z"/></g><path d="m312.5 79c-11.6 0-17.2-10-17.2-28.6s5.6-28.6 17.2-28.6 17.2 10 17.2 28.6c0 18.5-5.6 28.6-17.2 28.6zm0-78.7c-24.9 0-39.2 20.3-39.2 50s14.3 50 39.2 50 39.2-20.3 39.2-50c.1-29.6-14.3-50-39.2-50zm-70.1 2c-3.5 7.9-10.4 12.2-21.7 12.2v20.8c1.3 0 2.6 0 3.8-.1 2-.1 3.8-.3 5.4-.6 4.8-.9 8.3-2.7 11.3-5.8v69.8h22.5v-96.3z" opacity=".5"/></svg>