<svg xmlns="http://www.w3.org/2000/svg" viewBox="0 0 340 160" enable-background="new 0 0 340 160"><path d="m286.24 110.27c-1.411 0-2.181-1.039-1.924-2.489.257-1.462 1.411-2.489 2.822-2.489 1.411 0 2.181 1.026 1.924 2.489-.256 1.438-1.411 2.489-2.822 2.489m-.128.783c1.796 0 3.464-1.475 3.848-3.271.257-1.822-.898-3.284-2.694-3.284s-3.592 1.462-3.848 3.284c-.385 1.796.898 3.271 2.694 3.271m1.283-2.989c.641 0 1.026-.295 1.155-.962.128-.834-.257-1.09-1.155-1.09h-1.796l-.641 3.54h.77l.257-1.488h.641l.513 1.488h.898l-.642-1.488m-1.283-.539l.128-.975h.898c.257 0 .77 0 .77.449-.128.449-.385.539-.77.526h-1.026m-36.944 3.502l4.618-25.899h10.262l1.668 16.15 7.44-16.15h10.262l-4.618 25.899h-7.697l1.411-7.902.898-4.04 1.283-4.682h-.128l-7.697 16.625h-5.901l-1.667-16.625h-.128l-.257 3.81-.513 4.02-1.539 8.8h-7.697m-12.187-20.242c3.72-.128 4.49 3.63 3.848 7.158-.77 4.272-2.694 7.415-6.414 7.415-4.105 0-4.361-4.118-3.72-7.415.514-3.271 2.438-7.158 6.286-7.158m1.155-6.337c-8.08 0-14.495 5.285-15.907 13.405-1.539 8.813 2.95 13.841 11.03 13.841 7.697 0 14.495-4.952 16.03-13.751 1.283-6.825-1.924-13.495-11.16-13.495m-24.758 10.57c.257-2.681-1.154-4.233-3.848-4.233-2.95 0-5.131 2.553-6.03 7.543-.641 3.63-.513 7.04 3.848 7.04 2.694 0 4.361-1.911 5.131-4.387h8.21c-2.052 6.683-7.568 10.711-14.367 10.711-8.595 0-12.828-5.247-11.289-13.649 1.411-8.377 8.08-13.598 15.265-13.598 7.953 0 11.673 3.925 11.16 10.57h-8.08m-35.15-3.86h1.668c4.49 0 6.03 1.437 5.131 6.85-.898 4.913-3.464 7-7.44 7h-1.77l2.411-13.854m-.77 19.87c8.338 0 14.367-3.72 16.03-13.482 1.539-8.556-2.95-12.417-11.289-12.417h-11.378l-4.567 25.899h11.199m-22.59-8.8h-5.375l4.272-9.287 1.103 9.287m-9.505 8.8l1.565-3.412h8.466l.398 3.412h8.466l-4.721-25.899h-8.633l-13.854 25.899h8.313m-16.638-20.242c3.759-.128 4.541 3.63 3.913 7.158-.757 4.272-2.745 7.415-6.401 7.415-4.079 0-4.349-4.118-3.771-7.415.576-3.271 2.423-7.158 6.259-7.158m1.193-6.337c-8.06 0-14.495 5.285-15.919 13.405-1.565 8.813 2.989 13.841 11.11 13.841 7.658 0 14.47-4.952 16.02-13.751 1.205-6.825-1.976-13.495-11.212-13.495m-31.27 6.709h3.951c1.975 0 3.258.872 2.925 2.707-.308 1.809-1.822 2.476-4.451 2.476h-3.335l.91-5.183m.667 10.839c3.964 0 4.336 1.103 3.746 4.503-.41 2.283-.487 3.951-.372 4.528h8.595l.141-.795c-1 0-.693-1.167-.128-4.528.924-5.221-.629-5.875-3.181-6.85 3.168-.847 4.939-3.361 5.477-6.363.885-5.03-1.552-7.363-10.172-7.363h-12.239l-4.567 25.899h8.492l1.591-9.03h2.591.026m-25.01-1.821c2.694 0 4.631.154 4.22 2.45-.346 1.95-1.988 2.386-4.066 2.386h-3.682l.847-4.836h2.681m1.886-9.02c1.809 0 3.451 0 3.092 2.052-.257 1.514-1.616 2.258-3.31 2.258h-3.515l.757-4.31h2.976m-2.347 19.87c6.696 0 11.468-2 12.494-7.787.487-2.822-.59-5.221-3.271-5.939 1.873-1.078 3.951-3.03 4.413-5.683.911-5.144-3.489-6.491-9.326-6.491h-12.379l-4.554 25.899h12.623m109.78-31.812h-9.647l-4.131-43.2c-.244-2.194-1.373-2.027-1.373-2.027s-1.129-.167-1.385 2.027l-4.143 43.19h-9.685l5.696-46.924c1.603-11.295 9.531-10.814 9.531-10.814s7.953-.511 9.493 10.814l5.644 46.937m-133.62 44.641h12.437c6.735 0 15.201-9.262 26.425-9.146 16.407.18 24.706 16.06 40.42 15.881 10.711-.128 10.891-6.901 14.855-13.636h10.185c-2.925 6.735-7.07 21.41-24.873 21.589-17.946.167-23.14-15.714-40.41-15.714-10.02 0-17.625 8.787-26.772 8.787h-12.27v-7.761m239.96 0h-16.03c-6.799 0-15.265-9.262-26.425-9.146-16.42.18-24.758 16.06-40.41 15.881-10.775-.128-10.904-6.901-14.88-13.636h-10.134c2.822 6.735 7.06 21.41 24.758 21.589 17.959.167 23.22-15.714 40.536-15.714 10.01 0 17.574 8.787 26.682 8.787h15.907v-7.761z"/></svg>
