<?xml version="1.0" encoding="utf-8"?>
<!-- Generator: Adobe Illustrator 23.0.6, SVG Export Plug-In . SVG Version: 6.00 Build 0)  -->
<svg version="1.1" id="Layer_1" xmlns="http://www.w3.org/2000/svg" xmlns:xlink="http://www.w3.org/1999/xlink" x="0px" y="0px"
	 viewBox="0 0 532 380" enable-background="new 0 0 532 380" xml:space="preserve">
<path fill="currentColor" d="M530.6,118.3c0.8,0.7,0.7,2.1-0.5,3.4c-2.3,2.7-60.4,70.9-60.4,70.9s13.6,75.6,14.1,78.8
	c0.5,3.1-0.2,4-3.8,4c-1.9,0-22.7,0.1-31.7,0.1c-3.6,0-4.3-1-4.8-4c-0.6-3.2-14.1-76.2-14.1-76.2s-26.5,73.3-27.8,76.9
	c-1.3,3.6-2.7,3.4-5.1,3.4c-8.3,0-27.5,0.1-31.5,0.1c-6.9,0-7-0.3-4.5-7.4c1.5-4.4,90-254.7,91.3-258.6c1.8-5.4,3.7-6.3,8-6.3
	c3.4,0,25.8,1.1,30.8,1.8c4.7,0.7,5.6,2.2,3.6,8.1C492.6,18,432.4,187,432.4,187s54.1-65.4,56.1-67.8c2-2.4,3.7-3.6,7.3-3.3
	c8.7,0.5,28.3,1.6,31.5,1.7C529,117.7,530,117.8,530.6,118.3L530.6,118.3z M377.4,115c3.1,1.8,3.5,4.1,2,7.1
	c-1,1.9-13.7,25.5-13.7,25.5s-10.8-11.2-17.6-12.6c-6.8-1.5-11.3-0.1-15.2,3.3c-4.4,3.9-8.8,11.5-6.1,19.1
	c1.5,4.2,3.1,7.6,19.8,28.4c20.6,25.7,11.4,53.6,1.3,67.1c-9.7,13-27.2,24.2-44.9,24.8c-25.8,1-40.7-5.1-48.2-9.7
	c-5.7-3.5-6-5.6-3.2-11.7c2.1-4.7,13.2-28.3,13.2-28.3s3,10.2,16.8,15.6c13.9,5.4,25.3,1,30.1-5.9c4-5.8,6.9-20.1-11.2-42.2
	c-8.1-9.9-13.5-20.8-14.8-29.7c-1.3-8.9,0.1-26.2,10.5-40.1c10.2-13.7,27-21.1,49.3-20.1C360.1,106.2,371.8,111.8,377.4,115
	L377.4,115z M160.8,192.6l42.7,0l14-90.9L160.8,192.6z M246.6,4.3c3.7-5.2,10.1-5.8,9.5,2.2c-1.4,18.8-21.4,259-21.7,262.9
	c-0.4,5.2-1.2,6.6-7,6.6c-3.3,0-26,0.1-31.5,0.1c-4.8,0-4.8-1.8-4.4-4.6c0.9-6.5,6.3-43.2,6.3-43.2l-58.1-0.1
	c0,0-87.8,128.6-88.4,129.6c-1.3,2.1-2.4,2.4-5.3,2.4c-8.6,0-37.9,0.1-41.2,0c-4.7,0-6.3-1.3-3.3-5.6
	C3.7,351.5,234.1,22.2,246.6,4.3L246.6,4.3z M119.4,297l13.6,34.6l13.5-34.6h7.4V360h-5.6v-40.1l0-10.3c0-1.3,0-3.2,0-5.8
	c-1.1,4.1-2.5,8.5-4.3,13.3l-11,28.6l-9.3-24c-1.8-4.6-4-10.4-6.5-17.3c0.4,13.6,0.6,21.1,0.6,22.6V360H112V297L119.4,297L119.4,297
	z M192.9,355.5c-4.6,3.7-9.1,5.5-13.5,5.5c-5.1,0-9.3-2.1-12.5-6.2c-3.2-4.1-4.8-9.5-4.8-16c0-6.8,1.6-12.3,4.9-16.5
	c3.3-4.2,7.4-6.3,12.4-6.3c4.4,0,8,1.7,10.7,5.1c2.7,3.4,4,7.7,4,12.8v2.8h-26.2v2.2c0,5.6,1.2,9.8,3.5,12.7s5.1,4.3,8.2,4.3
	c4.3,0,8.7-2.4,13.1-7.2V355.5L192.9,355.5z M188.3,331.9c-0.1-3.6-1-6.3-2.8-8.1c-1.7-1.8-3.7-2.7-6-2.7c-2.3,0-4.5,0.9-6.5,2.7
	c-2,1.8-3.4,4.5-4.3,8.1H188.3z M225.3,297h5.8V360h-5.8v-6c-1.4,2.3-3,4.1-4.8,5.3c-1.8,1.2-3.8,1.8-5.9,1.8c-4.5,0-8.2-2.2-11-6.7
	s-4.2-9.6-4.2-15.5c0-6.3,1.5-11.7,4.6-16.1c3.1-4.5,7-6.7,11.8-6.7c1.5,0,3.1,0.3,4.7,1c1.6,0.7,3.2,1.7,4.8,3.2L225.3,297
	L225.3,297z M225.3,325.6c-1.2-1.4-2.5-2.5-3.9-3.2c-1.4-0.7-2.9-1.1-4.5-1.1c-3.4,0-6.1,1.6-8.4,4.8c-2.2,3.2-3.4,7.4-3.4,12.6
	c0,4.9,1,9,2.9,12.2s4.5,4.8,7.5,4.8c2.7,0,5-1.2,6.8-3.6c1.9-2.4,2.8-5.4,2.8-9L225.3,325.6L225.3,325.6z M243.3,297.9
	c2.2,0,3.4,1.7,3.4,5.1c0,3.6-1.1,5.4-3.4,5.4c-2.2,0-3.3-1.7-3.3-5.2C239.9,299.7,241.1,297.9,243.3,297.9L243.3,297.9z M240.4,317
	h5.7v43h-5.7V317z M256.6,319.8c4.6-2.6,8.5-3.8,11.6-3.8c4.5,0,8,1.3,10.3,3.9c2.3,2.6,3.5,6.2,3.5,10.6v22.7
	c0,1.7,0.8,2.5,2.4,2.5c0.8,0,1.6-0.2,2.4-0.7v4.9c-1.5,0.7-2.9,1-4.4,1c-3.9,0-5.9-2.3-6.1-6.9c-1.5,2.3-3.1,4-4.9,5.2
	c-1.8,1.2-3.8,1.7-5.9,1.7c-3.4,0-6.3-1.2-8.6-3.7c-2.3-2.5-3.5-5.5-3.5-9.2c0-3.8,1.4-7,4.3-9.5c2.9-2.5,9.1-4.2,18.6-5.1v-3.7
	c0-2.4-0.8-4.4-2.4-6c-1.6-1.6-3.6-2.4-5.9-2.4c-3.4,0-7.2,1.7-11.4,5L256.6,319.8L256.6,319.8z M276.3,337.8
	c-7.5,0.9-12.2,2.2-14.2,3.8c-2,1.6-3,3.7-3,6.2c0,2.3,0.7,4.2,2.2,5.7c1.4,1.5,3.3,2.2,5.5,2.2c2.7,0,5-1.1,6.8-3.4
	c1.8-2.3,2.7-5.2,2.7-8.8L276.3,337.8L276.3,337.8z M340.1,353.8c-1.4,2.4-3,4.2-4.8,5.4c-1.8,1.2-3.8,1.8-6,1.8
	c-3.4,0-6.7-1.4-9.7-4.3c-3-2.9-5.3-6.8-6.7-11.9c-1.4-5.1-2.1-10.3-2.1-15.7c0-10,2.1-18,6.2-24.1s9.6-9,16.3-9
	c3.8,0,7.7,1.3,11.6,3.9v7.6c-4.1-3.9-8.1-5.8-11.8-5.8c-4.9,0-8.8,2.5-11.8,7.5c-2.9,5-4.4,11.8-4.4,20.4c0,7.1,1.2,13.1,3.7,18.1
	c2.5,5,5.6,7.5,9.4,7.5c2.7,0,5.1-1.3,7-4c2-2.7,2.9-6,2.9-9.9v-7.5h-11.6v-5.4h17.8V360h-3.9L340.1,353.8L340.1,353.8z
	 M359.9,323.3c1.4-2.5,2.9-4.3,4.6-5.5c1.7-1.2,3.5-1.8,5.5-1.8c1.5,0,3,0.3,4.5,1v5.3c-1.8-0.7-3.2-1-4.4-1c-2.9,0-5.3,1.3-7.2,4
	c-1.9,2.7-2.9,5.7-2.9,9.2V360h-5.6v-43h5.1L359.9,323.3L359.9,323.3z M395.4,316c4.7,0,8.7,2.1,11.9,6.2s4.8,9.5,4.8,16.3
	c0,3.9-0.6,7.6-1.9,11.1c-1.3,3.5-3.2,6.2-5.8,8.3c-2.6,2.1-5.7,3.1-9.1,3.1c-5.2,0-9.2-2.1-12.2-6.4c-3-4.2-4.5-9.5-4.5-15.9
	c0-5.1,0.9-9.5,2.8-13.2c1.9-3.7,4.2-6.2,6.9-7.5C390.9,316.6,393.3,316,395.4,316L395.4,316z M395.8,321.3c-3.8,0-6.6,1.6-8.5,4.8
	c-1.9,3.2-2.9,7.5-2.9,13c0,4.7,0.9,8.7,2.8,11.9c1.9,3.2,4.5,4.8,7.9,4.8c3.2,0,5.8-1.5,7.9-4.4c2.1-3,3.1-7.3,3.1-13
	c0-5.4-1-9.6-3-12.6C401.1,322.8,398.6,321.3,395.8,321.3L395.8,321.3z M442.3,317h5.7v43h-5.7v-5.9c-1.6,2.3-3.4,4-5.3,5.2
	c-1.9,1.2-4,1.7-6.2,1.7c-3.7,0-6.6-1.2-8.6-3.7c-2.1-2.5-3.1-5.8-3.1-10V317h5.6v30.2c0,2.9,0.6,5,1.8,6.4c1.2,1.4,3,2.1,5.4,2.1
	c3,0,5.5-1.3,7.4-3.8c1.9-2.5,2.9-5.8,2.9-9.8V317L442.3,317z M463,380h-5.6v-63h5.1l0.5,6.2c1.5-2.4,3.2-4.2,5-5.4
	c1.8-1.2,3.8-1.8,5.9-1.8c4.6,0,8.3,2.1,11,6.4c2.7,4.3,4.1,9.5,4.1,15.7c0,7.5-1.7,13.2-5.2,17.1c-3.5,3.9-7.3,5.8-11.5,5.8
	c-1.6,0-3.3-0.4-4.8-1c-1.5-0.7-3-1.7-4.5-3.1V380z M463,351.5c1.2,1.4,2.6,2.5,4,3.2c1.4,0.7,2.9,1.1,4.5,1.1
	c3.4,0,6.2-1.6,8.4-4.8c2.2-3.2,3.3-7.4,3.3-12.6c0-4.8-1-8.8-2.9-12.1s-4.5-5-7.6-5c-2.8,0-5.1,1.3-6.9,3.9
	c-1.8,2.6-2.7,5.7-2.7,9.1L463,351.5L463,351.5z"/>
</svg>
