<svg enable-background="new 0 0 485 146" viewBox="0 0 485 146" xmlns="http://www.w3.org/2000/svg"><path d="m272.402 48.205h18.495c5.701 0 7.292.199 9.28 1.061 3.646 1.591 5.369 5.568 5.369 12.595 0 6.629-1.657 10.341-5.369 12.131-2.055.994-2.386.994-10.01 1.127h-12.793v17.301h-4.972zm16.771 22.604c9.811 0 11.402-1.193 11.402-8.684 0-5.767-.663-7.955-2.718-8.883-1.325-.597-1.856-.663-7.093-.729h-13.39v18.296z"/><path d="m311.247 70.146c.133-7.424 2.453-9.148 12.33-9.148 10.01 0 12.86 2.453 12.86 11.004v20.417h-4.507l.331-3.314-.066-.066c-1.922 2.917-4.507 3.845-10.54 3.845-8.618 0-11.667-2.453-11.667-9.413 0-3.58 1.127-6.761 2.85-8.021 1.657-1.259 4.707-1.856 9.016-1.856 3.314 0 5.966.398 7.822 1.127 1.061.398 1.525.862 2.121 2.055l.133-.066v-3.712c0-7.225-1.26-8.485-8.087-8.485-6.231 0-8.087 1.061-8.087 4.64v.994h-4.509zm3.447 12.595c0 5.171 1.392 6.297 7.822 6.297 4.043 0 6.894-.597 8.286-1.79.928-.729 1.326-1.989 1.326-3.911 0-4.706-1.989-6.098-8.75-6.098-7.226 0-8.684.928-8.684 5.502z"/><path d="m348.699 61.463-.464 3.58.133.066c1.922-3.182 4.375-4.375 8.816-4.375 5.9 0 8.551 2.784 8.551 8.816v2.121h-4.441v-2.519c0-3.248-1.458-4.574-5.104-4.574-3.248 0-5.634 1.127-6.629 3.182-.597 1.259-.862 3.049-.862 6.099v18.56h-4.507v-30.956z"/><path d="m389.134 65.241h-11.932v18.959c0 3.845.862 4.839 4.309 4.839 3.778 0 4.64-1.061 4.64-5.9 0-.464 0-.862-.067-1.657h4.176c.067.928.067 1.856.067 2.32 0 6.364-2.652 9.081-8.883 9.081-4.772 0-7.292-1.26-8.286-3.977-.398-1.127-.464-1.922-.464-4.706v-18.959h-4.309v-3.778h4.309v-7.424h4.507v7.424h11.932v3.778z"/><path d="m399.805 61.463-.066 4.242.066.066c1.458-3.381 4.507-4.773 10.341-4.773 5.104 0 8.485 1.326 10.076 3.977.795 1.326 1.06 3.049 1.06 7.292v20.151h-4.507v-19.753c0-3.314-.133-4.242-.729-5.436-.795-1.724-2.718-2.386-6.562-2.386-6.828 0-9.479 2.519-9.479 8.949v18.627h-4.706v-30.956z"/><path d="m455.42 83.073c.066.53.066 1.127.066 1.259 0 6.364-3.447 8.551-13.324 8.551-11.203 0-13.788-2.983-13.788-16.042 0-12.793 2.652-15.843 13.92-15.843 7.623 0 10.673 1.458 12.197 5.9.729 2.188.928 3.977.928 10.871h-22.273c.066 9.811 1.193 11.269 8.949 11.269s8.75-.663 8.684-5.966h4.641zm-4.64-8.817c-.066-4.309-.132-5.038-.663-6.563-.795-2.254-2.784-3.049-7.756-3.049-7.756 0-9.214 1.525-9.148 9.612z"/><path d="m467.087 61.463-.464 3.58.132.066c1.922-3.182 4.375-4.375 8.816-4.375 5.9 0 8.551 2.784 8.551 8.816v2.121h-4.441v-2.519c0-3.248-1.458-4.574-5.104-4.574-3.248 0-5.634 1.127-6.629 3.182-.597 1.259-.862 3.049-.862 6.099v18.56h-4.507v-30.956z"/><path d="m257.24 143.326v-142.673" fill="none" stroke="#000" stroke-miterlimit="10" stroke-width="1.4649"/><path d="m139.04 118.299c8.36 6.652 17.307 12.026 26.987 15.371 7.115 2.458 13.687 4.096 19.559 5.17-5.585-5.408-9.481-12.546-10.822-20.541z"/><path d="m129.409 87.839-20.825-18.819-3.178-.021v13.92c1.301 1.648 2.615 3.29 3.944 4.92z"/><path d="m56.062 23.428c9.43.373 15.645 2.251 19.46 6.345 1.843 1.978 2.476 4.042 3.064 4.954v-9.994c-11.653-12.399-24.505-21.217-41.278-21.217-8.804 0-14.502 5.632-18.109 11.835 3.302-1.429 7.322-2.266 12.153-2.266 8.705 0 16.796 3.891 24.71 10.343z"/><path d="m15.22 87.839c2.94.47 6.422.659 10.503.659h22.339c6.086 0 10.996-.165 14.942-.659 11.942-1.497 15.042-6.021 15.042-18.194 0-17.521-6.646-19.267-35.298-19.183-19.763.082-22.007-.084-22.007-5.316 0-3.241 2.822-4.653 6.976-4.653h20.429c8.47 0 8.971 1.829 8.971 6.23h14.09 4.348v-1.912c0-.303-.002-.603-.006-.9-.106-8.48-1.886-14.653-14.826-16.38-2.39-.319-5.156-.488-8.367-.49-.02 0-.038 0-.058 0h-25.746c-23.257 0-24.249 8.386-24.249 19.269 0 14.781 3.156 18.105 30.895 18.105 23.752 0 25.91.333 25.91 5.564 0 4.649-3.983 5.066-7.89 5.066h-22.589c-5.317 0-7.888-.499-7.973-6.894h-18.438v4.155c0 9.866 3.857 14.071 13.002 15.533z"/><path d="m227.655 78.691-28.028-50.986h-24l-26.615 49.154-23.38-19.751 32.555-29.403h-25.083l-23.255 22.094h-4.536-4.098v-5.419-16.676h-13.11-5.33v1.686 23.736 8.517 26.196h18.441v-1.919-8.378-12.794h8.139l3.966 3.446 22.607 19.644h6.843.297v.001h20.598l5.4-10.635h29.645c.485-.177.975-.344 1.469-.501.022-.007.043-.014.065-.021.467-.148.94-.284 1.415-.414 1.05-.287 2.118-.533 3.203-.728.034-.006.069-.011.103-.017.455-.08.913-.151 1.373-.215.13-.018.261-.034.391-.05.372-.047.745-.089 1.12-.125.159-.015.318-.031.477-.044.367-.031.736-.054 1.106-.074.15-.008.3-.019.451-.025.513-.021 1.028-.034 1.547-.034.586 0 1.168.017 1.748.044.083.004.167.007.251.011.547.029 1.09.071 1.63.124.109.011.219.022.328.033.529.056 1.055.123 1.577.201.108.017.214.035.322.051.529.084 1.056.176 1.579.283.07.014.139.031.209.046.471.099.938.208 1.403.324.117.03.234.057.351.087.472.124.939.258 1.404.4.151.046.302.092.453.14.445.142.886.291 1.324.449.161.058.32.119.479.178.409.154.815.313 1.216.48.17.071.338.145.507.219.335.146.667.296.997.451.146.073.297.142.446.214zm-51.696-14.442 11.626-22.594 11.96 22.594z"/><path d="m82.585 99.797c-.459 0-.634.103-.634.5v6.226c0 .398.175.498.634.498.452 0 .63-.101.63-.498v-6.226c0-.397-.177-.5-.63-.5z"/><path d="m18.62 99.798c-.455 0-.632.102-.632.499v6.226c0 .396.177.5.632.5s.63-.104.63-.5v-.088l-1.043-1.497.751-.985.264.412h.028v-4.069c0-.396-.175-.498-.63-.498z"/><path d="m35.048 99.563-.574 4.788h1.176l-.574-4.788z"/><path d="m43.445 99.914h-.735v3.32h.469c.867 0 1.012-.235 1.012-.925v-1.603c.001-.54-.219-.792-.746-.792z"/><path d="m116.922 99.914h-.735v3.32h.469c.867 0 1.013-.235 1.013-.925v-1.603c0-.54-.219-.792-.747-.792z"/><path d="m161.551 99.563h-.03l-.126 1.056-.445 3.732h1.172l-.439-3.689z"/><path d="m126.186 113.922h7.638 40.446c-.008-.339-.024-.675-.024-1.017 0-.158.006-.315.007-.473.033-3.088.385-6.094 1.029-8.979.157-.706.334-1.402.525-2.092.491-1.778 1.093-3.505 1.797-5.171.577-1.366 1.218-2.694 1.927-3.974h-6.091-21.834-11.553-5.801-21.275-6.698-.873-27.776-5.104-65.516-5.132v21.706zm-115.583-5.08c-2.643 0-3.128-.616-3.128-2.73v-.881h2.262v.763c0 .736 0 1.029.719 1.029.544 0 .72-.178.72-.633v-1.144c0-.734-.163-.78-1.439-1.086-1.896-.454-2.262-.913-2.262-2.804v-.647c0-2.483.763-2.732 3.083-2.732 2.115 0 2.82.586 2.82 2.07v1.276h-2.174v-.514c0-.939-.072-1.013-.688-1.013-.648 0-.691.265-.691.765v.706c0 .675.175.79.894.968 2.6.676 2.894.866 2.894 3.598.001 2.556-.939 3.009-3.01 3.009zm10.704.545-.604-.867c-.483.235-1.204.324-2.083.324-2.043 0-3.158-.455-3.158-2.189v-6.49c0-1.733 1.115-2.189 3.158-2.189 2.041 0 3.156.456 3.156 2.189v6.49c0 .399-.059.72-.175.999l.529.735zm8.619-3.201c0 2.363-1.131 2.655-3.084 2.655-1.954 0-3.084-.292-3.084-2.655v-8.093h2.436v8.166c0 .412.161.673.648.673.483 0 .644-.261.644-.673v-8.166h2.44zm6.237 2.54-.308-2.555h-1.586l-.308 2.555h-2.484l1.602-10.631h3.965l1.602 10.631zm10.468-6.814c0 1.614-.632 1.981-1.66 2.158v.029c1.087.237 1.66.426 1.66 1.734v2.894h-2.439v-3.042c0-.438-.249-.628-1.069-.628h-.412v3.671h-2.44v-10.635h3.011c2.614 0 3.349.545 3.349 2.541zm6.989 6.814h-4.863v-10.632h4.685v1.909h-2.248v2.336h2.087v1.821h-2.087v2.658h2.425v1.908zm10.508 0-1.819-4.743h-.03l.016.029v4.714h-2.44v-10.632h2.44v4.479l-.016.029h.03l1.556-4.508h2.614l-2.069 5.053 2.333 5.579zm6.536-.001h-2.44v-10.631h2.44zm7.151.001h-4.805v-10.632h2.438v8.724h2.367zm7.926-2.072c0 1.734-1.115 2.189-3.156 2.189-2.043 0-3.158-.455-3.158-2.189v-6.49c0-1.734 1.115-2.189 3.158-2.189 2.041 0 3.156.455 3.156 2.189zm12.126 2.071h-2.218l.088-8.957h-.027l-1.57 8.957h-2.792l-1.353-8.985h-.028v8.985h-2.173v-10.631h3.832l1.189 8.37h.03l1.19-8.37h3.832zm7.061.001h-4.863v-10.632h4.686v1.909h-2.246v2.336h2.083v1.821h-2.083v2.658h2.424v1.908zm5.52-8.723v8.725h-2.438v-8.725h-1.705v-1.909h3.454 2.393v1.909h-.732zm7.221 8.724v-1.869-1.173c0-.438-.249-.628-1.068-.628h-.413v.224 3.446h-2.439v-6.108-4.525h2.86.151c2.614 0 3.349.545 3.349 2.541v1.278c0 .006-.001.011-.001.018-.004 1.599-.637 1.964-1.661 2.14v.029c1.088.237 1.662.426 1.662 1.734v2.894h-.64-1.8zm4.566-.001v-4.549-6.082h4.686v1.909h-2.248v2.336h2.087v1.821h-2.087v2.507.151h.152 2.274v1.908h-.342-4.522zm15.21 0-.307-2.555h-1.587l-.307 2.555h-2.484l1.6-10.631h3.967l1.6 10.631zm10.47-6.814c0 1.614-.631 1.981-1.66 2.158v.029c1.084.237 1.66.426 1.66 1.734v2.894h-2.441v-3.042c0-.438-.247-.628-1.068-.628h-.413v3.671h-2.437v-10.635h3.011c2.612 0 3.349.545 3.349 2.541v1.278zm8.487 0c0 1.614-.634 1.981-1.663 2.158v.029c1.086.237 1.663.426 1.663 1.734v2.894h-2.442v-3.042c0-.438-.249-.628-1.069-.628h-.411v3.671h-2.438v-10.635h1.135 1.876c2.082 0 2.971.349 3.247 1.5.07.293.103.636.103 1.041v1.278zm6.234 6.814-.306-2.555h-1.588l-.307 2.555h-2.484l1.279-8.488.323-2.143h3.966l.432 2.872 1.167 7.759zm6.799-3.436v3.436h-2.351v-3.436l-1.285-4.141-.947-3.054h2.411l.656 3.197.327 1.592h.027l.322-1.56.665-3.228h2.406l-1.017 3.278z"/><path d="m153.214 99.914h-.736v3.32h.469c.868 0 1.011-.235 1.011-.925v-1.603c.001-.54-.216-.792-.744-.792z"/><path d="m144.729 99.914h-.737v3.32h.471c.867 0 1.01-.235 1.01-.925v-1.603c0-.54-.217-.792-.744-.792z"/><path d="m136.329 99.563-.572 4.788h1.174l-.571-4.788z"/><path d="m239.357 94.444c-.65-1.023-1.353-2.009-2.108-2.952-1.042-1.301-2.178-2.523-3.401-3.652-.696-.642-1.421-1.251-2.17-1.833-5.595-4.341-12.616-6.933-20.247-6.933-1.307 0-2.595.078-3.861.225-4.783.557-9.254 2.135-13.19 4.51-1.925 1.161-3.722 2.514-5.365 4.03-1.52 1.403-2.91 2.943-4.145 4.606-4.087 5.502-6.506 12.316-6.506 19.696 0 .325.015.645.025.968.051 1.769.246 3.501.564 5.189 2.885 15.319 16.321 26.911 32.479 26.911 18.263 0 33.068-14.805 33.068-33.068-.002-6.511-1.892-12.579-5.143-17.697z"/><g fill="#fff"><path d="m223.902 83.955c-.045.012-.09.023-.135.036.636.416 1.208.882 1.69 1.39.062.002.124.004.186.006-.497-.524-1.086-1.004-1.741-1.432m-2.259-1.173c-.023.023-.046.046-.069.07.744.303 1.452.665 2.097 1.077.044-.013.088-.025.132-.037-.664-.426-1.393-.799-2.16-1.11m-2.505-.772c.002.03.003.061.004.092.791.17 1.574.407 2.322.704.022-.024.044-.048.065-.071-.77-.305-1.577-.55-2.391-.725m-2.563-.31c.027.034.053.067.079.102.779.019 1.578.114 2.37.277-.003-.031-.005-.062-.008-.093-.815-.169-1.638-.267-2.441-.286m-2.428.208c.05.032.1.063.15.096.708-.15 1.465-.216 2.242-.204-.028-.034-.055-.068-.083-.102-.8-.012-1.579.055-2.309.21m-1.958.722c.069.024.138.049.208.074.496-.289 1.097-.52 1.797-.678-.051-.032-.102-.063-.154-.095-.721.163-1.34.401-1.851.699m-1.248 1.119c.081.014.163.027.244.042.271-.395.652-.748 1.138-1.043-.07-.025-.14-.049-.21-.073-.5.304-.892.667-1.172 1.074m-.499 1.408h.259c.035-.468.185-.909.445-1.308-.082-.014-.164-.027-.245-.04-.269.412-.423.866-.459 1.348m.286 1.591c.083-.016.167-.031.25-.046-.213-.507-.306-1.004-.282-1.474-.086 0-.173.001-.259.002-.023.484.072.995.291 1.518m1.11 1.666c.073-.032.145-.063.218-.095-.473-.514-.819-1.033-1.044-1.541-.083.016-.166.032-.249.048.231.524.588 1.058 1.075 1.588m1.819 1.518c.055-.047.11-.093.165-.139-.638-.418-1.212-.887-1.695-1.398-.072.032-.144.064-.216.097.497.527 1.088 1.01 1.746 1.44m2.257 1.175c.033-.058.066-.116.099-.173-.744-.303-1.452-.666-2.097-1.079-.054.047-.108.094-.162.141.664.425 1.393.799 2.16 1.111m2.505.772c.009-.066.017-.131.025-.196-.791-.17-1.574-.408-2.321-.705-.032.058-.064.116-.095.175.77.306 1.576.551 2.391.726m2.562.313c-.016-.069-.033-.137-.049-.205-.779-.019-1.578-.115-2.37-.278-.007.065-.015.131-.022.197.816.168 1.638.266 2.441.286m2.429-.206c-.04-.067-.08-.133-.12-.199-.709.149-1.465.214-2.242.202.018.068.035.137.053.205.8.012 1.579-.054 2.309-.208m1.961-.721c-.059-.06-.118-.119-.178-.178-.497.289-1.098.519-1.799.677.041.066.083.132.124.198.722-.162 1.341-.399 1.853-.697m1.25-1.118c-.071-.049-.143-.097-.214-.145-.272.395-.654.747-1.14 1.042.06.059.12.118.18.177.501-.304.894-.667 1.174-1.074m.502-1.407c-.076-.035-.152-.07-.229-.104-.036.468-.186.909-.447 1.308l.216.144c.268-.413.424-.867.46-1.348m-.283-1.591c-.073-.02-.147-.039-.221-.058.212.508.304 1.004.28 1.475.077.034.153.068.229.102.025-.484-.07-.996-.288-1.519m-1.134-1.695c-.062-.003-.125-.006-.188-.008.485.524.84 1.052 1.068 1.571.073.018.147.037.22.055-.235-.534-.6-1.079-1.1-1.618"/><path d="m235.331 89.155-.327-.331c.145.145.287.29.427.438.035.035.07.07.104.106-.067-.072-.135-.142-.204-.213m-36.393-7.287c.059-.016.118-.032.178-.048 1.344-.784 2.964-1.413 4.846-1.851l-.396.095c-1.789.438-3.335 1.05-4.628 1.804m-3.394 3.044c.068-.024.136-.048.204-.072.754-1.099 1.814-2.079 3.164-2.899-.06.016-.12.033-.179.049-1.361.827-2.429 1.815-3.189 2.922m-1.358 3.832c.071-.034.143-.068.214-.101.096-1.301.514-2.527 1.238-3.638-.068.024-.137.048-.205.073-.729 1.119-1.15 2.355-1.247 3.666m.779 4.327c.069-.045.139-.09.208-.135-.593-1.411-.85-2.792-.785-4.1-.072.034-.143.068-.215.103-.064 1.319.194 2.71.792 4.132m3.017 4.531c.062-.057.123-.113.185-.169-1.314-1.429-2.277-2.872-2.903-4.286-.069.045-.139.091-.208.136.631 1.425 1.602 2.879 2.926 4.319m4.948 4.13c.049-.067.098-.134.147-.201-1.775-1.163-3.37-2.466-4.712-3.887-.061.057-.123.114-.184.171 1.353 1.433 2.961 2.746 4.749 3.917m6.141 3.196c.033-.075.067-.151.1-.226-2.069-.843-4.037-1.851-5.83-3-.048.067-.097.135-.145.203 1.806 1.158 3.79 2.173 5.875 3.023m6.813 2.101c.016-.081.032-.161.047-.242-2.199-.473-4.376-1.135-6.454-1.962-.032.076-.065.151-.097.227 2.095.833 4.288 1.5 6.504 1.977m6.971.85c-.002-.083-.004-.166-.006-.249-2.167-.054-4.388-.319-6.59-.774-.015.081-.03.162-.045.243 2.219.458 4.457.726 6.641.78m6.607-.561c-.019-.081-.038-.163-.057-.244-1.971.416-4.073.596-6.235.563.003.083.006.166.009.249 2.178.032 4.297-.149 6.283-.568m5.335-1.96c-.033-.076-.065-.153-.098-.229-1.382.803-3.054 1.444-5.002 1.881.02.081.04.163.059.244 1.963-.44 3.648-1.086 5.041-1.896m3.4-3.041c-.041-.069-.083-.137-.125-.206-.756 1.098-1.818 2.077-3.171 2.897.034.076.067.152.1.228 1.364-.825 2.434-1.812 3.196-2.919m1.365-3.829c-.045-.059-.09-.118-.135-.176-.099 1.3-.518 2.526-1.244 3.636.042.068.084.136.125.205.732-1.119 1.155-2.354 1.254-3.665m-.772-4.326c-.043-.048-.086-.095-.129-.143.591 1.411.845 2.792.778 4.1.045.058.09.116.135.175.068-1.318-.188-2.71-.784-4.132m-3.083-4.611c-.035-.036-.07-.072-.105-.107 1.35 1.456 2.335 2.926 2.97 4.367.043.047.086.094.128.141-.64-1.452-1.633-2.934-2.993-4.401"/><path d="m189.234 88.239c.056-.041.112-.082.168-.123.78-1.137 1.826-2.17 3.128-3.07l-.274.193c-1.251.884-2.262 1.893-3.022 3m-1.663 4.693c.058-.048.117-.096.176-.144.119-1.599.631-3.106 1.521-4.47-.056.041-.113.082-.169.124-.894 1.37-1.409 2.884-1.528 4.49m.954 5.3c.057-.056.114-.112.171-.168-.728-1.734-1.044-3.43-.965-5.038-.059.048-.117.096-.176.145-.079 1.615.239 3.319.97 5.061m3.696 5.55c.051-.065.103-.129.154-.193-1.615-1.756-2.798-3.529-3.567-5.266-.057.056-.114.113-.171.169.773 1.745 1.962 3.526 3.584 5.29m6.06 5.06c.042-.072.084-.144.127-.216-2.18-1.429-4.141-3.03-5.79-4.776-.051.065-.102.13-.153.195 1.657 1.753 3.626 3.361 5.816 4.797m7.522 3.913c.031-.078.062-.156.093-.234-2.543-1.036-4.961-2.274-7.164-3.686-.042.072-.084.145-.125.217 2.213 1.419 4.642 2.663 7.196 3.703m8.345 2.574c.018-.082.036-.164.055-.246-2.703-.582-5.376-1.394-7.93-2.41-.03.078-.061.157-.091.235 2.565 1.02 5.252 1.837 7.966 2.421m8.538 1.041c.005-.084.011-.167.016-.251-2.662-.066-5.392-.393-8.097-.951-.018.082-.035.164-.053.246 2.718.562 5.46.889 8.134.956m8.094-.687c-.007-.083-.014-.165-.021-.248-2.421.511-5.005.732-7.661.692-.005.084-.009.167-.014.251 2.668.04 5.263-.182 7.696-.695m6.534-2.401c-.017-.079-.034-.158-.051-.237-1.698.987-3.752 1.775-6.146 2.312.008.082.015.165.023.247 2.404-.539 4.468-1.33 6.174-2.322m4.165-3.724c-.023-.073-.046-.146-.07-.22-.929 1.349-2.234 2.552-3.896 3.559.018.079.035.157.052.236 1.67-1.011 2.981-2.22 3.914-3.575m1.672-4.69c-.026-.066-.051-.132-.078-.198-.121 1.598-.637 3.104-1.529 4.467.024.073.047.146.07.219.897-1.37 1.415-2.883 1.537-4.488m-.945-5.299c-.024-.058-.049-.116-.073-.174.726 1.734 1.038 3.431.956 5.038.026.066.052.131.078.197.082-1.615-.232-3.319-.961-5.061"/><path d="m184.333 93.221c.04-.057.081-.113.121-.17.056-.081.113-.162.171-.243l-.191.267c-.034.048-.068.097-.101.146m-1.862 5.252c.041-.061.083-.121.125-.181.133-1.793.708-3.484 1.706-5.014-.041.056-.081.113-.121.17-1 1.533-1.576 3.228-1.71 5.025m1.068 5.931c.041-.065.082-.13.123-.194-.817-1.945-1.171-3.848-1.082-5.651-.042.06-.084.121-.125.182-.09 1.807.265 3.714 1.084 5.663m4.136 6.211c.038-.069.076-.139.114-.208-1.811-1.97-3.138-3.958-4.001-5.907-.041.065-.082.13-.123.195.864 1.953 2.194 3.946 4.01 5.92m6.782 5.662c.033-.074.066-.147.099-.221-2.446-1.603-4.645-3.399-6.495-5.357-.038.07-.076.139-.113.209 1.854 1.963 4.058 3.763 6.509 5.369m8.418 4.38c.027-.077.053-.154.08-.231-2.852-1.162-5.565-2.551-8.035-4.135-.033.074-.065.148-.098.221 2.476 1.588 5.194 2.98 8.053 4.145m9.339 2.88c.02-.079.039-.158.059-.237-3.031-.652-6.031-1.564-8.896-2.704-.026.077-.053.154-.079.231 2.872 1.142 5.878 2.056 8.916 2.71m9.555 1.165c.013-.08.025-.16.038-.24-2.986-.074-6.048-.44-9.082-1.067-.019.079-.039.158-.058.237 3.04.629 6.109.996 9.102 1.07m9.057-.769c.006-.079.012-.158.018-.238-2.716.573-5.614.821-8.593.776-.012.08-.025.16-.037.24 2.985.045 5.89-.204 8.612-.778m7.312-2.686c.001-.077.001-.154.002-.232-1.904 1.107-4.209 1.991-6.894 2.593-.005.079-.011.158-.017.238 2.691-.604 5.001-1.49 6.909-2.599m4.661-4.168c-.003-.074-.006-.148-.009-.223-1.042 1.513-2.506 2.863-4.37 3.992 0 .077 0 .154-.001.231 1.869-1.131 3.336-2.484 4.38-4m1.871-5.249c-.004-.07-.008-.141-.013-.211-.136 1.792-.714 3.482-1.715 5.011.003.074.006.148.009.222 1.003-1.533 1.583-3.226 1.719-5.022m.012-1.51-.02-.319c.031.456.036.907.013 1.352.005.07.009.14.013.21.02-.409.019-.824-.006-1.243"/><path d="m179.238 105.283c.04-.14.082-.279.125-.418.062-.835.216-1.649.461-2.436l-.186.619c-.209.724-.343 1.471-.4 2.235m1.11 6.162c.04-.14.082-.279.125-.419-.851-2.025-1.219-4.006-1.126-5.883-.043.139-.085.278-.125.418-.094 1.878.275 3.859 1.126 5.884m4.296 6.452c.04-.14.082-.28.124-.42-1.885-2.051-3.267-4.121-4.165-6.15-.043.139-.084.279-.125.419.898 2.03 2.28 4.1 4.166 6.151m7.046 5.882c.04-.14.081-.28.123-.421-2.546-1.668-4.835-3.538-6.761-5.576-.042.14-.084.28-.124.42 1.926 2.039 4.215 3.909 6.762 5.577m8.745 4.55c.04-.14.081-.28.122-.421-2.969-1.21-5.793-2.655-8.365-4.304-.042.14-.083.281-.123.421 2.572 1.648 5.396 3.094 8.366 4.304m9.701 2.992c.04-.14.08-.281.12-.422-3.156-.679-6.278-1.628-9.26-2.814-.041.141-.081.281-.122.421 2.983 1.187 6.106 2.136 9.262 2.815m9.926 1.21c.04-.14.079-.281.119-.422-3.109-.077-6.296-.458-9.455-1.111-.04.141-.08.282-.12.422 3.159.653 6.347 1.034 9.456 1.111m9.409-.798c.04-.14.079-.281.117-.422-2.827.596-5.845.855-8.945.808-.039.141-.079.282-.118.422 3.101.047 6.119-.212 8.946-.808m7.597-2.791c.04-.14.078-.28.116-.421-1.982 1.153-4.382 2.072-7.177 2.699-.038.141-.077.282-.117.422 2.796-.628 5.195-1.547 7.178-2.7m4.842-4.33c.04-.14.078-.28.115-.421-1.085 1.575-2.608 2.981-4.55 4.156-.037.141-.076.281-.116.421 1.942-1.175 3.466-2.581 4.551-4.156m1.561-3.294.169-.62c-.301 1.144-.788 2.236-1.457 3.258-.037.14-.075.281-.115.421.63-.964 1.099-1.987 1.403-3.059"/><path d="m179.446 118.361c-.002-.066-.004-.133-.006-.199-.68-1.62-1.042-3.21-1.096-4.739l.013.32c.187 1.74.291 2.698 1.089 4.618m4.149 6.231c.001-.062.002-.124.003-.186-1.825-1.985-3.162-3.988-4.031-5.952.001.066.003.132.006.199.866 1.959 2.201 3.958 4.022 5.939m6.804 5.68c.005-.058.011-.116.017-.174-2.464-1.615-4.68-3.424-6.544-5.397-.001.062-.003.124-.003.186 1.86 1.968 4.071 3.774 6.53 5.385m8.444 4.394c.011-.055.023-.11.034-.165-2.873-1.171-5.606-2.57-8.096-4.166-.006.058-.012.116-.018.174 2.485 1.592 5.212 2.988 8.08 4.157m9.369 2.889c.018-.053.036-.106.054-.159-3.054-.657-6.076-1.576-8.962-2.724-.012.055-.024.11-.035.165 2.879 1.145 5.895 2.062 8.943 2.718m9.585 1.168c.025-.052.049-.104.074-.157-3.009-.075-6.093-.444-9.15-1.075-.018.053-.037.106-.055.159 3.05.631 6.128.999 9.131 1.073m9.085-.771c.031-.053.062-.105.092-.159-2.736.577-5.656.827-8.657.782-.025.053-.05.105-.075.157 2.996.046 5.91-.204 8.64-.78m7.336-2.695c.036-.054.072-.109.108-.164-1.919 1.115-4.241 2.006-6.946 2.612-.031.053-.062.106-.093.159 2.699-.605 5.016-1.494 6.931-2.607m4.676-4.181c.039-.057.078-.115.117-.173-1.05 1.525-2.524 2.885-4.403 4.022-.036.055-.072.11-.108.164 1.875-1.134 3.346-2.492 4.394-4.013"/><path d="m180.762 124.725c-.023-.058-.046-.117-.069-.175-.046-.11-.091-.22-.134-.33l.125.316c.026.063.052.126.078.189m3.72 5.586c-.018-.05-.035-.1-.052-.151-1.64-1.784-2.841-3.584-3.623-5.348.022.058.045.116.068.174.778 1.757 1.974 3.55 3.607 5.325m6.1 5.093c-.009-.043-.017-.085-.026-.129-2.214-1.451-4.205-3.077-5.88-4.85.017.05.034.1.051.15 1.668 1.765 3.65 3.384 5.855 4.829m7.57 3.939c.002-.037.005-.074.007-.111-2.582-1.052-5.038-2.309-7.275-3.743.008.043.016.085.024.128 2.228 1.426 4.673 2.678 7.244 3.726m8.4 2.59c.015-.033.029-.066.044-.1-2.744-.591-5.46-1.416-8.053-2.448-.003.037-.006.074-.009.111 2.582 1.027 5.285 1.849 8.018 2.437m8.593 1.048c.027-.032.054-.063.081-.095-2.704-.067-5.475-.399-8.223-.966-.015.033-.031.067-.046.1 2.737.564 5.496.894 8.188.961m8.146-.692c.039-.033.078-.065.117-.098-2.459.519-5.083.743-7.78.702-.028.032-.055.064-.083.095 2.685.041 5.298-.182 7.746-.699m6.577-2.416c.049-.036.097-.072.146-.109-1.724 1.002-3.811 1.802-6.241 2.348-.039.033-.079.066-.119.099 2.42-.543 4.497-1.34 6.214-2.338m1.33-.865.269-.199c-.377.28-.777.549-1.2.805-.049.037-.098.073-.147.11.378-.229.737-.468 1.078-.716"/><path d="m187.077 134.679c-.01-.011-.021-.022-.031-.034-.015-.016-.03-.033-.045-.049zm5.073 4.253c-.022-.026-.044-.053-.065-.08-1.821-1.193-3.459-2.531-4.836-3.989.033.037.067.073.101.11 1.367 1.447 2.992 2.775 4.8 3.959m6.208 3.23c-.006-.018-.012-.037-.019-.056-2.124-.865-4.144-1.899-5.983-3.079.021.026.042.053.063.079 1.826 1.171 3.83 2.197 5.939 3.056m6.887 2.124c.011-.013.022-.026.033-.04-2.257-.486-4.491-1.165-6.624-2.013.005.019.011.037.016.055 2.117.842 4.334 1.516 6.575 1.998m7.046.859c.029-.011.057-.022.086-.033-2.224-.055-4.503-.328-6.763-.795-.012.013-.024.027-.035.039 2.242.463 4.505.734 6.712.789m6.679-.567c.045-.012.091-.025.136-.038-2.022.427-4.181.611-6.399.578-.029.011-.059.022-.088.033 2.201.034 4.343-.15 6.351-.573m1.092-.258.396-.107c-.342.094-.693.182-1.053.263-.046.013-.092.026-.138.038.27-.061.535-.126.795-.194"/><path d="m227.922 83.769c-.034-.008-.068-.015-.103-.022 1.247.816 2.37 1.73 3.316 2.727.049.019.099.039.148.059-.96-1.01-2.097-1.937-3.361-2.764m-4.361-2.265c-.015.002-.03.005-.045.008 1.46.594 2.85 1.304 4.115 2.114.034.007.067.014.1.021-1.282-.821-2.69-1.541-4.17-2.143m-4.837-1.489c.006.009.013.018.019.028 1.552.333 3.088.799 4.556 1.381.014-.003.028-.006.042-.009-1.487-.59-3.044-1.062-4.617-1.4m-4.947-.599c.028.012.057.023.085.036 1.529.037 3.096.223 4.65.543-.007-.01-.015-.019-.022-.028-1.575-.325-3.163-.514-4.713-.551m-4.687.402.147.03c1.39-.295 2.874-.423 4.4-.401-.029-.012-.059-.024-.088-.036-1.546-.022-3.05.108-4.459.407m-3.781 1.393c.066.004.132.008.197.012.974-.568 2.152-1.021 3.526-1.33-.05-.01-.1-.02-.15-.03-1.391.313-2.586.773-3.573 1.348m-2.408 2.16c.076-.006.153-.012.229-.017.532-.775 1.28-1.467 2.233-2.046-.067-.004-.133-.007-.199-.011-.966.587-1.724 1.289-2.263 2.074m-.964 2.719c.081-.018.161-.036.242-.053.068-.918.363-1.784.873-2.567-.077.006-.154.012-.23.019-.517.794-.816 1.671-.885 2.601m.553 3.071c.078-.032.156-.063.235-.094-.418-.996-.6-1.97-.554-2.893-.081.018-.162.036-.242.055-.047.936.137 1.923.561 2.932m2.141 3.216c.069-.046.138-.091.206-.137-.927-1.009-1.607-2.027-2.049-3.025-.078.032-.156.064-.234.096.449 1.012 1.137 2.044 2.077 3.066m3.512 2.931c.053-.059.106-.117.16-.176-1.252-.82-2.378-1.74-3.325-2.743-.068.046-.136.092-.205.139.96 1.017 2.101 1.949 3.37 2.78m4.358 2.268c.034-.069.068-.137.102-.206-1.46-.595-2.849-1.306-4.114-2.117-.053.059-.105.118-.157.177 1.281.822 2.689 1.543 4.169 2.146m4.835 1.491c.013-.075.025-.15.038-.225-1.552-.334-3.088-.801-4.555-1.384-.033.069-.066.138-.099.207 1.487.591 3.043 1.064 4.616 1.402m4.947.603c-.009-.078-.019-.156-.028-.233-1.529-.038-3.097-.225-4.65-.546-.012.075-.023.151-.035.226 1.575.325 3.163.515 4.713.553m4.689-.398c-.03-.076-.06-.152-.09-.228-1.391.293-2.875.42-4.4.397.01.078.021.156.031.234 1.546.023 3.05-.105 4.459-.403m3.786-1.391c-.047-.07-.094-.14-.141-.21-.975.567-2.155 1.019-3.53 1.328.031.076.062.152.093.228 1.394-.313 2.59-.771 3.578-1.346m2.413-2.158c-.057-.061-.115-.121-.173-.181-.534.775-1.283 1.466-2.238 2.044.048.069.095.139.143.209.968-.586 1.727-1.286 2.268-2.072m.969-2.717c-.062-.048-.123-.097-.186-.145-.07.918-.366 1.783-.878 2.566.058.06.116.12.174.179.519-.793.819-1.67.89-2.6m-.548-3.07c-.059-.035-.119-.07-.178-.104.417.996.596 1.97.549 2.893.062.048.124.095.186.143.048-.936-.134-1.923-.557-2.932m-2.188-3.273c-.05-.02-.099-.041-.149-.061.952 1.027 1.648 2.065 2.096 3.082.059.034.119.068.177.102-1.177-2.348-2.115-3.116-2.124-3.123"/><path d="m212.126 88.395c-.072.032-.144.064-.216.097-2.363 1.07-4.69 2.385-6.934 3.898-.068.046-.136.092-.205.139-2.238 1.525-4.391 3.246-6.408 5.116-.061.057-.123.114-.184.171-2.008 1.879-3.879 3.906-5.563 6.034-.051.065-.102.13-.153.195-1.673 2.134-3.157 4.368-4.404 6.655-.038.07-.076.139-.113.209-1.214 2.256-2.195 4.563-2.896 6.874-.042.14-.084.28-.124.42-.006.02-.011.039-.017.059-.656 2.292-.994 4.448-1.039 6.44-.001.062-.003.124-.003.186-.027 2.029.251 3.885.807 5.539.017.05.034.1.051.15.573 1.642 1.423 3.081 2.521 4.288.033.037.067.073.101.11.012.013.024.025.036.038l-.206-.22-.103-.112c-.01-.011-.021-.022-.031-.034-1.115-1.225-1.979-2.679-2.564-4.334-.018-.05-.035-.1-.052-.151-.568-1.667-.856-3.533-.835-5.569.001-.062.002-.124.003-.186.039-1.999.373-4.158 1.03-6.45.006-.02.011-.039.017-.059.04-.14.082-.28.124-.42.701-2.311 1.686-4.613 2.907-6.863.038-.069.076-.139.114-.208 1.253-2.28 2.747-4.503 4.432-6.625.051-.065.103-.129.154-.193 1.696-2.115 3.582-4.126 5.607-5.987.062-.057.123-.113.185-.169 2.034-1.852 4.205-3.553 6.464-5.055.069-.046.138-.091.206-.137 2.264-1.49 4.614-2.781 7-3.827.073-.032.145-.063.218-.095 2.309-.996 4.651-1.761 6.98-2.254-2.302.519-4.62 1.31-6.907 2.33"/><path d="m221.464 82.807c.022-.024.044-.048.065-.071.713-.771 1.305-1.203 1.769-1.311.014-.003.028-.006.042-.009.167-.032.317-.022.45.032l.195.078.065.026c-.942-.384-2.638 1.053-5.015 4.514.921-1.412 1.732-2.494 2.429-3.259"/><path d="m219.024 82.078c-.003-.031-.005-.062-.008-.093-.09-1.011-.262-1.671-.504-1.991-.007-.01-.015-.019-.022-.028-.087-.106-.184-.169-.288-.19l.205.043.068.015c.626.133.853 2.165.561 6.232.077-1.664.071-2.99-.012-3.988"/><path d="m223.672 83.929c.044-.013.088-.025.132-.037 1.441-.401 2.722-.483 3.828-.266.034.007.067.014.1.021.626.134 1.194.366 1.7.692l.205.132.069.045c-2.368-1.551-6.032-1.161-10.671 1.55 1.416-.797 2.879-1.621 4.637-2.137"/><path d="m225.457 85.38c.062.002.124.004.186.006 2.029.077 3.869.449 5.492 1.087.049.019.099.039.148.059 1.61.654 3.002 1.573 4.149 2.728.035.035.07.07.104.106.032.033.063.066.094.099l.254.271c-3.484-3.759-9.383-5.281-16.849-3.672 2.3-.521 4.449-.741 6.422-.684"/><path d="m216.54 81.799c-.028-.034-.055-.068-.083-.102-.909-1.103-1.857-1.85-2.82-2.251-.029-.012-.059-.024-.088-.036-.514-.202-1.033-.306-1.551-.313l.242.004.081.002c2.4.057 4.767 2.33 6.716 6.961-.905-1.867-1.403-2.897-2.497-4.265"/><path d="m214.193 82.026c-.051-.032-.102-.063-.154-.095-1.682-1.028-3.363-1.704-5.007-2.039-.05-.01-.1-.02-.15-.03-1.613-.308-3.188-.288-4.689.053l.324-.071.106-.023c4.493-.955 9.624 1.041 14.411 6.244-1.589-1.681-3.215-3.024-4.841-4.039"/><path d="m212.323 82.748c-.07-.025-.14-.049-.21-.073-2.298-.79-4.564-1.241-6.75-1.367-.067-.004-.133-.007-.199-.011-2.182-.106-4.282.113-6.252.643-.06.016-.12.033-.179.049-1.598.447-3.109 1.1-4.506 1.952l.39-.234.133-.078c6.568-3.835 15.556-3.279 24.285 2.435-2.236-1.431-4.488-2.532-6.712-3.316"/><path d="m211.146 83.85c-.082-.014-.164-.027-.245-.04-2.686-.427-5.32-.533-7.848-.339-.077.006-.154.012-.23.019-2.522.212-4.935.724-7.184 1.516-.068.024-.137.048-.205.073-2.239.808-4.313 1.895-6.166 3.24-.056.041-.113.082-.169.124-1.84 1.361-3.457 2.98-4.796 4.836-.041.056-.081.113-.121.17-.159.225-.315.454-.466.686l.32-.482.121-.177c6.68-9.741 20.838-13.134 34.879-7.409-2.644-1.053-5.29-1.785-7.89-2.217"/><path d="m210.696 85.228c-.086 0-.173.001-.259.002-2.834.027-5.608.351-8.267.945-.081.018-.162.036-.242.055-2.651.61-5.184 1.489-7.54 2.607-.072.034-.143.068-.215.103-2.345 1.133-4.512 2.505-6.442 4.087-.059.048-.117.096-.176.145-1.916 1.595-3.594 3.401-4.976 5.387-.042.06-.084.121-.125.182-1.344 1.968-2.399 4.112-3.108 6.403-.043.139-.085.278-.125.418-.006.02-.011.039-.017.059-.48 1.674-.755 3.352-.839 5.015l.05-.801c.111-1.493.377-2.995.806-4.493 4.147-14.48 21.962-23.104 39.814-19.276-2.798-.576-5.595-.847-8.339-.838"/><path d="m211.011 86.778c-.083.016-.166.032-.249.048-2.73.538-5.406 1.347-7.973 2.39-.078.032-.156.064-.234.096-2.56 1.058-5.009 2.348-7.291 3.835-.069.045-.139.091-.208.136-2.271 1.498-4.372 3.19-6.248 5.04-.057.056-.114.113-.171.169-1.863 1.859-3.498 3.874-4.85 6.008-.041.065-.082.13-.123.195-1.315 2.109-2.354 4.332-3.062 6.633-.043.139-.084.279-.125.419-.006.02-.011.039-.017.059-.656 2.292-.944 4.52-.895 6.649.001.066.003.132.006.199.072 2.172.495 4.239 1.235 6.16.022.058.045.116.068.174.074.186.151.37.23.554l-.248-.579c-6.553-18.523 13.428-38.879 38.177-38.895-2.687-.043-5.379.206-8.022.71"/><path d="m213.916 89.855c-.054.047-.108.094-.162.141-1.773 1.551-3.541 3.322-5.266 5.258-.053.059-.105.118-.157.177-1.722 1.946-3.398 4.055-4.991 6.271-.048.067-.097.135-.145.203-1.587 2.223-3.088 4.551-4.464 6.93-.042.072-.084.145-.125.217-1.369 2.383-2.611 4.814-3.688 7.239-.033.074-.065.148-.098.221-1.051 2.389-1.94 4.77-2.63 7.091-.042.14-.083.281-.123.421-.006.02-.011.039-.017.059-.656 2.292-1.074 4.382-1.27 6.251-.006.058-.012.116-.018.174-.186 1.899-.14 3.566.121 4.98.008.043.016.085.024.128.274 1.398.762 2.542 1.446 3.412.021.026.042.053.063.079.349.427.747.785 1.192 1.071l-.184-.119-.087-.059c-3.225-2.116-4.052-7.824-1.664-16.162 4.147-14.48 16.391-31.381 27.362-37.772-1.686 1.022-3.404 2.302-5.119 3.789"/><path d="m216.123 90.978c-.032.058-.064.116-.095.175-1.046 1.921-2.124 4.043-3.208 6.305-.033.069-.066.138-.099.207-1.085 2.27-2.174 4.678-3.243 7.161-.032.076-.065.151-.097.227-1.067 2.487-2.111 5.048-3.107 7.621-.03.078-.061.157-.091.235-.993 2.574-1.937 5.157-2.804 7.689-.026.077-.053.154-.079.231-.85 2.491-1.626 4.93-2.302 7.258-.041.141-.081.281-.122.421-.006.02-.011.039-.017.059-.656 2.292-1.173 4.332-1.555 6.106-.012.055-.024.11-.035.165-.382 1.8-.622 3.321-.726 4.549-.003.037-.006.074-.009.111-.095 1.21-.053 2.127.12 2.737.005.019.011.037.016.055.129.418.324.682.583.786l-.175-.07-.084-.034c-1.49-.609-1.111-5.733 1.423-14.581 4.147-14.48 12.478-33.417 18.617-42.323-.923 1.408-1.901 3.064-2.911 4.91"/><path d="m218.562 91.708c-.007.065-.015.131-.022.197-.243 2.162-.558 4.512-.935 6.985-.012.075-.023.151-.035.226-.381 2.481-.822 5.083-1.311 7.739-.015.081-.03.162-.045.243-.492 2.659-1.033 5.371-1.609 8.069-.018.082-.035.164-.053.246-.578 2.698-1.192 5.38-1.828 7.981-.019.079-.039.158-.058.237-.629 2.558-1.279 5.034-1.94 7.366-.04.141-.08.282-.12.422-.006.02-.011.039-.017.059-.656 2.292-1.282 4.299-1.869 6.012-.018.053-.037.106-.055.159-.598 1.735-1.155 3.161-1.661 4.269-.015.033-.031.067-.046.1-.503 1.088-.954 1.858-1.345 2.298-.012.013-.024.027-.035.039-.279.303-.526.435-.737.392l-.183-.038-.089-.019c.99.211 3.003-4.413 5.551-13.31 4.147-14.48 8.136-34.756 8.915-45.315-.081 1.663-.243 3.564-.473 5.643"/><path d="m221.048 91.989c.018.068.035.137.053.205.576 2.254 1.038 4.692 1.382 7.247.01.078.021.156.031.234.337 2.562.557 5.239.657 7.962.003.083.006.166.009.249.093 2.725.067 5.495-.081 8.242-.005.084-.009.167-.014.251-.155 2.746-.433 5.466-.833 8.093-.012.08-.025.16-.037.24-.403 2.583-.925 5.074-1.57 7.408-.039.141-.079.282-.118.422-.006.02-.011.039-.017.059-.656 2.292-1.394 4.286-2.19 5.976-.025.053-.05.105-.075.157-.819 1.71-1.698 3.1-2.614 4.161-.028.032-.055.064-.083.095-.918 1.041-1.872 1.754-2.838 2.129-.029.011-.059.022-.088.033-.523.192-1.05.285-1.576.278l-.218-.004-.104-.002c11.135-.975 16.419-38.698 8.315-59.358.773 1.759 1.445 3.754 2.009 5.923"/><path d="m223.395 91.764c.041.066.083.132.124.198 1.349 2.18 2.545 4.548 3.569 7.037.031.076.062.152.093.228 1.015 2.497 1.859 5.114 2.516 7.783.02.081.04.163.059.244.646 2.672 1.105 5.396 1.361 8.103.008.082.015.165.023.247.244 2.707.284 5.397.106 8.003-.005.079-.011.158-.017.238-.189 2.563-.591 5.042-1.222 7.374-.038.141-.077.282-.117.422-.006.02-.011.039-.017.059-.656 2.292-1.499 4.297-2.493 6.005-.031.053-.062.106-.093.159-1.027 1.73-2.211 3.149-3.515 4.247-.039.033-.079.066-.119.099-1.311 1.079-2.739 1.837-4.248 2.265-.046.013-.092.026-.138.038-.142.038-.285.074-.429.106l-.293.064-.137.029c17.873-5.073 15.738-41.766.626-58.648 1.589 1.683 3.047 3.603 4.361 5.7"/><path d="m225.267 91.044c.06.059.12.118.18.177 1.966 1.943 3.746 4.086 5.314 6.366.048.069.095.139.143.209 1.555 2.289 2.897 4.714 3.998 7.213.034.076.067.152.1.228 1.087 2.503 1.933 5.077 2.511 7.661.018.079.035.157.052.236.562 2.585.856 5.177.855 7.715 0 .077 0 .154-.001.231-.019 2.497-.325 4.939-.944 7.267-.037.141-.076.281-.116.421-.006.02-.011.039-.017.059-.656 2.292-1.583 4.329-2.735 6.098-.036.055-.072.11-.108.164-1.193 1.794-2.62 3.306-4.233 4.524-.049.037-.098.073-.147.11-.427.316-.868.611-1.32.886l-.352.21-.167.098c4.053-2.36 7.187-6.392 8.769-11.916 4.147-14.48-3.915-33.691-18.016-42.935 2.236 1.433 4.321 3.111 6.234 4.978"/><path d="m226.447 89.943.216.144c2.355 1.58 4.504 3.379 6.414 5.34.058.06.116.12.174.179 1.896 1.971 3.551 4.104 4.933 6.341.042.068.084.136.125.205 1.365 2.243 2.455 4.59 3.236 6.985.024.073.047.146.07.219.763 2.398 1.217 4.841 1.327 7.275.003.074.006.148.009.222.089 2.397-.157 4.783-.768 7.104-.037.14-.075.281-.115.421-.006.02-.011.039-.017.059-.629 2.197-1.556 4.205-2.733 6.008l-.288.433-.151.221c1.311-1.905 2.335-4.055 3.014-6.427 4.147-14.48-6.082-31.754-22.858-38.605 2.642 1.051 5.122 2.361 7.412 3.876"/><path d="m226.899 88.566c.077.034.153.068.229.102 2.504 1.127 4.794 2.495 6.835 4.057.062.048.124.095.186.143 2.026 1.574 3.802 3.34 5.291 5.251.045.058.09.116.135.175 1.471 1.919 2.655 3.981 3.514 6.139.026.066.052.131.078.197.84 2.163 1.355 4.421 1.508 6.723.005.07.009.14.013.21.045.792.048 1.589.006 2.39l-.051.795c.374-13.89-9.199-24.612-25.607-28.683 2.797.578 5.429 1.426 7.863 2.501"/><path d="m226.587 87.016c.073.018.147.037.22.055 2.401.616 4.594 1.5 6.544 2.612.059.034.119.068.177.102 1.936 1.127 3.629 2.481 5.044 4.024.043.047.086.094.128.141 1.204 1.48 2.243 2.758 3.277 5.08l.244.573c-3.228-7.839-11.746-13.251-23.186-13.54 2.275.117 4.628.235 7.552.953"/></g></svg>