<svg xmlns="http://www.w3.org/2000/svg" viewBox="0 0 340 160" enable-background="new 0 0 340 160"><g fill="#444"><path d="m95.17 14.88l45.94 54.45 64.58-54.42-27.2-.045-15.29 12.871-10.75-12.853h-23.91l20.56 24.688-5.85 4.912-24.62-29.6h-23.46"/><path d="m203.37 27.01l11.2 13.35 30.26-25.48h-27.37l-14.09 12.13"/><path d="m198.36 31.22l11.19 13.346-18.91 15.864 29.37 35.06-23.8.03-19.67-23.25-19.44 16.3-11.19-13.34 52.45-44.01"/><path d="m39.03 112.32h5.972l8.936 25.26h-5.723l-1.667-5.192h-9.301l-1.712 5.192h-5.52l9.02-25.26m-.348 15.713h6.468l-3.19-9.938-3.278 9.938"/><path d="m59.663 131.62c.103.868.327 1.485.671 1.851.608.651 1.733.977 3.375.977.963 0 1.73-.143 2.299-.428.567-.286.852-.714.852-1.285 0-.548-.228-.965-.687-1.251-.458-.286-2.16-.777-5.109-1.474-2.122-.525-3.617-1.182-4.486-1.971-.868-.777-1.302-1.896-1.302-3.358 0-1.725.678-3.207 2.035-4.447 1.357-1.239 3.266-1.859 5.727-1.859 2.335 0 4.238.466 5.709 1.397 1.471.931 2.316 2.539 2.533 4.823h-4.884c-.069-.628-.246-1.125-.532-1.491-.538-.663-1.456-.994-2.749-.994-1.065 0-1.824.166-2.277.497-.452.331-.679.72-.679 1.165 0 .56.241.965.722 1.217.481.263 2.181.714 5.099 1.354 1.946.457 3.404 1.148 4.375 2.073.96.937 1.439 2.108 1.439 3.513 0 1.851-.689 3.362-2.069 4.533-1.38 1.17-3.511 1.756-6.396 1.756-2.942 0-5.114-.62-6.515-1.859-1.403-1.239-2.103-2.819-2.103-4.738h4.952z"/><path d="m75.25 141.16l.617.034c.48.023.937.006 1.371-.051s.8-.188 1.097-.394c.286-.194.551-.6.797-1.217.245-.617.35-.994.317-1.131l-6.863-19.499h5.431l4.078 13.776 3.856-13.776h5.191l-6.403 18.369c-1.236 3.541-2.216 5.737-2.936 6.589-.721.85-2.162 1.276-4.323 1.276-.434 0-.783-.003-1.046-.008-.264-.006-.659-.026-1.184-.06v-3.908"/><path d="m108.21 119.97c1.224 1.01 1.834 2.687 1.834 5.03v12.577h-5v-11.36c0-.982-.129-1.736-.391-2.262-.476-.96-1.383-1.439-2.721-1.439-1.644 0-2.772.703-3.385 2.108-.317.743-.476 1.691-.476 2.844v10.11h-4.884v-18.643h4.729v2.724c.626-.96 1.217-1.651 1.776-2.073 1-.754 2.268-1.131 3.804-1.131 1.922 0 3.494.505 4.717 1.516"/><path d="m124.88 125.6c-.093-.697-.327-1.325-.704-1.885-.551-.754-1.404-1.131-2.56-1.131-1.649 0-2.777.817-3.384 2.45-.32.866-.48 2.02-.48 3.452 0 1.368.16 2.467.48 3.299.584 1.554 1.684 2.33 3.299 2.33 1.145 0 1.957-.308 2.438-.925.481-.617.773-1.416.876-2.399h4.987c-.114 1.485-.652 2.89-1.612 4.215-1.533 2.136-3.803 3.204-6.81 3.204-3.01 0-5.22-.891-6.638-2.673-1.418-1.782-2.127-4.093-2.127-6.931 0-3.204.783-5.697 2.351-7.479 1.566-1.782 3.728-2.673 6.483-2.673 2.344 0 4.262.525 5.755 1.576 1.491 1.051 2.375 2.907 2.65 5.569h-5"/><path d="m145.77 119.01c.938.4 1.708 1.012 2.311 1.835.512.698.825 1.415.938 2.153.114.737.171 1.941.171 3.61v10.976h-4.986v-11.373c0-1.01-.171-1.819-.512-2.436-.442-.869-1.281-1.304-2.517-1.304-1.281 0-2.253.432-2.917 1.295-.664.864-.995 2.096-.995 3.697v10.121h-4.884v-25.17h4.884v8.91c.706-1.085 1.522-1.842 2.448-2.27.927-.429 1.903-.643 2.926-.643 1.151 0 2.195.201 3.133.601"/><path d="m163.28 118.47c.062.006.202.014.419.025v5c-.307-.034-.581-.057-.822-.069-.239-.011-.434-.017-.581-.017-1.966 0-3.285.64-3.959 1.919-.377.72-.565 1.828-.565 3.324v8.927h-4.918v-18.677h4.661v3.256c.754-1.245 1.41-2.096 1.971-2.553.913-.765 2.101-1.148 3.564-1.148.089.001.166.004.23.01"/><path d="m181.26 135.3c-1.576 1.946-3.97 2.919-7.18 2.919s-5.602-.973-7.179-2.919c-1.576-1.946-2.365-4.289-2.365-7.03 0-2.694.788-5.03 2.365-7 1.576-1.974 3.969-2.962 7.179-2.962s5.604.987 7.18 2.962c1.576 1.975 2.365 4.308 2.365 7 0 2.739-.789 5.082-2.365 7.03m-3.907-2.699c.765-1.015 1.149-2.458 1.149-4.329 0-1.871-.383-3.311-1.149-4.321-.765-1.01-1.862-1.514-3.29-1.514-1.428 0-2.527.505-3.299 1.514-.77 1.01-1.156 2.45-1.156 4.321 0 1.871.386 3.313 1.156 4.329.772 1.015 1.871 1.522 3.299 1.522 1.428 0 2.525-.507 3.29-1.522"/><path d="m201.31 119.97c1.224 1.01 1.834 2.687 1.834 5.03v12.577h-5v-11.36c0-.982-.129-1.736-.391-2.262-.476-.96-1.383-1.439-2.721-1.439-1.644 0-2.772.703-3.385 2.108-.317.743-.476 1.691-.476 2.844v10.11h-4.884v-18.643h4.729v2.724c.626-.96 1.217-1.651 1.776-2.073 1-.754 2.268-1.131 3.804-1.131 1.923 0 3.495.505 4.717 1.516"/><path d="m207.54 141.16l.617.034c.48.023.937.006 1.371-.051s.8-.188 1.097-.394c.286-.194.551-.6.797-1.217.245-.617.35-.994.317-1.131l-6.863-19.499h5.431l4.078 13.776 3.856-13.776h5.191l-6.403 18.369c-1.236 3.541-2.216 5.737-2.936 6.589-.721.85-2.162 1.276-4.323 1.276-.434 0-.783-.003-1.046-.008-.264-.006-.659-.026-1.184-.06v-3.908"/><path d="m234.71 112.32h5.278v20.716h12.611v4.541h-17.889v-25.26"/><path d="m262.27 126.22c.909-.114 1.559-.257 1.95-.428.702-.297 1.053-.76 1.053-1.388 0-.765-.269-1.294-.807-1.585-.539-.292-1.329-.437-2.371-.437-1.17 0-1.998.286-2.484.857-.348.423-.579.994-.694 1.713h-4.713c.103-1.634.562-2.976 1.377-4.03 1.296-1.645 3.522-2.467 6.676-2.467 2.054 0 3.878.406 5.473 1.217 1.594.811 2.391 2.342 2.391 4.592v8.567c0 .594.011 1.314.036 2.159.033.64.131 1.074.291 1.302.16.228.4.417.72.565v.72h-5.312c-.148-.377-.251-.731-.308-1.062-.057-.331-.103-.708-.137-1.131-.678.731-1.46 1.354-2.344 1.868-1.057.605-2.252.908-3.584.908-1.701 0-3.106-.483-4.214-1.448-1.109-.965-1.664-2.333-1.664-4.103 0-2.296.892-3.958 2.676-4.986.979-.56 2.418-.96 4.315-1.199l1.674-.207m2.986 2.279c-.312.194-.628.352-.947.471-.319.121-.755.232-1.311.334l-1.112.206c-1.042.183-1.79.406-2.244.668-.769.446-1.154 1.137-1.154 2.073 0 .834.235 1.437.704 1.808.47.371 1.041.557 1.714.557 1.067 0 2.051-.308 2.95-.925s1.366-1.742 1.4-3.376v-1.816"/><path d="m289.46 121.15c1.397 1.771 2.096 4.055 2.096 6.854 0 2.902-.689 5.306-2.066 7.214-1.378 1.908-3.301 2.862-5.77 2.862-1.55 0-2.796-.308-3.738-.925-.562-.366-1.17-1-1.825-1.919v2.347h-4.816v-25.22h4.884v8.979c.621-.868 1.305-1.531 2.052-1.988.885-.571 2.01-.857 3.38-.857 2.471 0 4.405.885 5.803 2.656m-4.082 11.377c.703-1.017 1.053-2.353 1.053-4.01 0-1.325-.173-2.422-.518-3.29-.656-1.645-1.866-2.467-3.628-2.467-1.786 0-3.01.805-3.681 2.416-.345.857-.518 1.965-.518 3.324 0 1.599.357 2.924 1.071 3.975.715 1.051 1.802 1.576 3.266 1.576 1.268.001 2.253-.507 2.955-1.524"/><path d="m297.86 131.62c.103.868.327 1.485.671 1.851.608.651 1.733.977 3.375.977.963 0 1.73-.143 2.299-.428.567-.286.852-.714.852-1.285 0-.548-.228-.965-.687-1.251-.458-.286-2.16-.777-5.109-1.474-2.122-.525-3.617-1.182-4.486-1.971-.868-.777-1.302-1.896-1.302-3.358 0-1.725.678-3.207 2.035-4.447 1.357-1.239 3.266-1.859 5.727-1.859 2.335 0 4.238.466 5.709 1.397 1.471.931 2.316 2.539 2.533 4.823h-4.884c-.069-.628-.246-1.125-.532-1.491-.538-.663-1.456-.994-2.749-.994-1.065 0-1.824.166-2.277.497-.452.331-.679.72-.679 1.165 0 .56.241.965.722 1.217.481.263 2.181.714 5.099 1.354 1.946.457 3.404 1.148 4.375 2.073.96.937 1.439 2.108 1.439 3.513 0 1.851-.689 3.362-2.069 4.533-1.38 1.17-3.511 1.756-6.396 1.756-2.942 0-5.114-.62-6.515-1.859-1.402-1.239-2.103-2.819-2.103-4.738h4.952z"/></g></svg>
