<svg width="141" height="40" viewBox="0 0 141 40" fill="none" xmlns="http://www.w3.org/2000/svg">
<path fill-rule="evenodd" clip-rule="evenodd" d="M138.532 8.38019C136.27 3.77075 132.742 1.00012 128.045 0.180112C126.517 -0.0807996 123.535 -0.0559509 122.069 0.242234C115.137 1.64619 110.676 7.46078 109.707 16.3939C109.521 18.0836 109.521 21.9352 109.707 23.6C110.229 28.3089 111.832 32.3965 114.279 35.2416C116.864 38.2359 120.964 40.0126 125.3 40.0002C127.586 39.9878 130.543 39.2796 132.319 38.298C134.929 36.8568 137.028 34.608 138.482 31.6883C141.687 25.2276 141.712 14.8657 138.532 8.38019ZM105.607 39.2547V19.997V0.739208H101.358H97.0964L96.7236 1.45982C96.5248 1.8574 95.9657 2.57801 95.4191 3.11226C94.6736 3.87015 94.276 4.15591 93.4312 4.55349C92.1639 5.16228 91.083 5.43562 89.5796 5.54743L88.4614 5.62198V9.69717V13.7848H86.1629C83.8893 13.7848 83.852 13.7848 83.7526 14.0581C83.6905 14.2196 82.8829 17.2263 81.9386 20.7424C80.9944 24.2585 80.1868 27.1782 80.1371 27.2404C80.0998 27.2901 79.2053 24.3828 78.1616 20.7797C77.1056 17.1642 76.1986 14.1202 76.1365 13.996C76.0371 13.7972 75.7389 13.7848 72.5583 13.7848C69.3776 13.7848 69.0794 13.7972 68.98 13.996C68.9179 14.1202 68.0109 17.1891 66.9549 20.8294C65.8988 24.4573 65.0291 27.4143 65.0167 27.4019C65.0042 27.3895 64.1967 24.4449 63.24 20.8667C62.2833 17.276 61.4384 14.2196 61.3763 14.0581L61.2521 13.7848H57.2887C55.102 13.7848 53.2881 13.8221 53.2632 13.8718C53.2384 13.9339 55.0399 19.6739 57.2763 26.644L61.3391 39.3168H64.9173H68.4955L70.4958 32.6325C71.5891 28.9673 72.521 25.9607 72.5583 25.9607C72.6079 25.9607 73.4155 28.5449 74.3598 31.7007C75.304 34.8689 76.211 37.888 76.3725 38.4223L76.6707 39.379L80.2241 39.3541L83.7774 39.3168L86.1132 32.0486L88.449 24.7803L88.4614 19.3509V13.9215L89.1199 13.8593C89.4678 13.8221 90.2257 13.7599 90.7724 13.7227C92.81 13.586 94.6612 12.9275 95.9533 11.8839L96.6615 11.2999V25.2773V39.2547H101.134H105.607ZM23.7181 19.177C22.7117 16.4063 20.3884 14.2445 17.5805 13.4742C16.3877 13.1387 13.7289 13.1139 12.3622 13.4121C10.921 13.7227 9.46736 14.4433 8.48584 15.3378L7.71553 16.0336L7.67825 14.9402L7.64098 13.8469L3.8267 13.8096L0 13.7848V26.5819V39.379L3.8267 39.3541L7.64098 39.3168L7.7031 31.4895L7.70359 31.4371C7.77765 23.5374 7.77872 23.424 8.2622 22.4694C9.1319 20.7921 11.095 19.8976 13.2071 20.2454C14.7477 20.4939 15.7417 21.227 16.3877 22.6061L16.7108 23.2894L16.7729 31.3031L16.835 39.3168L20.6617 39.3541L24.476 39.379V30.9677C24.476 21.6743 24.4387 21.2021 23.7181 19.177ZM53.3253 23.2024C52.1078 18.3197 48.8401 14.8657 44.2307 13.586C43.2368 13.3127 42.7274 13.263 41.0625 13.2133C38.8882 13.1636 37.944 13.2878 36.1425 13.8593C31.9306 15.1887 28.8494 18.4563 27.6318 22.9167C27.3087 24.0722 27.2839 24.3206 27.2839 26.5819C27.2839 28.8058 27.3087 29.104 27.6069 30.2098C28.2281 32.471 29.2345 34.2974 30.8 35.9374C33.3221 38.5838 36.9997 40.0002 41.311 40.0002C45.5725 39.9878 48.4301 38.8944 51.1262 36.2232C52.3562 35.0056 52.4681 34.8689 52.2693 34.7198C52.145 34.6329 50.7659 33.8253 49.2005 32.9183L46.3429 31.2783L45.8086 31.7256C45.1501 32.2598 43.9201 32.8313 43.0131 33.0301C41.4601 33.3531 39.087 33.1047 37.7949 32.471C36.9625 32.061 36.0182 31.1416 35.6082 30.334L35.2852 29.688H44.3425H53.4123L53.5117 29.0916C53.5614 28.7686 53.6111 27.551 53.6111 26.3955C53.5987 24.6561 53.549 24.097 53.3253 23.2024ZM124.119 8.52922C121.771 8.9268 120.106 10.542 119.162 13.3623C118.516 15.2756 118.354 16.5926 118.354 19.8727C118.342 23.8112 118.665 25.7494 119.709 27.8988C120.864 30.2843 122.653 31.4273 125.262 31.4273C127.673 31.4273 129.449 30.334 130.605 28.1224C131.673 26.06 132.108 23.7491 132.108 19.9969C132.108 15.1141 131.276 12.0329 129.462 10.1817C128.108 8.81498 126.107 8.19376 124.119 8.52922ZM36.4032 21.5748C37.0368 20.8666 38.3911 20.1584 39.4472 20.0093C40.4784 19.8603 40.6896 19.8603 41.6836 19.9969C43.4105 20.2454 44.8518 21.2394 45.5724 22.6806C45.7712 23.0906 45.9824 23.5379 46.0196 23.687L46.1066 23.9727H40.6399C36.7138 23.9727 35.1608 23.9354 35.1608 23.8361C35.1608 23.513 35.9311 22.1091 36.4032 21.5748Z" fill="white"/>
</svg>
