<svg enable-background="new 0 0 450 88" viewBox="0 0 450 88" xmlns="http://www.w3.org/2000/svg"><g clip-rule="evenodd" fill-rule="evenodd"><path d="m10.666 1.514c-1.181-.722-2.614-1.09-4.294-1.09-1.759 0-3.192.369-4.282 1.09-1.113.726-1.67 1.669-1.67 2.827v79.1c0 1 .579 1.908 1.727 2.761 1.136.847 2.533 1.268 4.225 1.268 1.602 0 3.01-.421 4.237-1.268 1.216-.841 1.841-1.761 1.841-2.761v-79.1c0-1.158-.603-2.09-1.784-2.827"/><path d="m20.571 43.023c-.716.676-1.022 1.698-.886 3.095.112 1.392.749 2.715 1.895 3.959 1.136 1.255 2.42 2.038 3.874 2.38 1.431.324 2.521.146 3.249-.528l6.36-3.971v35.483c0 1 .545 1.908 1.67 2.761 1.09.847 2.498 1.268 4.179 1.268s3.124-.421 4.351-1.268c1.214-.853 1.829-1.761 1.829-2.761v-47.705c0-1.159-.603-2.09-1.771-2.805-1.183-.738-2.647-1.091-4.408-1.091s-3.17.352-4.237 1.091z"/><path d="m56.031 72.52c0-6.093 2.271-10.317 6.792-12.715 4.544-2.409 11.108-3.59 19.708-3.59h4.986v-2.117c0-3.426-.921-6.378-2.771-8.877-1.852-2.488-4.658-3.726-8.44-3.726-3.248 0-6.1.625-8.541 1.875-2.477 1.249-3.805 1.885-4.032 1.885-1.284 0-2.318-.636-3.124-1.885-.784-1.25-1.181-2.647-1.181-4.157 0-1.982 1.829-3.692 5.497-5.14 3.659-1.448 7.532-2.164 11.608-2.164 7.78 0 13.528 2.102 17.266 6.327 3.748 4.236 5.622 9.496 5.622 15.805v28.628c0 1.075-.556 1.999-1.647 2.807-1.101.784-2.476 1.193-4.134 1.193-1.511 0-2.794-.409-3.851-1.193-1.057-.808-1.59-1.731-1.59-2.807v-3.997c-5.055 5.94-10.757 8.905-17.095 8.905-4.396 0-7.997-1.289-10.825-3.884-2.829-2.579-4.248-6.306-4.248-11.173zm12.017-1.48c0 2.435.671 4.258 2.021 5.53 1.363 1.25 3.146 1.887 5.327 1.887 2.874 0 5.612-1.223 8.213-3.652 2.612-2.447 3.907-5.016 3.907-7.764v-4.215h-2.829c-3.397 0-6.168.149-8.325.455-2.158.301-4.078 1.102-5.782 2.391-1.691 1.288-2.532 3.094-2.532 5.368z"/><path d="m109.734 64.871v-10.267c0-6.771 1.954-12.234 5.885-16.425 3.917-4.18 9.767-6.27 17.547-6.27 4.908 0 9.019.847 12.348 2.567 3.315 1.709 4.986 3.635 4.986 5.759 0 1.295-.477 2.589-1.408 3.878-.954 1.29-2.067 1.937-3.352 1.937-.374 0-1.714-.567-4.02-1.714-2.294-1.136-4.85-1.705-7.633-1.705-8.313 0-12.472 4.01-12.472 12.019v10.2c0 8.008 4.191 12.017 12.574 12.017 2.862 0 5.451-.62 7.758-1.829 2.306-1.227 3.68-1.841 4.145-1.841 1.489 0 2.726.614 3.68 1.841.932 1.209 1.398 2.511 1.398 3.868 0 2.129-1.727 4.117-5.203 5.934-3.476 1.83-7.702 2.738-12.676 2.738-7.871 0-13.756-2.067-17.673-6.226-3.93-4.141-5.884-9.638-5.884-16.481"/><path d="m159.892 82.668v-78.361c0-1.147.534-2.073 1.592-2.793 1.067-.727 2.442-1.09 4.201-1.09 1.727 0 3.181.363 4.35 1.09 1.182.721 1.749 1.647 1.749 2.793v50.756l23.684-21.905c.681-.681 1.511-1.028 2.486-1.028 1.283 0 2.567.62 3.852 1.835 1.283 1.215 1.931 2.498 1.931 3.873 0 .988-.341 1.829-1.021 2.505l-14.619 13.124 17.786 25.783c.455.677.694 1.369.694 2.046 0 1.373-.773 2.726-2.271 4.054-1.512 1.319-2.988 2-4.431 2-1.272 0-2.34-.567-3.157-1.709l-16.652-24.751-8.28 7.524v14.255c0 .989-.603 1.897-1.816 2.738-1.193.852-2.625 1.262-4.283 1.262-1.668 0-3.056-.409-4.146-1.262-1.091-.841-1.649-1.749-1.649-2.739"/><path d="m210.972 64.871v-10.83c0-6.015 2.316-11.199 6.928-15.578 4.612-4.361 10.144-6.554 16.642-6.554 6.19 0 11.493 1.977 15.911 5.93 4.432 3.958 6.635 8.945 6.635 14.982 0 2.34-.263 4.208-.795 5.646-.523 1.441-1.363 2.43-2.488 3.021-1.136.585-2.191.949-3.18 1.107-.989.142-2.261.232-3.839.232h-23.91v2.636c0 3.834 1.363 6.883 4.078 9.143 2.715 2.262 6.269 3.392 10.654 3.392 3.089 0 6.009-.732 8.769-2.187 2.759-1.453 4.44-2.181 5.043-2.181 1.284 0 2.385.612 3.282 1.828.909 1.21 1.363 2.409 1.363 3.545 0 1.885-1.817 3.771-5.44 5.701-3.611 1.909-8.088 2.874-13.357 2.874-7.701 0-14.005-2.092-18.913-6.281-4.919-4.193-7.383-9.652-7.383-16.426zm11.904-9.695h18.798c1.67 0 2.783-.221 3.352-.663.567-.454.852-1.364.852-2.705 0-2.998-1.102-5.542-3.283-7.627-2.205-2.101-4.918-3.152-8.156-3.152-3.18 0-5.895 1-8.166 2.976-2.249 1.987-3.396 4.515-3.396 7.576v3.595z"/><path d="m266.707 82.668v-46.205c0-1.135.546-2.067 1.636-2.788 1.103-.721 2.478-1.09 4.158-1.09 1.499 0 2.783.369 3.839 1.102 1.057.733 1.591 1.675 1.591 2.829v5.071c1.272-2.692 3.226-4.964 5.838-6.849 2.602-1.885 5.44-2.829 8.529-2.829h3.646c1.204 0 2.261.512 3.159 1.551.908 1.044 1.362 2.289 1.362 3.753 0 1.455-.454 2.732-1.362 3.794-.898 1.085-1.955 1.624-3.159 1.624h-3.646c-3.601 0-6.803 1.557-9.552 4.663-2.76 3.113-4.146 7.129-4.146 12.058v23.33c0 .987-.603 1.896-1.806 2.726-1.205.852-2.647 1.262-4.294 1.262-1.681 0-3.056-.409-4.158-1.262-1.09-.842-1.635-1.75-1.635-2.74"/><path d="m303.804 65.779v-12.426c0-5.77 2.112-10.779 6.327-14.993 4.247-4.226 9.269-6.344 15.083-6.344 5.794 0 10.871 2.096 15.176 6.287 4.293 4.174 6.44 9.195 6.44 15.049v12.426c0 5.709-2.158 10.745-6.498 15.131-4.338 4.366-9.393 6.554-15.118 6.554-5.679 0-10.665-2.188-14.958-6.554-4.305-4.385-6.452-9.421-6.452-15.13zm7.361-.033c0 3.861 1.362 7.293 4.121 10.269 2.761 2.998 6.066 4.486 9.928 4.486 3.919 0 7.28-1.488 10.076-4.486 2.794-2.976 4.191-6.407 4.191-10.269v-12.347c0-3.726-1.421-7.042-4.249-9.995-2.839-2.954-6.168-4.43-10.019-4.43-3.861 0-7.167 1.477-9.928 4.43-2.759 2.953-4.121 6.27-4.121 9.995v12.347z"/><path d="m355.86 83.693v-48.252c0-.835.341-1.499 1.022-1.987.683-.5 1.546-.756 2.611-.756.91 0 1.705.272 2.375.818.681.539 1.012 1.192 1.012 1.971v5.316c1.294-2.471 3.248-4.543 5.905-6.236 2.636-1.698 5.735-2.55 9.28-2.55 5.441 0 10.165 2.096 14.152 6.287 3.999 4.174 6.009 9.195 6.009 15.049v30.34c0 .919-.374 1.646-1.136 2.168-.75.528-1.625.808-2.612.808-.898 0-1.726-.279-2.478-.808-.771-.522-1.135-1.243-1.135-2.158v-30.276c0-3.708-1.409-7.06-4.192-10.007-2.804-2.959-6.12-4.447-9.96-4.447-3.556 0-6.69 1.34-9.405 3.987-2.715 2.658-4.078 6.155-4.078 10.467v30.275c0 .762-.396 1.443-1.146 2.045-.749.613-1.612.921-2.591.921-1.065 0-1.929-.308-2.611-.921-.681-.601-1.022-1.283-1.022-2.054"/><path d="m406.746 65.779v-12.761c0-5.719 2.125-10.631 6.338-14.783 4.236-4.134 9.337-6.219 15.3-6.219 5.735 0 10.699 1.994 14.903 5.935 4.191 3.97 6.293 8.927 6.293 14.857 0 2.124-.262 3.828-.739 5.122-.512 1.289-1.294 2.183-2.397 2.728-1.091.533-2.09.874-2.988 1.021-.908.16-2.157.233-3.736.233h-25.602v4.22c0 4.499 1.602 8.076 4.805 10.78 3.225 2.697 7.349 4.054 12.415 4.054 2.555 0 4.805-.374 6.735-1.146 1.919-.751 3.397-1.523 4.406-2.277 1.034-.766 1.829-1.142 2.442-1.142.83 0 1.567.396 2.203 1.193.648.793.978 1.59.978 2.333 0 1.613-1.636 3.267-4.873 4.975-3.248 1.699-7.291 2.562-12.118 2.562-7.18 0-13.04-1.988-17.562-5.986-4.532-4-6.803-9.225-6.803-15.699zm7.372-9.348h22.648c2.271 0 3.77-.237 4.532-.737.749-.479 1.136-1.534 1.136-3.113 0-3.782-1.341-7.099-4.032-9.973-2.669-2.885-6.055-4.304-10.131-4.304-3.931 0-7.282 1.345-10.03 4.072-2.748 2.714-4.123 5.969-4.123 9.751z"/></g></svg>