<svg xmlns="http://www.w3.org/2000/svg" xmlns:xlink="http://www.w3.org/1999/xlink" viewBox="0 0 760 760"><defs><linearGradient id="c"><stop offset="0"/><stop offset="1" stop-opacity="0"/></linearGradient><linearGradient id="d"><stop offset="0" stop-color="#b7b7b7"/><stop offset="1"/></linearGradient><linearGradient id="b"><stop offset="0" stop-color="#fff"/><stop offset=".5" stop-color="#7fd4ee"/><stop offset="1" stop-color="#00aade"/></linearGradient><linearGradient id="a"><stop offset="0" stop-color="#fff"/><stop offset=".499" stop-color="#d5e2ec"/><stop offset="1" stop-color="#d5e2ec"/></linearGradient><filter color-interpolation-filters="sRGB" id="e"><feGaussianBlur stdDeviation="4.667"/></filter><filter color-interpolation-filters="sRGB" id="g"><feGaussianBlur stdDeviation="1.309"/></filter></defs><path d="M62.258 161.913L216.728 18.68l174.573 214.777L579.875 18.232l145.084 133.234-208.734 214.092 213.858 228.083-155.107 144.4-196.562-228.273-196.856 231.219-140.11-138.659 214.884-229.403z" fill="#969898"/><g fill="#444" stroke="#444" stroke-width="3"><g transform="translate(26.6 37.252)" opacity=".8" filter="url(#e)"><path d="M58.346 417.636l56.432 69.384 56.45-66.665 40.5 40.308-61.78 65.916 65.458 68.016-42.746 42.503-64.149-72.738-60.243 74.29L7.19 597.328l67.518-65.786-61.679-69.086zM245.322 432.76s117.205-1.22 117.205-.743c0 .473-.462 46.742-.462 46.742l-56.151 2.88-.171 36.17 53.92.573.174 44.41-53.062 1.122-.041 75.283-62.11-.883s-.25-205.554.698-205.554zM542.34 431.38c3.791 18.023 7.58 36.047 11.372 54.07-36.273 12.229-88.713 15.006-91.249 68.095 6.672 52.011 70.355 34.371 98.684 36.77.473 17.234.438 33.7.911 50.935-126.766 16.69-161.696-45.13-163.833-67.52-12.5-100.83 88.584-130.205 144.114-142.35zM597.268 428.94l116.39-.421-1.345 46.27-56.5.053.8 34.592 48.828-.686-.566 45.71-48.375.807.475 32.727 57.105.096.113 50.463-118.3-3.347z"/></g><path d="M78.946 450.387l56.432 69.384 56.45-66.664 40.5 40.307-61.78 65.917 65.458 68.015-42.746 42.503-64.149-72.737-60.242 74.29L27.79 630.08l67.518-65.787-61.679-69.086zM265.922 465.512s117.205-1.22 117.205-.744c0 .473-.462 46.743-.462 46.743l-56.151 2.88-.171 36.17 53.92.572.174 44.41-53.062 1.123-.041 75.283-62.11-.884s-.25-205.553.698-205.553zM562.94 464.131c3.791 18.024 7.58 36.047 11.372 54.07-36.273 12.23-88.713 15.007-91.249 68.096 6.672 52.01 70.355 34.371 98.684 36.77.473 17.234.438 33.7.911 50.935-126.766 16.69-161.696-45.131-163.833-67.52-12.5-100.83 88.584-130.205 144.114-142.351zM617.868 461.692l116.39-.422-1.345 46.27-56.5.054.8 34.591 48.828-.685-.566 45.709-48.375.807.475 32.728 57.105.096.113 50.462-118.3-3.347z"/></g><g transform="matrix(3.7525 0 0 3.7525 -424.922 -686.03)" fill="#444" stroke-width=".268"><use xlink:href="#f" height="760" width="760" transform="translate(1.865 1.2)" opacity=".8" filter="url(#g)"/><path id="f" d="M118.946 209.57c-.915.5 7.297 5.882 22.687 12.218 15.391 6.336 36.667 22.377 35 24.969-4.999 7.041-7.941 15.482-5.906 29.906.367 2.54-7.543 6.95-6.969 10.781.48 2.915 8.838-2.896 9.75-1.75.558 2.057-4.466 12.475-2.437 13.22 1.484.44 14.523-12.402 15.28-12.188 21.515 6.504 49.521 1.612 50.063 1.406-.05-.113 20.12 9.492 21.875 8.344 4.427-4.794-8.387-11.551-6.25-14.25.937-1.413 15.621 5.302 16.344 3.468 1.052-3.175-6.817-9.837-8-11.812-1.029-1.821-1.233-4.754 1.406-6.594 2.64-1.84 29.632-12.166 28.5-20.156-1.957-14.518-34.26-15.466-34.78-16.688-.246-.574 1.447-20.76-7.97-17.03-5.798 2.157-1.093 15.024-.718 16.687.346 1.53-2.574 1.36-3.125.687-1.23-1.502-5.273-14.925-10.063-12.531-6.718 3.704-.41 15.281-1.75 15.656-2.489 1.391-2.349 4.795-4.344 7.563-3.29 4.715-27.917-2.206-35.875-2.688-5.826-.344-11.38 4.42-11.906 3.813-7.094-7.104-21.765-19.485-37.844-23.594-9.017-2.447-22.43-9.528-22.968-9.438zm164.218 13c-.537.231-2.704 11.396-1.656 11.906.93.695 2.536-11.257 1.688-11.875-.014-.016-.014-.039-.032-.032zm7.97 1.53c-1.22-.022-7.716 10.361-6.22 11.47.93.694 6.71-11.045 6.313-11.438a.136.136 0 00-.094-.031zm-31.5 12.657c1.538 0 2.78 1.404 2.78 3.156 0 1.753-1.242 3.188-2.78 3.188-1.54 0-2.782-1.435-2.782-3.188 0-1.752 1.242-3.156 2.781-3.156zm-6.25 1.906c1.183 5.111 3.016 6.726 8.562 6.563-7.06 6.473-11.334-4.604-8.563-6.563zm14.937 13.375c.439-.035.775.034.968.219 2.781 1.008-11.933 6.311-12.03 5.562-.149-.516 7.986-5.531 11.062-5.78zm1.812 3.375a.767.767 0 01.406.094c2.625 2.608-8.31 8.39-8.187 8.187-.881-.532 5.498-8.104 7.781-8.28z" fill="#444" fill-rule="evenodd" stroke="none" stroke-width=".268" fill-opacity="1"/><path d="M118.942 209.569c-.915.5 7.303 5.88 22.693 12.217 15.391 6.336 36.669 22.383 35.002 24.975-5 7.04-7.948 15.48-5.913 29.905.367 2.539-7.536 6.945-6.962 10.776.432 2.624 7.24-1.822 9.26-1.899-3.397-25.867 41.673-40.5 79.956-46.46.112-.165.25-.306.408-.417.027.12.055.226.083.342 1.237-.19 2.47-.378 3.69-.55.462-1.012 1.397-1.699 2.473-1.699.848 0 1.605.423 2.115 1.1 6.362-.799 12.393-1.35 17.813-1.658-10.114-4.294-23.714-4.965-24.05-5.754-.246-.574 1.447-20.76-7.97-17.03-5.798 2.157-1.091 15.017-.716 16.68.346 1.53-2.58 1.363-3.132.691-1.23-1.502-5.27-14.927-10.06-12.533-6.718 3.704-.409 15.281-1.749 15.656-2.489 1.391-2.352 4.794-4.347 7.562-3.29 4.715-27.918-2.2-35.876-2.682-5.826-.344-11.374 4.414-11.9 3.806-7.094-7.104-21.763-19.484-37.842-23.593-9.017-2.447-22.438-9.525-22.976-9.435z"/></g></svg>