<svg xmlns="http://www.w3.org/2000/svg" viewBox="0 0 82 28" enable-background="new 0 0 82 28"><g fill="#444"><path d="m3 18.3l2.4-.4c.6-.1.7-.4.7-.7 0-.7-.5-1.3-1.7-1.3s-1.8.7-1.9 1.6l-2.4-.5c.2-1.6 1.6-3.3 4.4-3.3 3.1 0 4.4 1.8 4.4 3.8v5c0 .5.1 1.2.1 1.6h-2.5c-.1-.3-.1-.8-.1-1.2-.5.8-1.5 1.5-2.9 1.5-2.1 0-3.4-1.4-3.4-3-.1-1.9 1.2-2.9 2.9-3.1m3.3 1.7v-.4l-2.2.3c-.7.1-1.2.5-1.2 1.3 0 .6.4 1.2 1.3 1.2 1-.1 2.1-.7 2.1-2.4"/><path d="m12.9 19l-3.5-5.1h3.2c.3.5 1.6 2.4 2 3l2-3h3l-3.5 5 3.6 5.2h-3.1l-2.1-3.1c-.4.5-1.7 2.5-2 3.1h-3l3.4-5.1"/><path d="m29 13.9l2.2 6.5 1.8-6.5h2.8l-3.2 10.1h-2.7l-2.3-6.8-2.4 6.8h-2.7l-3.3-10.1h2.9l1.9 6.5 2.1-6.5z"/><path d="m38.5 18.3l2.4-.4c.6-.1.7-.4.7-.7 0-.7-.5-1.3-1.7-1.3s-1.8.7-1.9 1.6l-2.4-.5c.2-1.6 1.6-3.3 4.4-3.3 3.1 0 4.4 1.8 4.4 3.8v5c0 .5.1 1.2.1 1.6h-2.5c-.1-.3-.1-.8-.1-1.2-.5.8-1.5 1.5-2.9 1.5-2.1 0-3.4-1.4-3.4-3-.1-1.9 1.2-2.9 2.9-3.1m3.2 1.7v-.4l-2.2.3c-.7.1-1.2.5-1.2 1.3 0 .6.4 1.2 1.3 1.2 1-.1 2.1-.7 2.1-2.4"/><path d="m46.1 28l2.3-5.3-4.2-8.8h3l2.7 6 2.5-6h2.9l-6.4 14.1z"/></g><g fill="#444"><path transform="translate(56.41.062)" d="m25.6 10.2v-3.5l-5.2-2.5v5.2l-19.7-9.5v3.5l22.6 10.7v-5z"/><path d="m62.1 12.7v3.4l3.7 1.8-5.9 6.1h3.9l6.8-7.2z"/><path d="m79.7 15.9l-19.9-9.5v3.5l15.8 7.6z"/></g></svg>
