<svg xmlns="http://www.w3.org/2000/svg" viewBox="0 0 924 118" enable-background="new 0 0 924 118"><g transform="matrix(2.40211 0 0-2.40211-851.96 145.11)" fill="#231f20"><path d="m563.8 20.5c-.3-.2-.7-.4-1-.7l-.1-.1h.1c6.9-1.9 13.6-1.8 15 2.5 1.7 5.5-9.2 11.5-14.4 14.3-1.1.6-1.6.2-.9-.6 3.2-3.7 7.9-11.1 1.3-15.4"/><path d="m623 44.7h-5.8v4.8h5.8v7.2h5.6v-7.2h9.2v-4.8h-9.2v-14.6c0-3.6 1-5.6 5.7-5.6 1.8 0 3.8.5 3.8.5v-5c-1.9-.3-3.4-.4-5.6-.4-8.8 0-9.5 6.4-9.5 9.9v15.2m80.1-25.1h-5.7v30h5.7v-30m10.2 15.2c0-8.2 6.7-10.2 9.9-10.2 6.1 0 10.4 3.4 10.4 10.3 0 6.9-4.9 10-10.5 10-3.1.1-9.8-1.8-9.8-10.1m-5.9.1c0 11.3 9.1 15.1 15.5 15.1 7.2 0 10.7-4.1 10.7-4.1l.3 3.7h5.2v-30.1h-5.2l-.3 4c0 0-3.6-4-10.8-4-7.1 0-15.4 4.2-15.4 15.4m-3.4 21.6c0 2.1-1.7 3.8-3.8 3.8-2.1 0-3.8-1.7-3.8-3.8 0-2.1 1.7-3.8 3.8-3.8 2.1.1 3.8 1.7 3.8 3.8m-10.8-12.1v5.1c-5.7.5-9.6-.8-12.7-4.1l-.3 4.1h-5.4v-30h5.7v15.6c0 4.3 3.5 9.8 12.7 9.3m-54-9.7c0 9.4 6.9 15.4 16.2 15.4 9.2 0 15.5-6.7 15.5-14.9 0 0 0-1.3-.1-2.4l-25.7-.1c.2-4.6 5.6-8.1 11.1-8.1 5.9 0 9.5 3.7 9.5 3.7l4.1-3.6c-4.2-4-8.7-5.2-13.6-5.2-10.1 0-17.1 5.9-17.1 15.1l.1.1zm25.4 2.6c0 4.1-4.1 7.5-9.2 7.5-5.4 0-9.9-3.3-10.2-7.5h19.4m-59.7.1c-5.8 1-11.5 1.8-11.5 4.4 0 1.8 1.7 3.3 6.8 3.3 3.8 0 8.1-.9 9.3-3.5l5.3 2.2c-2 4.1-8.1 6.1-15 6.1-6.1 0-12.6-2.3-12.6-8.4 0-5.3 4.8-7 12.8-8.5 5.3-1 10.2-1.5 10.2-4.4 0-1.8-2.4-4.1-8.5-4.1-4.3 0-8.6.9-9.9 4l-5.2-2.2c2.1-4.7 7.7-7.2 14.2-7.2 13 0 15.5 6.2 15.5 9.7.2 5.9-5.6 7.6-11.4 8.6m-165.4 7.6c-5.6 0-10.5-3.2-10.5-10 0-6.9 4.3-10.3 10.4-10.3 3.2 0 9.9 1.3 9.9 10.2.1 8.8-6.6 10.1-9.8 10.1m.3-25.5c-7.2 0-10.8 4.6-10.8 4.6v-12.7h-5.5v38.2h5.2l.3-3.7c0 0 3.5 4.1 10.7 4.1 6.3 0 15.5-3.2 15.5-15.1s-8.2-15.4-15.4-15.4m42.8 15.3c0-8.2 6.7-10.2 9.9-10.2 6.1 0 10.4 3.4 10.4 10.3 0 6.9-4.9 10-10.5 10-3 .1-9.8-1.8-9.8-10.1m-5.8.1c0 11.3 9.1 15.1 15.5 15.1 7.2 0 10.7-4.1 10.7-4.1l.3 3.7h5.2v-30.1h-5.2l-.3 4c0 0-3.6-4-10.8-4-7.2 0-15.4 4.2-15.4 15.4m.4 9.5v5.1c-5.7.5-9.6-.8-12.7-4.1l-.3 4.1h-5.4v-30h5.7v15.6c0 4.3 3.5 9.8 12.7 9.3m-104.2-7c-5.8 1-11.5 1.8-11.5 4.4 0 1.8 1.7 3.3 6.8 3.3 3.8 0 8.1-.9 9.3-3.5l5.3 2.2c-2 4.1-8.1 6.1-15 6.1-6.1 0-12.6-2.3-12.6-8.4 0-5.3 4.8-7 12.8-8.5 5.3-1 10.2-1.5 10.2-4.4 0-1.8-2.4-4.1-8.5-4.1-4.3 0-8.6.9-9.9 4l-5.2-2.2c2.1-4.7 7.7-7.2 14.2-7.2 13 0 15.5 6.2 15.5 9.7.2 5.9-5.6 7.6-11.4 8.6m30.7 12.6c-7.7 0-16.8-3.8-16.8-15.1 0-11.2 8.2-15.5 16.8-15.5 8.6 0 16.8 4.3 16.8 15.5 0 11.2-9.1 15.1-16.8 15.1m0-25.4c-4.7 0-10.9 2-10.9 10.2 0 8.3 6.9 10 10.9 10 4 0 10.9-1.7 10.9-10 0-8.2-6.2-10.2-10.9-10.2"/><path d="m562.7 19.8c0 0-8.6-5.4-23.9-5.4-5.9 0-10.9.9-13 3-2.2 2.2-3.4 5.8-3.4 9.2 0 2.9 1.2 5.3 3.7 5.3 6.4 0 26.4-10.2 36.6-12.1"/><path d="m533.9 51.3c.3.2.7.4 1 .7h.1-.1c-6.9 1.9-13.6 1.8-15-2.5-1.7-5.5 9.2-11.5 14.4-14.3 1.1-.6 1.6-.2.9.6-3.2 3.8-7.8 11.1-1.3 15.5"/><path d="m535 52c0 0 8.6 5.4 23.9 5.4 5.9 0 10.9-.9 13-3 2.2-2.2 3.4-5.8 3.4-9.2 0-2.9-1.2-5.3-3.7-5.3-6.4 0-26.4 10.2-36.6 12.1"/></g></svg>