<?xml version="1.0" encoding="utf-8"?>
<!-- Generator: Adobe Illustrator 23.0.6, SVG Export Plug-In . SVG Version: 6.00 Build 0)  -->
<svg version="1.1" id="Layer_1" xmlns="http://www.w3.org/2000/svg" xmlns:xlink="http://www.w3.org/1999/xlink" x="0px" y="0px"
	 viewBox="0 0 110 110" enable-background="new 0 0 110 110" xml:space="preserve">
<path fill="currentColor" d="M51,98.6C27,98.6,7.4,79,7.4,55S27,11.4,51,11.4S94.6,31,94.6,55S75,98.6,51,98.6z M51,12.4C27.5,12.4,8.4,31.5,8.4,55
	c0,23.5,19.1,42.6,42.6,42.6c23.5,0,42.6-19.1,42.6-42.6C93.6,31.5,74.5,12.4,51,12.4z"/>
<circle fill="currentColor" cx="48.5" cy="20.2" r="0.5"/>
<circle fill="currentColor" cx="53.4" cy="20.9" r="0.5"/>
<circle fill="currentColor" cx="59.9" cy="29.6" r="0.5"/>
<circle fill="currentColor" cx="24.3" cy="74.7" r="0.5"/>
<circle fill="currentColor" cx="25.5" cy="78.5" r="0.5"/>
<circle fill="currentColor" cx="19.5" cy="75.2" r="0.4"/>
<circle fill="currentColor" cx="39.2" cy="82.8" r="0.4"/>
<circle fill="currentColor" cx="70" cy="76.4" r="0.4"/>
<circle fill="currentColor" cx="78.9" cy="66.7" r="0.4"/>
<circle fill="currentColor" cx="35.1" cy="32.4" r="0.4"/>
<circle fill="currentColor" cx="44.9" cy="25.2" r="0.4"/>
<circle fill="currentColor" cx="43.8" cy="24.5" r="0.4"/>
<circle fill="currentColor" cx="42.9" cy="23.8" r="0.4"/>
<circle fill="currentColor" cx="36.6" cy="34.3" r="0.4"/>
<circle fill="currentColor" cx="51.1" cy="15.5" r="0.4"/>
<circle fill="currentColor" cx="53.5" cy="25.9" r="0.4"/>
<circle fill="currentColor" cx="49.7" cy="23.9" r="0.4"/>
<circle fill="currentColor" cx="43.3" cy="26.6" r="0.4"/>
<circle fill="currentColor" cx="71.7" cy="86" r="0.4"/>
<circle fill="currentColor" cx="23.7" cy="77.1" r="0.4"/>
<circle fill="currentColor" cx="48.8" cy="81.8" r="0.4"/>
<circle fill="currentColor" cx="31.1" cy="76.8" r="0.4"/>
<circle fill="currentColor" cx="34.3" cy="81.9" r="0.4"/>
<circle fill="currentColor" cx="57.3" cy="78.7" r="0.4"/>
<circle fill="currentColor" cx="70" cy="71.5" r="0.4"/>
<circle fill="currentColor" cx="79.7" cy="75.9" r="0.4"/>
<circle fill="currentColor" cx="82.9" cy="78" r="0.4"/>
<circle fill="currentColor" cx="83.5" cy="72.3" r="0.4"/>
<circle fill="currentColor" cx="35.6" cy="64.2" r="0.4"/>
<circle fill="currentColor" cx="35.7" cy="72.5" r="0.5"/>
<circle fill="currentColor" cx="38.6" cy="78.6" r="0.5"/>
<circle fill="currentColor" cx="73.3" cy="72.2" r="0.5"/>
<circle fill="currentColor" cx="85.8" cy="71.5" r="0.5"/>
<circle fill="currentColor" cx="79.6" cy="68.9" r="0.5"/>
<circle fill="currentColor" cx="73.3" cy="69.2" r="0.5"/>
<path fill="currentColor" d="M60.3,19.9l1.2-0.1l-1.2-0.1c0-0.2-0.2-0.4-0.5-0.4l-0.1-1.2l-0.1,1.2c-0.2,0-0.4,0.2-0.4,0.5L58,19.9l1.2,0.1
	c0,0.2,0.2,0.4,0.4,0.4l0.1,1.2l0.1-1.2C60.1,20.3,60.3,20.1,60.3,19.9z"/>
<path fill="currentColor" d="M40,33.3l1.2-0.1L40,33.1c0-0.2-0.2-0.4-0.5-0.4l-0.1-1.2l-0.1,1.2c-0.2,0-0.4,0.2-0.4,0.5l-1.2,0.1l1.2,0.1
	c0,0.2,0.2,0.4,0.4,0.4l0.1,1.2l0.1-1.2C39.8,33.7,40,33.5,40,33.3z"/>
<path fill="currentColor" d="M84.9,68.6l1.2-0.1l-1.2-0.1c0-0.2-0.2-0.4-0.5-0.4l-0.1-1.2V68c-0.2,0-0.4,0.2-0.4,0.5l-1.2,0.1l1.2,0.1
	c0,0.2,0.2,0.4,0.4,0.4l0.1,1.2l0.1-1.2C84.7,69,84.9,68.8,84.9,68.6z"/>
<path fill="currentColor" d="M36,87.1l1.2-0.1L36,86.9c0-0.2-0.2-0.4-0.5-0.4l-0.1-1.2l-0.1,1.2c-0.2,0-0.4,0.2-0.4,0.5h-1.2l1.2,0.1
	c0,0.2,0.2,0.4,0.4,0.4l0.1,1.2l0.1-1.2C35.8,87.5,36,87.3,36,87.1z"/>
<path fill="currentColor" d="M81.1,78.1l1.2-0.1l-1.2-0.1c0-0.2-0.2-0.4-0.5-0.4l-0.1-1.2l-0.1,1.2c-0.2,0-0.4,0.2-0.4,0.5h-1.2l1.2,0.1
	c0,0.2,0.2,0.4,0.4,0.4l0.1,1.2l0.1-1.2C80.9,78.5,81.1,78.3,81.1,78.1z"/>
<path fill="currentColor" d="M13.9,95.4l0.2-2.8l0.1-0.1c0.6-0.5,1.3-1.2,2.2-2c5.2-4.8,14.9-13.9,18.9-16.6c0.8-0.5,2.1-1.4,3.6-2.5
	c7.6-5.2,21.8-14.8,25.2-16.8c0.5-0.3,1.2-0.7,2-1.3l1.2-0.8l0-0.1l0.4-0.3c3.8-2.6,9.1-6.4,13.2-9.6c-5.3,2.9-10.8,5.2-15.1,6.8
	l-0.2,0.1l0.1,0.2L65,49.9c-3.4,1.3-6.7,2.2-9.7,3.1c-4,1.1-10.2,2.7-16.2,4.2c-6.9,1.7-13.4,3.3-16.4,4.3l-1,0.3
	c-5.1,1.5-10.3,3.1-18.1,7.6l-0.2,0.1l-2.3-1L1.8,68c13.9-9.1,36.7-16.1,45.2-18.8c3.5-1.1,7.8-2.7,14-5l0.3-0.1l0,0l0.6-0.2
	c9.3-3.6,18.3-7.8,24-11.1c4.4-2.6,13.5-7.9,20.9-17.6l1.9-2.4l-1,2.9c-4.1,11.8-14.5,20.7-19.5,25l-0.6,0.5
	c-3.8,3.2-10.2,7.8-18.4,13.3l-0.1,0.1l0,0L68.5,55c-1.9,1.2-3.9,2.5-6,3.9c-1.5,1-3.1,2-4.8,3.1C53.8,64.6,41.4,73,35.4,77.5
	l-1,0.8C30,81.5,26,84.6,14.8,94.6L13.9,95.4z M67.2,53.8l-0.5,0.3c-0.8,0.5-1.5,1-2,1.3c-3.4,2-17.5,11.6-25.2,16.7
	c-1.6,1.1-2.8,1.9-3.6,2.4C32,77.3,22.3,86.3,17.1,91.1c-0.4,0.4-0.8,0.7-1.1,1c9.7-8.7,13.6-11.6,17.7-14.7l1-0.8
	c6-4.6,18.5-13,22.3-15.5c1.7-1.1,3.3-2.1,4.8-3.1c2-1.3,3.9-2.5,5.6-3.6C67.4,54.2,67.3,54,67.2,53.8z M3.2,68.3L3.2,68.3
	c7.9-4.4,13.1-6,18.2-7.5l1-0.3c3-1,9.5-2.6,16.4-4.3c6-1.5,12.3-3.1,16.2-4.2c2.8-0.8,5.9-1.7,9-2.9c-0.8-1.1-1.5-2-2.2-2.8
	c-0.3-0.4-0.5-0.7-0.7-0.9c0,0-0.1-0.1-0.1-0.1c-6,2.3-10.2,3.8-13.7,4.9C39,52.8,17,59.6,3.2,68.3z M68.6,52.7l0.4,0.6
	c8-5.4,14.2-9.9,17.9-13l0.6-0.5c4.5-3.8,13.5-11.5,18-21.5c-7.1,8.2-15,12.9-19.1,15.3l0,0C80.8,36.9,72,41,62.9,44.5
	c0.1,0.1,0.1,0.2,0.2,0.3c0.8,1,1.7,2.2,2.6,3.5c5.8-2.2,14-5.7,20.4-10.1l0.6,0.8C84,41.6,74.7,48.6,68.6,52.7z"/>
<path fill="currentColor" d="M45.5,65.7c-0.9-1.2-2.3-2.8-3.2-4c-1.3-1.7-2.5-3.3-3.7-5c-0.4,0.1-0.7,0.2-1.1,0.3c1.3,2.1,2.8,4.2,4.5,6.3
	c1.2,1.5,2.3,2.7,2.8,3.5c0.1,0.2,0.3,0.5,0.6,0.9c0.3-0.2,0.7-0.5,1.1-0.7C46.1,66.5,45.8,66.1,45.5,65.7z M52.4,72
	c-0.8-0.7-2.7-2-4.6-3.8c-0.4,0.3-0.9,0.6-1.3,0.9c1.3,1.8,3,4,4.4,4.6C52.9,74.6,53.4,72.9,52.4,72z M62.7,45.1
	C51.5,31,37.7,23.2,31.8,27.9c-4.6,3.7-2.7,14.3,3.6,25.6c0.3-0.1,0.7-0.2,1-0.3c-6.4-11-8.2-21.2-3.8-24.6
	c5.5-4.3,18.6,3.5,29.6,17.2c2.3,2.8,4.3,5.7,5.9,8.5c6.4,10.7,8.4,20.3,4,24.3c-1.4,1.2-5.5,1.7-11-0.8c-0.1,0.1,0,0.4,0.1,0.4
	c4.7,1.9,9.2,2.6,11.5,0.8C78.2,74.7,74,59.3,62.7,45.1z"/>
<path fill="currentColor" d="M14.5,46.8h7.2l6,10.3c0,0,0-7.4,0-8c0-0.9-1.1-2.1-1.5-2.3c0.5,0,4.7,0,5,0c-0.3,0.1-1.3,1.3-1.3,2.3c0,0.5,0,11.3,0,11.8
	c0,0.7,1,1.7,1.5,2.1h-7l-6.1-10.3c0,0,0,7.7,0,8.1c0,0.8,0.8,1.6,1.6,2.2h-5.3c0.8-0.3,1.5-1.3,1.5-2.1c0.1-0.8,0-11.2,0-11.6
	C16.2,48.2,15.2,47.4,14.5,46.8z"/>
<path fill="currentColor" d="M80.4,63H90c-0.5-0.1-1.1-0.8-1.4-1.6s-5.4-14.5-5.4-14.5h-3.4h-5c0.1,0.1,0.4,0.3,0.6,0.6c0.1-0.1,0.8,1.8,0.8,1.8
	s-3,11.4-3.2,11.9c-0.2,0.7-1.5,1.5-2,1.9h5.2c-0.5-0.6-0.9-1.1-0.8-1.8c0.1-0.6,0.4-1.9,0.4-1.9H81c0.2,0.6,0.4,1.2,0.5,1.8
	C81.7,61.7,81,62.4,80.4,63z M76.2,57.2l1.8-5.9l2.4,5.9H76.2z"/>
<path fill="currentColor" d="M38.7,61.2c0.1-0.6,0.4-1.9,0.4-1.9h5.3c0.2,0.6,0.4,1.2,0.5,1.8c0.1,0.7-0.6,1.4-1.2,1.9h8.4c0.2-0.1,0.4-0.2,0.5-0.4
	c-0.3-0.3-0.6-0.7-0.8-1.2c-0.3-0.8-5.4-14.5-5.4-14.5H38c0.4,0.4,1.6,1.4,1.4,2.4c-0.2,1-3,11.3-3.2,11.8c-0.2,0.7-1.5,1.5-2,1.9
	h5.2C39,62.4,38.6,61.9,38.7,61.2z M41.4,51.3l2.4,5.9h-4.2L41.4,51.3z"/>
<path fill="currentColor" d="M67.9,54.8c-1.6,1-3.2,2.1-5,3.3c0.8,0.4,1.4,0.9,1.5,1.5c0.1,1.2-2.2,1.7-4.3,1.5c-0.4,0-0.8-0.2-1.2-0.3
	c-0.4,0.3-0.9,0.6-1.3,0.9c-0.5,0.3-1,0.7-1.6,1.1v1.7c0.4-0.8,1.3-1.6,2-1.6c0.3,0,1.4,1,5.7,0.7c2.1-0.1,6.2-2.4,6.2-5
	C69.7,57,68.9,55.8,67.9,54.8z M55.8,58.9v1.7c0.4-0.3,0.8-0.5,1.1-0.8C56.4,59.4,55.9,59,55.8,58.9z M66.4,53.8
	c-0.4-0.2-0.8-0.5-1.2-0.6c-2.1-1-4.2-1.1-4.7-2.4c-0.3-0.9,0.6-1.8,2.8-1.7c2.2,0,4.2,1.3,4.8,1.8v-4.2c-0.2,0.2-0.9,1-1.5,0.8
	c-1.2-0.3-3.3-0.6-5.8-0.6c-2.8,0-5.1,2.2-5.2,4.9c-0.1,3.8,2.9,4.8,4.6,5.4c0.2,0.1,0.4,0.1,0.6,0.2c1.6-1.1,2.9-1.9,3.7-2.3
	C64.9,54.7,65.6,54.3,66.4,53.8z"/>
</svg>
