<svg xmlns="http://www.w3.org/2000/svg" viewBox="0 0 340 160" enable-background="new 0 0 340 160"><path d="m0 52.15h27.1v55.19h-27.1z"/><path d="m87.22 52.15h27.1v55.19h-27.1z"/><path d="m53.4 63.62l3.876-7.88 3.842 7.593c.48.801.867.737 1.633.35l3.301-1.631-2.147 10.604c-.448 2.081.74 2.691 2.02 1.278l4.709-5.03 1.249 2.847c.419.864 1.055.734 1.89.578l4.865-1.023-1.633 6.146-.034.13c-.191.803-.575 1.474.323 1.859l1.729.864-10.03 8.487c-1.023 1.055-.671 1.379-.286 2.564l.928 2.847-9.351-1.697c-1.153-.286-1.954-.286-1.986.639l.384 10.73h-2.818l.384-10.698c0-1.055-.801-1.023-2.694-.636l-8.643 1.665 1.119-2.847c.384-1.09.483-1.827-.384-2.564l-10.25-8.36 1.89-1.153c.544-.419.575-.864.289-1.798l-1.922-6.244 4.931 1.055c1.376.321 1.76 0 2.113-.766l1.379-2.818 4.868 5.509c.864 1.023 2.084.355 1.697-1.122l-2.336-11.501 3.619 2.081c.575.353 1.185.451 1.538-.223"/><path d="m182.04 75.49h-2.545l-.604-2.673c-2.132 2.418-4.072 3.213-6.84 3.213-6.809 0-10.881-5.409-10.881-11.899 0-6.49 4.072-11.899 10.881-11.899 4.963 0 9.131 2.641 9.736 7.763h-3.882c-.382-2.991-2.991-4.518-5.854-4.518-4.868 0-6.904 4.295-6.904 8.654 0 4.361 2.036 8.656 6.904 8.656 4.072.061 6.299-2.386 6.363-6.239h-6.04v-3.02h9.672v11.964"/><path d="m193.4 73.07c-3.245 0-4.677-2.959-4.677-5.822 0-2.829 1.432-5.79 4.677-5.79s4.677 2.959 4.677 5.79c0 2.863-1.432 5.822-4.677 5.822m0 2.863c5.281 0 8.304-3.627 8.304-8.686 0-5.03-3.02-8.654-8.304-8.654-5.281 0-8.304 3.627-8.304 8.651 0 5.062 3.02 8.689 8.304 8.689"/><path d="m203.1 59.04h3.945l4.168 12.631h.064l4.01-12.631h3.754l-5.886 16.449h-4.072l-5.982-16.449"/><path d="m224.07 65.814c.095-2.45 1.813-4.359 4.327-4.359 2.45 0 4.01 2.068 4.136 4.359h-8.463m12.09 2.389c.605-4.931-2.577-9.608-7.763-9.608-4.9 0-7.954 4.01-7.954 8.686 0 5.056 2.895 8.654 8.05 8.654 3.595 0 6.649-2 7.445-5.6h-3.434c-.636 1.816-1.909 2.736-4.01 2.736-3.02 0-4.422-2.291-4.422-4.868h12.09"/><path d="m238.93 59.04h3.404v3.182h.064c.414-1.75 2.577-3.627 4.804-3.627.827 0 1.05.064 1.368.095v3.5c-.509-.064-1.05-.162-1.559-.162-2.482 0-4.454 2-4.454 5.631v7.827h-3.627v-16.446"/><path d="m250.12 59.04h3.436v2.418l.064.064c1.082-1.816 2.959-2.927 5.122-2.927 3.563 0 5.822 1.909 5.822 5.6v11.295h-3.627v-10.34c-.064-2.577-1.082-3.691-3.213-3.691-2.418 0-3.977 1.909-3.977 4.327v9.704h-3.627v-16.45"/><path d="m268.39 59.04h3.436v2.291h.095c1.082-1.623 2.45-2.736 5.059-2.736 2 0 3.882.859 4.613 2.736 1.209-1.686 2.768-2.736 5.154-2.736 3.468 0 5.504 1.527 5.504 5.536v11.358h-3.627v-9.608c0-2.609-.159-4.422-2.991-4.422-2.45 0-3.5 1.623-3.5 4.391v9.64h-3.627v-10.564c0-2.259-.7-3.468-2.895-3.468-1.877 0-3.595 1.527-3.595 4.263v9.767h-3.627v-16.448"/><path d="m298.9 65.814c.095-2.45 1.814-4.359 4.327-4.359 2.45 0 4.01 2.068 4.136 4.359h-8.463m12.09 2.389c.605-4.931-2.577-9.608-7.763-9.608-4.9 0-7.954 4.01-7.954 8.686 0 5.056 2.895 8.654 8.05 8.654 3.595 0 6.649-2 7.445-5.6h-3.436c-.636 1.816-1.909 2.736-4.01 2.736-3.02 0-4.422-2.291-4.422-4.868h12.09"/><path d="m313.75 59.04h3.436v2.418l.064.064c1.082-1.816 2.959-2.927 5.122-2.927 3.563 0 5.822 1.909 5.822 5.6v11.295h-3.627v-10.34c-.064-2.577-1.082-3.691-3.213-3.691-2.418 0-3.977 1.909-3.977 4.327v9.704h-3.627v-16.45"/><path d="m330.36 59.04h2.733v-4.931h3.627v4.931h3.277v2.707h-3.277v8.781c0 1.495.127 2.262 1.75 2.262.509 0 1.018 0 1.527-.13v2.802c-.795.061-1.559.188-2.354.188-3.789 0-4.486-1.464-4.552-4.2v-9.706h-2.733v-2.704h.002"/><path d="m169.25 104.89c-3.245 0-4.677-2.959-4.677-5.822 0-2.829 1.432-5.79 4.677-5.79s4.677 2.959 4.677 5.79c0 2.864-1.432 5.822-4.677 5.822m0 2.864c5.281 0 8.304-3.627 8.304-8.686 0-5.03-3.02-8.654-8.304-8.654s-8.304 3.627-8.304 8.654c0 5.059 3.02 8.686 8.304 8.686"/><path d="m178.95 90.86h2.704v-1.368c0-4.2 2.195-4.902 4.55-4.902 1.145 0 1.973.064 2.545.223v2.832c-.477-.127-.954-.191-1.686-.191-.986 0-1.782.35-1.782 1.718v1.686h3.086v2.707h-3.086v13.744h-3.627v-13.745h-2.704v-2.704"/><path d="m215.29 91.81c-.668-2.609-2.354-4.518-5.663-4.518-4.868 0-6.904 4.295-6.904 8.654 0 4.361 2.036 8.656 6.904 8.656 3.532 0 5.472-2.641 5.79-5.95h3.882c-.318 5.44-4.168 9.195-9.672 9.195-6.809 0-10.881-5.409-10.881-11.899 0-6.49 4.072-11.899 10.881-11.899 5.122.034 9.163 2.863 9.64 7.766h-3.977v-.005"/><path d="m232.56 101.77c0 2.291-2.482 3.118-4.072 3.118-1.273 0-3.341-.477-3.341-2.1 0-1.909 1.4-2.482 2.959-2.736 1.591-.284 3.341-.255 4.454-.986v2.704m3.627-6.585c0-3.468-3.372-4.772-6.586-4.772-3.627 0-7.222 1.241-7.477 5.472h3.627c.159-1.784 1.591-2.609 3.627-2.609 1.464 0 3.404.35 3.404 2.227 0 2.132-2.323 1.845-4.931 2.323-3.054.35-6.331 1.018-6.331 5.125 0 3.213 2.673 4.804 5.631 4.804 1.941 0 4.263-.604 5.695-2 .286 1.493 1.336 2 2.8 2 .604 0 1.75-.223 2.291-.414v-2.511c-.382.061-.668.061-.891.061-.668 0-.859-.35-.859-1.241v-8.465"/><path d="m240.1 90.86h3.436v2.418l.064.064c1.082-1.816 2.959-2.927 5.122-2.927 3.563 0 5.822 1.909 5.822 5.6v11.295h-3.627v-10.34c-.064-2.577-1.082-3.691-3.213-3.691-2.418 0-3.977 1.909-3.977 4.327v9.704h-3.627v-16.45"/><path d="m268.51 101.77c0 2.291-2.482 3.118-4.072 3.118-1.273 0-3.341-.477-3.341-2.1 0-1.909 1.4-2.482 2.959-2.736 1.591-.284 3.341-.255 4.454-.986v2.704m3.627-6.585c0-3.468-3.372-4.772-6.586-4.772-3.627 0-7.222 1.241-7.477 5.472h3.627c.159-1.784 1.591-2.609 3.627-2.609 1.464 0 3.404.35 3.404 2.227 0 2.132-2.323 1.845-4.931 2.323-3.054.35-6.331 1.018-6.331 5.125 0 3.213 2.672 4.804 5.631 4.804 1.941 0 4.263-.604 5.695-2 .286 1.493 1.336 2 2.8 2 .604 0 1.75-.223 2.291-.414v-2.511c-.382.061-.668.061-.891.061-.668 0-.859-.35-.859-1.241v-8.465"/><path d="m278.88 99.25c0-2.959 1.209-5.981 4.613-5.981 2.8 0 4.55 2.163 4.55 5.79 0 2.863-1.368 5.822-4.613 5.822-3.15 0-4.55-2.799-4.55-5.631m12.662-14.667h-3.627v8.399h-.064c-1.114-1.813-3.404-2.577-5.472-2.577-3.595 0-7.127 2.609-7.127 8.561 0 4.929 2.513 8.781 7.699 8.781 2.068 0 4.136-.795 5.091-2.673h.064v2.227h3.436v-22.718"/><path d="m305.64 101.77c0 2.291-2.482 3.118-4.072 3.118-1.273 0-3.341-.477-3.341-2.1 0-1.909 1.4-2.482 2.959-2.736 1.591-.284 3.341-.255 4.454-.986v2.704m3.627-6.585c0-3.468-3.372-4.772-6.586-4.772-3.627 0-7.222 1.241-7.477 5.472h3.627c.159-1.784 1.591-2.609 3.627-2.609 1.464 0 3.404.35 3.404 2.227 0 2.132-2.323 1.845-4.931 2.323-3.054.35-6.331 1.018-6.331 5.125 0 3.213 2.673 4.804 5.631 4.804 1.941 0 4.263-.604 5.695-2 .286 1.493 1.336 2 2.8 2 .604 0 1.75-.223 2.291-.414v-2.511c-.382.061-.668.061-.891.061-.668 0-.859-.35-.859-1.241v-8.465"/></svg>
