<svg enable-background="new 0 0 2500 508" viewBox="0 0 2500 508" xmlns="http://www.w3.org/2000/svg"><g fill="#231f20"><path d="m286.797 387.088 5.94-.621 6.248-.937 14.684-1.875 16.242-3.441 16.558-3.745 16.25-4.686 16.871-5.003 16.867-5.932 12.814-4.066 5.311-2.495 4.999-3.124 4.37-4.061 4.061-4.374 3.129-5.311 80.918-169.958 129.651 323.041 1.566 3.753 2.187 3.432 2.812 3.129 3.12 2.499 3.753 2.187 3.745 1.245 4.062.942h4.062l110.285.313-201.821-432.706h-119.35z"/><path d="m852.287 101.225v-78.106l-197.139 107.474-1.879.937-4.062 1.558-4.37 1.254h-4.062l-3.437-.625-3.753-1.25-3.12-1.25-1.25-.625 1.558 4.999 3.129 9.998 4.062 10.31 5.311 10.31 6.248 9.373 6.557 7.811 6.248 5.624 5.624 3.124 5.311 1.25h5.316l4.994-.625 3.753-1.25 3.12-1.25 1.25-.937z"/><path d="m1247.498 369.284h-2.187l-1.875.312-1.87.312-1.25.629-1.562.929-1.25.942-1.25 1.245-.937 1.562-14.996 25.306h67.791v44.681l-5.311 1.558-4.686 1.254-4.374.933-4.686.942-4.37.937-5.94.621-4.686.629-4.057.312h-13.438l-4.682-.629-6.561-.625-4.066-.621-4.062-.942-4.062-.929-4.062-1.254-3.745-1.562-4.686-2.499-3.749-2.187-3.124-2.499-3.129-2.499-3.12-2.816-2.812-2.812-2.812-3.12-2.191-3.441-2.812-4.686-1.87-3.745-1.566-4.061-1.25-4.066-.937-4.061-.933-4.374-.625-4.057-.317-4.374v-12.501l.625-4.057.942-3.749 1.245-4.066 1.25-3.745 1.566-3.749 1.87-3.753 1.566-2.187 2.495-3.432 2.812-3.129 2.816-3.124 3.124-2.807 3.124-2.499 4.374-2.812 3.745-2.187 4.062-2.187 4.378-1.562 4.062-1.566 5.932-1.558 4.686-.942 4.691-.621 4.37-.625 4.686-.312 4.686-.317 4.691-.312h4.37l4.686.312 4.686.317 4.686.625 4.686.629 4.686.616 4.686.942 4.686.625 4.686.933 4.686 1.254 4.686.933 4.686 1.254 4.374 1.245 4.686 1.254 2.187.621v-32.492l-5.311-1.562-4.374-1.558-4.686-1.254-4.686-.933-4.374-.942-4.686-.933-4.686-.937-8.435-1.245-4.686-.629-4.686-.625-4.686-.317-4.686-.312-4.37-.312h-23.748l-4.682.312-4.686.312-4.686.629-4.378.625-4.374.62-4.686 1.254-4.37 1.245-5.94 1.566-4.37 1.25-4.062 1.558-4.374 1.879-3.749 1.875-4.066 1.875-3.745 2.499-3.753 2.187-4.37 3.129-3.437 2.803-3.437 2.812-3.129 3.129-3.12 3.432-3.129 3.129-2.495 3.432-2.499 3.753-2.504 3.745-2.182 3.749-2.812 5.311-1.562 3.758-1.567 4.37-1.558 4.061-.937 4.374-1.25 4.374-.625 4.37-.625 4.374-.312 5.628v8.748l.62 4.37.625 4.691.625 4.37 1.25 4.374.937 4.374 1.566 4.066 1.562 4.061 2.182 4.686 1.879 4.061 2.182 3.745 2.187 3.753 2.504 3.745 2.807 3.441 2.504 3.432 3.12 3.129 3.753 3.432 3.745 2.816 3.753 2.499 4.062 2.499 4.062 2.187 4.057 2.187 4.066 2.187 4.374 1.558 4.062 1.875 4.37 1.566 4.999 1.558 4.686.942 4.686.933 4.691.629 4.686.625 4.686.629 4.999.304 4.37.625 5.003.317h4.682l8.123.312 4.686-.312h4.374l4.686-.317 4.999-.312 4.691-.312 4.682-.621 4.686-.625 4.691-.629 4.994-.312 4.374-.933 4.691-.625 4.682-.942 4.686-.933 4.686-.629 4.686-1.245 4.686-1.254 4.686-.933 4.686-1.254 4.062-1.245v-99.663h-82.162zm186.205-297.427 3.437.312 4.061.937 3.124.937 2.499.937 2.812 1.562 2.187 1.562 2.187 1.875 2.187 2.187 2.187 2.812 1.254 2.812 1.245 2.499.625 2.812.625 3.124v4.374l-.312 2.812-.625 2.499-.933 2.812-1.566 2.499-1.875 2.499-1.875 2.499-3.124 2.812-2.807 1.875-3.129 1.562-3.124.937-3.124 1.25-3.124.625-3.437.312h-30.93l-1.562.312-1.875.625-1.25.312-1.558.937-1.254 1.25-.937 1.25-.625.625-14.059 25.619 44.368-.312 44.985 67.171h53.112l-51.55-78.418 4.378-1.25 3.745-1.562 3.749-1.875 4.999-2.499 3.437-2.187 3.124-2.187 3.124-2.499 2.816-2.812 2.495-3.124 3.124-4.062 2.187-3.124 1.875-3.437 1.25-3.437 1.25-3.124.937-3.437.317-4.062.312-3.749v-2.812l-.312-3.749-.629-3.749-.937-3.749-1.25-3.749-1.25-3.749-1.875-3.749-2.187-3.437-2.499-3.437-2.495-3.124-2.816-2.812-2.812-2.809-3.124-2.499-3.437-2.499-3.437-1.875-3.749-1.875-3.749-1.562-3.749-1.25-3.749-1.25-4.062-.937-4.062-.312-4.062-.312-4.062-.312-3.437.312h-131.838v182.143h47.484v-151.526l65.921-.312zm225.569-41.864 25.931-29.993h-44.364l-14.684 29.993zm487.38 194.014h47.801v-149.963h53.429l1.558-.312 1.875-.312 1.25-.312 1.25-.625.938-.625.629-.937.933-.937.312-.937.625-1.25.312-.625.312-.312 8.748-24.681h-171.834l-1.562.625-1.25.312-1.25.937-1.25.937-.937.937-.937 1.25-.625 1.25-.312.625-12.185 24.994h72.17zm-625.159 173.083 3.749-1.254 3.749-1.245 3.437-1.875 4.686-2.499 3.124-1.875 2.812-2.499 2.812-2.499 2.499-2.816 2.187-3.116 2.187-3.129 1.875-3.441 1.25-3.745 1.25-3.749.937-3.753.625-4.057.317-4.061v-3.441l-.317-4.061-.625-3.745-.625-3.753-1.25-3.745-1.25-3.441-1.875-3.749-1.562-2.499-2.187-3.432-2.499-3.124-2.812-2.816-2.812-2.812-4.686-3.432-3.749-2.187-3.749-1.875-4.062-1.875-6.561-2.183-4.374-1.254-4.686-.942-4.374-.933-4.374-.629-4.686-.625-4.686-.308-4.686-.312h-116.534v182.451h47.801v-149.34h63.734l2.187.312 3.124.317 3.124.625 2.816.933 3.745 1.883 2.499 1.245 1.875 1.558 1.875 1.566 1.875 2.807 1.254 2.499 1.245 2.812.937 2.816.625 2.499.312 2.499v1.562l-.312 2.499-.312 2.812-.937 2.187-1.245 2.816-1.566 2.803-1.875 2.187-3.12 3.441-2.816 1.558-2.812 1.875-2.812 1.254-3.432 1.245-3.129.629-3.124.625h-30.617l-1.25.312-1.25.62-1.562.629-1.25.625-1.25.933-1.25.942-.933.942-.942.929-.625 1.254-12.493 23.427h41.548l47.801 66.859h51.862l-52.175-78.418zm-556.733-103.1-92.794 182.763h51.242l19.058-41.24h55.611l2.183-.625 2.187-.62 1.875-.942 1.879-1.245 1.558-1.566 1.562-1.562 1.25-1.87.317-.629 14.371-23.735h-67.796l38.111-79.989 68.737 153.408h49.363l-84.354-182.147h-64.36zm1088.482-252.438h-46.551v182.455h46.551zm-930.084 155.899 3.437 3.124 3.437 2.812 3.437 2.812 3.749 2.499 3.749 2.495 3.745 2.504 4.062 2.187 4.062 1.875 3.129 1.25 4.37 1.25 4.378 1.562 4.374 1.25 4.686 1.25 4.37.937 4.691.625 4.37.937 5.628.625 4.682.312 4.686.312h4.686l4.691.312h4.686l4.686-.312 6.873-.312 4.686-.312 4.682-.312 4.378-.625 4.682-.625 4.378-.937 4.37-.937 4.686-.937 4.374-.937 4.686-1.562 4.374-.937 4.374-1.562 4.374-1.562 3.437-.937v-34.367l-1.875.937-4.37 1.562-4.378 1.875-4.374 1.25-4.374 1.562-4.374 1.25-4.686.937-6.561 1.25-4.062.625-4.682.625-4.378.625-4.37.312-4.691.312h-9.373l-4.37.312-4.066-.312-4.37-.312-4.062-.625-4.378-.937-4.057-1.25-4.686-1.25-3.753-1.25-3.745-1.562-3.437-1.875-3.437-2.187-3.129-2.187-3.124-2.499-4.057-3.749-2.499-3.124-2.504-3.124-2.495-3.437-1.875-3.437-1.562-3.749-1.566-3.749-1.562-5.936-.933-4.061-.625-4.374v-12.497l.625-4.062.933-5.936.942-3.749 1.245-4.062 1.25-3.749 1.879-3.437 1.875-3.437 3.12-4.374 2.812-3.124 2.812-2.812 3.437-2.812 3.129-2.499 3.437-2.499 5.619-3.124 3.753-1.875 4.374-1.562 4.062-1.25 4.37-1.25 5.94-1.25 4.37-.312 4.686-.625h13.747l6.565.312 4.686.312 4.686.625 4.682.625 4.062.625 4.686.937 4.374.937 4.691 1.25 4.37.937 4.374 1.562 4.378 1.25 2.183.937 5.316 1.562.308-34.054-2.812-.625-4.37-1.25-4.378-1.562-4.686-1.25-4.374-.937-4.686-1.25-4.374-.937-4.682-.937-5.311-.937-4.691-.625-4.37-.625-4.686-.625-4.691-.312-4.686-.312h-18.116l-4.378.312-4.682.312-4.686.625-4.378.625-4.37.937-4.374.937-4.378 1.25-4.37 1.25-4.999 1.562-4.062 1.562-4.062 1.562-4.378 1.875-3.745 2.187-4.062 2.187-3.753 2.187-3.745 2.499-3.437 2.812-3.437 2.812-3.129 2.812-3.12 3.124-3.129 3.124-2.812 3.437-2.807 3.437-2.504 3.749-2.495 3.437-1.875 4.062-2.187 3.749-2.504 5.936-1.558 4.062-1.254 4.062-1.25 4.374-.933 4.374-.937 4.374-.312 6.248-.312 4.374v8.748l.625 4.374.625 4.374.62 4.374 1.25 4.061 1.254 4.374 2.183 6.248 1.879 4.061 1.875 3.749 2.187 4.062 2.187 3.749 2.499 3.437 2.495 3.437 2.812 3.749zm480.815 279.302h48.113v-182.138h-47.801zm574.546-182.138h-44.677v182.138h142.153l13.747-32.492h-111.222zm-434.58-102.475h-145.897v-119.658h139.024l-11.56-31.242h-173.703v182.143h176.515zm668.585 251.501h-59.048v-117.784h139.028l-10.935-31.867h-175.894v182.451h179.644l14.372-32.8z"/><path d="m2387.218 367.722-1.245.312h-1.566l-1.875.308-1.562.625-1.25.942-1.562.933-1.25 1.254-.312.625-18.116 26.868h79.664l1.25-.312 1.562-.317 1.562-.625 1.562-.62 1.25-.942 1.25-1.245.625-.937 19.37-26.868zm-270.871 11.872-.312-4.383-.625-3.432-.629-4.374-.937-4.061-1.25-4.374-1.25-4.07-1.875-4.061-1.562-4.061-2.183-3.753-2.191-3.745-2.812-3.745-2.808-3.441-2.812-3.432-3.124-3.441-3.124-3.12-3.432-3.129-3.441-2.812-4.066-2.812-3.749-2.499-4.062-2.491-4.062-2.187-4.378-1.883-4.062-2.187-4.066-1.558-4.374-1.558-4.374-1.566-4.374-1.245-4.374-1.254-4.686-.933-4.374-.942-4.686-.933-4.686-.312-4.374-.312-4.378-.312h-4.062l-1.562-.312h-2.187l-3.749.312h-3.74l-4.383.312-4.374.312-4.686.312-4.374.62-4.686.942-4.374.942-4.374.933-4.374 1.254-4.378 1.245-4.057 1.558-4.066 1.883-4.378 1.875-3.745 1.875-4.378 2.812-3.437 2.187-3.745 2.812-3.432 2.803-3.441 2.812-3.129 3.129-3.124 3.432-2.807 3.129-3.129 4.061-2.499 3.441-2.495 3.745-2.191 3.745-1.875 4.07-1.532 4.061-1.879 4.061-1.25 4.374-1.558 5.94-.629 4.374-.62 4.686-.629 4.374v12.493l.629 4.686.304 4.374.942 4.374.937 4.383.937 4.061 1.562 4.686 1.562 4.374 1.875 4.061 1.875 3.745 2.187 4.07 2.499 3.745 3.749 5.628 2.807 3.432 3.124 3.129 3.133 3.432 3.12 3.129 3.437 2.812 4.066 3.12 3.745 2.499 3.749 2.187 4.062 2.499 4.066 1.875 4.374 2.187 4.066 1.566 4.378 1.875 5.932 1.558 4.374 1.254 4.686.933 4.686.942 4.374.629 4.686.62 4.374.312 4.686.629h4.686l4.062.312h4.999l4.686-.312 4.686-.312 4.686-.312 4.374-.629 7.498-1.245 4.374-.942 4.378-.933 4.374-1.254 4.374-1.245 4.374-1.875 4.07-1.566 4.057-1.875 5.936-3.12 4.062-2.196 3.749-2.187 3.437-2.491 3.441-2.812 3.432-2.812 3.128-3.129 3.124-3.12 4.066-4.999 2.495-3.745 2.499-3.753 2.191-4.061 1.87-3.745 1.879-4.07 1.558-4.374 1.562-4.061.938-4.374 1.25-4.374.629-4.374.625-4.374.625-4.686.312-4.374v-2.499l-.312-4.374zm-51.237 7.806v3.753l-.308 4.374-.629 4.374-.625 3.432-.937 4.374-.942 4.374-1.553 4.07-1.566 4.061-1.562 4.061-2.187 4.061-2.183 3.441-2.812 3.12-2.812 2.812-2.807 2.812-3.129 2.812-3.745 2.187-3.437 2.187-3.749 1.558-3.749 1.254-3.749 1.245-3.745.942-5.936.933-4.374.312h-8.119l-4.383-.629-4.062-.621-4.062-.942-4.066-1.245-4.062-1.254-4.066-1.558-4.686-2.499-3.432-2.187-3.129-2.499-3.12-2.812-2.816-2.812-4.374-5.311-2.187-3.129-1.879-3.432-1.875-3.753-1.562-3.745-1.558-4.061-1.25-4.07-.933-4.061-.942-5.932-.629-4.374v-8.444l.629-5.307.629-4.686.621-4.374.942-4.07 1.25-4.374 1.558-3.745 1.562-4.061 2.187-3.441 1.875-3.745 2.812-3.129 2.499-3.12 2.807-2.812 3.124-2.499 4.686-3.441 3.437-1.875 3.749-1.875 3.749-1.558 3.749-1.254 3.745-.933 6.248-.942 5.936-.629h4.062l1.879-.312 6.244.629 7.503 1.254 3.745.933 4.066 1.254 3.749 1.558 3.437 1.558 3.745 2.187 3.129 2.187 3.124 2.499 3.124 2.812 2.812 2.812 2.812 3.129 2.182 3.432 2.187 3.441 1.562 3.745 1.566 3.745 1.553 3.753.942 3.745.625 3.129.625 4.374.629 4.374.625 4.061v4.391zm-431.144-271.491h-1.562l-1.87.312-2.191.312-1.562.937-1.875.625-1.245 1.25-1.566 1.562-19.37 26.244h77.168l1.875-.312 1.875-.312 1.562-.625 1.875-.937 1.562-1.25 1.254-.937 1.245-1.562.937-.937 16.871-24.369zm263.997 104.349 6.244-1.562 4.378-1.562 4.062-1.562 4.066-1.562 4.062-2.187 6.249-3.437 3.745-2.187 3.437-2.187 3.749-2.499 3.124-2.812 3.129-3.124 2.807-2.812 3.749-4.374 2.499-3.437 2.187-3.437 2.187-3.745 2.187-4.062 1.566-4.062 1.87-4.686.937-4.686 1.25-4.374.937-4.374.629-4.374.312-4.37.312-4.686.312-4.062.312-4.066v-3.441l-.312-4.062-.629-4.374-.629-4.374-.937-4.062-1.25-4.374-1.25-4.066-1.562-4.062-1.875-4.066-1.875-3.745-2.187-3.749-2.499-3.749-3.129-4.374-2.807-3.437-3.124-3.124-3.129-3.124-3.437-2.812-3.437-2.187-3.437-2.499-3.437-2.187-3.745-2.187-3.437-1.879-3.749-1.875-3.749-1.562-4.062-1.558-3.749-1.25-4.066-1.25-3.74-1.25-4.07-.937-4.062-.937-4.066-.625-3.745-.625-4.066-.312-3.749-.312-4.062-.312h-1.25l-2.499.312h-96.539v182.147h106.849l4.374-.312 4.378-.625 4.374-.625 4.686-.937zm-11.247-30.93-3.745 1.25-3.753.937-3.749.625-3.74.625h-55.932v-120.908h45.931l4.378.312h1.875l2.187.308 3.749.937 4.062.937 3.749 1.25 3.749 1.558 3.749 1.879 3.432 1.875 3.441 2.187 3.432 2.499 2.812 2.812 2.499 2.183 2.807 3.129 2.191 3.124 2.187 3.437 1.558 3.437 1.883 3.749 1.245 3.437.942 4.062.621 2.504.937 4.062.629 4.062v11.564l-.629 4.062-.625 4.061-1.25 4.062-.937 3.437-1.25 4.061-1.562 4.062-1.875 3.749-2.187 3.749-2.187 3.745-2.499 3.441-2.499 3.124-2.499 2.807-3.124 2.187-3.124 2.187-3.432 1.875zm-18.745 248.06-3.432 1.254-4.691 1.245-4.374 1.254-4.682 1.245-4.691.942-4.374.933-4.686.942-4.682.312-4.066.625-4.686.62-4.374.312-4.374.317h-4.686l-4.374-.317-4.686-.312-5.936-.312-4.062-.62-4.37-.625-3.753-.942-4.057-1.562-3.753-1.245-4.374-2.187-3.749-1.879-3.124-2.187-3.437-2.187-3.124-2.499-3.749-4.061-2.499-3.116-2.499-3.129-2.187-3.441-1.875-3.432-1.562-3.745-1.875-6.257-.933-4.374-.312-4.37-.317-4.061v-4.374l.317-4.374.312-4.066.625-4.061.62-4.057 1.25-3.749 1.25-3.753 1.562-3.432 2.499-4.374 2.187-3.441 2.499-3.432 2.812-2.812 2.812-2.812 3.129-2.816 3.432-2.499 3.749-2.187 3.749-1.875 4.061-1.87 4.062-1.562 4.062-1.254 4.686-.933 4.378-.625 4.37-.629 4.686-.312 4.374-.312 5.936.312 4.374.312 4.999.629 4.686.312 4.374.933 4.686.629 4.686.937 4.374 1.25 4.686 1.254 4.374 1.245 4.686 1.245 4.374 1.566 4.374 1.562h.312l4.999 1.87v-34.991l-1.558-.62-3.441-1.254-.937-.312-4.374-1.562-4.682-1.558-4.378-1.254-5.624-1.245-4.374-.942-4.686-.933-4.686-.625-4.686-.629-9.06-.933-4.686-.312-4.682-.312-4.691-.312-5.624-.317h-9.06l-4.686.317-4.686.312-7.186.942-4.686.616-4.37.942-4.378.933-4.374 1.254-4.062 1.558-5.619 2.187-4.066 1.566-4.062 2.187-3.745 2.187-4.066 2.187-3.437 2.499-4.374 3.432-3.437 2.816-3.124 2.812-3.437 3.12-2.812 3.441-2.807 3.432-4.066 4.999-2.495 4.061-2.191 3.753-2.187 4.061-1.562 4.057-1.562 3.129-1.562 4.374-1.25 4.057-.937 4.374-.937 4.374-.937 7.186-.312 4.374v8.757l.312 5.615.625 4.374.937 4.374.937 4.374.937 4.374 2.187 5.628 1.562 4.057 1.875 4.061 2.187 3.753 2.187 4.057 3.124 5.003 2.816 3.432 2.807 3.441 2.812 3.432 3.437 3.129 4.374 3.745 3.437 2.812 3.749 2.816 3.749 2.187 4.374 2.812 4.066 1.875 4.37 1.87 4.374 1.562 4.062 1.566 4.374 1.245 8.748 1.875 4.686.625 4.686.629 4.686.625 4.686.317 7.186.304 4.686.312h9.373l4.691-.312h4.682l4.999-.62 4.378-.312 4.057-.312 4.686-.629 4.686-.625 4.686-.933 4.374-.942 4.686-1.245 4.691-1.254 4.37-1.245 4.374-1.254 1.875-.621.312-.312 4.999-1.558.312-34.063-4.686 1.883z"/><path d="m852.287 231.818v-92.477l-64.984 36.866-62.797 35.304-58.74 32.492-53.424 29.055-48.109 25.619-43.119 22.178-39.361 19.062-35.308 15.934-33.113 14.059-31.555 11.56-31.247 10.306-30.301 8.748-30.305 7.186-29.368 6.253-27.81 4.686-26.239 3.749-23.432 2.499-20.937 1.245-17.491.942-15.313-.629-23.115-2.499-15.938-3.745-11.56-4.686-9.368-6.248-7.498-7.186-5.94-8.44-3.437-9.364-1.25-10.943 1.25-13.117 4.691-14.992 7.498-16.25 9.998-16.558 12.497-16.558 14.055-15.934 14.371-14.688 14.688-12.805 15.934-12.497 17.808-13.434 18.433-12.184 17.808-10.935 18.433-10.31 19.058-9.685 19.053-8.435 19.375-7.811 18.433-6.248 17.183-5.311 15.309-3.437 14.059-2.187 14.059-.625 14.684 1.25 7.811.937-4.061-14.371-7.186-24.369-5.628-17.183-4.37-10.31-3.437-5.624-3.437-3.437-3.753-2.499-5.932-2.187-9.373-.937-13.434.625-16.871 2.187-19.058 4.062-19.687 5.624-20.62 7.494-19.991 8.44-19.062 8.748-18.433 9.685-18.116 10.31-18.433 11.56-19.058 12.809-18.745 13.434-16.558 13.434-14.688 12.184-13.116 12.491-12.814 13.122-11.868 14.371-10.935 14.996-9.685 15.309-7.811 16.558-6.253 16.558-3.437 16.867-1.556 16.247 1.25 17.504 3.12 18.433 5.003 18.424 6.557 17.5 7.498 15.934 8.752 14.059 10.31 13.747 11.868 12.493 12.809 10.939 13.747 9.377 15.313 7.489 18.121 6.561 21.553 5.94 23.119 4.057 23.748 2.504 23.432.625 22.494-1.254 20.307-1.558 19.37-2.816 19.37-3.432 19.366-3.753 18.125-4.374 17.808-4.374 18.745-5.615 19.366-5.628 19.375-6.248 19.678-6.873 19.687-7.498 19.683-7.815 19.683-8.431 19.995-9.377 21.245-10.306 12.185-6.565 15.934-8.435 21.87-11.872 31.863-17.179 44.056-24.373 58.423-32.18 69.983-39.053z"/></g></svg>