<svg xmlns="http://www.w3.org/2000/svg" viewBox="0 0 300 60" enable-background="new 0 0 300 60"><path d="m62.2 6.324h-6.324v9.486h6.324c3.065 0 5.01-1.895 5.01-4.718 0-2.822-1.946-4.768-5.01-4.768m.341 15.569h-6.665v13.04h-6.763v-34.638h13.428c7.152 0 11.433 4.913 11.433 10.8-.001 5.887-4.282 10.801-11.433 10.801"/><path d="m88.95 10.508l-4.378 12.6h8.611l-4.233-12.6m8.08 24.422l-2.043-6.13h-12.309l-2.092 6.13h-7.05l12.6-34.638h5.303l12.649 34.639h-7.05l-.008-.001z"/><path d="m108.37 34.93v-34.638h22.82v6.03h-16.06v8.124h13.67v6.03h-13.67v8.418h16.06v6.03l-22.82.006"/><path d="m147.34 35.22c-5.253 0-9.243-1.118-12.649-4.573l4.378-4.378c2.19 2.189 5.158 2.919 8.37 2.919 3.988 0 6.129-1.509 6.129-4.282 0-1.215-.34-2.237-1.071-2.918-.679-.633-1.458-.974-3.066-1.217l-4.183-.583c-2.967-.438-5.156-1.363-6.713-2.871-1.654-1.653-2.481-3.891-2.481-6.81-.001-6.181 4.572-10.51 12.06-10.51 4.768 0 8.221 1.167 11.189 4.04l-4.28 4.232c-2.188-2.092-4.816-2.383-7.103-2.383-3.6 0-5.351 1.995-5.351 4.378 0 .875.291 1.8 1.02 2.482.683.633 1.8 1.168 3.211 1.361l4.088.584c3.161.438 5.155 1.314 6.614 2.675 1.85 1.752 2.677 4.282 2.677 7.347 0 6.714-5.596 10.509-12.844 10.509"/><path d="m176.09 35.22c-5.254 0-9.243-1.118-12.649-4.573l4.378-4.378c2.19 2.189 5.158 2.919 8.369 2.919 3.989 0 6.13-1.509 6.13-4.282 0-1.215-.34-2.237-1.072-2.918-.681-.633-1.458-.974-3.064-1.217l-4.186-.583c-2.967-.438-5.155-1.363-6.711-2.871-1.655-1.653-2.483-3.891-2.483-6.81 0-6.181 4.574-10.51 12.07-10.51 4.768 0 8.222 1.167 11.189 4.04l-4.282 4.232c-2.187-2.092-4.817-2.383-7.101-2.383-3.601 0-5.353 1.995-5.353 4.378 0 .875.293 1.8 1.021 2.482.681.633 1.801 1.168 3.213 1.361l4.087.584c3.162.438 5.154 1.314 6.613 2.675 1.849 1.752 2.675 4.282 2.675 7.347 0 6.714-5.593 10.509-12.841 10.509"/><path d="m195.31 34.93v-34.638h6.76v28.607h15.72v6.03h-22.48"/><path d="m223.29 34.93v-34.638h22.81v6.03h-16.05v8.124h13.67v6.03h-13.67v8.418h16.05v6.03l-22.81.006"/><path d="m265.86 6.324h-6.372v9.146h6.372c2.968 0 4.915-1.898 4.915-4.573s-1.947-4.573-4.915-4.573m5.255 28.606l-6.764-13.815h-4.863v13.815h-6.764v-34.638h13.574c7.05 0 11.239 4.816 11.239 10.605 0 4.865-2.968 7.882-6.325 9.1l7.735 14.937h-7.832v-.004z"/><path d="M0,49.16v1.646h2.93V60h1.814v-9.194h2.93V49.16H0z"/><path d="M15.696,49.16v4.541h-4.12V49.16H9.762V60h1.814v-4.65h4.12V60h1.815V49.16H15.696z"/><path d="m20.54 49.16v10.84h7v-1.65h-5.187v-3h4.425v-1.634h-4.425v-2.91h5.187v-1.646h-7"/><path d="M40.44,49.16v7.24l-4.768-7.24H34.04V60h1.813v-7.256l4.735,7.211L40.618,60h1.632V49.16H40.44z"/><path d="m45.28 49.16v10.84h7v-1.65h-5.19v-3h4.43v-1.634h-4.43v-2.91h5.19v-1.646h-7"/><path d="M53.802,49.16v1.646h2.93V60h1.818v-9.194h2.93V49.16H53.802z"/><path d="m73.35 49.16l-1.79 7.31-2.05-7.31h-1.45l-2.06 7.31-1.78-7.31h-1.91l2.83 10.84h1.56l2.076-7.201 2.072 7.129.021.072h1.561l2.83-10.84h-1.91"/><path d="m81.934 57.723c-.405.42-.928.642-1.513.642-.584 0-1.108-.222-1.511-.641-.495-.537-.601-1.112-.601-3.236 0-2.113.113-2.72.6-3.249.396-.411.919-.627 1.513-.627s1.117.216 1.513.628c.521.535.599 1.209.599 3.249 0 2.153-.106 2.727-.6 3.234m-1.513-8.746c-1.138 0-2.087.373-2.821 1.105-1.061 1.061-1.106 2.117-1.106 4.406 0 2.288.045 3.344 1.106 4.406.735.733 1.683 1.106 2.821 1.106s2.088-.373 2.821-1.106c1.061-1.061 1.106-2.118 1.106-4.406 0-2.288-.045-3.345-1.106-4.406-.733-.732-1.682-1.105-2.821-1.105"/><path d="m88.8 50.717h2.292c1.054 0 1.709.603 1.709 1.574 0 .962-.655 1.56-1.709 1.56h-2.292v-3.134m5.815 1.559c0-1.92-1.368-3.209-3.403-3.209h-4.225v10.843h1.814v-4.484h1.856l2.243 4.484h2.109l-2.472-4.747c1.304-.407 2.078-1.477 2.078-2.887"/><path d="m103.25 49.16l-4.21 5.17v-5.17h-1.81v10.84h1.81v-3.158l1.68-2.02 2.95 5.173h2.13l-3.86-6.56 3.54-4.28-2.23.005"/><path d="M119.36,49.16l-2.99,6.482l-3.04-6.482h-1.78V60h1.81v-6.78l2.35,4.85h1.32l2.29-4.84V60h1.82V49.16H119.36z"/><path d="m129.2 57.723c-.405.42-.928.642-1.513.642-.584 0-1.108-.222-1.511-.641-.495-.537-.601-1.112-.601-3.236 0-2.113.113-2.72.6-3.249.396-.411.919-.627 1.513-.627s1.117.216 1.513.628c.521.535.599 1.209.599 3.249 0 2.153-.106 2.727-.6 3.234m-1.512-8.746c-1.138 0-2.087.373-2.821 1.105-1.061 1.061-1.105 2.117-1.105 4.406 0 2.288.045 3.344 1.105 4.406.734.733 1.683 1.106 2.821 1.106 1.138 0 2.088-.373 2.821-1.106 1.061-1.061 1.106-2.118 1.106-4.406 0-2.288-.045-3.345-1.106-4.406-.734-.732-1.683-1.105-2.821-1.105"/><path d="m140.66 49.16v7.24l-4.74-7.2-.03-.04h-1.63v10.84h1.81v-7.256l4.74 7.211.03.045h1.63v-10.84h-1.81"/><path d="M145.5,49.16h1.814v10.844H145.5V49.16z"/><path d="M149.4,49.16v1.646h2.93V60h1.82v-9.194h2.93V49.16H149.4z"/><path d="m163.91 57.723c-.405.42-.928.642-1.513.642-.584 0-1.108-.222-1.511-.641-.495-.537-.602-1.112-.602-3.236 0-2.113.113-2.72.6-3.249.396-.411.918-.627 1.513-.627.594 0 1.117.216 1.513.628.521.535.6 1.209.6 3.249 0 2.152-.107 2.727-.6 3.234m-1.513-8.746c-1.138 0-2.087.373-2.821 1.105-1.061 1.061-1.106 2.117-1.106 4.406 0 2.288.045 3.344 1.106 4.406.734.733 1.683 1.106 2.821 1.106s2.087-.373 2.821-1.106c1.061-1.061 1.106-2.117 1.106-4.406 0-2.289-.045-3.345-1.106-4.406-.734-.732-1.683-1.105-2.821-1.105"/><path d="m170.78 50.717h2.292c1.054 0 1.709.603 1.709 1.574 0 .962-.655 1.56-1.709 1.56h-2.292v-3.134m5.815 1.559c0-1.92-1.368-3.209-3.403-3.209h-4.225v10.843h1.813v-4.484h1.857l2.215 4.429.027.055h2.11l-2.472-4.747c1.304-.407 2.078-1.477 2.078-2.887"/><path d="M179.21,49.16h1.813v10.844h-1.813V49.16z"/><path d="m190.45 49.16v7.24l-4.73-7.2-.03-.04h-1.64v10.84h1.82v-7.256l4.73 7.211.03.045h1.63v-10.84h-1.81"/><path d="m198.73 55.53h2.272v.498c0 .715-.154 1.211-.499 1.61-.398.469-.992.728-1.673.728-.594 0-1.117-.217-1.511-.626-.489-.531-.602-1.138-.602-3.251s.113-2.72.6-3.249c.396-.41.918-.627 1.513-.627 1.119 0 1.881.63 2.145 1.776l.018.077h1.811l-.018-.115c-.322-2.049-1.874-3.373-3.955-3.373-1.138 0-2.087.373-2.822 1.106-1.057 1.073-1.105 2.187-1.105 4.405s.048 3.332 1.105 4.406c.734.734 1.683 1.106 2.821 1.106 1.212 0 2.223-.418 3-1.243.707-.768.983-1.629.983-3.072v-1.729h-4.086v1.573"/><path d="m213.02 50.612c1.061 0 1.81.642 2.056 1.76l.017.079h1.843l-.02-.117c-.373-2.101-1.829-3.357-3.895-3.357-1.138 0-2.087.373-2.821 1.106-1.058 1.073-1.106 2.187-1.106 4.405s.048 3.332 1.106 4.406c.734.734 1.683 1.106 2.821 1.106 2.066 0 3.523-1.255 3.895-3.356l.02-.117h-1.813l-.018.077c-.261 1.12-1.021 1.762-2.085 1.762-.599 0-1.116-.216-1.497-.627-.506-.533-.616-1.112-.616-3.25s.109-2.716.616-3.251c.38-.41.897-.626 1.497-.626"/><path d="m224.22 57.723c-.405.42-.928.642-1.513.642-.584 0-1.108-.222-1.511-.641-.495-.537-.602-1.112-.602-3.236 0-2.113.113-2.72.6-3.249.396-.411.918-.627 1.513-.627.594 0 1.117.216 1.513.628.521.535.6 1.209.6 3.249 0 2.152-.106 2.727-.6 3.234m-1.513-8.746c-1.138 0-2.087.373-2.821 1.105-1.061 1.061-1.106 2.117-1.106 4.406 0 2.288.045 3.344 1.106 4.406.734.733 1.683 1.106 2.821 1.106s2.087-.373 2.821-1.106c1.061-1.061 1.106-2.117 1.106-4.406 0-2.289-.045-3.345-1.106-4.406-.734-.732-1.682-1.105-2.821-1.105"/><path d="m237.08 49.16l-2.98 6.482-3.02-6.432-.03-.05h-1.77v10.84h1.81v-6.78l2.35 4.85h1.32l2.29-4.84v6.77h1.81v-10.84h-1.78"/><path d="m243.69 50.807h2.233c1.117 0 1.783.628 1.783 1.679 0 1.036-.683 1.679-1.783 1.679h-2.233v-3.358m2.323-1.65h-4.136v10.843h1.813v-4.2h2.322c2.065 0 3.508-1.363 3.508-3.314.001-1.96-1.442-3.329-3.507-3.329"/><path d="m254.4 51.968l1.477 4.319h-2.993l1.516-4.319m-.755-2.812l-3.974 10.844h1.932l.733-2.138h4.058l.732 2.138h1.933l-3.951-10.778-.024-.066h-1.439"/><path d="m267.17 49.16v7.24l-4.73-7.2-.03-.04h-1.64v10.84h1.82v-7.256l4.73 7.211.03.045h1.64v-10.84h-1.82"/><path d="m276.95 49.16l-2.16 4.544-2.16-4.544h-1.99l3.24 6.38v4.46h1.82v-4.46l3.24-6.38h-1.99"/><path d="m16.92 12.777c0 2.423-1.964 4.387-4.387 4.387s-4.387-1.964-4.387-4.387 1.964-4.388 4.387-4.388 4.387 1.964 4.387 4.388m2.863 0c0-4.01-3.246-7.251-7.25-7.251-4 0-7.251 3.246-7.251 7.251 0 4 3.246 7.25 7.251 7.25 4 0 7.25-3.246 7.25-7.25m11.963 19.299h-28.877l-.002-5.505c0 0 3.758 2.819 9.336 2.819 9.298 0 16.836-7.538 16.836-16.836 0-3.46-.911-6.43-2.834-9.365l5.541.009v28.878zm-5.548-19.521c0 7.729-6.265 13.995-13.995 13.995-3.396 0-6.856-1.3-9.333-3.568-.001-.051-.001-19.783-.001-19.783l19.751.002c0 0 3.578 3.522 3.578 9.354m8.427-12.268h-34.625v34.625h34.625c0 0 0-34.625 0-34.625z"/><path d="m294.29 6.04c0 .659-.519 1.178-1.278 1.178h-1.318v-2.356h1.318c.759 0 1.278.519 1.278 1.178m1.617 5.411l-1.737-3.294c.858-.3 1.538-1.019 1.538-2.117 0-1.298-1.038-2.396-2.516-2.396h-2.935v7.807h1.437v-3.095h.998l1.598 3.095h1.617zm2.635-3.894c0 3.294-2.535 5.89-5.77 5.89-3.234 0-5.79-2.596-5.79-5.89s2.556-5.89 5.79-5.89c3.235 0 5.77 2.596 5.77 5.89m1.458 0c0-3.993-3.234-7.228-7.228-7.228-3.993 0-7.228 3.234-7.228 7.228s3.234 7.228 7.228 7.228 7.228-3.235 7.228-7.228"/></svg>