<svg xmlns="http://www.w3.org/2000/svg" viewBox="0 0 340 160" enable-background="new 0 0 340 160"><g transform="matrix(1.11446 0 0 1.11446-12.495.026)"><path d="m240.69 51.45h12.181v41.94h-12.181z"/><path d="m281.26 93.41l.01-41.94h12.19l-.02 29.413 9.23.003-.01 12.524h-21.4"/><path d="m256.59 93.39l.02-41.93h12.18l-.01 29.41 9.22.01v12.53l-21.41-.02"/><path d="m206.62 51.44l-.02 41.94h12.53l.01-15.66h5.39v15.66l12.53.01.01-41.94-12.53-.01v14.448l-5.39-.004v-14.444h-12.53"/><path d="m85.28 55.58c1.065.676 2.156 1.224 3.03 2.32-1.452-.289-2.77-1.644-4.255-2.256-13.689-7.226-31.448-6.783-45.632-.954-10.379 4.316-21.468 13.656-22.695 25.546-.196 4.74.447 10.765 5.537 12.991.514-.259.259-1.031.226-1.451-1.315-10.665 2.04-21.622 11.29-27.29 3.576-2.285 7.684-3.137 12.245-3.214 4.739-2.29 10.06-4.283 15.696-3.315 3.289.582 6.22 2.033 9.735 2.1 2.129-.899 4.319-2.736 6.766-1.803.259.26.291.775.065 1.063-1.807 1.291-4.188 1.385-6.348 1.578-3.064 2.383-4.418 6.02-6.095 9.151-4.903 10.76-8.582 22.17-18.09 30.9-.449.385-1.064.577-1.387 1.126 2.195-.095 4.03-1.546 5.836-2.803 8.896-7.763 13.866-18.686 20.18-28.48 3.289-4.865 7.285-9.632 12.313-12.758.387-.031.741.034.773.452-.548 1.064-1.513 1.964-2.158 2.996-5.29 8.765-5.81 19.527-11.807 28-3.193 4.961-6.901 9.505-12.03 12.692v.129c-.128-.128-.386-.03-.419.066.066.32.42.256.549.097 4.156-.291 7.351-3.354 10.54-5.993 6.161-6.087 9.901-13.918 14.77-20.942 5.445-8.86 13.541-17.14 23.24-20.873 6.896-2.156 15.371-1.832 20.304 4.101.193.226.256.485.223.807h-.29c-4.734-4.676-12.308-4.969-18.269-2.685-8.092 2.513-15.06 9.598-20.12 16.622l-8.996 13.12c-5.45 8.244-13.798 17.781-24.337 17.197-1.385.577-3.061 1.092-4.319.061-.193-.548.261-.706.485-.996 1.354-.869 3.448.612 4.478-.998 3.548-3.867 5.87-8.41 8.287-12.76 2.195-4.188 4-8.54 5.903-12.889-.031-.063-.126-.064-.224-.064-5.417 9.408-11.32 20.719-21.668 26.19-2.351 1.515-5.701.867-8.155 1.962-1.063.164-2.479.097-3.221-.805-.225-.58.291-1.031.709-1.225 1.676-.645 3.03.001 4.77.066 2.192-1.643 3.291-4.219 4.613-6.539 3.902-8.121 6.966-16.565 11.866-24.26 2.549-3.995 5.806-7.571 9.449-10.438l-.227-.126c-6.218-.778-12.986-.135-18.627 2.217.096.836.901 1.544 1.225 2.381 2.415 5.901.092 12.376-2.459 17.499-3.06 5.03-8.285 11.12-14.568 10.403-.839-.159-1.545-.771-2.351-.838-2.289 1.225-4.867 1.706-7.511 2.059-.579.611.162 1.42.224 2.096 3.446 8.992 12.06 13.318 21.278 13.61l279.37.113-.005 1.382-275.97-.137c-10.183.484-19.261-2.591-24.607-11.295-1.224-1.772-1.643-3.867-2.444-5.832-1.159-.871-2.645-1.386-3.676-2.584-3.544-3.77-3.733-9.569-2.861-14.535 2.517-11.856 12.06-22.16 23.568-26.22 14.665-5.605 33.32-3.728 46.28 4.272m-37 8.331c-9.286 4.476-18.247 13.624-17.446 24.775.26.806.26 1.806.999 2.384 5.092-3.573 9.413-9.114 10.834-15.14l.194.002c.191.452.289.967.159 1.451-1.226 5.77-5.065 11.05-10.09 14.693-.001.58.673.515.999.771 5.574.682 8.865-4.734 12.12-8.34 3.357-5.606 7.16-12.629 3.942-19.366-.42-.453-.87-1.485-1.708-1.226zm-8.497-1.543c-1.292.305-2.543.846-3.169 1.121-9.96 4.505-14.379 15.463-13.769 25.903.157 1.452.19 2.935.8 4.188 1.868.422 3.965-.094 5.739-.93.546-.387 1.514-.546 1.514-1.384-.838-1.354-1.256-2.871-1.575-4.45-.577-10.247 5.549-19.334 13.77-24.55l.129-.291c-.526-.035-2 .053-3.439.393"/><path d="m212.57 61.4c3.739 6.482 3.254 16.05-.169 22.53-3.096 6.28-7.093 12.66-13.03 17.365-3.062 1.962-6.415 4.604-10.442 2.993-1.42-.775-2.192-2.224-2.385-3.741.002-6.092 4.517-10.471 8.159-14.758 2.967-3.091 6.738-6.474 9.866-9.632.549-.485.644-1.227.579-1.869-1.321-1.419-3.156.096-4.544.643-4.836 3.124-9.219 7.569-12.957 12.08l-13.317 16.271c-.872.452-1.515-.516-2.385-.42-1.42-.291-2.45.481-3.674.418-.26-.194-.13-.581-.002-.773l6.354-8.378 11.639-15.305c.646-1.384 1.871-2.605 1.902-4.123-.416-.611-1.225-.065-1.675.223-6.803 5.285-12.412 12.37-17.862 18.784l-7.834 9.728c-.742.261-1.255-.452-1.965-.515-1.128-.26-2.192.125-3.224.351l-.45-.063-.002-.646 17.445-22.905c.936-1.645 2.292-2.997 2.387-4.899-.386-.807-1.256-.355-1.805-.066-3.547 2.253-5.901 5.831-8.801 8.861l-9.51 11.146c-2.966 2.929-5.515 6.603-8.934 8.792-.74.355-1.578.548-2.349.13-2.319-2.03-.868-5.77-.16-8.06-3.546 2.899-6.675 6.861-11.09 8.118-.964.095-1.804-.29-2.384-1-1.126-1.772-1.385-4.157-1.419-6.124-2.895 2.511-5.96 5.574-9.509 6.99-.674.063-1.321-.001-1.737-.581-1.643-1.998-.802-4.867-.484-7.06-3.351 2.739-6.702 6.121-10.667 7.697-.741.226-1.774.259-2.385-.288-1.709-1.837-.966-4.611-.643-6.835-3.03 2.514-5.9 6.06-9.705 6.99-.869.194-1.478-.55-1.901-1.161-.931-2.354-.448-5.35.457-7.573-3.417 3.06-6.995 6.667-11.09 8.663-.677.226-1.645.451-2.321.065-1.771-1.965-.675-5.03.005-7.122 1.129-2.579 2.545-4.96 4.32-7.154l12.12-15.505c2.133.002 4.364.099 5.964-.021.419.224.129.676-.001.935l-8.862 10.731-11.09 13.307c-.871 1.286-2.126 2.543-1.933 4.186.963.842 1.965-.319 2.865-.643 4.707-3.352 9.06-7.375 12.769-11.887l10.285-13.404 13.06-16.817c.223-.224.481-.322.773-.386 2.156.29 3.93.067 5.994.229.386.064.29.546.193.805l-4.9 6.117-17.636 21.305c-3.161 3.669-6.093 7.473-8.579 11.436-.32 1.03-1.612 2.285-.481 3.319 2.898-.744 4.899-3.19 7.125-5.123 2.158-2.028 4.03-4.189 5.964-6.541l21.475-27.482c1.256-1.32 1.965-3.093 3.514-4.057l6.06.227c.356.161.258.676.065.87l-20.798 25.13-10.608 12.948c-.676 1.162-1.641 2.321-1.514 3.741.255.419.738.485 1.093.419 3.451-1.383 6.576-4.058 9.351-6.667 4.546-4.253 8.318-9.731 12.253-14.465l6.4-8.193 6.332-.02c.355.16.291.706.096.934l-9.738 11.728-10.285 12.306c-.71 1.321-2.255 2.671-1.451 4.254 3.189-.967 5.382-3.738 7.994-5.831l2.227-2.449c4.03-11.374 15.927-18.619 26.788-21.581.709-.224 1.45.034 2.03.356.709.516.708 1.452.58 2.224-.065.066-.097.097-.097.164.096.061.161.191.29.126.645-.868 1.291-2.028 2.259-2.446 2.059.096 3.908-.235 6.02-.065.515.164.194.71.066.998l-20.09 24.13c-.806 1.385-2.319 2.48-2.45 4.155.389.644 1 .066 1.452-.063l2.578-2.223 10.382-11.535c4.323-4.669 7.997-9.986 12.736-14.11 1.161-.81 2.385-1.774 3.901-1.29 1.321.612 1.836 2.032 1.933 3.387.29 2.35-.937 4.604-1.712 6.765.515.064.676-.677 1.161-1.064 3.608-3.156 6.288-6.54 10.347-8.923.806-.288 1.711-.514 2.449.001 1.256.838 1.546 2.321 1.579 3.804-.101 1.967-.806 3.709-1.58 5.319.095.128.255.063.353.095 3.935-3.865 7.962-8.345 13.06-9.857.938-.289 2.065-.161 2.87.357 1.705 1.45.994 4.416.351 6.186-1.064 2.385-2.644 4.609-4.322 6.701l-9.995 12.146c-.902 1.482-2.255 2.868-2.033 4.768.389.775 1.159.872 1.934.841 6.287-1.255 10.51-6.348 14.348-11.373 5.771-7.859 9.706-18.557 5.907-28.486-1.61-4.35-5.925-7.415-10.504-7.709-4.931-.258-9.635 2.415-12.248 6.765-.677 1.677-1.742 3.866-.645 5.675 1.189 1.769 3.222 1.69 4.961 1.464 3.414-.87 6.187-3.171 8.446-6.262l.194-.001c-.162 1.194-1.165 2.095-1.872 3.094-2.612 2.869-6.189 4.638-10.216 3.735-1.129-.517-2.417-1.677-2.58-2.97-.418-4.929 3.066-8.891 7.256-11.02 4.159-2.154 9.638-2.284 13.698.231 1.573 1.102 2.957 2.617 4.02 4.26m-56.3 12.225c-2.415.481-4.286 2.286-6.285 3.799-5.546 5.348-11.156 10.505-15.249 16.689-1.582 2.58-3.354 5.02-3.743 8.09.034.419.486.741.937.712 2.642-.131 4.285-2.612 6.477-4.09 5.61-5.317 11.543-11.568 16.281-18.239 1.195-1.869 2.647-3.898 2.647-6.252-.096-.513-.581-.738-1.065-.707z"/><path d="m147.41 61.31c.42.582.646 1.324.42 2.064-.389 1.675-1.837 3.448-3.514 4.057-.904.291-1.904.324-2.803.001-.709-.611-1-1.419-.871-2.384.291-1.87 2.13-3.352 3.74-4.126.937-.288 2.288-.384 3.03.388"/><path d="m109.48 60.43c.451.548.611 1.288.418 1.999-.679 2.061-2.677 4.287-4.902 4.411-.741-.031-1.451-.419-1.804-1.096-.451-1.35.162-2.61.872-3.673 1.227-1.675 3.578-2.9 5.416-1.641"/></g></svg>
