<svg xmlns="http://www.w3.org/2000/svg" viewBox="0 0 340 160" enable-background="new 0 0 340 160"><path d="m125.61 136.34h88.78l-8.48-13.08h-71.82z"/><path d="m203.51 119.54l-6.06-9.35h-54.9l-6.06 9.35z"/><path d="m202.38 67.851c0 17.881-14.496 32.377-32.377 32.377-17.881 0-32.375-14.496-32.375-32.377 0-17.881 14.493-32.377 32.375-32.377 17.881-.001 32.377 14.495 32.377 32.377"/><path d="m211.13 1.501c.78.213 1.673.07 2.155-.565l.302-.335h2.46v8.01h-2.955c-.194-.551-.45-1.101-.865-1.61-1.959-2.399-5.01-3.341-8.247-3.341-3.041 0-5.707.949-5.707 3.147 0 .759.572 1.544 1.396 1.874 1.258.501 2.191.604 3.306.759 2.591.359 5.108.644 7.661 1.059 2.423.394 3.955.86 5.178 2.495 1.415 1.907 1.795 4.316 1.04 6.516-.504 1.919-1.818 3.379-3.493 4.475-1.35.811-2.877 1.237-4.442 1.537-2.519.319-5.154.284-7.516-.246l-4.156-.904c-.405-.098-1.075.065-1.396.387-.319.321-.422.75-.422.75h-2.812v-8.435h2.655c1.809 3.5 5.796 5.05 9.777 5.18 2.223.065 4.573-.07 5.78-1.893.37-.797.382-1.881-.176-2.563-1.04-1.275-2.744-1.209-4.332-1.366-2.917-.29-4.901-.59-4.901-.59-2.322-.403-4.716-.801-6.631-2.212-1.71-1.326-2.535-3.704-2.315-5.642.126-2.02 1.338-4.126 3.03-5.513.989-.813 2.153-1.324 3.322-1.783 1.973-.733 4.456-.771 6.654-.619 2.02.185 3.839.734 5.655 1.429"/><path d="m185.17 5.372c.061-.166.094-.344.094-.532 0-.848-.686-1.532-1.532-1.532h-1.514v-2.702h10.658v2.701h-.389c-1.115-.016-2.151.466-2.762 1.256-.811 1.052-1.094 2.256-1.621 3.343l-6.947 17.605h-3.746l-5.986-16.82-6.776 16.82h-3.376l-7.179-20.379c-.396-1.019-.914-1.825-2.055-1.825h-.843v-2.701h12.71v2.701c-.799.021-1.663-.105-2.228.445-.918.972-.405 2.254-.021 3.341l3.109 8.73 5.928-15.218h4.899c.019.124 4.339 12.397 5.41 15.435l4.167-10.668"/><path d="m140.57 4.972c.211-.173.344-.433.344-.726 0-.52-.422-.94-.942-.94 0 0-.644.002-.736.002v-2.703h10.782v2.704h-.79c-1.49 0-2.844 1.626-3.936 2.568l-4.365 3.962c1.188 1.668 9.285 10.914 9.285 10.914.996 1.035 1.624 2.057 4.428 2.057h.497v2.701h-4.979-10.192v-2.701c1.089 0 2.43.101 2.701-1.047.157-.661-.169-1.148-.544-1.626l-5.386-6.495-3.896 3.538v3.892c0 .658.506 1.738 1.748 1.738h1.345v2.701h-13.172v-2.701c1.729 0 2.664-.757 3.186-2.055.328-.682.319-2.12.319-2.12l-.019-11.989c0-1.153.019-3.336-2.036-3.336h-1.45v-2.705h13.172v2.704h-1.073c-1.867 0-2.02 2.256-2.02 3.02v5.768l7.729-7.125"/><path d="m213.73 154.41c-.15-.166-.262-.448-.335-.839-.073-.391-.108-.829-.108-1.307 0-.321-.04-.586-.122-.801-.077-.211-.18-.384-.302-.518s-.251-.232-.394-.293c-.141-.061-.272-.098-.394-.113v-.023c.068-.023.176-.068.326-.138.148-.068.3-.18.45-.337.152-.155.286-.361.401-.614.115-.258.171-.579.171-.965 0-.694-.223-1.235-.672-1.624-.45-.387-1.125-.581-2.02-.581h-3.896v8.154h1.429v-3.358h2.102c.328 0 .595.042.806.127.208.082.375.216.497.394.119.178.204.403.251.672.045.272.068.593.068.965 0 .199.009.405.028.619.019.213.082.405.19.581h1.526zm2.3-4.056c0 3.273-2.655 5.925-5.925 5.925s-5.923-2.652-5.923-5.925c0-3.271 2.652-5.925 5.923-5.925s5.925 2.655 5.925 5.925m1.249 0c0-3.962-3.212-7.172-7.174-7.172-3.96 0-7.172 3.21-7.172 7.172 0 3.962 3.212 7.174 7.172 7.174 3.962 0 7.174-3.212 7.174-7.174m12.495 9.644h-119.54l12.528-19.287h94.49l12.53 19.287zm-17.893-11.966c.077.164.115.375.115.635 0 .433-.117.759-.356.975-.234.218-.581.326-1.038.326h-2.341v-2.547h2.32c.18 0 .359.016.53.047.171.028.323.091.457.183.133.091.236.218.313.381"/></svg>
