<svg xmlns="http://www.w3.org/2000/svg" viewBox="0 0 146.369 105"><g fill="#444"><path d="M6.529 89.887a3.43 3.43 0 00-.74-.141 8.08 8.08 0 00-.807-.047c-.377 0-.661.096-.853.288-.192.192-.287.49-.287.892v.93h1.783v1.857H3.842v8.26H.954v-8.26H0v-1.858h.954v-1.3c0-.91.313-1.674.939-2.292.625-.618 1.406-.927 2.343-.927.472 0 .92.039 1.344.117.425.079.74.171.948.278v2.203zM13.879 94.846c-.182-.145-.438-.274-.767-.385a3.653 3.653 0 00-1.163-.167c-.521 0-.96.077-1.318.23a3.024 3.024 0 00-.895.567v6.836H6.848V91.808l2.888-.2v.997l.913-.563c.283-.175.608-.32.975-.437a3.392 3.392 0 011.012-.174c.326 0 .589.02.786.061.198.04.35.087.457.137v3.217zM25.159 97.307H17.65c.157.817.481 1.406.973 1.768.492.361 1.089.542 1.791.542.564 0 1.188-.083 1.871-.25.683-.166 1.222-.384 1.617-.654v2.561c-.37.263-.928.47-1.672.624-.744.153-1.342.23-1.794.23-1.79 0-3.187-.488-4.192-1.464-1.005-.975-1.507-2.282-1.507-3.92 0-1.649.513-2.98 1.54-3.993 1.025-1.013 2.307-1.52 3.844-1.52s2.763.542 3.676 1.625c.913 1.083 1.366 2.567 1.36 4.451zm-2.662-1.356c-.143-.755-.432-1.325-.866-1.709-.434-.383-.973-.576-1.616-.576-.75 0-1.314.208-1.696.624-.38.415-.611.969-.693 1.661h4.871zM36.552 97.307h-7.508c.157.817.481 1.406.973 1.768.493.361 1.09.542 1.791.542.564 0 1.188-.083 1.871-.25.683-.166 1.222-.384 1.617-.654v2.561c-.37.263-.928.47-1.671.624-.745.153-1.343.23-1.795.23-1.79 0-3.187-.488-4.192-1.464-1.004-.975-1.507-2.282-1.507-3.92 0-1.649.513-2.98 1.54-3.993 1.026-1.013 2.307-1.52 3.844-1.52 1.538 0 2.763.542 3.676 1.625.913 1.083 1.366 2.567 1.36 4.451zm-2.662-1.356c-.143-.755-.433-1.325-.866-1.709-.434-.383-.973-.576-1.616-.576-.75 0-1.315.208-1.696.624-.381.415-.612.969-.693 1.661h4.871zM47.578 101.927h-2.185l-.628-.904-1.517.824c-.126.069-.309.12-.547.154a4.484 4.484 0 01-.622.052c-1.484 0-2.61-.5-3.38-1.5s-1.158-2.254-1.164-3.763c-.007-1.635.456-2.937 1.389-3.905.932-.968 2.165-1.453 3.697-1.453.44 0 .826.035 1.159.104.332.069.653.191.96.367v-4.438h2.838v14.462zm-2.838-3.089v-4.5c-.157-.196-.418-.366-.782-.508a3.243 3.243 0 00-1.188-.214c-.793 0-1.382.232-1.768.696-.387.464-.58 1.201-.58 2.211 0 1.03.206 1.798.617 2.306.412.509.97.762 1.674.762.453 0 .85-.074 1.193-.223.343-.149.62-.326.835-.53zM59.714 97.307h-7.507c.156.817.48 1.406.973 1.768.492.361 1.088.542 1.79.542.565 0 1.188-.083 1.871-.25.683-.166 1.223-.384 1.617-.654v2.561c-.37.263-.928.47-1.671.624-.745.153-1.343.23-1.795.23-1.79 0-3.187-.488-4.191-1.464-1.005-.975-1.507-2.282-1.507-3.92 0-1.649.512-2.98 1.539-3.993 1.026-1.013 2.307-1.52 3.845-1.52 1.537 0 2.762.542 3.675 1.625.913 1.083 1.366 2.567 1.36 4.451zm-2.661-1.356c-.144-.755-.433-1.325-.867-1.709-.434-.383-.972-.576-1.615-.576-.75 0-1.315.208-1.696.624-.381.415-.612.969-.693 1.661h4.87zM68.897 98.458c0 1.104-.395 1.992-1.185 2.663-.79.671-1.768 1.007-2.935 1.007-.546 0-1.2-.056-1.962-.165-.762-.11-1.438-.323-2.028-.639V98.79c.465.26.992.483 1.582.671.59.189 1.275.283 2.053.283.559 0 1.009-.08 1.35-.242.343-.16.514-.453.514-.874 0-.276-.144-.5-.433-.672-.288-.173-.79-.29-1.504-.354-1.28-.106-2.176-.417-2.69-.931-.514-.514-.771-1.205-.771-2.07 0-.979.393-1.785 1.181-2.419.788-.634 1.756-.95 2.905-.95.502 0 1.039.045 1.61.136a9.053 9.053 0 011.46.341v2.561a7.51 7.51 0 00-1.502-.494 7.792 7.792 0 00-1.615-.159c-.465 0-.827.079-1.088.236-.26.158-.39.34-.39.55 0 .383.184.635.554.758.37.122.757.196 1.164.221 1.24.082 2.172.39 2.795.922.623.534.935 1.252.935 2.155zM80.303 101.927H76.86l-2.833-4.446-.603.56v3.886h-2.887V87.465h2.887v7.802l3.885-3.885 1.916 1.28-3.089 2.86 4.168 6.405zM86.021 100.17l-2.096 1.958c-.866-.358-1.516-.88-1.95-1.569-.433-.688-.65-1.51-.65-2.464v-4.429h-.953v-1.858h.954v-3.34l2.888-.2v3.54h1.506v1.858h-1.506v3.62c0 .722.163 1.322.49 1.8.326.477.765.838 1.317 1.083zM97.361 96.68c0 1.662-.476 2.986-1.429 3.97-.952.985-2.259 1.478-3.92 1.478-1.785 0-3.123-.496-4.013-1.487-.89-.991-1.334-2.312-1.334-3.962 0-1.499.479-2.782 1.438-3.848.959-1.066 2.262-1.6 3.91-1.6 1.654 0 2.959.493 3.914 1.478.956.985 1.434 2.309 1.434 3.97zm-2.913 0c0-.819-.215-1.547-.645-2.184-.43-.637-1.025-.956-1.785-.956-.873 0-1.498.291-1.875.872-.377.58-.565 1.336-.565 2.267 0 .868.226 1.609.678 2.22.452.612 1.058.918 1.818.918.848 0 1.456-.247 1.823-.744s.551-1.295.551-2.394zM109.13 96.593c0 1.563-.479 2.85-1.437 3.864-.958 1.014-2.122 1.52-3.491 1.52-.472 0-.904-.038-1.296-.112a3.908 3.908 0 01-.957-.29v3.415h-2.837V91.808l2.715-.2.148.599.96-.471c.308-.15.58-.269.82-.353.238-.085.52-.127.846-.127 1.388 0 2.49.503 3.305 1.51.816 1.008 1.225 2.284 1.225 3.827zm-2.887.13c0-.828-.217-1.544-.651-2.149-.434-.605-1.032-.908-1.793-.908-.504 0-.9.08-1.19.239-.289.159-.51.324-.66.495v4.765c.15.174.403.313.755.419.352.106.742.158 1.17.158.812 0 1.41-.255 1.793-.766.384-.51.576-1.262.576-2.253zM114.252 101.927h-2.988v-3.063h2.988v3.063zM127.086 96.68c0 1.662-.476 2.986-1.429 3.97-.952.985-2.259 1.478-3.92 1.478-1.785 0-3.123-.496-4.013-1.487-.89-.991-1.334-2.312-1.334-3.962 0-1.499.479-2.782 1.438-3.848.959-1.066 2.262-1.6 3.91-1.6 1.654 0 2.958.493 3.914 1.478s1.434 2.309 1.434 3.97zm-2.913 0c0-.819-.215-1.547-.645-2.184-.43-.637-1.025-.956-1.785-.956-.873 0-1.498.291-1.875.872-.377.58-.565 1.336-.565 2.267 0 .868.226 1.609.678 2.22.452.612 1.058.918 1.818.918.848 0 1.456-.247 1.823-.744s.551-1.295.551-2.394zM135.867 94.846c-.182-.145-.437-.274-.767-.385a3.653 3.653 0 00-1.163-.167c-.52 0-.96.077-1.318.23a3.024 3.024 0 00-.895.567v6.836h-2.887V91.808l2.887-.2v.997l.914-.563c.282-.175.607-.32.974-.437a3.392 3.392 0 011.012-.174c.327 0 .589.02.787.061.197.04.35.087.456.137v3.217zM146.37 100.643c0 .633-.122 1.203-.362 1.708a4.14 4.14 0 01-.954 1.293c-.388.351-.817.64-1.286.865-.47.226-.918.39-1.344.49l-2.507-.008v-1.632c1.433 0 2.398-.14 2.895-.419.496-.28.745-.75.745-1.414v-.716l-1.008.678a1.827 1.827 0 01-.66.264c-.25.05-.483.075-.697.075-1.419 0-2.518-.475-3.297-1.426-.778-.951-1.167-2.246-1.167-3.884 0-1.526.455-2.78 1.366-3.762.91-.982 2.057-1.473 3.44-1.473.452 0 .913.076 1.385.229.47.152.901.394 1.29.725l1.558-.603.602.176v8.835zm-2.738-2.062v-4.036a1.886 1.886 0 00-.628-.621c-.256-.155-.606-.233-1.05-.233-.83 0-1.424.26-1.78.78-.356.522-.534 1.123-.534 1.807 0 .91.184 1.655.553 2.238.369.583.928.875 1.678.875.38 0 .727-.073 1.04-.217.312-.144.553-.342.722-.593z"/></g><path d="M114.975 40.818c2.058 7.884-2.667 15.942-10.55 18L56.84 71.231c-7.884 2.057-15.943-2.667-18-10.552l-7.448-28.55c-2.057-7.884 2.667-15.942 10.551-17.999L89.528 1.717c7.884-2.057 15.942 2.667 18 10.551l7.448 28.55z" fill="#fff" stroke="#969898" stroke-width="2.459"/><path d="M110.142 39.8c1.75 7.854-1.816 13.621-9.504 15.447l-42.236 11.02c-7.569 2.396-14.089-1.18-15.838-8.836L36.228 33.15c-1.749-8.145.71-12.889 9.503-15.447L87.968 6.683c8.144-1.826 14.09 1.363 15.838 8.835z" fill="#444" stroke-width="2.459"/><path d="M75.24 51.815l-21.438-20.69 38.1-4.394z" opacity=".5" fill="none" stroke="#fff" stroke-width="2.459"/><path d="M102.023 28.791a2.903 2.903 0 01-2.075 3.541l-12.33 3.217a2.904 2.904 0 01-3.543-2.076l-2.295-8.8a2.903 2.903 0 012.076-3.543l12.33-3.217a2.903 2.903 0 013.542 2.076l2.295 8.801zM66.208 33.647a3.559 3.559 0 01-2.545 4.34L48.551 41.93a3.557 3.557 0 01-4.34-2.544L41.397 28.6a3.558 3.558 0 012.544-4.34l15.113-3.942a3.557 3.557 0 014.34 2.544l2.814 10.786zM82.191 53.23a1.993 1.993 0 01-1.425 2.432l-8.468 2.208a1.993 1.993 0 01-2.43-1.426l-1.578-6.043a1.995 1.995 0 011.425-2.432l8.468-2.209a1.994 1.994 0 012.431 1.426l1.577 6.043z" fill="#fff" stroke="#444" stroke-width="2.459"/></svg>