<svg xmlns="http://www.w3.org/2000/svg" viewBox="0 0 246 188" enable-background="new 0 0 246 188"><switch><g><path d="m46.3 150.29c.509-.751.775-1.774.775-2.718 0-1.452-.58-2.744-1.504-3.578-1.258-1.183-2.733-1.183-4.068-1.183h-12.352v18.999h13.321c.87 0 2.69-.077 3.901-1.153 1.09-.974 1.575-2.504 1.575-4.04 0-2.073-.969-3.797-2.472-4.496-.559-.241-.945-.295-1.38-.348.51-.163 1.502-.461 2.204-1.485m-1.016 3.607c.384.375.968 1.264.968 2.743 0 1.132-.413 1.994-.825 2.478-.87 1.023-2.154 1.102-3.01 1.102h-11.6v-7.534h10.318c.898.001 3.149.026 4.145 1.211m-.824-3.846c-.944.968-2.254 1.02-3.198 1.02h-10.441v-6.729h10.707c.581 0 1.793.028 2.543.564.704.511 1.26 1.507 1.26 2.801-.001.459-.047 1.479-.871 2.344"/><path d="m56.31 142.81h1.623v18.999h-1.623z"/><path d="m48.961 181.71c-.442 1.536-.541 1.92-.888 3.319-.296-1.124-.446-1.619-.716-2.495l-4.759-14.959h-1.799l-3.799 12.136c-.666 2.083-.837 2.63-1.576 5.317-.247-.96-.471-1.699-.617-2.22l-4.441-15.234h-1.776l5.772 19.373h1.973l4.785-15.455c.273-.959.319-1.069.591-2 .171.847.221 1.043.519 1.916l4.857 15.541h2.02l5.526-19.373h-1.652l-4.02 14.14"/><path d="m70.41 167c-6.34 0-10.333 4.553-10.333 10.246 0 5.867 4.067 10.223 10.16 10.223 6.388 0 10.406-4.657 10.406-10.25.001-4.957-3.327-10.164-10.233-10.219m-.024 18.827c-4.785 0-8.485-3.182-8.485-8.497 0-4.03 2.394-8.382 7.965-8.657 2.886-.138 5.01 1.041 5.821 1.639 2.146 1.592 3.057 4.359 3.057 6.798 0 5.619-3.747 8.717-8.358 8.717"/><path d="m104.86 177c1.285-1.121 1.677-2.71 1.677-4.109 0-1.973-.861-3.7-2.193-4.547-1.21-.742-2.64-.742-3.822-.742h-12.03v19.348h1.676v-8.635h7.964l6.88 8.635h2.343l-7-8.635c1.334-.053 3.183-.162 4.512-1.315m-14.696-.33v-7.479h10.404c.962 0 2.073 0 2.962.768.666.548 1.184 1.592 1.184 2.848 0 .877-.248 1.892-.84 2.602-1.012 1.207-2.591 1.261-4.366 1.261h-9.344"/><path d="m116.31 167.6h-1.7v19.35h14.37v-1.62h-12.67z"/><path d="m149.4 168.54c-1.597-.878-3.055-.933-4.636-.933h-8.704v19.348h7.893c1.997 0 4.365-.087 6.411-1.563 2.072-1.51 3.528-4.332 3.528-8.06-.001-3.371-1.262-7.04-4.492-8.795m.668 14.905c-1.875 1.864-4.415 1.89-6.733 1.89h-5.55v-16.11h7c1.281 0 3.974.027 5.797 2.687 1.037 1.482 1.529 3.479 1.529 5.535 0 2.192-.492 4.44-2.048 6"/><path d="m179.75 181.71c-.447 1.536-.546 1.92-.891 3.319-.295-1.124-.444-1.619-.715-2.495l-4.758-14.959h-1.801l-3.798 12.136c-.662 2.083-.836 2.63-1.576 5.317-.248-.96-.472-1.699-.619-2.22l-4.44-15.234h-1.771l5.767 19.373h1.976l4.781-15.455c.27-.959.318-1.069.592-2 .171.847.224 1.043.518 1.916l4.857 15.541h2.023l5.524-19.373h-1.651l-4.02 14.14"/><path d="m192.31 167.6h1.653v19.348h-1.653z"/><path d="m216.11 168.54c-1.6-.878-3.059-.933-4.636-.933h-8.707v19.348h7.892c1.999 0 4.365-.087 6.41-1.563 2.076-1.51 3.529-4.332 3.529-8.06-.001-3.371-1.257-7.04-4.488-8.795m.663 14.905c-1.873 1.864-4.41 1.89-6.731 1.89h-5.547v-16.11h7c1.283 0 3.971.027 5.795 2.687 1.039 1.482 1.529 3.479 1.529 5.535 0 2.192-.491 4.44-2.049 6"/><path d="m230.31 185.33v-7.72h13.84v-1.62h-13.84v-6.77h14.97v-1.62h-16.66v19.35h17.38v-1.62z"/><path d="M152.72 93.22 202.27 105.47 245.98 0z"/><path d="m151.09 94.85l-151.09-37.3 94.17 94.18.05-.02 107.29-44.41.01-.02-50.4-12.46z"/></g></switch></svg>