<svg xmlns="http://www.w3.org/2000/svg" viewBox="0 0 340 160" enable-background="new 0 0 340 160"><path d="m24.932 77.43c-5.94-1.291-8.546-2.156-8.546-5.107 0-3.02 2.818-4.815 7.531-4.815 3.899 0 7.095 1.586 9 4.476l.285.304h.328c.758 0 2.954-1.016 2.954-2.954 0-2.844-4.364-6.791-12.568-6.791-7.756 0-12.967 4.175-12.967 10.391 0 7.078 6.832 8.55 11.826 9.633 6.091 1.282 9.02 2.049 9.02 5.37 0 3.02-2.891 4.821-7.736 4.821-4.612 0-8.167-1.675-10.642-5.06l-.247-.191h-.248c-.705 0-2.92.906-2.92 3.01 0 3.01 5.291 7.199 13.916 7.199 8.132 0 13.383-4.106 13.383-10.463 0-7.095-7.083-8.663-12.367-9.827"/><path d="m56.4 62.55c-9.632 0-16.905 7.621-16.905 17.726 0 10.272 7.119 17.451 17.315 17.451 8.845 0 14.261-5.058 14.261-7.812 0-2.219-2.182-3.163-3.054-3.163-.367 0-.558.171-.66.33-1.687 2.708-4.259 5.477-10.547 5.477-6.335 0-11.03-4.317-11.633-10.587h24.463c1.188 0 2.454-.162 2.454-2.101v-.408c-.001-10.116-6.308-16.913-15.694-16.913m0 5.099c5.438 0 9.117 3.544 9.722 9.3h-20.67c1.155-5.591 5.475-9.3 10.948-9.3"/><path d="m88.41 62.818c-3.584 0-6.254 1.519-7.976 4.517-.201-2.636-1.359-3.973-3.432-3.973-.657 0-2.102.275-2.102 1.091v30.28c0 1.777.896 2.72 2.584 2.72h.472c1.688 0 2.584-.943 2.584-2.72v-12.7c0-6.25 1.289-13.709 7.4-13.709 1.493 0 2.548.362 3.5 1.172l.226.2h.256c.722-.003 1.791-1.233 1.791-2.937-.001-2.466-1.983-3.942-5.303-3.942"/><path d="m124.04 63.02c-1.765 0-2.711.92-3.764 3.655l-9.07 23.816-8.999-23.822c-1.079-2.792-1.991-3.649-3.903-3.649-1.021 0-1.949.402-2.467 1.071-.153.203-.402.587-.269 1.062l12.01 30.08c.606 1.461 1.066 2.01 3.553 2.01 2.431 0 3.174-.721 3.767-2.153l11.895-29.974c.088-.272.007-.587-.24-.932-.197-.272-.962-1.163-2.518-1.163"/><path d="m132.14 63.09h-.475c-1.693 0-2.584.938-2.584 2.717v28.652c0 1.779.891 2.72 2.584 2.72h.475c1.693 0 2.584-.94 2.584-2.72v-28.652c0-1.779-.891-2.717-2.584-2.717"/><path d="m154.4 67.71c5.096 0 8.513 2.208 10.454 6.791.139.275.423.414.839.414 1.134 0 3.241-.822 3.241-2.795 0-3.437-4.854-9.577-14.534-9.577-9.835 0-17.251 7.535-17.251 17.523 0 10.06 7.416 17.653 17.251 17.653 9.68 0 14.534-6.14 14.534-9.58 0-1.971-2.106-2.789-3.241-2.789-.417 0-.7.142-.859.448-1.921 4.546-5.339 6.753-10.434 6.753-6.687 0-11.542-5.249-11.542-12.485 0-7.162 4.855-12.356 11.542-12.356"/><path d="m188.06 62.55c-9.638 0-16.91 7.621-16.91 17.726 0 10.272 7.121 17.451 17.312 17.451 8.857 0 14.262-5.058 14.262-7.812 0-2.219-2.182-3.163-3.05-3.163-.37 0-.556.171-.666.327-1.684 2.711-4.259 5.48-10.547 5.48-6.334 0-11.02-4.317-11.626-10.587h24.465c1.186 0 2.448-.162 2.448-2.101v-.408c.001-10.116-6.307-16.913-15.688-16.913m0 5.099c5.437 0 9.112 3.544 9.725 9.3h-20.668c1.155-5.591 5.466-9.3 10.943-9.3"/><path d="m224.87 63.07c-4.144 0-7.726 1.644-10.26 4.656-.668-3.414-2.798-4.184-4.604-4.184-1.027 0-3.05.411-3.05 1.374v28.909c0 2.48 1.238 3.788 3.582 3.788h.738c2.349 0 3.594-1.308 3.594-3.788v-18.521c1.617-3.258 4.664-5.127 8.388-5.127 4.251 0 6.791 3.038 6.791 8.125v15.524c0 2.48 1.241 3.788 3.585 3.788h.738c2.341 0 3.582-1.308 3.582-3.788v-16.326c0-9.04-4.895-14.43-13.08-14.43"/><path d="m321.97 65.32c-.544-.668-2.329-1.91-4.175-1.91-.787 0-3.4.298-4.04 4.051l-4.43 20.05-5.24-17.01c-.561-1.939-1.991-2.804-4.63-2.804-2.682 0-4.126.865-4.69 2.789l-5.44 17.199-4.499-20.21c-.715-3.666-3.108-4.065-4.109-4.065-1.811 0-3.802 1.16-4.378 1.962-.258.353-.237.637-.185.793l8.03 28.848c.668 2.292 2.648 2.604 4.696 2.604 2.769 0 3.895-.677 4.624-2.784l5.804-17.601 5.631 17.604c.715 2.159 1.765 2.781 4.69 2.781 2.063 0 4.06-.315 4.633-2.613l7.972-28.886c.072-.381-.183-.696-.267-.798"/><path d="m273.95 72.05c-.321-.692-.674-1.357-1.082-1.982-.628-.819-1.311-1.473-2-1.878-2.39-1.409-4.887.556-5.697 1.927-.295.512-.333.958-.069 1.366.486.66.891 1.319 1.253 1.985.249.373.48.758.689 1.172.778 1.58 1.224 3.435 1.224 5.466 0 6.262-4.233 10.804-10.07 10.804-5.778 0-10.136-4.699-10.136-10.937 0-1.991.431-3.805 1.212-5.359.298-.608.651-1.163 1.05-1.684.292-.483.596-.967.958-1.447.26-.408.223-.854-.075-1.366-.81-1.372-3.307-3.336-5.695-1.927-.839.489-1.661 1.322-2.393 2.399-.269.463-.524.946-.752 1.435-1.076 2.341-1.675 5.01-1.675 7.949 0 10.391 7.196 17.645 17.506 17.645 10.145 0 17.509-7.364 17.509-17.512-.003-2.961-.631-5.678-1.753-8.06"/><path d="m258.47 62.28h-.512c-2.077 0-3.272 1.493-3.272 4.094v13.793c0 2.564 1.195 4.04 3.272 4.04h.512c2.072 0 3.223-1.441 3.223-4.04v-13.792c.001-2.642-1.151-4.095-3.223-4.095"/><path d="m324.52 65.41c.156-.344.362-.637.628-.877.263-.24.567-.425.908-.559.347-.13.712-.197 1.085-.197.379 0 .741.067 1.082.197.347.133.651.318.914.559.266.24.472.532.628.877.156.341.237.723.237 1.146 0 .428-.081.81-.237 1.157-.156.341-.362.631-.628.877-.263.243-.567.428-.914.558-.341.127-.703.194-1.082.194-.373 0-.738-.067-1.085-.194-.341-.13-.645-.315-.908-.558-.266-.246-.472-.535-.628-.877-.156-.347-.237-.729-.237-1.157 0-.423.081-.805.237-1.146m.686 2.025c.11.266.26.498.449.694.188.197.411.35.665.46.255.107.529.162.822.162.292 0 .561-.055.819-.162.255-.11.475-.263.665-.46.188-.197.339-.428.451-.694.113-.269.165-.564.165-.88s-.052-.611-.165-.877c-.113-.266-.263-.495-.451-.686-.191-.194-.411-.347-.665-.454-.257-.11-.527-.165-.819-.165-.292 0-.567.055-.822.165-.255.107-.477.26-.665.454-.188.191-.339.42-.449.686-.107.266-.162.561-.162.877s.055.611.162.88m2.01-2.442c.394 0 .695.069.906.205.211.142.315.379.315.718 0 .145-.02.266-.067.367-.038.101-.095.185-.174.252-.072.064-.159.113-.257.148-.101.032-.208.058-.324.067l.836 1.363h-.648l-.758-1.331h-.391v1.331h-.616v-3.119h1.178m-.009 1.301c.179 0 .324-.023.44-.072.113-.052.171-.168.171-.359 0-.087-.02-.15-.061-.203-.041-.046-.09-.087-.153-.113-.061-.029-.13-.046-.205-.058-.078-.012-.151-.015-.22-.015h-.524v.819h.552z"/></svg>
