<?xml version="1.0" encoding="utf-8"?>
<!-- Generator: Adobe Illustrator 23.0.6, SVG Export Plug-In . SVG Version: 6.00 Build 0)  -->
<svg version="1.1" id="Layer_1" xmlns="http://www.w3.org/2000/svg" xmlns:xlink="http://www.w3.org/1999/xlink" x="0px" y="0px"
	 viewBox="0 0 509 89" enable-background="new 0 0 509 89" xml:space="preserve">
<path fill="currentColor" d="M303.4,4.8c5.9,0,6.9,1.6,7.1,9.9v72.4h-11c-2.8,0-4.4-0.5-5.1-6.4c-4.1,4.5-10.2,8-18.5,8c-6.1,0-11.5-1.9-15.8-5.7
	c-5.7,3.3-12.9,5.7-19.9,5.7c-9.2,0-16-3.5-16-17.7V4.8h9.5c5.8,0,6.8,1.5,6.8,9.9v54.2c0,6.3,2.6,8.1,8,8.1c2.1,0,4.1-0.4,6-0.9
	c-2.6-4.9-4.1-11.2-4.1-18.8c0-24.8,13.4-33.3,26.9-33.3c8.1,0,12.7,1.6,16.5,5V4.8H303.4L303.4,4.8z M293.8,70.9V40.2
	c-2.7-2-6.2-3.1-11-3.1c-7.3,0-14.6,3.6-14.6,19.3c0,14.5,4.1,20,12.5,20C285.9,76.4,289.3,74.6,293.8,70.9z M197.3,31.9
	c4-4.2,9.8-7.9,17.5-7.8c1.3,0,2.6,0.2,3.8,0.6v13.7h-3c-8.6,0-14.8,1.9-18.1,3.7V87H181V25.5h10.9
	C194.9,25.5,196.7,25.7,197.3,31.9z M360.4,21.6c-5.2,0-9.6-4.1-9.6-9.2s4.3-9.3,9.6-9.3s9.5,4.1,9.5,9.3
	C369.9,17.5,365.7,21.6,360.4,21.6z M156.6,26.5c11.6,4.9,19.8,16.5,19.9,29.9c0,18-14.8,32.4-32.4,32.4
	c-17.7,0-32.4-14.5-32.4-32.4c0-14.2,9.2-26.6,22.3-30.8c-2.7,4-4.5,13.2-4.5,18.3c-2.6,3.4-4.2,7.8-4.2,12.5
	c0,11,8.4,19.9,18.7,19.9c3.8,0,7.3-1.2,10.2-3.3c-11.7-4.9-19.8-16.4-19.8-29.8c0-7.2,2.3-13.8,6.2-19.1c1.1-0.1,2.3-0.2,3.4-0.2
	C148.5,23.9,152.8,24.9,156.6,26.5L156.6,26.5z M161.8,62.5c0.6-2,0.9-4,0.9-6.1c0-9.2-5.8-16.9-13.7-19.2c-0.6,1.9-0.9,4-0.9,6.1
	C148.1,52.5,153.9,60.2,161.8,62.5z M508.3,54.8c0,2.2-0.2,4.8-0.2,5.5h-40.7c0.8,12.5,6.8,16,16.5,16c7.1,0,12.6-2.3,16.7-5.3h5.4
	v11.5c-5,2.9-12,6.1-24.6,6.1c-8.9,0-16.1-2.3-21.3-6.5c-5.8,3.8-13.5,6.5-21.1,6.5c-9.1,0-15.9-3.5-15.9-17.6V45.5
	c0-6.2-2.4-8-7.8-8S405,39,401.1,40.4V87h-16.5v-2.3c-4.8,2.3-10.3,3.8-15.8,3.9h-1.7c-0.8-0.1-1.6-0.1-2.3-0.2v-0.1
	c-5-0.8-6-3.2-8.4-5.8c-5.7,3.5-13.1,6-20.4,6c-9.1,0-15.9-3.5-15.9-17.6V4.7h9.4c5.8,0,6.8,1.4,6.8,9.8v54.3c0,6.2,2.6,8,8,8
	c2.9,0,5.6-0.7,8.1-1.5V25.4h9.7c5.8,0,6.6,1.5,6.6,11.1V69c0,4.9,1.7,7,5.1,7.6c0.8,0.1,1.7,0.2,2.6,0.2c2.8,0,5.5-0.7,8-1.5V25.5
	h10.9c3,0,4.7,0.3,5.4,5.7c5.9-4.3,13.4-7.2,21.8-7.2c9.1,0,16.9,2.9,16.9,17v30.1c0.6,4.4,3.1,5.8,7.8,5.8c2.5,0,4.8-0.5,7-1.2
	c-3.1-5.2-4.8-11.6-4.8-19.2c0-20.2,13.1-32.6,30.6-32.6C498.5,23.9,508.3,34.1,508.3,54.8L508.3,54.8z M467.6,49.6H491
	c-0.3-11.1-4.2-14.7-11-14.7C474,34.9,468.9,37.9,467.6,49.6L467.6,49.6z M118.1,11.4c-2.1,0-4,1.6-4.8,3.9L94.4,88.6H73.2L59.7,34
	h-0.3L45.7,88.6H24.5L6.4,14.8c-0.7-1.9-2.2-3.4-4.1-3.4h-2V0.6h35.4v10.8H25.3L37.6,66h0.3L54.3,0.5h14.9l16.2,65.4h0.3l11-46
	c1.8-5.5,0.6-8.5-4.3-8.5h-4.6V0.6h32.1v10.8C119.9,11.4,118.1,11.4,118.1,11.4z"/>
</svg>
