<svg xmlns="http://www.w3.org/2000/svg" viewBox="0 0 340 160" enable-background="new 0 0 340 160"><path d="m165.59 87.43c-.324.721-2.02 3.987-6.259 3.987-4.912 0-6.827-4.074-6.827-7.101 0-5 3.371-9.502 8.333-9.502 5.341 0 6.614 3.978 6.737 4.699h7.855c.471-2.937-1.859-11.917-14.29-11.917-9.09 0-16.367 7.263-16.367 16.969 0 7.942 4.964 14.07 14.162 14.07 11.465 0 14.561-8.993 14.94-11.2h-8.284"/><path d="m105.31 89.62c0-.459.121-1.326.526-3.15.391-1.828 5.941-27.395 5.941-27.395h-7.372l-6.117 28.2c-.258 1.186-.369 2.355-.369 3.388 0 6.185 4.784 8 8.614 8 1.371 0 2.642-.228 2.961-.269.121-.619 1.278-5.929 1.334-6.161-.166.012-.979.073-1.921.073-2.741.001-3.597-1.163-3.597-2.692"/><path d="m199.73 67.69l-13.21 11.89 4.45-20.57h-7.43l-8.42 39.03h7.41l2.05-9.48 4.57-3.64 6.31 13.12h8.26l-8.96-17.57 15.25-12.78z"/><path d="m89.32 78.02c.879-.275 8.06-2.289 8.06-9.893 0-3.437-2.508-9.103-12.7-9.103-5.03 0-14.05 0-14.05 0s-5.23 24.16-5.847 26.955c-1.485 6.716 2.703 12.07 10.501 12.07.905 0 4.235 0 4.235 0 9.286 0 15.276-5.443 15.276-11.94 0-5.972-4.662-7.819-5.48-8.09m-10.11 12.76h-7.711l2.04-9.44h6.811c5.245 0 6.426 2.327 6.426 4.161 0 3.03-2.576 5.279-7.566 5.279m3.722-16.657h-7.831l1.704-7.88h7.516c3.538 0 4.983 1.633 4.983 3.531-.001 2.312-2.155 4.348-6.372 4.349"/><path d="m231.17 78.02c.881-.275 8.06-2.289 8.06-9.893 0-3.437-2.509-9.103-12.701-9.103-5.04 0-14.05 0-14.05 0s-5.229 24.16-5.847 26.955c-1.486 6.716 2.703 12.07 10.504 12.07.905 0 4.232 0 4.232 0 9.286 0 15.283-5.443 15.283-11.94.001-5.972-4.674-7.819-5.481-8.09m-10.11 12.76h-7.714l2.038-9.44h6.815c5.242 0 6.425 2.327 6.425 4.161 0 3.03-2.576 5.279-7.564 5.279m3.723-16.657h-7.833l1.701-7.88h7.513c3.547 0 4.986 1.633 4.986 3.531 0 2.312-2.153 4.348-6.367 4.349"/><path d="m290.2 67.71c-7.866 0-13.216 4.656-15.02 13.393-.776 3.756-3.628 16.957-3.628 16.957h7.368c0 0 2.715-12.553 3.574-16.498 1.125-5.171 3.859-6.926 7.535-6.926 1.189 0 1.945.135 2.332.189.203-1.041 1.23-5.708 1.476-6.852-.8-.104-2.06-.263-3.638-.263"/><path d="m315.27 109.67l24.727-41.961h-7.958l-11.363 19.748-2.654-19.771c0 0-4.05 0-8.515 0-9.752 0-14.806 4.46-16.599 12.994-.899 4.259-3.756 17.379-3.756 17.379h7.371c0 0 2.705-12.461 3.781-17.49 1.041-4.882 4.662-6.374 8.567-5.542l1.553-7.163c1.15 6.804 4.667 28.539 4.667 28.539l-7.715 13.268 7.894-.001"/><path d="m130.93 67.63c-11.55 0-14.877 8.302-15.416 9.581h8.322v-.001c.182-.301 2.078-3.224 6.802-3.224 2.937 0 4.443 1.072 4.443 2.369 0 1.83-2.961 2.306-8.089 3.041-8.81 1.273-14.377 4.01-14.377 10.37 0 4.509 3.744 8.903 10.393 8.903 5.525 0 8.413-3.335 8.669-3.591.025.801.129 2 .215 2.967.605 0 5.714 0 7.618 0-.263-1.316-.808-3.843.096-7.886.478-2.129 1.822-8.247 2.508-11.624 1.304-6.391-2.202-10.905-11.184-10.905m2.227 18.332c-.857 3.67-4.595 6.03-8.718 6.03-2.63 0-4.167-1.415-4.167-3.097.001-1.388 1.275-3.03 6.321-3.779 1.622-.24 6.37-.973 7.02-1.064-.121.506-.312 1.316-.453 1.914"/><path d="m270.17 85.81c.129-.549.637-2.551.637-4.605 0-7.11-4.82-13.612-14.541-13.612-8.889 0-16.02 7.476-16.02 16.353 0 8.589 5.157 14.682 14.278 14.682 11.27 0 14.306-8.827 14.598-9.678-2.01-.002-8.407-.002-8.407-.002-.27.594-2.062 3.095-6.069 3.095-5.77 0-7.083-4.892-6.95-6.234 3.076.001 20.865.001 22.475.001m-13.827-11.477c4.962 0 6.858 3.03 6.656 5.458-2.851 0-11.331 0-14.193 0 .367-1.542 2.734-5.458 7.537-5.458"/><path d="m18.16 54.57c0-1.871-1.146-4.24-5.961-4.24-1.976 0-7.415 0-7.415 0l-2.108 9.752c0 0 4.01 0 7.73 0 6.04 0 7.754-2.857 7.754-5.512"/><path d="m38.13 54.57c0-1.871-1.143-4.24-5.957-4.24-1.978 0-7.416 0-7.416 0l-2.107 9.751c0 0 4.01 0 7.726 0 6.04.001 7.754-2.856 7.754-5.511"/><path d="m15.484 69.25c0-1.871-1.146-4.246-5.961-4.246-1.976 0-7.415 0-7.415 0l-2.108 9.759c0 0 4.01 0 7.727 0 6.04 0 7.757-2.865 7.757-5.513"/><path d="m35.458 69.25c0-1.871-1.147-4.246-5.958-4.246-1.979 0-7.415 0-7.415 0l-2.111 9.758c0 0 4.01 0 7.73 0 6.04.001 7.754-2.864 7.754-5.512"/><path d="m56.36 63.29c0-1.873-1.147-4.246-5.958-4.246-1.979 0-7.415 0-7.415 0l-2.111 9.757c0 0 4.01 0 7.727 0 6.04 0 7.757-2.857 7.757-5.511"/><path d="m53.48 78.58c0-1.873-1.144-4.24-5.958-4.24-1.976 0-7.415 0-7.415 0l-2.108 9.752c0 0 4 0 7.727 0 6.04.001 7.754-2.864 7.754-5.512"/><path d="m32.588 84.53c0-1.88-1.143-4.253-5.954-4.253-1.981 0-7.419 0-7.419 0l-2.108 9.757c0 0 4.01 0 7.727 0 6.04.001 7.754-2.856 7.754-5.504"/></svg>
