<?xml version="1.0" encoding="utf-8"?>
<!-- Generator: Adobe Illustrator 23.0.6, SVG Export Plug-In . SVG Version: 6.00 Build 0)  -->
<svg version="1.1" id="Layer_1" xmlns="http://www.w3.org/2000/svg" xmlns:xlink="http://www.w3.org/1999/xlink" x="0px" y="0px"
	 viewBox="0 0 253.4 52.6" enable-background="new 0 0 253.4 52.6" xml:space="preserve">
<g>
	<path fill="currentColor" d="M245,47v-9.4l6.5,10.5h0.6V36.6l1.1-1.1h-3.3l1.1,1.1v8l-5.7-9.1h-2.6l1.1,1.1V47l-1.1,1.1h3.3L245,47 M235.3,47.4
		c-2.5,0-3.4-3-3.4-5.6c0-2.6,0.9-5.6,3.4-5.6c2.5,0,3.4,3,3.4,5.6C238.7,44.4,237.8,47.4,235.3,47.4 M230.3,41.8
		c0,3.2,1.8,6.5,5,6.5c3.2,0,5-3.4,5-6.5s-1.8-6.5-5-6.5C232.1,35.2,230.3,38.6,230.3,41.8 M224.6,47V36.4h2.4l1.3,1.3v-2.3h-8.8
		v2.3l1.4-1.3h2.4V47l-1,1h3.4L224.6,47L224.6,47z M215.3,42.3v4c-0.3,0.3-0.9,0.9-2.1,0.9c-2.8,0-4.2-2.8-4.2-5.5
		c0-2.7,1.8-5.5,4.2-5.5c0.6,0,1.1,0.1,1.5,0.6l1.4,1.4V36c-0.7-0.4-1.5-0.7-2.9-0.7c-3.4,0-5.8,3.1-5.8,6.4c0,3.3,2.4,6.4,5.8,6.4
		c1.9,0,2.8-0.5,3.4-0.9v-5l1-1h-3.4L215.3,42.3 M196.7,47v-9.4l6.6,10.5l0.6,0V36.6l1.1-1.1h-3.3l1.1,1.1v8l-5.7-9.1h-2.6l1.1,1.1
		V47l-1.1,1.1h3.3L196.7,47 M187.7,35.5l1,1V47l-1,1h3.4l-1-1V36.5l1-1H187.7 M176.6,41.7h5.3V47l-1,1h3.4l-1-1V36.5l1-1h-3.4l1,1
		v4.3h-5.3v-4.3l1-1h-3.4l1,1V47l-1,1h3.4l-1-1V41.7 M170.9,44.5c0-1.2-0.6-2-1.2-2.4l-2.6-1.8c-0.9-0.7-1.4-1.5-1.4-2.1
		c0-1.3,1.1-1.8,1.8-1.8c0.4,0,0.6,0.1,0.8,0.1l1.1,1.2l1.2-1.7l-2.5-0.5c-0.2,0-0.3-0.1-0.6-0.1c-2.2,0-3.2,1.9-3.2,3.1
		c0,1,0.5,2,1.6,2.9l2.6,1.9c0.7,0.5,0.9,1.2,0.9,1.8c0,1.1-0.7,2.2-2.1,2.2c-0.3,0-0.6-0.1-0.9-0.2l-1.2-1.4l-1.1,2l2.4,0.5
		c0,0,0.4,0.1,0.7,0.1C168.9,48.2,170.9,46.9,170.9,44.5 M156.9,38.3l1.7,5.2h-3.5L156.9,38.3L156.9,38.3z M153.8,47.1l0.9-2.7h4.1
		l0.9,2.7l-1,1h3.6l-1-1l-3.9-11.5h-0.6l-4,11.5l-1,1h3L153.8,47.1 M140.5,48l2.9-9.1l2.8,9.1h0.6l3.6-11.5l1-1h-3l1,1l-2.7,8.7
		l-2.6-8.7l1-1h-3.6l1,1l0.3,0.8l-2.4,7.8l-2.6-8.7l1-1h-3.6l1,1l3.5,11.5L140.5,48 M121.9,40.5l-0.5,0.5l0.1,0.2h1.5
		c-0.2,1.6-0.4,3-0.8,5.2c-0.5,3.3-0.9,4.5-1.2,4.8c-0.1,0.1-0.3,0.2-0.4,0.2c-0.2,0-0.5-0.2-0.8-0.3c-0.2-0.1-0.4,0-0.5,0.1
		c-0.1,0.2-0.3,0.4-0.3,0.6c0,0.4,0.5,0.5,0.8,0.5c0.3,0,1.2-0.3,1.9-1.2c0.6-0.7,1.4-2.5,2.1-6.4c0.1-0.7,0.3-1.5,0.6-3.4l1.8-0.2
		l0.4-0.5h-2.1c0.5-3.3,1-4.3,1.7-4.3c0.5,0,1,0.2,1.4,0.6c0.1,0.1,0.3,0.1,0.5,0c0.1-0.1,0.4-0.4,0.4-0.7c0-0.4-0.5-0.7-1.1-0.7
		c-1,0-2.1,0.6-2.8,1.5c-0.7,0.8-1.1,2.2-1.4,3.6L121.9,40.5L121.9,40.5z M113.9,45.1c0-2.6,1.3-4,1.9-4.3c0.2-0.1,0.4-0.1,0.6-0.1
		c0.9,0,1.4,0.7,1.4,2c0,2.3-1.2,4.4-1.9,4.6c-0.1,0.1-0.4,0.1-0.5,0.1C114.4,47.5,113.9,46.5,113.9,45.1 M117,40.1
		c-0.5,0-1.2,0.2-1.9,0.6c-1.2,0.7-2.5,2.4-2.5,4.8c0,1.2,0.6,2.6,2.2,2.6c0.8,0,1.9-0.5,2.6-1.2c1.2-1.1,1.9-2.9,1.9-4.5
		C119.2,41.1,118.5,40.1,117,40.1 M96.5,36.5l3.2,5.7V47l-1,1h3.4l-1-1v-4.8l3.2-5.7l1-1h-3.1l1,1l-2.6,4.7l-2.5-4.7l1-1h-3.6
		L96.5,36.5L96.5,36.5z M89.9,47V36.4h2.4l1.3,1.3v-2.3h-8.8v2.3l1.4-1.3h2.4V47l-1,1h3.4L89.9,47 M78.5,35.5l1,1V47l-1,1h3.4l-1-1
		V36.5l1-1H78.5 M74.9,44.6c0-1.2-0.6-2-1.2-2.4l-2.6-1.8c-0.9-0.7-1.4-1.5-1.4-2.1c0-1.3,1.1-1.8,1.8-1.8c0.4,0,0.6,0.1,0.8,0.1
		l1.1,1.2l1.2-1.7l-2.5-0.5c-0.2,0-0.3-0.1-0.6-0.1c-2.2,0-3.2,1.9-3.2,3.1c0,1,0.5,2,1.6,2.9l2.6,1.9c0.7,0.5,0.9,1.2,0.9,1.8
		c0,1.1-0.7,2.2-2.1,2.2c-0.3,0-0.6-0.1-0.9-0.2l-1.2-1.4l-1.1,2l2.4,0.5c0,0,0.4,0.1,0.7,0.1C72.9,48.2,74.9,46.9,74.9,44.6
		 M58.8,36.4h1.5c1.3,0,2.4,1.1,2.4,2.5c0,1.3-1.1,2.3-2.4,2.3h-1.5V36.4z M58.8,47v-4.8h1.9l3,5.8h2.1l-1-1L62,41.9
		c1.4-0.4,2.4-1.7,2.4-2.9c0-2.1-2-3.5-4.1-3.5h-3.9l1,1V47l-1,1h3.4L58.8,47 M53.1,48v-2.3l-1.3,1.4H48v-5.3h2.8l1,1v-2.9l-1,1H48
		v-4.5h3.8l1.3,1.3v-2.3h-7.5l1,1V47l-1,1L53.1,48 M36.8,35.5h-3.5l1,1L37.8,48h0.6l3.6-11.5l1-1h-3l1,1l-2.7,8.7l-2.6-8.7
		L36.8,35.5 M27.1,35.5l1,1V47l-1,1h3.4l-1-1V36.5l1-1H27.1 M15.4,47v-9.4L22.2,48h0.4V36.6l1.1-1.1h-3.3l1.1,1.1v8l-5.7-9.1h-2.6
		l1.1,1.1V47L13.2,48h3.3L15.4,47 M1.3,44.7c0,2.1,1.7,3.6,3.9,3.6c2,0,4.1-1.5,4.1-3.6v-8.1l1.1-1.1H7.1l1.1,1.1v8.1
		c0,1.4-1.1,2.6-2.6,2.6c-1.5,0-2.8-1.1-2.8-2.6v-8.1l1.1-1.1H0.2l1.1,1.1L1.3,44.7"/>
	<path fill="currentColor" d="M109.9,0.3v4.2h2.6l4.6,18.6h6.5l3.1-11.7l3,11.7h6.5l4.9-18.6h2.5V0.3h-8.9v4.2h3l-3.2,12.1l-4-16.3h-4.1l-4.4,16.4
		l-3.2-12.2h3.2V0.3L109.9,0.3z"/>
</g>
</svg>
