<svg xmlns="http://www.w3.org/2000/svg" viewBox="0 0 340 160" enable-background="new 0 0 340 160"><path d="m127.25 55.71c-15.477 0-24.968 12.09-24.968 24.29 0 14.687 11.976 24.29 25.08 24.29 8.699 0 16.947-3.841 23.951-10.05v18.19c-7.344 4.406-17.399 7.118-25.19 7.118-22.37-.001-41.12-18.19-41.12-39.543 0-22.595 18.867-39.542 41.24-39.542 8.586 0 18.641 2.598 25.19 5.875v17.85c-8.246-5.423-16.606-8.473-24.17-8.473"/><path d="m198.87 119.54c-22.482 0-41.462-17.512-41.462-39.542 0-22.256 18.867-39.542 42.479-39.542 8.586 0 19.21 2.26 25.759 5.31v17.737c-7.456-4.293-17.06-7.795-25.42-7.795-15.477 0-25.532 12.09-25.532 24.29 0 14.348 11.863 24.742 25.759 24.742 2.937 0 5.761-.226 9.377-1.582v-14.234h-12.652v-15.03h28.922v39.994c-8.249 3.728-17.512 5.648-27.23 5.648"/><path d="m238.73 117.96v-75.92h16.268v75.92h-16.268"/></svg>
