<svg width="104" height="24" viewBox="0 0 104 24" fill="none" xmlns="http://www.w3.org/2000/svg">
<path d="M52.8611 2.09427H52.4178C51.9745 2.09427 51.6076 2.46115 51.6076 2.90446V21.1108C51.6076 21.5541 51.9745 21.921 52.4178 21.921H52.8611C53.3044 21.921 53.6713 21.5541 53.6713 21.1108V2.90446C53.6713 2.44586 53.3044 2.09427 52.8611 2.09427ZM39.0573 4.35669H38.614C38.1707 4.35669 37.8038 4.72357 37.8038 5.16688V18.8331C37.8038 19.2764 38.1707 19.6433 38.614 19.6433H39.0573C39.5006 19.6433 39.8675 19.2764 39.8675 18.8331V5.16688C39.8675 4.72357 39.5006 4.35669 39.0573 4.35669ZM45.9669 0H45.5236C45.0802 0 44.7134 0.366879 44.7134 0.810191V23.1898C44.7134 23.6331 45.0802 24 45.5236 24H45.9669C46.4102 24 46.7771 23.6331 46.7771 23.1898V0.810191C46.7771 0.366879 46.4102 0 45.9669 0ZM49.4064 3.98981H48.963C48.5197 3.98981 48.1529 4.35669 48.1529 4.8V19.2153C48.1529 19.6586 48.5197 20.0255 48.963 20.0255H49.4064C49.8497 20.0255 50.2166 19.6586 50.2166 19.2153V4.8C50.2166 4.3414 49.865 3.98981 49.4064 3.98981ZM42.5121 2.65987H42.0688C41.6255 2.65987 41.2586 3.02675 41.2586 3.47006V20.5452C41.2586 20.9885 41.6255 21.3554 42.0688 21.3554H42.5121C42.9554 21.3554 43.3223 20.9885 43.3223 20.5452V3.47006C43.3223 3.02675 42.9554 2.65987 42.5121 2.65987ZM56.3159 7.35287H55.8726C55.4293 7.35287 55.0624 7.71975 55.0624 8.16306V15.8522C55.0624 16.2955 55.4293 16.6624 55.8726 16.6624H56.3159C56.7592 16.6624 57.1261 16.2955 57.1261 15.8522V8.16306C57.1261 7.70446 56.7592 7.35287 56.3159 7.35287ZM35.6025 7.35287H35.1592C34.7159 7.35287 34.349 7.71975 34.349 8.16306V15.8522C34.349 16.2955 34.7159 16.6624 35.1592 16.6624H35.6025C36.0459 16.6624 36.4127 16.2955 36.4127 15.8522V8.16306C36.4127 7.70446 36.0459 7.35287 35.6025 7.35287ZM98.5834 10.1962C96.9936 9.55414 96.3516 9.00382 96.3516 8.28535C96.3516 7.78089 96.8866 7.36815 97.5286 7.36815C98.614 7.36815 99.9134 8.23949 100.341 8.52994C100.418 8.5758 100.479 8.62166 100.479 8.62166C100.586 8.69809 100.708 8.72866 100.861 8.69809C101.09 8.65223 101.335 8.49936 101.457 8.30064L102.558 6.64968C102.68 6.43567 102.726 5.9465 102.39 5.74777C101.549 5.13631 99.8369 4.1121 97.7121 4.1121C95.1745 4.1121 92.5911 5.62548 92.5911 8.52994C92.5911 11.1745 94.9146 12.642 96.856 13.4064C98.293 13.972 98.9503 14.614 98.9503 15.4089C98.9503 16.0662 98.4153 16.5248 97.6357 16.5248C97.0853 16.5248 96.1376 16.3414 94.7618 15.4242C94.7159 15.3936 94.6853 15.3783 94.6853 15.3783C94.5478 15.2866 94.3185 15.2408 94.1197 15.2866C93.9363 15.3172 93.7987 15.4242 93.707 15.5618L92.6981 17.335C92.4688 17.7325 92.5911 17.9006 92.8356 18.1299C93.1261 18.4051 94.6853 19.8268 97.7732 19.8268C101.045 19.8268 103.001 17.5032 103.001 15.2408C103.017 11.9541 99.6688 10.6242 98.5834 10.1962ZM88.6165 4.20382H85.9872C85.6662 4.20382 85.4064 4.46369 85.4064 4.76943V13.4064C85.4064 14.8433 84.321 15.9287 82.8993 15.9287C81.493 15.9287 80.4382 14.8433 80.4382 13.4064V4.76943C80.4382 4.44841 80.1783 4.20382 79.8573 4.20382H77.228C76.9223 4.20382 76.6471 4.46369 76.6471 4.76943V13.5898C76.6471 16.9529 79.4446 19.6892 82.8993 19.6892C86.3694 19.6892 89.1974 16.9529 89.1974 13.5898V4.76943C89.1822 4.47898 88.9223 4.20382 88.6165 4.20382ZM69.8751 9.15669C69.8751 8.36178 69.2025 7.70446 68.4076 7.70446H65.4115V10.7006H68.4076C69.2025 10.6854 69.8751 9.96688 69.8751 9.15669ZM70.4255 13.4522L73.2688 18.7108C73.3758 18.9096 73.3758 19.1236 73.2688 19.307C73.1618 19.4752 72.9783 19.5822 72.7643 19.5822H69.921C69.6764 19.5822 69.493 19.4293 69.4318 19.2917L66.6344 13.7274H65.4267V19.0013C65.4267 19.307 65.1516 19.5669 64.8458 19.5669H62.293C61.972 19.5669 61.7121 19.307 61.7121 19.0013V4.87643C61.7121 4.55541 61.972 4.31083 62.293 4.31083H68.6981C71.3579 4.31083 73.5286 6.45096 73.5286 9.08026C73.5286 10.9605 72.3516 12.6268 70.4255 13.4522ZM29.2127 4.31083H26.6599C26.3388 4.31083 26.079 4.5707 26.079 4.87643V10.0892H20.2853V4.87643C20.2853 4.55541 20.0255 4.31083 19.7045 4.31083H17.1516C16.8459 4.31083 16.5707 4.5707 16.5707 4.87643V19.0013C16.5707 19.307 16.8459 19.5669 17.1516 19.5669H19.7197C20.0408 19.5669 20.3006 19.307 20.3006 19.0013V13.5592H26.0943V19.0013C26.0943 19.3223 26.3541 19.5669 26.6752 19.5669H29.228C29.5338 19.5669 29.8089 19.307 29.8089 19.0013V4.87643C29.7936 4.5707 29.5185 4.31083 29.2127 4.31083ZM3.97452 11.8777C3.97452 14.2166 5.76306 16.051 8.02548 16.051C9.03439 16.051 10.0739 15.6841 10.7924 15.0726C11.0217 14.8739 11.4038 14.9045 11.5873 15.1185L13.2535 16.8917C13.4675 17.1057 13.4522 17.4726 13.2229 17.7019C11.786 19.093 9.95159 19.8268 7.90318 19.8268C3.5465 19.8268 0 16.3108 0 12C0 7.6586 3.5465 4.12739 7.90318 4.12739C10.028 4.12739 11.6484 4.75414 13.1924 6.16051C13.3146 6.26752 13.3911 6.42038 13.3911 6.57325C13.3911 6.72611 13.3299 6.87898 13.2229 7.00127L11.5567 8.6828C11.4497 8.78981 11.3121 8.85096 11.1745 8.85096C11.0369 8.85096 10.8994 8.78981 10.7924 8.6828C10.0586 8.02548 9.03439 7.64331 8.02548 7.64331C5.74777 7.6586 3.97452 9.50828 3.97452 11.8777Z" fill="white"/>
</svg>
