<svg xmlns="http://www.w3.org/2000/svg" viewBox="0 0 2500 1841" enable-background="new 0 0 2500 1841"><path d="m2482.6 1782.7c0 26.8-19.7 44.8-43 44.8v-.2c-24 .2-43.3-17.8-43.3-44.7 0-26.8 19.3-44.8 43.3-44.8 23.3.1 43 18 43 44.9m17.4 0c0-36.8-28.6-58.2-60.5-58.2-32.1 0-60.7 21.4-60.7 58.2 0 36.8 28.6 58.2 60.7 58.2 31.9 0 60.5-21.5 60.5-58.2m-70.5 4.9h6.5l15 26.3h16.5l-16.6-27.4c8.6-.6 15.6-4.7 15.6-16.3 0-14.4-9.9-19-26.7-19h-24.3v62.7h13.9l.1-26.3m0-10.6v-15.1h9.7c5.3 0 12.5.4 12.5 6.9 0 7-3.7 8.2-9.9 8.2h-12.3m-336.7-315l75.4 206.2h-153.1l77.7-206.2zm-80.7-80.3l-173.7 440.2h122.6l27.5-77.8h205.6l26 77.8h133.2l-175-440.2h-166.2m-348.8 440.3h124.5v-440.5h-124.5v440.5m-864-440.5l-103.8 349.1-99.5-349.1h-134.3l142.1 440.5h179.3l143.2-440.5h-127m503.1 95.9h53.5c77.6 0 127.8 34.8 127.8 125.3 0 90.4-50.2 125.3-127.8 125.3h-53.5v-250.6m-123.4-95.9v440.5h201.8c107.5 0 142.6-17.9 180.6-58 26.8-28.1 44.2-89.9 44.2-157.4 0-61.9-14.7-117.1-40.3-151.5-46.1-61.5-112.5-73.6-211.6-73.6h-174.7m-1179-.6v441.1h125.5v-334.9h97.3c32.2 0 55.2 8 70.7 24.6 19.7 20.9 27.7 54.8 27.7 116.6v193.7h121.6v-243.7c0-173.9-110.9-197.4-219.3-197.4h-223.5m978.7.6v440.5h124.4v-440.5h-124.4"/><path d="m334.5 504.4c0 0 160.1-236.2 479.7-260.6v-85.7c-354 28.4-660.6 328.3-660.6 328.3s173.6 501.9 660.6 547.9v-91.1c-357.4-44.9-479.7-438.8-479.7-438.8m479.7 257.7v83.4c-270.1-48.2-345-328.9-345-328.9s129.7-143.7 345-166.9v91.5c-.2 0-.3 0-.4 0-113-13.6-201.3 92-201.3 92s49.4 177.7 201.7 228.9m0-762v158c10.4-.8 20.8-1.5 31.2-1.8 402.5-13.6 664.7 330.1 664.7 330.1s-301.2 366.2-615 366.2c-28.8 0-55.7-2.7-81-7.1v97.7c22.4 2.9 44.9 4.3 67.4 4.4 292 0 503.2-149.1 707.6-325.6 33.9 27.2 172.7 93.2 201.2 122.1-194.4 162.8-647.5 294-904.4 294-24.8 0-48.5-1.5-71.9-3.8v137.3h1109.9v-1171.5h-1109.7zm0 349.6v-105.9c10.3-.7 20.6-1.3 31.2-1.6 289.4-9.1 479.3 248.7 479.3 248.7s-205.1 284.8-425 284.8c-31.6 0-60-5.1-85.6-13.7v-320.8c112.7 13.6 135.3 63.4 203.1 176.3l150.7-127c0 0-110-144.2-295.4-144.2-20.1-.1-39.4 1.4-58.3 3.4"/></svg>