<svg xmlns="http://www.w3.org/2000/svg" viewBox="0 0 340 160" enable-background="new 0 0 340 160"><path d="m49.632 114.69l-11.516-29.12h-3.116l12.651 31.789c.401 1.062.591 1.424 1.077 1.77l.064.041c.247.134.511.203.788.203.565 0 1.099-.287 1.465-.788l.048-.067.031-.079c.048-.125.123-.283.236-.524.066-.14.144-.308.241-.514l12.623-31.831h-3.115l-11.477 29.12"/><path d="m76.7 85.72c-4.238.674-6.668 3.529-6.668 7.835v17.813c0 4.066 2.374 6.894 6.329 7.563.476.096 1.014.147 1.555.147h14.155v-2.881h-13.973c-3.246 0-5.184-1.889-5.184-5.05v-7.196h19.14l.079-2.883h-19.265v-7.512c0-2.889 1.374-4.529 4.202-5.01.349-.044.713-.083 1.027-.083h14.06v-2.881h-13.933c-.542-.001-1.079.049-1.53.139"/><path d="m122.67 113.69l-17.705-26.682c-.061-.117-.13-.213-.187-.292-.044-.063-.082-.117-.107-.162l-.064-.101c-.461-.603-.68-.846-1.134-1.045-.203-.092-.419-.14-.642-.14-.832 0-1.538.662-1.641 1.541l-.004 32.27h2.882v-28.2l17.871 26.908.236.334.448.582c.207.271.479.473.805.605l.035.013c.163.053.33.082.498.082.756 0 1.373-.55 1.536-1.37.054-.286.054-.632.054-1.554v-30.892h-2.881v28.11"/><path d="m137.75 87.25c-1.716 1.463-2.549 3.394-2.549 5.9v17.903c0 2.882.649 4.551 2.406 6.161 1.722 1.531 2.83 1.862 6.242 1.862h13.481v-2.881h-13.481c-1.949 0-2.542-.14-3.202-.471-1.796-.915-2.563-2.339-2.563-4.759v-17.903c0-1.5.487-2.628 1.522-3.544.982-.832 1.554-1.058 3.706-1.058h14.11v-2.882h-14.15c-2.531 0-3.97.434-5.518 1.672"/><path d="m180.24 85.58h-5.776c-3.217 0-5.114.641-6.754 2.282-1.555 1.506-2.25 3.43-2.25 6.233v16.605h.003c-.019.143-.019.289-.019.414 0 .789.133 2.823 1.37 4.626 1.517 2.215 4.09 3.338 7.649 3.338h5.776c5.807 0 9.01-2.976 9.01-8.379v-16.605c0-2.803-.695-4.726-2.244-6.227-1.647-1.647-3.542-2.287-6.761-2.287m.089 30.617h-5.909c-4.26 0-6.078-1.685-6.078-5.633v-16.338c0-4.04 1.818-5.764 6.078-5.764h5.909c4.227 0 6.03 1.723 6.03 5.764v16.338c0 3.897-1.86 5.633-6.03 5.633"/><path d="m215.42 105.33c4.737 0 7.798-2.956 7.798-7.531v-4.34c0-5.01-3.103-7.884-8.513-7.884h-15.81v33.499h2.883v-13.296l17.594 13.296h4.892l-18.308-13.742h9.464zm4.916-12v4.654c0 .158-.037.388-.073.608l-.009.052c-.416 2.669-1.875 3.805-4.876 3.805h-12.489c-.467 0-.832.076-1.11.193v-14.183h12.927c2.567 0 5.63.843 5.63 4.871"/><path d="m238.93 88.54c.347-.042.709-.083 1.026-.083h14.06v-2.882h-13.931c-.543 0-1.08.05-1.529.14-4.24.674-6.671 3.531-6.671 7.835v17.814c0 4.065 2.374 6.894 6.331 7.562.474.096 1.013.147 1.555.147h14.157v-2.882h-13.976c-3.246 0-5.185-1.889-5.185-5.05v-7.196h19.14l.079-2.883h-19.265v-7.511c0-2.888 1.373-4.528 4.204-5.01"/><path d="m304.64 42.18c-.496-.926-1.469-1.57-2.833-1.57h-18.983l-1.773 11.328-4.146 24.969.003.003-4.552 26.07c.727-.182 1.652-.821 2.202-1.835l9.647-17.884 20.249-37.547c.685-1.26.694-2.564.186-3.536"/><path d="m276.91 76.905l-18.1-15.756-20.878-18.18c-.174.826-.022 1.777.498 2.701l1.609 2.857 9.301 16.542 20.311 36.12c.753 1.329 1.748 1.907 2.712 1.773v.017c.041-.009.083-.028.127-.041.034-.004.069-.012.104-.02v-.012c.684-.248 1.478-.854 1.971-1.764l9.647-17.883-7.298-6.355"/><path d="m301.81 40.607h-18.983-41.78c-1.736 0-2.849 1.014-3.118 2.365-.172.824-.022 1.777.498 2.701l1.609 2.855 9.301 16.544 9.47-3.922 22.247-9.215 23.589-9.758c-.496-.927-1.469-1.57-2.833-1.57"/></svg>
