<svg xmlns="http://www.w3.org/2000/svg" viewBox="0 0 375 375" version="1.2"><path d="M93.195 113.074h23.137v99.352H93.195v-10.36c-10.187 11.82-22.558 13.422-29.691 13.422-30.563 0-48.027-25.531-48.027-52.812 0-32.387 22.12-52.227 48.32-52.227 7.273 0 20.082 1.895 29.398 14.153zM39.2 163.262c0 17.07 10.77 31.656 27.508 31.656 14.55 0 28.086-10.648 28.086-31.363 0-21.739-13.387-32.098-28.086-32.098-16.738-.144-27.508 14.152-27.508 31.805zm104.64-50.188h23.141v8.899c2.622-3.063 6.403-6.418 9.606-8.313 4.512-2.629 8.879-3.355 14.117-3.355 5.676 0 11.79.875 18.192 4.668l-9.458 21.007c-5.242-3.355-9.46-3.503-11.789-3.503-4.949 0-9.898.73-14.41 5.398-6.402 6.86-6.402 16.34-6.402 22.906v51.645h-23.14zm79.903 0h23.137v9.192c7.715-9.485 16.883-11.817 24.453-11.817 10.332 0 20.082 4.961 25.613 14.59 8.297-11.82 20.668-14.59 29.399-14.59 12.078 0 22.558 5.688 28.234 15.61 1.89 3.355 5.238 10.648 5.238 25.093v61.418h-23.14v-54.562c0-11.086-1.164-15.61-2.184-17.653-1.453-3.792-4.945-8.753-13.242-8.753-5.676 0-10.625 3.066-13.68 7.296-4.074 5.688-4.511 14.149-4.511 22.614v51.207h-23.141v-54.711c0-11.086-1.164-15.61-2.184-17.653-1.457-3.792-4.949-8.753-13.242-8.753-5.676 0-10.625 3.066-13.683 7.296-4.075 5.688-4.512 14.149-4.512 22.614v51.207h-22.555zm0 0" fill="#444"/></svg>