<svg width="130" height="30" viewBox="0 0 130 30" fill="none" xmlns="http://www.w3.org/2000/svg">
<path d="M114.254 15.9925C114.254 16.7559 114.282 16.7762 114.967 16.7762H117.256C117.354 16.7762 117.436 16.8583 117.436 16.9581V17.5396C117.436 17.6682 117.39 17.7139 117.256 17.7312C116.966 17.7774 116.378 17.8586 115.303 17.8586C113.8 17.8586 113.005 17.8691 113.005 15.9925V13.1116C113.005 11.2354 113.8 11.2462 115.303 11.2462C116.378 11.2462 116.966 11.3284 117.256 11.3729C117.39 11.3902 117.436 11.4368 117.436 11.5649V12.1464C117.436 12.2459 117.354 12.3292 117.256 12.3292H114.967C114.282 12.3292 114.254 12.3498 114.254 13.1116V13.9465H117.147C117.247 13.9465 117.326 14.0294 117.326 14.1281V14.7856C117.326 14.8846 117.247 14.9668 117.147 14.9668H114.254V15.9925ZM127.622 17.863C126.823 17.863 126.014 17.7244 125.579 17.6237C125.49 17.6055 125.407 17.5429 125.407 17.4425V16.7868C125.407 16.6872 125.49 16.6132 125.579 16.6132H125.597C125.959 16.659 126.805 16.7778 127.641 16.7778C128.444 16.7778 128.691 16.4879 128.691 15.9599C128.691 15.2768 127.072 14.8992 126.282 14.5709C125.496 14.2437 125.217 13.6157 125.217 12.9793C125.217 11.977 126.018 11.2491 127.699 11.2491C128.56 11.2491 129.349 11.4141 129.657 11.4881C129.748 11.5059 129.819 11.5698 129.819 11.6603V12.3344C129.819 12.4246 129.757 12.4981 129.665 12.4981H129.648C129.051 12.444 128.432 12.3328 127.646 12.3328C126.976 12.3328 126.475 12.5697 126.475 12.9793C126.475 13.279 126.815 13.5543 127.216 13.7149C127.618 13.8742 128.143 14.0808 128.745 14.3242C129.506 14.6348 130 15.0864 130 15.9598C130 16.8788 129.431 17.863 127.622 17.863ZM122.816 13.3037C122.816 12.6206 122.29 12.3292 121.384 12.3292C121.196 12.3292 120.373 12.3473 120.21 12.3655V14.3401C120.357 14.3493 121.233 14.3675 121.384 14.3675C122.318 14.3675 122.816 14.1867 122.816 13.3861V13.3037ZM124.173 17.7866H123.069C122.969 17.7866 122.934 17.6941 122.889 17.6043L121.586 15.3962H121.384C121.151 15.3962 120.419 15.3703 120.21 15.3597V17.6043C120.21 17.7038 120.139 17.7866 120.04 17.7866H119.137C119.037 17.7866 118.956 17.7038 118.956 17.6043V11.6369C118.956 11.4541 119.063 11.3902 119.244 11.364C119.714 11.2912 120.726 11.2463 121.384 11.2463C122.778 11.2463 124.063 11.7473 124.063 13.3037V13.3861C124.063 14.3497 123.583 14.8777 122.842 15.1677L124.263 17.6043C124.28 17.6318 124.28 17.6576 124.28 17.6779C124.28 17.7402 124.244 17.7866 124.173 17.7866H124.173ZM111.896 12.374H110.093V17.6043C110.093 17.7038 110.01 17.7866 109.91 17.7866H109.016C108.916 17.7866 108.835 17.7038 108.835 17.6043V12.374H107.03C106.932 12.374 106.85 12.3114 106.85 12.2107V11.4914C106.85 11.3902 106.932 11.3182 107.03 11.3182H111.896C111.994 11.3182 112.076 11.3902 112.076 11.4914V12.2107C112.076 12.3114 111.994 12.374 111.896 12.374ZM103.243 17.8586C101.788 17.8586 100.536 17.2213 100.536 15.2809V11.4914C100.536 11.3902 100.618 11.3182 100.717 11.3182H101.611C101.711 11.3182 101.792 11.3902 101.792 11.4914V15.2809C101.792 16.3197 102.268 16.8118 103.243 16.8118C104.22 16.8118 104.696 16.3197 104.696 15.2809V11.4914C104.696 11.3902 104.776 11.3182 104.876 11.3182H105.771C105.871 11.3182 105.952 11.3902 105.952 11.4914V15.2809C105.952 17.2214 104.699 17.8586 103.243 17.8586ZM96.0015 15.9925C96.0015 16.7559 96.0304 16.7762 96.7141 16.7762H99.0029C99.051 16.7765 99.097 16.7958 99.1309 16.8298C99.1649 16.8639 99.1839 16.91 99.184 16.9581V17.5396C99.184 17.6682 99.1383 17.7139 99.0029 17.7312C98.7136 17.7774 98.1246 17.8586 97.0497 17.8586C95.5491 17.8586 94.7536 17.8691 94.7536 15.9925V13.1116C94.7536 11.2354 95.5491 11.2462 97.0497 11.2462C98.1246 11.2462 98.7136 11.3284 99.0029 11.3729C99.1383 11.3902 99.184 11.4368 99.184 11.5649V12.1464C99.184 12.2459 99.1025 12.3292 99.0029 12.3292H96.7141C96.0304 12.3292 96.0015 12.3498 96.0015 13.1116V13.9465H98.8946C98.9941 13.9465 99.0756 14.0294 99.0756 14.1281V14.7856C99.0754 14.8336 99.0562 14.8795 99.0223 14.9134C98.9884 14.9473 98.9425 14.9665 98.8946 14.9668H96.0015V15.9925ZM92.127 13.3037C92.127 12.6206 91.6007 12.3292 90.6967 12.3292C90.5065 12.3292 89.6839 12.3473 89.5222 12.3655V14.3401C89.6659 14.3493 90.5414 14.3675 90.6967 14.3675C91.6268 14.3675 92.127 14.1867 92.127 13.3861V13.3037ZM93.4834 17.7866H92.3795C92.2807 17.7866 92.2438 17.6941 92.1989 17.6043L90.8966 15.3962H90.6968C90.4607 15.3962 89.7301 15.3703 89.5222 15.3597V17.6043C89.5222 17.7038 89.4495 17.7866 89.3499 17.7866H88.4459C88.3472 17.7866 88.2657 17.7038 88.2657 17.6043V11.6369C88.2657 11.4541 88.3729 11.3902 88.5547 11.364C89.0252 11.2912 90.036 11.2463 90.6967 11.2463C92.0885 11.2463 93.3742 11.7473 93.3742 13.3037V13.3861C93.3742 14.3497 92.8953 14.8777 92.1543 15.1677L93.5725 17.6043C93.5914 17.6318 93.5914 17.6576 93.5914 17.6779C93.5914 17.7402 93.5553 17.7866 93.4834 17.7866ZM75.9195 14.0864C75.9195 12.8847 75.1982 12.3473 74.3122 12.3473C73.4264 12.3473 72.705 12.8847 72.705 14.0864V15.018C72.705 16.2202 73.4264 16.7567 74.3122 16.7567C75.1982 16.7567 75.9195 16.2202 75.9195 15.018V14.0864ZM74.3122 17.8586C72.8209 17.8586 71.4401 17.0212 71.4401 15.018V14.0864C71.4401 12.0837 72.821 11.2463 74.3122 11.2463C75.8036 11.2463 77.1841 12.0837 77.1841 14.0864V15.018C77.1841 17.0212 75.8036 17.8586 74.3122 17.8586ZM67.9224 17.863C67.1244 17.863 66.3135 17.7244 65.8792 17.6237C65.7888 17.6055 65.7074 17.5429 65.7074 17.4425V16.7868C65.7074 16.6872 65.7888 16.6132 65.8792 16.6132H65.8973C66.2584 16.659 67.1047 16.7778 67.9405 16.7778C68.7457 16.7778 68.9894 16.4879 68.9894 15.9599C68.9894 15.2768 67.3737 14.8992 66.5841 14.5709C65.7961 14.2437 65.5179 13.6157 65.5179 12.9793C65.5179 11.977 66.3191 11.2491 67.9999 11.2491C68.8618 11.2491 69.6505 11.4141 69.9568 11.4881C70.0479 11.5059 70.119 11.5698 70.119 11.6603V12.3344C70.119 12.4246 70.0563 12.4981 69.9664 12.4981H69.9484C69.3507 12.444 68.7321 12.3328 67.9449 12.3328C67.2777 12.3328 66.7743 12.5697 66.7743 12.9793C66.7743 13.279 67.1148 13.5551 67.5146 13.7149C67.9159 13.8742 68.4439 14.0808 69.0444 14.3242C69.8079 14.6348 70.3012 15.0864 70.3012 15.9598C70.3012 16.8788 69.732 17.863 67.9224 17.863ZM83.7473 17.7866H82.8328C82.6157 17.7866 82.4254 17.7866 82.2833 17.4591L79.831 13.3218C79.8049 13.2676 79.7768 13.2478 79.7504 13.2478C79.7243 13.2478 79.7046 13.2676 79.7046 13.3218V17.6043C79.7046 17.7038 79.632 17.7866 79.5323 17.7866H78.7657C78.6645 17.7866 78.5851 17.7038 78.5851 17.6043V11.6822C78.5851 11.4817 78.746 11.3182 78.945 11.3182H79.9217C80.1116 11.3182 80.2103 11.3728 80.3204 11.611L82.8698 15.9925C82.887 16.037 82.9139 16.0657 82.942 16.0657C82.9601 16.0657 82.9858 16.037 82.9858 15.9832V11.4914C82.9858 11.3902 83.0581 11.3182 83.1584 11.3182H83.936C84.0355 11.3182 84.1086 11.3902 84.1086 11.4914V17.4219C84.1086 17.6229 83.9456 17.7866 83.7474 17.7866H83.7473ZM63.8906 17.7866H62.9773C62.8966 17.7866 62.8339 17.6941 62.8339 17.6043V13.6671C62.8339 13.6037 62.8243 13.5766 62.8047 13.5766C62.7978 13.5766 62.7794 13.6036 62.7601 13.6308L61.3006 16.8865C61.2472 16.9857 61.1304 17.0418 61.0131 17.0418H60.5431C60.4254 17.0418 60.3079 16.9857 60.2549 16.8865L58.7856 13.6308C58.7668 13.6036 58.7479 13.5766 58.7403 13.5766C58.7222 13.5766 58.7126 13.6036 58.7126 13.6671V17.6043C58.7126 17.6941 58.6492 17.7866 58.5677 17.7866H57.6557C57.5738 17.7866 57.5007 17.7402 57.5007 17.65V11.6822C57.5007 11.4817 57.6641 11.3182 57.8627 11.3182H58.6042C58.7479 11.3182 58.8751 11.4089 58.9386 11.5366L60.6731 15.0937C60.7177 15.1754 60.7365 15.221 60.7743 15.221C60.8096 15.221 60.8276 15.1754 60.8735 15.0937L62.6068 11.5366C62.6702 11.4089 62.7978 11.3183 62.9415 11.3183H63.6834C63.8821 11.3183 64.0447 11.4817 64.0447 11.6822V17.65C64.0447 17.7402 63.972 17.7866 63.8906 17.7866ZM54.8352 14.0864C54.8352 12.8847 54.1147 12.3473 53.2283 12.3473C52.3428 12.3473 51.6214 12.8847 51.6214 14.0864V15.018C51.6214 16.2202 52.3428 16.7567 53.2283 16.7567C54.1147 16.7567 54.8352 16.2202 54.8352 15.018V14.0864ZM53.2283 17.8586C51.737 17.8586 50.3566 17.0212 50.3566 15.018V14.0864C50.3566 12.0837 51.7371 11.2463 53.2283 11.2463C54.7204 11.2463 56.1017 12.0837 56.1017 14.0864V15.018C56.1017 17.0212 54.7204 17.8586 53.2283 17.8586ZM48.7485 17.7866H47.8545C47.8062 17.7864 47.7599 17.7672 47.7257 17.733C47.6915 17.6989 47.6721 17.6526 47.6718 17.6043V14.9668H44.8085V17.6043C44.8085 17.7038 44.7275 17.7866 44.6296 17.7866H43.7339C43.6335 17.7866 43.5525 17.7038 43.5525 17.6043V11.4913C43.5525 11.3902 43.6335 11.3182 43.7339 11.3182H44.6295C44.7274 11.3182 44.8085 11.3902 44.8085 11.4914V13.856H47.6718V11.4914C47.6718 11.3902 47.7537 11.3182 47.8545 11.3182H48.7485C48.8468 11.3182 48.9287 11.3902 48.9287 11.4914V17.6043C48.9287 17.7038 48.8468 17.7866 48.7485 17.7866ZM42.2262 12.374H40.4226V17.6043C40.4225 17.6525 40.4034 17.6988 40.3693 17.7329C40.3352 17.7671 40.289 17.7864 40.2408 17.7866H39.3475C39.248 17.7866 39.167 17.7038 39.167 17.6043V12.374H37.3613C37.2622 12.374 37.1802 12.3114 37.1802 12.2107V11.4914C37.1802 11.3902 37.2621 11.3182 37.3613 11.3182H42.2262C42.3257 11.3182 42.4072 11.3902 42.4072 11.4914V12.2107C42.4072 12.3114 42.3257 12.374 42.2262 12.374Z" fill="#827F80"/>
<path d="M14.3217 9.63995C14.0632 9.78041 13.9709 10.1079 14.1074 10.3655C14.2446 10.6296 14.5713 10.7235 14.8297 10.5855C15.0882 10.4426 15.1829 10.1183 15.0449 9.85586C14.9501 9.67767 14.7655 9.57493 14.5753 9.57493C14.4866 9.57486 14.3994 9.59723 14.3217 9.63995ZM15.7528 9.66242C15.5216 9.78603 15.4397 10.0742 15.5609 10.3069C15.6829 10.5381 15.9695 10.6248 16.1982 10.498C16.4326 10.372 16.5145 10.0846 16.3925 9.85265C16.353 9.77716 16.2936 9.71392 16.2207 9.66978C16.1479 9.62563 16.0643 9.60227 15.9791 9.60222C15.8998 9.60271 15.8219 9.62343 15.7528 9.66242ZM12.9636 10.0461C12.6714 10.2058 12.5606 10.575 12.7212 10.868C12.8801 11.1626 13.2445 11.2774 13.5407 11.1168C13.8336 10.9571 13.9404 10.5879 13.7831 10.2949C13.7321 10.1976 13.6555 10.1162 13.5616 10.0593C13.4676 10.0024 13.3599 9.97233 13.2501 9.97224C13.1538 9.97224 13.0551 9.99632 12.9636 10.0461ZM17.1261 10.1135C16.9238 10.2267 16.846 10.4827 16.9544 10.6834C17.0627 10.8857 17.3196 10.9603 17.5146 10.8495C17.7201 10.7396 17.7939 10.4867 17.6832 10.2853C17.6101 10.144 17.4656 10.0645 17.3171 10.0645C17.2504 10.0646 17.1847 10.0814 17.1261 10.1135ZM11.8864 10.9643C11.6239 11.1088 11.5276 11.4291 11.6689 11.6947C11.8102 11.9532 12.128 12.0503 12.3873 11.9098C12.6506 11.7694 12.746 11.4419 12.6064 11.1842C12.5612 11.0986 12.4935 11.0268 12.4107 10.9766C12.3278 10.9264 12.2329 10.8997 12.136 10.8993C12.0486 10.8992 11.9626 10.9216 11.8864 10.9643ZM18.3076 10.9707C18.1318 11.0679 18.0684 11.2838 18.1599 11.4563C18.253 11.6289 18.4673 11.6923 18.6447 11.6032C18.8157 11.5053 18.8831 11.2894 18.7892 11.1152C18.7234 10.9956 18.6006 10.9266 18.4754 10.9266C18.4166 10.9268 18.3588 10.942 18.3076 10.9707ZM19.1809 12.1426C19.0428 12.2237 18.9858 12.4091 19.0653 12.5504C19.1424 12.6956 19.323 12.7478 19.4626 12.6707C19.6079 12.5929 19.6617 12.4147 19.583 12.2694C19.5577 12.2211 19.5196 12.1807 19.4729 12.1525C19.4262 12.1243 19.3727 12.1095 19.3181 12.1097C19.2704 12.1097 19.2234 12.121 19.1809 12.1426ZM11.1175 12.1803C10.8879 12.3063 10.8028 12.5969 10.9232 12.8273C11.0501 13.0568 11.3366 13.1459 11.5654 13.0191C11.7957 12.8963 11.884 12.6057 11.7596 12.373C11.7183 12.2979 11.6577 12.2352 11.584 12.1915C11.5103 12.1477 11.4263 12.1245 11.3406 12.1241C11.2628 12.1244 11.1862 12.1437 11.1175 12.1803ZM19.6256 13.4252C19.4498 13.5175 19.384 13.7383 19.4795 13.9116C19.5694 14.085 19.7893 14.1492 19.9554 14.0601C20.1304 13.9582 20.1971 13.7407 20.1055 13.5689C20.075 13.5125 20.0298 13.4653 19.9747 13.4324C19.9196 13.3995 19.8567 13.382 19.7925 13.3819C19.7341 13.382 19.6767 13.3969 19.6256 13.4252ZM10.7418 13.589C10.5428 13.6965 10.4689 13.9502 10.5757 14.1508C10.6865 14.3555 10.9361 14.4302 11.1384 14.321C11.3382 14.211 11.4145 13.9542 11.3061 13.7551C11.2712 13.6891 11.2191 13.6338 11.1551 13.5952C11.0912 13.5566 11.018 13.5361 10.9433 13.536C10.8728 13.5364 10.8034 13.5546 10.7418 13.589ZM19.6272 14.7849C19.4249 14.8973 19.3535 15.1477 19.4578 15.354C19.5646 15.5531 19.823 15.6261 20.0221 15.5194C20.2235 15.4094 20.2958 15.1557 20.1866 14.9543C20.1522 14.888 20.1002 14.8325 20.0364 14.7939C19.9725 14.7552 19.8993 14.7349 19.8246 14.7352C19.758 14.7352 19.6914 14.752 19.6272 14.7849ZM10.8012 15.0498C10.6311 15.1453 10.5669 15.3644 10.66 15.537C10.7547 15.7128 10.9706 15.7738 11.14 15.6775C11.3125 15.5892 11.3823 15.3668 11.2844 15.1943C11.2178 15.0763 11.0966 15.0073 10.9698 15.0073C10.9136 15.0073 10.8558 15.0209 10.8012 15.0498ZM19.1977 16.0844C18.9658 16.2072 18.8823 16.5026 19.0043 16.7338C19.1303 16.9633 19.4169 17.05 19.6424 16.9264C19.8784 16.798 19.9595 16.5114 19.8399 16.2779C19.7991 16.2024 19.7387 16.1393 19.6652 16.0952C19.5916 16.0512 19.5075 16.0277 19.4217 16.0274C19.3434 16.0272 19.2664 16.0468 19.1977 16.0844ZM11.2973 16.4352C11.1528 16.5114 11.1006 16.6928 11.1785 16.8421C11.2555 16.9842 11.4337 17.0396 11.5806 16.9633C11.7235 16.8814 11.7773 16.7009 11.6986 16.5564C11.6729 16.509 11.6348 16.4695 11.5885 16.4419C11.5421 16.4144 11.4892 16.3999 11.4353 16.3999C11.3871 16.3999 11.3396 16.412 11.2973 16.4352ZM18.3734 17.1961C18.1134 17.3382 18.0187 17.664 18.1583 17.9233C18.2948 18.1841 18.619 18.2813 18.8799 18.1376C19.1384 18.0027 19.2339 17.6713 19.0934 17.4128C18.9955 17.2346 18.8125 17.1303 18.6239 17.1303C18.5361 17.1303 18.4498 17.153 18.3734 17.1961ZM12.1208 17.5051C11.9474 17.5966 11.8832 17.8165 11.9763 17.9891C11.9979 18.0305 12.0275 18.0671 12.0635 18.0967C12.0995 18.1264 12.1411 18.1485 12.1858 18.1617C12.2305 18.175 12.2774 18.1791 12.3237 18.1739C12.3701 18.1686 12.4149 18.1541 12.4555 18.1312C12.6273 18.0413 12.6923 17.8238 12.6 17.6496C12.5374 17.5308 12.4146 17.4642 12.2877 17.4642C12.2296 17.4639 12.1722 17.4779 12.1208 17.5051ZM17.2216 17.9915C17.1514 18.0293 17.0895 18.0806 17.0393 18.1424C16.989 18.2043 16.9515 18.2755 16.929 18.3519C16.9065 18.4283 16.8993 18.5085 16.9079 18.5877C16.9165 18.6669 16.9408 18.7436 16.9792 18.8134C17.1381 19.108 17.5042 19.2164 17.7987 19.0606C18.0901 18.8985 18.1984 18.5277 18.0419 18.2395C17.9328 18.0341 17.7249 17.9161 17.5098 17.9161C17.4127 17.9161 17.3139 17.9401 17.2216 17.9915ZM13.2477 18.2556C13.0422 18.3672 12.9692 18.6168 13.0799 18.819C13.1843 19.0229 13.4371 19.1008 13.6378 18.9916C13.8401 18.8768 13.9155 18.6224 13.8072 18.4217C13.771 18.3565 13.7181 18.302 13.6539 18.2639C13.5897 18.2258 13.5166 18.2055 13.442 18.205C13.3739 18.2044 13.3069 18.2219 13.2477 18.2556ZM15.9326 18.5221C15.6725 18.6609 15.5818 18.9852 15.7239 19.2493C15.8587 19.5077 16.1806 19.6105 16.4406 19.4636C16.7015 19.3263 16.7946 18.9996 16.6566 18.7396C16.6108 18.6546 16.543 18.5835 16.4602 18.5339C16.3774 18.4844 16.2827 18.4581 16.1862 18.4578C16.0977 18.458 16.0105 18.48 15.9326 18.5221ZM14.5584 18.6055C14.3281 18.7308 14.2462 19.0221 14.3682 19.2517C14.4942 19.4844 14.7808 19.5711 15.0111 19.4467C15.2439 19.3247 15.3282 19.0325 15.2038 18.7982C15.1195 18.6392 14.955 18.551 14.7848 18.551C14.706 18.5505 14.6283 18.5692 14.5584 18.6055Z" fill="url(#paint0_linear)"/>
<path d="M14.5569 8.17511C14.5055 8.34785 14.5248 8.5339 14.6104 8.69248C14.696 8.85106 14.841 8.96923 15.0136 9.0211C15.3724 9.12785 15.7472 8.91836 15.8531 8.56118C15.9607 8.19999 15.7552 7.81873 15.398 7.71439C15.3351 7.69505 15.2696 7.68531 15.2038 7.68549C14.91 7.68549 14.6444 7.87893 14.5569 8.17511ZM16.3684 8.39503C16.2488 8.81241 16.4768 9.24424 16.895 9.36784C17.3067 9.49065 17.7378 9.25467 17.8574 8.84211C17.9826 8.42313 17.7466 7.98648 17.3324 7.86368C17.2614 7.84313 17.188 7.83259 17.1141 7.83238C16.777 7.83238 16.4664 8.05471 16.3684 8.39503ZM12.738 8.55396C12.6449 8.87582 12.8287 9.21133 13.1474 9.30604C13.2233 9.32871 13.303 9.33607 13.3818 9.32767C13.4606 9.31928 13.537 9.2953 13.6064 9.25714C13.6759 9.21897 13.7371 9.16738 13.7864 9.10537C13.8358 9.04335 13.8723 8.97214 13.8939 8.89589C13.9846 8.57643 13.8016 8.23932 13.4861 8.14461C13.4299 8.12856 13.3738 8.12053 13.3184 8.12053C13.1879 8.12094 13.0611 8.1633 12.9566 8.24135C12.8521 8.3194 12.7755 8.429 12.738 8.55396ZM18.2025 9.25547C18.0957 9.61586 18.3028 9.99391 18.6608 10.1007C19.0196 10.2074 19.3952 9.99712 19.5004 9.63754C19.6071 9.27715 19.4025 8.8983 19.0437 8.79154C18.982 8.7728 18.9179 8.76334 18.8534 8.76345C18.5597 8.76345 18.2908 8.9593 18.2025 9.25547ZM11.1745 9.52035C11.1006 9.77479 11.2419 10.0373 11.4948 10.1127C11.7452 10.1865 12.0085 10.0405 12.0831 9.78924C12.1561 9.5372 12.0117 9.27233 11.7604 9.19688C11.7173 9.18356 11.6723 9.17679 11.6272 9.17681C11.4217 9.17681 11.2339 9.31246 11.1745 9.52035ZM19.6713 10.6047C19.5758 10.9298 19.7604 11.2629 20.0775 11.3576C20.3977 11.4515 20.7292 11.2653 20.8247 10.945C20.9203 10.6272 20.7381 10.2901 20.417 10.197C20.3621 10.1805 20.305 10.1721 20.2476 10.1721C19.99 10.1721 19.7508 10.3431 19.6713 10.6047ZM9.93761 10.9523C9.87661 11.1545 9.99541 11.3705 10.1977 11.429C10.4007 11.4892 10.611 11.3729 10.6728 11.169C10.7354 10.9667 10.6158 10.7516 10.4144 10.689C10.3802 10.6794 10.3448 10.6746 10.3092 10.6746C10.2255 10.6742 10.144 10.7011 10.077 10.7512C10.0099 10.8013 9.961 10.8719 9.93761 10.9523ZM20.7156 12.3409C20.6377 12.5985 20.787 12.8618 21.0358 12.9356C21.2887 13.0103 21.5503 12.8658 21.6242 12.6122C21.698 12.3585 21.5551 12.0944 21.3047 12.0214C21.2607 12.0081 21.215 12.0013 21.1691 12.0013C20.9636 12.0013 20.7742 12.1362 20.7156 12.3409ZM9.2096 12.7301C9.16545 12.8842 9.24894 13.0464 9.40144 13.0905C9.55475 13.1355 9.71287 13.0464 9.75782 12.8939C9.80197 12.7414 9.71607 12.5816 9.56277 12.5351C9.53661 12.5279 9.50963 12.5241 9.4825 12.5239C9.42078 12.5239 9.36076 12.5441 9.31152 12.5813C9.26229 12.6185 9.22651 12.6708 9.2096 12.7301ZM21.1586 14.272C21.0976 14.4751 21.2132 14.6926 21.4187 14.7512C21.6226 14.8122 21.8345 14.6942 21.8947 14.4887C21.9533 14.2873 21.8393 14.0714 21.6346 14.0096C21.6001 13.9998 21.5645 13.9947 21.5287 13.9943C21.3609 13.9943 21.2052 14.1035 21.1586 14.272ZM8.86606 14.6236C8.80506 14.8267 8.92466 15.0402 9.12693 15.1012C9.3292 15.1622 9.54191 15.0474 9.60211 14.8411C9.63136 14.7432 9.62058 14.6377 9.57212 14.5477C9.52367 14.4577 9.44149 14.3906 9.34364 14.3611C9.30933 14.3506 9.27359 14.3454 9.23769 14.3459C9.07155 14.3459 8.91823 14.4566 8.86606 14.6236ZM21.0029 16.2217C20.9612 16.3734 21.0455 16.5363 21.1956 16.5788C21.3497 16.6238 21.507 16.5371 21.5503 16.383C21.5969 16.2313 21.5102 16.0692 21.3577 16.0242C21.3323 16.0172 21.3061 16.0137 21.2798 16.0138C21.2175 16.0142 21.157 16.0346 21.1071 16.072C21.0572 16.1095 21.0207 16.1619 21.0029 16.2217ZM9.13976 16.5034C9.06913 16.7554 9.20479 17.0219 9.46004 17.0958C9.70805 17.172 9.97292 17.0243 10.0468 16.7699C10.1198 16.5178 9.97534 16.253 9.72652 16.1831C9.68129 16.1692 9.63419 16.1621 9.58685 16.1623C9.48521 16.1622 9.38639 16.1955 9.30559 16.2572C9.2248 16.3188 9.16651 16.4053 9.13976 16.5034ZM20.0887 17.9433C20.0293 18.1488 20.1457 18.3639 20.3455 18.4217C20.5518 18.4827 20.7653 18.3647 20.8247 18.1617C20.8833 17.9594 20.7678 17.7419 20.5647 17.6809C20.5162 17.6669 20.4654 17.6625 20.4153 17.6681C20.3651 17.6737 20.3165 17.6892 20.2723 17.7135C20.2281 17.7379 20.1892 17.7707 20.1577 17.8102C20.1262 17.8496 20.1027 17.8949 20.0887 17.9433ZM9.936 18.1673C9.89026 18.3209 9.90734 18.4863 9.98349 18.6273C10.0596 18.7684 10.1886 18.8734 10.3421 18.9194C10.664 19.0149 10.9947 18.8303 11.091 18.5092C11.1849 18.189 10.9995 17.8502 10.6809 17.7547C10.6259 17.7382 10.5689 17.7298 10.5115 17.7298C10.2522 17.7298 10.0147 17.9024 9.936 18.1673ZM18.6785 19.3247C18.6062 19.5759 18.7523 19.8416 19.0011 19.9171C19.2507 19.9917 19.5132 19.8456 19.5863 19.596C19.6625 19.3408 19.5188 19.0759 19.2684 19.002C19.2247 18.9888 19.1793 18.9821 19.1336 18.982C18.9281 18.982 18.7395 19.1184 18.6785 19.3247ZM11.262 19.4788C11.1576 19.836 11.3591 20.2148 11.7195 20.3224C12.0791 20.4267 12.4531 20.2197 12.5607 19.8601C12.6634 19.5021 12.4595 19.12 12.0991 19.0149C12.0349 18.9956 11.9707 18.9868 11.9081 18.9868C11.6151 18.9868 11.3479 19.1794 11.262 19.4788ZM12.9026 20.275C12.7838 20.6948 13.015 21.1259 13.4299 21.2495C13.8417 21.3691 14.2767 21.1307 14.3939 20.7189C14.5151 20.3031 14.2815 19.8673 13.8666 19.7445C13.7954 19.7235 13.7216 19.713 13.6474 19.7132C13.3103 19.7132 13.0005 19.9331 12.9026 20.275ZM16.8669 20.2173C16.7738 20.5391 16.9592 20.8762 17.2754 20.9693C17.5965 21.064 17.9288 20.881 18.0227 20.5584C18.1166 20.2405 17.936 19.9026 17.6157 19.8087C17.5601 19.7916 17.5022 19.7829 17.444 19.783C17.3138 19.7834 17.1872 19.8259 17.0832 19.9042C16.9792 19.9824 16.9033 20.0923 16.8669 20.2173ZM14.906 20.5568C14.8017 20.9148 15.0079 21.2904 15.3659 21.3988C15.7255 21.5071 16.102 21.2992 16.2039 20.9404C16.3082 20.5784 16.1068 20.1996 15.748 20.0936C15.6854 20.0754 15.6206 20.0659 15.5553 20.0655C15.2624 20.0655 14.9935 20.2582 14.906 20.5568Z" fill="url(#paint1_linear)"/>
<path d="M15.8563 5.837C15.5658 6.14843 15.5794 6.64045 15.8909 6.93503C16.2007 7.2296 16.6895 7.21515 16.9792 6.90292C17.2714 6.58908 17.2554 6.09947 16.9463 5.80409C16.8043 5.66908 16.6158 5.59379 16.4198 5.5938C16.3143 5.59377 16.2098 5.61532 16.1129 5.65715C16.016 5.69897 15.9287 5.76018 15.8563 5.837ZM13.4147 6.02723C13.3042 6.14605 13.245 6.30369 13.2502 6.46587C13.2553 6.62805 13.3242 6.78166 13.442 6.89329C13.6836 7.12365 14.0688 7.1108 14.3 6.866C14.5272 6.62119 14.5167 6.2319 14.2735 6.00154C14.1611 5.8949 14.0119 5.83568 13.8569 5.8362C13.6956 5.8362 13.5343 5.90041 13.4147 6.02723ZM18.249 6.49196C17.9207 6.84272 17.9352 7.39414 18.2835 7.72724C18.6319 8.05873 19.1849 8.04108 19.5108 7.69192C19.8383 7.34036 19.8238 6.78573 19.4755 6.45665C19.3061 6.29612 19.0918 6.21665 18.8791 6.21665C18.6487 6.21665 18.42 6.30976 18.249 6.49196ZM11.0846 6.97676C10.8992 7.17582 10.908 7.48645 11.1046 7.67667C11.3045 7.86289 11.6143 7.85406 11.8005 7.655C11.9868 7.45675 11.9763 7.14371 11.7805 6.9567C11.6891 6.86976 11.5679 6.8212 11.4418 6.82105C11.3748 6.82128 11.3085 6.83522 11.2471 6.862C11.1857 6.88877 11.1304 6.92783 11.0846 6.97676ZM20.2733 7.85968C19.8937 8.2618 19.9089 8.8959 20.3126 9.27796C20.7132 9.66082 21.3457 9.63995 21.7213 9.24023C22.101 8.83088 22.0825 8.19599 21.682 7.81473C21.4893 7.63173 21.2437 7.54263 20.9997 7.54263C20.7332 7.54263 20.4692 7.64858 20.2733 7.85968ZM9.14942 8.64386C9.08215 8.71496 9.04586 8.80988 9.04857 8.90772C9.05128 9.00556 9.09274 9.09832 9.16384 9.16559C9.31314 9.30766 9.54431 9.29883 9.68076 9.15114C9.82042 9.00265 9.814 8.76908 9.66711 8.62862C9.59816 8.56461 9.50755 8.52906 9.41347 8.52909C9.31715 8.52909 9.22085 8.56761 9.14942 8.64386ZM21.9356 9.99151C21.6065 10.3415 21.6218 10.8953 21.9725 11.2268C22.3217 11.5591 22.8707 11.5382 23.1974 11.1891C23.5272 10.8375 23.512 10.2877 23.1596 9.95298C22.9943 9.79486 22.7824 9.7162 22.5689 9.7162C22.3377 9.7162 22.1066 9.80851 21.9356 9.99151ZM7.61314 10.689C7.42532 10.8881 7.43575 11.1995 7.63561 11.3889C7.83065 11.5751 8.14129 11.5671 8.32911 11.3705C8.51291 11.1706 8.50568 10.8584 8.30743 10.6706C8.21707 10.5836 8.09654 10.5349 7.97111 10.5349C7.9041 10.5349 7.8378 10.5486 7.77626 10.5751C7.71471 10.6016 7.65922 10.6404 7.61314 10.689ZM22.8691 12.4886C22.5753 12.8008 22.5906 13.2928 22.902 13.5858C23.211 13.8828 23.7006 13.8643 23.9912 13.5529C24.2858 13.2422 24.2697 12.7502 23.9591 12.4548C23.8158 12.3197 23.6263 12.2445 23.4293 12.2445C23.2247 12.2445 23.02 12.3256 22.8691 12.4886ZM6.81209 13.0905C6.58654 13.3386 6.59218 13.7214 6.83859 13.9534C7.08019 14.1862 7.46707 14.1733 7.69662 13.9301C7.92698 13.6853 7.91333 13.2944 7.67174 13.0641C7.55893 12.9568 7.40921 12.897 7.25356 12.8971C7.1706 12.8971 7.08851 12.9142 7.01253 12.9475C6.93654 12.9808 6.8683 13.0295 6.81209 13.0905ZM23.0625 15.183C22.8338 15.4287 22.8474 15.8155 23.0898 16.0459C23.1476 16.1012 23.2157 16.1445 23.2904 16.1732C23.365 16.2019 23.4447 16.2155 23.5246 16.2131C23.6046 16.2107 23.6832 16.1924 23.756 16.1593C23.8288 16.1262 23.8943 16.0789 23.9486 16.0202C24.1774 15.7754 24.1694 15.3893 23.9214 15.1566C23.8093 15.0499 23.6603 14.9906 23.5056 14.9912C23.4225 14.9911 23.3403 15.0081 23.2641 15.0411C23.1879 15.0741 23.1193 15.1224 23.0625 15.183ZM6.76795 15.5563C6.47739 15.8669 6.49183 16.3613 6.80165 16.6551C6.87501 16.7252 6.96157 16.78 7.05628 16.8163C7.15099 16.8527 7.25197 16.8699 7.35338 16.8669C7.45478 16.8639 7.55457 16.8408 7.64697 16.7989C7.73938 16.7571 7.82255 16.6973 7.89165 16.623C8.18382 16.3124 8.16938 15.8195 7.85875 15.5226C7.71726 15.3866 7.52846 15.3109 7.33221 15.3115C7.22642 15.3116 7.12178 15.3333 7.02473 15.3754C6.92768 15.4175 6.84028 15.4791 6.76795 15.5563ZM22.4316 17.7419C22.2454 17.9401 22.2543 18.2548 22.4517 18.4442C22.4989 18.4887 22.5545 18.5234 22.6152 18.5463C22.676 18.5692 22.7406 18.5798 22.8055 18.5776C22.8703 18.5753 22.9341 18.5603 22.9931 18.5333C23.0521 18.5062 23.1051 18.4678 23.1492 18.4201C23.3338 18.2219 23.3266 17.908 23.1283 17.7194C23.037 17.6331 22.9161 17.5852 22.7904 17.5854C22.7231 17.5856 22.6565 17.5996 22.5948 17.6265C22.5331 17.6534 22.4776 17.6927 22.4316 17.7419ZM7.56418 17.9233C7.2359 18.2716 7.24632 18.8255 7.59708 19.1586C7.94783 19.4877 8.49847 19.47 8.82434 19.1208C9.15182 18.7709 9.13657 18.2147 8.78902 17.8864C8.62127 17.7258 8.40857 17.648 8.19747 17.648C7.96631 17.648 7.73514 17.7419 7.56418 17.9233ZM9.03703 19.8729C8.66059 20.2815 8.67826 20.9108 9.08039 21.2952C9.48091 21.6757 10.1126 21.658 10.489 21.2527C10.8679 20.8481 10.8486 20.2141 10.4473 19.8312C10.2625 19.6557 10.0175 19.5574 9.76262 19.5567C9.49775 19.5567 9.23288 19.6634 9.03703 19.8729ZM21.0776 19.9612C20.9395 20.1105 20.9467 20.3441 21.0936 20.4837C21.2421 20.6218 21.4725 20.617 21.6105 20.4653C21.7502 20.3184 21.7446 20.084 21.5945 19.946C21.5277 19.881 21.4381 19.8447 21.3449 19.8448C21.2947 19.8447 21.245 19.855 21.199 19.875C21.153 19.895 21.1116 19.9244 21.0776 19.9612ZM11.2491 21.4228C10.9225 21.7688 10.9377 22.3226 11.2885 22.6549C11.6368 22.988 12.1866 22.9695 12.5125 22.6196C12.84 22.2656 12.8279 21.715 12.4756 21.3835C12.3094 21.2254 12.0951 21.1467 11.8824 21.1467H11.8792C11.6489 21.1467 11.4193 21.2398 11.2491 21.4228ZM18.9602 21.4558C18.7732 21.6548 18.782 21.9686 18.9794 22.1557C19.1793 22.3435 19.4907 22.3338 19.6753 22.1348C19.8616 21.9373 19.8527 21.6243 19.6545 21.4357C19.5637 21.3484 19.4425 21.2998 19.3166 21.3C19.2496 21.3 19.1834 21.3138 19.1221 21.3406C19.0608 21.3674 19.0056 21.4066 18.9602 21.4558ZM13.7791 22.2078C13.4869 22.5185 13.5014 23.0137 13.812 23.3043C14.1258 23.6012 14.6106 23.5868 14.902 23.2737C15.195 22.9631 15.1829 22.4695 14.8715 22.1765C14.7294 22.0399 14.5397 21.9639 14.3426 21.9646C14.237 21.9644 14.1325 21.9859 14.0356 22.0278C13.9387 22.0696 13.8513 22.1309 13.7791 22.2078ZM16.4607 22.2464C16.232 22.4888 16.244 22.8788 16.4872 23.11C16.732 23.342 17.1165 23.3275 17.346 23.0819C17.5756 22.8395 17.5668 22.451 17.3212 22.2191C17.2088 22.1122 17.0596 22.0527 16.9046 22.0529C16.8213 22.0529 16.7389 22.0701 16.6625 22.1034C16.5861 22.1367 16.5175 22.1854 16.4607 22.2464Z" fill="url(#paint2_linear)"/>
<path d="M16.5033 3.09276C16.1413 3.165 15.9069 3.51576 15.9792 3.88257C16.0514 4.24537 16.4037 4.48135 16.7649 4.4083C17.1261 4.33526 17.3597 3.9821 17.2874 3.6193C17.2232 3.29744 16.9463 3.07912 16.6357 3.07912C16.5912 3.07937 16.5469 3.08394 16.5033 3.09276ZM13.7389 3.27497C13.4556 3.31751 13.2574 3.58238 13.2991 3.87053C13.3416 4.15788 13.6065 4.35453 13.8906 4.31359C14.1756 4.27105 14.3738 4.00618 14.3313 3.71803C14.314 3.59367 14.2523 3.47978 14.1576 3.39732C14.0629 3.31487 13.9416 3.26942 13.816 3.26935C13.7902 3.26965 13.7645 3.27153 13.7389 3.27497ZM19.1673 3.65944C18.7354 3.7702 18.473 4.21166 18.5845 4.6491C18.6945 5.08414 19.136 5.34901 19.5678 5.23584C19.9988 5.12507 20.2605 4.68121 20.1497 4.24697C20.0558 3.87696 19.7275 3.63375 19.3679 3.63375C19.3002 3.63364 19.2328 3.64227 19.1673 3.65944ZM10.9112 4.12016C10.6656 4.22691 10.5508 4.51345 10.6576 4.76308C10.7627 5.01029 11.0501 5.12347 11.2957 5.01752C11.5413 4.90996 11.6561 4.62262 11.5501 4.3754C11.513 4.28794 11.4509 4.21333 11.3717 4.16081C11.2925 4.1083 11.1997 4.08021 11.1046 4.08002C11.0381 4.07994 10.9722 4.0936 10.9112 4.12016ZM21.5279 4.86341C20.9989 5.02956 20.6995 5.59783 20.8665 6.134C21.0318 6.66857 21.5985 6.96715 22.1274 6.8002C22.6596 6.63245 22.955 6.06337 22.7896 5.52961C22.654 5.09457 22.2575 4.81686 21.8304 4.81686C21.7293 4.81686 21.6282 4.83211 21.5279 4.86341ZM8.35879 5.61228C8.2505 5.69916 8.18079 5.82518 8.16471 5.96308C8.14864 6.10098 8.1875 6.23966 8.27291 6.34911C8.4519 6.57706 8.78017 6.61479 9.00491 6.4358C9.23126 6.2552 9.27059 5.92612 9.0916 5.69736C9.04324 5.63536 8.98139 5.58521 8.91073 5.55072C8.84007 5.51622 8.76248 5.4983 8.68386 5.4983C8.56578 5.49874 8.45128 5.53889 8.35879 5.61228ZM23.4679 6.75926C22.8924 6.97357 22.5962 7.61409 22.8113 8.19601C23.024 8.77712 23.6637 9.0725 24.2368 8.85819C24.8123 8.64469 25.1077 7.99936 24.8942 7.41985C24.7272 6.96555 24.3034 6.68944 23.8539 6.68944C23.7255 6.68944 23.5947 6.71191 23.4679 6.75926ZM6.33129 7.51135C6.18615 7.6146 6.0879 7.77121 6.0581 7.94682C6.02831 8.12243 6.0694 8.30269 6.17237 8.44804C6.38588 8.74983 6.80166 8.82127 7.10105 8.60696C7.40204 8.39185 7.47347 7.97287 7.25997 7.67108C7.19914 7.58348 7.11802 7.51189 7.02354 7.46241C6.92907 7.41294 6.82403 7.38704 6.71738 7.38694C6.5788 7.38673 6.44368 7.43027 6.33129 7.51135ZM24.8171 9.13109C24.2031 9.39838 23.9198 10.1095 24.1846 10.73C24.4495 11.348 25.1598 11.6329 25.7731 11.3673C26.3855 11.1008 26.6696 10.3832 26.4039 9.76679C26.2073 9.30527 25.7626 9.03156 25.2963 9.03156C25.1357 9.03156 24.9728 9.06287 24.8171 9.13109ZM4.91142 9.85107C4.53578 10.0927 4.421 10.5919 4.66179 10.974C4.90018 11.3536 5.39943 11.4668 5.77587 11.2268C6.15472 10.9876 6.26547 10.4828 6.02628 10.1023C5.87217 9.85749 5.61212 9.72425 5.34483 9.72425C5.19634 9.72425 5.04627 9.76599 4.91142 9.85107ZM25.5732 11.9781C25.025 12.2518 24.7995 12.9236 25.0708 13.475C25.3453 14.0337 26.0098 14.256 26.5597 13.9823C27.1087 13.7094 27.335 13.04 27.0613 12.4846C26.8679 12.0905 26.4738 11.8625 26.0644 11.8625C25.8939 11.8624 25.7258 11.902 25.5732 11.9781ZM4.16014 12.4091C3.67454 12.6828 3.50196 13.3001 3.77567 13.7897C4.04776 14.2769 4.66099 14.4527 5.1466 14.1773C5.6322 13.9036 5.80475 13.284 5.53185 12.7952C5.34644 12.4637 5.00612 12.2783 4.65376 12.2783H4.64974C4.48359 12.2783 4.31505 12.3208 4.16014 12.4091ZM25.6109 14.9359C25.1277 15.2088 24.9536 15.8284 25.2257 16.3188C25.4994 16.8084 26.1142 16.9778 26.5966 16.7041C27.0822 16.4296 27.2556 15.8139 26.9818 15.3235C26.7972 14.992 26.4553 14.805 26.1038 14.805C25.9368 14.805 25.7675 14.8468 25.6109 14.9359ZM4.19786 15.1309C3.65126 15.403 3.4225 16.0724 3.6954 16.6294C3.9683 17.1833 4.6361 17.4096 5.18591 17.1351C5.73492 16.8614 5.95966 16.1896 5.68676 15.6358C5.49252 15.2401 5.10163 15.0121 4.69469 15.0121C4.52774 15.0121 4.35839 15.0506 4.19786 15.1309ZM4.98525 17.7467C4.37363 18.0116 4.0879 18.726 4.35357 19.3464C4.61684 19.9636 5.33119 20.2478 5.9428 19.9821C6.55362 19.7156 6.83617 18.9997 6.57129 18.3816C6.37384 17.9209 5.92997 17.6472 5.46363 17.6472C5.30391 17.6472 5.14177 17.6785 4.98525 17.7467ZM24.9833 17.8856C24.606 18.1256 24.4928 18.6296 24.7328 19.0077C24.7889 19.098 24.8623 19.1763 24.9489 19.238C25.0354 19.2996 25.1334 19.3435 25.237 19.367C25.3407 19.3906 25.4479 19.3933 25.5526 19.375C25.6573 19.3567 25.7574 19.3178 25.8469 19.2605C26.2233 19.0205 26.3381 18.5197 26.0981 18.1376C25.944 17.8936 25.6808 17.7596 25.4127 17.7596C25.2605 17.7598 25.1115 17.8035 24.9833 17.8856ZM6.52071 20.255C5.94602 20.4693 5.65065 21.1146 5.86415 21.6917C6.07846 22.2769 6.71818 22.5674 7.29046 22.3523C7.86757 22.1372 8.16214 21.4991 7.94783 20.9148C7.78169 20.4645 7.35788 20.1844 6.90599 20.1844C6.77837 20.1844 6.64753 20.2068 6.52071 20.255ZM23.6573 20.5062C23.3555 20.7205 23.2857 21.1395 23.4984 21.4421C23.5486 21.5142 23.6127 21.5755 23.6868 21.6227C23.761 21.6698 23.8437 21.7018 23.9303 21.7168C24.0168 21.7318 24.1055 21.7295 24.1912 21.7101C24.2769 21.6906 24.3578 21.6544 24.4294 21.6035C24.7288 21.3891 24.8003 20.971 24.586 20.6652C24.4567 20.4805 24.2504 20.3826 24.0417 20.3818C23.9037 20.382 23.7692 20.4255 23.6573 20.5062ZM8.63009 22.313C8.09874 22.4791 7.80336 23.0474 7.96951 23.5828C8.13566 24.1214 8.6983 24.4167 9.22965 24.2482C9.7602 24.0828 10.058 23.5154 9.89185 22.98C9.75781 22.545 9.35889 22.2664 8.92947 22.2664C8.83074 22.2664 8.72962 22.2817 8.63009 22.313ZM21.7518 22.6774C21.5279 22.858 21.4893 23.1879 21.6667 23.4142C21.7089 23.4684 21.7614 23.5137 21.8212 23.5474C21.881 23.5811 21.9469 23.6026 22.0151 23.6106C22.0833 23.6186 22.1525 23.613 22.2184 23.594C22.2844 23.575 22.346 23.5431 22.3995 23.5001C22.6251 23.3203 22.6636 22.992 22.4862 22.7633C22.4376 22.7012 22.3755 22.651 22.3045 22.6165C22.2336 22.582 22.1557 22.5641 22.0769 22.5642C21.9589 22.5644 21.8444 22.6042 21.7518 22.6774ZM11.1921 23.8774C10.7603 23.9889 10.5002 24.4304 10.6102 24.8654C10.7202 25.3045 11.16 25.5645 11.5919 25.4538C12.0245 25.3422 12.2862 24.9015 12.1754 24.4641C12.0831 24.0965 11.7532 23.8517 11.3936 23.8517C11.327 23.8517 11.2596 23.8605 11.1921 23.8774ZM19.4634 24.0965C19.2178 24.2024 19.1039 24.4898 19.2098 24.737C19.3174 24.9874 19.6023 25.0998 19.8479 24.9938C20.0943 24.8871 20.2091 24.5989 20.1031 24.3509C20.0655 24.2635 20.0032 24.189 19.9237 24.1367C19.8443 24.0843 19.7512 24.0564 19.6561 24.0563C19.5919 24.0563 19.526 24.0692 19.4634 24.0965ZM13.9934 24.7041C13.633 24.7771 13.3986 25.1327 13.4709 25.4947C13.5431 25.8607 13.8955 26.0959 14.2559 26.0228C14.6163 25.9498 14.8522 25.5958 14.7792 25.2298C14.715 24.912 14.4365 24.6912 14.1242 24.6912C14.0803 24.6912 14.0365 24.6955 13.9934 24.7041ZM16.8669 24.7988C16.5843 24.8421 16.3861 25.1086 16.4278 25.3952C16.4696 25.6833 16.736 25.88 17.0186 25.8382C17.3043 25.7957 17.5026 25.5308 17.46 25.2427C17.4231 24.981 17.1992 24.794 16.9415 24.794C16.9174 24.794 16.8926 24.7948 16.8669 24.7988Z" fill="url(#paint3_linear)"/>
<path d="M14.7575 0.624506C14.7575 0.971251 15.0368 1.25057 15.3788 1.25057C15.7223 1.25057 16.0016 0.971251 16.0016 0.624506C16.0016 0.276958 15.7223 4.3869e-05 15.3788 4.3869e-05C15.0368 4.3869e-05 14.7575 0.276958 14.7575 0.624506ZM11.6272 0.451138C11.2708 0.546652 11.0589 0.913464 11.1536 1.27305C11.2499 1.63344 11.6175 1.84453 11.9715 1.74902C12.3287 1.6527 12.5406 1.28509 12.4459 0.924696C12.3656 0.623703 12.0967 0.427059 11.803 0.427059C11.7452 0.427059 11.6858 0.435083 11.6272 0.451138ZM18.3141 0.925499C18.2185 1.28509 18.4304 1.6527 18.786 1.74902C19.1424 1.84534 19.51 1.63344 19.6055 1.27385C19.7002 0.914267 19.4875 0.547455 19.1304 0.451138C19.0739 0.435581 19.0156 0.427752 18.957 0.42786C18.8099 0.428009 18.6669 0.476936 18.5506 0.566986C18.4343 0.657034 18.3511 0.783117 18.3141 0.925499ZM8.28574 1.64788C7.82342 1.74661 7.52806 2.20011 7.62678 2.66805C7.72471 3.13198 8.1782 3.42816 8.63972 3.32944C9.10205 3.23071 9.39662 2.77401 9.2979 2.30847C9.21282 1.90313 8.85964 1.62782 8.46554 1.62782C8.40614 1.62782 8.34594 1.63424 8.28574 1.64788ZM21.4604 2.30847C21.3617 2.77401 21.6563 3.23071 22.1186 3.32944C22.5793 3.42816 23.0336 3.13198 23.1307 2.66805C23.2311 2.20011 22.9349 1.74661 22.4734 1.64869C22.4138 1.63528 22.353 1.62855 22.292 1.62862C21.8979 1.62862 21.5455 1.90313 21.4604 2.30847ZM5.43794 3.67538C4.87368 3.76528 4.48842 4.29502 4.57832 4.86731C4.66741 5.43559 5.19716 5.82487 5.76142 5.73498C6.32649 5.64508 6.71176 5.10971 6.62266 4.54063C6.5416 4.02533 6.10255 3.66254 5.6025 3.66254C5.54792 3.66254 5.49333 3.66655 5.43794 3.67538ZM24.1365 4.54144C24.0482 5.11051 24.4326 5.64588 24.9969 5.73578C25.5604 5.82568 26.0925 5.43639 26.1808 4.86811C26.2715 4.29583 25.8838 3.76608 25.322 3.67618C25.2674 3.66735 25.212 3.66334 25.1582 3.66334C24.6582 3.66334 24.2183 4.02533 24.1365 4.54144ZM26.0716 7.45505C25.9978 8.1678 26.5147 8.80752 27.2202 8.88297C27.9298 8.95841 28.5639 8.4383 28.6385 7.72555C28.714 7.00878 28.1995 6.37308 27.4915 6.29763C27.445 6.29282 27.4 6.29041 27.3543 6.29041C26.7041 6.29041 26.1423 6.78484 26.0716 7.45505ZM3.26679 6.29763C2.55644 6.37308 2.04436 7.00878 2.11901 7.72555C2.19285 8.4383 2.82613 8.95841 3.53648 8.88216C4.24441 8.80752 4.75971 8.1678 4.68507 7.45505C4.61524 6.78484 4.05499 6.29041 3.40484 6.29041C3.35909 6.29041 3.31334 6.29282 3.26679 6.29763ZM27.3214 10.8735C27.2804 11.6641 27.8832 12.3392 28.665 12.3809C29.4508 12.421 30.1218 11.8142 30.1628 11.0236C30.2037 10.229 29.5985 9.5596 28.8159 9.51866C28.7902 9.51706 28.7645 9.51626 28.7388 9.51626C27.9892 9.51626 27.3615 10.1054 27.3214 10.8735ZM1.94 9.51866C1.15902 9.5596 0.553023 10.229 0.594761 11.0236C0.635696 11.8142 1.30753 12.421 2.09172 12.3809C2.87591 12.3392 3.4787 11.6641 3.43776 10.8735C3.39763 10.1054 2.77075 9.51626 2.01706 9.51626C1.99137 9.51626 1.96568 9.51706 1.94 9.51866ZM27.6617 14.5545C27.6617 15.4165 28.3536 16.1156 29.2076 16.1156C30.064 16.1156 30.7575 15.4165 30.7575 14.5561C30.7575 13.69 30.064 12.9973 29.21 12.9973C28.3536 12.9973 27.6617 13.69 27.6617 14.5545ZM0 14.5561C0 15.4165 0.696699 16.1156 1.54992 16.1156C2.40153 16.1156 3.09503 15.4165 3.09503 14.5545C3.09503 13.69 2.40153 12.9973 1.54992 12.9973C0.696699 12.9973 0 13.69 0 14.5561ZM28.665 16.7313C27.8832 16.773 27.2804 17.4472 27.3214 18.237C27.3631 19.0325 28.0325 19.6328 28.8159 19.5927C29.5985 19.551 30.2029 18.8824 30.1619 18.0869C30.1226 17.3236 29.4925 16.7297 28.7405 16.7297C28.7156 16.7297 28.6907 16.7305 28.665 16.7313ZM0.595569 18.0869C0.554634 18.8824 1.15902 19.551 1.9408 19.5927C2.7274 19.6336 3.39601 19.0325 3.43855 18.237C3.47868 17.4472 2.87589 16.773 2.0925 16.7313C2.06682 16.7305 2.04194 16.7297 2.01706 16.7297C1.26578 16.7297 0.634899 17.3236 0.595569 18.0869ZM27.2202 20.2292C26.5139 20.3039 25.9978 20.9436 26.0716 21.6579C26.1471 22.3747 26.7844 22.8884 27.4907 22.8137C28.1995 22.7383 28.714 22.1034 28.6385 21.3858C28.5687 20.7188 28.0084 20.222 27.3567 20.222C27.3125 20.222 27.2668 20.2244 27.2202 20.2292ZM2.11901 21.3858C2.04436 22.1034 2.55725 22.7383 3.26679 22.8137C3.97472 22.8884 4.61042 22.3747 4.68507 21.6579C4.75971 20.9436 4.24441 20.3039 3.53648 20.2292C3.48992 20.2244 3.44417 20.222 3.39842 20.222C2.74667 20.222 2.18803 20.7188 2.11901 21.3858ZM24.9977 23.3772C24.4326 23.4679 24.0466 24.0017 24.1365 24.5699C24.2264 25.1414 24.7569 25.5259 25.3212 25.436C25.8838 25.3461 26.2707 24.8155 26.1808 24.2441C26.0997 23.7304 25.6583 23.3644 25.159 23.3644C25.1061 23.3644 25.0515 23.3692 24.9977 23.3772ZM4.57913 24.2441C4.48843 24.8155 4.87448 25.3469 5.43794 25.436C6.0022 25.5259 6.53277 25.1414 6.62347 24.5699C6.71176 24.0025 6.32649 23.4679 5.76142 23.378C5.70604 23.37 5.65226 23.3652 5.59848 23.3652C5.09923 23.3652 4.65859 23.7312 4.57913 24.2441ZM22.1186 25.7819C21.6563 25.8807 21.3609 26.339 21.4596 26.8021C21.5583 27.2701 22.011 27.5654 22.4734 27.4659C22.9349 27.368 23.2303 26.9121 23.1307 26.4441C23.0457 26.0412 22.6901 25.7627 22.2952 25.7627C22.2358 25.7623 22.1765 25.7688 22.1186 25.7819ZM7.62757 26.4449C7.52804 26.9121 7.82341 27.368 8.28494 27.4667C8.74646 27.5654 9.19998 27.2701 9.2979 26.8021C9.39662 26.339 9.10205 25.8807 8.63972 25.7819C8.58179 25.7688 8.52254 25.7623 8.46314 25.7627C8.06823 25.7627 7.71265 26.0412 7.62757 26.4449ZM18.7852 27.3632C18.4304 27.4595 18.2185 27.8271 18.3124 28.1875C18.4088 28.5463 18.7756 28.7574 19.1304 28.661C19.4883 28.5655 19.6994 28.1987 19.6047 27.8383C19.567 27.6957 19.4831 27.5695 19.3663 27.4794C19.2495 27.3892 19.1061 27.3402 18.9586 27.3399C18.9 27.3398 18.8417 27.3476 18.7852 27.3632ZM11.1536 27.8399C11.0589 28.1987 11.2716 28.5655 11.6272 28.661C11.9843 28.7574 12.3504 28.5463 12.4459 28.1867C12.5406 27.8271 12.3287 27.4595 11.9715 27.3632C11.9155 27.3479 11.8578 27.3401 11.7998 27.3399C11.506 27.3399 11.2339 27.5381 11.1536 27.8399ZM14.7575 28.4877C14.7575 28.82 15.0144 29.0897 15.337 29.1113H15.4213C15.7448 29.0897 16.0016 28.82 16.0016 28.4869C16.0016 28.1417 15.7223 27.8616 15.3788 27.8616C15.0368 27.8616 14.7575 28.1417 14.7575 28.4877Z" fill="url(#paint4_linear)"/>
<defs>
<linearGradient id="paint0_linear" x1="19.5825" y1="12.2694" x2="11.1494" y2="16.7888" gradientUnits="userSpaceOnUse">
<stop stop-color="#F79210"/>
<stop offset="0.5" stop-color="#F35C19"/>
<stop offset="1" stop-color="#F79210"/>
</linearGradient>
<linearGradient id="paint1_linear" x1="21.5507" y1="16.3817" x2="9.19507" y2="12.7792" gradientUnits="userSpaceOnUse">
<stop stop-color="#F79210"/>
<stop offset="0.5" stop-color="#F35C19"/>
<stop offset="1" stop-color="#F79210"/>
</linearGradient>
<linearGradient id="paint2_linear" x1="21.4297" y1="20.6472" x2="9.24312" y2="8.54903" gradientUnits="userSpaceOnUse">
<stop stop-color="#F79210"/>
<stop offset="0.5" stop-color="#F35C19"/>
<stop offset="1" stop-color="#F79210"/>
</linearGradient>
<linearGradient id="paint3_linear" x1="19.8484" y1="24.994" x2="10.8001" y2="4.16916" gradientUnits="userSpaceOnUse">
<stop stop-color="#F79210"/>
<stop offset="0.5" stop-color="#F35C19"/>
<stop offset="1" stop-color="#F79210"/>
</linearGradient>
<linearGradient id="paint4_linear" x1="15.3786" y1="29.1128" x2="15.3786" y2="-0.000373316" gradientUnits="userSpaceOnUse">
<stop stop-color="#F79210"/>
<stop offset="0.5" stop-color="#F35C19"/>
<stop offset="1" stop-color="#F79210"/>
</linearGradient>
</defs>
</svg>
