<svg enable-background="new 0 0 221 40" viewBox="0 0 221 40" xmlns="http://www.w3.org/2000/svg"><g clip-rule="evenodd" fill-rule="evenodd"><path d="m165.9 12.5h-5.2v-1.3c0-1 .8-1.8 1.8-1.8.3 0 .5.1.8.2l1.6-3.5c-.7-.3-1.5-.5-2.3-.5-3.1 0-5.6 2.5-5.6 5.6v1.3 3.1 11.4h3.8v-11.4h3.5z"/><path d="m174.1 23.9c-2.3 0-4.1-1.8-4.1-4.1s1.8-4.1 4.1-4.1 4.1 1.8 4.1 4.1-1.9 4.1-4.1 4.1zm4.1-10.6c-1.2-.8-2.6-1.2-4.1-1.2-4.2 0-7.7 3.4-7.7 7.7s3.4 7.7 7.7 7.7c1.5 0 2.9-.4 4.1-1.2v.7h3.8v-14.5h-3.8z"/><path d="m78.8 12.1c-2.1 0-4 1.2-5 3-1-1.8-2.8-3-5-3-1.7 0-3.2.8-4.3 2v-1.6h-3.8v14.5h3.8v-5.6-2.8-1 .8c.1-1.7 1.4-3 3.1-3s3.1 1.4 3.1 3.1v4.4 4.1h3.8v-5.5-2.7-.2c.1-1.7 1.4-3 3.1-3s3.1 1.4 3.1 3.1v4.4 3.9h3.8v-9.3c-.1-3.1-2.6-5.6-5.7-5.6"/><path d="m220.9 17.7c0-3.1-2.6-5.6-5.7-5.6-2.1 0-4 1.2-5 3-1-1.8-2.8-3-5-3-1.7 0-3.2.8-4.3 2v-1.6h-3.8v14.5h3.8v-5.6-2.8-1 .8c.1-1.7 1.4-3 3.1-3s3.1 1.4 3.1 3.1v4.4 4.1h3.8v-5.5-2.7-.2c.1-1.7 1.4-3 3.1-3s3.1 1.4 3.1 3.1v4.4 3.9h3.8v-9.3c0 .1 0 .1 0 0"/><path d="m119.2 17.5c0-.1 0-.3 0-.4s0-.2 0-.3 0-.2-.1-.3c0-.1-.1-.2-.1-.3s-.1-.2-.1-.3-.1-.2-.1-.3-.1-.2-.1-.3-.1-.2-.1-.2c-1-1.8-2.8-3-5-3-1.7 0-3.2.8-4.3 2v-1.6h-3.8v14.5h3.8v-5.6-2.8-1 .8c.1-1.7 1.4-3 3.1-3s3.1 1.4 3.1 3.1v4.4 4.1h3.8v-5.5-2.7-.2-.8c-.1-.1-.1-.2-.1-.3"/><path d="m95 23.9c-2.3 0-4.1-1.8-4.1-4.1s1.8-4.1 4.1-4.1 4.1 1.8 4.1 4.1-1.9 4.1-4.1 4.1m0-11.8c-4.2 0-7.7 3.4-7.7 7.7s3.4 7.7 7.7 7.7 7.7-3.4 7.7-7.7-3.5-7.7-7.7-7.7"/><path d="m125.8 18.5c.5-1.7 2.1-2.9 3.9-2.9s3.4 1.2 3.9 2.9zm3.9-6.4c-4.2 0-7.7 3.4-7.7 7.7s3.4 7.7 7.7 7.7c3.1 0 5.8-1.9 7-4.6l-3.6-.7c-.7 1.1-2 1.8-3.4 1.8-1.8 0-3.4-1.2-3.9-2.9h7.9 3.6c.1-.4.1-.8.1-1.3 0-.4 0-.9-.1-1.3-.6-3.6-3.8-6.4-7.6-6.4z"/><path d="m146.3 21.9-4.2-9.4h-4l6.2 14-2.3 5.2h4.1l.2-.6 2.1-4.6 6.2-14h-4z"/><path d="m192.5 12.5c-1.6 0-3.1.9-3.8 2.3v-2.3h-1-2.8v14.5h3.8v-7.2c.1-2 1.8-3.6 3.8-3.6h2.5v-3.8h-2.5z"/><path d="m45 6.4c-1 0-1.8.8-1.8 1.8 0 .2 0 .4.1.6l-5.7 5.5-.5.4-7.7 7.4c-.1-.1-.4-.1-.6-.1-.3 0-.6.1-.9.2l-8.2-6.4c0-.1.1-.3.1-.4 0-1-.8-1.8-1.8-1.8s-1.8.8-1.8 1.8c0 .2 0 .4.1.6l-13.8 13.3c-.2-.1-.4-.1-.7-.1-1 0-1.8.8-1.8 1.8s.8 1.8 1.8 1.8 1.8-.8 1.8-1.8c0-.2 0-.4-.1-.6l2.3-2.2 3.9-3.7 7.7-7.4c.2.1.4.1.7.1s.6-.1.9-.2l8.2 6.4c0 .1-.1.3-.1.4 0 1 .8 1.8 1.8 1.8s1.8-.8 1.8-1.8c0-.2 0-.4-.1-.6l13.7-13.4c.2.1.5.2.7.2 1 0 1.8-.8 1.8-1.8s-.8-1.8-1.8-1.8"/><path d="m37.9 18.8v.8c0 8-6.5 14.6-14.6 14.6-5.6 0-10.4-3.2-12.9-7.8l-3.7 3.6c3.5 5.5 9.6 9.2 16.6 9.2 10.8 0 19.6-8.8 19.6-19.6 0-1.7-.2-3.4-.7-5z"/><path d="m8.9 20.4c0-.3 0-.5 0-.8 0-8 6.5-14.6 14.6-14.6 5.6 0 10.4 3.2 12.9 7.8l3.6-3.6c-3.5-5.5-9.6-9.2-16.6-9.2-10.8 0-19.6 8.8-19.6 19.6 0 1.7.2 3.4.7 5z"/></g></svg>
