<svg enable-background="new 0 0 276 85" viewBox="0 0 276 85" xmlns="http://www.w3.org/2000/svg"><path clip-rule="evenodd" d="m50.4 39.4 3-10.5h13.8c7.3 0 11.7-3.3 13.7-10.4l1.1-3.9c2.6-9-1.6-14.6-10.8-14.6h-60.1l-11.1 39.4zm20.8-28.8-2.3 8.5h-12.7l2.4-8.5zm16 28.8 3.7-6.6h17.1v6.6h11.3v-39.4h-22.2l-23 39.4zm16.1-28.7h4.7v12.6h-11.8zm62.7 3.9-1 3.5c-1.5 5.2-4.2 8.4-8.5 9.7l3.5 11.6h-12l-3.3-10.9h-7.3l-3.1 10.9h-11.7l11.2-39.4h21.3c9.3 0 13.5 5.5 10.9 14.6zm-10.9-4h-12.6l-2.4 8.5h12.7zm20.9 28.8 11.1-39.4h-11.7l-11.1 39.4zm-84.8 21.4 13.2-15.8h15.2l-11.1 39.4h-11.8l6.4-22.5-10.9 12.9h-7.5l-4.1-12.2-6.2 21.8h-50.4l11.2-39.4h50.6zm43.9-15.8-23 39.4h13l3.7-6.6h17.2v6.6h11.3v-39.4zm-.9 23.3 7-12.6h4.7v12.6zm65.7-23.3-3.2 11.3h-11l-8 28.1h-11.7l8-28.1h-12.8l3.2-11.3zm12.4 11.3h17.7l3.2-11.3h-18.9c-7.3 0-11.7 3.3-13.7 10.4l-4.1 14.4c-2.6 9.2 1.6 14.6 10.8 14.6h14.7l3.2-11.3h-17.7zm47.1 2.8 4-14.1h11.7l-11.1 39.4h-11.7l4-14.1h-13.4l-4 14.1h-11.7l11.1-39.4h11.7l-4 14.1z" fill-rule="evenodd"/></svg>