<svg enable-background="new 0 0 501.5 75.9" viewBox="0 0 501.5 75.9" xmlns="http://www.w3.org/2000/svg"><path d="m143.7.1v15.2h15.8v-15.2zm-24.3 1.1v24.9c-3.4-5-7.5-6.9-13.6-6.9-15.9 0-20 16-20 29 0 12.7 4.3 27.7 19.6 27.7 7 0 11.5-3.8 14.5-9.6h.2v8.5h15v-73.6zm-94 18c-6 .2-8.9 5.9-10.5 11.3h-.2v-10.2h-14.7v54.5h15.8v-20.8c0-9.7 1.5-19.4 13.5-18.8v-15.8l-2.7-.2c-.4 0-.8-.1-1.2 0zm32.8 0c-11.5 0-24.4 3.9-26 17.1l14.9 1.4c0-5.4 4.4-7.9 9.4-7.9 2.4 0 5 .8 6.4 2.6 1.6 2 1.4 4.8 1.4 7.2v1.3c-6.7.6-15.4 1.1-21.6 3.4-7.2 2.7-12.2 8.2-12.2 16.2 0 10.3 7.5 15.5 17.2 15.5 8.2 0 12.9-3.1 17.4-9.6-.1 2.8.1 5.7.8 8.5h15.7c-.9-2.7-1.1-5.4-1.1-8.2v-25.5c0-6.6.5-12.6-5-17.1-4.4-3.6-11.7-4.9-17.3-4.9zm133.4 0c-16.6 0-25.9 12.3-25.9 28.2 0 15.8 9.1 28.5 25.9 28.5 16.1 0 26.3-12.3 26.3-27.9 0-16.1-9.2-28.8-26.3-28.8zm-47.9 1.1v54.5h15.8v-54.5zm48.1 9.3c3.7 0 6.2 1.4 7.5 4.9 1.5 4.1 1.7 9.2 1.7 13.5 0 6.6-.4 17.3-9.3 17.3-9 0-8.9-13.3-8.9-19.5-.1-6.2.5-16.2 9-16.2zm-80 .7c7.2 0 7.6 9 7.6 14.3v7.4c0 2.7-.1 5.6-1.4 8.1s-4 4.4-6.9 4.4c-7.8 0-8.7-10-8.7-15.9 0-6.5.3-18.3 9.4-18.3zm-47.4 18.4v2.1c0 3.9.1 7.1-2.1 10.5-1.8 2.8-4.7 4.5-7.9 4.5-4.4 0-7-2.9-7-7.2-.1-7.8 11-9.2 17-9.9z"/><path d="m242.6 0c-5.6.1-11.5 2.4-14.7 7.2-2.7 4.1-2.5 9.8-2.5 14.5h-6.3v12.2h6.3v40.9h15.8v-40.9h9.7v-12.2h-9.7v-1.2c0-4.6 0-8.3 5.7-7.9l5.4.3v-12.2l-7.3-.6c-.8-.1-1.6-.1-2.4-.1zm36.6 19.2c-6 .2-8.9 5.9-10.5 11.3h-.2v-10.2h-14.7v54.5h15.8v-20.8c0-9.7 1.5-19.4 13.5-18.8v-15.8l-2.7-.2c-.4 0-.8-.1-1.2 0zm32.8 0c-11.5 0-24.4 3.9-26 17.1l14.9 1.4c0-5.4 4.4-7.9 9.4-7.9 2.4 0 5 .8 6.4 2.6 1.6 2 1.4 4.8 1.4 7.2v1.3c-6.7.6-15.4 1.1-21.6 3.4-7.2 2.7-12.2 8.2-12.2 16.2 0 10.3 7.5 15.5 17.2 15.5 8.2 0 12.9-3.1 17.4-9.6-.1 2.8.1 5.7.8 8.5h15.7c-.9-2.7-1.1-5.4-1.1-8.2v-25.5c0-6.5.5-12.6-5-17.1-4.4-3.6-11.7-4.9-17.3-4.9zm60.6 0c-7.9 0-12.5 3.3-15.7 10.3h-.2v-9.2h-14.9v54.5h15.8v-29.3c0-3.4.2-6.6 1.8-9.7 1.3-2.5 3.9-4.1 6.7-4.1 7.9 0 7.2 8.2 7.2 13.7v29.3h15.7v-33.6c0-4.9 0-11.8-3-15.9-3.3-4.4-8.3-6-13.4-6zm103.3 0c-17 0-26.5 13-26.5 29.1 0 16.2 10.6 27.6 27 27.6 18.5 0 24.8-16.1 24.8-18.8l-14.6-1.1c0 5-4.8 8.6-9.7 8.6-6.9 0-10.5-5.3-10.5-11.7l.1-2.7h35c.1-7.4-1.1-15.1-5.6-21.4-4.5-6.2-12.3-9.6-20-9.6zm-54.1 0c-17.2 0-27.3 12.1-27.3 28.9 0 16.1 9.8 27.8 26.3 27.8 13.3 0 23.5-8.1 24.8-21.6l-15-.9c-.5 5-3.3 9.4-8.9 9.4-9 0-9.1-9.4-9.1-16.1 0-7 1.1-15.6 9.8-15.6 5.7 0 8.3 4.8 8.3 9.8l15-.9c-1.1-12.6-11.2-20.8-23.9-20.8zm54.8 10.3c6.9 0 8.8 5.5 9.1 11.4h-19.3c.5-6.2 3.2-11.4 10.2-11.4zm-158.4 19.2v2.1c0 3.9.1 7.1-2.1 10.5-1.8 2.8-4.7 4.5-7.9 4.5-4.4 0-7-2.9-7-7.2 0-7.8 11-9.2 17-9.9z"/></svg>