<svg viewBox="0 0 510.84 62.38" xmlns="http://www.w3.org/2000/svg"><g transform="translate(-165.46 -266.09)"><path d="m165.46 267.13h25.93c7.41 0 13.36 2.24 17.15 6a16.65 16.65 0 0 1 4.65 11.89v.17c0 10-6.89 15.86-16.37 17.58l18.53 24.64h-8.35l-17.5-23.41h-17.23v23.43h-6.81zm25.33 30.76c9.05 0 15.51-4.65 15.51-12.41v-.17c0-7.41-5.69-11.89-15.42-11.89h-18.61v24.47z"/><path d="m241.54 267.13h43.6v6.2h-36.8v20.6h32.92v6.2h-32.92v21.11h37.23v6.2h-44z"/><path d="m310.38 297.46v-.17c0-16.55 12.15-31.2 30.24-31.2 10.17 0 16.46 2.93 22.49 8l-4.4 5.17a25.65 25.65 0 0 0 -18.35-6.9c-13.35 0-22.92 11.29-22.92 24.73v.18c0 14.39 9.22 25.07 23.87 25.07a28.38 28.38 0 0 0 17.4-6v-15h-18.35v-6.12h24.9v24a36.52 36.52 0 0 1 -24.21 9.22c-18.96.04-30.67-13.75-30.67-30.98z"/><path d="m394.38 267.13h43.62v6.2h-36.81v20.6h32.91v6.2h-32.91v21.11h37.22v6.2h-44z"/><path d="m467.62 267.13h6.38l38 48.34v-48.34h6.64v60.31h-5.44l-39-49.46v49.46h-6.63z"/><path d="m626.06 302.2v-35.07h6.81v34.64c0 13 7 20.33 18.44 20.33 11.11 0 18.18-6.72 18.18-19.9v-35.07h6.81v34.55c0 17.58-10.09 26.71-25.16 26.71-14.91 0-25.08-9.13-25.08-26.19z" fill="#2b2b2c"/></g><path d="m410.49 27.62h-19.66v-19.66h-.33-6.15-.33v19.66h-19.66v6.81h19.66v19.66h.33 6.15.33v-19.66h19.66z" fill="#2b2b2c"/><path d="m425.63 1.03v26.59h-8.79v.21 6.38.22h8.79v26.92h6.8v-60.32z" fill="#2b2b2c"/></svg>
