<svg enable-background="new 0 0 527.2 155.9" viewBox="0 0 527.2 155.9" xmlns="http://www.w3.org/2000/svg"><g stroke="#000"><path d="m40.6 37.7s3.5-10.7 13.7-13.6c10.1-2.8 15-2.6 18.5-5.7s7.1-9 6.5-9.1c-.7-.1-2.1 1.7-2.4 2.1-.8 1.3-4.1 5.1-6.7 6.3-4.9 2.3-15.3 3.1-18.5 4.8-3.3 1.7-9.7 5-12.9 13.7-3.4 8.9 1.8 1.5 1.8 1.5z" stroke-width="1.0273"/><path d="m39.6 37.4s-1.6-10.6 4.2-17.2 9.2-8.8 10.5-12.4 1.5-6.8 1.2-7.2c-.5-.4-.8 1.4-.9 1.8-.1 1.2-1 4.5-2.4 6.5-3.9 5.4-8.5 8.1-10.8 11.6-1.6 2.6-4.7 7.7-3.8 14.7 1 7 2 2.2 2 2.2z" stroke-width="1.0273"/><path d="m65.9 15.4s2.1 10.5-3.9 13c-5.6 2.3-9.3-3.7-10-4-.6-.3 1.9-1 1.9-1s.9 1.5 3.1 2.8c6 3.4 9.3-4.2 8.1-10.3 0-.1.5-.9.8-.5z" stroke-width="1.0273"/><path d="m49.4 12.8c-3-3-2.3-7.9.1-9.8.1-.1 0-.9-.4-.9 0 0-5 4-1.8 9.6.4.7.9 1.4 1.3 1.9z" stroke-width="1.0273"/><path d="m41.6 22.7c-2.3-3-1.6-7.3.7-9.1.1-.1 0-.9-.4-.9 0 0-5 4-1.8 9.6.2.4.5.8.7 1.2z" stroke-width="1.0273"/><path d="m71.9 18.2c-1.9-5 .4-10.3 4.4-12.5.2-.1 1.2-1.2.7-1.4 0 0-9 3.8-7.1 12.8.1.7.3 1.3.5 1.9z" stroke-width="1.0273"/><path d="m51.4 19.7s5.3 8.7.5 13.8c-4.4 4.7-9.8.9-10.6.9-.6 0 1.4-1.7 1.4-1.7s1.3 1 3.8 1.1c6.6.4 7.3-8.2 4.3-13.2-.1-.1.2-1.1.6-.9z" stroke-width="1.0273"/><path d="m34.9 19.2s-5.7 8.4-1.6 12.7c3.8 4 9.2.1 9.8 0 .6 0-1.2-1.5-1.2-1.5s-1.3 1-3.6 1.3c-6.3.9-6.2-6.9-2.9-11.8.1-.1-.1-1-.5-.7z" stroke-width="1.0273"/><path d="m40.9 38.3s4.7-1.2 8.4-.5c3.7.8.7 2.9.7 2.9s-3.6 2-7.3 2.7c-3.7.6-1.7-4.2-1.7-4.2" stroke-width=".7453"/><path d="m27.9 22.4s-3.1 8.4 1.6 11.8c4.4 3.2 8.3-1 8.9-1.1.5-.1-1.4-1.2-1.4-1.2s-.9 1-2.9 1.6c-5.4 1.6-7.3-5.6-5.5-10.4-.1-.2-.4-1-.7-.7z" stroke-width="1.0273"/></g><path d="m182.3 22.8c-1.4 1.8-1.4 4.4-1.4 6.7v19c0 2.3 0 4.9 1.4 6.6l-7.4.3.3-3.3c0-.2-.1-.2-.3-.2-.1 0-.4.3-.8.6-2.4 1.7-6.2 3.5-12 3.5-7.2 0-12-2.4-12.2-8.6v-17.9c0-2.3 0-4.9-1.4-6.7h8.4c-1.4 1.8-1.4 4.4-1.4 6.7v14.8c.2 5.4 2.9 8.7 10 8.7 7.2 0 9.5-3.7 9.7-9.7.1-1.9.2-3.9.2-5.8v-7.9c0-2.3 0-4.9-1.4-6.7z"/><path d="m188.1 55.1c2.2-4.1 2.2-10.3 2.2-14.8v-10.7c0-2.5-.1-5.2-2-6.7h6.3c1.2 0 1.8 0 2.5.8 1.3 1.4 5.3 6.8 7.2 9.1l12.4 14.2c.4.5.9 1.2 1.3 1.2s.4-.5.4-1v-17.9c0-3.4-.6-5.2-1.5-6.5h6.5c-1.5 2.3-1.9 5-1.9 7.5v20.2c0 1.7.1 3.2.1 4.7h-4.4l-22.7-26.2c-.2-.3-.4-.6-.7-.6-.2 0-.4.3-.4.8v13c0 4-.1 9.2 1.9 13z"/><path d="m230.3 29.5c0-2.3 0-4.9-1.4-6.6h8.4c-1.4 1.7-1.4 4.4-1.4 6.6v19c0 2.3 0 4.9 1.4 6.6h-8.4c1.4-1.7 1.4-4.4 1.4-6.6z"/><path d="m252.7 55.3-.9-2.6c-2.9-8.1-7.3-20.5-11.7-28.2l-1-1.7h5.6c1.2 0 1.6 1.2 1.9 1.9 3.2 7.8 6.9 15.6 9.5 23.6.3 1 .6 1.5 1 1.5s.7-.8 1.1-1.6c1.8-4.5 9.4-18.9 9.4-23.6 0-.7-.1-1.3-.3-1.8h7.7l-1.1 1.6c-5.9 8.6-10.7 18.8-15 28.1l-1.2 2.7z"/><path d="m284.3 53.1h7.2c3.9 0 7.9-.8 10.8-2.9l-1.1 4.7c-1.7.1-3.7.3-6 .3h-18c1.4-1.7 1.6-4.4 1.6-6.6v-19c0-2.3 0-4.9-1.4-6.6h21.8l.2 3.9c-2.2-1.5-5.6-1.9-9.2-1.9h-5.8v12c4.8 0 9.9 0 14.7-.4-2.2 2.9-9.2 2.9-13.1 2.9h-1.6v13.6z"/><path d="m332.6 50.4c1.8 2 2.7 2.8 5.2 4.7h-5.1c-2.7 0-3.9-1.2-5.2-2.8l-7.6-8.8c-2.6-3-3.1-3.9-6.7-4.1v9.1c0 2.3 0 4.9 1.4 6.6h-8.7c1.8-2.3 1.7-4.8 1.7-6.9v-18.7c0-2.3 0-4.9-1.4-6.6 5.2 0 10.2-.5 15.1-.5 6.4 0 9.7 2.8 9.7 6.8 0 4.7-4.7 7.7-9.2 9.2zm-19.4-13c.9.1 1.9.2 2.8.2 6.1 0 9.4-2.6 9.4-7.4 0-5.1-3.6-5.7-9.1-5.8h-2.9c-.1.8-.1 1.6-.1 2.4z"/><path d="m338.1 48.8c1.9 2.1 4.6 5.1 11.1 5.1 4.7 0 8.3-2.3 8.3-6.3 0-8.5-17.9-7.4-17.9-16.8 0-5.9 5.9-8.8 12.5-8.8 3.2 0 6.4.3 9.6.3v4.7c-2.8-2.4-4.5-3-8.7-3-4.4 0-7.6 1.8-7.6 5.6 0 7.8 17.9 6.8 17.9 16.5 0 6.3-7.6 9.8-14.5 9.8-3.1 0-7.9-.8-10.7-1.8z"/><path d="m369.8 29.5c0-2.3 0-4.9-1.4-6.6h8.4c-1.4 1.7-1.4 4.4-1.4 6.6v19c0 2.3 0 4.9 1.4 6.6h-8.4c1.4-1.7 1.4-4.4 1.4-6.6z"/><path d="m391.5 55.1c1.4-1.7 1.4-4.4 1.4-6.6v-23.1h-8.3c-1.4 0-2.9.2-4.4 1.1l1.2-3.6h31.4c-1.1 2.2-4.9 2.5-7.4 2.5h-6.9v23.1c0 2.3 0 4.9 1.4 6.6z"/><path d="m423.5 55.1c1.4-1.7 1.4-4.4 1.4-6.6v-4.6c0-3.5-1.9-6.9-4.4-11.1-2.5-4.1-5.7-8.1-8.2-10h5.4c2.2 0 2.7.5 3.8 1.9 2.4 3.1 5.3 8.9 6.5 12.5.2.8.5 1.5 1 1.5.4 0 .8-.9 1.4-1.8l4.2-6.1c1.4-2 2.8-4.5 2.8-6 0-.8-.2-1.4-.9-2h7.9l-7.1 9c-4.4 5.4-6.7 7.9-6.7 14.6v2.1c0 2.3 0 4.9 1.4 6.6z"/><path d="m479.4 55.9c-13.1 0-18.9-7.3-18.9-16.3 0-9.6 6.9-17.6 19.9-17.6 13.1 0 18.9 7.3 18.9 16.3-.1 9.6-7 17.6-19.9 17.6zm.5-31.6c-9 0-12.9 6.7-12.9 14 0 6.7 2.8 15.5 12.9 15.5 9 0 12.9-6.7 12.9-14-.1-6.7-2.9-15.5-12.9-15.5z"/><path d="m511.3 48.5c0 2.3 0 4.9 1.4 6.6h-8.4c1.4-1.7 1.4-4.4 1.4-6.6v-19c0-2.3.1-4.9-1.2-6.6h19.4c1.6 0 2.9 0 2.9.5v3.9h-.3c-1.8-2.3-5.7-2.4-8.6-2.4h-6.4v13c4.8 0 9.9 0 14.7-.4-2.2 2.9-9.2 2.9-13.1 2.9h-1.6v8.1z"/><path d="m147.1 123.1c3.7 4.8 9.1 11.4 22.2 11.4 9.5 0 16.6-5.1 16.6-14.2 0-19-35.7-16.7-35.7-37.6 0-13.1 11.9-19.6 25.1-19.6 6.5 0 12.9.7 19.2.7v10.5c-5.6-5.3-9-6.7-17.4-6.7-8.7 0-15.2 4-15.2 12.5 0 17.4 35.7 15.3 35.7 36.9 0 14-15.1 22-29.1 22-6.1 0-15.7-1.8-21.5-4z"/><path d="m271.4 65c-2.8 4-2.8 9.9-2.8 15v42.6c0 5.1 0 11 2.8 14.7l-14.9.7.5-7.5c0-.3-.2-.5-.6-.5-.2 0-.8.7-1.5 1.2-4.9 3.7-11.5 7.8-23.1 7.8-14.5 0-24.1-5.3-24.5-19.3v-39.7c0-5.1 0-11-2.7-15h16.7c-2.7 4-2.7 9.9-2.7 15v33.1c.4 12.1 5.9 19.5 20 19.5 14.5 0 18-8.3 18.4-21.8.1-4.3.5-8.7.5-13v-17.8c0-5.1 0-11-2.7-15z"/><path d="m333.4 126.8c3.6 4.4 5.4 6.2 10.5 10.5h-10.2c-5.4 0-7.7-2.6-10.5-6.2l-15.2-19.7c-5.2-6.8-6.1-8.7-13.4-9.3v20.4c0 5.1 0 11 2.7 14.8h-17.3c3.6-5.2 3.4-10.6 3.4-15.5v-41.9c0-5.1 0-11-2.7-14.8 10.5 0 20.5-1.1 30.2-1.1 12.7 0 19.4 6.3 19.4 15.2 0 10.4-9.5 17.2-18.5 20.5zm-38.8-29.2c1.9.2 3.7.3 5.6.3 12.1 0 18.7-5.9 18.7-16.7 0-11.3-7.1-12.7-18.2-12.9h-5.9c-.1 1.7-.2 3.6-.2 5.4z"/><path d="m398 126.8c3.6 4.4 5.4 6.2 10.5 10.5h-10.2c-5.4 0-7.7-2.6-10.5-6.2l-15.2-19.7c-5.2-6.8-6.1-8.7-13.4-9.3v20.4c0 5.1 0 11 2.7 14.8h-17.4c3.6-5.2 3.4-10.6 3.4-15.5v-41.9c0-5.1 0-11-2.7-14.8 10.5 0 20.5-1.1 30.2-1.1 12.7 0 19.4 6.3 19.4 15.2 0 10.4-9.5 17.2-18.5 20.5zm-39.8-29.2c1.9.2 3.7.3 5.6.3 12.1 0 18.7-5.9 18.7-16.7 0-11.3-7.1-12.7-18.2-12.9h-5.9c-.1 1.7-.2 3.6-.2 5.4z"/><path d="m424 132.8h14.4c7.7 0 15.7-1.7 21.6-6.5l-2.2 10.4c-3.4.2-7.5.6-12 .6h-36.1c2.7-3.9 3.1-9.7 3.1-14.8v-42.6c0-5.1 0-11-2.7-14.8h43.6l.5 8.7c-4.4-3.4-11.1-4.2-18.5-4.2h-11.7v27.1c9.6 0 19.7 0 29.3-.8-4.4 6.5-18.5 6.5-26.2 6.5h-3.1z"/><path d="m478.9 137.3c2.7-3.9 2.7-9.7 2.7-14.8v-10.3c0-7.9-3.7-15.5-8.7-24.8s-11.4-18.1-16.5-22.3h10.7c4.5 0 5.7.8 7.6 4.3 4.8 8.5 9.5 19.7 13 28 .7 1.6 1 3.4 2 3.4.8 0 1.6-1.9 2.9-4l8.5-13.7c2.9-4.5 5.6-10.1 5.6-13.5 0-1.7-.5-3.2-1.9-4.5h15.7l-14.2 20.1c-8.7 12.1-13.5 17.7-13.5 32.6v4.8c0 5.1 0 11 2.7 14.8z"/><path d="m50.2 144.6c20.4-3.8 45-.9 58.2 1 7.3 1.1 9.8.5 9.8.5s-7.7-1.5-12-2.8c-21.3-6-78.5-16-81.8 12 .1.1 7.3-7.2 25.8-10.7z"/><path d="m112.6 99.5c-.3-2.5.7-14.1.7-14.1l1 12.3s2.3-3.6 2.7-11.3c.4-9.1-4.1-15.3-11.1-17.6-3.5-1.2-6.7-.5-8.8-.2-6.9.7-13.1.1-15.7.3-15.6.7-19.5-4.2-22.5-8.9-5.7-8.8-6.8-7.6-12.5-18.9-4.8-9.5-9.1-3.6-16.9-1.1-2.3.7-10.1 3.6-10.7 3.9s-.4 2-.4 2.6c0 .4 1.9 2.3 2.5 2.6.6.2 11.7 3.1 14.9 3.9 0 0 1.2 2.6-1.5 12.1-2.1 7.2.4 11.4.4 11.4s-4.2-2.9-8-5.6c-3.9-2.7-16.1 2.7-23.4 8-3 2.1-2.5 5.1-2.5 5.1l3.6 7.9 3.3-1.9c-1.2-.4-2.1-1.5-2.1-2.9 0-1.6 1.3-3 2.9-3s2.9 1.3 2.9 3v.2c.5-1.1 1.5-1.8 2.7-1.8 1.6 0 2.9 1.3 2.9 3s-1.3 3-2.9 3c-.1 0-.2 0-.2 0 .8.5 1.3 1.5 1.3 2.5 0 1.7-1.3 3-2.9 3s-2.9-1.3-2.9-3c0-.3 0-.6.1-.8l-3.5 1.6 3.5 6.9 9.8-4.8 10.6 25.1-4.9 14.6 15 5.5 5.4-14.9-11.2-6.5-18.4-43.6.4-.2c1.8-.7 3.7-1.3 5.4-1.8 3.6-1 14.1 14.6 16.1 15.9 3 1.9 4.8 1.6 6.6 1.7l-.1-.1c-.2-.2-.5-.4-.8-.6-9.5-7.3-5.6-21.1-5.6-21.1.2 14 8.4 23 8.7 23.6l.1.1c.2.3.4.6.5 1 2.7 5.3-1.4 43.4-1.4 43.4l4.1-1.7s7.3-37.8 8.4-37.6c17.8 3.2 26-10.7 32.8 15.3 1 3.8-20.6 22.3-20.6 22.3s4.2.7 7.2-1.5c8.1-6 22.9-21.3 22.1-21.8-1-.7-4-6.7-4-7.8 0-.8.6-4 1.5-5-.2-.1-.5-.2-.7-.4-9.9-5-9.9-20.8-9.9-20.8 3.4 14.6 12.3 21.6 13 22.4 3.2 3.5 9.7 11.8 10.3 15.3.7 4.2-15.7 23.7-15.7 23.7s6.5 1 7.6-1.7c.8-2 17.3-22.7 17-24.4-.4-1.9-5.8-13.3-6.2-15.8zm-77.5 27.5c2.2 0 4 1.9 4 4.1 0 2.3-1.8 4.1-4 4.1s-4-1.9-4-4.1c0-2.3 1.8-4.1 4-4.1z"/></svg>