<svg enable-background="new 0 0 382 91" viewBox="0 0 382 91" xmlns="http://www.w3.org/2000/svg"><g enable-background="new"><path d="m112.7 65-13.2-43.5h10.4l5.2 20.3c.7 2.4 1.3 4.7 1.8 7 .5 2.2 1.1 4.6 1.8 7h.3c.6-2.4 1.2-4.7 1.7-7 .5-2.2 1.1-4.6 1.7-7l5.1-20.3h10l-13 43.5z"/><path d="m141.9 65v-43.5h9.8v35.2h17.3v8.3z"/><path d="m183.8 65.8c-1.5 0-2.9-.3-4.1-.8s-2.3-1.2-3.1-2.1-1.5-2-2-3.2-.7-2.5-.7-3.9c0-3.5 1.5-6.2 4.4-8.1 2.9-2 7.7-3.3 14.2-3.9-.1-1.5-.5-2.6-1.3-3.5s-2.1-1.3-3.9-1.3c-1.4 0-2.8.3-4.2.8s-2.9 1.3-4.5 2.2l-3.5-6.5c2.1-1.3 4.4-2.3 6.7-3.1s4.8-1.2 7.4-1.2c4.3 0 7.5 1.2 9.8 3.6 2.2 2.4 3.4 6.2 3.4 11.3v18.9h-8l-.7-3.4h-.3c-1.4 1.2-2.9 2.3-4.5 3-1.6.8-3.3 1.2-5.1 1.2zm3.3-7.6c1.1 0 2.1-.2 2.9-.7s1.6-1.2 2.5-2.1v-5.8c-3.5.5-5.9 1.2-7.2 2.1s-2 2-2 3.3c0 1.1.3 1.9 1 2.4s1.6.8 2.8.8z"/><path d="m227.6 65.8c-1.5 0-2.9-.4-4.4-1.1s-2.9-1.8-4.2-3.2h-.3l-.7 3.5h-7.7v-46.8h9.8v11.5l-.3 5.1c1.3-1.2 2.7-2.1 4.2-2.7s3-1 4.6-1c2 0 3.8.4 5.4 1.2s3 1.9 4.1 3.4c1.1 1.4 2 3.2 2.6 5.3s.9 4.4.9 6.9c0 2.8-.4 5.4-1.2 7.6s-1.8 4.1-3.1 5.6-2.8 2.7-4.5 3.5c-1.6.8-3.4 1.2-5.2 1.2zm-2.2-8c1.7 0 3.1-.8 4.3-2.3s1.8-4 1.8-7.4c0-6-1.9-8.9-5.7-8.9-2 0-3.8 1-5.7 3v13.5c.9.8 1.8 1.4 2.7 1.7.9.2 1.7.4 2.6.4z"/><path d="m257.7 65.8c-2.2 0-4.4-.4-6.7-1.3-2.3-.8-4.3-2-6-3.3l4.4-6.1c1.5 1.2 3 2 4.3 2.6 1.4.6 2.8.9 4.2.9 1.5 0 2.5-.2 3.2-.7s1-1.2 1-2.1c0-.5-.2-1-.6-1.4s-.9-.8-1.5-1.2-1.4-.7-2.2-1-1.6-.6-2.5-1c-1-.4-2-.9-3.1-1.4s-2-1.2-2.8-2-1.5-1.7-2.1-2.7c-.5-1-.8-2.3-.8-3.6 0-1.5.3-2.9.9-4.2s1.5-2.4 2.6-3.3 2.4-1.6 4-2.1 3.3-.8 5.2-.8c2.5 0 4.8.4 6.7 1.3s3.6 1.8 5 2.9l-4.4 5.9c-1.2-.9-2.4-1.6-3.5-2.1-1.2-.5-2.3-.7-3.5-.7-2.5 0-3.7.9-3.7 2.6 0 .5.2 1 .5 1.4.4.4.8.7 1.4 1s1.3.6 2.1.9 1.6.6 2.4.9c1.1.4 2.1.9 3.2 1.4 1 .5 2 1.1 2.9 1.9s1.6 1.7 2.1 2.8.8 2.4.8 3.9-.3 2.9-.9 4.2-1.4 2.4-2.6 3.4-2.6 1.7-4.3 2.3c-1.6.4-3.5.7-5.7.7z"/></g><path d="m-181.5-942.3c-105.1 0-190.4 85.2-190.4 190.4s85.2 190.4 190.4 190.4 190.4-85.3 190.4-190.4-85.3-190.4-190.4-190.4zm108.6 298.4c-29 29-67.6 45-108.6 45s-79.6-16-108.6-45c-28.9-28.9-44.8-67.2-44.8-108s15.9-79.1 44.8-108c29-29 67.6-45 108.6-45 41.1 0 79.6 16 108.6 45 28.9 28.9 44.8 67.2 44.8 108 0 40.7-15.9 79.1-44.8 108z"  transform="matrix(.237798 0 0 .237798 88.520165 224.307603)"/><path d="m32.6 32.5c.2-.2.5-.3.8-.3.2 0 .5.1.7.2s.4.3.5.5.3.5.4.8.1.6.1.9c0 .9-.3 1.6-.8 2.1l-9.7 8.4 9.7 8.4c.6.5.8 1.2.8 2.1 0 .7-.2 1.3-.5 1.7-.3.5-.7.7-1.2.7-.3 0-.6-.1-.8-.3l-12.1-10.5c-.6-.5-.9-1.2-.9-2.1 0-.8.3-1.5.9-2.1z"/><path d="m71.2 43c.6.6.9 1.3.9 2.1 0 .9-.3 1.6-.9 2.1l-12.1 10.5c-.2.2-.5.3-.8.3-.5 0-.9-.2-1.2-.7s-.5-1-.5-1.7c0-.9.3-1.5.8-2.1l9.7-8.4-9.7-8.4c-.6-.5-.8-1.2-.8-2.1 0-.3 0-.7.1-.9s.2-.5.4-.8c.1-.2.3-.4.5-.5s.4-.2.7-.2.6.1.8.3z"/><path d="m54.6 29.5-13.7 34.3c-.5.9-1.3 1.4-2.1 1.4-.7 0-1.2-.2-1.7-.7-.4-.4-.7-1-.7-1.7 0-.3.1-.6.2-1l13.7-34.3c.1-.3.3-.5.5-.7.4-.4 1-.7 1.6-.7s1.2.2 1.6.7c.5.5.7 1 .7 1.6.1.4 0 .8-.1 1.1z"/><g enable-background="new" ><path d="m277 65.1v-43.5h12.3c3.3 0 6.3.4 9 1.3s5 2.1 6.9 3.9 3.4 4 4.4 6.7 1.5 5.9 1.5 9.7-.5 7-1.5 9.7c-1 2.8-2.5 5-4.3 6.8-1.9 1.8-4.1 3.1-6.7 4s-5.5 1.3-8.7 1.3h-12.9zm9.8-7.9h1.9c1.9 0 3.6-.2 5.1-.7s2.8-1.3 3.9-2.4 1.9-2.5 2.5-4.3.9-4 .9-6.6-.3-4.7-.9-6.5-1.4-3.2-2.5-4.2-2.4-1.8-3.9-2.2-3.2-.7-5.1-.7h-1.9z"/><path d="m333.1 65.9c-2.4 0-4.6-.4-6.6-1.2s-3.8-1.9-5.3-3.4-2.7-3.3-3.5-5.4-1.3-4.6-1.3-7.3.4-5.1 1.3-7.2c.9-2.2 2.1-4 3.5-5.5s3.1-2.6 5-3.4 3.8-1.2 5.8-1.2c2.4 0 4.4.4 6.2 1.2s3.2 1.9 4.4 3.3 2.1 3.1 2.6 5c.6 1.9.9 4 .9 6.3 0 .9 0 1.7-.1 2.5s-.2 1.4-.3 1.8h-19.8c.4 2.4 1.4 4.2 3 5.3s3.4 1.7 5.6 1.7c2.4 0 4.7-.7 7.1-2.2l3.3 5.9c-1.7 1.2-3.6 2.1-5.6 2.7s-4.2 1.1-6.2 1.1zm-7.3-20.9h11.9c0-1.9-.4-3.4-1.3-4.5-.8-1.2-2.3-1.7-4.3-1.7-1.6 0-2.9.5-4.1 1.5-1.1 1-1.9 2.5-2.2 4.7z"/><path d="m359.8 65.1-11.2-33.1h9.9l4.3 15.6c.4 1.6.9 3.3 1.3 5s.9 3.4 1.3 5.2h.3c.4-1.7.8-3.5 1.2-5.2s.9-3.4 1.3-5l4.3-15.6h9.4l-10.8 33.1z"/></g></svg>
